<?xml version="1.0" encoding="UTF-8" standalone="no"?>
<svg
   xmlns:dc="http://purl.org/dc/elements/1.1/"
   xmlns:cc="http://creativecommons.org/ns#"
   xmlns:rdf="http://www.w3.org/1999/02/22-rdf-syntax-ns#"
   xmlns:svg="http://www.w3.org/2000/svg"
   xmlns="http://www.w3.org/2000/svg"
   xmlns:sodipodi="http://sodipodi.sourceforge.net/DTD/sodipodi-0.dtd"
   xmlns:inkscape="http://www.inkscape.org/namespaces/inkscape"
   viewBox="0 0 300 165"
   aria-labelledby="NerdlabLogo"
   role="img"
   class="c-brand__mark"
   version="1.1"
   id="svg932"
   sodipodi:docname="nerdlabplotflat.svg"
   inkscape:version="0.92.2 5c3e80d, 2017-08-06">
  <sodipodi:namedview
     pagecolor="#ffffff"
     bordercolor="#666666"
     borderopacity="1"
     objecttolerance="10"
     gridtolerance="10"
     guidetolerance="10"
     inkscape:pageopacity="0"
     inkscape:pageshadow="2"
     inkscape:window-width="1305"
     inkscape:window-height="774"
     id="namedview934"
     showgrid="false"
     inkscape:zoom="1.9405164"
     inkscape:cx="124.22925"
     inkscape:cy="69.593492"
     inkscape:window-x="2227"
     inkscape:window-y="169"
     inkscape:window-maximized="0"
     inkscape:current-layer="svg932" />
  <metadata
     id="metadata938">
    <rdf:RDF>
      <cc:Work
         rdf:about="">
        <dc:format>image/svg+xml</dc:format>
        <dc:type
           rdf:resource="http://purl.org/dc/dcmitype/StillImage" />
        <dc:title>Nerdlab</dc:title>
      </cc:Work>
    </rdf:RDF>
  </metadata>
  <defs
     id="defs936" />
  <title
     id="NerdlabLogo">Nerdlab</title>
  <path
     id="path3413"
     d="M 36.220216 98.607583 L 42.512282 118.15412 "
     style="fill:none;fill-rule:evenodd;stroke:#0000ff;stroke-width:1.15083396px;stroke-linecap:butt;stroke-linejoin:miter;stroke-opacity:1" />
  <path
     id="path3409"
     d="M 36.365878 90.898231 L 48.57242 128.81831 "
     style="fill:none;fill-rule:evenodd;stroke:#0000ff;stroke-width:1.15083396px;stroke-linecap:butt;stroke-linejoin:miter;stroke-opacity:1" />
  <path
     id="path3405"
     d="M 37.791084 87.169902 L 52.9984 134.412 "
     style="fill:none;fill-rule:evenodd;stroke:#0000ff;stroke-width:1.15083396px;stroke-linecap:butt;stroke-linejoin:miter;stroke-opacity:1" />
  <path
     id="path3401"
     d="M 39.684044 84.894385 L 56.586188 137.40031 "
     style="fill:none;fill-rule:evenodd;stroke:#0000ff;stroke-width:1.15083396px;stroke-linecap:butt;stroke-linejoin:miter;stroke-opacity:1" />
  <path
     id="path3397"
     d="M 41.855003 83.476711 L 59.637997 138.71896 "
     style="fill:none;fill-rule:evenodd;stroke:#0000ff;stroke-width:1.15083396px;stroke-linecap:butt;stroke-linejoin:miter;stroke-opacity:1" />
  <path
     id="path3393"
     d="M 44.172705 82.519266 L 62.438891 139.26386 "
     style="fill:none;fill-rule:evenodd;stroke:#0000ff;stroke-width:1.15083396px;stroke-linecap:butt;stroke-linejoin:miter;stroke-opacity:1" />
  <path
     id="path3389"
     d="M 46.521575 81.654267 L 65.233295 139.78292 "
     style="fill:none;fill-rule:evenodd;stroke:#0000ff;stroke-width:1.15083396px;stroke-linecap:butt;stroke-linejoin:miter;stroke-opacity:1" />
  <path
     id="path3385"
     d="M 48.880495 80.826291 L 67.936688 140.0237 "
     style="fill:none;fill-rule:evenodd;stroke:#0000ff;stroke-width:1.15083396px;stroke-linecap:butt;stroke-linejoin:miter;stroke-opacity:1" />
  <path
     id="path3381"
     d="M 51.251323 80.029503 L 70.574005 140.05475 "
     style="fill:none;fill-rule:evenodd;stroke:#0000ff;stroke-width:1.15083396px;stroke-linecap:butt;stroke-linejoin:miter;stroke-opacity:1" />
  <path
     id="path3377"
     d="M 53.62069 79.232553 L 73.210025 140.08756 "
     style="fill:none;fill-rule:evenodd;stroke:#0000ff;stroke-width:1.15083396px;stroke-linecap:butt;stroke-linejoin:miter;stroke-opacity:1" />
  <path
     id="path3373"
     d="M 55.989564 78.435764 L 75.787657 139.93928 "
     style="fill:none;fill-rule:evenodd;stroke:#0000ff;stroke-width:1.15083396px;stroke-linecap:butt;stroke-linejoin:miter;stroke-opacity:1" />
  <path
     id="path3369"
     d="M 58.363994 77.650162 L 78.328252 139.66987 "
     style="fill:none;fill-rule:evenodd;stroke:#0000ff;stroke-width:1.15083396px;stroke-linecap:butt;stroke-linejoin:miter;stroke-opacity:1" />
  <path
     id="path3365"
     d="M 60.791994 77.036793 L 80.867392 139.40033 "
     style="fill:none;fill-rule:evenodd;stroke:#0000ff;stroke-width:1.15083396px;stroke-linecap:butt;stroke-linejoin:miter;stroke-opacity:1" />
  <path
     id="path3361"
     d="M 63.221305 76.42168 L 83.389638 139.07391 "
     style="fill:none;fill-rule:evenodd;stroke:#0000ff;stroke-width:1.15083396px;stroke-linecap:butt;stroke-linejoin:miter;stroke-opacity:1" />
  <path
     id="path3357"
     d="M 65.649907 75.808748 L 85.854913 138.57635 "
     style="fill:none;fill-rule:evenodd;stroke:#0000ff;stroke-width:1.15083396px;stroke-linecap:butt;stroke-linejoin:miter;stroke-opacity:1" />
  <path
     id="path3353"
     d="M 68.079789 75.195408 L 88.322457 138.08001 "
     style="fill:none;fill-rule:evenodd;stroke:#0000ff;stroke-width:1.15083396px;stroke-linecap:butt;stroke-linejoin:miter;stroke-opacity:1" />
  <path
     id="path3349"
     d="M 70.531641 74.656121 L 90.788168 137.58232 "
     style="fill:none;fill-rule:evenodd;stroke:#0000ff;stroke-width:1.15083396px;stroke-linecap:butt;stroke-linejoin:miter;stroke-opacity:1" />
  <path
     id="path3345"
     d="M 73.003094 74.177994 L 93.203986 136.93136 "
     style="fill:none;fill-rule:evenodd;stroke:#0000ff;stroke-width:1.15083396px;stroke-linecap:butt;stroke-linejoin:miter;stroke-opacity:1" />
  <path
     id="path3341"
     d="M 75.476319 73.699295 L 95.604341 136.2263 "
     style="fill:none;fill-rule:evenodd;stroke:#0000ff;stroke-width:1.15083396px;stroke-linecap:butt;stroke-linejoin:miter;stroke-opacity:1" />
  <path
     id="path3337"
     d="M 77.948257 73.221012 L 98.00356 135.52355 "
     style="fill:none;fill-rule:evenodd;stroke:#0000ff;stroke-width:1.15083396px;stroke-linecap:butt;stroke-linejoin:miter;stroke-opacity:1" />
  <path
     id="path3333"
     d="M 80.429051 72.765831 L 100.3831 134.75381 "
     style="fill:none;fill-rule:evenodd;stroke:#0000ff;stroke-width:1.15083396px;stroke-linecap:butt;stroke-linejoin:miter;stroke-opacity:1" />
  <path
     id="path3329"
     d="M 82.933148 72.388814 L 102.7097 133.82399 "
     style="fill:none;fill-rule:evenodd;stroke:#0000ff;stroke-width:1.15083396px;stroke-linecap:butt;stroke-linejoin:miter;stroke-opacity:1" />
  <path
     id="path3325"
     d="M 85.439113 72.011826 L 105.03775 132.89432 "
     style="fill:none;fill-rule:evenodd;stroke:#0000ff;stroke-width:1.15083396px;stroke-linecap:butt;stroke-linejoin:miter;stroke-opacity:1" />
  <path
     id="path3321"
     d="M 87.943601 71.634688 L 107.35521 131.93758 "
     style="fill:none;fill-rule:evenodd;stroke:#0000ff;stroke-width:1.15083396px;stroke-linecap:butt;stroke-linejoin:miter;stroke-opacity:1" />
  <path
     id="path3317"
     d="M 90.458964 71.292973 L 109.58442 130.70689 "
     style="fill:none;fill-rule:evenodd;stroke:#0000ff;stroke-width:1.15083396px;stroke-linecap:butt;stroke-linejoin:miter;stroke-opacity:1" />
  <path
     id="path3313"
     d="M 93.003917 71.037106 L 111.81576 129.47678 "
     style="fill:none;fill-rule:evenodd;stroke:#0000ff;stroke-width:1.15083396px;stroke-linecap:butt;stroke-linejoin:miter;stroke-opacity:1" />
  <path
     id="path3309"
     d="M 95.547773 70.783543 L 113.98885 128.07013 "
     style="fill:none;fill-rule:evenodd;stroke:#0000ff;stroke-width:1.15083396px;stroke-linecap:butt;stroke-linejoin:miter;stroke-opacity:1" />
  <path
     id="path3305"
     d="M 98.093298 70.529443 L 116.06045 126.34378 "
     style="fill:none;fill-rule:evenodd;stroke:#0000ff;stroke-width:1.15083396px;stroke-linecap:butt;stroke-linejoin:miter;stroke-opacity:1" />
  <path
     id="path3301"
     d="M 100.63732 70.275194 L 118.03764 124.32991 "
     style="fill:none;fill-rule:evenodd;stroke:#0000ff;stroke-width:1.15083396px;stroke-linecap:butt;stroke-linejoin:miter;stroke-opacity:1" />
  <path
     id="path3297"
     d="M 103.23148 70.172179 L 119.91676 122.00562 "
     style="fill:none;fill-rule:evenodd;stroke:#0000ff;stroke-width:1.15083396px;stroke-linecap:butt;stroke-linejoin:miter;stroke-opacity:1" />
  <path
     id="path3293"
     d="M 105.8751 70.228481 L 121.66757 119.28724 "
     style="fill:none;fill-rule:evenodd;stroke:#0000ff;stroke-width:1.15083396px;stroke-linecap:butt;stroke-linejoin:miter;stroke-opacity:1" />
  <path
     id="path3289"
     d="M 108.54453 70.36536 L 123.35678 116.37911 "
     style="fill:none;fill-rule:evenodd;stroke:#0000ff;stroke-width:1.15083396px;stroke-linecap:butt;stroke-linejoin:miter;stroke-opacity:1" />
  <path
     id="path3285"
     d="M 111.32385 70.836055 L 124.85127 112.85947 "
     style="fill:none;fill-rule:evenodd;stroke:#0000ff;stroke-width:1.15083396px;stroke-linecap:butt;stroke-linejoin:miter;stroke-opacity:1" />
  <path
     id="path3281"
     d="M 114.13276 71.406266 L 126.23672 109.00768 "
     style="fill:none;fill-rule:evenodd;stroke:#0000ff;stroke-width:1.15083396px;stroke-linecap:butt;stroke-linejoin:miter;stroke-opacity:1" />
  <path
     id="path3277"
     d="M 117.15295 72.626753 L 127.46081 104.64848 "
     style="fill:none;fill-rule:evenodd;stroke:#0000ff;stroke-width:1.15083396px;stroke-linecap:butt;stroke-linejoin:miter;stroke-opacity:1" />
  <path
     id="path3273"
     d="M 120.39338 74.536854 L 128.39712 99.400186 "
     style="fill:none;fill-rule:evenodd;stroke:#0000ff;stroke-width:1.15083396px;stroke-linecap:butt;stroke-linejoin:miter;stroke-opacity:1" />
  <path
     id="path3269"
     d="M 124.14106 78.019392 L 128.57019 91.779337 "
     style="fill:none;fill-rule:evenodd;stroke:#0000ff;stroke-width:1.15083396px;stroke-linecap:butt;stroke-linejoin:miter;stroke-opacity:1" />
  <path
     id="path3227"
     d="M 171.66868 64.618912 L 178.36331 85.416011 "
     style="fill:none;fill-rule:evenodd;stroke:#ff0000;stroke-width:1.15083396px;stroke-linecap:butt;stroke-linejoin:miter;stroke-opacity:1" />
  <path
     id="path3223"
     d="M 173.00688 60.613581 L 182.62886 90.503921 "
     style="fill:none;fill-rule:evenodd;stroke:#ff0000;stroke-width:1.15083396px;stroke-linecap:butt;stroke-linejoin:miter;stroke-opacity:1" />
  <path
     id="path3219"
     d="M 174.63554 57.517332 L 186.41289 94.103267 "
     style="fill:none;fill-rule:evenodd;stroke:#ff0000;stroke-width:1.15083396px;stroke-linecap:butt;stroke-linejoin:miter;stroke-opacity:1" />
  <path
     id="path3215"
     d="M 176.49575 55.132924 L 189.91888 96.832369 "
     style="fill:none;fill-rule:evenodd;stroke:#ff0000;stroke-width:1.15083396px;stroke-linecap:butt;stroke-linejoin:miter;stroke-opacity:1" />
  <path
     id="path3211"
     d="M 178.48288 53.150243 L 193.25394 99.037099 "
     style="fill:none;fill-rule:evenodd;stroke:#ff0000;stroke-width:1.15083396px;stroke-linecap:butt;stroke-linejoin:miter;stroke-opacity:1" />
  <path
     id="path3207"
     d="M 180.55309 51.425664 L 196.47148 100.8767 "
     style="fill:none;fill-rule:evenodd;stroke:#ff0000;stroke-width:1.15083396px;stroke-linecap:butt;stroke-linejoin:miter;stroke-opacity:1" />
  <path
     id="path3203"
     d="M 182.67897 49.867418 L 199.48175 102.06467 "
     style="fill:none;fill-rule:evenodd;stroke:#ff0000;stroke-width:1.15083396px;stroke-linecap:butt;stroke-linejoin:miter;stroke-opacity:1" />
  <path
     id="path3199"
     d="M 184.87107 48.521493 L 202.4082 103 "
     style="fill:none;fill-rule:evenodd;stroke:#ff0000;stroke-width:1.15083396px;stroke-linecap:butt;stroke-linejoin:miter;stroke-opacity:1" />
  <path
     id="path3195"
     d="M 187.07123 47.193061 L 205.20531 103.52726 "
     style="fill:none;fill-rule:evenodd;stroke:#ff0000;stroke-width:1.15083396px;stroke-linecap:butt;stroke-linejoin:miter;stroke-opacity:1" />
  <path
     id="path3191"
     d="M 189.35532 46.132862 L 207.8897 103.71061 "
     style="fill:none;fill-rule:evenodd;stroke:#ff0000;stroke-width:1.15083396px;stroke-linecap:butt;stroke-linejoin:miter;stroke-opacity:1" />
  <path
     id="path3187"
     d="M 191.6413 45.072047 L 210.50141 103.66033 "
     style="fill:none;fill-rule:evenodd;stroke:#ff0000;stroke-width:1.15083396px;stroke-linecap:butt;stroke-linejoin:miter;stroke-opacity:1" />
  <path
     id="path3183"
     d="M 193.92538 44.011849 L 213.11029 103.60909 "
     style="fill:none;fill-rule:evenodd;stroke:#ff0000;stroke-width:1.15083396px;stroke-linecap:butt;stroke-linejoin:miter;stroke-opacity:1" />
  <path
     id="path3179"
     d="M 196.20972 42.950935 L 215.62644 103.2697 "
     style="fill:none;fill-rule:evenodd;stroke:#ff0000;stroke-width:1.15083396px;stroke-linecap:butt;stroke-linejoin:miter;stroke-opacity:1" />
  <path
     id="path3175"
     d="M 198.50143 41.908371 L 218.13675 102.90624 "
     style="fill:none;fill-rule:evenodd;stroke:#ff0000;stroke-width:1.15083396px;stroke-linecap:butt;stroke-linejoin:miter;stroke-opacity:1" />
  <path
     id="path3171"
     d="M 200.8319 40.992234 L 220.64512 102.54277 "
     style="fill:none;fill-rule:evenodd;stroke:#ff0000;stroke-width:1.15083396px;stroke-linecap:butt;stroke-linejoin:miter;stroke-opacity:1" />
  <path
     id="path3167"
     d="M 203.16385 40.074287 L 223.10014 102.00569 "
     style="fill:none;fill-rule:evenodd;stroke:#ff0000;stroke-width:1.15083396px;stroke-linecap:butt;stroke-linejoin:miter;stroke-opacity:1" />
  <path
     id="path3163"
     d="M 205.4943 39.15815 L 225.53507 101.4141 "
     style="fill:none;fill-rule:evenodd;stroke:#ff0000;stroke-width:1.15083396px;stroke-linecap:butt;stroke-linejoin:miter;stroke-opacity:1" />
  <path
     id="path3159"
     d="M 207.83113 38.254196 L 227.97197 100.82248 "
     style="fill:none;fill-rule:evenodd;stroke:#ff0000;stroke-width:1.15083396px;stroke-linecap:butt;stroke-linejoin:miter;stroke-opacity:1" />
  <path
     id="path3155"
     d="M 210.19357 37.437431 L 230.38666 100.16799 "
     style="fill:none;fill-rule:evenodd;stroke:#ff0000;stroke-width:1.15083396px;stroke-linecap:butt;stroke-linejoin:miter;stroke-opacity:1" />
  <path
     id="path3151"
     d="M 212.55633 36.621197 L 232.75551 99.369256 "
     style="fill:none;fill-rule:evenodd;stroke:#ff0000;stroke-width:1.15083396px;stroke-linecap:butt;stroke-linejoin:miter;stroke-opacity:1" />
  <path
     style="fill:none;fill-rule:nonzero;stroke:#000000"
     d="m 272.89453,16.40625 -11.83577,0.852256 -12.92889,1.785541 -27.44637,6.062426 -13.67211,4.122629 -13.0745,4.747401 -12.0542,5.295045 -10.61121,5.765561 -12.30012,7.569255 -6.65016,3.340577 -7.94034,2.740559 -8.24767,1.592548 -7.43661,0.403137 -14.49736,-0.634357 -11.96596,0.364466 -13.012509,1.459411 -13.648909,2.41816 -13.875152,3.240715 -26.788421,8.404315 -12.092961,4.891212 -10.678589,5.168987 1.521344,6.983826 1.394784,3.308877 2.035044,2.953391 1.812092,1.222062 1.806086,0.12006 1.776295,-0.18723 1.722714,0.30019 3.188848,3.43678 3.351611,5.81025 5.076729,10.05961 5.231328,8.93254 6.159297,8.47371 3.480162,3.44602 4.303041,2.59499 6.706591,1.93822 7.775925,0.73231 8.18994,-0.2719 7.948638,-1.07441 12.515747,-3.00273 10.312065,-3.77515 8.34295,-4.55459 6.6084,-5.34107 5.10842,-6.13455 3.843,-6.93508 2.81215,-7.74261 2.01586,-8.557188 2.68733,-14.942958 2.59184,-6.098296 1.99825,-2.235623 2.61516,-1.514139 1.56836,-0.419922 1.56836,-0.419922 3.01899,-0.007 2.84139,0.910944 5.27738,3.924105 9.82513,11.695405 6.02435,6.402748 6.30662,5.299082 6.79557,4.08423 7.49117,2.75823 8.39346,1.32105 9.5024,-0.22729 10.81801,-1.88681 12.34029,-3.65749 7.42076,-3.0435 7.22828,-3.858711 6.36763,-4.521377 4.8388,-5.03149 2.42943,-4.399714 1.29128,-4.725286 1.02581,-10.293755 0.13629,-10.475776 -0.63285,-11.249592 -0.002,-6.707195 1.04335,-4.570557 1.34894,-1.241735 1.6963,-0.73071 1.53256,-0.949566 0.85775,-1.898302 -0.42673,-6.821698 -2.10062,-6.793536 v 0"
     id="path4922" />
  <path
     style="fill:none;fill-rule:nonzero;stroke:#000000"
     d="m 246.52148,28.5625 3.73633,0.634766 4.30156,3.551916 3.31762,5.664578 2.3991,7.138995 1.54598,7.975165 0.7943,15.905864 -0.62086,6.654208 -1.21231,4.937399 -3.07672,4.702323 -5.16163,4.4103 -6.73683,3.998149 -7.80232,3.465873 -8.35807,2.813474 -8.40414,2.04094 -7.94046,1.14828 -6.96709,0.1355 -4.9917,-0.93939 -5.02145,-1.98221 -9.57892,-6.400581 -8.03826,-8.494859 -5.39116,-9.20444 -1.80488,-6.985022 0.27601,-6.008991 2.01879,-5.142674 3.4235,-4.386071 4.49011,-3.739184 5.21862,-3.20201 11.27043,-5.23136 19.54445,-7.19895 10.84599,-3.072795 11.09394,-2.245834 6.83007,-0.943359 v 0"
     id="path4920" />
  <path
     style="fill:none;fill-rule:nonzero;stroke:#000000"
     d="m 103.10352,70.117188 1.90625,0.0039 8.03377,0.947559 6.98528,2.970219 2.90304,2.456282 2.40523,3.217158 1.82885,4.063102 1.1739,4.994117 0.0536,10.674389 -2.70947,11.441146 -2.29104,5.43123 -2.86199,4.93067 -3.39299,4.19934 -3.88406,3.23728 -6.10141,3.36606 -7.450749,2.97543 -8.298602,2.43405 -8.644977,1.74193 -8.48987,0.89904 -7.833283,-0.0946 -6.675214,-1.23898 -5.015664,-2.53411 -3.518007,-3.66927 -3.860417,-5.44937 -7.229295,-14.15019 -2.609492,-7.6564 -1.433131,-7.347652 0.122923,-6.516701 2.058669,-5.163536 4.077204,-3.089082 5.229436,-1.926543 10.620274,-3.572572 10.941637,-2.7654 20.623636,-3.564372 13.335942,-1.24414 v 6e-6"
     id="path3432" />
  <path
     id="path3147"
     d="M 214.92014 35.80266 L 235.12633 98.572462 "
     style="fill:none;fill-rule:evenodd;stroke:#ff0000;stroke-width:1.15083396px;stroke-linecap:butt;stroke-linejoin:miter;stroke-opacity:1" />
  <path
     id="path3143"
     d="M 217.28277 34.986466 L 237.49445 97.773338 "
     style="fill:none;fill-rule:evenodd;stroke:#ff0000;stroke-width:1.15083396px;stroke-linecap:butt;stroke-linejoin:miter;stroke-opacity:1" />
  <path
     id="path3139"
     d="M 219.68226 34.277144 L 239.80872 96.800736 "
     style="fill:none;fill-rule:evenodd;stroke:#ff0000;stroke-width:1.15083396px;stroke-linecap:butt;stroke-linejoin:miter;stroke-opacity:1" />
  <path
     id="path3135"
     d="M 222.08823 33.595595 L 242.10587 95.781123 "
     style="fill:none;fill-rule:evenodd;stroke:#ff0000;stroke-width:1.15083396px;stroke-linecap:butt;stroke-linejoin:miter;stroke-opacity:1" />
  <path
     id="path3131"
     d="M 224.49628 32.914006 L 244.40493 94.75956 "
     style="fill:none;fill-rule:evenodd;stroke:#ff0000;stroke-width:1.15083396px;stroke-linecap:butt;stroke-linejoin:miter;stroke-opacity:1" />
  <path
     id="path3127"
     d="M 226.90225 32.232456 L 246.66573 93.627045 "
     style="fill:none;fill-rule:evenodd;stroke:#ff0000;stroke-width:1.15083396px;stroke-linecap:butt;stroke-linejoin:miter;stroke-opacity:1" />
  <path
     id="path3123"
     d="M 229.32626 31.60544 L 248.87055 92.32049 "
     style="fill:none;fill-rule:evenodd;stroke:#ff0000;stroke-width:1.15083396px;stroke-linecap:butt;stroke-linejoin:miter;stroke-opacity:1" />
  <path
     id="path3119"
     d="M 231.79267 31.105566 L 251.07596 91.009839 "
     style="fill:none;fill-rule:evenodd;stroke:#ff0000;stroke-width:1.15083396px;stroke-linecap:butt;stroke-linejoin:miter;stroke-opacity:1" />
  <path
     id="path3115"
     d="M 234.25711 30.605692 L 253.23172 89.551005 "
     style="fill:none;fill-rule:evenodd;stroke:#ff0000;stroke-width:1.15083396px;stroke-linecap:butt;stroke-linejoin:miter;stroke-opacity:1" />
  <path
     id="path3111"
     d="M 236.72422 30.107546 L 255.29305 87.790988 "
     style="fill:none;fill-rule:evenodd;stroke:#ff0000;stroke-width:1.15083396px;stroke-linecap:butt;stroke-linejoin:miter;stroke-opacity:1" />
  <path
     id="path3107"
     d="M 239.18868 29.607673 L 257.35191 86.031141 "
     style="fill:none;fill-rule:evenodd;stroke:#ff0000;stroke-width:1.15083396px;stroke-linecap:butt;stroke-linejoin:miter;stroke-opacity:1" />
  <path
     id="path3103"
     d="M 241.68504 29.199379 L 259.25134 83.76973 "
     style="fill:none;fill-rule:evenodd;stroke:#ff0000;stroke-width:1.15083396px;stroke-linecap:butt;stroke-linejoin:miter;stroke-opacity:1" />
  <path
     id="path3099"
     d="M 244.1866 28.814745 L 260.87395 80.654635 "
     style="fill:none;fill-rule:evenodd;stroke:#ff0000;stroke-width:1.15083396px;stroke-linecap:butt;stroke-linejoin:miter;stroke-opacity:1" />
  <path
     id="path3095"
     d="M 246.74979 28.62116 L 262.00209 76.00191 "
     style="fill:none;fill-rule:evenodd;stroke:#ff0000;stroke-width:1.15083396px;stroke-linecap:butt;stroke-linejoin:miter;stroke-opacity:1" />
  <path
     id="path3091"
     d="M 249.50294 29.01203 L 262.59286 69.675435 "
     style="fill:none;fill-rule:evenodd;stroke:#ff0000;stroke-width:1.15083396px;stroke-linecap:butt;stroke-linejoin:miter;stroke-opacity:1" />
  <path
     id="path3087"
     d="M 252.72468 30.863258 L 262.55143 61.390414 "
     style="fill:none;fill-rule:evenodd;stroke:#ff0000;stroke-width:1.15083396px;stroke-linecap:butt;stroke-linejoin:miter;stroke-opacity:1" />
  <path
     id="path3083"
     d="M 257.6676 38.05676 L 260.57091 47.075981 "
     style="fill:none;fill-rule:evenodd;stroke:#ff0000;stroke-width:1.15083396px;stroke-linecap:butt;stroke-linejoin:miter;stroke-opacity:1" />
</svg>
