<?xml version="1.0" encoding="UTF-8"?>
<svg id="svg932" class="c-brand__mark" aria-labelledby="NerdlabLogo" role="img" version="1.1" viewBox="0 0 300 165" xmlns="http://www.w3.org/2000/svg" xmlns:cc="http://creativecommons.org/ns#" xmlns:dc="http://purl.org/dc/elements/1.1/" xmlns:rdf="http://www.w3.org/1999/02/22-rdf-syntax-ns#">
 <metadata id="metadata938">
  <rdf:RDF>
   <cc:Work rdf:about="">
    <dc:format>image/svg+xml</dc:format>
    <dc:type rdf:resource="http://purl.org/dc/dcmitype/StillImage"/>
    <dc:title>Nerdlab</dc:title>
   </cc:Work>
  </rdf:RDF>
 </metadata>
 <title id="NerdlabLogo">Nerdlab</title>
 <path id="path924" d="m272.89 16.407c-29.729 0.95974-75.626 12.697-101.62 28.631-8.7123 5.1369-15.123 10.498-26.889 13.65-11.766 3.1527-19.998 1.7153-30.182 1.3613-30.149-0.60908-75.837 11.913-102.06 25.946 0.66809 4.5851 1.7378 9.6231 4.9505 13.246 2.4096 2.7173 4.8654 0.37779 7.116 1.4562 3.9083 2.0354 9.662 16.187 11.619 19.306 3.5118 5.7849 6.6407 12.233 11.39 17.406 2.078 2.5259 4.6089 4.6502 7.7841 6.0413 7.938 3.4779 20.475 3.2013 30.621 1.3234 36.522-6.9836 47.036-22.131 51.558-46.043 1.8715-9.7495 1.9966-21.833 9.892-24.79 0.52294-0.14012 1.0459-0.28024 1.5688-0.42036s1.0459-0.28024 1.5688-0.42037c8.3158-1.3875 14.396 8.7536 20.962 16.523 15.872 18.447 32.551 26.308 67.672 14.095 9.7257-3.4467 20.721-9.4756 25.857-16.457 2.0542-2.7924 3.1839-5.8975 3.7206-9.124 1.2648-6.7845 1.0821-13.742 1.1609-20.769 0.13509-3.6794-1.958-18.812 0.40895-22.529 1.3399-2.3207 4.9679-1.3312 5.4346-4.8191 0.51792-4.3424-0.81324-9.3104-2.5272-13.615z" fill="none" stroke="#000"/>
 <path id="path3413" d="m36.22 98.608 6.2921 19.547" fill="none" stroke="#00f" stroke-width="1.1508px"/>
 <path id="path3409" d="m36.366 90.898 12.207 37.92" fill="none" stroke="#00f" stroke-width="1.1508px"/>
 <path id="path3405" d="m37.791 87.17 15.207 47.242" fill="none" stroke="#00f" stroke-width="1.1508px"/>
 <path id="path3401" d="m39.684 84.894 16.902 52.506" fill="none" stroke="#00f" stroke-width="1.1508px"/>
 <path id="path3397" d="m41.855 83.477 17.783 55.242" fill="none" stroke="#00f" stroke-width="1.1508px"/>
 <path id="path3393" d="m44.173 82.519 18.266 56.745" fill="none" stroke="#00f" stroke-width="1.1508px"/>
 <path id="path3389" d="m46.522 81.654 18.712 58.129" fill="none" stroke="#00f" stroke-width="1.1508px"/>
 <path id="path3385" d="m48.88 80.826 19.056 59.197" fill="none" stroke="#00f" stroke-width="1.1508px"/>
 <path id="path3381" d="m51.251 80.03 19.323 60.025" fill="none" stroke="#00f" stroke-width="1.1508px"/>
 <path id="path3377" d="m53.621 79.233 19.589 60.855" fill="none" stroke="#00f" stroke-width="1.1508px"/>
 <path id="path3373" d="m55.99 78.436 19.798 61.504" fill="none" stroke="#00f" stroke-width="1.1508px"/>
 <path id="path3369" d="m58.364 77.65 19.964 62.02" fill="none" stroke="#00f" stroke-width="1.1508px"/>
 <path id="path3365" d="m60.792 77.037 20.075 62.364" fill="none" stroke="#00f" stroke-width="1.1508px"/>
 <path id="path3361" d="m63.221 76.422 20.168 62.652" fill="none" stroke="#00f" stroke-width="1.1508px"/>
 <path id="path3357" d="m65.65 75.809 20.205 62.768" fill="none" stroke="#00f" stroke-width="1.1508px"/>
 <path id="path3353" d="m68.08 75.195 20.243 62.885" fill="none" stroke="#00f" stroke-width="1.1508px"/>
 <path id="path3349" d="m70.532 74.656 20.257 62.926" fill="none" stroke="#00f" stroke-width="1.1508px"/>
 <path id="path3345" d="m73.003 74.178 20.201 62.753" fill="none" stroke="#00f" stroke-width="1.1508px"/>
 <path id="path3341" d="m75.476 73.699 20.128 62.527" fill="none" stroke="#00f" stroke-width="1.1508px"/>
 <path id="path3337" d="m77.948 73.221 20.055 62.303" fill="none" stroke="#00f" stroke-width="1.1508px"/>
 <path id="path3333" d="m80.429 72.766 19.954 61.988" fill="none" stroke="#00f" stroke-width="1.1508px"/>
 <path id="path3329" d="m82.933 72.389 19.777 61.435" fill="none" stroke="#00f" stroke-width="1.1508px"/>
 <path id="path3325" d="m85.439 72.012 19.599 60.882" fill="none" stroke="#00f" stroke-width="1.1508px"/>
 <path id="path3321" d="m87.944 71.635 19.412 60.303" fill="none" stroke="#00f" stroke-width="1.1508px"/>
 <path id="path3317" d="m90.459 71.293 19.125 59.414" fill="none" stroke="#00f" stroke-width="1.1508px"/>
 <path id="path3313" d="m93.004 71.037 18.812 58.44" fill="none" stroke="#00f" stroke-width="1.1508px"/>
 <path id="path3309" d="m95.548 70.784 18.441 57.287" fill="none" stroke="#00f" stroke-width="1.1508px"/>
 <path id="path3305" d="m98.093 70.529 17.967 55.814" fill="none" stroke="#00f" stroke-width="1.1508px"/>
 <path id="path3301" d="m100.64 70.275 17.4 54.055" fill="none" stroke="#00f" stroke-width="1.1508px"/>
 <path id="path3297" d="m103.23 70.172 16.685 51.833" fill="none" stroke="#00f" stroke-width="1.1508px"/>
 <path id="path3293" d="m105.88 70.228 15.792 49.059" fill="none" stroke="#00f" stroke-width="1.1508px"/>
 <path id="path3289" d="m108.54 70.365 14.812 46.014" fill="none" stroke="#00f" stroke-width="1.1508px"/>
 <path id="path3285" d="m111.32 70.836 13.527 42.023" fill="none" stroke="#00f" stroke-width="1.1508px"/>
 <path id="path3281" d="m114.13 71.406 12.104 37.601" fill="none" stroke="#00f" stroke-width="1.1508px"/>
 <path id="path3277" d="m117.15 72.627 10.308 32.022" fill="none" stroke="#00f" stroke-width="1.1508px"/>
 <path id="path3273" d="m120.39 74.537 8.0037 24.863" fill="none" stroke="#00f" stroke-width="1.1508px"/>
 <path id="path3269" d="m124.14 78.019 4.4291 13.76" fill="none" stroke="#00f" stroke-width="1.1508px"/>
 <path id="path3227" d="m171.67 64.619 6.6946 20.797" fill="none" stroke="#f00" stroke-width="1.1508px"/>
 <path id="path3223" d="m173.01 60.614 9.622 29.89" fill="none" stroke="#f00" stroke-width="1.1508px"/>
 <path id="path3219" d="m174.64 57.517 11.777 36.586" fill="none" stroke="#f00" stroke-width="1.1508px"/>
 <path id="path3215" d="m176.5 55.133 13.423 41.699" fill="none" stroke="#f00" stroke-width="1.1508px"/>
 <path id="path3211" d="m178.48 53.15 14.771 45.887" fill="none" stroke="#f00" stroke-width="1.1508px"/>
 <path id="path3207" d="m180.55 51.426 15.918 49.451" fill="none" stroke="#f00" stroke-width="1.1508px"/>
 <path id="path3203" d="m182.68 49.867 16.803 52.197" fill="none" stroke="#f00" stroke-width="1.1508px"/>
 <path id="path3199" d="m184.87 48.521 17.537 54.479" fill="none" stroke="#f00" stroke-width="1.1508px"/>
 <path id="path3195" d="m187.07 47.193 18.134 56.334" fill="none" stroke="#f00" stroke-width="1.1508px"/>
 <path id="path3191" d="m189.36 46.133 18.534 57.578" fill="none" stroke="#f00" stroke-width="1.1508px"/>
 <path id="path3187" d="m191.64 45.072 18.86 58.588" fill="none" stroke="#f00" stroke-width="1.1508px"/>
 <path id="path3183" d="m193.93 44.012 19.185 59.597" fill="none" stroke="#f00" stroke-width="1.1508px"/>
 <path id="path3179" d="m196.21 42.951 19.417 60.319" fill="none" stroke="#f00" stroke-width="1.1508px"/>
 <path id="path3175" d="m198.5 41.908 19.635 60.998" fill="none" stroke="#f00" stroke-width="1.1508px"/>
 <path id="path3171" d="m200.83 40.992 19.813 61.551" fill="none" stroke="#f00" stroke-width="1.1508px"/>
 <path id="path3167" d="m203.16 40.074 19.936 61.931" fill="none" stroke="#f00" stroke-width="1.1508px"/>
 <path id="path3163" d="m205.49 39.158 20.041 62.256" fill="none" stroke="#f00" stroke-width="1.1508px"/>
 <path id="path3159" d="m207.83 38.254 20.141 62.568" fill="none" stroke="#f00" stroke-width="1.1508px"/>
 <path id="path3155" d="m210.19 37.437 20.193 62.731" fill="none" stroke="#f00" stroke-width="1.1508px"/>
 <path id="path3151" d="m212.56 36.621 20.199 62.748" fill="none" stroke="#f00" stroke-width="1.1508px"/>
 <path id="path3147" d="m214.92 35.803 20.206 62.77" fill="none" stroke="#f00" stroke-width="1.1508px"/>
 <path id="path3143" d="m217.28 34.986 20.212 62.787" fill="none" stroke="#f00" stroke-width="1.1508px"/>
 <path id="path3139" d="m219.68 34.277 20.126 62.524" fill="none" stroke="#f00" stroke-width="1.1508px"/>
 <path id="path3135" d="m222.09 33.596 20.018 62.186" fill="none" stroke="#f00" stroke-width="1.1508px"/>
 <path id="path3131" d="m224.5 32.914 19.909 61.846" fill="none" stroke="#f00" stroke-width="1.1508px"/>
 <path id="path3127" d="m226.9 32.232 19.763 61.395" fill="none" stroke="#f00" stroke-width="1.1508px"/>
 <path id="path3123" d="m229.33 31.605 19.544 60.715" fill="none" stroke="#f00" stroke-width="1.1508px"/>
 <path id="path3119" d="m231.79 31.106 19.283 59.904" fill="none" stroke="#f00" stroke-width="1.1508px"/>
 <path id="path3115" d="m234.26 30.606 18.975 58.945" fill="none" stroke="#f00" stroke-width="1.1508px"/>
 <path id="path3111" d="m236.72 30.108 18.569 57.683" fill="none" stroke="#f00" stroke-width="1.1508px"/>
 <path id="path3107" d="m239.19 29.608 18.163 56.423" fill="none" stroke="#f00" stroke-width="1.1508px"/>
 <path id="path3103" d="m241.69 29.199 17.566 54.57" fill="none" stroke="#f00" stroke-width="1.1508px"/>
 <path id="path3099" d="m244.19 28.815 16.687 51.84" fill="none" stroke="#f00" stroke-width="1.1508px"/>
 <path id="path3095" d="m246.75 28.621 15.252 47.381" fill="none" stroke="#f00" stroke-width="1.1508px"/>
 <path id="path3091" d="m249.5 29.012 13.09 40.663" fill="none" stroke="#f00" stroke-width="1.1508px"/>
 <path id="path3087" d="m252.72 30.863 9.8268 30.527" fill="none" stroke="#f00" stroke-width="1.1508px"/>
 <path id="path3083" d="m257.67 38.057 2.9033 9.0192" fill="none" stroke="#f00" stroke-width="1.1508px"/>
</svg>
