<?xml version="1.0" encoding="UTF-8"?>
<svg id="svg932" class="c-brand__mark" aria-labelledby="NerdlabLogo" role="img" version="1.1" viewBox="0 0 300 165" xmlns="http://www.w3.org/2000/svg" xmlns:cc="http://creativecommons.org/ns#" xmlns:dc="http://purl.org/dc/elements/1.1/" xmlns:rdf="http://www.w3.org/1999/02/22-rdf-syntax-ns#">
 <metadata id="metadata938">
  <rdf:RDF>
   <cc:Work rdf:about="">
    <dc:format>image/svg+xml</dc:format>
    <dc:type rdf:resource="http://purl.org/dc/dcmitype/StillImage"/>
    <dc:title>Nerdlab</dc:title>
   </cc:Work>
  </rdf:RDF>
 </metadata>
 <title id="NerdlabLogo">Nerdlab</title>
 <path id="path3413" d="m36.22 98.608 6.2921 19.547" fill="none" stroke="#00f" stroke-width="1.1508px"/>
 <path id="path3409" d="m36.366 90.898 12.207 37.92" fill="none" stroke="#00f" stroke-width="1.1508px"/>
 <path id="path3405" d="m37.791 87.17 15.207 47.242" fill="none" stroke="#00f" stroke-width="1.1508px"/>
 <path id="path3401" d="m39.684 84.894 16.902 52.506" fill="none" stroke="#00f" stroke-width="1.1508px"/>
 <path id="path3397" d="m41.855 83.477 17.783 55.242" fill="none" stroke="#00f" stroke-width="1.1508px"/>
 <path id="path3393" d="m44.173 82.519 18.266 56.745" fill="none" stroke="#00f" stroke-width="1.1508px"/>
 <path id="path3389" d="m46.522 81.654 18.712 58.129" fill="none" stroke="#00f" stroke-width="1.1508px"/>
 <path id="path3385" d="m48.88 80.826 19.056 59.197" fill="none" stroke="#00f" stroke-width="1.1508px"/>
 <path id="path3381" d="m51.251 80.03 19.323 60.025" fill="none" stroke="#00f" stroke-width="1.1508px"/>
 <path id="path3377" d="m53.621 79.233 19.589 60.855" fill="none" stroke="#00f" stroke-width="1.1508px"/>
 <path id="path3373" d="m55.99 78.436 19.798 61.504" fill="none" stroke="#00f" stroke-width="1.1508px"/>
 <path id="path3369" d="m58.364 77.65 19.964 62.02" fill="none" stroke="#00f" stroke-width="1.1508px"/>
 <path id="path3365" d="m60.792 77.037 20.075 62.364" fill="none" stroke="#00f" stroke-width="1.1508px"/>
 <path id="path3361" d="m63.221 76.422 20.168 62.652" fill="none" stroke="#00f" stroke-width="1.1508px"/>
 <path id="path3357" d="m65.65 75.809 20.205 62.768" fill="none" stroke="#00f" stroke-width="1.1508px"/>
 <path id="path3353" d="m68.08 75.195 20.243 62.885" fill="none" stroke="#00f" stroke-width="1.1508px"/>
 <path id="path3349" d="m70.532 74.656 20.257 62.926" fill="none" stroke="#00f" stroke-width="1.1508px"/>
 <path id="path3345" d="m73.003 74.178 20.201 62.753" fill="none" stroke="#00f" stroke-width="1.1508px"/>
 <path id="path3341" d="m75.476 73.699 20.128 62.527" fill="none" stroke="#00f" stroke-width="1.1508px"/>
 <path id="path3337" d="m77.948 73.221 20.055 62.303" fill="none" stroke="#00f" stroke-width="1.1508px"/>
 <path id="path3333" d="m80.429 72.766 19.954 61.988" fill="none" stroke="#00f" stroke-width="1.1508px"/>
 <path id="path3329" d="m82.933 72.389 19.777 61.435" fill="none" stroke="#00f" stroke-width="1.1508px"/>
 <path id="path3325" d="m85.439 72.012 19.599 60.882" fill="none" stroke="#00f" stroke-width="1.1508px"/>
 <path id="path3321" d="m87.944 71.635 19.412 60.303" fill="none" stroke="#00f" stroke-width="1.1508px"/>
 <path id="path3317" d="m90.459 71.293 19.125 59.414" fill="none" stroke="#00f" stroke-width="1.1508px"/>
 <path id="path3313" d="m93.004 71.037 18.812 58.44" fill="none" stroke="#00f" stroke-width="1.1508px"/>
 <path id="path3309" d="m95.548 70.784 18.441 57.287" fill="none" stroke="#00f" stroke-width="1.1508px"/>
 <path id="path3305" d="m98.093 70.529 17.967 55.814" fill="none" stroke="#00f" stroke-width="1.1508px"/>
 <path id="path3301" d="m100.64 70.275 17.4 54.055" fill="none" stroke="#00f" stroke-width="1.1508px"/>
 <path id="path3297" d="m103.23 70.172 16.685 51.833" fill="none" stroke="#00f" stroke-width="1.1508px"/>
 <path id="path3293" d="m105.88 70.228 15.792 49.059" fill="none" stroke="#00f" stroke-width="1.1508px"/>
 <path id="path3289" d="m108.54 70.365 14.812 46.014" fill="none" stroke="#00f" stroke-width="1.1508px"/>
 <path id="path3285" d="m111.32 70.836 13.527 42.023" fill="none" stroke="#00f" stroke-width="1.1508px"/>
 <path id="path3281" d="m114.13 71.406 12.104 37.601" fill="none" stroke="#00f" stroke-width="1.1508px"/>
 <path id="path3277" d="m117.15 72.627 10.308 32.022" fill="none" stroke="#00f" stroke-width="1.1508px"/>
 <path id="path3273" d="m120.39 74.537 8.0037 24.863" fill="none" stroke="#00f" stroke-width="1.1508px"/>
 <path id="path3269" d="m124.14 78.019 4.4291 13.76" fill="none" stroke="#00f" stroke-width="1.1508px"/>
 <path id="path3227" d="m171.67 64.619 6.6946 20.797" fill="none" stroke="#f00" stroke-width="1.1508px"/>
 <path id="path3223" d="m173.01 60.614 9.622 29.89" fill="none" stroke="#f00" stroke-width="1.1508px"/>
 <path id="path3219" d="m174.64 57.517 11.777 36.586" fill="none" stroke="#f00" stroke-width="1.1508px"/>
 <path id="path3215" d="m176.5 55.133 13.423 41.699" fill="none" stroke="#f00" stroke-width="1.1508px"/>
 <path id="path3211" d="m178.48 53.15 14.771 45.887" fill="none" stroke="#f00" stroke-width="1.1508px"/>
 <path id="path3207" d="m180.55 51.426 15.918 49.451" fill="none" stroke="#f00" stroke-width="1.1508px"/>
 <path id="path3203" d="m182.68 49.867 16.803 52.197" fill="none" stroke="#f00" stroke-width="1.1508px"/>
 <path id="path3199" d="m184.87 48.521 17.537 54.479" fill="none" stroke="#f00" stroke-width="1.1508px"/>
 <path id="path3195" d="m187.07 47.193 18.134 56.334" fill="none" stroke="#f00" stroke-width="1.1508px"/>
 <path id="path3191" d="m189.36 46.133 18.534 57.578" fill="none" stroke="#f00" stroke-width="1.1508px"/>
 <path id="path3187" d="m191.64 45.072 18.86 58.588" fill="none" stroke="#f00" stroke-width="1.1508px"/>
 <path id="path3183" d="m193.93 44.012 19.185 59.597" fill="none" stroke="#f00" stroke-width="1.1508px"/>
 <path id="path3179" d="m196.21 42.951 19.417 60.319" fill="none" stroke="#f00" stroke-width="1.1508px"/>
 <path id="path3175" d="m198.5 41.908 19.635 60.998" fill="none" stroke="#f00" stroke-width="1.1508px"/>
 <path id="path3171" d="m200.83 40.992 19.813 61.551" fill="none" stroke="#f00" stroke-width="1.1508px"/>
 <path id="path3167" d="m203.16 40.074 19.936 61.931" fill="none" stroke="#f00" stroke-width="1.1508px"/>
 <path id="path3163" d="m205.49 39.158 20.041 62.256" fill="none" stroke="#f00" stroke-width="1.1508px"/>
 <path id="path3159" d="m207.83 38.254 20.141 62.568" fill="none" stroke="#f00" stroke-width="1.1508px"/>
 <path id="path3155" d="m210.19 37.437 20.193 62.731" fill="none" stroke="#f00" stroke-width="1.1508px"/>
 <path id="path3151" d="m212.56 36.621 20.199 62.748" fill="none" stroke="#f00" stroke-width="1.1508px"/>
 <path id="path4922" d="m272.89 16.406-11.836 0.85226-12.929 1.7855-27.446 6.0624-13.672 4.1226-13.074 4.7474-12.054 5.295-10.611 5.7656-12.3 7.5693-6.6502 3.3406-7.9403 2.7406-8.2477 1.5925-7.4366 0.40314-14.497-0.63436-11.966 0.36447-13.013 1.4594-13.649 2.4182-13.875 3.2407-26.788 8.4043-12.093 4.8912-10.679 5.169 1.5213 6.9838 1.3948 3.3089 2.035 2.9534 1.8121 1.2221 1.8061 0.12006 1.7763-0.18723 1.7227 0.30019 3.1888 3.4368 3.3516 5.8102 5.0767 10.06 5.2313 8.9325 6.1593 8.4737 3.4802 3.446 4.303 2.595 6.7066 1.9382 7.7759 0.73231 8.1899-0.2719 7.9486-1.0744 12.516-3.0027 10.312-3.7752 8.343-4.5546 6.6084-5.3411 5.1084-6.1346 3.843-6.9351 2.8122-7.7426 2.0159-8.5572 2.6873-14.943 2.5918-6.0983 1.9982-2.2356 2.6152-1.5141 3.1367-0.83984 3.019-7e-3 2.8414 0.91094 5.2774 3.9241 9.8251 11.695 6.0244 6.4027 6.3066 5.2991 6.7956 4.0842 7.4912 2.7582 8.3935 1.321 9.5024-0.22729 10.818-1.8868 12.34-3.6575 7.4208-3.0435 7.2283-3.8587 6.3676-4.5214 4.8388-5.0315 2.4294-4.3997 1.2913-4.7253 1.0258-10.294 0.13629-10.476-0.63285-11.25-2e-3 -6.7072 1.0434-4.5706 1.3489-1.2417 1.6963-0.73071 1.5326-0.94957 0.85775-1.8983-0.42673-6.8217-2.1006-6.7935" fill="none" stroke="#000"/>
 <path id="path4920" d="m246.52 28.562 3.7363 0.63477 4.3016 3.5519 3.3176 5.6646 2.3991 7.139 1.546 7.9752 0.7943 15.906-0.62086 6.6542-1.2123 4.9374-3.0767 4.7023-5.1616 4.4103-6.7368 3.9981-7.8023 3.4659-8.3581 2.8135-8.4041 2.0409-7.9405 1.1483-6.9671 0.1355-4.9917-0.93939-5.0214-1.9822-9.5789-6.4006-8.0383-8.4949-5.3912-9.2044-1.8049-6.985 0.27601-6.009 2.0188-5.1427 3.4235-4.3861 4.4901-3.7392 5.2186-3.202 11.27-5.2314 19.544-7.199 10.846-3.0728 11.094-2.2458 6.8301-0.94336" fill="none" stroke="#000"/>
 <path id="path3432" d="m103.1 70.117 1.9062 0.0039 8.0338 0.94756 6.9853 2.9702 2.903 2.4563 2.4052 3.2172 1.8288 4.0631 1.1739 4.9941 0.0536 10.674-2.7095 11.441-2.291 5.4312-2.862 4.9307-3.393 4.1993-3.8841 3.2373-6.1014 3.3661-7.4507 2.9754-8.2986 2.434-8.645 1.7419-8.4899 0.89904-7.8333-0.0946-6.6752-1.239-5.0157-2.5341-3.518-3.6693-3.8604-5.4494-7.2293-14.15-2.6095-7.6564-1.4331-7.3477 0.12292-6.5167 2.0587-5.1635 4.0772-3.0891 5.2294-1.9265 10.62-3.5726 10.942-2.7654 20.624-3.5644 13.336-1.2441v6e-6" fill="none" stroke="#000"/>
 <path id="path3147" d="m214.92 35.803 20.206 62.77" fill="none" stroke="#f00" stroke-width="1.1508px"/>
 <path id="path3143" d="m217.28 34.986 20.212 62.787" fill="none" stroke="#f00" stroke-width="1.1508px"/>
 <path id="path3139" d="m219.68 34.277 20.126 62.524" fill="none" stroke="#f00" stroke-width="1.1508px"/>
 <path id="path3135" d="m222.09 33.596 20.018 62.186" fill="none" stroke="#f00" stroke-width="1.1508px"/>
 <path id="path3131" d="m224.5 32.914 19.909 61.846" fill="none" stroke="#f00" stroke-width="1.1508px"/>
 <path id="path3127" d="m226.9 32.232 19.763 61.395" fill="none" stroke="#f00" stroke-width="1.1508px"/>
 <path id="path3123" d="m229.33 31.605 19.544 60.715" fill="none" stroke="#f00" stroke-width="1.1508px"/>
 <path id="path3119" d="m231.79 31.106 19.283 59.904" fill="none" stroke="#f00" stroke-width="1.1508px"/>
 <path id="path3115" d="m234.26 30.606 18.975 58.945" fill="none" stroke="#f00" stroke-width="1.1508px"/>
 <path id="path3111" d="m236.72 30.108 18.569 57.683" fill="none" stroke="#f00" stroke-width="1.1508px"/>
 <path id="path3107" d="m239.19 29.608 18.163 56.423" fill="none" stroke="#f00" stroke-width="1.1508px"/>
 <path id="path3103" d="m241.69 29.199 17.566 54.57" fill="none" stroke="#f00" stroke-width="1.1508px"/>
 <path id="path3099" d="m244.19 28.815 16.687 51.84" fill="none" stroke="#f00" stroke-width="1.1508px"/>
 <path id="path3095" d="m246.75 28.621 15.252 47.381" fill="none" stroke="#f00" stroke-width="1.1508px"/>
 <path id="path3091" d="m249.5 29.012 13.09 40.663" fill="none" stroke="#f00" stroke-width="1.1508px"/>
 <path id="path3087" d="m252.72 30.863 9.8268 30.527" fill="none" stroke="#f00" stroke-width="1.1508px"/>
 <path id="path3083" d="m257.67 38.057 2.9033 9.0192" fill="none" stroke="#f00" stroke-width="1.1508px"/>
</svg>
