<?xml version="1.0" encoding="UTF-8" standalone="no" ?>
<svg width="100%" height="100%" viewBox="0 0 2763.780 666.511" xmlns="http://www.w3.org/2000/svg"><g>
</g><g style="stroke:rgb(0,0,0); fill:none; stroke-width:1.000mm" >
</g><g style="stroke:rgb(0,0,0); fill:none; stroke-width:0.100mm" >
<path d="M 0.001, 666.510 
	L 0.000, 666.511 
	L 0.000, 28.716 
	L 637.795, 28.716 
	L 637.795, 666.511 
	L 0.000, 666.511 
" />
<path d="M 0.001, 650.453 
	L 0.000, 650.453 
	L 70.866, 665.683 
	L 141.732, 663.856 
	L 212.598, 652.919 
	L 283.465, 642.130 
	L 354.331, 641.773 
	L 425.197, 652.524 
	L 496.063, 664.326 
	L 566.929, 657.039 
	L 637.795, 651.366 
" />
<path d="M 637.795, 651.366 
	L 708.662, 657.179 
	L 779.528, 652.579 
	L 850.394, 664.306 
	L 921.260, 666.511 
	L 992.126, 667.669 
	L 1062.992, 678.884 
	L 1133.858, 681.968 
	L 1204.725, 677.033 
	L 1275.591, 674.717 
	L 1346.457, 672.186 
" />
<path d="M 1346.457, 672.186 
	L 1417.323, 674.177 
	L 1488.189, 683.987 
	L 1559.055, 678.646 
	L 1629.922, 673.109 
	L 1700.788, 664.437 
	L 1771.654, 656.968 
	L 1842.520, 667.398 
	L 1913.386, 674.937 
	L 1984.252, 673.338 
	L 2055.118, 669.181 
" />
<path d="M 2055.118, 669.181 
	L 2125.985, 680.796 
	L 2196.851, 677.709 
	L 2267.717, 674.906 
	L 2338.583, 666.511 
	L 2409.449, 660.066 
	L 2480.315, 659.416 
	L 2551.181, 665.145 
	L 2622.048, 676.257 
	L 2692.914, 688.134 
	L 2763.780, 695.227 
" />
<path d="M 2763.780, 695.227 
" />
<path d="M 0.001, 644.212 
	L 0.000, 644.213 
	L 35.433, 658.641 
	L 70.866, 656.910 
	L 106.299, 646.549 
	L 141.732, 636.327 
	L 177.165, 635.990 
	L 212.598, 646.175 
	L 248.032, 657.354 
	L 283.465, 650.452 
	L 318.898, 645.077 
" />
<path d="M 318.898, 645.077 
	L 354.331, 650.584 
	L 389.764, 646.226 
	L 425.197, 657.336 
	L 460.630, 659.424 
	L 496.063, 660.521 
	L 531.496, 671.146 
	L 566.929, 674.067 
	L 602.362, 669.392 
	L 637.795, 667.198 
	L 673.228, 664.800 
" />
<path d="M 673.228, 664.800 
	L 708.662, 666.686 
	L 744.095, 675.979 
	L 779.528, 670.920 
	L 814.961, 665.675 
	L 850.394, 657.459 
	L 885.827, 650.383 
	L 921.260, 660.265 
	L 956.693, 667.407 
	L 992.126, 665.891 
	L 1027.559, 661.954 
" />
<path d="M 1027.559, 661.954 
	L 1062.992, 672.956 
	L 1098.425, 670.032 
	L 1133.858, 667.377 
	L 1169.292, 659.424 
	L 1204.725, 653.319 
	L 1240.158, 652.703 
	L 1275.591, 658.130 
	L 1311.024, 668.657 
	L 1346.457, 679.908 
	L 1381.890, 686.627 
" />
<path d="M 1381.890, 686.627 
" />
<path d="M 0.001, 638.189 
	L 0.000, 638.190 
	L 23.598, 651.609 
	L 47.197, 649.999 
	L 70.795, 640.362 
	L 94.394, 630.855 
	L 117.992, 630.542 
	L 141.591, 640.014 
	L 165.189, 650.412 
	L 188.787, 643.993 
	L 212.386, 638.994 
	L 235.984, 644.115 
" />
<path d="M 235.984, 644.115 
	L 259.583, 640.062 
	L 283.181, 650.395 
	L 306.780, 652.338 
	L 330.378, 653.358 
	L 353.976, 663.239 
	L 377.575, 665.957 
	L 401.173, 661.608 
	L 424.772, 659.568 
	L 448.370, 657.337 
	L 471.969, 659.092 
" />
<path d="M 471.969, 659.092 
	L 495.567, 667.735 
	L 519.165, 663.030 
	L 542.764, 658.151 
	L 566.362, 650.510 
	L 589.961, 643.929 
	L 613.559, 653.119 
	L 637.158, 659.762 
	L 660.756, 658.352 
	L 684.354, 654.690 
	L 707.953, 664.924 
" />
<path d="M 707.953, 664.924 
	L 731.551, 662.204 
	L 755.150, 659.734 
	L 778.748, 652.338 
	L 802.347, 646.660 
	L 825.945, 646.087 
	L 849.543, 651.134 
	L 873.142, 660.925 
	L 896.740, 671.389 
	L 920.339, 677.638 
" />
<path d="M 0.001, 632.292 
	L 0.000, 632.293 
	L 17.717, 644.584 
	L 35.433, 643.109 
	L 53.150, 634.282 
	L 70.866, 625.574 
	L 88.583, 625.287 
	L 106.299, 633.963 
	L 124.016, 643.487 
	L 141.732, 637.607 
	L 159.449, 633.028 
	L 177.165, 637.720 
" />
<path d="M 177.165, 637.720 
	L 194.882, 634.008 
	L 212.598, 643.472 
	L 230.315, 645.251 
	L 248.032, 646.186 
	L 265.748, 655.237 
	L 283.465, 657.726 
	L 301.181, 653.742 
	L 318.898, 651.874 
	L 336.614, 649.831 
	L 354.331, 651.438 
" />
<path d="M 354.331, 651.438 
	L 372.047, 659.355 
	L 389.764, 655.045 
	L 407.480, 650.576 
	L 425.197, 643.577 
	L 442.913, 637.549 
	L 460.630, 645.967 
	L 478.347, 652.052 
	L 496.063, 650.760 
	L 513.780, 647.406 
	L 531.496, 656.780 
" />
<path d="M 531.496, 656.780 
	L 549.213, 654.288 
	L 566.929, 652.026 
	L 584.646, 645.251 
	L 602.362, 640.050 
	L 620.079, 639.525 
	L 637.795, 644.149 
	L 655.512, 653.117 
	L 673.228, 662.701 
	L 690.945, 668.426 
" />
<path d="M 0.001, 626.012 
	L 0.000, 626.012 
	L 14.173, 637.538 
	L 28.346, 636.156 
	L 42.520, 627.878 
	L 56.693, 619.712 
	L 70.866, 619.443 
	L 85.039, 627.579 
	L 99.213, 636.511 
	L 113.386, 630.996 
	L 127.559, 626.703 
	L 141.732, 631.102 
" />
<path d="M 141.732, 631.102 
	L 155.906, 627.621 
	L 170.079, 636.496 
	L 184.252, 638.165 
	L 198.425, 639.041 
	L 212.598, 647.528 
	L 226.772, 649.863 
	L 240.945, 646.127 
	L 255.118, 644.375 
	L 269.291, 642.459 
	L 283.465, 643.966 
" />
<path d="M 283.465, 643.966 
	L 297.638, 651.390 
	L 311.811, 647.349 
	L 325.984, 643.158 
	L 340.158, 636.595 
	L 354.331, 630.942 
	L 368.504, 638.836 
	L 382.677, 644.542 
	L 396.850, 643.331 
	L 411.024, 640.185 
	L 425.197, 648.975 
" />
<path d="M 425.197, 648.975 
	L 439.370, 646.639 
	L 453.543, 644.518 
	L 467.717, 638.165 
	L 481.890, 633.288 
	L 496.063, 632.795 
	L 510.236, 637.131 
	L 524.410, 645.540 
	L 538.583, 654.528 
	L 552.756, 659.896 
" />
<path d="M 0.001, 620.137 
	L 0.000, 620.138 
	L 11.764, 630.514 
	L 23.528, 629.269 
	L 35.291, 621.817 
	L 47.055, 614.466 
	L 58.819, 614.224 
	L 70.583, 621.549 
	L 82.346, 629.589 
	L 94.110, 624.625 
	L 105.874, 620.759 
	L 117.638, 624.720 
" />
<path d="M 117.638, 624.720 
	L 129.402, 621.585 
	L 141.165, 629.576 
	L 152.929, 631.078 
	L 164.693, 631.867 
	L 176.457, 639.508 
	L 188.221, 641.609 
	L 199.984, 638.246 
	L 211.748, 636.669 
	L 223.512, 634.944 
	L 235.276, 636.301 
" />
<path d="M 235.276, 636.301 
	L 247.039, 642.984 
	L 258.803, 639.346 
	L 270.567, 635.574 
	L 282.331, 629.665 
	L 294.095, 624.576 
	L 305.858, 631.682 
	L 317.622, 636.819 
	L 329.386, 635.729 
	L 341.150, 632.897 
	L 352.913, 640.810 
" />
<path d="M 352.913, 640.810 
	L 364.677, 638.707 
	L 376.441, 636.798 
	L 388.205, 631.078 
	L 399.969, 626.687 
	L 411.732, 626.244 
	L 423.496, 630.147 
	L 435.260, 637.718 
	L 447.024, 645.810 
	L 458.787, 650.642 
" />
<path d="M 0.001, 613.768 
	L 0.000, 613.768 
	L 10.063, 623.465 
	L 20.126, 622.301 
	L 30.189, 615.338 
	L 40.252, 608.468 
	L 50.315, 608.242 
	L 60.378, 615.086 
	L 70.441, 622.600 
	L 80.504, 617.961 
	L 90.567, 614.349 
	L 100.630, 618.050 
" />
<path d="M 100.630, 618.050 
	L 110.693, 615.121 
	L 120.756, 622.588 
	L 130.819, 623.991 
	L 140.882, 624.728 
	L 150.945, 631.869 
	L 161.008, 633.833 
	L 171.071, 630.690 
	L 181.134, 629.216 
	L 191.197, 627.604 
	L 201.260, 628.872 
" />
<path d="M 201.260, 628.872 
	L 211.323, 635.117 
	L 221.386, 631.717 
	L 231.449, 628.192 
	L 241.512, 622.670 
	L 251.575, 617.915 
	L 261.638, 624.556 
	L 271.701, 629.356 
	L 281.764, 628.338 
	L 291.827, 625.691 
	L 301.890, 633.086 
" />
<path d="M 301.890, 633.086 
	L 311.953, 631.120 
	L 322.016, 629.336 
	L 332.079, 623.991 
	L 342.142, 619.888 
	L 352.205, 619.474 
	L 362.268, 623.121 
	L 372.331, 630.196 
	L 382.394, 637.758 
	L 392.457, 642.273 
" />
<path d="M 0.001, 609.644 
	L 0.000, 609.644 
	L 8.858, 616.531 
	L 17.717, 615.704 
	L 26.575, 610.759 
	L 35.433, 605.880 
	L 44.291, 605.719 
	L 53.150, 610.581 
	L 62.008, 615.917 
	L 70.866, 612.622 
	L 79.724, 610.057 
	L 88.583, 612.685 
" />
<path d="M 88.583, 612.685 
	L 97.441, 610.605 
	L 106.299, 615.908 
	L 115.157, 616.905 
	L 124.016, 617.428 
	L 132.874, 622.499 
	L 141.732, 623.894 
	L 150.591, 621.662 
	L 159.449, 620.615 
	L 168.307, 619.471 
	L 177.165, 620.371 
" />
<path d="M 177.165, 620.371 
	L 186.024, 624.806 
	L 194.882, 622.392 
	L 203.740, 619.888 
	L 212.598, 615.966 
	L 221.457, 612.590 
	L 230.315, 617.306 
	L 239.173, 620.714 
	L 248.032, 619.991 
	L 256.890, 618.112 
	L 265.748, 623.363 
" />
<path d="M 265.748, 623.363 
	L 274.606, 621.968 
	L 283.465, 620.700 
	L 292.323, 616.905 
	L 301.181, 613.991 
	L 310.039, 613.697 
	L 318.898, 616.287 
	L 327.756, 621.311 
	L 336.614, 626.681 
	L 345.472, 629.889 
" />
<path d="M 0.001, 603.546 
	L 0.000, 603.547 
	L 7.866, 609.495 
	L 15.732, 608.781 
	L 23.598, 604.510 
	L 31.465, 600.296 
	L 39.331, 600.157 
	L 47.197, 604.356 
	L 55.063, 608.965 
	L 62.929, 606.119 
	L 70.795, 603.903 
	L 78.661, 606.173 
" />
<path d="M 78.661, 606.173 
	L 86.528, 604.377 
	L 94.394, 608.957 
	L 102.260, 609.818 
	L 110.126, 610.270 
	L 117.992, 614.651 
	L 125.858, 615.855 
	L 133.724, 613.927 
	L 141.591, 613.023 
	L 149.457, 612.034 
	L 157.323, 612.812 
" />
<path d="M 157.323, 612.812 
	L 165.189, 616.643 
	L 173.055, 614.558 
	L 180.921, 612.395 
	L 188.787, 609.008 
	L 196.654, 606.091 
	L 204.520, 610.165 
	L 212.386, 613.109 
	L 220.252, 612.484 
	L 228.118, 610.861 
	L 235.984, 615.397 
" />
<path d="M 235.984, 615.397 
	L 243.850, 614.191 
	L 251.717, 613.096 
	L 259.583, 609.818 
	L 267.449, 607.301 
	L 275.315, 607.047 
	L 283.181, 609.284 
	L 291.047, 613.624 
	L 298.913, 618.263 
	L 306.780, 621.033 
" />
<path d="M 0.001, 597.435 
	L 0.000, 597.436 
	L 7.087, 602.459 
	L 14.173, 601.856 
	L 21.260, 598.249 
	L 28.346, 594.690 
	L 35.433, 594.573 
	L 42.520, 598.119 
	L 49.606, 602.011 
	L 56.693, 599.608 
	L 63.780, 597.737 
	L 70.866, 599.654 
" />
<path d="M 70.866, 599.654 
	L 77.953, 598.137 
	L 85.039, 602.004 
	L 92.126, 602.732 
	L 99.213, 603.113 
	L 106.299, 606.812 
	L 113.386, 607.830 
	L 120.472, 606.201 
	L 127.559, 605.438 
	L 134.646, 604.603 
	L 141.732, 605.260 
" />
<path d="M 141.732, 605.260 
	L 148.819, 608.495 
	L 155.906, 606.734 
	L 162.992, 604.908 
	L 170.079, 602.048 
	L 177.165, 599.584 
	L 184.252, 603.024 
	L 191.339, 605.510 
	L 198.425, 604.983 
	L 205.512, 603.612 
	L 212.598, 607.443 
" />
<path d="M 212.598, 607.443 
	L 219.685, 606.424 
	L 226.772, 605.500 
	L 233.858, 602.732 
	L 240.945, 600.606 
	L 248.032, 600.392 
	L 255.118, 602.281 
	L 262.205, 605.946 
	L 269.291, 609.863 
	L 276.378, 612.202 
" />
<path d="M 0.001, 589.958 
	L 0.000, 589.959 
	L 6.378, 595.351 
	L 12.756, 594.705 
	L 19.134, 590.831 
	L 25.512, 587.010 
	L 31.890, 586.884 
	L 38.268, 590.691 
	L 44.646, 594.871 
	L 51.024, 592.291 
	L 57.402, 590.281 
	L 63.780, 592.340 
" />
<path d="M 63.780, 592.340 
	L 70.157, 590.711 
	L 76.535, 594.864 
	L 82.913, 595.645 
	L 89.291, 596.055 
	L 95.669, 600.027 
	L 102.047, 601.119 
	L 108.425, 599.371 
	L 114.803, 598.551 
	L 121.181, 597.655 
	L 127.559, 598.360 
" />
<path d="M 127.559, 598.360 
	L 133.937, 601.834 
	L 140.315, 599.943 
	L 146.693, 597.981 
	L 153.071, 594.910 
	L 159.449, 592.265 
	L 165.827, 595.959 
	L 172.205, 598.629 
	L 178.583, 598.062 
	L 184.961, 596.590 
	L 191.339, 600.704 
" />
<path d="M 191.339, 600.704 
	L 197.717, 599.611 
	L 204.095, 598.618 
	L 210.472, 595.645 
	L 216.850, 593.362 
	L 223.228, 593.132 
	L 229.606, 595.161 
	L 235.984, 599.096 
	L 242.362, 603.303 
	L 248.740, 605.814 
" />
<path d="M 0.001, 584.415 
	L 0.000, 584.416 
	L 5.882, 588.345 
	L 11.764, 587.874 
	L 17.646, 585.052 
	L 23.528, 582.268 
	L 29.409, 582.177 
	L 35.291, 584.950 
	L 41.173, 587.994 
	L 47.055, 586.115 
	L 52.937, 584.651 
	L 58.819, 586.151 
" />
<path d="M 58.819, 586.151 
	L 64.701, 584.964 
	L 70.583, 587.989 
	L 76.465, 588.558 
	L 82.346, 588.857 
	L 88.228, 591.750 
	L 94.110, 592.546 
	L 99.992, 591.272 
	L 105.874, 590.675 
	L 111.756, 590.022 
	L 117.638, 590.536 
	L 123.520, 593.067 
" />
<path d="M 123.520, 593.067 
	L 129.402, 591.689 
	L 135.283, 590.260 
	L 141.165, 588.023 
	L 147.047, 586.096 
	L 152.929, 588.787 
	L 158.811, 590.732 
	L 164.693, 590.319 
	L 170.575, 589.247 
	L 176.457, 592.243 
	L 182.339, 591.447 
" />
<path d="M 182.339, 591.447 
	L 188.221, 590.724 
	L 194.102, 588.558 
	L 199.984, 586.896 
	L 205.866, 586.728 
	L 211.748, 588.206 
	L 217.630, 591.073 
	L 223.512, 594.136 
	L 229.394, 595.966 
" />
<path d="M 0.001, 578.769 
	L 0.000, 578.770 
	L 5.386, 581.333 
	L 10.772, 581.025 
	L 16.157, 579.185 
	L 21.543, 577.369 
	L 26.929, 577.309 
	L 32.315, 579.118 
	L 37.701, 581.104 
	L 43.087, 579.878 
	L 48.472, 578.923 
	L 53.858, 579.901 
" />
<path d="M 53.858, 579.901 
	L 59.244, 579.127 
	L 64.630, 581.100 
	L 70.016, 581.472 
	L 75.402, 581.667 
	L 80.787, 583.554 
	L 86.173, 584.072 
	L 91.559, 583.242 
	L 96.945, 582.852 
	L 102.331, 582.426 
	L 107.717, 582.761 
	L 113.102, 584.412 
" />
<path d="M 113.102, 584.412 
	L 118.488, 583.513 
	L 123.874, 582.582 
	L 129.260, 581.122 
	L 134.646, 579.866 
	L 140.032, 581.621 
	L 145.417, 582.890 
	L 150.803, 582.620 
	L 156.189, 581.921 
	L 161.575, 583.875 
	L 166.961, 583.356 
" />
<path d="M 166.961, 583.356 
	L 172.346, 582.884 
	L 177.732, 581.472 
	L 183.118, 580.387 
	L 188.504, 580.278 
	L 193.890, 581.242 
	L 199.276, 583.112 
	L 204.661, 585.110 
	L 210.047, 586.303 
" />
<path d="M 0.001, 573.770 
	L 0.000, 573.771 
	L 5.031, 574.353 
	L 10.063, 574.284 
	L 15.094, 573.865 
	L 20.126, 573.452 
	L 25.157, 573.438 
	L 30.189, 573.850 
	L 35.220, 574.301 
	L 40.252, 574.023 
	L 45.283, 573.805 
	L 50.315, 574.028 
" />
<path d="M 50.315, 574.028 
	L 55.346, 573.852 
	L 60.378, 574.301 
	L 65.409, 574.385 
	L 70.441, 574.430 
	L 75.472, 574.858 
	L 80.504, 574.977 
	L 85.535, 574.788 
	L 90.567, 574.699 
	L 95.598, 574.602 
	L 100.630, 574.678 
	L 105.661, 575.053 
" />
<path d="M 105.661, 575.053 
	L 110.693, 574.849 
	L 115.724, 574.637 
	L 120.756, 574.306 
	L 125.787, 574.020 
	L 130.819, 574.419 
	L 135.850, 574.707 
	L 140.882, 574.647 
	L 145.913, 574.487 
	L 150.945, 574.931 
	L 155.976, 574.814 
" />
<path d="M 155.976, 574.814 
	L 161.008, 574.706 
	L 166.039, 574.385 
	L 171.071, 574.138 
	L 176.102, 574.114 
	L 181.134, 574.333 
	L 186.165, 574.758 
	L 191.197, 575.212 
	L 196.228, 575.483 
" />
<path d="M 0.001, 565.381 
	L 0.000, 565.382 
	L 4.677, 567.200 
	L 9.354, 566.982 
	L 14.031, 565.676 
	L 18.709, 564.388 
	L 23.386, 564.345 
	L 28.063, 565.629 
	L 32.740, 567.038 
	L 37.417, 566.168 
	L 42.094, 565.491 
	L 46.772, 566.184 
" />
<path d="M 46.772, 566.184 
	L 51.449, 565.635 
	L 56.126, 567.036 
	L 60.803, 567.298 
	L 65.480, 567.437 
	L 70.157, 568.775 
	L 74.835, 569.144 
	L 79.512, 568.554 
	L 84.189, 568.278 
	L 88.866, 567.976 
	L 93.543, 568.213 
	L 98.220, 569.385 
" />
<path d="M 98.220, 569.385 
	L 102.898, 568.747 
	L 107.575, 568.086 
	L 112.252, 567.051 
	L 116.929, 566.159 
	L 121.606, 567.404 
	L 126.283, 568.304 
	L 130.961, 568.113 
	L 135.638, 567.617 
	L 140.315, 569.003 
	L 144.992, 568.635 
" />
<path d="M 144.992, 568.635 
	L 149.669, 568.300 
	L 154.346, 567.298 
	L 159.024, 566.530 
	L 163.701, 566.452 
	L 168.378, 567.135 
	L 173.055, 568.462 
	L 177.732, 569.879 
	L 182.409, 570.726 
" />
<path d="M 0.001, 559.957 
	L 0.000, 559.958 
	L 4.394, 560.199 
	L 8.787, 560.170 
	L 13.181, 559.997 
	L 17.575, 559.826 
	L 21.969, 559.821 
	L 26.362, 559.991 
	L 30.756, 560.177 
	L 35.150, 560.062 
	L 39.543, 559.972 
	L 43.937, 560.064 
" />
<path d="M 43.937, 560.064 
	L 48.331, 559.991 
	L 52.724, 560.177 
	L 57.118, 560.212 
	L 61.512, 560.230 
	L 65.906, 560.407 
	L 70.299, 560.456 
	L 74.693, 560.378 
	L 79.087, 560.342 
	L 83.480, 560.302 
	L 87.874, 560.333 
	L 92.268, 560.488 
" />
<path d="M 92.268, 560.488 
	L 96.661, 560.404 
	L 101.055, 560.316 
	L 105.449, 560.179 
	L 109.843, 560.061 
	L 114.236, 560.226 
	L 118.630, 560.345 
	L 123.024, 560.320 
	L 127.417, 560.254 
	L 131.811, 560.438 
	L 136.205, 560.389 
" />
<path d="M 136.205, 560.389 
	L 140.598, 560.344 
	L 144.992, 560.212 
	L 149.386, 560.110 
	L 153.780, 560.100 
	L 158.173, 560.191 
	L 162.567, 560.366 
	L 166.961, 560.554 
	L 171.354, 560.666 
" />
<path d="M 0.001, 552.457 
	L 0.000, 552.458 
	L 4.110, 553.090 
	L 8.220, 553.015 
	L 12.331, 552.560 
	L 16.441, 552.112 
	L 20.551, 552.097 
	L 24.661, 552.544 
	L 28.772, 553.034 
	L 32.882, 552.732 
	L 36.992, 552.496 
	L 41.102, 552.738 
" />
<path d="M 41.102, 552.738 
	L 45.213, 552.546 
	L 49.323, 553.034 
	L 53.433, 553.125 
	L 57.543, 553.173 
	L 61.654, 553.640 
	L 65.764, 553.767 
	L 69.874, 553.562 
	L 73.984, 553.466 
	L 78.095, 553.361 
	L 82.205, 553.444 
	L 86.315, 553.852 
" />
<path d="M 86.315, 553.852 
	L 90.425, 553.630 
	L 94.535, 553.399 
	L 98.646, 553.039 
	L 102.756, 552.728 
	L 106.866, 553.162 
	L 110.976, 553.475 
	L 115.087, 553.409 
	L 119.197, 553.236 
	L 123.307, 553.719 
	L 127.417, 553.591 
" />
<path d="M 127.417, 553.591 
	L 131.528, 553.474 
	L 135.638, 553.125 
	L 139.748, 552.857 
	L 143.858, 552.830 
	L 147.969, 553.069 
	L 152.079, 553.530 
	L 156.189, 554.024 
	L 160.299, 554.319 
" />
<path d="M 0.001, 546.038 
	L 0.000, 546.039 
	L 3.898, 546.039 
	L 7.795, 546.039 
	L 11.693, 546.039 
	L 15.591, 546.039 
	L 19.488, 546.039 
	L 23.386, 546.039 
	L 27.283, 546.039 
	L 31.181, 546.039 
	L 35.079, 546.039 
	L 38.976, 546.039 
" />
<path d="M 38.976, 546.039 
	L 42.874, 546.039 
	L 46.772, 546.039 
	L 50.669, 546.039 
	L 54.567, 546.039 
	L 58.465, 546.039 
	L 62.362, 546.039 
	L 66.260, 546.039 
	L 70.157, 546.039 
	L 74.055, 546.039 
	L 77.953, 546.039 
	L 81.850, 546.039 
" />
<path d="M 81.850, 546.039 
	L 85.748, 546.039 
	L 89.646, 546.039 
	L 93.543, 546.039 
	L 97.441, 546.039 
	L 101.339, 546.039 
	L 105.236, 546.039 
	L 109.134, 546.039 
	L 113.032, 546.039 
	L 116.929, 546.039 
	L 120.827, 546.039 
" />
<path d="M 120.827, 546.039 
	L 124.724, 546.039 
	L 128.622, 546.039 
	L 132.520, 546.039 
	L 136.417, 546.039 
	L 140.315, 546.039 
	L 144.213, 546.039 
	L 148.110, 546.039 
	L 152.008, 546.039 
" />
<path d="M 0.001, 539.999 
	L 0.000, 539.999 
	L 3.685, 539.006 
	L 7.370, 539.125 
	L 11.055, 539.838 
	L 14.740, 540.542 
	L 18.425, 540.566 
	L 22.110, 539.864 
	L 25.795, 539.094 
	L 29.480, 539.570 
	L 33.165, 539.940 
	L 36.850, 539.561 
" />
<path d="M 36.850, 539.561 
	L 40.535, 539.860 
	L 44.220, 539.096 
	L 47.906, 538.952 
	L 51.591, 538.876 
	L 55.276, 538.145 
	L 58.961, 537.944 
	L 62.646, 538.266 
	L 66.331, 538.417 
	L 70.016, 538.582 
	L 73.701, 538.452 
	L 77.386, 537.812 
" />
<path d="M 77.386, 537.812 
	L 81.071, 538.160 
	L 84.756, 538.522 
	L 88.441, 539.087 
	L 92.126, 539.574 
	L 95.811, 538.894 
	L 99.496, 538.402 
	L 103.181, 538.507 
	L 106.866, 538.778 
	L 110.551, 538.020 
	L 114.236, 538.221 
" />
<path d="M 114.236, 538.221 
	L 117.921, 538.404 
	L 121.606, 538.952 
	L 125.291, 539.372 
	L 128.976, 539.415 
	L 132.661, 539.041 
	L 136.346, 538.316 
	L 140.032, 537.542 
	L 143.717, 537.079 
" />
<path d="M 0.001, 531.898 
	L 0.000, 531.899 
	L 3.543, 531.867 
	L 7.087, 531.871 
	L 10.630, 531.894 
	L 14.173, 531.916 
	L 17.717, 531.917 
	L 21.260, 531.894 
	L 24.803, 531.870 
	L 28.346, 531.885 
	L 31.890, 531.897 
	L 35.433, 531.885 
" />
<path d="M 35.433, 531.885 
	L 38.976, 531.894 
	L 42.520, 531.870 
	L 46.063, 531.865 
	L 49.606, 531.863 
	L 53.150, 531.840 
	L 56.693, 531.833 
	L 60.236, 531.843 
	L 63.780, 531.848 
	L 67.323, 531.853 
	L 70.866, 531.849 
	L 74.409, 531.829 
" />
<path d="M 74.409, 531.829 
	L 77.953, 531.840 
	L 81.496, 531.852 
	L 85.039, 531.870 
	L 88.583, 531.885 
	L 92.126, 531.863 
	L 95.669, 531.848 
	L 99.213, 531.851 
	L 102.756, 531.860 
	L 106.299, 531.836 
	L 109.843, 531.842 
	L 113.386, 531.848 
" />
<path d="M 113.386, 531.848 
	L 116.929, 531.865 
	L 120.472, 531.879 
	L 124.016, 531.880 
	L 127.559, 531.868 
	L 131.102, 531.845 
	L 134.646, 531.820 
	L 138.189, 531.805 
" />
<path d="M 0.001, 525.482 
	L 0.000, 525.483 
	L 3.331, 524.815 
	L 6.661, 524.895 
	L 9.992, 525.375 
	L 13.323, 525.848 
	L 16.654, 525.864 
	L 19.984, 525.392 
	L 23.315, 524.874 
	L 26.646, 525.194 
	L 29.976, 525.443 
	L 33.307, 525.188 
" />
<path d="M 33.307, 525.188 
	L 36.638, 525.390 
	L 39.969, 524.875 
	L 43.299, 524.779 
	L 46.630, 524.728 
	L 49.961, 524.236 
	L 53.291, 524.101 
	L 56.622, 524.317 
	L 59.953, 524.419 
	L 63.283, 524.530 
	L 66.614, 524.442 
	L 69.945, 524.012 
" />
<path d="M 69.945, 524.012 
	L 73.276, 524.247 
	L 76.606, 524.490 
	L 79.937, 524.869 
	L 83.268, 525.198 
	L 86.598, 524.740 
	L 89.929, 524.409 
	L 93.260, 524.479 
	L 96.591, 524.662 
	L 99.921, 524.152 
	L 103.252, 524.288 
	L 106.583, 524.410 
" />
<path d="M 106.583, 524.410 
	L 109.913, 524.779 
	L 113.244, 525.062 
	L 116.575, 525.090 
	L 119.906, 524.839 
	L 123.236, 524.351 
	L 126.567, 523.830 
	L 129.898, 523.519 
" />
<path d="M 0.001, 516.614 
	L 0.000, 516.614 
	L 3.189, 517.637 
	L 6.378, 517.514 
	L 9.567, 516.779 
	L 12.756, 516.055 
	L 15.945, 516.031 
	L 19.134, 516.753 
	L 22.323, 517.545 
	L 25.512, 517.056 
	L 28.701, 516.675 
	L 31.890, 517.066 
" />
<path d="M 31.890, 517.066 
	L 35.079, 516.757 
	L 38.268, 517.544 
	L 41.457, 517.692 
	L 44.646, 517.770 
	L 47.835, 518.523 
	L 51.024, 518.730 
	L 54.213, 518.399 
	L 57.402, 518.243 
	L 60.591, 518.073 
	L 63.780, 518.207 
	L 66.969, 518.866 
" />
<path d="M 66.969, 518.866 
	L 70.157, 518.507 
	L 73.346, 518.135 
	L 76.535, 517.553 
	L 79.724, 517.051 
	L 82.913, 517.752 
	L 86.102, 518.258 
	L 89.291, 518.151 
	L 92.480, 517.871 
	L 95.669, 518.651 
	L 98.858, 518.444 
	L 102.047, 518.256 
" />
<path d="M 102.047, 518.256 
	L 105.236, 517.692 
	L 108.425, 517.259 
	L 111.614, 517.216 
	L 114.803, 517.601 
	L 117.992, 518.346 
	L 121.181, 519.144 
	L 124.370, 519.620 
" />
<path d="M 0.001, 509.549 
	L 0.000, 509.550 
	L 3.047, 510.551 
	L 6.094, 510.431 
	L 9.142, 509.712 
	L 12.189, 509.002 
	L 15.236, 508.978 
	L 18.283, 509.686 
	L 21.331, 510.462 
	L 24.378, 509.983 
	L 27.425, 509.609 
	L 30.472, 509.992 
" />
<path d="M 30.472, 509.992 
	L 33.520, 509.689 
	L 36.567, 510.460 
	L 39.614, 510.606 
	L 42.661, 510.681 
	L 45.709, 511.419 
	L 48.756, 511.622 
	L 51.803, 511.297 
	L 54.850, 511.146 
	L 57.898, 510.979 
	L 60.945, 511.109 
	L 63.992, 511.755 
" />
<path d="M 63.992, 511.755 
	L 67.039, 511.403 
	L 70.087, 511.039 
	L 73.134, 510.469 
	L 76.181, 509.978 
	L 79.228, 510.664 
	L 82.276, 511.160 
	L 85.323, 511.055 
	L 88.370, 510.781 
	L 91.417, 511.545 
	L 94.465, 511.342 
	L 97.512, 511.158 
" />
<path d="M 97.512, 511.158 
	L 100.559, 510.606 
	L 103.606, 510.182 
	L 106.654, 510.139 
	L 109.701, 510.516 
	L 112.748, 511.246 
	L 115.795, 512.028 
	L 118.843, 512.494 
" />
<path d="M 0.001, 501.860 
	L 0.000, 501.861 
	L 2.906, 503.433 
	L 5.811, 503.245 
	L 8.717, 502.115 
	L 11.622, 501.001 
	L 14.528, 500.964 
	L 17.433, 502.075 
	L 20.339, 503.294 
	L 23.244, 502.541 
	L 26.150, 501.955 
	L 29.055, 502.555 
" />
<path d="M 29.055, 502.555 
	L 31.961, 502.080 
	L 34.866, 503.291 
	L 37.772, 503.519 
	L 40.677, 503.639 
	L 43.583, 504.797 
	L 46.488, 505.116 
	L 49.394, 504.605 
	L 52.299, 504.366 
	L 55.205, 504.105 
	L 58.110, 504.310 
	L 61.016, 505.324 
" />
<path d="M 61.016, 505.324 
	L 63.921, 504.772 
	L 66.827, 504.201 
	L 69.732, 503.305 
	L 72.638, 502.533 
	L 75.543, 503.610 
	L 78.449, 504.389 
	L 81.354, 504.224 
	L 84.260, 503.795 
	L 87.165, 504.994 
	L 90.071, 504.675 
	L 92.976, 504.386 
" />
<path d="M 92.976, 504.386 
	L 95.882, 503.519 
	L 98.787, 502.853 
	L 101.693, 502.786 
	L 104.598, 503.378 
	L 107.504, 504.525 
	L 110.409, 505.752 
	L 113.315, 506.485 
" />
<path d="M 0.001, 495.028 
	L 0.000, 495.028 
	L 2.835, 496.360 
	L 5.669, 496.201 
	L 8.504, 495.244 
	L 11.339, 494.301 
	L 14.173, 494.269 
	L 17.008, 495.209 
	L 19.843, 496.241 
	L 22.677, 495.604 
	L 25.512, 495.108 
	L 28.346, 495.617 
" />
<path d="M 28.346, 495.617 
	L 31.181, 495.214 
	L 34.016, 496.240 
	L 36.850, 496.432 
	L 39.685, 496.534 
	L 42.520, 497.514 
	L 45.354, 497.784 
	L 48.189, 497.352 
	L 51.024, 497.149 
	L 53.858, 496.928 
	L 56.693, 497.103 
	L 59.528, 497.960 
" />
<path d="M 59.528, 497.960 
	L 62.362, 497.493 
	L 65.197, 497.009 
	L 68.032, 496.251 
	L 70.866, 495.598 
	L 73.701, 496.510 
	L 76.535, 497.169 
	L 79.370, 497.029 
	L 82.205, 496.665 
	L 85.039, 497.681 
	L 87.874, 497.412 
	L 90.709, 497.166 
" />
<path d="M 90.709, 497.166 
	L 93.543, 496.432 
	L 96.378, 495.869 
	L 99.213, 495.812 
	L 102.047, 496.313 
	L 104.882, 497.284 
	L 107.717, 498.323 
	L 110.551, 498.943 
" />
<path d="M 0.001, 485.952 
	L 0.000, 485.953 
	L 2.693, 489.171 
	L 5.386, 488.785 
	L 8.079, 486.473 
	L 10.772, 484.194 
	L 13.465, 484.119 
	L 16.157, 486.390 
	L 18.850, 488.884 
	L 21.543, 487.344 
	L 24.236, 486.145 
	L 26.929, 487.373 
" />
<path d="M 26.929, 487.373 
	L 29.622, 486.402 
	L 32.315, 488.880 
	L 35.008, 489.346 
	L 37.701, 489.590 
	L 40.394, 491.960 
	L 43.087, 492.612 
	L 45.780, 491.569 
	L 48.472, 491.080 
	L 51.165, 490.545 
	L 53.858, 490.966 
	L 56.551, 493.039 
" />
<path d="M 56.551, 493.039 
	L 59.244, 491.910 
	L 61.937, 490.740 
	L 64.630, 488.907 
	L 67.323, 487.329 
	L 70.016, 489.533 
	L 72.709, 491.127 
	L 75.402, 490.789 
	L 78.095, 489.910 
	L 80.787, 492.364 
	L 83.480, 491.712 
	L 86.173, 491.119 
" />
<path d="M 86.173, 491.119 
	L 88.866, 489.346 
	L 91.559, 487.984 
	L 94.252, 487.846 
	L 96.945, 489.057 
	L 99.638, 491.405 
	L 102.331, 493.915 
	L 105.024, 495.414 
" />
<path d="M 0.001, 480.180 
	L 0.000, 480.181 
	L 2.622, 482.152 
	L 5.244, 481.915 
	L 7.866, 480.500 
	L 10.488, 479.103 
	L 13.110, 479.057 
	L 15.732, 480.449 
	L 18.354, 481.976 
	L 20.976, 481.033 
	L 23.598, 480.299 
	L 26.220, 481.051 
" />
<path d="M 26.220, 481.051 
	L 28.843, 480.456 
	L 31.465, 481.973 
	L 34.087, 482.259 
	L 36.709, 482.409 
	L 39.331, 483.861 
	L 41.953, 484.260 
	L 44.575, 483.621 
	L 47.197, 483.321 
	L 49.819, 482.993 
	L 52.441, 483.251 
	L 55.063, 484.521 
" />
<path d="M 55.063, 484.521 
	L 57.685, 483.829 
	L 60.307, 483.113 
	L 62.929, 481.990 
	L 65.551, 481.024 
	L 68.173, 482.374 
	L 70.795, 483.350 
	L 73.417, 483.143 
	L 76.039, 482.605 
	L 78.661, 484.108 
	L 81.283, 483.708 
	L 83.906, 483.345 
" />
<path d="M 83.906, 483.345 
	L 86.528, 482.259 
	L 89.150, 481.425 
	L 91.772, 481.341 
	L 94.394, 482.082 
	L 97.016, 483.520 
	L 99.638, 485.058 
	L 102.260, 485.975 
" />
<path d="M 0.001, 474.491 
	L 0.000, 474.491 
	L 2.480, 475.137 
	L 4.961, 475.060 
	L 7.441, 474.596 
	L 9.921, 474.138 
	L 12.402, 474.123 
	L 14.882, 474.579 
	L 17.362, 475.080 
	L 19.843, 474.771 
	L 22.323, 474.530 
	L 24.803, 474.776 
" />
<path d="M 24.803, 474.776 
	L 27.283, 474.581 
	L 29.764, 475.079 
	L 32.244, 475.172 
	L 34.724, 475.221 
	L 37.205, 475.698 
	L 39.685, 475.828 
	L 42.165, 475.619 
	L 44.646, 475.520 
	L 47.126, 475.413 
	L 49.606, 475.498 
	L 52.087, 475.914 
" />
<path d="M 52.087, 475.914 
	L 54.567, 475.688 
	L 57.047, 475.452 
	L 59.528, 475.085 
	L 62.008, 474.768 
	L 64.488, 475.210 
	L 66.969, 475.530 
	L 69.449, 475.462 
	L 71.929, 475.286 
	L 74.409, 475.778 
	L 76.890, 475.647 
	L 79.370, 475.529 
" />
<path d="M 79.370, 475.529 
	L 81.850, 475.172 
	L 84.331, 474.899 
	L 86.811, 474.871 
	L 89.291, 475.114 
	L 91.772, 475.586 
	L 94.252, 476.089 
	L 96.732, 476.391 
" />
<path d="M 0.001, 467.374 
	L 0.000, 467.374 
	L 2.409, 468.049 
	L 4.819, 467.968 
	L 7.228, 467.483 
	L 9.638, 467.006 
	L 12.047, 466.990 
	L 14.457, 467.466 
	L 16.866, 467.989 
	L 19.276, 467.666 
	L 21.685, 467.415 
	L 24.094, 467.673 
" />
<path d="M 24.094, 467.673 
	L 26.504, 467.469 
	L 28.913, 467.988 
	L 31.323, 468.086 
	L 33.732, 468.137 
	L 36.142, 468.634 
	L 38.551, 468.770 
	L 40.961, 468.552 
	L 43.370, 468.449 
	L 45.780, 468.337 
	L 48.189, 468.425 
	L 50.598, 468.860 
" />
<path d="M 50.598, 468.860 
	L 53.008, 468.624 
	L 55.417, 468.378 
	L 57.827, 467.994 
	L 60.236, 467.663 
	L 62.646, 468.125 
	L 65.055, 468.459 
	L 67.465, 468.388 
	L 69.874, 468.204 
	L 72.283, 468.719 
	L 74.693, 468.582 
	L 77.102, 468.458 
" />
<path d="M 77.102, 468.458 
	L 79.512, 468.086 
	L 81.921, 467.800 
	L 84.331, 467.771 
	L 86.740, 468.026 
	L 89.150, 468.517 
	L 91.559, 469.044 
	L 93.969, 469.358 
" />
<path d="M 0.001, 459.163 
	L 0.000, 459.164 
	L 2.339, 460.905 
	L 4.677, 460.696 
	L 7.016, 459.445 
	L 9.354, 458.212 
	L 11.693, 458.171 
	L 14.031, 459.400 
	L 16.370, 460.749 
	L 18.709, 459.916 
	L 21.047, 459.268 
	L 23.386, 459.933 
" />
<path d="M 23.386, 459.933 
	L 25.724, 459.407 
	L 28.063, 460.747 
	L 30.402, 460.999 
	L 32.740, 461.132 
	L 35.079, 462.414 
	L 37.417, 462.767 
	L 39.756, 462.202 
	L 42.094, 461.937 
	L 44.433, 461.648 
	L 46.772, 461.876 
	L 49.110, 462.997 
" />
<path d="M 49.110, 462.997 
	L 51.449, 462.387 
	L 53.787, 461.753 
	L 56.126, 460.762 
	L 58.465, 459.908 
	L 60.803, 461.101 
	L 63.142, 461.962 
	L 65.480, 461.779 
	L 67.819, 461.305 
	L 70.157, 462.632 
	L 72.496, 462.279 
	L 74.835, 461.959 
" />
<path d="M 74.835, 461.959 
	L 77.173, 460.999 
	L 79.512, 460.262 
	L 81.850, 460.188 
	L 84.189, 460.843 
	L 86.528, 462.113 
	L 88.866, 463.471 
	L 91.205, 464.282 
" />
</g><g style="stroke:rgb(255,0,0); fill:none; stroke-width:0.100mm" >
<path d="M 14.173, 642.417 
	L 14.173, 645.251 
" />
<path d="M 14.173, 643.834 
	L 16.299, 642.417 
	L 17.362, 642.417 
" />
<path d="M 20.551, 643.834 
	L 23.740, 643.834 
	L 24.803, 643.125 
	L 23.740, 642.417 
	L 21.614, 642.417 
	L 20.551, 643.125 
	L 20.551, 644.543 
	L 21.614, 645.251 
	L 24.803, 645.251 
" />
<path d="M 31.181, 644.543 
	L 30.118, 645.251 
	L 29.055, 645.251 
	L 27.992, 644.543 
	L 27.992, 643.125 
	L 29.055, 642.417 
	L 30.118, 642.417 
	L 31.181, 643.125 
" />
<path d="M 34.370, 645.251 
	L 33.307, 644.543 
	L 33.307, 643.125 
	L 34.370, 642.417 
	L 35.433, 642.417 
	L 36.496, 643.125 
	L 36.496, 644.543 
	L 35.433, 645.251 
	L 34.370, 645.251 
" />
<path d="M 39.685, 642.417 
	L 39.685, 645.251 
" />
<path d="M 39.685, 643.834 
	L 41.811, 642.417 
	L 42.874, 642.417 
" />
<path d="M 49.252, 640.999 
	L 49.252, 645.251 
	L 47.126, 645.251 
	L 46.063, 644.543 
	L 46.063, 643.125 
	L 47.126, 642.417 
	L 49.252, 642.417 
" />
<path d="M 49.252, 645.251 
	L 50.315, 645.251 
" />
<path d="M 52.441, 643.834 
	L 55.630, 643.834 
	L 56.693, 643.125 
	L 55.630, 642.417 
	L 53.504, 642.417 
	L 52.441, 643.125 
	L 52.441, 644.543 
	L 53.504, 645.251 
	L 56.693, 645.251 
" />
<path d="M 62.008, 640.999 
	L 62.008, 645.251 
	L 59.882, 645.251 
	L 58.819, 644.543 
	L 58.819, 643.125 
	L 59.882, 642.417 
	L 62.008, 642.417 
" />
<path d="M 62.008, 645.251 
	L 63.071, 645.251 
" />
<path d="M 73.701, 640.999 
	L 73.701, 641.708 
" />
<path d="M 72.638, 642.417 
	L 73.701, 642.417 
	L 73.701, 645.251 
" />
<path d="M 72.638, 645.251 
	L 74.764, 645.251 
" />
<path d="M 77.953, 645.251 
	L 77.953, 642.417 
" />
<path d="M 77.953, 643.125 
	L 79.016, 642.417 
	L 80.079, 642.417 
	L 81.142, 643.125 
	L 81.142, 645.251 
" />
<path d="M 92.835, 645.251 
	L 92.835, 640.999 
	L 90.709, 640.999 
	L 94.961, 640.999 
" />
<path d="M 97.087, 642.417 
	L 97.087, 644.543 
	L 98.150, 645.251 
	L 100.276, 645.251 
	L 100.276, 642.417 
" />
<path d="M 106.654, 642.417 
	L 104.528, 642.417 
	L 103.465, 643.125 
	L 104.528, 643.834 
	L 105.591, 643.834 
	L 106.654, 644.543 
	L 105.591, 645.251 
	L 103.465, 645.251 
" />
<path d="M 109.843, 640.999 
	L 109.843, 645.251 
" />
<path d="M 109.843, 642.417 
	L 111.969, 642.417 
	L 113.032, 643.125 
	L 113.032, 645.251 
" />
<path d="M 116.220, 643.834 
	L 119.409, 643.834 
	L 120.472, 643.125 
	L 119.409, 642.417 
	L 117.283, 642.417 
	L 116.220, 643.125 
	L 116.220, 644.543 
	L 117.283, 645.251 
	L 120.472, 645.251 
" />
<path d="M 123.661, 640.999 
	L 123.661, 645.251 
	L 125.787, 645.251 
" />
<path d="M 122.598, 642.417 
	L 125.787, 642.417 
" />
<path d="M 131.102, 640.999 
	L 131.102, 641.708 
" />
<path d="M 130.039, 642.417 
	L 131.102, 642.417 
	L 131.102, 645.251 
" />
<path d="M 130.039, 645.251 
	L 132.165, 645.251 
" />
<path d="M 137.480, 640.999 
	L 137.480, 641.708 
" />
<path d="M 136.417, 642.417 
	L 137.480, 642.417 
	L 137.480, 645.251 
" />
<path d="M 136.417, 645.251 
	L 138.543, 645.251 
" />
<path d="M 152.362, 641.708 
	L 151.299, 640.999 
	L 149.173, 640.999 
	L 148.110, 641.708 
	L 148.110, 644.543 
	L 149.173, 645.251 
	L 151.299, 645.251 
	L 152.362, 644.543 
	L 152.362, 643.125 
	L 149.173, 643.125 
" />
<path d="M 154.488, 643.834 
	L 157.677, 643.834 
	L 158.740, 643.125 
	L 157.677, 642.417 
	L 155.551, 642.417 
	L 154.488, 643.125 
	L 154.488, 644.543 
	L 155.551, 645.251 
	L 158.740, 645.251 
" />
<path d="M 161.929, 645.251 
	L 160.866, 644.543 
	L 160.866, 643.125 
	L 161.929, 642.417 
	L 162.992, 642.417 
	L 164.055, 643.125 
	L 164.055, 644.543 
	L 162.992, 645.251 
	L 161.929, 645.251 
" />
<path d="M 167.244, 642.417 
	L 167.244, 645.251 
" />
<path d="M 167.244, 643.834 
	L 169.370, 642.417 
	L 170.433, 642.417 
" />
<path d="M 173.622, 646.669 
	L 175.748, 646.669 
	L 176.811, 645.960 
	L 176.811, 642.417 
	L 174.685, 642.417 
	L 173.622, 643.125 
	L 173.622, 644.543 
	L 174.685, 645.251 
	L 176.811, 645.251 
" />
<path d="M 182.126, 640.999 
	L 182.126, 641.708 
" />
<path d="M 181.063, 642.417 
	L 182.126, 642.417 
	L 182.126, 645.251 
" />
<path d="M 181.063, 645.251 
	L 183.189, 645.251 
" />
<path d="M 190.630, 645.251 
	L 187.441, 645.251 
	L 186.378, 644.543 
	L 186.378, 643.125 
	L 187.441, 642.417 
	L 189.567, 642.417 
	L 189.567, 645.251 
" />
<path d="M 14.173, 652.338 
	L 14.173, 648.086 
" />
<path d="M 17.362, 652.338 
	L 14.173, 650.920 
	L 17.362, 649.503 
" />
<path d="M 24.803, 652.338 
	L 21.614, 652.338 
	L 20.551, 651.629 
	L 20.551, 650.212 
	L 21.614, 649.503 
	L 23.740, 649.503 
	L 23.740, 652.338 
" />
<path d="M 27.992, 652.338 
	L 26.929, 651.629 
	L 26.929, 650.212 
	L 27.992, 649.503 
	L 29.055, 649.503 
	L 30.118, 650.212 
	L 30.118, 651.629 
	L 29.055, 652.338 
	L 27.992, 652.338 
" />
<path d="M 34.370, 648.086 
	L 34.370, 652.338 
	L 36.496, 652.338 
" />
<path d="M 33.307, 649.503 
	L 36.496, 649.503 
" />
<path d="M 39.685, 650.920 
	L 42.874, 650.920 
	L 43.937, 650.212 
	L 42.874, 649.503 
	L 40.748, 649.503 
	L 39.685, 650.212 
	L 39.685, 651.629 
	L 40.748, 652.338 
	L 43.937, 652.338 
" />
<path d="M 50.315, 651.629 
	L 49.252, 652.338 
	L 48.189, 652.338 
	L 47.126, 651.629 
	L 47.126, 650.212 
	L 48.189, 649.503 
	L 49.252, 649.503 
	L 50.315, 650.212 
" />
<path d="M 63.071, 652.338 
	L 60.945, 652.338 
	L 60.945, 648.086 
	L 63.071, 648.086 
" />
<path d="M 65.197, 652.338 
	L 67.323, 652.338 
	L 67.323, 648.086 
	L 65.197, 648.086 
" />
<path d="M 74.764, 648.086 
	L 71.575, 650.212 
	L 74.764, 652.338 
" />
<path d="M 77.953, 648.086 
	L 81.142, 650.212 
	L 77.953, 652.338 
" />
<path d="M 90.709, 648.795 
	L 91.772, 648.086 
	L 93.898, 648.086 
	L 94.961, 648.795 
	L 94.961, 649.503 
	L 90.709, 651.629 
	L 90.709, 652.338 
	L 94.961, 652.338 
" />
<path d="M 97.087, 651.629 
	L 98.150, 652.338 
	L 100.276, 652.338 
	L 101.339, 651.629 
	L 101.339, 648.795 
	L 100.276, 648.086 
	L 98.150, 648.086 
	L 97.087, 648.795 
	L 97.087, 651.629 
" />
<path d="M 104.528, 652.338 
	L 106.654, 652.338 
" />
<path d="M 105.591, 652.338 
	L 105.591, 648.086 
	L 104.528, 648.795 
" />
<path d="M 110.906, 652.338 
	L 111.969, 652.338 
	L 114.095, 650.920 
	L 114.095, 648.795 
	L 113.032, 648.086 
	L 110.906, 648.086 
	L 109.843, 648.795 
	L 109.843, 649.503 
	L 110.906, 650.212 
	L 114.095, 650.212 
" />
<path d="M 14.173, 673.598 
	L 17.362, 673.598 
	L 18.425, 672.889 
	L 18.425, 671.472 
	L 17.362, 670.763 
	L 15.236, 670.763 
" />
<path d="M 15.236, 669.346 
	L 15.236, 673.598 
" />
<path d="M 24.803, 673.598 
	L 21.614, 673.598 
	L 20.551, 672.889 
	L 20.551, 671.472 
	L 21.614, 670.763 
	L 23.740, 670.763 
	L 23.740, 673.598 
" />
<path d="M 26.929, 673.598 
	L 26.929, 670.763 
" />
<path d="M 26.929, 671.472 
	L 27.992, 670.763 
	L 29.055, 670.763 
	L 30.118, 671.472 
	L 30.118, 673.598 
" />
<path d="M 36.496, 669.346 
	L 36.496, 673.598 
	L 34.370, 673.598 
	L 33.307, 672.889 
	L 33.307, 671.472 
	L 34.370, 670.763 
	L 36.496, 670.763 
" />
<path d="M 36.496, 673.598 
	L 37.559, 673.598 
" />
<path d="M 43.937, 672.889 
	L 42.874, 673.598 
	L 41.811, 673.598 
	L 40.748, 672.889 
	L 40.748, 671.472 
	L 41.811, 670.763 
	L 42.874, 670.763 
	L 43.937, 671.472 
" />
<path d="M 50.315, 673.598 
	L 47.126, 673.598 
	L 46.063, 672.889 
	L 46.063, 671.472 
	L 47.126, 670.763 
	L 49.252, 670.763 
	L 49.252, 673.598 
" />
<path d="M 52.441, 673.598 
	L 52.441, 670.763 
" />
<path d="M 52.441, 671.472 
	L 53.504, 670.763 
	L 54.567, 671.472 
	L 54.567, 673.598 
" />
<path d="M 54.567, 671.472 
	L 55.630, 670.763 
	L 56.693, 671.472 
	L 56.693, 673.598 
" />
<path d="M 58.819, 675.015 
	L 58.819, 670.763 
	L 60.945, 670.763 
	L 62.008, 671.472 
	L 62.008, 672.889 
	L 60.945, 673.598 
	L 58.819, 673.598 
" />
<path d="M 74.764, 669.346 
	L 74.764, 673.598 
	L 72.638, 673.598 
	L 71.575, 672.889 
	L 71.575, 671.472 
	L 72.638, 670.763 
	L 74.764, 670.763 
" />
<path d="M 74.764, 673.598 
	L 75.827, 673.598 
" />
<path d="M 79.016, 673.598 
	L 77.953, 672.889 
	L 77.953, 671.472 
	L 79.016, 670.763 
	L 80.079, 670.763 
	L 81.142, 671.472 
	L 81.142, 672.889 
	L 80.079, 673.598 
	L 79.016, 673.598 
" />
<path d="M 84.331, 670.763 
	L 84.331, 672.889 
	L 85.394, 673.598 
	L 86.457, 672.889 
	L 86.457, 671.472 
" />
<path d="M 86.457, 672.889 
	L 87.520, 673.598 
	L 88.583, 672.889 
	L 88.583, 670.763 
" />
<path d="M 90.709, 673.598 
	L 90.709, 670.763 
" />
<path d="M 90.709, 671.472 
	L 91.772, 670.763 
	L 92.835, 670.763 
	L 93.898, 671.472 
	L 93.898, 673.598 
" />
<path d="M 98.150, 669.346 
	L 99.213, 669.346 
	L 99.213, 673.598 
" />
<path d="M 98.150, 673.598 
	L 100.276, 673.598 
" />
<path d="M 104.528, 673.598 
	L 103.465, 672.889 
	L 103.465, 671.472 
	L 104.528, 670.763 
	L 105.591, 670.763 
	L 106.654, 671.472 
	L 106.654, 672.889 
	L 105.591, 673.598 
	L 104.528, 673.598 
" />
<path d="M 114.095, 673.598 
	L 110.906, 673.598 
	L 109.843, 672.889 
	L 109.843, 671.472 
	L 110.906, 670.763 
	L 113.032, 670.763 
	L 113.032, 673.598 
" />
<path d="M 119.409, 669.346 
	L 119.409, 673.598 
	L 117.283, 673.598 
	L 116.220, 672.889 
	L 116.220, 671.472 
	L 117.283, 670.763 
	L 119.409, 670.763 
" />
<path d="M 119.409, 673.598 
	L 120.472, 673.598 
" />
<path d="M 126.850, 672.889 
	L 125.787, 673.598 
	L 124.724, 673.598 
	L 123.661, 672.889 
	L 123.661, 671.472 
	L 124.724, 670.763 
	L 125.787, 670.763 
	L 126.850, 671.472 
" />
<path d="M 130.039, 673.598 
	L 128.976, 672.889 
	L 128.976, 671.472 
	L 130.039, 670.763 
	L 131.102, 670.763 
	L 132.165, 671.472 
	L 132.165, 672.889 
	L 131.102, 673.598 
	L 130.039, 673.598 
" />
<path d="M 138.543, 669.346 
	L 138.543, 673.598 
	L 136.417, 673.598 
	L 135.354, 672.889 
	L 135.354, 671.472 
	L 136.417, 670.763 
	L 138.543, 670.763 
" />
<path d="M 138.543, 673.598 
	L 139.606, 673.598 
" />
<path d="M 141.732, 672.180 
	L 144.921, 672.180 
	L 145.984, 671.472 
	L 144.921, 670.763 
	L 142.795, 670.763 
	L 141.732, 671.472 
	L 141.732, 672.889 
	L 142.795, 673.598 
	L 145.984, 673.598 
" />
<path d="M 154.488, 673.598 
	L 158.740, 669.346 
" />
<path d="M 158.740, 673.598 
	L 154.488, 669.346 
" />
<path d="M 160.866, 673.598 
	L 165.118, 669.346 
" />
<path d="M 165.118, 673.598 
	L 160.866, 669.346 
" />
<path d="M 167.244, 673.598 
	L 171.496, 669.346 
" />
<path d="M 171.496, 673.598 
	L 167.244, 669.346 
" />
<path d="M 173.622, 673.598 
	L 177.874, 669.346 
" />
<path d="M 177.874, 673.598 
	L 173.622, 669.346 
" />
<path d="M 180.000, 671.472 
	L 184.252, 671.472 
" />
<path d="M 186.378, 673.598 
	L 190.630, 669.346 
" />
<path d="M 190.630, 673.598 
	L 186.378, 669.346 
" />
<path d="M 192.756, 673.598 
	L 197.008, 669.346 
" />
<path d="M 197.008, 673.598 
	L 192.756, 669.346 
" />
<path d="M 199.134, 673.598 
	L 203.386, 669.346 
" />
<path d="M 203.386, 673.598 
	L 199.134, 669.346 
" />
<path d="M 205.512, 673.598 
	L 209.764, 669.346 
" />
<path d="M 209.764, 673.598 
	L 205.512, 669.346 
" />
<path d="M 17.717, 259.030 
	L 17.717, 259.031 
	L 17.717, 257.684 
	L 37.382, 257.684 
	L 37.382, 259.031 
	L 17.717, 259.031 
	L 17.717, 254.035 
	L 17.717, 252.688 
	L 37.382, 252.688 
	L 37.382, 254.035 
	L 17.717, 254.035 
	L 17.717, 251.306 
" />
<path d="M 17.717, 251.306 
	L 17.717, 249.960 
	L 37.382, 249.960 
	L 37.382, 251.306 
	L 17.717, 251.306 
" />
<path d="M 37.666, 259.030 
	L 37.665, 259.031 
	L 37.665, 249.960 
	L 39.366, 249.960 
	L 39.366, 259.031 
	L 37.665, 259.031 
" />
<path d="M 39.367, 259.030 
	L 39.366, 259.031 
	L 39.366, 252.228 
	L 51.626, 252.228 
	L 51.626, 253.574 
	L 41.067, 253.574 
	L 41.067, 254.956 
	L 51.626, 254.956 
	L 51.626, 256.302 
	L 41.067, 256.302 
	L 41.067, 259.031 
	L 39.366, 259.031 
" />
<path d="M 39.366, 259.031 
" />
<path d="M 62.257, 254.955 
	L 62.256, 254.956 
	L 62.256, 253.574 
	L 52.902, 253.574 
	L 52.902, 254.956 
	L 62.256, 254.956 
	L 51.343, 259.031 
	L 51.343, 252.228 
	L 63.815, 252.228 
	L 63.815, 256.302 
	L 52.902, 256.302 
	L 52.902, 257.684 
" />
<path d="M 52.902, 257.684 
	L 63.815, 257.684 
	L 63.815, 259.031 
	L 51.343, 259.031 
" />
<path d="M 64.099, 259.030 
	L 64.098, 259.031 
	L 64.098, 252.228 
	L 77.138, 252.228 
	L 77.138, 259.031 
	L 75.437, 259.031 
	L 75.437, 253.574 
	L 65.799, 253.574 
	L 65.799, 259.031 
	L 64.098, 259.031 
" />
<path d="M 77.139, 259.491 
	L 77.138, 259.491 
	L 77.138, 249.960 
	L 78.839, 249.960 
	L 78.839, 257.436 
	L 88.193, 253.361 
	L 97.547, 257.436 
	L 97.547, 249.960 
	L 99.248, 249.960 
	L 99.248, 259.491 
	L 88.193, 254.708 
	L 77.138, 259.491 
" />
<path d="M 77.138, 259.491 
" />
<path d="M 110.587, 257.684 
	L 110.587, 257.684 
	L 110.587, 253.574 
	L 108.319, 253.574 
	L 103.783, 257.684 
	L 110.587, 257.684 
	L 99.992, 259.031 
	L 106.051, 253.574 
	L 99.992, 253.574 
	L 99.992, 252.228 
	L 112.287, 252.228 
" />
<path d="M 112.287, 252.228 
	L 112.287, 259.031 
	L 99.992, 259.031 
" />
<path d="M 111.544, 259.030 
	L 111.543, 259.031 
	L 111.543, 252.228 
	L 124.583, 252.228 
	L 124.583, 259.031 
	L 122.882, 259.031 
	L 122.882, 253.574 
	L 113.244, 253.574 
	L 113.244, 259.031 
	L 111.543, 259.031 
" />
<path d="M 135.922, 257.684 
	L 135.921, 257.684 
	L 135.921, 253.574 
	L 126.283, 253.574 
	L 126.283, 257.684 
	L 135.921, 257.684 
	L 124.583, 259.031 
	L 124.583, 252.228 
	L 135.921, 252.228 
	L 135.921, 249.960 
	L 137.622, 249.960 
" />
<path d="M 137.622, 249.960 
	L 137.622, 259.031 
	L 124.583, 259.031 
" />
<path d="M 148.253, 254.955 
	L 148.252, 254.956 
	L 148.252, 253.574 
	L 138.898, 253.574 
	L 138.898, 254.956 
	L 148.252, 254.956 
	L 137.339, 259.031 
	L 137.339, 252.228 
	L 149.811, 252.228 
	L 149.811, 256.302 
	L 138.898, 256.302 
" />
<path d="M 138.898, 256.302 
	L 138.898, 257.684 
	L 149.811, 257.684 
	L 149.811, 259.031 
	L 137.339, 259.031 
" />
<path d="M 150.095, 259.030 
	L 150.095, 259.031 
	L 150.095, 252.228 
	L 162.354, 252.228 
	L 162.354, 253.574 
	L 151.795, 253.574 
	L 151.795, 259.031 
	L 150.095, 259.031 
" />
<path d="M 36.320, 275.400 
	L 36.319, 275.401 
	L 28.772, 269.023 
	L 19.701, 269.023 
	L 19.701, 275.401 
	L 36.319, 275.401 
	L 18.000, 276.747 
	L 18.000, 267.676 
	L 29.516, 267.676 
	L 40.110, 276.747 
	L 18.000, 276.747 
" />
<path d="M 40.111, 276.747 
	L 40.110, 276.747 
	L 40.110, 269.944 
	L 41.811, 269.944 
	L 41.811, 276.747 
	L 40.110, 276.747 
	L 40.110, 269.023 
	L 40.110, 267.676 
	L 41.811, 267.676 
	L 41.811, 269.023 
	L 40.110, 269.023 
" />
<path d="M 41.528, 276.747 
	L 41.528, 276.747 
	L 41.528, 275.401 
	L 52.441, 275.401 
	L 52.441, 274.019 
	L 41.528, 274.019 
	L 41.528, 269.944 
	L 54.000, 269.944 
	L 54.000, 271.291 
	L 43.087, 271.291 
	L 43.087, 272.672 
	L 54.000, 272.672 
" />
<path d="M 54.000, 272.672 
	L 54.000, 276.747 
	L 41.528, 276.747 
" />
<path d="M 54.284, 276.747 
	L 54.283, 276.747 
	L 54.283, 267.676 
	L 55.984, 267.676 
	L 55.984, 269.944 
	L 66.543, 269.944 
	L 66.543, 271.291 
	L 55.984, 271.291 
	L 55.984, 275.401 
	L 66.543, 275.401 
	L 66.543, 276.747 
	L 54.283, 276.747 
" />
<path d="M 54.283, 276.747 
" />
<path d="M 66.544, 276.747 
	L 66.543, 276.747 
	L 66.543, 269.944 
	L 78.803, 269.944 
	L 78.803, 271.291 
	L 68.244, 271.291 
	L 68.244, 276.747 
	L 66.543, 276.747 
" />
<path d="M 89.434, 272.672 
	L 89.433, 272.672 
	L 89.433, 271.291 
	L 80.079, 271.291 
	L 80.079, 272.672 
	L 89.433, 272.672 
	L 78.520, 276.747 
	L 78.520, 269.944 
	L 90.992, 269.944 
	L 90.992, 274.019 
	L 80.079, 274.019 
	L 80.079, 275.401 
" />
<path d="M 80.079, 275.401 
	L 90.992, 275.401 
	L 90.992, 276.747 
	L 78.520, 276.747 
" />
<path d="M 90.993, 276.747 
	L 90.992, 276.747 
	L 90.992, 275.401 
	L 101.906, 275.401 
	L 101.906, 274.019 
	L 90.992, 274.019 
	L 90.992, 269.944 
	L 103.465, 269.944 
	L 103.465, 271.291 
	L 92.551, 271.291 
	L 92.551, 272.672 
" />
<path d="M 92.551, 272.672 
	L 103.465, 272.672 
	L 103.465, 276.747 
	L 90.992, 276.747 
" />
<path d="M 103.465, 276.747 
	L 103.465, 276.747 
	L 103.465, 275.401 
	L 114.378, 275.401 
	L 114.378, 274.019 
	L 103.465, 274.019 
	L 103.465, 269.944 
	L 115.937, 269.944 
	L 115.937, 271.291 
	L 105.024, 271.291 
	L 105.024, 272.672 
" />
<path d="M 105.024, 272.672 
	L 115.937, 272.672 
	L 115.937, 276.747 
	L 103.465, 276.747 
" />
<path d="M 116.221, 276.747 
	L 116.220, 276.747 
	L 116.220, 270.405 
	L 136.063, 270.405 
	L 136.063, 271.751 
	L 117.921, 271.751 
	L 117.921, 276.747 
	L 116.220, 276.747 
	L 116.220, 269.023 
	L 116.220, 267.676 
	L 136.063, 267.676 
" />
<path d="M 136.063, 267.676 
	L 136.063, 269.023 
	L 116.220, 269.023 
" />
<path d="M 136.064, 276.747 
	L 136.063, 276.747 
	L 136.063, 269.944 
	L 148.323, 269.944 
	L 148.323, 271.291 
	L 137.764, 271.291 
	L 137.764, 276.747 
	L 136.063, 276.747 
" />
<path d="M 158.953, 272.672 
	L 158.953, 272.672 
	L 158.953, 271.291 
	L 149.598, 271.291 
	L 149.598, 272.672 
	L 158.953, 272.672 
	L 148.039, 276.747 
	L 148.039, 269.944 
	L 160.512, 269.944 
	L 160.512, 274.019 
	L 149.598, 274.019 
" />
<path d="M 149.598, 274.019 
	L 149.598, 275.401 
	L 160.512, 275.401 
	L 160.512, 276.747 
	L 148.039, 276.747 
" />
<path d="M 172.135, 275.400 
	L 172.134, 275.401 
	L 172.134, 271.291 
	L 162.496, 271.291 
	L 162.496, 275.401 
	L 172.134, 275.401 
	L 172.134, 279.015 
	L 172.134, 276.747 
	L 160.795, 276.747 
	L 160.795, 269.944 
	L 173.835, 269.944 
" />
<path d="M 173.835, 269.944 
	L 173.835, 279.015 
	L 172.134, 279.015 
" />
<path d="M 173.835, 276.747 
	L 173.835, 276.747 
	L 173.835, 269.944 
	L 175.535, 269.944 
	L 175.535, 275.401 
	L 185.173, 275.401 
	L 185.173, 269.944 
	L 186.874, 269.944 
	L 186.874, 276.747 
	L 173.835, 276.747 
" />
<path d="M 197.505, 272.672 
	L 197.504, 272.672 
	L 197.504, 271.291 
	L 188.150, 271.291 
	L 188.150, 272.672 
	L 197.504, 272.672 
	L 186.591, 276.747 
	L 186.591, 269.944 
	L 199.063, 269.944 
	L 199.063, 274.019 
	L 188.150, 274.019 
" />
<path d="M 188.150, 274.019 
	L 188.150, 275.401 
	L 199.063, 275.401 
	L 199.063, 276.747 
	L 186.591, 276.747 
" />
<path d="M 199.347, 276.747 
	L 199.346, 276.747 
	L 199.346, 269.944 
	L 212.386, 269.944 
	L 212.386, 276.747 
	L 210.685, 276.747 
	L 210.685, 271.291 
	L 201.047, 271.291 
	L 201.047, 276.747 
	L 199.346, 276.747 
" />
<path d="M 212.387, 276.747 
	L 212.386, 276.747 
	L 212.386, 269.944 
	L 224.646, 269.944 
	L 224.646, 271.291 
	L 214.087, 271.291 
	L 214.087, 275.401 
	L 224.646, 275.401 
	L 224.646, 276.747 
	L 212.386, 276.747 
" />
<path d="M 225.391, 279.014 
	L 225.390, 279.015 
	L 225.390, 277.633 
	L 235.984, 277.633 
	L 235.984, 276.747 
	L 232.937, 276.747 
	L 225.390, 269.944 
	L 227.658, 269.944 
	L 233.717, 275.401 
	L 235.984, 275.401 
	L 235.984, 269.944 
" />
<path d="M 235.984, 269.944 
	L 237.685, 269.944 
	L 237.685, 279.015 
	L 225.390, 279.015 
" />
<path d="M 27.072, 294.463 
	L 27.071, 294.464 
	L 27.071, 286.739 
	L 17.256, 286.739 
	L 17.256, 285.393 
	L 38.587, 285.393 
	L 38.587, 286.739 
	L 28.772, 286.739 
	L 28.772, 294.464 
	L 27.071, 294.464 
" />
<path d="M 39.331, 294.463 
	L 39.331, 294.464 
	L 39.331, 285.393 
	L 41.032, 285.393 
	L 41.032, 287.661 
	L 52.370, 287.661 
	L 52.370, 294.464 
	L 50.669, 294.464 
	L 50.669, 289.007 
	L 41.032, 289.007 
	L 41.032, 294.464 
	L 39.331, 294.464 
" />
<path d="M 39.331, 294.464 
" />
<path d="M 63.001, 290.388 
	L 63.000, 290.389 
	L 63.000, 289.007 
	L 53.646, 289.007 
	L 53.646, 290.389 
	L 63.000, 290.389 
	L 52.087, 294.464 
	L 52.087, 287.661 
	L 64.559, 287.661 
	L 64.559, 291.735 
	L 53.646, 291.735 
	L 53.646, 293.117 
" />
<path d="M 53.646, 293.117 
	L 64.559, 293.117 
	L 64.559, 294.464 
	L 52.087, 294.464 
" />
<path d="M 64.560, 294.463 
	L 64.559, 294.464 
	L 64.559, 293.117 
	L 84.224, 293.117 
	L 84.224, 294.464 
	L 64.559, 294.464 
	L 64.559, 289.468 
	L 64.559, 288.121 
	L 84.224, 288.121 
	L 84.224, 289.468 
	L 64.559, 289.468 
	L 64.559, 286.739 
" />
<path d="M 64.559, 286.739 
	L 64.559, 285.393 
	L 84.224, 285.393 
	L 84.224, 286.739 
	L 64.559, 286.739 
" />
<path d="M 95.847, 293.117 
	L 95.846, 293.117 
	L 95.846, 289.007 
	L 86.209, 289.007 
	L 86.209, 293.117 
	L 95.846, 293.117 
	L 84.508, 294.464 
	L 84.508, 287.661 
	L 95.846, 287.661 
	L 95.846, 285.393 
	L 97.547, 285.393 
	L 97.547, 294.464 
" />
<path d="M 97.547, 294.464 
	L 84.508, 294.464 
" />
<path d="M 108.887, 293.117 
	L 108.886, 293.117 
	L 108.886, 289.007 
	L 99.248, 289.007 
	L 99.248, 293.117 
	L 108.886, 293.117 
	L 97.547, 296.731 
	L 97.547, 295.350 
	L 108.886, 295.350 
	L 108.886, 294.464 
	L 97.547, 294.464 
" />
<path d="M 97.547, 294.464 
	L 97.547, 287.661 
	L 110.587, 287.661 
	L 110.587, 296.731 
	L 97.547, 296.731 
" />
<path d="M 121.217, 290.388 
	L 121.217, 290.389 
	L 121.217, 289.007 
	L 111.862, 289.007 
	L 111.862, 290.389 
	L 121.217, 290.389 
	L 110.303, 294.464 
	L 110.303, 287.661 
	L 122.776, 287.661 
	L 122.776, 291.735 
	L 111.862, 291.735 
" />
<path d="M 111.862, 291.735 
	L 111.862, 293.117 
	L 122.776, 293.117 
	L 122.776, 294.464 
	L 110.303, 294.464 
" />
<path d="M 143.469, 293.117 
	L 143.469, 293.117 
	L 143.469, 286.739 
	L 124.760, 286.739 
	L 124.760, 293.117 
	L 143.469, 293.117 
	L 123.059, 294.464 
	L 123.059, 285.393 
	L 145.169, 285.393 
	L 145.169, 294.464 
	L 123.059, 294.464 
" />
<path d="M 123.059, 294.464 
" />
<path d="M 145.170, 294.463 
	L 145.169, 294.464 
	L 145.169, 287.661 
	L 157.429, 287.661 
	L 157.429, 289.007 
	L 146.870, 289.007 
	L 146.870, 290.389 
	L 157.429, 290.389 
	L 157.429, 291.735 
	L 146.870, 291.735 
	L 146.870, 294.464 
" />
<path d="M 146.870, 294.464 
	L 145.169, 294.464 
" />
<path d="M 157.430, 294.924 
	L 157.429, 294.924 
	L 157.429, 285.393 
	L 159.130, 285.393 
	L 159.130, 292.869 
	L 168.484, 288.794 
	L 177.839, 292.869 
	L 177.839, 285.393 
	L 179.539, 285.393 
	L 179.539, 294.924 
	L 168.484, 290.141 
" />
<path d="M 168.484, 290.141 
	L 157.429, 294.924 
" />
<path d="M 179.540, 294.463 
	L 179.539, 294.464 
	L 179.539, 285.393 
	L 181.240, 285.393 
	L 181.240, 287.661 
	L 192.579, 287.661 
	L 192.579, 294.464 
	L 190.878, 294.464 
	L 190.878, 289.007 
	L 181.240, 289.007 
	L 181.240, 294.464 
" />
<path d="M 181.240, 294.464 
	L 179.539, 294.464 
" />
<path d="M 203.918, 293.117 
	L 203.917, 293.117 
	L 203.917, 289.007 
	L 201.650, 289.007 
	L 197.114, 293.117 
	L 203.917, 293.117 
	L 193.323, 294.464 
	L 199.382, 289.007 
	L 193.323, 289.007 
	L 193.323, 287.661 
	L 205.618, 287.661 
" />
<path d="M 205.618, 287.661 
	L 205.618, 294.464 
	L 193.323, 294.464 
" />
<path d="M 204.875, 294.463 
	L 204.874, 294.464 
	L 204.874, 285.393 
	L 206.575, 285.393 
	L 206.575, 287.661 
	L 217.134, 287.661 
	L 217.134, 289.007 
	L 206.575, 289.007 
	L 206.575, 293.117 
	L 217.134, 293.117 
	L 217.134, 294.464 
" />
<path d="M 217.134, 294.464 
	L 204.874, 294.464 
" />
<path d="M 217.135, 294.463 
	L 217.134, 294.464 
	L 217.134, 285.393 
	L 218.835, 285.393 
	L 218.835, 294.464 
	L 217.134, 294.464 
" />
<path d="M 218.552, 294.463 
	L 218.551, 294.464 
	L 218.551, 293.117 
	L 229.465, 293.117 
	L 229.465, 291.735 
	L 218.551, 291.735 
	L 218.551, 287.661 
	L 231.024, 287.661 
	L 231.024, 289.007 
	L 220.110, 289.007 
	L 220.110, 290.389 
" />
<path d="M 220.110, 290.389 
	L 231.024, 290.389 
	L 231.024, 294.464 
	L 218.551, 294.464 
" />
<path d="M 17.717, 305.093 
	L 17.717, 305.094 
	L 28.311, 295.562 
	L 38.870, 305.094 
	L 36.602, 305.094 
	L 28.311, 297.582 
	L 19.984, 305.094 
	L 17.717, 305.094 
" />
<path d="M 50.493, 303.747 
	L 50.492, 303.747 
	L 50.492, 299.637 
	L 40.854, 299.637 
	L 40.854, 303.747 
	L 50.492, 303.747 
	L 39.154, 305.094 
	L 39.154, 298.291 
	L 50.492, 298.291 
	L 50.492, 296.023 
	L 52.193, 296.023 
	L 52.193, 305.094 
" />
<path d="M 52.193, 305.094 
	L 39.154, 305.094 
" />
<path d="M 52.194, 305.093 
	L 52.193, 305.094 
	L 52.193, 298.291 
	L 62.965, 298.291 
	L 62.965, 305.094 
	L 61.264, 305.094 
	L 61.264, 299.637 
	L 58.429, 299.637 
	L 58.429, 305.094 
	L 56.728, 305.094 
	L 56.728, 299.637 
	L 53.894, 299.637 
" />
<path d="M 53.894, 299.637 
	L 53.894, 305.094 
	L 52.193, 305.094 
" />
<path d="M 62.965, 305.093 
	L 62.965, 305.094 
	L 62.965, 298.291 
	L 64.665, 298.291 
	L 64.665, 305.094 
	L 62.965, 305.094 
	L 62.965, 297.369 
	L 62.965, 296.023 
	L 64.665, 296.023 
	L 64.665, 297.369 
	L 62.965, 297.369 
" />
<path d="M 64.666, 305.093 
	L 64.665, 305.094 
	L 64.665, 298.291 
	L 77.705, 298.291 
	L 77.705, 305.094 
	L 76.004, 305.094 
	L 76.004, 299.637 
	L 66.366, 299.637 
	L 66.366, 305.094 
	L 64.665, 305.094 
" />
<path d="M 77.705, 305.093 
	L 77.705, 305.094 
	L 77.705, 298.291 
	L 79.406, 298.291 
	L 79.406, 305.094 
	L 77.705, 305.094 
	L 77.705, 297.369 
	L 77.705, 296.023 
	L 79.406, 296.023 
	L 79.406, 297.369 
	L 77.705, 297.369 
" />
<path d="M 79.123, 305.093 
	L 79.122, 305.094 
	L 79.122, 303.747 
	L 90.035, 303.747 
	L 90.035, 302.365 
	L 79.122, 302.365 
	L 79.122, 298.291 
	L 91.595, 298.291 
	L 91.595, 299.637 
	L 80.681, 299.637 
	L 80.681, 301.019 
	L 91.595, 301.019 
" />
<path d="M 91.595, 301.019 
	L 91.595, 305.094 
	L 79.122, 305.094 
" />
<path d="M 91.879, 305.093 
	L 91.878, 305.094 
	L 91.878, 296.023 
	L 93.579, 296.023 
	L 93.579, 298.291 
	L 104.138, 298.291 
	L 104.138, 299.637 
	L 93.579, 299.637 
	L 93.579, 303.747 
	L 104.138, 303.747 
	L 104.138, 305.094 
" />
<path d="M 104.138, 305.094 
	L 91.878, 305.094 
" />
<path d="M 104.139, 305.093 
	L 104.138, 305.094 
	L 104.138, 298.291 
	L 116.398, 298.291 
	L 116.398, 299.637 
	L 105.839, 299.637 
	L 105.839, 305.094 
	L 104.138, 305.094 
" />
<path d="M 127.737, 303.747 
	L 127.736, 303.747 
	L 127.736, 299.637 
	L 125.469, 299.637 
	L 120.933, 303.747 
	L 127.736, 303.747 
	L 117.142, 305.094 
	L 123.201, 299.637 
	L 117.142, 299.637 
	L 117.142, 298.291 
	L 129.437, 298.291 
" />
<path d="M 129.437, 298.291 
	L 129.437, 305.094 
	L 117.142, 305.094 
" />
<path d="M 128.694, 305.093 
	L 128.693, 305.094 
	L 128.693, 296.023 
	L 130.394, 296.023 
	L 130.394, 298.291 
	L 140.953, 298.291 
	L 140.953, 299.637 
	L 130.394, 299.637 
	L 130.394, 303.747 
	L 140.953, 303.747 
	L 140.953, 305.094 
" />
<path d="M 140.953, 305.094 
	L 128.693, 305.094 
" />
<path d="M 140.953, 305.093 
	L 140.953, 305.094 
	L 140.953, 298.291 
	L 142.654, 298.291 
	L 142.654, 305.094 
	L 140.953, 305.094 
	L 140.953, 297.369 
	L 140.953, 296.023 
	L 142.654, 296.023 
	L 142.654, 297.369 
	L 140.953, 297.369 
" />
<path d="M 140.953, 297.369 
" />
<path d="M 142.654, 305.093 
	L 142.654, 305.094 
	L 142.654, 298.291 
	L 144.354, 298.291 
	L 144.354, 303.747 
	L 146.622, 303.747 
	L 152.646, 298.291 
	L 154.913, 298.291 
	L 147.366, 305.094 
	L 142.654, 305.094 
" />
<path d="M 165.544, 301.018 
	L 165.543, 301.019 
	L 165.543, 299.637 
	L 156.189, 299.637 
	L 156.189, 301.019 
	L 165.543, 301.019 
	L 154.630, 305.094 
	L 154.630, 298.291 
	L 167.102, 298.291 
	L 167.102, 302.365 
	L 156.189, 302.365 
" />
<path d="M 156.189, 302.365 
	L 156.189, 303.747 
	L 167.102, 303.747 
	L 167.102, 305.094 
	L 154.630, 305.094 
" />
<path d="M 167.387, 305.093 
	L 167.386, 305.094 
	L 167.386, 296.023 
	L 169.087, 296.023 
	L 169.087, 305.094 
	L 167.386, 305.094 
" />
<path d="M 169.831, 307.361 
	L 169.831, 307.361 
	L 169.831, 305.979 
	L 180.425, 305.979 
	L 180.425, 305.094 
	L 177.378, 305.094 
	L 169.831, 298.291 
	L 172.098, 298.291 
	L 178.158, 303.747 
	L 180.425, 303.747 
	L 180.425, 298.291 
" />
<path d="M 180.425, 298.291 
	L 182.126, 298.291 
	L 182.126, 307.361 
	L 169.831, 307.361 
" />
<path d="M 18.001, 315.723 
	L 18.000, 315.724 
	L 18.000, 309.381 
	L 32.528, 309.381 
	L 35.575, 307.999 
	L 18.000, 307.999 
	L 18.000, 306.653 
	L 39.331, 306.653 
	L 33.307, 310.728 
	L 19.701, 310.728 
	L 19.701, 315.724 
	L 18.000, 315.724 
" />
<path d="M 18.000, 315.724 
" />
<path d="M 50.670, 314.376 
	L 50.669, 314.377 
	L 50.669, 310.267 
	L 41.032, 310.267 
	L 41.032, 314.377 
	L 50.669, 314.377 
	L 39.331, 315.724 
	L 39.331, 308.920 
	L 52.370, 308.920 
	L 52.370, 315.724 
	L 39.331, 315.724 
" />
<path d="M 52.087, 315.723 
	L 52.087, 315.724 
	L 52.087, 314.377 
	L 63.000, 314.377 
	L 63.000, 312.995 
	L 52.087, 312.995 
	L 52.087, 308.920 
	L 64.559, 308.920 
	L 64.559, 310.267 
	L 53.646, 310.267 
	L 53.646, 311.649 
	L 64.559, 311.649 
" />
<path d="M 64.559, 311.649 
	L 64.559, 315.724 
	L 52.087, 315.724 
" />
<path d="M 64.560, 315.723 
	L 64.559, 315.724 
	L 64.559, 314.377 
	L 75.472, 314.377 
	L 75.472, 312.995 
	L 64.559, 312.995 
	L 64.559, 308.920 
	L 77.032, 308.920 
	L 77.032, 310.267 
	L 66.118, 310.267 
	L 66.118, 311.649 
	L 77.032, 311.649 
" />
<path d="M 77.032, 311.649 
	L 77.032, 315.724 
	L 64.559, 315.724 
" />
<path d="M 77.316, 315.723 
	L 77.315, 315.724 
	L 77.315, 308.920 
	L 79.016, 308.920 
	L 79.016, 315.724 
	L 77.315, 315.724 
	L 77.315, 307.999 
	L 77.315, 306.653 
	L 79.016, 306.653 
	L 79.016, 307.999 
	L 77.315, 307.999 
" />
<path d="M 90.355, 314.376 
	L 90.354, 314.377 
	L 90.354, 310.267 
	L 80.717, 310.267 
	L 80.717, 314.377 
	L 90.354, 314.377 
	L 79.016, 315.724 
	L 79.016, 306.653 
	L 80.717, 306.653 
	L 80.717, 308.920 
	L 92.055, 308.920 
	L 92.055, 315.724 
" />
<path d="M 92.055, 315.724 
	L 79.016, 315.724 
" />
<path d="M 92.056, 315.723 
	L 92.055, 315.724 
	L 92.055, 306.653 
	L 93.756, 306.653 
	L 93.756, 315.724 
	L 92.055, 315.724 
" />
<path d="M 104.387, 311.648 
	L 104.386, 311.649 
	L 104.386, 310.267 
	L 95.032, 310.267 
	L 95.032, 311.649 
	L 104.386, 311.649 
	L 93.472, 315.724 
	L 93.472, 308.920 
	L 105.945, 308.920 
	L 105.945, 312.995 
	L 95.032, 312.995 
" />
<path d="M 95.032, 312.995 
	L 95.032, 314.377 
	L 105.945, 314.377 
	L 105.945, 315.724 
	L 93.472, 315.724 
" />
<path d="M 18.001, 333.439 
	L 18.000, 333.440 
	L 18.000, 332.094 
	L 38.409, 332.094 
	L 38.409, 328.444 
	L 18.000, 328.444 
	L 18.000, 324.369 
	L 40.110, 324.369 
	L 40.110, 325.716 
	L 19.701, 325.716 
	L 19.701, 327.098 
	L 40.110, 327.098 
" />
<path d="M 40.110, 327.098 
	L 40.110, 333.440 
	L 18.000, 333.440 
" />
<path d="M 40.111, 333.439 
	L 40.110, 333.440 
	L 40.110, 326.637 
	L 41.811, 326.637 
	L 41.811, 333.440 
	L 40.110, 333.440 
	L 40.110, 325.716 
	L 40.110, 324.369 
	L 41.811, 324.369 
	L 41.811, 325.716 
	L 40.110, 325.716 
" />
<path d="M 41.812, 333.439 
	L 41.811, 333.440 
	L 41.811, 326.637 
	L 54.850, 326.637 
	L 54.850, 333.440 
	L 53.150, 333.440 
	L 53.150, 327.983 
	L 43.512, 327.983 
	L 43.512, 333.440 
	L 41.811, 333.440 
" />
<path d="M 65.481, 329.365 
	L 65.480, 329.365 
	L 65.480, 327.983 
	L 56.126, 327.983 
	L 56.126, 329.365 
	L 65.480, 329.365 
	L 54.567, 333.440 
	L 54.567, 326.637 
	L 67.039, 326.637 
	L 67.039, 330.712 
	L 56.126, 330.712 
	L 56.126, 332.094 
" />
<path d="M 56.126, 332.094 
	L 67.039, 332.094 
	L 67.039, 333.440 
	L 54.567, 333.440 
" />
<path d="M 67.324, 333.439 
	L 67.323, 333.440 
	L 67.323, 324.369 
	L 88.654, 324.369 
	L 84.118, 328.302 
	L 83.374, 328.940 
	L 88.654, 333.440 
	L 86.386, 333.440 
	L 81.106, 328.940 
	L 84.898, 325.716 
	L 69.024, 325.716 
	L 69.024, 333.440 
" />
<path d="M 69.024, 333.440 
	L 67.323, 333.440 
" />
<path d="M 99.993, 332.093 
	L 99.992, 332.094 
	L 99.992, 327.983 
	L 97.724, 327.983 
	L 93.189, 332.094 
	L 99.992, 332.094 
	L 89.398, 333.440 
	L 95.457, 327.983 
	L 89.398, 327.983 
	L 89.398, 326.637 
	L 101.693, 326.637 
	L 101.693, 333.440 
" />
<path d="M 101.693, 333.440 
	L 89.398, 333.440 
" />
<path d="M 100.950, 333.439 
	L 100.949, 333.440 
	L 100.949, 326.637 
	L 102.650, 326.637 
	L 102.650, 332.094 
	L 104.917, 332.094 
	L 110.941, 326.637 
	L 113.209, 326.637 
	L 105.661, 333.440 
	L 100.949, 333.440 
" />
<path d="M 123.839, 329.365 
	L 123.839, 329.365 
	L 123.839, 327.983 
	L 114.484, 327.983 
	L 114.484, 329.365 
	L 123.839, 329.365 
	L 112.925, 333.440 
	L 112.925, 326.637 
	L 125.398, 326.637 
	L 125.398, 330.712 
	L 114.484, 330.712 
" />
<path d="M 114.484, 330.712 
	L 114.484, 332.094 
	L 125.398, 332.094 
	L 125.398, 333.440 
	L 112.925, 333.440 
" />
<path d="M 18.001, 351.156 
	L 18.000, 351.157 
	L 18.000, 344.814 
	L 32.528, 344.814 
	L 35.575, 343.432 
	L 18.000, 343.432 
	L 18.000, 342.086 
	L 39.331, 342.086 
	L 33.307, 346.161 
	L 19.701, 346.161 
	L 19.701, 351.157 
	L 18.000, 351.157 
" />
<path d="M 18.000, 351.157 
" />
<path d="M 50.670, 349.810 
	L 50.669, 349.810 
	L 50.669, 345.700 
	L 48.402, 345.700 
	L 43.866, 349.810 
	L 50.669, 349.810 
	L 40.075, 351.157 
	L 46.134, 345.700 
	L 40.075, 345.700 
	L 40.075, 344.354 
	L 52.370, 344.354 
	L 52.370, 351.157 
" />
<path d="M 52.370, 351.157 
	L 40.075, 351.157 
" />
<path d="M 51.627, 351.156 
	L 51.626, 351.157 
	L 51.626, 342.086 
	L 53.327, 342.086 
	L 53.327, 351.157 
	L 51.626, 351.157 
" />
<path d="M 64.666, 349.810 
	L 64.665, 349.810 
	L 64.665, 345.700 
	L 55.028, 345.700 
	L 55.028, 349.810 
	L 64.665, 349.810 
	L 53.327, 351.157 
	L 53.327, 344.354 
	L 66.366, 344.354 
	L 66.366, 351.157 
	L 53.327, 351.157 
" />
<path d="M 66.367, 351.156 
	L 66.366, 351.157 
	L 66.366, 344.354 
	L 79.406, 344.354 
	L 79.406, 351.157 
	L 77.705, 351.157 
	L 77.705, 345.700 
	L 68.067, 345.700 
	L 68.067, 351.157 
	L 66.366, 351.157 
" />
<path d="M 90.745, 349.810 
	L 90.744, 349.810 
	L 90.744, 345.700 
	L 81.106, 345.700 
	L 81.106, 349.810 
	L 90.744, 349.810 
	L 79.406, 351.157 
	L 79.406, 344.354 
	L 92.445, 344.354 
	L 92.445, 351.157 
	L 79.406, 351.157 
" />
<path d="M 103.784, 349.810 
	L 103.783, 349.810 
	L 103.783, 345.700 
	L 94.146, 345.700 
	L 94.146, 349.810 
	L 103.783, 349.810 
	L 92.445, 353.424 
	L 92.445, 344.354 
	L 105.484, 344.354 
	L 105.484, 351.157 
	L 94.146, 351.157 
" />
<path d="M 94.146, 351.157 
	L 94.146, 353.424 
	L 92.445, 353.424 
" />
<path d="M 105.202, 351.156 
	L 105.201, 351.157 
	L 105.201, 349.810 
	L 116.114, 349.810 
	L 116.114, 348.428 
	L 105.201, 348.428 
	L 105.201, 344.354 
	L 117.673, 344.354 
	L 117.673, 345.700 
	L 106.760, 345.700 
	L 106.760, 347.082 
" />
<path d="M 106.760, 347.082 
	L 117.673, 347.082 
	L 117.673, 351.157 
	L 105.201, 351.157 
" />
<path d="M 117.957, 351.156 
	L 117.957, 351.157 
	L 117.957, 344.354 
	L 119.657, 344.354 
	L 119.657, 351.157 
	L 117.957, 351.157 
	L 117.957, 343.432 
	L 117.957, 342.086 
	L 119.657, 342.086 
	L 119.657, 343.432 
	L 117.957, 343.432 
" />
<path d="M 117.957, 343.432 
" />
<path d="M 130.997, 349.810 
	L 130.996, 349.810 
	L 130.996, 345.700 
	L 128.728, 345.700 
	L 124.193, 349.810 
	L 130.996, 349.810 
	L 120.402, 351.157 
	L 126.461, 345.700 
	L 120.402, 345.700 
	L 120.402, 344.354 
	L 132.697, 344.354 
" />
<path d="M 132.697, 344.354 
	L 132.697, 351.157 
	L 120.402, 351.157 
" />
<path d="M 18.001, 368.873 
	L 18.000, 368.873 
	L 18.000, 359.342 
	L 29.055, 364.090 
	L 40.110, 359.342 
	L 40.110, 368.873 
	L 38.409, 368.873 
	L 38.409, 361.361 
	L 29.055, 365.472 
	L 19.701, 361.361 
	L 19.701, 368.873 
	L 18.000, 368.873 
" />
<path d="M 18.000, 368.873 
" />
<path d="M 51.450, 367.526 
	L 51.449, 367.527 
	L 51.449, 363.417 
	L 41.811, 363.417 
	L 41.811, 367.527 
	L 51.449, 367.527 
	L 40.110, 368.873 
	L 40.110, 362.070 
	L 53.150, 362.070 
	L 53.150, 368.873 
	L 40.110, 368.873 
" />
<path d="M 53.150, 368.873 
	L 53.150, 368.873 
	L 53.150, 362.070 
	L 54.850, 362.070 
	L 54.850, 367.527 
	L 64.488, 367.527 
	L 64.488, 362.070 
	L 66.189, 362.070 
	L 66.189, 368.873 
	L 53.150, 368.873 
" />
<path d="M 66.190, 368.873 
	L 66.189, 368.873 
	L 66.189, 362.070 
	L 79.228, 362.070 
	L 79.228, 368.873 
	L 77.528, 368.873 
	L 77.528, 363.417 
	L 67.890, 363.417 
	L 67.890, 368.873 
	L 66.189, 368.873 
" />
<path d="M 79.229, 368.873 
	L 79.228, 368.873 
	L 79.228, 359.802 
	L 80.929, 359.802 
	L 80.929, 362.070 
	L 91.488, 362.070 
	L 91.488, 363.417 
	L 80.929, 363.417 
	L 80.929, 367.527 
	L 91.488, 367.527 
	L 91.488, 368.873 
	L 79.228, 368.873 
" />
<path d="M 79.228, 368.873 
" />
<path d="M 102.827, 367.526 
	L 102.827, 367.527 
	L 102.827, 363.417 
	L 100.559, 363.417 
	L 96.024, 367.527 
	L 102.827, 367.527 
	L 92.232, 368.873 
	L 98.291, 363.417 
	L 92.232, 363.417 
	L 92.232, 362.070 
	L 104.528, 362.070 
" />
<path d="M 104.528, 362.070 
	L 104.528, 368.873 
	L 92.232, 368.873 
" />
<path d="M 103.784, 368.873 
	L 103.783, 368.873 
	L 103.783, 362.070 
	L 105.484, 362.070 
	L 105.484, 368.873 
	L 103.783, 368.873 
	L 103.783, 361.149 
	L 103.783, 359.802 
	L 105.484, 359.802 
	L 105.484, 361.149 
	L 103.783, 361.149 
" />
<path d="M 103.783, 361.149 
" />
<path d="M 105.485, 368.873 
	L 105.484, 368.873 
	L 105.484, 362.070 
	L 118.524, 362.070 
	L 118.524, 368.873 
	L 116.823, 368.873 
	L 116.823, 363.417 
	L 107.185, 363.417 
	L 107.185, 368.873 
	L 105.484, 368.873 
" />
<path d="M 136.843, 367.526 
	L 136.843, 367.527 
	L 129.295, 361.149 
	L 120.224, 361.149 
	L 120.224, 367.527 
	L 136.843, 367.527 
	L 118.524, 368.873 
	L 118.524, 359.802 
	L 130.039, 359.802 
	L 140.634, 368.873 
	L 118.524, 368.873 
" />
<path d="M 118.524, 368.873 
" />
<path d="M 140.635, 368.873 
	L 140.634, 368.873 
	L 140.634, 362.070 
	L 152.894, 362.070 
	L 152.894, 363.417 
	L 142.335, 363.417 
	L 142.335, 368.873 
	L 140.634, 368.873 
" />
<path d="M 164.233, 367.526 
	L 164.232, 367.527 
	L 164.232, 363.417 
	L 154.595, 363.417 
	L 154.595, 367.527 
	L 164.232, 367.527 
	L 152.894, 368.873 
	L 152.894, 362.070 
	L 165.933, 362.070 
	L 165.933, 368.873 
	L 152.894, 368.873 
" />
<path d="M 152.894, 368.873 
" />
<path d="M 165.934, 368.873 
	L 165.933, 368.873 
	L 165.933, 362.070 
	L 178.972, 362.070 
	L 178.972, 368.873 
	L 177.272, 368.873 
	L 177.272, 363.417 
	L 167.634, 363.417 
	L 167.634, 368.873 
	L 165.933, 368.873 
" />
<path d="M 189.603, 364.798 
	L 189.602, 364.798 
	L 189.602, 363.417 
	L 180.248, 363.417 
	L 180.248, 364.798 
	L 189.602, 364.798 
	L 178.689, 368.873 
	L 178.689, 362.070 
	L 191.161, 362.070 
	L 191.161, 366.145 
	L 180.248, 366.145 
" />
<path d="M 180.248, 366.145 
	L 180.248, 367.527 
	L 191.161, 367.527 
	L 191.161, 368.873 
	L 178.689, 368.873 
" />
<path d="M 13.961, 211.621 
	L 13.961, 211.621 
	L 13.961, 213.287 
	L 13.961, 225.476 
	L 13.961, 227.141 
	L 12.295, 227.141 
	L 10.630, 227.141 
	L 10.630, 225.369 
	L 10.630, 213.287 
	L 10.630, 211.621 
	L 13.961, 211.621 
	L 21.969, 211.621 
" />
<path d="M 21.969, 211.621 
	L 22.535, 211.373 
	L 23.031, 211.373 
	L 23.492, 211.373 
	L 23.917, 211.621 
	L 24.413, 211.976 
	L 24.413, 212.684 
	L 24.413, 213.180 
	L 24.201, 213.853 
	L 19.240, 219.346 
	L 24.201, 224.909 
	L 24.378, 225.298 
" />
<path d="M 24.378, 225.298 
	L 24.378, 225.617 
	L 24.378, 226.326 
	L 23.634, 226.857 
	L 23.280, 227.141 
	L 22.783, 227.141 
	L 21.791, 227.141 
	L 20.303, 226.042 
	L 15.874, 221.046 
	L 14.244, 219.381 
	L 15.874, 217.716 
	L 21.969, 211.621 
" />
<path d="M 21.969, 211.621 
" />
<path d="M 31.855, 223.809 
	L 31.854, 223.810 
	L 36.071, 223.810 
	L 36.035, 217.397 
	L 26.362, 226.468 
	L 25.724, 226.999 
	L 25.157, 226.999 
	L 24.520, 226.999 
	L 23.988, 226.291 
	L 23.528, 225.724 
	L 23.528, 225.157 
	L 23.528, 224.448 
" />
<path d="M 23.528, 224.448 
	L 24.272, 223.846 
	L 36.283, 212.401 
	L 37.169, 211.515 
	L 37.878, 211.515 
	L 38.374, 211.515 
	L 38.551, 211.550 
	L 39.366, 211.834 
	L 39.366, 213.570 
	L 39.366, 224.802 
	L 39.366, 227.212 
	L 36.602, 227.141 
" />
<path d="M 36.602, 227.141 
	L 31.854, 227.141 
	L 29.941, 227.212 
	L 29.941, 225.493 
	L 29.941, 223.775 
	L 31.854, 223.810 
" />
<path d="M 54.674, 223.880 
	L 54.673, 223.881 
	L 54.673, 224.909 
	L 53.575, 226.025 
	L 52.476, 227.141 
	L 51.378, 227.141 
	L 43.618, 227.141 
	L 42.520, 227.141 
	L 41.404, 226.025 
	L 40.287, 224.909 
	L 40.287, 223.810 
	L 40.323, 215.023 
" />
<path d="M 40.323, 215.023 
	L 40.287, 213.853 
	L 41.404, 212.737 
	L 42.520, 211.621 
	L 43.618, 211.621 
	L 51.378, 211.621 
	L 52.476, 211.621 
	L 53.575, 212.737 
	L 54.673, 213.853 
	L 54.673, 214.952 
	L 54.673, 223.881 
	L 51.378, 222.145 
" />
<path d="M 51.378, 222.145 
	L 51.378, 216.617 
	L 51.378, 214.952 
	L 49.713, 214.952 
	L 45.283, 214.952 
	L 43.618, 214.952 
	L 43.618, 216.653 
	L 43.618, 222.145 
	L 43.583, 223.846 
	L 45.283, 223.810 
	L 49.713, 223.810 
	L 51.378, 223.810 
" />
<path d="M 51.378, 223.810 
	L 51.378, 222.145 
" />
<path d="M 66.509, 211.621 
	L 66.508, 211.621 
	L 68.173, 211.621 
	L 68.173, 213.216 
	L 68.173, 214.881 
	L 66.508, 214.952 
	L 55.417, 214.952 
	L 53.752, 214.881 
	L 53.752, 213.287 
	L 53.752, 211.586 
	L 55.417, 211.621 
	L 66.508, 211.621 
" />
<path d="M 66.508, 211.621 
	L 59.280, 218.283 
	L 59.244, 216.086 
	L 61.087, 216.068 
	L 62.929, 216.050 
	L 62.929, 218.283 
	L 62.929, 224.909 
	L 62.823, 227.141 
	L 61.122, 227.141 
	L 61.087, 227.141 
	L 59.244, 227.105 
	L 59.280, 224.909 
" />
<path d="M 59.280, 224.909 
	L 59.280, 218.283 
" />
<path d="M 70.725, 211.621 
	L 70.724, 211.621 
	L 80.681, 211.621 
	L 82.346, 211.621 
	L 82.346, 213.287 
	L 82.346, 214.952 
	L 80.681, 214.952 
	L 73.488, 214.952 
	L 72.390, 214.952 
	L 72.390, 216.050 
	L 72.390, 222.712 
	L 72.390, 223.810 
" />
<path d="M 72.390, 223.810 
	L 73.488, 223.810 
	L 80.681, 223.810 
	L 82.346, 223.810 
	L 82.346, 225.476 
	L 82.346, 227.141 
	L 80.681, 227.141 
	L 70.724, 227.141 
	L 69.059, 227.141 
	L 69.059, 225.476 
	L 69.059, 213.393 
	L 69.059, 211.621 
" />
<path d="M 69.059, 211.621 
	L 70.724, 211.621 
	L 75.720, 217.716 
	L 78.484, 217.716 
	L 80.681, 217.716 
	L 80.681, 219.381 
	L 80.681, 221.046 
	L 78.484, 221.046 
	L 75.720, 221.046 
	L 73.488, 221.046 
	L 73.488, 219.381 
	L 73.488, 217.716 
" />
<path d="M 73.488, 217.716 
	L 75.720, 217.716 
" />
<path d="M 95.564, 227.140 
	L 95.563, 227.141 
	L 87.343, 227.141 
	L 85.287, 227.141 
	L 83.799, 225.688 
	L 82.346, 224.271 
	L 82.346, 222.251 
	L 82.346, 216.369 
	L 82.346, 214.350 
	L 83.799, 212.897 
	L 85.110, 211.621 
	L 87.059, 211.621 
" />
<path d="M 87.059, 211.621 
	L 87.272, 211.621 
	L 87.520, 211.621 
	L 94.394, 211.621 
	L 96.130, 211.621 
	L 96.130, 213.357 
	L 96.130, 215.094 
	L 94.394, 215.094 
	L 88.016, 215.094 
	L 85.783, 215.094 
	L 85.783, 217.220 
	L 85.783, 221.791 
" />
<path d="M 85.783, 221.791 
	L 85.783, 223.704 
	L 88.157, 223.704 
	L 95.563, 223.704 
	L 97.299, 223.704 
	L 97.299, 225.405 
	L 97.264, 227.141 
	L 95.563, 227.141 
" />
<path d="M 107.257, 221.046 
	L 107.256, 221.046 
	L 100.630, 221.046 
	L 98.965, 221.046 
	L 98.965, 219.381 
	L 98.965, 217.716 
	L 100.630, 217.716 
	L 107.256, 217.716 
	L 108.921, 217.716 
	L 108.921, 219.381 
	L 108.921, 221.046 
" />
<path d="M 108.921, 221.046 
	L 107.256, 221.046 
" />
<path d="M 114.698, 223.809 
	L 114.697, 223.810 
	L 118.913, 223.810 
	L 118.878, 217.397 
	L 109.205, 226.468 
	L 108.567, 226.999 
	L 108.000, 226.999 
	L 107.362, 226.999 
	L 106.831, 226.291 
	L 106.370, 225.724 
	L 106.370, 225.157 
" />
<path d="M 106.370, 225.157 
	L 106.370, 224.448 
	L 107.114, 223.846 
	L 119.126, 212.401 
	L 120.012, 211.515 
	L 120.720, 211.515 
	L 121.217, 211.515 
	L 121.394, 211.550 
	L 122.209, 211.834 
	L 122.209, 213.570 
	L 122.209, 224.802 
" />
<path d="M 122.209, 224.802 
	L 122.209, 227.212 
	L 119.445, 227.141 
	L 114.697, 227.141 
	L 112.783, 227.212 
	L 112.783, 225.493 
	L 112.783, 223.775 
	L 114.697, 223.810 
" />
<path d="M 123.095, 211.621 
	L 123.095, 211.621 
	L 124.760, 211.621 
	L 126.425, 211.621 
	L 126.425, 213.853 
	L 126.425, 222.712 
	L 126.425, 223.810 
	L 127.524, 223.810 
	L 133.122, 223.810 
	L 135.390, 223.810 
	L 135.425, 225.440 
" />
<path d="M 135.425, 225.440 
	L 135.425, 227.070 
	L 133.122, 227.141 
	L 125.681, 227.141 
	L 123.095, 227.141 
	L 123.095, 224.413 
	L 123.095, 213.818 
	L 123.095, 211.621 
" />
<path d="M 149.493, 222.534 
	L 149.492, 222.535 
	L 149.492, 224.909 
	L 148.553, 226.025 
	L 147.614, 227.141 
	L 144.957, 227.105 
	L 137.161, 227.141 
	L 135.425, 227.141 
	L 135.425, 225.405 
	L 135.425, 218.283 
	L 135.461, 216.050 
" />
<path d="M 135.461, 216.050 
	L 137.108, 216.050 
	L 138.756, 216.050 
	L 138.720, 218.283 
	L 138.720, 223.916 
	L 144.283, 223.916 
	L 146.020, 223.916 
	L 146.020, 222.464 
	L 146.020, 221.011 
	L 144.248, 221.011 
	L 142.087, 221.046 
" />
<path d="M 142.087, 221.046 
	L 139.783, 221.046 
	L 139.819, 219.381 
	L 139.854, 217.716 
	L 142.087, 217.716 
	L 144.283, 217.716 
	L 146.020, 217.751 
	L 146.037, 216.352 
	L 146.055, 214.952 
	L 144.390, 214.952 
	L 137.091, 214.952 
" />
<path d="M 137.091, 214.952 
	L 135.425, 214.952 
	L 135.425, 213.357 
	L 135.425, 211.621 
	L 137.161, 211.621 
	L 144.850, 211.621 
	L 147.047, 211.621 
	L 148.163, 212.737 
	L 149.280, 213.853 
	L 149.386, 216.050 
	L 149.386, 218.389 
" />
<path d="M 149.386, 218.389 
	L 147.969, 219.239 
	L 149.492, 220.231 
	L 149.492, 222.535 
" />
<path d="M 149.528, 211.656 
	L 149.528, 211.657 
	L 151.158, 211.657 
	L 151.193, 211.657 
	L 152.858, 211.657 
	L 152.787, 213.889 
	L 152.787, 222.180 
	L 152.787, 223.810 
	L 154.453, 223.846 
	L 158.846, 223.810 
	L 160.583, 223.846 
" />
<path d="M 160.583, 223.846 
	L 160.583, 222.109 
	L 160.583, 213.853 
	L 160.618, 211.621 
	L 162.283, 211.621 
	L 163.913, 211.621 
	L 163.913, 213.747 
	L 163.913, 223.810 
	L 163.913, 224.873 
	L 163.063, 225.989 
	L 162.213, 227.105 
" />
<path d="M 162.213, 227.105 
	L 161.079, 227.105 
	L 152.256, 227.105 
	L 151.122, 227.105 
	L 150.325, 226.007 
	L 149.528, 224.909 
	L 149.528, 223.810 
	L 149.492, 213.853 
	L 149.528, 211.657 
" />
<path d="M 175.359, 212.365 
	L 175.358, 212.365 
	L 176.244, 211.621 
	L 176.988, 211.621 
	L 177.272, 211.621 
	L 177.520, 211.728 
	L 178.476, 212.082 
	L 178.476, 213.712 
	L 178.476, 225.228 
	L 178.441, 227.212 
	L 176.811, 227.212 
" />
<path d="M 176.811, 227.212 
	L 176.776, 227.212 
	L 175.146, 227.212 
	L 175.110, 225.192 
	L 175.110, 218.353 
	L 175.075, 217.361 
	L 174.508, 217.893 
	L 166.039, 226.397 
	L 165.154, 227.212 
	L 164.409, 227.212 
	L 163.878, 227.212 
" />
<path d="M 163.878, 227.212 
	L 163.382, 226.716 
	L 162.886, 226.255 
	L 162.886, 225.688 
	L 162.886, 224.909 
	L 163.736, 224.023 
	L 175.358, 212.365 
	L 188.717, 212.046 
	L 188.717, 213.712 
	L 188.717, 224.979 
	L 188.717, 227.212 
" />
<path d="M 188.717, 227.212 
	L 187.051, 227.212 
	L 185.386, 227.212 
	L 185.386, 224.979 
	L 185.386, 218.353 
	L 185.386, 217.645 
	L 184.748, 218.176 
	L 182.587, 220.373 
	L 180.957, 221.507 
	L 180.071, 220.302 
	L 179.185, 219.098 
" />
<path d="M 179.185, 219.098 
	L 180.461, 217.680 
	L 185.669, 212.401 
	L 186.413, 211.621 
	L 187.193, 211.621 
	L 187.441, 211.621 
	L 187.689, 211.692 
	L 188.717, 212.046 
" />
<path d="M 204.166, 223.880 
	L 204.165, 223.881 
	L 204.165, 224.909 
	L 203.067, 226.025 
	L 201.969, 227.141 
	L 200.870, 227.141 
	L 193.110, 227.141 
	L 192.012, 227.141 
	L 190.896, 226.025 
	L 189.780, 224.909 
	L 189.780, 223.810 
" />
<path d="M 189.780, 223.810 
	L 189.815, 215.023 
	L 189.780, 213.853 
	L 190.896, 212.737 
	L 192.012, 211.621 
	L 193.110, 211.621 
	L 200.870, 211.621 
	L 201.969, 211.621 
	L 203.067, 212.737 
	L 204.165, 213.853 
	L 204.165, 214.952 
" />
<path d="M 204.165, 214.952 
	L 204.165, 223.881 
	L 200.870, 222.145 
	L 200.870, 216.617 
	L 200.870, 214.952 
	L 199.205, 214.952 
	L 194.776, 214.952 
	L 193.110, 214.952 
	L 193.110, 216.653 
	L 193.110, 222.145 
	L 193.075, 223.846 
" />
<path d="M 193.075, 223.846 
	L 194.776, 223.810 
	L 199.205, 223.810 
	L 200.870, 223.810 
	L 200.870, 222.145 
" />
<path d="M 218.552, 223.880 
	L 218.551, 223.881 
	L 218.551, 224.909 
	L 217.453, 226.025 
	L 216.354, 227.141 
	L 215.256, 227.141 
	L 207.496, 227.141 
	L 206.398, 227.141 
	L 205.282, 226.025 
	L 204.165, 224.909 
	L 204.165, 223.810 
" />
<path d="M 204.165, 223.810 
	L 204.201, 215.023 
	L 204.165, 213.853 
	L 205.282, 212.737 
	L 206.398, 211.621 
	L 207.496, 211.621 
	L 215.256, 211.621 
	L 216.354, 211.621 
	L 217.453, 212.737 
	L 218.551, 213.853 
	L 218.551, 214.952 
" />
<path d="M 218.551, 214.952 
	L 218.551, 223.881 
	L 215.256, 222.145 
	L 215.256, 216.617 
	L 215.256, 214.952 
	L 213.591, 214.952 
	L 209.161, 214.952 
	L 207.496, 214.952 
	L 207.496, 216.653 
	L 207.496, 222.145 
	L 207.461, 223.846 
" />
<path d="M 207.461, 223.846 
	L 209.161, 223.810 
	L 213.591, 223.810 
	L 215.256, 223.810 
	L 215.256, 222.145 
" />
<path d="M 225.780, 224.908 
	L 225.780, 224.909 
	L 225.780, 227.141 
	L 224.150, 227.141 
	L 222.484, 227.141 
	L 222.413, 224.909 
	L 222.413, 213.853 
	L 222.484, 211.621 
	L 224.150, 211.621 
	L 225.780, 211.621 
	L 225.780, 213.853 
" />
<path d="M 225.780, 213.853 
	L 225.780, 224.909 
" />
<path d="M 644.882, 655.172 
	L 644.882, 658.361 
	L 644.173, 659.424 
	L 642.756, 659.424 
	L 642.047, 658.361 
	L 642.047, 656.235 
	L 644.882, 656.235 
" />
<path d="M 640.630, 651.983 
	L 640.630, 650.920 
	L 644.882, 650.920 
" />
<path d="M 644.882, 651.983 
	L 644.882, 649.858 
" />
<path d="M 644.882, 646.669 
	L 644.882, 643.480 
	L 644.173, 642.417 
	L 642.756, 642.417 
	L 642.047, 643.480 
	L 642.047, 645.606 
" />
<path d="M 640.630, 645.606 
	L 644.882, 645.606 
" />
<path d="M 642.047, 640.291 
	L 644.173, 640.291 
	L 644.882, 639.228 
	L 644.882, 637.102 
	L 642.047, 637.102 
" />
<path d="M 644.882, 633.913 
	L 642.047, 633.913 
" />
<path d="M 642.756, 633.913 
	L 642.047, 632.850 
	L 642.756, 631.787 
	L 644.882, 631.787 
" />
<path d="M 642.756, 631.787 
	L 642.047, 630.724 
	L 642.756, 629.661 
	L 644.882, 629.661 
" />
<path d="M 644.173, 627.535 
	L 644.882, 626.472 
	L 644.882, 624.346 
	L 644.173, 623.283 
	L 641.339, 623.283 
	L 640.630, 624.346 
	L 640.630, 626.472 
	L 641.339, 627.535 
	L 644.173, 627.535 
" />
<path d="M 644.173, 621.157 
	L 644.882, 620.094 
	L 644.882, 617.968 
	L 644.173, 616.905 
	L 641.339, 616.905 
	L 640.630, 617.968 
	L 640.630, 620.094 
	L 641.339, 621.157 
	L 644.173, 621.157 
" />
<path d="M 644.882, 613.716 
	L 644.882, 611.590 
" />
<path d="M 644.882, 612.653 
	L 640.630, 612.653 
	L 641.339, 613.716 
" />
<path d="M 644.173, 604.149 
	L 644.882, 605.212 
	L 644.882, 606.275 
	L 644.173, 607.338 
	L 642.756, 607.338 
	L 642.047, 606.275 
	L 642.047, 605.212 
	L 642.756, 604.149 
" />
<path d="M 644.882, 600.960 
	L 644.173, 602.023 
	L 642.756, 602.023 
	L 642.047, 600.960 
	L 642.047, 599.897 
	L 642.756, 598.834 
	L 644.173, 598.834 
	L 644.882, 599.897 
	L 644.882, 600.960 
" />
<path d="M 642.047, 595.645 
	L 643.465, 595.645 
	L 644.882, 593.519 
	L 643.465, 591.393 
	L 642.047, 591.393 
" />
<path d="M 643.465, 589.267 
	L 643.465, 586.078 
	L 642.756, 585.015 
	L 642.047, 586.078 
	L 642.047, 588.204 
	L 642.756, 589.267 
	L 644.173, 589.267 
	L 644.882, 588.204 
	L 644.882, 585.015 
" />
<path d="M 642.047, 582.889 
	L 644.882, 582.889 
" />
<path d="M 643.465, 582.889 
	L 642.047, 580.763 
	L 642.047, 579.700 
" />
<path d="M 640.630, 569.070 
	L 644.882, 569.070 
	L 644.882, 566.944 
" />
<path d="M 642.047, 570.133 
	L 642.047, 566.944 
" />
<path d="M 643.465, 563.755 
	L 643.465, 560.566 
	L 642.756, 559.503 
	L 642.047, 560.566 
	L 642.047, 562.692 
	L 642.756, 563.755 
	L 644.173, 563.755 
	L 644.882, 562.692 
	L 644.882, 559.503 
" />
<path d="M 642.047, 554.188 
	L 642.047, 556.314 
	L 642.756, 557.377 
	L 643.465, 556.314 
	L 643.465, 555.251 
	L 644.173, 554.188 
	L 644.882, 555.251 
	L 644.882, 557.377 
" />
<path d="M 640.630, 549.936 
	L 644.882, 549.936 
	L 644.882, 547.810 
" />
<path d="M 642.047, 550.999 
	L 642.047, 547.810 
" />
<path d="M 641.339, 519.109 
	L 640.630, 518.046 
	L 640.630, 515.920 
	L 641.339, 514.857 
	L 642.047, 514.857 
	L 644.173, 519.109 
	L 644.882, 519.109 
	L 644.882, 514.857 
" />
<path d="M 644.173, 512.731 
	L 644.882, 511.669 
	L 644.882, 509.543 
	L 644.173, 508.480 
	L 641.339, 508.480 
	L 640.630, 509.543 
	L 640.630, 511.669 
	L 641.339, 512.731 
	L 644.173, 512.731 
" />
<path d="M 644.882, 505.291 
	L 644.882, 503.165 
" />
<path d="M 644.882, 504.228 
	L 640.630, 504.228 
	L 641.339, 505.291 
" />
<path d="M 644.882, 498.913 
	L 644.882, 497.850 
	L 643.465, 495.724 
	L 641.339, 495.724 
	L 640.630, 496.787 
	L 640.630, 498.913 
	L 641.339, 499.976 
	L 642.047, 499.976 
	L 642.756, 498.913 
	L 642.756, 495.724 
" />
<path d="M 642.756, 493.598 
	L 642.756, 489.346 
" />
<path d="M 644.882, 486.157 
	L 644.882, 484.031 
" />
<path d="M 644.882, 485.094 
	L 640.630, 485.094 
	L 641.339, 486.157 
" />
<path d="M 644.882, 479.779 
	L 644.882, 477.653 
" />
<path d="M 644.882, 478.716 
	L 640.630, 478.716 
	L 641.339, 479.779 
" />
<path d="M 642.756, 474.464 
	L 642.756, 470.212 
" />
<path d="M 641.339, 468.086 
	L 640.630, 467.023 
	L 640.630, 464.897 
	L 641.339, 463.834 
	L 642.047, 463.834 
	L 644.173, 468.086 
	L 644.882, 468.086 
	L 644.882, 463.834 
" />
<path d="M 640.630, 457.456 
	L 640.630, 461.708 
	L 642.047, 461.708 
	L 642.047, 458.519 
	L 642.756, 457.456 
	L 644.173, 457.456 
	L 644.882, 458.519 
	L 644.882, 460.645 
	L 644.173, 461.708 
" />
<path d="M 644.882, 447.889 
	L 644.882, 445.763 
" />
<path d="M 644.882, 446.826 
	L 640.630, 446.826 
	L 641.339, 447.889 
" />
<path d="M 640.630, 439.385 
	L 642.756, 442.574 
	L 643.465, 442.574 
	L 643.465, 438.322 
" />
<path d="M 642.756, 439.385 
	L 644.882, 439.385 
" />
<path d="M 642.756, 435.133 
	L 642.047, 435.133 
	L 642.047, 434.070 
	L 642.756, 434.070 
	L 642.756, 435.133 
" />
<path d="M 644.173, 435.133 
	L 644.173, 434.070 
	L 644.882, 434.070 
	L 644.882, 435.133 
	L 644.173, 435.133 
" />
<path d="M 644.173, 429.818 
	L 644.882, 428.755 
	L 644.882, 426.629 
	L 644.173, 425.566 
	L 643.465, 425.566 
	L 642.756, 426.629 
	L 642.756, 427.692 
	L 640.630, 425.566 
	L 640.630, 429.818 
" />
<path d="M 644.882, 422.377 
	L 644.882, 420.251 
" />
<path d="M 644.882, 421.314 
	L 640.630, 421.314 
	L 641.339, 422.377 
" />
</g>
</svg>
