<?xml version="1.0" encoding="UTF-8" standalone="no" ?>
<svg width="100%" height="100%" viewBox="0 0 644.882 646.299" xmlns="http://www.w3.org/2000/svg"><g>
</g><g style="stroke:rgb(0,0,0); fill:none; stroke-width:1.000mm" >
</g><g style="stroke:rgb(0,0,0); fill:none; stroke-width:0.100mm" >
<path d="M 0.001, 646.299 
	L 0.000, 646.299 
	L 0.000, 8.504 
	L 637.795, 8.504 
	L 637.795, 646.299 
	L 0.000, 646.299 
" />
<path d="M 0.001, 433.700 
	L 0.000, 433.701 
	L 141.732, 431.927 
	L 283.465, 431.748 
	L 425.197, 433.325 
	L 566.929, 436.384 
" />
<path d="M 0.001, 444.330 
	L 0.000, 444.331 
	L 70.866, 442.491 
	L 141.732, 442.305 
	L 212.598, 443.941 
	L 283.465, 447.112 
	L 354.331, 450.502 
	L 425.197, 452.526 
	L 496.063, 452.948 
	L 566.929, 453.071 
" />
<path d="M 0.001, 454.429 
	L 0.000, 454.429 
	L 47.197, 452.275 
	L 94.394, 452.057 
	L 141.591, 453.972 
	L 188.787, 457.688 
	L 235.984, 461.658 
	L 283.181, 464.029 
	L 330.378, 464.523 
	L 377.575, 464.667 
	L 424.772, 465.068 
" />
<path d="M 424.772, 465.068 
	L 471.969, 461.635 
	L 519.165, 459.597 
	L 566.362, 461.549 
	L 613.559, 458.318 
" />
<path d="M 0.001, 464.022 
	L 0.000, 464.023 
	L 35.433, 462.087 
	L 70.866, 461.891 
	L 106.299, 463.612 
	L 141.732, 466.951 
	L 177.165, 470.518 
	L 212.598, 472.649 
	L 248.032, 473.093 
	L 283.465, 473.222 
	L 318.898, 473.583 
" />
<path d="M 318.898, 473.583 
	L 354.331, 470.497 
	L 389.764, 468.667 
	L 425.197, 470.421 
	L 460.630, 467.517 
	L 496.063, 467.060 
	L 531.496, 466.602 
	L 566.929, 467.060 
	L 602.362, 467.281 
" />
<path d="M 0.001, 473.136 
	L 0.000, 473.136 
	L 28.346, 471.860 
	L 56.693, 471.731 
	L 85.039, 472.866 
	L 113.386, 475.067 
	L 141.732, 477.420 
	L 170.079, 478.824 
	L 198.425, 479.117 
	L 226.772, 479.202 
	L 255.118, 479.440 
" />
<path d="M 255.118, 479.440 
	L 283.465, 477.406 
	L 311.811, 476.199 
	L 340.158, 477.355 
	L 368.504, 475.440 
	L 396.850, 475.139 
	L 425.197, 474.837 
	L 453.543, 475.139 
	L 481.890, 475.284 
	L 510.236, 476.302 
	L 538.583, 474.712 
" />
<path d="M 538.583, 474.712 
	L 566.929, 473.136 
	L 595.276, 470.721 
	L 623.622, 468.753 
" />
<path d="M 0.001, 481.794 
	L 0.000, 481.795 
	L 23.598, 480.478 
	L 47.197, 480.345 
	L 70.795, 481.516 
	L 94.394, 483.786 
	L 117.992, 486.212 
	L 141.591, 487.661 
	L 165.189, 487.962 
	L 188.787, 488.050 
	L 212.386, 488.296 
	L 235.984, 486.198 
" />
<path d="M 235.984, 486.198 
	L 259.583, 484.953 
	L 283.181, 486.145 
	L 306.780, 484.171 
	L 330.378, 483.860 
	L 353.976, 483.549 
	L 377.575, 483.860 
	L 401.173, 484.010 
	L 424.772, 485.060 
	L 448.370, 483.419 
	L 471.969, 481.795 
" />
<path d="M 471.969, 481.795 
	L 495.567, 479.304 
	L 519.165, 477.273 
	L 542.764, 476.839 
	L 566.362, 476.578 
	L 589.961, 476.015 
	L 613.559, 475.267 
	L 637.158, 477.130 
" />
<path d="M 0.001, 490.019 
	L 0.000, 490.020 
	L 20.197, 488.368 
	L 40.394, 488.200 
	L 60.591, 489.670 
	L 80.787, 492.519 
	L 100.984, 495.564 
	L 121.181, 497.383 
	L 141.378, 497.761 
	L 161.575, 497.872 
	L 181.772, 498.180 
	L 201.969, 495.546 
" />
<path d="M 201.969, 495.546 
	L 222.165, 493.983 
	L 242.362, 495.481 
	L 262.559, 493.002 
	L 282.756, 492.612 
	L 302.953, 492.221 
	L 323.150, 492.612 
	L 343.347, 492.800 
	L 363.543, 494.118 
	L 383.740, 492.058 
	L 403.937, 490.020 
" />
<path d="M 403.937, 490.020 
	L 424.134, 486.894 
	L 444.331, 484.345 
	L 464.528, 483.800 
	L 484.724, 483.473 
	L 504.921, 482.766 
	L 525.118, 481.827 
	L 545.315, 484.165 
	L 565.512, 485.476 
	L 585.709, 485.495 
	L 605.906, 484.493 
" />
<path d="M 605.906, 484.493 
	L 626.102, 484.661 
" />
<path d="M 0.001, 497.833 
	L 0.000, 497.834 
	L 17.717, 496.716 
	L 35.433, 496.603 
	L 53.150, 497.597 
	L 70.866, 499.525 
	L 88.583, 501.585 
	L 106.299, 502.816 
	L 124.016, 503.072 
	L 141.732, 503.146 
	L 159.449, 503.355 
	L 177.165, 501.573 
" />
<path d="M 177.165, 501.573 
	L 194.882, 500.516 
	L 212.598, 501.529 
	L 230.315, 499.852 
	L 248.032, 499.588 
	L 265.748, 499.324 
	L 283.465, 499.587 
	L 301.181, 499.716 
	L 318.898, 500.606 
	L 336.614, 499.213 
	L 354.331, 497.834 
" />
<path d="M 354.331, 497.834 
	L 372.047, 495.719 
	L 389.764, 493.994 
	L 407.480, 493.625 
	L 425.197, 493.404 
	L 442.913, 492.926 
	L 460.630, 492.291 
	L 478.347, 493.872 
	L 496.063, 494.759 
	L 513.780, 494.773 
	L 531.496, 494.094 
" />
<path d="M 531.496, 494.094 
	L 549.213, 494.208 
	L 566.929, 495.141 
	L 584.646, 495.384 
	L 602.362, 498.424 
	L 620.079, 500.920 
" />
<path d="M 0.001, 505.257 
	L 0.000, 505.257 
	L 15.732, 504.522 
	L 31.465, 504.447 
	L 47.197, 505.101 
	L 62.929, 506.370 
	L 78.661, 507.725 
	L 94.394, 508.536 
	L 110.126, 508.704 
	L 125.858, 508.753 
	L 141.591, 508.891 
	L 157.323, 507.718 
" />
<path d="M 157.323, 507.718 
	L 173.055, 507.022 
	L 188.787, 507.689 
	L 204.520, 506.585 
	L 220.252, 506.412 
	L 235.984, 506.237 
	L 251.717, 506.411 
	L 267.449, 506.495 
	L 283.181, 507.082 
	L 298.913, 506.165 
	L 314.646, 505.257 
" />
<path d="M 314.646, 505.257 
	L 330.378, 503.865 
	L 346.110, 502.730 
	L 361.843, 502.488 
	L 377.575, 502.342 
	L 393.307, 502.027 
	L 409.039, 501.609 
	L 424.772, 502.650 
	L 440.504, 503.234 
	L 456.236, 503.243 
	L 471.969, 502.796 
" />
<path d="M 471.969, 502.796 
	L 487.701, 502.870 
	L 503.433, 503.485 
	L 519.165, 503.645 
	L 534.898, 505.645 
	L 550.630, 507.288 
	L 566.362, 508.825 
	L 582.095, 509.577 
	L 597.827, 508.088 
	L 613.559, 506.670 
" />
<path d="M 0.001, 512.308 
	L 0.000, 512.309 
	L 14.173, 513.406 
	L 28.346, 513.517 
	L 42.520, 512.542 
	L 56.693, 510.651 
	L 70.866, 508.630 
	L 85.039, 507.423 
	L 99.213, 507.171 
	L 113.386, 507.098 
	L 127.559, 506.894 
	L 141.732, 508.641 
" />
<path d="M 141.732, 508.641 
	L 155.906, 509.679 
	L 170.079, 508.685 
	L 184.252, 510.330 
	L 198.425, 510.589 
	L 212.598, 510.848 
	L 226.772, 510.589 
	L 240.945, 510.464 
	L 255.118, 509.589 
	L 269.291, 510.956 
	L 283.465, 512.309 
" />
<path d="M 283.465, 512.309 
	L 297.638, 514.384 
	L 311.811, 516.076 
	L 325.984, 516.437 
	L 340.158, 516.655 
	L 354.331, 517.124 
	L 368.504, 517.747 
	L 382.677, 516.195 
	L 396.850, 515.325 
	L 411.024, 515.312 
	L 425.197, 515.977 
" />
<path d="M 425.197, 515.977 
	L 439.370, 515.866 
	L 453.543, 514.950 
	L 467.717, 514.712 
	L 481.890, 511.731 
	L 496.063, 509.282 
	L 510.236, 506.992 
	L 524.410, 505.871 
	L 538.583, 508.089 
	L 552.756, 510.203 
" />
<path d="M 0.001, 519.008 
	L 0.000, 519.009 
	L 12.827, 521.260 
	L 25.654, 521.487 
	L 38.480, 519.486 
	L 51.307, 515.605 
	L 64.134, 511.457 
	L 76.961, 508.979 
	L 89.787, 508.464 
	L 102.614, 508.314 
	L 115.441, 507.893 
	L 128.268, 511.481 
" />
<path d="M 128.268, 511.481 
	L 141.095, 513.610 
	L 153.921, 511.570 
	L 166.748, 514.946 
	L 179.575, 515.478 
	L 192.402, 516.010 
	L 205.228, 515.478 
	L 218.055, 515.221 
	L 230.882, 513.427 
	L 243.709, 516.232 
	L 256.535, 519.009 
" />
<path d="M 256.535, 519.009 
	L 269.362, 523.267 
	L 282.189, 526.739 
	L 295.016, 527.482 
	L 307.843, 527.927 
	L 320.669, 528.890 
	L 333.496, 530.169 
	L 346.323, 526.985 
	L 359.150, 525.198 
	L 371.976, 525.173 
	L 384.803, 526.537 
" />
<path d="M 384.803, 526.537 
	L 397.630, 526.309 
	L 410.457, 524.430 
	L 423.284, 523.940 
	L 436.110, 517.822 
	L 448.937, 512.795 
	L 461.764, 508.095 
	L 474.591, 505.795 
	L 487.417, 510.347 
	L 500.244, 514.685 
" />
<path d="M 0.001, 525.373 
	L 0.000, 525.373 
	L 11.764, 527.919 
	L 23.528, 528.175 
	L 35.291, 525.913 
	L 47.055, 521.524 
	L 58.819, 516.833 
	L 70.583, 514.032 
	L 82.346, 513.449 
	L 94.110, 513.279 
	L 105.874, 512.805 
	L 117.638, 516.861 
" />
<path d="M 117.638, 516.861 
	L 129.402, 519.268 
	L 141.165, 516.961 
	L 152.929, 520.779 
	L 164.693, 521.381 
	L 176.457, 521.982 
	L 188.221, 521.381 
	L 199.984, 521.090 
	L 211.748, 519.061 
	L 223.512, 522.233 
	L 235.276, 525.373 
" />
<path d="M 235.276, 525.373 
	L 247.039, 530.189 
	L 258.803, 534.115 
	L 270.567, 534.954 
	L 282.331, 535.458 
	L 294.095, 536.548 
	L 305.858, 537.993 
	L 317.622, 534.392 
	L 329.386, 532.372 
	L 341.150, 532.343 
	L 352.913, 533.886 
" />
<path d="M 352.913, 533.886 
	L 364.677, 533.628 
	L 376.441, 531.503 
	L 388.205, 530.950 
	L 399.969, 524.031 
	L 411.732, 518.347 
	L 423.496, 513.032 
	L 435.260, 510.431 
	L 447.024, 515.578 
	L 458.787, 520.484 
" />
<path d="M 0.001, 531.419 
	L 0.000, 531.420 
	L 10.843, 532.565 
	L 21.685, 532.680 
	L 32.528, 531.663 
	L 43.370, 529.688 
	L 54.213, 527.577 
	L 65.055, 526.317 
	L 75.898, 526.054 
	L 86.740, 525.978 
	L 97.583, 525.764 
	L 108.425, 527.589 
" />
<path d="M 108.425, 527.589 
	L 119.268, 528.672 
	L 130.110, 527.635 
	L 140.953, 529.352 
	L 151.795, 529.623 
	L 162.638, 529.894 
	L 173.480, 529.623 
	L 184.323, 529.493 
	L 195.165, 528.579 
	L 206.008, 530.007 
	L 216.850, 531.420 
" />
<path d="M 216.850, 531.420 
	L 227.693, 533.586 
	L 238.535, 535.353 
	L 249.378, 535.730 
	L 260.221, 535.957 
	L 271.063, 536.448 
	L 281.906, 537.098 
	L 292.748, 535.478 
	L 303.591, 534.569 
	L 314.433, 534.555 
	L 325.276, 535.250 
" />
<path d="M 325.276, 535.250 
	L 336.118, 535.134 
	L 346.961, 534.178 
	L 357.803, 533.929 
	L 368.646, 530.816 
	L 379.488, 528.258 
	L 390.331, 525.867 
	L 401.173, 524.697 
	L 412.016, 527.012 
	L 422.858, 529.220 
" />
<path d="M 0.001, 537.163 
	L 0.000, 537.163 
	L 10.063, 537.163 
	L 20.126, 537.163 
	L 30.189, 537.163 
	L 40.252, 537.163 
	L 50.315, 537.163 
	L 60.378, 537.163 
	L 70.441, 537.163 
	L 80.504, 537.163 
	L 90.567, 537.163 
	L 100.630, 537.163 
" />
<path d="M 100.630, 537.163 
	L 110.693, 537.163 
	L 120.756, 537.163 
	L 130.819, 537.163 
	L 140.882, 537.163 
	L 150.945, 537.163 
	L 161.008, 537.163 
	L 171.071, 537.163 
	L 181.134, 537.163 
	L 191.197, 537.163 
	L 201.260, 537.163 
" />
<path d="M 201.260, 537.163 
	L 211.323, 537.163 
	L 221.386, 537.163 
	L 231.449, 537.163 
	L 241.512, 537.163 
	L 251.575, 537.163 
	L 261.638, 537.163 
	L 271.701, 537.163 
	L 281.764, 537.163 
	L 291.827, 537.163 
	L 301.890, 537.163 
" />
<path d="M 301.890, 537.163 
	L 311.953, 537.163 
	L 322.016, 537.163 
	L 332.079, 537.163 
	L 342.142, 537.163 
	L 352.205, 537.163 
	L 362.268, 537.163 
	L 372.331, 537.163 
	L 382.394, 537.163 
	L 392.457, 537.163 
" />
<path d="M 0.001, 542.620 
	L 0.000, 542.621 
	L 9.425, 541.305 
	L 18.850, 541.173 
	L 28.276, 542.342 
	L 37.701, 544.609 
	L 47.126, 547.032 
	L 56.551, 548.479 
	L 65.976, 548.780 
	L 75.402, 548.868 
	L 84.827, 549.114 
	L 94.252, 547.018 
" />
<path d="M 94.252, 547.018 
	L 103.677, 545.774 
	L 113.102, 546.966 
	L 122.528, 544.994 
	L 131.953, 544.683 
	L 141.378, 544.373 
	L 150.803, 544.683 
	L 160.228, 544.833 
	L 169.654, 545.881 
	L 179.079, 544.243 
	L 188.504, 542.621 
" />
<path d="M 188.504, 542.621 
	L 197.929, 540.133 
	L 207.354, 538.104 
	L 216.780, 537.671 
	L 226.205, 537.410 
	L 235.630, 536.847 
	L 245.055, 536.101 
	L 254.480, 537.961 
	L 263.906, 539.004 
	L 273.331, 539.019 
	L 282.756, 538.223 
" />
<path d="M 282.756, 538.223 
	L 292.181, 538.355 
	L 301.606, 539.454 
	L 311.032, 539.739 
	L 320.457, 543.314 
	L 329.882, 546.250 
	L 339.307, 548.996 
	L 348.732, 550.339 
	L 358.158, 547.681 
	L 367.583, 545.146 
" />
<path d="M 0.001, 547.804 
	L 0.000, 547.805 
	L 8.858, 545.373 
	L 17.717, 545.127 
	L 26.575, 547.289 
	L 35.433, 551.481 
	L 44.291, 555.962 
	L 53.150, 558.638 
	L 62.008, 559.195 
	L 70.866, 559.358 
	L 79.724, 559.811 
	L 88.583, 555.936 
" />
<path d="M 88.583, 555.936 
	L 97.441, 553.637 
	L 106.299, 555.839 
	L 115.157, 552.193 
	L 124.016, 551.619 
	L 132.874, 551.044 
	L 141.732, 551.618 
	L 150.591, 551.896 
	L 159.449, 553.835 
	L 168.307, 550.804 
	L 177.165, 547.805 
" />
<path d="M 177.165, 547.805 
	L 186.024, 543.205 
	L 194.882, 539.454 
	L 203.740, 538.651 
	L 212.598, 538.170 
	L 221.457, 537.130 
	L 230.315, 535.750 
	L 239.173, 539.189 
	L 248.032, 541.118 
	L 256.890, 541.146 
	L 265.748, 539.673 
" />
<path d="M 265.748, 539.673 
	L 274.606, 539.918 
	L 283.465, 541.948 
	L 292.323, 542.477 
	L 301.181, 549.087 
	L 310.039, 554.516 
	L 318.898, 559.593 
	L 327.756, 562.078 
	L 336.614, 557.161 
	L 345.472, 552.475 
" />
<path d="M 0.001, 552.728 
	L 0.000, 552.729 
	L 8.291, 550.689 
	L 16.583, 550.483 
	L 24.874, 552.296 
	L 33.165, 555.815 
	L 41.457, 559.575 
	L 49.748, 561.821 
	L 58.039, 562.288 
	L 66.331, 562.424 
	L 74.622, 562.806 
	L 82.913, 559.553 
" />
<path d="M 82.913, 559.553 
	L 91.205, 557.624 
	L 99.496, 559.473 
	L 107.787, 556.412 
	L 116.079, 555.930 
	L 124.370, 555.447 
	L 132.661, 555.929 
	L 140.953, 556.163 
	L 149.244, 557.790 
	L 157.535, 555.246 
	L 165.827, 552.729 
" />
<path d="M 165.827, 552.729 
	L 174.118, 548.869 
	L 182.409, 545.721 
	L 190.701, 545.049 
	L 198.992, 544.644 
	L 207.283, 543.772 
	L 215.575, 542.612 
	L 223.866, 545.499 
	L 232.158, 547.118 
	L 240.449, 547.141 
	L 248.740, 545.905 
" />
<path d="M 248.740, 545.905 
	L 257.032, 546.111 
	L 265.323, 547.814 
	L 273.614, 548.258 
	L 281.906, 553.805 
	L 290.197, 558.362 
	L 298.488, 562.623 
	L 306.780, 564.708 
	L 315.071, 560.581 
	L 323.362, 556.648 
" />
<path d="M 0.001, 557.407 
	L 0.000, 557.408 
	L 7.866, 556.216 
	L 15.732, 556.095 
	L 23.598, 557.155 
	L 31.465, 559.210 
	L 39.331, 561.407 
	L 47.197, 562.718 
	L 55.063, 562.991 
	L 62.929, 563.071 
	L 70.795, 563.293 
	L 78.661, 561.394 
" />
<path d="M 78.661, 561.394 
	L 86.528, 560.266 
	L 94.394, 561.346 
	L 102.260, 559.558 
	L 110.126, 559.277 
	L 117.992, 558.996 
	L 125.858, 559.277 
	L 133.724, 559.413 
	L 141.591, 560.363 
	L 149.457, 558.878 
	L 157.323, 557.408 
" />
<path d="M 157.323, 557.408 
	L 165.189, 555.153 
	L 173.055, 553.314 
	L 180.921, 552.921 
	L 188.787, 552.685 
	L 196.654, 552.175 
	L 204.520, 551.498 
	L 212.386, 553.184 
	L 220.252, 554.130 
	L 228.118, 554.144 
	L 235.984, 553.421 
" />
<path d="M 235.984, 553.421 
	L 243.850, 553.542 
	L 251.717, 554.537 
	L 259.583, 554.796 
	L 267.449, 558.036 
	L 275.315, 560.698 
	L 283.181, 563.187 
	L 291.047, 564.404 
	L 298.913, 561.994 
	L 306.780, 559.697 
" />
<path d="M 0.001, 561.852 
	L 0.000, 561.852 
	L 7.441, 561.585 
	L 14.882, 561.558 
	L 22.323, 561.796 
	L 29.764, 562.256 
	L 37.205, 562.747 
	L 44.646, 563.041 
	L 52.087, 563.102 
	L 59.528, 563.120 
	L 66.969, 563.170 
	L 74.409, 562.745 
" />
<path d="M 74.409, 562.745 
	L 81.850, 562.492 
	L 89.291, 562.734 
	L 96.732, 562.334 
	L 104.173, 562.270 
	L 111.614, 562.207 
	L 119.055, 562.270 
	L 126.496, 562.301 
	L 133.937, 562.514 
	L 141.378, 562.181 
	L 148.819, 561.852 
" />
<path d="M 148.819, 561.852 
	L 156.260, 561.347 
	L 163.701, 560.936 
	L 171.142, 560.848 
	L 178.583, 560.795 
	L 186.024, 560.681 
	L 193.465, 560.529 
	L 200.906, 560.906 
	L 208.346, 561.118 
	L 215.787, 561.122 
	L 223.228, 560.959 
" />
<path d="M 223.228, 560.959 
	L 230.669, 560.986 
	L 238.110, 561.210 
	L 245.551, 561.268 
	L 252.992, 561.993 
	L 260.433, 562.589 
	L 267.874, 563.146 
	L 275.315, 563.419 
	L 282.756, 562.879 
	L 290.197, 562.365 
" />
<path d="M 0.001, 566.074 
	L 0.000, 566.075 
	L 7.087, 566.854 
	L 14.173, 566.933 
	L 21.260, 566.240 
	L 28.346, 564.896 
	L 35.433, 563.460 
	L 42.520, 562.601 
	L 49.606, 562.423 
	L 56.693, 562.371 
	L 63.780, 562.226 
	L 70.866, 563.467 
" />
<path d="M 70.866, 563.467 
	L 77.953, 564.205 
	L 85.039, 563.499 
	L 92.126, 564.668 
	L 99.213, 564.852 
	L 106.299, 565.036 
	L 113.386, 564.852 
	L 120.472, 564.763 
	L 127.559, 564.141 
	L 134.646, 565.113 
	L 141.732, 566.075 
" />
<path d="M 141.732, 566.075 
	L 148.819, 567.549 
	L 155.906, 568.751 
	L 162.992, 569.008 
	L 170.079, 569.163 
	L 177.165, 569.496 
	L 184.252, 569.939 
	L 191.339, 568.836 
	L 198.425, 568.218 
	L 205.512, 568.209 
	L 212.598, 568.681 
" />
<path d="M 212.598, 568.681 
	L 219.685, 568.602 
	L 226.772, 567.952 
	L 233.858, 567.782 
	L 240.945, 565.664 
	L 248.032, 563.923 
	L 255.118, 562.295 
	L 262.205, 561.499 
	L 269.291, 563.075 
	L 276.378, 564.577 
" />
<path d="M 0.001, 570.085 
	L 0.000, 570.086 
	L 6.732, 570.031 
	L 13.465, 570.025 
	L 20.197, 570.074 
	L 26.929, 570.169 
	L 33.661, 570.270 
	L 40.394, 570.330 
	L 47.126, 570.343 
	L 53.858, 570.346 
	L 60.591, 570.356 
	L 67.323, 570.269 
" />
<path d="M 67.323, 570.269 
	L 74.055, 570.217 
	L 80.787, 570.267 
	L 87.520, 570.185 
	L 94.252, 570.172 
	L 100.984, 570.159 
	L 107.717, 570.172 
	L 114.449, 570.178 
	L 121.181, 570.222 
	L 127.913, 570.154 
	L 134.646, 570.086 
" />
<path d="M 134.646, 570.086 
	L 141.378, 569.982 
	L 148.110, 569.898 
	L 154.843, 569.879 
	L 161.575, 569.869 
	L 168.307, 569.845 
	L 175.039, 569.814 
	L 181.772, 569.891 
	L 188.504, 569.935 
	L 195.236, 569.935 
	L 201.969, 569.902 
" />
<path d="M 201.969, 569.902 
	L 208.701, 569.908 
	L 215.433, 569.954 
	L 222.165, 569.966 
	L 228.898, 570.115 
	L 235.630, 570.237 
	L 242.362, 570.351 
	L 249.095, 570.407 
	L 255.827, 570.297 
	L 262.559, 570.191 
" />
<path d="M 0.001, 573.896 
	L 0.000, 573.897 
	L 6.378, 572.966 
	L 12.756, 572.873 
	L 19.134, 573.699 
	L 25.512, 575.303 
	L 31.890, 577.017 
	L 38.268, 578.040 
	L 44.646, 578.254 
	L 51.024, 578.316 
	L 57.402, 578.490 
	L 63.780, 577.007 
" />
<path d="M 63.780, 577.007 
	L 70.157, 576.128 
	L 76.535, 576.970 
	L 82.913, 575.575 
	L 89.291, 575.355 
	L 95.669, 575.136 
	L 102.047, 575.355 
	L 108.425, 575.461 
	L 114.803, 576.203 
	L 121.181, 575.044 
	L 127.559, 573.897 
" />
<path d="M 127.559, 573.897 
	L 133.937, 572.137 
	L 140.315, 570.702 
	L 146.693, 570.395 
	L 153.071, 570.211 
	L 159.449, 569.813 
	L 165.827, 569.285 
	L 172.205, 570.601 
	L 178.583, 571.339 
	L 184.961, 571.350 
	L 191.339, 570.786 
" />
<path d="M 191.339, 570.786 
	L 197.717, 570.880 
	L 204.095, 571.657 
	L 210.472, 571.859 
	L 216.850, 574.386 
	L 223.228, 576.464 
	L 229.606, 578.406 
	L 235.984, 579.356 
	L 242.362, 577.476 
	L 248.740, 575.683 
" />
<path d="M 0.001, 577.516 
	L 0.000, 577.517 
	L 6.094, 576.028 
	L 12.189, 575.877 
	L 18.283, 577.201 
	L 24.378, 579.768 
	L 30.472, 582.511 
	L 36.567, 584.150 
	L 42.661, 584.491 
	L 48.756, 584.590 
	L 54.850, 584.868 
	L 60.945, 582.495 
" />
<path d="M 60.945, 582.495 
	L 67.039, 581.088 
	L 73.134, 582.436 
	L 79.228, 580.203 
	L 85.323, 579.852 
	L 91.417, 579.499 
	L 97.512, 579.852 
	L 103.606, 580.022 
	L 109.701, 581.208 
	L 115.795, 579.353 
	L 121.890, 577.517 
" />
<path d="M 121.890, 577.517 
	L 127.984, 574.700 
	L 134.079, 572.404 
	L 140.173, 571.913 
	L 146.268, 571.618 
	L 152.362, 570.981 
	L 158.457, 570.136 
	L 164.551, 572.241 
	L 170.646, 573.423 
	L 176.740, 573.440 
	L 182.835, 572.538 
" />
<path d="M 182.835, 572.538 
	L 188.929, 572.689 
	L 195.024, 573.932 
	L 201.118, 574.255 
	L 207.213, 578.301 
	L 213.307, 581.626 
	L 219.402, 584.734 
	L 225.496, 586.255 
	L 231.591, 583.245 
	L 237.685, 580.376 
" />
<path d="M 0.001, 580.955 
	L 0.000, 580.956 
	L 5.882, 580.325 
	L 11.764, 580.262 
	L 17.646, 580.822 
	L 23.528, 581.909 
	L 29.409, 583.071 
	L 35.291, 583.765 
	L 41.173, 583.909 
	L 47.055, 583.951 
	L 52.937, 584.069 
	L 58.819, 583.064 
" />
<path d="M 58.819, 583.064 
	L 64.701, 582.468 
	L 70.583, 583.039 
	L 76.465, 582.093 
	L 82.346, 581.944 
	L 88.228, 581.796 
	L 94.110, 581.944 
	L 99.992, 582.017 
	L 105.874, 582.519 
	L 111.756, 581.733 
	L 117.638, 580.956 
	L 123.520, 579.763 
" />
<path d="M 123.520, 579.763 
	L 129.402, 578.791 
	L 135.283, 578.582 
	L 141.165, 578.458 
	L 147.047, 578.188 
	L 152.929, 577.830 
	L 158.811, 578.722 
	L 164.693, 579.222 
	L 170.575, 579.229 
	L 176.457, 578.848 
	L 182.339, 578.911 
" />
<path d="M 182.339, 578.911 
	L 188.221, 579.438 
	L 194.102, 579.575 
	L 199.984, 581.288 
	L 205.866, 582.696 
	L 211.748, 584.012 
	L 217.630, 584.656 
	L 223.512, 583.382 
	L 229.394, 582.167 
" />
<path d="M 0.001, 584.222 
	L 0.000, 584.223 
	L 5.669, 583.202 
	L 11.339, 583.099 
	L 17.008, 584.007 
	L 22.677, 585.767 
	L 28.346, 587.648 
	L 34.016, 588.772 
	L 39.685, 589.005 
	L 45.354, 589.074 
	L 51.024, 589.263 
	L 56.693, 587.637 
" />
<path d="M 56.693, 587.637 
	L 62.362, 586.671 
	L 68.032, 587.597 
	L 73.701, 586.065 
	L 79.370, 585.824 
	L 85.039, 585.583 
	L 90.709, 585.824 
	L 96.378, 585.940 
	L 102.047, 586.755 
	L 107.717, 585.482 
	L 113.386, 584.223 
	L 119.055, 582.292 
" />
<path d="M 119.055, 582.292 
	L 124.724, 580.717 
	L 130.394, 580.380 
	L 136.063, 580.178 
	L 141.732, 579.742 
	L 147.402, 579.162 
	L 153.071, 580.606 
	L 158.740, 581.416 
	L 164.409, 581.428 
	L 170.079, 580.809 
	L 175.748, 580.912 
" />
<path d="M 175.748, 580.912 
	L 181.417, 581.764 
	L 187.087, 581.986 
	L 192.756, 584.761 
	L 198.425, 587.041 
	L 204.095, 589.172 
	L 209.764, 590.215 
	L 215.433, 588.151 
	L 221.102, 586.184 
" />
<path d="M 0.001, 587.326 
	L 0.000, 587.327 
	L 5.386, 585.651 
	L 10.772, 585.481 
	L 16.157, 586.972 
	L 21.543, 589.861 
	L 26.929, 592.950 
	L 32.315, 594.794 
	L 37.701, 595.178 
	L 43.087, 595.290 
	L 48.472, 595.603 
	L 53.858, 592.932 
" />
<path d="M 53.858, 592.932 
	L 59.244, 591.347 
	L 64.630, 592.866 
	L 70.016, 590.352 
	L 75.402, 589.956 
	L 80.787, 589.560 
	L 86.173, 589.956 
	L 91.559, 590.147 
	L 96.945, 591.483 
	L 102.331, 589.394 
	L 107.717, 587.327 
	L 113.102, 584.156 
" />
<path d="M 113.102, 584.156 
	L 118.488, 581.571 
	L 123.874, 581.018 
	L 129.260, 580.686 
	L 134.646, 579.969 
	L 140.032, 579.018 
	L 145.417, 581.388 
	L 150.803, 582.718 
	L 156.189, 582.737 
	L 161.575, 581.722 
	L 166.961, 581.891 
" />
<path d="M 166.961, 581.891 
	L 172.346, 583.290 
	L 177.732, 583.654 
	L 183.118, 588.210 
	L 188.504, 591.953 
	L 193.890, 595.453 
	L 199.276, 597.165 
	L 204.661, 593.776 
	L 210.047, 590.546 
" />
<path d="M 0.001, 590.275 
	L 0.000, 590.275 
	L 5.244, 589.905 
	L 10.488, 589.867 
	L 15.732, 590.197 
	L 20.976, 590.836 
	L 26.220, 591.520 
	L 31.465, 591.928 
	L 36.709, 592.013 
	L 41.953, 592.038 
	L 47.197, 592.107 
	L 52.441, 591.516 
" />
<path d="M 52.441, 591.516 
	L 57.685, 591.165 
	L 62.929, 591.501 
	L 68.173, 590.945 
	L 73.417, 590.857 
	L 78.661, 590.769 
	L 83.906, 590.857 
	L 89.150, 590.900 
	L 94.394, 591.195 
	L 99.638, 590.733 
	L 104.882, 590.275 
	L 110.126, 589.574 
" />
<path d="M 110.126, 589.574 
	L 115.370, 589.002 
	L 120.614, 588.879 
	L 125.858, 588.806 
	L 131.102, 588.647 
	L 136.346, 588.436 
	L 141.591, 588.961 
	L 146.835, 589.256 
	L 152.079, 589.260 
	L 157.323, 589.035 
	L 162.567, 589.073 
" />
<path d="M 162.567, 589.073 
	L 167.811, 589.382 
	L 173.055, 589.463 
	L 178.299, 590.471 
	L 183.543, 591.299 
	L 188.787, 592.074 
	L 194.032, 592.452 
	L 199.276, 591.703 
	L 204.520, 590.988 
" />
<path d="M 0.001, 593.076 
	L 0.000, 593.077 
	L 5.031, 593.364 
	L 10.063, 593.393 
	L 15.094, 593.138 
	L 20.126, 592.643 
	L 25.157, 592.114 
	L 30.189, 591.798 
	L 35.220, 591.732 
	L 40.252, 591.713 
	L 45.283, 591.659 
	L 50.315, 592.117 
" />
<path d="M 50.315, 592.117 
	L 55.346, 592.389 
	L 60.378, 592.129 
	L 65.409, 592.559 
	L 70.441, 592.627 
	L 75.472, 592.694 
	L 80.504, 592.627 
	L 85.535, 592.593 
	L 90.567, 592.365 
	L 95.598, 592.722 
	L 100.630, 593.077 
	L 105.661, 593.620 
" />
<path d="M 105.661, 593.620 
	L 110.693, 594.062 
	L 115.724, 594.157 
	L 120.756, 594.213 
	L 125.787, 594.336 
	L 130.819, 594.499 
	L 135.850, 594.093 
	L 140.882, 593.865 
	L 145.913, 593.862 
	L 150.945, 594.036 
	L 155.976, 594.007 
" />
<path d="M 155.976, 594.007 
	L 161.008, 593.768 
	L 166.039, 593.705 
	L 171.071, 592.925 
	L 176.102, 592.284 
	L 181.134, 591.686 
	L 186.165, 591.392 
	L 191.197, 591.973 
	L 196.228, 592.525 
" />
<path d="M 0.001, 595.737 
	L 0.000, 595.738 
	L 4.819, 595.738 
	L 9.638, 595.738 
	L 14.457, 595.738 
	L 19.276, 595.738 
	L 24.094, 595.738 
	L 28.913, 595.738 
	L 33.732, 595.738 
	L 38.551, 595.738 
	L 43.370, 595.738 
	L 48.189, 595.738 
" />
<path d="M 48.189, 595.738 
	L 53.008, 595.738 
	L 57.827, 595.738 
	L 62.646, 595.738 
	L 67.465, 595.738 
	L 72.283, 595.738 
	L 77.102, 595.738 
	L 81.921, 595.738 
	L 86.740, 595.738 
	L 91.559, 595.738 
	L 96.378, 595.738 
	L 101.197, 595.738 
" />
<path d="M 101.197, 595.738 
	L 106.016, 595.738 
	L 110.835, 595.738 
	L 115.654, 595.738 
	L 120.472, 595.738 
	L 125.291, 595.738 
	L 130.110, 595.738 
	L 134.929, 595.738 
	L 139.748, 595.738 
	L 144.567, 595.738 
	L 149.386, 595.738 
" />
<path d="M 149.386, 595.738 
	L 154.205, 595.738 
	L 159.024, 595.738 
	L 163.843, 595.738 
	L 168.661, 595.738 
	L 173.480, 595.738 
	L 178.299, 595.738 
	L 183.118, 595.738 
	L 187.937, 595.738 
" />
<path d="M 0.001, 598.265 
	L 0.000, 598.266 
	L 4.677, 598.236 
	L 9.354, 598.233 
	L 14.031, 598.259 
	L 18.709, 598.311 
	L 23.386, 598.366 
	L 28.063, 598.399 
	L 32.740, 598.407 
	L 37.417, 598.409 
	L 42.094, 598.414 
	L 46.772, 598.366 
" />
<path d="M 46.772, 598.366 
	L 51.449, 598.338 
	L 56.126, 598.365 
	L 60.803, 598.320 
	L 65.480, 598.313 
	L 70.157, 598.306 
	L 74.835, 598.313 
	L 79.512, 598.317 
	L 84.189, 598.340 
	L 88.866, 598.303 
	L 93.543, 598.266 
	L 98.220, 598.209 
" />
<path d="M 98.220, 598.209 
	L 102.898, 598.163 
	L 107.575, 598.153 
	L 112.252, 598.147 
	L 116.929, 598.134 
	L 121.606, 598.117 
	L 126.283, 598.159 
	L 130.961, 598.183 
	L 135.638, 598.183 
	L 140.315, 598.166 
	L 144.992, 598.168 
" />
<path d="M 144.992, 598.168 
	L 149.669, 598.193 
	L 154.346, 598.200 
	L 159.024, 598.282 
	L 163.701, 598.348 
	L 168.378, 598.412 
	L 173.055, 598.442 
	L 177.732, 598.381 
	L 182.409, 598.324 
" />
</g><g style="stroke:rgb(255,0,0); fill:none; stroke-width:0.100mm" >
<path d="M 14.173, 622.205 
	L 14.173, 625.039 
" />
<path d="M 14.173, 623.622 
	L 16.299, 622.205 
	L 17.362, 622.205 
" />
<path d="M 20.551, 623.622 
	L 23.740, 623.622 
	L 24.803, 622.913 
	L 23.740, 622.205 
	L 21.614, 622.205 
	L 20.551, 622.913 
	L 20.551, 624.331 
	L 21.614, 625.039 
	L 24.803, 625.039 
" />
<path d="M 31.181, 624.331 
	L 30.118, 625.039 
	L 29.055, 625.039 
	L 27.992, 624.331 
	L 27.992, 622.913 
	L 29.055, 622.205 
	L 30.118, 622.205 
	L 31.181, 622.913 
" />
<path d="M 34.370, 625.039 
	L 33.307, 624.331 
	L 33.307, 622.913 
	L 34.370, 622.205 
	L 35.433, 622.205 
	L 36.496, 622.913 
	L 36.496, 624.331 
	L 35.433, 625.039 
	L 34.370, 625.039 
" />
<path d="M 39.685, 622.205 
	L 39.685, 625.039 
" />
<path d="M 39.685, 623.622 
	L 41.811, 622.205 
	L 42.874, 622.205 
" />
<path d="M 49.252, 620.787 
	L 49.252, 625.039 
	L 47.126, 625.039 
	L 46.063, 624.331 
	L 46.063, 622.913 
	L 47.126, 622.205 
	L 49.252, 622.205 
" />
<path d="M 49.252, 625.039 
	L 50.315, 625.039 
" />
<path d="M 52.441, 623.622 
	L 55.630, 623.622 
	L 56.693, 622.913 
	L 55.630, 622.205 
	L 53.504, 622.205 
	L 52.441, 622.913 
	L 52.441, 624.331 
	L 53.504, 625.039 
	L 56.693, 625.039 
" />
<path d="M 62.008, 620.787 
	L 62.008, 625.039 
	L 59.882, 625.039 
	L 58.819, 624.331 
	L 58.819, 622.913 
	L 59.882, 622.205 
	L 62.008, 622.205 
" />
<path d="M 62.008, 625.039 
	L 63.071, 625.039 
" />
<path d="M 73.701, 620.787 
	L 73.701, 621.496 
" />
<path d="M 72.638, 622.205 
	L 73.701, 622.205 
	L 73.701, 625.039 
" />
<path d="M 72.638, 625.039 
	L 74.764, 625.039 
" />
<path d="M 77.953, 625.039 
	L 77.953, 622.205 
" />
<path d="M 77.953, 622.913 
	L 79.016, 622.205 
	L 80.079, 622.205 
	L 81.142, 622.913 
	L 81.142, 625.039 
" />
<path d="M 92.835, 625.039 
	L 92.835, 620.787 
	L 90.709, 620.787 
	L 94.961, 620.787 
" />
<path d="M 97.087, 622.205 
	L 97.087, 624.331 
	L 98.150, 625.039 
	L 100.276, 625.039 
	L 100.276, 622.205 
" />
<path d="M 106.654, 622.205 
	L 104.528, 622.205 
	L 103.465, 622.913 
	L 104.528, 623.622 
	L 105.591, 623.622 
	L 106.654, 624.331 
	L 105.591, 625.039 
	L 103.465, 625.039 
" />
<path d="M 109.843, 620.787 
	L 109.843, 625.039 
" />
<path d="M 109.843, 622.205 
	L 111.969, 622.205 
	L 113.032, 622.913 
	L 113.032, 625.039 
" />
<path d="M 116.220, 623.622 
	L 119.409, 623.622 
	L 120.472, 622.913 
	L 119.409, 622.205 
	L 117.283, 622.205 
	L 116.220, 622.913 
	L 116.220, 624.331 
	L 117.283, 625.039 
	L 120.472, 625.039 
" />
<path d="M 123.661, 620.787 
	L 123.661, 625.039 
	L 125.787, 625.039 
" />
<path d="M 122.598, 622.205 
	L 125.787, 622.205 
" />
<path d="M 131.102, 620.787 
	L 131.102, 621.496 
" />
<path d="M 130.039, 622.205 
	L 131.102, 622.205 
	L 131.102, 625.039 
" />
<path d="M 130.039, 625.039 
	L 132.165, 625.039 
" />
<path d="M 137.480, 620.787 
	L 137.480, 621.496 
" />
<path d="M 136.417, 622.205 
	L 137.480, 622.205 
	L 137.480, 625.039 
" />
<path d="M 136.417, 625.039 
	L 138.543, 625.039 
" />
<path d="M 152.362, 621.496 
	L 151.299, 620.787 
	L 149.173, 620.787 
	L 148.110, 621.496 
	L 148.110, 624.331 
	L 149.173, 625.039 
	L 151.299, 625.039 
	L 152.362, 624.331 
	L 152.362, 622.913 
	L 149.173, 622.913 
" />
<path d="M 154.488, 623.622 
	L 157.677, 623.622 
	L 158.740, 622.913 
	L 157.677, 622.205 
	L 155.551, 622.205 
	L 154.488, 622.913 
	L 154.488, 624.331 
	L 155.551, 625.039 
	L 158.740, 625.039 
" />
<path d="M 161.929, 625.039 
	L 160.866, 624.331 
	L 160.866, 622.913 
	L 161.929, 622.205 
	L 162.992, 622.205 
	L 164.055, 622.913 
	L 164.055, 624.331 
	L 162.992, 625.039 
	L 161.929, 625.039 
" />
<path d="M 167.244, 622.205 
	L 167.244, 625.039 
" />
<path d="M 167.244, 623.622 
	L 169.370, 622.205 
	L 170.433, 622.205 
" />
<path d="M 173.622, 626.457 
	L 175.748, 626.457 
	L 176.811, 625.748 
	L 176.811, 622.205 
	L 174.685, 622.205 
	L 173.622, 622.913 
	L 173.622, 624.331 
	L 174.685, 625.039 
	L 176.811, 625.039 
" />
<path d="M 182.126, 620.787 
	L 182.126, 621.496 
" />
<path d="M 181.063, 622.205 
	L 182.126, 622.205 
	L 182.126, 625.039 
" />
<path d="M 181.063, 625.039 
	L 183.189, 625.039 
" />
<path d="M 190.630, 625.039 
	L 187.441, 625.039 
	L 186.378, 624.331 
	L 186.378, 622.913 
	L 187.441, 622.205 
	L 189.567, 622.205 
	L 189.567, 625.039 
" />
<path d="M 14.173, 632.126 
	L 14.173, 627.874 
" />
<path d="M 17.362, 632.126 
	L 14.173, 630.709 
	L 17.362, 629.291 
" />
<path d="M 24.803, 632.126 
	L 21.614, 632.126 
	L 20.551, 631.417 
	L 20.551, 630.000 
	L 21.614, 629.291 
	L 23.740, 629.291 
	L 23.740, 632.126 
" />
<path d="M 27.992, 632.126 
	L 26.929, 631.417 
	L 26.929, 630.000 
	L 27.992, 629.291 
	L 29.055, 629.291 
	L 30.118, 630.000 
	L 30.118, 631.417 
	L 29.055, 632.126 
	L 27.992, 632.126 
" />
<path d="M 34.370, 627.874 
	L 34.370, 632.126 
	L 36.496, 632.126 
" />
<path d="M 33.307, 629.291 
	L 36.496, 629.291 
" />
<path d="M 39.685, 630.709 
	L 42.874, 630.709 
	L 43.937, 630.000 
	L 42.874, 629.291 
	L 40.748, 629.291 
	L 39.685, 630.000 
	L 39.685, 631.417 
	L 40.748, 632.126 
	L 43.937, 632.126 
" />
<path d="M 50.315, 631.417 
	L 49.252, 632.126 
	L 48.189, 632.126 
	L 47.126, 631.417 
	L 47.126, 630.000 
	L 48.189, 629.291 
	L 49.252, 629.291 
	L 50.315, 630.000 
" />
<path d="M 63.071, 632.126 
	L 60.945, 632.126 
	L 60.945, 627.874 
	L 63.071, 627.874 
" />
<path d="M 65.197, 632.126 
	L 67.323, 632.126 
	L 67.323, 627.874 
	L 65.197, 627.874 
" />
<path d="M 74.764, 627.874 
	L 71.575, 630.000 
	L 74.764, 632.126 
" />
<path d="M 77.953, 627.874 
	L 81.142, 630.000 
	L 77.953, 632.126 
" />
<path d="M 90.709, 628.583 
	L 91.772, 627.874 
	L 93.898, 627.874 
	L 94.961, 628.583 
	L 94.961, 629.291 
	L 90.709, 631.417 
	L 90.709, 632.126 
	L 94.961, 632.126 
" />
<path d="M 97.087, 631.417 
	L 98.150, 632.126 
	L 100.276, 632.126 
	L 101.339, 631.417 
	L 101.339, 628.583 
	L 100.276, 627.874 
	L 98.150, 627.874 
	L 97.087, 628.583 
	L 97.087, 631.417 
" />
<path d="M 104.528, 632.126 
	L 106.654, 632.126 
" />
<path d="M 105.591, 632.126 
	L 105.591, 627.874 
	L 104.528, 628.583 
" />
<path d="M 110.906, 632.126 
	L 111.969, 632.126 
	L 114.095, 630.709 
	L 114.095, 628.583 
	L 113.032, 627.874 
	L 110.906, 627.874 
	L 109.843, 628.583 
	L 109.843, 629.291 
	L 110.906, 630.000 
	L 114.095, 630.000 
" />
<path d="M 14.173, 653.386 
	L 17.362, 653.386 
	L 18.425, 652.677 
	L 18.425, 651.260 
	L 17.362, 650.551 
	L 15.236, 650.551 
" />
<path d="M 15.236, 649.134 
	L 15.236, 653.386 
" />
<path d="M 24.803, 653.386 
	L 21.614, 653.386 
	L 20.551, 652.677 
	L 20.551, 651.260 
	L 21.614, 650.551 
	L 23.740, 650.551 
	L 23.740, 653.386 
" />
<path d="M 26.929, 653.386 
	L 26.929, 650.551 
" />
<path d="M 26.929, 651.260 
	L 27.992, 650.551 
	L 29.055, 650.551 
	L 30.118, 651.260 
	L 30.118, 653.386 
" />
<path d="M 36.496, 649.134 
	L 36.496, 653.386 
	L 34.370, 653.386 
	L 33.307, 652.677 
	L 33.307, 651.260 
	L 34.370, 650.551 
	L 36.496, 650.551 
" />
<path d="M 36.496, 653.386 
	L 37.559, 653.386 
" />
<path d="M 43.937, 652.677 
	L 42.874, 653.386 
	L 41.811, 653.386 
	L 40.748, 652.677 
	L 40.748, 651.260 
	L 41.811, 650.551 
	L 42.874, 650.551 
	L 43.937, 651.260 
" />
<path d="M 50.315, 653.386 
	L 47.126, 653.386 
	L 46.063, 652.677 
	L 46.063, 651.260 
	L 47.126, 650.551 
	L 49.252, 650.551 
	L 49.252, 653.386 
" />
<path d="M 52.441, 653.386 
	L 52.441, 650.551 
" />
<path d="M 52.441, 651.260 
	L 53.504, 650.551 
	L 54.567, 651.260 
	L 54.567, 653.386 
" />
<path d="M 54.567, 651.260 
	L 55.630, 650.551 
	L 56.693, 651.260 
	L 56.693, 653.386 
" />
<path d="M 58.819, 654.803 
	L 58.819, 650.551 
	L 60.945, 650.551 
	L 62.008, 651.260 
	L 62.008, 652.677 
	L 60.945, 653.386 
	L 58.819, 653.386 
" />
<path d="M 74.764, 649.134 
	L 74.764, 653.386 
	L 72.638, 653.386 
	L 71.575, 652.677 
	L 71.575, 651.260 
	L 72.638, 650.551 
	L 74.764, 650.551 
" />
<path d="M 74.764, 653.386 
	L 75.827, 653.386 
" />
<path d="M 79.016, 653.386 
	L 77.953, 652.677 
	L 77.953, 651.260 
	L 79.016, 650.551 
	L 80.079, 650.551 
	L 81.142, 651.260 
	L 81.142, 652.677 
	L 80.079, 653.386 
	L 79.016, 653.386 
" />
<path d="M 84.331, 650.551 
	L 84.331, 652.677 
	L 85.394, 653.386 
	L 86.457, 652.677 
	L 86.457, 651.260 
" />
<path d="M 86.457, 652.677 
	L 87.520, 653.386 
	L 88.583, 652.677 
	L 88.583, 650.551 
" />
<path d="M 90.709, 653.386 
	L 90.709, 650.551 
" />
<path d="M 90.709, 651.260 
	L 91.772, 650.551 
	L 92.835, 650.551 
	L 93.898, 651.260 
	L 93.898, 653.386 
" />
<path d="M 98.150, 649.134 
	L 99.213, 649.134 
	L 99.213, 653.386 
" />
<path d="M 98.150, 653.386 
	L 100.276, 653.386 
" />
<path d="M 104.528, 653.386 
	L 103.465, 652.677 
	L 103.465, 651.260 
	L 104.528, 650.551 
	L 105.591, 650.551 
	L 106.654, 651.260 
	L 106.654, 652.677 
	L 105.591, 653.386 
	L 104.528, 653.386 
" />
<path d="M 114.095, 653.386 
	L 110.906, 653.386 
	L 109.843, 652.677 
	L 109.843, 651.260 
	L 110.906, 650.551 
	L 113.032, 650.551 
	L 113.032, 653.386 
" />
<path d="M 119.409, 649.134 
	L 119.409, 653.386 
	L 117.283, 653.386 
	L 116.220, 652.677 
	L 116.220, 651.260 
	L 117.283, 650.551 
	L 119.409, 650.551 
" />
<path d="M 119.409, 653.386 
	L 120.472, 653.386 
" />
<path d="M 126.850, 652.677 
	L 125.787, 653.386 
	L 124.724, 653.386 
	L 123.661, 652.677 
	L 123.661, 651.260 
	L 124.724, 650.551 
	L 125.787, 650.551 
	L 126.850, 651.260 
" />
<path d="M 130.039, 653.386 
	L 128.976, 652.677 
	L 128.976, 651.260 
	L 130.039, 650.551 
	L 131.102, 650.551 
	L 132.165, 651.260 
	L 132.165, 652.677 
	L 131.102, 653.386 
	L 130.039, 653.386 
" />
<path d="M 138.543, 649.134 
	L 138.543, 653.386 
	L 136.417, 653.386 
	L 135.354, 652.677 
	L 135.354, 651.260 
	L 136.417, 650.551 
	L 138.543, 650.551 
" />
<path d="M 138.543, 653.386 
	L 139.606, 653.386 
" />
<path d="M 141.732, 651.969 
	L 144.921, 651.969 
	L 145.984, 651.260 
	L 144.921, 650.551 
	L 142.795, 650.551 
	L 141.732, 651.260 
	L 141.732, 652.677 
	L 142.795, 653.386 
	L 145.984, 653.386 
" />
<path d="M 154.488, 653.386 
	L 158.740, 649.134 
" />
<path d="M 158.740, 653.386 
	L 154.488, 649.134 
" />
<path d="M 160.866, 653.386 
	L 165.118, 649.134 
" />
<path d="M 165.118, 653.386 
	L 160.866, 649.134 
" />
<path d="M 167.244, 653.386 
	L 171.496, 649.134 
" />
<path d="M 171.496, 653.386 
	L 167.244, 649.134 
" />
<path d="M 173.622, 653.386 
	L 177.874, 649.134 
" />
<path d="M 177.874, 653.386 
	L 173.622, 649.134 
" />
<path d="M 180.000, 651.260 
	L 184.252, 651.260 
" />
<path d="M 186.378, 653.386 
	L 190.630, 649.134 
" />
<path d="M 190.630, 653.386 
	L 186.378, 649.134 
" />
<path d="M 192.756, 653.386 
	L 197.008, 649.134 
" />
<path d="M 197.008, 653.386 
	L 192.756, 649.134 
" />
<path d="M 199.134, 653.386 
	L 203.386, 649.134 
" />
<path d="M 203.386, 653.386 
	L 199.134, 649.134 
" />
<path d="M 205.512, 653.386 
	L 209.764, 649.134 
" />
<path d="M 209.764, 653.386 
	L 205.512, 649.134 
" />
<path d="M 17.717, 238.818 
	L 17.717, 238.819 
	L 17.717, 237.472 
	L 37.382, 237.472 
	L 37.382, 238.819 
	L 17.717, 238.819 
	L 17.717, 233.823 
	L 17.717, 232.476 
	L 37.382, 232.476 
	L 37.382, 233.823 
	L 17.717, 233.823 
	L 17.717, 231.095 
" />
<path d="M 17.717, 231.095 
	L 17.717, 229.748 
	L 37.382, 229.748 
	L 37.382, 231.095 
	L 17.717, 231.095 
" />
<path d="M 37.666, 238.818 
	L 37.665, 238.819 
	L 37.665, 229.748 
	L 39.366, 229.748 
	L 39.366, 238.819 
	L 37.665, 238.819 
" />
<path d="M 39.367, 238.818 
	L 39.366, 238.819 
	L 39.366, 232.016 
	L 51.626, 232.016 
	L 51.626, 233.362 
	L 41.067, 233.362 
	L 41.067, 234.744 
	L 51.626, 234.744 
	L 51.626, 236.091 
	L 41.067, 236.091 
	L 41.067, 238.819 
	L 39.366, 238.819 
" />
<path d="M 39.366, 238.819 
" />
<path d="M 62.257, 234.743 
	L 62.256, 234.744 
	L 62.256, 233.362 
	L 52.902, 233.362 
	L 52.902, 234.744 
	L 62.256, 234.744 
	L 51.343, 238.819 
	L 51.343, 232.016 
	L 63.815, 232.016 
	L 63.815, 236.091 
	L 52.902, 236.091 
	L 52.902, 237.472 
" />
<path d="M 52.902, 237.472 
	L 63.815, 237.472 
	L 63.815, 238.819 
	L 51.343, 238.819 
" />
<path d="M 64.099, 238.818 
	L 64.098, 238.819 
	L 64.098, 232.016 
	L 77.138, 232.016 
	L 77.138, 238.819 
	L 75.437, 238.819 
	L 75.437, 233.362 
	L 65.799, 233.362 
	L 65.799, 238.819 
	L 64.098, 238.819 
" />
<path d="M 77.139, 239.279 
	L 77.138, 239.280 
	L 77.138, 229.748 
	L 78.839, 229.748 
	L 78.839, 237.224 
	L 88.193, 233.150 
	L 97.547, 237.224 
	L 97.547, 229.748 
	L 99.248, 229.748 
	L 99.248, 239.280 
	L 88.193, 234.496 
	L 77.138, 239.280 
" />
<path d="M 77.138, 239.280 
" />
<path d="M 110.587, 237.472 
	L 110.587, 237.472 
	L 110.587, 233.362 
	L 108.319, 233.362 
	L 103.783, 237.472 
	L 110.587, 237.472 
	L 99.992, 238.819 
	L 106.051, 233.362 
	L 99.992, 233.362 
	L 99.992, 232.016 
	L 112.287, 232.016 
" />
<path d="M 112.287, 232.016 
	L 112.287, 238.819 
	L 99.992, 238.819 
" />
<path d="M 111.544, 238.818 
	L 111.543, 238.819 
	L 111.543, 232.016 
	L 124.583, 232.016 
	L 124.583, 238.819 
	L 122.882, 238.819 
	L 122.882, 233.362 
	L 113.244, 233.362 
	L 113.244, 238.819 
	L 111.543, 238.819 
" />
<path d="M 135.922, 237.472 
	L 135.921, 237.472 
	L 135.921, 233.362 
	L 126.283, 233.362 
	L 126.283, 237.472 
	L 135.921, 237.472 
	L 124.583, 238.819 
	L 124.583, 232.016 
	L 135.921, 232.016 
	L 135.921, 229.748 
	L 137.622, 229.748 
" />
<path d="M 137.622, 229.748 
	L 137.622, 238.819 
	L 124.583, 238.819 
" />
<path d="M 148.253, 234.743 
	L 148.252, 234.744 
	L 148.252, 233.362 
	L 138.898, 233.362 
	L 138.898, 234.744 
	L 148.252, 234.744 
	L 137.339, 238.819 
	L 137.339, 232.016 
	L 149.811, 232.016 
	L 149.811, 236.091 
	L 138.898, 236.091 
" />
<path d="M 138.898, 236.091 
	L 138.898, 237.472 
	L 149.811, 237.472 
	L 149.811, 238.819 
	L 137.339, 238.819 
" />
<path d="M 150.095, 238.818 
	L 150.095, 238.819 
	L 150.095, 232.016 
	L 162.354, 232.016 
	L 162.354, 233.362 
	L 151.795, 233.362 
	L 151.795, 238.819 
	L 150.095, 238.819 
" />
<path d="M 36.320, 255.188 
	L 36.319, 255.189 
	L 28.772, 248.811 
	L 19.701, 248.811 
	L 19.701, 255.189 
	L 36.319, 255.189 
	L 18.000, 256.535 
	L 18.000, 247.465 
	L 29.516, 247.465 
	L 40.110, 256.535 
	L 18.000, 256.535 
" />
<path d="M 40.111, 256.535 
	L 40.110, 256.535 
	L 40.110, 249.732 
	L 41.811, 249.732 
	L 41.811, 256.535 
	L 40.110, 256.535 
	L 40.110, 248.811 
	L 40.110, 247.465 
	L 41.811, 247.465 
	L 41.811, 248.811 
	L 40.110, 248.811 
" />
<path d="M 41.528, 256.535 
	L 41.528, 256.535 
	L 41.528, 255.189 
	L 52.441, 255.189 
	L 52.441, 253.807 
	L 41.528, 253.807 
	L 41.528, 249.732 
	L 54.000, 249.732 
	L 54.000, 251.079 
	L 43.087, 251.079 
	L 43.087, 252.461 
	L 54.000, 252.461 
" />
<path d="M 54.000, 252.461 
	L 54.000, 256.535 
	L 41.528, 256.535 
" />
<path d="M 54.284, 256.535 
	L 54.283, 256.535 
	L 54.283, 247.465 
	L 55.984, 247.465 
	L 55.984, 249.732 
	L 66.543, 249.732 
	L 66.543, 251.079 
	L 55.984, 251.079 
	L 55.984, 255.189 
	L 66.543, 255.189 
	L 66.543, 256.535 
	L 54.283, 256.535 
" />
<path d="M 54.283, 256.535 
" />
<path d="M 66.544, 256.535 
	L 66.543, 256.535 
	L 66.543, 249.732 
	L 78.803, 249.732 
	L 78.803, 251.079 
	L 68.244, 251.079 
	L 68.244, 256.535 
	L 66.543, 256.535 
" />
<path d="M 89.434, 252.460 
	L 89.433, 252.461 
	L 89.433, 251.079 
	L 80.079, 251.079 
	L 80.079, 252.461 
	L 89.433, 252.461 
	L 78.520, 256.535 
	L 78.520, 249.732 
	L 90.992, 249.732 
	L 90.992, 253.807 
	L 80.079, 253.807 
	L 80.079, 255.189 
" />
<path d="M 80.079, 255.189 
	L 90.992, 255.189 
	L 90.992, 256.535 
	L 78.520, 256.535 
" />
<path d="M 90.993, 256.535 
	L 90.992, 256.535 
	L 90.992, 255.189 
	L 101.906, 255.189 
	L 101.906, 253.807 
	L 90.992, 253.807 
	L 90.992, 249.732 
	L 103.465, 249.732 
	L 103.465, 251.079 
	L 92.551, 251.079 
	L 92.551, 252.461 
" />
<path d="M 92.551, 252.461 
	L 103.465, 252.461 
	L 103.465, 256.535 
	L 90.992, 256.535 
" />
<path d="M 103.465, 256.535 
	L 103.465, 256.535 
	L 103.465, 255.189 
	L 114.378, 255.189 
	L 114.378, 253.807 
	L 103.465, 253.807 
	L 103.465, 249.732 
	L 115.937, 249.732 
	L 115.937, 251.079 
	L 105.024, 251.079 
	L 105.024, 252.461 
" />
<path d="M 105.024, 252.461 
	L 115.937, 252.461 
	L 115.937, 256.535 
	L 103.465, 256.535 
" />
<path d="M 116.221, 256.535 
	L 116.220, 256.535 
	L 116.220, 250.193 
	L 136.063, 250.193 
	L 136.063, 251.539 
	L 117.921, 251.539 
	L 117.921, 256.535 
	L 116.220, 256.535 
	L 116.220, 248.811 
	L 116.220, 247.465 
	L 136.063, 247.465 
" />
<path d="M 136.063, 247.465 
	L 136.063, 248.811 
	L 116.220, 248.811 
" />
<path d="M 136.064, 256.535 
	L 136.063, 256.535 
	L 136.063, 249.732 
	L 148.323, 249.732 
	L 148.323, 251.079 
	L 137.764, 251.079 
	L 137.764, 256.535 
	L 136.063, 256.535 
" />
<path d="M 158.953, 252.460 
	L 158.953, 252.461 
	L 158.953, 251.079 
	L 149.598, 251.079 
	L 149.598, 252.461 
	L 158.953, 252.461 
	L 148.039, 256.535 
	L 148.039, 249.732 
	L 160.512, 249.732 
	L 160.512, 253.807 
	L 149.598, 253.807 
" />
<path d="M 149.598, 253.807 
	L 149.598, 255.189 
	L 160.512, 255.189 
	L 160.512, 256.535 
	L 148.039, 256.535 
" />
<path d="M 172.135, 255.188 
	L 172.134, 255.189 
	L 172.134, 251.079 
	L 162.496, 251.079 
	L 162.496, 255.189 
	L 172.134, 255.189 
	L 172.134, 258.803 
	L 172.134, 256.535 
	L 160.795, 256.535 
	L 160.795, 249.732 
	L 173.835, 249.732 
" />
<path d="M 173.835, 249.732 
	L 173.835, 258.803 
	L 172.134, 258.803 
" />
<path d="M 173.835, 256.535 
	L 173.835, 256.535 
	L 173.835, 249.732 
	L 175.535, 249.732 
	L 175.535, 255.189 
	L 185.173, 255.189 
	L 185.173, 249.732 
	L 186.874, 249.732 
	L 186.874, 256.535 
	L 173.835, 256.535 
" />
<path d="M 197.505, 252.460 
	L 197.504, 252.461 
	L 197.504, 251.079 
	L 188.150, 251.079 
	L 188.150, 252.461 
	L 197.504, 252.461 
	L 186.591, 256.535 
	L 186.591, 249.732 
	L 199.063, 249.732 
	L 199.063, 253.807 
	L 188.150, 253.807 
" />
<path d="M 188.150, 253.807 
	L 188.150, 255.189 
	L 199.063, 255.189 
	L 199.063, 256.535 
	L 186.591, 256.535 
" />
<path d="M 199.347, 256.535 
	L 199.346, 256.535 
	L 199.346, 249.732 
	L 212.386, 249.732 
	L 212.386, 256.535 
	L 210.685, 256.535 
	L 210.685, 251.079 
	L 201.047, 251.079 
	L 201.047, 256.535 
	L 199.346, 256.535 
" />
<path d="M 212.387, 256.535 
	L 212.386, 256.535 
	L 212.386, 249.732 
	L 224.646, 249.732 
	L 224.646, 251.079 
	L 214.087, 251.079 
	L 214.087, 255.189 
	L 224.646, 255.189 
	L 224.646, 256.535 
	L 212.386, 256.535 
" />
<path d="M 225.391, 258.802 
	L 225.390, 258.803 
	L 225.390, 257.421 
	L 235.984, 257.421 
	L 235.984, 256.535 
	L 232.937, 256.535 
	L 225.390, 249.732 
	L 227.658, 249.732 
	L 233.717, 255.189 
	L 235.984, 255.189 
	L 235.984, 249.732 
" />
<path d="M 235.984, 249.732 
	L 237.685, 249.732 
	L 237.685, 258.803 
	L 225.390, 258.803 
" />
<path d="M 27.072, 274.251 
	L 27.071, 274.252 
	L 27.071, 266.528 
	L 17.256, 266.528 
	L 17.256, 265.181 
	L 38.587, 265.181 
	L 38.587, 266.528 
	L 28.772, 266.528 
	L 28.772, 274.252 
	L 27.071, 274.252 
" />
<path d="M 39.331, 274.251 
	L 39.331, 274.252 
	L 39.331, 265.181 
	L 41.032, 265.181 
	L 41.032, 267.449 
	L 52.370, 267.449 
	L 52.370, 274.252 
	L 50.669, 274.252 
	L 50.669, 268.795 
	L 41.032, 268.795 
	L 41.032, 274.252 
	L 39.331, 274.252 
" />
<path d="M 39.331, 274.252 
" />
<path d="M 63.001, 270.177 
	L 63.000, 270.177 
	L 63.000, 268.795 
	L 53.646, 268.795 
	L 53.646, 270.177 
	L 63.000, 270.177 
	L 52.087, 274.252 
	L 52.087, 267.449 
	L 64.559, 267.449 
	L 64.559, 271.524 
	L 53.646, 271.524 
	L 53.646, 272.906 
" />
<path d="M 53.646, 272.906 
	L 64.559, 272.906 
	L 64.559, 274.252 
	L 52.087, 274.252 
" />
<path d="M 64.560, 274.251 
	L 64.559, 274.252 
	L 64.559, 272.906 
	L 84.224, 272.906 
	L 84.224, 274.252 
	L 64.559, 274.252 
	L 64.559, 269.256 
	L 64.559, 267.909 
	L 84.224, 267.909 
	L 84.224, 269.256 
	L 64.559, 269.256 
	L 64.559, 266.528 
" />
<path d="M 64.559, 266.528 
	L 64.559, 265.181 
	L 84.224, 265.181 
	L 84.224, 266.528 
	L 64.559, 266.528 
" />
<path d="M 95.847, 272.905 
	L 95.846, 272.906 
	L 95.846, 268.795 
	L 86.209, 268.795 
	L 86.209, 272.906 
	L 95.846, 272.906 
	L 84.508, 274.252 
	L 84.508, 267.449 
	L 95.846, 267.449 
	L 95.846, 265.181 
	L 97.547, 265.181 
	L 97.547, 274.252 
" />
<path d="M 97.547, 274.252 
	L 84.508, 274.252 
" />
<path d="M 108.887, 272.905 
	L 108.886, 272.906 
	L 108.886, 268.795 
	L 99.248, 268.795 
	L 99.248, 272.906 
	L 108.886, 272.906 
	L 97.547, 276.520 
	L 97.547, 275.138 
	L 108.886, 275.138 
	L 108.886, 274.252 
	L 97.547, 274.252 
" />
<path d="M 97.547, 274.252 
	L 97.547, 267.449 
	L 110.587, 267.449 
	L 110.587, 276.520 
	L 97.547, 276.520 
" />
<path d="M 121.217, 270.177 
	L 121.217, 270.177 
	L 121.217, 268.795 
	L 111.862, 268.795 
	L 111.862, 270.177 
	L 121.217, 270.177 
	L 110.303, 274.252 
	L 110.303, 267.449 
	L 122.776, 267.449 
	L 122.776, 271.524 
	L 111.862, 271.524 
" />
<path d="M 111.862, 271.524 
	L 111.862, 272.906 
	L 122.776, 272.906 
	L 122.776, 274.252 
	L 110.303, 274.252 
" />
<path d="M 143.469, 272.905 
	L 143.469, 272.906 
	L 143.469, 266.528 
	L 124.760, 266.528 
	L 124.760, 272.906 
	L 143.469, 272.906 
	L 123.059, 274.252 
	L 123.059, 265.181 
	L 145.169, 265.181 
	L 145.169, 274.252 
	L 123.059, 274.252 
" />
<path d="M 123.059, 274.252 
" />
<path d="M 145.170, 274.251 
	L 145.169, 274.252 
	L 145.169, 267.449 
	L 157.429, 267.449 
	L 157.429, 268.795 
	L 146.870, 268.795 
	L 146.870, 270.177 
	L 157.429, 270.177 
	L 157.429, 271.524 
	L 146.870, 271.524 
	L 146.870, 274.252 
" />
<path d="M 146.870, 274.252 
	L 145.169, 274.252 
" />
<path d="M 157.430, 274.712 
	L 157.429, 274.713 
	L 157.429, 265.181 
	L 159.130, 265.181 
	L 159.130, 272.658 
	L 168.484, 268.583 
	L 177.839, 272.658 
	L 177.839, 265.181 
	L 179.539, 265.181 
	L 179.539, 274.713 
	L 168.484, 269.929 
" />
<path d="M 168.484, 269.929 
	L 157.429, 274.713 
" />
<path d="M 179.540, 274.251 
	L 179.539, 274.252 
	L 179.539, 265.181 
	L 181.240, 265.181 
	L 181.240, 267.449 
	L 192.579, 267.449 
	L 192.579, 274.252 
	L 190.878, 274.252 
	L 190.878, 268.795 
	L 181.240, 268.795 
	L 181.240, 274.252 
" />
<path d="M 181.240, 274.252 
	L 179.539, 274.252 
" />
<path d="M 203.918, 272.905 
	L 203.917, 272.906 
	L 203.917, 268.795 
	L 201.650, 268.795 
	L 197.114, 272.906 
	L 203.917, 272.906 
	L 193.323, 274.252 
	L 199.382, 268.795 
	L 193.323, 268.795 
	L 193.323, 267.449 
	L 205.618, 267.449 
" />
<path d="M 205.618, 267.449 
	L 205.618, 274.252 
	L 193.323, 274.252 
" />
<path d="M 204.875, 274.251 
	L 204.874, 274.252 
	L 204.874, 265.181 
	L 206.575, 265.181 
	L 206.575, 267.449 
	L 217.134, 267.449 
	L 217.134, 268.795 
	L 206.575, 268.795 
	L 206.575, 272.906 
	L 217.134, 272.906 
	L 217.134, 274.252 
" />
<path d="M 217.134, 274.252 
	L 204.874, 274.252 
" />
<path d="M 217.135, 274.251 
	L 217.134, 274.252 
	L 217.134, 265.181 
	L 218.835, 265.181 
	L 218.835, 274.252 
	L 217.134, 274.252 
" />
<path d="M 218.552, 274.251 
	L 218.551, 274.252 
	L 218.551, 272.906 
	L 229.465, 272.906 
	L 229.465, 271.524 
	L 218.551, 271.524 
	L 218.551, 267.449 
	L 231.024, 267.449 
	L 231.024, 268.795 
	L 220.110, 268.795 
	L 220.110, 270.177 
" />
<path d="M 220.110, 270.177 
	L 231.024, 270.177 
	L 231.024, 274.252 
	L 218.551, 274.252 
" />
<path d="M 17.717, 284.881 
	L 17.717, 284.882 
	L 28.311, 275.350 
	L 38.870, 284.882 
	L 36.602, 284.882 
	L 28.311, 277.370 
	L 19.984, 284.882 
	L 17.717, 284.882 
" />
<path d="M 50.493, 283.535 
	L 50.492, 283.535 
	L 50.492, 279.425 
	L 40.854, 279.425 
	L 40.854, 283.535 
	L 50.492, 283.535 
	L 39.154, 284.882 
	L 39.154, 278.079 
	L 50.492, 278.079 
	L 50.492, 275.811 
	L 52.193, 275.811 
	L 52.193, 284.882 
" />
<path d="M 52.193, 284.882 
	L 39.154, 284.882 
" />
<path d="M 52.194, 284.881 
	L 52.193, 284.882 
	L 52.193, 278.079 
	L 62.965, 278.079 
	L 62.965, 284.882 
	L 61.264, 284.882 
	L 61.264, 279.425 
	L 58.429, 279.425 
	L 58.429, 284.882 
	L 56.728, 284.882 
	L 56.728, 279.425 
	L 53.894, 279.425 
" />
<path d="M 53.894, 279.425 
	L 53.894, 284.882 
	L 52.193, 284.882 
" />
<path d="M 62.965, 284.881 
	L 62.965, 284.882 
	L 62.965, 278.079 
	L 64.665, 278.079 
	L 64.665, 284.882 
	L 62.965, 284.882 
	L 62.965, 277.158 
	L 62.965, 275.811 
	L 64.665, 275.811 
	L 64.665, 277.158 
	L 62.965, 277.158 
" />
<path d="M 64.666, 284.881 
	L 64.665, 284.882 
	L 64.665, 278.079 
	L 77.705, 278.079 
	L 77.705, 284.882 
	L 76.004, 284.882 
	L 76.004, 279.425 
	L 66.366, 279.425 
	L 66.366, 284.882 
	L 64.665, 284.882 
" />
<path d="M 77.705, 284.881 
	L 77.705, 284.882 
	L 77.705, 278.079 
	L 79.406, 278.079 
	L 79.406, 284.882 
	L 77.705, 284.882 
	L 77.705, 277.158 
	L 77.705, 275.811 
	L 79.406, 275.811 
	L 79.406, 277.158 
	L 77.705, 277.158 
" />
<path d="M 79.123, 284.881 
	L 79.122, 284.882 
	L 79.122, 283.535 
	L 90.035, 283.535 
	L 90.035, 282.154 
	L 79.122, 282.154 
	L 79.122, 278.079 
	L 91.595, 278.079 
	L 91.595, 279.425 
	L 80.681, 279.425 
	L 80.681, 280.807 
	L 91.595, 280.807 
" />
<path d="M 91.595, 280.807 
	L 91.595, 284.882 
	L 79.122, 284.882 
" />
<path d="M 91.879, 284.881 
	L 91.878, 284.882 
	L 91.878, 275.811 
	L 93.579, 275.811 
	L 93.579, 278.079 
	L 104.138, 278.079 
	L 104.138, 279.425 
	L 93.579, 279.425 
	L 93.579, 283.535 
	L 104.138, 283.535 
	L 104.138, 284.882 
" />
<path d="M 104.138, 284.882 
	L 91.878, 284.882 
" />
<path d="M 104.139, 284.881 
	L 104.138, 284.882 
	L 104.138, 278.079 
	L 116.398, 278.079 
	L 116.398, 279.425 
	L 105.839, 279.425 
	L 105.839, 284.882 
	L 104.138, 284.882 
" />
<path d="M 127.737, 283.535 
	L 127.736, 283.535 
	L 127.736, 279.425 
	L 125.469, 279.425 
	L 120.933, 283.535 
	L 127.736, 283.535 
	L 117.142, 284.882 
	L 123.201, 279.425 
	L 117.142, 279.425 
	L 117.142, 278.079 
	L 129.437, 278.079 
" />
<path d="M 129.437, 278.079 
	L 129.437, 284.882 
	L 117.142, 284.882 
" />
<path d="M 128.694, 284.881 
	L 128.693, 284.882 
	L 128.693, 275.811 
	L 130.394, 275.811 
	L 130.394, 278.079 
	L 140.953, 278.079 
	L 140.953, 279.425 
	L 130.394, 279.425 
	L 130.394, 283.535 
	L 140.953, 283.535 
	L 140.953, 284.882 
" />
<path d="M 140.953, 284.882 
	L 128.693, 284.882 
" />
<path d="M 140.953, 284.881 
	L 140.953, 284.882 
	L 140.953, 278.079 
	L 142.654, 278.079 
	L 142.654, 284.882 
	L 140.953, 284.882 
	L 140.953, 277.158 
	L 140.953, 275.811 
	L 142.654, 275.811 
	L 142.654, 277.158 
	L 140.953, 277.158 
" />
<path d="M 140.953, 277.158 
" />
<path d="M 142.654, 284.881 
	L 142.654, 284.882 
	L 142.654, 278.079 
	L 144.354, 278.079 
	L 144.354, 283.535 
	L 146.622, 283.535 
	L 152.646, 278.079 
	L 154.913, 278.079 
	L 147.366, 284.882 
	L 142.654, 284.882 
" />
<path d="M 165.544, 280.806 
	L 165.543, 280.807 
	L 165.543, 279.425 
	L 156.189, 279.425 
	L 156.189, 280.807 
	L 165.543, 280.807 
	L 154.630, 284.882 
	L 154.630, 278.079 
	L 167.102, 278.079 
	L 167.102, 282.154 
	L 156.189, 282.154 
" />
<path d="M 156.189, 282.154 
	L 156.189, 283.535 
	L 167.102, 283.535 
	L 167.102, 284.882 
	L 154.630, 284.882 
" />
<path d="M 167.387, 284.881 
	L 167.386, 284.882 
	L 167.386, 275.811 
	L 169.087, 275.811 
	L 169.087, 284.882 
	L 167.386, 284.882 
" />
<path d="M 169.831, 287.149 
	L 169.831, 287.150 
	L 169.831, 285.768 
	L 180.425, 285.768 
	L 180.425, 284.882 
	L 177.378, 284.882 
	L 169.831, 278.079 
	L 172.098, 278.079 
	L 178.158, 283.535 
	L 180.425, 283.535 
	L 180.425, 278.079 
" />
<path d="M 180.425, 278.079 
	L 182.126, 278.079 
	L 182.126, 287.150 
	L 169.831, 287.150 
" />
<path d="M 18.001, 295.511 
	L 18.000, 295.512 
	L 18.000, 289.169 
	L 32.528, 289.169 
	L 35.575, 287.787 
	L 18.000, 287.787 
	L 18.000, 286.441 
	L 39.331, 286.441 
	L 33.307, 290.516 
	L 19.701, 290.516 
	L 19.701, 295.512 
	L 18.000, 295.512 
" />
<path d="M 18.000, 295.512 
" />
<path d="M 50.670, 294.165 
	L 50.669, 294.165 
	L 50.669, 290.055 
	L 41.032, 290.055 
	L 41.032, 294.165 
	L 50.669, 294.165 
	L 39.331, 295.512 
	L 39.331, 288.709 
	L 52.370, 288.709 
	L 52.370, 295.512 
	L 39.331, 295.512 
" />
<path d="M 52.087, 295.511 
	L 52.087, 295.512 
	L 52.087, 294.165 
	L 63.000, 294.165 
	L 63.000, 292.784 
	L 52.087, 292.784 
	L 52.087, 288.709 
	L 64.559, 288.709 
	L 64.559, 290.055 
	L 53.646, 290.055 
	L 53.646, 291.437 
	L 64.559, 291.437 
" />
<path d="M 64.559, 291.437 
	L 64.559, 295.512 
	L 52.087, 295.512 
" />
<path d="M 64.560, 295.511 
	L 64.559, 295.512 
	L 64.559, 294.165 
	L 75.472, 294.165 
	L 75.472, 292.784 
	L 64.559, 292.784 
	L 64.559, 288.709 
	L 77.032, 288.709 
	L 77.032, 290.055 
	L 66.118, 290.055 
	L 66.118, 291.437 
	L 77.032, 291.437 
" />
<path d="M 77.032, 291.437 
	L 77.032, 295.512 
	L 64.559, 295.512 
" />
<path d="M 77.316, 295.511 
	L 77.315, 295.512 
	L 77.315, 288.709 
	L 79.016, 288.709 
	L 79.016, 295.512 
	L 77.315, 295.512 
	L 77.315, 287.787 
	L 77.315, 286.441 
	L 79.016, 286.441 
	L 79.016, 287.787 
	L 77.315, 287.787 
" />
<path d="M 90.355, 294.165 
	L 90.354, 294.165 
	L 90.354, 290.055 
	L 80.717, 290.055 
	L 80.717, 294.165 
	L 90.354, 294.165 
	L 79.016, 295.512 
	L 79.016, 286.441 
	L 80.717, 286.441 
	L 80.717, 288.709 
	L 92.055, 288.709 
	L 92.055, 295.512 
" />
<path d="M 92.055, 295.512 
	L 79.016, 295.512 
" />
<path d="M 92.056, 295.511 
	L 92.055, 295.512 
	L 92.055, 286.441 
	L 93.756, 286.441 
	L 93.756, 295.512 
	L 92.055, 295.512 
" />
<path d="M 104.387, 291.436 
	L 104.386, 291.437 
	L 104.386, 290.055 
	L 95.032, 290.055 
	L 95.032, 291.437 
	L 104.386, 291.437 
	L 93.472, 295.512 
	L 93.472, 288.709 
	L 105.945, 288.709 
	L 105.945, 292.784 
	L 95.032, 292.784 
" />
<path d="M 95.032, 292.784 
	L 95.032, 294.165 
	L 105.945, 294.165 
	L 105.945, 295.512 
	L 93.472, 295.512 
" />
<path d="M 18.001, 313.228 
	L 18.000, 313.228 
	L 18.000, 311.882 
	L 38.409, 311.882 
	L 38.409, 308.232 
	L 18.000, 308.232 
	L 18.000, 304.158 
	L 40.110, 304.158 
	L 40.110, 305.504 
	L 19.701, 305.504 
	L 19.701, 306.886 
	L 40.110, 306.886 
" />
<path d="M 40.110, 306.886 
	L 40.110, 313.228 
	L 18.000, 313.228 
" />
<path d="M 40.111, 313.228 
	L 40.110, 313.228 
	L 40.110, 306.425 
	L 41.811, 306.425 
	L 41.811, 313.228 
	L 40.110, 313.228 
	L 40.110, 305.504 
	L 40.110, 304.158 
	L 41.811, 304.158 
	L 41.811, 305.504 
	L 40.110, 305.504 
" />
<path d="M 41.812, 313.228 
	L 41.811, 313.228 
	L 41.811, 306.425 
	L 54.850, 306.425 
	L 54.850, 313.228 
	L 53.150, 313.228 
	L 53.150, 307.772 
	L 43.512, 307.772 
	L 43.512, 313.228 
	L 41.811, 313.228 
" />
<path d="M 65.481, 309.153 
	L 65.480, 309.154 
	L 65.480, 307.772 
	L 56.126, 307.772 
	L 56.126, 309.154 
	L 65.480, 309.154 
	L 54.567, 313.228 
	L 54.567, 306.425 
	L 67.039, 306.425 
	L 67.039, 310.500 
	L 56.126, 310.500 
	L 56.126, 311.882 
" />
<path d="M 56.126, 311.882 
	L 67.039, 311.882 
	L 67.039, 313.228 
	L 54.567, 313.228 
" />
<path d="M 67.324, 313.228 
	L 67.323, 313.228 
	L 67.323, 304.158 
	L 88.654, 304.158 
	L 84.118, 308.091 
	L 83.374, 308.728 
	L 88.654, 313.228 
	L 86.386, 313.228 
	L 81.106, 308.728 
	L 84.898, 305.504 
	L 69.024, 305.504 
	L 69.024, 313.228 
" />
<path d="M 69.024, 313.228 
	L 67.323, 313.228 
" />
<path d="M 99.993, 311.881 
	L 99.992, 311.882 
	L 99.992, 307.772 
	L 97.724, 307.772 
	L 93.189, 311.882 
	L 99.992, 311.882 
	L 89.398, 313.228 
	L 95.457, 307.772 
	L 89.398, 307.772 
	L 89.398, 306.425 
	L 101.693, 306.425 
	L 101.693, 313.228 
" />
<path d="M 101.693, 313.228 
	L 89.398, 313.228 
" />
<path d="M 100.950, 313.228 
	L 100.949, 313.228 
	L 100.949, 306.425 
	L 102.650, 306.425 
	L 102.650, 311.882 
	L 104.917, 311.882 
	L 110.941, 306.425 
	L 113.209, 306.425 
	L 105.661, 313.228 
	L 100.949, 313.228 
" />
<path d="M 123.839, 309.153 
	L 123.839, 309.154 
	L 123.839, 307.772 
	L 114.484, 307.772 
	L 114.484, 309.154 
	L 123.839, 309.154 
	L 112.925, 313.228 
	L 112.925, 306.425 
	L 125.398, 306.425 
	L 125.398, 310.500 
	L 114.484, 310.500 
" />
<path d="M 114.484, 310.500 
	L 114.484, 311.882 
	L 125.398, 311.882 
	L 125.398, 313.228 
	L 112.925, 313.228 
" />
<path d="M 18.001, 330.944 
	L 18.000, 330.945 
	L 18.000, 324.602 
	L 32.528, 324.602 
	L 35.575, 323.221 
	L 18.000, 323.221 
	L 18.000, 321.874 
	L 39.331, 321.874 
	L 33.307, 325.949 
	L 19.701, 325.949 
	L 19.701, 330.945 
	L 18.000, 330.945 
" />
<path d="M 18.000, 330.945 
" />
<path d="M 50.670, 329.598 
	L 50.669, 329.598 
	L 50.669, 325.488 
	L 48.402, 325.488 
	L 43.866, 329.598 
	L 50.669, 329.598 
	L 40.075, 330.945 
	L 46.134, 325.488 
	L 40.075, 325.488 
	L 40.075, 324.142 
	L 52.370, 324.142 
	L 52.370, 330.945 
" />
<path d="M 52.370, 330.945 
	L 40.075, 330.945 
" />
<path d="M 51.627, 330.944 
	L 51.626, 330.945 
	L 51.626, 321.874 
	L 53.327, 321.874 
	L 53.327, 330.945 
	L 51.626, 330.945 
" />
<path d="M 64.666, 329.598 
	L 64.665, 329.598 
	L 64.665, 325.488 
	L 55.028, 325.488 
	L 55.028, 329.598 
	L 64.665, 329.598 
	L 53.327, 330.945 
	L 53.327, 324.142 
	L 66.366, 324.142 
	L 66.366, 330.945 
	L 53.327, 330.945 
" />
<path d="M 66.367, 330.944 
	L 66.366, 330.945 
	L 66.366, 324.142 
	L 79.406, 324.142 
	L 79.406, 330.945 
	L 77.705, 330.945 
	L 77.705, 325.488 
	L 68.067, 325.488 
	L 68.067, 330.945 
	L 66.366, 330.945 
" />
<path d="M 90.745, 329.598 
	L 90.744, 329.598 
	L 90.744, 325.488 
	L 81.106, 325.488 
	L 81.106, 329.598 
	L 90.744, 329.598 
	L 79.406, 330.945 
	L 79.406, 324.142 
	L 92.445, 324.142 
	L 92.445, 330.945 
	L 79.406, 330.945 
" />
<path d="M 103.784, 329.598 
	L 103.783, 329.598 
	L 103.783, 325.488 
	L 94.146, 325.488 
	L 94.146, 329.598 
	L 103.783, 329.598 
	L 92.445, 333.213 
	L 92.445, 324.142 
	L 105.484, 324.142 
	L 105.484, 330.945 
	L 94.146, 330.945 
" />
<path d="M 94.146, 330.945 
	L 94.146, 333.213 
	L 92.445, 333.213 
" />
<path d="M 105.202, 330.944 
	L 105.201, 330.945 
	L 105.201, 329.598 
	L 116.114, 329.598 
	L 116.114, 328.217 
	L 105.201, 328.217 
	L 105.201, 324.142 
	L 117.673, 324.142 
	L 117.673, 325.488 
	L 106.760, 325.488 
	L 106.760, 326.870 
" />
<path d="M 106.760, 326.870 
	L 117.673, 326.870 
	L 117.673, 330.945 
	L 105.201, 330.945 
" />
<path d="M 117.957, 330.944 
	L 117.957, 330.945 
	L 117.957, 324.142 
	L 119.657, 324.142 
	L 119.657, 330.945 
	L 117.957, 330.945 
	L 117.957, 323.221 
	L 117.957, 321.874 
	L 119.657, 321.874 
	L 119.657, 323.221 
	L 117.957, 323.221 
" />
<path d="M 117.957, 323.221 
" />
<path d="M 130.997, 329.598 
	L 130.996, 329.598 
	L 130.996, 325.488 
	L 128.728, 325.488 
	L 124.193, 329.598 
	L 130.996, 329.598 
	L 120.402, 330.945 
	L 126.461, 325.488 
	L 120.402, 325.488 
	L 120.402, 324.142 
	L 132.697, 324.142 
" />
<path d="M 132.697, 324.142 
	L 132.697, 330.945 
	L 120.402, 330.945 
" />
<path d="M 18.001, 348.661 
	L 18.000, 348.661 
	L 18.000, 339.130 
	L 29.055, 343.878 
	L 40.110, 339.130 
	L 40.110, 348.661 
	L 38.409, 348.661 
	L 38.409, 341.150 
	L 29.055, 345.260 
	L 19.701, 341.150 
	L 19.701, 348.661 
	L 18.000, 348.661 
" />
<path d="M 18.000, 348.661 
" />
<path d="M 51.450, 347.314 
	L 51.449, 347.315 
	L 51.449, 343.205 
	L 41.811, 343.205 
	L 41.811, 347.315 
	L 51.449, 347.315 
	L 40.110, 348.661 
	L 40.110, 341.858 
	L 53.150, 341.858 
	L 53.150, 348.661 
	L 40.110, 348.661 
" />
<path d="M 53.150, 348.661 
	L 53.150, 348.661 
	L 53.150, 341.858 
	L 54.850, 341.858 
	L 54.850, 347.315 
	L 64.488, 347.315 
	L 64.488, 341.858 
	L 66.189, 341.858 
	L 66.189, 348.661 
	L 53.150, 348.661 
" />
<path d="M 66.190, 348.661 
	L 66.189, 348.661 
	L 66.189, 341.858 
	L 79.228, 341.858 
	L 79.228, 348.661 
	L 77.528, 348.661 
	L 77.528, 343.205 
	L 67.890, 343.205 
	L 67.890, 348.661 
	L 66.189, 348.661 
" />
<path d="M 79.229, 348.661 
	L 79.228, 348.661 
	L 79.228, 339.591 
	L 80.929, 339.591 
	L 80.929, 341.858 
	L 91.488, 341.858 
	L 91.488, 343.205 
	L 80.929, 343.205 
	L 80.929, 347.315 
	L 91.488, 347.315 
	L 91.488, 348.661 
	L 79.228, 348.661 
" />
<path d="M 79.228, 348.661 
" />
<path d="M 102.827, 347.314 
	L 102.827, 347.315 
	L 102.827, 343.205 
	L 100.559, 343.205 
	L 96.024, 347.315 
	L 102.827, 347.315 
	L 92.232, 348.661 
	L 98.291, 343.205 
	L 92.232, 343.205 
	L 92.232, 341.858 
	L 104.528, 341.858 
" />
<path d="M 104.528, 341.858 
	L 104.528, 348.661 
	L 92.232, 348.661 
" />
<path d="M 103.784, 348.661 
	L 103.783, 348.661 
	L 103.783, 341.858 
	L 105.484, 341.858 
	L 105.484, 348.661 
	L 103.783, 348.661 
	L 103.783, 340.937 
	L 103.783, 339.591 
	L 105.484, 339.591 
	L 105.484, 340.937 
	L 103.783, 340.937 
" />
<path d="M 103.783, 340.937 
" />
<path d="M 105.485, 348.661 
	L 105.484, 348.661 
	L 105.484, 341.858 
	L 118.524, 341.858 
	L 118.524, 348.661 
	L 116.823, 348.661 
	L 116.823, 343.205 
	L 107.185, 343.205 
	L 107.185, 348.661 
	L 105.484, 348.661 
" />
<path d="M 136.843, 347.314 
	L 136.843, 347.315 
	L 129.295, 340.937 
	L 120.224, 340.937 
	L 120.224, 347.315 
	L 136.843, 347.315 
	L 118.524, 348.661 
	L 118.524, 339.591 
	L 130.039, 339.591 
	L 140.634, 348.661 
	L 118.524, 348.661 
" />
<path d="M 118.524, 348.661 
" />
<path d="M 140.635, 348.661 
	L 140.634, 348.661 
	L 140.634, 341.858 
	L 152.894, 341.858 
	L 152.894, 343.205 
	L 142.335, 343.205 
	L 142.335, 348.661 
	L 140.634, 348.661 
" />
<path d="M 164.233, 347.314 
	L 164.232, 347.315 
	L 164.232, 343.205 
	L 154.595, 343.205 
	L 154.595, 347.315 
	L 164.232, 347.315 
	L 152.894, 348.661 
	L 152.894, 341.858 
	L 165.933, 341.858 
	L 165.933, 348.661 
	L 152.894, 348.661 
" />
<path d="M 152.894, 348.661 
" />
<path d="M 165.934, 348.661 
	L 165.933, 348.661 
	L 165.933, 341.858 
	L 178.972, 341.858 
	L 178.972, 348.661 
	L 177.272, 348.661 
	L 177.272, 343.205 
	L 167.634, 343.205 
	L 167.634, 348.661 
	L 165.933, 348.661 
" />
<path d="M 189.603, 344.586 
	L 189.602, 344.587 
	L 189.602, 343.205 
	L 180.248, 343.205 
	L 180.248, 344.587 
	L 189.602, 344.587 
	L 178.689, 348.661 
	L 178.689, 341.858 
	L 191.161, 341.858 
	L 191.161, 345.933 
	L 180.248, 345.933 
" />
<path d="M 180.248, 345.933 
	L 180.248, 347.315 
	L 191.161, 347.315 
	L 191.161, 348.661 
	L 178.689, 348.661 
" />
<path d="M 13.961, 191.409 
	L 13.961, 191.409 
	L 13.961, 193.075 
	L 13.961, 205.264 
	L 13.961, 206.929 
	L 12.295, 206.929 
	L 10.630, 206.929 
	L 10.630, 205.158 
	L 10.630, 193.075 
	L 10.630, 191.409 
	L 13.961, 191.409 
	L 21.969, 191.409 
" />
<path d="M 21.969, 191.409 
	L 22.535, 191.161 
	L 23.031, 191.161 
	L 23.492, 191.161 
	L 23.917, 191.409 
	L 24.413, 191.764 
	L 24.413, 192.472 
	L 24.413, 192.969 
	L 24.201, 193.642 
	L 19.240, 199.134 
	L 24.201, 204.697 
	L 24.378, 205.087 
" />
<path d="M 24.378, 205.087 
	L 24.378, 205.406 
	L 24.378, 206.114 
	L 23.634, 206.646 
	L 23.280, 206.929 
	L 22.783, 206.929 
	L 21.791, 206.929 
	L 20.303, 205.831 
	L 15.874, 200.835 
	L 14.244, 199.169 
	L 15.874, 197.504 
	L 21.969, 191.409 
" />
<path d="M 21.969, 191.409 
" />
<path d="M 31.855, 203.598 
	L 31.854, 203.598 
	L 36.071, 203.598 
	L 36.035, 197.185 
	L 26.362, 206.256 
	L 25.724, 206.787 
	L 25.157, 206.787 
	L 24.520, 206.787 
	L 23.988, 206.079 
	L 23.528, 205.512 
	L 23.528, 204.945 
	L 23.528, 204.236 
" />
<path d="M 23.528, 204.236 
	L 24.272, 203.634 
	L 36.283, 192.189 
	L 37.169, 191.303 
	L 37.878, 191.303 
	L 38.374, 191.303 
	L 38.551, 191.339 
	L 39.366, 191.622 
	L 39.366, 193.358 
	L 39.366, 204.591 
	L 39.366, 207.000 
	L 36.602, 206.929 
" />
<path d="M 36.602, 206.929 
	L 31.854, 206.929 
	L 29.941, 207.000 
	L 29.941, 205.282 
	L 29.941, 203.563 
	L 31.854, 203.598 
" />
<path d="M 54.674, 203.669 
	L 54.673, 203.669 
	L 54.673, 204.697 
	L 53.575, 205.813 
	L 52.476, 206.929 
	L 51.378, 206.929 
	L 43.618, 206.929 
	L 42.520, 206.929 
	L 41.404, 205.813 
	L 40.287, 204.697 
	L 40.287, 203.598 
	L 40.323, 194.811 
" />
<path d="M 40.323, 194.811 
	L 40.287, 193.642 
	L 41.404, 192.526 
	L 42.520, 191.409 
	L 43.618, 191.409 
	L 51.378, 191.409 
	L 52.476, 191.409 
	L 53.575, 192.526 
	L 54.673, 193.642 
	L 54.673, 194.740 
	L 54.673, 203.669 
	L 51.378, 201.933 
" />
<path d="M 51.378, 201.933 
	L 51.378, 196.406 
	L 51.378, 194.740 
	L 49.713, 194.740 
	L 45.283, 194.740 
	L 43.618, 194.740 
	L 43.618, 196.441 
	L 43.618, 201.933 
	L 43.583, 203.634 
	L 45.283, 203.598 
	L 49.713, 203.598 
	L 51.378, 203.598 
" />
<path d="M 51.378, 203.598 
	L 51.378, 201.933 
" />
<path d="M 66.509, 191.409 
	L 66.508, 191.409 
	L 68.173, 191.409 
	L 68.173, 193.004 
	L 68.173, 194.669 
	L 66.508, 194.740 
	L 55.417, 194.740 
	L 53.752, 194.669 
	L 53.752, 193.075 
	L 53.752, 191.374 
	L 55.417, 191.409 
	L 66.508, 191.409 
" />
<path d="M 66.508, 191.409 
	L 59.280, 198.071 
	L 59.244, 195.874 
	L 61.087, 195.856 
	L 62.929, 195.839 
	L 62.929, 198.071 
	L 62.929, 204.697 
	L 62.823, 206.929 
	L 61.122, 206.929 
	L 61.087, 206.929 
	L 59.244, 206.894 
	L 59.280, 204.697 
" />
<path d="M 59.280, 204.697 
	L 59.280, 198.071 
" />
<path d="M 70.725, 191.409 
	L 70.724, 191.409 
	L 80.681, 191.409 
	L 82.346, 191.409 
	L 82.346, 193.075 
	L 82.346, 194.740 
	L 80.681, 194.740 
	L 73.488, 194.740 
	L 72.390, 194.740 
	L 72.390, 195.839 
	L 72.390, 202.500 
	L 72.390, 203.598 
" />
<path d="M 72.390, 203.598 
	L 73.488, 203.598 
	L 80.681, 203.598 
	L 82.346, 203.598 
	L 82.346, 205.264 
	L 82.346, 206.929 
	L 80.681, 206.929 
	L 70.724, 206.929 
	L 69.059, 206.929 
	L 69.059, 205.264 
	L 69.059, 193.181 
	L 69.059, 191.409 
" />
<path d="M 69.059, 191.409 
	L 70.724, 191.409 
	L 75.720, 197.504 
	L 78.484, 197.504 
	L 80.681, 197.504 
	L 80.681, 199.169 
	L 80.681, 200.835 
	L 78.484, 200.835 
	L 75.720, 200.835 
	L 73.488, 200.835 
	L 73.488, 199.169 
	L 73.488, 197.504 
" />
<path d="M 73.488, 197.504 
	L 75.720, 197.504 
" />
<path d="M 95.564, 206.928 
	L 95.563, 206.929 
	L 87.343, 206.929 
	L 85.287, 206.929 
	L 83.799, 205.476 
	L 82.346, 204.059 
	L 82.346, 202.039 
	L 82.346, 196.158 
	L 82.346, 194.138 
	L 83.799, 192.685 
	L 85.110, 191.409 
	L 87.059, 191.409 
" />
<path d="M 87.059, 191.409 
	L 87.272, 191.409 
	L 87.520, 191.409 
	L 94.394, 191.409 
	L 96.130, 191.409 
	L 96.130, 193.146 
	L 96.130, 194.882 
	L 94.394, 194.882 
	L 88.016, 194.882 
	L 85.783, 194.882 
	L 85.783, 197.008 
	L 85.783, 201.579 
" />
<path d="M 85.783, 201.579 
	L 85.783, 203.492 
	L 88.157, 203.492 
	L 95.563, 203.492 
	L 97.299, 203.492 
	L 97.299, 205.193 
	L 97.264, 206.929 
	L 95.563, 206.929 
" />
<path d="M 107.257, 200.834 
	L 107.256, 200.835 
	L 100.630, 200.835 
	L 98.965, 200.835 
	L 98.965, 199.169 
	L 98.965, 197.504 
	L 100.630, 197.504 
	L 107.256, 197.504 
	L 108.921, 197.504 
	L 108.921, 199.169 
	L 108.921, 200.835 
" />
<path d="M 108.921, 200.835 
	L 107.256, 200.835 
" />
<path d="M 114.698, 203.598 
	L 114.697, 203.598 
	L 118.913, 203.598 
	L 118.878, 197.185 
	L 109.205, 206.256 
	L 108.567, 206.787 
	L 108.000, 206.787 
	L 107.362, 206.787 
	L 106.831, 206.079 
	L 106.370, 205.512 
	L 106.370, 204.945 
" />
<path d="M 106.370, 204.945 
	L 106.370, 204.236 
	L 107.114, 203.634 
	L 119.126, 192.189 
	L 120.012, 191.303 
	L 120.720, 191.303 
	L 121.217, 191.303 
	L 121.394, 191.339 
	L 122.209, 191.622 
	L 122.209, 193.358 
	L 122.209, 204.591 
" />
<path d="M 122.209, 204.591 
	L 122.209, 207.000 
	L 119.445, 206.929 
	L 114.697, 206.929 
	L 112.783, 207.000 
	L 112.783, 205.282 
	L 112.783, 203.563 
	L 114.697, 203.598 
" />
<path d="M 123.095, 191.409 
	L 123.095, 191.409 
	L 124.760, 191.409 
	L 126.425, 191.409 
	L 126.425, 193.642 
	L 126.425, 202.500 
	L 126.425, 203.598 
	L 127.524, 203.598 
	L 133.122, 203.598 
	L 135.390, 203.598 
	L 135.425, 205.228 
" />
<path d="M 135.425, 205.228 
	L 135.425, 206.858 
	L 133.122, 206.929 
	L 125.681, 206.929 
	L 123.095, 206.929 
	L 123.095, 204.201 
	L 123.095, 193.606 
	L 123.095, 191.409 
" />
<path d="M 149.493, 202.322 
	L 149.492, 202.323 
	L 149.492, 204.697 
	L 148.553, 205.813 
	L 147.614, 206.929 
	L 144.957, 206.894 
	L 137.161, 206.929 
	L 135.425, 206.929 
	L 135.425, 205.193 
	L 135.425, 198.071 
	L 135.461, 195.839 
" />
<path d="M 135.461, 195.839 
	L 137.108, 195.839 
	L 138.756, 195.839 
	L 138.720, 198.071 
	L 138.720, 203.705 
	L 144.283, 203.705 
	L 146.020, 203.705 
	L 146.020, 202.252 
	L 146.020, 200.799 
	L 144.248, 200.799 
	L 142.087, 200.835 
" />
<path d="M 142.087, 200.835 
	L 139.783, 200.835 
	L 139.819, 199.169 
	L 139.854, 197.504 
	L 142.087, 197.504 
	L 144.283, 197.504 
	L 146.020, 197.539 
	L 146.037, 196.140 
	L 146.055, 194.740 
	L 144.390, 194.740 
	L 137.091, 194.740 
" />
<path d="M 137.091, 194.740 
	L 135.425, 194.740 
	L 135.425, 193.146 
	L 135.425, 191.409 
	L 137.161, 191.409 
	L 144.850, 191.409 
	L 147.047, 191.409 
	L 148.163, 192.526 
	L 149.280, 193.642 
	L 149.386, 195.839 
	L 149.386, 198.177 
" />
<path d="M 149.386, 198.177 
	L 147.969, 199.028 
	L 149.492, 200.020 
	L 149.492, 202.323 
" />
<path d="M 149.528, 191.444 
	L 149.528, 191.445 
	L 151.158, 191.445 
	L 151.193, 191.445 
	L 152.858, 191.445 
	L 152.787, 193.677 
	L 152.787, 201.969 
	L 152.787, 203.598 
	L 154.453, 203.634 
	L 158.846, 203.598 
	L 160.583, 203.634 
" />
<path d="M 160.583, 203.634 
	L 160.583, 201.898 
	L 160.583, 193.642 
	L 160.618, 191.409 
	L 162.283, 191.409 
	L 163.913, 191.409 
	L 163.913, 193.535 
	L 163.913, 203.598 
	L 163.913, 204.661 
	L 163.063, 205.778 
	L 162.213, 206.894 
" />
<path d="M 162.213, 206.894 
	L 161.079, 206.894 
	L 152.256, 206.894 
	L 151.122, 206.894 
	L 150.325, 205.795 
	L 149.528, 204.697 
	L 149.528, 203.598 
	L 149.492, 193.642 
	L 149.528, 191.445 
" />
<path d="M 175.359, 192.153 
	L 175.358, 192.154 
	L 176.244, 191.409 
	L 176.988, 191.409 
	L 177.272, 191.409 
	L 177.520, 191.516 
	L 178.476, 191.870 
	L 178.476, 193.500 
	L 178.476, 205.016 
	L 178.441, 207.000 
	L 176.811, 207.000 
" />
<path d="M 176.811, 207.000 
	L 176.776, 207.000 
	L 175.146, 207.000 
	L 175.110, 204.980 
	L 175.110, 198.142 
	L 175.075, 197.150 
	L 174.508, 197.681 
	L 166.039, 206.185 
	L 165.154, 207.000 
	L 164.409, 207.000 
	L 163.878, 207.000 
" />
<path d="M 163.878, 207.000 
	L 163.382, 206.504 
	L 162.886, 206.043 
	L 162.886, 205.476 
	L 162.886, 204.697 
	L 163.736, 203.811 
	L 175.358, 192.154 
	L 188.717, 191.835 
	L 188.717, 193.500 
	L 188.717, 204.768 
	L 188.717, 207.000 
" />
<path d="M 188.717, 207.000 
	L 187.051, 207.000 
	L 185.386, 207.000 
	L 185.386, 204.768 
	L 185.386, 198.142 
	L 185.386, 197.433 
	L 184.748, 197.965 
	L 182.587, 200.161 
	L 180.957, 201.295 
	L 180.071, 200.091 
	L 179.185, 198.886 
" />
<path d="M 179.185, 198.886 
	L 180.461, 197.469 
	L 185.669, 192.189 
	L 186.413, 191.409 
	L 187.193, 191.409 
	L 187.441, 191.409 
	L 187.689, 191.480 
	L 188.717, 191.835 
" />
<path d="M 204.166, 203.669 
	L 204.165, 203.669 
	L 204.165, 204.697 
	L 203.067, 205.813 
	L 201.969, 206.929 
	L 200.870, 206.929 
	L 193.110, 206.929 
	L 192.012, 206.929 
	L 190.896, 205.813 
	L 189.780, 204.697 
	L 189.780, 203.598 
" />
<path d="M 189.780, 203.598 
	L 189.815, 194.811 
	L 189.780, 193.642 
	L 190.896, 192.526 
	L 192.012, 191.409 
	L 193.110, 191.409 
	L 200.870, 191.409 
	L 201.969, 191.409 
	L 203.067, 192.526 
	L 204.165, 193.642 
	L 204.165, 194.740 
" />
<path d="M 204.165, 194.740 
	L 204.165, 203.669 
	L 200.870, 201.933 
	L 200.870, 196.406 
	L 200.870, 194.740 
	L 199.205, 194.740 
	L 194.776, 194.740 
	L 193.110, 194.740 
	L 193.110, 196.441 
	L 193.110, 201.933 
	L 193.075, 203.634 
" />
<path d="M 193.075, 203.634 
	L 194.776, 203.598 
	L 199.205, 203.598 
	L 200.870, 203.598 
	L 200.870, 201.933 
" />
<path d="M 218.552, 203.669 
	L 218.551, 203.669 
	L 218.551, 204.697 
	L 217.453, 205.813 
	L 216.354, 206.929 
	L 215.256, 206.929 
	L 207.496, 206.929 
	L 206.398, 206.929 
	L 205.282, 205.813 
	L 204.165, 204.697 
	L 204.165, 203.598 
" />
<path d="M 204.165, 203.598 
	L 204.201, 194.811 
	L 204.165, 193.642 
	L 205.282, 192.526 
	L 206.398, 191.409 
	L 207.496, 191.409 
	L 215.256, 191.409 
	L 216.354, 191.409 
	L 217.453, 192.526 
	L 218.551, 193.642 
	L 218.551, 194.740 
" />
<path d="M 218.551, 194.740 
	L 218.551, 203.669 
	L 215.256, 201.933 
	L 215.256, 196.406 
	L 215.256, 194.740 
	L 213.591, 194.740 
	L 209.161, 194.740 
	L 207.496, 194.740 
	L 207.496, 196.441 
	L 207.496, 201.933 
	L 207.461, 203.634 
" />
<path d="M 207.461, 203.634 
	L 209.161, 203.598 
	L 213.591, 203.598 
	L 215.256, 203.598 
	L 215.256, 201.933 
" />
<path d="M 225.780, 204.696 
	L 225.780, 204.697 
	L 225.780, 206.929 
	L 224.150, 206.929 
	L 222.484, 206.929 
	L 222.413, 204.697 
	L 222.413, 193.642 
	L 222.484, 191.409 
	L 224.150, 191.409 
	L 225.780, 191.409 
	L 225.780, 193.642 
" />
<path d="M 225.780, 193.642 
	L 225.780, 204.697 
" />
<path d="M 644.882, 634.961 
	L 644.882, 638.150 
	L 644.173, 639.213 
	L 642.756, 639.213 
	L 642.047, 638.150 
	L 642.047, 636.024 
	L 644.882, 636.024 
" />
<path d="M 640.630, 631.772 
	L 640.630, 630.709 
	L 644.882, 630.709 
" />
<path d="M 644.882, 631.772 
	L 644.882, 629.646 
" />
<path d="M 644.882, 626.457 
	L 644.882, 623.268 
	L 644.173, 622.205 
	L 642.756, 622.205 
	L 642.047, 623.268 
	L 642.047, 625.394 
" />
<path d="M 640.630, 625.394 
	L 644.882, 625.394 
" />
<path d="M 642.047, 620.079 
	L 644.173, 620.079 
	L 644.882, 619.016 
	L 644.882, 616.890 
	L 642.047, 616.890 
" />
<path d="M 644.882, 613.701 
	L 642.047, 613.701 
" />
<path d="M 642.756, 613.701 
	L 642.047, 612.638 
	L 642.756, 611.575 
	L 644.882, 611.575 
" />
<path d="M 642.756, 611.575 
	L 642.047, 610.512 
	L 642.756, 609.449 
	L 644.882, 609.449 
" />
<path d="M 644.173, 607.323 
	L 644.882, 606.260 
	L 644.882, 604.134 
	L 644.173, 603.071 
	L 641.339, 603.071 
	L 640.630, 604.134 
	L 640.630, 606.260 
	L 641.339, 607.323 
	L 644.173, 607.323 
" />
<path d="M 644.173, 600.945 
	L 644.882, 599.882 
	L 644.882, 597.756 
	L 644.173, 596.693 
	L 641.339, 596.693 
	L 640.630, 597.756 
	L 640.630, 599.882 
	L 641.339, 600.945 
	L 644.173, 600.945 
" />
<path d="M 644.882, 593.504 
	L 644.882, 591.378 
" />
<path d="M 644.882, 592.441 
	L 640.630, 592.441 
	L 641.339, 593.504 
" />
<path d="M 644.173, 583.937 
	L 644.882, 585.000 
	L 644.882, 586.063 
	L 644.173, 587.126 
	L 642.756, 587.126 
	L 642.047, 586.063 
	L 642.047, 585.000 
	L 642.756, 583.937 
" />
<path d="M 644.882, 580.748 
	L 644.173, 581.811 
	L 642.756, 581.811 
	L 642.047, 580.748 
	L 642.047, 579.685 
	L 642.756, 578.622 
	L 644.173, 578.622 
	L 644.882, 579.685 
	L 644.882, 580.748 
" />
<path d="M 642.047, 575.433 
	L 643.465, 575.433 
	L 644.882, 573.307 
	L 643.465, 571.181 
	L 642.047, 571.181 
" />
<path d="M 643.465, 569.055 
	L 643.465, 565.866 
	L 642.756, 564.803 
	L 642.047, 565.866 
	L 642.047, 567.992 
	L 642.756, 569.055 
	L 644.173, 569.055 
	L 644.882, 567.992 
	L 644.882, 564.803 
" />
<path d="M 642.047, 562.677 
	L 644.882, 562.677 
" />
<path d="M 643.465, 562.677 
	L 642.047, 560.551 
	L 642.047, 559.488 
" />
<path d="M 640.630, 548.858 
	L 644.882, 548.858 
	L 644.882, 546.732 
" />
<path d="M 642.047, 549.921 
	L 642.047, 546.732 
" />
<path d="M 643.465, 543.543 
	L 643.465, 540.354 
	L 642.756, 539.291 
	L 642.047, 540.354 
	L 642.047, 542.480 
	L 642.756, 543.543 
	L 644.173, 543.543 
	L 644.882, 542.480 
	L 644.882, 539.291 
" />
<path d="M 642.047, 533.976 
	L 642.047, 536.102 
	L 642.756, 537.165 
	L 643.465, 536.102 
	L 643.465, 535.039 
	L 644.173, 533.976 
	L 644.882, 535.039 
	L 644.882, 537.165 
" />
<path d="M 640.630, 529.724 
	L 644.882, 529.724 
	L 644.882, 527.599 
" />
<path d="M 642.047, 530.787 
	L 642.047, 527.599 
" />
<path d="M 641.339, 498.898 
	L 640.630, 497.835 
	L 640.630, 495.709 
	L 641.339, 494.646 
	L 642.047, 494.646 
	L 644.173, 498.898 
	L 644.882, 498.898 
	L 644.882, 494.646 
" />
<path d="M 644.173, 492.520 
	L 644.882, 491.457 
	L 644.882, 489.331 
	L 644.173, 488.268 
	L 641.339, 488.268 
	L 640.630, 489.331 
	L 640.630, 491.457 
	L 641.339, 492.520 
	L 644.173, 492.520 
" />
<path d="M 644.882, 485.079 
	L 644.882, 482.953 
" />
<path d="M 644.882, 484.016 
	L 640.630, 484.016 
	L 641.339, 485.079 
" />
<path d="M 644.882, 478.701 
	L 644.882, 477.638 
	L 643.465, 475.512 
	L 641.339, 475.512 
	L 640.630, 476.575 
	L 640.630, 478.701 
	L 641.339, 479.764 
	L 642.047, 479.764 
	L 642.756, 478.701 
	L 642.756, 475.512 
" />
<path d="M 642.756, 473.386 
	L 642.756, 469.134 
" />
<path d="M 644.882, 465.945 
	L 644.882, 463.819 
" />
<path d="M 644.882, 464.882 
	L 640.630, 464.882 
	L 641.339, 465.945 
" />
<path d="M 644.882, 459.567 
	L 644.882, 457.441 
" />
<path d="M 644.882, 458.504 
	L 640.630, 458.504 
	L 641.339, 459.567 
" />
<path d="M 642.756, 454.252 
	L 642.756, 450.000 
" />
<path d="M 641.339, 447.874 
	L 640.630, 446.811 
	L 640.630, 444.685 
	L 641.339, 443.622 
	L 642.047, 443.622 
	L 644.173, 447.874 
	L 644.882, 447.874 
	L 644.882, 443.622 
" />
<path d="M 640.630, 437.244 
	L 640.630, 441.496 
	L 642.047, 441.496 
	L 642.047, 438.307 
	L 642.756, 437.244 
	L 644.173, 437.244 
	L 644.882, 438.307 
	L 644.882, 440.433 
	L 644.173, 441.496 
" />
<path d="M 644.882, 427.677 
	L 644.882, 425.551 
" />
<path d="M 644.882, 426.614 
	L 640.630, 426.614 
	L 641.339, 427.677 
" />
<path d="M 640.630, 419.173 
	L 642.756, 422.362 
	L 643.465, 422.362 
	L 643.465, 418.110 
" />
<path d="M 642.756, 419.173 
	L 644.882, 419.173 
" />
<path d="M 642.756, 414.921 
	L 642.047, 414.921 
	L 642.047, 413.858 
	L 642.756, 413.858 
	L 642.756, 414.921 
" />
<path d="M 644.173, 414.921 
	L 644.173, 413.858 
	L 644.882, 413.858 
	L 644.882, 414.921 
	L 644.173, 414.921 
" />
<path d="M 644.173, 409.606 
	L 644.882, 408.543 
	L 644.882, 406.417 
	L 644.173, 405.354 
	L 643.465, 405.354 
	L 642.756, 406.417 
	L 642.756, 407.480 
	L 640.630, 405.354 
	L 640.630, 409.606 
" />
<path d="M 640.630, 398.976 
	L 640.630, 403.228 
	L 642.047, 403.228 
	L 642.047, 400.039 
	L 642.756, 398.976 
	L 644.173, 398.976 
	L 644.882, 400.039 
	L 644.882, 402.165 
	L 644.173, 403.228 
" />
</g>
</svg>
