<?xml version="1.0" encoding="UTF-8" standalone="no" ?>
<svg width="100%" height="100%" viewBox="0 0 2763.780 646.299" xmlns="http://www.w3.org/2000/svg"><g>
</g><g style="stroke:rgb(0,0,0); fill:none; stroke-width:1.000mm" >
</g><g style="stroke:rgb(0,0,0); fill:none; stroke-width:0.100mm" >
<path d="M 0.001, 646.299 
	L 0.000, 646.299 
	L 0.000, 8.504 
	L 637.795, 8.504 
	L 637.795, 646.299 
	L 0.000, 646.299 
" />
<path d="M 0.001, 645.219 
	L 0.000, 645.219 
	L 70.866, 645.203 
	L 141.732, 645.679 
	L 212.598, 646.202 
	L 283.465, 645.880 
	L 354.331, 645.628 
	L 425.197, 645.886 
	L 496.063, 645.682 
	L 566.929, 646.202 
	L 637.795, 646.299 
" />
<path d="M 637.795, 646.299 
	L 708.662, 646.350 
	L 779.528, 646.848 
	L 850.394, 646.984 
	L 921.260, 646.766 
	L 992.126, 646.663 
	L 1062.992, 646.551 
	L 1133.858, 646.639 
	L 1204.725, 647.074 
	L 1275.591, 646.837 
	L 1346.457, 646.592 
" />
<path d="M 1346.457, 646.592 
	L 1417.323, 646.207 
	L 1488.189, 645.876 
	L 1559.055, 646.338 
	L 1629.922, 646.673 
	L 1700.788, 646.602 
	L 1771.654, 646.418 
	L 1842.520, 646.932 
	L 1913.386, 646.795 
	L 1984.252, 646.671 
	L 2055.118, 646.299 
" />
<path d="M 2055.118, 646.299 
	L 2125.985, 646.014 
	L 2196.851, 645.985 
	L 2267.717, 646.239 
	L 2338.583, 646.731 
	L 2409.449, 647.257 
	L 2480.315, 647.571 
	L 2551.181, 647.637 
	L 2622.048, 647.656 
	L 2692.914, 647.710 
	L 2763.780, 647.255 
" />
<path d="M 2763.780, 647.255 
" />
<path d="M 0.001, 636.425 
	L 0.000, 636.426 
	L 35.433, 636.384 
	L 70.866, 637.614 
	L 106.299, 638.963 
	L 141.732, 638.130 
	L 177.165, 637.481 
	L 212.598, 638.146 
	L 248.032, 637.620 
	L 283.465, 638.960 
	L 318.898, 639.213 
" />
<path d="M 318.898, 639.213 
	L 354.331, 639.345 
	L 389.764, 640.627 
	L 425.197, 640.980 
	L 460.630, 640.415 
	L 496.063, 640.151 
	L 531.496, 639.861 
	L 566.929, 640.089 
	L 602.362, 641.210 
	L 637.795, 640.600 
	L 673.228, 639.967 
" />
<path d="M 673.228, 639.967 
	L 708.662, 638.975 
	L 744.095, 638.121 
	L 779.528, 639.314 
	L 814.961, 640.176 
	L 850.394, 639.993 
	L 885.827, 639.518 
	L 921.260, 640.845 
	L 956.693, 640.493 
	L 992.126, 640.172 
	L 1027.559, 639.213 
" />
<path d="M 1027.559, 639.213 
	L 1062.992, 638.476 
	L 1098.425, 638.401 
	L 1133.858, 639.057 
	L 1169.292, 640.327 
	L 1204.725, 641.684 
	L 1240.158, 642.495 
	L 1275.591, 642.664 
	L 1311.024, 642.714 
	L 1346.457, 642.851 
	L 1381.890, 641.677 
" />
<path d="M 1381.890, 641.677 
" />
<path d="M 0.001, 627.667 
	L 0.000, 627.668 
	L 23.598, 627.603 
	L 47.197, 629.569 
	L 70.795, 631.726 
	L 94.394, 630.394 
	L 117.992, 629.357 
	L 141.591, 630.420 
	L 165.189, 629.578 
	L 188.787, 631.723 
	L 212.386, 632.126 
	L 235.984, 632.338 
" />
<path d="M 235.984, 632.338 
	L 259.583, 634.389 
	L 283.181, 634.953 
	L 306.780, 634.050 
	L 330.378, 633.627 
	L 353.976, 633.164 
	L 377.575, 633.528 
	L 401.173, 635.321 
	L 424.772, 634.345 
	L 448.370, 633.333 
	L 471.969, 631.747 
" />
<path d="M 471.969, 631.747 
	L 495.567, 630.381 
	L 519.165, 632.288 
	L 542.764, 633.667 
	L 566.362, 633.374 
	L 589.961, 632.614 
	L 613.559, 634.738 
	L 637.158, 634.173 
	L 660.756, 633.661 
	L 684.354, 632.126 
	L 707.953, 630.948 
" />
<path d="M 707.953, 630.948 
	L 731.551, 630.829 
	L 755.150, 631.876 
	L 778.748, 633.908 
	L 802.347, 636.080 
	L 825.945, 637.377 
	L 849.543, 637.647 
	L 873.142, 637.726 
	L 896.740, 637.946 
	L 920.339, 636.068 
" />
<path d="M 0.001, 620.761 
	L 0.000, 620.762 
	L 17.717, 620.699 
	L 35.433, 622.585 
	L 53.150, 624.656 
	L 70.866, 623.378 
	L 88.583, 622.382 
	L 106.299, 623.402 
	L 124.016, 622.595 
	L 141.732, 624.653 
	L 159.449, 625.039 
	L 177.165, 625.243 
" />
<path d="M 177.165, 625.243 
	L 194.882, 627.210 
	L 212.598, 627.751 
	L 230.315, 626.886 
	L 248.032, 626.479 
	L 265.748, 626.035 
	L 283.465, 626.385 
	L 301.181, 628.106 
	L 318.898, 627.169 
	L 336.614, 626.197 
	L 354.331, 624.675 
" />
<path d="M 354.331, 624.675 
	L 372.047, 623.365 
	L 389.764, 625.195 
	L 407.480, 626.518 
	L 425.197, 626.237 
	L 442.913, 625.508 
	L 460.630, 627.546 
	L 478.347, 627.004 
	L 496.063, 626.512 
	L 513.780, 625.039 
	L 531.496, 623.908 
" />
<path d="M 531.496, 623.908 
	L 549.213, 623.794 
	L 566.929, 624.800 
	L 584.646, 626.749 
	L 602.362, 628.833 
	L 620.079, 630.077 
	L 637.795, 630.337 
	L 655.512, 630.413 
	L 673.228, 630.623 
	L 690.945, 628.821 
" />
<path d="M 0.001, 611.814 
	L 0.000, 611.815 
	L 14.173, 611.726 
	L 28.346, 614.431 
	L 42.520, 617.403 
	L 56.693, 615.568 
	L 70.866, 614.140 
	L 85.039, 615.604 
	L 99.213, 614.446 
	L 113.386, 617.398 
	L 127.559, 617.953 
	L 141.732, 618.244 
" />
<path d="M 141.732, 618.244 
	L 155.906, 621.067 
	L 170.079, 621.844 
	L 184.252, 620.601 
	L 198.425, 620.019 
	L 212.598, 619.382 
	L 226.772, 619.883 
	L 240.945, 622.352 
	L 255.118, 621.008 
	L 269.291, 619.614 
	L 283.465, 617.431 
" />
<path d="M 283.465, 617.431 
	L 297.638, 615.550 
	L 311.811, 618.176 
	L 325.984, 620.074 
	L 340.158, 619.671 
	L 354.331, 618.625 
	L 368.504, 621.549 
	L 382.677, 620.772 
	L 396.850, 620.066 
	L 411.024, 617.953 
	L 425.197, 616.331 
" />
<path d="M 425.197, 616.331 
	L 439.370, 616.167 
	L 453.543, 617.609 
	L 467.717, 620.406 
	L 481.890, 623.396 
	L 496.063, 625.181 
	L 510.236, 625.553 
	L 524.410, 625.662 
	L 538.583, 625.964 
	L 552.756, 623.378 
" />
<path d="M 0.001, 601.423 
	L 0.000, 601.424 
	L 11.764, 601.286 
	L 23.528, 605.449 
	L 35.291, 610.020 
	L 47.055, 607.198 
	L 58.819, 605.001 
	L 70.583, 607.252 
	L 82.346, 605.471 
	L 94.110, 610.012 
	L 105.874, 610.866 
	L 117.638, 611.315 
" />
<path d="M 117.638, 611.315 
	L 129.402, 615.658 
	L 141.165, 616.852 
	L 152.929, 614.941 
	L 164.693, 614.045 
	L 176.457, 613.064 
	L 188.221, 613.835 
	L 199.984, 617.634 
	L 211.748, 615.566 
	L 223.512, 613.422 
	L 235.276, 610.063 
" />
<path d="M 235.276, 610.063 
	L 247.039, 607.171 
	L 258.803, 611.210 
	L 270.567, 614.130 
	L 282.331, 613.510 
	L 294.095, 611.900 
	L 305.858, 616.398 
	L 317.622, 615.203 
	L 329.386, 614.118 
	L 341.150, 610.866 
	L 352.913, 608.370 
" />
<path d="M 352.913, 608.370 
	L 364.677, 608.119 
	L 376.441, 610.337 
	L 388.205, 614.641 
	L 399.969, 619.240 
	L 411.732, 621.987 
	L 423.496, 622.558 
	L 435.260, 622.726 
	L 447.024, 623.191 
	L 458.787, 619.214 
" />
<path d="M 0.001, 593.768 
	L 0.000, 593.768 
	L 10.063, 593.622 
	L 20.126, 598.037 
	L 30.189, 602.882 
	L 40.252, 599.890 
	L 50.315, 597.561 
	L 60.378, 599.948 
	L 70.441, 598.059 
	L 80.504, 602.875 
	L 90.567, 603.780 
	L 100.630, 604.255 
" />
<path d="M 100.630, 604.255 
	L 110.693, 608.860 
	L 120.756, 610.126 
	L 130.819, 608.100 
	L 140.882, 607.149 
	L 150.945, 606.110 
	L 161.008, 606.927 
	L 171.071, 610.955 
	L 181.134, 608.762 
	L 191.197, 606.489 
	L 201.260, 602.928 
" />
<path d="M 201.260, 602.928 
	L 211.323, 599.861 
	L 221.386, 604.144 
	L 231.449, 607.239 
	L 241.512, 606.582 
	L 251.575, 604.876 
	L 261.638, 609.644 
	L 271.701, 608.377 
	L 281.764, 607.227 
	L 291.827, 603.780 
	L 301.890, 601.133 
" />
<path d="M 301.890, 601.133 
	L 311.953, 600.866 
	L 322.016, 603.218 
	L 332.079, 607.781 
	L 342.142, 612.658 
	L 352.205, 615.570 
	L 362.268, 616.176 
	L 372.331, 616.353 
	L 382.394, 616.847 
	L 392.457, 612.629 
" />
<path d="M 0.001, 588.588 
	L 0.000, 588.589 
	L 8.858, 588.470 
	L 17.717, 592.044 
	L 26.575, 595.967 
	L 35.433, 593.544 
	L 44.291, 591.659 
	L 53.150, 593.591 
	L 62.008, 592.062 
	L 70.866, 595.960 
	L 79.724, 596.693 
	L 88.583, 597.078 
" />
<path d="M 88.583, 597.078 
	L 97.441, 600.805 
	L 106.299, 601.831 
	L 115.157, 600.190 
	L 124.016, 599.421 
	L 132.874, 598.579 
	L 141.732, 599.241 
	L 150.591, 602.502 
	L 159.449, 600.727 
	L 168.307, 598.886 
	L 177.165, 596.003 
" />
<path d="M 177.165, 596.003 
	L 186.024, 593.521 
	L 194.882, 596.988 
	L 203.740, 599.494 
	L 212.598, 598.962 
	L 221.457, 597.580 
	L 230.315, 601.441 
	L 239.173, 600.415 
	L 248.032, 599.484 
	L 256.890, 596.693 
	L 265.748, 594.551 
" />
<path d="M 265.748, 594.551 
	L 274.606, 594.335 
	L 283.465, 596.239 
	L 292.323, 599.932 
	L 301.181, 603.880 
	L 310.039, 606.238 
	L 318.898, 606.728 
	L 327.756, 606.872 
	L 336.614, 607.271 
	L 345.472, 603.858 
" />
<path d="M 0.001, 581.122 
	L 0.000, 581.123 
	L 7.866, 581.000 
	L 15.732, 584.740 
	L 23.598, 588.846 
	L 31.465, 586.311 
	L 39.331, 584.337 
	L 47.197, 586.359 
	L 55.063, 584.759 
	L 62.929, 588.839 
	L 70.795, 589.606 
	L 78.661, 590.009 
" />
<path d="M 78.661, 590.009 
	L 86.528, 593.912 
	L 94.394, 594.984 
	L 102.260, 593.267 
	L 110.126, 592.462 
	L 117.992, 591.581 
	L 125.858, 592.274 
	L 133.724, 595.687 
	L 141.591, 593.829 
	L 149.457, 591.902 
	L 157.323, 588.885 
" />
<path d="M 157.323, 588.885 
	L 165.189, 586.286 
	L 173.055, 589.915 
	L 180.921, 592.538 
	L 188.787, 591.981 
	L 196.654, 590.535 
	L 204.520, 594.576 
	L 212.386, 593.503 
	L 220.252, 592.527 
	L 228.118, 589.606 
	L 235.984, 587.364 
" />
<path d="M 235.984, 587.364 
	L 243.850, 587.138 
	L 251.717, 589.131 
	L 259.583, 592.997 
	L 267.449, 597.130 
	L 275.315, 599.597 
	L 283.181, 600.111 
	L 291.047, 600.260 
	L 298.913, 600.679 
	L 306.780, 597.105 
" />
<path d="M 0.001, 576.177 
	L 0.000, 576.177 
	L 7.087, 576.085 
	L 14.173, 578.882 
	L 21.260, 581.951 
	L 28.346, 580.056 
	L 35.433, 578.580 
	L 42.520, 580.092 
	L 49.606, 578.896 
	L 56.693, 581.946 
	L 63.780, 582.520 
	L 70.866, 582.821 
" />
<path d="M 70.866, 582.821 
	L 77.953, 585.739 
	L 85.039, 586.541 
	L 92.126, 585.257 
	L 99.213, 584.654 
	L 106.299, 583.996 
	L 113.386, 584.514 
	L 120.472, 587.066 
	L 127.559, 585.676 
	L 134.646, 584.236 
	L 141.732, 581.980 
" />
<path d="M 141.732, 581.980 
	L 148.819, 580.037 
	L 155.906, 582.751 
	L 162.992, 584.712 
	L 170.079, 584.296 
	L 177.165, 583.214 
	L 184.252, 586.235 
	L 191.339, 585.432 
	L 198.425, 584.703 
	L 205.512, 582.520 
	L 212.598, 580.844 
" />
<path d="M 212.598, 580.844 
	L 219.685, 580.674 
	L 226.772, 582.164 
	L 233.858, 585.055 
	L 240.945, 588.144 
	L 248.032, 589.989 
	L 255.118, 590.373 
	L 262.205, 590.485 
	L 269.291, 590.798 
	L 276.378, 588.127 
" />
<path d="M 0.001, 575.207 
	L 0.000, 575.208 
	L 6.378, 575.204 
	L 12.756, 575.303 
	L 19.134, 575.413 
	L 25.512, 575.345 
	L 31.890, 575.293 
	L 38.268, 575.347 
	L 44.646, 575.304 
	L 51.024, 575.413 
	L 57.402, 575.433 
	L 63.780, 575.444 
" />
<path d="M 63.780, 575.444 
	L 70.157, 575.547 
	L 76.535, 575.576 
	L 82.913, 575.530 
	L 89.291, 575.509 
	L 95.669, 575.486 
	L 102.047, 575.504 
	L 108.425, 575.595 
	L 114.803, 575.545 
	L 121.181, 575.494 
	L 127.559, 575.414 
" />
<path d="M 127.559, 575.414 
	L 133.937, 575.345 
	L 140.315, 575.442 
	L 146.693, 575.511 
	L 153.071, 575.496 
	L 159.449, 575.458 
	L 165.827, 575.565 
	L 172.205, 575.537 
	L 178.583, 575.511 
	L 184.961, 575.433 
	L 191.339, 575.374 
" />
<path d="M 191.339, 575.374 
	L 197.717, 575.367 
	L 204.095, 575.420 
	L 210.472, 575.523 
	L 216.850, 575.633 
	L 223.228, 575.699 
	L 229.606, 575.712 
	L 235.984, 575.717 
	L 242.362, 575.727 
	L 248.740, 575.632 
" />
<path d="M 0.001, 566.541 
	L 0.000, 566.542 
	L 5.882, 566.515 
	L 11.764, 567.311 
	L 17.646, 568.185 
	L 23.528, 567.645 
	L 29.409, 567.225 
	L 35.291, 567.656 
	L 41.173, 567.315 
	L 47.055, 568.184 
	L 52.937, 568.347 
	L 58.819, 568.432 
" />
<path d="M 58.819, 568.432 
	L 64.701, 569.263 
	L 70.583, 569.491 
	L 76.465, 569.125 
	L 82.346, 568.954 
	L 88.228, 568.767 
	L 94.110, 568.914 
	L 99.992, 569.641 
	L 105.874, 569.245 
	L 111.756, 568.835 
	L 117.638, 568.193 
	L 123.520, 567.640 
" />
<path d="M 123.520, 567.640 
	L 129.402, 568.412 
	L 135.283, 568.970 
	L 141.165, 568.852 
	L 147.047, 568.544 
	L 152.929, 569.405 
	L 158.811, 569.176 
	L 164.693, 568.968 
	L 170.575, 568.347 
	L 176.457, 567.870 
	L 182.339, 567.821 
" />
<path d="M 182.339, 567.821 
	L 188.221, 568.245 
	L 194.102, 569.068 
	L 199.984, 569.947 
	L 205.866, 570.473 
	L 211.748, 570.582 
	L 217.630, 570.614 
	L 223.512, 570.703 
	L 229.394, 569.942 
" />
<path d="M 0.001, 555.340 
	L 0.000, 555.340 
	L 5.386, 555.254 
	L 10.772, 557.864 
	L 16.157, 560.729 
	L 21.543, 558.960 
	L 26.929, 557.583 
	L 32.315, 558.994 
	L 37.701, 557.877 
	L 43.087, 560.725 
	L 48.472, 561.260 
	L 53.858, 561.541 
" />
<path d="M 53.858, 561.541 
	L 59.244, 564.264 
	L 64.630, 565.013 
	L 70.016, 563.815 
	L 75.402, 563.253 
	L 80.787, 562.638 
	L 86.173, 563.121 
	L 91.559, 565.503 
	L 96.945, 564.207 
	L 102.331, 562.862 
	L 107.717, 560.756 
	L 113.102, 558.943 
" />
<path d="M 113.102, 558.943 
	L 118.488, 561.475 
	L 123.874, 563.306 
	L 129.260, 562.917 
	L 134.646, 561.908 
	L 140.032, 564.728 
	L 145.417, 563.978 
	L 150.803, 563.298 
	L 156.189, 561.260 
	L 161.575, 559.695 
	L 166.961, 559.537 
" />
<path d="M 166.961, 559.537 
	L 172.346, 560.928 
	L 177.732, 563.626 
	L 183.118, 566.510 
	L 188.504, 568.232 
	L 193.890, 568.590 
	L 199.276, 568.695 
	L 204.661, 568.986 
	L 210.047, 566.493 
" />
<path d="M 0.001, 547.431 
	L 0.000, 547.432 
	L 5.031, 547.333 
	L 10.063, 550.306 
	L 15.094, 553.569 
	L 20.126, 551.554 
	L 25.157, 549.986 
	L 30.189, 551.593 
	L 35.220, 550.321 
	L 40.252, 553.564 
	L 45.283, 554.173 
	L 50.315, 554.494 
" />
<path d="M 50.315, 554.494 
	L 55.346, 557.595 
	L 60.378, 558.447 
	L 65.409, 557.082 
	L 70.441, 556.442 
	L 75.472, 555.742 
	L 80.504, 556.293 
	L 85.535, 559.006 
	L 90.567, 557.529 
	L 95.598, 555.997 
	L 100.630, 553.600 
	L 105.661, 551.534 
" />
<path d="M 105.661, 551.534 
	L 110.693, 554.419 
	L 115.724, 556.503 
	L 120.756, 556.060 
	L 125.787, 554.912 
	L 130.819, 558.123 
	L 135.850, 557.269 
	L 140.882, 556.495 
	L 145.913, 554.173 
	L 150.945, 552.392 
	L 155.976, 552.212 
" />
<path d="M 155.976, 552.212 
	L 161.008, 553.796 
	L 166.039, 556.868 
	L 171.071, 560.152 
	L 176.102, 562.113 
	L 181.134, 562.521 
	L 186.165, 562.640 
	L 191.197, 562.973 
	L 196.228, 560.133 
" />
<path d="M 0.001, 544.245 
	L 0.000, 544.246 
	L 4.677, 544.204 
	L 9.354, 545.457 
	L 14.031, 546.832 
	L 18.709, 545.983 
	L 23.386, 545.322 
	L 28.063, 545.999 
	L 32.740, 545.463 
	L 37.417, 546.829 
	L 42.094, 547.087 
	L 46.772, 547.221 
" />
<path d="M 46.772, 547.221 
	L 51.449, 548.529 
	L 56.126, 548.888 
	L 60.803, 548.313 
	L 65.480, 548.043 
	L 70.157, 547.748 
	L 74.835, 547.980 
	L 79.512, 549.123 
	L 84.189, 548.500 
	L 88.866, 547.856 
	L 93.543, 546.845 
	L 98.220, 545.975 
" />
<path d="M 98.220, 545.975 
	L 102.898, 547.190 
	L 107.575, 548.069 
	L 112.252, 547.882 
	L 116.929, 547.398 
	L 121.606, 548.751 
	L 126.283, 548.391 
	L 130.961, 548.065 
	L 135.638, 547.087 
	L 140.315, 546.336 
	L 144.992, 546.260 
" />
<path d="M 144.992, 546.260 
	L 149.669, 546.927 
	L 154.346, 548.223 
	L 159.024, 549.606 
	L 163.701, 550.433 
	L 168.378, 550.605 
	L 173.055, 550.655 
	L 177.732, 550.795 
	L 182.409, 549.598 
" />
<path d="M 0.001, 538.086 
	L 0.000, 538.087 
	L 4.394, 538.059 
	L 8.787, 538.902 
	L 13.181, 539.829 
	L 17.575, 539.257 
	L 21.969, 538.812 
	L 26.362, 539.268 
	L 30.756, 538.907 
	L 35.150, 539.827 
	L 39.543, 540.000 
	L 43.937, 540.091 
" />
<path d="M 43.937, 540.091 
	L 48.331, 540.971 
	L 52.724, 541.213 
	L 57.118, 540.826 
	L 61.512, 540.644 
	L 65.906, 540.445 
	L 70.299, 540.602 
	L 74.693, 541.371 
	L 79.087, 540.953 
	L 83.480, 540.518 
	L 87.874, 539.837 
	L 92.268, 539.251 
" />
<path d="M 92.268, 539.251 
	L 96.661, 540.070 
	L 101.055, 540.661 
	L 105.449, 540.536 
	L 109.843, 540.210 
	L 114.236, 541.121 
	L 118.630, 540.879 
	L 123.024, 540.659 
	L 127.417, 540.000 
	L 131.811, 539.494 
	L 136.205, 539.443 
" />
<path d="M 136.205, 539.443 
	L 140.598, 539.893 
	L 144.992, 540.765 
	L 149.386, 541.697 
	L 153.780, 542.254 
	L 158.173, 542.369 
	L 162.567, 542.403 
	L 166.961, 542.497 
	L 171.354, 541.692 
" />
<path d="M 0.001, 528.786 
	L 0.000, 528.786 
	L 4.110, 528.726 
	L 8.220, 530.546 
	L 12.331, 532.544 
	L 16.441, 531.310 
	L 20.551, 530.350 
	L 24.661, 531.334 
	L 28.772, 530.555 
	L 32.882, 532.540 
	L 36.992, 532.913 
	L 41.102, 533.110 
" />
<path d="M 41.102, 533.110 
	L 45.213, 535.008 
	L 49.323, 535.531 
	L 53.433, 534.694 
	L 57.543, 534.302 
	L 61.654, 533.874 
	L 65.764, 534.211 
	L 69.874, 535.872 
	L 73.984, 534.968 
	L 78.095, 534.030 
	L 82.205, 532.562 
	L 86.315, 531.298 
" />
<path d="M 86.315, 531.298 
	L 90.425, 533.064 
	L 94.535, 534.340 
	L 98.646, 534.069 
	L 102.756, 533.366 
	L 106.866, 535.331 
	L 110.976, 534.809 
	L 115.087, 534.334 
	L 119.197, 532.913 
	L 123.307, 531.823 
	L 127.417, 531.712 
" />
<path d="M 127.417, 531.712 
	L 131.528, 532.682 
	L 135.638, 534.563 
	L 139.748, 536.574 
	L 143.858, 537.775 
	L 147.969, 538.024 
	L 152.079, 538.097 
	L 156.189, 538.301 
	L 160.299, 536.562 
" />
<path d="M 0.001, 523.048 
	L 0.000, 523.049 
	L 3.898, 523.009 
	L 7.795, 524.233 
	L 11.693, 525.578 
	L 15.591, 524.748 
	L 19.488, 524.101 
	L 23.386, 524.764 
	L 27.283, 524.239 
	L 31.181, 525.576 
	L 35.079, 525.827 
	L 38.976, 525.959 
" />
<path d="M 38.976, 525.959 
	L 42.874, 527.236 
	L 46.772, 527.588 
	L 50.669, 527.025 
	L 54.567, 526.762 
	L 58.465, 526.473 
	L 62.362, 526.700 
	L 66.260, 527.817 
	L 70.157, 527.209 
	L 74.055, 526.579 
	L 77.953, 525.590 
	L 81.850, 524.740 
" />
<path d="M 81.850, 524.740 
	L 85.748, 525.928 
	L 89.646, 526.787 
	L 93.543, 526.604 
	L 97.441, 526.131 
	L 101.339, 527.454 
	L 105.236, 527.102 
	L 109.134, 526.784 
	L 113.032, 525.827 
	L 116.929, 525.093 
	L 120.827, 525.018 
" />
<path d="M 120.827, 525.018 
	L 124.724, 525.671 
	L 128.622, 526.937 
	L 132.520, 528.290 
	L 136.417, 529.098 
	L 140.315, 529.267 
	L 144.213, 529.316 
	L 148.110, 529.452 
	L 152.008, 528.282 
" />
<path d="M 0.001, 517.625 
	L 0.000, 517.626 
	L 3.685, 517.609 
	L 7.370, 518.101 
	L 11.055, 518.640 
	L 14.740, 518.307 
	L 18.425, 518.048 
	L 22.110, 518.314 
	L 25.795, 518.103 
	L 29.480, 518.640 
	L 33.165, 518.740 
	L 36.850, 518.793 
" />
<path d="M 36.850, 518.793 
	L 40.535, 519.306 
	L 44.220, 519.447 
	L 47.906, 519.221 
	L 51.591, 519.115 
	L 55.276, 519.000 
	L 58.961, 519.091 
	L 62.646, 519.539 
	L 66.331, 519.295 
	L 70.016, 519.042 
	L 73.701, 518.645 
	L 77.386, 518.304 
" />
<path d="M 77.386, 518.304 
	L 81.071, 518.781 
	L 84.756, 519.126 
	L 88.441, 519.052 
	L 92.126, 518.862 
	L 95.811, 519.394 
	L 99.496, 519.252 
	L 103.181, 519.124 
	L 106.866, 518.740 
	L 110.551, 518.445 
	L 114.236, 518.416 
" />
<path d="M 114.236, 518.416 
	L 117.921, 518.678 
	L 121.606, 519.186 
	L 125.291, 519.729 
	L 128.976, 520.053 
	L 132.661, 520.121 
	L 136.346, 520.141 
	L 140.032, 520.195 
	L 143.717, 519.725 
" />
<path d="M 0.001, 511.653 
	L 0.000, 511.654 
	L 3.543, 511.654 
	L 7.087, 511.654 
	L 10.630, 511.654 
	L 14.173, 511.654 
	L 17.717, 511.654 
	L 21.260, 511.654 
	L 24.803, 511.654 
	L 28.346, 511.654 
	L 31.890, 511.654 
	L 35.433, 511.654 
" />
<path d="M 35.433, 511.654 
	L 38.976, 511.654 
	L 42.520, 511.654 
	L 46.063, 511.654 
	L 49.606, 511.654 
	L 53.150, 511.654 
	L 56.693, 511.654 
	L 60.236, 511.654 
	L 63.780, 511.654 
	L 67.323, 511.654 
	L 70.866, 511.654 
	L 74.409, 511.654 
" />
<path d="M 74.409, 511.654 
	L 77.953, 511.654 
	L 81.496, 511.654 
	L 85.039, 511.654 
	L 88.583, 511.654 
	L 92.126, 511.654 
	L 95.669, 511.654 
	L 99.213, 511.654 
	L 102.756, 511.654 
	L 106.299, 511.654 
	L 109.843, 511.654 
	L 113.386, 511.654 
" />
<path d="M 113.386, 511.654 
	L 116.929, 511.654 
	L 120.472, 511.654 
	L 124.016, 511.654 
	L 127.559, 511.654 
	L 131.102, 511.654 
	L 134.646, 511.654 
	L 138.189, 511.654 
" />
<path d="M 0.001, 504.908 
	L 0.000, 504.909 
	L 3.331, 504.914 
	L 6.661, 504.763 
	L 9.992, 504.597 
	L 13.323, 504.700 
	L 16.654, 504.779 
	L 19.984, 504.697 
	L 23.315, 504.762 
	L 26.646, 504.598 
	L 29.976, 504.567 
	L 33.307, 504.551 
" />
<path d="M 33.307, 504.551 
	L 36.638, 504.394 
	L 39.969, 504.351 
	L 43.299, 504.420 
	L 46.630, 504.452 
	L 49.961, 504.488 
	L 53.291, 504.460 
	L 56.622, 504.323 
	L 59.953, 504.397 
	L 63.283, 504.475 
	L 66.614, 504.596 
	L 69.945, 504.700 
" />
<path d="M 69.945, 504.700 
	L 73.276, 504.554 
	L 76.606, 504.449 
	L 79.937, 504.471 
	L 83.268, 504.529 
	L 86.598, 504.367 
	L 89.929, 504.410 
	L 93.260, 504.449 
	L 96.591, 504.567 
	L 99.921, 504.657 
	L 103.252, 504.666 
	L 106.583, 504.586 
" />
<path d="M 106.583, 504.586 
	L 109.913, 504.431 
	L 113.244, 504.264 
	L 116.575, 504.165 
	L 119.906, 504.145 
	L 123.236, 504.138 
	L 126.567, 504.121 
	L 129.898, 504.265 
" />
<path d="M 0.001, 501.486 
	L 0.000, 501.487 
	L 3.189, 501.545 
	L 6.378, 499.779 
	L 9.567, 497.840 
	L 12.756, 499.037 
	L 15.945, 499.969 
	L 19.134, 499.014 
	L 22.323, 499.770 
	L 25.512, 497.843 
	L 28.701, 497.480 
	L 31.890, 497.290 
" />
<path d="M 31.890, 497.290 
	L 35.079, 495.447 
	L 38.268, 494.941 
	L 41.457, 495.751 
	L 44.646, 496.132 
	L 47.835, 496.548 
	L 51.024, 496.220 
	L 54.213, 494.609 
	L 57.402, 495.486 
	L 60.591, 496.396 
	L 63.780, 497.821 
	L 66.969, 499.049 
" />
<path d="M 66.969, 499.049 
	L 70.157, 497.334 
	L 73.346, 496.096 
	L 76.535, 496.359 
	L 79.724, 497.042 
	L 82.913, 495.133 
	L 86.102, 495.640 
	L 89.291, 496.101 
	L 92.480, 497.480 
	L 95.669, 498.539 
	L 98.858, 498.646 
	L 102.047, 497.705 
" />
<path d="M 102.047, 497.705 
	L 105.236, 495.879 
	L 108.425, 493.927 
	L 111.614, 492.761 
	L 114.803, 492.519 
	L 117.992, 492.448 
	L 121.181, 492.250 
	L 124.370, 493.939 
" />
<path d="M 0.001, 493.260 
	L 0.000, 493.261 
	L 3.047, 493.303 
	L 6.094, 492.039 
	L 9.142, 490.651 
	L 12.189, 491.508 
	L 15.236, 492.175 
	L 18.283, 491.492 
	L 21.331, 492.032 
	L 24.378, 490.653 
	L 27.425, 490.394 
	L 30.472, 490.258 
" />
<path d="M 30.472, 490.258 
	L 33.520, 488.939 
	L 36.567, 488.576 
	L 39.614, 489.156 
	L 42.661, 489.429 
	L 45.709, 489.726 
	L 48.756, 489.492 
	L 51.803, 488.339 
	L 54.850, 488.967 
	L 57.898, 489.618 
	L 60.945, 490.638 
	L 63.992, 491.516 
" />
<path d="M 63.992, 491.516 
	L 67.039, 490.290 
	L 70.087, 489.403 
	L 73.134, 489.591 
	L 76.181, 490.080 
	L 79.228, 488.714 
	L 82.276, 489.077 
	L 85.323, 489.407 
	L 88.370, 490.394 
	L 91.417, 491.151 
	L 94.465, 491.228 
	L 97.512, 490.555 
" />
<path d="M 97.512, 490.555 
	L 100.559, 489.248 
	L 103.606, 487.851 
	L 106.654, 487.017 
	L 109.701, 486.843 
	L 112.748, 486.792 
	L 115.795, 486.651 
	L 118.843, 487.859 
" />
<path d="M 0.001, 485.102 
	L 0.000, 485.103 
	L 2.906, 485.129 
	L 5.811, 484.337 
	L 8.717, 483.468 
	L 11.622, 484.004 
	L 14.528, 484.423 
	L 17.433, 483.995 
	L 20.339, 484.333 
	L 23.244, 483.469 
	L 26.150, 483.307 
	L 29.055, 483.222 
" />
<path d="M 29.055, 483.222 
	L 31.961, 482.396 
	L 34.866, 482.169 
	L 37.772, 482.533 
	L 40.677, 482.703 
	L 43.583, 482.889 
	L 46.488, 482.742 
	L 49.394, 482.020 
	L 52.299, 482.414 
	L 55.205, 482.821 
	L 58.110, 483.460 
	L 61.016, 484.010 
" />
<path d="M 61.016, 484.010 
	L 63.921, 483.242 
	L 66.827, 482.686 
	L 69.732, 482.805 
	L 72.638, 483.111 
	L 75.543, 482.256 
	L 78.449, 482.482 
	L 81.354, 482.689 
	L 84.260, 483.307 
	L 87.165, 483.782 
	L 90.071, 483.829 
	L 92.976, 483.408 
" />
<path d="M 92.976, 483.408 
	L 95.882, 482.589 
	L 98.787, 481.715 
	L 101.693, 481.193 
	L 104.598, 481.084 
	L 107.504, 481.052 
	L 110.409, 480.964 
	L 113.315, 481.720 
" />
<path d="M 0.001, 477.410 
	L 0.000, 477.411 
	L 2.835, 477.429 
	L 5.669, 476.904 
	L 8.504, 476.328 
	L 11.339, 476.683 
	L 14.173, 476.960 
	L 17.008, 476.676 
	L 19.843, 476.901 
	L 22.677, 476.328 
	L 25.512, 476.221 
	L 28.346, 476.164 
" />
<path d="M 28.346, 476.164 
	L 31.181, 475.616 
	L 34.016, 475.466 
	L 36.850, 475.707 
	L 39.685, 475.819 
	L 42.520, 475.943 
	L 45.354, 475.846 
	L 48.189, 475.367 
	L 51.024, 475.628 
	L 53.858, 475.898 
	L 56.693, 476.322 
	L 59.528, 476.687 
" />
<path d="M 59.528, 476.687 
	L 62.362, 476.177 
	L 65.197, 475.809 
	L 68.032, 475.887 
	L 70.866, 476.090 
	L 73.701, 475.523 
	L 76.535, 475.673 
	L 79.370, 475.810 
	L 82.205, 476.221 
	L 85.039, 476.535 
	L 87.874, 476.567 
	L 90.709, 476.287 
" />
<path d="M 90.709, 476.287 
	L 93.543, 475.744 
	L 96.378, 475.165 
	L 99.213, 474.818 
	L 102.047, 474.746 
	L 104.882, 474.725 
	L 107.717, 474.666 
	L 110.551, 475.168 
" />
<path d="M 0.001, 473.895 
	L 0.000, 473.896 
	L 2.693, 473.966 
	L 5.386, 471.866 
	L 8.079, 469.561 
	L 10.772, 470.984 
	L 13.465, 472.093 
	L 16.157, 470.957 
	L 18.850, 471.855 
	L 21.543, 469.565 
	L 24.236, 469.134 
	L 26.929, 468.908 
" />
<path d="M 26.929, 468.908 
	L 29.622, 466.717 
	L 32.315, 466.114 
	L 35.008, 467.079 
	L 37.701, 467.531 
	L 40.394, 468.026 
	L 43.087, 467.637 
	L 45.780, 465.720 
	L 48.472, 466.763 
	L 51.165, 467.845 
	L 53.858, 469.539 
	L 56.551, 470.998 
" />
<path d="M 56.551, 470.998 
	L 59.244, 468.960 
	L 61.937, 467.488 
	L 64.630, 467.800 
	L 67.323, 468.612 
	L 70.016, 466.344 
	L 72.709, 466.947 
	L 75.402, 467.494 
	L 78.095, 469.134 
	L 80.787, 470.392 
	L 83.480, 470.520 
	L 86.173, 469.401 
" />
<path d="M 86.173, 469.401 
	L 88.866, 467.230 
	L 91.559, 464.910 
	L 94.252, 463.525 
	L 96.945, 463.236 
	L 99.638, 463.152 
	L 102.331, 462.918 
	L 105.024, 464.924 
" />
<path d="M 0.001, 464.885 
	L 0.000, 464.886 
	L 2.622, 464.927 
	L 5.244, 463.676 
	L 7.866, 462.302 
	L 10.488, 463.150 
	L 13.110, 463.810 
	L 15.732, 463.134 
	L 18.354, 463.669 
	L 20.976, 462.304 
	L 23.598, 462.047 
	L 26.220, 461.913 
" />
<path d="M 26.220, 461.913 
	L 28.843, 460.607 
	L 31.465, 460.247 
	L 34.087, 460.822 
	L 36.709, 461.092 
	L 39.331, 461.387 
	L 41.953, 461.154 
	L 44.575, 460.013 
	L 47.197, 460.634 
	L 49.819, 461.279 
	L 52.441, 462.289 
	L 55.063, 463.158 
" />
<path d="M 55.063, 463.158 
	L 57.685, 461.944 
	L 60.307, 461.067 
	L 62.929, 461.252 
	L 65.551, 461.736 
	L 68.173, 460.384 
	L 70.795, 460.743 
	L 73.417, 461.070 
	L 76.039, 462.047 
	L 78.661, 462.798 
	L 81.283, 462.874 
	L 83.906, 462.207 
" />
<path d="M 83.906, 462.207 
	L 86.528, 460.913 
	L 89.150, 459.529 
	L 91.772, 458.704 
	L 94.394, 458.532 
	L 97.016, 458.482 
	L 99.638, 458.342 
	L 102.260, 459.538 
" />
<path d="M 0.001, 455.305 
	L 0.000, 455.306 
	L 2.480, 455.311 
	L 4.961, 455.159 
	L 7.441, 454.992 
	L 9.921, 455.095 
	L 12.402, 455.175 
	L 14.882, 455.093 
	L 17.362, 455.158 
	L 19.843, 454.992 
	L 22.323, 454.961 
	L 24.803, 454.944 
" />
<path d="M 24.803, 454.944 
	L 27.283, 454.786 
	L 29.764, 454.742 
	L 32.244, 454.812 
	L 34.724, 454.845 
	L 37.205, 454.881 
	L 39.685, 454.852 
	L 42.165, 454.713 
	L 44.646, 454.789 
	L 47.126, 454.867 
	L 49.606, 454.990 
	L 52.087, 455.096 
" />
<path d="M 52.087, 455.096 
	L 54.567, 454.948 
	L 57.047, 454.842 
	L 59.528, 454.864 
	L 62.008, 454.923 
	L 64.488, 454.759 
	L 66.969, 454.802 
	L 69.449, 454.842 
	L 71.929, 454.961 
	L 74.409, 455.052 
	L 76.890, 455.061 
	L 79.370, 454.980 
" />
<path d="M 79.370, 454.980 
	L 81.850, 454.822 
	L 84.331, 454.655 
	L 86.811, 454.554 
	L 89.291, 454.533 
	L 91.772, 454.527 
	L 94.252, 454.510 
	L 96.732, 454.655 
" />
<path d="M 0.001, 445.273 
	L 0.000, 445.273 
	L 2.409, 445.235 
	L 4.819, 446.382 
	L 7.228, 447.641 
	L 9.638, 446.864 
	L 12.047, 446.258 
	L 14.457, 446.878 
	L 16.866, 446.388 
	L 19.276, 447.639 
	L 21.685, 447.874 
	L 24.094, 447.997 
" />
<path d="M 24.094, 447.997 
	L 26.504, 449.194 
	L 28.913, 449.523 
	L 31.323, 448.997 
	L 33.732, 448.749 
	L 36.142, 448.479 
	L 38.551, 448.692 
	L 40.961, 449.739 
	L 43.370, 449.169 
	L 45.780, 448.578 
	L 48.189, 447.653 
	L 50.598, 446.856 
" />
<path d="M 50.598, 446.856 
	L 53.008, 447.969 
	L 55.417, 448.773 
	L 57.827, 448.603 
	L 60.236, 448.159 
	L 62.646, 449.398 
	L 65.055, 449.069 
	L 67.465, 448.770 
	L 69.874, 447.874 
	L 72.283, 447.187 
	L 74.693, 447.117 
	L 77.102, 447.728 
" />
<path d="M 77.102, 447.728 
	L 79.512, 448.914 
	L 81.921, 450.181 
	L 84.331, 450.938 
	L 86.740, 451.095 
	L 89.150, 451.141 
	L 91.559, 451.269 
	L 93.969, 450.173 
" />
<path d="M 0.001, 442.252 
	L 0.000, 442.253 
	L 2.339, 442.274 
	L 4.677, 441.628 
	L 7.016, 440.919 
	L 9.354, 441.357 
	L 11.693, 441.697 
	L 14.031, 441.348 
	L 16.370, 441.625 
	L 18.709, 440.920 
	L 21.047, 440.787 
	L 23.386, 440.718 
" />
<path d="M 23.386, 440.718 
	L 25.724, 440.044 
	L 28.063, 439.858 
	L 30.402, 440.155 
	L 32.740, 440.294 
	L 35.079, 440.447 
	L 37.417, 440.327 
	L 39.756, 439.737 
	L 42.094, 440.058 
	L 44.433, 440.391 
	L 46.772, 440.912 
	L 49.110, 441.361 
" />
<path d="M 49.110, 441.361 
	L 51.449, 440.734 
	L 53.787, 440.281 
	L 56.126, 440.377 
	L 58.465, 440.627 
	L 60.803, 439.929 
	L 63.142, 440.114 
	L 65.480, 440.283 
	L 67.819, 440.787 
	L 70.157, 441.175 
	L 72.496, 441.214 
	L 74.835, 440.870 
" />
<path d="M 74.835, 440.870 
	L 77.173, 440.201 
	L 79.512, 439.488 
	L 81.850, 439.062 
	L 84.189, 438.973 
	L 86.528, 438.947 
	L 88.866, 438.875 
	L 91.205, 439.492 
" />
</g><g style="stroke:rgb(255,0,0); fill:none; stroke-width:0.100mm" >
<path d="M 14.173, 622.205 
	L 14.173, 625.039 
" />
<path d="M 14.173, 623.622 
	L 16.299, 622.205 
	L 17.362, 622.205 
" />
<path d="M 20.551, 623.622 
	L 23.740, 623.622 
	L 24.803, 622.913 
	L 23.740, 622.205 
	L 21.614, 622.205 
	L 20.551, 622.913 
	L 20.551, 624.331 
	L 21.614, 625.039 
	L 24.803, 625.039 
" />
<path d="M 31.181, 624.331 
	L 30.118, 625.039 
	L 29.055, 625.039 
	L 27.992, 624.331 
	L 27.992, 622.913 
	L 29.055, 622.205 
	L 30.118, 622.205 
	L 31.181, 622.913 
" />
<path d="M 34.370, 625.039 
	L 33.307, 624.331 
	L 33.307, 622.913 
	L 34.370, 622.205 
	L 35.433, 622.205 
	L 36.496, 622.913 
	L 36.496, 624.331 
	L 35.433, 625.039 
	L 34.370, 625.039 
" />
<path d="M 39.685, 622.205 
	L 39.685, 625.039 
" />
<path d="M 39.685, 623.622 
	L 41.811, 622.205 
	L 42.874, 622.205 
" />
<path d="M 49.252, 620.787 
	L 49.252, 625.039 
	L 47.126, 625.039 
	L 46.063, 624.331 
	L 46.063, 622.913 
	L 47.126, 622.205 
	L 49.252, 622.205 
" />
<path d="M 49.252, 625.039 
	L 50.315, 625.039 
" />
<path d="M 52.441, 623.622 
	L 55.630, 623.622 
	L 56.693, 622.913 
	L 55.630, 622.205 
	L 53.504, 622.205 
	L 52.441, 622.913 
	L 52.441, 624.331 
	L 53.504, 625.039 
	L 56.693, 625.039 
" />
<path d="M 62.008, 620.787 
	L 62.008, 625.039 
	L 59.882, 625.039 
	L 58.819, 624.331 
	L 58.819, 622.913 
	L 59.882, 622.205 
	L 62.008, 622.205 
" />
<path d="M 62.008, 625.039 
	L 63.071, 625.039 
" />
<path d="M 73.701, 620.787 
	L 73.701, 621.496 
" />
<path d="M 72.638, 622.205 
	L 73.701, 622.205 
	L 73.701, 625.039 
" />
<path d="M 72.638, 625.039 
	L 74.764, 625.039 
" />
<path d="M 77.953, 625.039 
	L 77.953, 622.205 
" />
<path d="M 77.953, 622.913 
	L 79.016, 622.205 
	L 80.079, 622.205 
	L 81.142, 622.913 
	L 81.142, 625.039 
" />
<path d="M 92.835, 625.039 
	L 92.835, 620.787 
	L 90.709, 620.787 
	L 94.961, 620.787 
" />
<path d="M 97.087, 622.205 
	L 97.087, 624.331 
	L 98.150, 625.039 
	L 100.276, 625.039 
	L 100.276, 622.205 
" />
<path d="M 106.654, 622.205 
	L 104.528, 622.205 
	L 103.465, 622.913 
	L 104.528, 623.622 
	L 105.591, 623.622 
	L 106.654, 624.331 
	L 105.591, 625.039 
	L 103.465, 625.039 
" />
<path d="M 109.843, 620.787 
	L 109.843, 625.039 
" />
<path d="M 109.843, 622.205 
	L 111.969, 622.205 
	L 113.032, 622.913 
	L 113.032, 625.039 
" />
<path d="M 116.220, 623.622 
	L 119.409, 623.622 
	L 120.472, 622.913 
	L 119.409, 622.205 
	L 117.283, 622.205 
	L 116.220, 622.913 
	L 116.220, 624.331 
	L 117.283, 625.039 
	L 120.472, 625.039 
" />
<path d="M 123.661, 620.787 
	L 123.661, 625.039 
	L 125.787, 625.039 
" />
<path d="M 122.598, 622.205 
	L 125.787, 622.205 
" />
<path d="M 131.102, 620.787 
	L 131.102, 621.496 
" />
<path d="M 130.039, 622.205 
	L 131.102, 622.205 
	L 131.102, 625.039 
" />
<path d="M 130.039, 625.039 
	L 132.165, 625.039 
" />
<path d="M 137.480, 620.787 
	L 137.480, 621.496 
" />
<path d="M 136.417, 622.205 
	L 137.480, 622.205 
	L 137.480, 625.039 
" />
<path d="M 136.417, 625.039 
	L 138.543, 625.039 
" />
<path d="M 152.362, 621.496 
	L 151.299, 620.787 
	L 149.173, 620.787 
	L 148.110, 621.496 
	L 148.110, 624.331 
	L 149.173, 625.039 
	L 151.299, 625.039 
	L 152.362, 624.331 
	L 152.362, 622.913 
	L 149.173, 622.913 
" />
<path d="M 154.488, 623.622 
	L 157.677, 623.622 
	L 158.740, 622.913 
	L 157.677, 622.205 
	L 155.551, 622.205 
	L 154.488, 622.913 
	L 154.488, 624.331 
	L 155.551, 625.039 
	L 158.740, 625.039 
" />
<path d="M 161.929, 625.039 
	L 160.866, 624.331 
	L 160.866, 622.913 
	L 161.929, 622.205 
	L 162.992, 622.205 
	L 164.055, 622.913 
	L 164.055, 624.331 
	L 162.992, 625.039 
	L 161.929, 625.039 
" />
<path d="M 167.244, 622.205 
	L 167.244, 625.039 
" />
<path d="M 167.244, 623.622 
	L 169.370, 622.205 
	L 170.433, 622.205 
" />
<path d="M 173.622, 626.457 
	L 175.748, 626.457 
	L 176.811, 625.748 
	L 176.811, 622.205 
	L 174.685, 622.205 
	L 173.622, 622.913 
	L 173.622, 624.331 
	L 174.685, 625.039 
	L 176.811, 625.039 
" />
<path d="M 182.126, 620.787 
	L 182.126, 621.496 
" />
<path d="M 181.063, 622.205 
	L 182.126, 622.205 
	L 182.126, 625.039 
" />
<path d="M 181.063, 625.039 
	L 183.189, 625.039 
" />
<path d="M 190.630, 625.039 
	L 187.441, 625.039 
	L 186.378, 624.331 
	L 186.378, 622.913 
	L 187.441, 622.205 
	L 189.567, 622.205 
	L 189.567, 625.039 
" />
<path d="M 14.173, 632.126 
	L 14.173, 627.874 
" />
<path d="M 17.362, 632.126 
	L 14.173, 630.709 
	L 17.362, 629.291 
" />
<path d="M 24.803, 632.126 
	L 21.614, 632.126 
	L 20.551, 631.417 
	L 20.551, 630.000 
	L 21.614, 629.291 
	L 23.740, 629.291 
	L 23.740, 632.126 
" />
<path d="M 27.992, 632.126 
	L 26.929, 631.417 
	L 26.929, 630.000 
	L 27.992, 629.291 
	L 29.055, 629.291 
	L 30.118, 630.000 
	L 30.118, 631.417 
	L 29.055, 632.126 
	L 27.992, 632.126 
" />
<path d="M 34.370, 627.874 
	L 34.370, 632.126 
	L 36.496, 632.126 
" />
<path d="M 33.307, 629.291 
	L 36.496, 629.291 
" />
<path d="M 39.685, 630.709 
	L 42.874, 630.709 
	L 43.937, 630.000 
	L 42.874, 629.291 
	L 40.748, 629.291 
	L 39.685, 630.000 
	L 39.685, 631.417 
	L 40.748, 632.126 
	L 43.937, 632.126 
" />
<path d="M 50.315, 631.417 
	L 49.252, 632.126 
	L 48.189, 632.126 
	L 47.126, 631.417 
	L 47.126, 630.000 
	L 48.189, 629.291 
	L 49.252, 629.291 
	L 50.315, 630.000 
" />
<path d="M 63.071, 632.126 
	L 60.945, 632.126 
	L 60.945, 627.874 
	L 63.071, 627.874 
" />
<path d="M 65.197, 632.126 
	L 67.323, 632.126 
	L 67.323, 627.874 
	L 65.197, 627.874 
" />
<path d="M 74.764, 627.874 
	L 71.575, 630.000 
	L 74.764, 632.126 
" />
<path d="M 77.953, 627.874 
	L 81.142, 630.000 
	L 77.953, 632.126 
" />
<path d="M 90.709, 628.583 
	L 91.772, 627.874 
	L 93.898, 627.874 
	L 94.961, 628.583 
	L 94.961, 629.291 
	L 90.709, 631.417 
	L 90.709, 632.126 
	L 94.961, 632.126 
" />
<path d="M 97.087, 631.417 
	L 98.150, 632.126 
	L 100.276, 632.126 
	L 101.339, 631.417 
	L 101.339, 628.583 
	L 100.276, 627.874 
	L 98.150, 627.874 
	L 97.087, 628.583 
	L 97.087, 631.417 
" />
<path d="M 104.528, 632.126 
	L 106.654, 632.126 
" />
<path d="M 105.591, 632.126 
	L 105.591, 627.874 
	L 104.528, 628.583 
" />
<path d="M 110.906, 632.126 
	L 111.969, 632.126 
	L 114.095, 630.709 
	L 114.095, 628.583 
	L 113.032, 627.874 
	L 110.906, 627.874 
	L 109.843, 628.583 
	L 109.843, 629.291 
	L 110.906, 630.000 
	L 114.095, 630.000 
" />
<path d="M 14.173, 653.386 
	L 17.362, 653.386 
	L 18.425, 652.677 
	L 18.425, 651.260 
	L 17.362, 650.551 
	L 15.236, 650.551 
" />
<path d="M 15.236, 649.134 
	L 15.236, 653.386 
" />
<path d="M 24.803, 653.386 
	L 21.614, 653.386 
	L 20.551, 652.677 
	L 20.551, 651.260 
	L 21.614, 650.551 
	L 23.740, 650.551 
	L 23.740, 653.386 
" />
<path d="M 26.929, 653.386 
	L 26.929, 650.551 
" />
<path d="M 26.929, 651.260 
	L 27.992, 650.551 
	L 29.055, 650.551 
	L 30.118, 651.260 
	L 30.118, 653.386 
" />
<path d="M 36.496, 649.134 
	L 36.496, 653.386 
	L 34.370, 653.386 
	L 33.307, 652.677 
	L 33.307, 651.260 
	L 34.370, 650.551 
	L 36.496, 650.551 
" />
<path d="M 36.496, 653.386 
	L 37.559, 653.386 
" />
<path d="M 43.937, 652.677 
	L 42.874, 653.386 
	L 41.811, 653.386 
	L 40.748, 652.677 
	L 40.748, 651.260 
	L 41.811, 650.551 
	L 42.874, 650.551 
	L 43.937, 651.260 
" />
<path d="M 50.315, 653.386 
	L 47.126, 653.386 
	L 46.063, 652.677 
	L 46.063, 651.260 
	L 47.126, 650.551 
	L 49.252, 650.551 
	L 49.252, 653.386 
" />
<path d="M 52.441, 653.386 
	L 52.441, 650.551 
" />
<path d="M 52.441, 651.260 
	L 53.504, 650.551 
	L 54.567, 651.260 
	L 54.567, 653.386 
" />
<path d="M 54.567, 651.260 
	L 55.630, 650.551 
	L 56.693, 651.260 
	L 56.693, 653.386 
" />
<path d="M 58.819, 654.803 
	L 58.819, 650.551 
	L 60.945, 650.551 
	L 62.008, 651.260 
	L 62.008, 652.677 
	L 60.945, 653.386 
	L 58.819, 653.386 
" />
<path d="M 74.764, 649.134 
	L 74.764, 653.386 
	L 72.638, 653.386 
	L 71.575, 652.677 
	L 71.575, 651.260 
	L 72.638, 650.551 
	L 74.764, 650.551 
" />
<path d="M 74.764, 653.386 
	L 75.827, 653.386 
" />
<path d="M 79.016, 653.386 
	L 77.953, 652.677 
	L 77.953, 651.260 
	L 79.016, 650.551 
	L 80.079, 650.551 
	L 81.142, 651.260 
	L 81.142, 652.677 
	L 80.079, 653.386 
	L 79.016, 653.386 
" />
<path d="M 84.331, 650.551 
	L 84.331, 652.677 
	L 85.394, 653.386 
	L 86.457, 652.677 
	L 86.457, 651.260 
" />
<path d="M 86.457, 652.677 
	L 87.520, 653.386 
	L 88.583, 652.677 
	L 88.583, 650.551 
" />
<path d="M 90.709, 653.386 
	L 90.709, 650.551 
" />
<path d="M 90.709, 651.260 
	L 91.772, 650.551 
	L 92.835, 650.551 
	L 93.898, 651.260 
	L 93.898, 653.386 
" />
<path d="M 98.150, 649.134 
	L 99.213, 649.134 
	L 99.213, 653.386 
" />
<path d="M 98.150, 653.386 
	L 100.276, 653.386 
" />
<path d="M 104.528, 653.386 
	L 103.465, 652.677 
	L 103.465, 651.260 
	L 104.528, 650.551 
	L 105.591, 650.551 
	L 106.654, 651.260 
	L 106.654, 652.677 
	L 105.591, 653.386 
	L 104.528, 653.386 
" />
<path d="M 114.095, 653.386 
	L 110.906, 653.386 
	L 109.843, 652.677 
	L 109.843, 651.260 
	L 110.906, 650.551 
	L 113.032, 650.551 
	L 113.032, 653.386 
" />
<path d="M 119.409, 649.134 
	L 119.409, 653.386 
	L 117.283, 653.386 
	L 116.220, 652.677 
	L 116.220, 651.260 
	L 117.283, 650.551 
	L 119.409, 650.551 
" />
<path d="M 119.409, 653.386 
	L 120.472, 653.386 
" />
<path d="M 126.850, 652.677 
	L 125.787, 653.386 
	L 124.724, 653.386 
	L 123.661, 652.677 
	L 123.661, 651.260 
	L 124.724, 650.551 
	L 125.787, 650.551 
	L 126.850, 651.260 
" />
<path d="M 130.039, 653.386 
	L 128.976, 652.677 
	L 128.976, 651.260 
	L 130.039, 650.551 
	L 131.102, 650.551 
	L 132.165, 651.260 
	L 132.165, 652.677 
	L 131.102, 653.386 
	L 130.039, 653.386 
" />
<path d="M 138.543, 649.134 
	L 138.543, 653.386 
	L 136.417, 653.386 
	L 135.354, 652.677 
	L 135.354, 651.260 
	L 136.417, 650.551 
	L 138.543, 650.551 
" />
<path d="M 138.543, 653.386 
	L 139.606, 653.386 
" />
<path d="M 141.732, 651.969 
	L 144.921, 651.969 
	L 145.984, 651.260 
	L 144.921, 650.551 
	L 142.795, 650.551 
	L 141.732, 651.260 
	L 141.732, 652.677 
	L 142.795, 653.386 
	L 145.984, 653.386 
" />
<path d="M 154.488, 653.386 
	L 158.740, 649.134 
" />
<path d="M 158.740, 653.386 
	L 154.488, 649.134 
" />
<path d="M 160.866, 653.386 
	L 165.118, 649.134 
" />
<path d="M 165.118, 653.386 
	L 160.866, 649.134 
" />
<path d="M 167.244, 653.386 
	L 171.496, 649.134 
" />
<path d="M 171.496, 653.386 
	L 167.244, 649.134 
" />
<path d="M 173.622, 653.386 
	L 177.874, 649.134 
" />
<path d="M 177.874, 653.386 
	L 173.622, 649.134 
" />
<path d="M 180.000, 651.260 
	L 184.252, 651.260 
" />
<path d="M 186.378, 653.386 
	L 190.630, 649.134 
" />
<path d="M 190.630, 653.386 
	L 186.378, 649.134 
" />
<path d="M 192.756, 653.386 
	L 197.008, 649.134 
" />
<path d="M 197.008, 653.386 
	L 192.756, 649.134 
" />
<path d="M 199.134, 653.386 
	L 203.386, 649.134 
" />
<path d="M 203.386, 653.386 
	L 199.134, 649.134 
" />
<path d="M 205.512, 653.386 
	L 209.764, 649.134 
" />
<path d="M 209.764, 653.386 
	L 205.512, 649.134 
" />
<path d="M 17.717, 238.818 
	L 17.717, 238.819 
	L 17.717, 237.472 
	L 37.382, 237.472 
	L 37.382, 238.819 
	L 17.717, 238.819 
	L 17.717, 233.823 
	L 17.717, 232.476 
	L 37.382, 232.476 
	L 37.382, 233.823 
	L 17.717, 233.823 
	L 17.717, 231.095 
" />
<path d="M 17.717, 231.095 
	L 17.717, 229.748 
	L 37.382, 229.748 
	L 37.382, 231.095 
	L 17.717, 231.095 
" />
<path d="M 37.666, 238.818 
	L 37.665, 238.819 
	L 37.665, 229.748 
	L 39.366, 229.748 
	L 39.366, 238.819 
	L 37.665, 238.819 
" />
<path d="M 39.367, 238.818 
	L 39.366, 238.819 
	L 39.366, 232.016 
	L 51.626, 232.016 
	L 51.626, 233.362 
	L 41.067, 233.362 
	L 41.067, 234.744 
	L 51.626, 234.744 
	L 51.626, 236.091 
	L 41.067, 236.091 
	L 41.067, 238.819 
	L 39.366, 238.819 
" />
<path d="M 39.366, 238.819 
" />
<path d="M 62.257, 234.743 
	L 62.256, 234.744 
	L 62.256, 233.362 
	L 52.902, 233.362 
	L 52.902, 234.744 
	L 62.256, 234.744 
	L 51.343, 238.819 
	L 51.343, 232.016 
	L 63.815, 232.016 
	L 63.815, 236.091 
	L 52.902, 236.091 
	L 52.902, 237.472 
" />
<path d="M 52.902, 237.472 
	L 63.815, 237.472 
	L 63.815, 238.819 
	L 51.343, 238.819 
" />
<path d="M 64.099, 238.818 
	L 64.098, 238.819 
	L 64.098, 232.016 
	L 77.138, 232.016 
	L 77.138, 238.819 
	L 75.437, 238.819 
	L 75.437, 233.362 
	L 65.799, 233.362 
	L 65.799, 238.819 
	L 64.098, 238.819 
" />
<path d="M 77.139, 239.279 
	L 77.138, 239.280 
	L 77.138, 229.748 
	L 78.839, 229.748 
	L 78.839, 237.224 
	L 88.193, 233.150 
	L 97.547, 237.224 
	L 97.547, 229.748 
	L 99.248, 229.748 
	L 99.248, 239.280 
	L 88.193, 234.496 
	L 77.138, 239.280 
" />
<path d="M 77.138, 239.280 
" />
<path d="M 110.587, 237.472 
	L 110.587, 237.472 
	L 110.587, 233.362 
	L 108.319, 233.362 
	L 103.783, 237.472 
	L 110.587, 237.472 
	L 99.992, 238.819 
	L 106.051, 233.362 
	L 99.992, 233.362 
	L 99.992, 232.016 
	L 112.287, 232.016 
" />
<path d="M 112.287, 232.016 
	L 112.287, 238.819 
	L 99.992, 238.819 
" />
<path d="M 111.544, 238.818 
	L 111.543, 238.819 
	L 111.543, 232.016 
	L 124.583, 232.016 
	L 124.583, 238.819 
	L 122.882, 238.819 
	L 122.882, 233.362 
	L 113.244, 233.362 
	L 113.244, 238.819 
	L 111.543, 238.819 
" />
<path d="M 135.922, 237.472 
	L 135.921, 237.472 
	L 135.921, 233.362 
	L 126.283, 233.362 
	L 126.283, 237.472 
	L 135.921, 237.472 
	L 124.583, 238.819 
	L 124.583, 232.016 
	L 135.921, 232.016 
	L 135.921, 229.748 
	L 137.622, 229.748 
" />
<path d="M 137.622, 229.748 
	L 137.622, 238.819 
	L 124.583, 238.819 
" />
<path d="M 148.253, 234.743 
	L 148.252, 234.744 
	L 148.252, 233.362 
	L 138.898, 233.362 
	L 138.898, 234.744 
	L 148.252, 234.744 
	L 137.339, 238.819 
	L 137.339, 232.016 
	L 149.811, 232.016 
	L 149.811, 236.091 
	L 138.898, 236.091 
" />
<path d="M 138.898, 236.091 
	L 138.898, 237.472 
	L 149.811, 237.472 
	L 149.811, 238.819 
	L 137.339, 238.819 
" />
<path d="M 150.095, 238.818 
	L 150.095, 238.819 
	L 150.095, 232.016 
	L 162.354, 232.016 
	L 162.354, 233.362 
	L 151.795, 233.362 
	L 151.795, 238.819 
	L 150.095, 238.819 
" />
<path d="M 36.320, 255.188 
	L 36.319, 255.189 
	L 28.772, 248.811 
	L 19.701, 248.811 
	L 19.701, 255.189 
	L 36.319, 255.189 
	L 18.000, 256.535 
	L 18.000, 247.465 
	L 29.516, 247.465 
	L 40.110, 256.535 
	L 18.000, 256.535 
" />
<path d="M 40.111, 256.535 
	L 40.110, 256.535 
	L 40.110, 249.732 
	L 41.811, 249.732 
	L 41.811, 256.535 
	L 40.110, 256.535 
	L 40.110, 248.811 
	L 40.110, 247.465 
	L 41.811, 247.465 
	L 41.811, 248.811 
	L 40.110, 248.811 
" />
<path d="M 41.528, 256.535 
	L 41.528, 256.535 
	L 41.528, 255.189 
	L 52.441, 255.189 
	L 52.441, 253.807 
	L 41.528, 253.807 
	L 41.528, 249.732 
	L 54.000, 249.732 
	L 54.000, 251.079 
	L 43.087, 251.079 
	L 43.087, 252.461 
	L 54.000, 252.461 
" />
<path d="M 54.000, 252.461 
	L 54.000, 256.535 
	L 41.528, 256.535 
" />
<path d="M 54.284, 256.535 
	L 54.283, 256.535 
	L 54.283, 247.465 
	L 55.984, 247.465 
	L 55.984, 249.732 
	L 66.543, 249.732 
	L 66.543, 251.079 
	L 55.984, 251.079 
	L 55.984, 255.189 
	L 66.543, 255.189 
	L 66.543, 256.535 
	L 54.283, 256.535 
" />
<path d="M 54.283, 256.535 
" />
<path d="M 66.544, 256.535 
	L 66.543, 256.535 
	L 66.543, 249.732 
	L 78.803, 249.732 
	L 78.803, 251.079 
	L 68.244, 251.079 
	L 68.244, 256.535 
	L 66.543, 256.535 
" />
<path d="M 89.434, 252.460 
	L 89.433, 252.461 
	L 89.433, 251.079 
	L 80.079, 251.079 
	L 80.079, 252.461 
	L 89.433, 252.461 
	L 78.520, 256.535 
	L 78.520, 249.732 
	L 90.992, 249.732 
	L 90.992, 253.807 
	L 80.079, 253.807 
	L 80.079, 255.189 
" />
<path d="M 80.079, 255.189 
	L 90.992, 255.189 
	L 90.992, 256.535 
	L 78.520, 256.535 
" />
<path d="M 90.993, 256.535 
	L 90.992, 256.535 
	L 90.992, 255.189 
	L 101.906, 255.189 
	L 101.906, 253.807 
	L 90.992, 253.807 
	L 90.992, 249.732 
	L 103.465, 249.732 
	L 103.465, 251.079 
	L 92.551, 251.079 
	L 92.551, 252.461 
" />
<path d="M 92.551, 252.461 
	L 103.465, 252.461 
	L 103.465, 256.535 
	L 90.992, 256.535 
" />
<path d="M 103.465, 256.535 
	L 103.465, 256.535 
	L 103.465, 255.189 
	L 114.378, 255.189 
	L 114.378, 253.807 
	L 103.465, 253.807 
	L 103.465, 249.732 
	L 115.937, 249.732 
	L 115.937, 251.079 
	L 105.024, 251.079 
	L 105.024, 252.461 
" />
<path d="M 105.024, 252.461 
	L 115.937, 252.461 
	L 115.937, 256.535 
	L 103.465, 256.535 
" />
<path d="M 116.221, 256.535 
	L 116.220, 256.535 
	L 116.220, 250.193 
	L 136.063, 250.193 
	L 136.063, 251.539 
	L 117.921, 251.539 
	L 117.921, 256.535 
	L 116.220, 256.535 
	L 116.220, 248.811 
	L 116.220, 247.465 
	L 136.063, 247.465 
" />
<path d="M 136.063, 247.465 
	L 136.063, 248.811 
	L 116.220, 248.811 
" />
<path d="M 136.064, 256.535 
	L 136.063, 256.535 
	L 136.063, 249.732 
	L 148.323, 249.732 
	L 148.323, 251.079 
	L 137.764, 251.079 
	L 137.764, 256.535 
	L 136.063, 256.535 
" />
<path d="M 158.953, 252.460 
	L 158.953, 252.461 
	L 158.953, 251.079 
	L 149.598, 251.079 
	L 149.598, 252.461 
	L 158.953, 252.461 
	L 148.039, 256.535 
	L 148.039, 249.732 
	L 160.512, 249.732 
	L 160.512, 253.807 
	L 149.598, 253.807 
" />
<path d="M 149.598, 253.807 
	L 149.598, 255.189 
	L 160.512, 255.189 
	L 160.512, 256.535 
	L 148.039, 256.535 
" />
<path d="M 172.135, 255.188 
	L 172.134, 255.189 
	L 172.134, 251.079 
	L 162.496, 251.079 
	L 162.496, 255.189 
	L 172.134, 255.189 
	L 172.134, 258.803 
	L 172.134, 256.535 
	L 160.795, 256.535 
	L 160.795, 249.732 
	L 173.835, 249.732 
" />
<path d="M 173.835, 249.732 
	L 173.835, 258.803 
	L 172.134, 258.803 
" />
<path d="M 173.835, 256.535 
	L 173.835, 256.535 
	L 173.835, 249.732 
	L 175.535, 249.732 
	L 175.535, 255.189 
	L 185.173, 255.189 
	L 185.173, 249.732 
	L 186.874, 249.732 
	L 186.874, 256.535 
	L 173.835, 256.535 
" />
<path d="M 197.505, 252.460 
	L 197.504, 252.461 
	L 197.504, 251.079 
	L 188.150, 251.079 
	L 188.150, 252.461 
	L 197.504, 252.461 
	L 186.591, 256.535 
	L 186.591, 249.732 
	L 199.063, 249.732 
	L 199.063, 253.807 
	L 188.150, 253.807 
" />
<path d="M 188.150, 253.807 
	L 188.150, 255.189 
	L 199.063, 255.189 
	L 199.063, 256.535 
	L 186.591, 256.535 
" />
<path d="M 199.347, 256.535 
	L 199.346, 256.535 
	L 199.346, 249.732 
	L 212.386, 249.732 
	L 212.386, 256.535 
	L 210.685, 256.535 
	L 210.685, 251.079 
	L 201.047, 251.079 
	L 201.047, 256.535 
	L 199.346, 256.535 
" />
<path d="M 212.387, 256.535 
	L 212.386, 256.535 
	L 212.386, 249.732 
	L 224.646, 249.732 
	L 224.646, 251.079 
	L 214.087, 251.079 
	L 214.087, 255.189 
	L 224.646, 255.189 
	L 224.646, 256.535 
	L 212.386, 256.535 
" />
<path d="M 225.391, 258.802 
	L 225.390, 258.803 
	L 225.390, 257.421 
	L 235.984, 257.421 
	L 235.984, 256.535 
	L 232.937, 256.535 
	L 225.390, 249.732 
	L 227.658, 249.732 
	L 233.717, 255.189 
	L 235.984, 255.189 
	L 235.984, 249.732 
" />
<path d="M 235.984, 249.732 
	L 237.685, 249.732 
	L 237.685, 258.803 
	L 225.390, 258.803 
" />
<path d="M 27.072, 274.251 
	L 27.071, 274.252 
	L 27.071, 266.528 
	L 17.256, 266.528 
	L 17.256, 265.181 
	L 38.587, 265.181 
	L 38.587, 266.528 
	L 28.772, 266.528 
	L 28.772, 274.252 
	L 27.071, 274.252 
" />
<path d="M 39.331, 274.251 
	L 39.331, 274.252 
	L 39.331, 265.181 
	L 41.032, 265.181 
	L 41.032, 267.449 
	L 52.370, 267.449 
	L 52.370, 274.252 
	L 50.669, 274.252 
	L 50.669, 268.795 
	L 41.032, 268.795 
	L 41.032, 274.252 
	L 39.331, 274.252 
" />
<path d="M 39.331, 274.252 
" />
<path d="M 63.001, 270.177 
	L 63.000, 270.177 
	L 63.000, 268.795 
	L 53.646, 268.795 
	L 53.646, 270.177 
	L 63.000, 270.177 
	L 52.087, 274.252 
	L 52.087, 267.449 
	L 64.559, 267.449 
	L 64.559, 271.524 
	L 53.646, 271.524 
	L 53.646, 272.906 
" />
<path d="M 53.646, 272.906 
	L 64.559, 272.906 
	L 64.559, 274.252 
	L 52.087, 274.252 
" />
<path d="M 64.560, 274.251 
	L 64.559, 274.252 
	L 64.559, 272.906 
	L 84.224, 272.906 
	L 84.224, 274.252 
	L 64.559, 274.252 
	L 64.559, 269.256 
	L 64.559, 267.909 
	L 84.224, 267.909 
	L 84.224, 269.256 
	L 64.559, 269.256 
	L 64.559, 266.528 
" />
<path d="M 64.559, 266.528 
	L 64.559, 265.181 
	L 84.224, 265.181 
	L 84.224, 266.528 
	L 64.559, 266.528 
" />
<path d="M 95.847, 272.905 
	L 95.846, 272.906 
	L 95.846, 268.795 
	L 86.209, 268.795 
	L 86.209, 272.906 
	L 95.846, 272.906 
	L 84.508, 274.252 
	L 84.508, 267.449 
	L 95.846, 267.449 
	L 95.846, 265.181 
	L 97.547, 265.181 
	L 97.547, 274.252 
" />
<path d="M 97.547, 274.252 
	L 84.508, 274.252 
" />
<path d="M 108.887, 272.905 
	L 108.886, 272.906 
	L 108.886, 268.795 
	L 99.248, 268.795 
	L 99.248, 272.906 
	L 108.886, 272.906 
	L 97.547, 276.520 
	L 97.547, 275.138 
	L 108.886, 275.138 
	L 108.886, 274.252 
	L 97.547, 274.252 
" />
<path d="M 97.547, 274.252 
	L 97.547, 267.449 
	L 110.587, 267.449 
	L 110.587, 276.520 
	L 97.547, 276.520 
" />
<path d="M 121.217, 270.177 
	L 121.217, 270.177 
	L 121.217, 268.795 
	L 111.862, 268.795 
	L 111.862, 270.177 
	L 121.217, 270.177 
	L 110.303, 274.252 
	L 110.303, 267.449 
	L 122.776, 267.449 
	L 122.776, 271.524 
	L 111.862, 271.524 
" />
<path d="M 111.862, 271.524 
	L 111.862, 272.906 
	L 122.776, 272.906 
	L 122.776, 274.252 
	L 110.303, 274.252 
" />
<path d="M 143.469, 272.905 
	L 143.469, 272.906 
	L 143.469, 266.528 
	L 124.760, 266.528 
	L 124.760, 272.906 
	L 143.469, 272.906 
	L 123.059, 274.252 
	L 123.059, 265.181 
	L 145.169, 265.181 
	L 145.169, 274.252 
	L 123.059, 274.252 
" />
<path d="M 123.059, 274.252 
" />
<path d="M 145.170, 274.251 
	L 145.169, 274.252 
	L 145.169, 267.449 
	L 157.429, 267.449 
	L 157.429, 268.795 
	L 146.870, 268.795 
	L 146.870, 270.177 
	L 157.429, 270.177 
	L 157.429, 271.524 
	L 146.870, 271.524 
	L 146.870, 274.252 
" />
<path d="M 146.870, 274.252 
	L 145.169, 274.252 
" />
<path d="M 157.430, 274.712 
	L 157.429, 274.713 
	L 157.429, 265.181 
	L 159.130, 265.181 
	L 159.130, 272.658 
	L 168.484, 268.583 
	L 177.839, 272.658 
	L 177.839, 265.181 
	L 179.539, 265.181 
	L 179.539, 274.713 
	L 168.484, 269.929 
" />
<path d="M 168.484, 269.929 
	L 157.429, 274.713 
" />
<path d="M 179.540, 274.251 
	L 179.539, 274.252 
	L 179.539, 265.181 
	L 181.240, 265.181 
	L 181.240, 267.449 
	L 192.579, 267.449 
	L 192.579, 274.252 
	L 190.878, 274.252 
	L 190.878, 268.795 
	L 181.240, 268.795 
	L 181.240, 274.252 
" />
<path d="M 181.240, 274.252 
	L 179.539, 274.252 
" />
<path d="M 203.918, 272.905 
	L 203.917, 272.906 
	L 203.917, 268.795 
	L 201.650, 268.795 
	L 197.114, 272.906 
	L 203.917, 272.906 
	L 193.323, 274.252 
	L 199.382, 268.795 
	L 193.323, 268.795 
	L 193.323, 267.449 
	L 205.618, 267.449 
" />
<path d="M 205.618, 267.449 
	L 205.618, 274.252 
	L 193.323, 274.252 
" />
<path d="M 204.875, 274.251 
	L 204.874, 274.252 
	L 204.874, 265.181 
	L 206.575, 265.181 
	L 206.575, 267.449 
	L 217.134, 267.449 
	L 217.134, 268.795 
	L 206.575, 268.795 
	L 206.575, 272.906 
	L 217.134, 272.906 
	L 217.134, 274.252 
" />
<path d="M 217.134, 274.252 
	L 204.874, 274.252 
" />
<path d="M 217.135, 274.251 
	L 217.134, 274.252 
	L 217.134, 265.181 
	L 218.835, 265.181 
	L 218.835, 274.252 
	L 217.134, 274.252 
" />
<path d="M 218.552, 274.251 
	L 218.551, 274.252 
	L 218.551, 272.906 
	L 229.465, 272.906 
	L 229.465, 271.524 
	L 218.551, 271.524 
	L 218.551, 267.449 
	L 231.024, 267.449 
	L 231.024, 268.795 
	L 220.110, 268.795 
	L 220.110, 270.177 
" />
<path d="M 220.110, 270.177 
	L 231.024, 270.177 
	L 231.024, 274.252 
	L 218.551, 274.252 
" />
<path d="M 17.717, 284.881 
	L 17.717, 284.882 
	L 28.311, 275.350 
	L 38.870, 284.882 
	L 36.602, 284.882 
	L 28.311, 277.370 
	L 19.984, 284.882 
	L 17.717, 284.882 
" />
<path d="M 50.493, 283.535 
	L 50.492, 283.535 
	L 50.492, 279.425 
	L 40.854, 279.425 
	L 40.854, 283.535 
	L 50.492, 283.535 
	L 39.154, 284.882 
	L 39.154, 278.079 
	L 50.492, 278.079 
	L 50.492, 275.811 
	L 52.193, 275.811 
	L 52.193, 284.882 
" />
<path d="M 52.193, 284.882 
	L 39.154, 284.882 
" />
<path d="M 52.194, 284.881 
	L 52.193, 284.882 
	L 52.193, 278.079 
	L 62.965, 278.079 
	L 62.965, 284.882 
	L 61.264, 284.882 
	L 61.264, 279.425 
	L 58.429, 279.425 
	L 58.429, 284.882 
	L 56.728, 284.882 
	L 56.728, 279.425 
	L 53.894, 279.425 
" />
<path d="M 53.894, 279.425 
	L 53.894, 284.882 
	L 52.193, 284.882 
" />
<path d="M 62.965, 284.881 
	L 62.965, 284.882 
	L 62.965, 278.079 
	L 64.665, 278.079 
	L 64.665, 284.882 
	L 62.965, 284.882 
	L 62.965, 277.158 
	L 62.965, 275.811 
	L 64.665, 275.811 
	L 64.665, 277.158 
	L 62.965, 277.158 
" />
<path d="M 64.666, 284.881 
	L 64.665, 284.882 
	L 64.665, 278.079 
	L 77.705, 278.079 
	L 77.705, 284.882 
	L 76.004, 284.882 
	L 76.004, 279.425 
	L 66.366, 279.425 
	L 66.366, 284.882 
	L 64.665, 284.882 
" />
<path d="M 77.705, 284.881 
	L 77.705, 284.882 
	L 77.705, 278.079 
	L 79.406, 278.079 
	L 79.406, 284.882 
	L 77.705, 284.882 
	L 77.705, 277.158 
	L 77.705, 275.811 
	L 79.406, 275.811 
	L 79.406, 277.158 
	L 77.705, 277.158 
" />
<path d="M 79.123, 284.881 
	L 79.122, 284.882 
	L 79.122, 283.535 
	L 90.035, 283.535 
	L 90.035, 282.154 
	L 79.122, 282.154 
	L 79.122, 278.079 
	L 91.595, 278.079 
	L 91.595, 279.425 
	L 80.681, 279.425 
	L 80.681, 280.807 
	L 91.595, 280.807 
" />
<path d="M 91.595, 280.807 
	L 91.595, 284.882 
	L 79.122, 284.882 
" />
<path d="M 91.879, 284.881 
	L 91.878, 284.882 
	L 91.878, 275.811 
	L 93.579, 275.811 
	L 93.579, 278.079 
	L 104.138, 278.079 
	L 104.138, 279.425 
	L 93.579, 279.425 
	L 93.579, 283.535 
	L 104.138, 283.535 
	L 104.138, 284.882 
" />
<path d="M 104.138, 284.882 
	L 91.878, 284.882 
" />
<path d="M 104.139, 284.881 
	L 104.138, 284.882 
	L 104.138, 278.079 
	L 116.398, 278.079 
	L 116.398, 279.425 
	L 105.839, 279.425 
	L 105.839, 284.882 
	L 104.138, 284.882 
" />
<path d="M 127.737, 283.535 
	L 127.736, 283.535 
	L 127.736, 279.425 
	L 125.469, 279.425 
	L 120.933, 283.535 
	L 127.736, 283.535 
	L 117.142, 284.882 
	L 123.201, 279.425 
	L 117.142, 279.425 
	L 117.142, 278.079 
	L 129.437, 278.079 
" />
<path d="M 129.437, 278.079 
	L 129.437, 284.882 
	L 117.142, 284.882 
" />
<path d="M 128.694, 284.881 
	L 128.693, 284.882 
	L 128.693, 275.811 
	L 130.394, 275.811 
	L 130.394, 278.079 
	L 140.953, 278.079 
	L 140.953, 279.425 
	L 130.394, 279.425 
	L 130.394, 283.535 
	L 140.953, 283.535 
	L 140.953, 284.882 
" />
<path d="M 140.953, 284.882 
	L 128.693, 284.882 
" />
<path d="M 140.953, 284.881 
	L 140.953, 284.882 
	L 140.953, 278.079 
	L 142.654, 278.079 
	L 142.654, 284.882 
	L 140.953, 284.882 
	L 140.953, 277.158 
	L 140.953, 275.811 
	L 142.654, 275.811 
	L 142.654, 277.158 
	L 140.953, 277.158 
" />
<path d="M 140.953, 277.158 
" />
<path d="M 142.654, 284.881 
	L 142.654, 284.882 
	L 142.654, 278.079 
	L 144.354, 278.079 
	L 144.354, 283.535 
	L 146.622, 283.535 
	L 152.646, 278.079 
	L 154.913, 278.079 
	L 147.366, 284.882 
	L 142.654, 284.882 
" />
<path d="M 165.544, 280.806 
	L 165.543, 280.807 
	L 165.543, 279.425 
	L 156.189, 279.425 
	L 156.189, 280.807 
	L 165.543, 280.807 
	L 154.630, 284.882 
	L 154.630, 278.079 
	L 167.102, 278.079 
	L 167.102, 282.154 
	L 156.189, 282.154 
" />
<path d="M 156.189, 282.154 
	L 156.189, 283.535 
	L 167.102, 283.535 
	L 167.102, 284.882 
	L 154.630, 284.882 
" />
<path d="M 167.387, 284.881 
	L 167.386, 284.882 
	L 167.386, 275.811 
	L 169.087, 275.811 
	L 169.087, 284.882 
	L 167.386, 284.882 
" />
<path d="M 169.831, 287.149 
	L 169.831, 287.150 
	L 169.831, 285.768 
	L 180.425, 285.768 
	L 180.425, 284.882 
	L 177.378, 284.882 
	L 169.831, 278.079 
	L 172.098, 278.079 
	L 178.158, 283.535 
	L 180.425, 283.535 
	L 180.425, 278.079 
" />
<path d="M 180.425, 278.079 
	L 182.126, 278.079 
	L 182.126, 287.150 
	L 169.831, 287.150 
" />
<path d="M 18.001, 295.511 
	L 18.000, 295.512 
	L 18.000, 289.169 
	L 32.528, 289.169 
	L 35.575, 287.787 
	L 18.000, 287.787 
	L 18.000, 286.441 
	L 39.331, 286.441 
	L 33.307, 290.516 
	L 19.701, 290.516 
	L 19.701, 295.512 
	L 18.000, 295.512 
" />
<path d="M 18.000, 295.512 
" />
<path d="M 50.670, 294.165 
	L 50.669, 294.165 
	L 50.669, 290.055 
	L 41.032, 290.055 
	L 41.032, 294.165 
	L 50.669, 294.165 
	L 39.331, 295.512 
	L 39.331, 288.709 
	L 52.370, 288.709 
	L 52.370, 295.512 
	L 39.331, 295.512 
" />
<path d="M 52.087, 295.511 
	L 52.087, 295.512 
	L 52.087, 294.165 
	L 63.000, 294.165 
	L 63.000, 292.784 
	L 52.087, 292.784 
	L 52.087, 288.709 
	L 64.559, 288.709 
	L 64.559, 290.055 
	L 53.646, 290.055 
	L 53.646, 291.437 
	L 64.559, 291.437 
" />
<path d="M 64.559, 291.437 
	L 64.559, 295.512 
	L 52.087, 295.512 
" />
<path d="M 64.560, 295.511 
	L 64.559, 295.512 
	L 64.559, 294.165 
	L 75.472, 294.165 
	L 75.472, 292.784 
	L 64.559, 292.784 
	L 64.559, 288.709 
	L 77.032, 288.709 
	L 77.032, 290.055 
	L 66.118, 290.055 
	L 66.118, 291.437 
	L 77.032, 291.437 
" />
<path d="M 77.032, 291.437 
	L 77.032, 295.512 
	L 64.559, 295.512 
" />
<path d="M 77.316, 295.511 
	L 77.315, 295.512 
	L 77.315, 288.709 
	L 79.016, 288.709 
	L 79.016, 295.512 
	L 77.315, 295.512 
	L 77.315, 287.787 
	L 77.315, 286.441 
	L 79.016, 286.441 
	L 79.016, 287.787 
	L 77.315, 287.787 
" />
<path d="M 90.355, 294.165 
	L 90.354, 294.165 
	L 90.354, 290.055 
	L 80.717, 290.055 
	L 80.717, 294.165 
	L 90.354, 294.165 
	L 79.016, 295.512 
	L 79.016, 286.441 
	L 80.717, 286.441 
	L 80.717, 288.709 
	L 92.055, 288.709 
	L 92.055, 295.512 
" />
<path d="M 92.055, 295.512 
	L 79.016, 295.512 
" />
<path d="M 92.056, 295.511 
	L 92.055, 295.512 
	L 92.055, 286.441 
	L 93.756, 286.441 
	L 93.756, 295.512 
	L 92.055, 295.512 
" />
<path d="M 104.387, 291.436 
	L 104.386, 291.437 
	L 104.386, 290.055 
	L 95.032, 290.055 
	L 95.032, 291.437 
	L 104.386, 291.437 
	L 93.472, 295.512 
	L 93.472, 288.709 
	L 105.945, 288.709 
	L 105.945, 292.784 
	L 95.032, 292.784 
" />
<path d="M 95.032, 292.784 
	L 95.032, 294.165 
	L 105.945, 294.165 
	L 105.945, 295.512 
	L 93.472, 295.512 
" />
<path d="M 18.001, 313.228 
	L 18.000, 313.228 
	L 18.000, 311.882 
	L 38.409, 311.882 
	L 38.409, 308.232 
	L 18.000, 308.232 
	L 18.000, 304.158 
	L 40.110, 304.158 
	L 40.110, 305.504 
	L 19.701, 305.504 
	L 19.701, 306.886 
	L 40.110, 306.886 
" />
<path d="M 40.110, 306.886 
	L 40.110, 313.228 
	L 18.000, 313.228 
" />
<path d="M 40.111, 313.228 
	L 40.110, 313.228 
	L 40.110, 306.425 
	L 41.811, 306.425 
	L 41.811, 313.228 
	L 40.110, 313.228 
	L 40.110, 305.504 
	L 40.110, 304.158 
	L 41.811, 304.158 
	L 41.811, 305.504 
	L 40.110, 305.504 
" />
<path d="M 41.812, 313.228 
	L 41.811, 313.228 
	L 41.811, 306.425 
	L 54.850, 306.425 
	L 54.850, 313.228 
	L 53.150, 313.228 
	L 53.150, 307.772 
	L 43.512, 307.772 
	L 43.512, 313.228 
	L 41.811, 313.228 
" />
<path d="M 65.481, 309.153 
	L 65.480, 309.154 
	L 65.480, 307.772 
	L 56.126, 307.772 
	L 56.126, 309.154 
	L 65.480, 309.154 
	L 54.567, 313.228 
	L 54.567, 306.425 
	L 67.039, 306.425 
	L 67.039, 310.500 
	L 56.126, 310.500 
	L 56.126, 311.882 
" />
<path d="M 56.126, 311.882 
	L 67.039, 311.882 
	L 67.039, 313.228 
	L 54.567, 313.228 
" />
<path d="M 67.324, 313.228 
	L 67.323, 313.228 
	L 67.323, 304.158 
	L 88.654, 304.158 
	L 84.118, 308.091 
	L 83.374, 308.728 
	L 88.654, 313.228 
	L 86.386, 313.228 
	L 81.106, 308.728 
	L 84.898, 305.504 
	L 69.024, 305.504 
	L 69.024, 313.228 
" />
<path d="M 69.024, 313.228 
	L 67.323, 313.228 
" />
<path d="M 99.993, 311.881 
	L 99.992, 311.882 
	L 99.992, 307.772 
	L 97.724, 307.772 
	L 93.189, 311.882 
	L 99.992, 311.882 
	L 89.398, 313.228 
	L 95.457, 307.772 
	L 89.398, 307.772 
	L 89.398, 306.425 
	L 101.693, 306.425 
	L 101.693, 313.228 
" />
<path d="M 101.693, 313.228 
	L 89.398, 313.228 
" />
<path d="M 100.950, 313.228 
	L 100.949, 313.228 
	L 100.949, 306.425 
	L 102.650, 306.425 
	L 102.650, 311.882 
	L 104.917, 311.882 
	L 110.941, 306.425 
	L 113.209, 306.425 
	L 105.661, 313.228 
	L 100.949, 313.228 
" />
<path d="M 123.839, 309.153 
	L 123.839, 309.154 
	L 123.839, 307.772 
	L 114.484, 307.772 
	L 114.484, 309.154 
	L 123.839, 309.154 
	L 112.925, 313.228 
	L 112.925, 306.425 
	L 125.398, 306.425 
	L 125.398, 310.500 
	L 114.484, 310.500 
" />
<path d="M 114.484, 310.500 
	L 114.484, 311.882 
	L 125.398, 311.882 
	L 125.398, 313.228 
	L 112.925, 313.228 
" />
<path d="M 18.001, 330.944 
	L 18.000, 330.945 
	L 18.000, 324.602 
	L 32.528, 324.602 
	L 35.575, 323.221 
	L 18.000, 323.221 
	L 18.000, 321.874 
	L 39.331, 321.874 
	L 33.307, 325.949 
	L 19.701, 325.949 
	L 19.701, 330.945 
	L 18.000, 330.945 
" />
<path d="M 18.000, 330.945 
" />
<path d="M 50.670, 329.598 
	L 50.669, 329.598 
	L 50.669, 325.488 
	L 48.402, 325.488 
	L 43.866, 329.598 
	L 50.669, 329.598 
	L 40.075, 330.945 
	L 46.134, 325.488 
	L 40.075, 325.488 
	L 40.075, 324.142 
	L 52.370, 324.142 
	L 52.370, 330.945 
" />
<path d="M 52.370, 330.945 
	L 40.075, 330.945 
" />
<path d="M 51.627, 330.944 
	L 51.626, 330.945 
	L 51.626, 321.874 
	L 53.327, 321.874 
	L 53.327, 330.945 
	L 51.626, 330.945 
" />
<path d="M 64.666, 329.598 
	L 64.665, 329.598 
	L 64.665, 325.488 
	L 55.028, 325.488 
	L 55.028, 329.598 
	L 64.665, 329.598 
	L 53.327, 330.945 
	L 53.327, 324.142 
	L 66.366, 324.142 
	L 66.366, 330.945 
	L 53.327, 330.945 
" />
<path d="M 66.367, 330.944 
	L 66.366, 330.945 
	L 66.366, 324.142 
	L 79.406, 324.142 
	L 79.406, 330.945 
	L 77.705, 330.945 
	L 77.705, 325.488 
	L 68.067, 325.488 
	L 68.067, 330.945 
	L 66.366, 330.945 
" />
<path d="M 90.745, 329.598 
	L 90.744, 329.598 
	L 90.744, 325.488 
	L 81.106, 325.488 
	L 81.106, 329.598 
	L 90.744, 329.598 
	L 79.406, 330.945 
	L 79.406, 324.142 
	L 92.445, 324.142 
	L 92.445, 330.945 
	L 79.406, 330.945 
" />
<path d="M 103.784, 329.598 
	L 103.783, 329.598 
	L 103.783, 325.488 
	L 94.146, 325.488 
	L 94.146, 329.598 
	L 103.783, 329.598 
	L 92.445, 333.213 
	L 92.445, 324.142 
	L 105.484, 324.142 
	L 105.484, 330.945 
	L 94.146, 330.945 
" />
<path d="M 94.146, 330.945 
	L 94.146, 333.213 
	L 92.445, 333.213 
" />
<path d="M 105.202, 330.944 
	L 105.201, 330.945 
	L 105.201, 329.598 
	L 116.114, 329.598 
	L 116.114, 328.217 
	L 105.201, 328.217 
	L 105.201, 324.142 
	L 117.673, 324.142 
	L 117.673, 325.488 
	L 106.760, 325.488 
	L 106.760, 326.870 
" />
<path d="M 106.760, 326.870 
	L 117.673, 326.870 
	L 117.673, 330.945 
	L 105.201, 330.945 
" />
<path d="M 117.957, 330.944 
	L 117.957, 330.945 
	L 117.957, 324.142 
	L 119.657, 324.142 
	L 119.657, 330.945 
	L 117.957, 330.945 
	L 117.957, 323.221 
	L 117.957, 321.874 
	L 119.657, 321.874 
	L 119.657, 323.221 
	L 117.957, 323.221 
" />
<path d="M 117.957, 323.221 
" />
<path d="M 130.997, 329.598 
	L 130.996, 329.598 
	L 130.996, 325.488 
	L 128.728, 325.488 
	L 124.193, 329.598 
	L 130.996, 329.598 
	L 120.402, 330.945 
	L 126.461, 325.488 
	L 120.402, 325.488 
	L 120.402, 324.142 
	L 132.697, 324.142 
" />
<path d="M 132.697, 324.142 
	L 132.697, 330.945 
	L 120.402, 330.945 
" />
<path d="M 18.001, 348.661 
	L 18.000, 348.661 
	L 18.000, 339.130 
	L 29.055, 343.878 
	L 40.110, 339.130 
	L 40.110, 348.661 
	L 38.409, 348.661 
	L 38.409, 341.150 
	L 29.055, 345.260 
	L 19.701, 341.150 
	L 19.701, 348.661 
	L 18.000, 348.661 
" />
<path d="M 18.000, 348.661 
" />
<path d="M 51.450, 347.314 
	L 51.449, 347.315 
	L 51.449, 343.205 
	L 41.811, 343.205 
	L 41.811, 347.315 
	L 51.449, 347.315 
	L 40.110, 348.661 
	L 40.110, 341.858 
	L 53.150, 341.858 
	L 53.150, 348.661 
	L 40.110, 348.661 
" />
<path d="M 53.150, 348.661 
	L 53.150, 348.661 
	L 53.150, 341.858 
	L 54.850, 341.858 
	L 54.850, 347.315 
	L 64.488, 347.315 
	L 64.488, 341.858 
	L 66.189, 341.858 
	L 66.189, 348.661 
	L 53.150, 348.661 
" />
<path d="M 66.190, 348.661 
	L 66.189, 348.661 
	L 66.189, 341.858 
	L 79.228, 341.858 
	L 79.228, 348.661 
	L 77.528, 348.661 
	L 77.528, 343.205 
	L 67.890, 343.205 
	L 67.890, 348.661 
	L 66.189, 348.661 
" />
<path d="M 79.229, 348.661 
	L 79.228, 348.661 
	L 79.228, 339.591 
	L 80.929, 339.591 
	L 80.929, 341.858 
	L 91.488, 341.858 
	L 91.488, 343.205 
	L 80.929, 343.205 
	L 80.929, 347.315 
	L 91.488, 347.315 
	L 91.488, 348.661 
	L 79.228, 348.661 
" />
<path d="M 79.228, 348.661 
" />
<path d="M 102.827, 347.314 
	L 102.827, 347.315 
	L 102.827, 343.205 
	L 100.559, 343.205 
	L 96.024, 347.315 
	L 102.827, 347.315 
	L 92.232, 348.661 
	L 98.291, 343.205 
	L 92.232, 343.205 
	L 92.232, 341.858 
	L 104.528, 341.858 
" />
<path d="M 104.528, 341.858 
	L 104.528, 348.661 
	L 92.232, 348.661 
" />
<path d="M 103.784, 348.661 
	L 103.783, 348.661 
	L 103.783, 341.858 
	L 105.484, 341.858 
	L 105.484, 348.661 
	L 103.783, 348.661 
	L 103.783, 340.937 
	L 103.783, 339.591 
	L 105.484, 339.591 
	L 105.484, 340.937 
	L 103.783, 340.937 
" />
<path d="M 103.783, 340.937 
" />
<path d="M 105.485, 348.661 
	L 105.484, 348.661 
	L 105.484, 341.858 
	L 118.524, 341.858 
	L 118.524, 348.661 
	L 116.823, 348.661 
	L 116.823, 343.205 
	L 107.185, 343.205 
	L 107.185, 348.661 
	L 105.484, 348.661 
" />
<path d="M 136.843, 347.314 
	L 136.843, 347.315 
	L 129.295, 340.937 
	L 120.224, 340.937 
	L 120.224, 347.315 
	L 136.843, 347.315 
	L 118.524, 348.661 
	L 118.524, 339.591 
	L 130.039, 339.591 
	L 140.634, 348.661 
	L 118.524, 348.661 
" />
<path d="M 118.524, 348.661 
" />
<path d="M 140.635, 348.661 
	L 140.634, 348.661 
	L 140.634, 341.858 
	L 152.894, 341.858 
	L 152.894, 343.205 
	L 142.335, 343.205 
	L 142.335, 348.661 
	L 140.634, 348.661 
" />
<path d="M 164.233, 347.314 
	L 164.232, 347.315 
	L 164.232, 343.205 
	L 154.595, 343.205 
	L 154.595, 347.315 
	L 164.232, 347.315 
	L 152.894, 348.661 
	L 152.894, 341.858 
	L 165.933, 341.858 
	L 165.933, 348.661 
	L 152.894, 348.661 
" />
<path d="M 152.894, 348.661 
" />
<path d="M 165.934, 348.661 
	L 165.933, 348.661 
	L 165.933, 341.858 
	L 178.972, 341.858 
	L 178.972, 348.661 
	L 177.272, 348.661 
	L 177.272, 343.205 
	L 167.634, 343.205 
	L 167.634, 348.661 
	L 165.933, 348.661 
" />
<path d="M 189.603, 344.586 
	L 189.602, 344.587 
	L 189.602, 343.205 
	L 180.248, 343.205 
	L 180.248, 344.587 
	L 189.602, 344.587 
	L 178.689, 348.661 
	L 178.689, 341.858 
	L 191.161, 341.858 
	L 191.161, 345.933 
	L 180.248, 345.933 
" />
<path d="M 180.248, 345.933 
	L 180.248, 347.315 
	L 191.161, 347.315 
	L 191.161, 348.661 
	L 178.689, 348.661 
" />
<path d="M 13.961, 191.409 
	L 13.961, 191.409 
	L 13.961, 193.075 
	L 13.961, 205.264 
	L 13.961, 206.929 
	L 12.295, 206.929 
	L 10.630, 206.929 
	L 10.630, 205.158 
	L 10.630, 193.075 
	L 10.630, 191.409 
	L 13.961, 191.409 
	L 21.969, 191.409 
" />
<path d="M 21.969, 191.409 
	L 22.535, 191.161 
	L 23.031, 191.161 
	L 23.492, 191.161 
	L 23.917, 191.409 
	L 24.413, 191.764 
	L 24.413, 192.472 
	L 24.413, 192.969 
	L 24.201, 193.642 
	L 19.240, 199.134 
	L 24.201, 204.697 
	L 24.378, 205.087 
" />
<path d="M 24.378, 205.087 
	L 24.378, 205.406 
	L 24.378, 206.114 
	L 23.634, 206.646 
	L 23.280, 206.929 
	L 22.783, 206.929 
	L 21.791, 206.929 
	L 20.303, 205.831 
	L 15.874, 200.835 
	L 14.244, 199.169 
	L 15.874, 197.504 
	L 21.969, 191.409 
" />
<path d="M 21.969, 191.409 
" />
<path d="M 31.855, 203.598 
	L 31.854, 203.598 
	L 36.071, 203.598 
	L 36.035, 197.185 
	L 26.362, 206.256 
	L 25.724, 206.787 
	L 25.157, 206.787 
	L 24.520, 206.787 
	L 23.988, 206.079 
	L 23.528, 205.512 
	L 23.528, 204.945 
	L 23.528, 204.236 
" />
<path d="M 23.528, 204.236 
	L 24.272, 203.634 
	L 36.283, 192.189 
	L 37.169, 191.303 
	L 37.878, 191.303 
	L 38.374, 191.303 
	L 38.551, 191.339 
	L 39.366, 191.622 
	L 39.366, 193.358 
	L 39.366, 204.591 
	L 39.366, 207.000 
	L 36.602, 206.929 
" />
<path d="M 36.602, 206.929 
	L 31.854, 206.929 
	L 29.941, 207.000 
	L 29.941, 205.282 
	L 29.941, 203.563 
	L 31.854, 203.598 
" />
<path d="M 54.674, 203.669 
	L 54.673, 203.669 
	L 54.673, 204.697 
	L 53.575, 205.813 
	L 52.476, 206.929 
	L 51.378, 206.929 
	L 43.618, 206.929 
	L 42.520, 206.929 
	L 41.404, 205.813 
	L 40.287, 204.697 
	L 40.287, 203.598 
	L 40.323, 194.811 
" />
<path d="M 40.323, 194.811 
	L 40.287, 193.642 
	L 41.404, 192.526 
	L 42.520, 191.409 
	L 43.618, 191.409 
	L 51.378, 191.409 
	L 52.476, 191.409 
	L 53.575, 192.526 
	L 54.673, 193.642 
	L 54.673, 194.740 
	L 54.673, 203.669 
	L 51.378, 201.933 
" />
<path d="M 51.378, 201.933 
	L 51.378, 196.406 
	L 51.378, 194.740 
	L 49.713, 194.740 
	L 45.283, 194.740 
	L 43.618, 194.740 
	L 43.618, 196.441 
	L 43.618, 201.933 
	L 43.583, 203.634 
	L 45.283, 203.598 
	L 49.713, 203.598 
	L 51.378, 203.598 
" />
<path d="M 51.378, 203.598 
	L 51.378, 201.933 
" />
<path d="M 66.509, 191.409 
	L 66.508, 191.409 
	L 68.173, 191.409 
	L 68.173, 193.004 
	L 68.173, 194.669 
	L 66.508, 194.740 
	L 55.417, 194.740 
	L 53.752, 194.669 
	L 53.752, 193.075 
	L 53.752, 191.374 
	L 55.417, 191.409 
	L 66.508, 191.409 
" />
<path d="M 66.508, 191.409 
	L 59.280, 198.071 
	L 59.244, 195.874 
	L 61.087, 195.856 
	L 62.929, 195.839 
	L 62.929, 198.071 
	L 62.929, 204.697 
	L 62.823, 206.929 
	L 61.122, 206.929 
	L 61.087, 206.929 
	L 59.244, 206.894 
	L 59.280, 204.697 
" />
<path d="M 59.280, 204.697 
	L 59.280, 198.071 
" />
<path d="M 70.725, 191.409 
	L 70.724, 191.409 
	L 80.681, 191.409 
	L 82.346, 191.409 
	L 82.346, 193.075 
	L 82.346, 194.740 
	L 80.681, 194.740 
	L 73.488, 194.740 
	L 72.390, 194.740 
	L 72.390, 195.839 
	L 72.390, 202.500 
	L 72.390, 203.598 
" />
<path d="M 72.390, 203.598 
	L 73.488, 203.598 
	L 80.681, 203.598 
	L 82.346, 203.598 
	L 82.346, 205.264 
	L 82.346, 206.929 
	L 80.681, 206.929 
	L 70.724, 206.929 
	L 69.059, 206.929 
	L 69.059, 205.264 
	L 69.059, 193.181 
	L 69.059, 191.409 
" />
<path d="M 69.059, 191.409 
	L 70.724, 191.409 
	L 75.720, 197.504 
	L 78.484, 197.504 
	L 80.681, 197.504 
	L 80.681, 199.169 
	L 80.681, 200.835 
	L 78.484, 200.835 
	L 75.720, 200.835 
	L 73.488, 200.835 
	L 73.488, 199.169 
	L 73.488, 197.504 
" />
<path d="M 73.488, 197.504 
	L 75.720, 197.504 
" />
<path d="M 95.564, 206.928 
	L 95.563, 206.929 
	L 87.343, 206.929 
	L 85.287, 206.929 
	L 83.799, 205.476 
	L 82.346, 204.059 
	L 82.346, 202.039 
	L 82.346, 196.158 
	L 82.346, 194.138 
	L 83.799, 192.685 
	L 85.110, 191.409 
	L 87.059, 191.409 
" />
<path d="M 87.059, 191.409 
	L 87.272, 191.409 
	L 87.520, 191.409 
	L 94.394, 191.409 
	L 96.130, 191.409 
	L 96.130, 193.146 
	L 96.130, 194.882 
	L 94.394, 194.882 
	L 88.016, 194.882 
	L 85.783, 194.882 
	L 85.783, 197.008 
	L 85.783, 201.579 
" />
<path d="M 85.783, 201.579 
	L 85.783, 203.492 
	L 88.157, 203.492 
	L 95.563, 203.492 
	L 97.299, 203.492 
	L 97.299, 205.193 
	L 97.264, 206.929 
	L 95.563, 206.929 
" />
<path d="M 107.257, 200.834 
	L 107.256, 200.835 
	L 100.630, 200.835 
	L 98.965, 200.835 
	L 98.965, 199.169 
	L 98.965, 197.504 
	L 100.630, 197.504 
	L 107.256, 197.504 
	L 108.921, 197.504 
	L 108.921, 199.169 
	L 108.921, 200.835 
" />
<path d="M 108.921, 200.835 
	L 107.256, 200.835 
" />
<path d="M 114.698, 203.598 
	L 114.697, 203.598 
	L 118.913, 203.598 
	L 118.878, 197.185 
	L 109.205, 206.256 
	L 108.567, 206.787 
	L 108.000, 206.787 
	L 107.362, 206.787 
	L 106.831, 206.079 
	L 106.370, 205.512 
	L 106.370, 204.945 
" />
<path d="M 106.370, 204.945 
	L 106.370, 204.236 
	L 107.114, 203.634 
	L 119.126, 192.189 
	L 120.012, 191.303 
	L 120.720, 191.303 
	L 121.217, 191.303 
	L 121.394, 191.339 
	L 122.209, 191.622 
	L 122.209, 193.358 
	L 122.209, 204.591 
" />
<path d="M 122.209, 204.591 
	L 122.209, 207.000 
	L 119.445, 206.929 
	L 114.697, 206.929 
	L 112.783, 207.000 
	L 112.783, 205.282 
	L 112.783, 203.563 
	L 114.697, 203.598 
" />
<path d="M 123.095, 191.409 
	L 123.095, 191.409 
	L 124.760, 191.409 
	L 126.425, 191.409 
	L 126.425, 193.642 
	L 126.425, 202.500 
	L 126.425, 203.598 
	L 127.524, 203.598 
	L 133.122, 203.598 
	L 135.390, 203.598 
	L 135.425, 205.228 
" />
<path d="M 135.425, 205.228 
	L 135.425, 206.858 
	L 133.122, 206.929 
	L 125.681, 206.929 
	L 123.095, 206.929 
	L 123.095, 204.201 
	L 123.095, 193.606 
	L 123.095, 191.409 
" />
<path d="M 149.493, 202.322 
	L 149.492, 202.323 
	L 149.492, 204.697 
	L 148.553, 205.813 
	L 147.614, 206.929 
	L 144.957, 206.894 
	L 137.161, 206.929 
	L 135.425, 206.929 
	L 135.425, 205.193 
	L 135.425, 198.071 
	L 135.461, 195.839 
" />
<path d="M 135.461, 195.839 
	L 137.108, 195.839 
	L 138.756, 195.839 
	L 138.720, 198.071 
	L 138.720, 203.705 
	L 144.283, 203.705 
	L 146.020, 203.705 
	L 146.020, 202.252 
	L 146.020, 200.799 
	L 144.248, 200.799 
	L 142.087, 200.835 
" />
<path d="M 142.087, 200.835 
	L 139.783, 200.835 
	L 139.819, 199.169 
	L 139.854, 197.504 
	L 142.087, 197.504 
	L 144.283, 197.504 
	L 146.020, 197.539 
	L 146.037, 196.140 
	L 146.055, 194.740 
	L 144.390, 194.740 
	L 137.091, 194.740 
" />
<path d="M 137.091, 194.740 
	L 135.425, 194.740 
	L 135.425, 193.146 
	L 135.425, 191.409 
	L 137.161, 191.409 
	L 144.850, 191.409 
	L 147.047, 191.409 
	L 148.163, 192.526 
	L 149.280, 193.642 
	L 149.386, 195.839 
	L 149.386, 198.177 
" />
<path d="M 149.386, 198.177 
	L 147.969, 199.028 
	L 149.492, 200.020 
	L 149.492, 202.323 
" />
<path d="M 149.528, 191.444 
	L 149.528, 191.445 
	L 151.158, 191.445 
	L 151.193, 191.445 
	L 152.858, 191.445 
	L 152.787, 193.677 
	L 152.787, 201.969 
	L 152.787, 203.598 
	L 154.453, 203.634 
	L 158.846, 203.598 
	L 160.583, 203.634 
" />
<path d="M 160.583, 203.634 
	L 160.583, 201.898 
	L 160.583, 193.642 
	L 160.618, 191.409 
	L 162.283, 191.409 
	L 163.913, 191.409 
	L 163.913, 193.535 
	L 163.913, 203.598 
	L 163.913, 204.661 
	L 163.063, 205.778 
	L 162.213, 206.894 
" />
<path d="M 162.213, 206.894 
	L 161.079, 206.894 
	L 152.256, 206.894 
	L 151.122, 206.894 
	L 150.325, 205.795 
	L 149.528, 204.697 
	L 149.528, 203.598 
	L 149.492, 193.642 
	L 149.528, 191.445 
" />
<path d="M 175.359, 192.153 
	L 175.358, 192.154 
	L 176.244, 191.409 
	L 176.988, 191.409 
	L 177.272, 191.409 
	L 177.520, 191.516 
	L 178.476, 191.870 
	L 178.476, 193.500 
	L 178.476, 205.016 
	L 178.441, 207.000 
	L 176.811, 207.000 
" />
<path d="M 176.811, 207.000 
	L 176.776, 207.000 
	L 175.146, 207.000 
	L 175.110, 204.980 
	L 175.110, 198.142 
	L 175.075, 197.150 
	L 174.508, 197.681 
	L 166.039, 206.185 
	L 165.154, 207.000 
	L 164.409, 207.000 
	L 163.878, 207.000 
" />
<path d="M 163.878, 207.000 
	L 163.382, 206.504 
	L 162.886, 206.043 
	L 162.886, 205.476 
	L 162.886, 204.697 
	L 163.736, 203.811 
	L 175.358, 192.154 
	L 188.717, 191.835 
	L 188.717, 193.500 
	L 188.717, 204.768 
	L 188.717, 207.000 
" />
<path d="M 188.717, 207.000 
	L 187.051, 207.000 
	L 185.386, 207.000 
	L 185.386, 204.768 
	L 185.386, 198.142 
	L 185.386, 197.433 
	L 184.748, 197.965 
	L 182.587, 200.161 
	L 180.957, 201.295 
	L 180.071, 200.091 
	L 179.185, 198.886 
" />
<path d="M 179.185, 198.886 
	L 180.461, 197.469 
	L 185.669, 192.189 
	L 186.413, 191.409 
	L 187.193, 191.409 
	L 187.441, 191.409 
	L 187.689, 191.480 
	L 188.717, 191.835 
" />
<path d="M 204.166, 203.669 
	L 204.165, 203.669 
	L 204.165, 204.697 
	L 203.067, 205.813 
	L 201.969, 206.929 
	L 200.870, 206.929 
	L 193.110, 206.929 
	L 192.012, 206.929 
	L 190.896, 205.813 
	L 189.780, 204.697 
	L 189.780, 203.598 
" />
<path d="M 189.780, 203.598 
	L 189.815, 194.811 
	L 189.780, 193.642 
	L 190.896, 192.526 
	L 192.012, 191.409 
	L 193.110, 191.409 
	L 200.870, 191.409 
	L 201.969, 191.409 
	L 203.067, 192.526 
	L 204.165, 193.642 
	L 204.165, 194.740 
" />
<path d="M 204.165, 194.740 
	L 204.165, 203.669 
	L 200.870, 201.933 
	L 200.870, 196.406 
	L 200.870, 194.740 
	L 199.205, 194.740 
	L 194.776, 194.740 
	L 193.110, 194.740 
	L 193.110, 196.441 
	L 193.110, 201.933 
	L 193.075, 203.634 
" />
<path d="M 193.075, 203.634 
	L 194.776, 203.598 
	L 199.205, 203.598 
	L 200.870, 203.598 
	L 200.870, 201.933 
" />
<path d="M 218.552, 203.669 
	L 218.551, 203.669 
	L 218.551, 204.697 
	L 217.453, 205.813 
	L 216.354, 206.929 
	L 215.256, 206.929 
	L 207.496, 206.929 
	L 206.398, 206.929 
	L 205.282, 205.813 
	L 204.165, 204.697 
	L 204.165, 203.598 
" />
<path d="M 204.165, 203.598 
	L 204.201, 194.811 
	L 204.165, 193.642 
	L 205.282, 192.526 
	L 206.398, 191.409 
	L 207.496, 191.409 
	L 215.256, 191.409 
	L 216.354, 191.409 
	L 217.453, 192.526 
	L 218.551, 193.642 
	L 218.551, 194.740 
" />
<path d="M 218.551, 194.740 
	L 218.551, 203.669 
	L 215.256, 201.933 
	L 215.256, 196.406 
	L 215.256, 194.740 
	L 213.591, 194.740 
	L 209.161, 194.740 
	L 207.496, 194.740 
	L 207.496, 196.441 
	L 207.496, 201.933 
	L 207.461, 203.634 
" />
<path d="M 207.461, 203.634 
	L 209.161, 203.598 
	L 213.591, 203.598 
	L 215.256, 203.598 
	L 215.256, 201.933 
" />
<path d="M 225.780, 204.696 
	L 225.780, 204.697 
	L 225.780, 206.929 
	L 224.150, 206.929 
	L 222.484, 206.929 
	L 222.413, 204.697 
	L 222.413, 193.642 
	L 222.484, 191.409 
	L 224.150, 191.409 
	L 225.780, 191.409 
	L 225.780, 193.642 
" />
<path d="M 225.780, 193.642 
	L 225.780, 204.697 
" />
<path d="M 644.882, 634.961 
	L 644.882, 638.150 
	L 644.173, 639.213 
	L 642.756, 639.213 
	L 642.047, 638.150 
	L 642.047, 636.024 
	L 644.882, 636.024 
" />
<path d="M 640.630, 631.772 
	L 640.630, 630.709 
	L 644.882, 630.709 
" />
<path d="M 644.882, 631.772 
	L 644.882, 629.646 
" />
<path d="M 644.882, 626.457 
	L 644.882, 623.268 
	L 644.173, 622.205 
	L 642.756, 622.205 
	L 642.047, 623.268 
	L 642.047, 625.394 
" />
<path d="M 640.630, 625.394 
	L 644.882, 625.394 
" />
<path d="M 642.047, 620.079 
	L 644.173, 620.079 
	L 644.882, 619.016 
	L 644.882, 616.890 
	L 642.047, 616.890 
" />
<path d="M 644.882, 613.701 
	L 642.047, 613.701 
" />
<path d="M 642.756, 613.701 
	L 642.047, 612.638 
	L 642.756, 611.575 
	L 644.882, 611.575 
" />
<path d="M 642.756, 611.575 
	L 642.047, 610.512 
	L 642.756, 609.449 
	L 644.882, 609.449 
" />
<path d="M 644.173, 607.323 
	L 644.882, 606.260 
	L 644.882, 604.134 
	L 644.173, 603.071 
	L 641.339, 603.071 
	L 640.630, 604.134 
	L 640.630, 606.260 
	L 641.339, 607.323 
	L 644.173, 607.323 
" />
<path d="M 644.173, 600.945 
	L 644.882, 599.882 
	L 644.882, 597.756 
	L 644.173, 596.693 
	L 641.339, 596.693 
	L 640.630, 597.756 
	L 640.630, 599.882 
	L 641.339, 600.945 
	L 644.173, 600.945 
" />
<path d="M 644.882, 593.504 
	L 644.882, 591.378 
" />
<path d="M 644.882, 592.441 
	L 640.630, 592.441 
	L 641.339, 593.504 
" />
<path d="M 644.173, 583.937 
	L 644.882, 585.000 
	L 644.882, 586.063 
	L 644.173, 587.126 
	L 642.756, 587.126 
	L 642.047, 586.063 
	L 642.047, 585.000 
	L 642.756, 583.937 
" />
<path d="M 644.882, 580.748 
	L 644.173, 581.811 
	L 642.756, 581.811 
	L 642.047, 580.748 
	L 642.047, 579.685 
	L 642.756, 578.622 
	L 644.173, 578.622 
	L 644.882, 579.685 
	L 644.882, 580.748 
" />
<path d="M 642.047, 575.433 
	L 643.465, 575.433 
	L 644.882, 573.307 
	L 643.465, 571.181 
	L 642.047, 571.181 
" />
<path d="M 643.465, 569.055 
	L 643.465, 565.866 
	L 642.756, 564.803 
	L 642.047, 565.866 
	L 642.047, 567.992 
	L 642.756, 569.055 
	L 644.173, 569.055 
	L 644.882, 567.992 
	L 644.882, 564.803 
" />
<path d="M 642.047, 562.677 
	L 644.882, 562.677 
" />
<path d="M 643.465, 562.677 
	L 642.047, 560.551 
	L 642.047, 559.488 
" />
<path d="M 640.630, 548.858 
	L 644.882, 548.858 
	L 644.882, 546.732 
" />
<path d="M 642.047, 549.921 
	L 642.047, 546.732 
" />
<path d="M 643.465, 543.543 
	L 643.465, 540.354 
	L 642.756, 539.291 
	L 642.047, 540.354 
	L 642.047, 542.480 
	L 642.756, 543.543 
	L 644.173, 543.543 
	L 644.882, 542.480 
	L 644.882, 539.291 
" />
<path d="M 642.047, 533.976 
	L 642.047, 536.102 
	L 642.756, 537.165 
	L 643.465, 536.102 
	L 643.465, 535.039 
	L 644.173, 533.976 
	L 644.882, 535.039 
	L 644.882, 537.165 
" />
<path d="M 640.630, 529.724 
	L 644.882, 529.724 
	L 644.882, 527.599 
" />
<path d="M 642.047, 530.787 
	L 642.047, 527.599 
" />
<path d="M 641.339, 498.898 
	L 640.630, 497.835 
	L 640.630, 495.709 
	L 641.339, 494.646 
	L 642.047, 494.646 
	L 644.173, 498.898 
	L 644.882, 498.898 
	L 644.882, 494.646 
" />
<path d="M 644.173, 492.520 
	L 644.882, 491.457 
	L 644.882, 489.331 
	L 644.173, 488.268 
	L 641.339, 488.268 
	L 640.630, 489.331 
	L 640.630, 491.457 
	L 641.339, 492.520 
	L 644.173, 492.520 
" />
<path d="M 644.882, 485.079 
	L 644.882, 482.953 
" />
<path d="M 644.882, 484.016 
	L 640.630, 484.016 
	L 641.339, 485.079 
" />
<path d="M 644.882, 478.701 
	L 644.882, 477.638 
	L 643.465, 475.512 
	L 641.339, 475.512 
	L 640.630, 476.575 
	L 640.630, 478.701 
	L 641.339, 479.764 
	L 642.047, 479.764 
	L 642.756, 478.701 
	L 642.756, 475.512 
" />
<path d="M 642.756, 473.386 
	L 642.756, 469.134 
" />
<path d="M 644.882, 465.945 
	L 644.882, 463.819 
" />
<path d="M 644.882, 464.882 
	L 640.630, 464.882 
	L 641.339, 465.945 
" />
<path d="M 644.882, 459.567 
	L 644.882, 457.441 
" />
<path d="M 644.882, 458.504 
	L 640.630, 458.504 
	L 641.339, 459.567 
" />
<path d="M 642.756, 454.252 
	L 642.756, 450.000 
" />
<path d="M 641.339, 447.874 
	L 640.630, 446.811 
	L 640.630, 444.685 
	L 641.339, 443.622 
	L 642.047, 443.622 
	L 644.173, 447.874 
	L 644.882, 447.874 
	L 644.882, 443.622 
" />
<path d="M 640.630, 437.244 
	L 640.630, 441.496 
	L 642.047, 441.496 
	L 642.047, 438.307 
	L 642.756, 437.244 
	L 644.173, 437.244 
	L 644.882, 438.307 
	L 644.882, 440.433 
	L 644.173, 441.496 
" />
<path d="M 644.882, 427.677 
	L 644.882, 425.551 
" />
<path d="M 644.882, 426.614 
	L 640.630, 426.614 
	L 641.339, 427.677 
" />
<path d="M 640.630, 419.173 
	L 642.756, 422.362 
	L 643.465, 422.362 
	L 643.465, 418.110 
" />
<path d="M 642.756, 419.173 
	L 644.882, 419.173 
" />
<path d="M 642.756, 414.921 
	L 642.047, 414.921 
	L 642.047, 413.858 
	L 642.756, 413.858 
	L 642.756, 414.921 
" />
<path d="M 644.173, 414.921 
	L 644.173, 413.858 
	L 644.882, 413.858 
	L 644.882, 414.921 
	L 644.173, 414.921 
" />
<path d="M 644.173, 409.606 
	L 644.882, 408.543 
	L 644.882, 406.417 
	L 644.173, 405.354 
	L 643.465, 405.354 
	L 642.756, 406.417 
	L 642.756, 407.480 
	L 640.630, 405.354 
	L 640.630, 409.606 
" />
<path d="M 644.173, 403.228 
	L 644.882, 402.165 
	L 644.882, 400.039 
	L 644.173, 398.976 
	L 641.339, 398.976 
	L 640.630, 400.039 
	L 640.630, 402.165 
	L 641.339, 403.228 
	L 644.173, 403.228 
" />
</g>
</svg>
