<?xml version="1.0" encoding="UTF-8" standalone="no" ?>
<svg width="100%" height="100%" viewBox="0 0 503.150 504.567" xmlns="http://www.w3.org/2000/svg"><g>
</g><g style="stroke:rgb(0,0,0); fill:none; stroke-width:1.000mm" >
</g><g style="stroke:rgb(0,0,0); fill:none; stroke-width:0.100mm" >
<path d="M 0.001, 504.566 
	L 0.000, 504.567 
	L 0.000, 8.504 
	L 496.063, 8.504 
	L 496.063, 504.567 
	L 0.000, 504.567 
" />
<path d="M 453.544, 504.566 
	L 453.543, 504.567 
	L 411.024, 479.361 
	L 368.504, 484.870 
	L 325.984, 464.757 
	L 283.465, 421.671 
	L 240.945, 440.915 
	L 198.425, 464.008 
	L 155.906, 484.870 
	L 474.803, 481.148 
	L 453.543, 461.388 
" />
<path d="M 453.543, 461.388 
	L 432.284, 465.708 
	L 411.024, 449.940 
	L 389.764, 416.165 
	L 368.504, 431.250 
	L 347.244, 449.353 
	L 325.984, 465.708 
	L 481.890, 458.779 
	L 467.717, 443.966 
	L 453.543, 447.204 
	L 439.370, 435.383 
" />
<path d="M 439.370, 435.383 
	L 425.197, 410.062 
	L 411.024, 421.372 
	L 396.850, 434.943 
	L 382.677, 447.204 
	L 485.433, 429.360 
	L 474.803, 429.360 
	L 464.173, 429.360 
	L 453.543, 429.360 
	L 442.913, 429.360 
	L 432.284, 429.360 
" />
<path d="M 432.284, 429.360 
	L 421.654, 429.360 
	L 411.024, 429.360 
	L 487.559, 403.289 
	L 479.055, 414.661 
	L 470.551, 412.175 
	L 462.047, 421.250 
	L 453.543, 440.688 
	L 445.039, 432.006 
	L 436.536, 421.587 
	L 428.032, 412.175 
" />
<path d="M 428.032, 412.175 
	L 488.976, 385.867 
	L 481.890, 398.387 
	L 474.803, 395.651 
	L 467.717, 405.641 
	L 460.630, 427.041 
	L 453.543, 417.483 
	L 446.457, 406.013 
	L 439.370, 395.651 
	L 489.969, 377.901 
	L 483.874, 380.312 
" />
<path d="M 483.874, 380.312 
	L 477.780, 379.785 
	L 471.756, 381.709 
	L 465.661, 385.831 
	L 459.567, 383.990 
	L 453.543, 381.781 
	L 447.449, 379.785 
	L 490.748, 378.017 
	L 485.433, 360.820 
	L 480.118, 364.579 
	L 474.803, 350.856 
" />
<path d="M 474.803, 350.856 
	L 469.488, 321.460 
	L 464.173, 334.590 
	L 458.858, 350.345 
	L 453.543, 364.579 
	L 491.315, 379.848 
	L 486.567, 341.692 
	L 481.890, 350.033 
	L 477.142, 319.586 
	L 472.394, 254.368 
	L 467.717, 283.497 
" />
<path d="M 467.717, 283.497 
	L 462.969, 318.453 
	L 458.221, 350.033 
	L 491.811, 375.741 
	L 487.559, 325.069 
	L 483.307, 336.146 
	L 479.055, 295.712 
	L 474.803, 209.100 
	L 470.551, 247.784 
	L 466.299, 294.207 
	L 462.047, 336.146 
" />
<path d="M 462.047, 336.146 
	L 492.165, 364.549 
	L 488.268, 311.272 
	L 484.441, 322.919 
	L 480.543, 280.407 
	L 476.717, 189.343 
	L 472.819, 230.016 
	L 468.992, 278.825 
	L 465.095, 322.919 
	L 492.520, 352.575 
	L 488.976, 298.539 
" />
<path d="M 488.976, 298.539 
	L 485.433, 310.350 
	L 481.890, 267.233 
	L 478.347, 174.869 
	L 474.803, 216.122 
	L 471.260, 265.628 
	L 467.717, 310.350 
	L 492.732, 342.325 
	L 489.473, 286.167 
	L 486.213, 298.443 
	L 482.953, 253.631 
" />
<path d="M 482.953, 253.631 
	L 479.693, 157.642 
	L 476.433, 200.514 
	L 473.102, 251.964 
	L 469.843, 298.443 
	L 493.016, 316.914 
	L 489.969, 278.880 
	L 486.921, 287.194 
	L 483.874, 256.844 
	L 480.827, 191.833 
	L 477.780, 220.870 
" />
<path d="M 477.780, 220.870 
	L 474.803, 255.715 
	L 471.756, 287.194 
	L 493.228, 297.921 
	L 490.394, 270.642 
	L 487.559, 276.605 
	L 484.724, 254.838 
	L 481.890, 208.211 
	L 479.055, 229.037 
	L 476.221, 254.028 
	L 473.386, 276.605 
" />
<path d="M 473.386, 276.605 
	L 493.370, 296.043 
	L 490.748, 258.459 
	L 488.055, 266.675 
	L 485.433, 236.686 
	L 482.740, 172.446 
	L 480.118, 201.138 
	L 477.425, 235.570 
	L 474.803, 266.675 
	L 493.512, 273.444 
	L 491.032, 252.918 
" />
<path d="M 491.032, 252.918 
	L 488.551, 257.405 
	L 486.000, 241.026 
	L 483.520, 205.943 
	L 481.039, 221.613 
	L 478.488, 240.417 
	L 476.008, 257.405 
	L 493.654, 262.734 
	L 491.315, 244.895 
	L 488.976, 248.795 
	L 486.567, 234.559 
" />
<path d="M 486.567, 234.559 
	L 484.228, 204.067 
	L 481.890, 217.686 
	L 479.480, 234.030 
	L 477.142, 248.795 
	L 493.795, 252.682 
	L 491.528, 237.532 
	L 489.331, 240.844 
	L 487.063, 228.754 
	L 484.866, 202.857 
	L 482.598, 214.424 
" />
<path d="M 482.598, 214.424 
	L 480.331, 228.304 
	L 478.134, 240.844 
	L 493.937, 247.490 
	L 491.811, 229.653 
	L 489.685, 233.552 
	L 487.559, 219.319 
	L 485.433, 188.829 
	L 483.307, 202.447 
	L 481.181, 218.789 
	L 479.055, 233.552 
" />
<path d="M 479.055, 233.552 
	L 494.008, 241.873 
	L 491.953, 222.737 
	L 489.969, 226.920 
	L 487.913, 211.650 
	L 485.929, 178.941 
	L 483.874, 193.550 
	L 481.890, 211.082 
	L 479.835, 226.920 
	L 494.079, 242.985 
	L 492.165, 214.783 
" />
<path d="M 492.165, 214.783 
	L 490.252, 220.948 
	L 488.268, 198.443 
	L 486.354, 150.236 
	L 484.441, 171.768 
	L 482.528, 197.605 
	L 480.543, 220.948 
	L 494.150, 226.599 
	L 492.307, 212.568 
	L 490.465, 215.635 
	L 488.622, 204.439 
" />
<path d="M 488.622, 204.439 
	L 486.780, 180.456 
	L 484.937, 191.168 
	L 483.095, 204.022 
	L 481.252, 215.635 
	L 494.291, 210.981 
	L 492.520, 210.981 
	L 490.748, 210.981 
	L 488.976, 210.981 
	L 487.205, 210.981 
	L 485.433, 210.981 
" />
<path d="M 485.433, 210.981 
	L 483.661, 210.981 
	L 481.890, 210.981 
	L 494.362, 190.176 
	L 492.661, 211.691 
	L 490.961, 206.987 
	L 489.260, 224.155 
	L 487.559, 260.928 
	L 485.858, 244.504 
	L 484.158, 224.794 
	L 482.457, 206.987 
" />
<path d="M 482.457, 206.987 
	L 494.362, 173.135 
	L 492.732, 212.191 
	L 491.102, 203.653 
	L 489.473, 234.819 
	L 487.843, 301.577 
	L 486.213, 271.760 
	L 484.583, 235.978 
	L 482.953, 203.653 
	L 494.433, 167.528 
	L 492.874, 210.336 
" />
<path d="M 492.874, 210.336 
	L 491.315, 200.979 
	L 489.756, 235.137 
	L 488.126, 308.307 
	L 486.567, 275.627 
	L 485.008, 236.408 
	L 483.449, 200.979 
	L 494.504, 163.753 
	L 493.016, 208.813 
	L 491.457, 198.963 
	L 489.969, 234.919 
" />
<path d="M 489.969, 234.919 
	L 488.410, 311.939 
	L 486.921, 277.539 
	L 485.433, 236.257 
	L 483.874, 198.963 
	L 494.575, 158.596 
	L 493.087, 208.521 
	L 491.599, 197.607 
	L 490.181, 237.445 
	L 488.693, 322.781 
	L 487.205, 284.666 
" />
<path d="M 487.205, 284.666 
	L 485.787, 238.928 
	L 484.299, 197.607 
	L 494.646, 152.853 
	L 493.228, 209.237 
	L 491.811, 196.912 
	L 490.394, 241.903 
	L 488.976, 338.279 
	L 487.559, 295.233 
	L 486.142, 243.578 
	L 484.724, 196.912 
" />
<path d="M 484.724, 196.912 
	L 494.646, 165.386 
	L 493.299, 205.683 
	L 491.882, 196.875 
	L 490.536, 229.030 
	L 489.189, 297.911 
	L 487.772, 267.146 
	L 486.425, 230.227 
	L 485.079, 196.875 
	L 494.717, 173.062 
	L 493.370, 204.333 
" />
<path d="M 493.370, 204.333 
	L 492.024, 197.498 
	L 490.748, 222.451 
	L 489.402, 275.902 
	L 488.055, 252.029 
	L 486.709, 223.379 
	L 485.433, 197.498 
	L 494.717, 174.446 
	L 493.441, 205.588 
	L 492.165, 198.780 
	L 490.890, 223.629 
" />
<path d="M 490.890, 223.629 
	L 489.614, 276.858 
	L 488.268, 253.084 
	L 486.992, 224.554 
	L 485.717, 198.780 
	L 494.787, 171.002 
	L 493.512, 209.036 
	L 492.307, 200.722 
	L 491.032, 231.072 
	L 489.756, 296.083 
	L 488.551, 267.046 
" />
<path d="M 488.551, 267.046 
	L 487.276, 232.201 
	L 486.000, 200.722 
	L 494.787, 174.502 
	L 493.583, 211.386 
	L 492.378, 203.324 
	L 491.173, 232.756 
	L 489.969, 295.802 
	L 488.764, 267.643 
	L 487.559, 233.851 
	L 486.284, 203.324 
" />
<path d="M 486.284, 203.324 
	L 494.858, 185.183 
	L 493.654, 212.572 
	L 492.520, 206.585 
	L 491.315, 228.439 
	L 490.110, 275.254 
	L 488.976, 254.345 
	L 487.772, 229.253 
	L 486.567, 206.585 
	L 494.858, 191.035 
	L 493.724, 215.952 
" />
<path d="M 493.724, 215.952 
	L 492.591, 210.505 
	L 491.457, 230.388 
	L 490.252, 272.979 
	L 489.118, 253.956 
	L 487.984, 231.128 
	L 486.850, 210.505 
	L 494.929, 219.770 
	L 493.795, 213.775 
	L 492.661, 215.085 
	L 491.528, 210.301 
" />
<path d="M 491.528, 210.301 
	L 490.465, 200.052 
	L 489.331, 204.630 
	L 488.197, 210.123 
	L 487.063, 215.085 
" />
<path d="M 453.544, 504.566 
	L 453.543, 504.567 
	L 474.803, 481.148 
	L 481.890, 458.779 
	L 485.433, 429.360 
	L 487.559, 403.289 
	L 488.976, 385.867 
	L 489.969, 377.901 
	L 490.748, 378.017 
	L 491.315, 379.848 
	L 491.811, 375.741 
" />
<path d="M 491.811, 375.741 
	L 492.165, 364.549 
	L 492.520, 352.575 
	L 492.732, 342.325 
	L 493.016, 316.914 
	L 493.228, 297.921 
	L 493.370, 296.043 
	L 493.512, 273.444 
	L 493.654, 262.734 
	L 493.795, 252.682 
	L 493.937, 247.490 
" />
<path d="M 493.937, 247.490 
	L 494.008, 241.873 
	L 494.079, 242.985 
	L 494.150, 226.599 
	L 494.291, 210.981 
	L 494.362, 190.176 
	L 494.362, 173.135 
	L 494.433, 167.528 
	L 494.504, 163.753 
	L 494.575, 158.596 
	L 494.646, 152.853 
" />
<path d="M 494.646, 152.853 
	L 494.646, 165.386 
	L 494.717, 173.062 
	L 494.717, 174.446 
	L 494.787, 171.002 
	L 494.787, 174.502 
	L 494.858, 185.183 
	L 494.858, 191.035 
	L 411.024, 479.361 
	L 453.543, 461.388 
	L 467.717, 443.966 
" />
<path d="M 467.717, 443.966 
	L 474.803, 429.360 
	L 479.055, 414.661 
	L 481.890, 398.387 
	L 483.874, 380.312 
	L 485.433, 360.820 
	L 486.567, 341.692 
	L 487.559, 325.069 
	L 488.268, 311.272 
	L 488.976, 298.539 
	L 489.473, 286.167 
" />
<path d="M 489.473, 286.167 
	L 489.969, 278.880 
	L 490.394, 270.642 
	L 490.748, 258.459 
	L 491.032, 252.918 
	L 491.315, 244.895 
	L 491.528, 237.532 
	L 491.811, 229.653 
	L 491.953, 222.737 
	L 492.165, 214.783 
	L 492.307, 212.568 
" />
<path d="M 492.307, 212.568 
	L 492.520, 210.981 
	L 492.661, 211.691 
	L 492.732, 212.191 
	L 492.874, 210.336 
	L 493.016, 208.813 
	L 493.087, 208.521 
	L 493.228, 209.237 
	L 493.299, 205.683 
	L 493.370, 204.333 
	L 493.441, 205.588 
" />
<path d="M 493.441, 205.588 
	L 493.512, 209.036 
	L 493.583, 211.386 
	L 493.654, 212.572 
	L 493.724, 215.952 
	L 368.504, 484.870 
	L 432.284, 465.708 
	L 453.543, 447.204 
	L 464.173, 429.360 
	L 470.551, 412.175 
	L 474.803, 395.651 
" />
<path d="M 474.803, 395.651 
	L 477.780, 379.785 
	L 480.118, 364.579 
	L 481.890, 350.033 
	L 483.307, 336.146 
	L 484.441, 322.919 
	L 485.433, 310.350 
	L 486.213, 298.443 
	L 486.921, 287.194 
	L 487.559, 276.605 
	L 488.055, 266.675 
" />
<path d="M 488.055, 266.675 
	L 488.551, 257.405 
	L 488.976, 248.795 
	L 489.331, 240.844 
	L 489.685, 233.552 
	L 489.969, 226.920 
	L 490.252, 220.948 
	L 490.465, 215.635 
	L 490.748, 210.981 
	L 490.961, 206.987 
	L 491.102, 203.653 
" />
<path d="M 491.102, 203.653 
	L 491.315, 200.979 
	L 491.457, 198.963 
	L 491.599, 197.607 
	L 491.811, 196.912 
	L 491.882, 196.875 
	L 492.024, 197.498 
	L 492.165, 198.780 
	L 492.307, 200.722 
	L 492.378, 203.324 
	L 492.520, 206.585 
" />
<path d="M 492.520, 206.585 
	L 492.591, 210.505 
	L 325.984, 464.757 
	L 411.024, 449.940 
	L 439.370, 435.383 
	L 453.543, 429.360 
	L 462.047, 421.250 
	L 467.717, 405.641 
	L 471.756, 381.709 
	L 474.803, 350.856 
	L 477.142, 319.586 
" />
<path d="M 477.142, 319.586 
	L 479.055, 295.712 
	L 480.543, 280.407 
	L 481.890, 267.233 
	L 482.953, 253.631 
	L 483.874, 256.844 
	L 484.724, 254.838 
	L 485.433, 236.686 
	L 486.000, 241.026 
	L 486.567, 234.559 
	L 487.063, 228.754 
" />
<path d="M 487.063, 228.754 
	L 487.559, 219.319 
	L 487.913, 211.650 
	L 488.268, 198.443 
	L 488.622, 204.439 
	L 488.976, 210.981 
	L 489.260, 224.155 
	L 489.473, 234.819 
	L 489.756, 235.137 
	L 489.969, 234.919 
	L 490.181, 237.445 
" />
<path d="M 490.181, 237.445 
	L 490.394, 241.903 
	L 490.536, 229.030 
	L 490.748, 222.451 
	L 490.890, 223.629 
	L 491.032, 231.072 
	L 491.173, 232.756 
	L 491.315, 228.439 
	L 491.457, 230.388 
	L 283.465, 421.671 
	L 389.764, 416.165 
" />
<path d="M 389.764, 416.165 
	L 425.197, 410.062 
	L 442.913, 429.360 
	L 453.543, 440.688 
	L 460.630, 427.041 
	L 465.661, 385.831 
	L 469.488, 321.460 
	L 472.394, 254.368 
	L 474.803, 209.100 
	L 476.717, 189.343 
	L 478.347, 174.869 
" />
<path d="M 478.347, 174.869 
	L 479.693, 157.642 
	L 480.827, 191.833 
	L 481.890, 208.211 
	L 482.740, 172.446 
	L 483.520, 205.943 
	L 484.228, 204.067 
	L 484.866, 202.857 
	L 485.433, 188.829 
	L 485.929, 178.941 
	L 486.354, 150.236 
" />
<path d="M 486.354, 150.236 
	L 486.780, 180.456 
	L 487.205, 210.981 
	L 487.559, 260.928 
	L 487.843, 301.577 
	L 488.126, 308.307 
	L 488.410, 311.939 
	L 488.693, 322.781 
	L 488.976, 338.279 
	L 489.189, 297.911 
	L 489.402, 275.902 
" />
<path d="M 489.402, 275.902 
	L 489.614, 276.858 
	L 489.756, 296.083 
	L 489.969, 295.802 
	L 490.110, 275.254 
	L 490.252, 272.979 
	L 240.945, 440.915 
	L 368.504, 431.250 
	L 411.024, 421.372 
	L 432.284, 429.360 
	L 445.039, 432.006 
" />
<path d="M 445.039, 432.006 
	L 453.543, 417.483 
	L 459.567, 383.990 
	L 464.173, 334.590 
	L 467.717, 283.497 
	L 470.551, 247.784 
	L 472.819, 230.016 
	L 474.803, 216.122 
	L 476.433, 200.514 
	L 477.780, 220.870 
	L 479.055, 229.037 
" />
<path d="M 479.055, 229.037 
	L 480.118, 201.138 
	L 481.039, 221.613 
	L 481.890, 217.686 
	L 482.598, 214.424 
	L 483.307, 202.447 
	L 483.874, 193.550 
	L 484.441, 171.768 
	L 484.937, 191.168 
	L 485.433, 210.981 
	L 485.858, 244.504 
" />
<path d="M 485.858, 244.504 
	L 486.213, 271.760 
	L 486.567, 275.627 
	L 486.921, 277.539 
	L 487.205, 284.666 
	L 487.559, 295.233 
	L 487.772, 267.146 
	L 488.055, 252.029 
	L 488.268, 253.084 
	L 488.551, 267.046 
	L 488.764, 267.643 
" />
<path d="M 488.764, 267.643 
	L 488.976, 254.345 
	L 489.118, 253.956 
	L 198.425, 464.008 
	L 347.244, 449.353 
	L 396.850, 434.943 
	L 421.654, 429.360 
	L 436.536, 421.587 
	L 446.457, 406.013 
	L 453.543, 381.781 
	L 458.858, 350.345 
" />
<path d="M 458.858, 350.345 
	L 462.969, 318.453 
	L 466.299, 294.207 
	L 468.992, 278.825 
	L 471.260, 265.628 
	L 473.102, 251.964 
	L 474.803, 255.715 
	L 476.221, 254.028 
	L 477.425, 235.570 
	L 478.488, 240.417 
	L 479.480, 234.030 
" />
<path d="M 479.480, 234.030 
	L 480.331, 228.304 
	L 481.181, 218.789 
	L 481.890, 211.082 
	L 482.528, 197.605 
	L 483.095, 204.022 
	L 483.661, 210.981 
	L 484.158, 224.794 
	L 484.583, 235.978 
	L 485.008, 236.408 
	L 485.433, 236.257 
" />
<path d="M 485.433, 236.257 
	L 485.787, 238.928 
	L 486.142, 243.578 
	L 486.425, 230.227 
	L 486.709, 223.379 
	L 486.992, 224.554 
	L 487.276, 232.201 
	L 487.559, 233.851 
	L 487.772, 229.253 
	L 487.984, 231.128 
	L 155.906, 484.870 
" />
<path d="M 155.906, 484.870 
	L 325.984, 465.708 
	L 382.677, 447.204 
	L 411.024, 429.360 
	L 428.032, 412.175 
	L 439.370, 395.651 
	L 447.449, 379.785 
	L 453.543, 364.579 
	L 458.221, 350.033 
	L 462.047, 336.146 
	L 465.095, 322.919 
" />
<path d="M 465.095, 322.919 
	L 467.717, 310.350 
	L 469.843, 298.443 
	L 471.756, 287.194 
	L 473.386, 276.605 
	L 474.803, 266.675 
	L 476.008, 257.405 
	L 477.142, 248.795 
	L 478.134, 240.844 
	L 479.055, 233.552 
	L 479.835, 226.920 
" />
<path d="M 479.835, 226.920 
	L 480.543, 220.948 
	L 481.252, 215.635 
	L 481.890, 210.981 
	L 482.457, 206.987 
	L 482.953, 203.653 
	L 483.449, 200.979 
	L 483.874, 198.963 
	L 484.299, 197.607 
	L 484.724, 196.912 
	L 485.079, 196.875 
" />
<path d="M 485.079, 196.875 
	L 485.433, 197.498 
	L 485.717, 198.780 
	L 486.000, 200.722 
	L 486.284, 203.324 
	L 486.567, 206.585 
	L 486.850, 210.505 
" />
</g><g style="stroke:rgb(255,0,0); fill:none; stroke-width:0.100mm" >
<path d="M 14.173, 480.473 
	L 14.173, 483.307 
" />
<path d="M 14.173, 481.890 
	L 16.299, 480.473 
	L 17.362, 480.473 
" />
<path d="M 20.551, 481.890 
	L 23.740, 481.890 
	L 24.803, 481.181 
	L 23.740, 480.473 
	L 21.614, 480.473 
	L 20.551, 481.181 
	L 20.551, 482.598 
	L 21.614, 483.307 
	L 24.803, 483.307 
" />
<path d="M 31.181, 482.598 
	L 30.118, 483.307 
	L 29.055, 483.307 
	L 27.992, 482.598 
	L 27.992, 481.181 
	L 29.055, 480.473 
	L 30.118, 480.473 
	L 31.181, 481.181 
" />
<path d="M 34.370, 483.307 
	L 33.307, 482.598 
	L 33.307, 481.181 
	L 34.370, 480.473 
	L 35.433, 480.473 
	L 36.496, 481.181 
	L 36.496, 482.598 
	L 35.433, 483.307 
	L 34.370, 483.307 
" />
<path d="M 39.685, 480.473 
	L 39.685, 483.307 
" />
<path d="M 39.685, 481.890 
	L 41.811, 480.473 
	L 42.874, 480.473 
" />
<path d="M 49.252, 479.055 
	L 49.252, 483.307 
	L 47.126, 483.307 
	L 46.063, 482.598 
	L 46.063, 481.181 
	L 47.126, 480.473 
	L 49.252, 480.473 
" />
<path d="M 49.252, 483.307 
	L 50.315, 483.307 
" />
<path d="M 52.441, 481.890 
	L 55.630, 481.890 
	L 56.693, 481.181 
	L 55.630, 480.473 
	L 53.504, 480.473 
	L 52.441, 481.181 
	L 52.441, 482.598 
	L 53.504, 483.307 
	L 56.693, 483.307 
" />
<path d="M 62.008, 479.055 
	L 62.008, 483.307 
	L 59.882, 483.307 
	L 58.819, 482.598 
	L 58.819, 481.181 
	L 59.882, 480.473 
	L 62.008, 480.473 
" />
<path d="M 62.008, 483.307 
	L 63.071, 483.307 
" />
<path d="M 73.701, 479.055 
	L 73.701, 479.764 
" />
<path d="M 72.638, 480.473 
	L 73.701, 480.473 
	L 73.701, 483.307 
" />
<path d="M 72.638, 483.307 
	L 74.764, 483.307 
" />
<path d="M 77.953, 483.307 
	L 77.953, 480.473 
" />
<path d="M 77.953, 481.181 
	L 79.016, 480.473 
	L 80.079, 480.473 
	L 81.142, 481.181 
	L 81.142, 483.307 
" />
<path d="M 92.835, 483.307 
	L 92.835, 479.055 
	L 90.709, 479.055 
	L 94.961, 479.055 
" />
<path d="M 97.087, 480.473 
	L 97.087, 482.598 
	L 98.150, 483.307 
	L 100.276, 483.307 
	L 100.276, 480.473 
" />
<path d="M 106.654, 480.473 
	L 104.528, 480.473 
	L 103.465, 481.181 
	L 104.528, 481.890 
	L 105.591, 481.890 
	L 106.654, 482.598 
	L 105.591, 483.307 
	L 103.465, 483.307 
" />
<path d="M 109.843, 479.055 
	L 109.843, 483.307 
" />
<path d="M 109.843, 480.473 
	L 111.969, 480.473 
	L 113.032, 481.181 
	L 113.032, 483.307 
" />
<path d="M 116.220, 481.890 
	L 119.409, 481.890 
	L 120.472, 481.181 
	L 119.409, 480.473 
	L 117.283, 480.473 
	L 116.220, 481.181 
	L 116.220, 482.598 
	L 117.283, 483.307 
	L 120.472, 483.307 
" />
<path d="M 123.661, 479.055 
	L 123.661, 483.307 
	L 125.787, 483.307 
" />
<path d="M 122.598, 480.473 
	L 125.787, 480.473 
" />
<path d="M 131.102, 479.055 
	L 131.102, 479.764 
" />
<path d="M 130.039, 480.473 
	L 131.102, 480.473 
	L 131.102, 483.307 
" />
<path d="M 130.039, 483.307 
	L 132.165, 483.307 
" />
<path d="M 137.480, 479.055 
	L 137.480, 479.764 
" />
<path d="M 136.417, 480.473 
	L 137.480, 480.473 
	L 137.480, 483.307 
" />
<path d="M 136.417, 483.307 
	L 138.543, 483.307 
" />
<path d="M 152.362, 479.764 
	L 151.299, 479.055 
	L 149.173, 479.055 
	L 148.110, 479.764 
	L 148.110, 482.598 
	L 149.173, 483.307 
	L 151.299, 483.307 
	L 152.362, 482.598 
	L 152.362, 481.181 
	L 149.173, 481.181 
" />
<path d="M 154.488, 481.890 
	L 157.677, 481.890 
	L 158.740, 481.181 
	L 157.677, 480.473 
	L 155.551, 480.473 
	L 154.488, 481.181 
	L 154.488, 482.598 
	L 155.551, 483.307 
	L 158.740, 483.307 
" />
<path d="M 161.929, 483.307 
	L 160.866, 482.598 
	L 160.866, 481.181 
	L 161.929, 480.473 
	L 162.992, 480.473 
	L 164.055, 481.181 
	L 164.055, 482.598 
	L 162.992, 483.307 
	L 161.929, 483.307 
" />
<path d="M 167.244, 480.473 
	L 167.244, 483.307 
" />
<path d="M 167.244, 481.890 
	L 169.370, 480.473 
	L 170.433, 480.473 
" />
<path d="M 173.622, 484.724 
	L 175.748, 484.724 
	L 176.811, 484.016 
	L 176.811, 480.473 
	L 174.685, 480.473 
	L 173.622, 481.181 
	L 173.622, 482.598 
	L 174.685, 483.307 
	L 176.811, 483.307 
" />
<path d="M 182.126, 479.055 
	L 182.126, 479.764 
" />
<path d="M 181.063, 480.473 
	L 182.126, 480.473 
	L 182.126, 483.307 
" />
<path d="M 181.063, 483.307 
	L 183.189, 483.307 
" />
<path d="M 190.630, 483.307 
	L 187.441, 483.307 
	L 186.378, 482.598 
	L 186.378, 481.181 
	L 187.441, 480.473 
	L 189.567, 480.473 
	L 189.567, 483.307 
" />
<path d="M 14.173, 490.394 
	L 14.173, 486.142 
" />
<path d="M 17.362, 490.394 
	L 14.173, 488.976 
	L 17.362, 487.559 
" />
<path d="M 24.803, 490.394 
	L 21.614, 490.394 
	L 20.551, 489.685 
	L 20.551, 488.268 
	L 21.614, 487.559 
	L 23.740, 487.559 
	L 23.740, 490.394 
" />
<path d="M 27.992, 490.394 
	L 26.929, 489.685 
	L 26.929, 488.268 
	L 27.992, 487.559 
	L 29.055, 487.559 
	L 30.118, 488.268 
	L 30.118, 489.685 
	L 29.055, 490.394 
	L 27.992, 490.394 
" />
<path d="M 34.370, 486.142 
	L 34.370, 490.394 
	L 36.496, 490.394 
" />
<path d="M 33.307, 487.559 
	L 36.496, 487.559 
" />
<path d="M 39.685, 488.976 
	L 42.874, 488.976 
	L 43.937, 488.268 
	L 42.874, 487.559 
	L 40.748, 487.559 
	L 39.685, 488.268 
	L 39.685, 489.685 
	L 40.748, 490.394 
	L 43.937, 490.394 
" />
<path d="M 50.315, 489.685 
	L 49.252, 490.394 
	L 48.189, 490.394 
	L 47.126, 489.685 
	L 47.126, 488.268 
	L 48.189, 487.559 
	L 49.252, 487.559 
	L 50.315, 488.268 
" />
<path d="M 63.071, 490.394 
	L 60.945, 490.394 
	L 60.945, 486.142 
	L 63.071, 486.142 
" />
<path d="M 65.197, 490.394 
	L 67.323, 490.394 
	L 67.323, 486.142 
	L 65.197, 486.142 
" />
<path d="M 74.764, 486.142 
	L 71.575, 488.268 
	L 74.764, 490.394 
" />
<path d="M 77.953, 486.142 
	L 81.142, 488.268 
	L 77.953, 490.394 
" />
<path d="M 90.709, 486.850 
	L 91.772, 486.142 
	L 93.898, 486.142 
	L 94.961, 486.850 
	L 94.961, 487.559 
	L 90.709, 489.685 
	L 90.709, 490.394 
	L 94.961, 490.394 
" />
<path d="M 97.087, 489.685 
	L 98.150, 490.394 
	L 100.276, 490.394 
	L 101.339, 489.685 
	L 101.339, 486.850 
	L 100.276, 486.142 
	L 98.150, 486.142 
	L 97.087, 486.850 
	L 97.087, 489.685 
" />
<path d="M 104.528, 490.394 
	L 106.654, 490.394 
" />
<path d="M 105.591, 490.394 
	L 105.591, 486.142 
	L 104.528, 486.850 
" />
<path d="M 110.906, 490.394 
	L 111.969, 490.394 
	L 114.095, 488.976 
	L 114.095, 486.850 
	L 113.032, 486.142 
	L 110.906, 486.142 
	L 109.843, 486.850 
	L 109.843, 487.559 
	L 110.906, 488.268 
	L 114.095, 488.268 
" />
<path d="M 14.173, 511.654 
	L 17.362, 511.654 
	L 18.425, 510.945 
	L 18.425, 509.528 
	L 17.362, 508.819 
	L 15.236, 508.819 
" />
<path d="M 15.236, 507.402 
	L 15.236, 511.654 
" />
<path d="M 24.803, 511.654 
	L 21.614, 511.654 
	L 20.551, 510.945 
	L 20.551, 509.528 
	L 21.614, 508.819 
	L 23.740, 508.819 
	L 23.740, 511.654 
" />
<path d="M 26.929, 511.654 
	L 26.929, 508.819 
" />
<path d="M 26.929, 509.528 
	L 27.992, 508.819 
	L 29.055, 508.819 
	L 30.118, 509.528 
	L 30.118, 511.654 
" />
<path d="M 36.496, 507.402 
	L 36.496, 511.654 
	L 34.370, 511.654 
	L 33.307, 510.945 
	L 33.307, 509.528 
	L 34.370, 508.819 
	L 36.496, 508.819 
" />
<path d="M 36.496, 511.654 
	L 37.559, 511.654 
" />
<path d="M 43.937, 510.945 
	L 42.874, 511.654 
	L 41.811, 511.654 
	L 40.748, 510.945 
	L 40.748, 509.528 
	L 41.811, 508.819 
	L 42.874, 508.819 
	L 43.937, 509.528 
" />
<path d="M 50.315, 511.654 
	L 47.126, 511.654 
	L 46.063, 510.945 
	L 46.063, 509.528 
	L 47.126, 508.819 
	L 49.252, 508.819 
	L 49.252, 511.654 
" />
<path d="M 52.441, 511.654 
	L 52.441, 508.819 
" />
<path d="M 52.441, 509.528 
	L 53.504, 508.819 
	L 54.567, 509.528 
	L 54.567, 511.654 
" />
<path d="M 54.567, 509.528 
	L 55.630, 508.819 
	L 56.693, 509.528 
	L 56.693, 511.654 
" />
<path d="M 58.819, 513.071 
	L 58.819, 508.819 
	L 60.945, 508.819 
	L 62.008, 509.528 
	L 62.008, 510.945 
	L 60.945, 511.654 
	L 58.819, 511.654 
" />
<path d="M 74.764, 507.402 
	L 74.764, 511.654 
	L 72.638, 511.654 
	L 71.575, 510.945 
	L 71.575, 509.528 
	L 72.638, 508.819 
	L 74.764, 508.819 
" />
<path d="M 74.764, 511.654 
	L 75.827, 511.654 
" />
<path d="M 79.016, 511.654 
	L 77.953, 510.945 
	L 77.953, 509.528 
	L 79.016, 508.819 
	L 80.079, 508.819 
	L 81.142, 509.528 
	L 81.142, 510.945 
	L 80.079, 511.654 
	L 79.016, 511.654 
" />
<path d="M 84.331, 508.819 
	L 84.331, 510.945 
	L 85.394, 511.654 
	L 86.457, 510.945 
	L 86.457, 509.528 
" />
<path d="M 86.457, 510.945 
	L 87.520, 511.654 
	L 88.583, 510.945 
	L 88.583, 508.819 
" />
<path d="M 90.709, 511.654 
	L 90.709, 508.819 
" />
<path d="M 90.709, 509.528 
	L 91.772, 508.819 
	L 92.835, 508.819 
	L 93.898, 509.528 
	L 93.898, 511.654 
" />
<path d="M 98.150, 507.402 
	L 99.213, 507.402 
	L 99.213, 511.654 
" />
<path d="M 98.150, 511.654 
	L 100.276, 511.654 
" />
<path d="M 104.528, 511.654 
	L 103.465, 510.945 
	L 103.465, 509.528 
	L 104.528, 508.819 
	L 105.591, 508.819 
	L 106.654, 509.528 
	L 106.654, 510.945 
	L 105.591, 511.654 
	L 104.528, 511.654 
" />
<path d="M 114.095, 511.654 
	L 110.906, 511.654 
	L 109.843, 510.945 
	L 109.843, 509.528 
	L 110.906, 508.819 
	L 113.032, 508.819 
	L 113.032, 511.654 
" />
<path d="M 119.409, 507.402 
	L 119.409, 511.654 
	L 117.283, 511.654 
	L 116.220, 510.945 
	L 116.220, 509.528 
	L 117.283, 508.819 
	L 119.409, 508.819 
" />
<path d="M 119.409, 511.654 
	L 120.472, 511.654 
" />
<path d="M 126.850, 510.945 
	L 125.787, 511.654 
	L 124.724, 511.654 
	L 123.661, 510.945 
	L 123.661, 509.528 
	L 124.724, 508.819 
	L 125.787, 508.819 
	L 126.850, 509.528 
" />
<path d="M 130.039, 511.654 
	L 128.976, 510.945 
	L 128.976, 509.528 
	L 130.039, 508.819 
	L 131.102, 508.819 
	L 132.165, 509.528 
	L 132.165, 510.945 
	L 131.102, 511.654 
	L 130.039, 511.654 
" />
<path d="M 138.543, 507.402 
	L 138.543, 511.654 
	L 136.417, 511.654 
	L 135.354, 510.945 
	L 135.354, 509.528 
	L 136.417, 508.819 
	L 138.543, 508.819 
" />
<path d="M 138.543, 511.654 
	L 139.606, 511.654 
" />
<path d="M 141.732, 510.236 
	L 144.921, 510.236 
	L 145.984, 509.528 
	L 144.921, 508.819 
	L 142.795, 508.819 
	L 141.732, 509.528 
	L 141.732, 510.945 
	L 142.795, 511.654 
	L 145.984, 511.654 
" />
<path d="M 154.488, 511.654 
	L 158.740, 507.402 
" />
<path d="M 158.740, 511.654 
	L 154.488, 507.402 
" />
<path d="M 160.866, 511.654 
	L 165.118, 507.402 
" />
<path d="M 165.118, 511.654 
	L 160.866, 507.402 
" />
<path d="M 167.244, 511.654 
	L 171.496, 507.402 
" />
<path d="M 171.496, 511.654 
	L 167.244, 507.402 
" />
<path d="M 173.622, 511.654 
	L 177.874, 507.402 
" />
<path d="M 177.874, 511.654 
	L 173.622, 507.402 
" />
<path d="M 180.000, 509.528 
	L 184.252, 509.528 
" />
<path d="M 186.378, 511.654 
	L 190.630, 507.402 
" />
<path d="M 190.630, 511.654 
	L 186.378, 507.402 
" />
<path d="M 192.756, 511.654 
	L 197.008, 507.402 
" />
<path d="M 197.008, 511.654 
	L 192.756, 507.402 
" />
<path d="M 199.134, 511.654 
	L 203.386, 507.402 
" />
<path d="M 203.386, 511.654 
	L 199.134, 507.402 
" />
<path d="M 205.512, 511.654 
	L 209.764, 507.402 
" />
<path d="M 209.764, 511.654 
	L 205.512, 507.402 
" />
<path d="M 17.717, 97.086 
	L 17.717, 97.087 
	L 17.717, 95.740 
	L 37.382, 95.740 
	L 37.382, 97.087 
	L 17.717, 97.087 
	L 17.717, 92.091 
	L 17.717, 90.744 
	L 37.382, 90.744 
	L 37.382, 92.091 
	L 17.717, 92.091 
	L 17.717, 89.362 
" />
<path d="M 17.717, 89.362 
	L 17.717, 88.016 
	L 37.382, 88.016 
	L 37.382, 89.362 
	L 17.717, 89.362 
" />
<path d="M 37.666, 97.086 
	L 37.665, 97.087 
	L 37.665, 88.016 
	L 39.366, 88.016 
	L 39.366, 97.087 
	L 37.665, 97.087 
" />
<path d="M 39.367, 97.086 
	L 39.366, 97.087 
	L 39.366, 90.283 
	L 51.626, 90.283 
	L 51.626, 91.630 
	L 41.067, 91.630 
	L 41.067, 93.012 
	L 51.626, 93.012 
	L 51.626, 94.358 
	L 41.067, 94.358 
	L 41.067, 97.087 
	L 39.366, 97.087 
" />
<path d="M 39.366, 97.087 
" />
<path d="M 62.257, 93.011 
	L 62.256, 93.012 
	L 62.256, 91.630 
	L 52.902, 91.630 
	L 52.902, 93.012 
	L 62.256, 93.012 
	L 51.343, 97.087 
	L 51.343, 90.283 
	L 63.815, 90.283 
	L 63.815, 94.358 
	L 52.902, 94.358 
	L 52.902, 95.740 
" />
<path d="M 52.902, 95.740 
	L 63.815, 95.740 
	L 63.815, 97.087 
	L 51.343, 97.087 
" />
<path d="M 64.099, 97.086 
	L 64.098, 97.087 
	L 64.098, 90.283 
	L 77.138, 90.283 
	L 77.138, 97.087 
	L 75.437, 97.087 
	L 75.437, 91.630 
	L 65.799, 91.630 
	L 65.799, 97.087 
	L 64.098, 97.087 
" />
<path d="M 77.139, 97.547 
	L 77.138, 97.547 
	L 77.138, 88.016 
	L 78.839, 88.016 
	L 78.839, 95.492 
	L 88.193, 91.417 
	L 97.547, 95.492 
	L 97.547, 88.016 
	L 99.248, 88.016 
	L 99.248, 97.547 
	L 88.193, 92.764 
	L 77.138, 97.547 
" />
<path d="M 77.138, 97.547 
" />
<path d="M 110.587, 95.739 
	L 110.587, 95.740 
	L 110.587, 91.630 
	L 108.319, 91.630 
	L 103.783, 95.740 
	L 110.587, 95.740 
	L 99.992, 97.087 
	L 106.051, 91.630 
	L 99.992, 91.630 
	L 99.992, 90.283 
	L 112.287, 90.283 
	L 112.287, 97.087 
" />
<path d="M 112.287, 97.087 
	L 99.992, 97.087 
" />
<path d="M 111.544, 97.086 
	L 111.543, 97.087 
	L 111.543, 90.283 
	L 124.583, 90.283 
	L 124.583, 97.087 
	L 122.882, 97.087 
	L 122.882, 91.630 
	L 113.244, 91.630 
	L 113.244, 97.087 
	L 111.543, 97.087 
" />
<path d="M 135.922, 95.739 
	L 135.921, 95.740 
	L 135.921, 91.630 
	L 126.283, 91.630 
	L 126.283, 95.740 
	L 135.921, 95.740 
	L 124.583, 97.087 
	L 124.583, 90.283 
	L 135.921, 90.283 
	L 135.921, 88.016 
	L 137.622, 88.016 
	L 137.622, 97.087 
" />
<path d="M 137.622, 97.087 
	L 124.583, 97.087 
" />
<path d="M 148.253, 93.011 
	L 148.252, 93.012 
	L 148.252, 91.630 
	L 138.898, 91.630 
	L 138.898, 93.012 
	L 148.252, 93.012 
	L 137.339, 97.087 
	L 137.339, 90.283 
	L 149.811, 90.283 
	L 149.811, 94.358 
	L 138.898, 94.358 
	L 138.898, 95.740 
" />
<path d="M 138.898, 95.740 
	L 149.811, 95.740 
	L 149.811, 97.087 
	L 137.339, 97.087 
" />
<path d="M 150.095, 97.086 
	L 150.095, 97.087 
	L 150.095, 90.283 
	L 162.354, 90.283 
	L 162.354, 91.630 
	L 151.795, 91.630 
	L 151.795, 97.087 
	L 150.095, 97.087 
" />
<path d="M 36.320, 113.456 
	L 36.319, 113.457 
	L 28.772, 107.079 
	L 19.701, 107.079 
	L 19.701, 113.457 
	L 36.319, 113.457 
	L 18.000, 114.803 
	L 18.000, 105.732 
	L 29.516, 105.732 
	L 40.110, 114.803 
	L 18.000, 114.803 
" />
<path d="M 40.111, 114.802 
	L 40.110, 114.803 
	L 40.110, 108.000 
	L 41.811, 108.000 
	L 41.811, 114.803 
	L 40.110, 114.803 
	L 40.110, 107.079 
	L 40.110, 105.732 
	L 41.811, 105.732 
	L 41.811, 107.079 
	L 40.110, 107.079 
" />
<path d="M 41.528, 114.802 
	L 41.528, 114.803 
	L 41.528, 113.457 
	L 52.441, 113.457 
	L 52.441, 112.075 
	L 41.528, 112.075 
	L 41.528, 108.000 
	L 54.000, 108.000 
	L 54.000, 109.346 
	L 43.087, 109.346 
	L 43.087, 110.728 
	L 54.000, 110.728 
" />
<path d="M 54.000, 110.728 
	L 54.000, 114.803 
	L 41.528, 114.803 
" />
<path d="M 54.284, 114.802 
	L 54.283, 114.803 
	L 54.283, 105.732 
	L 55.984, 105.732 
	L 55.984, 108.000 
	L 66.543, 108.000 
	L 66.543, 109.346 
	L 55.984, 109.346 
	L 55.984, 113.457 
	L 66.543, 113.457 
	L 66.543, 114.803 
	L 54.283, 114.803 
" />
<path d="M 54.283, 114.803 
" />
<path d="M 66.544, 114.802 
	L 66.543, 114.803 
	L 66.543, 108.000 
	L 78.803, 108.000 
	L 78.803, 109.346 
	L 68.244, 109.346 
	L 68.244, 114.803 
	L 66.543, 114.803 
" />
<path d="M 89.434, 110.728 
	L 89.433, 110.728 
	L 89.433, 109.346 
	L 80.079, 109.346 
	L 80.079, 110.728 
	L 89.433, 110.728 
	L 78.520, 114.803 
	L 78.520, 108.000 
	L 90.992, 108.000 
	L 90.992, 112.075 
	L 80.079, 112.075 
	L 80.079, 113.457 
" />
<path d="M 80.079, 113.457 
	L 90.992, 113.457 
	L 90.992, 114.803 
	L 78.520, 114.803 
" />
<path d="M 90.993, 114.802 
	L 90.992, 114.803 
	L 90.992, 113.457 
	L 101.906, 113.457 
	L 101.906, 112.075 
	L 90.992, 112.075 
	L 90.992, 108.000 
	L 103.465, 108.000 
	L 103.465, 109.346 
	L 92.551, 109.346 
	L 92.551, 110.728 
" />
<path d="M 92.551, 110.728 
	L 103.465, 110.728 
	L 103.465, 114.803 
	L 90.992, 114.803 
" />
<path d="M 103.465, 114.802 
	L 103.465, 114.803 
	L 103.465, 113.457 
	L 114.378, 113.457 
	L 114.378, 112.075 
	L 103.465, 112.075 
	L 103.465, 108.000 
	L 115.937, 108.000 
	L 115.937, 109.346 
	L 105.024, 109.346 
	L 105.024, 110.728 
" />
<path d="M 105.024, 110.728 
	L 115.937, 110.728 
	L 115.937, 114.803 
	L 103.465, 114.803 
" />
<path d="M 116.221, 114.802 
	L 116.220, 114.803 
	L 116.220, 108.461 
	L 136.063, 108.461 
	L 136.063, 109.807 
	L 117.921, 109.807 
	L 117.921, 114.803 
	L 116.220, 114.803 
	L 116.220, 107.079 
	L 116.220, 105.732 
	L 136.063, 105.732 
" />
<path d="M 136.063, 105.732 
	L 136.063, 107.079 
	L 116.220, 107.079 
" />
<path d="M 136.064, 114.802 
	L 136.063, 114.803 
	L 136.063, 108.000 
	L 148.323, 108.000 
	L 148.323, 109.346 
	L 137.764, 109.346 
	L 137.764, 114.803 
	L 136.063, 114.803 
" />
<path d="M 158.953, 110.728 
	L 158.953, 110.728 
	L 158.953, 109.346 
	L 149.598, 109.346 
	L 149.598, 110.728 
	L 158.953, 110.728 
	L 148.039, 114.803 
	L 148.039, 108.000 
	L 160.512, 108.000 
	L 160.512, 112.075 
	L 149.598, 112.075 
" />
<path d="M 149.598, 112.075 
	L 149.598, 113.457 
	L 160.512, 113.457 
	L 160.512, 114.803 
	L 148.039, 114.803 
" />
<path d="M 172.135, 113.456 
	L 172.134, 113.457 
	L 172.134, 109.346 
	L 162.496, 109.346 
	L 162.496, 113.457 
	L 172.134, 113.457 
	L 172.134, 117.071 
	L 172.134, 114.803 
	L 160.795, 114.803 
	L 160.795, 108.000 
	L 173.835, 108.000 
" />
<path d="M 173.835, 108.000 
	L 173.835, 117.071 
	L 172.134, 117.071 
" />
<path d="M 173.835, 114.802 
	L 173.835, 114.803 
	L 173.835, 108.000 
	L 175.535, 108.000 
	L 175.535, 113.457 
	L 185.173, 113.457 
	L 185.173, 108.000 
	L 186.874, 108.000 
	L 186.874, 114.803 
	L 173.835, 114.803 
" />
<path d="M 197.505, 110.728 
	L 197.504, 110.728 
	L 197.504, 109.346 
	L 188.150, 109.346 
	L 188.150, 110.728 
	L 197.504, 110.728 
	L 186.591, 114.803 
	L 186.591, 108.000 
	L 199.063, 108.000 
	L 199.063, 112.075 
	L 188.150, 112.075 
" />
<path d="M 188.150, 112.075 
	L 188.150, 113.457 
	L 199.063, 113.457 
	L 199.063, 114.803 
	L 186.591, 114.803 
" />
<path d="M 199.347, 114.802 
	L 199.346, 114.803 
	L 199.346, 108.000 
	L 212.386, 108.000 
	L 212.386, 114.803 
	L 210.685, 114.803 
	L 210.685, 109.346 
	L 201.047, 109.346 
	L 201.047, 114.803 
	L 199.346, 114.803 
" />
<path d="M 212.387, 114.802 
	L 212.386, 114.803 
	L 212.386, 108.000 
	L 224.646, 108.000 
	L 224.646, 109.346 
	L 214.087, 109.346 
	L 214.087, 113.457 
	L 224.646, 113.457 
	L 224.646, 114.803 
	L 212.386, 114.803 
" />
<path d="M 225.391, 117.070 
	L 225.390, 117.071 
	L 225.390, 115.689 
	L 235.984, 115.689 
	L 235.984, 114.803 
	L 232.937, 114.803 
	L 225.390, 108.000 
	L 227.658, 108.000 
	L 233.717, 113.457 
	L 235.984, 113.457 
	L 235.984, 108.000 
" />
<path d="M 235.984, 108.000 
	L 237.685, 108.000 
	L 237.685, 117.071 
	L 225.390, 117.071 
" />
<path d="M 27.072, 132.519 
	L 27.071, 132.520 
	L 27.071, 124.795 
	L 17.256, 124.795 
	L 17.256, 123.449 
	L 38.587, 123.449 
	L 38.587, 124.795 
	L 28.772, 124.795 
	L 28.772, 132.520 
	L 27.071, 132.520 
" />
<path d="M 39.331, 132.519 
	L 39.331, 132.520 
	L 39.331, 123.449 
	L 41.032, 123.449 
	L 41.032, 125.717 
	L 52.370, 125.717 
	L 52.370, 132.520 
	L 50.669, 132.520 
	L 50.669, 127.063 
	L 41.032, 127.063 
	L 41.032, 132.520 
	L 39.331, 132.520 
" />
<path d="M 39.331, 132.520 
" />
<path d="M 63.001, 128.444 
	L 63.000, 128.445 
	L 63.000, 127.063 
	L 53.646, 127.063 
	L 53.646, 128.445 
	L 63.000, 128.445 
	L 52.087, 132.520 
	L 52.087, 125.717 
	L 64.559, 125.717 
	L 64.559, 129.791 
	L 53.646, 129.791 
	L 53.646, 131.173 
" />
<path d="M 53.646, 131.173 
	L 64.559, 131.173 
	L 64.559, 132.520 
	L 52.087, 132.520 
" />
<path d="M 64.560, 132.519 
	L 64.559, 132.520 
	L 64.559, 131.173 
	L 84.224, 131.173 
	L 84.224, 132.520 
	L 64.559, 132.520 
	L 64.559, 127.524 
	L 64.559, 126.177 
	L 84.224, 126.177 
	L 84.224, 127.524 
	L 64.559, 127.524 
	L 64.559, 124.795 
" />
<path d="M 64.559, 124.795 
	L 64.559, 123.449 
	L 84.224, 123.449 
	L 84.224, 124.795 
	L 64.559, 124.795 
" />
<path d="M 95.847, 131.173 
	L 95.846, 131.173 
	L 95.846, 127.063 
	L 86.209, 127.063 
	L 86.209, 131.173 
	L 95.846, 131.173 
	L 84.508, 132.520 
	L 84.508, 125.717 
	L 95.846, 125.717 
	L 95.846, 123.449 
	L 97.547, 123.449 
	L 97.547, 132.520 
" />
<path d="M 97.547, 132.520 
	L 84.508, 132.520 
" />
<path d="M 108.887, 131.173 
	L 108.886, 131.173 
	L 108.886, 127.063 
	L 99.248, 127.063 
	L 99.248, 131.173 
	L 108.886, 131.173 
	L 97.547, 134.787 
	L 97.547, 133.406 
	L 108.886, 133.406 
	L 108.886, 132.520 
	L 97.547, 132.520 
" />
<path d="M 97.547, 132.520 
	L 97.547, 125.717 
	L 110.587, 125.717 
	L 110.587, 134.787 
	L 97.547, 134.787 
" />
<path d="M 121.217, 128.444 
	L 121.217, 128.445 
	L 121.217, 127.063 
	L 111.862, 127.063 
	L 111.862, 128.445 
	L 121.217, 128.445 
	L 110.303, 132.520 
	L 110.303, 125.717 
	L 122.776, 125.717 
	L 122.776, 129.791 
	L 111.862, 129.791 
" />
<path d="M 111.862, 129.791 
	L 111.862, 131.173 
	L 122.776, 131.173 
	L 122.776, 132.520 
	L 110.303, 132.520 
" />
<path d="M 143.469, 131.173 
	L 143.469, 131.173 
	L 143.469, 124.795 
	L 124.760, 124.795 
	L 124.760, 131.173 
	L 143.469, 131.173 
	L 123.059, 132.520 
	L 123.059, 123.449 
	L 145.169, 123.449 
	L 145.169, 132.520 
	L 123.059, 132.520 
" />
<path d="M 123.059, 132.520 
" />
<path d="M 145.170, 132.519 
	L 145.169, 132.520 
	L 145.169, 125.717 
	L 157.429, 125.717 
	L 157.429, 127.063 
	L 146.870, 127.063 
	L 146.870, 128.445 
	L 157.429, 128.445 
	L 157.429, 129.791 
	L 146.870, 129.791 
	L 146.870, 132.520 
" />
<path d="M 146.870, 132.520 
	L 145.169, 132.520 
" />
<path d="M 157.430, 132.980 
	L 157.429, 132.980 
	L 157.429, 123.449 
	L 159.130, 123.449 
	L 159.130, 130.925 
	L 168.484, 126.850 
	L 177.839, 130.925 
	L 177.839, 123.449 
	L 179.539, 123.449 
	L 179.539, 132.980 
	L 168.484, 128.197 
" />
<path d="M 168.484, 128.197 
	L 157.429, 132.980 
" />
<path d="M 179.540, 132.519 
	L 179.539, 132.520 
	L 179.539, 123.449 
	L 181.240, 123.449 
	L 181.240, 125.717 
	L 192.579, 125.717 
	L 192.579, 132.520 
	L 190.878, 132.520 
	L 190.878, 127.063 
	L 181.240, 127.063 
	L 181.240, 132.520 
" />
<path d="M 181.240, 132.520 
	L 179.539, 132.520 
" />
<path d="M 203.918, 131.173 
	L 203.917, 131.173 
	L 203.917, 127.063 
	L 201.650, 127.063 
	L 197.114, 131.173 
	L 203.917, 131.173 
	L 193.323, 132.520 
	L 199.382, 127.063 
	L 193.323, 127.063 
	L 193.323, 125.717 
	L 205.618, 125.717 
" />
<path d="M 205.618, 125.717 
	L 205.618, 132.520 
	L 193.323, 132.520 
" />
<path d="M 204.875, 132.519 
	L 204.874, 132.520 
	L 204.874, 123.449 
	L 206.575, 123.449 
	L 206.575, 125.717 
	L 217.134, 125.717 
	L 217.134, 127.063 
	L 206.575, 127.063 
	L 206.575, 131.173 
	L 217.134, 131.173 
	L 217.134, 132.520 
" />
<path d="M 217.134, 132.520 
	L 204.874, 132.520 
" />
<path d="M 217.135, 132.519 
	L 217.134, 132.520 
	L 217.134, 123.449 
	L 218.835, 123.449 
	L 218.835, 132.520 
	L 217.134, 132.520 
" />
<path d="M 218.552, 132.519 
	L 218.551, 132.520 
	L 218.551, 131.173 
	L 229.465, 131.173 
	L 229.465, 129.791 
	L 218.551, 129.791 
	L 218.551, 125.717 
	L 231.024, 125.717 
	L 231.024, 127.063 
	L 220.110, 127.063 
	L 220.110, 128.445 
" />
<path d="M 220.110, 128.445 
	L 231.024, 128.445 
	L 231.024, 132.520 
	L 218.551, 132.520 
" />
<path d="M 17.717, 143.149 
	L 17.717, 143.150 
	L 28.311, 133.618 
	L 38.870, 143.150 
	L 36.602, 143.150 
	L 28.311, 135.638 
	L 19.984, 143.150 
	L 17.717, 143.150 
" />
<path d="M 50.493, 141.802 
	L 50.492, 141.803 
	L 50.492, 137.693 
	L 40.854, 137.693 
	L 40.854, 141.803 
	L 50.492, 141.803 
	L 39.154, 143.150 
	L 39.154, 136.346 
	L 50.492, 136.346 
	L 50.492, 134.079 
	L 52.193, 134.079 
	L 52.193, 143.150 
" />
<path d="M 52.193, 143.150 
	L 39.154, 143.150 
" />
<path d="M 52.194, 143.149 
	L 52.193, 143.150 
	L 52.193, 136.346 
	L 62.965, 136.346 
	L 62.965, 143.150 
	L 61.264, 143.150 
	L 61.264, 137.693 
	L 58.429, 137.693 
	L 58.429, 143.150 
	L 56.728, 143.150 
	L 56.728, 137.693 
	L 53.894, 137.693 
" />
<path d="M 53.894, 137.693 
	L 53.894, 143.150 
	L 52.193, 143.150 
" />
<path d="M 62.965, 143.149 
	L 62.965, 143.150 
	L 62.965, 136.346 
	L 64.665, 136.346 
	L 64.665, 143.150 
	L 62.965, 143.150 
	L 62.965, 135.425 
	L 62.965, 134.079 
	L 64.665, 134.079 
	L 64.665, 135.425 
	L 62.965, 135.425 
" />
<path d="M 64.666, 143.149 
	L 64.665, 143.150 
	L 64.665, 136.346 
	L 77.705, 136.346 
	L 77.705, 143.150 
	L 76.004, 143.150 
	L 76.004, 137.693 
	L 66.366, 137.693 
	L 66.366, 143.150 
	L 64.665, 143.150 
" />
<path d="M 77.705, 143.149 
	L 77.705, 143.150 
	L 77.705, 136.346 
	L 79.406, 136.346 
	L 79.406, 143.150 
	L 77.705, 143.150 
	L 77.705, 135.425 
	L 77.705, 134.079 
	L 79.406, 134.079 
	L 79.406, 135.425 
	L 77.705, 135.425 
" />
<path d="M 79.123, 143.149 
	L 79.122, 143.150 
	L 79.122, 141.803 
	L 90.035, 141.803 
	L 90.035, 140.421 
	L 79.122, 140.421 
	L 79.122, 136.346 
	L 91.595, 136.346 
	L 91.595, 137.693 
	L 80.681, 137.693 
	L 80.681, 139.075 
	L 91.595, 139.075 
" />
<path d="M 91.595, 139.075 
	L 91.595, 143.150 
	L 79.122, 143.150 
" />
<path d="M 91.879, 143.149 
	L 91.878, 143.150 
	L 91.878, 134.079 
	L 93.579, 134.079 
	L 93.579, 136.346 
	L 104.138, 136.346 
	L 104.138, 137.693 
	L 93.579, 137.693 
	L 93.579, 141.803 
	L 104.138, 141.803 
	L 104.138, 143.150 
" />
<path d="M 104.138, 143.150 
	L 91.878, 143.150 
" />
<path d="M 104.139, 143.149 
	L 104.138, 143.150 
	L 104.138, 136.346 
	L 116.398, 136.346 
	L 116.398, 137.693 
	L 105.839, 137.693 
	L 105.839, 143.150 
	L 104.138, 143.150 
" />
<path d="M 127.737, 141.802 
	L 127.736, 141.803 
	L 127.736, 137.693 
	L 125.469, 137.693 
	L 120.933, 141.803 
	L 127.736, 141.803 
	L 117.142, 143.150 
	L 123.201, 137.693 
	L 117.142, 137.693 
	L 117.142, 136.346 
	L 129.437, 136.346 
" />
<path d="M 129.437, 136.346 
	L 129.437, 143.150 
	L 117.142, 143.150 
" />
<path d="M 128.694, 143.149 
	L 128.693, 143.150 
	L 128.693, 134.079 
	L 130.394, 134.079 
	L 130.394, 136.346 
	L 140.953, 136.346 
	L 140.953, 137.693 
	L 130.394, 137.693 
	L 130.394, 141.803 
	L 140.953, 141.803 
	L 140.953, 143.150 
" />
<path d="M 140.953, 143.150 
	L 128.693, 143.150 
" />
<path d="M 140.953, 143.149 
	L 140.953, 143.150 
	L 140.953, 136.346 
	L 142.654, 136.346 
	L 142.654, 143.150 
	L 140.953, 143.150 
	L 140.953, 135.425 
	L 140.953, 134.079 
	L 142.654, 134.079 
	L 142.654, 135.425 
	L 140.953, 135.425 
" />
<path d="M 140.953, 135.425 
" />
<path d="M 142.654, 143.149 
	L 142.654, 143.150 
	L 142.654, 136.346 
	L 144.354, 136.346 
	L 144.354, 141.803 
	L 146.622, 141.803 
	L 152.646, 136.346 
	L 154.913, 136.346 
	L 147.366, 143.150 
	L 142.654, 143.150 
" />
<path d="M 165.544, 139.074 
	L 165.543, 139.075 
	L 165.543, 137.693 
	L 156.189, 137.693 
	L 156.189, 139.075 
	L 165.543, 139.075 
	L 154.630, 143.150 
	L 154.630, 136.346 
	L 167.102, 136.346 
	L 167.102, 140.421 
	L 156.189, 140.421 
" />
<path d="M 156.189, 140.421 
	L 156.189, 141.803 
	L 167.102, 141.803 
	L 167.102, 143.150 
	L 154.630, 143.150 
" />
<path d="M 167.387, 143.149 
	L 167.386, 143.150 
	L 167.386, 134.079 
	L 169.087, 134.079 
	L 169.087, 143.150 
	L 167.386, 143.150 
" />
<path d="M 169.831, 145.417 
	L 169.831, 145.417 
	L 169.831, 144.035 
	L 180.425, 144.035 
	L 180.425, 143.150 
	L 177.378, 143.150 
	L 169.831, 136.346 
	L 172.098, 136.346 
	L 178.158, 141.803 
	L 180.425, 141.803 
	L 180.425, 136.346 
" />
<path d="M 180.425, 136.346 
	L 182.126, 136.346 
	L 182.126, 145.417 
	L 169.831, 145.417 
" />
<path d="M 18.001, 153.779 
	L 18.000, 153.780 
	L 18.000, 147.437 
	L 32.528, 147.437 
	L 35.575, 146.055 
	L 18.000, 146.055 
	L 18.000, 144.709 
	L 39.331, 144.709 
	L 33.307, 148.783 
	L 19.701, 148.783 
	L 19.701, 153.780 
	L 18.000, 153.780 
" />
<path d="M 18.000, 153.780 
" />
<path d="M 50.670, 152.432 
	L 50.669, 152.433 
	L 50.669, 148.323 
	L 41.032, 148.323 
	L 41.032, 152.433 
	L 50.669, 152.433 
	L 39.331, 153.780 
	L 39.331, 146.976 
	L 52.370, 146.976 
	L 52.370, 153.780 
	L 39.331, 153.780 
" />
<path d="M 52.087, 153.779 
	L 52.087, 153.780 
	L 52.087, 152.433 
	L 63.000, 152.433 
	L 63.000, 151.051 
	L 52.087, 151.051 
	L 52.087, 146.976 
	L 64.559, 146.976 
	L 64.559, 148.323 
	L 53.646, 148.323 
	L 53.646, 149.705 
	L 64.559, 149.705 
" />
<path d="M 64.559, 149.705 
	L 64.559, 153.780 
	L 52.087, 153.780 
" />
<path d="M 64.560, 153.779 
	L 64.559, 153.780 
	L 64.559, 152.433 
	L 75.472, 152.433 
	L 75.472, 151.051 
	L 64.559, 151.051 
	L 64.559, 146.976 
	L 77.032, 146.976 
	L 77.032, 148.323 
	L 66.118, 148.323 
	L 66.118, 149.705 
	L 77.032, 149.705 
" />
<path d="M 77.032, 149.705 
	L 77.032, 153.780 
	L 64.559, 153.780 
" />
<path d="M 77.316, 153.779 
	L 77.315, 153.780 
	L 77.315, 146.976 
	L 79.016, 146.976 
	L 79.016, 153.780 
	L 77.315, 153.780 
	L 77.315, 146.055 
	L 77.315, 144.709 
	L 79.016, 144.709 
	L 79.016, 146.055 
	L 77.315, 146.055 
" />
<path d="M 90.355, 152.432 
	L 90.354, 152.433 
	L 90.354, 148.323 
	L 80.717, 148.323 
	L 80.717, 152.433 
	L 90.354, 152.433 
	L 79.016, 153.780 
	L 79.016, 144.709 
	L 80.717, 144.709 
	L 80.717, 146.976 
	L 92.055, 146.976 
	L 92.055, 153.780 
" />
<path d="M 92.055, 153.780 
	L 79.016, 153.780 
" />
<path d="M 92.056, 153.779 
	L 92.055, 153.780 
	L 92.055, 144.709 
	L 93.756, 144.709 
	L 93.756, 153.780 
	L 92.055, 153.780 
" />
<path d="M 104.387, 149.704 
	L 104.386, 149.705 
	L 104.386, 148.323 
	L 95.032, 148.323 
	L 95.032, 149.705 
	L 104.386, 149.705 
	L 93.472, 153.780 
	L 93.472, 146.976 
	L 105.945, 146.976 
	L 105.945, 151.051 
	L 95.032, 151.051 
" />
<path d="M 95.032, 151.051 
	L 95.032, 152.433 
	L 105.945, 152.433 
	L 105.945, 153.780 
	L 93.472, 153.780 
" />
<path d="M 18.001, 171.495 
	L 18.000, 171.496 
	L 18.000, 170.150 
	L 38.409, 170.150 
	L 38.409, 166.500 
	L 18.000, 166.500 
	L 18.000, 162.425 
	L 40.110, 162.425 
	L 40.110, 163.772 
	L 19.701, 163.772 
	L 19.701, 165.154 
	L 40.110, 165.154 
" />
<path d="M 40.110, 165.154 
	L 40.110, 171.496 
	L 18.000, 171.496 
" />
<path d="M 40.111, 171.495 
	L 40.110, 171.496 
	L 40.110, 164.693 
	L 41.811, 164.693 
	L 41.811, 171.496 
	L 40.110, 171.496 
	L 40.110, 163.772 
	L 40.110, 162.425 
	L 41.811, 162.425 
	L 41.811, 163.772 
	L 40.110, 163.772 
" />
<path d="M 41.812, 171.495 
	L 41.811, 171.496 
	L 41.811, 164.693 
	L 54.850, 164.693 
	L 54.850, 171.496 
	L 53.150, 171.496 
	L 53.150, 166.039 
	L 43.512, 166.039 
	L 43.512, 171.496 
	L 41.811, 171.496 
" />
<path d="M 65.481, 167.421 
	L 65.480, 167.421 
	L 65.480, 166.039 
	L 56.126, 166.039 
	L 56.126, 167.421 
	L 65.480, 167.421 
	L 54.567, 171.496 
	L 54.567, 164.693 
	L 67.039, 164.693 
	L 67.039, 168.768 
	L 56.126, 168.768 
	L 56.126, 170.150 
" />
<path d="M 56.126, 170.150 
	L 67.039, 170.150 
	L 67.039, 171.496 
	L 54.567, 171.496 
" />
<path d="M 67.324, 171.495 
	L 67.323, 171.496 
	L 67.323, 162.425 
	L 88.654, 162.425 
	L 84.118, 166.358 
	L 83.374, 166.996 
	L 88.654, 171.496 
	L 86.386, 171.496 
	L 81.106, 166.996 
	L 84.898, 163.772 
	L 69.024, 163.772 
	L 69.024, 171.496 
" />
<path d="M 69.024, 171.496 
	L 67.323, 171.496 
" />
<path d="M 99.993, 170.149 
	L 99.992, 170.150 
	L 99.992, 166.039 
	L 97.724, 166.039 
	L 93.189, 170.150 
	L 99.992, 170.150 
	L 89.398, 171.496 
	L 95.457, 166.039 
	L 89.398, 166.039 
	L 89.398, 164.693 
	L 101.693, 164.693 
	L 101.693, 171.496 
" />
<path d="M 101.693, 171.496 
	L 89.398, 171.496 
" />
<path d="M 100.950, 171.495 
	L 100.949, 171.496 
	L 100.949, 164.693 
	L 102.650, 164.693 
	L 102.650, 170.150 
	L 104.917, 170.150 
	L 110.941, 164.693 
	L 113.209, 164.693 
	L 105.661, 171.496 
	L 100.949, 171.496 
" />
<path d="M 123.839, 167.421 
	L 123.839, 167.421 
	L 123.839, 166.039 
	L 114.484, 166.039 
	L 114.484, 167.421 
	L 123.839, 167.421 
	L 112.925, 171.496 
	L 112.925, 164.693 
	L 125.398, 164.693 
	L 125.398, 168.768 
	L 114.484, 168.768 
" />
<path d="M 114.484, 168.768 
	L 114.484, 170.150 
	L 125.398, 170.150 
	L 125.398, 171.496 
	L 112.925, 171.496 
" />
<path d="M 18.001, 189.212 
	L 18.000, 189.213 
	L 18.000, 182.870 
	L 32.528, 182.870 
	L 35.575, 181.488 
	L 18.000, 181.488 
	L 18.000, 180.142 
	L 39.331, 180.142 
	L 33.307, 184.217 
	L 19.701, 184.217 
	L 19.701, 189.213 
	L 18.000, 189.213 
" />
<path d="M 18.000, 189.213 
" />
<path d="M 50.670, 187.865 
	L 50.669, 187.866 
	L 50.669, 183.756 
	L 48.402, 183.756 
	L 43.866, 187.866 
	L 50.669, 187.866 
	L 40.075, 189.213 
	L 46.134, 183.756 
	L 40.075, 183.756 
	L 40.075, 182.409 
	L 52.370, 182.409 
	L 52.370, 189.213 
" />
<path d="M 52.370, 189.213 
	L 40.075, 189.213 
" />
<path d="M 51.627, 189.212 
	L 51.626, 189.213 
	L 51.626, 180.142 
	L 53.327, 180.142 
	L 53.327, 189.213 
	L 51.626, 189.213 
" />
<path d="M 64.666, 187.865 
	L 64.665, 187.866 
	L 64.665, 183.756 
	L 55.028, 183.756 
	L 55.028, 187.866 
	L 64.665, 187.866 
	L 53.327, 189.213 
	L 53.327, 182.409 
	L 66.366, 182.409 
	L 66.366, 189.213 
	L 53.327, 189.213 
" />
<path d="M 66.367, 189.212 
	L 66.366, 189.213 
	L 66.366, 182.409 
	L 79.406, 182.409 
	L 79.406, 189.213 
	L 77.705, 189.213 
	L 77.705, 183.756 
	L 68.067, 183.756 
	L 68.067, 189.213 
	L 66.366, 189.213 
" />
<path d="M 90.745, 187.865 
	L 90.744, 187.866 
	L 90.744, 183.756 
	L 81.106, 183.756 
	L 81.106, 187.866 
	L 90.744, 187.866 
	L 79.406, 189.213 
	L 79.406, 182.409 
	L 92.445, 182.409 
	L 92.445, 189.213 
	L 79.406, 189.213 
" />
<path d="M 103.784, 187.865 
	L 103.783, 187.866 
	L 103.783, 183.756 
	L 94.146, 183.756 
	L 94.146, 187.866 
	L 103.783, 187.866 
	L 92.445, 191.480 
	L 92.445, 182.409 
	L 105.484, 182.409 
	L 105.484, 189.213 
	L 94.146, 189.213 
" />
<path d="M 94.146, 189.213 
	L 94.146, 191.480 
	L 92.445, 191.480 
" />
<path d="M 105.202, 189.212 
	L 105.201, 189.213 
	L 105.201, 187.866 
	L 116.114, 187.866 
	L 116.114, 186.484 
	L 105.201, 186.484 
	L 105.201, 182.409 
	L 117.673, 182.409 
	L 117.673, 183.756 
	L 106.760, 183.756 
	L 106.760, 185.138 
" />
<path d="M 106.760, 185.138 
	L 117.673, 185.138 
	L 117.673, 189.213 
	L 105.201, 189.213 
" />
<path d="M 117.957, 189.212 
	L 117.957, 189.213 
	L 117.957, 182.409 
	L 119.657, 182.409 
	L 119.657, 189.213 
	L 117.957, 189.213 
	L 117.957, 181.488 
	L 117.957, 180.142 
	L 119.657, 180.142 
	L 119.657, 181.488 
	L 117.957, 181.488 
" />
<path d="M 117.957, 181.488 
" />
<path d="M 130.997, 187.865 
	L 130.996, 187.866 
	L 130.996, 183.756 
	L 128.728, 183.756 
	L 124.193, 187.866 
	L 130.996, 187.866 
	L 120.402, 189.213 
	L 126.461, 183.756 
	L 120.402, 183.756 
	L 120.402, 182.409 
	L 132.697, 182.409 
" />
<path d="M 132.697, 182.409 
	L 132.697, 189.213 
	L 120.402, 189.213 
" />
<path d="M 18.001, 206.928 
	L 18.000, 206.929 
	L 18.000, 197.398 
	L 29.055, 202.146 
	L 40.110, 197.398 
	L 40.110, 206.929 
	L 38.409, 206.929 
	L 38.409, 199.417 
	L 29.055, 203.528 
	L 19.701, 199.417 
	L 19.701, 206.929 
	L 18.000, 206.929 
" />
<path d="M 18.000, 206.929 
" />
<path d="M 51.450, 205.582 
	L 51.449, 205.583 
	L 51.449, 201.472 
	L 41.811, 201.472 
	L 41.811, 205.583 
	L 51.449, 205.583 
	L 40.110, 206.929 
	L 40.110, 200.126 
	L 53.150, 200.126 
	L 53.150, 206.929 
	L 40.110, 206.929 
" />
<path d="M 53.150, 206.928 
	L 53.150, 206.929 
	L 53.150, 200.126 
	L 54.850, 200.126 
	L 54.850, 205.583 
	L 64.488, 205.583 
	L 64.488, 200.126 
	L 66.189, 200.126 
	L 66.189, 206.929 
	L 53.150, 206.929 
" />
<path d="M 66.190, 206.928 
	L 66.189, 206.929 
	L 66.189, 200.126 
	L 79.228, 200.126 
	L 79.228, 206.929 
	L 77.528, 206.929 
	L 77.528, 201.472 
	L 67.890, 201.472 
	L 67.890, 206.929 
	L 66.189, 206.929 
" />
<path d="M 79.229, 206.928 
	L 79.228, 206.929 
	L 79.228, 197.858 
	L 80.929, 197.858 
	L 80.929, 200.126 
	L 91.488, 200.126 
	L 91.488, 201.472 
	L 80.929, 201.472 
	L 80.929, 205.583 
	L 91.488, 205.583 
	L 91.488, 206.929 
	L 79.228, 206.929 
" />
<path d="M 79.228, 206.929 
" />
<path d="M 102.827, 205.582 
	L 102.827, 205.583 
	L 102.827, 201.472 
	L 100.559, 201.472 
	L 96.024, 205.583 
	L 102.827, 205.583 
	L 92.232, 206.929 
	L 98.291, 201.472 
	L 92.232, 201.472 
	L 92.232, 200.126 
	L 104.528, 200.126 
" />
<path d="M 104.528, 200.126 
	L 104.528, 206.929 
	L 92.232, 206.929 
" />
<path d="M 103.784, 206.928 
	L 103.783, 206.929 
	L 103.783, 200.126 
	L 105.484, 200.126 
	L 105.484, 206.929 
	L 103.783, 206.929 
	L 103.783, 199.205 
	L 103.783, 197.858 
	L 105.484, 197.858 
	L 105.484, 199.205 
	L 103.783, 199.205 
" />
<path d="M 103.783, 199.205 
" />
<path d="M 105.485, 206.928 
	L 105.484, 206.929 
	L 105.484, 200.126 
	L 118.524, 200.126 
	L 118.524, 206.929 
	L 116.823, 206.929 
	L 116.823, 201.472 
	L 107.185, 201.472 
	L 107.185, 206.929 
	L 105.484, 206.929 
" />
<path d="M 136.843, 205.582 
	L 136.843, 205.583 
	L 129.295, 199.205 
	L 120.224, 199.205 
	L 120.224, 205.583 
	L 136.843, 205.583 
	L 118.524, 206.929 
	L 118.524, 197.858 
	L 130.039, 197.858 
	L 140.634, 206.929 
	L 118.524, 206.929 
" />
<path d="M 118.524, 206.929 
" />
<path d="M 140.635, 206.928 
	L 140.634, 206.929 
	L 140.634, 200.126 
	L 152.894, 200.126 
	L 152.894, 201.472 
	L 142.335, 201.472 
	L 142.335, 206.929 
	L 140.634, 206.929 
" />
<path d="M 164.233, 205.582 
	L 164.232, 205.583 
	L 164.232, 201.472 
	L 154.595, 201.472 
	L 154.595, 205.583 
	L 164.232, 205.583 
	L 152.894, 206.929 
	L 152.894, 200.126 
	L 165.933, 200.126 
	L 165.933, 206.929 
	L 152.894, 206.929 
" />
<path d="M 152.894, 206.929 
" />
<path d="M 165.934, 206.928 
	L 165.933, 206.929 
	L 165.933, 200.126 
	L 178.972, 200.126 
	L 178.972, 206.929 
	L 177.272, 206.929 
	L 177.272, 201.472 
	L 167.634, 201.472 
	L 167.634, 206.929 
	L 165.933, 206.929 
" />
<path d="M 189.603, 202.854 
	L 189.602, 202.854 
	L 189.602, 201.472 
	L 180.248, 201.472 
	L 180.248, 202.854 
	L 189.602, 202.854 
	L 178.689, 206.929 
	L 178.689, 200.126 
	L 191.161, 200.126 
	L 191.161, 204.201 
	L 180.248, 204.201 
" />
<path d="M 180.248, 204.201 
	L 180.248, 205.583 
	L 191.161, 205.583 
	L 191.161, 206.929 
	L 178.689, 206.929 
" />
<path d="M 13.961, 49.676 
	L 13.961, 49.677 
	L 13.961, 51.343 
	L 13.961, 63.532 
	L 13.961, 65.197 
	L 12.295, 65.197 
	L 10.630, 65.197 
	L 10.630, 63.425 
	L 10.630, 51.343 
	L 10.630, 49.677 
	L 13.961, 49.677 
	L 21.969, 49.677 
" />
<path d="M 21.969, 49.677 
	L 22.535, 49.429 
	L 23.031, 49.429 
	L 23.492, 49.429 
	L 23.917, 49.677 
	L 24.413, 50.032 
	L 24.413, 50.740 
	L 24.413, 51.236 
	L 24.201, 51.909 
	L 19.240, 57.402 
	L 24.201, 62.965 
	L 24.378, 63.354 
" />
<path d="M 24.378, 63.354 
	L 24.378, 63.673 
	L 24.378, 64.382 
	L 23.634, 64.913 
	L 23.280, 65.197 
	L 22.783, 65.197 
	L 21.791, 65.197 
	L 20.303, 64.098 
	L 15.874, 59.102 
	L 14.244, 57.437 
	L 15.874, 55.772 
	L 21.969, 49.677 
" />
<path d="M 21.969, 49.677 
" />
<path d="M 31.855, 61.865 
	L 31.854, 61.866 
	L 36.071, 61.866 
	L 36.035, 55.453 
	L 26.362, 64.524 
	L 25.724, 65.055 
	L 25.157, 65.055 
	L 24.520, 65.055 
	L 23.988, 64.346 
	L 23.528, 63.780 
	L 23.528, 63.213 
	L 23.528, 62.504 
" />
<path d="M 23.528, 62.504 
	L 24.272, 61.902 
	L 36.283, 50.457 
	L 37.169, 49.571 
	L 37.878, 49.571 
	L 38.374, 49.571 
	L 38.551, 49.606 
	L 39.366, 49.890 
	L 39.366, 51.626 
	L 39.366, 62.858 
	L 39.366, 65.268 
	L 36.602, 65.197 
" />
<path d="M 36.602, 65.197 
	L 31.854, 65.197 
	L 29.941, 65.268 
	L 29.941, 63.549 
	L 29.941, 61.831 
	L 31.854, 61.866 
" />
<path d="M 54.674, 61.936 
	L 54.673, 61.937 
	L 54.673, 62.965 
	L 53.575, 64.081 
	L 52.476, 65.197 
	L 51.378, 65.197 
	L 43.618, 65.197 
	L 42.520, 65.197 
	L 41.404, 64.081 
	L 40.287, 62.965 
	L 40.287, 61.866 
	L 40.323, 53.079 
" />
<path d="M 40.323, 53.079 
	L 40.287, 51.909 
	L 41.404, 50.793 
	L 42.520, 49.677 
	L 43.618, 49.677 
	L 51.378, 49.677 
	L 52.476, 49.677 
	L 53.575, 50.793 
	L 54.673, 51.909 
	L 54.673, 53.008 
	L 54.673, 61.937 
	L 51.378, 60.201 
" />
<path d="M 51.378, 60.201 
	L 51.378, 54.673 
	L 51.378, 53.008 
	L 49.713, 53.008 
	L 45.283, 53.008 
	L 43.618, 53.008 
	L 43.618, 54.709 
	L 43.618, 60.201 
	L 43.583, 61.902 
	L 45.283, 61.866 
	L 49.713, 61.866 
	L 51.378, 61.866 
" />
<path d="M 51.378, 61.866 
	L 51.378, 60.201 
" />
<path d="M 66.509, 49.676 
	L 66.508, 49.677 
	L 68.173, 49.677 
	L 68.173, 51.272 
	L 68.173, 52.937 
	L 66.508, 53.008 
	L 55.417, 53.008 
	L 53.752, 52.937 
	L 53.752, 51.343 
	L 53.752, 49.642 
	L 55.417, 49.677 
	L 66.508, 49.677 
" />
<path d="M 66.508, 49.677 
	L 59.280, 56.339 
	L 59.244, 54.142 
	L 61.087, 54.124 
	L 62.929, 54.106 
	L 62.929, 56.339 
	L 62.929, 62.965 
	L 62.823, 65.197 
	L 61.122, 65.197 
	L 61.087, 65.197 
	L 59.244, 65.161 
	L 59.280, 62.965 
" />
<path d="M 59.280, 62.965 
	L 59.280, 56.339 
" />
<path d="M 70.725, 49.676 
	L 70.724, 49.677 
	L 80.681, 49.677 
	L 82.346, 49.677 
	L 82.346, 51.343 
	L 82.346, 53.008 
	L 80.681, 53.008 
	L 73.488, 53.008 
	L 72.390, 53.008 
	L 72.390, 54.106 
	L 72.390, 60.768 
	L 72.390, 61.866 
" />
<path d="M 72.390, 61.866 
	L 73.488, 61.866 
	L 80.681, 61.866 
	L 82.346, 61.866 
	L 82.346, 63.532 
	L 82.346, 65.197 
	L 80.681, 65.197 
	L 70.724, 65.197 
	L 69.059, 65.197 
	L 69.059, 63.532 
	L 69.059, 51.449 
	L 69.059, 49.677 
" />
<path d="M 69.059, 49.677 
	L 70.724, 49.677 
	L 75.720, 55.772 
	L 78.484, 55.772 
	L 80.681, 55.772 
	L 80.681, 57.437 
	L 80.681, 59.102 
	L 78.484, 59.102 
	L 75.720, 59.102 
	L 73.488, 59.102 
	L 73.488, 57.437 
	L 73.488, 55.772 
" />
<path d="M 73.488, 55.772 
	L 75.720, 55.772 
" />
<path d="M 95.564, 65.196 
	L 95.563, 65.197 
	L 87.343, 65.197 
	L 85.287, 65.197 
	L 83.799, 63.744 
	L 82.346, 62.327 
	L 82.346, 60.307 
	L 82.346, 54.425 
	L 82.346, 52.406 
	L 83.799, 50.953 
	L 85.110, 49.677 
	L 87.059, 49.677 
" />
<path d="M 87.059, 49.677 
	L 87.272, 49.677 
	L 87.520, 49.677 
	L 94.394, 49.677 
	L 96.130, 49.677 
	L 96.130, 51.413 
	L 96.130, 53.150 
	L 94.394, 53.150 
	L 88.016, 53.150 
	L 85.783, 53.150 
	L 85.783, 55.276 
	L 85.783, 59.846 
" />
<path d="M 85.783, 59.846 
	L 85.783, 61.760 
	L 88.157, 61.760 
	L 95.563, 61.760 
	L 97.299, 61.760 
	L 97.299, 63.461 
	L 97.264, 65.197 
	L 95.563, 65.197 
" />
<path d="M 107.257, 59.102 
	L 107.256, 59.102 
	L 100.630, 59.102 
	L 98.965, 59.102 
	L 98.965, 57.437 
	L 98.965, 55.772 
	L 100.630, 55.772 
	L 107.256, 55.772 
	L 108.921, 55.772 
	L 108.921, 57.437 
	L 108.921, 59.102 
	L 107.256, 59.102 
" />
<path d="M 107.256, 59.102 
" />
<path d="M 114.698, 61.865 
	L 114.697, 61.866 
	L 118.913, 61.866 
	L 118.878, 55.453 
	L 109.205, 64.524 
	L 108.567, 65.055 
	L 108.000, 65.055 
	L 107.362, 65.055 
	L 106.831, 64.346 
	L 106.370, 63.780 
	L 106.370, 63.213 
	L 106.370, 62.504 
" />
<path d="M 106.370, 62.504 
	L 107.114, 61.902 
	L 119.126, 50.457 
	L 120.012, 49.571 
	L 120.720, 49.571 
	L 121.217, 49.571 
	L 121.394, 49.606 
	L 122.209, 49.890 
	L 122.209, 51.626 
	L 122.209, 62.858 
	L 122.209, 65.268 
	L 119.445, 65.197 
" />
<path d="M 119.445, 65.197 
	L 114.697, 65.197 
	L 112.783, 65.268 
	L 112.783, 63.549 
	L 112.783, 61.831 
	L 114.697, 61.866 
" />
<path d="M 123.095, 49.676 
	L 123.095, 49.677 
	L 124.760, 49.677 
	L 126.425, 49.677 
	L 126.425, 51.909 
	L 126.425, 60.768 
	L 126.425, 61.866 
	L 127.524, 61.866 
	L 133.122, 61.866 
	L 135.390, 61.866 
	L 135.425, 63.496 
	L 135.425, 65.126 
" />
<path d="M 135.425, 65.126 
	L 133.122, 65.197 
	L 125.681, 65.197 
	L 123.095, 65.197 
	L 123.095, 62.469 
	L 123.095, 51.874 
	L 123.095, 49.677 
" />
<path d="M 149.493, 60.590 
	L 149.492, 60.591 
	L 149.492, 62.965 
	L 148.553, 64.081 
	L 147.614, 65.197 
	L 144.957, 65.161 
	L 137.161, 65.197 
	L 135.425, 65.197 
	L 135.425, 63.461 
	L 135.425, 56.339 
	L 135.461, 54.106 
	L 137.108, 54.106 
" />
<path d="M 137.108, 54.106 
	L 138.756, 54.106 
	L 138.720, 56.339 
	L 138.720, 61.972 
	L 144.283, 61.972 
	L 146.020, 61.972 
	L 146.020, 60.520 
	L 146.020, 59.067 
	L 144.248, 59.067 
	L 142.087, 59.102 
	L 139.783, 59.102 
	L 139.819, 57.437 
" />
<path d="M 139.819, 57.437 
	L 139.854, 55.772 
	L 142.087, 55.772 
	L 144.283, 55.772 
	L 146.020, 55.807 
	L 146.037, 54.407 
	L 146.055, 53.008 
	L 144.390, 53.008 
	L 137.091, 53.008 
	L 135.425, 53.008 
	L 135.425, 51.413 
	L 135.425, 49.677 
" />
<path d="M 135.425, 49.677 
	L 137.161, 49.677 
	L 144.850, 49.677 
	L 147.047, 49.677 
	L 148.163, 50.793 
	L 149.280, 51.909 
	L 149.386, 54.106 
	L 149.386, 56.445 
	L 147.969, 57.295 
	L 149.492, 58.287 
	L 149.492, 60.591 
" />
<path d="M 149.528, 49.712 
	L 149.528, 49.713 
	L 151.158, 49.713 
	L 151.193, 49.713 
	L 152.858, 49.713 
	L 152.787, 51.945 
	L 152.787, 60.236 
	L 152.787, 61.866 
	L 154.453, 61.902 
	L 158.846, 61.866 
	L 160.583, 61.902 
	L 160.583, 60.165 
" />
<path d="M 160.583, 60.165 
	L 160.583, 51.909 
	L 160.618, 49.677 
	L 162.283, 49.677 
	L 163.913, 49.677 
	L 163.913, 51.803 
	L 163.913, 61.866 
	L 163.913, 62.929 
	L 163.063, 64.045 
	L 162.213, 65.161 
	L 161.079, 65.161 
	L 152.256, 65.161 
" />
<path d="M 152.256, 65.161 
	L 151.122, 65.161 
	L 150.325, 64.063 
	L 149.528, 62.965 
	L 149.528, 61.866 
	L 149.492, 51.909 
	L 149.528, 49.713 
" />
<path d="M 175.359, 50.421 
	L 175.358, 50.421 
	L 176.244, 49.677 
	L 176.988, 49.677 
	L 177.272, 49.677 
	L 177.520, 49.783 
	L 178.476, 50.138 
	L 178.476, 51.768 
	L 178.476, 63.283 
	L 178.441, 65.268 
	L 176.811, 65.268 
	L 176.776, 65.268 
" />
<path d="M 176.776, 65.268 
	L 175.146, 65.268 
	L 175.110, 63.248 
	L 175.110, 56.409 
	L 175.075, 55.417 
	L 174.508, 55.949 
	L 166.039, 64.453 
	L 165.154, 65.268 
	L 164.409, 65.268 
	L 163.878, 65.268 
	L 163.382, 64.772 
	L 162.886, 64.311 
" />
<path d="M 162.886, 64.311 
	L 162.886, 63.744 
	L 162.886, 62.965 
	L 163.736, 62.079 
	L 175.358, 50.421 
	L 188.717, 50.102 
	L 188.717, 51.768 
	L 188.717, 63.035 
	L 188.717, 65.268 
	L 187.051, 65.268 
	L 185.386, 65.268 
	L 185.386, 63.035 
" />
<path d="M 185.386, 63.035 
	L 185.386, 56.409 
	L 185.386, 55.701 
	L 184.748, 56.232 
	L 182.587, 58.429 
	L 180.957, 59.563 
	L 180.071, 58.358 
	L 179.185, 57.154 
	L 180.461, 55.736 
	L 185.669, 50.457 
	L 186.413, 49.677 
	L 187.193, 49.677 
" />
<path d="M 187.193, 49.677 
	L 187.441, 49.677 
	L 187.689, 49.748 
	L 188.717, 50.102 
" />
<path d="M 204.166, 61.936 
	L 204.165, 61.937 
	L 204.165, 62.965 
	L 203.067, 64.081 
	L 201.969, 65.197 
	L 200.870, 65.197 
	L 193.110, 65.197 
	L 192.012, 65.197 
	L 190.896, 64.081 
	L 189.780, 62.965 
	L 189.780, 61.866 
	L 189.815, 53.079 
" />
<path d="M 189.815, 53.079 
	L 189.780, 51.909 
	L 190.896, 50.793 
	L 192.012, 49.677 
	L 193.110, 49.677 
	L 200.870, 49.677 
	L 201.969, 49.677 
	L 203.067, 50.793 
	L 204.165, 51.909 
	L 204.165, 53.008 
	L 204.165, 61.937 
	L 200.870, 60.201 
" />
<path d="M 200.870, 60.201 
	L 200.870, 54.673 
	L 200.870, 53.008 
	L 199.205, 53.008 
	L 194.776, 53.008 
	L 193.110, 53.008 
	L 193.110, 54.709 
	L 193.110, 60.201 
	L 193.075, 61.902 
	L 194.776, 61.866 
	L 199.205, 61.866 
	L 200.870, 61.866 
" />
<path d="M 200.870, 61.866 
	L 200.870, 60.201 
" />
<path d="M 218.552, 61.936 
	L 218.551, 61.937 
	L 218.551, 62.965 
	L 217.453, 64.081 
	L 216.354, 65.197 
	L 215.256, 65.197 
	L 207.496, 65.197 
	L 206.398, 65.197 
	L 205.282, 64.081 
	L 204.165, 62.965 
	L 204.165, 61.866 
	L 204.201, 53.079 
" />
<path d="M 204.201, 53.079 
	L 204.165, 51.909 
	L 205.282, 50.793 
	L 206.398, 49.677 
	L 207.496, 49.677 
	L 215.256, 49.677 
	L 216.354, 49.677 
	L 217.453, 50.793 
	L 218.551, 51.909 
	L 218.551, 53.008 
	L 218.551, 61.937 
	L 215.256, 60.201 
" />
<path d="M 215.256, 60.201 
	L 215.256, 54.673 
	L 215.256, 53.008 
	L 213.591, 53.008 
	L 209.161, 53.008 
	L 207.496, 53.008 
	L 207.496, 54.709 
	L 207.496, 60.201 
	L 207.461, 61.902 
	L 209.161, 61.866 
	L 213.591, 61.866 
	L 215.256, 61.866 
" />
<path d="M 215.256, 61.866 
	L 215.256, 60.201 
" />
<path d="M 225.780, 62.964 
	L 225.780, 62.965 
	L 225.780, 65.197 
	L 224.150, 65.197 
	L 222.484, 65.197 
	L 222.413, 62.965 
	L 222.413, 51.909 
	L 222.484, 49.677 
	L 224.150, 49.677 
	L 225.780, 49.677 
	L 225.780, 51.909 
	L 225.780, 62.965 
" />
<path d="M 225.780, 62.965 
" />
<path d="M 503.150, 493.228 
	L 503.150, 496.417 
	L 502.441, 497.480 
	L 501.024, 497.480 
	L 500.315, 496.417 
	L 500.315, 494.291 
	L 503.150, 494.291 
" />
<path d="M 498.898, 490.039 
	L 498.898, 488.976 
	L 503.150, 488.976 
" />
<path d="M 503.150, 490.039 
	L 503.150, 487.913 
" />
<path d="M 503.150, 484.724 
	L 503.150, 481.536 
	L 502.441, 480.473 
	L 501.024, 480.473 
	L 500.315, 481.536 
	L 500.315, 483.661 
" />
<path d="M 498.898, 483.661 
	L 503.150, 483.661 
" />
<path d="M 500.315, 478.347 
	L 502.441, 478.347 
	L 503.150, 477.284 
	L 503.150, 475.158 
	L 500.315, 475.158 
" />
<path d="M 503.150, 471.969 
	L 500.315, 471.969 
" />
<path d="M 501.024, 471.969 
	L 500.315, 470.906 
	L 501.024, 469.843 
	L 503.150, 469.843 
" />
<path d="M 501.024, 469.843 
	L 500.315, 468.780 
	L 501.024, 467.717 
	L 503.150, 467.717 
" />
<path d="M 502.441, 465.591 
	L 503.150, 464.528 
	L 503.150, 462.402 
	L 502.441, 461.339 
	L 499.606, 461.339 
	L 498.898, 462.402 
	L 498.898, 464.528 
	L 499.606, 465.591 
	L 502.441, 465.591 
" />
<path d="M 502.441, 459.213 
	L 503.150, 458.150 
	L 503.150, 456.024 
	L 502.441, 454.961 
	L 499.606, 454.961 
	L 498.898, 456.024 
	L 498.898, 458.150 
	L 499.606, 459.213 
	L 502.441, 459.213 
" />
<path d="M 503.150, 451.772 
	L 503.150, 449.646 
" />
<path d="M 503.150, 450.709 
	L 498.898, 450.709 
	L 499.606, 451.772 
" />
<path d="M 502.441, 442.205 
	L 503.150, 443.268 
	L 503.150, 444.331 
	L 502.441, 445.394 
	L 501.024, 445.394 
	L 500.315, 444.331 
	L 500.315, 443.268 
	L 501.024, 442.205 
" />
<path d="M 503.150, 439.016 
	L 502.441, 440.079 
	L 501.024, 440.079 
	L 500.315, 439.016 
	L 500.315, 437.953 
	L 501.024, 436.890 
	L 502.441, 436.890 
	L 503.150, 437.953 
	L 503.150, 439.016 
" />
<path d="M 500.315, 433.701 
	L 501.732, 433.701 
	L 503.150, 431.575 
	L 501.732, 429.449 
	L 500.315, 429.449 
" />
<path d="M 501.732, 427.323 
	L 501.732, 424.134 
	L 501.024, 423.071 
	L 500.315, 424.134 
	L 500.315, 426.260 
	L 501.024, 427.323 
	L 502.441, 427.323 
	L 503.150, 426.260 
	L 503.150, 423.071 
" />
<path d="M 500.315, 420.945 
	L 503.150, 420.945 
" />
<path d="M 501.732, 420.945 
	L 500.315, 418.819 
	L 500.315, 417.756 
" />
<path d="M 498.898, 407.126 
	L 503.150, 407.126 
	L 503.150, 405.000 
" />
<path d="M 500.315, 408.189 
	L 500.315, 405.000 
" />
<path d="M 501.732, 401.811 
	L 501.732, 398.622 
	L 501.024, 397.559 
	L 500.315, 398.622 
	L 500.315, 400.748 
	L 501.024, 401.811 
	L 502.441, 401.811 
	L 503.150, 400.748 
	L 503.150, 397.559 
" />
<path d="M 500.315, 392.244 
	L 500.315, 394.370 
	L 501.024, 395.433 
	L 501.732, 394.370 
	L 501.732, 393.307 
	L 502.441, 392.244 
	L 503.150, 393.307 
	L 503.150, 395.433 
" />
<path d="M 498.898, 387.992 
	L 503.150, 387.992 
	L 503.150, 385.866 
" />
<path d="M 500.315, 389.055 
	L 500.315, 385.866 
" />
<path d="M 499.606, 357.165 
	L 498.898, 356.102 
	L 498.898, 353.976 
	L 499.606, 352.913 
	L 500.315, 352.913 
	L 502.441, 357.165 
	L 503.150, 357.165 
	L 503.150, 352.913 
" />
<path d="M 502.441, 350.787 
	L 503.150, 349.724 
	L 503.150, 347.598 
	L 502.441, 346.535 
	L 499.606, 346.535 
	L 498.898, 347.598 
	L 498.898, 349.724 
	L 499.606, 350.787 
	L 502.441, 350.787 
" />
<path d="M 503.150, 343.347 
	L 503.150, 341.221 
" />
<path d="M 503.150, 342.284 
	L 498.898, 342.284 
	L 499.606, 343.347 
" />
<path d="M 503.150, 336.969 
	L 503.150, 335.906 
	L 501.732, 333.780 
	L 499.606, 333.780 
	L 498.898, 334.843 
	L 498.898, 336.969 
	L 499.606, 338.032 
	L 500.315, 338.032 
	L 501.024, 336.969 
	L 501.024, 333.780 
" />
<path d="M 501.024, 331.654 
	L 501.024, 327.402 
" />
<path d="M 503.150, 324.213 
	L 503.150, 322.087 
" />
<path d="M 503.150, 323.150 
	L 498.898, 323.150 
	L 499.606, 324.213 
" />
<path d="M 503.150, 317.835 
	L 503.150, 315.709 
" />
<path d="M 503.150, 316.772 
	L 498.898, 316.772 
	L 499.606, 317.835 
" />
<path d="M 501.024, 312.520 
	L 501.024, 308.268 
" />
<path d="M 499.606, 306.142 
	L 498.898, 305.079 
	L 498.898, 302.953 
	L 499.606, 301.890 
	L 500.315, 301.890 
	L 502.441, 306.142 
	L 503.150, 306.142 
	L 503.150, 301.890 
" />
<path d="M 498.898, 296.575 
	L 501.024, 299.764 
	L 501.732, 299.764 
	L 501.732, 295.512 
" />
<path d="M 501.024, 296.575 
	L 503.150, 296.575 
" />
<path d="M 503.150, 285.945 
	L 503.150, 283.819 
" />
<path d="M 503.150, 284.882 
	L 498.898, 284.882 
	L 499.606, 285.945 
" />
<path d="M 498.898, 276.378 
	L 498.898, 278.504 
	L 500.315, 280.630 
	L 502.441, 280.630 
	L 503.150, 279.567 
	L 503.150, 277.441 
	L 502.441, 276.378 
	L 501.732, 276.378 
	L 501.024, 277.441 
	L 501.024, 280.630 
" />
<path d="M 501.024, 273.189 
	L 500.315, 273.189 
	L 500.315, 272.126 
	L 501.024, 272.126 
	L 501.024, 273.189 
" />
<path d="M 502.441, 273.189 
	L 502.441, 272.126 
	L 503.150, 272.126 
	L 503.150, 273.189 
	L 502.441, 273.189 
" />
<path d="M 498.898, 264.685 
	L 501.024, 267.874 
	L 501.732, 267.874 
	L 501.732, 263.622 
" />
<path d="M 501.024, 264.685 
	L 503.150, 264.685 
" />
<path d="M 498.898, 258.307 
	L 501.024, 261.496 
	L 501.732, 261.496 
	L 501.732, 257.244 
" />
<path d="M 501.024, 258.307 
	L 503.150, 258.307 
" />
</g>
</svg>
