<?xml version="1.0" encoding="UTF-8" standalone="no" ?>
<svg width="100%" height="100%" viewBox="0 0 644.882 646.299" xmlns="http://www.w3.org/2000/svg"><g>
</g><g style="stroke:rgb(0,0,0); fill:none; stroke-width:1.000mm" >
</g><g style="stroke:rgb(0,0,0); fill:none; stroke-width:0.100mm" >
<path d="M 0.001, 646.299 
	L 0.000, 646.299 
	L 0.000, 8.504 
	L 637.795, 8.504 
	L 637.795, 646.299 
	L 0.000, 646.299 
" />
<path d="M 0.001, 575.776 
	L 0.000, 575.777 
	L 141.732, 575.787 
	L 283.465, 575.433 
	L 425.197, 575.129 
	L 566.929, 575.255 
" />
<path d="M 0.001, 579.611 
	L 0.000, 579.611 
	L 70.866, 579.631 
	L 141.732, 578.976 
	L 212.598, 578.415 
	L 283.465, 578.648 
	L 354.331, 579.052 
	L 425.197, 578.541 
	L 496.063, 579.295 
	L 566.929, 580.350 
" />
<path d="M 0.001, 582.513 
	L 0.000, 582.513 
	L 47.197, 582.518 
	L 94.394, 582.343 
	L 141.591, 582.192 
	L 188.787, 582.254 
	L 235.984, 582.363 
	L 283.181, 582.226 
	L 330.378, 582.428 
	L 377.575, 582.712 
	L 424.772, 582.487 
" />
<path d="M 424.772, 582.487 
	L 471.969, 582.618 
	L 519.165, 582.536 
	L 566.362, 582.748 
	L 613.559, 582.897 
" />
<path d="M 0.001, 586.368 
	L 0.000, 586.369 
	L 35.433, 586.394 
	L 70.866, 585.541 
	L 106.299, 584.809 
	L 141.732, 585.111 
	L 177.165, 585.639 
	L 212.598, 584.972 
	L 248.032, 585.957 
	L 283.465, 587.332 
	L 318.898, 586.244 
" />
<path d="M 318.898, 586.244 
	L 354.331, 586.879 
	L 389.764, 586.480 
	L 425.197, 587.509 
	L 460.630, 588.234 
	L 496.063, 587.217 
	L 531.496, 586.033 
	L 566.929, 586.067 
	L 602.362, 586.875 
" />
<path d="M 0.001, 589.188 
	L 0.000, 589.188 
	L 28.346, 589.207 
	L 56.693, 588.578 
	L 85.039, 588.040 
	L 113.386, 588.263 
	L 141.732, 588.651 
	L 170.079, 588.160 
	L 198.425, 588.885 
	L 226.772, 589.898 
	L 255.118, 589.096 
" />
<path d="M 255.118, 589.096 
	L 283.465, 589.564 
	L 311.811, 589.270 
	L 340.158, 590.028 
	L 368.504, 590.562 
	L 396.850, 589.813 
	L 425.197, 588.941 
	L 453.543, 588.966 
	L 481.890, 589.561 
	L 510.236, 589.669 
	L 538.583, 590.342 
" />
<path d="M 538.583, 590.342 
	L 566.929, 590.397 
	L 595.276, 590.117 
	L 623.622, 590.980 
" />
<path d="M 0.001, 591.464 
	L 0.000, 591.464 
	L 23.598, 591.464 
	L 47.197, 591.464 
	L 70.795, 591.464 
	L 94.394, 591.464 
	L 117.992, 591.464 
	L 141.591, 591.464 
	L 165.189, 591.464 
	L 188.787, 591.464 
	L 212.386, 591.464 
	L 235.984, 591.464 
" />
<path d="M 235.984, 591.464 
	L 259.583, 591.464 
	L 283.181, 591.464 
	L 306.780, 591.464 
	L 330.378, 591.464 
	L 353.976, 591.464 
	L 377.575, 591.464 
	L 401.173, 591.464 
	L 424.772, 591.464 
	L 448.370, 591.464 
	L 471.969, 591.464 
" />
<path d="M 471.969, 591.464 
	L 495.567, 591.464 
	L 519.165, 591.464 
	L 542.764, 591.464 
	L 566.362, 591.464 
	L 589.961, 591.464 
	L 613.559, 591.464 
	L 637.158, 591.464 
" />
<path d="M 0.001, 593.651 
	L 0.000, 593.652 
	L 20.197, 593.636 
	L 40.394, 594.206 
	L 60.591, 594.695 
	L 80.787, 594.493 
	L 100.984, 594.140 
	L 121.181, 594.586 
	L 141.378, 593.928 
	L 161.575, 593.009 
	L 181.772, 593.736 
	L 201.969, 593.311 
" />
<path d="M 201.969, 593.311 
	L 222.165, 593.578 
	L 242.362, 592.890 
	L 262.559, 592.405 
	L 282.756, 593.085 
	L 302.953, 593.877 
	L 323.150, 593.855 
	L 343.347, 593.314 
	L 363.543, 593.216 
	L 383.740, 592.605 
	L 403.937, 592.555 
" />
<path d="M 403.937, 592.555 
	L 424.134, 592.810 
	L 444.331, 592.025 
	L 464.528, 590.964 
	L 484.724, 590.830 
	L 504.921, 590.569 
	L 525.118, 591.326 
	L 545.315, 591.226 
	L 565.512, 591.620 
	L 585.709, 592.651 
	L 605.906, 594.126 
" />
<path d="M 605.906, 594.126 
	L 626.102, 593.949 
" />
<path d="M 0.001, 596.531 
	L 0.000, 596.532 
	L 17.717, 596.524 
	L 35.433, 596.811 
	L 53.150, 597.057 
	L 70.866, 596.955 
	L 88.583, 596.777 
	L 106.299, 597.002 
	L 124.016, 596.671 
	L 141.732, 596.208 
	L 159.449, 596.575 
	L 177.165, 596.361 
" />
<path d="M 177.165, 596.361 
	L 194.882, 596.495 
	L 212.598, 596.149 
	L 230.315, 595.905 
	L 248.032, 596.247 
	L 265.748, 596.646 
	L 283.465, 596.634 
	L 301.181, 596.362 
	L 318.898, 596.312 
	L 336.614, 596.006 
	L 354.331, 595.981 
" />
<path d="M 354.331, 595.981 
	L 372.047, 596.108 
	L 389.764, 595.714 
	L 407.480, 595.180 
	L 425.197, 595.113 
	L 442.913, 594.982 
	L 460.630, 595.363 
	L 478.347, 595.312 
	L 496.063, 595.510 
	L 513.780, 596.029 
	L 531.496, 596.770 
" />
<path d="M 531.496, 596.770 
	L 549.213, 596.682 
	L 566.929, 596.149 
	L 584.646, 595.624 
	L 602.362, 595.606 
	L 620.079, 596.130 
" />
<path d="M 0.001, 599.908 
	L 0.000, 599.908 
	L 15.732, 599.927 
	L 31.465, 599.285 
	L 47.197, 598.735 
	L 62.929, 598.963 
	L 78.661, 599.360 
	L 94.394, 598.858 
	L 110.126, 599.599 
	L 125.858, 600.632 
	L 141.591, 599.814 
	L 157.323, 600.292 
" />
<path d="M 157.323, 600.292 
	L 173.055, 599.993 
	L 188.787, 600.766 
	L 204.520, 601.311 
	L 220.252, 600.547 
	L 235.984, 599.655 
	L 251.717, 599.681 
	L 267.449, 600.289 
	L 283.181, 600.399 
	L 298.913, 601.086 
	L 314.646, 601.143 
" />
<path d="M 314.646, 601.143 
	L 330.378, 600.856 
	L 346.110, 601.739 
	L 361.843, 602.933 
	L 377.575, 603.084 
	L 393.307, 603.377 
	L 409.039, 602.525 
	L 424.772, 602.637 
	L 440.504, 602.194 
	L 456.236, 601.034 
	L 471.969, 599.375 
" />
<path d="M 471.969, 599.375 
	L 487.701, 599.574 
	L 503.433, 600.766 
	L 519.165, 601.941 
	L 534.898, 601.980 
	L 550.630, 600.809 
	L 566.362, 599.523 
	L 582.095, 600.317 
	L 597.827, 600.935 
	L 613.559, 600.302 
" />
<path d="M 0.001, 603.201 
	L 0.000, 603.202 
	L 14.173, 603.250 
	L 28.346, 601.636 
	L 42.520, 600.252 
	L 56.693, 600.825 
	L 70.866, 601.824 
	L 85.039, 600.561 
	L 99.213, 602.423 
	L 113.386, 605.023 
	L 127.559, 602.966 
	L 141.732, 604.166 
" />
<path d="M 141.732, 604.166 
	L 155.906, 603.413 
	L 170.079, 605.358 
	L 184.252, 606.730 
	L 198.425, 604.806 
	L 212.598, 602.566 
	L 226.772, 602.630 
	L 240.945, 604.159 
	L 255.118, 604.437 
	L 269.291, 606.163 
	L 283.465, 606.305 
" />
<path d="M 283.465, 606.305 
	L 297.638, 605.586 
	L 311.811, 607.803 
	L 325.984, 610.805 
	L 340.158, 611.184 
	L 354.331, 611.922 
	L 368.504, 609.779 
	L 382.677, 610.061 
	L 396.850, 608.949 
	L 411.024, 606.033 
	L 425.197, 601.863 
" />
<path d="M 425.197, 601.863 
	L 439.370, 602.363 
	L 453.543, 605.358 
	L 467.717, 608.313 
	L 481.890, 608.410 
	L 496.063, 605.466 
	L 510.236, 602.235 
	L 524.410, 604.230 
	L 538.583, 605.783 
	L 552.756, 604.191 
" />
<path d="M 0.001, 605.706 
	L 0.000, 605.707 
	L 12.827, 605.762 
	L 25.654, 603.869 
	L 38.480, 602.245 
	L 51.307, 602.918 
	L 64.134, 604.089 
	L 76.961, 602.608 
	L 89.787, 604.792 
	L 102.614, 607.842 
	L 115.441, 605.429 
	L 128.268, 606.837 
" />
<path d="M 128.268, 606.837 
	L 141.095, 605.955 
	L 153.921, 608.236 
	L 166.748, 609.845 
	L 179.575, 607.589 
	L 192.402, 604.961 
	L 205.228, 605.036 
	L 218.055, 606.829 
	L 230.882, 607.155 
	L 243.709, 609.180 
	L 256.535, 609.345 
" />
<path d="M 256.535, 609.345 
	L 269.362, 608.503 
	L 282.189, 611.104 
	L 295.016, 614.625 
	L 307.843, 615.071 
	L 320.669, 615.935 
	L 333.496, 613.422 
	L 346.323, 613.753 
	L 359.150, 612.447 
	L 371.976, 609.027 
	L 384.803, 604.135 
" />
<path d="M 384.803, 604.135 
	L 397.630, 604.722 
	L 410.457, 608.236 
	L 423.284, 611.702 
	L 436.110, 611.816 
	L 448.937, 608.363 
	L 461.764, 604.571 
	L 474.591, 606.912 
	L 487.417, 608.735 
	L 500.244, 606.867 
" />
<path d="M 0.001, 607.948 
	L 0.000, 607.949 
	L 11.764, 608.008 
	L 23.528, 605.991 
	L 35.291, 604.261 
	L 47.055, 604.977 
	L 58.819, 606.225 
	L 70.583, 604.647 
	L 82.346, 606.974 
	L 94.110, 610.223 
	L 105.874, 607.652 
	L 117.638, 609.153 
" />
<path d="M 117.638, 609.153 
	L 129.402, 608.212 
	L 141.165, 610.643 
	L 152.929, 612.358 
	L 164.693, 609.954 
	L 176.457, 607.154 
	L 188.221, 607.234 
	L 199.984, 609.144 
	L 211.748, 609.491 
	L 223.512, 611.649 
	L 235.276, 611.826 
" />
<path d="M 235.276, 611.826 
	L 247.039, 610.928 
	L 258.803, 613.699 
	L 270.567, 617.451 
	L 282.331, 617.926 
	L 294.095, 618.847 
	L 305.858, 616.169 
	L 317.622, 616.521 
	L 329.386, 615.130 
	L 341.150, 611.487 
	L 352.913, 606.274 
" />
<path d="M 352.913, 606.274 
	L 364.677, 606.899 
	L 376.441, 610.643 
	L 388.205, 614.336 
	L 399.969, 614.458 
	L 411.732, 610.778 
	L 423.496, 606.739 
	L 435.260, 609.233 
	L 447.024, 611.174 
	L 458.787, 609.185 
" />
<path d="M 0.001, 610.012 
	L 0.000, 610.013 
	L 10.843, 610.073 
	L 21.685, 608.006 
	L 32.528, 606.233 
	L 43.370, 606.967 
	L 54.213, 608.246 
	L 65.055, 606.629 
	L 75.898, 609.015 
	L 86.740, 612.345 
	L 97.583, 609.710 
	L 108.425, 611.247 
" />
<path d="M 108.425, 611.247 
	L 119.268, 610.283 
	L 130.110, 612.775 
	L 140.953, 614.532 
	L 151.795, 612.068 
	L 162.638, 609.198 
	L 173.480, 609.280 
	L 184.323, 611.238 
	L 195.165, 611.594 
	L 206.008, 613.806 
	L 216.850, 613.987 
" />
<path d="M 216.850, 613.987 
	L 227.693, 613.067 
	L 238.535, 615.908 
	L 249.378, 619.753 
	L 260.221, 620.240 
	L 271.063, 621.184 
	L 281.906, 618.439 
	L 292.748, 618.800 
	L 303.591, 617.375 
	L 314.433, 613.639 
	L 325.276, 608.297 
" />
<path d="M 325.276, 608.297 
	L 336.118, 608.937 
	L 346.961, 612.775 
	L 357.803, 616.560 
	L 368.646, 616.685 
	L 379.488, 612.913 
	L 390.331, 608.773 
	L 401.173, 611.329 
	L 412.016, 613.320 
	L 422.858, 611.280 
" />
<path d="M 0.001, 610.739 
	L 0.000, 610.740 
	L 10.063, 610.765 
	L 20.126, 609.921 
	L 30.189, 609.197 
	L 40.252, 609.496 
	L 50.315, 610.019 
	L 60.378, 609.358 
	L 70.441, 610.333 
	L 80.504, 611.693 
	L 90.567, 610.617 
	L 100.630, 611.245 
" />
<path d="M 100.630, 611.245 
	L 110.693, 610.851 
	L 120.756, 611.868 
	L 130.819, 612.586 
	L 140.882, 611.580 
	L 150.945, 610.408 
	L 161.008, 610.441 
	L 171.071, 611.241 
	L 181.134, 611.386 
	L 191.197, 612.289 
	L 201.260, 612.364 
" />
<path d="M 201.260, 612.364 
	L 211.323, 611.987 
	L 221.386, 613.148 
	L 231.449, 614.719 
	L 241.512, 614.917 
	L 251.575, 615.303 
	L 261.638, 614.182 
	L 271.701, 614.329 
	L 281.764, 613.747 
	L 291.827, 612.222 
	L 301.890, 610.039 
" />
<path d="M 301.890, 610.039 
	L 311.953, 610.301 
	L 322.016, 611.868 
	L 332.079, 613.415 
	L 342.142, 613.466 
	L 352.205, 611.925 
	L 362.268, 610.234 
	L 372.331, 611.278 
	L 382.394, 612.091 
	L 392.457, 611.258 
" />
<path d="M 0.001, 613.101 
	L 0.000, 613.101 
	L 9.425, 613.142 
	L 18.850, 611.740 
	L 28.276, 610.537 
	L 37.701, 611.035 
	L 47.126, 611.903 
	L 56.551, 610.805 
	L 65.976, 612.424 
	L 75.402, 614.684 
	L 84.827, 612.896 
	L 94.252, 613.939 
" />
<path d="M 94.252, 613.939 
	L 103.677, 613.285 
	L 113.102, 614.975 
	L 122.528, 616.168 
	L 131.953, 614.496 
	L 141.378, 612.549 
	L 150.803, 612.605 
	L 160.228, 613.933 
	L 169.654, 614.174 
	L 179.079, 615.675 
	L 188.504, 615.798 
" />
<path d="M 188.504, 615.798 
	L 197.929, 615.173 
	L 207.354, 617.101 
	L 216.780, 619.710 
	L 226.205, 620.041 
	L 235.630, 620.682 
	L 245.055, 618.819 
	L 254.480, 619.064 
	L 263.906, 618.097 
	L 273.331, 615.563 
	L 282.756, 611.936 
" />
<path d="M 282.756, 611.936 
	L 292.181, 612.371 
	L 301.606, 614.975 
	L 311.032, 617.544 
	L 320.457, 617.629 
	L 329.882, 615.069 
	L 339.307, 612.260 
	L 348.732, 613.994 
	L 358.158, 615.345 
	L 367.583, 613.962 
" />
<path d="M 0.001, 614.018 
	L 0.000, 614.018 
	L 8.858, 614.035 
	L 17.717, 613.468 
	L 26.575, 612.981 
	L 35.433, 613.183 
	L 44.291, 613.534 
	L 53.150, 613.090 
	L 62.008, 613.744 
	L 70.866, 614.658 
	L 79.724, 613.935 
	L 88.583, 614.357 
" />
<path d="M 88.583, 614.357 
	L 97.441, 614.093 
	L 106.299, 614.777 
	L 115.157, 615.259 
	L 124.016, 614.582 
	L 132.874, 613.795 
	L 141.732, 613.817 
	L 150.591, 614.355 
	L 159.449, 614.453 
	L 168.307, 615.059 
	L 177.165, 615.109 
" />
<path d="M 177.165, 615.109 
	L 186.024, 614.857 
	L 194.882, 615.636 
	L 203.740, 616.691 
	L 212.598, 616.825 
	L 221.457, 617.085 
	L 230.315, 616.331 
	L 239.173, 616.430 
	L 248.032, 616.039 
	L 256.890, 615.014 
	L 265.748, 613.547 
" />
<path d="M 265.748, 613.547 
	L 274.606, 613.724 
	L 283.465, 614.777 
	L 292.323, 615.816 
	L 301.181, 615.850 
	L 310.039, 614.814 
	L 318.898, 613.678 
	L 327.756, 614.380 
	L 336.614, 614.926 
	L 345.472, 614.366 
" />
<path d="M 0.001, 615.801 
	L 0.000, 615.802 
	L 8.291, 615.823 
	L 16.583, 615.109 
	L 24.874, 614.497 
	L 33.165, 614.750 
	L 41.457, 615.192 
	L 49.748, 614.633 
	L 58.039, 615.458 
	L 66.331, 616.608 
	L 74.622, 615.698 
	L 82.913, 616.229 
" />
<path d="M 82.913, 616.229 
	L 91.205, 615.896 
	L 99.496, 616.756 
	L 107.787, 617.363 
	L 116.079, 616.512 
	L 124.370, 615.521 
	L 132.661, 615.549 
	L 140.953, 616.226 
	L 149.244, 616.348 
	L 157.535, 617.112 
	L 165.827, 617.175 
" />
<path d="M 165.827, 617.175 
	L 174.118, 616.857 
	L 182.409, 617.838 
	L 190.701, 619.166 
	L 198.992, 619.334 
	L 207.283, 619.660 
	L 215.575, 618.713 
	L 223.866, 618.837 
	L 232.158, 618.345 
	L 240.449, 617.055 
	L 248.740, 615.210 
" />
<path d="M 248.740, 615.210 
	L 257.032, 615.431 
	L 265.323, 616.756 
	L 273.614, 618.063 
	L 281.906, 618.107 
	L 290.197, 616.804 
	L 298.488, 615.374 
	L 306.780, 616.257 
	L 315.071, 616.944 
	L 323.362, 616.240 
" />
<path d="M 0.001, 617.314 
	L 0.000, 617.315 
	L 7.866, 617.334 
	L 15.732, 616.669 
	L 23.598, 616.098 
	L 31.465, 616.334 
	L 39.331, 616.746 
	L 47.197, 616.225 
	L 55.063, 616.993 
	L 62.929, 618.066 
	L 70.795, 617.217 
	L 78.661, 617.713 
" />
<path d="M 78.661, 617.713 
	L 86.528, 617.402 
	L 94.394, 618.204 
	L 102.260, 618.771 
	L 110.126, 617.977 
	L 117.992, 617.053 
	L 125.858, 617.079 
	L 133.724, 617.710 
	L 141.591, 617.825 
	L 149.457, 618.537 
	L 157.323, 618.595 
" />
<path d="M 157.323, 618.595 
	L 165.189, 618.299 
	L 173.055, 619.214 
	L 180.921, 620.452 
	L 188.787, 620.609 
	L 196.654, 620.913 
	L 204.520, 620.029 
	L 212.386, 620.145 
	L 220.252, 619.686 
	L 228.118, 618.483 
	L 235.984, 616.762 
" />
<path d="M 235.984, 616.762 
	L 243.850, 616.969 
	L 251.717, 618.204 
	L 259.583, 619.423 
	L 267.449, 619.464 
	L 275.315, 618.249 
	L 283.181, 616.915 
	L 291.047, 617.739 
	L 298.913, 618.380 
	L 306.780, 617.723 
" />
<path d="M 0.001, 618.998 
	L 0.000, 618.999 
	L 7.441, 619.024 
	L 14.882, 618.151 
	L 22.323, 617.400 
	L 29.764, 617.711 
	L 37.205, 618.252 
	L 44.646, 617.568 
	L 52.087, 618.576 
	L 59.528, 619.985 
	L 66.969, 618.871 
	L 74.409, 619.521 
" />
<path d="M 74.409, 619.521 
	L 81.850, 619.114 
	L 89.291, 620.167 
	L 96.732, 620.910 
	L 104.173, 619.868 
	L 111.614, 618.654 
	L 119.055, 618.689 
	L 126.496, 619.518 
	L 133.937, 619.668 
	L 141.378, 620.603 
	L 148.819, 620.680 
" />
<path d="M 148.819, 620.680 
	L 156.260, 620.291 
	L 163.701, 621.492 
	L 171.142, 623.118 
	L 178.583, 623.324 
	L 186.024, 623.723 
	L 193.465, 622.563 
	L 200.906, 622.715 
	L 208.346, 622.112 
	L 215.787, 620.532 
	L 223.228, 618.273 
" />
<path d="M 223.228, 618.273 
	L 230.669, 618.544 
	L 238.110, 620.167 
	L 245.551, 621.768 
	L 252.992, 621.821 
	L 260.433, 620.226 
	L 267.874, 618.474 
	L 275.315, 619.556 
	L 282.756, 620.398 
	L 290.197, 619.535 
" />
<path d="M 0.001, 620.381 
	L 0.000, 620.382 
	L 7.087, 620.407 
	L 14.173, 619.558 
	L 21.260, 618.829 
	L 28.346, 619.131 
	L 35.433, 619.656 
	L 42.520, 618.992 
	L 49.606, 619.972 
	L 56.693, 621.340 
	L 63.780, 620.257 
	L 70.866, 620.890 
" />
<path d="M 70.866, 620.890 
	L 77.953, 620.493 
	L 85.039, 621.517 
	L 92.126, 622.239 
	L 99.213, 621.227 
	L 106.299, 620.048 
	L 113.386, 620.081 
	L 120.472, 620.886 
	L 127.559, 621.032 
	L 134.646, 621.940 
	L 141.732, 622.015 
" />
<path d="M 141.732, 622.015 
	L 148.819, 621.637 
	L 155.906, 622.804 
	L 162.992, 624.384 
	L 170.079, 624.584 
	L 177.165, 624.971 
	L 184.252, 623.844 
	L 191.339, 623.992 
	L 198.425, 623.407 
	L 205.512, 621.872 
	L 212.598, 619.677 
" />
<path d="M 212.598, 619.677 
	L 219.685, 619.940 
	L 226.772, 621.517 
	L 233.858, 623.072 
	L 240.945, 623.123 
	L 248.032, 621.573 
	L 255.118, 619.873 
	L 262.205, 620.923 
	L 269.291, 621.741 
	L 276.378, 620.903 
" />
<path d="M 0.001, 620.894 
	L 0.000, 620.894 
	L 6.732, 620.894 
	L 13.465, 620.894 
	L 20.197, 620.894 
	L 26.929, 620.894 
	L 33.661, 620.894 
	L 40.394, 620.894 
	L 47.126, 620.894 
	L 53.858, 620.894 
	L 60.591, 620.894 
	L 67.323, 620.894 
" />
<path d="M 67.323, 620.894 
	L 74.055, 620.894 
	L 80.787, 620.894 
	L 87.520, 620.894 
	L 94.252, 620.894 
	L 100.984, 620.894 
	L 107.717, 620.894 
	L 114.449, 620.894 
	L 121.181, 620.894 
	L 127.913, 620.894 
	L 134.646, 620.894 
" />
<path d="M 134.646, 620.894 
	L 141.378, 620.894 
	L 148.110, 620.894 
	L 154.843, 620.894 
	L 161.575, 620.894 
	L 168.307, 620.894 
	L 175.039, 620.894 
	L 181.772, 620.894 
	L 188.504, 620.894 
	L 195.236, 620.894 
	L 201.969, 620.894 
" />
<path d="M 201.969, 620.894 
	L 208.701, 620.894 
	L 215.433, 620.894 
	L 222.165, 620.894 
	L 228.898, 620.894 
	L 235.630, 620.894 
	L 242.362, 620.894 
	L 249.095, 620.894 
	L 255.827, 620.894 
	L 262.559, 620.894 
" />
<path d="M 0.001, 621.240 
	L 0.000, 621.241 
	L 6.378, 621.213 
	L 12.756, 622.165 
	L 19.134, 622.982 
	L 25.512, 622.644 
	L 31.890, 622.055 
	L 38.268, 622.799 
	L 44.646, 621.701 
	L 51.024, 620.167 
	L 57.402, 621.381 
	L 63.780, 620.673 
" />
<path d="M 63.780, 620.673 
	L 70.157, 621.116 
	L 76.535, 619.970 
	L 82.913, 619.160 
	L 89.291, 620.295 
	L 95.669, 621.616 
	L 102.047, 621.578 
	L 108.425, 620.677 
	L 114.803, 620.513 
	L 121.181, 619.495 
	L 127.559, 619.411 
" />
<path d="M 127.559, 619.411 
	L 133.937, 619.835 
	L 140.315, 618.528 
	L 146.693, 616.757 
	L 153.071, 616.533 
	L 159.449, 616.098 
	L 165.827, 617.362 
	L 172.205, 617.195 
	L 178.583, 617.852 
	L 184.961, 619.571 
	L 191.339, 622.031 
" />
<path d="M 191.339, 622.031 
	L 197.717, 621.736 
	L 204.095, 619.970 
	L 210.472, 618.227 
	L 216.850, 618.169 
	L 223.228, 619.906 
	L 229.606, 621.812 
	L 235.984, 620.635 
	L 242.362, 619.719 
	L 248.740, 620.658 
" />
<path d="M 0.001, 621.797 
	L 0.000, 621.797 
	L 6.094, 621.750 
	L 12.189, 623.372 
	L 18.283, 624.763 
	L 24.378, 624.187 
	L 30.472, 623.183 
	L 36.567, 624.452 
	L 42.661, 622.580 
	L 48.756, 619.968 
	L 54.850, 622.035 
	L 60.945, 620.829 
" />
<path d="M 60.945, 620.829 
	L 67.039, 621.585 
	L 73.134, 619.630 
	L 79.228, 618.251 
	L 85.323, 620.184 
	L 91.417, 622.437 
	L 97.512, 622.372 
	L 103.606, 620.836 
	L 109.701, 620.556 
	L 115.795, 618.821 
	L 121.890, 618.679 
" />
<path d="M 121.890, 618.679 
	L 127.984, 619.401 
	L 134.079, 617.173 
	L 140.173, 614.155 
	L 146.268, 613.773 
	L 152.362, 613.033 
	L 158.457, 615.186 
	L 164.551, 614.903 
	L 170.646, 616.021 
	L 176.740, 618.952 
	L 182.835, 623.144 
" />
<path d="M 182.835, 623.144 
	L 188.929, 622.641 
	L 195.024, 619.630 
	L 201.118, 616.660 
	L 207.213, 616.562 
	L 213.307, 619.522 
	L 219.402, 622.770 
	L 225.496, 620.765 
	L 231.591, 619.203 
	L 237.685, 620.803 
" />
<path d="M 0.001, 622.885 
	L 0.000, 622.886 
	L 5.882, 622.836 
	L 11.764, 624.518 
	L 17.646, 625.961 
	L 23.528, 625.363 
	L 29.409, 624.322 
	L 35.291, 625.638 
	L 41.173, 623.698 
	L 47.055, 620.988 
	L 52.937, 623.132 
	L 58.819, 621.881 
" />
<path d="M 58.819, 621.881 
	L 64.701, 622.665 
	L 70.583, 620.639 
	L 76.465, 619.209 
	L 82.346, 621.213 
	L 88.228, 623.548 
	L 94.110, 623.482 
	L 99.992, 621.889 
	L 105.874, 621.599 
	L 111.756, 619.800 
	L 117.638, 619.652 
	L 123.520, 620.401 
" />
<path d="M 123.520, 620.401 
	L 129.402, 618.090 
	L 135.283, 614.962 
	L 141.165, 614.565 
	L 147.047, 613.797 
	L 152.929, 616.030 
	L 158.811, 615.737 
	L 164.693, 616.896 
	L 170.575, 619.935 
	L 176.457, 624.282 
	L 182.339, 623.760 
" />
<path d="M 182.339, 623.760 
	L 188.221, 620.639 
	L 194.102, 617.559 
	L 199.984, 617.457 
	L 205.866, 620.526 
	L 211.748, 623.894 
	L 217.630, 621.814 
	L 223.512, 620.195 
	L 229.394, 621.855 
" />
<path d="M 0.001, 623.694 
	L 0.000, 623.695 
	L 5.669, 623.637 
	L 11.339, 625.607 
	L 17.008, 627.297 
	L 22.677, 626.597 
	L 28.346, 625.378 
	L 34.016, 626.920 
	L 39.685, 624.646 
	L 45.354, 621.473 
	L 51.024, 623.984 
	L 56.693, 622.519 
" />
<path d="M 56.693, 622.519 
	L 62.362, 623.437 
	L 68.032, 621.063 
	L 73.701, 619.389 
	L 79.370, 621.736 
	L 85.039, 624.471 
	L 90.709, 624.393 
	L 96.378, 622.527 
	L 102.047, 622.188 
	L 107.717, 620.080 
	L 113.386, 619.908 
	L 119.055, 620.785 
" />
<path d="M 119.055, 620.785 
	L 124.724, 618.078 
	L 130.394, 614.414 
	L 136.063, 613.950 
	L 141.732, 613.050 
	L 147.402, 615.665 
	L 153.071, 615.322 
	L 158.740, 616.680 
	L 164.409, 620.239 
	L 170.079, 625.331 
	L 175.748, 624.720 
" />
<path d="M 175.748, 624.720 
	L 181.417, 621.063 
	L 187.087, 617.456 
	L 192.756, 617.337 
	L 198.425, 620.931 
	L 204.095, 624.876 
	L 209.764, 622.441 
	L 215.433, 620.544 
	L 221.102, 622.488 
" />
<path d="M 0.001, 624.923 
	L 0.000, 624.923 
	L 5.386, 624.872 
	L 10.772, 626.642 
	L 16.157, 628.160 
	L 21.543, 627.531 
	L 26.929, 626.436 
	L 32.315, 627.821 
	L 37.701, 625.779 
	L 43.087, 622.927 
	L 48.472, 625.183 
	L 53.858, 623.866 
" />
<path d="M 53.858, 623.866 
	L 59.244, 624.692 
	L 64.630, 622.558 
	L 70.016, 621.054 
	L 75.402, 623.164 
	L 80.787, 625.621 
	L 86.173, 625.551 
	L 91.559, 623.874 
	L 96.945, 623.569 
	L 102.331, 621.675 
	L 107.717, 621.520 
	L 113.102, 622.308 
" />
<path d="M 113.102, 622.308 
	L 118.488, 619.876 
	L 123.874, 616.584 
	L 129.260, 616.166 
	L 134.646, 615.358 
	L 140.032, 617.708 
	L 145.417, 617.399 
	L 150.803, 618.620 
	L 156.189, 621.818 
	L 161.575, 626.393 
	L 166.961, 625.845 
" />
<path d="M 166.961, 625.845 
	L 172.346, 622.558 
	L 177.732, 619.317 
	L 183.118, 619.211 
	L 188.504, 622.440 
	L 193.890, 625.986 
	L 199.276, 623.796 
	L 204.661, 622.092 
	L 210.047, 623.838 
" />
<path d="M 0.001, 626.491 
	L 0.000, 626.492 
	L 5.244, 626.457 
	L 10.488, 627.625 
	L 15.732, 628.626 
	L 20.976, 628.211 
	L 26.220, 627.489 
	L 31.465, 628.402 
	L 36.709, 627.056 
	L 41.953, 625.175 
	L 47.197, 626.663 
	L 52.441, 625.795 
" />
<path d="M 52.441, 625.795 
	L 57.685, 626.339 
	L 62.929, 624.932 
	L 68.173, 623.940 
	L 73.417, 625.331 
	L 78.661, 626.951 
	L 83.906, 626.905 
	L 89.150, 625.800 
	L 94.394, 625.599 
	L 99.638, 624.350 
	L 104.882, 624.248 
	L 110.126, 624.767 
" />
<path d="M 110.126, 624.767 
	L 115.370, 623.164 
	L 120.614, 620.992 
	L 125.858, 620.717 
	L 131.102, 620.184 
	L 136.346, 621.734 
	L 141.591, 621.530 
	L 146.835, 622.335 
	L 152.079, 624.444 
	L 157.323, 627.461 
	L 162.567, 627.099 
" />
<path d="M 162.567, 627.099 
	L 167.811, 624.932 
	L 173.055, 622.795 
	L 178.299, 622.724 
	L 183.543, 624.854 
	L 188.787, 627.192 
	L 194.032, 625.749 
	L 199.276, 624.625 
	L 204.520, 625.776 
" />
<path d="M 0.001, 627.389 
	L 0.000, 627.390 
	L 5.031, 627.355 
	L 10.063, 628.559 
	L 15.094, 629.591 
	L 20.126, 629.163 
	L 25.157, 628.418 
	L 30.189, 629.360 
	L 35.220, 627.971 
	L 40.252, 626.032 
	L 45.283, 627.567 
	L 50.315, 626.671 
" />
<path d="M 50.315, 626.671 
	L 55.346, 627.232 
	L 60.378, 625.781 
	L 65.409, 624.758 
	L 70.441, 626.193 
	L 75.472, 627.864 
	L 80.504, 627.817 
	L 85.535, 626.676 
	L 90.567, 626.469 
	L 95.598, 625.181 
	L 100.630, 625.076 
	L 105.661, 625.611 
" />
<path d="M 105.661, 625.611 
	L 110.693, 623.957 
	L 115.724, 621.719 
	L 120.756, 621.434 
	L 125.787, 620.885 
	L 130.819, 622.483 
	L 135.850, 622.273 
	L 140.882, 623.103 
	L 145.913, 625.278 
	L 150.945, 628.389 
	L 155.976, 628.016 
" />
<path d="M 155.976, 628.016 
	L 161.008, 625.781 
	L 166.039, 623.578 
	L 171.071, 623.504 
	L 176.102, 625.701 
	L 181.134, 628.112 
	L 186.165, 626.623 
	L 191.197, 625.465 
	L 196.228, 626.652 
" />
<path d="M 0.001, 627.978 
	L 0.000, 627.979 
	L 4.819, 627.934 
	L 9.638, 629.445 
	L 14.457, 630.741 
	L 19.276, 630.205 
	L 24.094, 629.270 
	L 28.913, 630.452 
	L 33.732, 628.709 
	L 38.551, 626.275 
	L 43.370, 628.200 
	L 48.189, 627.077 
" />
<path d="M 48.189, 627.077 
	L 53.008, 627.781 
	L 57.827, 625.961 
	L 62.646, 624.676 
	L 67.465, 626.477 
	L 72.283, 628.574 
	L 77.102, 628.514 
	L 81.921, 627.083 
	L 86.740, 626.823 
	L 91.559, 625.207 
	L 96.378, 625.074 
	L 101.197, 625.747 
" />
<path d="M 101.197, 625.747 
	L 106.016, 623.671 
	L 110.835, 620.861 
	L 115.654, 620.505 
	L 120.472, 619.814 
	L 125.291, 621.821 
	L 130.110, 621.557 
	L 134.929, 622.599 
	L 139.748, 625.329 
	L 144.567, 629.233 
	L 149.386, 628.765 
" />
<path d="M 149.386, 628.765 
	L 154.205, 625.961 
	L 159.024, 623.194 
	L 163.843, 623.103 
	L 168.661, 625.859 
	L 173.480, 628.885 
	L 178.299, 627.017 
	L 183.118, 625.562 
	L 187.937, 627.053 
" />
<path d="M 0.001, 629.295 
	L 0.000, 629.296 
	L 4.677, 629.266 
	L 9.354, 630.288 
	L 14.031, 631.165 
	L 18.709, 630.802 
	L 23.386, 630.169 
	L 28.063, 630.969 
	L 32.740, 629.790 
	L 37.417, 628.143 
	L 42.094, 629.446 
	L 46.772, 628.686 
" />
<path d="M 46.772, 628.686 
	L 51.449, 629.162 
	L 56.126, 627.930 
	L 60.803, 627.061 
	L 65.480, 628.279 
	L 70.157, 629.699 
	L 74.835, 629.658 
	L 79.512, 628.690 
	L 84.189, 628.514 
	L 88.866, 627.420 
	L 93.543, 627.331 
	L 98.220, 627.786 
" />
<path d="M 98.220, 627.786 
	L 102.898, 626.381 
	L 107.575, 624.480 
	L 112.252, 624.239 
	L 116.929, 623.772 
	L 121.606, 625.129 
	L 126.283, 624.950 
	L 130.961, 625.655 
	L 135.638, 627.502 
	L 140.315, 630.145 
	L 144.992, 629.828 
" />
<path d="M 144.992, 629.828 
	L 149.669, 627.930 
	L 154.346, 626.059 
	L 159.024, 625.996 
	L 163.701, 627.861 
	L 168.378, 629.909 
	L 173.055, 628.645 
	L 177.732, 627.661 
	L 182.409, 628.669 
" />
</g><g style="stroke:rgb(255,0,0); fill:none; stroke-width:0.100mm" >
<path d="M 14.173, 622.205 
	L 14.173, 625.039 
" />
<path d="M 14.173, 623.622 
	L 16.299, 622.205 
	L 17.362, 622.205 
" />
<path d="M 20.551, 623.622 
	L 23.740, 623.622 
	L 24.803, 622.913 
	L 23.740, 622.205 
	L 21.614, 622.205 
	L 20.551, 622.913 
	L 20.551, 624.331 
	L 21.614, 625.039 
	L 24.803, 625.039 
" />
<path d="M 31.181, 624.331 
	L 30.118, 625.039 
	L 29.055, 625.039 
	L 27.992, 624.331 
	L 27.992, 622.913 
	L 29.055, 622.205 
	L 30.118, 622.205 
	L 31.181, 622.913 
" />
<path d="M 34.370, 625.039 
	L 33.307, 624.331 
	L 33.307, 622.913 
	L 34.370, 622.205 
	L 35.433, 622.205 
	L 36.496, 622.913 
	L 36.496, 624.331 
	L 35.433, 625.039 
	L 34.370, 625.039 
" />
<path d="M 39.685, 622.205 
	L 39.685, 625.039 
" />
<path d="M 39.685, 623.622 
	L 41.811, 622.205 
	L 42.874, 622.205 
" />
<path d="M 49.252, 620.787 
	L 49.252, 625.039 
	L 47.126, 625.039 
	L 46.063, 624.331 
	L 46.063, 622.913 
	L 47.126, 622.205 
	L 49.252, 622.205 
" />
<path d="M 49.252, 625.039 
	L 50.315, 625.039 
" />
<path d="M 52.441, 623.622 
	L 55.630, 623.622 
	L 56.693, 622.913 
	L 55.630, 622.205 
	L 53.504, 622.205 
	L 52.441, 622.913 
	L 52.441, 624.331 
	L 53.504, 625.039 
	L 56.693, 625.039 
" />
<path d="M 62.008, 620.787 
	L 62.008, 625.039 
	L 59.882, 625.039 
	L 58.819, 624.331 
	L 58.819, 622.913 
	L 59.882, 622.205 
	L 62.008, 622.205 
" />
<path d="M 62.008, 625.039 
	L 63.071, 625.039 
" />
<path d="M 73.701, 620.787 
	L 73.701, 621.496 
" />
<path d="M 72.638, 622.205 
	L 73.701, 622.205 
	L 73.701, 625.039 
" />
<path d="M 72.638, 625.039 
	L 74.764, 625.039 
" />
<path d="M 77.953, 625.039 
	L 77.953, 622.205 
" />
<path d="M 77.953, 622.913 
	L 79.016, 622.205 
	L 80.079, 622.205 
	L 81.142, 622.913 
	L 81.142, 625.039 
" />
<path d="M 92.835, 625.039 
	L 92.835, 620.787 
	L 90.709, 620.787 
	L 94.961, 620.787 
" />
<path d="M 97.087, 622.205 
	L 97.087, 624.331 
	L 98.150, 625.039 
	L 100.276, 625.039 
	L 100.276, 622.205 
" />
<path d="M 106.654, 622.205 
	L 104.528, 622.205 
	L 103.465, 622.913 
	L 104.528, 623.622 
	L 105.591, 623.622 
	L 106.654, 624.331 
	L 105.591, 625.039 
	L 103.465, 625.039 
" />
<path d="M 109.843, 620.787 
	L 109.843, 625.039 
" />
<path d="M 109.843, 622.205 
	L 111.969, 622.205 
	L 113.032, 622.913 
	L 113.032, 625.039 
" />
<path d="M 116.220, 623.622 
	L 119.409, 623.622 
	L 120.472, 622.913 
	L 119.409, 622.205 
	L 117.283, 622.205 
	L 116.220, 622.913 
	L 116.220, 624.331 
	L 117.283, 625.039 
	L 120.472, 625.039 
" />
<path d="M 123.661, 620.787 
	L 123.661, 625.039 
	L 125.787, 625.039 
" />
<path d="M 122.598, 622.205 
	L 125.787, 622.205 
" />
<path d="M 131.102, 620.787 
	L 131.102, 621.496 
" />
<path d="M 130.039, 622.205 
	L 131.102, 622.205 
	L 131.102, 625.039 
" />
<path d="M 130.039, 625.039 
	L 132.165, 625.039 
" />
<path d="M 137.480, 620.787 
	L 137.480, 621.496 
" />
<path d="M 136.417, 622.205 
	L 137.480, 622.205 
	L 137.480, 625.039 
" />
<path d="M 136.417, 625.039 
	L 138.543, 625.039 
" />
<path d="M 152.362, 621.496 
	L 151.299, 620.787 
	L 149.173, 620.787 
	L 148.110, 621.496 
	L 148.110, 624.331 
	L 149.173, 625.039 
	L 151.299, 625.039 
	L 152.362, 624.331 
	L 152.362, 622.913 
	L 149.173, 622.913 
" />
<path d="M 154.488, 623.622 
	L 157.677, 623.622 
	L 158.740, 622.913 
	L 157.677, 622.205 
	L 155.551, 622.205 
	L 154.488, 622.913 
	L 154.488, 624.331 
	L 155.551, 625.039 
	L 158.740, 625.039 
" />
<path d="M 161.929, 625.039 
	L 160.866, 624.331 
	L 160.866, 622.913 
	L 161.929, 622.205 
	L 162.992, 622.205 
	L 164.055, 622.913 
	L 164.055, 624.331 
	L 162.992, 625.039 
	L 161.929, 625.039 
" />
<path d="M 167.244, 622.205 
	L 167.244, 625.039 
" />
<path d="M 167.244, 623.622 
	L 169.370, 622.205 
	L 170.433, 622.205 
" />
<path d="M 173.622, 626.457 
	L 175.748, 626.457 
	L 176.811, 625.748 
	L 176.811, 622.205 
	L 174.685, 622.205 
	L 173.622, 622.913 
	L 173.622, 624.331 
	L 174.685, 625.039 
	L 176.811, 625.039 
" />
<path d="M 182.126, 620.787 
	L 182.126, 621.496 
" />
<path d="M 181.063, 622.205 
	L 182.126, 622.205 
	L 182.126, 625.039 
" />
<path d="M 181.063, 625.039 
	L 183.189, 625.039 
" />
<path d="M 190.630, 625.039 
	L 187.441, 625.039 
	L 186.378, 624.331 
	L 186.378, 622.913 
	L 187.441, 622.205 
	L 189.567, 622.205 
	L 189.567, 625.039 
" />
<path d="M 14.173, 632.126 
	L 14.173, 627.874 
" />
<path d="M 17.362, 632.126 
	L 14.173, 630.709 
	L 17.362, 629.291 
" />
<path d="M 24.803, 632.126 
	L 21.614, 632.126 
	L 20.551, 631.417 
	L 20.551, 630.000 
	L 21.614, 629.291 
	L 23.740, 629.291 
	L 23.740, 632.126 
" />
<path d="M 27.992, 632.126 
	L 26.929, 631.417 
	L 26.929, 630.000 
	L 27.992, 629.291 
	L 29.055, 629.291 
	L 30.118, 630.000 
	L 30.118, 631.417 
	L 29.055, 632.126 
	L 27.992, 632.126 
" />
<path d="M 34.370, 627.874 
	L 34.370, 632.126 
	L 36.496, 632.126 
" />
<path d="M 33.307, 629.291 
	L 36.496, 629.291 
" />
<path d="M 39.685, 630.709 
	L 42.874, 630.709 
	L 43.937, 630.000 
	L 42.874, 629.291 
	L 40.748, 629.291 
	L 39.685, 630.000 
	L 39.685, 631.417 
	L 40.748, 632.126 
	L 43.937, 632.126 
" />
<path d="M 50.315, 631.417 
	L 49.252, 632.126 
	L 48.189, 632.126 
	L 47.126, 631.417 
	L 47.126, 630.000 
	L 48.189, 629.291 
	L 49.252, 629.291 
	L 50.315, 630.000 
" />
<path d="M 63.071, 632.126 
	L 60.945, 632.126 
	L 60.945, 627.874 
	L 63.071, 627.874 
" />
<path d="M 65.197, 632.126 
	L 67.323, 632.126 
	L 67.323, 627.874 
	L 65.197, 627.874 
" />
<path d="M 74.764, 627.874 
	L 71.575, 630.000 
	L 74.764, 632.126 
" />
<path d="M 77.953, 627.874 
	L 81.142, 630.000 
	L 77.953, 632.126 
" />
<path d="M 90.709, 628.583 
	L 91.772, 627.874 
	L 93.898, 627.874 
	L 94.961, 628.583 
	L 94.961, 629.291 
	L 90.709, 631.417 
	L 90.709, 632.126 
	L 94.961, 632.126 
" />
<path d="M 97.087, 631.417 
	L 98.150, 632.126 
	L 100.276, 632.126 
	L 101.339, 631.417 
	L 101.339, 628.583 
	L 100.276, 627.874 
	L 98.150, 627.874 
	L 97.087, 628.583 
	L 97.087, 631.417 
" />
<path d="M 104.528, 632.126 
	L 106.654, 632.126 
" />
<path d="M 105.591, 632.126 
	L 105.591, 627.874 
	L 104.528, 628.583 
" />
<path d="M 110.906, 632.126 
	L 111.969, 632.126 
	L 114.095, 630.709 
	L 114.095, 628.583 
	L 113.032, 627.874 
	L 110.906, 627.874 
	L 109.843, 628.583 
	L 109.843, 629.291 
	L 110.906, 630.000 
	L 114.095, 630.000 
" />
<path d="M 14.173, 653.386 
	L 17.362, 653.386 
	L 18.425, 652.677 
	L 18.425, 651.260 
	L 17.362, 650.551 
	L 15.236, 650.551 
" />
<path d="M 15.236, 649.134 
	L 15.236, 653.386 
" />
<path d="M 24.803, 653.386 
	L 21.614, 653.386 
	L 20.551, 652.677 
	L 20.551, 651.260 
	L 21.614, 650.551 
	L 23.740, 650.551 
	L 23.740, 653.386 
" />
<path d="M 26.929, 653.386 
	L 26.929, 650.551 
" />
<path d="M 26.929, 651.260 
	L 27.992, 650.551 
	L 29.055, 650.551 
	L 30.118, 651.260 
	L 30.118, 653.386 
" />
<path d="M 36.496, 649.134 
	L 36.496, 653.386 
	L 34.370, 653.386 
	L 33.307, 652.677 
	L 33.307, 651.260 
	L 34.370, 650.551 
	L 36.496, 650.551 
" />
<path d="M 36.496, 653.386 
	L 37.559, 653.386 
" />
<path d="M 43.937, 652.677 
	L 42.874, 653.386 
	L 41.811, 653.386 
	L 40.748, 652.677 
	L 40.748, 651.260 
	L 41.811, 650.551 
	L 42.874, 650.551 
	L 43.937, 651.260 
" />
<path d="M 50.315, 653.386 
	L 47.126, 653.386 
	L 46.063, 652.677 
	L 46.063, 651.260 
	L 47.126, 650.551 
	L 49.252, 650.551 
	L 49.252, 653.386 
" />
<path d="M 52.441, 653.386 
	L 52.441, 650.551 
" />
<path d="M 52.441, 651.260 
	L 53.504, 650.551 
	L 54.567, 651.260 
	L 54.567, 653.386 
" />
<path d="M 54.567, 651.260 
	L 55.630, 650.551 
	L 56.693, 651.260 
	L 56.693, 653.386 
" />
<path d="M 58.819, 654.803 
	L 58.819, 650.551 
	L 60.945, 650.551 
	L 62.008, 651.260 
	L 62.008, 652.677 
	L 60.945, 653.386 
	L 58.819, 653.386 
" />
<path d="M 74.764, 649.134 
	L 74.764, 653.386 
	L 72.638, 653.386 
	L 71.575, 652.677 
	L 71.575, 651.260 
	L 72.638, 650.551 
	L 74.764, 650.551 
" />
<path d="M 74.764, 653.386 
	L 75.827, 653.386 
" />
<path d="M 79.016, 653.386 
	L 77.953, 652.677 
	L 77.953, 651.260 
	L 79.016, 650.551 
	L 80.079, 650.551 
	L 81.142, 651.260 
	L 81.142, 652.677 
	L 80.079, 653.386 
	L 79.016, 653.386 
" />
<path d="M 84.331, 650.551 
	L 84.331, 652.677 
	L 85.394, 653.386 
	L 86.457, 652.677 
	L 86.457, 651.260 
" />
<path d="M 86.457, 652.677 
	L 87.520, 653.386 
	L 88.583, 652.677 
	L 88.583, 650.551 
" />
<path d="M 90.709, 653.386 
	L 90.709, 650.551 
" />
<path d="M 90.709, 651.260 
	L 91.772, 650.551 
	L 92.835, 650.551 
	L 93.898, 651.260 
	L 93.898, 653.386 
" />
<path d="M 98.150, 649.134 
	L 99.213, 649.134 
	L 99.213, 653.386 
" />
<path d="M 98.150, 653.386 
	L 100.276, 653.386 
" />
<path d="M 104.528, 653.386 
	L 103.465, 652.677 
	L 103.465, 651.260 
	L 104.528, 650.551 
	L 105.591, 650.551 
	L 106.654, 651.260 
	L 106.654, 652.677 
	L 105.591, 653.386 
	L 104.528, 653.386 
" />
<path d="M 114.095, 653.386 
	L 110.906, 653.386 
	L 109.843, 652.677 
	L 109.843, 651.260 
	L 110.906, 650.551 
	L 113.032, 650.551 
	L 113.032, 653.386 
" />
<path d="M 119.409, 649.134 
	L 119.409, 653.386 
	L 117.283, 653.386 
	L 116.220, 652.677 
	L 116.220, 651.260 
	L 117.283, 650.551 
	L 119.409, 650.551 
" />
<path d="M 119.409, 653.386 
	L 120.472, 653.386 
" />
<path d="M 126.850, 652.677 
	L 125.787, 653.386 
	L 124.724, 653.386 
	L 123.661, 652.677 
	L 123.661, 651.260 
	L 124.724, 650.551 
	L 125.787, 650.551 
	L 126.850, 651.260 
" />
<path d="M 130.039, 653.386 
	L 128.976, 652.677 
	L 128.976, 651.260 
	L 130.039, 650.551 
	L 131.102, 650.551 
	L 132.165, 651.260 
	L 132.165, 652.677 
	L 131.102, 653.386 
	L 130.039, 653.386 
" />
<path d="M 138.543, 649.134 
	L 138.543, 653.386 
	L 136.417, 653.386 
	L 135.354, 652.677 
	L 135.354, 651.260 
	L 136.417, 650.551 
	L 138.543, 650.551 
" />
<path d="M 138.543, 653.386 
	L 139.606, 653.386 
" />
<path d="M 141.732, 651.969 
	L 144.921, 651.969 
	L 145.984, 651.260 
	L 144.921, 650.551 
	L 142.795, 650.551 
	L 141.732, 651.260 
	L 141.732, 652.677 
	L 142.795, 653.386 
	L 145.984, 653.386 
" />
<path d="M 154.488, 653.386 
	L 158.740, 649.134 
" />
<path d="M 158.740, 653.386 
	L 154.488, 649.134 
" />
<path d="M 160.866, 653.386 
	L 165.118, 649.134 
" />
<path d="M 165.118, 653.386 
	L 160.866, 649.134 
" />
<path d="M 167.244, 653.386 
	L 171.496, 649.134 
" />
<path d="M 171.496, 653.386 
	L 167.244, 649.134 
" />
<path d="M 173.622, 653.386 
	L 177.874, 649.134 
" />
<path d="M 177.874, 653.386 
	L 173.622, 649.134 
" />
<path d="M 180.000, 651.260 
	L 184.252, 651.260 
" />
<path d="M 186.378, 653.386 
	L 190.630, 649.134 
" />
<path d="M 190.630, 653.386 
	L 186.378, 649.134 
" />
<path d="M 192.756, 653.386 
	L 197.008, 649.134 
" />
<path d="M 197.008, 653.386 
	L 192.756, 649.134 
" />
<path d="M 199.134, 653.386 
	L 203.386, 649.134 
" />
<path d="M 203.386, 653.386 
	L 199.134, 649.134 
" />
<path d="M 205.512, 653.386 
	L 209.764, 649.134 
" />
<path d="M 209.764, 653.386 
	L 205.512, 649.134 
" />
<path d="M 17.717, 238.818 
	L 17.717, 238.819 
	L 17.717, 237.472 
	L 37.382, 237.472 
	L 37.382, 238.819 
	L 17.717, 238.819 
	L 17.717, 233.823 
	L 17.717, 232.476 
	L 37.382, 232.476 
	L 37.382, 233.823 
	L 17.717, 233.823 
	L 17.717, 231.095 
" />
<path d="M 17.717, 231.095 
	L 17.717, 229.748 
	L 37.382, 229.748 
	L 37.382, 231.095 
	L 17.717, 231.095 
" />
<path d="M 37.666, 238.818 
	L 37.665, 238.819 
	L 37.665, 229.748 
	L 39.366, 229.748 
	L 39.366, 238.819 
	L 37.665, 238.819 
" />
<path d="M 39.367, 238.818 
	L 39.366, 238.819 
	L 39.366, 232.016 
	L 51.626, 232.016 
	L 51.626, 233.362 
	L 41.067, 233.362 
	L 41.067, 234.744 
	L 51.626, 234.744 
	L 51.626, 236.091 
	L 41.067, 236.091 
	L 41.067, 238.819 
	L 39.366, 238.819 
" />
<path d="M 39.366, 238.819 
" />
<path d="M 62.257, 234.743 
	L 62.256, 234.744 
	L 62.256, 233.362 
	L 52.902, 233.362 
	L 52.902, 234.744 
	L 62.256, 234.744 
	L 51.343, 238.819 
	L 51.343, 232.016 
	L 63.815, 232.016 
	L 63.815, 236.091 
	L 52.902, 236.091 
	L 52.902, 237.472 
" />
<path d="M 52.902, 237.472 
	L 63.815, 237.472 
	L 63.815, 238.819 
	L 51.343, 238.819 
" />
<path d="M 64.099, 238.818 
	L 64.098, 238.819 
	L 64.098, 232.016 
	L 77.138, 232.016 
	L 77.138, 238.819 
	L 75.437, 238.819 
	L 75.437, 233.362 
	L 65.799, 233.362 
	L 65.799, 238.819 
	L 64.098, 238.819 
" />
<path d="M 77.139, 239.279 
	L 77.138, 239.280 
	L 77.138, 229.748 
	L 78.839, 229.748 
	L 78.839, 237.224 
	L 88.193, 233.150 
	L 97.547, 237.224 
	L 97.547, 229.748 
	L 99.248, 229.748 
	L 99.248, 239.280 
	L 88.193, 234.496 
	L 77.138, 239.280 
" />
<path d="M 77.138, 239.280 
" />
<path d="M 110.587, 237.472 
	L 110.587, 237.472 
	L 110.587, 233.362 
	L 108.319, 233.362 
	L 103.783, 237.472 
	L 110.587, 237.472 
	L 99.992, 238.819 
	L 106.051, 233.362 
	L 99.992, 233.362 
	L 99.992, 232.016 
	L 112.287, 232.016 
" />
<path d="M 112.287, 232.016 
	L 112.287, 238.819 
	L 99.992, 238.819 
" />
<path d="M 111.544, 238.818 
	L 111.543, 238.819 
	L 111.543, 232.016 
	L 124.583, 232.016 
	L 124.583, 238.819 
	L 122.882, 238.819 
	L 122.882, 233.362 
	L 113.244, 233.362 
	L 113.244, 238.819 
	L 111.543, 238.819 
" />
<path d="M 135.922, 237.472 
	L 135.921, 237.472 
	L 135.921, 233.362 
	L 126.283, 233.362 
	L 126.283, 237.472 
	L 135.921, 237.472 
	L 124.583, 238.819 
	L 124.583, 232.016 
	L 135.921, 232.016 
	L 135.921, 229.748 
	L 137.622, 229.748 
" />
<path d="M 137.622, 229.748 
	L 137.622, 238.819 
	L 124.583, 238.819 
" />
<path d="M 148.253, 234.743 
	L 148.252, 234.744 
	L 148.252, 233.362 
	L 138.898, 233.362 
	L 138.898, 234.744 
	L 148.252, 234.744 
	L 137.339, 238.819 
	L 137.339, 232.016 
	L 149.811, 232.016 
	L 149.811, 236.091 
	L 138.898, 236.091 
" />
<path d="M 138.898, 236.091 
	L 138.898, 237.472 
	L 149.811, 237.472 
	L 149.811, 238.819 
	L 137.339, 238.819 
" />
<path d="M 150.095, 238.818 
	L 150.095, 238.819 
	L 150.095, 232.016 
	L 162.354, 232.016 
	L 162.354, 233.362 
	L 151.795, 233.362 
	L 151.795, 238.819 
	L 150.095, 238.819 
" />
<path d="M 36.320, 255.188 
	L 36.319, 255.189 
	L 28.772, 248.811 
	L 19.701, 248.811 
	L 19.701, 255.189 
	L 36.319, 255.189 
	L 18.000, 256.535 
	L 18.000, 247.465 
	L 29.516, 247.465 
	L 40.110, 256.535 
	L 18.000, 256.535 
" />
<path d="M 40.111, 256.535 
	L 40.110, 256.535 
	L 40.110, 249.732 
	L 41.811, 249.732 
	L 41.811, 256.535 
	L 40.110, 256.535 
	L 40.110, 248.811 
	L 40.110, 247.465 
	L 41.811, 247.465 
	L 41.811, 248.811 
	L 40.110, 248.811 
" />
<path d="M 41.528, 256.535 
	L 41.528, 256.535 
	L 41.528, 255.189 
	L 52.441, 255.189 
	L 52.441, 253.807 
	L 41.528, 253.807 
	L 41.528, 249.732 
	L 54.000, 249.732 
	L 54.000, 251.079 
	L 43.087, 251.079 
	L 43.087, 252.461 
	L 54.000, 252.461 
" />
<path d="M 54.000, 252.461 
	L 54.000, 256.535 
	L 41.528, 256.535 
" />
<path d="M 54.284, 256.535 
	L 54.283, 256.535 
	L 54.283, 247.465 
	L 55.984, 247.465 
	L 55.984, 249.732 
	L 66.543, 249.732 
	L 66.543, 251.079 
	L 55.984, 251.079 
	L 55.984, 255.189 
	L 66.543, 255.189 
	L 66.543, 256.535 
	L 54.283, 256.535 
" />
<path d="M 54.283, 256.535 
" />
<path d="M 66.544, 256.535 
	L 66.543, 256.535 
	L 66.543, 249.732 
	L 78.803, 249.732 
	L 78.803, 251.079 
	L 68.244, 251.079 
	L 68.244, 256.535 
	L 66.543, 256.535 
" />
<path d="M 89.434, 252.460 
	L 89.433, 252.461 
	L 89.433, 251.079 
	L 80.079, 251.079 
	L 80.079, 252.461 
	L 89.433, 252.461 
	L 78.520, 256.535 
	L 78.520, 249.732 
	L 90.992, 249.732 
	L 90.992, 253.807 
	L 80.079, 253.807 
	L 80.079, 255.189 
" />
<path d="M 80.079, 255.189 
	L 90.992, 255.189 
	L 90.992, 256.535 
	L 78.520, 256.535 
" />
<path d="M 90.993, 256.535 
	L 90.992, 256.535 
	L 90.992, 255.189 
	L 101.906, 255.189 
	L 101.906, 253.807 
	L 90.992, 253.807 
	L 90.992, 249.732 
	L 103.465, 249.732 
	L 103.465, 251.079 
	L 92.551, 251.079 
	L 92.551, 252.461 
" />
<path d="M 92.551, 252.461 
	L 103.465, 252.461 
	L 103.465, 256.535 
	L 90.992, 256.535 
" />
<path d="M 103.465, 256.535 
	L 103.465, 256.535 
	L 103.465, 255.189 
	L 114.378, 255.189 
	L 114.378, 253.807 
	L 103.465, 253.807 
	L 103.465, 249.732 
	L 115.937, 249.732 
	L 115.937, 251.079 
	L 105.024, 251.079 
	L 105.024, 252.461 
" />
<path d="M 105.024, 252.461 
	L 115.937, 252.461 
	L 115.937, 256.535 
	L 103.465, 256.535 
" />
<path d="M 116.221, 256.535 
	L 116.220, 256.535 
	L 116.220, 250.193 
	L 136.063, 250.193 
	L 136.063, 251.539 
	L 117.921, 251.539 
	L 117.921, 256.535 
	L 116.220, 256.535 
	L 116.220, 248.811 
	L 116.220, 247.465 
	L 136.063, 247.465 
" />
<path d="M 136.063, 247.465 
	L 136.063, 248.811 
	L 116.220, 248.811 
" />
<path d="M 136.064, 256.535 
	L 136.063, 256.535 
	L 136.063, 249.732 
	L 148.323, 249.732 
	L 148.323, 251.079 
	L 137.764, 251.079 
	L 137.764, 256.535 
	L 136.063, 256.535 
" />
<path d="M 158.953, 252.460 
	L 158.953, 252.461 
	L 158.953, 251.079 
	L 149.598, 251.079 
	L 149.598, 252.461 
	L 158.953, 252.461 
	L 148.039, 256.535 
	L 148.039, 249.732 
	L 160.512, 249.732 
	L 160.512, 253.807 
	L 149.598, 253.807 
" />
<path d="M 149.598, 253.807 
	L 149.598, 255.189 
	L 160.512, 255.189 
	L 160.512, 256.535 
	L 148.039, 256.535 
" />
<path d="M 172.135, 255.188 
	L 172.134, 255.189 
	L 172.134, 251.079 
	L 162.496, 251.079 
	L 162.496, 255.189 
	L 172.134, 255.189 
	L 172.134, 258.803 
	L 172.134, 256.535 
	L 160.795, 256.535 
	L 160.795, 249.732 
	L 173.835, 249.732 
" />
<path d="M 173.835, 249.732 
	L 173.835, 258.803 
	L 172.134, 258.803 
" />
<path d="M 173.835, 256.535 
	L 173.835, 256.535 
	L 173.835, 249.732 
	L 175.535, 249.732 
	L 175.535, 255.189 
	L 185.173, 255.189 
	L 185.173, 249.732 
	L 186.874, 249.732 
	L 186.874, 256.535 
	L 173.835, 256.535 
" />
<path d="M 197.505, 252.460 
	L 197.504, 252.461 
	L 197.504, 251.079 
	L 188.150, 251.079 
	L 188.150, 252.461 
	L 197.504, 252.461 
	L 186.591, 256.535 
	L 186.591, 249.732 
	L 199.063, 249.732 
	L 199.063, 253.807 
	L 188.150, 253.807 
" />
<path d="M 188.150, 253.807 
	L 188.150, 255.189 
	L 199.063, 255.189 
	L 199.063, 256.535 
	L 186.591, 256.535 
" />
<path d="M 199.347, 256.535 
	L 199.346, 256.535 
	L 199.346, 249.732 
	L 212.386, 249.732 
	L 212.386, 256.535 
	L 210.685, 256.535 
	L 210.685, 251.079 
	L 201.047, 251.079 
	L 201.047, 256.535 
	L 199.346, 256.535 
" />
<path d="M 212.387, 256.535 
	L 212.386, 256.535 
	L 212.386, 249.732 
	L 224.646, 249.732 
	L 224.646, 251.079 
	L 214.087, 251.079 
	L 214.087, 255.189 
	L 224.646, 255.189 
	L 224.646, 256.535 
	L 212.386, 256.535 
" />
<path d="M 225.391, 258.802 
	L 225.390, 258.803 
	L 225.390, 257.421 
	L 235.984, 257.421 
	L 235.984, 256.535 
	L 232.937, 256.535 
	L 225.390, 249.732 
	L 227.658, 249.732 
	L 233.717, 255.189 
	L 235.984, 255.189 
	L 235.984, 249.732 
" />
<path d="M 235.984, 249.732 
	L 237.685, 249.732 
	L 237.685, 258.803 
	L 225.390, 258.803 
" />
<path d="M 27.072, 274.251 
	L 27.071, 274.252 
	L 27.071, 266.528 
	L 17.256, 266.528 
	L 17.256, 265.181 
	L 38.587, 265.181 
	L 38.587, 266.528 
	L 28.772, 266.528 
	L 28.772, 274.252 
	L 27.071, 274.252 
" />
<path d="M 39.331, 274.251 
	L 39.331, 274.252 
	L 39.331, 265.181 
	L 41.032, 265.181 
	L 41.032, 267.449 
	L 52.370, 267.449 
	L 52.370, 274.252 
	L 50.669, 274.252 
	L 50.669, 268.795 
	L 41.032, 268.795 
	L 41.032, 274.252 
	L 39.331, 274.252 
" />
<path d="M 39.331, 274.252 
" />
<path d="M 63.001, 270.177 
	L 63.000, 270.177 
	L 63.000, 268.795 
	L 53.646, 268.795 
	L 53.646, 270.177 
	L 63.000, 270.177 
	L 52.087, 274.252 
	L 52.087, 267.449 
	L 64.559, 267.449 
	L 64.559, 271.524 
	L 53.646, 271.524 
	L 53.646, 272.906 
" />
<path d="M 53.646, 272.906 
	L 64.559, 272.906 
	L 64.559, 274.252 
	L 52.087, 274.252 
" />
<path d="M 64.560, 274.251 
	L 64.559, 274.252 
	L 64.559, 272.906 
	L 84.224, 272.906 
	L 84.224, 274.252 
	L 64.559, 274.252 
	L 64.559, 269.256 
	L 64.559, 267.909 
	L 84.224, 267.909 
	L 84.224, 269.256 
	L 64.559, 269.256 
	L 64.559, 266.528 
" />
<path d="M 64.559, 266.528 
	L 64.559, 265.181 
	L 84.224, 265.181 
	L 84.224, 266.528 
	L 64.559, 266.528 
" />
<path d="M 95.847, 272.905 
	L 95.846, 272.906 
	L 95.846, 268.795 
	L 86.209, 268.795 
	L 86.209, 272.906 
	L 95.846, 272.906 
	L 84.508, 274.252 
	L 84.508, 267.449 
	L 95.846, 267.449 
	L 95.846, 265.181 
	L 97.547, 265.181 
	L 97.547, 274.252 
" />
<path d="M 97.547, 274.252 
	L 84.508, 274.252 
" />
<path d="M 108.887, 272.905 
	L 108.886, 272.906 
	L 108.886, 268.795 
	L 99.248, 268.795 
	L 99.248, 272.906 
	L 108.886, 272.906 
	L 97.547, 276.520 
	L 97.547, 275.138 
	L 108.886, 275.138 
	L 108.886, 274.252 
	L 97.547, 274.252 
" />
<path d="M 97.547, 274.252 
	L 97.547, 267.449 
	L 110.587, 267.449 
	L 110.587, 276.520 
	L 97.547, 276.520 
" />
<path d="M 121.217, 270.177 
	L 121.217, 270.177 
	L 121.217, 268.795 
	L 111.862, 268.795 
	L 111.862, 270.177 
	L 121.217, 270.177 
	L 110.303, 274.252 
	L 110.303, 267.449 
	L 122.776, 267.449 
	L 122.776, 271.524 
	L 111.862, 271.524 
" />
<path d="M 111.862, 271.524 
	L 111.862, 272.906 
	L 122.776, 272.906 
	L 122.776, 274.252 
	L 110.303, 274.252 
" />
<path d="M 143.469, 272.905 
	L 143.469, 272.906 
	L 143.469, 266.528 
	L 124.760, 266.528 
	L 124.760, 272.906 
	L 143.469, 272.906 
	L 123.059, 274.252 
	L 123.059, 265.181 
	L 145.169, 265.181 
	L 145.169, 274.252 
	L 123.059, 274.252 
" />
<path d="M 123.059, 274.252 
" />
<path d="M 145.170, 274.251 
	L 145.169, 274.252 
	L 145.169, 267.449 
	L 157.429, 267.449 
	L 157.429, 268.795 
	L 146.870, 268.795 
	L 146.870, 270.177 
	L 157.429, 270.177 
	L 157.429, 271.524 
	L 146.870, 271.524 
	L 146.870, 274.252 
" />
<path d="M 146.870, 274.252 
	L 145.169, 274.252 
" />
<path d="M 157.430, 274.712 
	L 157.429, 274.713 
	L 157.429, 265.181 
	L 159.130, 265.181 
	L 159.130, 272.658 
	L 168.484, 268.583 
	L 177.839, 272.658 
	L 177.839, 265.181 
	L 179.539, 265.181 
	L 179.539, 274.713 
	L 168.484, 269.929 
" />
<path d="M 168.484, 269.929 
	L 157.429, 274.713 
" />
<path d="M 179.540, 274.251 
	L 179.539, 274.252 
	L 179.539, 265.181 
	L 181.240, 265.181 
	L 181.240, 267.449 
	L 192.579, 267.449 
	L 192.579, 274.252 
	L 190.878, 274.252 
	L 190.878, 268.795 
	L 181.240, 268.795 
	L 181.240, 274.252 
" />
<path d="M 181.240, 274.252 
	L 179.539, 274.252 
" />
<path d="M 203.918, 272.905 
	L 203.917, 272.906 
	L 203.917, 268.795 
	L 201.650, 268.795 
	L 197.114, 272.906 
	L 203.917, 272.906 
	L 193.323, 274.252 
	L 199.382, 268.795 
	L 193.323, 268.795 
	L 193.323, 267.449 
	L 205.618, 267.449 
" />
<path d="M 205.618, 267.449 
	L 205.618, 274.252 
	L 193.323, 274.252 
" />
<path d="M 204.875, 274.251 
	L 204.874, 274.252 
	L 204.874, 265.181 
	L 206.575, 265.181 
	L 206.575, 267.449 
	L 217.134, 267.449 
	L 217.134, 268.795 
	L 206.575, 268.795 
	L 206.575, 272.906 
	L 217.134, 272.906 
	L 217.134, 274.252 
" />
<path d="M 217.134, 274.252 
	L 204.874, 274.252 
" />
<path d="M 217.135, 274.251 
	L 217.134, 274.252 
	L 217.134, 265.181 
	L 218.835, 265.181 
	L 218.835, 274.252 
	L 217.134, 274.252 
" />
<path d="M 218.552, 274.251 
	L 218.551, 274.252 
	L 218.551, 272.906 
	L 229.465, 272.906 
	L 229.465, 271.524 
	L 218.551, 271.524 
	L 218.551, 267.449 
	L 231.024, 267.449 
	L 231.024, 268.795 
	L 220.110, 268.795 
	L 220.110, 270.177 
" />
<path d="M 220.110, 270.177 
	L 231.024, 270.177 
	L 231.024, 274.252 
	L 218.551, 274.252 
" />
<path d="M 17.717, 284.881 
	L 17.717, 284.882 
	L 28.311, 275.350 
	L 38.870, 284.882 
	L 36.602, 284.882 
	L 28.311, 277.370 
	L 19.984, 284.882 
	L 17.717, 284.882 
" />
<path d="M 50.493, 283.535 
	L 50.492, 283.535 
	L 50.492, 279.425 
	L 40.854, 279.425 
	L 40.854, 283.535 
	L 50.492, 283.535 
	L 39.154, 284.882 
	L 39.154, 278.079 
	L 50.492, 278.079 
	L 50.492, 275.811 
	L 52.193, 275.811 
	L 52.193, 284.882 
" />
<path d="M 52.193, 284.882 
	L 39.154, 284.882 
" />
<path d="M 52.194, 284.881 
	L 52.193, 284.882 
	L 52.193, 278.079 
	L 62.965, 278.079 
	L 62.965, 284.882 
	L 61.264, 284.882 
	L 61.264, 279.425 
	L 58.429, 279.425 
	L 58.429, 284.882 
	L 56.728, 284.882 
	L 56.728, 279.425 
	L 53.894, 279.425 
" />
<path d="M 53.894, 279.425 
	L 53.894, 284.882 
	L 52.193, 284.882 
" />
<path d="M 62.965, 284.881 
	L 62.965, 284.882 
	L 62.965, 278.079 
	L 64.665, 278.079 
	L 64.665, 284.882 
	L 62.965, 284.882 
	L 62.965, 277.158 
	L 62.965, 275.811 
	L 64.665, 275.811 
	L 64.665, 277.158 
	L 62.965, 277.158 
" />
<path d="M 64.666, 284.881 
	L 64.665, 284.882 
	L 64.665, 278.079 
	L 77.705, 278.079 
	L 77.705, 284.882 
	L 76.004, 284.882 
	L 76.004, 279.425 
	L 66.366, 279.425 
	L 66.366, 284.882 
	L 64.665, 284.882 
" />
<path d="M 77.705, 284.881 
	L 77.705, 284.882 
	L 77.705, 278.079 
	L 79.406, 278.079 
	L 79.406, 284.882 
	L 77.705, 284.882 
	L 77.705, 277.158 
	L 77.705, 275.811 
	L 79.406, 275.811 
	L 79.406, 277.158 
	L 77.705, 277.158 
" />
<path d="M 79.123, 284.881 
	L 79.122, 284.882 
	L 79.122, 283.535 
	L 90.035, 283.535 
	L 90.035, 282.154 
	L 79.122, 282.154 
	L 79.122, 278.079 
	L 91.595, 278.079 
	L 91.595, 279.425 
	L 80.681, 279.425 
	L 80.681, 280.807 
	L 91.595, 280.807 
" />
<path d="M 91.595, 280.807 
	L 91.595, 284.882 
	L 79.122, 284.882 
" />
<path d="M 91.879, 284.881 
	L 91.878, 284.882 
	L 91.878, 275.811 
	L 93.579, 275.811 
	L 93.579, 278.079 
	L 104.138, 278.079 
	L 104.138, 279.425 
	L 93.579, 279.425 
	L 93.579, 283.535 
	L 104.138, 283.535 
	L 104.138, 284.882 
" />
<path d="M 104.138, 284.882 
	L 91.878, 284.882 
" />
<path d="M 104.139, 284.881 
	L 104.138, 284.882 
	L 104.138, 278.079 
	L 116.398, 278.079 
	L 116.398, 279.425 
	L 105.839, 279.425 
	L 105.839, 284.882 
	L 104.138, 284.882 
" />
<path d="M 127.737, 283.535 
	L 127.736, 283.535 
	L 127.736, 279.425 
	L 125.469, 279.425 
	L 120.933, 283.535 
	L 127.736, 283.535 
	L 117.142, 284.882 
	L 123.201, 279.425 
	L 117.142, 279.425 
	L 117.142, 278.079 
	L 129.437, 278.079 
" />
<path d="M 129.437, 278.079 
	L 129.437, 284.882 
	L 117.142, 284.882 
" />
<path d="M 128.694, 284.881 
	L 128.693, 284.882 
	L 128.693, 275.811 
	L 130.394, 275.811 
	L 130.394, 278.079 
	L 140.953, 278.079 
	L 140.953, 279.425 
	L 130.394, 279.425 
	L 130.394, 283.535 
	L 140.953, 283.535 
	L 140.953, 284.882 
" />
<path d="M 140.953, 284.882 
	L 128.693, 284.882 
" />
<path d="M 140.953, 284.881 
	L 140.953, 284.882 
	L 140.953, 278.079 
	L 142.654, 278.079 
	L 142.654, 284.882 
	L 140.953, 284.882 
	L 140.953, 277.158 
	L 140.953, 275.811 
	L 142.654, 275.811 
	L 142.654, 277.158 
	L 140.953, 277.158 
" />
<path d="M 140.953, 277.158 
" />
<path d="M 142.654, 284.881 
	L 142.654, 284.882 
	L 142.654, 278.079 
	L 144.354, 278.079 
	L 144.354, 283.535 
	L 146.622, 283.535 
	L 152.646, 278.079 
	L 154.913, 278.079 
	L 147.366, 284.882 
	L 142.654, 284.882 
" />
<path d="M 165.544, 280.806 
	L 165.543, 280.807 
	L 165.543, 279.425 
	L 156.189, 279.425 
	L 156.189, 280.807 
	L 165.543, 280.807 
	L 154.630, 284.882 
	L 154.630, 278.079 
	L 167.102, 278.079 
	L 167.102, 282.154 
	L 156.189, 282.154 
" />
<path d="M 156.189, 282.154 
	L 156.189, 283.535 
	L 167.102, 283.535 
	L 167.102, 284.882 
	L 154.630, 284.882 
" />
<path d="M 167.387, 284.881 
	L 167.386, 284.882 
	L 167.386, 275.811 
	L 169.087, 275.811 
	L 169.087, 284.882 
	L 167.386, 284.882 
" />
<path d="M 169.831, 287.149 
	L 169.831, 287.150 
	L 169.831, 285.768 
	L 180.425, 285.768 
	L 180.425, 284.882 
	L 177.378, 284.882 
	L 169.831, 278.079 
	L 172.098, 278.079 
	L 178.158, 283.535 
	L 180.425, 283.535 
	L 180.425, 278.079 
" />
<path d="M 180.425, 278.079 
	L 182.126, 278.079 
	L 182.126, 287.150 
	L 169.831, 287.150 
" />
<path d="M 18.001, 295.511 
	L 18.000, 295.512 
	L 18.000, 289.169 
	L 32.528, 289.169 
	L 35.575, 287.787 
	L 18.000, 287.787 
	L 18.000, 286.441 
	L 39.331, 286.441 
	L 33.307, 290.516 
	L 19.701, 290.516 
	L 19.701, 295.512 
	L 18.000, 295.512 
" />
<path d="M 18.000, 295.512 
" />
<path d="M 50.670, 294.165 
	L 50.669, 294.165 
	L 50.669, 290.055 
	L 41.032, 290.055 
	L 41.032, 294.165 
	L 50.669, 294.165 
	L 39.331, 295.512 
	L 39.331, 288.709 
	L 52.370, 288.709 
	L 52.370, 295.512 
	L 39.331, 295.512 
" />
<path d="M 52.087, 295.511 
	L 52.087, 295.512 
	L 52.087, 294.165 
	L 63.000, 294.165 
	L 63.000, 292.784 
	L 52.087, 292.784 
	L 52.087, 288.709 
	L 64.559, 288.709 
	L 64.559, 290.055 
	L 53.646, 290.055 
	L 53.646, 291.437 
	L 64.559, 291.437 
" />
<path d="M 64.559, 291.437 
	L 64.559, 295.512 
	L 52.087, 295.512 
" />
<path d="M 64.560, 295.511 
	L 64.559, 295.512 
	L 64.559, 294.165 
	L 75.472, 294.165 
	L 75.472, 292.784 
	L 64.559, 292.784 
	L 64.559, 288.709 
	L 77.032, 288.709 
	L 77.032, 290.055 
	L 66.118, 290.055 
	L 66.118, 291.437 
	L 77.032, 291.437 
" />
<path d="M 77.032, 291.437 
	L 77.032, 295.512 
	L 64.559, 295.512 
" />
<path d="M 77.316, 295.511 
	L 77.315, 295.512 
	L 77.315, 288.709 
	L 79.016, 288.709 
	L 79.016, 295.512 
	L 77.315, 295.512 
	L 77.315, 287.787 
	L 77.315, 286.441 
	L 79.016, 286.441 
	L 79.016, 287.787 
	L 77.315, 287.787 
" />
<path d="M 90.355, 294.165 
	L 90.354, 294.165 
	L 90.354, 290.055 
	L 80.717, 290.055 
	L 80.717, 294.165 
	L 90.354, 294.165 
	L 79.016, 295.512 
	L 79.016, 286.441 
	L 80.717, 286.441 
	L 80.717, 288.709 
	L 92.055, 288.709 
	L 92.055, 295.512 
" />
<path d="M 92.055, 295.512 
	L 79.016, 295.512 
" />
<path d="M 92.056, 295.511 
	L 92.055, 295.512 
	L 92.055, 286.441 
	L 93.756, 286.441 
	L 93.756, 295.512 
	L 92.055, 295.512 
" />
<path d="M 104.387, 291.436 
	L 104.386, 291.437 
	L 104.386, 290.055 
	L 95.032, 290.055 
	L 95.032, 291.437 
	L 104.386, 291.437 
	L 93.472, 295.512 
	L 93.472, 288.709 
	L 105.945, 288.709 
	L 105.945, 292.784 
	L 95.032, 292.784 
" />
<path d="M 95.032, 292.784 
	L 95.032, 294.165 
	L 105.945, 294.165 
	L 105.945, 295.512 
	L 93.472, 295.512 
" />
<path d="M 18.001, 313.228 
	L 18.000, 313.228 
	L 18.000, 311.882 
	L 38.409, 311.882 
	L 38.409, 308.232 
	L 18.000, 308.232 
	L 18.000, 304.158 
	L 40.110, 304.158 
	L 40.110, 305.504 
	L 19.701, 305.504 
	L 19.701, 306.886 
	L 40.110, 306.886 
" />
<path d="M 40.110, 306.886 
	L 40.110, 313.228 
	L 18.000, 313.228 
" />
<path d="M 40.111, 313.228 
	L 40.110, 313.228 
	L 40.110, 306.425 
	L 41.811, 306.425 
	L 41.811, 313.228 
	L 40.110, 313.228 
	L 40.110, 305.504 
	L 40.110, 304.158 
	L 41.811, 304.158 
	L 41.811, 305.504 
	L 40.110, 305.504 
" />
<path d="M 41.812, 313.228 
	L 41.811, 313.228 
	L 41.811, 306.425 
	L 54.850, 306.425 
	L 54.850, 313.228 
	L 53.150, 313.228 
	L 53.150, 307.772 
	L 43.512, 307.772 
	L 43.512, 313.228 
	L 41.811, 313.228 
" />
<path d="M 65.481, 309.153 
	L 65.480, 309.154 
	L 65.480, 307.772 
	L 56.126, 307.772 
	L 56.126, 309.154 
	L 65.480, 309.154 
	L 54.567, 313.228 
	L 54.567, 306.425 
	L 67.039, 306.425 
	L 67.039, 310.500 
	L 56.126, 310.500 
	L 56.126, 311.882 
" />
<path d="M 56.126, 311.882 
	L 67.039, 311.882 
	L 67.039, 313.228 
	L 54.567, 313.228 
" />
<path d="M 67.324, 313.228 
	L 67.323, 313.228 
	L 67.323, 304.158 
	L 88.654, 304.158 
	L 84.118, 308.091 
	L 83.374, 308.728 
	L 88.654, 313.228 
	L 86.386, 313.228 
	L 81.106, 308.728 
	L 84.898, 305.504 
	L 69.024, 305.504 
	L 69.024, 313.228 
" />
<path d="M 69.024, 313.228 
	L 67.323, 313.228 
" />
<path d="M 99.993, 311.881 
	L 99.992, 311.882 
	L 99.992, 307.772 
	L 97.724, 307.772 
	L 93.189, 311.882 
	L 99.992, 311.882 
	L 89.398, 313.228 
	L 95.457, 307.772 
	L 89.398, 307.772 
	L 89.398, 306.425 
	L 101.693, 306.425 
	L 101.693, 313.228 
" />
<path d="M 101.693, 313.228 
	L 89.398, 313.228 
" />
<path d="M 100.950, 313.228 
	L 100.949, 313.228 
	L 100.949, 306.425 
	L 102.650, 306.425 
	L 102.650, 311.882 
	L 104.917, 311.882 
	L 110.941, 306.425 
	L 113.209, 306.425 
	L 105.661, 313.228 
	L 100.949, 313.228 
" />
<path d="M 123.839, 309.153 
	L 123.839, 309.154 
	L 123.839, 307.772 
	L 114.484, 307.772 
	L 114.484, 309.154 
	L 123.839, 309.154 
	L 112.925, 313.228 
	L 112.925, 306.425 
	L 125.398, 306.425 
	L 125.398, 310.500 
	L 114.484, 310.500 
" />
<path d="M 114.484, 310.500 
	L 114.484, 311.882 
	L 125.398, 311.882 
	L 125.398, 313.228 
	L 112.925, 313.228 
" />
<path d="M 18.001, 330.944 
	L 18.000, 330.945 
	L 18.000, 324.602 
	L 32.528, 324.602 
	L 35.575, 323.221 
	L 18.000, 323.221 
	L 18.000, 321.874 
	L 39.331, 321.874 
	L 33.307, 325.949 
	L 19.701, 325.949 
	L 19.701, 330.945 
	L 18.000, 330.945 
" />
<path d="M 18.000, 330.945 
" />
<path d="M 50.670, 329.598 
	L 50.669, 329.598 
	L 50.669, 325.488 
	L 48.402, 325.488 
	L 43.866, 329.598 
	L 50.669, 329.598 
	L 40.075, 330.945 
	L 46.134, 325.488 
	L 40.075, 325.488 
	L 40.075, 324.142 
	L 52.370, 324.142 
	L 52.370, 330.945 
" />
<path d="M 52.370, 330.945 
	L 40.075, 330.945 
" />
<path d="M 51.627, 330.944 
	L 51.626, 330.945 
	L 51.626, 321.874 
	L 53.327, 321.874 
	L 53.327, 330.945 
	L 51.626, 330.945 
" />
<path d="M 64.666, 329.598 
	L 64.665, 329.598 
	L 64.665, 325.488 
	L 55.028, 325.488 
	L 55.028, 329.598 
	L 64.665, 329.598 
	L 53.327, 330.945 
	L 53.327, 324.142 
	L 66.366, 324.142 
	L 66.366, 330.945 
	L 53.327, 330.945 
" />
<path d="M 66.367, 330.944 
	L 66.366, 330.945 
	L 66.366, 324.142 
	L 79.406, 324.142 
	L 79.406, 330.945 
	L 77.705, 330.945 
	L 77.705, 325.488 
	L 68.067, 325.488 
	L 68.067, 330.945 
	L 66.366, 330.945 
" />
<path d="M 90.745, 329.598 
	L 90.744, 329.598 
	L 90.744, 325.488 
	L 81.106, 325.488 
	L 81.106, 329.598 
	L 90.744, 329.598 
	L 79.406, 330.945 
	L 79.406, 324.142 
	L 92.445, 324.142 
	L 92.445, 330.945 
	L 79.406, 330.945 
" />
<path d="M 103.784, 329.598 
	L 103.783, 329.598 
	L 103.783, 325.488 
	L 94.146, 325.488 
	L 94.146, 329.598 
	L 103.783, 329.598 
	L 92.445, 333.213 
	L 92.445, 324.142 
	L 105.484, 324.142 
	L 105.484, 330.945 
	L 94.146, 330.945 
" />
<path d="M 94.146, 330.945 
	L 94.146, 333.213 
	L 92.445, 333.213 
" />
<path d="M 105.202, 330.944 
	L 105.201, 330.945 
	L 105.201, 329.598 
	L 116.114, 329.598 
	L 116.114, 328.217 
	L 105.201, 328.217 
	L 105.201, 324.142 
	L 117.673, 324.142 
	L 117.673, 325.488 
	L 106.760, 325.488 
	L 106.760, 326.870 
" />
<path d="M 106.760, 326.870 
	L 117.673, 326.870 
	L 117.673, 330.945 
	L 105.201, 330.945 
" />
<path d="M 117.957, 330.944 
	L 117.957, 330.945 
	L 117.957, 324.142 
	L 119.657, 324.142 
	L 119.657, 330.945 
	L 117.957, 330.945 
	L 117.957, 323.221 
	L 117.957, 321.874 
	L 119.657, 321.874 
	L 119.657, 323.221 
	L 117.957, 323.221 
" />
<path d="M 117.957, 323.221 
" />
<path d="M 130.997, 329.598 
	L 130.996, 329.598 
	L 130.996, 325.488 
	L 128.728, 325.488 
	L 124.193, 329.598 
	L 130.996, 329.598 
	L 120.402, 330.945 
	L 126.461, 325.488 
	L 120.402, 325.488 
	L 120.402, 324.142 
	L 132.697, 324.142 
" />
<path d="M 132.697, 324.142 
	L 132.697, 330.945 
	L 120.402, 330.945 
" />
<path d="M 18.001, 348.661 
	L 18.000, 348.661 
	L 18.000, 339.130 
	L 29.055, 343.878 
	L 40.110, 339.130 
	L 40.110, 348.661 
	L 38.409, 348.661 
	L 38.409, 341.150 
	L 29.055, 345.260 
	L 19.701, 341.150 
	L 19.701, 348.661 
	L 18.000, 348.661 
" />
<path d="M 18.000, 348.661 
" />
<path d="M 51.450, 347.314 
	L 51.449, 347.315 
	L 51.449, 343.205 
	L 41.811, 343.205 
	L 41.811, 347.315 
	L 51.449, 347.315 
	L 40.110, 348.661 
	L 40.110, 341.858 
	L 53.150, 341.858 
	L 53.150, 348.661 
	L 40.110, 348.661 
" />
<path d="M 53.150, 348.661 
	L 53.150, 348.661 
	L 53.150, 341.858 
	L 54.850, 341.858 
	L 54.850, 347.315 
	L 64.488, 347.315 
	L 64.488, 341.858 
	L 66.189, 341.858 
	L 66.189, 348.661 
	L 53.150, 348.661 
" />
<path d="M 66.190, 348.661 
	L 66.189, 348.661 
	L 66.189, 341.858 
	L 79.228, 341.858 
	L 79.228, 348.661 
	L 77.528, 348.661 
	L 77.528, 343.205 
	L 67.890, 343.205 
	L 67.890, 348.661 
	L 66.189, 348.661 
" />
<path d="M 79.229, 348.661 
	L 79.228, 348.661 
	L 79.228, 339.591 
	L 80.929, 339.591 
	L 80.929, 341.858 
	L 91.488, 341.858 
	L 91.488, 343.205 
	L 80.929, 343.205 
	L 80.929, 347.315 
	L 91.488, 347.315 
	L 91.488, 348.661 
	L 79.228, 348.661 
" />
<path d="M 79.228, 348.661 
" />
<path d="M 102.827, 347.314 
	L 102.827, 347.315 
	L 102.827, 343.205 
	L 100.559, 343.205 
	L 96.024, 347.315 
	L 102.827, 347.315 
	L 92.232, 348.661 
	L 98.291, 343.205 
	L 92.232, 343.205 
	L 92.232, 341.858 
	L 104.528, 341.858 
" />
<path d="M 104.528, 341.858 
	L 104.528, 348.661 
	L 92.232, 348.661 
" />
<path d="M 103.784, 348.661 
	L 103.783, 348.661 
	L 103.783, 341.858 
	L 105.484, 341.858 
	L 105.484, 348.661 
	L 103.783, 348.661 
	L 103.783, 340.937 
	L 103.783, 339.591 
	L 105.484, 339.591 
	L 105.484, 340.937 
	L 103.783, 340.937 
" />
<path d="M 103.783, 340.937 
" />
<path d="M 105.485, 348.661 
	L 105.484, 348.661 
	L 105.484, 341.858 
	L 118.524, 341.858 
	L 118.524, 348.661 
	L 116.823, 348.661 
	L 116.823, 343.205 
	L 107.185, 343.205 
	L 107.185, 348.661 
	L 105.484, 348.661 
" />
<path d="M 136.843, 347.314 
	L 136.843, 347.315 
	L 129.295, 340.937 
	L 120.224, 340.937 
	L 120.224, 347.315 
	L 136.843, 347.315 
	L 118.524, 348.661 
	L 118.524, 339.591 
	L 130.039, 339.591 
	L 140.634, 348.661 
	L 118.524, 348.661 
" />
<path d="M 118.524, 348.661 
" />
<path d="M 140.635, 348.661 
	L 140.634, 348.661 
	L 140.634, 341.858 
	L 152.894, 341.858 
	L 152.894, 343.205 
	L 142.335, 343.205 
	L 142.335, 348.661 
	L 140.634, 348.661 
" />
<path d="M 164.233, 347.314 
	L 164.232, 347.315 
	L 164.232, 343.205 
	L 154.595, 343.205 
	L 154.595, 347.315 
	L 164.232, 347.315 
	L 152.894, 348.661 
	L 152.894, 341.858 
	L 165.933, 341.858 
	L 165.933, 348.661 
	L 152.894, 348.661 
" />
<path d="M 152.894, 348.661 
" />
<path d="M 165.934, 348.661 
	L 165.933, 348.661 
	L 165.933, 341.858 
	L 178.972, 341.858 
	L 178.972, 348.661 
	L 177.272, 348.661 
	L 177.272, 343.205 
	L 167.634, 343.205 
	L 167.634, 348.661 
	L 165.933, 348.661 
" />
<path d="M 189.603, 344.586 
	L 189.602, 344.587 
	L 189.602, 343.205 
	L 180.248, 343.205 
	L 180.248, 344.587 
	L 189.602, 344.587 
	L 178.689, 348.661 
	L 178.689, 341.858 
	L 191.161, 341.858 
	L 191.161, 345.933 
	L 180.248, 345.933 
" />
<path d="M 180.248, 345.933 
	L 180.248, 347.315 
	L 191.161, 347.315 
	L 191.161, 348.661 
	L 178.689, 348.661 
" />
<path d="M 13.961, 191.409 
	L 13.961, 191.409 
	L 13.961, 193.075 
	L 13.961, 205.264 
	L 13.961, 206.929 
	L 12.295, 206.929 
	L 10.630, 206.929 
	L 10.630, 205.158 
	L 10.630, 193.075 
	L 10.630, 191.409 
	L 13.961, 191.409 
	L 21.969, 191.409 
" />
<path d="M 21.969, 191.409 
	L 22.535, 191.161 
	L 23.031, 191.161 
	L 23.492, 191.161 
	L 23.917, 191.409 
	L 24.413, 191.764 
	L 24.413, 192.472 
	L 24.413, 192.969 
	L 24.201, 193.642 
	L 19.240, 199.134 
	L 24.201, 204.697 
	L 24.378, 205.087 
" />
<path d="M 24.378, 205.087 
	L 24.378, 205.406 
	L 24.378, 206.114 
	L 23.634, 206.646 
	L 23.280, 206.929 
	L 22.783, 206.929 
	L 21.791, 206.929 
	L 20.303, 205.831 
	L 15.874, 200.835 
	L 14.244, 199.169 
	L 15.874, 197.504 
	L 21.969, 191.409 
" />
<path d="M 21.969, 191.409 
" />
<path d="M 31.855, 203.598 
	L 31.854, 203.598 
	L 36.071, 203.598 
	L 36.035, 197.185 
	L 26.362, 206.256 
	L 25.724, 206.787 
	L 25.157, 206.787 
	L 24.520, 206.787 
	L 23.988, 206.079 
	L 23.528, 205.512 
	L 23.528, 204.945 
	L 23.528, 204.236 
" />
<path d="M 23.528, 204.236 
	L 24.272, 203.634 
	L 36.283, 192.189 
	L 37.169, 191.303 
	L 37.878, 191.303 
	L 38.374, 191.303 
	L 38.551, 191.339 
	L 39.366, 191.622 
	L 39.366, 193.358 
	L 39.366, 204.591 
	L 39.366, 207.000 
	L 36.602, 206.929 
" />
<path d="M 36.602, 206.929 
	L 31.854, 206.929 
	L 29.941, 207.000 
	L 29.941, 205.282 
	L 29.941, 203.563 
	L 31.854, 203.598 
" />
<path d="M 54.674, 203.669 
	L 54.673, 203.669 
	L 54.673, 204.697 
	L 53.575, 205.813 
	L 52.476, 206.929 
	L 51.378, 206.929 
	L 43.618, 206.929 
	L 42.520, 206.929 
	L 41.404, 205.813 
	L 40.287, 204.697 
	L 40.287, 203.598 
	L 40.323, 194.811 
" />
<path d="M 40.323, 194.811 
	L 40.287, 193.642 
	L 41.404, 192.526 
	L 42.520, 191.409 
	L 43.618, 191.409 
	L 51.378, 191.409 
	L 52.476, 191.409 
	L 53.575, 192.526 
	L 54.673, 193.642 
	L 54.673, 194.740 
	L 54.673, 203.669 
	L 51.378, 201.933 
" />
<path d="M 51.378, 201.933 
	L 51.378, 196.406 
	L 51.378, 194.740 
	L 49.713, 194.740 
	L 45.283, 194.740 
	L 43.618, 194.740 
	L 43.618, 196.441 
	L 43.618, 201.933 
	L 43.583, 203.634 
	L 45.283, 203.598 
	L 49.713, 203.598 
	L 51.378, 203.598 
" />
<path d="M 51.378, 203.598 
	L 51.378, 201.933 
" />
<path d="M 66.509, 191.409 
	L 66.508, 191.409 
	L 68.173, 191.409 
	L 68.173, 193.004 
	L 68.173, 194.669 
	L 66.508, 194.740 
	L 55.417, 194.740 
	L 53.752, 194.669 
	L 53.752, 193.075 
	L 53.752, 191.374 
	L 55.417, 191.409 
	L 66.508, 191.409 
" />
<path d="M 66.508, 191.409 
	L 59.280, 198.071 
	L 59.244, 195.874 
	L 61.087, 195.856 
	L 62.929, 195.839 
	L 62.929, 198.071 
	L 62.929, 204.697 
	L 62.823, 206.929 
	L 61.122, 206.929 
	L 61.087, 206.929 
	L 59.244, 206.894 
	L 59.280, 204.697 
" />
<path d="M 59.280, 204.697 
	L 59.280, 198.071 
" />
<path d="M 70.725, 191.409 
	L 70.724, 191.409 
	L 80.681, 191.409 
	L 82.346, 191.409 
	L 82.346, 193.075 
	L 82.346, 194.740 
	L 80.681, 194.740 
	L 73.488, 194.740 
	L 72.390, 194.740 
	L 72.390, 195.839 
	L 72.390, 202.500 
	L 72.390, 203.598 
" />
<path d="M 72.390, 203.598 
	L 73.488, 203.598 
	L 80.681, 203.598 
	L 82.346, 203.598 
	L 82.346, 205.264 
	L 82.346, 206.929 
	L 80.681, 206.929 
	L 70.724, 206.929 
	L 69.059, 206.929 
	L 69.059, 205.264 
	L 69.059, 193.181 
	L 69.059, 191.409 
" />
<path d="M 69.059, 191.409 
	L 70.724, 191.409 
	L 75.720, 197.504 
	L 78.484, 197.504 
	L 80.681, 197.504 
	L 80.681, 199.169 
	L 80.681, 200.835 
	L 78.484, 200.835 
	L 75.720, 200.835 
	L 73.488, 200.835 
	L 73.488, 199.169 
	L 73.488, 197.504 
" />
<path d="M 73.488, 197.504 
	L 75.720, 197.504 
" />
<path d="M 95.564, 206.928 
	L 95.563, 206.929 
	L 87.343, 206.929 
	L 85.287, 206.929 
	L 83.799, 205.476 
	L 82.346, 204.059 
	L 82.346, 202.039 
	L 82.346, 196.158 
	L 82.346, 194.138 
	L 83.799, 192.685 
	L 85.110, 191.409 
	L 87.059, 191.409 
" />
<path d="M 87.059, 191.409 
	L 87.272, 191.409 
	L 87.520, 191.409 
	L 94.394, 191.409 
	L 96.130, 191.409 
	L 96.130, 193.146 
	L 96.130, 194.882 
	L 94.394, 194.882 
	L 88.016, 194.882 
	L 85.783, 194.882 
	L 85.783, 197.008 
	L 85.783, 201.579 
" />
<path d="M 85.783, 201.579 
	L 85.783, 203.492 
	L 88.157, 203.492 
	L 95.563, 203.492 
	L 97.299, 203.492 
	L 97.299, 205.193 
	L 97.264, 206.929 
	L 95.563, 206.929 
" />
<path d="M 107.257, 200.834 
	L 107.256, 200.835 
	L 100.630, 200.835 
	L 98.965, 200.835 
	L 98.965, 199.169 
	L 98.965, 197.504 
	L 100.630, 197.504 
	L 107.256, 197.504 
	L 108.921, 197.504 
	L 108.921, 199.169 
	L 108.921, 200.835 
" />
<path d="M 108.921, 200.835 
	L 107.256, 200.835 
" />
<path d="M 114.698, 203.598 
	L 114.697, 203.598 
	L 118.913, 203.598 
	L 118.878, 197.185 
	L 109.205, 206.256 
	L 108.567, 206.787 
	L 108.000, 206.787 
	L 107.362, 206.787 
	L 106.831, 206.079 
	L 106.370, 205.512 
	L 106.370, 204.945 
" />
<path d="M 106.370, 204.945 
	L 106.370, 204.236 
	L 107.114, 203.634 
	L 119.126, 192.189 
	L 120.012, 191.303 
	L 120.720, 191.303 
	L 121.217, 191.303 
	L 121.394, 191.339 
	L 122.209, 191.622 
	L 122.209, 193.358 
	L 122.209, 204.591 
" />
<path d="M 122.209, 204.591 
	L 122.209, 207.000 
	L 119.445, 206.929 
	L 114.697, 206.929 
	L 112.783, 207.000 
	L 112.783, 205.282 
	L 112.783, 203.563 
	L 114.697, 203.598 
" />
<path d="M 123.095, 191.409 
	L 123.095, 191.409 
	L 124.760, 191.409 
	L 126.425, 191.409 
	L 126.425, 193.642 
	L 126.425, 202.500 
	L 126.425, 203.598 
	L 127.524, 203.598 
	L 133.122, 203.598 
	L 135.390, 203.598 
	L 135.425, 205.228 
" />
<path d="M 135.425, 205.228 
	L 135.425, 206.858 
	L 133.122, 206.929 
	L 125.681, 206.929 
	L 123.095, 206.929 
	L 123.095, 204.201 
	L 123.095, 193.606 
	L 123.095, 191.409 
" />
<path d="M 149.493, 202.322 
	L 149.492, 202.323 
	L 149.492, 204.697 
	L 148.553, 205.813 
	L 147.614, 206.929 
	L 144.957, 206.894 
	L 137.161, 206.929 
	L 135.425, 206.929 
	L 135.425, 205.193 
	L 135.425, 198.071 
	L 135.461, 195.839 
" />
<path d="M 135.461, 195.839 
	L 137.108, 195.839 
	L 138.756, 195.839 
	L 138.720, 198.071 
	L 138.720, 203.705 
	L 144.283, 203.705 
	L 146.020, 203.705 
	L 146.020, 202.252 
	L 146.020, 200.799 
	L 144.248, 200.799 
	L 142.087, 200.835 
" />
<path d="M 142.087, 200.835 
	L 139.783, 200.835 
	L 139.819, 199.169 
	L 139.854, 197.504 
	L 142.087, 197.504 
	L 144.283, 197.504 
	L 146.020, 197.539 
	L 146.037, 196.140 
	L 146.055, 194.740 
	L 144.390, 194.740 
	L 137.091, 194.740 
" />
<path d="M 137.091, 194.740 
	L 135.425, 194.740 
	L 135.425, 193.146 
	L 135.425, 191.409 
	L 137.161, 191.409 
	L 144.850, 191.409 
	L 147.047, 191.409 
	L 148.163, 192.526 
	L 149.280, 193.642 
	L 149.386, 195.839 
	L 149.386, 198.177 
" />
<path d="M 149.386, 198.177 
	L 147.969, 199.028 
	L 149.492, 200.020 
	L 149.492, 202.323 
" />
<path d="M 149.528, 191.444 
	L 149.528, 191.445 
	L 151.158, 191.445 
	L 151.193, 191.445 
	L 152.858, 191.445 
	L 152.787, 193.677 
	L 152.787, 201.969 
	L 152.787, 203.598 
	L 154.453, 203.634 
	L 158.846, 203.598 
	L 160.583, 203.634 
" />
<path d="M 160.583, 203.634 
	L 160.583, 201.898 
	L 160.583, 193.642 
	L 160.618, 191.409 
	L 162.283, 191.409 
	L 163.913, 191.409 
	L 163.913, 193.535 
	L 163.913, 203.598 
	L 163.913, 204.661 
	L 163.063, 205.778 
	L 162.213, 206.894 
" />
<path d="M 162.213, 206.894 
	L 161.079, 206.894 
	L 152.256, 206.894 
	L 151.122, 206.894 
	L 150.325, 205.795 
	L 149.528, 204.697 
	L 149.528, 203.598 
	L 149.492, 193.642 
	L 149.528, 191.445 
" />
<path d="M 175.359, 192.153 
	L 175.358, 192.154 
	L 176.244, 191.409 
	L 176.988, 191.409 
	L 177.272, 191.409 
	L 177.520, 191.516 
	L 178.476, 191.870 
	L 178.476, 193.500 
	L 178.476, 205.016 
	L 178.441, 207.000 
	L 176.811, 207.000 
" />
<path d="M 176.811, 207.000 
	L 176.776, 207.000 
	L 175.146, 207.000 
	L 175.110, 204.980 
	L 175.110, 198.142 
	L 175.075, 197.150 
	L 174.508, 197.681 
	L 166.039, 206.185 
	L 165.154, 207.000 
	L 164.409, 207.000 
	L 163.878, 207.000 
" />
<path d="M 163.878, 207.000 
	L 163.382, 206.504 
	L 162.886, 206.043 
	L 162.886, 205.476 
	L 162.886, 204.697 
	L 163.736, 203.811 
	L 175.358, 192.154 
	L 188.717, 191.835 
	L 188.717, 193.500 
	L 188.717, 204.768 
	L 188.717, 207.000 
" />
<path d="M 188.717, 207.000 
	L 187.051, 207.000 
	L 185.386, 207.000 
	L 185.386, 204.768 
	L 185.386, 198.142 
	L 185.386, 197.433 
	L 184.748, 197.965 
	L 182.587, 200.161 
	L 180.957, 201.295 
	L 180.071, 200.091 
	L 179.185, 198.886 
" />
<path d="M 179.185, 198.886 
	L 180.461, 197.469 
	L 185.669, 192.189 
	L 186.413, 191.409 
	L 187.193, 191.409 
	L 187.441, 191.409 
	L 187.689, 191.480 
	L 188.717, 191.835 
" />
<path d="M 204.166, 203.669 
	L 204.165, 203.669 
	L 204.165, 204.697 
	L 203.067, 205.813 
	L 201.969, 206.929 
	L 200.870, 206.929 
	L 193.110, 206.929 
	L 192.012, 206.929 
	L 190.896, 205.813 
	L 189.780, 204.697 
	L 189.780, 203.598 
" />
<path d="M 189.780, 203.598 
	L 189.815, 194.811 
	L 189.780, 193.642 
	L 190.896, 192.526 
	L 192.012, 191.409 
	L 193.110, 191.409 
	L 200.870, 191.409 
	L 201.969, 191.409 
	L 203.067, 192.526 
	L 204.165, 193.642 
	L 204.165, 194.740 
" />
<path d="M 204.165, 194.740 
	L 204.165, 203.669 
	L 200.870, 201.933 
	L 200.870, 196.406 
	L 200.870, 194.740 
	L 199.205, 194.740 
	L 194.776, 194.740 
	L 193.110, 194.740 
	L 193.110, 196.441 
	L 193.110, 201.933 
	L 193.075, 203.634 
" />
<path d="M 193.075, 203.634 
	L 194.776, 203.598 
	L 199.205, 203.598 
	L 200.870, 203.598 
	L 200.870, 201.933 
" />
<path d="M 218.552, 203.669 
	L 218.551, 203.669 
	L 218.551, 204.697 
	L 217.453, 205.813 
	L 216.354, 206.929 
	L 215.256, 206.929 
	L 207.496, 206.929 
	L 206.398, 206.929 
	L 205.282, 205.813 
	L 204.165, 204.697 
	L 204.165, 203.598 
" />
<path d="M 204.165, 203.598 
	L 204.201, 194.811 
	L 204.165, 193.642 
	L 205.282, 192.526 
	L 206.398, 191.409 
	L 207.496, 191.409 
	L 215.256, 191.409 
	L 216.354, 191.409 
	L 217.453, 192.526 
	L 218.551, 193.642 
	L 218.551, 194.740 
" />
<path d="M 218.551, 194.740 
	L 218.551, 203.669 
	L 215.256, 201.933 
	L 215.256, 196.406 
	L 215.256, 194.740 
	L 213.591, 194.740 
	L 209.161, 194.740 
	L 207.496, 194.740 
	L 207.496, 196.441 
	L 207.496, 201.933 
	L 207.461, 203.634 
" />
<path d="M 207.461, 203.634 
	L 209.161, 203.598 
	L 213.591, 203.598 
	L 215.256, 203.598 
	L 215.256, 201.933 
" />
<path d="M 225.780, 204.696 
	L 225.780, 204.697 
	L 225.780, 206.929 
	L 224.150, 206.929 
	L 222.484, 206.929 
	L 222.413, 204.697 
	L 222.413, 193.642 
	L 222.484, 191.409 
	L 224.150, 191.409 
	L 225.780, 191.409 
	L 225.780, 193.642 
" />
<path d="M 225.780, 193.642 
	L 225.780, 204.697 
" />
<path d="M 644.882, 634.961 
	L 644.882, 638.150 
	L 644.173, 639.213 
	L 642.756, 639.213 
	L 642.047, 638.150 
	L 642.047, 636.024 
	L 644.882, 636.024 
" />
<path d="M 640.630, 631.772 
	L 640.630, 630.709 
	L 644.882, 630.709 
" />
<path d="M 644.882, 631.772 
	L 644.882, 629.646 
" />
<path d="M 644.882, 626.457 
	L 644.882, 623.268 
	L 644.173, 622.205 
	L 642.756, 622.205 
	L 642.047, 623.268 
	L 642.047, 625.394 
" />
<path d="M 640.630, 625.394 
	L 644.882, 625.394 
" />
<path d="M 642.047, 620.079 
	L 644.173, 620.079 
	L 644.882, 619.016 
	L 644.882, 616.890 
	L 642.047, 616.890 
" />
<path d="M 644.882, 613.701 
	L 642.047, 613.701 
" />
<path d="M 642.756, 613.701 
	L 642.047, 612.638 
	L 642.756, 611.575 
	L 644.882, 611.575 
" />
<path d="M 642.756, 611.575 
	L 642.047, 610.512 
	L 642.756, 609.449 
	L 644.882, 609.449 
" />
<path d="M 644.173, 607.323 
	L 644.882, 606.260 
	L 644.882, 604.134 
	L 644.173, 603.071 
	L 641.339, 603.071 
	L 640.630, 604.134 
	L 640.630, 606.260 
	L 641.339, 607.323 
	L 644.173, 607.323 
" />
<path d="M 644.173, 600.945 
	L 644.882, 599.882 
	L 644.882, 597.756 
	L 644.173, 596.693 
	L 641.339, 596.693 
	L 640.630, 597.756 
	L 640.630, 599.882 
	L 641.339, 600.945 
	L 644.173, 600.945 
" />
<path d="M 644.882, 593.504 
	L 644.882, 591.378 
" />
<path d="M 644.882, 592.441 
	L 640.630, 592.441 
	L 641.339, 593.504 
" />
<path d="M 644.173, 583.937 
	L 644.882, 585.000 
	L 644.882, 586.063 
	L 644.173, 587.126 
	L 642.756, 587.126 
	L 642.047, 586.063 
	L 642.047, 585.000 
	L 642.756, 583.937 
" />
<path d="M 644.882, 580.748 
	L 644.173, 581.811 
	L 642.756, 581.811 
	L 642.047, 580.748 
	L 642.047, 579.685 
	L 642.756, 578.622 
	L 644.173, 578.622 
	L 644.882, 579.685 
	L 644.882, 580.748 
" />
<path d="M 642.047, 575.433 
	L 643.465, 575.433 
	L 644.882, 573.307 
	L 643.465, 571.181 
	L 642.047, 571.181 
" />
<path d="M 643.465, 569.055 
	L 643.465, 565.866 
	L 642.756, 564.803 
	L 642.047, 565.866 
	L 642.047, 567.992 
	L 642.756, 569.055 
	L 644.173, 569.055 
	L 644.882, 567.992 
	L 644.882, 564.803 
" />
<path d="M 642.047, 562.677 
	L 644.882, 562.677 
" />
<path d="M 643.465, 562.677 
	L 642.047, 560.551 
	L 642.047, 559.488 
" />
<path d="M 640.630, 548.858 
	L 644.882, 548.858 
	L 644.882, 546.732 
" />
<path d="M 642.047, 549.921 
	L 642.047, 546.732 
" />
<path d="M 643.465, 543.543 
	L 643.465, 540.354 
	L 642.756, 539.291 
	L 642.047, 540.354 
	L 642.047, 542.480 
	L 642.756, 543.543 
	L 644.173, 543.543 
	L 644.882, 542.480 
	L 644.882, 539.291 
" />
<path d="M 642.047, 533.976 
	L 642.047, 536.102 
	L 642.756, 537.165 
	L 643.465, 536.102 
	L 643.465, 535.039 
	L 644.173, 533.976 
	L 644.882, 535.039 
	L 644.882, 537.165 
" />
<path d="M 640.630, 529.724 
	L 644.882, 529.724 
	L 644.882, 527.599 
" />
<path d="M 642.047, 530.787 
	L 642.047, 527.599 
" />
<path d="M 641.339, 498.898 
	L 640.630, 497.835 
	L 640.630, 495.709 
	L 641.339, 494.646 
	L 642.047, 494.646 
	L 644.173, 498.898 
	L 644.882, 498.898 
	L 644.882, 494.646 
" />
<path d="M 644.173, 492.520 
	L 644.882, 491.457 
	L 644.882, 489.331 
	L 644.173, 488.268 
	L 641.339, 488.268 
	L 640.630, 489.331 
	L 640.630, 491.457 
	L 641.339, 492.520 
	L 644.173, 492.520 
" />
<path d="M 644.882, 485.079 
	L 644.882, 482.953 
" />
<path d="M 644.882, 484.016 
	L 640.630, 484.016 
	L 641.339, 485.079 
" />
<path d="M 644.882, 478.701 
	L 644.882, 477.638 
	L 643.465, 475.512 
	L 641.339, 475.512 
	L 640.630, 476.575 
	L 640.630, 478.701 
	L 641.339, 479.764 
	L 642.047, 479.764 
	L 642.756, 478.701 
	L 642.756, 475.512 
" />
<path d="M 642.756, 473.386 
	L 642.756, 469.134 
" />
<path d="M 644.882, 465.945 
	L 644.882, 463.819 
" />
<path d="M 644.882, 464.882 
	L 640.630, 464.882 
	L 641.339, 465.945 
" />
<path d="M 644.882, 459.567 
	L 644.882, 457.441 
" />
<path d="M 644.882, 458.504 
	L 640.630, 458.504 
	L 641.339, 459.567 
" />
<path d="M 642.756, 454.252 
	L 642.756, 450.000 
" />
<path d="M 641.339, 447.874 
	L 640.630, 446.811 
	L 640.630, 444.685 
	L 641.339, 443.622 
	L 642.047, 443.622 
	L 644.173, 447.874 
	L 644.882, 447.874 
	L 644.882, 443.622 
" />
<path d="M 640.630, 437.244 
	L 640.630, 441.496 
	L 642.047, 441.496 
	L 642.047, 438.307 
	L 642.756, 437.244 
	L 644.173, 437.244 
	L 644.882, 438.307 
	L 644.882, 440.433 
	L 644.173, 441.496 
" />
<path d="M 644.882, 427.677 
	L 644.882, 425.551 
" />
<path d="M 644.882, 426.614 
	L 640.630, 426.614 
	L 641.339, 427.677 
" />
<path d="M 640.630, 419.173 
	L 642.756, 422.362 
	L 643.465, 422.362 
	L 643.465, 418.110 
" />
<path d="M 642.756, 419.173 
	L 644.882, 419.173 
" />
<path d="M 642.756, 414.921 
	L 642.047, 414.921 
	L 642.047, 413.858 
	L 642.756, 413.858 
	L 642.756, 414.921 
" />
<path d="M 644.173, 414.921 
	L 644.173, 413.858 
	L 644.882, 413.858 
	L 644.882, 414.921 
	L 644.173, 414.921 
" />
<path d="M 644.173, 409.606 
	L 644.882, 408.543 
	L 644.882, 406.417 
	L 644.173, 405.354 
	L 643.465, 405.354 
	L 642.756, 406.417 
	L 642.756, 407.480 
	L 640.630, 405.354 
	L 640.630, 409.606 
" />
<path d="M 640.630, 398.976 
	L 640.630, 403.228 
	L 642.047, 403.228 
	L 642.047, 400.039 
	L 642.756, 398.976 
	L 644.173, 398.976 
	L 644.882, 400.039 
	L 644.882, 402.165 
	L 644.173, 403.228 
" />
</g>
</svg>
