<?xml version="1.0" encoding="UTF-8" standalone="no" ?>
<svg width="100%" height="100%" viewBox="0 0 865.984 632.126" xmlns="http://www.w3.org/2000/svg"><g>
</g><g style="stroke:rgb(0,0,0); fill:none; stroke-width:1.000mm" >
</g><g style="stroke:rgb(0,0,0); fill:none; stroke-width:0.100mm" >
<path d="M 134.646, 632.126 
	L 134.646, 70.866 
	L 865.984, 70.866 
	L 865.984, 632.126 
	L 134.646, 632.126 
" />
<path d="M 134.646, 632.125 
	L 134.646, 632.126 
	L 134.646, 277.795 
	L 630.709, 277.795 
	L 630.709, 632.126 
	L 134.646, 632.126 
" />
<path d="M 63.780, 632.125 
	L 63.780, 632.126 
	L 134.646, 702.992 
" />
<path d="M 63.780, 625.039 
	L 63.780, 625.039 
	L 134.646, 695.906 
" />
<path d="M 63.780, 617.952 
	L 63.780, 617.953 
	L 134.646, 688.819 
" />
<path d="M 63.780, 610.866 
	L 63.780, 610.866 
	L 134.646, 681.732 
" />
<path d="M 63.780, 603.779 
	L 63.780, 603.780 
	L 134.646, 674.646 
" />
<path d="M 63.780, 596.692 
	L 63.780, 596.693 
	L 134.646, 667.559 
" />
<path d="M 63.780, 589.606 
	L 63.780, 589.606 
	L 134.646, 660.473 
" />
<path d="M 63.780, 582.519 
	L 63.780, 582.520 
	L 134.646, 653.386 
" />
<path d="M 63.780, 575.432 
	L 63.780, 575.433 
	L 134.646, 646.299 
" />
<path d="M 63.780, 568.346 
	L 63.780, 568.347 
	L 134.646, 639.213 
" />
<path d="M 63.780, 561.259 
	L 63.780, 561.260 
	L 134.646, 632.126 
" />
<path d="M 63.780, 554.173 
	L 63.780, 554.173 
	L 134.646, 625.039 
" />
<path d="M 63.780, 547.086 
	L 63.780, 547.087 
	L 134.646, 617.953 
" />
<path d="M 63.780, 539.999 
	L 63.780, 540.000 
	L 134.646, 610.866 
" />
<path d="M 63.780, 532.913 
	L 63.780, 532.913 
	L 134.646, 603.780 
" />
<path d="M 63.780, 525.826 
	L 63.780, 525.827 
	L 134.646, 596.693 
" />
<path d="M 63.780, 518.740 
	L 63.780, 518.740 
	L 134.646, 589.606 
" />
<path d="M 63.780, 511.653 
	L 63.780, 511.654 
	L 134.646, 582.520 
" />
<path d="M 63.780, 504.566 
	L 63.780, 504.567 
	L 134.646, 575.433 
" />
<path d="M 63.780, 497.480 
	L 63.780, 497.480 
	L 134.646, 568.347 
" />
<path d="M 70.867, 632.125 
	L 70.866, 632.126 
	L 127.559, 702.992 
" />
<path d="M 70.867, 625.039 
	L 70.866, 625.039 
	L 127.559, 695.906 
" />
<path d="M 70.867, 617.952 
	L 70.866, 617.953 
	L 127.559, 688.819 
" />
<path d="M 70.867, 610.866 
	L 70.866, 610.866 
	L 127.559, 681.732 
" />
<path d="M 70.867, 603.779 
	L 70.866, 603.780 
	L 127.559, 674.646 
" />
<path d="M 70.867, 596.692 
	L 70.866, 596.693 
	L 127.559, 667.559 
" />
<path d="M 70.867, 589.606 
	L 70.866, 589.606 
	L 127.559, 660.473 
" />
<path d="M 70.867, 582.519 
	L 70.866, 582.520 
	L 127.559, 653.386 
" />
<path d="M 70.867, 575.432 
	L 70.866, 575.433 
	L 127.559, 646.299 
" />
<path d="M 70.867, 568.346 
	L 70.866, 568.347 
	L 127.559, 639.213 
" />
<path d="M 70.867, 561.259 
	L 70.866, 561.260 
	L 127.559, 632.126 
" />
<path d="M 70.867, 554.173 
	L 70.866, 554.173 
	L 127.559, 625.039 
" />
<path d="M 70.867, 547.086 
	L 70.866, 547.087 
	L 127.559, 617.953 
" />
<path d="M 70.867, 539.999 
	L 70.866, 540.000 
	L 127.559, 610.866 
" />
<path d="M 70.867, 532.913 
	L 70.866, 532.913 
	L 127.559, 603.780 
" />
<path d="M 70.867, 525.826 
	L 70.866, 525.827 
	L 127.559, 596.693 
" />
<path d="M 70.867, 518.740 
	L 70.866, 518.740 
	L 127.559, 589.606 
" />
<path d="M 70.867, 511.653 
	L 70.866, 511.654 
	L 127.559, 582.520 
" />
<path d="M 70.867, 504.566 
	L 70.866, 504.567 
	L 127.559, 575.433 
" />
<path d="M 70.867, 497.480 
	L 70.866, 497.480 
	L 127.559, 568.347 
" />
<path d="M 77.953, 632.125 
	L 77.953, 632.126 
	L 120.472, 702.992 
" />
<path d="M 77.953, 625.039 
	L 77.953, 625.039 
	L 120.472, 695.906 
" />
<path d="M 77.953, 617.952 
	L 77.953, 617.953 
	L 120.472, 688.819 
" />
<path d="M 77.953, 610.866 
	L 77.953, 610.866 
	L 120.472, 681.732 
" />
<path d="M 77.953, 603.779 
	L 77.953, 603.780 
	L 120.472, 674.646 
" />
<path d="M 77.953, 596.692 
	L 77.953, 596.693 
	L 120.472, 667.559 
" />
<path d="M 77.953, 589.606 
	L 77.953, 589.606 
	L 120.472, 660.473 
" />
<path d="M 77.953, 582.519 
	L 77.953, 582.520 
	L 120.472, 653.386 
" />
<path d="M 77.953, 575.432 
	L 77.953, 575.433 
	L 120.472, 646.299 
" />
<path d="M 77.953, 568.346 
	L 77.953, 568.347 
	L 120.472, 639.213 
" />
<path d="M 77.953, 561.259 
	L 77.953, 561.260 
	L 120.472, 632.126 
" />
<path d="M 77.953, 554.173 
	L 77.953, 554.173 
	L 120.472, 625.039 
" />
<path d="M 77.953, 547.086 
	L 77.953, 547.087 
	L 120.472, 617.953 
" />
<path d="M 77.953, 539.999 
	L 77.953, 540.000 
	L 120.472, 610.866 
" />
<path d="M 77.953, 532.913 
	L 77.953, 532.913 
	L 120.472, 603.780 
" />
<path d="M 77.953, 525.826 
	L 77.953, 525.827 
	L 120.472, 596.693 
" />
<path d="M 77.953, 518.740 
	L 77.953, 518.740 
	L 120.472, 589.606 
" />
<path d="M 77.953, 511.653 
	L 77.953, 511.654 
	L 120.472, 582.520 
" />
<path d="M 77.953, 504.566 
	L 77.953, 504.567 
	L 120.472, 575.433 
" />
<path d="M 77.953, 497.480 
	L 77.953, 497.480 
	L 120.472, 568.347 
" />
<path d="M 85.040, 632.125 
	L 85.039, 632.126 
	L 113.386, 702.992 
" />
<path d="M 85.040, 625.039 
	L 85.039, 625.039 
	L 113.386, 695.906 
" />
<path d="M 85.040, 617.952 
	L 85.039, 617.953 
	L 113.386, 688.819 
" />
<path d="M 85.040, 610.866 
	L 85.039, 610.866 
	L 113.386, 681.732 
" />
<path d="M 85.040, 603.779 
	L 85.039, 603.780 
	L 113.386, 674.646 
" />
<path d="M 85.040, 596.692 
	L 85.039, 596.693 
	L 113.386, 667.559 
" />
<path d="M 85.040, 589.606 
	L 85.039, 589.606 
	L 113.386, 660.473 
" />
<path d="M 85.040, 582.519 
	L 85.039, 582.520 
	L 113.386, 653.386 
" />
<path d="M 85.040, 575.432 
	L 85.039, 575.433 
	L 113.386, 646.299 
" />
<path d="M 85.040, 568.346 
	L 85.039, 568.347 
	L 113.386, 639.213 
" />
<path d="M 85.040, 561.259 
	L 85.039, 561.260 
	L 113.386, 632.126 
" />
<path d="M 85.040, 554.173 
	L 85.039, 554.173 
	L 113.386, 625.039 
" />
<path d="M 85.040, 547.086 
	L 85.039, 547.087 
	L 113.386, 617.953 
" />
<path d="M 85.040, 539.999 
	L 85.039, 540.000 
	L 113.386, 610.866 
" />
<path d="M 85.040, 532.913 
	L 85.039, 532.913 
	L 113.386, 603.780 
" />
<path d="M 85.040, 525.826 
	L 85.039, 525.827 
	L 113.386, 596.693 
" />
<path d="M 85.040, 518.740 
	L 85.039, 518.740 
	L 113.386, 589.606 
" />
<path d="M 85.040, 511.653 
	L 85.039, 511.654 
	L 113.386, 582.520 
" />
<path d="M 85.040, 504.566 
	L 85.039, 504.567 
	L 113.386, 575.433 
" />
<path d="M 85.040, 497.480 
	L 85.039, 497.480 
	L 113.386, 568.347 
" />
<path d="M 92.127, 632.125 
	L 92.126, 632.126 
	L 106.299, 702.992 
" />
<path d="M 92.127, 625.039 
	L 92.126, 625.039 
	L 106.299, 695.906 
" />
<path d="M 92.127, 617.952 
	L 92.126, 617.953 
	L 106.299, 688.819 
" />
<path d="M 92.127, 610.866 
	L 92.126, 610.866 
	L 106.299, 681.732 
" />
<path d="M 92.127, 603.779 
	L 92.126, 603.780 
	L 106.299, 674.646 
" />
<path d="M 92.127, 596.692 
	L 92.126, 596.693 
	L 106.299, 667.559 
" />
<path d="M 92.127, 589.606 
	L 92.126, 589.606 
	L 106.299, 660.473 
" />
<path d="M 92.127, 582.519 
	L 92.126, 582.520 
	L 106.299, 653.386 
" />
<path d="M 92.127, 575.432 
	L 92.126, 575.433 
	L 106.299, 646.299 
" />
<path d="M 92.127, 568.346 
	L 92.126, 568.347 
	L 106.299, 639.213 
" />
<path d="M 92.127, 561.259 
	L 92.126, 561.260 
	L 106.299, 632.126 
" />
<path d="M 92.127, 554.173 
	L 92.126, 554.173 
	L 106.299, 625.039 
" />
<path d="M 92.127, 547.086 
	L 92.126, 547.087 
	L 106.299, 617.953 
" />
<path d="M 92.127, 539.999 
	L 92.126, 540.000 
	L 106.299, 610.866 
" />
<path d="M 92.127, 532.913 
	L 92.126, 532.913 
	L 106.299, 603.780 
" />
<path d="M 92.127, 525.826 
	L 92.126, 525.827 
	L 106.299, 596.693 
" />
<path d="M 92.127, 518.740 
	L 92.126, 518.740 
	L 106.299, 589.606 
" />
<path d="M 92.127, 511.653 
	L 92.126, 511.654 
	L 106.299, 582.520 
" />
<path d="M 92.127, 504.566 
	L 92.126, 504.567 
	L 106.299, 575.433 
" />
<path d="M 92.127, 497.480 
	L 92.126, 497.480 
	L 106.299, 568.347 
" />
<path d="M 99.213, 632.125 
	L 99.213, 632.126 
	L 99.213, 702.992 
" />
<path d="M 99.213, 625.039 
	L 99.213, 625.039 
	L 99.213, 695.906 
" />
<path d="M 99.213, 617.952 
	L 99.213, 617.953 
	L 99.213, 688.819 
" />
<path d="M 99.213, 610.866 
	L 99.213, 610.866 
	L 99.213, 681.732 
" />
<path d="M 99.213, 603.779 
	L 99.213, 603.780 
	L 99.213, 674.646 
" />
<path d="M 99.213, 596.692 
	L 99.213, 596.693 
	L 99.213, 667.559 
" />
<path d="M 99.213, 589.606 
	L 99.213, 589.606 
	L 99.213, 660.473 
" />
<path d="M 99.213, 582.519 
	L 99.213, 582.520 
	L 99.213, 653.386 
" />
<path d="M 99.213, 575.432 
	L 99.213, 575.433 
	L 99.213, 646.299 
" />
<path d="M 99.213, 568.346 
	L 99.213, 568.347 
	L 99.213, 639.213 
" />
<path d="M 99.213, 561.259 
	L 99.213, 561.260 
	L 99.213, 632.126 
" />
<path d="M 99.213, 554.173 
	L 99.213, 554.173 
	L 99.213, 625.039 
" />
<path d="M 99.213, 547.086 
	L 99.213, 547.087 
	L 99.213, 617.953 
" />
<path d="M 99.213, 539.999 
	L 99.213, 540.000 
	L 99.213, 610.866 
" />
<path d="M 99.213, 532.913 
	L 99.213, 532.913 
	L 99.213, 603.780 
" />
<path d="M 99.213, 525.826 
	L 99.213, 525.827 
	L 99.213, 596.693 
" />
<path d="M 99.213, 518.740 
	L 99.213, 518.740 
	L 99.213, 589.606 
" />
<path d="M 99.213, 511.653 
	L 99.213, 511.654 
	L 99.213, 582.520 
" />
<path d="M 99.213, 504.566 
	L 99.213, 504.567 
	L 99.213, 575.433 
" />
<path d="M 99.213, 497.480 
	L 99.213, 497.480 
	L 99.213, 568.347 
" />
<path d="M 106.300, 632.125 
	L 106.299, 632.126 
	L 92.126, 702.992 
" />
<path d="M 106.300, 625.039 
	L 106.299, 625.039 
	L 92.126, 695.906 
" />
<path d="M 106.300, 617.952 
	L 106.299, 617.953 
	L 92.126, 688.819 
" />
<path d="M 106.300, 610.866 
	L 106.299, 610.866 
	L 92.126, 681.732 
" />
<path d="M 106.300, 603.779 
	L 106.299, 603.780 
	L 92.126, 674.646 
" />
<path d="M 106.300, 596.692 
	L 106.299, 596.693 
	L 92.126, 667.559 
" />
<path d="M 106.300, 589.606 
	L 106.299, 589.606 
	L 92.126, 660.473 
" />
<path d="M 106.300, 582.519 
	L 106.299, 582.520 
	L 92.126, 653.386 
" />
<path d="M 106.300, 575.432 
	L 106.299, 575.433 
	L 92.126, 646.299 
" />
<path d="M 106.300, 568.346 
	L 106.299, 568.347 
	L 92.126, 639.213 
" />
<path d="M 106.300, 561.259 
	L 106.299, 561.260 
	L 92.126, 632.126 
" />
<path d="M 106.300, 554.173 
	L 106.299, 554.173 
	L 92.126, 625.039 
" />
<path d="M 106.300, 547.086 
	L 106.299, 547.087 
	L 92.126, 617.953 
" />
<path d="M 106.300, 539.999 
	L 106.299, 540.000 
	L 92.126, 610.866 
" />
<path d="M 106.300, 532.913 
	L 106.299, 532.913 
	L 92.126, 603.780 
" />
<path d="M 106.300, 525.826 
	L 106.299, 525.827 
	L 92.126, 596.693 
" />
<path d="M 106.300, 518.740 
	L 106.299, 518.740 
	L 92.126, 589.606 
" />
<path d="M 106.300, 511.653 
	L 106.299, 511.654 
	L 92.126, 582.520 
" />
<path d="M 106.300, 504.566 
	L 106.299, 504.567 
	L 92.126, 575.433 
" />
<path d="M 106.300, 497.480 
	L 106.299, 497.480 
	L 92.126, 568.347 
" />
<path d="M 113.387, 632.125 
	L 113.386, 632.126 
	L 85.039, 702.992 
" />
<path d="M 113.387, 625.039 
	L 113.386, 625.039 
	L 85.039, 695.906 
" />
<path d="M 113.387, 617.952 
	L 113.386, 617.953 
	L 85.039, 688.819 
" />
<path d="M 113.387, 610.866 
	L 113.386, 610.866 
	L 85.039, 681.732 
" />
<path d="M 113.387, 603.779 
	L 113.386, 603.780 
	L 85.039, 674.646 
" />
<path d="M 113.387, 596.692 
	L 113.386, 596.693 
	L 85.039, 667.559 
" />
<path d="M 113.387, 589.606 
	L 113.386, 589.606 
	L 85.039, 660.473 
" />
<path d="M 113.387, 582.519 
	L 113.386, 582.520 
	L 85.039, 653.386 
" />
<path d="M 113.387, 575.432 
	L 113.386, 575.433 
	L 85.039, 646.299 
" />
<path d="M 113.387, 568.346 
	L 113.386, 568.347 
	L 85.039, 639.213 
" />
<path d="M 113.387, 561.259 
	L 113.386, 561.260 
	L 85.039, 632.126 
" />
<path d="M 113.387, 554.173 
	L 113.386, 554.173 
	L 85.039, 625.039 
" />
<path d="M 113.387, 547.086 
	L 113.386, 547.087 
	L 85.039, 617.953 
" />
<path d="M 113.387, 539.999 
	L 113.386, 540.000 
	L 85.039, 610.866 
" />
<path d="M 113.387, 532.913 
	L 113.386, 532.913 
	L 85.039, 603.780 
" />
<path d="M 113.387, 525.826 
	L 113.386, 525.827 
	L 85.039, 596.693 
" />
<path d="M 113.387, 518.740 
	L 113.386, 518.740 
	L 85.039, 589.606 
" />
<path d="M 113.387, 511.653 
	L 113.386, 511.654 
	L 85.039, 582.520 
" />
<path d="M 113.387, 504.566 
	L 113.386, 504.567 
	L 85.039, 575.433 
" />
<path d="M 113.387, 497.480 
	L 113.386, 497.480 
	L 85.039, 568.347 
" />
<path d="M 120.473, 632.125 
	L 120.472, 632.126 
	L 77.953, 702.992 
" />
<path d="M 120.473, 625.039 
	L 120.472, 625.039 
	L 77.953, 695.906 
" />
<path d="M 120.473, 617.952 
	L 120.472, 617.953 
	L 77.953, 688.819 
" />
<path d="M 120.473, 610.866 
	L 120.472, 610.866 
	L 77.953, 681.732 
" />
<path d="M 120.473, 603.779 
	L 120.472, 603.780 
	L 77.953, 674.646 
" />
<path d="M 120.473, 596.692 
	L 120.472, 596.693 
	L 77.953, 667.559 
" />
<path d="M 120.473, 589.606 
	L 120.472, 589.606 
	L 77.953, 660.473 
" />
<path d="M 120.473, 582.519 
	L 120.472, 582.520 
	L 77.953, 653.386 
" />
<path d="M 120.473, 575.432 
	L 120.472, 575.433 
	L 77.953, 646.299 
" />
<path d="M 120.473, 568.346 
	L 120.472, 568.347 
	L 77.953, 639.213 
" />
<path d="M 120.473, 561.259 
	L 120.472, 561.260 
	L 77.953, 632.126 
" />
<path d="M 120.473, 554.173 
	L 120.472, 554.173 
	L 77.953, 625.039 
" />
<path d="M 120.473, 547.086 
	L 120.472, 547.087 
	L 77.953, 617.953 
" />
<path d="M 120.473, 539.999 
	L 120.472, 540.000 
	L 77.953, 610.866 
" />
<path d="M 120.473, 532.913 
	L 120.472, 532.913 
	L 77.953, 603.780 
" />
<path d="M 120.473, 525.826 
	L 120.472, 525.827 
	L 77.953, 596.693 
" />
<path d="M 120.473, 518.740 
	L 120.472, 518.740 
	L 77.953, 589.606 
" />
<path d="M 120.473, 511.653 
	L 120.472, 511.654 
	L 77.953, 582.520 
" />
<path d="M 120.473, 504.566 
	L 120.472, 504.567 
	L 77.953, 575.433 
" />
<path d="M 120.473, 497.480 
	L 120.472, 497.480 
	L 77.953, 568.347 
" />
<path d="M 127.560, 632.125 
	L 127.559, 632.126 
	L 70.866, 702.992 
" />
<path d="M 127.560, 625.039 
	L 127.559, 625.039 
	L 70.866, 695.906 
" />
<path d="M 127.560, 617.952 
	L 127.559, 617.953 
	L 70.866, 688.819 
" />
<path d="M 127.560, 610.866 
	L 127.559, 610.866 
	L 70.866, 681.732 
" />
<path d="M 127.560, 603.779 
	L 127.559, 603.780 
	L 70.866, 674.646 
" />
<path d="M 127.560, 596.692 
	L 127.559, 596.693 
	L 70.866, 667.559 
" />
<path d="M 127.560, 589.606 
	L 127.559, 589.606 
	L 70.866, 660.473 
" />
<path d="M 127.560, 582.519 
	L 127.559, 582.520 
	L 70.866, 653.386 
" />
<path d="M 127.560, 575.432 
	L 127.559, 575.433 
	L 70.866, 646.299 
" />
<path d="M 127.560, 568.346 
	L 127.559, 568.347 
	L 70.866, 639.213 
" />
<path d="M 127.560, 561.259 
	L 127.559, 561.260 
	L 70.866, 632.126 
" />
<path d="M 127.560, 554.173 
	L 127.559, 554.173 
	L 70.866, 625.039 
" />
<path d="M 127.560, 547.086 
	L 127.559, 547.087 
	L 70.866, 617.953 
" />
<path d="M 127.560, 539.999 
	L 127.559, 540.000 
	L 70.866, 610.866 
" />
<path d="M 127.560, 532.913 
	L 127.559, 532.913 
	L 70.866, 603.780 
" />
<path d="M 127.560, 525.826 
	L 127.559, 525.827 
	L 70.866, 596.693 
" />
<path d="M 127.560, 518.740 
	L 127.559, 518.740 
	L 70.866, 589.606 
" />
<path d="M 127.560, 511.653 
	L 127.559, 511.654 
	L 70.866, 582.520 
" />
<path d="M 127.560, 504.566 
	L 127.559, 504.567 
	L 70.866, 575.433 
" />
<path d="M 127.560, 497.480 
	L 127.559, 497.480 
	L 70.866, 568.347 
" />
<path d="M 134.646, 632.125 
	L 134.646, 632.126 
	L 63.780, 702.992 
" />
<path d="M 134.646, 625.039 
	L 134.646, 625.039 
	L 63.780, 695.906 
" />
<path d="M 134.646, 617.952 
	L 134.646, 617.953 
	L 63.780, 688.819 
" />
<path d="M 134.646, 610.866 
	L 134.646, 610.866 
	L 63.780, 681.732 
" />
<path d="M 134.646, 603.779 
	L 134.646, 603.780 
	L 63.780, 674.646 
" />
<path d="M 134.646, 596.692 
	L 134.646, 596.693 
	L 63.780, 667.559 
" />
<path d="M 134.646, 589.606 
	L 134.646, 589.606 
	L 63.780, 660.473 
" />
<path d="M 134.646, 582.519 
	L 134.646, 582.520 
	L 63.780, 653.386 
" />
<path d="M 134.646, 575.432 
	L 134.646, 575.433 
	L 63.780, 646.299 
" />
<path d="M 134.646, 568.346 
	L 134.646, 568.347 
	L 63.780, 639.213 
" />
<path d="M 134.646, 561.259 
	L 134.646, 561.260 
	L 63.780, 632.126 
" />
<path d="M 134.646, 554.173 
	L 134.646, 554.173 
	L 63.780, 625.039 
" />
<path d="M 134.646, 547.086 
	L 134.646, 547.087 
	L 63.780, 617.953 
" />
<path d="M 134.646, 539.999 
	L 134.646, 540.000 
	L 63.780, 610.866 
" />
<path d="M 134.646, 532.913 
	L 134.646, 532.913 
	L 63.780, 603.780 
" />
<path d="M 134.646, 525.826 
	L 134.646, 525.827 
	L 63.780, 596.693 
" />
<path d="M 134.646, 518.740 
	L 134.646, 518.740 
	L 63.780, 589.606 
" />
<path d="M 134.646, 511.653 
	L 134.646, 511.654 
	L 63.780, 582.520 
" />
<path d="M 134.646, 504.566 
	L 134.646, 504.567 
	L 63.780, 575.433 
" />
<path d="M 134.646, 497.480 
	L 134.646, 497.480 
	L 63.780, 568.347 
" />
<path d="M 141.733, 632.125 
	L 141.732, 632.126 
	L 56.693, 702.992 
" />
<path d="M 141.733, 625.039 
	L 141.732, 625.039 
	L 56.693, 695.906 
" />
<path d="M 141.733, 617.952 
	L 141.732, 617.953 
	L 56.693, 688.819 
" />
<path d="M 141.733, 610.866 
	L 141.732, 610.866 
	L 56.693, 681.732 
" />
<path d="M 141.733, 603.779 
	L 141.732, 603.780 
	L 56.693, 674.646 
" />
<path d="M 141.733, 596.692 
	L 141.732, 596.693 
	L 56.693, 667.559 
" />
<path d="M 141.733, 589.606 
	L 141.732, 589.606 
	L 56.693, 660.473 
" />
<path d="M 141.733, 582.519 
	L 141.732, 582.520 
	L 56.693, 653.386 
" />
<path d="M 141.733, 575.432 
	L 141.732, 575.433 
	L 56.693, 646.299 
" />
<path d="M 141.733, 568.346 
	L 141.732, 568.347 
	L 56.693, 639.213 
" />
<path d="M 141.733, 561.259 
	L 141.732, 561.260 
	L 56.693, 632.126 
" />
<path d="M 141.733, 554.173 
	L 141.732, 554.173 
	L 56.693, 625.039 
" />
<path d="M 141.733, 547.086 
	L 141.732, 547.087 
	L 56.693, 617.953 
" />
<path d="M 141.733, 539.999 
	L 141.732, 540.000 
	L 56.693, 610.866 
" />
<path d="M 141.733, 532.913 
	L 141.732, 532.913 
	L 56.693, 603.780 
" />
<path d="M 141.733, 525.826 
	L 141.732, 525.827 
	L 56.693, 596.693 
" />
<path d="M 141.733, 518.740 
	L 141.732, 518.740 
	L 56.693, 589.606 
" />
<path d="M 141.733, 511.653 
	L 141.732, 511.654 
	L 56.693, 582.520 
" />
<path d="M 141.733, 504.566 
	L 141.732, 504.567 
	L 56.693, 575.433 
" />
<path d="M 141.733, 497.480 
	L 141.732, 497.480 
	L 56.693, 568.347 
" />
<path d="M 148.820, 632.125 
	L 148.819, 632.126 
	L 49.606, 702.992 
" />
<path d="M 148.820, 625.039 
	L 148.819, 625.039 
	L 49.606, 695.906 
" />
<path d="M 148.820, 617.952 
	L 148.819, 617.953 
	L 49.606, 688.819 
" />
<path d="M 148.820, 610.866 
	L 148.819, 610.866 
	L 49.606, 681.732 
" />
<path d="M 148.820, 603.779 
	L 148.819, 603.780 
	L 49.606, 674.646 
" />
<path d="M 148.820, 596.692 
	L 148.819, 596.693 
	L 49.606, 667.559 
" />
<path d="M 148.820, 589.606 
	L 148.819, 589.606 
	L 49.606, 660.473 
" />
<path d="M 148.820, 582.519 
	L 148.819, 582.520 
	L 49.606, 653.386 
" />
<path d="M 148.820, 575.432 
	L 148.819, 575.433 
	L 49.606, 646.299 
" />
<path d="M 148.820, 568.346 
	L 148.819, 568.347 
	L 49.606, 639.213 
" />
<path d="M 148.820, 561.259 
	L 148.819, 561.260 
	L 49.606, 632.126 
" />
<path d="M 148.820, 554.173 
	L 148.819, 554.173 
	L 49.606, 625.039 
" />
<path d="M 148.820, 547.086 
	L 148.819, 547.087 
	L 49.606, 617.953 
" />
<path d="M 148.820, 539.999 
	L 148.819, 540.000 
	L 49.606, 610.866 
" />
<path d="M 148.820, 532.913 
	L 148.819, 532.913 
	L 49.606, 603.780 
" />
<path d="M 148.820, 525.826 
	L 148.819, 525.827 
	L 49.606, 596.693 
" />
<path d="M 148.820, 518.740 
	L 148.819, 518.740 
	L 49.606, 589.606 
" />
<path d="M 148.820, 511.653 
	L 148.819, 511.654 
	L 49.606, 582.520 
" />
<path d="M 148.820, 504.566 
	L 148.819, 504.567 
	L 49.606, 575.433 
" />
<path d="M 148.820, 497.480 
	L 148.819, 497.480 
	L 49.606, 568.347 
" />
<path d="M 155.906, 632.125 
	L 155.906, 632.126 
	L 42.520, 702.992 
" />
<path d="M 155.906, 625.039 
	L 155.906, 625.039 
	L 42.520, 695.906 
" />
<path d="M 155.906, 617.952 
	L 155.906, 617.953 
	L 42.520, 688.819 
" />
<path d="M 155.906, 610.866 
	L 155.906, 610.866 
	L 42.520, 681.732 
" />
<path d="M 155.906, 603.779 
	L 155.906, 603.780 
	L 42.520, 674.646 
" />
<path d="M 155.906, 596.692 
	L 155.906, 596.693 
	L 42.520, 667.559 
" />
<path d="M 155.906, 589.606 
	L 155.906, 589.606 
	L 42.520, 660.473 
" />
<path d="M 155.906, 582.519 
	L 155.906, 582.520 
	L 42.520, 653.386 
" />
<path d="M 155.906, 575.432 
	L 155.906, 575.433 
	L 42.520, 646.299 
" />
<path d="M 155.906, 568.346 
	L 155.906, 568.347 
	L 42.520, 639.213 
" />
<path d="M 155.906, 561.259 
	L 155.906, 561.260 
	L 42.520, 632.126 
" />
<path d="M 155.906, 554.173 
	L 155.906, 554.173 
	L 42.520, 625.039 
" />
<path d="M 155.906, 547.086 
	L 155.906, 547.087 
	L 42.520, 617.953 
" />
<path d="M 155.906, 539.999 
	L 155.906, 540.000 
	L 42.520, 610.866 
" />
<path d="M 155.906, 532.913 
	L 155.906, 532.913 
	L 42.520, 603.780 
" />
<path d="M 155.906, 525.826 
	L 155.906, 525.827 
	L 42.520, 596.693 
" />
<path d="M 155.906, 518.740 
	L 155.906, 518.740 
	L 42.520, 589.606 
" />
<path d="M 155.906, 511.653 
	L 155.906, 511.654 
	L 42.520, 582.520 
" />
<path d="M 155.906, 504.566 
	L 155.906, 504.567 
	L 42.520, 575.433 
" />
<path d="M 155.906, 497.480 
	L 155.906, 497.480 
	L 42.520, 568.347 
" />
<path d="M 162.993, 632.125 
	L 162.992, 632.126 
	L 35.433, 702.992 
" />
<path d="M 162.993, 625.039 
	L 162.992, 625.039 
	L 35.433, 695.906 
" />
<path d="M 162.993, 617.952 
	L 162.992, 617.953 
	L 35.433, 688.819 
" />
<path d="M 162.993, 610.866 
	L 162.992, 610.866 
	L 35.433, 681.732 
" />
<path d="M 162.993, 603.779 
	L 162.992, 603.780 
	L 35.433, 674.646 
" />
<path d="M 162.993, 596.692 
	L 162.992, 596.693 
	L 35.433, 667.559 
" />
<path d="M 162.993, 589.606 
	L 162.992, 589.606 
	L 35.433, 660.473 
" />
<path d="M 162.993, 582.519 
	L 162.992, 582.520 
	L 35.433, 653.386 
" />
<path d="M 162.993, 575.432 
	L 162.992, 575.433 
	L 35.433, 646.299 
" />
<path d="M 162.993, 568.346 
	L 162.992, 568.347 
	L 35.433, 639.213 
" />
<path d="M 162.993, 561.259 
	L 162.992, 561.260 
	L 35.433, 632.126 
" />
<path d="M 162.993, 554.173 
	L 162.992, 554.173 
	L 35.433, 625.039 
" />
<path d="M 162.993, 547.086 
	L 162.992, 547.087 
	L 35.433, 617.953 
" />
<path d="M 162.993, 539.999 
	L 162.992, 540.000 
	L 35.433, 610.866 
" />
<path d="M 162.993, 532.913 
	L 162.992, 532.913 
	L 35.433, 603.780 
" />
<path d="M 162.993, 525.826 
	L 162.992, 525.827 
	L 35.433, 596.693 
" />
<path d="M 162.993, 518.740 
	L 162.992, 518.740 
	L 35.433, 589.606 
" />
<path d="M 162.993, 511.653 
	L 162.992, 511.654 
	L 35.433, 582.520 
" />
<path d="M 162.993, 504.566 
	L 162.992, 504.567 
	L 35.433, 575.433 
" />
<path d="M 162.993, 497.480 
	L 162.992, 497.480 
	L 35.433, 568.347 
" />
<path d="M 170.079, 632.125 
	L 170.079, 632.126 
	L 28.346, 702.992 
" />
<path d="M 170.079, 625.039 
	L 170.079, 625.039 
	L 28.346, 695.906 
" />
<path d="M 170.079, 617.952 
	L 170.079, 617.953 
	L 28.346, 688.819 
" />
<path d="M 170.079, 610.866 
	L 170.079, 610.866 
	L 28.346, 681.732 
" />
<path d="M 170.079, 603.779 
	L 170.079, 603.780 
	L 28.346, 674.646 
" />
<path d="M 170.079, 596.692 
	L 170.079, 596.693 
	L 28.346, 667.559 
" />
<path d="M 170.079, 589.606 
	L 170.079, 589.606 
	L 28.346, 660.473 
" />
<path d="M 170.079, 582.519 
	L 170.079, 582.520 
	L 28.346, 653.386 
" />
<path d="M 170.079, 575.432 
	L 170.079, 575.433 
	L 28.346, 646.299 
" />
<path d="M 170.079, 568.346 
	L 170.079, 568.347 
	L 28.346, 639.213 
" />
<path d="M 170.079, 561.259 
	L 170.079, 561.260 
	L 28.346, 632.126 
" />
<path d="M 170.079, 554.173 
	L 170.079, 554.173 
	L 28.346, 625.039 
" />
<path d="M 170.079, 547.086 
	L 170.079, 547.087 
	L 28.346, 617.953 
" />
<path d="M 170.079, 539.999 
	L 170.079, 540.000 
	L 28.346, 610.866 
" />
<path d="M 170.079, 532.913 
	L 170.079, 532.913 
	L 28.346, 603.780 
" />
<path d="M 170.079, 525.826 
	L 170.079, 525.827 
	L 28.346, 596.693 
" />
<path d="M 170.079, 518.740 
	L 170.079, 518.740 
	L 28.346, 589.606 
" />
<path d="M 170.079, 511.653 
	L 170.079, 511.654 
	L 28.346, 582.520 
" />
<path d="M 170.079, 504.566 
	L 170.079, 504.567 
	L 28.346, 575.433 
" />
<path d="M 170.079, 497.480 
	L 170.079, 497.480 
	L 28.346, 568.347 
" />
<path d="M 177.166, 632.125 
	L 177.165, 632.126 
	L 21.260, 702.992 
" />
<path d="M 177.166, 625.039 
	L 177.165, 625.039 
	L 21.260, 695.906 
" />
<path d="M 177.166, 617.952 
	L 177.165, 617.953 
	L 21.260, 688.819 
" />
<path d="M 177.166, 610.866 
	L 177.165, 610.866 
	L 21.260, 681.732 
" />
<path d="M 177.166, 603.779 
	L 177.165, 603.780 
	L 21.260, 674.646 
" />
<path d="M 177.166, 596.692 
	L 177.165, 596.693 
	L 21.260, 667.559 
" />
<path d="M 177.166, 589.606 
	L 177.165, 589.606 
	L 21.260, 660.473 
" />
<path d="M 177.166, 582.519 
	L 177.165, 582.520 
	L 21.260, 653.386 
" />
<path d="M 177.166, 575.432 
	L 177.165, 575.433 
	L 21.260, 646.299 
" />
<path d="M 177.166, 568.346 
	L 177.165, 568.347 
	L 21.260, 639.213 
" />
<path d="M 177.166, 561.259 
	L 177.165, 561.260 
	L 21.260, 632.126 
" />
<path d="M 177.166, 554.173 
	L 177.165, 554.173 
	L 21.260, 625.039 
" />
<path d="M 177.166, 547.086 
	L 177.165, 547.087 
	L 21.260, 617.953 
" />
<path d="M 177.166, 539.999 
	L 177.165, 540.000 
	L 21.260, 610.866 
" />
<path d="M 177.166, 532.913 
	L 177.165, 532.913 
	L 21.260, 603.780 
" />
<path d="M 177.166, 525.826 
	L 177.165, 525.827 
	L 21.260, 596.693 
" />
<path d="M 177.166, 518.740 
	L 177.165, 518.740 
	L 21.260, 589.606 
" />
<path d="M 177.166, 511.653 
	L 177.165, 511.654 
	L 21.260, 582.520 
" />
<path d="M 177.166, 504.566 
	L 177.165, 504.567 
	L 21.260, 575.433 
" />
<path d="M 177.166, 497.480 
	L 177.165, 497.480 
	L 21.260, 568.347 
" />
<path d="M 184.253, 632.125 
	L 184.252, 632.126 
	L 14.173, 702.992 
" />
<path d="M 184.253, 625.039 
	L 184.252, 625.039 
	L 14.173, 695.906 
" />
<path d="M 184.253, 617.952 
	L 184.252, 617.953 
	L 14.173, 688.819 
" />
<path d="M 184.253, 610.866 
	L 184.252, 610.866 
	L 14.173, 681.732 
" />
<path d="M 184.253, 603.779 
	L 184.252, 603.780 
	L 14.173, 674.646 
" />
<path d="M 184.253, 596.692 
	L 184.252, 596.693 
	L 14.173, 667.559 
" />
<path d="M 184.253, 589.606 
	L 184.252, 589.606 
	L 14.173, 660.473 
" />
<path d="M 184.253, 582.519 
	L 184.252, 582.520 
	L 14.173, 653.386 
" />
<path d="M 184.253, 575.432 
	L 184.252, 575.433 
	L 14.173, 646.299 
" />
<path d="M 184.253, 568.346 
	L 184.252, 568.347 
	L 14.173, 639.213 
" />
<path d="M 184.253, 561.259 
	L 184.252, 561.260 
	L 14.173, 632.126 
" />
<path d="M 184.253, 554.173 
	L 184.252, 554.173 
	L 14.173, 625.039 
" />
<path d="M 184.253, 547.086 
	L 184.252, 547.087 
	L 14.173, 617.953 
" />
<path d="M 184.253, 539.999 
	L 184.252, 540.000 
	L 14.173, 610.866 
" />
<path d="M 184.253, 532.913 
	L 184.252, 532.913 
	L 14.173, 603.780 
" />
<path d="M 184.253, 525.826 
	L 184.252, 525.827 
	L 14.173, 596.693 
" />
<path d="M 184.253, 518.740 
	L 184.252, 518.740 
	L 14.173, 589.606 
" />
<path d="M 184.253, 511.653 
	L 184.252, 511.654 
	L 14.173, 582.520 
" />
<path d="M 184.253, 504.566 
	L 184.252, 504.567 
	L 14.173, 575.433 
" />
<path d="M 184.253, 497.480 
	L 184.252, 497.480 
	L 14.173, 568.347 
" />
<path d="M 191.339, 632.125 
	L 191.339, 632.126 
	L 7.087, 702.992 
" />
<path d="M 191.339, 625.039 
	L 191.339, 625.039 
	L 7.087, 695.906 
" />
<path d="M 191.339, 617.952 
	L 191.339, 617.953 
	L 7.087, 688.819 
" />
<path d="M 191.339, 610.866 
	L 191.339, 610.866 
	L 7.087, 681.732 
" />
<path d="M 191.339, 603.779 
	L 191.339, 603.780 
	L 7.087, 674.646 
" />
<path d="M 191.339, 596.692 
	L 191.339, 596.693 
	L 7.087, 667.559 
" />
<path d="M 191.339, 589.606 
	L 191.339, 589.606 
	L 7.087, 660.473 
" />
<path d="M 191.339, 582.519 
	L 191.339, 582.520 
	L 7.087, 653.386 
" />
<path d="M 191.339, 575.432 
	L 191.339, 575.433 
	L 7.087, 646.299 
" />
<path d="M 191.339, 568.346 
	L 191.339, 568.347 
	L 7.087, 639.213 
" />
<path d="M 191.339, 561.259 
	L 191.339, 561.260 
	L 7.087, 632.126 
" />
<path d="M 191.339, 554.173 
	L 191.339, 554.173 
	L 7.087, 625.039 
" />
<path d="M 191.339, 547.086 
	L 191.339, 547.087 
	L 7.087, 617.953 
" />
<path d="M 191.339, 539.999 
	L 191.339, 540.000 
	L 7.087, 610.866 
" />
<path d="M 191.339, 532.913 
	L 191.339, 532.913 
	L 7.087, 603.780 
" />
<path d="M 191.339, 525.826 
	L 191.339, 525.827 
	L 7.087, 596.693 
" />
<path d="M 191.339, 518.740 
	L 191.339, 518.740 
	L 7.087, 589.606 
" />
<path d="M 191.339, 511.653 
	L 191.339, 511.654 
	L 7.087, 582.520 
" />
<path d="M 191.339, 504.566 
	L 191.339, 504.567 
	L 7.087, 575.433 
" />
<path d="M 191.339, 497.480 
	L 191.339, 497.480 
	L 7.087, 568.347 
" />
<path d="M 198.426, 632.125 
	L 198.425, 632.126 
	L 0.000, 702.992 
" />
<path d="M 198.426, 625.039 
	L 198.425, 625.039 
	L 0.000, 695.906 
" />
<path d="M 198.426, 617.952 
	L 198.425, 617.953 
	L 0.000, 688.819 
" />
<path d="M 198.426, 610.866 
	L 198.425, 610.866 
	L 0.000, 681.732 
" />
<path d="M 198.426, 603.779 
	L 198.425, 603.780 
	L 0.000, 674.646 
" />
<path d="M 198.426, 596.692 
	L 198.425, 596.693 
	L 0.000, 667.559 
" />
<path d="M 198.426, 589.606 
	L 198.425, 589.606 
	L 0.000, 660.473 
" />
<path d="M 198.426, 582.519 
	L 198.425, 582.520 
	L 0.000, 653.386 
" />
<path d="M 198.426, 575.432 
	L 198.425, 575.433 
	L 0.000, 646.299 
" />
<path d="M 198.426, 568.346 
	L 198.425, 568.347 
	L 0.000, 639.213 
" />
<path d="M 198.426, 561.259 
	L 198.425, 561.260 
	L 0.000, 632.126 
" />
<path d="M 198.426, 554.173 
	L 198.425, 554.173 
	L 0.000, 625.039 
" />
<path d="M 198.426, 547.086 
	L 198.425, 547.087 
	L 0.000, 617.953 
" />
<path d="M 198.426, 539.999 
	L 198.425, 540.000 
	L 0.000, 610.866 
" />
<path d="M 198.426, 532.913 
	L 198.425, 532.913 
	L 0.000, 603.780 
" />
<path d="M 198.426, 525.826 
	L 198.425, 525.827 
	L 0.000, 596.693 
" />
<path d="M 198.426, 518.740 
	L 198.425, 518.740 
	L 0.000, 589.606 
" />
<path d="M 198.426, 511.653 
	L 198.425, 511.654 
	L 0.000, 582.520 
" />
<path d="M 198.426, 504.566 
	L 198.425, 504.567 
	L 0.000, 575.433 
" />
<path d="M 198.426, 497.480 
	L 198.425, 497.480 
	L 0.000, 568.347 
" />
<path d="M 637.795, 620.787 
	L 637.795, 623.976 
	L 637.087, 625.039 
	L 635.669, 625.039 
	L 634.961, 623.976 
	L 634.961, 621.850 
	L 637.795, 621.850 
" />
<path d="M 633.543, 617.599 
	L 633.543, 616.536 
	L 637.795, 616.536 
" />
<path d="M 637.795, 617.599 
	L 637.795, 615.473 
" />
<path d="M 637.795, 612.284 
	L 637.795, 609.095 
	L 637.087, 608.032 
	L 635.669, 608.032 
	L 634.961, 609.095 
	L 634.961, 611.221 
" />
<path d="M 633.543, 611.221 
	L 637.795, 611.221 
" />
<path d="M 634.961, 605.906 
	L 637.087, 605.906 
	L 637.795, 604.843 
	L 637.795, 602.717 
	L 634.961, 602.717 
" />
<path d="M 637.795, 599.528 
	L 634.961, 599.528 
" />
<path d="M 635.669, 599.528 
	L 634.961, 598.465 
	L 635.669, 597.402 
	L 637.795, 597.402 
" />
<path d="M 635.669, 597.402 
	L 634.961, 596.339 
	L 635.669, 595.276 
	L 637.795, 595.276 
" />
<path d="M 637.087, 593.150 
	L 637.795, 592.087 
	L 637.795, 589.961 
	L 637.087, 588.898 
	L 634.252, 588.898 
	L 633.543, 589.961 
	L 633.543, 592.087 
	L 634.252, 593.150 
	L 637.087, 593.150 
" />
<path d="M 637.087, 586.772 
	L 637.795, 585.709 
	L 637.795, 583.583 
	L 637.087, 582.520 
	L 634.252, 582.520 
	L 633.543, 583.583 
	L 633.543, 585.709 
	L 634.252, 586.772 
	L 637.087, 586.772 
" />
<path d="M 637.795, 579.331 
	L 637.795, 577.205 
" />
<path d="M 637.795, 578.268 
	L 633.543, 578.268 
	L 634.252, 579.331 
" />
<path d="M 637.087, 569.764 
	L 637.795, 570.827 
	L 637.795, 571.890 
	L 637.087, 572.953 
	L 635.669, 572.953 
	L 634.961, 571.890 
	L 634.961, 570.827 
	L 635.669, 569.764 
" />
<path d="M 637.795, 566.575 
	L 637.087, 567.638 
	L 635.669, 567.638 
	L 634.961, 566.575 
	L 634.961, 565.512 
	L 635.669, 564.449 
	L 637.087, 564.449 
	L 637.795, 565.512 
	L 637.795, 566.575 
" />
<path d="M 634.961, 561.260 
	L 636.378, 561.260 
	L 637.795, 559.134 
	L 636.378, 557.008 
	L 634.961, 557.008 
" />
<path d="M 636.378, 554.882 
	L 636.378, 551.693 
	L 635.669, 550.630 
	L 634.961, 551.693 
	L 634.961, 553.819 
	L 635.669, 554.882 
	L 637.087, 554.882 
	L 637.795, 553.819 
	L 637.795, 550.630 
" />
<path d="M 634.961, 548.504 
	L 637.795, 548.504 
" />
<path d="M 636.378, 548.504 
	L 634.961, 546.378 
	L 634.961, 545.315 
" />
<path d="M 633.543, 534.685 
	L 637.795, 534.685 
	L 637.795, 532.559 
" />
<path d="M 634.961, 535.748 
	L 634.961, 532.559 
" />
<path d="M 636.378, 529.370 
	L 636.378, 526.181 
	L 635.669, 525.118 
	L 634.961, 526.181 
	L 634.961, 528.307 
	L 635.669, 529.370 
	L 637.087, 529.370 
	L 637.795, 528.307 
	L 637.795, 525.118 
" />
<path d="M 634.961, 519.803 
	L 634.961, 521.929 
	L 635.669, 522.992 
	L 636.378, 521.929 
	L 636.378, 520.866 
	L 637.087, 519.803 
	L 637.795, 520.866 
	L 637.795, 522.992 
" />
<path d="M 633.543, 515.551 
	L 637.795, 515.551 
	L 637.795, 513.425 
" />
<path d="M 634.961, 516.614 
	L 634.961, 513.425 
" />
<path d="M 634.252, 484.724 
	L 633.543, 483.661 
	L 633.543, 481.536 
	L 634.252, 480.473 
	L 634.961, 480.473 
	L 637.087, 484.724 
	L 637.795, 484.724 
	L 637.795, 480.473 
" />
<path d="M 637.087, 478.347 
	L 637.795, 477.284 
	L 637.795, 475.158 
	L 637.087, 474.095 
	L 634.252, 474.095 
	L 633.543, 475.158 
	L 633.543, 477.284 
	L 634.252, 478.347 
	L 637.087, 478.347 
" />
<path d="M 637.795, 470.906 
	L 637.795, 468.780 
" />
<path d="M 637.795, 469.843 
	L 633.543, 469.843 
	L 634.252, 470.906 
" />
<path d="M 637.795, 464.528 
	L 637.795, 463.465 
	L 636.378, 461.339 
	L 634.252, 461.339 
	L 633.543, 462.402 
	L 633.543, 464.528 
	L 634.252, 465.591 
	L 634.961, 465.591 
	L 635.669, 464.528 
	L 635.669, 461.339 
" />
<path d="M 635.669, 459.213 
	L 635.669, 454.961 
" />
<path d="M 637.795, 451.772 
	L 637.795, 449.646 
" />
<path d="M 637.795, 450.709 
	L 633.543, 450.709 
	L 634.252, 451.772 
" />
<path d="M 637.795, 445.394 
	L 637.795, 443.268 
" />
<path d="M 637.795, 444.331 
	L 633.543, 444.331 
	L 634.252, 445.394 
" />
<path d="M 635.669, 440.079 
	L 635.669, 435.827 
" />
<path d="M 634.252, 433.701 
	L 633.543, 432.638 
	L 633.543, 430.512 
	L 634.252, 429.449 
	L 634.961, 429.449 
	L 637.087, 433.701 
	L 637.795, 433.701 
	L 637.795, 429.449 
" />
<path d="M 637.087, 427.323 
	L 637.795, 426.260 
	L 637.795, 424.134 
	L 637.087, 423.071 
	L 636.378, 423.071 
	L 635.669, 424.134 
	L 635.669, 425.197 
	L 633.543, 423.071 
	L 633.543, 427.323 
" />
<path d="M 637.795, 413.504 
	L 637.795, 411.378 
" />
<path d="M 637.795, 412.441 
	L 633.543, 412.441 
	L 634.252, 413.504 
" />
<path d="M 637.795, 407.126 
	L 637.795, 406.063 
	L 636.378, 403.937 
	L 634.252, 403.937 
	L 633.543, 405.000 
	L 633.543, 407.126 
	L 634.252, 408.189 
	L 634.961, 408.189 
	L 635.669, 407.126 
	L 635.669, 403.937 
" />
<path d="M 635.669, 400.748 
	L 634.961, 400.748 
	L 634.961, 399.685 
	L 635.669, 399.685 
	L 635.669, 400.748 
" />
<path d="M 637.087, 400.748 
	L 637.087, 399.685 
	L 637.795, 399.685 
	L 637.795, 400.748 
	L 637.087, 400.748 
" />
<path d="M 637.795, 394.370 
	L 637.795, 392.244 
" />
<path d="M 637.795, 393.307 
	L 633.543, 393.307 
	L 634.252, 394.370 
" />
<path d="M 633.543, 389.055 
	L 633.543, 384.803 
	L 634.252, 384.803 
	L 636.378, 389.055 
	L 637.795, 389.055 
" />
</g>
</svg>
