<?xml version="1.0" encoding="UTF-8" standalone="no" ?>
<svg width="100%" height="100%" viewBox="0 0 732.047 561.969" xmlns="http://www.w3.org/2000/svg"><g>
</g><g style="stroke:rgb(0,0,0); fill:none; stroke-width:1.000mm" >
</g><g style="stroke:rgb(0,0,0); fill:none; stroke-width:0.100mm" >
<path d="M 0.709, 561.969 
	L 0.709, 0.709 
	L 732.047, 0.709 
	L 732.047, 561.969 
	L 0.709, 561.969 
" />
<path d="M 0.709, 561.968 
	L 0.709, 561.969 
	L 0.709, 207.638 
	L 496.772, 207.638 
	L 496.772, 561.969 
	L 0.709, 561.969 
" />
<path d="M 0.001, 561.968 
	L 0.000, 561.969 
	L 0.709, 562.677 
" />
<path d="M 0.001, 561.897 
	L 0.000, 561.898 
	L 0.709, 562.606 
" />
<path d="M 0.001, 561.826 
	L 0.000, 561.827 
	L 0.709, 562.536 
" />
<path d="M 0.001, 561.755 
	L 0.000, 561.756 
	L 0.709, 562.465 
" />
<path d="M 0.001, 561.684 
	L 0.000, 561.685 
	L 0.709, 562.394 
" />
<path d="M 0.001, 561.614 
	L 0.000, 561.614 
	L 0.709, 562.323 
" />
<path d="M 0.001, 561.543 
	L 0.000, 561.543 
	L 0.709, 562.252 
" />
<path d="M 0.001, 561.472 
	L 0.000, 561.473 
	L 0.709, 562.181 
" />
<path d="M 0.001, 561.401 
	L 0.000, 561.402 
	L 0.709, 562.110 
" />
<path d="M 0.001, 561.330 
	L 0.000, 561.331 
	L 0.709, 562.039 
" />
<path d="M 0.001, 561.259 
	L 0.000, 561.260 
	L 0.709, 561.969 
" />
<path d="M 0.001, 561.188 
	L 0.000, 561.189 
	L 0.709, 561.898 
" />
<path d="M 0.001, 561.118 
	L 0.000, 561.118 
	L 0.709, 561.827 
" />
<path d="M 0.001, 561.047 
	L 0.000, 561.047 
	L 0.709, 561.756 
" />
<path d="M 0.001, 560.976 
	L 0.000, 560.976 
	L 0.709, 561.685 
" />
<path d="M 0.001, 560.905 
	L 0.000, 560.906 
	L 0.709, 561.614 
" />
<path d="M 0.001, 560.834 
	L 0.000, 560.835 
	L 0.709, 561.543 
" />
<path d="M 0.001, 560.763 
	L 0.000, 560.764 
	L 0.709, 561.473 
" />
<path d="M 0.001, 560.692 
	L 0.000, 560.693 
	L 0.709, 561.402 
" />
<path d="M 0.001, 560.621 
	L 0.000, 560.622 
	L 0.709, 561.331 
" />
<path d="M 0.072, 561.968 
	L 0.071, 561.969 
	L 0.780, 562.677 
" />
<path d="M 0.072, 561.897 
	L 0.071, 561.898 
	L 0.780, 562.606 
" />
<path d="M 0.072, 561.826 
	L 0.071, 561.827 
	L 0.780, 562.536 
" />
<path d="M 0.072, 561.755 
	L 0.071, 561.756 
	L 0.780, 562.465 
" />
<path d="M 0.072, 561.684 
	L 0.071, 561.685 
	L 0.780, 562.394 
" />
<path d="M 0.072, 561.614 
	L 0.071, 561.614 
	L 0.780, 562.323 
" />
<path d="M 0.072, 561.543 
	L 0.071, 561.543 
	L 0.780, 562.252 
" />
<path d="M 0.072, 561.472 
	L 0.071, 561.473 
	L 0.780, 562.181 
" />
<path d="M 0.072, 561.401 
	L 0.071, 561.402 
	L 0.780, 562.110 
" />
<path d="M 0.072, 561.330 
	L 0.071, 561.331 
	L 0.780, 562.039 
" />
<path d="M 0.072, 561.259 
	L 0.071, 561.260 
	L 0.780, 561.969 
" />
<path d="M 0.072, 561.188 
	L 0.071, 561.189 
	L 0.780, 561.898 
" />
<path d="M 0.072, 561.118 
	L 0.071, 561.118 
	L 0.780, 561.827 
" />
<path d="M 0.072, 561.047 
	L 0.071, 561.047 
	L 0.780, 561.756 
" />
<path d="M 0.072, 560.976 
	L 0.071, 560.976 
	L 0.780, 561.685 
" />
<path d="M 0.072, 560.905 
	L 0.071, 560.906 
	L 0.780, 561.614 
" />
<path d="M 0.072, 560.834 
	L 0.071, 560.835 
	L 0.780, 561.543 
" />
<path d="M 0.072, 560.763 
	L 0.071, 560.764 
	L 0.780, 561.473 
" />
<path d="M 0.072, 560.692 
	L 0.071, 560.693 
	L 0.780, 561.402 
" />
<path d="M 0.072, 560.621 
	L 0.071, 560.622 
	L 0.780, 561.331 
" />
<path d="M 0.142, 561.968 
	L 0.142, 561.969 
	L 0.850, 562.677 
" />
<path d="M 0.142, 561.897 
	L 0.142, 561.898 
	L 0.850, 562.606 
" />
<path d="M 0.142, 561.826 
	L 0.142, 561.827 
	L 0.850, 562.536 
" />
<path d="M 0.142, 561.755 
	L 0.142, 561.756 
	L 0.850, 562.465 
" />
<path d="M 0.142, 561.684 
	L 0.142, 561.685 
	L 0.850, 562.394 
" />
<path d="M 0.142, 561.614 
	L 0.142, 561.614 
	L 0.850, 562.323 
" />
<path d="M 0.142, 561.543 
	L 0.142, 561.543 
	L 0.850, 562.252 
" />
<path d="M 0.142, 561.472 
	L 0.142, 561.473 
	L 0.850, 562.181 
" />
<path d="M 0.142, 561.401 
	L 0.142, 561.402 
	L 0.850, 562.110 
" />
<path d="M 0.142, 561.330 
	L 0.142, 561.331 
	L 0.850, 562.039 
" />
<path d="M 0.142, 561.259 
	L 0.142, 561.260 
	L 0.850, 561.969 
" />
<path d="M 0.142, 561.188 
	L 0.142, 561.189 
	L 0.850, 561.898 
" />
<path d="M 0.142, 561.118 
	L 0.142, 561.118 
	L 0.850, 561.827 
" />
<path d="M 0.142, 561.047 
	L 0.142, 561.047 
	L 0.850, 561.756 
" />
<path d="M 0.142, 560.976 
	L 0.142, 560.976 
	L 0.850, 561.685 
" />
<path d="M 0.142, 560.905 
	L 0.142, 560.906 
	L 0.850, 561.614 
" />
<path d="M 0.142, 560.834 
	L 0.142, 560.835 
	L 0.850, 561.543 
" />
<path d="M 0.142, 560.763 
	L 0.142, 560.764 
	L 0.850, 561.473 
" />
<path d="M 0.142, 560.692 
	L 0.142, 560.693 
	L 0.850, 561.402 
" />
<path d="M 0.142, 560.621 
	L 0.142, 560.622 
	L 0.850, 561.331 
" />
<path d="M 0.213, 561.968 
	L 0.213, 561.969 
	L 0.921, 562.677 
" />
<path d="M 0.213, 561.897 
	L 0.213, 561.898 
	L 0.921, 562.606 
" />
<path d="M 0.213, 561.826 
	L 0.213, 561.827 
	L 0.921, 562.536 
" />
<path d="M 0.213, 561.755 
	L 0.213, 561.756 
	L 0.921, 562.465 
" />
<path d="M 0.213, 561.684 
	L 0.213, 561.685 
	L 0.921, 562.394 
" />
<path d="M 0.213, 561.614 
	L 0.213, 561.614 
	L 0.921, 562.323 
" />
<path d="M 0.213, 561.543 
	L 0.213, 561.543 
	L 0.921, 562.252 
" />
<path d="M 0.213, 561.472 
	L 0.213, 561.473 
	L 0.921, 562.181 
" />
<path d="M 0.213, 561.401 
	L 0.213, 561.402 
	L 0.921, 562.110 
" />
<path d="M 0.213, 561.330 
	L 0.213, 561.331 
	L 0.921, 562.039 
" />
<path d="M 0.213, 561.259 
	L 0.213, 561.260 
	L 0.921, 561.969 
" />
<path d="M 0.213, 561.188 
	L 0.213, 561.189 
	L 0.921, 561.898 
" />
<path d="M 0.213, 561.118 
	L 0.213, 561.118 
	L 0.921, 561.827 
" />
<path d="M 0.213, 561.047 
	L 0.213, 561.047 
	L 0.921, 561.756 
" />
<path d="M 0.213, 560.976 
	L 0.213, 560.976 
	L 0.921, 561.685 
" />
<path d="M 0.213, 560.905 
	L 0.213, 560.906 
	L 0.921, 561.614 
" />
<path d="M 0.213, 560.834 
	L 0.213, 560.835 
	L 0.921, 561.543 
" />
<path d="M 0.213, 560.763 
	L 0.213, 560.764 
	L 0.921, 561.473 
" />
<path d="M 0.213, 560.692 
	L 0.213, 560.693 
	L 0.921, 561.402 
" />
<path d="M 0.213, 560.621 
	L 0.213, 560.622 
	L 0.921, 561.331 
" />
<path d="M 0.284, 561.968 
	L 0.283, 561.969 
	L 0.992, 562.677 
" />
<path d="M 0.284, 561.897 
	L 0.283, 561.898 
	L 0.992, 562.606 
" />
<path d="M 0.284, 561.826 
	L 0.283, 561.827 
	L 0.992, 562.536 
" />
<path d="M 0.284, 561.755 
	L 0.283, 561.756 
	L 0.992, 562.465 
" />
<path d="M 0.284, 561.684 
	L 0.283, 561.685 
	L 0.992, 562.394 
" />
<path d="M 0.284, 561.614 
	L 0.283, 561.614 
	L 0.992, 562.323 
" />
<path d="M 0.284, 561.543 
	L 0.283, 561.543 
	L 0.992, 562.252 
" />
<path d="M 0.284, 561.472 
	L 0.283, 561.473 
	L 0.992, 562.181 
" />
<path d="M 0.284, 561.401 
	L 0.283, 561.402 
	L 0.992, 562.110 
" />
<path d="M 0.284, 561.330 
	L 0.283, 561.331 
	L 0.992, 562.039 
" />
<path d="M 0.284, 561.259 
	L 0.283, 561.260 
	L 0.992, 561.969 
" />
<path d="M 0.284, 561.188 
	L 0.283, 561.189 
	L 0.992, 561.898 
" />
<path d="M 0.284, 561.118 
	L 0.283, 561.118 
	L 0.992, 561.827 
" />
<path d="M 0.284, 561.047 
	L 0.283, 561.047 
	L 0.992, 561.756 
" />
<path d="M 0.284, 560.976 
	L 0.283, 560.976 
	L 0.992, 561.685 
" />
<path d="M 0.284, 560.905 
	L 0.283, 560.906 
	L 0.992, 561.614 
" />
<path d="M 0.284, 560.834 
	L 0.283, 560.835 
	L 0.992, 561.543 
" />
<path d="M 0.284, 560.763 
	L 0.283, 560.764 
	L 0.992, 561.473 
" />
<path d="M 0.284, 560.692 
	L 0.283, 560.693 
	L 0.992, 561.402 
" />
<path d="M 0.284, 560.621 
	L 0.283, 560.622 
	L 0.992, 561.331 
" />
<path d="M 0.355, 561.968 
	L 0.354, 561.969 
	L 1.063, 562.677 
" />
<path d="M 0.355, 561.897 
	L 0.354, 561.898 
	L 1.063, 562.606 
" />
<path d="M 0.355, 561.826 
	L 0.354, 561.827 
	L 1.063, 562.536 
" />
<path d="M 0.355, 561.755 
	L 0.354, 561.756 
	L 1.063, 562.465 
" />
<path d="M 0.355, 561.684 
	L 0.354, 561.685 
	L 1.063, 562.394 
" />
<path d="M 0.355, 561.614 
	L 0.354, 561.614 
	L 1.063, 562.323 
" />
<path d="M 0.355, 561.543 
	L 0.354, 561.543 
	L 1.063, 562.252 
" />
<path d="M 0.355, 561.472 
	L 0.354, 561.473 
	L 1.063, 562.181 
" />
<path d="M 0.355, 561.401 
	L 0.354, 561.402 
	L 1.063, 562.110 
" />
<path d="M 0.355, 561.330 
	L 0.354, 561.331 
	L 1.063, 562.039 
" />
<path d="M 0.355, 561.259 
	L 0.354, 561.260 
	L 1.063, 561.969 
" />
<path d="M 0.355, 561.188 
	L 0.354, 561.189 
	L 1.063, 561.898 
" />
<path d="M 0.355, 561.118 
	L 0.354, 561.118 
	L 1.063, 561.827 
" />
<path d="M 0.355, 561.047 
	L 0.354, 561.047 
	L 1.063, 561.756 
" />
<path d="M 0.355, 560.976 
	L 0.354, 560.976 
	L 1.063, 561.685 
" />
<path d="M 0.355, 560.905 
	L 0.354, 560.906 
	L 1.063, 561.614 
" />
<path d="M 0.355, 560.834 
	L 0.354, 560.835 
	L 1.063, 561.543 
" />
<path d="M 0.355, 560.763 
	L 0.354, 560.764 
	L 1.063, 561.473 
" />
<path d="M 0.355, 560.692 
	L 0.354, 560.693 
	L 1.063, 561.402 
" />
<path d="M 0.355, 560.621 
	L 0.354, 560.622 
	L 1.063, 561.331 
" />
<path d="M 0.426, 561.968 
	L 0.425, 561.969 
	L 1.134, 562.677 
" />
<path d="M 0.426, 561.897 
	L 0.425, 561.898 
	L 1.134, 562.606 
" />
<path d="M 0.426, 561.826 
	L 0.425, 561.827 
	L 1.134, 562.536 
" />
<path d="M 0.426, 561.755 
	L 0.425, 561.756 
	L 1.134, 562.465 
" />
<path d="M 0.426, 561.684 
	L 0.425, 561.685 
	L 1.134, 562.394 
" />
<path d="M 0.426, 561.614 
	L 0.425, 561.614 
	L 1.134, 562.323 
" />
<path d="M 0.426, 561.543 
	L 0.425, 561.543 
	L 1.134, 562.252 
" />
<path d="M 0.426, 561.472 
	L 0.425, 561.473 
	L 1.134, 562.181 
" />
<path d="M 0.426, 561.401 
	L 0.425, 561.402 
	L 1.134, 562.110 
" />
<path d="M 0.426, 561.330 
	L 0.425, 561.331 
	L 1.134, 562.039 
" />
<path d="M 0.426, 561.259 
	L 0.425, 561.260 
	L 1.134, 561.969 
" />
<path d="M 0.426, 561.188 
	L 0.425, 561.189 
	L 1.134, 561.898 
" />
<path d="M 0.426, 561.118 
	L 0.425, 561.118 
	L 1.134, 561.827 
" />
<path d="M 0.426, 561.047 
	L 0.425, 561.047 
	L 1.134, 561.756 
" />
<path d="M 0.426, 560.976 
	L 0.425, 560.976 
	L 1.134, 561.685 
" />
<path d="M 0.426, 560.905 
	L 0.425, 560.906 
	L 1.134, 561.614 
" />
<path d="M 0.426, 560.834 
	L 0.425, 560.835 
	L 1.134, 561.543 
" />
<path d="M 0.426, 560.763 
	L 0.425, 560.764 
	L 1.134, 561.473 
" />
<path d="M 0.426, 560.692 
	L 0.425, 560.693 
	L 1.134, 561.402 
" />
<path d="M 0.426, 560.621 
	L 0.425, 560.622 
	L 1.134, 561.331 
" />
<path d="M 0.497, 561.968 
	L 0.496, 561.969 
	L 1.205, 562.677 
" />
<path d="M 0.497, 561.897 
	L 0.496, 561.898 
	L 1.205, 562.606 
" />
<path d="M 0.497, 561.826 
	L 0.496, 561.827 
	L 1.205, 562.536 
" />
<path d="M 0.497, 561.755 
	L 0.496, 561.756 
	L 1.205, 562.465 
" />
<path d="M 0.497, 561.684 
	L 0.496, 561.685 
	L 1.205, 562.394 
" />
<path d="M 0.497, 561.614 
	L 0.496, 561.614 
	L 1.205, 562.323 
" />
<path d="M 0.497, 561.543 
	L 0.496, 561.543 
	L 1.205, 562.252 
" />
<path d="M 0.497, 561.472 
	L 0.496, 561.473 
	L 1.205, 562.181 
" />
<path d="M 0.497, 561.401 
	L 0.496, 561.402 
	L 1.205, 562.110 
" />
<path d="M 0.497, 561.330 
	L 0.496, 561.331 
	L 1.205, 562.039 
" />
<path d="M 0.497, 561.259 
	L 0.496, 561.260 
	L 1.205, 561.969 
" />
<path d="M 0.497, 561.188 
	L 0.496, 561.189 
	L 1.205, 561.898 
" />
<path d="M 0.497, 561.118 
	L 0.496, 561.118 
	L 1.205, 561.827 
" />
<path d="M 0.497, 561.047 
	L 0.496, 561.047 
	L 1.205, 561.756 
" />
<path d="M 0.497, 560.976 
	L 0.496, 560.976 
	L 1.205, 561.685 
" />
<path d="M 0.497, 560.905 
	L 0.496, 560.906 
	L 1.205, 561.614 
" />
<path d="M 0.497, 560.834 
	L 0.496, 560.835 
	L 1.205, 561.543 
" />
<path d="M 0.497, 560.763 
	L 0.496, 560.764 
	L 1.205, 561.473 
" />
<path d="M 0.497, 560.692 
	L 0.496, 560.693 
	L 1.205, 561.402 
" />
<path d="M 0.497, 560.621 
	L 0.496, 560.622 
	L 1.205, 561.331 
" />
<path d="M 0.568, 561.968 
	L 0.567, 561.969 
	L 1.276, 562.677 
" />
<path d="M 0.568, 561.897 
	L 0.567, 561.898 
	L 1.276, 562.606 
" />
<path d="M 0.568, 561.826 
	L 0.567, 561.827 
	L 1.276, 562.536 
" />
<path d="M 0.568, 561.755 
	L 0.567, 561.756 
	L 1.276, 562.465 
" />
<path d="M 0.568, 561.684 
	L 0.567, 561.685 
	L 1.276, 562.394 
" />
<path d="M 0.568, 561.614 
	L 0.567, 561.614 
	L 1.276, 562.323 
" />
<path d="M 0.568, 561.543 
	L 0.567, 561.543 
	L 1.276, 562.252 
" />
<path d="M 0.568, 561.472 
	L 0.567, 561.473 
	L 1.276, 562.181 
" />
<path d="M 0.568, 561.401 
	L 0.567, 561.402 
	L 1.276, 562.110 
" />
<path d="M 0.568, 561.330 
	L 0.567, 561.331 
	L 1.276, 562.039 
" />
<path d="M 0.568, 561.259 
	L 0.567, 561.260 
	L 1.276, 561.969 
" />
<path d="M 0.568, 561.188 
	L 0.567, 561.189 
	L 1.276, 561.898 
" />
<path d="M 0.568, 561.118 
	L 0.567, 561.118 
	L 1.276, 561.827 
" />
<path d="M 0.568, 561.047 
	L 0.567, 561.047 
	L 1.276, 561.756 
" />
<path d="M 0.568, 560.976 
	L 0.567, 560.976 
	L 1.276, 561.685 
" />
<path d="M 0.568, 560.905 
	L 0.567, 560.906 
	L 1.276, 561.614 
" />
<path d="M 0.568, 560.834 
	L 0.567, 560.835 
	L 1.276, 561.543 
" />
<path d="M 0.568, 560.763 
	L 0.567, 560.764 
	L 1.276, 561.473 
" />
<path d="M 0.568, 560.692 
	L 0.567, 560.693 
	L 1.276, 561.402 
" />
<path d="M 0.568, 560.621 
	L 0.567, 560.622 
	L 1.276, 561.331 
" />
<path d="M 0.639, 561.968 
	L 0.638, 561.969 
	L 1.346, 562.677 
" />
<path d="M 0.639, 561.897 
	L 0.638, 561.898 
	L 1.346, 562.606 
" />
<path d="M 0.639, 561.826 
	L 0.638, 561.827 
	L 1.346, 562.536 
" />
<path d="M 0.639, 561.755 
	L 0.638, 561.756 
	L 1.346, 562.465 
" />
<path d="M 0.639, 561.684 
	L 0.638, 561.685 
	L 1.346, 562.394 
" />
<path d="M 0.639, 561.614 
	L 0.638, 561.614 
	L 1.346, 562.323 
" />
<path d="M 0.639, 561.543 
	L 0.638, 561.543 
	L 1.346, 562.252 
" />
<path d="M 0.639, 561.472 
	L 0.638, 561.473 
	L 1.346, 562.181 
" />
<path d="M 0.639, 561.401 
	L 0.638, 561.402 
	L 1.346, 562.110 
" />
<path d="M 0.639, 561.330 
	L 0.638, 561.331 
	L 1.346, 562.039 
" />
<path d="M 0.639, 561.259 
	L 0.638, 561.260 
	L 1.346, 561.969 
" />
<path d="M 0.639, 561.188 
	L 0.638, 561.189 
	L 1.346, 561.898 
" />
<path d="M 0.639, 561.118 
	L 0.638, 561.118 
	L 1.346, 561.827 
" />
<path d="M 0.639, 561.047 
	L 0.638, 561.047 
	L 1.346, 561.756 
" />
<path d="M 0.639, 560.976 
	L 0.638, 560.976 
	L 1.346, 561.685 
" />
<path d="M 0.639, 560.905 
	L 0.638, 560.906 
	L 1.346, 561.614 
" />
<path d="M 0.639, 560.834 
	L 0.638, 560.835 
	L 1.346, 561.543 
" />
<path d="M 0.639, 560.763 
	L 0.638, 560.764 
	L 1.346, 561.473 
" />
<path d="M 0.639, 560.692 
	L 0.638, 560.693 
	L 1.346, 561.402 
" />
<path d="M 0.639, 560.621 
	L 0.638, 560.622 
	L 1.346, 561.331 
" />
<path d="M 0.709, 561.968 
	L 0.709, 561.969 
	L 1.417, 562.677 
" />
<path d="M 0.709, 561.897 
	L 0.709, 561.898 
	L 1.417, 562.606 
" />
<path d="M 0.709, 561.826 
	L 0.709, 561.827 
	L 1.417, 562.536 
" />
<path d="M 0.709, 561.755 
	L 0.709, 561.756 
	L 1.417, 562.465 
" />
<path d="M 0.709, 561.684 
	L 0.709, 561.685 
	L 1.417, 562.394 
" />
<path d="M 0.709, 561.614 
	L 0.709, 561.614 
	L 1.417, 562.323 
" />
<path d="M 0.709, 561.543 
	L 0.709, 561.543 
	L 1.417, 562.252 
" />
<path d="M 0.709, 561.472 
	L 0.709, 561.473 
	L 1.417, 562.181 
" />
<path d="M 0.709, 561.401 
	L 0.709, 561.402 
	L 1.417, 562.110 
" />
<path d="M 0.709, 561.330 
	L 0.709, 561.331 
	L 1.417, 562.039 
" />
<path d="M 0.709, 561.259 
	L 0.709, 561.260 
	L 1.417, 561.969 
" />
<path d="M 0.709, 561.188 
	L 0.709, 561.189 
	L 1.417, 561.898 
" />
<path d="M 0.709, 561.118 
	L 0.709, 561.118 
	L 1.417, 561.827 
" />
<path d="M 0.709, 561.047 
	L 0.709, 561.047 
	L 1.417, 561.756 
" />
<path d="M 0.709, 560.976 
	L 0.709, 560.976 
	L 1.417, 561.685 
" />
<path d="M 0.709, 560.905 
	L 0.709, 560.906 
	L 1.417, 561.614 
" />
<path d="M 0.709, 560.834 
	L 0.709, 560.835 
	L 1.417, 561.543 
" />
<path d="M 0.709, 560.763 
	L 0.709, 560.764 
	L 1.417, 561.473 
" />
<path d="M 0.709, 560.692 
	L 0.709, 560.693 
	L 1.417, 561.402 
" />
<path d="M 0.709, 560.621 
	L 0.709, 560.622 
	L 1.417, 561.331 
" />
<path d="M 0.780, 561.968 
	L 0.780, 561.969 
	L 1.488, 562.677 
" />
<path d="M 0.780, 561.897 
	L 0.780, 561.898 
	L 1.488, 562.606 
" />
<path d="M 0.780, 561.826 
	L 0.780, 561.827 
	L 1.488, 562.536 
" />
<path d="M 0.780, 561.755 
	L 0.780, 561.756 
	L 1.488, 562.465 
" />
<path d="M 0.780, 561.684 
	L 0.780, 561.685 
	L 1.488, 562.394 
" />
<path d="M 0.780, 561.614 
	L 0.780, 561.614 
	L 1.488, 562.323 
" />
<path d="M 0.780, 561.543 
	L 0.780, 561.543 
	L 1.488, 562.252 
" />
<path d="M 0.780, 561.472 
	L 0.780, 561.473 
	L 1.488, 562.181 
" />
<path d="M 0.780, 561.401 
	L 0.780, 561.402 
	L 1.488, 562.110 
" />
<path d="M 0.780, 561.330 
	L 0.780, 561.331 
	L 1.488, 562.039 
" />
<path d="M 0.780, 561.259 
	L 0.780, 561.260 
	L 1.488, 561.969 
" />
<path d="M 0.780, 561.188 
	L 0.780, 561.189 
	L 1.488, 561.898 
" />
<path d="M 0.780, 561.118 
	L 0.780, 561.118 
	L 1.488, 561.827 
" />
<path d="M 0.780, 561.047 
	L 0.780, 561.047 
	L 1.488, 561.756 
" />
<path d="M 0.780, 560.976 
	L 0.780, 560.976 
	L 1.488, 561.685 
" />
<path d="M 0.780, 560.905 
	L 0.780, 560.906 
	L 1.488, 561.614 
" />
<path d="M 0.780, 560.834 
	L 0.780, 560.835 
	L 1.488, 561.543 
" />
<path d="M 0.780, 560.763 
	L 0.780, 560.764 
	L 1.488, 561.473 
" />
<path d="M 0.780, 560.692 
	L 0.780, 560.693 
	L 1.488, 561.402 
" />
<path d="M 0.780, 560.621 
	L 0.780, 560.622 
	L 1.488, 561.331 
" />
<path d="M 0.851, 561.968 
	L 0.850, 561.969 
	L 1.559, 562.677 
" />
<path d="M 0.851, 561.897 
	L 0.850, 561.898 
	L 1.559, 562.606 
" />
<path d="M 0.851, 561.826 
	L 0.850, 561.827 
	L 1.559, 562.536 
" />
<path d="M 0.851, 561.755 
	L 0.850, 561.756 
	L 1.559, 562.465 
" />
<path d="M 0.851, 561.684 
	L 0.850, 561.685 
	L 1.559, 562.394 
" />
<path d="M 0.851, 561.614 
	L 0.850, 561.614 
	L 1.559, 562.323 
" />
<path d="M 0.851, 561.543 
	L 0.850, 561.543 
	L 1.559, 562.252 
" />
<path d="M 0.851, 561.472 
	L 0.850, 561.473 
	L 1.559, 562.181 
" />
<path d="M 0.851, 561.401 
	L 0.850, 561.402 
	L 1.559, 562.110 
" />
<path d="M 0.851, 561.330 
	L 0.850, 561.331 
	L 1.559, 562.039 
" />
<path d="M 0.851, 561.259 
	L 0.850, 561.260 
	L 1.559, 561.969 
" />
<path d="M 0.851, 561.188 
	L 0.850, 561.189 
	L 1.559, 561.898 
" />
<path d="M 0.851, 561.118 
	L 0.850, 561.118 
	L 1.559, 561.827 
" />
<path d="M 0.851, 561.047 
	L 0.850, 561.047 
	L 1.559, 561.756 
" />
<path d="M 0.851, 560.976 
	L 0.850, 560.976 
	L 1.559, 561.685 
" />
<path d="M 0.851, 560.905 
	L 0.850, 560.906 
	L 1.559, 561.614 
" />
<path d="M 0.851, 560.834 
	L 0.850, 560.835 
	L 1.559, 561.543 
" />
<path d="M 0.851, 560.763 
	L 0.850, 560.764 
	L 1.559, 561.473 
" />
<path d="M 0.851, 560.692 
	L 0.850, 560.693 
	L 1.559, 561.402 
" />
<path d="M 0.851, 560.621 
	L 0.850, 560.622 
	L 1.559, 561.331 
" />
<path d="M 0.922, 561.968 
	L 0.921, 561.969 
	L 1.630, 562.677 
" />
<path d="M 0.922, 561.897 
	L 0.921, 561.898 
	L 1.630, 562.606 
" />
<path d="M 0.922, 561.826 
	L 0.921, 561.827 
	L 1.630, 562.536 
" />
<path d="M 0.922, 561.755 
	L 0.921, 561.756 
	L 1.630, 562.465 
" />
<path d="M 0.922, 561.684 
	L 0.921, 561.685 
	L 1.630, 562.394 
" />
<path d="M 0.922, 561.614 
	L 0.921, 561.614 
	L 1.630, 562.323 
" />
<path d="M 0.922, 561.543 
	L 0.921, 561.543 
	L 1.630, 562.252 
" />
<path d="M 0.922, 561.472 
	L 0.921, 561.473 
	L 1.630, 562.181 
" />
<path d="M 0.922, 561.401 
	L 0.921, 561.402 
	L 1.630, 562.110 
" />
<path d="M 0.922, 561.330 
	L 0.921, 561.331 
	L 1.630, 562.039 
" />
<path d="M 0.922, 561.259 
	L 0.921, 561.260 
	L 1.630, 561.969 
" />
<path d="M 0.922, 561.188 
	L 0.921, 561.189 
	L 1.630, 561.898 
" />
<path d="M 0.922, 561.118 
	L 0.921, 561.118 
	L 1.630, 561.827 
" />
<path d="M 0.922, 561.047 
	L 0.921, 561.047 
	L 1.630, 561.756 
" />
<path d="M 0.922, 560.976 
	L 0.921, 560.976 
	L 1.630, 561.685 
" />
<path d="M 0.922, 560.905 
	L 0.921, 560.906 
	L 1.630, 561.614 
" />
<path d="M 0.922, 560.834 
	L 0.921, 560.835 
	L 1.630, 561.543 
" />
<path d="M 0.922, 560.763 
	L 0.921, 560.764 
	L 1.630, 561.473 
" />
<path d="M 0.922, 560.692 
	L 0.921, 560.693 
	L 1.630, 561.402 
" />
<path d="M 0.922, 560.621 
	L 0.921, 560.622 
	L 1.630, 561.331 
" />
<path d="M 0.993, 561.968 
	L 0.992, 561.969 
	L 1.701, 562.677 
" />
<path d="M 0.993, 561.897 
	L 0.992, 561.898 
	L 1.701, 562.606 
" />
<path d="M 0.993, 561.826 
	L 0.992, 561.827 
	L 1.701, 562.536 
" />
<path d="M 0.993, 561.755 
	L 0.992, 561.756 
	L 1.701, 562.465 
" />
<path d="M 0.993, 561.684 
	L 0.992, 561.685 
	L 1.701, 562.394 
" />
<path d="M 0.993, 561.614 
	L 0.992, 561.614 
	L 1.701, 562.323 
" />
<path d="M 0.993, 561.543 
	L 0.992, 561.543 
	L 1.701, 562.252 
" />
<path d="M 0.993, 561.472 
	L 0.992, 561.473 
	L 1.701, 562.181 
" />
<path d="M 0.993, 561.401 
	L 0.992, 561.402 
	L 1.701, 562.110 
" />
<path d="M 0.993, 561.330 
	L 0.992, 561.331 
	L 1.701, 562.039 
" />
<path d="M 0.993, 561.259 
	L 0.992, 561.260 
	L 1.701, 561.969 
" />
<path d="M 0.993, 561.188 
	L 0.992, 561.189 
	L 1.701, 561.898 
" />
<path d="M 0.993, 561.118 
	L 0.992, 561.118 
	L 1.701, 561.827 
" />
<path d="M 0.993, 561.047 
	L 0.992, 561.047 
	L 1.701, 561.756 
" />
<path d="M 0.993, 560.976 
	L 0.992, 560.976 
	L 1.701, 561.685 
" />
<path d="M 0.993, 560.905 
	L 0.992, 560.906 
	L 1.701, 561.614 
" />
<path d="M 0.993, 560.834 
	L 0.992, 560.835 
	L 1.701, 561.543 
" />
<path d="M 0.993, 560.763 
	L 0.992, 560.764 
	L 1.701, 561.473 
" />
<path d="M 0.993, 560.692 
	L 0.992, 560.693 
	L 1.701, 561.402 
" />
<path d="M 0.993, 560.621 
	L 0.992, 560.622 
	L 1.701, 561.331 
" />
<path d="M 1.064, 561.968 
	L 1.063, 561.969 
	L 1.772, 562.677 
" />
<path d="M 1.064, 561.897 
	L 1.063, 561.898 
	L 1.772, 562.606 
" />
<path d="M 1.064, 561.826 
	L 1.063, 561.827 
	L 1.772, 562.536 
" />
<path d="M 1.064, 561.755 
	L 1.063, 561.756 
	L 1.772, 562.465 
" />
<path d="M 1.064, 561.684 
	L 1.063, 561.685 
	L 1.772, 562.394 
" />
<path d="M 1.064, 561.614 
	L 1.063, 561.614 
	L 1.772, 562.323 
" />
<path d="M 1.064, 561.543 
	L 1.063, 561.543 
	L 1.772, 562.252 
" />
<path d="M 1.064, 561.472 
	L 1.063, 561.473 
	L 1.772, 562.181 
" />
<path d="M 1.064, 561.401 
	L 1.063, 561.402 
	L 1.772, 562.110 
" />
<path d="M 1.064, 561.330 
	L 1.063, 561.331 
	L 1.772, 562.039 
" />
<path d="M 1.064, 561.259 
	L 1.063, 561.260 
	L 1.772, 561.969 
" />
<path d="M 1.064, 561.188 
	L 1.063, 561.189 
	L 1.772, 561.898 
" />
<path d="M 1.064, 561.118 
	L 1.063, 561.118 
	L 1.772, 561.827 
" />
<path d="M 1.064, 561.047 
	L 1.063, 561.047 
	L 1.772, 561.756 
" />
<path d="M 1.064, 560.976 
	L 1.063, 560.976 
	L 1.772, 561.685 
" />
<path d="M 1.064, 560.905 
	L 1.063, 560.906 
	L 1.772, 561.614 
" />
<path d="M 1.064, 560.834 
	L 1.063, 560.835 
	L 1.772, 561.543 
" />
<path d="M 1.064, 560.763 
	L 1.063, 560.764 
	L 1.772, 561.473 
" />
<path d="M 1.064, 560.692 
	L 1.063, 560.693 
	L 1.772, 561.402 
" />
<path d="M 1.064, 560.621 
	L 1.063, 560.622 
	L 1.772, 561.331 
" />
<path d="M 1.135, 561.968 
	L 1.134, 561.969 
	L 1.843, 562.677 
" />
<path d="M 1.135, 561.897 
	L 1.134, 561.898 
	L 1.843, 562.606 
" />
<path d="M 1.135, 561.826 
	L 1.134, 561.827 
	L 1.843, 562.536 
" />
<path d="M 1.135, 561.755 
	L 1.134, 561.756 
	L 1.843, 562.465 
" />
<path d="M 1.135, 561.684 
	L 1.134, 561.685 
	L 1.843, 562.394 
" />
<path d="M 1.135, 561.614 
	L 1.134, 561.614 
	L 1.843, 562.323 
" />
<path d="M 1.135, 561.543 
	L 1.134, 561.543 
	L 1.843, 562.252 
" />
<path d="M 1.135, 561.472 
	L 1.134, 561.473 
	L 1.843, 562.181 
" />
<path d="M 1.135, 561.401 
	L 1.134, 561.402 
	L 1.843, 562.110 
" />
<path d="M 1.135, 561.330 
	L 1.134, 561.331 
	L 1.843, 562.039 
" />
<path d="M 1.135, 561.259 
	L 1.134, 561.260 
	L 1.843, 561.969 
" />
<path d="M 1.135, 561.188 
	L 1.134, 561.189 
	L 1.843, 561.898 
" />
<path d="M 1.135, 561.118 
	L 1.134, 561.118 
	L 1.843, 561.827 
" />
<path d="M 1.135, 561.047 
	L 1.134, 561.047 
	L 1.843, 561.756 
" />
<path d="M 1.135, 560.976 
	L 1.134, 560.976 
	L 1.843, 561.685 
" />
<path d="M 1.135, 560.905 
	L 1.134, 560.906 
	L 1.843, 561.614 
" />
<path d="M 1.135, 560.834 
	L 1.134, 560.835 
	L 1.843, 561.543 
" />
<path d="M 1.135, 560.763 
	L 1.134, 560.764 
	L 1.843, 561.473 
" />
<path d="M 1.135, 560.692 
	L 1.134, 560.693 
	L 1.843, 561.402 
" />
<path d="M 1.135, 560.621 
	L 1.134, 560.622 
	L 1.843, 561.331 
" />
<path d="M 1.205, 561.968 
	L 1.205, 561.969 
	L 1.913, 562.677 
" />
<path d="M 1.205, 561.897 
	L 1.205, 561.898 
	L 1.913, 562.606 
" />
<path d="M 1.205, 561.826 
	L 1.205, 561.827 
	L 1.913, 562.536 
" />
<path d="M 1.205, 561.755 
	L 1.205, 561.756 
	L 1.913, 562.465 
" />
<path d="M 1.205, 561.684 
	L 1.205, 561.685 
	L 1.913, 562.394 
" />
<path d="M 1.205, 561.614 
	L 1.205, 561.614 
	L 1.913, 562.323 
" />
<path d="M 1.205, 561.543 
	L 1.205, 561.543 
	L 1.913, 562.252 
" />
<path d="M 1.205, 561.472 
	L 1.205, 561.473 
	L 1.913, 562.181 
" />
<path d="M 1.205, 561.401 
	L 1.205, 561.402 
	L 1.913, 562.110 
" />
<path d="M 1.205, 561.330 
	L 1.205, 561.331 
	L 1.913, 562.039 
" />
<path d="M 1.205, 561.259 
	L 1.205, 561.260 
	L 1.913, 561.969 
" />
<path d="M 1.205, 561.188 
	L 1.205, 561.189 
	L 1.913, 561.898 
" />
<path d="M 1.205, 561.118 
	L 1.205, 561.118 
	L 1.913, 561.827 
" />
<path d="M 1.205, 561.047 
	L 1.205, 561.047 
	L 1.913, 561.756 
" />
<path d="M 1.205, 560.976 
	L 1.205, 560.976 
	L 1.913, 561.685 
" />
<path d="M 1.205, 560.905 
	L 1.205, 560.906 
	L 1.913, 561.614 
" />
<path d="M 1.205, 560.834 
	L 1.205, 560.835 
	L 1.913, 561.543 
" />
<path d="M 1.205, 560.763 
	L 1.205, 560.764 
	L 1.913, 561.473 
" />
<path d="M 1.205, 560.692 
	L 1.205, 560.693 
	L 1.913, 561.402 
" />
<path d="M 1.205, 560.621 
	L 1.205, 560.622 
	L 1.913, 561.331 
" />
<path d="M 1.276, 561.968 
	L 1.276, 561.969 
	L 1.984, 562.677 
" />
<path d="M 1.276, 561.897 
	L 1.276, 561.898 
	L 1.984, 562.606 
" />
<path d="M 1.276, 561.826 
	L 1.276, 561.827 
	L 1.984, 562.536 
" />
<path d="M 1.276, 561.755 
	L 1.276, 561.756 
	L 1.984, 562.465 
" />
<path d="M 1.276, 561.684 
	L 1.276, 561.685 
	L 1.984, 562.394 
" />
<path d="M 1.276, 561.614 
	L 1.276, 561.614 
	L 1.984, 562.323 
" />
<path d="M 1.276, 561.543 
	L 1.276, 561.543 
	L 1.984, 562.252 
" />
<path d="M 1.276, 561.472 
	L 1.276, 561.473 
	L 1.984, 562.181 
" />
<path d="M 1.276, 561.401 
	L 1.276, 561.402 
	L 1.984, 562.110 
" />
<path d="M 1.276, 561.330 
	L 1.276, 561.331 
	L 1.984, 562.039 
" />
<path d="M 1.276, 561.259 
	L 1.276, 561.260 
	L 1.984, 561.969 
" />
<path d="M 1.276, 561.188 
	L 1.276, 561.189 
	L 1.984, 561.898 
" />
<path d="M 1.276, 561.118 
	L 1.276, 561.118 
	L 1.984, 561.827 
" />
<path d="M 1.276, 561.047 
	L 1.276, 561.047 
	L 1.984, 561.756 
" />
<path d="M 1.276, 560.976 
	L 1.276, 560.976 
	L 1.984, 561.685 
" />
<path d="M 1.276, 560.905 
	L 1.276, 560.906 
	L 1.984, 561.614 
" />
<path d="M 1.276, 560.834 
	L 1.276, 560.835 
	L 1.984, 561.543 
" />
<path d="M 1.276, 560.763 
	L 1.276, 560.764 
	L 1.984, 561.473 
" />
<path d="M 1.276, 560.692 
	L 1.276, 560.693 
	L 1.984, 561.402 
" />
<path d="M 1.276, 560.621 
	L 1.276, 560.622 
	L 1.984, 561.331 
" />
<path d="M 1.347, 561.968 
	L 1.346, 561.969 
	L 2.055, 562.677 
" />
<path d="M 1.347, 561.897 
	L 1.346, 561.898 
	L 2.055, 562.606 
" />
<path d="M 1.347, 561.826 
	L 1.346, 561.827 
	L 2.055, 562.536 
" />
<path d="M 1.347, 561.755 
	L 1.346, 561.756 
	L 2.055, 562.465 
" />
<path d="M 1.347, 561.684 
	L 1.346, 561.685 
	L 2.055, 562.394 
" />
<path d="M 1.347, 561.614 
	L 1.346, 561.614 
	L 2.055, 562.323 
" />
<path d="M 1.347, 561.543 
	L 1.346, 561.543 
	L 2.055, 562.252 
" />
<path d="M 1.347, 561.472 
	L 1.346, 561.473 
	L 2.055, 562.181 
" />
<path d="M 1.347, 561.401 
	L 1.346, 561.402 
	L 2.055, 562.110 
" />
<path d="M 1.347, 561.330 
	L 1.346, 561.331 
	L 2.055, 562.039 
" />
<path d="M 1.347, 561.259 
	L 1.346, 561.260 
	L 2.055, 561.969 
" />
<path d="M 1.347, 561.188 
	L 1.346, 561.189 
	L 2.055, 561.898 
" />
<path d="M 1.347, 561.118 
	L 1.346, 561.118 
	L 2.055, 561.827 
" />
<path d="M 1.347, 561.047 
	L 1.346, 561.047 
	L 2.055, 561.756 
" />
<path d="M 1.347, 560.976 
	L 1.346, 560.976 
	L 2.055, 561.685 
" />
<path d="M 1.347, 560.905 
	L 1.346, 560.906 
	L 2.055, 561.614 
" />
<path d="M 1.347, 560.834 
	L 1.346, 560.835 
	L 2.055, 561.543 
" />
<path d="M 1.347, 560.763 
	L 1.346, 560.764 
	L 2.055, 561.473 
" />
<path d="M 1.347, 560.692 
	L 1.346, 560.693 
	L 2.055, 561.402 
" />
<path d="M 1.347, 560.621 
	L 1.346, 560.622 
	L 2.055, 561.331 
" />
<path d="M 503.858, 550.630 
	L 503.858, 553.819 
	L 503.150, 554.882 
	L 501.732, 554.882 
	L 501.024, 553.819 
	L 501.024, 551.693 
	L 503.858, 551.693 
" />
<path d="M 499.606, 547.441 
	L 499.606, 546.378 
	L 503.858, 546.378 
" />
<path d="M 503.858, 547.441 
	L 503.858, 545.315 
" />
<path d="M 503.858, 542.126 
	L 503.858, 538.937 
	L 503.150, 537.874 
	L 501.732, 537.874 
	L 501.024, 538.937 
	L 501.024, 541.063 
" />
<path d="M 499.606, 541.063 
	L 503.858, 541.063 
" />
<path d="M 501.024, 535.748 
	L 503.150, 535.748 
	L 503.858, 534.685 
	L 503.858, 532.559 
	L 501.024, 532.559 
" />
<path d="M 503.858, 529.370 
	L 501.024, 529.370 
" />
<path d="M 501.732, 529.370 
	L 501.024, 528.307 
	L 501.732, 527.244 
	L 503.858, 527.244 
" />
<path d="M 501.732, 527.244 
	L 501.024, 526.181 
	L 501.732, 525.118 
	L 503.858, 525.118 
" />
<path d="M 503.150, 522.992 
	L 503.858, 521.929 
	L 503.858, 519.803 
	L 503.150, 518.740 
	L 500.315, 518.740 
	L 499.606, 519.803 
	L 499.606, 521.929 
	L 500.315, 522.992 
	L 503.150, 522.992 
" />
<path d="M 503.150, 516.614 
	L 503.858, 515.551 
	L 503.858, 513.425 
	L 503.150, 512.362 
	L 500.315, 512.362 
	L 499.606, 513.425 
	L 499.606, 515.551 
	L 500.315, 516.614 
	L 503.150, 516.614 
" />
<path d="M 503.858, 509.173 
	L 503.858, 507.047 
" />
<path d="M 503.858, 508.110 
	L 499.606, 508.110 
	L 500.315, 509.173 
" />
<path d="M 503.150, 499.606 
	L 503.858, 500.669 
	L 503.858, 501.732 
	L 503.150, 502.795 
	L 501.732, 502.795 
	L 501.024, 501.732 
	L 501.024, 500.669 
	L 501.732, 499.606 
" />
<path d="M 503.858, 496.417 
	L 503.150, 497.480 
	L 501.732, 497.480 
	L 501.024, 496.417 
	L 501.024, 495.354 
	L 501.732, 494.291 
	L 503.150, 494.291 
	L 503.858, 495.354 
	L 503.858, 496.417 
" />
<path d="M 501.024, 491.102 
	L 502.441, 491.102 
	L 503.858, 488.976 
	L 502.441, 486.850 
	L 501.024, 486.850 
" />
<path d="M 502.441, 484.724 
	L 502.441, 481.536 
	L 501.732, 480.473 
	L 501.024, 481.536 
	L 501.024, 483.661 
	L 501.732, 484.724 
	L 503.150, 484.724 
	L 503.858, 483.661 
	L 503.858, 480.473 
" />
<path d="M 501.024, 478.347 
	L 503.858, 478.347 
" />
<path d="M 502.441, 478.347 
	L 501.024, 476.221 
	L 501.024, 475.158 
" />
<path d="M 499.606, 464.528 
	L 503.858, 464.528 
	L 503.858, 462.402 
" />
<path d="M 501.024, 465.591 
	L 501.024, 462.402 
" />
<path d="M 502.441, 459.213 
	L 502.441, 456.024 
	L 501.732, 454.961 
	L 501.024, 456.024 
	L 501.024, 458.150 
	L 501.732, 459.213 
	L 503.150, 459.213 
	L 503.858, 458.150 
	L 503.858, 454.961 
" />
<path d="M 501.024, 449.646 
	L 501.024, 451.772 
	L 501.732, 452.835 
	L 502.441, 451.772 
	L 502.441, 450.709 
	L 503.150, 449.646 
	L 503.858, 450.709 
	L 503.858, 452.835 
" />
<path d="M 499.606, 445.394 
	L 503.858, 445.394 
	L 503.858, 443.268 
" />
<path d="M 501.024, 446.457 
	L 501.024, 443.268 
" />
<path d="M 500.315, 414.567 
	L 499.606, 413.504 
	L 499.606, 411.378 
	L 500.315, 410.315 
	L 501.024, 410.315 
	L 503.150, 414.567 
	L 503.858, 414.567 
	L 503.858, 410.315 
" />
<path d="M 503.150, 408.189 
	L 503.858, 407.126 
	L 503.858, 405.000 
	L 503.150, 403.937 
	L 500.315, 403.937 
	L 499.606, 405.000 
	L 499.606, 407.126 
	L 500.315, 408.189 
	L 503.150, 408.189 
" />
<path d="M 503.858, 400.748 
	L 503.858, 398.622 
" />
<path d="M 503.858, 399.685 
	L 499.606, 399.685 
	L 500.315, 400.748 
" />
<path d="M 503.858, 394.370 
	L 503.858, 393.307 
	L 502.441, 391.181 
	L 500.315, 391.181 
	L 499.606, 392.244 
	L 499.606, 394.370 
	L 500.315, 395.433 
	L 501.024, 395.433 
	L 501.732, 394.370 
	L 501.732, 391.181 
" />
<path d="M 501.732, 389.055 
	L 501.732, 384.803 
" />
<path d="M 503.858, 381.614 
	L 503.858, 379.488 
" />
<path d="M 503.858, 380.551 
	L 499.606, 380.551 
	L 500.315, 381.614 
" />
<path d="M 503.858, 375.236 
	L 503.858, 373.110 
" />
<path d="M 503.858, 374.173 
	L 499.606, 374.173 
	L 500.315, 375.236 
" />
<path d="M 501.732, 369.921 
	L 501.732, 365.669 
" />
<path d="M 500.315, 363.543 
	L 499.606, 362.480 
	L 499.606, 360.354 
	L 500.315, 359.291 
	L 501.024, 359.291 
	L 503.150, 363.543 
	L 503.858, 363.543 
	L 503.858, 359.291 
" />
<path d="M 503.150, 357.165 
	L 503.858, 356.102 
	L 503.858, 353.976 
	L 503.150, 352.913 
	L 502.441, 352.913 
	L 501.732, 353.976 
	L 501.732, 355.039 
	L 499.606, 352.913 
	L 499.606, 357.165 
" />
<path d="M 503.858, 343.347 
	L 503.858, 341.221 
" />
<path d="M 503.858, 342.284 
	L 499.606, 342.284 
	L 500.315, 343.347 
" />
<path d="M 503.858, 336.969 
	L 503.858, 335.906 
	L 502.441, 333.780 
	L 500.315, 333.780 
	L 499.606, 334.843 
	L 499.606, 336.969 
	L 500.315, 338.032 
	L 501.024, 338.032 
	L 501.732, 336.969 
	L 501.732, 333.780 
" />
<path d="M 501.732, 330.591 
	L 501.024, 330.591 
	L 501.024, 329.528 
	L 501.732, 329.528 
	L 501.732, 330.591 
" />
<path d="M 503.150, 330.591 
	L 503.150, 329.528 
	L 503.858, 329.528 
	L 503.858, 330.591 
	L 503.150, 330.591 
" />
<path d="M 503.858, 324.213 
	L 503.858, 322.087 
" />
<path d="M 503.858, 323.150 
	L 499.606, 323.150 
	L 500.315, 324.213 
" />
<path d="M 499.606, 314.646 
	L 499.606, 316.772 
	L 501.024, 318.898 
	L 503.150, 318.898 
	L 503.858, 317.835 
	L 503.858, 315.709 
	L 503.150, 314.646 
	L 502.441, 314.646 
	L 501.732, 315.709 
	L 501.732, 318.898 
" />
</g>
</svg>
