<?xml version="1.0" encoding="UTF-8" standalone="no" ?>
<svg width="100%" height="100%" viewBox="0 0 802.205 632.126" xmlns="http://www.w3.org/2000/svg"><g>
</g><g style="stroke:rgb(0,0,0); fill:none; stroke-width:1.000mm" >
</g><g style="stroke:rgb(0,0,0); fill:none; stroke-width:0.100mm" >
<path d="M 70.866, 632.126 
	L 70.866, 70.866 
	L 802.205, 70.866 
	L 802.205, 632.126 
	L 70.866, 632.126 
" />
<path d="M 70.867, 632.125 
	L 70.866, 632.126 
	L 70.866, 277.795 
	L 566.929, 277.795 
	L 566.929, 632.126 
	L 70.866, 632.126 
" />
<path d="M 0.001, 632.125 
	L 0.000, 632.126 
	L 70.866, 702.992 
" />
<path d="M 0.001, 625.039 
	L 0.000, 625.039 
	L 70.866, 695.906 
" />
<path d="M 0.001, 617.952 
	L 0.000, 617.953 
	L 70.866, 688.819 
" />
<path d="M 0.001, 610.866 
	L 0.000, 610.866 
	L 70.866, 681.732 
" />
<path d="M 0.001, 603.779 
	L 0.000, 603.780 
	L 70.866, 674.646 
" />
<path d="M 0.001, 596.692 
	L 0.000, 596.693 
	L 70.866, 667.559 
" />
<path d="M 0.001, 589.606 
	L 0.000, 589.606 
	L 70.866, 660.473 
" />
<path d="M 0.001, 582.519 
	L 0.000, 582.520 
	L 70.866, 653.386 
" />
<path d="M 0.001, 575.432 
	L 0.000, 575.433 
	L 70.866, 646.299 
" />
<path d="M 0.001, 568.346 
	L 0.000, 568.347 
	L 70.866, 639.213 
" />
<path d="M 0.001, 561.259 
	L 0.000, 561.260 
	L 70.866, 632.126 
" />
<path d="M 0.001, 554.173 
	L 0.000, 554.173 
	L 70.866, 625.039 
" />
<path d="M 0.001, 547.086 
	L 0.000, 547.087 
	L 70.866, 617.953 
" />
<path d="M 0.001, 539.999 
	L 0.000, 540.000 
	L 70.866, 610.866 
" />
<path d="M 0.001, 532.913 
	L 0.000, 532.913 
	L 70.866, 603.780 
" />
<path d="M 0.001, 525.826 
	L 0.000, 525.827 
	L 70.866, 596.693 
" />
<path d="M 0.001, 518.740 
	L 0.000, 518.740 
	L 70.866, 589.606 
" />
<path d="M 0.001, 511.653 
	L 0.000, 511.654 
	L 70.866, 582.520 
" />
<path d="M 0.001, 504.566 
	L 0.000, 504.567 
	L 70.866, 575.433 
" />
<path d="M 0.001, 497.480 
	L 0.000, 497.480 
	L 70.866, 568.347 
" />
<path d="M 7.087, 632.125 
	L 7.087, 632.126 
	L 77.953, 702.992 
" />
<path d="M 7.087, 625.039 
	L 7.087, 625.039 
	L 77.953, 695.906 
" />
<path d="M 7.087, 617.952 
	L 7.087, 617.953 
	L 77.953, 688.819 
" />
<path d="M 7.087, 610.866 
	L 7.087, 610.866 
	L 77.953, 681.732 
" />
<path d="M 7.087, 603.779 
	L 7.087, 603.780 
	L 77.953, 674.646 
" />
<path d="M 7.087, 596.692 
	L 7.087, 596.693 
	L 77.953, 667.559 
" />
<path d="M 7.087, 589.606 
	L 7.087, 589.606 
	L 77.953, 660.473 
" />
<path d="M 7.087, 582.519 
	L 7.087, 582.520 
	L 77.953, 653.386 
" />
<path d="M 7.087, 575.432 
	L 7.087, 575.433 
	L 77.953, 646.299 
" />
<path d="M 7.087, 568.346 
	L 7.087, 568.347 
	L 77.953, 639.213 
" />
<path d="M 7.087, 561.259 
	L 7.087, 561.260 
	L 77.953, 632.126 
" />
<path d="M 7.087, 554.173 
	L 7.087, 554.173 
	L 77.953, 625.039 
" />
<path d="M 7.087, 547.086 
	L 7.087, 547.087 
	L 77.953, 617.953 
" />
<path d="M 7.087, 539.999 
	L 7.087, 540.000 
	L 77.953, 610.866 
" />
<path d="M 7.087, 532.913 
	L 7.087, 532.913 
	L 77.953, 603.780 
" />
<path d="M 7.087, 525.826 
	L 7.087, 525.827 
	L 77.953, 596.693 
" />
<path d="M 7.087, 518.740 
	L 7.087, 518.740 
	L 77.953, 589.606 
" />
<path d="M 7.087, 511.653 
	L 7.087, 511.654 
	L 77.953, 582.520 
" />
<path d="M 7.087, 504.566 
	L 7.087, 504.567 
	L 77.953, 575.433 
" />
<path d="M 7.087, 497.480 
	L 7.087, 497.480 
	L 77.953, 568.347 
" />
<path d="M 14.174, 632.125 
	L 14.173, 632.126 
	L 85.039, 702.992 
" />
<path d="M 14.174, 625.039 
	L 14.173, 625.039 
	L 85.039, 695.906 
" />
<path d="M 14.174, 617.952 
	L 14.173, 617.953 
	L 85.039, 688.819 
" />
<path d="M 14.174, 610.866 
	L 14.173, 610.866 
	L 85.039, 681.732 
" />
<path d="M 14.174, 603.779 
	L 14.173, 603.780 
	L 85.039, 674.646 
" />
<path d="M 14.174, 596.692 
	L 14.173, 596.693 
	L 85.039, 667.559 
" />
<path d="M 14.174, 589.606 
	L 14.173, 589.606 
	L 85.039, 660.473 
" />
<path d="M 14.174, 582.519 
	L 14.173, 582.520 
	L 85.039, 653.386 
" />
<path d="M 14.174, 575.432 
	L 14.173, 575.433 
	L 85.039, 646.299 
" />
<path d="M 14.174, 568.346 
	L 14.173, 568.347 
	L 85.039, 639.213 
" />
<path d="M 14.174, 561.259 
	L 14.173, 561.260 
	L 85.039, 632.126 
" />
<path d="M 14.174, 554.173 
	L 14.173, 554.173 
	L 85.039, 625.039 
" />
<path d="M 14.174, 547.086 
	L 14.173, 547.087 
	L 85.039, 617.953 
" />
<path d="M 14.174, 539.999 
	L 14.173, 540.000 
	L 85.039, 610.866 
" />
<path d="M 14.174, 532.913 
	L 14.173, 532.913 
	L 85.039, 603.780 
" />
<path d="M 14.174, 525.826 
	L 14.173, 525.827 
	L 85.039, 596.693 
" />
<path d="M 14.174, 518.740 
	L 14.173, 518.740 
	L 85.039, 589.606 
" />
<path d="M 14.174, 511.653 
	L 14.173, 511.654 
	L 85.039, 582.520 
" />
<path d="M 14.174, 504.566 
	L 14.173, 504.567 
	L 85.039, 575.433 
" />
<path d="M 14.174, 497.480 
	L 14.173, 497.480 
	L 85.039, 568.347 
" />
<path d="M 21.261, 632.125 
	L 21.260, 632.126 
	L 92.126, 702.992 
" />
<path d="M 21.261, 625.039 
	L 21.260, 625.039 
	L 92.126, 695.906 
" />
<path d="M 21.261, 617.952 
	L 21.260, 617.953 
	L 92.126, 688.819 
" />
<path d="M 21.261, 610.866 
	L 21.260, 610.866 
	L 92.126, 681.732 
" />
<path d="M 21.261, 603.779 
	L 21.260, 603.780 
	L 92.126, 674.646 
" />
<path d="M 21.261, 596.692 
	L 21.260, 596.693 
	L 92.126, 667.559 
" />
<path d="M 21.261, 589.606 
	L 21.260, 589.606 
	L 92.126, 660.473 
" />
<path d="M 21.261, 582.519 
	L 21.260, 582.520 
	L 92.126, 653.386 
" />
<path d="M 21.261, 575.432 
	L 21.260, 575.433 
	L 92.126, 646.299 
" />
<path d="M 21.261, 568.346 
	L 21.260, 568.347 
	L 92.126, 639.213 
" />
<path d="M 21.261, 561.259 
	L 21.260, 561.260 
	L 92.126, 632.126 
" />
<path d="M 21.261, 554.173 
	L 21.260, 554.173 
	L 92.126, 625.039 
" />
<path d="M 21.261, 547.086 
	L 21.260, 547.087 
	L 92.126, 617.953 
" />
<path d="M 21.261, 539.999 
	L 21.260, 540.000 
	L 92.126, 610.866 
" />
<path d="M 21.261, 532.913 
	L 21.260, 532.913 
	L 92.126, 603.780 
" />
<path d="M 21.261, 525.826 
	L 21.260, 525.827 
	L 92.126, 596.693 
" />
<path d="M 21.261, 518.740 
	L 21.260, 518.740 
	L 92.126, 589.606 
" />
<path d="M 21.261, 511.653 
	L 21.260, 511.654 
	L 92.126, 582.520 
" />
<path d="M 21.261, 504.566 
	L 21.260, 504.567 
	L 92.126, 575.433 
" />
<path d="M 21.261, 497.480 
	L 21.260, 497.480 
	L 92.126, 568.347 
" />
<path d="M 28.347, 632.125 
	L 28.346, 632.126 
	L 99.213, 702.992 
" />
<path d="M 28.347, 625.039 
	L 28.346, 625.039 
	L 99.213, 695.906 
" />
<path d="M 28.347, 617.952 
	L 28.346, 617.953 
	L 99.213, 688.819 
" />
<path d="M 28.347, 610.866 
	L 28.346, 610.866 
	L 99.213, 681.732 
" />
<path d="M 28.347, 603.779 
	L 28.346, 603.780 
	L 99.213, 674.646 
" />
<path d="M 28.347, 596.692 
	L 28.346, 596.693 
	L 99.213, 667.559 
" />
<path d="M 28.347, 589.606 
	L 28.346, 589.606 
	L 99.213, 660.473 
" />
<path d="M 28.347, 582.519 
	L 28.346, 582.520 
	L 99.213, 653.386 
" />
<path d="M 28.347, 575.432 
	L 28.346, 575.433 
	L 99.213, 646.299 
" />
<path d="M 28.347, 568.346 
	L 28.346, 568.347 
	L 99.213, 639.213 
" />
<path d="M 28.347, 561.259 
	L 28.346, 561.260 
	L 99.213, 632.126 
" />
<path d="M 28.347, 554.173 
	L 28.346, 554.173 
	L 99.213, 625.039 
" />
<path d="M 28.347, 547.086 
	L 28.346, 547.087 
	L 99.213, 617.953 
" />
<path d="M 28.347, 539.999 
	L 28.346, 540.000 
	L 99.213, 610.866 
" />
<path d="M 28.347, 532.913 
	L 28.346, 532.913 
	L 99.213, 603.780 
" />
<path d="M 28.347, 525.826 
	L 28.346, 525.827 
	L 99.213, 596.693 
" />
<path d="M 28.347, 518.740 
	L 28.346, 518.740 
	L 99.213, 589.606 
" />
<path d="M 28.347, 511.653 
	L 28.346, 511.654 
	L 99.213, 582.520 
" />
<path d="M 28.347, 504.566 
	L 28.346, 504.567 
	L 99.213, 575.433 
" />
<path d="M 28.347, 497.480 
	L 28.346, 497.480 
	L 99.213, 568.347 
" />
<path d="M 35.434, 632.125 
	L 35.433, 632.126 
	L 106.299, 702.992 
" />
<path d="M 35.434, 625.039 
	L 35.433, 625.039 
	L 106.299, 695.906 
" />
<path d="M 35.434, 617.952 
	L 35.433, 617.953 
	L 106.299, 688.819 
" />
<path d="M 35.434, 610.866 
	L 35.433, 610.866 
	L 106.299, 681.732 
" />
<path d="M 35.434, 603.779 
	L 35.433, 603.780 
	L 106.299, 674.646 
" />
<path d="M 35.434, 596.692 
	L 35.433, 596.693 
	L 106.299, 667.559 
" />
<path d="M 35.434, 589.606 
	L 35.433, 589.606 
	L 106.299, 660.473 
" />
<path d="M 35.434, 582.519 
	L 35.433, 582.520 
	L 106.299, 653.386 
" />
<path d="M 35.434, 575.432 
	L 35.433, 575.433 
	L 106.299, 646.299 
" />
<path d="M 35.434, 568.346 
	L 35.433, 568.347 
	L 106.299, 639.213 
" />
<path d="M 35.434, 561.259 
	L 35.433, 561.260 
	L 106.299, 632.126 
" />
<path d="M 35.434, 554.173 
	L 35.433, 554.173 
	L 106.299, 625.039 
" />
<path d="M 35.434, 547.086 
	L 35.433, 547.087 
	L 106.299, 617.953 
" />
<path d="M 35.434, 539.999 
	L 35.433, 540.000 
	L 106.299, 610.866 
" />
<path d="M 35.434, 532.913 
	L 35.433, 532.913 
	L 106.299, 603.780 
" />
<path d="M 35.434, 525.826 
	L 35.433, 525.827 
	L 106.299, 596.693 
" />
<path d="M 35.434, 518.740 
	L 35.433, 518.740 
	L 106.299, 589.606 
" />
<path d="M 35.434, 511.653 
	L 35.433, 511.654 
	L 106.299, 582.520 
" />
<path d="M 35.434, 504.566 
	L 35.433, 504.567 
	L 106.299, 575.433 
" />
<path d="M 35.434, 497.480 
	L 35.433, 497.480 
	L 106.299, 568.347 
" />
<path d="M 42.520, 632.125 
	L 42.520, 632.126 
	L 113.386, 702.992 
" />
<path d="M 42.520, 625.039 
	L 42.520, 625.039 
	L 113.386, 695.906 
" />
<path d="M 42.520, 617.952 
	L 42.520, 617.953 
	L 113.386, 688.819 
" />
<path d="M 42.520, 610.866 
	L 42.520, 610.866 
	L 113.386, 681.732 
" />
<path d="M 42.520, 603.779 
	L 42.520, 603.780 
	L 113.386, 674.646 
" />
<path d="M 42.520, 596.692 
	L 42.520, 596.693 
	L 113.386, 667.559 
" />
<path d="M 42.520, 589.606 
	L 42.520, 589.606 
	L 113.386, 660.473 
" />
<path d="M 42.520, 582.519 
	L 42.520, 582.520 
	L 113.386, 653.386 
" />
<path d="M 42.520, 575.432 
	L 42.520, 575.433 
	L 113.386, 646.299 
" />
<path d="M 42.520, 568.346 
	L 42.520, 568.347 
	L 113.386, 639.213 
" />
<path d="M 42.520, 561.259 
	L 42.520, 561.260 
	L 113.386, 632.126 
" />
<path d="M 42.520, 554.173 
	L 42.520, 554.173 
	L 113.386, 625.039 
" />
<path d="M 42.520, 547.086 
	L 42.520, 547.087 
	L 113.386, 617.953 
" />
<path d="M 42.520, 539.999 
	L 42.520, 540.000 
	L 113.386, 610.866 
" />
<path d="M 42.520, 532.913 
	L 42.520, 532.913 
	L 113.386, 603.780 
" />
<path d="M 42.520, 525.826 
	L 42.520, 525.827 
	L 113.386, 596.693 
" />
<path d="M 42.520, 518.740 
	L 42.520, 518.740 
	L 113.386, 589.606 
" />
<path d="M 42.520, 511.653 
	L 42.520, 511.654 
	L 113.386, 582.520 
" />
<path d="M 42.520, 504.566 
	L 42.520, 504.567 
	L 113.386, 575.433 
" />
<path d="M 42.520, 497.480 
	L 42.520, 497.480 
	L 113.386, 568.347 
" />
<path d="M 49.607, 632.125 
	L 49.606, 632.126 
	L 120.472, 702.992 
" />
<path d="M 49.607, 625.039 
	L 49.606, 625.039 
	L 120.472, 695.906 
" />
<path d="M 49.607, 617.952 
	L 49.606, 617.953 
	L 120.472, 688.819 
" />
<path d="M 49.607, 610.866 
	L 49.606, 610.866 
	L 120.472, 681.732 
" />
<path d="M 49.607, 603.779 
	L 49.606, 603.780 
	L 120.472, 674.646 
" />
<path d="M 49.607, 596.692 
	L 49.606, 596.693 
	L 120.472, 667.559 
" />
<path d="M 49.607, 589.606 
	L 49.606, 589.606 
	L 120.472, 660.473 
" />
<path d="M 49.607, 582.519 
	L 49.606, 582.520 
	L 120.472, 653.386 
" />
<path d="M 49.607, 575.432 
	L 49.606, 575.433 
	L 120.472, 646.299 
" />
<path d="M 49.607, 568.346 
	L 49.606, 568.347 
	L 120.472, 639.213 
" />
<path d="M 49.607, 561.259 
	L 49.606, 561.260 
	L 120.472, 632.126 
" />
<path d="M 49.607, 554.173 
	L 49.606, 554.173 
	L 120.472, 625.039 
" />
<path d="M 49.607, 547.086 
	L 49.606, 547.087 
	L 120.472, 617.953 
" />
<path d="M 49.607, 539.999 
	L 49.606, 540.000 
	L 120.472, 610.866 
" />
<path d="M 49.607, 532.913 
	L 49.606, 532.913 
	L 120.472, 603.780 
" />
<path d="M 49.607, 525.826 
	L 49.606, 525.827 
	L 120.472, 596.693 
" />
<path d="M 49.607, 518.740 
	L 49.606, 518.740 
	L 120.472, 589.606 
" />
<path d="M 49.607, 511.653 
	L 49.606, 511.654 
	L 120.472, 582.520 
" />
<path d="M 49.607, 504.566 
	L 49.606, 504.567 
	L 120.472, 575.433 
" />
<path d="M 49.607, 497.480 
	L 49.606, 497.480 
	L 120.472, 568.347 
" />
<path d="M 56.694, 632.125 
	L 56.693, 632.126 
	L 127.559, 702.992 
" />
<path d="M 56.694, 625.039 
	L 56.693, 625.039 
	L 127.559, 695.906 
" />
<path d="M 56.694, 617.952 
	L 56.693, 617.953 
	L 127.559, 688.819 
" />
<path d="M 56.694, 610.866 
	L 56.693, 610.866 
	L 127.559, 681.732 
" />
<path d="M 56.694, 603.779 
	L 56.693, 603.780 
	L 127.559, 674.646 
" />
<path d="M 56.694, 596.692 
	L 56.693, 596.693 
	L 127.559, 667.559 
" />
<path d="M 56.694, 589.606 
	L 56.693, 589.606 
	L 127.559, 660.473 
" />
<path d="M 56.694, 582.519 
	L 56.693, 582.520 
	L 127.559, 653.386 
" />
<path d="M 56.694, 575.432 
	L 56.693, 575.433 
	L 127.559, 646.299 
" />
<path d="M 56.694, 568.346 
	L 56.693, 568.347 
	L 127.559, 639.213 
" />
<path d="M 56.694, 561.259 
	L 56.693, 561.260 
	L 127.559, 632.126 
" />
<path d="M 56.694, 554.173 
	L 56.693, 554.173 
	L 127.559, 625.039 
" />
<path d="M 56.694, 547.086 
	L 56.693, 547.087 
	L 127.559, 617.953 
" />
<path d="M 56.694, 539.999 
	L 56.693, 540.000 
	L 127.559, 610.866 
" />
<path d="M 56.694, 532.913 
	L 56.693, 532.913 
	L 127.559, 603.780 
" />
<path d="M 56.694, 525.826 
	L 56.693, 525.827 
	L 127.559, 596.693 
" />
<path d="M 56.694, 518.740 
	L 56.693, 518.740 
	L 127.559, 589.606 
" />
<path d="M 56.694, 511.653 
	L 56.693, 511.654 
	L 127.559, 582.520 
" />
<path d="M 56.694, 504.566 
	L 56.693, 504.567 
	L 127.559, 575.433 
" />
<path d="M 56.694, 497.480 
	L 56.693, 497.480 
	L 127.559, 568.347 
" />
<path d="M 63.780, 632.125 
	L 63.780, 632.126 
	L 134.646, 702.992 
" />
<path d="M 63.780, 625.039 
	L 63.780, 625.039 
	L 134.646, 695.906 
" />
<path d="M 63.780, 617.952 
	L 63.780, 617.953 
	L 134.646, 688.819 
" />
<path d="M 63.780, 610.866 
	L 63.780, 610.866 
	L 134.646, 681.732 
" />
<path d="M 63.780, 603.779 
	L 63.780, 603.780 
	L 134.646, 674.646 
" />
<path d="M 63.780, 596.692 
	L 63.780, 596.693 
	L 134.646, 667.559 
" />
<path d="M 63.780, 589.606 
	L 63.780, 589.606 
	L 134.646, 660.473 
" />
<path d="M 63.780, 582.519 
	L 63.780, 582.520 
	L 134.646, 653.386 
" />
<path d="M 63.780, 575.432 
	L 63.780, 575.433 
	L 134.646, 646.299 
" />
<path d="M 63.780, 568.346 
	L 63.780, 568.347 
	L 134.646, 639.213 
" />
<path d="M 63.780, 561.259 
	L 63.780, 561.260 
	L 134.646, 632.126 
" />
<path d="M 63.780, 554.173 
	L 63.780, 554.173 
	L 134.646, 625.039 
" />
<path d="M 63.780, 547.086 
	L 63.780, 547.087 
	L 134.646, 617.953 
" />
<path d="M 63.780, 539.999 
	L 63.780, 540.000 
	L 134.646, 610.866 
" />
<path d="M 63.780, 532.913 
	L 63.780, 532.913 
	L 134.646, 603.780 
" />
<path d="M 63.780, 525.826 
	L 63.780, 525.827 
	L 134.646, 596.693 
" />
<path d="M 63.780, 518.740 
	L 63.780, 518.740 
	L 134.646, 589.606 
" />
<path d="M 63.780, 511.653 
	L 63.780, 511.654 
	L 134.646, 582.520 
" />
<path d="M 63.780, 504.566 
	L 63.780, 504.567 
	L 134.646, 575.433 
" />
<path d="M 63.780, 497.480 
	L 63.780, 497.480 
	L 134.646, 568.347 
" />
<path d="M 70.867, 632.125 
	L 70.866, 632.126 
	L 141.732, 702.992 
" />
<path d="M 70.867, 625.039 
	L 70.866, 625.039 
	L 141.732, 695.906 
" />
<path d="M 70.867, 617.952 
	L 70.866, 617.953 
	L 141.732, 688.819 
" />
<path d="M 70.867, 610.866 
	L 70.866, 610.866 
	L 141.732, 681.732 
" />
<path d="M 70.867, 603.779 
	L 70.866, 603.780 
	L 141.732, 674.646 
" />
<path d="M 70.867, 596.692 
	L 70.866, 596.693 
	L 141.732, 667.559 
" />
<path d="M 70.867, 589.606 
	L 70.866, 589.606 
	L 141.732, 660.473 
" />
<path d="M 70.867, 582.519 
	L 70.866, 582.520 
	L 141.732, 653.386 
" />
<path d="M 70.867, 575.432 
	L 70.866, 575.433 
	L 141.732, 646.299 
" />
<path d="M 70.867, 568.346 
	L 70.866, 568.347 
	L 141.732, 639.213 
" />
<path d="M 70.867, 561.259 
	L 70.866, 561.260 
	L 141.732, 632.126 
" />
<path d="M 70.867, 554.173 
	L 70.866, 554.173 
	L 141.732, 625.039 
" />
<path d="M 70.867, 547.086 
	L 70.866, 547.087 
	L 141.732, 617.953 
" />
<path d="M 70.867, 539.999 
	L 70.866, 540.000 
	L 141.732, 610.866 
" />
<path d="M 70.867, 532.913 
	L 70.866, 532.913 
	L 141.732, 603.780 
" />
<path d="M 70.867, 525.826 
	L 70.866, 525.827 
	L 141.732, 596.693 
" />
<path d="M 70.867, 518.740 
	L 70.866, 518.740 
	L 141.732, 589.606 
" />
<path d="M 70.867, 511.653 
	L 70.866, 511.654 
	L 141.732, 582.520 
" />
<path d="M 70.867, 504.566 
	L 70.866, 504.567 
	L 141.732, 575.433 
" />
<path d="M 70.867, 497.480 
	L 70.866, 497.480 
	L 141.732, 568.347 
" />
<path d="M 77.953, 632.125 
	L 77.953, 632.126 
	L 148.819, 702.992 
" />
<path d="M 77.953, 625.039 
	L 77.953, 625.039 
	L 148.819, 695.906 
" />
<path d="M 77.953, 617.952 
	L 77.953, 617.953 
	L 148.819, 688.819 
" />
<path d="M 77.953, 610.866 
	L 77.953, 610.866 
	L 148.819, 681.732 
" />
<path d="M 77.953, 603.779 
	L 77.953, 603.780 
	L 148.819, 674.646 
" />
<path d="M 77.953, 596.692 
	L 77.953, 596.693 
	L 148.819, 667.559 
" />
<path d="M 77.953, 589.606 
	L 77.953, 589.606 
	L 148.819, 660.473 
" />
<path d="M 77.953, 582.519 
	L 77.953, 582.520 
	L 148.819, 653.386 
" />
<path d="M 77.953, 575.432 
	L 77.953, 575.433 
	L 148.819, 646.299 
" />
<path d="M 77.953, 568.346 
	L 77.953, 568.347 
	L 148.819, 639.213 
" />
<path d="M 77.953, 561.259 
	L 77.953, 561.260 
	L 148.819, 632.126 
" />
<path d="M 77.953, 554.173 
	L 77.953, 554.173 
	L 148.819, 625.039 
" />
<path d="M 77.953, 547.086 
	L 77.953, 547.087 
	L 148.819, 617.953 
" />
<path d="M 77.953, 539.999 
	L 77.953, 540.000 
	L 148.819, 610.866 
" />
<path d="M 77.953, 532.913 
	L 77.953, 532.913 
	L 148.819, 603.780 
" />
<path d="M 77.953, 525.826 
	L 77.953, 525.827 
	L 148.819, 596.693 
" />
<path d="M 77.953, 518.740 
	L 77.953, 518.740 
	L 148.819, 589.606 
" />
<path d="M 77.953, 511.653 
	L 77.953, 511.654 
	L 148.819, 582.520 
" />
<path d="M 77.953, 504.566 
	L 77.953, 504.567 
	L 148.819, 575.433 
" />
<path d="M 77.953, 497.480 
	L 77.953, 497.480 
	L 148.819, 568.347 
" />
<path d="M 85.040, 632.125 
	L 85.039, 632.126 
	L 155.906, 702.992 
" />
<path d="M 85.040, 625.039 
	L 85.039, 625.039 
	L 155.906, 695.906 
" />
<path d="M 85.040, 617.952 
	L 85.039, 617.953 
	L 155.906, 688.819 
" />
<path d="M 85.040, 610.866 
	L 85.039, 610.866 
	L 155.906, 681.732 
" />
<path d="M 85.040, 603.779 
	L 85.039, 603.780 
	L 155.906, 674.646 
" />
<path d="M 85.040, 596.692 
	L 85.039, 596.693 
	L 155.906, 667.559 
" />
<path d="M 85.040, 589.606 
	L 85.039, 589.606 
	L 155.906, 660.473 
" />
<path d="M 85.040, 582.519 
	L 85.039, 582.520 
	L 155.906, 653.386 
" />
<path d="M 85.040, 575.432 
	L 85.039, 575.433 
	L 155.906, 646.299 
" />
<path d="M 85.040, 568.346 
	L 85.039, 568.347 
	L 155.906, 639.213 
" />
<path d="M 85.040, 561.259 
	L 85.039, 561.260 
	L 155.906, 632.126 
" />
<path d="M 85.040, 554.173 
	L 85.039, 554.173 
	L 155.906, 625.039 
" />
<path d="M 85.040, 547.086 
	L 85.039, 547.087 
	L 155.906, 617.953 
" />
<path d="M 85.040, 539.999 
	L 85.039, 540.000 
	L 155.906, 610.866 
" />
<path d="M 85.040, 532.913 
	L 85.039, 532.913 
	L 155.906, 603.780 
" />
<path d="M 85.040, 525.826 
	L 85.039, 525.827 
	L 155.906, 596.693 
" />
<path d="M 85.040, 518.740 
	L 85.039, 518.740 
	L 155.906, 589.606 
" />
<path d="M 85.040, 511.653 
	L 85.039, 511.654 
	L 155.906, 582.520 
" />
<path d="M 85.040, 504.566 
	L 85.039, 504.567 
	L 155.906, 575.433 
" />
<path d="M 85.040, 497.480 
	L 85.039, 497.480 
	L 155.906, 568.347 
" />
<path d="M 92.127, 632.125 
	L 92.126, 632.126 
	L 162.992, 702.992 
" />
<path d="M 92.127, 625.039 
	L 92.126, 625.039 
	L 162.992, 695.906 
" />
<path d="M 92.127, 617.952 
	L 92.126, 617.953 
	L 162.992, 688.819 
" />
<path d="M 92.127, 610.866 
	L 92.126, 610.866 
	L 162.992, 681.732 
" />
<path d="M 92.127, 603.779 
	L 92.126, 603.780 
	L 162.992, 674.646 
" />
<path d="M 92.127, 596.692 
	L 92.126, 596.693 
	L 162.992, 667.559 
" />
<path d="M 92.127, 589.606 
	L 92.126, 589.606 
	L 162.992, 660.473 
" />
<path d="M 92.127, 582.519 
	L 92.126, 582.520 
	L 162.992, 653.386 
" />
<path d="M 92.127, 575.432 
	L 92.126, 575.433 
	L 162.992, 646.299 
" />
<path d="M 92.127, 568.346 
	L 92.126, 568.347 
	L 162.992, 639.213 
" />
<path d="M 92.127, 561.259 
	L 92.126, 561.260 
	L 162.992, 632.126 
" />
<path d="M 92.127, 554.173 
	L 92.126, 554.173 
	L 162.992, 625.039 
" />
<path d="M 92.127, 547.086 
	L 92.126, 547.087 
	L 162.992, 617.953 
" />
<path d="M 92.127, 539.999 
	L 92.126, 540.000 
	L 162.992, 610.866 
" />
<path d="M 92.127, 532.913 
	L 92.126, 532.913 
	L 162.992, 603.780 
" />
<path d="M 92.127, 525.826 
	L 92.126, 525.827 
	L 162.992, 596.693 
" />
<path d="M 92.127, 518.740 
	L 92.126, 518.740 
	L 162.992, 589.606 
" />
<path d="M 92.127, 511.653 
	L 92.126, 511.654 
	L 162.992, 582.520 
" />
<path d="M 92.127, 504.566 
	L 92.126, 504.567 
	L 162.992, 575.433 
" />
<path d="M 92.127, 497.480 
	L 92.126, 497.480 
	L 162.992, 568.347 
" />
<path d="M 99.213, 632.125 
	L 99.213, 632.126 
	L 170.079, 702.992 
" />
<path d="M 99.213, 625.039 
	L 99.213, 625.039 
	L 170.079, 695.906 
" />
<path d="M 99.213, 617.952 
	L 99.213, 617.953 
	L 170.079, 688.819 
" />
<path d="M 99.213, 610.866 
	L 99.213, 610.866 
	L 170.079, 681.732 
" />
<path d="M 99.213, 603.779 
	L 99.213, 603.780 
	L 170.079, 674.646 
" />
<path d="M 99.213, 596.692 
	L 99.213, 596.693 
	L 170.079, 667.559 
" />
<path d="M 99.213, 589.606 
	L 99.213, 589.606 
	L 170.079, 660.473 
" />
<path d="M 99.213, 582.519 
	L 99.213, 582.520 
	L 170.079, 653.386 
" />
<path d="M 99.213, 575.432 
	L 99.213, 575.433 
	L 170.079, 646.299 
" />
<path d="M 99.213, 568.346 
	L 99.213, 568.347 
	L 170.079, 639.213 
" />
<path d="M 99.213, 561.259 
	L 99.213, 561.260 
	L 170.079, 632.126 
" />
<path d="M 99.213, 554.173 
	L 99.213, 554.173 
	L 170.079, 625.039 
" />
<path d="M 99.213, 547.086 
	L 99.213, 547.087 
	L 170.079, 617.953 
" />
<path d="M 99.213, 539.999 
	L 99.213, 540.000 
	L 170.079, 610.866 
" />
<path d="M 99.213, 532.913 
	L 99.213, 532.913 
	L 170.079, 603.780 
" />
<path d="M 99.213, 525.826 
	L 99.213, 525.827 
	L 170.079, 596.693 
" />
<path d="M 99.213, 518.740 
	L 99.213, 518.740 
	L 170.079, 589.606 
" />
<path d="M 99.213, 511.653 
	L 99.213, 511.654 
	L 170.079, 582.520 
" />
<path d="M 99.213, 504.566 
	L 99.213, 504.567 
	L 170.079, 575.433 
" />
<path d="M 99.213, 497.480 
	L 99.213, 497.480 
	L 170.079, 568.347 
" />
<path d="M 106.300, 632.125 
	L 106.299, 632.126 
	L 177.165, 702.992 
" />
<path d="M 106.300, 625.039 
	L 106.299, 625.039 
	L 177.165, 695.906 
" />
<path d="M 106.300, 617.952 
	L 106.299, 617.953 
	L 177.165, 688.819 
" />
<path d="M 106.300, 610.866 
	L 106.299, 610.866 
	L 177.165, 681.732 
" />
<path d="M 106.300, 603.779 
	L 106.299, 603.780 
	L 177.165, 674.646 
" />
<path d="M 106.300, 596.692 
	L 106.299, 596.693 
	L 177.165, 667.559 
" />
<path d="M 106.300, 589.606 
	L 106.299, 589.606 
	L 177.165, 660.473 
" />
<path d="M 106.300, 582.519 
	L 106.299, 582.520 
	L 177.165, 653.386 
" />
<path d="M 106.300, 575.432 
	L 106.299, 575.433 
	L 177.165, 646.299 
" />
<path d="M 106.300, 568.346 
	L 106.299, 568.347 
	L 177.165, 639.213 
" />
<path d="M 106.300, 561.259 
	L 106.299, 561.260 
	L 177.165, 632.126 
" />
<path d="M 106.300, 554.173 
	L 106.299, 554.173 
	L 177.165, 625.039 
" />
<path d="M 106.300, 547.086 
	L 106.299, 547.087 
	L 177.165, 617.953 
" />
<path d="M 106.300, 539.999 
	L 106.299, 540.000 
	L 177.165, 610.866 
" />
<path d="M 106.300, 532.913 
	L 106.299, 532.913 
	L 177.165, 603.780 
" />
<path d="M 106.300, 525.826 
	L 106.299, 525.827 
	L 177.165, 596.693 
" />
<path d="M 106.300, 518.740 
	L 106.299, 518.740 
	L 177.165, 589.606 
" />
<path d="M 106.300, 511.653 
	L 106.299, 511.654 
	L 177.165, 582.520 
" />
<path d="M 106.300, 504.566 
	L 106.299, 504.567 
	L 177.165, 575.433 
" />
<path d="M 106.300, 497.480 
	L 106.299, 497.480 
	L 177.165, 568.347 
" />
<path d="M 113.387, 632.125 
	L 113.386, 632.126 
	L 184.252, 702.992 
" />
<path d="M 113.387, 625.039 
	L 113.386, 625.039 
	L 184.252, 695.906 
" />
<path d="M 113.387, 617.952 
	L 113.386, 617.953 
	L 184.252, 688.819 
" />
<path d="M 113.387, 610.866 
	L 113.386, 610.866 
	L 184.252, 681.732 
" />
<path d="M 113.387, 603.779 
	L 113.386, 603.780 
	L 184.252, 674.646 
" />
<path d="M 113.387, 596.692 
	L 113.386, 596.693 
	L 184.252, 667.559 
" />
<path d="M 113.387, 589.606 
	L 113.386, 589.606 
	L 184.252, 660.473 
" />
<path d="M 113.387, 582.519 
	L 113.386, 582.520 
	L 184.252, 653.386 
" />
<path d="M 113.387, 575.432 
	L 113.386, 575.433 
	L 184.252, 646.299 
" />
<path d="M 113.387, 568.346 
	L 113.386, 568.347 
	L 184.252, 639.213 
" />
<path d="M 113.387, 561.259 
	L 113.386, 561.260 
	L 184.252, 632.126 
" />
<path d="M 113.387, 554.173 
	L 113.386, 554.173 
	L 184.252, 625.039 
" />
<path d="M 113.387, 547.086 
	L 113.386, 547.087 
	L 184.252, 617.953 
" />
<path d="M 113.387, 539.999 
	L 113.386, 540.000 
	L 184.252, 610.866 
" />
<path d="M 113.387, 532.913 
	L 113.386, 532.913 
	L 184.252, 603.780 
" />
<path d="M 113.387, 525.826 
	L 113.386, 525.827 
	L 184.252, 596.693 
" />
<path d="M 113.387, 518.740 
	L 113.386, 518.740 
	L 184.252, 589.606 
" />
<path d="M 113.387, 511.653 
	L 113.386, 511.654 
	L 184.252, 582.520 
" />
<path d="M 113.387, 504.566 
	L 113.386, 504.567 
	L 184.252, 575.433 
" />
<path d="M 113.387, 497.480 
	L 113.386, 497.480 
	L 184.252, 568.347 
" />
<path d="M 120.473, 632.125 
	L 120.472, 632.126 
	L 191.339, 702.992 
" />
<path d="M 120.473, 625.039 
	L 120.472, 625.039 
	L 191.339, 695.906 
" />
<path d="M 120.473, 617.952 
	L 120.472, 617.953 
	L 191.339, 688.819 
" />
<path d="M 120.473, 610.866 
	L 120.472, 610.866 
	L 191.339, 681.732 
" />
<path d="M 120.473, 603.779 
	L 120.472, 603.780 
	L 191.339, 674.646 
" />
<path d="M 120.473, 596.692 
	L 120.472, 596.693 
	L 191.339, 667.559 
" />
<path d="M 120.473, 589.606 
	L 120.472, 589.606 
	L 191.339, 660.473 
" />
<path d="M 120.473, 582.519 
	L 120.472, 582.520 
	L 191.339, 653.386 
" />
<path d="M 120.473, 575.432 
	L 120.472, 575.433 
	L 191.339, 646.299 
" />
<path d="M 120.473, 568.346 
	L 120.472, 568.347 
	L 191.339, 639.213 
" />
<path d="M 120.473, 561.259 
	L 120.472, 561.260 
	L 191.339, 632.126 
" />
<path d="M 120.473, 554.173 
	L 120.472, 554.173 
	L 191.339, 625.039 
" />
<path d="M 120.473, 547.086 
	L 120.472, 547.087 
	L 191.339, 617.953 
" />
<path d="M 120.473, 539.999 
	L 120.472, 540.000 
	L 191.339, 610.866 
" />
<path d="M 120.473, 532.913 
	L 120.472, 532.913 
	L 191.339, 603.780 
" />
<path d="M 120.473, 525.826 
	L 120.472, 525.827 
	L 191.339, 596.693 
" />
<path d="M 120.473, 518.740 
	L 120.472, 518.740 
	L 191.339, 589.606 
" />
<path d="M 120.473, 511.653 
	L 120.472, 511.654 
	L 191.339, 582.520 
" />
<path d="M 120.473, 504.566 
	L 120.472, 504.567 
	L 191.339, 575.433 
" />
<path d="M 120.473, 497.480 
	L 120.472, 497.480 
	L 191.339, 568.347 
" />
<path d="M 127.560, 632.125 
	L 127.559, 632.126 
	L 198.425, 702.992 
" />
<path d="M 127.560, 625.039 
	L 127.559, 625.039 
	L 198.425, 695.906 
" />
<path d="M 127.560, 617.952 
	L 127.559, 617.953 
	L 198.425, 688.819 
" />
<path d="M 127.560, 610.866 
	L 127.559, 610.866 
	L 198.425, 681.732 
" />
<path d="M 127.560, 603.779 
	L 127.559, 603.780 
	L 198.425, 674.646 
" />
<path d="M 127.560, 596.692 
	L 127.559, 596.693 
	L 198.425, 667.559 
" />
<path d="M 127.560, 589.606 
	L 127.559, 589.606 
	L 198.425, 660.473 
" />
<path d="M 127.560, 582.519 
	L 127.559, 582.520 
	L 198.425, 653.386 
" />
<path d="M 127.560, 575.432 
	L 127.559, 575.433 
	L 198.425, 646.299 
" />
<path d="M 127.560, 568.346 
	L 127.559, 568.347 
	L 198.425, 639.213 
" />
<path d="M 127.560, 561.259 
	L 127.559, 561.260 
	L 198.425, 632.126 
" />
<path d="M 127.560, 554.173 
	L 127.559, 554.173 
	L 198.425, 625.039 
" />
<path d="M 127.560, 547.086 
	L 127.559, 547.087 
	L 198.425, 617.953 
" />
<path d="M 127.560, 539.999 
	L 127.559, 540.000 
	L 198.425, 610.866 
" />
<path d="M 127.560, 532.913 
	L 127.559, 532.913 
	L 198.425, 603.780 
" />
<path d="M 127.560, 525.826 
	L 127.559, 525.827 
	L 198.425, 596.693 
" />
<path d="M 127.560, 518.740 
	L 127.559, 518.740 
	L 198.425, 589.606 
" />
<path d="M 127.560, 511.653 
	L 127.559, 511.654 
	L 198.425, 582.520 
" />
<path d="M 127.560, 504.566 
	L 127.559, 504.567 
	L 198.425, 575.433 
" />
<path d="M 127.560, 497.480 
	L 127.559, 497.480 
	L 198.425, 568.347 
" />
<path d="M 134.646, 632.125 
	L 134.646, 632.126 
	L 205.512, 702.992 
" />
<path d="M 134.646, 625.039 
	L 134.646, 625.039 
	L 205.512, 695.906 
" />
<path d="M 134.646, 617.952 
	L 134.646, 617.953 
	L 205.512, 688.819 
" />
<path d="M 134.646, 610.866 
	L 134.646, 610.866 
	L 205.512, 681.732 
" />
<path d="M 134.646, 603.779 
	L 134.646, 603.780 
	L 205.512, 674.646 
" />
<path d="M 134.646, 596.692 
	L 134.646, 596.693 
	L 205.512, 667.559 
" />
<path d="M 134.646, 589.606 
	L 134.646, 589.606 
	L 205.512, 660.473 
" />
<path d="M 134.646, 582.519 
	L 134.646, 582.520 
	L 205.512, 653.386 
" />
<path d="M 134.646, 575.432 
	L 134.646, 575.433 
	L 205.512, 646.299 
" />
<path d="M 134.646, 568.346 
	L 134.646, 568.347 
	L 205.512, 639.213 
" />
<path d="M 134.646, 561.259 
	L 134.646, 561.260 
	L 205.512, 632.126 
" />
<path d="M 134.646, 554.173 
	L 134.646, 554.173 
	L 205.512, 625.039 
" />
<path d="M 134.646, 547.086 
	L 134.646, 547.087 
	L 205.512, 617.953 
" />
<path d="M 134.646, 539.999 
	L 134.646, 540.000 
	L 205.512, 610.866 
" />
<path d="M 134.646, 532.913 
	L 134.646, 532.913 
	L 205.512, 603.780 
" />
<path d="M 134.646, 525.826 
	L 134.646, 525.827 
	L 205.512, 596.693 
" />
<path d="M 134.646, 518.740 
	L 134.646, 518.740 
	L 205.512, 589.606 
" />
<path d="M 134.646, 511.653 
	L 134.646, 511.654 
	L 205.512, 582.520 
" />
<path d="M 134.646, 504.566 
	L 134.646, 504.567 
	L 205.512, 575.433 
" />
<path d="M 134.646, 497.480 
	L 134.646, 497.480 
	L 205.512, 568.347 
" />
<path d="M 574.016, 620.787 
	L 574.016, 623.976 
	L 573.307, 625.039 
	L 571.890, 625.039 
	L 571.181, 623.976 
	L 571.181, 621.850 
	L 574.016, 621.850 
" />
<path d="M 569.764, 617.599 
	L 569.764, 616.536 
	L 574.016, 616.536 
" />
<path d="M 574.016, 617.599 
	L 574.016, 615.473 
" />
<path d="M 574.016, 612.284 
	L 574.016, 609.095 
	L 573.307, 608.032 
	L 571.890, 608.032 
	L 571.181, 609.095 
	L 571.181, 611.221 
" />
<path d="M 569.764, 611.221 
	L 574.016, 611.221 
" />
<path d="M 571.181, 605.906 
	L 573.307, 605.906 
	L 574.016, 604.843 
	L 574.016, 602.717 
	L 571.181, 602.717 
" />
<path d="M 574.016, 599.528 
	L 571.181, 599.528 
" />
<path d="M 571.890, 599.528 
	L 571.181, 598.465 
	L 571.890, 597.402 
	L 574.016, 597.402 
" />
<path d="M 571.890, 597.402 
	L 571.181, 596.339 
	L 571.890, 595.276 
	L 574.016, 595.276 
" />
<path d="M 573.307, 593.150 
	L 574.016, 592.087 
	L 574.016, 589.961 
	L 573.307, 588.898 
	L 570.473, 588.898 
	L 569.764, 589.961 
	L 569.764, 592.087 
	L 570.473, 593.150 
	L 573.307, 593.150 
" />
<path d="M 573.307, 586.772 
	L 574.016, 585.709 
	L 574.016, 583.583 
	L 573.307, 582.520 
	L 570.473, 582.520 
	L 569.764, 583.583 
	L 569.764, 585.709 
	L 570.473, 586.772 
	L 573.307, 586.772 
" />
<path d="M 574.016, 579.331 
	L 574.016, 577.205 
" />
<path d="M 574.016, 578.268 
	L 569.764, 578.268 
	L 570.473, 579.331 
" />
<path d="M 573.307, 569.764 
	L 574.016, 570.827 
	L 574.016, 571.890 
	L 573.307, 572.953 
	L 571.890, 572.953 
	L 571.181, 571.890 
	L 571.181, 570.827 
	L 571.890, 569.764 
" />
<path d="M 574.016, 566.575 
	L 573.307, 567.638 
	L 571.890, 567.638 
	L 571.181, 566.575 
	L 571.181, 565.512 
	L 571.890, 564.449 
	L 573.307, 564.449 
	L 574.016, 565.512 
	L 574.016, 566.575 
" />
<path d="M 571.181, 561.260 
	L 572.599, 561.260 
	L 574.016, 559.134 
	L 572.599, 557.008 
	L 571.181, 557.008 
" />
<path d="M 572.599, 554.882 
	L 572.599, 551.693 
	L 571.890, 550.630 
	L 571.181, 551.693 
	L 571.181, 553.819 
	L 571.890, 554.882 
	L 573.307, 554.882 
	L 574.016, 553.819 
	L 574.016, 550.630 
" />
<path d="M 571.181, 548.504 
	L 574.016, 548.504 
" />
<path d="M 572.599, 548.504 
	L 571.181, 546.378 
	L 571.181, 545.315 
" />
<path d="M 569.764, 534.685 
	L 574.016, 534.685 
	L 574.016, 532.559 
" />
<path d="M 571.181, 535.748 
	L 571.181, 532.559 
" />
<path d="M 572.599, 529.370 
	L 572.599, 526.181 
	L 571.890, 525.118 
	L 571.181, 526.181 
	L 571.181, 528.307 
	L 571.890, 529.370 
	L 573.307, 529.370 
	L 574.016, 528.307 
	L 574.016, 525.118 
" />
<path d="M 571.181, 519.803 
	L 571.181, 521.929 
	L 571.890, 522.992 
	L 572.599, 521.929 
	L 572.599, 520.866 
	L 573.307, 519.803 
	L 574.016, 520.866 
	L 574.016, 522.992 
" />
<path d="M 569.764, 515.551 
	L 574.016, 515.551 
	L 574.016, 513.425 
" />
<path d="M 571.181, 516.614 
	L 571.181, 513.425 
" />
<path d="M 570.473, 484.724 
	L 569.764, 483.661 
	L 569.764, 481.536 
	L 570.473, 480.473 
	L 571.181, 480.473 
	L 573.307, 484.724 
	L 574.016, 484.724 
	L 574.016, 480.473 
" />
<path d="M 573.307, 478.347 
	L 574.016, 477.284 
	L 574.016, 475.158 
	L 573.307, 474.095 
	L 570.473, 474.095 
	L 569.764, 475.158 
	L 569.764, 477.284 
	L 570.473, 478.347 
	L 573.307, 478.347 
" />
<path d="M 574.016, 470.906 
	L 574.016, 468.780 
" />
<path d="M 574.016, 469.843 
	L 569.764, 469.843 
	L 570.473, 470.906 
" />
<path d="M 574.016, 464.528 
	L 574.016, 463.465 
	L 572.599, 461.339 
	L 570.473, 461.339 
	L 569.764, 462.402 
	L 569.764, 464.528 
	L 570.473, 465.591 
	L 571.181, 465.591 
	L 571.890, 464.528 
	L 571.890, 461.339 
" />
<path d="M 571.890, 459.213 
	L 571.890, 454.961 
" />
<path d="M 574.016, 451.772 
	L 574.016, 449.646 
" />
<path d="M 574.016, 450.709 
	L 569.764, 450.709 
	L 570.473, 451.772 
" />
<path d="M 574.016, 445.394 
	L 574.016, 443.268 
" />
<path d="M 574.016, 444.331 
	L 569.764, 444.331 
	L 570.473, 445.394 
" />
<path d="M 571.890, 440.079 
	L 571.890, 435.827 
" />
<path d="M 570.473, 433.701 
	L 569.764, 432.638 
	L 569.764, 430.512 
	L 570.473, 429.449 
	L 571.181, 429.449 
	L 573.307, 433.701 
	L 574.016, 433.701 
	L 574.016, 429.449 
" />
<path d="M 573.307, 427.323 
	L 574.016, 426.260 
	L 574.016, 424.134 
	L 573.307, 423.071 
	L 572.599, 423.071 
	L 571.890, 424.134 
	L 571.890, 425.197 
	L 569.764, 423.071 
	L 569.764, 427.323 
" />
<path d="M 574.016, 413.504 
	L 574.016, 411.378 
" />
<path d="M 574.016, 412.441 
	L 569.764, 412.441 
	L 570.473, 413.504 
" />
<path d="M 574.016, 407.126 
	L 574.016, 406.063 
	L 572.599, 403.937 
	L 570.473, 403.937 
	L 569.764, 405.000 
	L 569.764, 407.126 
	L 570.473, 408.189 
	L 571.181, 408.189 
	L 571.890, 407.126 
	L 571.890, 403.937 
" />
<path d="M 571.890, 400.748 
	L 571.181, 400.748 
	L 571.181, 399.685 
	L 571.890, 399.685 
	L 571.890, 400.748 
" />
<path d="M 573.307, 400.748 
	L 573.307, 399.685 
	L 574.016, 399.685 
	L 574.016, 400.748 
	L 573.307, 400.748 
" />
<path d="M 574.016, 394.370 
	L 574.016, 392.244 
" />
<path d="M 574.016, 393.307 
	L 569.764, 393.307 
	L 570.473, 394.370 
" />
<path d="M 569.764, 389.055 
	L 569.764, 384.803 
	L 570.473, 384.803 
	L 572.599, 389.055 
	L 574.016, 389.055 
" />
</g>
</svg>
