<?xml version="1.0" encoding="UTF-8" standalone="no" ?>
<svg width="100%" height="100%" viewBox="0 0 644.882 646.299" xmlns="http://www.w3.org/2000/svg"><g>
</g><g style="stroke:rgb(0,0,0); fill:none; stroke-width:1.000mm" >
</g><g style="stroke:rgb(0,0,0); fill:none; stroke-width:0.100mm" >
<path d="M 0.001, 646.299 
	L 0.000, 646.299 
	L 0.000, 8.504 
	L 637.795, 8.504 
	L 637.795, 646.299 
	L 0.000, 646.299 
" />
<path d="M 0.001, 182.259 
	L 0.000, 182.260 
	L 141.732, 185.531 
	L 283.465, 190.563 
	L 425.197, 192.724 
	L 566.929, 195.965 
	L 637.795, 207.259 
" />
<path d="M 0.001, 193.475 
	L 0.000, 193.475 
	L 70.866, 196.517 
	L 141.732, 201.197 
	L 212.598, 203.207 
	L 283.465, 206.221 
	L 354.331, 216.725 
	L 425.197, 214.948 
	L 496.063, 219.973 
	L 566.929, 226.061 
	L 637.795, 231.583 
" />
<path d="M 637.795, 231.583 
" />
<path d="M 0.001, 205.556 
	L 0.000, 205.556 
	L 47.197, 208.343 
	L 94.394, 212.630 
	L 141.591, 214.471 
	L 188.787, 217.232 
	L 235.984, 226.853 
	L 283.181, 225.225 
	L 330.378, 229.829 
	L 377.575, 235.405 
	L 424.772, 240.463 
" />
<path d="M 424.772, 240.463 
	L 471.969, 245.227 
	L 519.165, 243.450 
	L 566.362, 249.827 
	L 613.559, 253.394 
	L 637.795, 259.625 
" />
<path d="M 0.001, 214.847 
	L 0.000, 214.848 
	L 35.433, 217.461 
	L 70.866, 221.481 
	L 106.299, 223.208 
	L 141.732, 225.797 
	L 177.165, 234.819 
	L 212.598, 233.292 
	L 248.032, 237.609 
	L 283.465, 242.838 
	L 318.898, 247.581 
" />
<path d="M 318.898, 247.581 
	L 354.331, 252.049 
	L 389.764, 250.382 
	L 425.197, 256.363 
	L 460.630, 259.707 
	L 496.063, 265.550 
	L 531.496, 273.616 
	L 566.929, 276.050 
	L 602.362, 278.160 
	L 637.795, 280.438 
" />
<path d="M 0.001, 227.027 
	L 0.000, 227.028 
	L 28.346, 229.380 
	L 56.693, 232.999 
	L 85.039, 234.553 
	L 113.386, 236.884 
	L 141.732, 245.006 
	L 170.079, 243.632 
	L 198.425, 247.518 
	L 226.772, 252.225 
	L 255.118, 256.496 
" />
<path d="M 255.118, 256.496 
	L 283.465, 260.518 
	L 311.811, 259.018 
	L 340.158, 264.401 
	L 368.504, 267.413 
	L 396.850, 272.673 
	L 425.197, 279.935 
	L 453.543, 282.125 
	L 481.890, 284.024 
	L 510.236, 286.076 
	L 538.583, 285.395 
" />
<path d="M 538.583, 285.395 
	L 566.929, 290.206 
	L 595.276, 293.781 
	L 623.622, 304.576 
	L 637.795, 301.626 
" />
<path d="M 0.001, 235.602 
	L 0.000, 235.602 
	L 23.598, 237.801 
	L 47.197, 241.182 
	L 70.795, 242.635 
	L 94.394, 244.813 
	L 117.992, 252.403 
	L 141.591, 251.119 
	L 165.189, 254.750 
	L 188.787, 259.149 
	L 212.386, 263.139 
	L 235.984, 266.898 
" />
<path d="M 235.984, 266.898 
	L 259.583, 265.497 
	L 283.181, 270.527 
	L 306.780, 273.341 
	L 330.378, 278.257 
	L 353.976, 285.042 
	L 377.575, 287.089 
	L 401.173, 288.864 
	L 424.772, 290.781 
	L 448.370, 290.145 
	L 471.969, 294.640 
" />
<path d="M 471.969, 294.640 
	L 495.567, 297.982 
	L 519.165, 308.069 
	L 542.764, 305.312 
	L 566.362, 302.535 
	L 589.961, 309.983 
	L 613.559, 305.692 
	L 637.158, 305.583 
	L 637.795, 309.334 
" />
<path d="M 0.001, 260.339 
	L 0.000, 260.340 
	L 20.197, 261.901 
	L 40.394, 264.302 
	L 60.591, 265.334 
	L 80.787, 266.881 
	L 100.984, 272.271 
	L 121.181, 271.359 
	L 141.378, 273.938 
	L 161.575, 277.063 
	L 181.772, 279.896 
	L 201.969, 282.566 
" />
<path d="M 201.969, 282.566 
	L 222.165, 281.570 
	L 242.362, 285.143 
	L 262.559, 287.141 
	L 282.756, 290.632 
	L 302.953, 295.452 
	L 323.150, 296.906 
	L 343.347, 298.166 
	L 363.543, 299.527 
	L 383.740, 299.076 
	L 403.937, 302.268 
" />
<path d="M 403.937, 302.268 
	L 424.134, 304.642 
	L 444.331, 311.805 
	L 464.528, 309.847 
	L 484.724, 307.875 
	L 504.921, 313.165 
	L 525.118, 310.118 
	L 545.315, 310.039 
	L 565.512, 312.704 
	L 585.709, 314.989 
	L 605.906, 314.043 
" />
<path d="M 605.906, 314.043 
	L 626.102, 312.394 
	L 637.795, 314.478 
" />
<path d="M 0.001, 270.810 
	L 0.000, 270.811 
	L 17.717, 272.159 
	L 35.433, 274.234 
	L 53.150, 275.125 
	L 70.866, 276.461 
	L 88.583, 281.117 
	L 106.299, 280.329 
	L 124.016, 282.557 
	L 141.732, 285.255 
	L 159.449, 287.703 
	L 177.165, 290.008 
" />
<path d="M 177.165, 290.008 
	L 194.882, 289.149 
	L 212.598, 292.234 
	L 230.315, 293.961 
	L 248.032, 296.976 
	L 265.748, 301.139 
	L 283.465, 302.394 
	L 301.181, 303.483 
	L 318.898, 304.659 
	L 336.614, 304.269 
	L 354.331, 307.026 
" />
<path d="M 354.331, 307.026 
	L 372.047, 309.076 
	L 389.764, 315.264 
	L 407.480, 313.573 
	L 425.197, 311.869 
	L 442.913, 316.438 
	L 460.630, 313.806 
	L 478.347, 313.739 
	L 496.063, 316.040 
	L 513.780, 318.014 
	L 531.496, 317.196 
" />
<path d="M 531.496, 317.196 
	L 549.213, 315.772 
	L 566.929, 317.572 
	L 584.646, 314.918 
	L 602.362, 311.210 
	L 620.079, 314.143 
	L 637.795, 312.432 
" />
<path d="M 0.001, 281.148 
	L 0.000, 281.149 
	L 15.732, 282.288 
	L 31.465, 284.039 
	L 47.197, 284.791 
	L 62.929, 285.919 
	L 78.661, 289.852 
	L 94.394, 289.186 
	L 110.126, 291.067 
	L 125.858, 293.346 
	L 141.591, 295.413 
	L 157.323, 297.360 
" />
<path d="M 157.323, 297.360 
	L 173.055, 296.634 
	L 188.787, 299.240 
	L 204.520, 300.698 
	L 220.252, 303.244 
	L 235.984, 306.759 
	L 251.717, 307.819 
	L 267.449, 308.738 
	L 283.181, 309.732 
	L 298.913, 309.402 
	L 314.646, 311.731 
" />
<path d="M 314.646, 311.731 
	L 330.378, 313.462 
	L 346.110, 318.687 
	L 361.843, 317.259 
	L 377.575, 315.821 
	L 393.307, 319.679 
	L 409.039, 317.456 
	L 424.772, 317.399 
	L 440.504, 319.343 
	L 456.236, 321.009 
	L 471.969, 320.319 
" />
<path d="M 471.969, 320.319 
	L 487.701, 319.117 
	L 503.433, 320.637 
	L 519.165, 318.395 
	L 534.898, 315.264 
	L 550.630, 317.741 
	L 566.362, 316.295 
	L 582.095, 317.202 
	L 597.827, 314.860 
	L 613.559, 313.208 
" />
<path d="M 0.001, 281.597 
	L 0.000, 281.598 
	L 14.173, 282.821 
	L 28.346, 284.702 
	L 42.520, 285.510 
	L 56.693, 286.722 
	L 70.866, 290.944 
	L 85.039, 290.229 
	L 99.213, 292.249 
	L 113.386, 294.696 
	L 127.559, 296.916 
	L 141.732, 299.007 
" />
<path d="M 141.732, 299.007 
	L 155.906, 298.227 
	L 170.079, 301.025 
	L 184.252, 302.591 
	L 198.425, 305.325 
	L 212.598, 309.100 
	L 226.772, 310.238 
	L 240.945, 311.225 
	L 255.118, 312.292 
	L 269.291, 311.938 
	L 283.465, 314.439 
" />
<path d="M 283.465, 314.439 
	L 297.638, 316.297 
	L 311.811, 321.908 
	L 325.984, 320.375 
	L 340.158, 318.830 
	L 354.331, 322.973 
	L 368.504, 320.586 
	L 382.677, 320.525 
	L 396.850, 322.612 
	L 411.024, 324.402 
	L 425.197, 323.661 
" />
<path d="M 425.197, 323.661 
	L 439.370, 322.369 
	L 453.543, 324.002 
	L 467.717, 321.594 
	L 481.890, 318.232 
	L 496.063, 320.893 
	L 510.236, 319.340 
	L 524.410, 320.314 
	L 538.583, 317.799 
	L 552.756, 316.024 
" />
<path d="M 0.001, 295.972 
	L 0.000, 295.973 
	L 12.827, 296.864 
	L 25.654, 298.235 
	L 38.480, 298.823 
	L 51.307, 299.706 
	L 64.134, 302.781 
	L 76.961, 302.260 
	L 89.787, 303.732 
	L 102.614, 305.515 
	L 115.441, 307.131 
	L 128.268, 308.654 
" />
<path d="M 128.268, 308.654 
	L 141.095, 308.086 
	L 153.921, 310.124 
	L 166.748, 311.265 
	L 179.575, 313.257 
	L 192.402, 316.006 
	L 205.228, 316.835 
	L 218.055, 317.555 
	L 230.882, 318.331 
	L 243.709, 318.074 
	L 256.535, 319.895 
" />
<path d="M 256.535, 319.895 
	L 269.362, 321.249 
	L 282.189, 325.336 
	L 295.016, 324.219 
	L 307.843, 323.094 
	L 320.669, 326.112 
	L 333.496, 324.374 
	L 346.323, 324.329 
	L 359.150, 325.849 
	L 371.976, 327.153 
	L 384.803, 326.613 
" />
<path d="M 384.803, 326.613 
	L 397.630, 325.672 
	L 410.457, 326.862 
	L 423.284, 325.108 
	L 436.110, 322.659 
	L 448.937, 324.596 
	L 461.764, 323.466 
	L 474.591, 324.174 
	L 487.417, 322.342 
	L 500.244, 321.050 
" />
<path d="M 0.001, 309.567 
	L 0.000, 309.567 
	L 11.764, 310.148 
	L 23.528, 311.041 
	L 35.291, 311.426 
	L 47.055, 312.001 
	L 58.819, 314.007 
	L 70.583, 313.668 
	L 82.346, 314.627 
	L 94.110, 315.790 
	L 105.874, 316.845 
	L 117.638, 317.838 
" />
<path d="M 117.638, 317.838 
	L 129.402, 317.468 
	L 141.165, 318.797 
	L 152.929, 319.541 
	L 164.693, 320.840 
	L 176.457, 322.633 
	L 188.221, 323.174 
	L 199.984, 323.644 
	L 211.748, 324.150 
	L 223.512, 323.982 
	L 235.276, 325.170 
" />
<path d="M 235.276, 325.170 
	L 247.039, 326.053 
	L 258.803, 328.719 
	L 270.567, 327.991 
	L 282.331, 327.256 
	L 294.095, 329.225 
	L 305.858, 328.091 
	L 317.622, 328.062 
	L 329.386, 329.054 
	L 341.150, 329.904 
	L 352.913, 329.552 
" />
<path d="M 352.913, 329.552 
	L 364.677, 328.938 
	L 376.441, 329.714 
	L 388.205, 328.570 
	L 399.969, 326.972 
	L 411.732, 328.236 
	L 423.496, 327.499 
	L 435.260, 327.961 
	L 447.024, 326.767 
	L 458.787, 325.923 
" />
<path d="M 0.001, 327.794 
	L 0.000, 327.795 
	L 10.843, 327.927 
	L 21.685, 328.130 
	L 32.528, 328.218 
	L 43.370, 328.348 
	L 54.213, 328.805 
	L 65.055, 328.728 
	L 75.898, 328.946 
	L 86.740, 329.210 
	L 97.583, 329.450 
	L 108.425, 329.676 
" />
<path d="M 108.425, 329.676 
	L 119.268, 329.591 
	L 130.110, 329.894 
	L 140.953, 330.063 
	L 151.795, 330.358 
	L 162.638, 330.766 
	L 173.480, 330.889 
	L 184.323, 330.996 
	L 195.165, 331.111 
	L 206.008, 331.072 
	L 216.850, 331.343 
" />
<path d="M 216.850, 331.343 
	L 227.693, 331.544 
	L 238.535, 332.150 
	L 249.378, 331.985 
	L 260.221, 331.817 
	L 271.063, 332.265 
	L 281.906, 332.007 
	L 292.748, 332.000 
	L 303.591, 332.226 
	L 314.433, 332.419 
	L 325.276, 332.339 
" />
<path d="M 325.276, 332.339 
	L 336.118, 332.200 
	L 346.961, 332.376 
	L 357.803, 332.116 
	L 368.646, 331.753 
	L 379.488, 332.040 
	L 390.331, 331.873 
	L 401.173, 331.977 
	L 412.016, 331.706 
	L 422.858, 331.514 
" />
<path d="M 0.001, 321.542 
	L 0.000, 321.543 
	L 10.063, 321.955 
	L 20.126, 322.589 
	L 30.189, 322.861 
	L 40.252, 323.270 
	L 50.315, 324.693 
	L 60.378, 324.452 
	L 70.441, 325.133 
	L 80.504, 325.957 
	L 90.567, 326.706 
	L 100.630, 327.411 
" />
<path d="M 100.630, 327.411 
	L 110.693, 327.148 
	L 120.756, 328.091 
	L 130.819, 328.618 
	L 140.882, 329.540 
	L 150.945, 330.812 
	L 161.008, 331.196 
	L 171.071, 331.529 
	L 181.134, 331.888 
	L 191.197, 331.769 
	L 201.260, 332.612 
" />
<path d="M 201.260, 332.612 
	L 211.323, 333.238 
	L 221.386, 335.130 
	L 231.449, 334.612 
	L 241.512, 334.092 
	L 251.575, 335.488 
	L 261.638, 334.684 
	L 271.701, 334.663 
	L 281.764, 335.366 
	L 291.827, 335.970 
	L 301.890, 335.720 
" />
<path d="M 301.890, 335.720 
	L 311.953, 335.285 
	L 322.016, 335.835 
	L 332.079, 335.023 
	L 342.142, 333.890 
	L 352.205, 334.787 
	L 362.268, 334.264 
	L 372.331, 334.592 
	L 382.394, 333.744 
	L 392.457, 333.146 
" />
<path d="M 0.001, 336.644 
	L 0.000, 336.645 
	L 9.425, 336.699 
	L 18.850, 336.783 
	L 28.276, 336.819 
	L 37.701, 336.874 
	L 47.126, 337.062 
	L 56.551, 337.030 
	L 65.976, 337.120 
	L 75.402, 337.229 
	L 84.827, 337.329 
	L 94.252, 337.422 
" />
<path d="M 94.252, 337.422 
	L 103.677, 337.387 
	L 113.102, 337.512 
	L 122.528, 337.582 
	L 131.953, 337.704 
	L 141.378, 337.873 
	L 150.803, 337.923 
	L 160.228, 337.968 
	L 169.654, 338.015 
	L 179.079, 337.999 
	L 188.504, 338.111 
" />
<path d="M 188.504, 338.111 
	L 197.929, 338.194 
	L 207.354, 338.445 
	L 216.780, 338.376 
	L 226.205, 338.307 
	L 235.630, 338.492 
	L 245.055, 338.385 
	L 254.480, 338.383 
	L 263.906, 338.476 
	L 273.331, 338.556 
	L 282.756, 338.523 
" />
<path d="M 282.756, 338.523 
	L 292.181, 338.465 
	L 301.606, 338.538 
	L 311.032, 338.431 
	L 320.457, 338.280 
	L 329.882, 338.399 
	L 339.307, 338.330 
	L 348.732, 338.373 
	L 358.158, 338.261 
	L 367.583, 338.182 
" />
<path d="M 0.001, 336.741 
	L 0.000, 336.742 
	L 8.858, 336.885 
	L 17.717, 337.106 
	L 26.575, 337.201 
	L 35.433, 337.343 
	L 44.291, 337.838 
	L 53.150, 337.754 
	L 62.008, 337.992 
	L 70.866, 338.279 
	L 79.724, 338.539 
	L 88.583, 338.784 
" />
<path d="M 88.583, 338.784 
	L 97.441, 338.693 
	L 106.299, 339.022 
	L 115.157, 339.205 
	L 124.016, 339.525 
	L 132.874, 339.968 
	L 141.732, 340.102 
	L 150.591, 340.218 
	L 159.449, 340.343 
	L 168.307, 340.301 
	L 177.165, 340.595 
" />
<path d="M 177.165, 340.595 
	L 186.024, 340.813 
	L 194.882, 341.471 
	L 203.740, 341.291 
	L 212.598, 341.111 
	L 221.457, 341.597 
	L 230.315, 341.316 
	L 239.173, 341.309 
	L 248.032, 341.554 
	L 256.890, 341.764 
	L 265.748, 341.677 
" />
<path d="M 265.748, 341.677 
	L 274.606, 341.526 
	L 283.465, 341.717 
	L 292.323, 341.435 
	L 301.181, 341.041 
	L 310.039, 341.352 
	L 318.898, 341.170 
	L 327.756, 341.284 
	L 336.614, 340.990 
	L 345.472, 340.781 
" />
<path d="M 0.001, 344.601 
	L 0.000, 344.602 
	L 8.291, 344.602 
	L 16.583, 344.602 
	L 24.874, 344.602 
	L 33.165, 344.602 
	L 41.457, 344.602 
	L 49.748, 344.602 
	L 58.039, 344.602 
	L 66.331, 344.602 
	L 74.622, 344.602 
	L 82.913, 344.602 
" />
<path d="M 82.913, 344.602 
	L 91.205, 344.602 
	L 99.496, 344.602 
	L 107.787, 344.602 
	L 116.079, 344.602 
	L 124.370, 344.602 
	L 132.661, 344.602 
	L 140.953, 344.602 
	L 149.244, 344.602 
	L 157.535, 344.602 
	L 165.827, 344.602 
" />
<path d="M 165.827, 344.602 
	L 174.118, 344.602 
	L 182.409, 344.602 
	L 190.701, 344.602 
	L 198.992, 344.602 
	L 207.283, 344.602 
	L 215.575, 344.602 
	L 223.866, 344.602 
	L 232.158, 344.602 
	L 240.449, 344.602 
	L 248.740, 344.602 
" />
<path d="M 248.740, 344.602 
	L 257.032, 344.602 
	L 265.323, 344.602 
	L 273.614, 344.602 
	L 281.906, 344.602 
	L 290.197, 344.602 
	L 298.488, 344.602 
	L 306.780, 344.602 
	L 315.071, 344.602 
	L 323.362, 344.602 
" />
<path d="M 0.001, 355.171 
	L 0.000, 355.172 
	L 7.866, 354.947 
	L 15.732, 354.600 
	L 23.598, 354.451 
	L 31.465, 354.229 
	L 39.331, 353.451 
	L 47.197, 353.582 
	L 55.063, 353.210 
	L 62.929, 352.760 
	L 70.795, 352.351 
	L 78.661, 351.966 
" />
<path d="M 78.661, 351.966 
	L 86.528, 352.110 
	L 94.394, 351.594 
	L 102.260, 351.306 
	L 110.126, 350.802 
	L 117.992, 350.107 
	L 125.858, 349.897 
	L 133.724, 349.716 
	L 141.591, 349.519 
	L 149.457, 349.584 
	L 157.323, 349.124 
" />
<path d="M 157.323, 349.124 
	L 165.189, 348.782 
	L 173.055, 347.748 
	L 180.921, 348.031 
	L 188.787, 348.315 
	L 196.654, 347.552 
	L 204.520, 347.992 
	L 212.386, 348.003 
	L 220.252, 347.618 
	L 228.118, 347.289 
	L 235.984, 347.426 
" />
<path d="M 235.984, 347.426 
	L 243.850, 347.663 
	L 251.717, 347.362 
	L 259.583, 347.806 
	L 267.449, 348.425 
	L 275.315, 347.935 
	L 283.181, 348.221 
	L 291.047, 348.042 
	L 298.913, 348.505 
	L 306.780, 348.832 
" />
<path d="M 0.001, 350.847 
	L 0.000, 350.848 
	L 7.441, 350.840 
	L 14.882, 350.829 
	L 22.323, 350.824 
	L 29.764, 350.817 
	L 37.205, 350.792 
	L 44.646, 350.797 
	L 52.087, 350.785 
	L 59.528, 350.770 
	L 66.969, 350.757 
	L 74.409, 350.745 
" />
<path d="M 74.409, 350.745 
	L 81.850, 350.749 
	L 89.291, 350.733 
	L 96.732, 350.724 
	L 104.173, 350.707 
	L 111.614, 350.685 
	L 119.055, 350.678 
	L 126.496, 350.673 
	L 133.937, 350.666 
	L 141.378, 350.668 
	L 148.819, 350.654 
" />
<path d="M 148.819, 350.654 
	L 156.260, 350.643 
	L 163.701, 350.610 
	L 171.142, 350.619 
	L 178.583, 350.628 
	L 186.024, 350.603 
	L 193.465, 350.617 
	L 200.906, 350.617 
	L 208.346, 350.605 
	L 215.787, 350.595 
	L 223.228, 350.599 
" />
<path d="M 223.228, 350.599 
	L 230.669, 350.607 
	L 238.110, 350.598 
	L 245.551, 350.612 
	L 252.992, 350.632 
	L 260.433, 350.615 
	L 267.874, 350.624 
	L 275.315, 350.619 
	L 282.756, 350.634 
	L 290.197, 350.644 
" />
<path d="M 0.001, 358.642 
	L 0.000, 358.643 
	L 7.087, 358.492 
	L 14.173, 358.259 
	L 21.260, 358.158 
	L 28.346, 358.009 
	L 35.433, 357.486 
	L 42.520, 357.574 
	L 49.606, 357.323 
	L 56.693, 357.021 
	L 63.780, 356.746 
	L 70.866, 356.487 
" />
<path d="M 70.866, 356.487 
	L 77.953, 356.583 
	L 85.039, 356.236 
	L 92.126, 356.043 
	L 99.213, 355.704 
	L 106.299, 355.236 
	L 113.386, 355.095 
	L 120.472, 354.973 
	L 127.559, 354.841 
	L 134.646, 354.885 
	L 141.732, 354.575 
" />
<path d="M 141.732, 354.575 
	L 148.819, 354.345 
	L 155.906, 353.650 
	L 162.992, 353.840 
	L 170.079, 354.031 
	L 177.165, 353.518 
	L 184.252, 353.813 
	L 191.339, 353.821 
	L 198.425, 353.563 
	L 205.512, 353.341 
	L 212.598, 353.432 
" />
<path d="M 212.598, 353.432 
	L 219.685, 353.592 
	L 226.772, 353.390 
	L 233.858, 353.689 
	L 240.945, 354.105 
	L 248.032, 353.775 
	L 255.118, 353.968 
	L 262.205, 353.847 
	L 269.291, 354.159 
	L 276.378, 354.378 
" />
<path d="M 0.001, 348.713 
	L 0.000, 348.714 
	L 6.732, 348.946 
	L 13.465, 349.302 
	L 20.197, 349.456 
	L 26.929, 349.686 
	L 33.661, 350.486 
	L 40.394, 350.350 
	L 47.126, 350.733 
	L 53.858, 351.197 
	L 60.591, 351.618 
	L 67.323, 352.014 
" />
<path d="M 67.323, 352.014 
	L 74.055, 351.867 
	L 80.787, 352.397 
	L 87.520, 352.694 
	L 94.252, 353.213 
	L 100.984, 353.928 
	L 107.717, 354.144 
	L 114.449, 354.331 
	L 121.181, 354.533 
	L 127.913, 354.466 
	L 134.646, 354.940 
" />
<path d="M 134.646, 354.940 
	L 141.378, 355.292 
	L 148.110, 356.356 
	L 154.843, 356.066 
	L 161.575, 355.773 
	L 168.307, 356.558 
	L 175.039, 356.106 
	L 181.772, 356.094 
	L 188.504, 356.490 
	L 195.236, 356.829 
	L 201.969, 356.688 
" />
<path d="M 201.969, 356.688 
	L 208.701, 356.444 
	L 215.433, 356.753 
	L 222.165, 356.297 
	L 228.898, 355.660 
	L 235.630, 356.163 
	L 242.362, 355.869 
	L 249.095, 356.054 
	L 255.827, 355.577 
	L 262.559, 355.241 
" />
<path d="M 0.001, 351.770 
	L 0.000, 351.771 
	L 6.378, 351.999 
	L 12.756, 352.348 
	L 19.134, 352.498 
	L 25.512, 352.723 
	L 31.890, 353.507 
	L 38.268, 353.374 
	L 44.646, 353.750 
	L 51.024, 354.204 
	L 57.402, 354.616 
	L 63.780, 355.004 
" />
<path d="M 63.780, 355.004 
	L 70.157, 354.859 
	L 76.535, 355.379 
	L 82.913, 355.669 
	L 89.291, 356.178 
	L 95.669, 356.878 
	L 102.047, 357.090 
	L 108.425, 357.273 
	L 114.803, 357.472 
	L 121.181, 357.406 
	L 127.559, 357.870 
" />
<path d="M 127.559, 357.870 
	L 133.937, 358.215 
	L 140.315, 359.257 
	L 146.693, 358.972 
	L 153.071, 358.686 
	L 159.449, 359.455 
	L 165.827, 359.011 
	L 172.205, 359.000 
	L 178.583, 359.388 
	L 184.961, 359.720 
	L 191.339, 359.583 
" />
<path d="M 191.339, 359.583 
	L 197.717, 359.343 
	L 204.095, 359.646 
	L 210.472, 359.199 
	L 216.850, 358.574 
	L 223.228, 359.068 
	L 229.606, 358.780 
	L 235.984, 358.961 
	L 242.362, 358.494 
	L 248.740, 358.165 
" />
<path d="M 0.001, 350.296 
	L 0.000, 350.297 
	L 6.094, 350.654 
	L 12.189, 351.202 
	L 18.283, 351.438 
	L 24.378, 351.791 
	L 30.472, 353.023 
	L 36.567, 352.814 
	L 42.661, 353.403 
	L 48.756, 354.117 
	L 54.850, 354.764 
	L 60.945, 355.373 
" />
<path d="M 60.945, 355.373 
	L 67.039, 355.146 
	L 73.134, 355.962 
	L 79.228, 356.418 
	L 85.323, 357.216 
	L 91.417, 358.316 
	L 97.512, 358.649 
	L 103.606, 358.936 
	L 109.701, 359.247 
	L 115.795, 359.144 
	L 121.890, 359.873 
" />
<path d="M 121.890, 359.873 
	L 127.984, 360.415 
	L 134.079, 362.052 
	L 140.173, 361.604 
	L 146.268, 361.154 
	L 152.362, 362.362 
	L 158.457, 361.666 
	L 164.551, 361.648 
	L 170.646, 362.257 
	L 176.740, 362.779 
	L 182.835, 362.563 
" />
<path d="M 182.835, 362.563 
	L 188.929, 362.186 
	L 195.024, 362.663 
	L 201.118, 361.960 
	L 207.213, 360.979 
	L 213.307, 361.755 
	L 219.402, 361.303 
	L 225.496, 361.587 
	L 231.591, 360.853 
	L 237.685, 360.336 
" />
<path d="M 0.001, 354.971 
	L 0.000, 354.971 
	L 5.882, 355.273 
	L 11.764, 355.738 
	L 17.646, 355.937 
	L 23.528, 356.236 
	L 29.409, 357.279 
	L 35.291, 357.102 
	L 41.173, 357.601 
	L 47.055, 358.206 
	L 52.937, 358.754 
	L 58.819, 359.269 
" />
<path d="M 58.819, 359.269 
	L 64.701, 359.077 
	L 70.583, 359.768 
	L 76.465, 360.155 
	L 82.346, 360.829 
	L 88.228, 361.761 
	L 94.110, 362.042 
	L 99.992, 362.286 
	L 105.874, 362.549 
	L 111.756, 362.462 
	L 117.638, 363.079 
	L 123.520, 363.538 
" />
<path d="M 123.520, 363.538 
	L 129.402, 364.924 
	L 135.283, 364.545 
	L 141.165, 364.163 
	L 147.047, 365.187 
	L 152.929, 364.597 
	L 158.811, 364.582 
	L 164.693, 365.097 
	L 170.575, 365.539 
	L 176.457, 365.356 
	L 182.339, 365.037 
" />
<path d="M 182.339, 365.037 
	L 188.221, 365.440 
	L 194.102, 364.846 
	L 199.984, 364.016 
	L 205.866, 364.673 
	L 211.748, 364.290 
	L 217.630, 364.530 
	L 223.512, 363.909 
	L 229.394, 363.471 
" />
<path d="M 0.001, 343.437 
	L 0.000, 343.437 
	L 5.669, 344.166 
	L 11.339, 345.289 
	L 17.008, 345.772 
	L 22.677, 346.494 
	L 28.346, 349.014 
	L 34.016, 348.587 
	L 39.685, 349.792 
	L 45.354, 351.252 
	L 51.024, 352.577 
	L 56.693, 353.825 
" />
<path d="M 56.693, 353.825 
	L 62.362, 353.359 
	L 68.032, 355.029 
	L 73.701, 355.963 
	L 79.370, 357.594 
	L 85.039, 359.846 
	L 90.709, 360.526 
	L 96.378, 361.115 
	L 102.047, 361.751 
	L 107.717, 361.540 
	L 113.386, 363.032 
	L 119.055, 364.141 
" />
<path d="M 119.055, 364.141 
	L 124.724, 367.489 
	L 130.394, 366.574 
	L 136.063, 365.653 
	L 141.732, 368.125 
	L 147.402, 366.700 
	L 153.071, 366.664 
	L 158.740, 367.909 
	L 164.409, 368.977 
	L 170.079, 368.535 
	L 175.748, 367.765 
" />
<path d="M 175.748, 367.765 
	L 181.417, 368.739 
	L 187.087, 367.302 
	L 192.756, 365.296 
	L 198.425, 366.883 
	L 204.095, 365.957 
	L 209.764, 366.537 
	L 215.433, 365.037 
	L 221.102, 363.978 
" />
<path d="M 0.001, 355.704 
	L 0.000, 355.705 
	L 5.386, 356.152 
	L 10.772, 356.839 
	L 16.157, 357.134 
	L 21.543, 357.577 
	L 26.929, 359.120 
	L 32.315, 358.859 
	L 37.701, 359.598 
	L 43.087, 360.491 
	L 48.472, 361.303 
	L 53.858, 362.067 
" />
<path d="M 53.858, 362.067 
	L 59.244, 361.782 
	L 64.630, 362.804 
	L 70.016, 363.376 
	L 75.402, 364.375 
	L 80.787, 365.755 
	L 86.173, 366.171 
	L 91.559, 366.532 
	L 96.945, 366.922 
	L 102.331, 366.793 
	L 107.717, 367.706 
	L 113.102, 368.386 
" />
<path d="M 113.102, 368.386 
	L 118.488, 370.436 
	L 123.874, 369.876 
	L 129.260, 369.311 
	L 134.646, 370.826 
	L 140.032, 369.953 
	L 145.417, 369.931 
	L 150.803, 370.693 
	L 156.189, 371.347 
	L 161.575, 371.076 
	L 166.961, 370.604 
" />
<path d="M 166.961, 370.604 
	L 172.346, 371.201 
	L 177.732, 370.322 
	L 183.118, 369.093 
	L 188.504, 370.064 
	L 193.890, 369.498 
	L 199.276, 369.853 
	L 204.661, 368.934 
	L 210.047, 368.286 
" />
<path d="M 0.001, 368.535 
	L 0.000, 368.536 
	L 5.244, 368.683 
	L 10.488, 368.908 
	L 15.732, 369.004 
	L 20.976, 369.150 
	L 26.220, 369.656 
	L 31.465, 369.570 
	L 36.709, 369.812 
	L 41.953, 370.105 
	L 47.197, 370.371 
	L 52.441, 370.621 
" />
<path d="M 52.441, 370.621 
	L 57.685, 370.528 
	L 62.929, 370.863 
	L 68.173, 371.051 
	L 73.417, 371.378 
	L 78.661, 371.830 
	L 83.906, 371.967 
	L 89.150, 372.086 
	L 94.394, 372.213 
	L 99.638, 372.171 
	L 104.882, 372.470 
	L 110.126, 372.693 
" />
<path d="M 110.126, 372.693 
	L 115.370, 373.365 
	L 120.614, 373.181 
	L 125.858, 372.996 
	L 131.102, 373.492 
	L 136.346, 373.207 
	L 141.591, 373.200 
	L 146.835, 373.449 
	L 152.079, 373.664 
	L 157.323, 373.575 
	L 162.567, 373.420 
" />
<path d="M 162.567, 373.420 
	L 167.811, 373.616 
	L 173.055, 373.327 
	L 178.299, 372.925 
	L 183.543, 373.244 
	L 188.787, 373.057 
	L 194.032, 373.174 
	L 199.276, 372.873 
	L 204.520, 372.660 
" />
<path d="M 0.001, 371.046 
	L 0.000, 371.047 
	L 5.031, 371.200 
	L 10.063, 371.435 
	L 15.094, 371.536 
	L 20.126, 371.687 
	L 25.157, 372.216 
	L 30.189, 372.127 
	L 35.220, 372.379 
	L 40.252, 372.685 
	L 45.283, 372.963 
	L 50.315, 373.224 
" />
<path d="M 50.315, 373.224 
	L 55.346, 373.127 
	L 60.378, 373.477 
	L 65.409, 373.673 
	L 70.441, 374.015 
	L 75.472, 374.487 
	L 80.504, 374.630 
	L 85.535, 374.753 
	L 90.567, 374.887 
	L 95.598, 374.842 
	L 100.630, 375.156 
	L 105.661, 375.388 
" />
<path d="M 105.661, 375.388 
	L 110.693, 376.090 
	L 115.724, 375.898 
	L 120.756, 375.705 
	L 125.787, 376.223 
	L 130.819, 375.924 
	L 135.850, 375.917 
	L 140.882, 376.178 
	L 145.913, 376.402 
	L 150.945, 376.309 
	L 155.976, 376.148 
" />
<path d="M 155.976, 376.148 
	L 161.008, 376.352 
	L 166.039, 376.051 
	L 171.071, 375.630 
	L 176.102, 375.963 
	L 181.134, 375.768 
	L 186.165, 375.890 
	L 191.197, 375.576 
	L 196.228, 375.354 
" />
<path d="M 0.001, 365.639 
	L 0.000, 365.640 
	L 4.819, 366.034 
	L 9.638, 366.642 
	L 14.457, 366.902 
	L 19.276, 367.294 
	L 24.094, 368.656 
	L 28.913, 368.426 
	L 33.732, 369.078 
	L 38.551, 369.867 
	L 43.370, 370.585 
	L 48.189, 371.259 
" />
<path d="M 48.189, 371.259 
	L 53.008, 371.008 
	L 57.827, 371.911 
	L 62.646, 372.416 
	L 67.465, 373.299 
	L 72.283, 374.517 
	L 77.102, 374.885 
	L 81.921, 375.204 
	L 86.740, 375.547 
	L 91.559, 375.433 
	L 96.378, 376.240 
	L 101.197, 376.841 
" />
<path d="M 101.197, 376.841 
	L 106.016, 378.652 
	L 110.835, 378.157 
	L 115.654, 377.658 
	L 120.472, 378.996 
	L 125.291, 378.225 
	L 130.110, 378.206 
	L 134.929, 378.879 
	L 139.748, 379.457 
	L 144.567, 379.218 
	L 149.386, 378.801 
" />
<path d="M 149.386, 378.801 
	L 154.205, 379.328 
	L 159.024, 378.551 
	L 163.843, 377.465 
	L 168.661, 378.324 
	L 173.480, 377.823 
	L 178.299, 378.137 
	L 183.118, 377.325 
	L 187.937, 376.753 
" />
<path d="M 0.001, 360.376 
	L 0.000, 360.376 
	L 4.677, 361.008 
	L 9.354, 361.979 
	L 14.031, 362.396 
	L 18.709, 363.022 
	L 23.386, 365.202 
	L 28.063, 364.832 
	L 32.740, 365.876 
	L 37.417, 367.139 
	L 42.094, 368.285 
	L 46.772, 369.365 
" />
<path d="M 46.772, 369.365 
	L 51.449, 368.962 
	L 56.126, 370.407 
	L 60.803, 371.215 
	L 65.480, 372.627 
	L 70.157, 374.576 
	L 74.835, 375.164 
	L 79.512, 375.674 
	L 84.189, 376.224 
	L 88.866, 376.042 
	L 93.543, 377.333 
	L 98.220, 378.293 
" />
<path d="M 98.220, 378.293 
	L 102.898, 381.190 
	L 107.575, 380.398 
	L 112.252, 379.600 
	L 116.929, 381.740 
	L 121.606, 380.507 
	L 126.283, 380.475 
	L 130.961, 381.553 
	L 135.638, 382.477 
	L 140.315, 382.095 
	L 144.992, 381.428 
" />
<path d="M 144.992, 381.428 
	L 149.669, 382.271 
	L 154.346, 381.027 
	L 159.024, 379.292 
	L 163.701, 380.665 
	L 168.378, 379.864 
	L 173.055, 380.366 
	L 177.732, 379.068 
	L 182.409, 378.152 
" />
</g><g style="stroke:rgb(255,0,0); fill:none; stroke-width:0.100mm" >
<path d="M 14.173, 622.205 
	L 14.173, 625.039 
" />
<path d="M 14.173, 623.622 
	L 16.299, 622.205 
	L 17.362, 622.205 
" />
<path d="M 20.551, 623.622 
	L 23.740, 623.622 
	L 24.803, 622.913 
	L 23.740, 622.205 
	L 21.614, 622.205 
	L 20.551, 622.913 
	L 20.551, 624.331 
	L 21.614, 625.039 
	L 24.803, 625.039 
" />
<path d="M 31.181, 624.331 
	L 30.118, 625.039 
	L 29.055, 625.039 
	L 27.992, 624.331 
	L 27.992, 622.913 
	L 29.055, 622.205 
	L 30.118, 622.205 
	L 31.181, 622.913 
" />
<path d="M 34.370, 625.039 
	L 33.307, 624.331 
	L 33.307, 622.913 
	L 34.370, 622.205 
	L 35.433, 622.205 
	L 36.496, 622.913 
	L 36.496, 624.331 
	L 35.433, 625.039 
	L 34.370, 625.039 
" />
<path d="M 39.685, 622.205 
	L 39.685, 625.039 
" />
<path d="M 39.685, 623.622 
	L 41.811, 622.205 
	L 42.874, 622.205 
" />
<path d="M 49.252, 620.787 
	L 49.252, 625.039 
	L 47.126, 625.039 
	L 46.063, 624.331 
	L 46.063, 622.913 
	L 47.126, 622.205 
	L 49.252, 622.205 
" />
<path d="M 49.252, 625.039 
	L 50.315, 625.039 
" />
<path d="M 52.441, 623.622 
	L 55.630, 623.622 
	L 56.693, 622.913 
	L 55.630, 622.205 
	L 53.504, 622.205 
	L 52.441, 622.913 
	L 52.441, 624.331 
	L 53.504, 625.039 
	L 56.693, 625.039 
" />
<path d="M 62.008, 620.787 
	L 62.008, 625.039 
	L 59.882, 625.039 
	L 58.819, 624.331 
	L 58.819, 622.913 
	L 59.882, 622.205 
	L 62.008, 622.205 
" />
<path d="M 62.008, 625.039 
	L 63.071, 625.039 
" />
<path d="M 73.701, 620.787 
	L 73.701, 621.496 
" />
<path d="M 72.638, 622.205 
	L 73.701, 622.205 
	L 73.701, 625.039 
" />
<path d="M 72.638, 625.039 
	L 74.764, 625.039 
" />
<path d="M 77.953, 625.039 
	L 77.953, 622.205 
" />
<path d="M 77.953, 622.913 
	L 79.016, 622.205 
	L 80.079, 622.205 
	L 81.142, 622.913 
	L 81.142, 625.039 
" />
<path d="M 92.835, 625.039 
	L 92.835, 620.787 
	L 90.709, 620.787 
	L 94.961, 620.787 
" />
<path d="M 97.087, 622.205 
	L 97.087, 624.331 
	L 98.150, 625.039 
	L 100.276, 625.039 
	L 100.276, 622.205 
" />
<path d="M 106.654, 622.205 
	L 104.528, 622.205 
	L 103.465, 622.913 
	L 104.528, 623.622 
	L 105.591, 623.622 
	L 106.654, 624.331 
	L 105.591, 625.039 
	L 103.465, 625.039 
" />
<path d="M 109.843, 620.787 
	L 109.843, 625.039 
" />
<path d="M 109.843, 622.205 
	L 111.969, 622.205 
	L 113.032, 622.913 
	L 113.032, 625.039 
" />
<path d="M 116.220, 623.622 
	L 119.409, 623.622 
	L 120.472, 622.913 
	L 119.409, 622.205 
	L 117.283, 622.205 
	L 116.220, 622.913 
	L 116.220, 624.331 
	L 117.283, 625.039 
	L 120.472, 625.039 
" />
<path d="M 123.661, 620.787 
	L 123.661, 625.039 
	L 125.787, 625.039 
" />
<path d="M 122.598, 622.205 
	L 125.787, 622.205 
" />
<path d="M 131.102, 620.787 
	L 131.102, 621.496 
" />
<path d="M 130.039, 622.205 
	L 131.102, 622.205 
	L 131.102, 625.039 
" />
<path d="M 130.039, 625.039 
	L 132.165, 625.039 
" />
<path d="M 137.480, 620.787 
	L 137.480, 621.496 
" />
<path d="M 136.417, 622.205 
	L 137.480, 622.205 
	L 137.480, 625.039 
" />
<path d="M 136.417, 625.039 
	L 138.543, 625.039 
" />
<path d="M 152.362, 621.496 
	L 151.299, 620.787 
	L 149.173, 620.787 
	L 148.110, 621.496 
	L 148.110, 624.331 
	L 149.173, 625.039 
	L 151.299, 625.039 
	L 152.362, 624.331 
	L 152.362, 622.913 
	L 149.173, 622.913 
" />
<path d="M 154.488, 623.622 
	L 157.677, 623.622 
	L 158.740, 622.913 
	L 157.677, 622.205 
	L 155.551, 622.205 
	L 154.488, 622.913 
	L 154.488, 624.331 
	L 155.551, 625.039 
	L 158.740, 625.039 
" />
<path d="M 161.929, 625.039 
	L 160.866, 624.331 
	L 160.866, 622.913 
	L 161.929, 622.205 
	L 162.992, 622.205 
	L 164.055, 622.913 
	L 164.055, 624.331 
	L 162.992, 625.039 
	L 161.929, 625.039 
" />
<path d="M 167.244, 622.205 
	L 167.244, 625.039 
" />
<path d="M 167.244, 623.622 
	L 169.370, 622.205 
	L 170.433, 622.205 
" />
<path d="M 173.622, 626.457 
	L 175.748, 626.457 
	L 176.811, 625.748 
	L 176.811, 622.205 
	L 174.685, 622.205 
	L 173.622, 622.913 
	L 173.622, 624.331 
	L 174.685, 625.039 
	L 176.811, 625.039 
" />
<path d="M 182.126, 620.787 
	L 182.126, 621.496 
" />
<path d="M 181.063, 622.205 
	L 182.126, 622.205 
	L 182.126, 625.039 
" />
<path d="M 181.063, 625.039 
	L 183.189, 625.039 
" />
<path d="M 190.630, 625.039 
	L 187.441, 625.039 
	L 186.378, 624.331 
	L 186.378, 622.913 
	L 187.441, 622.205 
	L 189.567, 622.205 
	L 189.567, 625.039 
" />
<path d="M 14.173, 632.126 
	L 14.173, 627.874 
" />
<path d="M 17.362, 632.126 
	L 14.173, 630.709 
	L 17.362, 629.291 
" />
<path d="M 24.803, 632.126 
	L 21.614, 632.126 
	L 20.551, 631.417 
	L 20.551, 630.000 
	L 21.614, 629.291 
	L 23.740, 629.291 
	L 23.740, 632.126 
" />
<path d="M 27.992, 632.126 
	L 26.929, 631.417 
	L 26.929, 630.000 
	L 27.992, 629.291 
	L 29.055, 629.291 
	L 30.118, 630.000 
	L 30.118, 631.417 
	L 29.055, 632.126 
	L 27.992, 632.126 
" />
<path d="M 34.370, 627.874 
	L 34.370, 632.126 
	L 36.496, 632.126 
" />
<path d="M 33.307, 629.291 
	L 36.496, 629.291 
" />
<path d="M 39.685, 630.709 
	L 42.874, 630.709 
	L 43.937, 630.000 
	L 42.874, 629.291 
	L 40.748, 629.291 
	L 39.685, 630.000 
	L 39.685, 631.417 
	L 40.748, 632.126 
	L 43.937, 632.126 
" />
<path d="M 50.315, 631.417 
	L 49.252, 632.126 
	L 48.189, 632.126 
	L 47.126, 631.417 
	L 47.126, 630.000 
	L 48.189, 629.291 
	L 49.252, 629.291 
	L 50.315, 630.000 
" />
<path d="M 63.071, 632.126 
	L 60.945, 632.126 
	L 60.945, 627.874 
	L 63.071, 627.874 
" />
<path d="M 65.197, 632.126 
	L 67.323, 632.126 
	L 67.323, 627.874 
	L 65.197, 627.874 
" />
<path d="M 74.764, 627.874 
	L 71.575, 630.000 
	L 74.764, 632.126 
" />
<path d="M 77.953, 627.874 
	L 81.142, 630.000 
	L 77.953, 632.126 
" />
<path d="M 90.709, 628.583 
	L 91.772, 627.874 
	L 93.898, 627.874 
	L 94.961, 628.583 
	L 94.961, 629.291 
	L 90.709, 631.417 
	L 90.709, 632.126 
	L 94.961, 632.126 
" />
<path d="M 97.087, 631.417 
	L 98.150, 632.126 
	L 100.276, 632.126 
	L 101.339, 631.417 
	L 101.339, 628.583 
	L 100.276, 627.874 
	L 98.150, 627.874 
	L 97.087, 628.583 
	L 97.087, 631.417 
" />
<path d="M 104.528, 632.126 
	L 106.654, 632.126 
" />
<path d="M 105.591, 632.126 
	L 105.591, 627.874 
	L 104.528, 628.583 
" />
<path d="M 110.906, 632.126 
	L 111.969, 632.126 
	L 114.095, 630.709 
	L 114.095, 628.583 
	L 113.032, 627.874 
	L 110.906, 627.874 
	L 109.843, 628.583 
	L 109.843, 629.291 
	L 110.906, 630.000 
	L 114.095, 630.000 
" />
<path d="M 14.173, 653.386 
	L 17.362, 653.386 
	L 18.425, 652.677 
	L 18.425, 651.260 
	L 17.362, 650.551 
	L 15.236, 650.551 
" />
<path d="M 15.236, 649.134 
	L 15.236, 653.386 
" />
<path d="M 24.803, 653.386 
	L 21.614, 653.386 
	L 20.551, 652.677 
	L 20.551, 651.260 
	L 21.614, 650.551 
	L 23.740, 650.551 
	L 23.740, 653.386 
" />
<path d="M 26.929, 653.386 
	L 26.929, 650.551 
" />
<path d="M 26.929, 651.260 
	L 27.992, 650.551 
	L 29.055, 650.551 
	L 30.118, 651.260 
	L 30.118, 653.386 
" />
<path d="M 36.496, 649.134 
	L 36.496, 653.386 
	L 34.370, 653.386 
	L 33.307, 652.677 
	L 33.307, 651.260 
	L 34.370, 650.551 
	L 36.496, 650.551 
" />
<path d="M 36.496, 653.386 
	L 37.559, 653.386 
" />
<path d="M 43.937, 652.677 
	L 42.874, 653.386 
	L 41.811, 653.386 
	L 40.748, 652.677 
	L 40.748, 651.260 
	L 41.811, 650.551 
	L 42.874, 650.551 
	L 43.937, 651.260 
" />
<path d="M 50.315, 653.386 
	L 47.126, 653.386 
	L 46.063, 652.677 
	L 46.063, 651.260 
	L 47.126, 650.551 
	L 49.252, 650.551 
	L 49.252, 653.386 
" />
<path d="M 52.441, 653.386 
	L 52.441, 650.551 
" />
<path d="M 52.441, 651.260 
	L 53.504, 650.551 
	L 54.567, 651.260 
	L 54.567, 653.386 
" />
<path d="M 54.567, 651.260 
	L 55.630, 650.551 
	L 56.693, 651.260 
	L 56.693, 653.386 
" />
<path d="M 58.819, 654.803 
	L 58.819, 650.551 
	L 60.945, 650.551 
	L 62.008, 651.260 
	L 62.008, 652.677 
	L 60.945, 653.386 
	L 58.819, 653.386 
" />
<path d="M 74.764, 649.134 
	L 74.764, 653.386 
	L 72.638, 653.386 
	L 71.575, 652.677 
	L 71.575, 651.260 
	L 72.638, 650.551 
	L 74.764, 650.551 
" />
<path d="M 74.764, 653.386 
	L 75.827, 653.386 
" />
<path d="M 79.016, 653.386 
	L 77.953, 652.677 
	L 77.953, 651.260 
	L 79.016, 650.551 
	L 80.079, 650.551 
	L 81.142, 651.260 
	L 81.142, 652.677 
	L 80.079, 653.386 
	L 79.016, 653.386 
" />
<path d="M 84.331, 650.551 
	L 84.331, 652.677 
	L 85.394, 653.386 
	L 86.457, 652.677 
	L 86.457, 651.260 
" />
<path d="M 86.457, 652.677 
	L 87.520, 653.386 
	L 88.583, 652.677 
	L 88.583, 650.551 
" />
<path d="M 90.709, 653.386 
	L 90.709, 650.551 
" />
<path d="M 90.709, 651.260 
	L 91.772, 650.551 
	L 92.835, 650.551 
	L 93.898, 651.260 
	L 93.898, 653.386 
" />
<path d="M 98.150, 649.134 
	L 99.213, 649.134 
	L 99.213, 653.386 
" />
<path d="M 98.150, 653.386 
	L 100.276, 653.386 
" />
<path d="M 104.528, 653.386 
	L 103.465, 652.677 
	L 103.465, 651.260 
	L 104.528, 650.551 
	L 105.591, 650.551 
	L 106.654, 651.260 
	L 106.654, 652.677 
	L 105.591, 653.386 
	L 104.528, 653.386 
" />
<path d="M 114.095, 653.386 
	L 110.906, 653.386 
	L 109.843, 652.677 
	L 109.843, 651.260 
	L 110.906, 650.551 
	L 113.032, 650.551 
	L 113.032, 653.386 
" />
<path d="M 119.409, 649.134 
	L 119.409, 653.386 
	L 117.283, 653.386 
	L 116.220, 652.677 
	L 116.220, 651.260 
	L 117.283, 650.551 
	L 119.409, 650.551 
" />
<path d="M 119.409, 653.386 
	L 120.472, 653.386 
" />
<path d="M 126.850, 652.677 
	L 125.787, 653.386 
	L 124.724, 653.386 
	L 123.661, 652.677 
	L 123.661, 651.260 
	L 124.724, 650.551 
	L 125.787, 650.551 
	L 126.850, 651.260 
" />
<path d="M 130.039, 653.386 
	L 128.976, 652.677 
	L 128.976, 651.260 
	L 130.039, 650.551 
	L 131.102, 650.551 
	L 132.165, 651.260 
	L 132.165, 652.677 
	L 131.102, 653.386 
	L 130.039, 653.386 
" />
<path d="M 138.543, 649.134 
	L 138.543, 653.386 
	L 136.417, 653.386 
	L 135.354, 652.677 
	L 135.354, 651.260 
	L 136.417, 650.551 
	L 138.543, 650.551 
" />
<path d="M 138.543, 653.386 
	L 139.606, 653.386 
" />
<path d="M 141.732, 651.969 
	L 144.921, 651.969 
	L 145.984, 651.260 
	L 144.921, 650.551 
	L 142.795, 650.551 
	L 141.732, 651.260 
	L 141.732, 652.677 
	L 142.795, 653.386 
	L 145.984, 653.386 
" />
<path d="M 154.488, 653.386 
	L 158.740, 649.134 
" />
<path d="M 158.740, 653.386 
	L 154.488, 649.134 
" />
<path d="M 160.866, 653.386 
	L 165.118, 649.134 
" />
<path d="M 165.118, 653.386 
	L 160.866, 649.134 
" />
<path d="M 167.244, 653.386 
	L 171.496, 649.134 
" />
<path d="M 171.496, 653.386 
	L 167.244, 649.134 
" />
<path d="M 173.622, 653.386 
	L 177.874, 649.134 
" />
<path d="M 177.874, 653.386 
	L 173.622, 649.134 
" />
<path d="M 180.000, 651.260 
	L 184.252, 651.260 
" />
<path d="M 186.378, 653.386 
	L 190.630, 649.134 
" />
<path d="M 190.630, 653.386 
	L 186.378, 649.134 
" />
<path d="M 192.756, 653.386 
	L 197.008, 649.134 
" />
<path d="M 197.008, 653.386 
	L 192.756, 649.134 
" />
<path d="M 199.134, 653.386 
	L 203.386, 649.134 
" />
<path d="M 203.386, 653.386 
	L 199.134, 649.134 
" />
<path d="M 205.512, 653.386 
	L 209.764, 649.134 
" />
<path d="M 209.764, 653.386 
	L 205.512, 649.134 
" />
<path d="M 17.717, 238.818 
	L 17.717, 238.819 
	L 17.717, 237.472 
	L 37.382, 237.472 
	L 37.382, 238.819 
	L 17.717, 238.819 
	L 17.717, 233.823 
	L 17.717, 232.476 
	L 37.382, 232.476 
	L 37.382, 233.823 
	L 17.717, 233.823 
	L 17.717, 231.095 
" />
<path d="M 17.717, 231.095 
	L 17.717, 229.748 
	L 37.382, 229.748 
	L 37.382, 231.095 
	L 17.717, 231.095 
" />
<path d="M 37.666, 238.818 
	L 37.665, 238.819 
	L 37.665, 229.748 
	L 39.366, 229.748 
	L 39.366, 238.819 
	L 37.665, 238.819 
" />
<path d="M 39.367, 238.818 
	L 39.366, 238.819 
	L 39.366, 232.016 
	L 51.626, 232.016 
	L 51.626, 233.362 
	L 41.067, 233.362 
	L 41.067, 234.744 
	L 51.626, 234.744 
	L 51.626, 236.091 
	L 41.067, 236.091 
	L 41.067, 238.819 
	L 39.366, 238.819 
" />
<path d="M 39.366, 238.819 
" />
<path d="M 62.257, 234.743 
	L 62.256, 234.744 
	L 62.256, 233.362 
	L 52.902, 233.362 
	L 52.902, 234.744 
	L 62.256, 234.744 
	L 51.343, 238.819 
	L 51.343, 232.016 
	L 63.815, 232.016 
	L 63.815, 236.091 
	L 52.902, 236.091 
	L 52.902, 237.472 
" />
<path d="M 52.902, 237.472 
	L 63.815, 237.472 
	L 63.815, 238.819 
	L 51.343, 238.819 
" />
<path d="M 64.099, 238.818 
	L 64.098, 238.819 
	L 64.098, 232.016 
	L 77.138, 232.016 
	L 77.138, 238.819 
	L 75.437, 238.819 
	L 75.437, 233.362 
	L 65.799, 233.362 
	L 65.799, 238.819 
	L 64.098, 238.819 
" />
<path d="M 77.139, 239.279 
	L 77.138, 239.280 
	L 77.138, 229.748 
	L 78.839, 229.748 
	L 78.839, 237.224 
	L 88.193, 233.150 
	L 97.547, 237.224 
	L 97.547, 229.748 
	L 99.248, 229.748 
	L 99.248, 239.280 
	L 88.193, 234.496 
	L 77.138, 239.280 
" />
<path d="M 77.138, 239.280 
" />
<path d="M 110.587, 237.472 
	L 110.587, 237.472 
	L 110.587, 233.362 
	L 108.319, 233.362 
	L 103.783, 237.472 
	L 110.587, 237.472 
	L 99.992, 238.819 
	L 106.051, 233.362 
	L 99.992, 233.362 
	L 99.992, 232.016 
	L 112.287, 232.016 
" />
<path d="M 112.287, 232.016 
	L 112.287, 238.819 
	L 99.992, 238.819 
" />
<path d="M 111.544, 238.818 
	L 111.543, 238.819 
	L 111.543, 232.016 
	L 124.583, 232.016 
	L 124.583, 238.819 
	L 122.882, 238.819 
	L 122.882, 233.362 
	L 113.244, 233.362 
	L 113.244, 238.819 
	L 111.543, 238.819 
" />
<path d="M 135.922, 237.472 
	L 135.921, 237.472 
	L 135.921, 233.362 
	L 126.283, 233.362 
	L 126.283, 237.472 
	L 135.921, 237.472 
	L 124.583, 238.819 
	L 124.583, 232.016 
	L 135.921, 232.016 
	L 135.921, 229.748 
	L 137.622, 229.748 
" />
<path d="M 137.622, 229.748 
	L 137.622, 238.819 
	L 124.583, 238.819 
" />
<path d="M 148.253, 234.743 
	L 148.252, 234.744 
	L 148.252, 233.362 
	L 138.898, 233.362 
	L 138.898, 234.744 
	L 148.252, 234.744 
	L 137.339, 238.819 
	L 137.339, 232.016 
	L 149.811, 232.016 
	L 149.811, 236.091 
	L 138.898, 236.091 
" />
<path d="M 138.898, 236.091 
	L 138.898, 237.472 
	L 149.811, 237.472 
	L 149.811, 238.819 
	L 137.339, 238.819 
" />
<path d="M 150.095, 238.818 
	L 150.095, 238.819 
	L 150.095, 232.016 
	L 162.354, 232.016 
	L 162.354, 233.362 
	L 151.795, 233.362 
	L 151.795, 238.819 
	L 150.095, 238.819 
" />
<path d="M 36.320, 255.188 
	L 36.319, 255.189 
	L 28.772, 248.811 
	L 19.701, 248.811 
	L 19.701, 255.189 
	L 36.319, 255.189 
	L 18.000, 256.535 
	L 18.000, 247.465 
	L 29.516, 247.465 
	L 40.110, 256.535 
	L 18.000, 256.535 
" />
<path d="M 40.111, 256.535 
	L 40.110, 256.535 
	L 40.110, 249.732 
	L 41.811, 249.732 
	L 41.811, 256.535 
	L 40.110, 256.535 
	L 40.110, 248.811 
	L 40.110, 247.465 
	L 41.811, 247.465 
	L 41.811, 248.811 
	L 40.110, 248.811 
" />
<path d="M 41.528, 256.535 
	L 41.528, 256.535 
	L 41.528, 255.189 
	L 52.441, 255.189 
	L 52.441, 253.807 
	L 41.528, 253.807 
	L 41.528, 249.732 
	L 54.000, 249.732 
	L 54.000, 251.079 
	L 43.087, 251.079 
	L 43.087, 252.461 
	L 54.000, 252.461 
" />
<path d="M 54.000, 252.461 
	L 54.000, 256.535 
	L 41.528, 256.535 
" />
<path d="M 54.284, 256.535 
	L 54.283, 256.535 
	L 54.283, 247.465 
	L 55.984, 247.465 
	L 55.984, 249.732 
	L 66.543, 249.732 
	L 66.543, 251.079 
	L 55.984, 251.079 
	L 55.984, 255.189 
	L 66.543, 255.189 
	L 66.543, 256.535 
	L 54.283, 256.535 
" />
<path d="M 54.283, 256.535 
" />
<path d="M 66.544, 256.535 
	L 66.543, 256.535 
	L 66.543, 249.732 
	L 78.803, 249.732 
	L 78.803, 251.079 
	L 68.244, 251.079 
	L 68.244, 256.535 
	L 66.543, 256.535 
" />
<path d="M 89.434, 252.460 
	L 89.433, 252.461 
	L 89.433, 251.079 
	L 80.079, 251.079 
	L 80.079, 252.461 
	L 89.433, 252.461 
	L 78.520, 256.535 
	L 78.520, 249.732 
	L 90.992, 249.732 
	L 90.992, 253.807 
	L 80.079, 253.807 
	L 80.079, 255.189 
" />
<path d="M 80.079, 255.189 
	L 90.992, 255.189 
	L 90.992, 256.535 
	L 78.520, 256.535 
" />
<path d="M 90.993, 256.535 
	L 90.992, 256.535 
	L 90.992, 255.189 
	L 101.906, 255.189 
	L 101.906, 253.807 
	L 90.992, 253.807 
	L 90.992, 249.732 
	L 103.465, 249.732 
	L 103.465, 251.079 
	L 92.551, 251.079 
	L 92.551, 252.461 
" />
<path d="M 92.551, 252.461 
	L 103.465, 252.461 
	L 103.465, 256.535 
	L 90.992, 256.535 
" />
<path d="M 103.465, 256.535 
	L 103.465, 256.535 
	L 103.465, 255.189 
	L 114.378, 255.189 
	L 114.378, 253.807 
	L 103.465, 253.807 
	L 103.465, 249.732 
	L 115.937, 249.732 
	L 115.937, 251.079 
	L 105.024, 251.079 
	L 105.024, 252.461 
" />
<path d="M 105.024, 252.461 
	L 115.937, 252.461 
	L 115.937, 256.535 
	L 103.465, 256.535 
" />
<path d="M 116.221, 256.535 
	L 116.220, 256.535 
	L 116.220, 250.193 
	L 136.063, 250.193 
	L 136.063, 251.539 
	L 117.921, 251.539 
	L 117.921, 256.535 
	L 116.220, 256.535 
	L 116.220, 248.811 
	L 116.220, 247.465 
	L 136.063, 247.465 
" />
<path d="M 136.063, 247.465 
	L 136.063, 248.811 
	L 116.220, 248.811 
" />
<path d="M 136.064, 256.535 
	L 136.063, 256.535 
	L 136.063, 249.732 
	L 148.323, 249.732 
	L 148.323, 251.079 
	L 137.764, 251.079 
	L 137.764, 256.535 
	L 136.063, 256.535 
" />
<path d="M 158.953, 252.460 
	L 158.953, 252.461 
	L 158.953, 251.079 
	L 149.598, 251.079 
	L 149.598, 252.461 
	L 158.953, 252.461 
	L 148.039, 256.535 
	L 148.039, 249.732 
	L 160.512, 249.732 
	L 160.512, 253.807 
	L 149.598, 253.807 
" />
<path d="M 149.598, 253.807 
	L 149.598, 255.189 
	L 160.512, 255.189 
	L 160.512, 256.535 
	L 148.039, 256.535 
" />
<path d="M 172.135, 255.188 
	L 172.134, 255.189 
	L 172.134, 251.079 
	L 162.496, 251.079 
	L 162.496, 255.189 
	L 172.134, 255.189 
	L 172.134, 258.803 
	L 172.134, 256.535 
	L 160.795, 256.535 
	L 160.795, 249.732 
	L 173.835, 249.732 
" />
<path d="M 173.835, 249.732 
	L 173.835, 258.803 
	L 172.134, 258.803 
" />
<path d="M 173.835, 256.535 
	L 173.835, 256.535 
	L 173.835, 249.732 
	L 175.535, 249.732 
	L 175.535, 255.189 
	L 185.173, 255.189 
	L 185.173, 249.732 
	L 186.874, 249.732 
	L 186.874, 256.535 
	L 173.835, 256.535 
" />
<path d="M 197.505, 252.460 
	L 197.504, 252.461 
	L 197.504, 251.079 
	L 188.150, 251.079 
	L 188.150, 252.461 
	L 197.504, 252.461 
	L 186.591, 256.535 
	L 186.591, 249.732 
	L 199.063, 249.732 
	L 199.063, 253.807 
	L 188.150, 253.807 
" />
<path d="M 188.150, 253.807 
	L 188.150, 255.189 
	L 199.063, 255.189 
	L 199.063, 256.535 
	L 186.591, 256.535 
" />
<path d="M 199.347, 256.535 
	L 199.346, 256.535 
	L 199.346, 249.732 
	L 212.386, 249.732 
	L 212.386, 256.535 
	L 210.685, 256.535 
	L 210.685, 251.079 
	L 201.047, 251.079 
	L 201.047, 256.535 
	L 199.346, 256.535 
" />
<path d="M 212.387, 256.535 
	L 212.386, 256.535 
	L 212.386, 249.732 
	L 224.646, 249.732 
	L 224.646, 251.079 
	L 214.087, 251.079 
	L 214.087, 255.189 
	L 224.646, 255.189 
	L 224.646, 256.535 
	L 212.386, 256.535 
" />
<path d="M 225.391, 258.802 
	L 225.390, 258.803 
	L 225.390, 257.421 
	L 235.984, 257.421 
	L 235.984, 256.535 
	L 232.937, 256.535 
	L 225.390, 249.732 
	L 227.658, 249.732 
	L 233.717, 255.189 
	L 235.984, 255.189 
	L 235.984, 249.732 
" />
<path d="M 235.984, 249.732 
	L 237.685, 249.732 
	L 237.685, 258.803 
	L 225.390, 258.803 
" />
<path d="M 27.072, 274.251 
	L 27.071, 274.252 
	L 27.071, 266.528 
	L 17.256, 266.528 
	L 17.256, 265.181 
	L 38.587, 265.181 
	L 38.587, 266.528 
	L 28.772, 266.528 
	L 28.772, 274.252 
	L 27.071, 274.252 
" />
<path d="M 39.331, 274.251 
	L 39.331, 274.252 
	L 39.331, 265.181 
	L 41.032, 265.181 
	L 41.032, 267.449 
	L 52.370, 267.449 
	L 52.370, 274.252 
	L 50.669, 274.252 
	L 50.669, 268.795 
	L 41.032, 268.795 
	L 41.032, 274.252 
	L 39.331, 274.252 
" />
<path d="M 39.331, 274.252 
" />
<path d="M 63.001, 270.177 
	L 63.000, 270.177 
	L 63.000, 268.795 
	L 53.646, 268.795 
	L 53.646, 270.177 
	L 63.000, 270.177 
	L 52.087, 274.252 
	L 52.087, 267.449 
	L 64.559, 267.449 
	L 64.559, 271.524 
	L 53.646, 271.524 
	L 53.646, 272.906 
" />
<path d="M 53.646, 272.906 
	L 64.559, 272.906 
	L 64.559, 274.252 
	L 52.087, 274.252 
" />
<path d="M 64.560, 274.251 
	L 64.559, 274.252 
	L 64.559, 272.906 
	L 84.224, 272.906 
	L 84.224, 274.252 
	L 64.559, 274.252 
	L 64.559, 269.256 
	L 64.559, 267.909 
	L 84.224, 267.909 
	L 84.224, 269.256 
	L 64.559, 269.256 
	L 64.559, 266.528 
" />
<path d="M 64.559, 266.528 
	L 64.559, 265.181 
	L 84.224, 265.181 
	L 84.224, 266.528 
	L 64.559, 266.528 
" />
<path d="M 95.847, 272.905 
	L 95.846, 272.906 
	L 95.846, 268.795 
	L 86.209, 268.795 
	L 86.209, 272.906 
	L 95.846, 272.906 
	L 84.508, 274.252 
	L 84.508, 267.449 
	L 95.846, 267.449 
	L 95.846, 265.181 
	L 97.547, 265.181 
	L 97.547, 274.252 
" />
<path d="M 97.547, 274.252 
	L 84.508, 274.252 
" />
<path d="M 108.887, 272.905 
	L 108.886, 272.906 
	L 108.886, 268.795 
	L 99.248, 268.795 
	L 99.248, 272.906 
	L 108.886, 272.906 
	L 97.547, 276.520 
	L 97.547, 275.138 
	L 108.886, 275.138 
	L 108.886, 274.252 
	L 97.547, 274.252 
" />
<path d="M 97.547, 274.252 
	L 97.547, 267.449 
	L 110.587, 267.449 
	L 110.587, 276.520 
	L 97.547, 276.520 
" />
<path d="M 121.217, 270.177 
	L 121.217, 270.177 
	L 121.217, 268.795 
	L 111.862, 268.795 
	L 111.862, 270.177 
	L 121.217, 270.177 
	L 110.303, 274.252 
	L 110.303, 267.449 
	L 122.776, 267.449 
	L 122.776, 271.524 
	L 111.862, 271.524 
" />
<path d="M 111.862, 271.524 
	L 111.862, 272.906 
	L 122.776, 272.906 
	L 122.776, 274.252 
	L 110.303, 274.252 
" />
<path d="M 143.469, 272.905 
	L 143.469, 272.906 
	L 143.469, 266.528 
	L 124.760, 266.528 
	L 124.760, 272.906 
	L 143.469, 272.906 
	L 123.059, 274.252 
	L 123.059, 265.181 
	L 145.169, 265.181 
	L 145.169, 274.252 
	L 123.059, 274.252 
" />
<path d="M 123.059, 274.252 
" />
<path d="M 145.170, 274.251 
	L 145.169, 274.252 
	L 145.169, 267.449 
	L 157.429, 267.449 
	L 157.429, 268.795 
	L 146.870, 268.795 
	L 146.870, 270.177 
	L 157.429, 270.177 
	L 157.429, 271.524 
	L 146.870, 271.524 
	L 146.870, 274.252 
" />
<path d="M 146.870, 274.252 
	L 145.169, 274.252 
" />
<path d="M 157.430, 274.712 
	L 157.429, 274.713 
	L 157.429, 265.181 
	L 159.130, 265.181 
	L 159.130, 272.658 
	L 168.484, 268.583 
	L 177.839, 272.658 
	L 177.839, 265.181 
	L 179.539, 265.181 
	L 179.539, 274.713 
	L 168.484, 269.929 
" />
<path d="M 168.484, 269.929 
	L 157.429, 274.713 
" />
<path d="M 179.540, 274.251 
	L 179.539, 274.252 
	L 179.539, 265.181 
	L 181.240, 265.181 
	L 181.240, 267.449 
	L 192.579, 267.449 
	L 192.579, 274.252 
	L 190.878, 274.252 
	L 190.878, 268.795 
	L 181.240, 268.795 
	L 181.240, 274.252 
" />
<path d="M 181.240, 274.252 
	L 179.539, 274.252 
" />
<path d="M 203.918, 272.905 
	L 203.917, 272.906 
	L 203.917, 268.795 
	L 201.650, 268.795 
	L 197.114, 272.906 
	L 203.917, 272.906 
	L 193.323, 274.252 
	L 199.382, 268.795 
	L 193.323, 268.795 
	L 193.323, 267.449 
	L 205.618, 267.449 
" />
<path d="M 205.618, 267.449 
	L 205.618, 274.252 
	L 193.323, 274.252 
" />
<path d="M 204.875, 274.251 
	L 204.874, 274.252 
	L 204.874, 265.181 
	L 206.575, 265.181 
	L 206.575, 267.449 
	L 217.134, 267.449 
	L 217.134, 268.795 
	L 206.575, 268.795 
	L 206.575, 272.906 
	L 217.134, 272.906 
	L 217.134, 274.252 
" />
<path d="M 217.134, 274.252 
	L 204.874, 274.252 
" />
<path d="M 217.135, 274.251 
	L 217.134, 274.252 
	L 217.134, 265.181 
	L 218.835, 265.181 
	L 218.835, 274.252 
	L 217.134, 274.252 
" />
<path d="M 218.552, 274.251 
	L 218.551, 274.252 
	L 218.551, 272.906 
	L 229.465, 272.906 
	L 229.465, 271.524 
	L 218.551, 271.524 
	L 218.551, 267.449 
	L 231.024, 267.449 
	L 231.024, 268.795 
	L 220.110, 268.795 
	L 220.110, 270.177 
" />
<path d="M 220.110, 270.177 
	L 231.024, 270.177 
	L 231.024, 274.252 
	L 218.551, 274.252 
" />
<path d="M 17.717, 284.881 
	L 17.717, 284.882 
	L 28.311, 275.350 
	L 38.870, 284.882 
	L 36.602, 284.882 
	L 28.311, 277.370 
	L 19.984, 284.882 
	L 17.717, 284.882 
" />
<path d="M 50.493, 283.535 
	L 50.492, 283.535 
	L 50.492, 279.425 
	L 40.854, 279.425 
	L 40.854, 283.535 
	L 50.492, 283.535 
	L 39.154, 284.882 
	L 39.154, 278.079 
	L 50.492, 278.079 
	L 50.492, 275.811 
	L 52.193, 275.811 
	L 52.193, 284.882 
" />
<path d="M 52.193, 284.882 
	L 39.154, 284.882 
" />
<path d="M 52.194, 284.881 
	L 52.193, 284.882 
	L 52.193, 278.079 
	L 62.965, 278.079 
	L 62.965, 284.882 
	L 61.264, 284.882 
	L 61.264, 279.425 
	L 58.429, 279.425 
	L 58.429, 284.882 
	L 56.728, 284.882 
	L 56.728, 279.425 
	L 53.894, 279.425 
" />
<path d="M 53.894, 279.425 
	L 53.894, 284.882 
	L 52.193, 284.882 
" />
<path d="M 62.965, 284.881 
	L 62.965, 284.882 
	L 62.965, 278.079 
	L 64.665, 278.079 
	L 64.665, 284.882 
	L 62.965, 284.882 
	L 62.965, 277.158 
	L 62.965, 275.811 
	L 64.665, 275.811 
	L 64.665, 277.158 
	L 62.965, 277.158 
" />
<path d="M 64.666, 284.881 
	L 64.665, 284.882 
	L 64.665, 278.079 
	L 77.705, 278.079 
	L 77.705, 284.882 
	L 76.004, 284.882 
	L 76.004, 279.425 
	L 66.366, 279.425 
	L 66.366, 284.882 
	L 64.665, 284.882 
" />
<path d="M 77.705, 284.881 
	L 77.705, 284.882 
	L 77.705, 278.079 
	L 79.406, 278.079 
	L 79.406, 284.882 
	L 77.705, 284.882 
	L 77.705, 277.158 
	L 77.705, 275.811 
	L 79.406, 275.811 
	L 79.406, 277.158 
	L 77.705, 277.158 
" />
<path d="M 79.123, 284.881 
	L 79.122, 284.882 
	L 79.122, 283.535 
	L 90.035, 283.535 
	L 90.035, 282.154 
	L 79.122, 282.154 
	L 79.122, 278.079 
	L 91.595, 278.079 
	L 91.595, 279.425 
	L 80.681, 279.425 
	L 80.681, 280.807 
	L 91.595, 280.807 
" />
<path d="M 91.595, 280.807 
	L 91.595, 284.882 
	L 79.122, 284.882 
" />
<path d="M 91.879, 284.881 
	L 91.878, 284.882 
	L 91.878, 275.811 
	L 93.579, 275.811 
	L 93.579, 278.079 
	L 104.138, 278.079 
	L 104.138, 279.425 
	L 93.579, 279.425 
	L 93.579, 283.535 
	L 104.138, 283.535 
	L 104.138, 284.882 
" />
<path d="M 104.138, 284.882 
	L 91.878, 284.882 
" />
<path d="M 104.139, 284.881 
	L 104.138, 284.882 
	L 104.138, 278.079 
	L 116.398, 278.079 
	L 116.398, 279.425 
	L 105.839, 279.425 
	L 105.839, 284.882 
	L 104.138, 284.882 
" />
<path d="M 127.737, 283.535 
	L 127.736, 283.535 
	L 127.736, 279.425 
	L 125.469, 279.425 
	L 120.933, 283.535 
	L 127.736, 283.535 
	L 117.142, 284.882 
	L 123.201, 279.425 
	L 117.142, 279.425 
	L 117.142, 278.079 
	L 129.437, 278.079 
" />
<path d="M 129.437, 278.079 
	L 129.437, 284.882 
	L 117.142, 284.882 
" />
<path d="M 128.694, 284.881 
	L 128.693, 284.882 
	L 128.693, 275.811 
	L 130.394, 275.811 
	L 130.394, 278.079 
	L 140.953, 278.079 
	L 140.953, 279.425 
	L 130.394, 279.425 
	L 130.394, 283.535 
	L 140.953, 283.535 
	L 140.953, 284.882 
" />
<path d="M 140.953, 284.882 
	L 128.693, 284.882 
" />
<path d="M 140.953, 284.881 
	L 140.953, 284.882 
	L 140.953, 278.079 
	L 142.654, 278.079 
	L 142.654, 284.882 
	L 140.953, 284.882 
	L 140.953, 277.158 
	L 140.953, 275.811 
	L 142.654, 275.811 
	L 142.654, 277.158 
	L 140.953, 277.158 
" />
<path d="M 140.953, 277.158 
" />
<path d="M 142.654, 284.881 
	L 142.654, 284.882 
	L 142.654, 278.079 
	L 144.354, 278.079 
	L 144.354, 283.535 
	L 146.622, 283.535 
	L 152.646, 278.079 
	L 154.913, 278.079 
	L 147.366, 284.882 
	L 142.654, 284.882 
" />
<path d="M 165.544, 280.806 
	L 165.543, 280.807 
	L 165.543, 279.425 
	L 156.189, 279.425 
	L 156.189, 280.807 
	L 165.543, 280.807 
	L 154.630, 284.882 
	L 154.630, 278.079 
	L 167.102, 278.079 
	L 167.102, 282.154 
	L 156.189, 282.154 
" />
<path d="M 156.189, 282.154 
	L 156.189, 283.535 
	L 167.102, 283.535 
	L 167.102, 284.882 
	L 154.630, 284.882 
" />
<path d="M 167.387, 284.881 
	L 167.386, 284.882 
	L 167.386, 275.811 
	L 169.087, 275.811 
	L 169.087, 284.882 
	L 167.386, 284.882 
" />
<path d="M 169.831, 287.149 
	L 169.831, 287.150 
	L 169.831, 285.768 
	L 180.425, 285.768 
	L 180.425, 284.882 
	L 177.378, 284.882 
	L 169.831, 278.079 
	L 172.098, 278.079 
	L 178.158, 283.535 
	L 180.425, 283.535 
	L 180.425, 278.079 
" />
<path d="M 180.425, 278.079 
	L 182.126, 278.079 
	L 182.126, 287.150 
	L 169.831, 287.150 
" />
<path d="M 18.001, 295.511 
	L 18.000, 295.512 
	L 18.000, 289.169 
	L 32.528, 289.169 
	L 35.575, 287.787 
	L 18.000, 287.787 
	L 18.000, 286.441 
	L 39.331, 286.441 
	L 33.307, 290.516 
	L 19.701, 290.516 
	L 19.701, 295.512 
	L 18.000, 295.512 
" />
<path d="M 18.000, 295.512 
" />
<path d="M 50.670, 294.165 
	L 50.669, 294.165 
	L 50.669, 290.055 
	L 41.032, 290.055 
	L 41.032, 294.165 
	L 50.669, 294.165 
	L 39.331, 295.512 
	L 39.331, 288.709 
	L 52.370, 288.709 
	L 52.370, 295.512 
	L 39.331, 295.512 
" />
<path d="M 52.087, 295.511 
	L 52.087, 295.512 
	L 52.087, 294.165 
	L 63.000, 294.165 
	L 63.000, 292.784 
	L 52.087, 292.784 
	L 52.087, 288.709 
	L 64.559, 288.709 
	L 64.559, 290.055 
	L 53.646, 290.055 
	L 53.646, 291.437 
	L 64.559, 291.437 
" />
<path d="M 64.559, 291.437 
	L 64.559, 295.512 
	L 52.087, 295.512 
" />
<path d="M 64.560, 295.511 
	L 64.559, 295.512 
	L 64.559, 294.165 
	L 75.472, 294.165 
	L 75.472, 292.784 
	L 64.559, 292.784 
	L 64.559, 288.709 
	L 77.032, 288.709 
	L 77.032, 290.055 
	L 66.118, 290.055 
	L 66.118, 291.437 
	L 77.032, 291.437 
" />
<path d="M 77.032, 291.437 
	L 77.032, 295.512 
	L 64.559, 295.512 
" />
<path d="M 77.316, 295.511 
	L 77.315, 295.512 
	L 77.315, 288.709 
	L 79.016, 288.709 
	L 79.016, 295.512 
	L 77.315, 295.512 
	L 77.315, 287.787 
	L 77.315, 286.441 
	L 79.016, 286.441 
	L 79.016, 287.787 
	L 77.315, 287.787 
" />
<path d="M 90.355, 294.165 
	L 90.354, 294.165 
	L 90.354, 290.055 
	L 80.717, 290.055 
	L 80.717, 294.165 
	L 90.354, 294.165 
	L 79.016, 295.512 
	L 79.016, 286.441 
	L 80.717, 286.441 
	L 80.717, 288.709 
	L 92.055, 288.709 
	L 92.055, 295.512 
" />
<path d="M 92.055, 295.512 
	L 79.016, 295.512 
" />
<path d="M 92.056, 295.511 
	L 92.055, 295.512 
	L 92.055, 286.441 
	L 93.756, 286.441 
	L 93.756, 295.512 
	L 92.055, 295.512 
" />
<path d="M 104.387, 291.436 
	L 104.386, 291.437 
	L 104.386, 290.055 
	L 95.032, 290.055 
	L 95.032, 291.437 
	L 104.386, 291.437 
	L 93.472, 295.512 
	L 93.472, 288.709 
	L 105.945, 288.709 
	L 105.945, 292.784 
	L 95.032, 292.784 
" />
<path d="M 95.032, 292.784 
	L 95.032, 294.165 
	L 105.945, 294.165 
	L 105.945, 295.512 
	L 93.472, 295.512 
" />
<path d="M 18.001, 313.228 
	L 18.000, 313.228 
	L 18.000, 311.882 
	L 38.409, 311.882 
	L 38.409, 308.232 
	L 18.000, 308.232 
	L 18.000, 304.158 
	L 40.110, 304.158 
	L 40.110, 305.504 
	L 19.701, 305.504 
	L 19.701, 306.886 
	L 40.110, 306.886 
" />
<path d="M 40.110, 306.886 
	L 40.110, 313.228 
	L 18.000, 313.228 
" />
<path d="M 40.111, 313.228 
	L 40.110, 313.228 
	L 40.110, 306.425 
	L 41.811, 306.425 
	L 41.811, 313.228 
	L 40.110, 313.228 
	L 40.110, 305.504 
	L 40.110, 304.158 
	L 41.811, 304.158 
	L 41.811, 305.504 
	L 40.110, 305.504 
" />
<path d="M 41.812, 313.228 
	L 41.811, 313.228 
	L 41.811, 306.425 
	L 54.850, 306.425 
	L 54.850, 313.228 
	L 53.150, 313.228 
	L 53.150, 307.772 
	L 43.512, 307.772 
	L 43.512, 313.228 
	L 41.811, 313.228 
" />
<path d="M 65.481, 309.153 
	L 65.480, 309.154 
	L 65.480, 307.772 
	L 56.126, 307.772 
	L 56.126, 309.154 
	L 65.480, 309.154 
	L 54.567, 313.228 
	L 54.567, 306.425 
	L 67.039, 306.425 
	L 67.039, 310.500 
	L 56.126, 310.500 
	L 56.126, 311.882 
" />
<path d="M 56.126, 311.882 
	L 67.039, 311.882 
	L 67.039, 313.228 
	L 54.567, 313.228 
" />
<path d="M 67.324, 313.228 
	L 67.323, 313.228 
	L 67.323, 304.158 
	L 88.654, 304.158 
	L 84.118, 308.091 
	L 83.374, 308.728 
	L 88.654, 313.228 
	L 86.386, 313.228 
	L 81.106, 308.728 
	L 84.898, 305.504 
	L 69.024, 305.504 
	L 69.024, 313.228 
" />
<path d="M 69.024, 313.228 
	L 67.323, 313.228 
" />
<path d="M 99.993, 311.881 
	L 99.992, 311.882 
	L 99.992, 307.772 
	L 97.724, 307.772 
	L 93.189, 311.882 
	L 99.992, 311.882 
	L 89.398, 313.228 
	L 95.457, 307.772 
	L 89.398, 307.772 
	L 89.398, 306.425 
	L 101.693, 306.425 
	L 101.693, 313.228 
" />
<path d="M 101.693, 313.228 
	L 89.398, 313.228 
" />
<path d="M 100.950, 313.228 
	L 100.949, 313.228 
	L 100.949, 306.425 
	L 102.650, 306.425 
	L 102.650, 311.882 
	L 104.917, 311.882 
	L 110.941, 306.425 
	L 113.209, 306.425 
	L 105.661, 313.228 
	L 100.949, 313.228 
" />
<path d="M 123.839, 309.153 
	L 123.839, 309.154 
	L 123.839, 307.772 
	L 114.484, 307.772 
	L 114.484, 309.154 
	L 123.839, 309.154 
	L 112.925, 313.228 
	L 112.925, 306.425 
	L 125.398, 306.425 
	L 125.398, 310.500 
	L 114.484, 310.500 
" />
<path d="M 114.484, 310.500 
	L 114.484, 311.882 
	L 125.398, 311.882 
	L 125.398, 313.228 
	L 112.925, 313.228 
" />
<path d="M 18.001, 330.944 
	L 18.000, 330.945 
	L 18.000, 324.602 
	L 32.528, 324.602 
	L 35.575, 323.221 
	L 18.000, 323.221 
	L 18.000, 321.874 
	L 39.331, 321.874 
	L 33.307, 325.949 
	L 19.701, 325.949 
	L 19.701, 330.945 
	L 18.000, 330.945 
" />
<path d="M 18.000, 330.945 
" />
<path d="M 50.670, 329.598 
	L 50.669, 329.598 
	L 50.669, 325.488 
	L 48.402, 325.488 
	L 43.866, 329.598 
	L 50.669, 329.598 
	L 40.075, 330.945 
	L 46.134, 325.488 
	L 40.075, 325.488 
	L 40.075, 324.142 
	L 52.370, 324.142 
	L 52.370, 330.945 
" />
<path d="M 52.370, 330.945 
	L 40.075, 330.945 
" />
<path d="M 51.627, 330.944 
	L 51.626, 330.945 
	L 51.626, 321.874 
	L 53.327, 321.874 
	L 53.327, 330.945 
	L 51.626, 330.945 
" />
<path d="M 64.666, 329.598 
	L 64.665, 329.598 
	L 64.665, 325.488 
	L 55.028, 325.488 
	L 55.028, 329.598 
	L 64.665, 329.598 
	L 53.327, 330.945 
	L 53.327, 324.142 
	L 66.366, 324.142 
	L 66.366, 330.945 
	L 53.327, 330.945 
" />
<path d="M 66.367, 330.944 
	L 66.366, 330.945 
	L 66.366, 324.142 
	L 79.406, 324.142 
	L 79.406, 330.945 
	L 77.705, 330.945 
	L 77.705, 325.488 
	L 68.067, 325.488 
	L 68.067, 330.945 
	L 66.366, 330.945 
" />
<path d="M 90.745, 329.598 
	L 90.744, 329.598 
	L 90.744, 325.488 
	L 81.106, 325.488 
	L 81.106, 329.598 
	L 90.744, 329.598 
	L 79.406, 330.945 
	L 79.406, 324.142 
	L 92.445, 324.142 
	L 92.445, 330.945 
	L 79.406, 330.945 
" />
<path d="M 103.784, 329.598 
	L 103.783, 329.598 
	L 103.783, 325.488 
	L 94.146, 325.488 
	L 94.146, 329.598 
	L 103.783, 329.598 
	L 92.445, 333.213 
	L 92.445, 324.142 
	L 105.484, 324.142 
	L 105.484, 330.945 
	L 94.146, 330.945 
" />
<path d="M 94.146, 330.945 
	L 94.146, 333.213 
	L 92.445, 333.213 
" />
<path d="M 105.202, 330.944 
	L 105.201, 330.945 
	L 105.201, 329.598 
	L 116.114, 329.598 
	L 116.114, 328.217 
	L 105.201, 328.217 
	L 105.201, 324.142 
	L 117.673, 324.142 
	L 117.673, 325.488 
	L 106.760, 325.488 
	L 106.760, 326.870 
" />
<path d="M 106.760, 326.870 
	L 117.673, 326.870 
	L 117.673, 330.945 
	L 105.201, 330.945 
" />
<path d="M 117.957, 330.944 
	L 117.957, 330.945 
	L 117.957, 324.142 
	L 119.657, 324.142 
	L 119.657, 330.945 
	L 117.957, 330.945 
	L 117.957, 323.221 
	L 117.957, 321.874 
	L 119.657, 321.874 
	L 119.657, 323.221 
	L 117.957, 323.221 
" />
<path d="M 117.957, 323.221 
" />
<path d="M 130.997, 329.598 
	L 130.996, 329.598 
	L 130.996, 325.488 
	L 128.728, 325.488 
	L 124.193, 329.598 
	L 130.996, 329.598 
	L 120.402, 330.945 
	L 126.461, 325.488 
	L 120.402, 325.488 
	L 120.402, 324.142 
	L 132.697, 324.142 
" />
<path d="M 132.697, 324.142 
	L 132.697, 330.945 
	L 120.402, 330.945 
" />
<path d="M 18.001, 348.661 
	L 18.000, 348.661 
	L 18.000, 339.130 
	L 29.055, 343.878 
	L 40.110, 339.130 
	L 40.110, 348.661 
	L 38.409, 348.661 
	L 38.409, 341.150 
	L 29.055, 345.260 
	L 19.701, 341.150 
	L 19.701, 348.661 
	L 18.000, 348.661 
" />
<path d="M 18.000, 348.661 
" />
<path d="M 51.450, 347.314 
	L 51.449, 347.315 
	L 51.449, 343.205 
	L 41.811, 343.205 
	L 41.811, 347.315 
	L 51.449, 347.315 
	L 40.110, 348.661 
	L 40.110, 341.858 
	L 53.150, 341.858 
	L 53.150, 348.661 
	L 40.110, 348.661 
" />
<path d="M 53.150, 348.661 
	L 53.150, 348.661 
	L 53.150, 341.858 
	L 54.850, 341.858 
	L 54.850, 347.315 
	L 64.488, 347.315 
	L 64.488, 341.858 
	L 66.189, 341.858 
	L 66.189, 348.661 
	L 53.150, 348.661 
" />
<path d="M 66.190, 348.661 
	L 66.189, 348.661 
	L 66.189, 341.858 
	L 79.228, 341.858 
	L 79.228, 348.661 
	L 77.528, 348.661 
	L 77.528, 343.205 
	L 67.890, 343.205 
	L 67.890, 348.661 
	L 66.189, 348.661 
" />
<path d="M 79.229, 348.661 
	L 79.228, 348.661 
	L 79.228, 339.591 
	L 80.929, 339.591 
	L 80.929, 341.858 
	L 91.488, 341.858 
	L 91.488, 343.205 
	L 80.929, 343.205 
	L 80.929, 347.315 
	L 91.488, 347.315 
	L 91.488, 348.661 
	L 79.228, 348.661 
" />
<path d="M 79.228, 348.661 
" />
<path d="M 102.827, 347.314 
	L 102.827, 347.315 
	L 102.827, 343.205 
	L 100.559, 343.205 
	L 96.024, 347.315 
	L 102.827, 347.315 
	L 92.232, 348.661 
	L 98.291, 343.205 
	L 92.232, 343.205 
	L 92.232, 341.858 
	L 104.528, 341.858 
" />
<path d="M 104.528, 341.858 
	L 104.528, 348.661 
	L 92.232, 348.661 
" />
<path d="M 103.784, 348.661 
	L 103.783, 348.661 
	L 103.783, 341.858 
	L 105.484, 341.858 
	L 105.484, 348.661 
	L 103.783, 348.661 
	L 103.783, 340.937 
	L 103.783, 339.591 
	L 105.484, 339.591 
	L 105.484, 340.937 
	L 103.783, 340.937 
" />
<path d="M 103.783, 340.937 
" />
<path d="M 105.485, 348.661 
	L 105.484, 348.661 
	L 105.484, 341.858 
	L 118.524, 341.858 
	L 118.524, 348.661 
	L 116.823, 348.661 
	L 116.823, 343.205 
	L 107.185, 343.205 
	L 107.185, 348.661 
	L 105.484, 348.661 
" />
<path d="M 136.843, 347.314 
	L 136.843, 347.315 
	L 129.295, 340.937 
	L 120.224, 340.937 
	L 120.224, 347.315 
	L 136.843, 347.315 
	L 118.524, 348.661 
	L 118.524, 339.591 
	L 130.039, 339.591 
	L 140.634, 348.661 
	L 118.524, 348.661 
" />
<path d="M 118.524, 348.661 
" />
<path d="M 140.635, 348.661 
	L 140.634, 348.661 
	L 140.634, 341.858 
	L 152.894, 341.858 
	L 152.894, 343.205 
	L 142.335, 343.205 
	L 142.335, 348.661 
	L 140.634, 348.661 
" />
<path d="M 164.233, 347.314 
	L 164.232, 347.315 
	L 164.232, 343.205 
	L 154.595, 343.205 
	L 154.595, 347.315 
	L 164.232, 347.315 
	L 152.894, 348.661 
	L 152.894, 341.858 
	L 165.933, 341.858 
	L 165.933, 348.661 
	L 152.894, 348.661 
" />
<path d="M 152.894, 348.661 
" />
<path d="M 165.934, 348.661 
	L 165.933, 348.661 
	L 165.933, 341.858 
	L 178.972, 341.858 
	L 178.972, 348.661 
	L 177.272, 348.661 
	L 177.272, 343.205 
	L 167.634, 343.205 
	L 167.634, 348.661 
	L 165.933, 348.661 
" />
<path d="M 189.603, 344.586 
	L 189.602, 344.587 
	L 189.602, 343.205 
	L 180.248, 343.205 
	L 180.248, 344.587 
	L 189.602, 344.587 
	L 178.689, 348.661 
	L 178.689, 341.858 
	L 191.161, 341.858 
	L 191.161, 345.933 
	L 180.248, 345.933 
" />
<path d="M 180.248, 345.933 
	L 180.248, 347.315 
	L 191.161, 347.315 
	L 191.161, 348.661 
	L 178.689, 348.661 
" />
<path d="M 13.961, 191.409 
	L 13.961, 191.409 
	L 13.961, 193.075 
	L 13.961, 205.264 
	L 13.961, 206.929 
	L 12.295, 206.929 
	L 10.630, 206.929 
	L 10.630, 205.158 
	L 10.630, 193.075 
	L 10.630, 191.409 
	L 13.961, 191.409 
	L 21.969, 191.409 
" />
<path d="M 21.969, 191.409 
	L 22.535, 191.161 
	L 23.031, 191.161 
	L 23.492, 191.161 
	L 23.917, 191.409 
	L 24.413, 191.764 
	L 24.413, 192.472 
	L 24.413, 192.969 
	L 24.201, 193.642 
	L 19.240, 199.134 
	L 24.201, 204.697 
	L 24.378, 205.087 
" />
<path d="M 24.378, 205.087 
	L 24.378, 205.406 
	L 24.378, 206.114 
	L 23.634, 206.646 
	L 23.280, 206.929 
	L 22.783, 206.929 
	L 21.791, 206.929 
	L 20.303, 205.831 
	L 15.874, 200.835 
	L 14.244, 199.169 
	L 15.874, 197.504 
	L 21.969, 191.409 
" />
<path d="M 21.969, 191.409 
" />
<path d="M 31.855, 203.598 
	L 31.854, 203.598 
	L 36.071, 203.598 
	L 36.035, 197.185 
	L 26.362, 206.256 
	L 25.724, 206.787 
	L 25.157, 206.787 
	L 24.520, 206.787 
	L 23.988, 206.079 
	L 23.528, 205.512 
	L 23.528, 204.945 
	L 23.528, 204.236 
" />
<path d="M 23.528, 204.236 
	L 24.272, 203.634 
	L 36.283, 192.189 
	L 37.169, 191.303 
	L 37.878, 191.303 
	L 38.374, 191.303 
	L 38.551, 191.339 
	L 39.366, 191.622 
	L 39.366, 193.358 
	L 39.366, 204.591 
	L 39.366, 207.000 
	L 36.602, 206.929 
" />
<path d="M 36.602, 206.929 
	L 31.854, 206.929 
	L 29.941, 207.000 
	L 29.941, 205.282 
	L 29.941, 203.563 
	L 31.854, 203.598 
" />
<path d="M 54.674, 203.669 
	L 54.673, 203.669 
	L 54.673, 204.697 
	L 53.575, 205.813 
	L 52.476, 206.929 
	L 51.378, 206.929 
	L 43.618, 206.929 
	L 42.520, 206.929 
	L 41.404, 205.813 
	L 40.287, 204.697 
	L 40.287, 203.598 
	L 40.323, 194.811 
" />
<path d="M 40.323, 194.811 
	L 40.287, 193.642 
	L 41.404, 192.526 
	L 42.520, 191.409 
	L 43.618, 191.409 
	L 51.378, 191.409 
	L 52.476, 191.409 
	L 53.575, 192.526 
	L 54.673, 193.642 
	L 54.673, 194.740 
	L 54.673, 203.669 
	L 51.378, 201.933 
" />
<path d="M 51.378, 201.933 
	L 51.378, 196.406 
	L 51.378, 194.740 
	L 49.713, 194.740 
	L 45.283, 194.740 
	L 43.618, 194.740 
	L 43.618, 196.441 
	L 43.618, 201.933 
	L 43.583, 203.634 
	L 45.283, 203.598 
	L 49.713, 203.598 
	L 51.378, 203.598 
" />
<path d="M 51.378, 203.598 
	L 51.378, 201.933 
" />
<path d="M 66.509, 191.409 
	L 66.508, 191.409 
	L 68.173, 191.409 
	L 68.173, 193.004 
	L 68.173, 194.669 
	L 66.508, 194.740 
	L 55.417, 194.740 
	L 53.752, 194.669 
	L 53.752, 193.075 
	L 53.752, 191.374 
	L 55.417, 191.409 
	L 66.508, 191.409 
" />
<path d="M 66.508, 191.409 
	L 59.280, 198.071 
	L 59.244, 195.874 
	L 61.087, 195.856 
	L 62.929, 195.839 
	L 62.929, 198.071 
	L 62.929, 204.697 
	L 62.823, 206.929 
	L 61.122, 206.929 
	L 61.087, 206.929 
	L 59.244, 206.894 
	L 59.280, 204.697 
" />
<path d="M 59.280, 204.697 
	L 59.280, 198.071 
" />
<path d="M 70.725, 191.409 
	L 70.724, 191.409 
	L 80.681, 191.409 
	L 82.346, 191.409 
	L 82.346, 193.075 
	L 82.346, 194.740 
	L 80.681, 194.740 
	L 73.488, 194.740 
	L 72.390, 194.740 
	L 72.390, 195.839 
	L 72.390, 202.500 
	L 72.390, 203.598 
" />
<path d="M 72.390, 203.598 
	L 73.488, 203.598 
	L 80.681, 203.598 
	L 82.346, 203.598 
	L 82.346, 205.264 
	L 82.346, 206.929 
	L 80.681, 206.929 
	L 70.724, 206.929 
	L 69.059, 206.929 
	L 69.059, 205.264 
	L 69.059, 193.181 
	L 69.059, 191.409 
" />
<path d="M 69.059, 191.409 
	L 70.724, 191.409 
	L 75.720, 197.504 
	L 78.484, 197.504 
	L 80.681, 197.504 
	L 80.681, 199.169 
	L 80.681, 200.835 
	L 78.484, 200.835 
	L 75.720, 200.835 
	L 73.488, 200.835 
	L 73.488, 199.169 
	L 73.488, 197.504 
" />
<path d="M 73.488, 197.504 
	L 75.720, 197.504 
" />
<path d="M 95.564, 206.928 
	L 95.563, 206.929 
	L 87.343, 206.929 
	L 85.287, 206.929 
	L 83.799, 205.476 
	L 82.346, 204.059 
	L 82.346, 202.039 
	L 82.346, 196.158 
	L 82.346, 194.138 
	L 83.799, 192.685 
	L 85.110, 191.409 
	L 87.059, 191.409 
" />
<path d="M 87.059, 191.409 
	L 87.272, 191.409 
	L 87.520, 191.409 
	L 94.394, 191.409 
	L 96.130, 191.409 
	L 96.130, 193.146 
	L 96.130, 194.882 
	L 94.394, 194.882 
	L 88.016, 194.882 
	L 85.783, 194.882 
	L 85.783, 197.008 
	L 85.783, 201.579 
" />
<path d="M 85.783, 201.579 
	L 85.783, 203.492 
	L 88.157, 203.492 
	L 95.563, 203.492 
	L 97.299, 203.492 
	L 97.299, 205.193 
	L 97.264, 206.929 
	L 95.563, 206.929 
" />
<path d="M 107.257, 200.834 
	L 107.256, 200.835 
	L 100.630, 200.835 
	L 98.965, 200.835 
	L 98.965, 199.169 
	L 98.965, 197.504 
	L 100.630, 197.504 
	L 107.256, 197.504 
	L 108.921, 197.504 
	L 108.921, 199.169 
	L 108.921, 200.835 
" />
<path d="M 108.921, 200.835 
	L 107.256, 200.835 
" />
<path d="M 114.698, 203.598 
	L 114.697, 203.598 
	L 118.913, 203.598 
	L 118.878, 197.185 
	L 109.205, 206.256 
	L 108.567, 206.787 
	L 108.000, 206.787 
	L 107.362, 206.787 
	L 106.831, 206.079 
	L 106.370, 205.512 
	L 106.370, 204.945 
" />
<path d="M 106.370, 204.945 
	L 106.370, 204.236 
	L 107.114, 203.634 
	L 119.126, 192.189 
	L 120.012, 191.303 
	L 120.720, 191.303 
	L 121.217, 191.303 
	L 121.394, 191.339 
	L 122.209, 191.622 
	L 122.209, 193.358 
	L 122.209, 204.591 
" />
<path d="M 122.209, 204.591 
	L 122.209, 207.000 
	L 119.445, 206.929 
	L 114.697, 206.929 
	L 112.783, 207.000 
	L 112.783, 205.282 
	L 112.783, 203.563 
	L 114.697, 203.598 
" />
<path d="M 123.095, 191.409 
	L 123.095, 191.409 
	L 124.760, 191.409 
	L 126.425, 191.409 
	L 126.425, 193.642 
	L 126.425, 202.500 
	L 126.425, 203.598 
	L 127.524, 203.598 
	L 133.122, 203.598 
	L 135.390, 203.598 
	L 135.425, 205.228 
" />
<path d="M 135.425, 205.228 
	L 135.425, 206.858 
	L 133.122, 206.929 
	L 125.681, 206.929 
	L 123.095, 206.929 
	L 123.095, 204.201 
	L 123.095, 193.606 
	L 123.095, 191.409 
" />
<path d="M 149.493, 202.322 
	L 149.492, 202.323 
	L 149.492, 204.697 
	L 148.553, 205.813 
	L 147.614, 206.929 
	L 144.957, 206.894 
	L 137.161, 206.929 
	L 135.425, 206.929 
	L 135.425, 205.193 
	L 135.425, 198.071 
	L 135.461, 195.839 
" />
<path d="M 135.461, 195.839 
	L 137.108, 195.839 
	L 138.756, 195.839 
	L 138.720, 198.071 
	L 138.720, 203.705 
	L 144.283, 203.705 
	L 146.020, 203.705 
	L 146.020, 202.252 
	L 146.020, 200.799 
	L 144.248, 200.799 
	L 142.087, 200.835 
" />
<path d="M 142.087, 200.835 
	L 139.783, 200.835 
	L 139.819, 199.169 
	L 139.854, 197.504 
	L 142.087, 197.504 
	L 144.283, 197.504 
	L 146.020, 197.539 
	L 146.037, 196.140 
	L 146.055, 194.740 
	L 144.390, 194.740 
	L 137.091, 194.740 
" />
<path d="M 137.091, 194.740 
	L 135.425, 194.740 
	L 135.425, 193.146 
	L 135.425, 191.409 
	L 137.161, 191.409 
	L 144.850, 191.409 
	L 147.047, 191.409 
	L 148.163, 192.526 
	L 149.280, 193.642 
	L 149.386, 195.839 
	L 149.386, 198.177 
" />
<path d="M 149.386, 198.177 
	L 147.969, 199.028 
	L 149.492, 200.020 
	L 149.492, 202.323 
" />
<path d="M 149.528, 191.444 
	L 149.528, 191.445 
	L 151.158, 191.445 
	L 151.193, 191.445 
	L 152.858, 191.445 
	L 152.787, 193.677 
	L 152.787, 201.969 
	L 152.787, 203.598 
	L 154.453, 203.634 
	L 158.846, 203.598 
	L 160.583, 203.634 
" />
<path d="M 160.583, 203.634 
	L 160.583, 201.898 
	L 160.583, 193.642 
	L 160.618, 191.409 
	L 162.283, 191.409 
	L 163.913, 191.409 
	L 163.913, 193.535 
	L 163.913, 203.598 
	L 163.913, 204.661 
	L 163.063, 205.778 
	L 162.213, 206.894 
" />
<path d="M 162.213, 206.894 
	L 161.079, 206.894 
	L 152.256, 206.894 
	L 151.122, 206.894 
	L 150.325, 205.795 
	L 149.528, 204.697 
	L 149.528, 203.598 
	L 149.492, 193.642 
	L 149.528, 191.445 
" />
<path d="M 175.359, 192.153 
	L 175.358, 192.154 
	L 176.244, 191.409 
	L 176.988, 191.409 
	L 177.272, 191.409 
	L 177.520, 191.516 
	L 178.476, 191.870 
	L 178.476, 193.500 
	L 178.476, 205.016 
	L 178.441, 207.000 
	L 176.811, 207.000 
" />
<path d="M 176.811, 207.000 
	L 176.776, 207.000 
	L 175.146, 207.000 
	L 175.110, 204.980 
	L 175.110, 198.142 
	L 175.075, 197.150 
	L 174.508, 197.681 
	L 166.039, 206.185 
	L 165.154, 207.000 
	L 164.409, 207.000 
	L 163.878, 207.000 
" />
<path d="M 163.878, 207.000 
	L 163.382, 206.504 
	L 162.886, 206.043 
	L 162.886, 205.476 
	L 162.886, 204.697 
	L 163.736, 203.811 
	L 175.358, 192.154 
	L 188.717, 191.835 
	L 188.717, 193.500 
	L 188.717, 204.768 
	L 188.717, 207.000 
" />
<path d="M 188.717, 207.000 
	L 187.051, 207.000 
	L 185.386, 207.000 
	L 185.386, 204.768 
	L 185.386, 198.142 
	L 185.386, 197.433 
	L 184.748, 197.965 
	L 182.587, 200.161 
	L 180.957, 201.295 
	L 180.071, 200.091 
	L 179.185, 198.886 
" />
<path d="M 179.185, 198.886 
	L 180.461, 197.469 
	L 185.669, 192.189 
	L 186.413, 191.409 
	L 187.193, 191.409 
	L 187.441, 191.409 
	L 187.689, 191.480 
	L 188.717, 191.835 
" />
<path d="M 204.166, 203.669 
	L 204.165, 203.669 
	L 204.165, 204.697 
	L 203.067, 205.813 
	L 201.969, 206.929 
	L 200.870, 206.929 
	L 193.110, 206.929 
	L 192.012, 206.929 
	L 190.896, 205.813 
	L 189.780, 204.697 
	L 189.780, 203.598 
" />
<path d="M 189.780, 203.598 
	L 189.815, 194.811 
	L 189.780, 193.642 
	L 190.896, 192.526 
	L 192.012, 191.409 
	L 193.110, 191.409 
	L 200.870, 191.409 
	L 201.969, 191.409 
	L 203.067, 192.526 
	L 204.165, 193.642 
	L 204.165, 194.740 
" />
<path d="M 204.165, 194.740 
	L 204.165, 203.669 
	L 200.870, 201.933 
	L 200.870, 196.406 
	L 200.870, 194.740 
	L 199.205, 194.740 
	L 194.776, 194.740 
	L 193.110, 194.740 
	L 193.110, 196.441 
	L 193.110, 201.933 
	L 193.075, 203.634 
" />
<path d="M 193.075, 203.634 
	L 194.776, 203.598 
	L 199.205, 203.598 
	L 200.870, 203.598 
	L 200.870, 201.933 
" />
<path d="M 218.552, 203.669 
	L 218.551, 203.669 
	L 218.551, 204.697 
	L 217.453, 205.813 
	L 216.354, 206.929 
	L 215.256, 206.929 
	L 207.496, 206.929 
	L 206.398, 206.929 
	L 205.282, 205.813 
	L 204.165, 204.697 
	L 204.165, 203.598 
" />
<path d="M 204.165, 203.598 
	L 204.201, 194.811 
	L 204.165, 193.642 
	L 205.282, 192.526 
	L 206.398, 191.409 
	L 207.496, 191.409 
	L 215.256, 191.409 
	L 216.354, 191.409 
	L 217.453, 192.526 
	L 218.551, 193.642 
	L 218.551, 194.740 
" />
<path d="M 218.551, 194.740 
	L 218.551, 203.669 
	L 215.256, 201.933 
	L 215.256, 196.406 
	L 215.256, 194.740 
	L 213.591, 194.740 
	L 209.161, 194.740 
	L 207.496, 194.740 
	L 207.496, 196.441 
	L 207.496, 201.933 
	L 207.461, 203.634 
" />
<path d="M 207.461, 203.634 
	L 209.161, 203.598 
	L 213.591, 203.598 
	L 215.256, 203.598 
	L 215.256, 201.933 
" />
<path d="M 225.780, 204.696 
	L 225.780, 204.697 
	L 225.780, 206.929 
	L 224.150, 206.929 
	L 222.484, 206.929 
	L 222.413, 204.697 
	L 222.413, 193.642 
	L 222.484, 191.409 
	L 224.150, 191.409 
	L 225.780, 191.409 
	L 225.780, 193.642 
" />
<path d="M 225.780, 193.642 
	L 225.780, 204.697 
" />
<path d="M 644.882, 634.961 
	L 644.882, 638.150 
	L 644.173, 639.213 
	L 642.756, 639.213 
	L 642.047, 638.150 
	L 642.047, 636.024 
	L 644.882, 636.024 
" />
<path d="M 640.630, 631.772 
	L 640.630, 630.709 
	L 644.882, 630.709 
" />
<path d="M 644.882, 631.772 
	L 644.882, 629.646 
" />
<path d="M 644.882, 626.457 
	L 644.882, 623.268 
	L 644.173, 622.205 
	L 642.756, 622.205 
	L 642.047, 623.268 
	L 642.047, 625.394 
" />
<path d="M 640.630, 625.394 
	L 644.882, 625.394 
" />
<path d="M 642.047, 620.079 
	L 644.173, 620.079 
	L 644.882, 619.016 
	L 644.882, 616.890 
	L 642.047, 616.890 
" />
<path d="M 644.882, 613.701 
	L 642.047, 613.701 
" />
<path d="M 642.756, 613.701 
	L 642.047, 612.638 
	L 642.756, 611.575 
	L 644.882, 611.575 
" />
<path d="M 642.756, 611.575 
	L 642.047, 610.512 
	L 642.756, 609.449 
	L 644.882, 609.449 
" />
<path d="M 644.173, 607.323 
	L 644.882, 606.260 
	L 644.882, 604.134 
	L 644.173, 603.071 
	L 641.339, 603.071 
	L 640.630, 604.134 
	L 640.630, 606.260 
	L 641.339, 607.323 
	L 644.173, 607.323 
" />
<path d="M 644.173, 600.945 
	L 644.882, 599.882 
	L 644.882, 597.756 
	L 644.173, 596.693 
	L 641.339, 596.693 
	L 640.630, 597.756 
	L 640.630, 599.882 
	L 641.339, 600.945 
	L 644.173, 600.945 
" />
<path d="M 644.882, 593.504 
	L 644.882, 591.378 
" />
<path d="M 644.882, 592.441 
	L 640.630, 592.441 
	L 641.339, 593.504 
" />
<path d="M 644.173, 583.937 
	L 644.882, 585.000 
	L 644.882, 586.063 
	L 644.173, 587.126 
	L 642.756, 587.126 
	L 642.047, 586.063 
	L 642.047, 585.000 
	L 642.756, 583.937 
" />
<path d="M 644.882, 580.748 
	L 644.173, 581.811 
	L 642.756, 581.811 
	L 642.047, 580.748 
	L 642.047, 579.685 
	L 642.756, 578.622 
	L 644.173, 578.622 
	L 644.882, 579.685 
	L 644.882, 580.748 
" />
<path d="M 642.047, 575.433 
	L 643.465, 575.433 
	L 644.882, 573.307 
	L 643.465, 571.181 
	L 642.047, 571.181 
" />
<path d="M 643.465, 569.055 
	L 643.465, 565.866 
	L 642.756, 564.803 
	L 642.047, 565.866 
	L 642.047, 567.992 
	L 642.756, 569.055 
	L 644.173, 569.055 
	L 644.882, 567.992 
	L 644.882, 564.803 
" />
<path d="M 642.047, 562.677 
	L 644.882, 562.677 
" />
<path d="M 643.465, 562.677 
	L 642.047, 560.551 
	L 642.047, 559.488 
" />
<path d="M 640.630, 548.858 
	L 644.882, 548.858 
	L 644.882, 546.732 
" />
<path d="M 642.047, 549.921 
	L 642.047, 546.732 
" />
<path d="M 643.465, 543.543 
	L 643.465, 540.354 
	L 642.756, 539.291 
	L 642.047, 540.354 
	L 642.047, 542.480 
	L 642.756, 543.543 
	L 644.173, 543.543 
	L 644.882, 542.480 
	L 644.882, 539.291 
" />
<path d="M 642.047, 533.976 
	L 642.047, 536.102 
	L 642.756, 537.165 
	L 643.465, 536.102 
	L 643.465, 535.039 
	L 644.173, 533.976 
	L 644.882, 535.039 
	L 644.882, 537.165 
" />
<path d="M 640.630, 529.724 
	L 644.882, 529.724 
	L 644.882, 527.599 
" />
<path d="M 642.047, 530.787 
	L 642.047, 527.599 
" />
<path d="M 641.339, 498.898 
	L 640.630, 497.835 
	L 640.630, 495.709 
	L 641.339, 494.646 
	L 642.047, 494.646 
	L 644.173, 498.898 
	L 644.882, 498.898 
	L 644.882, 494.646 
" />
<path d="M 644.173, 492.520 
	L 644.882, 491.457 
	L 644.882, 489.331 
	L 644.173, 488.268 
	L 641.339, 488.268 
	L 640.630, 489.331 
	L 640.630, 491.457 
	L 641.339, 492.520 
	L 644.173, 492.520 
" />
<path d="M 644.882, 485.079 
	L 644.882, 482.953 
" />
<path d="M 644.882, 484.016 
	L 640.630, 484.016 
	L 641.339, 485.079 
" />
<path d="M 644.882, 478.701 
	L 644.882, 477.638 
	L 643.465, 475.512 
	L 641.339, 475.512 
	L 640.630, 476.575 
	L 640.630, 478.701 
	L 641.339, 479.764 
	L 642.047, 479.764 
	L 642.756, 478.701 
	L 642.756, 475.512 
" />
<path d="M 642.756, 473.386 
	L 642.756, 469.134 
" />
<path d="M 644.882, 465.945 
	L 644.882, 463.819 
" />
<path d="M 644.882, 464.882 
	L 640.630, 464.882 
	L 641.339, 465.945 
" />
<path d="M 644.882, 459.567 
	L 644.882, 457.441 
" />
<path d="M 644.882, 458.504 
	L 640.630, 458.504 
	L 641.339, 459.567 
" />
<path d="M 642.756, 454.252 
	L 642.756, 450.000 
" />
<path d="M 641.339, 447.874 
	L 640.630, 446.811 
	L 640.630, 444.685 
	L 641.339, 443.622 
	L 642.047, 443.622 
	L 644.173, 447.874 
	L 644.882, 447.874 
	L 644.882, 443.622 
" />
<path d="M 640.630, 437.244 
	L 640.630, 441.496 
	L 642.047, 441.496 
	L 642.047, 438.307 
	L 642.756, 437.244 
	L 644.173, 437.244 
	L 644.882, 438.307 
	L 644.882, 440.433 
	L 644.173, 441.496 
" />
<path d="M 644.882, 427.677 
	L 644.882, 425.551 
" />
<path d="M 644.882, 426.614 
	L 640.630, 426.614 
	L 641.339, 427.677 
" />
<path d="M 640.630, 419.173 
	L 642.756, 422.362 
	L 643.465, 422.362 
	L 643.465, 418.110 
" />
<path d="M 642.756, 419.173 
	L 644.882, 419.173 
" />
<path d="M 642.756, 414.921 
	L 642.047, 414.921 
	L 642.047, 413.858 
	L 642.756, 413.858 
	L 642.756, 414.921 
" />
<path d="M 644.173, 414.921 
	L 644.173, 413.858 
	L 644.882, 413.858 
	L 644.882, 414.921 
	L 644.173, 414.921 
" />
<path d="M 640.630, 406.417 
	L 642.756, 409.606 
	L 643.465, 409.606 
	L 643.465, 405.354 
" />
<path d="M 642.756, 406.417 
	L 644.882, 406.417 
" />
<path d="M 644.173, 403.228 
	L 644.882, 402.165 
	L 644.882, 400.039 
	L 644.173, 398.976 
	L 641.339, 398.976 
	L 640.630, 400.039 
	L 640.630, 402.165 
	L 641.339, 403.228 
	L 644.173, 403.228 
" />
</g>
</svg>
