<?xml version="1.0" encoding="UTF-8" standalone="no" ?>
<svg width="100%" height="100%" viewBox="0 0 5527.560 646.299" xmlns="http://www.w3.org/2000/svg"><g>
</g><g style="stroke:rgb(0,0,0); fill:none; stroke-width:1.000mm" >
</g><g style="stroke:rgb(0,0,0); fill:none; stroke-width:0.100mm" >
<path d="M 0.001, 646.299 
	L 0.000, 646.299 
	L 0.000, 8.504 
	L 637.795, 8.504 
	L 637.795, 646.299 
	L 0.000, 646.299 
" />
<path d="M 0.001, 281.396 
	L 0.000, 281.397 
	L 141.732, 276.187 
	L 283.465, 289.471 
	L 425.197, 291.969 
	L 566.929, 293.280 
	L 708.662, 305.984 
	L 850.394, 309.478 
	L 992.126, 303.887 
	L 1133.858, 301.265 
	L 1275.591, 298.397 
" />
<path d="M 1275.591, 298.397 
	L 1417.323, 300.652 
	L 1559.055, 311.764 
	L 1700.788, 305.715 
	L 1842.520, 299.443 
	L 1984.252, 289.619 
	L 2125.985, 281.158 
	L 2267.717, 292.973 
	L 2409.449, 301.514 
	L 2551.181, 299.701 
	L 2692.914, 294.993 
" />
<path d="M 2692.914, 294.993 
	L 2834.646, 308.149 
	L 2976.378, 304.653 
	L 3118.111, 301.478 
	L 3259.843, 291.969 
	L 3401.575, 284.669 
	L 3543.308, 283.932 
	L 3685.040, 290.421 
	L 3826.772, 303.008 
	L 3968.505, 316.462 
	L 4110.237, 324.496 
" />
<path d="M 4110.237, 324.496 
	L 4251.969, 326.168 
	L 4393.701, 326.656 
	L 4535.434, 328.018 
	L 4677.166, 316.384 
	L 4818.898, 309.480 
	L 4960.631, 316.094 
	L 5102.363, 305.145 
	L 5244.095, 303.421 
	L 5385.828, 301.694 
	L 5527.560, 303.419 
" />
<path d="M 5527.560, 303.419 
" />
<path d="M 0.001, 286.179 
	L 0.000, 286.179 
	L 70.866, 281.580 
	L 141.732, 293.307 
	L 212.598, 295.512 
	L 283.465, 296.670 
	L 354.331, 307.885 
	L 425.197, 310.969 
	L 496.063, 306.033 
	L 566.929, 303.718 
	L 637.795, 301.187 
" />
<path d="M 637.795, 301.187 
" />
<path d="M 0.001, 290.178 
	L 0.000, 290.179 
	L 47.197, 285.822 
	L 94.394, 296.931 
	L 141.591, 299.020 
	L 188.787, 300.117 
	L 235.984, 310.741 
	L 283.181, 313.663 
	L 330.378, 308.987 
	L 377.575, 306.794 
	L 424.772, 304.396 
" />
<path d="M 424.772, 304.396 
	L 471.969, 306.281 
	L 519.165, 315.575 
	L 566.362, 310.516 
	L 613.559, 305.270 
	L 660.756, 297.055 
	L 707.953, 289.979 
	L 755.150, 299.860 
	L 802.347, 307.002 
	L 849.543, 305.486 
	L 896.740, 301.549 
" />
<path d="M 896.740, 301.549 
	L 943.937, 312.552 
	L 991.134, 309.628 
	L 1038.331, 306.972 
	L 1085.528, 299.020 
	L 1132.725, 292.915 
	L 1179.921, 292.299 
	L 1227.118, 297.725 
	L 1274.315, 308.252 
	L 1321.512, 319.503 
	L 1368.709, 326.222 
" />
<path d="M 1368.709, 326.222 
	L 1415.906, 327.621 
	L 1463.103, 328.029 
	L 1510.299, 329.168 
	L 1557.496, 319.438 
	L 1604.693, 313.664 
	L 1651.890, 319.195 
	L 1699.087, 310.039 
	L 1746.284, 308.597 
	L 1793.481, 307.153 
	L 1840.677, 308.596 
" />
<path d="M 1840.677, 308.596 
" />
<path d="M 0.001, 294.269 
	L 0.000, 294.270 
	L 35.433, 290.217 
	L 70.866, 300.550 
	L 106.299, 302.493 
	L 141.732, 303.513 
	L 177.165, 313.394 
	L 212.598, 316.112 
	L 248.032, 311.763 
	L 283.465, 309.723 
	L 318.898, 307.492 
" />
<path d="M 318.898, 307.492 
	L 354.331, 309.246 
	L 389.764, 317.890 
	L 425.197, 313.184 
	L 460.630, 308.306 
	L 496.063, 300.665 
	L 531.496, 294.084 
	L 566.929, 303.274 
	L 602.362, 309.917 
	L 637.795, 308.507 
" />
<path d="M 0.001, 298.398 
	L 0.000, 298.399 
	L 28.346, 294.687 
	L 56.693, 304.151 
	L 85.039, 305.931 
	L 113.386, 306.865 
	L 141.732, 315.916 
	L 170.079, 318.405 
	L 198.425, 314.422 
	L 226.772, 312.554 
	L 255.118, 310.510 
" />
<path d="M 255.118, 310.510 
	L 283.465, 312.117 
	L 311.811, 320.034 
	L 340.158, 315.724 
	L 368.504, 311.255 
	L 396.850, 304.257 
	L 425.197, 298.228 
	L 453.543, 306.646 
	L 481.890, 312.731 
	L 510.236, 311.440 
	L 538.583, 308.085 
" />
<path d="M 538.583, 308.085 
	L 566.929, 317.459 
	L 595.276, 314.967 
	L 623.622, 312.705 
	L 651.969, 305.931 
	L 680.315, 300.730 
	L 708.662, 300.205 
	L 737.008, 304.828 
	L 765.354, 313.796 
	L 793.701, 323.381 
	L 822.047, 329.105 
" />
<path d="M 822.047, 329.105 
	L 850.394, 330.297 
	L 878.740, 330.644 
	L 907.087, 331.614 
	L 935.433, 323.325 
	L 963.780, 318.407 
	L 992.126, 323.119 
	L 1020.473, 315.318 
	L 1048.819, 314.089 
	L 1077.166, 312.860 
	L 1105.512, 314.089 
" />
<path d="M 1105.512, 314.089 
" />
<path d="M 0.001, 302.271 
	L 0.000, 302.272 
	L 23.598, 298.791 
	L 47.197, 307.665 
	L 70.795, 309.334 
	L 94.394, 310.210 
	L 117.992, 318.698 
	L 141.591, 321.032 
	L 165.189, 317.297 
	L 188.787, 315.545 
	L 212.386, 313.629 
	L 235.984, 315.135 
" />
<path d="M 235.984, 315.135 
	L 259.583, 322.559 
	L 283.181, 318.519 
	L 306.780, 314.328 
	L 330.378, 307.765 
	L 353.976, 302.112 
	L 377.575, 310.005 
	L 401.173, 315.712 
	L 424.772, 314.500 
	L 448.370, 311.355 
	L 471.969, 320.145 
" />
<path d="M 471.969, 320.145 
	L 495.567, 317.808 
	L 519.165, 315.687 
	L 542.764, 309.334 
	L 566.362, 304.457 
	L 589.961, 303.965 
	L 613.559, 308.300 
	L 637.158, 316.710 
	L 660.756, 325.698 
	L 684.354, 331.066 
	L 707.953, 332.183 
" />
<path d="M 707.953, 332.183 
	L 731.551, 332.509 
	L 755.150, 333.419 
	L 778.748, 325.646 
	L 802.347, 321.034 
	L 825.945, 325.453 
	L 849.543, 318.137 
	L 873.142, 316.985 
	L 896.740, 315.832 
	L 920.339, 316.984 
" />
<path d="M 0.001, 306.345 
	L 0.000, 306.346 
	L 20.197, 303.211 
	L 40.394, 311.202 
	L 60.591, 312.704 
	L 80.787, 313.493 
	L 100.984, 321.134 
	L 121.181, 323.235 
	L 141.378, 319.872 
	L 161.575, 318.295 
	L 181.772, 316.570 
	L 201.969, 317.927 
" />
<path d="M 201.969, 317.927 
	L 222.165, 324.610 
	L 242.362, 320.972 
	L 262.559, 317.199 
	L 282.756, 311.291 
	L 302.953, 306.201 
	L 323.150, 313.308 
	L 343.347, 318.445 
	L 363.543, 317.355 
	L 383.740, 314.523 
	L 403.937, 322.436 
" />
<path d="M 403.937, 322.436 
	L 424.134, 320.333 
	L 444.331, 318.424 
	L 464.528, 312.704 
	L 484.724, 308.313 
	L 504.921, 307.870 
	L 525.118, 311.773 
	L 545.315, 319.344 
	L 565.512, 327.436 
	L 585.709, 332.268 
	L 605.906, 333.274 
" />
<path d="M 605.906, 333.274 
	L 626.102, 333.568 
	L 646.299, 334.386 
	L 666.496, 327.389 
	L 686.693, 323.236 
	L 706.890, 327.215 
	L 727.087, 320.629 
	L 747.284, 319.591 
	L 767.480, 318.553 
	L 787.677, 319.591 
" />
<path d="M 0.001, 310.098 
	L 0.000, 310.098 
	L 17.717, 307.170 
	L 35.433, 314.636 
	L 53.150, 316.040 
	L 70.866, 316.777 
	L 88.583, 323.917 
	L 106.299, 325.881 
	L 124.016, 322.739 
	L 141.732, 321.265 
	L 159.449, 319.652 
	L 177.165, 320.920 
" />
<path d="M 177.165, 320.920 
	L 194.882, 327.166 
	L 212.598, 323.766 
	L 230.315, 320.241 
	L 248.032, 314.719 
	L 265.748, 309.964 
	L 283.465, 316.604 
	L 301.181, 321.404 
	L 318.898, 320.386 
	L 336.614, 317.740 
	L 354.331, 325.135 
" />
<path d="M 354.331, 325.135 
	L 372.047, 323.169 
	L 389.764, 321.384 
	L 407.480, 316.040 
	L 425.197, 311.937 
	L 442.913, 311.523 
	L 460.630, 315.170 
	L 478.347, 322.245 
	L 496.063, 329.806 
	L 513.780, 334.322 
	L 531.496, 335.261 
" />
<path d="M 531.496, 335.261 
	L 549.213, 335.536 
	L 566.929, 336.301 
	L 584.646, 329.762 
	L 602.362, 325.882 
	L 620.079, 329.599 
	L 637.795, 323.445 
" />
<path d="M 0.001, 315.122 
	L 0.000, 315.123 
	L 15.732, 313.043 
	L 31.465, 318.346 
	L 47.197, 319.343 
	L 62.929, 319.866 
	L 78.661, 324.937 
	L 94.394, 326.332 
	L 110.126, 324.100 
	L 125.858, 323.053 
	L 141.591, 321.908 
	L 157.323, 322.809 
" />
<path d="M 157.323, 322.809 
	L 173.055, 327.244 
	L 188.787, 324.830 
	L 204.520, 322.326 
	L 220.252, 318.404 
	L 235.984, 315.027 
	L 251.717, 319.744 
	L 267.449, 323.152 
	L 283.181, 322.429 
	L 298.913, 320.550 
	L 314.646, 325.801 
" />
<path d="M 314.646, 325.801 
	L 330.378, 324.405 
	L 346.110, 323.138 
	L 361.843, 319.343 
	L 377.575, 316.429 
	L 393.307, 316.135 
	L 409.039, 318.725 
	L 424.772, 323.749 
	L 440.504, 329.119 
	L 456.236, 332.326 
	L 471.969, 332.994 
" />
<path d="M 471.969, 332.994 
	L 487.701, 333.189 
	L 503.433, 333.732 
	L 519.165, 329.088 
	L 534.898, 326.332 
	L 550.630, 328.973 
	L 566.362, 324.602 
	L 582.095, 323.914 
	L 597.827, 323.225 
	L 613.559, 323.913 
" />
<path d="M 0.001, 318.966 
	L 0.000, 318.967 
	L 14.173, 317.171 
	L 28.346, 321.751 
	L 42.520, 322.612 
	L 56.693, 323.064 
	L 70.866, 327.444 
	L 85.039, 328.649 
	L 99.213, 326.721 
	L 113.386, 325.817 
	L 127.559, 324.828 
	L 141.732, 325.606 
" />
<path d="M 141.732, 325.606 
	L 155.906, 329.437 
	L 170.079, 327.351 
	L 184.252, 325.189 
	L 198.425, 321.802 
	L 212.598, 318.885 
	L 226.772, 322.958 
	L 240.945, 325.903 
	L 255.118, 325.278 
	L 269.291, 323.655 
	L 283.465, 328.191 
" />
<path d="M 283.465, 328.191 
	L 297.638, 326.985 
	L 311.811, 325.891 
	L 325.984, 322.612 
	L 340.158, 320.095 
	L 354.331, 319.841 
	L 368.504, 322.078 
	L 382.677, 326.418 
	L 396.850, 331.057 
	L 411.024, 333.826 
	L 425.197, 334.403 
" />
<path d="M 425.197, 334.403 
	L 439.370, 334.571 
	L 453.543, 335.041 
	L 467.717, 331.030 
	L 481.890, 328.650 
	L 496.063, 330.930 
	L 510.236, 327.155 
	L 524.410, 326.560 
	L 538.583, 325.965 
	L 552.756, 326.560 
" />
<path d="M 0.001, 322.771 
	L 0.000, 322.771 
	L 12.827, 321.254 
	L 25.654, 325.122 
	L 38.480, 325.849 
	L 51.307, 326.231 
	L 64.134, 329.929 
	L 76.961, 330.947 
	L 89.787, 329.319 
	L 102.614, 328.555 
	L 115.441, 327.721 
	L 128.268, 328.377 
" />
<path d="M 128.268, 328.377 
	L 141.095, 331.612 
	L 153.921, 329.851 
	L 166.748, 328.025 
	L 179.575, 325.165 
	L 192.402, 322.702 
	L 205.228, 326.142 
	L 218.055, 328.628 
	L 230.882, 328.100 
	L 243.709, 326.729 
	L 256.535, 330.560 
" />
<path d="M 256.535, 330.560 
	L 269.362, 329.542 
	L 282.189, 328.618 
	L 295.016, 325.849 
	L 307.843, 323.724 
	L 320.669, 323.509 
	L 333.496, 325.398 
	L 346.323, 329.063 
	L 359.150, 332.980 
	L 371.976, 335.319 
	L 384.803, 335.806 
" />
<path d="M 384.803, 335.806 
	L 397.630, 335.948 
	L 410.457, 336.344 
	L 423.284, 332.958 
	L 436.110, 330.947 
	L 448.937, 332.873 
	L 461.764, 329.685 
	L 474.591, 329.183 
	L 487.417, 328.681 
	L 500.244, 329.182 
" />
<path d="M 0.001, 325.748 
	L 0.000, 325.748 
	L 11.764, 324.119 
	L 23.528, 328.273 
	L 35.291, 329.054 
	L 47.055, 329.463 
	L 58.819, 333.435 
	L 70.583, 334.528 
	L 82.346, 332.780 
	L 94.110, 331.960 
	L 105.874, 331.063 
	L 117.638, 331.768 
" />
<path d="M 117.638, 331.768 
	L 129.402, 335.242 
	L 141.165, 333.351 
	L 152.929, 331.390 
	L 164.693, 328.319 
	L 176.457, 325.673 
	L 188.221, 329.367 
	L 199.984, 332.038 
	L 211.748, 331.471 
	L 223.512, 329.999 
	L 235.276, 334.112 
" />
<path d="M 235.276, 334.112 
	L 247.039, 333.019 
	L 258.803, 332.026 
	L 270.567, 329.054 
	L 282.331, 326.771 
	L 294.095, 326.541 
	L 305.858, 328.569 
	L 317.622, 332.505 
	L 329.386, 336.711 
	L 341.150, 339.223 
	L 352.913, 339.746 
" />
<path d="M 352.913, 339.746 
	L 364.677, 339.898 
	L 376.441, 340.324 
	L 388.205, 336.687 
	L 399.969, 334.528 
	L 411.732, 336.596 
	L 423.496, 333.173 
	L 435.260, 332.634 
	L 447.024, 332.094 
	L 458.787, 332.634 
" />
<path d="M 0.001, 329.817 
	L 0.000, 329.818 
	L 10.843, 328.632 
	L 21.685, 331.657 
	L 32.528, 332.226 
	L 43.370, 332.525 
	L 54.213, 335.418 
	L 65.055, 336.213 
	L 75.898, 334.940 
	L 86.740, 334.343 
	L 97.583, 333.690 
	L 108.425, 334.203 
" />
<path d="M 108.425, 334.203 
	L 119.268, 336.734 
	L 130.110, 335.356 
	L 140.953, 333.928 
	L 151.795, 331.690 
	L 162.638, 329.764 
	L 173.480, 332.454 
	L 184.323, 334.400 
	L 195.165, 333.987 
	L 206.008, 332.914 
	L 216.850, 335.911 
" />
<path d="M 216.850, 335.911 
	L 227.693, 335.115 
	L 238.535, 334.391 
	L 249.378, 332.226 
	L 260.221, 330.564 
	L 271.063, 330.396 
	L 281.906, 331.873 
	L 292.748, 334.740 
	L 303.591, 337.804 
	L 314.433, 339.634 
	L 325.276, 340.014 
" />
<path d="M 325.276, 340.014 
	L 336.118, 340.126 
	L 346.961, 340.435 
	L 357.803, 337.786 
	L 368.646, 336.214 
	L 379.488, 337.720 
	L 390.331, 335.227 
	L 401.173, 334.834 
	L 412.016, 334.441 
	L 422.858, 334.833 
" />
<path d="M 0.001, 333.796 
	L 0.000, 333.797 
	L 10.063, 333.023 
	L 20.126, 334.996 
	L 30.189, 335.366 
	L 40.252, 335.561 
	L 50.315, 337.448 
	L 60.378, 337.968 
	L 70.441, 337.137 
	L 80.504, 336.747 
	L 90.567, 336.322 
	L 100.630, 336.657 
" />
<path d="M 100.630, 336.657 
	L 110.693, 338.307 
	L 120.756, 337.409 
	L 130.819, 336.477 
	L 140.882, 335.018 
	L 150.945, 333.760 
	L 161.008, 335.516 
	L 171.071, 336.784 
	L 181.134, 336.515 
	L 191.197, 335.816 
	L 201.260, 337.770 
" />
<path d="M 201.260, 337.770 
	L 211.323, 337.251 
	L 221.386, 336.779 
	L 231.449, 335.366 
	L 241.512, 334.282 
	L 251.575, 334.173 
	L 261.638, 335.137 
	L 271.701, 337.006 
	L 281.764, 339.005 
	L 291.827, 340.199 
	L 301.890, 340.447 
" />
<path d="M 301.890, 340.447 
	L 311.953, 340.519 
	L 322.016, 340.722 
	L 332.079, 338.993 
	L 342.142, 337.968 
	L 352.205, 338.950 
	L 362.268, 337.324 
	L 372.331, 337.068 
	L 382.394, 336.811 
	L 392.457, 337.068 
" />
<path d="M 0.001, 338.118 
	L 0.000, 338.119 
	L 9.425, 337.943 
	L 18.850, 338.392 
	L 28.276, 338.476 
	L 37.701, 338.521 
	L 47.126, 338.949 
	L 56.551, 339.068 
	L 65.976, 338.878 
	L 75.402, 338.790 
	L 84.827, 338.693 
	L 94.252, 338.769 
" />
<path d="M 94.252, 338.769 
	L 103.677, 339.145 
	L 113.102, 338.940 
	L 122.528, 338.728 
	L 131.953, 338.397 
	L 141.378, 338.111 
	L 150.803, 338.510 
	L 160.228, 338.798 
	L 169.654, 338.737 
	L 179.079, 338.578 
	L 188.504, 339.022 
" />
<path d="M 188.504, 339.022 
	L 197.929, 338.905 
	L 207.354, 338.797 
	L 216.780, 338.476 
	L 226.205, 338.229 
	L 235.630, 338.204 
	L 245.055, 338.423 
	L 254.480, 338.849 
	L 263.906, 339.303 
	L 273.331, 339.574 
	L 282.756, 339.631 
" />
<path d="M 282.756, 339.631 
	L 292.181, 339.647 
	L 301.606, 339.693 
	L 311.032, 339.301 
	L 320.457, 339.068 
	L 329.882, 339.291 
	L 339.307, 338.921 
	L 348.732, 338.863 
	L 358.158, 338.805 
	L 367.583, 338.863 
" />
<path d="M 0.001, 340.440 
	L 0.000, 340.440 
	L 8.858, 339.891 
	L 17.717, 341.291 
	L 26.575, 341.554 
	L 35.433, 341.693 
	L 44.291, 343.031 
	L 53.150, 343.399 
	L 62.008, 342.810 
	L 70.866, 342.534 
	L 79.724, 342.232 
	L 88.583, 342.469 
" />
<path d="M 88.583, 342.469 
	L 97.441, 343.640 
	L 106.299, 343.003 
	L 115.157, 342.342 
	L 124.016, 341.306 
	L 132.874, 340.415 
	L 141.732, 341.660 
	L 150.591, 342.560 
	L 159.449, 342.369 
	L 168.307, 341.873 
	L 177.165, 343.259 
" />
<path d="M 177.165, 343.259 
	L 186.024, 342.891 
	L 194.882, 342.556 
	L 203.740, 341.554 
	L 212.598, 340.785 
	L 221.457, 340.707 
	L 230.315, 341.391 
	L 239.173, 342.717 
	L 248.032, 344.135 
	L 256.890, 344.982 
	L 265.748, 345.158 
" />
<path d="M 265.748, 345.158 
	L 274.606, 345.210 
	L 283.465, 345.353 
	L 292.323, 344.127 
	L 301.181, 343.400 
	L 310.039, 344.096 
	L 318.898, 342.943 
	L 327.756, 342.761 
	L 336.614, 342.579 
	L 345.472, 342.760 
" />
<path d="M 0.001, 344.453 
	L 0.000, 344.454 
	L 8.291, 344.381 
	L 16.583, 344.567 
	L 24.874, 344.602 
	L 33.165, 344.620 
	L 41.457, 344.797 
	L 49.748, 344.846 
	L 58.039, 344.768 
	L 66.331, 344.731 
	L 74.622, 344.692 
	L 82.913, 344.723 
" />
<path d="M 82.913, 344.723 
	L 91.205, 344.878 
	L 99.496, 344.794 
	L 107.787, 344.706 
	L 116.079, 344.569 
	L 124.370, 344.451 
	L 132.661, 344.616 
	L 140.953, 344.735 
	L 149.244, 344.709 
	L 157.535, 344.644 
	L 165.827, 344.828 
" />
<path d="M 165.827, 344.828 
	L 174.118, 344.779 
	L 182.409, 344.734 
	L 190.701, 344.602 
	L 198.992, 344.500 
	L 207.283, 344.490 
	L 215.575, 344.580 
	L 223.866, 344.756 
	L 232.158, 344.944 
	L 240.449, 345.056 
	L 248.740, 345.079 
" />
<path d="M 248.740, 345.079 
	L 257.032, 345.086 
	L 265.323, 345.105 
	L 273.614, 344.942 
	L 281.906, 344.846 
	L 290.197, 344.938 
	L 298.488, 344.786 
	L 306.780, 344.762 
	L 315.071, 344.738 
	L 323.362, 344.762 
" />
<path d="M 0.001, 347.230 
	L 0.000, 347.231 
	L 7.866, 347.039 
	L 15.732, 347.527 
	L 23.598, 347.618 
	L 31.465, 347.667 
	L 39.331, 348.133 
	L 47.197, 348.261 
	L 55.063, 348.056 
	L 62.929, 347.960 
	L 70.795, 347.854 
	L 78.661, 347.937 
" />
<path d="M 78.661, 347.937 
	L 86.528, 348.345 
	L 94.394, 348.123 
	L 102.260, 347.893 
	L 110.126, 347.533 
	L 117.992, 347.222 
	L 125.858, 347.655 
	L 133.724, 347.968 
	L 141.591, 347.902 
	L 149.457, 347.730 
	L 157.323, 348.212 
" />
<path d="M 157.323, 348.212 
	L 165.189, 348.084 
	L 173.055, 347.968 
	L 180.921, 347.618 
	L 188.787, 347.351 
	L 196.654, 347.324 
	L 204.520, 347.562 
	L 212.386, 348.024 
	L 220.252, 348.517 
	L 228.118, 348.812 
	L 235.984, 348.873 
" />
<path d="M 235.984, 348.873 
	L 243.850, 348.891 
	L 251.717, 348.941 
	L 259.583, 348.514 
	L 267.449, 348.261 
	L 275.315, 348.503 
	L 283.181, 348.102 
	L 291.047, 348.039 
	L 298.913, 347.975 
	L 306.780, 348.039 
" />
<path d="M 0.001, 350.605 
	L 0.000, 350.605 
	L 7.441, 350.605 
	L 14.882, 350.605 
	L 22.323, 350.605 
	L 29.764, 350.605 
	L 37.205, 350.605 
	L 44.646, 350.605 
	L 52.087, 350.605 
	L 59.528, 350.605 
	L 66.969, 350.605 
	L 74.409, 350.605 
" />
<path d="M 74.409, 350.605 
	L 81.850, 350.605 
	L 89.291, 350.605 
	L 96.732, 350.605 
	L 104.173, 350.605 
	L 111.614, 350.605 
	L 119.055, 350.605 
	L 126.496, 350.605 
	L 133.937, 350.605 
	L 141.378, 350.605 
	L 148.819, 350.605 
" />
<path d="M 148.819, 350.605 
	L 156.260, 350.605 
	L 163.701, 350.605 
	L 171.142, 350.605 
	L 178.583, 350.605 
	L 186.024, 350.605 
	L 193.465, 350.605 
	L 200.906, 350.605 
	L 208.346, 350.605 
	L 215.787, 350.605 
	L 223.228, 350.605 
" />
<path d="M 223.228, 350.605 
	L 230.669, 350.605 
	L 238.110, 350.605 
	L 245.551, 350.605 
	L 252.992, 350.605 
	L 260.433, 350.605 
	L 267.874, 350.605 
	L 275.315, 350.605 
	L 282.756, 350.605 
	L 290.197, 350.605 
" />
<path d="M 0.001, 354.171 
	L 0.000, 354.171 
	L 7.087, 354.471 
	L 14.173, 353.706 
	L 21.260, 353.563 
	L 28.346, 353.487 
	L 35.433, 352.755 
	L 42.520, 352.554 
	L 49.606, 352.876 
	L 56.693, 353.027 
	L 63.780, 353.192 
	L 70.866, 353.062 
" />
<path d="M 70.866, 353.062 
	L 77.953, 352.422 
	L 85.039, 352.771 
	L 92.126, 353.132 
	L 99.213, 353.698 
	L 106.299, 354.185 
	L 113.386, 353.504 
	L 120.472, 353.013 
	L 127.559, 353.117 
	L 134.646, 353.388 
	L 141.732, 352.631 
" />
<path d="M 141.732, 352.631 
	L 148.819, 352.832 
	L 155.906, 353.015 
	L 162.992, 353.563 
	L 170.079, 353.983 
	L 177.165, 354.025 
	L 184.252, 353.651 
	L 191.339, 352.927 
	L 198.425, 352.152 
	L 205.512, 351.690 
	L 212.598, 351.593 
" />
<path d="M 212.598, 351.593 
	L 219.685, 351.565 
	L 226.772, 351.487 
	L 233.858, 352.157 
	L 240.945, 352.554 
	L 248.032, 352.174 
	L 255.118, 352.804 
	L 262.205, 352.903 
	L 269.291, 353.002 
	L 276.378, 352.903 
" />
<path d="M 0.001, 356.508 
	L 0.000, 356.509 
	L 6.732, 356.519 
	L 13.465, 356.494 
	L 20.197, 356.490 
	L 26.929, 356.487 
	L 33.661, 356.464 
	L 40.394, 356.457 
	L 47.126, 356.468 
	L 53.858, 356.472 
	L 60.591, 356.478 
	L 67.323, 356.474 
" />
<path d="M 67.323, 356.474 
	L 74.055, 356.453 
	L 80.787, 356.465 
	L 87.520, 356.476 
	L 94.252, 356.494 
	L 100.984, 356.510 
	L 107.717, 356.488 
	L 114.449, 356.472 
	L 121.181, 356.475 
	L 127.913, 356.484 
	L 134.646, 356.460 
" />
<path d="M 134.646, 356.460 
	L 141.378, 356.467 
	L 148.110, 356.472 
	L 154.843, 356.490 
	L 161.575, 356.504 
	L 168.307, 356.504 
	L 175.039, 356.493 
	L 181.772, 356.469 
	L 188.504, 356.445 
	L 195.236, 356.430 
	L 201.969, 356.427 
" />
<path d="M 201.969, 356.427 
	L 208.701, 356.426 
	L 215.433, 356.423 
	L 222.165, 356.445 
	L 228.898, 356.457 
	L 235.630, 356.445 
	L 242.362, 356.465 
	L 249.095, 356.469 
	L 255.827, 356.472 
	L 262.559, 356.469 
" />
<path d="M 0.001, 359.797 
	L 0.000, 359.797 
	L 6.378, 359.999 
	L 12.756, 359.485 
	L 19.134, 359.388 
	L 25.512, 359.337 
	L 31.890, 358.845 
	L 38.268, 358.710 
	L 44.646, 358.926 
	L 51.024, 359.028 
	L 57.402, 359.139 
	L 63.780, 359.051 
" />
<path d="M 63.780, 359.051 
	L 70.157, 358.621 
	L 76.535, 358.856 
	L 82.913, 359.099 
	L 89.291, 359.478 
	L 95.669, 359.807 
	L 102.047, 359.349 
	L 108.425, 359.018 
	L 114.803, 359.088 
	L 121.181, 359.271 
	L 127.559, 358.761 
" />
<path d="M 127.559, 358.761 
	L 133.937, 358.897 
	L 140.315, 359.019 
	L 146.693, 359.388 
	L 153.071, 359.671 
	L 159.449, 359.699 
	L 165.827, 359.448 
	L 172.205, 358.960 
	L 178.583, 358.439 
	L 184.961, 358.128 
	L 191.339, 358.063 
" />
<path d="M 191.339, 358.063 
	L 197.717, 358.044 
	L 204.095, 357.992 
	L 210.472, 358.442 
	L 216.850, 358.710 
	L 223.228, 358.454 
	L 229.606, 358.878 
	L 235.984, 358.944 
	L 242.362, 359.011 
	L 248.740, 358.944 
" />
<path d="M 0.001, 361.629 
	L 0.000, 361.630 
	L 6.094, 361.322 
	L 12.189, 362.109 
	L 18.283, 362.257 
	L 24.378, 362.334 
	L 30.472, 363.088 
	L 36.567, 363.295 
	L 42.661, 362.964 
	L 48.756, 362.808 
	L 54.850, 362.638 
	L 60.945, 362.772 
" />
<path d="M 60.945, 362.772 
	L 67.039, 363.430 
	L 73.134, 363.071 
	L 79.228, 362.700 
	L 85.323, 362.118 
	L 91.417, 361.616 
	L 97.512, 362.317 
	L 103.606, 362.823 
	L 109.701, 362.715 
	L 115.795, 362.436 
	L 121.890, 363.216 
" />
<path d="M 121.890, 363.216 
	L 127.984, 363.009 
	L 134.079, 362.821 
	L 140.173, 362.257 
	L 146.268, 361.824 
	L 152.362, 361.780 
	L 158.457, 362.165 
	L 164.551, 362.911 
	L 170.646, 363.708 
	L 176.740, 364.185 
	L 182.835, 364.284 
" />
<path d="M 182.835, 364.284 
	L 188.929, 364.313 
	L 195.024, 364.394 
	L 201.118, 363.704 
	L 207.213, 363.295 
	L 213.307, 363.687 
	L 219.402, 363.038 
	L 225.496, 362.936 
	L 231.591, 362.833 
	L 237.685, 362.935 
" />
<path d="M 0.001, 364.483 
	L 0.000, 364.484 
	L 5.882, 364.181 
	L 11.764, 364.952 
	L 17.646, 365.097 
	L 23.528, 365.173 
	L 29.409, 365.911 
	L 35.291, 366.114 
	L 41.173, 365.789 
	L 47.055, 365.637 
	L 52.937, 365.470 
	L 58.819, 365.601 
" />
<path d="M 58.819, 365.601 
	L 64.701, 366.247 
	L 70.583, 365.895 
	L 76.465, 365.531 
	L 82.346, 364.961 
	L 88.228, 364.470 
	L 94.110, 365.156 
	L 99.992, 365.652 
	L 105.874, 365.546 
	L 111.756, 365.273 
	L 117.638, 366.037 
	L 123.520, 365.834 
" />
<path d="M 123.520, 365.834 
	L 129.402, 365.649 
	L 135.283, 365.097 
	L 141.165, 364.674 
	L 147.047, 364.630 
	L 152.929, 365.007 
	L 158.811, 365.738 
	L 164.693, 366.520 
	L 170.575, 366.986 
	L 176.457, 367.083 
	L 182.339, 367.111 
" />
<path d="M 182.339, 367.111 
	L 188.221, 367.190 
	L 194.102, 366.515 
	L 199.984, 366.114 
	L 205.866, 366.498 
	L 211.748, 365.862 
	L 217.630, 365.762 
	L 223.512, 365.662 
	L 229.394, 365.762 
" />
<path d="M 0.001, 366.945 
	L 0.000, 366.946 
	L 5.669, 366.471 
	L 11.339, 367.682 
	L 17.008, 367.909 
	L 22.677, 368.029 
	L 28.346, 369.187 
	L 34.016, 369.506 
	L 39.685, 368.996 
	L 45.354, 368.757 
	L 51.024, 368.495 
	L 56.693, 368.701 
" />
<path d="M 56.693, 368.701 
	L 62.362, 369.714 
	L 68.032, 369.162 
	L 73.701, 368.590 
	L 79.370, 367.695 
	L 85.039, 366.924 
	L 90.709, 368.001 
	L 96.378, 368.780 
	L 102.047, 368.615 
	L 107.717, 368.185 
	L 113.386, 369.385 
	L 119.055, 369.066 
" />
<path d="M 119.055, 369.066 
	L 124.724, 368.776 
	L 130.394, 367.909 
	L 136.063, 367.244 
	L 141.732, 367.177 
	L 147.402, 367.768 
	L 153.071, 368.916 
	L 158.740, 370.142 
	L 164.409, 370.875 
	L 170.079, 371.028 
	L 175.748, 371.071 
" />
<path d="M 175.748, 371.071 
	L 181.417, 371.196 
	L 187.087, 370.135 
	L 192.756, 369.506 
	L 198.425, 370.109 
	L 204.095, 369.111 
	L 209.764, 368.953 
	L 215.433, 368.796 
	L 221.102, 368.953 
" />
<path d="M 0.001, 369.877 
	L 0.000, 369.877 
	L 5.386, 369.475 
	L 10.772, 370.500 
	L 16.157, 370.693 
	L 21.543, 370.794 
	L 26.929, 371.775 
	L 32.315, 372.044 
	L 37.701, 371.613 
	L 43.087, 371.411 
	L 48.472, 371.189 
	L 53.858, 371.363 
" />
<path d="M 53.858, 371.363 
	L 59.244, 372.221 
	L 64.630, 371.755 
	L 70.016, 371.270 
	L 75.402, 370.512 
	L 80.787, 369.859 
	L 86.173, 370.771 
	L 91.559, 371.430 
	L 96.945, 371.290 
	L 102.331, 370.927 
	L 107.717, 371.942 
	L 113.102, 371.672 
" />
<path d="M 113.102, 371.672 
	L 118.488, 371.427 
	L 123.874, 370.693 
	L 129.260, 370.130 
	L 134.646, 370.073 
	L 140.032, 370.574 
	L 145.417, 371.546 
	L 150.803, 372.584 
	L 156.189, 373.204 
	L 161.575, 373.333 
	L 166.961, 373.370 
" />
<path d="M 166.961, 373.370 
	L 172.346, 373.476 
	L 177.732, 372.578 
	L 183.118, 372.045 
	L 188.504, 372.555 
	L 193.890, 371.710 
	L 199.276, 371.577 
	L 204.661, 371.444 
	L 210.047, 371.577 
" />
<path d="M 0.001, 371.477 
	L 0.000, 371.478 
	L 5.244, 370.505 
	L 10.488, 372.983 
	L 15.732, 373.449 
	L 20.976, 373.694 
	L 26.220, 376.064 
	L 31.465, 376.716 
	L 36.709, 375.673 
	L 41.953, 375.183 
	L 47.197, 374.649 
	L 52.441, 375.069 
" />
<path d="M 52.441, 375.069 
	L 57.685, 377.142 
	L 62.929, 376.014 
	L 68.173, 374.844 
	L 73.417, 373.011 
	L 78.661, 371.433 
	L 83.906, 373.637 
	L 89.150, 375.230 
	L 94.394, 374.892 
	L 99.638, 374.014 
	L 104.882, 376.468 
	L 110.126, 375.815 
" />
<path d="M 110.126, 375.815 
	L 115.370, 375.224 
	L 120.614, 373.449 
	L 125.858, 372.088 
	L 131.102, 371.950 
	L 136.346, 373.161 
	L 141.591, 375.509 
	L 146.835, 378.018 
	L 152.079, 379.517 
	L 157.323, 379.829 
	L 162.567, 379.921 
" />
<path d="M 162.567, 379.921 
	L 167.811, 380.174 
	L 173.055, 378.004 
	L 178.299, 376.716 
	L 183.543, 377.950 
	L 188.787, 375.907 
	L 194.032, 375.586 
	L 199.276, 375.264 
	L 204.520, 375.586 
" />
<path d="M 0.001, 374.969 
	L 0.000, 374.970 
	L 5.031, 374.375 
	L 10.063, 375.892 
	L 15.094, 376.178 
	L 20.126, 376.328 
	L 25.157, 377.779 
	L 30.189, 378.179 
	L 35.220, 377.539 
	L 40.252, 377.240 
	L 45.283, 376.912 
	L 50.315, 377.170 
" />
<path d="M 50.315, 377.170 
	L 55.346, 378.439 
	L 60.378, 377.748 
	L 65.409, 377.032 
	L 70.441, 375.910 
	L 75.472, 374.943 
	L 80.504, 376.293 
	L 85.535, 377.269 
	L 90.567, 377.061 
	L 95.598, 376.523 
	L 100.630, 378.026 
	L 105.661, 377.627 
" />
<path d="M 105.661, 377.627 
	L 110.693, 377.264 
	L 115.724, 376.178 
	L 120.756, 375.344 
	L 125.787, 375.260 
	L 130.819, 376.001 
	L 135.850, 377.439 
	L 140.882, 378.977 
	L 145.913, 379.894 
	L 150.945, 380.085 
	L 155.976, 380.141 
" />
<path d="M 155.976, 380.141 
	L 161.008, 380.297 
	L 166.039, 378.967 
	L 171.071, 378.179 
	L 176.102, 378.934 
	L 181.134, 377.683 
	L 186.165, 377.486 
	L 191.197, 377.289 
	L 196.228, 377.486 
" />
<path d="M 0.001, 378.483 
	L 0.000, 378.483 
	L 4.819, 378.288 
	L 9.638, 378.785 
	L 14.457, 378.879 
	L 19.276, 378.928 
	L 24.094, 379.404 
	L 28.913, 379.535 
	L 33.732, 379.325 
	L 38.551, 379.227 
	L 43.370, 379.120 
	L 48.189, 379.204 
" />
<path d="M 48.189, 379.204 
	L 53.008, 379.621 
	L 57.827, 379.394 
	L 62.646, 379.159 
	L 67.465, 378.791 
	L 72.283, 378.474 
	L 77.102, 378.916 
	L 81.921, 379.237 
	L 86.740, 379.169 
	L 91.559, 378.992 
	L 96.378, 379.485 
	L 101.197, 379.354 
" />
<path d="M 101.197, 379.354 
	L 106.016, 379.235 
	L 110.835, 378.879 
	L 115.654, 378.606 
	L 120.472, 378.578 
	L 125.291, 378.821 
	L 130.110, 379.293 
	L 134.929, 379.797 
	L 139.748, 380.097 
	L 144.567, 380.160 
	L 149.386, 380.179 
" />
<path d="M 149.386, 380.179 
	L 154.205, 380.230 
	L 159.024, 379.794 
	L 163.843, 379.535 
	L 168.661, 379.782 
	L 173.480, 379.373 
	L 178.299, 379.308 
	L 183.118, 379.243 
	L 187.937, 379.308 
" />
<path d="M 0.001, 381.139 
	L 0.000, 381.139 
	L 4.677, 380.936 
	L 9.354, 381.455 
	L 14.031, 381.553 
	L 18.709, 381.604 
	L 23.386, 382.102 
	L 28.063, 382.238 
	L 32.740, 382.020 
	L 37.417, 381.917 
	L 42.094, 381.805 
	L 46.772, 381.893 
" />
<path d="M 46.772, 381.893 
	L 51.449, 382.328 
	L 56.126, 382.091 
	L 60.803, 381.845 
	L 65.480, 381.461 
	L 70.157, 381.130 
	L 74.835, 381.592 
	L 79.512, 381.927 
	L 84.189, 381.856 
	L 88.866, 381.672 
	L 93.543, 382.186 
	L 98.220, 382.049 
" />
<path d="M 98.220, 382.049 
	L 102.898, 381.925 
	L 107.575, 381.553 
	L 112.252, 381.268 
	L 116.929, 381.239 
	L 121.606, 381.493 
	L 126.283, 381.985 
	L 130.961, 382.511 
	L 135.638, 382.825 
	L 140.315, 382.891 
	L 144.992, 382.910 
" />
<path d="M 144.992, 382.910 
	L 149.669, 382.964 
	L 154.346, 382.509 
	L 159.024, 382.238 
	L 163.701, 382.497 
	L 168.378, 382.068 
	L 173.055, 382.001 
	L 177.732, 381.934 
	L 182.409, 382.001 
" />
</g><g style="stroke:rgb(255,0,0); fill:none; stroke-width:0.100mm" >
<path d="M 14.173, 622.205 
	L 14.173, 625.039 
" />
<path d="M 14.173, 623.622 
	L 16.299, 622.205 
	L 17.362, 622.205 
" />
<path d="M 20.551, 623.622 
	L 23.740, 623.622 
	L 24.803, 622.913 
	L 23.740, 622.205 
	L 21.614, 622.205 
	L 20.551, 622.913 
	L 20.551, 624.331 
	L 21.614, 625.039 
	L 24.803, 625.039 
" />
<path d="M 31.181, 624.331 
	L 30.118, 625.039 
	L 29.055, 625.039 
	L 27.992, 624.331 
	L 27.992, 622.913 
	L 29.055, 622.205 
	L 30.118, 622.205 
	L 31.181, 622.913 
" />
<path d="M 34.370, 625.039 
	L 33.307, 624.331 
	L 33.307, 622.913 
	L 34.370, 622.205 
	L 35.433, 622.205 
	L 36.496, 622.913 
	L 36.496, 624.331 
	L 35.433, 625.039 
	L 34.370, 625.039 
" />
<path d="M 39.685, 622.205 
	L 39.685, 625.039 
" />
<path d="M 39.685, 623.622 
	L 41.811, 622.205 
	L 42.874, 622.205 
" />
<path d="M 49.252, 620.787 
	L 49.252, 625.039 
	L 47.126, 625.039 
	L 46.063, 624.331 
	L 46.063, 622.913 
	L 47.126, 622.205 
	L 49.252, 622.205 
" />
<path d="M 49.252, 625.039 
	L 50.315, 625.039 
" />
<path d="M 52.441, 623.622 
	L 55.630, 623.622 
	L 56.693, 622.913 
	L 55.630, 622.205 
	L 53.504, 622.205 
	L 52.441, 622.913 
	L 52.441, 624.331 
	L 53.504, 625.039 
	L 56.693, 625.039 
" />
<path d="M 62.008, 620.787 
	L 62.008, 625.039 
	L 59.882, 625.039 
	L 58.819, 624.331 
	L 58.819, 622.913 
	L 59.882, 622.205 
	L 62.008, 622.205 
" />
<path d="M 62.008, 625.039 
	L 63.071, 625.039 
" />
<path d="M 73.701, 620.787 
	L 73.701, 621.496 
" />
<path d="M 72.638, 622.205 
	L 73.701, 622.205 
	L 73.701, 625.039 
" />
<path d="M 72.638, 625.039 
	L 74.764, 625.039 
" />
<path d="M 77.953, 625.039 
	L 77.953, 622.205 
" />
<path d="M 77.953, 622.913 
	L 79.016, 622.205 
	L 80.079, 622.205 
	L 81.142, 622.913 
	L 81.142, 625.039 
" />
<path d="M 92.835, 625.039 
	L 92.835, 620.787 
	L 90.709, 620.787 
	L 94.961, 620.787 
" />
<path d="M 97.087, 622.205 
	L 97.087, 624.331 
	L 98.150, 625.039 
	L 100.276, 625.039 
	L 100.276, 622.205 
" />
<path d="M 106.654, 622.205 
	L 104.528, 622.205 
	L 103.465, 622.913 
	L 104.528, 623.622 
	L 105.591, 623.622 
	L 106.654, 624.331 
	L 105.591, 625.039 
	L 103.465, 625.039 
" />
<path d="M 109.843, 620.787 
	L 109.843, 625.039 
" />
<path d="M 109.843, 622.205 
	L 111.969, 622.205 
	L 113.032, 622.913 
	L 113.032, 625.039 
" />
<path d="M 116.220, 623.622 
	L 119.409, 623.622 
	L 120.472, 622.913 
	L 119.409, 622.205 
	L 117.283, 622.205 
	L 116.220, 622.913 
	L 116.220, 624.331 
	L 117.283, 625.039 
	L 120.472, 625.039 
" />
<path d="M 123.661, 620.787 
	L 123.661, 625.039 
	L 125.787, 625.039 
" />
<path d="M 122.598, 622.205 
	L 125.787, 622.205 
" />
<path d="M 131.102, 620.787 
	L 131.102, 621.496 
" />
<path d="M 130.039, 622.205 
	L 131.102, 622.205 
	L 131.102, 625.039 
" />
<path d="M 130.039, 625.039 
	L 132.165, 625.039 
" />
<path d="M 137.480, 620.787 
	L 137.480, 621.496 
" />
<path d="M 136.417, 622.205 
	L 137.480, 622.205 
	L 137.480, 625.039 
" />
<path d="M 136.417, 625.039 
	L 138.543, 625.039 
" />
<path d="M 152.362, 621.496 
	L 151.299, 620.787 
	L 149.173, 620.787 
	L 148.110, 621.496 
	L 148.110, 624.331 
	L 149.173, 625.039 
	L 151.299, 625.039 
	L 152.362, 624.331 
	L 152.362, 622.913 
	L 149.173, 622.913 
" />
<path d="M 154.488, 623.622 
	L 157.677, 623.622 
	L 158.740, 622.913 
	L 157.677, 622.205 
	L 155.551, 622.205 
	L 154.488, 622.913 
	L 154.488, 624.331 
	L 155.551, 625.039 
	L 158.740, 625.039 
" />
<path d="M 161.929, 625.039 
	L 160.866, 624.331 
	L 160.866, 622.913 
	L 161.929, 622.205 
	L 162.992, 622.205 
	L 164.055, 622.913 
	L 164.055, 624.331 
	L 162.992, 625.039 
	L 161.929, 625.039 
" />
<path d="M 167.244, 622.205 
	L 167.244, 625.039 
" />
<path d="M 167.244, 623.622 
	L 169.370, 622.205 
	L 170.433, 622.205 
" />
<path d="M 173.622, 626.457 
	L 175.748, 626.457 
	L 176.811, 625.748 
	L 176.811, 622.205 
	L 174.685, 622.205 
	L 173.622, 622.913 
	L 173.622, 624.331 
	L 174.685, 625.039 
	L 176.811, 625.039 
" />
<path d="M 182.126, 620.787 
	L 182.126, 621.496 
" />
<path d="M 181.063, 622.205 
	L 182.126, 622.205 
	L 182.126, 625.039 
" />
<path d="M 181.063, 625.039 
	L 183.189, 625.039 
" />
<path d="M 190.630, 625.039 
	L 187.441, 625.039 
	L 186.378, 624.331 
	L 186.378, 622.913 
	L 187.441, 622.205 
	L 189.567, 622.205 
	L 189.567, 625.039 
" />
<path d="M 14.173, 632.126 
	L 14.173, 627.874 
" />
<path d="M 17.362, 632.126 
	L 14.173, 630.709 
	L 17.362, 629.291 
" />
<path d="M 24.803, 632.126 
	L 21.614, 632.126 
	L 20.551, 631.417 
	L 20.551, 630.000 
	L 21.614, 629.291 
	L 23.740, 629.291 
	L 23.740, 632.126 
" />
<path d="M 27.992, 632.126 
	L 26.929, 631.417 
	L 26.929, 630.000 
	L 27.992, 629.291 
	L 29.055, 629.291 
	L 30.118, 630.000 
	L 30.118, 631.417 
	L 29.055, 632.126 
	L 27.992, 632.126 
" />
<path d="M 34.370, 627.874 
	L 34.370, 632.126 
	L 36.496, 632.126 
" />
<path d="M 33.307, 629.291 
	L 36.496, 629.291 
" />
<path d="M 39.685, 630.709 
	L 42.874, 630.709 
	L 43.937, 630.000 
	L 42.874, 629.291 
	L 40.748, 629.291 
	L 39.685, 630.000 
	L 39.685, 631.417 
	L 40.748, 632.126 
	L 43.937, 632.126 
" />
<path d="M 50.315, 631.417 
	L 49.252, 632.126 
	L 48.189, 632.126 
	L 47.126, 631.417 
	L 47.126, 630.000 
	L 48.189, 629.291 
	L 49.252, 629.291 
	L 50.315, 630.000 
" />
<path d="M 63.071, 632.126 
	L 60.945, 632.126 
	L 60.945, 627.874 
	L 63.071, 627.874 
" />
<path d="M 65.197, 632.126 
	L 67.323, 632.126 
	L 67.323, 627.874 
	L 65.197, 627.874 
" />
<path d="M 74.764, 627.874 
	L 71.575, 630.000 
	L 74.764, 632.126 
" />
<path d="M 77.953, 627.874 
	L 81.142, 630.000 
	L 77.953, 632.126 
" />
<path d="M 90.709, 628.583 
	L 91.772, 627.874 
	L 93.898, 627.874 
	L 94.961, 628.583 
	L 94.961, 629.291 
	L 90.709, 631.417 
	L 90.709, 632.126 
	L 94.961, 632.126 
" />
<path d="M 97.087, 631.417 
	L 98.150, 632.126 
	L 100.276, 632.126 
	L 101.339, 631.417 
	L 101.339, 628.583 
	L 100.276, 627.874 
	L 98.150, 627.874 
	L 97.087, 628.583 
	L 97.087, 631.417 
" />
<path d="M 104.528, 632.126 
	L 106.654, 632.126 
" />
<path d="M 105.591, 632.126 
	L 105.591, 627.874 
	L 104.528, 628.583 
" />
<path d="M 110.906, 632.126 
	L 111.969, 632.126 
	L 114.095, 630.709 
	L 114.095, 628.583 
	L 113.032, 627.874 
	L 110.906, 627.874 
	L 109.843, 628.583 
	L 109.843, 629.291 
	L 110.906, 630.000 
	L 114.095, 630.000 
" />
<path d="M 14.173, 653.386 
	L 17.362, 653.386 
	L 18.425, 652.677 
	L 18.425, 651.260 
	L 17.362, 650.551 
	L 15.236, 650.551 
" />
<path d="M 15.236, 649.134 
	L 15.236, 653.386 
" />
<path d="M 24.803, 653.386 
	L 21.614, 653.386 
	L 20.551, 652.677 
	L 20.551, 651.260 
	L 21.614, 650.551 
	L 23.740, 650.551 
	L 23.740, 653.386 
" />
<path d="M 26.929, 653.386 
	L 26.929, 650.551 
" />
<path d="M 26.929, 651.260 
	L 27.992, 650.551 
	L 29.055, 650.551 
	L 30.118, 651.260 
	L 30.118, 653.386 
" />
<path d="M 36.496, 649.134 
	L 36.496, 653.386 
	L 34.370, 653.386 
	L 33.307, 652.677 
	L 33.307, 651.260 
	L 34.370, 650.551 
	L 36.496, 650.551 
" />
<path d="M 36.496, 653.386 
	L 37.559, 653.386 
" />
<path d="M 43.937, 652.677 
	L 42.874, 653.386 
	L 41.811, 653.386 
	L 40.748, 652.677 
	L 40.748, 651.260 
	L 41.811, 650.551 
	L 42.874, 650.551 
	L 43.937, 651.260 
" />
<path d="M 50.315, 653.386 
	L 47.126, 653.386 
	L 46.063, 652.677 
	L 46.063, 651.260 
	L 47.126, 650.551 
	L 49.252, 650.551 
	L 49.252, 653.386 
" />
<path d="M 52.441, 653.386 
	L 52.441, 650.551 
" />
<path d="M 52.441, 651.260 
	L 53.504, 650.551 
	L 54.567, 651.260 
	L 54.567, 653.386 
" />
<path d="M 54.567, 651.260 
	L 55.630, 650.551 
	L 56.693, 651.260 
	L 56.693, 653.386 
" />
<path d="M 58.819, 654.803 
	L 58.819, 650.551 
	L 60.945, 650.551 
	L 62.008, 651.260 
	L 62.008, 652.677 
	L 60.945, 653.386 
	L 58.819, 653.386 
" />
<path d="M 74.764, 649.134 
	L 74.764, 653.386 
	L 72.638, 653.386 
	L 71.575, 652.677 
	L 71.575, 651.260 
	L 72.638, 650.551 
	L 74.764, 650.551 
" />
<path d="M 74.764, 653.386 
	L 75.827, 653.386 
" />
<path d="M 79.016, 653.386 
	L 77.953, 652.677 
	L 77.953, 651.260 
	L 79.016, 650.551 
	L 80.079, 650.551 
	L 81.142, 651.260 
	L 81.142, 652.677 
	L 80.079, 653.386 
	L 79.016, 653.386 
" />
<path d="M 84.331, 650.551 
	L 84.331, 652.677 
	L 85.394, 653.386 
	L 86.457, 652.677 
	L 86.457, 651.260 
" />
<path d="M 86.457, 652.677 
	L 87.520, 653.386 
	L 88.583, 652.677 
	L 88.583, 650.551 
" />
<path d="M 90.709, 653.386 
	L 90.709, 650.551 
" />
<path d="M 90.709, 651.260 
	L 91.772, 650.551 
	L 92.835, 650.551 
	L 93.898, 651.260 
	L 93.898, 653.386 
" />
<path d="M 98.150, 649.134 
	L 99.213, 649.134 
	L 99.213, 653.386 
" />
<path d="M 98.150, 653.386 
	L 100.276, 653.386 
" />
<path d="M 104.528, 653.386 
	L 103.465, 652.677 
	L 103.465, 651.260 
	L 104.528, 650.551 
	L 105.591, 650.551 
	L 106.654, 651.260 
	L 106.654, 652.677 
	L 105.591, 653.386 
	L 104.528, 653.386 
" />
<path d="M 114.095, 653.386 
	L 110.906, 653.386 
	L 109.843, 652.677 
	L 109.843, 651.260 
	L 110.906, 650.551 
	L 113.032, 650.551 
	L 113.032, 653.386 
" />
<path d="M 119.409, 649.134 
	L 119.409, 653.386 
	L 117.283, 653.386 
	L 116.220, 652.677 
	L 116.220, 651.260 
	L 117.283, 650.551 
	L 119.409, 650.551 
" />
<path d="M 119.409, 653.386 
	L 120.472, 653.386 
" />
<path d="M 126.850, 652.677 
	L 125.787, 653.386 
	L 124.724, 653.386 
	L 123.661, 652.677 
	L 123.661, 651.260 
	L 124.724, 650.551 
	L 125.787, 650.551 
	L 126.850, 651.260 
" />
<path d="M 130.039, 653.386 
	L 128.976, 652.677 
	L 128.976, 651.260 
	L 130.039, 650.551 
	L 131.102, 650.551 
	L 132.165, 651.260 
	L 132.165, 652.677 
	L 131.102, 653.386 
	L 130.039, 653.386 
" />
<path d="M 138.543, 649.134 
	L 138.543, 653.386 
	L 136.417, 653.386 
	L 135.354, 652.677 
	L 135.354, 651.260 
	L 136.417, 650.551 
	L 138.543, 650.551 
" />
<path d="M 138.543, 653.386 
	L 139.606, 653.386 
" />
<path d="M 141.732, 651.969 
	L 144.921, 651.969 
	L 145.984, 651.260 
	L 144.921, 650.551 
	L 142.795, 650.551 
	L 141.732, 651.260 
	L 141.732, 652.677 
	L 142.795, 653.386 
	L 145.984, 653.386 
" />
<path d="M 154.488, 653.386 
	L 158.740, 649.134 
" />
<path d="M 158.740, 653.386 
	L 154.488, 649.134 
" />
<path d="M 160.866, 653.386 
	L 165.118, 649.134 
" />
<path d="M 165.118, 653.386 
	L 160.866, 649.134 
" />
<path d="M 167.244, 653.386 
	L 171.496, 649.134 
" />
<path d="M 171.496, 653.386 
	L 167.244, 649.134 
" />
<path d="M 173.622, 653.386 
	L 177.874, 649.134 
" />
<path d="M 177.874, 653.386 
	L 173.622, 649.134 
" />
<path d="M 180.000, 651.260 
	L 184.252, 651.260 
" />
<path d="M 186.378, 653.386 
	L 190.630, 649.134 
" />
<path d="M 190.630, 653.386 
	L 186.378, 649.134 
" />
<path d="M 192.756, 653.386 
	L 197.008, 649.134 
" />
<path d="M 197.008, 653.386 
	L 192.756, 649.134 
" />
<path d="M 199.134, 653.386 
	L 203.386, 649.134 
" />
<path d="M 203.386, 653.386 
	L 199.134, 649.134 
" />
<path d="M 205.512, 653.386 
	L 209.764, 649.134 
" />
<path d="M 209.764, 653.386 
	L 205.512, 649.134 
" />
<path d="M 17.717, 238.818 
	L 17.717, 238.819 
	L 17.717, 237.472 
	L 37.382, 237.472 
	L 37.382, 238.819 
	L 17.717, 238.819 
	L 17.717, 233.823 
	L 17.717, 232.476 
	L 37.382, 232.476 
	L 37.382, 233.823 
	L 17.717, 233.823 
	L 17.717, 231.095 
" />
<path d="M 17.717, 231.095 
	L 17.717, 229.748 
	L 37.382, 229.748 
	L 37.382, 231.095 
	L 17.717, 231.095 
" />
<path d="M 37.666, 238.818 
	L 37.665, 238.819 
	L 37.665, 229.748 
	L 39.366, 229.748 
	L 39.366, 238.819 
	L 37.665, 238.819 
" />
<path d="M 39.367, 238.818 
	L 39.366, 238.819 
	L 39.366, 232.016 
	L 51.626, 232.016 
	L 51.626, 233.362 
	L 41.067, 233.362 
	L 41.067, 234.744 
	L 51.626, 234.744 
	L 51.626, 236.091 
	L 41.067, 236.091 
	L 41.067, 238.819 
	L 39.366, 238.819 
" />
<path d="M 39.366, 238.819 
" />
<path d="M 62.257, 234.743 
	L 62.256, 234.744 
	L 62.256, 233.362 
	L 52.902, 233.362 
	L 52.902, 234.744 
	L 62.256, 234.744 
	L 51.343, 238.819 
	L 51.343, 232.016 
	L 63.815, 232.016 
	L 63.815, 236.091 
	L 52.902, 236.091 
	L 52.902, 237.472 
" />
<path d="M 52.902, 237.472 
	L 63.815, 237.472 
	L 63.815, 238.819 
	L 51.343, 238.819 
" />
<path d="M 64.099, 238.818 
	L 64.098, 238.819 
	L 64.098, 232.016 
	L 77.138, 232.016 
	L 77.138, 238.819 
	L 75.437, 238.819 
	L 75.437, 233.362 
	L 65.799, 233.362 
	L 65.799, 238.819 
	L 64.098, 238.819 
" />
<path d="M 77.139, 239.279 
	L 77.138, 239.280 
	L 77.138, 229.748 
	L 78.839, 229.748 
	L 78.839, 237.224 
	L 88.193, 233.150 
	L 97.547, 237.224 
	L 97.547, 229.748 
	L 99.248, 229.748 
	L 99.248, 239.280 
	L 88.193, 234.496 
	L 77.138, 239.280 
" />
<path d="M 77.138, 239.280 
" />
<path d="M 110.587, 237.472 
	L 110.587, 237.472 
	L 110.587, 233.362 
	L 108.319, 233.362 
	L 103.783, 237.472 
	L 110.587, 237.472 
	L 99.992, 238.819 
	L 106.051, 233.362 
	L 99.992, 233.362 
	L 99.992, 232.016 
	L 112.287, 232.016 
" />
<path d="M 112.287, 232.016 
	L 112.287, 238.819 
	L 99.992, 238.819 
" />
<path d="M 111.544, 238.818 
	L 111.543, 238.819 
	L 111.543, 232.016 
	L 124.583, 232.016 
	L 124.583, 238.819 
	L 122.882, 238.819 
	L 122.882, 233.362 
	L 113.244, 233.362 
	L 113.244, 238.819 
	L 111.543, 238.819 
" />
<path d="M 135.922, 237.472 
	L 135.921, 237.472 
	L 135.921, 233.362 
	L 126.283, 233.362 
	L 126.283, 237.472 
	L 135.921, 237.472 
	L 124.583, 238.819 
	L 124.583, 232.016 
	L 135.921, 232.016 
	L 135.921, 229.748 
	L 137.622, 229.748 
" />
<path d="M 137.622, 229.748 
	L 137.622, 238.819 
	L 124.583, 238.819 
" />
<path d="M 148.253, 234.743 
	L 148.252, 234.744 
	L 148.252, 233.362 
	L 138.898, 233.362 
	L 138.898, 234.744 
	L 148.252, 234.744 
	L 137.339, 238.819 
	L 137.339, 232.016 
	L 149.811, 232.016 
	L 149.811, 236.091 
	L 138.898, 236.091 
" />
<path d="M 138.898, 236.091 
	L 138.898, 237.472 
	L 149.811, 237.472 
	L 149.811, 238.819 
	L 137.339, 238.819 
" />
<path d="M 150.095, 238.818 
	L 150.095, 238.819 
	L 150.095, 232.016 
	L 162.354, 232.016 
	L 162.354, 233.362 
	L 151.795, 233.362 
	L 151.795, 238.819 
	L 150.095, 238.819 
" />
<path d="M 36.320, 255.188 
	L 36.319, 255.189 
	L 28.772, 248.811 
	L 19.701, 248.811 
	L 19.701, 255.189 
	L 36.319, 255.189 
	L 18.000, 256.535 
	L 18.000, 247.465 
	L 29.516, 247.465 
	L 40.110, 256.535 
	L 18.000, 256.535 
" />
<path d="M 40.111, 256.535 
	L 40.110, 256.535 
	L 40.110, 249.732 
	L 41.811, 249.732 
	L 41.811, 256.535 
	L 40.110, 256.535 
	L 40.110, 248.811 
	L 40.110, 247.465 
	L 41.811, 247.465 
	L 41.811, 248.811 
	L 40.110, 248.811 
" />
<path d="M 41.528, 256.535 
	L 41.528, 256.535 
	L 41.528, 255.189 
	L 52.441, 255.189 
	L 52.441, 253.807 
	L 41.528, 253.807 
	L 41.528, 249.732 
	L 54.000, 249.732 
	L 54.000, 251.079 
	L 43.087, 251.079 
	L 43.087, 252.461 
	L 54.000, 252.461 
" />
<path d="M 54.000, 252.461 
	L 54.000, 256.535 
	L 41.528, 256.535 
" />
<path d="M 54.284, 256.535 
	L 54.283, 256.535 
	L 54.283, 247.465 
	L 55.984, 247.465 
	L 55.984, 249.732 
	L 66.543, 249.732 
	L 66.543, 251.079 
	L 55.984, 251.079 
	L 55.984, 255.189 
	L 66.543, 255.189 
	L 66.543, 256.535 
	L 54.283, 256.535 
" />
<path d="M 54.283, 256.535 
" />
<path d="M 66.544, 256.535 
	L 66.543, 256.535 
	L 66.543, 249.732 
	L 78.803, 249.732 
	L 78.803, 251.079 
	L 68.244, 251.079 
	L 68.244, 256.535 
	L 66.543, 256.535 
" />
<path d="M 89.434, 252.460 
	L 89.433, 252.461 
	L 89.433, 251.079 
	L 80.079, 251.079 
	L 80.079, 252.461 
	L 89.433, 252.461 
	L 78.520, 256.535 
	L 78.520, 249.732 
	L 90.992, 249.732 
	L 90.992, 253.807 
	L 80.079, 253.807 
	L 80.079, 255.189 
" />
<path d="M 80.079, 255.189 
	L 90.992, 255.189 
	L 90.992, 256.535 
	L 78.520, 256.535 
" />
<path d="M 90.993, 256.535 
	L 90.992, 256.535 
	L 90.992, 255.189 
	L 101.906, 255.189 
	L 101.906, 253.807 
	L 90.992, 253.807 
	L 90.992, 249.732 
	L 103.465, 249.732 
	L 103.465, 251.079 
	L 92.551, 251.079 
	L 92.551, 252.461 
" />
<path d="M 92.551, 252.461 
	L 103.465, 252.461 
	L 103.465, 256.535 
	L 90.992, 256.535 
" />
<path d="M 103.465, 256.535 
	L 103.465, 256.535 
	L 103.465, 255.189 
	L 114.378, 255.189 
	L 114.378, 253.807 
	L 103.465, 253.807 
	L 103.465, 249.732 
	L 115.937, 249.732 
	L 115.937, 251.079 
	L 105.024, 251.079 
	L 105.024, 252.461 
" />
<path d="M 105.024, 252.461 
	L 115.937, 252.461 
	L 115.937, 256.535 
	L 103.465, 256.535 
" />
<path d="M 116.221, 256.535 
	L 116.220, 256.535 
	L 116.220, 250.193 
	L 136.063, 250.193 
	L 136.063, 251.539 
	L 117.921, 251.539 
	L 117.921, 256.535 
	L 116.220, 256.535 
	L 116.220, 248.811 
	L 116.220, 247.465 
	L 136.063, 247.465 
" />
<path d="M 136.063, 247.465 
	L 136.063, 248.811 
	L 116.220, 248.811 
" />
<path d="M 136.064, 256.535 
	L 136.063, 256.535 
	L 136.063, 249.732 
	L 148.323, 249.732 
	L 148.323, 251.079 
	L 137.764, 251.079 
	L 137.764, 256.535 
	L 136.063, 256.535 
" />
<path d="M 158.953, 252.460 
	L 158.953, 252.461 
	L 158.953, 251.079 
	L 149.598, 251.079 
	L 149.598, 252.461 
	L 158.953, 252.461 
	L 148.039, 256.535 
	L 148.039, 249.732 
	L 160.512, 249.732 
	L 160.512, 253.807 
	L 149.598, 253.807 
" />
<path d="M 149.598, 253.807 
	L 149.598, 255.189 
	L 160.512, 255.189 
	L 160.512, 256.535 
	L 148.039, 256.535 
" />
<path d="M 172.135, 255.188 
	L 172.134, 255.189 
	L 172.134, 251.079 
	L 162.496, 251.079 
	L 162.496, 255.189 
	L 172.134, 255.189 
	L 172.134, 258.803 
	L 172.134, 256.535 
	L 160.795, 256.535 
	L 160.795, 249.732 
	L 173.835, 249.732 
" />
<path d="M 173.835, 249.732 
	L 173.835, 258.803 
	L 172.134, 258.803 
" />
<path d="M 173.835, 256.535 
	L 173.835, 256.535 
	L 173.835, 249.732 
	L 175.535, 249.732 
	L 175.535, 255.189 
	L 185.173, 255.189 
	L 185.173, 249.732 
	L 186.874, 249.732 
	L 186.874, 256.535 
	L 173.835, 256.535 
" />
<path d="M 197.505, 252.460 
	L 197.504, 252.461 
	L 197.504, 251.079 
	L 188.150, 251.079 
	L 188.150, 252.461 
	L 197.504, 252.461 
	L 186.591, 256.535 
	L 186.591, 249.732 
	L 199.063, 249.732 
	L 199.063, 253.807 
	L 188.150, 253.807 
" />
<path d="M 188.150, 253.807 
	L 188.150, 255.189 
	L 199.063, 255.189 
	L 199.063, 256.535 
	L 186.591, 256.535 
" />
<path d="M 199.347, 256.535 
	L 199.346, 256.535 
	L 199.346, 249.732 
	L 212.386, 249.732 
	L 212.386, 256.535 
	L 210.685, 256.535 
	L 210.685, 251.079 
	L 201.047, 251.079 
	L 201.047, 256.535 
	L 199.346, 256.535 
" />
<path d="M 212.387, 256.535 
	L 212.386, 256.535 
	L 212.386, 249.732 
	L 224.646, 249.732 
	L 224.646, 251.079 
	L 214.087, 251.079 
	L 214.087, 255.189 
	L 224.646, 255.189 
	L 224.646, 256.535 
	L 212.386, 256.535 
" />
<path d="M 225.391, 258.802 
	L 225.390, 258.803 
	L 225.390, 257.421 
	L 235.984, 257.421 
	L 235.984, 256.535 
	L 232.937, 256.535 
	L 225.390, 249.732 
	L 227.658, 249.732 
	L 233.717, 255.189 
	L 235.984, 255.189 
	L 235.984, 249.732 
" />
<path d="M 235.984, 249.732 
	L 237.685, 249.732 
	L 237.685, 258.803 
	L 225.390, 258.803 
" />
<path d="M 27.072, 274.251 
	L 27.071, 274.252 
	L 27.071, 266.528 
	L 17.256, 266.528 
	L 17.256, 265.181 
	L 38.587, 265.181 
	L 38.587, 266.528 
	L 28.772, 266.528 
	L 28.772, 274.252 
	L 27.071, 274.252 
" />
<path d="M 39.331, 274.251 
	L 39.331, 274.252 
	L 39.331, 265.181 
	L 41.032, 265.181 
	L 41.032, 267.449 
	L 52.370, 267.449 
	L 52.370, 274.252 
	L 50.669, 274.252 
	L 50.669, 268.795 
	L 41.032, 268.795 
	L 41.032, 274.252 
	L 39.331, 274.252 
" />
<path d="M 39.331, 274.252 
" />
<path d="M 63.001, 270.177 
	L 63.000, 270.177 
	L 63.000, 268.795 
	L 53.646, 268.795 
	L 53.646, 270.177 
	L 63.000, 270.177 
	L 52.087, 274.252 
	L 52.087, 267.449 
	L 64.559, 267.449 
	L 64.559, 271.524 
	L 53.646, 271.524 
	L 53.646, 272.906 
" />
<path d="M 53.646, 272.906 
	L 64.559, 272.906 
	L 64.559, 274.252 
	L 52.087, 274.252 
" />
<path d="M 64.560, 274.251 
	L 64.559, 274.252 
	L 64.559, 272.906 
	L 84.224, 272.906 
	L 84.224, 274.252 
	L 64.559, 274.252 
	L 64.559, 269.256 
	L 64.559, 267.909 
	L 84.224, 267.909 
	L 84.224, 269.256 
	L 64.559, 269.256 
	L 64.559, 266.528 
" />
<path d="M 64.559, 266.528 
	L 64.559, 265.181 
	L 84.224, 265.181 
	L 84.224, 266.528 
	L 64.559, 266.528 
" />
<path d="M 95.847, 272.905 
	L 95.846, 272.906 
	L 95.846, 268.795 
	L 86.209, 268.795 
	L 86.209, 272.906 
	L 95.846, 272.906 
	L 84.508, 274.252 
	L 84.508, 267.449 
	L 95.846, 267.449 
	L 95.846, 265.181 
	L 97.547, 265.181 
	L 97.547, 274.252 
" />
<path d="M 97.547, 274.252 
	L 84.508, 274.252 
" />
<path d="M 108.887, 272.905 
	L 108.886, 272.906 
	L 108.886, 268.795 
	L 99.248, 268.795 
	L 99.248, 272.906 
	L 108.886, 272.906 
	L 97.547, 276.520 
	L 97.547, 275.138 
	L 108.886, 275.138 
	L 108.886, 274.252 
	L 97.547, 274.252 
" />
<path d="M 97.547, 274.252 
	L 97.547, 267.449 
	L 110.587, 267.449 
	L 110.587, 276.520 
	L 97.547, 276.520 
" />
<path d="M 121.217, 270.177 
	L 121.217, 270.177 
	L 121.217, 268.795 
	L 111.862, 268.795 
	L 111.862, 270.177 
	L 121.217, 270.177 
	L 110.303, 274.252 
	L 110.303, 267.449 
	L 122.776, 267.449 
	L 122.776, 271.524 
	L 111.862, 271.524 
" />
<path d="M 111.862, 271.524 
	L 111.862, 272.906 
	L 122.776, 272.906 
	L 122.776, 274.252 
	L 110.303, 274.252 
" />
<path d="M 143.469, 272.905 
	L 143.469, 272.906 
	L 143.469, 266.528 
	L 124.760, 266.528 
	L 124.760, 272.906 
	L 143.469, 272.906 
	L 123.059, 274.252 
	L 123.059, 265.181 
	L 145.169, 265.181 
	L 145.169, 274.252 
	L 123.059, 274.252 
" />
<path d="M 123.059, 274.252 
" />
<path d="M 145.170, 274.251 
	L 145.169, 274.252 
	L 145.169, 267.449 
	L 157.429, 267.449 
	L 157.429, 268.795 
	L 146.870, 268.795 
	L 146.870, 270.177 
	L 157.429, 270.177 
	L 157.429, 271.524 
	L 146.870, 271.524 
	L 146.870, 274.252 
" />
<path d="M 146.870, 274.252 
	L 145.169, 274.252 
" />
<path d="M 157.430, 274.712 
	L 157.429, 274.713 
	L 157.429, 265.181 
	L 159.130, 265.181 
	L 159.130, 272.658 
	L 168.484, 268.583 
	L 177.839, 272.658 
	L 177.839, 265.181 
	L 179.539, 265.181 
	L 179.539, 274.713 
	L 168.484, 269.929 
" />
<path d="M 168.484, 269.929 
	L 157.429, 274.713 
" />
<path d="M 179.540, 274.251 
	L 179.539, 274.252 
	L 179.539, 265.181 
	L 181.240, 265.181 
	L 181.240, 267.449 
	L 192.579, 267.449 
	L 192.579, 274.252 
	L 190.878, 274.252 
	L 190.878, 268.795 
	L 181.240, 268.795 
	L 181.240, 274.252 
" />
<path d="M 181.240, 274.252 
	L 179.539, 274.252 
" />
<path d="M 203.918, 272.905 
	L 203.917, 272.906 
	L 203.917, 268.795 
	L 201.650, 268.795 
	L 197.114, 272.906 
	L 203.917, 272.906 
	L 193.323, 274.252 
	L 199.382, 268.795 
	L 193.323, 268.795 
	L 193.323, 267.449 
	L 205.618, 267.449 
" />
<path d="M 205.618, 267.449 
	L 205.618, 274.252 
	L 193.323, 274.252 
" />
<path d="M 204.875, 274.251 
	L 204.874, 274.252 
	L 204.874, 265.181 
	L 206.575, 265.181 
	L 206.575, 267.449 
	L 217.134, 267.449 
	L 217.134, 268.795 
	L 206.575, 268.795 
	L 206.575, 272.906 
	L 217.134, 272.906 
	L 217.134, 274.252 
" />
<path d="M 217.134, 274.252 
	L 204.874, 274.252 
" />
<path d="M 217.135, 274.251 
	L 217.134, 274.252 
	L 217.134, 265.181 
	L 218.835, 265.181 
	L 218.835, 274.252 
	L 217.134, 274.252 
" />
<path d="M 218.552, 274.251 
	L 218.551, 274.252 
	L 218.551, 272.906 
	L 229.465, 272.906 
	L 229.465, 271.524 
	L 218.551, 271.524 
	L 218.551, 267.449 
	L 231.024, 267.449 
	L 231.024, 268.795 
	L 220.110, 268.795 
	L 220.110, 270.177 
" />
<path d="M 220.110, 270.177 
	L 231.024, 270.177 
	L 231.024, 274.252 
	L 218.551, 274.252 
" />
<path d="M 17.717, 284.881 
	L 17.717, 284.882 
	L 28.311, 275.350 
	L 38.870, 284.882 
	L 36.602, 284.882 
	L 28.311, 277.370 
	L 19.984, 284.882 
	L 17.717, 284.882 
" />
<path d="M 50.493, 283.535 
	L 50.492, 283.535 
	L 50.492, 279.425 
	L 40.854, 279.425 
	L 40.854, 283.535 
	L 50.492, 283.535 
	L 39.154, 284.882 
	L 39.154, 278.079 
	L 50.492, 278.079 
	L 50.492, 275.811 
	L 52.193, 275.811 
	L 52.193, 284.882 
" />
<path d="M 52.193, 284.882 
	L 39.154, 284.882 
" />
<path d="M 52.194, 284.881 
	L 52.193, 284.882 
	L 52.193, 278.079 
	L 62.965, 278.079 
	L 62.965, 284.882 
	L 61.264, 284.882 
	L 61.264, 279.425 
	L 58.429, 279.425 
	L 58.429, 284.882 
	L 56.728, 284.882 
	L 56.728, 279.425 
	L 53.894, 279.425 
" />
<path d="M 53.894, 279.425 
	L 53.894, 284.882 
	L 52.193, 284.882 
" />
<path d="M 62.965, 284.881 
	L 62.965, 284.882 
	L 62.965, 278.079 
	L 64.665, 278.079 
	L 64.665, 284.882 
	L 62.965, 284.882 
	L 62.965, 277.158 
	L 62.965, 275.811 
	L 64.665, 275.811 
	L 64.665, 277.158 
	L 62.965, 277.158 
" />
<path d="M 64.666, 284.881 
	L 64.665, 284.882 
	L 64.665, 278.079 
	L 77.705, 278.079 
	L 77.705, 284.882 
	L 76.004, 284.882 
	L 76.004, 279.425 
	L 66.366, 279.425 
	L 66.366, 284.882 
	L 64.665, 284.882 
" />
<path d="M 77.705, 284.881 
	L 77.705, 284.882 
	L 77.705, 278.079 
	L 79.406, 278.079 
	L 79.406, 284.882 
	L 77.705, 284.882 
	L 77.705, 277.158 
	L 77.705, 275.811 
	L 79.406, 275.811 
	L 79.406, 277.158 
	L 77.705, 277.158 
" />
<path d="M 79.123, 284.881 
	L 79.122, 284.882 
	L 79.122, 283.535 
	L 90.035, 283.535 
	L 90.035, 282.154 
	L 79.122, 282.154 
	L 79.122, 278.079 
	L 91.595, 278.079 
	L 91.595, 279.425 
	L 80.681, 279.425 
	L 80.681, 280.807 
	L 91.595, 280.807 
" />
<path d="M 91.595, 280.807 
	L 91.595, 284.882 
	L 79.122, 284.882 
" />
<path d="M 91.879, 284.881 
	L 91.878, 284.882 
	L 91.878, 275.811 
	L 93.579, 275.811 
	L 93.579, 278.079 
	L 104.138, 278.079 
	L 104.138, 279.425 
	L 93.579, 279.425 
	L 93.579, 283.535 
	L 104.138, 283.535 
	L 104.138, 284.882 
" />
<path d="M 104.138, 284.882 
	L 91.878, 284.882 
" />
<path d="M 104.139, 284.881 
	L 104.138, 284.882 
	L 104.138, 278.079 
	L 116.398, 278.079 
	L 116.398, 279.425 
	L 105.839, 279.425 
	L 105.839, 284.882 
	L 104.138, 284.882 
" />
<path d="M 127.737, 283.535 
	L 127.736, 283.535 
	L 127.736, 279.425 
	L 125.469, 279.425 
	L 120.933, 283.535 
	L 127.736, 283.535 
	L 117.142, 284.882 
	L 123.201, 279.425 
	L 117.142, 279.425 
	L 117.142, 278.079 
	L 129.437, 278.079 
" />
<path d="M 129.437, 278.079 
	L 129.437, 284.882 
	L 117.142, 284.882 
" />
<path d="M 128.694, 284.881 
	L 128.693, 284.882 
	L 128.693, 275.811 
	L 130.394, 275.811 
	L 130.394, 278.079 
	L 140.953, 278.079 
	L 140.953, 279.425 
	L 130.394, 279.425 
	L 130.394, 283.535 
	L 140.953, 283.535 
	L 140.953, 284.882 
" />
<path d="M 140.953, 284.882 
	L 128.693, 284.882 
" />
<path d="M 140.953, 284.881 
	L 140.953, 284.882 
	L 140.953, 278.079 
	L 142.654, 278.079 
	L 142.654, 284.882 
	L 140.953, 284.882 
	L 140.953, 277.158 
	L 140.953, 275.811 
	L 142.654, 275.811 
	L 142.654, 277.158 
	L 140.953, 277.158 
" />
<path d="M 140.953, 277.158 
" />
<path d="M 142.654, 284.881 
	L 142.654, 284.882 
	L 142.654, 278.079 
	L 144.354, 278.079 
	L 144.354, 283.535 
	L 146.622, 283.535 
	L 152.646, 278.079 
	L 154.913, 278.079 
	L 147.366, 284.882 
	L 142.654, 284.882 
" />
<path d="M 165.544, 280.806 
	L 165.543, 280.807 
	L 165.543, 279.425 
	L 156.189, 279.425 
	L 156.189, 280.807 
	L 165.543, 280.807 
	L 154.630, 284.882 
	L 154.630, 278.079 
	L 167.102, 278.079 
	L 167.102, 282.154 
	L 156.189, 282.154 
" />
<path d="M 156.189, 282.154 
	L 156.189, 283.535 
	L 167.102, 283.535 
	L 167.102, 284.882 
	L 154.630, 284.882 
" />
<path d="M 167.387, 284.881 
	L 167.386, 284.882 
	L 167.386, 275.811 
	L 169.087, 275.811 
	L 169.087, 284.882 
	L 167.386, 284.882 
" />
<path d="M 169.831, 287.149 
	L 169.831, 287.150 
	L 169.831, 285.768 
	L 180.425, 285.768 
	L 180.425, 284.882 
	L 177.378, 284.882 
	L 169.831, 278.079 
	L 172.098, 278.079 
	L 178.158, 283.535 
	L 180.425, 283.535 
	L 180.425, 278.079 
" />
<path d="M 180.425, 278.079 
	L 182.126, 278.079 
	L 182.126, 287.150 
	L 169.831, 287.150 
" />
<path d="M 18.001, 295.511 
	L 18.000, 295.512 
	L 18.000, 289.169 
	L 32.528, 289.169 
	L 35.575, 287.787 
	L 18.000, 287.787 
	L 18.000, 286.441 
	L 39.331, 286.441 
	L 33.307, 290.516 
	L 19.701, 290.516 
	L 19.701, 295.512 
	L 18.000, 295.512 
" />
<path d="M 18.000, 295.512 
" />
<path d="M 50.670, 294.165 
	L 50.669, 294.165 
	L 50.669, 290.055 
	L 41.032, 290.055 
	L 41.032, 294.165 
	L 50.669, 294.165 
	L 39.331, 295.512 
	L 39.331, 288.709 
	L 52.370, 288.709 
	L 52.370, 295.512 
	L 39.331, 295.512 
" />
<path d="M 52.087, 295.511 
	L 52.087, 295.512 
	L 52.087, 294.165 
	L 63.000, 294.165 
	L 63.000, 292.784 
	L 52.087, 292.784 
	L 52.087, 288.709 
	L 64.559, 288.709 
	L 64.559, 290.055 
	L 53.646, 290.055 
	L 53.646, 291.437 
	L 64.559, 291.437 
" />
<path d="M 64.559, 291.437 
	L 64.559, 295.512 
	L 52.087, 295.512 
" />
<path d="M 64.560, 295.511 
	L 64.559, 295.512 
	L 64.559, 294.165 
	L 75.472, 294.165 
	L 75.472, 292.784 
	L 64.559, 292.784 
	L 64.559, 288.709 
	L 77.032, 288.709 
	L 77.032, 290.055 
	L 66.118, 290.055 
	L 66.118, 291.437 
	L 77.032, 291.437 
" />
<path d="M 77.032, 291.437 
	L 77.032, 295.512 
	L 64.559, 295.512 
" />
<path d="M 77.316, 295.511 
	L 77.315, 295.512 
	L 77.315, 288.709 
	L 79.016, 288.709 
	L 79.016, 295.512 
	L 77.315, 295.512 
	L 77.315, 287.787 
	L 77.315, 286.441 
	L 79.016, 286.441 
	L 79.016, 287.787 
	L 77.315, 287.787 
" />
<path d="M 90.355, 294.165 
	L 90.354, 294.165 
	L 90.354, 290.055 
	L 80.717, 290.055 
	L 80.717, 294.165 
	L 90.354, 294.165 
	L 79.016, 295.512 
	L 79.016, 286.441 
	L 80.717, 286.441 
	L 80.717, 288.709 
	L 92.055, 288.709 
	L 92.055, 295.512 
" />
<path d="M 92.055, 295.512 
	L 79.016, 295.512 
" />
<path d="M 92.056, 295.511 
	L 92.055, 295.512 
	L 92.055, 286.441 
	L 93.756, 286.441 
	L 93.756, 295.512 
	L 92.055, 295.512 
" />
<path d="M 104.387, 291.436 
	L 104.386, 291.437 
	L 104.386, 290.055 
	L 95.032, 290.055 
	L 95.032, 291.437 
	L 104.386, 291.437 
	L 93.472, 295.512 
	L 93.472, 288.709 
	L 105.945, 288.709 
	L 105.945, 292.784 
	L 95.032, 292.784 
" />
<path d="M 95.032, 292.784 
	L 95.032, 294.165 
	L 105.945, 294.165 
	L 105.945, 295.512 
	L 93.472, 295.512 
" />
<path d="M 18.001, 313.228 
	L 18.000, 313.228 
	L 18.000, 311.882 
	L 38.409, 311.882 
	L 38.409, 308.232 
	L 18.000, 308.232 
	L 18.000, 304.158 
	L 40.110, 304.158 
	L 40.110, 305.504 
	L 19.701, 305.504 
	L 19.701, 306.886 
	L 40.110, 306.886 
" />
<path d="M 40.110, 306.886 
	L 40.110, 313.228 
	L 18.000, 313.228 
" />
<path d="M 40.111, 313.228 
	L 40.110, 313.228 
	L 40.110, 306.425 
	L 41.811, 306.425 
	L 41.811, 313.228 
	L 40.110, 313.228 
	L 40.110, 305.504 
	L 40.110, 304.158 
	L 41.811, 304.158 
	L 41.811, 305.504 
	L 40.110, 305.504 
" />
<path d="M 41.812, 313.228 
	L 41.811, 313.228 
	L 41.811, 306.425 
	L 54.850, 306.425 
	L 54.850, 313.228 
	L 53.150, 313.228 
	L 53.150, 307.772 
	L 43.512, 307.772 
	L 43.512, 313.228 
	L 41.811, 313.228 
" />
<path d="M 65.481, 309.153 
	L 65.480, 309.154 
	L 65.480, 307.772 
	L 56.126, 307.772 
	L 56.126, 309.154 
	L 65.480, 309.154 
	L 54.567, 313.228 
	L 54.567, 306.425 
	L 67.039, 306.425 
	L 67.039, 310.500 
	L 56.126, 310.500 
	L 56.126, 311.882 
" />
<path d="M 56.126, 311.882 
	L 67.039, 311.882 
	L 67.039, 313.228 
	L 54.567, 313.228 
" />
<path d="M 67.324, 313.228 
	L 67.323, 313.228 
	L 67.323, 304.158 
	L 88.654, 304.158 
	L 84.118, 308.091 
	L 83.374, 308.728 
	L 88.654, 313.228 
	L 86.386, 313.228 
	L 81.106, 308.728 
	L 84.898, 305.504 
	L 69.024, 305.504 
	L 69.024, 313.228 
" />
<path d="M 69.024, 313.228 
	L 67.323, 313.228 
" />
<path d="M 99.993, 311.881 
	L 99.992, 311.882 
	L 99.992, 307.772 
	L 97.724, 307.772 
	L 93.189, 311.882 
	L 99.992, 311.882 
	L 89.398, 313.228 
	L 95.457, 307.772 
	L 89.398, 307.772 
	L 89.398, 306.425 
	L 101.693, 306.425 
	L 101.693, 313.228 
" />
<path d="M 101.693, 313.228 
	L 89.398, 313.228 
" />
<path d="M 100.950, 313.228 
	L 100.949, 313.228 
	L 100.949, 306.425 
	L 102.650, 306.425 
	L 102.650, 311.882 
	L 104.917, 311.882 
	L 110.941, 306.425 
	L 113.209, 306.425 
	L 105.661, 313.228 
	L 100.949, 313.228 
" />
<path d="M 123.839, 309.153 
	L 123.839, 309.154 
	L 123.839, 307.772 
	L 114.484, 307.772 
	L 114.484, 309.154 
	L 123.839, 309.154 
	L 112.925, 313.228 
	L 112.925, 306.425 
	L 125.398, 306.425 
	L 125.398, 310.500 
	L 114.484, 310.500 
" />
<path d="M 114.484, 310.500 
	L 114.484, 311.882 
	L 125.398, 311.882 
	L 125.398, 313.228 
	L 112.925, 313.228 
" />
<path d="M 18.001, 330.944 
	L 18.000, 330.945 
	L 18.000, 324.602 
	L 32.528, 324.602 
	L 35.575, 323.221 
	L 18.000, 323.221 
	L 18.000, 321.874 
	L 39.331, 321.874 
	L 33.307, 325.949 
	L 19.701, 325.949 
	L 19.701, 330.945 
	L 18.000, 330.945 
" />
<path d="M 18.000, 330.945 
" />
<path d="M 50.670, 329.598 
	L 50.669, 329.598 
	L 50.669, 325.488 
	L 48.402, 325.488 
	L 43.866, 329.598 
	L 50.669, 329.598 
	L 40.075, 330.945 
	L 46.134, 325.488 
	L 40.075, 325.488 
	L 40.075, 324.142 
	L 52.370, 324.142 
	L 52.370, 330.945 
" />
<path d="M 52.370, 330.945 
	L 40.075, 330.945 
" />
<path d="M 51.627, 330.944 
	L 51.626, 330.945 
	L 51.626, 321.874 
	L 53.327, 321.874 
	L 53.327, 330.945 
	L 51.626, 330.945 
" />
<path d="M 64.666, 329.598 
	L 64.665, 329.598 
	L 64.665, 325.488 
	L 55.028, 325.488 
	L 55.028, 329.598 
	L 64.665, 329.598 
	L 53.327, 330.945 
	L 53.327, 324.142 
	L 66.366, 324.142 
	L 66.366, 330.945 
	L 53.327, 330.945 
" />
<path d="M 66.367, 330.944 
	L 66.366, 330.945 
	L 66.366, 324.142 
	L 79.406, 324.142 
	L 79.406, 330.945 
	L 77.705, 330.945 
	L 77.705, 325.488 
	L 68.067, 325.488 
	L 68.067, 330.945 
	L 66.366, 330.945 
" />
<path d="M 90.745, 329.598 
	L 90.744, 329.598 
	L 90.744, 325.488 
	L 81.106, 325.488 
	L 81.106, 329.598 
	L 90.744, 329.598 
	L 79.406, 330.945 
	L 79.406, 324.142 
	L 92.445, 324.142 
	L 92.445, 330.945 
	L 79.406, 330.945 
" />
<path d="M 103.784, 329.598 
	L 103.783, 329.598 
	L 103.783, 325.488 
	L 94.146, 325.488 
	L 94.146, 329.598 
	L 103.783, 329.598 
	L 92.445, 333.213 
	L 92.445, 324.142 
	L 105.484, 324.142 
	L 105.484, 330.945 
	L 94.146, 330.945 
" />
<path d="M 94.146, 330.945 
	L 94.146, 333.213 
	L 92.445, 333.213 
" />
<path d="M 105.202, 330.944 
	L 105.201, 330.945 
	L 105.201, 329.598 
	L 116.114, 329.598 
	L 116.114, 328.217 
	L 105.201, 328.217 
	L 105.201, 324.142 
	L 117.673, 324.142 
	L 117.673, 325.488 
	L 106.760, 325.488 
	L 106.760, 326.870 
" />
<path d="M 106.760, 326.870 
	L 117.673, 326.870 
	L 117.673, 330.945 
	L 105.201, 330.945 
" />
<path d="M 117.957, 330.944 
	L 117.957, 330.945 
	L 117.957, 324.142 
	L 119.657, 324.142 
	L 119.657, 330.945 
	L 117.957, 330.945 
	L 117.957, 323.221 
	L 117.957, 321.874 
	L 119.657, 321.874 
	L 119.657, 323.221 
	L 117.957, 323.221 
" />
<path d="M 117.957, 323.221 
" />
<path d="M 130.997, 329.598 
	L 130.996, 329.598 
	L 130.996, 325.488 
	L 128.728, 325.488 
	L 124.193, 329.598 
	L 130.996, 329.598 
	L 120.402, 330.945 
	L 126.461, 325.488 
	L 120.402, 325.488 
	L 120.402, 324.142 
	L 132.697, 324.142 
" />
<path d="M 132.697, 324.142 
	L 132.697, 330.945 
	L 120.402, 330.945 
" />
<path d="M 18.001, 348.661 
	L 18.000, 348.661 
	L 18.000, 339.130 
	L 29.055, 343.878 
	L 40.110, 339.130 
	L 40.110, 348.661 
	L 38.409, 348.661 
	L 38.409, 341.150 
	L 29.055, 345.260 
	L 19.701, 341.150 
	L 19.701, 348.661 
	L 18.000, 348.661 
" />
<path d="M 18.000, 348.661 
" />
<path d="M 51.450, 347.314 
	L 51.449, 347.315 
	L 51.449, 343.205 
	L 41.811, 343.205 
	L 41.811, 347.315 
	L 51.449, 347.315 
	L 40.110, 348.661 
	L 40.110, 341.858 
	L 53.150, 341.858 
	L 53.150, 348.661 
	L 40.110, 348.661 
" />
<path d="M 53.150, 348.661 
	L 53.150, 348.661 
	L 53.150, 341.858 
	L 54.850, 341.858 
	L 54.850, 347.315 
	L 64.488, 347.315 
	L 64.488, 341.858 
	L 66.189, 341.858 
	L 66.189, 348.661 
	L 53.150, 348.661 
" />
<path d="M 66.190, 348.661 
	L 66.189, 348.661 
	L 66.189, 341.858 
	L 79.228, 341.858 
	L 79.228, 348.661 
	L 77.528, 348.661 
	L 77.528, 343.205 
	L 67.890, 343.205 
	L 67.890, 348.661 
	L 66.189, 348.661 
" />
<path d="M 79.229, 348.661 
	L 79.228, 348.661 
	L 79.228, 339.591 
	L 80.929, 339.591 
	L 80.929, 341.858 
	L 91.488, 341.858 
	L 91.488, 343.205 
	L 80.929, 343.205 
	L 80.929, 347.315 
	L 91.488, 347.315 
	L 91.488, 348.661 
	L 79.228, 348.661 
" />
<path d="M 79.228, 348.661 
" />
<path d="M 102.827, 347.314 
	L 102.827, 347.315 
	L 102.827, 343.205 
	L 100.559, 343.205 
	L 96.024, 347.315 
	L 102.827, 347.315 
	L 92.232, 348.661 
	L 98.291, 343.205 
	L 92.232, 343.205 
	L 92.232, 341.858 
	L 104.528, 341.858 
" />
<path d="M 104.528, 341.858 
	L 104.528, 348.661 
	L 92.232, 348.661 
" />
<path d="M 103.784, 348.661 
	L 103.783, 348.661 
	L 103.783, 341.858 
	L 105.484, 341.858 
	L 105.484, 348.661 
	L 103.783, 348.661 
	L 103.783, 340.937 
	L 103.783, 339.591 
	L 105.484, 339.591 
	L 105.484, 340.937 
	L 103.783, 340.937 
" />
<path d="M 103.783, 340.937 
" />
<path d="M 105.485, 348.661 
	L 105.484, 348.661 
	L 105.484, 341.858 
	L 118.524, 341.858 
	L 118.524, 348.661 
	L 116.823, 348.661 
	L 116.823, 343.205 
	L 107.185, 343.205 
	L 107.185, 348.661 
	L 105.484, 348.661 
" />
<path d="M 136.843, 347.314 
	L 136.843, 347.315 
	L 129.295, 340.937 
	L 120.224, 340.937 
	L 120.224, 347.315 
	L 136.843, 347.315 
	L 118.524, 348.661 
	L 118.524, 339.591 
	L 130.039, 339.591 
	L 140.634, 348.661 
	L 118.524, 348.661 
" />
<path d="M 118.524, 348.661 
" />
<path d="M 140.635, 348.661 
	L 140.634, 348.661 
	L 140.634, 341.858 
	L 152.894, 341.858 
	L 152.894, 343.205 
	L 142.335, 343.205 
	L 142.335, 348.661 
	L 140.634, 348.661 
" />
<path d="M 164.233, 347.314 
	L 164.232, 347.315 
	L 164.232, 343.205 
	L 154.595, 343.205 
	L 154.595, 347.315 
	L 164.232, 347.315 
	L 152.894, 348.661 
	L 152.894, 341.858 
	L 165.933, 341.858 
	L 165.933, 348.661 
	L 152.894, 348.661 
" />
<path d="M 152.894, 348.661 
" />
<path d="M 165.934, 348.661 
	L 165.933, 348.661 
	L 165.933, 341.858 
	L 178.972, 341.858 
	L 178.972, 348.661 
	L 177.272, 348.661 
	L 177.272, 343.205 
	L 167.634, 343.205 
	L 167.634, 348.661 
	L 165.933, 348.661 
" />
<path d="M 189.603, 344.586 
	L 189.602, 344.587 
	L 189.602, 343.205 
	L 180.248, 343.205 
	L 180.248, 344.587 
	L 189.602, 344.587 
	L 178.689, 348.661 
	L 178.689, 341.858 
	L 191.161, 341.858 
	L 191.161, 345.933 
	L 180.248, 345.933 
" />
<path d="M 180.248, 345.933 
	L 180.248, 347.315 
	L 191.161, 347.315 
	L 191.161, 348.661 
	L 178.689, 348.661 
" />
<path d="M 13.961, 191.409 
	L 13.961, 191.409 
	L 13.961, 193.075 
	L 13.961, 205.264 
	L 13.961, 206.929 
	L 12.295, 206.929 
	L 10.630, 206.929 
	L 10.630, 205.158 
	L 10.630, 193.075 
	L 10.630, 191.409 
	L 13.961, 191.409 
	L 21.969, 191.409 
" />
<path d="M 21.969, 191.409 
	L 22.535, 191.161 
	L 23.031, 191.161 
	L 23.492, 191.161 
	L 23.917, 191.409 
	L 24.413, 191.764 
	L 24.413, 192.472 
	L 24.413, 192.969 
	L 24.201, 193.642 
	L 19.240, 199.134 
	L 24.201, 204.697 
	L 24.378, 205.087 
" />
<path d="M 24.378, 205.087 
	L 24.378, 205.406 
	L 24.378, 206.114 
	L 23.634, 206.646 
	L 23.280, 206.929 
	L 22.783, 206.929 
	L 21.791, 206.929 
	L 20.303, 205.831 
	L 15.874, 200.835 
	L 14.244, 199.169 
	L 15.874, 197.504 
	L 21.969, 191.409 
" />
<path d="M 21.969, 191.409 
" />
<path d="M 31.855, 203.598 
	L 31.854, 203.598 
	L 36.071, 203.598 
	L 36.035, 197.185 
	L 26.362, 206.256 
	L 25.724, 206.787 
	L 25.157, 206.787 
	L 24.520, 206.787 
	L 23.988, 206.079 
	L 23.528, 205.512 
	L 23.528, 204.945 
	L 23.528, 204.236 
" />
<path d="M 23.528, 204.236 
	L 24.272, 203.634 
	L 36.283, 192.189 
	L 37.169, 191.303 
	L 37.878, 191.303 
	L 38.374, 191.303 
	L 38.551, 191.339 
	L 39.366, 191.622 
	L 39.366, 193.358 
	L 39.366, 204.591 
	L 39.366, 207.000 
	L 36.602, 206.929 
" />
<path d="M 36.602, 206.929 
	L 31.854, 206.929 
	L 29.941, 207.000 
	L 29.941, 205.282 
	L 29.941, 203.563 
	L 31.854, 203.598 
" />
<path d="M 54.674, 203.669 
	L 54.673, 203.669 
	L 54.673, 204.697 
	L 53.575, 205.813 
	L 52.476, 206.929 
	L 51.378, 206.929 
	L 43.618, 206.929 
	L 42.520, 206.929 
	L 41.404, 205.813 
	L 40.287, 204.697 
	L 40.287, 203.598 
	L 40.323, 194.811 
" />
<path d="M 40.323, 194.811 
	L 40.287, 193.642 
	L 41.404, 192.526 
	L 42.520, 191.409 
	L 43.618, 191.409 
	L 51.378, 191.409 
	L 52.476, 191.409 
	L 53.575, 192.526 
	L 54.673, 193.642 
	L 54.673, 194.740 
	L 54.673, 203.669 
	L 51.378, 201.933 
" />
<path d="M 51.378, 201.933 
	L 51.378, 196.406 
	L 51.378, 194.740 
	L 49.713, 194.740 
	L 45.283, 194.740 
	L 43.618, 194.740 
	L 43.618, 196.441 
	L 43.618, 201.933 
	L 43.583, 203.634 
	L 45.283, 203.598 
	L 49.713, 203.598 
	L 51.378, 203.598 
" />
<path d="M 51.378, 203.598 
	L 51.378, 201.933 
" />
<path d="M 66.509, 191.409 
	L 66.508, 191.409 
	L 68.173, 191.409 
	L 68.173, 193.004 
	L 68.173, 194.669 
	L 66.508, 194.740 
	L 55.417, 194.740 
	L 53.752, 194.669 
	L 53.752, 193.075 
	L 53.752, 191.374 
	L 55.417, 191.409 
	L 66.508, 191.409 
" />
<path d="M 66.508, 191.409 
	L 59.280, 198.071 
	L 59.244, 195.874 
	L 61.087, 195.856 
	L 62.929, 195.839 
	L 62.929, 198.071 
	L 62.929, 204.697 
	L 62.823, 206.929 
	L 61.122, 206.929 
	L 61.087, 206.929 
	L 59.244, 206.894 
	L 59.280, 204.697 
" />
<path d="M 59.280, 204.697 
	L 59.280, 198.071 
" />
<path d="M 70.725, 191.409 
	L 70.724, 191.409 
	L 80.681, 191.409 
	L 82.346, 191.409 
	L 82.346, 193.075 
	L 82.346, 194.740 
	L 80.681, 194.740 
	L 73.488, 194.740 
	L 72.390, 194.740 
	L 72.390, 195.839 
	L 72.390, 202.500 
	L 72.390, 203.598 
" />
<path d="M 72.390, 203.598 
	L 73.488, 203.598 
	L 80.681, 203.598 
	L 82.346, 203.598 
	L 82.346, 205.264 
	L 82.346, 206.929 
	L 80.681, 206.929 
	L 70.724, 206.929 
	L 69.059, 206.929 
	L 69.059, 205.264 
	L 69.059, 193.181 
	L 69.059, 191.409 
" />
<path d="M 69.059, 191.409 
	L 70.724, 191.409 
	L 75.720, 197.504 
	L 78.484, 197.504 
	L 80.681, 197.504 
	L 80.681, 199.169 
	L 80.681, 200.835 
	L 78.484, 200.835 
	L 75.720, 200.835 
	L 73.488, 200.835 
	L 73.488, 199.169 
	L 73.488, 197.504 
" />
<path d="M 73.488, 197.504 
	L 75.720, 197.504 
" />
<path d="M 95.564, 206.928 
	L 95.563, 206.929 
	L 87.343, 206.929 
	L 85.287, 206.929 
	L 83.799, 205.476 
	L 82.346, 204.059 
	L 82.346, 202.039 
	L 82.346, 196.158 
	L 82.346, 194.138 
	L 83.799, 192.685 
	L 85.110, 191.409 
	L 87.059, 191.409 
" />
<path d="M 87.059, 191.409 
	L 87.272, 191.409 
	L 87.520, 191.409 
	L 94.394, 191.409 
	L 96.130, 191.409 
	L 96.130, 193.146 
	L 96.130, 194.882 
	L 94.394, 194.882 
	L 88.016, 194.882 
	L 85.783, 194.882 
	L 85.783, 197.008 
	L 85.783, 201.579 
" />
<path d="M 85.783, 201.579 
	L 85.783, 203.492 
	L 88.157, 203.492 
	L 95.563, 203.492 
	L 97.299, 203.492 
	L 97.299, 205.193 
	L 97.264, 206.929 
	L 95.563, 206.929 
" />
<path d="M 107.257, 200.834 
	L 107.256, 200.835 
	L 100.630, 200.835 
	L 98.965, 200.835 
	L 98.965, 199.169 
	L 98.965, 197.504 
	L 100.630, 197.504 
	L 107.256, 197.504 
	L 108.921, 197.504 
	L 108.921, 199.169 
	L 108.921, 200.835 
" />
<path d="M 108.921, 200.835 
	L 107.256, 200.835 
" />
<path d="M 114.698, 203.598 
	L 114.697, 203.598 
	L 118.913, 203.598 
	L 118.878, 197.185 
	L 109.205, 206.256 
	L 108.567, 206.787 
	L 108.000, 206.787 
	L 107.362, 206.787 
	L 106.831, 206.079 
	L 106.370, 205.512 
	L 106.370, 204.945 
" />
<path d="M 106.370, 204.945 
	L 106.370, 204.236 
	L 107.114, 203.634 
	L 119.126, 192.189 
	L 120.012, 191.303 
	L 120.720, 191.303 
	L 121.217, 191.303 
	L 121.394, 191.339 
	L 122.209, 191.622 
	L 122.209, 193.358 
	L 122.209, 204.591 
" />
<path d="M 122.209, 204.591 
	L 122.209, 207.000 
	L 119.445, 206.929 
	L 114.697, 206.929 
	L 112.783, 207.000 
	L 112.783, 205.282 
	L 112.783, 203.563 
	L 114.697, 203.598 
" />
<path d="M 123.095, 191.409 
	L 123.095, 191.409 
	L 124.760, 191.409 
	L 126.425, 191.409 
	L 126.425, 193.642 
	L 126.425, 202.500 
	L 126.425, 203.598 
	L 127.524, 203.598 
	L 133.122, 203.598 
	L 135.390, 203.598 
	L 135.425, 205.228 
" />
<path d="M 135.425, 205.228 
	L 135.425, 206.858 
	L 133.122, 206.929 
	L 125.681, 206.929 
	L 123.095, 206.929 
	L 123.095, 204.201 
	L 123.095, 193.606 
	L 123.095, 191.409 
" />
<path d="M 149.493, 202.322 
	L 149.492, 202.323 
	L 149.492, 204.697 
	L 148.553, 205.813 
	L 147.614, 206.929 
	L 144.957, 206.894 
	L 137.161, 206.929 
	L 135.425, 206.929 
	L 135.425, 205.193 
	L 135.425, 198.071 
	L 135.461, 195.839 
" />
<path d="M 135.461, 195.839 
	L 137.108, 195.839 
	L 138.756, 195.839 
	L 138.720, 198.071 
	L 138.720, 203.705 
	L 144.283, 203.705 
	L 146.020, 203.705 
	L 146.020, 202.252 
	L 146.020, 200.799 
	L 144.248, 200.799 
	L 142.087, 200.835 
" />
<path d="M 142.087, 200.835 
	L 139.783, 200.835 
	L 139.819, 199.169 
	L 139.854, 197.504 
	L 142.087, 197.504 
	L 144.283, 197.504 
	L 146.020, 197.539 
	L 146.037, 196.140 
	L 146.055, 194.740 
	L 144.390, 194.740 
	L 137.091, 194.740 
" />
<path d="M 137.091, 194.740 
	L 135.425, 194.740 
	L 135.425, 193.146 
	L 135.425, 191.409 
	L 137.161, 191.409 
	L 144.850, 191.409 
	L 147.047, 191.409 
	L 148.163, 192.526 
	L 149.280, 193.642 
	L 149.386, 195.839 
	L 149.386, 198.177 
" />
<path d="M 149.386, 198.177 
	L 147.969, 199.028 
	L 149.492, 200.020 
	L 149.492, 202.323 
" />
<path d="M 149.528, 191.444 
	L 149.528, 191.445 
	L 151.158, 191.445 
	L 151.193, 191.445 
	L 152.858, 191.445 
	L 152.787, 193.677 
	L 152.787, 201.969 
	L 152.787, 203.598 
	L 154.453, 203.634 
	L 158.846, 203.598 
	L 160.583, 203.634 
" />
<path d="M 160.583, 203.634 
	L 160.583, 201.898 
	L 160.583, 193.642 
	L 160.618, 191.409 
	L 162.283, 191.409 
	L 163.913, 191.409 
	L 163.913, 193.535 
	L 163.913, 203.598 
	L 163.913, 204.661 
	L 163.063, 205.778 
	L 162.213, 206.894 
" />
<path d="M 162.213, 206.894 
	L 161.079, 206.894 
	L 152.256, 206.894 
	L 151.122, 206.894 
	L 150.325, 205.795 
	L 149.528, 204.697 
	L 149.528, 203.598 
	L 149.492, 193.642 
	L 149.528, 191.445 
" />
<path d="M 175.359, 192.153 
	L 175.358, 192.154 
	L 176.244, 191.409 
	L 176.988, 191.409 
	L 177.272, 191.409 
	L 177.520, 191.516 
	L 178.476, 191.870 
	L 178.476, 193.500 
	L 178.476, 205.016 
	L 178.441, 207.000 
	L 176.811, 207.000 
" />
<path d="M 176.811, 207.000 
	L 176.776, 207.000 
	L 175.146, 207.000 
	L 175.110, 204.980 
	L 175.110, 198.142 
	L 175.075, 197.150 
	L 174.508, 197.681 
	L 166.039, 206.185 
	L 165.154, 207.000 
	L 164.409, 207.000 
	L 163.878, 207.000 
" />
<path d="M 163.878, 207.000 
	L 163.382, 206.504 
	L 162.886, 206.043 
	L 162.886, 205.476 
	L 162.886, 204.697 
	L 163.736, 203.811 
	L 175.358, 192.154 
	L 188.717, 191.835 
	L 188.717, 193.500 
	L 188.717, 204.768 
	L 188.717, 207.000 
" />
<path d="M 188.717, 207.000 
	L 187.051, 207.000 
	L 185.386, 207.000 
	L 185.386, 204.768 
	L 185.386, 198.142 
	L 185.386, 197.433 
	L 184.748, 197.965 
	L 182.587, 200.161 
	L 180.957, 201.295 
	L 180.071, 200.091 
	L 179.185, 198.886 
" />
<path d="M 179.185, 198.886 
	L 180.461, 197.469 
	L 185.669, 192.189 
	L 186.413, 191.409 
	L 187.193, 191.409 
	L 187.441, 191.409 
	L 187.689, 191.480 
	L 188.717, 191.835 
" />
<path d="M 204.166, 203.669 
	L 204.165, 203.669 
	L 204.165, 204.697 
	L 203.067, 205.813 
	L 201.969, 206.929 
	L 200.870, 206.929 
	L 193.110, 206.929 
	L 192.012, 206.929 
	L 190.896, 205.813 
	L 189.780, 204.697 
	L 189.780, 203.598 
" />
<path d="M 189.780, 203.598 
	L 189.815, 194.811 
	L 189.780, 193.642 
	L 190.896, 192.526 
	L 192.012, 191.409 
	L 193.110, 191.409 
	L 200.870, 191.409 
	L 201.969, 191.409 
	L 203.067, 192.526 
	L 204.165, 193.642 
	L 204.165, 194.740 
" />
<path d="M 204.165, 194.740 
	L 204.165, 203.669 
	L 200.870, 201.933 
	L 200.870, 196.406 
	L 200.870, 194.740 
	L 199.205, 194.740 
	L 194.776, 194.740 
	L 193.110, 194.740 
	L 193.110, 196.441 
	L 193.110, 201.933 
	L 193.075, 203.634 
" />
<path d="M 193.075, 203.634 
	L 194.776, 203.598 
	L 199.205, 203.598 
	L 200.870, 203.598 
	L 200.870, 201.933 
" />
<path d="M 218.552, 203.669 
	L 218.551, 203.669 
	L 218.551, 204.697 
	L 217.453, 205.813 
	L 216.354, 206.929 
	L 215.256, 206.929 
	L 207.496, 206.929 
	L 206.398, 206.929 
	L 205.282, 205.813 
	L 204.165, 204.697 
	L 204.165, 203.598 
" />
<path d="M 204.165, 203.598 
	L 204.201, 194.811 
	L 204.165, 193.642 
	L 205.282, 192.526 
	L 206.398, 191.409 
	L 207.496, 191.409 
	L 215.256, 191.409 
	L 216.354, 191.409 
	L 217.453, 192.526 
	L 218.551, 193.642 
	L 218.551, 194.740 
" />
<path d="M 218.551, 194.740 
	L 218.551, 203.669 
	L 215.256, 201.933 
	L 215.256, 196.406 
	L 215.256, 194.740 
	L 213.591, 194.740 
	L 209.161, 194.740 
	L 207.496, 194.740 
	L 207.496, 196.441 
	L 207.496, 201.933 
	L 207.461, 203.634 
" />
<path d="M 207.461, 203.634 
	L 209.161, 203.598 
	L 213.591, 203.598 
	L 215.256, 203.598 
	L 215.256, 201.933 
" />
<path d="M 225.780, 204.696 
	L 225.780, 204.697 
	L 225.780, 206.929 
	L 224.150, 206.929 
	L 222.484, 206.929 
	L 222.413, 204.697 
	L 222.413, 193.642 
	L 222.484, 191.409 
	L 224.150, 191.409 
	L 225.780, 191.409 
	L 225.780, 193.642 
" />
<path d="M 225.780, 193.642 
	L 225.780, 204.697 
" />
<path d="M 644.882, 634.961 
	L 644.882, 638.150 
	L 644.173, 639.213 
	L 642.756, 639.213 
	L 642.047, 638.150 
	L 642.047, 636.024 
	L 644.882, 636.024 
" />
<path d="M 640.630, 631.772 
	L 640.630, 630.709 
	L 644.882, 630.709 
" />
<path d="M 644.882, 631.772 
	L 644.882, 629.646 
" />
<path d="M 644.882, 626.457 
	L 644.882, 623.268 
	L 644.173, 622.205 
	L 642.756, 622.205 
	L 642.047, 623.268 
	L 642.047, 625.394 
" />
<path d="M 640.630, 625.394 
	L 644.882, 625.394 
" />
<path d="M 642.047, 620.079 
	L 644.173, 620.079 
	L 644.882, 619.016 
	L 644.882, 616.890 
	L 642.047, 616.890 
" />
<path d="M 644.882, 613.701 
	L 642.047, 613.701 
" />
<path d="M 642.756, 613.701 
	L 642.047, 612.638 
	L 642.756, 611.575 
	L 644.882, 611.575 
" />
<path d="M 642.756, 611.575 
	L 642.047, 610.512 
	L 642.756, 609.449 
	L 644.882, 609.449 
" />
<path d="M 644.173, 607.323 
	L 644.882, 606.260 
	L 644.882, 604.134 
	L 644.173, 603.071 
	L 641.339, 603.071 
	L 640.630, 604.134 
	L 640.630, 606.260 
	L 641.339, 607.323 
	L 644.173, 607.323 
" />
<path d="M 644.173, 600.945 
	L 644.882, 599.882 
	L 644.882, 597.756 
	L 644.173, 596.693 
	L 641.339, 596.693 
	L 640.630, 597.756 
	L 640.630, 599.882 
	L 641.339, 600.945 
	L 644.173, 600.945 
" />
<path d="M 644.882, 593.504 
	L 644.882, 591.378 
" />
<path d="M 644.882, 592.441 
	L 640.630, 592.441 
	L 641.339, 593.504 
" />
<path d="M 644.173, 583.937 
	L 644.882, 585.000 
	L 644.882, 586.063 
	L 644.173, 587.126 
	L 642.756, 587.126 
	L 642.047, 586.063 
	L 642.047, 585.000 
	L 642.756, 583.937 
" />
<path d="M 644.882, 580.748 
	L 644.173, 581.811 
	L 642.756, 581.811 
	L 642.047, 580.748 
	L 642.047, 579.685 
	L 642.756, 578.622 
	L 644.173, 578.622 
	L 644.882, 579.685 
	L 644.882, 580.748 
" />
<path d="M 642.047, 575.433 
	L 643.465, 575.433 
	L 644.882, 573.307 
	L 643.465, 571.181 
	L 642.047, 571.181 
" />
<path d="M 643.465, 569.055 
	L 643.465, 565.866 
	L 642.756, 564.803 
	L 642.047, 565.866 
	L 642.047, 567.992 
	L 642.756, 569.055 
	L 644.173, 569.055 
	L 644.882, 567.992 
	L 644.882, 564.803 
" />
<path d="M 642.047, 562.677 
	L 644.882, 562.677 
" />
<path d="M 643.465, 562.677 
	L 642.047, 560.551 
	L 642.047, 559.488 
" />
<path d="M 640.630, 548.858 
	L 644.882, 548.858 
	L 644.882, 546.732 
" />
<path d="M 642.047, 549.921 
	L 642.047, 546.732 
" />
<path d="M 643.465, 543.543 
	L 643.465, 540.354 
	L 642.756, 539.291 
	L 642.047, 540.354 
	L 642.047, 542.480 
	L 642.756, 543.543 
	L 644.173, 543.543 
	L 644.882, 542.480 
	L 644.882, 539.291 
" />
<path d="M 642.047, 533.976 
	L 642.047, 536.102 
	L 642.756, 537.165 
	L 643.465, 536.102 
	L 643.465, 535.039 
	L 644.173, 533.976 
	L 644.882, 535.039 
	L 644.882, 537.165 
" />
<path d="M 640.630, 529.724 
	L 644.882, 529.724 
	L 644.882, 527.599 
" />
<path d="M 642.047, 530.787 
	L 642.047, 527.599 
" />
<path d="M 641.339, 498.898 
	L 640.630, 497.835 
	L 640.630, 495.709 
	L 641.339, 494.646 
	L 642.047, 494.646 
	L 644.173, 498.898 
	L 644.882, 498.898 
	L 644.882, 494.646 
" />
<path d="M 644.173, 492.520 
	L 644.882, 491.457 
	L 644.882, 489.331 
	L 644.173, 488.268 
	L 641.339, 488.268 
	L 640.630, 489.331 
	L 640.630, 491.457 
	L 641.339, 492.520 
	L 644.173, 492.520 
" />
<path d="M 644.882, 485.079 
	L 644.882, 482.953 
" />
<path d="M 644.882, 484.016 
	L 640.630, 484.016 
	L 641.339, 485.079 
" />
<path d="M 644.882, 478.701 
	L 644.882, 477.638 
	L 643.465, 475.512 
	L 641.339, 475.512 
	L 640.630, 476.575 
	L 640.630, 478.701 
	L 641.339, 479.764 
	L 642.047, 479.764 
	L 642.756, 478.701 
	L 642.756, 475.512 
" />
<path d="M 642.756, 473.386 
	L 642.756, 469.134 
" />
<path d="M 644.882, 465.945 
	L 644.882, 463.819 
" />
<path d="M 644.882, 464.882 
	L 640.630, 464.882 
	L 641.339, 465.945 
" />
<path d="M 644.882, 459.567 
	L 644.882, 457.441 
" />
<path d="M 644.882, 458.504 
	L 640.630, 458.504 
	L 641.339, 459.567 
" />
<path d="M 642.756, 454.252 
	L 642.756, 450.000 
" />
<path d="M 641.339, 447.874 
	L 640.630, 446.811 
	L 640.630, 444.685 
	L 641.339, 443.622 
	L 642.047, 443.622 
	L 644.173, 447.874 
	L 644.882, 447.874 
	L 644.882, 443.622 
" />
<path d="M 640.630, 437.244 
	L 640.630, 441.496 
	L 642.047, 441.496 
	L 642.047, 438.307 
	L 642.756, 437.244 
	L 644.173, 437.244 
	L 644.882, 438.307 
	L 644.882, 440.433 
	L 644.173, 441.496 
" />
<path d="M 644.882, 427.677 
	L 644.882, 425.551 
" />
<path d="M 644.882, 426.614 
	L 640.630, 426.614 
	L 641.339, 427.677 
" />
<path d="M 640.630, 419.173 
	L 642.756, 422.362 
	L 643.465, 422.362 
	L 643.465, 418.110 
" />
<path d="M 642.756, 419.173 
	L 644.882, 419.173 
" />
<path d="M 642.756, 414.921 
	L 642.047, 414.921 
	L 642.047, 413.858 
	L 642.756, 413.858 
	L 642.756, 414.921 
" />
<path d="M 644.173, 414.921 
	L 644.173, 413.858 
	L 644.882, 413.858 
	L 644.882, 414.921 
	L 644.173, 414.921 
" />
<path d="M 640.630, 406.417 
	L 642.756, 409.606 
	L 643.465, 409.606 
	L 643.465, 405.354 
" />
<path d="M 642.756, 406.417 
	L 644.882, 406.417 
" />
<path d="M 644.173, 403.228 
	L 644.882, 402.165 
	L 644.882, 400.039 
	L 644.173, 398.976 
	L 641.339, 398.976 
	L 640.630, 400.039 
	L 640.630, 402.165 
	L 641.339, 403.228 
	L 644.173, 403.228 
" />
</g>
</svg>
