<?xml version="1.0" encoding="UTF-8" standalone="no" ?>
<svg width="100%" height="100%" viewBox="0 0 644.882 646.299" xmlns="http://www.w3.org/2000/svg"><g>
</g><g style="stroke:rgb(0,0,0); fill:none; stroke-width:1.000mm" >
</g><g style="stroke:rgb(0,0,0); fill:none; stroke-width:0.100mm" >
<path d="M 0.001, 646.299 
	L 0.000, 646.299 
	L 0.000, 8.504 
	L 637.795, 8.504 
	L 637.795, 646.299 
	L 0.000, 646.299 
" />
<path d="M 0.001, 292.632 
	L 0.000, 292.633 
	L 141.732, 292.678 
	L 283.465, 293.769 
	L 425.197, 293.966 
	L 566.929, 295.198 
" />
<path d="M 0.001, 295.907 
	L 0.000, 295.907 
	L 70.866, 295.935 
	L 141.732, 296.585 
	L 212.598, 296.702 
	L 283.465, 297.437 
	L 354.331, 297.497 
	L 425.197, 297.191 
	L 496.063, 298.134 
	L 566.929, 299.410 
" />
<path d="M 0.001, 299.067 
	L 0.000, 299.068 
	L 47.197, 299.071 
	L 94.394, 299.150 
	L 141.591, 299.164 
	L 188.787, 299.254 
	L 235.984, 299.261 
	L 283.181, 299.224 
	L 330.378, 299.339 
	L 377.575, 299.494 
	L 424.772, 299.514 
" />
<path d="M 424.772, 299.514 
	L 471.969, 299.552 
	L 519.165, 299.441 
	L 566.362, 299.456 
	L 613.559, 299.398 
" />
<path d="M 0.001, 302.129 
	L 0.000, 302.130 
	L 35.433, 302.105 
	L 70.866, 301.510 
	L 106.299, 301.402 
	L 141.732, 300.729 
	L 177.165, 300.674 
	L 212.598, 300.954 
	L 248.032, 300.090 
	L 283.465, 298.921 
	L 318.898, 298.772 
" />
<path d="M 318.898, 298.772 
	L 354.331, 298.485 
	L 389.764, 299.320 
	L 425.197, 299.210 
	L 460.630, 299.644 
	L 496.063, 300.779 
	L 531.496, 302.404 
	L 566.929, 302.209 
	L 602.362, 301.042 
" />
<path d="M 0.001, 306.134 
	L 0.000, 306.135 
	L 28.346, 306.149 
	L 56.693, 306.484 
	L 85.039, 306.545 
	L 113.386, 306.924 
	L 141.732, 306.955 
	L 170.079, 306.797 
	L 198.425, 307.284 
	L 226.772, 307.943 
	L 255.118, 308.026 
" />
<path d="M 255.118, 308.026 
	L 283.465, 308.188 
	L 311.811, 307.718 
	L 340.158, 307.779 
	L 368.504, 307.536 
	L 396.850, 306.896 
	L 425.197, 305.980 
	L 453.543, 306.090 
	L 481.890, 306.748 
	L 510.236, 307.396 
	L 538.583, 307.417 
" />
<path d="M 538.583, 307.417 
	L 566.929, 306.771 
	L 595.276, 306.062 
	L 623.622, 306.500 
" />
<path d="M 0.001, 309.711 
	L 0.000, 309.711 
	L 23.598, 309.738 
	L 47.197, 310.358 
	L 70.795, 310.470 
	L 94.394, 311.170 
	L 117.992, 311.228 
	L 141.591, 310.937 
	L 165.189, 311.835 
	L 188.787, 313.053 
	L 212.386, 313.207 
	L 235.984, 313.505 
" />
<path d="M 235.984, 313.505 
	L 259.583, 312.637 
	L 283.181, 312.751 
	L 306.780, 312.300 
	L 330.378, 311.117 
	L 353.976, 309.426 
	L 377.575, 309.629 
	L 401.173, 310.844 
	L 424.772, 312.042 
	L 448.370, 312.082 
	L 471.969, 310.888 
" />
<path d="M 471.969, 310.888 
	L 495.567, 309.577 
	L 519.165, 310.386 
	L 542.764, 311.016 
	L 566.362, 310.371 
	L 589.961, 310.881 
	L 613.559, 309.579 
	L 637.158, 309.334 
" />
<path d="M 0.001, 312.805 
	L 0.000, 312.805 
	L 20.197, 312.812 
	L 40.394, 312.979 
	L 60.591, 313.009 
	L 80.787, 313.197 
	L 100.984, 313.213 
	L 121.181, 313.134 
	L 141.378, 313.376 
	L 161.575, 313.703 
	L 181.772, 313.744 
	L 201.969, 313.825 
" />
<path d="M 201.969, 313.825 
	L 222.165, 313.591 
	L 242.362, 313.622 
	L 262.559, 313.501 
	L 282.756, 313.183 
	L 302.953, 312.729 
	L 323.150, 312.783 
	L 343.347, 313.109 
	L 363.543, 313.432 
	L 383.740, 313.442 
	L 403.937, 313.121 
" />
<path d="M 403.937, 313.121 
	L 424.134, 312.769 
	L 444.331, 312.987 
	L 464.528, 313.156 
	L 484.724, 312.982 
	L 504.921, 313.120 
	L 525.118, 312.770 
	L 545.315, 312.704 
	L 565.512, 312.669 
	L 585.709, 312.335 
	L 605.906, 312.243 
" />
<path d="M 605.906, 312.243 
	L 626.102, 312.390 
" />
<path d="M 0.001, 316.531 
	L 0.000, 316.532 
	L 17.717, 316.566 
	L 35.433, 317.374 
	L 53.150, 317.521 
	L 70.866, 318.434 
	L 88.583, 318.509 
	L 106.299, 318.129 
	L 124.016, 319.302 
	L 141.732, 320.889 
	L 159.449, 321.090 
	L 177.165, 321.479 
" />
<path d="M 177.165, 321.479 
	L 194.882, 320.346 
	L 212.598, 320.496 
	L 230.315, 319.907 
	L 248.032, 318.365 
	L 265.748, 316.159 
	L 283.465, 316.424 
	L 301.181, 318.008 
	L 318.898, 319.571 
	L 336.614, 319.623 
	L 354.331, 318.066 
" />
<path d="M 354.331, 318.066 
	L 372.047, 316.356 
	L 389.764, 317.412 
	L 407.480, 318.233 
	L 425.197, 317.391 
	L 442.913, 318.057 
	L 460.630, 316.359 
	L 478.347, 316.040 
	L 496.063, 315.872 
	L 513.780, 314.248 
	L 531.496, 313.801 
" />
<path d="M 531.496, 313.801 
	L 549.213, 314.516 
	L 566.929, 314.851 
	L 584.646, 315.218 
	L 602.362, 314.930 
	L 620.079, 313.509 
" />
<path d="M 0.001, 319.704 
	L 0.000, 319.705 
	L 15.732, 319.730 
	L 31.465, 320.325 
	L 47.197, 320.433 
	L 62.929, 321.106 
	L 78.661, 321.161 
	L 94.394, 320.881 
	L 110.126, 321.745 
	L 125.858, 322.914 
	L 141.591, 323.062 
	L 157.323, 323.349 
" />
<path d="M 157.323, 323.349 
	L 173.055, 322.515 
	L 188.787, 322.625 
	L 204.520, 322.191 
	L 220.252, 321.056 
	L 235.984, 319.431 
	L 251.717, 319.625 
	L 267.449, 320.793 
	L 283.181, 321.944 
	L 298.913, 321.981 
	L 314.646, 320.834 
" />
<path d="M 314.646, 320.834 
	L 330.378, 319.576 
	L 346.110, 320.353 
	L 361.843, 320.958 
	L 377.575, 320.338 
	L 393.307, 320.829 
	L 409.039, 319.578 
	L 424.772, 319.343 
	L 440.504, 319.219 
	L 456.236, 318.022 
	L 471.969, 317.694 
" />
<path d="M 471.969, 317.694 
	L 487.701, 318.220 
	L 503.433, 318.467 
	L 519.165, 318.737 
	L 534.898, 318.525 
	L 550.630, 317.478 
	L 566.362, 318.048 
	L 582.095, 318.638 
	L 597.827, 319.564 
	L 613.559, 320.360 
" />
<path d="M 0.001, 322.611 
	L 0.000, 322.612 
	L 14.173, 322.612 
	L 28.346, 322.612 
	L 42.520, 322.612 
	L 56.693, 322.612 
	L 70.866, 322.612 
	L 85.039, 322.612 
	L 99.213, 322.612 
	L 113.386, 322.612 
	L 127.559, 322.612 
	L 141.732, 322.612 
" />
<path d="M 141.732, 322.612 
	L 155.906, 322.612 
	L 170.079, 322.612 
	L 184.252, 322.612 
	L 198.425, 322.612 
	L 212.598, 322.612 
	L 226.772, 322.612 
	L 240.945, 322.612 
	L 255.118, 322.612 
	L 269.291, 322.612 
	L 283.465, 322.612 
" />
<path d="M 283.465, 322.612 
	L 297.638, 322.612 
	L 311.811, 322.612 
	L 325.984, 322.612 
	L 340.158, 322.612 
	L 354.331, 322.612 
	L 368.504, 322.612 
	L 382.677, 322.612 
	L 396.850, 322.612 
	L 411.024, 322.612 
	L 425.197, 322.612 
" />
<path d="M 425.197, 322.612 
	L 439.370, 322.612 
	L 453.543, 322.612 
	L 467.717, 322.612 
	L 481.890, 322.612 
	L 496.063, 322.612 
	L 510.236, 322.612 
	L 524.410, 322.612 
	L 538.583, 322.612 
	L 552.756, 322.612 
" />
<path d="M 0.001, 325.519 
	L 0.000, 325.520 
	L 12.827, 325.497 
	L 25.654, 324.957 
	L 38.480, 324.858 
	L 51.307, 324.248 
	L 64.134, 324.198 
	L 76.961, 324.452 
	L 89.787, 323.668 
	L 102.614, 322.607 
	L 115.441, 322.472 
	L 128.268, 322.211 
" />
<path d="M 128.268, 322.211 
	L 141.095, 322.969 
	L 153.921, 322.870 
	L 166.748, 323.263 
	L 179.575, 324.294 
	L 192.402, 325.769 
	L 205.228, 325.592 
	L 218.055, 324.533 
	L 230.882, 323.488 
	L 243.709, 323.454 
	L 256.535, 324.495 
" />
<path d="M 256.535, 324.495 
	L 269.362, 325.637 
	L 282.189, 324.932 
	L 295.016, 324.382 
	L 307.843, 324.945 
	L 320.669, 324.500 
	L 333.496, 325.636 
	L 346.323, 325.849 
	L 359.150, 325.961 
	L 371.976, 327.047 
	L 384.803, 327.346 
" />
<path d="M 384.803, 327.346 
	L 397.630, 326.868 
	L 410.457, 326.643 
	L 423.284, 326.398 
	L 436.110, 326.592 
	L 448.937, 327.541 
	L 461.764, 327.024 
	L 474.591, 326.488 
	L 487.417, 325.648 
	L 500.244, 324.925 
" />
<path d="M 0.001, 328.887 
	L 0.000, 328.888 
	L 11.764, 328.876 
	L 23.528, 328.605 
	L 35.291, 328.555 
	L 47.055, 328.248 
	L 58.819, 328.223 
	L 70.583, 328.351 
	L 82.346, 327.957 
	L 94.110, 327.423 
	L 105.874, 327.356 
	L 117.638, 327.224 
" />
<path d="M 117.638, 327.224 
	L 129.402, 327.605 
	L 141.165, 327.555 
	L 152.929, 327.753 
	L 164.693, 328.271 
	L 176.457, 329.013 
	L 188.221, 328.924 
	L 199.984, 328.392 
	L 211.748, 327.866 
	L 223.512, 327.849 
	L 235.276, 328.373 
" />
<path d="M 235.276, 328.373 
	L 247.039, 328.947 
	L 258.803, 328.592 
	L 270.567, 328.316 
	L 282.331, 328.599 
	L 294.095, 328.375 
	L 305.858, 328.946 
	L 317.622, 329.054 
	L 329.386, 329.110 
	L 341.150, 329.656 
	L 352.913, 329.806 
" />
<path d="M 352.913, 329.806 
	L 364.677, 329.566 
	L 376.441, 329.453 
	L 388.205, 329.330 
	L 399.969, 329.427 
	L 411.732, 329.905 
	L 423.496, 329.645 
	L 435.260, 329.375 
	L 447.024, 328.952 
	L 458.787, 328.589 
" />
<path d="M 0.001, 332.595 
	L 0.000, 332.596 
	L 10.843, 332.622 
	L 21.685, 333.230 
	L 32.528, 333.340 
	L 43.370, 334.027 
	L 54.213, 334.083 
	L 65.055, 333.797 
	L 75.898, 334.680 
	L 86.740, 335.873 
	L 97.583, 336.025 
	L 108.425, 336.317 
" />
<path d="M 108.425, 336.317 
	L 119.268, 335.465 
	L 130.110, 335.577 
	L 140.953, 335.135 
	L 151.795, 333.975 
	L 162.638, 332.316 
	L 173.480, 332.515 
	L 184.323, 333.707 
	L 195.165, 334.882 
	L 206.008, 334.921 
	L 216.850, 333.750 
" />
<path d="M 216.850, 333.750 
	L 227.693, 332.464 
	L 238.535, 333.258 
	L 249.378, 333.876 
	L 260.221, 333.242 
	L 271.063, 333.743 
	L 281.906, 332.466 
	L 292.748, 332.226 
	L 303.591, 332.100 
	L 314.433, 330.878 
	L 325.276, 330.542 
" />
<path d="M 325.276, 330.542 
	L 336.118, 331.080 
	L 346.961, 331.332 
	L 357.803, 331.608 
	L 368.646, 331.391 
	L 379.488, 330.322 
	L 390.331, 330.904 
	L 401.173, 331.507 
	L 412.016, 332.452 
	L 422.858, 333.266 
" />
<path d="M 0.001, 336.297 
	L 0.000, 336.297 
	L 10.063, 336.361 
	L 20.126, 337.890 
	L 30.189, 338.168 
	L 40.252, 339.893 
	L 50.315, 340.035 
	L 60.378, 339.316 
	L 70.441, 341.534 
	L 80.504, 344.536 
	L 90.567, 344.915 
	L 100.630, 345.652 
" />
<path d="M 100.630, 345.652 
	L 110.693, 343.510 
	L 120.756, 343.792 
	L 130.819, 342.679 
	L 140.882, 339.764 
	L 150.945, 335.593 
	L 161.008, 336.093 
	L 171.071, 339.089 
	L 181.134, 342.043 
	L 191.197, 342.140 
	L 201.260, 339.197 
" />
<path d="M 201.260, 339.197 
	L 211.323, 335.965 
	L 221.386, 337.961 
	L 231.449, 339.514 
	L 241.512, 337.922 
	L 251.575, 339.182 
	L 261.638, 335.970 
	L 271.701, 335.366 
	L 281.764, 335.049 
	L 291.827, 331.978 
	L 301.890, 331.133 
" />
<path d="M 301.890, 331.133 
	L 311.953, 332.486 
	L 322.016, 333.119 
	L 332.079, 333.813 
	L 342.142, 333.267 
	L 352.205, 330.581 
	L 362.268, 332.043 
	L 372.331, 333.560 
	L 382.394, 335.935 
	L 392.457, 337.980 
" />
<path d="M 0.001, 339.567 
	L 0.000, 339.567 
	L 9.425, 339.642 
	L 18.850, 341.436 
	L 28.276, 341.761 
	L 37.701, 343.787 
	L 47.126, 343.952 
	L 56.551, 343.110 
	L 65.976, 345.711 
	L 75.402, 349.232 
	L 84.827, 349.678 
	L 94.252, 350.542 
" />
<path d="M 94.252, 350.542 
	L 103.677, 348.029 
	L 113.102, 348.360 
	L 122.528, 347.054 
	L 131.953, 343.634 
	L 141.378, 338.742 
	L 150.803, 339.328 
	L 160.228, 342.842 
	L 169.654, 346.308 
	L 179.079, 346.423 
	L 188.504, 342.969 
" />
<path d="M 188.504, 342.969 
	L 197.929, 339.178 
	L 207.354, 341.519 
	L 216.780, 343.341 
	L 226.205, 341.474 
	L 235.630, 342.952 
	L 245.055, 339.185 
	L 254.480, 338.476 
	L 263.906, 338.104 
	L 273.331, 334.501 
	L 282.756, 333.510 
" />
<path d="M 282.756, 333.510 
	L 292.181, 335.096 
	L 301.606, 335.840 
	L 311.032, 336.653 
	L 320.457, 336.013 
	L 329.882, 332.862 
	L 339.307, 334.578 
	L 348.732, 336.356 
	L 358.158, 339.142 
	L 367.583, 341.542 
" />
<path d="M 0.001, 342.717 
	L 0.000, 342.717 
	L 8.858, 342.797 
	L 17.717, 344.708 
	L 26.575, 345.055 
	L 35.433, 347.212 
	L 44.291, 347.389 
	L 53.150, 346.492 
	L 62.008, 349.263 
	L 70.866, 353.015 
	L 79.724, 353.490 
	L 88.583, 354.411 
" />
<path d="M 88.583, 354.411 
	L 97.441, 351.733 
	L 106.299, 352.085 
	L 115.157, 350.694 
	L 124.016, 347.050 
	L 132.874, 341.838 
	L 141.732, 342.463 
	L 150.591, 346.207 
	L 159.449, 349.900 
	L 168.307, 350.021 
	L 177.165, 346.341 
" />
<path d="M 177.165, 346.341 
	L 186.024, 342.302 
	L 194.882, 344.796 
	L 203.740, 346.738 
	L 212.598, 344.748 
	L 221.457, 346.323 
	L 230.315, 342.309 
	L 239.173, 341.554 
	L 248.032, 341.158 
	L 256.890, 337.319 
	L 265.748, 336.263 
" />
<path d="M 265.748, 336.263 
	L 274.606, 337.953 
	L 283.465, 338.745 
	L 292.323, 339.612 
	L 301.181, 338.930 
	L 310.039, 335.572 
	L 318.898, 337.400 
	L 327.756, 339.296 
	L 336.614, 342.264 
	L 345.472, 344.821 
" />
<path d="M 0.001, 345.793 
	L 0.000, 345.794 
	L 8.291, 345.876 
	L 16.583, 347.834 
	L 24.874, 348.189 
	L 33.165, 350.401 
	L 41.457, 350.583 
	L 49.748, 349.662 
	L 58.039, 352.503 
	L 66.331, 356.348 
	L 74.622, 356.835 
	L 82.913, 357.780 
" />
<path d="M 82.913, 357.780 
	L 91.205, 355.034 
	L 99.496, 355.396 
	L 107.787, 353.970 
	L 116.079, 350.235 
	L 124.370, 344.892 
	L 132.661, 345.533 
	L 140.953, 349.370 
	L 149.244, 353.156 
	L 157.535, 353.281 
	L 165.827, 349.509 
" />
<path d="M 165.827, 349.509 
	L 174.118, 345.368 
	L 182.409, 347.924 
	L 190.701, 349.915 
	L 198.992, 347.876 
	L 207.283, 349.489 
	L 215.575, 345.375 
	L 223.866, 344.602 
	L 232.158, 344.195 
	L 240.449, 340.261 
	L 248.740, 339.179 
" />
<path d="M 248.740, 339.179 
	L 257.032, 340.910 
	L 265.323, 341.722 
	L 273.614, 342.611 
	L 281.906, 341.912 
	L 290.197, 338.471 
	L 298.488, 340.344 
	L 306.780, 342.287 
	L 315.071, 345.329 
	L 323.362, 347.950 
" />
<path d="M 0.001, 348.104 
	L 0.000, 348.105 
	L 7.866, 348.139 
	L 15.732, 348.939 
	L 23.598, 349.084 
	L 31.465, 349.987 
	L 39.331, 350.061 
	L 47.197, 349.686 
	L 55.063, 350.846 
	L 62.929, 352.416 
	L 70.795, 352.615 
	L 78.661, 353.001 
" />
<path d="M 78.661, 353.001 
	L 86.528, 351.880 
	L 94.394, 352.027 
	L 102.260, 351.445 
	L 110.126, 349.919 
	L 117.992, 347.737 
	L 125.858, 347.999 
	L 133.724, 349.566 
	L 141.591, 351.112 
	L 149.457, 351.163 
	L 157.323, 349.623 
" />
<path d="M 157.323, 349.623 
	L 165.189, 347.932 
	L 173.055, 348.976 
	L 180.921, 349.789 
	L 188.787, 348.956 
	L 196.654, 349.615 
	L 204.520, 347.934 
	L 212.386, 347.618 
	L 220.252, 347.452 
	L 228.118, 345.846 
	L 235.984, 345.404 
" />
<path d="M 235.984, 345.404 
	L 243.850, 346.111 
	L 251.717, 346.443 
	L 259.583, 346.805 
	L 267.449, 346.520 
	L 275.315, 345.115 
	L 283.181, 345.880 
	L 291.047, 346.673 
	L 298.913, 347.916 
	L 306.780, 348.986 
" />
<path d="M 0.001, 351.414 
	L 0.000, 351.415 
	L 7.441, 351.470 
	L 14.882, 352.799 
	L 22.323, 353.040 
	L 29.764, 354.541 
	L 37.205, 354.664 
	L 44.646, 354.040 
	L 52.087, 355.967 
	L 59.528, 358.576 
	L 66.969, 358.907 
	L 74.409, 359.547 
" />
<path d="M 74.409, 359.547 
	L 81.850, 357.685 
	L 89.291, 357.930 
	L 96.732, 356.962 
	L 104.173, 354.428 
	L 111.614, 350.802 
	L 119.055, 351.237 
	L 126.496, 353.841 
	L 133.937, 356.410 
	L 141.378, 356.494 
	L 148.819, 353.935 
" />
<path d="M 148.819, 353.935 
	L 156.260, 351.125 
	L 163.701, 352.860 
	L 171.142, 354.211 
	L 178.583, 352.827 
	L 186.024, 353.922 
	L 193.465, 351.130 
	L 200.906, 350.605 
	L 208.346, 350.330 
	L 215.787, 347.660 
	L 223.228, 346.926 
" />
<path d="M 223.228, 346.926 
	L 230.669, 348.101 
	L 238.110, 348.652 
	L 245.551, 349.255 
	L 252.992, 348.781 
	L 260.433, 346.445 
	L 267.874, 347.717 
	L 275.315, 349.035 
	L 282.756, 351.099 
	L 290.197, 352.877 
" />
<path d="M 0.001, 353.889 
	L 0.000, 353.889 
	L 7.087, 353.912 
	L 14.173, 354.450 
	L 21.260, 354.547 
	L 28.346, 355.154 
	L 35.433, 355.204 
	L 42.520, 354.952 
	L 49.606, 355.731 
	L 56.693, 356.786 
	L 63.780, 356.920 
	L 70.866, 357.180 
" />
<path d="M 70.866, 357.180 
	L 77.953, 356.426 
	L 85.039, 356.525 
	L 92.126, 356.134 
	L 99.213, 355.109 
	L 106.299, 353.642 
	L 113.386, 353.818 
	L 120.472, 354.871 
	L 127.559, 355.910 
	L 134.646, 355.944 
	L 141.732, 354.909 
" />
<path d="M 141.732, 354.909 
	L 148.819, 353.773 
	L 155.906, 354.475 
	L 162.992, 355.021 
	L 170.079, 354.461 
	L 177.165, 354.904 
	L 184.252, 353.774 
	L 191.339, 353.563 
	L 198.425, 353.451 
	L 205.512, 352.371 
	L 212.598, 352.074 
" />
<path d="M 212.598, 352.074 
	L 219.685, 352.549 
	L 226.772, 352.772 
	L 233.858, 353.016 
	L 240.945, 352.824 
	L 248.032, 351.880 
	L 255.118, 352.394 
	L 262.205, 352.927 
	L 269.291, 353.762 
	L 276.378, 354.481 
" />
<path d="M 0.001, 356.900 
	L 0.000, 356.901 
	L 6.732, 356.929 
	L 13.465, 357.606 
	L 20.197, 357.729 
	L 26.929, 358.493 
	L 33.661, 358.555 
	L 40.394, 358.238 
	L 47.126, 359.218 
	L 53.858, 360.546 
	L 60.591, 360.714 
	L 67.323, 361.041 
" />
<path d="M 67.323, 361.041 
	L 74.055, 360.093 
	L 80.787, 360.218 
	L 87.520, 359.725 
	L 94.252, 358.435 
	L 100.984, 356.590 
	L 107.717, 356.811 
	L 114.449, 358.136 
	L 121.181, 359.444 
	L 127.913, 359.487 
	L 134.646, 358.184 
" />
<path d="M 134.646, 358.184 
	L 141.378, 356.754 
	L 148.110, 357.637 
	L 154.843, 358.325 
	L 161.575, 357.620 
	L 168.307, 358.178 
	L 175.039, 356.757 
	L 181.772, 356.490 
	L 188.504, 356.350 
	L 195.236, 354.991 
	L 201.969, 354.617 
" />
<path d="M 201.969, 354.617 
	L 208.701, 355.215 
	L 215.433, 355.495 
	L 222.165, 355.802 
	L 228.898, 355.561 
	L 235.630, 354.373 
	L 242.362, 355.020 
	L 249.095, 355.690 
	L 255.827, 356.741 
	L 262.559, 357.646 
" />
<path d="M 0.001, 359.771 
	L 0.000, 359.772 
	L 6.378, 359.798 
	L 12.756, 360.429 
	L 19.134, 360.544 
	L 25.512, 361.256 
	L 31.890, 361.314 
	L 38.268, 361.018 
	L 44.646, 361.933 
	L 51.024, 363.171 
	L 57.402, 363.328 
	L 63.780, 363.632 
" />
<path d="M 63.780, 363.632 
	L 70.157, 362.748 
	L 76.535, 362.864 
	L 82.913, 362.405 
	L 89.291, 361.202 
	L 95.669, 359.481 
	L 102.047, 359.688 
	L 108.425, 360.923 
	L 114.803, 362.142 
	L 121.181, 362.183 
	L 127.559, 360.968 
" />
<path d="M 127.559, 360.968 
	L 133.937, 359.634 
	L 140.315, 360.458 
	L 146.693, 361.099 
	L 153.071, 360.442 
	L 159.449, 360.962 
	L 165.827, 359.637 
	L 172.205, 359.388 
	L 178.583, 359.257 
	L 184.961, 357.990 
	L 191.339, 357.642 
" />
<path d="M 191.339, 357.642 
	L 197.717, 358.199 
	L 204.095, 358.461 
	L 210.472, 358.746 
	L 216.850, 358.522 
	L 223.228, 357.413 
	L 229.606, 358.016 
	L 235.984, 358.642 
	L 242.362, 359.622 
	L 248.740, 360.466 
" />
<path d="M 0.001, 362.760 
	L 0.000, 362.761 
	L 6.094, 362.796 
	L 12.189, 363.624 
	L 18.283, 363.774 
	L 24.378, 364.710 
	L 30.472, 364.786 
	L 36.567, 364.397 
	L 42.661, 365.598 
	L 48.756, 367.225 
	L 54.850, 367.430 
	L 60.945, 367.830 
" />
<path d="M 60.945, 367.830 
	L 67.039, 366.669 
	L 73.134, 366.822 
	L 79.228, 366.219 
	L 85.323, 364.640 
	L 91.417, 362.380 
	L 97.512, 362.650 
	L 103.606, 364.273 
	L 109.701, 365.875 
	L 115.795, 365.927 
	L 121.890, 364.332 
" />
<path d="M 121.890, 364.332 
	L 127.984, 362.581 
	L 134.079, 363.662 
	L 140.173, 364.504 
	L 146.268, 363.642 
	L 152.362, 364.324 
	L 158.457, 362.584 
	L 164.551, 362.257 
	L 170.646, 362.085 
	L 176.740, 360.421 
	L 182.835, 359.963 
" />
<path d="M 182.835, 359.963 
	L 188.929, 360.696 
	L 195.024, 361.040 
	L 201.118, 361.415 
	L 207.213, 361.120 
	L 213.307, 359.664 
	L 219.402, 360.456 
	L 225.496, 361.278 
	L 231.591, 362.565 
	L 237.685, 363.673 
" />
<path d="M 0.001, 365.586 
	L 0.000, 365.587 
	L 5.882, 365.621 
	L 11.764, 366.425 
	L 17.646, 366.571 
	L 23.528, 367.480 
	L 29.409, 367.554 
	L 35.291, 367.177 
	L 41.173, 368.343 
	L 47.055, 369.923 
	L 52.937, 370.123 
	L 58.819, 370.511 
" />
<path d="M 58.819, 370.511 
	L 64.701, 369.383 
	L 70.583, 369.532 
	L 76.465, 368.946 
	L 82.346, 367.412 
	L 88.228, 365.217 
	L 94.110, 365.480 
	L 99.992, 367.056 
	L 105.874, 368.612 
	L 111.756, 368.663 
	L 117.638, 367.114 
	L 123.520, 365.412 
" />
<path d="M 123.520, 365.412 
	L 129.402, 366.462 
	L 135.283, 367.280 
	L 141.165, 366.443 
	L 147.047, 367.105 
	L 152.929, 365.415 
	L 158.811, 365.097 
	L 164.693, 364.930 
	L 170.575, 363.314 
	L 176.457, 362.869 
	L 182.339, 363.581 
" />
<path d="M 182.339, 363.581 
	L 188.221, 363.915 
	L 194.102, 364.280 
	L 199.984, 363.993 
	L 205.866, 362.579 
	L 211.748, 363.348 
	L 217.630, 364.146 
	L 223.512, 365.397 
	L 229.394, 366.473 
" />
<path d="M 0.001, 367.909 
	L 0.000, 367.909 
	L 5.669, 367.909 
	L 11.339, 367.909 
	L 17.008, 367.909 
	L 22.677, 367.909 
	L 28.346, 367.909 
	L 34.016, 367.909 
	L 39.685, 367.909 
	L 45.354, 367.909 
	L 51.024, 367.909 
	L 56.693, 367.909 
" />
<path d="M 56.693, 367.909 
	L 62.362, 367.909 
	L 68.032, 367.909 
	L 73.701, 367.909 
	L 79.370, 367.909 
	L 85.039, 367.909 
	L 90.709, 367.909 
	L 96.378, 367.909 
	L 102.047, 367.909 
	L 107.717, 367.909 
	L 113.386, 367.909 
	L 119.055, 367.909 
" />
<path d="M 119.055, 367.909 
	L 124.724, 367.909 
	L 130.394, 367.909 
	L 136.063, 367.909 
	L 141.732, 367.909 
	L 147.402, 367.909 
	L 153.071, 367.909 
	L 158.740, 367.909 
	L 164.409, 367.909 
	L 170.079, 367.909 
	L 175.748, 367.909 
" />
<path d="M 175.748, 367.909 
	L 181.417, 367.909 
	L 187.087, 367.909 
	L 192.756, 367.909 
	L 198.425, 367.909 
	L 204.095, 367.909 
	L 209.764, 367.909 
	L 215.433, 367.909 
	L 221.102, 367.909 
" />
<path d="M 0.001, 370.144 
	L 0.000, 370.145 
	L 5.386, 370.107 
	L 10.772, 369.205 
	L 16.157, 369.041 
	L 21.543, 368.023 
	L 26.929, 367.940 
	L 32.315, 368.363 
	L 37.701, 367.055 
	L 43.087, 365.285 
	L 48.472, 365.061 
	L 53.858, 364.626 
" />
<path d="M 53.858, 364.626 
	L 59.244, 365.890 
	L 64.630, 365.724 
	L 70.016, 366.380 
	L 75.402, 368.099 
	L 80.787, 370.560 
	L 86.173, 370.264 
	L 91.559, 368.498 
	L 96.945, 366.755 
	L 102.331, 366.698 
	L 107.717, 368.434 
	L 113.102, 370.340 
" />
<path d="M 113.102, 370.340 
	L 118.488, 369.163 
	L 123.874, 368.247 
	L 129.260, 369.186 
	L 134.646, 368.443 
	L 140.032, 370.337 
	L 145.417, 370.693 
	L 150.803, 370.880 
	L 156.189, 372.691 
	L 161.575, 373.190 
	L 166.961, 372.392 
" />
<path d="M 166.961, 372.392 
	L 172.346, 372.019 
	L 177.732, 371.610 
	L 183.118, 371.932 
	L 188.504, 373.516 
	L 193.890, 372.653 
	L 199.276, 371.759 
	L 204.661, 370.358 
	L 210.047, 369.152 
" />
<path d="M 0.001, 372.514 
	L 0.000, 372.514 
	L 5.244, 372.450 
	L 10.488, 370.913 
	L 15.732, 370.634 
	L 20.976, 368.899 
	L 26.220, 368.757 
	L 31.465, 369.478 
	L 36.709, 367.250 
	L 41.953, 364.233 
	L 47.197, 363.851 
	L 52.441, 363.110 
" />
<path d="M 52.441, 363.110 
	L 57.685, 365.263 
	L 62.929, 364.981 
	L 68.173, 366.099 
	L 73.417, 369.029 
	L 78.661, 373.222 
	L 83.906, 372.718 
	L 89.150, 369.708 
	L 94.394, 366.738 
	L 99.638, 366.640 
	L 104.882, 369.599 
	L 110.126, 372.848 
" />
<path d="M 110.126, 372.848 
	L 115.370, 370.842 
	L 120.614, 369.281 
	L 125.858, 370.880 
	L 131.102, 369.614 
	L 136.346, 372.842 
	L 141.591, 373.449 
	L 146.835, 373.768 
	L 152.079, 376.855 
	L 157.323, 377.705 
	L 162.567, 376.345 
" />
<path d="M 162.567, 376.345 
	L 167.811, 375.708 
	L 173.055, 375.012 
	L 178.299, 375.559 
	L 183.543, 378.259 
	L 188.787, 376.790 
	L 194.032, 375.265 
	L 199.276, 372.879 
	L 204.520, 370.822 
" />
<path d="M 0.001, 375.207 
	L 0.000, 375.208 
	L 5.031, 375.141 
	L 10.063, 373.548 
	L 15.094, 373.258 
	L 20.126, 371.459 
	L 25.157, 371.312 
	L 30.189, 372.061 
	L 35.220, 369.750 
	L 40.252, 366.621 
	L 45.283, 366.225 
	L 50.315, 365.457 
" />
<path d="M 50.315, 365.457 
	L 55.346, 367.690 
	L 60.378, 367.396 
	L 65.409, 368.556 
	L 70.441, 371.594 
	L 75.472, 375.941 
	L 80.504, 375.421 
	L 85.535, 372.298 
	L 90.567, 369.219 
	L 95.598, 369.117 
	L 100.630, 372.186 
	L 105.661, 375.554 
" />
<path d="M 105.661, 375.554 
	L 110.693, 373.475 
	L 115.724, 371.855 
	L 120.756, 373.514 
	L 125.787, 372.201 
	L 130.819, 375.549 
	L 135.850, 376.178 
	L 140.882, 376.508 
	L 145.913, 379.709 
	L 150.945, 380.590 
	L 155.976, 379.181 
" />
<path d="M 155.976, 379.181 
	L 161.008, 378.520 
	L 166.039, 377.797 
	L 171.071, 378.366 
	L 176.102, 381.166 
	L 181.134, 379.641 
	L 186.165, 378.061 
	L 191.197, 375.586 
	L 196.228, 373.454 
" />
<path d="M 0.001, 377.742 
	L 0.000, 377.743 
	L 4.819, 377.665 
	L 9.638, 375.799 
	L 14.457, 375.459 
	L 19.276, 373.353 
	L 24.094, 373.180 
	L 28.913, 374.056 
	L 33.732, 371.350 
	L 38.551, 367.686 
	L 43.370, 367.221 
	L 48.189, 366.322 
" />
<path d="M 48.189, 366.322 
	L 53.008, 368.938 
	L 57.827, 368.593 
	L 62.646, 369.952 
	L 67.465, 373.511 
	L 72.283, 378.602 
	L 77.102, 377.992 
	L 81.921, 374.335 
	L 86.740, 370.728 
	L 91.559, 370.609 
	L 96.378, 374.203 
	L 101.197, 378.148 
" />
<path d="M 101.197, 378.148 
	L 106.016, 375.712 
	L 110.835, 373.816 
	L 115.654, 375.759 
	L 120.472, 374.221 
	L 125.291, 378.142 
	L 130.110, 378.879 
	L 134.929, 379.266 
	L 139.748, 383.015 
	L 144.567, 384.046 
	L 149.386, 382.397 
" />
<path d="M 149.386, 382.397 
	L 154.205, 381.623 
	L 159.024, 380.776 
	L 163.843, 381.442 
	L 168.661, 384.721 
	L 173.480, 382.936 
	L 178.299, 381.085 
	L 183.118, 378.186 
	L 187.937, 375.688 
" />
<path d="M 0.001, 380.532 
	L 0.000, 380.533 
	L 4.677, 380.462 
	L 9.354, 378.785 
	L 14.031, 378.481 
	L 18.709, 376.587 
	L 23.386, 376.432 
	L 28.063, 377.220 
	L 32.740, 374.788 
	L 37.417, 371.495 
	L 42.094, 371.078 
	L 46.772, 370.269 
" />
<path d="M 46.772, 370.269 
	L 51.449, 372.620 
	L 56.126, 372.311 
	L 60.803, 373.531 
	L 65.480, 376.729 
	L 70.157, 381.305 
	L 74.835, 380.756 
	L 79.512, 377.470 
	L 84.189, 374.229 
	L 88.866, 374.122 
	L 93.543, 377.352 
	L 98.220, 380.897 
" />
<path d="M 98.220, 380.897 
	L 102.898, 378.708 
	L 107.575, 377.004 
	L 112.252, 378.750 
	L 116.929, 377.368 
	L 121.606, 380.891 
	L 126.283, 381.553 
	L 130.961, 381.901 
	L 135.638, 385.270 
	L 140.315, 386.197 
	L 144.992, 384.714 
" />
<path d="M 144.992, 384.714 
	L 149.669, 384.019 
	L 154.346, 383.258 
	L 159.024, 383.856 
	L 163.701, 386.803 
	L 168.378, 385.199 
	L 173.055, 383.535 
	L 177.732, 380.930 
	L 182.409, 378.686 
" />
</g><g style="stroke:rgb(255,0,0); fill:none; stroke-width:0.100mm" >
<path d="M 14.173, 622.205 
	L 14.173, 625.039 
" />
<path d="M 14.173, 623.622 
	L 16.299, 622.205 
	L 17.362, 622.205 
" />
<path d="M 20.551, 623.622 
	L 23.740, 623.622 
	L 24.803, 622.913 
	L 23.740, 622.205 
	L 21.614, 622.205 
	L 20.551, 622.913 
	L 20.551, 624.331 
	L 21.614, 625.039 
	L 24.803, 625.039 
" />
<path d="M 31.181, 624.331 
	L 30.118, 625.039 
	L 29.055, 625.039 
	L 27.992, 624.331 
	L 27.992, 622.913 
	L 29.055, 622.205 
	L 30.118, 622.205 
	L 31.181, 622.913 
" />
<path d="M 34.370, 625.039 
	L 33.307, 624.331 
	L 33.307, 622.913 
	L 34.370, 622.205 
	L 35.433, 622.205 
	L 36.496, 622.913 
	L 36.496, 624.331 
	L 35.433, 625.039 
	L 34.370, 625.039 
" />
<path d="M 39.685, 622.205 
	L 39.685, 625.039 
" />
<path d="M 39.685, 623.622 
	L 41.811, 622.205 
	L 42.874, 622.205 
" />
<path d="M 49.252, 620.787 
	L 49.252, 625.039 
	L 47.126, 625.039 
	L 46.063, 624.331 
	L 46.063, 622.913 
	L 47.126, 622.205 
	L 49.252, 622.205 
" />
<path d="M 49.252, 625.039 
	L 50.315, 625.039 
" />
<path d="M 52.441, 623.622 
	L 55.630, 623.622 
	L 56.693, 622.913 
	L 55.630, 622.205 
	L 53.504, 622.205 
	L 52.441, 622.913 
	L 52.441, 624.331 
	L 53.504, 625.039 
	L 56.693, 625.039 
" />
<path d="M 62.008, 620.787 
	L 62.008, 625.039 
	L 59.882, 625.039 
	L 58.819, 624.331 
	L 58.819, 622.913 
	L 59.882, 622.205 
	L 62.008, 622.205 
" />
<path d="M 62.008, 625.039 
	L 63.071, 625.039 
" />
<path d="M 73.701, 620.787 
	L 73.701, 621.496 
" />
<path d="M 72.638, 622.205 
	L 73.701, 622.205 
	L 73.701, 625.039 
" />
<path d="M 72.638, 625.039 
	L 74.764, 625.039 
" />
<path d="M 77.953, 625.039 
	L 77.953, 622.205 
" />
<path d="M 77.953, 622.913 
	L 79.016, 622.205 
	L 80.079, 622.205 
	L 81.142, 622.913 
	L 81.142, 625.039 
" />
<path d="M 92.835, 625.039 
	L 92.835, 620.787 
	L 90.709, 620.787 
	L 94.961, 620.787 
" />
<path d="M 97.087, 622.205 
	L 97.087, 624.331 
	L 98.150, 625.039 
	L 100.276, 625.039 
	L 100.276, 622.205 
" />
<path d="M 106.654, 622.205 
	L 104.528, 622.205 
	L 103.465, 622.913 
	L 104.528, 623.622 
	L 105.591, 623.622 
	L 106.654, 624.331 
	L 105.591, 625.039 
	L 103.465, 625.039 
" />
<path d="M 109.843, 620.787 
	L 109.843, 625.039 
" />
<path d="M 109.843, 622.205 
	L 111.969, 622.205 
	L 113.032, 622.913 
	L 113.032, 625.039 
" />
<path d="M 116.220, 623.622 
	L 119.409, 623.622 
	L 120.472, 622.913 
	L 119.409, 622.205 
	L 117.283, 622.205 
	L 116.220, 622.913 
	L 116.220, 624.331 
	L 117.283, 625.039 
	L 120.472, 625.039 
" />
<path d="M 123.661, 620.787 
	L 123.661, 625.039 
	L 125.787, 625.039 
" />
<path d="M 122.598, 622.205 
	L 125.787, 622.205 
" />
<path d="M 131.102, 620.787 
	L 131.102, 621.496 
" />
<path d="M 130.039, 622.205 
	L 131.102, 622.205 
	L 131.102, 625.039 
" />
<path d="M 130.039, 625.039 
	L 132.165, 625.039 
" />
<path d="M 137.480, 620.787 
	L 137.480, 621.496 
" />
<path d="M 136.417, 622.205 
	L 137.480, 622.205 
	L 137.480, 625.039 
" />
<path d="M 136.417, 625.039 
	L 138.543, 625.039 
" />
<path d="M 152.362, 621.496 
	L 151.299, 620.787 
	L 149.173, 620.787 
	L 148.110, 621.496 
	L 148.110, 624.331 
	L 149.173, 625.039 
	L 151.299, 625.039 
	L 152.362, 624.331 
	L 152.362, 622.913 
	L 149.173, 622.913 
" />
<path d="M 154.488, 623.622 
	L 157.677, 623.622 
	L 158.740, 622.913 
	L 157.677, 622.205 
	L 155.551, 622.205 
	L 154.488, 622.913 
	L 154.488, 624.331 
	L 155.551, 625.039 
	L 158.740, 625.039 
" />
<path d="M 161.929, 625.039 
	L 160.866, 624.331 
	L 160.866, 622.913 
	L 161.929, 622.205 
	L 162.992, 622.205 
	L 164.055, 622.913 
	L 164.055, 624.331 
	L 162.992, 625.039 
	L 161.929, 625.039 
" />
<path d="M 167.244, 622.205 
	L 167.244, 625.039 
" />
<path d="M 167.244, 623.622 
	L 169.370, 622.205 
	L 170.433, 622.205 
" />
<path d="M 173.622, 626.457 
	L 175.748, 626.457 
	L 176.811, 625.748 
	L 176.811, 622.205 
	L 174.685, 622.205 
	L 173.622, 622.913 
	L 173.622, 624.331 
	L 174.685, 625.039 
	L 176.811, 625.039 
" />
<path d="M 182.126, 620.787 
	L 182.126, 621.496 
" />
<path d="M 181.063, 622.205 
	L 182.126, 622.205 
	L 182.126, 625.039 
" />
<path d="M 181.063, 625.039 
	L 183.189, 625.039 
" />
<path d="M 190.630, 625.039 
	L 187.441, 625.039 
	L 186.378, 624.331 
	L 186.378, 622.913 
	L 187.441, 622.205 
	L 189.567, 622.205 
	L 189.567, 625.039 
" />
<path d="M 14.173, 632.126 
	L 14.173, 627.874 
" />
<path d="M 17.362, 632.126 
	L 14.173, 630.709 
	L 17.362, 629.291 
" />
<path d="M 24.803, 632.126 
	L 21.614, 632.126 
	L 20.551, 631.417 
	L 20.551, 630.000 
	L 21.614, 629.291 
	L 23.740, 629.291 
	L 23.740, 632.126 
" />
<path d="M 27.992, 632.126 
	L 26.929, 631.417 
	L 26.929, 630.000 
	L 27.992, 629.291 
	L 29.055, 629.291 
	L 30.118, 630.000 
	L 30.118, 631.417 
	L 29.055, 632.126 
	L 27.992, 632.126 
" />
<path d="M 34.370, 627.874 
	L 34.370, 632.126 
	L 36.496, 632.126 
" />
<path d="M 33.307, 629.291 
	L 36.496, 629.291 
" />
<path d="M 39.685, 630.709 
	L 42.874, 630.709 
	L 43.937, 630.000 
	L 42.874, 629.291 
	L 40.748, 629.291 
	L 39.685, 630.000 
	L 39.685, 631.417 
	L 40.748, 632.126 
	L 43.937, 632.126 
" />
<path d="M 50.315, 631.417 
	L 49.252, 632.126 
	L 48.189, 632.126 
	L 47.126, 631.417 
	L 47.126, 630.000 
	L 48.189, 629.291 
	L 49.252, 629.291 
	L 50.315, 630.000 
" />
<path d="M 63.071, 632.126 
	L 60.945, 632.126 
	L 60.945, 627.874 
	L 63.071, 627.874 
" />
<path d="M 65.197, 632.126 
	L 67.323, 632.126 
	L 67.323, 627.874 
	L 65.197, 627.874 
" />
<path d="M 74.764, 627.874 
	L 71.575, 630.000 
	L 74.764, 632.126 
" />
<path d="M 77.953, 627.874 
	L 81.142, 630.000 
	L 77.953, 632.126 
" />
<path d="M 90.709, 628.583 
	L 91.772, 627.874 
	L 93.898, 627.874 
	L 94.961, 628.583 
	L 94.961, 629.291 
	L 90.709, 631.417 
	L 90.709, 632.126 
	L 94.961, 632.126 
" />
<path d="M 97.087, 631.417 
	L 98.150, 632.126 
	L 100.276, 632.126 
	L 101.339, 631.417 
	L 101.339, 628.583 
	L 100.276, 627.874 
	L 98.150, 627.874 
	L 97.087, 628.583 
	L 97.087, 631.417 
" />
<path d="M 104.528, 632.126 
	L 106.654, 632.126 
" />
<path d="M 105.591, 632.126 
	L 105.591, 627.874 
	L 104.528, 628.583 
" />
<path d="M 110.906, 632.126 
	L 111.969, 632.126 
	L 114.095, 630.709 
	L 114.095, 628.583 
	L 113.032, 627.874 
	L 110.906, 627.874 
	L 109.843, 628.583 
	L 109.843, 629.291 
	L 110.906, 630.000 
	L 114.095, 630.000 
" />
<path d="M 14.173, 653.386 
	L 17.362, 653.386 
	L 18.425, 652.677 
	L 18.425, 651.260 
	L 17.362, 650.551 
	L 15.236, 650.551 
" />
<path d="M 15.236, 649.134 
	L 15.236, 653.386 
" />
<path d="M 24.803, 653.386 
	L 21.614, 653.386 
	L 20.551, 652.677 
	L 20.551, 651.260 
	L 21.614, 650.551 
	L 23.740, 650.551 
	L 23.740, 653.386 
" />
<path d="M 26.929, 653.386 
	L 26.929, 650.551 
" />
<path d="M 26.929, 651.260 
	L 27.992, 650.551 
	L 29.055, 650.551 
	L 30.118, 651.260 
	L 30.118, 653.386 
" />
<path d="M 36.496, 649.134 
	L 36.496, 653.386 
	L 34.370, 653.386 
	L 33.307, 652.677 
	L 33.307, 651.260 
	L 34.370, 650.551 
	L 36.496, 650.551 
" />
<path d="M 36.496, 653.386 
	L 37.559, 653.386 
" />
<path d="M 43.937, 652.677 
	L 42.874, 653.386 
	L 41.811, 653.386 
	L 40.748, 652.677 
	L 40.748, 651.260 
	L 41.811, 650.551 
	L 42.874, 650.551 
	L 43.937, 651.260 
" />
<path d="M 50.315, 653.386 
	L 47.126, 653.386 
	L 46.063, 652.677 
	L 46.063, 651.260 
	L 47.126, 650.551 
	L 49.252, 650.551 
	L 49.252, 653.386 
" />
<path d="M 52.441, 653.386 
	L 52.441, 650.551 
" />
<path d="M 52.441, 651.260 
	L 53.504, 650.551 
	L 54.567, 651.260 
	L 54.567, 653.386 
" />
<path d="M 54.567, 651.260 
	L 55.630, 650.551 
	L 56.693, 651.260 
	L 56.693, 653.386 
" />
<path d="M 58.819, 654.803 
	L 58.819, 650.551 
	L 60.945, 650.551 
	L 62.008, 651.260 
	L 62.008, 652.677 
	L 60.945, 653.386 
	L 58.819, 653.386 
" />
<path d="M 74.764, 649.134 
	L 74.764, 653.386 
	L 72.638, 653.386 
	L 71.575, 652.677 
	L 71.575, 651.260 
	L 72.638, 650.551 
	L 74.764, 650.551 
" />
<path d="M 74.764, 653.386 
	L 75.827, 653.386 
" />
<path d="M 79.016, 653.386 
	L 77.953, 652.677 
	L 77.953, 651.260 
	L 79.016, 650.551 
	L 80.079, 650.551 
	L 81.142, 651.260 
	L 81.142, 652.677 
	L 80.079, 653.386 
	L 79.016, 653.386 
" />
<path d="M 84.331, 650.551 
	L 84.331, 652.677 
	L 85.394, 653.386 
	L 86.457, 652.677 
	L 86.457, 651.260 
" />
<path d="M 86.457, 652.677 
	L 87.520, 653.386 
	L 88.583, 652.677 
	L 88.583, 650.551 
" />
<path d="M 90.709, 653.386 
	L 90.709, 650.551 
" />
<path d="M 90.709, 651.260 
	L 91.772, 650.551 
	L 92.835, 650.551 
	L 93.898, 651.260 
	L 93.898, 653.386 
" />
<path d="M 98.150, 649.134 
	L 99.213, 649.134 
	L 99.213, 653.386 
" />
<path d="M 98.150, 653.386 
	L 100.276, 653.386 
" />
<path d="M 104.528, 653.386 
	L 103.465, 652.677 
	L 103.465, 651.260 
	L 104.528, 650.551 
	L 105.591, 650.551 
	L 106.654, 651.260 
	L 106.654, 652.677 
	L 105.591, 653.386 
	L 104.528, 653.386 
" />
<path d="M 114.095, 653.386 
	L 110.906, 653.386 
	L 109.843, 652.677 
	L 109.843, 651.260 
	L 110.906, 650.551 
	L 113.032, 650.551 
	L 113.032, 653.386 
" />
<path d="M 119.409, 649.134 
	L 119.409, 653.386 
	L 117.283, 653.386 
	L 116.220, 652.677 
	L 116.220, 651.260 
	L 117.283, 650.551 
	L 119.409, 650.551 
" />
<path d="M 119.409, 653.386 
	L 120.472, 653.386 
" />
<path d="M 126.850, 652.677 
	L 125.787, 653.386 
	L 124.724, 653.386 
	L 123.661, 652.677 
	L 123.661, 651.260 
	L 124.724, 650.551 
	L 125.787, 650.551 
	L 126.850, 651.260 
" />
<path d="M 130.039, 653.386 
	L 128.976, 652.677 
	L 128.976, 651.260 
	L 130.039, 650.551 
	L 131.102, 650.551 
	L 132.165, 651.260 
	L 132.165, 652.677 
	L 131.102, 653.386 
	L 130.039, 653.386 
" />
<path d="M 138.543, 649.134 
	L 138.543, 653.386 
	L 136.417, 653.386 
	L 135.354, 652.677 
	L 135.354, 651.260 
	L 136.417, 650.551 
	L 138.543, 650.551 
" />
<path d="M 138.543, 653.386 
	L 139.606, 653.386 
" />
<path d="M 141.732, 651.969 
	L 144.921, 651.969 
	L 145.984, 651.260 
	L 144.921, 650.551 
	L 142.795, 650.551 
	L 141.732, 651.260 
	L 141.732, 652.677 
	L 142.795, 653.386 
	L 145.984, 653.386 
" />
<path d="M 154.488, 653.386 
	L 158.740, 649.134 
" />
<path d="M 158.740, 653.386 
	L 154.488, 649.134 
" />
<path d="M 160.866, 653.386 
	L 165.118, 649.134 
" />
<path d="M 165.118, 653.386 
	L 160.866, 649.134 
" />
<path d="M 167.244, 653.386 
	L 171.496, 649.134 
" />
<path d="M 171.496, 653.386 
	L 167.244, 649.134 
" />
<path d="M 173.622, 653.386 
	L 177.874, 649.134 
" />
<path d="M 177.874, 653.386 
	L 173.622, 649.134 
" />
<path d="M 180.000, 651.260 
	L 184.252, 651.260 
" />
<path d="M 186.378, 653.386 
	L 190.630, 649.134 
" />
<path d="M 190.630, 653.386 
	L 186.378, 649.134 
" />
<path d="M 192.756, 653.386 
	L 197.008, 649.134 
" />
<path d="M 197.008, 653.386 
	L 192.756, 649.134 
" />
<path d="M 199.134, 653.386 
	L 203.386, 649.134 
" />
<path d="M 203.386, 653.386 
	L 199.134, 649.134 
" />
<path d="M 205.512, 653.386 
	L 209.764, 649.134 
" />
<path d="M 209.764, 653.386 
	L 205.512, 649.134 
" />
<path d="M 17.717, 238.818 
	L 17.717, 238.819 
	L 17.717, 237.472 
	L 37.382, 237.472 
	L 37.382, 238.819 
	L 17.717, 238.819 
	L 17.717, 233.823 
	L 17.717, 232.476 
	L 37.382, 232.476 
	L 37.382, 233.823 
	L 17.717, 233.823 
	L 17.717, 231.095 
" />
<path d="M 17.717, 231.095 
	L 17.717, 229.748 
	L 37.382, 229.748 
	L 37.382, 231.095 
	L 17.717, 231.095 
" />
<path d="M 37.666, 238.818 
	L 37.665, 238.819 
	L 37.665, 229.748 
	L 39.366, 229.748 
	L 39.366, 238.819 
	L 37.665, 238.819 
" />
<path d="M 39.367, 238.818 
	L 39.366, 238.819 
	L 39.366, 232.016 
	L 51.626, 232.016 
	L 51.626, 233.362 
	L 41.067, 233.362 
	L 41.067, 234.744 
	L 51.626, 234.744 
	L 51.626, 236.091 
	L 41.067, 236.091 
	L 41.067, 238.819 
	L 39.366, 238.819 
" />
<path d="M 39.366, 238.819 
" />
<path d="M 62.257, 234.743 
	L 62.256, 234.744 
	L 62.256, 233.362 
	L 52.902, 233.362 
	L 52.902, 234.744 
	L 62.256, 234.744 
	L 51.343, 238.819 
	L 51.343, 232.016 
	L 63.815, 232.016 
	L 63.815, 236.091 
	L 52.902, 236.091 
	L 52.902, 237.472 
" />
<path d="M 52.902, 237.472 
	L 63.815, 237.472 
	L 63.815, 238.819 
	L 51.343, 238.819 
" />
<path d="M 64.099, 238.818 
	L 64.098, 238.819 
	L 64.098, 232.016 
	L 77.138, 232.016 
	L 77.138, 238.819 
	L 75.437, 238.819 
	L 75.437, 233.362 
	L 65.799, 233.362 
	L 65.799, 238.819 
	L 64.098, 238.819 
" />
<path d="M 77.139, 239.279 
	L 77.138, 239.280 
	L 77.138, 229.748 
	L 78.839, 229.748 
	L 78.839, 237.224 
	L 88.193, 233.150 
	L 97.547, 237.224 
	L 97.547, 229.748 
	L 99.248, 229.748 
	L 99.248, 239.280 
	L 88.193, 234.496 
	L 77.138, 239.280 
" />
<path d="M 77.138, 239.280 
" />
<path d="M 110.587, 237.472 
	L 110.587, 237.472 
	L 110.587, 233.362 
	L 108.319, 233.362 
	L 103.783, 237.472 
	L 110.587, 237.472 
	L 99.992, 238.819 
	L 106.051, 233.362 
	L 99.992, 233.362 
	L 99.992, 232.016 
	L 112.287, 232.016 
" />
<path d="M 112.287, 232.016 
	L 112.287, 238.819 
	L 99.992, 238.819 
" />
<path d="M 111.544, 238.818 
	L 111.543, 238.819 
	L 111.543, 232.016 
	L 124.583, 232.016 
	L 124.583, 238.819 
	L 122.882, 238.819 
	L 122.882, 233.362 
	L 113.244, 233.362 
	L 113.244, 238.819 
	L 111.543, 238.819 
" />
<path d="M 135.922, 237.472 
	L 135.921, 237.472 
	L 135.921, 233.362 
	L 126.283, 233.362 
	L 126.283, 237.472 
	L 135.921, 237.472 
	L 124.583, 238.819 
	L 124.583, 232.016 
	L 135.921, 232.016 
	L 135.921, 229.748 
	L 137.622, 229.748 
" />
<path d="M 137.622, 229.748 
	L 137.622, 238.819 
	L 124.583, 238.819 
" />
<path d="M 148.253, 234.743 
	L 148.252, 234.744 
	L 148.252, 233.362 
	L 138.898, 233.362 
	L 138.898, 234.744 
	L 148.252, 234.744 
	L 137.339, 238.819 
	L 137.339, 232.016 
	L 149.811, 232.016 
	L 149.811, 236.091 
	L 138.898, 236.091 
" />
<path d="M 138.898, 236.091 
	L 138.898, 237.472 
	L 149.811, 237.472 
	L 149.811, 238.819 
	L 137.339, 238.819 
" />
<path d="M 150.095, 238.818 
	L 150.095, 238.819 
	L 150.095, 232.016 
	L 162.354, 232.016 
	L 162.354, 233.362 
	L 151.795, 233.362 
	L 151.795, 238.819 
	L 150.095, 238.819 
" />
<path d="M 36.320, 255.188 
	L 36.319, 255.189 
	L 28.772, 248.811 
	L 19.701, 248.811 
	L 19.701, 255.189 
	L 36.319, 255.189 
	L 18.000, 256.535 
	L 18.000, 247.465 
	L 29.516, 247.465 
	L 40.110, 256.535 
	L 18.000, 256.535 
" />
<path d="M 40.111, 256.535 
	L 40.110, 256.535 
	L 40.110, 249.732 
	L 41.811, 249.732 
	L 41.811, 256.535 
	L 40.110, 256.535 
	L 40.110, 248.811 
	L 40.110, 247.465 
	L 41.811, 247.465 
	L 41.811, 248.811 
	L 40.110, 248.811 
" />
<path d="M 41.528, 256.535 
	L 41.528, 256.535 
	L 41.528, 255.189 
	L 52.441, 255.189 
	L 52.441, 253.807 
	L 41.528, 253.807 
	L 41.528, 249.732 
	L 54.000, 249.732 
	L 54.000, 251.079 
	L 43.087, 251.079 
	L 43.087, 252.461 
	L 54.000, 252.461 
" />
<path d="M 54.000, 252.461 
	L 54.000, 256.535 
	L 41.528, 256.535 
" />
<path d="M 54.284, 256.535 
	L 54.283, 256.535 
	L 54.283, 247.465 
	L 55.984, 247.465 
	L 55.984, 249.732 
	L 66.543, 249.732 
	L 66.543, 251.079 
	L 55.984, 251.079 
	L 55.984, 255.189 
	L 66.543, 255.189 
	L 66.543, 256.535 
	L 54.283, 256.535 
" />
<path d="M 54.283, 256.535 
" />
<path d="M 66.544, 256.535 
	L 66.543, 256.535 
	L 66.543, 249.732 
	L 78.803, 249.732 
	L 78.803, 251.079 
	L 68.244, 251.079 
	L 68.244, 256.535 
	L 66.543, 256.535 
" />
<path d="M 89.434, 252.460 
	L 89.433, 252.461 
	L 89.433, 251.079 
	L 80.079, 251.079 
	L 80.079, 252.461 
	L 89.433, 252.461 
	L 78.520, 256.535 
	L 78.520, 249.732 
	L 90.992, 249.732 
	L 90.992, 253.807 
	L 80.079, 253.807 
	L 80.079, 255.189 
" />
<path d="M 80.079, 255.189 
	L 90.992, 255.189 
	L 90.992, 256.535 
	L 78.520, 256.535 
" />
<path d="M 90.993, 256.535 
	L 90.992, 256.535 
	L 90.992, 255.189 
	L 101.906, 255.189 
	L 101.906, 253.807 
	L 90.992, 253.807 
	L 90.992, 249.732 
	L 103.465, 249.732 
	L 103.465, 251.079 
	L 92.551, 251.079 
	L 92.551, 252.461 
" />
<path d="M 92.551, 252.461 
	L 103.465, 252.461 
	L 103.465, 256.535 
	L 90.992, 256.535 
" />
<path d="M 103.465, 256.535 
	L 103.465, 256.535 
	L 103.465, 255.189 
	L 114.378, 255.189 
	L 114.378, 253.807 
	L 103.465, 253.807 
	L 103.465, 249.732 
	L 115.937, 249.732 
	L 115.937, 251.079 
	L 105.024, 251.079 
	L 105.024, 252.461 
" />
<path d="M 105.024, 252.461 
	L 115.937, 252.461 
	L 115.937, 256.535 
	L 103.465, 256.535 
" />
<path d="M 116.221, 256.535 
	L 116.220, 256.535 
	L 116.220, 250.193 
	L 136.063, 250.193 
	L 136.063, 251.539 
	L 117.921, 251.539 
	L 117.921, 256.535 
	L 116.220, 256.535 
	L 116.220, 248.811 
	L 116.220, 247.465 
	L 136.063, 247.465 
" />
<path d="M 136.063, 247.465 
	L 136.063, 248.811 
	L 116.220, 248.811 
" />
<path d="M 136.064, 256.535 
	L 136.063, 256.535 
	L 136.063, 249.732 
	L 148.323, 249.732 
	L 148.323, 251.079 
	L 137.764, 251.079 
	L 137.764, 256.535 
	L 136.063, 256.535 
" />
<path d="M 158.953, 252.460 
	L 158.953, 252.461 
	L 158.953, 251.079 
	L 149.598, 251.079 
	L 149.598, 252.461 
	L 158.953, 252.461 
	L 148.039, 256.535 
	L 148.039, 249.732 
	L 160.512, 249.732 
	L 160.512, 253.807 
	L 149.598, 253.807 
" />
<path d="M 149.598, 253.807 
	L 149.598, 255.189 
	L 160.512, 255.189 
	L 160.512, 256.535 
	L 148.039, 256.535 
" />
<path d="M 172.135, 255.188 
	L 172.134, 255.189 
	L 172.134, 251.079 
	L 162.496, 251.079 
	L 162.496, 255.189 
	L 172.134, 255.189 
	L 172.134, 258.803 
	L 172.134, 256.535 
	L 160.795, 256.535 
	L 160.795, 249.732 
	L 173.835, 249.732 
" />
<path d="M 173.835, 249.732 
	L 173.835, 258.803 
	L 172.134, 258.803 
" />
<path d="M 173.835, 256.535 
	L 173.835, 256.535 
	L 173.835, 249.732 
	L 175.535, 249.732 
	L 175.535, 255.189 
	L 185.173, 255.189 
	L 185.173, 249.732 
	L 186.874, 249.732 
	L 186.874, 256.535 
	L 173.835, 256.535 
" />
<path d="M 197.505, 252.460 
	L 197.504, 252.461 
	L 197.504, 251.079 
	L 188.150, 251.079 
	L 188.150, 252.461 
	L 197.504, 252.461 
	L 186.591, 256.535 
	L 186.591, 249.732 
	L 199.063, 249.732 
	L 199.063, 253.807 
	L 188.150, 253.807 
" />
<path d="M 188.150, 253.807 
	L 188.150, 255.189 
	L 199.063, 255.189 
	L 199.063, 256.535 
	L 186.591, 256.535 
" />
<path d="M 199.347, 256.535 
	L 199.346, 256.535 
	L 199.346, 249.732 
	L 212.386, 249.732 
	L 212.386, 256.535 
	L 210.685, 256.535 
	L 210.685, 251.079 
	L 201.047, 251.079 
	L 201.047, 256.535 
	L 199.346, 256.535 
" />
<path d="M 212.387, 256.535 
	L 212.386, 256.535 
	L 212.386, 249.732 
	L 224.646, 249.732 
	L 224.646, 251.079 
	L 214.087, 251.079 
	L 214.087, 255.189 
	L 224.646, 255.189 
	L 224.646, 256.535 
	L 212.386, 256.535 
" />
<path d="M 225.391, 258.802 
	L 225.390, 258.803 
	L 225.390, 257.421 
	L 235.984, 257.421 
	L 235.984, 256.535 
	L 232.937, 256.535 
	L 225.390, 249.732 
	L 227.658, 249.732 
	L 233.717, 255.189 
	L 235.984, 255.189 
	L 235.984, 249.732 
" />
<path d="M 235.984, 249.732 
	L 237.685, 249.732 
	L 237.685, 258.803 
	L 225.390, 258.803 
" />
<path d="M 27.072, 274.251 
	L 27.071, 274.252 
	L 27.071, 266.528 
	L 17.256, 266.528 
	L 17.256, 265.181 
	L 38.587, 265.181 
	L 38.587, 266.528 
	L 28.772, 266.528 
	L 28.772, 274.252 
	L 27.071, 274.252 
" />
<path d="M 39.331, 274.251 
	L 39.331, 274.252 
	L 39.331, 265.181 
	L 41.032, 265.181 
	L 41.032, 267.449 
	L 52.370, 267.449 
	L 52.370, 274.252 
	L 50.669, 274.252 
	L 50.669, 268.795 
	L 41.032, 268.795 
	L 41.032, 274.252 
	L 39.331, 274.252 
" />
<path d="M 39.331, 274.252 
" />
<path d="M 63.001, 270.177 
	L 63.000, 270.177 
	L 63.000, 268.795 
	L 53.646, 268.795 
	L 53.646, 270.177 
	L 63.000, 270.177 
	L 52.087, 274.252 
	L 52.087, 267.449 
	L 64.559, 267.449 
	L 64.559, 271.524 
	L 53.646, 271.524 
	L 53.646, 272.906 
" />
<path d="M 53.646, 272.906 
	L 64.559, 272.906 
	L 64.559, 274.252 
	L 52.087, 274.252 
" />
<path d="M 64.560, 274.251 
	L 64.559, 274.252 
	L 64.559, 272.906 
	L 84.224, 272.906 
	L 84.224, 274.252 
	L 64.559, 274.252 
	L 64.559, 269.256 
	L 64.559, 267.909 
	L 84.224, 267.909 
	L 84.224, 269.256 
	L 64.559, 269.256 
	L 64.559, 266.528 
" />
<path d="M 64.559, 266.528 
	L 64.559, 265.181 
	L 84.224, 265.181 
	L 84.224, 266.528 
	L 64.559, 266.528 
" />
<path d="M 95.847, 272.905 
	L 95.846, 272.906 
	L 95.846, 268.795 
	L 86.209, 268.795 
	L 86.209, 272.906 
	L 95.846, 272.906 
	L 84.508, 274.252 
	L 84.508, 267.449 
	L 95.846, 267.449 
	L 95.846, 265.181 
	L 97.547, 265.181 
	L 97.547, 274.252 
" />
<path d="M 97.547, 274.252 
	L 84.508, 274.252 
" />
<path d="M 108.887, 272.905 
	L 108.886, 272.906 
	L 108.886, 268.795 
	L 99.248, 268.795 
	L 99.248, 272.906 
	L 108.886, 272.906 
	L 97.547, 276.520 
	L 97.547, 275.138 
	L 108.886, 275.138 
	L 108.886, 274.252 
	L 97.547, 274.252 
" />
<path d="M 97.547, 274.252 
	L 97.547, 267.449 
	L 110.587, 267.449 
	L 110.587, 276.520 
	L 97.547, 276.520 
" />
<path d="M 121.217, 270.177 
	L 121.217, 270.177 
	L 121.217, 268.795 
	L 111.862, 268.795 
	L 111.862, 270.177 
	L 121.217, 270.177 
	L 110.303, 274.252 
	L 110.303, 267.449 
	L 122.776, 267.449 
	L 122.776, 271.524 
	L 111.862, 271.524 
" />
<path d="M 111.862, 271.524 
	L 111.862, 272.906 
	L 122.776, 272.906 
	L 122.776, 274.252 
	L 110.303, 274.252 
" />
<path d="M 143.469, 272.905 
	L 143.469, 272.906 
	L 143.469, 266.528 
	L 124.760, 266.528 
	L 124.760, 272.906 
	L 143.469, 272.906 
	L 123.059, 274.252 
	L 123.059, 265.181 
	L 145.169, 265.181 
	L 145.169, 274.252 
	L 123.059, 274.252 
" />
<path d="M 123.059, 274.252 
" />
<path d="M 145.170, 274.251 
	L 145.169, 274.252 
	L 145.169, 267.449 
	L 157.429, 267.449 
	L 157.429, 268.795 
	L 146.870, 268.795 
	L 146.870, 270.177 
	L 157.429, 270.177 
	L 157.429, 271.524 
	L 146.870, 271.524 
	L 146.870, 274.252 
" />
<path d="M 146.870, 274.252 
	L 145.169, 274.252 
" />
<path d="M 157.430, 274.712 
	L 157.429, 274.713 
	L 157.429, 265.181 
	L 159.130, 265.181 
	L 159.130, 272.658 
	L 168.484, 268.583 
	L 177.839, 272.658 
	L 177.839, 265.181 
	L 179.539, 265.181 
	L 179.539, 274.713 
	L 168.484, 269.929 
" />
<path d="M 168.484, 269.929 
	L 157.429, 274.713 
" />
<path d="M 179.540, 274.251 
	L 179.539, 274.252 
	L 179.539, 265.181 
	L 181.240, 265.181 
	L 181.240, 267.449 
	L 192.579, 267.449 
	L 192.579, 274.252 
	L 190.878, 274.252 
	L 190.878, 268.795 
	L 181.240, 268.795 
	L 181.240, 274.252 
" />
<path d="M 181.240, 274.252 
	L 179.539, 274.252 
" />
<path d="M 203.918, 272.905 
	L 203.917, 272.906 
	L 203.917, 268.795 
	L 201.650, 268.795 
	L 197.114, 272.906 
	L 203.917, 272.906 
	L 193.323, 274.252 
	L 199.382, 268.795 
	L 193.323, 268.795 
	L 193.323, 267.449 
	L 205.618, 267.449 
" />
<path d="M 205.618, 267.449 
	L 205.618, 274.252 
	L 193.323, 274.252 
" />
<path d="M 204.875, 274.251 
	L 204.874, 274.252 
	L 204.874, 265.181 
	L 206.575, 265.181 
	L 206.575, 267.449 
	L 217.134, 267.449 
	L 217.134, 268.795 
	L 206.575, 268.795 
	L 206.575, 272.906 
	L 217.134, 272.906 
	L 217.134, 274.252 
" />
<path d="M 217.134, 274.252 
	L 204.874, 274.252 
" />
<path d="M 217.135, 274.251 
	L 217.134, 274.252 
	L 217.134, 265.181 
	L 218.835, 265.181 
	L 218.835, 274.252 
	L 217.134, 274.252 
" />
<path d="M 218.552, 274.251 
	L 218.551, 274.252 
	L 218.551, 272.906 
	L 229.465, 272.906 
	L 229.465, 271.524 
	L 218.551, 271.524 
	L 218.551, 267.449 
	L 231.024, 267.449 
	L 231.024, 268.795 
	L 220.110, 268.795 
	L 220.110, 270.177 
" />
<path d="M 220.110, 270.177 
	L 231.024, 270.177 
	L 231.024, 274.252 
	L 218.551, 274.252 
" />
<path d="M 17.717, 284.881 
	L 17.717, 284.882 
	L 28.311, 275.350 
	L 38.870, 284.882 
	L 36.602, 284.882 
	L 28.311, 277.370 
	L 19.984, 284.882 
	L 17.717, 284.882 
" />
<path d="M 50.493, 283.535 
	L 50.492, 283.535 
	L 50.492, 279.425 
	L 40.854, 279.425 
	L 40.854, 283.535 
	L 50.492, 283.535 
	L 39.154, 284.882 
	L 39.154, 278.079 
	L 50.492, 278.079 
	L 50.492, 275.811 
	L 52.193, 275.811 
	L 52.193, 284.882 
" />
<path d="M 52.193, 284.882 
	L 39.154, 284.882 
" />
<path d="M 52.194, 284.881 
	L 52.193, 284.882 
	L 52.193, 278.079 
	L 62.965, 278.079 
	L 62.965, 284.882 
	L 61.264, 284.882 
	L 61.264, 279.425 
	L 58.429, 279.425 
	L 58.429, 284.882 
	L 56.728, 284.882 
	L 56.728, 279.425 
	L 53.894, 279.425 
" />
<path d="M 53.894, 279.425 
	L 53.894, 284.882 
	L 52.193, 284.882 
" />
<path d="M 62.965, 284.881 
	L 62.965, 284.882 
	L 62.965, 278.079 
	L 64.665, 278.079 
	L 64.665, 284.882 
	L 62.965, 284.882 
	L 62.965, 277.158 
	L 62.965, 275.811 
	L 64.665, 275.811 
	L 64.665, 277.158 
	L 62.965, 277.158 
" />
<path d="M 64.666, 284.881 
	L 64.665, 284.882 
	L 64.665, 278.079 
	L 77.705, 278.079 
	L 77.705, 284.882 
	L 76.004, 284.882 
	L 76.004, 279.425 
	L 66.366, 279.425 
	L 66.366, 284.882 
	L 64.665, 284.882 
" />
<path d="M 77.705, 284.881 
	L 77.705, 284.882 
	L 77.705, 278.079 
	L 79.406, 278.079 
	L 79.406, 284.882 
	L 77.705, 284.882 
	L 77.705, 277.158 
	L 77.705, 275.811 
	L 79.406, 275.811 
	L 79.406, 277.158 
	L 77.705, 277.158 
" />
<path d="M 79.123, 284.881 
	L 79.122, 284.882 
	L 79.122, 283.535 
	L 90.035, 283.535 
	L 90.035, 282.154 
	L 79.122, 282.154 
	L 79.122, 278.079 
	L 91.595, 278.079 
	L 91.595, 279.425 
	L 80.681, 279.425 
	L 80.681, 280.807 
	L 91.595, 280.807 
" />
<path d="M 91.595, 280.807 
	L 91.595, 284.882 
	L 79.122, 284.882 
" />
<path d="M 91.879, 284.881 
	L 91.878, 284.882 
	L 91.878, 275.811 
	L 93.579, 275.811 
	L 93.579, 278.079 
	L 104.138, 278.079 
	L 104.138, 279.425 
	L 93.579, 279.425 
	L 93.579, 283.535 
	L 104.138, 283.535 
	L 104.138, 284.882 
" />
<path d="M 104.138, 284.882 
	L 91.878, 284.882 
" />
<path d="M 104.139, 284.881 
	L 104.138, 284.882 
	L 104.138, 278.079 
	L 116.398, 278.079 
	L 116.398, 279.425 
	L 105.839, 279.425 
	L 105.839, 284.882 
	L 104.138, 284.882 
" />
<path d="M 127.737, 283.535 
	L 127.736, 283.535 
	L 127.736, 279.425 
	L 125.469, 279.425 
	L 120.933, 283.535 
	L 127.736, 283.535 
	L 117.142, 284.882 
	L 123.201, 279.425 
	L 117.142, 279.425 
	L 117.142, 278.079 
	L 129.437, 278.079 
" />
<path d="M 129.437, 278.079 
	L 129.437, 284.882 
	L 117.142, 284.882 
" />
<path d="M 128.694, 284.881 
	L 128.693, 284.882 
	L 128.693, 275.811 
	L 130.394, 275.811 
	L 130.394, 278.079 
	L 140.953, 278.079 
	L 140.953, 279.425 
	L 130.394, 279.425 
	L 130.394, 283.535 
	L 140.953, 283.535 
	L 140.953, 284.882 
" />
<path d="M 140.953, 284.882 
	L 128.693, 284.882 
" />
<path d="M 140.953, 284.881 
	L 140.953, 284.882 
	L 140.953, 278.079 
	L 142.654, 278.079 
	L 142.654, 284.882 
	L 140.953, 284.882 
	L 140.953, 277.158 
	L 140.953, 275.811 
	L 142.654, 275.811 
	L 142.654, 277.158 
	L 140.953, 277.158 
" />
<path d="M 140.953, 277.158 
" />
<path d="M 142.654, 284.881 
	L 142.654, 284.882 
	L 142.654, 278.079 
	L 144.354, 278.079 
	L 144.354, 283.535 
	L 146.622, 283.535 
	L 152.646, 278.079 
	L 154.913, 278.079 
	L 147.366, 284.882 
	L 142.654, 284.882 
" />
<path d="M 165.544, 280.806 
	L 165.543, 280.807 
	L 165.543, 279.425 
	L 156.189, 279.425 
	L 156.189, 280.807 
	L 165.543, 280.807 
	L 154.630, 284.882 
	L 154.630, 278.079 
	L 167.102, 278.079 
	L 167.102, 282.154 
	L 156.189, 282.154 
" />
<path d="M 156.189, 282.154 
	L 156.189, 283.535 
	L 167.102, 283.535 
	L 167.102, 284.882 
	L 154.630, 284.882 
" />
<path d="M 167.387, 284.881 
	L 167.386, 284.882 
	L 167.386, 275.811 
	L 169.087, 275.811 
	L 169.087, 284.882 
	L 167.386, 284.882 
" />
<path d="M 169.831, 287.149 
	L 169.831, 287.150 
	L 169.831, 285.768 
	L 180.425, 285.768 
	L 180.425, 284.882 
	L 177.378, 284.882 
	L 169.831, 278.079 
	L 172.098, 278.079 
	L 178.158, 283.535 
	L 180.425, 283.535 
	L 180.425, 278.079 
" />
<path d="M 180.425, 278.079 
	L 182.126, 278.079 
	L 182.126, 287.150 
	L 169.831, 287.150 
" />
<path d="M 18.001, 295.511 
	L 18.000, 295.512 
	L 18.000, 289.169 
	L 32.528, 289.169 
	L 35.575, 287.787 
	L 18.000, 287.787 
	L 18.000, 286.441 
	L 39.331, 286.441 
	L 33.307, 290.516 
	L 19.701, 290.516 
	L 19.701, 295.512 
	L 18.000, 295.512 
" />
<path d="M 18.000, 295.512 
" />
<path d="M 50.670, 294.165 
	L 50.669, 294.165 
	L 50.669, 290.055 
	L 41.032, 290.055 
	L 41.032, 294.165 
	L 50.669, 294.165 
	L 39.331, 295.512 
	L 39.331, 288.709 
	L 52.370, 288.709 
	L 52.370, 295.512 
	L 39.331, 295.512 
" />
<path d="M 52.087, 295.511 
	L 52.087, 295.512 
	L 52.087, 294.165 
	L 63.000, 294.165 
	L 63.000, 292.784 
	L 52.087, 292.784 
	L 52.087, 288.709 
	L 64.559, 288.709 
	L 64.559, 290.055 
	L 53.646, 290.055 
	L 53.646, 291.437 
	L 64.559, 291.437 
" />
<path d="M 64.559, 291.437 
	L 64.559, 295.512 
	L 52.087, 295.512 
" />
<path d="M 64.560, 295.511 
	L 64.559, 295.512 
	L 64.559, 294.165 
	L 75.472, 294.165 
	L 75.472, 292.784 
	L 64.559, 292.784 
	L 64.559, 288.709 
	L 77.032, 288.709 
	L 77.032, 290.055 
	L 66.118, 290.055 
	L 66.118, 291.437 
	L 77.032, 291.437 
" />
<path d="M 77.032, 291.437 
	L 77.032, 295.512 
	L 64.559, 295.512 
" />
<path d="M 77.316, 295.511 
	L 77.315, 295.512 
	L 77.315, 288.709 
	L 79.016, 288.709 
	L 79.016, 295.512 
	L 77.315, 295.512 
	L 77.315, 287.787 
	L 77.315, 286.441 
	L 79.016, 286.441 
	L 79.016, 287.787 
	L 77.315, 287.787 
" />
<path d="M 90.355, 294.165 
	L 90.354, 294.165 
	L 90.354, 290.055 
	L 80.717, 290.055 
	L 80.717, 294.165 
	L 90.354, 294.165 
	L 79.016, 295.512 
	L 79.016, 286.441 
	L 80.717, 286.441 
	L 80.717, 288.709 
	L 92.055, 288.709 
	L 92.055, 295.512 
" />
<path d="M 92.055, 295.512 
	L 79.016, 295.512 
" />
<path d="M 92.056, 295.511 
	L 92.055, 295.512 
	L 92.055, 286.441 
	L 93.756, 286.441 
	L 93.756, 295.512 
	L 92.055, 295.512 
" />
<path d="M 104.387, 291.436 
	L 104.386, 291.437 
	L 104.386, 290.055 
	L 95.032, 290.055 
	L 95.032, 291.437 
	L 104.386, 291.437 
	L 93.472, 295.512 
	L 93.472, 288.709 
	L 105.945, 288.709 
	L 105.945, 292.784 
	L 95.032, 292.784 
" />
<path d="M 95.032, 292.784 
	L 95.032, 294.165 
	L 105.945, 294.165 
	L 105.945, 295.512 
	L 93.472, 295.512 
" />
<path d="M 18.001, 313.228 
	L 18.000, 313.228 
	L 18.000, 311.882 
	L 38.409, 311.882 
	L 38.409, 308.232 
	L 18.000, 308.232 
	L 18.000, 304.158 
	L 40.110, 304.158 
	L 40.110, 305.504 
	L 19.701, 305.504 
	L 19.701, 306.886 
	L 40.110, 306.886 
" />
<path d="M 40.110, 306.886 
	L 40.110, 313.228 
	L 18.000, 313.228 
" />
<path d="M 40.111, 313.228 
	L 40.110, 313.228 
	L 40.110, 306.425 
	L 41.811, 306.425 
	L 41.811, 313.228 
	L 40.110, 313.228 
	L 40.110, 305.504 
	L 40.110, 304.158 
	L 41.811, 304.158 
	L 41.811, 305.504 
	L 40.110, 305.504 
" />
<path d="M 41.812, 313.228 
	L 41.811, 313.228 
	L 41.811, 306.425 
	L 54.850, 306.425 
	L 54.850, 313.228 
	L 53.150, 313.228 
	L 53.150, 307.772 
	L 43.512, 307.772 
	L 43.512, 313.228 
	L 41.811, 313.228 
" />
<path d="M 65.481, 309.153 
	L 65.480, 309.154 
	L 65.480, 307.772 
	L 56.126, 307.772 
	L 56.126, 309.154 
	L 65.480, 309.154 
	L 54.567, 313.228 
	L 54.567, 306.425 
	L 67.039, 306.425 
	L 67.039, 310.500 
	L 56.126, 310.500 
	L 56.126, 311.882 
" />
<path d="M 56.126, 311.882 
	L 67.039, 311.882 
	L 67.039, 313.228 
	L 54.567, 313.228 
" />
<path d="M 67.324, 313.228 
	L 67.323, 313.228 
	L 67.323, 304.158 
	L 88.654, 304.158 
	L 84.118, 308.091 
	L 83.374, 308.728 
	L 88.654, 313.228 
	L 86.386, 313.228 
	L 81.106, 308.728 
	L 84.898, 305.504 
	L 69.024, 305.504 
	L 69.024, 313.228 
" />
<path d="M 69.024, 313.228 
	L 67.323, 313.228 
" />
<path d="M 99.993, 311.881 
	L 99.992, 311.882 
	L 99.992, 307.772 
	L 97.724, 307.772 
	L 93.189, 311.882 
	L 99.992, 311.882 
	L 89.398, 313.228 
	L 95.457, 307.772 
	L 89.398, 307.772 
	L 89.398, 306.425 
	L 101.693, 306.425 
	L 101.693, 313.228 
" />
<path d="M 101.693, 313.228 
	L 89.398, 313.228 
" />
<path d="M 100.950, 313.228 
	L 100.949, 313.228 
	L 100.949, 306.425 
	L 102.650, 306.425 
	L 102.650, 311.882 
	L 104.917, 311.882 
	L 110.941, 306.425 
	L 113.209, 306.425 
	L 105.661, 313.228 
	L 100.949, 313.228 
" />
<path d="M 123.839, 309.153 
	L 123.839, 309.154 
	L 123.839, 307.772 
	L 114.484, 307.772 
	L 114.484, 309.154 
	L 123.839, 309.154 
	L 112.925, 313.228 
	L 112.925, 306.425 
	L 125.398, 306.425 
	L 125.398, 310.500 
	L 114.484, 310.500 
" />
<path d="M 114.484, 310.500 
	L 114.484, 311.882 
	L 125.398, 311.882 
	L 125.398, 313.228 
	L 112.925, 313.228 
" />
<path d="M 18.001, 330.944 
	L 18.000, 330.945 
	L 18.000, 324.602 
	L 32.528, 324.602 
	L 35.575, 323.221 
	L 18.000, 323.221 
	L 18.000, 321.874 
	L 39.331, 321.874 
	L 33.307, 325.949 
	L 19.701, 325.949 
	L 19.701, 330.945 
	L 18.000, 330.945 
" />
<path d="M 18.000, 330.945 
" />
<path d="M 50.670, 329.598 
	L 50.669, 329.598 
	L 50.669, 325.488 
	L 48.402, 325.488 
	L 43.866, 329.598 
	L 50.669, 329.598 
	L 40.075, 330.945 
	L 46.134, 325.488 
	L 40.075, 325.488 
	L 40.075, 324.142 
	L 52.370, 324.142 
	L 52.370, 330.945 
" />
<path d="M 52.370, 330.945 
	L 40.075, 330.945 
" />
<path d="M 51.627, 330.944 
	L 51.626, 330.945 
	L 51.626, 321.874 
	L 53.327, 321.874 
	L 53.327, 330.945 
	L 51.626, 330.945 
" />
<path d="M 64.666, 329.598 
	L 64.665, 329.598 
	L 64.665, 325.488 
	L 55.028, 325.488 
	L 55.028, 329.598 
	L 64.665, 329.598 
	L 53.327, 330.945 
	L 53.327, 324.142 
	L 66.366, 324.142 
	L 66.366, 330.945 
	L 53.327, 330.945 
" />
<path d="M 66.367, 330.944 
	L 66.366, 330.945 
	L 66.366, 324.142 
	L 79.406, 324.142 
	L 79.406, 330.945 
	L 77.705, 330.945 
	L 77.705, 325.488 
	L 68.067, 325.488 
	L 68.067, 330.945 
	L 66.366, 330.945 
" />
<path d="M 90.745, 329.598 
	L 90.744, 329.598 
	L 90.744, 325.488 
	L 81.106, 325.488 
	L 81.106, 329.598 
	L 90.744, 329.598 
	L 79.406, 330.945 
	L 79.406, 324.142 
	L 92.445, 324.142 
	L 92.445, 330.945 
	L 79.406, 330.945 
" />
<path d="M 103.784, 329.598 
	L 103.783, 329.598 
	L 103.783, 325.488 
	L 94.146, 325.488 
	L 94.146, 329.598 
	L 103.783, 329.598 
	L 92.445, 333.213 
	L 92.445, 324.142 
	L 105.484, 324.142 
	L 105.484, 330.945 
	L 94.146, 330.945 
" />
<path d="M 94.146, 330.945 
	L 94.146, 333.213 
	L 92.445, 333.213 
" />
<path d="M 105.202, 330.944 
	L 105.201, 330.945 
	L 105.201, 329.598 
	L 116.114, 329.598 
	L 116.114, 328.217 
	L 105.201, 328.217 
	L 105.201, 324.142 
	L 117.673, 324.142 
	L 117.673, 325.488 
	L 106.760, 325.488 
	L 106.760, 326.870 
" />
<path d="M 106.760, 326.870 
	L 117.673, 326.870 
	L 117.673, 330.945 
	L 105.201, 330.945 
" />
<path d="M 117.957, 330.944 
	L 117.957, 330.945 
	L 117.957, 324.142 
	L 119.657, 324.142 
	L 119.657, 330.945 
	L 117.957, 330.945 
	L 117.957, 323.221 
	L 117.957, 321.874 
	L 119.657, 321.874 
	L 119.657, 323.221 
	L 117.957, 323.221 
" />
<path d="M 117.957, 323.221 
" />
<path d="M 130.997, 329.598 
	L 130.996, 329.598 
	L 130.996, 325.488 
	L 128.728, 325.488 
	L 124.193, 329.598 
	L 130.996, 329.598 
	L 120.402, 330.945 
	L 126.461, 325.488 
	L 120.402, 325.488 
	L 120.402, 324.142 
	L 132.697, 324.142 
" />
<path d="M 132.697, 324.142 
	L 132.697, 330.945 
	L 120.402, 330.945 
" />
<path d="M 18.001, 348.661 
	L 18.000, 348.661 
	L 18.000, 339.130 
	L 29.055, 343.878 
	L 40.110, 339.130 
	L 40.110, 348.661 
	L 38.409, 348.661 
	L 38.409, 341.150 
	L 29.055, 345.260 
	L 19.701, 341.150 
	L 19.701, 348.661 
	L 18.000, 348.661 
" />
<path d="M 18.000, 348.661 
" />
<path d="M 51.450, 347.314 
	L 51.449, 347.315 
	L 51.449, 343.205 
	L 41.811, 343.205 
	L 41.811, 347.315 
	L 51.449, 347.315 
	L 40.110, 348.661 
	L 40.110, 341.858 
	L 53.150, 341.858 
	L 53.150, 348.661 
	L 40.110, 348.661 
" />
<path d="M 53.150, 348.661 
	L 53.150, 348.661 
	L 53.150, 341.858 
	L 54.850, 341.858 
	L 54.850, 347.315 
	L 64.488, 347.315 
	L 64.488, 341.858 
	L 66.189, 341.858 
	L 66.189, 348.661 
	L 53.150, 348.661 
" />
<path d="M 66.190, 348.661 
	L 66.189, 348.661 
	L 66.189, 341.858 
	L 79.228, 341.858 
	L 79.228, 348.661 
	L 77.528, 348.661 
	L 77.528, 343.205 
	L 67.890, 343.205 
	L 67.890, 348.661 
	L 66.189, 348.661 
" />
<path d="M 79.229, 348.661 
	L 79.228, 348.661 
	L 79.228, 339.591 
	L 80.929, 339.591 
	L 80.929, 341.858 
	L 91.488, 341.858 
	L 91.488, 343.205 
	L 80.929, 343.205 
	L 80.929, 347.315 
	L 91.488, 347.315 
	L 91.488, 348.661 
	L 79.228, 348.661 
" />
<path d="M 79.228, 348.661 
" />
<path d="M 102.827, 347.314 
	L 102.827, 347.315 
	L 102.827, 343.205 
	L 100.559, 343.205 
	L 96.024, 347.315 
	L 102.827, 347.315 
	L 92.232, 348.661 
	L 98.291, 343.205 
	L 92.232, 343.205 
	L 92.232, 341.858 
	L 104.528, 341.858 
" />
<path d="M 104.528, 341.858 
	L 104.528, 348.661 
	L 92.232, 348.661 
" />
<path d="M 103.784, 348.661 
	L 103.783, 348.661 
	L 103.783, 341.858 
	L 105.484, 341.858 
	L 105.484, 348.661 
	L 103.783, 348.661 
	L 103.783, 340.937 
	L 103.783, 339.591 
	L 105.484, 339.591 
	L 105.484, 340.937 
	L 103.783, 340.937 
" />
<path d="M 103.783, 340.937 
" />
<path d="M 105.485, 348.661 
	L 105.484, 348.661 
	L 105.484, 341.858 
	L 118.524, 341.858 
	L 118.524, 348.661 
	L 116.823, 348.661 
	L 116.823, 343.205 
	L 107.185, 343.205 
	L 107.185, 348.661 
	L 105.484, 348.661 
" />
<path d="M 136.843, 347.314 
	L 136.843, 347.315 
	L 129.295, 340.937 
	L 120.224, 340.937 
	L 120.224, 347.315 
	L 136.843, 347.315 
	L 118.524, 348.661 
	L 118.524, 339.591 
	L 130.039, 339.591 
	L 140.634, 348.661 
	L 118.524, 348.661 
" />
<path d="M 118.524, 348.661 
" />
<path d="M 140.635, 348.661 
	L 140.634, 348.661 
	L 140.634, 341.858 
	L 152.894, 341.858 
	L 152.894, 343.205 
	L 142.335, 343.205 
	L 142.335, 348.661 
	L 140.634, 348.661 
" />
<path d="M 164.233, 347.314 
	L 164.232, 347.315 
	L 164.232, 343.205 
	L 154.595, 343.205 
	L 154.595, 347.315 
	L 164.232, 347.315 
	L 152.894, 348.661 
	L 152.894, 341.858 
	L 165.933, 341.858 
	L 165.933, 348.661 
	L 152.894, 348.661 
" />
<path d="M 152.894, 348.661 
" />
<path d="M 165.934, 348.661 
	L 165.933, 348.661 
	L 165.933, 341.858 
	L 178.972, 341.858 
	L 178.972, 348.661 
	L 177.272, 348.661 
	L 177.272, 343.205 
	L 167.634, 343.205 
	L 167.634, 348.661 
	L 165.933, 348.661 
" />
<path d="M 189.603, 344.586 
	L 189.602, 344.587 
	L 189.602, 343.205 
	L 180.248, 343.205 
	L 180.248, 344.587 
	L 189.602, 344.587 
	L 178.689, 348.661 
	L 178.689, 341.858 
	L 191.161, 341.858 
	L 191.161, 345.933 
	L 180.248, 345.933 
" />
<path d="M 180.248, 345.933 
	L 180.248, 347.315 
	L 191.161, 347.315 
	L 191.161, 348.661 
	L 178.689, 348.661 
" />
<path d="M 13.961, 191.409 
	L 13.961, 191.409 
	L 13.961, 193.075 
	L 13.961, 205.264 
	L 13.961, 206.929 
	L 12.295, 206.929 
	L 10.630, 206.929 
	L 10.630, 205.158 
	L 10.630, 193.075 
	L 10.630, 191.409 
	L 13.961, 191.409 
	L 21.969, 191.409 
" />
<path d="M 21.969, 191.409 
	L 22.535, 191.161 
	L 23.031, 191.161 
	L 23.492, 191.161 
	L 23.917, 191.409 
	L 24.413, 191.764 
	L 24.413, 192.472 
	L 24.413, 192.969 
	L 24.201, 193.642 
	L 19.240, 199.134 
	L 24.201, 204.697 
	L 24.378, 205.087 
" />
<path d="M 24.378, 205.087 
	L 24.378, 205.406 
	L 24.378, 206.114 
	L 23.634, 206.646 
	L 23.280, 206.929 
	L 22.783, 206.929 
	L 21.791, 206.929 
	L 20.303, 205.831 
	L 15.874, 200.835 
	L 14.244, 199.169 
	L 15.874, 197.504 
	L 21.969, 191.409 
" />
<path d="M 21.969, 191.409 
" />
<path d="M 31.855, 203.598 
	L 31.854, 203.598 
	L 36.071, 203.598 
	L 36.035, 197.185 
	L 26.362, 206.256 
	L 25.724, 206.787 
	L 25.157, 206.787 
	L 24.520, 206.787 
	L 23.988, 206.079 
	L 23.528, 205.512 
	L 23.528, 204.945 
	L 23.528, 204.236 
" />
<path d="M 23.528, 204.236 
	L 24.272, 203.634 
	L 36.283, 192.189 
	L 37.169, 191.303 
	L 37.878, 191.303 
	L 38.374, 191.303 
	L 38.551, 191.339 
	L 39.366, 191.622 
	L 39.366, 193.358 
	L 39.366, 204.591 
	L 39.366, 207.000 
	L 36.602, 206.929 
" />
<path d="M 36.602, 206.929 
	L 31.854, 206.929 
	L 29.941, 207.000 
	L 29.941, 205.282 
	L 29.941, 203.563 
	L 31.854, 203.598 
" />
<path d="M 54.674, 203.669 
	L 54.673, 203.669 
	L 54.673, 204.697 
	L 53.575, 205.813 
	L 52.476, 206.929 
	L 51.378, 206.929 
	L 43.618, 206.929 
	L 42.520, 206.929 
	L 41.404, 205.813 
	L 40.287, 204.697 
	L 40.287, 203.598 
	L 40.323, 194.811 
" />
<path d="M 40.323, 194.811 
	L 40.287, 193.642 
	L 41.404, 192.526 
	L 42.520, 191.409 
	L 43.618, 191.409 
	L 51.378, 191.409 
	L 52.476, 191.409 
	L 53.575, 192.526 
	L 54.673, 193.642 
	L 54.673, 194.740 
	L 54.673, 203.669 
	L 51.378, 201.933 
" />
<path d="M 51.378, 201.933 
	L 51.378, 196.406 
	L 51.378, 194.740 
	L 49.713, 194.740 
	L 45.283, 194.740 
	L 43.618, 194.740 
	L 43.618, 196.441 
	L 43.618, 201.933 
	L 43.583, 203.634 
	L 45.283, 203.598 
	L 49.713, 203.598 
	L 51.378, 203.598 
" />
<path d="M 51.378, 203.598 
	L 51.378, 201.933 
" />
<path d="M 66.509, 191.409 
	L 66.508, 191.409 
	L 68.173, 191.409 
	L 68.173, 193.004 
	L 68.173, 194.669 
	L 66.508, 194.740 
	L 55.417, 194.740 
	L 53.752, 194.669 
	L 53.752, 193.075 
	L 53.752, 191.374 
	L 55.417, 191.409 
	L 66.508, 191.409 
" />
<path d="M 66.508, 191.409 
	L 59.280, 198.071 
	L 59.244, 195.874 
	L 61.087, 195.856 
	L 62.929, 195.839 
	L 62.929, 198.071 
	L 62.929, 204.697 
	L 62.823, 206.929 
	L 61.122, 206.929 
	L 61.087, 206.929 
	L 59.244, 206.894 
	L 59.280, 204.697 
" />
<path d="M 59.280, 204.697 
	L 59.280, 198.071 
" />
<path d="M 70.725, 191.409 
	L 70.724, 191.409 
	L 80.681, 191.409 
	L 82.346, 191.409 
	L 82.346, 193.075 
	L 82.346, 194.740 
	L 80.681, 194.740 
	L 73.488, 194.740 
	L 72.390, 194.740 
	L 72.390, 195.839 
	L 72.390, 202.500 
	L 72.390, 203.598 
" />
<path d="M 72.390, 203.598 
	L 73.488, 203.598 
	L 80.681, 203.598 
	L 82.346, 203.598 
	L 82.346, 205.264 
	L 82.346, 206.929 
	L 80.681, 206.929 
	L 70.724, 206.929 
	L 69.059, 206.929 
	L 69.059, 205.264 
	L 69.059, 193.181 
	L 69.059, 191.409 
" />
<path d="M 69.059, 191.409 
	L 70.724, 191.409 
	L 75.720, 197.504 
	L 78.484, 197.504 
	L 80.681, 197.504 
	L 80.681, 199.169 
	L 80.681, 200.835 
	L 78.484, 200.835 
	L 75.720, 200.835 
	L 73.488, 200.835 
	L 73.488, 199.169 
	L 73.488, 197.504 
" />
<path d="M 73.488, 197.504 
	L 75.720, 197.504 
" />
<path d="M 95.564, 206.928 
	L 95.563, 206.929 
	L 87.343, 206.929 
	L 85.287, 206.929 
	L 83.799, 205.476 
	L 82.346, 204.059 
	L 82.346, 202.039 
	L 82.346, 196.158 
	L 82.346, 194.138 
	L 83.799, 192.685 
	L 85.110, 191.409 
	L 87.059, 191.409 
" />
<path d="M 87.059, 191.409 
	L 87.272, 191.409 
	L 87.520, 191.409 
	L 94.394, 191.409 
	L 96.130, 191.409 
	L 96.130, 193.146 
	L 96.130, 194.882 
	L 94.394, 194.882 
	L 88.016, 194.882 
	L 85.783, 194.882 
	L 85.783, 197.008 
	L 85.783, 201.579 
" />
<path d="M 85.783, 201.579 
	L 85.783, 203.492 
	L 88.157, 203.492 
	L 95.563, 203.492 
	L 97.299, 203.492 
	L 97.299, 205.193 
	L 97.264, 206.929 
	L 95.563, 206.929 
" />
<path d="M 107.257, 200.834 
	L 107.256, 200.835 
	L 100.630, 200.835 
	L 98.965, 200.835 
	L 98.965, 199.169 
	L 98.965, 197.504 
	L 100.630, 197.504 
	L 107.256, 197.504 
	L 108.921, 197.504 
	L 108.921, 199.169 
	L 108.921, 200.835 
" />
<path d="M 108.921, 200.835 
	L 107.256, 200.835 
" />
<path d="M 114.698, 203.598 
	L 114.697, 203.598 
	L 118.913, 203.598 
	L 118.878, 197.185 
	L 109.205, 206.256 
	L 108.567, 206.787 
	L 108.000, 206.787 
	L 107.362, 206.787 
	L 106.831, 206.079 
	L 106.370, 205.512 
	L 106.370, 204.945 
" />
<path d="M 106.370, 204.945 
	L 106.370, 204.236 
	L 107.114, 203.634 
	L 119.126, 192.189 
	L 120.012, 191.303 
	L 120.720, 191.303 
	L 121.217, 191.303 
	L 121.394, 191.339 
	L 122.209, 191.622 
	L 122.209, 193.358 
	L 122.209, 204.591 
" />
<path d="M 122.209, 204.591 
	L 122.209, 207.000 
	L 119.445, 206.929 
	L 114.697, 206.929 
	L 112.783, 207.000 
	L 112.783, 205.282 
	L 112.783, 203.563 
	L 114.697, 203.598 
" />
<path d="M 123.095, 191.409 
	L 123.095, 191.409 
	L 124.760, 191.409 
	L 126.425, 191.409 
	L 126.425, 193.642 
	L 126.425, 202.500 
	L 126.425, 203.598 
	L 127.524, 203.598 
	L 133.122, 203.598 
	L 135.390, 203.598 
	L 135.425, 205.228 
" />
<path d="M 135.425, 205.228 
	L 135.425, 206.858 
	L 133.122, 206.929 
	L 125.681, 206.929 
	L 123.095, 206.929 
	L 123.095, 204.201 
	L 123.095, 193.606 
	L 123.095, 191.409 
" />
<path d="M 149.493, 202.322 
	L 149.492, 202.323 
	L 149.492, 204.697 
	L 148.553, 205.813 
	L 147.614, 206.929 
	L 144.957, 206.894 
	L 137.161, 206.929 
	L 135.425, 206.929 
	L 135.425, 205.193 
	L 135.425, 198.071 
	L 135.461, 195.839 
" />
<path d="M 135.461, 195.839 
	L 137.108, 195.839 
	L 138.756, 195.839 
	L 138.720, 198.071 
	L 138.720, 203.705 
	L 144.283, 203.705 
	L 146.020, 203.705 
	L 146.020, 202.252 
	L 146.020, 200.799 
	L 144.248, 200.799 
	L 142.087, 200.835 
" />
<path d="M 142.087, 200.835 
	L 139.783, 200.835 
	L 139.819, 199.169 
	L 139.854, 197.504 
	L 142.087, 197.504 
	L 144.283, 197.504 
	L 146.020, 197.539 
	L 146.037, 196.140 
	L 146.055, 194.740 
	L 144.390, 194.740 
	L 137.091, 194.740 
" />
<path d="M 137.091, 194.740 
	L 135.425, 194.740 
	L 135.425, 193.146 
	L 135.425, 191.409 
	L 137.161, 191.409 
	L 144.850, 191.409 
	L 147.047, 191.409 
	L 148.163, 192.526 
	L 149.280, 193.642 
	L 149.386, 195.839 
	L 149.386, 198.177 
" />
<path d="M 149.386, 198.177 
	L 147.969, 199.028 
	L 149.492, 200.020 
	L 149.492, 202.323 
" />
<path d="M 149.528, 191.444 
	L 149.528, 191.445 
	L 151.158, 191.445 
	L 151.193, 191.445 
	L 152.858, 191.445 
	L 152.787, 193.677 
	L 152.787, 201.969 
	L 152.787, 203.598 
	L 154.453, 203.634 
	L 158.846, 203.598 
	L 160.583, 203.634 
" />
<path d="M 160.583, 203.634 
	L 160.583, 201.898 
	L 160.583, 193.642 
	L 160.618, 191.409 
	L 162.283, 191.409 
	L 163.913, 191.409 
	L 163.913, 193.535 
	L 163.913, 203.598 
	L 163.913, 204.661 
	L 163.063, 205.778 
	L 162.213, 206.894 
" />
<path d="M 162.213, 206.894 
	L 161.079, 206.894 
	L 152.256, 206.894 
	L 151.122, 206.894 
	L 150.325, 205.795 
	L 149.528, 204.697 
	L 149.528, 203.598 
	L 149.492, 193.642 
	L 149.528, 191.445 
" />
<path d="M 175.359, 192.153 
	L 175.358, 192.154 
	L 176.244, 191.409 
	L 176.988, 191.409 
	L 177.272, 191.409 
	L 177.520, 191.516 
	L 178.476, 191.870 
	L 178.476, 193.500 
	L 178.476, 205.016 
	L 178.441, 207.000 
	L 176.811, 207.000 
" />
<path d="M 176.811, 207.000 
	L 176.776, 207.000 
	L 175.146, 207.000 
	L 175.110, 204.980 
	L 175.110, 198.142 
	L 175.075, 197.150 
	L 174.508, 197.681 
	L 166.039, 206.185 
	L 165.154, 207.000 
	L 164.409, 207.000 
	L 163.878, 207.000 
" />
<path d="M 163.878, 207.000 
	L 163.382, 206.504 
	L 162.886, 206.043 
	L 162.886, 205.476 
	L 162.886, 204.697 
	L 163.736, 203.811 
	L 175.358, 192.154 
	L 188.717, 191.835 
	L 188.717, 193.500 
	L 188.717, 204.768 
	L 188.717, 207.000 
" />
<path d="M 188.717, 207.000 
	L 187.051, 207.000 
	L 185.386, 207.000 
	L 185.386, 204.768 
	L 185.386, 198.142 
	L 185.386, 197.433 
	L 184.748, 197.965 
	L 182.587, 200.161 
	L 180.957, 201.295 
	L 180.071, 200.091 
	L 179.185, 198.886 
" />
<path d="M 179.185, 198.886 
	L 180.461, 197.469 
	L 185.669, 192.189 
	L 186.413, 191.409 
	L 187.193, 191.409 
	L 187.441, 191.409 
	L 187.689, 191.480 
	L 188.717, 191.835 
" />
<path d="M 204.166, 203.669 
	L 204.165, 203.669 
	L 204.165, 204.697 
	L 203.067, 205.813 
	L 201.969, 206.929 
	L 200.870, 206.929 
	L 193.110, 206.929 
	L 192.012, 206.929 
	L 190.896, 205.813 
	L 189.780, 204.697 
	L 189.780, 203.598 
" />
<path d="M 189.780, 203.598 
	L 189.815, 194.811 
	L 189.780, 193.642 
	L 190.896, 192.526 
	L 192.012, 191.409 
	L 193.110, 191.409 
	L 200.870, 191.409 
	L 201.969, 191.409 
	L 203.067, 192.526 
	L 204.165, 193.642 
	L 204.165, 194.740 
" />
<path d="M 204.165, 194.740 
	L 204.165, 203.669 
	L 200.870, 201.933 
	L 200.870, 196.406 
	L 200.870, 194.740 
	L 199.205, 194.740 
	L 194.776, 194.740 
	L 193.110, 194.740 
	L 193.110, 196.441 
	L 193.110, 201.933 
	L 193.075, 203.634 
" />
<path d="M 193.075, 203.634 
	L 194.776, 203.598 
	L 199.205, 203.598 
	L 200.870, 203.598 
	L 200.870, 201.933 
" />
<path d="M 218.552, 203.669 
	L 218.551, 203.669 
	L 218.551, 204.697 
	L 217.453, 205.813 
	L 216.354, 206.929 
	L 215.256, 206.929 
	L 207.496, 206.929 
	L 206.398, 206.929 
	L 205.282, 205.813 
	L 204.165, 204.697 
	L 204.165, 203.598 
" />
<path d="M 204.165, 203.598 
	L 204.201, 194.811 
	L 204.165, 193.642 
	L 205.282, 192.526 
	L 206.398, 191.409 
	L 207.496, 191.409 
	L 215.256, 191.409 
	L 216.354, 191.409 
	L 217.453, 192.526 
	L 218.551, 193.642 
	L 218.551, 194.740 
" />
<path d="M 218.551, 194.740 
	L 218.551, 203.669 
	L 215.256, 201.933 
	L 215.256, 196.406 
	L 215.256, 194.740 
	L 213.591, 194.740 
	L 209.161, 194.740 
	L 207.496, 194.740 
	L 207.496, 196.441 
	L 207.496, 201.933 
	L 207.461, 203.634 
" />
<path d="M 207.461, 203.634 
	L 209.161, 203.598 
	L 213.591, 203.598 
	L 215.256, 203.598 
	L 215.256, 201.933 
" />
<path d="M 225.780, 204.696 
	L 225.780, 204.697 
	L 225.780, 206.929 
	L 224.150, 206.929 
	L 222.484, 206.929 
	L 222.413, 204.697 
	L 222.413, 193.642 
	L 222.484, 191.409 
	L 224.150, 191.409 
	L 225.780, 191.409 
	L 225.780, 193.642 
" />
<path d="M 225.780, 193.642 
	L 225.780, 204.697 
" />
<path d="M 644.882, 634.961 
	L 644.882, 638.150 
	L 644.173, 639.213 
	L 642.756, 639.213 
	L 642.047, 638.150 
	L 642.047, 636.024 
	L 644.882, 636.024 
" />
<path d="M 640.630, 631.772 
	L 640.630, 630.709 
	L 644.882, 630.709 
" />
<path d="M 644.882, 631.772 
	L 644.882, 629.646 
" />
<path d="M 644.882, 626.457 
	L 644.882, 623.268 
	L 644.173, 622.205 
	L 642.756, 622.205 
	L 642.047, 623.268 
	L 642.047, 625.394 
" />
<path d="M 640.630, 625.394 
	L 644.882, 625.394 
" />
<path d="M 642.047, 620.079 
	L 644.173, 620.079 
	L 644.882, 619.016 
	L 644.882, 616.890 
	L 642.047, 616.890 
" />
<path d="M 644.882, 613.701 
	L 642.047, 613.701 
" />
<path d="M 642.756, 613.701 
	L 642.047, 612.638 
	L 642.756, 611.575 
	L 644.882, 611.575 
" />
<path d="M 642.756, 611.575 
	L 642.047, 610.512 
	L 642.756, 609.449 
	L 644.882, 609.449 
" />
<path d="M 644.173, 607.323 
	L 644.882, 606.260 
	L 644.882, 604.134 
	L 644.173, 603.071 
	L 641.339, 603.071 
	L 640.630, 604.134 
	L 640.630, 606.260 
	L 641.339, 607.323 
	L 644.173, 607.323 
" />
<path d="M 644.173, 600.945 
	L 644.882, 599.882 
	L 644.882, 597.756 
	L 644.173, 596.693 
	L 641.339, 596.693 
	L 640.630, 597.756 
	L 640.630, 599.882 
	L 641.339, 600.945 
	L 644.173, 600.945 
" />
<path d="M 644.882, 593.504 
	L 644.882, 591.378 
" />
<path d="M 644.882, 592.441 
	L 640.630, 592.441 
	L 641.339, 593.504 
" />
<path d="M 644.173, 583.937 
	L 644.882, 585.000 
	L 644.882, 586.063 
	L 644.173, 587.126 
	L 642.756, 587.126 
	L 642.047, 586.063 
	L 642.047, 585.000 
	L 642.756, 583.937 
" />
<path d="M 644.882, 580.748 
	L 644.173, 581.811 
	L 642.756, 581.811 
	L 642.047, 580.748 
	L 642.047, 579.685 
	L 642.756, 578.622 
	L 644.173, 578.622 
	L 644.882, 579.685 
	L 644.882, 580.748 
" />
<path d="M 642.047, 575.433 
	L 643.465, 575.433 
	L 644.882, 573.307 
	L 643.465, 571.181 
	L 642.047, 571.181 
" />
<path d="M 643.465, 569.055 
	L 643.465, 565.866 
	L 642.756, 564.803 
	L 642.047, 565.866 
	L 642.047, 567.992 
	L 642.756, 569.055 
	L 644.173, 569.055 
	L 644.882, 567.992 
	L 644.882, 564.803 
" />
<path d="M 642.047, 562.677 
	L 644.882, 562.677 
" />
<path d="M 643.465, 562.677 
	L 642.047, 560.551 
	L 642.047, 559.488 
" />
<path d="M 640.630, 548.858 
	L 644.882, 548.858 
	L 644.882, 546.732 
" />
<path d="M 642.047, 549.921 
	L 642.047, 546.732 
" />
<path d="M 643.465, 543.543 
	L 643.465, 540.354 
	L 642.756, 539.291 
	L 642.047, 540.354 
	L 642.047, 542.480 
	L 642.756, 543.543 
	L 644.173, 543.543 
	L 644.882, 542.480 
	L 644.882, 539.291 
" />
<path d="M 642.047, 533.976 
	L 642.047, 536.102 
	L 642.756, 537.165 
	L 643.465, 536.102 
	L 643.465, 535.039 
	L 644.173, 533.976 
	L 644.882, 535.039 
	L 644.882, 537.165 
" />
<path d="M 640.630, 529.724 
	L 644.882, 529.724 
	L 644.882, 527.599 
" />
<path d="M 642.047, 530.787 
	L 642.047, 527.599 
" />
<path d="M 641.339, 498.898 
	L 640.630, 497.835 
	L 640.630, 495.709 
	L 641.339, 494.646 
	L 642.047, 494.646 
	L 644.173, 498.898 
	L 644.882, 498.898 
	L 644.882, 494.646 
" />
<path d="M 644.173, 492.520 
	L 644.882, 491.457 
	L 644.882, 489.331 
	L 644.173, 488.268 
	L 641.339, 488.268 
	L 640.630, 489.331 
	L 640.630, 491.457 
	L 641.339, 492.520 
	L 644.173, 492.520 
" />
<path d="M 644.882, 485.079 
	L 644.882, 482.953 
" />
<path d="M 644.882, 484.016 
	L 640.630, 484.016 
	L 641.339, 485.079 
" />
<path d="M 644.882, 478.701 
	L 644.882, 477.638 
	L 643.465, 475.512 
	L 641.339, 475.512 
	L 640.630, 476.575 
	L 640.630, 478.701 
	L 641.339, 479.764 
	L 642.047, 479.764 
	L 642.756, 478.701 
	L 642.756, 475.512 
" />
<path d="M 642.756, 473.386 
	L 642.756, 469.134 
" />
<path d="M 644.882, 465.945 
	L 644.882, 463.819 
" />
<path d="M 644.882, 464.882 
	L 640.630, 464.882 
	L 641.339, 465.945 
" />
<path d="M 644.882, 459.567 
	L 644.882, 457.441 
" />
<path d="M 644.882, 458.504 
	L 640.630, 458.504 
	L 641.339, 459.567 
" />
<path d="M 642.756, 454.252 
	L 642.756, 450.000 
" />
<path d="M 641.339, 447.874 
	L 640.630, 446.811 
	L 640.630, 444.685 
	L 641.339, 443.622 
	L 642.047, 443.622 
	L 644.173, 447.874 
	L 644.882, 447.874 
	L 644.882, 443.622 
" />
<path d="M 640.630, 437.244 
	L 640.630, 441.496 
	L 642.047, 441.496 
	L 642.047, 438.307 
	L 642.756, 437.244 
	L 644.173, 437.244 
	L 644.882, 438.307 
	L 644.882, 440.433 
	L 644.173, 441.496 
" />
<path d="M 644.882, 427.677 
	L 644.882, 425.551 
" />
<path d="M 644.882, 426.614 
	L 640.630, 426.614 
	L 641.339, 427.677 
" />
<path d="M 640.630, 419.173 
	L 642.756, 422.362 
	L 643.465, 422.362 
	L 643.465, 418.110 
" />
<path d="M 642.756, 419.173 
	L 644.882, 419.173 
" />
<path d="M 642.756, 414.921 
	L 642.047, 414.921 
	L 642.047, 413.858 
	L 642.756, 413.858 
	L 642.756, 414.921 
" />
<path d="M 644.173, 414.921 
	L 644.173, 413.858 
	L 644.882, 413.858 
	L 644.882, 414.921 
	L 644.173, 414.921 
" />
<path d="M 644.173, 409.606 
	L 644.882, 408.543 
	L 644.882, 406.417 
	L 644.173, 405.354 
	L 643.465, 405.354 
	L 642.756, 406.417 
	L 642.756, 407.480 
	L 640.630, 405.354 
	L 640.630, 409.606 
" />
<path d="M 640.630, 403.228 
	L 640.630, 398.976 
	L 641.339, 398.976 
	L 643.465, 403.228 
	L 644.882, 403.228 
" />
</g>
</svg>
