<?xml version="1.0" encoding="UTF-8" standalone="no" ?>
<svg width="100%" height="100%" viewBox="0 0 644.882 671.097" xmlns="http://www.w3.org/2000/svg"><g>
</g><g style="stroke:rgb(0,0,0); fill:none; stroke-width:1.000mm" >
</g><g style="stroke:rgb(0,0,0); fill:none; stroke-width:0.100mm" >
<path d="M 0.001, 671.097 
	L 0.000, 671.097 
	L 0.000, 33.302 
	L 637.795, 33.302 
	L 637.795, 671.097 
	L 0.000, 671.097 
" />
<path d="M 0.001, 668.926 
	L 0.000, 668.927 
	L 7.087, 661.111 
	L 14.173, 672.026 
	L 21.260, 679.915 
	L 28.346, 678.241 
	L 35.433, 673.891 
	L 42.520, 686.045 
	L 49.606, 682.815 
	L 56.693, 679.882 
	L 63.780, 671.097 
	L 70.866, 664.354 
" />
<path d="M 70.866, 664.354 
	L 77.953, 663.673 
	L 85.039, 669.667 
	L 92.126, 681.296 
	L 99.213, 693.724 
	L 106.299, 701.146 
	L 113.386, 702.690 
	L 120.472, 703.141 
	L 127.559, 704.400 
	L 134.646, 693.652 
	L 141.732, 687.273 
" />
<path d="M 141.732, 687.273 
	L 148.819, 693.384 
	L 155.906, 683.269 
	L 162.992, 681.676 
	L 170.079, 680.082 
	L 177.165, 681.675 
	L 184.252, 682.445 
	L 191.339, 687.822 
	L 198.425, 679.418 
	L 205.512, 671.097 
	L 212.598, 658.339 
" />
<path d="M 212.598, 658.339 
	L 219.685, 647.937 
	L 226.772, 645.712 
	L 233.858, 644.377 
	L 240.945, 641.492 
	L 248.032, 637.661 
	L 255.118, 647.201 
	L 262.205, 652.553 
	L 269.291, 652.630 
	L 276.378, 648.543 
" />
<path d="M 0.001, 661.584 
	L 0.000, 661.585 
	L 3.543, 652.852 
	L 7.087, 665.048 
	L 10.630, 673.863 
	L 14.173, 671.992 
	L 17.717, 667.132 
	L 21.260, 680.712 
	L 24.803, 677.103 
	L 28.346, 673.826 
	L 31.890, 664.011 
	L 35.433, 656.476 
" />
<path d="M 35.433, 656.476 
	L 38.976, 655.715 
	L 42.520, 662.413 
	L 46.063, 675.405 
	L 49.606, 689.292 
	L 53.150, 697.584 
	L 56.693, 699.310 
	L 60.236, 699.814 
	L 63.780, 701.219 
	L 67.323, 689.212 
	L 70.866, 682.085 
	L 74.409, 688.912 
" />
<path d="M 74.409, 688.912 
	L 77.953, 677.610 
	L 81.496, 675.831 
	L 85.039, 674.049 
	L 88.583, 675.829 
	L 92.126, 676.690 
	L 95.669, 682.698 
	L 99.213, 673.307 
	L 102.756, 664.011 
	L 106.299, 649.756 
	L 109.843, 638.133 
	L 113.386, 635.648 
" />
<path d="M 113.386, 635.648 
	L 116.929, 634.156 
	L 120.472, 630.932 
	L 124.016, 626.652 
	L 127.559, 637.311 
	L 131.102, 643.292 
	L 134.646, 643.377 
	L 138.189, 638.810 
" />
<path d="M 0.001, 654.350 
	L 0.000, 654.350 
	L 2.339, 645.082 
	L 4.677, 658.025 
	L 7.016, 667.379 
	L 9.354, 665.394 
	L 11.693, 660.237 
	L 14.031, 674.649 
	L 16.370, 670.818 
	L 18.709, 667.340 
	L 21.047, 656.924 
	L 23.386, 648.928 
" />
<path d="M 23.386, 648.928 
	L 25.724, 648.120 
	L 28.063, 655.228 
	L 30.402, 669.017 
	L 32.740, 683.753 
	L 35.079, 692.554 
	L 37.417, 694.385 
	L 39.756, 694.920 
	L 42.094, 696.412 
	L 44.433, 683.668 
	L 46.772, 676.105 
	L 49.110, 683.350 
" />
<path d="M 49.110, 683.350 
	L 51.449, 671.357 
	L 53.787, 669.468 
	L 56.126, 667.578 
	L 58.465, 669.467 
	L 60.803, 670.380 
	L 63.142, 676.755 
	L 65.480, 666.790 
	L 67.819, 656.924 
	L 70.157, 641.796 
	L 72.496, 629.461 
	L 74.835, 626.824 
" />
<path d="M 74.835, 626.824 
	L 77.173, 625.241 
	L 79.512, 621.820 
	L 81.850, 617.278 
	L 84.189, 628.589 
	L 86.528, 634.936 
	L 88.866, 635.027 
	L 91.205, 630.181 
" />
<path d="M 0.001, 647.136 
	L 0.000, 647.137 
	L 1.772, 637.412 
	L 3.543, 650.993 
	L 5.315, 660.808 
	L 7.087, 658.725 
	L 8.858, 653.314 
	L 10.630, 668.435 
	L 12.402, 664.416 
	L 14.173, 660.767 
	L 15.945, 649.838 
	L 17.717, 641.447 
" />
<path d="M 17.717, 641.447 
	L 19.488, 640.600 
	L 21.260, 648.058 
	L 23.031, 662.526 
	L 24.803, 677.989 
	L 26.575, 687.224 
	L 28.346, 689.145 
	L 30.118, 689.706 
	L 31.890, 691.272 
	L 33.661, 677.900 
	L 35.433, 669.964 
	L 37.205, 677.567 
" />
<path d="M 37.205, 677.567 
	L 38.976, 664.982 
	L 40.748, 663.000 
	L 42.520, 661.016 
	L 44.291, 662.998 
	L 46.063, 663.956 
	L 47.835, 670.646 
	L 49.606, 660.190 
	L 51.378, 649.838 
	L 53.150, 633.964 
	L 54.921, 621.021 
	L 56.693, 618.254 
" />
<path d="M 56.693, 618.254 
	L 58.465, 616.592 
	L 60.236, 613.003 
	L 62.008, 608.237 
	L 63.780, 620.106 
	L 65.551, 626.765 
	L 67.323, 626.861 
	L 69.094, 621.775 
" />
<path d="M 0.001, 640.057 
	L 0.000, 640.057 
	L 1.417, 630.359 
	L 2.835, 643.903 
	L 4.252, 653.692 
	L 5.669, 651.615 
	L 7.087, 646.218 
	L 8.504, 661.299 
	L 9.921, 657.291 
	L 11.339, 653.652 
	L 12.756, 642.751 
	L 14.173, 634.383 
" />
<path d="M 14.173, 634.383 
	L 15.591, 633.538 
	L 17.008, 640.976 
	L 18.425, 655.406 
	L 19.843, 670.827 
	L 21.260, 680.038 
	L 22.677, 681.954 
	L 24.094, 682.514 
	L 25.512, 684.075 
	L 26.929, 670.739 
	L 28.346, 662.824 
	L 29.764, 670.406 
" />
<path d="M 29.764, 670.406 
	L 31.181, 657.855 
	L 32.598, 655.878 
	L 34.016, 653.900 
	L 35.433, 655.877 
	L 36.850, 656.833 
	L 38.268, 663.504 
	L 39.685, 653.075 
	L 41.102, 642.751 
	L 42.520, 626.919 
	L 43.937, 614.011 
	L 45.354, 611.251 
" />
<path d="M 45.354, 611.251 
	L 46.772, 609.593 
	L 48.189, 606.014 
	L 49.606, 601.261 
	L 51.024, 613.098 
	L 52.441, 619.740 
	L 53.858, 619.836 
	L 55.276, 614.763 
" />
<path d="M 0.001, 632.964 
	L 0.000, 632.964 
	L 1.134, 623.242 
	L 2.268, 636.819 
	L 3.402, 646.633 
	L 4.535, 644.550 
	L 5.669, 639.140 
	L 6.803, 654.259 
	L 7.937, 650.240 
	L 9.071, 646.592 
	L 10.205, 635.664 
	L 11.339, 627.276 
" />
<path d="M 11.339, 627.276 
	L 12.472, 626.428 
	L 13.606, 633.886 
	L 14.740, 648.351 
	L 15.874, 663.810 
	L 17.008, 673.043 
	L 18.142, 674.965 
	L 19.276, 675.525 
	L 20.409, 677.091 
	L 21.543, 663.721 
	L 22.677, 655.787 
	L 23.811, 663.388 
" />
<path d="M 23.811, 663.388 
	L 24.945, 650.806 
	L 26.079, 648.824 
	L 27.213, 646.841 
	L 28.346, 648.823 
	L 29.480, 649.781 
	L 30.614, 656.469 
	L 31.748, 646.014 
	L 32.882, 635.664 
	L 34.016, 619.794 
	L 35.150, 606.854 
	L 36.283, 604.086 
" />
<path d="M 36.283, 604.086 
	L 37.417, 602.425 
	L 38.551, 598.837 
	L 39.685, 594.072 
	L 40.819, 605.938 
	L 41.953, 612.597 
	L 43.087, 612.692 
	L 44.220, 607.608 
" />
<path d="M 0.001, 625.892 
	L 0.000, 625.893 
	L 0.992, 616.224 
	L 1.984, 629.726 
	L 2.976, 639.485 
	L 3.969, 637.414 
	L 4.961, 632.034 
	L 5.953, 647.069 
	L 6.945, 643.073 
	L 7.937, 639.444 
	L 8.929, 628.578 
	L 9.921, 620.235 
" />
<path d="M 9.921, 620.235 
	L 10.913, 619.394 
	L 11.906, 626.809 
	L 12.898, 641.193 
	L 13.890, 656.568 
	L 14.882, 665.749 
	L 15.874, 667.659 
	L 16.866, 668.217 
	L 17.858, 669.774 
	L 18.850, 656.478 
	L 19.843, 648.588 
	L 20.835, 656.148 
" />
<path d="M 20.835, 656.148 
	L 21.827, 643.635 
	L 22.819, 641.664 
	L 23.811, 639.692 
	L 24.803, 641.663 
	L 25.795, 642.616 
	L 26.787, 649.266 
	L 27.780, 638.870 
	L 28.772, 628.578 
	L 29.764, 612.796 
	L 30.756, 599.927 
	L 31.748, 597.176 
" />
<path d="M 31.748, 597.176 
	L 32.740, 595.523 
	L 33.732, 591.955 
	L 34.724, 587.217 
	L 35.717, 599.017 
	L 36.709, 605.638 
	L 37.701, 605.733 
	L 38.693, 600.677 
" />
<path d="M 0.001, 618.967 
	L 0.000, 618.968 
	L 0.850, 609.882 
	L 1.701, 622.570 
	L 2.551, 631.741 
	L 3.402, 629.795 
	L 4.252, 624.739 
	L 5.102, 638.868 
	L 5.953, 635.112 
	L 6.803, 631.703 
	L 7.654, 621.491 
	L 8.504, 613.652 
" />
<path d="M 8.504, 613.652 
	L 9.354, 612.860 
	L 10.205, 619.829 
	L 11.055, 633.346 
	L 11.906, 647.794 
	L 12.756, 656.422 
	L 13.606, 658.217 
	L 14.457, 658.741 
	L 15.307, 660.204 
	L 16.157, 647.710 
	L 17.008, 640.295 
	L 17.858, 647.399 
" />
<path d="M 17.858, 647.399 
	L 18.709, 635.640 
	L 19.559, 633.789 
	L 20.409, 631.935 
	L 21.260, 633.788 
	L 22.110, 634.683 
	L 22.961, 640.933 
	L 23.811, 631.164 
	L 24.661, 621.491 
	L 25.512, 606.660 
	L 26.362, 594.568 
	L 27.213, 591.982 
" />
<path d="M 27.213, 591.982 
	L 28.063, 590.429 
	L 28.913, 587.075 
	L 29.764, 582.622 
	L 30.614, 593.712 
	L 31.465, 599.934 
	L 32.315, 600.024 
	L 33.165, 595.272 
" />
<path d="M 0.001, 611.972 
	L 0.000, 611.973 
	L 0.780, 603.220 
	L 1.559, 615.444 
	L 2.339, 624.280 
	L 3.118, 622.405 
	L 3.898, 617.533 
	L 4.677, 631.146 
	L 5.457, 627.528 
	L 6.236, 624.243 
	L 7.016, 614.405 
	L 7.795, 606.852 
" />
<path d="M 7.795, 606.852 
	L 8.575, 606.089 
	L 9.354, 612.803 
	L 10.134, 625.827 
	L 10.913, 639.746 
	L 11.693, 648.059 
	L 12.472, 649.788 
	L 13.252, 650.293 
	L 14.031, 651.702 
	L 14.811, 639.665 
	L 15.591, 632.521 
	L 16.370, 639.366 
" />
<path d="M 16.370, 639.366 
	L 17.150, 628.037 
	L 17.929, 626.253 
	L 18.709, 624.467 
	L 19.488, 626.251 
	L 20.268, 627.114 
	L 21.047, 633.136 
	L 21.827, 623.723 
	L 22.606, 614.405 
	L 23.386, 600.116 
	L 24.165, 588.465 
	L 24.945, 585.974 
" />
<path d="M 24.945, 585.974 
	L 25.724, 584.478 
	L 26.504, 581.246 
	L 27.283, 576.957 
	L 28.063, 587.641 
	L 28.843, 593.635 
	L 29.622, 593.722 
	L 30.402, 589.144 
" />
<path d="M 0.001, 604.967 
	L 0.000, 604.968 
	L 0.709, 596.507 
	L 1.417, 608.323 
	L 2.126, 616.863 
	L 2.835, 615.051 
	L 3.543, 610.342 
	L 4.252, 623.499 
	L 4.961, 620.002 
	L 5.669, 616.827 
	L 6.378, 607.318 
	L 7.087, 600.018 
" />
<path d="M 7.087, 600.018 
	L 7.795, 599.281 
	L 8.504, 605.770 
	L 9.213, 618.357 
	L 9.921, 631.811 
	L 10.630, 639.845 
	L 11.339, 641.517 
	L 12.047, 642.005 
	L 12.756, 643.368 
	L 13.465, 631.733 
	L 14.173, 624.829 
	L 14.882, 631.444 
" />
<path d="M 14.882, 631.444 
	L 15.591, 620.494 
	L 16.299, 618.770 
	L 17.008, 617.044 
	L 17.717, 618.768 
	L 18.425, 619.602 
	L 19.134, 625.422 
	L 19.843, 616.325 
	L 20.551, 607.318 
	L 21.260, 593.508 
	L 21.969, 582.246 
	L 22.677, 579.838 
" />
<path d="M 22.677, 579.838 
	L 23.386, 578.392 
	L 24.094, 575.269 
	L 24.803, 571.123 
	L 25.512, 581.450 
	L 26.220, 587.244 
	L 26.929, 587.327 
	L 27.638, 582.902 
" />
<path d="M 0.001, 598.156 
	L 0.000, 598.157 
	L 0.638, 590.688 
	L 1.276, 601.119 
	L 1.913, 608.657 
	L 2.551, 607.058 
	L 3.189, 602.901 
	L 3.827, 614.516 
	L 4.465, 611.429 
	L 5.102, 608.626 
	L 5.740, 600.231 
	L 6.378, 593.787 
" />
<path d="M 6.378, 593.787 
	L 7.016, 593.136 
	L 7.654, 598.865 
	L 8.291, 609.977 
	L 8.929, 621.854 
	L 9.567, 628.947 
	L 10.205, 630.422 
	L 10.843, 630.853 
	L 11.480, 632.056 
	L 12.118, 621.785 
	L 12.756, 615.690 
	L 13.394, 621.529 
" />
<path d="M 13.394, 621.529 
	L 14.031, 611.863 
	L 14.669, 610.341 
	L 15.307, 608.817 
	L 15.945, 610.340 
	L 16.583, 611.076 
	L 17.220, 616.214 
	L 17.858, 608.182 
	L 18.496, 600.231 
	L 19.134, 588.039 
	L 19.772, 578.098 
	L 20.409, 575.972 
" />
<path d="M 20.409, 575.972 
	L 21.047, 574.696 
	L 21.685, 571.939 
	L 22.323, 568.279 
	L 22.961, 577.395 
	L 23.598, 582.510 
	L 24.236, 582.583 
	L 24.874, 578.677 
" />
<path d="M 0.001, 591.179 
	L 0.000, 591.180 
	L 0.567, 584.104 
	L 1.134, 593.985 
	L 1.701, 601.127 
	L 2.268, 599.611 
	L 2.835, 595.674 
	L 3.402, 606.677 
	L 3.969, 603.753 
	L 4.535, 601.097 
	L 5.102, 593.145 
	L 5.669, 587.040 
" />
<path d="M 5.669, 587.040 
	L 6.236, 586.424 
	L 6.803, 591.850 
	L 7.370, 602.377 
	L 7.937, 613.628 
	L 8.504, 620.347 
	L 9.071, 621.746 
	L 9.638, 622.154 
	L 10.205, 623.293 
	L 10.772, 613.563 
	L 11.339, 607.789 
	L 11.906, 613.320 
" />
<path d="M 11.906, 613.320 
	L 12.472, 604.164 
	L 13.039, 602.722 
	L 13.606, 601.278 
	L 14.173, 602.721 
	L 14.740, 603.418 
	L 15.307, 608.285 
	L 15.874, 600.677 
	L 16.441, 593.145 
	L 17.008, 581.595 
	L 17.575, 572.177 
	L 18.142, 570.164 
" />
<path d="M 18.142, 570.164 
	L 18.709, 568.955 
	L 19.276, 566.343 
	L 19.843, 562.876 
	L 20.409, 571.511 
	L 20.976, 576.357 
	L 21.543, 576.427 
	L 22.110, 572.727 
" />
<path d="M 0.001, 584.230 
	L 0.000, 584.230 
	L 0.496, 577.649 
	L 0.992, 586.840 
	L 1.488, 593.482 
	L 1.984, 592.072 
	L 2.480, 588.410 
	L 2.976, 598.644 
	L 3.472, 595.924 
	L 3.969, 593.454 
	L 4.465, 586.058 
	L 4.961, 580.380 
" />
<path d="M 4.961, 580.380 
	L 5.457, 579.807 
	L 5.953, 584.854 
	L 6.449, 594.645 
	L 6.945, 605.109 
	L 7.441, 611.359 
	L 7.937, 612.659 
	L 8.433, 613.038 
	L 8.929, 614.098 
	L 9.425, 605.049 
	L 9.921, 599.679 
	L 10.417, 604.823 
" />
<path d="M 10.417, 604.823 
	L 10.913, 596.307 
	L 11.409, 594.965 
	L 11.906, 593.623 
	L 12.402, 594.965 
	L 12.898, 595.613 
	L 13.394, 600.140 
	L 13.890, 593.064 
	L 14.386, 586.058 
	L 14.882, 575.316 
	L 15.378, 566.557 
	L 15.874, 564.684 
" />
<path d="M 15.874, 564.684 
	L 16.370, 563.559 
	L 16.866, 561.131 
	L 17.362, 557.906 
	L 17.858, 565.937 
	L 18.354, 570.444 
	L 18.850, 570.509 
	L 19.346, 567.067 
" />
<path d="M 0.001, 577.297 
	L 0.000, 577.298 
	L 0.496, 571.269 
	L 0.992, 579.687 
	L 1.488, 585.772 
	L 1.984, 584.481 
	L 2.480, 581.126 
	L 2.976, 590.500 
	L 3.472, 588.008 
	L 3.969, 585.746 
	L 4.465, 578.971 
	L 4.961, 573.771 
" />
<path d="M 4.961, 573.771 
	L 5.457, 573.245 
	L 5.953, 577.869 
	L 6.449, 586.837 
	L 6.945, 596.422 
	L 7.441, 602.146 
	L 7.937, 603.337 
	L 8.433, 603.685 
	L 8.929, 604.655 
	L 9.425, 596.366 
	L 9.921, 591.447 
	L 10.417, 596.160 
" />
<path d="M 10.417, 596.160 
	L 10.913, 588.358 
	L 11.409, 587.130 
	L 11.906, 585.901 
	L 12.402, 587.130 
	L 12.898, 587.723 
	L 13.394, 591.870 
	L 13.890, 585.388 
	L 14.386, 578.971 
	L 14.882, 569.132 
	L 15.378, 561.109 
	L 15.874, 559.393 
" />
<path d="M 15.874, 559.393 
	L 16.370, 558.364 
	L 16.866, 556.138 
	L 17.362, 553.185 
	L 17.858, 560.541 
	L 18.354, 564.670 
	L 18.850, 564.729 
	L 19.346, 561.577 
" />
<path d="M 0.001, 570.314 
	L 0.000, 570.315 
	L 0.425, 564.662 
	L 0.850, 572.556 
	L 1.276, 578.262 
	L 1.701, 577.051 
	L 2.126, 573.905 
	L 2.551, 582.695 
	L 2.976, 580.359 
	L 3.402, 578.238 
	L 3.827, 571.885 
	L 4.252, 567.008 
" />
<path d="M 4.252, 567.008 
	L 4.677, 566.515 
	L 5.102, 570.851 
	L 5.528, 579.261 
	L 5.953, 588.249 
	L 6.378, 593.617 
	L 6.803, 594.733 
	L 7.228, 595.059 
	L 7.654, 595.969 
	L 8.079, 588.197 
	L 8.504, 583.584 
	L 8.929, 588.003 
" />
<path d="M 8.929, 588.003 
	L 9.354, 580.688 
	L 9.780, 579.536 
	L 10.205, 578.383 
	L 10.630, 579.535 
	L 11.055, 580.092 
	L 11.480, 583.980 
	L 11.906, 577.902 
	L 12.331, 571.885 
	L 12.756, 562.658 
	L 13.181, 555.135 
	L 13.606, 553.526 
" />
<path d="M 13.606, 553.526 
	L 14.031, 552.560 
	L 14.457, 550.473 
	L 14.882, 547.703 
	L 15.307, 554.602 
	L 15.732, 558.473 
	L 16.157, 558.529 
	L 16.583, 555.573 
" />
<path d="M 0.001, 563.384 
	L 0.000, 563.385 
	L 0.425, 558.296 
	L 0.850, 565.403 
	L 1.276, 570.539 
	L 1.701, 569.449 
	L 2.126, 566.617 
	L 2.551, 574.530 
	L 2.976, 572.428 
	L 3.402, 570.518 
	L 3.827, 564.798 
	L 4.252, 560.407 
" />
<path d="M 4.252, 560.407 
	L 4.677, 559.964 
	L 5.102, 563.867 
	L 5.528, 571.438 
	L 5.953, 579.530 
	L 6.378, 584.362 
	L 6.803, 585.368 
	L 7.228, 585.662 
	L 7.654, 586.481 
	L 8.079, 579.483 
	L 8.504, 575.330 
	L 8.929, 579.309 
" />
<path d="M 8.929, 579.309 
	L 9.354, 572.723 
	L 9.780, 571.686 
	L 10.205, 570.648 
	L 10.630, 571.685 
	L 11.055, 572.187 
	L 11.480, 575.688 
	L 11.906, 570.215 
	L 12.331, 564.798 
	L 12.756, 556.491 
	L 13.181, 549.719 
	L 13.606, 548.270 
" />
<path d="M 13.606, 548.270 
	L 14.031, 547.401 
	L 14.457, 545.522 
	L 14.882, 543.028 
	L 15.307, 549.239 
	L 15.732, 552.724 
	L 16.157, 552.774 
	L 16.583, 550.113 
" />
<path d="M 0.001, 556.390 
	L 0.000, 556.391 
	L 0.354, 551.636 
	L 0.709, 558.276 
	L 1.063, 563.076 
	L 1.417, 562.058 
	L 1.772, 559.412 
	L 2.126, 566.806 
	L 2.480, 564.841 
	L 2.835, 563.056 
	L 3.189, 557.712 
	L 3.543, 553.608 
" />
<path d="M 3.543, 553.608 
	L 3.898, 553.195 
	L 4.252, 556.841 
	L 4.606, 563.917 
	L 4.961, 571.478 
	L 5.315, 575.994 
	L 5.669, 576.933 
	L 6.024, 577.208 
	L 6.378, 577.973 
	L 6.732, 571.434 
	L 7.087, 567.553 
	L 7.441, 571.271 
" />
<path d="M 7.441, 571.271 
	L 7.795, 565.117 
	L 8.150, 564.148 
	L 8.504, 563.177 
	L 8.858, 564.148 
	L 9.213, 564.616 
	L 9.567, 567.887 
	L 9.921, 562.774 
	L 10.276, 557.712 
	L 10.630, 549.950 
	L 10.984, 543.621 
	L 11.339, 542.267 
" />
<path d="M 11.339, 542.267 
	L 11.693, 541.454 
	L 12.047, 539.699 
	L 12.402, 537.369 
	L 12.756, 543.173 
	L 13.110, 546.429 
	L 13.465, 546.476 
	L 13.819, 543.989 
" />
<path d="M 0.001, 549.686 
	L 0.000, 549.687 
	L 0.354, 546.310 
	L 0.709, 551.026 
	L 1.063, 554.435 
	L 1.417, 553.711 
	L 1.772, 551.832 
	L 2.126, 557.084 
	L 2.480, 555.688 
	L 2.835, 554.421 
	L 3.189, 550.625 
	L 3.543, 547.711 
" />
<path d="M 3.543, 547.711 
	L 3.898, 547.417 
	L 4.252, 550.007 
	L 4.606, 555.031 
	L 4.961, 560.402 
	L 5.315, 563.609 
	L 5.669, 564.276 
	L 6.024, 564.471 
	L 6.378, 565.014 
	L 6.732, 560.371 
	L 7.087, 557.615 
	L 7.441, 560.255 
" />
<path d="M 7.441, 560.255 
	L 7.795, 555.885 
	L 8.150, 555.196 
	L 8.504, 554.507 
	L 8.858, 555.196 
	L 9.213, 555.528 
	L 9.567, 557.852 
	L 9.921, 554.220 
	L 10.276, 550.625 
	L 10.630, 545.112 
	L 10.984, 540.617 
	L 11.339, 539.656 
" />
<path d="M 11.339, 539.656 
	L 11.693, 539.079 
	L 12.047, 537.832 
	L 12.402, 536.177 
	L 12.756, 540.299 
	L 13.110, 542.612 
	L 13.465, 542.645 
	L 13.819, 540.879 
" />
<path d="M 0.001, 542.728 
	L 0.000, 542.728 
	L 0.354, 539.811 
	L 0.709, 543.885 
	L 1.063, 546.829 
	L 1.417, 546.204 
	L 1.772, 544.581 
	L 2.126, 549.117 
	L 2.480, 547.912 
	L 2.835, 546.817 
	L 3.189, 543.538 
	L 3.543, 541.021 
" />
<path d="M 3.543, 541.021 
	L 3.898, 540.767 
	L 4.252, 543.005 
	L 4.606, 547.345 
	L 4.961, 551.983 
	L 5.315, 554.753 
	L 5.669, 555.329 
	L 6.024, 555.498 
	L 6.378, 555.967 
	L 6.732, 551.956 
	L 7.087, 549.575 
	L 7.441, 551.856 
" />
<path d="M 7.441, 551.856 
	L 7.795, 548.081 
	L 8.150, 547.486 
	L 8.504, 546.892 
	L 8.858, 547.486 
	L 9.213, 547.773 
	L 9.567, 549.780 
	L 9.921, 546.644 
	L 10.276, 543.538 
	L 10.630, 538.777 
	L 10.984, 534.894 
	L 11.339, 534.064 
" />
<path d="M 11.339, 534.064 
	L 11.693, 533.565 
	L 12.047, 532.489 
	L 12.402, 531.060 
	L 12.756, 534.620 
	L 13.110, 536.618 
	L 13.465, 536.646 
	L 13.819, 535.121 
" />
<path d="M 0.001, 535.767 
	L 0.000, 535.768 
	L 0.354, 533.305 
	L 0.709, 536.744 
	L 1.063, 539.230 
	L 1.417, 538.703 
	L 1.772, 537.332 
	L 2.126, 541.163 
	L 2.480, 540.145 
	L 2.835, 539.220 
	L 3.189, 536.452 
	L 3.543, 534.326 
" />
<path d="M 3.543, 534.326 
	L 3.898, 534.112 
	L 4.252, 536.001 
	L 4.606, 539.666 
	L 4.961, 543.583 
	L 5.315, 545.922 
	L 5.669, 546.408 
	L 6.024, 546.551 
	L 6.378, 546.947 
	L 6.732, 543.560 
	L 7.087, 541.550 
	L 7.441, 543.476 
" />
<path d="M 7.441, 543.476 
	L 7.795, 540.288 
	L 8.150, 539.786 
	L 8.504, 539.284 
	L 8.858, 539.785 
	L 9.213, 540.028 
	L 9.567, 541.723 
	L 9.921, 539.074 
	L 10.276, 536.452 
	L 10.630, 532.431 
	L 10.984, 529.153 
	L 11.339, 528.451 
" />
<path d="M 11.339, 528.451 
	L 11.693, 528.030 
	L 12.047, 527.121 
	L 12.402, 525.914 
	L 12.756, 528.920 
	L 13.110, 530.607 
	L 13.465, 530.632 
	L 13.819, 529.343 
" />
<path d="M 0.001, 528.630 
	L 0.000, 528.630 
	L 0.283, 525.986 
	L 0.567, 529.679 
	L 0.850, 532.349 
	L 1.134, 531.782 
	L 1.417, 530.310 
	L 1.701, 534.424 
	L 1.984, 533.331 
	L 2.268, 532.338 
	L 2.551, 529.365 
	L 2.835, 527.083 
" />
<path d="M 2.835, 527.083 
	L 3.118, 526.852 
	L 3.402, 528.881 
	L 3.685, 532.816 
	L 3.969, 537.023 
	L 4.252, 539.534 
	L 4.535, 540.057 
	L 4.819, 540.210 
	L 5.102, 540.636 
	L 5.386, 536.998 
	L 5.669, 534.840 
	L 5.953, 536.908 
" />
<path d="M 5.953, 536.908 
	L 6.236, 533.485 
	L 6.520, 532.945 
	L 6.803, 532.406 
	L 7.087, 532.945 
	L 7.370, 533.205 
	L 7.654, 535.025 
	L 7.937, 532.181 
	L 8.220, 529.365 
	L 8.504, 525.047 
	L 8.787, 521.527 
	L 9.071, 520.774 
" />
<path d="M 9.071, 520.774 
	L 9.354, 520.322 
	L 9.638, 519.345 
	L 9.921, 518.049 
	L 10.205, 521.278 
	L 10.488, 523.089 
	L 10.772, 523.115 
	L 11.055, 521.732 
" />
<path d="M 0.001, 521.743 
	L 0.000, 521.744 
	L 0.283, 519.817 
	L 0.567, 522.507 
	L 0.850, 524.452 
	L 1.134, 524.040 
	L 1.417, 522.967 
	L 1.701, 525.964 
	L 1.984, 525.167 
	L 2.268, 524.444 
	L 2.551, 522.279 
	L 2.835, 520.616 
" />
<path d="M 2.835, 520.616 
	L 3.118, 520.448 
	L 3.402, 521.926 
	L 3.685, 524.793 
	L 3.969, 527.856 
	L 4.252, 529.686 
	L 4.535, 530.067 
	L 4.819, 530.178 
	L 5.102, 530.488 
	L 5.386, 527.839 
	L 5.669, 526.266 
	L 5.953, 527.773 
" />
<path d="M 5.953, 527.773 
	L 6.236, 525.279 
	L 6.520, 524.886 
	L 6.803, 524.493 
	L 7.087, 524.886 
	L 7.370, 525.076 
	L 7.654, 526.402 
	L 7.937, 524.329 
	L 8.220, 522.279 
	L 8.504, 519.133 
	L 8.787, 516.569 
	L 9.071, 516.020 
" />
<path d="M 9.071, 516.020 
	L 9.354, 515.692 
	L 9.638, 514.980 
	L 9.921, 514.036 
	L 10.205, 516.387 
	L 10.488, 517.707 
	L 10.772, 517.726 
	L 11.055, 516.718 
" />
<path d="M 0.001, 514.842 
	L 0.000, 514.843 
	L 0.283, 513.586 
	L 0.567, 515.341 
	L 0.850, 516.610 
	L 1.134, 516.341 
	L 1.417, 515.641 
	L 1.701, 517.596 
	L 1.984, 517.076 
	L 2.268, 516.604 
	L 2.551, 515.192 
	L 2.835, 514.108 
" />
<path d="M 2.835, 514.108 
	L 3.118, 513.998 
	L 3.402, 514.962 
	L 3.685, 516.832 
	L 3.969, 518.830 
	L 4.252, 520.024 
	L 4.535, 520.272 
	L 4.819, 520.345 
	L 5.102, 520.547 
	L 5.386, 518.819 
	L 5.669, 517.793 
	L 5.953, 518.776 
" />
<path d="M 5.953, 518.776 
	L 6.236, 517.149 
	L 6.520, 516.893 
	L 6.803, 516.637 
	L 7.087, 516.893 
	L 7.370, 517.017 
	L 7.654, 517.881 
	L 7.937, 516.530 
	L 8.220, 515.192 
	L 8.504, 513.140 
	L 8.787, 511.468 
	L 9.071, 511.110 
" />
<path d="M 9.071, 511.110 
	L 9.354, 510.895 
	L 9.638, 510.431 
	L 9.921, 509.815 
	L 10.205, 511.350 
	L 10.488, 512.210 
	L 10.772, 512.223 
	L 11.055, 511.565 
" />
<path d="M 0.001, 508.025 
	L 0.000, 508.026 
	L 0.283, 507.740 
	L 0.567, 508.139 
	L 0.850, 508.428 
	L 1.134, 508.367 
	L 1.417, 508.207 
	L 1.701, 508.652 
	L 1.984, 508.534 
	L 2.268, 508.426 
	L 2.551, 508.105 
	L 2.835, 507.859 
" />
<path d="M 2.835, 507.859 
	L 3.118, 507.834 
	L 3.402, 508.053 
	L 3.685, 508.478 
	L 3.969, 508.932 
	L 4.252, 509.204 
	L 4.535, 509.260 
	L 4.819, 509.277 
	L 5.102, 509.323 
	L 5.386, 508.930 
	L 5.669, 508.697 
	L 5.953, 508.920 
" />
<path d="M 5.953, 508.920 
	L 6.236, 508.550 
	L 6.520, 508.492 
	L 6.803, 508.434 
	L 7.087, 508.492 
	L 7.370, 508.520 
	L 7.654, 508.717 
	L 7.937, 508.409 
	L 8.220, 508.105 
	L 8.504, 507.639 
	L 8.787, 507.258 
	L 9.071, 507.177 
" />
<path d="M 9.071, 507.177 
	L 9.354, 507.128 
	L 9.638, 507.023 
	L 9.921, 506.883 
	L 10.205, 507.232 
	L 10.488, 507.427 
	L 10.772, 507.430 
	L 11.055, 507.280 
" />
<path d="M 0.001, 500.771 
	L 0.000, 500.771 
	L 0.283, 499.879 
	L 0.567, 501.124 
	L 0.850, 502.024 
	L 1.134, 501.834 
	L 1.417, 501.338 
	L 1.701, 502.724 
	L 1.984, 502.355 
	L 2.268, 502.021 
	L 2.551, 501.019 
	L 2.835, 500.250 
" />
<path d="M 2.835, 500.250 
	L 3.118, 500.172 
	L 3.402, 500.856 
	L 3.685, 502.182 
	L 3.969, 503.600 
	L 4.252, 504.446 
	L 4.535, 504.622 
	L 4.819, 504.674 
	L 5.102, 504.817 
	L 5.386, 503.591 
	L 5.669, 502.864 
	L 5.953, 503.561 
" />
<path d="M 5.953, 503.561 
	L 6.236, 502.407 
	L 6.520, 502.226 
	L 6.803, 502.043 
	L 7.087, 502.226 
	L 7.370, 502.313 
	L 7.654, 502.926 
	L 7.937, 501.968 
	L 8.220, 501.019 
	L 8.504, 499.563 
	L 8.787, 498.377 
	L 9.071, 498.123 
" />
<path d="M 9.071, 498.123 
	L 9.354, 497.971 
	L 9.638, 497.642 
	L 9.921, 497.205 
	L 10.205, 498.292 
	L 10.488, 498.903 
	L 10.772, 498.913 
	L 11.055, 498.446 
" />
<path d="M 0.001, 493.899 
	L 0.000, 493.899 
	L 0.213, 493.781 
	L 0.425, 493.946 
	L 0.638, 494.065 
	L 0.850, 494.040 
	L 1.063, 493.975 
	L 1.276, 494.158 
	L 1.488, 494.109 
	L 1.701, 494.065 
	L 1.913, 493.932 
	L 2.126, 493.830 
" />
<path d="M 2.126, 493.830 
	L 2.339, 493.820 
	L 2.551, 493.911 
	L 2.764, 494.086 
	L 2.976, 494.274 
	L 3.189, 494.386 
	L 3.402, 494.410 
	L 3.614, 494.416 
	L 3.827, 494.435 
	L 4.039, 494.273 
	L 4.252, 494.177 
	L 4.465, 494.269 
" />
<path d="M 4.465, 494.269 
	L 4.677, 494.116 
	L 4.890, 494.092 
	L 5.102, 494.068 
	L 5.315, 494.092 
	L 5.528, 494.104 
	L 5.740, 494.185 
	L 5.953, 494.058 
	L 6.165, 493.932 
	L 6.378, 493.739 
	L 6.591, 493.582 
	L 6.803, 493.549 
" />
<path d="M 6.803, 493.549 
	L 7.016, 493.528 
	L 7.228, 493.485 
	L 7.441, 493.427 
	L 7.654, 493.571 
	L 7.866, 493.652 
	L 8.079, 493.653 
	L 8.291, 493.591 
" />
<path d="M 0.001, 486.758 
	L 0.000, 486.759 
	L 0.213, 486.449 
	L 0.425, 486.882 
	L 0.638, 487.196 
	L 0.850, 487.129 
	L 1.063, 486.957 
	L 1.276, 487.439 
	L 1.488, 487.311 
	L 1.701, 487.194 
	L 1.913, 486.845 
	L 2.126, 486.578 
" />
<path d="M 2.126, 486.578 
	L 2.339, 486.551 
	L 2.551, 486.789 
	L 2.764, 487.250 
	L 2.976, 487.744 
	L 3.189, 488.039 
	L 3.402, 488.100 
	L 3.614, 488.118 
	L 3.827, 488.168 
	L 4.039, 487.741 
	L 4.252, 487.488 
	L 4.465, 487.731 
" />
<path d="M 4.465, 487.731 
	L 4.677, 487.329 
	L 4.890, 487.266 
	L 5.102, 487.202 
	L 5.315, 487.266 
	L 5.528, 487.296 
	L 5.740, 487.509 
	L 5.953, 487.176 
	L 6.165, 486.845 
	L 6.378, 486.339 
	L 6.591, 485.926 
	L 6.803, 485.838 
" />
<path d="M 6.803, 485.838 
	L 7.016, 485.785 
	L 7.228, 485.670 
	L 7.441, 485.517 
	L 7.654, 485.897 
	L 7.866, 486.109 
	L 8.079, 486.112 
	L 8.291, 485.950 
" />
<path d="M 0.001, 479.758 
	L 0.000, 479.759 
	L 0.213, 479.759 
	L 0.425, 479.759 
	L 0.638, 479.759 
	L 0.850, 479.759 
	L 1.063, 479.759 
	L 1.276, 479.759 
	L 1.488, 479.759 
	L 1.701, 479.759 
	L 1.913, 479.759 
	L 2.126, 479.759 
" />
<path d="M 2.126, 479.759 
	L 2.339, 479.759 
	L 2.551, 479.759 
	L 2.764, 479.759 
	L 2.976, 479.759 
	L 3.189, 479.759 
	L 3.402, 479.759 
	L 3.614, 479.759 
	L 3.827, 479.759 
	L 4.039, 479.759 
	L 4.252, 479.759 
	L 4.465, 479.759 
" />
<path d="M 4.465, 479.759 
	L 4.677, 479.759 
	L 4.890, 479.759 
	L 5.102, 479.759 
	L 5.315, 479.759 
	L 5.528, 479.759 
	L 5.740, 479.759 
	L 5.953, 479.759 
	L 6.165, 479.759 
	L 6.378, 479.759 
	L 6.591, 479.759 
	L 6.803, 479.759 
" />
<path d="M 6.803, 479.759 
	L 7.016, 479.759 
	L 7.228, 479.759 
	L 7.441, 479.759 
	L 7.654, 479.759 
	L 7.866, 479.759 
	L 8.079, 479.759 
	L 8.291, 479.759 
" />
<path d="M 0.001, 472.807 
	L 0.000, 472.808 
	L 0.213, 473.294 
	L 0.425, 472.614 
	L 0.638, 472.122 
	L 0.850, 472.227 
	L 1.063, 472.498 
	L 1.276, 471.740 
	L 1.488, 471.942 
	L 1.701, 472.124 
	L 1.913, 472.672 
	L 2.126, 473.092 
" />
<path d="M 2.126, 473.092 
	L 2.339, 473.135 
	L 2.551, 472.762 
	L 2.764, 472.037 
	L 2.976, 471.262 
	L 3.189, 470.799 
	L 3.402, 470.703 
	L 3.614, 470.675 
	L 3.827, 470.597 
	L 4.039, 471.266 
	L 4.252, 471.664 
	L 4.465, 471.283 
" />
<path d="M 4.465, 471.283 
	L 4.677, 471.913 
	L 4.890, 472.013 
	L 5.102, 472.112 
	L 5.315, 472.013 
	L 5.528, 471.965 
	L 5.740, 471.630 
	L 5.953, 472.153 
	L 6.165, 472.672 
	L 6.378, 473.467 
	L 6.591, 474.116 
	L 6.803, 474.255 
" />
<path d="M 6.803, 474.255 
	L 7.016, 474.338 
	L 7.228, 474.518 
	L 7.441, 474.756 
	L 7.654, 474.162 
	L 7.866, 473.828 
	L 8.079, 473.823 
	L 8.291, 474.078 
" />
<path d="M 0.001, 465.589 
	L 0.000, 465.590 
	L 0.213, 465.605 
	L 0.425, 465.583 
	L 0.638, 465.568 
	L 0.850, 465.571 
	L 1.063, 465.580 
	L 1.276, 465.556 
	L 1.488, 465.562 
	L 1.701, 465.568 
	L 1.913, 465.586 
	L 2.126, 465.599 
" />
<path d="M 2.126, 465.599 
	L 2.339, 465.600 
	L 2.551, 465.588 
	L 2.764, 465.565 
	L 2.976, 465.540 
	L 3.189, 465.525 
	L 3.402, 465.523 
	L 3.614, 465.522 
	L 3.827, 465.519 
	L 4.039, 465.540 
	L 4.252, 465.553 
	L 4.465, 465.541 
" />
<path d="M 4.465, 465.541 
	L 4.677, 465.562 
	L 4.890, 465.564 
	L 5.102, 465.568 
	L 5.315, 465.564 
	L 5.528, 465.563 
	L 5.740, 465.552 
	L 5.953, 465.569 
	L 6.165, 465.586 
	L 6.378, 465.611 
	L 6.591, 465.632 
	L 6.803, 465.637 
" />
<path d="M 6.803, 465.637 
	L 7.016, 465.639 
	L 7.228, 465.644 
	L 7.441, 465.652 
	L 7.654, 465.633 
	L 7.866, 465.622 
	L 8.079, 465.622 
	L 8.291, 465.631 
" />
</g><g style="stroke:rgb(255,0,0); fill:none; stroke-width:0.100mm" >
<path d="M 14.173, 647.003 
	L 14.173, 649.838 
" />
<path d="M 14.173, 648.420 
	L 16.299, 647.003 
	L 17.362, 647.003 
" />
<path d="M 20.551, 648.420 
	L 23.740, 648.420 
	L 24.803, 647.712 
	L 23.740, 647.003 
	L 21.614, 647.003 
	L 20.551, 647.712 
	L 20.551, 649.129 
	L 21.614, 649.838 
	L 24.803, 649.838 
" />
<path d="M 31.181, 649.129 
	L 30.118, 649.838 
	L 29.055, 649.838 
	L 27.992, 649.129 
	L 27.992, 647.712 
	L 29.055, 647.003 
	L 30.118, 647.003 
	L 31.181, 647.712 
" />
<path d="M 34.370, 649.838 
	L 33.307, 649.129 
	L 33.307, 647.712 
	L 34.370, 647.003 
	L 35.433, 647.003 
	L 36.496, 647.712 
	L 36.496, 649.129 
	L 35.433, 649.838 
	L 34.370, 649.838 
" />
<path d="M 39.685, 647.003 
	L 39.685, 649.838 
" />
<path d="M 39.685, 648.420 
	L 41.811, 647.003 
	L 42.874, 647.003 
" />
<path d="M 49.252, 645.586 
	L 49.252, 649.838 
	L 47.126, 649.838 
	L 46.063, 649.129 
	L 46.063, 647.712 
	L 47.126, 647.003 
	L 49.252, 647.003 
" />
<path d="M 49.252, 649.838 
	L 50.315, 649.838 
" />
<path d="M 52.441, 648.420 
	L 55.630, 648.420 
	L 56.693, 647.712 
	L 55.630, 647.003 
	L 53.504, 647.003 
	L 52.441, 647.712 
	L 52.441, 649.129 
	L 53.504, 649.838 
	L 56.693, 649.838 
" />
<path d="M 62.008, 645.586 
	L 62.008, 649.838 
	L 59.882, 649.838 
	L 58.819, 649.129 
	L 58.819, 647.712 
	L 59.882, 647.003 
	L 62.008, 647.003 
" />
<path d="M 62.008, 649.838 
	L 63.071, 649.838 
" />
<path d="M 73.701, 645.586 
	L 73.701, 646.294 
" />
<path d="M 72.638, 647.003 
	L 73.701, 647.003 
	L 73.701, 649.838 
" />
<path d="M 72.638, 649.838 
	L 74.764, 649.838 
" />
<path d="M 77.953, 649.838 
	L 77.953, 647.003 
" />
<path d="M 77.953, 647.712 
	L 79.016, 647.003 
	L 80.079, 647.003 
	L 81.142, 647.712 
	L 81.142, 649.838 
" />
<path d="M 92.835, 649.838 
	L 92.835, 645.586 
	L 90.709, 645.586 
	L 94.961, 645.586 
" />
<path d="M 97.087, 647.003 
	L 97.087, 649.129 
	L 98.150, 649.838 
	L 100.276, 649.838 
	L 100.276, 647.003 
" />
<path d="M 106.654, 647.003 
	L 104.528, 647.003 
	L 103.465, 647.712 
	L 104.528, 648.420 
	L 105.591, 648.420 
	L 106.654, 649.129 
	L 105.591, 649.838 
	L 103.465, 649.838 
" />
<path d="M 109.843, 645.586 
	L 109.843, 649.838 
" />
<path d="M 109.843, 647.003 
	L 111.969, 647.003 
	L 113.032, 647.712 
	L 113.032, 649.838 
" />
<path d="M 116.220, 648.420 
	L 119.409, 648.420 
	L 120.472, 647.712 
	L 119.409, 647.003 
	L 117.283, 647.003 
	L 116.220, 647.712 
	L 116.220, 649.129 
	L 117.283, 649.838 
	L 120.472, 649.838 
" />
<path d="M 123.661, 645.586 
	L 123.661, 649.838 
	L 125.787, 649.838 
" />
<path d="M 122.598, 647.003 
	L 125.787, 647.003 
" />
<path d="M 131.102, 645.586 
	L 131.102, 646.294 
" />
<path d="M 130.039, 647.003 
	L 131.102, 647.003 
	L 131.102, 649.838 
" />
<path d="M 130.039, 649.838 
	L 132.165, 649.838 
" />
<path d="M 137.480, 645.586 
	L 137.480, 646.294 
" />
<path d="M 136.417, 647.003 
	L 137.480, 647.003 
	L 137.480, 649.838 
" />
<path d="M 136.417, 649.838 
	L 138.543, 649.838 
" />
<path d="M 152.362, 646.294 
	L 151.299, 645.586 
	L 149.173, 645.586 
	L 148.110, 646.294 
	L 148.110, 649.129 
	L 149.173, 649.838 
	L 151.299, 649.838 
	L 152.362, 649.129 
	L 152.362, 647.712 
	L 149.173, 647.712 
" />
<path d="M 154.488, 648.420 
	L 157.677, 648.420 
	L 158.740, 647.712 
	L 157.677, 647.003 
	L 155.551, 647.003 
	L 154.488, 647.712 
	L 154.488, 649.129 
	L 155.551, 649.838 
	L 158.740, 649.838 
" />
<path d="M 161.929, 649.838 
	L 160.866, 649.129 
	L 160.866, 647.712 
	L 161.929, 647.003 
	L 162.992, 647.003 
	L 164.055, 647.712 
	L 164.055, 649.129 
	L 162.992, 649.838 
	L 161.929, 649.838 
" />
<path d="M 167.244, 647.003 
	L 167.244, 649.838 
" />
<path d="M 167.244, 648.420 
	L 169.370, 647.003 
	L 170.433, 647.003 
" />
<path d="M 173.622, 651.255 
	L 175.748, 651.255 
	L 176.811, 650.546 
	L 176.811, 647.003 
	L 174.685, 647.003 
	L 173.622, 647.712 
	L 173.622, 649.129 
	L 174.685, 649.838 
	L 176.811, 649.838 
" />
<path d="M 182.126, 645.586 
	L 182.126, 646.294 
" />
<path d="M 181.063, 647.003 
	L 182.126, 647.003 
	L 182.126, 649.838 
" />
<path d="M 181.063, 649.838 
	L 183.189, 649.838 
" />
<path d="M 190.630, 649.838 
	L 187.441, 649.838 
	L 186.378, 649.129 
	L 186.378, 647.712 
	L 187.441, 647.003 
	L 189.567, 647.003 
	L 189.567, 649.838 
" />
<path d="M 14.173, 656.924 
	L 14.173, 652.672 
" />
<path d="M 17.362, 656.924 
	L 14.173, 655.507 
	L 17.362, 654.090 
" />
<path d="M 24.803, 656.924 
	L 21.614, 656.924 
	L 20.551, 656.216 
	L 20.551, 654.798 
	L 21.614, 654.090 
	L 23.740, 654.090 
	L 23.740, 656.924 
" />
<path d="M 27.992, 656.924 
	L 26.929, 656.216 
	L 26.929, 654.798 
	L 27.992, 654.090 
	L 29.055, 654.090 
	L 30.118, 654.798 
	L 30.118, 656.216 
	L 29.055, 656.924 
	L 27.992, 656.924 
" />
<path d="M 34.370, 652.672 
	L 34.370, 656.924 
	L 36.496, 656.924 
" />
<path d="M 33.307, 654.090 
	L 36.496, 654.090 
" />
<path d="M 39.685, 655.507 
	L 42.874, 655.507 
	L 43.937, 654.798 
	L 42.874, 654.090 
	L 40.748, 654.090 
	L 39.685, 654.798 
	L 39.685, 656.216 
	L 40.748, 656.924 
	L 43.937, 656.924 
" />
<path d="M 50.315, 656.216 
	L 49.252, 656.924 
	L 48.189, 656.924 
	L 47.126, 656.216 
	L 47.126, 654.798 
	L 48.189, 654.090 
	L 49.252, 654.090 
	L 50.315, 654.798 
" />
<path d="M 63.071, 656.924 
	L 60.945, 656.924 
	L 60.945, 652.672 
	L 63.071, 652.672 
" />
<path d="M 65.197, 656.924 
	L 67.323, 656.924 
	L 67.323, 652.672 
	L 65.197, 652.672 
" />
<path d="M 74.764, 652.672 
	L 71.575, 654.798 
	L 74.764, 656.924 
" />
<path d="M 77.953, 652.672 
	L 81.142, 654.798 
	L 77.953, 656.924 
" />
<path d="M 90.709, 653.381 
	L 91.772, 652.672 
	L 93.898, 652.672 
	L 94.961, 653.381 
	L 94.961, 654.090 
	L 90.709, 656.216 
	L 90.709, 656.924 
	L 94.961, 656.924 
" />
<path d="M 97.087, 656.216 
	L 98.150, 656.924 
	L 100.276, 656.924 
	L 101.339, 656.216 
	L 101.339, 653.381 
	L 100.276, 652.672 
	L 98.150, 652.672 
	L 97.087, 653.381 
	L 97.087, 656.216 
" />
<path d="M 104.528, 656.924 
	L 106.654, 656.924 
" />
<path d="M 105.591, 656.924 
	L 105.591, 652.672 
	L 104.528, 653.381 
" />
<path d="M 110.906, 656.924 
	L 111.969, 656.924 
	L 114.095, 655.507 
	L 114.095, 653.381 
	L 113.032, 652.672 
	L 110.906, 652.672 
	L 109.843, 653.381 
	L 109.843, 654.090 
	L 110.906, 654.798 
	L 114.095, 654.798 
" />
<path d="M 14.173, 678.184 
	L 17.362, 678.184 
	L 18.425, 677.475 
	L 18.425, 676.058 
	L 17.362, 675.349 
	L 15.236, 675.349 
" />
<path d="M 15.236, 673.932 
	L 15.236, 678.184 
" />
<path d="M 24.803, 678.184 
	L 21.614, 678.184 
	L 20.551, 677.475 
	L 20.551, 676.058 
	L 21.614, 675.349 
	L 23.740, 675.349 
	L 23.740, 678.184 
" />
<path d="M 26.929, 678.184 
	L 26.929, 675.349 
" />
<path d="M 26.929, 676.058 
	L 27.992, 675.349 
	L 29.055, 675.349 
	L 30.118, 676.058 
	L 30.118, 678.184 
" />
<path d="M 36.496, 673.932 
	L 36.496, 678.184 
	L 34.370, 678.184 
	L 33.307, 677.475 
	L 33.307, 676.058 
	L 34.370, 675.349 
	L 36.496, 675.349 
" />
<path d="M 36.496, 678.184 
	L 37.559, 678.184 
" />
<path d="M 43.937, 677.475 
	L 42.874, 678.184 
	L 41.811, 678.184 
	L 40.748, 677.475 
	L 40.748, 676.058 
	L 41.811, 675.349 
	L 42.874, 675.349 
	L 43.937, 676.058 
" />
<path d="M 50.315, 678.184 
	L 47.126, 678.184 
	L 46.063, 677.475 
	L 46.063, 676.058 
	L 47.126, 675.349 
	L 49.252, 675.349 
	L 49.252, 678.184 
" />
<path d="M 52.441, 678.184 
	L 52.441, 675.349 
" />
<path d="M 52.441, 676.058 
	L 53.504, 675.349 
	L 54.567, 676.058 
	L 54.567, 678.184 
" />
<path d="M 54.567, 676.058 
	L 55.630, 675.349 
	L 56.693, 676.058 
	L 56.693, 678.184 
" />
<path d="M 58.819, 679.601 
	L 58.819, 675.349 
	L 60.945, 675.349 
	L 62.008, 676.058 
	L 62.008, 677.475 
	L 60.945, 678.184 
	L 58.819, 678.184 
" />
<path d="M 74.764, 673.932 
	L 74.764, 678.184 
	L 72.638, 678.184 
	L 71.575, 677.475 
	L 71.575, 676.058 
	L 72.638, 675.349 
	L 74.764, 675.349 
" />
<path d="M 74.764, 678.184 
	L 75.827, 678.184 
" />
<path d="M 79.016, 678.184 
	L 77.953, 677.475 
	L 77.953, 676.058 
	L 79.016, 675.349 
	L 80.079, 675.349 
	L 81.142, 676.058 
	L 81.142, 677.475 
	L 80.079, 678.184 
	L 79.016, 678.184 
" />
<path d="M 84.331, 675.349 
	L 84.331, 677.475 
	L 85.394, 678.184 
	L 86.457, 677.475 
	L 86.457, 676.058 
" />
<path d="M 86.457, 677.475 
	L 87.520, 678.184 
	L 88.583, 677.475 
	L 88.583, 675.349 
" />
<path d="M 90.709, 678.184 
	L 90.709, 675.349 
" />
<path d="M 90.709, 676.058 
	L 91.772, 675.349 
	L 92.835, 675.349 
	L 93.898, 676.058 
	L 93.898, 678.184 
" />
<path d="M 98.150, 673.932 
	L 99.213, 673.932 
	L 99.213, 678.184 
" />
<path d="M 98.150, 678.184 
	L 100.276, 678.184 
" />
<path d="M 104.528, 678.184 
	L 103.465, 677.475 
	L 103.465, 676.058 
	L 104.528, 675.349 
	L 105.591, 675.349 
	L 106.654, 676.058 
	L 106.654, 677.475 
	L 105.591, 678.184 
	L 104.528, 678.184 
" />
<path d="M 114.095, 678.184 
	L 110.906, 678.184 
	L 109.843, 677.475 
	L 109.843, 676.058 
	L 110.906, 675.349 
	L 113.032, 675.349 
	L 113.032, 678.184 
" />
<path d="M 119.409, 673.932 
	L 119.409, 678.184 
	L 117.283, 678.184 
	L 116.220, 677.475 
	L 116.220, 676.058 
	L 117.283, 675.349 
	L 119.409, 675.349 
" />
<path d="M 119.409, 678.184 
	L 120.472, 678.184 
" />
<path d="M 126.850, 677.475 
	L 125.787, 678.184 
	L 124.724, 678.184 
	L 123.661, 677.475 
	L 123.661, 676.058 
	L 124.724, 675.349 
	L 125.787, 675.349 
	L 126.850, 676.058 
" />
<path d="M 130.039, 678.184 
	L 128.976, 677.475 
	L 128.976, 676.058 
	L 130.039, 675.349 
	L 131.102, 675.349 
	L 132.165, 676.058 
	L 132.165, 677.475 
	L 131.102, 678.184 
	L 130.039, 678.184 
" />
<path d="M 138.543, 673.932 
	L 138.543, 678.184 
	L 136.417, 678.184 
	L 135.354, 677.475 
	L 135.354, 676.058 
	L 136.417, 675.349 
	L 138.543, 675.349 
" />
<path d="M 138.543, 678.184 
	L 139.606, 678.184 
" />
<path d="M 141.732, 676.767 
	L 144.921, 676.767 
	L 145.984, 676.058 
	L 144.921, 675.349 
	L 142.795, 675.349 
	L 141.732, 676.058 
	L 141.732, 677.475 
	L 142.795, 678.184 
	L 145.984, 678.184 
" />
<path d="M 154.488, 678.184 
	L 158.740, 673.932 
" />
<path d="M 158.740, 678.184 
	L 154.488, 673.932 
" />
<path d="M 160.866, 678.184 
	L 165.118, 673.932 
" />
<path d="M 165.118, 678.184 
	L 160.866, 673.932 
" />
<path d="M 167.244, 678.184 
	L 171.496, 673.932 
" />
<path d="M 171.496, 678.184 
	L 167.244, 673.932 
" />
<path d="M 173.622, 678.184 
	L 177.874, 673.932 
" />
<path d="M 177.874, 678.184 
	L 173.622, 673.932 
" />
<path d="M 180.000, 676.058 
	L 184.252, 676.058 
" />
<path d="M 186.378, 678.184 
	L 190.630, 673.932 
" />
<path d="M 190.630, 678.184 
	L 186.378, 673.932 
" />
<path d="M 192.756, 678.184 
	L 197.008, 673.932 
" />
<path d="M 197.008, 678.184 
	L 192.756, 673.932 
" />
<path d="M 199.134, 678.184 
	L 203.386, 673.932 
" />
<path d="M 203.386, 678.184 
	L 199.134, 673.932 
" />
<path d="M 205.512, 678.184 
	L 209.764, 673.932 
" />
<path d="M 209.764, 678.184 
	L 205.512, 673.932 
" />
<path d="M 17.717, 263.616 
	L 17.717, 263.617 
	L 17.717, 262.271 
	L 37.382, 262.271 
	L 37.382, 263.617 
	L 17.717, 263.617 
	L 17.717, 258.621 
	L 17.717, 257.275 
	L 37.382, 257.275 
	L 37.382, 258.621 
	L 17.717, 258.621 
	L 17.717, 255.893 
" />
<path d="M 17.717, 255.893 
	L 17.717, 254.546 
	L 37.382, 254.546 
	L 37.382, 255.893 
	L 17.717, 255.893 
" />
<path d="M 37.666, 263.616 
	L 37.665, 263.617 
	L 37.665, 254.546 
	L 39.366, 254.546 
	L 39.366, 263.617 
	L 37.665, 263.617 
" />
<path d="M 39.367, 263.616 
	L 39.366, 263.617 
	L 39.366, 256.814 
	L 51.626, 256.814 
	L 51.626, 258.160 
	L 41.067, 258.160 
	L 41.067, 259.542 
	L 51.626, 259.542 
	L 51.626, 260.889 
	L 41.067, 260.889 
	L 41.067, 263.617 
	L 39.366, 263.617 
" />
<path d="M 39.366, 263.617 
" />
<path d="M 62.257, 259.542 
	L 62.256, 259.542 
	L 62.256, 258.160 
	L 52.902, 258.160 
	L 52.902, 259.542 
	L 62.256, 259.542 
	L 51.343, 263.617 
	L 51.343, 256.814 
	L 63.815, 256.814 
	L 63.815, 260.889 
	L 52.902, 260.889 
	L 52.902, 262.271 
" />
<path d="M 52.902, 262.271 
	L 63.815, 262.271 
	L 63.815, 263.617 
	L 51.343, 263.617 
" />
<path d="M 64.099, 263.616 
	L 64.098, 263.617 
	L 64.098, 256.814 
	L 77.138, 256.814 
	L 77.138, 263.617 
	L 75.437, 263.617 
	L 75.437, 258.160 
	L 65.799, 258.160 
	L 65.799, 263.617 
	L 64.098, 263.617 
" />
<path d="M 77.139, 264.077 
	L 77.138, 264.078 
	L 77.138, 254.546 
	L 78.839, 254.546 
	L 78.839, 262.023 
	L 88.193, 257.948 
	L 97.547, 262.023 
	L 97.547, 254.546 
	L 99.248, 254.546 
	L 99.248, 264.078 
	L 88.193, 259.294 
	L 77.138, 264.078 
" />
<path d="M 77.138, 264.078 
" />
<path d="M 110.587, 262.270 
	L 110.587, 262.271 
	L 110.587, 258.160 
	L 108.319, 258.160 
	L 103.783, 262.271 
	L 110.587, 262.271 
	L 99.992, 263.617 
	L 106.051, 258.160 
	L 99.992, 258.160 
	L 99.992, 256.814 
	L 112.287, 256.814 
" />
<path d="M 112.287, 256.814 
	L 112.287, 263.617 
	L 99.992, 263.617 
" />
<path d="M 111.544, 263.616 
	L 111.543, 263.617 
	L 111.543, 256.814 
	L 124.583, 256.814 
	L 124.583, 263.617 
	L 122.882, 263.617 
	L 122.882, 258.160 
	L 113.244, 258.160 
	L 113.244, 263.617 
	L 111.543, 263.617 
" />
<path d="M 135.922, 262.270 
	L 135.921, 262.271 
	L 135.921, 258.160 
	L 126.283, 258.160 
	L 126.283, 262.271 
	L 135.921, 262.271 
	L 124.583, 263.617 
	L 124.583, 256.814 
	L 135.921, 256.814 
	L 135.921, 254.546 
	L 137.622, 254.546 
" />
<path d="M 137.622, 254.546 
	L 137.622, 263.617 
	L 124.583, 263.617 
" />
<path d="M 148.253, 259.542 
	L 148.252, 259.542 
	L 148.252, 258.160 
	L 138.898, 258.160 
	L 138.898, 259.542 
	L 148.252, 259.542 
	L 137.339, 263.617 
	L 137.339, 256.814 
	L 149.811, 256.814 
	L 149.811, 260.889 
	L 138.898, 260.889 
" />
<path d="M 138.898, 260.889 
	L 138.898, 262.271 
	L 149.811, 262.271 
	L 149.811, 263.617 
	L 137.339, 263.617 
" />
<path d="M 150.095, 263.616 
	L 150.095, 263.617 
	L 150.095, 256.814 
	L 162.354, 256.814 
	L 162.354, 258.160 
	L 151.795, 258.160 
	L 151.795, 263.617 
	L 150.095, 263.617 
" />
<path d="M 36.320, 279.986 
	L 36.319, 279.987 
	L 28.772, 273.609 
	L 19.701, 273.609 
	L 19.701, 279.987 
	L 36.319, 279.987 
	L 18.000, 281.334 
	L 18.000, 272.263 
	L 29.516, 272.263 
	L 40.110, 281.334 
	L 18.000, 281.334 
" />
<path d="M 40.111, 281.333 
	L 40.110, 281.334 
	L 40.110, 274.530 
	L 41.811, 274.530 
	L 41.811, 281.334 
	L 40.110, 281.334 
	L 40.110, 273.609 
	L 40.110, 272.263 
	L 41.811, 272.263 
	L 41.811, 273.609 
	L 40.110, 273.609 
" />
<path d="M 41.528, 281.333 
	L 41.528, 281.334 
	L 41.528, 279.987 
	L 52.441, 279.987 
	L 52.441, 278.605 
	L 41.528, 278.605 
	L 41.528, 274.530 
	L 54.000, 274.530 
	L 54.000, 275.877 
	L 43.087, 275.877 
	L 43.087, 277.259 
	L 54.000, 277.259 
" />
<path d="M 54.000, 277.259 
	L 54.000, 281.334 
	L 41.528, 281.334 
" />
<path d="M 54.284, 281.333 
	L 54.283, 281.334 
	L 54.283, 272.263 
	L 55.984, 272.263 
	L 55.984, 274.530 
	L 66.543, 274.530 
	L 66.543, 275.877 
	L 55.984, 275.877 
	L 55.984, 279.987 
	L 66.543, 279.987 
	L 66.543, 281.334 
	L 54.283, 281.334 
" />
<path d="M 54.283, 281.334 
" />
<path d="M 66.544, 281.333 
	L 66.543, 281.334 
	L 66.543, 274.530 
	L 78.803, 274.530 
	L 78.803, 275.877 
	L 68.244, 275.877 
	L 68.244, 281.334 
	L 66.543, 281.334 
" />
<path d="M 89.434, 277.258 
	L 89.433, 277.259 
	L 89.433, 275.877 
	L 80.079, 275.877 
	L 80.079, 277.259 
	L 89.433, 277.259 
	L 78.520, 281.334 
	L 78.520, 274.530 
	L 90.992, 274.530 
	L 90.992, 278.605 
	L 80.079, 278.605 
	L 80.079, 279.987 
" />
<path d="M 80.079, 279.987 
	L 90.992, 279.987 
	L 90.992, 281.334 
	L 78.520, 281.334 
" />
<path d="M 90.993, 281.333 
	L 90.992, 281.334 
	L 90.992, 279.987 
	L 101.906, 279.987 
	L 101.906, 278.605 
	L 90.992, 278.605 
	L 90.992, 274.530 
	L 103.465, 274.530 
	L 103.465, 275.877 
	L 92.551, 275.877 
	L 92.551, 277.259 
" />
<path d="M 92.551, 277.259 
	L 103.465, 277.259 
	L 103.465, 281.334 
	L 90.992, 281.334 
" />
<path d="M 103.465, 281.333 
	L 103.465, 281.334 
	L 103.465, 279.987 
	L 114.378, 279.987 
	L 114.378, 278.605 
	L 103.465, 278.605 
	L 103.465, 274.530 
	L 115.937, 274.530 
	L 115.937, 275.877 
	L 105.024, 275.877 
	L 105.024, 277.259 
" />
<path d="M 105.024, 277.259 
	L 115.937, 277.259 
	L 115.937, 281.334 
	L 103.465, 281.334 
" />
<path d="M 116.221, 281.333 
	L 116.220, 281.334 
	L 116.220, 274.991 
	L 136.063, 274.991 
	L 136.063, 276.338 
	L 117.921, 276.338 
	L 117.921, 281.334 
	L 116.220, 281.334 
	L 116.220, 273.609 
	L 116.220, 272.263 
	L 136.063, 272.263 
" />
<path d="M 136.063, 272.263 
	L 136.063, 273.609 
	L 116.220, 273.609 
" />
<path d="M 136.064, 281.333 
	L 136.063, 281.334 
	L 136.063, 274.530 
	L 148.323, 274.530 
	L 148.323, 275.877 
	L 137.764, 275.877 
	L 137.764, 281.334 
	L 136.063, 281.334 
" />
<path d="M 158.953, 277.258 
	L 158.953, 277.259 
	L 158.953, 275.877 
	L 149.598, 275.877 
	L 149.598, 277.259 
	L 158.953, 277.259 
	L 148.039, 281.334 
	L 148.039, 274.530 
	L 160.512, 274.530 
	L 160.512, 278.605 
	L 149.598, 278.605 
" />
<path d="M 149.598, 278.605 
	L 149.598, 279.987 
	L 160.512, 279.987 
	L 160.512, 281.334 
	L 148.039, 281.334 
" />
<path d="M 172.135, 279.986 
	L 172.134, 279.987 
	L 172.134, 275.877 
	L 162.496, 275.877 
	L 162.496, 279.987 
	L 172.134, 279.987 
	L 172.134, 283.601 
	L 172.134, 281.334 
	L 160.795, 281.334 
	L 160.795, 274.530 
	L 173.835, 274.530 
" />
<path d="M 173.835, 274.530 
	L 173.835, 283.601 
	L 172.134, 283.601 
" />
<path d="M 173.835, 281.333 
	L 173.835, 281.334 
	L 173.835, 274.530 
	L 175.535, 274.530 
	L 175.535, 279.987 
	L 185.173, 279.987 
	L 185.173, 274.530 
	L 186.874, 274.530 
	L 186.874, 281.334 
	L 173.835, 281.334 
" />
<path d="M 197.505, 277.258 
	L 197.504, 277.259 
	L 197.504, 275.877 
	L 188.150, 275.877 
	L 188.150, 277.259 
	L 197.504, 277.259 
	L 186.591, 281.334 
	L 186.591, 274.530 
	L 199.063, 274.530 
	L 199.063, 278.605 
	L 188.150, 278.605 
" />
<path d="M 188.150, 278.605 
	L 188.150, 279.987 
	L 199.063, 279.987 
	L 199.063, 281.334 
	L 186.591, 281.334 
" />
<path d="M 199.347, 281.333 
	L 199.346, 281.334 
	L 199.346, 274.530 
	L 212.386, 274.530 
	L 212.386, 281.334 
	L 210.685, 281.334 
	L 210.685, 275.877 
	L 201.047, 275.877 
	L 201.047, 281.334 
	L 199.346, 281.334 
" />
<path d="M 212.387, 281.333 
	L 212.386, 281.334 
	L 212.386, 274.530 
	L 224.646, 274.530 
	L 224.646, 275.877 
	L 214.087, 275.877 
	L 214.087, 279.987 
	L 224.646, 279.987 
	L 224.646, 281.334 
	L 212.386, 281.334 
" />
<path d="M 225.391, 283.601 
	L 225.390, 283.601 
	L 225.390, 282.219 
	L 235.984, 282.219 
	L 235.984, 281.334 
	L 232.937, 281.334 
	L 225.390, 274.530 
	L 227.658, 274.530 
	L 233.717, 279.987 
	L 235.984, 279.987 
	L 235.984, 274.530 
" />
<path d="M 235.984, 274.530 
	L 237.685, 274.530 
	L 237.685, 283.601 
	L 225.390, 283.601 
" />
<path d="M 27.072, 299.049 
	L 27.071, 299.050 
	L 27.071, 291.326 
	L 17.256, 291.326 
	L 17.256, 289.979 
	L 38.587, 289.979 
	L 38.587, 291.326 
	L 28.772, 291.326 
	L 28.772, 299.050 
	L 27.071, 299.050 
" />
<path d="M 39.331, 299.049 
	L 39.331, 299.050 
	L 39.331, 289.979 
	L 41.032, 289.979 
	L 41.032, 292.247 
	L 52.370, 292.247 
	L 52.370, 299.050 
	L 50.669, 299.050 
	L 50.669, 293.593 
	L 41.032, 293.593 
	L 41.032, 299.050 
	L 39.331, 299.050 
" />
<path d="M 39.331, 299.050 
" />
<path d="M 63.001, 294.975 
	L 63.000, 294.975 
	L 63.000, 293.593 
	L 53.646, 293.593 
	L 53.646, 294.975 
	L 63.000, 294.975 
	L 52.087, 299.050 
	L 52.087, 292.247 
	L 64.559, 292.247 
	L 64.559, 296.322 
	L 53.646, 296.322 
	L 53.646, 297.704 
" />
<path d="M 53.646, 297.704 
	L 64.559, 297.704 
	L 64.559, 299.050 
	L 52.087, 299.050 
" />
<path d="M 64.560, 299.049 
	L 64.559, 299.050 
	L 64.559, 297.704 
	L 84.224, 297.704 
	L 84.224, 299.050 
	L 64.559, 299.050 
	L 64.559, 294.054 
	L 64.559, 292.708 
	L 84.224, 292.708 
	L 84.224, 294.054 
	L 64.559, 294.054 
	L 64.559, 291.326 
" />
<path d="M 64.559, 291.326 
	L 64.559, 289.979 
	L 84.224, 289.979 
	L 84.224, 291.326 
	L 64.559, 291.326 
" />
<path d="M 95.847, 297.703 
	L 95.846, 297.704 
	L 95.846, 293.593 
	L 86.209, 293.593 
	L 86.209, 297.704 
	L 95.846, 297.704 
	L 84.508, 299.050 
	L 84.508, 292.247 
	L 95.846, 292.247 
	L 95.846, 289.979 
	L 97.547, 289.979 
	L 97.547, 299.050 
" />
<path d="M 97.547, 299.050 
	L 84.508, 299.050 
" />
<path d="M 108.887, 297.703 
	L 108.886, 297.704 
	L 108.886, 293.593 
	L 99.248, 293.593 
	L 99.248, 297.704 
	L 108.886, 297.704 
	L 97.547, 301.318 
	L 97.547, 299.936 
	L 108.886, 299.936 
	L 108.886, 299.050 
	L 97.547, 299.050 
" />
<path d="M 97.547, 299.050 
	L 97.547, 292.247 
	L 110.587, 292.247 
	L 110.587, 301.318 
	L 97.547, 301.318 
" />
<path d="M 121.217, 294.975 
	L 121.217, 294.975 
	L 121.217, 293.593 
	L 111.862, 293.593 
	L 111.862, 294.975 
	L 121.217, 294.975 
	L 110.303, 299.050 
	L 110.303, 292.247 
	L 122.776, 292.247 
	L 122.776, 296.322 
	L 111.862, 296.322 
" />
<path d="M 111.862, 296.322 
	L 111.862, 297.704 
	L 122.776, 297.704 
	L 122.776, 299.050 
	L 110.303, 299.050 
" />
<path d="M 143.469, 297.703 
	L 143.469, 297.704 
	L 143.469, 291.326 
	L 124.760, 291.326 
	L 124.760, 297.704 
	L 143.469, 297.704 
	L 123.059, 299.050 
	L 123.059, 289.979 
	L 145.169, 289.979 
	L 145.169, 299.050 
	L 123.059, 299.050 
" />
<path d="M 123.059, 299.050 
" />
<path d="M 145.170, 299.049 
	L 145.169, 299.050 
	L 145.169, 292.247 
	L 157.429, 292.247 
	L 157.429, 293.593 
	L 146.870, 293.593 
	L 146.870, 294.975 
	L 157.429, 294.975 
	L 157.429, 296.322 
	L 146.870, 296.322 
	L 146.870, 299.050 
" />
<path d="M 146.870, 299.050 
	L 145.169, 299.050 
" />
<path d="M 157.430, 299.510 
	L 157.429, 299.511 
	L 157.429, 289.979 
	L 159.130, 289.979 
	L 159.130, 297.456 
	L 168.484, 293.381 
	L 177.839, 297.456 
	L 177.839, 289.979 
	L 179.539, 289.979 
	L 179.539, 299.511 
	L 168.484, 294.727 
" />
<path d="M 168.484, 294.727 
	L 157.429, 299.511 
" />
<path d="M 179.540, 299.049 
	L 179.539, 299.050 
	L 179.539, 289.979 
	L 181.240, 289.979 
	L 181.240, 292.247 
	L 192.579, 292.247 
	L 192.579, 299.050 
	L 190.878, 299.050 
	L 190.878, 293.593 
	L 181.240, 293.593 
	L 181.240, 299.050 
" />
<path d="M 181.240, 299.050 
	L 179.539, 299.050 
" />
<path d="M 203.918, 297.703 
	L 203.917, 297.704 
	L 203.917, 293.593 
	L 201.650, 293.593 
	L 197.114, 297.704 
	L 203.917, 297.704 
	L 193.323, 299.050 
	L 199.382, 293.593 
	L 193.323, 293.593 
	L 193.323, 292.247 
	L 205.618, 292.247 
" />
<path d="M 205.618, 292.247 
	L 205.618, 299.050 
	L 193.323, 299.050 
" />
<path d="M 204.875, 299.049 
	L 204.874, 299.050 
	L 204.874, 289.979 
	L 206.575, 289.979 
	L 206.575, 292.247 
	L 217.134, 292.247 
	L 217.134, 293.593 
	L 206.575, 293.593 
	L 206.575, 297.704 
	L 217.134, 297.704 
	L 217.134, 299.050 
" />
<path d="M 217.134, 299.050 
	L 204.874, 299.050 
" />
<path d="M 217.135, 299.049 
	L 217.134, 299.050 
	L 217.134, 289.979 
	L 218.835, 289.979 
	L 218.835, 299.050 
	L 217.134, 299.050 
" />
<path d="M 218.552, 299.049 
	L 218.551, 299.050 
	L 218.551, 297.704 
	L 229.465, 297.704 
	L 229.465, 296.322 
	L 218.551, 296.322 
	L 218.551, 292.247 
	L 231.024, 292.247 
	L 231.024, 293.593 
	L 220.110, 293.593 
	L 220.110, 294.975 
" />
<path d="M 220.110, 294.975 
	L 231.024, 294.975 
	L 231.024, 299.050 
	L 218.551, 299.050 
" />
<path d="M 17.717, 309.679 
	L 17.717, 309.680 
	L 28.311, 300.149 
	L 38.870, 309.680 
	L 36.602, 309.680 
	L 28.311, 302.168 
	L 19.984, 309.680 
	L 17.717, 309.680 
" />
<path d="M 50.493, 308.333 
	L 50.492, 308.334 
	L 50.492, 304.223 
	L 40.854, 304.223 
	L 40.854, 308.334 
	L 50.492, 308.334 
	L 39.154, 309.680 
	L 39.154, 302.877 
	L 50.492, 302.877 
	L 50.492, 300.609 
	L 52.193, 300.609 
	L 52.193, 309.680 
" />
<path d="M 52.193, 309.680 
	L 39.154, 309.680 
" />
<path d="M 52.194, 309.679 
	L 52.193, 309.680 
	L 52.193, 302.877 
	L 62.965, 302.877 
	L 62.965, 309.680 
	L 61.264, 309.680 
	L 61.264, 304.223 
	L 58.429, 304.223 
	L 58.429, 309.680 
	L 56.728, 309.680 
	L 56.728, 304.223 
	L 53.894, 304.223 
" />
<path d="M 53.894, 304.223 
	L 53.894, 309.680 
	L 52.193, 309.680 
" />
<path d="M 62.965, 309.679 
	L 62.965, 309.680 
	L 62.965, 302.877 
	L 64.665, 302.877 
	L 64.665, 309.680 
	L 62.965, 309.680 
	L 62.965, 301.956 
	L 62.965, 300.609 
	L 64.665, 300.609 
	L 64.665, 301.956 
	L 62.965, 301.956 
" />
<path d="M 64.666, 309.679 
	L 64.665, 309.680 
	L 64.665, 302.877 
	L 77.705, 302.877 
	L 77.705, 309.680 
	L 76.004, 309.680 
	L 76.004, 304.223 
	L 66.366, 304.223 
	L 66.366, 309.680 
	L 64.665, 309.680 
" />
<path d="M 77.705, 309.679 
	L 77.705, 309.680 
	L 77.705, 302.877 
	L 79.406, 302.877 
	L 79.406, 309.680 
	L 77.705, 309.680 
	L 77.705, 301.956 
	L 77.705, 300.609 
	L 79.406, 300.609 
	L 79.406, 301.956 
	L 77.705, 301.956 
" />
<path d="M 79.123, 309.679 
	L 79.122, 309.680 
	L 79.122, 308.334 
	L 90.035, 308.334 
	L 90.035, 306.952 
	L 79.122, 306.952 
	L 79.122, 302.877 
	L 91.595, 302.877 
	L 91.595, 304.223 
	L 80.681, 304.223 
	L 80.681, 305.605 
	L 91.595, 305.605 
" />
<path d="M 91.595, 305.605 
	L 91.595, 309.680 
	L 79.122, 309.680 
" />
<path d="M 91.879, 309.679 
	L 91.878, 309.680 
	L 91.878, 300.609 
	L 93.579, 300.609 
	L 93.579, 302.877 
	L 104.138, 302.877 
	L 104.138, 304.223 
	L 93.579, 304.223 
	L 93.579, 308.334 
	L 104.138, 308.334 
	L 104.138, 309.680 
" />
<path d="M 104.138, 309.680 
	L 91.878, 309.680 
" />
<path d="M 104.139, 309.679 
	L 104.138, 309.680 
	L 104.138, 302.877 
	L 116.398, 302.877 
	L 116.398, 304.223 
	L 105.839, 304.223 
	L 105.839, 309.680 
	L 104.138, 309.680 
" />
<path d="M 127.737, 308.333 
	L 127.736, 308.334 
	L 127.736, 304.223 
	L 125.469, 304.223 
	L 120.933, 308.334 
	L 127.736, 308.334 
	L 117.142, 309.680 
	L 123.201, 304.223 
	L 117.142, 304.223 
	L 117.142, 302.877 
	L 129.437, 302.877 
" />
<path d="M 129.437, 302.877 
	L 129.437, 309.680 
	L 117.142, 309.680 
" />
<path d="M 128.694, 309.679 
	L 128.693, 309.680 
	L 128.693, 300.609 
	L 130.394, 300.609 
	L 130.394, 302.877 
	L 140.953, 302.877 
	L 140.953, 304.223 
	L 130.394, 304.223 
	L 130.394, 308.334 
	L 140.953, 308.334 
	L 140.953, 309.680 
" />
<path d="M 140.953, 309.680 
	L 128.693, 309.680 
" />
<path d="M 140.953, 309.679 
	L 140.953, 309.680 
	L 140.953, 302.877 
	L 142.654, 302.877 
	L 142.654, 309.680 
	L 140.953, 309.680 
	L 140.953, 301.956 
	L 140.953, 300.609 
	L 142.654, 300.609 
	L 142.654, 301.956 
	L 140.953, 301.956 
" />
<path d="M 140.953, 301.956 
" />
<path d="M 142.654, 309.679 
	L 142.654, 309.680 
	L 142.654, 302.877 
	L 144.354, 302.877 
	L 144.354, 308.334 
	L 146.622, 308.334 
	L 152.646, 302.877 
	L 154.913, 302.877 
	L 147.366, 309.680 
	L 142.654, 309.680 
" />
<path d="M 165.544, 305.605 
	L 165.543, 305.605 
	L 165.543, 304.223 
	L 156.189, 304.223 
	L 156.189, 305.605 
	L 165.543, 305.605 
	L 154.630, 309.680 
	L 154.630, 302.877 
	L 167.102, 302.877 
	L 167.102, 306.952 
	L 156.189, 306.952 
" />
<path d="M 156.189, 306.952 
	L 156.189, 308.334 
	L 167.102, 308.334 
	L 167.102, 309.680 
	L 154.630, 309.680 
" />
<path d="M 167.387, 309.679 
	L 167.386, 309.680 
	L 167.386, 300.609 
	L 169.087, 300.609 
	L 169.087, 309.680 
	L 167.386, 309.680 
" />
<path d="M 169.831, 311.947 
	L 169.831, 311.948 
	L 169.831, 310.566 
	L 180.425, 310.566 
	L 180.425, 309.680 
	L 177.378, 309.680 
	L 169.831, 302.877 
	L 172.098, 302.877 
	L 178.158, 308.334 
	L 180.425, 308.334 
	L 180.425, 302.877 
" />
<path d="M 180.425, 302.877 
	L 182.126, 302.877 
	L 182.126, 311.948 
	L 169.831, 311.948 
" />
<path d="M 18.001, 320.309 
	L 18.000, 320.310 
	L 18.000, 313.967 
	L 32.528, 313.967 
	L 35.575, 312.586 
	L 18.000, 312.586 
	L 18.000, 311.239 
	L 39.331, 311.239 
	L 33.307, 315.314 
	L 19.701, 315.314 
	L 19.701, 320.310 
	L 18.000, 320.310 
" />
<path d="M 18.000, 320.310 
" />
<path d="M 50.670, 318.963 
	L 50.669, 318.964 
	L 50.669, 314.853 
	L 41.032, 314.853 
	L 41.032, 318.964 
	L 50.669, 318.964 
	L 39.331, 320.310 
	L 39.331, 313.507 
	L 52.370, 313.507 
	L 52.370, 320.310 
	L 39.331, 320.310 
" />
<path d="M 52.087, 320.309 
	L 52.087, 320.310 
	L 52.087, 318.964 
	L 63.000, 318.964 
	L 63.000, 317.582 
	L 52.087, 317.582 
	L 52.087, 313.507 
	L 64.559, 313.507 
	L 64.559, 314.853 
	L 53.646, 314.853 
	L 53.646, 316.235 
	L 64.559, 316.235 
" />
<path d="M 64.559, 316.235 
	L 64.559, 320.310 
	L 52.087, 320.310 
" />
<path d="M 64.560, 320.309 
	L 64.559, 320.310 
	L 64.559, 318.964 
	L 75.472, 318.964 
	L 75.472, 317.582 
	L 64.559, 317.582 
	L 64.559, 313.507 
	L 77.032, 313.507 
	L 77.032, 314.853 
	L 66.118, 314.853 
	L 66.118, 316.235 
	L 77.032, 316.235 
" />
<path d="M 77.032, 316.235 
	L 77.032, 320.310 
	L 64.559, 320.310 
" />
<path d="M 77.316, 320.309 
	L 77.315, 320.310 
	L 77.315, 313.507 
	L 79.016, 313.507 
	L 79.016, 320.310 
	L 77.315, 320.310 
	L 77.315, 312.586 
	L 77.315, 311.239 
	L 79.016, 311.239 
	L 79.016, 312.586 
	L 77.315, 312.586 
" />
<path d="M 90.355, 318.963 
	L 90.354, 318.964 
	L 90.354, 314.853 
	L 80.717, 314.853 
	L 80.717, 318.964 
	L 90.354, 318.964 
	L 79.016, 320.310 
	L 79.016, 311.239 
	L 80.717, 311.239 
	L 80.717, 313.507 
	L 92.055, 313.507 
	L 92.055, 320.310 
" />
<path d="M 92.055, 320.310 
	L 79.016, 320.310 
" />
<path d="M 92.056, 320.309 
	L 92.055, 320.310 
	L 92.055, 311.239 
	L 93.756, 311.239 
	L 93.756, 320.310 
	L 92.055, 320.310 
" />
<path d="M 104.387, 316.235 
	L 104.386, 316.235 
	L 104.386, 314.853 
	L 95.032, 314.853 
	L 95.032, 316.235 
	L 104.386, 316.235 
	L 93.472, 320.310 
	L 93.472, 313.507 
	L 105.945, 313.507 
	L 105.945, 317.582 
	L 95.032, 317.582 
" />
<path d="M 95.032, 317.582 
	L 95.032, 318.964 
	L 105.945, 318.964 
	L 105.945, 320.310 
	L 93.472, 320.310 
" />
<path d="M 18.001, 338.026 
	L 18.000, 338.027 
	L 18.000, 336.680 
	L 38.409, 336.680 
	L 38.409, 333.030 
	L 18.000, 333.030 
	L 18.000, 328.956 
	L 40.110, 328.956 
	L 40.110, 330.302 
	L 19.701, 330.302 
	L 19.701, 331.684 
	L 40.110, 331.684 
" />
<path d="M 40.110, 331.684 
	L 40.110, 338.027 
	L 18.000, 338.027 
" />
<path d="M 40.111, 338.026 
	L 40.110, 338.027 
	L 40.110, 331.223 
	L 41.811, 331.223 
	L 41.811, 338.027 
	L 40.110, 338.027 
	L 40.110, 330.302 
	L 40.110, 328.956 
	L 41.811, 328.956 
	L 41.811, 330.302 
	L 40.110, 330.302 
" />
<path d="M 41.812, 338.026 
	L 41.811, 338.027 
	L 41.811, 331.223 
	L 54.850, 331.223 
	L 54.850, 338.027 
	L 53.150, 338.027 
	L 53.150, 332.570 
	L 43.512, 332.570 
	L 43.512, 338.027 
	L 41.811, 338.027 
" />
<path d="M 65.481, 333.951 
	L 65.480, 333.952 
	L 65.480, 332.570 
	L 56.126, 332.570 
	L 56.126, 333.952 
	L 65.480, 333.952 
	L 54.567, 338.027 
	L 54.567, 331.223 
	L 67.039, 331.223 
	L 67.039, 335.298 
	L 56.126, 335.298 
	L 56.126, 336.680 
" />
<path d="M 56.126, 336.680 
	L 67.039, 336.680 
	L 67.039, 338.027 
	L 54.567, 338.027 
" />
<path d="M 67.324, 338.026 
	L 67.323, 338.027 
	L 67.323, 328.956 
	L 88.654, 328.956 
	L 84.118, 332.889 
	L 83.374, 333.527 
	L 88.654, 338.027 
	L 86.386, 338.027 
	L 81.106, 333.527 
	L 84.898, 330.302 
	L 69.024, 330.302 
	L 69.024, 338.027 
" />
<path d="M 69.024, 338.027 
	L 67.323, 338.027 
" />
<path d="M 99.993, 336.679 
	L 99.992, 336.680 
	L 99.992, 332.570 
	L 97.724, 332.570 
	L 93.189, 336.680 
	L 99.992, 336.680 
	L 89.398, 338.027 
	L 95.457, 332.570 
	L 89.398, 332.570 
	L 89.398, 331.223 
	L 101.693, 331.223 
	L 101.693, 338.027 
" />
<path d="M 101.693, 338.027 
	L 89.398, 338.027 
" />
<path d="M 100.950, 338.026 
	L 100.949, 338.027 
	L 100.949, 331.223 
	L 102.650, 331.223 
	L 102.650, 336.680 
	L 104.917, 336.680 
	L 110.941, 331.223 
	L 113.209, 331.223 
	L 105.661, 338.027 
	L 100.949, 338.027 
" />
<path d="M 123.839, 333.951 
	L 123.839, 333.952 
	L 123.839, 332.570 
	L 114.484, 332.570 
	L 114.484, 333.952 
	L 123.839, 333.952 
	L 112.925, 338.027 
	L 112.925, 331.223 
	L 125.398, 331.223 
	L 125.398, 335.298 
	L 114.484, 335.298 
" />
<path d="M 114.484, 335.298 
	L 114.484, 336.680 
	L 125.398, 336.680 
	L 125.398, 338.027 
	L 112.925, 338.027 
" />
<path d="M 18.001, 355.742 
	L 18.000, 355.743 
	L 18.000, 349.401 
	L 32.528, 349.401 
	L 35.575, 348.019 
	L 18.000, 348.019 
	L 18.000, 346.672 
	L 39.331, 346.672 
	L 33.307, 350.747 
	L 19.701, 350.747 
	L 19.701, 355.743 
	L 18.000, 355.743 
" />
<path d="M 18.000, 355.743 
" />
<path d="M 50.670, 354.396 
	L 50.669, 354.397 
	L 50.669, 350.286 
	L 48.402, 350.286 
	L 43.866, 354.397 
	L 50.669, 354.397 
	L 40.075, 355.743 
	L 46.134, 350.286 
	L 40.075, 350.286 
	L 40.075, 348.940 
	L 52.370, 348.940 
	L 52.370, 355.743 
" />
<path d="M 52.370, 355.743 
	L 40.075, 355.743 
" />
<path d="M 51.627, 355.742 
	L 51.626, 355.743 
	L 51.626, 346.672 
	L 53.327, 346.672 
	L 53.327, 355.743 
	L 51.626, 355.743 
" />
<path d="M 64.666, 354.396 
	L 64.665, 354.397 
	L 64.665, 350.286 
	L 55.028, 350.286 
	L 55.028, 354.397 
	L 64.665, 354.397 
	L 53.327, 355.743 
	L 53.327, 348.940 
	L 66.366, 348.940 
	L 66.366, 355.743 
	L 53.327, 355.743 
" />
<path d="M 66.367, 355.742 
	L 66.366, 355.743 
	L 66.366, 348.940 
	L 79.406, 348.940 
	L 79.406, 355.743 
	L 77.705, 355.743 
	L 77.705, 350.286 
	L 68.067, 350.286 
	L 68.067, 355.743 
	L 66.366, 355.743 
" />
<path d="M 90.745, 354.396 
	L 90.744, 354.397 
	L 90.744, 350.286 
	L 81.106, 350.286 
	L 81.106, 354.397 
	L 90.744, 354.397 
	L 79.406, 355.743 
	L 79.406, 348.940 
	L 92.445, 348.940 
	L 92.445, 355.743 
	L 79.406, 355.743 
" />
<path d="M 103.784, 354.396 
	L 103.783, 354.397 
	L 103.783, 350.286 
	L 94.146, 350.286 
	L 94.146, 354.397 
	L 103.783, 354.397 
	L 92.445, 358.011 
	L 92.445, 348.940 
	L 105.484, 348.940 
	L 105.484, 355.743 
	L 94.146, 355.743 
" />
<path d="M 94.146, 355.743 
	L 94.146, 358.011 
	L 92.445, 358.011 
" />
<path d="M 105.202, 355.742 
	L 105.201, 355.743 
	L 105.201, 354.397 
	L 116.114, 354.397 
	L 116.114, 353.015 
	L 105.201, 353.015 
	L 105.201, 348.940 
	L 117.673, 348.940 
	L 117.673, 350.286 
	L 106.760, 350.286 
	L 106.760, 351.668 
" />
<path d="M 106.760, 351.668 
	L 117.673, 351.668 
	L 117.673, 355.743 
	L 105.201, 355.743 
" />
<path d="M 117.957, 355.742 
	L 117.957, 355.743 
	L 117.957, 348.940 
	L 119.657, 348.940 
	L 119.657, 355.743 
	L 117.957, 355.743 
	L 117.957, 348.019 
	L 117.957, 346.672 
	L 119.657, 346.672 
	L 119.657, 348.019 
	L 117.957, 348.019 
" />
<path d="M 117.957, 348.019 
" />
<path d="M 130.997, 354.396 
	L 130.996, 354.397 
	L 130.996, 350.286 
	L 128.728, 350.286 
	L 124.193, 354.397 
	L 130.996, 354.397 
	L 120.402, 355.743 
	L 126.461, 350.286 
	L 120.402, 350.286 
	L 120.402, 348.940 
	L 132.697, 348.940 
" />
<path d="M 132.697, 348.940 
	L 132.697, 355.743 
	L 120.402, 355.743 
" />
<path d="M 18.001, 373.459 
	L 18.000, 373.460 
	L 18.000, 363.928 
	L 29.055, 368.676 
	L 40.110, 363.928 
	L 40.110, 373.460 
	L 38.409, 373.460 
	L 38.409, 365.948 
	L 29.055, 370.058 
	L 19.701, 365.948 
	L 19.701, 373.460 
	L 18.000, 373.460 
" />
<path d="M 18.000, 373.460 
" />
<path d="M 51.450, 372.112 
	L 51.449, 372.113 
	L 51.449, 368.003 
	L 41.811, 368.003 
	L 41.811, 372.113 
	L 51.449, 372.113 
	L 40.110, 373.460 
	L 40.110, 366.656 
	L 53.150, 366.656 
	L 53.150, 373.460 
	L 40.110, 373.460 
" />
<path d="M 53.150, 373.459 
	L 53.150, 373.460 
	L 53.150, 366.656 
	L 54.850, 366.656 
	L 54.850, 372.113 
	L 64.488, 372.113 
	L 64.488, 366.656 
	L 66.189, 366.656 
	L 66.189, 373.460 
	L 53.150, 373.460 
" />
<path d="M 66.190, 373.459 
	L 66.189, 373.460 
	L 66.189, 366.656 
	L 79.228, 366.656 
	L 79.228, 373.460 
	L 77.528, 373.460 
	L 77.528, 368.003 
	L 67.890, 368.003 
	L 67.890, 373.460 
	L 66.189, 373.460 
" />
<path d="M 79.229, 373.459 
	L 79.228, 373.460 
	L 79.228, 364.389 
	L 80.929, 364.389 
	L 80.929, 366.656 
	L 91.488, 366.656 
	L 91.488, 368.003 
	L 80.929, 368.003 
	L 80.929, 372.113 
	L 91.488, 372.113 
	L 91.488, 373.460 
	L 79.228, 373.460 
" />
<path d="M 79.228, 373.460 
" />
<path d="M 102.827, 372.112 
	L 102.827, 372.113 
	L 102.827, 368.003 
	L 100.559, 368.003 
	L 96.024, 372.113 
	L 102.827, 372.113 
	L 92.232, 373.460 
	L 98.291, 368.003 
	L 92.232, 368.003 
	L 92.232, 366.656 
	L 104.528, 366.656 
" />
<path d="M 104.528, 366.656 
	L 104.528, 373.460 
	L 92.232, 373.460 
" />
<path d="M 103.784, 373.459 
	L 103.783, 373.460 
	L 103.783, 366.656 
	L 105.484, 366.656 
	L 105.484, 373.460 
	L 103.783, 373.460 
	L 103.783, 365.735 
	L 103.783, 364.389 
	L 105.484, 364.389 
	L 105.484, 365.735 
	L 103.783, 365.735 
" />
<path d="M 103.783, 365.735 
" />
<path d="M 105.485, 373.459 
	L 105.484, 373.460 
	L 105.484, 366.656 
	L 118.524, 366.656 
	L 118.524, 373.460 
	L 116.823, 373.460 
	L 116.823, 368.003 
	L 107.185, 368.003 
	L 107.185, 373.460 
	L 105.484, 373.460 
" />
<path d="M 136.843, 372.112 
	L 136.843, 372.113 
	L 129.295, 365.735 
	L 120.224, 365.735 
	L 120.224, 372.113 
	L 136.843, 372.113 
	L 118.524, 373.460 
	L 118.524, 364.389 
	L 130.039, 364.389 
	L 140.634, 373.460 
	L 118.524, 373.460 
" />
<path d="M 118.524, 373.460 
" />
<path d="M 140.635, 373.459 
	L 140.634, 373.460 
	L 140.634, 366.656 
	L 152.894, 366.656 
	L 152.894, 368.003 
	L 142.335, 368.003 
	L 142.335, 373.460 
	L 140.634, 373.460 
" />
<path d="M 164.233, 372.112 
	L 164.232, 372.113 
	L 164.232, 368.003 
	L 154.595, 368.003 
	L 154.595, 372.113 
	L 164.232, 372.113 
	L 152.894, 373.460 
	L 152.894, 366.656 
	L 165.933, 366.656 
	L 165.933, 373.460 
	L 152.894, 373.460 
" />
<path d="M 152.894, 373.460 
" />
<path d="M 165.934, 373.459 
	L 165.933, 373.460 
	L 165.933, 366.656 
	L 178.972, 366.656 
	L 178.972, 373.460 
	L 177.272, 373.460 
	L 177.272, 368.003 
	L 167.634, 368.003 
	L 167.634, 373.460 
	L 165.933, 373.460 
" />
<path d="M 189.603, 369.384 
	L 189.602, 369.385 
	L 189.602, 368.003 
	L 180.248, 368.003 
	L 180.248, 369.385 
	L 189.602, 369.385 
	L 178.689, 373.460 
	L 178.689, 366.656 
	L 191.161, 366.656 
	L 191.161, 370.731 
	L 180.248, 370.731 
" />
<path d="M 180.248, 370.731 
	L 180.248, 372.113 
	L 191.161, 372.113 
	L 191.161, 373.460 
	L 178.689, 373.460 
" />
<path d="M 13.961, 216.207 
	L 13.961, 216.208 
	L 13.961, 217.873 
	L 13.961, 230.062 
	L 13.961, 231.727 
	L 12.295, 231.727 
	L 10.630, 231.727 
	L 10.630, 229.956 
	L 10.630, 217.873 
	L 10.630, 216.208 
	L 13.961, 216.208 
	L 21.969, 216.208 
" />
<path d="M 21.969, 216.208 
	L 22.535, 215.960 
	L 23.031, 215.960 
	L 23.492, 215.960 
	L 23.917, 216.208 
	L 24.413, 216.562 
	L 24.413, 217.271 
	L 24.413, 217.767 
	L 24.201, 218.440 
	L 19.240, 223.932 
	L 24.201, 229.495 
	L 24.378, 229.885 
" />
<path d="M 24.378, 229.885 
	L 24.378, 230.204 
	L 24.378, 230.912 
	L 23.634, 231.444 
	L 23.280, 231.727 
	L 22.783, 231.727 
	L 21.791, 231.727 
	L 20.303, 230.629 
	L 15.874, 225.633 
	L 14.244, 223.967 
	L 15.874, 222.302 
	L 21.969, 216.208 
" />
<path d="M 21.969, 216.208 
" />
<path d="M 31.855, 228.396 
	L 31.854, 228.397 
	L 36.071, 228.397 
	L 36.035, 221.983 
	L 26.362, 231.054 
	L 25.724, 231.586 
	L 25.157, 231.586 
	L 24.520, 231.586 
	L 23.988, 230.877 
	L 23.528, 230.310 
	L 23.528, 229.743 
	L 23.528, 229.034 
" />
<path d="M 23.528, 229.034 
	L 24.272, 228.432 
	L 36.283, 216.987 
	L 37.169, 216.101 
	L 37.878, 216.101 
	L 38.374, 216.101 
	L 38.551, 216.137 
	L 39.366, 216.420 
	L 39.366, 218.156 
	L 39.366, 229.389 
	L 39.366, 231.798 
	L 36.602, 231.727 
" />
<path d="M 36.602, 231.727 
	L 31.854, 231.727 
	L 29.941, 231.798 
	L 29.941, 230.080 
	L 29.941, 228.361 
	L 31.854, 228.397 
" />
<path d="M 54.674, 228.467 
	L 54.673, 228.467 
	L 54.673, 229.495 
	L 53.575, 230.611 
	L 52.476, 231.727 
	L 51.378, 231.727 
	L 43.618, 231.727 
	L 42.520, 231.727 
	L 41.404, 230.611 
	L 40.287, 229.495 
	L 40.287, 228.397 
	L 40.323, 219.609 
" />
<path d="M 40.323, 219.609 
	L 40.287, 218.440 
	L 41.404, 217.324 
	L 42.520, 216.208 
	L 43.618, 216.208 
	L 51.378, 216.208 
	L 52.476, 216.208 
	L 53.575, 217.324 
	L 54.673, 218.440 
	L 54.673, 219.538 
	L 54.673, 228.467 
	L 51.378, 226.731 
" />
<path d="M 51.378, 226.731 
	L 51.378, 221.204 
	L 51.378, 219.538 
	L 49.713, 219.538 
	L 45.283, 219.538 
	L 43.618, 219.538 
	L 43.618, 221.239 
	L 43.618, 226.731 
	L 43.583, 228.432 
	L 45.283, 228.397 
	L 49.713, 228.397 
	L 51.378, 228.397 
" />
<path d="M 51.378, 228.397 
	L 51.378, 226.731 
" />
<path d="M 66.509, 216.207 
	L 66.508, 216.208 
	L 68.173, 216.208 
	L 68.173, 217.802 
	L 68.173, 219.467 
	L 66.508, 219.538 
	L 55.417, 219.538 
	L 53.752, 219.467 
	L 53.752, 217.873 
	L 53.752, 216.172 
	L 55.417, 216.208 
	L 66.508, 216.208 
" />
<path d="M 66.508, 216.208 
	L 59.280, 222.869 
	L 59.244, 220.672 
	L 61.087, 220.654 
	L 62.929, 220.637 
	L 62.929, 222.869 
	L 62.929, 229.495 
	L 62.823, 231.727 
	L 61.122, 231.727 
	L 61.087, 231.727 
	L 59.244, 231.692 
	L 59.280, 229.495 
" />
<path d="M 59.280, 229.495 
	L 59.280, 222.869 
" />
<path d="M 70.725, 216.207 
	L 70.724, 216.208 
	L 80.681, 216.208 
	L 82.346, 216.208 
	L 82.346, 217.873 
	L 82.346, 219.538 
	L 80.681, 219.538 
	L 73.488, 219.538 
	L 72.390, 219.538 
	L 72.390, 220.637 
	L 72.390, 227.298 
	L 72.390, 228.397 
" />
<path d="M 72.390, 228.397 
	L 73.488, 228.397 
	L 80.681, 228.397 
	L 82.346, 228.397 
	L 82.346, 230.062 
	L 82.346, 231.727 
	L 80.681, 231.727 
	L 70.724, 231.727 
	L 69.059, 231.727 
	L 69.059, 230.062 
	L 69.059, 217.979 
	L 69.059, 216.208 
" />
<path d="M 69.059, 216.208 
	L 70.724, 216.208 
	L 75.720, 222.302 
	L 78.484, 222.302 
	L 80.681, 222.302 
	L 80.681, 223.967 
	L 80.681, 225.633 
	L 78.484, 225.633 
	L 75.720, 225.633 
	L 73.488, 225.633 
	L 73.488, 223.967 
	L 73.488, 222.302 
" />
<path d="M 73.488, 222.302 
	L 75.720, 222.302 
" />
<path d="M 95.564, 231.727 
	L 95.563, 231.727 
	L 87.343, 231.727 
	L 85.287, 231.727 
	L 83.799, 230.275 
	L 82.346, 228.857 
	L 82.346, 226.838 
	L 82.346, 220.956 
	L 82.346, 218.936 
	L 83.799, 217.483 
	L 85.110, 216.208 
	L 87.059, 216.208 
" />
<path d="M 87.059, 216.208 
	L 87.272, 216.208 
	L 87.520, 216.208 
	L 94.394, 216.208 
	L 96.130, 216.208 
	L 96.130, 217.944 
	L 96.130, 219.680 
	L 94.394, 219.680 
	L 88.016, 219.680 
	L 85.783, 219.680 
	L 85.783, 221.806 
	L 85.783, 226.377 
" />
<path d="M 85.783, 226.377 
	L 85.783, 228.290 
	L 88.157, 228.290 
	L 95.563, 228.290 
	L 97.299, 228.290 
	L 97.299, 229.991 
	L 97.264, 231.727 
	L 95.563, 231.727 
" />
<path d="M 107.257, 225.632 
	L 107.256, 225.633 
	L 100.630, 225.633 
	L 98.965, 225.633 
	L 98.965, 223.967 
	L 98.965, 222.302 
	L 100.630, 222.302 
	L 107.256, 222.302 
	L 108.921, 222.302 
	L 108.921, 223.967 
	L 108.921, 225.633 
" />
<path d="M 108.921, 225.633 
	L 107.256, 225.633 
" />
<path d="M 114.698, 228.396 
	L 114.697, 228.397 
	L 118.913, 228.397 
	L 118.878, 221.983 
	L 109.205, 231.054 
	L 108.567, 231.586 
	L 108.000, 231.586 
	L 107.362, 231.586 
	L 106.831, 230.877 
	L 106.370, 230.310 
	L 106.370, 229.743 
" />
<path d="M 106.370, 229.743 
	L 106.370, 229.034 
	L 107.114, 228.432 
	L 119.126, 216.987 
	L 120.012, 216.101 
	L 120.720, 216.101 
	L 121.217, 216.101 
	L 121.394, 216.137 
	L 122.209, 216.420 
	L 122.209, 218.156 
	L 122.209, 229.389 
" />
<path d="M 122.209, 229.389 
	L 122.209, 231.798 
	L 119.445, 231.727 
	L 114.697, 231.727 
	L 112.783, 231.798 
	L 112.783, 230.080 
	L 112.783, 228.361 
	L 114.697, 228.397 
" />
<path d="M 123.095, 216.207 
	L 123.095, 216.208 
	L 124.760, 216.208 
	L 126.425, 216.208 
	L 126.425, 218.440 
	L 126.425, 227.298 
	L 126.425, 228.397 
	L 127.524, 228.397 
	L 133.122, 228.397 
	L 135.390, 228.397 
	L 135.425, 230.027 
" />
<path d="M 135.425, 230.027 
	L 135.425, 231.656 
	L 133.122, 231.727 
	L 125.681, 231.727 
	L 123.095, 231.727 
	L 123.095, 228.999 
	L 123.095, 218.404 
	L 123.095, 216.208 
" />
<path d="M 149.493, 227.120 
	L 149.492, 227.121 
	L 149.492, 229.495 
	L 148.553, 230.611 
	L 147.614, 231.727 
	L 144.957, 231.692 
	L 137.161, 231.727 
	L 135.425, 231.727 
	L 135.425, 229.991 
	L 135.425, 222.869 
	L 135.461, 220.637 
" />
<path d="M 135.461, 220.637 
	L 137.108, 220.637 
	L 138.756, 220.637 
	L 138.720, 222.869 
	L 138.720, 228.503 
	L 144.283, 228.503 
	L 146.020, 228.503 
	L 146.020, 227.050 
	L 146.020, 225.597 
	L 144.248, 225.597 
	L 142.087, 225.633 
" />
<path d="M 142.087, 225.633 
	L 139.783, 225.633 
	L 139.819, 223.967 
	L 139.854, 222.302 
	L 142.087, 222.302 
	L 144.283, 222.302 
	L 146.020, 222.338 
	L 146.037, 220.938 
	L 146.055, 219.538 
	L 144.390, 219.538 
	L 137.091, 219.538 
" />
<path d="M 137.091, 219.538 
	L 135.425, 219.538 
	L 135.425, 217.944 
	L 135.425, 216.208 
	L 137.161, 216.208 
	L 144.850, 216.208 
	L 147.047, 216.208 
	L 148.163, 217.324 
	L 149.280, 218.440 
	L 149.386, 220.637 
	L 149.386, 222.975 
" />
<path d="M 149.386, 222.975 
	L 147.969, 223.826 
	L 149.492, 224.818 
	L 149.492, 227.121 
" />
<path d="M 149.528, 216.242 
	L 149.528, 216.243 
	L 151.158, 216.243 
	L 151.193, 216.243 
	L 152.858, 216.243 
	L 152.787, 218.475 
	L 152.787, 226.767 
	L 152.787, 228.397 
	L 154.453, 228.432 
	L 158.846, 228.397 
	L 160.583, 228.432 
" />
<path d="M 160.583, 228.432 
	L 160.583, 226.696 
	L 160.583, 218.440 
	L 160.618, 216.208 
	L 162.283, 216.208 
	L 163.913, 216.208 
	L 163.913, 218.334 
	L 163.913, 228.397 
	L 163.913, 229.460 
	L 163.063, 230.576 
	L 162.213, 231.692 
" />
<path d="M 162.213, 231.692 
	L 161.079, 231.692 
	L 152.256, 231.692 
	L 151.122, 231.692 
	L 150.325, 230.593 
	L 149.528, 229.495 
	L 149.528, 228.397 
	L 149.492, 218.440 
	L 149.528, 216.243 
" />
<path d="M 175.359, 216.951 
	L 175.358, 216.952 
	L 176.244, 216.208 
	L 176.988, 216.208 
	L 177.272, 216.208 
	L 177.520, 216.314 
	L 178.476, 216.668 
	L 178.476, 218.298 
	L 178.476, 229.814 
	L 178.441, 231.798 
	L 176.811, 231.798 
" />
<path d="M 176.811, 231.798 
	L 176.776, 231.798 
	L 175.146, 231.798 
	L 175.110, 229.779 
	L 175.110, 222.940 
	L 175.075, 221.948 
	L 174.508, 222.479 
	L 166.039, 230.983 
	L 165.154, 231.798 
	L 164.409, 231.798 
	L 163.878, 231.798 
" />
<path d="M 163.878, 231.798 
	L 163.382, 231.302 
	L 162.886, 230.842 
	L 162.886, 230.275 
	L 162.886, 229.495 
	L 163.736, 228.609 
	L 175.358, 216.952 
	L 188.717, 216.633 
	L 188.717, 218.298 
	L 188.717, 229.566 
	L 188.717, 231.798 
" />
<path d="M 188.717, 231.798 
	L 187.051, 231.798 
	L 185.386, 231.798 
	L 185.386, 229.566 
	L 185.386, 222.940 
	L 185.386, 222.231 
	L 184.748, 222.763 
	L 182.587, 224.960 
	L 180.957, 226.093 
	L 180.071, 224.889 
	L 179.185, 223.684 
" />
<path d="M 179.185, 223.684 
	L 180.461, 222.267 
	L 185.669, 216.987 
	L 186.413, 216.208 
	L 187.193, 216.208 
	L 187.441, 216.208 
	L 187.689, 216.279 
	L 188.717, 216.633 
" />
<path d="M 204.166, 228.467 
	L 204.165, 228.467 
	L 204.165, 229.495 
	L 203.067, 230.611 
	L 201.969, 231.727 
	L 200.870, 231.727 
	L 193.110, 231.727 
	L 192.012, 231.727 
	L 190.896, 230.611 
	L 189.780, 229.495 
	L 189.780, 228.397 
" />
<path d="M 189.780, 228.397 
	L 189.815, 219.609 
	L 189.780, 218.440 
	L 190.896, 217.324 
	L 192.012, 216.208 
	L 193.110, 216.208 
	L 200.870, 216.208 
	L 201.969, 216.208 
	L 203.067, 217.324 
	L 204.165, 218.440 
	L 204.165, 219.538 
" />
<path d="M 204.165, 219.538 
	L 204.165, 228.467 
	L 200.870, 226.731 
	L 200.870, 221.204 
	L 200.870, 219.538 
	L 199.205, 219.538 
	L 194.776, 219.538 
	L 193.110, 219.538 
	L 193.110, 221.239 
	L 193.110, 226.731 
	L 193.075, 228.432 
" />
<path d="M 193.075, 228.432 
	L 194.776, 228.397 
	L 199.205, 228.397 
	L 200.870, 228.397 
	L 200.870, 226.731 
" />
<path d="M 218.552, 228.467 
	L 218.551, 228.467 
	L 218.551, 229.495 
	L 217.453, 230.611 
	L 216.354, 231.727 
	L 215.256, 231.727 
	L 207.496, 231.727 
	L 206.398, 231.727 
	L 205.282, 230.611 
	L 204.165, 229.495 
	L 204.165, 228.397 
" />
<path d="M 204.165, 228.397 
	L 204.201, 219.609 
	L 204.165, 218.440 
	L 205.282, 217.324 
	L 206.398, 216.208 
	L 207.496, 216.208 
	L 215.256, 216.208 
	L 216.354, 216.208 
	L 217.453, 217.324 
	L 218.551, 218.440 
	L 218.551, 219.538 
" />
<path d="M 218.551, 219.538 
	L 218.551, 228.467 
	L 215.256, 226.731 
	L 215.256, 221.204 
	L 215.256, 219.538 
	L 213.591, 219.538 
	L 209.161, 219.538 
	L 207.496, 219.538 
	L 207.496, 221.239 
	L 207.496, 226.731 
	L 207.461, 228.432 
" />
<path d="M 207.461, 228.432 
	L 209.161, 228.397 
	L 213.591, 228.397 
	L 215.256, 228.397 
	L 215.256, 226.731 
" />
<path d="M 225.780, 229.494 
	L 225.780, 229.495 
	L 225.780, 231.727 
	L 224.150, 231.727 
	L 222.484, 231.727 
	L 222.413, 229.495 
	L 222.413, 218.440 
	L 222.484, 216.208 
	L 224.150, 216.208 
	L 225.780, 216.208 
	L 225.780, 218.440 
" />
<path d="M 225.780, 218.440 
	L 225.780, 229.495 
" />
<path d="M 644.882, 659.759 
	L 644.882, 662.948 
	L 644.173, 664.011 
	L 642.756, 664.011 
	L 642.047, 662.948 
	L 642.047, 660.822 
	L 644.882, 660.822 
" />
<path d="M 640.630, 656.570 
	L 640.630, 655.507 
	L 644.882, 655.507 
" />
<path d="M 644.882, 656.570 
	L 644.882, 654.444 
" />
<path d="M 644.882, 651.255 
	L 644.882, 648.066 
	L 644.173, 647.003 
	L 642.756, 647.003 
	L 642.047, 648.066 
	L 642.047, 650.192 
" />
<path d="M 640.630, 650.192 
	L 644.882, 650.192 
" />
<path d="M 642.047, 644.877 
	L 644.173, 644.877 
	L 644.882, 643.814 
	L 644.882, 641.688 
	L 642.047, 641.688 
" />
<path d="M 644.882, 638.499 
	L 642.047, 638.499 
" />
<path d="M 642.756, 638.499 
	L 642.047, 637.436 
	L 642.756, 636.373 
	L 644.882, 636.373 
" />
<path d="M 642.756, 636.373 
	L 642.047, 635.310 
	L 642.756, 634.247 
	L 644.882, 634.247 
" />
<path d="M 644.173, 632.121 
	L 644.882, 631.058 
	L 644.882, 628.932 
	L 644.173, 627.869 
	L 641.339, 627.869 
	L 640.630, 628.932 
	L 640.630, 631.058 
	L 641.339, 632.121 
	L 644.173, 632.121 
" />
<path d="M 644.173, 625.743 
	L 644.882, 624.680 
	L 644.882, 622.554 
	L 644.173, 621.491 
	L 641.339, 621.491 
	L 640.630, 622.554 
	L 640.630, 624.680 
	L 641.339, 625.743 
	L 644.173, 625.743 
" />
<path d="M 644.882, 618.302 
	L 644.882, 616.176 
" />
<path d="M 644.882, 617.239 
	L 640.630, 617.239 
	L 641.339, 618.302 
" />
<path d="M 644.173, 608.735 
	L 644.882, 609.798 
	L 644.882, 610.861 
	L 644.173, 611.924 
	L 642.756, 611.924 
	L 642.047, 610.861 
	L 642.047, 609.798 
	L 642.756, 608.735 
" />
<path d="M 644.882, 605.546 
	L 644.173, 606.609 
	L 642.756, 606.609 
	L 642.047, 605.546 
	L 642.047, 604.483 
	L 642.756, 603.420 
	L 644.173, 603.420 
	L 644.882, 604.483 
	L 644.882, 605.546 
" />
<path d="M 642.047, 600.231 
	L 643.465, 600.231 
	L 644.882, 598.105 
	L 643.465, 595.979 
	L 642.047, 595.979 
" />
<path d="M 643.465, 593.853 
	L 643.465, 590.664 
	L 642.756, 589.601 
	L 642.047, 590.664 
	L 642.047, 592.790 
	L 642.756, 593.853 
	L 644.173, 593.853 
	L 644.882, 592.790 
	L 644.882, 589.601 
" />
<path d="M 642.047, 587.475 
	L 644.882, 587.475 
" />
<path d="M 643.465, 587.475 
	L 642.047, 585.349 
	L 642.047, 584.286 
" />
<path d="M 640.630, 573.656 
	L 644.882, 573.656 
	L 644.882, 571.530 
" />
<path d="M 642.047, 574.719 
	L 642.047, 571.530 
" />
<path d="M 643.465, 568.342 
	L 643.465, 565.153 
	L 642.756, 564.090 
	L 642.047, 565.153 
	L 642.047, 567.279 
	L 642.756, 568.342 
	L 644.173, 568.342 
	L 644.882, 567.279 
	L 644.882, 564.090 
" />
<path d="M 642.047, 558.775 
	L 642.047, 560.901 
	L 642.756, 561.964 
	L 643.465, 560.901 
	L 643.465, 559.838 
	L 644.173, 558.775 
	L 644.882, 559.838 
	L 644.882, 561.964 
" />
<path d="M 640.630, 554.523 
	L 644.882, 554.523 
	L 644.882, 552.397 
" />
<path d="M 642.047, 555.586 
	L 642.047, 552.397 
" />
<path d="M 641.339, 523.696 
	L 640.630, 522.633 
	L 640.630, 520.507 
	L 641.339, 519.444 
	L 642.047, 519.444 
	L 644.173, 523.696 
	L 644.882, 523.696 
	L 644.882, 519.444 
" />
<path d="M 644.173, 517.318 
	L 644.882, 516.255 
	L 644.882, 514.129 
	L 644.173, 513.066 
	L 641.339, 513.066 
	L 640.630, 514.129 
	L 640.630, 516.255 
	L 641.339, 517.318 
	L 644.173, 517.318 
" />
<path d="M 644.882, 509.877 
	L 644.882, 507.751 
" />
<path d="M 644.882, 508.814 
	L 640.630, 508.814 
	L 641.339, 509.877 
" />
<path d="M 644.882, 503.499 
	L 644.882, 502.436 
	L 643.465, 500.310 
	L 641.339, 500.310 
	L 640.630, 501.373 
	L 640.630, 503.499 
	L 641.339, 504.562 
	L 642.047, 504.562 
	L 642.756, 503.499 
	L 642.756, 500.310 
" />
<path d="M 642.756, 498.184 
	L 642.756, 493.932 
" />
<path d="M 644.882, 490.743 
	L 644.882, 488.617 
" />
<path d="M 644.882, 489.680 
	L 640.630, 489.680 
	L 641.339, 490.743 
" />
<path d="M 644.882, 484.365 
	L 644.882, 482.239 
" />
<path d="M 644.882, 483.302 
	L 640.630, 483.302 
	L 641.339, 484.365 
" />
<path d="M 642.756, 479.050 
	L 642.756, 474.798 
" />
<path d="M 641.339, 472.672 
	L 640.630, 471.609 
	L 640.630, 469.483 
	L 641.339, 468.420 
	L 642.047, 468.420 
	L 644.173, 472.672 
	L 644.882, 472.672 
	L 644.882, 468.420 
" />
<path d="M 640.630, 462.042 
	L 640.630, 466.294 
	L 642.047, 466.294 
	L 642.047, 463.105 
	L 642.756, 462.042 
	L 644.173, 462.042 
	L 644.882, 463.105 
	L 644.882, 465.231 
	L 644.173, 466.294 
" />
<path d="M 644.882, 452.475 
	L 644.882, 450.349 
" />
<path d="M 644.882, 451.412 
	L 640.630, 451.412 
	L 641.339, 452.475 
" />
<path d="M 640.630, 443.971 
	L 642.756, 447.160 
	L 643.465, 447.160 
	L 643.465, 442.908 
" />
<path d="M 642.756, 443.971 
	L 644.882, 443.971 
" />
<path d="M 642.756, 439.719 
	L 642.047, 439.719 
	L 642.047, 438.656 
	L 642.756, 438.656 
	L 642.756, 439.719 
" />
<path d="M 644.173, 439.719 
	L 644.173, 438.656 
	L 644.882, 438.656 
	L 644.882, 439.719 
	L 644.173, 439.719 
" />
<path d="M 644.882, 433.342 
	L 644.882, 431.216 
" />
<path d="M 644.882, 432.279 
	L 640.630, 432.279 
	L 641.339, 433.342 
" />
<path d="M 640.630, 428.027 
	L 640.630, 423.775 
	L 641.339, 423.775 
	L 643.465, 428.027 
	L 644.882, 428.027 
" />
</g>
</svg>
