<?xml version="1.0" encoding="UTF-8" standalone="no" ?>
<svg width="100%" height="100%" viewBox="0 0 644.882 646.299" xmlns="http://www.w3.org/2000/svg"><g>
</g><g style="stroke:rgb(0,0,0); fill:none; stroke-width:1.000mm" >
</g><g style="stroke:rgb(0,0,0); fill:none; stroke-width:0.100mm" >
<path d="M 0.001, 646.299 
	L 0.000, 646.299 
	L 0.000, 8.504 
	L 637.795, 8.504 
	L 637.795, 646.299 
	L 0.000, 646.299 
" />
<path d="M 0.001, 651.395 
	L 0.000, 651.396 
	L 141.732, 642.568 
	L 283.465, 630.241 
	L 425.197, 639.994 
	L 566.929, 634.302 
" />
<path d="M 0.001, 644.321 
	L 0.000, 644.322 
	L 70.866, 635.472 
	L 141.732, 623.115 
	L 212.598, 632.891 
	L 283.465, 627.186 
	L 354.331, 630.763 
	L 425.197, 621.520 
	L 496.063, 614.998 
	L 566.929, 624.140 
" />
<path d="M 0.001, 637.207 
	L 0.000, 637.207 
	L 47.197, 628.406 
	L 94.394, 616.117 
	L 141.591, 625.840 
	L 188.787, 620.166 
	L 235.984, 623.723 
	L 283.181, 614.531 
	L 330.378, 608.046 
	L 377.575, 617.138 
	L 424.772, 627.727 
" />
<path d="M 424.772, 627.727 
	L 471.969, 627.425 
	L 519.165, 620.200 
	L 566.362, 618.887 
	L 613.559, 610.727 
" />
<path d="M 0.001, 629.813 
	L 0.000, 629.814 
	L 35.433, 621.544 
	L 70.866, 609.995 
	L 106.299, 619.132 
	L 141.732, 613.801 
	L 177.165, 617.144 
	L 212.598, 608.506 
	L 248.032, 602.411 
	L 283.465, 610.954 
	L 318.898, 620.906 
" />
<path d="M 318.898, 620.906 
	L 354.331, 620.622 
	L 389.764, 613.832 
	L 425.197, 612.598 
	L 460.630, 604.930 
	L 496.063, 604.302 
	L 531.496, 607.492 
	L 566.929, 597.643 
	L 602.362, 584.310 
" />
<path d="M 0.001, 622.552 
	L 0.000, 622.553 
	L 28.346, 614.585 
	L 56.693, 603.459 
	L 85.039, 612.262 
	L 113.386, 607.125 
	L 141.732, 610.345 
	L 170.079, 602.023 
	L 198.425, 596.152 
	L 226.772, 604.383 
	L 255.118, 613.970 
" />
<path d="M 255.118, 613.970 
	L 283.465, 613.697 
	L 311.811, 607.155 
	L 340.158, 605.967 
	L 368.504, 598.578 
	L 396.850, 597.973 
	L 425.197, 601.047 
	L 453.543, 591.558 
	L 481.890, 578.712 
	L 510.236, 577.085 
	L 538.583, 573.931 
" />
<path d="M 538.583, 573.931 
	L 566.929, 583.101 
	L 595.276, 581.894 
	L 623.622, 586.657 
" />
<path d="M 0.001, 615.312 
	L 0.000, 615.312 
	L 23.598, 607.611 
	L 47.197, 596.857 
	L 70.795, 605.366 
	L 94.394, 600.401 
	L 117.992, 603.513 
	L 141.591, 595.470 
	L 165.189, 589.795 
	L 188.787, 597.750 
	L 212.386, 607.018 
	L 235.984, 606.752 
" />
<path d="M 235.984, 606.752 
	L 259.583, 600.430 
	L 283.181, 599.281 
	L 306.780, 592.140 
	L 330.378, 591.555 
	L 353.976, 594.526 
	L 377.575, 585.354 
	L 401.173, 572.939 
	L 424.772, 571.366 
	L 448.370, 568.317 
	L 471.969, 577.181 
" />
<path d="M 471.969, 577.181 
	L 495.567, 576.014 
	L 519.165, 580.618 
	L 542.764, 592.677 
	L 566.362, 609.929 
	L 589.961, 607.859 
	L 613.559, 595.470 
	L 637.158, 583.248 
" />
<path d="M 0.001, 607.704 
	L 0.000, 607.705 
	L 20.197, 600.906 
	L 40.394, 591.413 
	L 60.591, 598.924 
	L 80.787, 594.541 
	L 100.984, 597.288 
	L 121.181, 590.188 
	L 141.378, 585.178 
	L 161.575, 592.201 
	L 181.772, 600.382 
	L 201.969, 600.148 
" />
<path d="M 201.969, 600.148 
	L 222.165, 594.566 
	L 242.362, 593.552 
	L 262.559, 587.248 
	L 282.756, 586.731 
	L 302.953, 589.355 
	L 323.150, 581.258 
	L 343.347, 570.298 
	L 363.543, 568.909 
	L 383.740, 566.218 
	L 403.937, 574.042 
" />
<path d="M 403.937, 574.042 
	L 424.134, 573.012 
	L 444.331, 577.077 
	L 464.528, 587.722 
	L 484.724, 602.952 
	L 504.921, 601.125 
	L 525.118, 590.188 
	L 545.315, 579.398 
	L 565.512, 579.042 
	L 585.709, 589.793 
	L 605.906, 601.594 
" />
<path d="M 605.906, 601.594 
	L 626.102, 594.308 
" />
<path d="M 0.001, 600.411 
	L 0.000, 600.411 
	L 17.717, 593.971 
	L 35.433, 584.977 
	L 53.150, 592.093 
	L 70.866, 587.940 
	L 88.583, 590.544 
	L 106.299, 583.817 
	L 124.016, 579.071 
	L 141.732, 585.724 
	L 159.449, 593.474 
	L 177.165, 593.252 
" />
<path d="M 177.165, 593.252 
	L 194.882, 587.965 
	L 212.598, 587.004 
	L 230.315, 581.032 
	L 248.032, 580.543 
	L 265.748, 583.028 
	L 283.465, 575.358 
	L 301.181, 564.975 
	L 318.898, 563.660 
	L 336.614, 561.110 
	L 354.331, 568.522 
" />
<path d="M 354.331, 568.522 
	L 372.047, 567.546 
	L 389.764, 571.397 
	L 407.480, 581.482 
	L 425.197, 595.909 
	L 442.913, 594.179 
	L 460.630, 583.817 
	L 478.347, 573.596 
	L 496.063, 573.259 
	L 513.780, 583.443 
	L 531.496, 594.623 
" />
<path d="M 531.496, 594.623 
	L 549.213, 587.721 
	L 566.929, 582.345 
	L 584.646, 587.852 
	L 602.362, 583.495 
	L 620.079, 594.605 
" />
<path d="M 0.001, 593.064 
	L 0.000, 593.065 
	L 15.732, 587.074 
	L 31.465, 578.710 
	L 47.197, 585.328 
	L 62.929, 581.466 
	L 78.661, 583.887 
	L 94.394, 577.631 
	L 110.126, 573.216 
	L 125.858, 579.405 
	L 141.591, 586.612 
	L 157.323, 586.407 
" />
<path d="M 157.323, 586.407 
	L 173.055, 581.489 
	L 188.787, 580.595 
	L 204.520, 575.041 
	L 220.252, 574.586 
	L 235.984, 576.897 
	L 251.717, 569.763 
	L 267.449, 560.106 
	L 283.181, 558.883 
	L 298.913, 556.512 
	L 314.646, 563.406 
" />
<path d="M 314.646, 563.406 
	L 330.378, 562.498 
	L 346.110, 566.079 
	L 361.843, 575.459 
	L 377.575, 588.877 
	L 393.307, 587.268 
	L 409.039, 577.631 
	L 424.772, 568.124 
	L 440.504, 567.811 
	L 456.236, 577.283 
	L 471.969, 587.681 
" />
<path d="M 471.969, 587.681 
	L 487.701, 581.261 
	L 503.433, 576.262 
	L 519.165, 581.384 
	L 534.898, 577.331 
	L 550.630, 587.664 
	L 566.362, 589.606 
	L 582.095, 590.626 
	L 597.827, 600.508 
	L 613.559, 603.225 
" />
<path d="M 0.001, 585.687 
	L 0.000, 585.688 
	L 14.173, 580.200 
	L 28.346, 572.539 
	L 42.520, 578.601 
	L 56.693, 575.063 
	L 70.866, 577.281 
	L 85.039, 571.550 
	L 99.213, 567.508 
	L 113.386, 573.175 
	L 127.559, 579.777 
	L 141.732, 579.589 
" />
<path d="M 141.732, 579.589 
	L 155.906, 575.085 
	L 170.079, 574.266 
	L 184.252, 569.179 
	L 198.425, 568.761 
	L 212.598, 570.879 
	L 226.772, 564.344 
	L 240.945, 555.498 
	L 255.118, 554.378 
	L 269.291, 552.206 
	L 283.465, 558.520 
" />
<path d="M 283.465, 558.520 
	L 297.638, 557.690 
	L 311.811, 560.969 
	L 325.984, 569.561 
	L 340.158, 581.852 
	L 354.331, 580.377 
	L 368.504, 571.550 
	L 382.677, 562.843 
	L 396.850, 562.555 
	L 411.024, 571.232 
	L 425.197, 580.756 
" />
<path d="M 425.197, 580.756 
	L 439.370, 574.875 
	L 453.543, 570.297 
	L 467.717, 574.988 
	L 481.890, 571.276 
	L 496.063, 580.740 
	L 510.236, 582.520 
	L 524.410, 583.454 
	L 538.583, 592.506 
	L 552.756, 594.994 
" />
<path d="M 0.001, 578.403 
	L 0.000, 578.404 
	L 12.827, 573.258 
	L 25.654, 566.074 
	L 38.480, 571.758 
	L 51.307, 568.441 
	L 64.134, 570.521 
	L 76.961, 565.147 
	L 89.787, 561.356 
	L 102.614, 566.671 
	L 115.441, 572.861 
	L 128.268, 572.685 
" />
<path d="M 128.268, 572.685 
	L 141.095, 568.461 
	L 153.921, 567.693 
	L 166.748, 562.922 
	L 179.575, 562.531 
	L 192.402, 564.516 
	L 205.228, 558.389 
	L 218.055, 550.094 
	L 230.882, 549.043 
	L 243.709, 547.007 
	L 256.535, 552.928 
" />
<path d="M 256.535, 552.928 
	L 269.362, 552.149 
	L 282.189, 555.224 
	L 295.016, 563.281 
	L 307.843, 574.807 
	L 320.669, 573.424 
	L 333.496, 565.147 
	L 346.323, 556.981 
	L 359.150, 556.712 
	L 371.976, 564.848 
	L 384.803, 573.779 
" />
<path d="M 384.803, 573.779 
	L 397.630, 568.265 
	L 410.457, 563.971 
	L 423.284, 568.371 
	L 436.110, 564.890 
	L 448.937, 573.764 
	L 461.764, 575.433 
	L 474.591, 576.309 
	L 487.417, 584.797 
	L 500.244, 587.132 
" />
<path d="M 0.001, 571.020 
	L 0.000, 571.021 
	L 11.764, 566.389 
	L 23.528, 559.921 
	L 35.291, 565.038 
	L 47.055, 562.051 
	L 58.819, 563.924 
	L 70.583, 559.086 
	L 82.346, 555.673 
	L 94.110, 560.458 
	L 105.874, 566.031 
	L 117.638, 565.872 
" />
<path d="M 117.638, 565.872 
	L 129.402, 562.069 
	L 141.165, 561.378 
	L 152.929, 557.083 
	L 164.693, 556.732 
	L 176.457, 558.519 
	L 188.221, 553.002 
	L 199.984, 545.535 
	L 211.748, 544.589 
	L 223.512, 542.755 
	L 235.276, 548.086 
" />
<path d="M 235.276, 548.086 
	L 247.039, 547.384 
	L 258.803, 550.153 
	L 270.567, 557.406 
	L 282.331, 567.782 
	L 294.095, 566.538 
	L 305.858, 559.086 
	L 317.622, 551.735 
	L 329.386, 551.492 
	L 341.150, 558.817 
	L 352.913, 566.858 
" />
<path d="M 352.913, 566.858 
	L 364.677, 561.893 
	L 376.441, 558.028 
	L 388.205, 561.988 
	L 399.969, 558.854 
	L 411.732, 566.844 
	L 423.496, 568.347 
	L 435.260, 569.135 
	L 447.024, 576.776 
	L 458.787, 578.878 
" />
<path d="M 0.001, 563.758 
	L 0.000, 563.759 
	L 10.843, 559.430 
	L 21.685, 553.386 
	L 32.528, 558.168 
	L 43.370, 555.378 
	L 54.213, 557.127 
	L 65.055, 552.606 
	L 75.898, 549.417 
	L 86.740, 553.888 
	L 97.583, 559.096 
	L 108.425, 558.948 
" />
<path d="M 108.425, 558.948 
	L 119.268, 555.394 
	L 130.110, 554.748 
	L 140.953, 550.735 
	L 151.795, 550.406 
	L 162.638, 552.076 
	L 173.480, 546.922 
	L 184.323, 539.943 
	L 195.165, 539.060 
	L 206.008, 537.345 
	L 216.850, 542.327 
" />
<path d="M 216.850, 542.327 
	L 227.693, 541.672 
	L 238.535, 544.259 
	L 249.378, 551.037 
	L 260.221, 560.733 
	L 271.063, 559.570 
	L 281.906, 552.606 
	L 292.748, 545.737 
	L 303.591, 545.511 
	L 314.433, 552.355 
	L 325.276, 559.869 
" />
<path d="M 325.276, 559.869 
	L 336.118, 555.230 
	L 346.961, 551.618 
	L 357.803, 555.319 
	L 368.646, 552.390 
	L 379.488, 559.856 
	L 390.331, 561.260 
	L 401.173, 561.997 
	L 412.016, 569.137 
	L 422.858, 571.101 
" />
<path d="M 0.001, 555.947 
	L 0.000, 555.948 
	L 10.063, 552.874 
	L 20.126, 548.581 
	L 30.189, 551.978 
	L 40.252, 549.996 
	L 50.315, 551.238 
	L 60.378, 548.028 
	L 70.441, 545.762 
	L 80.504, 548.938 
	L 90.567, 552.637 
	L 100.630, 552.531 
" />
<path d="M 100.630, 552.531 
	L 110.693, 550.007 
	L 120.756, 549.549 
	L 130.819, 546.698 
	L 140.882, 546.465 
	L 150.945, 547.651 
	L 161.008, 543.990 
	L 171.071, 539.034 
	L 181.134, 538.406 
	L 191.197, 537.190 
	L 201.260, 540.727 
" />
<path d="M 201.260, 540.727 
	L 211.323, 540.262 
	L 221.386, 542.099 
	L 231.449, 546.913 
	L 241.512, 553.799 
	L 251.575, 552.973 
	L 261.638, 548.028 
	L 271.701, 543.149 
	L 281.764, 542.988 
	L 291.827, 547.849 
	L 301.890, 553.185 
" />
<path d="M 301.890, 553.185 
	L 311.953, 549.891 
	L 322.016, 547.326 
	L 332.079, 549.953 
	L 342.142, 547.874 
	L 352.205, 553.176 
	L 362.268, 554.173 
	L 372.331, 554.697 
	L 382.394, 559.767 
	L 392.457, 561.163 
" />
<path d="M 0.001, 548.619 
	L 0.000, 548.620 
	L 9.425, 545.964 
	L 18.850, 542.256 
	L 28.276, 545.190 
	L 37.701, 543.478 
	L 47.126, 544.552 
	L 56.551, 541.778 
	L 65.976, 539.821 
	L 75.402, 542.565 
	L 84.827, 545.759 
	L 94.252, 545.669 
" />
<path d="M 94.252, 545.669 
	L 103.677, 543.489 
	L 113.102, 543.093 
	L 122.528, 540.631 
	L 131.953, 540.429 
	L 141.378, 541.453 
	L 150.803, 538.291 
	L 160.228, 534.010 
	L 169.654, 533.468 
	L 179.079, 532.417 
	L 188.504, 535.473 
" />
<path d="M 188.504, 535.473 
	L 197.929, 535.071 
	L 207.354, 536.658 
	L 216.780, 540.816 
	L 226.205, 546.764 
	L 235.630, 546.050 
	L 245.055, 541.778 
	L 254.480, 537.564 
	L 263.906, 537.426 
	L 273.331, 541.624 
	L 282.756, 546.233 
" />
<path d="M 282.756, 546.233 
	L 292.181, 543.387 
	L 301.606, 541.172 
	L 311.032, 543.442 
	L 320.457, 541.646 
	L 329.882, 546.226 
	L 339.307, 547.087 
	L 348.732, 547.539 
	L 358.158, 551.919 
	L 367.583, 553.124 
" />
<path d="M 0.001, 541.294 
	L 0.000, 541.295 
	L 8.858, 539.053 
	L 17.717, 535.922 
	L 26.575, 538.399 
	L 35.433, 536.953 
	L 44.291, 537.859 
	L 53.150, 535.517 
	L 62.008, 533.865 
	L 70.866, 536.181 
	L 79.724, 538.880 
	L 88.583, 538.802 
" />
<path d="M 88.583, 538.802 
	L 97.441, 536.961 
	L 106.299, 536.627 
	L 115.157, 534.548 
	L 124.016, 534.378 
	L 132.874, 535.243 
	L 141.732, 532.573 
	L 150.591, 528.958 
	L 159.449, 528.500 
	L 168.307, 527.612 
	L 177.165, 530.193 
" />
<path d="M 177.165, 530.193 
	L 186.024, 529.853 
	L 194.882, 531.194 
	L 203.740, 534.704 
	L 212.598, 539.727 
	L 221.457, 539.125 
	L 230.315, 535.517 
	L 239.173, 531.959 
	L 248.032, 531.842 
	L 256.890, 535.387 
	L 265.748, 539.279 
" />
<path d="M 265.748, 539.279 
	L 274.606, 536.876 
	L 283.465, 535.005 
	L 292.323, 536.922 
	L 301.181, 535.405 
	L 310.039, 539.273 
	L 318.898, 540.000 
	L 327.756, 540.382 
	L 336.614, 544.081 
	L 345.472, 545.098 
" />
<path d="M 0.001, 534.303 
	L 0.000, 534.304 
	L 8.291, 531.896 
	L 16.583, 528.534 
	L 24.874, 531.194 
	L 33.165, 529.642 
	L 41.457, 530.615 
	L 49.748, 528.100 
	L 58.039, 526.326 
	L 66.331, 528.813 
	L 74.622, 531.710 
	L 82.913, 531.627 
" />
<path d="M 82.913, 531.627 
	L 91.205, 529.651 
	L 99.496, 529.292 
	L 107.787, 527.059 
	L 116.079, 526.876 
	L 124.370, 527.805 
	L 132.661, 524.937 
	L 140.953, 521.055 
	L 149.244, 520.564 
	L 157.535, 519.611 
	L 165.827, 522.382 
" />
<path d="M 165.827, 522.382 
	L 174.118, 522.017 
	L 182.409, 523.456 
	L 190.701, 527.227 
	L 198.992, 532.620 
	L 207.283, 531.974 
	L 215.575, 528.100 
	L 223.866, 524.278 
	L 232.158, 524.153 
	L 240.449, 527.960 
	L 248.740, 532.140 
" />
<path d="M 248.740, 532.140 
	L 257.032, 529.559 
	L 265.323, 527.550 
	L 273.614, 529.608 
	L 281.906, 527.980 
	L 290.197, 532.133 
	L 298.488, 532.913 
	L 306.780, 533.324 
	L 315.071, 537.295 
	L 323.362, 538.388 
" />
<path d="M 0.001, 526.839 
	L 0.000, 526.840 
	L 7.866, 525.086 
	L 15.732, 522.636 
	L 23.598, 524.574 
	L 31.465, 523.444 
	L 39.331, 524.152 
	L 47.197, 522.320 
	L 55.063, 521.028 
	L 62.929, 522.840 
	L 70.795, 524.950 
	L 78.661, 524.890 
" />
<path d="M 78.661, 524.890 
	L 86.528, 523.450 
	L 94.394, 523.189 
	L 102.260, 521.562 
	L 110.126, 521.429 
	L 117.992, 522.106 
	L 125.858, 520.017 
	L 133.724, 517.190 
	L 141.591, 516.831 
	L 149.457, 516.137 
	L 157.323, 518.156 
" />
<path d="M 157.323, 518.156 
	L 165.189, 517.890 
	L 173.055, 518.938 
	L 180.921, 521.685 
	L 188.787, 525.614 
	L 196.654, 525.142 
	L 204.520, 522.320 
	L 212.386, 519.537 
	L 220.252, 519.445 
	L 228.118, 522.218 
	L 235.984, 525.263 
" />
<path d="M 235.984, 525.263 
	L 243.850, 523.383 
	L 251.717, 521.920 
	L 259.583, 523.420 
	L 267.449, 522.233 
	L 275.315, 525.258 
	L 283.181, 525.827 
	L 291.047, 526.125 
	L 298.913, 529.019 
	L 306.780, 529.814 
" />
<path d="M 0.001, 519.400 
	L 0.000, 519.401 
	L 7.441, 518.257 
	L 14.882, 516.660 
	L 22.323, 517.923 
	L 29.764, 517.185 
	L 37.205, 517.648 
	L 44.646, 516.453 
	L 52.087, 515.610 
	L 59.528, 516.792 
	L 66.969, 518.168 
	L 74.409, 518.129 
" />
<path d="M 74.409, 518.129 
	L 81.850, 517.190 
	L 89.291, 517.020 
	L 96.732, 515.959 
	L 104.173, 515.872 
	L 111.614, 516.313 
	L 119.055, 514.951 
	L 126.496, 513.106 
	L 133.937, 512.873 
	L 141.378, 512.420 
	L 148.819, 513.736 
" />
<path d="M 148.819, 513.736 
	L 156.260, 513.563 
	L 163.701, 514.247 
	L 171.142, 516.038 
	L 178.583, 518.601 
	L 186.024, 518.294 
	L 193.465, 516.453 
	L 200.906, 514.638 
	L 208.346, 514.578 
	L 215.787, 516.387 
	L 223.228, 518.372 
" />
<path d="M 223.228, 518.372 
	L 230.669, 517.146 
	L 238.110, 516.192 
	L 245.551, 517.170 
	L 252.992, 516.396 
	L 260.433, 518.369 
	L 267.874, 518.740 
	L 275.315, 518.935 
	L 282.756, 520.822 
	L 290.197, 521.341 
" />
<path d="M 0.001, 511.803 
	L 0.000, 511.804 
	L 7.087, 511.544 
	L 14.173, 511.180 
	L 21.260, 511.468 
	L 28.346, 511.300 
	L 35.433, 511.406 
	L 42.520, 511.133 
	L 49.606, 510.942 
	L 56.693, 511.211 
	L 63.780, 511.524 
	L 70.866, 511.515 
" />
<path d="M 70.866, 511.515 
	L 77.953, 511.301 
	L 85.039, 511.262 
	L 92.126, 511.022 
	L 99.213, 511.002 
	L 106.299, 511.102 
	L 113.386, 510.792 
	L 120.472, 510.372 
	L 127.559, 510.319 
	L 134.646, 510.216 
	L 141.732, 510.516 
" />
<path d="M 141.732, 510.516 
	L 148.819, 510.477 
	L 155.906, 510.632 
	L 162.992, 511.039 
	L 170.079, 511.622 
	L 177.165, 511.552 
	L 184.252, 511.133 
	L 191.339, 510.721 
	L 198.425, 510.707 
	L 205.512, 511.119 
	L 212.598, 511.570 
" />
<path d="M 212.598, 511.570 
	L 219.685, 511.292 
	L 226.772, 511.074 
	L 233.858, 511.296 
	L 240.945, 511.121 
	L 248.032, 511.569 
	L 255.118, 511.654 
	L 262.205, 511.698 
	L 269.291, 512.127 
	L 276.378, 512.245 
" />
<path d="M 0.001, 505.035 
	L 0.000, 505.035 
	L 6.732, 504.224 
	L 13.465, 503.091 
	L 20.197, 503.987 
	L 26.929, 503.464 
	L 33.661, 503.792 
	L 40.394, 502.945 
	L 47.126, 502.347 
	L 53.858, 503.185 
	L 60.591, 504.162 
	L 67.323, 504.133 
" />
<path d="M 67.323, 504.133 
	L 74.055, 503.467 
	L 80.787, 503.346 
	L 87.520, 502.594 
	L 94.252, 502.532 
	L 100.984, 502.845 
	L 107.717, 501.879 
	L 114.449, 500.570 
	L 121.181, 500.405 
	L 127.913, 500.083 
	L 134.646, 501.017 
" />
<path d="M 134.646, 501.017 
	L 141.378, 500.895 
	L 148.110, 501.379 
	L 154.843, 502.650 
	L 161.575, 504.468 
	L 168.307, 504.250 
	L 175.039, 502.945 
	L 181.772, 501.657 
	L 188.504, 501.614 
	L 195.236, 502.897 
	L 201.969, 504.306 
" />
<path d="M 201.969, 504.306 
	L 208.701, 503.437 
	L 215.433, 502.759 
	L 222.165, 503.453 
	L 228.898, 502.904 
	L 235.630, 504.304 
	L 242.362, 504.567 
	L 249.095, 504.705 
	L 255.827, 506.044 
	L 262.559, 506.412 
" />
<path d="M 0.001, 497.542 
	L 0.000, 497.543 
	L 6.378, 497.435 
	L 12.756, 497.285 
	L 19.134, 497.404 
	L 25.512, 497.334 
	L 31.890, 497.378 
	L 38.268, 497.266 
	L 44.646, 497.186 
	L 51.024, 497.298 
	L 57.402, 497.427 
	L 63.780, 497.423 
" />
<path d="M 63.780, 497.423 
	L 70.157, 497.334 
	L 76.535, 497.319 
	L 82.913, 497.219 
	L 89.291, 497.211 
	L 95.669, 497.252 
	L 102.047, 497.124 
	L 108.425, 496.951 
	L 114.803, 496.929 
	L 121.181, 496.887 
	L 127.559, 497.010 
" />
<path d="M 127.559, 497.010 
	L 133.937, 496.994 
	L 140.315, 497.058 
	L 146.693, 497.227 
	L 153.071, 497.468 
	L 159.449, 497.439 
	L 165.827, 497.266 
	L 172.205, 497.095 
	L 178.583, 497.089 
	L 184.961, 497.259 
	L 191.339, 497.446 
" />
<path d="M 191.339, 497.446 
	L 197.717, 497.331 
	L 204.095, 497.241 
	L 210.472, 497.333 
	L 216.850, 497.260 
	L 223.228, 497.446 
	L 229.606, 497.480 
	L 235.984, 497.499 
	L 242.362, 497.676 
	L 248.740, 497.725 
" />
<path d="M 0.001, 490.556 
	L 0.000, 490.557 
	L 6.094, 490.274 
	L 12.189, 489.880 
	L 18.283, 490.192 
	L 24.378, 490.010 
	L 30.472, 490.124 
	L 36.567, 489.829 
	L 42.661, 489.621 
	L 48.756, 489.913 
	L 54.850, 490.253 
	L 60.945, 490.243 
" />
<path d="M 60.945, 490.243 
	L 67.039, 490.011 
	L 73.134, 489.969 
	L 79.228, 489.707 
	L 85.323, 489.685 
	L 91.417, 489.794 
	L 97.512, 489.458 
	L 103.606, 489.003 
	L 109.701, 488.945 
	L 115.795, 488.833 
	L 121.890, 489.158 
" />
<path d="M 121.890, 489.158 
	L 127.984, 489.115 
	L 134.079, 489.284 
	L 140.173, 489.726 
	L 146.268, 490.359 
	L 152.362, 490.283 
	L 158.457, 489.829 
	L 164.551, 489.380 
	L 170.646, 489.366 
	L 176.740, 489.813 
	L 182.835, 490.303 
" />
<path d="M 182.835, 490.303 
	L 188.929, 490.000 
	L 195.024, 489.764 
	L 201.118, 490.006 
	L 207.213, 489.815 
	L 213.307, 490.302 
	L 219.402, 490.394 
	L 225.496, 490.442 
	L 231.591, 490.908 
	L 237.685, 491.036 
" />
<path d="M 0.001, 483.306 
	L 0.000, 483.307 
	L 5.882, 483.307 
	L 11.764, 483.307 
	L 17.646, 483.307 
	L 23.528, 483.307 
	L 29.409, 483.307 
	L 35.291, 483.307 
	L 41.173, 483.307 
	L 47.055, 483.307 
	L 52.937, 483.307 
	L 58.819, 483.307 
" />
<path d="M 58.819, 483.307 
	L 64.701, 483.307 
	L 70.583, 483.307 
	L 76.465, 483.307 
	L 82.346, 483.307 
	L 88.228, 483.307 
	L 94.110, 483.307 
	L 99.992, 483.307 
	L 105.874, 483.307 
	L 111.756, 483.307 
	L 117.638, 483.307 
	L 123.520, 483.307 
" />
<path d="M 123.520, 483.307 
	L 129.402, 483.307 
	L 135.283, 483.307 
	L 141.165, 483.307 
	L 147.047, 483.307 
	L 152.929, 483.307 
	L 158.811, 483.307 
	L 164.693, 483.307 
	L 170.575, 483.307 
	L 176.457, 483.307 
	L 182.339, 483.307 
" />
<path d="M 182.339, 483.307 
	L 188.221, 483.307 
	L 194.102, 483.307 
	L 199.984, 483.307 
	L 205.866, 483.307 
	L 211.748, 483.307 
	L 217.630, 483.307 
	L 223.512, 483.307 
	L 229.394, 483.307 
" />
<path d="M 0.001, 475.964 
	L 0.000, 475.965 
	L 5.669, 476.408 
	L 11.339, 477.027 
	L 17.008, 476.537 
	L 22.677, 476.823 
	L 28.346, 476.644 
	L 34.016, 477.107 
	L 39.685, 477.434 
	L 45.354, 476.976 
	L 51.024, 476.442 
	L 56.693, 476.457 
" />
<path d="M 56.693, 476.457 
	L 62.362, 476.821 
	L 68.032, 476.887 
	L 73.701, 477.298 
	L 79.370, 477.332 
	L 85.039, 477.162 
	L 90.709, 477.690 
	L 96.378, 478.405 
	L 102.047, 478.495 
	L 107.717, 478.670 
	L 113.386, 478.160 
	L 119.055, 478.227 
" />
<path d="M 119.055, 478.227 
	L 124.724, 477.962 
	L 130.394, 477.268 
	L 136.063, 476.274 
	L 141.732, 476.393 
	L 147.402, 477.107 
	L 153.071, 477.811 
	L 158.740, 477.834 
	L 164.409, 477.133 
	L 170.079, 476.363 
	L 175.748, 476.838 
" />
<path d="M 175.748, 476.838 
	L 181.417, 477.208 
	L 187.087, 476.829 
	L 192.756, 477.129 
	L 198.425, 476.364 
	L 204.095, 476.221 
	L 209.764, 476.145 
	L 215.433, 475.413 
	L 221.102, 475.212 
" />
<path d="M 0.001, 469.125 
	L 0.000, 469.125 
	L 5.386, 469.140 
	L 10.772, 469.159 
	L 16.157, 469.144 
	L 21.543, 469.153 
	L 26.929, 469.147 
	L 32.315, 469.162 
	L 37.701, 469.173 
	L 43.087, 469.158 
	L 48.472, 469.141 
	L 53.858, 469.142 
" />
<path d="M 53.858, 469.142 
	L 59.244, 469.153 
	L 64.630, 469.155 
	L 70.016, 469.169 
	L 75.402, 469.169 
	L 80.787, 469.164 
	L 86.173, 469.181 
	L 91.559, 469.204 
	L 96.945, 469.207 
	L 102.331, 469.213 
	L 107.717, 469.196 
	L 113.102, 469.198 
" />
<path d="M 113.102, 469.198 
	L 118.488, 469.190 
	L 123.874, 469.167 
	L 129.260, 469.135 
	L 134.646, 469.140 
	L 140.032, 469.162 
	L 145.417, 469.185 
	L 150.803, 469.186 
	L 156.189, 469.163 
	L 161.575, 469.138 
	L 166.961, 469.154 
" />
<path d="M 166.961, 469.154 
	L 172.346, 469.166 
	L 177.732, 469.154 
	L 183.118, 469.163 
	L 188.504, 469.139 
	L 193.890, 469.134 
	L 199.276, 469.132 
	L 204.661, 469.108 
	L 210.047, 469.101 
" />
<path d="M 0.001, 461.874 
	L 0.000, 461.875 
	L 5.244, 462.173 
	L 10.488, 462.590 
	L 15.732, 462.261 
	L 20.976, 462.453 
	L 26.220, 462.332 
	L 31.465, 462.643 
	L 36.709, 462.864 
	L 41.953, 462.555 
	L 47.197, 462.196 
	L 52.441, 462.207 
" />
<path d="M 52.441, 462.207 
	L 57.685, 462.451 
	L 62.929, 462.496 
	L 68.173, 462.772 
	L 73.417, 462.795 
	L 78.661, 462.680 
	L 83.906, 463.035 
	L 89.150, 463.516 
	L 94.394, 463.577 
	L 99.638, 463.695 
	L 104.882, 463.352 
	L 110.126, 463.397 
" />
<path d="M 110.126, 463.397 
	L 115.370, 463.219 
	L 120.614, 462.752 
	L 125.858, 462.083 
	L 131.102, 462.164 
	L 136.346, 462.643 
	L 141.591, 463.117 
	L 146.835, 463.132 
	L 152.079, 462.661 
	L 157.323, 462.143 
	L 162.567, 462.463 
" />
<path d="M 162.567, 462.463 
	L 167.811, 462.712 
	L 173.055, 462.457 
	L 178.299, 462.659 
	L 183.543, 462.144 
	L 188.787, 462.047 
	L 194.032, 461.996 
	L 199.276, 461.504 
	L 204.520, 461.369 
" />
<path d="M 0.001, 455.224 
	L 0.000, 455.224 
	L 5.031, 454.768 
	L 10.063, 454.130 
	L 15.094, 454.635 
	L 20.126, 454.341 
	L 25.157, 454.525 
	L 30.189, 454.048 
	L 35.220, 453.712 
	L 40.252, 454.183 
	L 45.283, 454.733 
	L 50.315, 454.717 
" />
<path d="M 50.315, 454.717 
	L 55.346, 454.342 
	L 60.378, 454.274 
	L 65.409, 453.851 
	L 70.441, 453.816 
	L 75.472, 453.992 
	L 80.504, 453.448 
	L 85.535, 452.713 
	L 90.567, 452.619 
	L 95.598, 452.439 
	L 100.630, 452.964 
	L 105.661, 452.895 
" />
<path d="M 105.661, 452.895 
	L 110.693, 453.168 
	L 115.724, 453.883 
	L 120.756, 454.905 
	L 125.787, 454.783 
	L 130.819, 454.048 
	L 135.850, 453.324 
	L 140.882, 453.300 
	L 145.913, 454.022 
	L 150.945, 454.814 
	L 155.976, 454.325 
" />
<path d="M 155.976, 454.325 
	L 161.008, 453.944 
	L 166.039, 454.334 
	L 171.071, 454.025 
	L 176.102, 454.813 
	L 181.134, 454.961 
	L 186.165, 455.039 
	L 191.197, 455.791 
	L 196.228, 455.999 
" />
<path d="M 0.001, 448.131 
	L 0.000, 448.132 
	L 4.819, 447.685 
	L 9.638, 447.061 
	L 14.457, 447.554 
	L 19.276, 447.267 
	L 24.094, 447.447 
	L 28.913, 446.980 
	L 33.732, 446.651 
	L 38.551, 447.112 
	L 43.370, 447.651 
	L 48.189, 447.635 
" />
<path d="M 48.189, 447.635 
	L 53.008, 447.268 
	L 57.827, 447.202 
	L 62.646, 446.787 
	L 67.465, 446.753 
	L 72.283, 446.925 
	L 77.102, 446.393 
	L 81.921, 445.672 
	L 86.740, 445.581 
	L 91.559, 445.404 
	L 96.378, 445.918 
	L 101.197, 445.851 
" />
<path d="M 101.197, 445.851 
	L 106.016, 446.118 
	L 110.835, 446.818 
	L 115.654, 447.820 
	L 120.472, 447.700 
	L 125.291, 446.980 
	L 130.110, 446.270 
	L 134.929, 446.247 
	L 139.748, 446.954 
	L 144.567, 447.730 
	L 149.386, 447.251 
" />
<path d="M 149.386, 447.251 
	L 154.205, 446.878 
	L 159.024, 447.260 
	L 163.843, 446.958 
	L 168.661, 447.729 
	L 173.480, 447.874 
	L 178.299, 447.950 
	L 183.118, 448.688 
	L 187.937, 448.891 
" />
<path d="M 0.001, 441.192 
	L 0.000, 441.193 
	L 4.677, 440.491 
	L 9.354, 439.510 
	L 14.031, 440.286 
	L 18.709, 439.834 
	L 23.386, 440.117 
	L 28.063, 439.384 
	L 32.740, 438.866 
	L 37.417, 439.592 
	L 42.094, 440.437 
	L 46.772, 440.413 
" />
<path d="M 46.772, 440.413 
	L 51.449, 439.836 
	L 56.126, 439.732 
	L 60.803, 439.080 
	L 65.480, 439.027 
	L 70.157, 439.298 
	L 74.835, 438.462 
	L 79.512, 437.330 
	L 84.189, 437.186 
	L 88.866, 436.908 
	L 93.543, 437.716 
	L 98.220, 437.610 
" />
<path d="M 98.220, 437.610 
	L 102.898, 438.030 
	L 107.575, 439.129 
	L 112.252, 440.702 
	L 116.929, 440.513 
	L 121.606, 439.384 
	L 126.283, 438.270 
	L 130.961, 438.233 
	L 135.638, 439.343 
	L 140.315, 440.562 
	L 144.992, 439.810 
" />
<path d="M 144.992, 439.810 
	L 149.669, 439.223 
	L 154.346, 439.824 
	L 159.024, 439.349 
	L 163.701, 440.560 
	L 168.378, 440.787 
	L 173.055, 440.907 
	L 177.732, 442.065 
	L 182.409, 442.384 
" />
</g><g style="stroke:rgb(255,0,0); fill:none; stroke-width:0.100mm" >
<path d="M 14.173, 622.205 
	L 14.173, 625.039 
" />
<path d="M 14.173, 623.622 
	L 16.299, 622.205 
	L 17.362, 622.205 
" />
<path d="M 20.551, 623.622 
	L 23.740, 623.622 
	L 24.803, 622.913 
	L 23.740, 622.205 
	L 21.614, 622.205 
	L 20.551, 622.913 
	L 20.551, 624.331 
	L 21.614, 625.039 
	L 24.803, 625.039 
" />
<path d="M 31.181, 624.331 
	L 30.118, 625.039 
	L 29.055, 625.039 
	L 27.992, 624.331 
	L 27.992, 622.913 
	L 29.055, 622.205 
	L 30.118, 622.205 
	L 31.181, 622.913 
" />
<path d="M 34.370, 625.039 
	L 33.307, 624.331 
	L 33.307, 622.913 
	L 34.370, 622.205 
	L 35.433, 622.205 
	L 36.496, 622.913 
	L 36.496, 624.331 
	L 35.433, 625.039 
	L 34.370, 625.039 
" />
<path d="M 39.685, 622.205 
	L 39.685, 625.039 
" />
<path d="M 39.685, 623.622 
	L 41.811, 622.205 
	L 42.874, 622.205 
" />
<path d="M 49.252, 620.787 
	L 49.252, 625.039 
	L 47.126, 625.039 
	L 46.063, 624.331 
	L 46.063, 622.913 
	L 47.126, 622.205 
	L 49.252, 622.205 
" />
<path d="M 49.252, 625.039 
	L 50.315, 625.039 
" />
<path d="M 52.441, 623.622 
	L 55.630, 623.622 
	L 56.693, 622.913 
	L 55.630, 622.205 
	L 53.504, 622.205 
	L 52.441, 622.913 
	L 52.441, 624.331 
	L 53.504, 625.039 
	L 56.693, 625.039 
" />
<path d="M 62.008, 620.787 
	L 62.008, 625.039 
	L 59.882, 625.039 
	L 58.819, 624.331 
	L 58.819, 622.913 
	L 59.882, 622.205 
	L 62.008, 622.205 
" />
<path d="M 62.008, 625.039 
	L 63.071, 625.039 
" />
<path d="M 73.701, 620.787 
	L 73.701, 621.496 
" />
<path d="M 72.638, 622.205 
	L 73.701, 622.205 
	L 73.701, 625.039 
" />
<path d="M 72.638, 625.039 
	L 74.764, 625.039 
" />
<path d="M 77.953, 625.039 
	L 77.953, 622.205 
" />
<path d="M 77.953, 622.913 
	L 79.016, 622.205 
	L 80.079, 622.205 
	L 81.142, 622.913 
	L 81.142, 625.039 
" />
<path d="M 92.835, 625.039 
	L 92.835, 620.787 
	L 90.709, 620.787 
	L 94.961, 620.787 
" />
<path d="M 97.087, 622.205 
	L 97.087, 624.331 
	L 98.150, 625.039 
	L 100.276, 625.039 
	L 100.276, 622.205 
" />
<path d="M 106.654, 622.205 
	L 104.528, 622.205 
	L 103.465, 622.913 
	L 104.528, 623.622 
	L 105.591, 623.622 
	L 106.654, 624.331 
	L 105.591, 625.039 
	L 103.465, 625.039 
" />
<path d="M 109.843, 620.787 
	L 109.843, 625.039 
" />
<path d="M 109.843, 622.205 
	L 111.969, 622.205 
	L 113.032, 622.913 
	L 113.032, 625.039 
" />
<path d="M 116.220, 623.622 
	L 119.409, 623.622 
	L 120.472, 622.913 
	L 119.409, 622.205 
	L 117.283, 622.205 
	L 116.220, 622.913 
	L 116.220, 624.331 
	L 117.283, 625.039 
	L 120.472, 625.039 
" />
<path d="M 123.661, 620.787 
	L 123.661, 625.039 
	L 125.787, 625.039 
" />
<path d="M 122.598, 622.205 
	L 125.787, 622.205 
" />
<path d="M 131.102, 620.787 
	L 131.102, 621.496 
" />
<path d="M 130.039, 622.205 
	L 131.102, 622.205 
	L 131.102, 625.039 
" />
<path d="M 130.039, 625.039 
	L 132.165, 625.039 
" />
<path d="M 137.480, 620.787 
	L 137.480, 621.496 
" />
<path d="M 136.417, 622.205 
	L 137.480, 622.205 
	L 137.480, 625.039 
" />
<path d="M 136.417, 625.039 
	L 138.543, 625.039 
" />
<path d="M 152.362, 621.496 
	L 151.299, 620.787 
	L 149.173, 620.787 
	L 148.110, 621.496 
	L 148.110, 624.331 
	L 149.173, 625.039 
	L 151.299, 625.039 
	L 152.362, 624.331 
	L 152.362, 622.913 
	L 149.173, 622.913 
" />
<path d="M 154.488, 623.622 
	L 157.677, 623.622 
	L 158.740, 622.913 
	L 157.677, 622.205 
	L 155.551, 622.205 
	L 154.488, 622.913 
	L 154.488, 624.331 
	L 155.551, 625.039 
	L 158.740, 625.039 
" />
<path d="M 161.929, 625.039 
	L 160.866, 624.331 
	L 160.866, 622.913 
	L 161.929, 622.205 
	L 162.992, 622.205 
	L 164.055, 622.913 
	L 164.055, 624.331 
	L 162.992, 625.039 
	L 161.929, 625.039 
" />
<path d="M 167.244, 622.205 
	L 167.244, 625.039 
" />
<path d="M 167.244, 623.622 
	L 169.370, 622.205 
	L 170.433, 622.205 
" />
<path d="M 173.622, 626.457 
	L 175.748, 626.457 
	L 176.811, 625.748 
	L 176.811, 622.205 
	L 174.685, 622.205 
	L 173.622, 622.913 
	L 173.622, 624.331 
	L 174.685, 625.039 
	L 176.811, 625.039 
" />
<path d="M 182.126, 620.787 
	L 182.126, 621.496 
" />
<path d="M 181.063, 622.205 
	L 182.126, 622.205 
	L 182.126, 625.039 
" />
<path d="M 181.063, 625.039 
	L 183.189, 625.039 
" />
<path d="M 190.630, 625.039 
	L 187.441, 625.039 
	L 186.378, 624.331 
	L 186.378, 622.913 
	L 187.441, 622.205 
	L 189.567, 622.205 
	L 189.567, 625.039 
" />
<path d="M 14.173, 632.126 
	L 14.173, 627.874 
" />
<path d="M 17.362, 632.126 
	L 14.173, 630.709 
	L 17.362, 629.291 
" />
<path d="M 24.803, 632.126 
	L 21.614, 632.126 
	L 20.551, 631.417 
	L 20.551, 630.000 
	L 21.614, 629.291 
	L 23.740, 629.291 
	L 23.740, 632.126 
" />
<path d="M 27.992, 632.126 
	L 26.929, 631.417 
	L 26.929, 630.000 
	L 27.992, 629.291 
	L 29.055, 629.291 
	L 30.118, 630.000 
	L 30.118, 631.417 
	L 29.055, 632.126 
	L 27.992, 632.126 
" />
<path d="M 34.370, 627.874 
	L 34.370, 632.126 
	L 36.496, 632.126 
" />
<path d="M 33.307, 629.291 
	L 36.496, 629.291 
" />
<path d="M 39.685, 630.709 
	L 42.874, 630.709 
	L 43.937, 630.000 
	L 42.874, 629.291 
	L 40.748, 629.291 
	L 39.685, 630.000 
	L 39.685, 631.417 
	L 40.748, 632.126 
	L 43.937, 632.126 
" />
<path d="M 50.315, 631.417 
	L 49.252, 632.126 
	L 48.189, 632.126 
	L 47.126, 631.417 
	L 47.126, 630.000 
	L 48.189, 629.291 
	L 49.252, 629.291 
	L 50.315, 630.000 
" />
<path d="M 63.071, 632.126 
	L 60.945, 632.126 
	L 60.945, 627.874 
	L 63.071, 627.874 
" />
<path d="M 65.197, 632.126 
	L 67.323, 632.126 
	L 67.323, 627.874 
	L 65.197, 627.874 
" />
<path d="M 74.764, 627.874 
	L 71.575, 630.000 
	L 74.764, 632.126 
" />
<path d="M 77.953, 627.874 
	L 81.142, 630.000 
	L 77.953, 632.126 
" />
<path d="M 90.709, 628.583 
	L 91.772, 627.874 
	L 93.898, 627.874 
	L 94.961, 628.583 
	L 94.961, 629.291 
	L 90.709, 631.417 
	L 90.709, 632.126 
	L 94.961, 632.126 
" />
<path d="M 97.087, 631.417 
	L 98.150, 632.126 
	L 100.276, 632.126 
	L 101.339, 631.417 
	L 101.339, 628.583 
	L 100.276, 627.874 
	L 98.150, 627.874 
	L 97.087, 628.583 
	L 97.087, 631.417 
" />
<path d="M 104.528, 632.126 
	L 106.654, 632.126 
" />
<path d="M 105.591, 632.126 
	L 105.591, 627.874 
	L 104.528, 628.583 
" />
<path d="M 110.906, 632.126 
	L 111.969, 632.126 
	L 114.095, 630.709 
	L 114.095, 628.583 
	L 113.032, 627.874 
	L 110.906, 627.874 
	L 109.843, 628.583 
	L 109.843, 629.291 
	L 110.906, 630.000 
	L 114.095, 630.000 
" />
<path d="M 14.173, 653.386 
	L 17.362, 653.386 
	L 18.425, 652.677 
	L 18.425, 651.260 
	L 17.362, 650.551 
	L 15.236, 650.551 
" />
<path d="M 15.236, 649.134 
	L 15.236, 653.386 
" />
<path d="M 24.803, 653.386 
	L 21.614, 653.386 
	L 20.551, 652.677 
	L 20.551, 651.260 
	L 21.614, 650.551 
	L 23.740, 650.551 
	L 23.740, 653.386 
" />
<path d="M 26.929, 653.386 
	L 26.929, 650.551 
" />
<path d="M 26.929, 651.260 
	L 27.992, 650.551 
	L 29.055, 650.551 
	L 30.118, 651.260 
	L 30.118, 653.386 
" />
<path d="M 36.496, 649.134 
	L 36.496, 653.386 
	L 34.370, 653.386 
	L 33.307, 652.677 
	L 33.307, 651.260 
	L 34.370, 650.551 
	L 36.496, 650.551 
" />
<path d="M 36.496, 653.386 
	L 37.559, 653.386 
" />
<path d="M 43.937, 652.677 
	L 42.874, 653.386 
	L 41.811, 653.386 
	L 40.748, 652.677 
	L 40.748, 651.260 
	L 41.811, 650.551 
	L 42.874, 650.551 
	L 43.937, 651.260 
" />
<path d="M 50.315, 653.386 
	L 47.126, 653.386 
	L 46.063, 652.677 
	L 46.063, 651.260 
	L 47.126, 650.551 
	L 49.252, 650.551 
	L 49.252, 653.386 
" />
<path d="M 52.441, 653.386 
	L 52.441, 650.551 
" />
<path d="M 52.441, 651.260 
	L 53.504, 650.551 
	L 54.567, 651.260 
	L 54.567, 653.386 
" />
<path d="M 54.567, 651.260 
	L 55.630, 650.551 
	L 56.693, 651.260 
	L 56.693, 653.386 
" />
<path d="M 58.819, 654.803 
	L 58.819, 650.551 
	L 60.945, 650.551 
	L 62.008, 651.260 
	L 62.008, 652.677 
	L 60.945, 653.386 
	L 58.819, 653.386 
" />
<path d="M 74.764, 649.134 
	L 74.764, 653.386 
	L 72.638, 653.386 
	L 71.575, 652.677 
	L 71.575, 651.260 
	L 72.638, 650.551 
	L 74.764, 650.551 
" />
<path d="M 74.764, 653.386 
	L 75.827, 653.386 
" />
<path d="M 79.016, 653.386 
	L 77.953, 652.677 
	L 77.953, 651.260 
	L 79.016, 650.551 
	L 80.079, 650.551 
	L 81.142, 651.260 
	L 81.142, 652.677 
	L 80.079, 653.386 
	L 79.016, 653.386 
" />
<path d="M 84.331, 650.551 
	L 84.331, 652.677 
	L 85.394, 653.386 
	L 86.457, 652.677 
	L 86.457, 651.260 
" />
<path d="M 86.457, 652.677 
	L 87.520, 653.386 
	L 88.583, 652.677 
	L 88.583, 650.551 
" />
<path d="M 90.709, 653.386 
	L 90.709, 650.551 
" />
<path d="M 90.709, 651.260 
	L 91.772, 650.551 
	L 92.835, 650.551 
	L 93.898, 651.260 
	L 93.898, 653.386 
" />
<path d="M 98.150, 649.134 
	L 99.213, 649.134 
	L 99.213, 653.386 
" />
<path d="M 98.150, 653.386 
	L 100.276, 653.386 
" />
<path d="M 104.528, 653.386 
	L 103.465, 652.677 
	L 103.465, 651.260 
	L 104.528, 650.551 
	L 105.591, 650.551 
	L 106.654, 651.260 
	L 106.654, 652.677 
	L 105.591, 653.386 
	L 104.528, 653.386 
" />
<path d="M 114.095, 653.386 
	L 110.906, 653.386 
	L 109.843, 652.677 
	L 109.843, 651.260 
	L 110.906, 650.551 
	L 113.032, 650.551 
	L 113.032, 653.386 
" />
<path d="M 119.409, 649.134 
	L 119.409, 653.386 
	L 117.283, 653.386 
	L 116.220, 652.677 
	L 116.220, 651.260 
	L 117.283, 650.551 
	L 119.409, 650.551 
" />
<path d="M 119.409, 653.386 
	L 120.472, 653.386 
" />
<path d="M 126.850, 652.677 
	L 125.787, 653.386 
	L 124.724, 653.386 
	L 123.661, 652.677 
	L 123.661, 651.260 
	L 124.724, 650.551 
	L 125.787, 650.551 
	L 126.850, 651.260 
" />
<path d="M 130.039, 653.386 
	L 128.976, 652.677 
	L 128.976, 651.260 
	L 130.039, 650.551 
	L 131.102, 650.551 
	L 132.165, 651.260 
	L 132.165, 652.677 
	L 131.102, 653.386 
	L 130.039, 653.386 
" />
<path d="M 138.543, 649.134 
	L 138.543, 653.386 
	L 136.417, 653.386 
	L 135.354, 652.677 
	L 135.354, 651.260 
	L 136.417, 650.551 
	L 138.543, 650.551 
" />
<path d="M 138.543, 653.386 
	L 139.606, 653.386 
" />
<path d="M 141.732, 651.969 
	L 144.921, 651.969 
	L 145.984, 651.260 
	L 144.921, 650.551 
	L 142.795, 650.551 
	L 141.732, 651.260 
	L 141.732, 652.677 
	L 142.795, 653.386 
	L 145.984, 653.386 
" />
<path d="M 154.488, 653.386 
	L 158.740, 649.134 
" />
<path d="M 158.740, 653.386 
	L 154.488, 649.134 
" />
<path d="M 160.866, 653.386 
	L 165.118, 649.134 
" />
<path d="M 165.118, 653.386 
	L 160.866, 649.134 
" />
<path d="M 167.244, 653.386 
	L 171.496, 649.134 
" />
<path d="M 171.496, 653.386 
	L 167.244, 649.134 
" />
<path d="M 173.622, 653.386 
	L 177.874, 649.134 
" />
<path d="M 177.874, 653.386 
	L 173.622, 649.134 
" />
<path d="M 180.000, 651.260 
	L 184.252, 651.260 
" />
<path d="M 186.378, 653.386 
	L 190.630, 649.134 
" />
<path d="M 190.630, 653.386 
	L 186.378, 649.134 
" />
<path d="M 192.756, 653.386 
	L 197.008, 649.134 
" />
<path d="M 197.008, 653.386 
	L 192.756, 649.134 
" />
<path d="M 199.134, 653.386 
	L 203.386, 649.134 
" />
<path d="M 203.386, 653.386 
	L 199.134, 649.134 
" />
<path d="M 205.512, 653.386 
	L 209.764, 649.134 
" />
<path d="M 209.764, 653.386 
	L 205.512, 649.134 
" />
<path d="M 17.717, 238.818 
	L 17.717, 238.819 
	L 17.717, 237.472 
	L 37.382, 237.472 
	L 37.382, 238.819 
	L 17.717, 238.819 
	L 17.717, 233.823 
	L 17.717, 232.476 
	L 37.382, 232.476 
	L 37.382, 233.823 
	L 17.717, 233.823 
	L 17.717, 231.095 
" />
<path d="M 17.717, 231.095 
	L 17.717, 229.748 
	L 37.382, 229.748 
	L 37.382, 231.095 
	L 17.717, 231.095 
" />
<path d="M 37.666, 238.818 
	L 37.665, 238.819 
	L 37.665, 229.748 
	L 39.366, 229.748 
	L 39.366, 238.819 
	L 37.665, 238.819 
" />
<path d="M 39.367, 238.818 
	L 39.366, 238.819 
	L 39.366, 232.016 
	L 51.626, 232.016 
	L 51.626, 233.362 
	L 41.067, 233.362 
	L 41.067, 234.744 
	L 51.626, 234.744 
	L 51.626, 236.091 
	L 41.067, 236.091 
	L 41.067, 238.819 
	L 39.366, 238.819 
" />
<path d="M 39.366, 238.819 
" />
<path d="M 62.257, 234.743 
	L 62.256, 234.744 
	L 62.256, 233.362 
	L 52.902, 233.362 
	L 52.902, 234.744 
	L 62.256, 234.744 
	L 51.343, 238.819 
	L 51.343, 232.016 
	L 63.815, 232.016 
	L 63.815, 236.091 
	L 52.902, 236.091 
	L 52.902, 237.472 
" />
<path d="M 52.902, 237.472 
	L 63.815, 237.472 
	L 63.815, 238.819 
	L 51.343, 238.819 
" />
<path d="M 64.099, 238.818 
	L 64.098, 238.819 
	L 64.098, 232.016 
	L 77.138, 232.016 
	L 77.138, 238.819 
	L 75.437, 238.819 
	L 75.437, 233.362 
	L 65.799, 233.362 
	L 65.799, 238.819 
	L 64.098, 238.819 
" />
<path d="M 77.139, 239.279 
	L 77.138, 239.280 
	L 77.138, 229.748 
	L 78.839, 229.748 
	L 78.839, 237.224 
	L 88.193, 233.150 
	L 97.547, 237.224 
	L 97.547, 229.748 
	L 99.248, 229.748 
	L 99.248, 239.280 
	L 88.193, 234.496 
	L 77.138, 239.280 
" />
<path d="M 77.138, 239.280 
" />
<path d="M 110.587, 237.472 
	L 110.587, 237.472 
	L 110.587, 233.362 
	L 108.319, 233.362 
	L 103.783, 237.472 
	L 110.587, 237.472 
	L 99.992, 238.819 
	L 106.051, 233.362 
	L 99.992, 233.362 
	L 99.992, 232.016 
	L 112.287, 232.016 
" />
<path d="M 112.287, 232.016 
	L 112.287, 238.819 
	L 99.992, 238.819 
" />
<path d="M 111.544, 238.818 
	L 111.543, 238.819 
	L 111.543, 232.016 
	L 124.583, 232.016 
	L 124.583, 238.819 
	L 122.882, 238.819 
	L 122.882, 233.362 
	L 113.244, 233.362 
	L 113.244, 238.819 
	L 111.543, 238.819 
" />
<path d="M 135.922, 237.472 
	L 135.921, 237.472 
	L 135.921, 233.362 
	L 126.283, 233.362 
	L 126.283, 237.472 
	L 135.921, 237.472 
	L 124.583, 238.819 
	L 124.583, 232.016 
	L 135.921, 232.016 
	L 135.921, 229.748 
	L 137.622, 229.748 
" />
<path d="M 137.622, 229.748 
	L 137.622, 238.819 
	L 124.583, 238.819 
" />
<path d="M 148.253, 234.743 
	L 148.252, 234.744 
	L 148.252, 233.362 
	L 138.898, 233.362 
	L 138.898, 234.744 
	L 148.252, 234.744 
	L 137.339, 238.819 
	L 137.339, 232.016 
	L 149.811, 232.016 
	L 149.811, 236.091 
	L 138.898, 236.091 
" />
<path d="M 138.898, 236.091 
	L 138.898, 237.472 
	L 149.811, 237.472 
	L 149.811, 238.819 
	L 137.339, 238.819 
" />
<path d="M 150.095, 238.818 
	L 150.095, 238.819 
	L 150.095, 232.016 
	L 162.354, 232.016 
	L 162.354, 233.362 
	L 151.795, 233.362 
	L 151.795, 238.819 
	L 150.095, 238.819 
" />
<path d="M 36.320, 255.188 
	L 36.319, 255.189 
	L 28.772, 248.811 
	L 19.701, 248.811 
	L 19.701, 255.189 
	L 36.319, 255.189 
	L 18.000, 256.535 
	L 18.000, 247.465 
	L 29.516, 247.465 
	L 40.110, 256.535 
	L 18.000, 256.535 
" />
<path d="M 40.111, 256.535 
	L 40.110, 256.535 
	L 40.110, 249.732 
	L 41.811, 249.732 
	L 41.811, 256.535 
	L 40.110, 256.535 
	L 40.110, 248.811 
	L 40.110, 247.465 
	L 41.811, 247.465 
	L 41.811, 248.811 
	L 40.110, 248.811 
" />
<path d="M 41.528, 256.535 
	L 41.528, 256.535 
	L 41.528, 255.189 
	L 52.441, 255.189 
	L 52.441, 253.807 
	L 41.528, 253.807 
	L 41.528, 249.732 
	L 54.000, 249.732 
	L 54.000, 251.079 
	L 43.087, 251.079 
	L 43.087, 252.461 
	L 54.000, 252.461 
" />
<path d="M 54.000, 252.461 
	L 54.000, 256.535 
	L 41.528, 256.535 
" />
<path d="M 54.284, 256.535 
	L 54.283, 256.535 
	L 54.283, 247.465 
	L 55.984, 247.465 
	L 55.984, 249.732 
	L 66.543, 249.732 
	L 66.543, 251.079 
	L 55.984, 251.079 
	L 55.984, 255.189 
	L 66.543, 255.189 
	L 66.543, 256.535 
	L 54.283, 256.535 
" />
<path d="M 54.283, 256.535 
" />
<path d="M 66.544, 256.535 
	L 66.543, 256.535 
	L 66.543, 249.732 
	L 78.803, 249.732 
	L 78.803, 251.079 
	L 68.244, 251.079 
	L 68.244, 256.535 
	L 66.543, 256.535 
" />
<path d="M 89.434, 252.460 
	L 89.433, 252.461 
	L 89.433, 251.079 
	L 80.079, 251.079 
	L 80.079, 252.461 
	L 89.433, 252.461 
	L 78.520, 256.535 
	L 78.520, 249.732 
	L 90.992, 249.732 
	L 90.992, 253.807 
	L 80.079, 253.807 
	L 80.079, 255.189 
" />
<path d="M 80.079, 255.189 
	L 90.992, 255.189 
	L 90.992, 256.535 
	L 78.520, 256.535 
" />
<path d="M 90.993, 256.535 
	L 90.992, 256.535 
	L 90.992, 255.189 
	L 101.906, 255.189 
	L 101.906, 253.807 
	L 90.992, 253.807 
	L 90.992, 249.732 
	L 103.465, 249.732 
	L 103.465, 251.079 
	L 92.551, 251.079 
	L 92.551, 252.461 
" />
<path d="M 92.551, 252.461 
	L 103.465, 252.461 
	L 103.465, 256.535 
	L 90.992, 256.535 
" />
<path d="M 103.465, 256.535 
	L 103.465, 256.535 
	L 103.465, 255.189 
	L 114.378, 255.189 
	L 114.378, 253.807 
	L 103.465, 253.807 
	L 103.465, 249.732 
	L 115.937, 249.732 
	L 115.937, 251.079 
	L 105.024, 251.079 
	L 105.024, 252.461 
" />
<path d="M 105.024, 252.461 
	L 115.937, 252.461 
	L 115.937, 256.535 
	L 103.465, 256.535 
" />
<path d="M 116.221, 256.535 
	L 116.220, 256.535 
	L 116.220, 250.193 
	L 136.063, 250.193 
	L 136.063, 251.539 
	L 117.921, 251.539 
	L 117.921, 256.535 
	L 116.220, 256.535 
	L 116.220, 248.811 
	L 116.220, 247.465 
	L 136.063, 247.465 
" />
<path d="M 136.063, 247.465 
	L 136.063, 248.811 
	L 116.220, 248.811 
" />
<path d="M 136.064, 256.535 
	L 136.063, 256.535 
	L 136.063, 249.732 
	L 148.323, 249.732 
	L 148.323, 251.079 
	L 137.764, 251.079 
	L 137.764, 256.535 
	L 136.063, 256.535 
" />
<path d="M 158.953, 252.460 
	L 158.953, 252.461 
	L 158.953, 251.079 
	L 149.598, 251.079 
	L 149.598, 252.461 
	L 158.953, 252.461 
	L 148.039, 256.535 
	L 148.039, 249.732 
	L 160.512, 249.732 
	L 160.512, 253.807 
	L 149.598, 253.807 
" />
<path d="M 149.598, 253.807 
	L 149.598, 255.189 
	L 160.512, 255.189 
	L 160.512, 256.535 
	L 148.039, 256.535 
" />
<path d="M 172.135, 255.188 
	L 172.134, 255.189 
	L 172.134, 251.079 
	L 162.496, 251.079 
	L 162.496, 255.189 
	L 172.134, 255.189 
	L 172.134, 258.803 
	L 172.134, 256.535 
	L 160.795, 256.535 
	L 160.795, 249.732 
	L 173.835, 249.732 
" />
<path d="M 173.835, 249.732 
	L 173.835, 258.803 
	L 172.134, 258.803 
" />
<path d="M 173.835, 256.535 
	L 173.835, 256.535 
	L 173.835, 249.732 
	L 175.535, 249.732 
	L 175.535, 255.189 
	L 185.173, 255.189 
	L 185.173, 249.732 
	L 186.874, 249.732 
	L 186.874, 256.535 
	L 173.835, 256.535 
" />
<path d="M 197.505, 252.460 
	L 197.504, 252.461 
	L 197.504, 251.079 
	L 188.150, 251.079 
	L 188.150, 252.461 
	L 197.504, 252.461 
	L 186.591, 256.535 
	L 186.591, 249.732 
	L 199.063, 249.732 
	L 199.063, 253.807 
	L 188.150, 253.807 
" />
<path d="M 188.150, 253.807 
	L 188.150, 255.189 
	L 199.063, 255.189 
	L 199.063, 256.535 
	L 186.591, 256.535 
" />
<path d="M 199.347, 256.535 
	L 199.346, 256.535 
	L 199.346, 249.732 
	L 212.386, 249.732 
	L 212.386, 256.535 
	L 210.685, 256.535 
	L 210.685, 251.079 
	L 201.047, 251.079 
	L 201.047, 256.535 
	L 199.346, 256.535 
" />
<path d="M 212.387, 256.535 
	L 212.386, 256.535 
	L 212.386, 249.732 
	L 224.646, 249.732 
	L 224.646, 251.079 
	L 214.087, 251.079 
	L 214.087, 255.189 
	L 224.646, 255.189 
	L 224.646, 256.535 
	L 212.386, 256.535 
" />
<path d="M 225.391, 258.802 
	L 225.390, 258.803 
	L 225.390, 257.421 
	L 235.984, 257.421 
	L 235.984, 256.535 
	L 232.937, 256.535 
	L 225.390, 249.732 
	L 227.658, 249.732 
	L 233.717, 255.189 
	L 235.984, 255.189 
	L 235.984, 249.732 
" />
<path d="M 235.984, 249.732 
	L 237.685, 249.732 
	L 237.685, 258.803 
	L 225.390, 258.803 
" />
<path d="M 27.072, 274.251 
	L 27.071, 274.252 
	L 27.071, 266.528 
	L 17.256, 266.528 
	L 17.256, 265.181 
	L 38.587, 265.181 
	L 38.587, 266.528 
	L 28.772, 266.528 
	L 28.772, 274.252 
	L 27.071, 274.252 
" />
<path d="M 39.331, 274.251 
	L 39.331, 274.252 
	L 39.331, 265.181 
	L 41.032, 265.181 
	L 41.032, 267.449 
	L 52.370, 267.449 
	L 52.370, 274.252 
	L 50.669, 274.252 
	L 50.669, 268.795 
	L 41.032, 268.795 
	L 41.032, 274.252 
	L 39.331, 274.252 
" />
<path d="M 39.331, 274.252 
" />
<path d="M 63.001, 270.177 
	L 63.000, 270.177 
	L 63.000, 268.795 
	L 53.646, 268.795 
	L 53.646, 270.177 
	L 63.000, 270.177 
	L 52.087, 274.252 
	L 52.087, 267.449 
	L 64.559, 267.449 
	L 64.559, 271.524 
	L 53.646, 271.524 
	L 53.646, 272.906 
" />
<path d="M 53.646, 272.906 
	L 64.559, 272.906 
	L 64.559, 274.252 
	L 52.087, 274.252 
" />
<path d="M 64.560, 274.251 
	L 64.559, 274.252 
	L 64.559, 272.906 
	L 84.224, 272.906 
	L 84.224, 274.252 
	L 64.559, 274.252 
	L 64.559, 269.256 
	L 64.559, 267.909 
	L 84.224, 267.909 
	L 84.224, 269.256 
	L 64.559, 269.256 
	L 64.559, 266.528 
" />
<path d="M 64.559, 266.528 
	L 64.559, 265.181 
	L 84.224, 265.181 
	L 84.224, 266.528 
	L 64.559, 266.528 
" />
<path d="M 95.847, 272.905 
	L 95.846, 272.906 
	L 95.846, 268.795 
	L 86.209, 268.795 
	L 86.209, 272.906 
	L 95.846, 272.906 
	L 84.508, 274.252 
	L 84.508, 267.449 
	L 95.846, 267.449 
	L 95.846, 265.181 
	L 97.547, 265.181 
	L 97.547, 274.252 
" />
<path d="M 97.547, 274.252 
	L 84.508, 274.252 
" />
<path d="M 108.887, 272.905 
	L 108.886, 272.906 
	L 108.886, 268.795 
	L 99.248, 268.795 
	L 99.248, 272.906 
	L 108.886, 272.906 
	L 97.547, 276.520 
	L 97.547, 275.138 
	L 108.886, 275.138 
	L 108.886, 274.252 
	L 97.547, 274.252 
" />
<path d="M 97.547, 274.252 
	L 97.547, 267.449 
	L 110.587, 267.449 
	L 110.587, 276.520 
	L 97.547, 276.520 
" />
<path d="M 121.217, 270.177 
	L 121.217, 270.177 
	L 121.217, 268.795 
	L 111.862, 268.795 
	L 111.862, 270.177 
	L 121.217, 270.177 
	L 110.303, 274.252 
	L 110.303, 267.449 
	L 122.776, 267.449 
	L 122.776, 271.524 
	L 111.862, 271.524 
" />
<path d="M 111.862, 271.524 
	L 111.862, 272.906 
	L 122.776, 272.906 
	L 122.776, 274.252 
	L 110.303, 274.252 
" />
<path d="M 143.469, 272.905 
	L 143.469, 272.906 
	L 143.469, 266.528 
	L 124.760, 266.528 
	L 124.760, 272.906 
	L 143.469, 272.906 
	L 123.059, 274.252 
	L 123.059, 265.181 
	L 145.169, 265.181 
	L 145.169, 274.252 
	L 123.059, 274.252 
" />
<path d="M 123.059, 274.252 
" />
<path d="M 145.170, 274.251 
	L 145.169, 274.252 
	L 145.169, 267.449 
	L 157.429, 267.449 
	L 157.429, 268.795 
	L 146.870, 268.795 
	L 146.870, 270.177 
	L 157.429, 270.177 
	L 157.429, 271.524 
	L 146.870, 271.524 
	L 146.870, 274.252 
" />
<path d="M 146.870, 274.252 
	L 145.169, 274.252 
" />
<path d="M 157.430, 274.712 
	L 157.429, 274.713 
	L 157.429, 265.181 
	L 159.130, 265.181 
	L 159.130, 272.658 
	L 168.484, 268.583 
	L 177.839, 272.658 
	L 177.839, 265.181 
	L 179.539, 265.181 
	L 179.539, 274.713 
	L 168.484, 269.929 
" />
<path d="M 168.484, 269.929 
	L 157.429, 274.713 
" />
<path d="M 179.540, 274.251 
	L 179.539, 274.252 
	L 179.539, 265.181 
	L 181.240, 265.181 
	L 181.240, 267.449 
	L 192.579, 267.449 
	L 192.579, 274.252 
	L 190.878, 274.252 
	L 190.878, 268.795 
	L 181.240, 268.795 
	L 181.240, 274.252 
" />
<path d="M 181.240, 274.252 
	L 179.539, 274.252 
" />
<path d="M 203.918, 272.905 
	L 203.917, 272.906 
	L 203.917, 268.795 
	L 201.650, 268.795 
	L 197.114, 272.906 
	L 203.917, 272.906 
	L 193.323, 274.252 
	L 199.382, 268.795 
	L 193.323, 268.795 
	L 193.323, 267.449 
	L 205.618, 267.449 
" />
<path d="M 205.618, 267.449 
	L 205.618, 274.252 
	L 193.323, 274.252 
" />
<path d="M 204.875, 274.251 
	L 204.874, 274.252 
	L 204.874, 265.181 
	L 206.575, 265.181 
	L 206.575, 267.449 
	L 217.134, 267.449 
	L 217.134, 268.795 
	L 206.575, 268.795 
	L 206.575, 272.906 
	L 217.134, 272.906 
	L 217.134, 274.252 
" />
<path d="M 217.134, 274.252 
	L 204.874, 274.252 
" />
<path d="M 217.135, 274.251 
	L 217.134, 274.252 
	L 217.134, 265.181 
	L 218.835, 265.181 
	L 218.835, 274.252 
	L 217.134, 274.252 
" />
<path d="M 218.552, 274.251 
	L 218.551, 274.252 
	L 218.551, 272.906 
	L 229.465, 272.906 
	L 229.465, 271.524 
	L 218.551, 271.524 
	L 218.551, 267.449 
	L 231.024, 267.449 
	L 231.024, 268.795 
	L 220.110, 268.795 
	L 220.110, 270.177 
" />
<path d="M 220.110, 270.177 
	L 231.024, 270.177 
	L 231.024, 274.252 
	L 218.551, 274.252 
" />
<path d="M 17.717, 284.881 
	L 17.717, 284.882 
	L 28.311, 275.350 
	L 38.870, 284.882 
	L 36.602, 284.882 
	L 28.311, 277.370 
	L 19.984, 284.882 
	L 17.717, 284.882 
" />
<path d="M 50.493, 283.535 
	L 50.492, 283.535 
	L 50.492, 279.425 
	L 40.854, 279.425 
	L 40.854, 283.535 
	L 50.492, 283.535 
	L 39.154, 284.882 
	L 39.154, 278.079 
	L 50.492, 278.079 
	L 50.492, 275.811 
	L 52.193, 275.811 
	L 52.193, 284.882 
" />
<path d="M 52.193, 284.882 
	L 39.154, 284.882 
" />
<path d="M 52.194, 284.881 
	L 52.193, 284.882 
	L 52.193, 278.079 
	L 62.965, 278.079 
	L 62.965, 284.882 
	L 61.264, 284.882 
	L 61.264, 279.425 
	L 58.429, 279.425 
	L 58.429, 284.882 
	L 56.728, 284.882 
	L 56.728, 279.425 
	L 53.894, 279.425 
" />
<path d="M 53.894, 279.425 
	L 53.894, 284.882 
	L 52.193, 284.882 
" />
<path d="M 62.965, 284.881 
	L 62.965, 284.882 
	L 62.965, 278.079 
	L 64.665, 278.079 
	L 64.665, 284.882 
	L 62.965, 284.882 
	L 62.965, 277.158 
	L 62.965, 275.811 
	L 64.665, 275.811 
	L 64.665, 277.158 
	L 62.965, 277.158 
" />
<path d="M 64.666, 284.881 
	L 64.665, 284.882 
	L 64.665, 278.079 
	L 77.705, 278.079 
	L 77.705, 284.882 
	L 76.004, 284.882 
	L 76.004, 279.425 
	L 66.366, 279.425 
	L 66.366, 284.882 
	L 64.665, 284.882 
" />
<path d="M 77.705, 284.881 
	L 77.705, 284.882 
	L 77.705, 278.079 
	L 79.406, 278.079 
	L 79.406, 284.882 
	L 77.705, 284.882 
	L 77.705, 277.158 
	L 77.705, 275.811 
	L 79.406, 275.811 
	L 79.406, 277.158 
	L 77.705, 277.158 
" />
<path d="M 79.123, 284.881 
	L 79.122, 284.882 
	L 79.122, 283.535 
	L 90.035, 283.535 
	L 90.035, 282.154 
	L 79.122, 282.154 
	L 79.122, 278.079 
	L 91.595, 278.079 
	L 91.595, 279.425 
	L 80.681, 279.425 
	L 80.681, 280.807 
	L 91.595, 280.807 
" />
<path d="M 91.595, 280.807 
	L 91.595, 284.882 
	L 79.122, 284.882 
" />
<path d="M 91.879, 284.881 
	L 91.878, 284.882 
	L 91.878, 275.811 
	L 93.579, 275.811 
	L 93.579, 278.079 
	L 104.138, 278.079 
	L 104.138, 279.425 
	L 93.579, 279.425 
	L 93.579, 283.535 
	L 104.138, 283.535 
	L 104.138, 284.882 
" />
<path d="M 104.138, 284.882 
	L 91.878, 284.882 
" />
<path d="M 104.139, 284.881 
	L 104.138, 284.882 
	L 104.138, 278.079 
	L 116.398, 278.079 
	L 116.398, 279.425 
	L 105.839, 279.425 
	L 105.839, 284.882 
	L 104.138, 284.882 
" />
<path d="M 127.737, 283.535 
	L 127.736, 283.535 
	L 127.736, 279.425 
	L 125.469, 279.425 
	L 120.933, 283.535 
	L 127.736, 283.535 
	L 117.142, 284.882 
	L 123.201, 279.425 
	L 117.142, 279.425 
	L 117.142, 278.079 
	L 129.437, 278.079 
" />
<path d="M 129.437, 278.079 
	L 129.437, 284.882 
	L 117.142, 284.882 
" />
<path d="M 128.694, 284.881 
	L 128.693, 284.882 
	L 128.693, 275.811 
	L 130.394, 275.811 
	L 130.394, 278.079 
	L 140.953, 278.079 
	L 140.953, 279.425 
	L 130.394, 279.425 
	L 130.394, 283.535 
	L 140.953, 283.535 
	L 140.953, 284.882 
" />
<path d="M 140.953, 284.882 
	L 128.693, 284.882 
" />
<path d="M 140.953, 284.881 
	L 140.953, 284.882 
	L 140.953, 278.079 
	L 142.654, 278.079 
	L 142.654, 284.882 
	L 140.953, 284.882 
	L 140.953, 277.158 
	L 140.953, 275.811 
	L 142.654, 275.811 
	L 142.654, 277.158 
	L 140.953, 277.158 
" />
<path d="M 140.953, 277.158 
" />
<path d="M 142.654, 284.881 
	L 142.654, 284.882 
	L 142.654, 278.079 
	L 144.354, 278.079 
	L 144.354, 283.535 
	L 146.622, 283.535 
	L 152.646, 278.079 
	L 154.913, 278.079 
	L 147.366, 284.882 
	L 142.654, 284.882 
" />
<path d="M 165.544, 280.806 
	L 165.543, 280.807 
	L 165.543, 279.425 
	L 156.189, 279.425 
	L 156.189, 280.807 
	L 165.543, 280.807 
	L 154.630, 284.882 
	L 154.630, 278.079 
	L 167.102, 278.079 
	L 167.102, 282.154 
	L 156.189, 282.154 
" />
<path d="M 156.189, 282.154 
	L 156.189, 283.535 
	L 167.102, 283.535 
	L 167.102, 284.882 
	L 154.630, 284.882 
" />
<path d="M 167.387, 284.881 
	L 167.386, 284.882 
	L 167.386, 275.811 
	L 169.087, 275.811 
	L 169.087, 284.882 
	L 167.386, 284.882 
" />
<path d="M 169.831, 287.149 
	L 169.831, 287.150 
	L 169.831, 285.768 
	L 180.425, 285.768 
	L 180.425, 284.882 
	L 177.378, 284.882 
	L 169.831, 278.079 
	L 172.098, 278.079 
	L 178.158, 283.535 
	L 180.425, 283.535 
	L 180.425, 278.079 
" />
<path d="M 180.425, 278.079 
	L 182.126, 278.079 
	L 182.126, 287.150 
	L 169.831, 287.150 
" />
<path d="M 18.001, 295.511 
	L 18.000, 295.512 
	L 18.000, 289.169 
	L 32.528, 289.169 
	L 35.575, 287.787 
	L 18.000, 287.787 
	L 18.000, 286.441 
	L 39.331, 286.441 
	L 33.307, 290.516 
	L 19.701, 290.516 
	L 19.701, 295.512 
	L 18.000, 295.512 
" />
<path d="M 18.000, 295.512 
" />
<path d="M 50.670, 294.165 
	L 50.669, 294.165 
	L 50.669, 290.055 
	L 41.032, 290.055 
	L 41.032, 294.165 
	L 50.669, 294.165 
	L 39.331, 295.512 
	L 39.331, 288.709 
	L 52.370, 288.709 
	L 52.370, 295.512 
	L 39.331, 295.512 
" />
<path d="M 52.087, 295.511 
	L 52.087, 295.512 
	L 52.087, 294.165 
	L 63.000, 294.165 
	L 63.000, 292.784 
	L 52.087, 292.784 
	L 52.087, 288.709 
	L 64.559, 288.709 
	L 64.559, 290.055 
	L 53.646, 290.055 
	L 53.646, 291.437 
	L 64.559, 291.437 
" />
<path d="M 64.559, 291.437 
	L 64.559, 295.512 
	L 52.087, 295.512 
" />
<path d="M 64.560, 295.511 
	L 64.559, 295.512 
	L 64.559, 294.165 
	L 75.472, 294.165 
	L 75.472, 292.784 
	L 64.559, 292.784 
	L 64.559, 288.709 
	L 77.032, 288.709 
	L 77.032, 290.055 
	L 66.118, 290.055 
	L 66.118, 291.437 
	L 77.032, 291.437 
" />
<path d="M 77.032, 291.437 
	L 77.032, 295.512 
	L 64.559, 295.512 
" />
<path d="M 77.316, 295.511 
	L 77.315, 295.512 
	L 77.315, 288.709 
	L 79.016, 288.709 
	L 79.016, 295.512 
	L 77.315, 295.512 
	L 77.315, 287.787 
	L 77.315, 286.441 
	L 79.016, 286.441 
	L 79.016, 287.787 
	L 77.315, 287.787 
" />
<path d="M 90.355, 294.165 
	L 90.354, 294.165 
	L 90.354, 290.055 
	L 80.717, 290.055 
	L 80.717, 294.165 
	L 90.354, 294.165 
	L 79.016, 295.512 
	L 79.016, 286.441 
	L 80.717, 286.441 
	L 80.717, 288.709 
	L 92.055, 288.709 
	L 92.055, 295.512 
" />
<path d="M 92.055, 295.512 
	L 79.016, 295.512 
" />
<path d="M 92.056, 295.511 
	L 92.055, 295.512 
	L 92.055, 286.441 
	L 93.756, 286.441 
	L 93.756, 295.512 
	L 92.055, 295.512 
" />
<path d="M 104.387, 291.436 
	L 104.386, 291.437 
	L 104.386, 290.055 
	L 95.032, 290.055 
	L 95.032, 291.437 
	L 104.386, 291.437 
	L 93.472, 295.512 
	L 93.472, 288.709 
	L 105.945, 288.709 
	L 105.945, 292.784 
	L 95.032, 292.784 
" />
<path d="M 95.032, 292.784 
	L 95.032, 294.165 
	L 105.945, 294.165 
	L 105.945, 295.512 
	L 93.472, 295.512 
" />
<path d="M 18.001, 313.228 
	L 18.000, 313.228 
	L 18.000, 311.882 
	L 38.409, 311.882 
	L 38.409, 308.232 
	L 18.000, 308.232 
	L 18.000, 304.158 
	L 40.110, 304.158 
	L 40.110, 305.504 
	L 19.701, 305.504 
	L 19.701, 306.886 
	L 40.110, 306.886 
" />
<path d="M 40.110, 306.886 
	L 40.110, 313.228 
	L 18.000, 313.228 
" />
<path d="M 40.111, 313.228 
	L 40.110, 313.228 
	L 40.110, 306.425 
	L 41.811, 306.425 
	L 41.811, 313.228 
	L 40.110, 313.228 
	L 40.110, 305.504 
	L 40.110, 304.158 
	L 41.811, 304.158 
	L 41.811, 305.504 
	L 40.110, 305.504 
" />
<path d="M 41.812, 313.228 
	L 41.811, 313.228 
	L 41.811, 306.425 
	L 54.850, 306.425 
	L 54.850, 313.228 
	L 53.150, 313.228 
	L 53.150, 307.772 
	L 43.512, 307.772 
	L 43.512, 313.228 
	L 41.811, 313.228 
" />
<path d="M 65.481, 309.153 
	L 65.480, 309.154 
	L 65.480, 307.772 
	L 56.126, 307.772 
	L 56.126, 309.154 
	L 65.480, 309.154 
	L 54.567, 313.228 
	L 54.567, 306.425 
	L 67.039, 306.425 
	L 67.039, 310.500 
	L 56.126, 310.500 
	L 56.126, 311.882 
" />
<path d="M 56.126, 311.882 
	L 67.039, 311.882 
	L 67.039, 313.228 
	L 54.567, 313.228 
" />
<path d="M 67.324, 313.228 
	L 67.323, 313.228 
	L 67.323, 304.158 
	L 88.654, 304.158 
	L 84.118, 308.091 
	L 83.374, 308.728 
	L 88.654, 313.228 
	L 86.386, 313.228 
	L 81.106, 308.728 
	L 84.898, 305.504 
	L 69.024, 305.504 
	L 69.024, 313.228 
" />
<path d="M 69.024, 313.228 
	L 67.323, 313.228 
" />
<path d="M 99.993, 311.881 
	L 99.992, 311.882 
	L 99.992, 307.772 
	L 97.724, 307.772 
	L 93.189, 311.882 
	L 99.992, 311.882 
	L 89.398, 313.228 
	L 95.457, 307.772 
	L 89.398, 307.772 
	L 89.398, 306.425 
	L 101.693, 306.425 
	L 101.693, 313.228 
" />
<path d="M 101.693, 313.228 
	L 89.398, 313.228 
" />
<path d="M 100.950, 313.228 
	L 100.949, 313.228 
	L 100.949, 306.425 
	L 102.650, 306.425 
	L 102.650, 311.882 
	L 104.917, 311.882 
	L 110.941, 306.425 
	L 113.209, 306.425 
	L 105.661, 313.228 
	L 100.949, 313.228 
" />
<path d="M 123.839, 309.153 
	L 123.839, 309.154 
	L 123.839, 307.772 
	L 114.484, 307.772 
	L 114.484, 309.154 
	L 123.839, 309.154 
	L 112.925, 313.228 
	L 112.925, 306.425 
	L 125.398, 306.425 
	L 125.398, 310.500 
	L 114.484, 310.500 
" />
<path d="M 114.484, 310.500 
	L 114.484, 311.882 
	L 125.398, 311.882 
	L 125.398, 313.228 
	L 112.925, 313.228 
" />
<path d="M 18.001, 330.944 
	L 18.000, 330.945 
	L 18.000, 324.602 
	L 32.528, 324.602 
	L 35.575, 323.221 
	L 18.000, 323.221 
	L 18.000, 321.874 
	L 39.331, 321.874 
	L 33.307, 325.949 
	L 19.701, 325.949 
	L 19.701, 330.945 
	L 18.000, 330.945 
" />
<path d="M 18.000, 330.945 
" />
<path d="M 50.670, 329.598 
	L 50.669, 329.598 
	L 50.669, 325.488 
	L 48.402, 325.488 
	L 43.866, 329.598 
	L 50.669, 329.598 
	L 40.075, 330.945 
	L 46.134, 325.488 
	L 40.075, 325.488 
	L 40.075, 324.142 
	L 52.370, 324.142 
	L 52.370, 330.945 
" />
<path d="M 52.370, 330.945 
	L 40.075, 330.945 
" />
<path d="M 51.627, 330.944 
	L 51.626, 330.945 
	L 51.626, 321.874 
	L 53.327, 321.874 
	L 53.327, 330.945 
	L 51.626, 330.945 
" />
<path d="M 64.666, 329.598 
	L 64.665, 329.598 
	L 64.665, 325.488 
	L 55.028, 325.488 
	L 55.028, 329.598 
	L 64.665, 329.598 
	L 53.327, 330.945 
	L 53.327, 324.142 
	L 66.366, 324.142 
	L 66.366, 330.945 
	L 53.327, 330.945 
" />
<path d="M 66.367, 330.944 
	L 66.366, 330.945 
	L 66.366, 324.142 
	L 79.406, 324.142 
	L 79.406, 330.945 
	L 77.705, 330.945 
	L 77.705, 325.488 
	L 68.067, 325.488 
	L 68.067, 330.945 
	L 66.366, 330.945 
" />
<path d="M 90.745, 329.598 
	L 90.744, 329.598 
	L 90.744, 325.488 
	L 81.106, 325.488 
	L 81.106, 329.598 
	L 90.744, 329.598 
	L 79.406, 330.945 
	L 79.406, 324.142 
	L 92.445, 324.142 
	L 92.445, 330.945 
	L 79.406, 330.945 
" />
<path d="M 103.784, 329.598 
	L 103.783, 329.598 
	L 103.783, 325.488 
	L 94.146, 325.488 
	L 94.146, 329.598 
	L 103.783, 329.598 
	L 92.445, 333.213 
	L 92.445, 324.142 
	L 105.484, 324.142 
	L 105.484, 330.945 
	L 94.146, 330.945 
" />
<path d="M 94.146, 330.945 
	L 94.146, 333.213 
	L 92.445, 333.213 
" />
<path d="M 105.202, 330.944 
	L 105.201, 330.945 
	L 105.201, 329.598 
	L 116.114, 329.598 
	L 116.114, 328.217 
	L 105.201, 328.217 
	L 105.201, 324.142 
	L 117.673, 324.142 
	L 117.673, 325.488 
	L 106.760, 325.488 
	L 106.760, 326.870 
" />
<path d="M 106.760, 326.870 
	L 117.673, 326.870 
	L 117.673, 330.945 
	L 105.201, 330.945 
" />
<path d="M 117.957, 330.944 
	L 117.957, 330.945 
	L 117.957, 324.142 
	L 119.657, 324.142 
	L 119.657, 330.945 
	L 117.957, 330.945 
	L 117.957, 323.221 
	L 117.957, 321.874 
	L 119.657, 321.874 
	L 119.657, 323.221 
	L 117.957, 323.221 
" />
<path d="M 117.957, 323.221 
" />
<path d="M 130.997, 329.598 
	L 130.996, 329.598 
	L 130.996, 325.488 
	L 128.728, 325.488 
	L 124.193, 329.598 
	L 130.996, 329.598 
	L 120.402, 330.945 
	L 126.461, 325.488 
	L 120.402, 325.488 
	L 120.402, 324.142 
	L 132.697, 324.142 
" />
<path d="M 132.697, 324.142 
	L 132.697, 330.945 
	L 120.402, 330.945 
" />
<path d="M 18.001, 348.661 
	L 18.000, 348.661 
	L 18.000, 339.130 
	L 29.055, 343.878 
	L 40.110, 339.130 
	L 40.110, 348.661 
	L 38.409, 348.661 
	L 38.409, 341.150 
	L 29.055, 345.260 
	L 19.701, 341.150 
	L 19.701, 348.661 
	L 18.000, 348.661 
" />
<path d="M 18.000, 348.661 
" />
<path d="M 51.450, 347.314 
	L 51.449, 347.315 
	L 51.449, 343.205 
	L 41.811, 343.205 
	L 41.811, 347.315 
	L 51.449, 347.315 
	L 40.110, 348.661 
	L 40.110, 341.858 
	L 53.150, 341.858 
	L 53.150, 348.661 
	L 40.110, 348.661 
" />
<path d="M 53.150, 348.661 
	L 53.150, 348.661 
	L 53.150, 341.858 
	L 54.850, 341.858 
	L 54.850, 347.315 
	L 64.488, 347.315 
	L 64.488, 341.858 
	L 66.189, 341.858 
	L 66.189, 348.661 
	L 53.150, 348.661 
" />
<path d="M 66.190, 348.661 
	L 66.189, 348.661 
	L 66.189, 341.858 
	L 79.228, 341.858 
	L 79.228, 348.661 
	L 77.528, 348.661 
	L 77.528, 343.205 
	L 67.890, 343.205 
	L 67.890, 348.661 
	L 66.189, 348.661 
" />
<path d="M 79.229, 348.661 
	L 79.228, 348.661 
	L 79.228, 339.591 
	L 80.929, 339.591 
	L 80.929, 341.858 
	L 91.488, 341.858 
	L 91.488, 343.205 
	L 80.929, 343.205 
	L 80.929, 347.315 
	L 91.488, 347.315 
	L 91.488, 348.661 
	L 79.228, 348.661 
" />
<path d="M 79.228, 348.661 
" />
<path d="M 102.827, 347.314 
	L 102.827, 347.315 
	L 102.827, 343.205 
	L 100.559, 343.205 
	L 96.024, 347.315 
	L 102.827, 347.315 
	L 92.232, 348.661 
	L 98.291, 343.205 
	L 92.232, 343.205 
	L 92.232, 341.858 
	L 104.528, 341.858 
" />
<path d="M 104.528, 341.858 
	L 104.528, 348.661 
	L 92.232, 348.661 
" />
<path d="M 103.784, 348.661 
	L 103.783, 348.661 
	L 103.783, 341.858 
	L 105.484, 341.858 
	L 105.484, 348.661 
	L 103.783, 348.661 
	L 103.783, 340.937 
	L 103.783, 339.591 
	L 105.484, 339.591 
	L 105.484, 340.937 
	L 103.783, 340.937 
" />
<path d="M 103.783, 340.937 
" />
<path d="M 105.485, 348.661 
	L 105.484, 348.661 
	L 105.484, 341.858 
	L 118.524, 341.858 
	L 118.524, 348.661 
	L 116.823, 348.661 
	L 116.823, 343.205 
	L 107.185, 343.205 
	L 107.185, 348.661 
	L 105.484, 348.661 
" />
<path d="M 136.843, 347.314 
	L 136.843, 347.315 
	L 129.295, 340.937 
	L 120.224, 340.937 
	L 120.224, 347.315 
	L 136.843, 347.315 
	L 118.524, 348.661 
	L 118.524, 339.591 
	L 130.039, 339.591 
	L 140.634, 348.661 
	L 118.524, 348.661 
" />
<path d="M 118.524, 348.661 
" />
<path d="M 140.635, 348.661 
	L 140.634, 348.661 
	L 140.634, 341.858 
	L 152.894, 341.858 
	L 152.894, 343.205 
	L 142.335, 343.205 
	L 142.335, 348.661 
	L 140.634, 348.661 
" />
<path d="M 164.233, 347.314 
	L 164.232, 347.315 
	L 164.232, 343.205 
	L 154.595, 343.205 
	L 154.595, 347.315 
	L 164.232, 347.315 
	L 152.894, 348.661 
	L 152.894, 341.858 
	L 165.933, 341.858 
	L 165.933, 348.661 
	L 152.894, 348.661 
" />
<path d="M 152.894, 348.661 
" />
<path d="M 165.934, 348.661 
	L 165.933, 348.661 
	L 165.933, 341.858 
	L 178.972, 341.858 
	L 178.972, 348.661 
	L 177.272, 348.661 
	L 177.272, 343.205 
	L 167.634, 343.205 
	L 167.634, 348.661 
	L 165.933, 348.661 
" />
<path d="M 189.603, 344.586 
	L 189.602, 344.587 
	L 189.602, 343.205 
	L 180.248, 343.205 
	L 180.248, 344.587 
	L 189.602, 344.587 
	L 178.689, 348.661 
	L 178.689, 341.858 
	L 191.161, 341.858 
	L 191.161, 345.933 
	L 180.248, 345.933 
" />
<path d="M 180.248, 345.933 
	L 180.248, 347.315 
	L 191.161, 347.315 
	L 191.161, 348.661 
	L 178.689, 348.661 
" />
<path d="M 13.961, 191.409 
	L 13.961, 191.409 
	L 13.961, 193.075 
	L 13.961, 205.264 
	L 13.961, 206.929 
	L 12.295, 206.929 
	L 10.630, 206.929 
	L 10.630, 205.158 
	L 10.630, 193.075 
	L 10.630, 191.409 
	L 13.961, 191.409 
	L 21.969, 191.409 
" />
<path d="M 21.969, 191.409 
	L 22.535, 191.161 
	L 23.031, 191.161 
	L 23.492, 191.161 
	L 23.917, 191.409 
	L 24.413, 191.764 
	L 24.413, 192.472 
	L 24.413, 192.969 
	L 24.201, 193.642 
	L 19.240, 199.134 
	L 24.201, 204.697 
	L 24.378, 205.087 
" />
<path d="M 24.378, 205.087 
	L 24.378, 205.406 
	L 24.378, 206.114 
	L 23.634, 206.646 
	L 23.280, 206.929 
	L 22.783, 206.929 
	L 21.791, 206.929 
	L 20.303, 205.831 
	L 15.874, 200.835 
	L 14.244, 199.169 
	L 15.874, 197.504 
	L 21.969, 191.409 
" />
<path d="M 21.969, 191.409 
" />
<path d="M 31.855, 203.598 
	L 31.854, 203.598 
	L 36.071, 203.598 
	L 36.035, 197.185 
	L 26.362, 206.256 
	L 25.724, 206.787 
	L 25.157, 206.787 
	L 24.520, 206.787 
	L 23.988, 206.079 
	L 23.528, 205.512 
	L 23.528, 204.945 
	L 23.528, 204.236 
" />
<path d="M 23.528, 204.236 
	L 24.272, 203.634 
	L 36.283, 192.189 
	L 37.169, 191.303 
	L 37.878, 191.303 
	L 38.374, 191.303 
	L 38.551, 191.339 
	L 39.366, 191.622 
	L 39.366, 193.358 
	L 39.366, 204.591 
	L 39.366, 207.000 
	L 36.602, 206.929 
" />
<path d="M 36.602, 206.929 
	L 31.854, 206.929 
	L 29.941, 207.000 
	L 29.941, 205.282 
	L 29.941, 203.563 
	L 31.854, 203.598 
" />
<path d="M 54.674, 203.669 
	L 54.673, 203.669 
	L 54.673, 204.697 
	L 53.575, 205.813 
	L 52.476, 206.929 
	L 51.378, 206.929 
	L 43.618, 206.929 
	L 42.520, 206.929 
	L 41.404, 205.813 
	L 40.287, 204.697 
	L 40.287, 203.598 
	L 40.323, 194.811 
" />
<path d="M 40.323, 194.811 
	L 40.287, 193.642 
	L 41.404, 192.526 
	L 42.520, 191.409 
	L 43.618, 191.409 
	L 51.378, 191.409 
	L 52.476, 191.409 
	L 53.575, 192.526 
	L 54.673, 193.642 
	L 54.673, 194.740 
	L 54.673, 203.669 
	L 51.378, 201.933 
" />
<path d="M 51.378, 201.933 
	L 51.378, 196.406 
	L 51.378, 194.740 
	L 49.713, 194.740 
	L 45.283, 194.740 
	L 43.618, 194.740 
	L 43.618, 196.441 
	L 43.618, 201.933 
	L 43.583, 203.634 
	L 45.283, 203.598 
	L 49.713, 203.598 
	L 51.378, 203.598 
" />
<path d="M 51.378, 203.598 
	L 51.378, 201.933 
" />
<path d="M 66.509, 191.409 
	L 66.508, 191.409 
	L 68.173, 191.409 
	L 68.173, 193.004 
	L 68.173, 194.669 
	L 66.508, 194.740 
	L 55.417, 194.740 
	L 53.752, 194.669 
	L 53.752, 193.075 
	L 53.752, 191.374 
	L 55.417, 191.409 
	L 66.508, 191.409 
" />
<path d="M 66.508, 191.409 
	L 59.280, 198.071 
	L 59.244, 195.874 
	L 61.087, 195.856 
	L 62.929, 195.839 
	L 62.929, 198.071 
	L 62.929, 204.697 
	L 62.823, 206.929 
	L 61.122, 206.929 
	L 61.087, 206.929 
	L 59.244, 206.894 
	L 59.280, 204.697 
" />
<path d="M 59.280, 204.697 
	L 59.280, 198.071 
" />
<path d="M 70.725, 191.409 
	L 70.724, 191.409 
	L 80.681, 191.409 
	L 82.346, 191.409 
	L 82.346, 193.075 
	L 82.346, 194.740 
	L 80.681, 194.740 
	L 73.488, 194.740 
	L 72.390, 194.740 
	L 72.390, 195.839 
	L 72.390, 202.500 
	L 72.390, 203.598 
" />
<path d="M 72.390, 203.598 
	L 73.488, 203.598 
	L 80.681, 203.598 
	L 82.346, 203.598 
	L 82.346, 205.264 
	L 82.346, 206.929 
	L 80.681, 206.929 
	L 70.724, 206.929 
	L 69.059, 206.929 
	L 69.059, 205.264 
	L 69.059, 193.181 
	L 69.059, 191.409 
" />
<path d="M 69.059, 191.409 
	L 70.724, 191.409 
	L 75.720, 197.504 
	L 78.484, 197.504 
	L 80.681, 197.504 
	L 80.681, 199.169 
	L 80.681, 200.835 
	L 78.484, 200.835 
	L 75.720, 200.835 
	L 73.488, 200.835 
	L 73.488, 199.169 
	L 73.488, 197.504 
" />
<path d="M 73.488, 197.504 
	L 75.720, 197.504 
" />
<path d="M 95.564, 206.928 
	L 95.563, 206.929 
	L 87.343, 206.929 
	L 85.287, 206.929 
	L 83.799, 205.476 
	L 82.346, 204.059 
	L 82.346, 202.039 
	L 82.346, 196.158 
	L 82.346, 194.138 
	L 83.799, 192.685 
	L 85.110, 191.409 
	L 87.059, 191.409 
" />
<path d="M 87.059, 191.409 
	L 87.272, 191.409 
	L 87.520, 191.409 
	L 94.394, 191.409 
	L 96.130, 191.409 
	L 96.130, 193.146 
	L 96.130, 194.882 
	L 94.394, 194.882 
	L 88.016, 194.882 
	L 85.783, 194.882 
	L 85.783, 197.008 
	L 85.783, 201.579 
" />
<path d="M 85.783, 201.579 
	L 85.783, 203.492 
	L 88.157, 203.492 
	L 95.563, 203.492 
	L 97.299, 203.492 
	L 97.299, 205.193 
	L 97.264, 206.929 
	L 95.563, 206.929 
" />
<path d="M 107.257, 200.834 
	L 107.256, 200.835 
	L 100.630, 200.835 
	L 98.965, 200.835 
	L 98.965, 199.169 
	L 98.965, 197.504 
	L 100.630, 197.504 
	L 107.256, 197.504 
	L 108.921, 197.504 
	L 108.921, 199.169 
	L 108.921, 200.835 
" />
<path d="M 108.921, 200.835 
	L 107.256, 200.835 
" />
<path d="M 114.698, 203.598 
	L 114.697, 203.598 
	L 118.913, 203.598 
	L 118.878, 197.185 
	L 109.205, 206.256 
	L 108.567, 206.787 
	L 108.000, 206.787 
	L 107.362, 206.787 
	L 106.831, 206.079 
	L 106.370, 205.512 
	L 106.370, 204.945 
" />
<path d="M 106.370, 204.945 
	L 106.370, 204.236 
	L 107.114, 203.634 
	L 119.126, 192.189 
	L 120.012, 191.303 
	L 120.720, 191.303 
	L 121.217, 191.303 
	L 121.394, 191.339 
	L 122.209, 191.622 
	L 122.209, 193.358 
	L 122.209, 204.591 
" />
<path d="M 122.209, 204.591 
	L 122.209, 207.000 
	L 119.445, 206.929 
	L 114.697, 206.929 
	L 112.783, 207.000 
	L 112.783, 205.282 
	L 112.783, 203.563 
	L 114.697, 203.598 
" />
<path d="M 123.095, 191.409 
	L 123.095, 191.409 
	L 124.760, 191.409 
	L 126.425, 191.409 
	L 126.425, 193.642 
	L 126.425, 202.500 
	L 126.425, 203.598 
	L 127.524, 203.598 
	L 133.122, 203.598 
	L 135.390, 203.598 
	L 135.425, 205.228 
" />
<path d="M 135.425, 205.228 
	L 135.425, 206.858 
	L 133.122, 206.929 
	L 125.681, 206.929 
	L 123.095, 206.929 
	L 123.095, 204.201 
	L 123.095, 193.606 
	L 123.095, 191.409 
" />
<path d="M 149.493, 202.322 
	L 149.492, 202.323 
	L 149.492, 204.697 
	L 148.553, 205.813 
	L 147.614, 206.929 
	L 144.957, 206.894 
	L 137.161, 206.929 
	L 135.425, 206.929 
	L 135.425, 205.193 
	L 135.425, 198.071 
	L 135.461, 195.839 
" />
<path d="M 135.461, 195.839 
	L 137.108, 195.839 
	L 138.756, 195.839 
	L 138.720, 198.071 
	L 138.720, 203.705 
	L 144.283, 203.705 
	L 146.020, 203.705 
	L 146.020, 202.252 
	L 146.020, 200.799 
	L 144.248, 200.799 
	L 142.087, 200.835 
" />
<path d="M 142.087, 200.835 
	L 139.783, 200.835 
	L 139.819, 199.169 
	L 139.854, 197.504 
	L 142.087, 197.504 
	L 144.283, 197.504 
	L 146.020, 197.539 
	L 146.037, 196.140 
	L 146.055, 194.740 
	L 144.390, 194.740 
	L 137.091, 194.740 
" />
<path d="M 137.091, 194.740 
	L 135.425, 194.740 
	L 135.425, 193.146 
	L 135.425, 191.409 
	L 137.161, 191.409 
	L 144.850, 191.409 
	L 147.047, 191.409 
	L 148.163, 192.526 
	L 149.280, 193.642 
	L 149.386, 195.839 
	L 149.386, 198.177 
" />
<path d="M 149.386, 198.177 
	L 147.969, 199.028 
	L 149.492, 200.020 
	L 149.492, 202.323 
" />
<path d="M 149.528, 191.444 
	L 149.528, 191.445 
	L 151.158, 191.445 
	L 151.193, 191.445 
	L 152.858, 191.445 
	L 152.787, 193.677 
	L 152.787, 201.969 
	L 152.787, 203.598 
	L 154.453, 203.634 
	L 158.846, 203.598 
	L 160.583, 203.634 
" />
<path d="M 160.583, 203.634 
	L 160.583, 201.898 
	L 160.583, 193.642 
	L 160.618, 191.409 
	L 162.283, 191.409 
	L 163.913, 191.409 
	L 163.913, 193.535 
	L 163.913, 203.598 
	L 163.913, 204.661 
	L 163.063, 205.778 
	L 162.213, 206.894 
" />
<path d="M 162.213, 206.894 
	L 161.079, 206.894 
	L 152.256, 206.894 
	L 151.122, 206.894 
	L 150.325, 205.795 
	L 149.528, 204.697 
	L 149.528, 203.598 
	L 149.492, 193.642 
	L 149.528, 191.445 
" />
<path d="M 175.359, 192.153 
	L 175.358, 192.154 
	L 176.244, 191.409 
	L 176.988, 191.409 
	L 177.272, 191.409 
	L 177.520, 191.516 
	L 178.476, 191.870 
	L 178.476, 193.500 
	L 178.476, 205.016 
	L 178.441, 207.000 
	L 176.811, 207.000 
" />
<path d="M 176.811, 207.000 
	L 176.776, 207.000 
	L 175.146, 207.000 
	L 175.110, 204.980 
	L 175.110, 198.142 
	L 175.075, 197.150 
	L 174.508, 197.681 
	L 166.039, 206.185 
	L 165.154, 207.000 
	L 164.409, 207.000 
	L 163.878, 207.000 
" />
<path d="M 163.878, 207.000 
	L 163.382, 206.504 
	L 162.886, 206.043 
	L 162.886, 205.476 
	L 162.886, 204.697 
	L 163.736, 203.811 
	L 175.358, 192.154 
	L 188.717, 191.835 
	L 188.717, 193.500 
	L 188.717, 204.768 
	L 188.717, 207.000 
" />
<path d="M 188.717, 207.000 
	L 187.051, 207.000 
	L 185.386, 207.000 
	L 185.386, 204.768 
	L 185.386, 198.142 
	L 185.386, 197.433 
	L 184.748, 197.965 
	L 182.587, 200.161 
	L 180.957, 201.295 
	L 180.071, 200.091 
	L 179.185, 198.886 
" />
<path d="M 179.185, 198.886 
	L 180.461, 197.469 
	L 185.669, 192.189 
	L 186.413, 191.409 
	L 187.193, 191.409 
	L 187.441, 191.409 
	L 187.689, 191.480 
	L 188.717, 191.835 
" />
<path d="M 204.166, 203.669 
	L 204.165, 203.669 
	L 204.165, 204.697 
	L 203.067, 205.813 
	L 201.969, 206.929 
	L 200.870, 206.929 
	L 193.110, 206.929 
	L 192.012, 206.929 
	L 190.896, 205.813 
	L 189.780, 204.697 
	L 189.780, 203.598 
" />
<path d="M 189.780, 203.598 
	L 189.815, 194.811 
	L 189.780, 193.642 
	L 190.896, 192.526 
	L 192.012, 191.409 
	L 193.110, 191.409 
	L 200.870, 191.409 
	L 201.969, 191.409 
	L 203.067, 192.526 
	L 204.165, 193.642 
	L 204.165, 194.740 
" />
<path d="M 204.165, 194.740 
	L 204.165, 203.669 
	L 200.870, 201.933 
	L 200.870, 196.406 
	L 200.870, 194.740 
	L 199.205, 194.740 
	L 194.776, 194.740 
	L 193.110, 194.740 
	L 193.110, 196.441 
	L 193.110, 201.933 
	L 193.075, 203.634 
" />
<path d="M 193.075, 203.634 
	L 194.776, 203.598 
	L 199.205, 203.598 
	L 200.870, 203.598 
	L 200.870, 201.933 
" />
<path d="M 218.552, 203.669 
	L 218.551, 203.669 
	L 218.551, 204.697 
	L 217.453, 205.813 
	L 216.354, 206.929 
	L 215.256, 206.929 
	L 207.496, 206.929 
	L 206.398, 206.929 
	L 205.282, 205.813 
	L 204.165, 204.697 
	L 204.165, 203.598 
" />
<path d="M 204.165, 203.598 
	L 204.201, 194.811 
	L 204.165, 193.642 
	L 205.282, 192.526 
	L 206.398, 191.409 
	L 207.496, 191.409 
	L 215.256, 191.409 
	L 216.354, 191.409 
	L 217.453, 192.526 
	L 218.551, 193.642 
	L 218.551, 194.740 
" />
<path d="M 218.551, 194.740 
	L 218.551, 203.669 
	L 215.256, 201.933 
	L 215.256, 196.406 
	L 215.256, 194.740 
	L 213.591, 194.740 
	L 209.161, 194.740 
	L 207.496, 194.740 
	L 207.496, 196.441 
	L 207.496, 201.933 
	L 207.461, 203.634 
" />
<path d="M 207.461, 203.634 
	L 209.161, 203.598 
	L 213.591, 203.598 
	L 215.256, 203.598 
	L 215.256, 201.933 
" />
<path d="M 225.780, 204.696 
	L 225.780, 204.697 
	L 225.780, 206.929 
	L 224.150, 206.929 
	L 222.484, 206.929 
	L 222.413, 204.697 
	L 222.413, 193.642 
	L 222.484, 191.409 
	L 224.150, 191.409 
	L 225.780, 191.409 
	L 225.780, 193.642 
" />
<path d="M 225.780, 193.642 
	L 225.780, 204.697 
" />
<path d="M 644.882, 634.961 
	L 644.882, 638.150 
	L 644.173, 639.213 
	L 642.756, 639.213 
	L 642.047, 638.150 
	L 642.047, 636.024 
	L 644.882, 636.024 
" />
<path d="M 640.630, 631.772 
	L 640.630, 630.709 
	L 644.882, 630.709 
" />
<path d="M 644.882, 631.772 
	L 644.882, 629.646 
" />
<path d="M 644.882, 626.457 
	L 644.882, 623.268 
	L 644.173, 622.205 
	L 642.756, 622.205 
	L 642.047, 623.268 
	L 642.047, 625.394 
" />
<path d="M 640.630, 625.394 
	L 644.882, 625.394 
" />
<path d="M 642.047, 620.079 
	L 644.173, 620.079 
	L 644.882, 619.016 
	L 644.882, 616.890 
	L 642.047, 616.890 
" />
<path d="M 644.882, 613.701 
	L 642.047, 613.701 
" />
<path d="M 642.756, 613.701 
	L 642.047, 612.638 
	L 642.756, 611.575 
	L 644.882, 611.575 
" />
<path d="M 642.756, 611.575 
	L 642.047, 610.512 
	L 642.756, 609.449 
	L 644.882, 609.449 
" />
<path d="M 644.173, 607.323 
	L 644.882, 606.260 
	L 644.882, 604.134 
	L 644.173, 603.071 
	L 641.339, 603.071 
	L 640.630, 604.134 
	L 640.630, 606.260 
	L 641.339, 607.323 
	L 644.173, 607.323 
" />
<path d="M 644.173, 600.945 
	L 644.882, 599.882 
	L 644.882, 597.756 
	L 644.173, 596.693 
	L 641.339, 596.693 
	L 640.630, 597.756 
	L 640.630, 599.882 
	L 641.339, 600.945 
	L 644.173, 600.945 
" />
<path d="M 644.882, 593.504 
	L 644.882, 591.378 
" />
<path d="M 644.882, 592.441 
	L 640.630, 592.441 
	L 641.339, 593.504 
" />
<path d="M 644.173, 583.937 
	L 644.882, 585.000 
	L 644.882, 586.063 
	L 644.173, 587.126 
	L 642.756, 587.126 
	L 642.047, 586.063 
	L 642.047, 585.000 
	L 642.756, 583.937 
" />
<path d="M 644.882, 580.748 
	L 644.173, 581.811 
	L 642.756, 581.811 
	L 642.047, 580.748 
	L 642.047, 579.685 
	L 642.756, 578.622 
	L 644.173, 578.622 
	L 644.882, 579.685 
	L 644.882, 580.748 
" />
<path d="M 642.047, 575.433 
	L 643.465, 575.433 
	L 644.882, 573.307 
	L 643.465, 571.181 
	L 642.047, 571.181 
" />
<path d="M 643.465, 569.055 
	L 643.465, 565.866 
	L 642.756, 564.803 
	L 642.047, 565.866 
	L 642.047, 567.992 
	L 642.756, 569.055 
	L 644.173, 569.055 
	L 644.882, 567.992 
	L 644.882, 564.803 
" />
<path d="M 642.047, 562.677 
	L 644.882, 562.677 
" />
<path d="M 643.465, 562.677 
	L 642.047, 560.551 
	L 642.047, 559.488 
" />
<path d="M 640.630, 548.858 
	L 644.882, 548.858 
	L 644.882, 546.732 
" />
<path d="M 642.047, 549.921 
	L 642.047, 546.732 
" />
<path d="M 643.465, 543.543 
	L 643.465, 540.354 
	L 642.756, 539.291 
	L 642.047, 540.354 
	L 642.047, 542.480 
	L 642.756, 543.543 
	L 644.173, 543.543 
	L 644.882, 542.480 
	L 644.882, 539.291 
" />
<path d="M 642.047, 533.976 
	L 642.047, 536.102 
	L 642.756, 537.165 
	L 643.465, 536.102 
	L 643.465, 535.039 
	L 644.173, 533.976 
	L 644.882, 535.039 
	L 644.882, 537.165 
" />
<path d="M 640.630, 529.724 
	L 644.882, 529.724 
	L 644.882, 527.599 
" />
<path d="M 642.047, 530.787 
	L 642.047, 527.599 
" />
<path d="M 641.339, 498.898 
	L 640.630, 497.835 
	L 640.630, 495.709 
	L 641.339, 494.646 
	L 642.047, 494.646 
	L 644.173, 498.898 
	L 644.882, 498.898 
	L 644.882, 494.646 
" />
<path d="M 644.173, 492.520 
	L 644.882, 491.457 
	L 644.882, 489.331 
	L 644.173, 488.268 
	L 641.339, 488.268 
	L 640.630, 489.331 
	L 640.630, 491.457 
	L 641.339, 492.520 
	L 644.173, 492.520 
" />
<path d="M 644.882, 485.079 
	L 644.882, 482.953 
" />
<path d="M 644.882, 484.016 
	L 640.630, 484.016 
	L 641.339, 485.079 
" />
<path d="M 644.882, 478.701 
	L 644.882, 477.638 
	L 643.465, 475.512 
	L 641.339, 475.512 
	L 640.630, 476.575 
	L 640.630, 478.701 
	L 641.339, 479.764 
	L 642.047, 479.764 
	L 642.756, 478.701 
	L 642.756, 475.512 
" />
<path d="M 642.756, 473.386 
	L 642.756, 469.134 
" />
<path d="M 644.882, 465.945 
	L 644.882, 463.819 
" />
<path d="M 644.882, 464.882 
	L 640.630, 464.882 
	L 641.339, 465.945 
" />
<path d="M 644.882, 459.567 
	L 644.882, 457.441 
" />
<path d="M 644.882, 458.504 
	L 640.630, 458.504 
	L 641.339, 459.567 
" />
<path d="M 642.756, 454.252 
	L 642.756, 450.000 
" />
<path d="M 641.339, 447.874 
	L 640.630, 446.811 
	L 640.630, 444.685 
	L 641.339, 443.622 
	L 642.047, 443.622 
	L 644.173, 447.874 
	L 644.882, 447.874 
	L 644.882, 443.622 
" />
<path d="M 640.630, 437.244 
	L 640.630, 441.496 
	L 642.047, 441.496 
	L 642.047, 438.307 
	L 642.756, 437.244 
	L 644.173, 437.244 
	L 644.882, 438.307 
	L 644.882, 440.433 
	L 644.173, 441.496 
" />
<path d="M 644.882, 427.677 
	L 644.882, 425.551 
" />
<path d="M 644.882, 426.614 
	L 640.630, 426.614 
	L 641.339, 427.677 
" />
<path d="M 640.630, 419.173 
	L 642.756, 422.362 
	L 643.465, 422.362 
	L 643.465, 418.110 
" />
<path d="M 642.756, 419.173 
	L 644.882, 419.173 
" />
<path d="M 642.756, 414.921 
	L 642.047, 414.921 
	L 642.047, 413.858 
	L 642.756, 413.858 
	L 642.756, 414.921 
" />
<path d="M 644.173, 414.921 
	L 644.173, 413.858 
	L 644.882, 413.858 
	L 644.882, 414.921 
	L 644.173, 414.921 
" />
<path d="M 644.173, 409.606 
	L 644.882, 408.543 
	L 644.882, 406.417 
	L 644.173, 405.354 
	L 643.465, 405.354 
	L 642.756, 406.417 
	L 642.756, 407.480 
	L 640.630, 405.354 
	L 640.630, 409.606 
" />
<path d="M 644.173, 403.228 
	L 644.882, 402.165 
	L 644.882, 400.039 
	L 644.173, 398.976 
	L 643.465, 398.976 
	L 642.756, 400.039 
	L 642.756, 401.102 
	L 640.630, 398.976 
	L 640.630, 403.228 
" />
</g>
</svg>
