<?xml version="1.0" encoding="UTF-8" standalone="no" ?>
<svg width="100%" height="100%" viewBox="0 0 644.882 646.299" xmlns="http://www.w3.org/2000/svg"><g>
</g><g style="stroke:rgb(0,0,0); fill:none; stroke-width:1.000mm" >
</g><g style="stroke:rgb(0,0,0); fill:none; stroke-width:0.100mm" >
<path d="M 0.001, 646.299 
	L 0.000, 646.299 
	L 0.000, 8.504 
	L 637.795, 8.504 
	L 637.795, 646.299 
	L 0.000, 646.299 
" />
<path d="M 0.001, 514.230 
	L 0.000, 514.230 
	L 141.732, 504.556 
	L 283.465, 500.641 
	L 425.197, 495.521 
	L 566.929, 494.015 
" />
<path d="M 0.001, 515.103 
	L 0.000, 515.104 
	L 70.866, 506.013 
	L 141.732, 502.333 
	L 212.598, 497.522 
	L 283.465, 496.106 
	L 354.331, 497.282 
	L 425.197, 499.224 
	L 496.063, 498.336 
	L 566.929, 502.537 
" />
<path d="M 0.001, 512.553 
	L 0.000, 512.554 
	L 47.197, 503.795 
	L 94.394, 500.250 
	L 141.591, 495.614 
	L 188.787, 494.250 
	L 235.984, 495.383 
	L 283.181, 497.253 
	L 330.378, 496.398 
	L 377.575, 500.445 
	L 424.772, 506.670 
" />
<path d="M 424.772, 506.670 
	L 471.969, 509.344 
	L 519.165, 513.353 
	L 566.362, 527.326 
	L 613.559, 524.962 
" />
<path d="M 0.001, 509.467 
	L 0.000, 509.468 
	L 35.433, 501.003 
	L 70.866, 497.577 
	L 106.299, 493.096 
	L 141.732, 491.778 
	L 177.165, 492.873 
	L 212.598, 494.680 
	L 248.032, 493.854 
	L 283.465, 497.765 
	L 318.898, 503.782 
" />
<path d="M 318.898, 503.782 
	L 354.331, 506.366 
	L 389.764, 510.242 
	L 425.197, 523.746 
	L 460.630, 521.461 
	L 496.063, 527.922 
	L 531.496, 535.749 
	L 566.929, 542.849 
	L 602.362, 549.537 
" />
<path d="M 0.001, 515.926 
	L 0.000, 515.927 
	L 28.346, 508.454 
	L 56.693, 505.429 
	L 85.039, 501.474 
	L 113.386, 500.310 
	L 141.732, 501.276 
	L 170.079, 502.872 
	L 198.425, 502.143 
	L 226.772, 505.596 
	L 255.118, 510.907 
" />
<path d="M 255.118, 510.907 
	L 283.465, 513.189 
	L 311.811, 516.610 
	L 340.158, 528.532 
	L 368.504, 526.514 
	L 396.850, 532.218 
	L 425.197, 539.127 
	L 453.543, 545.395 
	L 481.890, 551.299 
	L 510.236, 549.096 
	L 538.583, 556.999 
" />
<path d="M 538.583, 556.999 
	L 566.929, 561.419 
	L 595.276, 569.139 
	L 623.622, 579.798 
" />
<path d="M 0.001, 514.215 
	L 0.000, 514.215 
	L 23.598, 507.136 
	L 47.197, 504.271 
	L 70.795, 500.523 
	L 94.394, 499.421 
	L 117.992, 500.336 
	L 141.591, 501.849 
	L 165.189, 501.158 
	L 188.787, 504.429 
	L 212.386, 509.460 
	L 235.984, 511.622 
" />
<path d="M 235.984, 511.622 
	L 259.583, 514.862 
	L 283.181, 526.156 
	L 306.780, 524.245 
	L 330.378, 529.649 
	L 353.976, 536.194 
	L 377.575, 542.131 
	L 401.173, 547.724 
	L 424.772, 545.637 
	L 448.370, 553.123 
	L 471.969, 557.311 
" />
<path d="M 471.969, 557.311 
	L 495.567, 564.624 
	L 519.165, 574.721 
	L 542.764, 577.767 
	L 566.362, 580.407 
	L 589.961, 583.260 
	L 613.559, 582.314 
	L 637.158, 589.003 
" />
<path d="M 0.001, 513.887 
	L 0.000, 513.887 
	L 20.197, 507.303 
	L 40.394, 504.638 
	L 60.591, 501.153 
	L 80.787, 500.128 
	L 100.984, 500.979 
	L 121.181, 502.385 
	L 141.378, 501.743 
	L 161.575, 504.785 
	L 181.772, 509.465 
	L 201.969, 511.475 
" />
<path d="M 201.969, 511.475 
	L 222.165, 514.489 
	L 242.362, 524.993 
	L 262.559, 523.215 
	L 282.756, 528.241 
	L 302.953, 534.329 
	L 323.150, 539.851 
	L 343.347, 545.053 
	L 363.543, 543.113 
	L 383.740, 550.074 
	L 403.937, 553.969 
" />
<path d="M 403.937, 553.969 
	L 424.134, 560.771 
	L 444.331, 570.162 
	L 464.528, 572.995 
	L 484.724, 575.451 
	L 504.921, 578.103 
	L 525.118, 577.224 
	L 545.315, 583.445 
	L 565.512, 588.069 
	L 585.709, 602.028 
	L 605.906, 598.214 
" />
<path d="M 605.906, 598.214 
	L 626.102, 594.371 
" />
<path d="M 0.001, 514.354 
	L 0.000, 514.354 
	L 17.717, 508.323 
	L 35.433, 505.882 
	L 53.150, 502.690 
	L 70.866, 501.750 
	L 88.583, 502.530 
	L 106.299, 503.818 
	L 124.016, 503.230 
	L 141.732, 506.016 
	L 159.449, 510.303 
	L 177.165, 512.144 
" />
<path d="M 177.165, 512.144 
	L 194.882, 514.905 
	L 212.598, 524.526 
	L 230.315, 522.899 
	L 248.032, 527.502 
	L 265.748, 533.078 
	L 283.465, 538.136 
	L 301.181, 542.901 
	L 318.898, 541.123 
	L 336.614, 547.501 
	L 354.331, 551.067 
" />
<path d="M 354.331, 551.067 
	L 372.047, 557.299 
	L 389.764, 565.900 
	L 407.480, 568.495 
	L 425.197, 570.745 
	L 442.913, 573.175 
	L 460.630, 572.368 
	L 478.347, 578.067 
	L 496.063, 582.302 
	L 513.780, 595.089 
	L 531.496, 591.595 
" />
<path d="M 531.496, 591.595 
	L 549.213, 588.075 
	L 566.929, 597.516 
	L 584.646, 592.077 
	L 602.362, 591.937 
	L 620.079, 596.693 
" />
<path d="M 0.001, 512.393 
	L 0.000, 512.393 
	L 15.732, 506.738 
	L 31.465, 504.449 
	L 47.197, 501.455 
	L 62.929, 500.574 
	L 78.661, 501.306 
	L 94.394, 502.514 
	L 110.126, 501.962 
	L 125.858, 504.575 
	L 141.591, 508.594 
	L 157.323, 510.321 
" />
<path d="M 157.323, 510.321 
	L 173.055, 512.910 
	L 188.787, 521.933 
	L 204.520, 520.406 
	L 220.252, 524.723 
	L 235.984, 529.951 
	L 251.717, 534.695 
	L 267.449, 539.163 
	L 283.181, 537.496 
	L 298.913, 543.476 
	L 314.646, 546.821 
" />
<path d="M 314.646, 546.821 
	L 330.378, 552.664 
	L 346.110, 560.731 
	L 361.843, 563.164 
	L 377.575, 565.273 
	L 393.307, 567.552 
	L 409.039, 566.796 
	L 424.772, 572.140 
	L 440.504, 576.111 
	L 456.236, 588.102 
	L 471.969, 584.826 
" />
<path d="M 471.969, 584.826 
	L 487.701, 581.525 
	L 503.433, 590.378 
	L 519.165, 585.278 
	L 534.898, 585.147 
	L 550.630, 589.606 
	L 566.362, 593.432 
	L 582.095, 591.847 
	L 597.827, 589.088 
	L 613.559, 592.577 
" />
<path d="M 0.001, 513.007 
	L 0.000, 513.008 
	L 14.173, 507.916 
	L 28.346, 505.855 
	L 42.520, 503.160 
	L 56.693, 502.367 
	L 70.866, 503.026 
	L 85.039, 504.113 
	L 99.213, 503.617 
	L 113.386, 505.969 
	L 127.559, 509.588 
	L 141.732, 511.142 
" />
<path d="M 141.732, 511.142 
	L 155.906, 513.473 
	L 170.079, 521.595 
	L 184.252, 520.221 
	L 198.425, 524.108 
	L 212.598, 528.815 
	L 226.772, 533.085 
	L 240.945, 537.107 
	L 255.118, 535.607 
	L 269.291, 540.990 
	L 283.465, 544.002 
" />
<path d="M 283.465, 544.002 
	L 297.638, 549.262 
	L 311.811, 556.524 
	L 325.984, 558.714 
	L 340.158, 560.614 
	L 354.331, 562.665 
	L 368.504, 561.984 
	L 382.677, 566.795 
	L 396.850, 570.370 
	L 411.024, 581.166 
	L 425.197, 578.215 
" />
<path d="M 425.197, 578.215 
	L 439.370, 575.244 
	L 453.543, 583.214 
	L 467.717, 578.623 
	L 481.890, 578.505 
	L 496.063, 582.520 
	L 510.236, 585.963 
	L 524.410, 584.537 
	L 538.583, 582.053 
	L 552.756, 585.194 
" />
<path d="M 0.001, 510.477 
	L 0.000, 510.477 
	L 12.827, 505.719 
	L 25.654, 503.794 
	L 38.480, 501.275 
	L 51.307, 500.535 
	L 64.134, 501.150 
	L 76.961, 502.166 
	L 89.787, 501.701 
	L 102.614, 503.899 
	L 115.441, 507.281 
	L 128.268, 508.734 
" />
<path d="M 128.268, 508.734 
	L 141.095, 510.912 
	L 153.921, 518.502 
	L 166.748, 517.218 
	L 179.575, 520.849 
	L 192.402, 525.248 
	L 205.228, 529.238 
	L 218.055, 532.997 
	L 230.882, 531.595 
	L 243.709, 536.626 
	L 256.535, 539.440 
" />
<path d="M 256.535, 539.440 
	L 269.362, 544.356 
	L 282.189, 551.141 
	L 295.016, 553.188 
	L 307.843, 554.963 
	L 320.669, 556.880 
	L 333.496, 556.244 
	L 346.323, 560.739 
	L 359.150, 564.080 
	L 371.976, 574.167 
	L 384.803, 571.411 
" />
<path d="M 384.803, 571.411 
	L 397.630, 568.634 
	L 410.457, 576.082 
	L 423.284, 571.792 
	L 436.110, 571.682 
	L 448.937, 575.433 
	L 461.764, 578.651 
	L 474.591, 577.318 
	L 487.417, 574.997 
	L 500.244, 577.932 
" />
<path d="M 0.001, 522.214 
	L 0.000, 522.215 
	L 11.764, 518.836 
	L 23.528, 517.468 
	L 35.291, 515.680 
	L 47.055, 515.154 
	L 58.819, 515.590 
	L 70.583, 516.312 
	L 82.346, 515.982 
	L 94.110, 517.543 
	L 105.874, 519.945 
	L 117.638, 520.977 
" />
<path d="M 117.638, 520.977 
	L 129.402, 522.524 
	L 141.165, 527.914 
	L 152.929, 527.002 
	L 164.693, 529.581 
	L 176.457, 532.705 
	L 188.221, 535.539 
	L 199.984, 538.209 
	L 211.748, 537.213 
	L 223.512, 540.785 
	L 235.276, 542.784 
" />
<path d="M 235.276, 542.784 
	L 247.039, 546.275 
	L 258.803, 551.094 
	L 270.567, 552.548 
	L 282.331, 553.808 
	L 294.095, 555.170 
	L 305.858, 554.718 
	L 317.622, 557.911 
	L 329.386, 560.284 
	L 341.150, 567.448 
	L 352.913, 565.490 
" />
<path d="M 352.913, 565.490 
	L 364.677, 563.518 
	L 376.441, 568.808 
	L 388.205, 565.761 
	L 399.969, 565.682 
	L 411.732, 568.347 
	L 423.496, 570.632 
	L 435.260, 569.685 
	L 447.024, 568.037 
	L 458.787, 570.121 
" />
<path d="M 0.001, 521.413 
	L 0.000, 521.414 
	L 10.843, 518.496 
	L 21.685, 517.314 
	L 32.528, 515.770 
	L 43.370, 515.315 
	L 54.213, 515.692 
	L 65.055, 516.316 
	L 75.898, 516.031 
	L 86.740, 517.380 
	L 97.583, 519.454 
	L 108.425, 520.345 
" />
<path d="M 108.425, 520.345 
	L 119.268, 521.681 
	L 130.110, 526.337 
	L 140.953, 525.549 
	L 151.795, 527.777 
	L 162.638, 530.475 
	L 173.480, 532.923 
	L 184.323, 535.229 
	L 195.165, 534.368 
	L 206.008, 537.455 
	L 216.850, 539.181 
" />
<path d="M 216.850, 539.181 
	L 227.693, 542.196 
	L 238.535, 546.359 
	L 249.378, 547.614 
	L 260.221, 548.703 
	L 271.063, 549.879 
	L 281.906, 549.489 
	L 292.748, 552.246 
	L 303.591, 554.296 
	L 314.433, 560.483 
	L 325.276, 558.792 
" />
<path d="M 325.276, 558.792 
	L 336.118, 557.089 
	L 346.961, 561.658 
	L 357.803, 559.026 
	L 368.646, 558.959 
	L 379.488, 561.260 
	L 390.331, 563.234 
	L 401.173, 562.416 
	L 412.016, 560.993 
	L 422.858, 562.793 
" />
<path d="M 0.001, 520.525 
	L 0.000, 520.525 
	L 10.063, 518.061 
	L 20.126, 517.063 
	L 30.189, 515.759 
	L 40.252, 515.375 
	L 50.315, 515.694 
	L 60.378, 516.220 
	L 70.441, 515.979 
	L 80.504, 517.118 
	L 90.567, 518.870 
	L 100.630, 519.623 
" />
<path d="M 100.630, 519.623 
	L 110.693, 520.751 
	L 120.756, 524.682 
	L 130.819, 524.017 
	L 140.882, 525.898 
	L 150.945, 528.177 
	L 161.008, 530.244 
	L 171.071, 532.191 
	L 181.134, 531.465 
	L 191.197, 534.071 
	L 201.260, 535.528 
" />
<path d="M 201.260, 535.528 
	L 211.323, 538.075 
	L 221.386, 541.590 
	L 231.449, 542.650 
	L 241.512, 543.570 
	L 251.575, 544.562 
	L 261.638, 544.233 
	L 271.701, 546.562 
	L 281.764, 548.293 
	L 291.827, 553.518 
	L 301.890, 552.090 
" />
<path d="M 301.890, 552.090 
	L 311.953, 550.651 
	L 322.016, 554.509 
	L 332.079, 552.287 
	L 342.142, 552.230 
	L 352.205, 554.173 
	L 362.268, 555.840 
	L 372.331, 555.150 
	L 382.394, 553.947 
	L 392.457, 555.468 
" />
<path d="M 0.001, 510.953 
	L 0.000, 510.954 
	L 9.425, 508.308 
	L 18.850, 507.237 
	L 28.276, 505.836 
	L 37.701, 505.424 
	L 47.126, 505.766 
	L 56.551, 506.331 
	L 65.976, 506.073 
	L 75.402, 507.295 
	L 84.827, 509.177 
	L 94.252, 509.985 
" />
<path d="M 94.252, 509.985 
	L 103.677, 511.197 
	L 113.102, 515.418 
	L 122.528, 514.704 
	L 131.953, 516.724 
	L 141.378, 519.171 
	L 150.803, 521.391 
	L 160.228, 523.481 
	L 169.654, 522.702 
	L 179.079, 525.499 
	L 188.504, 527.065 
" />
<path d="M 188.504, 527.065 
	L 197.929, 529.800 
	L 207.354, 533.574 
	L 216.780, 534.713 
	L 226.205, 535.700 
	L 235.630, 536.766 
	L 245.055, 536.412 
	L 254.480, 538.913 
	L 263.906, 540.772 
	L 273.331, 546.382 
	L 282.756, 544.849 
" />
<path d="M 282.756, 544.849 
	L 292.181, 543.305 
	L 301.606, 547.448 
	L 311.032, 545.061 
	L 320.457, 545.000 
	L 329.882, 547.087 
	L 339.307, 548.877 
	L 348.732, 548.136 
	L 358.158, 546.844 
	L 367.583, 548.477 
" />
<path d="M 0.001, 513.680 
	L 0.000, 513.680 
	L 8.858, 511.753 
	L 17.717, 510.973 
	L 26.575, 509.952 
	L 35.433, 509.652 
	L 44.291, 509.901 
	L 53.150, 510.313 
	L 62.008, 510.124 
	L 70.866, 511.015 
	L 79.724, 512.386 
	L 88.583, 512.974 
" />
<path d="M 88.583, 512.974 
	L 97.441, 513.857 
	L 106.299, 516.932 
	L 115.157, 516.412 
	L 124.016, 517.883 
	L 132.874, 519.666 
	L 141.732, 521.282 
	L 150.591, 522.805 
	L 159.449, 522.237 
	L 168.307, 524.276 
	L 177.165, 525.416 
" />
<path d="M 177.165, 525.416 
	L 186.024, 527.408 
	L 194.882, 530.157 
	L 203.740, 530.987 
	L 212.598, 531.706 
	L 221.457, 532.483 
	L 230.315, 532.225 
	L 239.173, 534.047 
	L 248.032, 535.400 
	L 256.890, 539.487 
	L 265.748, 538.370 
" />
<path d="M 265.748, 538.370 
	L 274.606, 537.246 
	L 283.465, 540.263 
	L 292.323, 538.525 
	L 301.181, 538.480 
	L 310.039, 540.000 
	L 318.898, 541.304 
	L 327.756, 540.764 
	L 336.614, 539.824 
	L 345.472, 541.013 
" />
<path d="M 0.001, 515.745 
	L 0.000, 515.746 
	L 8.291, 514.489 
	L 16.583, 513.980 
	L 24.874, 513.315 
	L 33.165, 513.118 
	L 41.457, 513.281 
	L 49.748, 513.550 
	L 58.039, 513.427 
	L 66.331, 514.008 
	L 74.622, 514.902 
	L 82.913, 515.286 
" />
<path d="M 82.913, 515.286 
	L 91.205, 515.862 
	L 99.496, 517.867 
	L 107.787, 517.528 
	L 116.079, 518.488 
	L 124.370, 519.650 
	L 132.661, 520.705 
	L 140.953, 521.698 
	L 149.244, 521.328 
	L 157.535, 522.657 
	L 165.827, 523.401 
" />
<path d="M 165.827, 523.401 
	L 174.118, 524.700 
	L 182.409, 526.494 
	L 190.701, 527.034 
	L 198.992, 527.504 
	L 207.283, 528.010 
	L 215.575, 527.842 
	L 223.866, 529.030 
	L 232.158, 529.913 
	L 240.449, 532.579 
	L 248.740, 531.850 
" />
<path d="M 248.740, 531.850 
	L 257.032, 531.116 
	L 265.323, 533.085 
	L 273.614, 531.951 
	L 281.906, 531.922 
	L 290.197, 532.913 
	L 298.488, 533.764 
	L 306.780, 533.412 
	L 315.071, 532.798 
	L 323.362, 533.574 
" />
<path d="M 0.001, 521.923 
	L 0.000, 521.924 
	L 7.866, 521.637 
	L 15.732, 521.522 
	L 23.598, 521.371 
	L 31.465, 521.326 
	L 39.331, 521.363 
	L 47.197, 521.424 
	L 55.063, 521.396 
	L 62.929, 521.528 
	L 70.795, 521.731 
	L 78.661, 521.819 
" />
<path d="M 78.661, 521.819 
	L 86.528, 521.950 
	L 94.394, 522.405 
	L 102.260, 522.329 
	L 110.126, 522.546 
	L 117.992, 522.811 
	L 125.858, 523.051 
	L 133.724, 523.277 
	L 141.591, 523.193 
	L 149.457, 523.495 
	L 157.323, 523.664 
" />
<path d="M 157.323, 523.664 
	L 165.189, 523.960 
	L 173.055, 524.367 
	L 180.921, 524.490 
	L 188.787, 524.597 
	L 196.654, 524.712 
	L 204.520, 524.674 
	L 212.386, 524.944 
	L 220.252, 525.144 
	L 228.118, 525.751 
	L 235.984, 525.585 
" />
<path d="M 235.984, 525.585 
	L 243.850, 525.418 
	L 251.717, 525.866 
	L 259.583, 525.608 
	L 267.449, 525.601 
	L 275.315, 525.827 
	L 283.181, 526.020 
	L 291.047, 525.940 
	L 298.913, 525.801 
	L 306.780, 525.977 
" />
<path d="M 0.001, 506.561 
	L 0.000, 506.562 
	L 7.441, 505.670 
	L 14.882, 505.309 
	L 22.323, 504.837 
	L 29.764, 504.698 
	L 37.205, 504.813 
	L 44.646, 505.004 
	L 52.087, 504.916 
	L 59.528, 505.329 
	L 66.969, 505.963 
	L 74.409, 506.235 
" />
<path d="M 74.409, 506.235 
	L 81.850, 506.643 
	L 89.291, 508.066 
	L 96.732, 507.825 
	L 104.173, 508.506 
	L 111.614, 509.331 
	L 119.055, 510.080 
	L 126.496, 510.784 
	L 133.937, 510.521 
	L 141.378, 511.464 
	L 148.819, 511.992 
" />
<path d="M 148.819, 511.992 
	L 156.260, 512.914 
	L 163.701, 514.186 
	L 171.142, 514.570 
	L 178.583, 514.902 
	L 186.024, 515.261 
	L 193.465, 515.142 
	L 200.906, 515.986 
	L 208.346, 516.612 
	L 215.787, 518.503 
	L 223.228, 517.986 
" />
<path d="M 223.228, 517.986 
	L 230.669, 517.465 
	L 238.110, 518.862 
	L 245.551, 518.058 
	L 252.992, 518.037 
	L 260.433, 518.740 
	L 267.874, 519.343 
	L 275.315, 519.094 
	L 282.756, 518.659 
	L 290.197, 519.209 
" />
<path d="M 0.001, 510.039 
	L 0.000, 510.040 
	L 7.087, 509.922 
	L 14.173, 509.874 
	L 21.260, 509.812 
	L 28.346, 509.793 
	L 35.433, 509.808 
	L 42.520, 509.834 
	L 49.606, 509.822 
	L 56.693, 509.877 
	L 63.780, 509.961 
	L 70.866, 509.997 
" />
<path d="M 70.866, 509.997 
	L 77.953, 510.051 
	L 85.039, 510.239 
	L 92.126, 510.207 
	L 99.213, 510.298 
	L 106.299, 510.407 
	L 113.386, 510.506 
	L 120.472, 510.600 
	L 127.559, 510.564 
	L 134.646, 510.690 
	L 141.732, 510.759 
" />
<path d="M 141.732, 510.759 
	L 148.819, 510.882 
	L 155.906, 511.051 
	L 162.992, 511.101 
	L 170.079, 511.145 
	L 177.165, 511.193 
	L 184.252, 511.177 
	L 191.339, 511.289 
	L 198.425, 511.372 
	L 205.512, 511.622 
	L 212.598, 511.554 
" />
<path d="M 212.598, 511.554 
	L 219.685, 511.485 
	L 226.772, 511.670 
	L 233.858, 511.563 
	L 240.945, 511.560 
	L 248.032, 511.654 
	L 255.118, 511.734 
	L 262.205, 511.700 
	L 269.291, 511.643 
	L 276.378, 511.716 
" />
<path d="M 0.001, 500.326 
	L 0.000, 500.327 
	L 6.732, 500.017 
	L 13.465, 499.891 
	L 20.197, 499.727 
	L 26.929, 499.679 
	L 33.661, 499.718 
	L 40.394, 499.785 
	L 47.126, 499.754 
	L 53.858, 499.898 
	L 60.591, 500.119 
	L 67.323, 500.214 
" />
<path d="M 67.323, 500.214 
	L 74.055, 500.355 
	L 80.787, 500.852 
	L 87.520, 500.767 
	L 94.252, 501.005 
	L 100.984, 501.292 
	L 107.717, 501.552 
	L 114.449, 501.798 
	L 121.181, 501.705 
	L 127.913, 502.034 
	L 134.646, 502.218 
" />
<path d="M 134.646, 502.218 
	L 141.378, 502.539 
	L 148.110, 502.982 
	L 154.843, 503.115 
	L 161.575, 503.231 
	L 168.307, 503.356 
	L 175.039, 503.315 
	L 181.772, 503.608 
	L 188.504, 503.826 
	L 195.236, 504.484 
	L 201.969, 504.305 
" />
<path d="M 201.969, 504.305 
	L 208.701, 504.123 
	L 215.433, 504.610 
	L 222.165, 504.330 
	L 228.898, 504.322 
	L 235.630, 504.567 
	L 242.362, 504.777 
	L 249.095, 504.690 
	L 255.827, 504.539 
	L 262.559, 504.730 
" />
<path d="M 0.001, 497.480 
	L 0.000, 497.480 
	L 6.378, 497.480 
	L 12.756, 497.480 
	L 19.134, 497.480 
	L 25.512, 497.480 
	L 31.890, 497.480 
	L 38.268, 497.480 
	L 44.646, 497.480 
	L 51.024, 497.480 
	L 57.402, 497.480 
	L 63.780, 497.480 
" />
<path d="M 63.780, 497.480 
	L 70.157, 497.480 
	L 76.535, 497.480 
	L 82.913, 497.480 
	L 89.291, 497.480 
	L 95.669, 497.480 
	L 102.047, 497.480 
	L 108.425, 497.480 
	L 114.803, 497.480 
	L 121.181, 497.480 
	L 127.559, 497.480 
" />
<path d="M 127.559, 497.480 
	L 133.937, 497.480 
	L 140.315, 497.480 
	L 146.693, 497.480 
	L 153.071, 497.480 
	L 159.449, 497.480 
	L 165.827, 497.480 
	L 172.205, 497.480 
	L 178.583, 497.480 
	L 184.961, 497.480 
	L 191.339, 497.480 
" />
<path d="M 191.339, 497.480 
	L 197.717, 497.480 
	L 204.095, 497.480 
	L 210.472, 497.480 
	L 216.850, 497.480 
	L 223.228, 497.480 
	L 229.606, 497.480 
	L 235.984, 497.480 
	L 242.362, 497.480 
	L 248.740, 497.480 
" />
<path d="M 0.001, 497.047 
	L 0.000, 497.048 
	L 6.094, 497.536 
	L 12.189, 497.733 
	L 18.283, 497.991 
	L 24.378, 498.066 
	L 30.472, 498.003 
	L 36.567, 497.900 
	L 42.661, 497.947 
	L 48.756, 497.722 
	L 54.850, 497.376 
	L 60.945, 497.227 
" />
<path d="M 60.945, 497.227 
	L 67.039, 497.003 
	L 73.134, 496.226 
	L 79.228, 496.358 
	L 85.323, 495.986 
	L 91.417, 495.535 
	L 97.512, 495.126 
	L 103.606, 494.741 
	L 109.701, 494.885 
	L 115.795, 494.369 
	L 121.890, 494.081 
" />
<path d="M 121.890, 494.081 
	L 127.984, 493.578 
	L 134.079, 492.883 
	L 140.173, 492.673 
	L 146.268, 492.491 
	L 152.362, 492.294 
	L 158.457, 492.360 
	L 164.551, 491.899 
	L 170.646, 491.557 
	L 176.740, 490.523 
	L 182.835, 490.806 
" />
<path d="M 182.835, 490.806 
	L 188.929, 491.090 
	L 195.024, 490.327 
	L 201.118, 490.767 
	L 207.213, 490.778 
	L 213.307, 490.394 
	L 219.402, 490.064 
	L 225.496, 490.200 
	L 231.591, 490.438 
	L 237.685, 490.138 
" />
<path d="M 0.001, 483.520 
	L 0.000, 483.520 
	L 5.882, 483.536 
	L 11.764, 483.542 
	L 17.646, 483.550 
	L 23.528, 483.553 
	L 29.409, 483.551 
	L 35.291, 483.547 
	L 41.173, 483.549 
	L 47.055, 483.542 
	L 52.937, 483.531 
	L 58.819, 483.526 
" />
<path d="M 58.819, 483.526 
	L 64.701, 483.519 
	L 70.583, 483.494 
	L 76.465, 483.499 
	L 82.346, 483.486 
	L 88.228, 483.472 
	L 94.110, 483.459 
	L 99.992, 483.447 
	L 105.874, 483.451 
	L 111.756, 483.435 
	L 117.638, 483.426 
	L 123.520, 483.409 
" />
<path d="M 123.520, 483.409 
	L 129.402, 483.387 
	L 135.283, 483.380 
	L 141.165, 483.374 
	L 147.047, 483.368 
	L 152.929, 483.370 
	L 158.811, 483.355 
	L 164.693, 483.345 
	L 170.575, 483.311 
	L 176.457, 483.321 
	L 182.339, 483.329 
" />
<path d="M 182.339, 483.329 
	L 188.221, 483.305 
	L 194.102, 483.319 
	L 199.984, 483.319 
	L 205.866, 483.307 
	L 211.748, 483.297 
	L 217.630, 483.301 
	L 223.512, 483.309 
	L 229.394, 483.299 
" />
<path d="M 0.001, 480.696 
	L 0.000, 480.696 
	L 5.669, 481.025 
	L 11.339, 481.157 
	L 17.008, 481.331 
	L 22.677, 481.382 
	L 28.346, 481.339 
	L 34.016, 481.269 
	L 39.685, 481.302 
	L 45.354, 481.150 
	L 51.024, 480.917 
	L 56.693, 480.817 
" />
<path d="M 56.693, 480.817 
	L 62.362, 480.667 
	L 68.032, 480.144 
	L 73.701, 480.232 
	L 79.370, 479.982 
	L 85.039, 479.679 
	L 90.709, 479.404 
	L 96.378, 479.144 
	L 102.047, 479.242 
	L 107.717, 478.895 
	L 113.386, 478.701 
	L 119.055, 478.362 
" />
<path d="M 119.055, 478.362 
	L 124.724, 477.894 
	L 130.394, 477.753 
	L 136.063, 477.632 
	L 141.732, 477.499 
	L 147.402, 477.543 
	L 153.071, 477.233 
	L 158.740, 477.003 
	L 164.409, 476.308 
	L 170.079, 476.498 
	L 175.748, 476.689 
" />
<path d="M 175.748, 476.689 
	L 181.417, 476.176 
	L 187.087, 476.471 
	L 192.756, 476.479 
	L 198.425, 476.221 
	L 204.095, 475.999 
	L 209.764, 476.091 
	L 215.433, 476.250 
	L 221.102, 476.048 
" />
<path d="M 0.001, 462.283 
	L 0.000, 462.283 
	L 5.386, 461.782 
	L 10.772, 461.579 
	L 16.157, 461.313 
	L 21.543, 461.235 
	L 26.929, 461.300 
	L 32.315, 461.407 
	L 37.701, 461.358 
	L 43.087, 461.590 
	L 48.472, 461.947 
	L 53.858, 462.100 
" />
<path d="M 53.858, 462.100 
	L 59.244, 462.329 
	L 64.630, 463.130 
	L 70.016, 462.995 
	L 75.402, 463.377 
	L 80.787, 463.842 
	L 86.173, 464.262 
	L 91.559, 464.659 
	L 96.945, 464.511 
	L 102.331, 465.041 
	L 107.717, 465.338 
	L 113.102, 465.856 
" />
<path d="M 113.102, 465.856 
	L 118.488, 466.572 
	L 123.874, 466.788 
	L 129.260, 466.975 
	L 134.646, 467.177 
	L 140.032, 467.110 
	L 145.417, 467.584 
	L 150.803, 467.937 
	L 156.189, 469.001 
	L 161.575, 468.709 
	L 166.961, 468.417 
" />
<path d="M 166.961, 468.417 
	L 172.346, 469.203 
	L 177.732, 468.750 
	L 183.118, 468.738 
	L 188.504, 469.134 
	L 193.890, 469.473 
	L 199.276, 469.333 
	L 204.661, 469.088 
	L 210.047, 469.398 
" />
<path d="M 0.001, 455.337 
	L 0.000, 455.338 
	L 5.244, 454.846 
	L 10.488, 454.647 
	L 15.732, 454.387 
	L 20.976, 454.310 
	L 26.220, 454.374 
	L 31.465, 454.479 
	L 36.709, 454.431 
	L 41.953, 454.658 
	L 47.197, 455.007 
	L 52.441, 455.157 
" />
<path d="M 52.441, 455.157 
	L 57.685, 455.382 
	L 62.929, 456.166 
	L 68.173, 456.034 
	L 73.417, 456.408 
	L 78.661, 456.863 
	L 83.906, 457.275 
	L 89.150, 457.664 
	L 94.394, 457.519 
	L 99.638, 458.038 
	L 104.882, 458.329 
	L 110.126, 458.837 
" />
<path d="M 110.126, 458.837 
	L 115.370, 459.538 
	L 120.614, 459.749 
	L 125.858, 459.933 
	L 131.102, 460.131 
	L 136.346, 460.065 
	L 141.591, 460.529 
	L 146.835, 460.874 
	L 152.079, 461.916 
	L 157.323, 461.632 
	L 162.567, 461.345 
" />
<path d="M 162.567, 461.345 
	L 167.811, 462.115 
	L 173.055, 461.671 
	L 178.299, 461.660 
	L 183.543, 462.047 
	L 188.787, 462.380 
	L 194.032, 462.242 
	L 199.276, 462.002 
	L 204.520, 462.305 
" />
<path d="M 0.001, 444.424 
	L 0.000, 444.424 
	L 5.031, 443.653 
	L 10.063, 443.340 
	L 15.094, 442.932 
	L 20.126, 442.811 
	L 25.157, 442.911 
	L 30.189, 443.076 
	L 35.220, 443.001 
	L 40.252, 443.358 
	L 45.283, 443.906 
	L 50.315, 444.142 
" />
<path d="M 50.315, 444.142 
	L 55.346, 444.495 
	L 60.378, 445.726 
	L 65.409, 445.518 
	L 70.441, 446.107 
	L 75.472, 446.820 
	L 80.504, 447.467 
	L 85.535, 448.077 
	L 90.567, 447.850 
	L 95.598, 448.666 
	L 100.630, 449.122 
	L 105.661, 449.920 
" />
<path d="M 105.661, 449.920 
	L 110.693, 451.021 
	L 115.724, 451.352 
	L 120.756, 451.641 
	L 125.787, 451.951 
	L 130.819, 451.848 
	L 135.850, 452.577 
	L 140.882, 453.119 
	L 145.913, 454.755 
	L 150.945, 454.308 
	L 155.976, 453.858 
" />
<path d="M 155.976, 453.858 
	L 161.008, 455.066 
	L 166.039, 454.370 
	L 171.071, 454.352 
	L 176.102, 454.961 
	L 181.134, 455.483 
	L 186.165, 455.266 
	L 191.197, 454.890 
	L 196.228, 455.366 
" />
<path d="M 0.001, 438.953 
	L 0.000, 438.953 
	L 4.819, 438.300 
	L 9.638, 438.036 
	L 14.457, 437.690 
	L 19.276, 437.588 
	L 24.094, 437.673 
	L 28.913, 437.813 
	L 33.732, 437.749 
	L 38.551, 438.051 
	L 43.370, 438.515 
	L 48.189, 438.714 
" />
<path d="M 48.189, 438.714 
	L 53.008, 439.013 
	L 57.827, 440.055 
	L 62.646, 439.879 
	L 67.465, 440.378 
	L 72.283, 440.982 
	L 77.102, 441.530 
	L 81.921, 442.046 
	L 86.740, 441.854 
	L 91.559, 442.545 
	L 96.378, 442.931 
	L 101.197, 443.606 
" />
<path d="M 101.197, 443.606 
	L 106.016, 444.538 
	L 110.835, 444.819 
	L 115.654, 445.063 
	L 120.472, 445.326 
	L 125.291, 445.239 
	L 130.110, 445.857 
	L 134.929, 446.315 
	L 139.748, 447.700 
	L 144.567, 447.322 
	L 149.386, 446.940 
" />
<path d="M 149.386, 446.940 
	L 154.205, 447.963 
	L 159.024, 447.374 
	L 163.843, 447.359 
	L 168.661, 447.874 
	L 173.480, 448.316 
	L 178.299, 448.133 
	L 183.118, 447.814 
	L 187.937, 448.217 
" />
<path d="M 0.001, 419.227 
	L 0.000, 419.228 
	L 4.677, 417.649 
	L 9.354, 417.010 
	L 14.031, 416.174 
	L 18.709, 415.928 
	L 23.386, 416.132 
	L 28.063, 416.469 
	L 32.740, 416.315 
	L 37.417, 417.044 
	L 42.094, 418.167 
	L 46.772, 418.650 
" />
<path d="M 46.772, 418.650 
	L 51.449, 419.372 
	L 56.126, 421.892 
	L 60.803, 421.465 
	L 65.480, 422.671 
	L 70.157, 424.130 
	L 74.835, 425.455 
	L 79.512, 426.703 
	L 84.189, 426.237 
	L 88.866, 427.907 
	L 93.543, 428.841 
	L 98.220, 430.472 
" />
<path d="M 98.220, 430.472 
	L 102.898, 432.725 
	L 107.575, 433.404 
	L 112.252, 433.993 
	L 116.929, 434.629 
	L 121.606, 434.418 
	L 126.283, 435.910 
	L 130.961, 437.020 
	L 135.638, 440.367 
	L 140.315, 439.452 
	L 144.992, 438.531 
" />
<path d="M 144.992, 438.531 
	L 149.669, 441.003 
	L 154.346, 439.578 
	L 159.024, 439.542 
	L 163.701, 440.787 
	L 168.378, 441.855 
	L 173.055, 441.413 
	L 177.732, 440.643 
	L 182.409, 441.617 
" />
</g><g style="stroke:rgb(255,0,0); fill:none; stroke-width:0.100mm" >
<path d="M 14.173, 622.205 
	L 14.173, 625.039 
" />
<path d="M 14.173, 623.622 
	L 16.299, 622.205 
	L 17.362, 622.205 
" />
<path d="M 20.551, 623.622 
	L 23.740, 623.622 
	L 24.803, 622.913 
	L 23.740, 622.205 
	L 21.614, 622.205 
	L 20.551, 622.913 
	L 20.551, 624.331 
	L 21.614, 625.039 
	L 24.803, 625.039 
" />
<path d="M 31.181, 624.331 
	L 30.118, 625.039 
	L 29.055, 625.039 
	L 27.992, 624.331 
	L 27.992, 622.913 
	L 29.055, 622.205 
	L 30.118, 622.205 
	L 31.181, 622.913 
" />
<path d="M 34.370, 625.039 
	L 33.307, 624.331 
	L 33.307, 622.913 
	L 34.370, 622.205 
	L 35.433, 622.205 
	L 36.496, 622.913 
	L 36.496, 624.331 
	L 35.433, 625.039 
	L 34.370, 625.039 
" />
<path d="M 39.685, 622.205 
	L 39.685, 625.039 
" />
<path d="M 39.685, 623.622 
	L 41.811, 622.205 
	L 42.874, 622.205 
" />
<path d="M 49.252, 620.787 
	L 49.252, 625.039 
	L 47.126, 625.039 
	L 46.063, 624.331 
	L 46.063, 622.913 
	L 47.126, 622.205 
	L 49.252, 622.205 
" />
<path d="M 49.252, 625.039 
	L 50.315, 625.039 
" />
<path d="M 52.441, 623.622 
	L 55.630, 623.622 
	L 56.693, 622.913 
	L 55.630, 622.205 
	L 53.504, 622.205 
	L 52.441, 622.913 
	L 52.441, 624.331 
	L 53.504, 625.039 
	L 56.693, 625.039 
" />
<path d="M 62.008, 620.787 
	L 62.008, 625.039 
	L 59.882, 625.039 
	L 58.819, 624.331 
	L 58.819, 622.913 
	L 59.882, 622.205 
	L 62.008, 622.205 
" />
<path d="M 62.008, 625.039 
	L 63.071, 625.039 
" />
<path d="M 73.701, 620.787 
	L 73.701, 621.496 
" />
<path d="M 72.638, 622.205 
	L 73.701, 622.205 
	L 73.701, 625.039 
" />
<path d="M 72.638, 625.039 
	L 74.764, 625.039 
" />
<path d="M 77.953, 625.039 
	L 77.953, 622.205 
" />
<path d="M 77.953, 622.913 
	L 79.016, 622.205 
	L 80.079, 622.205 
	L 81.142, 622.913 
	L 81.142, 625.039 
" />
<path d="M 92.835, 625.039 
	L 92.835, 620.787 
	L 90.709, 620.787 
	L 94.961, 620.787 
" />
<path d="M 97.087, 622.205 
	L 97.087, 624.331 
	L 98.150, 625.039 
	L 100.276, 625.039 
	L 100.276, 622.205 
" />
<path d="M 106.654, 622.205 
	L 104.528, 622.205 
	L 103.465, 622.913 
	L 104.528, 623.622 
	L 105.591, 623.622 
	L 106.654, 624.331 
	L 105.591, 625.039 
	L 103.465, 625.039 
" />
<path d="M 109.843, 620.787 
	L 109.843, 625.039 
" />
<path d="M 109.843, 622.205 
	L 111.969, 622.205 
	L 113.032, 622.913 
	L 113.032, 625.039 
" />
<path d="M 116.220, 623.622 
	L 119.409, 623.622 
	L 120.472, 622.913 
	L 119.409, 622.205 
	L 117.283, 622.205 
	L 116.220, 622.913 
	L 116.220, 624.331 
	L 117.283, 625.039 
	L 120.472, 625.039 
" />
<path d="M 123.661, 620.787 
	L 123.661, 625.039 
	L 125.787, 625.039 
" />
<path d="M 122.598, 622.205 
	L 125.787, 622.205 
" />
<path d="M 131.102, 620.787 
	L 131.102, 621.496 
" />
<path d="M 130.039, 622.205 
	L 131.102, 622.205 
	L 131.102, 625.039 
" />
<path d="M 130.039, 625.039 
	L 132.165, 625.039 
" />
<path d="M 137.480, 620.787 
	L 137.480, 621.496 
" />
<path d="M 136.417, 622.205 
	L 137.480, 622.205 
	L 137.480, 625.039 
" />
<path d="M 136.417, 625.039 
	L 138.543, 625.039 
" />
<path d="M 152.362, 621.496 
	L 151.299, 620.787 
	L 149.173, 620.787 
	L 148.110, 621.496 
	L 148.110, 624.331 
	L 149.173, 625.039 
	L 151.299, 625.039 
	L 152.362, 624.331 
	L 152.362, 622.913 
	L 149.173, 622.913 
" />
<path d="M 154.488, 623.622 
	L 157.677, 623.622 
	L 158.740, 622.913 
	L 157.677, 622.205 
	L 155.551, 622.205 
	L 154.488, 622.913 
	L 154.488, 624.331 
	L 155.551, 625.039 
	L 158.740, 625.039 
" />
<path d="M 161.929, 625.039 
	L 160.866, 624.331 
	L 160.866, 622.913 
	L 161.929, 622.205 
	L 162.992, 622.205 
	L 164.055, 622.913 
	L 164.055, 624.331 
	L 162.992, 625.039 
	L 161.929, 625.039 
" />
<path d="M 167.244, 622.205 
	L 167.244, 625.039 
" />
<path d="M 167.244, 623.622 
	L 169.370, 622.205 
	L 170.433, 622.205 
" />
<path d="M 173.622, 626.457 
	L 175.748, 626.457 
	L 176.811, 625.748 
	L 176.811, 622.205 
	L 174.685, 622.205 
	L 173.622, 622.913 
	L 173.622, 624.331 
	L 174.685, 625.039 
	L 176.811, 625.039 
" />
<path d="M 182.126, 620.787 
	L 182.126, 621.496 
" />
<path d="M 181.063, 622.205 
	L 182.126, 622.205 
	L 182.126, 625.039 
" />
<path d="M 181.063, 625.039 
	L 183.189, 625.039 
" />
<path d="M 190.630, 625.039 
	L 187.441, 625.039 
	L 186.378, 624.331 
	L 186.378, 622.913 
	L 187.441, 622.205 
	L 189.567, 622.205 
	L 189.567, 625.039 
" />
<path d="M 14.173, 632.126 
	L 14.173, 627.874 
" />
<path d="M 17.362, 632.126 
	L 14.173, 630.709 
	L 17.362, 629.291 
" />
<path d="M 24.803, 632.126 
	L 21.614, 632.126 
	L 20.551, 631.417 
	L 20.551, 630.000 
	L 21.614, 629.291 
	L 23.740, 629.291 
	L 23.740, 632.126 
" />
<path d="M 27.992, 632.126 
	L 26.929, 631.417 
	L 26.929, 630.000 
	L 27.992, 629.291 
	L 29.055, 629.291 
	L 30.118, 630.000 
	L 30.118, 631.417 
	L 29.055, 632.126 
	L 27.992, 632.126 
" />
<path d="M 34.370, 627.874 
	L 34.370, 632.126 
	L 36.496, 632.126 
" />
<path d="M 33.307, 629.291 
	L 36.496, 629.291 
" />
<path d="M 39.685, 630.709 
	L 42.874, 630.709 
	L 43.937, 630.000 
	L 42.874, 629.291 
	L 40.748, 629.291 
	L 39.685, 630.000 
	L 39.685, 631.417 
	L 40.748, 632.126 
	L 43.937, 632.126 
" />
<path d="M 50.315, 631.417 
	L 49.252, 632.126 
	L 48.189, 632.126 
	L 47.126, 631.417 
	L 47.126, 630.000 
	L 48.189, 629.291 
	L 49.252, 629.291 
	L 50.315, 630.000 
" />
<path d="M 63.071, 632.126 
	L 60.945, 632.126 
	L 60.945, 627.874 
	L 63.071, 627.874 
" />
<path d="M 65.197, 632.126 
	L 67.323, 632.126 
	L 67.323, 627.874 
	L 65.197, 627.874 
" />
<path d="M 74.764, 627.874 
	L 71.575, 630.000 
	L 74.764, 632.126 
" />
<path d="M 77.953, 627.874 
	L 81.142, 630.000 
	L 77.953, 632.126 
" />
<path d="M 90.709, 628.583 
	L 91.772, 627.874 
	L 93.898, 627.874 
	L 94.961, 628.583 
	L 94.961, 629.291 
	L 90.709, 631.417 
	L 90.709, 632.126 
	L 94.961, 632.126 
" />
<path d="M 97.087, 631.417 
	L 98.150, 632.126 
	L 100.276, 632.126 
	L 101.339, 631.417 
	L 101.339, 628.583 
	L 100.276, 627.874 
	L 98.150, 627.874 
	L 97.087, 628.583 
	L 97.087, 631.417 
" />
<path d="M 104.528, 632.126 
	L 106.654, 632.126 
" />
<path d="M 105.591, 632.126 
	L 105.591, 627.874 
	L 104.528, 628.583 
" />
<path d="M 110.906, 632.126 
	L 111.969, 632.126 
	L 114.095, 630.709 
	L 114.095, 628.583 
	L 113.032, 627.874 
	L 110.906, 627.874 
	L 109.843, 628.583 
	L 109.843, 629.291 
	L 110.906, 630.000 
	L 114.095, 630.000 
" />
<path d="M 14.173, 653.386 
	L 17.362, 653.386 
	L 18.425, 652.677 
	L 18.425, 651.260 
	L 17.362, 650.551 
	L 15.236, 650.551 
" />
<path d="M 15.236, 649.134 
	L 15.236, 653.386 
" />
<path d="M 24.803, 653.386 
	L 21.614, 653.386 
	L 20.551, 652.677 
	L 20.551, 651.260 
	L 21.614, 650.551 
	L 23.740, 650.551 
	L 23.740, 653.386 
" />
<path d="M 26.929, 653.386 
	L 26.929, 650.551 
" />
<path d="M 26.929, 651.260 
	L 27.992, 650.551 
	L 29.055, 650.551 
	L 30.118, 651.260 
	L 30.118, 653.386 
" />
<path d="M 36.496, 649.134 
	L 36.496, 653.386 
	L 34.370, 653.386 
	L 33.307, 652.677 
	L 33.307, 651.260 
	L 34.370, 650.551 
	L 36.496, 650.551 
" />
<path d="M 36.496, 653.386 
	L 37.559, 653.386 
" />
<path d="M 43.937, 652.677 
	L 42.874, 653.386 
	L 41.811, 653.386 
	L 40.748, 652.677 
	L 40.748, 651.260 
	L 41.811, 650.551 
	L 42.874, 650.551 
	L 43.937, 651.260 
" />
<path d="M 50.315, 653.386 
	L 47.126, 653.386 
	L 46.063, 652.677 
	L 46.063, 651.260 
	L 47.126, 650.551 
	L 49.252, 650.551 
	L 49.252, 653.386 
" />
<path d="M 52.441, 653.386 
	L 52.441, 650.551 
" />
<path d="M 52.441, 651.260 
	L 53.504, 650.551 
	L 54.567, 651.260 
	L 54.567, 653.386 
" />
<path d="M 54.567, 651.260 
	L 55.630, 650.551 
	L 56.693, 651.260 
	L 56.693, 653.386 
" />
<path d="M 58.819, 654.803 
	L 58.819, 650.551 
	L 60.945, 650.551 
	L 62.008, 651.260 
	L 62.008, 652.677 
	L 60.945, 653.386 
	L 58.819, 653.386 
" />
<path d="M 74.764, 649.134 
	L 74.764, 653.386 
	L 72.638, 653.386 
	L 71.575, 652.677 
	L 71.575, 651.260 
	L 72.638, 650.551 
	L 74.764, 650.551 
" />
<path d="M 74.764, 653.386 
	L 75.827, 653.386 
" />
<path d="M 79.016, 653.386 
	L 77.953, 652.677 
	L 77.953, 651.260 
	L 79.016, 650.551 
	L 80.079, 650.551 
	L 81.142, 651.260 
	L 81.142, 652.677 
	L 80.079, 653.386 
	L 79.016, 653.386 
" />
<path d="M 84.331, 650.551 
	L 84.331, 652.677 
	L 85.394, 653.386 
	L 86.457, 652.677 
	L 86.457, 651.260 
" />
<path d="M 86.457, 652.677 
	L 87.520, 653.386 
	L 88.583, 652.677 
	L 88.583, 650.551 
" />
<path d="M 90.709, 653.386 
	L 90.709, 650.551 
" />
<path d="M 90.709, 651.260 
	L 91.772, 650.551 
	L 92.835, 650.551 
	L 93.898, 651.260 
	L 93.898, 653.386 
" />
<path d="M 98.150, 649.134 
	L 99.213, 649.134 
	L 99.213, 653.386 
" />
<path d="M 98.150, 653.386 
	L 100.276, 653.386 
" />
<path d="M 104.528, 653.386 
	L 103.465, 652.677 
	L 103.465, 651.260 
	L 104.528, 650.551 
	L 105.591, 650.551 
	L 106.654, 651.260 
	L 106.654, 652.677 
	L 105.591, 653.386 
	L 104.528, 653.386 
" />
<path d="M 114.095, 653.386 
	L 110.906, 653.386 
	L 109.843, 652.677 
	L 109.843, 651.260 
	L 110.906, 650.551 
	L 113.032, 650.551 
	L 113.032, 653.386 
" />
<path d="M 119.409, 649.134 
	L 119.409, 653.386 
	L 117.283, 653.386 
	L 116.220, 652.677 
	L 116.220, 651.260 
	L 117.283, 650.551 
	L 119.409, 650.551 
" />
<path d="M 119.409, 653.386 
	L 120.472, 653.386 
" />
<path d="M 126.850, 652.677 
	L 125.787, 653.386 
	L 124.724, 653.386 
	L 123.661, 652.677 
	L 123.661, 651.260 
	L 124.724, 650.551 
	L 125.787, 650.551 
	L 126.850, 651.260 
" />
<path d="M 130.039, 653.386 
	L 128.976, 652.677 
	L 128.976, 651.260 
	L 130.039, 650.551 
	L 131.102, 650.551 
	L 132.165, 651.260 
	L 132.165, 652.677 
	L 131.102, 653.386 
	L 130.039, 653.386 
" />
<path d="M 138.543, 649.134 
	L 138.543, 653.386 
	L 136.417, 653.386 
	L 135.354, 652.677 
	L 135.354, 651.260 
	L 136.417, 650.551 
	L 138.543, 650.551 
" />
<path d="M 138.543, 653.386 
	L 139.606, 653.386 
" />
<path d="M 141.732, 651.969 
	L 144.921, 651.969 
	L 145.984, 651.260 
	L 144.921, 650.551 
	L 142.795, 650.551 
	L 141.732, 651.260 
	L 141.732, 652.677 
	L 142.795, 653.386 
	L 145.984, 653.386 
" />
<path d="M 154.488, 653.386 
	L 158.740, 649.134 
" />
<path d="M 158.740, 653.386 
	L 154.488, 649.134 
" />
<path d="M 160.866, 653.386 
	L 165.118, 649.134 
" />
<path d="M 165.118, 653.386 
	L 160.866, 649.134 
" />
<path d="M 167.244, 653.386 
	L 171.496, 649.134 
" />
<path d="M 171.496, 653.386 
	L 167.244, 649.134 
" />
<path d="M 173.622, 653.386 
	L 177.874, 649.134 
" />
<path d="M 177.874, 653.386 
	L 173.622, 649.134 
" />
<path d="M 180.000, 651.260 
	L 184.252, 651.260 
" />
<path d="M 186.378, 653.386 
	L 190.630, 649.134 
" />
<path d="M 190.630, 653.386 
	L 186.378, 649.134 
" />
<path d="M 192.756, 653.386 
	L 197.008, 649.134 
" />
<path d="M 197.008, 653.386 
	L 192.756, 649.134 
" />
<path d="M 199.134, 653.386 
	L 203.386, 649.134 
" />
<path d="M 203.386, 653.386 
	L 199.134, 649.134 
" />
<path d="M 205.512, 653.386 
	L 209.764, 649.134 
" />
<path d="M 209.764, 653.386 
	L 205.512, 649.134 
" />
<path d="M 17.717, 238.818 
	L 17.717, 238.819 
	L 17.717, 237.472 
	L 37.382, 237.472 
	L 37.382, 238.819 
	L 17.717, 238.819 
	L 17.717, 233.823 
	L 17.717, 232.476 
	L 37.382, 232.476 
	L 37.382, 233.823 
	L 17.717, 233.823 
	L 17.717, 231.095 
" />
<path d="M 17.717, 231.095 
	L 17.717, 229.748 
	L 37.382, 229.748 
	L 37.382, 231.095 
	L 17.717, 231.095 
" />
<path d="M 37.666, 238.818 
	L 37.665, 238.819 
	L 37.665, 229.748 
	L 39.366, 229.748 
	L 39.366, 238.819 
	L 37.665, 238.819 
" />
<path d="M 39.367, 238.818 
	L 39.366, 238.819 
	L 39.366, 232.016 
	L 51.626, 232.016 
	L 51.626, 233.362 
	L 41.067, 233.362 
	L 41.067, 234.744 
	L 51.626, 234.744 
	L 51.626, 236.091 
	L 41.067, 236.091 
	L 41.067, 238.819 
	L 39.366, 238.819 
" />
<path d="M 39.366, 238.819 
" />
<path d="M 62.257, 234.743 
	L 62.256, 234.744 
	L 62.256, 233.362 
	L 52.902, 233.362 
	L 52.902, 234.744 
	L 62.256, 234.744 
	L 51.343, 238.819 
	L 51.343, 232.016 
	L 63.815, 232.016 
	L 63.815, 236.091 
	L 52.902, 236.091 
	L 52.902, 237.472 
" />
<path d="M 52.902, 237.472 
	L 63.815, 237.472 
	L 63.815, 238.819 
	L 51.343, 238.819 
" />
<path d="M 64.099, 238.818 
	L 64.098, 238.819 
	L 64.098, 232.016 
	L 77.138, 232.016 
	L 77.138, 238.819 
	L 75.437, 238.819 
	L 75.437, 233.362 
	L 65.799, 233.362 
	L 65.799, 238.819 
	L 64.098, 238.819 
" />
<path d="M 77.139, 239.279 
	L 77.138, 239.280 
	L 77.138, 229.748 
	L 78.839, 229.748 
	L 78.839, 237.224 
	L 88.193, 233.150 
	L 97.547, 237.224 
	L 97.547, 229.748 
	L 99.248, 229.748 
	L 99.248, 239.280 
	L 88.193, 234.496 
	L 77.138, 239.280 
" />
<path d="M 77.138, 239.280 
" />
<path d="M 110.587, 237.472 
	L 110.587, 237.472 
	L 110.587, 233.362 
	L 108.319, 233.362 
	L 103.783, 237.472 
	L 110.587, 237.472 
	L 99.992, 238.819 
	L 106.051, 233.362 
	L 99.992, 233.362 
	L 99.992, 232.016 
	L 112.287, 232.016 
" />
<path d="M 112.287, 232.016 
	L 112.287, 238.819 
	L 99.992, 238.819 
" />
<path d="M 111.544, 238.818 
	L 111.543, 238.819 
	L 111.543, 232.016 
	L 124.583, 232.016 
	L 124.583, 238.819 
	L 122.882, 238.819 
	L 122.882, 233.362 
	L 113.244, 233.362 
	L 113.244, 238.819 
	L 111.543, 238.819 
" />
<path d="M 135.922, 237.472 
	L 135.921, 237.472 
	L 135.921, 233.362 
	L 126.283, 233.362 
	L 126.283, 237.472 
	L 135.921, 237.472 
	L 124.583, 238.819 
	L 124.583, 232.016 
	L 135.921, 232.016 
	L 135.921, 229.748 
	L 137.622, 229.748 
" />
<path d="M 137.622, 229.748 
	L 137.622, 238.819 
	L 124.583, 238.819 
" />
<path d="M 148.253, 234.743 
	L 148.252, 234.744 
	L 148.252, 233.362 
	L 138.898, 233.362 
	L 138.898, 234.744 
	L 148.252, 234.744 
	L 137.339, 238.819 
	L 137.339, 232.016 
	L 149.811, 232.016 
	L 149.811, 236.091 
	L 138.898, 236.091 
" />
<path d="M 138.898, 236.091 
	L 138.898, 237.472 
	L 149.811, 237.472 
	L 149.811, 238.819 
	L 137.339, 238.819 
" />
<path d="M 150.095, 238.818 
	L 150.095, 238.819 
	L 150.095, 232.016 
	L 162.354, 232.016 
	L 162.354, 233.362 
	L 151.795, 233.362 
	L 151.795, 238.819 
	L 150.095, 238.819 
" />
<path d="M 36.320, 255.188 
	L 36.319, 255.189 
	L 28.772, 248.811 
	L 19.701, 248.811 
	L 19.701, 255.189 
	L 36.319, 255.189 
	L 18.000, 256.535 
	L 18.000, 247.465 
	L 29.516, 247.465 
	L 40.110, 256.535 
	L 18.000, 256.535 
" />
<path d="M 40.111, 256.535 
	L 40.110, 256.535 
	L 40.110, 249.732 
	L 41.811, 249.732 
	L 41.811, 256.535 
	L 40.110, 256.535 
	L 40.110, 248.811 
	L 40.110, 247.465 
	L 41.811, 247.465 
	L 41.811, 248.811 
	L 40.110, 248.811 
" />
<path d="M 41.528, 256.535 
	L 41.528, 256.535 
	L 41.528, 255.189 
	L 52.441, 255.189 
	L 52.441, 253.807 
	L 41.528, 253.807 
	L 41.528, 249.732 
	L 54.000, 249.732 
	L 54.000, 251.079 
	L 43.087, 251.079 
	L 43.087, 252.461 
	L 54.000, 252.461 
" />
<path d="M 54.000, 252.461 
	L 54.000, 256.535 
	L 41.528, 256.535 
" />
<path d="M 54.284, 256.535 
	L 54.283, 256.535 
	L 54.283, 247.465 
	L 55.984, 247.465 
	L 55.984, 249.732 
	L 66.543, 249.732 
	L 66.543, 251.079 
	L 55.984, 251.079 
	L 55.984, 255.189 
	L 66.543, 255.189 
	L 66.543, 256.535 
	L 54.283, 256.535 
" />
<path d="M 54.283, 256.535 
" />
<path d="M 66.544, 256.535 
	L 66.543, 256.535 
	L 66.543, 249.732 
	L 78.803, 249.732 
	L 78.803, 251.079 
	L 68.244, 251.079 
	L 68.244, 256.535 
	L 66.543, 256.535 
" />
<path d="M 89.434, 252.460 
	L 89.433, 252.461 
	L 89.433, 251.079 
	L 80.079, 251.079 
	L 80.079, 252.461 
	L 89.433, 252.461 
	L 78.520, 256.535 
	L 78.520, 249.732 
	L 90.992, 249.732 
	L 90.992, 253.807 
	L 80.079, 253.807 
	L 80.079, 255.189 
" />
<path d="M 80.079, 255.189 
	L 90.992, 255.189 
	L 90.992, 256.535 
	L 78.520, 256.535 
" />
<path d="M 90.993, 256.535 
	L 90.992, 256.535 
	L 90.992, 255.189 
	L 101.906, 255.189 
	L 101.906, 253.807 
	L 90.992, 253.807 
	L 90.992, 249.732 
	L 103.465, 249.732 
	L 103.465, 251.079 
	L 92.551, 251.079 
	L 92.551, 252.461 
" />
<path d="M 92.551, 252.461 
	L 103.465, 252.461 
	L 103.465, 256.535 
	L 90.992, 256.535 
" />
<path d="M 103.465, 256.535 
	L 103.465, 256.535 
	L 103.465, 255.189 
	L 114.378, 255.189 
	L 114.378, 253.807 
	L 103.465, 253.807 
	L 103.465, 249.732 
	L 115.937, 249.732 
	L 115.937, 251.079 
	L 105.024, 251.079 
	L 105.024, 252.461 
" />
<path d="M 105.024, 252.461 
	L 115.937, 252.461 
	L 115.937, 256.535 
	L 103.465, 256.535 
" />
<path d="M 116.221, 256.535 
	L 116.220, 256.535 
	L 116.220, 250.193 
	L 136.063, 250.193 
	L 136.063, 251.539 
	L 117.921, 251.539 
	L 117.921, 256.535 
	L 116.220, 256.535 
	L 116.220, 248.811 
	L 116.220, 247.465 
	L 136.063, 247.465 
" />
<path d="M 136.063, 247.465 
	L 136.063, 248.811 
	L 116.220, 248.811 
" />
<path d="M 136.064, 256.535 
	L 136.063, 256.535 
	L 136.063, 249.732 
	L 148.323, 249.732 
	L 148.323, 251.079 
	L 137.764, 251.079 
	L 137.764, 256.535 
	L 136.063, 256.535 
" />
<path d="M 158.953, 252.460 
	L 158.953, 252.461 
	L 158.953, 251.079 
	L 149.598, 251.079 
	L 149.598, 252.461 
	L 158.953, 252.461 
	L 148.039, 256.535 
	L 148.039, 249.732 
	L 160.512, 249.732 
	L 160.512, 253.807 
	L 149.598, 253.807 
" />
<path d="M 149.598, 253.807 
	L 149.598, 255.189 
	L 160.512, 255.189 
	L 160.512, 256.535 
	L 148.039, 256.535 
" />
<path d="M 172.135, 255.188 
	L 172.134, 255.189 
	L 172.134, 251.079 
	L 162.496, 251.079 
	L 162.496, 255.189 
	L 172.134, 255.189 
	L 172.134, 258.803 
	L 172.134, 256.535 
	L 160.795, 256.535 
	L 160.795, 249.732 
	L 173.835, 249.732 
" />
<path d="M 173.835, 249.732 
	L 173.835, 258.803 
	L 172.134, 258.803 
" />
<path d="M 173.835, 256.535 
	L 173.835, 256.535 
	L 173.835, 249.732 
	L 175.535, 249.732 
	L 175.535, 255.189 
	L 185.173, 255.189 
	L 185.173, 249.732 
	L 186.874, 249.732 
	L 186.874, 256.535 
	L 173.835, 256.535 
" />
<path d="M 197.505, 252.460 
	L 197.504, 252.461 
	L 197.504, 251.079 
	L 188.150, 251.079 
	L 188.150, 252.461 
	L 197.504, 252.461 
	L 186.591, 256.535 
	L 186.591, 249.732 
	L 199.063, 249.732 
	L 199.063, 253.807 
	L 188.150, 253.807 
" />
<path d="M 188.150, 253.807 
	L 188.150, 255.189 
	L 199.063, 255.189 
	L 199.063, 256.535 
	L 186.591, 256.535 
" />
<path d="M 199.347, 256.535 
	L 199.346, 256.535 
	L 199.346, 249.732 
	L 212.386, 249.732 
	L 212.386, 256.535 
	L 210.685, 256.535 
	L 210.685, 251.079 
	L 201.047, 251.079 
	L 201.047, 256.535 
	L 199.346, 256.535 
" />
<path d="M 212.387, 256.535 
	L 212.386, 256.535 
	L 212.386, 249.732 
	L 224.646, 249.732 
	L 224.646, 251.079 
	L 214.087, 251.079 
	L 214.087, 255.189 
	L 224.646, 255.189 
	L 224.646, 256.535 
	L 212.386, 256.535 
" />
<path d="M 225.391, 258.802 
	L 225.390, 258.803 
	L 225.390, 257.421 
	L 235.984, 257.421 
	L 235.984, 256.535 
	L 232.937, 256.535 
	L 225.390, 249.732 
	L 227.658, 249.732 
	L 233.717, 255.189 
	L 235.984, 255.189 
	L 235.984, 249.732 
" />
<path d="M 235.984, 249.732 
	L 237.685, 249.732 
	L 237.685, 258.803 
	L 225.390, 258.803 
" />
<path d="M 27.072, 274.251 
	L 27.071, 274.252 
	L 27.071, 266.528 
	L 17.256, 266.528 
	L 17.256, 265.181 
	L 38.587, 265.181 
	L 38.587, 266.528 
	L 28.772, 266.528 
	L 28.772, 274.252 
	L 27.071, 274.252 
" />
<path d="M 39.331, 274.251 
	L 39.331, 274.252 
	L 39.331, 265.181 
	L 41.032, 265.181 
	L 41.032, 267.449 
	L 52.370, 267.449 
	L 52.370, 274.252 
	L 50.669, 274.252 
	L 50.669, 268.795 
	L 41.032, 268.795 
	L 41.032, 274.252 
	L 39.331, 274.252 
" />
<path d="M 39.331, 274.252 
" />
<path d="M 63.001, 270.177 
	L 63.000, 270.177 
	L 63.000, 268.795 
	L 53.646, 268.795 
	L 53.646, 270.177 
	L 63.000, 270.177 
	L 52.087, 274.252 
	L 52.087, 267.449 
	L 64.559, 267.449 
	L 64.559, 271.524 
	L 53.646, 271.524 
	L 53.646, 272.906 
" />
<path d="M 53.646, 272.906 
	L 64.559, 272.906 
	L 64.559, 274.252 
	L 52.087, 274.252 
" />
<path d="M 64.560, 274.251 
	L 64.559, 274.252 
	L 64.559, 272.906 
	L 84.224, 272.906 
	L 84.224, 274.252 
	L 64.559, 274.252 
	L 64.559, 269.256 
	L 64.559, 267.909 
	L 84.224, 267.909 
	L 84.224, 269.256 
	L 64.559, 269.256 
	L 64.559, 266.528 
" />
<path d="M 64.559, 266.528 
	L 64.559, 265.181 
	L 84.224, 265.181 
	L 84.224, 266.528 
	L 64.559, 266.528 
" />
<path d="M 95.847, 272.905 
	L 95.846, 272.906 
	L 95.846, 268.795 
	L 86.209, 268.795 
	L 86.209, 272.906 
	L 95.846, 272.906 
	L 84.508, 274.252 
	L 84.508, 267.449 
	L 95.846, 267.449 
	L 95.846, 265.181 
	L 97.547, 265.181 
	L 97.547, 274.252 
" />
<path d="M 97.547, 274.252 
	L 84.508, 274.252 
" />
<path d="M 108.887, 272.905 
	L 108.886, 272.906 
	L 108.886, 268.795 
	L 99.248, 268.795 
	L 99.248, 272.906 
	L 108.886, 272.906 
	L 97.547, 276.520 
	L 97.547, 275.138 
	L 108.886, 275.138 
	L 108.886, 274.252 
	L 97.547, 274.252 
" />
<path d="M 97.547, 274.252 
	L 97.547, 267.449 
	L 110.587, 267.449 
	L 110.587, 276.520 
	L 97.547, 276.520 
" />
<path d="M 121.217, 270.177 
	L 121.217, 270.177 
	L 121.217, 268.795 
	L 111.862, 268.795 
	L 111.862, 270.177 
	L 121.217, 270.177 
	L 110.303, 274.252 
	L 110.303, 267.449 
	L 122.776, 267.449 
	L 122.776, 271.524 
	L 111.862, 271.524 
" />
<path d="M 111.862, 271.524 
	L 111.862, 272.906 
	L 122.776, 272.906 
	L 122.776, 274.252 
	L 110.303, 274.252 
" />
<path d="M 143.469, 272.905 
	L 143.469, 272.906 
	L 143.469, 266.528 
	L 124.760, 266.528 
	L 124.760, 272.906 
	L 143.469, 272.906 
	L 123.059, 274.252 
	L 123.059, 265.181 
	L 145.169, 265.181 
	L 145.169, 274.252 
	L 123.059, 274.252 
" />
<path d="M 123.059, 274.252 
" />
<path d="M 145.170, 274.251 
	L 145.169, 274.252 
	L 145.169, 267.449 
	L 157.429, 267.449 
	L 157.429, 268.795 
	L 146.870, 268.795 
	L 146.870, 270.177 
	L 157.429, 270.177 
	L 157.429, 271.524 
	L 146.870, 271.524 
	L 146.870, 274.252 
" />
<path d="M 146.870, 274.252 
	L 145.169, 274.252 
" />
<path d="M 157.430, 274.712 
	L 157.429, 274.713 
	L 157.429, 265.181 
	L 159.130, 265.181 
	L 159.130, 272.658 
	L 168.484, 268.583 
	L 177.839, 272.658 
	L 177.839, 265.181 
	L 179.539, 265.181 
	L 179.539, 274.713 
	L 168.484, 269.929 
" />
<path d="M 168.484, 269.929 
	L 157.429, 274.713 
" />
<path d="M 179.540, 274.251 
	L 179.539, 274.252 
	L 179.539, 265.181 
	L 181.240, 265.181 
	L 181.240, 267.449 
	L 192.579, 267.449 
	L 192.579, 274.252 
	L 190.878, 274.252 
	L 190.878, 268.795 
	L 181.240, 268.795 
	L 181.240, 274.252 
" />
<path d="M 181.240, 274.252 
	L 179.539, 274.252 
" />
<path d="M 203.918, 272.905 
	L 203.917, 272.906 
	L 203.917, 268.795 
	L 201.650, 268.795 
	L 197.114, 272.906 
	L 203.917, 272.906 
	L 193.323, 274.252 
	L 199.382, 268.795 
	L 193.323, 268.795 
	L 193.323, 267.449 
	L 205.618, 267.449 
" />
<path d="M 205.618, 267.449 
	L 205.618, 274.252 
	L 193.323, 274.252 
" />
<path d="M 204.875, 274.251 
	L 204.874, 274.252 
	L 204.874, 265.181 
	L 206.575, 265.181 
	L 206.575, 267.449 
	L 217.134, 267.449 
	L 217.134, 268.795 
	L 206.575, 268.795 
	L 206.575, 272.906 
	L 217.134, 272.906 
	L 217.134, 274.252 
" />
<path d="M 217.134, 274.252 
	L 204.874, 274.252 
" />
<path d="M 217.135, 274.251 
	L 217.134, 274.252 
	L 217.134, 265.181 
	L 218.835, 265.181 
	L 218.835, 274.252 
	L 217.134, 274.252 
" />
<path d="M 218.552, 274.251 
	L 218.551, 274.252 
	L 218.551, 272.906 
	L 229.465, 272.906 
	L 229.465, 271.524 
	L 218.551, 271.524 
	L 218.551, 267.449 
	L 231.024, 267.449 
	L 231.024, 268.795 
	L 220.110, 268.795 
	L 220.110, 270.177 
" />
<path d="M 220.110, 270.177 
	L 231.024, 270.177 
	L 231.024, 274.252 
	L 218.551, 274.252 
" />
<path d="M 17.717, 284.881 
	L 17.717, 284.882 
	L 28.311, 275.350 
	L 38.870, 284.882 
	L 36.602, 284.882 
	L 28.311, 277.370 
	L 19.984, 284.882 
	L 17.717, 284.882 
" />
<path d="M 50.493, 283.535 
	L 50.492, 283.535 
	L 50.492, 279.425 
	L 40.854, 279.425 
	L 40.854, 283.535 
	L 50.492, 283.535 
	L 39.154, 284.882 
	L 39.154, 278.079 
	L 50.492, 278.079 
	L 50.492, 275.811 
	L 52.193, 275.811 
	L 52.193, 284.882 
" />
<path d="M 52.193, 284.882 
	L 39.154, 284.882 
" />
<path d="M 52.194, 284.881 
	L 52.193, 284.882 
	L 52.193, 278.079 
	L 62.965, 278.079 
	L 62.965, 284.882 
	L 61.264, 284.882 
	L 61.264, 279.425 
	L 58.429, 279.425 
	L 58.429, 284.882 
	L 56.728, 284.882 
	L 56.728, 279.425 
	L 53.894, 279.425 
" />
<path d="M 53.894, 279.425 
	L 53.894, 284.882 
	L 52.193, 284.882 
" />
<path d="M 62.965, 284.881 
	L 62.965, 284.882 
	L 62.965, 278.079 
	L 64.665, 278.079 
	L 64.665, 284.882 
	L 62.965, 284.882 
	L 62.965, 277.158 
	L 62.965, 275.811 
	L 64.665, 275.811 
	L 64.665, 277.158 
	L 62.965, 277.158 
" />
<path d="M 64.666, 284.881 
	L 64.665, 284.882 
	L 64.665, 278.079 
	L 77.705, 278.079 
	L 77.705, 284.882 
	L 76.004, 284.882 
	L 76.004, 279.425 
	L 66.366, 279.425 
	L 66.366, 284.882 
	L 64.665, 284.882 
" />
<path d="M 77.705, 284.881 
	L 77.705, 284.882 
	L 77.705, 278.079 
	L 79.406, 278.079 
	L 79.406, 284.882 
	L 77.705, 284.882 
	L 77.705, 277.158 
	L 77.705, 275.811 
	L 79.406, 275.811 
	L 79.406, 277.158 
	L 77.705, 277.158 
" />
<path d="M 79.123, 284.881 
	L 79.122, 284.882 
	L 79.122, 283.535 
	L 90.035, 283.535 
	L 90.035, 282.154 
	L 79.122, 282.154 
	L 79.122, 278.079 
	L 91.595, 278.079 
	L 91.595, 279.425 
	L 80.681, 279.425 
	L 80.681, 280.807 
	L 91.595, 280.807 
" />
<path d="M 91.595, 280.807 
	L 91.595, 284.882 
	L 79.122, 284.882 
" />
<path d="M 91.879, 284.881 
	L 91.878, 284.882 
	L 91.878, 275.811 
	L 93.579, 275.811 
	L 93.579, 278.079 
	L 104.138, 278.079 
	L 104.138, 279.425 
	L 93.579, 279.425 
	L 93.579, 283.535 
	L 104.138, 283.535 
	L 104.138, 284.882 
" />
<path d="M 104.138, 284.882 
	L 91.878, 284.882 
" />
<path d="M 104.139, 284.881 
	L 104.138, 284.882 
	L 104.138, 278.079 
	L 116.398, 278.079 
	L 116.398, 279.425 
	L 105.839, 279.425 
	L 105.839, 284.882 
	L 104.138, 284.882 
" />
<path d="M 127.737, 283.535 
	L 127.736, 283.535 
	L 127.736, 279.425 
	L 125.469, 279.425 
	L 120.933, 283.535 
	L 127.736, 283.535 
	L 117.142, 284.882 
	L 123.201, 279.425 
	L 117.142, 279.425 
	L 117.142, 278.079 
	L 129.437, 278.079 
" />
<path d="M 129.437, 278.079 
	L 129.437, 284.882 
	L 117.142, 284.882 
" />
<path d="M 128.694, 284.881 
	L 128.693, 284.882 
	L 128.693, 275.811 
	L 130.394, 275.811 
	L 130.394, 278.079 
	L 140.953, 278.079 
	L 140.953, 279.425 
	L 130.394, 279.425 
	L 130.394, 283.535 
	L 140.953, 283.535 
	L 140.953, 284.882 
" />
<path d="M 140.953, 284.882 
	L 128.693, 284.882 
" />
<path d="M 140.953, 284.881 
	L 140.953, 284.882 
	L 140.953, 278.079 
	L 142.654, 278.079 
	L 142.654, 284.882 
	L 140.953, 284.882 
	L 140.953, 277.158 
	L 140.953, 275.811 
	L 142.654, 275.811 
	L 142.654, 277.158 
	L 140.953, 277.158 
" />
<path d="M 140.953, 277.158 
" />
<path d="M 142.654, 284.881 
	L 142.654, 284.882 
	L 142.654, 278.079 
	L 144.354, 278.079 
	L 144.354, 283.535 
	L 146.622, 283.535 
	L 152.646, 278.079 
	L 154.913, 278.079 
	L 147.366, 284.882 
	L 142.654, 284.882 
" />
<path d="M 165.544, 280.806 
	L 165.543, 280.807 
	L 165.543, 279.425 
	L 156.189, 279.425 
	L 156.189, 280.807 
	L 165.543, 280.807 
	L 154.630, 284.882 
	L 154.630, 278.079 
	L 167.102, 278.079 
	L 167.102, 282.154 
	L 156.189, 282.154 
" />
<path d="M 156.189, 282.154 
	L 156.189, 283.535 
	L 167.102, 283.535 
	L 167.102, 284.882 
	L 154.630, 284.882 
" />
<path d="M 167.387, 284.881 
	L 167.386, 284.882 
	L 167.386, 275.811 
	L 169.087, 275.811 
	L 169.087, 284.882 
	L 167.386, 284.882 
" />
<path d="M 169.831, 287.149 
	L 169.831, 287.150 
	L 169.831, 285.768 
	L 180.425, 285.768 
	L 180.425, 284.882 
	L 177.378, 284.882 
	L 169.831, 278.079 
	L 172.098, 278.079 
	L 178.158, 283.535 
	L 180.425, 283.535 
	L 180.425, 278.079 
" />
<path d="M 180.425, 278.079 
	L 182.126, 278.079 
	L 182.126, 287.150 
	L 169.831, 287.150 
" />
<path d="M 18.001, 295.511 
	L 18.000, 295.512 
	L 18.000, 289.169 
	L 32.528, 289.169 
	L 35.575, 287.787 
	L 18.000, 287.787 
	L 18.000, 286.441 
	L 39.331, 286.441 
	L 33.307, 290.516 
	L 19.701, 290.516 
	L 19.701, 295.512 
	L 18.000, 295.512 
" />
<path d="M 18.000, 295.512 
" />
<path d="M 50.670, 294.165 
	L 50.669, 294.165 
	L 50.669, 290.055 
	L 41.032, 290.055 
	L 41.032, 294.165 
	L 50.669, 294.165 
	L 39.331, 295.512 
	L 39.331, 288.709 
	L 52.370, 288.709 
	L 52.370, 295.512 
	L 39.331, 295.512 
" />
<path d="M 52.087, 295.511 
	L 52.087, 295.512 
	L 52.087, 294.165 
	L 63.000, 294.165 
	L 63.000, 292.784 
	L 52.087, 292.784 
	L 52.087, 288.709 
	L 64.559, 288.709 
	L 64.559, 290.055 
	L 53.646, 290.055 
	L 53.646, 291.437 
	L 64.559, 291.437 
" />
<path d="M 64.559, 291.437 
	L 64.559, 295.512 
	L 52.087, 295.512 
" />
<path d="M 64.560, 295.511 
	L 64.559, 295.512 
	L 64.559, 294.165 
	L 75.472, 294.165 
	L 75.472, 292.784 
	L 64.559, 292.784 
	L 64.559, 288.709 
	L 77.032, 288.709 
	L 77.032, 290.055 
	L 66.118, 290.055 
	L 66.118, 291.437 
	L 77.032, 291.437 
" />
<path d="M 77.032, 291.437 
	L 77.032, 295.512 
	L 64.559, 295.512 
" />
<path d="M 77.316, 295.511 
	L 77.315, 295.512 
	L 77.315, 288.709 
	L 79.016, 288.709 
	L 79.016, 295.512 
	L 77.315, 295.512 
	L 77.315, 287.787 
	L 77.315, 286.441 
	L 79.016, 286.441 
	L 79.016, 287.787 
	L 77.315, 287.787 
" />
<path d="M 90.355, 294.165 
	L 90.354, 294.165 
	L 90.354, 290.055 
	L 80.717, 290.055 
	L 80.717, 294.165 
	L 90.354, 294.165 
	L 79.016, 295.512 
	L 79.016, 286.441 
	L 80.717, 286.441 
	L 80.717, 288.709 
	L 92.055, 288.709 
	L 92.055, 295.512 
" />
<path d="M 92.055, 295.512 
	L 79.016, 295.512 
" />
<path d="M 92.056, 295.511 
	L 92.055, 295.512 
	L 92.055, 286.441 
	L 93.756, 286.441 
	L 93.756, 295.512 
	L 92.055, 295.512 
" />
<path d="M 104.387, 291.436 
	L 104.386, 291.437 
	L 104.386, 290.055 
	L 95.032, 290.055 
	L 95.032, 291.437 
	L 104.386, 291.437 
	L 93.472, 295.512 
	L 93.472, 288.709 
	L 105.945, 288.709 
	L 105.945, 292.784 
	L 95.032, 292.784 
" />
<path d="M 95.032, 292.784 
	L 95.032, 294.165 
	L 105.945, 294.165 
	L 105.945, 295.512 
	L 93.472, 295.512 
" />
<path d="M 18.001, 313.228 
	L 18.000, 313.228 
	L 18.000, 311.882 
	L 38.409, 311.882 
	L 38.409, 308.232 
	L 18.000, 308.232 
	L 18.000, 304.158 
	L 40.110, 304.158 
	L 40.110, 305.504 
	L 19.701, 305.504 
	L 19.701, 306.886 
	L 40.110, 306.886 
" />
<path d="M 40.110, 306.886 
	L 40.110, 313.228 
	L 18.000, 313.228 
" />
<path d="M 40.111, 313.228 
	L 40.110, 313.228 
	L 40.110, 306.425 
	L 41.811, 306.425 
	L 41.811, 313.228 
	L 40.110, 313.228 
	L 40.110, 305.504 
	L 40.110, 304.158 
	L 41.811, 304.158 
	L 41.811, 305.504 
	L 40.110, 305.504 
" />
<path d="M 41.812, 313.228 
	L 41.811, 313.228 
	L 41.811, 306.425 
	L 54.850, 306.425 
	L 54.850, 313.228 
	L 53.150, 313.228 
	L 53.150, 307.772 
	L 43.512, 307.772 
	L 43.512, 313.228 
	L 41.811, 313.228 
" />
<path d="M 65.481, 309.153 
	L 65.480, 309.154 
	L 65.480, 307.772 
	L 56.126, 307.772 
	L 56.126, 309.154 
	L 65.480, 309.154 
	L 54.567, 313.228 
	L 54.567, 306.425 
	L 67.039, 306.425 
	L 67.039, 310.500 
	L 56.126, 310.500 
	L 56.126, 311.882 
" />
<path d="M 56.126, 311.882 
	L 67.039, 311.882 
	L 67.039, 313.228 
	L 54.567, 313.228 
" />
<path d="M 67.324, 313.228 
	L 67.323, 313.228 
	L 67.323, 304.158 
	L 88.654, 304.158 
	L 84.118, 308.091 
	L 83.374, 308.728 
	L 88.654, 313.228 
	L 86.386, 313.228 
	L 81.106, 308.728 
	L 84.898, 305.504 
	L 69.024, 305.504 
	L 69.024, 313.228 
" />
<path d="M 69.024, 313.228 
	L 67.323, 313.228 
" />
<path d="M 99.993, 311.881 
	L 99.992, 311.882 
	L 99.992, 307.772 
	L 97.724, 307.772 
	L 93.189, 311.882 
	L 99.992, 311.882 
	L 89.398, 313.228 
	L 95.457, 307.772 
	L 89.398, 307.772 
	L 89.398, 306.425 
	L 101.693, 306.425 
	L 101.693, 313.228 
" />
<path d="M 101.693, 313.228 
	L 89.398, 313.228 
" />
<path d="M 100.950, 313.228 
	L 100.949, 313.228 
	L 100.949, 306.425 
	L 102.650, 306.425 
	L 102.650, 311.882 
	L 104.917, 311.882 
	L 110.941, 306.425 
	L 113.209, 306.425 
	L 105.661, 313.228 
	L 100.949, 313.228 
" />
<path d="M 123.839, 309.153 
	L 123.839, 309.154 
	L 123.839, 307.772 
	L 114.484, 307.772 
	L 114.484, 309.154 
	L 123.839, 309.154 
	L 112.925, 313.228 
	L 112.925, 306.425 
	L 125.398, 306.425 
	L 125.398, 310.500 
	L 114.484, 310.500 
" />
<path d="M 114.484, 310.500 
	L 114.484, 311.882 
	L 125.398, 311.882 
	L 125.398, 313.228 
	L 112.925, 313.228 
" />
<path d="M 18.001, 330.944 
	L 18.000, 330.945 
	L 18.000, 324.602 
	L 32.528, 324.602 
	L 35.575, 323.221 
	L 18.000, 323.221 
	L 18.000, 321.874 
	L 39.331, 321.874 
	L 33.307, 325.949 
	L 19.701, 325.949 
	L 19.701, 330.945 
	L 18.000, 330.945 
" />
<path d="M 18.000, 330.945 
" />
<path d="M 50.670, 329.598 
	L 50.669, 329.598 
	L 50.669, 325.488 
	L 48.402, 325.488 
	L 43.866, 329.598 
	L 50.669, 329.598 
	L 40.075, 330.945 
	L 46.134, 325.488 
	L 40.075, 325.488 
	L 40.075, 324.142 
	L 52.370, 324.142 
	L 52.370, 330.945 
" />
<path d="M 52.370, 330.945 
	L 40.075, 330.945 
" />
<path d="M 51.627, 330.944 
	L 51.626, 330.945 
	L 51.626, 321.874 
	L 53.327, 321.874 
	L 53.327, 330.945 
	L 51.626, 330.945 
" />
<path d="M 64.666, 329.598 
	L 64.665, 329.598 
	L 64.665, 325.488 
	L 55.028, 325.488 
	L 55.028, 329.598 
	L 64.665, 329.598 
	L 53.327, 330.945 
	L 53.327, 324.142 
	L 66.366, 324.142 
	L 66.366, 330.945 
	L 53.327, 330.945 
" />
<path d="M 66.367, 330.944 
	L 66.366, 330.945 
	L 66.366, 324.142 
	L 79.406, 324.142 
	L 79.406, 330.945 
	L 77.705, 330.945 
	L 77.705, 325.488 
	L 68.067, 325.488 
	L 68.067, 330.945 
	L 66.366, 330.945 
" />
<path d="M 90.745, 329.598 
	L 90.744, 329.598 
	L 90.744, 325.488 
	L 81.106, 325.488 
	L 81.106, 329.598 
	L 90.744, 329.598 
	L 79.406, 330.945 
	L 79.406, 324.142 
	L 92.445, 324.142 
	L 92.445, 330.945 
	L 79.406, 330.945 
" />
<path d="M 103.784, 329.598 
	L 103.783, 329.598 
	L 103.783, 325.488 
	L 94.146, 325.488 
	L 94.146, 329.598 
	L 103.783, 329.598 
	L 92.445, 333.213 
	L 92.445, 324.142 
	L 105.484, 324.142 
	L 105.484, 330.945 
	L 94.146, 330.945 
" />
<path d="M 94.146, 330.945 
	L 94.146, 333.213 
	L 92.445, 333.213 
" />
<path d="M 105.202, 330.944 
	L 105.201, 330.945 
	L 105.201, 329.598 
	L 116.114, 329.598 
	L 116.114, 328.217 
	L 105.201, 328.217 
	L 105.201, 324.142 
	L 117.673, 324.142 
	L 117.673, 325.488 
	L 106.760, 325.488 
	L 106.760, 326.870 
" />
<path d="M 106.760, 326.870 
	L 117.673, 326.870 
	L 117.673, 330.945 
	L 105.201, 330.945 
" />
<path d="M 117.957, 330.944 
	L 117.957, 330.945 
	L 117.957, 324.142 
	L 119.657, 324.142 
	L 119.657, 330.945 
	L 117.957, 330.945 
	L 117.957, 323.221 
	L 117.957, 321.874 
	L 119.657, 321.874 
	L 119.657, 323.221 
	L 117.957, 323.221 
" />
<path d="M 117.957, 323.221 
" />
<path d="M 130.997, 329.598 
	L 130.996, 329.598 
	L 130.996, 325.488 
	L 128.728, 325.488 
	L 124.193, 329.598 
	L 130.996, 329.598 
	L 120.402, 330.945 
	L 126.461, 325.488 
	L 120.402, 325.488 
	L 120.402, 324.142 
	L 132.697, 324.142 
" />
<path d="M 132.697, 324.142 
	L 132.697, 330.945 
	L 120.402, 330.945 
" />
<path d="M 18.001, 348.661 
	L 18.000, 348.661 
	L 18.000, 339.130 
	L 29.055, 343.878 
	L 40.110, 339.130 
	L 40.110, 348.661 
	L 38.409, 348.661 
	L 38.409, 341.150 
	L 29.055, 345.260 
	L 19.701, 341.150 
	L 19.701, 348.661 
	L 18.000, 348.661 
" />
<path d="M 18.000, 348.661 
" />
<path d="M 51.450, 347.314 
	L 51.449, 347.315 
	L 51.449, 343.205 
	L 41.811, 343.205 
	L 41.811, 347.315 
	L 51.449, 347.315 
	L 40.110, 348.661 
	L 40.110, 341.858 
	L 53.150, 341.858 
	L 53.150, 348.661 
	L 40.110, 348.661 
" />
<path d="M 53.150, 348.661 
	L 53.150, 348.661 
	L 53.150, 341.858 
	L 54.850, 341.858 
	L 54.850, 347.315 
	L 64.488, 347.315 
	L 64.488, 341.858 
	L 66.189, 341.858 
	L 66.189, 348.661 
	L 53.150, 348.661 
" />
<path d="M 66.190, 348.661 
	L 66.189, 348.661 
	L 66.189, 341.858 
	L 79.228, 341.858 
	L 79.228, 348.661 
	L 77.528, 348.661 
	L 77.528, 343.205 
	L 67.890, 343.205 
	L 67.890, 348.661 
	L 66.189, 348.661 
" />
<path d="M 79.229, 348.661 
	L 79.228, 348.661 
	L 79.228, 339.591 
	L 80.929, 339.591 
	L 80.929, 341.858 
	L 91.488, 341.858 
	L 91.488, 343.205 
	L 80.929, 343.205 
	L 80.929, 347.315 
	L 91.488, 347.315 
	L 91.488, 348.661 
	L 79.228, 348.661 
" />
<path d="M 79.228, 348.661 
" />
<path d="M 102.827, 347.314 
	L 102.827, 347.315 
	L 102.827, 343.205 
	L 100.559, 343.205 
	L 96.024, 347.315 
	L 102.827, 347.315 
	L 92.232, 348.661 
	L 98.291, 343.205 
	L 92.232, 343.205 
	L 92.232, 341.858 
	L 104.528, 341.858 
" />
<path d="M 104.528, 341.858 
	L 104.528, 348.661 
	L 92.232, 348.661 
" />
<path d="M 103.784, 348.661 
	L 103.783, 348.661 
	L 103.783, 341.858 
	L 105.484, 341.858 
	L 105.484, 348.661 
	L 103.783, 348.661 
	L 103.783, 340.937 
	L 103.783, 339.591 
	L 105.484, 339.591 
	L 105.484, 340.937 
	L 103.783, 340.937 
" />
<path d="M 103.783, 340.937 
" />
<path d="M 105.485, 348.661 
	L 105.484, 348.661 
	L 105.484, 341.858 
	L 118.524, 341.858 
	L 118.524, 348.661 
	L 116.823, 348.661 
	L 116.823, 343.205 
	L 107.185, 343.205 
	L 107.185, 348.661 
	L 105.484, 348.661 
" />
<path d="M 136.843, 347.314 
	L 136.843, 347.315 
	L 129.295, 340.937 
	L 120.224, 340.937 
	L 120.224, 347.315 
	L 136.843, 347.315 
	L 118.524, 348.661 
	L 118.524, 339.591 
	L 130.039, 339.591 
	L 140.634, 348.661 
	L 118.524, 348.661 
" />
<path d="M 118.524, 348.661 
" />
<path d="M 140.635, 348.661 
	L 140.634, 348.661 
	L 140.634, 341.858 
	L 152.894, 341.858 
	L 152.894, 343.205 
	L 142.335, 343.205 
	L 142.335, 348.661 
	L 140.634, 348.661 
" />
<path d="M 164.233, 347.314 
	L 164.232, 347.315 
	L 164.232, 343.205 
	L 154.595, 343.205 
	L 154.595, 347.315 
	L 164.232, 347.315 
	L 152.894, 348.661 
	L 152.894, 341.858 
	L 165.933, 341.858 
	L 165.933, 348.661 
	L 152.894, 348.661 
" />
<path d="M 152.894, 348.661 
" />
<path d="M 165.934, 348.661 
	L 165.933, 348.661 
	L 165.933, 341.858 
	L 178.972, 341.858 
	L 178.972, 348.661 
	L 177.272, 348.661 
	L 177.272, 343.205 
	L 167.634, 343.205 
	L 167.634, 348.661 
	L 165.933, 348.661 
" />
<path d="M 189.603, 344.586 
	L 189.602, 344.587 
	L 189.602, 343.205 
	L 180.248, 343.205 
	L 180.248, 344.587 
	L 189.602, 344.587 
	L 178.689, 348.661 
	L 178.689, 341.858 
	L 191.161, 341.858 
	L 191.161, 345.933 
	L 180.248, 345.933 
" />
<path d="M 180.248, 345.933 
	L 180.248, 347.315 
	L 191.161, 347.315 
	L 191.161, 348.661 
	L 178.689, 348.661 
" />
<path d="M 13.961, 191.409 
	L 13.961, 191.409 
	L 13.961, 193.075 
	L 13.961, 205.264 
	L 13.961, 206.929 
	L 12.295, 206.929 
	L 10.630, 206.929 
	L 10.630, 205.158 
	L 10.630, 193.075 
	L 10.630, 191.409 
	L 13.961, 191.409 
	L 21.969, 191.409 
" />
<path d="M 21.969, 191.409 
	L 22.535, 191.161 
	L 23.031, 191.161 
	L 23.492, 191.161 
	L 23.917, 191.409 
	L 24.413, 191.764 
	L 24.413, 192.472 
	L 24.413, 192.969 
	L 24.201, 193.642 
	L 19.240, 199.134 
	L 24.201, 204.697 
	L 24.378, 205.087 
" />
<path d="M 24.378, 205.087 
	L 24.378, 205.406 
	L 24.378, 206.114 
	L 23.634, 206.646 
	L 23.280, 206.929 
	L 22.783, 206.929 
	L 21.791, 206.929 
	L 20.303, 205.831 
	L 15.874, 200.835 
	L 14.244, 199.169 
	L 15.874, 197.504 
	L 21.969, 191.409 
" />
<path d="M 21.969, 191.409 
" />
<path d="M 31.855, 203.598 
	L 31.854, 203.598 
	L 36.071, 203.598 
	L 36.035, 197.185 
	L 26.362, 206.256 
	L 25.724, 206.787 
	L 25.157, 206.787 
	L 24.520, 206.787 
	L 23.988, 206.079 
	L 23.528, 205.512 
	L 23.528, 204.945 
	L 23.528, 204.236 
" />
<path d="M 23.528, 204.236 
	L 24.272, 203.634 
	L 36.283, 192.189 
	L 37.169, 191.303 
	L 37.878, 191.303 
	L 38.374, 191.303 
	L 38.551, 191.339 
	L 39.366, 191.622 
	L 39.366, 193.358 
	L 39.366, 204.591 
	L 39.366, 207.000 
	L 36.602, 206.929 
" />
<path d="M 36.602, 206.929 
	L 31.854, 206.929 
	L 29.941, 207.000 
	L 29.941, 205.282 
	L 29.941, 203.563 
	L 31.854, 203.598 
" />
<path d="M 54.674, 203.669 
	L 54.673, 203.669 
	L 54.673, 204.697 
	L 53.575, 205.813 
	L 52.476, 206.929 
	L 51.378, 206.929 
	L 43.618, 206.929 
	L 42.520, 206.929 
	L 41.404, 205.813 
	L 40.287, 204.697 
	L 40.287, 203.598 
	L 40.323, 194.811 
" />
<path d="M 40.323, 194.811 
	L 40.287, 193.642 
	L 41.404, 192.526 
	L 42.520, 191.409 
	L 43.618, 191.409 
	L 51.378, 191.409 
	L 52.476, 191.409 
	L 53.575, 192.526 
	L 54.673, 193.642 
	L 54.673, 194.740 
	L 54.673, 203.669 
	L 51.378, 201.933 
" />
<path d="M 51.378, 201.933 
	L 51.378, 196.406 
	L 51.378, 194.740 
	L 49.713, 194.740 
	L 45.283, 194.740 
	L 43.618, 194.740 
	L 43.618, 196.441 
	L 43.618, 201.933 
	L 43.583, 203.634 
	L 45.283, 203.598 
	L 49.713, 203.598 
	L 51.378, 203.598 
" />
<path d="M 51.378, 203.598 
	L 51.378, 201.933 
" />
<path d="M 66.509, 191.409 
	L 66.508, 191.409 
	L 68.173, 191.409 
	L 68.173, 193.004 
	L 68.173, 194.669 
	L 66.508, 194.740 
	L 55.417, 194.740 
	L 53.752, 194.669 
	L 53.752, 193.075 
	L 53.752, 191.374 
	L 55.417, 191.409 
	L 66.508, 191.409 
" />
<path d="M 66.508, 191.409 
	L 59.280, 198.071 
	L 59.244, 195.874 
	L 61.087, 195.856 
	L 62.929, 195.839 
	L 62.929, 198.071 
	L 62.929, 204.697 
	L 62.823, 206.929 
	L 61.122, 206.929 
	L 61.087, 206.929 
	L 59.244, 206.894 
	L 59.280, 204.697 
" />
<path d="M 59.280, 204.697 
	L 59.280, 198.071 
" />
<path d="M 70.725, 191.409 
	L 70.724, 191.409 
	L 80.681, 191.409 
	L 82.346, 191.409 
	L 82.346, 193.075 
	L 82.346, 194.740 
	L 80.681, 194.740 
	L 73.488, 194.740 
	L 72.390, 194.740 
	L 72.390, 195.839 
	L 72.390, 202.500 
	L 72.390, 203.598 
" />
<path d="M 72.390, 203.598 
	L 73.488, 203.598 
	L 80.681, 203.598 
	L 82.346, 203.598 
	L 82.346, 205.264 
	L 82.346, 206.929 
	L 80.681, 206.929 
	L 70.724, 206.929 
	L 69.059, 206.929 
	L 69.059, 205.264 
	L 69.059, 193.181 
	L 69.059, 191.409 
" />
<path d="M 69.059, 191.409 
	L 70.724, 191.409 
	L 75.720, 197.504 
	L 78.484, 197.504 
	L 80.681, 197.504 
	L 80.681, 199.169 
	L 80.681, 200.835 
	L 78.484, 200.835 
	L 75.720, 200.835 
	L 73.488, 200.835 
	L 73.488, 199.169 
	L 73.488, 197.504 
" />
<path d="M 73.488, 197.504 
	L 75.720, 197.504 
" />
<path d="M 95.564, 206.928 
	L 95.563, 206.929 
	L 87.343, 206.929 
	L 85.287, 206.929 
	L 83.799, 205.476 
	L 82.346, 204.059 
	L 82.346, 202.039 
	L 82.346, 196.158 
	L 82.346, 194.138 
	L 83.799, 192.685 
	L 85.110, 191.409 
	L 87.059, 191.409 
" />
<path d="M 87.059, 191.409 
	L 87.272, 191.409 
	L 87.520, 191.409 
	L 94.394, 191.409 
	L 96.130, 191.409 
	L 96.130, 193.146 
	L 96.130, 194.882 
	L 94.394, 194.882 
	L 88.016, 194.882 
	L 85.783, 194.882 
	L 85.783, 197.008 
	L 85.783, 201.579 
" />
<path d="M 85.783, 201.579 
	L 85.783, 203.492 
	L 88.157, 203.492 
	L 95.563, 203.492 
	L 97.299, 203.492 
	L 97.299, 205.193 
	L 97.264, 206.929 
	L 95.563, 206.929 
" />
<path d="M 107.257, 200.834 
	L 107.256, 200.835 
	L 100.630, 200.835 
	L 98.965, 200.835 
	L 98.965, 199.169 
	L 98.965, 197.504 
	L 100.630, 197.504 
	L 107.256, 197.504 
	L 108.921, 197.504 
	L 108.921, 199.169 
	L 108.921, 200.835 
" />
<path d="M 108.921, 200.835 
	L 107.256, 200.835 
" />
<path d="M 114.698, 203.598 
	L 114.697, 203.598 
	L 118.913, 203.598 
	L 118.878, 197.185 
	L 109.205, 206.256 
	L 108.567, 206.787 
	L 108.000, 206.787 
	L 107.362, 206.787 
	L 106.831, 206.079 
	L 106.370, 205.512 
	L 106.370, 204.945 
" />
<path d="M 106.370, 204.945 
	L 106.370, 204.236 
	L 107.114, 203.634 
	L 119.126, 192.189 
	L 120.012, 191.303 
	L 120.720, 191.303 
	L 121.217, 191.303 
	L 121.394, 191.339 
	L 122.209, 191.622 
	L 122.209, 193.358 
	L 122.209, 204.591 
" />
<path d="M 122.209, 204.591 
	L 122.209, 207.000 
	L 119.445, 206.929 
	L 114.697, 206.929 
	L 112.783, 207.000 
	L 112.783, 205.282 
	L 112.783, 203.563 
	L 114.697, 203.598 
" />
<path d="M 123.095, 191.409 
	L 123.095, 191.409 
	L 124.760, 191.409 
	L 126.425, 191.409 
	L 126.425, 193.642 
	L 126.425, 202.500 
	L 126.425, 203.598 
	L 127.524, 203.598 
	L 133.122, 203.598 
	L 135.390, 203.598 
	L 135.425, 205.228 
" />
<path d="M 135.425, 205.228 
	L 135.425, 206.858 
	L 133.122, 206.929 
	L 125.681, 206.929 
	L 123.095, 206.929 
	L 123.095, 204.201 
	L 123.095, 193.606 
	L 123.095, 191.409 
" />
<path d="M 149.493, 202.322 
	L 149.492, 202.323 
	L 149.492, 204.697 
	L 148.553, 205.813 
	L 147.614, 206.929 
	L 144.957, 206.894 
	L 137.161, 206.929 
	L 135.425, 206.929 
	L 135.425, 205.193 
	L 135.425, 198.071 
	L 135.461, 195.839 
" />
<path d="M 135.461, 195.839 
	L 137.108, 195.839 
	L 138.756, 195.839 
	L 138.720, 198.071 
	L 138.720, 203.705 
	L 144.283, 203.705 
	L 146.020, 203.705 
	L 146.020, 202.252 
	L 146.020, 200.799 
	L 144.248, 200.799 
	L 142.087, 200.835 
" />
<path d="M 142.087, 200.835 
	L 139.783, 200.835 
	L 139.819, 199.169 
	L 139.854, 197.504 
	L 142.087, 197.504 
	L 144.283, 197.504 
	L 146.020, 197.539 
	L 146.037, 196.140 
	L 146.055, 194.740 
	L 144.390, 194.740 
	L 137.091, 194.740 
" />
<path d="M 137.091, 194.740 
	L 135.425, 194.740 
	L 135.425, 193.146 
	L 135.425, 191.409 
	L 137.161, 191.409 
	L 144.850, 191.409 
	L 147.047, 191.409 
	L 148.163, 192.526 
	L 149.280, 193.642 
	L 149.386, 195.839 
	L 149.386, 198.177 
" />
<path d="M 149.386, 198.177 
	L 147.969, 199.028 
	L 149.492, 200.020 
	L 149.492, 202.323 
" />
<path d="M 149.528, 191.444 
	L 149.528, 191.445 
	L 151.158, 191.445 
	L 151.193, 191.445 
	L 152.858, 191.445 
	L 152.787, 193.677 
	L 152.787, 201.969 
	L 152.787, 203.598 
	L 154.453, 203.634 
	L 158.846, 203.598 
	L 160.583, 203.634 
" />
<path d="M 160.583, 203.634 
	L 160.583, 201.898 
	L 160.583, 193.642 
	L 160.618, 191.409 
	L 162.283, 191.409 
	L 163.913, 191.409 
	L 163.913, 193.535 
	L 163.913, 203.598 
	L 163.913, 204.661 
	L 163.063, 205.778 
	L 162.213, 206.894 
" />
<path d="M 162.213, 206.894 
	L 161.079, 206.894 
	L 152.256, 206.894 
	L 151.122, 206.894 
	L 150.325, 205.795 
	L 149.528, 204.697 
	L 149.528, 203.598 
	L 149.492, 193.642 
	L 149.528, 191.445 
" />
<path d="M 175.359, 192.153 
	L 175.358, 192.154 
	L 176.244, 191.409 
	L 176.988, 191.409 
	L 177.272, 191.409 
	L 177.520, 191.516 
	L 178.476, 191.870 
	L 178.476, 193.500 
	L 178.476, 205.016 
	L 178.441, 207.000 
	L 176.811, 207.000 
" />
<path d="M 176.811, 207.000 
	L 176.776, 207.000 
	L 175.146, 207.000 
	L 175.110, 204.980 
	L 175.110, 198.142 
	L 175.075, 197.150 
	L 174.508, 197.681 
	L 166.039, 206.185 
	L 165.154, 207.000 
	L 164.409, 207.000 
	L 163.878, 207.000 
" />
<path d="M 163.878, 207.000 
	L 163.382, 206.504 
	L 162.886, 206.043 
	L 162.886, 205.476 
	L 162.886, 204.697 
	L 163.736, 203.811 
	L 175.358, 192.154 
	L 188.717, 191.835 
	L 188.717, 193.500 
	L 188.717, 204.768 
	L 188.717, 207.000 
" />
<path d="M 188.717, 207.000 
	L 187.051, 207.000 
	L 185.386, 207.000 
	L 185.386, 204.768 
	L 185.386, 198.142 
	L 185.386, 197.433 
	L 184.748, 197.965 
	L 182.587, 200.161 
	L 180.957, 201.295 
	L 180.071, 200.091 
	L 179.185, 198.886 
" />
<path d="M 179.185, 198.886 
	L 180.461, 197.469 
	L 185.669, 192.189 
	L 186.413, 191.409 
	L 187.193, 191.409 
	L 187.441, 191.409 
	L 187.689, 191.480 
	L 188.717, 191.835 
" />
<path d="M 204.166, 203.669 
	L 204.165, 203.669 
	L 204.165, 204.697 
	L 203.067, 205.813 
	L 201.969, 206.929 
	L 200.870, 206.929 
	L 193.110, 206.929 
	L 192.012, 206.929 
	L 190.896, 205.813 
	L 189.780, 204.697 
	L 189.780, 203.598 
" />
<path d="M 189.780, 203.598 
	L 189.815, 194.811 
	L 189.780, 193.642 
	L 190.896, 192.526 
	L 192.012, 191.409 
	L 193.110, 191.409 
	L 200.870, 191.409 
	L 201.969, 191.409 
	L 203.067, 192.526 
	L 204.165, 193.642 
	L 204.165, 194.740 
" />
<path d="M 204.165, 194.740 
	L 204.165, 203.669 
	L 200.870, 201.933 
	L 200.870, 196.406 
	L 200.870, 194.740 
	L 199.205, 194.740 
	L 194.776, 194.740 
	L 193.110, 194.740 
	L 193.110, 196.441 
	L 193.110, 201.933 
	L 193.075, 203.634 
" />
<path d="M 193.075, 203.634 
	L 194.776, 203.598 
	L 199.205, 203.598 
	L 200.870, 203.598 
	L 200.870, 201.933 
" />
<path d="M 218.552, 203.669 
	L 218.551, 203.669 
	L 218.551, 204.697 
	L 217.453, 205.813 
	L 216.354, 206.929 
	L 215.256, 206.929 
	L 207.496, 206.929 
	L 206.398, 206.929 
	L 205.282, 205.813 
	L 204.165, 204.697 
	L 204.165, 203.598 
" />
<path d="M 204.165, 203.598 
	L 204.201, 194.811 
	L 204.165, 193.642 
	L 205.282, 192.526 
	L 206.398, 191.409 
	L 207.496, 191.409 
	L 215.256, 191.409 
	L 216.354, 191.409 
	L 217.453, 192.526 
	L 218.551, 193.642 
	L 218.551, 194.740 
" />
<path d="M 218.551, 194.740 
	L 218.551, 203.669 
	L 215.256, 201.933 
	L 215.256, 196.406 
	L 215.256, 194.740 
	L 213.591, 194.740 
	L 209.161, 194.740 
	L 207.496, 194.740 
	L 207.496, 196.441 
	L 207.496, 201.933 
	L 207.461, 203.634 
" />
<path d="M 207.461, 203.634 
	L 209.161, 203.598 
	L 213.591, 203.598 
	L 215.256, 203.598 
	L 215.256, 201.933 
" />
<path d="M 225.780, 204.696 
	L 225.780, 204.697 
	L 225.780, 206.929 
	L 224.150, 206.929 
	L 222.484, 206.929 
	L 222.413, 204.697 
	L 222.413, 193.642 
	L 222.484, 191.409 
	L 224.150, 191.409 
	L 225.780, 191.409 
	L 225.780, 193.642 
" />
<path d="M 225.780, 193.642 
	L 225.780, 204.697 
" />
<path d="M 644.882, 634.961 
	L 644.882, 638.150 
	L 644.173, 639.213 
	L 642.756, 639.213 
	L 642.047, 638.150 
	L 642.047, 636.024 
	L 644.882, 636.024 
" />
<path d="M 640.630, 631.772 
	L 640.630, 630.709 
	L 644.882, 630.709 
" />
<path d="M 644.882, 631.772 
	L 644.882, 629.646 
" />
<path d="M 644.882, 626.457 
	L 644.882, 623.268 
	L 644.173, 622.205 
	L 642.756, 622.205 
	L 642.047, 623.268 
	L 642.047, 625.394 
" />
<path d="M 640.630, 625.394 
	L 644.882, 625.394 
" />
<path d="M 642.047, 620.079 
	L 644.173, 620.079 
	L 644.882, 619.016 
	L 644.882, 616.890 
	L 642.047, 616.890 
" />
<path d="M 644.882, 613.701 
	L 642.047, 613.701 
" />
<path d="M 642.756, 613.701 
	L 642.047, 612.638 
	L 642.756, 611.575 
	L 644.882, 611.575 
" />
<path d="M 642.756, 611.575 
	L 642.047, 610.512 
	L 642.756, 609.449 
	L 644.882, 609.449 
" />
<path d="M 644.173, 607.323 
	L 644.882, 606.260 
	L 644.882, 604.134 
	L 644.173, 603.071 
	L 641.339, 603.071 
	L 640.630, 604.134 
	L 640.630, 606.260 
	L 641.339, 607.323 
	L 644.173, 607.323 
" />
<path d="M 644.173, 600.945 
	L 644.882, 599.882 
	L 644.882, 597.756 
	L 644.173, 596.693 
	L 641.339, 596.693 
	L 640.630, 597.756 
	L 640.630, 599.882 
	L 641.339, 600.945 
	L 644.173, 600.945 
" />
<path d="M 644.882, 593.504 
	L 644.882, 591.378 
" />
<path d="M 644.882, 592.441 
	L 640.630, 592.441 
	L 641.339, 593.504 
" />
<path d="M 644.173, 583.937 
	L 644.882, 585.000 
	L 644.882, 586.063 
	L 644.173, 587.126 
	L 642.756, 587.126 
	L 642.047, 586.063 
	L 642.047, 585.000 
	L 642.756, 583.937 
" />
<path d="M 644.882, 580.748 
	L 644.173, 581.811 
	L 642.756, 581.811 
	L 642.047, 580.748 
	L 642.047, 579.685 
	L 642.756, 578.622 
	L 644.173, 578.622 
	L 644.882, 579.685 
	L 644.882, 580.748 
" />
<path d="M 642.047, 575.433 
	L 643.465, 575.433 
	L 644.882, 573.307 
	L 643.465, 571.181 
	L 642.047, 571.181 
" />
<path d="M 643.465, 569.055 
	L 643.465, 565.866 
	L 642.756, 564.803 
	L 642.047, 565.866 
	L 642.047, 567.992 
	L 642.756, 569.055 
	L 644.173, 569.055 
	L 644.882, 567.992 
	L 644.882, 564.803 
" />
<path d="M 642.047, 562.677 
	L 644.882, 562.677 
" />
<path d="M 643.465, 562.677 
	L 642.047, 560.551 
	L 642.047, 559.488 
" />
<path d="M 640.630, 548.858 
	L 644.882, 548.858 
	L 644.882, 546.732 
" />
<path d="M 642.047, 549.921 
	L 642.047, 546.732 
" />
<path d="M 643.465, 543.543 
	L 643.465, 540.354 
	L 642.756, 539.291 
	L 642.047, 540.354 
	L 642.047, 542.480 
	L 642.756, 543.543 
	L 644.173, 543.543 
	L 644.882, 542.480 
	L 644.882, 539.291 
" />
<path d="M 642.047, 533.976 
	L 642.047, 536.102 
	L 642.756, 537.165 
	L 643.465, 536.102 
	L 643.465, 535.039 
	L 644.173, 533.976 
	L 644.882, 535.039 
	L 644.882, 537.165 
" />
<path d="M 640.630, 529.724 
	L 644.882, 529.724 
	L 644.882, 527.599 
" />
<path d="M 642.047, 530.787 
	L 642.047, 527.599 
" />
<path d="M 641.339, 498.898 
	L 640.630, 497.835 
	L 640.630, 495.709 
	L 641.339, 494.646 
	L 642.047, 494.646 
	L 644.173, 498.898 
	L 644.882, 498.898 
	L 644.882, 494.646 
" />
<path d="M 644.173, 492.520 
	L 644.882, 491.457 
	L 644.882, 489.331 
	L 644.173, 488.268 
	L 641.339, 488.268 
	L 640.630, 489.331 
	L 640.630, 491.457 
	L 641.339, 492.520 
	L 644.173, 492.520 
" />
<path d="M 644.882, 485.079 
	L 644.882, 482.953 
" />
<path d="M 644.882, 484.016 
	L 640.630, 484.016 
	L 641.339, 485.079 
" />
<path d="M 644.882, 478.701 
	L 644.882, 477.638 
	L 643.465, 475.512 
	L 641.339, 475.512 
	L 640.630, 476.575 
	L 640.630, 478.701 
	L 641.339, 479.764 
	L 642.047, 479.764 
	L 642.756, 478.701 
	L 642.756, 475.512 
" />
<path d="M 642.756, 473.386 
	L 642.756, 469.134 
" />
<path d="M 644.882, 465.945 
	L 644.882, 463.819 
" />
<path d="M 644.882, 464.882 
	L 640.630, 464.882 
	L 641.339, 465.945 
" />
<path d="M 644.882, 459.567 
	L 644.882, 457.441 
" />
<path d="M 644.882, 458.504 
	L 640.630, 458.504 
	L 641.339, 459.567 
" />
<path d="M 642.756, 454.252 
	L 642.756, 450.000 
" />
<path d="M 641.339, 447.874 
	L 640.630, 446.811 
	L 640.630, 444.685 
	L 641.339, 443.622 
	L 642.047, 443.622 
	L 644.173, 447.874 
	L 644.882, 447.874 
	L 644.882, 443.622 
" />
<path d="M 640.630, 437.244 
	L 640.630, 441.496 
	L 642.047, 441.496 
	L 642.047, 438.307 
	L 642.756, 437.244 
	L 644.173, 437.244 
	L 644.882, 438.307 
	L 644.882, 440.433 
	L 644.173, 441.496 
" />
<path d="M 644.882, 427.677 
	L 644.882, 425.551 
" />
<path d="M 644.882, 426.614 
	L 640.630, 426.614 
	L 641.339, 427.677 
" />
<path d="M 640.630, 419.173 
	L 642.756, 422.362 
	L 643.465, 422.362 
	L 643.465, 418.110 
" />
<path d="M 642.756, 419.173 
	L 644.882, 419.173 
" />
<path d="M 642.756, 414.921 
	L 642.047, 414.921 
	L 642.047, 413.858 
	L 642.756, 413.858 
	L 642.756, 414.921 
" />
<path d="M 644.173, 414.921 
	L 644.173, 413.858 
	L 644.882, 413.858 
	L 644.882, 414.921 
	L 644.173, 414.921 
" />
<path d="M 644.173, 409.606 
	L 644.882, 408.543 
	L 644.882, 406.417 
	L 644.173, 405.354 
	L 643.465, 405.354 
	L 642.756, 406.417 
	L 642.756, 407.480 
	L 640.630, 405.354 
	L 640.630, 409.606 
" />
<path d="M 644.173, 403.228 
	L 644.882, 402.165 
	L 644.882, 400.039 
	L 644.173, 398.976 
	L 643.465, 398.976 
	L 642.756, 400.039 
	L 642.756, 401.102 
	L 640.630, 398.976 
	L 640.630, 403.228 
" />
</g>
</svg>
