<?xml version="1.0" encoding="UTF-8" standalone="no" ?>
<svg width="100%" height="100%" viewBox="0 0 644.882 993.375" xmlns="http://www.w3.org/2000/svg"><g>
</g><g style="stroke:rgb(0,0,0); fill:none; stroke-width:1.000mm" >
</g><g style="stroke:rgb(0,0,0); fill:none; stroke-width:0.100mm" >
<path d="M 0.001, 993.374 
	L 0.000, 993.375 
	L 0.000, 355.579 
	L 637.795, 355.579 
	L 637.795, 993.375 
	L 0.000, 993.375 
" />
<path d="M 0.001, 1348.954 
	L 0.000, 1348.954 
	L 141.732, 1348.685 
	L 283.465, 1348.440 
	L 425.197, 1347.706 
	L 566.929, 1347.142 
" />
<path d="M 0.001, 1333.007 
	L 0.000, 1333.007 
	L 70.866, 1332.355 
	L 141.732, 1331.763 
	L 212.598, 1329.989 
	L 283.465, 1328.627 
	L 354.331, 1328.489 
	L 425.197, 1329.701 
	L 496.063, 1332.048 
	L 566.929, 1334.559 
" />
<path d="M 0.001, 1315.007 
	L 0.000, 1315.007 
	L 47.197, 1314.608 
	L 94.394, 1314.245 
	L 141.591, 1313.158 
	L 188.787, 1312.324 
	L 235.984, 1312.240 
	L 283.181, 1312.981 
	L 330.378, 1314.420 
	L 377.575, 1315.957 
	L 424.772, 1316.875 
" />
<path d="M 424.772, 1316.875 
	L 471.969, 1317.066 
	L 519.165, 1317.122 
	L 566.362, 1317.277 
	L 613.559, 1315.948 
" />
<path d="M 0.001, 1297.775 
	L 0.000, 1297.775 
	L 35.433, 1297.644 
	L 70.866, 1297.525 
	L 106.299, 1297.169 
	L 141.732, 1296.896 
	L 177.165, 1296.868 
	L 212.598, 1297.111 
	L 248.032, 1297.583 
	L 283.465, 1298.087 
	L 318.898, 1298.388 
" />
<path d="M 318.898, 1298.388 
	L 354.331, 1298.450 
	L 389.764, 1298.468 
	L 425.197, 1298.519 
	L 460.630, 1298.084 
	L 496.063, 1297.825 
	L 531.496, 1298.073 
	L 566.929, 1297.663 
	L 602.362, 1297.598 
" />
<path d="M 0.001, 1282.611 
	L 0.000, 1282.612 
	L 28.346, 1282.475 
	L 56.693, 1282.351 
	L 85.039, 1281.979 
	L 113.386, 1281.694 
	L 141.732, 1281.665 
	L 170.079, 1281.919 
	L 198.425, 1282.411 
	L 226.772, 1282.937 
	L 255.118, 1283.252 
" />
<path d="M 255.118, 1283.252 
	L 283.465, 1283.317 
	L 311.811, 1283.336 
	L 340.158, 1283.390 
	L 368.504, 1282.935 
	L 396.850, 1282.665 
	L 425.197, 1282.923 
	L 453.543, 1282.495 
	L 481.890, 1282.427 
	L 510.236, 1282.360 
	L 538.583, 1282.427 
" />
<path d="M 538.583, 1282.427 
	L 566.929, 1282.460 
	L 595.276, 1282.687 
	L 623.622, 1282.332 
" />
<path d="M 0.001, 1269.182 
	L 0.000, 1269.182 
	L 23.598, 1268.829 
	L 47.197, 1268.509 
	L 70.795, 1267.549 
	L 94.394, 1266.813 
	L 117.992, 1266.738 
	L 141.591, 1267.393 
	L 165.189, 1268.664 
	L 188.787, 1270.021 
	L 212.386, 1270.832 
" />
<path d="M 212.386, 1270.832 
	L 235.984, 1271.001 
	L 259.583, 1271.050 
	L 283.181, 1271.187 
	L 306.780, 1270.013 
	L 330.378, 1269.316 
	L 353.976, 1269.984 
	L 377.575, 1268.879 
	L 401.173, 1268.705 
	L 424.772, 1268.531 
	L 448.370, 1268.705 
" />
<path d="M 448.370, 1268.705 
	L 471.969, 1268.789 
	L 495.567, 1269.376 
	L 519.165, 1268.458 
	L 542.764, 1267.549 
	L 566.362, 1266.156 
	L 589.961, 1265.019 
	L 613.559, 1264.776 
	L 637.158, 1264.630 
" />
<path d="M 0.001, 1256.452 
	L 0.000, 1256.453 
	L 20.197, 1255.888 
	L 40.394, 1255.375 
	L 60.591, 1253.841 
	L 80.787, 1252.662 
	L 100.984, 1252.543 
	L 121.181, 1253.590 
	L 141.378, 1255.623 
	L 161.575, 1257.794 
	L 181.772, 1259.092 
" />
<path d="M 181.772, 1259.092 
	L 201.969, 1259.361 
	L 222.165, 1259.440 
	L 242.362, 1259.660 
	L 262.559, 1257.782 
	L 282.756, 1256.667 
	L 302.953, 1257.735 
	L 323.150, 1255.967 
	L 343.347, 1255.689 
	L 363.543, 1255.410 
	L 383.740, 1255.689 
" />
<path d="M 383.740, 1255.689 
	L 403.937, 1255.823 
	L 424.134, 1256.763 
	L 444.331, 1255.295 
	L 464.528, 1253.841 
	L 484.724, 1251.611 
	L 504.921, 1249.793 
	L 525.118, 1249.404 
	L 545.315, 1249.171 
	L 565.512, 1248.667 
	L 585.709, 1247.998 
" />
<path d="M 585.709, 1247.998 
	L 605.906, 1249.664 
	L 626.102, 1250.600 
" />
<path d="M 0.001, 1243.323 
	L 0.000, 1243.323 
	L 17.717, 1242.782 
	L 35.433, 1242.290 
	L 53.150, 1240.817 
	L 70.866, 1239.686 
	L 88.583, 1239.572 
	L 106.299, 1240.577 
	L 124.016, 1242.527 
	L 141.732, 1244.611 
	L 159.449, 1245.855 
" />
<path d="M 159.449, 1245.855 
	L 177.165, 1246.114 
	L 194.882, 1246.190 
	L 212.598, 1246.401 
	L 230.315, 1244.599 
	L 248.032, 1243.529 
	L 265.748, 1244.554 
	L 283.465, 1242.858 
	L 301.181, 1242.591 
	L 318.898, 1242.323 
	L 336.614, 1242.591 
" />
<path d="M 336.614, 1242.591 
	L 354.331, 1242.720 
	L 372.047, 1243.622 
	L 389.764, 1242.212 
	L 407.480, 1240.817 
	L 425.197, 1238.678 
	L 442.913, 1236.934 
	L 460.630, 1236.561 
	L 478.347, 1236.337 
	L 496.063, 1235.853 
	L 513.780, 1235.211 
" />
<path d="M 513.780, 1235.211 
	L 531.496, 1236.811 
	L 549.213, 1237.708 
	L 566.929, 1237.721 
	L 584.646, 1237.035 
	L 602.362, 1237.150 
	L 620.079, 1238.094 
" />
<path d="M 0.001, 1232.040 
	L 0.000, 1232.041 
	L 15.732, 1231.264 
	L 31.465, 1230.558 
	L 47.197, 1228.445 
	L 62.929, 1226.823 
	L 78.661, 1226.659 
	L 94.394, 1228.101 
	L 110.126, 1230.898 
	L 125.858, 1233.888 
	L 141.591, 1235.674 
" />
<path d="M 141.591, 1235.674 
	L 157.323, 1236.045 
	L 173.055, 1236.154 
	L 188.787, 1236.456 
	L 204.520, 1233.871 
	L 220.252, 1232.337 
	L 235.984, 1233.807 
	L 251.717, 1231.373 
	L 267.449, 1230.990 
	L 283.181, 1230.606 
	L 298.913, 1230.990 
" />
<path d="M 298.913, 1230.990 
	L 314.646, 1231.175 
	L 330.378, 1232.469 
	L 346.110, 1230.447 
	L 361.843, 1228.445 
	L 377.575, 1225.376 
	L 393.307, 1222.873 
	L 409.039, 1222.338 
	L 424.772, 1222.017 
	L 440.504, 1221.323 
	L 456.236, 1220.402 
" />
<path d="M 456.236, 1220.402 
	L 471.969, 1222.696 
	L 487.701, 1223.984 
	L 503.433, 1224.002 
	L 519.165, 1223.019 
	L 534.898, 1223.183 
	L 550.630, 1224.538 
	L 566.362, 1224.890 
	L 582.095, 1229.300 
	L 597.827, 1232.924 
	L 613.559, 1236.311 
" />
<path d="M 613.559, 1236.311 
" />
<path d="M 0.001, 1222.223 
	L 0.000, 1222.224 
	L 14.173, 1221.028 
	L 28.346, 1219.942 
	L 42.520, 1216.692 
	L 56.693, 1214.196 
	L 70.866, 1213.944 
	L 85.039, 1216.162 
	L 99.213, 1220.466 
	L 113.386, 1225.065 
	L 127.559, 1227.812 
" />
<path d="M 127.559, 1227.812 
	L 141.732, 1228.384 
	L 155.906, 1228.551 
	L 170.079, 1229.016 
	L 184.252, 1225.039 
	L 198.425, 1222.679 
	L 212.598, 1224.940 
	L 226.772, 1221.196 
	L 240.945, 1220.606 
	L 255.118, 1220.017 
	L 269.291, 1220.606 
" />
<path d="M 269.291, 1220.606 
	L 283.465, 1220.891 
	L 297.638, 1222.881 
	L 311.811, 1219.771 
	L 325.984, 1216.692 
	L 340.158, 1211.970 
	L 354.331, 1208.120 
	L 368.504, 1207.297 
	L 382.677, 1206.802 
	L 396.850, 1205.735 
	L 411.024, 1204.317 
" />
<path d="M 411.024, 1204.317 
	L 425.197, 1207.848 
	L 439.370, 1209.828 
	L 453.543, 1209.857 
	L 467.717, 1208.344 
	L 481.890, 1208.597 
	L 496.063, 1210.681 
	L 510.236, 1211.223 
	L 524.410, 1218.008 
	L 538.583, 1223.581 
	L 552.756, 1228.793 
" />
<path d="M 552.756, 1228.793 
" />
<path d="M 0.001, 1211.390 
	L 0.000, 1211.391 
	L 12.827, 1210.123 
	L 25.654, 1208.972 
	L 38.480, 1205.525 
	L 51.307, 1202.880 
	L 64.134, 1202.613 
	L 76.961, 1204.965 
	L 89.787, 1209.527 
	L 102.614, 1214.403 
	L 115.441, 1217.316 
" />
<path d="M 115.441, 1217.316 
	L 128.268, 1217.922 
	L 141.095, 1218.099 
	L 153.921, 1218.592 
	L 166.748, 1214.376 
	L 179.575, 1211.873 
	L 192.402, 1214.270 
	L 205.228, 1210.302 
	L 218.055, 1209.677 
	L 230.882, 1209.051 
	L 243.709, 1209.676 
" />
<path d="M 243.709, 1209.676 
	L 256.535, 1209.979 
	L 269.362, 1212.088 
	L 282.189, 1208.790 
	L 295.016, 1205.525 
	L 307.843, 1200.519 
	L 320.669, 1196.438 
	L 333.496, 1195.565 
	L 346.323, 1195.041 
	L 359.150, 1193.909 
	L 371.976, 1192.406 
" />
<path d="M 371.976, 1192.406 
	L 384.803, 1196.149 
	L 397.630, 1198.250 
	L 410.457, 1198.280 
	L 423.284, 1196.676 
	L 436.110, 1196.944 
	L 448.937, 1199.153 
	L 461.764, 1199.728 
	L 474.591, 1206.921 
	L 487.417, 1212.830 
	L 500.244, 1218.356 
" />
<path d="M 500.244, 1218.356 
" />
<path d="M 0.001, 1199.665 
	L 0.000, 1199.666 
	L 11.764, 1198.640 
	L 23.528, 1197.709 
	L 35.291, 1194.918 
	L 47.055, 1192.776 
	L 58.819, 1192.560 
	L 70.583, 1194.464 
	L 82.346, 1198.157 
	L 94.110, 1202.105 
	L 105.874, 1204.463 
" />
<path d="M 105.874, 1204.463 
	L 117.638, 1204.954 
	L 129.402, 1205.097 
	L 141.165, 1205.496 
	L 152.929, 1202.083 
	L 164.693, 1200.057 
	L 176.457, 1201.998 
	L 188.221, 1198.785 
	L 199.984, 1198.279 
	L 211.748, 1197.772 
	L 223.512, 1198.278 
" />
<path d="M 223.512, 1198.278 
	L 235.276, 1198.523 
	L 247.039, 1200.230 
	L 258.803, 1197.561 
	L 270.567, 1194.918 
	L 282.331, 1190.865 
	L 294.095, 1187.561 
	L 305.858, 1186.855 
	L 317.622, 1186.431 
	L 329.386, 1185.514 
	L 341.150, 1184.297 
" />
<path d="M 341.150, 1184.297 
	L 352.913, 1187.328 
	L 364.677, 1189.028 
	L 376.441, 1189.053 
	L 388.205, 1187.754 
	L 399.969, 1187.970 
	L 411.732, 1189.759 
	L 423.496, 1190.225 
	L 435.260, 1196.048 
	L 447.024, 1200.831 
	L 458.787, 1205.304 
" />
<path d="M 458.787, 1205.304 
" />
<path d="M 0.001, 1189.810 
	L 0.000, 1189.811 
	L 10.843, 1188.737 
	L 21.685, 1187.762 
	L 32.528, 1184.841 
	L 43.370, 1182.599 
	L 54.213, 1182.373 
	L 65.055, 1184.365 
	L 75.898, 1188.232 
	L 86.740, 1192.364 
	L 97.583, 1194.832 
" />
<path d="M 97.583, 1194.832 
	L 108.425, 1195.345 
	L 119.268, 1195.495 
	L 130.110, 1195.914 
	L 140.953, 1192.340 
	L 151.795, 1190.220 
	L 162.638, 1192.251 
	L 173.480, 1188.888 
	L 184.323, 1188.358 
	L 195.165, 1187.828 
	L 206.008, 1188.358 
" />
<path d="M 206.008, 1188.358 
	L 216.850, 1188.614 
	L 227.693, 1190.402 
	L 238.535, 1187.608 
	L 249.378, 1184.841 
	L 260.221, 1180.599 
	L 271.063, 1177.141 
	L 281.906, 1176.401 
	L 292.748, 1175.956 
	L 303.591, 1174.998 
	L 314.433, 1173.724 
" />
<path d="M 314.433, 1173.724 
	L 325.276, 1176.895 
	L 336.118, 1178.676 
	L 346.961, 1178.701 
	L 357.803, 1177.342 
	L 368.646, 1177.569 
	L 379.488, 1179.441 
	L 390.331, 1179.928 
	L 401.173, 1186.023 
	L 412.016, 1191.030 
	L 422.858, 1195.713 
" />
<path d="M 422.858, 1195.713 
" />
<path d="M 0.001, 1178.982 
	L 0.000, 1178.983 
	L 10.063, 1178.180 
	L 20.126, 1177.451 
	L 30.189, 1175.268 
	L 40.252, 1173.592 
	L 50.315, 1173.422 
	L 60.378, 1174.912 
	L 70.441, 1177.803 
	L 80.504, 1180.892 
	L 90.567, 1182.737 
" />
<path d="M 90.567, 1182.737 
	L 100.630, 1183.121 
	L 110.693, 1183.233 
	L 120.756, 1183.546 
	L 130.819, 1180.875 
	L 140.882, 1179.289 
	L 150.945, 1180.808 
	L 161.008, 1178.294 
	L 171.071, 1177.898 
	L 181.134, 1177.501 
	L 191.197, 1177.897 
" />
<path d="M 191.197, 1177.897 
	L 201.260, 1178.089 
	L 211.323, 1179.425 
	L 221.386, 1177.336 
	L 231.449, 1175.268 
	L 241.512, 1172.096 
	L 251.575, 1169.510 
	L 261.638, 1168.958 
	L 271.701, 1168.625 
	L 281.764, 1167.908 
	L 291.827, 1166.956 
" />
<path d="M 291.827, 1166.956 
	L 301.890, 1169.328 
	L 311.953, 1170.658 
	L 322.016, 1170.677 
	L 332.079, 1169.661 
	L 342.142, 1169.831 
	L 352.205, 1171.230 
	L 362.268, 1171.595 
	L 372.331, 1176.151 
	L 382.394, 1179.895 
	L 392.457, 1183.396 
" />
<path d="M 392.457, 1183.396 
" />
<path d="M 0.001, 1166.305 
	L 0.000, 1166.305 
	L 9.425, 1166.277 
	L 18.850, 1166.251 
	L 28.276, 1166.173 
	L 37.701, 1166.113 
	L 47.126, 1166.108 
	L 56.551, 1166.161 
	L 65.976, 1166.263 
	L 75.402, 1166.373 
	L 84.827, 1166.438 
" />
<path d="M 84.827, 1166.438 
	L 94.252, 1166.453 
	L 103.677, 1166.456 
	L 113.102, 1166.468 
	L 122.528, 1166.373 
	L 131.953, 1166.316 
	L 141.378, 1166.370 
	L 150.803, 1166.280 
	L 160.228, 1166.266 
	L 169.654, 1166.253 
	L 179.079, 1166.266 
" />
<path d="M 179.079, 1166.266 
	L 188.504, 1166.273 
	L 197.929, 1166.321 
	L 207.354, 1166.246 
	L 216.780, 1166.173 
	L 226.205, 1166.060 
	L 235.630, 1165.969 
	L 245.055, 1165.949 
	L 254.480, 1165.937 
	L 263.906, 1165.911 
	L 273.331, 1165.877 
" />
<path d="M 273.331, 1165.877 
	L 282.756, 1165.962 
	L 292.181, 1166.009 
	L 301.606, 1166.010 
	L 311.032, 1165.974 
	L 320.457, 1165.980 
	L 329.882, 1166.030 
	L 339.307, 1166.042 
	L 348.732, 1166.205 
	L 358.158, 1166.338 
	L 367.583, 1166.462 
" />
<path d="M 367.583, 1166.462 
" />
<path d="M 0.001, 1158.590 
	L 0.000, 1158.591 
	L 8.858, 1158.363 
	L 17.717, 1158.155 
	L 26.575, 1157.533 
	L 35.433, 1157.056 
	L 44.291, 1157.008 
	L 53.150, 1157.432 
	L 62.008, 1158.255 
	L 70.866, 1159.134 
	L 79.724, 1159.659 
" />
<path d="M 79.724, 1159.659 
	L 88.583, 1159.769 
	L 97.441, 1159.800 
	L 106.299, 1159.890 
	L 115.157, 1159.129 
	L 124.016, 1158.678 
	L 132.874, 1159.110 
	L 141.732, 1158.394 
	L 150.591, 1158.282 
	L 159.449, 1158.169 
	L 168.307, 1158.282 
" />
<path d="M 168.307, 1158.282 
	L 177.165, 1158.336 
	L 186.024, 1158.717 
	L 194.882, 1158.122 
	L 203.740, 1157.533 
	L 212.598, 1156.631 
	L 221.457, 1155.894 
	L 230.315, 1155.737 
	L 239.173, 1155.643 
	L 248.032, 1155.439 
	L 256.890, 1155.167 
" />
<path d="M 256.890, 1155.167 
	L 265.748, 1155.843 
	L 274.606, 1156.221 
	L 283.465, 1156.227 
	L 292.323, 1155.937 
	L 301.181, 1155.986 
	L 310.039, 1156.384 
	L 318.898, 1156.487 
	L 327.756, 1157.785 
	L 336.614, 1158.850 
	L 345.472, 1159.846 
" />
<path d="M 345.472, 1159.846 
" />
<path d="M 0.001, 1152.793 
	L 0.000, 1152.793 
	L 8.291, 1152.044 
	L 16.583, 1151.363 
	L 24.874, 1149.325 
	L 33.165, 1147.760 
	L 41.457, 1147.603 
	L 49.748, 1148.993 
	L 58.039, 1151.691 
	L 66.331, 1154.575 
	L 74.622, 1156.297 
" />
<path d="M 74.622, 1156.297 
	L 82.913, 1156.655 
	L 91.205, 1156.760 
	L 99.496, 1157.052 
	L 107.787, 1154.558 
	L 116.079, 1153.078 
	L 124.370, 1154.496 
	L 132.661, 1152.149 
	L 140.953, 1151.780 
	L 149.244, 1151.410 
	L 157.535, 1151.780 
" />
<path d="M 157.535, 1151.780 
	L 165.827, 1151.958 
	L 174.118, 1153.206 
	L 182.409, 1151.255 
	L 190.701, 1149.325 
	L 198.992, 1146.365 
	L 207.283, 1143.952 
	L 215.575, 1143.435 
	L 223.866, 1143.126 
	L 232.158, 1142.456 
	L 240.449, 1141.567 
" />
<path d="M 240.449, 1141.567 
	L 248.740, 1143.781 
	L 257.032, 1145.023 
	L 265.323, 1145.040 
	L 273.614, 1144.092 
	L 281.906, 1144.250 
	L 290.197, 1145.557 
	L 298.488, 1145.897 
	L 306.780, 1150.150 
	L 315.071, 1153.644 
	L 323.362, 1156.912 
" />
<path d="M 323.362, 1156.912 
" />
<path d="M 0.001, 1145.477 
	L 0.000, 1145.478 
	L 7.866, 1144.624 
	L 15.732, 1143.849 
	L 23.598, 1141.528 
	L 31.465, 1139.746 
	L 39.331, 1139.566 
	L 47.197, 1141.150 
	L 55.063, 1144.223 
	L 62.929, 1147.507 
	L 70.795, 1149.467 
" />
<path d="M 70.795, 1149.467 
	L 78.661, 1149.876 
	L 86.528, 1149.995 
	L 94.394, 1150.327 
	L 102.260, 1147.487 
	L 110.126, 1145.802 
	L 117.992, 1147.417 
	L 125.858, 1144.744 
	L 133.724, 1144.323 
	L 141.591, 1143.902 
	L 149.457, 1144.323 
" />
<path d="M 149.457, 1144.323 
	L 157.323, 1144.526 
	L 165.189, 1145.947 
	L 173.055, 1143.727 
	L 180.921, 1141.528 
	L 188.787, 1138.157 
	L 196.654, 1135.408 
	L 204.520, 1134.820 
	L 212.386, 1134.467 
	L 220.252, 1133.705 
	L 228.118, 1132.693 
" />
<path d="M 228.118, 1132.693 
	L 235.984, 1135.213 
	L 243.850, 1136.628 
	L 251.717, 1136.648 
	L 259.583, 1135.568 
	L 267.449, 1135.748 
	L 275.315, 1137.236 
	L 283.181, 1137.624 
	L 291.047, 1142.467 
	L 298.913, 1146.447 
	L 306.780, 1150.168 
" />
<path d="M 306.780, 1150.168 
" />
<path d="M 0.001, 1135.784 
	L 0.000, 1135.785 
	L 7.441, 1135.425 
	L 14.882, 1135.099 
	L 22.323, 1134.120 
	L 29.764, 1133.369 
	L 37.205, 1133.293 
	L 44.646, 1133.961 
	L 52.087, 1135.256 
	L 59.528, 1136.640 
	L 66.969, 1137.466 
" />
<path d="M 66.969, 1137.466 
	L 74.409, 1137.638 
	L 81.850, 1137.688 
	L 89.291, 1137.828 
	L 96.732, 1136.631 
	L 104.173, 1135.921 
	L 111.614, 1136.602 
	L 119.055, 1135.476 
	L 126.496, 1135.298 
	L 133.937, 1135.121 
	L 141.378, 1135.298 
" />
<path d="M 141.378, 1135.298 
	L 148.819, 1135.384 
	L 156.260, 1135.982 
	L 163.701, 1135.047 
	L 171.142, 1134.120 
	L 178.583, 1132.699 
	L 186.024, 1131.541 
	L 193.465, 1131.293 
	L 200.906, 1131.144 
	L 208.346, 1130.823 
	L 215.787, 1130.397 
" />
<path d="M 215.787, 1130.397 
	L 223.228, 1131.459 
	L 230.669, 1132.055 
	L 238.110, 1132.063 
	L 245.551, 1131.608 
	L 252.992, 1131.684 
	L 260.433, 1132.311 
	L 267.874, 1132.474 
	L 275.315, 1134.516 
	L 282.756, 1136.193 
	L 290.197, 1137.761 
" />
<path d="M 290.197, 1137.761 
" />
<path d="M 0.001, 1128.203 
	L 0.000, 1128.204 
	L 7.087, 1127.962 
	L 14.173, 1127.741 
	L 21.260, 1127.083 
	L 28.346, 1126.577 
	L 35.433, 1126.526 
	L 42.520, 1126.975 
	L 49.606, 1127.848 
	L 56.693, 1128.779 
	L 63.780, 1129.337 
" />
<path d="M 63.780, 1129.337 
	L 70.866, 1129.452 
	L 77.953, 1129.486 
	L 85.039, 1129.580 
	L 92.126, 1128.774 
	L 99.213, 1128.296 
	L 106.299, 1128.754 
	L 113.386, 1127.996 
	L 120.472, 1127.876 
	L 127.559, 1127.757 
	L 134.646, 1127.876 
" />
<path d="M 134.646, 1127.876 
	L 141.732, 1127.934 
	L 148.819, 1128.337 
	L 155.906, 1127.707 
	L 162.992, 1127.083 
	L 170.079, 1126.126 
	L 177.165, 1125.346 
	L 184.252, 1125.179 
	L 191.339, 1125.079 
	L 198.425, 1124.863 
	L 205.512, 1124.575 
" />
<path d="M 205.512, 1124.575 
	L 212.598, 1125.291 
	L 219.685, 1125.692 
	L 226.772, 1125.698 
	L 233.858, 1125.391 
	L 240.945, 1125.442 
	L 248.032, 1125.865 
	L 255.118, 1125.975 
	L 262.205, 1127.349 
	L 269.291, 1128.479 
	L 276.378, 1129.535 
" />
<path d="M 276.378, 1129.535 
" />
<path d="M 0.001, 1122.815 
	L 0.000, 1122.815 
	L 6.732, 1122.293 
	L 13.465, 1121.818 
	L 20.197, 1120.397 
	L 26.929, 1119.307 
	L 33.661, 1119.196 
	L 40.394, 1120.166 
	L 47.126, 1122.047 
	L 53.858, 1124.058 
	L 60.591, 1125.259 
" />
<path d="M 60.591, 1125.259 
	L 67.323, 1125.508 
	L 74.055, 1125.581 
	L 80.787, 1125.785 
	L 87.520, 1124.046 
	L 94.252, 1123.015 
	L 100.984, 1124.003 
	L 107.717, 1122.367 
	L 114.449, 1122.109 
	L 121.181, 1121.851 
	L 127.913, 1122.109 
" />
<path d="M 127.913, 1122.109 
	L 134.646, 1122.234 
	L 141.378, 1123.103 
	L 148.110, 1121.743 
	L 154.843, 1120.397 
	L 161.575, 1118.334 
	L 168.307, 1116.651 
	L 175.039, 1116.291 
	L 181.772, 1116.075 
	L 188.504, 1115.608 
	L 195.236, 1114.988 
" />
<path d="M 195.236, 1114.988 
	L 201.969, 1116.532 
	L 208.701, 1117.398 
	L 215.433, 1117.410 
	L 222.165, 1116.748 
	L 228.898, 1116.859 
	L 235.630, 1117.770 
	L 242.362, 1118.007 
	L 249.095, 1120.973 
	L 255.827, 1123.409 
	L 262.559, 1125.687 
" />
<path d="M 262.559, 1125.687 
" />
<path d="M 0.001, 1115.673 
	L 0.000, 1115.673 
	L 6.378, 1115.322 
	L 12.756, 1115.002 
	L 19.134, 1114.046 
	L 25.512, 1113.312 
	L 31.890, 1113.238 
	L 38.268, 1113.891 
	L 44.646, 1115.157 
	L 51.024, 1116.510 
	L 57.402, 1117.318 
" />
<path d="M 57.402, 1117.318 
	L 63.780, 1117.486 
	L 70.157, 1117.535 
	L 76.535, 1117.672 
	L 82.913, 1116.502 
	L 89.291, 1115.807 
	L 95.669, 1116.473 
	L 102.047, 1115.372 
	L 108.425, 1115.198 
	L 114.803, 1115.024 
	L 121.181, 1115.198 
" />
<path d="M 121.181, 1115.198 
	L 127.559, 1115.282 
	L 133.937, 1115.867 
	L 140.315, 1114.952 
	L 146.693, 1114.046 
	L 153.071, 1112.657 
	L 159.449, 1111.525 
	L 165.827, 1111.283 
	L 172.205, 1111.137 
	L 178.583, 1110.823 
	L 184.961, 1110.406 
" />
<path d="M 184.961, 1110.406 
	L 191.339, 1111.444 
	L 197.717, 1112.027 
	L 204.095, 1112.036 
	L 210.472, 1111.591 
	L 216.850, 1111.665 
	L 223.228, 1112.278 
	L 229.606, 1112.438 
	L 235.984, 1114.433 
	L 242.362, 1116.073 
	L 248.740, 1117.606 
" />
<path d="M 248.740, 1117.606 
" />
<path d="M 0.001, 1108.665 
	L 0.000, 1108.666 
	L 6.094, 1108.524 
	L 12.189, 1108.396 
	L 18.283, 1108.013 
	L 24.378, 1107.718 
	L 30.472, 1107.688 
	L 36.567, 1107.950 
	L 42.661, 1108.458 
	L 48.756, 1109.001 
	L 54.850, 1109.325 
" />
<path d="M 54.850, 1109.325 
	L 60.945, 1109.393 
	L 67.039, 1109.412 
	L 73.134, 1109.468 
	L 79.228, 1108.998 
	L 85.323, 1108.719 
	L 91.417, 1108.987 
	L 97.512, 1108.544 
	L 103.606, 1108.475 
	L 109.701, 1108.405 
	L 115.795, 1108.475 
" />
<path d="M 115.795, 1108.475 
	L 121.890, 1108.508 
	L 127.984, 1108.744 
	L 134.079, 1108.376 
	L 140.173, 1108.013 
	L 146.268, 1107.455 
	L 152.362, 1107.001 
	L 158.457, 1106.904 
	L 164.551, 1106.845 
	L 170.646, 1106.720 
	L 176.740, 1106.552 
" />
<path d="M 176.740, 1106.552 
	L 182.835, 1106.969 
	L 188.929, 1107.203 
	L 195.024, 1107.206 
	L 201.118, 1107.027 
	L 207.213, 1107.057 
	L 213.307, 1107.303 
	L 219.402, 1107.367 
	L 225.496, 1108.168 
	L 231.591, 1108.826 
	L 237.685, 1109.442 
" />
<path d="M 237.685, 1109.442 
" />
<path d="M 0.001, 1102.280 
	L 0.000, 1102.281 
	L 5.882, 1102.281 
	L 11.764, 1102.281 
	L 17.646, 1102.281 
	L 23.528, 1102.281 
	L 29.409, 1102.281 
	L 35.291, 1102.281 
	L 41.173, 1102.281 
	L 47.055, 1102.281 
	L 52.937, 1102.281 
" />
<path d="M 52.937, 1102.281 
	L 58.819, 1102.281 
	L 64.701, 1102.281 
	L 70.583, 1102.281 
	L 76.465, 1102.281 
	L 82.346, 1102.281 
	L 88.228, 1102.281 
	L 94.110, 1102.281 
	L 99.992, 1102.281 
	L 105.874, 1102.281 
	L 111.756, 1102.281 
" />
<path d="M 111.756, 1102.281 
	L 117.638, 1102.281 
	L 123.520, 1102.281 
	L 129.402, 1102.281 
	L 135.283, 1102.281 
	L 141.165, 1102.281 
	L 147.047, 1102.281 
	L 152.929, 1102.281 
	L 158.811, 1102.281 
	L 164.693, 1102.281 
	L 170.575, 1102.281 
" />
<path d="M 170.575, 1102.281 
	L 176.457, 1102.281 
	L 182.339, 1102.281 
	L 188.221, 1102.281 
	L 194.102, 1102.281 
	L 199.984, 1102.281 
	L 205.866, 1102.281 
	L 211.748, 1102.281 
	L 217.630, 1102.281 
	L 223.512, 1102.281 
	L 229.394, 1102.281 
" />
<path d="M 229.394, 1102.281 
" />
<path d="M 0.001, 1096.635 
	L 0.000, 1096.635 
	L 5.669, 1096.679 
	L 11.339, 1096.718 
	L 17.008, 1096.836 
	L 22.677, 1096.926 
	L 28.346, 1096.935 
	L 34.016, 1096.855 
	L 39.685, 1096.699 
	L 45.354, 1096.533 
	L 51.024, 1096.433 
" />
<path d="M 51.024, 1096.433 
	L 56.693, 1096.413 
	L 62.362, 1096.407 
	L 68.032, 1096.390 
	L 73.701, 1096.534 
	L 79.370, 1096.619 
	L 85.039, 1096.538 
	L 90.709, 1096.673 
	L 96.378, 1096.694 
	L 102.047, 1096.715 
	L 107.717, 1096.694 
" />
<path d="M 107.717, 1096.694 
	L 113.386, 1096.683 
	L 119.055, 1096.612 
	L 124.724, 1096.724 
	L 130.394, 1096.836 
	L 136.063, 1097.006 
	L 141.732, 1097.146 
	L 147.402, 1097.175 
	L 153.071, 1097.193 
	L 158.740, 1097.231 
	L 164.409, 1097.283 
" />
<path d="M 164.409, 1097.283 
	L 170.079, 1097.155 
	L 175.748, 1097.083 
	L 181.417, 1097.082 
	L 187.087, 1097.137 
	L 192.756, 1097.128 
	L 198.425, 1097.053 
	L 204.095, 1097.033 
	L 209.764, 1096.788 
	L 215.433, 1096.586 
	L 221.102, 1096.398 
" />
<path d="M 221.102, 1096.398 
" />
<path d="M 0.001, 1089.314 
	L 0.000, 1089.315 
	L 5.386, 1089.822 
	L 10.772, 1090.283 
	L 16.157, 1091.663 
	L 21.543, 1092.721 
	L 26.929, 1092.828 
	L 32.315, 1091.887 
	L 37.701, 1090.061 
	L 43.087, 1088.109 
	L 48.472, 1086.944 
" />
<path d="M 48.472, 1086.944 
	L 53.858, 1086.701 
	L 59.244, 1086.630 
	L 64.630, 1086.433 
	L 70.016, 1088.121 
	L 75.402, 1089.122 
	L 80.787, 1088.163 
	L 86.173, 1089.751 
	L 91.559, 1090.001 
	L 96.945, 1090.252 
	L 102.331, 1090.001 
" />
<path d="M 102.331, 1090.001 
	L 107.717, 1089.880 
	L 113.102, 1089.036 
	L 118.488, 1090.356 
	L 123.874, 1091.663 
	L 129.260, 1093.666 
	L 134.646, 1095.299 
	L 140.032, 1095.649 
	L 145.417, 1095.859 
	L 150.803, 1096.311 
	L 156.189, 1096.913 
" />
<path d="M 156.189, 1096.913 
	L 161.575, 1095.415 
	L 166.961, 1094.575 
	L 172.346, 1094.562 
	L 177.732, 1095.204 
	L 183.118, 1095.097 
	L 188.504, 1094.213 
	L 193.890, 1093.983 
	L 199.276, 1091.104 
	L 204.661, 1088.739 
	L 210.047, 1086.528 
" />
<path d="M 210.047, 1086.528 
" />
<path d="M 0.001, 1085.068 
	L 0.000, 1085.069 
	L 5.244, 1085.431 
	L 10.488, 1085.761 
	L 15.732, 1086.748 
	L 20.976, 1087.506 
	L 26.220, 1087.582 
	L 31.465, 1086.909 
	L 36.709, 1085.602 
	L 41.953, 1084.205 
	L 47.197, 1083.371 
" />
<path d="M 47.197, 1083.371 
	L 52.441, 1083.198 
	L 57.685, 1083.147 
	L 62.929, 1083.006 
	L 68.173, 1084.213 
	L 73.417, 1084.930 
	L 78.661, 1084.244 
	L 83.906, 1085.380 
	L 89.150, 1085.559 
	L 94.394, 1085.738 
	L 99.638, 1085.560 
" />
<path d="M 99.638, 1085.560 
	L 104.882, 1085.472 
	L 110.126, 1084.869 
	L 115.370, 1085.813 
	L 120.614, 1086.748 
	L 125.858, 1088.182 
	L 131.102, 1089.351 
	L 136.346, 1089.601 
	L 141.591, 1089.751 
	L 146.835, 1090.075 
	L 152.079, 1090.506 
" />
<path d="M 152.079, 1090.506 
	L 157.323, 1089.434 
	L 162.567, 1088.832 
	L 167.811, 1088.824 
	L 173.055, 1089.283 
	L 178.299, 1089.206 
	L 183.543, 1088.574 
	L 188.787, 1088.408 
	L 194.032, 1086.348 
	L 199.276, 1084.656 
	L 204.520, 1083.074 
" />
<path d="M 204.520, 1083.074 
" />
<path d="M 0.001, 1081.027 
	L 0.000, 1081.028 
	L 5.031, 1081.255 
	L 10.063, 1081.461 
	L 15.094, 1082.079 
	L 20.126, 1082.554 
	L 25.157, 1082.602 
	L 30.189, 1082.180 
	L 35.220, 1081.362 
	L 40.252, 1080.487 
	L 45.283, 1079.965 
" />
<path d="M 45.283, 1079.965 
	L 50.315, 1079.856 
	L 55.346, 1079.824 
	L 60.378, 1079.736 
	L 65.409, 1080.492 
	L 70.441, 1080.941 
	L 75.472, 1080.511 
	L 80.504, 1081.223 
	L 85.535, 1081.335 
	L 90.567, 1081.447 
	L 95.598, 1081.335 
" />
<path d="M 95.598, 1081.335 
	L 100.630, 1081.281 
	L 105.661, 1080.902 
	L 110.693, 1081.494 
	L 115.724, 1082.079 
	L 120.756, 1082.977 
	L 125.787, 1083.709 
	L 130.819, 1083.866 
	L 135.850, 1083.959 
	L 140.882, 1084.163 
	L 145.913, 1084.432 
" />
<path d="M 145.913, 1084.432 
	L 150.945, 1083.761 
	L 155.976, 1083.384 
	L 161.008, 1083.379 
	L 166.039, 1083.667 
	L 171.071, 1083.619 
	L 176.102, 1083.222 
	L 181.134, 1083.119 
	L 186.165, 1081.829 
	L 191.197, 1080.769 
	L 196.228, 1079.778 
" />
<path d="M 196.228, 1079.778 
" />
<path d="M 0.001, 1076.946 
	L 0.000, 1076.947 
	L 4.819, 1077.097 
	L 9.638, 1077.234 
	L 14.457, 1077.644 
	L 19.276, 1077.959 
	L 24.094, 1077.990 
	L 28.913, 1077.711 
	L 33.732, 1077.168 
	L 38.551, 1076.588 
	L 43.370, 1076.242 
" />
<path d="M 43.370, 1076.242 
	L 48.189, 1076.170 
	L 53.008, 1076.149 
	L 57.827, 1076.090 
	L 62.646, 1076.592 
	L 67.465, 1076.889 
	L 72.283, 1076.604 
	L 77.102, 1077.076 
	L 81.921, 1077.151 
	L 86.740, 1077.225 
	L 91.559, 1077.151 
" />
<path d="M 91.559, 1077.151 
	L 96.378, 1077.115 
	L 101.197, 1076.864 
	L 106.016, 1077.256 
	L 110.835, 1077.644 
	L 115.654, 1078.240 
	L 120.472, 1078.725 
	L 125.291, 1078.829 
	L 130.110, 1078.891 
	L 134.929, 1079.026 
	L 139.748, 1079.204 
" />
<path d="M 139.748, 1079.204 
	L 144.567, 1078.759 
	L 149.386, 1078.510 
	L 154.205, 1078.506 
	L 159.024, 1078.697 
	L 163.843, 1078.665 
	L 168.661, 1078.402 
	L 173.480, 1078.334 
	L 178.299, 1077.478 
	L 183.118, 1076.775 
	L 187.937, 1076.118 
" />
<path d="M 187.937, 1076.118 
" />
<path d="M 0.001, 1070.639 
	L 0.000, 1070.640 
	L 4.677, 1071.243 
	L 9.354, 1071.791 
	L 14.031, 1073.431 
	L 18.709, 1074.689 
	L 23.386, 1074.816 
	L 28.063, 1073.697 
	L 32.740, 1071.527 
	L 37.417, 1069.207 
	L 42.094, 1067.822 
" />
<path d="M 42.094, 1067.822 
	L 46.772, 1067.533 
	L 51.449, 1067.449 
	L 56.126, 1067.215 
	L 60.803, 1069.221 
	L 65.480, 1070.411 
	L 70.157, 1069.270 
	L 74.835, 1071.159 
	L 79.512, 1071.456 
	L 84.189, 1071.753 
	L 88.866, 1071.456 
" />
<path d="M 88.866, 1071.456 
	L 93.543, 1071.313 
	L 98.220, 1070.309 
	L 102.898, 1071.877 
	L 107.575, 1073.431 
	L 112.252, 1075.812 
	L 116.929, 1077.754 
	L 121.606, 1078.169 
	L 126.283, 1078.418 
	L 130.961, 1078.957 
	L 135.638, 1079.672 
" />
<path d="M 135.638, 1079.672 
	L 140.315, 1077.891 
	L 144.992, 1076.892 
	L 149.669, 1076.878 
	L 154.346, 1077.641 
	L 159.024, 1077.513 
	L 163.701, 1076.463 
	L 168.378, 1076.189 
	L 173.055, 1072.767 
	L 177.732, 1069.956 
	L 182.409, 1067.327 
" />
<path d="M 182.409, 1067.327 
" />
</g><g style="stroke:rgb(255,0,0); fill:none; stroke-width:0.100mm" >
<path d="M 14.173, 969.280 
	L 14.173, 972.115 
" />
<path d="M 14.173, 970.698 
	L 16.299, 969.280 
	L 17.362, 969.280 
" />
<path d="M 20.551, 970.698 
	L 23.740, 970.698 
	L 24.803, 969.989 
	L 23.740, 969.280 
	L 21.614, 969.280 
	L 20.551, 969.989 
	L 20.551, 971.406 
	L 21.614, 972.115 
	L 24.803, 972.115 
" />
<path d="M 31.181, 971.406 
	L 30.118, 972.115 
	L 29.055, 972.115 
	L 27.992, 971.406 
	L 27.992, 969.989 
	L 29.055, 969.280 
	L 30.118, 969.280 
	L 31.181, 969.989 
" />
<path d="M 34.370, 972.115 
	L 33.307, 971.406 
	L 33.307, 969.989 
	L 34.370, 969.280 
	L 35.433, 969.280 
	L 36.496, 969.989 
	L 36.496, 971.406 
	L 35.433, 972.115 
	L 34.370, 972.115 
" />
<path d="M 39.685, 969.280 
	L 39.685, 972.115 
" />
<path d="M 39.685, 970.698 
	L 41.811, 969.280 
	L 42.874, 969.280 
" />
<path d="M 49.252, 967.863 
	L 49.252, 972.115 
	L 47.126, 972.115 
	L 46.063, 971.406 
	L 46.063, 969.989 
	L 47.126, 969.280 
	L 49.252, 969.280 
" />
<path d="M 49.252, 972.115 
	L 50.315, 972.115 
" />
<path d="M 52.441, 970.698 
	L 55.630, 970.698 
	L 56.693, 969.989 
	L 55.630, 969.280 
	L 53.504, 969.280 
	L 52.441, 969.989 
	L 52.441, 971.406 
	L 53.504, 972.115 
	L 56.693, 972.115 
" />
<path d="M 62.008, 967.863 
	L 62.008, 972.115 
	L 59.882, 972.115 
	L 58.819, 971.406 
	L 58.819, 969.989 
	L 59.882, 969.280 
	L 62.008, 969.280 
" />
<path d="M 62.008, 972.115 
	L 63.071, 972.115 
" />
<path d="M 73.701, 967.863 
	L 73.701, 968.572 
" />
<path d="M 72.638, 969.280 
	L 73.701, 969.280 
	L 73.701, 972.115 
" />
<path d="M 72.638, 972.115 
	L 74.764, 972.115 
" />
<path d="M 77.953, 972.115 
	L 77.953, 969.280 
" />
<path d="M 77.953, 969.989 
	L 79.016, 969.280 
	L 80.079, 969.280 
	L 81.142, 969.989 
	L 81.142, 972.115 
" />
<path d="M 92.835, 972.115 
	L 92.835, 967.863 
	L 90.709, 967.863 
	L 94.961, 967.863 
" />
<path d="M 97.087, 969.280 
	L 97.087, 971.406 
	L 98.150, 972.115 
	L 100.276, 972.115 
	L 100.276, 969.280 
" />
<path d="M 106.654, 969.280 
	L 104.528, 969.280 
	L 103.465, 969.989 
	L 104.528, 970.698 
	L 105.591, 970.698 
	L 106.654, 971.406 
	L 105.591, 972.115 
	L 103.465, 972.115 
" />
<path d="M 109.843, 967.863 
	L 109.843, 972.115 
" />
<path d="M 109.843, 969.280 
	L 111.969, 969.280 
	L 113.032, 969.989 
	L 113.032, 972.115 
" />
<path d="M 116.220, 970.698 
	L 119.409, 970.698 
	L 120.472, 969.989 
	L 119.409, 969.280 
	L 117.283, 969.280 
	L 116.220, 969.989 
	L 116.220, 971.406 
	L 117.283, 972.115 
	L 120.472, 972.115 
" />
<path d="M 123.661, 967.863 
	L 123.661, 972.115 
	L 125.787, 972.115 
" />
<path d="M 122.598, 969.280 
	L 125.787, 969.280 
" />
<path d="M 131.102, 967.863 
	L 131.102, 968.572 
" />
<path d="M 130.039, 969.280 
	L 131.102, 969.280 
	L 131.102, 972.115 
" />
<path d="M 130.039, 972.115 
	L 132.165, 972.115 
" />
<path d="M 137.480, 967.863 
	L 137.480, 968.572 
" />
<path d="M 136.417, 969.280 
	L 137.480, 969.280 
	L 137.480, 972.115 
" />
<path d="M 136.417, 972.115 
	L 138.543, 972.115 
" />
<path d="M 152.362, 968.572 
	L 151.299, 967.863 
	L 149.173, 967.863 
	L 148.110, 968.572 
	L 148.110, 971.406 
	L 149.173, 972.115 
	L 151.299, 972.115 
	L 152.362, 971.406 
	L 152.362, 969.989 
	L 149.173, 969.989 
" />
<path d="M 154.488, 970.698 
	L 157.677, 970.698 
	L 158.740, 969.989 
	L 157.677, 969.280 
	L 155.551, 969.280 
	L 154.488, 969.989 
	L 154.488, 971.406 
	L 155.551, 972.115 
	L 158.740, 972.115 
" />
<path d="M 161.929, 972.115 
	L 160.866, 971.406 
	L 160.866, 969.989 
	L 161.929, 969.280 
	L 162.992, 969.280 
	L 164.055, 969.989 
	L 164.055, 971.406 
	L 162.992, 972.115 
	L 161.929, 972.115 
" />
<path d="M 167.244, 969.280 
	L 167.244, 972.115 
" />
<path d="M 167.244, 970.698 
	L 169.370, 969.280 
	L 170.433, 969.280 
" />
<path d="M 173.622, 973.532 
	L 175.748, 973.532 
	L 176.811, 972.824 
	L 176.811, 969.280 
	L 174.685, 969.280 
	L 173.622, 969.989 
	L 173.622, 971.406 
	L 174.685, 972.115 
	L 176.811, 972.115 
" />
<path d="M 182.126, 967.863 
	L 182.126, 968.572 
" />
<path d="M 181.063, 969.280 
	L 182.126, 969.280 
	L 182.126, 972.115 
" />
<path d="M 181.063, 972.115 
	L 183.189, 972.115 
" />
<path d="M 190.630, 972.115 
	L 187.441, 972.115 
	L 186.378, 971.406 
	L 186.378, 969.989 
	L 187.441, 969.280 
	L 189.567, 969.280 
	L 189.567, 972.115 
" />
<path d="M 14.173, 979.202 
	L 14.173, 974.950 
" />
<path d="M 17.362, 979.202 
	L 14.173, 977.784 
	L 17.362, 976.367 
" />
<path d="M 24.803, 979.202 
	L 21.614, 979.202 
	L 20.551, 978.493 
	L 20.551, 977.076 
	L 21.614, 976.367 
	L 23.740, 976.367 
	L 23.740, 979.202 
" />
<path d="M 27.992, 979.202 
	L 26.929, 978.493 
	L 26.929, 977.076 
	L 27.992, 976.367 
	L 29.055, 976.367 
	L 30.118, 977.076 
	L 30.118, 978.493 
	L 29.055, 979.202 
	L 27.992, 979.202 
" />
<path d="M 34.370, 974.950 
	L 34.370, 979.202 
	L 36.496, 979.202 
" />
<path d="M 33.307, 976.367 
	L 36.496, 976.367 
" />
<path d="M 39.685, 977.784 
	L 42.874, 977.784 
	L 43.937, 977.076 
	L 42.874, 976.367 
	L 40.748, 976.367 
	L 39.685, 977.076 
	L 39.685, 978.493 
	L 40.748, 979.202 
	L 43.937, 979.202 
" />
<path d="M 50.315, 978.493 
	L 49.252, 979.202 
	L 48.189, 979.202 
	L 47.126, 978.493 
	L 47.126, 977.076 
	L 48.189, 976.367 
	L 49.252, 976.367 
	L 50.315, 977.076 
" />
<path d="M 63.071, 979.202 
	L 60.945, 979.202 
	L 60.945, 974.950 
	L 63.071, 974.950 
" />
<path d="M 65.197, 979.202 
	L 67.323, 979.202 
	L 67.323, 974.950 
	L 65.197, 974.950 
" />
<path d="M 74.764, 974.950 
	L 71.575, 977.076 
	L 74.764, 979.202 
" />
<path d="M 77.953, 974.950 
	L 81.142, 977.076 
	L 77.953, 979.202 
" />
<path d="M 90.709, 975.658 
	L 91.772, 974.950 
	L 93.898, 974.950 
	L 94.961, 975.658 
	L 94.961, 976.367 
	L 90.709, 978.493 
	L 90.709, 979.202 
	L 94.961, 979.202 
" />
<path d="M 97.087, 978.493 
	L 98.150, 979.202 
	L 100.276, 979.202 
	L 101.339, 978.493 
	L 101.339, 975.658 
	L 100.276, 974.950 
	L 98.150, 974.950 
	L 97.087, 975.658 
	L 97.087, 978.493 
" />
<path d="M 104.528, 979.202 
	L 106.654, 979.202 
" />
<path d="M 105.591, 979.202 
	L 105.591, 974.950 
	L 104.528, 975.658 
" />
<path d="M 110.906, 979.202 
	L 111.969, 979.202 
	L 114.095, 977.784 
	L 114.095, 975.658 
	L 113.032, 974.950 
	L 110.906, 974.950 
	L 109.843, 975.658 
	L 109.843, 976.367 
	L 110.906, 977.076 
	L 114.095, 977.076 
" />
<path d="M 14.173, 1000.461 
	L 17.362, 1000.461 
	L 18.425, 999.753 
	L 18.425, 998.335 
	L 17.362, 997.627 
	L 15.236, 997.627 
" />
<path d="M 15.236, 996.209 
	L 15.236, 1000.461 
" />
<path d="M 24.803, 1000.461 
	L 21.614, 1000.461 
	L 20.551, 999.753 
	L 20.551, 998.335 
	L 21.614, 997.627 
	L 23.740, 997.627 
	L 23.740, 1000.461 
" />
<path d="M 26.929, 1000.461 
	L 26.929, 997.627 
" />
<path d="M 26.929, 998.335 
	L 27.992, 997.627 
	L 29.055, 997.627 
	L 30.118, 998.335 
	L 30.118, 1000.461 
" />
<path d="M 36.496, 996.209 
	L 36.496, 1000.461 
	L 34.370, 1000.461 
	L 33.307, 999.753 
	L 33.307, 998.335 
	L 34.370, 997.627 
	L 36.496, 997.627 
" />
<path d="M 36.496, 1000.461 
	L 37.559, 1000.461 
" />
<path d="M 43.937, 999.753 
	L 42.874, 1000.461 
	L 41.811, 1000.461 
	L 40.748, 999.753 
	L 40.748, 998.335 
	L 41.811, 997.627 
	L 42.874, 997.627 
	L 43.937, 998.335 
" />
<path d="M 50.315, 1000.461 
	L 47.126, 1000.461 
	L 46.063, 999.753 
	L 46.063, 998.335 
	L 47.126, 997.627 
	L 49.252, 997.627 
	L 49.252, 1000.461 
" />
<path d="M 52.441, 1000.461 
	L 52.441, 997.627 
" />
<path d="M 52.441, 998.335 
	L 53.504, 997.627 
	L 54.567, 998.335 
	L 54.567, 1000.461 
" />
<path d="M 54.567, 998.335 
	L 55.630, 997.627 
	L 56.693, 998.335 
	L 56.693, 1000.461 
" />
<path d="M 58.819, 1001.879 
	L 58.819, 997.627 
	L 60.945, 997.627 
	L 62.008, 998.335 
	L 62.008, 999.753 
	L 60.945, 1000.461 
	L 58.819, 1000.461 
" />
<path d="M 74.764, 996.209 
	L 74.764, 1000.461 
	L 72.638, 1000.461 
	L 71.575, 999.753 
	L 71.575, 998.335 
	L 72.638, 997.627 
	L 74.764, 997.627 
" />
<path d="M 74.764, 1000.461 
	L 75.827, 1000.461 
" />
<path d="M 79.016, 1000.461 
	L 77.953, 999.753 
	L 77.953, 998.335 
	L 79.016, 997.627 
	L 80.079, 997.627 
	L 81.142, 998.335 
	L 81.142, 999.753 
	L 80.079, 1000.461 
	L 79.016, 1000.461 
" />
<path d="M 84.331, 997.627 
	L 84.331, 999.753 
	L 85.394, 1000.461 
	L 86.457, 999.753 
	L 86.457, 998.335 
" />
<path d="M 86.457, 999.753 
	L 87.520, 1000.461 
	L 88.583, 999.753 
	L 88.583, 997.627 
" />
<path d="M 90.709, 1000.461 
	L 90.709, 997.627 
" />
<path d="M 90.709, 998.335 
	L 91.772, 997.627 
	L 92.835, 997.627 
	L 93.898, 998.335 
	L 93.898, 1000.461 
" />
<path d="M 98.150, 996.209 
	L 99.213, 996.209 
	L 99.213, 1000.461 
" />
<path d="M 98.150, 1000.461 
	L 100.276, 1000.461 
" />
<path d="M 104.528, 1000.461 
	L 103.465, 999.753 
	L 103.465, 998.335 
	L 104.528, 997.627 
	L 105.591, 997.627 
	L 106.654, 998.335 
	L 106.654, 999.753 
	L 105.591, 1000.461 
	L 104.528, 1000.461 
" />
<path d="M 114.095, 1000.461 
	L 110.906, 1000.461 
	L 109.843, 999.753 
	L 109.843, 998.335 
	L 110.906, 997.627 
	L 113.032, 997.627 
	L 113.032, 1000.461 
" />
<path d="M 119.409, 996.209 
	L 119.409, 1000.461 
	L 117.283, 1000.461 
	L 116.220, 999.753 
	L 116.220, 998.335 
	L 117.283, 997.627 
	L 119.409, 997.627 
" />
<path d="M 119.409, 1000.461 
	L 120.472, 1000.461 
" />
<path d="M 126.850, 999.753 
	L 125.787, 1000.461 
	L 124.724, 1000.461 
	L 123.661, 999.753 
	L 123.661, 998.335 
	L 124.724, 997.627 
	L 125.787, 997.627 
	L 126.850, 998.335 
" />
<path d="M 130.039, 1000.461 
	L 128.976, 999.753 
	L 128.976, 998.335 
	L 130.039, 997.627 
	L 131.102, 997.627 
	L 132.165, 998.335 
	L 132.165, 999.753 
	L 131.102, 1000.461 
	L 130.039, 1000.461 
" />
<path d="M 138.543, 996.209 
	L 138.543, 1000.461 
	L 136.417, 1000.461 
	L 135.354, 999.753 
	L 135.354, 998.335 
	L 136.417, 997.627 
	L 138.543, 997.627 
" />
<path d="M 138.543, 1000.461 
	L 139.606, 1000.461 
" />
<path d="M 141.732, 999.044 
	L 144.921, 999.044 
	L 145.984, 998.335 
	L 144.921, 997.627 
	L 142.795, 997.627 
	L 141.732, 998.335 
	L 141.732, 999.753 
	L 142.795, 1000.461 
	L 145.984, 1000.461 
" />
<path d="M 154.488, 1000.461 
	L 158.740, 996.209 
" />
<path d="M 158.740, 1000.461 
	L 154.488, 996.209 
" />
<path d="M 160.866, 1000.461 
	L 165.118, 996.209 
" />
<path d="M 165.118, 1000.461 
	L 160.866, 996.209 
" />
<path d="M 167.244, 1000.461 
	L 171.496, 996.209 
" />
<path d="M 171.496, 1000.461 
	L 167.244, 996.209 
" />
<path d="M 173.622, 1000.461 
	L 177.874, 996.209 
" />
<path d="M 177.874, 1000.461 
	L 173.622, 996.209 
" />
<path d="M 180.000, 998.335 
	L 184.252, 998.335 
" />
<path d="M 186.378, 1000.461 
	L 190.630, 996.209 
" />
<path d="M 190.630, 1000.461 
	L 186.378, 996.209 
" />
<path d="M 192.756, 1000.461 
	L 197.008, 996.209 
" />
<path d="M 197.008, 1000.461 
	L 192.756, 996.209 
" />
<path d="M 199.134, 1000.461 
	L 203.386, 996.209 
" />
<path d="M 203.386, 1000.461 
	L 199.134, 996.209 
" />
<path d="M 205.512, 1000.461 
	L 209.764, 996.209 
" />
<path d="M 209.764, 1000.461 
	L 205.512, 996.209 
" />
<path d="M 17.717, 585.894 
	L 17.717, 585.894 
	L 17.717, 584.548 
	L 37.382, 584.548 
	L 37.382, 585.894 
	L 17.717, 585.894 
	L 17.717, 580.898 
	L 17.717, 579.552 
	L 37.382, 579.552 
	L 37.382, 580.898 
	L 17.717, 580.898 
	L 17.717, 578.170 
" />
<path d="M 17.717, 578.170 
	L 17.717, 576.824 
	L 37.382, 576.824 
	L 37.382, 578.170 
	L 17.717, 578.170 
" />
<path d="M 37.666, 585.894 
	L 37.665, 585.894 
	L 37.665, 576.824 
	L 39.366, 576.824 
	L 39.366, 585.894 
	L 37.665, 585.894 
" />
<path d="M 39.367, 585.894 
	L 39.366, 585.894 
	L 39.366, 579.091 
	L 51.626, 579.091 
	L 51.626, 580.438 
	L 41.067, 580.438 
	L 41.067, 581.820 
	L 51.626, 581.820 
	L 51.626, 583.166 
	L 41.067, 583.166 
	L 41.067, 585.894 
	L 39.366, 585.894 
" />
<path d="M 39.366, 585.894 
" />
<path d="M 62.257, 581.819 
	L 62.256, 581.820 
	L 62.256, 580.438 
	L 52.902, 580.438 
	L 52.902, 581.820 
	L 62.256, 581.820 
	L 51.343, 585.894 
	L 51.343, 579.091 
	L 63.815, 579.091 
	L 63.815, 583.166 
	L 52.902, 583.166 
	L 52.902, 584.548 
" />
<path d="M 52.902, 584.548 
	L 63.815, 584.548 
	L 63.815, 585.894 
	L 51.343, 585.894 
" />
<path d="M 64.099, 585.894 
	L 64.098, 585.894 
	L 64.098, 579.091 
	L 77.138, 579.091 
	L 77.138, 585.894 
	L 75.437, 585.894 
	L 75.437, 580.438 
	L 65.799, 580.438 
	L 65.799, 585.894 
	L 64.098, 585.894 
" />
<path d="M 77.139, 586.354 
	L 77.138, 586.355 
	L 77.138, 576.824 
	L 78.839, 576.824 
	L 78.839, 584.300 
	L 88.193, 580.225 
	L 97.547, 584.300 
	L 97.547, 576.824 
	L 99.248, 576.824 
	L 99.248, 586.355 
	L 88.193, 581.572 
	L 77.138, 586.355 
" />
<path d="M 77.138, 586.355 
" />
<path d="M 110.587, 584.547 
	L 110.587, 584.548 
	L 110.587, 580.438 
	L 108.319, 580.438 
	L 103.783, 584.548 
	L 110.587, 584.548 
	L 99.992, 585.894 
	L 106.051, 580.438 
	L 99.992, 580.438 
	L 99.992, 579.091 
	L 112.287, 579.091 
" />
<path d="M 112.287, 579.091 
	L 112.287, 585.894 
	L 99.992, 585.894 
" />
<path d="M 111.544, 585.894 
	L 111.543, 585.894 
	L 111.543, 579.091 
	L 124.583, 579.091 
	L 124.583, 585.894 
	L 122.882, 585.894 
	L 122.882, 580.438 
	L 113.244, 580.438 
	L 113.244, 585.894 
	L 111.543, 585.894 
" />
<path d="M 135.922, 584.547 
	L 135.921, 584.548 
	L 135.921, 580.438 
	L 126.283, 580.438 
	L 126.283, 584.548 
	L 135.921, 584.548 
	L 124.583, 585.894 
	L 124.583, 579.091 
	L 135.921, 579.091 
	L 135.921, 576.824 
	L 137.622, 576.824 
" />
<path d="M 137.622, 576.824 
	L 137.622, 585.894 
	L 124.583, 585.894 
" />
<path d="M 148.253, 581.819 
	L 148.252, 581.820 
	L 148.252, 580.438 
	L 138.898, 580.438 
	L 138.898, 581.820 
	L 148.252, 581.820 
	L 137.339, 585.894 
	L 137.339, 579.091 
	L 149.811, 579.091 
	L 149.811, 583.166 
	L 138.898, 583.166 
" />
<path d="M 138.898, 583.166 
	L 138.898, 584.548 
	L 149.811, 584.548 
	L 149.811, 585.894 
	L 137.339, 585.894 
" />
<path d="M 150.095, 585.894 
	L 150.095, 585.894 
	L 150.095, 579.091 
	L 162.354, 579.091 
	L 162.354, 580.438 
	L 151.795, 580.438 
	L 151.795, 585.894 
	L 150.095, 585.894 
" />
<path d="M 36.320, 602.264 
	L 36.319, 602.265 
	L 28.772, 595.887 
	L 19.701, 595.887 
	L 19.701, 602.265 
	L 36.319, 602.265 
	L 18.000, 603.611 
	L 18.000, 594.540 
	L 29.516, 594.540 
	L 40.110, 603.611 
	L 18.000, 603.611 
" />
<path d="M 40.111, 603.610 
	L 40.110, 603.611 
	L 40.110, 596.808 
	L 41.811, 596.808 
	L 41.811, 603.611 
	L 40.110, 603.611 
	L 40.110, 595.887 
	L 40.110, 594.540 
	L 41.811, 594.540 
	L 41.811, 595.887 
	L 40.110, 595.887 
" />
<path d="M 41.528, 603.610 
	L 41.528, 603.611 
	L 41.528, 602.265 
	L 52.441, 602.265 
	L 52.441, 600.883 
	L 41.528, 600.883 
	L 41.528, 596.808 
	L 54.000, 596.808 
	L 54.000, 598.154 
	L 43.087, 598.154 
	L 43.087, 599.536 
	L 54.000, 599.536 
" />
<path d="M 54.000, 599.536 
	L 54.000, 603.611 
	L 41.528, 603.611 
" />
<path d="M 54.284, 603.610 
	L 54.283, 603.611 
	L 54.283, 594.540 
	L 55.984, 594.540 
	L 55.984, 596.808 
	L 66.543, 596.808 
	L 66.543, 598.154 
	L 55.984, 598.154 
	L 55.984, 602.265 
	L 66.543, 602.265 
	L 66.543, 603.611 
	L 54.283, 603.611 
" />
<path d="M 54.283, 603.611 
" />
<path d="M 66.544, 603.610 
	L 66.543, 603.611 
	L 66.543, 596.808 
	L 78.803, 596.808 
	L 78.803, 598.154 
	L 68.244, 598.154 
	L 68.244, 603.611 
	L 66.543, 603.611 
" />
<path d="M 89.434, 599.535 
	L 89.433, 599.536 
	L 89.433, 598.154 
	L 80.079, 598.154 
	L 80.079, 599.536 
	L 89.433, 599.536 
	L 78.520, 603.611 
	L 78.520, 596.808 
	L 90.992, 596.808 
	L 90.992, 600.883 
	L 80.079, 600.883 
	L 80.079, 602.265 
" />
<path d="M 80.079, 602.265 
	L 90.992, 602.265 
	L 90.992, 603.611 
	L 78.520, 603.611 
" />
<path d="M 90.993, 603.610 
	L 90.992, 603.611 
	L 90.992, 602.265 
	L 101.906, 602.265 
	L 101.906, 600.883 
	L 90.992, 600.883 
	L 90.992, 596.808 
	L 103.465, 596.808 
	L 103.465, 598.154 
	L 92.551, 598.154 
	L 92.551, 599.536 
" />
<path d="M 92.551, 599.536 
	L 103.465, 599.536 
	L 103.465, 603.611 
	L 90.992, 603.611 
" />
<path d="M 103.465, 603.610 
	L 103.465, 603.611 
	L 103.465, 602.265 
	L 114.378, 602.265 
	L 114.378, 600.883 
	L 103.465, 600.883 
	L 103.465, 596.808 
	L 115.937, 596.808 
	L 115.937, 598.154 
	L 105.024, 598.154 
	L 105.024, 599.536 
" />
<path d="M 105.024, 599.536 
	L 115.937, 599.536 
	L 115.937, 603.611 
	L 103.465, 603.611 
" />
<path d="M 116.221, 603.610 
	L 116.220, 603.611 
	L 116.220, 597.268 
	L 136.063, 597.268 
	L 136.063, 598.615 
	L 117.921, 598.615 
	L 117.921, 603.611 
	L 116.220, 603.611 
	L 116.220, 595.887 
	L 116.220, 594.540 
	L 136.063, 594.540 
" />
<path d="M 136.063, 594.540 
	L 136.063, 595.887 
	L 116.220, 595.887 
" />
<path d="M 136.064, 603.610 
	L 136.063, 603.611 
	L 136.063, 596.808 
	L 148.323, 596.808 
	L 148.323, 598.154 
	L 137.764, 598.154 
	L 137.764, 603.611 
	L 136.063, 603.611 
" />
<path d="M 158.953, 599.535 
	L 158.953, 599.536 
	L 158.953, 598.154 
	L 149.598, 598.154 
	L 149.598, 599.536 
	L 158.953, 599.536 
	L 148.039, 603.611 
	L 148.039, 596.808 
	L 160.512, 596.808 
	L 160.512, 600.883 
	L 149.598, 600.883 
" />
<path d="M 149.598, 600.883 
	L 149.598, 602.265 
	L 160.512, 602.265 
	L 160.512, 603.611 
	L 148.039, 603.611 
" />
<path d="M 172.135, 602.264 
	L 172.134, 602.265 
	L 172.134, 598.154 
	L 162.496, 598.154 
	L 162.496, 602.265 
	L 172.134, 602.265 
	L 172.134, 605.879 
	L 172.134, 603.611 
	L 160.795, 603.611 
	L 160.795, 596.808 
	L 173.835, 596.808 
" />
<path d="M 173.835, 596.808 
	L 173.835, 605.879 
	L 172.134, 605.879 
" />
<path d="M 173.835, 603.610 
	L 173.835, 603.611 
	L 173.835, 596.808 
	L 175.535, 596.808 
	L 175.535, 602.265 
	L 185.173, 602.265 
	L 185.173, 596.808 
	L 186.874, 596.808 
	L 186.874, 603.611 
	L 173.835, 603.611 
" />
<path d="M 197.505, 599.535 
	L 197.504, 599.536 
	L 197.504, 598.154 
	L 188.150, 598.154 
	L 188.150, 599.536 
	L 197.504, 599.536 
	L 186.591, 603.611 
	L 186.591, 596.808 
	L 199.063, 596.808 
	L 199.063, 600.883 
	L 188.150, 600.883 
" />
<path d="M 188.150, 600.883 
	L 188.150, 602.265 
	L 199.063, 602.265 
	L 199.063, 603.611 
	L 186.591, 603.611 
" />
<path d="M 199.347, 603.610 
	L 199.346, 603.611 
	L 199.346, 596.808 
	L 212.386, 596.808 
	L 212.386, 603.611 
	L 210.685, 603.611 
	L 210.685, 598.154 
	L 201.047, 598.154 
	L 201.047, 603.611 
	L 199.346, 603.611 
" />
<path d="M 212.387, 603.610 
	L 212.386, 603.611 
	L 212.386, 596.808 
	L 224.646, 596.808 
	L 224.646, 598.154 
	L 214.087, 598.154 
	L 214.087, 602.265 
	L 224.646, 602.265 
	L 224.646, 603.611 
	L 212.386, 603.611 
" />
<path d="M 225.391, 605.878 
	L 225.390, 605.879 
	L 225.390, 604.497 
	L 235.984, 604.497 
	L 235.984, 603.611 
	L 232.937, 603.611 
	L 225.390, 596.808 
	L 227.658, 596.808 
	L 233.717, 602.265 
	L 235.984, 602.265 
	L 235.984, 596.808 
" />
<path d="M 235.984, 596.808 
	L 237.685, 596.808 
	L 237.685, 605.879 
	L 225.390, 605.879 
" />
<path d="M 27.072, 621.327 
	L 27.071, 621.328 
	L 27.071, 613.603 
	L 17.256, 613.603 
	L 17.256, 612.257 
	L 38.587, 612.257 
	L 38.587, 613.603 
	L 28.772, 613.603 
	L 28.772, 621.328 
	L 27.071, 621.328 
" />
<path d="M 39.331, 621.327 
	L 39.331, 621.328 
	L 39.331, 612.257 
	L 41.032, 612.257 
	L 41.032, 614.524 
	L 52.370, 614.524 
	L 52.370, 621.328 
	L 50.669, 621.328 
	L 50.669, 615.871 
	L 41.032, 615.871 
	L 41.032, 621.328 
	L 39.331, 621.328 
" />
<path d="M 39.331, 621.328 
" />
<path d="M 63.001, 617.252 
	L 63.000, 617.253 
	L 63.000, 615.871 
	L 53.646, 615.871 
	L 53.646, 617.253 
	L 63.000, 617.253 
	L 52.087, 621.328 
	L 52.087, 614.524 
	L 64.559, 614.524 
	L 64.559, 618.599 
	L 53.646, 618.599 
	L 53.646, 619.981 
" />
<path d="M 53.646, 619.981 
	L 64.559, 619.981 
	L 64.559, 621.328 
	L 52.087, 621.328 
" />
<path d="M 64.560, 621.327 
	L 64.559, 621.328 
	L 64.559, 619.981 
	L 84.224, 619.981 
	L 84.224, 621.328 
	L 64.559, 621.328 
	L 64.559, 616.331 
	L 64.559, 614.985 
	L 84.224, 614.985 
	L 84.224, 616.331 
	L 64.559, 616.331 
	L 64.559, 613.603 
" />
<path d="M 64.559, 613.603 
	L 64.559, 612.257 
	L 84.224, 612.257 
	L 84.224, 613.603 
	L 64.559, 613.603 
" />
<path d="M 95.847, 619.980 
	L 95.846, 619.981 
	L 95.846, 615.871 
	L 86.209, 615.871 
	L 86.209, 619.981 
	L 95.846, 619.981 
	L 84.508, 621.328 
	L 84.508, 614.524 
	L 95.846, 614.524 
	L 95.846, 612.257 
	L 97.547, 612.257 
	L 97.547, 621.328 
" />
<path d="M 97.547, 621.328 
	L 84.508, 621.328 
" />
<path d="M 108.887, 619.980 
	L 108.886, 619.981 
	L 108.886, 615.871 
	L 99.248, 615.871 
	L 99.248, 619.981 
	L 108.886, 619.981 
	L 97.547, 623.595 
	L 97.547, 622.213 
	L 108.886, 622.213 
	L 108.886, 621.328 
	L 97.547, 621.328 
" />
<path d="M 97.547, 621.328 
	L 97.547, 614.524 
	L 110.587, 614.524 
	L 110.587, 623.595 
	L 97.547, 623.595 
" />
<path d="M 121.217, 617.252 
	L 121.217, 617.253 
	L 121.217, 615.871 
	L 111.862, 615.871 
	L 111.862, 617.253 
	L 121.217, 617.253 
	L 110.303, 621.328 
	L 110.303, 614.524 
	L 122.776, 614.524 
	L 122.776, 618.599 
	L 111.862, 618.599 
" />
<path d="M 111.862, 618.599 
	L 111.862, 619.981 
	L 122.776, 619.981 
	L 122.776, 621.328 
	L 110.303, 621.328 
" />
<path d="M 143.469, 619.980 
	L 143.469, 619.981 
	L 143.469, 613.603 
	L 124.760, 613.603 
	L 124.760, 619.981 
	L 143.469, 619.981 
	L 123.059, 621.328 
	L 123.059, 612.257 
	L 145.169, 612.257 
	L 145.169, 621.328 
	L 123.059, 621.328 
" />
<path d="M 123.059, 621.328 
" />
<path d="M 145.170, 621.327 
	L 145.169, 621.328 
	L 145.169, 614.524 
	L 157.429, 614.524 
	L 157.429, 615.871 
	L 146.870, 615.871 
	L 146.870, 617.253 
	L 157.429, 617.253 
	L 157.429, 618.599 
	L 146.870, 618.599 
	L 146.870, 621.328 
" />
<path d="M 146.870, 621.328 
	L 145.169, 621.328 
" />
<path d="M 157.430, 621.787 
	L 157.429, 621.788 
	L 157.429, 612.257 
	L 159.130, 612.257 
	L 159.130, 619.733 
	L 168.484, 615.658 
	L 177.839, 619.733 
	L 177.839, 612.257 
	L 179.539, 612.257 
	L 179.539, 621.788 
	L 168.484, 617.005 
" />
<path d="M 168.484, 617.005 
	L 157.429, 621.788 
" />
<path d="M 179.540, 621.327 
	L 179.539, 621.328 
	L 179.539, 612.257 
	L 181.240, 612.257 
	L 181.240, 614.524 
	L 192.579, 614.524 
	L 192.579, 621.328 
	L 190.878, 621.328 
	L 190.878, 615.871 
	L 181.240, 615.871 
	L 181.240, 621.328 
" />
<path d="M 181.240, 621.328 
	L 179.539, 621.328 
" />
<path d="M 203.918, 619.980 
	L 203.917, 619.981 
	L 203.917, 615.871 
	L 201.650, 615.871 
	L 197.114, 619.981 
	L 203.917, 619.981 
	L 193.323, 621.328 
	L 199.382, 615.871 
	L 193.323, 615.871 
	L 193.323, 614.524 
	L 205.618, 614.524 
" />
<path d="M 205.618, 614.524 
	L 205.618, 621.328 
	L 193.323, 621.328 
" />
<path d="M 204.875, 621.327 
	L 204.874, 621.328 
	L 204.874, 612.257 
	L 206.575, 612.257 
	L 206.575, 614.524 
	L 217.134, 614.524 
	L 217.134, 615.871 
	L 206.575, 615.871 
	L 206.575, 619.981 
	L 217.134, 619.981 
	L 217.134, 621.328 
" />
<path d="M 217.134, 621.328 
	L 204.874, 621.328 
" />
<path d="M 217.135, 621.327 
	L 217.134, 621.328 
	L 217.134, 612.257 
	L 218.835, 612.257 
	L 218.835, 621.328 
	L 217.134, 621.328 
" />
<path d="M 218.552, 621.327 
	L 218.551, 621.328 
	L 218.551, 619.981 
	L 229.465, 619.981 
	L 229.465, 618.599 
	L 218.551, 618.599 
	L 218.551, 614.524 
	L 231.024, 614.524 
	L 231.024, 615.871 
	L 220.110, 615.871 
	L 220.110, 617.253 
" />
<path d="M 220.110, 617.253 
	L 231.024, 617.253 
	L 231.024, 621.328 
	L 218.551, 621.328 
" />
<path d="M 17.717, 631.957 
	L 17.717, 631.957 
	L 28.311, 622.426 
	L 38.870, 631.957 
	L 36.602, 631.957 
	L 28.311, 624.446 
	L 19.984, 631.957 
	L 17.717, 631.957 
" />
<path d="M 50.493, 630.610 
	L 50.492, 630.611 
	L 50.492, 626.501 
	L 40.854, 626.501 
	L 40.854, 630.611 
	L 50.492, 630.611 
	L 39.154, 631.957 
	L 39.154, 625.154 
	L 50.492, 625.154 
	L 50.492, 622.887 
	L 52.193, 622.887 
	L 52.193, 631.957 
" />
<path d="M 52.193, 631.957 
	L 39.154, 631.957 
" />
<path d="M 52.194, 631.957 
	L 52.193, 631.957 
	L 52.193, 625.154 
	L 62.965, 625.154 
	L 62.965, 631.957 
	L 61.264, 631.957 
	L 61.264, 626.501 
	L 58.429, 626.501 
	L 58.429, 631.957 
	L 56.728, 631.957 
	L 56.728, 626.501 
	L 53.894, 626.501 
" />
<path d="M 53.894, 626.501 
	L 53.894, 631.957 
	L 52.193, 631.957 
" />
<path d="M 62.965, 631.957 
	L 62.965, 631.957 
	L 62.965, 625.154 
	L 64.665, 625.154 
	L 64.665, 631.957 
	L 62.965, 631.957 
	L 62.965, 624.233 
	L 62.965, 622.887 
	L 64.665, 622.887 
	L 64.665, 624.233 
	L 62.965, 624.233 
" />
<path d="M 64.666, 631.957 
	L 64.665, 631.957 
	L 64.665, 625.154 
	L 77.705, 625.154 
	L 77.705, 631.957 
	L 76.004, 631.957 
	L 76.004, 626.501 
	L 66.366, 626.501 
	L 66.366, 631.957 
	L 64.665, 631.957 
" />
<path d="M 77.705, 631.957 
	L 77.705, 631.957 
	L 77.705, 625.154 
	L 79.406, 625.154 
	L 79.406, 631.957 
	L 77.705, 631.957 
	L 77.705, 624.233 
	L 77.705, 622.887 
	L 79.406, 622.887 
	L 79.406, 624.233 
	L 77.705, 624.233 
" />
<path d="M 79.123, 631.957 
	L 79.122, 631.957 
	L 79.122, 630.611 
	L 90.035, 630.611 
	L 90.035, 629.229 
	L 79.122, 629.229 
	L 79.122, 625.154 
	L 91.595, 625.154 
	L 91.595, 626.501 
	L 80.681, 626.501 
	L 80.681, 627.883 
	L 91.595, 627.883 
" />
<path d="M 91.595, 627.883 
	L 91.595, 631.957 
	L 79.122, 631.957 
" />
<path d="M 91.879, 631.957 
	L 91.878, 631.957 
	L 91.878, 622.887 
	L 93.579, 622.887 
	L 93.579, 625.154 
	L 104.138, 625.154 
	L 104.138, 626.501 
	L 93.579, 626.501 
	L 93.579, 630.611 
	L 104.138, 630.611 
	L 104.138, 631.957 
" />
<path d="M 104.138, 631.957 
	L 91.878, 631.957 
" />
<path d="M 104.139, 631.957 
	L 104.138, 631.957 
	L 104.138, 625.154 
	L 116.398, 625.154 
	L 116.398, 626.501 
	L 105.839, 626.501 
	L 105.839, 631.957 
	L 104.138, 631.957 
" />
<path d="M 127.737, 630.610 
	L 127.736, 630.611 
	L 127.736, 626.501 
	L 125.469, 626.501 
	L 120.933, 630.611 
	L 127.736, 630.611 
	L 117.142, 631.957 
	L 123.201, 626.501 
	L 117.142, 626.501 
	L 117.142, 625.154 
	L 129.437, 625.154 
" />
<path d="M 129.437, 625.154 
	L 129.437, 631.957 
	L 117.142, 631.957 
" />
<path d="M 128.694, 631.957 
	L 128.693, 631.957 
	L 128.693, 622.887 
	L 130.394, 622.887 
	L 130.394, 625.154 
	L 140.953, 625.154 
	L 140.953, 626.501 
	L 130.394, 626.501 
	L 130.394, 630.611 
	L 140.953, 630.611 
	L 140.953, 631.957 
" />
<path d="M 140.953, 631.957 
	L 128.693, 631.957 
" />
<path d="M 140.953, 631.957 
	L 140.953, 631.957 
	L 140.953, 625.154 
	L 142.654, 625.154 
	L 142.654, 631.957 
	L 140.953, 631.957 
	L 140.953, 624.233 
	L 140.953, 622.887 
	L 142.654, 622.887 
	L 142.654, 624.233 
	L 140.953, 624.233 
" />
<path d="M 140.953, 624.233 
" />
<path d="M 142.654, 631.957 
	L 142.654, 631.957 
	L 142.654, 625.154 
	L 144.354, 625.154 
	L 144.354, 630.611 
	L 146.622, 630.611 
	L 152.646, 625.154 
	L 154.913, 625.154 
	L 147.366, 631.957 
	L 142.654, 631.957 
" />
<path d="M 165.544, 627.882 
	L 165.543, 627.883 
	L 165.543, 626.501 
	L 156.189, 626.501 
	L 156.189, 627.883 
	L 165.543, 627.883 
	L 154.630, 631.957 
	L 154.630, 625.154 
	L 167.102, 625.154 
	L 167.102, 629.229 
	L 156.189, 629.229 
" />
<path d="M 156.189, 629.229 
	L 156.189, 630.611 
	L 167.102, 630.611 
	L 167.102, 631.957 
	L 154.630, 631.957 
" />
<path d="M 167.387, 631.957 
	L 167.386, 631.957 
	L 167.386, 622.887 
	L 169.087, 622.887 
	L 169.087, 631.957 
	L 167.386, 631.957 
" />
<path d="M 169.831, 634.224 
	L 169.831, 634.225 
	L 169.831, 632.843 
	L 180.425, 632.843 
	L 180.425, 631.957 
	L 177.378, 631.957 
	L 169.831, 625.154 
	L 172.098, 625.154 
	L 178.158, 630.611 
	L 180.425, 630.611 
	L 180.425, 625.154 
" />
<path d="M 180.425, 625.154 
	L 182.126, 625.154 
	L 182.126, 634.225 
	L 169.831, 634.225 
" />
<path d="M 18.001, 642.587 
	L 18.000, 642.587 
	L 18.000, 636.245 
	L 32.528, 636.245 
	L 35.575, 634.863 
	L 18.000, 634.863 
	L 18.000, 633.516 
	L 39.331, 633.516 
	L 33.307, 637.591 
	L 19.701, 637.591 
	L 19.701, 642.587 
	L 18.000, 642.587 
" />
<path d="M 18.000, 642.587 
" />
<path d="M 50.670, 641.240 
	L 50.669, 641.241 
	L 50.669, 637.131 
	L 41.032, 637.131 
	L 41.032, 641.241 
	L 50.669, 641.241 
	L 39.331, 642.587 
	L 39.331, 635.784 
	L 52.370, 635.784 
	L 52.370, 642.587 
	L 39.331, 642.587 
" />
<path d="M 52.087, 642.587 
	L 52.087, 642.587 
	L 52.087, 641.241 
	L 63.000, 641.241 
	L 63.000, 639.859 
	L 52.087, 639.859 
	L 52.087, 635.784 
	L 64.559, 635.784 
	L 64.559, 637.131 
	L 53.646, 637.131 
	L 53.646, 638.513 
	L 64.559, 638.513 
" />
<path d="M 64.559, 638.513 
	L 64.559, 642.587 
	L 52.087, 642.587 
" />
<path d="M 64.560, 642.587 
	L 64.559, 642.587 
	L 64.559, 641.241 
	L 75.472, 641.241 
	L 75.472, 639.859 
	L 64.559, 639.859 
	L 64.559, 635.784 
	L 77.032, 635.784 
	L 77.032, 637.131 
	L 66.118, 637.131 
	L 66.118, 638.513 
	L 77.032, 638.513 
" />
<path d="M 77.032, 638.513 
	L 77.032, 642.587 
	L 64.559, 642.587 
" />
<path d="M 77.316, 642.587 
	L 77.315, 642.587 
	L 77.315, 635.784 
	L 79.016, 635.784 
	L 79.016, 642.587 
	L 77.315, 642.587 
	L 77.315, 634.863 
	L 77.315, 633.516 
	L 79.016, 633.516 
	L 79.016, 634.863 
	L 77.315, 634.863 
" />
<path d="M 90.355, 641.240 
	L 90.354, 641.241 
	L 90.354, 637.131 
	L 80.717, 637.131 
	L 80.717, 641.241 
	L 90.354, 641.241 
	L 79.016, 642.587 
	L 79.016, 633.516 
	L 80.717, 633.516 
	L 80.717, 635.784 
	L 92.055, 635.784 
	L 92.055, 642.587 
" />
<path d="M 92.055, 642.587 
	L 79.016, 642.587 
" />
<path d="M 92.056, 642.587 
	L 92.055, 642.587 
	L 92.055, 633.516 
	L 93.756, 633.516 
	L 93.756, 642.587 
	L 92.055, 642.587 
" />
<path d="M 104.387, 638.512 
	L 104.386, 638.513 
	L 104.386, 637.131 
	L 95.032, 637.131 
	L 95.032, 638.513 
	L 104.386, 638.513 
	L 93.472, 642.587 
	L 93.472, 635.784 
	L 105.945, 635.784 
	L 105.945, 639.859 
	L 95.032, 639.859 
" />
<path d="M 95.032, 639.859 
	L 95.032, 641.241 
	L 105.945, 641.241 
	L 105.945, 642.587 
	L 93.472, 642.587 
" />
<path d="M 18.001, 660.303 
	L 18.000, 660.304 
	L 18.000, 658.957 
	L 38.409, 658.957 
	L 38.409, 655.308 
	L 18.000, 655.308 
	L 18.000, 651.233 
	L 40.110, 651.233 
	L 40.110, 652.579 
	L 19.701, 652.579 
	L 19.701, 653.961 
	L 40.110, 653.961 
" />
<path d="M 40.110, 653.961 
	L 40.110, 660.304 
	L 18.000, 660.304 
" />
<path d="M 40.111, 660.303 
	L 40.110, 660.304 
	L 40.110, 653.501 
	L 41.811, 653.501 
	L 41.811, 660.304 
	L 40.110, 660.304 
	L 40.110, 652.579 
	L 40.110, 651.233 
	L 41.811, 651.233 
	L 41.811, 652.579 
	L 40.110, 652.579 
" />
<path d="M 41.812, 660.303 
	L 41.811, 660.304 
	L 41.811, 653.501 
	L 54.850, 653.501 
	L 54.850, 660.304 
	L 53.150, 660.304 
	L 53.150, 654.847 
	L 43.512, 654.847 
	L 43.512, 660.304 
	L 41.811, 660.304 
" />
<path d="M 65.481, 656.228 
	L 65.480, 656.229 
	L 65.480, 654.847 
	L 56.126, 654.847 
	L 56.126, 656.229 
	L 65.480, 656.229 
	L 54.567, 660.304 
	L 54.567, 653.501 
	L 67.039, 653.501 
	L 67.039, 657.576 
	L 56.126, 657.576 
	L 56.126, 658.957 
" />
<path d="M 56.126, 658.957 
	L 67.039, 658.957 
	L 67.039, 660.304 
	L 54.567, 660.304 
" />
<path d="M 67.324, 660.303 
	L 67.323, 660.304 
	L 67.323, 651.233 
	L 88.654, 651.233 
	L 84.118, 655.166 
	L 83.374, 655.804 
	L 88.654, 660.304 
	L 86.386, 660.304 
	L 81.106, 655.804 
	L 84.898, 652.579 
	L 69.024, 652.579 
	L 69.024, 660.304 
" />
<path d="M 69.024, 660.304 
	L 67.323, 660.304 
" />
<path d="M 99.993, 658.957 
	L 99.992, 658.957 
	L 99.992, 654.847 
	L 97.724, 654.847 
	L 93.189, 658.957 
	L 99.992, 658.957 
	L 89.398, 660.304 
	L 95.457, 654.847 
	L 89.398, 654.847 
	L 89.398, 653.501 
	L 101.693, 653.501 
	L 101.693, 660.304 
" />
<path d="M 101.693, 660.304 
	L 89.398, 660.304 
" />
<path d="M 100.950, 660.303 
	L 100.949, 660.304 
	L 100.949, 653.501 
	L 102.650, 653.501 
	L 102.650, 658.957 
	L 104.917, 658.957 
	L 110.941, 653.501 
	L 113.209, 653.501 
	L 105.661, 660.304 
	L 100.949, 660.304 
" />
<path d="M 123.839, 656.228 
	L 123.839, 656.229 
	L 123.839, 654.847 
	L 114.484, 654.847 
	L 114.484, 656.229 
	L 123.839, 656.229 
	L 112.925, 660.304 
	L 112.925, 653.501 
	L 125.398, 653.501 
	L 125.398, 657.576 
	L 114.484, 657.576 
" />
<path d="M 114.484, 657.576 
	L 114.484, 658.957 
	L 125.398, 658.957 
	L 125.398, 660.304 
	L 112.925, 660.304 
" />
<path d="M 18.001, 678.020 
	L 18.000, 678.020 
	L 18.000, 671.678 
	L 32.528, 671.678 
	L 35.575, 670.296 
	L 18.000, 670.296 
	L 18.000, 668.950 
	L 39.331, 668.950 
	L 33.307, 673.024 
	L 19.701, 673.024 
	L 19.701, 678.020 
	L 18.000, 678.020 
" />
<path d="M 18.000, 678.020 
" />
<path d="M 50.670, 676.673 
	L 50.669, 676.674 
	L 50.669, 672.564 
	L 48.402, 672.564 
	L 43.866, 676.674 
	L 50.669, 676.674 
	L 40.075, 678.020 
	L 46.134, 672.564 
	L 40.075, 672.564 
	L 40.075, 671.217 
	L 52.370, 671.217 
	L 52.370, 678.020 
" />
<path d="M 52.370, 678.020 
	L 40.075, 678.020 
" />
<path d="M 51.627, 678.020 
	L 51.626, 678.020 
	L 51.626, 668.950 
	L 53.327, 668.950 
	L 53.327, 678.020 
	L 51.626, 678.020 
" />
<path d="M 64.666, 676.673 
	L 64.665, 676.674 
	L 64.665, 672.564 
	L 55.028, 672.564 
	L 55.028, 676.674 
	L 64.665, 676.674 
	L 53.327, 678.020 
	L 53.327, 671.217 
	L 66.366, 671.217 
	L 66.366, 678.020 
	L 53.327, 678.020 
" />
<path d="M 66.367, 678.020 
	L 66.366, 678.020 
	L 66.366, 671.217 
	L 79.406, 671.217 
	L 79.406, 678.020 
	L 77.705, 678.020 
	L 77.705, 672.564 
	L 68.067, 672.564 
	L 68.067, 678.020 
	L 66.366, 678.020 
" />
<path d="M 90.745, 676.673 
	L 90.744, 676.674 
	L 90.744, 672.564 
	L 81.106, 672.564 
	L 81.106, 676.674 
	L 90.744, 676.674 
	L 79.406, 678.020 
	L 79.406, 671.217 
	L 92.445, 671.217 
	L 92.445, 678.020 
	L 79.406, 678.020 
" />
<path d="M 103.784, 676.673 
	L 103.783, 676.674 
	L 103.783, 672.564 
	L 94.146, 672.564 
	L 94.146, 676.674 
	L 103.783, 676.674 
	L 92.445, 680.288 
	L 92.445, 671.217 
	L 105.484, 671.217 
	L 105.484, 678.020 
	L 94.146, 678.020 
" />
<path d="M 94.146, 678.020 
	L 94.146, 680.288 
	L 92.445, 680.288 
" />
<path d="M 105.202, 678.020 
	L 105.201, 678.020 
	L 105.201, 676.674 
	L 116.114, 676.674 
	L 116.114, 675.292 
	L 105.201, 675.292 
	L 105.201, 671.217 
	L 117.673, 671.217 
	L 117.673, 672.564 
	L 106.760, 672.564 
	L 106.760, 673.946 
" />
<path d="M 106.760, 673.946 
	L 117.673, 673.946 
	L 117.673, 678.020 
	L 105.201, 678.020 
" />
<path d="M 117.957, 678.020 
	L 117.957, 678.020 
	L 117.957, 671.217 
	L 119.657, 671.217 
	L 119.657, 678.020 
	L 117.957, 678.020 
	L 117.957, 670.296 
	L 117.957, 668.950 
	L 119.657, 668.950 
	L 119.657, 670.296 
	L 117.957, 670.296 
" />
<path d="M 117.957, 670.296 
" />
<path d="M 130.997, 676.673 
	L 130.996, 676.674 
	L 130.996, 672.564 
	L 128.728, 672.564 
	L 124.193, 676.674 
	L 130.996, 676.674 
	L 120.402, 678.020 
	L 126.461, 672.564 
	L 120.402, 672.564 
	L 120.402, 671.217 
	L 132.697, 671.217 
" />
<path d="M 132.697, 671.217 
	L 132.697, 678.020 
	L 120.402, 678.020 
" />
<path d="M 18.001, 695.736 
	L 18.000, 695.737 
	L 18.000, 686.205 
	L 29.055, 690.954 
	L 40.110, 686.205 
	L 40.110, 695.737 
	L 38.409, 695.737 
	L 38.409, 688.225 
	L 29.055, 692.335 
	L 19.701, 688.225 
	L 19.701, 695.737 
	L 18.000, 695.737 
" />
<path d="M 18.000, 695.737 
" />
<path d="M 51.450, 694.390 
	L 51.449, 694.391 
	L 51.449, 690.280 
	L 41.811, 690.280 
	L 41.811, 694.391 
	L 51.449, 694.391 
	L 40.110, 695.737 
	L 40.110, 688.934 
	L 53.150, 688.934 
	L 53.150, 695.737 
	L 40.110, 695.737 
" />
<path d="M 53.150, 695.736 
	L 53.150, 695.737 
	L 53.150, 688.934 
	L 54.850, 688.934 
	L 54.850, 694.391 
	L 64.488, 694.391 
	L 64.488, 688.934 
	L 66.189, 688.934 
	L 66.189, 695.737 
	L 53.150, 695.737 
" />
<path d="M 66.190, 695.736 
	L 66.189, 695.737 
	L 66.189, 688.934 
	L 79.228, 688.934 
	L 79.228, 695.737 
	L 77.528, 695.737 
	L 77.528, 690.280 
	L 67.890, 690.280 
	L 67.890, 695.737 
	L 66.189, 695.737 
" />
<path d="M 79.229, 695.736 
	L 79.228, 695.737 
	L 79.228, 686.666 
	L 80.929, 686.666 
	L 80.929, 688.934 
	L 91.488, 688.934 
	L 91.488, 690.280 
	L 80.929, 690.280 
	L 80.929, 694.391 
	L 91.488, 694.391 
	L 91.488, 695.737 
	L 79.228, 695.737 
" />
<path d="M 79.228, 695.737 
" />
<path d="M 102.827, 694.390 
	L 102.827, 694.391 
	L 102.827, 690.280 
	L 100.559, 690.280 
	L 96.024, 694.391 
	L 102.827, 694.391 
	L 92.232, 695.737 
	L 98.291, 690.280 
	L 92.232, 690.280 
	L 92.232, 688.934 
	L 104.528, 688.934 
" />
<path d="M 104.528, 688.934 
	L 104.528, 695.737 
	L 92.232, 695.737 
" />
<path d="M 103.784, 695.736 
	L 103.783, 695.737 
	L 103.783, 688.934 
	L 105.484, 688.934 
	L 105.484, 695.737 
	L 103.783, 695.737 
	L 103.783, 688.013 
	L 103.783, 686.666 
	L 105.484, 686.666 
	L 105.484, 688.013 
	L 103.783, 688.013 
" />
<path d="M 103.783, 688.013 
" />
<path d="M 105.485, 695.736 
	L 105.484, 695.737 
	L 105.484, 688.934 
	L 118.524, 688.934 
	L 118.524, 695.737 
	L 116.823, 695.737 
	L 116.823, 690.280 
	L 107.185, 690.280 
	L 107.185, 695.737 
	L 105.484, 695.737 
" />
<path d="M 136.843, 694.390 
	L 136.843, 694.391 
	L 129.295, 688.013 
	L 120.224, 688.013 
	L 120.224, 694.391 
	L 136.843, 694.391 
	L 118.524, 695.737 
	L 118.524, 686.666 
	L 130.039, 686.666 
	L 140.634, 695.737 
	L 118.524, 695.737 
" />
<path d="M 118.524, 695.737 
" />
<path d="M 140.635, 695.736 
	L 140.634, 695.737 
	L 140.634, 688.934 
	L 152.894, 688.934 
	L 152.894, 690.280 
	L 142.335, 690.280 
	L 142.335, 695.737 
	L 140.634, 695.737 
" />
<path d="M 164.233, 694.390 
	L 164.232, 694.391 
	L 164.232, 690.280 
	L 154.595, 690.280 
	L 154.595, 694.391 
	L 164.232, 694.391 
	L 152.894, 695.737 
	L 152.894, 688.934 
	L 165.933, 688.934 
	L 165.933, 695.737 
	L 152.894, 695.737 
" />
<path d="M 152.894, 695.737 
" />
<path d="M 165.934, 695.736 
	L 165.933, 695.737 
	L 165.933, 688.934 
	L 178.972, 688.934 
	L 178.972, 695.737 
	L 177.272, 695.737 
	L 177.272, 690.280 
	L 167.634, 690.280 
	L 167.634, 695.737 
	L 165.933, 695.737 
" />
<path d="M 189.603, 691.661 
	L 189.602, 691.662 
	L 189.602, 690.280 
	L 180.248, 690.280 
	L 180.248, 691.662 
	L 189.602, 691.662 
	L 178.689, 695.737 
	L 178.689, 688.934 
	L 191.161, 688.934 
	L 191.161, 693.009 
	L 180.248, 693.009 
" />
<path d="M 180.248, 693.009 
	L 180.248, 694.391 
	L 191.161, 694.391 
	L 191.161, 695.737 
	L 178.689, 695.737 
" />
<path d="M 13.961, 538.484 
	L 13.961, 538.485 
	L 13.961, 540.150 
	L 13.961, 552.339 
	L 13.961, 554.005 
	L 12.295, 554.005 
	L 10.630, 554.005 
	L 10.630, 552.233 
	L 10.630, 540.150 
	L 10.630, 538.485 
	L 13.961, 538.485 
	L 21.969, 538.485 
" />
<path d="M 21.969, 538.485 
	L 22.535, 538.237 
	L 23.031, 538.237 
	L 23.492, 538.237 
	L 23.917, 538.485 
	L 24.413, 538.839 
	L 24.413, 539.548 
	L 24.413, 540.044 
	L 24.201, 540.717 
	L 19.240, 546.209 
	L 24.201, 551.772 
	L 24.378, 552.162 
" />
<path d="M 24.378, 552.162 
	L 24.378, 552.481 
	L 24.378, 553.190 
	L 23.634, 553.721 
	L 23.280, 554.005 
	L 22.783, 554.005 
	L 21.791, 554.005 
	L 20.303, 552.906 
	L 15.874, 547.910 
	L 14.244, 546.245 
	L 15.874, 544.579 
	L 21.969, 538.485 
" />
<path d="M 21.969, 538.485 
" />
<path d="M 31.855, 550.673 
	L 31.854, 550.674 
	L 36.071, 550.674 
	L 36.035, 544.261 
	L 26.362, 553.331 
	L 25.724, 553.863 
	L 25.157, 553.863 
	L 24.520, 553.863 
	L 23.988, 553.154 
	L 23.528, 552.587 
	L 23.528, 552.020 
	L 23.528, 551.312 
" />
<path d="M 23.528, 551.312 
	L 24.272, 550.709 
	L 36.283, 539.265 
	L 37.169, 538.379 
	L 37.878, 538.379 
	L 38.374, 538.379 
	L 38.551, 538.414 
	L 39.366, 538.698 
	L 39.366, 540.434 
	L 39.366, 551.666 
	L 39.366, 554.076 
	L 36.602, 554.005 
" />
<path d="M 36.602, 554.005 
	L 31.854, 554.005 
	L 29.941, 554.076 
	L 29.941, 552.357 
	L 29.941, 550.639 
	L 31.854, 550.674 
" />
<path d="M 54.674, 550.744 
	L 54.673, 550.745 
	L 54.673, 551.772 
	L 53.575, 552.889 
	L 52.476, 554.005 
	L 51.378, 554.005 
	L 43.618, 554.005 
	L 42.520, 554.005 
	L 41.404, 552.889 
	L 40.287, 551.772 
	L 40.287, 550.674 
	L 40.323, 541.887 
" />
<path d="M 40.323, 541.887 
	L 40.287, 540.717 
	L 41.404, 539.601 
	L 42.520, 538.485 
	L 43.618, 538.485 
	L 51.378, 538.485 
	L 52.476, 538.485 
	L 53.575, 539.601 
	L 54.673, 540.717 
	L 54.673, 541.816 
	L 54.673, 550.745 
	L 51.378, 549.009 
" />
<path d="M 51.378, 549.009 
	L 51.378, 543.481 
	L 51.378, 541.816 
	L 49.713, 541.816 
	L 45.283, 541.816 
	L 43.618, 541.816 
	L 43.618, 543.516 
	L 43.618, 549.009 
	L 43.583, 550.709 
	L 45.283, 550.674 
	L 49.713, 550.674 
	L 51.378, 550.674 
" />
<path d="M 51.378, 550.674 
	L 51.378, 549.009 
" />
<path d="M 66.509, 538.484 
	L 66.508, 538.485 
	L 68.173, 538.485 
	L 68.173, 540.079 
	L 68.173, 541.745 
	L 66.508, 541.816 
	L 55.417, 541.816 
	L 53.752, 541.745 
	L 53.752, 540.150 
	L 53.752, 538.450 
	L 55.417, 538.485 
	L 66.508, 538.485 
" />
<path d="M 66.508, 538.485 
	L 59.280, 545.146 
	L 59.244, 542.950 
	L 61.087, 542.932 
	L 62.929, 542.914 
	L 62.929, 545.146 
	L 62.929, 551.772 
	L 62.823, 554.005 
	L 61.122, 554.005 
	L 61.087, 554.005 
	L 59.244, 553.969 
	L 59.280, 551.772 
" />
<path d="M 59.280, 551.772 
	L 59.280, 545.146 
" />
<path d="M 70.725, 538.484 
	L 70.724, 538.485 
	L 80.681, 538.485 
	L 82.346, 538.485 
	L 82.346, 540.150 
	L 82.346, 541.816 
	L 80.681, 541.816 
	L 73.488, 541.816 
	L 72.390, 541.816 
	L 72.390, 542.914 
	L 72.390, 549.576 
	L 72.390, 550.674 
" />
<path d="M 72.390, 550.674 
	L 73.488, 550.674 
	L 80.681, 550.674 
	L 82.346, 550.674 
	L 82.346, 552.339 
	L 82.346, 554.005 
	L 80.681, 554.005 
	L 70.724, 554.005 
	L 69.059, 554.005 
	L 69.059, 552.339 
	L 69.059, 540.257 
	L 69.059, 538.485 
" />
<path d="M 69.059, 538.485 
	L 70.724, 538.485 
	L 75.720, 544.579 
	L 78.484, 544.579 
	L 80.681, 544.579 
	L 80.681, 546.245 
	L 80.681, 547.910 
	L 78.484, 547.910 
	L 75.720, 547.910 
	L 73.488, 547.910 
	L 73.488, 546.245 
	L 73.488, 544.579 
" />
<path d="M 73.488, 544.579 
	L 75.720, 544.579 
" />
<path d="M 95.564, 554.004 
	L 95.563, 554.005 
	L 87.343, 554.005 
	L 85.287, 554.005 
	L 83.799, 552.552 
	L 82.346, 551.135 
	L 82.346, 549.115 
	L 82.346, 543.233 
	L 82.346, 541.213 
	L 83.799, 539.761 
	L 85.110, 538.485 
	L 87.059, 538.485 
" />
<path d="M 87.059, 538.485 
	L 87.272, 538.485 
	L 87.520, 538.485 
	L 94.394, 538.485 
	L 96.130, 538.485 
	L 96.130, 540.221 
	L 96.130, 541.957 
	L 94.394, 541.957 
	L 88.016, 541.957 
	L 85.783, 541.957 
	L 85.783, 544.083 
	L 85.783, 548.654 
" />
<path d="M 85.783, 548.654 
	L 85.783, 550.568 
	L 88.157, 550.568 
	L 95.563, 550.568 
	L 97.299, 550.568 
	L 97.299, 552.268 
	L 97.264, 554.005 
	L 95.563, 554.005 
" />
<path d="M 107.257, 547.909 
	L 107.256, 547.910 
	L 100.630, 547.910 
	L 98.965, 547.910 
	L 98.965, 546.245 
	L 98.965, 544.579 
	L 100.630, 544.579 
	L 107.256, 544.579 
	L 108.921, 544.579 
	L 108.921, 546.245 
	L 108.921, 547.910 
" />
<path d="M 108.921, 547.910 
	L 107.256, 547.910 
" />
<path d="M 114.698, 550.673 
	L 114.697, 550.674 
	L 118.913, 550.674 
	L 118.878, 544.261 
	L 109.205, 553.331 
	L 108.567, 553.863 
	L 108.000, 553.863 
	L 107.362, 553.863 
	L 106.831, 553.154 
	L 106.370, 552.587 
	L 106.370, 552.020 
" />
<path d="M 106.370, 552.020 
	L 106.370, 551.312 
	L 107.114, 550.709 
	L 119.126, 539.265 
	L 120.012, 538.379 
	L 120.720, 538.379 
	L 121.217, 538.379 
	L 121.394, 538.414 
	L 122.209, 538.698 
	L 122.209, 540.434 
	L 122.209, 551.666 
" />
<path d="M 122.209, 551.666 
	L 122.209, 554.076 
	L 119.445, 554.005 
	L 114.697, 554.005 
	L 112.783, 554.076 
	L 112.783, 552.357 
	L 112.783, 550.639 
	L 114.697, 550.674 
" />
<path d="M 123.095, 538.484 
	L 123.095, 538.485 
	L 124.760, 538.485 
	L 126.425, 538.485 
	L 126.425, 540.717 
	L 126.425, 549.576 
	L 126.425, 550.674 
	L 127.524, 550.674 
	L 133.122, 550.674 
	L 135.390, 550.674 
	L 135.425, 552.304 
" />
<path d="M 135.425, 552.304 
	L 135.425, 553.934 
	L 133.122, 554.005 
	L 125.681, 554.005 
	L 123.095, 554.005 
	L 123.095, 551.276 
	L 123.095, 540.682 
	L 123.095, 538.485 
" />
<path d="M 149.493, 549.398 
	L 149.492, 549.398 
	L 149.492, 551.772 
	L 148.553, 552.889 
	L 147.614, 554.005 
	L 144.957, 553.969 
	L 137.161, 554.005 
	L 135.425, 554.005 
	L 135.425, 552.268 
	L 135.425, 545.146 
	L 135.461, 542.914 
" />
<path d="M 135.461, 542.914 
	L 137.108, 542.914 
	L 138.756, 542.914 
	L 138.720, 545.146 
	L 138.720, 550.780 
	L 144.283, 550.780 
	L 146.020, 550.780 
	L 146.020, 549.327 
	L 146.020, 547.875 
	L 144.248, 547.875 
	L 142.087, 547.910 
" />
<path d="M 142.087, 547.910 
	L 139.783, 547.910 
	L 139.819, 546.245 
	L 139.854, 544.579 
	L 142.087, 544.579 
	L 144.283, 544.579 
	L 146.020, 544.615 
	L 146.037, 543.215 
	L 146.055, 541.816 
	L 144.390, 541.816 
	L 137.091, 541.816 
" />
<path d="M 137.091, 541.816 
	L 135.425, 541.816 
	L 135.425, 540.221 
	L 135.425, 538.485 
	L 137.161, 538.485 
	L 144.850, 538.485 
	L 147.047, 538.485 
	L 148.163, 539.601 
	L 149.280, 540.717 
	L 149.386, 542.914 
	L 149.386, 545.253 
" />
<path d="M 149.386, 545.253 
	L 147.969, 546.103 
	L 149.492, 547.095 
	L 149.492, 549.398 
" />
<path d="M 149.528, 538.520 
	L 149.528, 538.520 
	L 151.158, 538.520 
	L 151.193, 538.520 
	L 152.858, 538.520 
	L 152.787, 540.753 
	L 152.787, 549.044 
	L 152.787, 550.674 
	L 154.453, 550.709 
	L 158.846, 550.674 
	L 160.583, 550.709 
" />
<path d="M 160.583, 550.709 
	L 160.583, 548.973 
	L 160.583, 540.717 
	L 160.618, 538.485 
	L 162.283, 538.485 
	L 163.913, 538.485 
	L 163.913, 540.611 
	L 163.913, 550.674 
	L 163.913, 551.737 
	L 163.063, 552.853 
	L 162.213, 553.969 
" />
<path d="M 162.213, 553.969 
	L 161.079, 553.969 
	L 152.256, 553.969 
	L 151.122, 553.969 
	L 150.325, 552.871 
	L 149.528, 551.772 
	L 149.528, 550.674 
	L 149.492, 540.717 
	L 149.528, 538.520 
" />
<path d="M 175.359, 539.228 
	L 175.358, 539.229 
	L 176.244, 538.485 
	L 176.988, 538.485 
	L 177.272, 538.485 
	L 177.520, 538.591 
	L 178.476, 538.946 
	L 178.476, 540.576 
	L 178.476, 552.091 
	L 178.441, 554.076 
	L 176.811, 554.076 
" />
<path d="M 176.811, 554.076 
	L 176.776, 554.076 
	L 175.146, 554.076 
	L 175.110, 552.056 
	L 175.110, 545.217 
	L 175.075, 544.225 
	L 174.508, 544.757 
	L 166.039, 553.261 
	L 165.154, 554.076 
	L 164.409, 554.076 
	L 163.878, 554.076 
" />
<path d="M 163.878, 554.076 
	L 163.382, 553.579 
	L 162.886, 553.119 
	L 162.886, 552.552 
	L 162.886, 551.772 
	L 163.736, 550.887 
	L 175.358, 539.229 
	L 188.717, 538.910 
	L 188.717, 540.576 
	L 188.717, 551.843 
	L 188.717, 554.076 
" />
<path d="M 188.717, 554.076 
	L 187.051, 554.076 
	L 185.386, 554.076 
	L 185.386, 551.843 
	L 185.386, 545.217 
	L 185.386, 544.509 
	L 184.748, 545.040 
	L 182.587, 547.237 
	L 180.957, 548.371 
	L 180.071, 547.166 
	L 179.185, 545.961 
" />
<path d="M 179.185, 545.961 
	L 180.461, 544.544 
	L 185.669, 539.265 
	L 186.413, 538.485 
	L 187.193, 538.485 
	L 187.441, 538.485 
	L 187.689, 538.556 
	L 188.717, 538.910 
" />
<path d="M 204.166, 550.744 
	L 204.165, 550.745 
	L 204.165, 551.772 
	L 203.067, 552.889 
	L 201.969, 554.005 
	L 200.870, 554.005 
	L 193.110, 554.005 
	L 192.012, 554.005 
	L 190.896, 552.889 
	L 189.780, 551.772 
	L 189.780, 550.674 
" />
<path d="M 189.780, 550.674 
	L 189.815, 541.887 
	L 189.780, 540.717 
	L 190.896, 539.601 
	L 192.012, 538.485 
	L 193.110, 538.485 
	L 200.870, 538.485 
	L 201.969, 538.485 
	L 203.067, 539.601 
	L 204.165, 540.717 
	L 204.165, 541.816 
" />
<path d="M 204.165, 541.816 
	L 204.165, 550.745 
	L 200.870, 549.009 
	L 200.870, 543.481 
	L 200.870, 541.816 
	L 199.205, 541.816 
	L 194.776, 541.816 
	L 193.110, 541.816 
	L 193.110, 543.516 
	L 193.110, 549.009 
	L 193.075, 550.709 
" />
<path d="M 193.075, 550.709 
	L 194.776, 550.674 
	L 199.205, 550.674 
	L 200.870, 550.674 
	L 200.870, 549.009 
" />
<path d="M 218.552, 550.744 
	L 218.551, 550.745 
	L 218.551, 551.772 
	L 217.453, 552.889 
	L 216.354, 554.005 
	L 215.256, 554.005 
	L 207.496, 554.005 
	L 206.398, 554.005 
	L 205.282, 552.889 
	L 204.165, 551.772 
	L 204.165, 550.674 
" />
<path d="M 204.165, 550.674 
	L 204.201, 541.887 
	L 204.165, 540.717 
	L 205.282, 539.601 
	L 206.398, 538.485 
	L 207.496, 538.485 
	L 215.256, 538.485 
	L 216.354, 538.485 
	L 217.453, 539.601 
	L 218.551, 540.717 
	L 218.551, 541.816 
" />
<path d="M 218.551, 541.816 
	L 218.551, 550.745 
	L 215.256, 549.009 
	L 215.256, 543.481 
	L 215.256, 541.816 
	L 213.591, 541.816 
	L 209.161, 541.816 
	L 207.496, 541.816 
	L 207.496, 543.516 
	L 207.496, 549.009 
	L 207.461, 550.709 
" />
<path d="M 207.461, 550.709 
	L 209.161, 550.674 
	L 213.591, 550.674 
	L 215.256, 550.674 
	L 215.256, 549.009 
" />
<path d="M 225.780, 551.772 
	L 225.780, 551.772 
	L 225.780, 554.005 
	L 224.150, 554.005 
	L 222.484, 554.005 
	L 222.413, 551.772 
	L 222.413, 540.717 
	L 222.484, 538.485 
	L 224.150, 538.485 
	L 225.780, 538.485 
	L 225.780, 540.717 
" />
<path d="M 225.780, 540.717 
	L 225.780, 551.772 
" />
<path d="M 644.882, 982.036 
	L 644.882, 985.225 
	L 644.173, 986.288 
	L 642.756, 986.288 
	L 642.047, 985.225 
	L 642.047, 983.099 
	L 644.882, 983.099 
" />
<path d="M 640.630, 978.847 
	L 640.630, 977.784 
	L 644.882, 977.784 
" />
<path d="M 644.882, 978.847 
	L 644.882, 976.721 
" />
<path d="M 644.882, 973.532 
	L 644.882, 970.343 
	L 644.173, 969.280 
	L 642.756, 969.280 
	L 642.047, 970.343 
	L 642.047, 972.469 
" />
<path d="M 640.630, 972.469 
	L 644.882, 972.469 
" />
<path d="M 642.047, 967.154 
	L 644.173, 967.154 
	L 644.882, 966.091 
	L 644.882, 963.965 
	L 642.047, 963.965 
" />
<path d="M 644.882, 960.776 
	L 642.047, 960.776 
" />
<path d="M 642.756, 960.776 
	L 642.047, 959.713 
	L 642.756, 958.650 
	L 644.882, 958.650 
" />
<path d="M 642.756, 958.650 
	L 642.047, 957.587 
	L 642.756, 956.524 
	L 644.882, 956.524 
" />
<path d="M 644.173, 954.398 
	L 644.882, 953.335 
	L 644.882, 951.209 
	L 644.173, 950.146 
	L 641.339, 950.146 
	L 640.630, 951.209 
	L 640.630, 953.335 
	L 641.339, 954.398 
	L 644.173, 954.398 
" />
<path d="M 644.173, 948.020 
	L 644.882, 946.957 
	L 644.882, 944.831 
	L 644.173, 943.769 
	L 641.339, 943.769 
	L 640.630, 944.831 
	L 640.630, 946.957 
	L 641.339, 948.020 
	L 644.173, 948.020 
" />
<path d="M 644.882, 940.580 
	L 644.882, 938.454 
" />
<path d="M 644.882, 939.517 
	L 640.630, 939.517 
	L 641.339, 940.580 
" />
<path d="M 644.173, 931.013 
	L 644.882, 932.076 
	L 644.882, 933.139 
	L 644.173, 934.202 
	L 642.756, 934.202 
	L 642.047, 933.139 
	L 642.047, 932.076 
	L 642.756, 931.013 
" />
<path d="M 644.882, 927.824 
	L 644.173, 928.887 
	L 642.756, 928.887 
	L 642.047, 927.824 
	L 642.047, 926.761 
	L 642.756, 925.698 
	L 644.173, 925.698 
	L 644.882, 926.761 
	L 644.882, 927.824 
" />
<path d="M 642.047, 922.509 
	L 643.465, 922.509 
	L 644.882, 920.383 
	L 643.465, 918.257 
	L 642.047, 918.257 
" />
<path d="M 643.465, 916.131 
	L 643.465, 912.942 
	L 642.756, 911.879 
	L 642.047, 912.942 
	L 642.047, 915.068 
	L 642.756, 916.131 
	L 644.173, 916.131 
	L 644.882, 915.068 
	L 644.882, 911.879 
" />
<path d="M 642.047, 909.753 
	L 644.882, 909.753 
" />
<path d="M 643.465, 909.753 
	L 642.047, 907.627 
	L 642.047, 906.564 
" />
<path d="M 640.630, 895.934 
	L 644.882, 895.934 
	L 644.882, 893.808 
" />
<path d="M 642.047, 896.997 
	L 642.047, 893.808 
" />
<path d="M 643.465, 890.619 
	L 643.465, 887.430 
	L 642.756, 886.367 
	L 642.047, 887.430 
	L 642.047, 889.556 
	L 642.756, 890.619 
	L 644.173, 890.619 
	L 644.882, 889.556 
	L 644.882, 886.367 
" />
<path d="M 642.047, 881.052 
	L 642.047, 883.178 
	L 642.756, 884.241 
	L 643.465, 883.178 
	L 643.465, 882.115 
	L 644.173, 881.052 
	L 644.882, 882.115 
	L 644.882, 884.241 
" />
<path d="M 640.630, 876.800 
	L 644.882, 876.800 
	L 644.882, 874.674 
" />
<path d="M 642.047, 877.863 
	L 642.047, 874.674 
" />
<path d="M 641.339, 845.973 
	L 640.630, 844.910 
	L 640.630, 842.784 
	L 641.339, 841.721 
	L 642.047, 841.721 
	L 644.173, 845.973 
	L 644.882, 845.973 
	L 644.882, 841.721 
" />
<path d="M 644.173, 839.595 
	L 644.882, 838.532 
	L 644.882, 836.406 
	L 644.173, 835.343 
	L 641.339, 835.343 
	L 640.630, 836.406 
	L 640.630, 838.532 
	L 641.339, 839.595 
	L 644.173, 839.595 
" />
<path d="M 644.882, 832.154 
	L 644.882, 830.028 
" />
<path d="M 644.882, 831.091 
	L 640.630, 831.091 
	L 641.339, 832.154 
" />
<path d="M 644.882, 825.776 
	L 644.882, 824.713 
	L 643.465, 822.587 
	L 641.339, 822.587 
	L 640.630, 823.650 
	L 640.630, 825.776 
	L 641.339, 826.839 
	L 642.047, 826.839 
	L 642.756, 825.776 
	L 642.756, 822.587 
" />
<path d="M 642.756, 820.461 
	L 642.756, 816.209 
" />
<path d="M 644.882, 813.020 
	L 644.882, 810.894 
" />
<path d="M 644.882, 811.957 
	L 640.630, 811.957 
	L 641.339, 813.020 
" />
<path d="M 644.882, 806.642 
	L 644.882, 804.517 
" />
<path d="M 644.882, 805.580 
	L 640.630, 805.580 
	L 641.339, 806.642 
" />
<path d="M 642.756, 801.328 
	L 642.756, 797.076 
" />
<path d="M 641.339, 794.950 
	L 640.630, 793.887 
	L 640.630, 791.761 
	L 641.339, 790.698 
	L 642.047, 790.698 
	L 644.173, 794.950 
	L 644.882, 794.950 
	L 644.882, 790.698 
" />
<path d="M 640.630, 784.320 
	L 640.630, 788.572 
	L 642.047, 788.572 
	L 642.047, 785.383 
	L 642.756, 784.320 
	L 644.173, 784.320 
	L 644.882, 785.383 
	L 644.882, 787.509 
	L 644.173, 788.572 
" />
<path d="M 644.882, 774.753 
	L 644.882, 772.627 
" />
<path d="M 644.882, 773.690 
	L 640.630, 773.690 
	L 641.339, 774.753 
" />
<path d="M 640.630, 766.249 
	L 642.756, 769.438 
	L 643.465, 769.438 
	L 643.465, 765.186 
" />
<path d="M 642.756, 766.249 
	L 644.882, 766.249 
" />
<path d="M 642.756, 761.997 
	L 642.047, 761.997 
	L 642.047, 760.934 
	L 642.756, 760.934 
	L 642.756, 761.997 
" />
<path d="M 644.173, 761.997 
	L 644.173, 760.934 
	L 644.882, 760.934 
	L 644.882, 761.997 
	L 644.173, 761.997 
" />
<path d="M 644.173, 756.682 
	L 644.882, 755.619 
	L 644.882, 753.493 
	L 644.173, 752.430 
	L 643.465, 752.430 
	L 642.756, 753.493 
	L 642.756, 754.556 
	L 640.630, 752.430 
	L 640.630, 756.682 
" />
<path d="M 640.630, 746.052 
	L 640.630, 748.178 
	L 642.047, 750.304 
	L 644.173, 750.304 
	L 644.882, 749.241 
	L 644.882, 747.115 
	L 644.173, 746.052 
	L 643.465, 746.052 
	L 642.756, 747.115 
	L 642.756, 750.304 
" />
</g>
</svg>
