<?xml version='1.0' encoding='ascii'?>
<svg xmlns="http://www.w3.org/2000/svg" xmlns:inkscape="http://www.inkscape.org/namespaces/inkscape" height="297" version="1.1" width="420">
    <g id="fressstylelayer_LineSet" inkscape:groupmode="lineset" inkscape:label="fressstylelayer_LineSet">
        <g id="strokes" inkscape:groupmode="layer" inkscape:label="strokes">
            <path d=" M 197.587, 180.322 196.678, 180.695 191.417, 182.851 182.164, 186.643 174.200, 189.907 166.296, 193.146 157.043, 196.938 147.790, 200.731 144.106, 202.241 144.428, 212.235 144.751, 222.230 145.073, 232.225 145.396, 242.220 145.719, 252.214 145.876, 257.103 153.020, 264.101 160.163, 271.099 167.307, 278.096 174.450, 285.094 181.594, 292.092 186.604, 297.000 195.218, 291.921 203.833, 286.843 212.447, 281.764 221.061, 276.685 229.676, 271.606 238.290, 266.528 239.970, 265.537 240.920, 255.583 241.108, 253.613 242.058, 243.658 242.739, 236.513 243.689, 226.559 244.616, 216.845 245.208, 210.649 240.550, 207.468 235.918, 204.304 " fill="none" stroke="rgb(157, 20, 170)" stroke-linecap="butt" stroke-linejoin="round" stroke-opacity="1.0" stroke-width="3.0" />
            <path d=" M 245.208, 210.649 236.256, 215.107 234.968, 215.748 226.017, 220.206 224.484, 220.969 215.533, 225.426 206.581, 229.884 197.630, 234.341 188.678, 238.799 187.981, 239.146 " fill="none" stroke="rgb(157, 20, 170)" stroke-linecap="butt" stroke-linejoin="round" stroke-opacity="1.0" stroke-width="3.0" />
            <path d=" M 144.106, 202.241 151.758, 208.678 159.411, 215.115 167.064, 221.552 169.666, 223.740 177.318, 230.177 184.777, 236.451 187.981, 239.146 187.946, 240.623 187.708, 250.620 187.629, 253.946 187.391, 263.944 187.153, 273.941 186.915, 283.938 186.677, 293.935 186.604, 297.000 " fill="none" stroke="rgb(157, 20, 170)" stroke-linecap="butt" stroke-linejoin="round" stroke-opacity="1.0" stroke-width="3.0" />
            <path d=" M 235.918, 204.304 233.868, 205.286 " fill="none" stroke="rgb(157, 20, 170)" stroke-linecap="butt" stroke-linejoin="round" stroke-opacity="1.0" stroke-width="3.0" />
            <path d=" M 237.074, 165.469 236.271, 175.437 235.468, 185.405 234.666, 195.372 234.292, 200.010 233.868, 205.286 229.485, 202.270 221.247, 196.602 213.009, 190.933 204.771, 185.264 204.103, 184.805 197.587, 180.322 " fill="none" stroke="rgb(157, 20, 170)" stroke-linecap="butt" stroke-linejoin="round" stroke-opacity="1.0" stroke-width="3.0" />
            <path d=" M 207.605, 35.167 217.049, 38.454 226.493, 41.741 227.051, 41.935 " fill="none" stroke="rgb(157, 20, 170)" stroke-linecap="butt" stroke-linejoin="round" stroke-opacity="1.0" stroke-width="3.0" />
            <path d=" M 227.665, 31.637 217.817, 33.370 207.968, 35.103 207.605, 35.167 207.214, 45.160 206.976, 51.232 " fill="none" stroke="rgb(157, 20, 170)" stroke-linecap="butt" stroke-linejoin="round" stroke-opacity="1.0" stroke-width="3.0" />
            <path d=" M 241.108, 253.613 249.796, 248.662 255.083, 245.650 256.205, 235.713 257.328, 225.776 258.450, 215.839 259.172, 209.445 " fill="none" stroke="rgb(157, 20, 170)" stroke-linecap="butt" stroke-linejoin="round" stroke-opacity="1.0" stroke-width="3.0" />
            <path d=" M 117.289, 84.498 117.579, 89.552 126.199, 94.621 134.819, 99.691 139.411, 102.391 141.939, 103.878 143.787, 104.964 146.714, 106.686 152.185, 105.222 157.932, 103.684 " fill="none" stroke="rgb(157, 20, 170)" stroke-linecap="butt" stroke-linejoin="round" stroke-opacity="1.0" stroke-width="3.0" />
            <path d=" M 192.668, 42.290 186.018, 43.509 " fill="none" stroke="rgb(157, 20, 170)" stroke-linecap="butt" stroke-linejoin="round" stroke-opacity="1.0" stroke-width="3.0" />
            <path d=" M 192.518, 48.594 192.668, 42.290 186.081, 39.810 " fill="none" stroke="rgb(157, 20, 170)" stroke-linecap="butt" stroke-linejoin="round" stroke-opacity="1.0" stroke-width="3.0" />
            <path d=" M 168.394, 128.592 161.848, 130.625 161.564, 130.713 155.924, 132.465 146.375, 135.432 145.506, 135.702 145.099, 135.829 145.385, 145.825 145.618, 153.975 145.905, 163.971 146.191, 173.967 146.298, 177.693 154.211, 183.808 162.124, 189.922 166.296, 193.146 " fill="none" stroke="rgb(157, 20, 170)" stroke-linecap="butt" stroke-linejoin="round" stroke-opacity="1.0" stroke-width="3.0" />
            <path d=" M 174.385, 155.342 174.331, 165.342 174.278, 175.342 174.224, 185.342 174.200, 189.907 " fill="none" stroke="rgb(157, 20, 170)" stroke-linecap="butt" stroke-linejoin="round" stroke-opacity="1.0" stroke-width="3.0" />
            <path d=" M 187.142, 140.038 182.104, 136.962 179.782, 135.544 173.658, 131.806 168.394, 128.592 " fill="none" stroke="rgb(157, 20, 170)" stroke-linecap="butt" stroke-linejoin="round" stroke-opacity="1.0" stroke-width="3.0" />
            <path d=" M 203.911, 134.932 203.290, 134.574 196.487, 136.876 187.142, 140.038 187.314, 131.462 187.428, 125.795 187.537, 120.379 " fill="none" stroke="rgb(157, 20, 170)" stroke-linecap="butt" stroke-linejoin="round" stroke-opacity="1.0" stroke-width="3.0" />
            <path d=" M 145.099, 135.829 153.421, 141.374 161.742, 146.919 163.338, 147.982 171.660, 153.527 174.385, 155.342 182.981, 152.285 192.310, 148.967 " fill="none" stroke="rgb(157, 20, 170)" stroke-linecap="butt" stroke-linejoin="round" stroke-opacity="1.0" stroke-width="3.0" />
            <path d=" M 267.280, 205.323 273.446, 209.287 282.312, 204.662 291.179, 200.038 300.045, 195.413 304.589, 193.043 306.236, 183.179 307.882, 173.316 309.528, 163.452 311.175, 153.589 311.253, 153.122 302.297, 148.674 293.341, 144.225 284.385, 139.777 275.822, 135.524 269.601, 137.925 " fill="none" stroke="rgb(157, 20, 170)" stroke-linecap="butt" stroke-linejoin="round" stroke-opacity="1.0" stroke-width="3.0" />
            <path d=" M 311.253, 153.122 302.129, 157.216 293.005, 161.309 283.881, 165.402 282.223, 166.146 " fill="none" stroke="rgb(157, 20, 170)" stroke-linecap="butt" stroke-linejoin="round" stroke-opacity="1.0" stroke-width="3.0" />
            <path d=" M 114.966, 83.164 105.203, 85.327 103.601, 85.681 104.324, 95.655 105.047, 105.629 105.769, 115.603 106.492, 125.577 107.247, 136.000 115.287, 141.945 123.328, 147.891 131.368, 153.837 135.967, 157.239 145.440, 154.035 145.618, 153.975 " fill="none" stroke="rgb(157, 20, 170)" stroke-linecap="butt" stroke-linejoin="round" stroke-opacity="1.0" stroke-width="3.0" />
            <path d=" M 133.820, 103.835 134.222, 113.827 134.624, 123.819 135.025, 133.811 135.427, 143.803 135.829, 153.795 135.967, 157.239 " fill="none" stroke="rgb(157, 20, 170)" stroke-linecap="butt" stroke-linejoin="round" stroke-opacity="1.0" stroke-width="3.0" />
            <path d=" M 161.564, 130.713 158.890, 129.039 152.578, 125.086 152.380, 115.088 152.185, 105.222 " fill="none" stroke="rgb(157, 20, 170)" stroke-linecap="butt" stroke-linejoin="round" stroke-opacity="1.0" stroke-width="3.0" />
            <path d=" M 103.601, 85.681 112.174, 90.831 120.746, 95.981 129.318, 101.130 133.820, 103.835 139.411, 102.391 " fill="none" stroke="rgb(157, 20, 170)" stroke-linecap="butt" stroke-linejoin="round" stroke-opacity="1.0" stroke-width="3.0" />
            <path d=" M 235.943, 88.913 245.095, 92.943 252.884, 96.373 255.698, 95.528 " fill="none" stroke="rgb(157, 20, 170)" stroke-linecap="butt" stroke-linejoin="round" stroke-opacity="1.0" stroke-width="3.0" />
            <path d=" M 226.020, 42.543 226.994, 42.884 " fill="none" stroke="rgb(157, 20, 170)" stroke-linecap="butt" stroke-linejoin="round" stroke-opacity="1.0" stroke-width="3.0" />
            <path d=" M 227.026, 42.348 226.020, 42.543 225.435, 52.526 225.102, 58.201 " fill="none" stroke="rgb(157, 20, 170)" stroke-linecap="butt" stroke-linejoin="round" stroke-opacity="1.0" stroke-width="3.0" />
            <path d=" M 192.579, 138.776 197.069, 141.470 205.644, 146.614 214.000, 151.627 219.665, 155.025 228.240, 160.170 229.204, 160.748 237.074, 165.469 244.857, 162.261 254.102, 158.451 260.997, 155.609 270.242, 151.799 279.488, 147.988 284.974, 145.727 " fill="none" stroke="rgb(157, 20, 170)" stroke-linecap="butt" stroke-linejoin="round" stroke-opacity="1.0" stroke-width="3.0" />
            <path d=" M 244.616, 216.845 253.530, 212.313 259.172, 209.445 267.280, 205.323 274.442, 201.682 277.656, 200.048 278.991, 190.138 280.326, 180.227 280.472, 179.147 281.807, 169.237 282.223, 166.146 283.558, 156.236 284.893, 146.325 284.974, 145.727 276.056, 141.202 275.180, 140.757 269.601, 137.925 260.683, 133.400 251.766, 128.874 242.848, 124.349 239.744, 122.773 236.138, 123.997 233.329, 124.950 226.554, 127.249 217.084, 130.462 208.863, 133.251 204.823, 134.622 203.911, 134.932 203.268, 135.150 201.764, 135.660 197.302, 137.174 197.246, 137.193 197.105, 137.241 196.775, 137.353 192.579, 138.776 192.578, 138.828 192.466, 143.063 192.421, 144.765 192.310, 148.967 192.068, 158.151 191.805, 168.148 191.778, 169.168 191.514, 179.165 191.417, 182.851 " fill="none" stroke="rgb(157, 20, 170)" stroke-linecap="butt" stroke-linejoin="round" stroke-opacity="1.0" stroke-width="3.0" />
            <path d=" M 228.951, 83.863 236.083, 86.974 245.249, 90.971 253.067, 94.381 255.698, 95.528 264.864, 99.526 271.681, 102.499 281.201, 99.436 290.720, 96.373 300.239, 93.309 309.758, 90.246 316.021, 88.231 317.603, 78.357 319.186, 68.483 320.768, 58.609 322.351, 48.735 323.933, 38.861 325.516, 28.987 326.496, 22.871 316.802, 20.416 307.108, 17.962 297.414, 15.507 287.720, 13.052 278.026, 10.598 275.213, 9.885 265.325, 11.378 255.437, 12.871 245.549, 14.364 235.662, 15.857 228.543, 16.931 227.947, 26.914 227.665, 31.637 227.070, 41.619 227.051, 41.935 227.026, 42.348 226.994, 42.884 226.399, 52.867 226.058, 58.569 " fill="none" stroke="rgb(157, 20, 170)" stroke-linecap="butt" stroke-linejoin="round" stroke-opacity="1.0" stroke-width="3.0" />
            <path d=" M 326.496, 22.871 316.678, 24.773 306.861, 26.676 297.044, 28.578 287.226, 30.481 279.684, 31.942 " fill="none" stroke="rgb(157, 20, 170)" stroke-linecap="butt" stroke-linejoin="round" stroke-opacity="1.0" stroke-width="3.0" />
            <path d=" M 228.543, 16.931 238.138, 19.748 247.734, 22.564 257.329, 25.380 266.924, 28.197 276.519, 31.013 279.684, 31.942 278.557, 41.878 278.366, 43.568 277.238, 53.504 276.112, 63.441 274.984, 73.377 273.858, 83.313 273.063, 90.320 271.936, 100.256 271.681, 102.499 " fill="none" stroke="rgb(157, 20, 170)" stroke-linecap="butt" stroke-linejoin="round" stroke-opacity="1.0" stroke-width="3.0" />
            <path d=" M 188.019, 120.651 191.453, 119.594 195.219, 118.435 197.925, 117.603 198.297, 117.488 205.701, 115.210 209.549, 114.026 209.731, 113.970 210.481, 113.739 210.758, 113.654 220.316, 110.713 221.440, 110.367 227.359, 108.545 228.003, 98.566 228.646, 88.587 228.827, 85.780 228.951, 83.863 228.964, 83.662 229.068, 82.053 229.147, 80.821 229.380, 77.205 229.696, 72.309 229.975, 67.986 230.473, 60.266 226.058, 58.569 225.102, 58.201 215.768, 54.612 206.976, 51.232 197.573, 47.616 192.518, 48.594 185.911, 49.871 176.093, 51.770 169.560, 53.033 160.707, 54.746 157.089, 55.445 157.225, 65.444 157.332, 73.378 157.401, 78.493 157.426, 80.325 157.486, 84.751 157.571, 91.071 157.595, 92.822 157.640, 96.159 157.652, 97.085 157.685, 99.459 157.740, 103.576 157.932, 103.684 166.643, 108.596 175.091, 113.361 183.802, 118.273 187.537, 120.379 188.019, 120.651 " fill="none" stroke="rgb(157, 20, 170)" stroke-linecap="butt" stroke-linejoin="round" stroke-opacity="1.0" stroke-width="3.0" />
            <path d=" M 230.473, 60.266 225.895, 61.302 224.907, 61.525 215.153, 63.731 211.066, 64.655 206.410, 65.708 196.657, 67.914 192.033, 68.960 189.072, 69.629 " fill="none" stroke="rgb(157, 20, 170)" stroke-linecap="butt" stroke-linejoin="round" stroke-opacity="1.0" stroke-width="3.0" />
            <path d=" M 157.089, 55.445 166.231, 59.499 169.563, 60.977 176.398, 64.009 185.603, 68.091 189.072, 69.629 189.059, 70.281 188.868, 79.500 188.818, 81.946 188.751, 85.200 188.692, 88.053 188.640, 90.557 188.615, 91.779 188.409, 101.777 188.202, 111.774 188.019, 120.651 " fill="none" stroke="rgb(157, 20, 170)" stroke-linecap="butt" stroke-linejoin="round" stroke-opacity="1.0" stroke-width="3.0" />
            <path d=" M 185.911, 49.871 186.018, 43.509 186.081, 39.810 186.249, 29.811 186.418, 19.813 186.550, 12.001 177.001, 9.032 167.452, 6.064 157.903, 3.095 148.353, 0.127 147.946, 0.000 138.003, 1.065 128.060, 2.129 118.117, 3.194 108.173, 4.258 98.230, 5.323 90.183, 6.185 90.982, 16.153 91.781, 26.121 92.580, 36.089 93.380, 46.057 94.179, 56.025 94.978, 65.993 95.456, 71.958 104.127, 76.938 112.799, 81.919 114.966, 83.164 117.289, 84.498 123.643, 88.148 129.390, 91.449 139.117, 89.130 146.215, 87.438 151.085, 86.277 157.486, 84.751 " fill="none" stroke="rgb(157, 20, 170)" stroke-linecap="butt" stroke-linejoin="round" stroke-opacity="1.0" stroke-width="3.0" />
            <path d=" M 186.550, 12.001 176.637, 13.319 166.725, 14.636 156.812, 15.954 146.899, 17.271 136.986, 18.589 127.073, 19.906 126.209, 20.021 " fill="none" stroke="rgb(157, 20, 170)" stroke-linecap="butt" stroke-linejoin="round" stroke-opacity="1.0" stroke-width="3.0" />
            <path d=" M 90.183, 6.185 99.518, 9.770 108.854, 13.356 118.189, 16.941 126.209, 20.021 126.653, 30.011 126.893, 35.387 127.170, 41.603 127.615, 51.593 128.060, 61.583 128.297, 66.924 128.742, 76.915 128.883, 80.081 129.328, 90.071 129.390, 91.449 " fill="none" stroke="rgb(157, 20, 170)" stroke-linecap="butt" stroke-linejoin="round" stroke-opacity="1.0" stroke-width="3.0" />
            <path d=" M 236.595, 117.956 233.769, 118.885 " fill="none" stroke="rgb(157, 20, 170)" stroke-linecap="butt" stroke-linejoin="round" stroke-opacity="1.0" stroke-width="3.0" />
            <path d=" M 236.138, 123.997 236.595, 117.956 233.933, 116.623 " fill="none" stroke="rgb(157, 20, 170)" stroke-linecap="butt" stroke-linejoin="round" stroke-opacity="1.0" stroke-width="3.0" />
            <path d=" M 146.215, 87.438 146.427, 95.623 146.467, 97.134 146.714, 106.686 " fill="none" stroke="rgb(157, 20, 170)" stroke-linecap="butt" stroke-linejoin="round" stroke-opacity="1.0" stroke-width="3.0" />
            <path d=" M 233.329, 124.950 233.769, 118.885 233.933, 116.623 234.657, 106.649 235.380, 96.675 235.943, 88.913 236.083, 86.974 " fill="none" stroke="rgb(157, 20, 170)" stroke-linecap="butt" stroke-linejoin="round" stroke-opacity="1.0" stroke-width="3.0" />
            <path d=" M 253.067, 94.381 252.884, 96.373 " fill="none" stroke="rgb(157, 20, 170)" stroke-linecap="butt" stroke-linejoin="round" stroke-opacity="1.0" stroke-width="3.0" />
            <path d=" M 274.442, 201.682 273.446, 209.287 " fill="none" stroke="rgb(157, 20, 170)" stroke-linecap="butt" stroke-linejoin="round" stroke-opacity="1.0" stroke-width="3.0" />
        </g>
    </g>
    <g id="fressstylelayer_hidden lines" inkscape:groupmode="lineset" inkscape:label="fressstylelayer_hidden lines">
        <g id="strokes" inkscape:groupmode="layer" inkscape:label="strokes">
            <path d=" M 145.876, 257.103 154.844, 252.678 163.812, 248.253 172.779, 243.828 174.894, 242.784 183.862, 238.359 184.748, 237.922 " fill="none" stroke="rgb(0, 119, 0)" stroke-linecap="butt" stroke-linejoin="round" stroke-opacity="1.0" stroke-width="3.0" />
            <path d=" M 259.172, 209.445 260.155, 200.744 260.495, 197.728 257.636, 199.124 248.650, 203.512 240.550, 207.468 235.449, 209.959 226.463, 214.347 224.895, 215.112 224.484, 220.969 224.349, 222.901 223.650, 232.877 222.950, 242.852 222.354, 251.357 213.584, 256.162 209.192, 258.568 201.552, 252.115 193.913, 245.662 187.946, 240.623 184.748, 237.922 184.777, 236.451 184.886, 230.866 185.081, 220.868 185.277, 210.870 185.472, 200.872 185.499, 199.504 194.677, 195.533 197.109, 194.481 197.339, 187.656 197.434, 184.871 197.467, 183.884 197.481, 183.461 197.527, 182.097 197.587, 180.322 " fill="none" stroke="rgb(0, 119, 0)" stroke-linecap="butt" stroke-linejoin="round" stroke-opacity="1.0" stroke-width="3.0" />
            <path d=" M 222.354, 251.357 230.144, 257.628 231.768, 258.935 239.558, 265.206 239.970, 265.537 " fill="none" stroke="rgb(0, 119, 0)" stroke-linecap="butt" stroke-linejoin="round" stroke-opacity="1.0" stroke-width="3.0" />
            <path d=" M 235.918, 204.304 235.449, 209.959 234.968, 215.748 234.448, 222.015 243.362, 217.483 244.616, 216.845 " fill="none" stroke="rgb(0, 119, 0)" stroke-linecap="butt" stroke-linejoin="round" stroke-opacity="1.0" stroke-width="3.0" />
            <path d=" M 224.895, 215.112 233.001, 220.969 234.448, 222.015 " fill="none" stroke="rgb(0, 119, 0)" stroke-linecap="butt" stroke-linejoin="round" stroke-opacity="1.0" stroke-width="3.0" />
            <path d=" M 196.561, 184.261 197.467, 183.884 206.701, 180.047 214.949, 176.620 224.183, 172.782 228.328, 171.060 " fill="none" stroke="rgb(0, 119, 0)" stroke-linecap="butt" stroke-linejoin="round" stroke-opacity="1.0" stroke-width="3.0" />
            <path d=" M 230.895, 134.661 230.191, 144.636 230.029, 146.940 229.730, 151.177 229.051, 160.809 228.347, 170.785 228.328, 171.060 236.815, 176.348 245.303, 181.636 251.598, 185.558 257.376, 189.159 " fill="none" stroke="rgb(0, 119, 0)" stroke-linecap="butt" stroke-linejoin="round" stroke-opacity="1.0" stroke-width="3.0" />
            <path d=" M 233.933, 116.623 224.992, 112.146 221.440, 110.367 212.777, 106.030 211.147, 105.213 210.878, 105.078 210.147, 104.713 209.964, 104.766 202.462, 106.961 209.699, 110.684 209.875, 110.774 210.600, 111.148 210.867, 111.285 212.485, 112.118 212.777, 106.030 212.995, 101.500 213.474, 91.511 213.509, 90.784 210.650, 89.451 208.835, 88.604 200.289, 84.620 197.479, 83.309 196.547, 82.875 192.573, 81.022 190.954, 81.420 188.818, 81.946 184.291, 83.059 183.647, 83.217 180.544, 83.980 175.303, 85.268 173.411, 85.734 172.362, 85.991 169.405, 86.719 168.839, 86.858 168.211, 87.012 166.949, 87.322 166.221, 87.501 166.227, 88.924 166.234, 90.656 166.237, 91.569 166.238, 91.690 166.250, 94.873 166.273, 100.620 166.991, 100.429 168.235, 100.098 172.670, 98.917 175.180, 98.249 176.366, 97.933 177.567, 97.613 177.615, 91.948 177.620, 91.315 177.624, 90.882 180.602, 90.121 185.312, 88.917 188.184, 88.183 188.692, 88.053 190.815, 87.510 192.423, 87.099 196.369, 88.995 197.294, 89.440 200.277, 90.873 200.275, 90.942 200.159, 94.399 200.133, 95.191 199.798, 105.186 199.571, 111.966 199.480, 114.686 197.130, 115.400 195.290, 115.959 195.219, 118.435 195.127, 121.641 197.823, 120.797 201.987, 119.494 209.409, 117.172 209.549, 114.026 209.595, 113.002 209.699, 110.684 209.964, 104.766 210.172, 100.116 210.366, 95.793 210.375, 95.584 210.555, 91.584 210.650, 89.451 210.710, 88.107 202.155, 84.144 197.518, 81.996 196.585, 81.564 191.010, 78.982 188.868, 79.500 179.149, 81.852 177.160, 82.333 175.318, 82.779 170.047, 84.054 169.002, 84.307 166.941, 84.806 166.053, 85.020 166.069, 88.963 166.077, 90.695 166.080, 91.608 166.237, 91.569 166.962, 91.386 168.219, 91.069 171.545, 90.230 174.176, 89.567 174.744, 89.423 175.233, 89.300 176.430, 88.998 175.238, 88.398 173.554, 88.820 172.986, 88.963 170.358, 89.622 168.217, 90.159 166.959, 90.474 166.234, 90.656 166.077, 90.695 157.595, 92.822 153.435, 93.866 151.252, 94.413 151.242, 94.415 146.427, 95.623 141.718, 96.804 141.873, 101.756 141.939, 103.878 142.250, 113.873 142.562, 123.868 142.615, 125.594 142.876, 133.952 145.506, 135.702 153.832, 141.241 162.158, 146.780 163.753, 147.842 166.061, 149.377 171.406, 147.550 174.228, 146.585 178.778, 145.030 180.355, 144.491 178.794, 143.506 178.778, 145.030 178.749, 147.811 178.731, 149.542 182.981, 152.285 183.833, 152.835 192.068, 158.151 197.305, 161.531 203.573, 165.577 208.828, 163.530 213.339, 161.772 213.475, 161.720 214.537, 161.306 213.529, 160.681 210.229, 158.633 204.009, 154.774 197.655, 150.831 197.328, 160.825 197.305, 161.531 196.978, 171.526 196.941, 172.636 196.678, 180.695 196.620, 182.471 196.575, 183.837 196.561, 184.261 197.434, 184.871 199.885, 186.583 208.082, 192.311 216.346, 198.085 224.543, 203.813 225.211, 204.279 229.485, 202.270 234.292, 200.010 235.295, 199.539 244.345, 195.285 245.032, 194.962 250.349, 192.462 251.425, 191.956 252.070, 191.654 256.755, 189.451 257.376, 189.159 257.546, 187.586 258.415, 179.537 259.487, 169.595 260.560, 159.653 260.785, 157.570 260.997, 155.609 261.468, 151.241 252.677, 146.474 250.506, 145.296 241.715, 140.529 238.470, 138.769 235.156, 136.972 230.895, 134.661 221.470, 138.003 217.073, 139.562 225.763, 144.511 230.029, 146.940 234.222, 149.328 234.976, 139.356 235.156, 136.972 235.911, 127.001 236.138, 123.997 " fill="none" stroke="rgb(0, 119, 0)" stroke-linecap="butt" stroke-linejoin="round" stroke-opacity="1.0" stroke-width="3.0" />
            <path d=" M 261.468, 151.241 252.198, 154.991 242.928, 158.741 240.505, 159.721 231.235, 163.472 227.956, 164.798 " fill="none" stroke="rgb(0, 119, 0)" stroke-linecap="butt" stroke-linejoin="round" stroke-opacity="1.0" stroke-width="3.0" />
            <path d=" M 214.779, 156.757 214.916, 156.841 223.452, 162.050 224.435, 162.649 227.956, 164.798 227.263, 174.774 226.569, 184.750 225.875, 194.726 225.211, 204.279 " fill="none" stroke="rgb(0, 119, 0)" stroke-linecap="butt" stroke-linejoin="round" stroke-opacity="1.0" stroke-width="3.0" />
            <path d=" M 234.222, 149.328 224.881, 152.897 215.539, 156.467 214.779, 156.757 214.772, 156.896 214.537, 161.306 " fill="none" stroke="rgb(0, 119, 0)" stroke-linecap="butt" stroke-linejoin="round" stroke-opacity="1.0" stroke-width="3.0" />
            <path d=" M 206.098, 73.699 215.823, 71.372 223.150, 69.619 224.450, 69.308 225.431, 69.073 229.975, 67.986 234.401, 66.927 " fill="none" stroke="rgb(0, 119, 0)" stroke-linecap="butt" stroke-linejoin="round" stroke-opacity="1.0" stroke-width="3.0" />
            <path d=" M 236.955, 30.003 236.265, 39.979 236.224, 40.562 235.534, 50.539 234.845, 60.515 234.401, 66.927 243.701, 70.604 253.000, 74.281 260.875, 77.395 " fill="none" stroke="rgb(0, 119, 0)" stroke-linecap="butt" stroke-linejoin="round" stroke-opacity="1.0" stroke-width="3.0" />
            <path d=" M 206.976, 51.232 206.586, 61.224 206.524, 62.790 206.410, 65.708 206.098, 73.699 215.265, 77.693 219.768, 79.655 223.742, 81.386 224.672, 81.792 224.955, 81.915 226.701, 82.676 228.964, 83.662 232.285, 85.109 236.297, 84.026 245.952, 81.421 254.468, 79.123 258.580, 78.014 260.875, 77.395 261.367, 72.412 262.348, 62.460 263.330, 52.509 263.394, 51.862 264.375, 41.910 264.640, 39.221 264.686, 38.759 255.150, 35.748 245.614, 32.737 236.955, 30.003 227.665, 31.637 " fill="none" stroke="rgb(0, 119, 0)" stroke-linecap="butt" stroke-linejoin="round" stroke-opacity="1.0" stroke-width="3.0" />
            <path d=" M 264.686, 38.759 263.766, 38.944 253.962, 40.914 244.158, 42.884 235.041, 44.716 " fill="none" stroke="rgb(0, 119, 0)" stroke-linecap="butt" stroke-linejoin="round" stroke-opacity="1.0" stroke-width="3.0" />
            <path d=" M 227.051, 41.935 227.803, 42.197 235.041, 44.716 234.360, 54.693 233.680, 64.670 233.064, 73.692 232.384, 83.669 232.285, 85.109 " fill="none" stroke="rgb(0, 119, 0)" stroke-linecap="butt" stroke-linejoin="round" stroke-opacity="1.0" stroke-width="3.0" />
            <path d=" M 169.669, 238.205 178.677, 233.861 184.886, 230.866 193.893, 226.522 202.901, 222.178 211.908, 217.835 215.296, 216.200 " fill="none" stroke="rgb(0, 119, 0)" stroke-linecap="butt" stroke-linejoin="round" stroke-opacity="1.0" stroke-width="3.0" />
            <path d=" M 218.087, 168.046 218.028, 169.063 217.449, 179.046 216.871, 189.029 216.346, 198.085 215.767, 208.068 215.296, 216.200 223.334, 222.150 224.349, 222.901 232.387, 228.851 240.424, 234.800 242.739, 236.513 250.777, 242.463 255.083, 245.650 " fill="none" stroke="rgb(0, 119, 0)" stroke-linecap="butt" stroke-linejoin="round" stroke-opacity="1.0" stroke-width="3.0" />
            <path d=" M 166.296, 193.146 169.659, 195.745 174.150, 199.215 174.777, 198.949 174.154, 198.470 169.658, 195.004 169.659, 195.745 169.661, 205.745 169.664, 215.745 169.666, 223.740 169.668, 233.740 169.669, 238.205 174.894, 242.784 182.414, 249.376 187.629, 253.946 195.149, 260.538 202.669, 267.129 208.468, 272.211 217.157, 267.261 225.845, 262.310 231.768, 258.935 240.456, 253.984 241.108, 253.613 " fill="none" stroke="rgb(0, 119, 0)" stroke-linecap="butt" stroke-linejoin="round" stroke-opacity="1.0" stroke-width="3.0" />
            <path d=" M 209.192, 258.568 208.662, 268.554 208.468, 272.211 " fill="none" stroke="rgb(0, 119, 0)" stroke-linecap="butt" stroke-linejoin="round" stroke-opacity="1.0" stroke-width="3.0" />
            <path d=" M 185.499, 199.504 177.509, 193.490 174.822, 191.467 " fill="none" stroke="rgb(0, 119, 0)" stroke-linecap="butt" stroke-linejoin="round" stroke-opacity="1.0" stroke-width="3.0" />
            <path d=" M 209.790, 177.036 200.547, 180.851 197.527, 182.097 196.620, 182.471 191.370, 184.638 182.126, 188.453 174.822, 191.467 174.777, 198.949 " fill="none" stroke="rgb(0, 119, 0)" stroke-linecap="butt" stroke-linejoin="round" stroke-opacity="1.0" stroke-width="3.0" />
            <path d=" M 117.579, 89.552 123.643, 88.148 133.386, 85.892 143.128, 83.636 152.870, 81.380 157.426, 80.325 159.909, 79.750 160.946, 79.510 " fill="none" stroke="rgb(0, 119, 0)" stroke-linecap="butt" stroke-linejoin="round" stroke-opacity="1.0" stroke-width="3.0" />
            <path d=" M 160.469, 30.166 160.565, 40.165 160.591, 42.865 160.688, 52.865 160.707, 54.746 160.803, 64.745 160.879, 72.594 160.946, 79.510 166.934, 82.499 170.047, 84.054 172.780, 85.418 173.411, 85.734 175.295, 86.674 " fill="none" stroke="rgb(0, 119, 0)" stroke-linecap="butt" stroke-linejoin="round" stroke-opacity="1.0" stroke-width="3.0" />
            <path d=" M 157.932, 103.684 162.911, 102.352 166.993, 101.260 166.799, 101.155 158.798, 96.790 157.640, 96.159 153.435, 93.866 151.216, 92.656 151.206, 92.650 151.242, 94.415 151.273, 95.918 151.330, 98.712 154.747, 97.833 157.652, 97.085 158.798, 96.790 166.250, 94.873 166.972, 94.687 168.225, 94.365 170.321, 93.825 172.687, 93.216 175.214, 92.566 176.407, 92.259 177.615, 91.948 178.446, 91.735 181.998, 90.821 180.602, 90.121 178.870, 89.253 174.244, 86.935 172.362, 85.991 171.732, 85.675 169.002, 84.307 166.936, 83.272 165.891, 82.748 159.909, 79.750 157.401, 78.493 150.858, 75.213 145.927, 76.305 136.164, 78.468 128.883, 80.081 119.120, 82.244 117.184, 82.673 114.966, 83.164 " fill="none" stroke="rgb(0, 119, 0)" stroke-linecap="butt" stroke-linejoin="round" stroke-opacity="1.0" stroke-width="3.0" />
            <path d=" M 175.429, 64.215 175.369, 74.215 175.332, 80.497 175.318, 82.779 175.306, 84.799 175.303, 85.268 175.295, 86.674 174.244, 86.935 170.716, 87.810 166.227, 88.924 166.069, 88.963 157.571, 91.071 151.206, 92.650 " fill="none" stroke="rgb(0, 119, 0)" stroke-linecap="butt" stroke-linejoin="round" stroke-opacity="1.0" stroke-width="3.0" />
            <path d=" M 145.916, 75.900 145.927, 76.305 146.186, 86.302 146.215, 87.438 " fill="none" stroke="rgb(0, 119, 0)" stroke-linecap="butt" stroke-linejoin="round" stroke-opacity="1.0" stroke-width="3.0" />
            <path d=" M 166.917, 77.348 176.662, 75.103 185.519, 73.063 191.971, 71.577 " fill="none" stroke="rgb(0, 119, 0)" stroke-linecap="butt" stroke-linejoin="round" stroke-opacity="1.0" stroke-width="3.0" />
            <path d=" M 236.083, 86.974 236.297, 84.026 236.583, 80.076 236.672, 78.857 236.931, 75.281 233.064, 73.692 229.696, 72.309 225.345, 70.521 224.402, 70.134 223.150, 69.619 213.900, 65.819 211.066, 64.655 206.524, 62.790 198.200, 59.370 197.225, 59.577 192.231, 60.640 185.705, 62.028 176.398, 64.009 175.429, 64.215 184.565, 68.281 185.592, 68.738 189.059, 70.281 191.971, 71.577 192.033, 68.960 192.231, 60.640 192.469, 50.643 192.518, 48.594 " fill="none" stroke="rgb(0, 119, 0)" stroke-linecap="butt" stroke-linejoin="round" stroke-opacity="1.0" stroke-width="3.0" />
            <path d=" M 166.993, 101.260 166.991, 100.429 166.972, 94.687 166.962, 91.386 166.959, 90.474 166.949, 87.322 166.941, 84.806 166.936, 83.272 166.933, 82.499 166.917, 77.348 174.027, 80.808 177.160, 82.333 179.909, 83.671 180.544, 83.980 188.194, 87.703 " fill="none" stroke="rgb(0, 119, 0)" stroke-linecap="butt" stroke-linejoin="round" stroke-opacity="1.0" stroke-width="3.0" />
            <path d=" M 169.558, 46.525 169.560, 53.033 169.563, 60.977 169.566, 70.676 160.879, 72.594 157.332, 73.378 147.567, 75.535 145.916, 75.900 137.006, 71.361 128.297, 66.924 126.141, 65.826 125.674, 55.837 125.207, 45.848 125.024, 41.956 127.170, 41.603 137.037, 39.978 146.904, 38.353 148.780, 38.044 158.038, 41.823 160.591, 42.865 169.558, 46.525 " fill="none" stroke="rgb(0, 119, 0)" stroke-linecap="butt" stroke-linejoin="round" stroke-opacity="1.0" stroke-width="3.0" />
            <path d=" M 186.081, 39.810 176.722, 36.286 167.364, 32.762 160.469, 30.166 150.587, 31.702 148.647, 32.004 138.766, 33.541 128.885, 35.078 126.893, 35.387 117.012, 36.924 114.579, 37.302 115.152, 47.286 115.726, 57.270 116.299, 67.253 116.329, 67.787 116.903, 77.770 117.184, 82.673 117.289, 84.498 " fill="none" stroke="rgb(0, 119, 0)" stroke-linecap="butt" stroke-linejoin="round" stroke-opacity="1.0" stroke-width="3.0" />
            <path d=" M 125.024, 41.956 115.890, 37.886 114.579, 37.302 " fill="none" stroke="rgb(0, 119, 0)" stroke-linecap="butt" stroke-linejoin="round" stroke-opacity="1.0" stroke-width="3.0" />
            <path d=" M 146.298, 177.693 155.664, 174.188 165.029, 170.683 174.395, 167.178 183.654, 163.713 " fill="none" stroke="rgb(0, 119, 0)" stroke-linecap="butt" stroke-linejoin="round" stroke-opacity="1.0" stroke-width="3.0" />
            <path d=" M 184.211, 129.929 184.046, 139.928 183.945, 146.013 183.833, 152.835 183.668, 162.834 183.654, 163.713 191.778, 169.168 196.941, 172.636 205.243, 178.211 207.112, 179.465 " fill="none" stroke="rgb(0, 119, 0)" stroke-linecap="butt" stroke-linejoin="round" stroke-opacity="1.0" stroke-width="3.0" />
            <path d=" M 207.435, 172.342 207.112, 179.465 197.875, 183.297 197.481, 183.461 196.575, 183.837 191.334, 186.011 182.097, 189.843 172.860, 193.675 169.658, 195.004 " fill="none" stroke="rgb(0, 119, 0)" stroke-linecap="butt" stroke-linejoin="round" stroke-opacity="1.0" stroke-width="3.0" />
            <path d=" M 214.746, 180.317 209.790, 177.036 210.020, 172.306 210.070, 171.280 210.470, 163.021 " fill="none" stroke="rgb(0, 119, 0)" stroke-linecap="butt" stroke-linejoin="round" stroke-opacity="1.0" stroke-width="3.0" />
            <path d=" M 269.601, 137.925 260.271, 141.526 250.942, 145.128 250.506, 145.296 243.538, 147.986 243.069, 153.409 242.782, 156.737 246.387, 155.292 243.069, 153.409 237.553, 150.279 235.349, 149.028 229.730, 151.177 220.390, 154.748 219.665, 155.025 214.916, 156.841 214.772, 156.896 213.704, 157.304 210.229, 158.633 209.034, 159.090 213.339, 161.772 213.468, 161.852 213.475, 161.720 213.529, 160.681 213.704, 157.304 214.000, 151.627 214.355, 144.789 214.473, 142.523 214.549, 141.058 210.203, 138.555 208.665, 137.669 204.790, 135.438 203.911, 134.932 " fill="none" stroke="rgb(0, 119, 0)" stroke-linecap="butt" stroke-linejoin="round" stroke-opacity="1.0" stroke-width="3.0" />
            <path d=" M 214.549, 141.058 205.127, 144.409 195.706, 147.760 192.310, 148.967 " fill="none" stroke="rgb(0, 119, 0)" stroke-linecap="butt" stroke-linejoin="round" stroke-opacity="1.0" stroke-width="3.0" />
            <path d=" M 215.519, 166.201 210.470, 163.021 213.468, 161.852 " fill="none" stroke="rgb(0, 119, 0)" stroke-linecap="butt" stroke-linejoin="round" stroke-opacity="1.0" stroke-width="3.0" />
            <path d=" M 168.405, 134.997 173.652, 133.315 183.174, 130.261 184.211, 129.929 192.820, 135.016 196.775, 137.353 201.277, 140.013 203.040, 141.055 " fill="none" stroke="rgb(0, 119, 0)" stroke-linecap="butt" stroke-linejoin="round" stroke-opacity="1.0" stroke-width="3.0" />
            <path d=" M 161.564, 130.713 161.851, 130.893 168.405, 134.997 168.394, 128.592 " fill="none" stroke="rgb(0, 119, 0)" stroke-linecap="butt" stroke-linejoin="round" stroke-opacity="1.0" stroke-width="3.0" />
            <path d=" M 209.034, 159.090 208.828, 163.530 208.436, 171.938 208.388, 172.967 " fill="none" stroke="rgb(0, 119, 0)" stroke-linecap="butt" stroke-linejoin="round" stroke-opacity="1.0" stroke-width="3.0" />
            <path d=" M 207.435, 172.342 208.388, 172.967 210.020, 172.306 215.302, 170.167 218.028, 169.063 219.045, 168.651 218.087, 168.046 215.358, 169.147 210.070, 171.280 208.436, 171.938 207.435, 172.342 " fill="none" stroke="rgb(0, 119, 0)" stroke-linecap="butt" stroke-linejoin="round" stroke-opacity="1.0" stroke-width="3.0" />
            <path d=" M 203.290, 134.574 203.268, 135.150 203.040, 141.055 204.585, 140.515 208.600, 139.115 210.203, 138.555 219.645, 135.261 229.087, 131.967 232.918, 130.630 233.329, 124.950 " fill="none" stroke="rgb(0, 119, 0)" stroke-linecap="butt" stroke-linejoin="round" stroke-opacity="1.0" stroke-width="3.0" />
            <path d=" M 142.876, 133.952 152.436, 131.019 153.265, 130.765 158.890, 129.039 168.141, 126.200 175.028, 124.087 " fill="none" stroke="rgb(0, 119, 0)" stroke-linecap="butt" stroke-linejoin="round" stroke-opacity="1.0" stroke-width="3.0" />
            <path d=" M 175.238, 88.398 175.233, 89.300 175.228, 90.101 175.228, 90.177 175.214, 92.566 175.180, 98.249 175.121, 108.249 175.091, 113.361 175.032, 123.360 175.028, 124.087 181.237, 127.750 189.850, 132.830 197.246, 137.193 197.301, 137.226 " fill="none" stroke="rgb(0, 119, 0)" stroke-linecap="butt" stroke-linejoin="round" stroke-opacity="1.0" stroke-width="3.0" />
            <path d=" M 197.931, 117.395 197.925, 117.603 197.823, 120.797 197.768, 122.531 197.450, 132.526 197.302, 137.174 197.301, 137.226 197.160, 137.273 192.578, 138.828 183.108, 142.042 178.794, 143.506 " fill="none" stroke="rgb(0, 119, 0)" stroke-linecap="butt" stroke-linejoin="round" stroke-opacity="1.0" stroke-width="3.0" />
            <path d=" M 166.014, 138.918 166.019, 140.049 166.037, 144.048 166.050, 147.065 166.061, 149.377 " fill="none" stroke="rgb(0, 119, 0)" stroke-linecap="butt" stroke-linejoin="round" stroke-opacity="1.0" stroke-width="3.0" />
            <path d=" M 180.355, 144.491 180.383, 142.218 180.467, 135.320 180.557, 127.964 180.563, 127.478 " fill="none" stroke="rgb(0, 119, 0)" stroke-linecap="butt" stroke-linejoin="round" stroke-opacity="1.0" stroke-width="3.0" />
            <path d=" M 145.618, 153.975 155.091, 150.771 163.338, 147.982 163.753, 147.842 166.050, 147.065 169.087, 146.038 174.240, 144.295 180.383, 142.218 182.037, 141.658 182.104, 136.962 182.135, 134.774 180.467, 135.320 179.782, 135.544 174.817, 137.169 174.276, 137.346 166.019, 140.049 161.948, 141.381 166.037, 144.048 169.087, 146.038 171.406, 147.550 174.214, 149.381 178.749, 147.811 183.945, 146.013 192.466, 143.063 197.069, 141.470 201.277, 140.013 201.608, 139.898 197.160, 137.273 197.105, 137.241 196.487, 136.876 187.875, 131.793 187.314, 131.462 181.098, 127.794 180.563, 127.478 173.782, 129.613 173.668, 129.649 173.658, 131.806 173.652, 133.315 173.638, 136.436 166.014, 138.918 161.901, 136.288 155.924, 132.465 153.265, 130.765 144.841, 125.377 144.372, 125.077 144.081, 115.082 143.787, 104.964 143.680, 101.289 143.580, 97.864 146.467, 97.134 151.273, 95.918 151.283, 95.915 154.747, 97.833 157.685, 99.459 162.718, 102.246 162.911, 102.352 168.244, 105.305 172.653, 104.096 172.667, 99.586 172.670, 98.917 172.682, 95.059 172.687, 93.216 172.695, 90.819 175.228, 90.177 175.328, 90.152 175.897, 90.007 176.424, 89.874 178.870, 89.253 183.574, 88.061 185.312, 88.917 188.141, 90.311 188.640, 90.557 190.251, 91.351 190.721, 91.583 194.902, 93.643 197.757, 95.050 197.449, 105.045 197.273, 110.749 197.130, 115.400 197.086, 116.830 198.054, 117.357 198.297, 117.488 201.987, 119.494 203.972, 120.573 209.303, 123.470 210.281, 124.001 210.524, 118.729 210.758, 113.654 210.805, 112.632 210.867, 111.285 211.147, 105.213 211.356, 100.696 211.565, 96.155 210.375, 95.584 205.114, 93.057 200.463, 90.824 197.298, 89.304 196.373, 88.860 192.427, 86.965 191.962, 86.742 190.845, 86.205 188.751, 85.200 184.291, 83.059 183.654, 82.753 179.909, 83.671 175.306, 84.799 172.780, 85.418 171.732, 85.675 168.776, 86.400 168.211, 86.538 168.839, 86.858 170.716, 87.810 172.986, 88.963 174.176, 89.567 175.228, 90.101 175.328, 90.152 176.418, 90.705 177.620, 91.315 178.446, 91.735 181.962, 93.519 188.109, 91.911 188.615, 91.779 190.251, 91.351 190.729, 91.226 196.347, 89.756 197.292, 89.509 200.275, 90.942 204.833, 93.133 210.366, 95.793 211.283, 96.234 211.085, 100.563 210.878, 105.078 210.600, 111.148 210.528, 112.717 210.481, 113.739 210.259, 118.588 209.512, 118.824 203.972, 120.573 197.768, 122.531 188.232, 125.542 187.428, 125.795 181.237, 127.750 181.098, 127.794 180.557, 127.964 174.314, 129.935 173.782, 129.613 168.141, 126.200 161.772, 122.347 152.578, 125.086 " fill="none" stroke="rgb(0, 119, 0)" stroke-linecap="butt" stroke-linejoin="round" stroke-opacity="1.0" stroke-width="3.0" />
            <path d=" M 143.580, 97.864 141.718, 96.804 " fill="none" stroke="rgb(0, 119, 0)" stroke-linecap="butt" stroke-linejoin="round" stroke-opacity="1.0" stroke-width="3.0" />
            <path d=" M 187.537, 120.379 187.738, 110.381 187.939, 100.383 188.109, 91.911 188.141, 90.311 188.184, 88.183 188.194, 87.703 191.962, 86.742 200.289, 84.620 202.155, 84.144 211.846, 81.674 219.768, 79.655 223.905, 78.601 224.878, 78.353 229.380, 77.205 236.931, 75.281 " fill="none" stroke="rgb(0, 119, 0)" stroke-linecap="butt" stroke-linejoin="round" stroke-opacity="1.0" stroke-width="3.0" />
            <path d=" M 232.918, 130.630 226.554, 127.249 217.724, 122.556 210.524, 118.729 210.259, 118.588 " fill="none" stroke="rgb(0, 119, 0)" stroke-linecap="butt" stroke-linejoin="round" stroke-opacity="1.0" stroke-width="3.0" />
            <path d=" M 197.292, 89.509 197.294, 89.440 197.298, 89.304 197.479, 83.309 197.518, 81.996 197.819, 72.001 198.120, 62.005 198.200, 59.370 " fill="none" stroke="rgb(0, 119, 0)" stroke-linecap="butt" stroke-linejoin="round" stroke-opacity="1.0" stroke-width="3.0" />
            <path d=" M 278.901, 167.637 277.602, 177.552 276.304, 187.467 275.005, 197.383 274.442, 201.682 " fill="none" stroke="rgb(0, 119, 0)" stroke-linecap="butt" stroke-linejoin="round" stroke-opacity="1.0" stroke-width="3.0" />
            <path d=" M 243.538, 147.986 252.279, 152.843 260.785, 157.570 269.526, 162.427 278.267, 167.285 278.901, 167.637 282.223, 166.146 " fill="none" stroke="rgb(0, 119, 0)" stroke-linecap="butt" stroke-linejoin="round" stroke-opacity="1.0" stroke-width="3.0" />
            <path d=" M 275.822, 135.524 275.180, 140.757 273.964, 150.683 272.748, 160.608 271.531, 170.534 271.135, 173.768 " fill="none" stroke="rgb(0, 119, 0)" stroke-linecap="butt" stroke-linejoin="round" stroke-opacity="1.0" stroke-width="3.0" />
            <path d=" M 304.589, 193.043 295.925, 188.051 287.260, 183.058 280.472, 179.147 271.807, 174.155 271.135, 173.768 262.028, 177.898 258.415, 179.537 253.449, 181.790 244.341, 185.920 243.582, 186.265 " fill="none" stroke="rgb(0, 119, 0)" stroke-linecap="butt" stroke-linejoin="round" stroke-opacity="1.0" stroke-width="3.0" />
            <path d=" M 259.346, 196.273 252.070, 191.654 246.299, 187.990 243.582, 186.265 244.484, 176.305 245.386, 166.346 245.711, 162.760 246.387, 155.292 " fill="none" stroke="rgb(0, 119, 0)" stroke-linecap="butt" stroke-linejoin="round" stroke-opacity="1.0" stroke-width="3.0" />
            <path d=" M 191.417, 182.851 191.370, 184.638 191.334, 186.011 191.222, 190.236 197.339, 187.656 199.885, 186.583 204.103, 184.805 213.317, 180.920 214.746, 180.317 214.949, 176.620 215.302, 170.167 215.358, 169.147 215.519, 166.201 224.435, 162.649 229.051, 160.809 229.204, 160.748 234.613, 158.593 236.966, 157.656 240.505, 159.721 244.857, 162.261 245.711, 162.760 254.347, 167.801 254.847, 168.093 253.831, 178.041 253.449, 181.790 253.136, 184.853 251.598, 185.558 246.299, 187.990 245.655, 188.285 245.552, 189.397 245.032, 194.962 244.103, 204.918 244.054, 205.441 253.042, 201.057 257.363, 198.949 259.145, 198.080 259.271, 196.949 259.346, 196.273 258.701, 196.586 257.623, 197.108 255.842, 197.972 257.363, 198.949 257.636, 199.124 260.155, 200.744 267.280, 205.323 " fill="none" stroke="rgb(0, 119, 0)" stroke-linecap="butt" stroke-linejoin="round" stroke-opacity="1.0" stroke-width="3.0" />
            <path d=" M 259.247, 166.200 258.182, 176.143 257.116, 186.087 256.755, 189.451 255.842, 197.972 " fill="none" stroke="rgb(0, 119, 0)" stroke-linecap="butt" stroke-linejoin="round" stroke-opacity="1.0" stroke-width="3.0" />
            <path d=" M 242.782, 156.737 251.452, 161.720 259.247, 166.200 254.847, 168.093 " fill="none" stroke="rgb(0, 119, 0)" stroke-linecap="butt" stroke-linejoin="round" stroke-opacity="1.0" stroke-width="3.0" />
            <path d=" M 191.010, 78.982 190.954, 81.420 190.845, 86.205 190.815, 87.510 190.729, 91.226 190.721, 91.583 190.492, 101.580 190.365, 107.093 " fill="none" stroke="rgb(0, 119, 0)" stroke-linecap="butt" stroke-linejoin="round" stroke-opacity="1.0" stroke-width="3.0" />
            <path d=" M 209.409, 117.172 205.701, 115.210 199.571, 111.966 197.273, 110.749 190.365, 107.093 180.753, 109.851 176.271, 111.138 " fill="none" stroke="rgb(0, 119, 0)" stroke-linecap="butt" stroke-linejoin="round" stroke-opacity="1.0" stroke-width="3.0" />
            <path d=" M 195.127, 121.641 191.453, 119.594 182.717, 114.728 176.271, 111.138 176.343, 101.138 176.366, 97.933 176.407, 92.259 176.418, 90.705 176.424, 89.874 176.430, 88.998 " fill="none" stroke="rgb(0, 119, 0)" stroke-linecap="butt" stroke-linejoin="round" stroke-opacity="1.0" stroke-width="3.0" />
            <path d=" M 107.247, 136.000 116.841, 133.177 126.434, 130.355 136.028, 127.532 142.615, 125.594 144.372, 125.077 " fill="none" stroke="rgb(0, 119, 0)" stroke-linecap="butt" stroke-linejoin="round" stroke-opacity="1.0" stroke-width="3.0" />
            <path d=" M 173.638, 136.436 174.817, 137.169 182.037, 141.658 " fill="none" stroke="rgb(0, 119, 0)" stroke-linecap="butt" stroke-linejoin="round" stroke-opacity="1.0" stroke-width="3.0" />
            <path d=" M 161.948, 141.381 161.901, 136.288 161.851, 130.893 161.848, 130.625 161.772, 122.347 " fill="none" stroke="rgb(0, 119, 0)" stroke-linecap="butt" stroke-linejoin="round" stroke-opacity="1.0" stroke-width="3.0" />
            <path d=" M 152.065, 99.124 143.680, 101.289 141.873, 101.756 139.411, 102.391 " fill="none" stroke="rgb(0, 119, 0)" stroke-linecap="butt" stroke-linejoin="round" stroke-opacity="1.0" stroke-width="3.0" />
            <path d=" M 152.185, 105.222 152.065, 99.124 151.330, 98.712 " fill="none" stroke="rgb(0, 119, 0)" stroke-linecap="butt" stroke-linejoin="round" stroke-opacity="1.0" stroke-width="3.0" />
            <path d=" M 150.858, 75.213 151.063, 85.211 151.085, 86.277 151.216, 92.656 151.252, 94.413 151.283, 95.915 " fill="none" stroke="rgb(0, 119, 0)" stroke-linecap="butt" stroke-linejoin="round" stroke-opacity="1.0" stroke-width="3.0" />
            <path d=" M 223.619, 83.486 226.406, 82.753 226.701, 82.676 229.068, 82.053 236.583, 80.076 246.254, 77.532 252.950, 75.770 " fill="none" stroke="rgb(0, 119, 0)" stroke-linecap="butt" stroke-linejoin="round" stroke-opacity="1.0" stroke-width="3.0" />
            <path d=" M 256.467, 36.633 255.572, 46.593 254.677, 56.552 253.782, 66.512 252.950, 75.770 258.580, 78.014 267.870, 81.715 277.160, 85.417 282.420, 87.513 " fill="none" stroke="rgb(0, 119, 0)" stroke-linecap="butt" stroke-linejoin="round" stroke-opacity="1.0" stroke-width="3.0" />
            <path d=" M 225.102, 58.201 224.907, 61.525 224.450, 69.308 224.402, 70.134 223.905, 78.601 223.742, 81.386 223.619, 83.486 228.827, 85.780 235.943, 88.913 " fill="none" stroke="rgb(0, 119, 0)" stroke-linecap="butt" stroke-linejoin="round" stroke-opacity="1.0" stroke-width="3.0" />
            <path d=" M 255.698, 95.528 265.277, 92.655 273.063, 90.320 282.420, 87.513 283.644, 77.588 283.823, 76.136 285.047, 66.212 286.271, 56.287 287.484, 46.456 278.366, 43.568 271.850, 41.504 264.640, 39.221 263.766, 38.944 256.467, 36.633 246.651, 38.538 236.834, 40.444 236.224, 40.562 227.803, 42.197 227.026, 42.348 " fill="none" stroke="rgb(0, 119, 0)" stroke-linecap="butt" stroke-linejoin="round" stroke-opacity="1.0" stroke-width="3.0" />
            <path d=" M 287.484, 46.456 277.726, 48.645 267.969, 50.835 263.394, 51.862 256.837, 53.333 " fill="none" stroke="rgb(0, 119, 0)" stroke-linecap="butt" stroke-linejoin="round" stroke-opacity="1.0" stroke-width="3.0" />
            <path d=" M 226.994, 42.884 236.432, 46.189 245.871, 49.493 255.309, 52.798 256.837, 53.333 255.923, 63.291 255.008, 73.249 254.468, 79.123 253.554, 89.081 253.067, 94.381 " fill="none" stroke="rgb(0, 119, 0)" stroke-linecap="butt" stroke-linejoin="round" stroke-opacity="1.0" stroke-width="3.0" />
            <path d=" M 174.314, 129.935 174.276, 137.346 174.240, 144.295 174.228, 146.585 174.214, 149.381 " fill="none" stroke="rgb(0, 119, 0)" stroke-linecap="butt" stroke-linejoin="round" stroke-opacity="1.0" stroke-width="3.0" />
            <path d=" M 201.608, 139.898 201.764, 135.660 202.097, 126.659 " fill="none" stroke="rgb(0, 119, 0)" stroke-linecap="butt" stroke-linejoin="round" stroke-opacity="1.0" stroke-width="3.0" />
            <path d=" M 211.565, 96.155 211.283, 96.234 " fill="none" stroke="rgb(0, 119, 0)" stroke-linecap="butt" stroke-linejoin="round" stroke-opacity="1.0" stroke-width="3.0" />
            <path d=" M 205.077, 128.326 202.097, 126.659 210.281, 124.001 " fill="none" stroke="rgb(0, 119, 0)" stroke-linecap="butt" stroke-linejoin="round" stroke-opacity="1.0" stroke-width="3.0" />
            <path d=" M 183.574, 88.061 183.647, 83.217 183.654, 82.753 " fill="none" stroke="rgb(0, 119, 0)" stroke-linecap="butt" stroke-linejoin="round" stroke-opacity="1.0" stroke-width="3.0" />
            <path d=" M 239.744, 122.773 238.950, 132.742 238.470, 138.769 237.676, 148.737 237.553, 150.279 236.966, 157.656 " fill="none" stroke="rgb(0, 119, 0)" stroke-linecap="butt" stroke-linejoin="round" stroke-opacity="1.0" stroke-width="3.0" />
            <path d=" M 277.656, 200.048 269.156, 194.781 260.656, 189.513 257.546, 187.586 253.136, 184.853 " fill="none" stroke="rgb(0, 119, 0)" stroke-linecap="butt" stroke-linejoin="round" stroke-opacity="1.0" stroke-width="3.0" />
            <path d=" M 224.660, 81.992 224.955, 81.915 229.147, 80.821 236.672, 78.857 246.348, 76.332 256.024, 73.807 261.367, 72.412 268.767, 70.481 " fill="none" stroke="rgb(0, 119, 0)" stroke-linecap="butt" stroke-linejoin="round" stroke-opacity="1.0" stroke-width="3.0" />
            <path d=" M 275.213, 9.885 274.155, 19.829 273.098, 29.773 272.040, 39.717 271.850, 41.504 270.792, 51.448 269.734, 61.392 268.767, 70.481 278.128, 73.997 283.823, 76.136 293.185, 79.653 302.546, 83.169 311.907, 86.686 316.021, 88.231 " fill="none" stroke="rgb(0, 119, 0)" stroke-linecap="butt" stroke-linejoin="round" stroke-opacity="1.0" stroke-width="3.0" />
            <path d=" M 226.058, 58.569 225.895, 61.302 225.431, 69.073 225.345, 70.521 224.878, 78.353 224.672, 81.792 224.660, 81.992 226.406, 82.753 228.951, 83.863 " fill="none" stroke="rgb(0, 119, 0)" stroke-linecap="butt" stroke-linejoin="round" stroke-opacity="1.0" stroke-width="3.0" />
            <path d=" M 157.740, 103.576 162.718, 102.246 166.799, 101.155 172.667, 99.586 182.328, 97.004 191.989, 94.422 194.902, 93.643 196.244, 93.284 " fill="none" stroke="rgb(0, 119, 0)" stroke-linecap="butt" stroke-linejoin="round" stroke-opacity="1.0" stroke-width="3.0" />
            <path d=" M 197.573, 47.616 197.282, 57.612 197.225, 59.577 196.934, 69.573 196.643, 79.569 196.585, 81.564 196.547, 82.875 196.373, 88.860 196.369, 88.995 196.347, 89.756 196.244, 93.284 200.133, 95.191 209.111, 99.595 210.172, 100.116 211.085, 100.563 211.356, 100.696 212.995, 101.500 221.973, 105.903 227.359, 108.545 " fill="none" stroke="rgb(0, 119, 0)" stroke-linecap="butt" stroke-linejoin="round" stroke-opacity="1.0" stroke-width="3.0" />
            <path d=" M 192.573, 81.022 192.427, 86.965 192.423, 87.099 " fill="none" stroke="rgb(0, 119, 0)" stroke-linecap="butt" stroke-linejoin="round" stroke-opacity="1.0" stroke-width="3.0" />
            <path d=" M 202.462, 106.961 202.128, 116.104 " fill="none" stroke="rgb(0, 119, 0)" stroke-linecap="butt" stroke-linejoin="round" stroke-opacity="1.0" stroke-width="3.0" />
            <path d=" M 195.290, 115.959 197.931, 117.395 198.054, 117.357 202.128, 116.104 199.480, 114.686 " fill="none" stroke="rgb(0, 119, 0)" stroke-linecap="butt" stroke-linejoin="round" stroke-opacity="1.0" stroke-width="3.0" />
            <path d=" M 95.456, 71.958 105.262, 69.998 115.068, 68.039 116.329, 67.787 126.141, 65.826 " fill="none" stroke="rgb(0, 119, 0)" stroke-linecap="butt" stroke-linejoin="round" stroke-opacity="1.0" stroke-width="3.0" />
            <path d=" M 169.566, 70.676 178.626, 74.908 185.434, 78.089 " fill="none" stroke="rgb(0, 119, 0)" stroke-linecap="butt" stroke-linejoin="round" stroke-opacity="1.0" stroke-width="3.0" />
            <path d=" M 157.486, 84.751 165.891, 82.748 166.933, 82.499 166.934, 82.499 174.027, 80.808 175.332, 80.497 185.059, 78.179 185.434, 78.089 185.519, 73.063 185.592, 68.738 185.603, 68.091 185.705, 62.028 185.874, 52.030 185.911, 49.871 " fill="none" stroke="rgb(0, 119, 0)" stroke-linecap="butt" stroke-linejoin="round" stroke-opacity="1.0" stroke-width="3.0" />
            <path d=" M 147.946, 0.000 148.165, 9.998 148.384, 19.995 148.603, 29.993 148.647, 32.004 148.780, 38.044 " fill="none" stroke="rgb(0, 119, 0)" stroke-linecap="butt" stroke-linejoin="round" stroke-opacity="1.0" stroke-width="3.0" />
            <path d=" M 178.731, 149.542 188.173, 146.248 192.421, 144.765 201.863, 141.471 208.599, 139.121 " fill="none" stroke="rgb(0, 119, 0)" stroke-linecap="butt" stroke-linejoin="round" stroke-opacity="1.0" stroke-width="3.0" />
            <path d=" M 210.147, 104.713 209.875, 110.774 209.731, 113.970 209.512, 118.824 209.303, 123.470 208.863, 133.251 208.665, 137.669 208.600, 139.115 208.599, 139.121 214.473, 142.523 216.836, 143.892 " fill="none" stroke="rgb(0, 119, 0)" stroke-linecap="butt" stroke-linejoin="round" stroke-opacity="1.0" stroke-width="3.0" />
            <path d=" M 217.073, 139.562 216.836, 143.892 214.355, 144.789 204.952, 148.191 197.655, 150.831 " fill="none" stroke="rgb(0, 119, 0)" stroke-linecap="butt" stroke-linejoin="round" stroke-opacity="1.0" stroke-width="3.0" />
            <path d=" M 233.769, 118.885 224.270, 122.011 214.771, 125.137 205.077, 128.326 204.823, 134.622 204.790, 135.438 204.585, 140.515 204.182, 150.507 204.009, 154.774 203.606, 164.765 203.573, 165.577 " fill="none" stroke="rgb(0, 119, 0)" stroke-linecap="butt" stroke-linejoin="round" stroke-opacity="1.0" stroke-width="3.0" />
            <path d=" M 212.485, 112.118 210.805, 112.632 210.528, 112.717 209.595, 113.002 200.033, 115.928 197.086, 116.830 " fill="none" stroke="rgb(0, 119, 0)" stroke-linecap="butt" stroke-linejoin="round" stroke-opacity="1.0" stroke-width="3.0" />
            <path d=" M 213.509, 90.784 210.555, 91.584 205.114, 93.057 204.833, 93.133 200.159, 94.399 197.757, 95.050 " fill="none" stroke="rgb(0, 119, 0)" stroke-linecap="butt" stroke-linejoin="round" stroke-opacity="1.0" stroke-width="3.0" />
            <path d=" M 166.221, 87.501 170.358, 89.622 171.545, 90.230 172.695, 90.819 " fill="none" stroke="rgb(0, 119, 0)" stroke-linecap="butt" stroke-linejoin="round" stroke-opacity="1.0" stroke-width="3.0" />
            <path d=" M 182.135, 134.774 173.668, 129.649 " fill="none" stroke="rgb(0, 119, 0)" stroke-linecap="butt" stroke-linejoin="round" stroke-opacity="1.0" stroke-width="3.0" />
            <path d=" M 166.053, 85.020 168.776, 86.400 169.405, 86.719 173.554, 88.820 174.744, 89.423 175.897, 90.007 177.624, 90.882 " fill="none" stroke="rgb(0, 119, 0)" stroke-linecap="butt" stroke-linejoin="round" stroke-opacity="1.0" stroke-width="3.0" />
            <path d=" M 200.277, 90.873 200.463, 90.824 208.835, 88.604 210.710, 88.107 " fill="none" stroke="rgb(0, 119, 0)" stroke-linecap="butt" stroke-linejoin="round" stroke-opacity="1.0" stroke-width="3.0" />
            <path d=" M 181.998, 90.821 181.962, 93.519 " fill="none" stroke="rgb(0, 119, 0)" stroke-linecap="butt" stroke-linejoin="round" stroke-opacity="1.0" stroke-width="3.0" />
            <path d=" M 168.211, 86.538 168.211, 87.012 168.217, 90.159 168.219, 91.069 168.225, 94.365 168.235, 100.098 168.244, 105.305 " fill="none" stroke="rgb(0, 119, 0)" stroke-linecap="butt" stroke-linejoin="round" stroke-opacity="1.0" stroke-width="3.0" />
            <path d=" M 177.567, 97.613 172.682, 95.059 170.321, 93.825 166.238, 91.690 166.080, 91.608 " fill="none" stroke="rgb(0, 119, 0)" stroke-linecap="butt" stroke-linejoin="round" stroke-opacity="1.0" stroke-width="3.0" />
            <path d=" M 172.653, 104.096 166.273, 100.620 " fill="none" stroke="rgb(0, 119, 0)" stroke-linecap="butt" stroke-linejoin="round" stroke-opacity="1.0" stroke-width="3.0" />
            <path d=" M 232.867, 181.295 233.634, 171.324 234.401, 161.354 234.613, 158.593 235.349, 149.028 " fill="none" stroke="rgb(0, 119, 0)" stroke-linecap="butt" stroke-linejoin="round" stroke-opacity="1.0" stroke-width="3.0" />
            <path d=" M 259.145, 198.080 257.623, 197.108 250.349, 192.462 245.552, 189.397 237.124, 184.014 232.867, 181.295 223.702, 185.296 217.911, 187.824 " fill="none" stroke="rgb(0, 119, 0)" stroke-linecap="butt" stroke-linejoin="round" stroke-opacity="1.0" stroke-width="3.0" />
            <path d=" M 244.054, 205.441 235.761, 199.853 235.295, 199.539 227.003, 193.950 218.710, 188.362 217.911, 187.824 218.502, 177.841 219.045, 168.651 " fill="none" stroke="rgb(0, 119, 0)" stroke-linecap="butt" stroke-linejoin="round" stroke-opacity="1.0" stroke-width="3.0" />
            <path d=" M 245.655, 188.285 251.425, 191.956 258.701, 196.586 259.271, 196.949 260.495, 197.728 " fill="none" stroke="rgb(0, 119, 0)" stroke-linecap="butt" stroke-linejoin="round" stroke-opacity="1.0" stroke-width="3.0" />
            <path d=" M 191.222, 190.236 197.109, 194.481 " fill="none" stroke="rgb(0, 119, 0)" stroke-linecap="butt" stroke-linejoin="round" stroke-opacity="1.0" stroke-width="3.0" />
            <path d=" M 174.200, 189.907 174.154, 198.470 174.150, 199.215 " fill="none" stroke="rgb(0, 119, 0)" stroke-linecap="butt" stroke-linejoin="round" stroke-opacity="1.0" stroke-width="3.0" />
            <path d=" M 186.018, 43.509 176.182, 45.311 169.558, 46.525 " fill="none" stroke="rgb(0, 119, 0)" stroke-linecap="butt" stroke-linejoin="round" stroke-opacity="1.0" stroke-width="3.0" />
        </g>
    </g>
    <g id="fressstylelayer_vlak" inkscape:groupmode="lineset" inkscape:label="fressstylelayer_vlak" xmlns:inkscape="http://www.inkscape.org/namespaces/inkscape">
        <g id="strokes" inkscape:groupmode="layer" inkscape:label="strokes" xmlns:inkscape="http://www.inkscape.org/namespaces/inkscape" />
    </g>
</svg>
