<?xml version='1.0' encoding='ascii'?>
<svg xmlns="http://www.w3.org/2000/svg" xmlns:inkscape="http://www.inkscape.org/namespaces/inkscape" height="297" version="1.1" width="420">
    <g id="fressstylelayer_LineSet" inkscape:groupmode="lineset" inkscape:label="fressstylelayer_LineSet">
        <g id="strokes" inkscape:groupmode="layer" inkscape:label="strokes">
            <path d=" M 323.234, 31.487 323.038, 30.358 313.038, 30.254 304.780, 30.168 294.781, 30.064 293.662, 30.052 " fill="none" stroke="rgb(157, 20, 170)" stroke-linecap="butt" stroke-linejoin="round" stroke-opacity="1.0" stroke-width="3.0" />
            <path d=" M 245.777, 72.877 242.912, 82.418 242.680, 83.193 246.892, 92.263 251.104, 101.332 255.316, 110.402 258.332, 116.895 267.971, 117.782 275.557, 118.480 285.515, 119.397 295.473, 120.313 305.431, 121.230 315.389, 122.146 318.410, 122.424 320.562, 112.658 320.928, 110.997 323.079, 101.231 324.716, 93.803 325.087, 92.118 " fill="none" stroke="rgb(157, 20, 170)" stroke-linecap="butt" stroke-linejoin="round" stroke-opacity="1.0" stroke-width="3.0" />
            <path d=" M 318.410, 122.424 315.978, 112.725 315.432, 110.548 312.999, 100.848 311.005, 92.894 310.574, 91.177 309.602, 87.301 " fill="none" stroke="rgb(157, 20, 170)" stroke-linecap="butt" stroke-linejoin="round" stroke-opacity="1.0" stroke-width="3.0" />
            <path d=" M 323.038, 30.358 322.773, 31.482 320.476, 41.215 318.180, 50.947 315.883, 60.680 313.587, 70.413 311.291, 80.146 309.602, 87.301 299.621, 86.689 289.640, 86.076 279.659, 85.463 269.677, 84.851 259.696, 84.238 250.525, 83.675 243.288, 83.231 242.680, 83.193 " fill="none" stroke="rgb(157, 20, 170)" stroke-linecap="butt" stroke-linejoin="round" stroke-opacity="1.0" stroke-width="3.0" />
            <path d=" M 317.618, 55.338 319.910, 45.605 322.202, 35.871 323.234, 31.487 " fill="none" stroke="rgb(157, 20, 170)" stroke-linecap="butt" stroke-linejoin="round" stroke-opacity="1.0" stroke-width="3.0" />
            <path d=" M 325.087, 92.118 323.097, 82.318 321.107, 72.518 319.117, 62.718 317.618, 55.338 327.613, 55.664 337.607, 55.990 347.602, 56.316 355.216, 56.564 " fill="none" stroke="rgb(157, 20, 170)" stroke-linecap="butt" stroke-linejoin="round" stroke-opacity="1.0" stroke-width="3.0" />
            <path d=" M 242.912, 82.418 238.715, 73.342 234.517, 64.266 234.356, 63.918 237.350, 54.377 240.345, 44.835 243.340, 35.294 246.334, 25.753 246.486, 25.270 256.486, 25.333 266.486, 25.397 276.485, 25.460 286.485, 25.524 291.677, 25.557 292.516, 25.562 293.662, 30.052 293.943, 31.153 294.971, 35.185 292.431, 44.857 289.890, 54.529 287.350, 64.201 284.810, 73.873 284.547, 74.871 " fill="none" stroke="rgb(157, 20, 170)" stroke-linecap="butt" stroke-linejoin="round" stroke-opacity="1.0" stroke-width="3.0" />
            <path d=" M 281.700, 65.973 284.547, 74.871 274.561, 74.357 264.574, 73.844 254.587, 73.330 245.777, 72.877 " fill="none" stroke="rgb(157, 20, 170)" stroke-linecap="butt" stroke-linejoin="round" stroke-opacity="1.0" stroke-width="3.0" />
            <path d=" M 228.578, 138.741 231.433, 129.158 234.288, 119.574 236.558, 111.957 234.053, 107.267 " fill="none" stroke="rgb(157, 20, 170)" stroke-linecap="butt" stroke-linejoin="round" stroke-opacity="1.0" stroke-width="3.0" />
            <path d=" M 179.811, 143.567 182.817, 147.185 183.040, 147.214 " fill="none" stroke="rgb(157, 20, 170)" stroke-linecap="butt" stroke-linejoin="round" stroke-opacity="1.0" stroke-width="3.0" />
            <path d=" M 166.563, 142.468 159.955, 134.962 153.346, 127.457 152.864, 126.910 148.446, 121.891 147.965, 121.345 141.357, 113.840 138.337, 110.410 128.384, 109.446 125.289, 109.146 117.917, 108.433 108.671, 107.537 98.673, 106.569 88.719, 105.605 82.389, 104.992 79.834, 110.761 77.338, 116.395 73.289, 125.538 69.239, 134.682 65.189, 143.825 61.139, 152.968 59.124, 157.518 57.271, 161.701 55.843, 164.926 64.086, 170.587 72.330, 176.248 80.573, 181.909 82.370, 183.143 90.614, 188.804 93.251, 190.616 94.778, 190.907 98.081, 191.536 101.014, 192.094 104.272, 192.715 114.096, 194.586 114.604, 194.683 124.428, 196.554 125.357, 196.731 128.892, 197.404 138.715, 199.275 144.151, 200.310 146.043, 200.671 149.368, 191.240 151.328, 185.681 152.718, 181.739 154.885, 175.593 155.440, 174.016 155.811, 172.964 158.714, 164.730 162.039, 155.299 165.364, 145.868 166.563, 142.468 " fill="none" stroke="rgb(157, 20, 170)" stroke-linecap="butt" stroke-linejoin="round" stroke-opacity="1.0" stroke-width="3.0" />
            <path d=" M 146.043, 200.671 138.219, 194.443 130.395, 188.215 128.948, 187.063 121.124, 180.835 113.347, 174.645 " fill="none" stroke="rgb(157, 20, 170)" stroke-linecap="butt" stroke-linejoin="round" stroke-opacity="1.0" stroke-width="3.0" />
            <path d=" M 138.337, 110.410 134.712, 119.730 131.086, 129.049 127.460, 138.369 123.834, 147.688 120.209, 157.008 119.785, 158.097 116.418, 166.750 113.347, 174.645 103.487, 172.978 96.979, 171.878 87.672, 170.305 77.812, 168.639 67.952, 166.972 63.805, 166.271 55.843, 164.926 " fill="none" stroke="rgb(157, 20, 170)" stroke-linecap="butt" stroke-linejoin="round" stroke-opacity="1.0" stroke-width="3.0" />
            <path d=" M 183.286, 195.326 181.386, 201.224 178.318, 210.742 175.251, 220.259 172.295, 229.433 171.444, 232.072 168.377, 241.590 165.309, 251.108 162.242, 260.626 161.757, 262.132 170.416, 267.133 179.075, 272.135 187.735, 277.136 191.237, 279.159 200.915, 281.678 210.593, 284.197 220.270, 286.715 229.948, 289.234 239.625, 291.753 249.303, 294.271 258.981, 296.790 259.788, 297.000 262.087, 287.268 264.386, 277.536 266.685, 267.803 268.983, 258.071 271.282, 248.339 273.581, 238.607 275.880, 228.875 277.068, 223.843 271.625, 215.454 267.076, 208.442 266.391, 207.387 263.074, 202.275 260.455, 198.237 259.815, 198.130 256.238, 197.529 253.274, 197.032 252.594, 196.918 250.302, 196.533 " fill="none" stroke="rgb(157, 20, 170)" stroke-linecap="butt" stroke-linejoin="round" stroke-opacity="1.0" stroke-width="3.0" />
            <path d=" M 259.788, 297.000 251.788, 291.000 243.789, 284.999 239.167, 281.533 " fill="none" stroke="rgb(157, 20, 170)" stroke-linecap="butt" stroke-linejoin="round" stroke-opacity="1.0" stroke-width="3.0" />
            <path d=" M 260.455, 198.237 259.576, 201.676 258.044, 207.670 255.568, 217.358 255.239, 218.644 252.763, 228.332 250.287, 238.021 247.811, 247.710 245.335, 257.398 242.859, 267.087 240.383, 276.775 239.167, 281.533 229.467, 279.102 219.767, 276.671 210.067, 274.240 200.367, 271.808 190.667, 269.377 180.967, 266.946 171.267, 264.515 161.757, 262.132 " fill="none" stroke="rgb(157, 20, 170)" stroke-linecap="butt" stroke-linejoin="round" stroke-opacity="1.0" stroke-width="3.0" />
            <path d=" M 250.302, 196.533 249.338, 200.175 248.777, 202.296 247.218, 208.189 " fill="none" stroke="rgb(157, 20, 170)" stroke-linecap="butt" stroke-linejoin="round" stroke-opacity="1.0" stroke-width="3.0" />
            <path d=" M 245.329, 205.692 247.218, 208.189 237.375, 206.424 227.532, 204.659 217.689, 202.893 207.846, 201.128 198.003, 199.363 188.160, 197.597 185.056, 197.041 183.286, 195.326 182.484, 194.549 182.983, 193.007 183.293, 192.048 183.986, 189.903 187.061, 180.388 190.136, 170.873 193.211, 161.357 193.826, 159.455 196.901, 149.940 197.190, 149.047 197.375, 148.474 200.078, 140.109 " fill="none" stroke="rgb(157, 20, 170)" stroke-linecap="butt" stroke-linejoin="round" stroke-opacity="1.0" stroke-width="3.0" />
            <path d=" M 183.986, 189.903 178.919, 189.030 178.220, 191.162 176.433, 196.614 173.318, 206.116 170.204, 215.619 167.089, 225.121 166.111, 228.105 171.444, 232.072 " fill="none" stroke="rgb(157, 20, 170)" stroke-linecap="butt" stroke-linejoin="round" stroke-opacity="1.0" stroke-width="3.0" />
            <path d=" M 197.375, 148.474 187.457, 147.195 183.230, 146.650 183.040, 147.214 179.852, 156.692 176.664, 166.171 173.476, 175.649 170.903, 183.299 " fill="none" stroke="rgb(157, 20, 170)" stroke-linecap="butt" stroke-linejoin="round" stroke-opacity="1.0" stroke-width="3.0" />
            <path d=" M 157.573, 176.030 164.577, 177.170 170.903, 183.299 172.048, 184.409 170.252, 189.770 " fill="none" stroke="rgb(157, 20, 170)" stroke-linecap="butt" stroke-linejoin="round" stroke-opacity="1.0" stroke-width="3.0" />
            <path d=" M 153.940, 219.437 163.730, 221.477 167.697, 222.303 170.814, 212.802 173.931, 203.300 176.197, 196.394 176.463, 195.583 170.252, 189.770 178.220, 191.162 " fill="none" stroke="rgb(157, 20, 170)" stroke-linecap="butt" stroke-linejoin="round" stroke-opacity="1.0" stroke-width="3.0" />
            <path d=" M 167.697, 222.303 159.796, 216.174 156.042, 213.261 " fill="none" stroke="rgb(157, 20, 170)" stroke-linecap="butt" stroke-linejoin="round" stroke-opacity="1.0" stroke-width="3.0" />
            <path d=" M 164.577, 177.170 163.157, 181.301 " fill="none" stroke="rgb(157, 20, 170)" stroke-linecap="butt" stroke-linejoin="round" stroke-opacity="1.0" stroke-width="3.0" />
            <path d=" M 266.391, 207.387 267.475, 203.028 269.887, 193.323 271.867, 185.357 274.279, 175.652 275.031, 172.626 275.084, 172.414 275.357, 171.317 275.710, 169.897 271.258, 160.942 269.760, 157.928 269.417, 157.239 269.380, 157.164 264.929, 148.210 262.154, 142.626 261.350, 142.533 255.109, 141.811 245.176, 140.662 235.242, 139.512 228.578, 138.741 224.697, 138.292 " fill="none" stroke="rgb(157, 20, 170)" stroke-linecap="butt" stroke-linejoin="round" stroke-opacity="1.0" stroke-width="3.0" />
            <path d=" M 262.154, 142.626 260.247, 149.772 258.377, 156.784 255.799, 166.446 253.222, 176.108 250.644, 185.770 249.750, 189.122 249.224, 191.091 246.912, 199.759 246.347, 201.875 245.329, 205.692 235.483, 203.946 225.636, 202.200 221.498, 201.467 217.530, 200.763 208.208, 199.110 198.362, 197.364 188.971, 195.699 185.673, 195.115 183.480, 194.726 182.484, 194.549 " fill="none" stroke="rgb(157, 20, 170)" stroke-linecap="butt" stroke-linejoin="round" stroke-opacity="1.0" stroke-width="3.0" />
            <path d=" M 264.547, 130.582 258.355, 129.937 255.718, 139.583 255.109, 141.811 " fill="none" stroke="rgb(157, 20, 170)" stroke-linecap="butt" stroke-linejoin="round" stroke-opacity="1.0" stroke-width="3.0" />
            <path d=" M 302.176, 190.029 292.293, 188.506 282.410, 186.982 272.761, 185.495 271.867, 185.357 " fill="none" stroke="rgb(157, 20, 170)" stroke-linecap="butt" stroke-linejoin="round" stroke-opacity="1.0" stroke-width="3.0" />
            <path d=" M 310.646, 210.418 306.810, 201.183 302.974, 191.949 302.176, 190.029 304.339, 180.266 305.086, 176.893 " fill="none" stroke="rgb(157, 20, 170)" stroke-linecap="butt" stroke-linejoin="round" stroke-opacity="1.0" stroke-width="3.0" />
            <path d=" M 267.475, 203.028 268.379, 203.183 278.235, 204.870 288.092, 206.557 297.948, 208.245 307.805, 209.932 310.646, 210.418 312.706, 200.633 314.766, 190.847 316.044, 184.776 " fill="none" stroke="rgb(157, 20, 170)" stroke-linecap="butt" stroke-linejoin="round" stroke-opacity="1.0" stroke-width="3.0" />
            <path d=" M 320.928, 110.997 325.938, 111.406 328.031, 121.185 330.124, 130.963 331.614, 137.927 329.602, 147.723 327.591, 157.518 325.579, 167.314 323.567, 177.109 321.818, 185.628 316.044, 184.776 307.583, 183.527 305.086, 176.893 295.185, 175.487 285.284, 174.082 275.918, 172.752 275.031, 172.626 " fill="none" stroke="rgb(157, 20, 170)" stroke-linecap="butt" stroke-linejoin="round" stroke-opacity="1.0" stroke-width="3.0" />
            <path d=" M 79.834, 110.761 69.864, 109.729 65.741, 118.839 61.618, 127.950 57.495, 137.060 53.372, 146.170 49.249, 155.281 48.971, 155.894 57.165, 161.627 57.271, 161.701 " fill="none" stroke="rgb(157, 20, 170)" stroke-linecap="butt" stroke-linejoin="round" stroke-opacity="1.0" stroke-width="3.0" />
            <path d=" M 85.252, 214.749 81.541, 224.035 80.964, 225.479 89.746, 230.263 98.527, 235.047 101.804, 236.832 111.529, 239.159 121.255, 241.487 130.980, 243.815 133.210, 244.349 136.517, 234.911 137.214, 232.923 " fill="none" stroke="rgb(157, 20, 170)" stroke-linecap="butt" stroke-linejoin="round" stroke-opacity="1.0" stroke-width="3.0" />
            <path d=" M 133.210, 244.349 124.569, 239.314 115.929, 234.279 113.986, 233.147 " fill="none" stroke="rgb(157, 20, 170)" stroke-linecap="butt" stroke-linejoin="round" stroke-opacity="1.0" stroke-width="3.0" />
            <path d=" M 117.741, 222.989 114.274, 232.368 113.986, 233.147 104.246, 230.885 94.505, 228.623 84.764, 226.361 80.964, 225.479 " fill="none" stroke="rgb(157, 20, 170)" stroke-linecap="butt" stroke-linejoin="round" stroke-opacity="1.0" stroke-width="3.0" />
            <path d=" M 155.440, 174.016 157.573, 176.030 163.157, 181.301 166.005, 183.990 164.642, 187.995 161.420, 197.462 158.197, 206.929 156.042, 213.261 153.940, 219.437 150.718, 228.903 148.482, 235.472 138.729, 233.265 137.214, 232.923 131.476, 231.624 123.010, 226.301 117.741, 222.989 107.976, 220.837 98.210, 218.685 88.191, 216.478 85.252, 214.749 76.632, 209.679 72.432, 207.208 76.249, 197.965 80.066, 188.722 82.370, 183.143 " fill="none" stroke="rgb(157, 20, 170)" stroke-linecap="butt" stroke-linejoin="round" stroke-opacity="1.0" stroke-width="3.0" />
            <path d=" M 121.426, 217.681 111.647, 215.591 101.868, 213.500 92.088, 211.410 90.348, 211.038 87.019, 210.326 77.240, 208.236 72.432, 207.208 " fill="none" stroke="rgb(157, 20, 170)" stroke-linecap="butt" stroke-linejoin="round" stroke-opacity="1.0" stroke-width="3.0" />
            <path d=" M 148.482, 235.472 140.127, 229.978 138.598, 228.973 133.590, 225.680 125.234, 220.185 121.426, 217.681 124.881, 208.297 125.389, 206.918 128.844, 197.534 128.892, 197.404 " fill="none" stroke="rgb(157, 20, 170)" stroke-linecap="butt" stroke-linejoin="round" stroke-opacity="1.0" stroke-width="3.0" />
            <path d=" M 240.329, 86.455 236.023, 77.429 231.717, 68.404 227.411, 59.378 223.105, 50.353 221.169, 46.296 211.173, 46.027 201.177, 45.758 191.180, 45.489 181.184, 45.221 171.187, 44.952 161.191, 44.683 159.034, 44.625 155.369, 53.929 151.705, 63.234 148.040, 72.538 144.376, 81.842 141.747, 88.516 139.226, 94.916 136.436, 102.001 136.247, 102.479 140.572, 107.487 147.107, 115.056 153.005, 121.886 153.479, 122.434 154.208, 123.278 160.744, 130.847 165.108, 135.902 174.366, 137.016 181.739, 137.903 185.777, 138.389 195.706, 139.583 200.078, 140.109 205.216, 140.727 215.144, 141.922 217.443, 142.199 223.307, 142.904 224.697, 138.292 227.584, 128.718 230.471, 119.144 232.741, 111.617 234.053, 107.267 236.940, 97.693 239.827, 88.119 240.329, 86.455 " fill="none" stroke="rgb(157, 20, 170)" stroke-linecap="butt" stroke-linejoin="round" stroke-opacity="1.0" stroke-width="3.0" />
            <path d=" M 223.307, 142.904 219.931, 137.741 214.458, 129.371 208.986, 121.001 203.514, 112.631 200.607, 108.186 " fill="none" stroke="rgb(157, 20, 170)" stroke-linecap="butt" stroke-linejoin="round" stroke-opacity="1.0" stroke-width="3.0" />
            <path d=" M 221.169, 46.296 218.016, 55.786 214.864, 65.276 211.711, 74.766 208.558, 84.256 208.088, 85.670 204.935, 95.160 201.782, 104.650 200.607, 108.186 190.646, 107.303 180.685, 106.420 171.569, 105.611 170.447, 105.512 160.486, 104.629 154.284, 104.079 144.323, 103.195 136.897, 102.537 136.247, 102.479 " fill="none" stroke="rgb(157, 20, 170)" stroke-linecap="butt" stroke-linejoin="round" stroke-opacity="1.0" stroke-width="3.0" />
            <path d=" M 314.798, 163.068 312.119, 162.724 302.201, 161.450 292.282, 160.176 282.364, 158.902 272.445, 157.628 269.921, 157.303 269.417, 157.239 " fill="none" stroke="rgb(157, 20, 170)" stroke-linecap="butt" stroke-linejoin="round" stroke-opacity="1.0" stroke-width="3.0" />
            <path d=" M 321.818, 185.628 318.847, 176.080 318.267, 174.217 315.296, 164.668 314.798, 163.068 316.906, 153.293 317.865, 148.844 319.973, 139.069 322.080, 129.294 324.188, 119.518 325.938, 111.406 " fill="none" stroke="rgb(157, 20, 170)" stroke-linecap="butt" stroke-linejoin="round" stroke-opacity="1.0" stroke-width="3.0" />
            <path d=" M 292.516, 25.562 291.321, 30.028 291.028, 31.120 289.961, 35.110 287.375, 44.770 284.789, 54.430 282.204, 64.090 281.700, 65.973 271.709, 65.540 261.719, 65.106 251.728, 64.672 241.737, 64.238 234.356, 63.918 " fill="none" stroke="rgb(157, 20, 170)" stroke-linecap="butt" stroke-linejoin="round" stroke-opacity="1.0" stroke-width="3.0" />
            <path d=" M 139.226, 94.916 138.540, 94.861 128.573, 94.060 118.605, 93.258 114.762, 92.949 114.670, 93.170 110.817, 102.398 108.671, 107.537 " fill="none" stroke="rgb(157, 20, 170)" stroke-linecap="butt" stroke-linejoin="round" stroke-opacity="1.0" stroke-width="3.0" />
            <path d=" M 169.084, 175.085 162.008, 168.019 158.714, 164.730 " fill="none" stroke="rgb(157, 20, 170)" stroke-linecap="butt" stroke-linejoin="round" stroke-opacity="1.0" stroke-width="3.0" />
            <path d=" M 155.811, 172.964 165.686, 174.542 169.084, 175.085 172.306, 165.619 175.528, 156.152 178.750, 146.685 179.811, 143.567 181.739, 137.903 " fill="none" stroke="rgb(157, 20, 170)" stroke-linecap="butt" stroke-linejoin="round" stroke-opacity="1.0" stroke-width="3.0" />
            <path d=" M 141.747, 88.516 141.275, 87.930 131.301, 87.203 121.328, 86.476 111.354, 85.749 107.681, 85.481 103.753, 94.677 99.824, 103.873 98.673, 106.569 " fill="none" stroke="rgb(157, 20, 170)" stroke-linecap="butt" stroke-linejoin="round" stroke-opacity="1.0" stroke-width="3.0" />
            <path d=" M 324.716, 93.803 334.694, 94.465 344.672, 95.126 354.650, 95.788 358.835, 96.065 360.682, 86.237 362.529, 76.409 364.376, 66.581 366.223, 56.754 368.070, 46.926 368.636, 43.917 368.139, 33.929 367.643, 23.942 367.147, 13.954 366.651, 3.966 366.454, 0.000 356.455, 0.158 346.456, 0.316 336.457, 0.473 326.459, 0.631 316.460, 0.789 306.461, 0.947 298.250, 1.076 295.657, 10.734 293.064, 20.392 291.677, 25.557 " fill="none" stroke="rgb(157, 20, 170)" stroke-linecap="butt" stroke-linejoin="round" stroke-opacity="1.0" stroke-width="3.0" />
            <path d=" M 366.454, 0.000 364.505, 9.808 362.556, 19.617 360.608, 29.425 358.659, 39.233 356.711, 49.042 355.216, 56.564 356.128, 66.523 357.041, 76.481 357.953, 86.439 358.835, 96.065 " fill="none" stroke="rgb(157, 20, 170)" stroke-linecap="butt" stroke-linejoin="round" stroke-opacity="1.0" stroke-width="3.0" />
            <path d=" M 59.124, 157.518 49.250, 155.939 48.971, 155.894 " fill="none" stroke="rgb(157, 20, 170)" stroke-linecap="butt" stroke-linejoin="round" stroke-opacity="1.0" stroke-width="3.0" />
            <path d=" M 138.540, 94.861 141.275, 87.930 " fill="none" stroke="rgb(157, 20, 170)" stroke-linecap="butt" stroke-linejoin="round" stroke-opacity="1.0" stroke-width="3.0" />
            <path d=" M 154.208, 123.278 152.864, 126.910 " fill="none" stroke="rgb(157, 20, 170)" stroke-linecap="butt" stroke-linejoin="round" stroke-opacity="1.0" stroke-width="3.0" />
            <path d=" M 176.197, 196.394 176.433, 196.614 " fill="none" stroke="rgb(157, 20, 170)" stroke-linecap="butt" stroke-linejoin="round" stroke-opacity="1.0" stroke-width="3.0" />
            <path d=" M 172.295, 229.433 166.111, 228.105 " fill="none" stroke="rgb(157, 20, 170)" stroke-linecap="butt" stroke-linejoin="round" stroke-opacity="1.0" stroke-width="3.0" />
            <path d=" M 267.971, 117.782 265.387, 127.443 264.547, 130.582 262.464, 138.367 261.350, 142.533 " fill="none" stroke="rgb(157, 20, 170)" stroke-linecap="butt" stroke-linejoin="round" stroke-opacity="1.0" stroke-width="3.0" />
            <path d=" M 267.076, 208.442 268.379, 203.183 " fill="none" stroke="rgb(157, 20, 170)" stroke-linecap="butt" stroke-linejoin="round" stroke-opacity="1.0" stroke-width="3.0" />
        </g>
    </g>
    <g id="fressstylelayer_hidden lines" inkscape:groupmode="lineset" inkscape:label="fressstylelayer_hidden lines">
        <g id="strokes" inkscape:groupmode="layer" inkscape:label="strokes">
            <path d=" M 290.186, 31.110 291.253, 35.129 293.820, 44.794 296.386, 54.459 298.952, 64.124 300.171, 68.714 " fill="none" stroke="rgb(0, 119, 0)" stroke-linecap="butt" stroke-linejoin="round" stroke-opacity="1.0" stroke-width="3.0" />
            <path d=" M 294.827, 90.157 297.246, 80.454 299.664, 70.751 300.171, 68.714 290.181, 68.263 280.192, 67.812 272.010, 67.442 " fill="none" stroke="rgb(0, 119, 0)" stroke-linecap="butt" stroke-linejoin="round" stroke-opacity="1.0" stroke-width="3.0" />
            <path d=" M 291.677, 25.557 290.479, 30.019 290.186, 31.110 291.028, 31.120 293.943, 31.153 303.942, 31.267 305.030, 31.280 315.029, 31.394 322.773, 31.482 323.234, 31.487 " fill="none" stroke="rgb(0, 119, 0)" stroke-linecap="butt" stroke-linejoin="round" stroke-opacity="1.0" stroke-width="3.0" />
            <path d=" M 258.332, 116.895 260.997, 107.257 263.663, 97.619 266.329, 87.981 268.995, 78.343 271.661, 68.704 272.010, 67.442 268.695, 58.008 265.380, 48.573 262.065, 39.139 260.493, 34.667 258.744, 29.689 " fill="none" stroke="rgb(0, 119, 0)" stroke-linecap="butt" stroke-linejoin="round" stroke-opacity="1.0" stroke-width="3.0" />
            <path d=" M 293.662, 30.052 291.321, 30.028 290.479, 30.019 280.479, 29.915 270.480, 29.811 260.481, 29.707 258.744, 29.689 257.264, 34.618 260.493, 34.667 270.492, 34.817 280.491, 34.967 289.961, 35.110 291.253, 35.129 294.971, 35.185 " fill="none" stroke="rgb(0, 119, 0)" stroke-linecap="butt" stroke-linejoin="round" stroke-opacity="1.0" stroke-width="3.0" />
            <path d=" M 242.912, 82.418 243.288, 83.231 246.743, 90.701 253.826, 91.184 250.525, 83.675 249.498, 81.340 245.777, 72.877 " fill="none" stroke="rgb(0, 119, 0)" stroke-linecap="butt" stroke-linejoin="round" stroke-opacity="1.0" stroke-width="3.0" />
            <path d=" M 264.398, 54.414 261.008, 45.006 257.618, 35.599 257.264, 34.618 " fill="none" stroke="rgb(0, 119, 0)" stroke-linecap="butt" stroke-linejoin="round" stroke-opacity="1.0" stroke-width="3.0" />
            <path d=" M 253.826, 91.184 256.590, 81.573 259.353, 71.963 262.116, 62.352 264.398, 54.414 257.490, 54.184 " fill="none" stroke="rgb(0, 119, 0)" stroke-linecap="butt" stroke-linejoin="round" stroke-opacity="1.0" stroke-width="3.0" />
            <path d=" M 325.087, 92.118 315.108, 91.471 310.574, 91.177 300.595, 90.531 295.748, 90.217 294.827, 90.157 295.341, 91.856 305.319, 92.517 311.005, 92.894 320.983, 93.556 324.716, 93.803 " fill="none" stroke="rgb(0, 119, 0)" stroke-linecap="butt" stroke-linejoin="round" stroke-opacity="1.0" stroke-width="3.0" />
            <path d=" M 236.558, 111.957 232.741, 111.617 222.781, 110.728 212.820, 109.839 202.860, 108.950 195.894, 108.329 " fill="none" stroke="rgb(0, 119, 0)" stroke-linecap="butt" stroke-linejoin="round" stroke-opacity="1.0" stroke-width="3.0" />
            <path d=" M 182.817, 147.185 185.777, 138.389 188.967, 128.911 192.157, 119.433 195.347, 109.956 195.894, 108.329 190.323, 100.024 184.753, 91.719 179.427, 83.781 " fill="none" stroke="rgb(0, 119, 0)" stroke-linecap="butt" stroke-linejoin="round" stroke-opacity="1.0" stroke-width="3.0" />
            <path d=" M 234.053, 107.267 229.342, 98.446 224.631, 89.626 223.044, 86.655 213.066, 85.998 208.088, 85.670 198.110, 85.012 188.131, 84.354 183.564, 84.053 179.427, 83.781 176.041, 93.190 172.654, 102.599 171.569, 105.611 171.231, 106.553 167.844, 115.962 165.064, 123.683 164.527, 125.175 167.607, 128.881 173.998, 136.573 174.366, 137.016 179.811, 143.567 " fill="none" stroke="rgb(0, 119, 0)" stroke-linecap="butt" stroke-linejoin="round" stroke-opacity="1.0" stroke-width="3.0" />
            <path d=" M 224.455, 152.579 224.001, 151.907 219.157, 144.735 217.443, 142.199 213.966, 137.051 209.248, 130.067 " fill="none" stroke="rgb(0, 119, 0)" stroke-linecap="butt" stroke-linejoin="round" stroke-opacity="1.0" stroke-width="3.0" />
            <path d=" M 223.044, 86.655 220.016, 96.186 216.987, 105.716 213.958, 115.246 210.929, 124.777 209.248, 130.067 199.307, 128.979 189.367, 127.892 185.297, 127.447 175.356, 126.359 165.416, 125.272 164.527, 125.175 " fill="none" stroke="rgb(0, 119, 0)" stroke-linecap="butt" stroke-linejoin="round" stroke-opacity="1.0" stroke-width="3.0" />
            <path d=" M 183.040, 147.214 183.776, 147.310 193.693, 148.594 197.190, 149.047 207.107, 150.332 212.121, 150.981 212.651, 151.050 219.669, 151.959 224.455, 152.579 224.631, 151.988 226.523, 145.638 228.578, 138.741 " fill="none" stroke="rgb(0, 119, 0)" stroke-linecap="butt" stroke-linejoin="round" stroke-opacity="1.0" stroke-width="3.0" />
            <path d=" M 166.563, 142.468 156.642, 141.209 146.722, 139.951 136.801, 138.692 126.881, 137.434 116.960, 136.175 115.172, 135.948 " fill="none" stroke="rgb(0, 119, 0)" stroke-linecap="butt" stroke-linejoin="round" stroke-opacity="1.0" stroke-width="3.0" />
            <path d=" M 93.251, 190.616 96.973, 181.334 97.424, 180.210 99.880, 174.085 103.602, 164.803 106.230, 158.249 107.057, 156.187 110.778, 146.905 114.500, 137.624 115.172, 135.948 107.901, 129.083 104.121, 125.513 102.001, 123.511 94.730, 116.645 94.579, 116.502 94.472, 116.402 89.567, 111.770 82.389, 104.992 " fill="none" stroke="rgb(0, 119, 0)" stroke-linecap="butt" stroke-linejoin="round" stroke-opacity="1.0" stroke-width="3.0" />
            <path d=" M 277.068, 223.843 267.242, 221.988 257.416, 220.133 252.245, 219.156 242.419, 217.301 232.593, 215.445 222.766, 213.590 212.873, 211.722 " fill="none" stroke="rgb(0, 119, 0)" stroke-linecap="butt" stroke-linejoin="round" stroke-opacity="1.0" stroke-width="3.0" />
            <path d=" M 211.854, 210.662 212.873, 211.722 210.063, 221.319 207.252, 230.916 206.118, 234.790 205.402, 237.235 203.686, 236.865 202.592, 235.936 203.119, 234.152 205.952, 224.562 208.786, 214.972 210.154, 210.343 211.854, 210.662 " fill="none" stroke="rgb(0, 119, 0)" stroke-linecap="butt" stroke-linejoin="round" stroke-opacity="1.0" stroke-width="3.0" />
            <path d=" M 210.154, 210.343 210.147, 210.336 203.186, 203.157 198.859, 198.695 191.898, 191.516 191.608, 191.217 190.693, 190.273 188.085, 187.584 186.356, 185.801 " fill="none" stroke="rgb(0, 119, 0)" stroke-linecap="butt" stroke-linejoin="round" stroke-opacity="1.0" stroke-width="3.0" />
            <path d=" M 185.056, 197.041 185.545, 195.515 185.673, 195.115 186.477, 192.604 187.167, 190.452 188.085, 187.584 188.539, 186.167 186.356, 185.801 184.979, 190.075 184.287, 192.222 183.782, 193.789 183.480, 194.726 183.286, 195.326 " fill="none" stroke="rgb(0, 119, 0)" stroke-linecap="butt" stroke-linejoin="round" stroke-opacity="1.0" stroke-width="3.0" />
            <path d=" M 188.539, 186.167 191.137, 188.871 193.745, 191.586 200.673, 198.797 200.931, 199.065 207.622, 206.029 " fill="none" stroke="rgb(0, 119, 0)" stroke-linecap="butt" stroke-linejoin="round" stroke-opacity="1.0" stroke-width="3.0" />
            <path d=" M 250.302, 196.533 252.039, 199.031 253.763, 201.511 255.976, 204.695 258.044, 207.670 263.752, 215.880 264.141, 216.440 266.391, 207.387 " fill="none" stroke="rgb(0, 119, 0)" stroke-linecap="butt" stroke-linejoin="round" stroke-opacity="1.0" stroke-width="3.0" />
            <path d=" M 220.704, 162.231 217.842, 171.812 215.745, 178.834 212.883, 188.416 212.402, 190.023 211.045, 194.567 209.326, 200.321 209.258, 200.552 207.622, 206.029 211.979, 206.832 221.814, 208.643 228.303, 209.838 238.138, 211.650 247.972, 213.462 253.454, 214.471 263.289, 216.283 264.141, 216.440 " fill="none" stroke="rgb(0, 119, 0)" stroke-linecap="butt" stroke-linejoin="round" stroke-opacity="1.0" stroke-width="3.0" />
            <path d=" M 203.686, 236.865 202.529, 240.798 201.522, 244.218 198.698, 253.811 195.875, 263.404 193.051, 272.997 191.237, 279.159 " fill="none" stroke="rgb(0, 119, 0)" stroke-linecap="butt" stroke-linejoin="round" stroke-opacity="1.0" stroke-width="3.0" />
            <path d=" M 171.444, 232.072 179.468, 238.041 181.884, 239.838 191.644, 242.015 201.522, 244.218 211.282, 246.395 217.819, 247.854 218.795, 244.368 220.614, 237.875 210.833, 235.794 206.118, 234.790 203.119, 234.152 200.099, 233.510 190.318, 231.428 186.890, 230.699 190.034, 233.240 197.810, 239.527 198.209, 239.850 202.529, 240.798 211.999, 242.876 218.795, 244.368 228.563, 246.512 238.330, 248.655 244.298, 249.965 246.796, 240.282 249.294, 230.599 251.792, 220.916 252.245, 219.156 252.510, 218.131 253.454, 214.471 255.192, 207.736 255.976, 204.695 256.668, 202.011 253.274, 197.032 252.761, 196.280 249.224, 191.091 243.864, 183.227 233.983, 181.683 225.190, 180.310 222.862, 179.946 218.397, 179.248 218.008, 179.188 215.745, 178.834 205.865, 177.290 195.920, 175.737 195.334, 175.645 192.310, 185.177 191.137, 188.871 190.693, 190.273 190.456, 191.019 189.770, 193.179 188.971, 195.699 188.601, 196.864 189.194, 196.969 198.859, 198.695 200.931, 199.065 209.258, 200.552 209.594, 200.612 211.942, 201.031 214.548, 201.496 217.179, 201.966 218.822, 202.259 222.797, 202.969 221.498, 201.467 219.667, 199.349 218.377, 197.857 216.318, 195.476 213.721, 195.029 211.045, 194.567 205.892, 193.679 196.037, 191.981 193.745, 191.586 191.608, 191.217 191.047, 191.120 190.456, 191.019 187.167, 190.452 184.979, 190.075 183.986, 189.903 " fill="none" stroke="rgb(0, 119, 0)" stroke-linecap="butt" stroke-linejoin="round" stroke-opacity="1.0" stroke-width="3.0" />
            <path d=" M 188.601, 196.864 195.319, 203.493 " fill="none" stroke="rgb(0, 119, 0)" stroke-linecap="butt" stroke-linejoin="round" stroke-opacity="1.0" stroke-width="3.0" />
            <path d=" M 186.890, 230.699 189.850, 221.147 192.809, 211.595 194.131, 207.326 195.319, 203.493 193.323, 203.126 " fill="none" stroke="rgb(0, 119, 0)" stroke-linecap="butt" stroke-linejoin="round" stroke-opacity="1.0" stroke-width="3.0" />
            <path d=" M 181.884, 239.838 184.859, 230.290 187.833, 220.743 190.808, 211.196 192.131, 206.950 193.323, 203.126 186.176, 196.132 185.545, 195.515 183.782, 193.789 182.983, 193.007 178.919, 189.030 " fill="none" stroke="rgb(0, 119, 0)" stroke-linecap="butt" stroke-linejoin="round" stroke-opacity="1.0" stroke-width="3.0" />
            <path d=" M 202.592, 235.936 192.814, 233.837 190.034, 233.240 180.256, 231.142 172.295, 229.433 " fill="none" stroke="rgb(0, 119, 0)" stroke-linecap="butt" stroke-linejoin="round" stroke-opacity="1.0" stroke-width="3.0" />
            <path d=" M 217.819, 247.854 211.999, 242.876 205.402, 237.235 " fill="none" stroke="rgb(0, 119, 0)" stroke-linecap="butt" stroke-linejoin="round" stroke-opacity="1.0" stroke-width="3.0" />
            <path d=" M 211.854, 210.662 211.855, 210.657 212.742, 207.641 213.256, 205.891 214.488, 201.700 214.548, 201.496 216.318, 195.476 " fill="none" stroke="rgb(0, 119, 0)" stroke-linecap="butt" stroke-linejoin="round" stroke-opacity="1.0" stroke-width="3.0" />
            <path d=" M 255.109, 141.811 253.171, 148.905 250.534, 158.551 248.471, 166.101 247.803, 168.546 245.166, 178.192 244.367, 181.117 249.750, 189.122 252.549, 193.284 255.096, 183.614 255.310, 182.804 257.857, 173.134 258.660, 170.086 259.312, 167.612 260.927, 161.480 262.286, 156.323 263.894, 150.219 260.247, 149.772 259.440, 149.673 253.171, 148.905 243.245, 147.688 233.319, 146.471 226.523, 145.638 219.157, 144.735 214.239, 144.132 212.301, 150.398 212.265, 150.514 212.121, 150.981 210.922, 154.855 215.867, 155.515 222.775, 156.437 224.681, 156.691 229.471, 157.331 226.023, 152.168 224.631, 151.988 224.001, 151.907 219.203, 151.288 212.301, 150.398 212.169, 150.381 202.251, 149.102 197.375, 148.474 " fill="none" stroke="rgb(0, 119, 0)" stroke-linecap="butt" stroke-linejoin="round" stroke-opacity="1.0" stroke-width="3.0" />
            <path d=" M 210.922, 154.855 216.866, 162.897 221.417, 169.053 " fill="none" stroke="rgb(0, 119, 0)" stroke-linecap="butt" stroke-linejoin="round" stroke-opacity="1.0" stroke-width="3.0" />
            <path d=" M 210.644, 205.413 211.882, 201.234 211.942, 201.031 213.721, 195.029 214.985, 190.763 217.826, 181.175 218.397, 179.248 221.237, 169.660 221.417, 169.053 211.522, 167.610 201.627, 166.166 199.070, 165.793 " fill="none" stroke="rgb(0, 119, 0)" stroke-linecap="butt" stroke-linejoin="round" stroke-opacity="1.0" stroke-width="3.0" />
            <path d=" M 186.375, 205.868 189.194, 196.969 191.047, 191.120 194.067, 181.587 195.920, 175.737 198.940, 166.203 199.070, 165.793 193.826, 159.455 187.451, 151.751 183.776, 147.310 183.230, 146.650 " fill="none" stroke="rgb(0, 119, 0)" stroke-linecap="butt" stroke-linejoin="round" stroke-opacity="1.0" stroke-width="3.0" />
            <path d=" M 176.463, 195.583 175.054, 195.330 176.197, 196.394 " fill="none" stroke="rgb(0, 119, 0)" stroke-linecap="butt" stroke-linejoin="round" stroke-opacity="1.0" stroke-width="3.0" />
            <path d=" M 176.775, 190.104 170.611, 184.166 " fill="none" stroke="rgb(0, 119, 0)" stroke-linecap="butt" stroke-linejoin="round" stroke-opacity="1.0" stroke-width="3.0" />
            <path d=" M 175.054, 195.330 176.775, 190.104 166.923, 188.392 164.642, 187.995 154.790, 186.283 151.328, 185.681 149.450, 185.355 " fill="none" stroke="rgb(0, 119, 0)" stroke-linecap="butt" stroke-linejoin="round" stroke-opacity="1.0" stroke-width="3.0" />
            <path d=" M 170.903, 183.299 170.611, 184.166 172.048, 184.409 " fill="none" stroke="rgb(0, 119, 0)" stroke-linecap="butt" stroke-linejoin="round" stroke-opacity="1.0" stroke-width="3.0" />
            <path d=" M 207.262, 189.161 212.402, 190.023 214.680, 190.405 214.985, 190.763 218.495, 194.888 220.844, 195.291 230.700, 196.980 239.685, 198.520 246.912, 199.759 249.338, 200.175 251.635, 200.569 252.096, 201.225 251.683, 202.801 248.777, 202.296 246.347, 201.875 239.111, 200.619 229.259, 198.910 220.248, 197.346 218.609, 197.062 218.377, 197.857 217.530, 200.763 217.179, 201.966 217.119, 202.170 214.488, 201.700 211.882, 201.234 209.831, 200.868 209.594, 200.612 209.326, 200.321 208.208, 199.110 205.224, 195.878 205.892, 193.679 207.262, 189.161 " fill="none" stroke="rgb(0, 119, 0)" stroke-linecap="butt" stroke-linejoin="round" stroke-opacity="1.0" stroke-width="3.0" />
            <path d=" M 214.680, 190.405 217.524, 180.818 218.008, 179.188 220.852, 169.600 223.696, 160.013 224.681, 156.691 226.023, 152.168 " fill="none" stroke="rgb(0, 119, 0)" stroke-linecap="butt" stroke-linejoin="round" stroke-opacity="1.0" stroke-width="3.0" />
            <path d=" M 176.433, 196.614 181.386, 201.224 186.375, 205.868 192.131, 206.950 194.131, 207.326 203.959, 209.173 207.175, 209.778 210.147, 210.336 211.855, 210.657 220.147, 212.216 227.262, 213.553 227.306, 213.397 228.303, 209.838 228.621, 208.704 221.833, 207.461 221.525, 207.405 217.541, 206.675 213.256, 205.891 210.644, 205.413 211.979, 206.832 212.742, 207.641 216.196, 211.311 220.191, 212.061 227.086, 213.356 227.306, 213.397 235.214, 214.883 245.042, 216.729 252.510, 218.131 255.239, 218.644 264.134, 220.314 266.539, 210.608 267.076, 208.442 " fill="none" stroke="rgb(0, 119, 0)" stroke-linecap="butt" stroke-linejoin="round" stroke-opacity="1.0" stroke-width="3.0" />
            <path d=" M 138.514, 216.222 141.853, 206.796 142.379, 205.312 144.151, 200.310 147.490, 190.884 149.450, 185.355 141.913, 178.781 134.444, 172.266 " fill="none" stroke="rgb(0, 119, 0)" stroke-linecap="butt" stroke-linejoin="round" stroke-opacity="1.0" stroke-width="3.0" />
            <path d=" M 157.573, 176.030 154.885, 175.593 145.014, 173.986 137.938, 172.835 134.444, 172.266 132.216, 178.264 128.948, 187.063 125.466, 196.437 125.357, 196.731 123.777, 200.985 122.858, 203.459 122.368, 204.777 125.389, 206.918 133.547, 212.701 137.267, 215.338 138.514, 216.222 142.756, 217.106 152.546, 219.146 153.940, 219.437 " fill="none" stroke="rgb(0, 119, 0)" stroke-linecap="butt" stroke-linejoin="round" stroke-opacity="1.0" stroke-width="3.0" />
            <path d=" M 152.988, 210.892 145.461, 209.389 139.786, 208.255 129.979, 206.297 122.368, 204.777 " fill="none" stroke="rgb(0, 119, 0)" stroke-linecap="butt" stroke-linejoin="round" stroke-opacity="1.0" stroke-width="3.0" />
            <path d=" M 275.710, 169.897 274.564, 169.738 267.345, 168.731 267.002, 168.684 264.663, 168.358 259.312, 167.612 249.408, 166.231 248.471, 166.101 238.567, 164.720 228.663, 163.340 220.704, 162.231 215.867, 155.515 212.651, 151.050 212.265, 150.514 212.169, 150.381 206.325, 142.267 205.216, 140.727 201.531, 135.612 " fill="none" stroke="rgb(0, 119, 0)" stroke-linecap="butt" stroke-linejoin="round" stroke-opacity="1.0" stroke-width="3.0" />
            <path d=" M 224.697, 138.292 219.931, 137.741 213.966, 137.051 204.032, 135.901 201.531, 135.612 200.078, 140.109 " fill="none" stroke="rgb(0, 119, 0)" stroke-linecap="butt" stroke-linejoin="round" stroke-opacity="1.0" stroke-width="3.0" />
            <path d=" M 258.355, 129.937 262.464, 138.367 266.846, 147.356 270.156, 154.146 " fill="none" stroke="rgb(0, 119, 0)" stroke-linecap="butt" stroke-linejoin="round" stroke-opacity="1.0" stroke-width="3.0" />
            <path d=" M 321.145, 160.545 312.822, 159.501 302.900, 158.255 292.978, 157.010 283.056, 155.765 273.133, 154.519 270.712, 154.216 270.156, 154.146 269.380, 157.164 268.714, 159.756 " fill="none" stroke="rgb(0, 119, 0)" stroke-linecap="butt" stroke-linejoin="round" stroke-opacity="1.0" stroke-width="3.0" />
            <path d=" M 269.614, 159.874 269.273, 159.829 268.714, 159.756 264.203, 150.832 263.894, 150.219 " fill="none" stroke="rgb(0, 119, 0)" stroke-linecap="butt" stroke-linejoin="round" stroke-opacity="1.0" stroke-width="3.0" />
            <path d=" M 253.507, 193.442 256.238, 197.529 258.935, 201.566 " fill="none" stroke="rgb(0, 119, 0)" stroke-linecap="butt" stroke-linejoin="round" stroke-opacity="1.0" stroke-width="3.0" />
            <path d=" M 268.379, 203.183 270.783, 193.476 272.761, 185.495 275.166, 175.788 275.918, 172.752 275.970, 172.540 275.357, 171.317 274.564, 169.738 270.079, 160.800 269.614, 159.874 267.345, 168.731 266.706, 171.226 266.652, 171.436 264.171, 181.124 263.420, 184.055 260.939, 193.742 259.815, 198.130 258.935, 201.566 259.576, 201.676 263.074, 202.275 267.475, 203.028 " fill="none" stroke="rgb(0, 119, 0)" stroke-linecap="butt" stroke-linejoin="round" stroke-opacity="1.0" stroke-width="3.0" />
            <path d=" M 252.549, 193.284 253.507, 193.442 252.761, 196.280 252.594, 196.918 252.039, 199.031 251.635, 200.569 " fill="none" stroke="rgb(0, 119, 0)" stroke-linecap="butt" stroke-linejoin="round" stroke-opacity="1.0" stroke-width="3.0" />
            <path d=" M 316.044, 184.776 318.104, 174.990 318.267, 174.217 320.327, 164.431 321.145, 160.545 318.446, 150.916 317.865, 148.844 316.335, 143.388 314.205, 153.159 312.822, 159.501 312.119, 162.724 309.989, 172.495 307.858, 182.265 307.583, 183.527 " fill="none" stroke="rgb(0, 119, 0)" stroke-linecap="butt" stroke-linejoin="round" stroke-opacity="1.0" stroke-width="3.0" />
            <path d=" M 261.350, 142.533 259.440, 149.673 257.814, 155.748 258.377, 156.784 260.927, 161.480 264.663, 168.358 266.181, 171.152 266.309, 171.388 266.363, 171.178 267.002, 168.684 269.273, 159.829 269.760, 157.928 269.921, 157.303 270.712, 154.216 273.196, 144.529 275.681, 134.842 276.455, 131.824 266.509, 130.787 264.547, 130.582 " fill="none" stroke="rgb(0, 119, 0)" stroke-linecap="butt" stroke-linejoin="round" stroke-opacity="1.0" stroke-width="3.0" />
            <path d=" M 69.864, 109.729 77.338, 116.395 84.801, 123.051 92.265, 129.707 97.024, 133.952 " fill="none" stroke="rgb(0, 119, 0)" stroke-linecap="butt" stroke-linejoin="round" stroke-opacity="1.0" stroke-width="3.0" />
            <path d=" M 136.662, 138.994 136.406, 138.962 126.486, 137.700 116.566, 136.438 106.645, 135.176 100.439, 134.387 97.610, 134.027 97.024, 133.952 93.167, 143.178 89.309, 152.404 85.452, 161.630 81.594, 170.856 79.052, 176.937 " fill="none" stroke="rgb(0, 119, 0)" stroke-linecap="butt" stroke-linejoin="round" stroke-opacity="1.0" stroke-width="3.0" />
            <path d=" M 92.055, 162.782 82.180, 161.203 72.305, 159.625 62.431, 158.046 59.124, 157.518 " fill="none" stroke="rgb(0, 119, 0)" stroke-linecap="butt" stroke-linejoin="round" stroke-opacity="1.0" stroke-width="3.0" />
            <path d=" M 57.271, 161.701 63.805, 166.271 71.999, 172.003 79.052, 176.937 84.530, 177.913 94.375, 179.667 97.424, 180.210 107.269, 181.964 111.149, 182.655 103.189, 176.602 99.880, 174.085 96.979, 171.878 89.402, 166.117 87.672, 170.305 84.530, 177.913 82.370, 183.143 " fill="none" stroke="rgb(0, 119, 0)" stroke-linecap="butt" stroke-linejoin="round" stroke-opacity="1.0" stroke-width="3.0" />
            <path d=" M 89.402, 166.117 98.188, 167.558 " fill="none" stroke="rgb(0, 119, 0)" stroke-linecap="butt" stroke-linejoin="round" stroke-opacity="1.0" stroke-width="3.0" />
            <path d=" M 103.035, 155.584 99.283, 164.853 98.188, 167.558 92.055, 162.782 95.863, 153.535 99.122, 145.623 " fill="none" stroke="rgb(0, 119, 0)" stroke-linecap="butt" stroke-linejoin="round" stroke-opacity="1.0" stroke-width="3.0" />
            <path d=" M 155.440, 174.016 154.022, 172.678 146.751, 165.813 142.130, 161.450 132.240, 159.966 128.873, 159.461 128.615, 159.422 119.785, 158.097 112.367, 156.984 107.057, 156.187 103.035, 155.584 106.230, 158.249 113.908, 164.655 116.418, 166.750 123.766, 172.881 125.574, 168.130 128.873, 159.461 132.430, 150.115 132.965, 148.708 136.522, 139.362 136.662, 138.994 136.468, 138.798 136.406, 138.962 132.847, 148.307 132.708, 148.672 129.149, 158.018 128.615, 159.422 125.314, 168.089 125.574, 168.130 135.449, 169.709 138.887, 170.258 148.761, 171.837 154.022, 172.678 155.811, 172.964 " fill="none" stroke="rgb(0, 119, 0)" stroke-linecap="butt" stroke-linejoin="round" stroke-opacity="1.0" stroke-width="3.0" />
            <path d=" M 125.314, 168.089 117.724, 161.578 112.367, 156.984 104.776, 150.474 99.122, 145.623 95.961, 145.182 " fill="none" stroke="rgb(0, 119, 0)" stroke-linecap="butt" stroke-linejoin="round" stroke-opacity="1.0" stroke-width="3.0" />
            <path d=" M 108.671, 107.537 106.184, 113.491 104.480, 117.574 102.001, 123.511 101.966, 123.595 98.113, 132.822 97.610, 134.027 93.740, 143.294 95.961, 145.182 96.581, 143.687 100.439, 134.387 104.086, 125.596 104.121, 125.513 107.288, 117.878 108.987, 113.782 106.184, 113.491 96.159, 112.453 89.567, 111.770 79.834, 110.761 " fill="none" stroke="rgb(0, 119, 0)" stroke-linecap="butt" stroke-linejoin="round" stroke-opacity="1.0" stroke-width="3.0" />
            <path d=" M 115.476, 171.511 111.857, 180.833 111.149, 182.655 " fill="none" stroke="rgb(0, 119, 0)" stroke-linecap="butt" stroke-linejoin="round" stroke-opacity="1.0" stroke-width="3.0" />
            <path d=" M 123.766, 172.881 115.476, 171.511 121.554, 176.457 " fill="none" stroke="rgb(0, 119, 0)" stroke-linecap="butt" stroke-linejoin="round" stroke-opacity="1.0" stroke-width="3.0" />
            <path d=" M 95.771, 188.423 98.545, 190.365 101.014, 192.094 109.205, 197.830 115.026, 201.907 " fill="none" stroke="rgb(0, 119, 0)" stroke-linecap="butt" stroke-linejoin="round" stroke-opacity="1.0" stroke-width="3.0" />
            <path d=" M 145.936, 208.033 140.265, 206.908 130.455, 204.964 122.858, 203.459 115.026, 201.907 111.486, 211.259 107.945, 220.611 104.404, 229.963 101.804, 236.832 " fill="none" stroke="rgb(0, 119, 0)" stroke-linecap="butt" stroke-linejoin="round" stroke-opacity="1.0" stroke-width="3.0" />
            <path d=" M 88.191, 216.478 90.348, 211.038 94.034, 201.742 97.720, 192.446 98.081, 191.536 98.545, 190.365 99.070, 189.041 95.771, 188.423 94.778, 190.907 91.068, 200.193 87.358, 209.479 87.019, 210.326 85.252, 214.749 " fill="none" stroke="rgb(0, 119, 0)" stroke-linecap="butt" stroke-linejoin="round" stroke-opacity="1.0" stroke-width="3.0" />
            <path d=" M 137.214, 232.923 138.598, 228.973 141.905, 219.536 142.756, 217.106 145.461, 209.389 145.936, 208.033 142.379, 205.312 141.163, 204.381 140.265, 206.908 139.786, 208.255 137.267, 215.338 133.917, 224.761 133.590, 225.680 131.476, 231.624 " fill="none" stroke="rgb(0, 119, 0)" stroke-linecap="butt" stroke-linejoin="round" stroke-opacity="1.0" stroke-width="3.0" />
            <path d=" M 214.239, 144.132 219.203, 151.288 219.669, 151.959 222.775, 156.437 228.475, 164.654 229.362, 165.932 " fill="none" stroke="rgb(0, 119, 0)" stroke-linecap="butt" stroke-linejoin="round" stroke-opacity="1.0" stroke-width="3.0" />
            <path d=" M 275.970, 172.540 275.084, 172.414 266.706, 171.226 266.363, 171.178 266.181, 171.152 258.660, 170.086 248.759, 168.682 247.803, 168.546 237.902, 167.143 229.362, 165.932 226.575, 175.536 225.190, 180.310 222.404, 189.914 220.844, 195.291 220.248, 197.346 219.667, 199.349 218.822, 202.259 217.541, 206.675 216.196, 211.311 " fill="none" stroke="rgb(0, 119, 0)" stroke-linecap="butt" stroke-linejoin="round" stroke-opacity="1.0" stroke-width="3.0" />
            <path d=" M 229.471, 157.331 226.666, 166.929 223.861, 176.528 222.862, 179.946 220.057, 189.544 218.495, 194.888 " fill="none" stroke="rgb(0, 119, 0)" stroke-linecap="butt" stroke-linejoin="round" stroke-opacity="1.0" stroke-width="3.0" />
            <path d=" M 256.668, 202.011 253.763, 201.511 252.096, 201.225 " fill="none" stroke="rgb(0, 119, 0)" stroke-linecap="butt" stroke-linejoin="round" stroke-opacity="1.0" stroke-width="3.0" />
            <path d=" M 207.262, 189.161 200.645, 181.663 195.334, 175.645 " fill="none" stroke="rgb(0, 119, 0)" stroke-linecap="butt" stroke-linejoin="round" stroke-opacity="1.0" stroke-width="3.0" />
            <path d=" M 209.831, 200.868 207.175, 209.778 204.317, 219.361 201.460, 228.944 200.099, 233.510 198.209, 239.850 " fill="none" stroke="rgb(0, 119, 0)" stroke-linecap="butt" stroke-linejoin="round" stroke-opacity="1.0" stroke-width="3.0" />
            <path d=" M 229.635, 235.300 236.706, 242.372 243.776, 249.443 244.298, 249.965 " fill="none" stroke="rgb(0, 119, 0)" stroke-linecap="butt" stroke-linejoin="round" stroke-opacity="1.0" stroke-width="3.0" />
            <path d=" M 243.864, 183.227 241.228, 192.873 239.685, 198.520 239.111, 200.619 236.476, 210.266 235.214, 214.883 232.578, 224.529 229.942, 234.175 229.635, 235.300 219.846, 233.259 214.439, 232.132 " fill="none" stroke="rgb(0, 119, 0)" stroke-linecap="butt" stroke-linejoin="round" stroke-opacity="1.0" stroke-width="3.0" />
            <path d=" M 222.797, 202.969 221.525, 207.405 220.191, 212.061 220.147, 212.216 217.392, 221.829 214.637, 231.442 214.439, 232.132 220.614, 237.875 " fill="none" stroke="rgb(0, 119, 0)" stroke-linecap="butt" stroke-linejoin="round" stroke-opacity="1.0" stroke-width="3.0" />
            <path d=" M 166.005, 183.990 156.146, 182.319 152.718, 181.739 142.858, 180.068 132.999, 178.397 132.216, 178.264 122.357, 176.593 121.554, 176.457 117.991, 185.801 114.604, 194.683 113.004, 198.881 " fill="none" stroke="rgb(0, 119, 0)" stroke-linecap="butt" stroke-linejoin="round" stroke-opacity="1.0" stroke-width="3.0" />
            <path d=" M 142.130, 161.450 138.887, 170.258 137.938, 172.835 134.483, 182.219 131.027, 191.603 128.892, 197.404 " fill="none" stroke="rgb(0, 119, 0)" stroke-linecap="butt" stroke-linejoin="round" stroke-opacity="1.0" stroke-width="3.0" />
            <path d=" M 240.329, 86.455 230.350, 85.810 220.370, 85.165 210.391, 84.520 200.412, 83.875 190.433, 83.230 184.005, 82.814 " fill="none" stroke="rgb(0, 119, 0)" stroke-linecap="butt" stroke-linejoin="round" stroke-opacity="1.0" stroke-width="3.0" />
            <path d=" M 165.108, 135.902 167.607, 128.881 170.961, 119.460 174.167, 110.452 177.521, 101.031 180.874, 91.610 183.564, 84.053 184.005, 82.814 178.532, 74.445 173.060, 66.075 167.587, 57.706 162.114, 49.336 159.034, 44.625 " fill="none" stroke="rgb(0, 119, 0)" stroke-linecap="butt" stroke-linejoin="round" stroke-opacity="1.0" stroke-width="3.0" />
            <path d=" M 331.614, 137.927 321.668, 136.887 311.722, 135.847 301.777, 134.808 291.831, 133.768 281.885, 132.728 281.289, 132.666 " fill="none" stroke="rgb(0, 119, 0)" stroke-linecap="butt" stroke-linejoin="round" stroke-opacity="1.0" stroke-width="3.0" />
            <path d=" M 279.613, 139.319 281.289, 132.666 277.542, 123.394 275.557, 118.480 271.811, 109.209 270.881, 106.907 " fill="none" stroke="rgb(0, 119, 0)" stroke-linecap="butt" stroke-linejoin="round" stroke-opacity="1.0" stroke-width="3.0" />
            <path d=" M 316.335, 143.388 306.396, 142.287 296.457, 141.185 286.518, 140.084 279.613, 139.319 276.455, 131.824 " fill="none" stroke="rgb(0, 119, 0)" stroke-linecap="butt" stroke-linejoin="round" stroke-opacity="1.0" stroke-width="3.0" />
            <path d=" M 320.928, 110.997 315.432, 110.548 305.465, 109.733 295.498, 108.919 285.531, 108.104 275.565, 107.290 270.881, 106.907 268.297, 116.567 267.971, 117.782 " fill="none" stroke="rgb(0, 119, 0)" stroke-linecap="butt" stroke-linejoin="round" stroke-opacity="1.0" stroke-width="3.0" />
            <path d=" M 246.743, 90.701 249.498, 81.340 252.321, 71.747 255.145, 62.153 257.490, 54.184 253.933, 44.838 250.376, 35.492 246.819, 26.146 246.486, 25.270 " fill="none" stroke="rgb(0, 119, 0)" stroke-linecap="butt" stroke-linejoin="round" stroke-opacity="1.0" stroke-width="3.0" />
            <path d=" M 185.817, 125.920 175.874, 124.848 165.932, 123.776 165.064, 123.683 155.122, 122.611 153.479, 122.434 148.446, 121.891 140.236, 121.006 " fill="none" stroke="rgb(0, 119, 0)" stroke-linecap="butt" stroke-linejoin="round" stroke-opacity="1.0" stroke-width="3.0" />
            <path d=" M 133.554, 138.428 137.135, 129.091 140.236, 121.006 139.742, 120.463 " fill="none" stroke="rgb(0, 119, 0)" stroke-linecap="butt" stroke-linejoin="round" stroke-opacity="1.0" stroke-width="3.0" />
            <path d=" M 133.039, 137.911 136.625, 128.576 139.742, 120.463 147.965, 121.345 153.005, 121.886 153.622, 121.952 " fill="none" stroke="rgb(0, 119, 0)" stroke-linecap="butt" stroke-linejoin="round" stroke-opacity="1.0" stroke-width="3.0" />
            <path d=" M 121.301, 100.151 114.762, 92.949 " fill="none" stroke="rgb(0, 119, 0)" stroke-linecap="butt" stroke-linejoin="round" stroke-opacity="1.0" stroke-width="3.0" />
            <path d=" M 181.739, 137.903 184.960, 128.436 185.297, 127.447 185.817, 125.920 179.801, 117.932 174.167, 110.452 171.231, 106.553 170.447, 105.512 164.431, 97.524 163.966, 96.906 153.998, 96.105 147.435, 95.577 139.226, 94.916 " fill="none" stroke="rgb(0, 119, 0)" stroke-linecap="butt" stroke-linejoin="round" stroke-opacity="1.0" stroke-width="3.0" />
            <path d=" M 98.673, 106.569 96.159, 112.453 94.472, 116.402 94.436, 116.487 94.579, 116.502 104.480, 117.574 107.288, 117.878 113.770, 118.580 117.553, 109.323 117.917, 108.433 121.212, 100.368 121.301, 100.151 131.263, 101.024 135.947, 101.434 136.436, 102.001 136.897, 102.537 141.213, 107.547 147.740, 115.123 153.622, 121.952 157.101, 112.576 158.371, 109.152 154.284, 104.079 148.010, 96.291 147.435, 95.577 141.747, 88.516 " fill="none" stroke="rgb(0, 119, 0)" stroke-linecap="butt" stroke-linejoin="round" stroke-opacity="1.0" stroke-width="3.0" />
            <path d=" M 113.770, 118.580 108.987, 113.782 " fill="none" stroke="rgb(0, 119, 0)" stroke-linecap="butt" stroke-linejoin="round" stroke-opacity="1.0" stroke-width="3.0" />
            <path d=" M 144.224, 150.261 134.318, 148.894 132.965, 148.708 132.708, 148.672 122.802, 147.305 112.896, 145.938 102.990, 144.571 96.581, 143.687 93.740, 143.294 " fill="none" stroke="rgb(0, 119, 0)" stroke-linecap="butt" stroke-linejoin="round" stroke-opacity="1.0" stroke-width="3.0" />
            <path d=" M 163.966, 96.906 160.496, 106.285 157.025, 115.663 154.208, 123.278 " fill="none" stroke="rgb(0, 119, 0)" stroke-linecap="butt" stroke-linejoin="round" stroke-opacity="1.0" stroke-width="3.0" />
            <path d=" M 158.371, 109.152 148.414, 108.221 141.213, 107.547 140.572, 107.487 130.615, 106.556 126.485, 106.169 " fill="none" stroke="rgb(0, 119, 0)" stroke-linecap="butt" stroke-linejoin="round" stroke-opacity="1.0" stroke-width="3.0" />
            <path d=" M 114.672, 135.587 118.398, 126.307 122.124, 117.027 125.289, 109.146 126.485, 106.169 121.212, 100.368 114.670, 93.170 107.944, 85.770 107.681, 85.481 " fill="none" stroke="rgb(0, 119, 0)" stroke-linecap="butt" stroke-linejoin="round" stroke-opacity="1.0" stroke-width="3.0" />
            <path d=" M 136.468, 138.798 133.554, 138.428 133.039, 137.911 123.118, 136.656 114.672, 135.587 107.399, 128.723 104.086, 125.596 101.966, 123.595 94.694, 116.731 94.436, 116.487 " fill="none" stroke="rgb(0, 119, 0)" stroke-linecap="butt" stroke-linejoin="round" stroke-opacity="1.0" stroke-width="3.0" />
            <path d=" M 135.947, 101.434 138.540, 94.861 " fill="none" stroke="rgb(0, 119, 0)" stroke-linecap="butt" stroke-linejoin="round" stroke-opacity="1.0" stroke-width="3.0" />
            <path d=" M 368.636, 43.917 358.638, 43.702 348.640, 43.487 338.643, 43.272 328.645, 43.057 318.647, 42.842 308.650, 42.627 307.572, 42.604 " fill="none" stroke="rgb(0, 119, 0)" stroke-linecap="butt" stroke-linejoin="round" stroke-opacity="1.0" stroke-width="3.0" />
            <path d=" M 295.341, 91.856 295.748, 90.217 298.158, 80.511 300.568, 70.806 302.978, 61.101 305.388, 51.396 307.572, 42.604 305.381, 32.846 305.030, 31.280 304.780, 30.168 302.590, 20.411 300.400, 10.653 298.250, 1.076 " fill="none" stroke="rgb(0, 119, 0)" stroke-linecap="butt" stroke-linejoin="round" stroke-opacity="1.0" stroke-width="3.0" />
            <path d=" M 251.683, 202.801 255.192, 207.736 260.986, 215.886 264.134, 220.314 " fill="none" stroke="rgb(0, 119, 0)" stroke-linecap="butt" stroke-linejoin="round" stroke-opacity="1.0" stroke-width="3.0" />
            <path d=" M 141.163, 204.381 131.349, 202.464 123.777, 200.985 113.962, 199.068 113.004, 198.881 104.835, 193.112 104.272, 192.715 99.070, 189.041 " fill="none" stroke="rgb(0, 119, 0)" stroke-linecap="butt" stroke-linejoin="round" stroke-opacity="1.0" stroke-width="3.0" />
            <path d=" M 227.262, 213.553 227.086, 213.356 221.833, 207.461 217.119, 202.170 " fill="none" stroke="rgb(0, 119, 0)" stroke-linecap="butt" stroke-linejoin="round" stroke-opacity="1.0" stroke-width="3.0" />
            <path d=" M 228.621, 208.704 222.101, 201.122 218.609, 197.062 " fill="none" stroke="rgb(0, 119, 0)" stroke-linecap="butt" stroke-linejoin="round" stroke-opacity="1.0" stroke-width="3.0" />
            <path d=" M 152.864, 126.910 149.394, 136.288 145.924, 145.667 144.224, 150.261 151.300, 157.327 158.377, 164.393 158.714, 164.730 " fill="none" stroke="rgb(0, 119, 0)" stroke-linecap="butt" stroke-linejoin="round" stroke-opacity="1.0" stroke-width="3.0" />
            <path d=" M 163.157, 181.301 159.907, 190.759 156.657, 200.216 153.407, 209.673 152.988, 210.892 156.042, 213.261 " fill="none" stroke="rgb(0, 119, 0)" stroke-linecap="butt" stroke-linejoin="round" stroke-opacity="1.0" stroke-width="3.0" />
            <path d=" M 178.220, 191.162 183.293, 192.048 184.287, 192.222 186.477, 192.604 189.770, 193.179 199.621, 194.900 205.224, 195.878 " fill="none" stroke="rgb(0, 119, 0)" stroke-linecap="butt" stroke-linejoin="round" stroke-opacity="1.0" stroke-width="3.0" />
            <path d=" M 271.867, 185.357 263.420, 184.055 255.310, 182.804 245.426, 181.281 244.367, 181.117 " fill="none" stroke="rgb(0, 119, 0)" stroke-linecap="butt" stroke-linejoin="round" stroke-opacity="1.0" stroke-width="3.0" />
            <path d=" M 275.031, 172.626 266.652, 171.436 266.309, 171.388 " fill="none" stroke="rgb(0, 119, 0)" stroke-linecap="butt" stroke-linejoin="round" stroke-opacity="1.0" stroke-width="3.0" />
            <path d=" M 269.417, 157.239 262.286, 156.323 257.814, 155.748 " fill="none" stroke="rgb(0, 119, 0)" stroke-linecap="butt" stroke-linejoin="round" stroke-opacity="1.0" stroke-width="3.0" />
        </g>
    </g>
    <g id="fressstylelayer_vlak" inkscape:groupmode="lineset" inkscape:label="fressstylelayer_vlak" xmlns:inkscape="http://www.inkscape.org/namespaces/inkscape">
        <g id="strokes" inkscape:groupmode="layer" inkscape:label="strokes" xmlns:inkscape="http://www.inkscape.org/namespaces/inkscape" />
    </g>
</svg>
