<?xml version='1.0' encoding='ascii'?>
<svg xmlns="http://www.w3.org/2000/svg" xmlns:inkscape="http://www.inkscape.org/namespaces/inkscape" height="297" version="1.1" width="420">
    <g id="fressstylelayer_LineSet" inkscape:groupmode="lineset" inkscape:label="fressstylelayer_LineSet">
        <g id="strokes" inkscape:groupmode="layer" inkscape:label="strokes">
            <path d=" M 162.547, 168.139 163.634, 178.080 164.194, 183.200 174.148, 182.242 184.102, 181.284 193.436, 180.385 197.110, 180.032 204.717, 179.299 206.523, 174.123 205.498, 164.176 205.474, 163.944 " fill="none" stroke="rgb(157, 20, 170)" stroke-linecap="butt" stroke-linejoin="round" stroke-opacity="1.0" stroke-width="3.0" />
            <path d=" M 204.717, 179.299 203.690, 169.352 203.154, 164.171 " fill="none" stroke="rgb(157, 20, 170)" stroke-linecap="butt" stroke-linejoin="round" stroke-opacity="1.0" stroke-width="3.0" />
            <path d=" M 225.825, 146.216 224.833, 136.265 223.840, 126.315 222.848, 116.364 221.855, 106.413 220.863, 96.463 219.905, 86.859 218.803, 82.253 212.177, 82.952 211.587, 83.014 " fill="none" stroke="rgb(157, 20, 170)" stroke-linecap="butt" stroke-linejoin="round" stroke-opacity="1.0" stroke-width="3.0" />
            <path d=" M 225.470, 149.037 224.477, 139.087 223.484, 129.136 222.490, 119.186 221.497, 109.235 220.503, 99.285 219.510, 89.334 218.803, 82.253 " fill="none" stroke="rgb(157, 20, 170)" stroke-linecap="butt" stroke-linejoin="round" stroke-opacity="1.0" stroke-width="3.0" />
            <path d=" M 211.587, 83.014 212.590, 92.963 213.594, 102.913 214.598, 112.862 215.602, 122.812 216.606, 132.761 217.610, 142.711 218.488, 151.413 " fill="none" stroke="rgb(157, 20, 170)" stroke-linecap="butt" stroke-linejoin="round" stroke-opacity="1.0" stroke-width="3.0" />
            <path d=" M 218.893, 149.688 225.470, 149.037 225.586, 146.240 225.825, 146.216 235.777, 145.229 245.728, 144.241 255.679, 143.254 265.630, 142.267 275.581, 141.279 281.129, 140.729 284.873, 142.445 289.547, 144.587 289.590, 145.065 290.490, 155.024 291.391, 164.984 292.291, 174.943 292.901, 181.697 293.514, 188.482 294.415, 198.441 294.555, 199.992 294.923, 204.067 295.823, 214.026 295.896, 214.833 291.046, 215.280 281.088, 216.197 271.308, 217.097 270.040, 217.214 260.082, 218.131 250.124, 219.048 240.166, 219.965 235.407, 220.403 235.336, 220.410 225.475, 221.318 224.471, 211.368 224.058, 207.277 223.609, 202.830 222.969, 196.487 222.810, 194.902 221.806, 184.953 220.802, 175.003 219.798, 165.054 219.406, 161.175 218.919, 156.348 218.849, 155.655 218.551, 152.694 218.441, 151.610 218.488, 151.413 218.606, 150.907 218.751, 150.290 218.893, 149.688 " fill="none" stroke="rgb(157, 20, 170)" stroke-linecap="butt" stroke-linejoin="round" stroke-opacity="1.0" stroke-width="3.0" />
            <path d=" M 215.517, 233.734 215.351, 232.121 214.590, 224.699 212.641, 224.878 211.558, 224.978 211.099, 225.020 210.514, 225.074 210.036, 225.117 209.238, 225.191 199.280, 226.106 189.321, 227.020 179.363, 227.935 169.698, 228.823 165.184, 237.746 163.494, 241.089 164.591, 251.028 165.689, 260.968 166.786, 270.907 167.883, 280.847 168.864, 289.726 178.827, 288.869 188.790, 288.011 198.753, 287.154 208.716, 286.297 213.149, 285.915 215.078, 285.749 218.287, 285.473 218.783, 275.648 218.919, 272.953 " fill="none" stroke="rgb(157, 20, 170)" stroke-linecap="butt" stroke-linejoin="round" stroke-opacity="1.0" stroke-width="3.0" />
            <path d=" M 163.494, 241.089 173.453, 240.185 183.412, 239.281 193.371, 238.377 203.330, 237.474 213.253, 236.573 " fill="none" stroke="rgb(157, 20, 170)" stroke-linecap="butt" stroke-linejoin="round" stroke-opacity="1.0" stroke-width="3.0" />
            <path d=" M 218.287, 285.473 217.263, 275.526 217.016, 273.119 215.992, 263.171 214.968, 253.224 213.944, 243.277 213.253, 236.573 213.553, 233.913 214.590, 224.699 " fill="none" stroke="rgb(157, 20, 170)" stroke-linecap="butt" stroke-linejoin="round" stroke-opacity="1.0" stroke-width="3.0" />
            <path d=" M 218.441, 151.610 219.080, 151.547 219.720, 151.484 219.929, 151.463 226.047, 150.859 226.132, 150.850 228.157, 150.650 238.108, 149.667 248.060, 148.684 258.011, 147.702 267.963, 146.719 277.915, 145.736 287.866, 144.753 289.547, 144.587 " fill="none" stroke="rgb(157, 20, 170)" stroke-linecap="butt" stroke-linejoin="round" stroke-opacity="1.0" stroke-width="3.0" />
            <path d=" M 201.075, 31.725 200.445, 29.667 199.506, 26.603 193.517, 27.267 190.037, 27.653 180.098, 28.754 170.159, 29.856 160.220, 30.958 150.281, 32.060 145.543, 32.585 146.633, 42.526 147.613, 51.466 148.278, 57.526 149.368, 67.466 150.458, 77.406 151.422, 86.191 " fill="none" stroke="rgb(157, 20, 170)" stroke-linecap="butt" stroke-linejoin="round" stroke-opacity="1.0" stroke-width="3.0" />
            <path d=" M 205.353, 73.807 205.112, 71.433 204.100, 61.485 203.089, 51.536 202.078, 41.587 201.075, 31.725 " fill="none" stroke="rgb(157, 20, 170)" stroke-linecap="butt" stroke-linejoin="round" stroke-opacity="1.0" stroke-width="3.0" />
            <path d=" M 206.897, 80.329 206.788, 79.248 206.454, 75.961 205.353, 73.807 215.297, 72.750 223.786, 71.848 " fill="none" stroke="rgb(157, 20, 170)" stroke-linecap="butt" stroke-linejoin="round" stroke-opacity="1.0" stroke-width="3.0" />
            <path d=" M 222.969, 196.487 213.014, 197.427 209.848, 197.726 208.494, 204.249 207.545, 208.820 208.574, 218.767 209.238, 225.191 " fill="none" stroke="rgb(157, 20, 170)" stroke-linecap="butt" stroke-linejoin="round" stroke-opacity="1.0" stroke-width="3.0" />
            <path d=" M 207.545, 208.820 217.502, 207.890 224.058, 207.277 " fill="none" stroke="rgb(157, 20, 170)" stroke-linecap="butt" stroke-linejoin="round" stroke-opacity="1.0" stroke-width="3.0" />
            <path d=" M 272.459, 264.567 275.745, 264.280 274.809, 254.323 274.370, 249.660 273.434, 239.704 272.498, 229.748 271.561, 219.792 271.308, 217.097 " fill="none" stroke="rgb(157, 20, 170)" stroke-linecap="butt" stroke-linejoin="round" stroke-opacity="1.0" stroke-width="3.0" />
            <path d=" M 291.594, 78.731 281.649, 79.775 271.703, 80.819 268.676, 81.136 " fill="none" stroke="rgb(157, 20, 170)" stroke-linecap="butt" stroke-linejoin="round" stroke-opacity="1.0" stroke-width="3.0" />
            <path d=" M 268.894, 83.491 278.839, 82.450 286.508, 81.646 291.594, 78.731 290.705, 68.770 289.817, 58.810 288.928, 48.849 288.059, 39.112 278.118, 40.193 268.176, 41.275 258.944, 42.279 " fill="none" stroke="rgb(157, 20, 170)" stroke-linecap="butt" stroke-linejoin="round" stroke-opacity="1.0" stroke-width="3.0" />
            <path d=" M 213.149, 285.915 214.180, 295.862 214.298, 297.000 224.263, 296.153 234.227, 295.306 244.191, 294.460 254.155, 293.613 264.119, 292.766 274.083, 291.919 275.037, 291.838 274.096, 281.882 273.155, 271.927 272.846, 268.665 272.459, 264.567 271.938, 259.061 271.077, 249.953 270.136, 239.997 269.376, 231.962 267.687, 227.350 " fill="none" stroke="rgb(157, 20, 170)" stroke-linecap="butt" stroke-linejoin="round" stroke-opacity="1.0" stroke-width="3.0" />
            <path d=" M 269.376, 231.962 268.134, 232.075 258.175, 232.978 248.216, 233.881 238.257, 234.784 228.298, 235.688 218.339, 236.591 215.215, 236.874 " fill="none" stroke="rgb(157, 20, 170)" stroke-linecap="butt" stroke-linejoin="round" stroke-opacity="1.0" stroke-width="3.0" />
            <path d=" M 215.517, 233.734 215.215, 236.874 216.236, 246.822 217.258, 256.770 218.279, 266.717 218.919, 272.953 " fill="none" stroke="rgb(157, 20, 170)" stroke-linecap="butt" stroke-linejoin="round" stroke-opacity="1.0" stroke-width="3.0" />
            <path d=" M 147.613, 51.466 137.672, 52.550 127.731, 53.634 117.790, 54.718 107.849, 55.801 107.293, 55.862 108.442, 65.796 109.590, 75.730 110.738, 85.664 111.886, 95.597 112.160, 97.970 121.708, 99.458 129.605, 98.632 " fill="none" stroke="rgb(157, 20, 170)" stroke-linecap="butt" stroke-linejoin="round" stroke-opacity="1.0" stroke-width="3.0" />
            <path d=" M 260.747, 61.564 259.816, 51.608 259.455, 47.744 258.944, 42.279 258.014, 32.322 257.083, 22.365 256.153, 12.409 255.222, 2.452 254.993, 0.000 245.056, 1.121 235.119, 2.242 225.182, 3.363 215.245, 4.483 205.308, 5.604 195.371, 6.725 187.964, 7.561 188.990, 17.508 190.037, 27.653 " fill="none" stroke="rgb(157, 20, 170)" stroke-linecap="butt" stroke-linejoin="round" stroke-opacity="1.0" stroke-width="3.0" />
            <path d=" M 223.990, 74.787 223.786, 71.848 223.270, 66.638 223.193, 65.579 233.137, 64.516 243.080, 63.453 248.235, 62.902 250.352, 62.676 255.980, 62.074 260.747, 61.564 266.804, 60.917 267.726, 70.874 268.648, 80.832 268.676, 81.136 268.894, 83.491 269.816, 93.449 270.738, 103.406 270.856, 104.683 267.057, 105.647 257.109, 106.668 247.161, 107.690 237.214, 108.711 227.447, 109.714 226.462, 99.763 225.477, 89.811 224.492, 79.860 224.248, 77.401 223.990, 74.787 " fill="none" stroke="rgb(157, 20, 170)" stroke-linecap="butt" stroke-linejoin="round" stroke-opacity="1.0" stroke-width="3.0" />
            <path d=" M 272.846, 268.665 282.808, 267.796 292.771, 266.927 302.733, 266.059 303.228, 266.016 302.332, 256.056 301.436, 246.096 300.540, 236.136 299.643, 226.177 298.747, 216.217 297.851, 206.257 297.631, 203.815 294.555, 199.992 " fill="none" stroke="rgb(157, 20, 170)" stroke-linecap="butt" stroke-linejoin="round" stroke-opacity="1.0" stroke-width="3.0" />
            <path d=" M 293.514, 188.482 303.470, 187.540 312.125, 186.722 311.252, 176.760 310.379, 166.798 309.506, 156.836 308.634, 146.874 308.313, 143.217 301.201, 140.828 291.250, 141.813 284.873, 142.445 " fill="none" stroke="rgb(157, 20, 170)" stroke-linecap="butt" stroke-linejoin="round" stroke-opacity="1.0" stroke-width="3.0" />
            <path d=" M 212.177, 82.952 210.823, 79.914 206.897, 80.329 204.997, 80.529 195.052, 81.580 185.107, 82.631 175.163, 83.682 165.218, 84.733 158.898, 85.401 158.579, 85.434 152.717, 86.054 151.422, 86.191 141.477, 87.241 131.533, 88.292 128.472, 88.616 129.326, 96.168 129.605, 98.632 130.728, 108.568 131.217, 112.897 131.257, 113.250 132.381, 123.187 133.504, 133.123 134.627, 143.060 135.751, 152.997 136.047, 155.618 136.066, 155.784 136.164, 156.655 136.457, 159.249 137.581, 169.186 137.737, 170.564 147.119, 169.647 156.151, 168.764 162.547, 168.139 164.725, 167.926 168.187, 167.588 169.843, 167.426 179.796, 166.454 189.749, 165.481 191.849, 165.276 193.896, 165.076 203.154, 164.171 203.823, 164.106 204.785, 164.012 205.474, 163.944 215.427, 162.972 219.172, 162.606 219.406, 161.175 " fill="none" stroke="rgb(157, 20, 170)" stroke-linecap="butt" stroke-linejoin="round" stroke-opacity="1.0" stroke-width="3.0" />
            <path d=" M 219.172, 162.606 218.175, 152.731 217.170, 142.782 216.166, 132.832 215.161, 122.883 214.157, 112.934 213.152, 102.984 212.148, 93.035 211.144, 83.085 210.823, 79.914 " fill="none" stroke="rgb(157, 20, 170)" stroke-linecap="butt" stroke-linejoin="round" stroke-opacity="1.0" stroke-width="3.0" />
            <path d=" M 131.217, 112.897 128.520, 113.176 129.647, 123.112 130.775, 133.048 131.902, 142.984 133.029, 152.921 133.365, 155.884 133.483, 156.920 " fill="none" stroke="rgb(157, 20, 170)" stroke-linecap="butt" stroke-linejoin="round" stroke-opacity="1.0" stroke-width="3.0" />
            <path d=" M 133.483, 156.920 136.164, 156.655 " fill="none" stroke="rgb(157, 20, 170)" stroke-linecap="butt" stroke-linejoin="round" stroke-opacity="1.0" stroke-width="3.0" />
            <path d=" M 133.365, 155.884 123.414, 156.870 113.463, 157.857 106.080, 158.589 96.653, 161.926 91.725, 163.670 92.914, 173.599 94.102, 183.528 95.291, 193.457 96.479, 203.386 97.668, 213.315 98.168, 217.495 108.124, 216.564 118.081, 215.632 128.037, 214.700 137.994, 213.768 147.950, 212.837 151.901, 212.467 158.030, 204.565 159.843, 202.228 158.746, 192.288 157.650, 182.348 156.553, 172.409 156.151, 168.764 " fill="none" stroke="rgb(157, 20, 170)" stroke-linecap="butt" stroke-linejoin="round" stroke-opacity="1.0" stroke-width="3.0" />
            <path d=" M 151.901, 212.467 150.791, 202.529 149.681, 192.590 148.572, 182.652 147.462, 172.714 147.119, 169.647 " fill="none" stroke="rgb(157, 20, 170)" stroke-linecap="butt" stroke-linejoin="round" stroke-opacity="1.0" stroke-width="3.0" />
            <path d=" M 270.856, 104.683 260.908, 105.705 250.960, 106.727 241.013, 107.749 231.065, 108.771 227.503, 109.136 " fill="none" stroke="rgb(157, 20, 170)" stroke-linecap="butt" stroke-linejoin="round" stroke-opacity="1.0" stroke-width="3.0" />
            <path d=" M 223.193, 65.579 223.298, 66.635 224.103, 74.775 224.362, 77.389 225.347, 87.340 226.331, 97.292 227.316, 107.243 227.503, 109.136 227.447, 109.714 " fill="none" stroke="rgb(157, 20, 170)" stroke-linecap="butt" stroke-linejoin="round" stroke-opacity="1.0" stroke-width="3.0" />
            <path d=" M 193.436, 180.385 194.480, 190.331 195.525, 200.276 196.064, 205.415 206.021, 204.481 208.494, 204.249 " fill="none" stroke="rgb(157, 20, 170)" stroke-linecap="butt" stroke-linejoin="round" stroke-opacity="1.0" stroke-width="3.0" />
            <path d=" M 136.457, 159.249 126.506, 160.233 116.554, 161.216 106.603, 162.199 96.651, 163.183 91.725, 163.670 " fill="none" stroke="rgb(157, 20, 170)" stroke-linecap="butt" stroke-linejoin="round" stroke-opacity="1.0" stroke-width="3.0" />
            <path d=" M 129.326, 96.168 119.381, 97.212 112.160, 97.970 " fill="none" stroke="rgb(157, 20, 170)" stroke-linecap="butt" stroke-linejoin="round" stroke-opacity="1.0" stroke-width="3.0" />
            <path d=" M 204.997, 80.529 204.887, 79.449 204.552, 76.162 204.082, 71.543 203.069, 61.595 202.056, 51.646 201.043, 41.698 200.039, 31.840 199.825, 29.735 199.506, 26.603 " fill="none" stroke="rgb(157, 20, 170)" stroke-linecap="butt" stroke-linejoin="round" stroke-opacity="1.0" stroke-width="3.0" />
            <path d=" M 206.788, 79.248 216.732, 78.196 224.248, 77.401 " fill="none" stroke="rgb(157, 20, 170)" stroke-linecap="butt" stroke-linejoin="round" stroke-opacity="1.0" stroke-width="3.0" />
            <path d=" M 215.351, 232.121 225.310, 231.213 235.269, 230.305 245.227, 229.398 255.186, 228.490 265.145, 227.582 267.687, 227.350 " fill="none" stroke="rgb(157, 20, 170)" stroke-linecap="butt" stroke-linejoin="round" stroke-opacity="1.0" stroke-width="3.0" />
            <path d=" M 294.923, 204.067 297.631, 203.815 " fill="none" stroke="rgb(157, 20, 170)" stroke-linecap="butt" stroke-linejoin="round" stroke-opacity="1.0" stroke-width="3.0" />
            <path d=" M 289.590, 145.065 299.542, 144.083 308.313, 143.217 " fill="none" stroke="rgb(157, 20, 170)" stroke-linecap="butt" stroke-linejoin="round" stroke-opacity="1.0" stroke-width="3.0" />
        </g>
    </g>
    <g id="fressstylelayer_hidden lines" inkscape:groupmode="lineset" inkscape:label="fressstylelayer_hidden lines">
        <g id="strokes" inkscape:groupmode="layer" inkscape:label="strokes">
            <path d=" M 164.194, 183.200 169.287, 177.725 " fill="none" stroke="rgb(0, 119, 0)" stroke-linecap="butt" stroke-linejoin="round" stroke-opacity="1.0" stroke-width="3.0" />
            <path d=" M 165.247, 140.493 166.326, 150.435 167.405, 160.376 167.450, 160.798 167.836, 164.348 168.187, 167.588 168.663, 171.975 169.287, 177.725 179.241, 176.762 189.195, 175.799 192.917, 175.439 202.870, 174.476 206.523, 174.123 " fill="none" stroke="rgb(0, 119, 0)" stroke-linecap="butt" stroke-linejoin="round" stroke-opacity="1.0" stroke-width="3.0" />
            <path d=" M 205.474, 163.944 204.834, 157.733 204.763, 157.040 204.459, 154.085 204.277, 152.323 204.216, 151.727 203.192, 141.780 202.672, 136.738 201.980, 136.807 199.753, 137.031 189.878, 138.022 186.291, 138.382 176.341, 139.380 166.909, 140.326 165.247, 140.493 163.450, 141.212 162.653, 141.531 161.507, 141.989 159.764, 142.687 160.851, 152.628 161.703, 160.421 161.796, 161.268 162.193, 164.901 162.547, 168.139 " fill="none" stroke="rgb(0, 119, 0)" stroke-linecap="butt" stroke-linejoin="round" stroke-opacity="1.0" stroke-width="3.0" />
            <path d=" M 159.764, 142.687 169.714, 141.690 179.664, 140.693 189.614, 139.696 199.564, 138.699 200.512, 138.604 " fill="none" stroke="rgb(0, 119, 0)" stroke-linecap="butt" stroke-linejoin="round" stroke-opacity="1.0" stroke-width="3.0" />
            <path d=" M 203.154, 164.171 202.126, 154.224 201.098, 144.277 200.512, 138.604 202.030, 137.293 202.672, 136.738 " fill="none" stroke="rgb(0, 119, 0)" stroke-linecap="butt" stroke-linejoin="round" stroke-opacity="1.0" stroke-width="3.0" />
            <path d=" M 226.159, 149.557 225.919, 149.581 218.951, 150.270 218.751, 150.290 208.800, 151.274 204.216, 151.727 203.526, 151.796 193.574, 152.780 183.623, 153.764 173.671, 154.748 164.195, 155.685 " fill="none" stroke="rgb(0, 119, 0)" stroke-linecap="butt" stroke-linejoin="round" stroke-opacity="1.0" stroke-width="3.0" />
            <path d=" M 163.078, 156.395 164.195, 155.685 163.112, 145.744 162.653, 141.531 161.570, 131.590 160.487, 121.649 159.404, 111.707 159.219, 110.004 158.136, 100.063 157.660, 95.694 157.412, 93.416 " fill="none" stroke="rgb(0, 119, 0)" stroke-linecap="butt" stroke-linejoin="round" stroke-opacity="1.0" stroke-width="3.0" />
            <path d=" M 156.163, 93.012 157.412, 93.416 159.423, 93.205 169.369, 92.161 179.314, 91.118 189.260, 90.074 199.205, 89.031 209.150, 87.988 219.096, 86.944 219.905, 86.859 " fill="none" stroke="rgb(0, 119, 0)" stroke-linecap="butt" stroke-linejoin="round" stroke-opacity="1.0" stroke-width="3.0" />
            <path d=" M 225.586, 146.240 225.919, 149.581 226.047, 150.859 226.118, 151.570 226.132, 150.850 226.159, 149.557 225.825, 146.216 " fill="none" stroke="rgb(0, 119, 0)" stroke-linecap="butt" stroke-linejoin="round" stroke-opacity="1.0" stroke-width="3.0" />
            <path d=" M 211.587, 83.014 212.734, 85.483 213.439, 87.000 213.280, 85.425 212.177, 82.952 " fill="none" stroke="rgb(0, 119, 0)" stroke-linecap="butt" stroke-linejoin="round" stroke-opacity="1.0" stroke-width="3.0" />
            <path d=" M 219.860, 150.783 219.012, 150.867 218.606, 150.907 208.655, 151.890 204.277, 152.323 203.587, 152.391 193.636, 153.375 183.684, 154.359 173.733, 155.342 163.781, 156.326 163.078, 156.395 161.994, 146.454 161.507, 141.989 160.422, 132.048 159.338, 122.107 158.253, 112.166 158.031, 110.127 156.946, 100.186 156.470, 95.819 156.163, 93.012 159.366, 92.676 169.311, 91.632 179.257, 90.588 189.202, 89.544 199.147, 88.500 209.093, 87.456 213.439, 87.000 " fill="none" stroke="rgb(0, 119, 0)" stroke-linecap="butt" stroke-linejoin="round" stroke-opacity="1.0" stroke-width="3.0" />
            <path d=" M 219.406, 161.175 220.219, 156.220 220.336, 155.508 220.038, 152.547 220.034, 152.511 219.929, 151.463 219.860, 150.783 219.720, 151.484 219.497, 152.601 219.291, 153.634 218.906, 155.559 219.479, 155.502 219.291, 153.634 219.189, 152.631 219.080, 151.547 219.012, 150.867 218.951, 150.270 218.893, 149.688 " fill="none" stroke="rgb(0, 119, 0)" stroke-linecap="butt" stroke-linejoin="round" stroke-opacity="1.0" stroke-width="3.0" />
            <path d=" M 168.864, 289.726 172.027, 280.239 174.505, 272.808 " fill="none" stroke="rgb(0, 119, 0)" stroke-linecap="butt" stroke-linejoin="round" stroke-opacity="1.0" stroke-width="3.0" />
            <path d=" M 169.698, 228.823 170.785, 238.764 171.871, 248.705 172.957, 258.645 174.044, 268.586 174.505, 272.808 184.467, 271.935 194.429, 271.062 204.391, 270.189 212.254, 269.500 " fill="none" stroke="rgb(0, 119, 0)" stroke-linecap="butt" stroke-linejoin="round" stroke-opacity="1.0" stroke-width="3.0" />
            <path d=" M 218.919, 272.953 217.016, 273.119 215.484, 273.252 211.868, 273.568 212.900, 283.515 213.149, 285.915 " fill="none" stroke="rgb(0, 119, 0)" stroke-linecap="butt" stroke-linejoin="round" stroke-opacity="1.0" stroke-width="3.0" />
            <path d=" M 208.614, 234.363 209.645, 244.309 210.675, 254.256 211.705, 264.203 212.254, 269.500 211.868, 273.568 " fill="none" stroke="rgb(0, 119, 0)" stroke-linecap="butt" stroke-linejoin="round" stroke-opacity="1.0" stroke-width="3.0" />
            <path d=" M 225.475, 221.318 225.605, 211.319 225.656, 207.366 " fill="none" stroke="rgb(0, 119, 0)" stroke-linecap="butt" stroke-linejoin="round" stroke-opacity="1.0" stroke-width="3.0" />
            <path d=" M 220.099, 152.164 220.136, 152.538 221.138, 162.487 222.140, 172.437 223.141, 182.387 224.143, 192.337 224.546, 196.338 225.184, 202.682 225.656, 207.366 235.612, 206.436 245.569, 205.506 255.526, 204.576 265.482, 203.646 267.617, 203.446 270.003, 203.223 279.959, 202.293 286.708, 201.663 " fill="none" stroke="rgb(0, 119, 0)" stroke-linecap="butt" stroke-linejoin="round" stroke-opacity="1.0" stroke-width="3.0" />
            <path d=" M 281.129, 140.729 281.318, 142.797 282.230, 152.755 283.142, 162.713 284.053, 172.672 284.965, 182.630 285.570, 189.234 285.953, 193.413 286.708, 201.663 292.430, 209.864 295.896, 214.833 " fill="none" stroke="rgb(0, 119, 0)" stroke-linecap="butt" stroke-linejoin="round" stroke-opacity="1.0" stroke-width="3.0" />
            <path d=" M 219.479, 155.502 220.027, 152.548 220.034, 152.511 220.099, 152.164 226.118, 151.570 " fill="none" stroke="rgb(0, 119, 0)" stroke-linecap="butt" stroke-linejoin="round" stroke-opacity="1.0" stroke-width="3.0" />
            <path d=" M 205.080, 81.347 195.135, 82.397 185.190, 83.447 175.246, 84.497 165.301, 85.547 158.668, 86.247 151.511, 87.003 " fill="none" stroke="rgb(0, 119, 0)" stroke-linecap="butt" stroke-linejoin="round" stroke-opacity="1.0" stroke-width="3.0" />
            <path d=" M 151.422, 86.191 151.511, 87.003 152.878, 87.527 159.064, 89.896 159.400, 90.024 169.345, 88.978 179.290, 87.931 189.235, 86.885 199.181, 85.839 207.369, 84.977 206.897, 80.329 " fill="none" stroke="rgb(0, 119, 0)" stroke-linecap="butt" stroke-linejoin="round" stroke-opacity="1.0" stroke-width="3.0" />
            <path d=" M 207.369, 84.977 205.080, 81.347 204.997, 80.529 " fill="none" stroke="rgb(0, 119, 0)" stroke-linecap="butt" stroke-linejoin="round" stroke-opacity="1.0" stroke-width="3.0" />
            <path d=" M 159.400, 90.024 158.898, 85.401 157.819, 75.459 156.739, 65.517 155.660, 55.576 154.580, 45.634 154.117, 41.367 " fill="none" stroke="rgb(0, 119, 0)" stroke-linecap="butt" stroke-linejoin="round" stroke-opacity="1.0" stroke-width="3.0" />
            <path d=" M 145.543, 32.585 152.529, 39.740 154.117, 41.367 164.057, 40.274 173.662, 39.218 183.602, 38.126 192.443, 37.154 " fill="none" stroke="rgb(0, 119, 0)" stroke-linecap="butt" stroke-linejoin="round" stroke-opacity="1.0" stroke-width="3.0" />
            <path d=" M 206.454, 75.961 204.552, 76.162 198.602, 76.794 196.548, 77.012 198.940, 80.078 204.887, 79.449 206.788, 79.248 " fill="none" stroke="rgb(0, 119, 0)" stroke-linecap="butt" stroke-linejoin="round" stroke-opacity="1.0" stroke-width="3.0" />
            <path d=" M 190.577, 32.884 192.443, 37.154 193.468, 47.101 194.492, 57.049 195.517, 66.996 196.073, 72.396 196.548, 77.012 " fill="none" stroke="rgb(0, 119, 0)" stroke-linecap="butt" stroke-linejoin="round" stroke-opacity="1.0" stroke-width="3.0" />
            <path d=" M 267.687, 227.350 268.134, 232.075 269.077, 242.030 269.838, 250.063 270.701, 259.170 271.223, 264.676 272.459, 264.567 " fill="none" stroke="rgb(0, 119, 0)" stroke-linecap="butt" stroke-linejoin="round" stroke-opacity="1.0" stroke-width="3.0" />
            <path d=" M 271.223, 264.676 269.609, 259.266 " fill="none" stroke="rgb(0, 119, 0)" stroke-linecap="butt" stroke-linejoin="round" stroke-opacity="1.0" stroke-width="3.0" />
            <path d=" M 294.555, 199.992 289.027, 193.123 285.953, 193.413 275.997, 194.351 266.164, 195.277 265.075, 195.379 255.119, 196.317 245.163, 197.255 242.352, 197.520 242.047, 197.549 233.218, 198.380 233.470, 201.647 233.542, 201.641 242.650, 200.786 242.672, 200.784 252.628, 199.849 262.584, 198.914 265.385, 198.651 267.511, 203.218 267.617, 203.446 269.028, 206.478 269.967, 216.434 270.040, 217.214 270.978, 227.170 271.917, 237.126 272.855, 247.082 273.108, 249.772 273.967, 258.882 271.938, 259.061 270.701, 259.170 269.609, 259.266 270.521, 268.868 272.846, 268.665 " fill="none" stroke="rgb(0, 119, 0)" stroke-linecap="butt" stroke-linejoin="round" stroke-opacity="1.0" stroke-width="3.0" />
            <path d=" M 273.967, 258.882 275.745, 264.280 " fill="none" stroke="rgb(0, 119, 0)" stroke-linecap="butt" stroke-linejoin="round" stroke-opacity="1.0" stroke-width="3.0" />
            <path d=" M 271.308, 217.097 270.371, 207.141 270.298, 206.360 270.003, 203.223 269.981, 202.987 266.164, 195.277 264.806, 192.535 254.850, 193.475 244.895, 194.416 242.073, 194.682 241.523, 194.734 231.568, 195.675 224.546, 196.338 222.969, 196.487 " fill="none" stroke="rgb(0, 119, 0)" stroke-linecap="butt" stroke-linejoin="round" stroke-opacity="1.0" stroke-width="3.0" />
            <path d=" M 210.004, 232.608 215.351, 232.121 " fill="none" stroke="rgb(0, 119, 0)" stroke-linecap="butt" stroke-linejoin="round" stroke-opacity="1.0" stroke-width="3.0" />
            <path d=" M 209.848, 197.726 210.500, 204.060 211.523, 214.008 212.546, 223.955 212.641, 224.878 213.570, 233.912 214.593, 243.859 215.378, 251.488 " fill="none" stroke="rgb(0, 119, 0)" stroke-linecap="butt" stroke-linejoin="round" stroke-opacity="1.0" stroke-width="3.0" />
            <path d=" M 238.223, 249.448 228.262, 250.338 218.302, 251.227 215.378, 251.488 214.887, 257.296 " fill="none" stroke="rgb(0, 119, 0)" stroke-linecap="butt" stroke-linejoin="round" stroke-opacity="1.0" stroke-width="3.0" />
            <path d=" M 209.238, 225.191 209.554, 228.251 210.004, 232.608 210.754, 227.407 211.099, 225.020 211.369, 223.145 210.325, 223.242 210.036, 225.117 209.554, 228.251 208.614, 234.363 211.445, 234.105 212.488, 234.010 213.553, 233.913 213.570, 233.912 215.517, 233.734 " fill="none" stroke="rgb(0, 119, 0)" stroke-linecap="butt" stroke-linejoin="round" stroke-opacity="1.0" stroke-width="3.0" />
            <path d=" M 238.711, 255.181 228.750, 256.065 218.789, 256.950 214.887, 257.296 213.862, 247.349 212.838, 237.401 212.488, 234.010 211.558, 224.978 211.369, 223.145 " fill="none" stroke="rgb(0, 119, 0)" stroke-linecap="butt" stroke-linejoin="round" stroke-opacity="1.0" stroke-width="3.0" />
            <path d=" M 252.381, 82.847 250.382, 85.430 " fill="none" stroke="rgb(0, 119, 0)" stroke-linecap="butt" stroke-linejoin="round" stroke-opacity="1.0" stroke-width="3.0" />
            <path d=" M 224.248, 77.401 224.362, 77.389 234.306, 76.337 244.251, 75.285 249.364, 74.744 251.477, 74.521 251.228, 71.899 250.452, 63.735 250.352, 62.676 249.406, 52.720 249.041, 48.872 248.548, 43.689 246.920, 49.101 247.869, 59.056 248.235, 62.902 248.336, 63.961 249.114, 72.123 249.364, 74.744 250.313, 84.699 250.382, 85.430 260.328, 84.389 265.031, 83.896 268.894, 83.491 " fill="none" stroke="rgb(0, 119, 0)" stroke-linecap="butt" stroke-linejoin="round" stroke-opacity="1.0" stroke-width="3.0" />
            <path d=" M 246.920, 49.101 249.041, 48.872 254.680, 48.261 259.455, 47.744 269.397, 46.668 279.339, 45.592 283.225, 45.172 " fill="none" stroke="rgb(0, 119, 0)" stroke-linecap="butt" stroke-linejoin="round" stroke-opacity="1.0" stroke-width="3.0" />
            <path d=" M 288.059, 39.112 283.225, 45.172 284.122, 55.132 285.018, 65.091 285.914, 75.051 286.508, 81.646 " fill="none" stroke="rgb(0, 119, 0)" stroke-linecap="butt" stroke-linejoin="round" stroke-opacity="1.0" stroke-width="3.0" />
            <path d=" M 248.548, 43.689 254.056, 43.090 " fill="none" stroke="rgb(0, 119, 0)" stroke-linecap="butt" stroke-linejoin="round" stroke-opacity="1.0" stroke-width="3.0" />
            <path d=" M 251.393, 14.813 252.331, 24.769 253.269, 34.725 254.056, 43.090 254.165, 42.798 " fill="none" stroke="rgb(0, 119, 0)" stroke-linecap="butt" stroke-linejoin="round" stroke-opacity="1.0" stroke-width="3.0" />
            <path d=" M 257.082, 73.774 251.575, 74.356 " fill="none" stroke="rgb(0, 119, 0)" stroke-linecap="butt" stroke-linejoin="round" stroke-opacity="1.0" stroke-width="3.0" />
            <path d=" M 251.477, 74.521 251.575, 74.356 252.381, 82.847 262.327, 81.803 268.676, 81.136 " fill="none" stroke="rgb(0, 119, 0)" stroke-linecap="butt" stroke-linejoin="round" stroke-opacity="1.0" stroke-width="3.0" />
            <path d=" M 258.944, 42.279 254.165, 42.798 254.680, 48.261 255.617, 58.217 255.980, 62.074 256.080, 63.134 256.849, 71.303 257.082, 73.774 259.024, 71.072 256.849, 71.303 251.228, 71.899 249.114, 72.123 239.170, 73.177 229.226, 74.231 224.103, 74.775 223.990, 74.787 " fill="none" stroke="rgb(0, 119, 0)" stroke-linecap="butt" stroke-linejoin="round" stroke-opacity="1.0" stroke-width="3.0" />
            <path d=" M 214.298, 297.000 214.989, 287.024 215.078, 285.749 215.759, 275.911 " fill="none" stroke="rgb(0, 119, 0)" stroke-linecap="butt" stroke-linejoin="round" stroke-opacity="1.0" stroke-width="3.0" />
            <path d=" M 210.325, 223.242 210.514, 225.074 210.754, 227.407 211.445, 234.105 212.472, 244.052 213.498, 253.999 214.524, 263.946 215.484, 273.252 215.759, 275.911 218.783, 275.648 228.745, 274.782 238.708, 273.915 248.670, 273.049 258.633, 272.182 268.595, 271.316 269.398, 271.246 " fill="none" stroke="rgb(0, 119, 0)" stroke-linecap="butt" stroke-linejoin="round" stroke-opacity="1.0" stroke-width="3.0" />
            <path d=" M 268.498, 261.781 269.398, 271.246 272.039, 280.891 274.680, 290.535 275.037, 291.838 " fill="none" stroke="rgb(0, 119, 0)" stroke-linecap="butt" stroke-linejoin="round" stroke-opacity="1.0" stroke-width="3.0" />
            <path d=" M 233.470, 201.647 233.495, 201.902 234.485, 211.853 235.336, 220.410 236.325, 230.361 237.314, 240.312 238.223, 249.448 238.711, 255.181 239.620, 264.319 " fill="none" stroke="rgb(0, 119, 0)" stroke-linecap="butt" stroke-linejoin="round" stroke-opacity="1.0" stroke-width="3.0" />
            <path d=" M 238.632, 252.840 239.489, 262.803 239.620, 264.319 249.581, 263.443 259.543, 262.568 268.498, 261.781 270.521, 268.868 " fill="none" stroke="rgb(0, 119, 0)" stroke-linecap="butt" stroke-linejoin="round" stroke-opacity="1.0" stroke-width="3.0" />
            <path d=" M 214.341, 66.628 204.398, 67.690 194.455, 68.753 184.511, 69.816 176.982, 70.621 " fill="none" stroke="rgb(0, 119, 0)" stroke-linecap="butt" stroke-linejoin="round" stroke-opacity="1.0" stroke-width="3.0" />
            <path d=" M 176.982, 70.621 180.740, 74.030 190.684, 72.971 196.073, 72.396 198.128, 72.177 204.082, 71.543 205.112, 71.433 215.056, 70.374 215.286, 70.350 214.290, 60.399 213.293, 50.449 212.296, 40.499 211.764, 35.187 210.524, 28.553 200.585, 29.651 200.445, 29.667 199.825, 29.735 193.838, 30.397 190.360, 30.782 180.420, 31.881 172.974, 32.704 173.662, 39.218 174.714, 49.163 175.765, 59.108 176.817, 69.052 176.982, 70.621 " fill="none" stroke="rgb(0, 119, 0)" stroke-linecap="butt" stroke-linejoin="round" stroke-opacity="1.0" stroke-width="3.0" />
            <path d=" M 215.286, 70.350 214.341, 66.628 213.344, 56.677 212.346, 46.727 211.349, 36.777 210.524, 28.553 " fill="none" stroke="rgb(0, 119, 0)" stroke-linecap="butt" stroke-linejoin="round" stroke-opacity="1.0" stroke-width="3.0" />
            <path d=" M 180.740, 74.030 179.694, 64.085 178.647, 54.140 177.600, 44.195 177.054, 39.002 " fill="none" stroke="rgb(0, 119, 0)" stroke-linecap="butt" stroke-linejoin="round" stroke-opacity="1.0" stroke-width="3.0" />
            <path d=" M 172.974, 32.704 177.054, 39.002 186.994, 37.910 196.934, 36.817 206.874, 35.725 211.764, 35.187 " fill="none" stroke="rgb(0, 119, 0)" stroke-linecap="butt" stroke-linejoin="round" stroke-opacity="1.0" stroke-width="3.0" />
            <path d=" M 153.546, 93.627 143.601, 94.670 133.655, 95.714 129.326, 96.168 " fill="none" stroke="rgb(0, 119, 0)" stroke-linecap="butt" stroke-linejoin="round" stroke-opacity="1.0" stroke-width="3.0" />
            <path d=" M 159.671, 95.484 153.546, 93.627 152.878, 87.527 152.717, 86.054 151.629, 76.113 150.540, 66.173 149.452, 56.232 148.915, 51.324 " fill="none" stroke="rgb(0, 119, 0)" stroke-linecap="butt" stroke-linejoin="round" stroke-opacity="1.0" stroke-width="3.0" />
            <path d=" M 121.708, 99.458 120.573, 89.523 119.439, 79.588 118.304, 69.652 117.303, 60.885 " fill="none" stroke="rgb(0, 119, 0)" stroke-linecap="butt" stroke-linejoin="round" stroke-opacity="1.0" stroke-width="3.0" />
            <path d=" M 107.293, 55.862 116.231, 60.347 117.303, 60.885 127.244, 59.807 137.186, 58.728 147.128, 57.650 148.278, 57.526 155.463, 56.746 " fill="none" stroke="rgb(0, 119, 0)" stroke-linecap="butt" stroke-linejoin="round" stroke-opacity="1.0" stroke-width="3.0" />
            <path d=" M 129.605, 98.632 139.550, 97.590 143.943, 97.131 153.889, 96.089 156.470, 95.819 157.660, 95.694 159.671, 95.484 159.423, 93.205 159.366, 92.676 159.196, 91.111 159.064, 89.896 158.668, 86.247 158.579, 85.434 157.499, 75.493 156.419, 65.551 155.463, 56.746 148.915, 51.324 147.613, 51.466 " fill="none" stroke="rgb(0, 119, 0)" stroke-linecap="butt" stroke-linejoin="round" stroke-opacity="1.0" stroke-width="3.0" />
            <path d=" M 270.089, 183.041 260.134, 183.990 250.179, 184.939 241.202, 185.794 231.858, 186.685 " fill="none" stroke="rgb(0, 119, 0)" stroke-linecap="butt" stroke-linejoin="round" stroke-opacity="1.0" stroke-width="3.0" />
            <path d=" M 232.312, 193.094 231.858, 186.685 230.869, 176.734 229.879, 166.783 228.890, 156.832 228.382, 151.724 228.084, 148.733 " fill="none" stroke="rgb(0, 119, 0)" stroke-linecap="butt" stroke-linejoin="round" stroke-opacity="1.0" stroke-width="3.0" />
            <path d=" M 284.873, 142.445 281.318, 142.797 271.367, 143.782 261.415, 144.767 261.013, 144.807 261.075, 145.469 261.084, 145.562 261.818, 145.490 266.524, 145.024 266.629, 145.014 266.516, 144.930 261.718, 145.405 261.075, 145.469 251.124, 146.453 241.172, 147.438 231.221, 148.423 228.084, 148.733 228.157, 150.650 228.197, 151.726 228.199, 151.742 228.563, 155.400 229.553, 165.351 230.542, 175.301 231.532, 185.252 232.312, 193.094 241.142, 192.257 241.829, 192.192 251.785, 191.249 261.740, 190.307 267.722, 189.740 268.015, 189.712 265.027, 184.352 264.696, 183.758 264.755, 184.378 267.722, 189.740 268.343, 190.863 278.298, 189.921 285.570, 189.234 293.514, 188.482 " fill="none" stroke="rgb(0, 119, 0)" stroke-linecap="butt" stroke-linejoin="round" stroke-opacity="1.0" stroke-width="3.0" />
            <path d=" M 266.516, 144.930 266.524, 145.024 267.458, 154.980 268.391, 164.937 269.325, 174.893 270.089, 183.041 270.212, 183.233 " fill="none" stroke="rgb(0, 119, 0)" stroke-linecap="butt" stroke-linejoin="round" stroke-opacity="1.0" stroke-width="3.0" />
            <path d=" M 228.197, 151.726 238.149, 150.745 248.101, 149.763 258.052, 148.781 264.105, 148.183 " fill="none" stroke="rgb(0, 119, 0)" stroke-linecap="butt" stroke-linejoin="round" stroke-opacity="1.0" stroke-width="3.0" />
            <path d=" M 268.015, 189.712 267.078, 179.756 266.140, 169.800 265.203, 159.844 264.265, 149.888 264.105, 148.183 261.084, 145.562 " fill="none" stroke="rgb(0, 119, 0)" stroke-linecap="butt" stroke-linejoin="round" stroke-opacity="1.0" stroke-width="3.0" />
            <path d=" M 266.629, 145.014 267.563, 154.970 268.496, 164.926 269.430, 174.883 270.212, 183.233 264.696, 183.758 " fill="none" stroke="rgb(0, 119, 0)" stroke-linecap="butt" stroke-linejoin="round" stroke-opacity="1.0" stroke-width="3.0" />
            <path d=" M 254.993, 0.000 252.632, 9.717 251.393, 14.813 241.455, 15.921 231.516, 17.028 221.578, 18.135 211.639, 19.243 201.701, 20.350 192.907, 21.330 " fill="none" stroke="rgb(0, 119, 0)" stroke-linecap="butt" stroke-linejoin="round" stroke-opacity="1.0" stroke-width="3.0" />
            <path d=" M 198.940, 80.078 198.602, 76.794 198.128, 72.177 197.107, 62.230 196.085, 52.282 195.064, 42.334 194.054, 32.500 193.838, 30.397 193.517, 27.267 192.907, 21.330 189.528, 11.918 187.964, 7.561 " fill="none" stroke="rgb(0, 119, 0)" stroke-linecap="butt" stroke-linejoin="round" stroke-opacity="1.0" stroke-width="3.0" />
            <path d=" M 223.270, 66.638 223.298, 66.635 233.241, 65.573 243.185, 64.511 248.336, 63.961 250.452, 63.735 256.080, 63.134 260.846, 62.625 260.747, 61.564 " fill="none" stroke="rgb(0, 119, 0)" stroke-linecap="butt" stroke-linejoin="round" stroke-opacity="1.0" stroke-width="3.0" />
            <path d=" M 190.037, 27.653 190.360, 30.782 190.577, 32.884 194.054, 32.500 200.039, 31.840 201.075, 31.725 " fill="none" stroke="rgb(0, 119, 0)" stroke-linecap="butt" stroke-linejoin="round" stroke-opacity="1.0" stroke-width="3.0" />
            <path d=" M 294.019, 247.912 298.553, 256.825 303.087, 265.738 303.228, 266.016 " fill="none" stroke="rgb(0, 119, 0)" stroke-linecap="butt" stroke-linejoin="round" stroke-opacity="1.0" stroke-width="3.0" />
            <path d=" M 233.218, 198.380 233.542, 201.641 233.567, 201.895 234.556, 211.846 235.407, 220.403 236.396, 230.354 237.386, 240.305 238.375, 250.256 238.632, 252.840 248.593, 251.954 258.553, 251.067 268.514, 250.181 269.838, 250.063 271.077, 249.953 273.108, 249.772 274.370, 249.660 284.331, 248.774 294.019, 247.912 293.112, 237.953 292.204, 227.994 291.297, 218.035 291.046, 215.280 290.139, 205.321 289.231, 195.362 289.027, 193.123 " fill="none" stroke="rgb(0, 119, 0)" stroke-linecap="butt" stroke-linejoin="round" stroke-opacity="1.0" stroke-width="3.0" />
            <path d=" M 269.028, 206.478 270.298, 206.360 280.255, 205.433 290.212, 204.505 294.923, 204.067 " fill="none" stroke="rgb(0, 119, 0)" stroke-linecap="butt" stroke-linejoin="round" stroke-opacity="1.0" stroke-width="3.0" />
            <path d=" M 204.845, 164.591 203.883, 164.685 193.957, 165.655 191.910, 165.855 181.957, 166.827 172.005, 167.799 169.906, 168.004 " fill="none" stroke="rgb(0, 119, 0)" stroke-linecap="butt" stroke-linejoin="round" stroke-opacity="1.0" stroke-width="3.0" />
            <path d=" M 165.203, 172.311 169.906, 168.004 169.843, 167.426 169.492, 164.185 169.108, 160.634 168.031, 150.693 166.955, 140.751 166.909, 140.326 166.186, 133.645 166.118, 133.024 " fill="none" stroke="rgb(0, 119, 0)" stroke-linecap="butt" stroke-linejoin="round" stroke-opacity="1.0" stroke-width="3.0" />
            <path d=" M 208.494, 204.249 210.500, 204.060 220.456, 203.126 223.609, 202.830 225.184, 202.682 233.495, 201.902 233.567, 201.895 242.697, 201.038 242.672, 200.784 242.352, 197.520 242.073, 194.682 241.829, 192.192 241.202, 185.794 240.226, 175.842 239.250, 165.890 238.274, 155.938 238.129, 154.459 237.079, 150.866 228.382, 151.724 228.199, 151.742 220.136, 152.538 220.038, 152.547 220.027, 152.548 219.497, 152.601 219.189, 152.631 218.616, 152.688 218.551, 152.694 218.175, 152.731 208.223, 153.713 204.459, 154.085 203.769, 154.153 202.805, 154.248 203.110, 157.203 203.182, 157.895 203.823, 164.106 203.883, 164.685 204.054, 166.343 204.845, 164.591 204.785, 164.012 204.145, 157.800 204.073, 157.108 203.769, 154.153 203.587, 152.391 203.526, 151.796 202.500, 141.848 202.030, 137.293 201.980, 136.807 201.225, 129.476 191.275, 130.482 190.053, 130.605 185.520, 131.063 175.570, 132.069 166.118, 133.024 162.665, 134.000 166.186, 133.645 176.135, 132.640 185.585, 131.686 190.118, 131.228 190.053, 130.605 189.012, 120.660 187.970, 110.714 187.731, 108.433 183.040, 107.543 173.093, 108.571 163.146, 109.598 159.219, 110.004 158.031, 110.127 148.083, 111.154 145.528, 111.418 135.581, 112.446 131.217, 112.897 " fill="none" stroke="rgb(0, 119, 0)" stroke-linecap="butt" stroke-linejoin="round" stroke-opacity="1.0" stroke-width="3.0" />
            <path d=" M 190.118, 131.228 189.206, 131.610 " fill="none" stroke="rgb(0, 119, 0)" stroke-linecap="butt" stroke-linejoin="round" stroke-opacity="1.0" stroke-width="3.0" />
            <path d=" M 192.014, 158.381 191.986, 158.118 190.943, 148.172 189.900, 138.227 189.878, 138.022 189.206, 131.610 199.089, 130.612 " fill="none" stroke="rgb(0, 119, 0)" stroke-linecap="butt" stroke-linejoin="round" stroke-opacity="1.0" stroke-width="3.0" />
            <path d=" M 201.714, 155.991 200.685, 146.044 199.753, 137.031 199.089, 130.612 201.225, 129.476 " fill="none" stroke="rgb(0, 119, 0)" stroke-linecap="butt" stroke-linejoin="round" stroke-opacity="1.0" stroke-width="3.0" />
            <path d=" M 156.151, 168.764 155.794, 165.528 155.640, 164.135 153.213, 165.781 155.794, 165.528 162.193, 164.901 164.372, 164.687 167.836, 164.348 169.492, 164.185 179.445, 163.209 188.811, 162.291 191.226, 159.342 191.468, 159.047 192.014, 158.381 191.747, 158.407 188.436, 158.733 178.484, 159.712 169.108, 160.634 167.450, 160.798 163.985, 161.138 164.372, 164.687 164.725, 167.926 165.203, 172.311 168.663, 171.975 178.616, 171.006 188.569, 170.038 192.311, 169.674 194.357, 169.475 193.957, 165.655 193.896, 165.076 193.247, 158.872 193.174, 158.181 193.035, 156.846 191.986, 158.118 191.825, 158.313 191.747, 158.407 191.198, 159.073 191.226, 159.342 191.849, 165.276 191.910, 165.855 192.311, 169.674 192.917, 175.439 193.436, 180.385 " fill="none" stroke="rgb(0, 119, 0)" stroke-linecap="butt" stroke-linejoin="round" stroke-opacity="1.0" stroke-width="3.0" />
            <path d=" M 193.035, 156.846 201.714, 155.991 202.805, 154.248 " fill="none" stroke="rgb(0, 119, 0)" stroke-linecap="butt" stroke-linejoin="round" stroke-opacity="1.0" stroke-width="3.0" />
            <path d=" M 165.499, 160.047 164.418, 150.106 163.450, 141.212 162.665, 134.000 " fill="none" stroke="rgb(0, 119, 0)" stroke-linecap="butt" stroke-linejoin="round" stroke-opacity="1.0" stroke-width="3.0" />
            <path d=" M 163.985, 161.138 165.499, 160.047 161.703, 160.421 151.751, 161.401 144.446, 162.120 " fill="none" stroke="rgb(0, 119, 0)" stroke-linecap="butt" stroke-linejoin="round" stroke-opacity="1.0" stroke-width="3.0" />
            <path d=" M 264.755, 184.378 265.027, 184.352 274.982, 183.404 284.937, 182.456 292.901, 181.697 302.856, 180.749 304.724, 180.571 " fill="none" stroke="rgb(0, 119, 0)" stroke-linecap="butt" stroke-linejoin="round" stroke-opacity="1.0" stroke-width="3.0" />
            <path d=" M 301.201, 140.828 302.084, 150.789 302.967, 160.750 303.850, 170.711 304.724, 180.571 312.125, 186.722 " fill="none" stroke="rgb(0, 119, 0)" stroke-linecap="butt" stroke-linejoin="round" stroke-opacity="1.0" stroke-width="3.0" />
            <path d=" M 261.013, 144.807 261.718, 145.405 261.818, 145.490 264.267, 147.565 " fill="none" stroke="rgb(0, 119, 0)" stroke-linecap="butt" stroke-linejoin="round" stroke-opacity="1.0" stroke-width="3.0" />
            <path d=" M 268.343, 190.863 267.406, 180.907 266.469, 170.951 265.531, 160.995 264.594, 151.039 264.267, 147.565 274.219, 146.583 284.171, 145.600 289.590, 145.065 " fill="none" stroke="rgb(0, 119, 0)" stroke-linecap="butt" stroke-linejoin="round" stroke-opacity="1.0" stroke-width="3.0" />
            <path d=" M 137.737, 170.564 146.258, 165.331 151.174, 162.313 " fill="none" stroke="rgb(0, 119, 0)" stroke-linecap="butt" stroke-linejoin="round" stroke-opacity="1.0" stroke-width="3.0" />
            <path d=" M 143.459, 92.765 143.943, 97.131 145.046, 107.070 145.528, 111.418 146.631, 121.357 147.733, 131.296 148.836, 141.236 149.939, 151.175 151.041, 161.114 151.174, 162.313 161.126, 161.334 161.796, 161.268 171.748, 160.289 181.700, 159.310 191.825, 158.313 193.174, 158.181 203.110, 157.203 204.073, 157.108 204.763, 157.040 214.715, 156.061 218.849, 155.655 220.336, 155.508 " fill="none" stroke="rgb(0, 119, 0)" stroke-linecap="butt" stroke-linejoin="round" stroke-opacity="1.0" stroke-width="3.0" />
            <path d=" M 128.472, 88.616 138.110, 91.284 143.459, 92.765 153.404, 91.720 159.196, 91.111 169.141, 90.065 179.086, 89.020 189.031, 87.974 198.977, 86.929 208.922, 85.884 212.734, 85.483 213.280, 85.425 " fill="none" stroke="rgb(0, 119, 0)" stroke-linecap="butt" stroke-linejoin="round" stroke-opacity="1.0" stroke-width="3.0" />
            <path d=" M 155.640, 164.135 145.688, 165.112 137.727, 165.894 " fill="none" stroke="rgb(0, 119, 0)" stroke-linecap="butt" stroke-linejoin="round" stroke-opacity="1.0" stroke-width="3.0" />
            <path d=" M 136.560, 155.567 137.683, 165.503 137.727, 165.894 144.446, 162.120 143.334, 152.182 142.222, 142.245 141.109, 132.307 139.997, 122.369 139.000, 113.461 " fill="none" stroke="rgb(0, 119, 0)" stroke-linecap="butt" stroke-linejoin="round" stroke-opacity="1.0" stroke-width="3.0" />
            <path d=" M 187.731, 108.433 177.784, 109.459 167.836, 110.485 157.889, 111.512 147.942, 112.538 139.000, 113.461 131.257, 113.250 128.520, 113.176 " fill="none" stroke="rgb(0, 119, 0)" stroke-linecap="butt" stroke-linejoin="round" stroke-opacity="1.0" stroke-width="3.0" />
            <path d=" M 188.811, 162.291 188.436, 158.733 187.388, 148.788 186.340, 138.843 186.291, 138.382 185.585, 131.686 185.520, 131.063 184.471, 121.118 183.423, 111.174 183.040, 107.543 " fill="none" stroke="rgb(0, 119, 0)" stroke-linecap="butt" stroke-linejoin="round" stroke-opacity="1.0" stroke-width="3.0" />
            <path d=" M 152.029, 155.083 153.129, 165.022 153.213, 165.781 " fill="none" stroke="rgb(0, 119, 0)" stroke-linecap="butt" stroke-linejoin="round" stroke-opacity="1.0" stroke-width="3.0" />
            <path d=" M 133.483, 156.920 136.066, 155.784 136.560, 155.567 136.047, 155.618 133.365, 155.884 " fill="none" stroke="rgb(0, 119, 0)" stroke-linecap="butt" stroke-linejoin="round" stroke-opacity="1.0" stroke-width="3.0" />
            <path d=" M 98.168, 217.495 106.015, 211.297 111.742, 206.773 " fill="none" stroke="rgb(0, 119, 0)" stroke-linecap="butt" stroke-linejoin="round" stroke-opacity="1.0" stroke-width="3.0" />
            <path d=" M 106.080, 158.589 107.247, 168.521 108.414, 178.453 109.581, 188.384 110.748, 198.316 111.742, 206.773 121.698, 205.832 131.653, 204.891 141.609, 203.951 151.564, 203.010 159.843, 202.228 " fill="none" stroke="rgb(0, 119, 0)" stroke-linecap="butt" stroke-linejoin="round" stroke-opacity="1.0" stroke-width="3.0" />
            <path d=" M 145.855, 158.321 136.457, 159.249 " fill="none" stroke="rgb(0, 119, 0)" stroke-linecap="butt" stroke-linejoin="round" stroke-opacity="1.0" stroke-width="3.0" />
            <path d=" M 136.164, 156.655 146.115, 155.669 152.029, 155.083 145.855, 158.321 146.964, 168.259 147.119, 169.647 " fill="none" stroke="rgb(0, 119, 0)" stroke-linecap="butt" stroke-linejoin="round" stroke-opacity="1.0" stroke-width="3.0" />
            <path d=" M 259.024, 71.072 258.566, 66.194 " fill="none" stroke="rgb(0, 119, 0)" stroke-linecap="butt" stroke-linejoin="round" stroke-opacity="1.0" stroke-width="3.0" />
            <path d=" M 260.846, 62.625 258.566, 66.194 263.335, 65.686 " fill="none" stroke="rgb(0, 119, 0)" stroke-linecap="butt" stroke-linejoin="round" stroke-opacity="1.0" stroke-width="3.0" />
            <path d=" M 266.804, 60.917 263.335, 65.686 264.262, 75.643 265.031, 83.896 265.958, 93.853 266.886, 103.810 267.057, 105.647 " fill="none" stroke="rgb(0, 119, 0)" stroke-linecap="butt" stroke-linejoin="round" stroke-opacity="1.0" stroke-width="3.0" />
            <path d=" M 196.064, 205.415 198.900, 197.165 " fill="none" stroke="rgb(0, 119, 0)" stroke-linecap="butt" stroke-linejoin="round" stroke-opacity="1.0" stroke-width="3.0" />
            <path d=" M 195.764, 167.152 196.803, 177.098 197.110, 180.032 198.149, 189.978 198.900, 197.165 208.855, 196.223 218.811, 195.281 222.810, 194.902 232.765, 193.960 241.230, 193.159 " fill="none" stroke="rgb(0, 119, 0)" stroke-linecap="butt" stroke-linejoin="round" stroke-opacity="1.0" stroke-width="3.0" />
            <path d=" M 237.079, 150.866 238.056, 160.818 239.033, 170.770 240.009, 180.722 240.986, 190.675 241.142, 192.257 241.230, 193.159 241.523, 194.734 242.047, 197.549 242.650, 200.786 242.697, 201.038 " fill="none" stroke="rgb(0, 119, 0)" stroke-linecap="butt" stroke-linejoin="round" stroke-opacity="1.0" stroke-width="3.0" />
            <path d=" M 194.357, 169.475 195.764, 167.152 204.054, 166.343 " fill="none" stroke="rgb(0, 119, 0)" stroke-linecap="butt" stroke-linejoin="round" stroke-opacity="1.0" stroke-width="3.0" />
            <path d=" M 191.198, 159.073 191.468, 159.047 193.247, 158.872 203.182, 157.895 204.145, 157.800 204.834, 157.733 214.786, 156.754 218.919, 156.348 220.219, 156.220 228.563, 155.400 238.129, 154.459 " fill="none" stroke="rgb(0, 119, 0)" stroke-linecap="butt" stroke-linejoin="round" stroke-opacity="1.0" stroke-width="3.0" />
            <path d=" M 264.806, 192.535 265.075, 195.379 265.385, 198.651 " fill="none" stroke="rgb(0, 119, 0)" stroke-linecap="butt" stroke-linejoin="round" stroke-opacity="1.0" stroke-width="3.0" />
            <path d=" M 218.488, 151.413 218.616, 152.688 218.906, 155.559 " fill="none" stroke="rgb(0, 119, 0)" stroke-linecap="butt" stroke-linejoin="round" stroke-opacity="1.0" stroke-width="3.0" />
            <path d=" M 224.058, 207.277 234.015, 206.347 243.971, 205.417 253.928, 204.487 263.885, 203.556 267.511, 203.218 269.981, 202.987 " fill="none" stroke="rgb(0, 119, 0)" stroke-linecap="butt" stroke-linejoin="round" stroke-opacity="1.0" stroke-width="3.0" />
        </g>
    </g>
    <g id="fressstylelayer_vlak" inkscape:groupmode="lineset" inkscape:label="fressstylelayer_vlak" xmlns:inkscape="http://www.inkscape.org/namespaces/inkscape">
        <g id="strokes" inkscape:groupmode="layer" inkscape:label="strokes" xmlns:inkscape="http://www.inkscape.org/namespaces/inkscape" />
    </g>
</svg>
