<?xml version='1.0' encoding='ascii'?>
<svg xmlns="http://www.w3.org/2000/svg" xmlns:inkscape="http://www.inkscape.org/namespaces/inkscape" height="297" version="1.1" width="420">
    <g id="fressstylelayer_LineSet" inkscape:groupmode="lineset" inkscape:label="fressstylelayer_LineSet">
        <g id="strokes" inkscape:groupmode="layer" inkscape:label="strokes">
            <path d=" M 209.679, 239.912 208.894, 242.462 214.755, 250.565 220.615, 258.667 226.476, 266.770 232.337, 274.873 233.467, 276.435 239.328, 284.538 241.378, 287.372 247.238, 295.475 248.342, 297.000 256.412, 291.095 264.482, 285.190 272.553, 279.285 280.623, 273.380 288.693, 267.474 296.763, 261.569 302.213, 257.582 296.277, 249.534 290.342, 241.486 284.407, 233.437 279.390, 226.635 " fill="none" stroke="rgb(157, 20, 170)" stroke-linecap="butt" stroke-linejoin="round" stroke-opacity="1.0" stroke-width="3.0" />
            <path d=" M 307.327, 193.999 316.856, 197.030 318.071, 197.416 326.137, 191.504 334.202, 185.593 341.505, 180.239 349.571, 174.328 350.079, 173.955 358.144, 168.043 366.209, 162.131 374.275, 156.220 377.867, 153.587 371.795, 145.641 365.724, 137.695 359.652, 129.749 353.581, 121.803 347.509, 113.857 341.438, 105.911 335.366, 97.966 332.808, 94.617 331.221, 95.784 323.165, 101.708 323.020, 101.815 322.895, 101.907 322.459, 102.228 314.862, 107.815 310.695, 110.879 302.639, 116.804 294.583, 122.728 288.603, 127.126 " fill="none" stroke="rgb(157, 20, 170)" stroke-linecap="butt" stroke-linejoin="round" stroke-opacity="1.0" stroke-width="3.0" />
            <path d=" M 318.071, 197.416 312.615, 190.121 306.626, 182.113 302.101, 176.063 " fill="none" stroke="rgb(157, 20, 170)" stroke-linecap="butt" stroke-linejoin="round" stroke-opacity="1.0" stroke-width="3.0" />
            <path d=" M 209.991, 146.380 206.171, 141.188 203.528, 137.595 200.157, 133.012 198.677, 131.263 198.476, 131.025 198.027, 130.494 197.822, 130.252 194.292, 126.076 186.243, 132.010 179.799, 136.761 176.649, 139.083 168.601, 145.018 165.134, 147.573 161.322, 150.384 153.273, 156.318 145.957, 161.712 141.793, 164.782 133.744, 170.716 125.695, 176.650 124.566, 177.483 127.218, 181.183 129.496, 184.360 135.322, 192.488 141.148, 200.615 146.973, 208.743 152.799, 216.870 158.625, 224.998 161.636, 229.198 162.325, 230.160 168.151, 238.287 173.977, 246.415 175.360, 248.345 183.420, 242.425 190.371, 237.321 198.148, 231.610 201.753, 228.961 " fill="none" stroke="rgb(157, 20, 170)" stroke-linecap="butt" stroke-linejoin="round" stroke-opacity="1.0" stroke-width="3.0" />
            <path d=" M 227.563, 264.622 232.017, 261.358 240.082, 255.446 248.148, 249.534 256.213, 243.623 264.279, 237.711 272.344, 231.799 273.272, 231.119 273.542, 230.921 278.880, 227.008 279.390, 226.635 287.456, 220.723 295.521, 214.811 299.111, 212.179 302.171, 209.937 310.236, 204.025 313.047, 201.965 307.065, 193.951 301.084, 185.938 296.681, 180.040 296.444, 179.722 295.241, 178.110 293.382, 175.620 287.400, 167.606 283.033, 161.756 282.729, 161.348 276.747, 153.335 270.765, 145.321 264.783, 137.307 264.063, 136.342 263.851, 136.059 261.022, 132.268 260.669, 131.796 255.669, 125.098 253.686, 122.441 249.717, 117.124 241.908, 122.875 239.816, 124.416 231.764, 130.345 223.712, 136.275 215.660, 142.205 213.547, 143.761 213.479, 143.811 210.625, 145.913 210.363, 146.106 209.991, 146.380 209.866, 146.472 209.546, 146.708 209.495, 146.745 201.443, 152.675 194.943, 157.462 191.781, 159.790 183.729, 165.720 175.677, 171.650 171.276, 174.891 166.450, 178.445 165.629, 179.050 171.492, 187.151 177.355, 195.251 183.218, 203.352 187.932, 209.866 188.627, 210.825 194.490, 218.925 198.860, 224.963 198.918, 225.044 201.127, 228.096 201.753, 228.961 207.616, 237.062 209.679, 239.912 210.612, 241.201 216.475, 249.302 222.338, 257.403 227.563, 264.622 " fill="none" stroke="rgb(157, 20, 170)" stroke-linecap="butt" stroke-linejoin="round" stroke-opacity="1.0" stroke-width="3.0" />
            <path d=" M 248.237, 95.388 256.287, 89.455 262.700, 84.728 270.750, 78.795 271.273, 78.409 279.323, 72.476 284.801, 68.439 289.471, 59.596 292.734, 53.418 286.670, 45.466 280.606, 37.514 274.543, 29.563 268.479, 21.611 262.415, 13.659 256.351, 5.707 251.999, 0.000 243.959, 5.946 235.918, 11.892 227.878, 17.837 219.837, 23.783 211.797, 29.729 203.756, 35.675 197.609, 40.221 200.123, 49.899 201.911, 56.786 202.853, 58.048 208.832, 66.063 210.612, 68.450 216.592, 76.465 222.571, 84.481 225.896, 88.938 " fill="none" stroke="rgb(157, 20, 170)" stroke-linecap="butt" stroke-linejoin="round" stroke-opacity="1.0" stroke-width="3.0" />
            <path d=" M 198.150, 61.523 196.747, 56.934 190.773, 48.915 184.798, 40.896 178.824, 32.877 172.849, 24.857 166.875, 16.838 160.900, 8.819 157.713, 4.541 149.679, 10.495 141.645, 16.450 139.092, 18.343 " fill="none" stroke="rgb(157, 20, 170)" stroke-linecap="butt" stroke-linejoin="round" stroke-opacity="1.0" stroke-width="3.0" />
            <path d=" M 168.815, 110.108 174.182, 115.238 " fill="none" stroke="rgb(157, 20, 170)" stroke-linecap="butt" stroke-linejoin="round" stroke-opacity="1.0" stroke-width="3.0" />
            <path d=" M 151.367, 136.685 150.926, 136.078 149.186, 133.684 157.233, 127.746 165.279, 121.808 173.325, 115.870 174.182, 115.238 168.268, 107.174 163.469, 100.632 163.890, 100.321 171.933, 94.381 179.977, 88.440 181.746, 87.134 187.686, 95.178 193.626, 103.223 198.176, 109.385 " fill="none" stroke="rgb(157, 20, 170)" stroke-linecap="butt" stroke-linejoin="round" stroke-opacity="1.0" stroke-width="3.0" />
            <path d=" M 163.890, 100.321 163.141, 99.301 160.506, 95.709 157.188, 92.234 " fill="none" stroke="rgb(157, 20, 170)" stroke-linecap="butt" stroke-linejoin="round" stroke-opacity="1.0" stroke-width="3.0" />
            <path d=" M 107.201, 78.538 99.163, 84.488 91.126, 90.438 83.088, 96.387 81.862, 97.295 87.702, 105.413 93.510, 113.486 " fill="none" stroke="rgb(157, 20, 170)" stroke-linecap="butt" stroke-linejoin="round" stroke-opacity="1.0" stroke-width="3.0" />
            <path d=" M 123.589, 143.493 131.635, 137.554 139.680, 131.615 147.725, 125.676 155.771, 119.737 163.816, 113.798 168.815, 110.108 162.902, 102.043 161.682, 100.379 159.048, 96.786 156.230, 92.942 " fill="none" stroke="rgb(157, 20, 170)" stroke-linecap="butt" stroke-linejoin="round" stroke-opacity="1.0" stroke-width="3.0" />
            <path d=" M 115.890, 194.388 107.840, 200.320 100.961, 205.390 91.314, 208.024 81.668, 210.659 80.629, 210.942 74.867, 202.769 69.105, 194.596 63.342, 186.424 57.580, 178.251 51.818, 170.078 46.056, 161.905 40.293, 153.732 39.882, 153.148 47.922, 147.202 55.962, 141.256 64.002, 135.309 72.042, 129.363 80.082, 123.417 88.122, 117.471 93.510, 113.486 96.970, 110.927 101.564, 112.941 107.411, 121.052 113.259, 129.164 119.107, 137.276 123.589, 143.493 133.303, 145.867 134.767, 146.225 135.604, 147.383 136.043, 147.991 " fill="none" stroke="rgb(157, 20, 170)" stroke-linecap="butt" stroke-linejoin="round" stroke-opacity="1.0" stroke-width="3.0" />
            <path d=" M 190.371, 237.321 196.218, 245.433 202.066, 253.545 207.913, 261.658 213.760, 269.770 219.607, 277.883 225.454, 285.995 231.604, 294.528 239.673, 288.620 241.378, 287.372 " fill="none" stroke="rgb(157, 20, 170)" stroke-linecap="butt" stroke-linejoin="round" stroke-opacity="1.0" stroke-width="3.0" />
            <path d=" M 296.681, 180.040 296.827, 179.933 302.101, 176.063 310.163, 170.146 317.116, 165.043 311.106, 157.051 305.096, 149.058 303.396, 146.797 303.090, 146.390 297.080, 138.398 291.070, 130.406 288.624, 127.153 288.603, 127.126 282.593, 119.133 280.268, 116.042 272.214, 121.968 269.592, 123.897 " fill="none" stroke="rgb(157, 20, 170)" stroke-linecap="butt" stroke-linejoin="round" stroke-opacity="1.0" stroke-width="3.0" />
            <path d=" M 210.363, 146.106 206.543, 140.914 203.900, 137.321 197.973, 129.266 192.047, 121.212 188.563, 116.476 196.610, 110.540 197.394, 109.962 198.176, 109.385 206.224, 103.449 206.352, 103.355 208.536, 101.743 216.584, 95.807 224.631, 89.871 225.896, 88.938 231.133, 85.075 237.174, 80.619 243.169, 88.622 243.815, 89.485 248.237, 95.388 252.104, 100.550 255.292, 104.806 261.287, 112.810 263.235, 115.411 265.223, 118.065 269.592, 123.897 270.589, 125.228 273.426, 129.015 271.530, 130.849 264.063, 136.342 " fill="none" stroke="rgb(157, 20, 170)" stroke-linecap="butt" stroke-linejoin="round" stroke-opacity="1.0" stroke-width="3.0" />
            <path d=" M 179.799, 136.761 176.380, 132.089 168.138, 126.425 166.654, 125.405 158.607, 131.342 155.170, 133.879 151.367, 136.685 143.320, 142.622 136.043, 147.991 127.964, 153.952 119.917, 159.889 111.870, 165.827 103.824, 171.764 101.157, 173.731 106.964, 181.872 111.477, 188.200 115.890, 194.388 121.696, 202.529 127.503, 210.671 133.309, 218.812 139.116, 226.954 144.922, 235.095 148.599, 240.251 156.656, 234.327 162.325, 230.160 " fill="none" stroke="rgb(157, 20, 170)" stroke-linecap="butt" stroke-linejoin="round" stroke-opacity="1.0" stroke-width="3.0" />
            <path d=" M 166.654, 125.405 172.554, 133.479 176.649, 139.083 " fill="none" stroke="rgb(157, 20, 170)" stroke-linecap="butt" stroke-linejoin="round" stroke-opacity="1.0" stroke-width="3.0" />
            <path d=" M 122.757, 99.957 131.166, 105.369 135.572, 108.206 143.615, 102.263 147.843, 99.139 148.746, 98.472 156.230, 92.942 157.188, 92.234 165.230, 86.291 173.273, 80.349 179.314, 75.885 176.931, 71.579 172.347, 63.291 166.400, 55.252 160.452, 47.213 154.504, 39.174 152.296, 36.189 146.348, 28.150 140.400, 20.111 139.092, 18.343 136.491, 14.827 128.457, 20.782 120.424, 26.737 112.391, 32.693 104.358, 38.648 96.325, 44.604 88.291, 50.559 87.374, 51.240 93.250, 59.331 99.127, 67.422 105.003, 75.513 107.201, 78.538 113.077, 86.629 117.554, 92.793 122.757, 99.957 " fill="none" stroke="rgb(157, 20, 170)" stroke-linecap="butt" stroke-linejoin="round" stroke-opacity="1.0" stroke-width="3.0" />
            <path d=" M 172.347, 63.291 164.306, 69.237 156.266, 75.182 148.225, 81.127 140.184, 87.072 132.143, 93.017 124.102, 98.962 122.757, 99.957 " fill="none" stroke="rgb(157, 20, 170)" stroke-linecap="butt" stroke-linejoin="round" stroke-opacity="1.0" stroke-width="3.0" />
            <path d=" M 323.020, 101.815 316.962, 93.859 310.904, 85.903 308.459, 82.692 308.178, 82.323 300.125, 88.252 292.072, 94.180 284.019, 100.109 280.882, 102.419 276.745, 105.465 268.692, 111.394 263.235, 115.411 " fill="none" stroke="rgb(157, 20, 170)" stroke-linecap="butt" stroke-linejoin="round" stroke-opacity="1.0" stroke-width="3.0" />
            <path d=" M 331.221, 95.784 325.152, 87.836 319.083, 79.888 315.315, 74.954 307.262, 80.883 299.209, 86.812 291.157, 92.741 283.104, 98.670 279.858, 101.060 276.745, 105.465 " fill="none" stroke="rgb(157, 20, 170)" stroke-linecap="butt" stroke-linejoin="round" stroke-opacity="1.0" stroke-width="3.0" />
            <path d=" M 255.292, 104.806 263.343, 98.875 269.782, 94.132 274.318, 85.220 275.163, 83.559 271.273, 78.409 " fill="none" stroke="rgb(157, 20, 170)" stroke-linecap="butt" stroke-linejoin="round" stroke-opacity="1.0" stroke-width="3.0" />
            <path d=" M 275.163, 83.559 267.113, 89.491 259.062, 95.423 252.104, 100.550 " fill="none" stroke="rgb(157, 20, 170)" stroke-linecap="butt" stroke-linejoin="round" stroke-opacity="1.0" stroke-width="3.0" />
            <path d=" M 202.853, 58.048 198.150, 61.523 195.401, 63.554 187.359, 69.497 185.599, 70.797 189.699, 79.686 191.147, 82.825 197.098, 90.861 203.050, 98.897 206.352, 103.355 " fill="none" stroke="rgb(157, 20, 170)" stroke-linecap="butt" stroke-linejoin="round" stroke-opacity="1.0" stroke-width="3.0" />
            <path d=" M 299.111, 212.179 300.680, 214.291 309.099, 219.687 309.713, 220.080 317.780, 214.171 325.847, 208.261 333.914, 202.351 341.981, 196.442 350.048, 190.532 358.137, 184.607 352.104, 176.632 350.079, 173.955 " fill="none" stroke="rgb(157, 20, 170)" stroke-linecap="butt" stroke-linejoin="round" stroke-opacity="1.0" stroke-width="3.0" />
            <path d=" M 309.713, 220.080 303.746, 212.055 302.171, 209.937 " fill="none" stroke="rgb(157, 20, 170)" stroke-linecap="butt" stroke-linejoin="round" stroke-opacity="1.0" stroke-width="3.0" />
            <path d=" M 96.970, 110.927 99.513, 114.457 105.358, 122.571 111.203, 130.685 117.048, 138.799 122.893, 146.913 127.964, 153.952 " fill="none" stroke="rgb(157, 20, 170)" stroke-linecap="butt" stroke-linejoin="round" stroke-opacity="1.0" stroke-width="3.0" />
            <path d=" M 194.292, 126.076 200.217, 134.132 206.142, 142.187 209.495, 146.745 " fill="none" stroke="rgb(157, 20, 170)" stroke-linecap="butt" stroke-linejoin="round" stroke-opacity="1.0" stroke-width="3.0" />
            <path d=" M 111.477, 188.200 103.428, 194.134 95.379, 200.068 87.330, 206.002 80.629, 210.942 " fill="none" stroke="rgb(157, 20, 170)" stroke-linecap="butt" stroke-linejoin="round" stroke-opacity="1.0" stroke-width="3.0" />
            <path d=" M 135.604, 147.383 143.651, 141.446 150.926, 136.078 " fill="none" stroke="rgb(157, 20, 170)" stroke-linecap="butt" stroke-linejoin="round" stroke-opacity="1.0" stroke-width="3.0" />
            <path d=" M 176.931, 71.579 184.973, 65.635 193.016, 59.692 196.747, 56.934 " fill="none" stroke="rgb(157, 20, 170)" stroke-linecap="butt" stroke-linejoin="round" stroke-opacity="1.0" stroke-width="3.0" />
            <path d=" M 163.141, 99.301 171.185, 93.360 179.229, 87.419 187.273, 81.478 189.699, 79.686 " fill="none" stroke="rgb(157, 20, 170)" stroke-linecap="butt" stroke-linejoin="round" stroke-opacity="1.0" stroke-width="3.0" />
            <path d=" M 203.900, 137.321 203.528, 137.595 " fill="none" stroke="rgb(157, 20, 170)" stroke-linecap="butt" stroke-linejoin="round" stroke-opacity="1.0" stroke-width="3.0" />
            <path d=" M 210.612, 241.201 208.894, 242.462 " fill="none" stroke="rgb(157, 20, 170)" stroke-linecap="butt" stroke-linejoin="round" stroke-opacity="1.0" stroke-width="3.0" />
            <path d=" M 206.171, 141.188 206.543, 140.914 " fill="none" stroke="rgb(157, 20, 170)" stroke-linecap="butt" stroke-linejoin="round" stroke-opacity="1.0" stroke-width="3.0" />
            <path d=" M 208.536, 101.743 202.582, 93.709 196.627, 85.675 191.307, 78.498 185.599, 70.797 " fill="none" stroke="rgb(157, 20, 170)" stroke-linecap="butt" stroke-linejoin="round" stroke-opacity="1.0" stroke-width="3.0" />
            <path d=" M 231.133, 85.075 225.146, 77.065 219.160, 69.055 213.173, 61.045 208.058, 54.202 202.072, 46.192 197.609, 40.221 " fill="none" stroke="rgb(157, 20, 170)" stroke-linecap="butt" stroke-linejoin="round" stroke-opacity="1.0" stroke-width="3.0" />
            <path d=" M 263.851, 136.059 271.318, 130.566 273.426, 129.015 " fill="none" stroke="rgb(157, 20, 170)" stroke-linecap="butt" stroke-linejoin="round" stroke-opacity="1.0" stroke-width="3.0" />
            <path d=" M 280.882, 102.419 279.858, 101.060 " fill="none" stroke="rgb(157, 20, 170)" stroke-linecap="butt" stroke-linejoin="round" stroke-opacity="1.0" stroke-width="3.0" />
            <path d=" M 243.815, 89.485 251.864, 83.550 259.913, 77.616 266.825, 72.520 274.874, 66.586 282.922, 60.652 290.971, 54.717 292.734, 53.418 " fill="none" stroke="rgb(157, 20, 170)" stroke-linecap="butt" stroke-linejoin="round" stroke-opacity="1.0" stroke-width="3.0" />
            <path d=" M 296.827, 179.933 302.809, 187.946 307.327, 193.999 " fill="none" stroke="rgb(157, 20, 170)" stroke-linecap="butt" stroke-linejoin="round" stroke-opacity="1.0" stroke-width="3.0" />
        </g>
    </g>
    <g id="fressstylelayer_hidden lines" inkscape:groupmode="lineset" inkscape:label="fressstylelayer_hidden lines">
        <g id="strokes" inkscape:groupmode="layer" inkscape:label="strokes">
            <path d=" M 248.342, 297.000 247.011, 287.089 246.542, 283.592 246.180, 280.895 " fill="none" stroke="rgb(0, 119, 0)" stroke-linecap="butt" stroke-linejoin="round" stroke-opacity="1.0" stroke-width="3.0" />
            <path d=" M 211.704, 233.337 214.528, 237.233 220.397, 245.330 226.267, 253.426 228.698, 256.780 232.017, 261.358 237.886, 269.454 243.755, 277.551 246.180, 280.895 254.248, 274.987 262.317, 269.079 270.385, 263.172 278.454, 257.264 286.522, 251.357 287.637, 250.541 293.218, 246.454 " fill="none" stroke="rgb(0, 119, 0)" stroke-linecap="butt" stroke-linejoin="round" stroke-opacity="1.0" stroke-width="3.0" />
            <path d=" M 258.317, 199.118 258.477, 199.336 264.411, 207.384 270.346, 215.433 275.521, 222.451 278.880, 227.008 284.815, 235.057 290.750, 243.105 293.218, 246.454 299.504, 254.231 302.213, 257.582 " fill="none" stroke="rgb(0, 119, 0)" stroke-linecap="butt" stroke-linejoin="round" stroke-opacity="1.0" stroke-width="3.0" />
            <path d=" M 279.390, 226.635 276.030, 222.078 275.521, 222.451 270.187, 226.362 269.917, 226.560 261.852, 232.473 253.787, 238.385 245.722, 244.298 237.658, 250.211 229.593, 256.123 228.698, 256.780 227.845, 257.405 221.977, 249.308 216.109, 241.210 214.196, 238.571 214.528, 237.233 216.239, 230.343 224.300, 224.425 232.361, 218.507 240.422, 212.590 248.483, 206.672 252.898, 203.431 253.167, 203.234 258.477, 199.336 258.501, 199.318 258.317, 199.118 253.007, 203.016 252.738, 203.214 244.677, 209.132 236.616, 215.049 228.555, 220.967 220.493, 226.885 216.080, 230.124 211.704, 233.337 209.679, 239.912 " fill="none" stroke="rgb(0, 119, 0)" stroke-linecap="butt" stroke-linejoin="round" stroke-opacity="1.0" stroke-width="3.0" />
            <path d=" M 270.652, 215.798 276.030, 222.078 " fill="none" stroke="rgb(0, 119, 0)" stroke-linecap="butt" stroke-linejoin="round" stroke-opacity="1.0" stroke-width="3.0" />
            <path d=" M 258.501, 199.318 264.435, 207.367 270.370, 215.415 270.652, 215.798 278.716, 209.884 286.780, 203.970 290.816, 201.010 297.728, 195.941 " fill="none" stroke="rgb(0, 119, 0)" stroke-linecap="butt" stroke-linejoin="round" stroke-opacity="1.0" stroke-width="3.0" />
            <path d=" M 214.196, 238.571 210.612, 241.201 " fill="none" stroke="rgb(0, 119, 0)" stroke-linecap="butt" stroke-linejoin="round" stroke-opacity="1.0" stroke-width="3.0" />
            <path d=" M 344.577, 166.683 342.688, 166.735 " fill="none" stroke="rgb(0, 119, 0)" stroke-linecap="butt" stroke-linejoin="round" stroke-opacity="1.0" stroke-width="3.0" />
            <path d=" M 330.837, 151.065 336.869, 159.041 342.688, 166.735 350.752, 160.822 357.553, 155.834 " fill="none" stroke="rgb(0, 119, 0)" stroke-linecap="butt" stroke-linejoin="round" stroke-opacity="1.0" stroke-width="3.0" />
            <path d=" M 350.079, 173.955 344.577, 166.683 336.513, 172.597 336.016, 172.961 327.952, 178.875 319.887, 184.788 312.615, 190.121 307.327, 193.999 " fill="none" stroke="rgb(0, 119, 0)" stroke-linecap="butt" stroke-linejoin="round" stroke-opacity="1.0" stroke-width="3.0" />
            <path d=" M 329.080, 118.382 335.132, 126.342 341.184, 134.303 347.236, 142.263 353.288, 150.224 357.553, 155.834 367.493, 154.734 377.432, 153.635 377.867, 153.587 " fill="none" stroke="rgb(0, 119, 0)" stroke-linecap="butt" stroke-linejoin="round" stroke-opacity="1.0" stroke-width="3.0" />
            <path d=" M 327.857, 119.280 329.080, 118.382 335.066, 115.234 " fill="none" stroke="rgb(0, 119, 0)" stroke-linecap="butt" stroke-linejoin="round" stroke-opacity="1.0" stroke-width="3.0" />
            <path d=" M 276.745, 105.465 275.626, 107.047 276.579, 108.313 279.747, 104.013 280.902, 102.446 288.955, 96.517 297.008, 90.588 305.061, 84.659 308.074, 82.441 308.355, 82.809 314.412, 90.766 320.470, 98.722 322.895, 101.907 322.916, 101.934 322.916, 101.935 324.210, 100.983 330.270, 108.938 334.320, 114.256 335.066, 115.234 342.118, 110.052 336.049, 102.105 331.225, 95.789 331.221, 95.784 " fill="none" stroke="rgb(0, 119, 0)" stroke-linecap="butt" stroke-linejoin="round" stroke-opacity="1.0" stroke-width="3.0" />
            <path d=" M 324.210, 100.983 331.225, 95.789 332.808, 94.617 " fill="none" stroke="rgb(0, 119, 0)" stroke-linecap="butt" stroke-linejoin="round" stroke-opacity="1.0" stroke-width="3.0" />
            <path d=" M 322.916, 101.935 323.041, 101.843 " fill="none" stroke="rgb(0, 119, 0)" stroke-linecap="butt" stroke-linejoin="round" stroke-opacity="1.0" stroke-width="3.0" />
            <path d=" M 288.603, 127.126 281.876, 132.073 273.820, 137.998 273.698, 138.087 270.163, 140.730 273.719, 138.115 281.775, 132.190 281.896, 132.101 288.624, 127.153 296.680, 121.229 304.736, 115.304 310.716, 110.907 314.883, 107.842 322.479, 102.255 322.916, 101.934 323.041, 101.843 323.020, 101.815 " fill="none" stroke="rgb(0, 119, 0)" stroke-linecap="butt" stroke-linejoin="round" stroke-opacity="1.0" stroke-width="3.0" />
            <path d=" M 298.281, 178.373 295.386, 178.003 295.241, 178.110 292.500, 180.122 291.105, 181.146 291.005, 181.219 291.185, 181.253 293.702, 181.734 296.444, 179.722 296.589, 179.615 298.281, 178.373 " fill="none" stroke="rgb(0, 119, 0)" stroke-linecap="butt" stroke-linejoin="round" stroke-opacity="1.0" stroke-width="3.0" />
            <path d=" M 295.386, 178.003 296.589, 179.615 296.827, 179.933 " fill="none" stroke="rgb(0, 119, 0)" stroke-linecap="butt" stroke-linejoin="round" stroke-opacity="1.0" stroke-width="3.0" />
            <path d=" M 270.163, 140.730 276.147, 148.741 282.132, 156.753 284.560, 160.003 284.864, 160.411 290.848, 168.422 296.833, 176.434 298.281, 178.373 " fill="none" stroke="rgb(0, 119, 0)" stroke-linecap="butt" stroke-linejoin="round" stroke-opacity="1.0" stroke-width="3.0" />
            <path d=" M 175.360, 248.345 181.160, 240.198 184.306, 235.777 " fill="none" stroke="rgb(0, 119, 0)" stroke-linecap="butt" stroke-linejoin="round" stroke-opacity="1.0" stroke-width="3.0" />
            <path d=" M 141.465, 176.267 147.308, 184.383 153.150, 192.499 158.993, 200.614 164.835, 208.730 170.678, 216.846 174.055, 221.537 179.897, 229.653 184.306, 235.777 192.366, 229.857 195.115, 227.838 198.918, 225.044 199.047, 224.949 206.588, 219.410 " fill="none" stroke="rgb(0, 119, 0)" stroke-linecap="butt" stroke-linejoin="round" stroke-opacity="1.0" stroke-width="3.0" />
            <path d=" M 176.213, 177.559 182.086, 185.652 187.960, 193.745 190.094, 196.685 195.968, 204.778 196.275, 205.202 202.149, 213.295 206.529, 219.329 206.588, 219.410 202.133, 228.363 201.883, 228.866 " fill="none" stroke="rgb(0, 119, 0)" stroke-linecap="butt" stroke-linejoin="round" stroke-opacity="1.0" stroke-width="3.0" />
            <path d=" M 200.157, 133.012 200.032, 133.104 199.977, 133.145 191.927, 139.077 185.148, 144.074 177.098, 150.006 169.048, 155.939 167.400, 157.153 166.645, 157.710 158.595, 163.643 156.729, 165.018 148.679, 170.951 141.465, 176.267 140.370, 176.346 133.067, 176.871 124.566, 177.483 " fill="none" stroke="rgb(0, 119, 0)" stroke-linecap="butt" stroke-linejoin="round" stroke-opacity="1.0" stroke-width="3.0" />
            <path d=" M 201.753, 228.961 201.883, 228.866 201.257, 228.001 199.047, 224.949 198.989, 224.868 193.126, 216.767 188.756, 210.730 188.062, 209.771 182.198, 201.670 176.335, 193.569 170.472, 185.468 165.808, 179.024 166.500, 178.515 171.326, 174.961 179.378, 169.031 187.430, 163.101 191.832, 159.859 194.994, 157.531 203.046, 151.601 209.546, 146.814 209.902, 147.192 212.130, 149.550 213.002, 150.472 209.991, 146.380 " fill="none" stroke="rgb(0, 119, 0)" stroke-linecap="butt" stroke-linejoin="round" stroke-opacity="1.0" stroke-width="3.0" />
            <path d=" M 213.002, 150.472 212.877, 150.565 204.824, 156.494 197.942, 161.560 189.889, 167.489 181.836, 173.418 176.213, 177.559 177.755, 177.342 " fill="none" stroke="rgb(0, 119, 0)" stroke-linecap="butt" stroke-linejoin="round" stroke-opacity="1.0" stroke-width="3.0" />
            <path d=" M 230.305, 166.511 230.374, 166.746 " fill="none" stroke="rgb(0, 119, 0)" stroke-linecap="butt" stroke-linejoin="round" stroke-opacity="1.0" stroke-width="3.0" />
            <path d=" M 230.374, 166.746 237.006, 161.868 237.276, 161.669 245.332, 155.744 253.387, 149.819 256.828, 147.288 258.792, 145.559 253.189, 138.032 252.919, 137.669 246.948, 129.647 245.386, 127.549 245.225, 127.333 243.184, 124.590 241.908, 122.875 237.961, 117.573 237.749, 117.288 229.697, 123.219 224.258, 127.226 224.111, 127.334 216.060, 133.265 215.202, 133.897 215.112, 133.964 209.419, 138.158 209.711, 138.581 210.969, 140.403 213.479, 143.811 214.746, 145.530 216.772, 148.281 216.932, 148.498 222.863, 156.550 228.794, 164.601 230.374, 166.746 " fill="none" stroke="rgb(0, 119, 0)" stroke-linecap="butt" stroke-linejoin="round" stroke-opacity="1.0" stroke-width="3.0" />
            <path d=" M 258.792, 145.559 250.736, 151.484 242.680, 157.409 237.139, 161.484 236.869, 161.683 230.305, 166.511 224.374, 158.460 218.443, 150.408 214.813, 145.481 213.547, 143.761 209.724, 138.571 209.419, 138.158 " fill="none" stroke="rgb(0, 119, 0)" stroke-linecap="butt" stroke-linejoin="round" stroke-opacity="1.0" stroke-width="3.0" />
            <path d=" M 256.828, 147.288 250.860, 139.264 244.892, 131.240 241.092, 126.130 239.816, 124.416 237.288, 121.017 " fill="none" stroke="rgb(0, 119, 0)" stroke-linecap="butt" stroke-linejoin="round" stroke-opacity="1.0" stroke-width="3.0" />
            <path d=" M 210.969, 140.403 219.021, 134.472 227.072, 128.542 235.124, 122.611 237.288, 121.017 237.689, 117.773 237.749, 117.288 " fill="none" stroke="rgb(0, 119, 0)" stroke-linecap="butt" stroke-linejoin="round" stroke-opacity="1.0" stroke-width="3.0" />
            <path d=" M 227.563, 264.622 227.845, 257.405 " fill="none" stroke="rgb(0, 119, 0)" stroke-linecap="butt" stroke-linejoin="round" stroke-opacity="1.0" stroke-width="3.0" />
            <path d=" M 287.304, 181.941 293.276, 189.962 297.728, 195.941 307.034, 199.600 313.047, 201.965 " fill="none" stroke="rgb(0, 119, 0)" stroke-linecap="butt" stroke-linejoin="round" stroke-opacity="1.0" stroke-width="3.0" />
            <path d=" M 210.363, 146.106 211.629, 147.826 211.890, 147.633 214.746, 145.530 214.813, 145.481 222.866, 139.551 230.918, 133.622 238.971, 127.692 241.092, 126.130 243.184, 124.590 248.464, 120.701 251.153, 124.306 253.135, 126.964 258.131, 133.663 258.484, 134.136 261.311, 137.927 261.157, 138.091 259.960, 139.360 265.936, 147.378 271.913, 155.396 277.889, 163.414 278.606, 164.377 278.910, 164.784 284.886, 172.802 289.248, 178.654 291.105, 181.146 291.185, 181.253 292.544, 183.076 296.681, 180.040 " fill="none" stroke="rgb(0, 119, 0)" stroke-linecap="butt" stroke-linejoin="round" stroke-opacity="1.0" stroke-width="3.0" />
            <path d=" M 264.569, 198.629 272.631, 192.711 280.411, 187.001 287.304, 181.941 292.544, 183.076 " fill="none" stroke="rgb(0, 119, 0)" stroke-linecap="butt" stroke-linejoin="round" stroke-opacity="1.0" stroke-width="3.0" />
            <path d=" M 248.464, 120.701 249.717, 117.124 " fill="none" stroke="rgb(0, 119, 0)" stroke-linecap="butt" stroke-linejoin="round" stroke-opacity="1.0" stroke-width="3.0" />
            <path d=" M 213.915, 150.385 216.772, 148.281 224.825, 142.352 232.878, 136.423 240.931, 130.495 245.225, 127.333 246.460, 126.423 " fill="none" stroke="rgb(0, 119, 0)" stroke-linecap="butt" stroke-linejoin="round" stroke-opacity="1.0" stroke-width="3.0" />
            <path d=" M 254.074, 136.648 248.767, 129.520 246.460, 126.423 246.302, 126.874 " fill="none" stroke="rgb(0, 119, 0)" stroke-linecap="butt" stroke-linejoin="round" stroke-opacity="1.0" stroke-width="3.0" />
            <path d=" M 253.837, 136.994 248.584, 129.939 246.302, 126.874 245.386, 127.549 237.333, 133.478 229.281, 139.407 221.228, 145.336 216.932, 148.498 213.315, 151.161 205.262, 157.090 198.379, 162.158 190.326, 168.087 182.273, 174.015 177.755, 177.342 183.631, 185.434 189.506, 193.526 191.206, 195.867 197.082, 203.959 197.389, 204.383 203.265, 212.474 207.646, 218.509 213.522, 226.601 216.080, 230.124 216.239, 230.343 " fill="none" stroke="rgb(0, 119, 0)" stroke-linecap="butt" stroke-linejoin="round" stroke-opacity="1.0" stroke-width="3.0" />
            <path d=" M 165.808, 179.024 165.629, 179.050 " fill="none" stroke="rgb(0, 119, 0)" stroke-linecap="butt" stroke-linejoin="round" stroke-opacity="1.0" stroke-width="3.0" />
            <path d=" M 211.629, 147.826 213.915, 150.385 211.890, 147.633 210.625, 145.913 206.805, 140.722 200.878, 132.667 194.951, 124.613 193.511, 122.655 " fill="none" stroke="rgb(0, 119, 0)" stroke-linecap="butt" stroke-linejoin="round" stroke-opacity="1.0" stroke-width="3.0" />
            <path d=" M 264.762, 128.784 260.669, 131.796 258.131, 133.663 254.074, 136.648 253.837, 136.994 253.418, 137.302 252.919, 137.669 244.864, 143.596 236.810, 149.522 231.300, 153.577 " fill="none" stroke="rgb(0, 119, 0)" stroke-linecap="butt" stroke-linejoin="round" stroke-opacity="1.0" stroke-width="3.0" />
            <path d=" M 264.569, 198.629 263.679, 197.423 257.739, 189.379 251.798, 181.334 245.858, 173.290 239.917, 165.246 237.276, 161.669 237.139, 161.484 231.568, 153.941 231.300, 153.577 231.299, 154.139 236.869, 161.683 237.006, 161.868 242.946, 169.912 248.886, 177.957 254.826, 186.002 260.766, 194.046 263.407, 197.623 264.569, 198.629 " fill="none" stroke="rgb(0, 119, 0)" stroke-linecap="butt" stroke-linejoin="round" stroke-opacity="1.0" stroke-width="3.0" />
            <path d=" M 284.801, 68.439 278.755, 60.474 272.708, 52.509 266.662, 44.544 260.615, 36.579 254.569, 28.614 249.345, 21.734 " fill="none" stroke="rgb(0, 119, 0)" stroke-linecap="butt" stroke-linejoin="round" stroke-opacity="1.0" stroke-width="3.0" />
            <path d=" M 201.911, 56.786 209.954, 50.843 217.996, 44.900 226.039, 38.957 234.081, 33.014 242.124, 27.070 249.345, 21.734 250.557, 11.808 251.769, 1.881 251.999, 0.000 " fill="none" stroke="rgb(0, 119, 0)" stroke-linecap="butt" stroke-linejoin="round" stroke-opacity="1.0" stroke-width="3.0" />
            <path d=" M 231.652, 85.770 231.133, 85.075 " fill="none" stroke="rgb(0, 119, 0)" stroke-linecap="butt" stroke-linejoin="round" stroke-opacity="1.0" stroke-width="3.0" />
            <path d=" M 236.926, 103.724 237.083, 101.891 " fill="none" stroke="rgb(0, 119, 0)" stroke-linecap="butt" stroke-linejoin="round" stroke-opacity="1.0" stroke-width="3.0" />
            <path d=" M 231.612, 94.560 231.652, 85.770 237.099, 81.752 243.093, 89.757 243.219, 89.924 241.967, 98.292 237.083, 101.891 231.612, 94.560 " fill="none" stroke="rgb(0, 119, 0)" stroke-linecap="butt" stroke-linejoin="round" stroke-opacity="1.0" stroke-width="3.0" />
            <path d=" M 243.219, 89.924 243.815, 89.485 " fill="none" stroke="rgb(0, 119, 0)" stroke-linecap="butt" stroke-linejoin="round" stroke-opacity="1.0" stroke-width="3.0" />
            <path d=" M 225.896, 88.938 230.630, 95.284 236.609, 103.300 236.926, 103.724 242.795, 99.399 248.237, 95.388 " fill="none" stroke="rgb(0, 119, 0)" stroke-linecap="butt" stroke-linejoin="round" stroke-opacity="1.0" stroke-width="3.0" />
            <path d=" M 189.699, 79.686 191.307, 78.498 199.351, 72.557 201.125, 71.247 198.200, 61.684 198.150, 61.523 " fill="none" stroke="rgb(0, 119, 0)" stroke-linecap="butt" stroke-linejoin="round" stroke-opacity="1.0" stroke-width="3.0" />
            <path d=" M 201.125, 71.247 195.401, 63.554 189.433, 55.531 183.464, 47.507 177.495, 39.484 171.527, 31.460 166.964, 25.327 " fill="none" stroke="rgb(0, 119, 0)" stroke-linecap="butt" stroke-linejoin="round" stroke-opacity="1.0" stroke-width="3.0" />
            <path d=" M 120.451, 59.769 128.488, 53.818 136.525, 47.867 144.561, 41.916 152.296, 36.189 160.332, 30.238 166.964, 25.327 162.898, 16.191 158.832, 7.055 157.713, 4.541 " fill="none" stroke="rgb(0, 119, 0)" stroke-linecap="butt" stroke-linejoin="round" stroke-opacity="1.0" stroke-width="3.0" />
            <path d=" M 154.188, 105.915 151.559, 102.318 148.746, 98.472 142.844, 90.399 136.942, 82.326 131.041, 74.253 127.885, 69.937 124.702, 65.583 120.451, 59.769 113.355, 52.723 106.259, 45.677 104.530, 43.960 " fill="none" stroke="rgb(0, 119, 0)" stroke-linecap="butt" stroke-linejoin="round" stroke-opacity="1.0" stroke-width="3.0" />
            <path d=" M 139.092, 18.343 138.782, 18.573 130.748, 24.527 122.714, 30.482 114.680, 36.437 106.646, 42.391 104.530, 43.960 110.428, 52.036 114.464, 57.562 120.362, 65.638 121.859, 67.688 125.039, 72.043 127.885, 69.937 135.327, 64.429 135.771, 64.101 132.138, 60.079 124.702, 65.583 121.859, 67.688 113.822, 73.638 111.613, 75.272 107.201, 78.538 " fill="none" stroke="rgb(0, 119, 0)" stroke-linecap="butt" stroke-linejoin="round" stroke-opacity="1.0" stroke-width="3.0" />
            <path d=" M 160.506, 95.709 159.048, 96.786 151.559, 102.318 150.655, 102.986 154.188, 105.915 161.682, 100.379 163.141, 99.301 " fill="none" stroke="rgb(0, 119, 0)" stroke-linecap="butt" stroke-linejoin="round" stroke-opacity="1.0" stroke-width="3.0" />
            <path d=" M 134.205, 80.478 126.847, 73.706 125.039, 72.043 " fill="none" stroke="rgb(0, 119, 0)" stroke-linecap="butt" stroke-linejoin="round" stroke-opacity="1.0" stroke-width="3.0" />
            <path d=" M 150.655, 102.986 147.843, 99.139 141.942, 91.065 136.042, 82.992 134.205, 80.478 126.165, 86.424 118.125, 92.371 117.554, 92.793 109.515, 98.740 101.475, 104.687 99.738, 105.971 " fill="none" stroke="rgb(0, 119, 0)" stroke-linecap="butt" stroke-linejoin="round" stroke-opacity="1.0" stroke-width="3.0" />
            <path d=" M 153.793, 88.679 161.835, 82.736 169.877, 76.792 176.931, 71.579 " fill="none" stroke="rgb(0, 119, 0)" stroke-linecap="butt" stroke-linejoin="round" stroke-opacity="1.0" stroke-width="3.0" />
            <path d=" M 135.771, 64.101 141.684, 72.165 147.597, 80.229 153.510, 88.294 153.793, 88.679 157.188, 92.234 " fill="none" stroke="rgb(0, 119, 0)" stroke-linecap="butt" stroke-linejoin="round" stroke-opacity="1.0" stroke-width="3.0" />
            <path d=" M 163.469, 100.632 166.043, 103.258 163.890, 100.321 " fill="none" stroke="rgb(0, 119, 0)" stroke-linecap="butt" stroke-linejoin="round" stroke-opacity="1.0" stroke-width="3.0" />
            <path d=" M 132.138, 60.079 135.327, 64.429 141.240, 72.494 147.152, 80.559 153.065, 88.624 156.230, 92.942 " fill="none" stroke="rgb(0, 119, 0)" stroke-linecap="butt" stroke-linejoin="round" stroke-opacity="1.0" stroke-width="3.0" />
            <path d=" M 131.696, 150.267 130.860, 149.108 125.009, 140.998 119.158, 132.888 113.307, 124.779 107.456, 116.669 101.605, 108.559 99.738, 105.971 90.742, 101.605 81.862, 97.295 " fill="none" stroke="rgb(0, 119, 0)" stroke-linecap="butt" stroke-linejoin="round" stroke-opacity="1.0" stroke-width="3.0" />
            <path d=" M 134.767, 146.225 130.860, 149.108 129.795, 149.894 131.696, 150.267 135.604, 147.383 " fill="none" stroke="rgb(0, 119, 0)" stroke-linecap="butt" stroke-linejoin="round" stroke-opacity="1.0" stroke-width="3.0" />
            <path d=" M 110.017, 122.470 100.702, 118.833 96.050, 117.017 " fill="none" stroke="rgb(0, 119, 0)" stroke-linecap="butt" stroke-linejoin="round" stroke-opacity="1.0" stroke-width="3.0" />
            <path d=" M 129.795, 149.894 123.945, 141.783 118.096, 133.672 112.247, 125.561 110.017, 122.470 101.975, 128.413 93.933, 134.357 85.891, 140.300 77.849, 146.243 69.806, 152.187 65.490, 155.377 " fill="none" stroke="rgb(0, 119, 0)" stroke-linecap="butt" stroke-linejoin="round" stroke-opacity="1.0" stroke-width="3.0" />
            <path d=" M 93.510, 113.486 96.050, 117.017 99.513, 114.457 101.564, 112.941 " fill="none" stroke="rgb(0, 119, 0)" stroke-linecap="butt" stroke-linejoin="round" stroke-opacity="1.0" stroke-width="3.0" />
            <path d=" M 213.552, 130.209 205.501, 136.141 203.900, 137.321 " fill="none" stroke="rgb(0, 119, 0)" stroke-linecap="butt" stroke-linejoin="round" stroke-opacity="1.0" stroke-width="3.0" />
            <path d=" M 151.367, 136.685 157.245, 144.774 157.920, 145.703 161.322, 150.384 161.668, 150.861 165.120, 155.611 166.645, 157.710 169.986, 162.308 171.260, 162.464 170.742, 161.751 167.400, 157.153 165.875, 155.055 162.422, 150.304 161.668, 150.861 153.619, 156.795 151.765, 158.162 156.729, 165.018 162.593, 173.118 166.450, 178.445 166.500, 178.515 172.364, 186.615 178.228, 194.715 183.095, 201.436 188.130, 198.130 190.094, 196.685 191.206, 195.867 199.262, 189.942 207.318, 184.017 208.728, 182.980 211.904, 180.644 219.960, 174.719 226.894, 169.619 220.968, 161.564 215.042, 153.509 213.315, 151.161 212.877, 150.565 212.130, 149.550 209.866, 146.472 206.046, 141.280 203.403, 137.687 200.032, 133.104 198.677, 131.263 198.493, 131.013 197.840, 130.239 198.027, 130.494 198.439, 131.053 199.977, 133.145 203.348, 137.727 205.992, 141.321 206.046, 141.280 206.171, 141.188 " fill="none" stroke="rgb(0, 119, 0)" stroke-linecap="butt" stroke-linejoin="round" stroke-opacity="1.0" stroke-width="3.0" />
            <path d=" M 203.607, 138.633 205.992, 141.321 " fill="none" stroke="rgb(0, 119, 0)" stroke-linecap="butt" stroke-linejoin="round" stroke-opacity="1.0" stroke-width="3.0" />
            <path d=" M 171.260, 162.464 179.311, 156.533 187.362, 150.601 189.027, 149.375 197.077, 143.443 203.607, 138.633 209.546, 146.708 209.902, 147.192 215.828, 155.248 221.753, 163.303 226.383, 169.597 " fill="none" stroke="rgb(0, 119, 0)" stroke-linecap="butt" stroke-linejoin="round" stroke-opacity="1.0" stroke-width="3.0" />
            <path d=" M 206.543, 140.914 206.805, 140.722 209.711, 138.581 209.724, 138.571 215.417, 134.377 215.202, 133.897 213.552, 130.209 207.612, 122.164 202.876, 115.750 198.176, 109.385 " fill="none" stroke="rgb(0, 119, 0)" stroke-linecap="butt" stroke-linejoin="round" stroke-opacity="1.0" stroke-width="3.0" />
            <path d=" M 215.417, 134.377 215.112, 133.964 209.173, 125.918 203.234, 117.873 197.394, 109.962 191.455, 101.917 186.923, 95.777 " fill="none" stroke="rgb(0, 119, 0)" stroke-linecap="butt" stroke-linejoin="round" stroke-opacity="1.0" stroke-width="3.0" />
            <path d=" M 148.230, 124.342 156.275, 118.403 164.320, 112.464 172.366, 106.524 180.411, 100.585 186.923, 95.777 181.746, 87.134 " fill="none" stroke="rgb(0, 119, 0)" stroke-linecap="butt" stroke-linejoin="round" stroke-opacity="1.0" stroke-width="3.0" />
            <path d=" M 168.342, 151.981 165.134, 147.573 159.251, 139.487 155.170, 133.879 149.286, 125.793 148.230, 124.342 142.063, 120.965 " fill="none" stroke="rgb(0, 119, 0)" stroke-linecap="butt" stroke-linejoin="round" stroke-opacity="1.0" stroke-width="3.0" />
            <path d=" M 152.308, 135.058 146.428, 126.969 142.063, 120.965 150.108, 115.025 158.152, 109.085 166.043, 103.258 " fill="none" stroke="rgb(0, 119, 0)" stroke-linecap="butt" stroke-linejoin="round" stroke-opacity="1.0" stroke-width="3.0" />
            <path d=" M 197.840, 130.239 197.822, 130.252 189.773, 136.185 183.019, 141.163 174.969, 147.097 168.342, 151.981 162.422, 150.304 " fill="none" stroke="rgb(0, 119, 0)" stroke-linecap="butt" stroke-linejoin="round" stroke-opacity="1.0" stroke-width="3.0" />
            <path d=" M 231.604, 294.528 231.577, 284.528 231.559, 277.833 " fill="none" stroke="rgb(0, 119, 0)" stroke-linecap="butt" stroke-linejoin="round" stroke-opacity="1.0" stroke-width="3.0" />
            <path d=" M 195.257, 227.610 198.148, 231.610 204.006, 239.714 209.864, 247.819 215.722, 255.923 221.580, 264.028 227.438, 272.132 231.559, 277.833 233.467, 276.435 241.534, 270.526 249.601, 264.616 257.668, 258.707 265.735, 252.797 273.803, 246.888 281.268, 241.419 " fill="none" stroke="rgb(0, 119, 0)" stroke-linecap="butt" stroke-linejoin="round" stroke-opacity="1.0" stroke-width="3.0" />
            <path d=" M 241.378, 287.372 246.542, 283.592 254.610, 277.684 262.679, 271.777 270.748, 265.870 278.817, 259.963 286.886, 254.056 289.007, 252.503 287.637, 250.541 281.912, 242.342 281.268, 241.419 275.341, 233.365 273.542, 230.921 270.187, 226.362 264.260, 218.308 258.333, 210.254 253.167, 203.234 253.007, 203.016 247.080, 194.962 244.491, 191.444 236.431, 197.364 228.372, 203.284 220.313, 209.204 212.253, 215.124 207.646, 218.509 206.529, 219.329 198.989, 224.868 198.860, 224.963 195.257, 227.610 195.115, 227.838 189.827, 236.325 189.747, 236.454 190.371, 237.321 " fill="none" stroke="rgb(0, 119, 0)" stroke-linecap="butt" stroke-linejoin="round" stroke-opacity="1.0" stroke-width="3.0" />
            <path d=" M 244.491, 191.444 246.517, 194.760 " fill="none" stroke="rgb(0, 119, 0)" stroke-linecap="butt" stroke-linejoin="round" stroke-opacity="1.0" stroke-width="3.0" />
            <path d=" M 189.747, 236.454 197.807, 230.535 201.127, 228.096 201.257, 228.001 209.316, 222.081 217.376, 216.162 225.436, 210.243 233.496, 204.323 241.555, 198.404 246.517, 194.760 252.444, 202.814 252.738, 203.214 252.898, 203.431 258.825, 211.486 264.751, 219.540 269.917, 226.560 273.272, 231.119 279.198, 239.174 285.125, 247.228 289.007, 252.503 " fill="none" stroke="rgb(0, 119, 0)" stroke-linecap="butt" stroke-linejoin="round" stroke-opacity="1.0" stroke-width="3.0" />
            <path d=" M 317.116, 165.043 307.132, 165.597 307.028, 165.603 " fill="none" stroke="rgb(0, 119, 0)" stroke-linecap="butt" stroke-linejoin="round" stroke-opacity="1.0" stroke-width="3.0" />
            <path d=" M 263.407, 197.623 263.679, 197.423 271.740, 191.506 279.517, 185.797 287.578, 179.880 289.248, 178.654 293.382, 175.620 301.443, 169.702 307.028, 165.603 301.027, 157.603 296.642, 151.758 296.337, 151.351 290.336, 143.352 284.336, 135.352 281.896, 132.101 281.876, 132.073 275.875, 124.074 274.553, 122.312 " fill="none" stroke="rgb(0, 119, 0)" stroke-linecap="butt" stroke-linejoin="round" stroke-opacity="1.0" stroke-width="3.0" />
            <path d=" M 231.299, 154.139 231.568, 153.941 239.623, 148.014 247.677, 142.087 253.189, 138.032 253.688, 137.665 258.484, 134.136 261.022, 132.268 268.483, 126.778 270.589, 125.228 274.553, 122.312 280.268, 116.042 " fill="none" stroke="rgb(0, 119, 0)" stroke-linecap="butt" stroke-linejoin="round" stroke-opacity="1.0" stroke-width="3.0" />
            <path d=" M 241.967, 98.292 242.795, 99.399 248.782, 107.409 249.839, 108.823 255.827, 116.832 257.771, 119.433 263.759, 127.443 264.762, 128.784 267.487, 125.447 " fill="none" stroke="rgb(0, 119, 0)" stroke-linecap="butt" stroke-linejoin="round" stroke-opacity="1.0" stroke-width="3.0" />
            <path d=" M 269.592, 123.897 267.487, 125.447 268.483, 126.778 271.318, 130.566 271.530, 130.849 " fill="none" stroke="rgb(0, 119, 0)" stroke-linecap="butt" stroke-linejoin="round" stroke-opacity="1.0" stroke-width="3.0" />
            <path d=" M 148.599, 240.251 156.210, 233.765 161.147, 229.558 " fill="none" stroke="rgb(0, 119, 0)" stroke-linecap="butt" stroke-linejoin="round" stroke-opacity="1.0" stroke-width="3.0" />
            <path d=" M 126.733, 181.540 129.011, 184.718 134.836, 192.846 140.661, 200.974 146.486, 209.102 152.312, 217.230 158.137, 225.358 161.147, 229.558 161.636, 229.198 169.693, 223.275 177.750, 217.352 185.807, 211.428 187.932, 209.866 188.062, 209.771 196.118, 203.847 204.175, 197.924 212.232, 192.001 217.422, 188.186 " fill="none" stroke="rgb(0, 119, 0)" stroke-linecap="butt" stroke-linejoin="round" stroke-opacity="1.0" stroke-width="3.0" />
            <path d=" M 162.325, 230.160 170.382, 224.237 174.055, 221.537 182.112, 215.614 188.627, 210.825 188.756, 210.730 196.275, 205.202 197.389, 204.383 205.446, 198.459 213.503, 192.536 214.940, 191.481 217.422, 188.186 211.904, 180.644 211.715, 180.386 205.810, 172.315 199.906, 164.244 198.379, 162.158 197.942, 161.560 194.994, 157.531 194.943, 157.462 189.027, 149.375 188.506, 148.663 185.148, 144.074 183.615, 141.979 183.019, 141.163 179.799, 136.761 " fill="none" stroke="rgb(0, 119, 0)" stroke-linecap="butt" stroke-linejoin="round" stroke-opacity="1.0" stroke-width="3.0" />
            <path d=" M 176.380, 132.089 168.332, 138.024 160.284, 143.959 157.920, 145.703 149.872, 151.638 142.569, 157.023 138.409, 160.091 " fill="none" stroke="rgb(0, 119, 0)" stroke-linecap="butt" stroke-linejoin="round" stroke-opacity="1.0" stroke-width="3.0" />
            <path d=" M 131.895, 159.410 138.409, 160.091 141.793, 164.782 144.458, 168.475 136.408, 174.409 133.067, 176.871 127.218, 181.183 126.733, 181.540 119.392, 182.364 113.574, 174.231 112.962, 173.375 121.010, 167.439 129.057, 161.503 131.895, 159.410 " fill="none" stroke="rgb(0, 119, 0)" stroke-linecap="butt" stroke-linejoin="round" stroke-opacity="1.0" stroke-width="3.0" />
            <path d=" M 112.962, 173.375 102.967, 173.676 101.157, 173.731 " fill="none" stroke="rgb(0, 119, 0)" stroke-linecap="butt" stroke-linejoin="round" stroke-opacity="1.0" stroke-width="3.0" />
            <path d=" M 119.392, 182.364 111.477, 188.200 " fill="none" stroke="rgb(0, 119, 0)" stroke-linecap="butt" stroke-linejoin="round" stroke-opacity="1.0" stroke-width="3.0" />
            <path d=" M 150.915, 168.574 144.458, 168.475 " fill="none" stroke="rgb(0, 119, 0)" stroke-linecap="butt" stroke-linejoin="round" stroke-opacity="1.0" stroke-width="3.0" />
            <path d=" M 100.961, 205.390 95.176, 197.233 89.391, 189.076 83.606, 180.920 77.821, 172.763 72.035, 164.606 66.250, 156.450 65.490, 155.377 55.527, 154.510 45.565, 153.643 39.882, 153.148 " fill="none" stroke="rgb(0, 119, 0)" stroke-linecap="butt" stroke-linejoin="round" stroke-opacity="1.0" stroke-width="3.0" />
            <path d=" M 179.314, 75.885 173.368, 67.845 167.423, 59.804 161.477, 51.763 155.532, 43.723 149.586, 35.682 147.611, 33.011 " fill="none" stroke="rgb(0, 119, 0)" stroke-linecap="butt" stroke-linejoin="round" stroke-opacity="1.0" stroke-width="3.0" />
            <path d=" M 104.238, 65.136 112.274, 59.184 114.464, 57.562 122.500, 51.610 130.536, 45.658 138.572, 39.707 146.608, 33.755 147.611, 33.011 142.394, 24.480 138.782, 18.573 136.491, 14.827 " fill="none" stroke="rgb(0, 119, 0)" stroke-linecap="butt" stroke-linejoin="round" stroke-opacity="1.0" stroke-width="3.0" />
            <path d=" M 135.572, 108.206 129.689, 100.119 123.806, 92.033 117.923, 83.946 112.040, 75.860 111.613, 75.272 105.730, 67.186 104.238, 65.136 96.521, 58.777 88.803, 52.417 87.374, 51.240 " fill="none" stroke="rgb(0, 119, 0)" stroke-linecap="butt" stroke-linejoin="round" stroke-opacity="1.0" stroke-width="3.0" />
            <path d=" M 308.178, 82.323 308.074, 82.441 " fill="none" stroke="rgb(0, 119, 0)" stroke-linecap="butt" stroke-linejoin="round" stroke-opacity="1.0" stroke-width="3.0" />
            <path d=" M 301.380, 90.056 297.905, 94.007 " fill="none" stroke="rgb(0, 119, 0)" stroke-linecap="butt" stroke-linejoin="round" stroke-opacity="1.0" stroke-width="3.0" />
            <path d=" M 335.342, 143.395 329.301, 135.425 323.260, 127.456 317.220, 119.487 311.179, 111.518 310.716, 110.907 310.695, 110.879 304.654, 102.910 298.613, 94.941 297.905, 94.007 289.852, 99.936 281.799, 105.864 273.745, 111.792 265.692, 117.720 265.223, 118.065 257.170, 123.993 255.669, 125.098 253.135, 126.964 248.346, 130.489 " fill="none" stroke="rgb(0, 119, 0)" stroke-linecap="butt" stroke-linejoin="round" stroke-opacity="1.0" stroke-width="3.0" />
            <path d=" M 276.579, 108.313 284.632, 102.384 292.685, 96.456 300.739, 90.528 301.380, 90.056 307.426, 98.020 313.473, 105.985 314.862, 107.815 314.883, 107.842 320.929, 115.807 324.786, 120.887 " fill="none" stroke="rgb(0, 119, 0)" stroke-linecap="butt" stroke-linejoin="round" stroke-opacity="1.0" stroke-width="3.0" />
            <path d=" M 263.235, 115.411 257.771, 119.433 253.686, 122.441 251.153, 124.306 250.975, 124.437 248.767, 129.520 248.584, 129.939 248.346, 130.489 253.418, 137.302 253.688, 137.665 259.659, 145.686 265.631, 153.707 271.603, 161.729 275.353, 166.766 275.657, 167.174 278.910, 164.784 280.301, 163.763 283.033, 161.756 284.864, 160.411 288.433, 157.789 296.492, 151.868 296.642, 151.758 303.396, 146.797 311.455, 140.877 311.688, 140.706 313.105, 139.664 311.381, 140.299 303.322, 146.220 303.090, 146.390 296.337, 151.351 288.278, 157.271 288.128, 157.381 284.560, 160.003 282.729, 161.348 279.996, 163.355 278.606, 164.377 275.353, 166.766 268.902, 171.506 274.865, 179.534 279.517, 185.797 280.411, 187.001 286.373, 195.029 290.816, 201.010 296.778, 209.038 299.111, 212.179 " fill="none" stroke="rgb(0, 119, 0)" stroke-linecap="butt" stroke-linejoin="round" stroke-opacity="1.0" stroke-width="3.0" />
            <path d=" M 293.702, 181.734 292.500, 180.122 286.522, 172.105 280.544, 164.089 280.301, 163.763 279.996, 163.355 274.018, 155.339 268.040, 147.322 262.062, 139.306 261.157, 138.091 255.179, 130.075 250.975, 124.437 " fill="none" stroke="rgb(0, 119, 0)" stroke-linecap="butt" stroke-linejoin="round" stroke-opacity="1.0" stroke-width="3.0" />
            <path d=" M 275.657, 167.174 280.331, 166.897 " fill="none" stroke="rgb(0, 119, 0)" stroke-linecap="butt" stroke-linejoin="round" stroke-opacity="1.0" stroke-width="3.0" />
            <path d=" M 273.758, 171.725 280.331, 166.897 286.307, 174.915 291.005, 181.219 " fill="none" stroke="rgb(0, 119, 0)" stroke-linecap="butt" stroke-linejoin="round" stroke-opacity="1.0" stroke-width="3.0" />
            <path d=" M 344.430, 141.088 335.342, 143.395 327.281, 149.312 322.844, 152.570 " fill="none" stroke="rgb(0, 119, 0)" stroke-linecap="butt" stroke-linejoin="round" stroke-opacity="1.0" stroke-width="3.0" />
            <path d=" M 332.402, 115.290 324.786, 120.887 327.857, 119.280 333.908, 127.242 339.958, 135.204 344.430, 141.088 336.369, 147.005 330.837, 151.065 322.844, 152.570 316.820, 144.587 313.105, 139.664 " fill="none" stroke="rgb(0, 119, 0)" stroke-linecap="butt" stroke-linejoin="round" stroke-opacity="1.0" stroke-width="3.0" />
            <path d=" M 226.894, 169.619 226.383, 169.597 218.327, 175.522 211.715, 180.386 203.659, 186.311 195.603, 192.236 187.548, 198.161 183.095, 201.436 " fill="none" stroke="rgb(0, 119, 0)" stroke-linecap="butt" stroke-linejoin="round" stroke-opacity="1.0" stroke-width="3.0" />
            <path d=" M 151.765, 158.162 160.019, 159.371 " fill="none" stroke="rgb(0, 119, 0)" stroke-linecap="butt" stroke-linejoin="round" stroke-opacity="1.0" stroke-width="3.0" />
            <path d=" M 198.493, 131.013 198.476, 131.025 198.439, 131.053 190.389, 136.986 183.615, 141.979 175.566, 147.912 167.516, 153.845 165.875, 155.055 165.120, 155.611 160.019, 159.371 165.890, 167.466 171.276, 174.891 171.326, 174.961 177.197, 183.056 183.068, 191.151 188.130, 198.130 " fill="none" stroke="rgb(0, 119, 0)" stroke-linecap="butt" stroke-linejoin="round" stroke-opacity="1.0" stroke-width="3.0" />
            <path d=" M 342.118, 110.052 334.320, 114.256 332.402, 115.290 326.345, 107.333 322.479, 102.255 322.459, 102.228 316.401, 94.271 310.344, 86.314 307.990, 83.221 " fill="none" stroke="rgb(0, 119, 0)" stroke-linecap="butt" stroke-linejoin="round" stroke-opacity="1.0" stroke-width="3.0" />
            <path d=" M 275.626, 107.047 279.747, 104.013 287.800, 98.084 295.853, 92.156 303.906, 86.227 307.990, 83.221 308.355, 82.809 308.459, 82.692 315.091, 75.207 315.315, 74.954 " fill="none" stroke="rgb(0, 119, 0)" stroke-linecap="butt" stroke-linejoin="round" stroke-opacity="1.0" stroke-width="3.0" />
            <path d=" M 280.902, 102.446 280.882, 102.419 " fill="none" stroke="rgb(0, 119, 0)" stroke-linecap="butt" stroke-linejoin="round" stroke-opacity="1.0" stroke-width="3.0" />
            <path d=" M 237.099, 81.752 237.174, 80.619 " fill="none" stroke="rgb(0, 119, 0)" stroke-linecap="butt" stroke-linejoin="round" stroke-opacity="1.0" stroke-width="3.0" />
            <path d=" M 231.612, 94.560 230.630, 95.284 222.581, 101.219 214.533, 107.154 211.061, 109.714 203.013, 115.649 202.876, 115.750 194.827, 121.685 193.511, 122.655 188.563, 116.476 " fill="none" stroke="rgb(0, 119, 0)" stroke-linecap="butt" stroke-linejoin="round" stroke-opacity="1.0" stroke-width="3.0" />
            <path d=" M 261.311, 137.927 263.851, 136.059 " fill="none" stroke="rgb(0, 119, 0)" stroke-linecap="butt" stroke-linejoin="round" stroke-opacity="1.0" stroke-width="3.0" />
            <path d=" M 223.354, 121.734 224.258, 127.226 224.323, 127.620 " fill="none" stroke="rgb(0, 119, 0)" stroke-linecap="butt" stroke-linejoin="round" stroke-opacity="1.0" stroke-width="3.0" />
            <path d=" M 206.352, 103.355 211.061, 109.714 217.013, 117.750 222.964, 125.786 224.111, 127.334 224.323, 127.620 232.374, 121.689 237.689, 117.773 237.961, 117.573 246.012, 111.642 249.839, 108.823 255.292, 104.806 " fill="none" stroke="rgb(0, 119, 0)" stroke-linecap="butt" stroke-linejoin="round" stroke-opacity="1.0" stroke-width="3.0" />
            <path d=" M 269.782, 94.132 263.766, 86.144 262.700, 84.728 256.685, 76.740 250.669, 68.751 244.654, 60.763 238.638, 52.775 236.208, 49.548 " fill="none" stroke="rgb(0, 119, 0)" stroke-linecap="butt" stroke-linejoin="round" stroke-opacity="1.0" stroke-width="3.0" />
            <path d=" M 191.147, 82.825 199.191, 76.884 207.235, 70.944 210.612, 68.450 218.657, 62.509 226.701, 56.569 234.745, 50.628 236.208, 49.548 236.619, 39.556 236.893, 32.896 " fill="none" stroke="rgb(0, 119, 0)" stroke-linecap="butt" stroke-linejoin="round" stroke-opacity="1.0" stroke-width="3.0" />
            <path d=" M 271.273, 78.409 266.825, 72.520 260.797, 64.541 254.770, 56.562 248.742, 48.582 242.715, 40.603 236.893, 32.896 228.850, 38.839 220.807, 44.781 212.765, 50.724 208.058, 54.202 202.853, 58.048 " fill="none" stroke="rgb(0, 119, 0)" stroke-linecap="butt" stroke-linejoin="round" stroke-opacity="1.0" stroke-width="3.0" />
            <path d=" M 252.104, 100.550 244.053, 106.482 236.002, 112.414 227.952, 118.346 223.354, 121.734 217.399, 113.700 211.444, 105.666 208.536, 101.743 " fill="none" stroke="rgb(0, 119, 0)" stroke-linecap="butt" stroke-linejoin="round" stroke-opacity="1.0" stroke-width="3.0" />
            <path d=" M 300.680, 214.291 308.746, 208.380 316.812, 202.469 324.877, 196.557 332.943, 190.646 341.009, 184.735 343.512, 182.900 " fill="none" stroke="rgb(0, 119, 0)" stroke-linecap="butt" stroke-linejoin="round" stroke-opacity="1.0" stroke-width="3.0" />
            <path d=" M 311.381, 140.299 311.688, 140.706 317.709, 148.689 323.731, 156.673 329.752, 164.657 336.016, 172.961 341.505, 180.239 343.512, 182.900 353.445, 184.059 358.137, 184.607 " fill="none" stroke="rgb(0, 119, 0)" stroke-linecap="butt" stroke-linejoin="round" stroke-opacity="1.0" stroke-width="3.0" />
            <path d=" M 302.171, 209.937 296.204, 201.912 290.237, 193.887 284.270, 185.863 278.304, 177.838 273.758, 171.725 268.902, 171.506 " fill="none" stroke="rgb(0, 119, 0)" stroke-linecap="butt" stroke-linejoin="round" stroke-opacity="1.0" stroke-width="3.0" />
            <path d=" M 115.890, 194.388 123.940, 188.455 129.011, 184.718 129.496, 184.360 137.546, 178.427 140.370, 176.346 148.419, 170.413 150.915, 168.574 145.957, 161.712 142.569, 157.023 136.713, 148.918 136.043, 147.991 " fill="none" stroke="rgb(0, 119, 0)" stroke-linecap="butt" stroke-linejoin="round" stroke-opacity="1.0" stroke-width="3.0" />
            <path d=" M 150.926, 136.078 152.308, 135.058 149.186, 133.684 " fill="none" stroke="rgb(0, 119, 0)" stroke-linecap="butt" stroke-linejoin="round" stroke-opacity="1.0" stroke-width="3.0" />
            <path d=" M 127.964, 153.952 131.895, 159.410 " fill="none" stroke="rgb(0, 119, 0)" stroke-linecap="butt" stroke-linejoin="round" stroke-opacity="1.0" stroke-width="3.0" />
            <path d=" M 209.495, 146.745 209.546, 146.814 " fill="none" stroke="rgb(0, 119, 0)" stroke-linecap="butt" stroke-linejoin="round" stroke-opacity="1.0" stroke-width="3.0" />
            <path d=" M 203.528, 137.595 203.403, 137.687 203.348, 137.727 195.298, 143.659 188.506, 148.663 180.455, 154.595 172.404, 160.526 170.742, 161.751 169.986, 162.308 " fill="none" stroke="rgb(0, 119, 0)" stroke-linecap="butt" stroke-linejoin="round" stroke-opacity="1.0" stroke-width="3.0" />
            <path d=" M 176.649, 139.083 182.550, 147.157 188.450, 155.231 191.781, 159.790 191.832, 159.859 197.732, 167.933 203.632, 176.007 208.728, 182.980 214.628, 191.054 214.940, 191.481 " fill="none" stroke="rgb(0, 119, 0)" stroke-linecap="butt" stroke-linejoin="round" stroke-opacity="1.0" stroke-width="3.0" />
            <path d=" M 264.063, 136.342 259.960, 139.360 " fill="none" stroke="rgb(0, 119, 0)" stroke-linecap="butt" stroke-linejoin="round" stroke-opacity="1.0" stroke-width="3.0" />
            <path d=" M 302.101, 176.063 296.111, 168.055 290.122, 160.047 288.433, 157.789 288.128, 157.381 282.139, 149.373 276.150, 141.365 273.719, 138.115 273.698, 138.087 " fill="none" stroke="rgb(0, 119, 0)" stroke-linecap="butt" stroke-linejoin="round" stroke-opacity="1.0" stroke-width="3.0" />
        </g>
    </g>
    <g id="fressstylelayer_vlak" inkscape:groupmode="lineset" inkscape:label="fressstylelayer_vlak" xmlns:inkscape="http://www.inkscape.org/namespaces/inkscape">
        <g id="strokes" inkscape:groupmode="layer" inkscape:label="strokes" xmlns:inkscape="http://www.inkscape.org/namespaces/inkscape" />
    </g>
</svg>
