<?xml version="1.0" encoding="UTF-8" standalone="no" ?>
<svg width="100%" height="100%" viewBox="0 0 575.433 566.929" xmlns="http://www.w3.org/2000/svg"><g>
</g><g style="stroke:rgb(0,0,0); fill:none; stroke-width:1.000mm" >
</g><g style="stroke:rgb(0,0,0); fill:none; stroke-width:0.100mm" >
<path d="M 0.001, 566.929 
	L 0.000, 566.929 
	L 0.000, 0.000 
	L 566.929, 0.000 
	L 566.929, 566.929 
	L 0.000, 566.929 
" />
<path d="M 569.764, 558.780 
	L 569.764, 557.717 
	L 574.016, 557.717 
" />
<path d="M 574.016, 558.780 
	L 574.016, 556.654 
" />
<path d="M 574.016, 552.402 
	L 573.307, 553.465 
	L 571.890, 553.465 
	L 571.181, 552.402 
	L 571.181, 551.339 
	L 571.890, 550.276 
	L 573.307, 550.276 
	L 574.016, 551.339 
	L 574.016, 552.402 
" />
<path d="M 574.016, 546.024 
	L 573.307, 547.087 
	L 571.890, 547.087 
	L 571.181, 546.024 
	L 571.181, 544.961 
	L 571.890, 543.898 
	L 573.307, 543.898 
	L 574.016, 544.961 
	L 574.016, 546.024 
" />
<path d="M 571.181, 537.520 
	L 571.181, 539.646 
	L 571.890, 540.709 
	L 572.599, 539.646 
	L 572.599, 538.583 
	L 573.307, 537.520 
	L 574.016, 538.583 
	L 574.016, 540.709 
" />
<path d="M 572.599, 534.331 
	L 572.599, 531.142 
	L 571.890, 530.079 
	L 571.181, 531.142 
	L 571.181, 533.268 
	L 571.890, 534.331 
	L 573.307, 534.331 
	L 574.016, 533.268 
	L 574.016, 530.079 
" />
<path d="M 569.764, 526.890 
	L 569.764, 525.827 
	L 574.016, 525.827 
" />
<path d="M 574.016, 526.890 
	L 574.016, 524.764 
" />
<path d="M 575.433, 521.575 
	L 572.599, 517.323 
	L 571.181, 517.323 
" />
<path d="M 571.181, 521.575 
	L 572.599, 521.575 
	L 574.016, 519.449 
" />
<path d="M 574.016, 506.693 
	L 570.473, 506.693 
	L 569.764, 505.630 
	L 569.764, 504.567 
" />
<path d="M 571.890, 507.756 
	L 571.890, 505.630 
" />
<path d="M 569.764, 500.315 
	L 570.473, 500.315 
" />
<path d="M 571.181, 501.378 
	L 571.181, 500.315 
	L 574.016, 500.315 
" />
<path d="M 574.016, 501.378 
	L 574.016, 499.252 
" />
<path d="M 569.764, 495.000 
	L 569.764, 493.937 
	L 574.016, 493.937 
" />
<path d="M 574.016, 495.000 
	L 574.016, 492.874 
" />
<path d="M 569.764, 488.622 
	L 569.764, 487.559 
	L 574.016, 487.559 
" />
<path d="M 574.016, 488.622 
	L 574.016, 486.496 
" />
<path d="M 572.599, 483.307 
	L 572.599, 480.118 
	L 571.890, 479.055 
	L 571.181, 480.118 
	L 571.181, 482.244 
	L 571.890, 483.307 
	L 573.307, 483.307 
	L 574.016, 482.244 
	L 574.016, 479.055 
" />
<path d="M 569.764, 473.740 
	L 574.016, 473.740 
	L 574.016, 475.866 
	L 573.307, 476.929 
	L 571.890, 476.929 
	L 571.181, 475.866 
	L 571.181, 473.740 
" />
<path d="M 574.016, 473.740 
	L 574.016, 472.677 
" />
<path d="M 571.181, 460.984 
	L 571.181, 463.110 
	L 571.890, 464.173 
	L 572.599, 463.110 
	L 572.599, 462.047 
	L 573.307, 460.984 
	L 574.016, 462.047 
	L 574.016, 464.173 
" />
<path d="M 574.016, 454.606 
	L 574.016, 456.732 
	L 573.307, 457.795 
	L 571.890, 457.795 
	L 571.181, 456.732 
	L 571.181, 454.606 
	L 575.433, 454.606 
" />
<path d="M 571.181, 451.417 
	L 573.307, 451.417 
	L 574.016, 450.354 
	L 574.016, 448.228 
	L 571.181, 448.228 
" />
<path d="M 574.016, 440.787 
	L 574.016, 443.976 
	L 573.307, 445.039 
	L 571.890, 445.039 
	L 571.181, 443.976 
	L 571.181, 441.850 
	L 574.016, 441.850 
" />
<path d="M 571.181, 438.661 
	L 574.016, 438.661 
" />
<path d="M 572.599, 438.661 
	L 571.181, 436.536 
	L 571.181, 435.473 
" />
<path d="M 572.599, 432.284 
	L 572.599, 429.095 
	L 571.890, 428.032 
	L 571.181, 429.095 
	L 571.181, 431.221 
	L 571.890, 432.284 
	L 573.307, 432.284 
	L 574.016, 431.221 
	L 574.016, 428.032 
" />
<path d="M 571.181, 422.717 
	L 571.181, 424.843 
	L 571.890, 425.906 
	L 572.599, 424.843 
	L 572.599, 423.780 
	L 573.307, 422.717 
	L 574.016, 423.780 
	L 574.016, 425.906 
" />
<path d="M 570.473, 394.016 
	L 569.764, 392.953 
	L 569.764, 390.827 
	L 570.473, 389.764 
	L 571.181, 389.764 
	L 573.307, 394.016 
	L 574.016, 394.016 
	L 574.016, 389.764 
" />
<path d="M 573.307, 387.638 
	L 574.016, 386.575 
	L 574.016, 384.449 
	L 573.307, 383.386 
	L 570.473, 383.386 
	L 569.764, 384.449 
	L 569.764, 386.575 
	L 570.473, 387.638 
	L 573.307, 387.638 
" />
<path d="M 574.016, 380.197 
	L 574.016, 378.071 
" />
<path d="M 574.016, 379.134 
	L 569.764, 379.134 
	L 570.473, 380.197 
" />
<path d="M 574.016, 373.819 
	L 574.016, 372.756 
	L 572.599, 370.630 
	L 570.473, 370.630 
	L 569.764, 371.693 
	L 569.764, 373.819 
	L 570.473, 374.882 
	L 571.181, 374.882 
	L 571.890, 373.819 
	L 571.890, 370.630 
" />
<path d="M 571.890, 368.504 
	L 571.890, 364.252 
" />
<path d="M 574.016, 361.063 
	L 574.016, 358.937 
" />
<path d="M 574.016, 360.000 
	L 569.764, 360.000 
	L 570.473, 361.063 
" />
<path d="M 574.016, 354.685 
	L 574.016, 352.559 
" />
<path d="M 574.016, 353.622 
	L 569.764, 353.622 
	L 570.473, 354.685 
" />
<path d="M 571.890, 349.370 
	L 571.890, 345.118 
" />
<path d="M 574.016, 341.929 
	L 574.016, 339.803 
" />
<path d="M 574.016, 340.866 
	L 569.764, 340.866 
	L 570.473, 341.929 
" />
<path d="M 574.016, 335.551 
	L 574.016, 333.425 
" />
<path d="M 574.016, 334.488 
	L 569.764, 334.488 
	L 570.473, 335.551 
" />
<path d="M 574.016, 322.795 
	L 574.016, 320.669 
" />
<path d="M 574.016, 321.732 
	L 569.764, 321.732 
	L 570.473, 322.795 
" />
<path d="M 573.307, 317.480 
	L 574.016, 316.417 
	L 574.016, 314.291 
	L 573.307, 313.228 
	L 572.599, 313.228 
	L 571.890, 314.291 
	L 571.890, 315.354 
	L 569.764, 313.228 
	L 569.764, 317.480 
" />
<path d="M 571.890, 310.039 
	L 571.181, 310.039 
	L 571.181, 308.976 
	L 571.890, 308.976 
	L 571.890, 310.039 
" />
<path d="M 573.307, 310.039 
	L 573.307, 308.976 
	L 574.016, 308.976 
	L 574.016, 310.039 
	L 573.307, 310.039 
" />
<path d="M 569.764, 301.535 
	L 571.890, 304.724 
	L 572.599, 304.724 
	L 572.599, 300.472 
" />
<path d="M 571.890, 301.535 
	L 574.016, 301.535 
" />
<path d="M 574.016, 297.284 
	L 574.016, 295.158 
" />
<path d="M 574.016, 296.221 
	L 569.764, 296.221 
	L 570.473, 297.284 
" />
</g>
</svg>
