<?xml version="1.0" encoding="UTF-8" standalone="no" ?>
<svg width="100%" height="100%" viewBox="0 0 1257.166 270.638" xmlns="http://www.w3.org/2000/svg"><g>
</g><g style="stroke:rgb(0,0,0); fill:none; stroke-width:1.000mm" >
</g><g style="stroke:rgb(255,0,0); fill:none; stroke-width:0.100mm" >
<path d="M 114.804, 281.267 
	L 114.803, 281.268 
	L 114.803, 260.008 
	L 128.976, 260.008 
	L 128.976, 281.268 
	L 114.803, 281.268 
" />
<path d="M 113.387, 260.078 
	L 113.386, 260.079 
	L 113.386, 238.677 
	L 127.559, 238.677 
	L 127.559, 260.079 
	L 113.386, 260.079 
" />
<path d="M 109.135, 238.889 
	L 109.134, 238.890 
	L 109.134, 217.346 
	L 123.307, 217.346 
	L 123.307, 238.890 
	L 109.134, 238.890 
" />
<path d="M 102.048, 217.700 
	L 102.047, 217.701 
	L 102.047, 196.016 
	L 116.220, 196.016 
	L 116.220, 217.701 
	L 102.047, 217.701 
" />
<path d="M 92.127, 196.511 
	L 92.126, 196.512 
	L 92.126, 174.685 
	L 106.299, 174.685 
	L 106.299, 196.512 
	L 92.126, 196.512 
" />
<path d="M 79.371, 175.322 
	L 79.370, 175.323 
	L 79.370, 153.354 
	L 93.543, 153.354 
	L 93.543, 175.323 
	L 79.370, 175.323 
" />
<path d="M 63.780, 154.133 
	L 63.780, 154.134 
	L 63.780, 132.024 
	L 77.953, 132.024 
	L 77.953, 154.134 
	L 63.780, 154.134 
" />
<path d="M 45.355, 132.944 
	L 45.354, 132.945 
	L 45.354, 110.693 
	L 59.528, 110.693 
	L 59.528, 132.945 
	L 45.354, 132.945 
" />
<path d="M 24.095, 111.755 
	L 24.094, 111.756 
	L 24.094, 89.362 
	L 38.268, 89.362 
	L 38.268, 111.756 
	L 24.094, 111.756 
" />
<path d="M 0.001, 90.566 
	L 0.000, 90.567 
	L 0.000, 68.032 
	L 14.173, 68.032 
	L 14.173, 90.567 
	L 0.000, 90.567 
" />
<path d="M 142.973, 281.267 
	L 142.972, 281.268 
	L 142.972, 260.008 
	L 157.500, 260.008 
	L 157.500, 281.268 
	L 142.972, 281.268 
" />
<path d="M 141.556, 259.369 
	L 141.555, 259.370 
	L 141.555, 237.969 
	L 156.083, 237.969 
	L 156.083, 259.370 
	L 141.555, 259.370 
" />
<path d="M 137.304, 237.472 
	L 137.303, 237.472 
	L 137.303, 215.929 
	L 151.831, 215.929 
	L 151.831, 237.472 
	L 137.303, 237.472 
" />
<path d="M 130.217, 215.574 
	L 130.217, 215.575 
	L 130.217, 193.890 
	L 144.744, 193.890 
	L 144.744, 215.575 
	L 130.217, 215.575 
" />
<path d="M 120.296, 193.676 
	L 120.295, 193.677 
	L 120.295, 171.850 
	L 134.823, 171.850 
	L 134.823, 193.677 
	L 120.295, 193.677 
" />
<path d="M 107.540, 171.779 
	L 107.539, 171.780 
	L 107.539, 149.811 
	L 122.067, 149.811 
	L 122.067, 171.780 
	L 107.539, 171.780 
" />
<path d="M 91.950, 149.881 
	L 91.949, 149.882 
	L 91.949, 127.772 
	L 106.476, 127.772 
	L 106.476, 149.882 
	L 91.949, 149.882 
" />
<path d="M 73.524, 127.984 
	L 73.524, 127.984 
	L 73.524, 105.732 
	L 88.051, 105.732 
	L 88.051, 127.984 
	L 73.524, 127.984 
" />
<path d="M 52.264, 106.086 
	L 52.264, 106.087 
	L 52.264, 83.693 
	L 66.791, 83.693 
	L 66.791, 106.087 
	L 52.264, 106.087 
" />
<path d="M 28.170, 84.188 
	L 28.169, 84.189 
	L 28.169, 61.654 
	L 42.697, 61.654 
	L 42.697, 84.189 
	L 28.169, 84.189 
" />
<path d="M 171.142, 281.267 
	L 171.142, 281.268 
	L 171.142, 260.008 
	L 186.024, 260.008 
	L 186.024, 281.268 
	L 171.142, 281.268 
" />
<path d="M 169.725, 258.661 
	L 169.724, 258.661 
	L 169.724, 237.260 
	L 184.606, 237.260 
	L 184.606, 258.661 
	L 169.724, 258.661 
" />
<path d="M 165.473, 236.054 
	L 165.472, 236.055 
	L 165.472, 214.512 
	L 180.354, 214.512 
	L 180.354, 236.055 
	L 165.472, 236.055 
" />
<path d="M 158.387, 213.448 
	L 158.386, 213.449 
	L 158.386, 191.764 
	L 173.268, 191.764 
	L 173.268, 213.449 
	L 158.386, 213.449 
" />
<path d="M 148.465, 190.842 
	L 148.465, 190.843 
	L 148.465, 169.016 
	L 163.346, 169.016 
	L 163.346, 190.843 
	L 148.465, 190.843 
" />
<path d="M 135.709, 168.236 
	L 135.709, 168.236 
	L 135.709, 146.268 
	L 150.591, 146.268 
	L 150.591, 168.236 
	L 135.709, 168.236 
" />
<path d="M 120.119, 145.629 
	L 120.118, 145.630 
	L 120.118, 123.520 
	L 135.000, 123.520 
	L 135.000, 145.630 
	L 120.118, 145.630 
" />
<path d="M 101.694, 123.023 
	L 101.693, 123.024 
	L 101.693, 100.772 
	L 116.575, 100.772 
	L 116.575, 123.024 
	L 101.693, 123.024 
" />
<path d="M 80.434, 100.417 
	L 80.433, 100.417 
	L 80.433, 78.024 
	L 95.315, 78.024 
	L 95.315, 100.417 
	L 80.433, 100.417 
" />
<path d="M 56.339, 77.810 
	L 56.339, 77.811 
	L 56.339, 55.276 
	L 71.220, 55.276 
	L 71.220, 77.811 
	L 56.339, 77.811 
" />
<path d="M 199.312, 281.267 
	L 199.311, 281.268 
	L 199.311, 260.008 
	L 214.547, 260.008 
	L 214.547, 281.268 
	L 199.311, 281.268 
" />
<path d="M 197.894, 257.952 
	L 197.894, 257.953 
	L 197.894, 236.551 
	L 213.130, 236.551 
	L 213.130, 257.953 
	L 197.894, 257.953 
" />
<path d="M 193.642, 234.637 
	L 193.642, 234.638 
	L 193.642, 213.095 
	L 208.878, 213.095 
	L 208.878, 234.638 
	L 193.642, 234.638 
" />
<path d="M 186.556, 211.322 
	L 186.555, 211.323 
	L 186.555, 189.638 
	L 201.791, 189.638 
	L 201.791, 211.323 
	L 186.555, 211.323 
" />
<path d="M 176.635, 188.007 
	L 176.634, 188.008 
	L 176.634, 166.181 
	L 191.870, 166.181 
	L 191.870, 188.008 
	L 176.634, 188.008 
" />
<path d="M 163.879, 164.692 
	L 163.878, 164.693 
	L 163.878, 142.724 
	L 179.114, 142.724 
	L 179.114, 164.693 
	L 163.878, 164.693 
" />
<path d="M 148.288, 141.377 
	L 148.287, 141.378 
	L 148.287, 119.268 
	L 163.524, 119.268 
	L 163.524, 141.378 
	L 148.287, 141.378 
" />
<path d="M 129.863, 118.062 
	L 129.862, 118.063 
	L 129.862, 95.811 
	L 145.098, 95.811 
	L 145.098, 118.063 
	L 129.862, 118.063 
" />
<path d="M 108.603, 94.747 
	L 108.602, 94.748 
	L 108.602, 72.354 
	L 123.839, 72.354 
	L 123.839, 94.748 
	L 108.602, 94.748 
" />
<path d="M 84.509, 71.432 
	L 84.508, 71.433 
	L 84.508, 48.898 
	L 99.744, 48.898 
	L 99.744, 71.433 
	L 84.508, 71.433 
" />
<path d="M 227.481, 281.267 
	L 227.480, 281.268 
	L 227.480, 260.008 
	L 243.071, 260.008 
	L 243.071, 281.268 
	L 227.480, 281.268 
" />
<path d="M 226.064, 257.243 
	L 226.063, 257.244 
	L 226.063, 235.843 
	L 241.654, 235.843 
	L 241.654, 257.244 
	L 226.063, 257.244 
" />
<path d="M 221.812, 233.220 
	L 221.811, 233.221 
	L 221.811, 211.677 
	L 237.402, 211.677 
	L 237.402, 233.221 
	L 221.811, 233.221 
" />
<path d="M 214.725, 209.196 
	L 214.724, 209.197 
	L 214.724, 187.512 
	L 230.315, 187.512 
	L 230.315, 209.197 
	L 214.724, 209.197 
" />
<path d="M 204.804, 185.173 
	L 204.803, 185.173 
	L 204.803, 163.346 
	L 220.394, 163.346 
	L 220.394, 185.173 
	L 204.803, 185.173 
" />
<path d="M 192.048, 161.149 
	L 192.047, 161.150 
	L 192.047, 139.181 
	L 207.638, 139.181 
	L 207.638, 161.150 
	L 192.047, 161.150 
" />
<path d="M 176.457, 137.125 
	L 176.457, 137.126 
	L 176.457, 115.016 
	L 192.047, 115.016 
	L 192.047, 137.126 
	L 176.457, 137.126 
" />
<path d="M 158.032, 113.102 
	L 158.032, 113.102 
	L 158.032, 90.850 
	L 173.622, 90.850 
	L 173.622, 113.102 
	L 158.032, 113.102 
" />
<path d="M 136.772, 89.078 
	L 136.772, 89.079 
	L 136.772, 66.685 
	L 152.362, 66.685 
	L 152.362, 89.079 
	L 136.772, 89.079 
" />
<path d="M 112.678, 65.054 
	L 112.677, 65.055 
	L 112.677, 42.520 
	L 128.268, 42.520 
	L 128.268, 65.055 
	L 112.677, 65.055 
" />
<path d="M 255.650, 281.267 
	L 255.650, 281.268 
	L 255.650, 260.008 
	L 271.595, 260.008 
	L 271.595, 281.268 
	L 255.650, 281.268 
" />
<path d="M 254.233, 256.535 
	L 254.232, 256.535 
	L 254.232, 235.134 
	L 270.177, 235.134 
	L 270.177, 256.535 
	L 254.232, 256.535 
" />
<path d="M 249.981, 231.802 
	L 249.980, 231.803 
	L 249.980, 210.260 
	L 265.925, 210.260 
	L 265.925, 231.803 
	L 249.980, 231.803 
" />
<path d="M 242.894, 207.070 
	L 242.894, 207.071 
	L 242.894, 185.386 
	L 258.839, 185.386 
	L 258.839, 207.071 
	L 242.894, 207.071 
" />
<path d="M 232.973, 182.338 
	L 232.972, 182.339 
	L 232.972, 160.512 
	L 248.917, 160.512 
	L 248.917, 182.339 
	L 232.972, 182.339 
" />
<path d="M 220.217, 157.606 
	L 220.217, 157.606 
	L 220.217, 135.638 
	L 236.161, 135.638 
	L 236.161, 157.606 
	L 220.217, 157.606 
" />
<path d="M 204.627, 132.873 
	L 204.626, 132.874 
	L 204.626, 110.764 
	L 220.571, 110.764 
	L 220.571, 132.874 
	L 204.626, 132.874 
" />
<path d="M 186.202, 108.141 
	L 186.201, 108.142 
	L 186.201, 85.890 
	L 202.146, 85.890 
	L 202.146, 108.142 
	L 186.201, 108.142 
" />
<path d="M 164.942, 83.409 
	L 164.941, 83.409 
	L 164.941, 61.016 
	L 180.886, 61.016 
	L 180.886, 83.409 
	L 164.941, 83.409 
" />
<path d="M 140.847, 58.676 
	L 140.846, 58.677 
	L 140.846, 36.142 
	L 156.791, 36.142 
	L 156.791, 58.677 
	L 140.846, 58.677 
" />
<path d="M 283.820, 281.267 
	L 283.819, 281.268 
	L 283.819, 260.008 
	L 300.118, 260.008 
	L 300.118, 281.268 
	L 283.819, 281.268 
" />
<path d="M 282.402, 255.826 
	L 282.402, 255.827 
	L 282.402, 234.425 
	L 298.701, 234.425 
	L 298.701, 255.827 
	L 282.402, 255.827 
" />
<path d="M 278.150, 230.385 
	L 278.150, 230.386 
	L 278.150, 208.843 
	L 294.449, 208.843 
	L 294.449, 230.386 
	L 278.150, 230.386 
" />
<path d="M 271.064, 204.944 
	L 271.063, 204.945 
	L 271.063, 183.260 
	L 287.362, 183.260 
	L 287.362, 204.945 
	L 271.063, 204.945 
" />
<path d="M 261.142, 179.503 
	L 261.142, 179.504 
	L 261.142, 157.677 
	L 277.441, 157.677 
	L 277.441, 179.504 
	L 261.142, 179.504 
" />
<path d="M 248.387, 154.062 
	L 248.386, 154.063 
	L 248.386, 132.095 
	L 264.685, 132.095 
	L 264.685, 154.063 
	L 248.386, 154.063 
" />
<path d="M 232.796, 128.621 
	L 232.795, 128.622 
	L 232.795, 106.512 
	L 249.095, 106.512 
	L 249.095, 128.622 
	L 232.795, 128.622 
" />
<path d="M 214.371, 103.180 
	L 214.370, 103.181 
	L 214.370, 80.929 
	L 230.669, 80.929 
	L 230.669, 103.181 
	L 214.370, 103.181 
" />
<path d="M 193.111, 77.739 
	L 193.110, 77.740 
	L 193.110, 55.346 
	L 209.409, 55.346 
	L 209.409, 77.740 
	L 193.110, 77.740 
" />
<path d="M 169.016, 52.299 
	L 169.016, 52.299 
	L 169.016, 29.764 
	L 185.315, 29.764 
	L 185.315, 52.299 
	L 169.016, 52.299 
" />
<path d="M 311.989, 281.267 
	L 311.988, 281.268 
	L 311.988, 260.008 
	L 328.642, 260.008 
	L 328.642, 281.268 
	L 311.988, 281.268 
" />
<path d="M 310.572, 255.117 
	L 310.571, 255.118 
	L 310.571, 233.717 
	L 327.224, 233.717 
	L 327.224, 255.118 
	L 310.571, 255.118 
" />
<path d="M 306.320, 228.968 
	L 306.319, 228.969 
	L 306.319, 207.425 
	L 322.972, 207.425 
	L 322.972, 228.969 
	L 306.319, 228.969 
" />
<path d="M 299.233, 202.818 
	L 299.232, 202.819 
	L 299.232, 181.134 
	L 315.886, 181.134 
	L 315.886, 202.819 
	L 299.232, 202.819 
" />
<path d="M 289.312, 176.669 
	L 289.311, 176.669 
	L 289.311, 154.843 
	L 305.965, 154.843 
	L 305.965, 176.669 
	L 289.311, 176.669 
" />
<path d="M 276.556, 150.519 
	L 276.555, 150.520 
	L 276.555, 128.551 
	L 293.209, 128.551 
	L 293.209, 150.520 
	L 276.555, 150.520 
" />
<path d="M 260.965, 124.369 
	L 260.965, 124.370 
	L 260.965, 102.260 
	L 277.618, 102.260 
	L 277.618, 124.370 
	L 260.965, 124.370 
" />
<path d="M 242.540, 98.220 
	L 242.539, 98.220 
	L 242.539, 75.969 
	L 259.193, 75.969 
	L 259.193, 98.220 
	L 242.539, 98.220 
" />
<path d="M 221.280, 72.070 
	L 221.280, 72.071 
	L 221.280, 49.677 
	L 237.933, 49.677 
	L 237.933, 72.071 
	L 221.280, 72.071 
" />
<path d="M 197.186, 45.921 
	L 197.185, 45.921 
	L 197.185, 23.386 
	L 213.839, 23.386 
	L 213.839, 45.921 
	L 197.185, 45.921 
" />
<path d="M 340.158, 281.267 
	L 340.158, 281.268 
	L 340.158, 260.008 
	L 357.165, 260.008 
	L 357.165, 281.268 
	L 340.158, 281.268 
" />
<path d="M 338.741, 254.409 
	L 338.740, 254.409 
	L 338.740, 233.008 
	L 355.748, 233.008 
	L 355.748, 254.409 
	L 338.740, 254.409 
" />
<path d="M 334.489, 227.551 
	L 334.488, 227.551 
	L 334.488, 206.008 
	L 351.496, 206.008 
	L 351.496, 227.551 
	L 334.488, 227.551 
" />
<path d="M 327.402, 200.692 
	L 327.402, 200.693 
	L 327.402, 179.008 
	L 344.410, 179.008 
	L 344.410, 200.693 
	L 327.402, 200.693 
" />
<path d="M 317.481, 173.834 
	L 317.480, 173.835 
	L 317.480, 152.008 
	L 334.488, 152.008 
	L 334.488, 173.835 
	L 317.480, 173.835 
" />
<path d="M 304.725, 146.976 
	L 304.724, 146.976 
	L 304.724, 125.008 
	L 321.732, 125.008 
	L 321.732, 146.976 
	L 304.724, 146.976 
" />
<path d="M 289.135, 120.117 
	L 289.134, 120.118 
	L 289.134, 98.008 
	L 306.142, 98.008 
	L 306.142, 120.118 
	L 289.134, 120.118 
" />
<path d="M 270.709, 93.259 
	L 270.709, 93.260 
	L 270.709, 71.008 
	L 287.717, 71.008 
	L 287.717, 93.260 
	L 270.709, 93.260 
" />
<path d="M 249.450, 66.401 
	L 249.449, 66.402 
	L 249.449, 44.008 
	L 266.457, 44.008 
	L 266.457, 66.402 
	L 249.449, 66.402 
" />
<path d="M 225.355, 39.543 
	L 225.354, 39.543 
	L 225.354, 17.008 
	L 242.362, 17.008 
	L 242.362, 39.543 
	L 225.354, 39.543 
" />
<path d="M 368.328, 281.267 
	L 368.327, 281.268 
	L 368.327, 260.008 
	L 385.689, 260.008 
	L 385.689, 281.268 
	L 368.327, 281.268 
" />
<path d="M 366.910, 253.700 
	L 366.910, 253.701 
	L 366.910, 232.299 
	L 384.272, 232.299 
	L 384.272, 253.701 
	L 366.910, 253.701 
" />
<path d="M 362.658, 226.133 
	L 362.658, 226.134 
	L 362.658, 204.591 
	L 380.020, 204.591 
	L 380.020, 226.134 
	L 362.658, 226.134 
" />
<path d="M 355.572, 198.566 
	L 355.571, 198.567 
	L 355.571, 176.882 
	L 372.933, 176.882 
	L 372.933, 198.567 
	L 355.571, 198.567 
" />
<path d="M 345.650, 170.999 
	L 345.650, 171.000 
	L 345.650, 149.173 
	L 363.012, 149.173 
	L 363.012, 171.000 
	L 345.650, 171.000 
" />
<path d="M 332.894, 143.432 
	L 332.894, 143.433 
	L 332.894, 121.465 
	L 350.256, 121.465 
	L 350.256, 143.433 
	L 332.894, 143.433 
" />
<path d="M 317.304, 115.865 
	L 317.303, 115.866 
	L 317.303, 93.756 
	L 334.665, 93.756 
	L 334.665, 115.866 
	L 317.303, 115.866 
" />
<path d="M 298.879, 88.299 
	L 298.878, 88.299 
	L 298.878, 66.047 
	L 316.240, 66.047 
	L 316.240, 88.299 
	L 298.878, 88.299 
" />
<path d="M 277.619, 60.732 
	L 277.618, 60.732 
	L 277.618, 38.339 
	L 294.980, 38.339 
	L 294.980, 60.732 
	L 277.618, 60.732 
" />
<path d="M 253.524, 33.165 
	L 253.524, 33.165 
	L 253.524, 10.630 
	L 270.886, 10.630 
	L 270.886, 33.165 
	L 253.524, 33.165 
" />
<path d="M 1252.914, 270.638 
	L 1255.040, 270.638 
	L 1255.748, 269.575 
	L 1255.040, 268.512 
	L 1253.622, 268.512 
" />
<path d="M 1255.040, 268.512 
	L 1255.748, 267.449 
	L 1255.040, 266.386 
	L 1252.914, 266.386 
" />
<path d="M 1254.331, 264.260 
	L 1254.331, 261.071 
	L 1253.622, 260.008 
	L 1252.914, 261.071 
	L 1252.914, 263.197 
	L 1253.622, 264.260 
	L 1255.040, 264.260 
	L 1255.748, 263.197 
	L 1255.748, 260.008 
" />
<path d="M 1255.748, 253.630 
	L 1255.748, 256.819 
	L 1255.040, 257.882 
	L 1253.622, 257.882 
	L 1252.914, 256.819 
	L 1252.914, 254.693 
	L 1255.748, 254.693 
" />
<path d="M 1252.914, 251.504 
	L 1254.331, 251.504 
	L 1255.748, 249.378 
	L 1254.331, 247.252 
	L 1252.914, 247.252 
" />
<path d="M 1254.331, 245.126 
	L 1254.331, 241.937 
	L 1253.622, 240.874 
	L 1252.914, 241.937 
	L 1252.914, 244.063 
	L 1253.622, 245.126 
	L 1255.040, 245.126 
	L 1255.748, 244.063 
	L 1255.748, 240.874 
" />
<path d="M 1252.914, 235.559 
	L 1252.914, 237.685 
	L 1253.622, 238.748 
	L 1254.331, 237.685 
	L 1254.331, 236.622 
	L 1255.040, 235.559 
	L 1255.748, 236.622 
	L 1255.748, 238.748 
" />
<path d="M 1255.748, 230.244 
	L 1255.748, 231.307 
	L 1255.040, 231.307 
	L 1255.040, 230.244 
	L 1255.748, 230.244 
" />
<path d="M 1257.166, 225.992 
	L 1252.914, 225.992 
	L 1252.914, 223.866 
	L 1253.622, 222.803 
	L 1255.040, 222.803 
	L 1255.748, 223.866 
	L 1255.748, 225.992 
" />
<path d="M 1257.166, 219.614 
	L 1254.331, 215.362 
	L 1252.914, 215.362 
" />
<path d="M 1252.914, 219.614 
	L 1254.331, 219.614 
	L 1255.748, 217.488 
" />
<path d="M 1252.205, 187.724 
	L 1251.496, 186.661 
	L 1251.496, 184.535 
	L 1252.205, 183.472 
	L 1252.914, 183.472 
	L 1255.040, 187.724 
	L 1255.748, 187.724 
	L 1255.748, 183.472 
" />
<path d="M 1255.040, 181.346 
	L 1255.748, 180.283 
	L 1255.748, 178.158 
	L 1255.040, 177.095 
	L 1252.205, 177.095 
	L 1251.496, 178.158 
	L 1251.496, 180.283 
	L 1252.205, 181.346 
	L 1255.040, 181.346 
" />
<path d="M 1255.748, 173.906 
	L 1255.748, 171.780 
" />
<path d="M 1255.748, 172.843 
	L 1251.496, 172.843 
	L 1252.205, 173.906 
" />
<path d="M 1255.748, 167.528 
	L 1255.748, 166.465 
	L 1254.331, 164.339 
	L 1252.205, 164.339 
	L 1251.496, 165.402 
	L 1251.496, 167.528 
	L 1252.205, 168.591 
	L 1252.914, 168.591 
	L 1253.622, 167.528 
	L 1253.622, 164.339 
" />
<path d="M 1253.622, 162.213 
	L 1253.622, 157.961 
" />
<path d="M 1255.040, 155.835 
	L 1255.748, 154.772 
	L 1255.748, 152.646 
	L 1255.040, 151.583 
	L 1252.205, 151.583 
	L 1251.496, 152.646 
	L 1251.496, 154.772 
	L 1252.205, 155.835 
	L 1255.040, 155.835 
" />
<path d="M 1251.496, 145.205 
	L 1251.496, 147.331 
	L 1252.914, 149.457 
	L 1255.040, 149.457 
	L 1255.748, 148.394 
	L 1255.748, 146.268 
	L 1255.040, 145.205 
	L 1254.331, 145.205 
	L 1253.622, 146.268 
	L 1253.622, 149.457 
" />
<path d="M 1253.622, 143.079 
	L 1253.622, 138.827 
" />
<path d="M 1255.040, 136.701 
	L 1255.748, 135.638 
	L 1255.748, 133.512 
	L 1255.040, 132.449 
	L 1252.205, 132.449 
	L 1251.496, 133.512 
	L 1251.496, 135.638 
	L 1252.205, 136.701 
	L 1255.040, 136.701 
" />
<path d="M 1255.748, 129.260 
	L 1255.748, 128.197 
	L 1254.331, 126.071 
	L 1252.205, 126.071 
	L 1251.496, 127.134 
	L 1251.496, 129.260 
	L 1252.205, 130.323 
	L 1252.914, 130.323 
	L 1253.622, 129.260 
	L 1253.622, 126.071 
" />
<path d="M 1255.040, 117.567 
	L 1255.748, 116.504 
	L 1255.748, 114.378 
	L 1255.040, 113.315 
	L 1252.205, 113.315 
	L 1251.496, 114.378 
	L 1251.496, 116.504 
	L 1252.205, 117.567 
	L 1255.040, 117.567 
" />
<path d="M 1255.040, 111.189 
	L 1255.748, 110.126 
	L 1255.748, 108.000 
	L 1255.040, 106.937 
	L 1252.205, 106.937 
	L 1251.496, 108.000 
	L 1251.496, 110.126 
	L 1252.205, 111.189 
	L 1255.040, 111.189 
" />
<path d="M 1253.622, 103.748 
	L 1252.914, 103.748 
	L 1252.914, 102.685 
	L 1253.622, 102.685 
	L 1253.622, 103.748 
" />
<path d="M 1255.040, 103.748 
	L 1255.040, 102.685 
	L 1255.748, 102.685 
	L 1255.748, 103.748 
	L 1255.040, 103.748 
" />
<path d="M 1255.748, 97.370 
	L 1255.748, 95.244 
" />
<path d="M 1255.748, 96.307 
	L 1251.496, 96.307 
	L 1252.205, 97.370 
" />
<path d="M 1255.748, 90.992 
	L 1255.748, 88.866 
" />
<path d="M 1255.748, 89.929 
	L 1251.496, 89.929 
	L 1252.205, 90.992 
" />
</g>
</svg>
