<?xml version="1.0" encoding="UTF-8" standalone="no" ?>
<svg width="100%" height="100%" viewBox="0 0 1110.756 666.717" xmlns="http://www.w3.org/2000/svg"><g>
</g><g style="stroke:rgb(0,0,0); fill:none; stroke-width:1.000mm" >
</g><g style="stroke:rgb(255,0,0); fill:none; stroke-width:0.100mm" >
<path d="M 637.796, 317.205 
	L 637.795, 317.205 
	L 635.281, 277.237 
	L 627.776, 237.899 
	L 615.401, 199.811 
	L 598.350, 163.575 
	L 576.892, 129.762 
	L 551.364, 98.905 
	L 522.171, 71.491 
	L 489.772, 47.951 
	L 454.678, 28.658 
" />
<path d="M 454.678, 28.658 
	L 417.443, 13.916 
	L 378.653, 3.956 
	L 338.922, -1.063 
	L 298.874, -1.063 
	L 259.142, 3.956 
	L 220.353, 13.916 
	L 183.117, 28.658 
	L 148.024, 47.951 
	L 115.625, 71.491 
	L 86.431, 98.905 
	L 60.904, 129.762 
" />
<path d="M 60.904, 129.762 
	L 39.446, 163.575 
	L 22.394, 199.811 
	L 10.019, 237.899 
	L 2.514, 277.237 
	L 0.000, 317.205 
" />
<path d="M 298.874, 635.473 
	L 298.874, 635.474 
	L 338.922, 635.474 
	L 378.653, 630.454 
	L 417.443, 620.495 
	L 454.678, 605.753 
	L 489.772, 586.460 
	L 522.171, 562.920 
	L 551.364, 535.506 
	L 576.892, 504.649 
	L 598.350, 470.835 
" />
<path d="M 598.350, 470.835 
	L 615.401, 434.599 
	L 627.776, 396.512 
	L 635.281, 357.174 
	L 637.795, 317.205 
	L 635.281, 277.237 
	L 627.776, 237.899 
	L 615.401, 199.811 
	L 598.350, 163.575 
	L 576.892, 129.762 
	L 551.364, 98.905 
" />
<path d="M 551.364, 98.905 
	L 522.171, 71.491 
	L 489.772, 47.951 
	L 454.678, 28.658 
	L 417.443, 13.916 
	L 378.653, 3.956 
" />
<path d="M 629.646, 322.591 
	L 629.646, 322.591 
	L 627.187, 283.502 
	L 619.847, 245.030 
	L 607.745, 207.780 
	L 591.068, 172.341 
	L 570.081, 139.272 
	L 545.116, 109.093 
	L 516.565, 82.282 
	L 484.878, 59.260 
	L 450.556, 40.392 
" />
<path d="M 450.556, 40.392 
	L 414.140, 25.974 
	L 376.205, 16.233 
	L 337.347, 11.324 
	L 298.181, 11.324 
	L 259.323, 16.233 
	L 221.387, 25.974 
	L 184.971, 40.392 
	L 150.649, 59.260 
	L 118.963, 82.282 
	L 90.412, 109.093 
	L 65.446, 139.272 
" />
<path d="M 65.446, 139.272 
	L 44.459, 172.341 
	L 27.783, 207.780 
	L 15.681, 245.030 
	L 8.341, 283.502 
	L 5.882, 322.591 
	L 8.341, 361.680 
	L 15.681, 400.153 
	L 27.783, 437.403 
	L 44.459, 472.842 
	L 65.446, 505.911 
	L 90.412, 536.089 
" />
<path d="M 90.412, 536.089 
	L 118.963, 562.901 
	L 150.649, 585.922 
	L 184.971, 604.790 
	L 221.387, 619.209 
	L 259.323, 628.949 
	L 298.181, 633.858 
	L 337.347, 633.858 
	L 376.205, 628.949 
	L 414.140, 619.209 
	L 450.556, 604.790 
" />
<path d="M 450.556, 604.790 
	L 484.878, 585.922 
" />
<path d="M 622.927, 318.268 
	L 622.926, 318.268 
	L 620.521, 280.039 
	L 613.343, 242.413 
	L 601.506, 205.983 
	L 585.197, 171.324 
	L 564.672, 138.982 
	L 540.256, 109.468 
	L 512.333, 83.246 
	L 481.343, 60.731 
	L 447.777, 42.277 
" />
<path d="M 447.777, 42.277 
	L 412.162, 28.176 
	L 375.061, 18.651 
	L 337.058, 13.850 
	L 298.753, 13.850 
	L 260.751, 18.651 
	L 223.649, 28.176 
	L 188.034, 42.277 
	L 154.468, 60.731 
	L 123.478, 83.246 
	L 95.555, 109.468 
	L 71.139, 138.982 
" />
<path d="M 71.139, 138.982 
	L 50.614, 171.324 
	L 34.305, 205.983 
" />
<path d="M 154.468, 575.805 
	L 154.468, 575.806 
	L 188.034, 594.259 
	L 223.649, 608.360 
	L 260.751, 617.886 
	L 298.753, 622.687 
	L 337.058, 622.687 
	L 375.061, 617.886 
	L 412.162, 608.360 
	L 447.777, 594.259 
	L 481.343, 575.806 
" />
<path d="M 481.343, 575.806 
	L 512.333, 553.291 
" />
<path d="M 613.344, 394.124 
	L 613.343, 394.124 
	L 620.521, 356.498 
	L 622.926, 318.268 
	L 620.521, 280.039 
	L 613.343, 242.413 
	L 601.506, 205.983 
	L 585.197, 171.324 
	L 564.672, 138.982 
	L 540.256, 109.468 
	L 512.333, 83.246 
" />
<path d="M 512.333, 83.246 
	L 481.343, 60.731 
	L 447.777, 42.277 
" />
<path d="M 621.461, 320.252 
	L 621.460, 320.253 
	L 619.107, 282.864 
	L 612.088, 246.066 
	L 600.511, 210.437 
	L 584.561, 176.540 
" />
<path d="M 540.609, 116.045 
	L 540.608, 116.045 
	L 513.300, 90.401 
	L 482.993, 68.381 
	L 450.164, 50.333 
	L 415.332, 36.543 
	L 379.047, 27.227 
	L 341.881, 22.531 
	L 304.418, 22.531 
	L 267.252, 27.227 
	L 230.967, 36.543 
	L 196.136, 50.333 
" />
<path d="M 196.136, 50.333 
	L 163.307, 68.381 
	L 132.999, 90.401 
" />
<path d="M 27.193, 282.864 
	L 27.192, 282.864 
	L 24.839, 320.253 
	L 27.192, 357.641 
	L 34.211, 394.440 
	L 45.788, 430.068 
	L 61.739, 463.965 
	L 81.811, 495.595 
	L 105.691, 524.460 
	L 132.999, 550.104 
	L 163.307, 572.124 
	L 196.136, 590.172 
" />
<path d="M 196.136, 590.172 
	L 230.967, 603.962 
	L 267.252, 613.279 
	L 304.418, 617.974 
	L 341.881, 617.974 
	L 379.047, 613.279 
	L 415.332, 603.962 
	L 450.164, 590.172 
	L 482.993, 572.124 
	L 513.300, 550.104 
	L 540.608, 524.460 
" />
<path d="M 540.608, 524.460 
	L 564.488, 495.595 
	L 584.561, 463.965 
" />
<path d="M 607.244, 324.433 
	L 607.244, 324.434 
	L 604.943, 287.868 
	L 598.078, 251.879 
	L 586.756, 217.035 
" />
<path d="M 571.157, 183.883 
	L 571.156, 183.884 
	L 551.524, 152.949 
	L 528.170, 124.719 
	L 501.463, 99.639 
	L 471.822, 78.104 
	L 439.716, 60.453 
	L 405.651, 46.966 
	L 370.164, 37.854 
	L 333.815, 33.262 
	L 297.177, 33.262 
" />
<path d="M 297.177, 33.262 
	L 260.828, 37.854 
	L 225.341, 46.966 
	L 191.276, 60.453 
	L 159.170, 78.104 
	L 129.529, 99.639 
	L 102.822, 124.719 
	L 79.468, 152.949 
" />
<path d="M 44.237, 431.832 
	L 44.236, 431.833 
	L 59.836, 464.984 
	L 79.468, 495.918 
	L 102.822, 524.149 
	L 129.529, 549.229 
	L 159.170, 570.764 
	L 191.276, 588.414 
	L 225.341, 601.902 
	L 260.828, 611.014 
	L 297.177, 615.605 
" />
<path d="M 297.177, 615.605 
	L 333.815, 615.605 
	L 370.164, 611.014 
" />
<path d="M 528.171, 524.148 
	L 528.170, 524.149 
	L 551.524, 495.918 
	L 571.156, 464.984 
	L 586.756, 431.833 
	L 598.078, 396.989 
	L 604.943, 360.999 
	L 607.244, 324.434 
	L 604.943, 287.868 
	L 598.078, 251.879 
	L 586.756, 217.035 
" />
<path d="M 586.756, 217.035 
	L 571.156, 183.884 
	L 551.524, 152.949 
	L 528.170, 124.719 
	L 501.463, 99.639 
	L 471.822, 78.104 
	L 439.716, 60.453 
	L 405.651, 46.966 
" />
<path d="M 612.873, 324.504 
	L 612.872, 324.505 
" />
<path d="M 612.873, 324.504 
	L 612.872, 324.505 
	L 610.622, 288.743 
	L 603.908, 253.546 
	L 592.835, 219.468 
	L 577.579, 187.046 
	L 558.379, 156.793 
	L 535.539, 129.183 
	L 509.419, 104.655 
	L 480.430, 83.594 
	L 449.031, 66.331 
" />
<path d="M 449.031, 66.331 
	L 415.715, 53.141 
" />
<path d="M 239.372, 53.140 
	L 239.372, 53.141 
	L 206.056, 66.331 
" />
<path d="M 206.057, 66.331 
	L 206.056, 66.331 
	L 174.657, 83.594 
	L 145.668, 104.655 
	L 119.548, 129.183 
	L 96.707, 156.793 
	L 77.508, 187.046 
	L 62.252, 219.468 
	L 51.179, 253.546 
	L 44.464, 288.743 
	L 42.214, 324.505 
	L 44.464, 360.266 
" />
<path d="M 44.464, 360.266 
	L 51.179, 395.463 
" />
<path d="M 145.669, 544.353 
	L 145.668, 544.354 
	L 174.657, 565.416 
	L 206.056, 582.678 
	L 239.372, 595.868 
	L 274.078, 604.780 
	L 309.628, 609.270 
	L 345.459, 609.270 
	L 381.008, 604.780 
	L 415.715, 595.868 
	L 449.031, 582.678 
" />
<path d="M 449.031, 582.678 
	L 480.430, 565.416 
	L 509.419, 544.354 
	L 535.539, 519.826 
	L 558.379, 492.216 
	L 577.579, 461.963 
	L 592.835, 429.541 
	L 603.908, 395.463 
	L 610.622, 360.266 
	L 612.872, 324.505 
" />
<path d="M 598.163, 324.717 
	L 598.162, 324.717 
	L 595.962, 289.743 
	L 589.395, 255.320 
	L 578.566, 221.992 
	L 563.645, 190.283 
	L 544.868, 160.695 
	L 522.530, 133.693 
	L 496.984, 109.704 
	L 468.634, 89.106 
	L 437.924, 72.224 
" />
<path d="M 437.924, 72.224 
	L 405.342, 59.323 
	L 371.400, 50.608 
	L 336.632, 46.216 
	L 301.589, 46.216 
	L 266.821, 50.608 
	L 232.879, 59.323 
	L 200.296, 72.224 
	L 169.587, 89.106 
	L 141.236, 109.704 
	L 115.690, 133.693 
" />
<path d="M 59.655, 427.442 
	L 59.654, 427.443 
	L 74.575, 459.151 
	L 93.353, 488.740 
	L 115.690, 515.741 
	L 141.236, 539.730 
	L 169.587, 560.328 
	L 200.296, 577.210 
	L 232.879, 590.111 
	L 266.821, 598.826 
	L 301.589, 603.218 
" />
<path d="M 301.589, 603.218 
	L 336.632, 603.218 
	L 371.400, 598.826 
	L 405.342, 590.111 
	L 437.924, 577.210 
	L 468.634, 560.328 
	L 496.984, 539.730 
	L 522.530, 515.741 
	L 544.868, 488.740 
	L 563.645, 459.151 
" />
<path d="M 597.055, 319.472 
	L 597.054, 319.473 
	L 594.902, 285.268 
	L 588.480, 251.602 
	L 577.889, 219.008 
	L 563.297, 187.997 
	L 544.932, 159.059 
	L 523.086, 132.652 
	L 498.103, 109.191 
	L 470.376, 89.045 
	L 440.342, 72.534 
" />
<path d="M 440.342, 72.534 
	L 408.476, 59.918 
	L 375.280, 51.395 
	L 341.278, 47.099 
	L 307.006, 47.099 
	L 273.003, 51.395 
	L 239.808, 59.918 
	L 207.941, 72.534 
" />
<path d="M 53.382, 285.267 
	L 53.381, 285.268 
	L 51.229, 319.473 
	L 53.381, 353.678 
	L 59.803, 387.344 
	L 70.394, 419.939 
	L 84.987, 450.950 
	L 103.351, 479.887 
	L 125.197, 506.295 
	L 150.181, 529.756 
	L 177.908, 549.901 
" />
<path d="M 177.908, 549.901 
	L 207.941, 566.412 
	L 239.808, 579.028 
	L 273.003, 587.551 
	L 307.006, 591.847 
	L 341.278, 591.847 
" />
<path d="M 544.933, 479.886 
	L 544.932, 479.887 
	L 563.297, 450.950 
	L 577.889, 419.939 
	L 588.480, 387.344 
	L 594.902, 353.678 
	L 597.054, 319.473 
" />
<path d="M 588.925, 329.252 
	L 588.924, 329.253 
	L 586.819, 295.800 
	L 580.539, 262.875 
	L 570.181, 230.997 
	L 555.910, 200.669 
	L 537.949, 172.368 
	L 516.584, 146.541 
" />
<path d="M 435.660, 87.746 
	L 435.660, 87.746 
	L 404.495, 75.408 
	L 372.030, 67.072 
	L 338.775, 62.871 
	L 305.257, 62.871 
	L 272.002, 67.072 
	L 239.537, 75.408 
	L 208.372, 87.746 
	L 178.999, 103.895 
	L 151.882, 123.596 
	L 127.448, 146.541 
" />
<path d="M 127.448, 146.541 
	L 106.082, 172.368 
	L 88.122, 200.669 
	L 73.850, 230.997 
	L 63.493, 262.875 
	L 57.212, 295.800 
	L 55.108, 329.253 
	L 57.212, 362.705 
	L 63.493, 395.630 
	L 73.850, 427.508 
	L 88.122, 457.836 
	L 106.082, 486.138 
" />
<path d="M 106.082, 486.138 
	L 127.448, 511.964 
	L 151.882, 534.909 
	L 178.999, 554.611 
	L 208.372, 570.759 
	L 239.537, 583.097 
	L 272.002, 591.433 
	L 305.257, 595.634 
	L 338.775, 595.634 
	L 372.030, 591.433 
	L 404.495, 583.097 
" />
<path d="M 404.495, 583.097 
	L 435.660, 570.759 
	L 465.032, 554.611 
	L 492.150, 534.909 
	L 516.584, 511.964 
	L 537.949, 486.138 
	L 555.910, 457.836 
	L 570.181, 427.508 
	L 580.539, 395.630 
	L 586.819, 362.705 
	L 588.924, 329.253 
" />
<path d="M 588.924, 329.253 
	L 586.819, 295.800 
	L 580.539, 262.875 
	L 570.181, 230.997 
	L 555.910, 200.669 
	L 537.949, 172.368 
	L 516.584, 146.541 
	L 492.150, 123.596 
" />
<path d="M 582.202, 322.661 
	L 582.202, 322.662 
	L 580.144, 289.945 
	L 574.001, 257.745 
	L 563.871, 226.568 
	L 549.914, 196.907 
	L 532.348, 169.229 
	L 511.453, 143.970 
	L 487.556, 121.530 
	L 461.035, 102.262 
	L 432.309, 86.469 
" />
<path d="M 432.309, 86.469 
	L 401.830, 74.402 
	L 370.079, 66.249 
	L 337.556, 62.141 
	L 304.775, 62.141 
	L 272.252, 66.249 
	L 240.501, 74.402 
	L 210.022, 86.469 
	L 181.295, 102.262 
	L 154.775, 121.530 
	L 130.878, 143.970 
	L 109.983, 169.229 
" />
<path d="M 109.983, 169.229 
	L 92.417, 196.907 
	L 78.460, 226.568 
	L 68.330, 257.745 
	L 62.187, 289.945 
	L 60.129, 322.662 
	L 62.187, 355.379 
	L 68.330, 387.579 
	L 78.460, 418.756 
	L 92.417, 448.418 
	L 109.983, 476.095 
	L 130.878, 501.354 
" />
<path d="M 130.878, 501.354 
	L 154.775, 523.794 
	L 181.295, 543.062 
	L 210.022, 558.855 
	L 240.501, 570.923 
" />
<path d="M 570.295, 322.945 
	L 570.294, 322.946 
	L 568.281, 290.949 
	L 562.273, 259.457 
	L 552.366, 228.966 
	L 538.715, 199.957 
	L 521.537, 172.888 
	L 501.101, 148.185 
	L 477.730, 126.238 
	L 451.793, 107.394 
	L 423.699, 91.949 
" />
<path d="M 423.699, 91.949 
" />
<path d="M 298.971, 68.155 
	L 298.970, 68.156 
" />
<path d="M 298.971, 68.155 
	L 298.970, 68.156 
	L 267.163, 72.174 
	L 236.110, 80.147 
	L 206.301, 91.949 
	L 178.207, 107.394 
" />
<path d="M 128.900, 148.185 
	L 128.899, 148.185 
	L 108.463, 172.888 
	L 91.285, 199.957 
	L 77.634, 228.966 
	L 67.727, 259.457 
	L 61.719, 290.949 
	L 59.706, 322.946 
	L 61.719, 354.942 
	L 67.727, 386.435 
	L 77.634, 416.925 
" />
<path d="M 77.634, 416.925 
	L 91.285, 445.934 
	L 108.463, 473.003 
	L 128.899, 497.706 
	L 152.270, 519.653 
" />
<path d="M 331.031, 577.735 
	L 331.030, 577.736 
	L 362.838, 573.717 
	L 393.890, 565.744 
	L 423.699, 553.942 
	L 451.793, 538.497 
	L 477.730, 519.653 
" />
<path d="M 521.537, 473.003 
	L 521.537, 473.003 
	L 538.715, 445.934 
	L 552.366, 416.925 
	L 562.273, 386.435 
	L 568.281, 354.942 
	L 570.294, 322.946 
	L 568.281, 290.949 
	L 562.273, 259.457 
	L 552.366, 228.966 
	L 538.715, 199.957 
" />
<path d="M 538.715, 199.957 
	L 521.537, 172.888 
	L 501.101, 148.185 
	L 477.730, 126.238 
	L 451.793, 107.394 
	L 423.699, 91.949 
	L 393.890, 80.147 
" />
<path d="M 576.016, 319.118 
	L 576.016, 319.119 
	L 574.047, 287.826 
	L 568.172, 257.027 
	L 558.483, 227.207 
	L 545.132, 198.836 
	L 528.332, 172.362 
	L 508.346, 148.203 
	L 485.489, 126.739 
	L 460.123, 108.310 
	L 432.646, 93.204 
" />
<path d="M 432.646, 93.204 
	L 403.493, 81.662 
	L 373.124, 73.864 
	L 342.016, 69.934 
	L 310.662, 69.934 
	L 279.554, 73.864 
	L 249.184, 81.662 
	L 220.032, 93.204 
	L 192.555, 108.310 
	L 167.188, 126.739 
	L 144.332, 148.203 
	L 124.345, 172.362 
" />
<path d="M 124.345, 172.362 
	L 107.545, 198.836 
	L 94.195, 227.207 
	L 84.506, 257.027 
" />
<path d="M 220.032, 545.033 
	L 220.032, 545.034 
	L 249.184, 556.576 
	L 279.554, 564.374 
	L 310.662, 568.303 
	L 342.016, 568.303 
	L 373.124, 564.374 
	L 403.493, 556.576 
	L 432.646, 545.034 
	L 460.123, 529.928 
	L 485.489, 511.498 
" />
<path d="M 485.489, 511.498 
	L 508.346, 490.034 
	L 528.332, 465.876 
" />
<path d="M 571.374, 315.858 
	L 571.373, 315.859 
	L 569.448, 285.255 
" />
<path d="M 569.448, 285.254 
	L 569.448, 285.255 
	L 563.702, 255.133 
	L 554.226, 225.969 
	L 541.169, 198.223 
	L 524.738, 172.331 
	L 505.191, 148.703 
	L 482.838, 127.711 
	L 458.029, 109.687 
	L 431.157, 94.915 
	L 402.646, 83.626 
" />
<path d="M 402.646, 83.626 
	L 372.944, 76.000 
" />
<path d="M 223.221, 94.914 
	L 223.221, 94.915 
	L 196.349, 109.687 
	L 171.540, 127.711 
	L 149.187, 148.703 
	L 129.640, 172.331 
	L 113.209, 198.223 
	L 100.152, 225.969 
" />
<path d="M 83.006, 315.858 
	L 83.005, 315.859 
	L 84.930, 346.463 
	L 90.676, 376.585 
	L 100.152, 405.749 
	L 113.209, 433.495 
	L 129.640, 459.387 
	L 149.187, 483.014 
" />
<path d="M 223.221, 536.803 
	L 223.221, 536.803 
	L 251.732, 548.092 
	L 281.434, 555.718 
	L 311.856, 559.561 
	L 342.522, 559.561 
	L 372.944, 555.718 
	L 402.646, 548.092 
	L 431.157, 536.803 
	L 458.029, 522.031 
" />
<path d="M 541.170, 433.495 
	L 541.169, 433.495 
	L 554.226, 405.749 
	L 563.702, 376.585 
	L 569.448, 346.463 
	L 571.373, 315.859 
	L 569.448, 285.255 
	L 563.702, 255.133 
	L 554.226, 225.969 
	L 541.169, 198.223 
	L 524.738, 172.331 
" />
<path d="M 524.738, 172.331 
	L 505.191, 148.703 
	L 482.838, 127.711 
	L 458.029, 109.687 
	L 431.157, 94.915 
	L 402.646, 83.626 
	L 372.944, 76.000 
	L 342.522, 72.157 
	L 311.856, 72.157 
	L 281.434, 76.000 
	L 251.732, 83.626 
" />
<path d="M 251.732, 83.626 
	L 223.221, 94.915 
	L 196.349, 109.687 
	L 171.540, 127.711 
	L 149.187, 148.703 
	L 129.640, 172.331 
" />
<path d="M 556.222, 322.520 
	L 556.221, 322.520 
	L 554.338, 292.589 
	L 548.719, 263.130 
	L 539.452, 234.608 
	L 526.682, 207.472 
	L 510.613, 182.150 
	L 491.496, 159.042 
	L 469.634, 138.512 
	L 445.372, 120.885 
	L 419.091, 106.437 
" />
<path d="M 419.091, 106.437 
	L 391.207, 95.396 
	L 362.159, 87.939 
	L 332.405, 84.179 
	L 302.414, 84.179 
	L 272.660, 87.939 
	L 243.612, 95.396 
	L 215.728, 106.437 
	L 189.447, 120.885 
	L 165.185, 138.512 
	L 143.323, 159.042 
" />
<path d="M 143.323, 159.042 
	L 124.206, 182.150 
	L 108.137, 207.472 
	L 95.367, 234.608 
	L 86.100, 263.130 
	L 80.481, 292.589 
	L 78.598, 322.520 
	L 80.481, 352.451 
	L 86.100, 381.910 
	L 95.367, 410.433 
	L 108.137, 437.569 
" />
<path d="M 108.137, 437.569 
	L 124.206, 462.891 
	L 143.323, 485.999 
	L 165.185, 506.529 
	L 189.447, 524.156 
	L 215.728, 538.604 
	L 243.612, 549.644 
	L 272.660, 557.102 
	L 302.414, 560.862 
	L 332.405, 560.862 
	L 362.159, 557.102 
" />
<path d="M 362.159, 557.102 
" />
<path d="M 549.055, 321.740 
	L 549.055, 321.741 
	L 547.213, 292.468 
" />
<path d="M 547.214, 292.467 
	L 547.213, 292.468 
	L 541.716, 263.658 
	L 532.653, 235.762 
	L 520.165, 209.223 
	L 504.449, 184.459 
	L 485.753, 161.859 
	L 464.372, 141.781 
" />
<path d="M 387.670, 99.613 
	L 387.670, 99.614 
	L 359.261, 92.319 
	L 330.161, 88.644 
	L 300.831, 88.644 
	L 271.731, 92.319 
	L 243.322, 99.614 
	L 216.052, 110.411 
" />
<path d="M 145.240, 161.858 
	L 145.239, 161.859 
	L 126.544, 184.459 
	L 110.828, 209.223 
	L 98.339, 235.762 
	L 89.276, 263.658 
	L 83.779, 292.468 
	L 81.938, 321.741 
	L 83.779, 351.014 
	L 89.276, 379.824 
	L 98.339, 407.719 
" />
<path d="M 98.339, 407.719 
	L 110.828, 434.259 
	L 126.544, 459.023 
	L 145.239, 481.623 
" />
<path d="M 300.832, 554.837 
	L 300.831, 554.838 
	L 330.161, 554.838 
	L 359.261, 551.162 
	L 387.670, 543.868 
	L 414.940, 533.071 
	L 440.643, 518.941 
	L 464.372, 501.700 
	L 485.753, 481.623 
	L 504.449, 459.023 
	L 520.165, 434.259 
" />
<path d="M 520.165, 434.259 
	L 532.653, 407.719 
	L 541.716, 379.824 
	L 547.213, 351.014 
" />
<path d="M 547.956, 319.827 
	L 547.956, 319.827 
	L 546.154, 291.199 
	L 540.780, 263.022 
	L 531.915, 235.741 
	L 519.701, 209.785 
	L 504.331, 185.566 
	L 486.047, 163.463 
	L 465.136, 143.827 
" />
<path d="M 390.122, 102.587 
	L 390.121, 102.587 
	L 362.337, 95.453 
	L 333.878, 91.858 
	L 305.193, 91.858 
	L 276.734, 95.453 
	L 248.950, 102.587 
	L 222.279, 113.147 
	L 197.142, 126.966 
	L 173.935, 143.827 
	L 153.024, 163.463 
" />
<path d="M 153.024, 163.463 
	L 134.740, 185.566 
	L 119.370, 209.785 
	L 107.156, 235.741 
	L 98.291, 263.022 
	L 92.917, 291.199 
	L 91.115, 319.827 
	L 92.917, 348.456 
	L 98.291, 376.633 
	L 107.156, 403.914 
	L 119.370, 429.870 
" />
<path d="M 119.370, 429.870 
	L 134.740, 454.089 
	L 153.024, 476.191 
	L 173.935, 495.828 
	L 197.142, 512.689 
	L 222.279, 526.508 
	L 248.950, 537.068 
	L 276.734, 544.202 
	L 305.193, 547.797 
	L 333.878, 547.797 
	L 362.337, 544.202 
" />
<path d="M 362.337, 544.202 
	L 390.121, 537.068 
	L 416.792, 526.508 
	L 441.929, 512.689 
	L 465.136, 495.828 
	L 486.047, 476.191 
	L 504.331, 454.089 
	L 519.701, 429.870 
	L 531.915, 403.914 
	L 540.780, 376.633 
	L 546.154, 348.456 
" />
<path d="M 546.154, 348.456 
" />
<path d="M 545.270, 316.992 
	L 545.269, 316.993 
	L 543.507, 288.994 
	L 538.250, 261.437 
	L 529.581, 234.755 
	L 517.636, 209.371 
	L 502.604, 185.685 
	L 484.722, 164.069 
	L 464.271, 144.864 
	L 441.575, 128.374 
	L 416.991, 114.859 
" />
<path d="M 416.991, 114.859 
	L 390.907, 104.532 
	L 363.734, 97.555 
	L 335.901, 94.039 
	L 307.847, 94.039 
	L 280.014, 97.555 
	L 252.841, 104.532 
	L 226.758, 114.859 
	L 202.173, 128.374 
	L 179.477, 144.864 
	L 159.026, 164.069 
" />
<path d="M 159.026, 164.069 
	L 141.144, 185.685 
	L 126.112, 209.371 
	L 114.167, 234.755 
	L 105.498, 261.437 
	L 100.241, 288.994 
	L 98.479, 316.993 
	L 100.241, 344.991 
	L 105.498, 372.549 
	L 114.167, 399.230 
	L 126.112, 424.614 
" />
<path d="M 126.112, 424.614 
	L 141.144, 448.301 
	L 159.026, 469.917 
	L 179.477, 489.122 
	L 202.173, 505.612 
	L 226.758, 519.126 
	L 252.841, 529.454 
	L 280.014, 536.431 
	L 307.847, 539.947 
	L 335.901, 539.947 
	L 363.734, 536.431 
" />
<path d="M 363.734, 536.431 
	L 390.907, 529.454 
	L 416.991, 519.126 
	L 441.575, 505.612 
	L 464.271, 489.122 
	L 484.722, 469.917 
	L 502.604, 448.301 
	L 517.636, 424.614 
	L 529.581, 399.230 
	L 538.250, 372.549 
" />
<path d="M 533.481, 319.118 
	L 533.480, 319.119 
	L 531.758, 291.736 
	L 526.616, 264.785 
	L 518.138, 238.691 
	L 506.456, 213.866 
	L 491.754, 190.699 
	L 474.265, 169.559 
	L 454.265, 150.777 
	L 432.067, 134.650 
	L 408.025, 121.432 
" />
<path d="M 408.025, 121.432 
	L 382.514, 111.332 
	L 355.939, 104.508 
	L 328.718, 101.070 
	L 301.282, 101.070 
	L 274.061, 104.508 
	L 247.486, 111.332 
	L 221.975, 121.432 
" />
<path d="M 98.243, 291.735 
	L 98.242, 291.736 
	L 96.520, 319.119 
" />
<path d="M 96.520, 319.118 
	L 96.520, 319.119 
	L 98.242, 346.501 
	L 103.384, 373.453 
	L 111.862, 399.547 
	L 123.545, 424.372 
	L 138.246, 447.538 
	L 155.735, 468.679 
	L 175.735, 487.461 
	L 197.933, 503.588 
	L 221.975, 516.806 
" />
<path d="M 221.975, 516.806 
	L 247.486, 526.905 
	L 274.061, 533.729 
	L 301.282, 537.168 
	L 328.718, 537.168 
	L 355.939, 533.729 
	L 382.514, 526.905 
	L 408.025, 516.806 
	L 432.067, 503.588 
	L 454.265, 487.461 
	L 474.265, 468.679 
" />
<path d="M 474.265, 468.679 
	L 491.754, 447.538 
" />
<path d="M 525.840, 319.756 
	L 525.839, 319.757 
	L 524.154, 292.976 
	L 519.126, 266.618 
	L 510.834, 241.098 
	L 499.409, 216.819 
	L 485.031, 194.163 
	L 467.926, 173.487 
	L 448.366, 155.118 
	L 426.657, 139.346 
	L 403.143, 126.419 
" />
<path d="M 403.143, 126.419 
	L 378.194, 116.541 
	L 352.204, 109.868 
	L 325.582, 106.505 
" />
<path d="M 175.966, 155.118 
	L 175.965, 155.118 
	L 156.404, 173.487 
	L 139.300, 194.163 
	L 124.922, 216.819 
	L 113.497, 241.098 
	L 105.205, 266.618 
	L 100.176, 292.976 
	L 98.492, 319.757 
	L 100.176, 346.537 
	L 105.205, 372.895 
" />
<path d="M 105.205, 372.895 
	L 113.497, 398.415 
	L 124.922, 422.695 
	L 139.300, 445.351 
	L 156.404, 466.026 
	L 175.965, 484.395 
	L 197.673, 500.167 
	L 221.187, 513.094 
	L 246.137, 522.972 
	L 272.127, 529.645 
	L 298.749, 533.008 
" />
<path d="M 298.749, 533.008 
" />
<path d="M 499.409, 422.694 
	L 499.409, 422.695 
	L 510.834, 398.415 
	L 519.126, 372.895 
	L 524.154, 346.537 
	L 525.839, 319.757 
	L 524.154, 292.976 
	L 519.126, 266.618 
	L 510.834, 241.098 
	L 499.409, 216.819 
	L 485.031, 194.163 
" />
<path d="M 485.031, 194.163 
	L 467.926, 173.487 
	L 448.366, 155.118 
	L 426.657, 139.346 
	L 403.143, 126.419 
	L 378.194, 116.541 
	L 352.204, 109.868 
	L 325.582, 106.505 
	L 298.749, 106.505 
	L 272.127, 109.868 
	L 246.137, 116.541 
" />
<path d="M 246.137, 116.541 
	L 221.187, 126.419 
	L 197.673, 139.346 
	L 175.965, 155.118 
	L 156.404, 173.487 
" />
<path d="M 525.037, 329.748 
	L 525.036, 329.749 
	L 523.388, 303.557 
	L 518.470, 277.779 
	L 510.361, 252.821 
	L 499.188, 229.076 
	L 485.126, 206.918 
	L 468.398, 186.697 
	L 449.267, 168.732 
	L 428.037, 153.307 
	L 405.039, 140.664 
" />
<path d="M 405.039, 140.664 
" />
<path d="M 302.942, 121.188 
	L 302.941, 121.188 
	L 276.905, 124.478 
	L 251.487, 131.004 
	L 227.087, 140.664 
" />
<path d="M 204.090, 153.306 
	L 204.090, 153.307 
	L 182.859, 168.732 
" />
<path d="M 182.859, 168.732 
	L 182.859, 168.732 
	L 163.728, 186.697 
	L 147.001, 206.918 
	L 132.939, 229.076 
	L 121.765, 252.821 
	L 113.656, 277.779 
	L 108.738, 303.557 
	L 107.090, 329.749 
	L 108.738, 355.940 
	L 113.656, 381.718 
" />
<path d="M 113.656, 381.718 
	L 121.765, 406.677 
	L 132.939, 430.422 
	L 147.001, 452.580 
	L 163.728, 472.801 
	L 182.859, 490.765 
	L 204.090, 506.191 
	L 227.087, 518.833 
	L 251.487, 528.494 
	L 276.905, 535.020 
	L 302.941, 538.309 
" />
<path d="M 302.941, 538.309 
	L 329.185, 538.309 
	L 355.221, 535.020 
	L 380.639, 528.494 
" />
<path d="M 531.990, 328.969 
	L 531.989, 328.969 
	L 530.378, 303.354 
	L 525.569, 278.143 
" />
<path d="M 517.638, 253.733 
	L 517.638, 253.733 
	L 506.710, 230.511 
	L 492.957, 208.840 
	L 476.598, 189.065 
	L 457.888, 171.495 
	L 437.124, 156.409 
	L 414.633, 144.045 
	L 390.769, 134.597 
	L 365.910, 128.214 
	L 340.447, 124.997 
" />
<path d="M 340.447, 124.997 
	L 314.781, 124.997 
	L 289.318, 128.214 
	L 264.459, 134.597 
	L 240.596, 144.045 
	L 218.105, 156.409 
	L 197.340, 171.495 
	L 178.631, 189.065 
	L 162.271, 208.840 
	L 148.518, 230.511 
	L 137.591, 253.733 
" />
<path d="M 137.591, 253.733 
	L 129.660, 278.143 
" />
<path d="M 218.105, 501.528 
	L 218.105, 501.529 
	L 240.596, 513.894 
	L 264.459, 523.342 
	L 289.318, 529.724 
	L 314.781, 532.941 
	L 340.447, 532.941 
	L 365.910, 529.724 
	L 390.769, 523.342 
	L 414.633, 513.894 
	L 437.124, 501.529 
" />
<path d="M 437.124, 501.529 
	L 457.888, 486.443 
	L 476.598, 468.874 
	L 492.957, 449.098 
	L 506.710, 427.428 
	L 517.638, 404.205 
	L 525.569, 379.795 
	L 530.378, 354.584 
	L 531.989, 328.969 
	L 530.378, 303.354 
	L 525.569, 278.143 
" />
<path d="M 525.569, 278.143 
	L 517.638, 253.733 
	L 506.710, 230.511 
	L 492.957, 208.840 
	L 476.598, 189.065 
	L 457.888, 171.495 
	L 437.124, 156.409 
" />
<path d="M 525.652, 324.150 
	L 525.651, 324.150 
	L 524.074, 299.099 
	L 519.371, 274.443 
	L 511.615, 250.570 
	L 500.927, 227.858 
	L 487.477, 206.664 
	L 471.477, 187.323 
	L 453.179, 170.141 
	L 432.872, 155.387 
	L 410.876, 143.294 
" />
<path d="M 410.876, 143.294 
	L 387.538, 134.054 
	L 363.225, 127.811 
	L 338.322, 124.666 
	L 313.221, 124.666 
	L 288.318, 127.811 
	L 264.005, 134.054 
	L 240.667, 143.294 
	L 218.671, 155.387 
	L 198.364, 170.141 
	L 180.066, 187.323 
" />
<path d="M 180.066, 187.323 
	L 164.066, 206.664 
	L 150.616, 227.858 
	L 139.929, 250.570 
	L 132.172, 274.443 
	L 127.469, 299.099 
	L 125.892, 324.150 
	L 127.469, 349.201 
	L 132.172, 373.858 
	L 139.929, 397.731 
	L 150.616, 420.443 
" />
<path d="M 150.616, 420.443 
	L 164.066, 441.636 
	L 180.066, 460.977 
	L 198.364, 478.159 
	L 218.671, 492.914 
	L 240.667, 505.006 
	L 264.005, 514.247 
	L 288.318, 520.489 
	L 313.221, 523.635 
" />
<path d="M 511.687, 328.402 
	L 511.686, 328.402 
	L 510.145, 303.902 
	L 505.545, 279.788 
	L 497.959, 256.441 
	L 487.507, 234.228 
	L 474.353, 213.501 
	L 458.705, 194.586 
	L 440.809, 177.781 
	L 420.949, 163.351 
	L 399.437, 151.525 
" />
<path d="M 399.437, 151.525 
	L 376.612, 142.488 
	L 352.834, 136.383 
	L 328.479, 133.306 
	L 303.930, 133.306 
	L 279.575, 136.383 
" />
<path d="M 144.904, 234.228 
	L 144.903, 234.228 
	L 134.451, 256.441 
	L 126.865, 279.788 
	L 122.265, 303.902 
	L 120.723, 328.402 
" />
<path d="M 126.865, 377.016 
	L 126.865, 377.016 
	L 134.451, 400.364 
	L 144.903, 422.576 
	L 158.057, 443.303 
	L 173.705, 462.219 
	L 191.600, 479.023 
	L 211.460, 493.453 
	L 232.972, 505.279 
" />
<path d="M 303.931, 523.497 
	L 303.930, 523.498 
	L 328.479, 523.498 
	L 352.834, 520.421 
	L 376.612, 514.317 
	L 399.437, 505.279 
	L 420.949, 493.453 
	L 440.809, 479.023 
	L 458.705, 462.219 
	L 474.353, 443.303 
	L 487.507, 422.576 
" />
<path d="M 487.507, 422.576 
	L 497.959, 400.364 
	L 505.545, 377.016 
	L 510.145, 352.903 
" />
<path d="M 508.591, 323.157 
	L 508.591, 323.158 
	L 507.083, 299.197 
	L 502.584, 275.613 
	L 495.165, 252.780 
	L 484.943, 231.056 
	L 472.078, 210.785 
	L 456.775, 192.285 
	L 439.273, 175.851 
	L 419.849, 161.739 
	L 398.811, 150.172 
" />
<path d="M 398.811, 150.172 
	L 376.488, 141.334 
	L 353.233, 135.364 
	L 329.414, 132.355 
	L 305.405, 132.355 
	L 281.586, 135.364 
	L 258.331, 141.334 
	L 236.008, 150.172 
	L 214.970, 161.739 
	L 195.546, 175.851 
	L 178.044, 192.285 
" />
<path d="M 178.044, 192.285 
	L 162.741, 210.785 
	L 149.876, 231.056 
	L 139.654, 252.780 
	L 132.235, 275.613 
	L 127.736, 299.197 
	L 126.228, 323.158 
	L 127.736, 347.119 
	L 132.235, 370.703 
	L 139.654, 393.537 
	L 149.876, 415.260 
" />
<path d="M 149.876, 415.260 
	L 162.741, 435.531 
	L 178.044, 454.031 
	L 195.546, 470.466 
	L 214.970, 484.578 
	L 236.008, 496.144 
	L 258.331, 504.982 
	L 281.586, 510.953 
	L 305.405, 513.962 
	L 329.414, 513.962 
	L 353.233, 510.953 
" />
<path d="M 353.233, 510.953 
	L 376.488, 504.982 
	L 398.811, 496.144 
" />
<path d="M 505.165, 317.417 
	L 505.164, 317.418 
	L 503.690, 293.984 
	L 499.290, 270.919 
	L 492.034, 248.588 
	L 482.037, 227.342 
	L 469.455, 207.517 
	L 454.488, 189.425 
	L 437.372, 173.351 
	L 418.375, 159.549 
	L 397.799, 148.238 
" />
<path d="M 397.799, 148.238 
	L 375.968, 139.594 
	L 353.225, 133.755 
	L 329.929, 130.812 
	L 306.449, 130.812 
	L 283.153, 133.755 
	L 260.410, 139.594 
	L 238.579, 148.238 
	L 218.003, 159.549 
	L 199.006, 173.351 
" />
<path d="M 137.088, 363.916 
	L 137.088, 363.917 
	L 144.344, 386.248 
	L 154.342, 407.494 
	L 166.923, 427.319 
	L 181.890, 445.411 
" />
<path d="M 218.003, 475.286 
	L 218.003, 475.287 
	L 238.579, 486.598 
	L 260.410, 495.242 
" />
<path d="M 283.154, 501.080 
	L 283.153, 501.081 
	L 306.449, 504.024 
	L 329.929, 504.024 
	L 353.225, 501.081 
	L 375.968, 495.242 
	L 397.799, 486.598 
	L 418.375, 475.287 
	L 437.372, 461.485 
	L 454.488, 445.411 
	L 469.455, 427.319 
" />
<path d="M 469.455, 427.319 
	L 482.037, 407.494 
	L 492.034, 386.248 
	L 499.290, 363.917 
	L 503.690, 340.852 
" />
<path d="M 508.138, 325.780 
	L 508.137, 325.780 
	L 506.695, 302.861 
	L 502.392, 280.305 
	L 495.296, 258.464 
	L 485.519, 237.686 
	L 473.214, 218.297 
	L 458.576, 200.603 
	L 441.836, 184.883 
	L 423.258, 171.385 
	L 403.134, 160.322 
" />
<path d="M 403.134, 160.322 
	L 381.783, 151.868 
	L 359.541, 146.157 
	L 336.757, 143.279 
	L 313.794, 143.279 
	L 291.010, 146.157 
	L 268.768, 151.868 
	L 247.417, 160.322 
	L 227.293, 171.385 
	L 208.715, 184.883 
	L 191.975, 200.603 
" />
<path d="M 191.975, 200.603 
	L 177.338, 218.297 
	L 165.032, 237.686 
	L 155.255, 258.464 
	L 148.159, 280.305 
	L 143.856, 302.861 
	L 142.414, 325.780 
	L 143.856, 348.699 
	L 148.159, 371.256 
	L 155.255, 393.096 
	L 165.032, 413.875 
" />
<path d="M 165.032, 413.875 
	L 177.338, 433.264 
	L 191.975, 450.957 
	L 208.715, 466.678 
	L 227.293, 480.176 
	L 247.417, 491.238 
	L 268.768, 499.692 
	L 291.010, 505.403 
	L 313.794, 508.281 
	L 336.757, 508.281 
	L 359.541, 505.403 
" />
<path d="M 359.541, 505.403 
	L 381.783, 499.692 
	L 403.134, 491.238 
	L 423.258, 480.176 
	L 441.836, 466.678 
	L 458.576, 450.957 
	L 473.214, 433.264 
	L 485.519, 413.875 
	L 495.296, 393.096 
	L 502.392, 371.256 
" />
<path d="M 493.768, 314.512 
	L 493.768, 314.512 
	L 492.357, 292.098 
	L 488.149, 270.037 
	L 481.210, 248.678 
	L 471.647, 228.356 
	L 459.613, 209.394 
	L 445.297, 192.089 
	L 428.925, 176.715 
	L 410.756, 163.514 
	L 391.075, 152.695 
" />
<path d="M 391.075, 152.695 
	L 370.193, 144.427 
	L 348.440, 138.842 
	L 326.159, 136.027 
	L 303.700, 136.027 
	L 281.418, 138.842 
	L 259.665, 144.427 
	L 238.784, 152.695 
	L 219.103, 163.514 
	L 200.933, 176.715 
" />
<path d="M 141.710, 358.987 
	L 141.709, 358.988 
	L 148.649, 380.347 
	L 158.212, 400.669 
	L 170.245, 419.631 
	L 184.562, 436.936 
	L 200.933, 452.310 
	L 219.103, 465.511 
	L 238.784, 476.330 
" />
<path d="M 303.700, 492.997 
	L 303.700, 492.998 
	L 326.159, 492.998 
	L 348.440, 490.183 
	L 370.193, 484.598 
	L 391.075, 476.330 
	L 410.756, 465.511 
	L 428.925, 452.310 
	L 445.297, 436.936 
	L 459.613, 419.631 
	L 471.647, 400.669 
" />
<path d="M 471.647, 400.669 
	L 481.210, 380.347 
	L 488.149, 358.988 
	L 492.357, 336.927 
	L 493.768, 314.512 
	L 492.357, 292.098 
" />
<path d="M 488.842, 319.047 
	L 488.841, 319.048 
	L 487.462, 297.127 
	L 483.346, 275.551 
	L 476.559, 254.661 
	L 467.207, 234.787 
	L 455.438, 216.242 
	L 441.437, 199.317 
	L 425.425, 184.282 
	L 407.655, 171.371 
	L 388.407, 160.790 
" />
<path d="M 388.407, 160.790 
	L 367.985, 152.704 
	L 346.711, 147.241 
	L 324.919, 144.489 
" />
<path d="M 202.450, 184.281 
	L 202.449, 184.282 
	L 186.438, 199.317 
	L 172.436, 216.242 
	L 160.667, 234.787 
	L 151.315, 254.661 
	L 144.528, 275.551 
" />
<path d="M 139.034, 319.047 
	L 139.033, 319.048 
	L 140.412, 340.969 
	L 144.528, 362.545 
	L 151.315, 383.435 
	L 160.667, 403.308 
	L 172.436, 421.854 
	L 186.438, 438.778 
	L 202.449, 453.814 
	L 220.219, 466.724 
" />
<path d="M 302.956, 493.606 
	L 302.955, 493.607 
	L 324.919, 493.607 
	L 346.711, 490.854 
	L 367.985, 485.392 
	L 388.407, 477.306 
	L 407.655, 466.724 
	L 425.425, 453.814 
	L 441.437, 438.778 
	L 455.438, 421.854 
	L 467.207, 403.308 
" />
<path d="M 467.207, 403.308 
	L 476.559, 383.435 
	L 483.346, 362.545 
	L 487.462, 340.969 
" />
<path d="M 489.742, 317.984 
	L 489.742, 317.985 
	L 488.392, 296.546 
	L 484.367, 275.445 
	L 477.729, 255.015 
	L 468.583, 235.578 
	L 457.072, 217.441 
	L 443.380, 200.889 
	L 427.720, 186.184 
	L 410.342, 173.558 
	L 391.517, 163.208 
" />
<path d="M 391.517, 163.208 
	L 371.544, 155.300 
	L 350.738, 149.958 
	L 329.426, 147.266 
	L 307.945, 147.266 
	L 286.632, 149.958 
	L 265.826, 155.300 
	L 245.853, 163.208 
	L 227.028, 173.558 
	L 209.650, 186.184 
	L 193.990, 200.889 
" />
<path d="M 193.990, 200.889 
	L 180.298, 217.441 
	L 168.788, 235.578 
	L 159.641, 255.015 
	L 153.003, 275.445 
	L 148.978, 296.546 
	L 147.628, 317.985 
" />
<path d="M 307.945, 488.703 
	L 307.945, 488.704 
	L 329.426, 488.704 
	L 350.738, 486.011 
	L 371.544, 480.670 
	L 391.517, 472.762 
	L 410.342, 462.412 
	L 427.720, 449.786 
	L 443.380, 435.081 
	L 457.072, 418.529 
	L 468.583, 400.392 
" />
<path d="M 468.583, 400.392 
	L 477.729, 380.955 
	L 484.367, 360.525 
	L 488.392, 339.424 
	L 489.742, 317.985 
	L 488.392, 296.546 
	L 484.367, 275.445 
	L 477.729, 255.015 
	L 468.583, 235.578 
	L 457.072, 217.441 
" />
<path d="M 493.420, 324.504 
	L 493.419, 324.505 
	L 492.100, 303.537 
	L 488.164, 282.901 
	L 481.672, 262.920 
	L 472.726, 243.911 
	L 461.469, 226.172 
	L 448.077, 209.985 
" />
<path d="M 397.356, 173.132 
	L 397.356, 173.133 
	L 377.822, 165.399 
	L 357.474, 160.175 
" />
<path d="M 336.631, 157.541 
	L 336.631, 157.542 
	L 315.622, 157.542 
	L 294.778, 160.175 
	L 274.430, 165.399 
	L 254.896, 173.133 
	L 236.486, 183.254 
	L 219.489, 195.603 
	L 204.175, 209.985 
	L 190.783, 226.172 
	L 179.526, 243.911 
" />
<path d="M 179.526, 243.911 
	L 170.581, 262.920 
	L 164.088, 282.901 
	L 160.152, 303.537 
	L 158.833, 324.505 
	L 160.152, 345.472 
	L 164.088, 366.109 
	L 170.581, 386.089 
	L 179.526, 405.099 
	L 190.783, 422.837 
	L 204.175, 439.024 
" />
<path d="M 204.175, 439.024 
	L 219.489, 453.406 
" />
<path d="M 415.767, 465.754 
	L 415.766, 465.755 
	L 432.763, 453.406 
	L 448.077, 439.024 
	L 461.469, 422.837 
	L 472.726, 405.099 
	L 481.672, 386.089 
	L 488.164, 366.109 
	L 492.100, 345.472 
	L 493.419, 324.505 
	L 492.100, 303.537 
" />
<path d="M 492.100, 303.537 
	L 488.164, 282.901 
" />
<path d="M 476.133, 318.409 
	L 476.133, 318.410 
	L 474.842, 297.904 
	L 470.992, 277.722 
	L 464.643, 258.180 
	L 455.895, 239.589 
	L 444.885, 222.241 
	L 431.788, 206.410 
	L 416.811, 192.344 
	L 400.188, 180.267 
	L 382.183, 170.369 
" />
<path d="M 382.183, 170.369 
	L 363.079, 162.805 
	L 343.178, 157.696 
	L 322.793, 155.120 
	L 302.246, 155.120 
	L 281.862, 157.696 
	L 261.960, 162.805 
	L 242.857, 170.369 
	L 224.852, 180.267 
	L 208.229, 192.344 
	L 193.251, 206.410 
" />
<path d="M 193.251, 206.410 
	L 180.155, 222.241 
	L 169.145, 239.589 
	L 160.396, 258.180 
	L 154.047, 277.722 
	L 150.197, 297.904 
	L 148.907, 318.410 
	L 150.197, 338.916 
	L 154.047, 359.099 
" />
<path d="M 363.080, 474.014 
	L 363.079, 474.015 
	L 382.183, 466.452 
	L 400.188, 456.553 
	L 416.811, 444.476 
	L 431.788, 430.411 
	L 444.885, 414.579 
	L 455.895, 397.231 
	L 464.643, 378.640 
" />
<path d="M 477.281, 314.866 
	L 477.281, 314.867 
	L 476.019, 294.812 
	L 472.254, 275.073 
	L 466.044, 255.962 
	L 457.488, 237.780 
	L 446.721, 220.813 
	L 433.912, 205.330 
	L 419.264, 191.575 
	L 403.007, 179.763 
	L 385.398, 170.082 
" />
<path d="M 385.398, 170.082 
	L 366.715, 162.685 
	L 347.251, 157.688 
	L 327.315, 155.169 
	L 307.220, 155.169 
	L 287.284, 157.688 
	L 267.821, 162.685 
	L 249.138, 170.082 
	L 231.528, 179.763 
	L 215.272, 191.575 
	L 200.623, 205.330 
" />
<path d="M 200.623, 205.330 
	L 187.814, 220.813 
" />
<path d="M 187.815, 408.920 
	L 187.814, 408.920 
	L 200.623, 424.403 
	L 215.272, 438.159 
	L 231.528, 449.970 
	L 249.138, 459.651 
	L 267.821, 467.048 
	L 287.284, 472.046 
	L 307.220, 474.564 
	L 327.315, 474.564 
	L 347.251, 472.046 
" />
<path d="M 347.251, 472.046 
	L 366.715, 467.048 
	L 385.398, 459.651 
	L 403.007, 449.970 
	L 419.264, 438.159 
	L 433.912, 424.403 
	L 446.721, 408.920 
	L 457.488, 391.954 
	L 466.044, 373.771 
	L 472.254, 354.660 
	L 476.019, 334.922 
" />
<path d="M 476.019, 334.922 
	L 477.281, 314.867 
	L 476.019, 294.812 
	L 472.254, 275.073 
	L 466.044, 255.962 
	L 457.488, 237.780 
	L 446.721, 220.813 
	L 433.912, 205.330 
	L 419.264, 191.575 
	L 403.007, 179.763 
	L 385.398, 170.082 
" />
<path d="M 385.398, 170.082 
	L 366.715, 162.685 
	L 347.251, 157.688 
	L 327.315, 155.169 
	L 307.220, 155.169 
	L 287.284, 157.688 
	L 267.821, 162.685 
	L 249.138, 170.082 
	L 231.528, 179.763 
	L 215.272, 191.575 
	L 200.623, 205.330 
" />
<path d="M 200.623, 205.330 
	L 187.814, 220.813 
" />
<path d="M 469.510, 320.961 
	L 469.509, 320.961 
	L 468.275, 301.348 
	L 464.592, 282.043 
	L 458.519, 263.352 
	L 450.152, 245.570 
	L 439.621, 228.977 
	L 427.094, 213.834 
	L 412.768, 200.381 
	L 396.869, 188.830 
	L 379.647, 179.362 
" />
<path d="M 379.647, 179.362 
	L 361.375, 172.128 
	L 342.340, 167.241 
	L 322.842, 164.777 
	L 303.189, 164.777 
	L 283.692, 167.241 
	L 264.657, 172.128 
	L 246.385, 179.362 
	L 229.163, 188.830 
	L 213.263, 200.381 
	L 198.938, 213.834 
" />
<path d="M 198.938, 213.834 
	L 186.411, 228.977 
	L 175.880, 245.570 
	L 167.513, 263.352 
	L 161.439, 282.043 
	L 157.757, 301.348 
	L 156.523, 320.961 
	L 157.757, 340.575 
	L 161.439, 359.880 
" />
<path d="M 361.376, 469.794 
	L 361.375, 469.795 
	L 379.647, 462.560 
	L 396.869, 453.093 
	L 412.768, 441.541 
	L 427.094, 428.088 
	L 439.621, 412.946 
	L 450.152, 396.352 
	L 458.519, 378.571 
	L 464.592, 359.880 
	L 468.275, 340.575 
" />
<path d="M 468.275, 340.575 
	L 469.509, 320.961 
	L 468.275, 301.348 
	L 464.592, 282.043 
	L 458.519, 263.352 
	L 450.152, 245.570 
	L 439.621, 228.977 
	L 427.094, 213.834 
	L 412.768, 200.381 
	L 396.869, 188.830 
	L 379.647, 179.362 
" />
<path d="M 379.647, 179.362 
	L 361.375, 172.128 
	L 342.340, 167.241 
	L 322.842, 164.777 
	L 303.189, 164.777 
	L 283.692, 167.241 
	L 264.657, 172.128 
	L 246.385, 179.362 
	L 229.163, 188.830 
	L 213.263, 200.381 
	L 198.938, 213.834 
" />
<path d="M 198.938, 213.834 
	L 186.411, 228.977 
	L 175.880, 245.570 
" />
<path d="M 479.602, 326.276 
	L 479.602, 326.276 
	L 478.395, 307.094 
	L 474.793, 288.214 
	L 468.853, 269.935 
	L 460.670, 252.544 
	L 450.371, 236.316 
	L 438.120, 221.506 
	L 424.109, 208.349 
	L 408.560, 197.052 
	L 391.717, 187.792 
" />
<path d="M 391.717, 187.792 
	L 373.847, 180.717 
	L 355.230, 175.937 
" />
<path d="M 261.386, 187.792 
	L 261.386, 187.792 
	L 244.543, 197.052 
	L 228.993, 208.349 
	L 214.982, 221.506 
	L 202.731, 236.316 
	L 192.432, 252.544 
	L 184.249, 269.935 
	L 178.309, 288.214 
	L 174.708, 307.094 
	L 173.501, 326.276 
" />
<path d="M 173.501, 326.276 
	L 174.708, 345.458 
	L 178.309, 364.338 
	L 184.249, 382.618 
	L 192.432, 400.009 
	L 202.731, 416.237 
	L 214.982, 431.046 
	L 228.993, 444.203 
	L 244.543, 455.501 
	L 261.386, 464.760 
	L 279.256, 471.835 
" />
<path d="M 279.256, 471.835 
	L 297.872, 476.615 
	L 316.941, 479.024 
	L 336.161, 479.024 
	L 355.230, 476.615 
" />
<path d="M 474.250, 321.315 
	L 474.250, 321.316 
	L 473.070, 302.555 
	L 469.547, 284.091 
	L 463.739, 266.214 
	L 455.735, 249.205 
	L 445.663, 233.334 
	L 433.681, 218.850 
	L 419.978, 205.983 
	L 404.771, 194.934 
	L 388.299, 185.878 
" />
<path d="M 388.299, 185.878 
	L 370.821, 178.959 
	L 352.615, 174.284 
	L 333.966, 171.928 
	L 315.168, 171.928 
	L 296.519, 174.284 
	L 278.313, 178.959 
	L 260.835, 185.878 
	L 244.363, 194.934 
	L 229.156, 205.983 
	L 215.453, 218.850 
" />
<path d="M 215.453, 218.850 
	L 203.471, 233.334 
	L 193.399, 249.205 
	L 185.395, 266.214 
	L 179.587, 284.091 
	L 176.064, 302.555 
	L 174.884, 321.316 
	L 176.064, 340.076 
	L 179.587, 358.540 
	L 185.395, 376.418 
	L 193.399, 393.426 
" />
<path d="M 193.399, 393.426 
" />
<path d="M 419.979, 436.647 
	L 419.978, 436.648 
	L 433.681, 423.781 
	L 445.663, 409.297 
	L 455.735, 393.426 
	L 463.739, 376.418 
	L 469.547, 358.540 
	L 473.070, 340.076 
	L 474.250, 321.316 
	L 473.070, 302.555 
	L 469.547, 284.091 
" />
<path d="M 469.547, 284.091 
	L 463.739, 266.214 
	L 455.735, 249.205 
	L 445.663, 233.334 
	L 433.681, 218.850 
	L 419.978, 205.983 
	L 404.771, 194.934 
	L 388.299, 185.878 
	L 370.821, 178.959 
	L 352.615, 174.284 
	L 333.966, 171.928 
" />
<path d="M 333.966, 171.928 
	L 315.168, 171.928 
	L 296.519, 174.284 
	L 278.313, 178.959 
	L 260.835, 185.878 
	L 244.363, 194.934 
	L 229.156, 205.983 
	L 215.453, 218.850 
	L 203.471, 233.334 
	L 193.399, 249.205 
	L 185.395, 266.214 
" />
<path d="M 185.395, 266.214 
	L 179.587, 284.091 
	L 176.064, 302.555 
	L 174.884, 321.316 
	L 176.064, 340.076 
	L 179.587, 358.540 
	L 185.395, 376.418 
	L 193.399, 393.426 
	L 203.471, 409.297 
	L 215.453, 423.781 
	L 229.156, 436.648 
" />
<path d="M 229.156, 436.648 
	L 244.363, 447.697 
	L 260.835, 456.753 
	L 278.313, 463.672 
	L 296.519, 468.347 
	L 315.168, 470.703 
	L 333.966, 470.703 
	L 352.615, 468.347 
	L 370.821, 463.672 
" />
<path d="M 470.745, 316.213 
	L 470.744, 316.213 
	L 469.590, 297.866 
	L 466.146, 279.808 
	L 460.464, 262.324 
	L 452.637, 245.689 
	L 442.787, 230.168 
	L 431.068, 216.002 
	L 417.667, 203.418 
	L 402.794, 192.612 
	L 386.684, 183.756 
" />
<path d="M 386.684, 183.756 
	L 369.591, 176.988 
	L 351.785, 172.417 
	L 333.546, 170.112 
	L 315.162, 170.112 
	L 296.924, 172.417 
	L 279.118, 176.988 
	L 262.025, 183.756 
	L 245.915, 192.612 
	L 231.042, 203.418 
	L 217.641, 216.002 
" />
<path d="M 217.641, 216.002 
	L 205.922, 230.168 
	L 196.072, 245.689 
	L 188.245, 262.324 
" />
<path d="M 245.915, 439.814 
	L 245.915, 439.814 
	L 262.025, 448.671 
	L 279.118, 455.438 
	L 296.924, 460.010 
	L 315.162, 462.314 
	L 333.546, 462.314 
	L 351.785, 460.010 
	L 369.591, 455.438 
	L 386.684, 448.671 
	L 402.794, 439.814 
" />
<path d="M 402.794, 439.814 
" />
<path d="M 452.638, 386.736 
	L 452.637, 386.737 
	L 460.464, 370.103 
	L 466.146, 352.619 
	L 469.590, 334.561 
	L 470.744, 316.213 
	L 469.590, 297.866 
	L 466.146, 279.808 
	L 460.464, 262.324 
	L 452.637, 245.689 
	L 442.787, 230.168 
" />
<path d="M 442.787, 230.168 
	L 431.068, 216.002 
	L 417.667, 203.418 
	L 402.794, 192.612 
	L 386.684, 183.756 
	L 369.591, 176.988 
	L 351.785, 172.417 
	L 333.546, 170.112 
	L 315.162, 170.112 
	L 296.924, 172.417 
	L 279.118, 176.988 
" />
<path d="M 279.118, 176.988 
	L 262.025, 183.756 
	L 245.915, 192.612 
	L 231.042, 203.418 
	L 217.641, 216.002 
	L 205.922, 230.168 
	L 196.072, 245.689 
	L 188.245, 262.324 
	L 182.563, 279.808 
	L 179.118, 297.866 
	L 177.965, 316.213 
" />
<path d="M 177.965, 316.213 
" />
<path d="M 457.674, 323.937 
	L 457.673, 323.938 
	L 456.545, 305.994 
	L 453.176, 288.333 
	L 447.620, 271.234 
" />
<path d="M 439.965, 254.964 
	L 439.964, 254.965 
	L 430.330, 239.785 
	L 418.870, 225.931 
	L 405.763, 213.624 
	L 391.218, 203.056 
	L 375.462, 194.394 
	L 358.746, 187.775 
	L 341.331, 183.305 
	L 323.493, 181.051 
	L 305.515, 181.051 
" />
<path d="M 305.515, 181.051 
	L 287.677, 183.305 
	L 270.262, 187.775 
	L 253.546, 194.394 
	L 237.790, 203.056 
	L 223.245, 213.624 
	L 210.138, 225.931 
" />
<path d="M 172.464, 341.881 
	L 172.463, 341.882 
	L 175.832, 359.542 
	L 181.388, 376.642 
	L 189.044, 392.910 
	L 198.678, 408.091 
	L 210.138, 421.944 
	L 223.245, 434.251 
	L 237.790, 444.820 
	L 253.546, 453.481 
	L 270.262, 460.100 
" />
<path d="M 270.262, 460.100 
	L 287.677, 464.571 
	L 305.515, 466.824 
	L 323.493, 466.824 
	L 341.331, 464.571 
	L 358.746, 460.100 
" />
<path d="M 447.620, 376.641 
	L 447.620, 376.642 
	L 453.176, 359.542 
	L 456.545, 341.882 
	L 457.673, 323.938 
	L 456.545, 305.994 
	L 453.176, 288.333 
	L 447.620, 271.234 
	L 439.964, 254.965 
	L 430.330, 239.785 
	L 418.870, 225.931 
" />
<path d="M 418.870, 225.931 
	L 405.763, 213.624 
	L 391.218, 203.056 
	L 375.462, 194.394 
" />
<path d="M 465.367, 324.362 
	L 465.366, 324.363 
	L 464.262, 306.814 
	L 460.967, 289.541 
	L 455.533, 272.818 
	L 448.047, 256.908 
	L 438.625, 242.061 
	L 427.416, 228.513 
	L 414.598, 216.476 
	L 400.373, 206.140 
	L 384.964, 197.669 
" />
<path d="M 384.964, 197.669 
	L 368.615, 191.196 
	L 351.583, 186.823 
	L 334.138, 184.620 
	L 316.555, 184.620 
	L 299.110, 186.823 
	L 282.078, 191.196 
" />
<path d="M 195.160, 272.818 
	L 195.160, 272.818 
	L 189.726, 289.541 
	L 186.431, 306.814 
	L 185.327, 324.363 
	L 186.431, 341.912 
	L 189.726, 359.184 
	L 195.160, 375.907 
	L 202.646, 391.818 
	L 212.068, 406.665 
	L 223.277, 420.213 
" />
<path d="M 223.277, 420.213 
	L 236.095, 432.250 
	L 250.321, 442.585 
	L 265.729, 451.057 
	L 282.078, 457.530 
	L 299.110, 461.903 
	L 316.555, 464.106 
	L 334.138, 464.106 
	L 351.583, 461.903 
	L 368.615, 457.530 
	L 384.964, 451.057 
" />
<path d="M 384.964, 451.057 
	L 400.373, 442.585 
	L 414.598, 432.250 
	L 427.416, 420.213 
	L 438.625, 406.665 
	L 448.047, 391.818 
	L 455.533, 375.907 
	L 460.967, 359.184 
	L 464.262, 341.912 
	L 465.366, 324.363 
	L 464.262, 306.814 
" />
<path d="M 464.262, 306.814 
	L 460.967, 289.541 
	L 455.533, 272.818 
	L 448.047, 256.908 
	L 438.625, 242.061 
	L 427.416, 228.513 
	L 414.598, 216.476 
	L 400.373, 206.140 
	L 384.964, 197.669 
	L 368.615, 191.196 
	L 351.583, 186.823 
" />
<path d="M 351.583, 186.823 
	L 334.138, 184.620 
	L 316.555, 184.620 
	L 299.110, 186.823 
	L 282.078, 191.196 
	L 265.729, 197.669 
	L 250.321, 206.140 
	L 236.095, 216.476 
	L 223.277, 228.513 
	L 212.068, 242.061 
" />
<path d="M 461.152, 327.551 
	L 461.152, 327.552 
	L 460.072, 310.389 
	L 456.850, 293.496 
	L 451.536, 277.141 
	L 444.213, 261.581 
	L 434.999, 247.061 
	L 424.037, 233.811 
	L 411.501, 222.039 
	L 397.588, 211.930 
	L 382.518, 203.645 
" />
<path d="M 382.518, 203.645 
	L 366.529, 197.315 
	L 349.873, 193.038 
	L 332.811, 190.883 
	L 315.614, 190.883 
	L 298.553, 193.038 
	L 281.896, 197.315 
	L 265.907, 203.645 
	L 250.837, 211.930 
	L 236.924, 222.039 
	L 224.388, 233.811 
" />
<path d="M 224.388, 233.811 
	L 213.426, 247.061 
	L 204.212, 261.581 
" />
<path d="M 224.389, 421.292 
	L 224.388, 421.293 
	L 236.924, 433.065 
	L 250.837, 443.174 
	L 265.907, 451.459 
	L 281.896, 457.789 
	L 298.553, 462.066 
	L 315.614, 464.221 
	L 332.811, 464.221 
" />
<path d="M 382.519, 451.458 
	L 382.518, 451.459 
	L 397.588, 443.174 
	L 411.501, 433.065 
	L 424.037, 421.293 
	L 434.999, 408.043 
	L 444.213, 393.523 
	L 451.536, 377.963 
" />
<path d="M 458.281, 318.197 
	L 458.281, 318.198 
	L 457.225, 301.412 
	L 454.073, 284.891 
	L 448.876, 268.896 
	L 441.715, 253.678 
	L 432.703, 239.477 
	L 421.982, 226.519 
	L 409.723, 215.005 
	L 396.116, 205.119 
	L 381.378, 197.017 
" />
<path d="M 381.378, 197.017 
	L 365.740, 190.826 
	L 349.450, 186.643 
" />
<path d="M 267.332, 197.016 
	L 267.331, 197.017 
	L 252.593, 205.119 
	L 238.986, 215.005 
	L 226.726, 226.519 
	L 216.006, 239.477 
	L 206.994, 253.678 
	L 199.833, 268.896 
	L 194.635, 284.891 
	L 191.484, 301.412 
	L 190.428, 318.198 
" />
<path d="M 190.428, 318.198 
	L 191.484, 334.983 
	L 194.635, 351.504 
	L 199.833, 367.499 
	L 206.994, 382.717 
	L 216.006, 396.918 
	L 226.726, 409.876 
	L 238.986, 421.390 
	L 252.593, 431.276 
	L 267.331, 439.378 
	L 282.969, 445.570 
" />
<path d="M 282.969, 445.570 
	L 299.259, 449.752 
	L 315.945, 451.860 
	L 332.763, 451.860 
	L 349.450, 449.752 
	L 365.740, 445.570 
	L 381.378, 439.378 
	L 396.116, 431.276 
	L 409.723, 421.390 
	L 421.982, 409.876 
	L 432.703, 396.918 
" />
<path d="M 432.703, 396.918 
	L 441.715, 382.717 
	L 448.876, 367.499 
	L 454.073, 351.504 
	L 457.225, 334.983 
	L 458.281, 318.198 
	L 457.225, 301.412 
	L 454.073, 284.891 
	L 448.876, 268.896 
	L 441.715, 253.678 
	L 432.703, 239.477 
" />
<path d="M 432.703, 239.477 
	L 421.982, 226.519 
	L 409.723, 215.005 
	L 396.116, 205.119 
	L 381.378, 197.017 
	L 365.740, 190.826 
	L 349.450, 186.643 
	L 332.763, 184.535 
	L 315.945, 184.535 
" />
<path d="M 450.021, 325.780 
	L 450.020, 325.780 
	L 448.987, 309.364 
	L 445.905, 293.207 
	L 440.821, 277.563 
	L 433.819, 262.680 
	L 425.005, 248.792 
" />
<path d="M 402.530, 224.858 
	L 402.530, 224.858 
	L 389.222, 215.190 
	L 374.808, 207.266 
" />
<path d="M 359.515, 201.210 
	L 359.515, 201.211 
	L 343.582, 197.120 
	L 327.263, 195.058 
" />
<path d="M 310.816, 195.058 
	L 310.815, 195.058 
	L 294.496, 197.120 
	L 278.564, 201.211 
	L 263.271, 207.266 
	L 248.856, 215.190 
	L 235.549, 224.858 
	L 223.559, 236.118 
	L 213.074, 248.792 
	L 204.260, 262.680 
	L 197.257, 277.563 
" />
<path d="M 197.257, 277.563 
	L 192.174, 293.207 
	L 189.092, 309.364 
	L 188.059, 325.780 
	L 189.092, 342.196 
" />
<path d="M 235.550, 426.701 
	L 235.549, 426.702 
	L 248.856, 436.370 
	L 263.271, 444.295 
	L 278.564, 450.349 
	L 294.496, 454.441 
	L 310.815, 456.502 
	L 327.263, 456.502 
	L 343.582, 454.441 
	L 359.515, 450.349 
	L 374.808, 444.295 
" />
<path d="M 374.808, 444.295 
	L 389.222, 436.370 
	L 402.530, 426.702 
	L 414.520, 415.442 
	L 425.005, 402.768 
	L 433.819, 388.880 
	L 440.821, 373.998 
	L 445.905, 358.354 
	L 448.987, 342.196 
	L 450.020, 325.780 
	L 448.987, 309.364 
" />
<path d="M 448.987, 309.364 
	L 445.905, 293.207 
	L 440.821, 277.563 
	L 433.819, 262.680 
	L 425.005, 248.792 
	L 414.520, 236.118 
" />
<path d="M 450.611, 329.323 
	L 450.610, 329.324 
	L 449.600, 313.269 
	L 446.586, 297.466 
	L 441.615, 282.167 
	L 434.765, 267.612 
	L 426.146, 254.029 
	L 415.891, 241.634 
	L 404.165, 230.622 
	L 391.151, 221.166 
	L 377.053, 213.416 
" />
<path d="M 377.053, 213.416 
	L 362.096, 207.495 
	L 346.515, 203.494 
	L 330.555, 201.477 
	L 314.469, 201.477 
	L 298.509, 203.494 
	L 282.927, 207.495 
	L 267.970, 213.416 
	L 253.873, 221.166 
	L 240.858, 230.622 
	L 229.132, 241.634 
" />
<path d="M 229.132, 241.634 
	L 218.878, 254.029 
	L 210.258, 267.612 
	L 203.409, 282.167 
	L 198.438, 297.466 
	L 195.423, 313.269 
	L 194.413, 329.324 
	L 195.423, 345.378 
	L 198.438, 361.181 
	L 203.409, 376.480 
	L 210.258, 391.035 
" />
<path d="M 210.258, 391.035 
	L 218.878, 404.618 
	L 229.132, 417.013 
	L 240.858, 428.025 
	L 253.873, 437.481 
	L 267.970, 445.231 
	L 282.927, 451.152 
	L 298.509, 455.153 
	L 314.469, 457.170 
" />
<path d="M 448.148, 318.339 
	L 448.147, 318.339 
	L 447.159, 302.637 
	L 444.211, 287.183 
	L 439.349, 272.220 
	L 432.651, 257.985 
	L 424.220, 244.702 
	L 414.191, 232.579 
	L 402.723, 221.809 
	L 389.995, 212.562 
	L 376.208, 204.982 
" />
<path d="M 376.208, 204.982 
	L 361.580, 199.191 
	L 346.341, 195.278 
	L 330.732, 193.306 
	L 315.000, 193.306 
	L 299.391, 195.278 
	L 284.153, 199.191 
	L 269.525, 204.982 
	L 255.738, 212.562 
	L 243.009, 221.809 
	L 231.541, 232.579 
" />
<path d="M 231.541, 232.579 
	L 221.512, 244.702 
	L 213.082, 257.985 
" />
<path d="M 231.542, 404.099 
	L 231.541, 404.099 
	L 243.009, 414.870 
	L 255.738, 424.117 
	L 269.525, 431.696 
	L 284.153, 437.488 
	L 299.391, 441.400 
	L 315.000, 443.373 
	L 330.732, 443.373 
" />
<path d="M 376.209, 431.695 
	L 376.208, 431.696 
	L 389.995, 424.117 
	L 402.723, 414.870 
	L 414.191, 404.099 
" />
<path d="M 424.221, 391.976 
	L 424.220, 391.977 
	L 432.651, 378.694 
	L 439.349, 364.458 
	L 444.211, 349.496 
	L 447.159, 334.041 
	L 448.147, 318.339 
	L 447.159, 302.637 
	L 444.211, 287.183 
	L 439.349, 272.220 
	L 432.651, 257.985 
" />
<path d="M 432.651, 257.985 
	L 424.220, 244.702 
	L 414.191, 232.579 
" />
<path d="M 445.391, 318.976 
	L 445.390, 318.977 
	L 444.424, 303.620 
	L 441.541, 288.507 
	L 436.786, 273.873 
	L 430.235, 259.951 
	L 421.990, 246.959 
	L 412.182, 235.103 
	L 400.966, 224.571 
	L 388.518, 215.527 
	L 375.034, 208.114 
" />
<path d="M 375.034, 208.114 
	L 360.729, 202.450 
" />
<path d="M 285.005, 202.449 
	L 285.004, 202.450 
	L 270.698, 208.114 
	L 257.214, 215.527 
	L 244.766, 224.571 
	L 233.550, 235.103 
	L 223.742, 246.959 
	L 215.498, 259.951 
	L 208.946, 273.873 
	L 204.191, 288.507 
	L 201.308, 303.620 
" />
<path d="M 201.308, 303.620 
	L 200.342, 318.977 
	L 201.308, 334.334 
	L 204.191, 349.447 
	L 208.946, 364.081 
	L 215.498, 378.004 
	L 223.742, 390.995 
	L 233.550, 402.851 
	L 244.766, 413.384 
	L 257.214, 422.427 
	L 270.698, 429.840 
" />
<path d="M 270.698, 429.840 
" />
<path d="M 400.967, 413.383 
	L 400.966, 413.384 
	L 412.182, 402.851 
	L 421.990, 390.995 
	L 430.235, 378.004 
	L 436.786, 364.081 
	L 441.541, 349.447 
	L 444.424, 334.334 
	L 445.390, 318.977 
	L 444.424, 303.620 
	L 441.541, 288.507 
" />
<path d="M 441.541, 288.507 
	L 436.786, 273.873 
	L 430.235, 259.951 
	L 421.990, 246.959 
	L 412.182, 235.103 
	L 400.966, 224.571 
	L 388.518, 215.527 
	L 375.034, 208.114 
	L 360.729, 202.450 
	L 345.825, 198.623 
	L 330.559, 196.695 
" />
<path d="M 330.559, 196.695 
	L 315.173, 196.695 
" />
<path d="M 446.097, 327.480 
	L 446.097, 327.481 
	L 445.151, 312.462 
	L 442.332, 297.681 
	L 437.681, 283.369 
	L 431.274, 269.753 
	L 423.211, 257.047 
	L 413.619, 245.453 
	L 402.649, 235.152 
	L 390.475, 226.306 
	L 377.289, 219.056 
" />
<path d="M 377.289, 219.056 
" />
<path d="M 318.745, 207.888 
	L 318.744, 207.889 
	L 303.814, 209.774 
	L 289.239, 213.517 
	L 275.247, 219.056 
	L 262.060, 226.306 
	L 249.886, 235.152 
	L 238.917, 245.453 
	L 229.324, 257.047 
	L 221.261, 269.753 
	L 214.854, 283.369 
" />
<path d="M 214.854, 283.369 
	L 210.204, 297.681 
	L 207.384, 312.462 
	L 206.439, 327.481 
	L 207.384, 342.500 
" />
<path d="M 249.887, 419.810 
	L 249.886, 419.810 
	L 262.060, 428.656 
	L 275.247, 435.906 
	L 289.239, 441.445 
	L 303.814, 445.188 
	L 318.744, 447.073 
	L 333.792, 447.073 
	L 348.722, 445.188 
	L 363.297, 441.445 
" />
<path d="M 413.620, 409.509 
	L 413.619, 409.509 
	L 423.211, 397.915 
	L 431.274, 385.209 
" />
<path d="M 437.682, 371.592 
	L 437.681, 371.593 
	L 442.332, 357.281 
	L 445.151, 342.500 
	L 446.097, 327.481 
	L 445.151, 312.462 
	L 442.332, 297.681 
	L 437.681, 283.369 
	L 431.274, 269.753 
	L 423.211, 257.047 
	L 413.619, 245.453 
" />
<path d="M 413.619, 245.453 
	L 402.649, 235.152 
	L 390.475, 226.306 
	L 377.289, 219.056 
	L 363.297, 213.517 
	L 348.722, 209.774 
	L 333.792, 207.889 
" />
<path d="M 443.745, 314.299 
	L 443.744, 314.300 
	L 442.820, 299.611 
	L 440.062, 285.156 
	L 435.514, 271.159 
	L 429.248, 257.842 
	L 421.362, 245.416 
	L 411.981, 234.076 
	L 401.253, 224.002 
	L 389.346, 215.351 
	L 376.450, 208.261 
" />
<path d="M 376.450, 208.261 
	L 362.766, 202.843 
	L 348.511, 199.184 
	L 333.910, 197.339 
	L 319.193, 197.339 
	L 304.591, 199.184 
	L 290.337, 202.843 
	L 276.653, 208.261 
	L 263.756, 215.351 
	L 251.850, 224.002 
	L 241.121, 234.076 
" />
<path d="M 241.121, 234.076 
	L 231.741, 245.416 
	L 223.855, 257.842 
	L 217.588, 271.159 
	L 213.041, 285.156 
	L 210.283, 299.611 
	L 209.358, 314.300 
	L 210.283, 328.988 
	L 213.041, 343.444 
" />
<path d="M 362.767, 425.756 
	L 362.766, 425.757 
	L 376.450, 420.339 
	L 389.346, 413.249 
	L 401.253, 404.598 
	L 411.981, 394.524 
	L 421.362, 383.184 
	L 429.248, 370.758 
	L 435.514, 357.441 
	L 440.062, 343.444 
	L 442.820, 328.988 
" />
<path d="M 442.820, 328.988 
	L 443.744, 314.300 
	L 442.820, 299.611 
	L 440.062, 285.156 
	L 435.514, 271.159 
	L 429.248, 257.842 
	L 421.362, 245.416 
	L 411.981, 234.076 
	L 401.253, 224.002 
	L 389.346, 215.351 
	L 376.450, 208.261 
" />
<path d="M 376.450, 208.261 
	L 362.766, 202.843 
	L 348.511, 199.184 
	L 333.910, 197.339 
	L 319.193, 197.339 
	L 304.591, 199.184 
	L 290.337, 202.843 
	L 276.653, 208.261 
	L 263.756, 215.351 
	L 251.850, 224.002 
	L 241.121, 234.076 
" />
<path d="M 241.121, 234.076 
	L 231.741, 245.416 
	L 223.855, 257.842 
	L 217.588, 271.159 
	L 213.041, 285.156 
	L 210.283, 299.611 
	L 209.358, 314.300 
	L 210.283, 328.988 
	L 213.041, 343.444 
	L 217.588, 357.441 
" />
<path d="M 427.347, 327.480 
	L 427.346, 327.481 
	L 426.443, 313.116 
	L 423.746, 298.978 
	L 419.298, 285.289 
	L 413.169, 272.265 
	L 405.457, 260.112 
	L 396.283, 249.022 
	L 385.790, 239.169 
	L 374.146, 230.709 
	L 361.533, 223.775 
" />
<path d="M 361.533, 223.775 
	L 348.150, 218.476 
	L 334.209, 214.897 
" />
<path d="M 263.932, 223.774 
	L 263.932, 223.775 
	L 251.319, 230.709 
	L 239.674, 239.169 
	L 229.182, 249.022 
	L 220.008, 260.112 
	L 212.295, 272.265 
	L 206.167, 285.289 
	L 201.719, 298.978 
	L 199.022, 313.116 
	L 198.118, 327.481 
" />
<path d="M 198.118, 327.481 
	L 199.022, 341.846 
	L 201.719, 355.984 
	L 206.167, 369.673 
	L 212.295, 382.697 
	L 220.008, 394.850 
	L 229.182, 405.940 
	L 239.674, 415.793 
	L 251.319, 424.253 
	L 263.932, 431.187 
	L 277.315, 436.486 
" />
<path d="M 277.315, 436.486 
	L 291.256, 440.065 
	L 305.536, 441.869 
	L 319.929, 441.869 
	L 334.209, 440.065 
	L 348.150, 436.486 
	L 361.533, 431.187 
	L 374.146, 424.253 
	L 385.790, 415.793 
	L 396.283, 405.940 
	L 405.457, 394.850 
" />
<path d="M 405.457, 394.850 
	L 413.169, 382.697 
	L 419.298, 369.673 
	L 423.746, 355.984 
	L 426.443, 341.846 
	L 427.346, 327.481 
	L 426.443, 313.116 
	L 423.746, 298.978 
	L 419.298, 285.289 
	L 413.169, 272.265 
	L 405.457, 260.112 
" />
<path d="M 405.457, 260.112 
	L 396.283, 249.022 
	L 385.790, 239.169 
	L 374.146, 230.709 
	L 361.533, 223.775 
	L 348.150, 218.476 
	L 334.209, 214.897 
	L 319.929, 213.093 
	L 305.536, 213.093 
	L 291.256, 214.897 
	L 277.315, 218.476 
" />
<path d="M 277.315, 218.476 
" />
<path d="M 434.109, 327.126 
	L 434.108, 327.127 
	L 433.225, 313.077 
	L 430.587, 299.250 
	L 426.237, 285.863 
	L 420.243, 273.125 
	L 412.701, 261.240 
	L 403.728, 250.394 
	L 393.467, 240.758 
	L 382.078, 232.484 
	L 369.743, 225.702 
" />
<path d="M 369.743, 225.702 
	L 356.654, 220.520 
	L 343.020, 217.019 
	L 329.054, 215.255 
	L 314.977, 215.255 
	L 301.012, 217.019 
" />
<path d="M 223.789, 273.125 
	L 223.788, 273.125 
	L 217.794, 285.863 
	L 213.445, 299.250 
	L 210.807, 313.077 
	L 209.923, 327.127 
	L 210.807, 341.176 
	L 213.445, 355.003 
	L 217.794, 368.391 
	L 223.788, 381.128 
	L 231.331, 393.013 
" />
<path d="M 231.331, 393.013 
	L 240.304, 403.859 
	L 250.565, 413.495 
" />
<path d="M 314.978, 438.997 
	L 314.977, 438.998 
	L 329.054, 438.998 
	L 343.020, 437.234 
	L 356.654, 433.733 
	L 369.743, 428.551 
	L 382.078, 421.770 
	L 393.467, 413.495 
	L 403.728, 403.859 
	L 412.701, 393.013 
	L 420.243, 381.128 
" />
<path d="M 420.243, 381.128 
" />
<path d="M 422.785, 321.386 
	L 422.784, 321.387 
	L 421.920, 307.647 
	L 419.340, 294.124 
	L 415.086, 281.030 
	L 409.224, 268.574 
	L 401.847, 256.949 
	L 393.072, 246.342 
	L 383.037, 236.918 
	L 371.898, 228.825 
	L 359.834, 222.193 
" />
<path d="M 359.834, 222.193 
	L 347.034, 217.125 
	L 333.700, 213.702 
	L 320.041, 211.976 
	L 306.274, 211.976 
	L 292.616, 213.702 
	L 279.281, 217.125 
	L 266.481, 222.193 
	L 254.417, 228.825 
	L 243.279, 236.918 
	L 233.243, 246.342 
" />
<path d="M 233.243, 246.342 
	L 224.468, 256.949 
	L 217.091, 268.574 
	L 211.229, 281.030 
	L 206.975, 294.124 
	L 204.395, 307.647 
	L 203.531, 321.387 
	L 204.395, 335.126 
	L 206.975, 348.649 
	L 211.229, 361.743 
	L 217.091, 374.200 
" />
<path d="M 217.091, 374.200 
	L 224.468, 385.824 
	L 233.243, 396.431 
	L 243.279, 405.855 
" />
<path d="M 419.341, 348.649 
	L 419.340, 348.649 
	L 421.920, 335.126 
	L 422.784, 321.387 
	L 421.920, 307.647 
	L 419.340, 294.124 
	L 415.086, 281.030 
	L 409.224, 268.574 
	L 401.847, 256.949 
	L 393.072, 246.342 
	L 383.037, 236.918 
" />
<path d="M 383.037, 236.918 
	L 371.898, 228.825 
	L 359.834, 222.193 
	L 347.034, 217.125 
	L 333.700, 213.702 
	L 320.041, 211.976 
	L 306.274, 211.976 
	L 292.616, 213.702 
	L 279.281, 217.125 
	L 266.481, 222.193 
	L 254.417, 228.825 
" />
<path d="M 254.417, 228.825 
	L 243.279, 236.918 
	L 233.243, 246.342 
	L 224.468, 256.949 
	L 217.091, 268.574 
	L 211.229, 281.030 
	L 206.975, 294.124 
	L 204.395, 307.647 
	L 203.531, 321.387 
	L 204.395, 335.126 
	L 206.975, 348.649 
" />
<path d="M 206.975, 348.649 
	L 211.229, 361.743 
	L 217.091, 374.200 
	L 224.468, 385.824 
	L 233.243, 396.431 
" />
<path d="M 1108.630, 662.465 
	L 1109.339, 663.528 
	L 1109.339, 664.591 
	L 1108.630, 665.654 
	L 1107.213, 665.654 
	L 1106.504, 664.591 
	L 1106.504, 663.528 
	L 1107.213, 662.465 
" />
<path d="M 1105.087, 658.213 
	L 1105.795, 658.213 
" />
<path d="M 1106.504, 659.276 
	L 1106.504, 658.213 
	L 1109.339, 658.213 
" />
<path d="M 1109.339, 659.276 
	L 1109.339, 657.150 
" />
<path d="M 1106.504, 653.961 
	L 1109.339, 653.961 
" />
<path d="M 1107.921, 653.961 
	L 1106.504, 651.835 
	L 1106.504, 650.772 
" />
<path d="M 1108.630, 643.331 
	L 1109.339, 644.394 
	L 1109.339, 645.457 
	L 1108.630, 646.520 
	L 1107.213, 646.520 
	L 1106.504, 645.457 
	L 1106.504, 644.394 
	L 1107.213, 643.331 
" />
<path d="M 1109.339, 641.205 
	L 1105.087, 641.205 
" />
<path d="M 1109.339, 638.016 
	L 1107.921, 641.205 
	L 1106.504, 638.016 
" />
<path d="M 1105.087, 633.765 
	L 1105.087, 632.702 
	L 1109.339, 632.702 
" />
<path d="M 1109.339, 633.765 
	L 1109.339, 631.639 
" />
<path d="M 1107.921, 628.450 
	L 1107.921, 625.261 
	L 1107.213, 624.198 
	L 1106.504, 625.261 
	L 1106.504, 627.387 
	L 1107.213, 628.450 
	L 1108.630, 628.450 
	L 1109.339, 627.387 
	L 1109.339, 624.198 
" />
<path d="M 1106.504, 618.883 
	L 1106.504, 621.009 
	L 1107.213, 622.072 
	L 1107.921, 621.009 
	L 1107.921, 619.946 
	L 1108.630, 618.883 
	L 1109.339, 619.946 
	L 1109.339, 622.072 
" />
<path d="M 1109.339, 613.568 
	L 1109.339, 614.631 
	L 1108.630, 614.631 
	L 1108.630, 613.568 
	L 1109.339, 613.568 
" />
<path d="M 1110.756, 609.316 
	L 1106.504, 609.316 
	L 1106.504, 607.190 
	L 1107.213, 606.127 
	L 1108.630, 606.127 
	L 1109.339, 607.190 
	L 1109.339, 609.316 
" />
<path d="M 1110.756, 602.938 
	L 1107.921, 598.686 
	L 1106.504, 598.686 
" />
<path d="M 1106.504, 602.938 
	L 1107.921, 602.938 
	L 1109.339, 600.812 
" />
<path d="M 1105.795, 571.048 
	L 1105.087, 569.985 
	L 1105.087, 567.859 
	L 1105.795, 566.796 
	L 1106.504, 566.796 
	L 1108.630, 571.048 
	L 1109.339, 571.048 
	L 1109.339, 566.796 
" />
<path d="M 1108.630, 564.670 
	L 1109.339, 563.607 
	L 1109.339, 561.481 
	L 1108.630, 560.418 
	L 1105.795, 560.418 
	L 1105.087, 561.481 
	L 1105.087, 563.607 
	L 1105.795, 564.670 
	L 1108.630, 564.670 
" />
<path d="M 1109.339, 557.229 
	L 1109.339, 555.103 
" />
<path d="M 1109.339, 556.166 
	L 1105.087, 556.166 
	L 1105.795, 557.229 
" />
<path d="M 1109.339, 550.851 
	L 1109.339, 549.788 
	L 1107.921, 547.662 
	L 1105.795, 547.662 
	L 1105.087, 548.725 
	L 1105.087, 550.851 
	L 1105.795, 551.914 
	L 1106.504, 551.914 
	L 1107.213, 550.851 
	L 1107.213, 547.662 
" />
<path d="M 1107.213, 545.536 
	L 1107.213, 541.284 
" />
<path d="M 1108.630, 539.158 
	L 1109.339, 538.095 
	L 1109.339, 535.969 
	L 1108.630, 534.906 
	L 1105.795, 534.906 
	L 1105.087, 535.969 
	L 1105.087, 538.095 
	L 1105.795, 539.158 
	L 1108.630, 539.158 
" />
<path d="M 1105.087, 529.591 
	L 1107.213, 532.780 
	L 1107.921, 532.780 
	L 1107.921, 528.528 
" />
<path d="M 1107.213, 529.591 
	L 1109.339, 529.591 
" />
<path d="M 1107.213, 526.402 
	L 1107.213, 522.150 
" />
<path d="M 1108.630, 520.024 
	L 1109.339, 518.961 
	L 1109.339, 516.835 
	L 1108.630, 515.772 
	L 1107.921, 515.772 
	L 1107.213, 516.835 
	L 1107.213, 517.898 
	L 1105.087, 515.772 
	L 1105.087, 520.024 
" />
<path d="M 1108.630, 513.646 
	L 1109.339, 512.583 
	L 1109.339, 510.457 
	L 1108.630, 509.394 
	L 1105.795, 509.394 
	L 1105.087, 510.457 
	L 1105.087, 512.583 
	L 1105.795, 513.646 
	L 1108.630, 513.646 
" />
<path d="M 1109.339, 499.827 
	L 1109.339, 497.702 
" />
<path d="M 1109.339, 498.764 
	L 1105.087, 498.764 
	L 1105.795, 499.827 
" />
<path d="M 1105.087, 491.324 
	L 1107.213, 494.513 
	L 1107.921, 494.513 
	L 1107.921, 490.261 
" />
<path d="M 1107.213, 491.324 
	L 1109.339, 491.324 
" />
<path d="M 1107.213, 487.072 
	L 1106.504, 487.072 
	L 1106.504, 486.009 
	L 1107.213, 486.009 
	L 1107.213, 487.072 
" />
<path d="M 1108.630, 487.072 
	L 1108.630, 486.009 
	L 1109.339, 486.009 
	L 1109.339, 487.072 
	L 1108.630, 487.072 
" />
<path d="M 1105.087, 478.568 
	L 1107.213, 481.757 
	L 1107.921, 481.757 
	L 1107.921, 477.505 
" />
<path d="M 1107.213, 478.568 
	L 1109.339, 478.568 
" />
<path d="M 1109.339, 474.316 
	L 1109.339, 473.253 
	L 1107.921, 471.127 
	L 1105.795, 471.127 
	L 1105.087, 472.190 
	L 1105.087, 474.316 
	L 1105.795, 475.379 
	L 1106.504, 475.379 
	L 1107.213, 474.316 
	L 1107.213, 471.127 
" />
</g>
</svg>
