<?xml version="1.0" encoding="UTF-8" standalone="no" ?>
<svg width="100%" height="100%" viewBox="0 0 3118.567 797.020" xmlns="http://www.w3.org/2000/svg"><g>
</g><g style="stroke:rgb(0,0,0); fill:none; stroke-width:1.000mm" >
</g><g style="stroke:rgb(0,255,0); fill:none; stroke-width:0.100mm" >
<path d="M 7.087, 797.019 
	L 7.087, 797.020 
	L 7.087, 14.657 
	L 1152.142, 14.657 
	L 1152.142, 797.020 
	L 7.087, 797.020 
" />
</g><g style="stroke:rgb(255,0,0); fill:none; stroke-width:0.100mm" >
<path d="M 0.001, 807.649 
	L 0.000, 807.649 
	L 0.000, 786.390 
	L 14.173, 786.390 
	L 14.173, 807.649 
	L 0.000, 807.649 
" />
<path d="M 7.087, 786.460 
	L 7.087, 786.461 
	L 7.087, 765.059 
	L 21.260, 765.059 
	L 21.260, 786.461 
	L 7.087, 786.461 
" />
<path d="M 28.347, 765.271 
	L 28.346, 765.272 
	L 28.346, 743.728 
	L 42.520, 743.728 
	L 42.520, 765.272 
	L 28.346, 765.272 
" />
<path d="M 63.780, 744.082 
	L 63.780, 744.083 
	L 63.780, 722.398 
	L 77.953, 722.398 
	L 77.953, 744.083 
	L 63.780, 744.083 
" />
<path d="M 113.387, 722.893 
	L 113.386, 722.894 
	L 113.386, 701.067 
	L 127.559, 701.067 
	L 127.559, 722.894 
	L 113.386, 722.894 
" />
<path d="M 177.166, 701.704 
	L 177.165, 701.705 
	L 177.165, 679.736 
	L 191.339, 679.736 
	L 191.339, 701.705 
	L 177.165, 701.705 
" />
<path d="M 255.119, 680.515 
	L 255.118, 680.516 
	L 255.118, 658.405 
	L 269.291, 658.405 
	L 269.291, 680.516 
	L 255.118, 680.516 
" />
<path d="M 347.245, 659.326 
	L 347.244, 659.327 
	L 347.244, 637.075 
	L 361.417, 637.075 
	L 361.417, 659.327 
	L 347.244, 659.327 
" />
<path d="M 453.544, 638.137 
	L 453.543, 638.138 
	L 453.543, 615.744 
	L 467.717, 615.744 
	L 467.717, 638.138 
	L 453.543, 638.138 
" />
<path d="M 574.017, 616.948 
	L 574.016, 616.949 
	L 574.016, 594.413 
	L 588.189, 594.413 
	L 588.189, 616.949 
	L 574.016, 616.949 
" />
<path d="M 708.662, 595.759 
	L 708.662, 595.760 
	L 708.662, 573.083 
	L 722.835, 573.083 
	L 722.835, 595.760 
	L 708.662, 595.760 
" />
<path d="M 857.481, 574.570 
	L 857.480, 574.571 
	L 857.480, 551.752 
	L 871.654, 551.752 
	L 871.654, 574.571 
	L 857.480, 574.571 
" />
<path d="M 1020.473, 553.381 
	L 1020.473, 553.382 
	L 1020.473, 530.421 
	L 1034.646, 530.421 
	L 1034.646, 553.382 
	L 1020.473, 553.382 
" />
<path d="M 1197.639, 532.192 
	L 1197.638, 532.193 
	L 1197.638, 509.090 
	L 1211.811, 509.090 
	L 1211.811, 532.193 
	L 1197.638, 532.193 
" />
<path d="M 1388.977, 511.003 
	L 1388.977, 511.004 
	L 1388.977, 487.760 
	L 1403.150, 487.760 
	L 1403.150, 511.004 
	L 1388.977, 511.004 
" />
<path d="M 1594.489, 489.814 
	L 1594.488, 489.815 
	L 1594.488, 466.429 
	L 1608.662, 466.429 
	L 1608.662, 489.815 
	L 1594.488, 489.815 
" />
<path d="M 1814.174, 468.625 
	L 1814.174, 468.626 
	L 1814.174, 445.098 
	L 1828.347, 445.098 
	L 1828.347, 468.626 
	L 1814.174, 468.626 
" />
<path d="M 2048.033, 447.436 
	L 2048.032, 447.437 
	L 2048.032, 423.768 
	L 2062.205, 423.768 
	L 2062.205, 447.437 
	L 2048.032, 447.437 
" />
<path d="M 2296.064, 426.247 
	L 2296.063, 426.248 
	L 2296.063, 402.437 
	L 2310.237, 402.437 
	L 2310.237, 426.248 
	L 2296.063, 426.248 
" />
<path d="M 2558.269, 405.058 
	L 2558.268, 405.059 
	L 2558.268, 381.106 
	L 2572.441, 381.106 
	L 2572.441, 405.059 
	L 2558.268, 405.059 
" />
<path d="M 44.125, 787.521 
	L 44.124, 787.521 
	L 41.124, 808.568 
	L 26.742, 806.518 
	L 29.742, 785.471 
	L 44.124, 787.521 
" />
<path d="M 51.221, 765.482 
	L 51.221, 765.483 
	L 48.201, 786.670 
	L 33.819, 784.619 
	L 36.838, 763.433 
	L 51.221, 765.483 
" />
<path d="M 72.491, 743.443 
	L 72.490, 743.444 
	L 69.450, 764.771 
	L 55.069, 762.721 
	L 58.109, 741.394 
	L 72.490, 743.444 
" />
<path d="M 107.935, 721.405 
	L 107.934, 721.405 
	L 104.873, 742.873 
	L 90.491, 740.823 
	L 93.552, 719.355 
	L 107.934, 721.405 
" />
<path d="M 157.551, 699.366 
	L 157.550, 699.367 
	L 154.470, 720.975 
	L 140.088, 718.924 
	L 143.168, 697.317 
	L 157.550, 699.367 
" />
<path d="M 221.341, 677.327 
	L 221.340, 677.328 
	L 218.239, 699.076 
	L 203.857, 697.026 
	L 206.958, 675.278 
	L 221.340, 677.328 
" />
<path d="M 299.303, 655.289 
	L 299.303, 655.289 
	L 296.182, 677.178 
	L 281.800, 675.128 
	L 284.920, 653.239 
	L 299.303, 655.289 
" />
<path d="M 391.439, 633.250 
	L 391.438, 633.251 
	L 388.298, 655.279 
	L 373.916, 653.229 
	L 377.056, 631.201 
	L 391.438, 633.251 
" />
<path d="M 497.748, 611.211 
	L 497.748, 611.212 
	L 494.588, 633.381 
	L 480.205, 631.331 
	L 483.365, 609.162 
	L 497.748, 611.212 
" />
<path d="M 618.231, 589.173 
	L 618.230, 589.173 
	L 615.050, 611.483 
	L 600.668, 609.433 
	L 603.848, 587.123 
	L 618.230, 589.173 
" />
<path d="M 752.886, 567.134 
	L 752.886, 567.135 
	L 749.686, 589.584 
	L 735.304, 587.534 
	L 738.503, 565.085 
	L 752.886, 567.135 
" />
<path d="M 901.715, 545.095 
	L 901.714, 545.096 
	L 898.494, 567.686 
	L 884.113, 565.636 
	L 887.333, 543.046 
	L 901.714, 545.096 
" />
<path d="M 1064.718, 523.057 
	L 1064.717, 523.057 
	L 1061.476, 545.788 
	L 1047.094, 543.738 
	L 1050.335, 521.007 
	L 1064.717, 523.057 
" />
<path d="M 1241.893, 501.018 
	L 1241.893, 501.019 
	L 1238.632, 523.889 
	L 1224.250, 521.839 
	L 1227.510, 498.969 
	L 1241.893, 501.019 
" />
<path d="M 1433.242, 478.979 
	L 1433.241, 478.980 
	L 1429.961, 501.991 
	L 1415.578, 499.941 
	L 1418.859, 476.930 
	L 1433.241, 478.980 
" />
<path d="M 1638.763, 456.941 
	L 1638.763, 456.941 
	L 1635.462, 480.093 
	L 1621.080, 478.043 
	L 1624.381, 454.891 
	L 1638.763, 456.941 
" />
<path d="M 1858.458, 434.902 
	L 1858.458, 434.903 
	L 1855.138, 458.194 
	L 1840.755, 456.144 
	L 1844.075, 432.853 
	L 1858.458, 434.903 
" />
<path d="M 2092.327, 412.863 
	L 2092.326, 412.864 
	L 2088.986, 436.296 
	L 2074.604, 434.246 
	L 2077.944, 410.814 
	L 2092.326, 412.864 
" />
<path d="M 2340.368, 390.825 
	L 2340.367, 390.825 
	L 2337.008, 414.398 
	L 2322.625, 412.347 
	L 2325.985, 388.775 
	L 2340.367, 390.825 
" />
<path d="M 2602.583, 368.786 
	L 2602.582, 368.787 
	L 2599.202, 392.499 
	L 2584.820, 390.449 
	L 2588.200, 366.737 
	L 2602.582, 368.787 
" />
<path d="M 53.666, 805.146 
	L 53.665, 805.147 
	L 59.605, 784.734 
	L 73.894, 788.892 
	L 67.954, 809.305 
	L 53.665, 805.147 
" />
<path d="M 60.732, 782.537 
	L 60.732, 782.538 
	L 66.711, 761.989 
	L 81.001, 766.147 
	L 75.021, 786.696 
	L 60.732, 782.538 
" />
<path d="M 81.972, 759.928 
	L 81.972, 759.929 
	L 87.991, 739.244 
	L 102.280, 743.402 
	L 96.261, 764.087 
	L 81.972, 759.929 
" />
<path d="M 117.386, 737.319 
	L 117.385, 737.320 
	L 123.444, 716.499 
	L 137.733, 720.656 
	L 131.674, 741.478 
	L 117.385, 737.320 
" />
<path d="M 166.972, 714.710 
	L 166.971, 714.711 
	L 173.070, 693.753 
	L 187.359, 697.911 
	L 181.261, 718.868 
	L 166.971, 714.711 
" />
<path d="M 230.732, 692.101 
	L 230.731, 692.102 
	L 236.869, 671.008 
	L 251.159, 675.166 
	L 245.020, 696.260 
	L 230.731, 692.102 
" />
<path d="M 308.665, 669.492 
	L 308.664, 669.492 
	L 314.842, 648.262 
	L 329.131, 652.421 
	L 322.953, 673.651 
	L 308.664, 669.492 
" />
<path d="M 400.771, 646.883 
	L 400.770, 646.883 
	L 406.988, 625.517 
	L 421.277, 629.676 
	L 415.060, 651.042 
	L 400.770, 646.883 
" />
<path d="M 507.050, 624.273 
	L 507.049, 624.274 
	L 513.307, 602.772 
	L 527.596, 606.930 
	L 521.339, 628.433 
	L 507.049, 624.274 
" />
<path d="M 627.503, 601.664 
	L 627.503, 601.665 
	L 633.799, 580.027 
	L 648.088, 584.185 
	L 641.791, 605.823 
	L 627.503, 601.665 
" />
<path d="M 762.129, 579.055 
	L 762.129, 579.056 
	L 768.465, 557.282 
	L 782.753, 561.440 
	L 776.417, 583.214 
	L 762.129, 579.056 
" />
<path d="M 910.928, 556.446 
	L 910.928, 556.447 
	L 917.304, 534.536 
	L 931.592, 538.695 
	L 925.216, 560.605 
	L 910.928, 556.447 
" />
<path d="M 1073.901, 533.837 
	L 1073.900, 533.838 
	L 1080.316, 511.791 
	L 1094.604, 515.950 
	L 1088.189, 537.996 
	L 1073.900, 533.838 
" />
<path d="M 1251.046, 511.228 
	L 1251.046, 511.228 
	L 1257.501, 489.046 
	L 1271.789, 493.204 
	L 1265.334, 515.387 
	L 1251.046, 511.228 
" />
<path d="M 1442.365, 488.619 
	L 1442.364, 488.619 
	L 1448.859, 466.301 
	L 1463.148, 470.459 
	L 1456.653, 492.778 
	L 1442.364, 488.619 
" />
<path d="M 1647.857, 466.009 
	L 1647.856, 466.010 
	L 1654.391, 443.556 
	L 1668.680, 447.714 
	L 1662.145, 470.169 
	L 1647.856, 466.010 
" />
<path d="M 1867.522, 443.400 
	L 1867.522, 443.401 
	L 1874.096, 420.810 
	L 1888.384, 424.969 
	L 1881.810, 447.559 
	L 1867.522, 443.401 
" />
<path d="M 2101.361, 420.791 
	L 2101.360, 420.792 
	L 2107.973, 398.065 
	L 2122.263, 402.224 
	L 2115.649, 424.950 
	L 2101.360, 420.792 
" />
<path d="M 2349.372, 398.182 
	L 2349.372, 398.183 
	L 2356.025, 375.320 
	L 2370.314, 379.478 
	L 2363.661, 402.341 
	L 2349.372, 398.183 
" />
<path d="M 2611.558, 375.573 
	L 2611.557, 375.574 
	L 2618.249, 352.575 
	L 2632.539, 356.733 
	L 2625.846, 379.732 
	L 2611.557, 375.574 
" />
<path d="M 103.448, 790.473 
	L 103.448, 790.474 
	L 94.686, 809.844 
	L 80.804, 803.565 
	L 89.566, 784.195 
	L 103.448, 790.474 
" />
<path d="M 110.565, 767.023 
	L 110.564, 767.023 
	L 101.744, 786.523 
	L 87.861, 780.244 
	L 96.681, 760.745 
	L 110.564, 767.023 
" />
<path d="M 131.854, 743.572 
	L 131.853, 743.573 
	L 122.974, 763.202 
	L 109.092, 756.923 
	L 117.971, 737.294 
	L 131.853, 743.573 
" />
<path d="M 167.316, 720.122 
	L 167.315, 720.123 
	L 158.378, 739.881 
	L 144.496, 733.601 
	L 153.433, 713.843 
	L 167.315, 720.123 
" />
<path d="M 216.951, 696.672 
	L 216.950, 696.672 
	L 207.955, 716.560 
	L 194.073, 710.280 
	L 203.068, 690.393 
	L 216.950, 696.672 
" />
<path d="M 280.760, 673.221 
	L 280.759, 673.222 
	L 271.706, 693.238 
	L 257.824, 686.959 
	L 266.877, 666.943 
	L 280.759, 673.222 
" />
<path d="M 358.742, 649.771 
	L 358.741, 649.772 
	L 349.630, 669.917 
	L 335.747, 663.637 
	L 344.859, 643.492 
	L 358.741, 649.772 
" />
<path d="M 450.897, 626.321 
	L 450.897, 626.321 
	L 441.726, 646.596 
	L 427.844, 640.316 
	L 437.015, 620.042 
	L 450.897, 626.321 
" />
<path d="M 557.226, 602.870 
	L 557.225, 602.870 
	L 547.996, 623.274 
	L 534.114, 616.995 
	L 543.343, 596.592 
	L 557.225, 602.870 
" />
<path d="M 677.727, 579.419 
	L 677.726, 579.420 
	L 668.439, 599.953 
	L 654.557, 593.674 
	L 663.844, 573.141 
	L 677.726, 579.420 
" />
<path d="M 812.402, 555.969 
	L 812.402, 555.970 
	L 803.056, 576.632 
	L 789.173, 570.353 
	L 798.519, 549.691 
	L 812.402, 555.970 
" />
<path d="M 961.250, 532.519 
	L 961.250, 532.519 
	L 951.846, 553.310 
	L 937.963, 547.031 
	L 947.367, 526.241 
	L 961.250, 532.519 
" />
<path d="M 1124.272, 509.068 
	L 1124.271, 509.069 
	L 1114.808, 529.990 
	L 1100.926, 523.710 
	L 1110.389, 502.790 
	L 1124.271, 509.069 
" />
<path d="M 1301.466, 485.618 
	L 1301.465, 485.619 
	L 1291.944, 506.668 
	L 1278.063, 500.389 
	L 1287.583, 479.339 
	L 1301.465, 485.619 
" />
<path d="M 1492.834, 462.168 
	L 1492.833, 462.168 
	L 1483.254, 483.347 
	L 1469.372, 477.067 
	L 1478.951, 455.889 
	L 1492.833, 462.168 
" />
<path d="M 1698.375, 438.718 
	L 1698.375, 438.718 
	L 1688.737, 460.026 
	L 1674.854, 453.746 
	L 1684.492, 432.439 
	L 1698.375, 438.718 
" />
<path d="M 1918.089, 415.267 
	L 1918.089, 415.268 
	L 1908.392, 436.704 
	L 1894.510, 430.425 
	L 1904.207, 408.988 
	L 1918.089, 415.268 
" />
<path d="M 2151.977, 391.816 
	L 2151.976, 391.817 
	L 2142.221, 413.383 
	L 2128.339, 407.104 
	L 2138.094, 385.538 
	L 2151.976, 391.817 
" />
<path d="M 2400.038, 368.366 
	L 2400.037, 368.367 
	L 2390.224, 390.061 
	L 2376.342, 383.783 
	L 2386.155, 362.088 
	L 2400.037, 368.367 
" />
<path d="M 2662.271, 344.915 
	L 2662.271, 344.916 
	L 2652.400, 366.740 
	L 2638.518, 360.461 
	L 2648.389, 338.637 
	L 2662.271, 344.916 
" />
<path d="M 108.191, 801.807 
	L 108.191, 801.807 
	L 119.598, 783.867 
	L 132.754, 792.232 
	L 121.347, 810.172 
	L 108.191, 801.807 
" />
<path d="M 115.240, 777.772 
	L 115.239, 777.772 
	L 126.723, 759.713 
	L 139.879, 768.078 
	L 128.395, 786.137 
	L 115.239, 777.772 
" />
<path d="M 136.462, 753.737 
	L 136.461, 753.737 
	L 148.021, 735.558 
	L 161.177, 743.924 
	L 149.617, 762.103 
	L 136.461, 753.737 
" />
<path d="M 171.857, 729.702 
	L 171.856, 729.703 
	L 183.492, 711.404 
	L 196.648, 719.769 
	L 185.012, 738.068 
	L 171.856, 729.703 
" />
<path d="M 221.425, 705.667 
	L 221.424, 705.668 
	L 233.136, 687.249 
	L 246.292, 695.615 
	L 234.580, 714.034 
	L 221.424, 705.668 
" />
<path d="M 285.167, 681.632 
	L 285.166, 681.633 
	L 296.953, 663.095 
	L 310.110, 671.461 
	L 298.322, 689.999 
	L 285.166, 681.633 
" />
<path d="M 363.081, 657.598 
	L 363.081, 657.599 
	L 374.944, 638.941 
	L 388.101, 647.306 
	L 376.237, 665.964 
	L 363.081, 657.599 
" />
<path d="M 455.169, 633.563 
	L 455.168, 633.564 
	L 467.109, 614.787 
	L 480.265, 623.152 
	L 468.325, 641.930 
	L 455.168, 633.564 
" />
<path d="M 561.431, 609.529 
	L 561.430, 609.530 
	L 573.445, 590.633 
	L 586.602, 598.998 
	L 574.586, 617.895 
	L 561.430, 609.530 
" />
<path d="M 681.865, 585.494 
	L 681.864, 585.495 
	L 693.956, 566.478 
	L 707.112, 574.844 
	L 695.020, 593.860 
	L 681.864, 585.495 
" />
<path d="M 816.472, 561.459 
	L 816.472, 561.460 
	L 828.640, 542.324 
	L 841.796, 550.690 
	L 829.628, 569.826 
	L 816.472, 561.460 
" />
<path d="M 965.254, 537.425 
	L 965.253, 537.426 
	L 977.496, 518.170 
	L 990.653, 526.535 
	L 978.409, 545.791 
	L 965.253, 537.426 
" />
<path d="M 1128.208, 513.390 
	L 1128.207, 513.391 
	L 1140.527, 494.015 
	L 1153.683, 502.381 
	L 1141.363, 521.756 
	L 1128.207, 513.391 
" />
<path d="M 1305.335, 489.356 
	L 1305.334, 489.356 
	L 1317.731, 469.861 
	L 1330.887, 478.226 
	L 1318.490, 497.721 
	L 1305.334, 489.356 
" />
<path d="M 1496.636, 465.321 
	L 1496.635, 465.321 
	L 1509.107, 445.706 
	L 1522.263, 454.072 
	L 1509.791, 473.687 
	L 1496.635, 465.321 
" />
<path d="M 1702.109, 441.286 
	L 1702.109, 441.286 
	L 1714.657, 421.552 
	L 1727.813, 429.918 
	L 1715.265, 449.652 
	L 1702.109, 441.286 
" />
<path d="M 1921.756, 417.251 
	L 1921.755, 417.252 
	L 1934.380, 397.398 
	L 1947.537, 405.763 
	L 1934.912, 425.617 
	L 1921.755, 417.252 
" />
<path d="M 2155.577, 393.216 
	L 2155.576, 393.217 
	L 2168.276, 373.244 
	L 2181.432, 381.609 
	L 2168.733, 401.583 
	L 2155.576, 393.217 
" />
<path d="M 2403.570, 369.182 
	L 2403.570, 369.182 
	L 2416.346, 349.089 
	L 2429.502, 357.455 
	L 2416.726, 377.548 
	L 2403.570, 369.182 
" />
<path d="M 2665.737, 345.147 
	L 2665.737, 345.148 
	L 2678.589, 324.935 
	L 2691.745, 333.301 
	L 2678.892, 353.513 
	L 2665.737, 345.148 
" />
<path d="M 161.789, 794.128 
	L 161.788, 794.128 
	L 147.963, 810.279 
	L 135.850, 799.911 
	L 149.675, 783.760 
	L 161.788, 794.128 
" />
<path d="M 168.922, 769.270 
	L 168.921, 769.271 
	L 155.003, 785.530 
	L 142.890, 775.162 
	L 156.808, 758.903 
	L 168.921, 769.271 
" />
<path d="M 190.227, 744.413 
	L 190.227, 744.414 
	L 176.217, 760.781 
	L 164.104, 750.412 
	L 178.114, 734.046 
	L 190.227, 744.414 
" />
<path d="M 225.707, 719.557 
	L 225.706, 719.558 
	L 211.604, 736.031 
	L 199.491, 725.662 
	L 213.593, 709.189 
	L 225.706, 719.558 
" />
<path d="M 275.359, 694.700 
	L 275.358, 694.701 
	L 261.164, 711.282 
	L 249.051, 700.913 
	L 263.245, 684.332 
	L 275.358, 694.701 
" />
<path d="M 339.185, 669.843 
	L 339.184, 669.844 
	L 324.898, 686.533 
	L 312.785, 676.164 
	L 327.071, 659.475 
	L 339.184, 669.844 
" />
<path d="M 417.183, 644.986 
	L 417.183, 644.987 
	L 402.805, 661.784 
	L 390.691, 651.414 
	L 405.070, 634.618 
	L 417.183, 644.987 
" />
<path d="M 509.355, 620.129 
	L 509.355, 620.130 
	L 494.885, 637.034 
	L 482.771, 626.665 
	L 497.242, 609.761 
	L 509.355, 620.130 
" />
<path d="M 615.701, 595.272 
	L 615.700, 595.273 
	L 601.138, 612.285 
	L 589.025, 601.916 
	L 603.587, 584.904 
	L 615.700, 595.273 
" />
<path d="M 736.219, 570.415 
	L 736.219, 570.416 
	L 721.564, 587.536 
	L 709.451, 577.167 
	L 724.105, 560.047 
	L 736.219, 570.416 
" />
<path d="M 870.911, 545.558 
	L 870.910, 545.559 
	L 856.164, 562.786 
	L 844.051, 552.417 
	L 858.797, 535.190 
	L 870.910, 545.559 
" />
<path d="M 1019.776, 520.701 
	L 1019.775, 520.702 
	L 1004.937, 538.037 
	L 992.823, 527.668 
	L 1007.662, 510.333 
	L 1019.775, 520.702 
" />
<path d="M 1182.814, 495.844 
	L 1182.814, 495.845 
	L 1167.883, 513.288 
	L 1155.770, 502.919 
	L 1170.700, 485.476 
	L 1182.814, 495.845 
" />
<path d="M 1360.026, 470.987 
	L 1360.025, 470.988 
	L 1345.002, 488.539 
	L 1332.889, 478.169 
	L 1347.912, 460.619 
	L 1360.025, 470.988 
" />
<path d="M 1551.410, 446.130 
	L 1551.410, 446.131 
	L 1536.295, 463.789 
	L 1524.181, 453.420 
	L 1539.296, 435.762 
	L 1551.410, 446.131 
" />
<path d="M 1756.968, 421.273 
	L 1756.967, 421.274 
	L 1741.760, 439.040 
	L 1729.647, 428.671 
	L 1744.854, 410.905 
	L 1756.967, 421.274 
" />
<path d="M 1976.699, 396.416 
	L 1976.699, 396.417 
	L 1961.399, 414.291 
	L 1949.286, 403.921 
	L 1964.586, 386.048 
	L 1976.699, 396.417 
" />
<path d="M 2210.604, 371.559 
	L 2210.603, 371.560 
	L 2195.212, 389.541 
	L 2183.098, 379.172 
	L 2198.490, 361.191 
	L 2210.603, 371.560 
" />
<path d="M 2458.682, 346.702 
	L 2458.681, 346.703 
	L 2443.197, 364.791 
	L 2431.084, 354.423 
	L 2446.568, 336.334 
	L 2458.681, 346.703 
" />
<path d="M 2720.932, 321.845 
	L 2720.931, 321.846 
	L 2705.356, 340.042 
	L 2693.243, 329.674 
	L 2708.818, 311.477 
	L 2720.931, 321.846 
" />
<path d="M 163.802, 797.917 
	L 163.801, 797.918 
	L 179.767, 783.880 
	L 190.529, 796.121 
	L 174.564, 810.159 
	L 163.801, 797.918 
" />
<path d="M 170.835, 772.452 
	L 170.834, 772.453 
	L 186.907, 758.322 
	L 197.670, 770.562 
	L 181.597, 784.694 
	L 170.834, 772.453 
" />
<path d="M 192.042, 746.987 
	L 192.041, 746.988 
	L 208.220, 732.763 
	L 218.983, 745.004 
	L 202.804, 759.229 
	L 192.041, 746.988 
" />
<path d="M 227.422, 721.522 
	L 227.421, 721.523 
	L 243.706, 707.205 
	L 254.469, 719.445 
	L 238.184, 733.764 
	L 227.421, 721.523 
" />
<path d="M 276.975, 696.058 
	L 276.974, 696.059 
	L 293.366, 681.646 
	L 304.128, 693.886 
	L 287.736, 708.299 
	L 276.974, 696.059 
" />
<path d="M 340.701, 670.593 
	L 340.700, 670.594 
	L 357.199, 656.087 
	L 367.961, 668.327 
	L 351.463, 682.834 
	L 340.700, 670.594 
" />
<path d="M 418.601, 645.128 
	L 418.600, 645.129 
	L 435.205, 630.529 
	L 445.967, 642.769 
	L 429.362, 657.369 
	L 418.600, 645.129 
" />
<path d="M 510.674, 619.663 
	L 510.673, 619.664 
	L 527.384, 604.970 
	L 538.146, 617.210 
	L 521.435, 631.904 
	L 510.673, 619.664 
" />
<path d="M 616.920, 594.198 
	L 616.919, 594.198 
	L 633.736, 579.412 
	L 644.499, 591.652 
	L 627.681, 606.438 
	L 616.919, 594.198 
" />
<path d="M 737.339, 568.733 
	L 737.338, 568.733 
	L 754.262, 553.853 
	L 765.024, 566.093 
	L 748.101, 580.973 
	L 737.338, 568.733 
" />
<path d="M 871.931, 543.268 
	L 871.931, 543.268 
	L 888.961, 528.294 
	L 899.723, 540.534 
	L 882.693, 555.508 
	L 871.931, 543.268 
" />
<path d="M 1020.697, 517.803 
	L 1020.696, 517.803 
	L 1037.833, 502.736 
	L 1048.596, 514.976 
	L 1031.459, 530.043 
	L 1020.696, 517.803 
" />
<path d="M 1183.636, 492.338 
	L 1183.635, 492.338 
	L 1200.878, 477.177 
	L 1211.641, 489.417 
	L 1194.398, 504.578 
	L 1183.635, 492.338 
" />
<path d="M 1360.748, 466.873 
	L 1360.747, 466.873 
	L 1378.097, 451.618 
	L 1388.860, 463.859 
	L 1371.510, 479.114 
	L 1360.747, 466.873 
" />
<path d="M 1552.033, 441.408 
	L 1552.033, 441.408 
	L 1569.489, 426.059 
	L 1580.251, 438.300 
	L 1562.795, 453.649 
	L 1552.033, 441.408 
" />
<path d="M 1757.492, 415.943 
	L 1757.491, 415.943 
	L 1775.054, 400.501 
	L 1785.816, 412.741 
	L 1768.254, 428.184 
	L 1757.491, 415.943 
" />
<path d="M 1977.124, 390.477 
	L 1977.123, 390.478 
	L 1994.792, 374.942 
	L 2005.555, 387.183 
	L 1987.886, 402.719 
	L 1977.123, 390.478 
" />
<path d="M 2210.929, 365.012 
	L 2210.928, 365.013 
	L 2228.704, 349.384 
	L 2239.466, 361.624 
	L 2221.691, 377.254 
	L 2210.928, 365.013 
" />
<path d="M 2458.907, 339.547 
	L 2458.907, 339.548 
	L 2476.788, 323.825 
	L 2487.551, 336.066 
	L 2469.669, 351.789 
	L 2458.907, 339.548 
" />
<path d="M 2721.059, 314.082 
	L 2721.058, 314.083 
	L 2739.046, 298.266 
	L 2749.809, 310.507 
	L 2731.821, 326.324 
	L 2721.058, 314.083 
" />
<path d="M 218.967, 798.163 
	L 218.966, 798.164 
	L 201.179, 809.809 
	L 192.057, 795.875 
	L 209.845, 784.230 
	L 218.966, 798.164 
" />
<path d="M 226.113, 771.904 
	L 226.112, 771.905 
	L 208.206, 783.627 
	L 199.085, 769.694 
	L 216.991, 757.972 
	L 226.112, 771.905 
" />
<path d="M 247.432, 745.644 
	L 247.431, 745.645 
	L 229.407, 757.445 
	L 220.285, 743.512 
	L 238.309, 731.712 
	L 247.431, 745.645 
" />
<path d="M 282.925, 719.385 
	L 282.924, 719.386 
	L 264.781, 731.264 
	L 255.659, 717.331 
	L 273.802, 705.453 
	L 282.924, 719.386 
" />
<path d="M 332.590, 693.126 
	L 332.589, 693.127 
	L 314.328, 705.082 
	L 305.206, 691.148 
	L 323.468, 679.193 
	L 332.589, 693.127 
" />
<path d="M 396.429, 666.867 
	L 396.428, 666.868 
	L 378.048, 678.901 
	L 368.926, 664.967 
	L 387.306, 652.934 
	L 396.428, 666.868 
" />
<path d="M 474.441, 640.607 
	L 474.440, 640.608 
	L 455.941, 652.718 
	L 446.820, 638.785 
	L 465.319, 626.675 
	L 474.440, 640.608 
" />
<path d="M 566.626, 614.348 
	L 566.625, 614.349 
	L 548.008, 626.537 
	L 538.887, 612.604 
	L 557.504, 600.416 
	L 566.625, 614.349 
" />
<path d="M 672.985, 588.089 
	L 672.984, 588.090 
	L 654.248, 600.355 
	L 645.126, 586.422 
	L 663.862, 574.156 
	L 672.984, 588.090 
" />
<path d="M 793.517, 561.830 
	L 793.516, 561.830 
	L 774.661, 574.174 
	L 765.539, 560.240 
	L 784.394, 547.897 
	L 793.516, 561.830 
" />
<path d="M 928.221, 535.570 
	L 928.220, 535.571 
	L 909.247, 547.992 
	L 900.126, 534.059 
	L 919.099, 521.638 
	L 928.220, 535.571 
" />
<path d="M 1077.100, 509.311 
	L 1077.099, 509.312 
	L 1058.008, 521.810 
	L 1048.886, 507.877 
	L 1067.977, 495.378 
	L 1077.099, 509.312 
" />
<path d="M 1240.151, 483.051 
	L 1240.151, 483.052 
	L 1220.940, 495.629 
	L 1211.818, 481.696 
	L 1231.029, 469.119 
	L 1240.151, 483.052 
" />
<path d="M 1417.376, 456.793 
	L 1417.375, 456.793 
	L 1398.046, 469.447 
	L 1388.925, 455.513 
	L 1408.254, 442.860 
	L 1417.375, 456.793 
" />
<path d="M 1608.774, 430.533 
	L 1608.773, 430.534 
	L 1589.326, 443.265 
	L 1580.204, 429.332 
	L 1599.651, 416.601 
	L 1608.773, 430.534 
" />
<path d="M 1814.345, 404.274 
	L 1814.344, 404.274 
	L 1794.778, 417.083 
	L 1785.656, 403.150 
	L 1805.222, 390.341 
	L 1814.344, 404.274 
" />
<path d="M 2034.089, 378.014 
	L 2034.088, 378.015 
	L 2014.404, 390.902 
	L 2005.282, 376.969 
	L 2024.967, 364.082 
	L 2034.088, 378.015 
" />
<path d="M 2268.007, 351.755 
	L 2268.006, 351.756 
	L 2248.203, 364.720 
	L 2239.081, 350.787 
	L 2258.884, 337.823 
	L 2268.006, 351.756 
" />
<path d="M 2516.098, 325.496 
	L 2516.097, 325.497 
	L 2496.175, 338.539 
	L 2487.053, 324.605 
	L 2506.975, 311.563 
	L 2516.097, 325.497 
" />
<path d="M 2778.361, 299.237 
	L 2778.361, 299.237 
	L 2758.320, 312.357 
	L 2749.199, 298.424 
	L 2769.239, 285.304 
	L 2778.361, 299.237 
" />
<path d="M 220.625, 793.827 
	L 220.625, 793.828 
	L 239.878, 784.809 
	L 247.092, 800.211 
	L 227.839, 809.230 
	L 220.625, 793.828 
" />
<path d="M 227.648, 766.928 
	L 227.648, 766.928 
	L 247.028, 757.850 
	L 254.242, 773.252 
	L 234.862, 782.330 
	L 227.648, 766.928 
" />
<path d="M 248.844, 740.029 
	L 248.843, 740.030 
	L 268.352, 730.892 
	L 275.567, 746.293 
	L 256.057, 755.431 
	L 248.843, 740.030 
" />
<path d="M 284.213, 713.130 
	L 284.212, 713.130 
	L 303.849, 703.932 
	L 311.063, 719.334 
	L 291.426, 728.532 
	L 284.212, 713.130 
" />
<path d="M 333.755, 686.230 
	L 333.754, 686.231 
	L 353.520, 676.973 
	L 360.734, 692.375 
	L 340.968, 701.633 
	L 333.754, 686.231 
" />
<path d="M 397.470, 659.332 
	L 397.469, 659.332 
	L 417.363, 650.013 
	L 424.578, 665.415 
	L 404.684, 674.734 
	L 397.469, 659.332 
" />
<path d="M 475.359, 632.432 
	L 475.358, 632.433 
	L 495.381, 623.055 
	L 502.595, 638.457 
	L 482.572, 647.835 
	L 475.358, 632.433 
" />
<path d="M 567.420, 605.534 
	L 567.420, 605.534 
	L 587.570, 596.095 
	L 594.785, 611.497 
	L 574.634, 620.936 
	L 567.420, 605.534 
" />
<path d="M 673.656, 578.634 
	L 673.655, 578.635 
	L 693.934, 569.136 
	L 701.148, 584.538 
	L 680.869, 594.037 
	L 673.655, 578.635 
" />
<path d="M 794.064, 551.736 
	L 794.063, 551.736 
	L 814.471, 542.177 
	L 821.685, 557.578 
	L 801.277, 567.138 
	L 794.063, 551.736 
" />
<path d="M 928.646, 524.836 
	L 928.645, 524.837 
	L 949.181, 515.217 
	L 956.395, 530.620 
	L 935.859, 540.239 
	L 928.645, 524.837 
" />
<path d="M 1077.400, 497.937 
	L 1077.399, 497.937 
	L 1098.064, 488.259 
	L 1105.278, 503.661 
	L 1084.614, 513.340 
	L 1077.399, 497.937 
" />
<path d="M 1240.328, 471.038 
	L 1240.327, 471.039 
	L 1261.120, 461.299 
	L 1268.335, 476.701 
	L 1247.542, 486.441 
	L 1240.327, 471.039 
" />
<path d="M 1417.429, 444.139 
	L 1417.429, 444.139 
	L 1438.350, 434.340 
	L 1445.564, 449.742 
	L 1424.643, 459.541 
	L 1417.429, 444.139 
" />
<path d="M 1608.703, 417.240 
	L 1608.703, 417.241 
	L 1629.752, 407.381 
	L 1636.967, 422.783 
	L 1615.918, 432.642 
	L 1608.703, 417.241 
" />
<path d="M 1814.152, 390.341 
	L 1814.151, 390.341 
	L 1835.328, 380.422 
	L 1842.543, 395.824 
	L 1821.365, 405.743 
	L 1814.151, 390.341 
" />
<path d="M 2033.772, 363.441 
	L 2033.771, 363.442 
	L 2055.077, 353.463 
	L 2062.292, 368.865 
	L 2040.986, 378.844 
	L 2033.771, 363.442 
" />
<path d="M 2267.567, 336.543 
	L 2267.566, 336.543 
	L 2289.000, 326.503 
	L 2296.214, 341.905 
	L 2274.780, 351.945 
	L 2267.566, 336.543 
" />
<path d="M 2515.534, 309.643 
	L 2515.533, 309.644 
	L 2537.096, 299.544 
	L 2544.310, 314.946 
	L 2522.747, 325.046 
	L 2515.533, 309.644 
" />
<path d="M 2777.675, 282.745 
	L 2777.674, 282.745 
	L 2799.365, 272.585 
	L 2806.579, 287.987 
	L 2784.888, 298.147 
	L 2777.674, 282.745 
" />
<path d="M 274.908, 802.216 
	L 274.907, 802.217 
	L 254.575, 808.428 
	L 249.503, 791.822 
	L 269.835, 785.612 
	L 274.907, 802.217 
" />
<path d="M 282.062, 774.557 
	L 282.061, 774.558 
	L 261.593, 780.810 
	L 256.521, 764.206 
	L 276.990, 757.953 
	L 282.061, 774.558 
" />
<path d="M 303.390, 746.899 
	L 303.389, 746.899 
	L 282.786, 753.193 
	L 277.713, 736.588 
	L 298.317, 730.295 
	L 303.389, 746.899 
" />
<path d="M 338.890, 719.240 
	L 338.890, 719.241 
	L 318.151, 725.576 
	L 313.079, 708.971 
	L 333.818, 702.637 
	L 338.890, 719.241 
" />
<path d="M 388.565, 691.582 
	L 388.564, 691.583 
	L 367.690, 697.959 
	L 362.617, 681.354 
	L 383.491, 674.977 
	L 388.564, 691.583 
" />
<path d="M 452.412, 663.923 
	L 452.412, 663.924 
	L 431.401, 670.342 
	L 426.329, 653.737 
	L 447.339, 647.319 
	L 452.412, 663.924 
" />
<path d="M 530.432, 636.265 
	L 530.432, 636.265 
	L 509.286, 642.725 
	L 504.214, 626.120 
	L 525.360, 619.661 
	L 530.432, 636.265 
" />
<path d="M 622.626, 608.606 
	L 622.626, 608.607 
	L 601.345, 615.108 
	L 596.272, 598.503 
	L 617.553, 592.002 
	L 622.626, 608.607 
" />
<path d="M 728.993, 580.948 
	L 728.992, 580.949 
	L 707.576, 587.490 
	L 702.504, 570.886 
	L 723.920, 564.344 
	L 728.992, 580.949 
" />
<path d="M 849.533, 553.290 
	L 849.533, 553.290 
	L 827.980, 559.874 
	L 822.908, 543.268 
	L 844.461, 536.685 
	L 849.533, 553.290 
" />
<path d="M 984.247, 525.631 
	L 984.246, 525.631 
	L 962.559, 532.257 
	L 957.486, 515.652 
	L 979.174, 509.027 
	L 984.246, 525.631 
" />
<path d="M 1133.133, 497.972 
	L 1133.133, 497.973 
	L 1111.310, 504.639 
	L 1106.238, 488.035 
	L 1128.061, 481.368 
	L 1133.133, 497.973 
" />
<path d="M 1296.194, 470.314 
	L 1296.193, 470.315 
	L 1274.234, 477.022 
	L 1269.162, 460.417 
	L 1291.121, 453.710 
	L 1296.193, 470.315 
" />
<path d="M 1473.427, 442.656 
	L 1473.426, 442.656 
	L 1451.332, 449.405 
	L 1446.259, 432.800 
	L 1468.354, 426.052 
	L 1473.426, 442.656 
" />
<path d="M 1664.833, 414.997 
	L 1664.832, 414.998 
	L 1642.602, 421.788 
	L 1637.530, 405.183 
	L 1659.760, 398.393 
	L 1664.832, 414.998 
" />
<path d="M 1870.413, 387.338 
	L 1870.412, 387.339 
	L 1848.046, 394.171 
	L 1842.974, 377.566 
	L 1865.340, 370.734 
	L 1870.412, 387.339 
" />
<path d="M 2090.166, 359.680 
	L 2090.165, 359.680 
	L 2067.664, 366.554 
	L 2062.591, 349.949 
	L 2085.093, 343.076 
	L 2090.165, 359.680 
" />
<path d="M 2324.092, 332.021 
	L 2324.091, 332.022 
	L 2301.454, 338.937 
	L 2296.382, 322.332 
	L 2319.019, 315.417 
	L 2324.091, 332.022 
" />
<path d="M 2572.191, 304.363 
	L 2572.191, 304.364 
	L 2549.418, 311.320 
	L 2544.346, 294.715 
	L 2567.118, 287.758 
	L 2572.191, 304.364 
" />
<path d="M 2834.463, 276.704 
	L 2834.463, 276.705 
	L 2811.555, 283.703 
	L 2806.483, 267.098 
	L 2829.391, 260.100 
	L 2834.463, 276.705 
" />
<path d="M 278.683, 789.906 
	L 278.682, 789.907 
	L 299.687, 786.628 
	L 302.421, 804.132 
	L 281.415, 807.411 
	L 278.682, 789.907 
" />
<path d="M 285.700, 761.571 
	L 285.699, 761.572 
	L 306.844, 758.270 
	L 309.577, 775.775 
	L 288.432, 779.076 
	L 285.699, 761.572 
" />
<path d="M 306.889, 733.235 
	L 306.889, 733.236 
	L 328.174, 729.913 
	L 330.907, 747.417 
	L 309.621, 750.740 
	L 306.889, 733.236 
" />
<path d="M 342.252, 704.900 
	L 342.252, 704.901 
	L 363.677, 701.556 
	L 366.410, 719.060 
	L 344.984, 722.405 
	L 342.252, 704.901 
" />
<path d="M 391.788, 676.564 
	L 391.788, 676.565 
	L 413.354, 673.198 
	L 416.086, 690.703 
	L 394.520, 694.069 
	L 391.788, 676.565 
" />
<path d="M 455.498, 648.229 
	L 455.497, 648.230 
	L 477.203, 644.841 
	L 479.936, 662.345 
	L 458.230, 665.734 
	L 455.497, 648.230 
" />
<path d="M 533.381, 619.893 
	L 533.380, 619.894 
	L 555.226, 616.483 
	L 557.958, 633.988 
	L 536.113, 637.399 
	L 533.380, 619.894 
" />
<path d="M 625.437, 591.557 
	L 625.436, 591.558 
	L 647.422, 588.126 
	L 650.154, 605.631 
	L 628.169, 609.063 
	L 625.436, 591.558 
" />
<path d="M 731.666, 563.222 
	L 731.665, 563.223 
	L 753.791, 559.768 
	L 756.524, 577.273 
	L 734.398, 580.728 
	L 731.665, 563.223 
" />
<path d="M 852.068, 534.886 
	L 852.068, 534.887 
	L 874.334, 531.411 
	L 877.066, 548.916 
	L 854.800, 552.392 
	L 852.068, 534.887 
" />
<path d="M 986.644, 506.551 
	L 986.643, 506.552 
	L 1009.049, 503.054 
	L 1011.782, 520.558 
	L 989.377, 524.056 
	L 986.643, 506.552 
" />
<path d="M 1135.393, 478.215 
	L 1135.393, 478.216 
	L 1157.938, 474.696 
	L 1160.671, 492.201 
	L 1138.125, 495.721 
	L 1135.393, 478.216 
" />
<path d="M 1298.315, 449.880 
	L 1298.315, 449.880 
	L 1321.000, 446.339 
	L 1323.733, 463.844 
	L 1301.047, 467.385 
	L 1298.315, 449.880 
" />
<path d="M 1475.411, 421.545 
	L 1475.410, 421.545 
	L 1498.236, 417.981 
	L 1500.969, 435.486 
	L 1478.143, 439.050 
	L 1475.410, 421.545 
" />
<path d="M 1666.679, 393.209 
	L 1666.678, 393.209 
	L 1689.645, 389.624 
	L 1692.377, 407.129 
	L 1669.411, 410.714 
	L 1666.678, 393.209 
" />
<path d="M 1872.121, 364.874 
	L 1872.120, 364.874 
	L 1895.226, 361.266 
	L 1897.959, 378.771 
	L 1874.853, 382.379 
	L 1872.120, 364.874 
" />
<path d="M 2091.736, 336.538 
	L 2091.736, 336.538 
	L 2114.981, 332.909 
	L 2117.714, 350.414 
	L 2094.468, 354.043 
	L 2091.736, 336.538 
" />
<path d="M 2325.525, 308.203 
	L 2325.524, 308.203 
	L 2348.910, 304.552 
	L 2351.642, 322.056 
	L 2328.256, 325.707 
	L 2325.524, 308.203 
" />
<path d="M 2573.486, 279.867 
	L 2573.485, 279.867 
	L 2597.011, 276.194 
	L 2599.744, 293.699 
	L 2576.218, 297.372 
	L 2573.485, 279.867 
" />
<path d="M 2835.621, 251.531 
	L 2835.620, 251.532 
	L 2859.286, 247.837 
	L 2862.019, 265.342 
	L 2838.352, 269.036 
	L 2835.620, 251.532 
" />
<path d="M 329.647, 805.913 
	L 329.647, 805.913 
	L 308.389, 806.195 
	L 308.149, 788.126 
	L 329.406, 787.844 
	L 329.647, 805.913 
" />
<path d="M 336.805, 776.856 
	L 336.804, 776.857 
	L 315.405, 777.141 
	L 315.164, 759.072 
	L 336.564, 758.788 
	L 336.804, 776.857 
" />
<path d="M 358.136, 747.800 
	L 358.135, 747.801 
	L 336.594, 748.087 
	L 336.353, 730.018 
	L 357.895, 729.731 
	L 358.135, 747.801 
" />
<path d="M 393.640, 718.744 
	L 393.639, 718.745 
	L 371.956, 719.033 
	L 371.716, 700.963 
	L 393.399, 700.676 
	L 393.639, 718.745 
" />
<path d="M 443.317, 689.688 
	L 443.316, 689.688 
	L 421.491, 689.978 
	L 421.251, 671.910 
	L 443.076, 671.620 
	L 443.316, 689.688 
" />
<path d="M 507.167, 660.632 
	L 507.166, 660.633 
	L 485.200, 660.925 
	L 484.960, 642.855 
	L 506.926, 642.563 
	L 507.166, 660.633 
" />
<path d="M 585.191, 631.576 
	L 585.190, 631.577 
	L 563.082, 631.870 
	L 562.842, 613.801 
	L 584.950, 613.507 
	L 585.190, 631.577 
" />
<path d="M 677.388, 602.520 
	L 677.387, 602.520 
	L 655.137, 602.816 
	L 654.897, 584.747 
	L 677.147, 584.452 
	L 677.387, 602.520 
" />
<path d="M 783.758, 573.464 
	L 783.757, 573.464 
	L 761.365, 573.762 
	L 761.125, 555.693 
	L 783.517, 555.395 
	L 783.757, 573.464 
" />
<path d="M 904.301, 544.408 
	L 904.300, 544.409 
	L 881.767, 544.708 
	L 881.527, 526.638 
	L 904.060, 526.339 
	L 904.300, 544.409 
" />
<path d="M 1039.018, 515.351 
	L 1039.017, 515.352 
	L 1016.342, 515.653 
	L 1016.102, 497.585 
	L 1038.777, 497.283 
	L 1039.017, 515.352 
" />
<path d="M 1187.907, 486.296 
	L 1187.907, 486.296 
	L 1165.090, 486.600 
	L 1164.850, 468.530 
	L 1187.666, 468.227 
	L 1187.907, 486.296 
" />
<path d="M 1350.970, 457.240 
	L 1350.970, 457.240 
	L 1328.011, 457.545 
	L 1327.771, 439.476 
	L 1350.729, 439.171 
	L 1350.970, 457.240 
" />
<path d="M 1528.207, 428.183 
	L 1528.206, 428.184 
	L 1505.106, 428.491 
	L 1504.865, 410.422 
	L 1527.966, 410.115 
	L 1528.206, 428.184 
" />
<path d="M 1719.616, 399.127 
	L 1719.615, 399.128 
	L 1696.373, 399.437 
	L 1696.133, 381.368 
	L 1719.375, 381.059 
	L 1719.615, 399.128 
" />
<path d="M 1925.199, 370.072 
	L 1925.198, 370.072 
	L 1901.814, 370.383 
	L 1901.574, 352.313 
	L 1924.958, 352.003 
	L 1925.198, 370.072 
" />
<path d="M 2144.955, 341.015 
	L 2144.954, 341.016 
	L 2121.429, 341.328 
	L 2121.188, 323.260 
	L 2144.714, 322.947 
	L 2144.954, 341.016 
" />
<path d="M 2378.884, 311.959 
	L 2378.883, 311.960 
	L 2355.216, 312.275 
	L 2354.976, 294.205 
	L 2378.643, 293.890 
	L 2378.883, 311.960 
" />
<path d="M 2626.986, 282.903 
	L 2626.986, 282.904 
	L 2603.177, 283.220 
	L 2602.936, 265.151 
	L 2626.745, 264.835 
	L 2626.986, 282.904 
" />
<path d="M 2889.262, 253.847 
	L 2889.261, 253.848 
	L 2865.311, 254.166 
	L 2865.070, 236.097 
	L 2889.021, 235.779 
	L 2889.261, 253.848 
" />
<path d="M 337.881, 786.521 
	L 337.881, 786.522 
	L 358.965, 789.243 
	L 356.608, 807.517 
	L 335.523, 804.796 
	L 337.881, 786.522 
" />
<path d="M 344.898, 756.749 
	L 344.897, 756.750 
	L 366.122, 759.488 
	L 363.764, 777.762 
	L 342.539, 775.023 
	L 344.897, 756.750 
" />
<path d="M 366.087, 726.976 
	L 366.086, 726.977 
	L 387.453, 729.734 
	L 385.095, 748.007 
	L 363.728, 745.250 
	L 366.086, 726.977 
" />
<path d="M 401.450, 697.203 
	L 401.449, 697.204 
	L 422.956, 699.979 
	L 420.598, 718.253 
	L 399.091, 715.477 
	L 401.449, 697.204 
" />
<path d="M 450.986, 667.430 
	L 450.985, 667.431 
	L 472.633, 670.224 
	L 470.275, 688.498 
	L 448.627, 685.704 
	L 450.985, 667.431 
" />
<path d="M 514.695, 637.657 
	L 514.694, 637.658 
	L 536.482, 640.469 
	L 534.125, 658.743 
	L 512.337, 655.932 
	L 514.694, 637.658 
" />
<path d="M 592.578, 607.885 
	L 592.577, 607.886 
	L 614.505, 610.715 
	L 612.148, 628.988 
	L 590.219, 626.159 
	L 592.577, 607.886 
" />
<path d="M 684.634, 578.112 
	L 684.633, 578.113 
	L 706.701, 580.960 
	L 704.344, 599.234 
	L 682.275, 596.386 
	L 684.633, 578.113 
" />
<path d="M 790.862, 548.339 
	L 790.861, 548.340 
	L 813.071, 551.205 
	L 810.714, 569.479 
	L 788.504, 566.613 
	L 790.861, 548.340 
" />
<path d="M 911.264, 518.566 
	L 911.264, 518.567 
	L 933.614, 521.450 
	L 931.256, 539.724 
	L 908.906, 536.841 
	L 911.264, 518.567 
" />
<path d="M 1045.840, 488.793 
	L 1045.839, 488.794 
	L 1068.330, 491.696 
	L 1065.972, 509.970 
	L 1043.481, 507.068 
	L 1045.839, 488.794 
" />
<path d="M 1194.589, 459.021 
	L 1194.588, 459.021 
	L 1217.219, 461.941 
	L 1214.861, 480.215 
	L 1192.230, 477.295 
	L 1194.588, 459.021 
" />
<path d="M 1357.511, 429.248 
	L 1357.510, 429.248 
	L 1380.281, 432.186 
	L 1377.924, 450.460 
	L 1355.152, 447.522 
	L 1357.510, 429.248 
" />
<path d="M 1534.606, 399.475 
	L 1534.605, 399.475 
	L 1557.518, 402.432 
	L 1555.159, 420.705 
	L 1532.247, 417.749 
	L 1534.605, 399.475 
" />
<path d="M 1725.874, 369.702 
	L 1725.873, 369.702 
	L 1748.926, 372.677 
	L 1746.569, 390.951 
	L 1723.515, 387.977 
	L 1725.873, 369.702 
" />
<path d="M 1931.315, 339.929 
	L 1931.315, 339.929 
	L 1954.508, 342.922 
	L 1952.151, 361.196 
	L 1928.957, 358.204 
	L 1931.315, 339.929 
" />
<path d="M 2150.930, 310.156 
	L 2150.929, 310.157 
	L 2174.264, 313.167 
	L 2171.906, 331.441 
	L 2148.572, 328.431 
	L 2150.929, 310.157 
" />
<path d="M 2384.719, 280.383 
	L 2384.718, 280.384 
	L 2408.192, 283.413 
	L 2405.834, 301.686 
	L 2382.360, 298.658 
	L 2384.718, 280.384 
" />
<path d="M 2632.680, 250.610 
	L 2632.679, 250.611 
	L 2656.294, 253.658 
	L 2653.936, 271.932 
	L 2630.321, 268.885 
	L 2632.679, 250.611 
" />
<path d="M 2894.814, 220.837 
	L 2894.813, 220.838 
	L 2918.569, 223.903 
	L 2916.212, 242.177 
	L 2892.455, 239.112 
	L 2894.813, 220.838 
" />
<path d="M 383.333, 808.903 
	L 383.332, 808.904 
	L 362.842, 803.235 
	L 367.849, 785.135 
	L 388.339, 790.804 
	L 383.332, 808.904 
" />
<path d="M 390.487, 778.450 
	L 390.487, 778.450 
	L 369.860, 772.744 
	L 374.868, 754.644 
	L 395.494, 760.351 
	L 390.487, 778.450 
" />
<path d="M 411.816, 747.996 
	L 411.815, 747.997 
	L 391.051, 742.252 
	L 396.059, 724.153 
	L 416.823, 729.897 
	L 411.815, 747.997 
" />
<path d="M 447.317, 717.542 
	L 447.316, 717.543 
	L 426.417, 711.761 
	L 431.424, 693.661 
	L 452.324, 699.443 
	L 447.316, 717.543 
" />
<path d="M 496.991, 687.089 
	L 496.991, 687.090 
	L 475.955, 681.270 
	L 480.962, 663.170 
	L 501.998, 668.990 
	L 496.991, 687.090 
" />
<path d="M 560.840, 656.635 
	L 560.839, 656.636 
	L 539.666, 650.778 
	L 544.673, 632.679 
	L 565.846, 638.537 
	L 560.839, 656.636 
" />
<path d="M 638.860, 626.182 
	L 638.860, 626.183 
	L 617.550, 620.287 
	L 622.558, 602.187 
	L 643.867, 608.083 
	L 638.860, 626.183 
" />
<path d="M 731.055, 595.729 
	L 731.055, 595.729 
	L 709.608, 589.796 
	L 714.615, 571.696 
	L 736.062, 577.629 
	L 731.055, 595.729 
" />
<path d="M 837.422, 565.275 
	L 837.422, 565.275 
	L 815.839, 559.304 
	L 820.846, 541.205 
	L 842.429, 547.176 
	L 837.422, 565.275 
" />
<path d="M 957.963, 534.821 
	L 957.962, 534.822 
	L 936.243, 528.813 
	L 941.251, 510.713 
	L 962.970, 516.722 
	L 957.962, 534.822 
" />
<path d="M 1092.677, 504.368 
	L 1092.677, 504.369 
	L 1070.820, 498.322 
	L 1075.828, 480.222 
	L 1097.684, 486.269 
	L 1092.677, 504.369 
" />
<path d="M 1241.564, 473.914 
	L 1241.564, 473.915 
	L 1219.571, 467.830 
	L 1224.578, 449.731 
	L 1246.571, 455.815 
	L 1241.564, 473.915 
" />
<path d="M 1404.625, 443.461 
	L 1404.624, 443.461 
	L 1382.494, 437.339 
	L 1387.503, 419.239 
	L 1409.632, 425.361 
	L 1404.624, 443.461 
" />
<path d="M 1581.859, 413.007 
	L 1581.858, 413.008 
	L 1559.592, 406.848 
	L 1564.599, 388.748 
	L 1586.865, 394.908 
	L 1581.858, 413.008 
" />
<path d="M 1773.265, 382.553 
	L 1773.265, 382.554 
	L 1750.862, 376.356 
	L 1755.870, 358.257 
	L 1778.272, 364.455 
	L 1773.265, 382.554 
" />
<path d="M 1978.846, 352.100 
	L 1978.845, 352.101 
	L 1956.306, 345.865 
	L 1961.313, 327.765 
	L 1983.853, 334.001 
	L 1978.845, 352.101 
" />
<path d="M 2198.599, 321.647 
	L 2198.598, 321.647 
	L 2175.923, 315.374 
	L 2180.930, 297.274 
	L 2203.606, 303.547 
	L 2198.598, 321.647 
" />
<path d="M 2432.526, 291.193 
	L 2432.525, 291.193 
	L 2409.713, 284.882 
	L 2414.720, 266.783 
	L 2437.532, 273.094 
	L 2432.525, 291.193 
" />
<path d="M 2680.626, 260.739 
	L 2680.625, 260.740 
	L 2657.676, 254.391 
	L 2662.683, 236.291 
	L 2685.632, 242.640 
	L 2680.625, 260.740 
" />
<path d="M 2942.899, 230.286 
	L 2942.898, 230.287 
	L 2919.812, 223.899 
	L 2924.820, 205.800 
	L 2947.905, 212.187 
	L 2942.898, 230.287 
" />
<path d="M 398.022, 783.999 
	L 398.021, 783.999 
	L 417.507, 792.503 
	L 409.853, 810.040 
	L 390.368, 801.536 
	L 398.021, 783.999 
" />
<path d="M 405.043, 752.789 
	L 405.043, 752.790 
	L 424.658, 761.351 
	L 417.005, 778.887 
	L 397.390, 770.326 
	L 405.043, 752.790 
" />
<path d="M 426.239, 721.580 
	L 426.238, 721.580 
	L 445.983, 730.198 
	L 438.329, 747.734 
	L 418.584, 739.117 
	L 426.238, 721.580 
" />
<path d="M 461.607, 690.370 
	L 461.606, 690.371 
	L 481.481, 699.045 
	L 473.827, 716.582 
	L 453.952, 707.908 
	L 461.606, 690.371 
" />
<path d="M 511.148, 659.161 
	L 511.147, 659.162 
	L 531.152, 667.892 
	L 523.499, 685.429 
	L 503.494, 676.698 
	L 511.147, 659.162 
" />
<path d="M 574.863, 627.951 
	L 574.862, 627.952 
	L 594.996, 636.739 
	L 587.343, 654.276 
	L 567.208, 645.489 
	L 574.862, 627.952 
" />
<path d="M 652.750, 596.742 
	L 652.750, 596.743 
	L 673.014, 605.587 
	L 665.361, 623.123 
	L 645.096, 614.279 
	L 652.750, 596.743 
" />
<path d="M 744.811, 565.532 
	L 744.810, 565.533 
	L 765.205, 574.434 
	L 757.552, 591.971 
	L 737.158, 583.070 
	L 744.810, 565.533 
" />
<path d="M 851.046, 534.323 
	L 851.045, 534.324 
	L 871.569, 543.281 
	L 863.916, 560.818 
	L 843.392, 551.860 
	L 851.045, 534.324 
" />
<path d="M 971.453, 503.114 
	L 971.452, 503.114 
	L 992.106, 512.128 
	L 984.453, 529.665 
	L 963.800, 520.651 
	L 971.452, 503.114 
" />
<path d="M 1106.034, 471.904 
	L 1106.033, 471.905 
	L 1126.817, 480.976 
	L 1119.164, 498.512 
	L 1098.380, 489.441 
	L 1106.033, 471.905 
" />
<path d="M 1254.788, 440.695 
	L 1254.787, 440.695 
	L 1275.701, 449.823 
	L 1268.048, 467.359 
	L 1247.134, 458.232 
	L 1254.787, 440.695 
" />
<path d="M 1417.715, 409.485 
	L 1417.714, 409.486 
	L 1438.758, 418.670 
	L 1431.105, 436.207 
	L 1410.061, 427.022 
	L 1417.714, 409.486 
" />
<path d="M 1594.816, 378.276 
	L 1594.815, 378.276 
	L 1615.989, 387.517 
	L 1608.335, 405.054 
	L 1587.162, 395.813 
	L 1594.815, 378.276 
" />
<path d="M 1786.089, 347.066 
	L 1786.089, 347.067 
	L 1807.392, 356.365 
	L 1799.739, 373.901 
	L 1778.435, 364.604 
	L 1786.089, 347.067 
" />
<path d="M 1991.536, 315.857 
	L 1991.535, 315.858 
	L 2012.969, 325.212 
	L 2005.316, 342.748 
	L 1983.882, 333.394 
	L 1991.535, 315.858 
" />
<path d="M 2211.156, 284.647 
	L 2211.156, 284.648 
	L 2232.719, 294.059 
	L 2225.065, 311.596 
	L 2203.502, 302.185 
	L 2211.156, 284.648 
" />
<path d="M 2444.950, 253.438 
	L 2444.949, 253.439 
	L 2466.642, 262.906 
	L 2458.989, 280.443 
	L 2437.295, 270.975 
	L 2444.949, 253.439 
" />
<path d="M 2692.916, 222.228 
	L 2692.915, 222.229 
	L 2714.738, 231.754 
	L 2707.086, 249.290 
	L 2685.262, 239.766 
	L 2692.915, 222.229 
" />
<path d="M 2955.056, 191.019 
	L 2955.055, 191.020 
	L 2977.008, 200.601 
	L 2969.355, 218.137 
	L 2947.402, 208.556 
	L 2955.055, 191.020 
" />
<path d="M 436.210, 810.894 
	L 436.210, 810.895 
	L 418.120, 799.727 
	L 428.358, 783.144 
	L 446.448, 794.312 
	L 436.210, 810.895 
" />
<path d="M 443.357, 779.042 
	L 443.356, 779.042 
	L 425.146, 767.800 
	L 435.384, 751.217 
	L 453.594, 762.460 
	L 443.356, 779.042 
" />
<path d="M 464.678, 747.189 
	L 464.677, 747.190 
	L 446.346, 735.873 
	L 456.583, 719.290 
	L 474.914, 730.607 
	L 464.677, 747.190 
" />
<path d="M 500.171, 715.336 
	L 500.170, 715.337 
	L 481.718, 703.945 
	L 491.956, 687.363 
	L 510.408, 698.755 
	L 500.170, 715.337 
" />
<path d="M 549.838, 683.484 
	L 549.837, 683.485 
	L 531.264, 672.019 
	L 541.502, 655.436 
	L 560.074, 666.902 
	L 549.837, 683.485 
" />
<path d="M 613.677, 651.631 
	L 613.677, 651.632 
	L 594.984, 640.091 
	L 605.221, 623.509 
	L 623.914, 635.050 
	L 613.677, 651.632 
" />
<path d="M 691.690, 619.779 
	L 691.690, 619.780 
	L 672.876, 608.165 
	L 683.114, 591.582 
	L 701.927, 603.197 
	L 691.690, 619.780 
" />
<path d="M 783.877, 587.926 
	L 783.876, 587.927 
	L 764.942, 576.237 
	L 775.179, 559.656 
	L 794.113, 571.345 
	L 783.876, 587.927 
" />
<path d="M 890.236, 556.074 
	L 890.235, 556.075 
	L 871.181, 544.311 
	L 881.418, 527.728 
	L 900.473, 539.492 
	L 890.235, 556.075 
" />
<path d="M 1010.769, 524.222 
	L 1010.768, 524.222 
	L 991.592, 512.384 
	L 1001.831, 495.801 
	L 1021.006, 507.640 
	L 1010.768, 524.222 
" />
<path d="M 1145.475, 492.369 
	L 1145.474, 492.370 
	L 1126.178, 480.457 
	L 1136.416, 463.874 
	L 1155.712, 475.787 
	L 1145.474, 492.370 
" />
<path d="M 1294.354, 460.517 
	L 1294.353, 460.517 
	L 1274.937, 448.530 
	L 1285.175, 431.947 
	L 1304.591, 443.935 
	L 1294.353, 460.517 
" />
<path d="M 1457.406, 428.664 
	L 1457.406, 428.664 
	L 1437.869, 416.603 
	L 1448.107, 400.020 
	L 1467.644, 412.082 
	L 1457.406, 428.664 
" />
<path d="M 1634.633, 396.811 
	L 1634.632, 396.812 
	L 1614.974, 384.676 
	L 1625.211, 368.093 
	L 1644.869, 380.229 
	L 1634.632, 396.812 
" />
<path d="M 1826.032, 364.959 
	L 1826.031, 364.959 
	L 1806.252, 352.749 
	L 1816.489, 336.166 
	L 1836.268, 348.377 
	L 1826.031, 364.959 
" />
<path d="M 2031.604, 333.106 
	L 2031.603, 333.107 
	L 2011.704, 320.822 
	L 2021.941, 304.239 
	L 2041.840, 316.524 
	L 2031.603, 333.107 
" />
<path d="M 2251.349, 301.253 
	L 2251.348, 301.254 
	L 2231.328, 288.895 
	L 2241.566, 272.312 
	L 2261.586, 284.671 
	L 2251.348, 301.254 
" />
<path d="M 2485.268, 269.401 
	L 2485.267, 269.402 
	L 2465.127, 256.968 
	L 2475.364, 240.385 
	L 2495.504, 252.819 
	L 2485.267, 269.402 
" />
<path d="M 2733.359, 237.548 
	L 2733.358, 237.549 
	L 2713.098, 225.041 
	L 2723.335, 208.458 
	L 2743.596, 220.966 
	L 2733.358, 237.549 
" />
<path d="M 2995.624, 205.696 
	L 2995.624, 205.697 
	L 2975.242, 193.114 
	L 2985.480, 176.531 
	L 3005.861, 189.114 
	L 2995.624, 205.697 
" />
<path d="M 458.815, 782.592 
	L 458.814, 782.593 
	L 475.148, 796.202 
	L 462.446, 811.447 
	L 446.112, 797.837 
	L 458.814, 782.593 
" />
<path d="M 465.847, 749.948 
	L 465.846, 749.949 
	L 482.289, 763.649 
	L 469.587, 778.893 
	L 453.144, 765.193 
	L 465.846, 749.949 
" />
<path d="M 487.053, 717.304 
	L 487.052, 717.305 
	L 503.603, 731.096 
	L 490.900, 746.340 
	L 474.350, 732.549 
	L 487.052, 717.305 
" />
<path d="M 522.432, 684.661 
	L 522.431, 684.661 
	L 539.090, 698.543 
	L 526.388, 713.787 
	L 509.729, 699.905 
	L 522.431, 684.661 
" />
<path d="M 571.983, 652.017 
	L 571.983, 652.018 
	L 588.751, 665.990 
	L 576.049, 681.234 
	L 559.281, 667.262 
	L 571.983, 652.018 
" />
<path d="M 635.708, 619.373 
	L 635.708, 619.374 
	L 652.585, 633.437 
	L 639.883, 648.681 
	L 623.006, 634.618 
	L 635.708, 619.374 
" />
<path d="M 713.607, 586.729 
	L 713.606, 586.730 
	L 730.592, 600.884 
	L 717.890, 616.128 
	L 700.904, 601.974 
	L 713.606, 586.730 
" />
<path d="M 805.678, 554.085 
	L 805.677, 554.086 
	L 822.773, 568.331 
	L 810.071, 583.575 
	L 792.975, 569.330 
	L 805.677, 554.086 
" />
<path d="M 911.923, 521.442 
	L 911.923, 521.442 
	L 929.126, 535.778 
	L 916.424, 551.022 
	L 899.221, 536.686 
	L 911.923, 521.442 
" />
<path d="M 1032.341, 488.798 
	L 1032.341, 488.799 
	L 1049.653, 503.225 
	L 1036.951, 518.469 
	L 1019.639, 504.043 
	L 1032.341, 488.799 
" />
<path d="M 1166.932, 456.154 
	L 1166.932, 456.155 
	L 1184.353, 470.672 
	L 1171.651, 485.916 
	L 1154.230, 471.399 
	L 1166.932, 456.155 
" />
<path d="M 1315.697, 423.510 
	L 1315.696, 423.511 
	L 1333.227, 438.119 
	L 1320.525, 453.363 
	L 1302.994, 438.755 
	L 1315.696, 423.511 
" />
<path d="M 1478.634, 390.867 
	L 1478.634, 390.867 
	L 1496.274, 405.566 
	L 1483.572, 420.810 
	L 1465.932, 406.111 
	L 1478.634, 390.867 
" />
<path d="M 1655.745, 358.223 
	L 1655.744, 358.223 
	L 1673.494, 373.013 
	L 1660.791, 388.257 
	L 1643.042, 373.467 
	L 1655.744, 358.223 
" />
<path d="M 1847.030, 325.579 
	L 1847.029, 325.580 
	L 1864.886, 340.459 
	L 1852.184, 355.703 
	L 1834.327, 340.824 
	L 1847.029, 325.580 
" />
<path d="M 2052.487, 292.935 
	L 2052.486, 292.936 
	L 2070.453, 307.906 
	L 2057.750, 323.150 
	L 2039.784, 308.180 
	L 2052.486, 292.936 
" />
<path d="M 2272.118, 260.291 
	L 2272.117, 260.292 
	L 2290.192, 275.353 
	L 2277.490, 290.597 
	L 2259.415, 275.536 
	L 2272.117, 260.292 
" />
<path d="M 2505.922, 227.648 
	L 2505.921, 227.648 
	L 2524.105, 242.800 
	L 2511.403, 258.044 
	L 2493.219, 242.892 
	L 2505.921, 227.648 
" />
<path d="M 2753.899, 195.004 
	L 2753.898, 195.005 
	L 2772.191, 210.247 
	L 2759.489, 225.491 
	L 2741.196, 210.249 
	L 2753.898, 195.005 
" />
<path d="M 3016.049, 162.360 
	L 3016.049, 162.361 
	L 3034.450, 177.694 
	L 3021.748, 192.938 
	L 3003.346, 177.605 
	L 3016.049, 162.361 
" />
<path d="M 488.607, 811.676 
	L 488.607, 811.677 
	L 474.357, 795.898 
	L 489.346, 782.362 
	L 503.595, 798.141 
	L 488.607, 811.677 
" />
<path d="M 495.741, 778.421 
	L 495.741, 778.422 
	L 481.397, 762.539 
	L 496.385, 749.003 
	L 510.730, 764.886 
	L 495.741, 778.422 
" />
<path d="M 517.049, 745.167 
	L 517.048, 745.168 
	L 502.609, 729.179 
	L 517.598, 715.643 
	L 532.037, 731.631 
	L 517.048, 745.168 
" />
<path d="M 552.529, 711.913 
	L 552.529, 711.914 
	L 537.995, 695.820 
	L 552.983, 682.283 
	L 567.517, 698.377 
	L 552.529, 711.914 
" />
<path d="M 602.183, 678.658 
	L 602.182, 678.659 
	L 587.553, 662.460 
	L 602.542, 648.923 
	L 617.171, 665.122 
	L 602.182, 678.659 
" />
<path d="M 666.010, 645.404 
	L 666.009, 645.404 
	L 651.285, 629.100 
	L 666.274, 615.564 
	L 680.998, 631.868 
	L 666.009, 645.404 
" />
<path d="M 744.010, 612.149 
	L 744.010, 612.150 
	L 729.191, 595.741 
	L 744.180, 582.204 
	L 758.998, 598.613 
	L 744.010, 612.150 
" />
<path d="M 836.184, 578.895 
	L 836.183, 578.896 
	L 821.269, 562.381 
	L 836.258, 548.844 
	L 851.172, 565.359 
	L 836.183, 578.896 
" />
<path d="M 942.530, 545.640 
	L 942.530, 545.641 
	L 927.521, 529.021 
	L 942.510, 515.485 
	L 957.519, 532.104 
	L 942.530, 545.641 
" />
<path d="M 1063.050, 512.386 
	L 1063.050, 512.386 
	L 1047.946, 495.662 
	L 1062.935, 482.125 
	L 1078.039, 498.850 
	L 1063.050, 512.386 
" />
<path d="M 1197.744, 479.131 
	L 1197.743, 479.132 
	L 1182.544, 462.302 
	L 1197.533, 448.766 
	L 1212.732, 465.596 
	L 1197.743, 479.132 
" />
<path d="M 1346.610, 445.876 
	L 1346.609, 445.877 
	L 1331.316, 428.942 
	L 1346.305, 415.406 
	L 1361.598, 432.341 
	L 1346.609, 445.877 
" />
<path d="M 1509.650, 412.622 
	L 1509.649, 412.623 
	L 1494.260, 395.583 
	L 1509.249, 382.046 
	L 1524.638, 399.086 
	L 1509.649, 412.623 
" />
<path d="M 1686.862, 379.368 
	L 1686.862, 379.368 
	L 1671.378, 362.223 
	L 1686.367, 348.686 
	L 1701.851, 365.832 
	L 1686.862, 379.368 
" />
<path d="M 1878.249, 346.113 
	L 1878.248, 346.114 
	L 1862.669, 328.863 
	L 1877.658, 315.327 
	L 1893.237, 332.578 
	L 1878.248, 346.114 
" />
<path d="M 2083.808, 312.858 
	L 2083.807, 312.859 
	L 2068.134, 295.503 
	L 2083.123, 281.967 
	L 2098.796, 299.323 
	L 2083.807, 312.859 
" />
<path d="M 2303.540, 279.605 
	L 2303.540, 279.605 
	L 2287.771, 262.144 
	L 2302.760, 248.607 
	L 2318.529, 266.068 
	L 2303.540, 279.605 
" />
<path d="M 2537.446, 246.350 
	L 2537.446, 246.351 
	L 2521.581, 228.784 
	L 2536.571, 215.247 
	L 2552.435, 232.814 
	L 2537.446, 246.351 
" />
<path d="M 2785.525, 213.095 
	L 2785.525, 213.096 
	L 2769.566, 195.425 
	L 2784.555, 181.888 
	L 2800.514, 199.559 
	L 2785.525, 213.096 
" />
<path d="M 3047.778, 179.841 
	L 3047.777, 179.841 
	L 3031.723, 162.065 
	L 3046.712, 148.528 
	L 3062.766, 166.305 
	L 3047.777, 179.841 
" />
<path d="M 519.905, 782.462 
	L 519.905, 782.462 
	L 531.785, 800.093 
	L 514.741, 811.577 
	L 502.861, 793.946 
	L 519.905, 782.462 
" />
<path d="M 526.952, 748.387 
	L 526.952, 748.388 
	L 538.911, 766.136 
	L 521.868, 777.620 
	L 509.908, 759.872 
	L 526.952, 748.388 
" />
<path d="M 548.172, 714.312 
	L 548.172, 714.313 
	L 560.210, 732.179 
	L 543.167, 743.663 
	L 531.128, 725.797 
	L 548.172, 714.313 
" />
<path d="M 583.566, 680.238 
	L 583.566, 680.239 
	L 595.682, 698.222 
	L 578.639, 709.706 
	L 566.522, 691.722 
	L 583.566, 680.239 
" />
<path d="M 633.133, 646.163 
	L 633.132, 646.164 
	L 645.328, 664.265 
	L 628.285, 675.749 
	L 616.089, 657.648 
	L 633.132, 646.164 
" />
<path d="M 696.873, 612.089 
	L 696.872, 612.089 
	L 709.148, 630.308 
	L 692.104, 641.792 
	L 679.829, 623.573 
	L 696.872, 612.089 
" />
<path d="M 774.786, 578.014 
	L 774.785, 578.015 
	L 787.140, 596.351 
	L 770.097, 607.835 
	L 757.742, 589.499 
	L 774.785, 578.015 
" />
<path d="M 866.872, 543.940 
	L 866.872, 543.940 
	L 879.306, 562.394 
	L 862.263, 573.878 
	L 849.828, 555.424 
	L 866.872, 543.940 
" />
<path d="M 973.132, 509.865 
	L 973.131, 509.866 
	L 985.645, 528.438 
	L 968.601, 539.921 
	L 956.088, 521.350 
	L 973.131, 509.866 
" />
<path d="M 1093.565, 475.791 
	L 1093.564, 475.792 
	L 1106.157, 494.481 
	L 1089.114, 505.964 
	L 1076.521, 487.275 
	L 1093.564, 475.792 
" />
<path d="M 1228.171, 441.717 
	L 1228.170, 441.717 
	L 1240.842, 460.524 
	L 1223.799, 472.007 
	L 1211.127, 453.200 
	L 1228.170, 441.717 
" />
<path d="M 1376.950, 407.642 
	L 1376.949, 407.643 
	L 1389.700, 426.566 
	L 1372.658, 438.050 
	L 1359.907, 419.127 
	L 1376.949, 407.643 
" />
<path d="M 1539.903, 373.567 
	L 1539.902, 373.568 
	L 1552.732, 392.609 
	L 1535.689, 404.093 
	L 1522.859, 385.052 
	L 1539.902, 373.568 
" />
<path d="M 1717.029, 339.493 
	L 1717.028, 339.494 
	L 1729.937, 358.652 
	L 1712.894, 370.136 
	L 1699.985, 350.977 
	L 1717.028, 339.494 
" />
<path d="M 1908.328, 305.418 
	L 1908.327, 305.419 
	L 1921.315, 324.695 
	L 1904.272, 336.179 
	L 1891.284, 316.903 
	L 1908.327, 305.419 
" />
<path d="M 2113.800, 271.344 
	L 2113.799, 271.344 
	L 2126.867, 290.738 
	L 2109.823, 302.222 
	L 2096.756, 282.828 
	L 2113.799, 271.344 
" />
<path d="M 2333.445, 237.269 
	L 2333.444, 237.270 
	L 2346.592, 256.781 
	L 2329.548, 268.265 
	L 2316.401, 248.754 
	L 2333.444, 237.270 
" />
<path d="M 2567.264, 203.195 
	L 2567.263, 203.195 
	L 2580.490, 222.824 
	L 2563.446, 234.308 
	L 2550.220, 214.679 
	L 2567.263, 203.195 
" />
<path d="M 2815.256, 169.120 
	L 2815.255, 169.121 
	L 2828.561, 188.867 
	L 2811.517, 200.351 
	L 2798.212, 180.605 
	L 2815.255, 169.121 
" />
<path d="M 3077.421, 135.045 
	L 3077.420, 135.046 
	L 3090.805, 154.911 
	L 3073.762, 166.394 
	L 3060.377, 146.530 
	L 3077.420, 135.046 
" />
<path d="M 540.900, 811.143 
	L 540.899, 811.144 
	L 531.627, 792.013 
	L 550.439, 782.895 
	L 559.712, 802.026 
	L 540.899, 811.144 
" />
<path d="M 548.018, 776.483 
	L 548.017, 776.483 
	L 538.683, 757.225 
	L 557.495, 748.107 
	L 566.829, 767.366 
	L 548.017, 776.483 
" />
<path d="M 569.309, 741.822 
	L 569.308, 741.823 
	L 559.911, 722.436 
	L 578.723, 713.319 
	L 588.120, 732.705 
	L 569.308, 741.823 
" />
<path d="M 604.772, 707.161 
	L 604.772, 707.162 
	L 595.314, 687.648 
	L 614.126, 678.531 
	L 623.584, 698.044 
	L 604.772, 707.162 
" />
<path d="M 654.410, 672.501 
	L 654.409, 672.501 
	L 644.889, 652.860 
	L 663.701, 643.742 
	L 673.221, 663.384 
	L 654.409, 672.501 
" />
<path d="M 718.221, 637.840 
	L 718.220, 637.841 
	L 708.637, 618.072 
	L 727.450, 608.954 
	L 737.032, 628.723 
	L 718.220, 637.841 
" />
<path d="M 796.204, 603.179 
	L 796.203, 603.180 
	L 786.560, 583.284 
	L 805.372, 574.166 
	L 815.015, 594.062 
	L 796.203, 603.180 
" />
<path d="M 888.361, 568.519 
	L 888.360, 568.519 
	L 878.655, 548.496 
	L 897.467, 539.378 
	L 907.172, 559.401 
	L 888.360, 568.519 
" />
<path d="M 994.691, 533.858 
	L 994.690, 533.859 
	L 984.923, 513.708 
	L 1003.735, 504.590 
	L 1013.502, 524.740 
	L 994.690, 533.859 
" />
<path d="M 1115.194, 499.198 
	L 1115.194, 499.198 
	L 1105.365, 478.920 
	L 1124.177, 469.801 
	L 1134.006, 490.080 
	L 1115.194, 499.198 
" />
<path d="M 1249.871, 464.537 
	L 1249.871, 464.538 
	L 1239.979, 444.132 
	L 1258.791, 435.013 
	L 1268.683, 455.419 
	L 1249.871, 464.538 
" />
<path d="M 1398.721, 429.876 
	L 1398.720, 429.877 
	L 1388.768, 409.343 
	L 1407.580, 400.225 
	L 1417.532, 420.759 
	L 1398.720, 429.877 
" />
<path d="M 1561.744, 395.216 
	L 1561.743, 395.216 
	L 1551.728, 374.555 
	L 1570.541, 365.437 
	L 1580.555, 386.098 
	L 1561.743, 395.216 
" />
<path d="M 1738.940, 360.555 
	L 1738.939, 360.556 
	L 1728.863, 339.767 
	L 1747.676, 330.649 
	L 1757.752, 351.437 
	L 1738.939, 360.556 
" />
<path d="M 1930.310, 325.894 
	L 1930.309, 325.895 
	L 1920.171, 304.979 
	L 1938.983, 295.861 
	L 1949.121, 316.777 
	L 1930.309, 325.895 
" />
<path d="M 2135.853, 291.234 
	L 2135.852, 291.234 
	L 2125.652, 270.191 
	L 2144.464, 261.072 
	L 2154.664, 282.116 
	L 2135.852, 291.234 
" />
<path d="M 2355.568, 256.573 
	L 2355.568, 256.574 
	L 2345.306, 235.402 
	L 2364.118, 226.284 
	L 2374.380, 247.455 
	L 2355.568, 256.574 
" />
<path d="M 2589.458, 221.912 
	L 2589.457, 221.913 
	L 2579.133, 200.614 
	L 2597.945, 191.496 
	L 2608.269, 212.795 
	L 2589.457, 221.913 
" />
<path d="M 2837.521, 187.252 
	L 2837.520, 187.252 
	L 2827.133, 165.826 
	L 2845.946, 156.708 
	L 2856.332, 178.134 
	L 2837.520, 187.252 
" />
<path d="M 3099.756, 152.591 
	L 3099.755, 152.592 
	L 3089.308, 131.038 
	L 3108.120, 121.920 
	L 3118.567, 143.474 
	L 3099.755, 152.592 
" />
<path d="M 1138.110, 797.020 
	L 1140.236, 797.020 
	L 1140.945, 795.957 
	L 1140.236, 794.894 
	L 1138.819, 794.894 
" />
<path d="M 1140.236, 794.894 
	L 1140.945, 793.831 
	L 1140.236, 792.768 
	L 1138.110, 792.768 
" />
<path d="M 1139.528, 790.642 
	L 1139.528, 787.453 
	L 1138.819, 786.390 
	L 1138.110, 787.453 
	L 1138.110, 789.579 
	L 1138.819, 790.642 
	L 1140.236, 790.642 
	L 1140.945, 789.579 
	L 1140.945, 786.390 
" />
<path d="M 1140.945, 780.012 
	L 1140.945, 783.201 
	L 1140.236, 784.264 
	L 1138.819, 784.264 
	L 1138.110, 783.201 
	L 1138.110, 781.075 
	L 1140.945, 781.075 
" />
<path d="M 1138.110, 777.886 
	L 1139.528, 777.886 
	L 1140.945, 775.760 
	L 1139.528, 773.634 
	L 1138.110, 773.634 
" />
<path d="M 1139.528, 771.508 
	L 1139.528, 768.319 
	L 1138.819, 767.256 
	L 1138.110, 768.319 
	L 1138.110, 770.445 
	L 1138.819, 771.508 
	L 1140.236, 771.508 
	L 1140.945, 770.445 
	L 1140.945, 767.256 
" />
<path d="M 1138.110, 761.941 
	L 1138.110, 764.067 
	L 1138.819, 765.130 
	L 1139.528, 764.067 
	L 1139.528, 763.004 
	L 1140.236, 761.941 
	L 1140.945, 763.004 
	L 1140.945, 765.130 
" />
<path d="M 1140.945, 756.626 
	L 1140.945, 757.689 
	L 1140.236, 757.689 
	L 1140.236, 756.626 
	L 1140.945, 756.626 
" />
<path d="M 1142.362, 752.374 
	L 1138.110, 752.374 
	L 1138.110, 750.248 
	L 1138.819, 749.185 
	L 1140.236, 749.185 
	L 1140.945, 750.248 
	L 1140.945, 752.374 
" />
<path d="M 1142.362, 745.996 
	L 1139.528, 741.744 
	L 1138.110, 741.744 
" />
<path d="M 1138.110, 745.996 
	L 1139.528, 745.996 
	L 1140.945, 743.870 
" />
<path d="M 1137.402, 714.106 
	L 1136.693, 713.043 
	L 1136.693, 710.917 
	L 1137.402, 709.854 
	L 1138.110, 709.854 
	L 1140.236, 714.106 
	L 1140.945, 714.106 
	L 1140.945, 709.854 
" />
<path d="M 1140.236, 707.728 
	L 1140.945, 706.665 
	L 1140.945, 704.539 
	L 1140.236, 703.476 
	L 1137.402, 703.476 
	L 1136.693, 704.539 
	L 1136.693, 706.665 
	L 1137.402, 707.728 
	L 1140.236, 707.728 
" />
<path d="M 1140.945, 700.287 
	L 1140.945, 698.161 
" />
<path d="M 1140.945, 699.224 
	L 1136.693, 699.224 
	L 1137.402, 700.287 
" />
<path d="M 1140.945, 693.909 
	L 1140.945, 692.846 
	L 1139.528, 690.720 
	L 1137.402, 690.720 
	L 1136.693, 691.783 
	L 1136.693, 693.909 
	L 1137.402, 694.972 
	L 1138.110, 694.972 
	L 1138.819, 693.909 
	L 1138.819, 690.720 
" />
<path d="M 1138.819, 688.594 
	L 1138.819, 684.342 
" />
<path d="M 1140.236, 682.216 
	L 1140.945, 681.153 
	L 1140.945, 679.027 
	L 1140.236, 677.964 
	L 1137.402, 677.964 
	L 1136.693, 679.027 
	L 1136.693, 681.153 
	L 1137.402, 682.216 
	L 1140.236, 682.216 
" />
<path d="M 1136.693, 671.586 
	L 1136.693, 673.712 
	L 1138.110, 675.838 
	L 1140.236, 675.838 
	L 1140.945, 674.775 
	L 1140.945, 672.649 
	L 1140.236, 671.586 
	L 1139.528, 671.586 
	L 1138.819, 672.649 
	L 1138.819, 675.838 
" />
<path d="M 1138.819, 669.460 
	L 1138.819, 665.209 
" />
<path d="M 1140.236, 663.083 
	L 1140.945, 662.020 
	L 1140.945, 659.894 
	L 1140.236, 658.831 
	L 1137.402, 658.831 
	L 1136.693, 659.894 
	L 1136.693, 662.020 
	L 1137.402, 663.083 
	L 1140.236, 663.083 
" />
<path d="M 1140.945, 655.642 
	L 1140.945, 654.579 
	L 1139.528, 652.453 
	L 1137.402, 652.453 
	L 1136.693, 653.516 
	L 1136.693, 655.642 
	L 1137.402, 656.705 
	L 1138.110, 656.705 
	L 1138.819, 655.642 
	L 1138.819, 652.453 
" />
<path d="M 1140.236, 643.949 
	L 1140.945, 642.886 
	L 1140.945, 640.760 
	L 1140.236, 639.697 
	L 1137.402, 639.697 
	L 1136.693, 640.760 
	L 1136.693, 642.886 
	L 1137.402, 643.949 
	L 1140.236, 643.949 
" />
<path d="M 1140.236, 637.571 
	L 1140.945, 636.508 
	L 1140.945, 634.382 
	L 1140.236, 633.319 
	L 1137.402, 633.319 
	L 1136.693, 634.382 
	L 1136.693, 636.508 
	L 1137.402, 637.571 
	L 1140.236, 637.571 
" />
<path d="M 1138.819, 630.130 
	L 1138.110, 630.130 
	L 1138.110, 629.067 
	L 1138.819, 629.067 
	L 1138.819, 630.130 
" />
<path d="M 1140.236, 630.130 
	L 1140.236, 629.067 
	L 1140.945, 629.067 
	L 1140.945, 630.130 
	L 1140.236, 630.130 
" />
<path d="M 1137.402, 624.815 
	L 1136.693, 623.752 
	L 1136.693, 621.626 
	L 1137.402, 620.563 
	L 1138.110, 620.563 
	L 1140.236, 624.815 
	L 1140.945, 624.815 
	L 1140.945, 620.563 
" />
<path d="M 1140.236, 618.437 
	L 1140.945, 617.374 
	L 1140.945, 615.248 
	L 1140.236, 614.185 
	L 1137.402, 614.185 
	L 1136.693, 615.248 
	L 1136.693, 617.374 
	L 1137.402, 618.437 
	L 1140.236, 618.437 
" />
</g>
</svg>
