<?xml version="1.0" encoding="UTF-8" standalone="no" ?>
<svg width="100%" height="100%" viewBox="0 0 1135.276 212.598" xmlns="http://www.w3.org/2000/svg"><g>
</g><g style="stroke:rgb(0,0,0); fill:none; stroke-width:1.000mm" >
</g><g style="stroke:rgb(0,255,0); fill:none; stroke-width:0.100mm" >
<path d="M 0.001, 212.598 
	L 0.000, 212.598 
	L 0.000, 0.000 
	L 283.465, 0.000 
	L 283.465, 212.598 
	L 0.000, 212.598 
" />
</g><g style="stroke:rgb(255,0,0); fill:none; stroke-width:0.100mm" >
<path d="M 1133.150, 208.346 
	L 1133.858, 209.409 
	L 1133.858, 210.472 
	L 1133.150, 211.535 
	L 1131.732, 211.535 
	L 1131.024, 210.472 
	L 1131.024, 209.409 
	L 1131.732, 208.346 
" />
<path d="M 1129.606, 204.095 
	L 1130.315, 204.095 
" />
<path d="M 1131.024, 205.158 
	L 1131.024, 204.095 
	L 1133.858, 204.095 
" />
<path d="M 1133.858, 205.158 
	L 1133.858, 203.032 
" />
<path d="M 1131.024, 199.843 
	L 1133.858, 199.843 
" />
<path d="M 1132.441, 199.843 
	L 1131.024, 197.717 
	L 1131.024, 196.654 
" />
<path d="M 1133.150, 189.213 
	L 1133.858, 190.276 
	L 1133.858, 191.339 
	L 1133.150, 192.402 
	L 1131.732, 192.402 
	L 1131.024, 191.339 
	L 1131.024, 190.276 
	L 1131.732, 189.213 
" />
<path d="M 1133.858, 187.087 
	L 1129.606, 187.087 
" />
<path d="M 1133.858, 183.898 
	L 1132.441, 187.087 
	L 1131.024, 183.898 
" />
<path d="M 1129.606, 179.646 
	L 1129.606, 178.583 
	L 1133.858, 178.583 
" />
<path d="M 1133.858, 179.646 
	L 1133.858, 177.520 
" />
<path d="M 1132.441, 174.331 
	L 1132.441, 171.142 
	L 1131.732, 170.079 
	L 1131.024, 171.142 
	L 1131.024, 173.268 
	L 1131.732, 174.331 
	L 1133.150, 174.331 
	L 1133.858, 173.268 
	L 1133.858, 170.079 
" />
<path d="M 1131.024, 164.764 
	L 1131.024, 166.890 
	L 1131.732, 167.953 
	L 1132.441, 166.890 
	L 1132.441, 165.827 
	L 1133.150, 164.764 
	L 1133.858, 165.827 
	L 1133.858, 167.953 
" />
<path d="M 1133.858, 159.449 
	L 1133.858, 160.512 
	L 1133.150, 160.512 
	L 1133.150, 159.449 
	L 1133.858, 159.449 
" />
<path d="M 1135.276, 155.197 
	L 1131.024, 155.197 
	L 1131.024, 153.071 
	L 1131.732, 152.008 
	L 1133.150, 152.008 
	L 1133.858, 153.071 
	L 1133.858, 155.197 
" />
<path d="M 1135.276, 148.819 
	L 1132.441, 144.567 
	L 1131.024, 144.567 
" />
<path d="M 1131.024, 148.819 
	L 1132.441, 148.819 
	L 1133.858, 146.693 
" />
<path d="M 1130.315, 116.929 
	L 1129.606, 115.866 
	L 1129.606, 113.740 
	L 1130.315, 112.677 
	L 1131.024, 112.677 
	L 1133.150, 116.929 
	L 1133.858, 116.929 
	L 1133.858, 112.677 
" />
<path d="M 1133.150, 110.551 
	L 1133.858, 109.488 
	L 1133.858, 107.362 
	L 1133.150, 106.299 
	L 1130.315, 106.299 
	L 1129.606, 107.362 
	L 1129.606, 109.488 
	L 1130.315, 110.551 
	L 1133.150, 110.551 
" />
<path d="M 1133.858, 103.110 
	L 1133.858, 100.984 
" />
<path d="M 1133.858, 102.047 
	L 1129.606, 102.047 
	L 1130.315, 103.110 
" />
<path d="M 1133.858, 96.732 
	L 1133.858, 95.669 
	L 1132.441, 93.543 
	L 1130.315, 93.543 
	L 1129.606, 94.606 
	L 1129.606, 96.732 
	L 1130.315, 97.795 
	L 1131.024, 97.795 
	L 1131.732, 96.732 
	L 1131.732, 93.543 
" />
<path d="M 1131.732, 91.417 
	L 1131.732, 87.165 
" />
<path d="M 1133.150, 85.039 
	L 1133.858, 83.976 
	L 1133.858, 81.850 
	L 1133.150, 80.787 
	L 1130.315, 80.787 
	L 1129.606, 81.850 
	L 1129.606, 83.976 
	L 1130.315, 85.039 
	L 1133.150, 85.039 
" />
<path d="M 1131.732, 75.472 
	L 1131.024, 74.409 
	L 1130.315, 74.409 
	L 1129.606, 75.472 
	L 1129.606, 77.598 
	L 1130.315, 78.661 
	L 1131.024, 78.661 
	L 1131.732, 77.598 
	L 1131.732, 75.472 
	L 1132.441, 74.409 
	L 1133.150, 74.409 
" />
<path d="M 1133.150, 74.409 
	L 1133.858, 75.472 
	L 1133.858, 77.598 
	L 1133.150, 78.661 
	L 1132.441, 78.661 
	L 1131.732, 77.598 
" />
<path d="M 1131.732, 72.283 
	L 1131.732, 68.031 
" />
<path d="M 1133.150, 65.906 
	L 1133.858, 64.843 
	L 1133.858, 62.717 
	L 1133.150, 61.654 
	L 1130.315, 61.654 
	L 1129.606, 62.717 
	L 1129.606, 64.843 
	L 1130.315, 65.906 
	L 1133.150, 65.906 
" />
<path d="M 1133.858, 58.465 
	L 1133.858, 57.402 
	L 1132.441, 55.276 
	L 1130.315, 55.276 
	L 1129.606, 56.339 
	L 1129.606, 58.465 
	L 1130.315, 59.528 
	L 1131.024, 59.528 
	L 1131.732, 58.465 
	L 1131.732, 55.276 
" />
<path d="M 1130.315, 46.772 
	L 1129.606, 45.709 
	L 1129.606, 43.583 
	L 1130.315, 42.520 
	L 1131.024, 42.520 
	L 1133.150, 46.772 
	L 1133.858, 46.772 
	L 1133.858, 42.520 
" />
<path d="M 1133.150, 40.394 
	L 1133.858, 39.331 
	L 1133.858, 37.205 
	L 1133.150, 36.142 
	L 1130.315, 36.142 
	L 1129.606, 37.205 
	L 1129.606, 39.331 
	L 1130.315, 40.394 
	L 1133.150, 40.394 
" />
<path d="M 1131.732, 32.953 
	L 1131.024, 32.953 
	L 1131.024, 31.890 
	L 1131.732, 31.890 
	L 1131.732, 32.953 
" />
<path d="M 1133.150, 32.953 
	L 1133.150, 31.890 
	L 1133.858, 31.890 
	L 1133.858, 32.953 
	L 1133.150, 32.953 
" />
<path d="M 1130.315, 27.638 
	L 1129.606, 26.575 
	L 1129.606, 24.449 
	L 1130.315, 23.386 
	L 1131.024, 23.386 
	L 1133.150, 27.638 
	L 1133.858, 27.638 
	L 1133.858, 23.386 
" />
<path d="M 1131.732, 18.071 
	L 1131.024, 17.008 
	L 1130.315, 17.008 
	L 1129.606, 18.071 
	L 1129.606, 20.197 
	L 1130.315, 21.260 
	L 1131.024, 21.260 
	L 1131.732, 20.197 
	L 1131.732, 18.071 
	L 1132.441, 17.008 
	L 1133.150, 17.008 
" />
<path d="M 1133.150, 17.008 
	L 1133.858, 18.071 
	L 1133.858, 20.197 
	L 1133.150, 21.260 
	L 1132.441, 21.260 
	L 1131.732, 20.197 
" />
</g>
</svg>
