<?xml version="1.0" encoding="UTF-8" standalone="no" ?>
<svg width="100%" height="100%" viewBox="0 0 5274.482 1805.344" xmlns="http://www.w3.org/2000/svg"><g>
</g><g style="stroke:rgb(0,0,0); fill:none; stroke-width:1.000mm" >
</g><g style="stroke:rgb(0,255,0); fill:none; stroke-width:0.100mm" >
<path d="M 4129.428, 1805.344 
	L 4129.427, 1805.344 
	L 4129.427, 1022.982 
	L 5274.482, 1022.982 
	L 5274.482, 1805.344 
	L 4129.427, 1805.344 
" />
</g><g style="stroke:rgb(255,0,0); fill:none; stroke-width:0.100mm" >
<path d="M 4122.341, 1815.974 
	L 4122.340, 1815.974 
	L 4122.340, 1794.714 
	L 4136.514, 1794.714 
	L 4136.514, 1815.974 
	L 4122.340, 1815.974 
" />
<path d="M 4118.089, 1837.304 
	L 4118.088, 1837.305 
	L 4118.088, 1815.903 
	L 4132.262, 1815.903 
	L 4132.262, 1837.305 
	L 4118.088, 1837.305 
" />
<path d="M 4105.333, 1858.635 
	L 4105.333, 1858.636 
	L 4105.333, 1837.092 
	L 4119.506, 1837.092 
	L 4119.506, 1858.636 
	L 4105.333, 1858.636 
" />
<path d="M 4084.073, 1879.966 
	L 4084.073, 1879.966 
	L 4084.073, 1858.281 
	L 4098.246, 1858.281 
	L 4098.246, 1879.966 
	L 4084.073, 1879.966 
" />
<path d="M 4054.310, 1901.296 
	L 4054.309, 1901.297 
	L 4054.309, 1879.470 
	L 4068.482, 1879.470 
	L 4068.482, 1901.297 
	L 4054.309, 1901.297 
" />
<path d="M 4016.042, 1922.627 
	L 4016.041, 1922.628 
	L 4016.041, 1900.659 
	L 4030.214, 1900.659 
	L 4030.214, 1922.628 
	L 4016.041, 1922.628 
" />
<path d="M 3969.270, 1943.958 
	L 3969.270, 1943.958 
	L 3969.270, 1921.848 
	L 3983.443, 1921.848 
	L 3983.443, 1943.958 
	L 3969.270, 1943.958 
" />
<path d="M 3913.995, 1965.289 
	L 3913.994, 1965.289 
	L 3913.994, 1943.037 
	L 3928.167, 1943.037 
	L 3928.167, 1965.289 
	L 3913.994, 1965.289 
" />
<path d="M 3850.215, 1986.619 
	L 3850.214, 1986.620 
	L 3850.214, 1964.226 
	L 3864.388, 1964.226 
	L 3864.388, 1986.620 
	L 3850.214, 1986.620 
" />
<path d="M 3777.932, 2007.950 
	L 3777.931, 2007.951 
	L 3777.931, 1985.415 
	L 3792.104, 1985.415 
	L 3792.104, 2007.951 
	L 3777.931, 2007.951 
" />
<path d="M 3697.144, 2029.281 
	L 3697.144, 2029.281 
	L 3697.144, 2006.604 
	L 3711.317, 2006.604 
	L 3711.317, 2029.281 
	L 3697.144, 2029.281 
" />
<path d="M 3607.853, 2050.611 
	L 3607.852, 2050.612 
	L 3607.852, 2027.793 
	L 3622.025, 2027.793 
	L 3622.025, 2050.612 
	L 3607.852, 2050.612 
" />
<path d="M 3510.058, 2071.942 
	L 3510.057, 2071.943 
	L 3510.057, 2048.982 
	L 3524.230, 2048.982 
	L 3524.230, 2071.943 
	L 3510.057, 2071.943 
" />
<path d="M 3403.758, 2093.273 
	L 3403.758, 2093.273 
	L 3403.758, 2070.171 
	L 3417.931, 2070.171 
	L 3417.931, 2093.273 
	L 3403.758, 2093.273 
" />
<path d="M 3288.955, 2114.604 
	L 3288.955, 2114.604 
	L 3288.955, 2091.360 
	L 3303.128, 2091.360 
	L 3303.128, 2114.604 
	L 3288.955, 2114.604 
" />
<path d="M 3165.648, 2135.934 
	L 3165.647, 2135.935 
	L 3165.647, 2112.549 
	L 3179.821, 2112.549 
	L 3179.821, 2135.935 
	L 3165.647, 2135.935 
" />
<path d="M 3033.837, 2157.265 
	L 3033.836, 2157.266 
	L 3033.836, 2133.738 
	L 3048.010, 2133.738 
	L 3048.010, 2157.266 
	L 3033.836, 2157.266 
" />
<path d="M 2893.522, 2178.596 
	L 2893.521, 2178.596 
	L 2893.521, 2154.927 
	L 2907.695, 2154.927 
	L 2907.695, 2178.596 
	L 2893.521, 2178.596 
" />
<path d="M 2744.703, 2199.926 
	L 2744.703, 2199.927 
	L 2744.703, 2176.116 
	L 2758.876, 2176.116 
	L 2758.876, 2199.927 
	L 2744.703, 2199.927 
" />
<path d="M 2587.380, 2221.257 
	L 2587.380, 2221.258 
	L 2587.380, 2197.305 
	L 2601.553, 2197.305 
	L 2601.553, 2221.258 
	L 2587.380, 2221.258 
" />
<path d="M 2421.554, 2242.588 
	L 2421.553, 2242.588 
	L 2421.553, 2218.494 
	L 2435.726, 2218.494 
	L 2435.726, 2242.588 
	L 2421.553, 2242.588 
" />
<path d="M 2247.223, 2263.918 
	L 2247.222, 2263.919 
	L 2247.222, 2239.683 
	L 2261.395, 2239.683 
	L 2261.395, 2263.919 
	L 2247.222, 2263.919 
" />
<path d="M 2064.388, 2285.249 
	L 2064.388, 2285.250 
	L 2064.388, 2260.872 
	L 2078.561, 2260.872 
	L 2078.561, 2285.250 
	L 2064.388, 2285.250 
" />
<path d="M 1873.050, 2306.580 
	L 1873.049, 2306.581 
	L 1873.049, 2282.061 
	L 1887.222, 2282.061 
	L 1887.222, 2306.581 
	L 1873.049, 2306.581 
" />
<path d="M 1673.207, 2327.911 
	L 1673.206, 2327.911 
	L 1673.206, 2303.250 
	L 1687.380, 2303.250 
	L 1687.380, 2327.911 
	L 1673.206, 2327.911 
" />
<path d="M 1464.861, 2349.241 
	L 1464.860, 2349.242 
	L 1464.860, 2324.439 
	L 1479.033, 2324.439 
	L 1479.033, 2349.242 
	L 1464.860, 2349.242 
" />
<path d="M 1248.010, 2370.572 
	L 1248.010, 2370.573 
	L 1248.010, 2345.628 
	L 1262.183, 2345.628 
	L 1262.183, 2370.573 
	L 1248.010, 2370.573 
" />
<path d="M 1022.656, 2391.903 
	L 1022.655, 2391.903 
	L 1022.655, 2366.817 
	L 1036.828, 2366.817 
	L 1036.828, 2391.903 
	L 1022.655, 2391.903 
" />
<path d="M 788.798, 2413.233 
	L 788.797, 2413.234 
	L 788.797, 2388.006 
	L 802.970, 2388.006 
	L 802.970, 2413.234 
	L 788.797, 2413.234 
" />
<path d="M 546.436, 2434.564 
	L 546.435, 2434.565 
	L 546.435, 2409.195 
	L 560.608, 2409.195 
	L 560.608, 2434.565 
	L 546.435, 2434.565 
" />
<path d="M 4109.772, 1795.845 
	L 4109.772, 1795.846 
	L 4106.772, 1816.893 
	L 4092.390, 1814.843 
	L 4095.389, 1793.796 
	L 4109.772, 1795.846 
" />
<path d="M 4105.530, 1817.744 
	L 4105.530, 1817.744 
	L 4102.510, 1838.931 
	L 4088.128, 1836.881 
	L 4091.147, 1815.694 
	L 4105.530, 1817.744 
" />
<path d="M 4092.784, 1839.642 
	L 4092.784, 1839.643 
	L 4089.743, 1860.970 
	L 4075.362, 1858.920 
	L 4078.402, 1837.593 
	L 4092.784, 1839.643 
" />
<path d="M 4071.535, 1861.540 
	L 4071.534, 1861.541 
	L 4068.474, 1883.009 
	L 4054.091, 1880.958 
	L 4057.152, 1859.491 
	L 4071.534, 1861.541 
" />
<path d="M 4041.781, 1883.439 
	L 4041.780, 1883.439 
	L 4038.700, 1905.047 
	L 4024.318, 1902.997 
	L 4027.398, 1881.389 
	L 4041.780, 1883.439 
" />
<path d="M 4003.523, 1905.337 
	L 4003.523, 1905.338 
	L 4000.422, 1927.086 
	L 3986.040, 1925.036 
	L 3989.140, 1903.288 
	L 4003.523, 1905.338 
" />
<path d="M 3956.762, 1927.235 
	L 3956.761, 1927.236 
	L 3953.641, 1949.125 
	L 3939.258, 1947.074 
	L 3942.379, 1925.186 
	L 3956.761, 1927.236 
" />
<path d="M 3901.496, 1949.134 
	L 3901.495, 1949.135 
	L 3898.355, 1971.163 
	L 3883.973, 1969.113 
	L 3887.113, 1947.084 
	L 3901.495, 1949.135 
" />
<path d="M 3837.726, 1971.032 
	L 3837.726, 1971.033 
	L 3834.566, 1993.202 
	L 3820.183, 1991.152 
	L 3823.343, 1968.983 
	L 3837.726, 1971.033 
" />
<path d="M 3765.453, 1992.931 
	L 3765.452, 1992.931 
	L 3762.272, 2015.241 
	L 3747.890, 2013.190 
	L 3751.070, 1990.881 
	L 3765.452, 1992.931 
" />
<path d="M 3684.675, 2014.829 
	L 3684.675, 2014.830 
	L 3681.475, 2037.279 
	L 3667.093, 2035.229 
	L 3670.292, 2012.779 
	L 3684.675, 2014.830 
" />
<path d="M 3595.394, 2036.727 
	L 3595.393, 2036.728 
	L 3592.173, 2059.318 
	L 3577.791, 2057.268 
	L 3581.012, 2034.678 
	L 3595.393, 2036.728 
" />
<path d="M 3497.609, 2058.626 
	L 3497.609, 2058.626 
	L 3494.368, 2081.357 
	L 3479.986, 2079.306 
	L 3483.226, 2056.576 
	L 3497.609, 2058.626 
" />
<path d="M 3391.320, 2080.524 
	L 3391.319, 2080.525 
	L 3388.059, 2103.395 
	L 3373.676, 2101.345 
	L 3376.937, 2078.474 
	L 3391.319, 2080.525 
" />
<path d="M 3276.527, 2102.422 
	L 3276.526, 2102.423 
	L 3273.246, 2125.434 
	L 3258.863, 2123.384 
	L 3262.144, 2100.373 
	L 3276.526, 2102.423 
" />
<path d="M 3153.230, 2124.321 
	L 3153.229, 2124.321 
	L 3149.929, 2147.473 
	L 3135.546, 2145.422 
	L 3138.847, 2122.271 
	L 3153.229, 2124.321 
" />
<path d="M 3021.428, 2146.219 
	L 3021.428, 2146.220 
	L 3018.108, 2169.511 
	L 3003.725, 2167.461 
	L 3007.045, 2144.170 
	L 3021.428, 2146.220 
" />
<path d="M 2881.123, 2168.117 
	L 2881.123, 2168.118 
	L 2877.783, 2191.550 
	L 2863.401, 2189.500 
	L 2866.740, 2166.068 
	L 2881.123, 2168.118 
" />
<path d="M 2732.314, 2190.016 
	L 2732.314, 2190.016 
	L 2728.954, 2213.589 
	L 2714.572, 2211.538 
	L 2717.931, 2187.966 
	L 2732.314, 2190.016 
" />
<path d="M 2575.002, 2211.914 
	L 2575.001, 2211.915 
	L 2571.620, 2235.627 
	L 2557.239, 2233.577 
	L 2560.619, 2209.865 
	L 2575.001, 2211.915 
" />
<path d="M 2409.185, 2233.812 
	L 2409.184, 2233.813 
	L 2405.784, 2257.666 
	L 2391.402, 2255.616 
	L 2394.802, 2231.763 
	L 2409.184, 2233.813 
" />
<path d="M 2234.865, 2255.711 
	L 2234.864, 2255.711 
	L 2231.443, 2279.705 
	L 2217.061, 2277.654 
	L 2220.482, 2253.661 
	L 2234.864, 2255.711 
" />
<path d="M 2052.040, 2277.609 
	L 2052.039, 2277.610 
	L 2048.599, 2301.743 
	L 2034.216, 2299.693 
	L 2037.657, 2275.560 
	L 2052.039, 2277.610 
" />
<path d="M 1860.711, 2299.508 
	L 1860.711, 2299.508 
	L 1857.250, 2323.782 
	L 1842.868, 2321.732 
	L 1846.328, 2297.458 
	L 1860.711, 2299.508 
" />
<path d="M 1660.879, 2321.406 
	L 1660.878, 2321.407 
	L 1657.398, 2345.821 
	L 1643.015, 2343.770 
	L 1646.495, 2319.356 
	L 1660.878, 2321.407 
" />
<path d="M 1452.542, 2343.304 
	L 1452.541, 2343.305 
	L 1449.041, 2367.859 
	L 1434.659, 2365.809 
	L 1438.159, 2341.255 
	L 1452.541, 2343.305 
" />
<path d="M 1235.702, 2365.203 
	L 1235.701, 2365.203 
	L 1232.181, 2389.898 
	L 1217.799, 2387.848 
	L 1221.318, 2363.153 
	L 1235.701, 2365.203 
" />
<path d="M 1010.357, 2387.101 
	L 1010.356, 2387.102 
	L 1006.817, 2411.937 
	L 992.434, 2409.886 
	L 995.974, 2385.051 
	L 1010.356, 2387.102 
" />
<path d="M 776.509, 2408.999 
	L 776.508, 2409.000 
	L 772.948, 2433.975 
	L 758.566, 2431.925 
	L 762.126, 2406.950 
	L 776.508, 2409.000 
" />
<path d="M 534.157, 2430.898 
	L 534.156, 2430.898 
	L 530.576, 2456.014 
	L 516.194, 2453.964 
	L 519.774, 2428.848 
	L 534.156, 2430.898 
" />
<path d="M 4062.620, 1813.471 
	L 4062.619, 1813.472 
	L 4068.559, 1793.059 
	L 4082.849, 1797.217 
	L 4076.909, 1817.630 
	L 4062.619, 1813.472 
" />
<path d="M 4058.348, 1836.216 
	L 4058.348, 1836.217 
	L 4064.327, 1815.668 
	L 4078.617, 1819.826 
	L 4072.637, 1840.375 
	L 4058.348, 1836.217 
" />
<path d="M 4045.573, 1858.962 
	L 4045.572, 1858.962 
	L 4051.591, 1838.277 
	L 4065.881, 1842.435 
	L 4059.861, 1863.120 
	L 4045.572, 1858.962 
" />
<path d="M 4024.293, 1881.707 
	L 4024.292, 1881.708 
	L 4030.351, 1860.886 
	L 4044.641, 1865.044 
	L 4038.582, 1885.865 
	L 4024.292, 1881.708 
" />
<path d="M 3994.509, 1904.452 
	L 3994.509, 1904.453 
	L 4000.607, 1883.495 
	L 4014.897, 1887.653 
	L 4008.798, 1908.610 
	L 3994.509, 1904.453 
" />
<path d="M 3956.222, 1927.197 
	L 3956.221, 1927.198 
	L 3962.359, 1906.104 
	L 3976.649, 1910.262 
	L 3970.510, 1931.356 
	L 3956.221, 1927.198 
" />
<path d="M 3909.430, 1949.942 
	L 3909.429, 1949.943 
	L 3915.608, 1928.713 
	L 3929.897, 1932.871 
	L 3923.719, 1954.102 
	L 3909.429, 1949.943 
" />
<path d="M 3854.135, 1972.688 
	L 3854.134, 1972.688 
	L 3860.352, 1951.322 
	L 3874.641, 1955.481 
	L 3868.423, 1976.847 
	L 3854.134, 1972.688 
" />
<path d="M 3790.335, 1995.433 
	L 3790.335, 1995.434 
	L 3796.592, 1973.931 
	L 3810.882, 1978.090 
	L 3804.624, 1999.592 
	L 3790.335, 1995.434 
" />
<path d="M 3718.033, 2018.178 
	L 3718.032, 2018.179 
	L 3724.328, 1996.540 
	L 3738.617, 2000.699 
	L 3732.321, 2022.337 
	L 3718.032, 2018.179 
" />
<path d="M 3637.225, 2040.923 
	L 3637.225, 2040.924 
	L 3643.561, 2019.150 
	L 3657.850, 2023.308 
	L 3651.514, 2045.082 
	L 3637.225, 2040.924 
" />
<path d="M 3547.914, 2063.668 
	L 3547.914, 2063.669 
	L 3554.289, 2041.759 
	L 3568.578, 2045.917 
	L 3562.202, 2067.828 
	L 3547.914, 2063.669 
" />
<path d="M 3450.099, 2086.414 
	L 3450.098, 2086.414 
	L 3456.514, 2064.368 
	L 3470.803, 2068.526 
	L 3464.387, 2090.573 
	L 3450.098, 2086.414 
" />
<path d="M 3343.780, 2109.159 
	L 3343.779, 2109.160 
	L 3350.235, 2086.977 
	L 3364.523, 2091.135 
	L 3358.068, 2113.318 
	L 3343.779, 2109.160 
" />
<path d="M 3228.957, 2131.904 
	L 3228.956, 2131.905 
	L 3235.451, 2109.586 
	L 3249.740, 2113.745 
	L 3243.245, 2136.063 
	L 3228.956, 2131.905 
" />
<path d="M 3105.630, 2154.649 
	L 3105.630, 2154.650 
	L 3112.164, 2132.195 
	L 3126.453, 2136.354 
	L 3119.918, 2158.808 
	L 3105.630, 2154.650 
" />
<path d="M 2973.799, 2177.394 
	L 2973.799, 2177.395 
	L 2980.373, 2154.804 
	L 2994.662, 2158.963 
	L 2988.087, 2181.554 
	L 2973.799, 2177.395 
" />
<path d="M 2833.464, 2200.140 
	L 2833.464, 2200.140 
	L 2840.077, 2177.414 
	L 2854.367, 2181.572 
	L 2847.753, 2204.299 
	L 2833.464, 2200.140 
" />
<path d="M 2684.626, 2222.885 
	L 2684.625, 2222.886 
	L 2691.278, 2200.023 
	L 2705.567, 2204.181 
	L 2698.915, 2227.044 
	L 2684.625, 2222.886 
" />
<path d="M 2527.283, 2245.630 
	L 2527.282, 2245.631 
	L 2533.975, 2222.632 
	L 2548.264, 2226.790 
	L 2541.572, 2249.789 
	L 2527.282, 2245.631 
" />
<path d="M 2361.436, 2268.375 
	L 2361.436, 2268.376 
	L 2368.168, 2245.241 
	L 2382.458, 2249.399 
	L 2375.725, 2272.534 
	L 2361.436, 2268.376 
" />
<path d="M 2187.086, 2291.120 
	L 2187.085, 2291.121 
	L 2193.857, 2267.850 
	L 2208.147, 2272.009 
	L 2201.375, 2295.280 
	L 2187.085, 2291.121 
" />
<path d="M 2004.231, 2313.866 
	L 2004.231, 2313.866 
	L 2011.042, 2290.459 
	L 2025.332, 2294.618 
	L 2018.520, 2318.025 
	L 2004.231, 2313.866 
" />
<path d="M 1812.873, 2336.611 
	L 1812.872, 2336.612 
	L 1819.724, 2313.068 
	L 1834.013, 2317.227 
	L 1827.162, 2340.770 
	L 1812.872, 2336.612 
" />
<path d="M 1613.011, 2359.356 
	L 1613.010, 2359.357 
	L 1619.901, 2335.678 
	L 1634.190, 2339.836 
	L 1627.299, 2363.515 
	L 1613.010, 2359.357 
" />
<path d="M 1404.645, 2382.101 
	L 1404.644, 2382.102 
	L 1411.574, 2358.287 
	L 1425.864, 2362.445 
	L 1418.933, 2386.260 
	L 1404.644, 2382.102 
" />
<path d="M 1187.774, 2404.846 
	L 1187.773, 2404.847 
	L 1194.744, 2380.896 
	L 1209.033, 2385.054 
	L 1202.063, 2409.006 
	L 1187.773, 2404.847 
" />
<path d="M 962.401, 2427.592 
	L 962.400, 2427.592 
	L 969.409, 2403.505 
	L 983.698, 2407.663 
	L 976.689, 2431.751 
	L 962.400, 2427.592 
" />
<path d="M 728.523, 2450.337 
	L 728.522, 2450.338 
	L 735.571, 2426.114 
	L 749.860, 2430.272 
	L 742.810, 2454.496 
	L 728.522, 2450.338 
" />
<path d="M 486.141, 2473.082 
	L 486.140, 2473.083 
	L 493.228, 2448.723 
	L 507.517, 2452.882 
	L 500.428, 2477.241 
	L 486.140, 2473.083 
" />
<path d="M 4055.710, 1798.798 
	L 4055.709, 1798.798 
	L 4046.948, 1818.169 
	L 4033.066, 1811.890 
	L 4041.827, 1792.520 
	L 4055.709, 1798.798 
" />
<path d="M 4051.488, 1822.119 
	L 4051.487, 1822.120 
	L 4042.667, 1841.619 
	L 4028.784, 1835.341 
	L 4037.604, 1815.841 
	L 4051.487, 1822.120 
" />
<path d="M 4038.761, 1845.440 
	L 4038.760, 1845.441 
	L 4029.881, 1865.070 
	L 4015.999, 1858.791 
	L 4024.878, 1839.162 
	L 4038.760, 1845.441 
" />
<path d="M 4017.530, 1868.762 
	L 4017.529, 1868.762 
	L 4008.592, 1888.521 
	L 3994.710, 1882.241 
	L 4003.647, 1862.483 
	L 4017.529, 1868.762 
" />
<path d="M 3987.795, 1892.083 
	L 3987.795, 1892.084 
	L 3978.800, 1911.971 
	L 3964.918, 1905.691 
	L 3973.913, 1885.804 
	L 3987.795, 1892.084 
" />
<path d="M 3949.557, 1915.404 
	L 3949.556, 1915.405 
	L 3940.503, 1935.421 
	L 3926.621, 1929.142 
	L 3935.674, 1909.126 
	L 3949.556, 1915.405 
" />
<path d="M 3902.815, 1938.726 
	L 3902.814, 1938.726 
	L 3893.702, 1958.872 
	L 3879.819, 1952.592 
	L 3888.931, 1932.447 
	L 3902.814, 1938.726 
" />
<path d="M 3847.568, 1962.047 
	L 3847.568, 1962.048 
	L 3838.397, 1982.322 
	L 3824.515, 1976.042 
	L 3833.686, 1955.768 
	L 3847.568, 1962.048 
" />
<path d="M 3783.818, 1985.368 
	L 3783.817, 1985.368 
	L 3774.588, 2005.772 
	L 3760.706, 1999.493 
	L 3769.935, 1979.090 
	L 3783.817, 1985.368 
" />
<path d="M 3711.563, 2008.689 
	L 3711.563, 2008.690 
	L 3702.276, 2029.223 
	L 3688.394, 2022.944 
	L 3697.681, 2002.411 
	L 3711.563, 2008.690 
" />
<path d="M 3630.806, 2032.010 
	L 3630.805, 2032.011 
	L 3621.459, 2052.673 
	L 3607.577, 2046.394 
	L 3616.922, 2025.732 
	L 3630.805, 2032.011 
" />
<path d="M 3541.543, 2055.332 
	L 3541.543, 2055.332 
	L 3532.139, 2076.123 
	L 3518.256, 2069.844 
	L 3527.660, 2049.054 
	L 3541.543, 2055.332 
" />
<path d="M 3443.777, 2078.653 
	L 3443.777, 2078.654 
	L 3434.314, 2099.574 
	L 3420.432, 2093.295 
	L 3429.895, 2072.374 
	L 3443.777, 2078.654 
" />
<path d="M 3337.507, 2101.974 
	L 3337.506, 2101.975 
	L 3327.985, 2123.025 
	L 3314.104, 2116.745 
	L 3323.624, 2095.696 
	L 3337.506, 2101.975 
" />
<path d="M 3222.733, 2125.296 
	L 3222.732, 2125.296 
	L 3213.153, 2146.475 
	L 3199.271, 2140.195 
	L 3208.850, 2119.017 
	L 3222.732, 2125.296 
" />
<path d="M 3099.456, 2148.617 
	L 3099.455, 2148.618 
	L 3089.817, 2169.925 
	L 3075.934, 2163.646 
	L 3085.572, 2142.338 
	L 3099.455, 2148.618 
" />
<path d="M 2967.674, 2171.939 
	L 2967.673, 2171.939 
	L 2957.976, 2193.376 
	L 2944.094, 2187.096 
	L 2953.791, 2165.660 
	L 2967.673, 2171.939 
" />
<path d="M 2827.388, 2195.259 
	L 2827.387, 2195.260 
	L 2817.632, 2216.826 
	L 2803.750, 2210.547 
	L 2813.505, 2188.981 
	L 2827.387, 2195.260 
" />
<path d="M 2678.598, 2218.580 
	L 2678.597, 2218.581 
	L 2668.784, 2240.276 
	L 2654.902, 2233.997 
	L 2664.715, 2212.302 
	L 2678.597, 2218.581 
" />
<path d="M 2521.304, 2241.902 
	L 2521.303, 2241.903 
	L 2511.433, 2263.726 
	L 2497.551, 2257.448 
	L 2507.421, 2235.624 
	L 2521.303, 2241.903 
" />
<path d="M 2355.507, 2265.223 
	L 2355.506, 2265.224 
	L 2345.577, 2287.177 
	L 2331.694, 2280.898 
	L 2341.624, 2258.945 
	L 2355.506, 2265.224 
" />
<path d="M 2181.205, 2288.544 
	L 2181.205, 2288.545 
	L 2171.216, 2310.628 
	L 2157.334, 2304.348 
	L 2167.323, 2282.266 
	L 2181.205, 2288.545 
" />
<path d="M 1998.400, 2311.866 
	L 1998.399, 2311.866 
	L 1988.352, 2334.078 
	L 1974.470, 2327.799 
	L 1984.517, 2305.587 
	L 1998.399, 2311.866 
" />
<path d="M 1807.090, 2335.187 
	L 1807.089, 2335.188 
	L 1796.985, 2357.528 
	L 1783.103, 2351.249 
	L 1793.208, 2328.908 
	L 1807.089, 2335.188 
" />
<path d="M 1607.278, 2358.508 
	L 1607.277, 2358.509 
	L 1597.113, 2380.979 
	L 1583.231, 2374.699 
	L 1593.394, 2352.230 
	L 1607.277, 2358.509 
" />
<path d="M 1398.960, 2381.829 
	L 1398.959, 2381.830 
	L 1388.738, 2404.429 
	L 1374.855, 2398.150 
	L 1385.077, 2375.551 
	L 1398.959, 2381.830 
" />
<path d="M 1182.139, 2405.150 
	L 1182.138, 2405.151 
	L 1171.858, 2427.879 
	L 1157.976, 2421.601 
	L 1168.256, 2398.872 
	L 1182.138, 2405.151 
" />
<path d="M 956.814, 2428.472 
	L 956.813, 2428.473 
	L 946.474, 2451.330 
	L 932.592, 2445.051 
	L 942.931, 2422.194 
	L 956.813, 2428.473 
" />
<path d="M 722.984, 2451.793 
	L 722.984, 2451.794 
	L 712.587, 2474.780 
	L 698.705, 2468.501 
	L 709.102, 2445.515 
	L 722.984, 2451.794 
" />
<path d="M 480.652, 2475.114 
	L 480.651, 2475.115 
	L 470.195, 2498.231 
	L 456.313, 2491.952 
	L 466.768, 2468.836 
	L 480.651, 2475.115 
" />
<path d="M 4003.760, 1810.131 
	L 4003.759, 1810.132 
	L 4015.167, 1792.192 
	L 4028.323, 1800.557 
	L 4016.916, 1818.497 
	L 4003.759, 1810.132 
" />
<path d="M 3999.470, 1834.285 
	L 3999.469, 1834.286 
	L 4010.953, 1816.226 
	L 4024.109, 1824.592 
	L 4012.625, 1842.651 
	L 3999.469, 1834.286 
" />
<path d="M 3986.676, 1858.439 
	L 3986.676, 1858.440 
	L 3998.235, 1840.261 
	L 4011.391, 1848.626 
	L 3999.831, 1866.806 
	L 3986.676, 1858.440 
" />
<path d="M 3965.378, 1882.594 
	L 3965.378, 1882.595 
	L 3977.013, 1864.296 
	L 3990.169, 1872.661 
	L 3978.534, 1890.960 
	L 3965.378, 1882.595 
" />
<path d="M 3935.576, 1906.748 
	L 3935.576, 1906.749 
	L 3947.288, 1888.330 
	L 3960.444, 1896.696 
	L 3948.732, 1915.115 
	L 3935.576, 1906.749 
" />
<path d="M 3897.271, 1930.902 
	L 3897.270, 1930.903 
	L 3909.057, 1912.365 
	L 3922.214, 1920.731 
	L 3910.427, 1939.269 
	L 3897.270, 1930.903 
" />
<path d="M 3850.461, 1955.057 
	L 3850.460, 1955.058 
	L 3862.324, 1936.400 
	L 3875.480, 1944.765 
	L 3863.617, 1963.423 
	L 3850.460, 1955.058 
" />
<path d="M 3795.147, 1979.211 
	L 3795.146, 1979.212 
	L 3807.087, 1960.434 
	L 3820.243, 1968.800 
	L 3808.303, 1987.577 
	L 3795.146, 1979.212 
" />
<path d="M 3731.330, 2003.366 
	L 3731.329, 2003.366 
	L 3743.345, 1984.469 
	L 3756.501, 1992.834 
	L 3744.486, 2011.731 
	L 3731.329, 2003.366 
" />
<path d="M 3659.008, 2027.520 
	L 3659.008, 2027.520 
	L 3671.100, 2008.503 
	L 3684.256, 2016.869 
	L 3672.164, 2035.886 
	L 3659.008, 2027.520 
" />
<path d="M 3578.183, 2051.674 
	L 3578.182, 2051.674 
	L 3590.350, 2032.538 
	L 3603.507, 2040.904 
	L 3591.338, 2060.040 
	L 3578.182, 2051.674 
" />
<path d="M 3488.854, 2075.828 
	L 3488.853, 2075.829 
	L 3501.097, 2056.573 
	L 3514.253, 2064.938 
	L 3502.009, 2084.194 
	L 3488.853, 2075.829 
" />
<path d="M 3391.020, 2099.982 
	L 3391.020, 2099.983 
	L 3403.340, 2080.608 
	L 3416.496, 2088.973 
	L 3404.176, 2108.349 
	L 3391.020, 2099.983 
" />
<path d="M 3284.683, 2124.137 
	L 3284.682, 2124.138 
	L 3297.079, 2104.643 
	L 3310.235, 2113.008 
	L 3297.838, 2132.503 
	L 3284.682, 2124.138 
" />
<path d="M 3169.842, 2148.291 
	L 3169.841, 2148.292 
	L 3182.313, 2128.677 
	L 3195.469, 2137.043 
	L 3182.998, 2156.658 
	L 3169.841, 2148.292 
" />
<path d="M 3046.497, 2172.445 
	L 3046.496, 2172.446 
	L 3059.044, 2152.712 
	L 3072.201, 2161.078 
	L 3059.652, 2180.812 
	L 3046.496, 2172.446 
" />
<path d="M 2914.647, 2196.600 
	L 2914.647, 2196.601 
	L 2927.271, 2176.747 
	L 2940.428, 2185.112 
	L 2927.803, 2204.966 
	L 2914.647, 2196.601 
" />
<path d="M 2774.295, 2220.754 
	L 2774.294, 2220.755 
	L 2786.994, 2200.781 
	L 2800.150, 2209.147 
	L 2787.450, 2229.120 
	L 2774.294, 2220.755 
" />
<path d="M 2625.438, 2244.908 
	L 2625.437, 2244.909 
	L 2638.213, 2224.816 
	L 2651.370, 2233.182 
	L 2638.593, 2253.274 
	L 2625.437, 2244.909 
" />
<path d="M 2468.077, 2269.063 
	L 2468.077, 2269.063 
	L 2480.929, 2248.851 
	L 2494.084, 2257.216 
	L 2481.232, 2277.428 
	L 2468.077, 2269.063 
" />
<path d="M 2302.212, 2293.217 
	L 2302.212, 2293.217 
	L 2315.140, 2272.885 
	L 2328.296, 2281.251 
	L 2315.368, 2301.583 
	L 2302.212, 2293.217 
" />
<path d="M 2127.843, 2317.371 
	L 2127.843, 2317.372 
	L 2140.847, 2296.920 
	L 2154.003, 2305.285 
	L 2140.999, 2325.737 
	L 2127.843, 2317.372 
" />
<path d="M 1944.971, 2341.525 
	L 1944.970, 2341.526 
	L 1958.051, 2320.954 
	L 1971.206, 2329.320 
	L 1958.126, 2349.892 
	L 1944.970, 2341.526 
" />
<path d="M 1753.594, 2365.679 
	L 1753.594, 2365.680 
	L 1766.750, 2344.989 
	L 1779.906, 2353.355 
	L 1766.750, 2374.046 
	L 1753.594, 2365.680 
" />
<path d="M 1553.713, 2389.834 
	L 1553.713, 2389.835 
	L 1566.945, 2369.024 
	L 1580.102, 2377.389 
	L 1566.869, 2398.200 
	L 1553.713, 2389.835 
" />
<path d="M 1345.330, 2413.988 
	L 1345.329, 2413.989 
	L 1358.637, 2393.059 
	L 1371.793, 2401.424 
	L 1358.484, 2422.355 
	L 1345.329, 2413.989 
" />
<path d="M 1128.441, 2438.143 
	L 1128.440, 2438.144 
	L 1141.824, 2417.094 
	L 1154.981, 2425.459 
	L 1141.596, 2446.509 
	L 1128.440, 2438.144 
" />
<path d="M 903.048, 2462.297 
	L 903.047, 2462.298 
	L 916.508, 2441.128 
	L 929.665, 2449.494 
	L 916.204, 2470.663 
	L 903.047, 2462.298 
" />
<path d="M 669.152, 2486.451 
	L 669.152, 2486.452 
	L 682.688, 2465.163 
	L 695.844, 2473.529 
	L 682.307, 2494.817 
	L 669.152, 2486.452 
" />
<path d="M 426.752, 2510.606 
	L 426.751, 2510.606 
	L 440.364, 2489.198 
	L 453.520, 2497.563 
	L 439.907, 2518.971 
	L 426.751, 2510.606 
" />
<path d="M 4000.665, 1802.452 
	L 4000.664, 1802.453 
	L 3986.839, 1818.604 
	L 3974.726, 1808.236 
	L 3988.551, 1792.085 
	L 4000.664, 1802.453 
" />
<path d="M 3996.459, 1827.202 
	L 3996.458, 1827.202 
	L 3982.541, 1843.461 
	L 3970.427, 1833.093 
	L 3984.345, 1816.834 
	L 3996.458, 1827.202 
" />
<path d="M 3983.749, 1851.951 
	L 3983.748, 1851.952 
	L 3969.739, 1868.318 
	L 3957.626, 1857.950 
	L 3971.635, 1841.583 
	L 3983.748, 1851.952 
" />
<path d="M 3962.535, 1876.701 
	L 3962.534, 1876.702 
	L 3948.433, 1893.175 
	L 3936.320, 1882.806 
	L 3950.421, 1866.332 
	L 3962.534, 1876.702 
" />
<path d="M 3932.817, 1901.450 
	L 3932.817, 1901.451 
	L 3918.623, 1918.032 
	L 3906.510, 1907.663 
	L 3920.704, 1891.082 
	L 3932.817, 1901.451 
" />
<path d="M 3894.596, 1926.199 
	L 3894.595, 1926.200 
	L 3880.309, 1942.889 
	L 3868.196, 1932.520 
	L 3882.482, 1915.831 
	L 3894.595, 1926.200 
" />
<path d="M 3847.870, 1950.949 
	L 3847.869, 1950.949 
	L 3833.491, 1967.746 
	L 3821.378, 1957.377 
	L 3835.756, 1940.580 
	L 3847.869, 1950.949 
" />
<path d="M 3792.641, 1975.698 
	L 3792.640, 1975.699 
	L 3778.170, 1992.603 
	L 3766.057, 1982.234 
	L 3780.527, 1965.330 
	L 3792.640, 1975.699 
" />
<path d="M 3728.907, 2000.447 
	L 3728.906, 2000.448 
	L 3714.344, 2017.460 
	L 3702.231, 2007.091 
	L 3716.793, 1990.079 
	L 3728.906, 2000.448 
" />
<path d="M 3656.670, 2025.197 
	L 3656.669, 2025.197 
	L 3642.015, 2042.317 
	L 3629.902, 2031.948 
	L 3644.556, 2014.828 
	L 3656.669, 2025.197 
" />
<path d="M 3575.928, 2049.946 
	L 3575.928, 2049.947 
	L 3561.181, 2067.174 
	L 3549.068, 2056.805 
	L 3563.815, 2039.577 
	L 3575.928, 2049.947 
" />
<path d="M 3486.683, 2074.695 
	L 3486.682, 2074.696 
	L 3471.844, 2092.031 
	L 3459.731, 2081.662 
	L 3474.569, 2064.327 
	L 3486.682, 2074.696 
" />
<path d="M 3388.934, 2099.445 
	L 3388.933, 2099.445 
	L 3374.002, 2116.888 
	L 3361.889, 2106.519 
	L 3376.820, 2089.076 
	L 3388.933, 2099.445 
" />
<path d="M 3282.681, 2124.194 
	L 3282.680, 2124.195 
	L 3267.657, 2141.745 
	L 3255.544, 2131.376 
	L 3270.567, 2113.825 
	L 3282.680, 2124.195 
" />
<path d="M 3167.924, 2148.943 
	L 3167.923, 2148.944 
	L 3152.808, 2166.602 
	L 3140.695, 2156.233 
	L 3155.810, 2138.575 
	L 3167.923, 2148.944 
" />
<path d="M 3044.663, 2173.692 
	L 3044.662, 2173.693 
	L 3029.455, 2191.459 
	L 3017.342, 2181.090 
	L 3032.549, 2163.324 
	L 3044.662, 2173.693 
" />
<path d="M 2912.898, 2198.442 
	L 2912.897, 2198.442 
	L 2897.598, 2216.316 
	L 2885.485, 2205.947 
	L 2900.784, 2188.073 
	L 2912.897, 2198.442 
" />
<path d="M 2772.629, 2223.191 
	L 2772.628, 2223.192 
	L 2757.237, 2241.173 
	L 2745.123, 2230.804 
	L 2760.515, 2212.823 
	L 2772.628, 2223.192 
" />
<path d="M 2623.856, 2247.940 
	L 2623.855, 2247.941 
	L 2608.372, 2266.030 
	L 2596.258, 2255.661 
	L 2611.742, 2237.573 
	L 2623.855, 2247.941 
" />
<path d="M 2466.579, 2272.690 
	L 2466.578, 2272.690 
	L 2451.003, 2290.887 
	L 2438.890, 2280.518 
	L 2454.465, 2262.322 
	L 2466.578, 2272.690 
" />
<path d="M 2300.798, 2297.439 
	L 2300.798, 2297.440 
	L 2285.130, 2315.744 
	L 2273.017, 2305.375 
	L 2288.685, 2287.071 
	L 2300.798, 2297.440 
" />
<path d="M 2126.514, 2322.188 
	L 2126.513, 2322.189 
	L 2110.753, 2340.601 
	L 2098.640, 2330.232 
	L 2114.400, 2311.820 
	L 2126.513, 2322.189 
" />
<path d="M 1943.725, 2346.937 
	L 1943.725, 2346.938 
	L 1927.872, 2365.458 
	L 1915.759, 2355.089 
	L 1931.611, 2336.570 
	L 1943.725, 2346.938 
" />
<path d="M 1752.433, 2371.687 
	L 1752.432, 2371.687 
	L 1736.488, 2390.315 
	L 1724.375, 2379.946 
	L 1740.319, 2361.319 
	L 1752.432, 2371.687 
" />
<path d="M 1552.636, 2396.436 
	L 1552.635, 2396.437 
	L 1536.598, 2415.172 
	L 1524.486, 2404.803 
	L 1540.523, 2386.068 
	L 1552.635, 2396.437 
" />
<path d="M 1344.337, 2421.185 
	L 1344.336, 2421.186 
	L 1328.206, 2440.029 
	L 1316.093, 2429.660 
	L 1332.223, 2410.818 
	L 1344.336, 2421.186 
" />
<path d="M 1127.532, 2445.935 
	L 1127.532, 2445.935 
	L 1111.310, 2464.886 
	L 1099.196, 2454.517 
	L 1115.418, 2435.567 
	L 1127.532, 2445.935 
" />
<path d="M 902.224, 2470.684 
	L 902.223, 2470.685 
	L 885.909, 2489.743 
	L 873.796, 2479.374 
	L 890.110, 2460.316 
	L 902.223, 2470.685 
" />
<path d="M 668.412, 2495.433 
	L 668.411, 2495.434 
	L 652.005, 2514.600 
	L 639.892, 2504.231 
	L 656.298, 2485.066 
	L 668.411, 2495.434 
" />
<path d="M 426.096, 2520.183 
	L 426.095, 2520.183 
	L 409.596, 2539.457 
	L 397.483, 2529.088 
	L 413.982, 2509.815 
	L 426.095, 2520.183 
" />
<path d="M 3945.985, 1806.242 
	L 3945.984, 1806.243 
	L 3961.950, 1792.205 
	L 3972.712, 1804.446 
	L 3956.747, 1818.484 
	L 3945.984, 1806.243 
" />
<path d="M 3941.679, 1831.801 
	L 3941.679, 1831.801 
	L 3957.751, 1817.670 
	L 3968.514, 1829.911 
	L 3952.442, 1844.042 
	L 3941.679, 1831.801 
" />
<path d="M 3928.870, 1857.359 
	L 3928.869, 1857.360 
	L 3945.048, 1843.135 
	L 3955.811, 1855.376 
	L 3939.633, 1869.601 
	L 3928.869, 1857.360 
" />
<path d="M 3907.557, 1882.918 
	L 3907.556, 1882.919 
	L 3923.842, 1868.600 
	L 3934.605, 1880.841 
	L 3918.320, 1895.159 
	L 3907.556, 1882.919 
" />
<path d="M 3877.740, 1908.477 
	L 3877.740, 1908.478 
	L 3894.132, 1894.065 
	L 3904.894, 1906.305 
	L 3888.502, 1920.718 
	L 3877.740, 1908.478 
" />
<path d="M 3839.419, 1934.036 
	L 3839.419, 1934.037 
	L 3855.917, 1919.530 
	L 3866.679, 1931.770 
	L 3850.181, 1946.277 
	L 3839.419, 1934.037 
" />
<path d="M 3792.595, 1959.594 
	L 3792.594, 1959.595 
	L 3809.199, 1944.995 
	L 3819.961, 1957.235 
	L 3803.356, 1971.835 
	L 3792.594, 1959.595 
" />
<path d="M 3737.266, 1985.153 
	L 3737.265, 1985.154 
	L 3753.976, 1970.460 
	L 3764.738, 1982.700 
	L 3748.028, 1997.394 
	L 3737.265, 1985.154 
" />
<path d="M 3673.433, 2010.712 
	L 3673.432, 2010.712 
	L 3690.250, 1995.925 
	L 3701.012, 2008.165 
	L 3684.195, 2022.952 
	L 3673.432, 2010.712 
" />
<path d="M 3601.097, 2036.270 
	L 3601.096, 2036.271 
	L 3618.019, 2021.390 
	L 3628.782, 2033.630 
	L 3611.858, 2048.511 
	L 3601.096, 2036.271 
" />
<path d="M 3520.256, 2061.829 
	L 3520.255, 2061.829 
	L 3537.285, 2046.855 
	L 3548.048, 2059.095 
	L 3531.018, 2074.069 
	L 3520.255, 2061.829 
" />
<path d="M 3430.911, 2087.387 
	L 3430.910, 2087.388 
	L 3448.047, 2072.320 
	L 3458.810, 2084.560 
	L 3441.673, 2099.628 
	L 3430.910, 2087.388 
" />
<path d="M 3333.062, 2112.946 
	L 3333.062, 2112.947 
	L 3350.305, 2097.786 
	L 3361.068, 2110.026 
	L 3343.825, 2125.187 
	L 3333.062, 2112.947 
" />
<path d="M 3226.710, 2138.504 
	L 3226.709, 2138.505 
	L 3244.059, 2123.250 
	L 3254.822, 2135.491 
	L 3237.472, 2150.746 
	L 3226.709, 2138.505 
" />
<path d="M 3111.854, 2164.063 
	L 3111.853, 2164.064 
	L 3129.309, 2148.715 
	L 3140.072, 2160.956 
	L 3122.615, 2176.305 
	L 3111.853, 2164.064 
" />
<path d="M 2988.493, 2189.622 
	L 2988.493, 2189.622 
	L 3006.056, 2174.180 
	L 3016.818, 2186.421 
	L 2999.255, 2201.863 
	L 2988.493, 2189.622 
" />
<path d="M 2856.629, 2215.180 
	L 2856.629, 2215.181 
	L 2874.298, 2199.645 
	L 2885.060, 2211.886 
	L 2867.391, 2227.422 
	L 2856.629, 2215.181 
" />
<path d="M 2716.261, 2240.739 
	L 2716.260, 2240.740 
	L 2734.036, 2225.110 
	L 2744.798, 2237.351 
	L 2727.023, 2252.980 
	L 2716.260, 2240.740 
" />
<path d="M 2567.389, 2266.297 
	L 2567.388, 2266.298 
	L 2585.270, 2250.575 
	L 2596.032, 2262.816 
	L 2578.151, 2278.539 
	L 2567.388, 2266.298 
" />
<path d="M 2410.013, 2291.856 
	L 2410.012, 2291.857 
	L 2428.000, 2276.040 
	L 2438.763, 2288.281 
	L 2420.775, 2304.098 
	L 2410.012, 2291.857 
" />
<path d="M 2244.133, 2317.415 
	L 2244.132, 2317.415 
	L 2262.227, 2301.505 
	L 2272.989, 2313.746 
	L 2254.895, 2329.656 
	L 2244.132, 2317.415 
" />
<path d="M 2069.749, 2342.973 
	L 2069.748, 2342.974 
	L 2087.949, 2326.970 
	L 2098.712, 2339.211 
	L 2080.511, 2355.215 
	L 2069.748, 2342.974 
" />
<path d="M 1886.861, 2368.532 
	L 1886.860, 2368.533 
	L 1905.168, 2352.435 
	L 1915.931, 2364.676 
	L 1897.623, 2380.773 
	L 1886.860, 2368.533 
" />
<path d="M 1695.469, 2394.090 
	L 1695.468, 2394.091 
	L 1713.882, 2377.900 
	L 1724.645, 2390.141 
	L 1706.231, 2406.332 
	L 1695.468, 2394.091 
" />
<path d="M 1495.574, 2419.649 
	L 1495.573, 2419.650 
	L 1514.093, 2403.365 
	L 1524.856, 2415.606 
	L 1506.335, 2431.890 
	L 1495.573, 2419.650 
" />
<path d="M 1287.174, 2445.208 
	L 1287.173, 2445.208 
	L 1305.800, 2428.830 
	L 1316.563, 2441.071 
	L 1297.936, 2457.449 
	L 1287.173, 2445.208 
" />
<path d="M 1070.270, 2470.766 
	L 1070.270, 2470.767 
	L 1089.003, 2454.295 
	L 1099.765, 2466.536 
	L 1081.032, 2483.008 
	L 1070.270, 2470.767 
" />
<path d="M 844.863, 2496.325 
	L 844.862, 2496.325 
	L 863.702, 2479.760 
	L 874.464, 2492.001 
	L 855.625, 2508.566 
	L 844.862, 2496.325 
" />
<path d="M 610.951, 2521.883 
	L 610.951, 2521.884 
	L 629.896, 2505.225 
	L 640.659, 2517.466 
	L 621.713, 2534.125 
	L 610.951, 2521.884 
" />
<path d="M 368.536, 2547.442 
	L 368.535, 2547.443 
	L 387.587, 2530.691 
	L 398.350, 2542.931 
	L 379.298, 2559.683 
	L 368.535, 2547.443 
" />
<path d="M 3944.457, 1806.488 
	L 3944.456, 1806.489 
	L 3926.669, 1818.133 
	L 3917.547, 1804.200 
	L 3935.335, 1792.555 
	L 3944.456, 1806.489 
" />
<path d="M 3940.264, 1832.670 
	L 3940.263, 1832.670 
	L 3922.358, 1844.392 
	L 3913.236, 1830.459 
	L 3931.142, 1818.737 
	L 3940.263, 1832.670 
" />
<path d="M 3927.568, 1858.851 
	L 3927.567, 1858.852 
	L 3909.543, 1870.652 
	L 3900.421, 1856.719 
	L 3918.445, 1844.919 
	L 3927.567, 1858.852 
" />
<path d="M 3906.367, 1885.033 
	L 3906.367, 1885.033 
	L 3888.223, 1896.911 
	L 3879.102, 1882.978 
	L 3897.245, 1871.100 
	L 3906.367, 1885.033 
" />
<path d="M 3876.662, 1911.215 
	L 3876.662, 1911.215 
	L 3858.400, 1923.171 
	L 3849.279, 1909.237 
	L 3867.540, 1897.282 
	L 3876.662, 1911.215 
" />
<path d="M 3838.454, 1937.396 
	L 3838.453, 1937.397 
	L 3820.074, 1949.430 
	L 3810.952, 1935.496 
	L 3829.332, 1923.463 
	L 3838.453, 1937.397 
" />
<path d="M 3791.742, 1963.578 
	L 3791.741, 1963.579 
	L 3773.242, 1975.689 
	L 3764.121, 1961.756 
	L 3782.619, 1949.646 
	L 3791.741, 1963.579 
" />
<path d="M 3736.525, 1989.759 
	L 3736.525, 1989.760 
	L 3717.907, 2001.948 
	L 3708.786, 1988.015 
	L 3727.403, 1975.827 
	L 3736.525, 1989.760 
" />
<path d="M 3672.805, 2015.941 
	L 3672.805, 2015.942 
	L 3654.069, 2028.208 
	L 3644.947, 2014.274 
	L 3663.683, 2002.009 
	L 3672.805, 2015.942 
" />
<path d="M 3600.581, 2042.123 
	L 3600.581, 2042.124 
	L 3581.726, 2054.467 
	L 3572.604, 2040.533 
	L 3591.459, 2028.190 
	L 3600.581, 2042.124 
" />
<path d="M 3519.853, 2068.305 
	L 3519.852, 2068.305 
	L 3500.879, 2080.726 
	L 3491.758, 2066.793 
	L 3510.731, 2054.372 
	L 3519.852, 2068.305 
" />
<path d="M 3430.621, 2094.486 
	L 3430.620, 2094.487 
	L 3411.529, 2106.985 
	L 3402.407, 2093.052 
	L 3421.498, 2080.554 
	L 3430.620, 2094.487 
" />
<path d="M 3332.885, 2120.668 
	L 3332.884, 2120.668 
	L 3313.674, 2133.245 
	L 3304.552, 2119.312 
	L 3323.763, 2106.735 
	L 3332.884, 2120.668 
" />
<path d="M 3226.645, 2146.850 
	L 3226.644, 2146.850 
	L 3207.315, 2159.504 
	L 3198.194, 2145.571 
	L 3217.523, 2132.917 
	L 3226.644, 2146.850 
" />
<path d="M 3111.901, 2173.031 
	L 3111.900, 2173.032 
	L 3092.453, 2185.763 
	L 3083.331, 2171.830 
	L 3102.779, 2159.099 
	L 3111.900, 2173.032 
" />
<path d="M 2988.654, 2199.213 
	L 2988.653, 2199.213 
	L 2969.087, 2212.022 
	L 2959.965, 2198.090 
	L 2979.531, 2185.280 
	L 2988.653, 2199.213 
" />
<path d="M 2856.901, 2225.394 
	L 2856.901, 2225.395 
	L 2837.216, 2238.282 
	L 2828.095, 2224.349 
	L 2847.779, 2211.462 
	L 2856.901, 2225.395 
" />
<path d="M 2716.646, 2251.576 
	L 2716.645, 2251.577 
	L 2696.842, 2264.541 
	L 2687.720, 2250.608 
	L 2707.523, 2237.643 
	L 2716.645, 2251.577 
" />
<path d="M 2567.887, 2277.758 
	L 2567.886, 2277.759 
	L 2547.964, 2290.801 
	L 2538.842, 2276.867 
	L 2558.764, 2263.825 
	L 2567.886, 2277.759 
" />
<path d="M 2410.623, 2303.939 
	L 2410.622, 2303.940 
	L 2390.582, 2317.060 
	L 2381.460, 2303.127 
	L 2401.501, 2290.007 
	L 2410.622, 2303.940 
" />
<path d="M 2244.855, 2330.121 
	L 2244.855, 2330.122 
	L 2224.696, 2343.319 
	L 2215.574, 2329.386 
	L 2235.733, 2316.189 
	L 2244.855, 2330.122 
" />
<path d="M 2070.584, 2356.303 
	L 2070.583, 2356.304 
	L 2050.306, 2369.579 
	L 2041.184, 2355.645 
	L 2061.462, 2342.370 
	L 2070.583, 2356.304 
" />
<path d="M 1887.808, 2382.485 
	L 1887.808, 2382.485 
	L 1867.412, 2395.838 
	L 1858.290, 2381.904 
	L 1878.686, 2368.552 
	L 1887.808, 2382.485 
" />
<path d="M 1696.529, 2408.666 
	L 1696.529, 2408.667 
	L 1676.014, 2422.097 
	L 1666.892, 2408.164 
	L 1687.407, 2394.734 
	L 1696.529, 2408.667 
" />
<path d="M 1496.746, 2434.848 
	L 1496.746, 2434.848 
	L 1476.112, 2448.356 
	L 1466.990, 2434.423 
	L 1487.624, 2420.915 
	L 1496.746, 2434.848 
" />
<path d="M 1288.459, 2461.029 
	L 1288.458, 2461.030 
	L 1267.706, 2474.616 
	L 1258.585, 2460.683 
	L 1279.337, 2447.097 
	L 1288.458, 2461.030 
" />
<path d="M 1071.668, 2487.211 
	L 1071.667, 2487.212 
	L 1050.797, 2500.875 
	L 1041.675, 2486.941 
	L 1062.545, 2473.278 
	L 1071.667, 2487.212 
" />
<path d="M 846.373, 2513.393 
	L 846.372, 2513.394 
	L 825.383, 2527.134 
	L 816.261, 2513.201 
	L 837.250, 2499.460 
	L 846.372, 2513.394 
" />
<path d="M 612.574, 2539.574 
	L 612.573, 2539.575 
	L 591.465, 2553.393 
	L 582.344, 2539.460 
	L 603.452, 2525.642 
	L 612.573, 2539.575 
" />
<path d="M 370.271, 2565.756 
	L 370.270, 2565.757 
	L 349.044, 2579.653 
	L 339.922, 2565.720 
	L 361.148, 2551.824 
	L 370.270, 2565.757 
" />
<path d="M 3889.423, 1802.152 
	L 3889.422, 1802.152 
	L 3908.675, 1793.134 
	L 3915.889, 1808.536 
	L 3896.636, 1817.555 
	L 3889.422, 1802.152 
" />
<path d="M 3885.107, 1829.111 
	L 3885.106, 1829.111 
	L 3904.487, 1820.033 
	L 3911.701, 1835.435 
	L 3892.320, 1844.513 
	L 3885.106, 1829.111 
" />
<path d="M 3872.286, 1856.070 
	L 3872.286, 1856.071 
	L 3891.795, 1846.933 
	L 3899.009, 1862.334 
	L 3879.500, 1871.472 
	L 3872.286, 1856.071 
" />
<path d="M 3850.963, 1883.029 
	L 3850.962, 1883.030 
	L 3870.599, 1873.831 
	L 3877.813, 1889.233 
	L 3858.176, 1898.432 
	L 3850.962, 1883.030 
" />
<path d="M 3821.134, 1909.988 
	L 3821.134, 1909.989 
	L 3840.900, 1900.731 
	L 3848.114, 1916.133 
	L 3828.348, 1925.391 
	L 3821.134, 1909.989 
" />
<path d="M 3782.802, 1936.948 
	L 3782.802, 1936.948 
	L 3802.696, 1927.630 
	L 3809.911, 1943.032 
	L 3790.016, 1952.350 
	L 3782.802, 1936.948 
" />
<path d="M 3735.967, 1963.907 
	L 3735.966, 1963.907 
	L 3755.989, 1954.529 
	L 3763.203, 1969.931 
	L 3743.180, 1979.309 
	L 3735.966, 1963.907 
" />
<path d="M 3680.627, 1990.866 
	L 3680.626, 1990.867 
	L 3700.777, 1981.428 
	L 3707.992, 1996.830 
	L 3687.841, 2006.269 
	L 3680.626, 1990.867 
" />
<path d="M 3616.783, 2017.825 
	L 3616.783, 2017.826 
	L 3637.062, 2008.327 
	L 3644.276, 2023.729 
	L 3623.997, 2033.228 
	L 3616.783, 2017.826 
" />
<path d="M 3544.436, 2044.785 
	L 3544.435, 2044.785 
	L 3564.843, 2035.226 
	L 3572.057, 2050.628 
	L 3551.649, 2060.187 
	L 3544.435, 2044.785 
" />
<path d="M 3463.584, 2071.744 
	L 3463.584, 2071.744 
	L 3484.119, 2062.125 
	L 3491.333, 2077.527 
	L 3470.798, 2087.146 
	L 3463.584, 2071.744 
" />
<path d="M 3374.228, 2098.703 
	L 3374.228, 2098.703 
	L 3394.892, 2089.024 
	L 3402.107, 2104.426 
	L 3381.442, 2114.105 
	L 3374.228, 2098.703 
" />
<path d="M 3276.369, 2125.662 
	L 3276.368, 2125.663 
	L 3297.161, 2115.923 
	L 3304.376, 2131.325 
	L 3283.583, 2141.065 
	L 3276.368, 2125.663 
" />
<path d="M 3170.006, 2152.621 
	L 3170.005, 2152.622 
	L 3190.926, 2142.822 
	L 3198.140, 2158.224 
	L 3177.219, 2168.024 
	L 3170.005, 2152.622 
" />
<path d="M 3055.138, 2179.581 
	L 3055.137, 2179.581 
	L 3076.187, 2169.722 
	L 3083.402, 2185.123 
	L 3062.352, 2194.983 
	L 3055.137, 2179.581 
" />
<path d="M 2931.767, 2206.540 
	L 2931.766, 2206.540 
	L 2952.944, 2196.620 
	L 2960.158, 2212.022 
	L 2938.981, 2221.942 
	L 2931.766, 2206.540 
" />
<path d="M 2799.892, 2233.498 
	L 2799.891, 2233.499 
	L 2821.197, 2223.520 
	L 2828.412, 2238.922 
	L 2807.106, 2248.901 
	L 2799.891, 2233.499 
" />
<path d="M 2659.513, 2260.458 
	L 2659.512, 2260.459 
	L 2680.946, 2250.418 
	L 2688.161, 2265.821 
	L 2666.726, 2275.861 
	L 2659.512, 2260.459 
" />
<path d="M 2510.630, 2287.417 
	L 2510.629, 2287.418 
	L 2532.192, 2277.318 
	L 2539.406, 2292.720 
	L 2517.843, 2302.820 
	L 2510.629, 2287.418 
" />
<path d="M 2353.243, 2314.377 
	L 2353.242, 2314.377 
	L 2374.933, 2304.217 
	L 2382.147, 2319.619 
	L 2360.456, 2329.779 
	L 2353.242, 2314.377 
" />
<path d="M 2187.352, 2341.335 
	L 2187.351, 2341.336 
	L 2209.171, 2331.116 
	L 2216.385, 2346.518 
	L 2194.565, 2356.738 
	L 2187.351, 2341.336 
" />
<path d="M 2012.956, 2368.295 
	L 2012.956, 2368.296 
	L 2034.904, 2358.015 
	L 2042.119, 2373.417 
	L 2020.171, 2383.697 
	L 2012.956, 2368.296 
" />
<path d="M 1830.058, 2395.254 
	L 1830.057, 2395.255 
	L 1852.133, 2384.914 
	L 1859.348, 2400.316 
	L 1837.272, 2410.657 
	L 1830.057, 2395.255 
" />
<path d="M 1638.655, 2422.213 
	L 1638.654, 2422.214 
	L 1660.859, 2411.813 
	L 1668.074, 2427.215 
	L 1645.869, 2437.616 
	L 1638.654, 2422.214 
" />
<path d="M 1438.749, 2449.172 
	L 1438.748, 2449.173 
	L 1461.081, 2438.712 
	L 1468.295, 2454.114 
	L 1445.962, 2464.575 
	L 1438.748, 2449.173 
" />
<path d="M 1230.338, 2476.131 
	L 1230.337, 2476.132 
	L 1252.798, 2465.611 
	L 1260.013, 2481.013 
	L 1237.552, 2491.534 
	L 1230.337, 2476.132 
" />
<path d="M 1013.424, 2503.091 
	L 1013.423, 2503.092 
	L 1036.012, 2492.511 
	L 1043.226, 2507.912 
	L 1020.637, 2518.493 
	L 1013.423, 2503.092 
" />
<path d="M 788.005, 2530.050 
	L 788.004, 2530.051 
	L 810.722, 2519.409 
	L 817.936, 2534.811 
	L 795.218, 2545.453 
	L 788.004, 2530.051 
" />
<path d="M 554.083, 2557.009 
	L 554.082, 2557.010 
	L 576.928, 2546.309 
	L 584.142, 2561.711 
	L 561.296, 2572.412 
	L 554.082, 2557.010 
" />
<path d="M 311.656, 2583.968 
	L 311.655, 2583.969 
	L 334.630, 2573.207 
	L 341.844, 2588.609 
	L 318.869, 2599.371 
	L 311.655, 2583.969 
" />
<path d="M 3887.012, 1810.541 
	L 3887.011, 1810.542 
	L 3866.679, 1816.752 
	L 3861.607, 1800.147 
	L 3881.939, 1793.936 
	L 3887.011, 1810.542 
" />
<path d="M 3882.828, 1838.157 
	L 3882.827, 1838.158 
	L 3862.359, 1844.411 
	L 3857.287, 1827.806 
	L 3877.755, 1821.554 
	L 3882.827, 1838.158 
" />
<path d="M 3870.140, 1865.775 
	L 3870.139, 1865.775 
	L 3849.536, 1872.069 
	L 3844.463, 1855.464 
	L 3865.067, 1849.171 
	L 3870.139, 1865.775 
" />
<path d="M 3848.947, 1893.392 
	L 3848.947, 1893.393 
	L 3828.208, 1899.727 
	L 3823.136, 1883.123 
	L 3843.875, 1876.788 
	L 3848.947, 1893.393 
" />
<path d="M 3819.252, 1921.009 
	L 3819.251, 1921.010 
	L 3798.377, 1927.386 
	L 3793.304, 1910.781 
	L 3814.178, 1904.405 
	L 3819.251, 1921.010 
" />
<path d="M 3781.052, 1948.626 
	L 3781.051, 1948.626 
	L 3760.041, 1955.045 
	L 3754.968, 1938.440 
	L 3775.979, 1932.022 
	L 3781.051, 1948.626 
" />
<path d="M 3734.348, 1976.243 
	L 3734.347, 1976.244 
	L 3713.201, 1982.703 
	L 3708.129, 1966.098 
	L 3729.275, 1959.639 
	L 3734.347, 1976.244 
" />
<path d="M 3679.140, 2003.860 
	L 3679.139, 2003.861 
	L 3657.858, 2010.361 
	L 3652.786, 1993.757 
	L 3674.067, 1987.256 
	L 3679.139, 2003.861 
" />
<path d="M 3615.428, 2031.478 
	L 3615.427, 2031.478 
	L 3594.011, 2038.020 
	L 3588.939, 2021.415 
	L 3610.355, 2014.874 
	L 3615.427, 2031.478 
" />
<path d="M 3543.212, 2059.095 
	L 3543.212, 2059.095 
	L 3521.659, 2065.679 
	L 3516.587, 2049.074 
	L 3538.140, 2042.490 
	L 3543.212, 2059.095 
" />
<path d="M 3462.493, 2086.711 
	L 3462.492, 2086.712 
	L 3440.804, 2093.337 
	L 3435.732, 2076.733 
	L 3457.420, 2070.107 
	L 3462.492, 2086.712 
" />
<path d="M 3373.269, 2114.329 
	L 3373.268, 2114.329 
	L 3351.445, 2120.996 
	L 3346.373, 2104.391 
	L 3368.196, 2097.725 
	L 3373.268, 2114.329 
" />
<path d="M 3275.542, 2141.946 
	L 3275.541, 2141.946 
	L 3253.582, 2148.654 
	L 3248.510, 2132.049 
	L 3270.469, 2125.342 
	L 3275.541, 2141.946 
" />
<path d="M 3169.310, 2169.563 
	L 3169.310, 2169.564 
	L 3147.215, 2176.312 
	L 3142.143, 2159.708 
	L 3164.237, 2152.959 
	L 3169.310, 2169.564 
" />
<path d="M 3054.575, 2197.180 
	L 3054.574, 2197.181 
	L 3032.344, 2203.971 
	L 3027.272, 2187.366 
	L 3049.502, 2180.576 
	L 3054.574, 2197.181 
" />
<path d="M 2931.336, 2224.797 
	L 2931.335, 2224.797 
	L 2908.969, 2231.630 
	L 2903.897, 2215.025 
	L 2926.263, 2208.193 
	L 2931.335, 2224.797 
" />
<path d="M 2799.593, 2252.414 
	L 2799.592, 2252.415 
	L 2777.090, 2259.288 
	L 2772.018, 2242.683 
	L 2794.519, 2235.810 
	L 2799.592, 2252.415 
" />
<path d="M 2659.345, 2280.031 
	L 2659.344, 2280.032 
	L 2636.708, 2286.946 
	L 2631.636, 2270.342 
	L 2654.272, 2263.427 
	L 2659.344, 2280.032 
" />
<path d="M 2510.594, 2307.649 
	L 2510.593, 2307.649 
	L 2487.821, 2314.606 
	L 2482.749, 2298.000 
	L 2505.521, 2291.044 
	L 2510.593, 2307.649 
" />
<path d="M 2353.339, 2335.265 
	L 2353.338, 2335.266 
	L 2330.430, 2342.264 
	L 2325.359, 2325.659 
	L 2348.266, 2318.661 
	L 2353.338, 2335.266 
" />
<path d="M 2187.580, 2362.882 
	L 2187.579, 2362.883 
	L 2164.536, 2369.922 
	L 2159.464, 2353.318 
	L 2182.507, 2346.278 
	L 2187.579, 2362.883 
" />
<path d="M 2013.317, 2390.500 
	L 2013.316, 2390.500 
	L 1990.138, 2397.580 
	L 1985.065, 2380.976 
	L 2008.244, 2373.896 
	L 2013.316, 2390.500 
" />
<path d="M 1830.550, 2418.117 
	L 1830.549, 2418.118 
	L 1807.235, 2425.239 
	L 1802.163, 2408.634 
	L 1825.477, 2401.513 
	L 1830.549, 2418.118 
" />
<path d="M 1639.279, 2445.734 
	L 1639.278, 2445.735 
	L 1615.828, 2452.898 
	L 1610.756, 2436.293 
	L 1634.207, 2429.129 
	L 1639.278, 2445.735 
" />
<path d="M 1439.505, 2473.351 
	L 1439.504, 2473.351 
	L 1415.918, 2480.556 
	L 1410.846, 2463.952 
	L 1434.432, 2456.747 
	L 1439.504, 2473.351 
" />
<path d="M 1231.226, 2500.968 
	L 1231.225, 2500.969 
	L 1207.504, 2508.215 
	L 1202.432, 2491.610 
	L 1226.153, 2484.364 
	L 1231.225, 2500.969 
" />
<path d="M 1014.443, 2528.585 
	L 1014.443, 2528.586 
	L 990.586, 2535.873 
	L 985.514, 2519.268 
	L 1009.371, 2511.981 
	L 1014.443, 2528.586 
" />
<path d="M 789.157, 2556.202 
	L 789.156, 2556.203 
	L 765.164, 2563.531 
	L 760.091, 2546.927 
	L 784.084, 2539.598 
	L 789.156, 2556.203 
" />
<path d="M 555.366, 2583.820 
	L 555.365, 2583.820 
	L 531.238, 2591.190 
	L 526.166, 2574.585 
	L 550.293, 2567.215 
	L 555.365, 2583.820 
" />
<path d="M 313.072, 2611.436 
	L 313.071, 2611.437 
	L 288.808, 2618.849 
	L 283.735, 2602.244 
	L 307.998, 2594.832 
	L 313.071, 2611.437 
" />
<path d="M 3834.094, 1798.231 
	L 3834.093, 1798.231 
	L 3855.099, 1794.953 
	L 3857.832, 1812.457 
	L 3836.826, 1815.736 
	L 3834.093, 1798.231 
" />
<path d="M 3829.772, 1826.589 
	L 3829.772, 1826.589 
	L 3850.917, 1823.288 
	L 3853.649, 1840.792 
	L 3832.504, 1844.094 
	L 3829.772, 1826.589 
" />
<path d="M 3816.946, 1854.946 
	L 3816.946, 1854.946 
	L 3838.231, 1851.623 
	L 3840.964, 1869.128 
	L 3819.678, 1872.451 
	L 3816.946, 1854.946 
" />
<path d="M 3795.616, 1883.303 
	L 3795.616, 1883.304 
	L 3817.041, 1879.959 
	L 3819.774, 1897.463 
	L 3798.348, 1900.808 
	L 3795.616, 1883.304 
" />
<path d="M 3765.782, 1911.661 
	L 3765.782, 1911.661 
	L 3787.348, 1908.294 
	L 3790.080, 1925.799 
	L 3768.514, 1929.166 
	L 3765.782, 1911.661 
" />
<path d="M 3727.444, 1940.018 
	L 3727.444, 1940.019 
	L 3749.149, 1936.630 
	L 3751.883, 1954.134 
	L 3730.177, 1957.523 
	L 3727.444, 1940.019 
" />
<path d="M 3680.603, 1968.375 
	L 3680.603, 1968.376 
	L 3702.448, 1964.965 
	L 3705.180, 1982.470 
	L 3683.335, 1985.881 
	L 3680.603, 1968.376 
" />
<path d="M 3625.258, 1996.733 
	L 3625.257, 1996.733 
	L 3647.242, 1993.301 
	L 3649.975, 2010.806 
	L 3627.990, 2014.238 
	L 3625.257, 1996.733 
" />
<path d="M 3561.408, 2025.090 
	L 3561.407, 2025.091 
	L 3583.533, 2021.636 
	L 3586.266, 2039.141 
	L 3564.140, 2042.596 
	L 3561.407, 2025.091 
" />
<path d="M 3489.054, 2053.447 
	L 3489.054, 2053.448 
	L 3511.320, 2049.972 
	L 3514.052, 2067.477 
	L 3491.786, 2070.953 
	L 3489.054, 2053.448 
" />
<path d="M 3408.197, 2081.805 
	L 3408.196, 2081.806 
	L 3430.602, 2078.308 
	L 3433.335, 2095.812 
	L 3410.929, 2099.310 
	L 3408.196, 2081.806 
" />
<path d="M 3318.836, 2110.162 
	L 3318.835, 2110.163 
	L 3341.381, 2106.643 
	L 3344.113, 2124.148 
	L 3321.568, 2127.668 
	L 3318.835, 2110.163 
" />
<path d="M 3220.971, 2138.519 
	L 3220.970, 2138.520 
	L 3243.656, 2134.979 
	L 3246.388, 2152.484 
	L 3223.702, 2156.025 
	L 3220.970, 2138.520 
" />
<path d="M 3114.601, 2166.877 
	L 3114.600, 2166.878 
	L 3137.426, 2163.314 
	L 3140.159, 2180.819 
	L 3117.333, 2184.383 
	L 3114.600, 2166.878 
" />
<path d="M 2999.728, 2195.234 
	L 2999.727, 2195.235 
	L 3022.693, 2191.650 
	L 3025.426, 2209.155 
	L 3002.460, 2212.740 
	L 2999.727, 2195.235 
" />
<path d="M 2876.351, 2223.592 
	L 2876.350, 2223.593 
	L 2899.456, 2219.985 
	L 2902.189, 2237.490 
	L 2879.083, 2241.098 
	L 2876.350, 2223.593 
" />
<path d="M 2744.470, 2251.949 
	L 2744.469, 2251.950 
	L 2767.715, 2248.321 
	L 2770.447, 2265.826 
	L 2747.202, 2269.454 
	L 2744.469, 2251.950 
" />
<path d="M 2604.085, 2280.307 
	L 2604.084, 2280.308 
	L 2627.470, 2276.657 
	L 2630.203, 2294.161 
	L 2606.817, 2297.812 
	L 2604.084, 2280.308 
" />
<path d="M 2455.196, 2308.664 
	L 2455.195, 2308.665 
	L 2478.721, 2304.992 
	L 2481.454, 2322.496 
	L 2457.928, 2326.169 
	L 2455.195, 2308.665 
" />
<path d="M 2297.803, 2337.021 
	L 2297.802, 2337.022 
	L 2321.469, 2333.328 
	L 2324.201, 2350.832 
	L 2300.535, 2354.527 
	L 2297.802, 2337.022 
" />
<path d="M 2131.906, 2365.379 
	L 2131.905, 2365.380 
	L 2155.711, 2361.663 
	L 2158.445, 2379.167 
	L 2134.639, 2382.884 
	L 2131.905, 2365.380 
" />
<path d="M 1957.506, 2393.736 
	L 1957.505, 2393.737 
	L 1981.451, 2389.999 
	L 1984.183, 2407.503 
	L 1960.238, 2411.241 
	L 1957.505, 2393.737 
" />
<path d="M 1774.601, 2422.094 
	L 1774.600, 2422.095 
	L 1798.686, 2418.334 
	L 1801.419, 2435.838 
	L 1777.333, 2439.599 
	L 1774.600, 2422.095 
" />
<path d="M 1583.192, 2450.451 
	L 1583.191, 2450.452 
	L 1607.418, 2446.669 
	L 1610.151, 2464.174 
	L 1585.924, 2467.956 
	L 1583.191, 2450.452 
" />
<path d="M 1383.280, 2478.809 
	L 1383.279, 2478.809 
	L 1407.646, 2475.005 
	L 1410.378, 2492.509 
	L 1386.011, 2496.313 
	L 1383.279, 2478.809 
" />
<path d="M 1174.863, 2507.166 
	L 1174.862, 2507.167 
	L 1199.369, 2503.340 
	L 1202.102, 2520.845 
	L 1177.595, 2524.671 
	L 1174.862, 2507.167 
" />
<path d="M 957.943, 2535.523 
	L 957.942, 2535.524 
	L 982.588, 2531.676 
	L 985.321, 2549.181 
	L 960.675, 2553.028 
	L 957.942, 2535.524 
" />
<path d="M 732.519, 2563.881 
	L 732.518, 2563.881 
	L 757.304, 2560.012 
	L 760.037, 2577.516 
	L 735.250, 2581.386 
	L 732.518, 2563.881 
" />
<path d="M 498.590, 2592.238 
	L 498.590, 2592.238 
	L 523.516, 2588.347 
	L 526.248, 2605.852 
	L 501.322, 2609.743 
	L 498.590, 2592.238 
" />
<path d="M 256.158, 2620.596 
	L 256.157, 2620.596 
	L 281.224, 2616.683 
	L 283.956, 2634.187 
	L 258.890, 2638.100 
	L 256.157, 2620.596 
" />
<path d="M 3828.366, 1814.237 
	L 3828.365, 1814.238 
	L 3807.107, 1814.520 
	L 3806.867, 1796.451 
	L 3828.125, 1796.169 
	L 3828.365, 1814.238 
" />
<path d="M 3824.185, 1843.291 
	L 3824.184, 1843.292 
	L 3802.784, 1843.576 
	L 3802.544, 1825.507 
	L 3823.944, 1825.223 
	L 3824.184, 1843.292 
" />
<path d="M 3811.500, 1872.345 
	L 3811.499, 1872.346 
	L 3789.958, 1872.632 
	L 3789.717, 1854.563 
	L 3811.259, 1854.277 
	L 3811.499, 1872.346 
" />
<path d="M 3790.311, 1901.400 
	L 3790.310, 1901.401 
	L 3768.627, 1901.688 
	L 3768.387, 1883.619 
	L 3790.070, 1883.331 
	L 3790.310, 1901.401 
" />
<path d="M 3760.618, 1930.454 
	L 3760.617, 1930.454 
	L 3738.792, 1930.744 
	L 3738.552, 1912.675 
	L 3760.377, 1912.385 
	L 3760.617, 1930.454 
" />
<path d="M 3722.421, 1959.508 
	L 3722.420, 1959.509 
	L 3700.454, 1959.801 
	L 3700.213, 1941.731 
	L 3722.180, 1941.439 
	L 3722.420, 1959.509 
" />
<path d="M 3675.720, 1988.562 
	L 3675.719, 1988.563 
	L 3653.611, 1988.856 
	L 3653.371, 1970.787 
	L 3675.479, 1970.494 
	L 3675.719, 1988.563 
" />
<path d="M 3620.515, 2017.616 
	L 3620.515, 2017.617 
	L 3598.265, 2017.912 
	L 3598.024, 1999.844 
	L 3620.274, 1999.548 
	L 3620.515, 2017.617 
" />
<path d="M 3556.807, 2046.670 
	L 3556.806, 2046.671 
	L 3534.414, 2046.969 
	L 3534.174, 2028.899 
	L 3556.566, 2028.602 
	L 3556.806, 2046.671 
" />
<path d="M 3484.594, 2075.725 
	L 3484.593, 2075.726 
	L 3462.060, 2076.025 
	L 3461.820, 2057.955 
	L 3484.353, 2057.656 
	L 3484.593, 2075.726 
" />
<path d="M 3403.877, 2104.779 
	L 3403.877, 2104.779 
	L 3381.202, 2105.080 
	L 3380.962, 2087.012 
	L 3403.637, 2086.711 
	L 3403.877, 2104.779 
" />
<path d="M 3314.657, 2133.833 
	L 3314.656, 2133.834 
	L 3291.840, 2134.137 
	L 3291.599, 2116.068 
	L 3314.416, 2115.764 
	L 3314.656, 2133.834 
" />
<path d="M 3216.933, 2162.887 
	L 3216.932, 2162.888 
	L 3193.973, 2163.193 
	L 3193.733, 2145.123 
	L 3216.692, 2144.819 
	L 3216.932, 2162.888 
" />
<path d="M 3110.704, 2191.941 
	L 3110.703, 2191.942 
	L 3087.603, 2192.249 
	L 3087.363, 2174.180 
	L 3110.463, 2173.873 
	L 3110.703, 2191.942 
" />
<path d="M 2995.972, 2220.996 
	L 2995.971, 2220.996 
	L 2972.729, 2221.305 
	L 2972.489, 2203.236 
	L 2995.731, 2202.927 
	L 2995.971, 2220.996 
" />
<path d="M 2872.736, 2250.050 
	L 2872.735, 2250.051 
	L 2849.351, 2250.361 
	L 2849.111, 2232.292 
	L 2872.495, 2231.981 
	L 2872.735, 2250.051 
" />
<path d="M 2740.996, 2279.104 
	L 2740.995, 2279.104 
	L 2717.469, 2279.417 
	L 2717.229, 2261.348 
	L 2740.755, 2261.036 
	L 2740.995, 2279.104 
" />
<path d="M 2600.751, 2308.158 
	L 2600.751, 2308.159 
	L 2577.084, 2308.474 
	L 2576.843, 2290.404 
	L 2600.510, 2290.089 
	L 2600.751, 2308.159 
" />
<path d="M 2452.003, 2337.212 
	L 2452.003, 2337.213 
	L 2428.194, 2337.529 
	L 2427.954, 2319.460 
	L 2451.762, 2319.144 
	L 2452.003, 2337.213 
" />
<path d="M 2294.751, 2366.266 
	L 2294.751, 2366.267 
	L 2270.800, 2366.585 
	L 2270.560, 2348.516 
	L 2294.510, 2348.198 
	L 2294.751, 2366.267 
" />
<path d="M 2128.995, 2395.321 
	L 2128.995, 2395.321 
	L 2104.903, 2395.642 
	L 2104.662, 2377.572 
	L 2128.755, 2377.252 
	L 2128.995, 2395.321 
" />
<path d="M 1954.736, 2424.375 
	L 1954.735, 2424.376 
	L 1930.501, 2424.697 
	L 1930.261, 2406.628 
	L 1954.495, 2406.306 
	L 1954.735, 2424.376 
" />
<path d="M 1771.972, 2453.429 
	L 1771.971, 2453.430 
	L 1747.595, 2453.753 
	L 1747.355, 2435.684 
	L 1771.731, 2435.361 
	L 1771.971, 2453.430 
" />
<path d="M 1580.704, 2482.483 
	L 1580.703, 2482.484 
	L 1556.186, 2482.810 
	L 1555.946, 2464.740 
	L 1580.463, 2464.414 
	L 1580.703, 2482.484 
" />
<path d="M 1380.933, 2511.538 
	L 1380.932, 2511.538 
	L 1356.273, 2511.866 
	L 1356.032, 2493.796 
	L 1380.691, 2493.469 
	L 1380.932, 2511.538 
" />
<path d="M 1172.657, 2540.592 
	L 1172.656, 2540.593 
	L 1147.855, 2540.921 
	L 1147.615, 2522.852 
	L 1172.416, 2522.523 
	L 1172.656, 2540.593 
" />
<path d="M 955.877, 2569.646 
	L 955.877, 2569.646 
	L 930.934, 2569.978 
	L 930.694, 2551.909 
	L 955.636, 2551.577 
	L 955.877, 2569.646 
" />
<path d="M 730.594, 2598.700 
	L 730.593, 2598.701 
	L 705.509, 2599.034 
	L 705.268, 2580.964 
	L 730.353, 2580.631 
	L 730.593, 2598.701 
" />
<path d="M 496.807, 2627.755 
	L 496.806, 2627.755 
	L 471.580, 2628.090 
	L 471.339, 2610.020 
	L 496.565, 2609.686 
	L 496.806, 2627.755 
" />
<path d="M 254.515, 2656.808 
	L 254.514, 2656.809 
	L 229.147, 2657.146 
	L 228.906, 2639.077 
	L 254.274, 2638.739 
	L 254.514, 2656.809 
" />
<path d="M 3779.907, 1794.846 
	L 3779.906, 1794.847 
	L 3800.991, 1797.567 
	L 3798.633, 1815.842 
	L 3777.548, 1813.121 
	L 3779.906, 1794.847 
" />
<path d="M 3775.585, 1824.601 
	L 3775.584, 1824.602 
	L 3796.809, 1827.340 
	L 3794.451, 1845.614 
	L 3773.226, 1842.876 
	L 3775.584, 1824.602 
" />
<path d="M 3762.758, 1854.356 
	L 3762.757, 1854.357 
	L 3784.124, 1857.113 
	L 3781.766, 1875.387 
	L 3760.399, 1872.630 
	L 3762.757, 1854.357 
" />
<path d="M 3741.428, 1884.111 
	L 3741.427, 1884.111 
	L 3762.934, 1886.886 
	L 3760.577, 1905.160 
	L 3739.069, 1902.385 
	L 3741.427, 1884.111 
" />
<path d="M 3711.594, 1913.865 
	L 3711.593, 1913.866 
	L 3733.241, 1916.659 
	L 3730.883, 1934.933 
	L 3709.235, 1932.139 
	L 3711.593, 1913.866 
" />
<path d="M 3673.256, 1943.620 
	L 3673.255, 1943.621 
	L 3695.043, 1946.432 
	L 3692.685, 1964.706 
	L 3670.898, 1961.895 
	L 3673.255, 1943.621 
" />
<path d="M 3626.414, 1973.375 
	L 3626.413, 1973.376 
	L 3648.342, 1976.205 
	L 3645.984, 1994.478 
	L 3624.056, 1991.649 
	L 3626.413, 1973.376 
" />
<path d="M 3571.068, 2003.130 
	L 3571.068, 2003.130 
	L 3593.136, 2005.978 
	L 3590.778, 2024.251 
	L 3568.710, 2021.404 
	L 3571.068, 2003.130 
" />
<path d="M 3507.218, 2032.884 
	L 3507.217, 2032.885 
	L 3529.427, 2035.751 
	L 3527.070, 2054.024 
	L 3504.860, 2051.158 
	L 3507.217, 2032.885 
" />
<path d="M 3434.864, 2062.639 
	L 3434.864, 2062.639 
	L 3457.214, 2065.523 
	L 3454.856, 2083.797 
	L 3432.506, 2080.914 
	L 3434.864, 2062.639 
" />
<path d="M 3354.007, 2092.393 
	L 3354.006, 2092.394 
	L 3376.497, 2095.296 
	L 3374.139, 2113.570 
	L 3351.648, 2110.668 
	L 3354.006, 2092.394 
" />
<path d="M 3264.645, 2122.149 
	L 3264.645, 2122.149 
	L 3287.276, 2125.069 
	L 3284.918, 2143.342 
	L 3262.287, 2140.423 
	L 3264.645, 2122.149 
" />
<path d="M 3166.780, 2151.903 
	L 3166.779, 2151.904 
	L 3189.551, 2154.842 
	L 3187.193, 2173.116 
	L 3164.421, 2170.177 
	L 3166.779, 2151.904 
" />
<path d="M 3060.411, 2181.658 
	L 3060.410, 2181.658 
	L 3083.322, 2184.615 
	L 3080.964, 2202.888 
	L 3058.051, 2199.932 
	L 3060.410, 2181.658 
" />
<path d="M 2945.537, 2211.412 
	L 2945.536, 2211.413 
	L 2968.589, 2214.387 
	L 2966.232, 2232.662 
	L 2943.178, 2229.687 
	L 2945.536, 2211.413 
" />
<path d="M 2822.159, 2241.167 
	L 2822.159, 2241.168 
	L 2845.352, 2244.160 
	L 2842.995, 2262.435 
	L 2819.801, 2259.442 
	L 2822.159, 2241.168 
" />
<path d="M 2690.278, 2270.922 
	L 2690.277, 2270.923 
	L 2713.611, 2273.933 
	L 2711.254, 2292.207 
	L 2687.920, 2289.196 
	L 2690.277, 2270.923 
" />
<path d="M 2549.893, 2300.677 
	L 2549.892, 2300.677 
	L 2573.367, 2303.706 
	L 2571.009, 2321.980 
	L 2547.535, 2318.951 
	L 2549.892, 2300.677 
" />
<path d="M 2401.004, 2330.431 
	L 2401.003, 2330.432 
	L 2424.618, 2333.479 
	L 2422.260, 2351.753 
	L 2398.645, 2348.706 
	L 2401.003, 2330.432 
" />
<path d="M 2243.610, 2360.186 
	L 2243.609, 2360.187 
	L 2267.366, 2363.252 
	L 2265.008, 2381.526 
	L 2241.252, 2378.461 
	L 2243.609, 2360.187 
" />
<path d="M 2077.713, 2389.941 
	L 2077.712, 2389.941 
	L 2101.609, 2393.025 
	L 2099.252, 2411.299 
	L 2075.355, 2408.215 
	L 2077.712, 2389.941 
" />
<path d="M 1903.312, 2419.696 
	L 1903.312, 2419.697 
	L 1927.349, 2422.797 
	L 1924.991, 2441.071 
	L 1900.954, 2437.970 
	L 1903.312, 2419.697 
" />
<path d="M 1720.408, 2449.450 
	L 1720.407, 2449.451 
	L 1744.584, 2452.571 
	L 1742.226, 2470.844 
	L 1718.049, 2467.725 
	L 1720.407, 2449.451 
" />
<path d="M 1528.999, 2479.205 
	L 1528.998, 2479.206 
	L 1553.316, 2482.344 
	L 1550.958, 2500.617 
	L 1526.640, 2497.479 
	L 1528.998, 2479.206 
" />
<path d="M 1329.086, 2508.959 
	L 1329.085, 2508.960 
	L 1353.543, 2512.116 
	L 1351.186, 2530.390 
	L 1326.728, 2527.234 
	L 1329.085, 2508.960 
" />
<path d="M 1120.669, 2538.715 
	L 1120.668, 2538.715 
	L 1145.268, 2541.889 
	L 1142.910, 2560.162 
	L 1118.310, 2556.989 
	L 1120.668, 2538.715 
" />
<path d="M 903.748, 2568.469 
	L 903.747, 2568.470 
	L 928.488, 2571.662 
	L 926.130, 2589.935 
	L 901.390, 2586.744 
	L 903.747, 2568.470 
" />
<path d="M 678.324, 2598.224 
	L 678.323, 2598.225 
	L 703.203, 2601.435 
	L 700.846, 2619.708 
	L 675.965, 2616.498 
	L 678.323, 2598.225 
" />
<path d="M 444.396, 2627.979 
	L 444.395, 2627.979 
	L 469.415, 2631.208 
	L 467.057, 2649.481 
	L 442.037, 2646.253 
	L 444.395, 2627.979 
" />
<path d="M 201.963, 2657.733 
	L 201.962, 2657.734 
	L 227.123, 2660.980 
	L 224.766, 2679.254 
	L 199.604, 2676.008 
	L 201.962, 2657.734 
" />
<path d="M 3768.665, 1817.228 
	L 3768.665, 1817.229 
	L 3748.174, 1811.560 
	L 3753.182, 1793.460 
	L 3773.672, 1799.129 
	L 3768.665, 1817.229 
" />
<path d="M 3764.481, 1847.719 
	L 3764.481, 1847.720 
	L 3743.854, 1842.013 
	L 3748.862, 1823.913 
	L 3769.488, 1829.620 
	L 3764.481, 1847.720 
" />
<path d="M 3751.794, 1878.210 
	L 3751.793, 1878.211 
	L 3731.030, 1872.467 
	L 3736.037, 1854.367 
	L 3756.801, 1860.112 
	L 3751.793, 1878.211 
" />
<path d="M 3730.602, 1908.702 
	L 3730.602, 1908.703 
	L 3709.702, 1902.921 
	L 3714.709, 1884.821 
	L 3735.609, 1890.603 
	L 3730.602, 1908.703 
" />
<path d="M 3700.907, 1939.193 
	L 3700.906, 1939.194 
	L 3679.870, 1933.374 
	L 3684.877, 1915.274 
	L 3705.913, 1921.094 
	L 3700.906, 1939.194 
" />
<path d="M 3662.708, 1969.684 
	L 3662.707, 1969.685 
	L 3641.533, 1963.827 
	L 3646.541, 1945.728 
	L 3667.714, 1951.586 
	L 3662.707, 1969.685 
" />
<path d="M 3616.004, 2000.176 
	L 3616.003, 2000.177 
	L 3594.694, 1994.281 
	L 3599.701, 1976.181 
	L 3621.011, 1982.077 
	L 3616.003, 2000.177 
" />
<path d="M 3560.797, 2030.668 
	L 3560.796, 2030.668 
	L 3539.349, 2024.735 
	L 3544.357, 2006.635 
	L 3565.804, 2012.568 
	L 3560.796, 2030.668 
" />
<path d="M 3497.086, 2061.158 
	L 3497.085, 2061.159 
	L 3475.502, 2055.188 
	L 3480.509, 2037.089 
	L 3502.092, 2043.060 
	L 3497.085, 2061.159 
" />
<path d="M 3424.870, 2091.650 
	L 3424.869, 2091.651 
	L 3403.150, 2085.642 
	L 3408.158, 2067.542 
	L 3429.877, 2073.551 
	L 3424.869, 2091.651 
" />
<path d="M 3344.151, 2122.142 
	L 3344.151, 2122.142 
	L 3322.294, 2116.095 
	L 3327.302, 2097.995 
	L 3349.158, 2104.042 
	L 3344.151, 2122.142 
" />
<path d="M 3254.928, 2152.632 
	L 3254.927, 2152.633 
	L 3232.935, 2146.548 
	L 3237.942, 2128.449 
	L 3259.935, 2134.534 
	L 3254.927, 2152.633 
" />
<path d="M 3157.201, 2183.124 
	L 3157.200, 2183.125 
	L 3135.071, 2177.003 
	L 3140.079, 2158.903 
	L 3162.208, 2165.025 
	L 3157.200, 2183.125 
" />
<path d="M 3050.970, 2213.616 
	L 3050.970, 2213.616 
	L 3028.704, 2207.456 
	L 3033.711, 2189.356 
	L 3055.977, 2195.516 
	L 3050.970, 2213.616 
" />
<path d="M 2936.235, 2244.106 
	L 2936.235, 2244.107 
	L 2913.832, 2237.909 
	L 2918.840, 2219.810 
	L 2941.242, 2226.008 
	L 2936.235, 2244.107 
" />
<path d="M 2812.997, 2274.598 
	L 2812.996, 2274.599 
	L 2790.457, 2268.363 
	L 2795.464, 2250.263 
	L 2818.004, 2256.499 
	L 2812.996, 2274.599 
" />
<path d="M 2681.254, 2305.090 
	L 2681.253, 2305.090 
	L 2658.577, 2298.816 
	L 2663.585, 2280.717 
	L 2686.261, 2286.990 
	L 2681.253, 2305.090 
" />
<path d="M 2541.007, 2335.580 
	L 2541.006, 2335.581 
	L 2518.195, 2329.270 
	L 2523.202, 2311.171 
	L 2546.014, 2317.482 
	L 2541.006, 2335.581 
" />
<path d="M 2392.257, 2366.072 
	L 2392.256, 2366.073 
	L 2369.307, 2359.724 
	L 2374.314, 2341.624 
	L 2397.264, 2347.973 
	L 2392.256, 2366.073 
" />
<path d="M 2235.002, 2396.564 
	L 2235.001, 2396.564 
	L 2211.916, 2390.177 
	L 2216.923, 2372.077 
	L 2240.009, 2378.464 
	L 2235.001, 2396.564 
" />
<path d="M 2069.244, 2427.054 
	L 2069.243, 2427.055 
	L 2046.020, 2420.631 
	L 2051.028, 2402.531 
	L 2074.251, 2408.956 
	L 2069.243, 2427.055 
" />
<path d="M 1894.981, 2457.546 
	L 1894.981, 2457.547 
	L 1871.622, 2451.084 
	L 1876.629, 2432.985 
	L 1899.988, 2439.447 
	L 1894.981, 2457.547 
" />
<path d="M 1712.215, 2488.038 
	L 1712.214, 2488.038 
	L 1688.719, 2481.538 
	L 1693.726, 2463.438 
	L 1717.222, 2469.938 
	L 1712.214, 2488.038 
" />
<path d="M 1520.945, 2518.529 
	L 1520.944, 2518.529 
	L 1497.312, 2511.991 
	L 1502.319, 2493.892 
	L 1525.952, 2500.430 
	L 1520.944, 2518.529 
" />
<path d="M 1321.171, 2549.020 
	L 1321.170, 2549.021 
	L 1297.401, 2542.445 
	L 1302.408, 2524.345 
	L 1326.177, 2530.921 
	L 1321.170, 2549.021 
" />
<path d="M 1112.892, 2579.512 
	L 1112.891, 2579.512 
	L 1088.987, 2572.898 
	L 1093.994, 2554.798 
	L 1117.898, 2561.413 
	L 1112.891, 2579.512 
" />
<path d="M 896.110, 2610.003 
	L 896.110, 2610.003 
	L 872.067, 2603.352 
	L 877.075, 2585.253 
	L 901.117, 2591.904 
	L 896.110, 2610.003 
" />
<path d="M 670.824, 2640.494 
	L 670.823, 2640.495 
	L 646.645, 2633.806 
	L 651.652, 2615.706 
	L 675.831, 2622.395 
	L 670.823, 2640.495 
" />
<path d="M 437.035, 2670.986 
	L 437.034, 2670.986 
	L 412.718, 2664.259 
	L 417.725, 2646.159 
	L 442.041, 2652.886 
	L 437.034, 2670.986 
" />
<path d="M 194.740, 2701.477 
	L 194.740, 2701.477 
	L 170.288, 2694.712 
	L 175.295, 2676.613 
	L 199.747, 2683.378 
	L 194.740, 2701.477 
" />
<path d="M 3726.661, 1792.323 
	L 3726.661, 1792.324 
	L 3746.146, 1800.828 
	L 3738.493, 1818.365 
	L 3719.007, 1809.861 
	L 3726.661, 1792.324 
" />
<path d="M 3722.344, 1823.476 
	L 3722.344, 1823.477 
	L 3741.959, 1832.037 
	L 3734.306, 1849.574 
	L 3714.691, 1841.013 
	L 3722.344, 1823.477 
" />
<path d="M 3709.524, 1854.629 
	L 3709.523, 1854.630 
	L 3729.268, 1863.247 
	L 3721.614, 1880.783 
	L 3701.870, 1872.166 
	L 3709.523, 1854.630 
" />
<path d="M 3688.199, 1885.782 
	L 3688.198, 1885.782 
	L 3708.073, 1894.456 
	L 3700.420, 1911.993 
	L 3680.545, 1903.319 
	L 3688.198, 1885.782 
" />
<path d="M 3658.370, 1916.934 
	L 3658.369, 1916.935 
	L 3678.374, 1925.666 
	L 3670.721, 1943.202 
	L 3650.716, 1934.472 
	L 3658.369, 1916.935 
" />
<path d="M 3620.038, 1948.087 
	L 3620.037, 1948.088 
	L 3640.171, 1956.875 
	L 3632.518, 1974.412 
	L 3612.383, 1965.624 
	L 3620.037, 1948.088 
" />
<path d="M 3573.201, 1979.240 
	L 3573.200, 1979.241 
	L 3593.465, 1988.085 
	L 3585.811, 2005.621 
	L 3565.547, 1996.777 
	L 3573.200, 1979.241 
" />
<path d="M 3517.860, 2010.393 
	L 3517.859, 2010.393 
	L 3538.254, 2019.294 
	L 3530.601, 2036.831 
	L 3510.206, 2027.930 
	L 3517.859, 2010.393 
" />
<path d="M 3454.016, 2041.545 
	L 3454.015, 2041.546 
	L 3474.539, 2050.504 
	L 3466.886, 2068.040 
	L 3446.362, 2059.083 
	L 3454.015, 2041.546 
" />
<path d="M 3381.667, 2072.698 
	L 3381.667, 2072.699 
	L 3402.321, 2081.713 
	L 3394.668, 2099.250 
	L 3374.014, 2090.235 
	L 3381.667, 2072.699 
" />
<path d="M 3300.815, 2103.851 
	L 3300.814, 2103.852 
	L 3321.598, 2112.923 
	L 3313.946, 2130.459 
	L 3293.161, 2121.388 
	L 3300.814, 2103.852 
" />
<path d="M 3211.459, 2135.004 
	L 3211.458, 2135.004 
	L 3232.372, 2144.132 
	L 3224.719, 2161.669 
	L 3203.805, 2152.541 
	L 3211.458, 2135.004 
" />
<path d="M 3113.598, 2166.157 
	L 3113.598, 2166.157 
	L 3134.641, 2175.341 
	L 3126.989, 2192.878 
	L 3105.945, 2183.694 
	L 3113.598, 2166.157 
" />
<path d="M 3007.235, 2197.309 
	L 3007.234, 2197.310 
	L 3028.407, 2206.551 
	L 3020.754, 2224.087 
	L 2999.580, 2214.846 
	L 3007.234, 2197.310 
" />
<path d="M 2892.366, 2228.462 
	L 2892.366, 2228.463 
	L 2913.669, 2237.760 
	L 2906.016, 2255.297 
	L 2884.712, 2245.999 
	L 2892.366, 2228.463 
" />
<path d="M 2768.994, 2259.615 
	L 2768.993, 2259.615 
	L 2790.427, 2268.970 
	L 2782.774, 2286.506 
	L 2761.340, 2277.152 
	L 2768.993, 2259.615 
" />
<path d="M 2637.118, 2290.767 
	L 2637.118, 2290.768 
	L 2658.681, 2300.179 
	L 2651.027, 2317.716 
	L 2629.464, 2308.305 
	L 2637.118, 2290.768 
" />
<path d="M 2496.738, 2321.920 
	L 2496.738, 2321.921 
	L 2518.431, 2331.389 
	L 2510.778, 2348.925 
	L 2489.084, 2339.458 
	L 2496.738, 2321.921 
" />
<path d="M 2347.854, 2353.073 
	L 2347.854, 2353.074 
	L 2369.677, 2362.598 
	L 2362.024, 2380.135 
	L 2340.201, 2370.610 
	L 2347.854, 2353.074 
" />
<path d="M 2190.467, 2384.226 
	L 2190.466, 2384.227 
	L 2212.419, 2393.808 
	L 2204.766, 2411.344 
	L 2182.813, 2401.763 
	L 2190.466, 2384.227 
" />
<path d="M 2024.575, 2415.379 
	L 2024.574, 2415.379 
	L 2046.658, 2425.017 
	L 2039.004, 2442.554 
	L 2016.921, 2432.916 
	L 2024.574, 2415.379 
" />
<path d="M 1850.179, 2446.531 
	L 1850.178, 2446.532 
	L 1872.391, 2456.227 
	L 1864.739, 2473.763 
	L 1842.525, 2464.069 
	L 1850.178, 2446.532 
" />
<path d="M 1667.280, 2477.684 
	L 1667.279, 2477.685 
	L 1689.622, 2487.436 
	L 1681.968, 2504.973 
	L 1659.626, 2495.221 
	L 1667.279, 2477.685 
" />
<path d="M 1475.876, 2508.837 
	L 1475.876, 2508.838 
	L 1498.348, 2518.645 
	L 1490.695, 2536.182 
	L 1468.222, 2526.374 
	L 1475.876, 2508.838 
" />
<path d="M 1275.968, 2539.990 
	L 1275.968, 2539.990 
	L 1298.570, 2549.855 
	L 1290.918, 2567.391 
	L 1268.315, 2557.527 
	L 1275.968, 2539.990 
" />
<path d="M 1067.558, 2571.142 
	L 1067.557, 2571.143 
	L 1090.289, 2581.064 
	L 1082.636, 2598.601 
	L 1059.903, 2588.680 
	L 1067.557, 2571.143 
" />
<path d="M 850.642, 2602.295 
	L 850.641, 2602.296 
	L 873.504, 2612.274 
	L 865.850, 2629.810 
	L 842.988, 2619.832 
	L 850.641, 2602.296 
" />
<path d="M 625.222, 2633.448 
	L 625.222, 2633.449 
	L 648.214, 2643.483 
	L 640.561, 2661.020 
	L 617.569, 2650.985 
	L 625.222, 2633.449 
" />
<path d="M 391.300, 2664.601 
	L 391.299, 2664.601 
	L 414.421, 2674.693 
	L 406.768, 2692.229 
	L 383.645, 2682.138 
	L 391.299, 2664.601 
" />
<path d="M 148.872, 2695.753 
	L 148.872, 2695.754 
	L 172.124, 2705.902 
	L 164.470, 2723.439 
	L 141.218, 2713.291 
	L 148.872, 2695.754 
" />
<path d="M 3708.157, 1819.219 
	L 3708.156, 1819.220 
	L 3690.066, 1808.051 
	L 3700.304, 1791.469 
	L 3718.394, 1802.637 
	L 3708.156, 1819.220 
" />
<path d="M 3703.965, 1851.146 
	L 3703.964, 1851.147 
	L 3685.754, 1839.904 
	L 3695.992, 1823.322 
	L 3714.202, 1834.564 
	L 3703.964, 1851.147 
" />
<path d="M 3691.270, 1883.073 
	L 3691.269, 1883.074 
	L 3672.938, 1871.757 
	L 3683.175, 1855.174 
	L 3701.507, 1866.491 
	L 3691.269, 1883.074 
" />
<path d="M 3670.071, 1915.000 
	L 3670.070, 1915.000 
	L 3651.618, 1903.609 
	L 3661.855, 1887.027 
	L 3680.307, 1898.418 
	L 3670.070, 1915.000 
" />
<path d="M 3640.367, 1946.927 
	L 3640.366, 1946.928 
	L 3621.794, 1935.462 
	L 3632.031, 1918.879 
	L 3650.604, 1930.345 
	L 3640.366, 1946.928 
" />
<path d="M 3602.160, 1978.854 
	L 3602.159, 1978.854 
	L 3583.466, 1967.314 
	L 3593.703, 1950.732 
	L 3612.396, 1962.272 
	L 3602.159, 1978.854 
" />
<path d="M 3555.448, 2010.781 
	L 3555.447, 2010.782 
	L 3536.634, 1999.167 
	L 3546.871, 1982.584 
	L 3565.685, 1994.199 
	L 3555.447, 2010.782 
" />
<path d="M 3500.233, 2042.708 
	L 3500.232, 2042.708 
	L 3481.298, 2031.019 
	L 3491.535, 2014.437 
	L 3510.469, 2026.126 
	L 3500.232, 2042.708 
" />
<path d="M 3436.513, 2074.635 
	L 3436.513, 2074.636 
	L 3417.458, 2062.872 
	L 3427.696, 2046.289 
	L 3446.750, 2058.053 
	L 3436.513, 2074.636 
" />
<path d="M 3364.290, 2106.562 
	L 3364.289, 2106.563 
	L 3345.114, 2094.724 
	L 3355.352, 2078.141 
	L 3374.528, 2089.980 
	L 3364.289, 2106.563 
" />
<path d="M 3283.563, 2138.489 
	L 3283.562, 2138.490 
	L 3264.266, 2126.577 
	L 3274.504, 2109.994 
	L 3293.800, 2121.907 
	L 3283.562, 2138.490 
" />
<path d="M 3194.332, 2170.416 
	L 3194.331, 2170.417 
	L 3174.915, 2158.429 
	L 3185.153, 2141.847 
	L 3204.569, 2153.834 
	L 3194.331, 2170.417 
" />
<path d="M 3096.597, 2202.343 
	L 3096.596, 2202.344 
	L 3077.059, 2190.282 
	L 3087.297, 2173.700 
	L 3106.834, 2185.761 
	L 3096.596, 2202.344 
" />
<path d="M 2990.359, 2234.270 
	L 2990.358, 2234.271 
	L 2970.700, 2222.134 
	L 2980.937, 2205.552 
	L 3000.595, 2217.688 
	L 2990.358, 2234.271 
" />
<path d="M 2875.616, 2266.197 
	L 2875.615, 2266.198 
	L 2855.836, 2253.987 
	L 2866.074, 2237.405 
	L 2885.852, 2249.615 
	L 2875.615, 2266.198 
" />
<path d="M 2752.369, 2298.124 
	L 2752.368, 2298.125 
	L 2732.469, 2285.840 
	L 2742.706, 2269.257 
	L 2762.606, 2281.542 
	L 2752.368, 2298.125 
" />
<path d="M 2620.618, 2330.051 
	L 2620.617, 2330.051 
	L 2600.598, 2317.692 
	L 2610.835, 2301.110 
	L 2630.855, 2313.469 
	L 2620.617, 2330.051 
" />
<path d="M 2480.363, 2361.978 
	L 2480.363, 2361.979 
	L 2460.222, 2349.545 
	L 2470.460, 2332.962 
	L 2490.600, 2345.396 
	L 2480.363, 2361.979 
" />
<path d="M 2331.605, 2393.905 
	L 2331.604, 2393.905 
	L 2311.343, 2381.398 
	L 2321.581, 2364.815 
	L 2341.841, 2377.323 
	L 2331.604, 2393.905 
" />
<path d="M 2174.342, 2425.832 
	L 2174.341, 2425.833 
	L 2153.960, 2413.250 
	L 2164.198, 2396.667 
	L 2184.579, 2409.250 
	L 2174.341, 2425.833 
" />
<path d="M 2008.575, 2457.759 
	L 2008.575, 2457.759 
	L 1988.072, 2445.102 
	L 1998.311, 2428.520 
	L 2018.813, 2441.177 
	L 2008.575, 2457.759 
" />
<path d="M 1834.305, 2489.686 
	L 1834.304, 2489.687 
	L 1813.682, 2476.955 
	L 1823.920, 2460.372 
	L 1844.542, 2473.104 
	L 1834.304, 2489.687 
" />
<path d="M 1651.531, 2521.613 
	L 1651.530, 2521.613 
	L 1630.787, 2508.807 
	L 1641.025, 2492.225 
	L 1661.768, 2505.031 
	L 1651.530, 2521.613 
" />
<path d="M 1460.252, 2553.540 
	L 1460.251, 2553.541 
	L 1439.388, 2540.660 
	L 1449.626, 2524.077 
	L 1470.490, 2536.958 
	L 1460.251, 2553.541 
" />
<path d="M 1260.471, 2585.467 
	L 1260.470, 2585.468 
	L 1239.485, 2572.512 
	L 1249.723, 2555.930 
	L 1270.707, 2568.885 
	L 1260.470, 2585.468 
" />
<path d="M 1052.185, 2617.394 
	L 1052.184, 2617.395 
	L 1031.078, 2604.365 
	L 1041.316, 2587.782 
	L 1062.421, 2600.812 
	L 1052.184, 2617.395 
" />
<path d="M 835.394, 2649.321 
	L 835.394, 2649.322 
	L 814.168, 2636.217 
	L 824.405, 2619.635 
	L 845.631, 2632.739 
	L 835.394, 2649.322 
" />
<path d="M 610.100, 2681.248 
	L 610.099, 2681.249 
	L 588.753, 2668.070 
	L 598.991, 2651.488 
	L 620.337, 2664.666 
	L 610.099, 2681.249 
" />
<path d="M 376.302, 2713.175 
	L 376.301, 2713.176 
	L 354.835, 2699.922 
	L 365.072, 2683.340 
	L 386.539, 2696.593 
	L 376.301, 2713.176 
" />
<path d="M 134.000, 2745.102 
	L 133.999, 2745.103 
	L 112.412, 2731.775 
	L 122.650, 2715.193 
	L 144.237, 2728.520 
	L 133.999, 2745.103 
" />
<path d="M 3674.069, 1790.917 
	L 3674.068, 1790.917 
	L 3690.401, 1804.527 
	L 3677.699, 1819.771 
	L 3661.366, 1806.161 
	L 3674.068, 1790.917 
" />
<path d="M 3669.762, 1823.470 
	L 3669.762, 1823.470 
	L 3686.204, 1837.171 
	L 3673.502, 1852.415 
	L 3657.060, 1838.714 
	L 3669.762, 1823.470 
" />
<path d="M 3656.953, 1856.023 
	L 3656.952, 1856.024 
	L 3673.502, 1869.815 
	L 3660.800, 1885.059 
	L 3644.250, 1871.268 
	L 3656.952, 1856.024 
" />
<path d="M 3635.638, 1888.576 
	L 3635.637, 1888.577 
	L 3652.297, 1902.459 
	L 3639.595, 1917.703 
	L 3622.935, 1903.821 
	L 3635.637, 1888.577 
" />
<path d="M 3605.820, 1921.129 
	L 3605.819, 1921.130 
	L 3622.587, 1935.102 
	L 3609.885, 1950.346 
	L 3593.117, 1936.374 
	L 3605.819, 1921.130 
" />
<path d="M 3567.497, 1953.682 
	L 3567.497, 1953.683 
	L 3584.374, 1967.746 
	L 3571.672, 1982.990 
	L 3554.795, 1968.927 
	L 3567.497, 1953.683 
" />
<path d="M 3520.671, 1986.235 
	L 3520.671, 1986.236 
	L 3537.657, 2000.390 
	L 3524.955, 2015.634 
	L 3507.969, 2001.480 
	L 3520.671, 1986.236 
" />
<path d="M 3465.341, 2018.788 
	L 3465.340, 2018.789 
	L 3482.436, 2033.034 
	L 3469.734, 2048.278 
	L 3452.638, 2034.033 
	L 3465.340, 2018.789 
" />
<path d="M 3401.508, 2051.341 
	L 3401.507, 2051.342 
	L 3418.710, 2065.677 
	L 3406.008, 2080.922 
	L 3388.805, 2066.586 
	L 3401.507, 2051.342 
" />
<path d="M 3329.170, 2083.894 
	L 3329.169, 2083.895 
	L 3346.482, 2098.321 
	L 3333.780, 2113.565 
	L 3316.467, 2099.139 
	L 3329.169, 2083.895 
" />
<path d="M 3248.328, 2116.447 
	L 3248.327, 2116.448 
	L 3265.749, 2130.965 
	L 3253.047, 2146.209 
	L 3235.625, 2131.692 
	L 3248.327, 2116.448 
" />
<path d="M 3158.982, 2149.001 
	L 3158.981, 2149.001 
	L 3176.512, 2163.609 
	L 3163.810, 2178.853 
	L 3146.279, 2164.245 
	L 3158.981, 2149.001 
" />
<path d="M 3061.132, 2181.554 
	L 3061.131, 2181.554 
	L 3078.771, 2196.253 
	L 3066.069, 2211.497 
	L 3048.429, 2196.798 
	L 3061.131, 2181.554 
" />
<path d="M 2954.778, 2214.107 
	L 2954.777, 2214.107 
	L 2972.527, 2228.896 
	L 2959.824, 2244.140 
	L 2942.075, 2229.351 
	L 2954.777, 2214.107 
" />
<path d="M 2839.921, 2246.660 
	L 2839.920, 2246.661 
	L 2857.777, 2261.540 
	L 2845.075, 2276.784 
	L 2827.218, 2261.904 
	L 2839.920, 2246.661 
" />
<path d="M 2716.559, 2279.213 
	L 2716.559, 2279.214 
	L 2734.525, 2294.184 
	L 2721.823, 2309.428 
	L 2703.857, 2294.458 
	L 2716.559, 2279.214 
" />
<path d="M 2584.694, 2311.766 
	L 2584.693, 2311.767 
	L 2602.768, 2326.828 
	L 2590.066, 2342.072 
	L 2571.991, 2327.011 
	L 2584.693, 2311.767 
" />
<path d="M 2444.324, 2344.319 
	L 2444.324, 2344.320 
	L 2462.508, 2359.472 
	L 2449.806, 2374.716 
	L 2431.622, 2359.564 
	L 2444.324, 2344.320 
" />
<path d="M 2295.451, 2376.872 
	L 2295.450, 2376.873 
	L 2313.744, 2392.115 
	L 2301.041, 2407.359 
	L 2282.748, 2392.117 
	L 2295.450, 2376.873 
" />
<path d="M 2138.074, 2409.425 
	L 2138.073, 2409.426 
	L 2156.475, 2424.759 
	L 2143.773, 2440.003 
	L 2125.371, 2424.670 
	L 2138.073, 2409.426 
" />
<path d="M 1972.193, 2441.978 
	L 1972.192, 2441.979 
	L 1990.702, 2457.403 
	L 1978.000, 2472.647 
	L 1959.490, 2457.223 
	L 1972.192, 2441.979 
" />
<path d="M 1797.808, 2474.531 
	L 1797.807, 2474.532 
	L 1816.426, 2490.047 
	L 1803.724, 2505.291 
	L 1785.105, 2489.776 
	L 1797.807, 2474.532 
" />
<path d="M 1614.918, 2507.084 
	L 1614.918, 2507.085 
	L 1633.646, 2522.691 
	L 1620.944, 2537.935 
	L 1602.215, 2522.329 
	L 1614.918, 2507.085 
" />
<path d="M 1423.525, 2539.638 
	L 1423.525, 2539.638 
	L 1442.362, 2555.334 
	L 1429.660, 2570.578 
	L 1410.822, 2554.882 
	L 1423.525, 2539.638 
" />
<path d="M 1223.628, 2572.191 
	L 1223.627, 2572.191 
	L 1242.574, 2587.978 
	L 1229.872, 2603.222 
	L 1210.925, 2587.435 
	L 1223.627, 2572.191 
" />
<path d="M 1015.228, 2604.744 
	L 1015.227, 2604.744 
	L 1034.281, 2620.622 
	L 1021.579, 2635.866 
	L 1002.525, 2619.988 
	L 1015.227, 2604.744 
" />
<path d="M 798.323, 2637.297 
	L 798.322, 2637.297 
	L 817.486, 2653.266 
	L 804.784, 2668.510 
	L 785.620, 2652.541 
	L 798.322, 2637.297 
" />
<path d="M 572.914, 2669.850 
	L 572.913, 2669.850 
	L 592.186, 2685.909 
	L 579.484, 2701.153 
	L 560.211, 2685.094 
	L 572.913, 2669.850 
" />
<path d="M 339.001, 2702.403 
	L 339.000, 2702.403 
	L 358.382, 2718.553 
	L 345.680, 2733.797 
	L 326.298, 2717.647 
	L 339.000, 2702.403 
" />
<path d="M 96.584, 2734.956 
	L 96.584, 2734.957 
	L 116.075, 2751.197 
	L 103.372, 2766.441 
	L 83.881, 2750.201 
	L 96.584, 2734.957 
" />
<path d="M 3647.168, 1820.001 
	L 3647.167, 1820.002 
	L 3632.918, 1804.223 
	L 3647.907, 1790.687 
	L 3662.156, 1806.465 
	L 3647.167, 1820.002 
" />
<path d="M 3642.964, 1853.360 
	L 3642.963, 1853.361 
	L 3628.619, 1837.478 
	L 3643.608, 1823.942 
	L 3657.952, 1839.825 
	L 3642.963, 1853.361 
" />
<path d="M 3630.255, 1886.721 
	L 3630.254, 1886.721 
	L 3615.815, 1870.733 
	L 3630.804, 1857.196 
	L 3645.243, 1873.184 
	L 3630.254, 1886.721 
" />
<path d="M 3609.043, 1920.080 
	L 3609.042, 1920.081 
	L 3594.508, 1903.987 
	L 3609.497, 1890.450 
	L 3624.031, 1906.544 
	L 3609.042, 1920.081 
" />
<path d="M 3579.326, 1953.440 
	L 3579.326, 1953.440 
	L 3564.697, 1937.242 
	L 3579.686, 1923.705 
	L 3594.315, 1939.904 
	L 3579.326, 1953.440 
" />
<path d="M 3541.106, 1986.799 
	L 3541.105, 1986.800 
	L 3526.382, 1970.496 
	L 3541.371, 1956.960 
	L 3556.094, 1973.264 
	L 3541.105, 1986.800 
" />
<path d="M 3494.382, 2020.159 
	L 3494.381, 2020.159 
	L 3479.563, 2003.750 
	L 3494.551, 1990.214 
	L 3509.370, 2006.623 
	L 3494.381, 2020.159 
" />
<path d="M 3439.154, 2053.519 
	L 3439.153, 2053.520 
	L 3424.239, 2037.005 
	L 3439.228, 2023.468 
	L 3454.142, 2039.983 
	L 3439.153, 2053.520 
" />
<path d="M 3375.422, 2086.879 
	L 3375.421, 2086.879 
	L 3360.412, 2070.260 
	L 3375.401, 2056.723 
	L 3390.410, 2073.342 
	L 3375.421, 2086.879 
" />
<path d="M 3303.186, 2120.238 
	L 3303.185, 2120.239 
	L 3288.081, 2103.514 
	L 3303.070, 2089.978 
	L 3318.174, 2106.702 
	L 3303.185, 2120.239 
" />
<path d="M 3222.446, 2153.598 
	L 3222.445, 2153.598 
	L 3207.247, 2136.768 
	L 3222.235, 2123.232 
	L 3237.434, 2140.062 
	L 3222.445, 2153.598 
" />
<path d="M 3133.202, 2186.957 
	L 3133.201, 2186.958 
	L 3117.908, 2170.023 
	L 3132.897, 2156.487 
	L 3148.190, 2173.422 
	L 3133.201, 2186.958 
" />
<path d="M 3035.454, 2220.317 
	L 3035.454, 2220.318 
	L 3020.065, 2203.278 
	L 3035.054, 2189.741 
	L 3050.442, 2206.781 
	L 3035.454, 2220.318 
" />
<path d="M 2929.203, 2253.677 
	L 2929.202, 2253.678 
	L 2913.718, 2236.532 
	L 2928.707, 2222.995 
	L 2944.191, 2240.141 
	L 2929.202, 2253.678 
" />
<path d="M 2814.447, 2287.036 
	L 2814.446, 2287.037 
	L 2798.868, 2269.786 
	L 2813.857, 2256.250 
	L 2829.435, 2273.501 
	L 2814.446, 2287.037 
" />
<path d="M 2691.187, 2320.396 
	L 2691.187, 2320.397 
	L 2675.513, 2303.041 
	L 2690.502, 2289.505 
	L 2706.175, 2306.860 
	L 2691.187, 2320.397 
" />
<path d="M 2559.424, 2353.756 
	L 2559.423, 2353.757 
	L 2543.654, 2336.296 
	L 2558.643, 2322.759 
	L 2574.413, 2340.220 
	L 2559.423, 2353.757 
" />
<path d="M 2419.156, 2387.116 
	L 2419.156, 2387.116 
	L 2403.291, 2369.550 
	L 2418.281, 2356.013 
	L 2434.145, 2373.580 
	L 2419.156, 2387.116 
" />
<path d="M 2270.385, 2420.475 
	L 2270.384, 2420.476 
	L 2254.425, 2402.805 
	L 2269.415, 2389.268 
	L 2285.374, 2406.939 
	L 2270.384, 2420.476 
" />
<path d="M 2113.109, 2453.835 
	L 2113.109, 2453.835 
	L 2097.055, 2436.059 
	L 2112.044, 2422.523 
	L 2128.098, 2440.299 
	L 2113.109, 2453.835 
" />
<path d="M 1947.330, 2487.194 
	L 1947.329, 2487.195 
	L 1931.181, 2469.313 
	L 1946.170, 2455.777 
	L 1962.319, 2473.659 
	L 1947.329, 2487.195 
" />
<path d="M 1773.047, 2520.555 
	L 1773.046, 2520.555 
	L 1756.802, 2502.568 
	L 1771.792, 2489.031 
	L 1788.036, 2507.018 
	L 1773.046, 2520.555 
" />
<path d="M 1590.260, 2553.914 
	L 1590.259, 2553.915 
	L 1573.920, 2535.823 
	L 1588.910, 2522.286 
	L 1605.249, 2540.378 
	L 1590.259, 2553.915 
" />
<path d="M 1398.969, 2587.274 
	L 1398.968, 2587.274 
	L 1382.534, 2569.077 
	L 1397.524, 2555.540 
	L 1413.958, 2573.738 
	L 1398.968, 2587.274 
" />
<path d="M 1199.174, 2620.633 
	L 1199.173, 2620.634 
	L 1182.644, 2602.331 
	L 1197.634, 2588.795 
	L 1214.162, 2607.098 
	L 1199.173, 2620.634 
" />
<path d="M 990.875, 2653.993 
	L 990.874, 2653.993 
	L 974.250, 2635.586 
	L 989.240, 2622.050 
	L 1005.864, 2640.457 
	L 990.874, 2653.993 
" />
<path d="M 774.072, 2687.353 
	L 774.071, 2687.354 
	L 757.352, 2668.841 
	L 772.342, 2655.304 
	L 789.060, 2673.817 
	L 774.071, 2687.354 
" />
<path d="M 548.765, 2720.712 
	L 548.764, 2720.713 
	L 531.950, 2702.095 
	L 546.940, 2688.558 
	L 563.754, 2707.176 
	L 548.764, 2720.713 
" />
<path d="M 314.954, 2754.072 
	L 314.953, 2754.073 
	L 298.045, 2735.349 
	L 313.034, 2721.813 
	L 329.943, 2740.537 
	L 314.953, 2754.073 
" />
<path d="M 72.639, 2787.432 
	L 72.639, 2787.432 
	L 55.635, 2768.604 
	L 70.624, 2755.068 
	L 87.628, 2773.896 
	L 72.639, 2787.432 
" />
<path d="M 3621.773, 1790.786 
	L 3621.772, 1790.787 
	L 3633.652, 1808.418 
	L 3616.609, 1819.902 
	L 3604.729, 1802.271 
	L 3621.772, 1790.787 
" />
<path d="M 3617.481, 1824.743 
	L 3617.481, 1824.744 
	L 3629.440, 1842.492 
	L 3612.397, 1853.976 
	L 3600.437, 1836.228 
	L 3617.481, 1824.744 
" />
<path d="M 3604.686, 1858.700 
	L 3604.685, 1858.701 
	L 3616.724, 1876.567 
	L 3599.681, 1888.051 
	L 3587.642, 1870.185 
	L 3604.685, 1858.701 
" />
<path d="M 3583.387, 1892.657 
	L 3583.386, 1892.658 
	L 3595.503, 1910.642 
	L 3578.460, 1922.125 
	L 3566.343, 1904.142 
	L 3583.386, 1892.658 
" />
<path d="M 3553.584, 1926.614 
	L 3553.583, 1926.615 
	L 3565.779, 1944.716 
	L 3548.736, 1956.200 
	L 3536.540, 1938.099 
	L 3553.583, 1926.615 
" />
<path d="M 3515.276, 1960.571 
	L 3515.275, 1960.572 
	L 3527.551, 1978.791 
	L 3510.508, 1990.275 
	L 3498.232, 1972.056 
	L 3515.275, 1960.572 
" />
<path d="M 3468.465, 1994.528 
	L 3468.464, 1994.529 
	L 3480.819, 2012.865 
	L 3463.776, 2024.349 
	L 3451.421, 2006.012 
	L 3468.464, 1994.529 
" />
<path d="M 3413.150, 2028.485 
	L 3413.149, 2028.485 
	L 3425.583, 2046.940 
	L 3408.540, 2058.424 
	L 3396.106, 2039.969 
	L 3413.149, 2028.485 
" />
<path d="M 3349.330, 2062.442 
	L 3349.330, 2062.442 
	L 3361.843, 2081.014 
	L 3344.800, 2092.498 
	L 3332.286, 2073.926 
	L 3349.330, 2062.442 
" />
<path d="M 3277.007, 2096.399 
	L 3277.007, 2096.400 
	L 3289.599, 2115.089 
	L 3272.556, 2126.572 
	L 3259.963, 2107.883 
	L 3277.007, 2096.400 
" />
<path d="M 3196.180, 2130.356 
	L 3196.179, 2130.357 
	L 3208.852, 2149.163 
	L 3191.808, 2160.647 
	L 3179.136, 2141.840 
	L 3196.179, 2130.357 
" />
<path d="M 3106.849, 2164.313 
	L 3106.848, 2164.314 
	L 3119.599, 2183.237 
	L 3102.557, 2194.721 
	L 3089.806, 2175.798 
	L 3106.848, 2164.314 
" />
<path d="M 3009.015, 2198.270 
	L 3009.014, 2198.271 
	L 3021.844, 2217.312 
	L 3004.800, 2228.796 
	L 2991.971, 2209.755 
	L 3009.014, 2198.271 
" />
<path d="M 2902.676, 2232.227 
	L 2902.675, 2232.228 
	L 2915.584, 2251.387 
	L 2898.541, 2262.870 
	L 2885.632, 2243.712 
	L 2902.675, 2232.228 
" />
<path d="M 2787.833, 2266.184 
	L 2787.832, 2266.185 
	L 2800.821, 2285.461 
	L 2783.777, 2296.945 
	L 2770.789, 2277.669 
	L 2787.832, 2266.185 
" />
<path d="M 2664.486, 2300.141 
	L 2664.486, 2300.142 
	L 2677.553, 2319.536 
	L 2660.510, 2331.019 
	L 2647.442, 2311.626 
	L 2664.486, 2300.142 
" />
<path d="M 2532.636, 2334.098 
	L 2532.635, 2334.099 
	L 2545.782, 2353.610 
	L 2528.739, 2365.094 
	L 2515.592, 2345.582 
	L 2532.635, 2334.099 
" />
<path d="M 2392.281, 2368.055 
	L 2392.280, 2368.056 
	L 2405.507, 2387.685 
	L 2388.463, 2399.169 
	L 2375.237, 2379.539 
	L 2392.280, 2368.056 
" />
<path d="M 2243.422, 2402.012 
	L 2243.422, 2402.013 
	L 2256.728, 2421.759 
	L 2239.684, 2433.243 
	L 2226.378, 2413.496 
	L 2243.422, 2402.013 
" />
<path d="M 2086.060, 2435.969 
	L 2086.059, 2435.969 
	L 2099.444, 2455.834 
	L 2082.401, 2467.318 
	L 2069.016, 2447.453 
	L 2086.059, 2435.969 
" />
<path d="M 1920.194, 2469.926 
	L 1920.193, 2469.926 
	L 1933.657, 2489.909 
	L 1916.613, 2501.392 
	L 1903.150, 2481.410 
	L 1920.193, 2469.926 
" />
<path d="M 1745.824, 2503.883 
	L 1745.823, 2503.883 
	L 1759.366, 2523.983 
	L 1742.322, 2535.467 
	L 1728.780, 2515.367 
	L 1745.823, 2503.883 
" />
<path d="M 1562.950, 2537.840 
	L 1562.949, 2537.840 
	L 1576.570, 2558.058 
	L 1559.527, 2569.542 
	L 1545.905, 2549.324 
	L 1562.949, 2537.840 
" />
<path d="M 1371.571, 2571.796 
	L 1371.570, 2571.797 
	L 1385.272, 2592.132 
	L 1368.228, 2603.616 
	L 1354.527, 2583.281 
	L 1371.570, 2571.797 
" />
<path d="M 1171.689, 2605.754 
	L 1171.688, 2605.755 
	L 1185.469, 2626.207 
	L 1168.425, 2637.690 
	L 1154.645, 2617.238 
	L 1171.688, 2605.755 
" />
<path d="M 963.303, 2639.711 
	L 963.302, 2639.712 
	L 977.162, 2660.281 
	L 960.119, 2671.765 
	L 946.259, 2651.196 
	L 963.302, 2639.712 
" />
<path d="M 746.413, 2673.668 
	L 746.412, 2673.669 
	L 760.351, 2694.355 
	L 743.308, 2705.839 
	L 729.368, 2685.153 
	L 746.412, 2673.669 
" />
<path d="M 521.019, 2707.625 
	L 521.018, 2707.626 
	L 535.037, 2728.430 
	L 517.993, 2739.914 
	L 503.975, 2719.110 
	L 521.018, 2707.626 
" />
<path d="M 287.121, 2741.582 
	L 287.121, 2741.583 
	L 301.217, 2762.504 
	L 284.174, 2773.988 
	L 270.077, 2753.066 
	L 287.121, 2741.583 
" />
<path d="M 44.720, 2775.539 
	L 44.719, 2775.540 
	L 58.895, 2796.579 
	L 41.851, 2808.063 
	L 27.675, 2787.023 
	L 44.719, 2775.540 
" />
<path d="M 3586.075, 1819.468 
	L 3586.074, 1819.469 
	L 3576.801, 1800.338 
	L 3595.614, 1791.220 
	L 3604.887, 1810.351 
	L 3586.074, 1819.469 
" />
<path d="M 3581.854, 1854.256 
	L 3581.854, 1854.257 
	L 3572.519, 1834.998 
	L 3591.331, 1825.881 
	L 3600.666, 1845.139 
	L 3581.854, 1854.257 
" />
<path d="M 3569.129, 1889.044 
	L 3569.129, 1889.045 
	L 3559.732, 1869.659 
	L 3578.544, 1860.541 
	L 3587.941, 1879.927 
	L 3569.129, 1889.045 
" />
<path d="M 3547.900, 1923.833 
	L 3547.899, 1923.833 
	L 3538.442, 1904.320 
	L 3557.254, 1895.202 
	L 3566.712, 1914.716 
	L 3547.899, 1923.833 
" />
<path d="M 3518.168, 1958.621 
	L 3518.167, 1958.621 
	L 3508.647, 1938.980 
	L 3527.459, 1929.863 
	L 3536.979, 1949.504 
	L 3518.167, 1958.621 
" />
<path d="M 3479.931, 1993.409 
	L 3479.930, 1993.410 
	L 3470.348, 1973.641 
	L 3489.160, 1964.523 
	L 3498.742, 1984.292 
	L 3479.930, 1993.410 
" />
<path d="M 3433.190, 2028.197 
	L 3433.189, 2028.198 
	L 3423.546, 2008.302 
	L 3442.358, 1999.184 
	L 3452.001, 2019.079 
	L 3433.189, 2028.198 
" />
<path d="M 3377.945, 2062.985 
	L 3377.945, 2062.986 
	L 3368.239, 2042.963 
	L 3387.051, 2033.844 
	L 3396.757, 2053.868 
	L 3377.945, 2062.986 
" />
<path d="M 3314.196, 2097.773 
	L 3314.196, 2097.774 
	L 3304.429, 2077.623 
	L 3323.241, 2068.505 
	L 3333.008, 2088.656 
	L 3314.196, 2097.774 
" />
<path d="M 3241.944, 2132.562 
	L 3241.943, 2132.562 
	L 3232.114, 2112.284 
	L 3250.926, 2103.166 
	L 3260.755, 2123.444 
	L 3241.943, 2132.562 
" />
<path d="M 3161.188, 2167.350 
	L 3161.187, 2167.351 
	L 3151.296, 2146.945 
	L 3170.108, 2137.826 
	L 3179.999, 2158.232 
	L 3161.187, 2167.351 
" />
<path d="M 3071.927, 2202.138 
	L 3071.926, 2202.139 
	L 3061.974, 2181.605 
	L 3080.786, 2172.487 
	L 3090.738, 2193.020 
	L 3071.926, 2202.139 
" />
<path d="M 2974.163, 2236.926 
	L 2974.162, 2236.927 
	L 2964.147, 2216.266 
	L 2982.960, 2207.148 
	L 2992.974, 2227.809 
	L 2974.162, 2236.927 
" />
<path d="M 2867.894, 2271.714 
	L 2867.893, 2271.715 
	L 2857.817, 2250.927 
	L 2876.630, 2241.808 
	L 2886.706, 2262.597 
	L 2867.893, 2271.715 
" />
<path d="M 2753.122, 2306.503 
	L 2753.122, 2306.503 
	L 2742.983, 2285.587 
	L 2761.795, 2276.469 
	L 2771.934, 2297.385 
	L 2753.122, 2306.503 
" />
<path d="M 2629.846, 2341.291 
	L 2629.846, 2341.292 
	L 2619.645, 2320.248 
	L 2638.457, 2311.129 
	L 2648.658, 2332.173 
	L 2629.846, 2341.292 
" />
<path d="M 2498.066, 2376.079 
	L 2498.065, 2376.080 
	L 2487.804, 2354.909 
	L 2506.616, 2345.790 
	L 2516.877, 2366.961 
	L 2498.065, 2376.080 
" />
<path d="M 2357.782, 2410.867 
	L 2357.781, 2410.868 
	L 2347.457, 2389.569 
	L 2366.270, 2380.451 
	L 2376.593, 2401.750 
	L 2357.781, 2410.868 
" />
<path d="M 2208.994, 2445.655 
	L 2208.994, 2445.656 
	L 2198.607, 2424.230 
	L 2217.419, 2415.111 
	L 2227.806, 2436.538 
	L 2208.994, 2445.656 
" />
<path d="M 2051.702, 2480.444 
	L 2051.701, 2480.444 
	L 2041.254, 2458.890 
	L 2060.066, 2449.772 
	L 2070.513, 2471.326 
	L 2051.701, 2480.444 
" />
<path d="M 1885.906, 2515.232 
	L 1885.905, 2515.232 
	L 1875.396, 2493.551 
	L 1894.208, 2484.433 
	L 1904.718, 2506.114 
	L 1885.905, 2515.232 
" />
<path d="M 1711.606, 2550.020 
	L 1711.605, 2550.021 
	L 1701.035, 2528.212 
	L 1719.847, 2519.093 
	L 1730.417, 2540.902 
	L 1711.605, 2550.021 
" />
<path d="M 1528.803, 2584.808 
	L 1528.802, 2584.809 
	L 1518.169, 2562.872 
	L 1536.981, 2553.754 
	L 1547.614, 2575.691 
	L 1528.802, 2584.809 
" />
<path d="M 1337.495, 2619.596 
	L 1337.494, 2619.597 
	L 1326.799, 2597.533 
	L 1345.611, 2588.415 
	L 1356.307, 2610.479 
	L 1337.494, 2619.597 
" />
<path d="M 1137.683, 2654.385 
	L 1137.682, 2654.385 
	L 1126.926, 2632.194 
	L 1145.738, 2623.075 
	L 1156.495, 2645.267 
	L 1137.682, 2654.385 
" />
<path d="M 929.368, 2689.173 
	L 929.367, 2689.173 
	L 918.549, 2666.854 
	L 937.361, 2657.736 
	L 948.179, 2680.055 
	L 929.367, 2689.173 
" />
<path d="M 712.548, 2723.961 
	L 712.547, 2723.962 
	L 701.667, 2701.515 
	L 720.480, 2692.396 
	L 731.360, 2714.843 
	L 712.547, 2723.962 
" />
<path d="M 487.225, 2758.749 
	L 487.224, 2758.750 
	L 476.282, 2736.175 
	L 495.094, 2727.057 
	L 506.036, 2749.632 
	L 487.224, 2758.750 
" />
<path d="M 253.398, 2793.537 
	L 253.397, 2793.538 
	L 242.393, 2770.836 
	L 261.205, 2761.718 
	L 272.209, 2784.420 
	L 253.397, 2793.538 
" />
<path d="M 11.066, 2828.326 
	L 11.065, 2828.326 
	L 0.000, 2805.497 
	L 18.812, 2796.378 
	L 29.877, 2819.208 
	L 11.065, 2828.326 
" />
<path d="M 5260.451, 1805.344 
	L 5262.577, 1805.344 
	L 5263.285, 1804.281 
	L 5262.577, 1803.218 
	L 5261.159, 1803.218 
" />
<path d="M 5262.577, 1803.218 
	L 5263.285, 1802.155 
	L 5262.577, 1801.092 
	L 5260.451, 1801.092 
" />
<path d="M 5261.868, 1798.966 
	L 5261.868, 1795.777 
	L 5261.159, 1794.714 
	L 5260.451, 1795.777 
	L 5260.451, 1797.903 
	L 5261.159, 1798.966 
	L 5262.577, 1798.966 
	L 5263.285, 1797.903 
	L 5263.285, 1794.714 
" />
<path d="M 5263.285, 1788.336 
	L 5263.285, 1791.525 
	L 5262.577, 1792.588 
	L 5261.159, 1792.588 
	L 5260.451, 1791.525 
	L 5260.451, 1789.399 
	L 5263.285, 1789.399 
" />
<path d="M 5260.451, 1786.210 
	L 5261.868, 1786.210 
	L 5263.285, 1784.084 
	L 5261.868, 1781.958 
	L 5260.451, 1781.958 
" />
<path d="M 5261.868, 1779.832 
	L 5261.868, 1776.644 
	L 5261.159, 1775.581 
	L 5260.451, 1776.644 
	L 5260.451, 1778.769 
	L 5261.159, 1779.832 
	L 5262.577, 1779.832 
	L 5263.285, 1778.769 
	L 5263.285, 1775.581 
" />
<path d="M 5260.451, 1770.266 
	L 5260.451, 1772.392 
	L 5261.159, 1773.455 
	L 5261.868, 1772.392 
	L 5261.868, 1771.329 
	L 5262.577, 1770.266 
	L 5263.285, 1771.329 
	L 5263.285, 1773.455 
" />
<path d="M 5263.285, 1764.951 
	L 5263.285, 1766.014 
	L 5262.577, 1766.014 
	L 5262.577, 1764.951 
	L 5263.285, 1764.951 
" />
<path d="M 5264.703, 1760.699 
	L 5260.451, 1760.699 
	L 5260.451, 1758.573 
	L 5261.159, 1757.510 
	L 5262.577, 1757.510 
	L 5263.285, 1758.573 
	L 5263.285, 1760.699 
" />
<path d="M 5264.703, 1754.321 
	L 5261.868, 1750.069 
	L 5260.451, 1750.069 
" />
<path d="M 5260.451, 1754.321 
	L 5261.868, 1754.321 
	L 5263.285, 1752.195 
" />
<path d="M 5259.742, 1722.431 
	L 5259.033, 1721.368 
	L 5259.033, 1719.242 
	L 5259.742, 1718.179 
	L 5260.451, 1718.179 
	L 5262.577, 1722.431 
	L 5263.285, 1722.431 
	L 5263.285, 1718.179 
" />
<path d="M 5262.577, 1716.053 
	L 5263.285, 1714.990 
	L 5263.285, 1712.864 
	L 5262.577, 1711.801 
	L 5259.742, 1711.801 
	L 5259.033, 1712.864 
	L 5259.033, 1714.990 
	L 5259.742, 1716.053 
	L 5262.577, 1716.053 
" />
<path d="M 5263.285, 1708.612 
	L 5263.285, 1706.486 
" />
<path d="M 5263.285, 1707.549 
	L 5259.033, 1707.549 
	L 5259.742, 1708.612 
" />
<path d="M 5263.285, 1702.234 
	L 5263.285, 1701.171 
	L 5261.868, 1699.045 
	L 5259.742, 1699.045 
	L 5259.033, 1700.108 
	L 5259.033, 1702.234 
	L 5259.742, 1703.297 
	L 5260.451, 1703.297 
	L 5261.159, 1702.234 
	L 5261.159, 1699.045 
" />
<path d="M 5261.159, 1699.045 
" />
<path d="M 5261.159, 1696.919 
	L 5261.159, 1692.667 
" />
<path d="M 5262.577, 1690.541 
	L 5263.285, 1689.478 
	L 5263.285, 1687.352 
	L 5262.577, 1686.289 
	L 5259.742, 1686.289 
	L 5259.033, 1687.352 
	L 5259.033, 1689.478 
	L 5259.742, 1690.541 
	L 5262.577, 1690.541 
" />
<path d="M 5259.033, 1679.911 
	L 5259.033, 1682.037 
	L 5260.451, 1684.163 
	L 5262.577, 1684.163 
	L 5263.285, 1683.100 
	L 5263.285, 1680.974 
	L 5262.577, 1679.911 
	L 5261.868, 1679.911 
	L 5261.159, 1680.974 
	L 5261.159, 1684.163 
" />
<path d="M 5261.159, 1684.163 
" />
<path d="M 5261.159, 1677.785 
	L 5261.159, 1673.533 
" />
<path d="M 5262.577, 1671.407 
	L 5263.285, 1670.344 
	L 5263.285, 1668.218 
	L 5262.577, 1667.155 
	L 5259.742, 1667.155 
	L 5259.033, 1668.218 
	L 5259.033, 1670.344 
	L 5259.742, 1671.407 
	L 5262.577, 1671.407 
" />
<path d="M 5263.285, 1663.966 
	L 5263.285, 1662.903 
	L 5261.868, 1660.777 
	L 5259.742, 1660.777 
	L 5259.033, 1661.840 
	L 5259.033, 1663.966 
	L 5259.742, 1665.029 
	L 5260.451, 1665.029 
	L 5261.159, 1663.966 
	L 5261.159, 1660.777 
" />
<path d="M 5261.159, 1660.777 
" />
<path d="M 5262.577, 1652.273 
	L 5263.285, 1651.210 
	L 5263.285, 1649.084 
	L 5262.577, 1648.021 
	L 5259.742, 1648.021 
	L 5259.033, 1649.084 
	L 5259.033, 1651.210 
	L 5259.742, 1652.273 
	L 5262.577, 1652.273 
" />
<path d="M 5262.577, 1645.895 
	L 5263.285, 1644.832 
	L 5263.285, 1642.706 
	L 5262.577, 1641.643 
	L 5259.742, 1641.643 
	L 5259.033, 1642.706 
	L 5259.033, 1644.832 
	L 5259.742, 1645.895 
	L 5262.577, 1645.895 
" />
<path d="M 5261.159, 1638.455 
	L 5260.451, 1638.455 
	L 5260.451, 1637.392 
	L 5261.159, 1637.392 
	L 5261.159, 1638.455 
" />
<path d="M 5262.577, 1638.455 
	L 5262.577, 1637.392 
	L 5263.285, 1637.392 
	L 5263.285, 1638.455 
	L 5262.577, 1638.455 
" />
<path d="M 5263.285, 1632.077 
	L 5263.285, 1629.951 
" />
<path d="M 5263.285, 1631.014 
	L 5259.033, 1631.014 
	L 5259.742, 1632.077 
" />
<path d="M 5259.033, 1622.510 
	L 5259.033, 1624.636 
	L 5260.451, 1626.762 
	L 5262.577, 1626.762 
	L 5263.285, 1625.699 
	L 5263.285, 1623.573 
	L 5262.577, 1622.510 
	L 5261.868, 1622.510 
	L 5261.159, 1623.573 
	L 5261.159, 1626.762 
" />
<path d="M 5261.159, 1626.762 
" />
</g>
</svg>
