<?xml version="1.0" encoding="UTF-8" standalone="no" ?>
<svg width="100%" height="100%" viewBox="0 0 1257.166 245.126" xmlns="http://www.w3.org/2000/svg"><g>
</g><g style="stroke:rgb(0,0,0); fill:none; stroke-width:1.000mm" >
</g><g style="stroke:rgb(255,0,0); fill:none; stroke-width:0.100mm" >
<path d="M 114.804, 255.755 
	L 114.803, 255.756 
	L 114.803, 234.496 
	L 128.976, 234.496 
	L 128.976, 255.756 
	L 114.803, 255.756 
" />
<path d="M 113.387, 234.566 
	L 113.386, 234.567 
	L 113.386, 213.165 
	L 127.559, 213.165 
	L 127.559, 234.567 
	L 113.386, 234.567 
" />
<path d="M 109.135, 213.377 
	L 109.134, 213.378 
	L 109.134, 191.835 
	L 123.307, 191.835 
	L 123.307, 213.378 
	L 109.134, 213.378 
" />
<path d="M 102.048, 192.188 
	L 102.047, 192.189 
	L 102.047, 170.504 
	L 116.220, 170.504 
	L 116.220, 192.189 
	L 102.047, 192.189 
" />
<path d="M 92.127, 170.999 
	L 92.126, 171.000 
	L 92.126, 149.173 
	L 106.299, 149.173 
	L 106.299, 171.000 
	L 92.126, 171.000 
" />
<path d="M 79.371, 149.810 
	L 79.370, 149.811 
	L 79.370, 127.843 
	L 93.543, 127.843 
	L 93.543, 149.811 
	L 79.370, 149.811 
" />
<path d="M 63.780, 128.621 
	L 63.780, 128.622 
	L 63.780, 106.512 
	L 77.953, 106.512 
	L 77.953, 128.622 
	L 63.780, 128.622 
" />
<path d="M 45.355, 107.432 
	L 45.354, 107.433 
	L 45.354, 85.181 
	L 59.528, 85.181 
	L 59.528, 107.433 
	L 45.354, 107.433 
" />
<path d="M 24.095, 86.243 
	L 24.094, 86.244 
	L 24.094, 63.850 
	L 38.268, 63.850 
	L 38.268, 86.244 
	L 24.094, 86.244 
" />
<path d="M 0.001, 65.054 
	L 0.000, 65.055 
	L 0.000, 42.520 
	L 14.173, 42.520 
	L 14.173, 65.055 
	L 0.000, 65.055 
" />
<path d="M 142.973, 252.212 
	L 142.972, 252.213 
	L 142.972, 230.953 
	L 157.500, 230.953 
	L 157.500, 252.213 
	L 142.972, 252.213 
" />
<path d="M 141.556, 231.023 
	L 141.555, 231.024 
	L 141.555, 209.622 
	L 156.083, 209.622 
	L 156.083, 231.024 
	L 141.555, 231.024 
" />
<path d="M 137.304, 209.834 
	L 137.303, 209.835 
	L 137.303, 188.291 
	L 151.831, 188.291 
	L 151.831, 209.835 
	L 137.303, 209.835 
" />
<path d="M 130.217, 188.645 
	L 130.217, 188.646 
	L 130.217, 166.961 
	L 144.744, 166.961 
	L 144.744, 188.646 
	L 130.217, 188.646 
" />
<path d="M 120.296, 167.456 
	L 120.295, 167.457 
	L 120.295, 145.630 
	L 134.823, 145.630 
	L 134.823, 167.457 
	L 120.295, 167.457 
" />
<path d="M 107.540, 146.267 
	L 107.539, 146.268 
	L 107.539, 124.299 
	L 122.067, 124.299 
	L 122.067, 146.268 
	L 107.539, 146.268 
" />
<path d="M 91.950, 125.078 
	L 91.949, 125.079 
	L 91.949, 102.969 
	L 106.476, 102.969 
	L 106.476, 125.079 
	L 91.949, 125.079 
" />
<path d="M 73.524, 103.889 
	L 73.524, 103.890 
	L 73.524, 81.638 
	L 88.051, 81.638 
	L 88.051, 103.890 
	L 73.524, 103.890 
" />
<path d="M 52.264, 82.700 
	L 52.264, 82.701 
	L 52.264, 60.307 
	L 66.791, 60.307 
	L 66.791, 82.701 
	L 52.264, 82.701 
" />
<path d="M 28.170, 61.511 
	L 28.169, 61.512 
	L 28.169, 38.976 
	L 42.697, 38.976 
	L 42.697, 61.512 
	L 28.169, 61.512 
" />
<path d="M 171.142, 248.669 
	L 171.142, 248.669 
	L 171.142, 227.409 
	L 186.024, 227.409 
	L 186.024, 248.669 
	L 171.142, 248.669 
" />
<path d="M 169.725, 227.480 
	L 169.724, 227.480 
	L 169.724, 206.079 
	L 184.606, 206.079 
	L 184.606, 227.480 
	L 169.724, 227.480 
" />
<path d="M 165.473, 206.291 
	L 165.472, 206.291 
	L 165.472, 184.748 
	L 180.354, 184.748 
	L 180.354, 206.291 
	L 165.472, 206.291 
" />
<path d="M 158.387, 185.102 
	L 158.386, 185.102 
	L 158.386, 163.417 
	L 173.268, 163.417 
	L 173.268, 185.102 
	L 158.386, 185.102 
" />
<path d="M 148.465, 163.913 
	L 148.465, 163.913 
	L 148.465, 142.087 
	L 163.346, 142.087 
	L 163.346, 163.913 
	L 148.465, 163.913 
" />
<path d="M 135.709, 142.724 
	L 135.709, 142.724 
	L 135.709, 120.756 
	L 150.591, 120.756 
	L 150.591, 142.724 
	L 135.709, 142.724 
" />
<path d="M 120.119, 121.535 
	L 120.118, 121.535 
	L 120.118, 99.425 
	L 135.000, 99.425 
	L 135.000, 121.535 
	L 120.118, 121.535 
" />
<path d="M 101.694, 100.346 
	L 101.693, 100.346 
	L 101.693, 78.095 
	L 116.575, 78.095 
	L 116.575, 100.346 
	L 101.693, 100.346 
" />
<path d="M 80.434, 79.157 
	L 80.433, 79.157 
	L 80.433, 56.764 
	L 95.315, 56.764 
	L 95.315, 79.157 
	L 80.433, 79.157 
" />
<path d="M 56.339, 57.968 
	L 56.339, 57.969 
	L 56.339, 35.433 
	L 71.220, 35.433 
	L 71.220, 57.969 
	L 56.339, 57.969 
" />
<path d="M 199.312, 245.125 
	L 199.311, 245.126 
	L 199.311, 223.866 
	L 214.547, 223.866 
	L 214.547, 245.126 
	L 199.311, 245.126 
" />
<path d="M 197.894, 223.936 
	L 197.894, 223.937 
	L 197.894, 202.535 
	L 213.130, 202.535 
	L 213.130, 223.937 
	L 197.894, 223.937 
" />
<path d="M 193.642, 202.747 
	L 193.642, 202.748 
	L 193.642, 181.205 
	L 208.878, 181.205 
	L 208.878, 202.748 
	L 193.642, 202.748 
" />
<path d="M 186.556, 181.558 
	L 186.555, 181.559 
	L 186.555, 159.874 
	L 201.791, 159.874 
	L 201.791, 181.559 
	L 186.555, 181.559 
" />
<path d="M 176.635, 160.369 
	L 176.634, 160.370 
	L 176.634, 138.543 
	L 191.870, 138.543 
	L 191.870, 160.370 
	L 176.634, 160.370 
" />
<path d="M 163.879, 139.180 
	L 163.878, 139.181 
	L 163.878, 117.213 
	L 179.114, 117.213 
	L 179.114, 139.181 
	L 163.878, 139.181 
" />
<path d="M 148.288, 117.991 
	L 148.287, 117.992 
	L 148.287, 95.882 
	L 163.524, 95.882 
	L 163.524, 117.992 
	L 148.287, 117.992 
" />
<path d="M 129.863, 96.802 
	L 129.862, 96.803 
	L 129.862, 74.551 
	L 145.098, 74.551 
	L 145.098, 96.803 
	L 129.862, 96.803 
" />
<path d="M 108.603, 75.613 
	L 108.602, 75.614 
	L 108.602, 53.220 
	L 123.839, 53.220 
	L 123.839, 75.614 
	L 108.602, 75.614 
" />
<path d="M 84.509, 54.424 
	L 84.508, 54.425 
	L 84.508, 31.890 
	L 99.744, 31.890 
	L 99.744, 54.425 
	L 84.508, 54.425 
" />
<path d="M 227.481, 241.582 
	L 227.480, 241.583 
	L 227.480, 220.323 
	L 243.071, 220.323 
	L 243.071, 241.583 
	L 227.480, 241.583 
" />
<path d="M 226.064, 220.393 
	L 226.063, 220.394 
	L 226.063, 198.992 
	L 241.654, 198.992 
	L 241.654, 220.394 
	L 226.063, 220.394 
" />
<path d="M 221.812, 199.204 
	L 221.811, 199.205 
	L 221.811, 177.661 
	L 237.402, 177.661 
	L 237.402, 199.205 
	L 221.811, 199.205 
" />
<path d="M 214.725, 178.015 
	L 214.724, 178.016 
	L 214.724, 156.331 
	L 230.315, 156.331 
	L 230.315, 178.016 
	L 214.724, 178.016 
" />
<path d="M 204.804, 156.826 
	L 204.803, 156.827 
	L 204.803, 135.000 
	L 220.394, 135.000 
	L 220.394, 156.827 
	L 204.803, 156.827 
" />
<path d="M 192.048, 135.637 
	L 192.047, 135.638 
	L 192.047, 113.669 
	L 207.638, 113.669 
	L 207.638, 135.638 
	L 192.047, 135.638 
" />
<path d="M 176.457, 114.448 
	L 176.457, 114.449 
	L 176.457, 92.339 
	L 192.047, 92.339 
	L 192.047, 114.449 
	L 176.457, 114.449 
" />
<path d="M 158.032, 93.259 
	L 158.032, 93.260 
	L 158.032, 71.008 
	L 173.622, 71.008 
	L 173.622, 93.260 
	L 158.032, 93.260 
" />
<path d="M 136.772, 72.070 
	L 136.772, 72.071 
	L 136.772, 49.677 
	L 152.362, 49.677 
	L 152.362, 72.071 
	L 136.772, 72.071 
" />
<path d="M 112.678, 50.881 
	L 112.677, 50.882 
	L 112.677, 28.346 
	L 128.268, 28.346 
	L 128.268, 50.882 
	L 112.677, 50.882 
" />
<path d="M 255.650, 238.039 
	L 255.650, 238.039 
	L 255.650, 216.780 
	L 271.595, 216.780 
	L 271.595, 238.039 
	L 255.650, 238.039 
" />
<path d="M 254.233, 216.850 
	L 254.232, 216.850 
	L 254.232, 195.449 
	L 270.177, 195.449 
	L 270.177, 216.850 
	L 254.232, 216.850 
" />
<path d="M 249.981, 195.661 
	L 249.980, 195.661 
	L 249.980, 174.118 
	L 265.925, 174.118 
	L 265.925, 195.661 
	L 249.980, 195.661 
" />
<path d="M 242.894, 174.472 
	L 242.894, 174.472 
	L 242.894, 152.787 
	L 258.839, 152.787 
	L 258.839, 174.472 
	L 242.894, 174.472 
" />
<path d="M 232.973, 153.283 
	L 232.972, 153.283 
	L 232.972, 131.457 
	L 248.917, 131.457 
	L 248.917, 153.283 
	L 232.972, 153.283 
" />
<path d="M 220.217, 132.094 
	L 220.217, 132.095 
	L 220.217, 110.126 
	L 236.161, 110.126 
	L 236.161, 132.095 
	L 220.217, 132.095 
" />
<path d="M 204.627, 110.905 
	L 204.626, 110.906 
	L 204.626, 88.795 
	L 220.571, 88.795 
	L 220.571, 110.906 
	L 204.626, 110.906 
" />
<path d="M 186.202, 89.716 
	L 186.201, 89.717 
	L 186.201, 67.465 
	L 202.146, 67.465 
	L 202.146, 89.717 
	L 186.201, 89.717 
" />
<path d="M 164.942, 68.527 
	L 164.941, 68.528 
	L 164.941, 46.134 
	L 180.886, 46.134 
	L 180.886, 68.528 
	L 164.941, 68.528 
" />
<path d="M 140.847, 47.338 
	L 140.846, 47.339 
	L 140.846, 24.803 
	L 156.791, 24.803 
	L 156.791, 47.339 
	L 140.846, 47.339 
" />
<path d="M 283.820, 234.495 
	L 283.819, 234.496 
	L 283.819, 213.236 
	L 300.118, 213.236 
	L 300.118, 234.496 
	L 283.819, 234.496 
" />
<path d="M 282.402, 213.306 
	L 282.402, 213.307 
	L 282.402, 191.906 
	L 298.701, 191.906 
	L 298.701, 213.307 
	L 282.402, 213.307 
" />
<path d="M 278.150, 192.117 
	L 278.150, 192.118 
	L 278.150, 170.575 
	L 294.449, 170.575 
	L 294.449, 192.118 
	L 278.150, 192.118 
" />
<path d="M 271.064, 170.928 
	L 271.063, 170.929 
	L 271.063, 149.244 
	L 287.362, 149.244 
	L 287.362, 170.929 
	L 271.063, 170.929 
" />
<path d="M 261.142, 149.739 
	L 261.142, 149.740 
	L 261.142, 127.913 
	L 277.441, 127.913 
	L 277.441, 149.740 
	L 261.142, 149.740 
" />
<path d="M 248.387, 128.550 
	L 248.386, 128.551 
	L 248.386, 106.583 
	L 264.685, 106.583 
	L 264.685, 128.551 
	L 248.386, 128.551 
" />
<path d="M 232.796, 107.362 
	L 232.795, 107.362 
	L 232.795, 85.252 
	L 249.095, 85.252 
	L 249.095, 107.362 
	L 232.795, 107.362 
" />
<path d="M 214.371, 86.173 
	L 214.370, 86.173 
	L 214.370, 63.921 
	L 230.669, 63.921 
	L 230.669, 86.173 
	L 214.370, 86.173 
" />
<path d="M 193.111, 64.984 
	L 193.110, 64.984 
	L 193.110, 42.591 
	L 209.409, 42.591 
	L 209.409, 64.984 
	L 193.110, 64.984 
" />
<path d="M 169.016, 43.795 
	L 169.016, 43.795 
	L 169.016, 21.260 
	L 185.315, 21.260 
	L 185.315, 43.795 
	L 169.016, 43.795 
" />
<path d="M 311.989, 230.952 
	L 311.988, 230.953 
	L 311.988, 209.693 
	L 328.642, 209.693 
	L 328.642, 230.953 
	L 311.988, 230.953 
" />
<path d="M 310.572, 209.763 
	L 310.571, 209.764 
	L 310.571, 188.362 
	L 327.224, 188.362 
	L 327.224, 209.764 
	L 310.571, 209.764 
" />
<path d="M 306.320, 188.574 
	L 306.319, 188.575 
	L 306.319, 167.032 
	L 322.972, 167.032 
	L 322.972, 188.575 
	L 306.319, 188.575 
" />
<path d="M 299.233, 167.385 
	L 299.232, 167.386 
	L 299.232, 145.701 
	L 315.886, 145.701 
	L 315.886, 167.386 
	L 299.232, 167.386 
" />
<path d="M 289.312, 146.196 
	L 289.311, 146.197 
	L 289.311, 124.370 
	L 305.965, 124.370 
	L 305.965, 146.197 
	L 289.311, 146.197 
" />
<path d="M 276.556, 125.007 
	L 276.555, 125.008 
	L 276.555, 103.039 
	L 293.209, 103.039 
	L 293.209, 125.008 
	L 276.555, 125.008 
" />
<path d="M 260.965, 103.818 
	L 260.965, 103.819 
	L 260.965, 81.709 
	L 277.618, 81.709 
	L 277.618, 103.819 
	L 260.965, 103.819 
" />
<path d="M 242.540, 82.629 
	L 242.539, 82.630 
	L 242.539, 60.378 
	L 259.193, 60.378 
	L 259.193, 82.630 
	L 242.539, 82.630 
" />
<path d="M 221.280, 61.440 
	L 221.280, 61.441 
	L 221.280, 39.047 
	L 237.933, 39.047 
	L 237.933, 61.441 
	L 221.280, 61.441 
" />
<path d="M 197.186, 40.251 
	L 197.185, 40.252 
	L 197.185, 17.717 
	L 213.839, 17.717 
	L 213.839, 40.252 
	L 197.185, 40.252 
" />
<path d="M 340.158, 227.409 
	L 340.158, 227.409 
	L 340.158, 206.150 
	L 357.165, 206.150 
	L 357.165, 227.409 
	L 340.158, 227.409 
" />
<path d="M 338.741, 206.220 
	L 338.740, 206.221 
	L 338.740, 184.819 
	L 355.748, 184.819 
	L 355.748, 206.221 
	L 338.740, 206.221 
" />
<path d="M 334.489, 185.031 
	L 334.488, 185.032 
	L 334.488, 163.488 
	L 351.496, 163.488 
	L 351.496, 185.032 
	L 334.488, 185.032 
" />
<path d="M 327.402, 163.842 
	L 327.402, 163.843 
	L 327.402, 142.158 
	L 344.410, 142.158 
	L 344.410, 163.843 
	L 327.402, 163.843 
" />
<path d="M 317.481, 142.653 
	L 317.480, 142.654 
	L 317.480, 120.827 
	L 334.488, 120.827 
	L 334.488, 142.654 
	L 317.480, 142.654 
" />
<path d="M 304.725, 121.464 
	L 304.724, 121.465 
	L 304.724, 99.496 
	L 321.732, 99.496 
	L 321.732, 121.465 
	L 304.724, 121.465 
" />
<path d="M 289.135, 100.275 
	L 289.134, 100.276 
	L 289.134, 78.165 
	L 306.142, 78.165 
	L 306.142, 100.276 
	L 289.134, 100.276 
" />
<path d="M 270.709, 79.086 
	L 270.709, 79.087 
	L 270.709, 56.835 
	L 287.717, 56.835 
	L 287.717, 79.087 
	L 270.709, 79.087 
" />
<path d="M 249.450, 57.897 
	L 249.449, 57.898 
	L 249.449, 35.504 
	L 266.457, 35.504 
	L 266.457, 57.898 
	L 249.449, 57.898 
" />
<path d="M 225.355, 36.708 
	L 225.354, 36.709 
	L 225.354, 14.173 
	L 242.362, 14.173 
	L 242.362, 36.709 
	L 225.354, 36.709 
" />
<path d="M 368.328, 223.865 
	L 368.327, 223.866 
	L 368.327, 202.606 
	L 385.689, 202.606 
	L 385.689, 223.866 
	L 368.327, 223.866 
" />
<path d="M 366.910, 202.676 
	L 366.910, 202.677 
	L 366.910, 181.276 
	L 384.272, 181.276 
	L 384.272, 202.677 
	L 366.910, 202.677 
" />
<path d="M 362.658, 181.488 
	L 362.658, 181.488 
	L 362.658, 159.945 
	L 380.020, 159.945 
	L 380.020, 181.488 
	L 362.658, 181.488 
" />
<path d="M 355.572, 160.299 
	L 355.571, 160.299 
	L 355.571, 138.614 
	L 372.933, 138.614 
	L 372.933, 160.299 
	L 355.571, 160.299 
" />
<path d="M 345.650, 139.110 
	L 345.650, 139.110 
	L 345.650, 117.283 
	L 363.012, 117.283 
	L 363.012, 139.110 
	L 345.650, 139.110 
" />
<path d="M 332.894, 117.921 
	L 332.894, 117.921 
	L 332.894, 95.953 
	L 350.256, 95.953 
	L 350.256, 117.921 
	L 332.894, 117.921 
" />
<path d="M 317.304, 96.732 
	L 317.303, 96.732 
	L 317.303, 74.622 
	L 334.665, 74.622 
	L 334.665, 96.732 
	L 317.303, 96.732 
" />
<path d="M 298.879, 75.543 
	L 298.878, 75.543 
	L 298.878, 53.291 
	L 316.240, 53.291 
	L 316.240, 75.543 
	L 298.878, 75.543 
" />
<path d="M 277.619, 54.354 
	L 277.618, 54.354 
	L 277.618, 31.961 
	L 294.980, 31.961 
	L 294.980, 54.354 
	L 277.618, 54.354 
" />
<path d="M 253.524, 33.165 
	L 253.524, 33.165 
	L 253.524, 10.630 
	L 270.886, 10.630 
	L 270.886, 33.165 
	L 253.524, 33.165 
" />
<path d="M 1252.914, 245.126 
	L 1255.040, 245.126 
	L 1255.748, 244.063 
	L 1255.040, 243.000 
	L 1253.622, 243.000 
" />
<path d="M 1255.040, 243.000 
	L 1255.748, 241.937 
	L 1255.040, 240.874 
	L 1252.914, 240.874 
" />
<path d="M 1254.331, 238.748 
	L 1254.331, 235.559 
	L 1253.622, 234.496 
	L 1252.914, 235.559 
	L 1252.914, 237.685 
	L 1253.622, 238.748 
	L 1255.040, 238.748 
	L 1255.748, 237.685 
	L 1255.748, 234.496 
" />
<path d="M 1255.748, 228.118 
	L 1255.748, 231.307 
	L 1255.040, 232.370 
	L 1253.622, 232.370 
	L 1252.914, 231.307 
	L 1252.914, 229.181 
	L 1255.748, 229.181 
" />
<path d="M 1252.914, 225.992 
	L 1254.331, 225.992 
	L 1255.748, 223.866 
	L 1254.331, 221.740 
	L 1252.914, 221.740 
" />
<path d="M 1254.331, 219.614 
	L 1254.331, 216.425 
	L 1253.622, 215.362 
	L 1252.914, 216.425 
	L 1252.914, 218.551 
	L 1253.622, 219.614 
	L 1255.040, 219.614 
	L 1255.748, 218.551 
	L 1255.748, 215.362 
" />
<path d="M 1252.914, 210.047 
	L 1252.914, 212.173 
	L 1253.622, 213.236 
	L 1254.331, 212.173 
	L 1254.331, 211.110 
	L 1255.040, 210.047 
	L 1255.748, 211.110 
	L 1255.748, 213.236 
" />
<path d="M 1255.748, 204.732 
	L 1255.748, 205.795 
	L 1255.040, 205.795 
	L 1255.040, 204.732 
	L 1255.748, 204.732 
" />
<path d="M 1257.166, 200.480 
	L 1252.914, 200.480 
	L 1252.914, 198.354 
	L 1253.622, 197.291 
	L 1255.040, 197.291 
	L 1255.748, 198.354 
	L 1255.748, 200.480 
" />
<path d="M 1257.166, 194.102 
	L 1254.331, 189.850 
	L 1252.914, 189.850 
" />
<path d="M 1252.914, 194.102 
	L 1254.331, 194.102 
	L 1255.748, 191.976 
" />
<path d="M 1252.205, 162.213 
	L 1251.496, 161.150 
	L 1251.496, 159.024 
	L 1252.205, 157.961 
	L 1252.914, 157.961 
	L 1255.040, 162.213 
	L 1255.748, 162.213 
	L 1255.748, 157.961 
" />
<path d="M 1255.040, 155.835 
	L 1255.748, 154.772 
	L 1255.748, 152.646 
	L 1255.040, 151.583 
	L 1252.205, 151.583 
	L 1251.496, 152.646 
	L 1251.496, 154.772 
	L 1252.205, 155.835 
	L 1255.040, 155.835 
" />
<path d="M 1255.748, 148.394 
	L 1255.748, 146.268 
" />
<path d="M 1255.748, 147.331 
	L 1251.496, 147.331 
	L 1252.205, 148.394 
" />
<path d="M 1255.748, 142.016 
	L 1255.748, 140.953 
	L 1254.331, 138.827 
	L 1252.205, 138.827 
	L 1251.496, 139.890 
	L 1251.496, 142.016 
	L 1252.205, 143.079 
	L 1252.914, 143.079 
	L 1253.622, 142.016 
	L 1253.622, 138.827 
" />
<path d="M 1253.622, 136.701 
	L 1253.622, 132.449 
" />
<path d="M 1255.040, 130.323 
	L 1255.748, 129.260 
	L 1255.748, 127.134 
	L 1255.040, 126.071 
	L 1252.205, 126.071 
	L 1251.496, 127.134 
	L 1251.496, 129.260 
	L 1252.205, 130.323 
	L 1255.040, 130.323 
" />
<path d="M 1251.496, 119.693 
	L 1251.496, 121.819 
	L 1252.914, 123.945 
	L 1255.040, 123.945 
	L 1255.748, 122.882 
	L 1255.748, 120.756 
	L 1255.040, 119.693 
	L 1254.331, 119.693 
	L 1253.622, 120.756 
	L 1253.622, 123.945 
" />
<path d="M 1253.622, 117.567 
	L 1253.622, 113.315 
" />
<path d="M 1255.040, 111.189 
	L 1255.748, 110.126 
	L 1255.748, 108.000 
	L 1255.040, 106.937 
	L 1252.205, 106.937 
	L 1251.496, 108.000 
	L 1251.496, 110.126 
	L 1252.205, 111.189 
	L 1255.040, 111.189 
" />
<path d="M 1255.748, 103.748 
	L 1255.748, 102.685 
	L 1254.331, 100.559 
	L 1252.205, 100.559 
	L 1251.496, 101.622 
	L 1251.496, 103.748 
	L 1252.205, 104.811 
	L 1252.914, 104.811 
	L 1253.622, 103.748 
	L 1253.622, 100.559 
" />
<path d="M 1255.040, 92.055 
	L 1255.748, 90.992 
	L 1255.748, 88.866 
	L 1255.040, 87.803 
	L 1252.205, 87.803 
	L 1251.496, 88.866 
	L 1251.496, 90.992 
	L 1252.205, 92.055 
	L 1255.040, 92.055 
" />
<path d="M 1255.040, 85.677 
	L 1255.748, 84.614 
	L 1255.748, 82.488 
	L 1255.040, 81.425 
	L 1252.205, 81.425 
	L 1251.496, 82.488 
	L 1251.496, 84.614 
	L 1252.205, 85.677 
	L 1255.040, 85.677 
" />
<path d="M 1253.622, 78.236 
	L 1252.914, 78.236 
	L 1252.914, 77.173 
	L 1253.622, 77.173 
	L 1253.622, 78.236 
" />
<path d="M 1255.040, 78.236 
	L 1255.040, 77.173 
	L 1255.748, 77.173 
	L 1255.748, 78.236 
	L 1255.040, 78.236 
" />
<path d="M 1255.748, 71.858 
	L 1255.748, 69.732 
" />
<path d="M 1255.748, 70.795 
	L 1251.496, 70.795 
	L 1252.205, 71.858 
" />
<path d="M 1255.040, 66.543 
	L 1255.748, 65.480 
	L 1255.748, 63.354 
	L 1255.040, 62.291 
	L 1252.205, 62.291 
	L 1251.496, 63.354 
	L 1251.496, 65.480 
	L 1252.205, 66.543 
	L 1255.040, 66.543 
" />
</g>
</svg>
