<?xml version="1.0" encoding="UTF-8" standalone="no" ?>
<svg width="100%" height="100%" viewBox="0 0 1257.166 218.976" xmlns="http://www.w3.org/2000/svg"><g>
</g><g style="stroke:rgb(0,0,0); fill:none; stroke-width:1.000mm" >
</g><g style="stroke:rgb(255,0,0); fill:none; stroke-width:0.100mm" >
<path d="M 114.804, 229.606 
	L 114.803, 229.606 
	L 114.803, 208.346 
	L 128.976, 208.346 
	L 128.976, 229.606 
	L 114.803, 229.606 
" />
<path d="M 113.387, 208.417 
	L 113.386, 208.417 
	L 113.386, 187.016 
	L 127.559, 187.016 
	L 127.559, 208.417 
	L 113.386, 208.417 
" />
<path d="M 109.135, 187.228 
	L 109.134, 187.228 
	L 109.134, 165.685 
	L 123.307, 165.685 
	L 123.307, 187.228 
	L 109.134, 187.228 
" />
<path d="M 102.048, 166.039 
	L 102.047, 166.039 
	L 102.047, 144.354 
	L 116.220, 144.354 
	L 116.220, 166.039 
	L 102.047, 166.039 
" />
<path d="M 92.127, 144.850 
	L 92.126, 144.850 
	L 92.126, 123.024 
	L 106.299, 123.024 
	L 106.299, 144.850 
	L 92.126, 144.850 
" />
<path d="M 79.371, 123.661 
	L 79.370, 123.661 
	L 79.370, 101.693 
	L 93.543, 101.693 
	L 93.543, 123.661 
	L 79.370, 123.661 
" />
<path d="M 63.780, 102.472 
	L 63.780, 102.472 
	L 63.780, 80.362 
	L 77.953, 80.362 
	L 77.953, 102.472 
	L 63.780, 102.472 
" />
<path d="M 45.355, 81.283 
	L 45.354, 81.283 
	L 45.354, 59.032 
	L 59.528, 59.032 
	L 59.528, 81.283 
	L 45.354, 81.283 
" />
<path d="M 24.095, 60.094 
	L 24.094, 60.094 
	L 24.094, 37.701 
	L 38.268, 37.701 
	L 38.268, 60.094 
	L 24.094, 60.094 
" />
<path d="M 0.001, 38.905 
	L 0.000, 38.906 
	L 0.000, 16.370 
	L 14.173, 16.370 
	L 14.173, 38.906 
	L 0.000, 38.906 
" />
<path d="M 142.973, 229.606 
	L 142.972, 229.606 
	L 142.972, 208.346 
	L 157.500, 208.346 
	L 157.500, 229.606 
	L 142.972, 229.606 
" />
<path d="M 141.556, 208.346 
	L 141.555, 208.346 
	L 141.555, 186.945 
	L 156.083, 186.945 
	L 156.083, 208.346 
	L 141.555, 208.346 
" />
<path d="M 137.304, 187.086 
	L 137.303, 187.087 
	L 137.303, 165.543 
	L 151.831, 165.543 
	L 151.831, 187.087 
	L 137.303, 187.087 
" />
<path d="M 130.217, 165.826 
	L 130.217, 165.827 
	L 130.217, 144.142 
	L 144.744, 144.142 
	L 144.744, 165.827 
	L 130.217, 165.827 
" />
<path d="M 120.296, 144.566 
	L 120.295, 144.567 
	L 120.295, 122.740 
	L 134.823, 122.740 
	L 134.823, 144.567 
	L 120.295, 144.567 
" />
<path d="M 107.540, 123.306 
	L 107.539, 123.307 
	L 107.539, 101.339 
	L 122.067, 101.339 
	L 122.067, 123.307 
	L 107.539, 123.307 
" />
<path d="M 91.950, 102.047 
	L 91.949, 102.047 
	L 91.949, 79.937 
	L 106.476, 79.937 
	L 106.476, 102.047 
	L 91.949, 102.047 
" />
<path d="M 73.524, 80.787 
	L 73.524, 80.787 
	L 73.524, 58.535 
	L 88.051, 58.535 
	L 88.051, 80.787 
	L 73.524, 80.787 
" />
<path d="M 52.264, 59.527 
	L 52.264, 59.528 
	L 52.264, 37.134 
	L 66.791, 37.134 
	L 66.791, 59.528 
	L 52.264, 59.528 
" />
<path d="M 28.170, 38.267 
	L 28.169, 38.268 
	L 28.169, 15.732 
	L 42.697, 15.732 
	L 42.697, 38.268 
	L 28.169, 38.268 
" />
<path d="M 171.142, 229.606 
	L 171.142, 229.606 
	L 171.142, 208.346 
	L 186.024, 208.346 
	L 186.024, 229.606 
	L 171.142, 229.606 
" />
<path d="M 169.725, 208.275 
	L 169.724, 208.276 
	L 169.724, 186.874 
	L 184.606, 186.874 
	L 184.606, 208.276 
	L 169.724, 208.276 
" />
<path d="M 165.473, 186.944 
	L 165.472, 186.945 
	L 165.472, 165.402 
	L 180.354, 165.402 
	L 180.354, 186.945 
	L 165.472, 186.945 
" />
<path d="M 158.387, 165.613 
	L 158.386, 165.614 
	L 158.386, 143.929 
	L 173.268, 143.929 
	L 173.268, 165.614 
	L 158.386, 165.614 
" />
<path d="M 148.465, 144.283 
	L 148.465, 144.283 
	L 148.465, 122.457 
	L 163.346, 122.457 
	L 163.346, 144.283 
	L 148.465, 144.283 
" />
<path d="M 135.709, 122.952 
	L 135.709, 122.953 
	L 135.709, 100.984 
	L 150.591, 100.984 
	L 150.591, 122.953 
	L 135.709, 122.953 
" />
<path d="M 120.119, 101.621 
	L 120.118, 101.622 
	L 120.118, 79.512 
	L 135.000, 79.512 
	L 135.000, 101.622 
	L 120.118, 101.622 
" />
<path d="M 101.694, 80.291 
	L 101.693, 80.291 
	L 101.693, 58.039 
	L 116.575, 58.039 
	L 116.575, 80.291 
	L 101.693, 80.291 
" />
<path d="M 80.434, 58.960 
	L 80.433, 58.961 
	L 80.433, 36.567 
	L 95.315, 36.567 
	L 95.315, 58.961 
	L 80.433, 58.961 
" />
<path d="M 56.339, 37.629 
	L 56.339, 37.630 
	L 56.339, 15.094 
	L 71.220, 15.094 
	L 71.220, 37.630 
	L 56.339, 37.630 
" />
<path d="M 199.312, 229.606 
	L 199.311, 229.606 
	L 199.311, 208.346 
	L 214.547, 208.346 
	L 214.547, 229.606 
	L 199.311, 229.606 
" />
<path d="M 197.894, 208.204 
	L 197.894, 208.205 
	L 197.894, 186.803 
	L 213.130, 186.803 
	L 213.130, 208.205 
	L 197.894, 208.205 
" />
<path d="M 193.642, 186.802 
	L 193.642, 186.803 
	L 193.642, 165.260 
	L 208.878, 165.260 
	L 208.878, 186.803 
	L 193.642, 186.803 
" />
<path d="M 186.556, 165.401 
	L 186.555, 165.402 
	L 186.555, 143.717 
	L 201.791, 143.717 
	L 201.791, 165.402 
	L 186.555, 165.402 
" />
<path d="M 176.635, 143.999 
	L 176.634, 144.000 
	L 176.634, 122.173 
	L 191.870, 122.173 
	L 191.870, 144.000 
	L 176.634, 144.000 
" />
<path d="M 163.879, 122.598 
	L 163.878, 122.598 
	L 163.878, 100.630 
	L 179.114, 100.630 
	L 179.114, 122.598 
	L 163.878, 122.598 
" />
<path d="M 148.288, 101.196 
	L 148.287, 101.197 
	L 148.287, 79.087 
	L 163.524, 79.087 
	L 163.524, 101.197 
	L 148.287, 101.197 
" />
<path d="M 129.863, 79.795 
	L 129.862, 79.795 
	L 129.862, 57.543 
	L 145.098, 57.543 
	L 145.098, 79.795 
	L 129.862, 79.795 
" />
<path d="M 108.603, 58.393 
	L 108.602, 58.394 
	L 108.602, 36.000 
	L 123.839, 36.000 
	L 123.839, 58.394 
	L 108.602, 58.394 
" />
<path d="M 84.509, 36.991 
	L 84.508, 36.992 
	L 84.508, 14.457 
	L 99.744, 14.457 
	L 99.744, 36.992 
	L 84.508, 36.992 
" />
<path d="M 227.481, 229.606 
	L 227.480, 229.606 
	L 227.480, 208.346 
	L 243.071, 208.346 
	L 243.071, 229.606 
	L 227.480, 229.606 
" />
<path d="M 226.064, 208.133 
	L 226.063, 208.134 
	L 226.063, 186.732 
	L 241.654, 186.732 
	L 241.654, 208.134 
	L 226.063, 208.134 
" />
<path d="M 221.812, 186.661 
	L 221.811, 186.661 
	L 221.811, 165.118 
	L 237.402, 165.118 
	L 237.402, 186.661 
	L 221.811, 186.661 
" />
<path d="M 214.725, 165.188 
	L 214.724, 165.189 
	L 214.724, 143.504 
	L 230.315, 143.504 
	L 230.315, 165.189 
	L 214.724, 165.189 
" />
<path d="M 204.804, 143.716 
	L 204.803, 143.717 
	L 204.803, 121.890 
	L 220.394, 121.890 
	L 220.394, 143.717 
	L 204.803, 143.717 
" />
<path d="M 192.048, 122.243 
	L 192.047, 122.244 
	L 192.047, 100.276 
	L 207.638, 100.276 
	L 207.638, 122.244 
	L 192.047, 122.244 
" />
<path d="M 176.457, 100.771 
	L 176.457, 100.772 
	L 176.457, 78.661 
	L 192.047, 78.661 
	L 192.047, 100.772 
	L 176.457, 100.772 
" />
<path d="M 158.032, 79.299 
	L 158.032, 79.299 
	L 158.032, 57.047 
	L 173.622, 57.047 
	L 173.622, 79.299 
	L 158.032, 79.299 
" />
<path d="M 136.772, 57.826 
	L 136.772, 57.827 
	L 136.772, 35.433 
	L 152.362, 35.433 
	L 152.362, 57.827 
	L 136.772, 57.827 
" />
<path d="M 112.678, 36.354 
	L 112.677, 36.354 
	L 112.677, 13.819 
	L 128.268, 13.819 
	L 128.268, 36.354 
	L 112.677, 36.354 
" />
<path d="M 255.650, 229.606 
	L 255.650, 229.606 
	L 255.650, 208.346 
	L 271.595, 208.346 
	L 271.595, 229.606 
	L 255.650, 229.606 
" />
<path d="M 254.233, 208.062 
	L 254.232, 208.063 
	L 254.232, 186.661 
	L 270.177, 186.661 
	L 270.177, 208.063 
	L 254.232, 208.063 
" />
<path d="M 249.981, 186.519 
	L 249.980, 186.520 
	L 249.980, 164.976 
	L 265.925, 164.976 
	L 265.925, 186.520 
	L 249.980, 186.520 
" />
<path d="M 242.894, 164.976 
	L 242.894, 164.976 
	L 242.894, 143.291 
	L 258.839, 143.291 
	L 258.839, 164.976 
	L 242.894, 164.976 
" />
<path d="M 232.973, 143.432 
	L 232.972, 143.433 
	L 232.972, 121.606 
	L 248.917, 121.606 
	L 248.917, 143.433 
	L 232.972, 143.433 
" />
<path d="M 220.217, 121.889 
	L 220.217, 121.890 
	L 220.217, 99.921 
	L 236.161, 99.921 
	L 236.161, 121.890 
	L 220.217, 121.890 
" />
<path d="M 204.627, 100.346 
	L 204.626, 100.346 
	L 204.626, 78.236 
	L 220.571, 78.236 
	L 220.571, 100.346 
	L 204.626, 100.346 
" />
<path d="M 186.202, 78.802 
	L 186.201, 78.803 
	L 186.201, 56.551 
	L 202.146, 56.551 
	L 202.146, 78.803 
	L 186.201, 78.803 
" />
<path d="M 164.942, 57.259 
	L 164.941, 57.260 
	L 164.941, 34.866 
	L 180.886, 34.866 
	L 180.886, 57.260 
	L 164.941, 57.260 
" />
<path d="M 140.847, 35.716 
	L 140.846, 35.717 
	L 140.846, 13.181 
	L 156.791, 13.181 
	L 156.791, 35.717 
	L 140.846, 35.717 
" />
<path d="M 283.820, 229.606 
	L 283.819, 229.606 
	L 283.819, 208.346 
	L 300.118, 208.346 
	L 300.118, 229.606 
	L 283.819, 229.606 
" />
<path d="M 282.402, 207.991 
	L 282.402, 207.992 
	L 282.402, 186.591 
	L 298.701, 186.591 
	L 298.701, 207.992 
	L 282.402, 207.992 
" />
<path d="M 278.150, 186.377 
	L 278.150, 186.378 
	L 278.150, 164.835 
	L 294.449, 164.835 
	L 294.449, 186.378 
	L 278.150, 186.378 
" />
<path d="M 271.064, 164.763 
	L 271.063, 164.764 
	L 271.063, 143.079 
	L 287.362, 143.079 
	L 287.362, 164.764 
	L 271.063, 164.764 
" />
<path d="M 261.142, 143.149 
	L 261.142, 143.150 
	L 261.142, 121.323 
	L 277.441, 121.323 
	L 277.441, 143.150 
	L 261.142, 143.150 
" />
<path d="M 248.387, 121.535 
	L 248.386, 121.535 
	L 248.386, 99.567 
	L 264.685, 99.567 
	L 264.685, 121.535 
	L 248.386, 121.535 
" />
<path d="M 232.796, 99.921 
	L 232.795, 99.921 
	L 232.795, 77.811 
	L 249.095, 77.811 
	L 249.095, 99.921 
	L 232.795, 99.921 
" />
<path d="M 214.371, 78.306 
	L 214.370, 78.307 
	L 214.370, 56.055 
	L 230.669, 56.055 
	L 230.669, 78.307 
	L 214.370, 78.307 
" />
<path d="M 193.111, 56.692 
	L 193.110, 56.693 
	L 193.110, 34.299 
	L 209.409, 34.299 
	L 209.409, 56.693 
	L 193.110, 56.693 
" />
<path d="M 169.016, 35.078 
	L 169.016, 35.079 
	L 169.016, 12.543 
	L 185.315, 12.543 
	L 185.315, 35.079 
	L 169.016, 35.079 
" />
<path d="M 311.989, 229.606 
	L 311.988, 229.606 
	L 311.988, 208.346 
	L 328.642, 208.346 
	L 328.642, 229.606 
	L 311.988, 229.606 
" />
<path d="M 310.572, 207.921 
	L 310.571, 207.921 
	L 310.571, 186.520 
	L 327.224, 186.520 
	L 327.224, 207.921 
	L 310.571, 207.921 
" />
<path d="M 306.320, 186.236 
	L 306.319, 186.236 
	L 306.319, 164.693 
	L 322.972, 164.693 
	L 322.972, 186.236 
	L 306.319, 186.236 
" />
<path d="M 299.233, 164.550 
	L 299.232, 164.551 
	L 299.232, 142.866 
	L 315.886, 142.866 
	L 315.886, 164.551 
	L 299.232, 164.551 
" />
<path d="M 289.312, 142.865 
	L 289.311, 142.866 
	L 289.311, 121.039 
	L 305.965, 121.039 
	L 305.965, 142.866 
	L 289.311, 142.866 
" />
<path d="M 276.556, 121.180 
	L 276.555, 121.181 
	L 276.555, 99.213 
	L 293.209, 99.213 
	L 293.209, 121.181 
	L 276.555, 121.181 
" />
<path d="M 260.965, 99.495 
	L 260.965, 99.496 
	L 260.965, 77.386 
	L 277.618, 77.386 
	L 277.618, 99.496 
	L 260.965, 99.496 
" />
<path d="M 242.540, 77.810 
	L 242.539, 77.811 
	L 242.539, 55.559 
	L 259.193, 55.559 
	L 259.193, 77.811 
	L 242.539, 77.811 
" />
<path d="M 221.280, 56.125 
	L 221.280, 56.126 
	L 221.280, 33.732 
	L 237.933, 33.732 
	L 237.933, 56.126 
	L 221.280, 56.126 
" />
<path d="M 197.186, 34.440 
	L 197.185, 34.441 
	L 197.185, 11.906 
	L 213.839, 11.906 
	L 213.839, 34.441 
	L 197.185, 34.441 
" />
<path d="M 340.158, 229.606 
	L 340.158, 229.606 
	L 340.158, 208.346 
	L 357.165, 208.346 
	L 357.165, 229.606 
	L 340.158, 229.606 
" />
<path d="M 338.741, 207.850 
	L 338.740, 207.850 
	L 338.740, 186.449 
	L 355.748, 186.449 
	L 355.748, 207.850 
	L 338.740, 207.850 
" />
<path d="M 334.489, 186.094 
	L 334.488, 186.095 
	L 334.488, 164.551 
	L 351.496, 164.551 
	L 351.496, 186.095 
	L 334.488, 186.095 
" />
<path d="M 327.402, 164.338 
	L 327.402, 164.339 
	L 327.402, 142.654 
	L 344.410, 142.654 
	L 344.410, 164.339 
	L 327.402, 164.339 
" />
<path d="M 317.481, 142.582 
	L 317.480, 142.583 
	L 317.480, 120.756 
	L 334.488, 120.756 
	L 334.488, 142.583 
	L 317.480, 142.583 
" />
<path d="M 304.725, 120.826 
	L 304.724, 120.827 
	L 304.724, 98.858 
	L 321.732, 98.858 
	L 321.732, 120.827 
	L 304.724, 120.827 
" />
<path d="M 289.135, 99.070 
	L 289.134, 99.071 
	L 289.134, 76.961 
	L 306.142, 76.961 
	L 306.142, 99.071 
	L 289.134, 99.071 
" />
<path d="M 270.709, 77.314 
	L 270.709, 77.315 
	L 270.709, 55.063 
	L 287.717, 55.063 
	L 287.717, 77.315 
	L 270.709, 77.315 
" />
<path d="M 249.450, 55.558 
	L 249.449, 55.559 
	L 249.449, 33.165 
	L 266.457, 33.165 
	L 266.457, 55.559 
	L 249.449, 55.559 
" />
<path d="M 225.355, 33.802 
	L 225.354, 33.803 
	L 225.354, 11.268 
	L 242.362, 11.268 
	L 242.362, 33.803 
	L 225.354, 33.803 
" />
<path d="M 368.328, 229.606 
	L 368.327, 229.606 
	L 368.327, 208.346 
	L 385.689, 208.346 
	L 385.689, 229.606 
	L 368.327, 229.606 
" />
<path d="M 366.910, 207.779 
	L 366.910, 207.780 
	L 366.910, 186.378 
	L 384.272, 186.378 
	L 384.272, 207.780 
	L 366.910, 207.780 
" />
<path d="M 362.658, 185.952 
	L 362.658, 185.953 
	L 362.658, 164.409 
	L 380.020, 164.409 
	L 380.020, 185.953 
	L 362.658, 185.953 
" />
<path d="M 355.572, 164.125 
	L 355.571, 164.126 
	L 355.571, 142.441 
	L 372.933, 142.441 
	L 372.933, 164.126 
	L 355.571, 164.126 
" />
<path d="M 345.650, 142.299 
	L 345.650, 142.299 
	L 345.650, 120.472 
	L 363.012, 120.472 
	L 363.012, 142.299 
	L 345.650, 142.299 
" />
<path d="M 332.894, 120.472 
	L 332.894, 120.472 
	L 332.894, 98.504 
	L 350.256, 98.504 
	L 350.256, 120.472 
	L 332.894, 120.472 
" />
<path d="M 317.304, 98.645 
	L 317.303, 98.646 
	L 317.303, 76.535 
	L 334.665, 76.535 
	L 334.665, 98.646 
	L 317.303, 98.646 
" />
<path d="M 298.879, 76.818 
	L 298.878, 76.819 
	L 298.878, 54.567 
	L 316.240, 54.567 
	L 316.240, 76.819 
	L 298.878, 76.819 
" />
<path d="M 277.619, 54.991 
	L 277.618, 54.992 
	L 277.618, 32.598 
	L 294.980, 32.598 
	L 294.980, 54.992 
	L 277.618, 54.992 
" />
<path d="M 253.524, 33.165 
	L 253.524, 33.165 
	L 253.524, 10.630 
	L 270.886, 10.630 
	L 270.886, 33.165 
	L 253.524, 33.165 
" />
<path d="M 1252.914, 218.976 
	L 1255.040, 218.976 
	L 1255.748, 217.913 
	L 1255.040, 216.850 
	L 1253.622, 216.850 
" />
<path d="M 1255.040, 216.850 
	L 1255.748, 215.787 
	L 1255.040, 214.724 
	L 1252.914, 214.724 
" />
<path d="M 1254.331, 212.598 
	L 1254.331, 209.409 
	L 1253.622, 208.346 
	L 1252.914, 209.409 
	L 1252.914, 211.535 
	L 1253.622, 212.598 
	L 1255.040, 212.598 
	L 1255.748, 211.535 
	L 1255.748, 208.346 
" />
<path d="M 1255.748, 201.969 
	L 1255.748, 205.158 
	L 1255.040, 206.221 
	L 1253.622, 206.221 
	L 1252.914, 205.158 
	L 1252.914, 203.032 
	L 1255.748, 203.032 
" />
<path d="M 1252.914, 199.843 
	L 1254.331, 199.843 
	L 1255.748, 197.717 
	L 1254.331, 195.591 
	L 1252.914, 195.591 
" />
<path d="M 1254.331, 193.465 
	L 1254.331, 190.276 
	L 1253.622, 189.213 
	L 1252.914, 190.276 
	L 1252.914, 192.402 
	L 1253.622, 193.465 
	L 1255.040, 193.465 
	L 1255.748, 192.402 
	L 1255.748, 189.213 
" />
<path d="M 1252.914, 183.898 
	L 1252.914, 186.024 
	L 1253.622, 187.087 
	L 1254.331, 186.024 
	L 1254.331, 184.961 
	L 1255.040, 183.898 
	L 1255.748, 184.961 
	L 1255.748, 187.087 
" />
<path d="M 1255.748, 178.583 
	L 1255.748, 179.646 
	L 1255.040, 179.646 
	L 1255.040, 178.583 
	L 1255.748, 178.583 
" />
<path d="M 1257.166, 174.331 
	L 1252.914, 174.331 
	L 1252.914, 172.205 
	L 1253.622, 171.142 
	L 1255.040, 171.142 
	L 1255.748, 172.205 
	L 1255.748, 174.331 
" />
<path d="M 1257.166, 167.953 
	L 1254.331, 163.701 
	L 1252.914, 163.701 
" />
<path d="M 1252.914, 167.953 
	L 1254.331, 167.953 
	L 1255.748, 165.827 
" />
<path d="M 1252.205, 136.063 
	L 1251.496, 135.000 
	L 1251.496, 132.874 
	L 1252.205, 131.811 
	L 1252.914, 131.811 
	L 1255.040, 136.063 
	L 1255.748, 136.063 
	L 1255.748, 131.811 
" />
<path d="M 1255.040, 129.685 
	L 1255.748, 128.622 
	L 1255.748, 126.496 
	L 1255.040, 125.433 
	L 1252.205, 125.433 
	L 1251.496, 126.496 
	L 1251.496, 128.622 
	L 1252.205, 129.685 
	L 1255.040, 129.685 
" />
<path d="M 1255.748, 122.244 
	L 1255.748, 120.118 
" />
<path d="M 1255.748, 121.181 
	L 1251.496, 121.181 
	L 1252.205, 122.244 
" />
<path d="M 1255.748, 115.866 
	L 1255.748, 114.803 
	L 1254.331, 112.677 
	L 1252.205, 112.677 
	L 1251.496, 113.740 
	L 1251.496, 115.866 
	L 1252.205, 116.929 
	L 1252.914, 116.929 
	L 1253.622, 115.866 
	L 1253.622, 112.677 
" />
<path d="M 1253.622, 110.551 
	L 1253.622, 106.299 
" />
<path d="M 1255.040, 104.173 
	L 1255.748, 103.110 
	L 1255.748, 100.984 
	L 1255.040, 99.921 
	L 1252.205, 99.921 
	L 1251.496, 100.984 
	L 1251.496, 103.110 
	L 1252.205, 104.173 
	L 1255.040, 104.173 
" />
<path d="M 1251.496, 93.543 
	L 1251.496, 95.669 
	L 1252.914, 97.795 
	L 1255.040, 97.795 
	L 1255.748, 96.732 
	L 1255.748, 94.606 
	L 1255.040, 93.543 
	L 1254.331, 93.543 
	L 1253.622, 94.606 
	L 1253.622, 97.795 
" />
<path d="M 1253.622, 91.417 
	L 1253.622, 87.165 
" />
<path d="M 1255.040, 85.039 
	L 1255.748, 83.976 
	L 1255.748, 81.850 
	L 1255.040, 80.787 
	L 1252.205, 80.787 
	L 1251.496, 81.850 
	L 1251.496, 83.976 
	L 1252.205, 85.039 
	L 1255.040, 85.039 
" />
<path d="M 1255.748, 77.598 
	L 1255.748, 76.535 
	L 1254.331, 74.409 
	L 1252.205, 74.409 
	L 1251.496, 75.472 
	L 1251.496, 77.598 
	L 1252.205, 78.661 
	L 1252.914, 78.661 
	L 1253.622, 77.598 
	L 1253.622, 74.409 
" />
<path d="M 1255.040, 65.906 
	L 1255.748, 64.843 
	L 1255.748, 62.717 
	L 1255.040, 61.654 
	L 1252.205, 61.654 
	L 1251.496, 62.717 
	L 1251.496, 64.843 
	L 1252.205, 65.906 
	L 1255.040, 65.906 
" />
<path d="M 1255.040, 59.528 
	L 1255.748, 58.465 
	L 1255.748, 56.339 
	L 1255.040, 55.276 
	L 1252.205, 55.276 
	L 1251.496, 56.339 
	L 1251.496, 58.465 
	L 1252.205, 59.528 
	L 1255.040, 59.528 
" />
<path d="M 1253.622, 52.087 
	L 1252.914, 52.087 
	L 1252.914, 51.024 
	L 1253.622, 51.024 
	L 1253.622, 52.087 
" />
<path d="M 1255.040, 52.087 
	L 1255.040, 51.024 
	L 1255.748, 51.024 
	L 1255.748, 52.087 
	L 1255.040, 52.087 
" />
<path d="M 1255.748, 45.709 
	L 1255.748, 43.583 
" />
<path d="M 1255.748, 44.646 
	L 1251.496, 44.646 
	L 1252.205, 45.709 
" />
<path d="M 1255.748, 39.331 
	L 1255.748, 37.205 
" />
<path d="M 1255.748, 38.268 
	L 1251.496, 38.268 
	L 1252.205, 39.331 
" />
</g>
</svg>
