<?xml version="1.0" encoding="UTF-8" standalone="no" ?>
<svg width="100%" height="100%" viewBox="0 0 1159.897 246.135" xmlns="http://www.w3.org/2000/svg"><g>
</g><g style="stroke:rgb(0,0,0); fill:none; stroke-width:1.000mm" >
</g><g style="stroke:rgb(255,0,0); fill:none; stroke-width:0.100mm" >
<path d="M 17.536, 256.764 
	L 17.535, 256.765 
	L 17.535, 235.505 
	L 31.708, 235.505 
	L 31.708, 256.765 
	L 17.535, 256.765 
" />
<path d="M 37.160, 226.865 
	L 37.159, 226.866 
	L 17.699, 235.772 
	L 11.801, 222.885 
	L 31.261, 213.978 
	L 37.159, 226.866 
" />
<path d="M 20.536, 191.211 
	L 20.535, 191.212 
	L 36.839, 205.293 
	L 27.575, 216.019 
	L 11.271, 201.938 
	L 20.535, 191.212 
" />
<path d="M 13.513, 190.785 
	L 13.512, 190.786 
	L 19.571, 169.965 
	L 33.180, 173.925 
	L 27.121, 194.747 
	L 13.512, 190.786 
" />
<path d="M 34.183, 166.518 
	L 34.182, 166.519 
	L 12.588, 169.695 
	L 10.526, 155.672 
	L 32.120, 152.497 
	L 34.182, 166.519 
" />
<path d="M 21.049, 126.763 
	L 21.049, 126.764 
	L 33.000, 145.197 
	L 21.108, 152.908 
	L 9.157, 134.475 
	L 21.049, 126.764 
" />
<path d="M 7.608, 124.102 
	L 7.607, 124.102 
	L 19.471, 105.445 
	L 31.431, 113.050 
	L 19.568, 131.708 
	L 7.607, 124.102 
" />
<path d="M 27.730, 105.857 
	L 27.729, 105.858 
	L 5.686, 102.815 
	L 7.624, 88.775 
	L 29.667, 91.818 
	L 27.729, 105.858 
" />
<path d="M 19.115, 63.293 
	L 19.114, 63.293 
	L 25.561, 84.739 
	L 11.988, 88.819 
	L 5.541, 67.374 
	L 19.114, 63.293 
" />
<path d="M 0.001, 56.914 
	L 0.000, 56.915 
	L 16.924, 42.034 
	L 26.283, 52.678 
	L 9.359, 67.559 
	L 0.000, 56.915 
" />
<path d="M 53.281, 229.720 
	L 53.280, 229.721 
	L 64.846, 247.560 
	L 52.656, 255.463 
	L 41.090, 237.624 
	L 53.280, 229.721 
" />
<path d="M 40.956, 226.463 
	L 40.955, 226.464 
	L 52.439, 208.405 
	L 64.698, 216.200 
	L 53.214, 234.259 
	L 40.955, 226.464 
" />
<path d="M 62.079, 208.740 
	L 62.079, 208.741 
	L 40.737, 205.795 
	L 42.724, 191.404 
	L 64.065, 194.350 
	L 62.079, 208.741 
" />
<path d="M 55.528, 166.337 
	L 55.527, 166.338 
	L 61.770, 187.104 
	L 47.858, 191.287 
	L 41.615, 170.520 
	L 55.527, 166.338 
" />
<path d="M 37.709, 159.303 
	L 37.709, 159.304 
	L 54.100, 144.892 
	L 63.692, 155.801 
	L 47.301, 170.213 
	L 37.709, 159.304 
" />
<path d="M 56.490, 147.406 
	L 56.489, 147.407 
	L 36.433, 138.441 
	L 42.361, 125.179 
	L 62.417, 134.144 
	L 56.489, 147.407 
" />
<path d="M 55.033, 103.913 
	L 55.032, 103.914 
	L 55.227, 126.023 
	L 40.700, 126.152 
	L 40.504, 104.042 
	L 55.032, 103.914 
" />
<path d="M 32.868, 91.913 
	L 32.867, 91.914 
	L 53.018, 82.475 
	L 59.180, 95.632 
	L 39.029, 105.070 
	L 32.867, 91.914 
" />
<path d="M 47.738, 85.295 
	L 47.737, 85.296 
	L 30.660, 70.809 
	L 40.058, 59.730 
	L 57.134, 74.217 
	L 47.737, 85.296 
" />
<path d="M 51.533, 42.374 
	L 51.532, 42.374 
	L 45.427, 64.067 
	L 31.443, 60.132 
	L 37.548, 38.439 
	L 51.532, 42.374 
" />
<path d="M 87.983, 250.179 
	L 87.982, 250.179 
	L 68.574, 241.504 
	L 74.647, 227.918 
	L 94.056, 236.593 
	L 87.982, 250.179 
" />
<path d="M 88.520, 207.022 
	L 88.519, 207.023 
	L 88.708, 228.423 
	L 73.827, 228.555 
	L 73.638, 207.155 
	L 88.519, 207.023 
" />
<path d="M 67.837, 194.359 
	L 67.837, 194.360 
	L 87.346, 185.221 
	L 93.659, 198.698 
	L 74.149, 207.836 
	L 67.837, 194.360 
" />
<path d="M 83.494, 187.957 
	L 83.493, 187.958 
	L 66.957, 173.929 
	L 76.585, 162.580 
	L 93.121, 176.609 
	L 83.493, 187.958 
" />
<path d="M 89.167, 145.519 
	L 89.166, 145.519 
	L 83.253, 166.530 
	L 68.928, 162.499 
	L 74.841, 141.488 
	L 89.166, 145.519 
" />
<path d="M 65.772, 127.091 
	L 65.771, 127.092 
	L 87.476, 123.703 
	L 89.772, 138.407 
	L 68.066, 141.795 
	L 65.771, 127.092 
" />
<path d="M 76.102, 124.814 
	L 76.101, 124.815 
	L 63.909, 106.370 
	L 76.324, 98.164 
	L 88.516, 116.609 
	L 76.101, 124.815 
" />
<path d="M 86.572, 84.725 
	L 86.571, 84.725 
	L 74.797, 103.608 
	L 62.169, 95.734 
	L 73.942, 76.852 
	L 86.571, 84.725 
" />
<path d="M 62.092, 60.156 
	L 62.092, 60.157 
	L 84.301, 63.023 
	L 82.396, 77.783 
	L 60.187, 74.917 
	L 62.092, 60.157 
" />
<path d="M 66.068, 60.676 
	L 66.067, 60.677 
	L 59.388, 39.154 
	L 73.602, 34.743 
	L 80.281, 56.266 
	L 66.067, 60.677 
" />
<path d="M 97.984, 229.617 
	L 97.983, 229.618 
	L 118.989, 226.339 
	L 121.339, 241.393 
	L 100.334, 244.672 
	L 97.983, 229.618 
" />
<path d="M 109.066, 227.373 
	L 109.065, 227.373 
	L 97.264, 209.519 
	L 109.974, 201.117 
	L 121.775, 218.971 
	L 109.065, 227.373 
" />
<path d="M 121.258, 187.875 
	L 121.258, 187.875 
	L 109.860, 206.157 
	L 96.931, 198.096 
	L 108.329, 179.814 
	L 121.258, 187.875 
" />
<path d="M 98.607, 162.782 
	L 98.607, 162.783 
	L 120.114, 165.558 
	L 118.164, 180.668 
	L 96.657, 177.894 
	L 98.607, 162.783 
" />
<path d="M 103.353, 163.146 
	L 103.352, 163.147 
	L 96.883, 142.301 
	L 111.435, 137.785 
	L 117.904, 158.631 
	L 103.352, 163.147 
" />
<path d="M 119.384, 127.556 
	L 119.383, 127.556 
	L 103.014, 142.209 
	L 92.852, 130.856 
	L 109.222, 116.203 
	L 119.383, 127.556 
" />
<path d="M 97.474, 96.542 
	L 97.474, 96.542 
	L 117.738, 105.386 
	L 111.644, 119.350 
	L 91.379, 110.507 
	L 97.474, 96.542 
" />
<path d="M 95.297, 97.945 
	L 95.297, 97.946 
	L 94.903, 75.697 
	L 110.136, 75.427 
	L 110.530, 97.676 
	L 95.297, 97.946 
" />
<path d="M 113.980, 67.457 
	L 113.980, 67.457 
	L 93.786, 77.136 
	L 87.201, 63.395 
	L 107.395, 53.717 
	L 113.980, 67.457 
" />
<path d="M 94.402, 31.100 
	L 94.401, 31.101 
	L 111.714, 45.527 
	L 101.961, 57.232 
	L 84.647, 42.806 
	L 94.401, 31.101 
" />
<path d="M 151.128, 230.680 
	L 151.127, 230.681 
	L 135.286, 244.860 
	L 124.888, 233.243 
	L 140.729, 219.064 
	L 151.127, 230.681 
" />
<path d="M 131.177, 199.276 
	L 131.176, 199.277 
	L 150.791, 207.838 
	L 144.556, 222.127 
	L 124.941, 213.566 
	L 131.176, 199.277 
" />
<path d="M 129.838, 200.349 
	L 129.837, 200.350 
	L 129.456, 178.810 
	L 145.044, 178.535 
	L 145.425, 200.074 
	L 129.837, 200.350 
" />
<path d="M 149.879, 170.525 
	L 149.878, 170.526 
	L 130.324, 179.898 
	L 123.586, 165.839 
	L 143.140, 156.467 
	L 149.878, 170.526 
" />
<path d="M 132.346, 133.947 
	L 132.345, 133.948 
	L 149.114, 147.920 
	L 139.134, 159.897 
	L 122.365, 145.925 
	L 132.345, 133.948 
" />
<path d="M 124.061, 134.216 
	L 124.060, 134.217 
	L 129.824, 113.018 
	L 144.868, 117.108 
	L 139.105, 138.307 
	L 124.060, 134.217 
" />
<path d="M 145.084, 110.291 
	L 145.083, 110.292 
	L 123.269, 113.896 
	L 120.728, 98.514 
	L 142.542, 94.910 
	L 145.083, 110.292 
" />
<path d="M 131.311, 69.559 
	L 131.310, 69.560 
	L 143.744, 88.014 
	L 130.815, 96.726 
	L 118.381, 78.272 
	L 131.310, 69.560 
" />
<path d="M 116.447, 67.370 
	L 116.446, 67.371 
	L 128.125, 48.264 
	L 141.428, 56.395 
	L 129.748, 75.502 
	L 116.446, 67.371 
" />
<path d="M 136.787, 49.706 
	L 136.786, 49.706 
	L 114.411, 47.020 
	L 116.269, 31.540 
	L 138.644, 34.226 
	L 136.786, 49.706 
" />
<path d="M 155.873, 236.584 
	L 155.872, 236.585 
	L 161.450, 216.069 
	L 176.836, 220.253 
	L 171.258, 240.768 
	L 155.872, 236.585 
" />
<path d="M 178.070, 213.279 
	L 178.070, 213.280 
	L 156.954, 216.769 
	L 154.355, 201.037 
	L 175.470, 197.549 
	L 178.070, 213.280 
" />
<path d="M 166.380, 172.510 
	L 166.380, 172.511 
	L 178.418, 190.377 
	L 165.195, 199.287 
	L 153.157, 181.421 
	L 166.380, 172.511 
" />
<path d="M 152.622, 169.732 
	L 152.622, 169.732 
	L 163.931, 151.230 
	L 177.535, 159.546 
	L 166.226, 178.048 
	L 152.622, 169.732 
" />
<path d="M 173.972, 152.595 
	L 173.971, 152.595 
	L 152.301, 149.994 
	L 154.201, 134.163 
	L 175.872, 136.765 
	L 173.971, 152.595 
" />
<path d="M 167.056, 109.227 
	L 167.056, 109.227 
	L 173.752, 130.151 
	L 158.566, 135.011 
	L 151.870, 114.088 
	L 167.056, 109.227 
" />
<path d="M 147.711, 102.412 
	L 147.711, 102.412 
	L 164.054, 87.521 
	L 174.793, 99.307 
	L 158.450, 114.198 
	L 147.711, 102.412 
" />
<path d="M 166.522, 91.293 
	L 166.521, 91.294 
	L 146.049, 82.575 
	L 152.297, 67.905 
	L 172.770, 76.625 
	L 166.521, 91.294 
" />
<path d="M 164.957, 46.935 
	L 164.956, 46.935 
	L 165.550, 69.321 
	L 149.610, 69.744 
	L 149.016, 47.358 
	L 164.956, 46.935 
" />
<path d="M 141.248, 34.880 
	L 141.247, 34.881 
	L 161.482, 24.962 
	L 168.501, 39.279 
	L 148.265, 49.198 
	L 141.247, 34.881 
" />
<path d="M 199.223, 212.266 
	L 199.222, 212.267 
	L 205.702, 232.515 
	L 190.179, 237.484 
	L 183.699, 217.235 
	L 199.222, 212.267 
" />
<path d="M 181.161, 204.798 
	L 181.160, 204.798 
	L 196.980, 190.384 
	L 207.957, 202.433 
	L 192.138, 216.847 
	L 181.160, 204.798 
" />
<path d="M 200.851, 194.074 
	L 200.850, 194.075 
	L 181.030, 185.632 
	L 187.417, 170.636 
	L 207.237, 179.079 
	L 200.850, 194.075 
" />
<path d="M 201.285, 150.040 
	L 201.284, 150.041 
	L 201.859, 171.718 
	L 185.566, 172.151 
	L 184.990, 150.474 
	L 201.284, 150.041 
" />
<path d="M 179.047, 137.321 
	L 179.046, 137.322 
	L 198.645, 127.715 
	L 205.819, 142.350 
	L 186.221, 151.957 
	L 179.046, 137.322 
" />
<path d="M 194.497, 131.839 
	L 194.496, 131.839 
	L 177.496, 117.926 
	L 187.818, 105.313 
	L 204.819, 119.226 
	L 194.496, 131.839 
" />
<path d="M 200.288, 88.691 
	L 200.287, 88.692 
	L 194.675, 110.078 
	L 178.909, 105.941 
	L 184.521, 84.555 
	L 200.287, 88.692 
" />
<path d="M 175.396, 69.938 
	L 175.395, 69.939 
	L 197.317, 66.117 
	L 200.116, 82.174 
	L 178.194, 85.995 
	L 175.395, 69.939 
" />
<path d="M 185.251, 68.640 
	L 185.250, 68.640 
	L 172.573, 50.180 
	L 186.009, 40.953 
	L 198.686, 59.413 
	L 185.250, 68.640 
" />
<path d="M 196.003, 28.059 
	L 196.002, 28.060 
	L 184.419, 47.391 
	L 170.438, 39.013 
	L 182.021, 19.682 
	L 196.002, 28.060 
" />
<path d="M 226.001, 234.507 
	L 226.000, 234.508 
	L 209.547, 221.044 
	L 220.094, 208.156 
	L 236.547, 221.620 
	L 226.000, 234.508 
" />
<path d="M 233.676, 191.835 
	L 233.675, 191.835 
	L 228.243, 212.536 
	L 212.135, 208.309 
	L 217.568, 187.608 
	L 233.675, 191.835 
" />
<path d="M 210.439, 172.458 
	L 210.438, 172.459 
	L 231.662, 168.759 
	L 234.522, 185.165 
	L 213.298, 188.865 
	L 210.438, 172.459 
" />
<path d="M 221.046, 171.203 
	L 221.046, 171.204 
	L 208.770, 153.328 
	L 222.497, 143.901 
	L 234.773, 161.777 
	L 221.046, 171.204 
" />
<path d="M 233.532, 131.210 
	L 233.531, 131.211 
	L 222.313, 149.934 
	L 208.028, 141.374 
	L 219.246, 122.652 
	L 233.531, 131.211 
" />
<path d="M 209.507, 105.544 
	L 209.506, 105.545 
	L 231.340, 107.970 
	L 229.501, 124.521 
	L 207.668, 122.096 
	L 209.506, 105.545 
" />
<path d="M 213.501, 106.879 
	L 213.500, 106.880 
	L 206.574, 85.882 
	L 222.389, 80.666 
	L 229.315, 101.664 
	L 213.500, 106.880 
" />
<path d="M 229.922, 71.052 
	L 229.922, 71.053 
	L 213.607, 86.184 
	L 202.282, 73.974 
	L 218.597, 58.842 
	L 229.922, 71.053 
" />
<path d="M 206.832, 39.267 
	L 206.831, 39.268 
	L 227.511, 47.860 
	L 221.121, 63.239 
	L 200.441, 54.646 
	L 206.831, 39.268 
" />
<path d="M 203.645, 41.548 
	L 203.644, 41.549 
	L 202.847, 19.028 
	L 219.489, 18.438 
	L 220.287, 40.959 
	L 203.644, 41.549 
" />
<path d="M 241.768, 208.163 
	L 241.767, 208.164 
	L 262.897, 210.510 
	L 261.020, 227.414 
	L 239.890, 225.067 
	L 241.767, 208.164 
" />
<path d="M 246.528, 209.354 
	L 246.528, 209.355 
	L 239.824, 189.030 
	L 255.976, 183.703 
	L 262.680, 204.027 
	L 246.528, 209.355 
" />
<path d="M 264.508, 174.178 
	L 264.507, 174.179 
	L 248.712, 188.829 
	L 237.146, 176.359 
	L 252.941, 161.709 
	L 264.507, 174.179 
" />
<path d="M 243.369, 141.995 
	L 243.368, 141.996 
	L 263.393, 150.316 
	L 256.868, 166.022 
	L 236.842, 157.702 
	L 243.368, 141.996 
" />
<path d="M 241.014, 143.956 
	L 241.014, 143.957 
	L 240.241, 122.143 
	L 257.238, 121.542 
	L 258.011, 143.355 
	L 241.014, 143.957 
" />
<path d="M 261.481, 114.170 
	L 261.481, 114.170 
	L 241.841, 124.014 
	L 234.220, 108.809 
	L 253.860, 98.965 
	L 261.481, 114.170 
" />
<path d="M 243.002, 76.675 
	L 243.001, 76.676 
	L 260.235, 90.527 
	L 249.581, 103.783 
	L 232.347, 89.933 
	L 243.001, 76.676 
" />
<path d="M 233.476, 77.669 
	L 233.476, 77.670 
	L 238.933, 56.098 
	L 255.421, 60.270 
	L 249.964, 81.842 
	L 233.476, 77.670 
" />
<path d="M 254.871, 54.053 
	L 254.870, 54.054 
	L 232.843, 58.095 
	L 229.775, 41.366 
	L 251.802, 37.325 
	L 254.870, 54.054 
" />
<path d="M 240.421, 12.342 
	L 240.420, 12.343 
	L 253.341, 30.806 
	L 239.406, 40.557 
	L 226.485, 22.095 
	L 240.420, 12.343 
" />
<path d="M 293.134, 217.242 
	L 293.133, 217.243 
	L 274.127, 226.770 
	L 266.347, 211.248 
	L 285.353, 201.721 
	L 293.133, 217.243 
" />
<path d="M 276.696, 179.515 
	L 276.695, 179.515 
	L 293.377, 192.922 
	L 282.501, 206.456 
	L 265.819, 193.049 
	L 276.695, 179.515 
" />
<path d="M 268.116, 180.038 
	L 268.115, 180.039 
	L 273.399, 159.154 
	L 290.231, 163.412 
	L 284.947, 184.297 
	L 268.115, 180.039 
" />
<path d="M 290.696, 157.047 
	L 290.695, 157.048 
	L 269.366, 160.961 
	L 266.233, 143.884 
	L 287.563, 139.971 
	L 290.695, 157.048 
" />
<path d="M 278.328, 115.286 
	L 278.327, 115.287 
	L 290.842, 133.170 
	L 276.618, 143.125 
	L 264.103, 125.242 
	L 278.327, 115.287 
" />
<path d="M 263.149, 113.022 
	L 263.149, 113.022 
	L 274.273, 94.078 
	L 289.244, 102.870 
	L 278.121, 121.814 
	L 263.149, 113.022 
" />
<path d="M 284.754, 96.445 
	L 284.754, 96.445 
	L 262.758, 94.200 
	L 264.521, 76.927 
	L 286.518, 79.173 
	L 284.754, 96.445 
" />
<path d="M 277.437, 52.099 
	L 277.437, 52.099 
	L 284.594, 73.169 
	L 268.153, 78.754 
	L 260.996, 57.684 
	L 277.437, 52.099 
" />
<path d="M 256.569, 45.540 
	L 256.568, 45.541 
	L 272.851, 30.168 
	L 284.770, 42.793 
	L 268.487, 58.166 
	L 256.568, 45.541 
" />
<path d="M 275.443, 35.183 
	L 275.443, 35.184 
	L 254.557, 26.722 
	L 261.077, 10.630 
	L 281.962, 19.092 
	L 275.443, 35.184 
" />
<path d="M 1155.646, 246.135 
	L 1157.772, 246.135 
	L 1158.480, 245.072 
	L 1157.772, 244.009 
	L 1156.354, 244.009 
" />
<path d="M 1157.772, 244.009 
	L 1158.480, 242.946 
	L 1157.772, 241.883 
	L 1155.646, 241.883 
" />
<path d="M 1157.063, 239.757 
	L 1157.063, 236.568 
	L 1156.354, 235.505 
	L 1155.646, 236.568 
	L 1155.646, 238.694 
	L 1156.354, 239.757 
	L 1157.772, 239.757 
	L 1158.480, 238.694 
	L 1158.480, 235.505 
" />
<path d="M 1158.480, 229.127 
	L 1158.480, 232.316 
	L 1157.772, 233.379 
	L 1156.354, 233.379 
	L 1155.646, 232.316 
	L 1155.646, 230.190 
	L 1158.480, 230.190 
" />
<path d="M 1155.646, 227.001 
	L 1157.063, 227.001 
	L 1158.480, 224.875 
	L 1157.063, 222.749 
	L 1155.646, 222.749 
" />
<path d="M 1157.063, 220.623 
	L 1157.063, 217.434 
	L 1156.354, 216.371 
	L 1155.646, 217.434 
	L 1155.646, 219.560 
	L 1156.354, 220.623 
	L 1157.772, 220.623 
	L 1158.480, 219.560 
	L 1158.480, 216.371 
" />
<path d="M 1155.646, 211.056 
	L 1155.646, 213.182 
	L 1156.354, 214.245 
	L 1157.063, 213.182 
	L 1157.063, 212.119 
	L 1157.772, 211.056 
	L 1158.480, 212.119 
	L 1158.480, 214.245 
" />
<path d="M 1158.480, 205.741 
	L 1158.480, 206.804 
	L 1157.772, 206.804 
	L 1157.772, 205.741 
	L 1158.480, 205.741 
" />
<path d="M 1159.898, 201.489 
	L 1155.646, 201.489 
	L 1155.646, 199.363 
	L 1156.354, 198.301 
	L 1157.772, 198.301 
	L 1158.480, 199.363 
	L 1158.480, 201.489 
" />
<path d="M 1159.898, 195.112 
	L 1157.063, 190.860 
	L 1155.646, 190.860 
" />
<path d="M 1155.646, 195.112 
	L 1157.063, 195.112 
	L 1158.480, 192.986 
" />
<path d="M 1154.937, 163.222 
	L 1154.228, 162.159 
	L 1154.228, 160.033 
	L 1154.937, 158.970 
	L 1155.646, 158.970 
	L 1157.772, 163.222 
	L 1158.480, 163.222 
	L 1158.480, 158.970 
" />
<path d="M 1157.772, 156.844 
	L 1158.480, 155.781 
	L 1158.480, 153.655 
	L 1157.772, 152.592 
	L 1154.937, 152.592 
	L 1154.228, 153.655 
	L 1154.228, 155.781 
	L 1154.937, 156.844 
	L 1157.772, 156.844 
" />
<path d="M 1158.480, 149.403 
	L 1158.480, 147.277 
" />
<path d="M 1158.480, 148.340 
	L 1154.228, 148.340 
	L 1154.937, 149.403 
" />
<path d="M 1158.480, 143.025 
	L 1158.480, 141.962 
	L 1157.063, 139.836 
	L 1154.937, 139.836 
	L 1154.228, 140.899 
	L 1154.228, 143.025 
	L 1154.937, 144.088 
	L 1155.646, 144.088 
	L 1156.354, 143.025 
	L 1156.354, 139.836 
" />
<path d="M 1156.354, 137.710 
	L 1156.354, 133.458 
" />
<path d="M 1157.772, 131.332 
	L 1158.480, 130.269 
	L 1158.480, 128.143 
	L 1157.772, 127.080 
	L 1154.937, 127.080 
	L 1154.228, 128.143 
	L 1154.228, 130.269 
	L 1154.937, 131.332 
	L 1157.772, 131.332 
" />
<path d="M 1154.228, 120.702 
	L 1154.228, 122.828 
	L 1155.646, 124.954 
	L 1157.772, 124.954 
	L 1158.480, 123.891 
	L 1158.480, 121.765 
	L 1157.772, 120.702 
	L 1157.063, 120.702 
	L 1156.354, 121.765 
	L 1156.354, 124.954 
" />
<path d="M 1156.354, 118.576 
	L 1156.354, 114.324 
" />
<path d="M 1157.772, 112.198 
	L 1158.480, 111.135 
	L 1158.480, 109.009 
	L 1157.772, 107.946 
	L 1154.937, 107.946 
	L 1154.228, 109.009 
	L 1154.228, 111.135 
	L 1154.937, 112.198 
	L 1157.772, 112.198 
" />
<path d="M 1158.480, 104.757 
	L 1158.480, 103.694 
	L 1157.063, 101.568 
	L 1154.937, 101.568 
	L 1154.228, 102.631 
	L 1154.228, 104.757 
	L 1154.937, 105.820 
	L 1155.646, 105.820 
	L 1156.354, 104.757 
	L 1156.354, 101.568 
" />
<path d="M 1157.772, 93.064 
	L 1158.480, 92.001 
	L 1158.480, 89.875 
	L 1157.772, 88.812 
	L 1154.937, 88.812 
	L 1154.228, 89.875 
	L 1154.228, 92.001 
	L 1154.937, 93.064 
	L 1157.772, 93.064 
" />
<path d="M 1157.772, 86.686 
	L 1158.480, 85.623 
	L 1158.480, 83.497 
	L 1157.772, 82.434 
	L 1154.937, 82.434 
	L 1154.228, 83.497 
	L 1154.228, 85.623 
	L 1154.937, 86.686 
	L 1157.772, 86.686 
" />
<path d="M 1156.354, 79.245 
	L 1155.646, 79.245 
	L 1155.646, 78.182 
	L 1156.354, 78.182 
	L 1156.354, 79.245 
" />
<path d="M 1157.772, 79.245 
	L 1157.772, 78.182 
	L 1158.480, 78.182 
	L 1158.480, 79.245 
	L 1157.772, 79.245 
" />
<path d="M 1157.772, 73.930 
	L 1158.480, 72.867 
	L 1158.480, 70.741 
	L 1157.772, 69.678 
	L 1154.937, 69.678 
	L 1154.228, 70.741 
	L 1154.228, 72.867 
	L 1154.937, 73.930 
	L 1157.772, 73.930 
" />
<path d="M 1158.480, 66.489 
	L 1158.480, 65.426 
	L 1157.063, 63.300 
	L 1154.937, 63.300 
	L 1154.228, 64.363 
	L 1154.228, 66.489 
	L 1154.937, 67.552 
	L 1155.646, 67.552 
	L 1156.354, 66.489 
	L 1156.354, 63.300 
" />
</g>
</svg>
