<?xml version="1.0" encoding="UTF-8" standalone="no" ?>
<svg width="100%" height="100%" viewBox="0 0 1161.173 246.135" xmlns="http://www.w3.org/2000/svg"><g>
</g><g style="stroke:rgb(0,0,0); fill:none; stroke-width:1.000mm" >
</g><g style="stroke:rgb(255,0,0); fill:none; stroke-width:0.100mm" >
<path d="M 18.811, 256.764 
	L 18.811, 256.765 
	L 18.811, 235.505 
	L 32.984, 235.505 
	L 32.984, 256.765 
	L 18.811, 256.765 
" />
<path d="M 37.160, 226.865 
	L 37.159, 226.866 
	L 17.699, 235.772 
	L 11.801, 222.885 
	L 31.261, 213.978 
	L 37.159, 226.866 
" />
<path d="M 19.543, 191.211 
	L 19.543, 191.212 
	L 35.847, 205.293 
	L 26.583, 216.019 
	L 10.278, 201.938 
	L 19.543, 191.212 
" />
<path d="M 11.812, 190.785 
	L 11.811, 190.786 
	L 17.870, 169.965 
	L 31.479, 173.925 
	L 25.420, 194.747 
	L 11.811, 190.786 
" />
<path d="M 32.057, 166.518 
	L 32.056, 166.519 
	L 10.462, 169.695 
	L 8.400, 155.672 
	L 29.994, 152.497 
	L 32.056, 166.519 
" />
<path d="M 18.782, 126.763 
	L 18.781, 126.764 
	L 30.733, 145.197 
	L 18.840, 152.908 
	L 6.889, 134.475 
	L 18.781, 126.764 
" />
<path d="M 5.482, 124.102 
	L 5.481, 124.102 
	L 17.345, 105.445 
	L 29.305, 113.050 
	L 17.442, 131.708 
	L 5.481, 124.102 
" />
<path d="M 26.029, 105.857 
	L 26.028, 105.858 
	L 3.986, 102.815 
	L 5.924, 88.775 
	L 27.967, 91.818 
	L 26.028, 105.858 
" />
<path d="M 18.123, 63.293 
	L 18.122, 63.293 
	L 24.569, 84.739 
	L 10.996, 88.819 
	L 4.549, 67.374 
	L 18.122, 63.293 
" />
<path d="M 0.001, 56.914 
	L 0.000, 56.915 
	L 16.924, 42.034 
	L 26.283, 52.678 
	L 9.359, 67.559 
	L 0.000, 56.915 
" />
<path d="M 54.556, 229.720 
	L 54.556, 229.721 
	L 66.122, 247.560 
	L 53.932, 255.463 
	L 42.366, 237.624 
	L 54.556, 229.721 
" />
<path d="M 40.956, 226.463 
	L 40.955, 226.464 
	L 52.439, 208.405 
	L 64.698, 216.200 
	L 53.214, 234.259 
	L 40.955, 226.464 
" />
<path d="M 61.087, 208.740 
	L 61.087, 208.741 
	L 39.745, 205.795 
	L 41.732, 191.404 
	L 63.073, 194.350 
	L 61.087, 208.741 
" />
<path d="M 53.827, 166.337 
	L 53.826, 166.338 
	L 60.070, 187.104 
	L 46.157, 191.287 
	L 39.914, 170.520 
	L 53.826, 166.338 
" />
<path d="M 35.583, 159.303 
	L 35.583, 159.304 
	L 51.974, 144.892 
	L 61.566, 155.801 
	L 45.175, 170.213 
	L 35.583, 159.304 
" />
<path d="M 54.222, 147.406 
	L 54.221, 147.407 
	L 34.165, 138.441 
	L 40.093, 125.179 
	L 60.149, 134.144 
	L 54.221, 147.407 
" />
<path d="M 52.907, 103.913 
	L 52.906, 103.914 
	L 53.101, 126.023 
	L 38.574, 126.152 
	L 38.378, 104.042 
	L 52.906, 103.914 
" />
<path d="M 31.167, 91.913 
	L 31.166, 91.914 
	L 51.317, 82.475 
	L 57.479, 95.632 
	L 37.328, 105.070 
	L 31.166, 91.914 
" />
<path d="M 46.745, 85.295 
	L 46.745, 85.296 
	L 29.668, 70.809 
	L 39.066, 59.730 
	L 56.142, 74.217 
	L 46.745, 85.296 
" />
<path d="M 51.533, 42.374 
	L 51.532, 42.374 
	L 45.427, 64.067 
	L 31.443, 60.132 
	L 37.548, 38.439 
	L 51.532, 42.374 
" />
<path d="M 89.259, 250.179 
	L 89.258, 250.179 
	L 69.849, 241.504 
	L 75.922, 227.918 
	L 95.331, 236.593 
	L 89.258, 250.179 
" />
<path d="M 88.520, 207.022 
	L 88.519, 207.023 
	L 88.708, 228.423 
	L 73.827, 228.555 
	L 73.638, 207.155 
	L 88.519, 207.023 
" />
<path d="M 66.845, 194.359 
	L 66.844, 194.360 
	L 86.354, 185.221 
	L 92.667, 198.698 
	L 73.157, 207.836 
	L 66.844, 194.360 
" />
<path d="M 81.793, 187.957 
	L 81.792, 187.958 
	L 65.256, 173.929 
	L 74.884, 162.580 
	L 91.420, 176.609 
	L 81.792, 187.958 
" />
<path d="M 87.041, 145.519 
	L 87.040, 145.519 
	L 81.127, 166.530 
	L 66.802, 162.499 
	L 72.715, 141.488 
	L 87.040, 145.519 
" />
<path d="M 63.504, 127.091 
	L 63.503, 127.092 
	L 85.209, 123.703 
	L 87.504, 138.407 
	L 65.799, 141.795 
	L 63.503, 127.092 
" />
<path d="M 73.976, 124.814 
	L 73.975, 124.815 
	L 61.783, 106.370 
	L 74.198, 98.164 
	L 86.390, 116.609 
	L 73.975, 124.815 
" />
<path d="M 84.871, 84.725 
	L 84.870, 84.725 
	L 73.096, 103.608 
	L 60.468, 95.734 
	L 72.242, 76.852 
	L 84.870, 84.725 
" />
<path d="M 61.100, 60.156 
	L 61.099, 60.157 
	L 83.309, 63.023 
	L 81.404, 77.783 
	L 59.194, 74.917 
	L 61.099, 60.157 
" />
<path d="M 66.068, 60.676 
	L 66.067, 60.677 
	L 59.388, 39.154 
	L 73.602, 34.743 
	L 80.281, 56.266 
	L 66.067, 60.677 
" />
<path d="M 99.259, 229.617 
	L 99.259, 229.618 
	L 120.264, 226.339 
	L 122.615, 241.393 
	L 101.609, 244.672 
	L 99.259, 229.618 
" />
<path d="M 109.066, 227.373 
	L 109.065, 227.373 
	L 97.264, 209.519 
	L 109.974, 201.117 
	L 121.775, 218.971 
	L 109.065, 227.373 
" />
<path d="M 120.266, 187.875 
	L 120.266, 187.875 
	L 108.867, 206.157 
	L 95.939, 198.096 
	L 107.337, 179.814 
	L 120.266, 187.875 
" />
<path d="M 96.907, 162.782 
	L 96.906, 162.783 
	L 118.413, 165.558 
	L 116.464, 180.668 
	L 94.956, 177.894 
	L 96.906, 162.783 
" />
<path d="M 101.227, 163.146 
	L 101.226, 163.147 
	L 94.757, 142.301 
	L 109.309, 137.785 
	L 115.778, 158.631 
	L 101.226, 163.147 
" />
<path d="M 117.116, 127.556 
	L 117.116, 127.556 
	L 100.746, 142.209 
	L 90.585, 130.856 
	L 106.954, 116.203 
	L 117.116, 127.556 
" />
<path d="M 95.348, 96.542 
	L 95.348, 96.542 
	L 115.612, 105.386 
	L 109.518, 119.350 
	L 89.253, 110.507 
	L 95.348, 96.542 
" />
<path d="M 93.596, 97.945 
	L 93.596, 97.946 
	L 93.202, 75.697 
	L 108.435, 75.427 
	L 108.829, 97.676 
	L 93.596, 97.946 
" />
<path d="M 112.988, 67.457 
	L 112.988, 67.457 
	L 92.794, 77.136 
	L 86.209, 63.395 
	L 106.403, 53.717 
	L 112.988, 67.457 
" />
<path d="M 94.401, 31.100 
	L 94.401, 31.101 
	L 111.714, 45.527 
	L 101.961, 57.232 
	L 84.647, 42.806 
	L 94.401, 31.101 
" />
<path d="M 152.403, 230.680 
	L 152.403, 230.681 
	L 136.562, 244.860 
	L 126.164, 233.243 
	L 142.004, 219.064 
	L 152.403, 230.681 
" />
<path d="M 131.177, 199.276 
	L 131.176, 199.277 
	L 150.791, 207.838 
	L 144.556, 222.127 
	L 124.941, 213.566 
	L 131.176, 199.277 
" />
<path d="M 128.846, 200.349 
	L 128.845, 200.350 
	L 128.464, 178.810 
	L 144.052, 178.535 
	L 144.433, 200.074 
	L 128.845, 200.350 
" />
<path d="M 148.178, 170.525 
	L 148.178, 170.526 
	L 128.623, 179.898 
	L 121.885, 165.839 
	L 141.440, 156.467 
	L 148.178, 170.526 
" />
<path d="M 130.220, 133.947 
	L 130.219, 133.948 
	L 146.988, 147.920 
	L 137.008, 159.897 
	L 120.239, 145.925 
	L 130.219, 133.948 
" />
<path d="M 121.793, 134.216 
	L 121.793, 134.217 
	L 127.556, 113.018 
	L 142.600, 117.108 
	L 136.837, 138.307 
	L 121.793, 134.217 
" />
<path d="M 142.958, 110.291 
	L 142.957, 110.292 
	L 121.143, 113.896 
	L 118.602, 98.514 
	L 140.416, 94.910 
	L 142.957, 110.292 
" />
<path d="M 129.610, 69.559 
	L 129.609, 69.560 
	L 142.043, 88.014 
	L 129.115, 96.726 
	L 116.680, 78.272 
	L 129.609, 69.560 
" />
<path d="M 115.454, 67.370 
	L 115.454, 67.371 
	L 127.133, 48.264 
	L 140.435, 56.395 
	L 128.756, 75.502 
	L 115.454, 67.371 
" />
<path d="M 136.787, 49.706 
	L 136.786, 49.706 
	L 114.411, 47.020 
	L 116.269, 31.540 
	L 138.644, 34.226 
	L 136.786, 49.706 
" />
<path d="M 157.149, 236.584 
	L 157.148, 236.585 
	L 162.726, 216.069 
	L 178.111, 220.253 
	L 172.534, 240.768 
	L 157.148, 236.585 
" />
<path d="M 178.070, 213.279 
	L 178.070, 213.280 
	L 156.954, 216.769 
	L 154.355, 201.037 
	L 175.470, 197.549 
	L 178.070, 213.280 
" />
<path d="M 165.388, 172.510 
	L 165.387, 172.511 
	L 177.425, 190.377 
	L 164.203, 199.287 
	L 152.164, 181.421 
	L 165.387, 172.511 
" />
<path d="M 150.922, 169.732 
	L 150.921, 169.732 
	L 162.230, 151.230 
	L 175.834, 159.546 
	L 164.525, 178.048 
	L 150.921, 169.732 
" />
<path d="M 171.846, 152.595 
	L 171.845, 152.595 
	L 150.175, 149.994 
	L 152.075, 134.163 
	L 173.746, 136.765 
	L 171.845, 152.595 
" />
<path d="M 164.789, 109.227 
	L 164.788, 109.227 
	L 171.484, 130.151 
	L 156.298, 135.011 
	L 149.602, 114.088 
	L 164.788, 109.227 
" />
<path d="M 145.585, 102.412 
	L 145.585, 102.412 
	L 161.928, 87.521 
	L 172.667, 99.307 
	L 156.324, 114.198 
	L 145.585, 102.412 
" />
<path d="M 164.821, 91.293 
	L 164.820, 91.294 
	L 144.348, 82.575 
	L 150.596, 67.905 
	L 171.069, 76.625 
	L 164.820, 91.294 
" />
<path d="M 163.964, 46.935 
	L 163.964, 46.935 
	L 164.558, 69.321 
	L 148.618, 69.744 
	L 148.024, 47.358 
	L 163.964, 46.935 
" />
<path d="M 141.248, 34.880 
	L 141.247, 34.881 
	L 161.482, 24.962 
	L 168.501, 39.279 
	L 148.265, 49.198 
	L 141.247, 34.881 
" />
<path d="M 200.499, 212.266 
	L 200.498, 212.267 
	L 206.978, 232.515 
	L 191.454, 237.484 
	L 184.974, 217.235 
	L 200.498, 212.267 
" />
<path d="M 181.161, 204.798 
	L 181.160, 204.798 
	L 196.980, 190.384 
	L 207.957, 202.433 
	L 192.138, 216.847 
	L 181.160, 204.798 
" />
<path d="M 199.859, 194.074 
	L 199.858, 194.075 
	L 180.038, 185.632 
	L 186.425, 170.636 
	L 206.245, 179.079 
	L 199.858, 194.075 
" />
<path d="M 199.584, 150.040 
	L 199.583, 150.041 
	L 200.159, 171.718 
	L 183.865, 172.151 
	L 183.290, 150.474 
	L 199.583, 150.041 
" />
<path d="M 176.921, 137.321 
	L 176.920, 137.322 
	L 196.519, 127.715 
	L 203.693, 142.350 
	L 184.095, 151.957 
	L 176.920, 137.322 
" />
<path d="M 192.229, 131.839 
	L 192.229, 131.839 
	L 175.228, 117.926 
	L 185.550, 105.313 
	L 202.551, 119.226 
	L 192.229, 131.839 
" />
<path d="M 198.162, 88.691 
	L 198.161, 88.692 
	L 192.549, 110.078 
	L 176.783, 105.941 
	L 182.395, 84.555 
	L 198.161, 88.692 
" />
<path d="M 173.695, 69.938 
	L 173.694, 69.939 
	L 195.616, 66.117 
	L 198.415, 82.174 
	L 176.494, 85.995 
	L 173.694, 69.939 
" />
<path d="M 184.259, 68.640 
	L 184.258, 68.640 
	L 171.581, 50.180 
	L 185.017, 40.953 
	L 197.694, 59.413 
	L 184.258, 68.640 
" />
<path d="M 196.003, 28.059 
	L 196.002, 28.060 
	L 184.419, 47.391 
	L 170.438, 39.013 
	L 182.021, 19.682 
	L 196.002, 28.060 
" />
<path d="M 227.276, 234.507 
	L 227.276, 234.508 
	L 210.823, 221.044 
	L 221.370, 208.156 
	L 237.823, 221.620 
	L 227.276, 234.508 
" />
<path d="M 233.676, 191.835 
	L 233.675, 191.835 
	L 228.243, 212.536 
	L 212.135, 208.309 
	L 217.568, 187.608 
	L 233.675, 191.835 
" />
<path d="M 209.447, 172.458 
	L 209.446, 172.459 
	L 230.670, 168.759 
	L 233.529, 185.165 
	L 212.306, 188.865 
	L 209.446, 172.459 
" />
<path d="M 219.346, 171.203 
	L 219.345, 171.204 
	L 207.069, 153.328 
	L 220.796, 143.901 
	L 233.072, 161.777 
	L 219.345, 171.204 
" />
<path d="M 231.406, 131.210 
	L 231.405, 131.211 
	L 220.187, 149.934 
	L 205.902, 141.374 
	L 217.120, 122.652 
	L 231.405, 131.211 
" />
<path d="M 207.239, 105.544 
	L 207.238, 105.545 
	L 229.072, 107.970 
	L 227.234, 124.521 
	L 205.400, 122.096 
	L 207.238, 105.545 
" />
<path d="M 211.375, 106.879 
	L 211.374, 106.880 
	L 204.448, 85.882 
	L 220.263, 80.666 
	L 227.189, 101.664 
	L 211.374, 106.880 
" />
<path d="M 228.222, 71.052 
	L 228.221, 71.053 
	L 211.906, 86.184 
	L 200.582, 73.974 
	L 216.896, 58.842 
	L 228.221, 71.053 
" />
<path d="M 205.840, 39.267 
	L 205.839, 39.268 
	L 226.519, 47.860 
	L 220.129, 63.239 
	L 199.449, 54.646 
	L 205.839, 39.268 
" />
<path d="M 203.644, 41.548 
	L 203.644, 41.549 
	L 202.847, 19.028 
	L 219.489, 18.438 
	L 220.287, 40.959 
	L 203.644, 41.549 
" />
<path d="M 243.043, 208.163 
	L 243.043, 208.164 
	L 264.173, 210.510 
	L 262.295, 227.414 
	L 241.165, 225.067 
	L 243.043, 208.164 
" />
<path d="M 246.528, 209.354 
	L 246.528, 209.355 
	L 239.824, 189.030 
	L 255.976, 183.703 
	L 262.680, 204.027 
	L 246.528, 209.355 
" />
<path d="M 263.516, 174.178 
	L 263.515, 174.179 
	L 247.720, 188.829 
	L 236.154, 176.359 
	L 251.949, 161.709 
	L 263.515, 174.179 
" />
<path d="M 241.668, 141.995 
	L 241.667, 141.996 
	L 261.692, 150.316 
	L 255.167, 166.022 
	L 235.142, 157.702 
	L 241.667, 141.996 
" />
<path d="M 238.888, 143.956 
	L 238.888, 143.957 
	L 238.115, 122.143 
	L 255.112, 121.542 
	L 255.885, 143.355 
	L 238.888, 143.957 
" />
<path d="M 259.213, 114.170 
	L 259.213, 114.170 
	L 239.573, 124.014 
	L 231.952, 108.809 
	L 251.592, 98.965 
	L 259.213, 114.170 
" />
<path d="M 240.876, 76.675 
	L 240.875, 76.676 
	L 258.109, 90.527 
	L 247.455, 103.783 
	L 230.221, 89.933 
	L 240.875, 76.676 
" />
<path d="M 231.776, 77.669 
	L 231.775, 77.670 
	L 237.232, 56.098 
	L 253.721, 60.270 
	L 248.263, 81.842 
	L 231.775, 77.670 
" />
<path d="M 253.879, 54.053 
	L 253.878, 54.054 
	L 231.851, 58.095 
	L 228.783, 41.366 
	L 250.809, 37.325 
	L 253.878, 54.054 
" />
<path d="M 240.420, 12.342 
	L 240.420, 12.343 
	L 253.341, 30.806 
	L 239.406, 40.557 
	L 226.485, 22.095 
	L 240.420, 12.343 
" />
<path d="M 294.409, 217.242 
	L 294.408, 217.243 
	L 275.402, 226.770 
	L 267.622, 211.248 
	L 286.629, 201.721 
	L 294.408, 217.243 
" />
<path d="M 276.696, 179.515 
	L 276.695, 179.515 
	L 293.377, 192.922 
	L 282.501, 206.456 
	L 265.819, 193.049 
	L 276.695, 179.515 
" />
<path d="M 267.124, 180.038 
	L 267.123, 180.039 
	L 272.407, 159.154 
	L 289.239, 163.412 
	L 283.955, 184.297 
	L 267.123, 180.039 
" />
<path d="M 288.995, 157.047 
	L 288.994, 157.048 
	L 267.665, 160.961 
	L 264.533, 143.884 
	L 285.862, 139.971 
	L 288.994, 157.048 
" />
<path d="M 276.202, 115.286 
	L 276.201, 115.287 
	L 288.716, 133.170 
	L 274.492, 143.125 
	L 261.977, 125.242 
	L 276.201, 115.287 
" />
<path d="M 260.882, 113.022 
	L 260.881, 113.022 
	L 272.005, 94.078 
	L 286.977, 102.870 
	L 275.853, 121.814 
	L 260.881, 113.022 
" />
<path d="M 282.628, 96.445 
	L 282.628, 96.445 
	L 260.632, 94.200 
	L 262.395, 76.927 
	L 284.392, 79.173 
	L 282.628, 96.445 
" />
<path d="M 275.737, 52.099 
	L 275.736, 52.099 
	L 282.893, 73.169 
	L 266.452, 78.754 
	L 259.296, 57.684 
	L 275.736, 52.099 
" />
<path d="M 255.577, 45.540 
	L 255.576, 45.541 
	L 271.859, 30.168 
	L 283.778, 42.793 
	L 267.495, 58.166 
	L 255.576, 45.541 
" />
<path d="M 275.443, 35.183 
	L 275.443, 35.184 
	L 254.557, 26.722 
	L 261.077, 10.630 
	L 281.962, 19.092 
	L 275.443, 35.184 
" />
<path d="M 1156.921, 246.135 
	L 1159.047, 246.135 
	L 1159.756, 245.072 
	L 1159.047, 244.009 
	L 1157.630, 244.009 
" />
<path d="M 1159.047, 244.009 
	L 1159.756, 242.946 
	L 1159.047, 241.883 
	L 1156.921, 241.883 
" />
<path d="M 1158.338, 239.757 
	L 1158.338, 236.568 
	L 1157.630, 235.505 
	L 1156.921, 236.568 
	L 1156.921, 238.694 
	L 1157.630, 239.757 
	L 1159.047, 239.757 
	L 1159.756, 238.694 
	L 1159.756, 235.505 
" />
<path d="M 1159.756, 229.127 
	L 1159.756, 232.316 
	L 1159.047, 233.379 
	L 1157.630, 233.379 
	L 1156.921, 232.316 
	L 1156.921, 230.190 
	L 1159.756, 230.190 
" />
<path d="M 1156.921, 227.001 
	L 1158.338, 227.001 
	L 1159.756, 224.875 
	L 1158.338, 222.749 
	L 1156.921, 222.749 
" />
<path d="M 1158.338, 220.623 
	L 1158.338, 217.434 
	L 1157.630, 216.371 
	L 1156.921, 217.434 
	L 1156.921, 219.560 
	L 1157.630, 220.623 
	L 1159.047, 220.623 
	L 1159.756, 219.560 
	L 1159.756, 216.371 
" />
<path d="M 1156.921, 211.056 
	L 1156.921, 213.182 
	L 1157.630, 214.245 
	L 1158.338, 213.182 
	L 1158.338, 212.119 
	L 1159.047, 211.056 
	L 1159.756, 212.119 
	L 1159.756, 214.245 
" />
<path d="M 1159.756, 205.741 
	L 1159.756, 206.804 
	L 1159.047, 206.804 
	L 1159.047, 205.741 
	L 1159.756, 205.741 
" />
<path d="M 1161.173, 201.489 
	L 1156.921, 201.489 
	L 1156.921, 199.363 
	L 1157.630, 198.301 
	L 1159.047, 198.301 
	L 1159.756, 199.363 
	L 1159.756, 201.489 
" />
<path d="M 1161.173, 195.112 
	L 1158.338, 190.860 
	L 1156.921, 190.860 
" />
<path d="M 1156.921, 195.112 
	L 1158.338, 195.112 
	L 1159.756, 192.986 
" />
<path d="M 1156.212, 163.222 
	L 1155.504, 162.159 
	L 1155.504, 160.033 
	L 1156.212, 158.970 
	L 1156.921, 158.970 
	L 1159.047, 163.222 
	L 1159.756, 163.222 
	L 1159.756, 158.970 
" />
<path d="M 1159.047, 156.844 
	L 1159.756, 155.781 
	L 1159.756, 153.655 
	L 1159.047, 152.592 
	L 1156.212, 152.592 
	L 1155.504, 153.655 
	L 1155.504, 155.781 
	L 1156.212, 156.844 
	L 1159.047, 156.844 
" />
<path d="M 1159.756, 149.403 
	L 1159.756, 147.277 
" />
<path d="M 1159.756, 148.340 
	L 1155.504, 148.340 
	L 1156.212, 149.403 
" />
<path d="M 1159.756, 143.025 
	L 1159.756, 141.962 
	L 1158.338, 139.836 
	L 1156.212, 139.836 
	L 1155.504, 140.899 
	L 1155.504, 143.025 
	L 1156.212, 144.088 
	L 1156.921, 144.088 
	L 1157.630, 143.025 
	L 1157.630, 139.836 
" />
<path d="M 1157.630, 137.710 
	L 1157.630, 133.458 
" />
<path d="M 1159.047, 131.332 
	L 1159.756, 130.269 
	L 1159.756, 128.143 
	L 1159.047, 127.080 
	L 1156.212, 127.080 
	L 1155.504, 128.143 
	L 1155.504, 130.269 
	L 1156.212, 131.332 
	L 1159.047, 131.332 
" />
<path d="M 1155.504, 120.702 
	L 1155.504, 122.828 
	L 1156.921, 124.954 
	L 1159.047, 124.954 
	L 1159.756, 123.891 
	L 1159.756, 121.765 
	L 1159.047, 120.702 
	L 1158.338, 120.702 
	L 1157.630, 121.765 
	L 1157.630, 124.954 
" />
<path d="M 1157.630, 118.576 
	L 1157.630, 114.324 
" />
<path d="M 1159.047, 112.198 
	L 1159.756, 111.135 
	L 1159.756, 109.009 
	L 1159.047, 107.946 
	L 1156.212, 107.946 
	L 1155.504, 109.009 
	L 1155.504, 111.135 
	L 1156.212, 112.198 
	L 1159.047, 112.198 
" />
<path d="M 1159.756, 104.757 
	L 1159.756, 103.694 
	L 1158.338, 101.568 
	L 1156.212, 101.568 
	L 1155.504, 102.631 
	L 1155.504, 104.757 
	L 1156.212, 105.820 
	L 1156.921, 105.820 
	L 1157.630, 104.757 
	L 1157.630, 101.568 
" />
<path d="M 1159.047, 93.064 
	L 1159.756, 92.001 
	L 1159.756, 89.875 
	L 1159.047, 88.812 
	L 1156.212, 88.812 
	L 1155.504, 89.875 
	L 1155.504, 92.001 
	L 1156.212, 93.064 
	L 1159.047, 93.064 
" />
<path d="M 1159.047, 86.686 
	L 1159.756, 85.623 
	L 1159.756, 83.497 
	L 1159.047, 82.434 
	L 1156.212, 82.434 
	L 1155.504, 83.497 
	L 1155.504, 85.623 
	L 1156.212, 86.686 
	L 1159.047, 86.686 
" />
<path d="M 1157.630, 79.245 
	L 1156.921, 79.245 
	L 1156.921, 78.182 
	L 1157.630, 78.182 
	L 1157.630, 79.245 
" />
<path d="M 1159.047, 79.245 
	L 1159.047, 78.182 
	L 1159.756, 78.182 
	L 1159.756, 79.245 
	L 1159.047, 79.245 
" />
<path d="M 1159.047, 73.930 
	L 1159.756, 72.867 
	L 1159.756, 70.741 
	L 1159.047, 69.678 
	L 1156.212, 69.678 
	L 1155.504, 70.741 
	L 1155.504, 72.867 
	L 1156.212, 73.930 
	L 1159.047, 73.930 
" />
<path d="M 1159.756, 66.489 
	L 1159.756, 65.426 
	L 1158.338, 63.300 
	L 1156.212, 63.300 
	L 1155.504, 64.363 
	L 1155.504, 66.489 
	L 1156.212, 67.552 
	L 1156.921, 67.552 
	L 1157.630, 66.489 
	L 1157.630, 63.300 
" />
</g>
</svg>
