<?xml version="1.0" encoding="UTF-8" standalone="no" ?>
<svg width="100%" height="100%" viewBox="0 0 496.063 354.331" xmlns="http://www.w3.org/2000/svg"><g>
</g><g style="stroke:rgb(0,0,0); fill:none; stroke-width:1.000mm" >
</g><g style="stroke:rgb(0,0,0); fill:none; stroke-width:0.100mm" >
<path d="M 0.001, 354.330 
	L 0.000, 354.331 
	L 0.000, 0.000 
	L 496.063, 0.000 
	L 496.063, 354.331 
	L 0.000, 354.331 
" />
</g><g style="stroke:rgb(255,0,0); fill:none; stroke-width:0.100mm" >
<path d="M 361.205, 159.519 
	L 361.205, 159.520 
" />
<path d="M 361.205, 159.519 
	L 361.205, 159.520 
	L 358.108, 130.052 
" />
<path d="M 358.109, 130.051 
	L 358.108, 130.052 
	L 348.951, 101.872 
" />
<path d="M 348.952, 101.872 
	L 348.951, 101.872 
	L 334.136, 76.212 
" />
<path d="M 334.137, 76.211 
	L 334.136, 76.212 
" />
<path d="M 334.137, 76.211 
	L 334.136, 76.212 
	L 314.310, 54.192 
" />
<path d="M 314.310, 54.191 
	L 314.310, 54.192 
" />
<path d="M 314.310, 54.191 
	L 314.310, 54.192 
	L 290.339, 36.776 
" />
<path d="M 290.339, 36.775 
	L 290.339, 36.776 
	L 263.270, 24.725 
" />
<path d="M 263.271, 24.724 
	L 263.270, 24.725 
	L 234.288, 18.564 
" />
<path d="M 234.288, 18.563 
	L 234.288, 18.564 
" />
<path d="M 234.288, 18.563 
	L 234.288, 18.564 
" />
<path d="M 234.288, 18.563 
	L 234.288, 18.564 
" />
<path d="M 234.288, 18.563 
	L 234.288, 18.564 
	L 204.657, 18.564 
" />
<path d="M 204.658, 18.563 
	L 204.657, 18.564 
" />
<path d="M 204.658, 18.563 
	L 204.657, 18.564 
	L 175.675, 24.725 
" />
<path d="M 175.676, 24.724 
	L 175.675, 24.725 
" />
<path d="M 175.676, 24.724 
	L 175.675, 24.725 
	L 148.606, 36.776 
" />
<path d="M 148.607, 36.775 
	L 148.606, 36.776 
	L 124.635, 54.192 
" />
<path d="M 124.636, 54.191 
	L 124.635, 54.192 
" />
<path d="M 124.636, 54.191 
	L 124.635, 54.192 
	L 104.809, 76.212 
" />
<path d="M 104.810, 76.211 
	L 104.809, 76.212 
	L 89.994, 101.872 
" />
<path d="M 89.994, 101.872 
	L 89.994, 101.872 
	L 80.837, 130.052 
" />
<path d="M 80.838, 130.051 
	L 80.837, 130.052 
	L 77.740, 159.520 
" />
<path d="M 77.741, 159.519 
	L 77.740, 159.520 
" />
<path d="M 77.741, 159.519 
	L 77.740, 159.520 
	L 80.837, 188.987 
" />
<path d="M 80.838, 188.987 
	L 80.837, 188.987 
" />
<path d="M 80.838, 188.987 
	L 80.837, 188.987 
" />
<path d="M 80.838, 188.987 
	L 80.837, 188.987 
" />
<path d="M 80.838, 188.987 
	L 80.837, 188.987 
	L 89.994, 217.167 
" />
<path d="M 89.994, 217.166 
	L 89.994, 217.167 
	L 104.809, 242.828 
" />
<path d="M 104.810, 242.827 
	L 104.809, 242.828 
	L 124.635, 264.847 
" />
<path d="M 124.636, 264.847 
	L 124.635, 264.847 
" />
<path d="M 124.636, 264.847 
	L 124.635, 264.847 
" />
<path d="M 124.636, 264.847 
	L 124.635, 264.847 
" />
<path d="M 124.636, 264.847 
	L 124.635, 264.847 
" />
<path d="M 124.636, 264.847 
	L 124.635, 264.847 
	L 148.606, 282.263 
" />
<path d="M 148.607, 282.263 
	L 148.606, 282.263 
	L 175.675, 294.315 
" />
<path d="M 175.676, 294.314 
	L 175.675, 294.315 
" />
<path d="M 175.676, 294.314 
	L 175.675, 294.315 
	L 204.657, 300.475 
" />
<path d="M 204.658, 300.475 
	L 204.657, 300.475 
	L 234.288, 300.475 
" />
<path d="M 234.288, 300.475 
	L 234.288, 300.475 
" />
<path d="M 234.288, 300.475 
	L 234.288, 300.475 
	L 263.270, 294.315 
" />
<path d="M 263.271, 294.314 
	L 263.270, 294.315 
" />
<path d="M 263.271, 294.314 
	L 263.270, 294.315 
	L 290.339, 282.263 
" />
<path d="M 290.339, 282.263 
	L 290.339, 282.263 
" />
<path d="M 290.339, 282.263 
	L 290.339, 282.263 
" />
<path d="M 290.339, 282.263 
	L 290.339, 282.263 
" />
<path d="M 290.339, 282.263 
	L 290.339, 282.263 
" />
<path d="M 290.339, 282.263 
	L 290.339, 282.263 
	L 314.310, 264.847 
" />
<path d="M 314.310, 264.847 
	L 314.310, 264.847 
" />
<path d="M 314.310, 264.847 
	L 314.310, 264.847 
	L 334.136, 242.828 
" />
<path d="M 334.137, 242.827 
	L 334.136, 242.828 
	L 348.951, 217.167 
" />
<path d="M 348.952, 217.166 
	L 348.951, 217.167 
" />
<path d="M 348.952, 217.166 
	L 348.951, 217.167 
" />
<path d="M 348.952, 217.166 
	L 348.951, 217.167 
" />
<path d="M 348.952, 217.166 
	L 348.951, 217.167 
" />
<path d="M 348.952, 217.166 
	L 348.951, 217.167 
" />
<path d="M 348.952, 217.166 
	L 348.951, 217.167 
" />
<path d="M 348.952, 217.166 
	L 348.951, 217.167 
	L 358.108, 188.987 
" />
<path d="M 358.109, 188.987 
	L 358.108, 188.987 
	L 361.205, 159.520 
" />
<path d="M 360.568, 158.385 
	L 360.567, 158.386 
	L 357.491, 129.125 
" />
<path d="M 357.492, 129.124 
	L 357.491, 129.125 
" />
<path d="M 357.492, 129.124 
	L 357.491, 129.125 
	L 348.399, 101.142 
" />
<path d="M 348.400, 101.141 
	L 348.399, 101.142 
" />
<path d="M 348.400, 101.141 
	L 348.399, 101.142 
" />
<path d="M 348.400, 101.141 
	L 348.399, 101.142 
" />
<path d="M 348.400, 101.141 
	L 348.399, 101.142 
	L 333.688, 75.661 
" />
<path d="M 333.689, 75.660 
	L 333.688, 75.661 
" />
<path d="M 333.689, 75.660 
	L 333.688, 75.661 
" />
<path d="M 333.689, 75.660 
	L 333.688, 75.661 
" />
<path d="M 333.689, 75.660 
	L 333.688, 75.661 
" />
<path d="M 333.689, 75.660 
	L 333.688, 75.661 
	L 314.000, 53.795 
" />
<path d="M 314.001, 53.795 
	L 314.000, 53.795 
" />
<path d="M 314.001, 53.795 
	L 314.000, 53.795 
	L 290.197, 36.501 
" />
<path d="M 290.198, 36.500 
	L 290.197, 36.501 
" />
<path d="M 290.198, 36.500 
	L 290.197, 36.501 
	L 263.318, 24.534 
" />
<path d="M 263.319, 24.533 
	L 263.318, 24.534 
" />
<path d="M 263.319, 24.533 
	L 263.318, 24.534 
" />
<path d="M 263.319, 24.533 
	L 263.318, 24.534 
	L 234.538, 18.417 
" />
<path d="M 234.539, 18.416 
	L 234.538, 18.417 
" />
<path d="M 234.539, 18.416 
	L 234.538, 18.417 
" />
<path d="M 234.539, 18.416 
	L 234.538, 18.417 
" />
<path d="M 234.539, 18.416 
	L 234.538, 18.417 
" />
<path d="M 234.539, 18.416 
	L 234.538, 18.417 
	L 205.116, 18.417 
" />
<path d="M 205.116, 18.416 
	L 205.116, 18.417 
" />
<path d="M 205.116, 18.416 
	L 205.116, 18.417 
" />
<path d="M 205.116, 18.416 
	L 205.116, 18.417 
" />
<path d="M 205.116, 18.416 
	L 205.116, 18.417 
" />
<path d="M 205.116, 18.416 
	L 205.116, 18.417 
	L 176.336, 24.534 
" />
<path d="M 176.336, 24.533 
	L 176.336, 24.534 
	L 149.457, 36.501 
" />
<path d="M 149.457, 36.500 
	L 149.457, 36.501 
	L 125.653, 53.795 
" />
<path d="M 125.654, 53.795 
	L 125.653, 53.795 
	L 105.965, 75.661 
" />
<path d="M 105.966, 75.660 
	L 105.965, 75.661 
" />
<path d="M 105.966, 75.660 
	L 105.965, 75.661 
	L 91.254, 101.142 
" />
<path d="M 91.255, 101.141 
	L 91.254, 101.142 
" />
<path d="M 91.255, 101.141 
	L 91.254, 101.142 
	L 82.162, 129.125 
" />
<path d="M 82.163, 129.124 
	L 82.162, 129.125 
	L 79.087, 158.386 
" />
<path d="M 79.087, 158.385 
	L 79.087, 158.386 
	L 82.162, 187.647 
" />
<path d="M 82.163, 187.646 
	L 82.162, 187.647 
" />
<path d="M 82.163, 187.646 
	L 82.162, 187.647 
	L 91.254, 215.630 
" />
<path d="M 91.255, 215.629 
	L 91.254, 215.630 
	L 105.965, 241.111 
" />
<path d="M 105.966, 241.110 
	L 105.965, 241.111 
	L 125.653, 262.977 
" />
<path d="M 125.654, 262.976 
	L 125.653, 262.977 
	L 149.457, 280.271 
" />
<path d="M 149.457, 280.270 
	L 149.457, 280.271 
" />
<path d="M 149.457, 280.270 
	L 149.457, 280.271 
" />
<path d="M 149.457, 280.270 
	L 149.457, 280.271 
" />
<path d="M 149.457, 280.270 
	L 149.457, 280.271 
" />
<path d="M 149.457, 280.270 
	L 149.457, 280.271 
	L 176.336, 292.238 
" />
<path d="M 176.336, 292.237 
	L 176.336, 292.238 
" />
<path d="M 176.336, 292.237 
	L 176.336, 292.238 
" />
<path d="M 176.336, 292.237 
	L 176.336, 292.238 
" />
<path d="M 176.336, 292.237 
	L 176.336, 292.238 
	L 205.116, 298.355 
" />
<path d="M 205.116, 298.354 
	L 205.116, 298.355 
	L 234.538, 298.355 
" />
<path d="M 234.539, 298.354 
	L 234.538, 298.355 
	L 263.318, 292.238 
" />
<path d="M 263.319, 292.237 
	L 263.318, 292.238 
	L 290.197, 280.271 
" />
<path d="M 290.198, 280.270 
	L 290.197, 280.271 
	L 314.000, 262.977 
" />
<path d="M 314.001, 262.976 
	L 314.000, 262.977 
" />
<path d="M 314.001, 262.976 
	L 314.000, 262.977 
	L 333.688, 241.111 
" />
<path d="M 333.689, 241.110 
	L 333.688, 241.111 
" />
<path d="M 333.689, 241.110 
	L 333.688, 241.111 
" />
<path d="M 333.689, 241.110 
	L 333.688, 241.111 
	L 348.399, 215.630 
" />
<path d="M 348.400, 215.629 
	L 348.399, 215.630 
	L 357.491, 187.647 
" />
<path d="M 357.492, 187.646 
	L 357.491, 187.647 
	L 360.567, 158.386 
" />
<path d="M 362.984, 160.157 
	L 362.984, 160.158 
	L 359.929, 131.101 
" />
<path d="M 359.930, 131.100 
	L 359.929, 131.101 
	L 350.901, 103.314 
" />
<path d="M 350.902, 103.314 
	L 350.901, 103.314 
" />
<path d="M 350.902, 103.314 
	L 350.901, 103.314 
" />
<path d="M 350.902, 103.314 
	L 350.901, 103.314 
" />
<path d="M 350.902, 103.314 
	L 350.901, 103.314 
" />
<path d="M 350.902, 103.314 
	L 350.901, 103.314 
" />
<path d="M 350.902, 103.314 
	L 350.901, 103.314 
	L 336.292, 78.012 
" />
<path d="M 336.293, 78.011 
	L 336.292, 78.012 
	L 316.743, 56.300 
" />
<path d="M 316.743, 56.299 
	L 316.743, 56.300 
" />
<path d="M 316.743, 56.299 
	L 316.743, 56.300 
	L 293.106, 39.126 
" />
<path d="M 293.107, 39.125 
	L 293.106, 39.126 
" />
<path d="M 293.107, 39.125 
	L 293.106, 39.126 
" />
<path d="M 293.107, 39.125 
	L 293.106, 39.126 
" />
<path d="M 293.107, 39.125 
	L 293.106, 39.126 
	L 266.415, 27.242 
" />
<path d="M 266.416, 27.242 
	L 266.415, 27.242 
	L 237.837, 21.168 
" />
<path d="M 237.837, 21.168 
	L 237.837, 21.168 
	L 208.620, 21.168 
" />
<path d="M 208.621, 21.168 
	L 208.620, 21.168 
" />
<path d="M 208.621, 21.168 
	L 208.620, 21.168 
	L 180.042, 27.242 
" />
<path d="M 180.043, 27.242 
	L 180.042, 27.242 
" />
<path d="M 180.043, 27.242 
	L 180.042, 27.242 
" />
<path d="M 180.043, 27.242 
	L 180.042, 27.242 
	L 153.351, 39.126 
" />
<path d="M 153.352, 39.125 
	L 153.351, 39.126 
" />
<path d="M 153.352, 39.125 
	L 153.351, 39.126 
" />
<path d="M 153.352, 39.125 
	L 153.351, 39.126 
" />
<path d="M 153.352, 39.125 
	L 153.351, 39.126 
	L 129.714, 56.300 
" />
<path d="M 129.715, 56.299 
	L 129.714, 56.300 
" />
<path d="M 129.715, 56.299 
	L 129.714, 56.300 
" />
<path d="M 129.715, 56.299 
	L 129.714, 56.300 
	L 110.164, 78.012 
" />
<path d="M 110.165, 78.011 
	L 110.164, 78.012 
" />
<path d="M 110.165, 78.011 
	L 110.164, 78.012 
	L 95.556, 103.314 
" />
<path d="M 95.557, 103.314 
	L 95.556, 103.314 
	L 86.528, 131.101 
" />
<path d="M 86.528, 131.100 
	L 86.528, 131.101 
	L 83.473, 160.158 
" />
<path d="M 83.474, 160.157 
	L 83.473, 160.158 
	L 86.528, 189.214 
" />
<path d="M 86.528, 189.213 
	L 86.528, 189.214 
" />
<path d="M 86.528, 189.213 
	L 86.528, 189.214 
	L 95.556, 217.001 
" />
<path d="M 95.557, 217.000 
	L 95.556, 217.001 
	L 110.164, 242.303 
" />
<path d="M 110.165, 242.303 
	L 110.164, 242.303 
	L 129.714, 264.015 
" />
<path d="M 129.715, 264.015 
	L 129.714, 264.015 
" />
<path d="M 129.715, 264.015 
	L 129.714, 264.015 
" />
<path d="M 129.715, 264.015 
	L 129.714, 264.015 
" />
<path d="M 129.715, 264.015 
	L 129.714, 264.015 
	L 153.351, 281.189 
" />
<path d="M 153.352, 281.188 
	L 153.351, 281.189 
	L 180.042, 293.073 
" />
<path d="M 180.043, 293.072 
	L 180.042, 293.073 
	L 208.620, 299.147 
" />
<path d="M 208.621, 299.146 
	L 208.620, 299.147 
	L 237.837, 299.147 
" />
<path d="M 237.837, 299.146 
	L 237.837, 299.147 
" />
<path d="M 237.837, 299.146 
	L 237.837, 299.147 
	L 266.415, 293.073 
" />
<path d="M 266.416, 293.072 
	L 266.415, 293.073 
	L 293.106, 281.189 
" />
<path d="M 293.107, 281.188 
	L 293.106, 281.189 
" />
<path d="M 293.107, 281.188 
	L 293.106, 281.189 
" />
<path d="M 293.107, 281.188 
	L 293.106, 281.189 
" />
<path d="M 293.107, 281.188 
	L 293.106, 281.189 
	L 316.743, 264.015 
" />
<path d="M 316.743, 264.015 
	L 316.743, 264.015 
" />
<path d="M 316.743, 264.015 
	L 316.743, 264.015 
" />
<path d="M 316.743, 264.015 
	L 316.743, 264.015 
	L 336.292, 242.303 
" />
<path d="M 336.293, 242.303 
	L 336.292, 242.303 
" />
<path d="M 336.293, 242.303 
	L 336.292, 242.303 
" />
<path d="M 336.293, 242.303 
	L 336.292, 242.303 
	L 350.901, 217.001 
" />
<path d="M 350.902, 217.000 
	L 350.901, 217.001 
" />
<path d="M 350.902, 217.000 
	L 350.901, 217.001 
	L 359.929, 189.214 
" />
<path d="M 359.930, 189.213 
	L 359.929, 189.214 
	L 362.984, 160.158 
" />
<path d="M 354.990, 161.928 
	L 354.989, 161.929 
	L 351.957, 133.076 
	L 342.991, 105.484 
	L 328.485, 80.358 
	L 309.072, 58.798 
" />
<path d="M 259.098, 29.944 
	L 259.097, 29.944 
	L 230.719, 23.912 
	L 201.706, 23.912 
	L 173.328, 29.944 
	L 146.824, 41.745 
	L 123.353, 58.798 
	L 103.940, 80.358 
" />
<path d="M 77.437, 161.928 
	L 77.436, 161.929 
	L 80.469, 190.782 
	L 89.434, 218.375 
	L 103.940, 243.500 
	L 123.353, 265.061 
	L 146.824, 282.113 
" />
<path d="M 201.707, 299.945 
	L 201.706, 299.946 
	L 230.719, 299.946 
	L 259.097, 293.914 
	L 285.601, 282.113 
	L 309.072, 265.061 
	L 328.485, 243.500 
	L 342.991, 218.375 
" />
<path d="M 356.287, 157.818 
	L 356.286, 157.819 
	L 353.274, 129.168 
	L 344.372, 101.769 
" />
<path d="M 329.968, 76.818 
	L 329.967, 76.819 
" />
<path d="M 329.968, 76.818 
	L 329.967, 76.819 
	L 310.690, 55.410 
	L 287.383, 38.476 
" />
<path d="M 261.065, 26.758 
	L 261.065, 26.758 
	L 232.885, 20.769 
" />
<path d="M 232.885, 20.768 
	L 232.885, 20.769 
	L 204.076, 20.769 
" />
<path d="M 204.077, 20.768 
	L 204.076, 20.769 
	L 175.896, 26.758 
	L 149.578, 38.476 
" />
<path d="M 126.271, 55.409 
	L 126.271, 55.410 
	L 106.994, 76.819 
	L 92.589, 101.769 
" />
<path d="M 83.687, 129.167 
	L 83.687, 129.168 
" />
<path d="M 83.687, 129.167 
	L 83.687, 129.168 
	L 80.675, 157.819 
" />
<path d="M 80.675, 157.818 
	L 80.675, 157.819 
	L 83.687, 186.470 
" />
<path d="M 83.687, 186.469 
	L 83.687, 186.470 
	L 92.589, 213.869 
" />
<path d="M 92.589, 213.868 
	L 92.589, 213.869 
	L 106.994, 238.819 
	L 126.271, 260.228 
" />
<path d="M 149.579, 277.161 
	L 149.578, 277.162 
	L 175.896, 288.879 
	L 204.076, 294.869 
" />
<path d="M 232.885, 294.868 
	L 232.885, 294.869 
	L 261.065, 288.879 
" />
<path d="M 261.065, 288.879 
	L 261.065, 288.879 
	L 287.383, 277.162 
" />
<path d="M 287.384, 277.161 
	L 287.383, 277.162 
" />
<path d="M 287.384, 277.161 
	L 287.383, 277.162 
" />
<path d="M 287.384, 277.161 
	L 287.383, 277.162 
	L 310.690, 260.228 
	L 329.967, 238.819 
" />
<path d="M 344.373, 213.868 
	L 344.372, 213.869 
" />
<path d="M 344.373, 213.868 
	L 344.372, 213.869 
	L 353.274, 186.470 
	L 356.286, 157.819 
" />
<path d="M 358.156, 158.527 
	L 358.155, 158.528 
	L 355.166, 130.077 
" />
<path d="M 355.166, 130.076 
	L 355.166, 130.077 
" />
<path d="M 355.166, 130.076 
	L 355.166, 130.077 
" />
<path d="M 355.166, 130.076 
	L 355.166, 130.077 
	L 346.325, 102.869 
" />
<path d="M 346.326, 102.869 
	L 346.325, 102.869 
	L 332.021, 78.095 
	L 312.879, 56.835 
" />
<path d="M 289.736, 40.020 
	L 289.736, 40.020 
	L 263.601, 28.385 
	L 235.619, 22.436 
" />
<path d="M 207.012, 22.436 
	L 207.011, 22.436 
	L 179.029, 28.385 
" />
<path d="M 179.030, 28.384 
	L 179.029, 28.385 
	L 152.894, 40.020 
	L 129.751, 56.835 
" />
<path d="M 110.609, 78.094 
	L 110.609, 78.095 
	L 96.305, 102.869 
" />
<path d="M 96.306, 102.869 
	L 96.305, 102.869 
	L 87.464, 130.077 
	L 84.475, 158.528 
" />
<path d="M 87.465, 186.978 
	L 87.464, 186.978 
" />
<path d="M 87.465, 186.978 
	L 87.464, 186.978 
" />
<path d="M 87.465, 186.978 
	L 87.464, 186.978 
" />
<path d="M 87.465, 186.978 
	L 87.464, 186.978 
	L 96.305, 214.186 
	L 110.609, 238.961 
" />
<path d="M 129.752, 260.219 
	L 129.751, 260.220 
	L 152.894, 277.035 
" />
<path d="M 152.895, 277.034 
	L 152.894, 277.035 
	L 179.029, 288.670 
" />
<path d="M 179.030, 288.670 
	L 179.029, 288.670 
" />
<path d="M 179.030, 288.670 
	L 179.029, 288.670 
	L 207.011, 294.619 
	L 235.619, 294.619 
" />
<path d="M 263.602, 288.670 
	L 263.601, 288.670 
	L 289.736, 277.035 
	L 312.879, 260.220 
" />
<path d="M 332.022, 238.960 
	L 332.021, 238.961 
" />
<path d="M 332.022, 238.960 
	L 332.021, 238.961 
" />
<path d="M 332.022, 238.960 
	L 332.021, 238.961 
	L 346.325, 214.186 
" />
<path d="M 346.326, 214.185 
	L 346.325, 214.186 
" />
<path d="M 346.326, 214.185 
	L 346.325, 214.186 
	L 355.166, 186.978 
" />
<path d="M 355.166, 186.978 
	L 355.166, 186.978 
	L 358.155, 158.528 
" />
<path d="M 355.144, 159.094 
	L 355.143, 159.095 
" />
<path d="M 355.144, 159.094 
	L 355.143, 159.095 
" />
<path d="M 355.144, 159.094 
	L 355.143, 159.095 
	L 352.174, 130.843 
" />
<path d="M 352.174, 130.842 
	L 352.174, 130.843 
" />
<path d="M 352.174, 130.842 
	L 352.174, 130.843 
	L 343.395, 103.826 
" />
<path d="M 343.395, 103.825 
	L 343.395, 103.826 
" />
<path d="M 343.395, 103.825 
	L 343.395, 103.826 
" />
<path d="M 343.395, 103.825 
	L 343.395, 103.826 
	L 329.191, 79.225 
" />
<path d="M 329.192, 79.224 
	L 329.191, 79.225 
	L 310.183, 58.114 
" />
<path d="M 310.184, 58.113 
	L 310.183, 58.114 
" />
<path d="M 310.184, 58.113 
	L 310.183, 58.114 
	L 287.201, 41.416 
" />
<path d="M 287.202, 41.416 
	L 287.201, 41.416 
	L 261.250, 29.862 
" />
<path d="M 261.251, 29.862 
	L 261.250, 29.862 
" />
<path d="M 261.251, 29.862 
	L 261.250, 29.862 
" />
<path d="M 261.251, 29.862 
	L 261.250, 29.862 
" />
<path d="M 261.251, 29.862 
	L 261.250, 29.862 
	L 233.464, 23.956 
" />
<path d="M 233.464, 23.956 
	L 233.464, 23.956 
	L 205.056, 23.956 
" />
<path d="M 205.057, 23.956 
	L 205.056, 23.956 
" />
<path d="M 205.057, 23.956 
	L 205.056, 23.956 
	L 177.270, 29.862 
" />
<path d="M 177.270, 29.862 
	L 177.270, 29.862 
" />
<path d="M 177.270, 29.862 
	L 177.270, 29.862 
" />
<path d="M 177.270, 29.862 
	L 177.270, 29.862 
	L 151.318, 41.416 
" />
<path d="M 151.319, 41.416 
	L 151.318, 41.416 
	L 128.336, 58.114 
" />
<path d="M 128.337, 58.113 
	L 128.336, 58.114 
	L 109.329, 79.225 
" />
<path d="M 109.329, 79.224 
	L 109.329, 79.225 
" />
<path d="M 109.329, 79.224 
	L 109.329, 79.225 
	L 95.125, 103.826 
" />
<path d="M 95.126, 103.825 
	L 95.125, 103.826 
	L 86.346, 130.843 
" />
<path d="M 86.347, 130.842 
	L 86.346, 130.843 
	L 83.377, 159.095 
" />
<path d="M 83.378, 159.094 
	L 83.377, 159.095 
	L 86.346, 187.346 
" />
<path d="M 86.347, 187.345 
	L 86.346, 187.346 
" />
<path d="M 86.347, 187.345 
	L 86.346, 187.346 
" />
<path d="M 86.347, 187.345 
	L 86.346, 187.346 
" />
<path d="M 86.347, 187.345 
	L 86.346, 187.346 
	L 95.125, 214.363 
" />
<path d="M 95.126, 214.362 
	L 95.125, 214.363 
" />
<path d="M 95.126, 214.362 
	L 95.125, 214.363 
" />
<path d="M 95.126, 214.362 
	L 95.125, 214.363 
" />
<path d="M 95.126, 214.362 
	L 95.125, 214.363 
" />
<path d="M 95.126, 214.362 
	L 95.125, 214.363 
" />
<path d="M 95.126, 214.362 
	L 95.125, 214.363 
" />
<path d="M 95.126, 214.362 
	L 95.125, 214.363 
	L 109.329, 238.964 
" />
<path d="M 109.329, 238.964 
	L 109.329, 238.964 
	L 128.336, 260.075 
" />
<path d="M 128.337, 260.075 
	L 128.336, 260.075 
" />
<path d="M 128.337, 260.075 
	L 128.336, 260.075 
" />
<path d="M 128.337, 260.075 
	L 128.336, 260.075 
" />
<path d="M 128.337, 260.075 
	L 128.336, 260.075 
	L 151.318, 276.773 
" />
<path d="M 151.319, 276.772 
	L 151.318, 276.773 
	L 177.270, 288.327 
" />
<path d="M 177.270, 288.326 
	L 177.270, 288.327 
" />
<path d="M 177.270, 288.326 
	L 177.270, 288.327 
" />
<path d="M 177.270, 288.326 
	L 177.270, 288.327 
" />
<path d="M 177.270, 288.326 
	L 177.270, 288.327 
" />
<path d="M 177.270, 288.326 
	L 177.270, 288.327 
	L 205.056, 294.233 
" />
<path d="M 205.057, 294.232 
	L 205.056, 294.233 
	L 233.464, 294.233 
" />
<path d="M 233.464, 294.232 
	L 233.464, 294.233 
	L 261.250, 288.327 
" />
<path d="M 261.251, 288.326 
	L 261.250, 288.327 
	L 287.201, 276.773 
" />
<path d="M 287.202, 276.772 
	L 287.201, 276.773 
	L 310.183, 260.075 
" />
<path d="M 310.184, 260.075 
	L 310.183, 260.075 
" />
<path d="M 310.184, 260.075 
	L 310.183, 260.075 
" />
<path d="M 310.184, 260.075 
	L 310.183, 260.075 
	L 329.191, 238.964 
" />
<path d="M 329.192, 238.964 
	L 329.191, 238.964 
	L 343.395, 214.363 
" />
<path d="M 343.395, 214.362 
	L 343.395, 214.363 
" />
<path d="M 343.395, 214.362 
	L 343.395, 214.363 
	L 352.174, 187.346 
" />
<path d="M 352.174, 187.345 
	L 352.174, 187.346 
	L 355.143, 159.095 
" />
<path d="M 354.475, 158.102 
	L 354.475, 158.102 
	L 351.527, 130.049 
" />
<path d="M 351.527, 130.048 
	L 351.527, 130.049 
	L 342.809, 103.221 
	L 328.706, 78.792 
" />
<path d="M 309.831, 57.828 
	L 309.830, 57.829 
	L 287.009, 41.248 
	L 261.240, 29.775 
" />
<path d="M 233.649, 23.910 
	L 233.648, 23.910 
	L 205.439, 23.910 
" />
<path d="M 205.440, 23.910 
	L 205.439, 23.910 
	L 177.847, 29.775 
	L 152.077, 41.248 
" />
<path d="M 129.257, 57.828 
	L 129.256, 57.829 
" />
<path d="M 129.257, 57.828 
	L 129.256, 57.829 
	L 110.381, 78.792 
	L 96.277, 103.221 
" />
<path d="M 87.561, 130.048 
	L 87.560, 130.049 
" />
<path d="M 87.561, 130.048 
	L 87.560, 130.049 
	L 84.612, 158.102 
" />
<path d="M 84.613, 158.102 
	L 84.612, 158.102 
	L 87.560, 186.156 
	L 96.277, 212.984 
" />
<path d="M 110.382, 237.412 
	L 110.381, 237.413 
" />
<path d="M 110.382, 237.412 
	L 110.381, 237.413 
	L 129.256, 258.376 
	L 152.077, 274.956 
" />
<path d="M 177.848, 286.429 
	L 177.847, 286.430 
" />
<path d="M 177.848, 286.429 
	L 177.847, 286.430 
" />
<path d="M 177.848, 286.429 
	L 177.847, 286.430 
" />
<path d="M 177.848, 286.429 
	L 177.847, 286.430 
" />
<path d="M 177.848, 286.429 
	L 177.847, 286.430 
" />
<path d="M 177.848, 286.429 
	L 177.847, 286.430 
" />
<path d="M 177.848, 286.429 
	L 177.847, 286.430 
" />
<path d="M 177.848, 286.429 
	L 177.847, 286.430 
	L 205.439, 292.295 
	L 233.648, 292.295 
" />
<path d="M 261.240, 286.429 
	L 261.240, 286.430 
	L 287.009, 274.956 
	L 309.830, 258.376 
" />
<path d="M 328.706, 237.412 
	L 328.706, 237.413 
	L 342.809, 212.984 
	L 351.527, 186.156 
" />
<path d="M 354.949, 159.873 
	L 354.948, 159.874 
	L 352.020, 132.017 
" />
<path d="M 352.021, 132.016 
	L 352.020, 132.017 
" />
<path d="M 352.021, 132.016 
	L 352.020, 132.017 
	L 343.364, 105.377 
" />
<path d="M 343.365, 105.376 
	L 343.364, 105.377 
" />
<path d="M 343.365, 105.376 
	L 343.364, 105.377 
" />
<path d="M 343.365, 105.376 
	L 343.364, 105.377 
" />
<path d="M 343.365, 105.376 
	L 343.364, 105.377 
	L 329.358, 81.118 
" />
<path d="M 329.359, 81.118 
	L 329.358, 81.118 
	L 310.616, 60.302 
" />
<path d="M 310.616, 60.301 
	L 310.616, 60.302 
" />
<path d="M 310.616, 60.301 
	L 310.616, 60.302 
" />
<path d="M 310.616, 60.301 
	L 310.616, 60.302 
" />
<path d="M 310.616, 60.301 
	L 310.616, 60.302 
	L 287.954, 43.838 
" />
<path d="M 287.955, 43.837 
	L 287.954, 43.838 
	L 262.365, 32.445 
" />
<path d="M 262.366, 32.444 
	L 262.365, 32.445 
	L 234.966, 26.621 
" />
<path d="M 234.967, 26.620 
	L 234.966, 26.621 
	L 206.955, 26.621 
" />
<path d="M 206.956, 26.620 
	L 206.955, 26.621 
	L 179.556, 32.445 
" />
<path d="M 179.557, 32.444 
	L 179.556, 32.445 
" />
<path d="M 179.557, 32.444 
	L 179.556, 32.445 
" />
<path d="M 179.557, 32.444 
	L 179.556, 32.445 
" />
<path d="M 179.557, 32.444 
	L 179.556, 32.445 
" />
<path d="M 179.557, 32.444 
	L 179.556, 32.445 
	L 153.967, 43.838 
" />
<path d="M 153.968, 43.837 
	L 153.967, 43.838 
" />
<path d="M 153.968, 43.837 
	L 153.967, 43.838 
	L 131.306, 60.302 
" />
<path d="M 131.306, 60.301 
	L 131.306, 60.302 
	L 112.563, 81.118 
" />
<path d="M 112.564, 81.118 
	L 112.563, 81.118 
" />
<path d="M 112.564, 81.118 
	L 112.563, 81.118 
" />
<path d="M 112.564, 81.118 
	L 112.563, 81.118 
" />
<path d="M 112.564, 81.118 
	L 112.563, 81.118 
	L 98.557, 105.377 
" />
<path d="M 98.558, 105.376 
	L 98.557, 105.377 
" />
<path d="M 98.558, 105.376 
	L 98.557, 105.377 
	L 89.902, 132.017 
" />
<path d="M 89.902, 132.016 
	L 89.902, 132.017 
" />
<path d="M 89.902, 132.016 
	L 89.902, 132.017 
	L 86.973, 159.874 
" />
<path d="M 86.974, 159.873 
	L 86.973, 159.874 
	L 89.902, 187.732 
" />
<path d="M 89.902, 187.731 
	L 89.902, 187.732 
	L 98.557, 214.372 
" />
<path d="M 98.558, 214.371 
	L 98.557, 214.372 
" />
<path d="M 98.558, 214.371 
	L 98.557, 214.372 
" />
<path d="M 98.558, 214.371 
	L 98.557, 214.372 
" />
<path d="M 98.558, 214.371 
	L 98.557, 214.372 
	L 112.563, 238.630 
" />
<path d="M 112.564, 238.629 
	L 112.563, 238.630 
	L 131.306, 259.446 
" />
<path d="M 131.306, 259.445 
	L 131.306, 259.446 
" />
<path d="M 131.306, 259.445 
	L 131.306, 259.446 
	L 153.967, 275.910 
" />
<path d="M 153.968, 275.910 
	L 153.967, 275.910 
" />
<path d="M 153.968, 275.910 
	L 153.967, 275.910 
	L 179.556, 287.303 
" />
<path d="M 179.557, 287.303 
	L 179.556, 287.303 
" />
<path d="M 179.557, 287.303 
	L 179.556, 287.303 
	L 206.955, 293.127 
" />
<path d="M 206.956, 293.126 
	L 206.955, 293.127 
" />
<path d="M 206.956, 293.126 
	L 206.955, 293.127 
	L 234.966, 293.127 
" />
<path d="M 234.967, 293.126 
	L 234.966, 293.127 
" />
<path d="M 234.967, 293.126 
	L 234.966, 293.127 
" />
<path d="M 234.967, 293.126 
	L 234.966, 293.127 
	L 262.365, 287.303 
" />
<path d="M 262.366, 287.303 
	L 262.365, 287.303 
	L 287.954, 275.910 
" />
<path d="M 287.955, 275.910 
	L 287.954, 275.910 
	L 310.616, 259.446 
" />
<path d="M 310.616, 259.445 
	L 310.616, 259.446 
" />
<path d="M 310.616, 259.445 
	L 310.616, 259.446 
" />
<path d="M 310.616, 259.445 
	L 310.616, 259.446 
	L 329.358, 238.630 
" />
<path d="M 329.359, 238.629 
	L 329.358, 238.630 
	L 343.364, 214.372 
" />
<path d="M 343.365, 214.371 
	L 343.364, 214.372 
" />
<path d="M 343.365, 214.371 
	L 343.364, 214.372 
	L 352.020, 187.732 
" />
<path d="M 352.021, 187.731 
	L 352.020, 187.732 
	L 354.948, 159.874 
" />
<path d="M 352.381, 157.747 
	L 352.380, 157.748 
	L 349.472, 130.085 
	L 340.878, 103.632 
" />
<path d="M 326.971, 79.543 
	L 326.970, 79.544 
	L 308.358, 58.873 
	L 285.856, 42.524 
" />
<path d="M 260.446, 31.210 
	L 260.445, 31.211 
	L 233.238, 25.427 
" />
<path d="M 233.239, 25.427 
	L 233.238, 25.427 
	L 205.423, 25.427 
" />
<path d="M 205.424, 25.427 
	L 205.423, 25.427 
" />
<path d="M 205.424, 25.427 
	L 205.423, 25.427 
" />
<path d="M 205.424, 25.427 
	L 205.423, 25.427 
" />
<path d="M 205.424, 25.427 
	L 205.423, 25.427 
" />
<path d="M 205.424, 25.427 
	L 205.423, 25.427 
" />
<path d="M 205.424, 25.427 
	L 205.423, 25.427 
	L 178.216, 31.211 
	L 152.806, 42.524 
" />
<path d="M 130.304, 58.873 
	L 130.304, 58.873 
	L 111.691, 79.544 
	L 97.784, 103.632 
" />
<path d="M 89.190, 130.085 
	L 89.189, 130.085 
	L 86.282, 157.748 
" />
<path d="M 86.282, 157.747 
	L 86.282, 157.748 
" />
<path d="M 86.282, 157.747 
	L 86.282, 157.748 
" />
<path d="M 86.282, 157.747 
	L 86.282, 157.748 
	L 89.189, 185.411 
	L 97.784, 211.864 
" />
<path d="M 111.692, 235.952 
	L 111.691, 235.952 
	L 130.304, 256.623 
	L 152.806, 272.972 
" />
<path d="M 178.217, 284.285 
	L 178.216, 284.285 
	L 205.423, 290.069 
	L 233.238, 290.069 
" />
<path d="M 260.446, 284.285 
	L 260.445, 284.285 
	L 285.856, 272.972 
" />
<path d="M 285.856, 272.971 
	L 285.856, 272.972 
" />
<path d="M 285.856, 272.971 
	L 285.856, 272.972 
	L 308.358, 256.623 
	L 326.970, 235.952 
" />
<path d="M 340.878, 211.864 
	L 340.878, 211.864 
	L 349.472, 185.411 
	L 352.380, 157.748 
" />
<path d="M 350.457, 161.149 
	L 350.457, 161.150 
	L 347.569, 133.680 
" />
<path d="M 347.570, 133.680 
	L 347.569, 133.680 
" />
<path d="M 347.570, 133.680 
	L 347.569, 133.680 
	L 339.034, 107.413 
" />
<path d="M 339.035, 107.412 
	L 339.034, 107.413 
" />
<path d="M 339.035, 107.412 
	L 339.034, 107.413 
" />
<path d="M 339.035, 107.412 
	L 339.034, 107.413 
" />
<path d="M 339.035, 107.412 
	L 339.034, 107.413 
" />
<path d="M 339.035, 107.412 
	L 339.034, 107.413 
" />
<path d="M 339.035, 107.412 
	L 339.034, 107.413 
	L 325.224, 83.493 
" />
<path d="M 325.225, 83.492 
	L 325.224, 83.493 
" />
<path d="M 325.225, 83.492 
	L 325.224, 83.493 
" />
<path d="M 325.225, 83.492 
	L 325.224, 83.493 
	L 306.743, 62.967 
" />
<path d="M 306.743, 62.966 
	L 306.743, 62.967 
	L 284.397, 46.732 
" />
<path d="M 284.398, 46.731 
	L 284.397, 46.732 
	L 259.165, 35.498 
" />
<path d="M 259.166, 35.498 
	L 259.165, 35.498 
" />
<path d="M 259.166, 35.498 
	L 259.165, 35.498 
" />
<path d="M 259.166, 35.498 
	L 259.165, 35.498 
" />
<path d="M 259.166, 35.498 
	L 259.165, 35.498 
" />
<path d="M 259.166, 35.498 
	L 259.165, 35.498 
	L 232.149, 29.755 
" />
<path d="M 232.150, 29.755 
	L 232.149, 29.755 
" />
<path d="M 232.150, 29.755 
	L 232.149, 29.755 
" />
<path d="M 232.150, 29.755 
	L 232.149, 29.755 
" />
<path d="M 232.150, 29.755 
	L 232.149, 29.755 
" />
<path d="M 232.150, 29.755 
	L 232.149, 29.755 
	L 204.528, 29.755 
" />
<path d="M 204.529, 29.755 
	L 204.528, 29.755 
	L 177.512, 35.498 
" />
<path d="M 177.513, 35.498 
	L 177.512, 35.498 
" />
<path d="M 177.513, 35.498 
	L 177.512, 35.498 
	L 152.280, 46.732 
" />
<path d="M 152.281, 46.731 
	L 152.280, 46.732 
	L 129.935, 62.967 
" />
<path d="M 129.935, 62.966 
	L 129.935, 62.967 
	L 111.453, 83.493 
" />
<path d="M 111.454, 83.492 
	L 111.453, 83.493 
	L 97.643, 107.413 
" />
<path d="M 97.644, 107.412 
	L 97.643, 107.413 
" />
<path d="M 97.644, 107.412 
	L 97.643, 107.413 
	L 89.108, 133.680 
" />
<path d="M 89.109, 133.680 
	L 89.108, 133.680 
" />
<path d="M 89.109, 133.680 
	L 89.108, 133.680 
	L 86.221, 161.150 
" />
<path d="M 86.221, 161.149 
	L 86.221, 161.150 
" />
<path d="M 86.221, 161.149 
	L 86.221, 161.150 
" />
<path d="M 86.221, 161.149 
	L 86.221, 161.150 
	L 89.108, 188.619 
" />
<path d="M 89.109, 188.618 
	L 89.108, 188.619 
	L 97.643, 214.887 
" />
<path d="M 97.644, 214.886 
	L 97.643, 214.887 
" />
<path d="M 97.644, 214.886 
	L 97.643, 214.887 
	L 111.453, 238.806 
" />
<path d="M 111.454, 238.805 
	L 111.453, 238.806 
	L 129.935, 259.333 
" />
<path d="M 129.935, 259.332 
	L 129.935, 259.333 
" />
<path d="M 129.935, 259.332 
	L 129.935, 259.333 
	L 152.280, 275.567 
" />
<path d="M 152.281, 275.567 
	L 152.280, 275.567 
	L 177.512, 286.801 
" />
<path d="M 177.513, 286.800 
	L 177.512, 286.801 
" />
<path d="M 177.513, 286.800 
	L 177.512, 286.801 
" />
<path d="M 177.513, 286.800 
	L 177.512, 286.801 
	L 204.528, 292.544 
" />
<path d="M 204.529, 292.543 
	L 204.528, 292.544 
" />
<path d="M 204.529, 292.543 
	L 204.528, 292.544 
	L 232.149, 292.544 
" />
<path d="M 232.150, 292.543 
	L 232.149, 292.544 
	L 259.165, 286.801 
" />
<path d="M 259.166, 286.800 
	L 259.165, 286.801 
	L 284.397, 275.567 
" />
<path d="M 284.398, 275.567 
	L 284.397, 275.567 
" />
<path d="M 284.398, 275.567 
	L 284.397, 275.567 
	L 306.743, 259.333 
" />
<path d="M 306.743, 259.332 
	L 306.743, 259.333 
	L 325.224, 238.806 
" />
<path d="M 325.225, 238.805 
	L 325.224, 238.806 
" />
<path d="M 325.225, 238.805 
	L 325.224, 238.806 
" />
<path d="M 325.225, 238.805 
	L 325.224, 238.806 
" />
<path d="M 325.225, 238.805 
	L 325.224, 238.806 
	L 339.034, 214.887 
" />
<path d="M 339.035, 214.886 
	L 339.034, 214.887 
	L 347.569, 188.619 
" />
<path d="M 347.570, 188.618 
	L 347.569, 188.619 
" />
<path d="M 347.570, 188.618 
	L 347.569, 188.619 
	L 350.457, 161.150 
" />
<path d="M 349.816, 160.440 
	L 349.815, 160.441 
	L 346.948, 133.165 
" />
<path d="M 346.949, 133.164 
	L 346.948, 133.165 
	L 338.473, 107.080 
" />
<path d="M 338.474, 107.079 
	L 338.473, 107.080 
	L 324.760, 83.328 
" />
<path d="M 324.760, 83.327 
	L 324.760, 83.328 
" />
<path d="M 324.760, 83.327 
	L 324.760, 83.328 
	L 306.408, 62.945 
" />
<path d="M 306.408, 62.945 
	L 306.408, 62.945 
	L 284.219, 46.825 
" />
<path d="M 284.219, 46.824 
	L 284.219, 46.825 
	L 259.163, 35.669 
" />
<path d="M 259.164, 35.668 
	L 259.163, 35.669 
	L 232.335, 29.966 
" />
<path d="M 232.336, 29.966 
	L 232.335, 29.966 
	L 204.909, 29.966 
" />
<path d="M 204.909, 29.966 
	L 204.909, 29.966 
	L 178.081, 35.669 
" />
<path d="M 178.082, 35.668 
	L 178.081, 35.669 
" />
<path d="M 178.082, 35.668 
	L 178.081, 35.669 
" />
<path d="M 178.082, 35.668 
	L 178.081, 35.669 
	L 153.026, 46.825 
" />
<path d="M 153.026, 46.824 
	L 153.026, 46.825 
	L 130.837, 62.945 
" />
<path d="M 130.837, 62.945 
	L 130.837, 62.945 
	L 112.484, 83.328 
" />
<path d="M 112.485, 83.327 
	L 112.484, 83.328 
" />
<path d="M 112.485, 83.327 
	L 112.484, 83.328 
	L 98.771, 107.080 
" />
<path d="M 98.772, 107.079 
	L 98.771, 107.080 
	L 90.296, 133.165 
" />
<path d="M 90.297, 133.164 
	L 90.296, 133.165 
" />
<path d="M 90.297, 133.164 
	L 90.296, 133.165 
" />
<path d="M 90.297, 133.164 
	L 90.296, 133.165 
	L 87.429, 160.441 
" />
<path d="M 87.430, 160.440 
	L 87.429, 160.441 
	L 90.296, 187.717 
" />
<path d="M 90.297, 187.717 
	L 90.296, 187.717 
	L 98.771, 213.802 
" />
<path d="M 98.772, 213.801 
	L 98.771, 213.802 
" />
<path d="M 98.772, 213.801 
	L 98.771, 213.802 
" />
<path d="M 98.772, 213.801 
	L 98.771, 213.802 
" />
<path d="M 98.772, 213.801 
	L 98.771, 213.802 
" />
<path d="M 98.772, 213.801 
	L 98.771, 213.802 
	L 112.484, 237.554 
" />
<path d="M 112.485, 237.553 
	L 112.484, 237.554 
" />
<path d="M 112.485, 237.553 
	L 112.484, 237.554 
" />
<path d="M 112.485, 237.553 
	L 112.484, 237.554 
" />
<path d="M 112.485, 237.553 
	L 112.484, 237.554 
" />
<path d="M 112.485, 237.553 
	L 112.484, 237.554 
" />
<path d="M 112.485, 237.553 
	L 112.484, 237.554 
	L 130.837, 257.936 
" />
<path d="M 130.837, 257.936 
	L 130.837, 257.936 
	L 153.026, 274.057 
" />
<path d="M 153.026, 274.056 
	L 153.026, 274.057 
" />
<path d="M 153.026, 274.056 
	L 153.026, 274.057 
	L 178.081, 285.213 
" />
<path d="M 178.082, 285.212 
	L 178.081, 285.213 
	L 204.909, 290.915 
" />
<path d="M 204.909, 290.915 
	L 204.909, 290.915 
	L 232.335, 290.915 
" />
<path d="M 232.336, 290.915 
	L 232.335, 290.915 
" />
<path d="M 232.336, 290.915 
	L 232.335, 290.915 
" />
<path d="M 232.336, 290.915 
	L 232.335, 290.915 
	L 259.163, 285.213 
" />
<path d="M 259.164, 285.212 
	L 259.163, 285.213 
" />
<path d="M 259.164, 285.212 
	L 259.163, 285.213 
" />
<path d="M 259.164, 285.212 
	L 259.163, 285.213 
" />
<path d="M 259.164, 285.212 
	L 259.163, 285.213 
" />
<path d="M 259.164, 285.212 
	L 259.163, 285.213 
	L 284.219, 274.057 
" />
<path d="M 284.219, 274.056 
	L 284.219, 274.057 
	L 306.408, 257.936 
" />
<path d="M 306.408, 257.936 
	L 306.408, 257.936 
	L 324.760, 237.554 
" />
<path d="M 324.760, 237.553 
	L 324.760, 237.554 
	L 338.473, 213.802 
" />
<path d="M 338.474, 213.801 
	L 338.473, 213.802 
	L 346.948, 187.717 
" />
<path d="M 346.949, 187.717 
	L 346.948, 187.717 
	L 349.815, 160.441 
" />
<path d="M 347.905, 159.590 
	L 347.905, 159.591 
" />
<path d="M 347.905, 159.590 
	L 347.905, 159.591 
" />
<path d="M 347.905, 159.590 
	L 347.905, 159.591 
" />
<path d="M 347.905, 159.590 
	L 347.905, 159.591 
	L 345.058, 132.505 
" />
<path d="M 345.059, 132.504 
	L 345.058, 132.505 
" />
<path d="M 345.059, 132.504 
	L 345.058, 132.505 
	L 336.642, 106.603 
" />
<path d="M 336.643, 106.603 
	L 336.642, 106.603 
	L 323.024, 83.017 
" />
<path d="M 323.025, 83.016 
	L 323.024, 83.017 
" />
<path d="M 323.025, 83.016 
	L 323.024, 83.017 
" />
<path d="M 323.025, 83.016 
	L 323.024, 83.017 
" />
<path d="M 323.025, 83.016 
	L 323.024, 83.017 
" />
<path d="M 323.025, 83.016 
	L 323.024, 83.017 
	L 304.801, 62.777 
" />
<path d="M 304.802, 62.777 
	L 304.801, 62.777 
" />
<path d="M 304.802, 62.777 
	L 304.801, 62.777 
" />
<path d="M 304.802, 62.777 
	L 304.801, 62.777 
" />
<path d="M 304.802, 62.777 
	L 304.801, 62.777 
	L 282.767, 46.770 
" />
<path d="M 282.768, 46.769 
	L 282.767, 46.770 
	L 257.887, 35.692 
" />
<path d="M 257.888, 35.691 
	L 257.887, 35.692 
" />
<path d="M 257.888, 35.691 
	L 257.887, 35.692 
" />
<path d="M 257.888, 35.691 
	L 257.887, 35.692 
	L 231.248, 30.030 
" />
<path d="M 231.248, 30.029 
	L 231.248, 30.030 
	L 204.012, 30.030 
" />
<path d="M 204.013, 30.029 
	L 204.012, 30.030 
" />
<path d="M 204.013, 30.029 
	L 204.012, 30.030 
" />
<path d="M 204.013, 30.029 
	L 204.012, 30.030 
" />
<path d="M 204.013, 30.029 
	L 204.012, 30.030 
" />
<path d="M 204.013, 30.029 
	L 204.012, 30.030 
" />
<path d="M 204.013, 30.029 
	L 204.012, 30.030 
" />
<path d="M 204.013, 30.029 
	L 204.012, 30.030 
" />
<path d="M 204.013, 30.029 
	L 204.012, 30.030 
	L 177.373, 35.692 
" />
<path d="M 177.374, 35.691 
	L 177.373, 35.692 
	L 152.493, 46.770 
" />
<path d="M 152.493, 46.769 
	L 152.493, 46.770 
	L 130.459, 62.777 
" />
<path d="M 130.460, 62.777 
	L 130.459, 62.777 
" />
<path d="M 130.460, 62.777 
	L 130.459, 62.777 
	L 112.236, 83.017 
" />
<path d="M 112.236, 83.016 
	L 112.236, 83.017 
	L 98.618, 106.603 
" />
<path d="M 98.619, 106.603 
	L 98.618, 106.603 
" />
<path d="M 98.619, 106.603 
	L 98.618, 106.603 
	L 90.202, 132.505 
" />
<path d="M 90.203, 132.504 
	L 90.202, 132.505 
" />
<path d="M 90.203, 132.504 
	L 90.202, 132.505 
" />
<path d="M 90.203, 132.504 
	L 90.202, 132.505 
	L 87.355, 159.591 
" />
<path d="M 87.356, 159.590 
	L 87.355, 159.591 
" />
<path d="M 87.356, 159.590 
	L 87.355, 159.591 
	L 90.202, 186.676 
" />
<path d="M 90.203, 186.676 
	L 90.202, 186.676 
	L 98.618, 212.578 
" />
<path d="M 98.619, 212.577 
	L 98.618, 212.578 
" />
<path d="M 98.619, 212.577 
	L 98.618, 212.578 
	L 112.236, 236.164 
" />
<path d="M 112.236, 236.164 
	L 112.236, 236.164 
" />
<path d="M 112.236, 236.164 
	L 112.236, 236.164 
" />
<path d="M 112.236, 236.164 
	L 112.236, 236.164 
" />
<path d="M 112.236, 236.164 
	L 112.236, 236.164 
" />
<path d="M 112.236, 236.164 
	L 112.236, 236.164 
	L 130.459, 256.404 
" />
<path d="M 130.460, 256.403 
	L 130.459, 256.404 
" />
<path d="M 130.460, 256.403 
	L 130.459, 256.404 
	L 152.493, 272.412 
" />
<path d="M 152.493, 272.411 
	L 152.493, 272.412 
" />
<path d="M 152.493, 272.411 
	L 152.493, 272.412 
	L 177.373, 283.489 
" />
<path d="M 177.374, 283.489 
	L 177.373, 283.489 
" />
<path d="M 177.374, 283.489 
	L 177.373, 283.489 
	L 204.012, 289.152 
" />
<path d="M 204.013, 289.151 
	L 204.012, 289.152 
" />
<path d="M 204.013, 289.151 
	L 204.012, 289.152 
" />
<path d="M 204.013, 289.151 
	L 204.012, 289.152 
" />
<path d="M 204.013, 289.151 
	L 204.012, 289.152 
	L 231.248, 289.152 
" />
<path d="M 231.248, 289.151 
	L 231.248, 289.152 
	L 257.887, 283.489 
" />
<path d="M 257.888, 283.489 
	L 257.887, 283.489 
	L 282.767, 272.412 
" />
<path d="M 282.768, 272.411 
	L 282.767, 272.412 
	L 304.801, 256.404 
" />
<path d="M 304.802, 256.403 
	L 304.801, 256.404 
	L 323.024, 236.164 
" />
<path d="M 323.025, 236.164 
	L 323.024, 236.164 
" />
<path d="M 323.025, 236.164 
	L 323.024, 236.164 
	L 336.642, 212.578 
" />
<path d="M 336.643, 212.577 
	L 336.642, 212.578 
" />
<path d="M 336.643, 212.577 
	L 336.642, 212.578 
" />
<path d="M 336.643, 212.577 
	L 336.642, 212.578 
	L 345.058, 186.676 
" />
<path d="M 345.059, 186.676 
	L 345.058, 186.676 
" />
<path d="M 345.059, 186.676 
	L 345.058, 186.676 
	L 347.905, 159.591 
" />
<path d="M 345.859, 164.054 
	L 345.859, 164.055 
	L 343.032, 137.159 
	L 334.675, 111.438 
	L 321.153, 88.018 
" />
<path d="M 303.058, 67.920 
	L 303.057, 67.920 
" />
<path d="M 303.058, 67.920 
	L 303.057, 67.920 
	L 281.178, 52.024 
" />
<path d="M 281.178, 52.023 
	L 281.178, 52.024 
	L 256.472, 41.024 
	L 230.018, 35.401 
" />
<path d="M 202.975, 35.400 
	L 202.974, 35.401 
	L 176.520, 41.024 
	L 151.814, 52.024 
	L 129.935, 67.920 
" />
<path d="M 111.840, 88.017 
	L 111.840, 88.018 
	L 98.318, 111.438 
	L 89.960, 137.159 
	L 87.133, 164.055 
" />
<path d="M 89.961, 190.950 
	L 89.960, 190.951 
	L 98.318, 216.672 
" />
<path d="M 98.318, 216.671 
	L 98.318, 216.672 
	L 111.840, 240.092 
	L 129.935, 260.190 
	L 151.814, 276.087 
	L 176.520, 287.087 
" />
<path d="M 230.019, 292.708 
	L 230.018, 292.709 
" />
<path d="M 230.019, 292.708 
	L 230.018, 292.709 
	L 256.472, 287.087 
" />
<path d="M 256.472, 287.086 
	L 256.472, 287.087 
	L 281.178, 276.087 
" />
<path d="M 281.178, 276.086 
	L 281.178, 276.087 
	L 303.057, 260.190 
" />
<path d="M 303.058, 260.189 
	L 303.057, 260.190 
" />
<path d="M 303.058, 260.189 
	L 303.057, 260.190 
	L 321.153, 240.092 
	L 334.675, 216.672 
	L 343.032, 190.951 
	L 345.859, 164.055 
" />
<path d="M 349.773, 160.440 
	L 349.772, 160.441 
	L 346.965, 133.733 
" />
<path d="M 346.966, 133.732 
	L 346.965, 133.733 
	L 338.667, 108.193 
	L 325.239, 84.936 
" />
<path d="M 307.271, 64.978 
	L 307.270, 64.979 
	L 285.544, 49.194 
	L 261.011, 38.271 
	L 234.743, 32.688 
	L 207.887, 32.688 
" />
<path d="M 157.087, 49.193 
	L 157.086, 49.194 
	L 135.360, 64.979 
	L 117.391, 84.936 
	L 103.963, 108.193 
	L 95.665, 133.733 
	L 92.858, 160.441 
	L 95.665, 187.149 
" />
<path d="M 135.361, 255.903 
	L 135.360, 255.903 
	L 157.086, 271.688 
" />
<path d="M 157.087, 271.687 
	L 157.086, 271.688 
	L 181.619, 282.611 
	L 207.887, 288.194 
	L 234.743, 288.194 
	L 261.011, 282.611 
" />
<path d="M 307.271, 255.903 
	L 307.270, 255.903 
	L 325.239, 235.946 
	L 338.667, 212.689 
" />
<path d="M 346.966, 187.148 
	L 346.965, 187.149 
	L 349.772, 160.441 
	L 346.965, 133.733 
	L 338.667, 108.193 
	L 325.239, 84.936 
	L 307.270, 64.979 
	L 285.544, 49.194 
" />
<path d="M 345.968, 160.582 
	L 345.967, 160.583 
	L 343.180, 134.062 
	L 334.940, 108.700 
	L 321.606, 85.606 
	L 303.762, 65.789 
" />
<path d="M 257.828, 39.267 
	L 257.827, 39.268 
	L 231.743, 33.724 
	L 205.076, 33.724 
	L 178.992, 39.268 
	L 154.631, 50.114 
	L 133.057, 65.789 
	L 115.213, 85.606 
	L 101.879, 108.700 
	L 93.639, 134.062 
	L 90.852, 160.583 
	L 93.639, 187.104 
" />
<path d="M 93.639, 187.104 
	L 101.879, 212.465 
	L 115.213, 235.559 
	L 133.057, 255.377 
" />
<path d="M 282.189, 271.050 
	L 282.188, 271.051 
	L 303.762, 255.377 
	L 321.606, 235.559 
	L 334.940, 212.465 
	L 343.180, 187.104 
	L 345.967, 160.583 
	L 343.180, 134.062 
	L 334.940, 108.700 
	L 321.606, 85.606 
	L 303.762, 65.789 
" />
<path d="M 303.762, 65.789 
	L 282.188, 50.114 
	L 257.827, 39.268 
	L 231.743, 33.724 
	L 205.076, 33.724 
	L 178.992, 39.268 
	L 154.631, 50.114 
	L 133.057, 65.789 
	L 115.213, 85.606 
	L 101.879, 108.700 
	L 93.639, 134.062 
" />
<path d="M 344.721, 159.944 
	L 344.720, 159.945 
	L 341.953, 133.610 
" />
<path d="M 341.953, 133.609 
	L 341.953, 133.610 
	L 333.770, 108.426 
" />
<path d="M 333.770, 108.425 
	L 333.770, 108.426 
	L 320.529, 85.493 
	L 302.810, 65.814 
" />
<path d="M 281.388, 50.249 
	L 281.388, 50.250 
" />
<path d="M 281.388, 50.249 
	L 281.388, 50.250 
	L 257.197, 39.480 
	L 231.295, 33.974 
" />
<path d="M 204.816, 33.973 
	L 204.815, 33.974 
	L 178.914, 39.480 
	L 154.723, 50.250 
" />
<path d="M 133.301, 65.813 
	L 133.300, 65.814 
	L 115.581, 85.493 
" />
<path d="M 115.582, 85.492 
	L 115.581, 85.493 
" />
<path d="M 115.582, 85.492 
	L 115.581, 85.493 
	L 102.341, 108.426 
	L 94.158, 133.610 
" />
<path d="M 91.391, 159.944 
	L 91.390, 159.945 
	L 94.158, 186.280 
" />
<path d="M 94.158, 186.279 
	L 94.158, 186.280 
	L 102.341, 211.464 
" />
<path d="M 102.341, 211.463 
	L 102.341, 211.464 
	L 115.581, 234.397 
	L 133.300, 254.076 
" />
<path d="M 154.723, 269.639 
	L 154.723, 269.640 
	L 178.914, 280.410 
" />
<path d="M 178.914, 280.410 
	L 178.914, 280.410 
	L 204.815, 285.916 
	L 231.295, 285.916 
" />
<path d="M 257.197, 280.410 
	L 257.197, 280.410 
	L 281.388, 269.640 
" />
<path d="M 281.388, 269.639 
	L 281.388, 269.640 
	L 302.810, 254.076 
	L 320.529, 234.397 
" />
<path d="M 333.770, 211.463 
	L 333.770, 211.464 
	L 341.953, 186.280 
" />
<path d="M 341.953, 186.279 
	L 341.953, 186.280 
" />
<path d="M 341.953, 186.279 
	L 341.953, 186.280 
" />
<path d="M 341.953, 186.279 
	L 341.953, 186.280 
	L 344.720, 159.945 
	L 341.953, 133.610 
" />
<path d="M 346.598, 163.700 
	L 346.597, 163.701 
" />
<path d="M 346.598, 163.700 
	L 346.597, 163.701 
" />
<path d="M 346.598, 163.700 
	L 346.597, 163.701 
" />
<path d="M 346.598, 163.700 
	L 346.597, 163.701 
	L 343.849, 137.550 
" />
<path d="M 343.850, 137.549 
	L 343.849, 137.550 
	L 335.723, 112.542 
" />
<path d="M 335.724, 112.541 
	L 335.723, 112.542 
" />
<path d="M 335.724, 112.541 
	L 335.723, 112.542 
" />
<path d="M 335.724, 112.541 
	L 335.723, 112.542 
	L 322.576, 89.770 
" />
<path d="M 322.576, 89.770 
	L 322.576, 89.770 
	L 304.981, 70.229 
" />
<path d="M 304.982, 70.228 
	L 304.981, 70.229 
	L 283.708, 54.774 
" />
<path d="M 283.709, 54.773 
	L 283.708, 54.774 
" />
<path d="M 283.709, 54.773 
	L 283.708, 54.774 
" />
<path d="M 283.709, 54.773 
	L 283.708, 54.774 
	L 259.687, 44.079 
" />
<path d="M 259.688, 44.078 
	L 259.687, 44.079 
	L 233.966, 38.611 
" />
<path d="M 233.967, 38.611 
	L 233.966, 38.611 
" />
<path d="M 233.967, 38.611 
	L 233.966, 38.611 
" />
<path d="M 233.967, 38.611 
	L 233.966, 38.611 
	L 207.672, 38.611 
" />
<path d="M 207.673, 38.611 
	L 207.672, 38.611 
	L 181.951, 44.079 
" />
<path d="M 181.952, 44.078 
	L 181.951, 44.079 
" />
<path d="M 181.952, 44.078 
	L 181.951, 44.079 
" />
<path d="M 181.952, 44.078 
	L 181.951, 44.079 
	L 157.929, 54.774 
" />
<path d="M 157.930, 54.773 
	L 157.929, 54.774 
	L 136.657, 70.229 
" />
<path d="M 136.658, 70.228 
	L 136.657, 70.229 
	L 119.062, 89.770 
" />
<path d="M 119.063, 89.770 
	L 119.062, 89.770 
	L 105.914, 112.542 
" />
<path d="M 105.915, 112.541 
	L 105.914, 112.542 
	L 97.789, 137.550 
" />
<path d="M 97.790, 137.549 
	L 97.789, 137.550 
" />
<path d="M 97.790, 137.549 
	L 97.789, 137.550 
" />
<path d="M 97.790, 137.549 
	L 97.789, 137.550 
" />
<path d="M 97.790, 137.549 
	L 97.789, 137.550 
" />
<path d="M 97.790, 137.549 
	L 97.789, 137.550 
	L 95.041, 163.701 
" />
<path d="M 95.041, 163.700 
	L 95.041, 163.701 
" />
<path d="M 95.041, 163.700 
	L 95.041, 163.701 
" />
<path d="M 95.041, 163.700 
	L 95.041, 163.701 
" />
<path d="M 95.041, 163.700 
	L 95.041, 163.701 
" />
<path d="M 95.041, 163.700 
	L 95.041, 163.701 
	L 97.789, 189.852 
" />
<path d="M 97.790, 189.851 
	L 97.789, 189.852 
" />
<path d="M 97.790, 189.851 
	L 97.789, 189.852 
" />
<path d="M 97.790, 189.851 
	L 97.789, 189.852 
	L 105.914, 214.860 
" />
<path d="M 105.915, 214.859 
	L 105.914, 214.860 
	L 119.062, 237.631 
" />
<path d="M 119.063, 237.631 
	L 119.062, 237.631 
" />
<path d="M 119.063, 237.631 
	L 119.062, 237.631 
	L 136.657, 257.173 
" />
<path d="M 136.658, 257.172 
	L 136.657, 257.173 
	L 157.929, 272.628 
" />
<path d="M 157.930, 272.627 
	L 157.929, 272.628 
" />
<path d="M 157.930, 272.627 
	L 157.929, 272.628 
	L 181.951, 283.323 
" />
<path d="M 181.952, 283.322 
	L 181.951, 283.323 
" />
<path d="M 181.952, 283.322 
	L 181.951, 283.323 
	L 207.672, 288.790 
" />
<path d="M 207.673, 288.790 
	L 207.672, 288.790 
	L 233.966, 288.790 
" />
<path d="M 233.967, 288.790 
	L 233.966, 288.790 
" />
<path d="M 233.967, 288.790 
	L 233.966, 288.790 
" />
<path d="M 233.967, 288.790 
	L 233.966, 288.790 
	L 259.687, 283.323 
" />
<path d="M 259.688, 283.322 
	L 259.687, 283.323 
	L 283.708, 272.628 
" />
<path d="M 283.709, 272.627 
	L 283.708, 272.628 
	L 304.981, 257.173 
" />
<path d="M 304.982, 257.172 
	L 304.981, 257.173 
" />
<path d="M 304.982, 257.172 
	L 304.981, 257.173 
" />
<path d="M 304.982, 257.172 
	L 304.981, 257.173 
	L 322.576, 237.631 
" />
<path d="M 322.576, 237.631 
	L 322.576, 237.631 
	L 335.723, 214.860 
" />
<path d="M 335.724, 214.859 
	L 335.723, 214.860 
	L 343.849, 189.852 
" />
<path d="M 343.850, 189.851 
	L 343.849, 189.852 
	L 346.597, 163.701 
" />
<path d="M 345.009, 162.212 
	L 345.008, 162.213 
	L 342.279, 136.245 
	L 334.210, 111.412 
	L 321.155, 88.800 
	L 303.683, 69.396 
	L 282.559, 54.047 
	L 258.706, 43.427 
	L 233.166, 37.999 
	L 207.055, 37.999 
	L 181.514, 43.427 
" />
<path d="M 181.514, 43.427 
	L 157.662, 54.047 
	L 136.537, 69.396 
	L 119.066, 88.800 
	L 106.010, 111.412 
" />
<path d="M 136.538, 255.029 
	L 136.537, 255.030 
" />
<path d="M 136.538, 255.029 
	L 136.537, 255.030 
	L 157.662, 270.378 
	L 181.514, 280.998 
	L 207.055, 286.426 
	L 233.166, 286.426 
	L 258.706, 280.998 
	L 282.559, 270.378 
	L 303.683, 255.030 
	L 321.155, 235.626 
	L 334.210, 213.013 
" />
<path d="M 334.210, 213.013 
	L 342.279, 188.180 
	L 345.008, 162.213 
	L 342.279, 136.245 
	L 334.210, 111.412 
	L 321.155, 88.800 
	L 303.683, 69.396 
" />
<path d="M 343.568, 163.133 
	L 343.567, 163.134 
	L 340.857, 137.348 
	L 332.845, 112.689 
" />
<path d="M 319.881, 90.234 
	L 319.881, 90.235 
	L 302.531, 70.966 
	L 281.555, 55.726 
	L 257.868, 45.181 
	L 232.508, 39.790 
	L 206.579, 39.790 
	L 181.218, 45.181 
" />
<path d="M 119.207, 90.234 
	L 119.206, 90.235 
	L 106.242, 112.689 
	L 98.230, 137.348 
	L 95.520, 163.134 
	L 98.230, 188.920 
	L 106.242, 213.579 
	L 119.206, 236.033 
" />
<path d="M 181.219, 281.086 
	L 181.218, 281.087 
" />
<path d="M 181.219, 281.086 
	L 181.218, 281.087 
" />
<path d="M 181.219, 281.086 
	L 181.218, 281.087 
" />
<path d="M 181.219, 281.086 
	L 181.218, 281.087 
	L 206.579, 286.478 
	L 232.508, 286.478 
	L 257.868, 281.087 
" />
<path d="M 281.556, 270.541 
	L 281.555, 270.541 
	L 302.531, 255.302 
	L 319.881, 236.033 
" />
<path d="M 332.846, 213.578 
	L 332.845, 213.579 
" />
<path d="M 332.846, 213.578 
	L 332.845, 213.579 
	L 340.857, 188.920 
	L 343.567, 163.134 
	L 340.857, 137.348 
" />
<path d="M 480.544, 163.062 
	L 480.543, 163.063 
" />
<path d="M 480.544, 163.062 
	L 480.543, 163.063 
	L 468.367, 113.664 
" />
<path d="M 468.368, 113.663 
	L 468.367, 113.664 
	L 434.629, 75.580 
" />
<path d="M 434.630, 75.579 
	L 434.629, 75.580 
" />
<path d="M 434.630, 75.579 
	L 434.629, 75.580 
	L 387.057, 57.539 
" />
<path d="M 387.058, 57.538 
	L 387.057, 57.539 
" />
<path d="M 387.058, 57.538 
	L 387.057, 57.539 
" />
<path d="M 387.058, 57.538 
	L 387.057, 57.539 
	L 336.550, 63.672 
" />
<path d="M 336.550, 63.671 
	L 336.550, 63.672 
	L 294.678, 92.574 
" />
<path d="M 294.678, 92.573 
	L 294.678, 92.574 
	L 271.034, 137.624 
" />
<path d="M 271.035, 137.623 
	L 271.034, 137.624 
	L 271.034, 188.502 
" />
<path d="M 271.035, 188.501 
	L 271.034, 188.502 
" />
<path d="M 271.035, 188.501 
	L 271.034, 188.502 
	L 294.678, 233.552 
" />
<path d="M 294.678, 233.551 
	L 294.678, 233.552 
	L 336.550, 262.454 
" />
<path d="M 336.550, 262.454 
	L 336.550, 262.454 
	L 387.057, 268.587 
" />
<path d="M 387.058, 268.586 
	L 387.057, 268.587 
" />
<path d="M 387.058, 268.586 
	L 387.057, 268.587 
" />
<path d="M 387.058, 268.586 
	L 387.057, 268.587 
	L 434.629, 250.546 
" />
<path d="M 434.630, 250.545 
	L 434.629, 250.546 
" />
<path d="M 434.630, 250.545 
	L 434.629, 250.546 
	L 468.367, 212.462 
" />
<path d="M 468.368, 212.462 
	L 468.367, 212.462 
	L 480.543, 163.063 
" />
<path d="M 480.792, 161.574 
	L 480.791, 161.575 
	L 468.701, 112.521 
" />
<path d="M 468.702, 112.520 
	L 468.701, 112.521 
" />
<path d="M 468.702, 112.520 
	L 468.701, 112.521 
" />
<path d="M 468.702, 112.520 
	L 468.701, 112.521 
	L 435.198, 74.705 
" />
<path d="M 435.199, 74.704 
	L 435.198, 74.705 
" />
<path d="M 435.199, 74.704 
	L 435.198, 74.705 
" />
<path d="M 435.199, 74.704 
	L 435.198, 74.705 
" />
<path d="M 435.199, 74.704 
	L 435.198, 74.705 
	L 387.960, 56.789 
" />
<path d="M 387.960, 56.789 
	L 387.960, 56.789 
" />
<path d="M 387.960, 56.789 
	L 387.960, 56.789 
	L 337.806, 62.879 
" />
<path d="M 337.807, 62.878 
	L 337.806, 62.879 
" />
<path d="M 337.807, 62.878 
	L 337.806, 62.879 
" />
<path d="M 337.807, 62.878 
	L 337.806, 62.879 
	L 296.227, 91.579 
" />
<path d="M 296.228, 91.578 
	L 296.227, 91.579 
" />
<path d="M 296.228, 91.578 
	L 296.227, 91.579 
	L 272.748, 136.314 
" />
<path d="M 272.749, 136.313 
	L 272.748, 136.314 
	L 272.748, 186.836 
" />
<path d="M 272.749, 186.835 
	L 272.748, 186.836 
	L 296.227, 231.571 
" />
<path d="M 296.228, 231.570 
	L 296.227, 231.571 
" />
<path d="M 296.228, 231.570 
	L 296.227, 231.571 
" />
<path d="M 296.228, 231.570 
	L 296.227, 231.571 
	L 337.806, 260.271 
" />
<path d="M 337.807, 260.270 
	L 337.806, 260.271 
" />
<path d="M 337.807, 260.270 
	L 337.806, 260.271 
" />
<path d="M 337.807, 260.270 
	L 337.806, 260.271 
	L 387.960, 266.360 
" />
<path d="M 387.960, 266.360 
	L 387.960, 266.360 
" />
<path d="M 387.960, 266.360 
	L 387.960, 266.360 
	L 435.198, 248.445 
" />
<path d="M 435.199, 248.444 
	L 435.198, 248.445 
	L 468.701, 210.629 
" />
<path d="M 468.702, 210.628 
	L 468.701, 210.629 
	L 480.791, 161.575 
" />
<path d="M 479.203, 163.771 
	L 479.202, 163.772 
	L 467.196, 115.061 
	L 433.928, 77.510 
	L 387.020, 59.720 
" />
<path d="M 337.218, 65.766 
	L 337.217, 65.767 
	L 295.930, 94.265 
	L 272.616, 138.687 
	L 272.616, 188.856 
	L 295.930, 233.278 
	L 337.217, 261.777 
	L 387.020, 267.824 
	L 433.928, 250.034 
	L 467.196, 212.482 
	L 479.202, 163.772 
" />
<path d="M 479.202, 163.772 
	L 467.196, 115.061 
	L 433.928, 77.510 
	L 387.020, 59.720 
" />
<path d="M 480.099, 159.165 
	L 480.098, 159.165 
	L 468.177, 110.796 
" />
<path d="M 468.177, 110.795 
	L 468.177, 110.796 
" />
<path d="M 468.177, 110.795 
	L 468.177, 110.796 
	L 435.142, 73.507 
" />
<path d="M 435.142, 73.507 
	L 435.142, 73.507 
	L 388.561, 55.842 
" />
<path d="M 388.562, 55.841 
	L 388.561, 55.842 
" />
<path d="M 388.562, 55.841 
	L 388.561, 55.842 
	L 339.107, 61.846 
" />
<path d="M 339.108, 61.846 
	L 339.107, 61.846 
" />
<path d="M 339.108, 61.846 
	L 339.107, 61.846 
" />
<path d="M 339.108, 61.846 
	L 339.107, 61.846 
	L 298.109, 90.146 
" />
<path d="M 298.110, 90.145 
	L 298.109, 90.146 
	L 274.958, 134.257 
" />
<path d="M 274.959, 134.256 
	L 274.958, 134.257 
" />
<path d="M 274.959, 134.256 
	L 274.958, 134.257 
	L 274.958, 184.074 
" />
<path d="M 274.959, 184.073 
	L 274.958, 184.074 
	L 298.109, 228.185 
" />
<path d="M 298.110, 228.184 
	L 298.109, 228.185 
" />
<path d="M 298.110, 228.184 
	L 298.109, 228.185 
" />
<path d="M 298.110, 228.184 
	L 298.109, 228.185 
" />
<path d="M 298.110, 228.184 
	L 298.109, 228.185 
" />
<path d="M 298.110, 228.184 
	L 298.109, 228.185 
	L 339.107, 256.484 
" />
<path d="M 339.108, 256.484 
	L 339.107, 256.484 
" />
<path d="M 339.108, 256.484 
	L 339.107, 256.484 
" />
<path d="M 339.108, 256.484 
	L 339.107, 256.484 
" />
<path d="M 339.108, 256.484 
	L 339.107, 256.484 
	L 388.561, 262.489 
" />
<path d="M 388.562, 262.488 
	L 388.561, 262.489 
	L 435.142, 244.823 
" />
<path d="M 435.142, 244.823 
	L 435.142, 244.823 
" />
<path d="M 435.142, 244.823 
	L 435.142, 244.823 
	L 468.177, 207.535 
" />
<path d="M 468.177, 207.534 
	L 468.177, 207.535 
" />
<path d="M 468.177, 207.534 
	L 468.177, 207.535 
" />
<path d="M 468.177, 207.534 
	L 468.177, 207.535 
" />
<path d="M 468.177, 207.534 
	L 468.177, 207.535 
	L 480.098, 159.165 
" />
<path d="M 475.756, 163.062 
	L 475.756, 163.063 
" />
<path d="M 475.756, 163.062 
	L 475.756, 163.063 
	L 463.917, 115.032 
	L 431.114, 78.004 
	L 384.860, 60.462 
	L 335.752, 66.426 
" />
<path d="M 272.052, 138.328 
	L 272.051, 138.329 
	L 272.051, 187.797 
	L 295.040, 231.599 
	L 335.752, 259.700 
" />
<path d="M 384.861, 265.663 
	L 384.860, 265.664 
	L 431.114, 248.122 
	L 463.917, 211.094 
	L 475.756, 163.063 
" />
<path d="M 479.285, 162.991 
	L 479.284, 162.992 
	L 467.528, 115.297 
" />
<path d="M 467.529, 115.296 
	L 467.528, 115.297 
" />
<path d="M 467.529, 115.296 
	L 467.528, 115.297 
" />
<path d="M 467.529, 115.296 
	L 467.528, 115.297 
" />
<path d="M 467.529, 115.296 
	L 467.528, 115.297 
	L 434.954, 78.529 
" />
<path d="M 434.955, 78.528 
	L 434.954, 78.529 
	L 389.024, 61.110 
" />
<path d="M 389.025, 61.109 
	L 389.024, 61.110 
" />
<path d="M 389.025, 61.109 
	L 389.024, 61.110 
" />
<path d="M 389.025, 61.109 
	L 389.024, 61.110 
	L 340.260, 67.031 
" />
<path d="M 340.261, 67.030 
	L 340.260, 67.031 
	L 299.833, 94.936 
" />
<path d="M 299.834, 94.935 
	L 299.833, 94.936 
	L 277.005, 138.431 
" />
<path d="M 277.006, 138.431 
	L 277.005, 138.431 
	L 277.005, 187.553 
" />
<path d="M 277.006, 187.552 
	L 277.005, 187.553 
" />
<path d="M 277.006, 187.552 
	L 277.005, 187.553 
	L 299.833, 231.048 
" />
<path d="M 299.834, 231.048 
	L 299.833, 231.048 
	L 340.260, 258.953 
" />
<path d="M 340.261, 258.953 
	L 340.260, 258.953 
" />
<path d="M 340.261, 258.953 
	L 340.260, 258.953 
" />
<path d="M 340.261, 258.953 
	L 340.260, 258.953 
" />
<path d="M 340.261, 258.953 
	L 340.260, 258.953 
	L 389.024, 264.874 
" />
<path d="M 389.025, 264.874 
	L 389.024, 264.874 
" />
<path d="M 389.025, 264.874 
	L 389.024, 264.874 
	L 434.954, 247.455 
" />
<path d="M 434.955, 247.455 
	L 434.954, 247.455 
" />
<path d="M 434.955, 247.455 
	L 434.954, 247.455 
" />
<path d="M 434.955, 247.455 
	L 434.954, 247.455 
" />
<path d="M 434.955, 247.455 
	L 434.954, 247.455 
" />
<path d="M 434.955, 247.455 
	L 434.954, 247.455 
	L 467.528, 210.687 
" />
<path d="M 467.529, 210.686 
	L 467.528, 210.687 
	L 479.284, 162.992 
" />
<path d="M 476.653, 161.149 
	L 476.652, 161.150 
	L 464.979, 113.789 
" />
<path d="M 464.980, 113.788 
	L 464.979, 113.789 
	L 432.633, 77.277 
" />
<path d="M 432.634, 77.277 
	L 432.633, 77.277 
" />
<path d="M 432.634, 77.277 
	L 432.633, 77.277 
	L 387.024, 59.980 
" />
<path d="M 387.025, 59.980 
	L 387.024, 59.980 
" />
<path d="M 387.025, 59.980 
	L 387.024, 59.980 
	L 338.602, 65.860 
" />
<path d="M 338.603, 65.859 
	L 338.602, 65.860 
	L 298.458, 93.570 
" />
<path d="M 298.458, 93.569 
	L 298.458, 93.570 
" />
<path d="M 298.458, 93.569 
	L 298.458, 93.570 
" />
<path d="M 298.458, 93.569 
	L 298.458, 93.570 
" />
<path d="M 298.458, 93.569 
	L 298.458, 93.570 
	L 275.790, 136.760 
" />
<path d="M 275.791, 136.760 
	L 275.790, 136.760 
" />
<path d="M 275.791, 136.760 
	L 275.790, 136.760 
" />
<path d="M 275.791, 136.760 
	L 275.790, 136.760 
" />
<path d="M 275.791, 136.760 
	L 275.790, 136.760 
	L 275.790, 185.539 
" />
<path d="M 275.791, 185.538 
	L 275.790, 185.539 
" />
<path d="M 275.791, 185.538 
	L 275.790, 185.539 
	L 298.458, 228.730 
" />
<path d="M 298.458, 228.729 
	L 298.458, 228.730 
" />
<path d="M 298.458, 228.729 
	L 298.458, 228.730 
" />
<path d="M 298.458, 228.729 
	L 298.458, 228.730 
	L 338.602, 256.439 
" />
<path d="M 338.603, 256.438 
	L 338.602, 256.439 
	L 387.024, 262.319 
" />
<path d="M 387.025, 262.318 
	L 387.024, 262.319 
	L 432.633, 245.022 
" />
<path d="M 432.634, 245.021 
	L 432.633, 245.022 
	L 464.979, 208.510 
" />
<path d="M 464.980, 208.509 
	L 464.979, 208.510 
" />
<path d="M 464.980, 208.509 
	L 464.979, 208.510 
	L 476.652, 161.150 
" />
<path d="M 478.491, 163.771 
	L 478.490, 163.772 
" />
<path d="M 478.491, 163.771 
	L 478.490, 163.772 
	L 466.898, 116.742 
" />
<path d="M 466.899, 116.741 
	L 466.898, 116.742 
" />
<path d="M 466.899, 116.741 
	L 466.898, 116.742 
	L 434.779, 80.487 
" />
<path d="M 434.779, 80.486 
	L 434.779, 80.487 
	L 389.490, 63.311 
" />
<path d="M 389.490, 63.310 
	L 389.490, 63.311 
" />
<path d="M 389.490, 63.310 
	L 389.490, 63.311 
	L 341.406, 69.149 
" />
<path d="M 341.407, 69.148 
	L 341.406, 69.149 
" />
<path d="M 341.407, 69.148 
	L 341.406, 69.149 
" />
<path d="M 341.407, 69.148 
	L 341.406, 69.149 
	L 301.543, 96.664 
	L 279.033, 139.553 
" />
<path d="M 279.034, 187.989 
	L 279.033, 187.990 
	L 301.543, 230.879 
	L 341.406, 258.394 
" />
<path d="M 389.490, 264.232 
	L 389.490, 264.232 
	L 434.779, 247.056 
" />
<path d="M 434.779, 247.056 
	L 434.779, 247.056 
	L 466.898, 210.801 
	L 478.490, 163.772 
" />
<path d="M 475.089, 159.519 
	L 475.089, 159.520 
	L 463.578, 112.820 
	L 431.683, 76.817 
	L 386.711, 59.762 
	L 338.964, 65.560 
	L 299.380, 92.882 
	L 277.029, 135.471 
	L 277.029, 183.569 
	L 299.380, 226.157 
" />
<path d="M 463.579, 206.219 
	L 463.578, 206.220 
	L 475.089, 159.520 
	L 463.578, 112.820 
	L 431.683, 76.817 
	L 386.711, 59.762 
	L 338.964, 65.560 
" />
<path d="M 473.819, 160.299 
	L 473.818, 160.299 
	L 462.388, 113.926 
" />
<path d="M 462.389, 113.925 
	L 462.388, 113.926 
	L 430.717, 78.176 
" />
<path d="M 430.717, 78.175 
	L 430.717, 78.176 
	L 386.060, 61.240 
" />
<path d="M 386.060, 61.239 
	L 386.060, 61.240 
	L 338.647, 66.997 
" />
<path d="M 338.647, 66.996 
	L 338.647, 66.997 
" />
<path d="M 338.647, 66.996 
	L 338.647, 66.997 
	L 299.340, 94.128 
" />
<path d="M 299.341, 94.127 
	L 299.340, 94.128 
	L 277.144, 136.419 
" />
<path d="M 277.145, 136.418 
	L 277.144, 136.419 
" />
<path d="M 277.145, 136.418 
	L 277.144, 136.419 
	L 277.144, 184.180 
" />
<path d="M 277.145, 184.179 
	L 277.144, 184.180 
" />
<path d="M 277.145, 184.179 
	L 277.144, 184.180 
	L 299.340, 226.471 
" />
<path d="M 299.341, 226.470 
	L 299.340, 226.471 
	L 338.647, 253.602 
" />
<path d="M 338.647, 253.601 
	L 338.647, 253.602 
" />
<path d="M 338.647, 253.601 
	L 338.647, 253.602 
" />
<path d="M 338.647, 253.601 
	L 338.647, 253.602 
" />
<path d="M 338.647, 253.601 
	L 338.647, 253.602 
" />
<path d="M 338.647, 253.601 
	L 338.647, 253.602 
" />
<path d="M 338.647, 253.601 
	L 338.647, 253.602 
	L 386.060, 259.359 
" />
<path d="M 386.060, 259.358 
	L 386.060, 259.359 
	L 430.717, 242.422 
" />
<path d="M 430.717, 242.422 
	L 430.717, 242.422 
	L 462.388, 206.673 
" />
<path d="M 462.389, 206.672 
	L 462.388, 206.673 
	L 473.818, 160.299 
" />
<path d="M 24.733, 325.984 
	L 24.732, 325.984 
	L 24.024, 325.984 
	L 24.024, 316.063 
	L 24.024, 308.551 
	L 18.780, 308.551 
	L 17.433, 308.551 
	L 16.193, 309.047 
	L 14.953, 309.543 
	L 13.854, 310.358 
	L 12.756, 311.173 
	L 11.976, 312.307 
" />
<path d="M 11.976, 312.307 
	L 11.197, 313.441 
	L 10.843, 314.787 
	L 10.843, 325.984 
	L 10.063, 325.984 
	L 10.063, 298.772 
	L 10.843, 298.772 
	L 10.843, 312.945 
	L 11.409, 311.811 
	L 12.260, 310.854 
	L 13.110, 309.898 
	L 14.138, 309.224 
" />
<path d="M 14.138, 309.224 
	L 15.165, 308.551 
	L 16.335, 308.197 
	L 17.504, 307.843 
	L 18.709, 307.843 
	L 21.685, 307.843 
	L 23.209, 309.898 
	L 24.732, 311.953 
	L 24.732, 316.063 
	L 24.732, 325.984 
" />
<path d="M 29.198, 325.984 
	L 29.197, 325.984 
	L 27.992, 325.984 
	L 26.858, 325.524 
	L 25.724, 325.063 
	L 24.909, 324.213 
	L 24.094, 323.362 
	L 23.598, 322.264 
	L 23.102, 321.165 
	L 23.102, 319.961 
	L 23.102, 318.685 
	L 23.669, 317.658 
" />
<path d="M 23.669, 317.658 
	L 24.236, 316.630 
	L 25.299, 315.886 
	L 26.362, 315.142 
	L 27.780, 314.717 
	L 29.197, 314.291 
	L 30.898, 314.291 
	L 32.528, 314.291 
	L 34.193, 314.575 
	L 35.858, 314.858 
	L 37.205, 315.425 
	L 37.205, 313.724 
" />
<path d="M 37.205, 313.724 
	L 37.205, 312.591 
	L 36.780, 311.634 
	L 36.354, 310.677 
	L 35.539, 310.004 
	L 34.724, 309.331 
	L 33.591, 308.941 
	L 32.457, 308.551 
	L 31.039, 308.551 
	L 29.693, 308.551 
	L 28.134, 309.012 
	L 26.575, 309.472 
" />
<path d="M 26.575, 309.472 
	L 24.945, 310.394 
	L 24.520, 309.969 
	L 28.134, 307.843 
	L 31.039, 307.843 
	L 32.598, 307.843 
	L 33.874, 308.339 
	L 35.150, 308.835 
	L 36.071, 309.721 
	L 36.992, 310.606 
	L 37.453, 311.882 
	L 37.913, 313.158 
" />
<path d="M 37.913, 313.158 
	L 37.913, 314.717 
	L 37.913, 324.567 
	L 37.913, 325.276 
	L 38.551, 325.276 
	L 38.551, 325.984 
	L 38.126, 325.984 
	L 37.984, 325.913 
	L 37.630, 325.772 
	L 37.417, 325.347 
	L 37.205, 324.921 
	L 37.205, 324.425 
" />
<path d="M 37.205, 324.425 
	L 37.205, 322.583 
	L 35.929, 324.213 
	L 33.803, 325.098 
	L 31.677, 325.984 
	L 29.197, 325.984 
	L 29.197, 325.276 
	L 31.677, 325.276 
	L 33.697, 324.319 
	L 35.717, 323.362 
	L 36.638, 321.732 
	L 37.205, 320.953 
" />
<path d="M 37.205, 320.953 
	L 37.205, 320.173 
	L 37.205, 316.276 
	L 34.299, 315.000 
	L 30.898, 315.000 
	L 29.268, 315.000 
	L 27.992, 315.354 
	L 26.717, 315.709 
	L 25.795, 316.347 
	L 24.874, 316.984 
	L 24.378, 317.906 
	L 23.882, 318.827 
" />
<path d="M 23.882, 318.827 
	L 23.882, 319.961 
	L 23.882, 321.024 
	L 24.272, 322.016 
	L 24.661, 323.008 
	L 25.406, 323.752 
	L 26.150, 324.496 
	L 27.142, 324.886 
	L 28.134, 325.276 
	L 29.197, 325.276 
" />
<path d="M 48.615, 325.984 
	L 48.614, 325.984 
	L 47.339, 325.984 
	L 46.240, 325.630 
	L 45.142, 325.276 
	L 44.150, 324.709 
	L 43.157, 324.142 
	L 42.343, 323.327 
	L 41.528, 322.512 
	L 40.961, 321.661 
	L 40.961, 335.055 
	L 40.181, 335.055 
" />
<path d="M 40.181, 335.055 
	L 40.181, 307.843 
	L 40.961, 307.843 
	L 40.961, 311.953 
	L 41.528, 311.032 
	L 42.343, 310.287 
	L 43.157, 309.543 
	L 44.150, 308.976 
	L 45.142, 308.409 
	L 46.169, 308.126 
	L 47.197, 307.843 
	L 48.331, 307.843 
" />
<path d="M 48.331, 307.843 
	L 50.315, 307.843 
	L 51.980, 308.622 
	L 53.646, 309.402 
	L 54.850, 310.713 
	L 56.055, 312.024 
	L 56.728, 313.618 
	L 57.402, 315.213 
	L 57.402, 316.913 
	L 57.402, 318.756 
	L 56.764, 320.386 
	L 56.126, 322.016 
" />
<path d="M 56.126, 322.016 
	L 54.957, 323.256 
	L 53.787, 324.496 
	L 52.193, 325.240 
	L 50.598, 325.984 
	L 48.614, 325.984 
	L 48.614, 325.276 
	L 50.457, 325.276 
	L 51.945, 324.567 
	L 53.433, 323.858 
	L 54.496, 322.654 
	L 55.559, 321.449 
" />
<path d="M 55.559, 321.449 
	L 56.091, 319.961 
	L 56.622, 318.472 
	L 56.622, 316.913 
	L 56.622, 315.284 
	L 55.984, 313.760 
	L 55.346, 312.236 
	L 54.213, 311.067 
	L 53.079, 309.898 
	L 51.555, 309.224 
	L 50.032, 308.551 
	L 48.331, 308.551 
" />
<path d="M 48.331, 308.551 
	L 47.197, 308.551 
	L 45.921, 308.976 
	L 44.646, 309.402 
	L 43.583, 310.146 
	L 42.520, 310.890 
	L 41.776, 311.882 
	L 41.032, 312.874 
	L 40.961, 313.937 
	L 40.961, 320.244 
	L 41.457, 321.307 
	L 42.236, 322.228 
" />
<path d="M 42.236, 322.228 
	L 43.016, 323.150 
	L 44.043, 323.823 
	L 45.071, 324.496 
	L 46.205, 324.886 
	L 47.339, 325.276 
	L 48.614, 325.276 
" />
<path d="M 65.835, 325.984 
	L 65.835, 325.984 
	L 64.559, 325.984 
	L 63.461, 325.630 
	L 62.362, 325.276 
	L 61.370, 324.709 
	L 60.378, 324.142 
	L 59.563, 323.327 
	L 58.748, 322.512 
	L 58.181, 321.661 
	L 58.181, 335.055 
	L 57.402, 335.055 
" />
<path d="M 57.402, 335.055 
	L 57.402, 307.843 
	L 58.181, 307.843 
	L 58.181, 311.953 
	L 58.748, 311.032 
	L 59.563, 310.287 
	L 60.378, 309.543 
	L 61.370, 308.976 
	L 62.362, 308.409 
	L 63.390, 308.126 
	L 64.417, 307.843 
	L 65.551, 307.843 
" />
<path d="M 65.551, 307.843 
	L 67.535, 307.843 
	L 69.201, 308.622 
	L 70.866, 309.402 
	L 72.071, 310.713 
	L 73.276, 312.024 
	L 73.949, 313.618 
	L 74.622, 315.213 
	L 74.622, 316.913 
	L 74.622, 318.756 
	L 73.984, 320.386 
	L 73.346, 322.016 
" />
<path d="M 73.346, 322.016 
	L 72.177, 323.256 
	L 71.008, 324.496 
	L 69.413, 325.240 
	L 67.819, 325.984 
	L 65.835, 325.984 
	L 65.835, 325.276 
	L 67.677, 325.276 
	L 69.165, 324.567 
	L 70.654, 323.858 
	L 71.717, 322.654 
	L 72.780, 321.449 
" />
<path d="M 72.780, 321.449 
	L 73.311, 319.961 
	L 73.843, 318.472 
	L 73.843, 316.913 
	L 73.843, 315.284 
	L 73.205, 313.760 
	L 72.567, 312.236 
	L 71.433, 311.067 
	L 70.299, 309.898 
	L 68.776, 309.224 
	L 67.252, 308.551 
	L 65.551, 308.551 
" />
<path d="M 65.551, 308.551 
	L 64.417, 308.551 
	L 63.142, 308.976 
	L 61.866, 309.402 
	L 60.803, 310.146 
	L 59.740, 310.890 
	L 58.996, 311.882 
	L 58.252, 312.874 
	L 58.181, 313.937 
	L 58.181, 320.244 
	L 58.677, 321.307 
	L 59.457, 322.228 
" />
<path d="M 59.457, 322.228 
	L 60.236, 323.150 
	L 61.264, 323.823 
	L 62.291, 324.496 
	L 63.425, 324.886 
	L 64.559, 325.276 
	L 65.835, 325.276 
" />
<path d="M 76.324, 334.346 
	L 76.323, 334.347 
	L 76.961, 334.347 
	L 77.421, 334.240 
	L 77.882, 334.134 
	L 78.024, 333.992 
	L 78.095, 333.921 
	L 78.236, 333.638 
	L 78.378, 333.354 
	L 78.732, 332.575 
	L 79.087, 331.795 
	L 79.654, 330.449 
" />
<path d="M 79.654, 330.449 
	L 80.220, 329.102 
	L 81.213, 326.906 
	L 72.425, 307.843 
	L 73.276, 307.843 
	L 81.567, 325.913 
	L 89.433, 307.843 
	L 90.213, 307.843 
	L 79.016, 333.709 
	L 78.591, 334.701 
	L 77.811, 334.843 
	L 77.102, 335.055 
" />
<path d="M 77.102, 335.055 
	L 76.323, 335.055 
	L 76.323, 334.347 
" />
<path d="M 90.284, 325.984 
	L 90.283, 325.984 
	L 90.283, 325.276 
	L 104.528, 325.276 
	L 104.528, 325.984 
	L 90.283, 325.984 
" />
<path d="M 117.709, 330.519 
	L 117.709, 330.520 
	L 117.709, 324.000 
	L 104.457, 324.000 
	L 104.457, 323.433 
	L 117.921, 306.496 
	L 118.417, 306.496 
	L 118.417, 323.362 
	L 121.606, 323.362 
	L 121.606, 324.000 
	L 118.417, 324.000 
" />
<path d="M 118.417, 324.000 
	L 118.417, 330.520 
	L 117.709, 330.520 
	L 105.449, 323.362 
	L 117.709, 323.362 
	L 117.709, 307.984 
	L 105.449, 323.362 
" />
<path d="M 140.883, 315.566 
	L 140.882, 315.567 
	L 140.882, 317.835 
	L 140.209, 319.748 
	L 139.535, 321.661 
	L 138.366, 323.043 
	L 137.197, 324.425 
	L 135.567, 325.205 
	L 133.937, 325.984 
	L 132.024, 325.984 
	L 130.110, 325.984 
" />
<path d="M 130.110, 325.984 
	L 128.445, 325.205 
	L 126.780, 324.425 
	L 125.610, 323.043 
	L 124.441, 321.661 
	L 123.768, 319.748 
	L 123.095, 317.835 
	L 123.095, 315.567 
	L 123.095, 313.299 
	L 123.768, 311.421 
	L 124.441, 309.543 
" />
<path d="M 124.441, 309.543 
	L 125.610, 308.126 
	L 126.780, 306.709 
	L 128.445, 305.929 
	L 130.110, 305.150 
	L 132.024, 305.150 
	L 133.937, 305.150 
	L 135.567, 305.929 
	L 137.197, 306.709 
	L 138.366, 308.126 
	L 139.535, 309.543 
" />
<path d="M 139.535, 309.543 
	L 140.209, 311.421 
	L 140.882, 313.299 
	L 140.882, 315.567 
	L 140.173, 315.638 
	L 140.173, 313.441 
	L 139.571, 311.669 
	L 138.969, 309.898 
	L 137.906, 308.622 
	L 136.843, 307.347 
	L 135.319, 306.638 
" />
<path d="M 135.319, 306.638 
	L 133.795, 305.929 
	L 132.024, 305.929 
	L 130.181, 305.929 
	L 128.693, 306.638 
	L 127.205, 307.347 
	L 126.106, 308.622 
	L 125.008, 309.898 
	L 124.406, 311.669 
	L 123.803, 313.441 
	L 123.803, 315.638 
" />
<path d="M 123.803, 315.638 
	L 123.803, 317.764 
	L 124.406, 319.535 
	L 125.008, 321.307 
	L 126.106, 322.583 
	L 127.205, 323.858 
	L 128.693, 324.567 
	L 130.181, 325.276 
	L 132.024, 325.276 
	L 133.795, 325.276 
	L 135.319, 324.567 
" />
<path d="M 135.319, 324.567 
	L 136.843, 323.858 
	L 137.906, 322.583 
	L 138.969, 321.307 
	L 139.571, 319.535 
	L 140.173, 317.764 
	L 140.173, 315.638 
" />
<path d="M 149.032, 324.991 
	L 149.032, 324.992 
	L 148.783, 325.169 
	L 148.535, 325.347 
	L 148.075, 325.524 
	L 147.614, 325.701 
	L 147.012, 325.843 
	L 146.409, 325.984 
	L 145.630, 325.984 
	L 144.283, 325.984 
	L 143.327, 325.240 
" />
<path d="M 143.327, 325.240 
	L 142.370, 324.496 
	L 142.370, 323.221 
	L 142.370, 308.622 
	L 139.606, 308.622 
	L 139.606, 307.843 
	L 142.370, 307.843 
	L 142.370, 303.307 
	L 143.079, 303.307 
	L 143.079, 307.843 
	L 147.614, 307.843 
" />
<path d="M 147.614, 307.843 
	L 147.614, 308.622 
	L 143.079, 308.622 
	L 143.079, 323.150 
	L 143.079, 324.142 
	L 143.894, 324.673 
	L 144.709, 325.205 
	L 145.630, 325.205 
	L 146.268, 325.205 
	L 146.799, 325.098 
	L 147.331, 324.992 
" />
<path d="M 147.331, 324.992 
	L 147.756, 324.850 
	L 148.181, 324.709 
	L 148.394, 324.567 
	L 148.606, 324.425 
	L 148.677, 324.425 
	L 149.032, 324.992 
" />
<path d="M 165.686, 325.984 
	L 165.685, 325.984 
	L 164.976, 325.984 
	L 164.976, 316.063 
	L 164.976, 308.551 
	L 159.732, 308.551 
	L 158.386, 308.551 
	L 157.146, 309.047 
	L 155.906, 309.543 
	L 154.807, 310.358 
	L 153.709, 311.173 
" />
<path d="M 153.709, 311.173 
	L 152.929, 312.307 
	L 152.150, 313.441 
	L 151.795, 314.787 
	L 151.795, 325.984 
	L 151.016, 325.984 
	L 151.016, 298.772 
	L 151.795, 298.772 
	L 151.795, 312.945 
	L 152.362, 311.811 
	L 153.213, 310.854 
" />
<path d="M 153.213, 310.854 
	L 154.063, 309.898 
	L 155.091, 309.224 
	L 156.118, 308.551 
	L 157.287, 308.197 
	L 158.457, 307.843 
	L 159.661, 307.843 
	L 162.638, 307.843 
	L 164.161, 309.898 
	L 165.685, 311.953 
	L 165.685, 316.063 
" />
<path d="M 165.685, 316.063 
	L 165.685, 325.984 
" />
<path d="M 163.560, 325.984 
	L 163.559, 325.984 
	L 163.559, 325.276 
	L 177.803, 325.276 
	L 177.803, 325.984 
	L 163.559, 325.984 
" />
<path d="M 180.426, 321.094 
	L 180.425, 321.095 
	L 180.425, 303.307 
	L 181.134, 303.307 
	L 181.134, 321.095 
	L 180.425, 321.095 
	L 180.425, 325.984 
	L 180.425, 323.079 
	L 181.134, 323.079 
	L 181.134, 325.984 
	L 180.425, 325.984 
" />
<path d="M 180.425, 325.984 
" />
<path d="M 178.513, 325.984 
	L 178.512, 325.984 
	L 178.512, 325.276 
	L 192.756, 325.276 
	L 192.756, 325.984 
	L 178.512, 325.984 
" />
<path d="M 213.946, 320.173 
	L 213.945, 320.173 
	L 213.945, 321.307 
	L 213.413, 322.370 
	L 212.882, 323.433 
	L 212.032, 324.248 
	L 211.181, 325.063 
	L 210.012, 325.524 
	L 208.843, 325.984 
	L 207.496, 325.984 
	L 195.591, 325.984 
" />
<path d="M 195.591, 325.984 
	L 195.591, 303.307 
	L 206.929, 303.307 
	L 208.276, 303.307 
	L 209.374, 303.839 
	L 210.472, 304.370 
	L 211.252, 305.185 
	L 212.032, 306.000 
	L 212.421, 307.028 
	L 212.811, 308.055 
	L 212.811, 309.118 
" />
<path d="M 212.811, 309.118 
	L 212.811, 310.890 
	L 211.819, 312.307 
	L 210.827, 313.724 
	L 209.126, 314.433 
	L 210.260, 314.717 
	L 211.146, 315.284 
	L 212.032, 315.850 
	L 212.669, 316.630 
	L 213.307, 317.409 
	L 213.626, 318.295 
" />
<path d="M 213.626, 318.295 
	L 213.945, 319.181 
	L 213.945, 320.173 
	L 213.236, 320.102 
	L 213.236, 319.110 
	L 212.811, 318.189 
	L 212.386, 317.268 
	L 211.642, 316.559 
	L 210.898, 315.850 
	L 209.906, 315.425 
	L 208.913, 315.000 
" />
<path d="M 208.913, 315.000 
	L 207.780, 315.000 
	L 196.299, 315.000 
	L 196.299, 325.276 
	L 207.496, 325.276 
	L 208.701, 325.276 
	L 209.728, 324.850 
	L 210.756, 324.425 
	L 211.535, 323.681 
	L 212.315, 322.937 
	L 212.776, 322.016 
" />
<path d="M 212.776, 322.016 
	L 213.236, 321.095 
	L 213.236, 320.102 
	L 196.299, 304.087 
	L 196.299, 314.291 
	L 206.717, 314.291 
	L 207.921, 314.291 
	L 208.913, 313.831 
	L 209.906, 313.370 
	L 210.614, 312.661 
	L 211.323, 311.953 
" />
<path d="M 211.323, 311.953 
	L 211.713, 311.032 
	L 212.102, 310.110 
	L 212.102, 309.189 
	L 212.102, 308.197 
	L 211.713, 307.276 
	L 211.323, 306.354 
	L 210.650, 305.646 
	L 209.976, 304.937 
	L 209.020, 304.512 
	L 208.063, 304.087 
" />
<path d="M 208.063, 304.087 
	L 206.929, 304.087 
	L 196.299, 304.087 
" />
<path d="M 221.032, 325.984 
	L 221.032, 325.984 
	L 219.047, 325.984 
	L 217.382, 325.205 
	L 215.717, 324.425 
	L 214.512, 323.150 
	L 213.307, 321.874 
	L 212.634, 320.244 
	L 211.961, 318.614 
	L 211.961, 316.913 
	L 211.961, 315.071 
" />
<path d="M 211.961, 315.071 
	L 212.598, 313.441 
	L 213.236, 311.811 
	L 214.441, 310.571 
	L 215.646, 309.331 
	L 217.240, 308.587 
	L 218.835, 307.843 
	L 220.677, 307.843 
	L 222.024, 307.843 
	L 223.158, 308.232 
	L 224.291, 308.622 
" />
<path d="M 224.291, 308.622 
	L 225.283, 309.224 
	L 226.276, 309.827 
	L 227.055, 310.677 
	L 227.835, 311.528 
	L 228.402, 312.449 
	L 228.402, 298.772 
	L 229.110, 298.772 
	L 229.110, 324.496 
	L 229.110, 325.276 
	L 229.677, 325.276 
" />
<path d="M 229.677, 325.276 
	L 229.677, 325.984 
	L 229.394, 325.984 
	L 229.252, 325.913 
	L 228.827, 325.772 
	L 228.614, 325.417 
	L 228.402, 325.063 
	L 228.402, 324.638 
	L 228.402, 322.299 
	L 227.764, 323.079 
	L 226.949, 323.752 
" />
<path d="M 226.949, 323.752 
	L 226.134, 324.425 
	L 225.177, 324.957 
	L 224.221, 325.488 
	L 223.158, 325.736 
	L 222.095, 325.984 
	L 221.032, 325.984 
	L 221.032, 325.276 
	L 222.095, 325.276 
	L 223.370, 324.850 
	L 224.646, 324.425 
" />
<path d="M 224.646, 324.425 
	L 225.744, 323.717 
	L 226.843, 323.008 
	L 227.587, 322.051 
	L 228.331, 321.095 
	L 228.402, 320.032 
	L 228.402, 313.937 
	L 227.976, 312.803 
	L 227.161, 311.847 
	L 226.346, 310.890 
	L 225.283, 310.146 
" />
<path d="M 225.283, 310.146 
	L 224.221, 309.402 
	L 223.016, 308.976 
	L 221.811, 308.551 
	L 220.677, 308.551 
	L 218.835, 308.551 
	L 217.382, 309.260 
	L 215.929, 309.969 
	L 214.866, 311.173 
	L 213.803, 312.378 
	L 213.236, 313.866 
" />
<path d="M 213.236, 313.866 
	L 212.669, 315.354 
	L 212.669, 316.913 
	L 212.669, 318.614 
	L 213.343, 320.102 
	L 214.016, 321.591 
	L 215.114, 322.760 
	L 216.213, 323.929 
	L 217.736, 324.602 
	L 219.260, 325.276 
	L 221.032, 325.276 
" />
<path d="M 221.032, 325.276 
" />
<path d="M 235.418, 325.984 
	L 235.417, 325.984 
	L 234.213, 325.984 
	L 233.079, 325.524 
	L 231.945, 325.063 
	L 231.130, 324.213 
	L 230.315, 323.362 
	L 229.819, 322.264 
	L 229.323, 321.165 
	L 229.323, 319.961 
	L 229.323, 318.685 
" />
<path d="M 229.323, 318.685 
	L 229.890, 317.658 
	L 230.457, 316.630 
	L 231.520, 315.886 
	L 232.583, 315.142 
	L 234.000, 314.717 
	L 235.417, 314.291 
	L 237.118, 314.291 
	L 238.748, 314.291 
	L 240.413, 314.575 
	L 242.079, 314.858 
" />
<path d="M 242.079, 314.858 
	L 243.425, 315.425 
	L 243.425, 313.724 
	L 243.425, 312.591 
	L 243.000, 311.634 
	L 242.575, 310.677 
	L 241.760, 310.004 
	L 240.945, 309.331 
	L 239.811, 308.941 
	L 238.677, 308.551 
	L 237.260, 308.551 
" />
<path d="M 237.260, 308.551 
	L 235.913, 308.551 
	L 234.354, 309.012 
	L 232.795, 309.472 
	L 231.165, 310.394 
	L 230.740, 309.969 
	L 234.354, 307.843 
	L 237.260, 307.843 
	L 238.819, 307.843 
	L 240.095, 308.339 
	L 241.370, 308.835 
" />
<path d="M 241.370, 308.835 
	L 242.291, 309.721 
	L 243.213, 310.606 
	L 243.673, 311.882 
	L 244.134, 313.158 
	L 244.134, 314.717 
	L 244.134, 324.567 
	L 244.134, 325.276 
	L 244.772, 325.276 
	L 244.772, 325.984 
	L 244.346, 325.984 
" />
<path d="M 244.346, 325.984 
	L 244.205, 325.913 
	L 243.850, 325.772 
	L 243.638, 325.347 
	L 243.425, 324.921 
	L 243.425, 324.425 
	L 243.425, 322.583 
	L 242.150, 324.213 
	L 240.024, 325.098 
	L 237.898, 325.984 
	L 235.417, 325.984 
" />
<path d="M 235.417, 325.984 
	L 235.417, 325.276 
	L 237.898, 325.276 
	L 239.917, 324.319 
	L 241.937, 323.362 
	L 242.858, 321.732 
	L 243.425, 320.953 
	L 243.425, 320.173 
	L 243.425, 316.276 
	L 240.520, 315.000 
	L 237.118, 315.000 
" />
<path d="M 237.118, 315.000 
	L 235.488, 315.000 
	L 234.213, 315.354 
	L 232.937, 315.709 
	L 232.016, 316.347 
	L 231.095, 316.984 
	L 230.598, 317.906 
	L 230.102, 318.827 
	L 230.102, 319.961 
	L 230.102, 321.024 
	L 230.492, 322.016 
" />
<path d="M 230.492, 322.016 
	L 230.882, 323.008 
	L 231.626, 323.752 
	L 232.370, 324.496 
	L 233.362, 324.886 
	L 234.354, 325.276 
	L 235.417, 325.276 
" />
<path d="M 248.103, 334.346 
	L 248.102, 334.347 
	L 248.740, 334.347 
	L 249.201, 334.240 
	L 249.661, 334.134 
	L 249.803, 333.992 
	L 249.874, 333.921 
	L 250.016, 333.638 
	L 250.158, 333.354 
	L 250.512, 332.575 
	L 250.866, 331.795 
" />
<path d="M 250.866, 331.795 
	L 251.433, 330.449 
	L 252.000, 329.102 
	L 252.992, 326.906 
	L 244.205, 307.843 
	L 245.055, 307.843 
	L 253.346, 325.913 
	L 261.213, 307.843 
	L 261.992, 307.843 
	L 250.795, 333.709 
	L 250.370, 334.701 
" />
<path d="M 250.370, 334.701 
	L 249.591, 334.843 
	L 248.882, 335.055 
	L 248.102, 335.055 
	L 248.102, 334.347 
" />
<path d="M 262.064, 325.984 
	L 262.063, 325.984 
	L 262.063, 325.276 
	L 276.307, 325.276 
	L 276.307, 325.984 
	L 262.063, 325.984 
" />
<path d="M 277.371, 314.432 
	L 277.370, 314.433 
	L 277.370, 312.449 
	L 278.185, 310.465 
	L 279.000, 308.480 
	L 280.524, 306.886 
	L 282.047, 305.291 
	L 284.315, 304.299 
	L 286.583, 303.307 
	L 289.488, 303.307 
	L 292.961, 303.307 
" />
<path d="M 292.961, 303.307 
	L 295.335, 304.795 
	L 297.709, 306.284 
	L 298.913, 308.551 
	L 298.205, 308.764 
	L 297.425, 307.488 
	L 296.433, 306.567 
	L 295.441, 305.646 
	L 294.272, 305.114 
	L 293.102, 304.583 
	L 291.862, 304.335 
" />
<path d="M 291.862, 304.335 
	L 290.622, 304.087 
	L 289.347, 304.087 
	L 286.654, 304.087 
	L 284.563, 305.008 
	L 282.472, 305.929 
	L 281.020, 307.417 
	L 279.567, 308.906 
	L 278.823, 310.784 
	L 278.079, 312.661 
	L 278.079, 314.575 
" />
<path d="M 278.079, 314.575 
	L 278.079, 316.701 
	L 278.965, 318.650 
	L 279.850, 320.598 
	L 281.374, 322.051 
	L 282.898, 323.504 
	L 284.988, 324.390 
	L 287.079, 325.276 
	L 289.488, 325.276 
	L 290.764, 325.276 
	L 292.075, 324.992 
" />
<path d="M 292.075, 324.992 
	L 293.386, 324.709 
	L 294.661, 324.177 
	L 295.937, 323.646 
	L 297.000, 322.760 
	L 298.063, 321.874 
	L 298.843, 320.669 
	L 299.480, 320.882 
	L 298.843, 322.087 
	L 297.709, 323.079 
	L 296.575, 324.071 
" />
<path d="M 296.575, 324.071 
	L 295.228, 324.709 
	L 293.882, 325.347 
	L 292.323, 325.665 
	L 290.764, 325.984 
	L 289.347, 325.984 
	L 286.724, 325.984 
	L 284.492, 324.992 
	L 282.260, 324.000 
	L 280.701, 322.370 
	L 279.142, 320.740 
" />
<path d="M 279.142, 320.740 
	L 278.256, 318.685 
	L 277.370, 316.630 
	L 277.370, 314.433 
" />
<path d="M 308.268, 325.984 
	L 308.268, 325.984 
	L 306.354, 325.984 
	L 304.724, 325.276 
	L 303.095, 324.567 
	L 301.890, 323.327 
	L 300.685, 322.087 
	L 299.976, 320.421 
	L 299.268, 318.756 
	L 299.268, 316.913 
	L 299.268, 315.071 
" />
<path d="M 299.268, 315.071 
	L 299.976, 313.441 
	L 300.685, 311.811 
	L 301.925, 310.571 
	L 303.165, 309.331 
	L 304.795, 308.587 
	L 306.425, 307.843 
	L 308.268, 307.843 
	L 310.039, 307.843 
	L 311.669, 308.587 
	L 313.299, 309.331 
" />
<path d="M 313.299, 309.331 
	L 314.539, 310.571 
	L 315.780, 311.811 
	L 316.488, 313.441 
	L 317.197, 315.071 
	L 317.197, 316.913 
	L 317.197, 318.756 
	L 316.488, 320.421 
	L 315.780, 322.087 
	L 314.575, 323.327 
	L 313.370, 324.567 
" />
<path d="M 313.370, 324.567 
	L 311.740, 325.276 
	L 310.110, 325.984 
	L 308.268, 325.984 
	L 299.976, 316.984 
	L 299.976, 318.685 
	L 300.650, 320.209 
	L 301.323, 321.732 
	L 302.421, 322.831 
	L 303.520, 323.929 
	L 305.008, 324.602 
" />
<path d="M 305.008, 324.602 
	L 306.496, 325.276 
	L 308.197, 325.276 
	L 309.898, 325.276 
	L 311.386, 324.602 
	L 312.874, 323.929 
	L 314.008, 322.795 
	L 315.142, 321.661 
	L 315.815, 320.138 
	L 316.488, 318.614 
	L 316.488, 316.913 
" />
<path d="M 316.488, 316.913 
	L 316.488, 315.213 
	L 315.815, 313.689 
	L 315.142, 312.165 
	L 314.043, 311.032 
	L 312.945, 309.898 
	L 311.421, 309.224 
	L 309.898, 308.551 
	L 308.268, 308.551 
	L 306.567, 308.551 
	L 305.043, 309.224 
" />
<path d="M 305.043, 309.224 
	L 303.520, 309.898 
	L 302.421, 311.067 
	L 301.323, 312.236 
	L 300.650, 313.760 
	L 299.976, 315.284 
	L 299.976, 316.984 
" />
<path d="M 326.552, 308.692 
	L 326.551, 308.693 
	L 323.858, 308.693 
	L 321.909, 310.287 
	L 319.961, 311.882 
	L 319.252, 314.646 
	L 319.252, 325.984 
	L 318.472, 325.984 
	L 318.472, 307.843 
	L 319.252, 307.843 
	L 319.252, 312.732 
" />
<path d="M 319.252, 312.732 
	L 320.244, 310.677 
	L 321.874, 309.402 
	L 323.504, 308.126 
	L 325.347, 307.843 
	L 325.701, 307.843 
	L 326.020, 307.843 
	L 326.339, 307.843 
	L 326.551, 307.843 
	L 326.551, 308.693 
" />
<path d="M 341.221, 325.984 
	L 341.221, 325.984 
	L 340.512, 325.984 
	L 340.512, 316.063 
	L 340.512, 312.095 
	L 339.343, 310.323 
	L 338.173, 308.551 
	L 335.622, 308.551 
	L 334.276, 308.551 
	L 332.965, 309.012 
	L 331.654, 309.472 
" />
<path d="M 331.654, 309.472 
	L 330.520, 310.323 
	L 329.386, 311.173 
	L 328.535, 312.307 
	L 327.685, 313.441 
	L 327.331, 314.787 
	L 327.331, 325.984 
	L 326.551, 325.984 
	L 326.551, 307.843 
	L 327.331, 307.843 
	L 327.331, 312.945 
" />
<path d="M 327.331, 312.945 
	L 327.898, 311.811 
	L 328.819, 310.854 
	L 329.740, 309.898 
	L 330.803, 309.260 
	L 331.866, 308.622 
	L 333.106, 308.232 
	L 334.347, 307.843 
	L 335.622, 307.843 
	L 338.528, 307.843 
	L 339.874, 309.827 
" />
<path d="M 339.874, 309.827 
	L 341.221, 311.811 
	L 341.221, 316.063 
	L 341.221, 325.984 
" />
<path d="M 349.016, 325.984 
	L 349.016, 325.984 
	L 347.173, 325.984 
	L 345.508, 325.276 
	L 343.843, 324.567 
	L 342.638, 323.291 
	L 341.433, 322.016 
	L 340.689, 320.350 
	L 339.945, 318.685 
	L 339.945, 316.772 
	L 339.945, 314.929 
" />
<path d="M 339.945, 314.929 
	L 340.654, 313.299 
	L 341.362, 311.669 
	L 342.567, 310.465 
	L 343.772, 309.260 
	L 345.366, 308.551 
	L 346.961, 307.843 
	L 348.874, 307.843 
	L 350.717, 307.843 
	L 352.382, 308.374 
	L 354.047, 308.906 
" />
<path d="M 354.047, 308.906 
	L 355.252, 309.827 
	L 356.457, 310.748 
	L 357.201, 311.988 
	L 357.945, 313.228 
	L 357.945, 314.646 
	L 357.945, 314.929 
	L 340.654, 314.929 
	L 340.795, 317.126 
	L 341.504, 319.004 
	L 342.213, 320.882 
" />
<path d="M 342.213, 320.882 
	L 343.347, 322.264 
	L 344.480, 323.646 
	L 345.969, 324.461 
	L 347.457, 325.276 
	L 349.087, 325.276 
	L 350.150, 325.276 
	L 351.177, 324.921 
	L 352.205, 324.567 
	L 353.126, 323.965 
	L 354.047, 323.362 
" />
<path d="M 354.047, 323.362 
	L 354.721, 322.512 
	L 355.394, 321.661 
	L 355.819, 320.598 
	L 356.528, 320.811 
	L 356.102, 321.945 
	L 355.358, 322.866 
	L 354.614, 323.787 
	L 353.622, 324.496 
	L 352.630, 325.205 
	L 351.425, 325.595 
" />
<path d="M 351.425, 325.595 
	L 350.221, 325.984 
	L 349.016, 325.984 
	L 357.165, 314.291 
	L 357.024, 313.016 
	L 356.350, 311.988 
	L 355.677, 310.961 
	L 354.579, 310.181 
	L 353.480, 309.402 
	L 352.028, 308.976 
	L 350.575, 308.551 
" />
<path d="M 350.575, 308.551 
	L 348.874, 308.551 
	L 347.173, 308.551 
	L 345.756, 308.976 
	L 344.339, 309.402 
	L 343.205, 310.181 
	L 342.071, 310.961 
	L 341.433, 312.024 
	L 340.795, 313.087 
	L 340.654, 314.291 
	L 357.165, 314.291 
" />
<path d="M 357.165, 314.291 
" />
<path d="M 367.016, 325.984 
	L 367.016, 325.984 
	L 365.173, 325.984 
	L 363.508, 325.276 
	L 361.843, 324.567 
	L 360.638, 323.291 
	L 359.433, 322.016 
	L 358.689, 320.350 
	L 357.945, 318.685 
	L 357.945, 316.772 
	L 357.945, 314.929 
" />
<path d="M 357.945, 314.929 
	L 358.654, 313.299 
	L 359.362, 311.669 
	L 360.567, 310.465 
	L 361.772, 309.260 
	L 363.366, 308.551 
	L 364.961, 307.843 
	L 366.874, 307.843 
	L 368.717, 307.843 
	L 370.382, 308.374 
	L 372.047, 308.906 
" />
<path d="M 372.047, 308.906 
	L 373.252, 309.827 
	L 374.457, 310.748 
	L 375.201, 311.988 
	L 375.945, 313.228 
	L 375.945, 314.646 
	L 375.945, 314.929 
	L 358.654, 314.929 
	L 358.795, 317.126 
	L 359.504, 319.004 
	L 360.213, 320.882 
" />
<path d="M 360.213, 320.882 
	L 361.347, 322.264 
	L 362.480, 323.646 
	L 363.969, 324.461 
	L 365.457, 325.276 
	L 367.087, 325.276 
	L 368.150, 325.276 
	L 369.177, 324.921 
	L 370.205, 324.567 
	L 371.126, 323.965 
	L 372.047, 323.362 
" />
<path d="M 372.047, 323.362 
	L 372.721, 322.512 
	L 373.394, 321.661 
	L 373.819, 320.598 
	L 374.528, 320.811 
	L 374.102, 321.945 
	L 373.358, 322.866 
	L 372.614, 323.787 
	L 371.622, 324.496 
	L 370.630, 325.205 
	L 369.425, 325.595 
" />
<path d="M 369.425, 325.595 
	L 368.221, 325.984 
	L 367.016, 325.984 
	L 375.165, 314.291 
	L 375.024, 313.016 
	L 374.350, 311.988 
	L 373.677, 310.961 
	L 372.579, 310.181 
	L 371.480, 309.402 
	L 370.028, 308.976 
	L 368.575, 308.551 
" />
<path d="M 368.575, 308.551 
	L 366.874, 308.551 
	L 365.173, 308.551 
	L 363.756, 308.976 
	L 362.339, 309.402 
	L 361.205, 310.181 
	L 360.071, 310.961 
	L 359.433, 312.024 
	L 358.795, 313.087 
	L 358.654, 314.291 
	L 375.165, 314.291 
" />
<path d="M 375.165, 314.291 
" />
<path d="M 377.434, 298.771 
	L 377.433, 298.772 
	L 378.142, 298.772 
	L 378.142, 322.937 
	L 378.142, 324.000 
	L 378.815, 324.638 
	L 379.488, 325.276 
	L 380.551, 325.276 
	L 380.976, 325.276 
	L 381.543, 325.169 
	L 382.110, 325.063 
" />
<path d="M 382.110, 325.063 
	L 382.535, 324.921 
	L 382.819, 325.488 
	L 382.323, 325.701 
	L 381.579, 325.843 
	L 380.835, 325.984 
	L 380.339, 325.984 
	L 379.063, 325.984 
	L 378.248, 325.134 
	L 377.433, 324.284 
	L 377.433, 322.937 
" />
<path d="M 377.433, 322.937 
	L 377.433, 298.772 
" />
</g>
</svg>
