<?xml version="1.0" encoding="UTF-8" standalone="no" ?>
<svg width="100%" height="100%" viewBox="0 0 1486.772 270.638" xmlns="http://www.w3.org/2000/svg"><g>
</g><g style="stroke:rgb(0,0,0); fill:none; stroke-width:1.000mm" >
</g><g style="stroke:rgb(255,0,0); fill:none; stroke-width:0.100mm" >
<path d="M 344.410, 281.267 
	L 344.410, 281.268 
	L 344.410, 260.008 
	L 358.583, 260.008 
	L 358.583, 281.268 
	L 344.410, 281.268 
" />
<path d="M 340.158, 260.078 
	L 340.158, 260.079 
	L 340.158, 238.677 
	L 354.331, 238.677 
	L 354.331, 260.079 
	L 340.158, 260.079 
" />
<path d="M 327.402, 238.889 
	L 327.402, 238.890 
	L 327.402, 217.346 
	L 341.575, 217.346 
	L 341.575, 238.890 
	L 327.402, 238.890 
" />
<path d="M 306.142, 217.700 
	L 306.142, 217.701 
	L 306.142, 196.016 
	L 320.315, 196.016 
	L 320.315, 217.701 
	L 306.142, 217.701 
" />
<path d="M 276.379, 196.511 
	L 276.378, 196.512 
	L 276.378, 174.685 
	L 290.551, 174.685 
	L 290.551, 196.512 
	L 276.378, 196.512 
" />
<path d="M 238.111, 175.322 
	L 238.110, 175.323 
	L 238.110, 153.354 
	L 252.284, 153.354 
	L 252.284, 175.323 
	L 238.110, 175.323 
" />
<path d="M 191.339, 154.133 
	L 191.339, 154.134 
	L 191.339, 132.024 
	L 205.512, 132.024 
	L 205.512, 154.134 
	L 191.339, 154.134 
" />
<path d="M 136.064, 132.944 
	L 136.063, 132.945 
	L 136.063, 110.693 
	L 150.236, 110.693 
	L 150.236, 132.945 
	L 136.063, 132.945 
" />
<path d="M 72.284, 111.755 
	L 72.283, 111.756 
	L 72.283, 89.362 
	L 86.457, 89.362 
	L 86.457, 111.756 
	L 72.283, 111.756 
" />
<path d="M 0.001, 90.566 
	L 0.000, 90.567 
	L 0.000, 68.032 
	L 14.173, 68.032 
	L 14.173, 90.567 
	L 0.000, 90.567 
" />
<path d="M 372.580, 281.267 
	L 372.579, 281.268 
	L 372.579, 260.008 
	L 387.106, 260.008 
	L 387.106, 281.268 
	L 372.579, 281.268 
" />
<path d="M 368.328, 259.369 
	L 368.327, 259.370 
	L 368.327, 237.969 
	L 382.854, 237.969 
	L 382.854, 259.370 
	L 368.327, 259.370 
" />
<path d="M 355.572, 237.472 
	L 355.571, 237.472 
	L 355.571, 215.929 
	L 370.098, 215.929 
	L 370.098, 237.472 
	L 355.571, 237.472 
" />
<path d="M 334.312, 215.574 
	L 334.311, 215.575 
	L 334.311, 193.890 
	L 348.839, 193.890 
	L 348.839, 215.575 
	L 334.311, 215.575 
" />
<path d="M 304.548, 193.676 
	L 304.547, 193.677 
	L 304.547, 171.850 
	L 319.075, 171.850 
	L 319.075, 193.677 
	L 304.547, 193.677 
" />
<path d="M 266.280, 171.779 
	L 266.280, 171.780 
	L 266.280, 149.811 
	L 280.807, 149.811 
	L 280.807, 171.780 
	L 266.280, 171.780 
" />
<path d="M 219.509, 149.881 
	L 219.508, 149.882 
	L 219.508, 127.772 
	L 234.035, 127.772 
	L 234.035, 149.882 
	L 219.508, 149.882 
" />
<path d="M 164.233, 127.984 
	L 164.232, 127.984 
	L 164.232, 105.732 
	L 178.760, 105.732 
	L 178.760, 127.984 
	L 164.232, 127.984 
" />
<path d="M 100.453, 106.086 
	L 100.453, 106.087 
	L 100.453, 83.693 
	L 114.980, 83.693 
	L 114.980, 106.087 
	L 100.453, 106.087 
" />
<path d="M 28.170, 84.188 
	L 28.169, 84.189 
	L 28.169, 61.654 
	L 42.697, 61.654 
	L 42.697, 84.189 
	L 28.169, 84.189 
" />
<path d="M 400.749, 281.267 
	L 400.748, 281.268 
	L 400.748, 260.008 
	L 415.630, 260.008 
	L 415.630, 281.268 
	L 400.748, 281.268 
" />
<path d="M 396.497, 258.661 
	L 396.496, 258.661 
	L 396.496, 237.260 
	L 411.378, 237.260 
	L 411.378, 258.661 
	L 396.496, 258.661 
" />
<path d="M 383.741, 236.054 
	L 383.740, 236.055 
	L 383.740, 214.512 
	L 398.622, 214.512 
	L 398.622, 236.055 
	L 383.740, 236.055 
" />
<path d="M 362.481, 213.448 
	L 362.480, 213.449 
	L 362.480, 191.764 
	L 377.362, 191.764 
	L 377.362, 213.449 
	L 362.480, 213.449 
" />
<path d="M 332.717, 190.842 
	L 332.717, 190.843 
	L 332.717, 169.016 
	L 347.598, 169.016 
	L 347.598, 190.843 
	L 332.717, 190.843 
" />
<path d="M 294.450, 168.236 
	L 294.449, 168.236 
	L 294.449, 146.268 
	L 309.331, 146.268 
	L 309.331, 168.236 
	L 294.449, 168.236 
" />
<path d="M 247.678, 145.629 
	L 247.677, 145.630 
	L 247.677, 123.520 
	L 262.559, 123.520 
	L 262.559, 145.630 
	L 247.677, 145.630 
" />
<path d="M 192.402, 123.023 
	L 192.402, 123.024 
	L 192.402, 100.772 
	L 207.283, 100.772 
	L 207.283, 123.024 
	L 192.402, 123.024 
" />
<path d="M 128.623, 100.417 
	L 128.622, 100.417 
	L 128.622, 78.024 
	L 143.504, 78.024 
	L 143.504, 100.417 
	L 128.622, 100.417 
" />
<path d="M 56.339, 77.810 
	L 56.339, 77.811 
	L 56.339, 55.276 
	L 71.220, 55.276 
	L 71.220, 77.811 
	L 56.339, 77.811 
" />
<path d="M 428.918, 281.267 
	L 428.917, 281.268 
	L 428.917, 260.008 
	L 444.154, 260.008 
	L 444.154, 281.268 
	L 428.917, 281.268 
" />
<path d="M 424.666, 257.952 
	L 424.665, 257.953 
	L 424.665, 236.551 
	L 439.902, 236.551 
	L 439.902, 257.953 
	L 424.665, 257.953 
" />
<path d="M 411.910, 234.637 
	L 411.910, 234.638 
	L 411.910, 213.095 
	L 427.146, 213.095 
	L 427.146, 234.638 
	L 411.910, 234.638 
" />
<path d="M 390.650, 211.322 
	L 390.650, 211.323 
	L 390.650, 189.638 
	L 405.886, 189.638 
	L 405.886, 211.323 
	L 390.650, 211.323 
" />
<path d="M 360.887, 188.007 
	L 360.886, 188.008 
	L 360.886, 166.181 
	L 376.122, 166.181 
	L 376.122, 188.008 
	L 360.886, 188.008 
" />
<path d="M 322.619, 164.692 
	L 322.618, 164.693 
	L 322.618, 142.724 
	L 337.854, 142.724 
	L 337.854, 164.693 
	L 322.618, 164.693 
" />
<path d="M 275.847, 141.377 
	L 275.846, 141.378 
	L 275.846, 119.268 
	L 291.083, 119.268 
	L 291.083, 141.378 
	L 275.846, 141.378 
" />
<path d="M 220.572, 118.062 
	L 220.571, 118.063 
	L 220.571, 95.811 
	L 235.807, 95.811 
	L 235.807, 118.063 
	L 220.571, 118.063 
" />
<path d="M 156.792, 94.747 
	L 156.791, 94.748 
	L 156.791, 72.354 
	L 172.028, 72.354 
	L 172.028, 94.748 
	L 156.791, 94.748 
" />
<path d="M 84.509, 71.432 
	L 84.508, 71.433 
	L 84.508, 48.898 
	L 99.744, 48.898 
	L 99.744, 71.433 
	L 84.508, 71.433 
" />
<path d="M 457.087, 281.267 
	L 457.087, 281.268 
	L 457.087, 260.008 
	L 472.677, 260.008 
	L 472.677, 281.268 
	L 457.087, 281.268 
" />
<path d="M 452.835, 257.243 
	L 452.835, 257.244 
	L 452.835, 235.843 
	L 468.425, 235.843 
	L 468.425, 257.244 
	L 452.835, 257.244 
" />
<path d="M 440.080, 233.220 
	L 440.079, 233.221 
	L 440.079, 211.677 
	L 455.669, 211.677 
	L 455.669, 233.221 
	L 440.079, 233.221 
" />
<path d="M 418.820, 209.196 
	L 418.819, 209.197 
	L 418.819, 187.512 
	L 434.410, 187.512 
	L 434.410, 209.197 
	L 418.819, 209.197 
" />
<path d="M 389.056, 185.173 
	L 389.055, 185.173 
	L 389.055, 163.346 
	L 404.646, 163.346 
	L 404.646, 185.173 
	L 389.055, 185.173 
" />
<path d="M 350.788, 161.149 
	L 350.787, 161.150 
	L 350.787, 139.181 
	L 366.378, 139.181 
	L 366.378, 161.150 
	L 350.787, 161.150 
" />
<path d="M 304.017, 137.125 
	L 304.016, 137.126 
	L 304.016, 115.016 
	L 319.606, 115.016 
	L 319.606, 137.126 
	L 304.016, 137.126 
" />
<path d="M 248.741, 113.102 
	L 248.740, 113.102 
	L 248.740, 90.850 
	L 264.331, 90.850 
	L 264.331, 113.102 
	L 248.740, 113.102 
" />
<path d="M 184.961, 89.078 
	L 184.961, 89.079 
	L 184.961, 66.685 
	L 200.551, 66.685 
	L 200.551, 89.079 
	L 184.961, 89.079 
" />
<path d="M 112.678, 65.054 
	L 112.677, 65.055 
	L 112.677, 42.520 
	L 128.268, 42.520 
	L 128.268, 65.055 
	L 112.677, 65.055 
" />
<path d="M 485.257, 281.267 
	L 485.256, 281.268 
	L 485.256, 260.008 
	L 501.201, 260.008 
	L 501.201, 281.268 
	L 485.256, 281.268 
" />
<path d="M 481.005, 256.535 
	L 481.004, 256.535 
	L 481.004, 235.134 
	L 496.949, 235.134 
	L 496.949, 256.535 
	L 481.004, 256.535 
" />
<path d="M 468.249, 231.802 
	L 468.248, 231.803 
	L 468.248, 210.260 
	L 484.193, 210.260 
	L 484.193, 231.803 
	L 468.248, 231.803 
" />
<path d="M 446.989, 207.070 
	L 446.988, 207.071 
	L 446.988, 185.386 
	L 462.933, 185.386 
	L 462.933, 207.071 
	L 446.988, 207.071 
" />
<path d="M 417.225, 182.338 
	L 417.224, 182.339 
	L 417.224, 160.512 
	L 433.169, 160.512 
	L 433.169, 182.339 
	L 417.224, 182.339 
" />
<path d="M 378.957, 157.606 
	L 378.957, 157.606 
	L 378.957, 135.638 
	L 394.902, 135.638 
	L 394.902, 157.606 
	L 378.957, 157.606 
" />
<path d="M 332.186, 132.873 
	L 332.185, 132.874 
	L 332.185, 110.764 
	L 348.130, 110.764 
	L 348.130, 132.874 
	L 332.185, 132.874 
" />
<path d="M 276.910, 108.141 
	L 276.909, 108.142 
	L 276.909, 85.890 
	L 292.854, 85.890 
	L 292.854, 108.142 
	L 276.909, 108.142 
" />
<path d="M 213.131, 83.409 
	L 213.130, 83.409 
	L 213.130, 61.016 
	L 229.075, 61.016 
	L 229.075, 83.409 
	L 213.130, 83.409 
" />
<path d="M 140.847, 58.676 
	L 140.846, 58.677 
	L 140.846, 36.142 
	L 156.791, 36.142 
	L 156.791, 58.677 
	L 140.846, 58.677 
" />
<path d="M 513.426, 281.267 
	L 513.425, 281.268 
	L 513.425, 260.008 
	L 529.724, 260.008 
	L 529.724, 281.268 
	L 513.425, 281.268 
" />
<path d="M 509.174, 255.826 
	L 509.173, 255.827 
	L 509.173, 234.425 
	L 525.473, 234.425 
	L 525.473, 255.827 
	L 509.173, 255.827 
" />
<path d="M 496.418, 230.385 
	L 496.417, 230.386 
	L 496.417, 208.843 
	L 512.717, 208.843 
	L 512.717, 230.386 
	L 496.417, 230.386 
" />
<path d="M 475.158, 204.944 
	L 475.158, 204.945 
	L 475.158, 183.260 
	L 491.457, 183.260 
	L 491.457, 204.945 
	L 475.158, 204.945 
" />
<path d="M 445.394, 179.503 
	L 445.394, 179.504 
	L 445.394, 157.677 
	L 461.693, 157.677 
	L 461.693, 179.504 
	L 445.394, 179.504 
" />
<path d="M 407.127, 154.062 
	L 407.126, 154.063 
	L 407.126, 132.095 
	L 423.425, 132.095 
	L 423.425, 154.063 
	L 407.126, 154.063 
" />
<path d="M 360.355, 128.621 
	L 360.354, 128.622 
	L 360.354, 106.512 
	L 376.654, 106.512 
	L 376.654, 128.622 
	L 360.354, 128.622 
" />
<path d="M 305.079, 103.180 
	L 305.079, 103.181 
	L 305.079, 80.929 
	L 321.378, 80.929 
	L 321.378, 103.181 
	L 305.079, 103.181 
" />
<path d="M 241.300, 77.739 
	L 241.299, 77.740 
	L 241.299, 55.346 
	L 257.598, 55.346 
	L 257.598, 77.740 
	L 241.299, 77.740 
" />
<path d="M 169.016, 52.299 
	L 169.016, 52.299 
	L 169.016, 29.764 
	L 185.315, 29.764 
	L 185.315, 52.299 
	L 169.016, 52.299 
" />
<path d="M 541.595, 281.267 
	L 541.595, 281.268 
	L 541.595, 260.008 
	L 558.248, 260.008 
	L 558.248, 281.268 
	L 541.595, 281.268 
" />
<path d="M 537.343, 255.117 
	L 537.343, 255.118 
	L 537.343, 233.717 
	L 553.996, 233.717 
	L 553.996, 255.118 
	L 537.343, 255.118 
" />
<path d="M 524.587, 228.968 
	L 524.587, 228.969 
	L 524.587, 207.425 
	L 541.240, 207.425 
	L 541.240, 228.969 
	L 524.587, 228.969 
" />
<path d="M 503.328, 202.818 
	L 503.327, 202.819 
	L 503.327, 181.134 
	L 519.980, 181.134 
	L 519.980, 202.819 
	L 503.327, 202.819 
" />
<path d="M 473.564, 176.669 
	L 473.563, 176.669 
	L 473.563, 154.843 
	L 490.217, 154.843 
	L 490.217, 176.669 
	L 473.563, 176.669 
" />
<path d="M 435.296, 150.519 
	L 435.295, 150.520 
	L 435.295, 128.551 
	L 451.949, 128.551 
	L 451.949, 150.520 
	L 435.295, 150.520 
" />
<path d="M 388.524, 124.369 
	L 388.524, 124.370 
	L 388.524, 102.260 
	L 405.177, 102.260 
	L 405.177, 124.370 
	L 388.524, 124.370 
" />
<path d="M 333.249, 98.220 
	L 333.248, 98.220 
	L 333.248, 75.969 
	L 349.902, 75.969 
	L 349.902, 98.220 
	L 333.248, 98.220 
" />
<path d="M 269.469, 72.070 
	L 269.469, 72.071 
	L 269.469, 49.677 
	L 286.122, 49.677 
	L 286.122, 72.071 
	L 269.469, 72.071 
" />
<path d="M 197.186, 45.921 
	L 197.185, 45.921 
	L 197.185, 23.386 
	L 213.839, 23.386 
	L 213.839, 45.921 
	L 197.185, 45.921 
" />
<path d="M 569.765, 281.267 
	L 569.764, 281.268 
	L 569.764, 260.008 
	L 586.772, 260.008 
	L 586.772, 281.268 
	L 569.764, 281.268 
" />
<path d="M 565.513, 254.409 
	L 565.512, 254.409 
	L 565.512, 233.008 
	L 582.520, 233.008 
	L 582.520, 254.409 
	L 565.512, 254.409 
" />
<path d="M 552.757, 227.551 
	L 552.756, 227.551 
	L 552.756, 206.008 
	L 569.764, 206.008 
	L 569.764, 227.551 
	L 552.756, 227.551 
" />
<path d="M 531.497, 200.692 
	L 531.496, 200.693 
	L 531.496, 179.008 
	L 548.504, 179.008 
	L 548.504, 200.693 
	L 531.496, 200.693 
" />
<path d="M 501.733, 173.834 
	L 501.732, 173.835 
	L 501.732, 152.008 
	L 518.740, 152.008 
	L 518.740, 173.835 
	L 501.732, 173.835 
" />
<path d="M 463.465, 146.976 
	L 463.465, 146.976 
	L 463.465, 125.008 
	L 480.473, 125.008 
	L 480.473, 146.976 
	L 463.465, 146.976 
" />
<path d="M 416.694, 120.117 
	L 416.693, 120.118 
	L 416.693, 98.008 
	L 433.701, 98.008 
	L 433.701, 120.118 
	L 416.693, 120.118 
" />
<path d="M 361.418, 93.259 
	L 361.417, 93.260 
	L 361.417, 71.008 
	L 378.425, 71.008 
	L 378.425, 93.260 
	L 361.417, 93.260 
" />
<path d="M 297.639, 66.401 
	L 297.638, 66.402 
	L 297.638, 44.008 
	L 314.646, 44.008 
	L 314.646, 66.402 
	L 297.638, 66.402 
" />
<path d="M 225.355, 39.543 
	L 225.354, 39.543 
	L 225.354, 17.008 
	L 242.362, 17.008 
	L 242.362, 39.543 
	L 225.354, 39.543 
" />
<path d="M 597.934, 281.267 
	L 597.933, 281.268 
	L 597.933, 260.008 
	L 615.295, 260.008 
	L 615.295, 281.268 
	L 597.933, 281.268 
" />
<path d="M 593.682, 253.700 
	L 593.681, 253.701 
	L 593.681, 232.299 
	L 611.043, 232.299 
	L 611.043, 253.701 
	L 593.681, 253.701 
" />
<path d="M 580.926, 226.133 
	L 580.925, 226.134 
	L 580.925, 204.591 
	L 598.287, 204.591 
	L 598.287, 226.134 
	L 580.925, 226.134 
" />
<path d="M 559.666, 198.566 
	L 559.665, 198.567 
	L 559.665, 176.882 
	L 577.028, 176.882 
	L 577.028, 198.567 
	L 559.665, 198.567 
" />
<path d="M 529.902, 170.999 
	L 529.902, 171.000 
	L 529.902, 149.173 
	L 547.264, 149.173 
	L 547.264, 171.000 
	L 529.902, 171.000 
" />
<path d="M 491.635, 143.432 
	L 491.634, 143.433 
	L 491.634, 121.465 
	L 508.996, 121.465 
	L 508.996, 143.433 
	L 491.634, 143.433 
" />
<path d="M 444.863, 115.865 
	L 444.862, 115.866 
	L 444.862, 93.756 
	L 462.224, 93.756 
	L 462.224, 115.866 
	L 444.862, 115.866 
" />
<path d="M 389.587, 88.299 
	L 389.587, 88.299 
	L 389.587, 66.047 
	L 406.949, 66.047 
	L 406.949, 88.299 
	L 389.587, 88.299 
" />
<path d="M 325.808, 60.732 
	L 325.807, 60.732 
	L 325.807, 38.339 
	L 343.169, 38.339 
	L 343.169, 60.732 
	L 325.807, 60.732 
" />
<path d="M 253.524, 33.165 
	L 253.524, 33.165 
	L 253.524, 10.630 
	L 270.886, 10.630 
	L 270.886, 33.165 
	L 253.524, 33.165 
" />
<path d="M 1482.520, 270.638 
	L 1484.646, 270.638 
	L 1485.355, 269.575 
	L 1484.646, 268.512 
	L 1483.229, 268.512 
" />
<path d="M 1484.646, 268.512 
	L 1485.355, 267.449 
	L 1484.646, 266.386 
	L 1482.520, 266.386 
" />
<path d="M 1483.937, 264.260 
	L 1483.937, 261.071 
	L 1483.229, 260.008 
	L 1482.520, 261.071 
	L 1482.520, 263.197 
	L 1483.229, 264.260 
	L 1484.646, 264.260 
	L 1485.355, 263.197 
	L 1485.355, 260.008 
" />
<path d="M 1485.355, 253.630 
	L 1485.355, 256.819 
	L 1484.646, 257.882 
	L 1483.229, 257.882 
	L 1482.520, 256.819 
	L 1482.520, 254.693 
	L 1485.355, 254.693 
" />
<path d="M 1482.520, 251.504 
	L 1483.937, 251.504 
	L 1485.355, 249.378 
	L 1483.937, 247.252 
	L 1482.520, 247.252 
" />
<path d="M 1483.937, 245.126 
	L 1483.937, 241.937 
	L 1483.229, 240.874 
	L 1482.520, 241.937 
	L 1482.520, 244.063 
	L 1483.229, 245.126 
	L 1484.646, 245.126 
	L 1485.355, 244.063 
	L 1485.355, 240.874 
" />
<path d="M 1482.520, 235.559 
	L 1482.520, 237.685 
	L 1483.229, 238.748 
	L 1483.937, 237.685 
	L 1483.937, 236.622 
	L 1484.646, 235.559 
	L 1485.355, 236.622 
	L 1485.355, 238.748 
" />
<path d="M 1485.355, 230.244 
	L 1485.355, 231.307 
	L 1484.646, 231.307 
	L 1484.646, 230.244 
	L 1485.355, 230.244 
" />
<path d="M 1486.772, 225.992 
	L 1482.520, 225.992 
	L 1482.520, 223.866 
	L 1483.229, 222.803 
	L 1484.646, 222.803 
	L 1485.355, 223.866 
	L 1485.355, 225.992 
" />
<path d="M 1486.772, 219.614 
	L 1483.937, 215.362 
	L 1482.520, 215.362 
" />
<path d="M 1482.520, 219.614 
	L 1483.937, 219.614 
	L 1485.355, 217.488 
" />
<path d="M 1481.811, 187.724 
	L 1481.103, 186.661 
	L 1481.103, 184.535 
	L 1481.811, 183.472 
	L 1482.520, 183.472 
	L 1484.646, 187.724 
	L 1485.355, 187.724 
	L 1485.355, 183.472 
" />
<path d="M 1484.646, 181.346 
	L 1485.355, 180.283 
	L 1485.355, 178.158 
	L 1484.646, 177.095 
	L 1481.811, 177.095 
	L 1481.103, 178.158 
	L 1481.103, 180.283 
	L 1481.811, 181.346 
	L 1484.646, 181.346 
" />
<path d="M 1485.355, 173.906 
	L 1485.355, 171.780 
" />
<path d="M 1485.355, 172.843 
	L 1481.103, 172.843 
	L 1481.811, 173.906 
" />
<path d="M 1485.355, 167.528 
	L 1485.355, 166.465 
	L 1483.937, 164.339 
	L 1481.811, 164.339 
	L 1481.103, 165.402 
	L 1481.103, 167.528 
	L 1481.811, 168.591 
	L 1482.520, 168.591 
	L 1483.229, 167.528 
	L 1483.229, 164.339 
" />
<path d="M 1483.229, 162.213 
	L 1483.229, 157.961 
" />
<path d="M 1484.646, 155.835 
	L 1485.355, 154.772 
	L 1485.355, 152.646 
	L 1484.646, 151.583 
	L 1481.811, 151.583 
	L 1481.103, 152.646 
	L 1481.103, 154.772 
	L 1481.811, 155.835 
	L 1484.646, 155.835 
" />
<path d="M 1481.103, 145.205 
	L 1481.103, 147.331 
	L 1482.520, 149.457 
	L 1484.646, 149.457 
	L 1485.355, 148.394 
	L 1485.355, 146.268 
	L 1484.646, 145.205 
	L 1483.937, 145.205 
	L 1483.229, 146.268 
	L 1483.229, 149.457 
" />
<path d="M 1483.229, 143.079 
	L 1483.229, 138.827 
" />
<path d="M 1484.646, 136.701 
	L 1485.355, 135.638 
	L 1485.355, 133.512 
	L 1484.646, 132.449 
	L 1481.811, 132.449 
	L 1481.103, 133.512 
	L 1481.103, 135.638 
	L 1481.811, 136.701 
	L 1484.646, 136.701 
" />
<path d="M 1485.355, 129.260 
	L 1485.355, 128.197 
	L 1483.937, 126.071 
	L 1481.811, 126.071 
	L 1481.103, 127.134 
	L 1481.103, 129.260 
	L 1481.811, 130.323 
	L 1482.520, 130.323 
	L 1483.229, 129.260 
	L 1483.229, 126.071 
" />
<path d="M 1484.646, 117.567 
	L 1485.355, 116.504 
	L 1485.355, 114.378 
	L 1484.646, 113.315 
	L 1481.811, 113.315 
	L 1481.103, 114.378 
	L 1481.103, 116.504 
	L 1481.811, 117.567 
	L 1484.646, 117.567 
" />
<path d="M 1484.646, 111.189 
	L 1485.355, 110.126 
	L 1485.355, 108.000 
	L 1484.646, 106.937 
	L 1481.811, 106.937 
	L 1481.103, 108.000 
	L 1481.103, 110.126 
	L 1481.811, 111.189 
	L 1484.646, 111.189 
" />
<path d="M 1483.229, 103.748 
	L 1482.520, 103.748 
	L 1482.520, 102.685 
	L 1483.229, 102.685 
	L 1483.229, 103.748 
" />
<path d="M 1484.646, 103.748 
	L 1484.646, 102.685 
	L 1485.355, 102.685 
	L 1485.355, 103.748 
	L 1484.646, 103.748 
" />
<path d="M 1485.355, 97.370 
	L 1485.355, 95.244 
" />
<path d="M 1485.355, 96.307 
	L 1481.103, 96.307 
	L 1481.811, 97.370 
" />
<path d="M 1484.646, 92.055 
	L 1485.355, 90.992 
	L 1485.355, 88.866 
	L 1484.646, 87.803 
	L 1483.937, 87.803 
	L 1483.229, 88.866 
	L 1483.229, 89.929 
	L 1481.103, 87.803 
	L 1481.103, 92.055 
" />
</g>
</svg>
