<?xml version="1.0" encoding="UTF-8" standalone="no" ?>
<svg width="100%" height="100%" viewBox="0 0 2102.674 1439.529" xmlns="http://www.w3.org/2000/svg"><g>
</g><g style="stroke:rgb(0,0,0); fill:none; stroke-width:1.000mm" >
</g><g style="stroke:rgb(0,255,0); fill:none; stroke-width:0.100mm" >
<path d="M 11.891, 1439.528 
	L 11.891, 1439.529 
	L 11.891, 657.167 
	L 1156.946, 657.167 
	L 1156.946, 1439.529 
	L 11.891, 1439.529 
" />
</g><g style="stroke:rgb(255,0,0); fill:none; stroke-width:0.100mm" >
<path d="M 23.782, 1434.856 
	L 23.781, 1434.857 
	L 11.631, 1452.302 
	L 0.000, 1444.201 
	L 12.151, 1426.756 
	L 23.781, 1434.857 
" />
<path d="M 39.462, 1419.782 
	L 39.461, 1419.783 
	L 27.230, 1437.345 
	L 15.599, 1429.244 
	L 27.831, 1411.683 
	L 39.461, 1419.783 
" />
<path d="M 62.121, 1409.569 
	L 62.120, 1409.570 
	L 49.807, 1427.248 
	L 38.177, 1419.147 
	L 50.489, 1401.470 
	L 62.120, 1409.570 
" />
<path d="M 91.757, 1404.216 
	L 91.756, 1404.217 
	L 79.362, 1422.011 
	L 67.732, 1413.911 
	L 80.126, 1396.116 
	L 91.756, 1404.217 
" />
<path d="M 128.372, 1403.724 
	L 128.371, 1403.725 
	L 115.897, 1421.635 
	L 104.266, 1413.535 
	L 116.741, 1395.624 
	L 128.371, 1403.725 
" />
<path d="M 171.965, 1408.091 
	L 171.964, 1408.092 
	L 159.408, 1426.119 
	L 147.778, 1418.018 
	L 160.334, 1399.991 
	L 171.964, 1408.092 
" />
<path d="M 222.536, 1417.319 
	L 222.535, 1417.319 
	L 209.898, 1435.463 
	L 198.268, 1427.363 
	L 210.905, 1409.219 
	L 222.535, 1417.319 
" />
<path d="M 280.085, 1431.407 
	L 280.084, 1431.408 
	L 267.367, 1449.667 
	L 255.736, 1441.567 
	L 268.454, 1423.307 
	L 280.084, 1431.408 
" />
<path d="M 344.612, 1450.355 
	L 344.611, 1450.356 
	L 331.813, 1468.732 
	L 320.182, 1460.631 
	L 332.982, 1442.256 
	L 344.611, 1450.356 
" />
<path d="M 416.118, 1474.164 
	L 416.117, 1474.165 
	L 403.238, 1492.657 
	L 391.607, 1484.557 
	L 404.487, 1466.064 
	L 416.117, 1474.165 
" />
<path d="M 494.602, 1502.833 
	L 494.601, 1502.834 
	L 481.640, 1521.442 
	L 470.010, 1513.342 
	L 482.970, 1494.733 
	L 494.601, 1502.834 
" />
<path d="M 580.063, 1536.362 
	L 580.063, 1536.363 
	L 567.021, 1555.088 
	L 555.391, 1546.987 
	L 568.433, 1528.262 
	L 580.063, 1536.363 
" />
<path d="M 672.503, 1574.751 
	L 672.503, 1574.752 
	L 659.380, 1593.593 
	L 647.750, 1585.493 
	L 660.873, 1566.651 
	L 672.503, 1574.752 
" />
<path d="M 771.922, 1618.001 
	L 771.922, 1618.002 
	L 758.718, 1636.959 
	L 747.087, 1628.859 
	L 760.291, 1609.901 
	L 771.922, 1618.002 
" />
<path d="M 878.319, 1666.111 
	L 878.318, 1666.111 
	L 865.033, 1685.185 
	L 853.403, 1677.085 
	L 866.687, 1658.011 
	L 878.318, 1666.111 
" />
<path d="M 991.693, 1719.081 
	L 991.692, 1719.082 
	L 978.327, 1738.272 
	L 966.696, 1730.172 
	L 980.062, 1710.981 
	L 991.692, 1719.082 
" />
<path d="M 1112.046, 1776.911 
	L 1112.045, 1776.912 
	L 1098.598, 1796.218 
	L 1086.968, 1788.118 
	L 1100.415, 1768.811 
	L 1112.045, 1776.912 
" />
<path d="M 1239.377, 1839.602 
	L 1239.376, 1839.603 
	L 1225.848, 1859.025 
	L 1214.218, 1850.925 
	L 1227.746, 1831.502 
	L 1239.376, 1839.603 
" />
<path d="M 1373.686, 1907.153 
	L 1373.685, 1907.153 
	L 1360.077, 1926.693 
	L 1348.446, 1918.592 
	L 1362.055, 1899.053 
	L 1373.685, 1907.153 
" />
<path d="M 1514.973, 1979.564 
	L 1514.972, 1979.565 
	L 1501.283, 1999.220 
	L 1489.652, 1991.120 
	L 1503.342, 1971.464 
	L 1514.972, 1979.565 
" />
<path d="M 22.591, 1458.556 
	L 22.591, 1458.556 
	L 37.081, 1443.001 
	L 47.711, 1452.903 
	L 33.221, 1468.459 
	L 22.591, 1458.556 
" />
<path d="M 38.588, 1443.011 
	L 38.587, 1443.012 
	L 53.174, 1427.352 
	L 63.805, 1437.254 
	L 49.217, 1452.914 
	L 38.587, 1443.012 
" />
<path d="M 61.562, 1432.326 
	L 61.561, 1432.327 
	L 76.246, 1416.563 
	L 86.876, 1426.465 
	L 72.192, 1442.229 
	L 61.561, 1432.327 
" />
<path d="M 91.515, 1426.502 
	L 91.514, 1426.503 
	L 106.295, 1410.635 
	L 116.926, 1420.537 
	L 102.144, 1436.405 
	L 91.514, 1426.503 
" />
<path d="M 128.446, 1425.538 
	L 128.446, 1425.539 
	L 143.323, 1409.567 
	L 153.953, 1419.470 
	L 139.076, 1435.441 
	L 128.446, 1425.539 
" />
<path d="M 172.356, 1429.434 
	L 172.355, 1429.435 
	L 187.328, 1413.360 
	L 197.959, 1423.262 
	L 182.985, 1439.337 
	L 172.355, 1429.435 
" />
<path d="M 223.243, 1438.190 
	L 223.242, 1438.191 
	L 238.312, 1422.012 
	L 248.943, 1431.914 
	L 233.872, 1448.093 
	L 223.242, 1438.191 
" />
<path d="M 281.108, 1451.806 
	L 281.108, 1451.807 
	L 296.274, 1435.526 
	L 306.904, 1445.428 
	L 291.737, 1461.709 
	L 281.108, 1451.807 
" />
<path d="M 345.951, 1470.283 
	L 345.951, 1470.284 
	L 361.215, 1453.898 
	L 371.845, 1463.801 
	L 356.581, 1480.186 
	L 345.951, 1470.284 
" />
<path d="M 417.774, 1493.621 
	L 417.773, 1493.622 
	L 433.133, 1477.132 
	L 443.763, 1487.034 
	L 428.403, 1503.524 
	L 417.773, 1493.622 
" />
<path d="M 496.573, 1521.818 
	L 496.573, 1521.819 
	L 512.030, 1505.225 
	L 522.660, 1515.128 
	L 507.203, 1531.721 
	L 496.573, 1521.819 
" />
<path d="M 582.352, 1554.876 
	L 582.351, 1554.876 
	L 597.905, 1538.180 
	L 608.535, 1548.082 
	L 592.981, 1564.778 
	L 582.351, 1554.876 
" />
<path d="M 675.108, 1592.793 
	L 675.107, 1592.794 
	L 690.758, 1575.994 
	L 701.388, 1585.896 
	L 685.737, 1602.696 
	L 675.107, 1592.794 
" />
<path d="M 774.843, 1635.572 
	L 774.842, 1635.572 
	L 790.588, 1618.668 
	L 801.218, 1628.570 
	L 785.472, 1645.474 
	L 774.842, 1635.572 
" />
<path d="M 881.555, 1683.210 
	L 881.554, 1683.211 
	L 897.398, 1666.203 
	L 908.028, 1676.105 
	L 892.184, 1693.113 
	L 881.554, 1683.211 
" />
<path d="M 995.246, 1735.709 
	L 995.246, 1735.710 
	L 1011.185, 1718.598 
	L 1021.815, 1728.500 
	L 1005.876, 1745.612 
	L 995.246, 1735.710 
" />
<path d="M 1115.915, 1793.067 
	L 1115.914, 1793.068 
	L 1131.951, 1775.853 
	L 1142.581, 1785.755 
	L 1126.544, 1802.970 
	L 1115.914, 1793.068 
" />
<path d="M 1243.562, 1855.287 
	L 1243.561, 1855.287 
	L 1259.695, 1837.968 
	L 1270.325, 1847.870 
	L 1254.191, 1865.189 
	L 1243.561, 1855.287 
" />
<path d="M 1378.188, 1922.366 
	L 1378.187, 1922.367 
	L 1394.417, 1904.944 
	L 1405.047, 1914.846 
	L 1388.817, 1932.269 
	L 1378.187, 1922.367 
" />
<path d="M 1519.791, 1994.306 
	L 1519.790, 1994.307 
	L 1536.116, 1976.780 
	L 1546.746, 1986.682 
	L 1530.420, 2004.209 
	L 1519.790, 1994.307 
" />
<path d="M 71.357, 1471.042 
	L 71.357, 1471.042 
	L 54.816, 1484.398 
	L 45.467, 1472.819 
	L 62.008, 1459.464 
	L 71.357, 1471.042 
" />
<path d="M 87.863, 1454.819 
	L 87.862, 1454.820 
	L 71.211, 1468.264 
	L 61.861, 1456.685 
	L 78.513, 1443.241 
	L 87.862, 1454.820 
" />
<path d="M 111.346, 1443.456 
	L 111.345, 1443.457 
	L 94.583, 1456.990 
	L 85.234, 1445.412 
	L 101.996, 1431.878 
	L 111.345, 1443.457 
" />
<path d="M 141.807, 1436.954 
	L 141.806, 1436.954 
	L 124.934, 1450.577 
	L 115.585, 1438.998 
	L 132.457, 1425.376 
	L 141.806, 1436.954 
" />
<path d="M 179.246, 1435.312 
	L 179.245, 1435.312 
	L 162.263, 1449.024 
	L 152.914, 1437.445 
	L 169.897, 1423.734 
	L 179.245, 1435.312 
" />
<path d="M 223.663, 1438.530 
	L 223.663, 1438.530 
	L 206.571, 1452.332 
	L 197.222, 1440.753 
	L 214.314, 1426.952 
	L 223.663, 1438.530 
" />
<path d="M 275.059, 1446.608 
	L 275.058, 1446.609 
	L 257.856, 1460.499 
	L 248.507, 1448.920 
	L 265.710, 1435.030 
	L 275.058, 1446.609 
" />
<path d="M 333.434, 1459.547 
	L 333.433, 1459.548 
	L 316.120, 1473.526 
	L 306.771, 1461.947 
	L 324.084, 1447.969 
	L 333.433, 1459.548 
" />
<path d="M 398.786, 1477.346 
	L 398.785, 1477.347 
	L 381.361, 1491.414 
	L 372.013, 1479.835 
	L 389.436, 1465.768 
	L 398.785, 1477.347 
" />
<path d="M 471.116, 1500.005 
	L 471.115, 1500.006 
	L 453.582, 1514.163 
	L 444.232, 1502.584 
	L 461.766, 1488.427 
	L 471.115, 1500.006 
" />
<path d="M 550.424, 1527.525 
	L 550.424, 1527.526 
	L 532.779, 1541.771 
	L 523.431, 1530.192 
	L 541.074, 1515.947 
	L 550.424, 1527.526 
" />
<path d="M 636.711, 1559.904 
	L 636.710, 1559.905 
	L 618.956, 1574.240 
	L 609.607, 1562.661 
	L 627.361, 1548.326 
	L 636.710, 1559.905 
" />
<path d="M 729.976, 1597.144 
	L 729.975, 1597.145 
	L 712.110, 1611.569 
	L 702.762, 1599.990 
	L 720.626, 1585.566 
	L 729.975, 1597.145 
" />
<path d="M 830.219, 1639.245 
	L 830.218, 1639.245 
	L 812.243, 1653.759 
	L 802.894, 1642.179 
	L 820.869, 1627.667 
	L 830.218, 1639.245 
" />
<path d="M 937.439, 1686.205 
	L 937.439, 1686.206 
	L 919.354, 1700.808 
	L 910.005, 1689.229 
	L 928.090, 1674.627 
	L 937.439, 1686.206 
" />
<path d="M 1051.639, 1738.026 
	L 1051.638, 1738.026 
	L 1033.443, 1752.718 
	L 1024.094, 1741.139 
	L 1042.289, 1726.448 
	L 1051.638, 1738.026 
" />
<path d="M 1172.816, 1794.707 
	L 1172.816, 1794.708 
	L 1154.510, 1809.488 
	L 1145.161, 1797.909 
	L 1163.467, 1783.129 
	L 1172.816, 1794.708 
" />
<path d="M 1300.972, 1856.248 
	L 1300.971, 1856.249 
	L 1282.555, 1871.118 
	L 1273.207, 1859.539 
	L 1291.623, 1844.670 
	L 1300.971, 1856.249 
" />
<path d="M 1436.106, 1922.650 
	L 1436.105, 1922.650 
	L 1417.579, 1937.609 
	L 1408.230, 1926.030 
	L 1426.757, 1911.072 
	L 1436.105, 1922.650 
" />
<path d="M 1578.218, 1993.911 
	L 1578.217, 1993.912 
	L 1559.580, 2008.960 
	L 1550.232, 1997.381 
	L 1568.868, 1982.333 
	L 1578.217, 1993.912 
" />
<path d="M 68.642, 1487.031 
	L 68.641, 1487.032 
	L 86.901, 1476.145 
	L 94.704, 1489.231 
	L 76.443, 1500.119 
	L 68.641, 1487.032 
" />
<path d="M 85.436, 1470.308 
	L 85.435, 1470.308 
	L 103.817, 1459.348 
	L 111.620, 1472.435 
	L 93.237, 1483.395 
	L 85.435, 1470.308 
" />
<path d="M 109.208, 1458.445 
	L 109.207, 1458.445 
	L 127.711, 1447.412 
	L 135.513, 1460.499 
	L 117.009, 1471.532 
	L 109.207, 1458.445 
" />
<path d="M 139.958, 1451.442 
	L 139.957, 1451.442 
	L 158.583, 1440.337 
	L 166.385, 1453.424 
	L 147.759, 1464.528 
	L 139.957, 1451.442 
" />
<path d="M 177.686, 1449.299 
	L 177.686, 1449.299 
	L 196.433, 1438.122 
	L 204.236, 1451.208 
	L 185.488, 1462.386 
	L 177.686, 1449.299 
" />
<path d="M 222.393, 1452.016 
	L 222.392, 1452.017 
	L 241.261, 1440.766 
	L 249.064, 1453.853 
	L 230.194, 1465.103 
	L 222.392, 1452.017 
" />
<path d="M 274.078, 1459.594 
	L 274.077, 1459.595 
	L 293.068, 1448.272 
	L 300.871, 1461.358 
	L 281.879, 1472.681 
	L 274.077, 1459.595 
" />
<path d="M 332.741, 1472.032 
	L 332.740, 1472.032 
	L 351.853, 1460.637 
	L 359.655, 1473.723 
	L 340.542, 1485.119 
	L 332.740, 1472.032 
" />
<path d="M 398.382, 1489.330 
	L 398.381, 1489.331 
	L 417.615, 1477.863 
	L 425.418, 1490.949 
	L 406.183, 1502.418 
	L 398.381, 1489.331 
" />
<path d="M 471.001, 1511.489 
	L 471.000, 1511.489 
	L 490.356, 1499.949 
	L 498.159, 1513.035 
	L 478.803, 1524.576 
	L 471.000, 1511.489 
" />
<path d="M 550.598, 1538.508 
	L 550.597, 1538.508 
	L 570.076, 1526.895 
	L 577.878, 1539.981 
	L 558.400, 1551.595 
	L 550.597, 1538.508 
" />
<path d="M 637.174, 1570.386 
	L 637.173, 1570.387 
	L 656.773, 1558.701 
	L 664.576, 1571.788 
	L 644.976, 1583.474 
	L 637.173, 1570.387 
" />
<path d="M 730.728, 1607.126 
	L 730.727, 1607.127 
	L 750.448, 1595.368 
	L 758.251, 1608.455 
	L 738.530, 1620.213 
	L 730.727, 1607.127 
" />
<path d="M 831.260, 1648.725 
	L 831.259, 1648.726 
	L 851.102, 1636.895 
	L 858.905, 1649.982 
	L 839.062, 1661.813 
	L 831.259, 1648.726 
" />
<path d="M 938.770, 1695.185 
	L 938.769, 1695.186 
	L 958.734, 1683.282 
	L 966.536, 1696.368 
	L 946.572, 1708.272 
	L 938.769, 1695.186 
" />
<path d="M 1053.258, 1746.505 
	L 1053.257, 1746.505 
	L 1073.344, 1734.529 
	L 1081.147, 1747.616 
	L 1061.060, 1759.592 
	L 1053.257, 1746.505 
" />
<path d="M 1174.725, 1802.685 
	L 1174.724, 1802.686 
	L 1194.932, 1790.637 
	L 1202.735, 1803.724 
	L 1182.526, 1815.773 
	L 1174.724, 1802.686 
" />
<path d="M 1303.170, 1863.726 
	L 1303.169, 1863.727 
	L 1323.498, 1851.605 
	L 1331.301, 1864.692 
	L 1310.971, 1876.814 
	L 1303.169, 1863.727 
" />
<path d="M 1438.592, 1929.627 
	L 1438.591, 1929.627 
	L 1459.043, 1917.433 
	L 1466.846, 1930.520 
	L 1446.394, 1942.714 
	L 1438.591, 1929.627 
" />
<path d="M 1580.993, 2000.388 
	L 1580.992, 2000.388 
	L 1601.566, 1988.122 
	L 1609.369, 2001.208 
	L 1588.795, 2013.475 
	L 1580.992, 2000.388 
" />
<path d="M 117.748, 1507.423 
	L 117.747, 1507.424 
	L 98.133, 1515.625 
	L 92.119, 1501.241 
	L 111.733, 1493.040 
	L 117.747, 1507.424 
" />
<path d="M 135.073, 1490.054 
	L 135.072, 1490.054 
	L 115.328, 1498.311 
	L 109.313, 1483.927 
	L 129.058, 1475.671 
	L 135.072, 1490.054 
" />
<path d="M 159.377, 1477.546 
	L 159.376, 1477.546 
	L 139.500, 1485.857 
	L 133.486, 1471.473 
	L 153.361, 1463.163 
	L 159.376, 1477.546 
" />
<path d="M 190.658, 1469.897 
	L 190.658, 1469.898 
	L 170.651, 1478.264 
	L 164.636, 1463.880 
	L 184.642, 1455.514 
	L 190.658, 1469.898 
" />
<path d="M 228.917, 1467.109 
	L 228.917, 1467.110 
	L 208.780, 1475.530 
	L 202.765, 1461.147 
	L 222.902, 1452.726 
	L 228.917, 1467.110 
" />
<path d="M 274.156, 1469.181 
	L 274.155, 1469.182 
	L 253.887, 1477.658 
	L 247.873, 1463.274 
	L 268.140, 1454.798 
	L 274.155, 1469.182 
" />
<path d="M 326.372, 1476.114 
	L 326.371, 1476.115 
	L 305.972, 1484.645 
	L 299.958, 1470.261 
	L 320.356, 1461.731 
	L 326.371, 1476.115 
" />
<path d="M 385.566, 1487.907 
	L 385.565, 1487.908 
	L 365.036, 1496.493 
	L 359.021, 1482.109 
	L 379.551, 1473.524 
	L 385.565, 1487.908 
" />
<path d="M 451.738, 1504.560 
	L 451.738, 1504.561 
	L 431.077, 1513.200 
	L 425.063, 1498.816 
	L 445.723, 1490.178 
	L 451.738, 1504.561 
" />
<path d="M 524.889, 1526.074 
	L 524.888, 1526.074 
	L 504.097, 1534.768 
	L 498.083, 1520.384 
	L 518.873, 1511.691 
	L 524.888, 1526.074 
" />
<path d="M 605.018, 1552.447 
	L 605.017, 1552.448 
	L 584.095, 1561.196 
	L 578.081, 1546.812 
	L 599.002, 1538.064 
	L 605.017, 1552.448 
" />
<path d="M 692.124, 1583.681 
	L 692.123, 1583.682 
	L 671.071, 1592.485 
	L 665.057, 1578.101 
	L 686.109, 1569.298 
	L 692.123, 1583.682 
" />
<path d="M 786.210, 1619.776 
	L 786.209, 1619.776 
	L 765.026, 1628.634 
	L 759.011, 1614.250 
	L 780.194, 1605.393 
	L 786.209, 1619.776 
" />
<path d="M 887.272, 1660.730 
	L 887.272, 1660.731 
	L 865.958, 1669.643 
	L 859.944, 1655.259 
	L 881.257, 1646.347 
	L 887.272, 1660.731 
" />
<path d="M 995.314, 1706.544 
	L 995.314, 1706.545 
	L 973.869, 1715.512 
	L 967.854, 1701.128 
	L 989.299, 1692.161 
	L 995.314, 1706.545 
" />
<path d="M 1110.334, 1757.219 
	L 1110.333, 1757.220 
	L 1088.758, 1766.242 
	L 1082.743, 1751.858 
	L 1104.318, 1742.836 
	L 1110.333, 1757.220 
" />
<path d="M 1232.331, 1812.755 
	L 1232.330, 1812.755 
	L 1210.625, 1821.832 
	L 1204.610, 1807.448 
	L 1226.316, 1798.372 
	L 1232.330, 1812.755 
" />
<path d="M 1361.307, 1873.150 
	L 1361.307, 1873.150 
	L 1339.469, 1882.282 
	L 1333.455, 1867.898 
	L 1355.292, 1858.767 
	L 1361.307, 1873.150 
" />
<path d="M 1497.261, 1938.405 
	L 1497.261, 1938.406 
	L 1475.293, 1947.592 
	L 1469.278, 1933.209 
	L 1491.246, 1924.022 
	L 1497.261, 1938.406 
" />
<path d="M 1640.193, 2008.522 
	L 1640.193, 2008.522 
	L 1618.095, 2017.763 
	L 1612.080, 2003.379 
	L 1634.178, 1994.139 
	L 1640.193, 2008.522 
" />
<path d="M 115.899, 1515.492 
	L 115.899, 1515.493 
	L 136.474, 1510.141 
	L 140.488, 1525.573 
	L 119.913, 1530.925 
	L 115.899, 1515.493 
" />
<path d="M 133.496, 1497.587 
	L 133.496, 1497.588 
	L 154.208, 1492.201 
	L 158.221, 1507.633 
	L 137.509, 1513.020 
	L 133.496, 1497.588 
" />
<path d="M 158.070, 1484.543 
	L 158.070, 1484.544 
	L 178.919, 1479.120 
	L 182.933, 1494.552 
	L 162.084, 1499.975 
	L 158.070, 1484.544 
" />
<path d="M 189.623, 1476.358 
	L 189.622, 1476.359 
	L 210.609, 1470.901 
	L 214.622, 1486.332 
	L 193.636, 1491.791 
	L 189.622, 1476.359 
" />
<path d="M 228.154, 1473.034 
	L 228.153, 1473.034 
	L 249.277, 1467.540 
	L 253.290, 1482.972 
	L 232.167, 1488.466 
	L 228.153, 1473.034 
" />
<path d="M 273.662, 1474.570 
	L 273.662, 1474.571 
	L 294.923, 1469.040 
	L 298.937, 1484.472 
	L 277.676, 1490.002 
	L 273.662, 1474.571 
" />
<path d="M 326.149, 1480.967 
	L 326.149, 1480.967 
	L 347.547, 1475.401 
	L 351.561, 1490.832 
	L 330.163, 1496.398 
	L 326.149, 1480.967 
" />
<path d="M 385.615, 1492.223 
	L 385.615, 1492.224 
	L 407.149, 1486.622 
	L 411.163, 1502.053 
	L 389.628, 1507.655 
	L 385.615, 1492.224 
" />
<path d="M 452.059, 1508.339 
	L 452.058, 1508.340 
	L 473.730, 1502.703 
	L 477.744, 1518.134 
	L 456.071, 1523.772 
	L 452.058, 1508.340 
" />
<path d="M 525.480, 1529.316 
	L 525.480, 1529.317 
	L 547.289, 1523.644 
	L 551.303, 1539.076 
	L 529.493, 1544.749 
	L 525.480, 1529.317 
" />
<path d="M 605.880, 1555.154 
	L 605.879, 1555.155 
	L 627.826, 1549.446 
	L 631.840, 1564.878 
	L 609.893, 1570.586 
	L 605.879, 1555.155 
" />
<path d="M 693.258, 1585.851 
	L 693.257, 1585.852 
	L 715.341, 1580.108 
	L 719.355, 1595.539 
	L 697.271, 1601.284 
	L 693.257, 1585.852 
" />
<path d="M 787.614, 1621.409 
	L 787.613, 1621.410 
	L 809.834, 1615.630 
	L 813.848, 1631.062 
	L 791.627, 1636.842 
	L 787.613, 1621.410 
" />
<path d="M 888.948, 1661.828 
	L 888.948, 1661.828 
	L 911.306, 1656.012 
	L 915.320, 1671.444 
	L 892.961, 1677.259 
	L 888.948, 1661.828 
" />
<path d="M 997.260, 1707.105 
	L 997.260, 1707.106 
	L 1019.755, 1701.255 
	L 1023.769, 1716.686 
	L 1001.273, 1722.538 
	L 997.260, 1707.106 
" />
<path d="M 1112.551, 1757.244 
	L 1112.550, 1757.245 
	L 1135.184, 1751.358 
	L 1139.197, 1766.790 
	L 1116.564, 1772.676 
	L 1112.550, 1757.245 
" />
<path d="M 1234.820, 1812.243 
	L 1234.819, 1812.244 
	L 1257.589, 1806.321 
	L 1261.603, 1821.753 
	L 1238.833, 1827.675 
	L 1234.819, 1812.244 
" />
<path d="M 1364.067, 1872.102 
	L 1364.066, 1872.103 
	L 1386.974, 1866.145 
	L 1390.987, 1881.576 
	L 1368.080, 1887.534 
	L 1364.066, 1872.103 
" />
<path d="M 1500.292, 1936.822 
	L 1500.292, 1936.822 
	L 1523.336, 1930.828 
	L 1527.350, 1946.259 
	L 1504.305, 1952.253 
	L 1500.292, 1936.822 
" />
<path d="M 1643.496, 2006.401 
	L 1643.495, 2006.401 
	L 1666.676, 2000.372 
	L 1670.690, 2015.804 
	L 1647.508, 2021.833 
	L 1643.495, 2006.401 
" />
<path d="M 162.935, 1543.634 
	L 162.934, 1543.635 
	L 141.810, 1546.029 
	L 139.974, 1529.834 
	L 161.099, 1527.439 
	L 162.934, 1543.635 
" />
<path d="M 181.075, 1525.122 
	L 181.074, 1525.123 
	L 159.809, 1527.533 
	L 157.973, 1511.337 
	L 179.239, 1508.927 
	L 181.074, 1525.123 
" />
<path d="M 206.194, 1511.469 
	L 206.193, 1511.470 
	L 184.787, 1513.897 
	L 182.951, 1497.701 
	L 204.357, 1495.274 
	L 206.193, 1511.470 
" />
<path d="M 238.290, 1502.678 
	L 238.290, 1502.678 
	L 216.743, 1505.121 
	L 214.907, 1488.925 
	L 236.453, 1486.483 
	L 238.290, 1502.678 
" />
<path d="M 277.365, 1498.746 
	L 277.364, 1498.747 
	L 255.677, 1501.205 
	L 253.840, 1485.009 
	L 275.528, 1482.551 
	L 277.364, 1498.747 
" />
<path d="M 323.418, 1499.674 
	L 323.418, 1499.675 
	L 301.589, 1502.150 
	L 299.752, 1485.954 
	L 321.581, 1483.480 
	L 323.418, 1499.675 
" />
<path d="M 376.449, 1505.464 
	L 376.448, 1505.464 
	L 354.479, 1507.954 
	L 352.643, 1491.759 
	L 374.613, 1489.268 
	L 376.448, 1505.464 
" />
<path d="M 436.458, 1516.113 
	L 436.457, 1516.113 
	L 414.347, 1518.620 
	L 412.512, 1502.424 
	L 434.622, 1499.918 
	L 436.457, 1516.113 
" />
<path d="M 503.446, 1531.622 
	L 503.445, 1531.623 
	L 481.194, 1534.145 
	L 479.358, 1517.949 
	L 501.609, 1515.427 
	L 503.445, 1531.623 
" />
<path d="M 577.412, 1551.992 
	L 577.411, 1551.993 
	L 555.019, 1554.531 
	L 553.183, 1538.335 
	L 575.575, 1535.797 
	L 577.411, 1551.993 
" />
<path d="M 658.355, 1577.222 
	L 658.354, 1577.223 
	L 635.822, 1579.777 
	L 633.986, 1563.581 
	L 656.519, 1561.027 
	L 658.354, 1577.223 
" />
<path d="M 746.277, 1607.312 
	L 746.276, 1607.312 
	L 723.603, 1609.883 
	L 721.767, 1593.688 
	L 744.441, 1591.117 
	L 746.276, 1607.312 
" />
<path d="M 841.178, 1642.262 
	L 841.177, 1642.263 
	L 818.362, 1644.849 
	L 816.526, 1628.654 
	L 839.341, 1626.068 
	L 841.177, 1642.263 
" />
<path d="M 943.055, 1682.073 
	L 943.055, 1682.074 
	L 920.100, 1684.676 
	L 918.264, 1668.480 
	L 941.219, 1665.878 
	L 943.055, 1682.074 
" />
<path d="M 1051.912, 1726.744 
	L 1051.912, 1726.745 
	L 1028.816, 1729.363 
	L 1026.979, 1713.167 
	L 1050.075, 1710.549 
	L 1051.912, 1726.745 
" />
<path d="M 1167.747, 1776.276 
	L 1167.746, 1776.276 
	L 1144.509, 1778.910 
	L 1142.673, 1762.715 
	L 1165.910, 1760.081 
	L 1167.746, 1776.276 
" />
<path d="M 1290.560, 1830.667 
	L 1290.559, 1830.668 
	L 1267.181, 1833.317 
	L 1265.346, 1817.122 
	L 1288.723, 1814.472 
	L 1290.559, 1830.668 
" />
<path d="M 1420.350, 1889.919 
	L 1420.350, 1889.919 
	L 1396.831, 1892.585 
	L 1394.995, 1876.390 
	L 1418.514, 1873.724 
	L 1420.350, 1889.919 
" />
<path d="M 1557.120, 1954.031 
	L 1557.119, 1954.031 
	L 1533.460, 1956.713 
	L 1531.624, 1940.518 
	L 1555.283, 1937.836 
	L 1557.119, 1954.031 
" />
<path d="M 1700.867, 2023.003 
	L 1700.866, 2023.003 
	L 1677.066, 2025.701 
	L 1675.230, 2009.506 
	L 1699.031, 2006.808 
	L 1700.866, 2023.003 
" />
<path d="M 164.329, 1544.306 
	L 164.328, 1544.307 
	L 185.579, 1544.917 
	L 185.101, 1561.563 
	L 163.850, 1560.953 
	L 164.328, 1544.307 
" />
<path d="M 182.733, 1525.217 
	L 182.732, 1525.218 
	L 204.125, 1525.833 
	L 203.647, 1542.480 
	L 182.254, 1541.865 
	L 182.732, 1525.218 
" />
<path d="M 208.115, 1510.990 
	L 208.115, 1510.991 
	L 229.649, 1511.610 
	L 229.170, 1528.256 
	L 207.636, 1527.638 
	L 208.115, 1510.991 
" />
<path d="M 240.476, 1501.623 
	L 240.475, 1501.623 
	L 262.151, 1502.246 
	L 261.673, 1518.893 
	L 239.997, 1518.270 
	L 240.475, 1501.623 
" />
<path d="M 279.814, 1497.116 
	L 279.814, 1497.116 
	L 301.631, 1497.743 
	L 301.153, 1514.390 
	L 279.335, 1513.763 
	L 279.814, 1497.116 
" />
<path d="M 326.131, 1497.468 
	L 326.130, 1497.469 
	L 348.090, 1498.100 
	L 347.611, 1514.747 
	L 325.652, 1514.116 
	L 326.130, 1497.469 
" />
<path d="M 379.426, 1502.682 
	L 379.425, 1502.683 
	L 401.526, 1503.318 
	L 401.048, 1519.964 
	L 378.947, 1519.329 
	L 379.425, 1502.683 
" />
<path d="M 439.699, 1512.756 
	L 439.698, 1512.756 
	L 461.941, 1513.396 
	L 461.463, 1530.042 
	L 439.220, 1529.403 
	L 439.698, 1512.756 
" />
<path d="M 506.950, 1527.689 
	L 506.949, 1527.690 
	L 529.334, 1528.333 
	L 528.856, 1544.980 
	L 506.471, 1544.336 
	L 506.949, 1527.690 
" />
<path d="M 581.180, 1547.484 
	L 581.179, 1547.484 
	L 603.705, 1548.131 
	L 603.227, 1564.778 
	L 580.701, 1564.131 
	L 581.179, 1547.484 
" />
<path d="M 662.387, 1572.138 
	L 662.387, 1572.139 
	L 685.054, 1572.790 
	L 684.575, 1589.436 
	L 661.908, 1588.785 
	L 662.387, 1572.139 
" />
<path d="M 750.572, 1601.652 
	L 750.572, 1601.653 
	L 773.381, 1602.308 
	L 772.903, 1618.955 
	L 750.094, 1618.300 
	L 750.572, 1601.653 
" />
<path d="M 845.736, 1636.027 
	L 845.736, 1636.028 
	L 868.687, 1636.688 
	L 868.209, 1653.334 
	L 845.257, 1652.674 
	L 845.736, 1636.028 
" />
<path d="M 947.879, 1675.262 
	L 947.878, 1675.263 
	L 970.971, 1675.926 
	L 970.493, 1692.574 
	L 947.400, 1691.910 
	L 947.878, 1675.263 
" />
<path d="M 1056.999, 1719.358 
	L 1056.998, 1719.359 
	L 1080.233, 1720.026 
	L 1079.754, 1736.673 
	L 1056.520, 1736.005 
	L 1056.998, 1719.359 
" />
<path d="M 1173.098, 1768.314 
	L 1173.097, 1768.315 
	L 1196.473, 1768.986 
	L 1195.994, 1785.633 
	L 1172.619, 1784.961 
	L 1173.097, 1768.315 
" />
<path d="M 1296.174, 1822.130 
	L 1296.173, 1822.130 
	L 1319.691, 1822.806 
	L 1319.213, 1839.453 
	L 1295.695, 1838.777 
	L 1296.173, 1822.130 
" />
<path d="M 1426.229, 1880.806 
	L 1426.228, 1880.807 
	L 1449.887, 1881.486 
	L 1449.409, 1898.133 
	L 1425.750, 1897.453 
	L 1426.228, 1880.807 
" />
<path d="M 1563.262, 1944.342 
	L 1563.261, 1944.343 
	L 1587.062, 1945.026 
	L 1586.584, 1961.674 
	L 1562.783, 1960.990 
	L 1563.261, 1944.343 
" />
<path d="M 1707.272, 2012.739 
	L 1707.272, 2012.740 
	L 1731.215, 2013.427 
	L 1730.737, 2030.074 
	L 1706.794, 2029.386 
	L 1707.272, 2012.740 
" />
<path d="M 207.011, 1579.317 
	L 207.010, 1579.318 
	L 186.058, 1575.715 
	L 188.940, 1558.953 
	L 209.893, 1562.557 
	L 207.010, 1579.318 
" />
<path d="M 225.960, 1559.662 
	L 225.960, 1559.663 
	L 204.868, 1556.036 
	L 207.750, 1539.274 
	L 228.842, 1542.901 
	L 225.960, 1559.663 
" />
<path d="M 251.888, 1544.867 
	L 251.887, 1544.868 
	L 230.656, 1541.216 
	L 233.539, 1524.455 
	L 254.770, 1528.106 
	L 251.887, 1544.868 
" />
<path d="M 284.794, 1534.932 
	L 284.793, 1534.933 
	L 263.422, 1531.257 
	L 266.305, 1514.495 
	L 287.676, 1518.171 
	L 284.793, 1534.933 
" />
<path d="M 324.679, 1529.858 
	L 324.678, 1529.859 
	L 303.167, 1526.159 
	L 306.050, 1509.397 
	L 327.560, 1513.097 
	L 324.678, 1529.859 
" />
<path d="M 371.541, 1529.643 
	L 371.541, 1529.644 
	L 349.890, 1525.920 
	L 352.772, 1509.158 
	L 374.423, 1512.882 
	L 371.541, 1529.644 
" />
<path d="M 425.382, 1534.289 
	L 425.381, 1534.290 
	L 403.590, 1530.542 
	L 406.473, 1513.780 
	L 428.264, 1517.528 
	L 425.381, 1534.290 
" />
<path d="M 486.201, 1543.795 
	L 486.200, 1543.796 
	L 464.270, 1540.024 
	L 467.152, 1523.263 
	L 489.083, 1527.034 
	L 486.200, 1543.796 
" />
<path d="M 553.998, 1558.162 
	L 553.997, 1558.162 
	L 531.927, 1554.367 
	L 534.810, 1537.605 
	L 556.880, 1541.400 
	L 553.997, 1558.162 
" />
<path d="M 628.773, 1577.388 
	L 628.772, 1577.389 
	L 606.563, 1573.569 
	L 609.445, 1556.807 
	L 631.655, 1560.627 
	L 628.772, 1577.389 
" />
<path d="M 710.526, 1601.475 
	L 710.525, 1601.476 
	L 688.176, 1597.632 
	L 691.058, 1580.871 
	L 713.407, 1584.714 
	L 710.525, 1601.476 
" />
<path d="M 799.257, 1630.422 
	L 799.257, 1630.423 
	L 776.767, 1626.555 
	L 779.650, 1609.793 
	L 802.139, 1613.661 
	L 799.257, 1630.423 
" />
<path d="M 894.966, 1664.230 
	L 894.966, 1664.231 
	L 872.337, 1660.339 
	L 875.220, 1643.577 
	L 897.849, 1647.469 
	L 894.966, 1664.231 
" />
<path d="M 997.654, 1702.897 
	L 997.654, 1702.898 
	L 974.886, 1698.983 
	L 977.769, 1682.221 
	L 1000.536, 1686.137 
	L 997.654, 1702.898 
" />
<path d="M 1107.320, 1746.425 
	L 1107.320, 1746.426 
	L 1084.412, 1742.487 
	L 1087.294, 1725.725 
	L 1110.203, 1729.664 
	L 1107.320, 1746.426 
" />
<path d="M 1223.965, 1794.814 
	L 1223.964, 1794.814 
	L 1200.916, 1790.851 
	L 1203.799, 1774.089 
	L 1226.847, 1778.052 
	L 1223.964, 1794.814 
" />
<path d="M 1347.587, 1848.062 
	L 1347.586, 1848.063 
	L 1324.399, 1844.075 
	L 1327.282, 1827.314 
	L 1350.469, 1831.301 
	L 1347.586, 1848.063 
" />
<path d="M 1478.187, 1906.171 
	L 1478.186, 1906.171 
	L 1454.860, 1902.160 
	L 1457.743, 1885.398 
	L 1481.069, 1889.410 
	L 1478.186, 1906.171 
" />
<path d="M 1615.766, 1969.140 
	L 1615.765, 1969.141 
	L 1592.299, 1965.105 
	L 1595.181, 1948.343 
	L 1618.648, 1952.379 
	L 1615.765, 1969.141 
" />
<path d="M 1760.323, 2036.969 
	L 1760.322, 2036.970 
	L 1736.716, 2032.910 
	L 1739.599, 2016.148 
	L 1763.205, 2020.208 
	L 1760.322, 2036.970 
" />
<path d="M 213.783, 1573.812 
	L 213.783, 1573.812 
	L 234.017, 1580.336 
	L 228.689, 1596.861 
	L 208.455, 1590.337 
	L 213.783, 1573.812 
" />
<path d="M 233.001, 1553.541 
	L 233.000, 1553.542 
	L 253.369, 1560.109 
	L 248.041, 1576.634 
	L 227.672, 1570.067 
	L 233.000, 1553.542 
" />
<path d="M 259.196, 1538.131 
	L 259.196, 1538.131 
	L 279.699, 1544.742 
	L 274.372, 1561.267 
	L 253.868, 1554.656 
	L 259.196, 1538.131 
" />
<path d="M 292.370, 1527.580 
	L 292.370, 1527.581 
	L 313.009, 1534.236 
	L 307.680, 1550.760 
	L 287.042, 1544.105 
	L 292.370, 1527.581 
" />
<path d="M 332.522, 1521.890 
	L 332.522, 1521.891 
	L 353.295, 1528.589 
	L 347.967, 1545.114 
	L 327.194, 1538.416 
	L 332.522, 1521.891 
" />
<path d="M 379.653, 1521.061 
	L 379.652, 1521.062 
	L 400.560, 1527.803 
	L 395.233, 1544.328 
	L 374.323, 1537.586 
	L 379.652, 1521.062 
" />
<path d="M 433.761, 1525.091 
	L 433.760, 1525.092 
	L 454.803, 1531.877 
	L 449.476, 1548.402 
	L 428.432, 1541.617 
	L 433.760, 1525.092 
" />
<path d="M 494.847, 1533.982 
	L 494.846, 1533.983 
	L 516.025, 1540.812 
	L 510.697, 1557.336 
	L 489.519, 1550.507 
	L 494.846, 1533.983 
" />
<path d="M 562.912, 1547.734 
	L 562.911, 1547.734 
	L 584.225, 1554.606 
	L 578.896, 1571.131 
	L 557.583, 1564.258 
	L 562.911, 1547.734 
" />
<path d="M 637.955, 1566.345 
	L 637.954, 1566.345 
	L 659.402, 1573.261 
	L 654.074, 1589.786 
	L 632.626, 1582.870 
	L 637.954, 1566.345 
" />
<path d="M 719.976, 1589.816 
	L 719.975, 1589.817 
	L 741.558, 1596.776 
	L 736.230, 1613.301 
	L 714.647, 1606.341 
	L 719.975, 1589.817 
" />
<path d="M 808.975, 1618.148 
	L 808.974, 1618.149 
	L 830.692, 1625.151 
	L 825.364, 1641.676 
	L 803.646, 1634.674 
	L 808.974, 1618.149 
" />
<path d="M 904.952, 1651.341 
	L 904.951, 1651.341 
	L 926.804, 1658.387 
	L 921.476, 1674.912 
	L 899.624, 1667.866 
	L 904.951, 1651.341 
" />
<path d="M 1007.908, 1689.393 
	L 1007.907, 1689.394 
	L 1029.895, 1696.483 
	L 1024.566, 1713.008 
	L 1002.579, 1705.918 
	L 1007.907, 1689.394 
" />
<path d="M 1117.841, 1732.305 
	L 1117.840, 1732.306 
	L 1139.963, 1739.439 
	L 1134.635, 1755.964 
	L 1112.513, 1748.831 
	L 1117.840, 1732.306 
" />
<path d="M 1234.753, 1780.078 
	L 1234.753, 1780.079 
	L 1257.010, 1787.256 
	L 1251.682, 1803.780 
	L 1229.425, 1796.604 
	L 1234.753, 1780.079 
" />
<path d="M 1358.644, 1832.712 
	L 1358.643, 1832.713 
	L 1381.035, 1839.933 
	L 1375.707, 1856.457 
	L 1353.315, 1849.237 
	L 1358.643, 1832.713 
" />
<path d="M 1489.511, 1890.205 
	L 1489.511, 1890.206 
	L 1512.038, 1897.470 
	L 1506.710, 1913.994 
	L 1484.183, 1906.730 
	L 1489.511, 1890.206 
" />
<path d="M 1627.358, 1952.559 
	L 1627.357, 1952.559 
	L 1650.020, 1959.866 
	L 1644.691, 1976.391 
	L 1622.029, 1969.084 
	L 1627.357, 1952.559 
" />
<path d="M 1772.182, 2019.773 
	L 1772.182, 2019.774 
	L 1794.978, 2027.124 
	L 1789.651, 2043.649 
	L 1766.854, 2036.298 
	L 1772.182, 2019.774 
" />
<path d="M 250.172, 1614.157 
	L 250.171, 1614.157 
	L 231.060, 1604.843 
	L 238.822, 1588.918 
	L 257.933, 1598.232 
	L 250.171, 1614.157 
" />
<path d="M 269.925, 1593.357 
	L 269.924, 1593.358 
	L 250.686, 1583.982 
	L 258.448, 1568.056 
	L 277.686, 1577.432 
	L 269.924, 1593.358 
" />
<path d="M 296.657, 1577.418 
	L 296.656, 1577.419 
	L 277.291, 1567.980 
	L 285.053, 1552.054 
	L 304.418, 1561.493 
	L 296.656, 1577.419 
" />
<path d="M 330.367, 1566.340 
	L 330.366, 1566.340 
	L 310.873, 1556.839 
	L 318.635, 1540.914 
	L 338.128, 1550.415 
	L 330.366, 1566.340 
" />
<path d="M 371.055, 1560.120 
	L 371.054, 1560.121 
	L 351.434, 1550.559 
	L 359.196, 1534.633 
	L 378.816, 1544.195 
	L 371.054, 1560.121 
" />
<path d="M 418.721, 1558.763 
	L 418.720, 1558.763 
	L 398.973, 1549.138 
	L 406.735, 1533.213 
	L 426.482, 1542.838 
	L 418.720, 1558.763 
" />
<path d="M 473.366, 1562.264 
	L 473.365, 1562.265 
	L 453.490, 1552.578 
	L 461.251, 1536.652 
	L 481.127, 1546.339 
	L 473.365, 1562.265 
" />
<path d="M 534.988, 1570.626 
	L 534.988, 1570.627 
	L 514.985, 1560.878 
	L 522.747, 1544.952 
	L 542.750, 1554.701 
	L 534.988, 1570.627 
" />
<path d="M 603.590, 1583.849 
	L 603.589, 1583.849 
	L 583.459, 1574.039 
	L 591.221, 1558.113 
	L 611.351, 1567.924 
	L 603.589, 1583.849 
" />
<path d="M 679.168, 1601.931 
	L 679.168, 1601.932 
	L 658.910, 1592.059 
	L 666.672, 1576.133 
	L 686.930, 1586.006 
	L 679.168, 1601.932 
" />
<path d="M 761.725, 1624.874 
	L 761.725, 1624.875 
	L 741.340, 1614.940 
	L 749.102, 1599.014 
	L 769.487, 1608.949 
	L 761.725, 1624.875 
" />
<path d="M 851.261, 1652.677 
	L 851.260, 1652.678 
	L 830.748, 1642.681 
	L 838.509, 1626.755 
	L 859.022, 1636.752 
	L 851.260, 1652.678 
" />
<path d="M 947.774, 1685.341 
	L 947.774, 1685.342 
	L 927.134, 1675.282 
	L 934.896, 1659.356 
	L 955.536, 1669.416 
	L 947.774, 1685.342 
" />
<path d="M 1051.266, 1722.865 
	L 1051.265, 1722.865 
	L 1030.498, 1712.744 
	L 1038.260, 1696.818 
	L 1059.027, 1706.940 
	L 1051.265, 1722.865 
" />
<path d="M 1161.736, 1765.249 
	L 1161.735, 1765.250 
	L 1140.841, 1755.066 
	L 1148.603, 1739.140 
	L 1169.497, 1749.324 
	L 1161.735, 1765.250 
" />
<path d="M 1279.184, 1812.493 
	L 1279.184, 1812.494 
	L 1258.161, 1802.248 
	L 1265.923, 1786.322 
	L 1286.945, 1796.568 
	L 1279.184, 1812.494 
" />
<path d="M 1403.610, 1864.598 
	L 1403.610, 1864.598 
	L 1382.460, 1854.290 
	L 1390.222, 1838.364 
	L 1411.372, 1848.673 
	L 1403.610, 1864.598 
" />
<path d="M 1535.015, 1921.562 
	L 1535.014, 1921.563 
	L 1513.737, 1911.193 
	L 1521.499, 1895.267 
	L 1542.776, 1905.637 
	L 1535.014, 1921.563 
" />
<path d="M 1673.397, 1983.387 
	L 1673.396, 1983.388 
	L 1651.992, 1972.956 
	L 1659.754, 1957.030 
	L 1681.158, 1967.462 
	L 1673.396, 1983.388 
" />
<path d="M 1818.758, 2050.072 
	L 1818.757, 2050.073 
	L 1797.226, 2039.579 
	L 1804.988, 2023.653 
	L 1826.519, 2034.147 
	L 1818.757, 2050.073 
" />
<path d="M 264.020, 1604.296 
	L 264.020, 1604.297 
	L 281.625, 1616.215 
	L 271.495, 1631.179 
	L 253.889, 1619.262 
	L 264.020, 1604.297 
" />
<path d="M 284.056, 1582.845 
	L 284.056, 1582.846 
	L 301.779, 1594.843 
	L 291.648, 1609.808 
	L 273.925, 1597.810 
	L 284.056, 1582.846 
" />
<path d="M 311.070, 1566.253 
	L 311.070, 1566.254 
	L 328.910, 1578.331 
	L 318.780, 1593.295 
	L 300.940, 1581.219 
	L 311.070, 1566.254 
" />
<path d="M 345.064, 1554.522 
	L 345.063, 1554.523 
	L 363.020, 1566.679 
	L 352.890, 1581.644 
	L 334.933, 1569.488 
	L 345.063, 1554.523 
" />
<path d="M 386.034, 1547.652 
	L 386.033, 1547.652 
	L 404.109, 1559.888 
	L 393.978, 1574.852 
	L 375.903, 1562.616 
	L 386.033, 1547.652 
" />
<path d="M 433.983, 1545.640 
	L 433.982, 1545.641 
	L 452.174, 1557.957 
	L 442.045, 1572.921 
	L 423.853, 1560.606 
	L 433.982, 1545.641 
" />
<path d="M 488.910, 1548.490 
	L 488.910, 1548.491 
	L 507.219, 1560.886 
	L 497.088, 1575.850 
	L 478.779, 1563.455 
	L 488.910, 1548.491 
" />
<path d="M 550.816, 1556.200 
	L 550.815, 1556.201 
	L 569.242, 1568.675 
	L 559.111, 1583.640 
	L 540.685, 1571.165 
	L 550.815, 1556.201 
" />
<path d="M 619.699, 1568.770 
	L 619.698, 1568.771 
	L 638.242, 1581.324 
	L 628.112, 1596.289 
	L 609.568, 1583.735 
	L 619.698, 1568.771 
" />
<path d="M 695.560, 1586.201 
	L 695.560, 1586.201 
	L 714.222, 1598.835 
	L 704.091, 1613.799 
	L 685.429, 1601.165 
	L 695.560, 1586.201 
" />
<path d="M 778.401, 1608.492 
	L 778.400, 1608.492 
	L 797.179, 1621.204 
	L 787.049, 1636.169 
	L 768.270, 1623.456 
	L 778.400, 1608.492 
" />
<path d="M 868.219, 1635.642 
	L 868.218, 1635.642 
	L 887.114, 1648.435 
	L 876.984, 1663.399 
	L 858.088, 1650.607 
	L 868.218, 1635.642 
" />
<path d="M 965.015, 1667.653 
	L 965.014, 1667.654 
	L 984.027, 1680.526 
	L 973.897, 1695.490 
	L 954.884, 1682.618 
	L 965.014, 1667.654 
" />
<path d="M 1068.789, 1704.524 
	L 1068.788, 1704.525 
	L 1087.919, 1717.476 
	L 1077.789, 1732.441 
	L 1058.658, 1719.490 
	L 1068.788, 1704.525 
" />
<path d="M 1179.541, 1746.256 
	L 1179.541, 1746.257 
	L 1198.789, 1759.288 
	L 1188.659, 1774.252 
	L 1169.410, 1761.222 
	L 1179.541, 1746.257 
" />
<path d="M 1297.272, 1792.848 
	L 1297.271, 1792.849 
	L 1316.637, 1805.959 
	L 1306.507, 1820.924 
	L 1287.141, 1807.813 
	L 1297.271, 1792.849 
" />
<path d="M 1421.981, 1844.300 
	L 1421.980, 1844.301 
	L 1441.463, 1857.490 
	L 1431.333, 1872.455 
	L 1411.850, 1859.266 
	L 1421.980, 1844.301 
" />
<path d="M 1553.668, 1900.613 
	L 1553.667, 1900.614 
	L 1573.267, 1913.882 
	L 1563.137, 1928.847 
	L 1543.537, 1915.578 
	L 1553.667, 1900.614 
" />
<path d="M 1692.333, 1961.786 
	L 1692.332, 1961.786 
	L 1712.050, 1975.135 
	L 1701.920, 1990.099 
	L 1682.202, 1976.750 
	L 1692.332, 1961.786 
" />
<path d="M 1837.977, 2027.819 
	L 1837.976, 2027.819 
	L 1857.811, 2041.247 
	L 1847.681, 2056.211 
	L 1827.846, 2042.783 
	L 1837.976, 2027.819 
" />
<path d="M 292.703, 1647.904 
	L 292.702, 1647.904 
	L 276.955, 1633.621 
	L 289.333, 1619.974 
	L 305.080, 1634.257 
	L 292.702, 1647.904 
" />
<path d="M 313.255, 1625.958 
	L 313.254, 1625.959 
	L 297.402, 1611.581 
	L 309.781, 1597.933 
	L 325.633, 1612.311 
	L 313.254, 1625.959 
" />
<path d="M 340.785, 1608.872 
	L 340.785, 1608.873 
	L 324.828, 1594.400 
	L 337.207, 1580.752 
	L 353.164, 1595.225 
	L 340.785, 1608.873 
" />
<path d="M 375.294, 1596.647 
	L 375.294, 1596.648 
	L 359.232, 1582.079 
	L 371.610, 1568.432 
	L 387.673, 1583.000 
	L 375.294, 1596.648 
" />
<path d="M 416.782, 1589.282 
	L 416.781, 1589.283 
	L 400.613, 1574.619 
	L 412.992, 1560.971 
	L 429.159, 1575.635 
	L 416.781, 1589.283 
" />
<path d="M 465.246, 1586.777 
	L 465.245, 1586.778 
	L 448.974, 1572.019 
	L 461.352, 1558.371 
	L 477.624, 1573.130 
	L 465.245, 1586.778 
" />
<path d="M 520.690, 1589.132 
	L 520.689, 1589.133 
	L 504.312, 1574.279 
	L 516.691, 1560.631 
	L 533.068, 1575.486 
	L 520.689, 1589.133 
" />
<path d="M 583.111, 1596.348 
	L 583.111, 1596.349 
	L 566.629, 1581.399 
	L 579.007, 1567.752 
	L 595.489, 1582.701 
	L 583.111, 1596.349 
" />
<path d="M 652.511, 1608.424 
	L 652.510, 1608.425 
	L 635.923, 1593.380 
	L 648.302, 1579.733 
	L 664.889, 1594.778 
	L 652.510, 1608.425 
" />
<path d="M 728.889, 1625.361 
	L 728.888, 1625.361 
	L 712.196, 1610.221 
	L 724.574, 1596.573 
	L 741.267, 1611.714 
	L 728.888, 1625.361 
" />
<path d="M 812.245, 1647.157 
	L 812.244, 1647.158 
	L 795.447, 1631.922 
	L 807.826, 1618.275 
	L 824.623, 1633.510 
	L 812.244, 1647.158 
" />
<path d="M 902.579, 1673.814 
	L 902.578, 1673.815 
	L 885.677, 1658.483 
	L 898.055, 1644.836 
	L 914.957, 1660.166 
	L 902.578, 1673.815 
" />
<path d="M 999.892, 1705.331 
	L 999.891, 1705.332 
	L 982.884, 1689.905 
	L 995.263, 1676.258 
	L 1012.269, 1691.683 
	L 999.891, 1705.332 
" />
<path d="M 1104.182, 1741.708 
	L 1104.181, 1741.709 
	L 1087.069, 1726.188 
	L 1099.448, 1712.540 
	L 1116.560, 1728.061 
	L 1104.181, 1741.709 
" />
<path d="M 1215.451, 1782.946 
	L 1215.450, 1782.946 
	L 1198.233, 1767.330 
	L 1210.611, 1753.682 
	L 1227.828, 1769.298 
	L 1215.450, 1782.946 
" />
<path d="M 1333.697, 1829.043 
	L 1333.697, 1829.044 
	L 1316.375, 1813.332 
	L 1328.754, 1799.685 
	L 1346.076, 1815.396 
	L 1333.697, 1829.044 
" />
<path d="M 1458.922, 1880.001 
	L 1458.921, 1880.002 
	L 1441.495, 1864.195 
	L 1453.874, 1850.548 
	L 1471.300, 1866.354 
	L 1458.921, 1880.002 
" />
<path d="M 1591.126, 1935.820 
	L 1591.125, 1935.820 
	L 1573.593, 1919.918 
	L 1585.972, 1906.270 
	L 1603.504, 1922.172 
	L 1591.125, 1935.820 
" />
<path d="M 1730.307, 1996.498 
	L 1730.306, 1996.499 
	L 1712.670, 1980.501 
	L 1725.048, 1966.854 
	L 1742.685, 1982.851 
	L 1730.306, 1996.499 
" />
<path d="M 1876.467, 2062.036 
	L 1876.466, 2062.037 
	L 1858.724, 2045.945 
	L 1871.103, 2032.297 
	L 1888.844, 2048.390 
	L 1876.466, 2062.037 
" />
<path d="M 314.719, 1635.963 
	L 314.718, 1635.964 
	L 328.292, 1652.326 
	L 313.839, 1664.316 
	L 300.264, 1647.954 
	L 314.718, 1635.964 
" />
<path d="M 335.578, 1613.333 
	L 335.577, 1613.334 
	L 349.242, 1629.806 
	L 334.789, 1641.796 
	L 321.124, 1625.324 
	L 335.577, 1613.334 
" />
<path d="M 363.416, 1595.564 
	L 363.416, 1595.565 
	L 377.170, 1612.145 
	L 362.717, 1624.136 
	L 348.962, 1607.555 
	L 363.416, 1595.565 
" />
<path d="M 398.232, 1582.655 
	L 398.232, 1582.656 
	L 412.077, 1599.346 
	L 397.624, 1611.336 
	L 383.778, 1594.646 
	L 398.232, 1582.656 
" />
<path d="M 440.026, 1574.606 
	L 440.026, 1574.607 
	L 453.961, 1591.406 
	L 439.508, 1603.396 
	L 425.572, 1586.597 
	L 440.026, 1574.607 
" />
<path d="M 488.799, 1571.418 
	L 488.799, 1571.419 
	L 502.824, 1588.327 
	L 488.371, 1600.317 
	L 474.345, 1583.409 
	L 488.799, 1571.419 
" />
<path d="M 544.550, 1573.090 
	L 544.549, 1573.090 
	L 558.665, 1590.107 
	L 544.212, 1602.098 
	L 530.095, 1585.081 
	L 544.549, 1573.090 
" />
<path d="M 607.278, 1579.621 
	L 607.278, 1579.622 
	L 621.485, 1596.748 
	L 607.032, 1608.739 
	L 592.824, 1591.613 
	L 607.278, 1579.622 
" />
<path d="M 676.985, 1591.014 
	L 676.984, 1591.015 
	L 691.282, 1608.250 
	L 676.829, 1620.240 
	L 662.531, 1603.005 
	L 676.984, 1591.015 
" />
<path d="M 753.671, 1607.266 
	L 753.670, 1607.267 
	L 768.058, 1624.611 
	L 753.605, 1636.602 
	L 739.216, 1619.258 
	L 753.670, 1607.267 
" />
<path d="M 837.334, 1628.379 
	L 837.333, 1628.380 
	L 851.812, 1645.833 
	L 837.359, 1657.824 
	L 822.879, 1640.371 
	L 837.333, 1628.380 
" />
<path d="M 927.975, 1654.353 
	L 927.974, 1654.353 
	L 942.544, 1671.915 
	L 928.091, 1683.906 
	L 913.521, 1666.343 
	L 927.974, 1654.353 
" />
<path d="M 1025.595, 1685.186 
	L 1025.594, 1685.186 
	L 1040.254, 1702.858 
	L 1025.800, 1714.848 
	L 1011.141, 1697.177 
	L 1025.594, 1685.186 
" />
<path d="M 1130.192, 1720.879 
	L 1130.192, 1720.880 
	L 1144.943, 1738.661 
	L 1130.489, 1750.650 
	L 1115.739, 1732.870 
	L 1130.192, 1720.880 
" />
<path d="M 1241.768, 1761.433 
	L 1241.768, 1761.433 
	L 1256.608, 1779.324 
	L 1242.155, 1791.313 
	L 1227.315, 1773.424 
	L 1241.768, 1761.433 
" />
<path d="M 1360.322, 1806.847 
	L 1360.322, 1806.848 
	L 1375.253, 1824.847 
	L 1360.800, 1836.837 
	L 1345.869, 1818.838 
	L 1360.322, 1806.848 
" />
<path d="M 1485.855, 1857.121 
	L 1485.854, 1857.122 
	L 1500.876, 1875.230 
	L 1486.422, 1887.220 
	L 1471.401, 1869.112 
	L 1485.854, 1857.122 
" />
<path d="M 1618.365, 1912.256 
	L 1618.365, 1912.257 
	L 1633.477, 1930.473 
	L 1619.024, 1942.464 
	L 1603.911, 1924.247 
	L 1618.365, 1912.257 
" />
<path d="M 1757.854, 1972.251 
	L 1757.853, 1972.252 
	L 1773.056, 1990.578 
	L 1758.603, 2002.568 
	L 1743.400, 1984.242 
	L 1757.853, 1972.252 
" />
<path d="M 1904.321, 2037.106 
	L 1904.320, 2037.107 
	L 1919.614, 2055.542 
	L 1905.160, 2067.532 
	L 1889.867, 2049.097 
	L 1904.320, 2037.107 
" />
<path d="M 334.952, 1680.405 
	L 334.952, 1680.406 
	L 323.823, 1662.292 
	L 340.126, 1652.275 
	L 351.254, 1670.390 
	L 334.952, 1680.406 
" />
<path d="M 356.299, 1657.309 
	L 356.299, 1657.310 
	L 345.095, 1639.075 
	L 361.398, 1629.059 
	L 372.601, 1647.294 
	L 356.299, 1657.310 
" />
<path d="M 384.625, 1639.073 
	L 384.624, 1639.074 
	L 373.347, 1620.718 
	L 389.650, 1610.703 
	L 400.927, 1629.058 
	L 384.624, 1639.074 
" />
<path d="M 419.928, 1625.698 
	L 419.927, 1625.699 
	L 408.576, 1607.222 
	L 424.879, 1597.206 
	L 436.230, 1615.682 
	L 419.927, 1625.699 
" />
<path d="M 462.210, 1617.183 
	L 462.209, 1617.183 
	L 450.783, 1598.586 
	L 467.086, 1588.570 
	L 478.512, 1607.167 
	L 462.209, 1617.183 
" />
<path d="M 511.470, 1613.527 
	L 511.469, 1613.528 
	L 499.969, 1594.810 
	L 516.272, 1584.794 
	L 527.772, 1603.512 
	L 511.469, 1613.528 
" />
<path d="M 567.708, 1614.733 
	L 567.707, 1614.733 
	L 556.133, 1595.894 
	L 572.435, 1585.878 
	L 584.010, 1604.717 
	L 567.707, 1614.733 
" />
<path d="M 630.924, 1620.798 
	L 630.923, 1620.799 
	L 619.274, 1601.839 
	L 635.577, 1591.823 
	L 647.226, 1610.783 
	L 630.923, 1620.799 
" />
<path d="M 701.118, 1631.724 
	L 701.118, 1631.724 
	L 689.395, 1612.644 
	L 705.698, 1602.628 
	L 717.420, 1621.708 
	L 701.118, 1631.724 
" />
<path d="M 778.290, 1647.510 
	L 778.290, 1647.510 
	L 766.493, 1628.309 
	L 782.796, 1618.293 
	L 794.593, 1637.494 
	L 778.290, 1647.510 
" />
<path d="M 862.441, 1668.156 
	L 862.440, 1668.157 
	L 850.570, 1648.835 
	L 866.872, 1638.819 
	L 878.743, 1658.140 
	L 862.440, 1668.157 
" />
<path d="M 953.570, 1693.662 
	L 953.569, 1693.663 
	L 941.624, 1674.221 
	L 957.927, 1664.204 
	L 969.872, 1683.646 
	L 953.569, 1693.663 
" />
<path d="M 1051.677, 1724.029 
	L 1051.676, 1724.030 
	L 1039.657, 1704.466 
	L 1055.960, 1694.450 
	L 1067.979, 1714.013 
	L 1051.676, 1724.030 
" />
<path d="M 1156.762, 1759.256 
	L 1156.762, 1759.256 
	L 1144.668, 1739.573 
	L 1160.971, 1729.556 
	L 1173.064, 1749.240 
	L 1156.762, 1759.256 
" />
<path d="M 1268.826, 1799.343 
	L 1268.825, 1799.344 
	L 1256.657, 1779.539 
	L 1272.960, 1769.523 
	L 1285.128, 1789.328 
	L 1268.825, 1799.344 
" />
<path d="M 1387.867, 1844.291 
	L 1387.867, 1844.292 
	L 1375.625, 1824.365 
	L 1391.927, 1814.350 
	L 1404.169, 1834.275 
	L 1387.867, 1844.292 
" />
<path d="M 1513.887, 1894.098 
	L 1513.886, 1894.099 
	L 1501.570, 1874.053 
	L 1517.873, 1864.036 
	L 1530.189, 1884.083 
	L 1513.886, 1894.099 
" />
<path d="M 1646.885, 1948.767 
	L 1646.884, 1948.767 
	L 1634.494, 1928.600 
	L 1650.796, 1918.584 
	L 1663.187, 1938.751 
	L 1646.884, 1948.767 
" />
<path d="M 1786.861, 2008.295 
	L 1786.860, 2008.296 
	L 1774.395, 1988.007 
	L 1790.698, 1977.991 
	L 1803.163, 1998.279 
	L 1786.860, 2008.296 
" />
<path d="M 1933.815, 2072.683 
	L 1933.814, 2072.684 
	L 1921.275, 2052.275 
	L 1937.578, 2042.259 
	L 1950.117, 2062.668 
	L 1933.814, 2072.684 
" />
<path d="M 365.508, 1668.911 
	L 365.508, 1668.912 
	L 373.969, 1688.415 
	L 356.091, 1696.171 
	L 347.630, 1676.668 
	L 365.508, 1668.912 
" />
<path d="M 387.195, 1645.108 
	L 387.194, 1645.109 
	L 395.712, 1664.742 
	L 377.834, 1672.499 
	L 369.316, 1652.865 
	L 387.194, 1645.109 
" />
<path d="M 415.860, 1626.166 
	L 415.860, 1626.166 
	L 424.434, 1645.929 
	L 406.556, 1653.686 
	L 397.981, 1633.923 
	L 415.860, 1626.166 
" />
<path d="M 451.503, 1612.083 
	L 451.502, 1612.084 
	L 460.133, 1631.977 
	L 442.255, 1639.734 
	L 433.624, 1619.840 
	L 451.502, 1612.084 
" />
<path d="M 494.125, 1602.861 
	L 494.124, 1602.861 
	L 502.811, 1622.885 
	L 484.933, 1630.642 
	L 476.246, 1610.618 
	L 494.124, 1602.861 
" />
<path d="M 543.724, 1598.499 
	L 543.723, 1598.499 
	L 552.467, 1618.653 
	L 534.589, 1626.409 
	L 525.845, 1606.256 
	L 543.723, 1598.499 
" />
<path d="M 600.302, 1598.997 
	L 600.301, 1598.998 
	L 609.101, 1619.281 
	L 591.223, 1627.037 
	L 582.423, 1606.754 
	L 600.301, 1598.998 
" />
<path d="M 663.858, 1604.355 
	L 663.857, 1604.356 
	L 672.713, 1624.770 
	L 654.835, 1632.526 
	L 645.979, 1612.112 
	L 663.857, 1604.356 
" />
<path d="M 734.392, 1614.574 
	L 734.391, 1614.575 
	L 743.304, 1635.119 
	L 725.426, 1642.875 
	L 716.513, 1622.331 
	L 734.391, 1614.575 
" />
<path d="M 811.904, 1629.654 
	L 811.904, 1629.654 
	L 820.872, 1650.327 
	L 802.994, 1658.084 
	L 794.025, 1637.410 
	L 811.904, 1629.654 
" />
<path d="M 896.394, 1649.593 
	L 896.394, 1649.593 
	L 905.419, 1670.397 
	L 887.541, 1678.153 
	L 878.516, 1657.349 
	L 896.394, 1649.593 
" />
<path d="M 987.863, 1674.392 
	L 987.862, 1674.393 
	L 996.944, 1695.327 
	L 979.066, 1703.083 
	L 969.984, 1682.149 
	L 987.862, 1674.393 
" />
<path d="M 1086.309, 1704.052 
	L 1086.309, 1704.052 
	L 1095.447, 1725.117 
	L 1077.569, 1732.873 
	L 1068.430, 1711.809 
	L 1086.309, 1704.052 
" />
<path d="M 1191.735, 1738.572 
	L 1191.734, 1738.573 
	L 1200.928, 1759.767 
	L 1183.050, 1767.523 
	L 1173.856, 1746.329 
	L 1191.734, 1738.573 
" />
<path d="M 1304.138, 1777.952 
	L 1304.137, 1777.953 
	L 1313.388, 1799.277 
	L 1295.510, 1807.033 
	L 1286.259, 1785.709 
	L 1304.137, 1777.953 
" />
<path d="M 1423.519, 1822.193 
	L 1423.518, 1822.193 
	L 1432.826, 1843.647 
	L 1414.947, 1851.404 
	L 1405.640, 1829.950 
	L 1423.518, 1822.193 
" />
<path d="M 1549.878, 1871.294 
	L 1549.877, 1871.294 
	L 1559.242, 1892.878 
	L 1541.363, 1900.635 
	L 1531.999, 1879.051 
	L 1549.877, 1871.294 
" />
<path d="M 1683.216, 1925.255 
	L 1683.215, 1925.256 
	L 1692.635, 1946.970 
	L 1674.757, 1954.726 
	L 1665.337, 1933.012 
	L 1683.215, 1925.256 
" />
<path d="M 1823.531, 1984.076 
	L 1823.530, 1984.077 
	L 1833.007, 2005.921 
	L 1815.129, 2013.677 
	L 1805.652, 1991.833 
	L 1823.530, 1984.077 
" />
<path d="M 1970.825, 2047.758 
	L 1970.824, 2047.758 
	L 1980.358, 2069.732 
	L 1962.480, 2077.489 
	L 1952.946, 2055.515 
	L 1970.824, 2047.758 
" />
<path d="M 377.305, 1711.618 
	L 377.304, 1711.619 
	L 371.679, 1691.116 
	L 390.815, 1685.867 
	L 396.439, 1706.369 
	L 377.304, 1711.619 
" />
<path d="M 399.443, 1687.367 
	L 399.443, 1687.368 
	L 393.781, 1666.729 
	L 412.916, 1661.479 
	L 418.579, 1682.118 
	L 399.443, 1687.368 
" />
<path d="M 428.561, 1667.976 
	L 428.560, 1667.977 
	L 422.860, 1647.201 
	L 441.996, 1641.951 
	L 447.695, 1662.727 
	L 428.560, 1667.977 
" />
<path d="M 464.656, 1653.445 
	L 464.655, 1653.445 
	L 458.919, 1632.534 
	L 478.054, 1627.284 
	L 483.790, 1648.196 
	L 464.655, 1653.445 
" />
<path d="M 507.729, 1643.774 
	L 507.728, 1643.775 
	L 501.954, 1622.726 
	L 521.089, 1617.477 
	L 526.864, 1638.526 
	L 507.728, 1643.775 
" />
<path d="M 557.780, 1638.965 
	L 557.780, 1638.965 
	L 551.968, 1617.779 
	L 571.104, 1612.530 
	L 576.916, 1633.716 
	L 557.780, 1638.965 
" />
<path d="M 614.811, 1639.014 
	L 614.810, 1639.015 
	L 608.960, 1617.693 
	L 628.096, 1612.444 
	L 633.945, 1633.766 
	L 614.810, 1639.015 
" />
<path d="M 678.818, 1643.925 
	L 678.818, 1643.925 
	L 672.931, 1622.466 
	L 692.066, 1617.217 
	L 697.953, 1638.676 
	L 678.818, 1643.925 
" />
<path d="M 749.804, 1653.696 
	L 749.803, 1653.696 
	L 743.879, 1632.101 
	L 763.014, 1626.851 
	L 768.939, 1648.447 
	L 749.803, 1653.696 
" />
<path d="M 827.768, 1668.327 
	L 827.768, 1668.327 
	L 821.806, 1646.595 
	L 840.942, 1641.345 
	L 846.903, 1663.078 
	L 827.768, 1668.327 
" />
<path d="M 912.711, 1687.818 
	L 912.710, 1687.818 
	L 906.710, 1665.949 
	L 925.846, 1660.699 
	L 931.845, 1682.569 
	L 912.710, 1687.818 
" />
<path d="M 1004.631, 1712.169 
	L 1004.630, 1712.169 
	L 998.593, 1690.164 
	L 1017.729, 1684.914 
	L 1023.766, 1706.920 
	L 1004.630, 1712.169 
" />
<path d="M 1103.530, 1741.381 
	L 1103.529, 1741.381 
	L 1097.455, 1719.239 
	L 1116.590, 1713.989 
	L 1122.665, 1736.132 
	L 1103.529, 1741.381 
" />
<path d="M 1209.407, 1775.452 
	L 1209.406, 1775.453 
	L 1203.294, 1753.174 
	L 1222.430, 1747.924 
	L 1228.542, 1770.204 
	L 1209.406, 1775.453 
" />
<path d="M 1322.262, 1814.385 
	L 1322.261, 1814.385 
	L 1316.112, 1791.970 
	L 1335.247, 1786.720 
	L 1341.396, 1809.136 
	L 1322.261, 1814.385 
" />
<path d="M 1442.095, 1858.177 
	L 1442.094, 1858.178 
	L 1435.908, 1835.625 
	L 1455.043, 1830.376 
	L 1461.229, 1852.928 
	L 1442.094, 1858.178 
" />
<path d="M 1568.906, 1906.830 
	L 1568.906, 1906.830 
	L 1562.681, 1884.141 
	L 1581.817, 1878.892 
	L 1588.041, 1901.581 
	L 1568.906, 1906.830 
" />
<path d="M 1702.696, 1960.343 
	L 1702.695, 1960.343 
	L 1696.433, 1937.517 
	L 1715.569, 1932.268 
	L 1721.831, 1955.094 
	L 1702.695, 1960.343 
" />
<path d="M 1843.464, 2018.716 
	L 1843.463, 2018.717 
	L 1837.164, 1995.754 
	L 1856.299, 1990.505 
	L 1862.598, 2013.468 
	L 1843.463, 2018.717 
" />
<path d="M 1991.210, 2081.949 
	L 1991.209, 2081.950 
	L 1984.872, 2058.851 
	L 2004.007, 2053.601 
	L 2010.344, 2076.701 
	L 1991.209, 2081.950 
" />
<path d="M 416.002, 1703.127 
	L 416.001, 1703.128 
	L 418.676, 1724.218 
	L 398.640, 1726.759 
	L 395.965, 1705.669 
	L 416.001, 1703.128 
" />
<path d="M 438.518, 1678.156 
	L 438.518, 1678.157 
	L 441.210, 1699.388 
	L 421.174, 1701.929 
	L 418.481, 1680.697 
	L 438.518, 1678.157 
" />
<path d="M 468.012, 1658.045 
	L 468.011, 1658.045 
	L 470.722, 1679.417 
	L 450.686, 1681.959 
	L 447.975, 1660.586 
	L 468.011, 1658.045 
" />
<path d="M 504.485, 1642.794 
	L 504.484, 1642.794 
	L 507.212, 1664.307 
	L 487.176, 1666.848 
	L 484.448, 1645.336 
	L 504.484, 1642.794 
" />
<path d="M 547.936, 1632.403 
	L 547.935, 1632.404 
	L 550.681, 1654.057 
	L 530.644, 1656.598 
	L 527.898, 1634.944 
	L 547.935, 1632.404 
" />
<path d="M 598.365, 1626.873 
	L 598.364, 1626.874 
	L 601.128, 1648.667 
	L 581.091, 1651.208 
	L 578.327, 1629.415 
	L 598.364, 1626.874 
" />
<path d="M 655.771, 1626.202 
	L 655.771, 1626.203 
	L 658.553, 1648.138 
	L 638.516, 1650.679 
	L 635.735, 1628.744 
	L 655.771, 1626.203 
" />
<path d="M 720.157, 1630.393 
	L 720.156, 1630.393 
	L 722.955, 1652.469 
	L 702.919, 1655.010 
	L 700.119, 1632.935 
	L 720.156, 1630.393 
" />
<path d="M 791.520, 1639.443 
	L 791.519, 1639.444 
	L 794.336, 1661.660 
	L 774.301, 1664.201 
	L 771.483, 1641.985 
	L 791.519, 1639.444 
" />
<path d="M 869.861, 1653.354 
	L 869.861, 1653.355 
	L 872.696, 1675.711 
	L 852.659, 1678.252 
	L 849.825, 1655.896 
	L 869.861, 1653.355 
" />
<path d="M 955.181, 1672.125 
	L 955.181, 1672.126 
	L 958.034, 1694.623 
	L 937.997, 1697.164 
	L 935.144, 1674.667 
	L 955.181, 1672.126 
" />
<path d="M 1047.479, 1695.756 
	L 1047.478, 1695.757 
	L 1050.349, 1718.394 
	L 1030.313, 1720.936 
	L 1027.442, 1698.298 
	L 1047.478, 1695.757 
" />
<path d="M 1146.755, 1724.248 
	L 1146.755, 1724.249 
	L 1149.643, 1747.026 
	L 1129.607, 1749.568 
	L 1126.718, 1726.789 
	L 1146.755, 1724.249 
" />
<path d="M 1253.009, 1757.600 
	L 1253.008, 1757.600 
	L 1255.915, 1780.519 
	L 1235.879, 1783.060 
	L 1232.972, 1760.141 
	L 1253.008, 1757.600 
" />
<path d="M 1366.242, 1795.811 
	L 1366.241, 1795.812 
	L 1369.165, 1818.871 
	L 1349.129, 1821.413 
	L 1346.205, 1798.353 
	L 1366.241, 1795.812 
" />
<path d="M 1486.452, 1838.884 
	L 1486.451, 1838.884 
	L 1489.394, 1862.085 
	L 1469.357, 1864.625 
	L 1466.415, 1841.426 
	L 1486.451, 1838.884 
" />
<path d="M 1613.641, 1886.816 
	L 1613.641, 1886.817 
	L 1616.601, 1910.157 
	L 1596.564, 1912.699 
	L 1593.604, 1889.358 
	L 1613.641, 1886.817 
" />
<path d="M 1747.808, 1939.609 
	L 1747.807, 1939.609 
	L 1750.785, 1963.091 
	L 1730.749, 1965.632 
	L 1727.771, 1942.151 
	L 1747.807, 1939.609 
" />
<path d="M 1888.953, 1997.262 
	L 1888.952, 1997.263 
	L 1891.948, 2020.884 
	L 1871.912, 2023.426 
	L 1868.916, 1999.804 
	L 1888.952, 1997.263 
" />
<path d="M 2037.076, 2059.775 
	L 2037.076, 2059.776 
	L 2040.089, 2083.539 
	L 2020.053, 2086.080 
	L 2017.039, 2062.317 
	L 2037.076, 2059.776 
" />
<path d="M 420.143, 1741.614 
	L 420.142, 1741.614 
	L 420.471, 1720.357 
	L 441.019, 1720.674 
	L 440.691, 1741.932 
	L 420.142, 1741.614 
" />
<path d="M 443.072, 1716.202 
	L 443.071, 1716.202 
	L 443.402, 1694.804 
	L 463.951, 1695.121 
	L 463.620, 1716.520 
	L 443.071, 1716.202 
" />
<path d="M 472.979, 1695.651 
	L 472.978, 1695.651 
	L 473.311, 1674.111 
	L 493.860, 1674.428 
	L 493.527, 1695.969 
	L 472.978, 1695.651 
" />
<path d="M 509.865, 1679.959 
	L 509.864, 1679.960 
	L 510.199, 1658.278 
	L 530.748, 1658.595 
	L 530.413, 1680.278 
	L 509.864, 1679.960 
" />
<path d="M 553.728, 1669.128 
	L 553.728, 1669.129 
	L 554.064, 1647.305 
	L 574.613, 1647.622 
	L 574.276, 1669.446 
	L 553.728, 1669.129 
" />
<path d="M 604.570, 1663.158 
	L 604.569, 1663.158 
	L 604.908, 1641.193 
	L 625.457, 1641.510 
	L 625.118, 1663.476 
	L 604.569, 1663.158 
" />
<path d="M 662.389, 1662.047 
	L 662.389, 1662.048 
	L 662.730, 1639.941 
	L 683.279, 1640.258 
	L 682.938, 1662.365 
	L 662.389, 1662.048 
" />
<path d="M 727.188, 1665.798 
	L 727.187, 1665.798 
	L 727.531, 1643.548 
	L 748.079, 1643.866 
	L 747.736, 1666.115 
	L 727.187, 1665.798 
" />
<path d="M 798.964, 1674.407 
	L 798.963, 1674.408 
	L 799.309, 1652.017 
	L 819.857, 1652.334 
	L 819.512, 1674.725 
	L 798.963, 1674.408 
" />
<path d="M 877.718, 1687.878 
	L 877.718, 1687.879 
	L 878.066, 1665.345 
	L 898.615, 1665.663 
	L 898.266, 1688.195 
	L 877.718, 1687.879 
" />
<path d="M 963.451, 1706.208 
	L 963.450, 1706.209 
	L 963.800, 1683.535 
	L 984.349, 1683.852 
	L 983.999, 1706.526 
	L 963.450, 1706.209 
" />
<path d="M 1056.161, 1729.399 
	L 1056.161, 1729.400 
	L 1056.514, 1706.584 
	L 1077.062, 1706.901 
	L 1076.710, 1729.717 
	L 1056.161, 1729.400 
" />
<path d="M 1155.850, 1757.450 
	L 1155.850, 1757.451 
	L 1156.205, 1734.493 
	L 1176.753, 1734.810 
	L 1176.399, 1757.768 
	L 1155.850, 1757.451 
" />
<path d="M 1262.517, 1790.362 
	L 1262.517, 1790.362 
	L 1262.874, 1767.263 
	L 1283.422, 1767.580 
	L 1283.066, 1790.680 
	L 1262.517, 1790.362 
" />
<path d="M 1376.162, 1828.133 
	L 1376.162, 1828.134 
	L 1376.521, 1804.893 
	L 1397.070, 1805.210 
	L 1396.711, 1828.452 
	L 1376.162, 1828.134 
" />
<path d="M 1496.786, 1870.765 
	L 1496.785, 1870.766 
	L 1497.146, 1847.383 
	L 1517.696, 1847.700 
	L 1517.334, 1871.083 
	L 1496.785, 1870.766 
" />
<path d="M 1624.387, 1918.257 
	L 1624.387, 1918.258 
	L 1624.750, 1894.733 
	L 1645.299, 1895.051 
	L 1644.936, 1918.576 
	L 1624.387, 1918.258 
" />
<path d="M 1758.967, 1970.610 
	L 1758.966, 1970.611 
	L 1759.332, 1946.944 
	L 1779.881, 1947.262 
	L 1779.516, 1970.928 
	L 1758.966, 1970.611 
" />
<path d="M 1900.525, 2027.822 
	L 1900.524, 2027.823 
	L 1900.892, 2004.015 
	L 1921.441, 2004.332 
	L 1921.073, 2028.140 
	L 1900.524, 2027.823 
" />
<path d="M 2049.061, 2089.895 
	L 2049.061, 2089.896 
	L 2049.430, 2065.946 
	L 2069.980, 2066.264 
	L 2069.610, 2090.213 
	L 2049.061, 2089.896 
" />
<path d="M 465.829, 1738.480 
	L 465.828, 1738.481 
	L 462.503, 1759.479 
	L 441.855, 1756.210 
	L 445.180, 1735.212 
	L 465.828, 1738.481 
" />
<path d="M 489.175, 1712.346 
	L 489.174, 1712.347 
	L 485.827, 1733.485 
	L 465.179, 1730.216 
	L 468.526, 1709.078 
	L 489.174, 1712.347 
" />
<path d="M 519.499, 1691.073 
	L 519.498, 1691.073 
	L 516.129, 1712.351 
	L 495.481, 1709.082 
	L 498.850, 1687.804 
	L 519.498, 1691.073 
" />
<path d="M 556.802, 1674.659 
	L 556.801, 1674.659 
	L 553.410, 1696.078 
	L 532.762, 1692.808 
	L 536.153, 1671.390 
	L 556.801, 1674.659 
" />
<path d="M 601.082, 1663.105 
	L 601.082, 1663.106 
	L 597.668, 1684.664 
	L 577.020, 1681.395 
	L 580.433, 1659.837 
	L 601.082, 1663.106 
" />
<path d="M 652.341, 1656.413 
	L 652.341, 1656.413 
	L 648.905, 1678.111 
	L 628.257, 1674.842 
	L 631.692, 1653.144 
	L 652.341, 1656.413 
" />
<path d="M 710.578, 1654.579 
	L 710.578, 1654.580 
	L 707.120, 1676.418 
	L 686.472, 1673.149 
	L 689.929, 1651.311 
	L 710.578, 1654.580 
" />
<path d="M 775.794, 1657.607 
	L 775.793, 1657.607 
	L 772.313, 1679.586 
	L 751.664, 1676.317 
	L 755.145, 1654.338 
	L 775.793, 1657.607 
" />
<path d="M 847.987, 1665.495 
	L 847.986, 1665.496 
	L 844.484, 1687.614 
	L 823.836, 1684.345 
	L 827.338, 1662.226 
	L 847.986, 1665.496 
" />
<path d="M 927.159, 1678.243 
	L 927.158, 1678.244 
	L 923.634, 1700.501 
	L 902.986, 1697.232 
	L 906.510, 1674.974 
	L 927.158, 1678.244 
" />
<path d="M 1013.309, 1695.851 
	L 1013.308, 1695.852 
	L 1009.761, 1718.250 
	L 989.113, 1714.981 
	L 992.660, 1692.582 
	L 1013.308, 1695.852 
" />
<path d="M 1106.437, 1718.320 
	L 1106.436, 1718.321 
	L 1102.867, 1740.858 
	L 1082.219, 1737.589 
	L 1085.788, 1715.051 
	L 1106.436, 1718.321 
" />
<path d="M 1206.542, 1745.648 
	L 1206.541, 1745.649 
	L 1202.951, 1768.327 
	L 1182.302, 1765.058 
	L 1185.893, 1742.380 
	L 1206.541, 1745.649 
" />
<path d="M 1313.627, 1777.838 
	L 1313.626, 1777.838 
	L 1310.013, 1800.656 
	L 1289.365, 1797.387 
	L 1292.978, 1774.568 
	L 1313.626, 1777.838 
" />
<path d="M 1427.689, 1814.886 
	L 1427.689, 1814.887 
	L 1424.053, 1837.846 
	L 1403.405, 1834.576 
	L 1407.040, 1811.618 
	L 1427.689, 1814.887 
" />
<path d="M 1548.730, 1856.796 
	L 1548.729, 1856.797 
	L 1545.072, 1879.895 
	L 1524.424, 1876.626 
	L 1528.081, 1853.528 
	L 1548.729, 1856.797 
" />
<path d="M 1676.748, 1903.566 
	L 1676.748, 1903.567 
	L 1673.068, 1926.805 
	L 1652.420, 1923.536 
	L 1656.099, 1900.297 
	L 1676.748, 1903.567 
" />
<path d="M 1811.745, 1955.196 
	L 1811.745, 1955.196 
	L 1808.043, 1978.575 
	L 1787.395, 1975.305 
	L 1791.096, 1951.927 
	L 1811.745, 1955.196 
" />
<path d="M 1953.721, 2011.687 
	L 1953.720, 2011.687 
	L 1949.996, 2035.205 
	L 1929.348, 2031.936 
	L 1933.072, 2008.418 
	L 1953.720, 2011.687 
" />
<path d="M 2102.674, 2073.037 
	L 2102.673, 2073.038 
	L 2098.927, 2096.696 
	L 2078.279, 2093.426 
	L 2082.025, 2069.768 
	L 2102.673, 2073.038 
" />
<path d="M 1142.914, 1439.529 
	L 1145.040, 1439.529 
	L 1145.749, 1438.466 
	L 1145.040, 1437.403 
	L 1143.623, 1437.403 
" />
<path d="M 1145.040, 1437.403 
	L 1145.749, 1436.340 
	L 1145.040, 1435.277 
	L 1142.914, 1435.277 
" />
<path d="M 1144.332, 1433.151 
	L 1144.332, 1429.962 
	L 1143.623, 1428.899 
	L 1142.914, 1429.962 
	L 1142.914, 1432.088 
	L 1143.623, 1433.151 
	L 1145.040, 1433.151 
	L 1145.749, 1432.088 
	L 1145.749, 1428.899 
" />
<path d="M 1145.749, 1422.521 
	L 1145.749, 1425.710 
	L 1145.040, 1426.773 
	L 1143.623, 1426.773 
	L 1142.914, 1425.710 
	L 1142.914, 1423.584 
	L 1145.749, 1423.584 
" />
<path d="M 1142.914, 1420.395 
	L 1144.332, 1420.395 
	L 1145.749, 1418.269 
	L 1144.332, 1416.143 
	L 1142.914, 1416.143 
" />
<path d="M 1144.332, 1414.017 
	L 1144.332, 1410.828 
	L 1143.623, 1409.765 
	L 1142.914, 1410.828 
	L 1142.914, 1412.954 
	L 1143.623, 1414.017 
	L 1145.040, 1414.017 
	L 1145.749, 1412.954 
	L 1145.749, 1409.765 
" />
<path d="M 1142.914, 1404.450 
	L 1142.914, 1406.576 
	L 1143.623, 1407.639 
	L 1144.332, 1406.576 
	L 1144.332, 1405.513 
	L 1145.040, 1404.450 
	L 1145.749, 1405.513 
	L 1145.749, 1407.639 
" />
<path d="M 1145.749, 1399.135 
	L 1145.749, 1400.198 
	L 1145.040, 1400.198 
	L 1145.040, 1399.135 
	L 1145.749, 1399.135 
" />
<path d="M 1147.166, 1394.883 
	L 1142.914, 1394.883 
	L 1142.914, 1392.757 
	L 1143.623, 1391.694 
	L 1145.040, 1391.694 
	L 1145.749, 1392.757 
	L 1145.749, 1394.883 
" />
<path d="M 1147.166, 1388.505 
	L 1144.332, 1384.253 
	L 1142.914, 1384.253 
" />
<path d="M 1142.914, 1388.505 
	L 1144.332, 1388.505 
	L 1145.749, 1386.379 
" />
<path d="M 1142.206, 1356.616 
	L 1141.497, 1355.553 
	L 1141.497, 1353.427 
	L 1142.206, 1352.364 
	L 1142.914, 1352.364 
	L 1145.040, 1356.616 
	L 1145.749, 1356.616 
	L 1145.749, 1352.364 
" />
<path d="M 1145.040, 1350.238 
	L 1145.749, 1349.175 
	L 1145.749, 1347.049 
	L 1145.040, 1345.986 
	L 1142.206, 1345.986 
	L 1141.497, 1347.049 
	L 1141.497, 1349.175 
	L 1142.206, 1350.238 
	L 1145.040, 1350.238 
" />
<path d="M 1145.749, 1342.797 
	L 1145.749, 1340.671 
" />
<path d="M 1145.749, 1341.734 
	L 1141.497, 1341.734 
	L 1142.206, 1342.797 
" />
<path d="M 1145.749, 1336.419 
	L 1145.749, 1335.356 
	L 1144.332, 1333.230 
	L 1142.206, 1333.230 
	L 1141.497, 1334.293 
	L 1141.497, 1336.419 
	L 1142.206, 1337.482 
	L 1142.914, 1337.482 
	L 1143.623, 1336.419 
	L 1143.623, 1333.230 
" />
<path d="M 1143.623, 1333.230 
" />
<path d="M 1143.623, 1331.104 
	L 1143.623, 1326.852 
" />
<path d="M 1145.040, 1324.726 
	L 1145.749, 1323.663 
	L 1145.749, 1321.537 
	L 1145.040, 1320.474 
	L 1142.206, 1320.474 
	L 1141.497, 1321.537 
	L 1141.497, 1323.663 
	L 1142.206, 1324.726 
	L 1145.040, 1324.726 
" />
<path d="M 1141.497, 1314.096 
	L 1141.497, 1316.222 
	L 1142.914, 1318.348 
	L 1145.040, 1318.348 
	L 1145.749, 1317.285 
	L 1145.749, 1315.159 
	L 1145.040, 1314.096 
	L 1144.332, 1314.096 
	L 1143.623, 1315.159 
	L 1143.623, 1318.348 
" />
<path d="M 1143.623, 1318.348 
" />
<path d="M 1143.623, 1311.970 
	L 1143.623, 1307.718 
" />
<path d="M 1145.040, 1305.592 
	L 1145.749, 1304.529 
	L 1145.749, 1302.403 
	L 1145.040, 1301.340 
	L 1142.206, 1301.340 
	L 1141.497, 1302.403 
	L 1141.497, 1304.529 
	L 1142.206, 1305.592 
	L 1145.040, 1305.592 
" />
<path d="M 1145.749, 1298.151 
	L 1145.749, 1297.088 
	L 1144.332, 1294.962 
	L 1142.206, 1294.962 
	L 1141.497, 1296.025 
	L 1141.497, 1298.151 
	L 1142.206, 1299.214 
	L 1142.914, 1299.214 
	L 1143.623, 1298.151 
	L 1143.623, 1294.962 
" />
<path d="M 1143.623, 1294.962 
" />
<path d="M 1145.040, 1286.458 
	L 1145.749, 1285.395 
	L 1145.749, 1283.269 
	L 1145.040, 1282.206 
	L 1142.206, 1282.206 
	L 1141.497, 1283.269 
	L 1141.497, 1285.395 
	L 1142.206, 1286.458 
	L 1145.040, 1286.458 
" />
<path d="M 1145.040, 1280.080 
	L 1145.749, 1279.017 
	L 1145.749, 1276.891 
	L 1145.040, 1275.828 
	L 1142.206, 1275.828 
	L 1141.497, 1276.891 
	L 1141.497, 1279.017 
	L 1142.206, 1280.080 
	L 1145.040, 1280.080 
" />
<path d="M 1143.623, 1272.639 
	L 1142.914, 1272.639 
	L 1142.914, 1271.576 
	L 1143.623, 1271.576 
	L 1143.623, 1272.639 
" />
<path d="M 1145.040, 1272.639 
	L 1145.040, 1271.576 
	L 1145.749, 1271.576 
	L 1145.749, 1272.639 
	L 1145.040, 1272.639 
" />
<path d="M 1145.749, 1266.261 
	L 1145.749, 1264.135 
" />
<path d="M 1145.749, 1265.198 
	L 1141.497, 1265.198 
	L 1142.206, 1266.261 
" />
<path d="M 1143.623, 1257.757 
	L 1142.914, 1256.694 
	L 1142.206, 1256.694 
	L 1141.497, 1257.757 
	L 1141.497, 1259.883 
	L 1142.206, 1260.946 
	L 1142.914, 1260.946 
	L 1143.623, 1259.883 
	L 1143.623, 1257.757 
	L 1144.332, 1256.694 
" />
<path d="M 1144.332, 1256.694 
	L 1145.040, 1256.694 
	L 1145.749, 1257.757 
	L 1145.749, 1259.883 
	L 1145.040, 1260.946 
	L 1144.332, 1260.946 
	L 1143.623, 1259.883 
" />
</g>
</svg>
