<?xml version="1.0" encoding="UTF-8" standalone="no" ?>
<svg width="100%" height="100%" viewBox="0 0 3199.921 904.448" xmlns="http://www.w3.org/2000/svg"><g>
</g><g style="stroke:rgb(0,0,0); fill:none; stroke-width:1.000mm" >
</g><g style="stroke:rgb(0,255,0); fill:none; stroke-width:0.100mm" >
<path d="M 0.001, 904.447 
	L 0.000, 904.448 
	L 0.000, 122.085 
	L 1145.055, 122.085 
	L 1145.055, 904.448 
	L 0.000, 904.448 
" />
</g><g style="stroke:rgb(255,0,0); fill:none; stroke-width:0.100mm" >
<path d="M 18.607, 899.710 
	L 18.607, 899.711 
	L 17.106, 910.235 
	L 9.740, 909.184 
	L 11.240, 898.661 
	L 18.607, 899.711 
" />
<path d="M 14.174, 904.447 
	L 14.173, 904.448 
	L 16.812, 897.361 
" />
<path d="M 23.119, 908.461 
	L 23.119, 908.462 
	L 26.089, 898.255 
	L 33.574, 900.434 
	L 30.604, 910.640 
	L 23.119, 908.462 
" />
<path d="M 28.347, 904.447 
	L 28.346, 904.448 
	L 31.890, 897.361 
" />
<path d="M 26.644, 886.561 
	L 26.643, 886.562 
	L 29.653, 876.219 
	L 37.137, 878.397 
	L 34.127, 888.740 
	L 26.643, 886.562 
" />
<path d="M 31.890, 882.479 
	L 31.890, 882.479 
	L 32.348, 875.393 
" />
<path d="M 48.424, 901.284 
	L 48.423, 901.284 
	L 44.042, 910.970 
	L 36.617, 907.611 
	L 40.997, 897.926 
	L 48.423, 901.284 
" />
<path d="M 42.520, 904.447 
	L 42.520, 904.448 
	L 43.812, 897.361 
" />
<path d="M 51.996, 878.896 
	L 51.995, 878.897 
	L 47.556, 888.711 
	L 40.131, 885.353 
	L 44.570, 875.539 
	L 51.995, 878.897 
" />
<path d="M 46.064, 882.124 
	L 46.063, 882.125 
	L 48.848, 875.038 
" />
<path d="M 62.655, 856.509 
	L 62.654, 856.510 
	L 58.157, 866.453 
	L 50.732, 863.094 
	L 55.229, 853.151 
	L 62.654, 856.510 
" />
<path d="M 56.694, 859.801 
	L 56.693, 859.802 
	L 56.872, 852.715 
" />
<path d="M 50.254, 906.650 
	L 50.253, 906.651 
	L 55.957, 897.681 
	L 63.133, 902.245 
	L 57.429, 911.214 
	L 50.253, 906.651 
" />
<path d="M 56.694, 904.447 
	L 56.693, 904.448 
	L 60.868, 897.361 
" />
<path d="M 53.759, 884.033 
	L 53.758, 884.034 
	L 59.538, 874.944 
	L 66.714, 879.507 
	L 60.934, 888.597 
	L 53.758, 884.034 
" />
<path d="M 60.237, 881.770 
	L 60.236, 881.771 
	L 61.831, 874.684 
" />
<path d="M 64.351, 861.416 
	L 64.350, 861.416 
	L 70.206, 852.207 
	L 77.382, 856.770 
	L 71.527, 865.979 
	L 64.350, 861.416 
" />
<path d="M 70.867, 859.093 
	L 70.866, 859.093 
	L 77.065, 852.007 
" />
<path d="M 82.030, 838.799 
	L 82.029, 838.799 
	L 87.960, 829.471 
	L 95.136, 834.033 
	L 89.205, 843.362 
	L 82.029, 838.799 
" />
<path d="M 88.583, 836.416 
	L 88.583, 836.416 
	L 95.117, 829.330 
" />
<path d="M 77.688, 903.290 
	L 77.687, 903.290 
	L 70.775, 911.366 
	L 64.045, 905.605 
	L 70.958, 897.530 
	L 77.687, 903.290 
" />
<path d="M 70.867, 904.447 
	L 70.866, 904.448 
	L 73.722, 897.361 
" />
<path d="M 81.277, 880.204 
	L 81.276, 880.205 
	L 74.272, 888.388 
	L 67.543, 882.627 
	L 74.547, 874.444 
	L 81.276, 880.205 
" />
<path d="M 74.410, 881.416 
	L 74.409, 881.416 
	L 74.438, 874.330 
" />
<path d="M 91.953, 857.119 
	L 91.952, 857.120 
	L 84.856, 865.410 
	L 78.126, 859.650 
	L 85.223, 851.359 
	L 91.952, 857.120 
" />
<path d="M 85.040, 858.384 
	L 85.039, 858.385 
	L 88.279, 851.298 
" />
<path d="M 109.716, 834.034 
	L 109.715, 834.034 
	L 102.526, 842.433 
	L 95.797, 836.672 
	L 102.986, 828.274 
	L 109.715, 834.034 
" />
<path d="M 102.757, 835.353 
	L 102.756, 835.353 
	L 109.220, 828.267 
" />
<path d="M 134.565, 810.948 
	L 134.564, 810.949 
	L 127.283, 819.455 
	L 120.554, 813.694 
	L 127.835, 805.188 
	L 134.564, 810.949 
" />
<path d="M 127.560, 812.321 
	L 127.559, 812.322 
	L 132.000, 805.235 
" />
<path d="M 78.007, 904.497 
	L 78.007, 904.498 
	L 85.989, 897.479 
	L 92.072, 904.397 
	L 84.090, 911.417 
	L 78.007, 904.498 
" />
<path d="M 85.040, 904.447 
	L 85.039, 904.448 
	L 91.315, 897.361 
" />
<path d="M 81.497, 881.158 
	L 81.496, 881.159 
	L 89.585, 874.046 
	L 95.669, 880.965 
	L 87.580, 888.078 
	L 81.496, 881.159 
" />
<path d="M 88.583, 881.061 
	L 88.583, 881.062 
	L 91.865, 873.975 
" />
<path d="M 92.074, 857.819 
	L 92.073, 857.820 
	L 100.269, 850.614 
	L 106.352, 857.532 
	L 98.156, 864.739 
	L 92.073, 857.820 
" />
<path d="M 99.213, 857.675 
	L 99.213, 857.676 
	L 99.281, 850.589 
" />
<path d="M 109.737, 834.480 
	L 109.736, 834.481 
	L 118.039, 827.181 
	L 124.122, 834.100 
	L 115.819, 841.400 
	L 109.736, 834.481 
" />
<path d="M 116.930, 834.290 
	L 116.929, 834.290 
	L 122.228, 827.204 
" />
<path d="M 134.487, 811.141 
	L 134.486, 811.142 
	L 142.895, 803.748 
	L 148.978, 810.667 
	L 140.569, 818.060 
	L 134.486, 811.142 
" />
<path d="M 141.733, 810.904 
	L 141.732, 810.904 
	L 148.085, 803.818 
" />
<path d="M 166.324, 787.802 
	L 166.323, 787.803 
	L 174.838, 780.316 
	L 180.921, 787.234 
	L 172.406, 794.721 
	L 166.323, 787.803 
" />
<path d="M 173.623, 787.518 
	L 173.622, 787.519 
	L 176.214, 780.432 
" />
<path d="M 106.280, 905.538 
	L 106.279, 905.538 
	L 97.386, 911.361 
	L 92.146, 903.357 
	L 101.040, 897.535 
	L 106.279, 905.538 
" />
<path d="M 99.213, 904.447 
	L 99.213, 904.448 
	L 102.399, 897.361 
" />
<path d="M 109.883, 881.759 
	L 109.882, 881.760 
	L 100.870, 887.660 
	L 95.630, 879.655 
	L 104.642, 873.756 
	L 109.882, 881.760 
" />
<path d="M 102.757, 880.707 
	L 102.756, 880.708 
	L 108.403, 873.621 
" />
<path d="M 120.572, 857.980 
	L 120.571, 857.981 
	L 111.441, 863.958 
	L 106.201, 855.954 
	L 115.331, 849.976 
	L 120.571, 857.981 
" />
<path d="M 113.387, 856.967 
	L 113.386, 856.967 
	L 115.450, 849.881 
" />
<path d="M 138.348, 834.201 
	L 138.347, 834.202 
	L 129.098, 840.257 
	L 123.858, 832.253 
	L 133.107, 826.197 
	L 138.347, 834.202 
" />
<path d="M 131.103, 833.227 
	L 131.102, 833.227 
	L 134.076, 826.141 
" />
<path d="M 163.210, 810.422 
	L 163.210, 810.423 
	L 153.842, 816.555 
	L 148.601, 808.552 
	L 157.969, 802.419 
	L 163.210, 810.423 
" />
<path d="M 155.906, 809.486 
	L 155.906, 809.487 
	L 158.550, 802.400 
" />
<path d="M 195.159, 786.643 
	L 195.158, 786.644 
	L 185.672, 792.854 
	L 180.432, 784.850 
	L 189.918, 778.640 
	L 195.158, 786.644 
" />
<path d="M 187.796, 785.746 
	L 187.795, 785.747 
	L 194.269, 778.660 
" />
<path d="M 234.195, 762.864 
	L 234.194, 762.865 
	L 224.589, 769.153 
	L 219.349, 761.149 
	L 228.954, 754.861 
	L 234.194, 762.865 
" />
<path d="M 226.772, 762.006 
	L 226.772, 762.007 
	L 230.426, 754.920 
" />
<path d="M 106.469, 902.209 
	L 106.469, 902.210 
	L 116.095, 897.701 
	L 120.303, 906.686 
	L 110.677, 911.194 
	L 106.469, 902.210 
" />
<path d="M 113.387, 904.447 
	L 113.386, 904.448 
	L 115.717, 897.361 
" />
<path d="M 109.948, 878.145 
	L 109.947, 878.146 
	L 119.702, 873.576 
	L 123.911, 882.561 
	L 114.156, 887.130 
	L 109.947, 878.146 
" />
<path d="M 116.930, 880.353 
	L 116.929, 880.353 
	L 123.699, 873.267 
" />
<path d="M 120.514, 854.080 
	L 120.514, 854.081 
	L 130.397, 849.452 
	L 134.605, 858.436 
	L 124.722, 863.065 
	L 120.514, 854.081 
" />
<path d="M 127.560, 856.258 
	L 127.559, 856.259 
	L 129.208, 849.172 
" />
<path d="M 138.166, 830.016 
	L 138.166, 830.017 
	L 148.177, 825.327 
	L 152.386, 834.311 
	L 142.374, 839.001 
	L 138.166, 830.017 
" />
<path d="M 145.276, 832.164 
	L 145.276, 832.164 
	L 150.064, 825.078 
" />
<path d="M 162.906, 805.952 
	L 162.905, 805.952 
	L 173.045, 801.203 
	L 177.253, 810.187 
	L 167.113, 814.937 
	L 162.905, 805.952 
" />
<path d="M 170.079, 808.069 
	L 170.079, 808.070 
	L 172.077, 800.983 
" />
<path d="M 194.731, 781.887 
	L 194.730, 781.888 
	L 204.998, 777.079 
	L 209.207, 786.063 
	L 198.939, 790.872 
	L 194.730, 781.888 
" />
<path d="M 201.969, 783.975 
	L 201.969, 783.975 
	L 204.970, 776.889 
" />
<path d="M 233.644, 757.823 
	L 233.643, 757.824 
	L 244.039, 752.954 
	L 248.247, 761.938 
	L 237.851, 766.808 
	L 233.643, 757.824 
" />
<path d="M 240.946, 759.880 
	L 240.945, 759.881 
	L 244.585, 752.794 
" />
<path d="M 279.642, 733.758 
	L 279.641, 733.759 
	L 290.166, 728.829 
	L 294.374, 737.814 
	L 283.850, 742.743 
	L 279.641, 733.759 
" />
<path d="M 287.009, 735.786 
	L 287.008, 735.786 
	L 291.537, 728.700 
" />
<path d="M 134.144, 907.808 
	L 134.143, 907.809 
	L 123.977, 910.914 
	L 120.975, 901.087 
	L 131.141, 897.981 
	L 134.143, 907.809 
" />
<path d="M 127.560, 904.447 
	L 127.559, 904.448 
	L 132.841, 897.361 
" />
<path d="M 137.755, 883.338 
	L 137.754, 883.339 
	L 127.453, 886.486 
	L 124.451, 876.659 
	L 134.752, 873.512 
	L 137.754, 883.339 
" />
<path d="M 131.103, 879.998 
	L 131.102, 879.999 
	L 137.423, 872.912 
" />
<path d="M 148.453, 858.869 
	L 148.452, 858.869 
	L 138.015, 862.058 
	L 135.013, 852.231 
	L 145.450, 849.042 
	L 148.452, 858.869 
" />
<path d="M 141.733, 855.549 
	L 141.732, 855.550 
	L 144.637, 848.463 
" />
<path d="M 166.237, 834.399 
	L 166.236, 834.400 
	L 155.663, 837.629 
	L 152.661, 827.802 
	L 163.235, 824.573 
	L 166.236, 834.400 
" />
<path d="M 159.450, 831.101 
	L 159.449, 831.101 
	L 164.954, 824.015 
" />
<path d="M 191.108, 809.930 
	L 191.107, 809.931 
	L 180.399, 813.202 
	L 177.397, 803.374 
	L 188.105, 800.103 
	L 191.107, 809.931 
" />
<path d="M 184.253, 806.652 
	L 184.252, 806.652 
	L 187.629, 799.566 
" />
<path d="M 223.065, 785.461 
	L 223.065, 785.461 
	L 212.221, 788.774 
	L 209.219, 778.946 
	L 220.063, 775.634 
	L 223.065, 785.461 
" />
<path d="M 216.142, 782.203 
	L 216.142, 782.204 
	L 216.731, 775.117 
" />
<path d="M 262.110, 760.991 
	L 262.109, 760.991 
	L 251.129, 764.345 
	L 248.127, 754.518 
	L 259.107, 751.164 
	L 262.109, 760.991 
" />
<path d="M 255.119, 757.754 
	L 255.118, 757.755 
	L 258.712, 750.668 
" />
<path d="M 308.240, 736.521 
	L 308.239, 736.522 
	L 297.125, 739.917 
	L 294.123, 730.090 
	L 305.238, 726.695 
	L 308.239, 736.522 
" />
<path d="M 301.182, 733.305 
	L 301.181, 733.306 
	L 301.642, 726.219 
" />
<path d="M 361.458, 712.052 
	L 361.457, 712.052 
	L 350.206, 715.489 
	L 347.204, 705.662 
	L 358.455, 702.225 
	L 361.457, 712.052 
" />
<path d="M 354.331, 708.856 
	L 354.331, 708.857 
	L 355.148, 701.771 
" />
<path d="M 135.662, 900.016 
	L 135.661, 900.016 
	L 146.164, 898.377 
	L 147.803, 908.879 
	L 137.301, 910.519 
	L 135.661, 900.016 
" />
<path d="M 141.733, 904.447 
	L 141.732, 904.448 
	L 146.071, 897.361 
" />
<path d="M 139.135, 875.223 
	L 139.134, 875.224 
	L 149.777, 873.562 
	L 151.417, 884.065 
	L 140.774, 885.727 
	L 139.134, 875.224 
" />
<path d="M 145.276, 879.644 
	L 145.276, 879.645 
	L 146.041, 872.558 
" />
<path d="M 149.695, 850.431 
	L 149.694, 850.431 
	L 160.477, 848.748 
	L 162.117, 859.251 
	L 151.334, 860.934 
	L 149.694, 850.431 
" />
<path d="M 155.906, 854.841 
	L 155.906, 854.841 
	L 157.050, 847.755 
" />
<path d="M 167.341, 825.639 
	L 167.341, 825.640 
	L 178.264, 823.935 
	L 179.904, 834.437 
	L 168.980, 836.142 
	L 167.341, 825.640 
" />
<path d="M 173.623, 830.038 
	L 173.622, 830.038 
	L 174.820, 822.952 
" />
<path d="M 192.075, 800.846 
	L 192.074, 800.847 
	L 203.137, 799.120 
	L 204.776, 809.623 
	L 193.713, 811.350 
	L 192.074, 800.847 
" />
<path d="M 198.426, 805.234 
	L 198.425, 805.235 
	L 203.170, 798.148 
" />
<path d="M 223.895, 776.055 
	L 223.894, 776.055 
	L 235.096, 774.306 
	L 236.736, 784.809 
	L 225.534, 786.558 
	L 223.894, 776.055 
" />
<path d="M 230.316, 780.431 
	L 230.315, 780.432 
	L 236.042, 773.345 
" />
<path d="M 262.801, 751.262 
	L 262.800, 751.263 
	L 274.143, 749.492 
	L 275.783, 759.995 
	L 264.440, 761.766 
	L 262.800, 751.263 
" />
<path d="M 269.292, 755.628 
	L 269.291, 755.629 
	L 271.614, 748.542 
" />
<path d="M 308.794, 726.470 
	L 308.793, 726.471 
	L 320.276, 724.678 
	L 321.916, 735.180 
	L 310.433, 736.973 
	L 308.793, 726.471 
" />
<path d="M 315.355, 730.825 
	L 315.354, 730.826 
	L 315.995, 723.739 
" />
<path d="M 361.873, 701.678 
	L 361.872, 701.678 
	L 373.496, 699.864 
	L 375.136, 710.367 
	L 363.512, 712.181 
	L 361.872, 701.678 
" />
<path d="M 368.505, 706.022 
	L 368.504, 706.022 
	L 372.064, 698.936 
" />
<path d="M 422.040, 676.885 
	L 422.039, 676.886 
	L 433.802, 675.050 
	L 435.441, 685.553 
	L 423.678, 687.389 
	L 422.039, 676.886 
" />
<path d="M 428.741, 681.219 
	L 428.740, 681.219 
	L 431.109, 674.133 
" />
<path d="M 161.293, 909.868 
	L 161.293, 909.869 
	L 150.664, 910.010 
	L 150.518, 899.026 
	L 161.147, 898.885 
	L 161.293, 909.869 
" />
<path d="M 155.906, 904.447 
	L 155.906, 904.448 
	L 157.175, 897.361 
" />
<path d="M 164.908, 884.709 
	L 164.907, 884.710 
	L 154.137, 884.853 
	L 153.991, 873.870 
	L 164.761, 873.727 
	L 164.907, 884.710 
" />
<path d="M 159.450, 879.290 
	L 159.449, 879.290 
	L 162.002, 872.204 
" />
<path d="M 175.608, 859.551 
	L 175.608, 859.552 
	L 164.696, 859.697 
	L 164.550, 848.714 
	L 175.462, 848.568 
	L 175.608, 859.552 
" />
<path d="M 170.079, 854.132 
	L 170.079, 854.133 
	L 175.484, 847.046 
" />
<path d="M 193.396, 834.393 
	L 193.395, 834.394 
	L 182.341, 834.540 
	L 182.195, 823.557 
	L 193.249, 823.410 
	L 193.395, 834.394 
" />
<path d="M 187.796, 828.975 
	L 187.795, 828.975 
	L 189.248, 821.889 
" />
<path d="M 218.270, 809.234 
	L 218.269, 809.235 
	L 207.074, 809.384 
	L 206.928, 798.401 
	L 218.123, 798.252 
	L 218.269, 809.235 
" />
<path d="M 212.599, 803.817 
	L 212.598, 803.818 
	L 214.350, 796.731 
" />
<path d="M 250.231, 784.076 
	L 250.230, 784.077 
	L 238.893, 784.228 
	L 238.747, 773.244 
	L 250.084, 773.093 
	L 250.230, 784.077 
" />
<path d="M 244.489, 778.660 
	L 244.488, 778.660 
	L 249.489, 771.574 
" />
<path d="M 289.278, 758.918 
	L 289.277, 758.918 
	L 277.798, 759.071 
	L 277.652, 748.087 
	L 289.131, 747.935 
	L 289.277, 758.918 
" />
<path d="M 283.465, 753.502 
	L 283.465, 753.503 
	L 288.568, 746.416 
" />
<path d="M 335.412, 733.759 
	L 335.411, 733.759 
	L 323.790, 733.914 
	L 323.644, 722.931 
	L 335.265, 722.777 
	L 335.411, 733.759 
" />
<path d="M 329.528, 728.345 
	L 329.528, 728.345 
	L 332.446, 721.259 
" />
<path d="M 388.632, 708.601 
	L 388.631, 708.601 
	L 376.869, 708.758 
	L 376.723, 697.774 
	L 388.485, 697.618 
	L 388.631, 708.601 
" />
<path d="M 382.678, 703.187 
	L 382.677, 703.188 
	L 382.917, 696.101 
" />
<path d="M 448.939, 683.442 
	L 448.938, 683.443 
	L 437.034, 683.601 
	L 436.888, 672.618 
	L 448.793, 672.460 
	L 448.938, 683.443 
" />
<path d="M 442.914, 678.030 
	L 442.913, 678.030 
	L 444.485, 670.944 
" />
<path d="M 516.333, 658.284 
	L 516.332, 658.284 
	L 504.286, 658.444 
	L 504.140, 647.462 
	L 516.186, 647.301 
	L 516.332, 658.284 
" />
<path d="M 510.237, 652.872 
	L 510.236, 652.873 
	L 512.188, 645.786 
" />
<path d="M 165.533, 898.144 
	L 165.533, 898.145 
	L 176.075, 899.505 
	L 174.625, 910.751 
	L 164.082, 909.391 
	L 165.533, 898.145 
" />
<path d="M 170.079, 904.447 
	L 170.079, 904.448 
	L 175.083, 897.361 
" />
<path d="M 169.007, 872.623 
	L 169.006, 872.624 
	L 179.689, 874.002 
	L 178.238, 885.248 
	L 167.555, 883.870 
	L 169.006, 872.624 
" />
<path d="M 173.623, 878.935 
	L 173.622, 878.936 
	L 176.306, 871.849 
" />
<path d="M 179.566, 847.102 
	L 179.566, 847.103 
	L 190.389, 848.500 
	L 188.938, 859.745 
	L 178.115, 858.349 
	L 179.566, 847.103 
" />
<path d="M 184.253, 853.423 
	L 184.252, 853.424 
	L 188.610, 846.337 
" />
<path d="M 197.213, 821.582 
	L 197.212, 821.582 
	L 208.176, 822.997 
	L 206.725, 834.242 
	L 195.761, 832.828 
	L 197.212, 821.582 
" />
<path d="M 201.969, 827.912 
	L 201.969, 827.912 
	L 207.708, 820.826 
" />
<path d="M 221.946, 796.061 
	L 221.945, 796.061 
	L 233.050, 797.494 
	L 231.598, 808.739 
	L 220.494, 807.306 
	L 221.945, 796.061 
" />
<path d="M 226.772, 802.400 
	L 226.772, 802.400 
	L 228.093, 795.314 
" />
<path d="M 253.765, 770.540 
	L 253.764, 770.540 
	L 265.010, 771.991 
	L 263.559, 783.237 
	L 252.313, 781.786 
	L 253.764, 770.540 
" />
<path d="M 258.662, 776.888 
	L 258.661, 776.889 
	L 258.977, 769.802 
" />
<path d="M 292.671, 745.019 
	L 292.670, 745.019 
	L 304.056, 746.489 
	L 302.606, 757.734 
	L 291.220, 756.265 
	L 292.670, 745.019 
" />
<path d="M 297.639, 751.376 
	L 297.638, 751.377 
	L 301.728, 744.290 
" />
<path d="M 338.664, 719.498 
	L 338.663, 719.498 
	L 350.189, 720.986 
	L 348.739, 732.232 
	L 337.212, 730.744 
	L 338.663, 719.498 
" />
<path d="M 343.702, 725.864 
	L 343.701, 725.865 
	L 349.144, 718.778 
" />
<path d="M 391.743, 693.977 
	L 391.742, 693.978 
	L 403.409, 695.483 
	L 401.958, 706.728 
	L 390.292, 705.223 
	L 391.742, 693.978 
" />
<path d="M 396.851, 700.353 
	L 396.850, 700.353 
	L 403.138, 693.267 
" />
<path d="M 451.909, 668.456 
	L 451.909, 668.457 
	L 463.716, 669.981 
	L 462.265, 681.226 
	L 450.457, 679.702 
	L 451.909, 668.457 
" />
<path d="M 457.087, 674.841 
	L 457.087, 674.841 
	L 459.896, 667.755 
" />
<path d="M 519.162, 642.935 
	L 519.161, 642.936 
	L 531.109, 644.477 
	L 529.658, 655.723 
	L 517.710, 654.182 
	L 519.161, 642.936 
" />
<path d="M 524.410, 649.329 
	L 524.410, 649.330 
	L 528.947, 642.243 
" />
<path d="M 593.500, 617.414 
	L 593.500, 617.415 
	L 605.589, 618.975 
	L 604.138, 630.221 
	L 592.049, 628.661 
	L 593.500, 617.415 
" />
<path d="M 598.820, 623.817 
	L 598.819, 623.818 
	L 605.316, 616.731 
" />
<path d="M 187.817, 911.499 
	L 187.816, 911.500 
	L 177.571, 908.665 
	L 180.688, 897.396 
	L 190.933, 900.230 
	L 187.816, 911.500 
" />
<path d="M 184.253, 904.447 
	L 184.252, 904.448 
	L 187.484, 897.361 
" />
<path d="M 191.428, 885.652 
	L 191.427, 885.653 
	L 181.045, 882.780 
	L 184.163, 871.511 
	L 194.545, 874.383 
	L 191.427, 885.653 
" />
<path d="M 187.796, 878.581 
	L 187.795, 878.582 
	L 188.426, 871.495 
" />
<path d="M 202.126, 859.804 
	L 202.125, 859.805 
	L 191.607, 856.895 
	L 194.725, 845.626 
	L 205.243, 848.536 
	L 202.125, 859.805 
" />
<path d="M 198.426, 852.715 
	L 198.425, 852.715 
	L 202.820, 845.629 
" />
<path d="M 219.911, 833.957 
	L 219.910, 833.958 
	L 209.256, 831.010 
	L 212.373, 819.741 
	L 223.028, 822.689 
	L 219.910, 833.958 
" />
<path d="M 216.142, 826.849 
	L 216.142, 826.849 
	L 216.907, 819.763 
" />
<path d="M 244.782, 808.110 
	L 244.782, 808.111 
	L 233.990, 805.125 
	L 237.108, 793.855 
	L 247.900, 796.841 
	L 244.782, 808.111 
" />
<path d="M 240.946, 800.982 
	L 240.945, 800.983 
	L 242.457, 793.897 
" />
<path d="M 276.741, 782.262 
	L 276.740, 782.263 
	L 265.812, 779.240 
	L 268.929, 767.971 
	L 279.858, 770.994 
	L 276.740, 782.263 
" />
<path d="M 272.835, 775.116 
	L 272.835, 775.117 
	L 277.804, 768.030 
" />
<path d="M 315.785, 756.415 
	L 315.785, 756.416 
	L 304.720, 753.355 
	L 307.838, 742.086 
	L 318.903, 745.146 
	L 315.785, 756.416 
" />
<path d="M 311.812, 749.250 
	L 311.811, 749.251 
	L 318.755, 742.164 
" />
<path d="M 361.916, 730.568 
	L 361.916, 730.569 
	L 350.714, 727.470 
	L 353.833, 716.200 
	L 365.034, 719.299 
	L 361.916, 730.569 
" />
<path d="M 357.875, 723.384 
	L 357.874, 723.385 
	L 361.317, 716.298 
" />
<path d="M 415.135, 704.721 
	L 415.134, 704.721 
	L 403.796, 701.585 
	L 406.913, 690.316 
	L 418.251, 693.452 
	L 415.134, 704.721 
" />
<path d="M 411.024, 697.518 
	L 411.024, 697.519 
	L 414.611, 690.432 
" />
<path d="M 475.439, 678.874 
	L 475.438, 678.874 
	L 463.964, 675.700 
	L 467.082, 664.430 
	L 478.556, 667.605 
	L 475.438, 678.874 
" />
<path d="M 471.261, 671.652 
	L 471.260, 671.652 
	L 476.342, 664.566 
" />
<path d="M 542.830, 653.027 
	L 542.829, 653.027 
	L 531.218, 649.815 
	L 534.336, 638.545 
	L 545.947, 641.757 
	L 542.829, 653.027 
" />
<path d="M 538.583, 645.786 
	L 538.583, 645.786 
	L 540.203, 638.700 
" />
<path d="M 617.308, 627.179 
	L 617.307, 627.180 
	L 605.560, 623.930 
	L 608.677, 612.661 
	L 620.425, 615.911 
	L 617.307, 627.180 
" />
<path d="M 612.993, 619.919 
	L 612.992, 619.920 
	L 615.430, 612.834 
" />
<path d="M 698.872, 601.332 
	L 698.871, 601.333 
	L 686.987, 598.045 
	L 690.105, 586.775 
	L 701.989, 590.063 
	L 698.871, 601.333 
" />
<path d="M 694.489, 594.053 
	L 694.488, 594.054 
	L 697.674, 586.967 
" />
<path d="M 195.964, 896.801 
	L 195.963, 896.801 
	L 205.706, 901.053 
	L 200.887, 912.094 
	L 191.144, 907.843 
	L 195.963, 896.801 
" />
<path d="M 198.426, 904.447 
	L 198.425, 904.448 
	L 199.730, 897.361 
" />
<path d="M 199.442, 870.552 
	L 199.441, 870.552 
	L 209.314, 874.860 
	L 204.496, 885.902 
	L 194.623, 881.594 
	L 199.441, 870.552 
" />
<path d="M 201.969, 878.227 
	L 201.969, 878.227 
	L 203.265, 871.141 
" />
<path d="M 210.008, 844.303 
	L 210.007, 844.304 
	L 220.009, 848.668 
	L 215.190, 859.710 
	L 205.188, 855.345 
	L 210.007, 844.304 
" />
<path d="M 212.599, 852.006 
	L 212.598, 852.007 
	L 218.874, 844.920 
" />
<path d="M 227.659, 818.054 
	L 227.658, 818.055 
	L 237.791, 822.476 
	L 232.972, 833.518 
	L 222.839, 829.096 
	L 227.658, 818.055 
" />
<path d="M 230.316, 825.786 
	L 230.315, 825.786 
	L 235.282, 818.700 
" />
<path d="M 252.397, 791.805 
	L 252.396, 791.806 
	L 262.658, 796.284 
	L 257.840, 807.326 
	L 247.578, 802.848 
	L 252.396, 791.806 
" />
<path d="M 255.119, 799.565 
	L 255.118, 799.566 
	L 256.273, 792.479 
" />
<path d="M 284.222, 765.556 
	L 284.221, 765.557 
	L 294.613, 770.092 
	L 289.794, 781.134 
	L 279.403, 776.599 
	L 284.221, 765.557 
" />
<path d="M 287.009, 773.345 
	L 287.008, 773.345 
	L 288.344, 766.259 
" />
<path d="M 323.133, 739.308 
	L 323.133, 739.308 
	L 333.655, 743.900 
	L 328.836, 754.941 
	L 318.314, 750.350 
	L 323.133, 739.308 
" />
<path d="M 325.985, 747.124 
	L 325.984, 747.125 
	L 332.897, 740.038 
" />
<path d="M 369.131, 713.059 
	L 369.130, 713.059 
	L 379.782, 717.708 
	L 374.964, 728.749 
	L 364.312, 724.101 
	L 369.130, 713.059 
" />
<path d="M 372.048, 720.904 
	L 372.047, 720.904 
	L 374.462, 713.818 
" />
<path d="M 422.216, 686.810 
	L 422.216, 686.811 
	L 432.997, 691.515 
	L 428.178, 702.557 
	L 417.397, 697.852 
	L 422.216, 686.811 
" />
<path d="M 425.198, 694.683 
	L 425.197, 694.684 
	L 428.419, 687.597 
" />
<path d="M 482.387, 660.561 
	L 482.387, 660.562 
	L 493.299, 665.323 
	L 488.480, 676.365 
	L 477.568, 671.603 
	L 482.387, 660.562 
" />
<path d="M 485.434, 668.463 
	L 485.433, 668.463 
	L 490.807, 661.377 
" />
<path d="M 549.645, 634.312 
	L 549.644, 634.313 
	L 560.686, 639.131 
	L 555.868, 650.173 
	L 544.826, 645.355 
	L 549.644, 634.313 
" />
<path d="M 552.757, 642.242 
	L 552.756, 642.243 
	L 554.436, 635.156 
" />
<path d="M 623.990, 608.064 
	L 623.989, 608.064 
	L 635.161, 612.939 
	L 630.342, 623.981 
	L 619.170, 619.106 
	L 623.989, 608.064 
" />
<path d="M 627.166, 616.022 
	L 627.165, 616.022 
	L 628.682, 608.936 
" />
<path d="M 705.421, 581.815 
	L 705.420, 581.815 
	L 716.722, 586.747 
	L 711.903, 597.789 
	L 700.601, 592.857 
	L 705.420, 581.815 
" />
<path d="M 708.662, 589.801 
	L 708.662, 589.802 
	L 710.381, 582.715 
" />
<path d="M 793.938, 555.566 
	L 793.938, 555.567 
	L 805.369, 560.555 
	L 800.551, 571.596 
	L 789.119, 566.608 
	L 793.938, 555.567 
" />
<path d="M 797.245, 563.581 
	L 797.244, 563.582 
	L 797.299, 556.495 
" />
<path d="M 213.864, 912.515 
	L 213.863, 912.516 
	L 204.819, 906.932 
	L 211.333, 896.380 
	L 220.378, 901.964 
	L 213.863, 912.516 
" />
<path d="M 212.599, 904.447 
	L 212.598, 904.448 
	L 218.272, 897.361 
" />
<path d="M 217.468, 885.978 
	L 217.467, 885.979 
	L 208.302, 880.320 
	L 214.817, 869.767 
	L 223.982, 875.426 
	L 217.467, 885.979 
" />
<path d="M 216.142, 877.872 
	L 216.142, 877.873 
	L 220.022, 870.786 
" />
<path d="M 228.158, 859.440 
	L 228.157, 859.441 
	L 218.871, 853.708 
	L 225.386, 843.156 
	L 234.673, 848.889 
	L 228.157, 859.441 
" />
<path d="M 226.772, 851.297 
	L 226.772, 851.298 
	L 229.238, 844.211 
" />
<path d="M 245.935, 832.903 
	L 245.934, 832.903 
	L 236.527, 827.096 
	L 243.043, 816.543 
	L 252.449, 822.351 
	L 245.934, 832.903 
" />
<path d="M 244.489, 824.723 
	L 244.488, 824.723 
	L 247.643, 817.637 
" />
<path d="M 270.799, 806.365 
	L 270.798, 806.365 
	L 261.270, 800.484 
	L 267.785, 789.932 
	L 277.313, 795.813 
	L 270.798, 806.365 
" />
<path d="M 269.292, 798.148 
	L 269.291, 798.148 
	L 272.764, 791.062 
" />
<path d="M 302.749, 779.827 
	L 302.748, 779.828 
	L 293.100, 773.872 
	L 299.614, 763.319 
	L 309.263, 769.276 
	L 302.748, 779.828 
" />
<path d="M 301.182, 771.573 
	L 301.181, 771.574 
	L 305.098, 764.487 
" />
<path d="M 341.785, 753.290 
	L 341.785, 753.291 
	L 332.016, 747.259 
	L 338.530, 736.707 
	L 348.299, 742.738 
	L 341.785, 753.291 
" />
<path d="M 340.158, 744.998 
	L 340.158, 744.999 
	L 341.239, 737.912 
" />
<path d="M 387.909, 726.752 
	L 387.908, 726.753 
	L 378.018, 720.648 
	L 384.533, 710.095 
	L 394.423, 716.200 
	L 387.908, 726.753 
" />
<path d="M 386.221, 718.423 
	L 386.221, 718.424 
	L 387.586, 711.337 
" />
<path d="M 441.118, 700.215 
	L 441.118, 700.216 
	L 431.108, 694.036 
	L 437.623, 683.483 
	L 447.632, 689.663 
	L 441.118, 700.216 
" />
<path d="M 439.371, 691.849 
	L 439.370, 691.849 
	L 442.400, 684.763 
" />
<path d="M 501.415, 673.677 
	L 501.414, 673.678 
	L 491.284, 667.424 
	L 497.799, 656.871 
	L 507.929, 663.125 
	L 501.414, 673.678 
" />
<path d="M 499.607, 665.274 
	L 499.606, 665.274 
	L 504.046, 658.188 
" />
<path d="M 568.798, 647.140 
	L 568.797, 647.141 
	L 558.546, 640.811 
	L 565.061, 630.259 
	L 575.312, 636.588 
	L 568.797, 647.141 
" />
<path d="M 566.930, 638.699 
	L 566.929, 638.700 
	L 571.310, 631.613 
" />
<path d="M 643.268, 620.602 
	L 643.267, 620.603 
	L 632.896, 614.200 
	L 639.410, 603.647 
	L 649.782, 610.050 
	L 643.267, 620.603 
" />
<path d="M 641.339, 612.124 
	L 641.339, 612.125 
	L 647.932, 605.038 
" />
<path d="M 724.824, 594.065 
	L 724.823, 594.065 
	L 714.332, 587.587 
	L 720.846, 577.035 
	L 731.338, 583.513 
	L 724.823, 594.065 
" />
<path d="M 722.835, 585.549 
	L 722.835, 585.550 
	L 728.442, 578.463 
" />
<path d="M 813.467, 567.527 
	L 813.466, 567.527 
	L 802.853, 560.976 
	L 809.369, 550.423 
	L 819.982, 556.975 
	L 813.466, 567.527 
" />
<path d="M 811.418, 558.975 
	L 811.417, 558.975 
	L 817.357, 551.889 
" />
<path d="M 909.196, 540.989 
	L 909.196, 540.990 
	L 898.462, 534.363 
	L 904.978, 523.811 
	L 915.711, 530.437 
	L 909.196, 540.990 
" />
<path d="M 907.087, 532.400 
	L 907.087, 532.400 
	L 910.979, 525.314 
" />
<path d="M 226.772, 896.145 
	L 226.771, 896.146 
	L 234.938, 902.950 
	L 226.772, 912.750 
	L 218.606, 905.945 
	L 226.771, 896.146 
" />
<path d="M 226.772, 904.447 
	L 226.772, 904.448 
	L 232.712, 897.361 
" />
<path d="M 230.261, 869.171 
	L 230.260, 869.171 
	L 238.535, 876.067 
	L 230.370, 885.866 
	L 222.095, 878.971 
	L 230.260, 869.171 
" />
<path d="M 230.316, 877.518 
	L 230.315, 877.519 
	L 231.054, 870.432 
" />
<path d="M 240.836, 842.196 
	L 240.836, 842.197 
	L 249.220, 849.183 
	L 241.054, 858.982 
	L 232.670, 851.996 
	L 240.836, 842.197 
" />
<path d="M 240.946, 850.589 
	L 240.945, 850.589 
	L 242.337, 843.503 
" />
<path d="M 258.498, 815.222 
	L 258.498, 815.222 
	L 266.991, 822.299 
	L 258.825, 832.098 
	L 250.332, 825.022 
	L 258.498, 815.222 
" />
<path d="M 258.662, 823.660 
	L 258.661, 823.660 
	L 263.945, 816.574 
" />
<path d="M 283.247, 788.247 
	L 283.246, 788.248 
	L 291.849, 795.415 
	L 283.683, 805.215 
	L 275.080, 798.047 
	L 283.246, 788.248 
" />
<path d="M 283.465, 796.730 
	L 283.465, 796.731 
	L 286.819, 789.645 
" />
<path d="M 315.082, 761.273 
	L 315.082, 761.273 
	L 323.792, 768.531 
	L 315.627, 778.331 
	L 306.916, 771.073 
	L 315.082, 761.273 
" />
<path d="M 315.355, 769.801 
	L 315.354, 769.802 
	L 319.505, 762.715 
" />
<path d="M 354.004, 734.298 
	L 354.003, 734.299 
	L 362.823, 741.648 
	L 354.658, 751.447 
	L 345.838, 744.098 
	L 354.003, 734.299 
" />
<path d="M 354.331, 742.872 
	L 354.331, 742.873 
	L 354.336, 735.786 
" />
<path d="M 400.013, 707.324 
	L 400.013, 707.324 
	L 408.941, 714.764 
	L 400.775, 724.563 
	L 391.847, 717.124 
	L 400.013, 707.324 
" />
<path d="M 400.394, 715.943 
	L 400.394, 715.944 
	L 401.182, 708.857 
" />
<path d="M 453.108, 680.349 
	L 453.108, 680.350 
	L 462.145, 687.880 
	L 453.979, 697.679 
	L 444.942, 690.149 
	L 453.108, 680.350 
" />
<path d="M 453.544, 689.014 
	L 453.543, 689.015 
	L 455.604, 681.928 
" />
<path d="M 513.290, 653.374 
	L 513.289, 653.375 
	L 522.436, 660.996 
	L 514.270, 670.796 
	L 505.123, 663.175 
	L 513.289, 653.375 
" />
<path d="M 513.780, 662.085 
	L 513.780, 662.085 
	L 517.585, 654.999 
" />
<path d="M 580.558, 626.399 
	L 580.557, 626.400 
	L 589.813, 634.113 
	L 581.647, 643.913 
	L 572.392, 636.200 
	L 580.557, 626.400 
" />
<path d="M 581.103, 635.156 
	L 581.102, 635.156 
	L 586.028, 628.070 
" />
<path d="M 654.913, 599.425 
	L 654.912, 599.426 
	L 664.277, 607.229 
	L 656.111, 617.029 
	L 646.747, 609.226 
	L 654.912, 599.426 
" />
<path d="M 655.513, 608.227 
	L 655.512, 608.227 
	L 656.495, 601.141 
" />
<path d="M 736.355, 572.450 
	L 736.354, 572.451 
	L 745.827, 580.345 
	L 737.662, 590.145 
	L 728.189, 582.251 
	L 736.354, 572.451 
" />
<path d="M 737.009, 581.297 
	L 737.008, 581.298 
	L 737.183, 574.211 
" />
<path d="M 824.883, 545.476 
	L 824.883, 545.477 
	L 834.465, 553.461 
	L 826.299, 563.261 
	L 816.717, 555.277 
	L 824.883, 545.477 
" />
<path d="M 825.591, 554.368 
	L 825.591, 554.369 
	L 828.552, 547.282 
" />
<path d="M 920.498, 518.501 
	L 920.497, 518.502 
	L 930.188, 526.577 
	L 922.022, 536.377 
	L 912.332, 528.302 
	L 920.497, 518.502 
" />
<path d="M 921.261, 527.439 
	L 921.260, 527.440 
	L 928.308, 520.353 
" />
<path d="M 1023.199, 491.527 
	L 1023.199, 491.528 
	L 1032.999, 499.694 
	L 1024.833, 509.494 
	L 1015.033, 501.328 
	L 1023.199, 491.528 
" />
<path d="M 1024.017, 500.510 
	L 1024.016, 500.511 
	L 1025.999, 493.424 
" />
<path d="M 239.643, 912.785 
	L 239.642, 912.786 
	L 232.518, 904.896 
	L 242.247, 896.110 
	L 249.372, 903.999 
	L 239.642, 912.786 
" />
<path d="M 240.946, 904.447 
	L 240.945, 904.448 
	L 247.213, 897.361 
" />
<path d="M 243.234, 885.554 
	L 243.233, 885.555 
	L 236.013, 877.560 
	L 245.743, 868.774 
	L 252.963, 876.768 
	L 243.233, 885.555 
" />
<path d="M 244.489, 877.164 
	L 244.488, 877.164 
	L 251.456, 870.078 
" />
<path d="M 253.911, 858.323 
	L 253.911, 858.324 
	L 246.596, 850.224 
	L 256.326, 841.438 
	L 263.641, 849.537 
	L 253.911, 858.324 
" />
<path d="M 255.119, 849.880 
	L 255.118, 849.881 
	L 261.714, 842.794 
" />
<path d="M 271.675, 831.092 
	L 271.675, 831.093 
	L 264.265, 822.889 
	L 273.995, 814.102 
	L 281.405, 822.306 
	L 271.675, 831.093 
" />
<path d="M 272.835, 822.597 
	L 272.835, 822.597 
	L 277.119, 815.511 
" />
<path d="M 296.526, 803.862 
	L 296.525, 803.862 
	L 289.021, 795.553 
	L 298.750, 786.765 
	L 306.255, 795.075 
	L 296.525, 803.862 
" />
<path d="M 297.639, 795.313 
	L 297.638, 795.314 
	L 303.638, 788.227 
" />
<path d="M 328.463, 776.631 
	L 328.463, 776.631 
	L 320.863, 768.216 
	L 330.593, 759.429 
	L 338.192, 767.845 
	L 328.463, 776.631 
" />
<path d="M 329.528, 768.030 
	L 329.528, 768.030 
	L 333.195, 760.944 
" />
<path d="M 367.487, 749.400 
	L 367.486, 749.400 
	L 359.792, 740.880 
	L 369.522, 732.093 
	L 377.216, 740.614 
	L 367.486, 749.400 
" />
<path d="M 368.505, 740.746 
	L 368.504, 740.747 
	L 374.431, 733.660 
" />
<path d="M 413.598, 722.169 
	L 413.597, 722.169 
	L 405.807, 713.544 
	L 415.537, 704.757 
	L 423.327, 713.383 
	L 413.597, 722.169 
" />
<path d="M 414.568, 713.463 
	L 414.567, 713.463 
	L 415.819, 706.377 
" />
<path d="M 466.795, 694.938 
	L 466.794, 694.938 
	L 458.909, 686.208 
	L 468.639, 677.422 
	L 476.524, 686.152 
	L 466.794, 694.938 
" />
<path d="M 467.717, 686.179 
	L 467.717, 686.180 
	L 472.360, 679.093 
" />
<path d="M 527.078, 667.707 
	L 527.078, 667.708 
	L 519.098, 658.872 
	L 528.828, 650.085 
	L 536.808, 658.921 
	L 527.078, 667.708 
" />
<path d="M 527.954, 658.896 
	L 527.953, 658.897 
	L 533.152, 651.810 
" />
<path d="M 594.449, 640.476 
	L 594.448, 640.477 
	L 586.373, 631.536 
	L 596.103, 622.749 
	L 604.178, 631.690 
	L 594.448, 640.477 
" />
<path d="M 595.276, 631.612 
	L 595.276, 631.613 
	L 601.409, 624.526 
" />
<path d="M 668.906, 613.245 
	L 668.905, 613.246 
	L 660.735, 604.200 
	L 670.465, 595.413 
	L 678.635, 604.459 
	L 668.905, 613.246 
" />
<path d="M 669.686, 604.329 
	L 669.685, 604.330 
	L 673.304, 597.243 
" />
<path d="M 750.449, 586.014 
	L 750.448, 586.015 
	L 742.184, 576.864 
	L 751.914, 568.077 
	L 760.178, 577.228 
	L 750.448, 586.015 
" />
<path d="M 751.182, 577.045 
	L 751.181, 577.046 
	L 753.124, 569.959 
" />
<path d="M 839.079, 558.784 
	L 839.079, 558.785 
	L 830.719, 549.528 
	L 840.449, 540.741 
	L 848.809, 549.997 
	L 839.079, 558.785 
" />
<path d="M 839.765, 549.762 
	L 839.764, 549.763 
	L 843.015, 542.676 
" />
<path d="M 934.796, 531.553 
	L 934.795, 531.554 
	L 926.341, 522.191 
	L 936.071, 513.405 
	L 944.525, 522.767 
	L 934.795, 531.554 
" />
<path d="M 935.434, 522.478 
	L 935.433, 522.479 
	L 936.247, 515.393 
" />
<path d="M 1037.600, 504.322 
	L 1037.599, 504.323 
	L 1029.050, 494.856 
	L 1038.779, 486.069 
	L 1047.329, 495.536 
	L 1037.599, 504.323 
" />
<path d="M 1038.190, 495.195 
	L 1038.189, 495.196 
	L 1043.335, 488.109 
" />
<path d="M 1147.490, 477.091 
	L 1147.489, 477.092 
	L 1138.845, 467.520 
	L 1148.575, 458.733 
	L 1157.219, 468.305 
	L 1147.489, 477.092 
" />
<path d="M 1148.032, 467.912 
	L 1148.032, 467.912 
	L 1152.028, 460.826 
" />
<path d="M 257.732, 896.278 
	L 257.732, 896.278 
	L 263.671, 905.093 
	L 252.505, 912.617 
	L 246.565, 903.802 
	L 257.732, 896.278 
" />
<path d="M 255.119, 904.447 
	L 255.118, 904.448 
	L 257.877, 897.361 
" />
<path d="M 261.236, 868.581 
	L 261.235, 868.582 
	L 267.254, 877.514 
	L 256.088, 885.038 
	L 250.069, 876.105 
	L 261.235, 868.582 
" />
<path d="M 258.662, 876.809 
	L 258.661, 876.810 
	L 261.140, 869.723 
" />
<path d="M 271.826, 840.884 
	L 271.826, 840.885 
	L 277.924, 849.935 
	L 266.757, 857.459 
	L 260.659, 848.409 
	L 271.826, 840.885 
" />
<path d="M 269.292, 849.171 
	L 269.291, 849.172 
	L 271.701, 842.086 
" />
<path d="M 289.503, 813.188 
	L 289.502, 813.188 
	L 295.680, 822.356 
	L 284.513, 829.880 
	L 278.336, 820.712 
	L 289.502, 813.188 
" />
<path d="M 287.009, 821.534 
	L 287.008, 821.534 
	L 291.035, 814.448 
" />
<path d="M 314.267, 785.491 
	L 314.266, 785.492 
	L 320.523, 794.777 
	L 309.356, 802.301 
	L 303.099, 793.016 
	L 314.266, 785.492 
" />
<path d="M 311.812, 793.896 
	L 311.811, 793.897 
	L 315.413, 786.810 
" />
<path d="M 346.117, 757.794 
	L 346.116, 757.795 
	L 352.452, 767.198 
	L 341.286, 774.722 
	L 334.950, 765.319 
	L 346.116, 757.795 
" />
<path d="M 343.702, 766.258 
	L 343.701, 766.259 
	L 344.457, 759.172 
" />
<path d="M 385.053, 730.098 
	L 385.053, 730.099 
	L 391.468, 739.619 
	L 380.302, 747.143 
	L 373.886, 737.622 
	L 385.053, 730.099 
" />
<path d="M 382.678, 738.620 
	L 382.677, 738.621 
	L 384.642, 731.534 
" />
<path d="M 431.077, 702.401 
	L 431.076, 702.402 
	L 437.571, 712.040 
	L 426.404, 719.564 
	L 419.910, 709.926 
	L 431.076, 702.402 
" />
<path d="M 428.741, 710.982 
	L 428.740, 710.983 
	L 435.815, 703.897 
" />
<path d="M 484.187, 674.705 
	L 484.186, 674.705 
	L 490.759, 684.461 
	L 479.594, 691.985 
	L 473.020, 682.229 
	L 484.186, 674.705 
" />
<path d="M 481.891, 683.345 
	L 481.890, 683.345 
	L 485.128, 676.259 
" />
<path d="M 544.384, 647.008 
	L 544.383, 647.009 
	L 551.035, 656.882 
	L 539.869, 664.406 
	L 533.217, 654.533 
	L 544.383, 647.009 
" />
<path d="M 542.127, 655.707 
	L 542.126, 655.708 
	L 545.671, 648.621 
" />
<path d="M 611.667, 619.311 
	L 611.666, 619.312 
	L 618.398, 629.304 
	L 607.232, 636.827 
	L 600.500, 626.836 
	L 611.666, 619.312 
" />
<path d="M 609.450, 628.069 
	L 609.449, 628.070 
	L 613.258, 620.983 
" />
<path d="M 686.037, 591.615 
	L 686.036, 591.615 
	L 692.847, 601.725 
	L 681.681, 609.248 
	L 674.870, 599.139 
	L 686.036, 591.615 
" />
<path d="M 683.859, 600.431 
	L 683.858, 600.432 
	L 683.960, 593.345 
" />
<path d="M 767.493, 563.919 
	L 767.492, 563.920 
	L 774.383, 574.145 
	L 763.216, 581.669 
	L 756.326, 571.443 
	L 767.492, 563.920 
" />
<path d="M 765.355, 572.793 
	L 765.354, 572.794 
	L 768.137, 565.708 
" />
<path d="M 856.036, 536.222 
	L 856.036, 536.223 
	L 863.005, 546.566 
	L 851.839, 554.090 
	L 844.869, 543.747 
	L 856.036, 536.223 
" />
<path d="M 853.938, 545.156 
	L 853.937, 545.156 
	L 858.586, 538.070 
" />
<path d="M 951.666, 508.526 
	L 951.665, 508.526 
	L 958.714, 518.987 
	L 947.548, 526.511 
	L 940.499, 516.050 
	L 951.665, 508.526 
" />
<path d="M 949.607, 517.518 
	L 949.606, 517.519 
	L 954.340, 510.432 
" />
<path d="M 1054.382, 480.829 
	L 1054.381, 480.830 
	L 1061.510, 491.408 
	L 1050.343, 498.932 
	L 1043.215, 488.354 
	L 1054.381, 480.830 
" />
<path d="M 1052.363, 489.880 
	L 1052.362, 489.881 
	L 1055.145, 482.794 
" />
<path d="M 1164.185, 453.132 
	L 1164.184, 453.133 
	L 1171.391, 463.829 
	L 1160.226, 471.353 
	L 1153.019, 460.657 
	L 1164.184, 453.133 
" />
<path d="M 1162.206, 462.242 
	L 1162.205, 462.243 
	L 1164.511, 455.156 
" />
<path d="M 1281.075, 425.436 
	L 1281.074, 425.436 
	L 1288.360, 436.250 
	L 1277.194, 443.774 
	L 1269.908, 432.960 
	L 1281.074, 425.436 
" />
<path d="M 1279.135, 434.604 
	L 1279.134, 434.605 
	L 1281.208, 427.519 
" />
<path d="M 265.393, 912.244 
	L 265.392, 912.244 
	L 260.756, 902.679 
	L 273.190, 896.651 
	L 277.827, 906.217 
	L 265.392, 912.244 
" />
<path d="M 269.292, 904.447 
	L 269.291, 904.448 
	L 274.425, 897.361 
" />
<path d="M 268.967, 884.315 
	L 268.966, 884.316 
	L 264.268, 874.623 
	L 276.703, 868.595 
	L 281.402, 878.288 
	L 268.966, 884.316 
" />
<path d="M 272.835, 876.455 
	L 272.835, 876.456 
	L 275.452, 869.369 
" />
<path d="M 279.628, 856.387 
	L 279.627, 856.388 
	L 274.867, 846.567 
	L 287.302, 840.539 
	L 292.062, 850.360 
	L 279.627, 856.388 
" />
<path d="M 283.465, 848.463 
	L 283.465, 848.463 
	L 283.702, 841.377 
" />
<path d="M 297.375, 828.459 
	L 297.374, 828.459 
	L 292.553, 818.511 
	L 304.988, 812.483 
	L 309.810, 822.432 
	L 297.374, 828.459 
" />
<path d="M 301.182, 820.471 
	L 301.181, 820.471 
	L 307.726, 813.385 
" />
<path d="M 322.209, 800.530 
	L 322.209, 800.531 
	L 317.325, 790.455 
	L 329.760, 784.427 
	L 334.643, 794.503 
	L 322.209, 800.531 
" />
<path d="M 325.985, 792.479 
	L 325.984, 792.479 
	L 326.689, 785.393 
" />
<path d="M 354.130, 772.602 
	L 354.130, 772.603 
	L 349.184, 762.399 
	L 361.619, 756.371 
	L 366.564, 766.575 
	L 354.130, 772.603 
" />
<path d="M 357.875, 764.486 
	L 357.874, 764.487 
	L 358.516, 757.400 
" />
<path d="M 393.137, 744.674 
	L 393.136, 744.674 
	L 388.129, 734.343 
	L 400.565, 728.316 
	L 405.572, 738.646 
	L 393.136, 744.674 
" />
<path d="M 396.851, 736.494 
	L 396.850, 736.495 
	L 401.384, 729.408 
" />
<path d="M 439.231, 716.745 
	L 439.231, 716.746 
	L 434.161, 706.288 
	L 446.596, 700.260 
	L 451.665, 710.718 
	L 439.231, 716.746 
" />
<path d="M 442.914, 708.502 
	L 442.913, 708.503 
	L 447.050, 701.416 
" />
<path d="M 492.411, 688.817 
	L 492.411, 688.818 
	L 487.280, 678.232 
	L 499.716, 672.204 
	L 504.846, 682.790 
	L 492.411, 688.818 
" />
<path d="M 496.064, 680.510 
	L 496.063, 680.511 
	L 497.171, 673.424 
" />
<path d="M 552.679, 660.888 
	L 552.678, 660.889 
	L 547.486, 650.176 
	L 559.921, 644.149 
	L 565.113, 654.861 
	L 552.678, 660.889 
" />
<path d="M 556.300, 652.518 
	L 556.299, 652.519 
	L 557.847, 645.432 
" />
<path d="M 620.033, 632.959 
	L 620.032, 632.960 
	L 614.777, 622.120 
	L 627.212, 616.093 
	L 632.467, 626.933 
	L 620.032, 632.960 
" />
<path d="M 623.623, 624.526 
	L 623.622, 624.526 
	L 625.661, 617.440 
" />
<path d="M 694.473, 605.031 
	L 694.472, 605.032 
	L 689.156, 594.064 
	L 701.591, 588.037 
	L 706.908, 599.005 
	L 694.472, 605.032 
" />
<path d="M 698.032, 596.534 
	L 698.032, 596.534 
	L 704.944, 589.448 
" />
<path d="M 776.000, 577.103 
	L 775.999, 577.104 
	L 770.621, 566.008 
	L 783.056, 559.981 
	L 788.434, 571.076 
	L 775.999, 577.104 
" />
<path d="M 779.528, 568.541 
	L 779.528, 568.542 
	L 781.685, 561.456 
" />
<path d="M 864.614, 549.174 
	L 864.613, 549.175 
	L 859.173, 537.952 
	L 871.608, 531.925 
	L 877.048, 543.148 
	L 864.613, 549.175 
" />
<path d="M 868.111, 540.549 
	L 868.110, 540.550 
	L 872.355, 533.463 
" />
<path d="M 960.314, 521.246 
	L 960.313, 521.247 
	L 954.811, 509.896 
	L 967.246, 503.869 
	L 972.748, 515.220 
	L 960.313, 521.247 
" />
<path d="M 963.780, 512.557 
	L 963.780, 512.558 
	L 967.908, 505.471 
" />
<path d="M 1063.101, 493.318 
	L 1063.100, 493.318 
	L 1057.536, 481.840 
	L 1069.971, 475.813 
	L 1075.535, 487.291 
	L 1063.100, 493.318 
" />
<path d="M 1066.536, 484.565 
	L 1066.536, 484.566 
	L 1070.522, 477.479 
" />
<path d="M 1172.974, 465.389 
	L 1172.973, 465.390 
	L 1167.348, 453.784 
	L 1179.783, 447.757 
	L 1185.409, 459.363 
	L 1172.973, 465.390 
" />
<path d="M 1176.379, 456.573 
	L 1176.378, 456.574 
	L 1183.429, 449.487 
" />
<path d="M 1289.934, 437.461 
	L 1289.933, 437.462 
	L 1284.246, 425.728 
	L 1296.681, 419.701 
	L 1302.368, 431.435 
	L 1289.933, 437.462 
" />
<path d="M 1293.308, 428.581 
	L 1293.307, 428.582 
	L 1295.094, 421.495 
" />
<path d="M 1413.981, 409.533 
	L 1413.980, 409.533 
	L 1408.231, 397.673 
	L 1420.666, 391.645 
	L 1426.415, 403.506 
	L 1413.980, 409.533 
" />
<path d="M 1417.324, 400.589 
	L 1417.323, 400.589 
	L 1423.471, 393.503 
" />
<path d="M 288.595, 897.225 
	L 288.594, 897.226 
	L 291.834, 907.350 
	L 278.335, 911.670 
	L 275.095, 901.546 
	L 288.594, 897.226 
" />
<path d="M 283.465, 904.447 
	L 283.465, 904.448 
	L 285.921, 897.361 
" />
<path d="M 292.117, 868.811 
	L 292.116, 868.812 
	L 295.399, 879.071 
	L 281.900, 883.391 
	L 278.617, 873.132 
	L 292.116, 868.812 
" />
<path d="M 287.009, 876.101 
	L 287.008, 876.101 
	L 293.596, 869.015 
" />
<path d="M 302.725, 840.397 
	L 302.724, 840.397 
	L 306.050, 850.791 
	L 292.552, 855.112 
	L 289.225, 844.718 
	L 302.724, 840.397 
" />
<path d="M 297.639, 847.754 
	L 297.638, 847.755 
	L 304.248, 840.668 
" />
<path d="M 320.420, 811.983 
	L 320.419, 811.984 
	L 323.789, 822.513 
	L 310.290, 826.833 
	L 306.920, 816.304 
	L 320.419, 811.984 
" />
<path d="M 315.355, 819.408 
	L 315.354, 819.408 
	L 321.226, 812.322 
" />
<path d="M 345.201, 783.569 
	L 345.200, 783.570 
	L 348.613, 794.234 
	L 335.115, 798.554 
	L 331.702, 787.890 
	L 345.200, 783.570 
" />
<path d="M 340.158, 791.061 
	L 340.158, 791.062 
	L 342.984, 783.975 
" />
<path d="M 377.070, 755.155 
	L 377.069, 755.156 
	L 380.525, 765.955 
	L 367.026, 770.275 
	L 363.570, 759.476 
	L 377.069, 755.156 
" />
<path d="M 372.048, 762.715 
	L 372.047, 762.715 
	L 378.420, 755.629 
" />
<path d="M 416.024, 726.741 
	L 416.023, 726.742 
	L 419.523, 737.676 
	L 406.024, 741.996 
	L 402.525, 731.062 
	L 416.023, 726.742 
" />
<path d="M 411.024, 734.368 
	L 411.024, 734.369 
	L 415.150, 727.282 
" />
<path d="M 462.066, 698.327 
	L 462.065, 698.328 
	L 465.608, 709.397 
	L 452.108, 713.717 
	L 448.566, 702.648 
	L 462.065, 698.328 
" />
<path d="M 457.087, 706.022 
	L 457.087, 706.022 
	L 461.422, 698.936 
" />
<path d="M 515.193, 669.913 
	L 515.193, 669.914 
	L 518.779, 681.118 
	L 505.280, 685.438 
	L 501.694, 674.234 
	L 515.193, 669.914 
" />
<path d="M 510.237, 677.675 
	L 510.236, 677.676 
	L 511.914, 670.589 
" />
<path d="M 575.408, 641.500 
	L 575.408, 641.500 
	L 579.037, 652.839 
	L 565.537, 657.159 
	L 561.908, 645.820 
	L 575.408, 641.500 
" />
<path d="M 570.473, 649.329 
	L 570.473, 649.330 
	L 574.623, 642.243 
" />
<path d="M 642.709, 613.085 
	L 642.709, 613.086 
	L 646.381, 624.560 
	L 632.882, 628.880 
	L 629.210, 617.407 
	L 642.709, 613.086 
" />
<path d="M 637.796, 620.982 
	L 637.795, 620.983 
	L 639.319, 613.896 
" />
<path d="M 717.097, 584.671 
	L 717.097, 584.672 
	L 720.812, 596.281 
	L 707.313, 600.601 
	L 703.597, 588.992 
	L 717.097, 584.672 
" />
<path d="M 712.206, 592.636 
	L 712.205, 592.637 
	L 717.848, 585.550 
" />
<path d="M 798.572, 556.258 
	L 798.571, 556.258 
	L 802.330, 568.002 
	L 788.831, 572.322 
	L 785.072, 560.578 
	L 798.571, 556.258 
" />
<path d="M 793.702, 564.289 
	L 793.701, 564.290 
	L 799.841, 557.204 
" />
<path d="M 887.133, 527.844 
	L 887.132, 527.844 
	L 890.933, 539.723 
	L 877.435, 544.043 
	L 873.634, 532.164 
	L 887.132, 527.844 
" />
<path d="M 882.284, 535.943 
	L 882.284, 535.944 
	L 885.311, 528.857 
" />
<path d="M 982.780, 499.429 
	L 982.780, 499.430 
	L 986.625, 511.444 
	L 973.126, 515.765 
	L 969.281, 503.751 
	L 982.780, 499.430 
" />
<path d="M 977.954, 507.597 
	L 977.953, 507.597 
	L 980.102, 500.511 
" />
<path d="M 1085.515, 471.015 
	L 1085.514, 471.016 
	L 1089.402, 483.165 
	L 1075.903, 487.485 
	L 1072.016, 475.336 
	L 1085.514, 471.016 
" />
<path d="M 1080.710, 479.250 
	L 1080.709, 479.251 
	L 1087.596, 472.164 
" />
<path d="M 1195.336, 442.602 
	L 1195.335, 442.602 
	L 1199.267, 454.886 
	L 1185.768, 459.206 
	L 1181.836, 446.922 
	L 1195.335, 442.602 
" />
<path d="M 1190.552, 450.904 
	L 1190.551, 450.904 
	L 1193.997, 443.818 
" />
<path d="M 1312.243, 414.188 
	L 1312.243, 414.189 
	L 1316.217, 426.607 
	L 1302.718, 430.927 
	L 1298.744, 418.509 
	L 1312.243, 414.189 
" />
<path d="M 1307.481, 422.557 
	L 1307.481, 422.558 
	L 1310.238, 415.471 
" />
<path d="M 1436.237, 385.773 
	L 1436.237, 385.774 
	L 1440.255, 398.328 
	L 1426.756, 402.649 
	L 1422.738, 390.095 
	L 1436.237, 385.774 
" />
<path d="M 1431.497, 394.211 
	L 1431.496, 394.211 
	L 1434.424, 387.125 
" />
<path d="M 1567.318, 357.360 
	L 1567.318, 357.360 
	L 1571.378, 370.050 
	L 1557.880, 374.370 
	L 1553.819, 361.680 
	L 1567.318, 357.360 
" />
<path d="M 1562.599, 365.864 
	L 1562.599, 365.865 
	L 1564.723, 358.778 
" />
<path d="M 291.367, 910.903 
	L 291.366, 910.904 
	L 289.587, 900.423 
	L 303.909, 897.992 
	L 305.689, 908.472 
	L 291.366, 910.904 
" />
<path d="M 297.639, 904.447 
	L 297.638, 904.448 
	L 301.970, 897.361 
" />
<path d="M 294.922, 882.272 
	L 294.921, 882.272 
	L 293.119, 871.653 
	L 307.441, 869.222 
	L 309.244, 879.841 
	L 294.921, 882.272 
" />
<path d="M 301.182, 875.746 
	L 301.181, 875.747 
	L 305.156, 868.660 
" />
<path d="M 305.564, 853.641 
	L 305.563, 853.642 
	L 303.737, 842.882 
	L 318.059, 840.451 
	L 319.886, 851.210 
	L 305.563, 853.642 
" />
<path d="M 311.812, 847.045 
	L 311.811, 847.046 
	L 317.142, 839.960 
" />
<path d="M 323.292, 825.010 
	L 323.291, 825.010 
	L 321.441, 814.111 
	L 335.764, 811.680 
	L 337.614, 822.580 
	L 323.291, 825.010 
" />
<path d="M 329.528, 818.345 
	L 329.528, 818.345 
	L 336.160, 811.259 
" />
<path d="M 348.107, 796.379 
	L 348.107, 796.380 
	L 346.232, 785.341 
	L 360.555, 782.909 
	L 362.429, 793.948 
	L 348.107, 796.380 
" />
<path d="M 354.331, 789.644 
	L 354.331, 789.645 
	L 360.142, 782.558 
" />
<path d="M 380.008, 767.748 
	L 380.008, 767.749 
	L 378.111, 756.570 
	L 392.433, 754.138 
	L 394.330, 765.318 
	L 380.008, 767.749 
" />
<path d="M 386.221, 760.943 
	L 386.221, 760.944 
	L 387.523, 753.857 
" />
<path d="M 418.997, 739.117 
	L 418.996, 739.118 
	L 417.075, 727.800 
	L 431.398, 725.368 
	L 433.319, 736.686 
	L 418.996, 739.118 
" />
<path d="M 425.198, 732.242 
	L 425.197, 732.243 
	L 428.094, 725.156 
" />
<path d="M 465.072, 710.486 
	L 465.071, 710.487 
	L 463.126, 699.029 
	L 477.449, 696.597 
	L 479.394, 708.056 
	L 465.071, 710.487 
" />
<path d="M 471.261, 703.541 
	L 471.260, 703.542 
	L 477.868, 696.456 
" />
<path d="M 518.234, 681.855 
	L 518.233, 681.856 
	L 516.264, 670.258 
	L 530.586, 667.827 
	L 532.555, 679.425 
	L 518.233, 681.856 
" />
<path d="M 524.410, 674.841 
	L 524.410, 674.841 
	L 526.601, 667.755 
" />
<path d="M 578.481, 653.224 
	L 578.480, 653.225 
	L 576.488, 641.488 
	L 590.811, 639.056 
	L 592.803, 650.794 
	L 578.480, 653.225 
" />
<path d="M 584.646, 646.140 
	L 584.646, 646.141 
	L 587.998, 639.054 
" />
<path d="M 645.816, 624.594 
	L 645.815, 624.594 
	L 643.799, 612.717 
	L 658.122, 610.285 
	L 660.138, 622.163 
	L 645.815, 624.594 
" />
<path d="M 651.969, 617.439 
	L 651.969, 617.440 
	L 655.240, 610.353 
" />
<path d="M 720.237, 595.962 
	L 720.237, 595.963 
	L 718.197, 583.946 
	L 732.519, 581.515 
	L 734.560, 593.532 
	L 720.237, 595.963 
" />
<path d="M 726.379, 588.738 
	L 726.378, 588.739 
	L 726.381, 581.652 
" />
<path d="M 801.746, 567.332 
	L 801.745, 567.332 
	L 799.681, 555.175 
	L 814.003, 552.744 
	L 816.067, 564.901 
	L 801.745, 567.332 
" />
<path d="M 807.875, 560.038 
	L 807.874, 560.038 
	L 810.987, 552.952 
" />
<path d="M 890.340, 538.700 
	L 890.339, 538.701 
	L 888.252, 526.405 
	L 902.575, 523.974 
	L 904.662, 536.270 
	L 890.339, 538.701 
" />
<path d="M 896.458, 531.337 
	L 896.457, 531.337 
	L 903.136, 524.251 
" />
<path d="M 986.021, 510.070 
	L 986.020, 510.070 
	L 983.909, 497.634 
	L 998.232, 495.203 
	L 1000.343, 507.639 
	L 986.020, 510.070 
" />
<path d="M 992.127, 502.636 
	L 992.126, 502.637 
	L 998.002, 495.550 
" />
<path d="M 1088.789, 481.438 
	L 1088.788, 481.439 
	L 1086.653, 468.863 
	L 1100.976, 466.433 
	L 1103.111, 479.008 
	L 1088.788, 481.439 
" />
<path d="M 1094.883, 473.935 
	L 1094.882, 473.936 
	L 1097.608, 466.849 
" />
<path d="M 1198.643, 452.808 
	L 1198.642, 452.809 
	L 1196.484, 440.093 
	L 1210.807, 437.662 
	L 1212.965, 450.377 
	L 1198.642, 452.809 
" />
<path d="M 1204.725, 445.234 
	L 1204.725, 445.235 
	L 1210.799, 438.148 
" />
<path d="M 1315.584, 424.177 
	L 1315.583, 424.178 
	L 1313.401, 411.322 
	L 1327.724, 408.891 
	L 1329.906, 421.746 
	L 1315.583, 424.178 
" />
<path d="M 1321.654, 416.534 
	L 1321.654, 416.534 
	L 1323.394, 409.448 
" />
<path d="M 1439.612, 395.546 
	L 1439.611, 395.547 
	L 1437.405, 382.552 
	L 1451.728, 380.120 
	L 1453.934, 393.115 
	L 1439.611, 395.547 
" />
<path d="M 1445.670, 387.833 
	L 1445.670, 387.833 
	L 1450.719, 380.747 
" />
<path d="M 1570.726, 366.915 
	L 1570.726, 366.916 
	L 1568.496, 353.781 
	L 1582.818, 351.349 
	L 1585.048, 364.484 
	L 1570.726, 366.916 
" />
<path d="M 1576.773, 359.132 
	L 1576.772, 359.133 
	L 1579.820, 352.046 
" />
<path d="M 1708.927, 338.284 
	L 1708.926, 338.285 
	L 1706.673, 325.010 
	L 1720.996, 322.579 
	L 1723.249, 335.854 
	L 1708.926, 338.285 
" />
<path d="M 1714.962, 330.431 
	L 1714.961, 330.432 
	L 1718.750, 323.345 
" />
<path d="M 319.109, 898.936 
	L 319.108, 898.937 
	L 319.390, 909.564 
	L 304.514, 909.958 
	L 304.232, 899.332 
	L 319.108, 898.937 
" />
<path d="M 311.812, 904.447 
	L 311.811, 904.448 
	L 314.397, 897.361 
" />
<path d="M 322.651, 869.810 
	L 322.650, 869.811 
	L 322.936, 880.579 
	L 308.059, 880.974 
	L 307.773, 870.206 
	L 322.650, 869.811 
" />
<path d="M 315.355, 875.392 
	L 315.354, 875.393 
	L 319.761, 868.306 
" />
<path d="M 333.279, 840.684 
	L 333.278, 840.685 
	L 333.568, 851.594 
	L 318.691, 851.990 
	L 318.401, 841.081 
	L 333.278, 840.685 
" />
<path d="M 325.985, 846.337 
	L 325.984, 846.337 
	L 331.468, 839.251 
" />
<path d="M 350.993, 811.558 
	L 350.992, 811.559 
	L 351.286, 822.610 
	L 336.409, 823.005 
	L 336.116, 811.955 
	L 350.992, 811.559 
" />
<path d="M 343.702, 817.282 
	L 343.701, 817.282 
	L 348.936, 810.196 
" />
<path d="M 375.795, 782.432 
	L 375.794, 782.433 
	L 376.091, 793.626 
	L 361.214, 794.021 
	L 360.917, 782.829 
	L 375.794, 782.433 
" />
<path d="M 368.505, 788.227 
	L 368.504, 788.227 
	L 373.088, 781.141 
" />
<path d="M 407.682, 753.306 
	L 407.682, 753.307 
	L 407.983, 764.642 
	L 393.106, 765.037 
	L 392.805, 753.703 
	L 407.682, 753.307 
" />
<path d="M 400.394, 759.171 
	L 400.394, 759.172 
	L 405.570, 752.085 
" />
<path d="M 446.657, 724.180 
	L 446.656, 724.181 
	L 446.961, 735.657 
	L 432.084, 736.053 
	L 431.780, 724.577 
	L 446.656, 724.181 
" />
<path d="M 439.371, 730.116 
	L 439.370, 730.117 
	L 440.757, 723.030 
" />
<path d="M 492.718, 695.055 
	L 492.717, 695.055 
	L 493.026, 706.673 
	L 478.149, 707.068 
	L 477.841, 695.451 
	L 492.717, 695.055 
" />
<path d="M 485.434, 701.061 
	L 485.433, 701.062 
	L 488.333, 693.975 
" />
<path d="M 545.866, 665.929 
	L 545.865, 665.929 
	L 546.177, 677.689 
	L 531.301, 678.084 
	L 530.988, 666.325 
	L 545.865, 665.929 
" />
<path d="M 538.583, 672.006 
	L 538.583, 672.007 
	L 540.635, 664.920 
" />
<path d="M 606.100, 636.803 
	L 606.099, 636.803 
	L 606.415, 648.705 
	L 591.539, 649.100 
	L 591.223, 637.199 
	L 606.099, 636.803 
" />
<path d="M 598.820, 642.951 
	L 598.819, 642.952 
	L 601.500, 635.865 
" />
<path d="M 673.421, 607.677 
	L 673.420, 607.677 
	L 673.740, 619.720 
	L 658.863, 620.116 
	L 658.544, 608.073 
	L 673.420, 607.677 
" />
<path d="M 666.143, 613.896 
	L 666.142, 613.896 
	L 670.733, 606.810 
" />
<path d="M 747.829, 578.551 
	L 747.828, 578.551 
	L 748.152, 590.736 
	L 733.275, 591.131 
	L 732.951, 578.947 
	L 747.828, 578.551 
" />
<path d="M 740.552, 584.841 
	L 740.551, 584.841 
	L 743.889, 577.755 
" />
<path d="M 829.323, 549.425 
	L 829.322, 549.425 
	L 829.649, 561.752 
	L 814.773, 562.147 
	L 814.446, 549.821 
	L 829.322, 549.425 
" />
<path d="M 822.048, 555.786 
	L 822.047, 555.786 
	L 826.530, 548.700 
" />
<path d="M 917.904, 520.299 
	L 917.903, 520.299 
	L 918.234, 532.768 
	L 903.357, 533.163 
	L 903.026, 520.695 
	L 917.903, 520.299 
" />
<path d="M 910.631, 526.730 
	L 910.630, 526.731 
	L 912.938, 519.645 
" />
<path d="M 1013.571, 491.173 
	L 1013.570, 491.173 
	L 1013.905, 503.783 
	L 999.029, 504.179 
	L 998.693, 491.569 
	L 1013.570, 491.173 
" />
<path d="M 1006.300, 497.675 
	L 1006.299, 497.676 
	L 1010.076, 490.589 
" />
<path d="M 1116.325, 462.047 
	L 1116.324, 462.047 
	L 1116.663, 474.799 
	L 1101.787, 475.194 
	L 1101.448, 462.443 
	L 1116.324, 462.047 
" />
<path d="M 1109.056, 468.620 
	L 1109.055, 468.621 
	L 1113.436, 461.534 
" />
<path d="M 1226.166, 432.921 
	L 1226.165, 432.921 
	L 1226.507, 445.815 
	L 1211.630, 446.210 
	L 1211.288, 433.317 
	L 1226.165, 432.921 
" />
<path d="M 1218.899, 439.565 
	L 1218.898, 439.566 
	L 1224.401, 432.479 
" />
<path d="M 1343.093, 403.795 
	L 1343.092, 403.795 
	L 1343.439, 416.830 
	L 1328.562, 417.226 
	L 1328.215, 404.191 
	L 1343.092, 403.795 
" />
<path d="M 1335.828, 410.510 
	L 1335.827, 410.511 
	L 1339.172, 403.424 
" />
<path d="M 1467.107, 374.669 
	L 1467.106, 374.669 
	L 1467.456, 387.846 
	L 1452.580, 388.242 
	L 1452.230, 375.065 
	L 1467.106, 374.669 
" />
<path d="M 1459.843, 381.455 
	L 1459.843, 381.456 
	L 1464.258, 374.369 
" />
<path d="M 1598.208, 345.543 
	L 1598.207, 345.544 
	L 1598.560, 358.862 
	L 1583.683, 359.257 
	L 1583.330, 345.939 
	L 1598.207, 345.544 
" />
<path d="M 1590.946, 352.400 
	L 1590.945, 352.400 
	L 1597.313, 345.314 
" />
<path d="M 1736.394, 316.417 
	L 1736.394, 316.418 
	L 1736.752, 329.878 
	L 1721.875, 330.272 
	L 1721.517, 316.813 
	L 1736.394, 316.418 
" />
<path d="M 1729.135, 323.345 
	L 1729.134, 323.345 
	L 1734.991, 316.259 
" />
<path d="M 1881.668, 287.291 
	L 1881.667, 287.292 
	L 1882.029, 300.893 
	L 1867.152, 301.288 
	L 1866.791, 287.687 
	L 1881.667, 287.292 
" />
<path d="M 1874.410, 294.289 
	L 1874.410, 294.290 
	L 1875.867, 287.204 
" />
<path d="M 317.807, 908.852 
	L 317.806, 908.853 
	L 319.027, 898.294 
	L 334.162, 900.043 
	L 332.942, 910.602 
	L 317.806, 908.853 
" />
<path d="M 325.985, 904.447 
	L 325.984, 904.448 
	L 329.353, 897.361 
" />
<path d="M 321.343, 879.513 
	L 321.342, 879.514 
	L 322.578, 868.813 
	L 337.713, 870.562 
	L 336.477, 881.263 
	L 321.342, 879.514 
" />
<path d="M 329.528, 875.038 
	L 329.528, 875.038 
	L 333.046, 867.952 
" />
<path d="M 331.964, 850.174 
	L 331.963, 850.175 
	L 333.216, 839.334 
	L 348.352, 841.083 
	L 347.099, 851.924 
	L 331.963, 850.175 
" />
<path d="M 340.158, 845.628 
	L 340.158, 845.629 
	L 345.217, 838.542 
" />
<path d="M 349.673, 820.836 
	L 349.672, 820.836 
	L 350.941, 809.854 
	L 366.076, 811.602 
	L 364.808, 822.585 
	L 349.672, 820.836 
" />
<path d="M 357.875, 816.219 
	L 357.874, 816.219 
	L 363.403, 809.133 
" />
<path d="M 374.467, 791.496 
	L 374.467, 791.497 
	L 375.752, 780.374 
	L 390.888, 782.123 
	L 389.602, 793.246 
	L 374.467, 791.497 
" />
<path d="M 382.678, 786.809 
	L 382.677, 786.810 
	L 383.290, 779.723 
" />
<path d="M 406.349, 762.157 
	L 406.349, 762.158 
	L 407.650, 750.894 
	L 422.785, 752.643 
	L 421.484, 763.907 
	L 406.349, 762.158 
" />
<path d="M 414.568, 757.400 
	L 414.567, 757.400 
	L 419.968, 750.314 
" />
<path d="M 445.317, 732.818 
	L 445.317, 732.819 
	L 446.635, 721.415 
	L 461.770, 723.163 
	L 460.452, 734.567 
	L 445.317, 732.819 
" />
<path d="M 453.544, 727.990 
	L 453.543, 727.991 
	L 460.465, 720.904 
" />
<path d="M 491.372, 703.479 
	L 491.372, 703.480 
	L 492.705, 691.934 
	L 507.841, 693.683 
	L 506.507, 705.229 
	L 491.372, 703.480 
" />
<path d="M 499.607, 698.581 
	L 499.606, 698.582 
	L 505.911, 691.495 
" />
<path d="M 544.514, 674.140 
	L 544.513, 674.141 
	L 545.864, 662.455 
	L 560.999, 664.204 
	L 559.648, 675.890 
	L 544.513, 674.141 
" />
<path d="M 552.757, 669.171 
	L 552.756, 669.172 
	L 558.520, 662.085 
" />
<path d="M 604.742, 644.801 
	L 604.741, 644.802 
	L 606.108, 632.975 
	L 621.243, 634.723 
	L 619.877, 646.550 
	L 604.741, 644.802 
" />
<path d="M 612.993, 639.762 
	L 612.992, 639.763 
	L 613.014, 632.676 
" />
<path d="M 672.056, 615.462 
	L 672.056, 615.463 
	L 673.439, 603.495 
	L 688.575, 605.244 
	L 687.191, 617.212 
	L 672.056, 615.463 
" />
<path d="M 680.316, 610.352 
	L 680.315, 610.353 
	L 682.776, 603.267 
" />
<path d="M 746.458, 586.123 
	L 746.457, 586.123 
	L 747.856, 574.015 
	L 762.992, 575.764 
	L 761.593, 587.872 
	L 746.457, 586.123 
" />
<path d="M 754.725, 580.943 
	L 754.725, 580.944 
	L 756.341, 573.857 
" />
<path d="M 827.946, 556.784 
	L 827.945, 556.785 
	L 829.361, 544.536 
	L 844.496, 546.284 
	L 843.080, 558.533 
	L 827.945, 556.785 
" />
<path d="M 836.221, 551.534 
	L 836.221, 551.534 
	L 842.686, 544.448 
" />
<path d="M 916.520, 527.445 
	L 916.520, 527.445 
	L 917.951, 515.055 
	L 933.087, 516.804 
	L 931.655, 529.194 
	L 916.520, 527.445 
" />
<path d="M 924.804, 522.124 
	L 924.803, 522.125 
	L 928.325, 515.038 
" />
<path d="M 1012.181, 498.105 
	L 1012.181, 498.106 
	L 1013.629, 485.576 
	L 1028.765, 487.325 
	L 1027.316, 499.855 
	L 1012.181, 498.106 
" />
<path d="M 1020.473, 492.715 
	L 1020.473, 492.715 
	L 1023.141, 485.629 
" />
<path d="M 1114.929, 468.767 
	L 1114.929, 468.768 
	L 1116.393, 456.096 
	L 1131.528, 457.844 
	L 1130.064, 470.516 
	L 1114.929, 468.768 
" />
<path d="M 1123.229, 463.305 
	L 1123.229, 463.306 
	L 1129.626, 456.219 
" />
<path d="M 1224.764, 439.428 
	L 1224.763, 439.428 
	L 1226.244, 426.616 
	L 1241.379, 428.365 
	L 1239.898, 441.177 
	L 1224.763, 439.428 
" />
<path d="M 1233.072, 433.896 
	L 1233.071, 433.896 
	L 1237.001, 426.810 
" />
<path d="M 1341.685, 410.088 
	L 1341.684, 410.089 
	L 1343.181, 397.136 
	L 1358.316, 398.885 
	L 1356.820, 411.838 
	L 1341.684, 410.089 
" />
<path d="M 1350.001, 404.486 
	L 1350.000, 404.487 
	L 1354.604, 397.400 
" />
<path d="M 1465.693, 380.750 
	L 1465.692, 380.750 
	L 1467.205, 367.656 
	L 1482.340, 369.405 
	L 1480.827, 382.499 
	L 1465.692, 380.750 
" />
<path d="M 1474.017, 375.077 
	L 1474.016, 375.078 
	L 1475.914, 367.991 
" />
<path d="M 1596.787, 351.410 
	L 1596.786, 351.411 
	L 1598.315, 338.176 
	L 1613.451, 339.925 
	L 1611.922, 353.160 
	L 1596.786, 351.411 
" />
<path d="M 1605.119, 345.667 
	L 1605.118, 345.668 
	L 1609.813, 338.581 
" />
<path d="M 1734.968, 322.071 
	L 1734.967, 322.072 
	L 1736.513, 308.697 
	L 1751.648, 310.445 
	L 1750.102, 323.821 
	L 1734.967, 322.072 
" />
<path d="M 1743.308, 316.258 
	L 1743.307, 316.259 
	L 1747.858, 309.172 
" />
<path d="M 1880.235, 292.733 
	L 1880.234, 292.733 
	L 1881.796, 279.217 
	L 1896.932, 280.965 
	L 1895.370, 294.482 
	L 1880.234, 292.733 
" />
<path d="M 1888.584, 286.849 
	L 1888.583, 286.849 
	L 1894.733, 279.763 
" />
<path d="M 2032.589, 263.393 
	L 2032.589, 263.394 
	L 2034.166, 249.737 
	L 2049.302, 251.486 
	L 2047.724, 265.143 
	L 2032.589, 263.394 
" />
<path d="M 2040.946, 257.439 
	L 2040.945, 257.440 
	L 2041.416, 250.353 
" />
<path d="M 349.047, 901.285 
	L 349.046, 901.286 
	L 346.348, 911.567 
	L 331.269, 907.610 
	L 333.967, 897.329 
	L 349.046, 901.286 
" />
<path d="M 340.158, 904.447 
	L 340.158, 904.448 
	L 342.945, 897.361 
" />
<path d="M 352.609, 871.452 
	L 352.608, 871.453 
	L 349.874, 881.872 
	L 334.794, 877.915 
	L 337.528, 867.496 
	L 352.608, 871.453 
" />
<path d="M 343.702, 874.683 
	L 343.701, 874.684 
	L 349.862, 867.597 
" />
<path d="M 363.256, 841.620 
	L 363.256, 841.621 
	L 360.485, 852.177 
	L 345.406, 848.220 
	L 348.176, 837.663 
	L 363.256, 841.621 
" />
<path d="M 354.331, 844.919 
	L 354.331, 844.920 
	L 357.249, 837.834 
" />
<path d="M 380.991, 811.788 
	L 380.991, 811.789 
	L 378.184, 822.482 
	L 363.104, 818.524 
	L 365.910, 807.831 
	L 380.991, 811.789 
" />
<path d="M 372.048, 815.156 
	L 372.047, 815.156 
	L 377.658, 808.070 
" />
<path d="M 405.812, 781.956 
	L 405.811, 781.956 
	L 402.970, 792.786 
	L 387.889, 788.829 
	L 390.731, 777.999 
	L 405.811, 781.956 
" />
<path d="M 396.851, 785.392 
	L 396.850, 785.393 
	L 400.589, 778.306 
" />
<path d="M 437.720, 752.123 
	L 437.719, 752.124 
	L 434.841, 763.091 
	L 419.761, 759.134 
	L 422.639, 748.167 
	L 437.719, 752.124 
" />
<path d="M 428.741, 755.628 
	L 428.740, 755.629 
	L 435.253, 748.542 
" />
<path d="M 476.714, 722.290 
	L 476.714, 722.291 
	L 473.800, 733.396 
	L 458.719, 729.439 
	L 461.633, 718.334 
	L 476.714, 722.291 
" />
<path d="M 467.717, 725.864 
	L 467.717, 725.865 
	L 470.212, 718.778 
" />
<path d="M 522.795, 692.459 
	L 522.794, 692.459 
	L 519.844, 703.701 
	L 504.765, 699.743 
	L 507.715, 688.502 
	L 522.794, 692.459 
" />
<path d="M 513.780, 696.101 
	L 513.780, 696.101 
	L 517.714, 689.015 
" />
<path d="M 575.963, 662.626 
	L 575.962, 662.627 
	L 572.976, 674.005 
	L 557.897, 670.048 
	L 560.882, 658.670 
	L 575.962, 662.627 
" />
<path d="M 566.930, 666.337 
	L 566.929, 666.337 
	L 571.000, 659.251 
" />
<path d="M 636.217, 632.794 
	L 636.216, 632.794 
	L 633.195, 644.310 
	L 618.114, 640.353 
	L 621.136, 628.837 
	L 636.216, 632.794 
" />
<path d="M 627.166, 636.573 
	L 627.165, 636.574 
	L 630.821, 629.487 
" />
<path d="M 703.558, 602.961 
	L 703.557, 602.962 
	L 700.499, 614.615 
	L 685.420, 610.658 
	L 688.477, 599.005 
	L 703.557, 602.962 
" />
<path d="M 694.489, 606.809 
	L 694.488, 606.810 
	L 698.070, 599.723 
" />
<path d="M 777.986, 573.129 
	L 777.985, 573.130 
	L 774.891, 584.919 
	L 759.811, 580.962 
	L 762.905, 569.173 
	L 777.985, 573.130 
" />
<path d="M 768.898, 577.045 
	L 768.898, 577.046 
	L 769.773, 569.959 
" />
<path d="M 859.499, 543.297 
	L 859.499, 543.298 
	L 856.369, 555.224 
	L 841.289, 551.267 
	L 844.419, 539.340 
	L 859.499, 543.298 
" />
<path d="M 850.395, 547.282 
	L 850.394, 547.282 
	L 856.633, 540.196 
" />
<path d="M 948.100, 513.464 
	L 948.099, 513.465 
	L 944.934, 525.529 
	L 929.854, 521.572 
	L 933.020, 509.508 
	L 948.099, 513.465 
" />
<path d="M 938.977, 517.518 
	L 938.977, 517.519 
	L 940.374, 510.432 
" />
<path d="M 1043.788, 483.632 
	L 1043.787, 483.633 
	L 1040.585, 495.834 
	L 1025.505, 491.876 
	L 1028.707, 479.675 
	L 1043.787, 483.633 
" />
<path d="M 1034.647, 487.754 
	L 1034.646, 487.755 
	L 1036.644, 480.668 
" />
<path d="M 1146.561, 453.800 
	L 1146.561, 453.801 
	L 1143.323, 466.138 
	L 1128.243, 462.181 
	L 1131.481, 449.843 
	L 1146.561, 453.801 
" />
<path d="M 1137.402, 457.990 
	L 1137.402, 457.991 
	L 1143.262, 450.904 
" />
<path d="M 1256.422, 423.967 
	L 1256.421, 423.968 
	L 1253.147, 436.443 
	L 1238.067, 432.486 
	L 1241.341, 420.011 
	L 1256.421, 423.968 
" />
<path d="M 1247.245, 428.226 
	L 1247.244, 428.227 
	L 1250.506, 421.141 
" />
<path d="M 1373.369, 394.135 
	L 1373.368, 394.136 
	L 1370.059, 406.748 
	L 1354.979, 402.791 
	L 1358.288, 390.178 
	L 1373.368, 394.136 
" />
<path d="M 1364.174, 398.463 
	L 1364.173, 398.463 
	L 1368.812, 391.377 
" />
<path d="M 1497.402, 364.303 
	L 1497.402, 364.304 
	L 1494.056, 377.053 
	L 1478.977, 373.095 
	L 1482.322, 360.347 
	L 1497.402, 364.304 
" />
<path d="M 1488.190, 368.699 
	L 1488.189, 368.700 
	L 1488.590, 361.613 
" />
<path d="M 1628.523, 334.471 
	L 1628.523, 334.471 
	L 1625.141, 347.358 
	L 1610.061, 343.400 
	L 1613.442, 330.514 
	L 1628.523, 334.471 
" />
<path d="M 1619.292, 338.935 
	L 1619.292, 338.936 
	L 1623.244, 331.849 
" />
<path d="M 1766.730, 304.638 
	L 1766.729, 304.639 
	L 1763.311, 317.662 
	L 1748.232, 313.705 
	L 1751.650, 300.682 
	L 1766.729, 304.639 
" />
<path d="M 1757.481, 309.171 
	L 1757.481, 309.172 
	L 1761.499, 302.085 
" />
<path d="M 1912.023, 274.805 
	L 1912.023, 274.806 
	L 1908.569, 287.967 
	L 1893.490, 284.010 
	L 1896.943, 270.849 
	L 1912.023, 274.806 
" />
<path d="M 1902.757, 279.408 
	L 1902.756, 279.408 
	L 1908.224, 272.322 
" />
<path d="M 2064.404, 244.974 
	L 2064.403, 244.974 
	L 2060.914, 258.272 
	L 2045.834, 254.315 
	L 2049.323, 241.017 
	L 2064.403, 244.974 
" />
<path d="M 2055.119, 249.644 
	L 2055.118, 249.644 
	L 2058.696, 242.558 
" />
<path d="M 2223.871, 215.141 
	L 2223.870, 215.142 
	L 2220.344, 228.577 
	L 2205.265, 224.620 
	L 2208.790, 211.185 
	L 2223.870, 215.142 
" />
<path d="M 2214.568, 219.880 
	L 2214.567, 219.881 
	L 2219.366, 212.794 
" />
<path d="M 344.922, 906.255 
	L 344.921, 906.256 
	L 349.043, 896.457 
	L 363.740, 902.640 
	L 359.618, 912.439 
	L 344.921, 906.256 
" />
<path d="M 354.331, 904.447 
	L 354.331, 904.448 
	L 361.411, 897.361 
" />
<path d="M 348.438, 876.202 
	L 348.437, 876.203 
	L 352.614, 866.274 
	L 367.311, 872.457 
	L 363.134, 882.386 
	L 348.437, 876.203 
" />
<path d="M 357.875, 874.329 
	L 357.874, 874.330 
	L 364.176, 867.243 
" />
<path d="M 359.040, 846.149 
	L 359.039, 846.150 
	L 363.271, 836.090 
	L 377.969, 842.273 
	L 373.737, 852.333 
	L 359.039, 846.150 
" />
<path d="M 368.505, 844.211 
	L 368.504, 844.211 
	L 373.293, 837.125 
" />
<path d="M 376.729, 816.096 
	L 376.729, 816.097 
	L 381.015, 805.907 
	L 395.712, 812.090 
	L 391.426, 822.280 
	L 376.729, 816.097 
" />
<path d="M 386.221, 814.093 
	L 386.221, 814.093 
	L 390.718, 807.007 
" />
<path d="M 401.505, 786.043 
	L 401.504, 786.044 
	L 405.846, 775.724 
	L 420.543, 781.907 
	L 416.201, 792.227 
	L 401.504, 786.044 
" />
<path d="M 411.024, 783.975 
	L 411.024, 783.975 
	L 418.078, 776.889 
" />
<path d="M 433.367, 755.990 
	L 433.366, 755.991 
	L 437.764, 745.540 
	L 452.461, 751.723 
	L 448.063, 762.175 
	L 433.366, 755.991 
" />
<path d="M 442.914, 753.856 
	L 442.913, 753.857 
	L 447.569, 746.771 
" />
<path d="M 472.316, 725.938 
	L 472.315, 725.939 
	L 476.767, 715.356 
	L 491.465, 721.539 
	L 487.013, 732.122 
	L 472.315, 725.939 
" />
<path d="M 481.891, 723.738 
	L 481.890, 723.739 
	L 482.147, 716.652 
" />
<path d="M 518.351, 695.885 
	L 518.350, 695.886 
	L 522.858, 685.173 
	L 537.555, 691.356 
	L 533.048, 702.069 
	L 518.350, 695.886 
" />
<path d="M 527.954, 693.620 
	L 527.953, 693.621 
	L 533.515, 686.534 
" />
<path d="M 571.474, 665.832 
	L 571.473, 665.833 
	L 576.035, 654.990 
	L 590.732, 661.173 
	L 586.170, 672.016 
	L 571.473, 665.833 
" />
<path d="M 581.103, 663.502 
	L 581.102, 663.503 
	L 588.073, 656.416 
" />
<path d="M 631.682, 635.779 
	L 631.682, 635.780 
	L 636.299, 624.806 
	L 650.996, 630.989 
	L 646.379, 641.963 
	L 631.682, 635.780 
" />
<path d="M 641.339, 633.384 
	L 641.339, 633.385 
	L 643.573, 626.298 
" />
<path d="M 698.978, 605.726 
	L 698.977, 605.727 
	L 703.648, 594.623 
	L 718.346, 600.806 
	L 713.675, 611.910 
	L 698.977, 605.727 
" />
<path d="M 708.662, 603.266 
	L 708.662, 603.267 
	L 714.252, 596.180 
" />
<path d="M 773.359, 575.674 
	L 773.359, 575.675 
	L 778.086, 564.439 
	L 792.783, 570.622 
	L 788.056, 581.858 
	L 773.359, 575.675 
" />
<path d="M 783.072, 573.148 
	L 783.071, 573.148 
	L 785.319, 566.062 
" />
<path d="M 854.829, 545.621 
	L 854.828, 545.622 
	L 859.609, 534.256 
	L 874.306, 540.439 
	L 869.525, 551.805 
	L 854.828, 545.622 
" />
<path d="M 864.568, 543.030 
	L 864.567, 543.030 
	L 868.275, 535.944 
" />
<path d="M 943.384, 515.568 
	L 943.383, 515.569 
	L 948.220, 504.072 
	L 962.917, 510.255 
	L 958.080, 521.752 
	L 943.383, 515.569 
" />
<path d="M 953.150, 512.912 
	L 953.150, 512.912 
	L 957.917, 505.826 
" />
<path d="M 1039.025, 485.515 
	L 1039.025, 485.516 
	L 1043.917, 473.889 
	L 1058.613, 480.072 
	L 1053.722, 491.699 
	L 1039.025, 485.516 
" />
<path d="M 1048.820, 482.793 
	L 1048.819, 482.794 
	L 1055.298, 475.707 
" />
<path d="M 1141.754, 455.462 
	L 1141.753, 455.463 
	L 1146.699, 443.706 
	L 1161.397, 449.889 
	L 1156.451, 461.646 
	L 1141.753, 455.463 
" />
<path d="M 1151.576, 452.675 
	L 1151.575, 452.676 
	L 1156.866, 445.589 
" />
<path d="M 1251.569, 425.410 
	L 1251.568, 425.410 
	L 1256.570, 413.522 
	L 1271.267, 419.706 
	L 1266.265, 431.593 
	L 1251.568, 425.410 
" />
<path d="M 1261.418, 422.557 
	L 1261.418, 422.558 
	L 1265.597, 415.471 
" />
<path d="M 1368.471, 395.357 
	L 1368.470, 395.358 
	L 1373.526, 383.338 
	L 1388.223, 389.521 
	L 1383.167, 401.541 
	L 1368.470, 395.358 
" />
<path d="M 1378.347, 392.439 
	L 1378.347, 392.440 
	L 1382.856, 385.353 
" />
<path d="M 1492.459, 365.304 
	L 1492.458, 365.305 
	L 1497.570, 353.155 
	L 1512.267, 359.338 
	L 1507.155, 371.488 
	L 1492.458, 365.305 
" />
<path d="M 1502.363, 362.321 
	L 1502.362, 362.322 
	L 1506.719, 355.235 
" />
<path d="M 1623.534, 335.252 
	L 1623.533, 335.252 
	L 1628.699, 322.972 
	L 1643.397, 329.155 
	L 1638.231, 341.435 
	L 1623.533, 335.252 
" />
<path d="M 1633.466, 332.203 
	L 1633.465, 332.204 
	L 1639.663, 325.117 
" />
<path d="M 1761.695, 305.199 
	L 1761.694, 305.199 
	L 1766.916, 292.788 
	L 1781.613, 298.972 
	L 1776.392, 311.382 
	L 1761.694, 305.199 
" />
<path d="M 1771.655, 302.085 
	L 1771.654, 302.085 
	L 1774.047, 294.999 
" />
<path d="M 1906.944, 275.146 
	L 1906.943, 275.146 
	L 1912.219, 262.605 
	L 1926.916, 268.788 
	L 1921.640, 281.329 
	L 1906.943, 275.146 
" />
<path d="M 1916.930, 271.967 
	L 1916.929, 271.967 
	L 1919.127, 264.881 
" />
<path d="M 2059.278, 245.093 
	L 2059.278, 245.093 
	L 2064.609, 232.421 
	L 2079.306, 238.605 
	L 2073.974, 251.277 
	L 2059.278, 245.093 
" />
<path d="M 2069.292, 241.849 
	L 2069.292, 241.849 
	L 2074.381, 234.763 
" />
<path d="M 2218.700, 215.041 
	L 2218.699, 215.041 
	L 2224.085, 202.238 
	L 2238.782, 208.421 
	L 2233.396, 221.224 
	L 2218.699, 215.041 
" />
<path d="M 2228.741, 211.730 
	L 2228.741, 211.731 
	L 2235.062, 204.644 
" />
<path d="M 2385.207, 184.988 
	L 2385.207, 184.988 
	L 2390.648, 172.055 
	L 2405.345, 178.238 
	L 2399.904, 191.171 
	L 2385.207, 184.988 
" />
<path d="M 2395.277, 181.612 
	L 2395.276, 181.613 
	L 2398.245, 174.526 
" />
<path d="M 378.228, 904.076 
	L 378.227, 904.077 
	L 372.763, 913.195 
	L 358.781, 904.818 
	L 364.245, 895.700 
	L 378.227, 904.077 
" />
<path d="M 368.505, 904.447 
	L 368.504, 904.448 
	L 370.232, 897.361 
" />
<path d="M 381.807, 873.543 
	L 381.806, 873.544 
	L 376.270, 882.784 
	L 362.288, 874.407 
	L 367.825, 865.167 
	L 381.806, 873.544 
" />
<path d="M 372.048, 873.975 
	L 372.047, 873.975 
	L 376.596, 866.889 
" />
<path d="M 392.473, 843.010 
	L 392.472, 843.011 
	L 386.863, 852.372 
	L 372.882, 843.995 
	L 378.491, 834.633 
	L 392.472, 843.011 
" />
<path d="M 382.678, 843.502 
	L 382.677, 843.503 
	L 385.992, 836.416 
" />
<path d="M 410.226, 812.477 
	L 410.226, 812.478 
	L 404.544, 821.961 
	L 390.562, 813.583 
	L 396.244, 804.100 
	L 410.226, 812.478 
" />
<path d="M 400.394, 813.030 
	L 400.394, 813.030 
	L 402.711, 805.944 
" />
<path d="M 435.066, 781.944 
	L 435.065, 781.944 
	L 429.310, 791.549 
	L 415.329, 783.172 
	L 421.084, 773.567 
	L 435.065, 781.944 
" />
<path d="M 425.198, 782.557 
	L 425.197, 782.558 
	L 425.838, 775.471 
" />
<path d="M 466.992, 751.410 
	L 466.992, 751.411 
	L 461.164, 761.137 
	L 447.182, 752.760 
	L 453.010, 743.034 
	L 466.992, 751.411 
" />
<path d="M 457.087, 752.085 
	L 457.087, 752.085 
	L 460.184, 744.999 
" />
<path d="M 506.005, 720.877 
	L 506.004, 720.878 
	L 500.104, 730.726 
	L 486.122, 722.348 
	L 492.022, 712.500 
	L 506.004, 720.878 
" />
<path d="M 496.064, 721.612 
	L 496.063, 721.613 
	L 500.333, 714.526 
" />
<path d="M 552.104, 690.344 
	L 552.103, 690.345 
	L 546.130, 700.314 
	L 532.149, 691.936 
	L 538.122, 681.967 
	L 552.103, 690.345 
" />
<path d="M 542.127, 691.140 
	L 542.126, 691.141 
	L 548.603, 684.054 
" />
<path d="M 605.290, 659.811 
	L 605.290, 659.811 
	L 599.243, 669.903 
	L 585.262, 661.525 
	L 591.308, 651.434 
	L 605.290, 659.811 
" />
<path d="M 595.276, 660.667 
	L 595.276, 660.668 
	L 596.653, 653.582 
" />
<path d="M 665.563, 629.277 
	L 665.562, 629.278 
	L 659.443, 639.491 
	L 645.462, 631.113 
	L 651.581, 620.901 
	L 665.562, 629.278 
" />
<path d="M 655.513, 630.195 
	L 655.512, 630.196 
	L 658.858, 623.109 
" />
<path d="M 732.923, 598.744 
	L 732.922, 598.745 
	L 726.730, 609.079 
	L 712.748, 600.702 
	L 718.940, 590.368 
	L 732.922, 598.745 
" />
<path d="M 722.835, 599.723 
	L 722.835, 599.723 
	L 724.132, 592.637 
" />
<path d="M 807.368, 568.211 
	L 807.367, 568.212 
	L 801.103, 578.668 
	L 787.121, 570.290 
	L 793.386, 559.834 
	L 807.367, 568.212 
" />
<path d="M 797.245, 569.250 
	L 797.244, 569.251 
	L 798.530, 562.164 
" />
<path d="M 888.900, 537.678 
	L 888.900, 537.679 
	L 882.562, 548.256 
	L 868.581, 539.878 
	L 874.919, 529.301 
	L 888.900, 537.679 
" />
<path d="M 878.741, 538.778 
	L 878.740, 538.778 
	L 885.684, 531.692 
" />
<path d="M 977.520, 507.144 
	L 977.519, 507.145 
	L 971.109, 517.844 
	L 957.127, 509.467 
	L 963.537, 498.768 
	L 977.519, 507.145 
" />
<path d="M 967.324, 508.305 
	L 967.323, 508.306 
	L 969.727, 501.219 
" />
<path d="M 1073.225, 476.611 
	L 1073.225, 476.612 
	L 1066.741, 487.432 
	L 1052.760, 479.055 
	L 1059.243, 468.235 
	L 1073.225, 476.612 
" />
<path d="M 1062.993, 477.833 
	L 1062.992, 477.833 
	L 1068.323, 470.747 
" />
<path d="M 1176.018, 446.078 
	L 1176.017, 446.079 
	L 1169.461, 457.021 
	L 1155.479, 448.643 
	L 1162.035, 437.701 
	L 1176.017, 446.079 
" />
<path d="M 1165.749, 447.360 
	L 1165.748, 447.361 
	L 1168.944, 440.274 
" />
<path d="M 1285.897, 415.545 
	L 1285.896, 415.546 
	L 1279.267, 426.609 
	L 1265.285, 418.232 
	L 1271.914, 407.168 
	L 1285.896, 415.546 
" />
<path d="M 1275.591, 416.888 
	L 1275.591, 416.889 
	L 1276.927, 409.802 
" />
<path d="M 1402.862, 385.012 
	L 1402.861, 385.012 
	L 1396.160, 396.198 
	L 1382.178, 387.820 
	L 1388.880, 376.635 
	L 1402.861, 385.012 
" />
<path d="M 1392.521, 386.415 
	L 1392.520, 386.416 
	L 1395.840, 379.330 
" />
<path d="M 1526.915, 354.478 
	L 1526.914, 354.479 
	L 1520.139, 365.786 
	L 1506.157, 357.408 
	L 1512.932, 346.102 
	L 1526.914, 354.479 
" />
<path d="M 1516.536, 355.943 
	L 1516.536, 355.944 
	L 1522.094, 348.857 
" />
<path d="M 1658.053, 323.945 
	L 1658.053, 323.946 
	L 1651.205, 335.374 
	L 1637.223, 326.997 
	L 1644.071, 315.568 
	L 1658.053, 323.946 
" />
<path d="M 1647.639, 325.471 
	L 1647.638, 325.471 
	L 1649.834, 318.385 
" />
<path d="M 1796.279, 293.412 
	L 1796.278, 293.413 
	L 1789.358, 304.963 
	L 1775.376, 296.585 
	L 1782.296, 285.035 
	L 1796.278, 293.413 
" />
<path d="M 1785.828, 294.998 
	L 1785.827, 294.999 
	L 1791.768, 287.912 
" />
<path d="M 1941.591, 262.879 
	L 1941.590, 262.879 
	L 1934.597, 274.551 
	L 1920.615, 266.173 
	L 1927.608, 254.502 
	L 1941.590, 262.879 
" />
<path d="M 1931.103, 264.526 
	L 1931.103, 264.526 
	L 1937.870, 257.440 
" />
<path d="M 2093.989, 232.345 
	L 2093.989, 232.346 
	L 2086.922, 244.139 
	L 2072.941, 235.762 
	L 2080.007, 223.969 
	L 2093.989, 232.346 
" />
<path d="M 2083.466, 234.053 
	L 2083.465, 234.054 
	L 2089.267, 226.967 
" />
<path d="M 2253.475, 201.812 
	L 2253.474, 201.813 
	L 2246.335, 213.727 
	L 2232.353, 205.350 
	L 2239.492, 193.436 
	L 2253.474, 201.813 
" />
<path d="M 2242.914, 203.581 
	L 2242.914, 203.581 
	L 2247.384, 196.495 
" />
<path d="M 2420.047, 171.279 
	L 2420.046, 171.280 
	L 2412.834, 183.316 
	L 2398.852, 174.938 
	L 2406.065, 162.902 
	L 2420.046, 171.280 
" />
<path d="M 2409.450, 173.108 
	L 2409.449, 173.109 
	L 2413.833, 166.022 
" />
<path d="M 2593.706, 140.746 
	L 2593.705, 140.747 
	L 2586.420, 152.904 
	L 2572.438, 144.527 
	L 2579.723, 132.369 
	L 2593.705, 140.747 
" />
<path d="M 2583.072, 142.636 
	L 2583.071, 142.637 
	L 2589.407, 135.550 
" />
<path d="M 372.863, 903.330 
	L 372.862, 903.331 
	L 379.558, 895.075 
	L 392.492, 905.565 
	L 385.797, 913.820 
	L 372.862, 903.331 
" />
<path d="M 382.678, 904.447 
	L 382.677, 904.448 
	L 383.409, 897.361 
" />
<path d="M 376.362, 872.559 
	L 376.361, 872.559 
	L 383.146, 864.193 
	L 396.080, 874.683 
	L 389.295, 883.049 
	L 376.361, 872.559 
" />
<path d="M 386.221, 873.620 
	L 386.221, 873.621 
	L 391.456, 866.534 
" />
<path d="M 386.947, 841.786 
	L 386.946, 841.787 
	L 393.820, 833.311 
	L 406.755, 843.801 
	L 399.881, 852.278 
	L 386.946, 841.787 
" />
<path d="M 396.851, 842.793 
	L 396.850, 842.794 
	L 398.604, 835.708 
" />
<path d="M 404.619, 811.015 
	L 404.618, 811.016 
	L 411.581, 802.430 
	L 424.516, 812.919 
	L 417.553, 821.505 
	L 404.618, 811.016 
" />
<path d="M 414.568, 811.967 
	L 414.567, 811.967 
	L 415.017, 804.881 
" />
<path d="M 429.377, 780.243 
	L 429.377, 780.244 
	L 436.429, 771.547 
	L 449.364, 782.037 
	L 442.311, 790.734 
	L 429.377, 780.244 
" />
<path d="M 439.371, 781.140 
	L 439.370, 781.141 
	L 441.162, 774.054 
" />
<path d="M 461.222, 749.471 
	L 461.222, 749.472 
	L 468.364, 740.665 
	L 481.298, 751.156 
	L 474.156, 759.962 
	L 461.222, 749.472 
" />
<path d="M 471.261, 750.313 
	L 471.260, 750.314 
	L 474.793, 743.227 
" />
<path d="M 500.154, 718.700 
	L 500.153, 718.700 
	L 507.385, 709.784 
	L 520.319, 720.274 
	L 513.088, 729.190 
	L 500.153, 718.700 
" />
<path d="M 510.237, 719.486 
	L 510.236, 719.487 
	L 510.555, 712.400 
" />
<path d="M 546.172, 687.928 
	L 546.172, 687.929 
	L 553.492, 678.902 
	L 566.427, 689.392 
	L 559.106, 698.419 
	L 546.172, 687.929 
" />
<path d="M 556.300, 688.660 
	L 556.299, 688.660 
	L 560.704, 681.574 
" />
<path d="M 599.277, 657.156 
	L 599.277, 657.157 
	L 606.687, 648.020 
	L 619.621, 658.510 
	L 612.211, 667.647 
	L 599.277, 657.157 
" />
<path d="M 609.450, 657.833 
	L 609.449, 657.834 
	L 615.963, 650.747 
" />
<path d="M 659.469, 626.385 
	L 659.468, 626.385 
	L 666.967, 617.139 
	L 679.902, 627.628 
	L 672.403, 636.875 
	L 659.468, 626.385 
" />
<path d="M 669.686, 627.006 
	L 669.685, 627.007 
	L 673.308, 619.920 
" />
<path d="M 726.747, 595.613 
	L 726.747, 595.614 
	L 734.335, 586.257 
	L 747.269, 596.746 
	L 739.681, 606.103 
	L 726.747, 595.614 
" />
<path d="M 737.009, 596.179 
	L 737.008, 596.180 
	L 737.792, 589.093 
" />
<path d="M 801.112, 564.841 
	L 801.111, 564.842 
	L 808.789, 555.375 
	L 821.723, 565.865 
	L 814.046, 575.332 
	L 801.111, 564.842 
" />
<path d="M 811.418, 565.352 
	L 811.417, 565.353 
	L 812.522, 558.267 
" />
<path d="M 882.564, 534.069 
	L 882.563, 534.070 
	L 890.330, 524.493 
	L 903.264, 534.983 
	L 895.497, 544.560 
	L 882.563, 534.070 
" />
<path d="M 892.914, 534.526 
	L 892.914, 534.526 
	L 894.753, 527.440 
" />
<path d="M 971.102, 503.298 
	L 971.101, 503.299 
	L 978.957, 493.611 
	L 991.892, 504.101 
	L 984.035, 513.788 
	L 971.101, 503.299 
" />
<path d="M 981.497, 503.699 
	L 981.496, 503.700 
	L 987.124, 496.613 
" />
<path d="M 1066.726, 472.526 
	L 1066.725, 472.526 
	L 1074.671, 462.729 
	L 1087.606, 473.219 
	L 1079.660, 483.017 
	L 1066.725, 472.526 
" />
<path d="M 1077.166, 472.872 
	L 1077.166, 472.873 
	L 1082.342, 465.786 
" />
<path d="M 1169.438, 441.754 
	L 1169.437, 441.755 
	L 1177.472, 431.848 
	L 1190.406, 442.337 
	L 1182.371, 452.244 
	L 1169.437, 441.755 
" />
<path d="M 1179.922, 442.045 
	L 1179.921, 442.046 
	L 1180.748, 434.959 
" />
<path d="M 1279.235, 410.983 
	L 1279.235, 410.983 
	L 1287.359, 400.966 
	L 1300.293, 411.455 
	L 1292.169, 421.473 
	L 1279.235, 410.983 
" />
<path d="M 1289.765, 411.219 
	L 1289.764, 411.219 
	L 1290.692, 404.133 
" />
<path d="M 1396.120, 380.210 
	L 1396.119, 380.211 
	L 1404.333, 370.084 
	L 1417.267, 380.574 
	L 1409.054, 390.701 
	L 1396.119, 380.211 
" />
<path d="M 1406.694, 380.392 
	L 1406.693, 380.393 
	L 1413.404, 373.306 
" />
<path d="M 1520.091, 349.439 
	L 1520.090, 349.440 
	L 1528.393, 339.202 
	L 1541.327, 349.692 
	L 1533.025, 359.929 
	L 1520.090, 349.440 
" />
<path d="M 1530.710, 349.565 
	L 1530.709, 349.566 
	L 1531.079, 342.479 
" />
<path d="M 1651.149, 318.667 
	L 1651.148, 318.668 
	L 1659.540, 308.320 
	L 1672.475, 318.810 
	L 1664.083, 329.158 
	L 1651.148, 318.668 
" />
<path d="M 1661.812, 318.738 
	L 1661.811, 318.739 
	L 1667.887, 311.652 
" />
<path d="M 1789.293, 287.895 
	L 1789.292, 287.896 
	L 1797.774, 277.438 
	L 1810.708, 287.929 
	L 1802.227, 298.386 
	L 1789.292, 287.896 
" />
<path d="M 1800.001, 287.912 
	L 1800.000, 287.912 
	L 1806.691, 280.826 
" />
<path d="M 1934.524, 257.124 
	L 1934.523, 257.124 
	L 1943.094, 246.557 
	L 1956.028, 257.046 
	L 1947.458, 267.614 
	L 1934.523, 257.124 
" />
<path d="M 1945.277, 257.085 
	L 1945.276, 257.085 
	L 1945.857, 249.999 
" />
<path d="M 2086.842, 226.352 
	L 2086.841, 226.353 
	L 2095.501, 215.675 
	L 2108.435, 226.164 
	L 2099.775, 236.842 
	L 2086.841, 226.353 
" />
<path d="M 2097.639, 226.258 
	L 2097.638, 226.259 
	L 2103.951, 219.172 
" />
<path d="M 2246.246, 195.580 
	L 2246.245, 195.581 
	L 2254.994, 184.793 
	L 2267.929, 195.283 
	L 2259.180, 206.071 
	L 2246.245, 195.581 
" />
<path d="M 2257.088, 195.431 
	L 2257.087, 195.432 
	L 2264.135, 188.345 
" />
<path d="M 2412.737, 164.808 
	L 2412.736, 164.809 
	L 2421.574, 153.911 
	L 2434.509, 164.401 
	L 2425.670, 175.299 
	L 2412.736, 164.809 
" />
<path d="M 2423.623, 164.604 
	L 2423.622, 164.605 
	L 2424.593, 157.518 
" />
<path d="M 2586.314, 134.037 
	L 2586.313, 134.038 
	L 2595.241, 123.029 
	L 2608.176, 133.519 
	L 2599.248, 144.527 
	L 2586.313, 134.038 
" />
<path d="M 2597.245, 133.778 
	L 2597.244, 133.778 
	L 2600.314, 126.692 
" />
<path d="M 2766.978, 103.265 
	L 2766.978, 103.265 
	L 2775.994, 92.147 
	L 2788.929, 102.638 
	L 2779.912, 113.756 
	L 2766.978, 103.265 
" />
<path d="M 2777.954, 102.951 
	L 2777.953, 102.952 
	L 2781.513, 95.865 
" />
<path d="M 406.531, 907.068 
	L 406.530, 907.068 
	L 398.736, 914.297 
	L 387.171, 901.827 
	L 394.965, 894.599 
	L 406.530, 907.068 
" />
<path d="M 396.851, 904.447 
	L 396.850, 904.448 
	L 400.892, 897.361 
" />
<path d="M 410.127, 875.838 
	L 410.126, 875.839 
	L 402.228, 883.164 
	L 390.662, 870.694 
	L 398.560, 863.369 
	L 410.126, 875.839 
" />
<path d="M 400.394, 873.266 
	L 400.394, 873.267 
	L 403.781, 866.180 
" />
<path d="M 420.808, 844.609 
	L 420.807, 844.610 
	L 412.806, 852.031 
	L 401.240, 839.561 
	L 409.241, 832.140 
	L 420.807, 844.610 
" />
<path d="M 411.024, 842.085 
	L 411.024, 842.086 
	L 414.599, 834.999 
" />
<path d="M 438.576, 813.380 
	L 438.576, 813.380 
	L 430.470, 820.898 
	L 418.905, 808.428 
	L 427.010, 800.911 
	L 438.576, 813.380 
" />
<path d="M 428.741, 810.904 
	L 428.740, 810.904 
	L 430.171, 803.818 
" />
<path d="M 463.431, 782.150 
	L 463.431, 782.151 
	L 455.221, 789.765 
	L 443.656, 777.295 
	L 451.865, 769.682 
	L 463.431, 782.151 
" />
<path d="M 453.544, 779.723 
	L 453.543, 779.723 
	L 457.691, 772.637 
" />
<path d="M 495.374, 750.921 
	L 495.373, 750.922 
	L 487.060, 758.632 
	L 475.493, 746.162 
	L 483.807, 738.452 
	L 495.373, 750.922 
" />
<path d="M 485.434, 748.541 
	L 485.433, 748.542 
	L 488.521, 741.456 
" />
<path d="M 534.402, 719.692 
	L 534.401, 719.693 
	L 525.983, 727.499 
	L 514.418, 715.030 
	L 522.836, 707.223 
	L 534.401, 719.693 
" />
<path d="M 524.410, 717.360 
	L 524.410, 717.361 
	L 524.902, 710.274 
" />
<path d="M 580.516, 688.463 
	L 580.516, 688.463 
	L 571.995, 696.366 
	L 560.429, 683.897 
	L 568.950, 675.994 
	L 580.516, 688.463 
" />
<path d="M 570.473, 686.179 
	L 570.473, 686.180 
	L 574.109, 679.093 
" />
<path d="M 633.718, 657.233 
	L 633.718, 657.234 
	L 625.093, 665.233 
	L 613.527, 652.764 
	L 622.152, 644.764 
	L 633.718, 657.234 
" />
<path d="M 623.623, 654.998 
	L 623.622, 654.999 
	L 628.063, 647.912 
" />
<path d="M 694.006, 626.004 
	L 694.006, 626.005 
	L 685.276, 634.100 
	L 673.711, 621.631 
	L 682.440, 613.535 
	L 694.006, 626.005 
" />
<path d="M 683.859, 623.817 
	L 683.858, 623.818 
	L 687.929, 616.731 
" />
<path d="M 761.381, 594.775 
	L 761.380, 594.775 
	L 752.548, 602.968 
	L 740.982, 590.498 
	L 749.815, 582.306 
	L 761.380, 594.775 
" />
<path d="M 751.182, 592.636 
	L 751.181, 592.637 
	L 756.186, 585.550 
" />
<path d="M 835.843, 563.545 
	L 835.842, 563.546 
	L 826.905, 571.835 
	L 815.339, 559.365 
	L 824.276, 551.076 
	L 835.842, 563.546 
" />
<path d="M 825.591, 561.455 
	L 825.591, 561.456 
	L 826.936, 554.369 
" />
<path d="M 917.391, 532.316 
	L 917.390, 532.317 
	L 908.350, 540.702 
	L 896.784, 528.232 
	L 905.824, 519.847 
	L 917.390, 532.317 
" />
<path d="M 907.087, 530.274 
	L 907.087, 530.274 
	L 912.682, 523.188 
" />
<path d="M 1006.025, 501.087 
	L 1006.024, 501.088 
	L 996.880, 509.569 
	L 985.314, 497.099 
	L 994.459, 488.618 
	L 1006.024, 501.088 
" />
<path d="M 995.670, 499.093 
	L 995.669, 499.093 
	L 1001.448, 492.007 
" />
<path d="M 1101.747, 469.858 
	L 1101.746, 469.858 
	L 1092.497, 478.436 
	L 1080.931, 465.966 
	L 1090.180, 457.389 
	L 1101.746, 469.858 
" />
<path d="M 1091.339, 467.912 
	L 1091.339, 467.912 
	L 1093.633, 460.826 
" />
<path d="M 1204.554, 438.628 
	L 1204.554, 438.629 
	L 1195.202, 447.303 
	L 1183.636, 434.833 
	L 1192.988, 426.159 
	L 1204.554, 438.629 
" />
<path d="M 1194.095, 436.730 
	L 1194.095, 436.731 
	L 1195.591, 429.645 
" />
<path d="M 1314.449, 407.399 
	L 1314.448, 407.400 
	L 1304.992, 416.170 
	L 1293.426, 403.700 
	L 1302.883, 394.930 
	L 1314.448, 407.400 
" />
<path d="M 1303.938, 405.549 
	L 1303.937, 405.550 
	L 1304.649, 398.463 
" />
<path d="M 1431.430, 376.170 
	L 1431.430, 376.170 
	L 1421.869, 385.038 
	L 1410.303, 372.567 
	L 1419.864, 363.700 
	L 1431.430, 376.170 
" />
<path d="M 1420.867, 374.368 
	L 1420.866, 374.369 
	L 1424.783, 367.282 
" />
<path d="M 1555.498, 344.940 
	L 1555.497, 344.941 
	L 1545.833, 353.905 
	L 1534.267, 341.435 
	L 1543.931, 332.471 
	L 1555.497, 344.941 
" />
<path d="M 1544.883, 343.187 
	L 1544.882, 343.188 
	L 1551.965, 336.101 
" />
<path d="M 1686.652, 313.711 
	L 1686.651, 313.712 
	L 1676.883, 322.772 
	L 1665.318, 310.302 
	L 1675.086, 301.241 
	L 1686.651, 313.712 
" />
<path d="M 1675.985, 312.006 
	L 1675.985, 312.007 
	L 1682.793, 304.920 
" />
<path d="M 1824.893, 282.482 
	L 1824.893, 282.482 
	L 1815.020, 291.639 
	L 1803.454, 279.169 
	L 1813.327, 270.012 
	L 1824.893, 282.482 
" />
<path d="M 1814.174, 280.825 
	L 1814.174, 280.826 
	L 1814.619, 273.739 
" />
<path d="M 1970.221, 251.252 
	L 1970.220, 251.253 
	L 1960.244, 260.506 
	L 1948.678, 248.036 
	L 1958.654, 238.783 
	L 1970.220, 251.253 
" />
<path d="M 1959.450, 249.644 
	L 1959.449, 249.644 
	L 1963.456, 242.558 
" />
<path d="M 2122.635, 220.023 
	L 2122.634, 220.024 
	L 2112.554, 229.373 
	L 2100.989, 216.903 
	L 2111.069, 207.554 
	L 2122.634, 220.024 
" />
<path d="M 2111.812, 218.463 
	L 2111.811, 218.463 
	L 2116.921, 211.377 
" />
<path d="M 2282.136, 188.794 
	L 2282.135, 188.795 
	L 2271.951, 198.240 
	L 2260.385, 185.770 
	L 2270.569, 176.324 
	L 2282.135, 188.795 
" />
<path d="M 2271.261, 187.282 
	L 2271.260, 187.282 
	L 2272.782, 180.196 
" />
<path d="M 2448.723, 157.565 
	L 2448.723, 157.565 
	L 2438.435, 167.107 
	L 2426.869, 154.637 
	L 2437.156, 145.095 
	L 2448.723, 157.565 
" />
<path d="M 2437.796, 156.100 
	L 2437.796, 156.101 
	L 2439.618, 149.015 
" />
<path d="M 2622.397, 126.335 
	L 2622.396, 126.336 
	L 2612.005, 135.974 
	L 2600.439, 123.504 
	L 2610.831, 113.866 
	L 2622.396, 126.336 
" />
<path d="M 2611.419, 124.919 
	L 2611.418, 124.920 
	L 2618.353, 117.833 
" />
<path d="M 2803.158, 95.106 
	L 2803.157, 95.107 
	L 2792.662, 104.842 
	L 2781.095, 92.371 
	L 2791.591, 82.636 
	L 2803.157, 95.107 
" />
<path d="M 2792.127, 93.738 
	L 2792.126, 93.739 
	L 2794.173, 86.652 
" />
<path d="M 2991.005, 63.877 
	L 2991.005, 63.877 
	L 2980.405, 73.709 
	L 2968.839, 61.238 
	L 2979.438, 51.407 
	L 2991.005, 63.877 
" />
<path d="M 2979.923, 62.557 
	L 2979.922, 62.558 
	L 2982.957, 55.471 
" />
<path d="M 401.710, 900.341 
	L 401.710, 900.342 
	L 410.445, 894.285 
	L 420.338, 908.554 
	L 411.602, 914.610 
	L 401.710, 900.342 
" />
<path d="M 411.024, 904.447 
	L 411.024, 904.448 
	L 416.161, 897.361 
" />
<path d="M 405.196, 868.846 
	L 405.195, 868.847 
	L 414.047, 862.710 
	L 423.939, 876.978 
	L 415.087, 883.115 
	L 405.195, 868.847 
" />
<path d="M 414.568, 872.912 
	L 414.567, 872.912 
	L 420.528, 865.826 
" />
<path d="M 415.767, 837.351 
	L 415.767, 837.352 
	L 424.736, 831.134 
	L 434.627, 845.402 
	L 425.658, 851.620 
	L 415.767, 837.352 
" />
<path d="M 425.198, 841.376 
	L 425.197, 841.377 
	L 426.353, 834.290 
" />
<path d="M 433.425, 805.856 
	L 433.424, 805.857 
	L 442.510, 799.558 
	L 452.402, 813.826 
	L 443.317, 820.125 
	L 433.424, 805.857 
" />
<path d="M 442.914, 809.841 
	L 442.913, 809.841 
	L 449.607, 802.755 
" />
<path d="M 458.170, 774.361 
	L 458.170, 774.362 
	L 467.371, 767.982 
	L 477.264, 782.250 
	L 468.062, 788.630 
	L 458.170, 774.362 
" />
<path d="M 467.717, 778.305 
	L 467.717, 778.306 
	L 468.936, 771.219 
" />
<path d="M 490.002, 742.866 
	L 490.001, 742.867 
	L 499.319, 736.406 
	L 509.212, 750.675 
	L 499.893, 757.135 
	L 490.001, 742.867 
" />
<path d="M 499.607, 746.770 
	L 499.606, 746.771 
	L 500.042, 739.684 
" />
<path d="M 528.920, 711.371 
	L 528.919, 711.371 
	L 538.354, 704.831 
	L 548.246, 719.099 
	L 538.812, 725.640 
	L 528.919, 711.371 
" />
<path d="M 538.583, 715.234 
	L 538.583, 715.235 
	L 540.810, 708.148 
" />
<path d="M 574.925, 679.876 
	L 574.924, 679.876 
	L 584.475, 673.255 
	L 594.367, 687.523 
	L 584.817, 694.145 
	L 574.924, 679.876 
" />
<path d="M 584.646, 683.699 
	L 584.646, 683.700 
	L 584.927, 676.613 
" />
<path d="M 628.016, 648.381 
	L 628.015, 648.381 
	L 637.683, 641.679 
	L 647.576, 655.947 
	L 637.907, 662.650 
	L 628.015, 648.381 
" />
<path d="M 637.796, 652.164 
	L 637.795, 652.164 
	L 641.698, 645.078 
" />
<path d="M 688.194, 616.886 
	L 688.193, 616.886 
	L 697.978, 610.103 
	L 707.870, 624.371 
	L 698.085, 631.155 
	L 688.193, 616.886 
" />
<path d="M 698.032, 620.628 
	L 698.032, 620.629 
	L 700.616, 613.542 
" />
<path d="M 755.459, 585.391 
	L 755.458, 585.391 
	L 765.359, 578.527 
	L 775.251, 592.795 
	L 765.350, 599.660 
	L 755.458, 585.391 
" />
<path d="M 765.355, 589.093 
	L 765.354, 589.093 
	L 768.326, 582.007 
" />
<path d="M 829.810, 553.896 
	L 829.809, 553.896 
	L 839.826, 546.951 
	L 849.718, 561.220 
	L 839.702, 568.164 
	L 829.809, 553.896 
" />
<path d="M 839.765, 557.557 
	L 839.764, 557.558 
	L 846.255, 550.471 
" />
<path d="M 911.248, 522.401 
	L 911.247, 522.401 
	L 921.380, 515.376 
	L 931.273, 529.644 
	L 921.139, 536.669 
	L 911.247, 522.401 
" />
<path d="M 921.261, 526.022 
	L 921.260, 526.022 
	L 924.932, 518.936 
" />
<path d="M 999.773, 490.905 
	L 999.772, 490.906 
	L 1010.022, 483.800 
	L 1019.913, 498.068 
	L 1009.663, 505.174 
	L 999.772, 490.906 
" />
<path d="M 1009.843, 494.486 
	L 1009.843, 494.487 
	L 1013.560, 487.400 
" />
<path d="M 1095.383, 459.410 
	L 1095.382, 459.411 
	L 1105.749, 452.224 
	L 1115.642, 466.492 
	L 1105.275, 473.679 
	L 1095.382, 459.411 
" />
<path d="M 1105.513, 462.951 
	L 1105.512, 462.952 
	L 1112.504, 455.865 
" />
<path d="M 1198.081, 427.915 
	L 1198.080, 427.915 
	L 1208.563, 420.648 
	L 1218.456, 434.917 
	L 1207.972, 442.184 
	L 1198.080, 427.915 
" />
<path d="M 1208.269, 431.415 
	L 1208.268, 431.416 
	L 1208.273, 424.330 
" />
<path d="M 1307.865, 396.420 
	L 1307.865, 396.420 
	L 1318.464, 389.072 
	L 1328.356, 403.341 
	L 1317.757, 410.689 
	L 1307.865, 396.420 
" />
<path d="M 1318.111, 399.880 
	L 1318.110, 399.881 
	L 1319.014, 392.794 
" />
<path d="M 1424.736, 364.925 
	L 1424.736, 364.925 
	L 1435.451, 357.496 
	L 1445.344, 371.765 
	L 1434.628, 379.194 
	L 1424.736, 364.925 
" />
<path d="M 1435.040, 368.345 
	L 1435.040, 368.345 
	L 1438.102, 361.259 
" />
<path d="M 1548.694, 333.430 
	L 1548.693, 333.430 
	L 1559.525, 325.921 
	L 1569.417, 340.189 
	L 1558.585, 347.699 
	L 1548.693, 333.430 
" />
<path d="M 1559.056, 336.809 
	L 1559.055, 336.810 
	L 1564.877, 329.723 
" />
<path d="M 1679.738, 301.934 
	L 1679.737, 301.935 
	L 1690.686, 294.345 
	L 1700.579, 308.614 
	L 1689.629, 316.204 
	L 1679.737, 301.935 
" />
<path d="M 1690.158, 305.274 
	L 1690.158, 305.274 
	L 1692.603, 298.188 
" />
<path d="M 1817.869, 270.439 
	L 1817.868, 270.440 
	L 1828.933, 262.769 
	L 1838.826, 277.038 
	L 1827.760, 284.709 
	L 1817.868, 270.440 
" />
<path d="M 1828.347, 273.738 
	L 1828.347, 273.739 
	L 1830.818, 266.652 
" />
<path d="M 1963.086, 238.944 
	L 1963.085, 238.945 
	L 1974.267, 231.193 
	L 1984.159, 245.462 
	L 1972.977, 253.214 
	L 1963.085, 238.945 
" />
<path d="M 1973.623, 242.203 
	L 1973.622, 242.204 
	L 1975.090, 235.117 
" />
<path d="M 2115.390, 207.449 
	L 2115.389, 207.450 
	L 2126.688, 199.617 
	L 2136.580, 213.886 
	L 2125.282, 221.719 
	L 2115.389, 207.450 
" />
<path d="M 2125.985, 210.667 
	L 2125.985, 210.668 
	L 2128.721, 203.581 
" />
<path d="M 2274.781, 175.954 
	L 2274.780, 175.955 
	L 2286.195, 168.041 
	L 2296.087, 182.310 
	L 2284.672, 190.224 
	L 2274.780, 175.955 
" />
<path d="M 2285.434, 179.132 
	L 2285.433, 179.133 
	L 2290.650, 172.046 
" />
<path d="M 2441.258, 144.459 
	L 2441.258, 144.460 
	L 2452.789, 136.466 
	L 2462.680, 150.734 
	L 2451.149, 158.729 
	L 2441.258, 144.460 
" />
<path d="M 2451.970, 147.597 
	L 2451.969, 147.597 
	L 2454.484, 140.511 
" />
<path d="M 2614.822, 112.964 
	L 2614.821, 112.965 
	L 2626.469, 104.890 
	L 2636.361, 119.159 
	L 2624.713, 127.234 
	L 2614.821, 112.965 
" />
<path d="M 2625.592, 116.061 
	L 2625.591, 116.062 
	L 2631.128, 108.975 
" />
<path d="M 2795.472, 81.469 
	L 2795.471, 81.470 
	L 2807.236, 73.314 
	L 2817.128, 87.583 
	L 2805.363, 95.739 
	L 2795.471, 81.470 
" />
<path d="M 2806.300, 84.526 
	L 2806.300, 84.526 
	L 2808.154, 77.440 
" />
<path d="M 2983.209, 49.974 
	L 2983.208, 49.975 
	L 2995.089, 41.738 
	L 3004.981, 56.007 
	L 2993.101, 64.244 
	L 2983.208, 49.975 
" />
<path d="M 2994.096, 52.990 
	L 2994.095, 52.991 
	L 2996.628, 45.904 
" />
<path d="M 3178.033, 18.479 
	L 3178.032, 18.480 
	L 3190.029, 10.162 
	L 3199.922, 24.431 
	L 3187.924, 32.749 
	L 3178.032, 18.480 
" />
<path d="M 3188.978, 21.455 
	L 3188.977, 21.455 
	L 3194.964, 14.369 
" />
<path d="M 1131.024, 904.448 
	L 1133.150, 904.448 
	L 1133.858, 903.385 
	L 1133.150, 902.322 
	L 1131.732, 902.322 
" />
<path d="M 1133.150, 902.322 
	L 1133.858, 901.259 
	L 1133.150, 900.196 
	L 1131.024, 900.196 
" />
<path d="M 1132.441, 898.070 
	L 1132.441, 894.881 
	L 1131.732, 893.818 
	L 1131.024, 894.881 
	L 1131.024, 897.007 
	L 1131.732, 898.070 
	L 1133.150, 898.070 
	L 1133.858, 897.007 
	L 1133.858, 893.818 
" />
<path d="M 1133.858, 887.440 
	L 1133.858, 890.629 
	L 1133.150, 891.692 
	L 1131.732, 891.692 
	L 1131.024, 890.629 
	L 1131.024, 888.503 
	L 1133.858, 888.503 
" />
<path d="M 1131.024, 885.314 
	L 1132.441, 885.314 
	L 1133.858, 883.188 
	L 1132.441, 881.062 
	L 1131.024, 881.062 
" />
<path d="M 1132.441, 878.936 
	L 1132.441, 875.747 
	L 1131.732, 874.684 
	L 1131.024, 875.747 
	L 1131.024, 877.873 
	L 1131.732, 878.936 
	L 1133.150, 878.936 
	L 1133.858, 877.873 
	L 1133.858, 874.684 
" />
<path d="M 1131.024, 869.369 
	L 1131.024, 871.495 
	L 1131.732, 872.558 
	L 1132.441, 871.495 
	L 1132.441, 870.432 
	L 1133.150, 869.369 
	L 1133.858, 870.432 
	L 1133.858, 872.558 
" />
<path d="M 1133.858, 864.054 
	L 1133.858, 865.117 
	L 1133.150, 865.117 
	L 1133.150, 864.054 
	L 1133.858, 864.054 
" />
<path d="M 1135.276, 859.802 
	L 1131.024, 859.802 
	L 1131.024, 857.676 
	L 1131.732, 856.613 
	L 1133.150, 856.613 
	L 1133.858, 857.676 
	L 1133.858, 859.802 
" />
<path d="M 1135.276, 853.424 
	L 1132.441, 849.172 
	L 1131.024, 849.172 
" />
<path d="M 1131.024, 853.424 
	L 1132.441, 853.424 
	L 1133.858, 851.298 
" />
<path d="M 1130.315, 821.534 
	L 1129.606, 820.471 
	L 1129.606, 818.345 
	L 1130.315, 817.282 
	L 1131.024, 817.282 
	L 1133.150, 821.534 
	L 1133.858, 821.534 
	L 1133.858, 817.282 
" />
<path d="M 1133.150, 815.156 
	L 1133.858, 814.093 
	L 1133.858, 811.967 
	L 1133.150, 810.904 
	L 1130.315, 810.904 
	L 1129.606, 811.967 
	L 1129.606, 814.093 
	L 1130.315, 815.156 
	L 1133.150, 815.156 
" />
<path d="M 1133.858, 807.715 
	L 1133.858, 805.589 
" />
<path d="M 1133.858, 806.652 
	L 1129.606, 806.652 
	L 1130.315, 807.715 
" />
<path d="M 1133.858, 801.337 
	L 1133.858, 800.274 
	L 1132.441, 798.148 
	L 1130.315, 798.148 
	L 1129.606, 799.211 
	L 1129.606, 801.337 
	L 1130.315, 802.400 
	L 1131.024, 802.400 
	L 1131.732, 801.337 
	L 1131.732, 798.148 
" />
<path d="M 1131.732, 796.023 
	L 1131.732, 791.771 
" />
<path d="M 1133.150, 789.645 
	L 1133.858, 788.582 
	L 1133.858, 786.456 
	L 1133.150, 785.393 
	L 1130.315, 785.393 
	L 1129.606, 786.456 
	L 1129.606, 788.582 
	L 1130.315, 789.645 
	L 1133.150, 789.645 
" />
<path d="M 1129.606, 779.015 
	L 1129.606, 781.141 
	L 1131.024, 783.267 
	L 1133.150, 783.267 
	L 1133.858, 782.204 
	L 1133.858, 780.078 
	L 1133.150, 779.015 
	L 1132.441, 779.015 
	L 1131.732, 780.078 
	L 1131.732, 783.267 
" />
<path d="M 1131.732, 776.889 
	L 1131.732, 772.637 
" />
<path d="M 1133.150, 770.511 
	L 1133.858, 769.448 
	L 1133.858, 767.322 
	L 1133.150, 766.259 
	L 1130.315, 766.259 
	L 1129.606, 767.322 
	L 1129.606, 769.448 
	L 1130.315, 770.511 
	L 1133.150, 770.511 
" />
<path d="M 1133.858, 763.070 
	L 1133.858, 762.007 
	L 1132.441, 759.881 
	L 1130.315, 759.881 
	L 1129.606, 760.944 
	L 1129.606, 763.070 
	L 1130.315, 764.133 
	L 1131.024, 764.133 
	L 1131.732, 763.070 
	L 1131.732, 759.881 
" />
<path d="M 1133.150, 751.377 
	L 1133.858, 750.314 
	L 1133.858, 748.188 
	L 1133.150, 747.125 
	L 1130.315, 747.125 
	L 1129.606, 748.188 
	L 1129.606, 750.314 
	L 1130.315, 751.377 
	L 1133.150, 751.377 
" />
<path d="M 1133.150, 744.999 
	L 1133.858, 743.936 
	L 1133.858, 741.810 
	L 1133.150, 740.747 
	L 1130.315, 740.747 
	L 1129.606, 741.810 
	L 1129.606, 743.936 
	L 1130.315, 744.999 
	L 1133.150, 744.999 
" />
<path d="M 1131.732, 737.558 
	L 1131.024, 737.558 
	L 1131.024, 736.495 
	L 1131.732, 736.495 
	L 1131.732, 737.558 
" />
<path d="M 1133.150, 737.558 
	L 1133.150, 736.495 
	L 1133.858, 736.495 
	L 1133.858, 737.558 
	L 1133.150, 737.558 
" />
<path d="M 1133.150, 732.243 
	L 1133.858, 731.180 
	L 1133.858, 729.054 
	L 1133.150, 727.991 
	L 1132.441, 727.991 
	L 1131.732, 729.054 
	L 1131.732, 730.117 
	L 1129.606, 727.991 
	L 1129.606, 732.243 
" />
<path d="M 1131.732, 722.676 
	L 1131.024, 721.613 
	L 1130.315, 721.613 
	L 1129.606, 722.676 
	L 1129.606, 724.802 
	L 1130.315, 725.865 
	L 1131.024, 725.865 
	L 1131.732, 724.802 
	L 1131.732, 722.676 
	L 1132.441, 721.613 
	L 1133.150, 721.613 
" />
<path d="M 1133.150, 721.613 
	L 1133.858, 722.676 
	L 1133.858, 724.802 
	L 1133.150, 725.865 
	L 1132.441, 725.865 
	L 1131.732, 724.802 
" />
</g>
</svg>
