<?xml version="1.0" encoding="UTF-8" standalone="no" ?>
<svg width="100%" height="100%" viewBox="0 0 1141.228 316.606" xmlns="http://www.w3.org/2000/svg"><g>
</g><g style="stroke:rgb(0,0,0); fill:none; stroke-width:1.000mm" >
</g><g style="stroke:rgb(0,255,0); fill:none; stroke-width:0.100mm" >
<path d="M 5.953, 316.605 
	L 5.953, 316.606 
	L 5.953, 104.007 
	L 289.417, 104.007 
	L 289.417, 316.606 
	L 5.953, 316.606 
" />
</g><g style="stroke:rgb(255,0,0); fill:none; stroke-width:0.100mm" >
<path d="M 311.812, 166.652 
	L 311.811, 166.653 
	L 310.582, 147.113 
	L 306.913, 127.881 
" />
<path d="M 300.864, 109.260 
	L 300.863, 109.261 
	L 292.526, 91.545 
	L 282.036, 75.014 
	L 269.556, 59.929 
	L 255.283, 46.526 
	L 239.444, 35.018 
	L 222.287, 25.586 
	L 204.083, 18.378 
	L 185.119, 13.509 
	L 165.695, 11.055 
	L 146.116, 11.055 
" />
<path d="M 146.116, 11.055 
	L 126.692, 13.509 
	L 107.728, 18.378 
	L 89.525, 25.586 
	L 72.367, 35.018 
	L 56.528, 46.526 
	L 42.255, 59.929 
	L 29.775, 75.014 
	L 19.285, 91.545 
	L 10.948, 109.261 
	L 4.898, 127.881 
	L 1.230, 147.113 
" />
<path d="M 1.230, 147.113 
	L 0.000, 166.653 
" />
<path d="M 126.692, 319.796 
	L 126.692, 319.797 
	L 146.116, 322.251 
	L 165.695, 322.251 
	L 185.119, 319.797 
	L 204.083, 314.928 
	L 222.287, 307.721 
	L 239.444, 298.288 
	L 255.283, 286.780 
	L 269.556, 273.378 
	L 282.036, 258.292 
" />
<path d="M 282.036, 258.292 
	L 292.526, 241.761 
	L 300.863, 224.045 
	L 306.913, 205.425 
	L 310.582, 186.193 
	L 311.811, 166.653 
	L 310.582, 147.113 
	L 306.913, 127.881 
	L 300.863, 109.261 
	L 292.526, 91.545 
	L 282.036, 75.014 
" />
<path d="M 282.036, 75.014 
	L 269.556, 59.929 
	L 255.283, 46.526 
	L 239.444, 35.018 
" />
<path d="M 313.980, 163.463 
	L 313.980, 163.464 
	L 312.777, 144.354 
	L 309.189, 125.545 
	L 303.272, 107.334 
	L 295.119, 90.009 
	L 284.859, 73.841 
	L 272.654, 59.087 
	L 258.695, 45.979 
	L 243.204, 34.724 
	L 226.425, 25.500 
" />
<path d="M 226.425, 25.500 
	L 208.621, 18.451 
	L 190.075, 13.689 
	L 171.078, 11.290 
	L 151.930, 11.290 
	L 132.933, 13.689 
	L 114.386, 18.451 
	L 96.583, 25.500 
	L 79.804, 34.724 
	L 64.312, 45.979 
	L 50.354, 59.087 
	L 38.149, 73.841 
" />
<path d="M 38.149, 73.841 
	L 27.889, 90.009 
	L 19.736, 107.334 
	L 13.819, 125.545 
	L 10.231, 144.354 
	L 9.028, 163.464 
	L 10.231, 182.575 
	L 13.819, 201.383 
	L 19.736, 219.594 
	L 27.889, 236.920 
	L 38.149, 253.087 
	L 50.354, 267.841 
" />
<path d="M 50.354, 267.841 
	L 64.312, 280.949 
	L 79.804, 292.204 
	L 96.583, 301.428 
	L 114.386, 308.477 
	L 132.933, 313.239 
	L 151.930, 315.639 
	L 171.078, 315.639 
	L 190.075, 313.239 
	L 208.621, 308.477 
	L 226.425, 301.428 
" />
<path d="M 226.425, 301.428 
	L 243.204, 292.204 
	L 258.695, 280.949 
	L 272.654, 267.841 
	L 284.859, 253.087 
	L 295.119, 236.920 
	L 303.272, 219.594 
" />
<path d="M 306.515, 162.755 
	L 306.515, 162.755 
	L 305.339, 144.066 
	L 301.830, 125.670 
	L 296.043, 107.860 
	L 288.069, 90.916 
	L 278.036, 75.104 
	L 266.098, 60.675 
	L 252.447, 47.856 
	L 237.297, 36.848 
	L 220.886, 27.826 
" />
<path d="M 220.886, 27.826 
	L 203.474, 20.933 
	L 185.336, 16.276 
	L 166.757, 13.929 
	L 148.030, 13.929 
	L 129.451, 16.276 
	L 111.313, 20.933 
	L 93.901, 27.826 
	L 77.491, 36.848 
	L 62.340, 47.856 
	L 48.689, 60.675 
	L 36.752, 75.104 
" />
<path d="M 36.752, 75.104 
" />
<path d="M 36.753, 250.406 
	L 36.752, 250.407 
	L 48.689, 264.836 
	L 62.340, 277.655 
	L 77.491, 288.663 
	L 93.901, 297.685 
	L 111.313, 304.578 
	L 129.451, 309.235 
	L 148.030, 311.582 
	L 166.757, 311.582 
	L 185.336, 309.235 
" />
<path d="M 185.336, 309.235 
	L 203.474, 304.578 
	L 220.886, 297.685 
	L 237.297, 288.663 
" />
<path d="M 301.831, 199.840 
	L 301.830, 199.840 
	L 305.339, 181.445 
	L 306.515, 162.755 
	L 305.339, 144.066 
	L 301.830, 125.670 
	L 296.043, 107.860 
	L 288.069, 90.916 
	L 278.036, 75.104 
	L 266.098, 60.675 
	L 252.447, 47.856 
" />
<path d="M 252.447, 47.856 
	L 237.297, 36.848 
	L 220.886, 27.826 
	L 203.474, 20.933 
	L 185.336, 16.276 
	L 166.757, 13.929 
	L 148.030, 13.929 
	L 129.451, 16.276 
	L 111.313, 20.933 
	L 93.901, 27.826 
	L 77.491, 36.848 
	L 62.340, 47.856 
" />
<path d="M 62.340, 47.856 
" />
<path d="M 304.156, 162.259 
	L 304.155, 162.259 
	L 303.005, 143.981 
	L 299.574, 125.990 
	L 293.914, 108.572 
	L 286.116, 92.000 
	L 276.302, 76.537 
	L 264.628, 62.425 
	L 251.277, 49.888 
	L 236.461, 39.122 
	L 220.411, 30.299 
" />
<path d="M 220.411, 30.299 
	L 203.382, 23.557 
	L 185.643, 19.002 
	L 167.472, 16.707 
	L 149.158, 16.707 
	L 130.987, 19.002 
	L 113.248, 23.557 
	L 96.219, 30.299 
	L 80.169, 39.122 
	L 65.353, 49.888 
	L 52.002, 62.425 
	L 40.328, 76.537 
" />
<path d="M 40.328, 76.537 
	L 30.514, 92.000 
	L 22.716, 108.572 
	L 17.056, 125.990 
	L 13.625, 143.981 
" />
<path d="M 130.988, 305.516 
	L 130.987, 305.517 
" />
<path d="M 130.988, 305.516 
	L 130.987, 305.517 
	L 149.158, 307.812 
	L 167.472, 307.812 
" />
<path d="M 185.644, 305.516 
	L 185.643, 305.517 
	L 203.382, 300.962 
	L 220.411, 294.220 
	L 236.461, 285.396 
	L 251.277, 274.631 
	L 264.628, 262.094 
	L 276.302, 247.982 
	L 286.116, 232.519 
	L 293.914, 215.947 
	L 299.574, 198.529 
" />
<path d="M 299.574, 198.529 
	L 303.005, 180.538 
	L 304.155, 162.259 
	L 303.005, 143.981 
	L 299.574, 125.990 
	L 293.914, 108.572 
	L 286.116, 92.000 
	L 276.302, 76.537 
	L 264.628, 62.425 
" />
<path d="M 302.720, 167.078 
	L 302.719, 167.078 
	L 301.594, 149.202 
	L 298.237, 131.607 
	L 292.703, 114.572 
	L 285.076, 98.365 
	L 275.478, 83.242 
	L 264.061, 69.440 
	L 251.004, 57.178 
	L 236.513, 46.650 
	L 220.816, 38.021 
" />
<path d="M 220.816, 38.021 
	L 204.163, 31.427 
	L 186.813, 26.972 
	L 169.043, 24.728 
	L 151.131, 24.728 
	L 133.360, 26.972 
	L 116.011, 31.427 
	L 99.357, 38.021 
	L 83.660, 46.650 
	L 69.170, 57.178 
	L 56.113, 69.440 
	L 44.695, 83.242 
" />
<path d="M 44.695, 83.242 
	L 35.097, 98.365 
	L 27.471, 114.572 
	L 21.936, 131.607 
	L 18.580, 149.202 
	L 17.454, 167.078 
	L 18.580, 184.955 
	L 21.936, 202.550 
	L 27.471, 219.584 
	L 35.097, 235.792 
	L 44.695, 250.915 
	L 56.113, 264.716 
" />
<path d="M 56.113, 264.716 
	L 69.170, 276.978 
	L 83.660, 287.507 
	L 99.357, 296.135 
	L 116.011, 302.730 
	L 133.360, 307.184 
	L 151.131, 309.429 
	L 169.043, 309.429 
	L 186.813, 307.184 
	L 204.163, 302.730 
	L 220.816, 296.135 
" />
<path d="M 220.816, 296.135 
	L 236.513, 287.507 
	L 251.004, 276.978 
	L 264.061, 264.716 
	L 275.478, 250.915 
	L 285.076, 235.792 
	L 292.703, 219.584 
	L 298.237, 202.550 
	L 301.594, 184.955 
" />
<path d="M 295.968, 163.889 
	L 295.967, 163.889 
	L 294.866, 146.406 
	L 291.584, 129.198 
	L 286.171, 112.538 
	L 278.712, 96.688 
	L 269.325, 81.896 
	L 258.159, 68.399 
	L 245.390, 56.407 
	L 231.217, 46.110 
	L 215.866, 37.671 
" />
<path d="M 215.866, 37.671 
	L 199.578, 31.222 
	L 182.611, 26.866 
	L 165.232, 24.671 
	L 147.713, 24.671 
	L 130.334, 26.866 
	L 113.367, 31.222 
	L 97.079, 37.671 
	L 81.728, 46.110 
	L 67.555, 56.407 
	L 54.786, 68.399 
	L 43.620, 81.896 
" />
<path d="M 43.620, 81.896 
	L 34.233, 96.688 
	L 26.774, 112.538 
	L 21.361, 129.198 
	L 18.079, 146.406 
	L 16.978, 163.889 
	L 18.079, 181.373 
	L 21.361, 198.580 
	L 26.774, 215.240 
	L 34.233, 231.091 
	L 43.620, 245.882 
	L 54.786, 259.379 
" />
<path d="M 54.786, 259.379 
	L 67.555, 271.371 
	L 81.728, 281.668 
	L 97.079, 290.108 
	L 113.367, 296.556 
" />
<path d="M 297.079, 161.692 
	L 297.079, 161.692 
	L 296.003, 144.594 
	L 292.793, 127.765 
	L 287.498, 111.471 
	L 280.204, 95.969 
" />
<path d="M 260.104, 68.302 
	L 260.104, 68.303 
	L 247.614, 56.575 
	L 233.754, 46.505 
	L 218.740, 38.251 
	L 202.811, 31.944 
	L 186.217, 27.684 
	L 169.220, 25.537 
	L 152.087, 25.537 
	L 135.090, 27.684 
" />
<path d="M 73.694, 56.575 
	L 73.693, 56.575 
	L 61.204, 68.303 
	L 50.283, 81.504 
	L 41.103, 95.969 
	L 33.809, 111.471 
	L 28.514, 127.765 
	L 25.304, 144.594 
	L 24.228, 161.692 
	L 25.304, 178.791 
	L 28.514, 195.620 
	L 33.809, 211.914 
" />
<path d="M 33.809, 211.914 
	L 41.103, 227.416 
	L 50.283, 241.881 
	L 61.204, 255.082 
	L 73.693, 266.810 
	L 87.553, 276.880 
	L 102.567, 285.134 
	L 118.496, 291.441 
	L 135.090, 295.701 
	L 152.087, 297.848 
	L 169.220, 297.848 
" />
<path d="M 169.220, 297.848 
	L 186.217, 295.701 
	L 202.811, 291.441 
" />
<path d="M 289.685, 165.022 
	L 289.684, 165.023 
	L 288.631, 148.301 
	L 285.492, 131.842 
	L 280.314, 115.907 
	L 273.180, 100.745 
	L 264.202, 86.598 
	L 253.522, 73.688 
	L 241.308, 62.218 
	L 227.752, 52.369 
	L 213.069, 44.298 
" />
<path d="M 213.069, 44.298 
	L 197.490, 38.130 
" />
<path d="M 115.031, 38.129 
	L 115.030, 38.130 
	L 99.451, 44.298 
	L 84.768, 52.369 
	L 71.212, 62.218 
	L 58.998, 73.688 
	L 48.318, 86.598 
	L 39.340, 100.745 
	L 32.206, 115.907 
	L 27.028, 131.842 
	L 23.888, 148.301 
	L 22.836, 165.023 
" />
<path d="M 22.836, 165.023 
	L 23.888, 181.745 
	L 27.028, 198.204 
" />
<path d="M 84.769, 277.676 
	L 84.768, 277.677 
	L 99.451, 285.749 
	L 115.030, 291.917 
	L 131.259, 296.084 
	L 147.882, 298.184 
	L 164.638, 298.184 
	L 181.261, 296.084 
	L 197.490, 291.917 
	L 213.069, 285.749 
	L 227.752, 277.677 
" />
<path d="M 227.752, 277.677 
	L 241.308, 267.828 
	L 253.522, 256.358 
	L 264.202, 243.448 
	L 273.180, 229.301 
	L 280.314, 214.140 
	L 285.492, 198.204 
	L 288.631, 181.745 
	L 289.684, 165.023 
	L 288.631, 148.301 
	L 285.492, 131.842 
" />
<path d="M 285.492, 131.842 
	L 280.314, 115.907 
	L 273.180, 100.745 
	L 264.202, 86.598 
	L 253.522, 73.688 
	L 241.308, 62.218 
" />
<path d="M 290.222, 165.306 
	L 290.221, 165.307 
	L 289.192, 148.952 
	L 286.121, 132.856 
	L 281.057, 117.271 
	L 274.081, 102.443 
	L 265.299, 88.608 
	L 254.855, 75.981 
	L 242.909, 64.763 
	L 229.652, 55.132 
	L 215.291, 47.237 
" />
<path d="M 215.291, 47.237 
	L 200.055, 41.204 
	L 184.183, 37.130 
	L 167.926, 35.076 
	L 151.539, 35.076 
	L 135.281, 37.130 
	L 119.409, 41.204 
" />
<path d="M 38.408, 117.270 
	L 38.407, 117.271 
	L 33.343, 132.856 
	L 30.273, 148.952 
	L 29.244, 165.307 
	L 30.273, 181.661 
	L 33.343, 197.758 
	L 38.407, 213.343 
	L 45.384, 228.170 
	L 54.165, 242.006 
	L 64.610, 254.632 
	L 76.556, 265.850 
" />
<path d="M 76.556, 265.850 
	L 89.813, 275.482 
	L 104.173, 283.376 
	L 119.409, 289.409 
	L 135.281, 293.484 
	L 151.539, 295.537 
	L 167.926, 295.537 
	L 184.183, 293.484 
	L 200.055, 289.409 
" />
<path d="M 289.193, 181.660 
	L 289.192, 181.661 
	L 290.221, 165.307 
	L 289.192, 148.952 
	L 286.121, 132.856 
	L 281.057, 117.271 
	L 274.081, 102.443 
	L 265.299, 88.608 
" />
<path d="M 287.138, 160.345 
	L 287.138, 160.346 
	L 286.131, 144.352 
	L 283.128, 128.609 
	L 278.176, 113.367 
	L 271.352, 98.865 
	L 262.765, 85.334 
	L 252.549, 72.986 
	L 240.866, 62.015 
	L 227.901, 52.595 
	L 213.857, 44.874 
" />
<path d="M 213.857, 44.874 
	L 198.956, 38.974 
	L 183.433, 34.989 
	L 167.533, 32.980 
	L 151.507, 32.980 
	L 135.607, 34.989 
	L 120.083, 38.974 
	L 105.182, 44.874 
	L 91.139, 52.595 
	L 78.173, 62.015 
	L 66.490, 72.986 
	L 56.275, 85.334 
" />
<path d="M 56.275, 85.334 
	L 47.687, 98.865 
	L 40.864, 113.367 
	L 35.911, 128.609 
	L 32.908, 144.352 
	L 31.902, 160.346 
	L 32.908, 176.341 
" />
<path d="M 183.433, 285.703 
	L 183.433, 285.703 
	L 198.956, 281.718 
	L 213.857, 275.818 
	L 227.901, 268.097 
	L 240.866, 258.677 
	L 252.549, 247.706 
	L 262.765, 235.358 
	L 271.352, 221.827 
	L 278.176, 207.325 
	L 283.128, 192.083 
" />
<path d="M 283.128, 192.083 
	L 286.131, 176.341 
	L 287.138, 160.346 
	L 286.131, 144.352 
	L 283.128, 128.609 
	L 278.176, 113.367 
	L 271.352, 98.865 
	L 262.765, 85.334 
	L 252.549, 72.986 
	L 240.866, 62.015 
	L 227.901, 52.595 
" />
<path d="M 227.901, 52.595 
	L 213.857, 44.874 
	L 198.956, 38.974 
	L 183.433, 34.989 
	L 167.533, 32.980 
	L 151.507, 32.980 
	L 135.607, 34.989 
	L 120.083, 38.974 
	L 105.182, 44.874 
	L 91.139, 52.595 
	L 78.173, 62.015 
	L 66.490, 72.986 
" />
<path d="M 66.490, 72.986 
	L 56.275, 85.334 
	L 47.687, 98.865 
	L 40.864, 113.367 
	L 35.911, 128.609 
	L 32.908, 144.352 
	L 31.902, 160.346 
	L 32.908, 176.341 
	L 35.911, 192.083 
	L 40.864, 207.325 
	L 47.687, 221.827 
	L 56.275, 235.358 
" />
<path d="M 56.275, 235.358 
	L 66.490, 247.706 
	L 78.173, 258.677 
	L 91.139, 268.097 
	L 105.182, 275.818 
	L 120.083, 281.718 
" />
<path d="M 281.071, 164.385 
	L 281.070, 164.385 
	L 280.086, 148.742 
	L 277.149, 133.346 
	L 272.305, 118.440 
	L 265.632, 104.258 
	L 257.234, 91.024 
	L 247.243, 78.947 
	L 235.817, 68.217 
	L 223.136, 59.005 
	L 209.402, 51.454 
" />
<path d="M 209.402, 51.454 
	L 194.828, 45.684 
	L 179.647, 41.786 
	L 164.097, 39.821 
	L 148.423, 39.821 
	L 132.873, 41.786 
	L 117.692, 45.684 
	L 103.118, 51.454 
	L 89.383, 59.005 
	L 76.703, 68.217 
	L 65.277, 78.947 
	L 55.286, 91.024 
" />
<path d="M 55.286, 91.024 
	L 46.888, 104.258 
	L 40.214, 118.440 
	L 35.371, 133.346 
	L 32.434, 148.742 
	L 31.450, 164.385 
	L 32.434, 180.028 
	L 35.371, 195.425 
	L 40.214, 210.331 
	L 46.888, 224.513 
" />
<path d="M 235.818, 260.553 
	L 235.817, 260.554 
	L 247.243, 249.824 
	L 257.234, 237.747 
	L 265.632, 224.513 
	L 272.305, 210.331 
	L 277.149, 195.425 
	L 280.086, 180.028 
	L 281.070, 164.385 
	L 280.086, 148.742 
	L 277.149, 133.346 
" />
<path d="M 277.149, 133.346 
	L 272.305, 118.440 
	L 265.632, 104.258 
	L 257.234, 91.024 
	L 247.243, 78.947 
	L 235.817, 68.217 
	L 223.136, 59.005 
" />
<path d="M 282.010, 167.503 
	L 282.009, 167.504 
	L 281.047, 152.205 
	L 278.174, 137.147 
	L 273.438, 122.569 
	L 266.911, 108.699 
	L 258.697, 95.756 
	L 248.926, 83.945 
	L 237.752, 73.451 
	L 225.350, 64.441 
	L 211.917, 57.056 
" />
<path d="M 211.917, 57.056 
	L 197.665, 51.413 
	L 182.818, 47.602 
	L 167.609, 45.680 
	L 152.281, 45.680 
	L 137.072, 47.602 
	L 122.225, 51.413 
	L 107.972, 57.056 
	L 94.540, 64.441 
	L 82.138, 73.451 
	L 70.964, 83.945 
	L 61.193, 95.756 
" />
<path d="M 61.193, 95.756 
	L 52.979, 108.699 
	L 46.452, 122.569 
	L 41.715, 137.147 
" />
<path d="M 107.973, 277.950 
	L 107.972, 277.951 
	L 122.225, 283.594 
	L 137.072, 287.405 
	L 152.281, 289.327 
	L 167.609, 289.327 
	L 182.818, 287.405 
	L 197.665, 283.594 
	L 211.917, 277.951 
	L 225.350, 270.566 
	L 237.752, 261.556 
" />
<path d="M 237.752, 261.556 
	L 248.926, 251.062 
	L 258.697, 239.251 
	L 266.911, 226.308 
	L 273.438, 212.438 
	L 278.174, 197.860 
	L 281.047, 182.802 
	L 282.009, 167.504 
" />
<path d="M 277.907, 164.101 
	L 277.907, 164.102 
	L 276.965, 149.140 
	L 274.156, 134.413 
	L 269.523, 120.156 
	L 263.140, 106.590 
	L 255.108, 93.932 
	L 245.551, 82.381 
	L 234.623, 72.119 
	L 222.494, 63.307 
	L 209.356, 56.085 
" />
<path d="M 209.356, 56.085 
	L 195.418, 50.566 
	L 180.897, 46.838 
	L 166.023, 44.958 
	L 151.032, 44.958 
	L 136.158, 46.838 
	L 121.637, 50.566 
	L 107.699, 56.085 
	L 94.561, 63.307 
	L 82.432, 72.119 
	L 71.504, 82.381 
	L 61.948, 93.932 
" />
<path d="M 61.948, 93.932 
	L 53.915, 106.590 
	L 47.532, 120.156 
" />
<path d="M 94.562, 264.896 
	L 94.561, 264.897 
	L 107.699, 272.119 
	L 121.637, 277.638 
	L 136.158, 281.366 
	L 151.032, 283.246 
	L 166.023, 283.246 
	L 180.897, 281.366 
	L 195.418, 277.638 
	L 209.356, 272.119 
	L 222.494, 264.897 
" />
<path d="M 222.494, 264.897 
	L 234.623, 256.085 
	L 245.551, 245.823 
	L 255.108, 234.271 
	L 263.140, 221.613 
	L 269.523, 208.048 
	L 274.156, 193.791 
	L 276.965, 179.064 
	L 277.907, 164.102 
	L 276.965, 149.140 
	L 274.156, 134.413 
" />
<path d="M 274.156, 134.413 
	L 269.523, 120.156 
	L 263.140, 106.590 
	L 255.108, 93.932 
	L 245.551, 82.381 
	L 234.623, 72.119 
	L 222.494, 63.307 
" />
<path d="M 277.053, 163.180 
	L 277.052, 163.181 
	L 276.131, 148.548 
	L 273.384, 134.145 
	L 268.853, 120.201 
	L 262.610, 106.935 
	L 254.754, 94.555 
	L 245.408, 83.258 
" />
<path d="M 210.011, 57.539 
	L 210.010, 57.540 
	L 196.378, 52.143 
	L 182.176, 48.496 
	L 167.630, 46.658 
	L 152.968, 46.658 
	L 138.422, 48.496 
	L 124.221, 52.143 
" />
<path d="M 85.879, 73.220 
	L 85.878, 73.221 
	L 75.190, 83.258 
	L 65.845, 94.555 
	L 57.988, 106.935 
	L 51.745, 120.201 
	L 47.215, 134.145 
	L 44.467, 148.548 
	L 43.547, 163.181 
	L 44.467, 177.814 
	L 47.215, 192.216 
	L 51.745, 206.160 
" />
<path d="M 51.745, 206.160 
" />
<path d="M 97.741, 261.758 
	L 97.740, 261.758 
	L 110.588, 268.822 
	L 124.221, 274.219 
	L 138.422, 277.865 
	L 152.968, 279.703 
	L 167.630, 279.703 
	L 182.176, 277.865 
	L 196.378, 274.219 
	L 210.010, 268.822 
	L 222.858, 261.758 
" />
<path d="M 222.858, 261.758 
	L 234.720, 253.140 
	L 245.408, 243.104 
	L 254.754, 231.806 
	L 262.610, 219.426 
	L 268.853, 206.160 
	L 273.384, 192.216 
	L 276.131, 177.814 
" />
<path d="M 271.578, 160.912 
	L 271.578, 160.913 
	L 270.678, 146.602 
	L 267.990, 132.516 
	L 263.560, 118.879 
	L 257.454, 105.905 
	L 249.771, 93.797 
	L 240.630, 82.748 
	L 230.178, 72.933 
	L 218.577, 64.504 
	L 206.011, 57.596 
" />
<path d="M 206.011, 57.596 
	L 192.679, 52.318 
	L 178.790, 48.752 
	L 164.563, 46.955 
	L 150.224, 46.955 
	L 135.998, 48.752 
	L 122.109, 52.318 
	L 108.777, 57.596 
	L 96.211, 64.504 
	L 84.610, 72.933 
	L 74.157, 82.748 
	L 65.017, 93.797 
" />
<path d="M 65.017, 93.797 
	L 57.334, 105.905 
	L 51.228, 118.879 
	L 46.797, 132.516 
	L 44.110, 146.602 
	L 43.210, 160.913 
" />
<path d="M 150.225, 274.871 
	L 150.224, 274.871 
	L 164.563, 274.871 
	L 178.790, 273.074 
	L 192.679, 269.508 
" />
<path d="M 206.011, 264.229 
	L 206.011, 264.230 
	L 218.577, 257.322 
	L 230.178, 248.893 
	L 240.630, 239.078 
	L 249.771, 228.029 
	L 257.454, 215.921 
	L 263.560, 202.947 
	L 267.990, 189.310 
	L 270.678, 175.224 
	L 271.578, 160.913 
" />
<path d="M 271.578, 160.913 
	L 270.678, 146.602 
	L 267.990, 132.516 
	L 263.560, 118.879 
	L 257.454, 105.905 
	L 249.771, 93.797 
	L 240.630, 82.748 
	L 230.178, 72.933 
	L 218.577, 64.504 
	L 206.011, 57.596 
	L 192.679, 52.318 
" />
<path d="M 192.679, 52.318 
	L 178.790, 48.752 
	L 164.563, 46.955 
	L 150.224, 46.955 
	L 135.998, 48.752 
	L 122.109, 52.318 
	L 108.777, 57.596 
	L 96.211, 64.504 
	L 84.610, 72.933 
	L 74.157, 82.748 
	L 65.017, 93.797 
	L 57.334, 105.905 
" />
<path d="M 57.334, 105.905 
	L 51.228, 118.879 
	L 46.797, 132.516 
	L 44.110, 146.602 
	L 43.210, 160.913 
	L 44.110, 175.224 
	L 46.797, 189.310 
	L 51.228, 202.947 
	L 57.334, 215.921 
	L 65.017, 228.029 
	L 74.157, 239.078 
	L 84.610, 248.893 
" />
<path d="M 84.610, 248.893 
	L 96.211, 257.322 
	L 108.777, 264.230 
	L 122.109, 269.508 
	L 135.998, 273.074 
" />
<path d="M 271.334, 160.912 
	L 271.334, 160.913 
	L 270.453, 146.917 
	L 267.825, 133.141 
	L 263.492, 119.803 
	L 257.521, 107.114 
	L 250.006, 95.274 
	L 241.067, 84.468 
	L 230.844, 74.868 
	L 219.498, 66.625 
	L 207.209, 59.869 
" />
<path d="M 207.209, 59.869 
	L 194.170, 54.707 
	L 180.587, 51.219 
	L 166.674, 49.461 
	L 152.649, 49.461 
	L 138.736, 51.219 
	L 125.153, 54.707 
	L 112.114, 59.869 
	L 99.825, 66.625 
	L 88.479, 74.868 
" />
<path d="M 51.498, 188.684 
	L 51.498, 188.685 
	L 55.831, 202.022 
	L 61.802, 214.712 
	L 69.317, 226.552 
	L 78.256, 237.358 
	L 88.479, 246.958 
	L 99.825, 255.201 
	L 112.114, 261.957 
	L 125.153, 267.119 
	L 138.736, 270.607 
	L 152.649, 272.365 
" />
<path d="M 152.649, 272.365 
	L 166.674, 272.365 
	L 180.587, 270.607 
	L 194.170, 267.119 
	L 207.209, 261.957 
	L 219.498, 255.201 
	L 230.844, 246.958 
	L 241.067, 237.358 
	L 250.006, 226.552 
	L 257.521, 214.712 
	L 263.492, 202.022 
" />
<path d="M 263.492, 202.022 
	L 267.825, 188.685 
	L 270.453, 174.909 
	L 271.334, 160.913 
	L 270.453, 146.917 
	L 267.825, 133.141 
	L 263.492, 119.803 
	L 257.521, 107.114 
	L 250.006, 95.274 
	L 241.067, 84.468 
	L 230.844, 74.868 
" />
<path d="M 230.844, 74.868 
	L 219.498, 66.625 
	L 207.209, 59.869 
	L 194.170, 54.707 
	L 180.587, 51.219 
	L 166.674, 49.461 
	L 152.649, 49.461 
	L 138.736, 51.219 
	L 125.153, 54.707 
	L 112.114, 59.869 
	L 99.825, 66.625 
	L 88.479, 74.868 
" />
<path d="M 88.479, 74.868 
	L 78.256, 84.468 
	L 69.317, 95.274 
" />
<path d="M 264.696, 159.991 
	L 264.696, 159.992 
	L 263.835, 146.303 
	L 261.264, 132.831 
	L 257.026, 119.787 
	L 251.186, 107.377 
	L 243.837, 95.797 
	L 235.095, 85.229 
	L 225.096, 75.840 
	L 214.001, 67.779 
" />
<path d="M 162.339, 50.991 
	L 162.338, 50.992 
	L 148.623, 50.992 
	L 135.016, 52.711 
	L 121.731, 56.122 
	L 108.979, 61.171 
	L 96.960, 67.779 
	L 85.864, 75.840 
	L 75.866, 85.229 
	L 67.124, 95.797 
	L 59.774, 107.377 
	L 53.935, 119.787 
" />
<path d="M 53.935, 119.787 
	L 49.696, 132.831 
	L 47.126, 146.303 
	L 46.265, 159.992 
	L 47.126, 173.680 
	L 49.696, 187.153 
	L 53.935, 200.196 
" />
<path d="M 135.016, 267.272 
	L 135.016, 267.272 
	L 148.623, 268.992 
	L 162.338, 268.992 
	L 175.945, 267.272 
	L 189.230, 263.862 
	L 201.982, 258.812 
	L 214.001, 252.205 
	L 225.096, 244.143 
	L 235.095, 234.755 
	L 243.837, 224.186 
" />
<path d="M 243.837, 224.186 
	L 251.186, 212.606 
" />
<path d="M 262.719, 160.558 
	L 262.718, 160.559 
	L 261.876, 147.171 
	L 259.362, 133.995 
	L 255.217, 121.239 
	L 249.506, 109.101 
	L 242.319, 97.775 
	L 233.768, 87.440 
	L 223.990, 78.258 
	L 213.138, 70.374 
	L 201.384, 63.912 
" />
<path d="M 201.384, 63.912 
	L 188.912, 58.974 
	L 175.920, 55.638 
	L 162.612, 53.957 
	L 149.199, 53.957 
	L 135.891, 55.638 
	L 122.899, 58.974 
" />
<path d="M 56.594, 121.238 
	L 56.594, 121.239 
	L 52.449, 133.995 
	L 49.935, 147.171 
	L 49.093, 160.559 
	L 49.935, 173.946 
	L 52.449, 187.122 
	L 56.594, 199.879 
" />
<path d="M 78.043, 233.676 
	L 78.043, 233.677 
	L 87.821, 242.859 
	L 98.673, 250.744 
	L 110.427, 257.205 
	L 122.899, 262.143 
	L 135.891, 265.480 
	L 149.199, 267.160 
	L 162.612, 267.160 
	L 175.920, 265.480 
	L 188.912, 262.143 
" />
<path d="M 188.912, 262.143 
" />
<path d="M 233.769, 233.676 
	L 233.768, 233.677 
	L 242.319, 223.342 
	L 249.506, 212.016 
	L 255.217, 199.879 
	L 259.362, 187.122 
	L 261.876, 173.946 
	L 262.718, 160.559 
	L 261.876, 147.171 
	L 259.362, 133.995 
	L 255.217, 121.239 
" />
<path d="M 255.217, 121.239 
	L 249.506, 109.101 
	L 242.319, 97.775 
	L 233.768, 87.440 
	L 223.990, 78.258 
	L 213.138, 70.374 
	L 201.384, 63.912 
	L 188.912, 58.974 
	L 175.920, 55.638 
	L 162.612, 53.957 
	L 149.199, 53.957 
	L 135.891, 55.638 
" />
<path d="M 135.891, 55.638 
" />
<path d="M 264.266, 167.503 
	L 264.266, 167.504 
	L 263.442, 154.411 
	L 260.984, 141.525 
	L 256.930, 129.048 
	L 251.345, 117.178 
	L 244.315, 106.102 
	L 235.953, 95.994 
	L 226.390, 87.014 
	L 215.777, 79.303 
	L 204.281, 72.983 
" />
<path d="M 204.281, 72.983 
	L 192.084, 68.153 
	L 179.378, 64.891 
	L 166.363, 63.247 
	L 153.244, 63.247 
	L 140.229, 64.891 
	L 127.522, 68.153 
	L 115.325, 72.983 
	L 103.830, 79.303 
	L 93.216, 87.014 
	L 83.653, 95.994 
	L 75.291, 106.102 
" />
<path d="M 75.291, 106.102 
	L 68.262, 117.178 
	L 62.676, 129.048 
	L 58.623, 141.525 
	L 56.164, 154.411 
	L 55.341, 167.504 
	L 56.164, 180.596 
	L 58.623, 193.482 
	L 62.676, 205.959 
	L 68.262, 217.829 
	L 75.291, 228.905 
	L 83.653, 239.013 
" />
<path d="M 83.653, 239.013 
	L 93.216, 247.993 
	L 103.830, 255.704 
	L 115.325, 262.024 
	L 127.522, 266.854 
	L 140.229, 270.116 
	L 153.244, 271.760 
	L 166.363, 271.760 
	L 179.378, 270.116 
	L 192.084, 266.854 
	L 204.281, 262.024 
" />
<path d="M 204.281, 262.024 
	L 215.777, 255.704 
	L 226.390, 247.993 
	L 235.953, 239.013 
	L 244.315, 228.905 
	L 251.345, 217.829 
	L 256.930, 205.959 
" />
<path d="M 259.133, 165.873 
	L 259.133, 165.874 
	L 258.328, 153.069 
	L 255.923, 140.467 
	L 251.959, 128.264 
	L 246.496, 116.656 
	L 239.621, 105.823 
	L 231.443, 95.937 
	L 222.090, 87.155 
	L 211.711, 79.613 
	L 200.468, 73.432 
" />
<path d="M 200.468, 73.432 
	L 188.539, 68.710 
	L 176.112, 65.519 
	L 163.383, 63.911 
	L 150.554, 63.911 
	L 137.825, 65.519 
	L 125.398, 68.710 
	L 113.469, 73.432 
	L 102.226, 79.613 
	L 91.847, 87.155 
	L 82.494, 95.937 
	L 74.316, 105.823 
" />
<path d="M 74.316, 105.823 
	L 67.441, 116.656 
	L 61.978, 128.264 
	L 58.014, 140.467 
	L 55.609, 153.069 
	L 54.804, 165.874 
	L 55.609, 178.678 
	L 58.014, 191.281 
	L 61.978, 203.483 
	L 67.441, 215.092 
	L 74.316, 225.924 
	L 82.494, 235.810 
" />
<path d="M 82.494, 235.810 
	L 91.847, 244.592 
	L 102.226, 252.134 
	L 113.469, 258.315 
	L 125.398, 263.037 
	L 137.825, 266.229 
	L 150.554, 267.837 
	L 163.383, 267.837 
	L 176.112, 266.229 
	L 188.539, 263.037 
	L 200.468, 258.315 
" />
<path d="M 200.468, 258.315 
" />
<path d="M 260.713, 162.471 
	L 260.712, 162.472 
	L 259.924, 149.949 
	L 257.573, 137.624 
	L 253.696, 125.690 
	L 248.353, 114.337 
	L 241.629, 103.742 
	L 233.632, 94.074 
	L 224.485, 85.484 
	L 214.333, 78.109 
	L 203.338, 72.065 
" />
<path d="M 203.338, 72.065 
	L 191.671, 67.445 
	L 179.518, 64.325 
	L 167.069, 62.752 
	L 154.522, 62.752 
	L 142.072, 64.325 
	L 129.920, 67.445 
	L 118.253, 72.065 
	L 107.257, 78.109 
	L 97.106, 85.484 
	L 87.959, 94.074 
	L 79.961, 103.742 
" />
<path d="M 79.961, 103.742 
	L 73.237, 114.337 
	L 67.895, 125.690 
	L 64.018, 137.624 
	L 61.666, 149.949 
	L 60.878, 162.472 
	L 61.666, 174.995 
" />
<path d="M 179.519, 260.618 
	L 179.518, 260.619 
	L 191.671, 257.499 
	L 203.338, 252.879 
	L 214.333, 246.835 
	L 224.485, 239.460 
	L 233.632, 230.870 
	L 241.629, 221.202 
	L 248.353, 210.607 
	L 253.696, 199.254 
	L 257.573, 187.321 
" />
<path d="M 257.573, 187.321 
	L 259.924, 174.995 
	L 260.712, 162.472 
	L 259.924, 149.949 
	L 257.573, 137.624 
	L 253.696, 125.690 
	L 248.353, 114.337 
	L 241.629, 103.742 
	L 233.632, 94.074 
	L 224.485, 85.484 
	L 214.333, 78.109 
" />
<path d="M 214.333, 78.109 
	L 203.338, 72.065 
	L 191.671, 67.445 
	L 179.518, 64.325 
	L 167.069, 62.752 
	L 154.522, 62.752 
	L 142.072, 64.325 
	L 129.920, 67.445 
	L 118.253, 72.065 
	L 107.257, 78.109 
	L 97.106, 85.484 
	L 87.959, 94.074 
" />
<path d="M 87.959, 94.074 
	L 79.961, 103.742 
	L 73.237, 114.337 
	L 67.895, 125.690 
	L 64.018, 137.624 
	L 61.666, 149.949 
	L 60.878, 162.472 
	L 61.666, 174.995 
" />
<path d="M 258.373, 164.101 
	L 258.372, 164.102 
	L 257.602, 151.855 
	L 255.302, 139.801 
	L 251.510, 128.130 
	L 246.285, 117.026 
	L 239.710, 106.664 
	L 231.888, 97.209 
	L 222.942, 88.808 
	L 213.014, 81.595 
	L 202.260, 75.684 
" />
<path d="M 202.260, 75.684 
	L 190.850, 71.166 
	L 178.964, 68.114 
	L 166.789, 66.576 
	L 154.518, 66.576 
	L 142.343, 68.114 
	L 130.457, 71.166 
	L 119.047, 75.684 
	L 108.293, 81.595 
	L 98.365, 88.808 
	L 89.420, 97.209 
	L 81.597, 106.664 
" />
<path d="M 81.597, 106.664 
	L 75.022, 117.026 
	L 69.797, 128.130 
	L 66.005, 139.801 
	L 63.705, 151.855 
	L 62.935, 164.102 
	L 63.705, 176.349 
	L 66.005, 188.403 
	L 69.797, 200.074 
	L 75.022, 211.178 
	L 81.597, 221.540 
	L 89.420, 230.995 
" />
<path d="M 89.420, 230.995 
	L 98.365, 239.396 
	L 108.293, 246.609 
	L 119.047, 252.520 
	L 130.457, 257.038 
	L 142.343, 260.089 
	L 154.518, 261.628 
	L 166.789, 261.628 
	L 178.964, 260.089 
	L 190.850, 257.038 
	L 202.260, 252.520 
" />
<path d="M 202.260, 252.520 
	L 213.014, 246.609 
	L 222.942, 239.396 
	L 231.888, 230.995 
	L 239.710, 221.540 
	L 246.285, 211.178 
" />
<path d="M 256.010, 164.739 
	L 256.010, 164.740 
	L 255.256, 152.762 
	L 253.007, 140.973 
	L 249.299, 129.558 
	L 244.188, 118.699 
	L 237.758, 108.566 
	L 230.107, 99.318 
	L 221.359, 91.103 
	L 211.650, 84.048 
	L 201.132, 78.267 
" />
<path d="M 201.132, 78.267 
	L 189.973, 73.848 
	L 178.349, 70.863 
	L 166.442, 69.360 
	L 154.440, 69.360 
	L 142.533, 70.863 
	L 130.909, 73.848 
	L 119.750, 78.267 
	L 109.232, 84.048 
	L 99.523, 91.103 
	L 90.775, 99.318 
	L 83.124, 108.566 
" />
<path d="M 83.124, 108.566 
	L 76.693, 118.699 
	L 71.583, 129.558 
	L 67.875, 140.973 
	L 65.626, 152.762 
	L 64.872, 164.740 
	L 65.626, 176.718 
	L 67.875, 188.507 
	L 71.583, 199.921 
	L 76.693, 210.780 
	L 83.124, 220.914 
	L 90.775, 230.161 
" />
<path d="M 90.775, 230.161 
	L 99.523, 238.377 
	L 109.232, 245.431 
	L 119.750, 251.213 
	L 130.909, 255.631 
	L 142.533, 258.616 
	L 154.440, 260.120 
	L 166.442, 260.120 
	L 178.349, 258.616 
	L 189.973, 255.631 
	L 201.132, 251.213 
" />
<path d="M 201.132, 251.213 
" />
<path d="M 248.805, 165.164 
	L 248.805, 165.165 
	L 248.068, 153.451 
	L 245.869, 141.921 
	L 242.241, 130.758 
	L 237.244, 120.137 
	L 230.954, 110.227 
	L 223.473, 101.183 
	L 214.916, 93.148 
	L 205.420, 86.248 
" />
<path d="M 161.208, 71.882 
	L 161.208, 71.883 
	L 149.469, 71.883 
	L 137.825, 73.354 
	L 126.456, 76.273 
	L 115.542, 80.594 
	L 105.257, 86.248 
	L 95.761, 93.148 
	L 87.204, 101.183 
	L 79.723, 110.227 
	L 73.434, 120.137 
	L 68.436, 130.758 
" />
<path d="M 68.436, 130.758 
	L 64.809, 141.921 
	L 62.610, 153.451 
	L 61.873, 165.165 
	L 62.610, 176.879 
	L 64.809, 188.409 
	L 68.436, 199.572 
	L 73.434, 210.193 
	L 79.723, 220.103 
	L 87.204, 229.147 
	L 95.761, 237.182 
	L 105.257, 244.081 
" />
<path d="M 105.257, 244.081 
	L 115.542, 249.736 
" />
<path d="M 230.955, 220.102 
	L 230.954, 220.103 
	L 237.244, 210.193 
	L 242.241, 199.572 
	L 245.869, 188.409 
	L 248.068, 176.879 
	L 248.805, 165.165 
	L 248.068, 153.451 
	L 245.869, 141.921 
	L 242.241, 130.758 
	L 237.244, 120.137 
" />
<path d="M 237.244, 120.137 
	L 230.954, 110.227 
	L 223.473, 101.183 
	L 214.916, 93.148 
	L 205.420, 86.248 
	L 195.135, 80.594 
	L 184.222, 76.273 
	L 172.852, 73.354 
	L 161.208, 71.883 
	L 149.469, 71.883 
	L 137.825, 73.354 
" />
<path d="M 137.825, 73.354 
" />
<path d="M 247.954, 160.629 
	L 247.954, 160.629 
	L 247.233, 149.173 
	L 245.081, 137.897 
	L 241.535, 126.979 
	L 236.647, 116.593 
	L 230.496, 106.900 
	L 223.178, 98.055 
	L 214.810, 90.197 
	L 205.523, 83.449 
	L 195.464, 77.919 
" />
<path d="M 195.464, 77.919 
	L 184.791, 73.693 
	L 173.672, 70.839 
	L 162.283, 69.400 
" />
<path d="M 98.277, 90.196 
	L 98.276, 90.197 
	L 89.909, 98.055 
	L 82.591, 106.900 
	L 76.440, 116.593 
	L 71.552, 126.979 
	L 68.005, 137.897 
	L 65.854, 149.173 
	L 65.133, 160.629 
" />
<path d="M 71.553, 194.279 
	L 71.552, 194.280 
	L 76.440, 204.666 
	L 82.591, 214.359 
	L 89.909, 223.204 
	L 98.276, 231.062 
	L 107.563, 237.810 
	L 117.623, 243.339 
	L 128.296, 247.566 
	L 139.415, 250.420 
	L 150.804, 251.859 
" />
<path d="M 150.804, 251.859 
	L 162.283, 251.859 
	L 173.672, 250.420 
	L 184.791, 247.566 
	L 195.464, 243.339 
	L 205.523, 237.810 
	L 214.810, 231.062 
	L 223.178, 223.204 
	L 230.496, 214.359 
	L 236.647, 204.666 
	L 241.535, 194.280 
" />
<path d="M 241.535, 194.280 
	L 245.081, 183.362 
	L 247.233, 172.086 
	L 247.954, 160.629 
	L 247.233, 149.173 
	L 245.081, 137.897 
	L 241.535, 126.979 
" />
<path d="M 250.053, 164.314 
	L 250.053, 164.315 
	L 249.348, 153.110 
	L 247.244, 142.082 
	L 243.775, 131.404 
	L 238.995, 121.246 
	L 232.979, 111.767 
	L 225.823, 103.117 
	L 217.638, 95.431 
	L 208.556, 88.832 
	L 198.718, 83.424 
" />
<path d="M 198.718, 83.424 
	L 188.279, 79.291 
	L 177.406, 76.499 
	L 166.267, 75.092 
	L 155.040, 75.092 
	L 143.902, 76.499 
	L 133.028, 79.291 
	L 122.589, 83.424 
	L 112.751, 88.832 
	L 103.669, 95.431 
	L 95.484, 103.117 
	L 88.328, 111.767 
" />
<path d="M 88.328, 111.767 
" />
<path d="M 88.329, 216.861 
	L 88.328, 216.862 
	L 95.484, 225.512 
	L 103.669, 233.198 
	L 112.751, 239.797 
	L 122.589, 245.205 
	L 133.028, 249.338 
	L 143.902, 252.130 
	L 155.040, 253.537 
	L 166.267, 253.537 
	L 177.406, 252.130 
" />
<path d="M 177.406, 252.130 
	L 188.279, 249.338 
	L 198.718, 245.205 
	L 208.556, 239.797 
	L 217.638, 233.198 
	L 225.823, 225.512 
	L 232.979, 216.862 
	L 238.995, 207.383 
	L 243.775, 197.225 
	L 247.244, 186.547 
	L 249.348, 175.519 
" />
<path d="M 249.348, 175.519 
	L 250.053, 164.315 
	L 249.348, 153.110 
	L 247.244, 142.082 
	L 243.775, 131.404 
	L 238.995, 121.246 
	L 232.979, 111.767 
	L 225.823, 103.117 
	L 217.638, 95.431 
	L 208.556, 88.832 
	L 198.718, 83.424 
" />
<path d="M 198.718, 83.424 
	L 188.279, 79.291 
	L 177.406, 76.499 
	L 166.267, 75.092 
" />
<path d="M 242.347, 160.062 
	L 242.346, 160.063 
	L 241.656, 149.105 
	L 239.599, 138.319 
	L 236.206, 127.877 
	L 231.531, 117.942 
	L 225.648, 108.671 
	L 218.649, 100.211 
	L 210.645, 92.695 
	L 201.762, 86.241 
	L 192.140, 80.951 
" />
<path d="M 192.140, 80.951 
	L 181.931, 76.910 
	L 171.296, 74.179 
	L 160.403, 72.803 
	L 149.423, 72.803 
	L 138.531, 74.179 
	L 127.896, 76.910 
	L 117.687, 80.951 
	L 108.065, 86.241 
	L 99.182, 92.695 
	L 91.178, 100.211 
" />
<path d="M 73.621, 192.248 
	L 73.621, 192.249 
	L 78.296, 202.183 
	L 84.179, 211.454 
	L 91.178, 219.914 
	L 99.182, 227.430 
	L 108.065, 233.884 
	L 117.687, 239.174 
	L 127.896, 243.215 
	L 138.531, 245.946 
	L 149.423, 247.322 
" />
<path d="M 149.423, 247.322 
	L 160.403, 247.322 
	L 171.296, 245.946 
	L 181.931, 243.215 
	L 192.140, 239.174 
	L 201.762, 233.884 
	L 210.645, 227.430 
	L 218.649, 219.914 
	L 225.648, 211.454 
	L 231.531, 202.183 
	L 236.206, 192.249 
" />
<path d="M 236.206, 192.249 
	L 239.599, 181.806 
	L 241.656, 171.021 
" />
<path d="M 244.249, 160.487 
	L 244.249, 160.488 
	L 243.575, 149.771 
	L 241.563, 139.222 
	L 238.244, 129.010 
	L 233.672, 119.293 
	L 227.918, 110.227 
	L 221.073, 101.953 
	L 213.245, 94.602 
	L 204.558, 88.290 
	L 195.148, 83.117 
" />
<path d="M 195.148, 83.117 
	L 185.164, 79.164 
	L 174.763, 76.494 
	L 164.109, 75.148 
	L 153.371, 75.148 
	L 142.717, 76.494 
	L 132.316, 79.164 
	L 122.332, 83.117 
	L 112.922, 88.290 
	L 104.235, 94.602 
	L 96.407, 101.953 
	L 89.562, 110.227 
" />
<path d="M 89.562, 110.227 
	L 83.808, 119.293 
	L 79.236, 129.010 
	L 75.917, 139.222 
	L 73.906, 149.771 
	L 73.232, 160.488 
	L 73.906, 171.205 
	L 75.917, 181.753 
	L 79.236, 191.966 
	L 83.808, 201.682 
	L 89.562, 210.749 
	L 96.407, 219.022 
" />
<path d="M 96.407, 219.022 
	L 104.235, 226.373 
	L 112.922, 232.685 
	L 122.332, 237.859 
	L 132.316, 241.812 
	L 142.717, 244.482 
" />
<path d="M 238.471, 161.692 
	L 238.470, 161.692 
	L 237.811, 151.211 
	L 235.843, 140.895 
	L 232.598, 130.907 
	L 228.126, 121.404 
	L 222.498, 112.538 
	L 215.804, 104.445 
	L 208.149, 97.256 
	L 199.653, 91.084 
" />
<path d="M 160.094, 78.229 
	L 160.094, 78.230 
	L 149.591, 78.230 
	L 139.173, 79.546 
	L 129.000, 82.158 
	L 119.236, 86.024 
	L 110.032, 91.084 
	L 101.536, 97.256 
	L 93.881, 104.445 
	L 87.187, 112.538 
	L 81.559, 121.404 
	L 77.087, 130.907 
" />
<path d="M 77.087, 130.907 
" />
<path d="M 73.843, 182.489 
	L 73.843, 182.490 
	L 77.087, 192.478 
	L 81.559, 201.981 
	L 87.187, 210.847 
	L 93.881, 218.940 
	L 101.536, 226.129 
	L 110.032, 232.301 
	L 119.236, 237.361 
	L 129.000, 241.227 
	L 139.173, 243.839 
" />
<path d="M 139.173, 243.839 
	L 149.591, 245.155 
	L 160.094, 245.155 
	L 170.512, 243.839 
" />
<path d="M 222.499, 210.847 
	L 222.498, 210.847 
	L 228.126, 201.981 
	L 232.598, 192.478 
	L 235.843, 182.490 
	L 237.811, 172.174 
	L 238.470, 161.692 
	L 237.811, 151.211 
	L 235.843, 140.895 
	L 232.598, 130.907 
	L 228.126, 121.404 
" />
<path d="M 228.126, 121.404 
	L 222.498, 112.538 
	L 215.804, 104.445 
	L 208.149, 97.256 
	L 199.653, 91.084 
	L 190.449, 86.024 
	L 180.685, 82.158 
	L 170.512, 79.546 
	L 160.094, 78.230 
" />
<path d="M 243.151, 167.786 
	L 243.150, 167.787 
	L 242.505, 157.536 
	L 240.581, 147.447 
	L 237.407, 137.679 
	L 233.033, 128.385 
	L 227.530, 119.713 
	L 220.983, 111.799 
" />
<path d="M 196.187, 93.782 
	L 196.186, 93.783 
	L 186.636, 90.002 
	L 176.688, 87.448 
	L 166.498, 86.160 
	L 156.227, 86.160 
	L 146.037, 87.448 
	L 136.089, 90.002 
" />
<path d="M 109.230, 104.768 
	L 109.229, 104.769 
	L 101.742, 111.799 
	L 95.195, 119.713 
	L 89.691, 128.385 
" />
<path d="M 85.319, 137.678 
	L 85.318, 137.679 
	L 82.144, 147.447 
	L 80.219, 157.536 
	L 79.574, 167.787 
	L 80.219, 178.038 
	L 82.144, 188.127 
	L 85.318, 197.895 
	L 89.691, 207.189 
	L 95.195, 215.860 
	L 101.742, 223.775 
	L 109.229, 230.805 
" />
<path d="M 109.229, 230.805 
	L 117.538, 236.842 
	L 126.539, 241.791 
" />
<path d="M 186.637, 245.571 
	L 186.636, 245.572 
	L 196.186, 241.791 
	L 205.187, 236.842 
	L 213.496, 230.805 
	L 220.983, 223.775 
	L 227.530, 215.860 
	L 233.033, 207.189 
	L 237.407, 197.895 
	L 240.581, 188.127 
	L 242.505, 178.038 
" />
<path d="M 242.505, 178.038 
" />
<path d="M 236.320, 162.400 
	L 236.319, 162.401 
	L 235.689, 152.376 
	L 233.806, 142.509 
	L 230.702, 132.956 
	L 226.425, 123.866 
	L 221.043, 115.385 
	L 214.640, 107.645 
	L 207.318, 100.769 
	L 199.191, 94.865 
	L 190.388, 90.026 
" />
<path d="M 190.388, 90.026 
	L 181.049, 86.328 
	L 171.319, 83.830 
	L 161.353, 82.570 
	L 151.308, 82.570 
	L 141.343, 83.830 
	L 131.613, 86.328 
	L 122.273, 90.026 
	L 113.471, 94.865 
	L 105.344, 100.769 
	L 98.021, 107.645 
	L 91.619, 115.385 
" />
<path d="M 91.619, 115.385 
	L 86.236, 123.866 
	L 81.960, 132.956 
" />
<path d="M 113.472, 229.937 
	L 113.471, 229.937 
	L 122.273, 234.777 
	L 131.613, 238.475 
	L 141.343, 240.973 
	L 151.308, 242.232 
	L 161.353, 242.232 
	L 171.319, 240.973 
	L 181.049, 238.475 
	L 190.388, 234.777 
	L 199.191, 229.937 
" />
<path d="M 199.191, 229.937 
	L 207.318, 224.033 
	L 214.640, 217.157 
	L 221.043, 209.417 
	L 226.425, 200.936 
	L 230.702, 191.847 
	L 233.806, 182.293 
	L 235.689, 172.427 
	L 236.319, 162.401 
	L 235.689, 152.376 
	L 233.806, 142.509 
" />
<path d="M 233.806, 142.509 
	L 230.702, 132.956 
	L 226.425, 123.866 
	L 221.043, 115.385 
	L 214.640, 107.645 
	L 207.318, 100.769 
	L 199.191, 94.865 
	L 190.388, 90.026 
	L 181.049, 86.328 
	L 171.319, 83.830 
	L 161.353, 82.570 
" />
<path d="M 161.353, 82.570 
	L 151.308, 82.570 
	L 141.343, 83.830 
	L 131.613, 86.328 
	L 122.273, 90.026 
	L 113.471, 94.865 
	L 105.344, 100.769 
	L 98.021, 107.645 
	L 91.619, 115.385 
	L 86.236, 123.866 
	L 81.960, 132.956 
	L 78.856, 142.509 
" />
<path d="M 78.856, 142.509 
	L 76.973, 152.376 
	L 76.342, 162.401 
	L 76.973, 172.427 
	L 78.856, 182.293 
	L 81.960, 191.847 
	L 86.236, 200.936 
	L 91.619, 209.417 
	L 98.021, 217.157 
" />
<path d="M 239.733, 165.731 
	L 239.732, 165.732 
	L 239.116, 155.928 
	L 237.275, 146.277 
	L 234.239, 136.934 
	L 230.056, 128.045 
	L 224.792, 119.750 
	L 218.530, 112.180 
	L 211.369, 105.456 
	L 203.421, 99.681 
	L 194.812, 94.949 
" />
<path d="M 194.812, 94.949 
	L 185.678, 91.332 
	L 176.163, 88.889 
	L 166.416, 87.657 
" />
<path d="M 111.640, 105.455 
	L 111.639, 105.456 
	L 104.478, 112.180 
	L 98.216, 119.750 
	L 92.952, 128.045 
	L 88.769, 136.934 
	L 85.733, 146.277 
	L 83.892, 155.928 
	L 83.276, 165.732 
	L 83.892, 175.536 
	L 85.733, 185.187 
" />
<path d="M 85.733, 185.187 
	L 88.769, 194.530 
	L 92.952, 203.418 
	L 98.216, 211.713 
	L 104.478, 219.283 
	L 111.639, 226.008 
	L 119.587, 231.783 
	L 128.196, 236.515 
	L 137.330, 240.132 
	L 146.845, 242.575 
	L 156.592, 243.807 
" />
<path d="M 156.592, 243.807 
	L 166.416, 243.807 
	L 176.163, 242.575 
	L 185.678, 240.132 
	L 194.812, 236.515 
	L 203.421, 231.783 
	L 211.369, 226.008 
	L 218.530, 219.283 
	L 224.792, 211.713 
	L 230.056, 203.418 
	L 234.239, 194.530 
" />
<path d="M 234.239, 194.530 
	L 237.275, 185.187 
	L 239.116, 175.536 
	L 239.732, 165.732 
	L 239.116, 155.928 
	L 237.275, 146.277 
	L 234.239, 136.934 
	L 230.056, 128.045 
	L 224.792, 119.750 
	L 218.530, 112.180 
	L 211.369, 105.456 
" />
<path d="M 211.369, 105.456 
	L 203.421, 99.681 
	L 194.812, 94.949 
	L 185.678, 91.332 
	L 176.163, 88.889 
	L 166.416, 87.657 
	L 156.592, 87.657 
	L 146.845, 88.889 
	L 137.330, 91.332 
	L 128.196, 94.949 
	L 119.587, 99.681 
	L 111.639, 105.456 
" />
<path d="M 111.639, 105.456 
" />
<path d="M 237.871, 161.692 
	L 237.870, 161.692 
	L 237.266, 152.104 
	L 235.466, 142.666 
	L 232.497, 133.528 
	L 228.407, 124.834 
	L 223.258, 116.722 
	L 217.134, 109.320 
	L 210.130, 102.742 
	L 202.357, 97.095 
	L 193.937, 92.466 
" />
<path d="M 193.937, 92.466 
	L 185.005, 88.929 
	L 175.698, 86.540 
	L 166.166, 85.336 
	L 156.558, 85.336 
	L 147.026, 86.540 
	L 137.720, 88.929 
	L 128.787, 92.466 
	L 120.368, 97.095 
	L 112.594, 102.742 
	L 105.591, 109.320 
	L 99.466, 116.722 
" />
<path d="M 99.466, 116.722 
	L 94.318, 124.834 
	L 90.227, 133.528 
	L 87.258, 142.666 
	L 85.458, 152.104 
	L 84.854, 161.692 
	L 85.458, 171.281 
	L 87.258, 180.719 
	L 90.227, 189.857 
	L 94.318, 198.551 
	L 99.466, 206.663 
" />
<path d="M 223.259, 206.662 
	L 223.258, 206.663 
	L 228.407, 198.551 
	L 232.497, 189.857 
	L 235.466, 180.719 
	L 237.266, 171.281 
	L 237.870, 161.692 
	L 237.266, 152.104 
	L 235.466, 142.666 
	L 232.497, 133.528 
	L 228.407, 124.834 
" />
<path d="M 228.407, 124.834 
	L 223.258, 116.722 
	L 217.134, 109.320 
	L 210.130, 102.742 
	L 202.357, 97.095 
	L 193.937, 92.466 
	L 185.005, 88.929 
	L 175.698, 86.540 
	L 166.166, 85.336 
	L 156.558, 85.336 
	L 147.026, 86.540 
" />
<path d="M 147.026, 86.540 
	L 137.720, 88.929 
	L 128.787, 92.466 
	L 120.368, 97.095 
	L 112.594, 102.742 
	L 105.591, 109.320 
	L 99.466, 116.722 
	L 94.318, 124.834 
	L 90.227, 133.528 
	L 87.258, 142.666 
	L 85.458, 152.104 
	L 84.854, 161.692 
" />
<path d="M 84.854, 161.692 
	L 85.458, 171.281 
	L 87.258, 180.719 
	L 90.227, 189.857 
	L 94.318, 198.551 
	L 99.466, 206.663 
	L 105.591, 214.065 
	L 112.594, 220.642 
	L 120.368, 226.290 
	L 128.787, 230.919 
	L 137.720, 234.456 
" />
<path d="M 137.720, 234.456 
	L 147.026, 236.845 
	L 156.558, 238.049 
	L 166.166, 238.049 
" />
<path d="M 230.377, 165.802 
	L 230.376, 165.803 
	L 229.786, 156.425 
	L 228.025, 147.195 
	L 225.121, 138.258 
	L 221.120, 129.756 
	L 216.086, 121.822 
	L 210.096, 114.582 
	L 203.246, 108.150 
	L 195.644, 102.626 
	L 187.410, 98.099 
" />
<path d="M 187.410, 98.099 
" />
<path d="M 150.853, 91.125 
	L 150.853, 91.126 
	L 141.530, 92.304 
	L 132.429, 94.640 
	L 123.693, 98.099 
	L 115.458, 102.626 
	L 107.856, 108.150 
	L 101.006, 114.582 
	L 95.017, 121.822 
	L 89.982, 129.756 
	L 85.981, 138.258 
" />
<path d="M 85.981, 138.258 
	L 83.078, 147.195 
	L 81.317, 156.425 
	L 80.726, 165.803 
	L 81.317, 175.180 
	L 83.078, 184.411 
	L 85.981, 193.348 
	L 89.982, 201.850 
	L 95.017, 209.784 
	L 101.006, 217.023 
	L 107.856, 223.456 
	L 115.458, 228.979 
" />
<path d="M 115.458, 228.979 
	L 123.693, 233.506 
	L 132.429, 236.965 
	L 141.530, 239.302 
	L 150.853, 240.479 
	L 160.250, 240.479 
	L 169.572, 239.302 
	L 178.673, 236.965 
	L 187.410, 233.506 
	L 195.644, 228.979 
	L 203.246, 223.456 
" />
<path d="M 203.246, 223.456 
	L 210.096, 217.023 
	L 216.086, 209.784 
	L 221.120, 201.850 
	L 225.121, 193.348 
	L 228.025, 184.411 
	L 229.786, 175.180 
	L 230.376, 165.803 
	L 229.786, 156.425 
	L 228.025, 147.195 
	L 225.121, 138.258 
" />
<path d="M 225.121, 138.258 
	L 221.120, 129.756 
	L 216.086, 121.822 
	L 210.096, 114.582 
	L 203.246, 108.150 
	L 195.644, 102.626 
	L 187.410, 98.099 
	L 178.673, 94.640 
	L 169.572, 92.304 
" />
<path d="M 228.093, 164.881 
	L 228.092, 164.881 
	L 227.515, 155.710 
	L 225.793, 146.683 
	L 222.953, 137.942 
	L 219.040, 129.628 
	L 214.116, 121.869 
	L 208.258, 114.788 
	L 201.559, 108.497 
	L 194.124, 103.095 
	L 186.071, 98.668 
" />
<path d="M 186.071, 98.668 
" />
<path d="M 150.319, 91.847 
	L 150.318, 91.847 
	L 141.201, 92.999 
	L 132.300, 95.285 
	L 123.756, 98.668 
	L 115.702, 103.095 
	L 108.268, 108.497 
	L 101.569, 114.788 
	L 95.711, 121.869 
	L 90.787, 129.628 
	L 86.874, 137.942 
" />
<path d="M 86.874, 137.942 
	L 84.034, 146.683 
	L 82.312, 155.710 
" />
<path d="M 90.787, 200.135 
	L 90.787, 200.135 
	L 95.711, 207.894 
	L 101.569, 214.975 
	L 108.268, 221.266 
	L 115.702, 226.668 
	L 123.756, 231.095 
	L 132.300, 234.478 
	L 141.201, 236.764 
	L 150.318, 237.915 
	L 159.508, 237.915 
" />
<path d="M 159.508, 237.915 
	L 168.626, 236.764 
	L 177.527, 234.478 
	L 186.071, 231.095 
	L 194.124, 226.668 
	L 201.559, 221.266 
	L 208.258, 214.975 
	L 214.116, 207.894 
	L 219.040, 200.135 
	L 222.953, 191.821 
	L 225.793, 183.080 
" />
<path d="M 225.793, 183.080 
	L 227.515, 174.053 
" />
<path d="M 227.546, 161.267 
	L 227.545, 161.267 
	L 226.981, 152.297 
	L 225.296, 143.469 
	L 222.519, 134.921 
	L 218.692, 126.789 
	L 213.876, 119.200 
	L 208.147, 112.275 
	L 201.596, 106.123 
	L 194.325, 100.840 
	L 186.449, 96.510 
" />
<path d="M 186.449, 96.510 
	L 178.092, 93.202 
	L 169.387, 90.967 
	L 160.470, 89.840 
	L 151.483, 89.840 
	L 142.566, 90.967 
	L 133.860, 93.202 
	L 125.504, 96.510 
	L 117.628, 100.840 
	L 110.357, 106.123 
	L 103.805, 112.275 
	L 98.077, 119.200 
" />
<path d="M 98.077, 119.200 
	L 93.261, 126.789 
	L 89.434, 134.921 
	L 86.657, 143.469 
	L 84.972, 152.297 
	L 84.408, 161.267 
	L 84.972, 170.238 
	L 86.657, 179.065 
	L 89.434, 187.613 
	L 93.261, 195.746 
	L 98.077, 203.334 
	L 103.805, 210.259 
" />
<path d="M 103.805, 210.259 
	L 110.357, 216.412 
	L 117.628, 221.695 
	L 125.504, 226.024 
" />
<path d="M 231.002, 161.692 
	L 231.002, 161.692 
	L 230.450, 152.920 
	L 228.803, 144.286 
	L 226.086, 135.926 
	L 222.344, 127.973 
	L 217.634, 120.551 
	L 212.032, 113.778 
	L 205.624, 107.761 
	L 198.512, 102.594 
	L 190.810, 98.360 
" />
<path d="M 190.810, 98.360 
	L 182.637, 95.124 
	L 174.123, 92.938 
	L 165.403, 91.837 
	L 156.613, 91.837 
	L 147.893, 92.938 
	L 139.379, 95.124 
	L 131.206, 98.360 
	L 123.503, 102.594 
	L 116.392, 107.761 
	L 109.984, 113.778 
	L 104.382, 120.551 
" />
<path d="M 104.382, 120.551 
	L 99.672, 127.973 
	L 95.929, 135.926 
	L 93.213, 144.286 
	L 91.566, 152.920 
	L 91.014, 161.692 
	L 91.566, 170.465 
	L 93.213, 179.099 
" />
<path d="M 182.638, 228.260 
	L 182.637, 228.261 
	L 190.810, 225.025 
	L 198.512, 220.791 
	L 205.624, 215.624 
	L 212.032, 209.607 
	L 217.634, 202.834 
	L 222.344, 195.412 
	L 226.086, 187.459 
	L 228.803, 179.099 
	L 230.450, 170.465 
" />
<path d="M 230.450, 170.465 
	L 231.002, 161.692 
	L 230.450, 152.920 
	L 228.803, 144.286 
	L 226.086, 135.926 
	L 222.344, 127.973 
	L 217.634, 120.551 
	L 212.032, 113.778 
	L 205.624, 107.761 
	L 198.512, 102.594 
	L 190.810, 98.360 
" />
<path d="M 190.810, 98.360 
	L 182.637, 95.124 
" />
<path d="M 223.793, 164.526 
	L 223.792, 164.527 
	L 223.253, 155.947 
	L 221.642, 147.503 
	L 218.986, 139.328 
	L 215.325, 131.549 
" />
<path d="M 205.240, 117.666 
	L 205.240, 117.667 
	L 198.973, 111.782 
	L 192.018, 106.729 
	L 184.485, 102.588 
	L 176.492, 99.423 
	L 168.165, 97.286 
	L 159.637, 96.208 
	L 151.041, 96.208 
	L 142.512, 97.286 
	L 134.185, 99.423 
" />
<path d="M 134.185, 99.423 
	L 126.192, 102.588 
	L 118.659, 106.729 
	L 111.704, 111.782 
	L 105.437, 117.667 
	L 99.958, 124.291 
	L 95.352, 131.549 
	L 91.692, 139.328 
	L 89.035, 147.503 
	L 87.424, 155.947 
	L 86.885, 164.527 
" />
<path d="M 86.885, 164.527 
	L 87.424, 173.107 
	L 89.035, 181.551 
	L 91.692, 189.726 
	L 95.352, 197.505 
	L 99.958, 204.764 
" />
<path d="M 192.019, 222.324 
	L 192.018, 222.325 
	L 198.973, 217.272 
	L 205.240, 211.387 
	L 210.719, 204.764 
	L 215.325, 197.505 
	L 218.986, 189.726 
	L 221.642, 181.551 
	L 223.253, 173.107 
	L 223.792, 164.527 
" />
<path d="M 227.673, 161.621 
	L 227.672, 161.622 
	L 227.144, 153.231 
	L 225.569, 144.972 
	L 222.971, 136.976 
	L 219.392, 129.369 
	L 214.887, 122.270 
	L 209.527, 115.792 
	L 203.399, 110.037 
	L 196.597, 105.095 
	L 189.230, 101.045 
" />
<path d="M 189.230, 101.045 
	L 181.412, 97.951 
	L 173.269, 95.859 
	L 164.928, 94.805 
	L 156.521, 94.805 
	L 148.180, 95.859 
	L 140.036, 97.951 
	L 132.219, 101.045 
	L 124.852, 105.095 
	L 118.050, 110.037 
	L 111.922, 115.792 
" />
<path d="M 111.922, 115.792 
	L 106.562, 122.270 
	L 102.057, 129.369 
	L 98.478, 136.976 
	L 95.880, 144.972 
	L 94.304, 153.231 
	L 93.776, 161.622 
	L 94.304, 170.012 
	L 95.880, 178.271 
	L 98.478, 186.267 
	L 102.057, 193.874 
" />
<path d="M 102.057, 193.874 
	L 106.562, 200.973 
" />
<path d="M 214.887, 200.972 
	L 214.887, 200.973 
	L 219.392, 193.874 
	L 222.971, 186.267 
	L 225.569, 178.271 
	L 227.144, 170.012 
	L 227.672, 161.622 
	L 227.144, 153.231 
	L 225.569, 144.972 
	L 222.971, 136.976 
	L 219.392, 129.369 
" />
<path d="M 219.392, 129.369 
	L 214.887, 122.270 
	L 209.527, 115.792 
	L 203.399, 110.037 
	L 196.597, 105.095 
	L 189.230, 101.045 
	L 181.412, 97.951 
	L 173.269, 95.859 
	L 164.928, 94.805 
	L 156.521, 94.805 
	L 148.180, 95.859 
" />
<path d="M 148.180, 95.859 
	L 140.036, 97.951 
	L 132.219, 101.045 
	L 124.852, 105.095 
	L 118.050, 110.037 
	L 111.922, 115.792 
	L 106.562, 122.270 
	L 102.057, 129.369 
	L 98.478, 136.976 
	L 95.880, 144.972 
	L 94.304, 153.231 
" />
<path d="M 94.304, 153.231 
" />
<path d="M 224.712, 161.904 
	L 224.712, 161.905 
	L 224.195, 153.699 
	L 222.654, 145.622 
	L 220.114, 137.802 
	L 216.612, 130.362 
	L 212.207, 123.420 
	L 206.965, 117.084 
	L 200.971, 111.455 
	L 194.320, 106.622 
	L 187.114, 102.662 
" />
<path d="M 187.114, 102.662 
	L 179.469, 99.634 
	L 171.505, 97.590 
	L 163.347, 96.559 
	L 155.125, 96.559 
	L 146.967, 97.590 
	L 139.003, 99.634 
	L 131.358, 102.662 
	L 124.153, 106.622 
	L 117.501, 111.455 
	L 111.507, 117.084 
" />
<path d="M 111.507, 117.084 
	L 106.266, 123.420 
" />
<path d="M 106.267, 200.390 
	L 106.266, 200.390 
	L 111.507, 206.726 
	L 117.501, 212.355 
" />
<path d="M 124.153, 217.187 
	L 124.153, 217.188 
	L 131.358, 221.148 
	L 139.003, 224.176 
	L 146.967, 226.220 
	L 155.125, 227.251 
	L 163.347, 227.251 
" />
<path d="M 179.470, 224.175 
	L 179.469, 224.176 
	L 187.114, 221.148 
	L 194.320, 217.188 
	L 200.971, 212.355 
	L 206.965, 206.726 
	L 212.207, 200.390 
	L 216.612, 193.448 
	L 220.114, 186.008 
	L 222.654, 178.188 
	L 224.195, 170.111 
" />
<path d="M 224.195, 170.111 
	L 224.712, 161.905 
	L 224.195, 153.699 
	L 222.654, 145.622 
	L 220.114, 137.802 
	L 216.612, 130.362 
	L 212.207, 123.420 
	L 206.965, 117.084 
	L 200.971, 111.455 
	L 194.320, 106.622 
	L 187.114, 102.662 
" />
<path d="M 187.114, 102.662 
	L 179.469, 99.634 
" />
<path d="M 223.413, 161.833 
	L 223.413, 161.834 
	L 222.908, 153.809 
	L 221.401, 145.909 
	L 218.916, 138.261 
	L 215.492, 130.985 
	L 211.183, 124.196 
	L 206.058, 117.999 
	L 200.195, 112.494 
	L 193.689, 107.768 
	L 186.642, 103.894 
" />
<path d="M 186.642, 103.894 
	L 179.166, 100.933 
	L 171.377, 98.933 
	L 163.399, 97.926 
	L 155.357, 97.926 
" />
<path d="M 112.699, 117.999 
	L 112.698, 117.999 
	L 107.573, 124.196 
	L 103.264, 130.985 
	L 99.840, 138.261 
	L 97.355, 145.909 
	L 95.848, 153.809 
	L 95.343, 161.834 
	L 95.848, 169.860 
	L 97.355, 177.759 
	L 99.840, 185.407 
" />
<path d="M 99.840, 185.407 
	L 103.264, 192.683 
	L 107.573, 199.473 
	L 112.698, 205.669 
	L 118.560, 211.174 
	L 125.067, 215.901 
	L 132.114, 219.774 
" />
<path d="M 186.643, 219.774 
	L 186.642, 219.774 
	L 193.689, 215.901 
	L 200.195, 211.174 
	L 206.058, 205.669 
	L 211.183, 199.473 
	L 215.492, 192.683 
	L 218.916, 185.407 
	L 221.401, 177.759 
	L 222.908, 169.860 
	L 223.413, 161.834 
" />
<path d="M 223.413, 161.834 
	L 222.908, 153.809 
	L 221.401, 145.909 
	L 218.916, 138.261 
	L 215.492, 130.985 
	L 211.183, 124.196 
	L 206.058, 117.999 
	L 200.195, 112.494 
	L 193.689, 107.768 
	L 186.642, 103.894 
	L 179.166, 100.933 
" />
<path d="M 179.166, 100.933 
	L 171.377, 98.933 
	L 163.399, 97.926 
" />
<path d="M 218.816, 164.739 
	L 218.815, 164.740 
	L 218.321, 156.891 
	L 216.848, 149.165 
	L 214.417, 141.686 
	L 211.068, 134.569 
	L 206.855, 127.929 
	L 201.842, 121.869 
	L 196.109, 116.486 
	L 189.746, 111.863 
	L 182.854, 108.074 
" />
<path d="M 182.854, 108.074 
	L 175.542, 105.179 
	L 167.924, 103.223 
	L 160.121, 102.237 
	L 152.257, 102.237 
	L 144.454, 103.223 
	L 136.836, 105.179 
	L 129.524, 108.074 
	L 122.632, 111.863 
	L 116.269, 116.486 
	L 110.536, 121.869 
" />
<path d="M 110.536, 121.869 
	L 105.523, 127.929 
	L 101.310, 134.569 
	L 97.961, 141.686 
	L 95.530, 149.165 
	L 94.057, 156.891 
	L 93.563, 164.740 
	L 94.057, 172.589 
	L 95.530, 180.314 
	L 97.961, 187.794 
	L 101.310, 194.910 
" />
<path d="M 101.310, 194.910 
	L 105.523, 201.550 
	L 110.536, 207.610 
	L 116.269, 212.994 
	L 122.632, 217.616 
	L 129.524, 221.406 
	L 136.836, 224.301 
	L 144.454, 226.256 
	L 152.257, 227.242 
	L 160.121, 227.242 
	L 167.924, 226.256 
" />
<path d="M 167.924, 226.256 
	L 175.542, 224.301 
	L 182.854, 221.406 
	L 189.746, 217.616 
	L 196.109, 212.994 
	L 201.842, 207.610 
" />
<path d="M 219.210, 162.755 
	L 219.209, 162.755 
	L 218.726, 155.079 
	L 217.285, 147.524 
	L 214.908, 140.209 
	L 211.633, 133.249 
	L 207.512, 126.755 
	L 202.608, 120.828 
	L 197.002, 115.563 
	L 190.779, 111.042 
	L 184.039, 107.337 
" />
<path d="M 184.039, 107.337 
	L 176.888, 104.505 
	L 169.437, 102.592 
	L 161.807, 101.628 
	L 154.115, 101.628 
	L 146.484, 102.592 
	L 139.034, 104.505 
	L 131.883, 107.337 
	L 125.143, 111.042 
	L 118.920, 115.563 
	L 113.313, 120.828 
" />
<path d="M 113.313, 120.828 
	L 108.410, 126.755 
	L 104.289, 133.249 
	L 101.013, 140.209 
	L 98.636, 147.524 
	L 97.195, 155.079 
	L 96.712, 162.755 
	L 97.195, 170.432 
" />
<path d="M 169.438, 222.918 
	L 169.437, 222.919 
	L 176.888, 221.006 
	L 184.039, 218.174 
	L 190.779, 214.469 
	L 197.002, 209.948 
	L 202.608, 204.683 
	L 207.512, 198.756 
	L 211.633, 192.262 
	L 214.908, 185.302 
	L 217.285, 177.987 
" />
<path d="M 217.285, 177.987 
	L 218.726, 170.432 
	L 219.209, 162.755 
	L 218.726, 155.079 
	L 217.285, 147.524 
	L 214.908, 140.209 
	L 211.633, 133.249 
	L 207.512, 126.755 
	L 202.608, 120.828 
	L 197.002, 115.563 
	L 190.779, 111.042 
" />
<path d="M 190.779, 111.042 
	L 184.039, 107.337 
	L 176.888, 104.505 
	L 169.437, 102.592 
	L 161.807, 101.628 
	L 154.115, 101.628 
	L 146.484, 102.592 
	L 139.034, 104.505 
	L 131.883, 107.337 
	L 125.143, 111.042 
	L 118.920, 115.563 
" />
<path d="M 118.920, 115.563 
" />
<path d="M 219.918, 161.550 
	L 219.917, 161.551 
	L 219.444, 154.043 
	L 218.035, 146.654 
	L 215.710, 139.500 
	L 212.507, 132.693 
	L 208.476, 126.342 
	L 203.681, 120.546 
	L 198.198, 115.396 
	L 192.112, 110.975 
	L 185.520, 107.351 
" />
<path d="M 185.520, 107.351 
	L 178.526, 104.581 
	L 171.240, 102.711 
	L 163.777, 101.768 
	L 156.255, 101.768 
	L 148.791, 102.711 
	L 141.506, 104.581 
	L 134.511, 107.351 
	L 127.919, 110.975 
	L 121.834, 115.396 
	L 116.350, 120.546 
" />
<path d="M 116.350, 120.546 
	L 111.555, 126.342 
	L 107.525, 132.693 
	L 104.321, 139.500 
	L 101.997, 146.654 
	L 100.587, 154.043 
	L 100.115, 161.551 
	L 100.587, 169.058 
	L 101.997, 176.448 
" />
<path d="M 178.527, 218.519 
	L 178.526, 218.520 
	L 185.520, 215.751 
	L 192.112, 212.127 
	L 198.198, 207.705 
	L 203.681, 202.555 
	L 208.476, 196.759 
	L 212.507, 190.408 
	L 215.710, 183.601 
	L 218.035, 176.448 
" />
<path d="M 217.607, 166.511 
	L 217.607, 166.511 
	L 217.145, 159.169 
	L 215.766, 151.943 
	L 213.493, 144.945 
	L 210.360, 138.289 
	L 206.418, 132.078 
	L 201.729, 126.409 
	L 196.366, 121.372 
	L 190.414, 117.048 
	L 183.967, 113.504 
" />
<path d="M 183.967, 113.504 
	L 177.127, 110.796 
	L 170.001, 108.966 
	L 162.702, 108.044 
	L 155.345, 108.044 
	L 148.046, 108.966 
	L 140.920, 110.796 
	L 134.080, 113.504 
" />
<path d="M 100.903, 159.168 
	L 100.903, 159.169 
" />
<path d="M 100.903, 159.168 
	L 100.903, 159.169 
	L 100.441, 166.511 
	L 100.903, 173.854 
	L 102.281, 181.080 
	L 104.555, 188.077 
	L 107.687, 194.734 
	L 111.629, 200.945 
	L 116.318, 206.614 
	L 121.681, 211.650 
	L 127.633, 215.975 
" />
<path d="M 127.633, 215.975 
" />
<path d="M 155.346, 224.978 
	L 155.345, 224.979 
	L 162.702, 224.979 
	L 170.001, 224.057 
	L 177.127, 222.227 
	L 183.967, 219.519 
	L 190.414, 215.975 
	L 196.366, 211.650 
	L 201.729, 206.614 
	L 206.418, 200.945 
	L 210.360, 194.734 
" />
<path d="M 210.360, 194.734 
	L 213.493, 188.077 
	L 215.766, 181.080 
	L 217.145, 173.854 
	L 217.607, 166.511 
	L 217.145, 159.169 
	L 215.766, 151.943 
" />
<path d="M 215.751, 162.117 
	L 215.751, 162.118 
	L 215.299, 154.937 
	L 213.951, 147.869 
	L 211.728, 141.026 
	L 208.664, 134.516 
	L 204.809, 128.441 
	L 200.222, 122.897 
	L 194.978, 117.972 
	L 189.157, 113.742 
	L 182.852, 110.276 
" />
<path d="M 182.852, 110.276 
	L 176.162, 107.628 
	L 169.192, 105.839 
" />
<path d="M 134.062, 110.276 
	L 134.062, 110.276 
	L 127.757, 113.742 
	L 121.936, 117.972 
	L 116.691, 122.897 
	L 112.105, 128.441 
	L 108.249, 134.516 
	L 105.186, 141.026 
	L 102.963, 147.869 
	L 101.614, 154.937 
	L 101.163, 162.118 
" />
<path d="M 101.163, 162.118 
	L 101.614, 169.299 
	L 102.963, 176.366 
	L 105.186, 183.209 
	L 108.249, 189.719 
	L 112.105, 195.794 
	L 116.691, 201.339 
	L 121.936, 206.264 
	L 127.757, 210.493 
	L 134.062, 213.959 
	L 140.752, 216.607 
" />
<path d="M 140.752, 216.607 
	L 147.721, 218.397 
	L 154.859, 219.299 
	L 162.055, 219.299 
	L 169.192, 218.397 
" />
<path d="M 211.515, 167.007 
	L 211.514, 167.007 
	L 211.072, 159.985 
	L 209.754, 153.072 
	L 207.579, 146.380 
	L 204.583, 140.013 
	L 200.813, 134.072 
	L 196.327, 128.650 
	L 191.198, 123.833 
	L 185.505, 119.696 
	L 179.338, 116.307 
" />
<path d="M 179.338, 116.307 
	L 172.796, 113.716 
	L 165.980, 111.966 
	L 158.999, 111.084 
	L 151.962, 111.084 
	L 144.981, 111.966 
	L 138.165, 113.716 
	L 131.623, 116.307 
	L 125.456, 119.696 
	L 119.763, 123.833 
	L 114.634, 128.650 
" />
<path d="M 114.634, 128.650 
	L 110.148, 134.072 
	L 106.378, 140.013 
	L 103.382, 146.380 
	L 101.207, 153.072 
	L 99.889, 159.985 
	L 99.446, 167.007 
	L 99.889, 174.030 
	L 101.207, 180.943 
	L 103.382, 187.634 
	L 106.378, 194.002 
" />
<path d="M 106.378, 194.002 
	L 110.148, 199.943 
	L 114.634, 205.365 
	L 119.763, 210.182 
	L 125.456, 214.318 
	L 131.623, 217.708 
	L 138.165, 220.299 
	L 144.981, 222.048 
	L 151.962, 222.931 
	L 158.999, 222.931 
	L 165.980, 222.048 
" />
<path d="M 165.980, 222.048 
	L 172.796, 220.299 
	L 179.338, 217.708 
	L 185.505, 214.318 
	L 191.198, 210.182 
	L 196.327, 205.365 
	L 200.813, 199.943 
	L 204.583, 194.002 
	L 207.579, 187.634 
	L 209.754, 180.943 
" />
<path d="M 217.014, 167.503 
	L 217.013, 167.504 
	L 216.581, 160.635 
	L 215.292, 153.875 
	L 213.165, 147.330 
	L 210.235, 141.103 
	L 206.547, 135.292 
	L 202.161, 129.990 
	L 197.144, 125.279 
	L 191.577, 121.234 
	L 185.546, 117.918 
" />
<path d="M 185.546, 117.918 
	L 179.147, 115.385 
	L 172.481, 113.674 
	L 165.654, 112.810 
	L 158.771, 112.810 
	L 151.944, 113.674 
	L 145.278, 115.385 
	L 138.879, 117.918 
	L 132.849, 121.234 
	L 127.281, 125.279 
	L 122.265, 129.990 
" />
<path d="M 122.265, 129.990 
	L 117.878, 135.292 
	L 114.190, 141.103 
	L 111.260, 147.330 
	L 109.133, 153.875 
	L 107.844, 160.635 
	L 107.412, 167.504 
	L 107.844, 174.372 
	L 109.133, 181.132 
	L 111.260, 187.677 
	L 114.190, 193.904 
" />
<path d="M 114.190, 193.904 
	L 117.878, 199.715 
	L 122.265, 205.017 
	L 127.281, 209.728 
	L 132.849, 213.773 
	L 138.879, 217.089 
	L 145.278, 219.622 
	L 151.944, 221.333 
	L 158.771, 222.197 
	L 165.654, 222.197 
	L 172.481, 221.333 
" />
<path d="M 172.481, 221.333 
	L 179.147, 219.622 
	L 185.546, 217.089 
	L 191.577, 213.773 
	L 197.144, 209.728 
	L 202.161, 205.017 
	L 206.547, 199.715 
	L 210.235, 193.904 
	L 213.165, 187.677 
	L 215.292, 181.132 
	L 216.581, 174.372 
" />
<path d="M 216.581, 174.372 
" />
<path d="M 211.557, 164.101 
	L 211.556, 164.102 
	L 211.134, 157.385 
	L 209.872, 150.773 
	L 207.792, 144.372 
	L 204.926, 138.283 
	L 201.320, 132.599 
	L 197.030, 127.413 
	L 192.124, 122.806 
	L 186.678, 118.850 
	L 180.780, 115.608 
" />
<path d="M 180.780, 115.608 
" />
<path d="M 154.596, 110.611 
	L 154.595, 110.612 
	L 147.918, 111.456 
	L 141.399, 113.130 
	L 135.141, 115.608 
	L 129.243, 118.850 
	L 123.798, 122.806 
	L 118.891, 127.413 
	L 114.601, 132.599 
	L 110.995, 138.283 
	L 108.129, 144.372 
" />
<path d="M 108.129, 144.372 
" />
<path d="M 104.788, 170.819 
	L 104.788, 170.819 
	L 106.049, 177.430 
	L 108.129, 183.832 
	L 110.995, 189.921 
	L 114.601, 195.605 
	L 118.891, 200.791 
	L 123.798, 205.398 
	L 129.243, 209.354 
	L 135.141, 212.596 
	L 141.399, 215.074 
" />
<path d="M 141.399, 215.074 
	L 147.918, 216.748 
	L 154.595, 217.592 
	L 161.326, 217.592 
	L 168.003, 216.748 
	L 174.523, 215.074 
	L 180.780, 212.596 
	L 186.678, 209.354 
	L 192.124, 205.398 
	L 197.030, 200.791 
	L 201.320, 195.605 
" />
<path d="M 201.320, 195.605 
	L 204.926, 189.921 
	L 207.792, 183.832 
" />
<path d="M 1139.103, 312.354 
	L 1139.811, 313.417 
	L 1139.811, 314.480 
	L 1139.103, 315.543 
	L 1137.685, 315.543 
	L 1136.977, 314.480 
	L 1136.977, 313.417 
	L 1137.685, 312.354 
" />
<path d="M 1135.559, 308.102 
	L 1136.268, 308.102 
" />
<path d="M 1136.977, 309.165 
	L 1136.977, 308.102 
	L 1139.811, 308.102 
" />
<path d="M 1139.811, 309.165 
	L 1139.811, 307.039 
" />
<path d="M 1136.977, 303.850 
	L 1139.811, 303.850 
" />
<path d="M 1138.394, 303.850 
	L 1136.977, 301.724 
	L 1136.977, 300.661 
" />
<path d="M 1139.103, 293.220 
	L 1139.811, 294.283 
	L 1139.811, 295.346 
	L 1139.103, 296.409 
	L 1137.685, 296.409 
	L 1136.977, 295.346 
	L 1136.977, 294.283 
	L 1137.685, 293.220 
" />
<path d="M 1139.811, 291.094 
	L 1135.559, 291.094 
" />
<path d="M 1139.811, 287.905 
	L 1138.394, 291.094 
	L 1136.977, 287.905 
" />
<path d="M 1135.559, 283.653 
	L 1135.559, 282.590 
	L 1139.811, 282.590 
" />
<path d="M 1139.811, 283.653 
	L 1139.811, 281.527 
" />
<path d="M 1138.394, 278.338 
	L 1138.394, 275.149 
	L 1137.685, 274.086 
	L 1136.977, 275.149 
	L 1136.977, 277.275 
	L 1137.685, 278.338 
	L 1139.103, 278.338 
	L 1139.811, 277.275 
	L 1139.811, 274.086 
" />
<path d="M 1136.977, 268.771 
	L 1136.977, 270.897 
	L 1137.685, 271.960 
	L 1138.394, 270.897 
	L 1138.394, 269.834 
	L 1139.103, 268.771 
	L 1139.811, 269.834 
	L 1139.811, 271.960 
" />
<path d="M 1139.811, 263.456 
	L 1139.811, 264.519 
	L 1139.103, 264.519 
	L 1139.103, 263.456 
	L 1139.811, 263.456 
" />
<path d="M 1141.229, 259.204 
	L 1136.977, 259.204 
	L 1136.977, 257.078 
	L 1137.685, 256.015 
	L 1139.103, 256.015 
	L 1139.811, 257.078 
	L 1139.811, 259.204 
" />
<path d="M 1141.229, 252.826 
	L 1138.394, 248.574 
	L 1136.977, 248.574 
" />
<path d="M 1136.977, 252.826 
	L 1138.394, 252.826 
	L 1139.811, 250.700 
" />
<path d="M 1136.268, 220.937 
	L 1135.559, 219.874 
	L 1135.559, 217.748 
	L 1136.268, 216.685 
	L 1136.977, 216.685 
	L 1139.103, 220.937 
	L 1139.811, 220.937 
	L 1139.811, 216.685 
" />
<path d="M 1139.103, 214.559 
	L 1139.811, 213.496 
	L 1139.811, 211.370 
	L 1139.103, 210.307 
	L 1136.268, 210.307 
	L 1135.559, 211.370 
	L 1135.559, 213.496 
	L 1136.268, 214.559 
	L 1139.103, 214.559 
" />
<path d="M 1139.811, 207.118 
	L 1139.811, 204.992 
" />
<path d="M 1139.811, 206.055 
	L 1135.559, 206.055 
	L 1136.268, 207.118 
" />
<path d="M 1139.811, 200.740 
	L 1139.811, 199.677 
	L 1138.394, 197.551 
	L 1136.268, 197.551 
	L 1135.559, 198.614 
	L 1135.559, 200.740 
	L 1136.268, 201.803 
	L 1136.977, 201.803 
	L 1137.685, 200.740 
	L 1137.685, 197.551 
" />
<path d="M 1137.685, 195.425 
	L 1137.685, 191.173 
" />
<path d="M 1139.103, 189.047 
	L 1139.811, 187.984 
	L 1139.811, 185.858 
	L 1139.103, 184.795 
	L 1136.268, 184.795 
	L 1135.559, 185.858 
	L 1135.559, 187.984 
	L 1136.268, 189.047 
	L 1139.103, 189.047 
" />
<path d="M 1137.685, 179.480 
	L 1136.977, 178.417 
	L 1136.268, 178.417 
	L 1135.559, 179.480 
	L 1135.559, 181.606 
	L 1136.268, 182.669 
	L 1136.977, 182.669 
	L 1137.685, 181.606 
	L 1137.685, 179.480 
	L 1138.394, 178.417 
	L 1139.103, 178.417 
" />
<path d="M 1139.103, 178.417 
	L 1139.811, 179.480 
	L 1139.811, 181.606 
	L 1139.103, 182.669 
	L 1138.394, 182.669 
	L 1137.685, 181.606 
" />
<path d="M 1137.685, 176.291 
	L 1137.685, 172.039 
" />
<path d="M 1139.103, 169.913 
	L 1139.811, 168.850 
	L 1139.811, 166.724 
	L 1139.103, 165.661 
	L 1136.268, 165.661 
	L 1135.559, 166.724 
	L 1135.559, 168.850 
	L 1136.268, 169.913 
	L 1139.103, 169.913 
" />
<path d="M 1139.811, 162.472 
	L 1139.811, 161.409 
	L 1138.394, 159.283 
	L 1136.268, 159.283 
	L 1135.559, 160.346 
	L 1135.559, 162.472 
	L 1136.268, 163.535 
	L 1136.977, 163.535 
	L 1137.685, 162.472 
	L 1137.685, 159.283 
" />
<path d="M 1136.268, 150.779 
	L 1135.559, 149.716 
	L 1135.559, 147.590 
	L 1136.268, 146.527 
	L 1136.977, 146.527 
	L 1139.103, 150.779 
	L 1139.811, 150.779 
	L 1139.811, 146.527 
" />
<path d="M 1139.103, 144.401 
	L 1139.811, 143.338 
	L 1139.811, 141.212 
	L 1139.103, 140.149 
	L 1136.268, 140.149 
	L 1135.559, 141.212 
	L 1135.559, 143.338 
	L 1136.268, 144.401 
	L 1139.103, 144.401 
" />
<path d="M 1137.685, 136.960 
	L 1136.977, 136.960 
	L 1136.977, 135.897 
	L 1137.685, 135.897 
	L 1137.685, 136.960 
" />
<path d="M 1139.103, 136.960 
	L 1139.103, 135.897 
	L 1139.811, 135.897 
	L 1139.811, 136.960 
	L 1139.103, 136.960 
" />
<path d="M 1136.268, 131.645 
	L 1135.559, 130.582 
	L 1135.559, 128.456 
	L 1136.268, 127.393 
	L 1136.977, 127.393 
	L 1139.103, 131.645 
	L 1139.811, 131.645 
	L 1139.811, 127.393 
" />
<path d="M 1135.559, 125.267 
	L 1135.559, 121.015 
	L 1136.268, 121.015 
	L 1138.394, 125.267 
	L 1139.811, 125.267 
" />
<path d="M 57.119, 309.519 
	L 57.118, 309.519 
	L 55.276, 309.519 
	L 55.276, 282.165 
	L 55.276, 261.543 
	L 42.236, 261.543 
	L 38.976, 261.543 
	L 35.787, 262.854 
	L 32.598, 264.165 
	L 29.941, 266.433 
	L 27.283, 268.700 
	L 25.299, 271.783 
" />
<path d="M 25.299, 271.783 
	L 23.315, 274.866 
	L 22.394, 278.480 
	L 22.394, 309.519 
	L 20.551, 309.519 
	L 20.551, 241.488 
	L 22.394, 241.488 
	L 22.394, 273.094 
	L 23.811, 270.047 
	L 25.937, 267.531 
	L 28.063, 265.015 
	L 30.650, 263.279 
" />
<path d="M 30.650, 263.279 
	L 33.236, 261.543 
	L 36.213, 260.586 
	L 39.189, 259.629 
	L 42.165, 259.629 
	L 49.535, 259.629 
	L 53.327, 265.299 
	L 57.118, 270.968 
	L 57.118, 282.165 
	L 57.118, 309.519 
" />
<path d="M 68.316, 309.519 
	L 68.315, 309.519 
	L 65.126, 309.519 
	L 62.327, 308.279 
	L 59.528, 307.039 
	L 57.472, 304.913 
	L 55.417, 302.787 
	L 54.248, 299.917 
	L 53.079, 297.047 
	L 53.079, 293.787 
	L 53.079, 290.527 
	L 54.461, 287.834 
" />
<path d="M 54.461, 287.834 
	L 55.843, 285.141 
	L 58.429, 283.228 
	L 61.016, 281.315 
	L 64.594, 280.216 
	L 68.173, 279.118 
	L 72.496, 279.118 
	L 76.535, 279.118 
	L 80.717, 279.862 
	L 84.898, 280.606 
	L 88.228, 282.023 
	L 88.228, 276.992 
" />
<path d="M 88.228, 276.992 
	L 88.228, 273.519 
	L 87.165, 270.649 
	L 86.102, 267.779 
	L 84.047, 265.759 
	L 81.992, 263.740 
	L 79.122, 262.641 
	L 76.252, 261.543 
	L 72.850, 261.543 
	L 69.378, 261.543 
	L 65.480, 262.960 
	L 61.583, 264.378 
" />
<path d="M 61.583, 264.378 
	L 57.614, 267.000 
	L 56.480, 265.653 
	L 65.551, 259.629 
	L 72.850, 259.629 
	L 76.748, 259.629 
	L 79.972, 260.941 
	L 83.197, 262.252 
	L 85.394, 264.732 
	L 87.591, 267.212 
	L 88.831, 270.720 
	L 90.071, 274.228 
" />
<path d="M 90.071, 274.228 
	L 90.071, 278.551 
	L 90.071, 305.692 
	L 90.071, 307.606 
	L 91.488, 307.606 
	L 91.488, 309.519 
	L 90.496, 309.519 
	L 90.213, 309.307 
	L 89.362, 308.881 
	L 88.795, 307.854 
	L 88.228, 306.826 
	L 88.228, 305.480 
" />
<path d="M 88.228, 305.480 
	L 88.228, 300.661 
	L 84.969, 304.913 
	L 79.724, 307.216 
	L 74.480, 309.519 
	L 68.315, 309.519 
	L 68.315, 307.677 
	L 74.339, 307.677 
	L 79.406, 305.196 
	L 84.472, 302.716 
	L 86.882, 298.535 
	L 88.228, 296.480 
" />
<path d="M 88.228, 296.480 
	L 88.228, 294.496 
	L 88.228, 284.291 
	L 81.000, 280.960 
	L 72.496, 280.960 
	L 68.457, 280.960 
	L 65.232, 281.846 
	L 62.008, 282.732 
	L 59.705, 284.433 
	L 57.402, 286.133 
	L 56.126, 288.507 
	L 54.850, 290.881 
" />
<path d="M 54.850, 290.881 
	L 54.850, 293.787 
	L 54.850, 296.692 
	L 55.913, 299.244 
	L 56.976, 301.795 
	L 58.783, 303.673 
	L 60.591, 305.551 
	L 63.035, 306.614 
	L 65.480, 307.677 
	L 68.315, 307.677 
" />
<path d="M 116.576, 309.519 
	L 116.575, 309.519 
	L 113.386, 309.519 
	L 110.587, 308.563 
	L 107.787, 307.606 
	L 105.343, 306.011 
	L 102.898, 304.417 
	L 100.913, 302.255 
	L 98.929, 300.094 
	L 97.370, 297.755 
	L 97.370, 327.661 
" />
<path d="M 97.370, 327.661 
	L 95.528, 327.661 
	L 95.528, 259.629 
	L 97.370, 259.629 
	L 97.370, 271.110 
	L 98.787, 268.559 
	L 100.878, 266.468 
	L 102.969, 264.378 
	L 105.378, 262.818 
	L 107.787, 261.259 
	L 110.409, 260.444 
" />
<path d="M 110.409, 260.444 
	L 113.032, 259.629 
	L 115.795, 259.629 
	L 120.756, 259.629 
	L 124.937, 261.826 
	L 129.118, 264.023 
	L 132.095, 267.531 
	L 135.071, 271.039 
	L 136.772, 275.504 
	L 138.472, 279.968 
	L 138.472, 284.645 
" />
<path d="M 138.472, 284.645 
	L 138.472, 289.535 
	L 136.878, 294.035 
	L 135.283, 298.535 
	L 132.413, 301.972 
	L 129.543, 305.409 
	L 125.504, 307.464 
	L 121.465, 309.519 
	L 116.575, 309.519 
	L 116.575, 307.677 
	L 121.181, 307.677 
" />
<path d="M 121.181, 307.677 
	L 124.866, 305.692 
	L 128.551, 303.708 
	L 131.173, 300.448 
	L 133.795, 297.189 
	L 135.213, 293.043 
	L 136.630, 288.897 
	L 136.630, 284.645 
	L 136.630, 280.110 
	L 135.000, 275.929 
	L 133.370, 271.748 
" />
<path d="M 133.370, 271.748 
	L 130.571, 268.559 
	L 127.772, 265.370 
	L 123.945, 263.456 
	L 120.118, 261.543 
	L 115.795, 261.543 
	L 113.032, 261.543 
	L 109.878, 262.748 
	L 106.724, 263.952 
	L 103.996, 266.007 
	L 101.268, 268.063 
" />
<path d="M 101.268, 268.063 
	L 99.390, 270.791 
	L 97.512, 273.519 
	L 97.370, 276.425 
	L 97.370, 293.858 
	L 98.646, 296.763 
	L 100.630, 299.279 
	L 102.614, 301.795 
	L 105.095, 303.637 
	L 107.575, 305.480 
	L 110.480, 306.578 
" />
<path d="M 110.480, 306.578 
	L 113.386, 307.677 
	L 116.575, 307.677 
" />
<path d="M 159.520, 309.519 
	L 159.520, 309.519 
	L 156.331, 309.519 
	L 153.532, 308.563 
	L 150.732, 307.606 
	L 148.287, 306.011 
	L 145.843, 304.417 
	L 143.858, 302.255 
	L 141.874, 300.094 
	L 140.315, 297.755 
	L 140.315, 327.661 
" />
<path d="M 140.315, 327.661 
	L 138.472, 327.661 
	L 138.472, 259.629 
	L 140.315, 259.629 
	L 140.315, 271.110 
	L 141.732, 268.559 
	L 143.823, 266.468 
	L 145.913, 264.378 
	L 148.323, 262.818 
	L 150.732, 261.259 
	L 153.354, 260.444 
" />
<path d="M 153.354, 260.444 
	L 155.976, 259.629 
	L 158.740, 259.629 
	L 163.701, 259.629 
	L 167.882, 261.826 
	L 172.063, 264.023 
	L 175.039, 267.531 
	L 178.016, 271.039 
	L 179.717, 275.504 
	L 181.417, 279.968 
	L 181.417, 284.645 
" />
<path d="M 181.417, 284.645 
	L 181.417, 289.535 
	L 179.823, 294.035 
	L 178.228, 298.535 
	L 175.358, 301.972 
	L 172.488, 305.409 
	L 168.449, 307.464 
	L 164.409, 309.519 
	L 159.520, 309.519 
	L 159.520, 307.677 
	L 164.126, 307.677 
" />
<path d="M 164.126, 307.677 
	L 167.811, 305.692 
	L 171.496, 303.708 
	L 174.118, 300.448 
	L 176.740, 297.189 
	L 178.158, 293.043 
	L 179.575, 288.897 
	L 179.575, 284.645 
	L 179.575, 280.110 
	L 177.945, 275.929 
	L 176.315, 271.748 
" />
<path d="M 176.315, 271.748 
	L 173.516, 268.559 
	L 170.717, 265.370 
	L 166.890, 263.456 
	L 163.063, 261.543 
	L 158.740, 261.543 
	L 155.976, 261.543 
	L 152.823, 262.748 
	L 149.669, 263.952 
	L 146.941, 266.007 
	L 144.213, 268.063 
" />
<path d="M 144.213, 268.063 
	L 142.335, 270.791 
	L 140.457, 273.519 
	L 140.315, 276.425 
	L 140.315, 293.858 
	L 141.591, 296.763 
	L 143.575, 299.279 
	L 145.559, 301.795 
	L 148.039, 303.637 
	L 150.520, 305.480 
	L 153.425, 306.578 
" />
<path d="M 153.425, 306.578 
	L 156.331, 307.677 
	L 159.520, 307.677 
" />
<path d="M 185.599, 325.818 
	L 185.598, 325.818 
	L 187.158, 325.818 
	L 188.327, 325.570 
	L 189.496, 325.322 
	L 189.850, 324.826 
	L 189.992, 324.614 
	L 190.382, 323.905 
	L 190.772, 323.196 
	L 191.622, 321.283 
	L 192.472, 319.370 
" />
<path d="M 192.472, 319.370 
	L 193.925, 315.968 
	L 195.378, 312.567 
	L 197.787, 307.181 
	L 175.890, 259.629 
	L 177.874, 259.629 
	L 198.638, 304.913 
	L 218.339, 259.629 
	L 220.323, 259.629 
	L 192.331, 324.259 
	L 191.197, 326.811 
" />
<path d="M 191.197, 326.811 
	L 189.354, 327.236 
	L 187.512, 327.661 
	L 185.598, 327.661 
	L 185.598, 325.818 
" />
<path d="M 220.394, 309.519 
	L 220.394, 309.519 
	L 220.394, 307.606 
	L 256.039, 307.606 
	L 256.039, 309.519 
	L 220.394, 309.519 
" />
<path d="M 309.048, 292.015 
	L 309.047, 292.015 
	L 309.047, 295.559 
	L 307.772, 298.677 
	L 306.496, 301.795 
	L 304.335, 304.240 
	L 302.173, 306.685 
	L 299.197, 308.102 
	L 296.221, 309.519 
	L 292.961, 309.519 
	L 263.126, 309.519 
" />
<path d="M 263.126, 309.519 
	L 263.126, 241.488 
	L 291.614, 241.488 
	L 295.016, 241.488 
	L 297.709, 243.047 
	L 300.402, 244.606 
	L 302.315, 247.051 
	L 304.228, 249.496 
	L 305.291, 252.614 
	L 306.354, 255.732 
	L 306.354, 258.921 
" />
<path d="M 306.354, 258.921 
	L 306.354, 264.165 
	L 303.839, 268.488 
	L 301.323, 272.811 
	L 297.071, 274.866 
	L 299.764, 275.716 
	L 301.996, 277.417 
	L 304.228, 279.118 
	L 305.823, 281.421 
	L 307.417, 283.724 
	L 308.232, 286.452 
" />
<path d="M 308.232, 286.452 
	L 309.047, 289.181 
	L 309.047, 292.015 
	L 307.205, 292.015 
	L 307.205, 288.968 
	L 306.177, 286.169 
	L 305.150, 283.370 
	L 303.343, 281.173 
	L 301.535, 278.976 
	L 299.020, 277.700 
	L 296.504, 276.425 
" />
<path d="M 296.504, 276.425 
	L 293.598, 276.425 
	L 264.969, 276.425 
	L 264.969, 307.606 
	L 292.961, 307.606 
	L 296.008, 307.606 
	L 298.595, 306.259 
	L 301.181, 304.913 
	L 303.130, 302.752 
	L 305.079, 300.590 
	L 306.142, 297.791 
" />
<path d="M 306.142, 297.791 
	L 307.205, 294.992 
	L 307.205, 292.015 
	L 264.969, 243.472 
	L 264.969, 274.511 
	L 291.118, 274.511 
	L 294.095, 274.511 
	L 296.539, 273.165 
	L 298.984, 271.818 
	L 300.756, 269.586 
	L 302.528, 267.354 
" />
<path d="M 302.528, 267.354 
	L 303.520, 264.626 
	L 304.512, 261.897 
	L 304.512, 258.992 
	L 304.512, 255.874 
	L 303.555, 253.110 
	L 302.598, 250.346 
	L 300.933, 248.149 
	L 299.268, 245.952 
	L 296.858, 244.712 
	L 294.449, 243.472 
" />
<path d="M 294.449, 243.472 
	L 291.614, 243.472 
	L 264.969, 243.472 
" />
<path d="M 326.835, 309.519 
	L 326.835, 309.519 
	L 321.945, 309.519 
	L 317.764, 307.393 
	L 313.583, 305.267 
	L 310.571, 301.724 
	L 307.559, 298.181 
	L 305.858, 293.716 
	L 304.158, 289.252 
	L 304.158, 284.645 
	L 304.158, 279.614 
" />
<path d="M 304.158, 279.614 
	L 305.787, 275.114 
	L 307.417, 270.614 
	L 310.358, 267.177 
	L 313.299, 263.740 
	L 317.303, 261.685 
	L 321.307, 259.629 
	L 326.055, 259.629 
	L 329.315, 259.629 
	L 332.150, 260.622 
	L 334.984, 261.614 
" />
<path d="M 334.984, 261.614 
	L 337.429, 263.315 
	L 339.874, 265.015 
	L 341.858, 267.248 
	L 343.843, 269.480 
	L 345.260, 271.960 
	L 345.260, 241.488 
	L 347.102, 241.488 
	L 347.102, 305.763 
	L 347.102, 307.606 
	L 348.520, 307.606 
" />
<path d="M 348.520, 307.606 
	L 348.520, 309.519 
	L 347.740, 309.519 
	L 347.315, 309.307 
	L 346.323, 308.881 
	L 345.791, 307.889 
	L 345.260, 306.897 
	L 345.260, 305.763 
	L 345.260, 299.385 
	L 343.701, 301.653 
	L 341.681, 303.496 
" />
<path d="M 341.681, 303.496 
	L 339.661, 305.338 
	L 337.252, 306.685 
	L 334.843, 308.031 
	L 332.221, 308.775 
	L 329.598, 309.519 
	L 326.835, 309.519 
	L 326.835, 307.677 
	L 329.598, 307.677 
	L 332.752, 306.472 
	L 335.906, 305.267 
" />
<path d="M 335.906, 305.267 
	L 338.634, 303.283 
	L 341.362, 301.299 
	L 343.205, 298.641 
	L 345.047, 295.984 
	L 345.260, 293.078 
	L 345.260, 275.858 
	L 344.268, 272.952 
	L 342.177, 270.330 
	L 340.087, 267.708 
	L 337.465, 265.759 
" />
<path d="M 337.465, 265.759 
	L 334.843, 263.811 
	L 331.831, 262.677 
	L 328.819, 261.543 
	L 326.055, 261.543 
	L 321.378, 261.543 
	L 317.728, 263.527 
	L 314.079, 265.511 
	L 311.421, 268.771 
	L 308.764, 272.031 
	L 307.382, 276.212 
" />
<path d="M 307.382, 276.212 
	L 306.000, 280.393 
	L 306.000, 284.645 
	L 306.000, 289.181 
	L 307.630, 293.326 
	L 309.260, 297.472 
	L 312.059, 300.661 
	L 314.858, 303.850 
	L 318.685, 305.763 
	L 322.512, 307.677 
	L 326.835, 307.677 
" />
<path d="M 326.835, 307.677 
" />
<path d="M 362.977, 309.519 
	L 362.976, 309.519 
	L 359.787, 309.519 
	L 356.988, 308.279 
	L 354.189, 307.039 
	L 352.134, 304.913 
	L 350.079, 302.787 
	L 348.910, 299.917 
	L 347.740, 297.047 
	L 347.740, 293.787 
	L 347.740, 290.527 
" />
<path d="M 347.740, 290.527 
	L 349.122, 287.834 
	L 350.504, 285.141 
	L 353.091, 283.228 
	L 355.677, 281.315 
	L 359.256, 280.216 
	L 362.835, 279.118 
	L 367.158, 279.118 
	L 371.197, 279.118 
	L 375.378, 279.862 
	L 379.559, 280.606 
" />
<path d="M 379.559, 280.606 
	L 382.890, 282.023 
	L 382.890, 276.992 
	L 382.890, 273.519 
	L 381.827, 270.649 
	L 380.764, 267.779 
	L 378.709, 265.759 
	L 376.654, 263.740 
	L 373.784, 262.641 
	L 370.913, 261.543 
	L 367.512, 261.543 
" />
<path d="M 367.512, 261.543 
	L 364.039, 261.543 
	L 360.142, 262.960 
	L 356.244, 264.378 
	L 352.276, 267.000 
	L 351.142, 265.653 
	L 360.213, 259.629 
	L 367.512, 259.629 
	L 371.410, 259.629 
	L 374.634, 260.941 
	L 377.858, 262.252 
" />
<path d="M 377.858, 262.252 
	L 380.055, 264.732 
	L 382.252, 267.212 
	L 383.492, 270.720 
	L 384.732, 274.228 
	L 384.732, 278.551 
	L 384.732, 305.692 
	L 384.732, 307.606 
	L 386.150, 307.606 
	L 386.150, 309.519 
	L 385.158, 309.519 
" />
<path d="M 385.158, 309.519 
	L 384.874, 309.307 
	L 384.024, 308.881 
	L 383.457, 307.854 
	L 382.890, 306.826 
	L 382.890, 305.480 
	L 382.890, 300.661 
	L 379.630, 304.913 
	L 374.386, 307.216 
	L 369.142, 309.519 
	L 362.976, 309.519 
" />
<path d="M 362.976, 309.519 
	L 362.976, 307.677 
	L 369.000, 307.677 
	L 374.067, 305.196 
	L 379.134, 302.716 
	L 381.543, 298.535 
	L 382.890, 296.480 
	L 382.890, 294.496 
	L 382.890, 284.291 
	L 375.661, 280.960 
	L 367.158, 280.960 
" />
<path d="M 367.158, 280.960 
	L 363.118, 280.960 
	L 359.894, 281.846 
	L 356.669, 282.732 
	L 354.366, 284.433 
	L 352.063, 286.133 
	L 350.787, 288.507 
	L 349.512, 290.881 
	L 349.512, 293.787 
	L 349.512, 296.692 
	L 350.575, 299.244 
" />
<path d="M 350.575, 299.244 
	L 351.638, 301.795 
	L 353.445, 303.673 
	L 355.252, 305.551 
	L 357.697, 306.614 
	L 360.142, 307.677 
	L 362.976, 307.677 
" />
<path d="M 394.371, 325.818 
	L 394.370, 325.818 
	L 395.929, 325.818 
	L 397.098, 325.570 
	L 398.268, 325.322 
	L 398.622, 324.826 
	L 398.764, 324.614 
	L 399.154, 323.905 
	L 399.543, 323.196 
	L 400.394, 321.283 
	L 401.244, 319.370 
" />
<path d="M 401.244, 319.370 
	L 402.697, 315.968 
	L 404.150, 312.567 
	L 406.559, 307.181 
	L 384.661, 259.629 
	L 386.646, 259.629 
	L 407.410, 304.913 
	L 427.110, 259.629 
	L 429.095, 259.629 
	L 401.102, 324.259 
	L 399.969, 326.811 
" />
<path d="M 399.969, 326.811 
	L 398.126, 327.236 
	L 396.284, 327.661 
	L 394.370, 327.661 
	L 394.370, 325.818 
" />
<path d="M 429.166, 309.519 
	L 429.165, 309.519 
	L 429.165, 307.606 
	L 464.811, 307.606 
	L 464.811, 309.519 
	L 429.165, 309.519 
" />
<path d="M 467.505, 274.936 
	L 467.504, 274.937 
	L 467.504, 268.913 
	L 469.524, 262.960 
	L 471.543, 257.007 
	L 475.406, 252.224 
	L 479.268, 247.441 
	L 484.937, 244.464 
	L 490.606, 241.488 
	L 497.835, 241.488 
	L 506.480, 241.488 
" />
<path d="M 506.480, 241.488 
	L 512.469, 245.811 
	L 518.457, 250.133 
	L 521.362, 256.866 
	L 519.661, 257.433 
	L 517.748, 253.535 
	L 515.232, 250.842 
	L 512.717, 248.149 
	L 509.776, 246.519 
	L 506.835, 244.889 
	L 503.717, 244.145 
" />
<path d="M 503.717, 244.145 
	L 500.599, 243.401 
	L 497.480, 243.401 
	L 490.819, 243.401 
	L 485.539, 246.200 
	L 480.260, 249.000 
	L 476.646, 253.535 
	L 473.032, 258.070 
	L 471.154, 263.775 
	L 469.276, 269.480 
	L 469.276, 275.291 
" />
<path d="M 469.276, 275.291 
	L 469.276, 281.669 
	L 471.508, 287.551 
	L 473.740, 293.433 
	L 477.602, 297.897 
	L 481.465, 302.362 
	L 486.638, 305.019 
	L 491.811, 307.677 
	L 497.764, 307.677 
	L 500.953, 307.677 
	L 504.319, 306.826 
" />
<path d="M 504.319, 306.826 
	L 507.685, 305.976 
	L 510.803, 304.311 
	L 513.921, 302.645 
	L 516.579, 299.952 
	L 519.236, 297.259 
	L 521.150, 293.645 
	L 522.921, 294.141 
	L 521.291, 297.897 
	L 518.457, 300.767 
	L 515.622, 303.637 
" />
<path d="M 515.622, 303.637 
	L 512.185, 305.586 
	L 508.748, 307.535 
	L 504.886, 308.527 
	L 501.024, 309.519 
	L 497.410, 309.519 
	L 490.890, 309.519 
	L 485.362, 306.507 
	L 479.835, 303.496 
	L 475.866, 298.606 
	L 471.898, 293.716 
" />
<path d="M 471.898, 293.716 
	L 469.701, 287.551 
	L 467.504, 281.385 
	L 467.504, 274.937 
" />
<path d="M 544.820, 309.519 
	L 544.819, 309.519 
	L 540.213, 309.519 
	L 536.138, 307.535 
	L 532.063, 305.551 
	L 529.016, 302.149 
	L 525.969, 298.748 
	L 524.197, 294.177 
	L 522.425, 289.606 
	L 522.425, 284.645 
	L 522.425, 279.543 
" />
<path d="M 522.425, 279.543 
	L 524.197, 275.007 
	L 525.969, 270.472 
	L 529.051, 267.035 
	L 532.134, 263.598 
	L 536.209, 261.614 
	L 540.284, 259.629 
	L 544.819, 259.629 
	L 549.354, 259.629 
	L 553.465, 261.614 
	L 557.575, 263.598 
" />
<path d="M 557.575, 263.598 
	L 560.587, 267.035 
	L 563.599, 270.472 
	L 565.406, 275.007 
	L 567.213, 279.543 
	L 567.213, 284.645 
	L 567.213, 289.606 
	L 565.476, 294.177 
	L 563.740, 298.748 
	L 560.693, 302.149 
	L 557.646, 305.551 
" />
<path d="M 557.646, 305.551 
	L 553.571, 307.535 
	L 549.496, 309.519 
	L 544.819, 309.519 
	L 524.268, 284.858 
	L 524.268, 289.464 
	L 525.898, 293.645 
	L 527.528, 297.826 
	L 530.291, 300.944 
	L 533.055, 304.063 
	L 536.776, 305.870 
" />
<path d="M 536.776, 305.870 
	L 540.496, 307.677 
	L 544.748, 307.677 
	L 548.929, 307.677 
	L 552.685, 305.834 
	L 556.441, 303.992 
	L 559.311, 300.838 
	L 562.181, 297.685 
	L 563.811, 293.504 
	L 565.441, 289.322 
	L 565.441, 284.574 
" />
<path d="M 565.441, 284.574 
	L 565.441, 279.897 
	L 563.811, 275.716 
	L 562.181, 271.535 
	L 559.347, 268.381 
	L 556.512, 265.228 
	L 552.756, 263.385 
	L 549.000, 261.543 
	L 544.819, 261.543 
	L 540.638, 261.543 
	L 536.882, 263.385 
" />
<path d="M 536.882, 263.385 
	L 533.126, 265.228 
	L 530.327, 268.452 
	L 527.528, 271.677 
	L 525.898, 275.893 
	L 524.268, 280.110 
	L 524.268, 284.858 
" />
<path d="M 590.599, 261.613 
	L 590.599, 261.614 
	L 583.937, 261.614 
	L 579.083, 266.007 
	L 574.228, 270.401 
	L 572.315, 277.984 
	L 572.315, 309.519 
	L 570.473, 309.519 
	L 570.473, 259.629 
	L 572.315, 259.629 
	L 572.315, 272.527 
" />
<path d="M 572.315, 272.527 
	L 574.724, 267.212 
	L 578.870, 263.775 
	L 583.016, 260.338 
	L 587.622, 259.700 
	L 588.543, 259.629 
	L 589.323, 259.629 
	L 590.102, 259.629 
	L 590.599, 259.629 
	L 590.599, 261.614 
" />
<path d="M 627.166, 309.519 
	L 627.165, 309.519 
	L 625.323, 309.519 
	L 625.323, 282.165 
	L 625.323, 271.393 
	L 622.488, 266.468 
	L 619.654, 261.543 
	L 613.276, 261.543 
	L 609.874, 261.543 
	L 606.543, 262.818 
	L 603.213, 264.094 
" />
<path d="M 603.213, 264.094 
	L 600.413, 266.362 
	L 597.614, 268.630 
	L 595.524, 271.748 
	L 593.433, 274.866 
	L 592.441, 278.480 
	L 592.441, 309.519 
	L 590.599, 309.519 
	L 590.599, 259.629 
	L 592.441, 259.629 
	L 592.441, 273.094 
" />
<path d="M 592.441, 273.094 
	L 593.858, 270.189 
	L 596.126, 267.673 
	L 598.394, 265.157 
	L 601.122, 263.385 
	L 603.850, 261.614 
	L 606.933, 260.622 
	L 610.016, 259.629 
	L 613.205, 259.629 
	L 620.433, 259.629 
	L 623.799, 265.086 
" />
<path d="M 623.799, 265.086 
	L 627.165, 270.543 
	L 627.165, 282.165 
	L 627.165, 309.519 
" />
<path d="M 646.583, 309.519 
	L 646.583, 309.519 
	L 641.976, 309.519 
	L 637.831, 307.535 
	L 633.685, 305.551 
	L 630.602, 302.043 
	L 627.520, 298.535 
	L 625.713, 293.964 
	L 623.906, 289.393 
	L 623.906, 284.149 
	L 623.906, 279.047 
" />
<path d="M 623.906, 279.047 
	L 625.642, 274.582 
	L 627.378, 270.118 
	L 630.425, 266.787 
	L 633.473, 263.456 
	L 637.476, 261.543 
	L 641.480, 259.629 
	L 646.158, 259.629 
	L 650.835, 259.629 
	L 654.980, 261.578 
	L 659.126, 263.527 
" />
<path d="M 659.126, 263.527 
	L 662.173, 266.858 
	L 665.221, 270.189 
	L 667.028, 274.724 
	L 668.835, 279.259 
	L 668.835, 284.504 
	L 668.835, 285.496 
	L 625.748, 285.496 
	L 626.102, 290.173 
	L 627.874, 294.212 
	L 629.646, 298.252 
" />
<path d="M 629.646, 298.252 
	L 632.445, 301.228 
	L 635.244, 304.204 
	L 638.929, 305.941 
	L 642.614, 307.677 
	L 646.654, 307.677 
	L 649.417, 307.677 
	L 652.004, 306.933 
	L 654.591, 306.189 
	L 656.858, 304.842 
	L 659.126, 303.496 
" />
<path d="M 659.126, 303.496 
	L 660.827, 301.618 
	L 662.528, 299.740 
	L 663.591, 297.543 
	L 665.291, 297.968 
	L 664.299, 300.448 
	L 662.421, 302.574 
	L 660.543, 304.700 
	L 658.063, 306.224 
	L 655.583, 307.748 
	L 652.642, 308.633 
" />
<path d="M 652.642, 308.633 
	L 649.701, 309.519 
	L 646.583, 309.519 
	L 666.921, 283.582 
	L 666.638, 278.763 
	L 664.902, 274.724 
	L 663.165, 270.685 
	L 660.402, 267.779 
	L 657.638, 264.874 
	L 654.024, 263.208 
	L 650.410, 261.543 
" />
<path d="M 650.410, 261.543 
	L 646.228, 261.543 
	L 642.047, 261.543 
	L 638.433, 263.208 
	L 634.819, 264.874 
	L 632.055, 267.815 
	L 629.291, 270.755 
	L 627.662, 274.830 
	L 626.032, 278.905 
	L 625.748, 283.582 
	L 666.921, 283.582 
" />
<path d="M 666.921, 283.582 
" />
<path d="M 691.513, 309.519 
	L 691.512, 309.519 
	L 686.906, 309.519 
	L 682.760, 307.535 
	L 678.614, 305.551 
	L 675.532, 302.043 
	L 672.449, 298.535 
	L 670.642, 293.964 
	L 668.835, 289.393 
	L 668.835, 284.149 
	L 668.835, 279.047 
" />
<path d="M 668.835, 279.047 
	L 670.571, 274.582 
	L 672.307, 270.118 
	L 675.354, 266.787 
	L 678.402, 263.456 
	L 682.406, 261.543 
	L 686.410, 259.629 
	L 691.087, 259.629 
	L 695.764, 259.629 
	L 699.910, 261.578 
	L 704.055, 263.527 
" />
<path d="M 704.055, 263.527 
	L 707.102, 266.858 
	L 710.150, 270.189 
	L 711.957, 274.724 
	L 713.764, 279.259 
	L 713.764, 284.504 
	L 713.764, 285.496 
	L 670.677, 285.496 
	L 671.032, 290.173 
	L 672.803, 294.212 
	L 674.575, 298.252 
" />
<path d="M 674.575, 298.252 
	L 677.374, 301.228 
	L 680.173, 304.204 
	L 683.858, 305.941 
	L 687.543, 307.677 
	L 691.583, 307.677 
	L 694.347, 307.677 
	L 696.933, 306.933 
	L 699.520, 306.189 
	L 701.788, 304.842 
	L 704.055, 303.496 
" />
<path d="M 704.055, 303.496 
	L 705.756, 301.618 
	L 707.457, 299.740 
	L 708.520, 297.543 
	L 710.221, 297.968 
	L 709.228, 300.448 
	L 707.351, 302.574 
	L 705.473, 304.700 
	L 702.992, 306.224 
	L 700.512, 307.748 
	L 697.571, 308.633 
" />
<path d="M 697.571, 308.633 
	L 694.630, 309.519 
	L 691.512, 309.519 
	L 711.851, 283.582 
	L 711.567, 278.763 
	L 709.831, 274.724 
	L 708.095, 270.685 
	L 705.331, 267.779 
	L 702.567, 264.874 
	L 698.953, 263.208 
	L 695.339, 261.543 
" />
<path d="M 695.339, 261.543 
	L 691.158, 261.543 
	L 686.976, 261.543 
	L 683.362, 263.208 
	L 679.748, 264.874 
	L 676.984, 267.815 
	L 674.221, 270.755 
	L 672.591, 274.830 
	L 670.961, 278.905 
	L 670.677, 283.582 
	L 711.851, 283.582 
" />
<path d="M 711.851, 283.582 
" />
<path d="M 717.520, 241.487 
	L 717.520, 241.488 
	L 719.291, 241.488 
	L 719.291, 302.007 
	L 719.291, 304.700 
	L 720.921, 306.259 
	L 722.551, 307.818 
	L 725.315, 307.818 
	L 726.307, 307.818 
	L 727.689, 307.570 
	L 729.071, 307.322 
" />
<path d="M 729.071, 307.322 
	L 730.276, 306.968 
	L 730.913, 308.456 
	L 729.638, 308.881 
	L 727.795, 309.200 
	L 725.953, 309.519 
	L 724.677, 309.519 
	L 721.488, 309.519 
	L 719.504, 307.429 
	L 717.520, 305.338 
	L 717.520, 301.937 
" />
<path d="M 717.520, 301.937 
	L 717.520, 241.488 
" />
</g>
</svg>
