<?xml version="1.0" encoding="UTF-8" standalone="no" ?>
<svg width="100%" height="100%" viewBox="0 0 1186.178 2080.636" xmlns="http://www.w3.org/2000/svg"><g>
</g><g style="stroke:rgb(0,0,0); fill:none; stroke-width:1.000mm" >
</g><g style="stroke:rgb(0,255,0); fill:none; stroke-width:0.100mm" >
<path d="M 41.124, 2080.635 
	L 41.123, 2080.636 
	L 41.123, 1298.274 
	L 1186.178, 1298.274 
	L 1186.178, 2080.636 
	L 41.123, 2080.636 
" />
</g><g style="stroke:rgb(255,0,0); fill:none; stroke-width:0.100mm" >
<path d="M 36.848, 2068.596 
	L 36.848, 2068.597 
	L 53.880, 2081.320 
	L 45.398, 2092.675 
	L 28.366, 2079.952 
	L 36.848, 2068.597 
" />
<path d="M 22.304, 2052.424 
	L 22.303, 2052.425 
	L 39.449, 2065.233 
	L 30.967, 2076.588 
	L 13.821, 2063.780 
	L 22.303, 2052.425 
" />
<path d="M 12.849, 2029.439 
	L 12.848, 2029.440 
	L 30.107, 2042.333 
	L 21.626, 2053.688 
	L 4.366, 2040.795 
	L 12.848, 2029.440 
" />
<path d="M 8.483, 1999.641 
	L 8.482, 1999.642 
	L 25.855, 2012.619 
	L 17.373, 2023.974 
	L 0.000, 2010.996 
	L 8.482, 1999.642 
" />
<path d="M 9.206, 1963.030 
	L 9.206, 1963.031 
	L 26.692, 1976.093 
	L 18.210, 1987.448 
	L 0.723, 1974.385 
	L 9.206, 1963.031 
" />
<path d="M 15.019, 1919.606 
	L 15.018, 1919.607 
	L 32.618, 1932.755 
	L 24.136, 1944.109 
	L 6.536, 1930.962 
	L 15.018, 1919.607 
" />
<path d="M 25.921, 1869.370 
	L 25.920, 1869.370 
	L 43.633, 1882.602 
	L 35.151, 1893.957 
	L 17.437, 1880.725 
	L 25.920, 1869.370 
" />
<path d="M 41.912, 1812.320 
	L 41.911, 1812.320 
	L 59.738, 1825.637 
	L 51.256, 1836.992 
	L 33.429, 1823.675 
	L 41.911, 1812.320 
" />
<path d="M 62.991, 1748.457 
	L 62.991, 1748.458 
	L 80.932, 1761.859 
	L 72.450, 1773.214 
	L 54.509, 1759.813 
	L 62.991, 1748.458 
" />
<path d="M 89.162, 1677.782 
	L 89.161, 1677.782 
	L 107.215, 1691.269 
	L 98.733, 1702.624 
	L 80.678, 1689.137 
	L 89.161, 1677.782 
" />
<path d="M 120.420, 1600.293 
	L 120.419, 1600.294 
	L 138.587, 1613.865 
	L 130.105, 1625.220 
	L 111.937, 1611.649 
	L 120.419, 1600.294 
" />
<path d="M 156.769, 1515.991 
	L 156.768, 1515.992 
	L 175.049, 1529.648 
	L 166.567, 1541.003 
	L 148.285, 1527.347 
	L 156.768, 1515.992 
" />
<path d="M 198.206, 1424.877 
	L 198.205, 1424.877 
	L 216.600, 1438.618 
	L 208.118, 1449.973 
	L 189.723, 1436.232 
	L 198.205, 1424.877 
" />
<path d="M 244.733, 1326.949 
	L 244.732, 1326.950 
	L 263.240, 1340.776 
	L 254.758, 1352.130 
	L 236.250, 1338.304 
	L 244.732, 1326.950 
" />
<path d="M 296.349, 1222.209 
	L 296.348, 1222.209 
	L 314.970, 1236.120 
	L 306.488, 1247.475 
	L 287.865, 1233.564 
	L 296.348, 1222.209 
" />
<path d="M 353.054, 1110.655 
	L 353.053, 1110.656 
	L 371.789, 1124.651 
	L 363.307, 1136.006 
	L 344.571, 1122.011 
	L 353.053, 1110.656 
" />
<path d="M 414.848, 992.289 
	L 414.848, 992.290 
	L 433.697, 1006.370 
	L 425.215, 1017.725 
	L 406.366, 1003.645 
	L 414.848, 992.290 
" />
<path d="M 481.732, 867.110 
	L 481.731, 867.110 
	L 500.694, 881.275 
	L 492.212, 892.631 
	L 473.249, 878.465 
	L 481.731, 867.110 
" />
<path d="M 553.705, 735.117 
	L 553.704, 735.118 
	L 572.781, 749.368 
	L 564.299, 760.723 
	L 545.222, 746.473 
	L 553.704, 735.118 
" />
<path d="M 630.768, 596.312 
	L 630.767, 596.313 
	L 649.957, 610.648 
	L 641.474, 622.003 
	L 622.284, 607.668 
	L 630.767, 596.313 
" />
<path d="M 60.496, 2070.573 
	L 60.496, 2070.574 
	L 45.429, 2055.574 
	L 55.679, 2045.279 
	L 70.745, 2060.278 
	L 60.496, 2070.574 
" />
<path d="M 45.491, 2054.069 
	L 45.490, 2054.069 
	L 30.324, 2038.970 
	L 40.573, 2028.675 
	L 55.740, 2043.774 
	L 45.490, 2054.069 
" />
<path d="M 35.575, 2030.752 
	L 35.574, 2030.753 
	L 20.307, 2015.554 
	L 30.557, 2005.258 
	L 45.824, 2020.458 
	L 35.574, 2030.753 
" />
<path d="M 30.748, 2000.622 
	L 30.747, 2000.623 
	L 15.380, 1985.324 
	L 25.629, 1975.028 
	L 40.997, 1990.328 
	L 30.747, 2000.623 
" />
<path d="M 31.011, 1963.680 
	L 31.010, 1963.681 
	L 15.542, 1948.281 
	L 25.792, 1937.986 
	L 41.260, 1953.385 
	L 31.010, 1963.681 
" />
<path d="M 36.363, 1919.924 
	L 36.362, 1919.925 
	L 20.794, 1904.426 
	L 31.043, 1894.130 
	L 46.611, 1909.629 
	L 36.362, 1919.925 
" />
<path d="M 46.804, 1869.356 
	L 46.803, 1869.357 
	L 31.134, 1853.757 
	L 41.384, 1843.462 
	L 57.052, 1859.061 
	L 46.803, 1869.357 
" />
<path d="M 62.334, 1811.975 
	L 62.333, 1811.975 
	L 46.564, 1796.275 
	L 56.813, 1785.980 
	L 72.583, 1801.680 
	L 62.333, 1811.975 
" />
<path d="M 82.954, 1747.780 
	L 82.953, 1747.781 
	L 67.083, 1731.981 
	L 77.333, 1721.686 
	L 93.202, 1737.486 
	L 82.953, 1747.781 
" />
<path d="M 108.663, 1676.772 
	L 108.662, 1676.773 
	L 92.691, 1660.874 
	L 102.941, 1650.578 
	L 118.911, 1666.478 
	L 108.662, 1676.773 
" />
<path d="M 139.460, 1598.952 
	L 139.460, 1598.953 
	L 123.389, 1582.954 
	L 133.639, 1572.658 
	L 149.710, 1588.658 
	L 139.460, 1598.953 
" />
<path d="M 175.348, 1514.319 
	L 175.347, 1514.320 
	L 159.176, 1498.220 
	L 169.425, 1487.925 
	L 185.597, 1504.024 
	L 175.347, 1514.320 
" />
<path d="M 216.325, 1422.873 
	L 216.324, 1422.873 
	L 200.052, 1406.674 
	L 210.302, 1396.379 
	L 226.573, 1412.578 
	L 216.324, 1422.873 
" />
<path d="M 262.390, 1324.614 
	L 262.390, 1324.614 
	L 246.017, 1308.315 
	L 256.268, 1298.020 
	L 272.640, 1314.319 
	L 262.390, 1324.614 
" />
<path d="M 313.546, 1219.541 
	L 313.545, 1219.542 
	L 297.072, 1203.143 
	L 307.322, 1192.847 
	L 323.795, 1209.247 
	L 313.545, 1219.542 
" />
<path d="M 369.790, 1107.656 
	L 369.789, 1107.657 
	L 353.217, 1091.158 
	L 363.466, 1080.863 
	L 380.039, 1097.362 
	L 369.789, 1107.657 
" />
<path d="M 431.124, 988.958 
	L 431.123, 988.959 
	L 414.450, 972.359 
	L 424.699, 962.064 
	L 441.373, 978.664 
	L 431.123, 988.959 
" />
<path d="M 497.547, 863.447 
	L 497.546, 863.448 
	L 480.772, 846.748 
	L 491.022, 836.453 
	L 507.796, 853.153 
	L 497.546, 863.448 
" />
<path d="M 569.059, 731.123 
	L 569.059, 731.124 
	L 552.184, 714.325 
	L 562.433, 704.030 
	L 579.308, 720.828 
	L 569.059, 731.124 
" />
<path d="M 645.661, 591.987 
	L 645.660, 591.987 
	L 628.685, 575.088 
	L 638.935, 564.793 
	L 655.909, 581.692 
	L 645.660, 591.987 
" />
<path d="M 74.594, 2022.248 
	L 74.593, 2022.249 
	L 87.392, 2039.225 
	L 75.509, 2048.183 
	L 62.710, 2031.208 
	L 74.593, 2022.249 
" />
<path d="M 58.928, 2005.214 
	L 58.927, 2005.214 
	L 71.811, 2022.303 
	L 59.929, 2031.262 
	L 47.044, 2014.173 
	L 58.927, 2005.214 
" />
<path d="M 48.351, 1981.366 
	L 48.351, 1981.367 
	L 61.320, 1998.569 
	L 49.438, 2007.528 
	L 36.468, 1990.326 
	L 48.351, 1981.367 
" />
<path d="M 42.864, 1950.706 
	L 42.863, 1950.706 
	L 55.918, 1968.022 
	L 44.036, 1976.981 
	L 30.981, 1959.666 
	L 42.863, 1950.706 
" />
<path d="M 42.466, 1913.232 
	L 42.465, 1913.233 
	L 55.606, 1930.662 
	L 43.723, 1939.621 
	L 30.582, 1922.193 
	L 42.465, 1913.233 
" />
<path d="M 47.157, 1868.947 
	L 47.156, 1868.947 
	L 60.382, 1886.488 
	L 48.499, 1895.448 
	L 35.274, 1877.906 
	L 47.156, 1868.947 
" />
<path d="M 56.937, 1817.847 
	L 56.937, 1817.848 
	L 70.247, 1835.502 
	L 58.365, 1844.462 
	L 45.054, 1826.807 
	L 56.937, 1817.848 
" />
<path d="M 71.807, 1759.935 
	L 71.807, 1759.936 
	L 85.203, 1777.704 
	L 73.320, 1786.663 
	L 59.924, 1768.895 
	L 71.807, 1759.936 
" />
<path d="M 91.766, 1695.210 
	L 91.765, 1695.210 
	L 105.247, 1713.091 
	L 93.364, 1722.051 
	L 79.882, 1704.170 
	L 91.765, 1695.210 
" />
<path d="M 116.814, 1623.672 
	L 116.814, 1623.672 
	L 130.381, 1641.667 
	L 118.498, 1650.626 
	L 104.931, 1632.632 
	L 116.814, 1623.672 
" />
<path d="M 146.952, 1545.321 
	L 146.952, 1545.322 
	L 160.603, 1563.428 
	L 148.720, 1572.388 
	L 135.069, 1554.281 
	L 146.952, 1545.322 
" />
<path d="M 182.179, 1460.157 
	L 182.178, 1460.157 
	L 195.916, 1478.378 
	L 184.033, 1487.337 
	L 170.295, 1469.117 
	L 182.178, 1460.157 
" />
<path d="M 222.495, 1368.180 
	L 222.494, 1368.181 
	L 236.317, 1386.514 
	L 224.434, 1395.474 
	L 210.611, 1377.140 
	L 222.494, 1368.181 
" />
<path d="M 267.900, 1269.390 
	L 267.900, 1269.391 
	L 281.808, 1287.838 
	L 269.925, 1296.797 
	L 256.017, 1278.350 
	L 267.900, 1269.391 
" />
<path d="M 318.395, 1163.787 
	L 318.394, 1163.788 
	L 332.388, 1182.348 
	L 320.505, 1191.307 
	L 306.511, 1172.747 
	L 318.394, 1163.788 
" />
<path d="M 373.978, 1051.372 
	L 373.978, 1051.372 
	L 388.057, 1070.046 
	L 376.174, 1079.004 
	L 362.095, 1060.331 
	L 373.978, 1051.372 
" />
<path d="M 434.652, 932.143 
	L 434.651, 932.144 
	L 448.815, 950.929 
	L 436.932, 959.889 
	L 422.768, 941.102 
	L 434.651, 932.144 
" />
<path d="M 500.414, 806.101 
	L 500.413, 806.102 
	L 514.663, 825.001 
	L 502.780, 833.961 
	L 488.531, 815.061 
	L 500.413, 806.102 
" />
<path d="M 571.265, 673.246 
	L 571.265, 673.247 
	L 585.600, 692.260 
	L 573.717, 701.219 
	L 559.382, 682.206 
	L 571.265, 673.247 
" />
<path d="M 647.206, 533.579 
	L 647.206, 533.580 
	L 661.626, 552.705 
	L 649.743, 561.665 
	L 635.323, 542.538 
	L 647.206, 533.580 
" />
<path d="M 90.485, 2025.494 
	L 90.484, 2025.494 
	L 80.208, 2006.883 
	L 93.547, 1999.518 
	L 103.822, 2018.131 
	L 90.484, 2025.494 
" />
<path d="M 74.328, 2008.153 
	L 74.327, 2008.154 
	L 63.984, 1989.418 
	L 77.322, 1982.055 
	L 87.666, 2000.790 
	L 74.327, 2008.154 
" />
<path d="M 63.261, 1984.001 
	L 63.260, 1984.001 
	L 52.848, 1965.142 
	L 66.186, 1957.777 
	L 76.599, 1976.638 
	L 63.260, 1984.001 
" />
<path d="M 57.283, 1953.035 
	L 57.282, 1953.036 
	L 46.801, 1934.051 
	L 60.139, 1926.688 
	L 70.620, 1945.672 
	L 57.282, 1953.036 
" />
<path d="M 56.393, 1915.256 
	L 56.392, 1915.257 
	L 45.843, 1896.149 
	L 59.182, 1888.785 
	L 69.731, 1907.893 
	L 56.392, 1915.257 
" />
<path d="M 60.593, 1870.664 
	L 60.593, 1870.665 
	L 49.976, 1851.433 
	L 63.314, 1844.069 
	L 73.931, 1863.301 
	L 60.593, 1870.665 
" />
<path d="M 69.883, 1819.259 
	L 69.883, 1819.260 
	L 59.197, 1799.904 
	L 72.535, 1792.540 
	L 83.221, 1811.896 
	L 69.883, 1819.260 
" />
<path d="M 84.262, 1761.042 
	L 84.261, 1761.043 
	L 73.507, 1741.563 
	L 86.845, 1734.198 
	L 97.600, 1753.679 
	L 84.261, 1761.043 
" />
<path d="M 103.730, 1696.011 
	L 103.730, 1696.012 
	L 92.906, 1676.408 
	L 106.245, 1669.044 
	L 117.068, 1688.648 
	L 103.730, 1696.012 
" />
<path d="M 128.288, 1624.168 
	L 128.287, 1624.169 
	L 117.395, 1604.440 
	L 130.734, 1597.076 
	L 141.625, 1616.805 
	L 128.287, 1624.169 
" />
<path d="M 157.934, 1545.511 
	L 157.934, 1545.512 
	L 146.974, 1525.660 
	L 160.312, 1518.295 
	L 171.272, 1538.148 
	L 157.934, 1545.512 
" />
<path d="M 192.670, 1460.042 
	L 192.669, 1460.043 
	L 181.641, 1440.066 
	L 194.979, 1432.702 
	L 206.008, 1452.679 
	L 192.669, 1460.043 
" />
<path d="M 232.496, 1367.759 
	L 232.495, 1367.760 
	L 221.397, 1347.659 
	L 234.736, 1340.296 
	L 245.833, 1360.396 
	L 232.495, 1367.760 
" />
<path d="M 277.410, 1268.664 
	L 277.409, 1268.665 
	L 266.243, 1248.440 
	L 279.582, 1241.076 
	L 290.747, 1261.301 
	L 277.409, 1268.665 
" />
<path d="M 327.414, 1162.756 
	L 327.413, 1162.757 
	L 316.179, 1142.408 
	L 329.517, 1135.044 
	L 340.751, 1155.392 
	L 327.413, 1162.757 
" />
<path d="M 382.506, 1050.034 
	L 382.506, 1050.035 
	L 371.203, 1029.563 
	L 384.542, 1022.198 
	L 395.845, 1042.671 
	L 382.506, 1050.035 
" />
<path d="M 442.689, 930.500 
	L 442.688, 930.501 
	L 431.317, 909.904 
	L 444.655, 902.540 
	L 456.026, 923.137 
	L 442.688, 930.501 
" />
<path d="M 507.961, 804.154 
	L 507.960, 804.154 
	L 496.520, 783.433 
	L 509.859, 776.069 
	L 521.298, 796.790 
	L 507.960, 804.154 
" />
<path d="M 578.322, 670.993 
	L 578.321, 670.994 
	L 566.812, 650.149 
	L 580.151, 642.785 
	L 591.659, 663.630 
	L 578.321, 670.994 
" />
<path d="M 653.771, 531.020 
	L 653.771, 531.021 
	L 642.194, 510.051 
	L 655.532, 502.688 
	L 667.109, 523.657 
	L 653.771, 531.021 
" />
<path d="M 112.495, 1977.091 
	L 112.494, 1977.092 
	L 120.040, 1996.968 
	L 105.465, 2002.501 
	L 97.919, 1982.626 
	L 112.494, 1977.092 
" />
<path d="M 95.711, 1959.199 
	L 95.710, 1959.200 
	L 103.307, 1979.208 
	L 88.731, 1984.741 
	L 81.135, 1964.734 
	L 95.710, 1959.200 
" />
<path d="M 84.017, 1934.494 
	L 84.016, 1934.494 
	L 91.663, 1954.635 
	L 77.087, 1960.168 
	L 69.440, 1940.028 
	L 84.016, 1934.494 
" />
<path d="M 77.411, 1902.975 
	L 77.411, 1902.976 
	L 85.107, 1923.249 
	L 70.532, 1928.783 
	L 62.836, 1908.510 
	L 77.411, 1902.976 
" />
<path d="M 75.896, 1864.644 
	L 75.895, 1864.645 
	L 83.642, 1885.050 
	L 69.066, 1890.584 
	L 61.319, 1870.178 
	L 75.895, 1864.645 
" />
<path d="M 79.469, 1819.500 
	L 79.468, 1819.500 
	L 87.265, 1840.039 
	L 72.690, 1845.573 
	L 64.892, 1825.034 
	L 79.468, 1819.500 
" />
<path d="M 88.131, 1767.543 
	L 88.131, 1767.544 
	L 95.978, 1788.214 
	L 81.403, 1793.748 
	L 73.555, 1773.077 
	L 88.131, 1767.544 
" />
<path d="M 101.883, 1708.773 
	L 101.882, 1708.773 
	L 109.780, 1729.577 
	L 95.204, 1735.110 
	L 87.306, 1714.307 
	L 101.882, 1708.773 
" />
<path d="M 120.724, 1643.190 
	L 120.723, 1643.190 
	L 128.672, 1664.126 
	L 114.096, 1669.660 
	L 106.148, 1648.724 
	L 120.723, 1643.190 
" />
<path d="M 144.654, 1570.794 
	L 144.653, 1570.795 
	L 152.652, 1591.863 
	L 138.076, 1597.397 
	L 130.078, 1576.328 
	L 144.653, 1570.795 
" />
<path d="M 173.674, 1491.585 
	L 173.673, 1491.586 
	L 181.722, 1512.786 
	L 167.146, 1518.320 
	L 159.097, 1497.120 
	L 173.673, 1491.586 
" />
<path d="M 207.782, 1405.564 
	L 207.782, 1405.564 
	L 215.881, 1426.897 
	L 201.305, 1432.431 
	L 193.206, 1411.097 
	L 207.782, 1405.564 
" />
<path d="M 246.981, 1312.728 
	L 246.980, 1312.729 
	L 255.129, 1334.195 
	L 240.554, 1339.729 
	L 232.404, 1318.263 
	L 246.980, 1312.729 
" />
<path d="M 291.268, 1213.080 
	L 291.267, 1213.081 
	L 299.467, 1234.680 
	L 284.891, 1240.213 
	L 276.691, 1218.615 
	L 291.267, 1213.081 
" />
<path d="M 340.644, 1106.620 
	L 340.644, 1106.621 
	L 348.894, 1128.351 
	L 334.318, 1133.885 
	L 326.068, 1112.154 
	L 340.644, 1106.621 
" />
<path d="M 395.110, 993.346 
	L 395.109, 993.347 
	L 403.410, 1015.210 
	L 388.835, 1020.744 
	L 380.534, 998.881 
	L 395.109, 993.347 
" />
<path d="M 454.665, 873.259 
	L 454.664, 873.260 
	L 463.015, 895.256 
	L 448.440, 900.790 
	L 440.089, 878.794 
	L 454.664, 873.260 
" />
<path d="M 519.309, 746.360 
	L 519.309, 746.361 
	L 527.710, 768.489 
	L 513.135, 774.023 
	L 504.733, 751.895 
	L 519.309, 746.361 
" />
<path d="M 589.043, 612.648 
	L 589.042, 612.648 
	L 597.494, 634.909 
	L 582.919, 640.443 
	L 574.467, 618.182 
	L 589.042, 612.648 
" />
<path d="M 663.866, 472.122 
	L 663.866, 472.123 
	L 672.367, 494.516 
	L 657.792, 500.050 
	L 649.290, 477.656 
	L 663.866, 472.123 
" />
<path d="M 120.499, 1979.207 
	L 120.499, 1979.207 
	L 115.833, 1958.465 
	L 131.389, 1954.966 
	L 136.055, 1975.708 
	L 120.499, 1979.207 
" />
<path d="M 103.188, 1961.025 
	L 103.187, 1961.026 
	L 98.491, 1940.146 
	L 114.047, 1936.647 
	L 118.744, 1957.526 
	L 103.187, 1961.026 
" />
<path d="M 90.967, 1936.031 
	L 90.966, 1936.032 
	L 86.238, 1915.014 
	L 101.794, 1911.514 
	L 106.522, 1932.533 
	L 90.966, 1936.032 
" />
<path d="M 83.835, 1904.225 
	L 83.834, 1904.225 
	L 79.075, 1883.069 
	L 94.631, 1879.569 
	L 99.390, 1900.726 
	L 83.834, 1904.225 
" />
<path d="M 81.792, 1865.605 
	L 81.791, 1865.605 
	L 77.000, 1844.311 
	L 92.557, 1840.811 
	L 97.347, 1862.106 
	L 81.791, 1865.605 
" />
<path d="M 84.837, 1820.172 
	L 84.837, 1820.172 
	L 80.016, 1798.739 
	L 95.572, 1795.240 
	L 100.393, 1816.673 
	L 84.837, 1820.172 
" />
<path d="M 92.973, 1767.926 
	L 92.972, 1767.926 
	L 88.120, 1746.355 
	L 103.676, 1742.856 
	L 108.529, 1764.427 
	L 92.972, 1767.926 
" />
<path d="M 106.198, 1708.867 
	L 106.197, 1708.868 
	L 101.314, 1687.158 
	L 116.870, 1683.659 
	L 121.753, 1705.368 
	L 106.197, 1708.868 
" />
<path d="M 124.512, 1642.996 
	L 124.511, 1642.996 
	L 119.597, 1621.148 
	L 135.152, 1617.649 
	L 140.067, 1639.497 
	L 124.511, 1642.996 
" />
<path d="M 147.915, 1570.311 
	L 147.914, 1570.312 
	L 142.968, 1548.325 
	L 158.525, 1544.826 
	L 163.470, 1566.812 
	L 147.914, 1570.312 
" />
<path d="M 176.407, 1490.813 
	L 176.406, 1490.814 
	L 171.430, 1468.690 
	L 186.986, 1465.190 
	L 191.963, 1487.315 
	L 176.406, 1490.814 
" />
<path d="M 209.989, 1404.503 
	L 209.988, 1404.503 
	L 204.980, 1382.241 
	L 220.537, 1378.741 
	L 225.544, 1401.004 
	L 209.988, 1404.503 
" />
<path d="M 248.660, 1311.379 
	L 248.659, 1311.380 
	L 243.620, 1288.979 
	L 259.177, 1285.479 
	L 264.215, 1307.881 
	L 248.659, 1311.380 
" />
<path d="M 292.420, 1211.443 
	L 292.419, 1211.443 
	L 287.349, 1188.904 
	L 302.906, 1185.405 
	L 307.976, 1207.944 
	L 292.419, 1211.443 
" />
<path d="M 341.270, 1104.693 
	L 341.269, 1104.694 
	L 336.168, 1082.016 
	L 351.724, 1078.517 
	L 356.825, 1101.195 
	L 341.269, 1104.694 
" />
<path d="M 395.208, 991.131 
	L 395.208, 991.132 
	L 390.076, 968.316 
	L 405.632, 964.816 
	L 410.764, 987.632 
	L 395.208, 991.132 
" />
<path d="M 454.236, 870.756 
	L 454.236, 870.756 
	L 449.073, 847.802 
	L 464.629, 844.303 
	L 469.792, 867.257 
	L 454.236, 870.756 
" />
<path d="M 518.354, 743.567 
	L 518.353, 743.568 
	L 513.159, 720.476 
	L 528.715, 716.976 
	L 533.910, 740.069 
	L 518.353, 743.568 
" />
<path d="M 587.560, 609.566 
	L 587.560, 609.567 
	L 582.335, 586.336 
	L 597.891, 582.837 
	L 603.116, 606.068 
	L 587.560, 609.567 
" />
<path d="M 661.857, 468.752 
	L 661.856, 468.753 
	L 656.599, 445.384 
	L 672.155, 441.884 
	L 677.412, 465.253 
	L 661.856, 468.753 
" />
<path d="M 150.187, 1933.132 
	L 150.186, 1933.132 
	L 151.878, 1954.325 
	L 135.631, 1955.622 
	L 133.938, 1934.429 
	L 150.186, 1933.132 
" />
<path d="M 132.287, 1914.387 
	L 132.287, 1914.387 
	L 133.989, 1935.721 
	L 117.742, 1937.018 
	L 116.039, 1915.684 
	L 132.287, 1914.387 
" />
<path d="M 119.476, 1888.829 
	L 119.475, 1888.830 
	L 121.190, 1910.304 
	L 104.943, 1911.602 
	L 103.228, 1890.126 
	L 119.475, 1888.830 
" />
<path d="M 111.755, 1856.458 
	L 111.754, 1856.459 
	L 113.480, 1878.075 
	L 97.233, 1879.372 
	L 95.507, 1857.755 
	L 111.754, 1856.459 
" />
<path d="M 109.123, 1817.274 
	L 109.123, 1817.275 
	L 110.859, 1839.032 
	L 94.612, 1840.329 
	L 92.875, 1818.571 
	L 109.123, 1817.275 
" />
<path d="M 111.580, 1771.277 
	L 111.579, 1771.278 
	L 113.328, 1793.176 
	L 97.080, 1794.474 
	L 95.332, 1772.575 
	L 111.579, 1771.278 
" />
<path d="M 119.127, 1718.467 
	L 119.126, 1718.468 
	L 120.886, 1740.508 
	L 104.638, 1741.806 
	L 102.879, 1719.766 
	L 119.126, 1718.468 
" />
<path d="M 131.762, 1658.845 
	L 131.761, 1658.845 
	L 133.532, 1681.027 
	L 117.285, 1682.324 
	L 115.514, 1660.142 
	L 131.761, 1658.845 
" />
<path d="M 149.487, 1592.409 
	L 149.486, 1592.410 
	L 151.269, 1614.733 
	L 135.021, 1616.030 
	L 133.239, 1593.707 
	L 149.486, 1592.410 
" />
<path d="M 172.302, 1519.161 
	L 172.301, 1519.161 
	L 174.094, 1541.626 
	L 157.847, 1542.923 
	L 156.054, 1520.459 
	L 172.301, 1519.161 
" />
<path d="M 200.205, 1439.100 
	L 200.205, 1439.100 
	L 202.009, 1461.705 
	L 185.761, 1463.003 
	L 183.957, 1440.397 
	L 200.205, 1439.100 
" />
<path d="M 233.198, 1352.225 
	L 233.197, 1352.225 
	L 235.013, 1374.972 
	L 218.766, 1376.269 
	L 216.950, 1353.523 
	L 233.197, 1352.225 
" />
<path d="M 271.280, 1258.538 
	L 271.279, 1258.538 
	L 273.107, 1281.426 
	L 256.859, 1282.723 
	L 255.032, 1259.835 
	L 271.279, 1258.538 
" />
<path d="M 314.452, 1158.037 
	L 314.451, 1158.038 
	L 316.289, 1181.067 
	L 300.042, 1182.364 
	L 298.203, 1159.335 
	L 314.451, 1158.038 
" />
<path d="M 362.712, 1050.724 
	L 362.711, 1050.725 
	L 364.561, 1073.895 
	L 348.313, 1075.192 
	L 346.464, 1052.021 
	L 362.711, 1050.725 
" />
<path d="M 416.062, 936.598 
	L 416.062, 936.598 
	L 417.922, 959.910 
	L 401.675, 961.207 
	L 399.814, 937.895 
	L 416.062, 936.598 
" />
<path d="M 474.501, 815.658 
	L 474.501, 815.659 
	L 476.373, 839.112 
	L 460.125, 840.409 
	L 458.253, 816.956 
	L 474.501, 815.659 
" />
<path d="M 538.029, 687.906 
	L 538.029, 687.907 
	L 539.912, 711.501 
	L 523.665, 712.798 
	L 521.781, 689.204 
	L 538.029, 687.907 
" />
<path d="M 606.647, 553.341 
	L 606.646, 553.342 
	L 608.541, 577.077 
	L 592.294, 578.374 
	L 590.399, 554.639 
	L 606.646, 553.342 
" />
<path d="M 680.354, 411.963 
	L 680.353, 411.964 
	L 682.260, 435.840 
	L 666.012, 437.138 
	L 664.106, 413.261 
	L 680.353, 411.964 
" />
<path d="M 150.904, 1931.760 
	L 150.904, 1931.761 
	L 152.220, 1910.542 
	L 168.841, 1911.573 
	L 167.525, 1932.792 
	L 150.904, 1931.761 
" />
<path d="M 132.438, 1912.733 
	L 132.437, 1912.733 
	L 133.762, 1891.373 
	L 150.384, 1892.403 
	L 149.059, 1913.764 
	L 132.437, 1912.733 
" />
<path d="M 119.061, 1886.892 
	L 119.060, 1886.893 
	L 120.394, 1865.391 
	L 137.015, 1866.422 
	L 135.682, 1887.924 
	L 119.060, 1886.893 
" />
<path d="M 110.773, 1854.238 
	L 110.772, 1854.239 
	L 112.114, 1832.596 
	L 128.736, 1833.626 
	L 127.394, 1855.270 
	L 110.772, 1854.239 
" />
<path d="M 107.575, 1814.772 
	L 107.574, 1814.773 
	L 108.925, 1792.988 
	L 125.546, 1794.018 
	L 124.196, 1815.803 
	L 107.574, 1814.773 
" />
<path d="M 109.466, 1768.492 
	L 109.465, 1768.493 
	L 110.824, 1746.567 
	L 127.446, 1747.598 
	L 126.086, 1769.524 
	L 109.465, 1768.493 
" />
<path d="M 116.445, 1715.400 
	L 116.444, 1715.401 
	L 117.813, 1693.333 
	L 134.434, 1694.364 
	L 133.066, 1716.431 
	L 116.444, 1715.401 
" />
<path d="M 128.514, 1655.495 
	L 128.514, 1655.496 
	L 129.891, 1633.286 
	L 146.513, 1634.317 
	L 145.135, 1656.526 
	L 128.514, 1655.496 
" />
<path d="M 145.673, 1588.777 
	L 145.672, 1588.777 
	L 147.059, 1566.427 
	L 163.680, 1567.457 
	L 162.294, 1589.808 
	L 145.672, 1588.777 
" />
<path d="M 167.921, 1515.245 
	L 167.920, 1515.246 
	L 169.315, 1492.754 
	L 185.936, 1493.785 
	L 184.542, 1516.277 
	L 167.920, 1515.246 
" />
<path d="M 195.258, 1434.901 
	L 195.257, 1434.902 
	L 196.661, 1412.268 
	L 213.282, 1413.298 
	L 211.879, 1435.932 
	L 195.257, 1434.902 
" />
<path d="M 227.684, 1347.744 
	L 227.684, 1347.744 
	L 229.096, 1324.970 
	L 245.718, 1326.000 
	L 244.305, 1348.776 
	L 227.684, 1347.744 
" />
<path d="M 265.200, 1253.774 
	L 265.199, 1253.775 
	L 266.620, 1230.858 
	L 283.242, 1231.888 
	L 281.820, 1254.805 
	L 265.199, 1253.775 
" />
<path d="M 307.805, 1152.991 
	L 307.804, 1152.992 
	L 309.234, 1129.933 
	L 325.855, 1130.964 
	L 324.426, 1154.022 
	L 307.804, 1152.992 
" />
<path d="M 355.499, 1045.395 
	L 355.498, 1045.395 
	L 356.936, 1022.196 
	L 373.558, 1023.226 
	L 372.120, 1046.426 
	L 355.498, 1045.395 
" />
<path d="M 408.283, 930.986 
	L 408.282, 930.986 
	L 409.729, 907.645 
	L 426.351, 908.676 
	L 424.903, 932.017 
	L 408.282, 930.986 
" />
<path d="M 466.155, 809.763 
	L 466.154, 809.764 
	L 467.610, 786.282 
	L 484.232, 787.312 
	L 482.776, 810.795 
	L 466.154, 809.764 
" />
<path d="M 529.117, 681.729 
	L 529.116, 681.730 
	L 530.581, 658.106 
	L 547.203, 659.136 
	L 545.737, 682.760 
	L 529.116, 681.730 
" />
<path d="M 597.168, 546.881 
	L 597.167, 546.882 
	L 598.641, 523.116 
	L 615.263, 524.147 
	L 613.789, 547.912 
	L 597.167, 546.882 
" />
<path d="M 670.309, 405.220 
	L 670.308, 405.221 
	L 671.790, 381.314 
	L 688.411, 382.345 
	L 686.930, 406.252 
	L 670.308, 405.221 
" />
<path d="M 187.314, 1890.265 
	L 187.313, 1890.265 
	L 183.017, 1911.087 
	L 166.360, 1907.649 
	L 170.657, 1886.828 
	L 187.313, 1890.265 
" />
<path d="M 168.299, 1870.673 
	L 168.299, 1870.674 
	L 163.972, 1891.634 
	L 147.316, 1888.196 
	L 151.642, 1867.236 
	L 168.299, 1870.674 
" />
<path d="M 154.373, 1844.268 
	L 154.372, 1844.269 
	L 150.018, 1865.367 
	L 133.361, 1861.929 
	L 137.716, 1840.831 
	L 154.372, 1844.269 
" />
<path d="M 145.536, 1811.050 
	L 145.535, 1811.051 
	L 141.153, 1832.288 
	L 124.496, 1828.850 
	L 128.879, 1807.613 
	L 145.535, 1811.051 
" />
<path d="M 141.788, 1771.020 
	L 141.788, 1771.020 
	L 137.376, 1792.396 
	L 120.719, 1788.959 
	L 125.131, 1767.583 
	L 141.788, 1771.020 
" />
<path d="M 143.130, 1724.176 
	L 143.129, 1724.176 
	L 138.689, 1745.691 
	L 122.032, 1742.254 
	L 126.473, 1720.739 
	L 143.129, 1724.176 
" />
<path d="M 149.561, 1670.519 
	L 149.560, 1670.520 
	L 145.091, 1692.174 
	L 128.434, 1688.736 
	L 132.904, 1667.082 
	L 149.560, 1670.520 
" />
<path d="M 161.081, 1610.049 
	L 161.080, 1610.050 
	L 156.583, 1631.843 
	L 139.926, 1628.405 
	L 144.424, 1606.612 
	L 161.080, 1610.050 
" />
<path d="M 177.690, 1542.767 
	L 177.690, 1542.767 
	L 173.164, 1564.699 
	L 156.507, 1561.261 
	L 161.033, 1539.330 
	L 177.690, 1542.767 
" />
<path d="M 199.390, 1468.671 
	L 199.389, 1468.672 
	L 194.834, 1490.742 
	L 178.177, 1487.305 
	L 182.732, 1465.234 
	L 199.389, 1468.672 
" />
<path d="M 226.178, 1387.763 
	L 226.177, 1387.763 
	L 221.593, 1409.973 
	L 204.936, 1406.535 
	L 209.520, 1384.326 
	L 226.177, 1387.763 
" />
<path d="M 258.055, 1300.042 
	L 258.054, 1300.042 
	L 253.442, 1322.390 
	L 236.785, 1318.952 
	L 241.397, 1296.605 
	L 258.054, 1300.042 
" />
<path d="M 295.021, 1205.507 
	L 295.021, 1205.508 
	L 290.380, 1227.995 
	L 273.723, 1224.557 
	L 278.364, 1202.070 
	L 295.021, 1205.508 
" />
<path d="M 337.077, 1104.160 
	L 337.076, 1104.160 
	L 332.407, 1126.786 
	L 315.750, 1123.348 
	L 320.420, 1100.723 
	L 337.076, 1104.160 
" />
<path d="M 384.222, 996.000 
	L 384.221, 996.000 
	L 379.524, 1018.765 
	L 362.867, 1015.327 
	L 367.565, 992.563 
	L 384.221, 996.000 
" />
<path d="M 436.457, 881.026 
	L 436.456, 881.027 
	L 431.729, 903.930 
	L 415.072, 900.493 
	L 419.799, 877.589 
	L 436.456, 881.027 
" />
<path d="M 493.780, 759.240 
	L 493.780, 759.241 
	L 489.024, 782.283 
	L 472.367, 778.845 
	L 477.123, 755.803 
	L 493.780, 759.241 
" />
<path d="M 556.193, 630.641 
	L 556.192, 630.641 
	L 551.408, 653.822 
	L 534.752, 650.385 
	L 539.535, 627.204 
	L 556.192, 630.641 
" />
<path d="M 623.695, 495.229 
	L 623.694, 495.230 
	L 618.882, 518.549 
	L 602.225, 515.112 
	L 607.037, 491.792 
	L 623.694, 495.230 
" />
<path d="M 696.287, 353.004 
	L 696.286, 353.005 
	L 691.445, 376.463 
	L 674.787, 373.025 
	L 679.629, 349.567 
	L 696.286, 353.005 
" />
<path d="M 182.036, 1883.313 
	L 182.035, 1883.313 
	L 189.228, 1863.307 
	L 205.566, 1869.181 
	L 198.374, 1889.187 
	L 182.035, 1883.313 
" />
<path d="M 162.415, 1863.433 
	L 162.414, 1863.434 
	L 169.654, 1843.294 
	L 185.993, 1849.168 
	L 178.753, 1869.307 
	L 162.414, 1863.434 
" />
<path d="M 147.883, 1836.740 
	L 147.882, 1836.741 
	L 155.170, 1816.468 
	L 171.509, 1822.341 
	L 164.220, 1842.614 
	L 147.882, 1836.741 
" />
<path d="M 138.440, 1803.235 
	L 138.439, 1803.235 
	L 145.775, 1782.829 
	L 162.113, 1788.702 
	L 154.777, 1809.109 
	L 138.439, 1803.235 
" />
<path d="M 134.086, 1762.915 
	L 134.085, 1762.916 
	L 141.469, 1742.376 
	L 157.808, 1748.250 
	L 150.424, 1768.790 
	L 134.085, 1762.916 
" />
<path d="M 134.821, 1715.784 
	L 134.821, 1715.784 
	L 142.253, 1695.111 
	L 158.591, 1700.985 
	L 151.160, 1721.658 
	L 134.821, 1715.784 
" />
<path d="M 140.647, 1661.839 
	L 140.646, 1661.840 
	L 148.126, 1641.033 
	L 164.465, 1646.907 
	L 156.984, 1667.714 
	L 140.646, 1661.840 
" />
<path d="M 151.561, 1601.082 
	L 151.560, 1601.083 
	L 159.088, 1580.142 
	L 175.426, 1586.016 
	L 167.899, 1606.956 
	L 151.560, 1601.083 
" />
<path d="M 167.564, 1533.511 
	L 167.564, 1533.512 
	L 175.139, 1512.438 
	L 191.478, 1518.312 
	L 183.902, 1539.386 
	L 167.564, 1533.512 
" />
<path d="M 188.657, 1459.128 
	L 188.656, 1459.128 
	L 196.280, 1437.922 
	L 212.618, 1443.795 
	L 204.994, 1465.002 
	L 188.656, 1459.128 
" />
<path d="M 214.839, 1377.931 
	L 214.839, 1377.931 
	L 222.510, 1356.591 
	L 238.849, 1362.466 
	L 231.177, 1383.805 
	L 214.839, 1377.931 
" />
<path d="M 246.110, 1289.921 
	L 246.110, 1289.922 
	L 253.829, 1268.449 
	L 270.168, 1274.322 
	L 262.448, 1295.796 
	L 246.110, 1289.922 
" />
<path d="M 282.470, 1195.099 
	L 282.470, 1195.099 
	L 290.238, 1173.493 
	L 306.576, 1179.366 
	L 298.809, 1200.974 
	L 282.470, 1195.099 
" />
<path d="M 323.921, 1093.464 
	L 323.920, 1093.465 
	L 331.735, 1071.724 
	L 348.074, 1077.598 
	L 340.258, 1099.338 
	L 323.920, 1093.465 
" />
<path d="M 370.459, 985.015 
	L 370.458, 985.016 
	L 378.322, 963.143 
	L 394.661, 969.017 
	L 386.797, 990.890 
	L 370.458, 985.016 
" />
<path d="M 422.088, 869.754 
	L 422.087, 869.755 
	L 429.999, 847.748 
	L 446.337, 853.622 
	L 438.425, 875.628 
	L 422.087, 869.755 
" />
<path d="M 478.805, 747.680 
	L 478.804, 747.680 
	L 486.764, 725.540 
	L 503.103, 731.414 
	L 495.143, 753.554 
	L 478.804, 747.680 
" />
<path d="M 540.612, 618.793 
	L 540.612, 618.793 
	L 548.619, 596.520 
	L 564.958, 602.393 
	L 556.950, 624.667 
	L 540.612, 618.793 
" />
<path d="M 607.509, 483.093 
	L 607.508, 483.094 
	L 615.563, 460.687 
	L 631.901, 466.560 
	L 623.846, 488.967 
	L 607.508, 483.094 
" />
<path d="M 679.494, 340.580 
	L 679.493, 340.581 
	L 687.596, 318.040 
	L 703.935, 323.913 
	L 695.831, 346.454 
	L 679.493, 340.581 
" />
<path d="M 223.567, 1848.284 
	L 223.566, 1848.285 
	L 213.623, 1867.076 
	L 197.964, 1858.790 
	L 207.907, 1839.998 
	L 223.566, 1848.285 
" />
<path d="M 203.435, 1827.851 
	L 203.435, 1827.852 
	L 193.425, 1846.768 
	L 177.766, 1838.482 
	L 187.775, 1819.566 
	L 203.435, 1827.852 
" />
<path d="M 188.393, 1800.605 
	L 188.392, 1800.605 
	L 178.316, 1819.647 
	L 162.656, 1811.361 
	L 172.733, 1792.319 
	L 188.392, 1800.605 
" />
<path d="M 178.439, 1766.546 
	L 178.438, 1766.546 
	L 168.296, 1785.713 
	L 152.636, 1777.426 
	L 162.779, 1758.260 
	L 178.438, 1766.546 
" />
<path d="M 173.575, 1725.673 
	L 173.574, 1725.674 
	L 163.365, 1744.966 
	L 147.706, 1736.680 
	L 157.915, 1717.387 
	L 173.574, 1725.674 
" />
<path d="M 173.800, 1677.988 
	L 173.799, 1677.988 
	L 163.524, 1697.407 
	L 147.864, 1689.120 
	L 158.140, 1669.702 
	L 173.799, 1677.988 
" />
<path d="M 179.114, 1623.490 
	L 179.113, 1623.491 
	L 168.772, 1643.034 
	L 153.113, 1634.747 
	L 163.454, 1615.205 
	L 179.113, 1623.491 
" />
<path d="M 189.517, 1562.179 
	L 189.517, 1562.180 
	L 179.109, 1581.848 
	L 163.450, 1573.562 
	L 173.857, 1553.893 
	L 189.517, 1562.180 
" />
<path d="M 205.010, 1494.055 
	L 205.009, 1494.055 
	L 194.535, 1513.849 
	L 178.876, 1505.563 
	L 189.350, 1485.769 
	L 205.009, 1494.055 
" />
<path d="M 225.592, 1419.118 
	L 225.592, 1419.119 
	L 215.051, 1439.037 
	L 199.392, 1430.751 
	L 209.932, 1410.832 
	L 225.592, 1419.119 
" />
<path d="M 251.264, 1337.368 
	L 251.263, 1337.369 
	L 240.656, 1357.413 
	L 224.997, 1349.126 
	L 235.604, 1329.083 
	L 251.263, 1337.369 
" />
<path d="M 282.025, 1248.805 
	L 282.024, 1248.806 
	L 271.351, 1268.975 
	L 255.691, 1260.689 
	L 266.365, 1240.520 
	L 282.024, 1248.806 
" />
<path d="M 317.874, 1153.429 
	L 317.874, 1153.430 
	L 307.135, 1173.725 
	L 291.475, 1165.438 
	L 302.214, 1145.144 
	L 317.874, 1153.430 
" />
<path d="M 358.813, 1051.240 
	L 358.812, 1051.241 
	L 348.007, 1071.661 
	L 332.348, 1063.375 
	L 343.154, 1042.955 
	L 358.812, 1051.241 
" />
<path d="M 404.842, 942.239 
	L 404.841, 942.240 
	L 393.969, 962.785 
	L 378.310, 954.498 
	L 389.182, 933.953 
	L 404.841, 942.240 
" />
<path d="M 455.959, 826.424 
	L 455.958, 826.425 
	L 445.021, 847.095 
	L 429.362, 838.809 
	L 440.299, 818.138 
	L 455.958, 826.425 
" />
<path d="M 512.167, 703.796 
	L 512.166, 703.797 
	L 501.161, 724.593 
	L 485.502, 716.307 
	L 496.507, 695.511 
	L 512.166, 703.797 
" />
<path d="M 573.462, 574.356 
	L 573.462, 574.357 
	L 562.392, 595.278 
	L 546.732, 586.991 
	L 557.802, 566.070 
	L 573.462, 574.357 
" />
<path d="M 639.848, 438.102 
	L 639.848, 438.103 
	L 628.710, 459.149 
	L 613.051, 450.863 
	L 624.188, 429.817 
	L 639.848, 438.103 
" />
<path d="M 711.322, 295.036 
	L 711.322, 295.037 
	L 700.119, 316.208 
	L 684.460, 307.922 
	L 695.663, 286.751 
	L 711.322, 295.037 
" />
<path d="M 214.172, 1834.116 
	L 214.172, 1834.117 
	L 226.667, 1816.917 
	L 241.287, 1827.539 
	L 228.791, 1844.738 
	L 214.172, 1834.117 
" />
<path d="M 193.397, 1813.378 
	L 193.397, 1813.379 
	L 205.976, 1796.065 
	L 220.596, 1806.686 
	L 208.017, 1824.000 
	L 193.397, 1813.379 
" />
<path d="M 177.712, 1785.829 
	L 177.712, 1785.829 
	L 190.374, 1768.400 
	L 204.994, 1779.021 
	L 192.331, 1796.451 
	L 177.712, 1785.829 
" />
<path d="M 167.117, 1751.465 
	L 167.116, 1751.465 
	L 179.861, 1733.922 
	L 194.481, 1744.543 
	L 181.736, 1762.087 
	L 167.116, 1751.465 
" />
<path d="M 161.610, 1710.289 
	L 161.609, 1710.289 
	L 174.438, 1692.631 
	L 189.057, 1703.252 
	L 176.229, 1720.911 
	L 161.609, 1710.289 
" />
<path d="M 161.192, 1662.299 
	L 161.191, 1662.300 
	L 174.103, 1644.527 
	L 188.724, 1655.148 
	L 175.811, 1672.922 
	L 161.191, 1662.300 
" />
<path d="M 165.864, 1607.497 
	L 165.863, 1607.497 
	L 178.858, 1589.610 
	L 193.479, 1600.231 
	L 180.483, 1618.119 
	L 165.863, 1607.497 
" />
<path d="M 175.625, 1545.882 
	L 175.624, 1545.883 
	L 188.703, 1527.880 
	L 203.323, 1538.501 
	L 190.244, 1556.504 
	L 175.624, 1545.883 
" />
<path d="M 190.475, 1477.454 
	L 190.474, 1477.454 
	L 203.637, 1459.337 
	L 218.256, 1469.959 
	L 205.094, 1488.076 
	L 190.474, 1477.454 
" />
<path d="M 210.414, 1402.212 
	L 210.414, 1402.213 
	L 223.659, 1383.981 
	L 238.279, 1394.603 
	L 225.033, 1412.835 
	L 210.414, 1402.213 
" />
<path d="M 235.443, 1320.158 
	L 235.442, 1320.159 
	L 248.771, 1301.813 
	L 263.391, 1312.434 
	L 250.063, 1330.781 
	L 235.442, 1320.159 
" />
<path d="M 265.561, 1231.292 
	L 265.560, 1231.292 
	L 278.973, 1212.831 
	L 293.593, 1223.452 
	L 280.181, 1241.914 
	L 265.560, 1231.292 
" />
<path d="M 300.769, 1135.612 
	L 300.768, 1135.612 
	L 314.264, 1117.036 
	L 328.883, 1127.658 
	L 315.388, 1146.234 
	L 300.768, 1135.612 
" />
<path d="M 341.065, 1033.119 
	L 341.065, 1033.119 
	L 354.643, 1014.429 
	L 369.263, 1025.050 
	L 355.684, 1043.741 
	L 341.065, 1033.119 
" />
<path d="M 386.451, 923.813 
	L 386.450, 923.813 
	L 400.112, 905.008 
	L 414.732, 915.630 
	L 401.070, 934.435 
	L 386.450, 923.813 
" />
<path d="M 436.926, 807.694 
	L 436.925, 807.695 
	L 450.671, 788.775 
	L 465.291, 799.396 
	L 451.546, 818.316 
	L 436.925, 807.695 
" />
<path d="M 492.491, 684.762 
	L 492.490, 684.763 
	L 506.319, 665.729 
	L 520.938, 676.350 
	L 507.110, 695.385 
	L 492.490, 684.763 
" />
<path d="M 553.144, 555.017 
	L 553.144, 555.018 
	L 567.055, 535.869 
	L 581.676, 546.491 
	L 567.763, 565.639 
	L 553.144, 555.018 
" />
<path d="M 618.888, 418.460 
	L 618.887, 418.460 
	L 632.882, 399.197 
	L 647.502, 409.818 
	L 633.507, 429.082 
	L 618.887, 418.460 
" />
<path d="M 689.720, 275.089 
	L 689.719, 275.090 
	L 703.797, 255.711 
	L 718.417, 266.333 
	L 704.339, 285.711 
	L 689.719, 275.090 
" />
<path d="M 258.708, 1806.898 
	L 258.707, 1806.898 
	L 243.909, 1822.162 
	L 230.680, 1809.338 
	L 245.478, 1794.073 
	L 258.707, 1806.898 
" />
<path d="M 237.456, 1785.628 
	L 237.455, 1785.629 
	L 222.559, 1800.994 
	L 209.330, 1788.169 
	L 224.227, 1772.803 
	L 237.455, 1785.629 
" />
<path d="M 221.294, 1757.545 
	L 221.294, 1757.546 
	L 206.298, 1773.014 
	L 193.069, 1760.188 
	L 208.064, 1744.720 
	L 221.294, 1757.546 
" />
<path d="M 210.222, 1722.649 
	L 210.221, 1722.650 
	L 195.127, 1738.219 
	L 181.898, 1725.394 
	L 196.992, 1709.825 
	L 210.221, 1722.650 
" />
<path d="M 204.238, 1680.941 
	L 204.237, 1680.942 
	L 189.045, 1696.613 
	L 175.815, 1683.787 
	L 191.008, 1668.116 
	L 204.237, 1680.942 
" />
<path d="M 203.344, 1632.419 
	L 203.343, 1632.419 
	L 188.052, 1648.193 
	L 174.823, 1635.367 
	L 190.114, 1619.595 
	L 203.343, 1632.419 
" />
<path d="M 207.539, 1577.084 
	L 207.538, 1577.085 
	L 192.148, 1592.960 
	L 178.919, 1580.135 
	L 194.309, 1564.260 
	L 207.538, 1577.085 
" />
<path d="M 216.823, 1514.937 
	L 216.822, 1514.938 
	L 201.334, 1530.914 
	L 188.104, 1518.089 
	L 203.593, 1502.112 
	L 216.822, 1514.938 
" />
<path d="M 231.197, 1445.976 
	L 231.196, 1445.977 
	L 215.608, 1462.055 
	L 202.380, 1449.230 
	L 217.967, 1433.152 
	L 231.196, 1445.977 
" />
<path d="M 250.659, 1370.203 
	L 250.659, 1370.203 
	L 234.972, 1386.384 
	L 221.744, 1373.559 
	L 237.429, 1357.379 
	L 250.659, 1370.203 
" />
<path d="M 275.212, 1287.617 
	L 275.211, 1287.617 
	L 259.426, 1303.899 
	L 246.197, 1291.074 
	L 261.982, 1274.792 
	L 275.211, 1287.617 
" />
<path d="M 304.853, 1198.218 
	L 304.852, 1198.218 
	L 288.969, 1214.602 
	L 275.739, 1201.777 
	L 291.623, 1185.393 
	L 304.852, 1198.218 
" />
<path d="M 339.583, 1102.005 
	L 339.582, 1102.005 
	L 323.600, 1118.491 
	L 310.371, 1105.666 
	L 326.353, 1089.181 
	L 339.582, 1102.005 
" />
<path d="M 379.403, 998.980 
	L 379.402, 998.980 
	L 363.322, 1015.568 
	L 350.092, 1002.743 
	L 366.173, 986.156 
	L 379.402, 998.980 
" />
<path d="M 424.312, 889.142 
	L 424.311, 889.143 
	L 408.132, 905.831 
	L 394.903, 893.006 
	L 411.082, 876.317 
	L 424.311, 889.143 
" />
<path d="M 474.311, 772.491 
	L 474.310, 772.491 
	L 458.032, 789.282 
	L 444.803, 776.457 
	L 461.081, 759.666 
	L 474.310, 772.491 
" />
<path d="M 529.398, 649.026 
	L 529.397, 649.027 
	L 513.021, 665.919 
	L 499.792, 653.095 
	L 516.168, 636.202 
	L 529.397, 649.027 
" />
<path d="M 589.575, 518.749 
	L 589.574, 518.750 
	L 573.099, 535.744 
	L 559.870, 522.919 
	L 576.345, 505.925 
	L 589.574, 518.750 
" />
<path d="M 654.841, 381.660 
	L 654.840, 381.660 
	L 638.267, 398.756 
	L 625.037, 385.931 
	L 641.611, 368.835 
	L 654.840, 381.660 
" />
<path d="M 725.197, 237.757 
	L 725.196, 237.757 
	L 708.523, 254.955 
	L 695.294, 242.130 
	L 711.967, 224.932 
	L 725.196, 237.757 
" />
<path d="M 247.504, 1784.497 
	L 247.504, 1784.498 
	L 264.308, 1771.475 
	L 275.812, 1786.318 
	L 259.008, 1799.341 
	L 247.504, 1784.498 
" />
<path d="M 225.580, 1762.897 
	L 225.580, 1762.898 
	L 242.495, 1749.788 
	L 253.999, 1764.632 
	L 237.083, 1777.742 
	L 225.580, 1762.898 
" />
<path d="M 208.745, 1734.485 
	L 208.744, 1734.486 
	L 225.772, 1721.289 
	L 237.276, 1736.132 
	L 220.248, 1749.329 
	L 208.744, 1734.486 
" />
<path d="M 196.999, 1699.259 
	L 196.998, 1699.260 
	L 214.138, 1685.977 
	L 225.642, 1700.820 
	L 208.502, 1714.103 
	L 196.998, 1699.260 
" />
<path d="M 190.342, 1657.221 
	L 190.341, 1657.221 
	L 207.594, 1643.851 
	L 219.098, 1658.694 
	L 201.845, 1672.065 
	L 190.341, 1657.221 
" />
<path d="M 188.775, 1608.370 
	L 188.774, 1608.370 
	L 206.138, 1594.913 
	L 217.642, 1609.757 
	L 200.278, 1623.214 
	L 188.774, 1608.370 
" />
<path d="M 192.297, 1552.705 
	L 192.296, 1552.706 
	L 209.772, 1539.162 
	L 221.276, 1554.005 
	L 203.800, 1567.549 
	L 192.296, 1552.706 
" />
<path d="M 200.908, 1490.228 
	L 200.907, 1490.229 
	L 218.495, 1476.598 
	L 230.000, 1491.441 
	L 212.411, 1505.072 
	L 200.907, 1490.229 
" />
<path d="M 214.608, 1420.937 
	L 214.607, 1420.938 
	L 232.308, 1407.220 
	L 243.812, 1422.064 
	L 226.111, 1435.782 
	L 214.607, 1420.938 
" />
<path d="M 233.398, 1344.834 
	L 233.398, 1344.835 
	L 251.210, 1331.031 
	L 262.714, 1345.874 
	L 244.901, 1359.678 
	L 233.398, 1344.835 
" />
<path d="M 257.277, 1261.918 
	L 257.276, 1261.919 
	L 275.201, 1248.027 
	L 286.705, 1262.871 
	L 268.780, 1276.762 
	L 257.276, 1261.919 
" />
<path d="M 286.245, 1172.189 
	L 286.245, 1172.190 
	L 304.281, 1158.212 
	L 315.785, 1173.055 
	L 297.748, 1187.034 
	L 286.245, 1172.190 
" />
<path d="M 320.303, 1075.647 
	L 320.302, 1075.648 
	L 338.450, 1061.583 
	L 349.954, 1076.426 
	L 331.806, 1090.491 
	L 320.302, 1075.648 
" />
<path d="M 359.449, 972.292 
	L 359.449, 972.293 
	L 377.709, 958.141 
	L 389.213, 972.984 
	L 370.952, 987.136 
	L 359.449, 972.293 
" />
<path d="M 403.685, 862.124 
	L 403.685, 862.124 
	L 422.058, 847.886 
	L 433.561, 862.729 
	L 415.188, 876.968 
	L 403.685, 862.124 
" />
<path d="M 453.010, 745.143 
	L 453.010, 745.143 
	L 471.494, 730.818 
	L 482.998, 745.661 
	L 464.514, 759.987 
	L 453.010, 745.143 
" />
<path d="M 507.425, 621.349 
	L 507.424, 621.349 
	L 526.021, 606.937 
	L 537.525, 621.781 
	L 518.929, 636.193 
	L 507.424, 621.349 
" />
<path d="M 566.929, 490.742 
	L 566.928, 490.743 
	L 585.637, 476.244 
	L 597.141, 491.088 
	L 578.432, 505.587 
	L 566.928, 490.743 
" />
<path d="M 631.522, 353.322 
	L 631.522, 353.323 
	L 650.342, 338.737 
	L 661.846, 353.581 
	L 643.025, 368.167 
	L 631.522, 353.323 
" />
<path d="M 701.204, 209.090 
	L 701.203, 209.091 
	L 720.136, 194.418 
	L 731.640, 209.261 
	L 712.708, 223.934 
	L 701.203, 209.091 
" />
<path d="M 292.594, 1765.750 
	L 292.594, 1765.751 
	L 274.120, 1776.272 
	L 264.650, 1759.646 
	L 283.124, 1749.124 
	L 292.594, 1765.751 
" />
<path d="M 270.220, 1743.648 
	L 270.219, 1743.648 
	L 251.622, 1754.240 
	L 242.152, 1737.613 
	L 260.750, 1727.022 
	L 270.219, 1743.648 
" />
<path d="M 252.934, 1714.733 
	L 252.933, 1714.733 
	L 234.213, 1725.395 
	L 224.744, 1708.768 
	L 243.464, 1698.107 
	L 252.933, 1714.733 
" />
<path d="M 240.738, 1679.004 
	L 240.737, 1679.005 
	L 221.895, 1689.737 
	L 212.425, 1673.111 
	L 231.268, 1662.379 
	L 240.737, 1679.005 
" />
<path d="M 233.632, 1636.463 
	L 233.631, 1636.464 
	L 214.664, 1647.266 
	L 205.195, 1630.639 
	L 224.162, 1619.838 
	L 233.631, 1636.464 
" />
<path d="M 231.614, 1587.109 
	L 231.613, 1587.110 
	L 212.523, 1597.982 
	L 203.054, 1581.356 
	L 222.144, 1570.484 
	L 231.613, 1587.110 
" />
<path d="M 234.685, 1530.943 
	L 234.685, 1530.943 
	L 215.472, 1541.885 
	L 206.003, 1525.259 
	L 225.215, 1514.317 
	L 234.685, 1530.943 
" />
<path d="M 242.847, 1467.963 
	L 242.846, 1467.963 
	L 223.510, 1478.976 
	L 214.041, 1462.349 
	L 233.376, 1451.337 
	L 242.846, 1467.963 
" />
<path d="M 256.097, 1398.169 
	L 256.096, 1398.170 
	L 236.637, 1409.253 
	L 227.168, 1392.627 
	L 246.627, 1381.544 
	L 256.096, 1398.170 
" />
<path d="M 274.436, 1321.564 
	L 274.436, 1321.564 
	L 254.854, 1332.717 
	L 245.384, 1316.091 
	L 264.966, 1304.938 
	L 274.436, 1321.564 
" />
<path d="M 297.865, 1238.145 
	L 297.865, 1238.146 
	L 278.159, 1249.369 
	L 268.690, 1232.742 
	L 288.395, 1221.519 
	L 297.865, 1238.146 
" />
<path d="M 326.383, 1147.913 
	L 326.383, 1147.914 
	L 306.554, 1159.207 
	L 297.085, 1142.581 
	L 316.913, 1131.287 
	L 326.383, 1147.914 
" />
<path d="M 359.991, 1050.868 
	L 359.990, 1050.869 
	L 340.038, 1062.233 
	L 330.569, 1045.606 
	L 350.520, 1034.243 
	L 359.990, 1050.869 
" />
<path d="M 398.687, 947.011 
	L 398.687, 947.012 
	L 378.612, 958.445 
	L 369.142, 941.819 
	L 389.217, 930.385 
	L 398.687, 947.012 
" />
<path d="M 442.473, 836.340 
	L 442.473, 836.341 
	L 422.274, 847.845 
	L 412.805, 831.218 
	L 433.003, 819.714 
	L 442.473, 836.341 
" />
<path d="M 491.348, 718.857 
	L 491.348, 718.858 
	L 471.026, 730.431 
	L 461.557, 713.805 
	L 481.878, 702.231 
	L 491.348, 718.858 
" />
<path d="M 545.313, 594.561 
	L 545.312, 594.561 
	L 524.867, 606.205 
	L 515.398, 589.579 
	L 535.842, 577.935 
	L 545.312, 594.561 
" />
<path d="M 604.366, 463.451 
	L 604.366, 463.452 
	L 583.798, 475.165 
	L 574.329, 458.539 
	L 594.896, 446.825 
	L 604.366, 463.452 
" />
<path d="M 668.509, 325.529 
	L 668.509, 325.529 
	L 647.818, 337.314 
	L 638.349, 320.687 
	L 659.039, 308.903 
	L 668.509, 325.529 
" />
<path d="M 737.741, 180.793 
	L 737.741, 180.794 
	L 716.927, 192.648 
	L 707.457, 176.021 
	L 728.272, 164.168 
	L 737.741, 180.794 
" />
<path d="M 282.121, 1734.829 
	L 282.120, 1734.830 
	L 301.894, 1727.021 
	L 309.052, 1745.146 
	L 289.278, 1752.956 
	L 282.120, 1734.830 
" />
<path d="M 259.051, 1712.364 
	L 259.050, 1712.365 
	L 278.956, 1704.503 
	L 286.114, 1722.629 
	L 266.209, 1730.490 
	L 259.050, 1712.365 
" />
<path d="M 241.070, 1683.086 
	L 241.070, 1683.087 
	L 261.107, 1675.173 
	L 268.265, 1693.299 
	L 248.229, 1701.212 
	L 241.070, 1683.087 
" />
<path d="M 228.179, 1646.995 
	L 228.178, 1646.995 
	L 248.348, 1639.030 
	L 255.506, 1657.156 
	L 235.337, 1665.121 
	L 228.178, 1646.995 
" />
<path d="M 220.377, 1604.091 
	L 220.377, 1604.091 
	L 240.678, 1596.074 
	L 247.836, 1614.200 
	L 227.535, 1622.217 
	L 220.377, 1604.091 
" />
<path d="M 217.665, 1554.374 
	L 217.664, 1554.375 
	L 238.097, 1546.305 
	L 245.255, 1564.430 
	L 224.822, 1572.500 
	L 217.664, 1554.375 
" />
<path d="M 220.041, 1497.844 
	L 220.040, 1497.845 
	L 240.605, 1489.723 
	L 247.763, 1507.849 
	L 227.198, 1515.970 
	L 220.040, 1497.845 
" />
<path d="M 227.507, 1434.501 
	L 227.506, 1434.502 
	L 248.202, 1426.328 
	L 255.360, 1444.454 
	L 234.664, 1452.627 
	L 227.506, 1434.502 
" />
<path d="M 240.062, 1364.345 
	L 240.061, 1364.346 
	L 260.889, 1356.120 
	L 268.048, 1374.246 
	L 247.219, 1382.472 
	L 240.061, 1364.346 
" />
<path d="M 257.706, 1287.376 
	L 257.705, 1287.376 
	L 278.666, 1279.099 
	L 285.824, 1297.225 
	L 264.864, 1305.503 
	L 257.705, 1287.376 
" />
<path d="M 280.439, 1203.594 
	L 280.439, 1203.595 
	L 301.530, 1195.265 
	L 308.689, 1213.391 
	L 287.597, 1221.721 
	L 280.439, 1203.595 
" />
<path d="M 308.262, 1113.000 
	L 308.261, 1113.000 
	L 329.485, 1104.618 
	L 336.644, 1122.744 
	L 315.420, 1131.127 
	L 308.261, 1113.000 
" />
<path d="M 341.174, 1015.592 
	L 341.174, 1015.593 
	L 362.529, 1007.159 
	L 369.687, 1025.284 
	L 348.332, 1033.718 
	L 341.174, 1015.593 
" />
<path d="M 379.176, 911.371 
	L 379.175, 911.372 
	L 400.662, 902.886 
	L 407.820, 921.012 
	L 386.333, 929.498 
	L 379.175, 911.372 
" />
<path d="M 422.267, 800.337 
	L 422.266, 800.338 
	L 443.885, 791.800 
	L 451.043, 809.926 
	L 429.424, 818.464 
	L 422.266, 800.338 
" />
<path d="M 470.446, 682.491 
	L 470.446, 682.492 
	L 492.197, 673.902 
	L 499.355, 692.028 
	L 477.604, 700.617 
	L 470.446, 682.492 
" />
<path d="M 523.716, 557.831 
	L 523.715, 557.832 
	L 545.598, 549.190 
	L 552.756, 567.316 
	L 530.873, 575.958 
	L 523.715, 557.832 
" />
<path d="M 582.074, 426.359 
	L 582.073, 426.360 
	L 604.088, 417.666 
	L 611.246, 435.791 
	L 589.231, 444.486 
	L 582.073, 426.360 
" />
<path d="M 645.522, 288.074 
	L 645.521, 288.074 
	L 667.668, 279.328 
	L 674.826, 297.454 
	L 652.679, 306.201 
	L 645.521, 288.074 
" />
<path d="M 714.059, 142.975 
	L 714.058, 142.976 
	L 736.336, 134.178 
	L 743.494, 152.304 
	L 721.216, 161.102 
	L 714.058, 142.976 
" />
<path d="M 325.196, 1724.457 
	L 325.195, 1724.458 
	L 304.517, 1729.398 
	L 299.906, 1710.099 
	L 320.584, 1705.159 
	L 325.195, 1724.458 
" />
<path d="M 301.693, 1701.525 
	L 301.692, 1701.526 
	L 280.877, 1706.499 
	L 276.265, 1687.200 
	L 297.081, 1682.226 
	L 301.692, 1701.526 
" />
<path d="M 283.280, 1671.781 
	L 283.279, 1671.781 
	L 262.325, 1676.787 
	L 257.714, 1657.488 
	L 278.668, 1652.482 
	L 283.279, 1671.781 
" />
<path d="M 269.955, 1635.223 
	L 269.955, 1635.224 
	L 248.863, 1640.263 
	L 244.252, 1620.963 
	L 265.343, 1615.924 
	L 269.955, 1635.224 
" />
<path d="M 261.720, 1591.852 
	L 261.719, 1591.853 
	L 240.491, 1596.926 
	L 235.879, 1577.626 
	L 257.108, 1572.554 
	L 261.719, 1591.853 
" />
<path d="M 258.574, 1541.668 
	L 258.574, 1541.669 
	L 237.207, 1546.774 
	L 232.595, 1527.475 
	L 253.963, 1522.370 
	L 258.574, 1541.669 
" />
<path d="M 260.518, 1484.672 
	L 260.517, 1484.673 
	L 239.012, 1489.811 
	L 234.401, 1470.512 
	L 255.906, 1465.373 
	L 260.517, 1484.673 
" />
<path d="M 267.551, 1420.863 
	L 267.550, 1420.863 
	L 245.908, 1426.035 
	L 241.296, 1406.735 
	L 262.939, 1401.564 
	L 267.550, 1420.863 
" />
<path d="M 279.673, 1350.240 
	L 279.673, 1350.240 
	L 257.892, 1355.445 
	L 253.281, 1336.145 
	L 275.061, 1330.941 
	L 279.673, 1350.240 
" />
<path d="M 296.885, 1272.804 
	L 296.884, 1272.805 
	L 274.966, 1278.042 
	L 270.354, 1258.743 
	L 292.273, 1253.506 
	L 296.884, 1272.805 
" />
<path d="M 319.185, 1188.556 
	L 319.185, 1188.557 
	L 297.128, 1193.827 
	L 292.517, 1174.528 
	L 314.573, 1169.257 
	L 319.185, 1188.557 
" />
<path d="M 346.575, 1097.495 
	L 346.574, 1097.496 
	L 324.380, 1102.798 
	L 319.769, 1083.499 
	L 341.963, 1078.197 
	L 346.574, 1097.496 
" />
<path d="M 379.054, 999.621 
	L 379.054, 999.622 
	L 356.722, 1004.957 
	L 352.110, 985.657 
	L 374.443, 980.322 
	L 379.054, 999.622 
" />
<path d="M 416.623, 894.933 
	L 416.622, 894.934 
	L 394.152, 900.303 
	L 389.541, 881.004 
	L 412.011, 875.635 
	L 416.622, 894.934 
" />
<path d="M 459.281, 783.433 
	L 459.280, 783.434 
	L 436.672, 788.835 
	L 432.061, 769.536 
	L 454.669, 764.135 
	L 459.280, 783.434 
" />
<path d="M 507.027, 665.120 
	L 507.027, 665.121 
	L 484.281, 670.555 
	L 479.670, 651.256 
	L 502.415, 645.822 
	L 507.027, 665.121 
" />
<path d="M 559.864, 539.994 
	L 559.863, 539.994 
	L 536.980, 545.462 
	L 532.368, 526.163 
	L 555.252, 520.695 
	L 559.863, 539.994 
" />
<path d="M 617.789, 408.055 
	L 617.788, 408.056 
	L 594.767, 413.556 
	L 590.156, 394.257 
	L 613.177, 388.756 
	L 617.788, 408.056 
" />
<path d="M 680.804, 269.303 
	L 680.803, 269.303 
	L 657.644, 274.837 
	L 653.033, 255.538 
	L 676.192, 250.004 
	L 680.803, 269.303 
" />
<path d="M 748.908, 123.738 
	L 748.907, 123.739 
	L 725.610, 129.305 
	L 720.999, 110.006 
	L 744.296, 104.440 
	L 748.907, 123.739 
" />
<path d="M 317.994, 1685.500 
	L 317.993, 1685.500 
	L 339.162, 1683.527 
	L 341.036, 1703.637 
	L 319.868, 1705.610 
	L 317.993, 1685.500 
" />
<path d="M 293.784, 1662.167 
	L 293.783, 1662.168 
	L 315.093, 1660.181 
	L 316.967, 1680.291 
	L 295.658, 1682.277 
	L 293.783, 1662.168 
" />
<path d="M 274.664, 1632.020 
	L 274.663, 1632.021 
	L 296.113, 1630.022 
	L 297.987, 1650.132 
	L 276.537, 1652.131 
	L 274.663, 1632.021 
" />
<path d="M 260.632, 1595.062 
	L 260.632, 1595.063 
	L 282.223, 1593.050 
	L 284.097, 1613.160 
	L 262.506, 1615.173 
	L 260.632, 1595.063 
" />
<path d="M 251.690, 1551.290 
	L 251.689, 1551.291 
	L 273.421, 1549.265 
	L 275.296, 1569.375 
	L 253.563, 1571.401 
	L 251.689, 1551.291 
" />
<path d="M 247.837, 1500.705 
	L 247.836, 1500.706 
	L 269.710, 1498.668 
	L 271.585, 1518.777 
	L 249.710, 1520.816 
	L 247.836, 1500.706 
" />
<path d="M 249.073, 1443.308 
	L 249.073, 1443.309 
	L 271.087, 1441.257 
	L 272.962, 1461.366 
	L 250.947, 1463.419 
	L 249.073, 1443.309 
" />
<path d="M 255.399, 1379.098 
	L 255.398, 1379.099 
	L 277.554, 1377.033 
	L 279.429, 1397.142 
	L 257.272, 1399.208 
	L 255.398, 1379.099 
" />
<path d="M 266.814, 1308.074 
	L 266.813, 1308.074 
	L 289.110, 1305.997 
	L 290.984, 1326.106 
	L 268.688, 1328.184 
	L 266.813, 1308.074 
" />
<path d="M 283.318, 1230.238 
	L 283.317, 1230.238 
	L 305.756, 1228.146 
	L 307.630, 1248.256 
	L 285.192, 1250.348 
	L 283.317, 1230.238 
" />
<path d="M 304.912, 1145.588 
	L 304.911, 1145.589 
	L 327.490, 1143.484 
	L 329.365, 1163.594 
	L 306.785, 1165.699 
	L 304.911, 1145.589 
" />
<path d="M 331.594, 1054.125 
	L 331.593, 1054.126 
	L 354.314, 1052.009 
	L 356.188, 1072.118 
	L 333.468, 1074.236 
	L 331.593, 1054.126 
" />
<path d="M 363.366, 955.850 
	L 363.365, 955.851 
	L 386.227, 953.720 
	L 388.101, 973.830 
	L 365.240, 975.961 
	L 363.365, 955.851 
" />
<path d="M 400.227, 850.762 
	L 400.226, 850.763 
	L 423.229, 848.619 
	L 425.103, 868.728 
	L 402.101, 870.873 
	L 400.226, 850.763 
" />
<path d="M 442.178, 738.861 
	L 442.177, 738.862 
	L 465.321, 736.704 
	L 467.195, 756.814 
	L 444.052, 758.971 
	L 442.177, 738.862 
" />
<path d="M 489.217, 620.147 
	L 489.217, 620.148 
	L 512.502, 617.977 
	L 514.376, 638.087 
	L 491.091, 640.257 
	L 489.217, 620.148 
" />
<path d="M 541.346, 494.620 
	L 541.346, 494.620 
	L 564.772, 492.437 
	L 566.646, 512.546 
	L 543.220, 514.730 
	L 541.346, 494.620 
" />
<path d="M 598.564, 362.279 
	L 598.564, 362.280 
	L 622.131, 360.084 
	L 624.005, 380.193 
	L 600.438, 382.389 
	L 598.564, 362.280 
" />
<path d="M 660.872, 223.126 
	L 660.871, 223.127 
	L 684.580, 220.917 
	L 686.454, 241.027 
	L 662.746, 243.237 
	L 660.871, 223.127 
" />
<path d="M 728.269, 77.160 
	L 728.269, 77.161 
	L 752.118, 74.938 
	L 753.992, 95.048 
	L 730.142, 97.271 
	L 728.269, 77.161 
" />
<path d="M 356.597, 1682.638 
	L 356.596, 1682.639 
	L 335.362, 1681.605 
	L 336.361, 1661.078 
	L 357.596, 1662.112 
	L 356.596, 1682.639 
" />
<path d="M 331.961, 1658.878 
	L 331.960, 1658.879 
	L 310.584, 1657.838 
	L 311.584, 1637.311 
	L 332.960, 1638.352 
	L 331.960, 1658.879 
" />
<path d="M 312.413, 1628.305 
	L 312.413, 1628.306 
	L 290.895, 1627.258 
	L 291.895, 1606.731 
	L 313.413, 1607.779 
	L 312.413, 1628.306 
" />
<path d="M 297.956, 1590.920 
	L 297.955, 1590.920 
	L 276.296, 1589.865 
	L 277.295, 1569.339 
	L 298.955, 1570.393 
	L 297.955, 1590.920 
" />
<path d="M 288.587, 1546.720 
	L 288.587, 1546.721 
	L 266.786, 1545.660 
	L 267.785, 1525.132 
	L 289.586, 1526.194 
	L 288.587, 1546.721 
" />
<path d="M 284.308, 1495.708 
	L 284.307, 1495.709 
	L 262.365, 1494.641 
	L 263.364, 1474.114 
	L 285.306, 1475.182 
	L 284.307, 1495.709 
" />
<path d="M 285.118, 1437.883 
	L 285.117, 1437.884 
	L 263.033, 1436.809 
	L 264.032, 1416.282 
	L 286.116, 1417.357 
	L 285.117, 1437.884 
" />
<path d="M 291.017, 1373.246 
	L 291.016, 1373.246 
	L 268.791, 1372.164 
	L 269.790, 1351.637 
	L 292.016, 1352.719 
	L 291.016, 1373.246 
" />
<path d="M 302.005, 1301.795 
	L 302.005, 1301.796 
	L 279.638, 1300.706 
	L 280.637, 1280.180 
	L 303.004, 1281.268 
	L 302.005, 1301.796 
" />
<path d="M 318.083, 1223.531 
	L 318.083, 1223.532 
	L 295.574, 1222.436 
	L 296.573, 1201.909 
	L 319.082, 1203.005 
	L 318.083, 1223.532 
" />
<path d="M 339.250, 1138.455 
	L 339.250, 1138.455 
	L 316.599, 1137.352 
	L 317.599, 1116.826 
	L 340.249, 1117.928 
	L 339.250, 1138.455 
" />
<path d="M 365.506, 1046.565 
	L 365.506, 1046.565 
	L 342.714, 1045.456 
	L 343.714, 1024.929 
	L 366.506, 1026.039 
	L 365.506, 1046.565 
" />
<path d="M 396.852, 947.862 
	L 396.851, 947.863 
	L 373.918, 946.746 
	L 374.917, 926.220 
	L 397.851, 927.336 
	L 396.851, 947.863 
" />
<path d="M 433.287, 842.347 
	L 433.286, 842.348 
	L 410.212, 841.224 
	L 411.211, 820.697 
	L 434.285, 821.821 
	L 433.286, 842.348 
" />
<path d="M 474.811, 730.018 
	L 474.810, 730.019 
	L 451.594, 728.889 
	L 452.593, 708.362 
	L 475.809, 709.492 
	L 474.810, 730.019 
" />
<path d="M 521.425, 610.877 
	L 521.424, 610.878 
	L 498.066, 609.740 
	L 499.065, 589.213 
	L 522.423, 590.350 
	L 521.424, 610.878 
" />
<path d="M 573.127, 484.922 
	L 573.126, 484.923 
	L 549.626, 483.779 
	L 550.626, 463.252 
	L 574.126, 464.396 
	L 573.126, 484.923 
" />
<path d="M 629.919, 352.155 
	L 629.919, 352.156 
	L 606.277, 351.005 
	L 607.276, 330.478 
	L 630.918, 331.629 
	L 629.919, 352.156 
" />
<path d="M 691.800, 212.575 
	L 691.800, 212.576 
	L 668.016, 211.418 
	L 669.016, 190.891 
	L 692.799, 192.049 
	L 691.800, 212.576 
" />
<path d="M 758.770, 66.182 
	L 758.769, 66.183 
	L 734.845, 65.018 
	L 735.845, 44.490 
	L 759.769, 45.655 
	L 758.769, 66.183 
" />
<path d="M 354.983, 1636.874 
	L 354.982, 1636.875 
	L 375.858, 1640.895 
	L 371.905, 1661.423 
	L 351.028, 1657.403 
	L 354.982, 1636.875 
" />
<path d="M 329.638, 1612.673 
	L 329.637, 1612.673 
	L 350.653, 1616.721 
	L 346.699, 1637.249 
	L 325.684, 1633.202 
	L 329.637, 1612.673 
" />
<path d="M 309.382, 1581.659 
	L 309.382, 1581.660 
	L 330.537, 1585.733 
	L 326.583, 1606.261 
	L 305.429, 1602.188 
	L 309.382, 1581.660 
" />
<path d="M 294.216, 1543.832 
	L 294.216, 1543.833 
	L 315.510, 1547.933 
	L 311.557, 1568.461 
	L 290.263, 1564.361 
	L 294.216, 1543.833 
" />
<path d="M 284.140, 1499.192 
	L 284.139, 1499.193 
	L 305.572, 1503.320 
	L 301.619, 1523.848 
	L 280.186, 1519.721 
	L 284.139, 1499.193 
" />
<path d="M 279.152, 1447.739 
	L 279.152, 1447.739 
	L 300.724, 1451.894 
	L 296.770, 1472.422 
	L 275.199, 1468.268 
	L 279.152, 1447.739 
" />
<path d="M 279.254, 1389.473 
	L 279.254, 1389.474 
	L 300.965, 1393.655 
	L 297.011, 1414.184 
	L 275.300, 1410.003 
	L 279.254, 1389.474 
" />
<path d="M 284.445, 1324.395 
	L 284.445, 1324.395 
	L 306.296, 1328.603 
	L 302.342, 1349.131 
	L 280.492, 1344.923 
	L 284.445, 1324.395 
" />
<path d="M 294.726, 1252.503 
	L 294.725, 1252.503 
	L 316.715, 1256.738 
	L 312.761, 1277.267 
	L 290.772, 1273.032 
	L 294.725, 1252.503 
" />
<path d="M 310.095, 1173.798 
	L 310.095, 1173.799 
	L 332.223, 1178.060 
	L 328.270, 1198.588 
	L 306.142, 1194.327 
	L 310.095, 1173.799 
" />
<path d="M 330.554, 1088.281 
	L 330.554, 1088.282 
	L 352.821, 1092.570 
	L 348.868, 1113.097 
	L 326.600, 1108.809 
	L 330.554, 1088.282 
" />
<path d="M 356.102, 995.950 
	L 356.102, 995.951 
	L 378.509, 1000.266 
	L 374.556, 1020.794 
	L 352.149, 1016.479 
	L 356.102, 995.951 
" />
<path d="M 386.740, 896.806 
	L 386.739, 896.807 
	L 409.285, 901.149 
	L 405.332, 921.677 
	L 382.786, 917.335 
	L 386.739, 896.807 
" />
<path d="M 422.466, 790.850 
	L 422.466, 790.851 
	L 445.151, 795.219 
	L 441.198, 815.747 
	L 418.513, 811.379 
	L 422.466, 790.851 
" />
<path d="M 463.282, 678.081 
	L 463.282, 678.081 
	L 486.106, 682.476 
	L 482.153, 703.005 
	L 459.329, 698.610 
	L 463.282, 678.081 
" />
<path d="M 509.187, 558.498 
	L 509.187, 558.499 
	L 532.151, 562.921 
	L 528.198, 583.449 
	L 505.234, 579.027 
	L 509.187, 558.499 
" />
<path d="M 560.182, 432.103 
	L 560.181, 432.104 
	L 583.284, 436.552 
	L 579.331, 457.081 
	L 556.228, 452.632 
	L 560.181, 432.104 
" />
<path d="M 616.266, 298.894 
	L 616.265, 298.895 
	L 639.507, 303.371 
	L 635.555, 323.899 
	L 612.312, 319.423 
	L 616.265, 298.895 
" />
<path d="M 677.439, 158.873 
	L 677.439, 158.874 
	L 700.820, 163.376 
	L 696.866, 183.905 
	L 673.485, 179.402 
	L 677.439, 158.874 
" />
<path d="M 743.701, 12.039 
	L 743.701, 12.039 
	L 767.221, 16.569 
	L 763.268, 37.098 
	L 739.748, 32.568 
	L 743.701, 12.039 
" />
<path d="M 1172.147, 2080.636 
	L 1174.273, 2080.636 
	L 1174.981, 2079.573 
	L 1174.273, 2078.510 
	L 1172.855, 2078.510 
" />
<path d="M 1174.273, 2078.510 
	L 1174.981, 2077.447 
	L 1174.273, 2076.384 
	L 1172.147, 2076.384 
" />
<path d="M 1173.564, 2074.258 
	L 1173.564, 2071.069 
	L 1172.855, 2070.006 
	L 1172.147, 2071.069 
	L 1172.147, 2073.195 
	L 1172.855, 2074.258 
	L 1174.273, 2074.258 
	L 1174.981, 2073.195 
	L 1174.981, 2070.006 
" />
<path d="M 1174.981, 2063.628 
	L 1174.981, 2066.817 
	L 1174.273, 2067.880 
	L 1172.855, 2067.880 
	L 1172.147, 2066.817 
	L 1172.147, 2064.691 
	L 1174.981, 2064.691 
" />
<path d="M 1172.147, 2061.502 
	L 1173.564, 2061.502 
	L 1174.981, 2059.376 
	L 1173.564, 2057.250 
	L 1172.147, 2057.250 
" />
<path d="M 1173.564, 2055.124 
	L 1173.564, 2051.935 
	L 1172.855, 2050.872 
	L 1172.147, 2051.935 
	L 1172.147, 2054.061 
	L 1172.855, 2055.124 
	L 1174.273, 2055.124 
	L 1174.981, 2054.061 
	L 1174.981, 2050.872 
" />
<path d="M 1172.147, 2045.557 
	L 1172.147, 2047.683 
	L 1172.855, 2048.746 
	L 1173.564, 2047.683 
	L 1173.564, 2046.620 
	L 1174.273, 2045.557 
	L 1174.981, 2046.620 
	L 1174.981, 2048.746 
" />
<path d="M 1174.981, 2040.242 
	L 1174.981, 2041.305 
	L 1174.273, 2041.305 
	L 1174.273, 2040.242 
	L 1174.981, 2040.242 
" />
<path d="M 1176.399, 2035.990 
	L 1172.147, 2035.990 
	L 1172.147, 2033.864 
	L 1172.855, 2032.801 
	L 1174.273, 2032.801 
	L 1174.981, 2033.864 
	L 1174.981, 2035.990 
" />
<path d="M 1176.399, 2029.612 
	L 1173.564, 2025.360 
	L 1172.147, 2025.360 
" />
<path d="M 1172.147, 2029.612 
	L 1173.564, 2029.612 
	L 1174.981, 2027.486 
" />
<path d="M 1171.438, 1997.722 
	L 1170.729, 1996.659 
	L 1170.729, 1994.533 
	L 1171.438, 1993.470 
	L 1172.147, 1993.470 
	L 1174.273, 1997.722 
	L 1174.981, 1997.722 
	L 1174.981, 1993.470 
" />
<path d="M 1174.273, 1991.345 
	L 1174.981, 1990.282 
	L 1174.981, 1988.156 
	L 1174.273, 1987.093 
	L 1171.438, 1987.093 
	L 1170.729, 1988.156 
	L 1170.729, 1990.282 
	L 1171.438, 1991.345 
	L 1174.273, 1991.345 
" />
<path d="M 1174.981, 1983.904 
	L 1174.981, 1981.778 
" />
<path d="M 1174.981, 1982.841 
	L 1170.729, 1982.841 
	L 1171.438, 1983.904 
" />
<path d="M 1174.981, 1977.526 
	L 1174.981, 1976.463 
	L 1173.564, 1974.337 
	L 1171.438, 1974.337 
	L 1170.729, 1975.400 
	L 1170.729, 1977.526 
	L 1171.438, 1978.589 
	L 1172.147, 1978.589 
	L 1172.855, 1977.526 
	L 1172.855, 1974.337 
" />
<path d="M 1172.855, 1974.337 
" />
<path d="M 1172.855, 1972.211 
	L 1172.855, 1967.959 
" />
<path d="M 1174.273, 1965.833 
	L 1174.981, 1964.770 
	L 1174.981, 1962.644 
	L 1174.273, 1961.581 
	L 1171.438, 1961.581 
	L 1170.729, 1962.644 
	L 1170.729, 1964.770 
	L 1171.438, 1965.833 
	L 1174.273, 1965.833 
" />
<path d="M 1170.729, 1955.203 
	L 1170.729, 1957.329 
	L 1172.147, 1959.455 
	L 1174.273, 1959.455 
	L 1174.981, 1958.392 
	L 1174.981, 1956.266 
	L 1174.273, 1955.203 
	L 1173.564, 1955.203 
	L 1172.855, 1956.266 
	L 1172.855, 1959.455 
" />
<path d="M 1172.855, 1959.455 
" />
<path d="M 1172.855, 1953.077 
	L 1172.855, 1948.825 
" />
<path d="M 1174.273, 1946.699 
	L 1174.981, 1945.636 
	L 1174.981, 1943.510 
	L 1174.273, 1942.447 
	L 1171.438, 1942.447 
	L 1170.729, 1943.510 
	L 1170.729, 1945.636 
	L 1171.438, 1946.699 
	L 1174.273, 1946.699 
" />
<path d="M 1174.981, 1939.258 
	L 1174.981, 1938.195 
	L 1173.564, 1936.069 
	L 1171.438, 1936.069 
	L 1170.729, 1937.132 
	L 1170.729, 1939.258 
	L 1171.438, 1940.321 
	L 1172.147, 1940.321 
	L 1172.855, 1939.258 
	L 1172.855, 1936.069 
" />
<path d="M 1172.855, 1936.069 
" />
<path d="M 1174.273, 1927.565 
	L 1174.981, 1926.502 
	L 1174.981, 1924.376 
	L 1174.273, 1923.313 
	L 1171.438, 1923.313 
	L 1170.729, 1924.376 
	L 1170.729, 1926.502 
	L 1171.438, 1927.565 
	L 1174.273, 1927.565 
" />
<path d="M 1174.273, 1921.187 
	L 1174.981, 1920.124 
	L 1174.981, 1917.998 
	L 1174.273, 1916.935 
	L 1171.438, 1916.935 
	L 1170.729, 1917.998 
	L 1170.729, 1920.124 
	L 1171.438, 1921.187 
	L 1174.273, 1921.187 
" />
<path d="M 1172.855, 1913.746 
	L 1172.147, 1913.746 
	L 1172.147, 1912.683 
	L 1172.855, 1912.683 
	L 1172.855, 1913.746 
" />
<path d="M 1174.273, 1913.746 
	L 1174.273, 1912.683 
	L 1174.981, 1912.683 
	L 1174.981, 1913.746 
	L 1174.273, 1913.746 
" />
<path d="M 1174.981, 1907.368 
	L 1174.981, 1905.242 
" />
<path d="M 1174.981, 1906.305 
	L 1170.729, 1906.305 
	L 1171.438, 1907.368 
" />
<path d="M 1170.729, 1902.053 
	L 1170.729, 1897.801 
	L 1171.438, 1897.801 
	L 1173.564, 1902.053 
	L 1174.981, 1902.053 
" />
</g>
</svg>
