<?xml version="1.0" encoding="UTF-8" standalone="no" ?>
<svg width="100%" height="100%" viewBox="0 0 1151.112 227.723" xmlns="http://www.w3.org/2000/svg"><g>
</g><g style="stroke:rgb(0,0,0); fill:none; stroke-width:1.000mm" >
</g><g style="stroke:rgb(255,0,0); fill:none; stroke-width:0.100mm" >
<path d="M 8.751, 241.896 
	L 8.750, 241.897 
	L 8.750, 213.550 
	L 22.923, 213.550 
	L 22.923, 241.897 
	L 8.750, 241.897 
" />
<path d="M 31.674, 207.009 
	L 31.673, 207.009 
	L 5.898, 218.806 
	L 0.000, 205.918 
	L 25.775, 194.122 
	L 31.673, 207.009 
" />
<path d="M 9.743, 170.576 
	L 9.742, 170.576 
	L 31.195, 189.105 
	L 21.931, 199.831 
	L 0.478, 181.303 
	L 9.742, 170.576 
" />
<path d="M 5.073, 175.572 
	L 5.072, 175.572 
	L 12.993, 148.355 
	L 26.601, 152.315 
	L 18.680, 179.533 
	L 5.072, 175.572 
" />
<path d="M 30.891, 147.633 
	L 30.890, 147.633 
	L 2.845, 151.758 
	L 0.783, 137.735 
	L 28.828, 133.610 
	L 30.890, 147.633 
" />
<path d="M 14.073, 105.676 
	L 14.072, 105.676 
	L 29.493, 129.461 
	L 17.601, 137.172 
	L 2.180, 113.387 
	L 14.072, 105.676 
" />
<path d="M 2.252, 108.321 
	L 2.251, 108.322 
	L 17.461, 84.402 
	L 29.422, 92.007 
	L 14.211, 115.927 
	L 2.251, 108.322 
" />
<path d="M 28.908, 87.862 
	L 28.908, 87.863 
	L 0.827, 83.986 
	L 2.765, 69.946 
	L 30.846, 73.823 
	L 28.908, 87.863 
" />
<path d="M 18.544, 42.031 
	L 18.543, 42.031 
	L 26.704, 69.177 
	L 13.130, 73.258 
	L 4.969, 46.112 
	L 18.543, 42.031 
" />
<path d="M 0.514, 40.421 
	L 0.513, 40.421 
	L 21.801, 21.704 
	L 31.160, 32.348 
	L 9.872, 51.065 
	L 0.513, 40.421 
" />
<path d="M 42.419, 211.266 
	L 42.418, 211.267 
	L 57.840, 235.052 
	L 45.947, 242.763 
	L 30.526, 218.978 
	L 42.418, 211.267 
" />
<path d="M 30.599, 213.912 
	L 30.598, 213.912 
	L 45.808, 189.992 
	L 57.768, 197.598 
	L 42.558, 221.518 
	L 30.598, 213.912 
" />
<path d="M 57.255, 193.453 
	L 57.254, 193.453 
	L 29.173, 189.577 
	L 31.112, 175.537 
	L 59.192, 179.413 
	L 57.254, 193.453 
" />
<path d="M 46.890, 147.621 
	L 46.889, 147.622 
	L 55.050, 174.768 
	L 41.477, 178.848 
	L 33.316, 151.702 
	L 46.889, 147.622 
" />
<path d="M 28.860, 146.011 
	L 28.860, 146.012 
	L 50.148, 127.295 
	L 59.506, 137.939 
	L 38.218, 156.656 
	L 28.860, 146.012 
" />
<path d="M 54.231, 132.968 
	L 54.230, 132.969 
	L 28.351, 121.402 
	L 34.136, 108.462 
	L 60.014, 120.030 
	L 54.230, 132.969 
" />
<path d="M 51.145, 85.219 
	L 51.144, 85.220 
	L 51.395, 113.566 
	L 37.222, 113.691 
	L 36.971, 85.346 
	L 51.144, 85.220 
" />
<path d="M 28.343, 77.790 
	L 28.342, 77.790 
	L 54.012, 65.767 
	L 60.024, 78.601 
	L 34.354, 90.625 
	L 28.342, 77.790 
" />
<path d="M 50.407, 71.508 
	L 50.406, 71.509 
	L 28.791, 53.171 
	L 37.959, 42.363 
	L 59.575, 60.701 
	L 50.406, 71.509 
" />
<path d="M 54.845, 23.952 
	L 54.844, 23.953 
	L 47.165, 51.239 
	L 33.522, 47.400 
	L 41.201, 20.113 
	L 54.844, 23.953 
" />
<path d="M 82.577, 238.559 
	L 82.577, 238.560 
	L 56.698, 226.992 
	L 62.482, 214.053 
	L 88.361, 225.620 
	L 82.577, 238.560 
" />
<path d="M 79.491, 190.810 
	L 79.491, 190.811 
	L 79.741, 219.156 
	L 65.568, 219.282 
	L 65.317, 190.936 
	L 79.491, 190.811 
" />
<path d="M 56.689, 183.380 
	L 56.689, 183.381 
	L 82.359, 171.357 
	L 88.370, 184.192 
	L 62.700, 196.216 
	L 56.689, 183.381 
" />
<path d="M 78.754, 177.099 
	L 78.753, 177.099 
	L 57.137, 158.761 
	L 66.306, 147.954 
	L 87.922, 166.292 
	L 78.753, 177.099 
" />
<path d="M 83.191, 129.543 
	L 83.190, 129.543 
	L 75.511, 156.830 
	L 61.868, 152.990 
	L 69.547, 125.704 
	L 83.190, 129.543 
" />
<path d="M 57.433, 115.191 
	L 57.433, 115.192 
	L 85.440, 110.819 
	L 87.626, 124.822 
	L 59.619, 129.195 
	L 57.433, 115.192 
" />
<path d="M 74.434, 114.478 
	L 74.433, 114.479 
	L 58.802, 90.831 
	L 70.626, 83.015 
	L 86.257, 106.663 
	L 74.433, 114.479 
" />
<path d="M 86.042, 69.209 
	L 86.041, 69.209 
	L 71.044, 93.263 
	L 59.017, 85.765 
	L 74.015, 61.711 
	L 86.041, 69.209 
" />
<path d="M 59.380, 47.385 
	L 59.379, 47.385 
	L 87.493, 51.012 
	L 85.679, 65.069 
	L 57.566, 61.442 
	L 59.379, 47.385 
" />
<path d="M 69.963, 50.603 
	L 69.962, 50.604 
	L 61.561, 23.531 
	L 75.097, 19.331 
	L 83.498, 46.404 
	L 69.962, 50.604 
" />
<path d="M 85.780, 220.781 
	L 85.779, 220.782 
	L 113.786, 216.410 
	L 115.972, 230.413 
	L 87.965, 234.785 
	L 85.779, 220.782 
" />
<path d="M 102.780, 220.068 
	L 102.779, 220.069 
	L 87.148, 196.422 
	L 98.972, 188.606 
	L 114.603, 212.253 
	L 102.779, 220.069 
" />
<path d="M 114.389, 174.799 
	L 114.388, 174.800 
	L 99.390, 198.854 
	L 87.364, 191.356 
	L 102.361, 167.302 
	L 114.388, 174.800 
" />
<path d="M 87.727, 152.975 
	L 87.726, 152.976 
	L 115.839, 156.603 
	L 114.026, 170.660 
	L 85.912, 167.033 
	L 87.726, 152.976 
" />
<path d="M 98.309, 156.194 
	L 98.308, 156.195 
	L 89.907, 129.122 
	L 103.443, 124.921 
	L 111.845, 151.994 
	L 98.308, 156.195 
" />
<path d="M 116.164, 115.125 
	L 116.163, 115.126 
	L 95.041, 134.031 
	L 85.589, 123.471 
	L 106.710, 104.565 
	L 116.163, 115.126 
" />
<path d="M 90.721, 85.873 
	L 90.720, 85.874 
	L 116.700, 97.212 
	L 111.032, 110.203 
	L 85.051, 98.865 
	L 90.720, 85.874 
" />
<path d="M 94.042, 91.074 
	L 94.042, 91.075 
	L 93.540, 62.733 
	L 107.710, 62.482 
	L 108.212, 90.824 
	L 94.042, 91.075 
" />
<path d="M 116.721, 55.783 
	L 116.720, 55.784 
	L 91.157, 68.034 
	L 85.032, 55.254 
	L 110.594, 43.003 
	L 116.720, 55.784 
" />
<path d="M 94.524, 19.741 
	L 94.523, 19.742 
	L 116.301, 37.887 
	L 107.228, 48.776 
	L 85.450, 30.630 
	L 94.523, 19.742 
" />
<path d="M 144.510, 220.715 
	L 144.510, 220.716 
	L 123.388, 239.622 
	L 113.935, 229.061 
	L 135.057, 210.156 
	L 144.510, 220.716 
" />
<path d="M 119.067, 191.464 
	L 119.066, 191.465 
	L 145.047, 202.803 
	L 139.378, 215.793 
	L 113.398, 204.455 
	L 119.066, 191.465 
" />
<path d="M 122.389, 196.665 
	L 122.388, 196.666 
	L 121.886, 168.323 
	L 136.057, 168.073 
	L 136.558, 196.415 
	L 122.388, 196.666 
" />
<path d="M 145.067, 161.374 
	L 145.067, 161.374 
	L 119.504, 173.625 
	L 113.378, 160.844 
	L 138.941, 148.594 
	L 145.067, 161.374 
" />
<path d="M 122.871, 125.332 
	L 122.870, 125.332 
	L 144.648, 143.478 
	L 135.575, 154.366 
	L 113.797, 136.221 
	L 122.870, 125.332 
" />
<path d="M 118.666, 130.406 
	L 118.665, 130.407 
	L 126.103, 103.054 
	L 139.779, 106.772 
	L 132.342, 134.126 
	L 118.665, 130.407 
" />
<path d="M 144.361, 102.010 
	L 144.361, 102.011 
	L 116.393, 106.632 
	L 114.084, 92.648 
	L 142.051, 88.028 
	L 144.361, 102.011 
" />
<path d="M 127.180, 60.355 
	L 127.179, 60.356 
	L 143.019, 83.864 
	L 131.265, 91.784 
	L 115.425, 68.276 
	L 127.179, 60.356 
" />
<path d="M 115.785, 63.206 
	L 115.784, 63.207 
	L 130.568, 39.021 
	L 142.661, 46.413 
	L 127.877, 70.599 
	L 115.784, 63.207 
" />
<path d="M 142.451, 42.274 
	L 142.450, 42.275 
	L 114.306, 38.897 
	L 115.994, 24.825 
	L 144.139, 28.203 
	L 142.450, 42.275 
" />
<path d="M 147.013, 235.997 
	L 147.012, 235.998 
	L 154.449, 208.644 
	L 168.126, 212.362 
	L 160.688, 239.716 
	L 147.012, 235.998 
" />
<path d="M 172.708, 207.601 
	L 172.707, 207.602 
	L 144.740, 212.222 
	L 142.430, 198.239 
	L 170.398, 193.618 
	L 172.707, 207.602 
" />
<path d="M 155.526, 165.946 
	L 155.526, 165.947 
	L 171.366, 189.454 
	L 159.612, 197.374 
	L 143.772, 173.867 
	L 155.526, 165.947 
" />
<path d="M 144.131, 168.797 
	L 144.130, 168.798 
	L 158.915, 144.612 
	L 171.007, 152.004 
	L 156.223, 176.190 
	L 144.130, 168.798 
" />
<path d="M 170.797, 147.865 
	L 170.797, 147.866 
	L 142.652, 144.488 
	L 144.341, 130.416 
	L 172.485, 133.794 
	L 170.797, 147.866 
" />
<path d="M 159.999, 102.222 
	L 159.998, 102.222 
	L 168.638, 129.219 
	L 155.139, 133.539 
	L 146.499, 106.542 
	L 159.998, 102.222 
" />
<path d="M 142.320, 100.928 
	L 142.319, 100.928 
	L 163.273, 81.837 
	L 172.818, 92.314 
	L 151.865, 111.405 
	L 142.319, 100.928 
" />
<path d="M 167.832, 87.434 
	L 167.832, 87.435 
	L 141.752, 76.327 
	L 147.306, 63.288 
	L 173.385, 74.395 
	L 167.832, 87.435 
" />
<path d="M 164.277, 39.745 
	L 164.276, 39.745 
	L 165.029, 68.081 
	L 150.861, 68.457 
	L 150.109, 40.122 
	L 164.276, 39.745 
" />
<path d="M 141.724, 32.716 
	L 141.723, 32.717 
	L 167.176, 20.240 
	L 173.414, 32.966 
	L 147.961, 45.443 
	L 141.723, 32.717 
" />
<path d="M 188.345, 207.812 
	L 188.345, 207.813 
	L 196.985, 234.810 
	L 183.486, 239.130 
	L 174.846, 212.133 
	L 188.345, 207.813 
" />
<path d="M 170.666, 206.518 
	L 170.666, 206.519 
	L 191.619, 187.427 
	L 201.165, 197.904 
	L 180.211, 216.996 
	L 170.666, 206.519 
" />
<path d="M 196.179, 193.025 
	L 196.178, 193.025 
	L 170.099, 181.918 
	L 175.652, 168.878 
	L 201.732, 179.986 
	L 196.178, 193.025 
" />
<path d="M 192.623, 145.335 
	L 192.623, 145.336 
	L 193.375, 173.672 
	L 179.208, 174.048 
	L 178.455, 145.712 
	L 192.623, 145.336 
" />
<path d="M 170.070, 138.307 
	L 170.070, 138.307 
	L 195.523, 125.831 
	L 201.761, 138.557 
	L 176.308, 151.033 
	L 170.070, 138.307 
" />
<path d="M 192.397, 131.632 
	L 192.396, 131.632 
	L 170.459, 113.681 
	L 179.435, 102.712 
	L 201.372, 120.664 
	L 192.396, 131.632 
" />
<path d="M 196.368, 84.001 
	L 196.367, 84.002 
	L 189.172, 111.420 
	L 175.463, 107.823 
	L 182.658, 80.405 
	L 196.367, 84.002 
" />
<path d="M 170.736, 70.104 
	L 170.736, 70.105 
	L 198.661, 65.237 
	L 201.095, 79.200 
	L 173.169, 84.068 
	L 170.736, 70.105 
" />
<path d="M 188.098, 69.087 
	L 188.097, 69.088 
	L 172.050, 45.721 
	L 183.733, 37.697 
	L 199.780, 61.065 
	L 188.097, 69.088 
" />
<path d="M 199.280, 23.617 
	L 199.279, 23.618 
	L 184.709, 47.933 
	L 172.551, 40.648 
	L 187.121, 16.333 
	L 199.279, 23.618 
" />
<path d="M 220.743, 237.222 
	L 220.742, 237.223 
	L 198.805, 219.271 
	L 207.781, 208.303 
	L 229.718, 226.254 
	L 220.742, 237.223 
" />
<path d="M 224.714, 189.592 
	L 224.714, 189.592 
	L 217.519, 217.011 
	L 203.810, 213.413 
	L 211.005, 185.995 
	L 224.714, 189.592 
" />
<path d="M 199.083, 175.695 
	L 199.082, 175.696 
	L 227.008, 170.828 
	L 229.441, 184.791 
	L 201.516, 189.658 
	L 199.082, 175.696 
" />
<path d="M 216.444, 174.678 
	L 216.444, 174.679 
	L 200.397, 151.311 
	L 212.080, 143.288 
	L 228.127, 166.655 
	L 216.444, 174.679 
" />
<path d="M 227.626, 129.207 
	L 227.626, 129.208 
	L 213.056, 153.524 
	L 200.898, 146.239 
	L 215.468, 121.923 
	L 227.626, 129.208 
" />
<path d="M 200.958, 107.855 
	L 200.957, 107.855 
	L 229.131, 110.985 
	L 227.566, 125.072 
	L 199.393, 121.942 
	L 200.957, 107.855 
" />
<path d="M 211.972, 110.883 
	L 211.971, 110.884 
	L 203.092, 83.964 
	L 216.552, 79.524 
	L 225.431, 106.444 
	L 211.971, 110.884 
" />
<path d="M 229.473, 69.501 
	L 229.472, 69.501 
	L 208.689, 88.778 
	L 199.051, 78.386 
	L 219.835, 59.110 
	L 229.472, 69.501 
" />
<path d="M 203.893, 40.701 
	L 203.893, 40.701 
	L 230.069, 51.578 
	L 224.631, 64.667 
	L 198.454, 53.790 
	L 203.893, 40.701 
" />
<path d="M 207.682, 45.838 
	L 207.681, 45.839 
	L 206.678, 17.511 
	L 220.842, 17.009 
	L 221.846, 45.337 
	L 207.681, 45.839 
" />
<path d="M 229.304, 213.445 
	L 229.304, 213.446 
	L 257.477, 216.575 
	L 255.913, 230.662 
	L 227.739, 227.533 
	L 229.304, 213.446 
" />
<path d="M 240.318, 216.473 
	L 240.318, 216.474 
	L 231.439, 189.554 
	L 244.899, 185.114 
	L 253.777, 212.034 
	L 240.318, 216.474 
" />
<path d="M 257.820, 175.091 
	L 257.819, 175.092 
	L 237.035, 194.368 
	L 227.397, 183.977 
	L 248.181, 164.701 
	L 257.819, 175.092 
" />
<path d="M 232.240, 146.291 
	L 232.239, 146.292 
	L 258.416, 157.168 
	L 252.977, 170.257 
	L 226.801, 159.381 
	L 232.239, 146.292 
" />
<path d="M 236.028, 151.429 
	L 236.028, 151.430 
	L 235.024, 123.102 
	L 249.189, 122.600 
	L 250.192, 150.928 
	L 236.028, 151.430 
" />
<path d="M 258.455, 115.739 
	L 258.455, 115.739 
	L 233.113, 128.441 
	L 226.762, 115.770 
	L 252.104, 103.069 
	L 258.455, 115.739 
" />
<path d="M 236.001, 80.092 
	L 236.000, 80.092 
	L 258.095, 97.850 
	L 249.216, 108.898 
	L 227.121, 91.140 
	L 236.000, 80.092 
" />
<path d="M 232.262, 85.237 
	L 232.262, 85.238 
	L 239.214, 57.757 
	L 252.955, 61.233 
	L 246.003, 88.714 
	L 232.262, 85.238 
" />
<path d="M 257.828, 56.387 
	L 257.827, 56.388 
	L 229.946, 61.503 
	L 227.389, 47.563 
	L 255.270, 42.448 
	L 257.827, 56.388 
" />
<path d="M 240.288, 15.039 
	L 240.287, 15.040 
	L 256.541, 38.264 
	L 244.929, 46.391 
	L 228.675, 23.167 
	L 240.287, 15.040 
" />
<path d="M 286.802, 221.329 
	L 286.801, 221.330 
	L 261.459, 234.031 
	L 255.108, 221.361 
	L 280.450, 208.660 
	L 286.801, 221.330 
" />
<path d="M 264.347, 185.682 
	L 264.346, 185.683 
	L 286.442, 203.440 
	L 277.563, 214.488 
	L 255.468, 196.731 
	L 264.346, 185.683 
" />
<path d="M 260.609, 190.828 
	L 260.608, 190.828 
	L 267.560, 163.347 
	L 281.301, 166.823 
	L 274.349, 194.304 
	L 260.608, 190.828 
" />
<path d="M 286.175, 161.978 
	L 286.174, 161.979 
	L 258.293, 167.093 
	L 255.735, 153.153 
	L 283.616, 148.039 
	L 286.174, 161.979 
" />
<path d="M 268.634, 120.630 
	L 268.634, 120.630 
	L 284.888, 143.855 
	L 273.275, 151.982 
	L 257.022, 128.757 
	L 268.634, 120.630 
" />
<path d="M 257.667, 123.679 
	L 257.666, 123.680 
	L 272.020, 99.236 
	L 284.243, 106.413 
	L 269.889, 130.856 
	L 257.666, 123.680 
" />
<path d="M 284.336, 102.275 
	L 284.335, 102.276 
	L 256.135, 99.397 
	L 257.574, 85.297 
	L 285.774, 88.176 
	L 284.335, 102.276 
" />
<path d="M 273.107, 56.826 
	L 273.106, 56.827 
	L 282.223, 83.667 
	L 268.803, 88.226 
	L 259.686, 61.386 
	L 273.106, 56.827 
" />
<path d="M 255.784, 55.843 
	L 255.784, 55.843 
	L 276.396, 36.384 
	L 286.126, 46.690 
	L 265.514, 66.149 
	L 255.784, 55.843 
" />
<path d="M 281.430, 41.896 
	L 281.429, 41.897 
	L 255.158, 31.253 
	L 260.480, 18.117 
	L 286.751, 28.761 
	L 281.429, 41.897 
" />
<path d="M 1146.860, 227.723 
	L 1148.986, 227.723 
	L 1149.695, 226.660 
	L 1148.986, 225.597 
	L 1147.569, 225.597 
" />
<path d="M 1148.986, 225.597 
	L 1149.695, 224.534 
	L 1148.986, 223.471 
	L 1146.860, 223.471 
" />
<path d="M 1148.278, 221.345 
	L 1148.278, 218.156 
	L 1147.569, 217.093 
	L 1146.860, 218.156 
	L 1146.860, 220.282 
	L 1147.569, 221.345 
	L 1148.986, 221.345 
	L 1149.695, 220.282 
	L 1149.695, 217.093 
" />
<path d="M 1149.695, 210.716 
	L 1149.695, 213.905 
	L 1148.986, 214.968 
	L 1147.569, 214.968 
	L 1146.860, 213.905 
	L 1146.860, 211.779 
	L 1149.695, 211.779 
" />
<path d="M 1146.860, 208.590 
	L 1148.278, 208.590 
	L 1149.695, 206.464 
	L 1148.278, 204.338 
	L 1146.860, 204.338 
" />
<path d="M 1148.278, 202.212 
	L 1148.278, 199.023 
	L 1147.569, 197.960 
	L 1146.860, 199.023 
	L 1146.860, 201.149 
	L 1147.569, 202.212 
	L 1148.986, 202.212 
	L 1149.695, 201.149 
	L 1149.695, 197.960 
" />
<path d="M 1146.860, 192.645 
	L 1146.860, 194.771 
	L 1147.569, 195.834 
	L 1148.278, 194.771 
	L 1148.278, 193.708 
	L 1148.986, 192.645 
	L 1149.695, 193.708 
	L 1149.695, 195.834 
" />
<path d="M 1149.695, 187.330 
	L 1149.695, 188.393 
	L 1148.986, 188.393 
	L 1148.986, 187.330 
	L 1149.695, 187.330 
" />
<path d="M 1151.112, 183.078 
	L 1146.860, 183.078 
	L 1146.860, 180.952 
	L 1147.569, 179.889 
	L 1148.986, 179.889 
	L 1149.695, 180.952 
	L 1149.695, 183.078 
" />
<path d="M 1151.112, 176.700 
	L 1148.278, 172.448 
	L 1146.860, 172.448 
" />
<path d="M 1146.860, 176.700 
	L 1148.278, 176.700 
	L 1149.695, 174.574 
" />
<path d="M 1146.152, 144.810 
	L 1145.443, 143.747 
	L 1145.443, 141.621 
	L 1146.152, 140.558 
	L 1146.860, 140.558 
	L 1148.986, 144.810 
	L 1149.695, 144.810 
	L 1149.695, 140.558 
" />
<path d="M 1148.986, 138.432 
	L 1149.695, 137.369 
	L 1149.695, 135.243 
	L 1148.986, 134.180 
	L 1146.152, 134.180 
	L 1145.443, 135.243 
	L 1145.443, 137.369 
	L 1146.152, 138.432 
	L 1148.986, 138.432 
" />
<path d="M 1149.695, 130.991 
	L 1149.695, 128.865 
" />
<path d="M 1149.695, 129.928 
	L 1145.443, 129.928 
	L 1146.152, 130.991 
" />
<path d="M 1149.695, 124.613 
	L 1149.695, 123.550 
	L 1148.278, 121.424 
	L 1146.152, 121.424 
	L 1145.443, 122.487 
	L 1145.443, 124.613 
	L 1146.152, 125.676 
	L 1146.860, 125.676 
	L 1147.569, 124.613 
	L 1147.569, 121.424 
" />
<path d="M 1147.569, 119.298 
	L 1147.569, 115.046 
" />
<path d="M 1148.986, 112.920 
	L 1149.695, 111.857 
	L 1149.695, 109.731 
	L 1148.986, 108.668 
	L 1146.152, 108.668 
	L 1145.443, 109.731 
	L 1145.443, 111.857 
	L 1146.152, 112.920 
	L 1148.986, 112.920 
" />
<path d="M 1145.443, 102.290 
	L 1145.443, 104.416 
	L 1146.860, 106.542 
	L 1148.986, 106.542 
	L 1149.695, 105.479 
	L 1149.695, 103.353 
	L 1148.986, 102.290 
	L 1148.278, 102.290 
	L 1147.569, 103.353 
	L 1147.569, 106.542 
" />
<path d="M 1147.569, 100.164 
	L 1147.569, 95.912 
" />
<path d="M 1148.986, 93.786 
	L 1149.695, 92.723 
	L 1149.695, 90.597 
	L 1148.986, 89.534 
	L 1146.152, 89.534 
	L 1145.443, 90.597 
	L 1145.443, 92.723 
	L 1146.152, 93.786 
	L 1148.986, 93.786 
" />
<path d="M 1149.695, 86.345 
	L 1149.695, 85.282 
	L 1148.278, 83.156 
	L 1146.152, 83.156 
	L 1145.443, 84.219 
	L 1145.443, 86.345 
	L 1146.152, 87.408 
	L 1146.860, 87.408 
	L 1147.569, 86.345 
	L 1147.569, 83.156 
" />
<path d="M 1148.986, 74.653 
	L 1149.695, 73.590 
	L 1149.695, 71.464 
	L 1148.986, 70.401 
	L 1146.152, 70.401 
	L 1145.443, 71.464 
	L 1145.443, 73.590 
	L 1146.152, 74.653 
	L 1148.986, 74.653 
" />
<path d="M 1148.986, 68.275 
	L 1149.695, 67.212 
	L 1149.695, 65.086 
	L 1148.986, 64.023 
	L 1146.152, 64.023 
	L 1145.443, 65.086 
	L 1145.443, 67.212 
	L 1146.152, 68.275 
	L 1148.986, 68.275 
" />
<path d="M 1147.569, 60.834 
	L 1146.860, 60.834 
	L 1146.860, 59.771 
	L 1147.569, 59.771 
	L 1147.569, 60.834 
" />
<path d="M 1148.986, 60.834 
	L 1148.986, 59.771 
	L 1149.695, 59.771 
	L 1149.695, 60.834 
	L 1148.986, 60.834 
" />
<path d="M 1148.986, 55.519 
	L 1149.695, 54.456 
	L 1149.695, 52.330 
	L 1148.986, 51.267 
	L 1146.152, 51.267 
	L 1145.443, 52.330 
	L 1145.443, 54.456 
	L 1146.152, 55.519 
	L 1148.986, 55.519 
" />
<path d="M 1145.443, 44.889 
	L 1145.443, 49.141 
	L 1146.860, 49.141 
	L 1146.860, 45.952 
	L 1147.569, 44.889 
	L 1148.986, 44.889 
	L 1149.695, 45.952 
	L 1149.695, 48.078 
	L 1148.986, 49.141 
" />
</g>
</svg>
