<?xml version="1.0" encoding="UTF-8" standalone="no" ?>
<svg width="100%" height="100%" viewBox="0 0 1263.220 246.135" xmlns="http://www.w3.org/2000/svg"><g>
</g><g style="stroke:rgb(0,0,0); fill:none; stroke-width:1.000mm" >
</g><g style="stroke:rgb(255,0,0); fill:none; stroke-width:0.100mm" >
<path d="M 120.859, 256.764 
	L 120.858, 256.765 
	L 120.858, 235.505 
	L 135.031, 235.505 
	L 135.031, 256.765 
	L 120.858, 256.765 
" />
<path d="M 139.207, 226.865 
	L 139.207, 226.866 
	L 119.746, 235.772 
	L 113.848, 222.885 
	L 133.308, 213.978 
	L 139.207, 226.866 
" />
<path d="M 118.756, 191.211 
	L 118.755, 191.212 
	L 135.060, 205.293 
	L 125.795, 216.019 
	L 109.491, 201.938 
	L 118.755, 191.212 
" />
<path d="M 105.355, 190.785 
	L 105.355, 190.786 
	L 111.414, 169.965 
	L 125.023, 173.925 
	L 118.964, 194.747 
	L 105.355, 190.786 
" />
<path d="M 117.096, 166.518 
	L 117.096, 166.519 
	L 95.501, 169.695 
	L 93.439, 155.672 
	L 115.033, 152.497 
	L 117.096, 166.519 
" />
<path d="M 92.482, 126.763 
	L 92.482, 126.764 
	L 104.433, 145.197 
	L 92.541, 152.908 
	L 80.590, 134.475 
	L 92.482, 126.764 
" />
<path d="M 65.010, 124.102 
	L 65.009, 124.102 
	L 76.873, 105.445 
	L 88.833, 113.050 
	L 76.969, 131.708 
	L 65.009, 124.102 
" />
<path d="M 68.549, 105.857 
	L 68.548, 105.858 
	L 46.505, 102.815 
	L 48.443, 88.775 
	L 70.486, 91.818 
	L 68.548, 105.858 
" />
<path d="M 40.800, 63.293 
	L 40.799, 63.293 
	L 47.246, 84.739 
	L 33.673, 88.819 
	L 27.226, 67.374 
	L 40.799, 63.293 
" />
<path d="M 0.001, 56.914 
	L 0.000, 56.915 
	L 16.924, 42.034 
	L 26.283, 52.678 
	L 9.359, 67.559 
	L 0.000, 56.915 
" />
<path d="M 156.604, 229.720 
	L 156.603, 229.721 
	L 168.169, 247.560 
	L 155.979, 255.463 
	L 144.413, 237.624 
	L 156.603, 229.721 
" />
<path d="M 143.003, 226.463 
	L 143.002, 226.464 
	L 154.486, 208.405 
	L 166.745, 216.200 
	L 155.261, 234.259 
	L 143.002, 226.464 
" />
<path d="M 160.300, 208.740 
	L 160.299, 208.741 
	L 138.958, 205.795 
	L 140.944, 191.404 
	L 162.286, 194.350 
	L 160.299, 208.741 
" />
<path d="M 147.370, 166.337 
	L 147.370, 166.338 
	L 153.613, 187.104 
	L 139.701, 191.287 
	L 133.457, 170.520 
	L 147.370, 166.338 
" />
<path d="M 120.623, 159.303 
	L 120.622, 159.304 
	L 137.013, 144.892 
	L 146.606, 155.801 
	L 130.214, 170.213 
	L 120.622, 159.304 
" />
<path d="M 127.923, 147.406 
	L 127.922, 147.407 
	L 107.866, 138.441 
	L 113.794, 125.179 
	L 133.850, 134.144 
	L 127.922, 147.407 
" />
<path d="M 112.434, 103.913 
	L 112.433, 103.914 
	L 112.629, 126.023 
	L 98.101, 126.152 
	L 97.906, 104.042 
	L 112.433, 103.914 
" />
<path d="M 73.687, 91.913 
	L 73.686, 91.914 
	L 93.837, 82.475 
	L 99.999, 95.632 
	L 79.848, 105.070 
	L 73.686, 91.914 
" />
<path d="M 69.423, 85.295 
	L 69.422, 85.296 
	L 52.345, 70.809 
	L 61.743, 59.730 
	L 78.819, 74.217 
	L 69.422, 85.296 
" />
<path d="M 51.533, 42.374 
	L 51.532, 42.374 
	L 45.427, 64.067 
	L 31.443, 60.132 
	L 37.548, 38.439 
	L 51.532, 42.374 
" />
<path d="M 191.306, 250.179 
	L 191.305, 250.179 
	L 171.896, 241.504 
	L 177.970, 227.918 
	L 197.379, 236.593 
	L 191.305, 250.179 
" />
<path d="M 190.567, 207.022 
	L 190.566, 207.023 
	L 190.755, 228.423 
	L 175.874, 228.555 
	L 175.685, 207.155 
	L 190.566, 207.023 
" />
<path d="M 166.058, 194.359 
	L 166.057, 194.360 
	L 185.567, 185.221 
	L 191.879, 198.698 
	L 172.370, 207.836 
	L 166.057, 194.360 
" />
<path d="M 175.336, 187.957 
	L 175.336, 187.958 
	L 158.800, 173.929 
	L 168.428, 162.580 
	L 184.963, 176.609 
	L 175.336, 187.958 
" />
<path d="M 172.080, 145.519 
	L 172.079, 145.519 
	L 166.166, 166.530 
	L 151.841, 162.499 
	L 157.754, 141.488 
	L 172.079, 145.519 
" />
<path d="M 137.205, 127.091 
	L 137.204, 127.092 
	L 158.910, 123.703 
	L 161.205, 138.407 
	L 139.499, 141.795 
	L 137.204, 127.092 
" />
<path d="M 133.503, 124.814 
	L 133.503, 124.815 
	L 121.310, 106.370 
	L 133.725, 98.164 
	L 145.918, 116.609 
	L 133.503, 124.815 
" />
<path d="M 127.390, 84.725 
	L 127.390, 84.725 
	L 115.616, 103.608 
	L 102.988, 95.734 
	L 114.761, 76.852 
	L 127.390, 84.725 
" />
<path d="M 83.777, 60.156 
	L 83.777, 60.157 
	L 105.986, 63.023 
	L 104.081, 77.783 
	L 81.872, 74.917 
	L 83.777, 60.157 
" />
<path d="M 66.068, 60.676 
	L 66.067, 60.677 
	L 59.388, 39.154 
	L 73.602, 34.743 
	L 80.281, 56.266 
	L 66.067, 60.677 
" />
<path d="M 201.307, 229.617 
	L 201.306, 229.618 
	L 222.311, 226.339 
	L 224.662, 241.393 
	L 203.657, 244.672 
	L 201.306, 229.618 
" />
<path d="M 211.113, 227.373 
	L 211.112, 227.373 
	L 199.311, 209.519 
	L 212.021, 201.117 
	L 223.822, 218.971 
	L 211.112, 227.373 
" />
<path d="M 219.479, 187.875 
	L 219.478, 187.875 
	L 208.080, 206.157 
	L 195.151, 198.096 
	L 206.549, 179.814 
	L 219.478, 187.875 
" />
<path d="M 190.450, 162.782 
	L 190.449, 162.783 
	L 211.956, 165.558 
	L 210.007, 180.668 
	L 188.500, 177.894 
	L 190.449, 162.783 
" />
<path d="M 186.266, 163.146 
	L 186.265, 163.147 
	L 179.797, 142.301 
	L 194.348, 137.785 
	L 200.817, 158.631 
	L 186.265, 163.147 
" />
<path d="M 190.817, 127.556 
	L 190.816, 127.556 
	L 174.447, 142.209 
	L 164.285, 130.856 
	L 180.655, 116.203 
	L 190.816, 127.556 
" />
<path d="M 154.876, 96.542 
	L 154.875, 96.542 
	L 175.140, 105.386 
	L 169.046, 119.350 
	L 148.781, 110.507 
	L 154.875, 96.542 
" />
<path d="M 136.116, 97.945 
	L 136.115, 97.946 
	L 135.721, 75.697 
	L 150.955, 75.427 
	L 151.349, 97.676 
	L 136.115, 97.946 
" />
<path d="M 135.665, 67.457 
	L 135.665, 67.457 
	L 115.471, 77.136 
	L 108.886, 63.395 
	L 129.080, 53.717 
	L 135.665, 67.457 
" />
<path d="M 94.401, 31.100 
	L 94.401, 31.101 
	L 111.714, 45.527 
	L 101.961, 57.232 
	L 84.647, 42.806 
	L 94.401, 31.101 
" />
<path d="M 254.451, 230.680 
	L 254.450, 230.681 
	L 238.609, 244.860 
	L 228.211, 233.243 
	L 244.052, 219.064 
	L 254.450, 230.681 
" />
<path d="M 233.224, 199.276 
	L 233.223, 199.277 
	L 252.838, 207.838 
	L 246.603, 222.127 
	L 226.988, 213.566 
	L 233.223, 199.277 
" />
<path d="M 228.059, 200.349 
	L 228.058, 200.350 
	L 227.677, 178.810 
	L 243.264, 178.535 
	L 243.646, 200.074 
	L 228.058, 200.350 
" />
<path d="M 241.722, 170.525 
	L 241.721, 170.526 
	L 222.166, 179.898 
	L 215.428, 165.839 
	L 234.983, 156.467 
	L 241.721, 170.526 
" />
<path d="M 215.259, 133.947 
	L 215.259, 133.948 
	L 232.028, 147.920 
	L 222.048, 159.897 
	L 205.279, 145.925 
	L 215.259, 133.948 
" />
<path d="M 195.494, 134.216 
	L 195.493, 134.217 
	L 201.257, 113.018 
	L 216.301, 117.108 
	L 210.538, 138.307 
	L 195.493, 134.217 
" />
<path d="M 202.485, 110.291 
	L 202.484, 110.292 
	L 180.670, 113.896 
	L 178.129, 98.514 
	L 199.943, 94.910 
	L 202.484, 110.292 
" />
<path d="M 172.130, 69.559 
	L 172.129, 69.560 
	L 184.563, 88.014 
	L 171.634, 96.726 
	L 159.200, 78.272 
	L 172.129, 69.560 
" />
<path d="M 138.132, 67.370 
	L 138.131, 67.371 
	L 149.810, 48.264 
	L 163.113, 56.395 
	L 151.433, 75.502 
	L 138.131, 67.371 
" />
<path d="M 136.787, 49.706 
	L 136.786, 49.706 
	L 114.411, 47.020 
	L 116.269, 31.540 
	L 138.644, 34.226 
	L 136.786, 49.706 
" />
<path d="M 259.196, 236.584 
	L 259.195, 236.585 
	L 264.773, 216.069 
	L 280.159, 220.253 
	L 274.581, 240.768 
	L 259.195, 236.585 
" />
<path d="M 280.118, 213.279 
	L 280.117, 213.280 
	L 259.002, 216.769 
	L 256.402, 201.037 
	L 277.517, 197.549 
	L 280.117, 213.280 
" />
<path d="M 264.601, 172.510 
	L 264.600, 172.511 
	L 276.638, 190.377 
	L 263.415, 199.287 
	L 251.377, 181.421 
	L 264.600, 172.511 
" />
<path d="M 244.465, 169.732 
	L 244.464, 169.732 
	L 255.774, 151.230 
	L 269.378, 159.546 
	L 258.068, 178.048 
	L 244.464, 169.732 
" />
<path d="M 256.886, 152.595 
	L 256.885, 152.595 
	L 235.214, 149.994 
	L 237.115, 134.163 
	L 258.785, 136.765 
	L 256.885, 152.595 
" />
<path d="M 238.489, 109.227 
	L 238.489, 109.227 
	L 245.185, 130.151 
	L 229.999, 135.011 
	L 223.303, 114.088 
	L 238.489, 109.227 
" />
<path d="M 205.113, 102.412 
	L 205.112, 102.412 
	L 221.455, 87.521 
	L 232.194, 99.307 
	L 215.851, 114.198 
	L 205.112, 102.412 
" />
<path d="M 207.341, 91.293 
	L 207.340, 91.294 
	L 186.868, 82.575 
	L 193.116, 67.905 
	L 213.588, 76.625 
	L 207.340, 91.294 
" />
<path d="M 186.642, 46.935 
	L 186.641, 46.935 
	L 187.235, 69.321 
	L 171.296, 69.744 
	L 170.701, 47.358 
	L 186.641, 46.935 
" />
<path d="M 141.248, 34.880 
	L 141.247, 34.881 
	L 161.482, 24.962 
	L 168.501, 39.279 
	L 148.265, 49.198 
	L 141.247, 34.881 
" />
<path d="M 302.546, 212.266 
	L 302.545, 212.267 
	L 309.025, 232.515 
	L 293.501, 237.484 
	L 287.021, 217.235 
	L 302.545, 212.267 
" />
<path d="M 283.208, 204.798 
	L 283.207, 204.798 
	L 299.027, 190.384 
	L 310.005, 202.433 
	L 294.185, 216.847 
	L 283.207, 204.798 
" />
<path d="M 299.071, 194.074 
	L 299.071, 194.075 
	L 279.250, 185.632 
	L 285.637, 170.636 
	L 305.458, 179.079 
	L 299.071, 194.075 
" />
<path d="M 293.127, 150.040 
	L 293.126, 150.041 
	L 293.702, 171.718 
	L 277.408, 172.151 
	L 276.833, 150.474 
	L 293.126, 150.041 
" />
<path d="M 261.960, 137.321 
	L 261.960, 137.322 
	L 281.558, 127.715 
	L 288.733, 142.350 
	L 269.134, 151.957 
	L 261.960, 137.322 
" />
<path d="M 265.930, 131.839 
	L 265.929, 131.839 
	L 248.929, 117.926 
	L 259.251, 105.313 
	L 276.252, 119.226 
	L 265.929, 131.839 
" />
<path d="M 257.689, 88.691 
	L 257.688, 88.692 
	L 252.077, 110.078 
	L 236.311, 105.941 
	L 241.923, 84.555 
	L 257.688, 88.692 
" />
<path d="M 216.215, 69.938 
	L 216.214, 69.939 
	L 238.136, 66.117 
	L 240.935, 82.174 
	L 219.013, 85.995 
	L 216.214, 69.939 
" />
<path d="M 206.936, 68.640 
	L 206.936, 68.640 
	L 194.258, 50.180 
	L 207.694, 40.953 
	L 220.371, 59.413 
	L 206.936, 68.640 
" />
<path d="M 196.003, 28.059 
	L 196.002, 28.060 
	L 184.419, 47.391 
	L 170.438, 39.013 
	L 182.021, 19.682 
	L 196.002, 28.060 
" />
<path d="M 329.323, 234.507 
	L 329.323, 234.508 
	L 312.870, 221.044 
	L 323.417, 208.156 
	L 339.870, 221.620 
	L 329.323, 234.508 
" />
<path d="M 335.723, 191.835 
	L 335.723, 191.835 
	L 330.290, 212.536 
	L 314.182, 208.309 
	L 319.615, 187.608 
	L 335.723, 191.835 
" />
<path d="M 308.660, 172.458 
	L 308.659, 172.459 
	L 329.883, 168.759 
	L 332.742, 185.165 
	L 311.518, 188.865 
	L 308.659, 172.459 
" />
<path d="M 312.889, 171.203 
	L 312.888, 171.204 
	L 300.612, 153.328 
	L 314.340, 143.901 
	L 326.616, 161.777 
	L 312.888, 171.204 
" />
<path d="M 316.445, 131.210 
	L 316.444, 131.211 
	L 305.226, 149.934 
	L 290.941, 141.374 
	L 302.159, 122.652 
	L 316.444, 131.211 
" />
<path d="M 280.940, 105.544 
	L 280.939, 105.545 
	L 302.773, 107.970 
	L 300.935, 124.521 
	L 279.101, 122.096 
	L 280.939, 105.545 
" />
<path d="M 270.902, 106.879 
	L 270.901, 106.880 
	L 263.976, 85.882 
	L 279.791, 80.666 
	L 286.717, 101.664 
	L 270.901, 106.880 
" />
<path d="M 270.741, 71.052 
	L 270.741, 71.053 
	L 254.426, 86.184 
	L 243.101, 73.974 
	L 259.416, 58.842 
	L 270.741, 71.053 
" />
<path d="M 228.517, 39.267 
	L 228.516, 39.268 
	L 249.196, 47.860 
	L 242.806, 63.239 
	L 222.126, 54.646 
	L 228.516, 39.268 
" />
<path d="M 203.644, 41.548 
	L 203.644, 41.549 
	L 202.847, 19.028 
	L 219.489, 18.438 
	L 220.287, 40.959 
	L 203.644, 41.549 
" />
<path d="M 345.090, 208.163 
	L 345.090, 208.164 
	L 366.220, 210.510 
	L 364.343, 227.414 
	L 343.213, 225.067 
	L 345.090, 208.164 
" />
<path d="M 348.576, 209.354 
	L 348.575, 209.355 
	L 341.871, 189.030 
	L 358.023, 183.703 
	L 364.727, 204.027 
	L 348.575, 209.355 
" />
<path d="M 362.728, 174.178 
	L 362.728, 174.179 
	L 346.932, 188.829 
	L 335.366, 176.359 
	L 351.162, 161.709 
	L 362.728, 174.179 
" />
<path d="M 335.211, 141.995 
	L 335.210, 141.996 
	L 355.236, 150.316 
	L 348.710, 166.022 
	L 328.685, 157.702 
	L 335.210, 141.996 
" />
<path d="M 323.928, 143.956 
	L 323.927, 143.957 
	L 323.154, 122.143 
	L 340.151, 121.542 
	L 340.924, 143.355 
	L 323.927, 143.957 
" />
<path d="M 332.914, 114.170 
	L 332.914, 114.170 
	L 313.274, 124.014 
	L 305.653, 108.809 
	L 325.293, 98.965 
	L 332.914, 114.170 
" />
<path d="M 300.404, 76.675 
	L 300.403, 76.676 
	L 317.637, 90.527 
	L 306.982, 103.783 
	L 289.748, 89.933 
	L 300.403, 76.676 
" />
<path d="M 274.295, 77.669 
	L 274.294, 77.670 
	L 279.752, 56.098 
	L 296.240, 60.270 
	L 290.783, 81.842 
	L 274.294, 77.670 
" />
<path d="M 276.556, 54.053 
	L 276.555, 54.054 
	L 254.529, 58.095 
	L 251.460, 41.366 
	L 273.487, 37.325 
	L 276.555, 54.054 
" />
<path d="M 240.420, 12.342 
	L 240.420, 12.343 
	L 253.341, 30.806 
	L 239.406, 40.557 
	L 226.485, 22.095 
	L 240.420, 12.343 
" />
<path d="M 396.456, 217.242 
	L 396.456, 217.243 
	L 377.449, 226.770 
	L 369.670, 211.248 
	L 388.676, 201.721 
	L 396.456, 217.243 
" />
<path d="M 378.743, 179.515 
	L 378.743, 179.515 
	L 395.425, 192.922 
	L 384.548, 206.456 
	L 367.866, 193.049 
	L 378.743, 179.515 
" />
<path d="M 366.336, 180.038 
	L 366.335, 180.039 
	L 371.619, 159.154 
	L 388.451, 163.412 
	L 383.168, 184.297 
	L 366.335, 180.039 
" />
<path d="M 382.538, 157.047 
	L 382.538, 157.048 
	L 361.208, 160.961 
	L 358.076, 143.884 
	L 379.405, 139.971 
	L 382.538, 157.048 
" />
<path d="M 361.241, 115.286 
	L 361.240, 115.287 
	L 373.755, 133.170 
	L 359.531, 143.125 
	L 347.016, 125.242 
	L 361.240, 115.287 
" />
<path d="M 334.582, 113.022 
	L 334.582, 113.022 
	L 345.706, 94.078 
	L 360.678, 102.870 
	L 349.554, 121.814 
	L 334.582, 113.022 
" />
<path d="M 342.156, 96.445 
	L 342.155, 96.445 
	L 320.159, 94.200 
	L 321.923, 76.927 
	L 343.919, 79.173 
	L 342.155, 96.445 
" />
<path d="M 318.256, 52.099 
	L 318.256, 52.099 
	L 325.412, 73.169 
	L 308.972, 78.754 
	L 301.815, 57.684 
	L 318.256, 52.099 
" />
<path d="M 278.254, 45.540 
	L 278.253, 45.541 
	L 294.536, 30.168 
	L 306.455, 42.793 
	L 290.172, 58.166 
	L 278.253, 45.541 
" />
<path d="M 275.443, 35.183 
	L 275.443, 35.184 
	L 254.557, 26.722 
	L 261.077, 10.630 
	L 281.962, 19.092 
	L 275.443, 35.184 
" />
<path d="M 1258.968, 246.135 
	L 1261.094, 246.135 
	L 1261.803, 245.072 
	L 1261.094, 244.009 
	L 1259.677, 244.009 
" />
<path d="M 1261.094, 244.009 
	L 1261.803, 242.946 
	L 1261.094, 241.883 
	L 1258.968, 241.883 
" />
<path d="M 1260.386, 239.757 
	L 1260.386, 236.568 
	L 1259.677, 235.505 
	L 1258.968, 236.568 
	L 1258.968, 238.694 
	L 1259.677, 239.757 
	L 1261.094, 239.757 
	L 1261.803, 238.694 
	L 1261.803, 235.505 
" />
<path d="M 1261.803, 229.127 
	L 1261.803, 232.316 
	L 1261.094, 233.379 
	L 1259.677, 233.379 
	L 1258.968, 232.316 
	L 1258.968, 230.190 
	L 1261.803, 230.190 
" />
<path d="M 1258.968, 227.001 
	L 1260.386, 227.001 
	L 1261.803, 224.875 
	L 1260.386, 222.749 
	L 1258.968, 222.749 
" />
<path d="M 1260.386, 220.623 
	L 1260.386, 217.434 
	L 1259.677, 216.371 
	L 1258.968, 217.434 
	L 1258.968, 219.560 
	L 1259.677, 220.623 
	L 1261.094, 220.623 
	L 1261.803, 219.560 
	L 1261.803, 216.371 
" />
<path d="M 1258.968, 211.056 
	L 1258.968, 213.182 
	L 1259.677, 214.245 
	L 1260.386, 213.182 
	L 1260.386, 212.119 
	L 1261.094, 211.056 
	L 1261.803, 212.119 
	L 1261.803, 214.245 
" />
<path d="M 1261.803, 205.741 
	L 1261.803, 206.804 
	L 1261.094, 206.804 
	L 1261.094, 205.741 
	L 1261.803, 205.741 
" />
<path d="M 1263.220, 201.489 
	L 1258.968, 201.489 
	L 1258.968, 199.363 
	L 1259.677, 198.301 
	L 1261.094, 198.301 
	L 1261.803, 199.363 
	L 1261.803, 201.489 
" />
<path d="M 1263.220, 195.112 
	L 1260.386, 190.860 
	L 1258.968, 190.860 
" />
<path d="M 1258.968, 195.112 
	L 1260.386, 195.112 
	L 1261.803, 192.986 
" />
<path d="M 1258.260, 163.222 
	L 1257.551, 162.159 
	L 1257.551, 160.033 
	L 1258.260, 158.970 
	L 1258.968, 158.970 
	L 1261.094, 163.222 
	L 1261.803, 163.222 
	L 1261.803, 158.970 
" />
<path d="M 1261.094, 156.844 
	L 1261.803, 155.781 
	L 1261.803, 153.655 
	L 1261.094, 152.592 
	L 1258.260, 152.592 
	L 1257.551, 153.655 
	L 1257.551, 155.781 
	L 1258.260, 156.844 
	L 1261.094, 156.844 
" />
<path d="M 1261.803, 149.403 
	L 1261.803, 147.277 
" />
<path d="M 1261.803, 148.340 
	L 1257.551, 148.340 
	L 1258.260, 149.403 
" />
<path d="M 1261.803, 143.025 
	L 1261.803, 141.962 
	L 1260.386, 139.836 
	L 1258.260, 139.836 
	L 1257.551, 140.899 
	L 1257.551, 143.025 
	L 1258.260, 144.088 
	L 1258.968, 144.088 
	L 1259.677, 143.025 
	L 1259.677, 139.836 
" />
<path d="M 1259.677, 137.710 
	L 1259.677, 133.458 
" />
<path d="M 1261.094, 131.332 
	L 1261.803, 130.269 
	L 1261.803, 128.143 
	L 1261.094, 127.080 
	L 1258.260, 127.080 
	L 1257.551, 128.143 
	L 1257.551, 130.269 
	L 1258.260, 131.332 
	L 1261.094, 131.332 
" />
<path d="M 1257.551, 120.702 
	L 1257.551, 122.828 
	L 1258.968, 124.954 
	L 1261.094, 124.954 
	L 1261.803, 123.891 
	L 1261.803, 121.765 
	L 1261.094, 120.702 
	L 1260.386, 120.702 
	L 1259.677, 121.765 
	L 1259.677, 124.954 
" />
<path d="M 1259.677, 118.576 
	L 1259.677, 114.324 
" />
<path d="M 1261.094, 112.198 
	L 1261.803, 111.135 
	L 1261.803, 109.009 
	L 1261.094, 107.946 
	L 1258.260, 107.946 
	L 1257.551, 109.009 
	L 1257.551, 111.135 
	L 1258.260, 112.198 
	L 1261.094, 112.198 
" />
<path d="M 1261.803, 104.757 
	L 1261.803, 103.694 
	L 1260.386, 101.568 
	L 1258.260, 101.568 
	L 1257.551, 102.631 
	L 1257.551, 104.757 
	L 1258.260, 105.820 
	L 1258.968, 105.820 
	L 1259.677, 104.757 
	L 1259.677, 101.568 
" />
<path d="M 1261.094, 93.064 
	L 1261.803, 92.001 
	L 1261.803, 89.875 
	L 1261.094, 88.812 
	L 1258.260, 88.812 
	L 1257.551, 89.875 
	L 1257.551, 92.001 
	L 1258.260, 93.064 
	L 1261.094, 93.064 
" />
<path d="M 1261.094, 86.686 
	L 1261.803, 85.623 
	L 1261.803, 83.497 
	L 1261.094, 82.434 
	L 1258.260, 82.434 
	L 1257.551, 83.497 
	L 1257.551, 85.623 
	L 1258.260, 86.686 
	L 1261.094, 86.686 
" />
<path d="M 1259.677, 79.245 
	L 1258.968, 79.245 
	L 1258.968, 78.182 
	L 1259.677, 78.182 
	L 1259.677, 79.245 
" />
<path d="M 1261.094, 79.245 
	L 1261.094, 78.182 
	L 1261.803, 78.182 
	L 1261.803, 79.245 
	L 1261.094, 79.245 
" />
<path d="M 1261.094, 73.930 
	L 1261.803, 72.867 
	L 1261.803, 70.741 
	L 1261.094, 69.678 
	L 1258.260, 69.678 
	L 1257.551, 70.741 
	L 1257.551, 72.867 
	L 1258.260, 73.930 
	L 1261.094, 73.930 
" />
<path d="M 1261.803, 66.489 
	L 1261.803, 65.426 
	L 1260.386, 63.300 
	L 1258.260, 63.300 
	L 1257.551, 64.363 
	L 1257.551, 66.489 
	L 1258.260, 67.552 
	L 1258.968, 67.552 
	L 1259.677, 66.489 
	L 1259.677, 63.300 
" />
</g>
</svg>
