<?xml version="1.0" encoding="UTF-8" standalone="no" ?>
<svg width="100%" height="100%" viewBox="0 0 3574.100 765.576" xmlns="http://www.w3.org/2000/svg"><g>
</g><g style="stroke:rgb(0,0,0); fill:none; stroke-width:1.000mm" >
</g><g style="stroke:rgb(255,0,0); fill:none; stroke-width:0.100mm" >
<path d="M 635.282, 415.496 
	L 635.281, 415.497 
	L 632.767, 375.528 
	L 625.262, 336.190 
	L 612.887, 298.103 
	L 595.836, 261.867 
	L 574.377, 228.054 
	L 548.850, 197.196 
	L 519.657, 169.782 
	L 487.257, 146.242 
	L 452.164, 126.950 
" />
<path d="M 452.164, 126.950 
	L 414.928, 112.207 
	L 376.139, 102.248 
	L 336.407, 97.228 
	L 296.359, 97.228 
	L 256.628, 102.248 
	L 217.838, 112.207 
	L 180.603, 126.950 
	L 145.509, 146.242 
	L 113.110, 169.782 
	L 83.917, 197.196 
" />
<path d="M 83.917, 197.196 
	L 58.389, 228.054 
	L 36.931, 261.867 
	L 19.880, 298.103 
	L 7.505, 336.190 
	L 0.000, 375.528 
" />
<path d="M 256.628, 728.745 
	L 256.628, 728.746 
	L 296.359, 733.765 
	L 336.407, 733.765 
	L 376.139, 728.746 
" />
<path d="M 414.929, 718.785 
	L 414.928, 718.786 
	L 452.164, 704.044 
	L 487.257, 684.751 
	L 519.657, 661.212 
	L 548.850, 633.797 
	L 574.377, 602.940 
	L 595.836, 569.127 
	L 612.887, 532.891 
	L 625.262, 494.803 
	L 632.767, 455.465 
" />
<path d="M 632.767, 455.465 
	L 635.281, 415.497 
	L 632.767, 375.528 
	L 625.262, 336.190 
	L 612.887, 298.103 
	L 595.836, 261.867 
	L 574.377, 228.054 
	L 548.850, 197.196 
	L 519.657, 169.782 
	L 487.257, 146.242 
	L 452.164, 126.950 
" />
<path d="M 452.164, 126.950 
	L 414.928, 112.207 
	L 376.139, 102.248 
	L 336.407, 97.228 
	L 296.359, 97.228 
	L 256.628, 102.248 
" />
<path d="M 627.983, 428.110 
	L 627.982, 428.111 
	L 625.523, 389.022 
	L 618.183, 350.549 
	L 606.081, 313.299 
	L 589.404, 277.861 
	L 568.417, 244.792 
	L 543.452, 214.613 
	L 514.901, 187.802 
	L 483.214, 164.780 
	L 448.892, 145.912 
" />
<path d="M 448.892, 145.912 
" />
<path d="M 296.517, 116.843 
	L 296.517, 116.844 
	L 257.659, 121.753 
	L 219.723, 131.494 
	L 183.307, 145.912 
	L 148.985, 164.780 
	L 117.299, 187.802 
	L 88.748, 214.613 
	L 63.782, 244.792 
	L 42.795, 277.861 
	L 26.119, 313.299 
" />
<path d="M 26.119, 313.299 
	L 14.017, 350.549 
	L 6.677, 389.022 
	L 4.218, 428.111 
	L 6.677, 467.200 
	L 14.017, 505.673 
	L 26.119, 542.923 
	L 42.795, 578.361 
	L 63.782, 611.430 
	L 88.748, 641.609 
	L 117.299, 668.420 
	L 148.985, 691.442 
" />
<path d="M 148.985, 691.442 
	L 183.307, 710.310 
	L 219.723, 724.728 
	L 257.659, 734.469 
	L 296.517, 739.378 
	L 335.683, 739.378 
	L 374.541, 734.469 
	L 412.476, 724.728 
	L 448.892, 710.310 
	L 483.214, 691.442 
	L 514.901, 668.420 
" />
<path d="M 514.901, 668.420 
	L 543.452, 641.609 
	L 568.417, 611.430 
	L 589.404, 578.361 
	L 606.081, 542.923 
	L 618.183, 505.673 
	L 625.523, 467.200 
	L 627.982, 428.111 
	L 625.523, 389.022 
	L 618.183, 350.549 
	L 606.081, 313.299 
" />
<path d="M 606.081, 313.299 
	L 589.404, 277.861 
	L 568.417, 244.792 
	L 543.452, 214.613 
	L 514.901, 187.802 
" />
<path d="M 631.184, 414.787 
	L 631.184, 414.788 
	L 628.778, 376.559 
	L 621.600, 338.932 
" />
<path d="M 609.764, 302.502 
	L 609.764, 302.503 
	L 593.454, 267.844 
	L 572.929, 235.502 
	L 548.513, 205.987 
	L 520.591, 179.765 
	L 489.601, 157.251 
	L 456.034, 138.797 
	L 420.419, 124.696 
	L 383.318, 115.170 
	L 345.315, 110.370 
" />
<path d="M 345.315, 110.370 
	L 307.011, 110.370 
	L 269.008, 115.170 
	L 231.907, 124.696 
	L 196.291, 138.797 
	L 162.725, 157.251 
	L 131.735, 179.765 
	L 103.813, 205.987 
	L 79.396, 235.502 
	L 58.871, 267.844 
	L 42.562, 302.503 
" />
<path d="M 42.562, 302.503 
	L 30.725, 338.932 
	L 23.547, 376.559 
	L 21.142, 414.788 
	L 23.547, 453.018 
	L 30.725, 490.644 
	L 42.562, 527.073 
	L 58.871, 561.733 
	L 79.396, 594.074 
	L 103.813, 623.589 
" />
<path d="M 572.930, 594.074 
	L 572.929, 594.074 
	L 593.454, 561.733 
	L 609.764, 527.073 
	L 621.600, 490.644 
	L 628.778, 453.018 
	L 631.184, 414.788 
	L 628.778, 376.559 
	L 621.600, 338.932 
	L 609.764, 302.503 
" />
<path d="M 613.631, 421.378 
	L 613.631, 421.379 
	L 611.278, 383.990 
	L 604.259, 347.192 
	L 592.682, 311.563 
	L 576.731, 277.666 
	L 556.659, 246.037 
	L 532.779, 217.171 
	L 505.471, 191.527 
	L 475.163, 169.507 
	L 442.334, 151.459 
" />
<path d="M 442.334, 151.459 
	L 407.503, 137.669 
	L 371.218, 128.353 
	L 334.052, 123.657 
	L 296.589, 123.657 
	L 259.423, 128.353 
	L 223.138, 137.669 
	L 188.306, 151.459 
	L 155.477, 169.507 
	L 125.170, 191.527 
	L 97.862, 217.171 
" />
<path d="M 97.862, 217.171 
	L 73.982, 246.037 
	L 53.909, 277.666 
	L 37.959, 311.563 
	L 26.382, 347.192 
	L 19.363, 383.990 
" />
<path d="M 259.423, 714.404 
	L 259.423, 714.405 
	L 296.589, 719.100 
	L 334.052, 719.100 
	L 371.218, 714.405 
	L 407.503, 705.088 
	L 442.334, 691.298 
	L 475.163, 673.250 
	L 505.471, 651.230 
	L 532.779, 625.586 
	L 556.659, 596.721 
" />
<path d="M 556.659, 596.721 
	L 576.731, 565.091 
	L 592.682, 531.194 
	L 604.259, 495.566 
	L 611.278, 458.767 
	L 613.631, 421.379 
	L 611.278, 383.990 
	L 604.259, 347.192 
	L 592.682, 311.563 
" />
<path d="M 608.415, 422.087 
	L 608.414, 422.087 
	L 606.113, 385.522 
	L 599.248, 349.532 
" />
<path d="M 587.928, 314.688 
	L 587.927, 314.688 
	L 572.327, 281.537 
	L 552.695, 250.603 
	L 529.341, 222.372 
	L 502.634, 197.292 
	L 472.993, 175.757 
	L 440.887, 158.107 
	L 406.822, 144.619 
	L 371.335, 135.507 
" />
<path d="M 226.512, 144.619 
	L 226.512, 144.619 
	L 192.447, 158.107 
	L 160.341, 175.757 
	L 130.700, 197.292 
" />
<path d="M 103.993, 222.372 
	L 103.993, 222.372 
	L 80.639, 250.603 
	L 61.007, 281.537 
	L 45.407, 314.688 
	L 34.085, 349.532 
" />
<path d="M 24.920, 422.087 
	L 24.919, 422.087 
	L 27.220, 458.653 
	L 34.085, 494.642 
	L 45.407, 529.486 
	L 61.007, 562.638 
	L 80.639, 593.572 
	L 103.993, 621.802 
	L 130.700, 646.883 
	L 160.341, 668.417 
	L 192.447, 686.068 
" />
<path d="M 192.447, 686.068 
	L 226.512, 699.555 
	L 261.999, 708.667 
	L 298.348, 713.259 
	L 334.986, 713.259 
	L 371.335, 708.667 
	L 406.822, 699.555 
	L 440.887, 686.068 
	L 472.993, 668.417 
	L 502.634, 646.883 
	L 529.341, 621.802 
" />
<path d="M 529.341, 621.802 
	L 552.695, 593.572 
	L 572.327, 562.638 
	L 587.927, 529.486 
	L 599.248, 494.642 
" />
<path d="M 603.201, 424.567 
	L 603.201, 424.568 
	L 600.951, 388.806 
	L 594.236, 353.609 
	L 583.163, 319.531 
	L 567.907, 287.109 
	L 548.707, 256.856 
	L 525.867, 229.246 
	L 499.747, 204.718 
	L 470.758, 183.657 
	L 439.359, 166.394 
" />
<path d="M 439.359, 166.394 
	L 406.043, 153.204 
	L 371.337, 144.293 
	L 335.787, 139.802 
	L 299.956, 139.802 
	L 264.407, 144.293 
	L 229.700, 153.204 
	L 196.384, 166.394 
	L 164.985, 183.657 
	L 135.996, 204.718 
	L 109.876, 229.246 
" />
<path d="M 109.876, 229.246 
	L 87.036, 256.856 
	L 67.836, 287.109 
	L 52.580, 319.531 
	L 41.507, 353.609 
	L 34.792, 388.806 
	L 32.542, 424.568 
	L 34.792, 460.329 
	L 41.507, 495.526 
	L 52.580, 529.604 
	L 67.836, 562.026 
	L 87.036, 592.279 
" />
<path d="M 87.036, 592.279 
	L 109.876, 619.889 
	L 135.996, 644.417 
	L 164.985, 665.479 
	L 196.384, 682.741 
" />
<path d="M 601.814, 413.299 
	L 601.813, 413.300 
	L 599.613, 378.325 
	L 593.046, 343.903 
	L 582.217, 310.574 
	L 567.296, 278.866 
	L 548.519, 249.277 
	L 526.181, 222.276 
	L 500.635, 198.287 
	L 472.285, 177.689 
	L 441.576, 160.807 
" />
<path d="M 441.576, 160.807 
	L 408.993, 147.906 
	L 375.051, 139.191 
	L 340.283, 134.799 
	L 305.240, 134.799 
" />
<path d="M 119.342, 222.275 
	L 119.341, 222.276 
	L 97.004, 249.277 
	L 78.226, 278.866 
	L 63.305, 310.574 
	L 52.476, 343.903 
	L 45.910, 378.325 
	L 43.710, 413.300 
	L 45.910, 448.274 
	L 52.476, 482.697 
	L 63.305, 516.025 
	L 78.226, 547.734 
" />
<path d="M 78.226, 547.734 
	L 97.004, 577.322 
	L 119.341, 604.324 
	L 144.887, 628.313 
	L 173.238, 648.911 
	L 203.947, 665.793 
	L 236.530, 678.694 
	L 270.472, 687.409 
	L 305.240, 691.801 
	L 340.283, 691.801 
	L 375.051, 687.409 
" />
<path d="M 375.051, 687.409 
	L 408.993, 678.694 
	L 441.576, 665.793 
	L 472.285, 648.911 
	L 500.635, 628.313 
" />
<path d="M 590.714, 417.409 
	L 590.713, 417.410 
	L 588.561, 383.205 
	L 582.139, 349.540 
	L 571.548, 316.945 
	L 556.956, 285.934 
	L 538.591, 256.996 
	L 516.745, 230.589 
	L 491.761, 207.128 
	L 464.034, 186.982 
	L 434.001, 170.471 
" />
<path d="M 434.001, 170.471 
	L 402.135, 157.855 
	L 368.939, 149.332 
	L 334.937, 145.036 
	L 300.665, 145.036 
	L 266.662, 149.332 
	L 233.466, 157.855 
	L 201.600, 170.471 
	L 171.567, 186.982 
" />
<path d="M 44.889, 417.409 
	L 44.888, 417.410 
	L 47.040, 451.615 
	L 53.462, 485.281 
	L 64.053, 517.876 
	L 78.646, 548.887 
	L 97.010, 577.824 
	L 118.856, 604.232 
	L 143.840, 627.693 
	L 171.567, 647.838 
	L 201.600, 664.349 
" />
<path d="M 201.600, 664.349 
	L 233.466, 676.965 
	L 266.662, 685.488 
	L 300.665, 689.784 
	L 334.937, 689.784 
	L 368.939, 685.488 
	L 402.135, 676.965 
" />
<path d="M 571.549, 517.875 
	L 571.548, 517.876 
	L 582.139, 485.281 
	L 588.561, 451.615 
	L 590.713, 417.410 
	L 588.561, 383.205 
	L 582.139, 349.540 
	L 571.548, 316.945 
	L 556.956, 285.934 
	L 538.591, 256.996 
	L 516.745, 230.589 
" />
<path d="M 516.745, 230.589 
	L 491.761, 207.128 
	L 464.034, 186.982 
	L 434.001, 170.471 
	L 402.135, 157.855 
	L 368.939, 149.332 
	L 334.937, 145.036 
	L 300.665, 145.036 
	L 266.662, 149.332 
	L 233.466, 157.855 
	L 201.600, 170.471 
" />
<path d="M 201.600, 170.471 
	L 171.567, 186.982 
	L 143.840, 207.128 
	L 118.856, 230.589 
	L 97.010, 256.996 
	L 78.646, 285.934 
	L 64.053, 316.945 
" />
<path d="M 595.269, 414.008 
	L 595.268, 414.009 
	L 593.163, 380.556 
	L 586.883, 347.631 
	L 576.525, 315.753 
	L 562.253, 285.425 
	L 544.293, 257.124 
	L 522.928, 231.297 
	L 498.494, 208.352 
	L 471.376, 188.651 
	L 442.004, 172.502 
" />
<path d="M 442.004, 172.502 
	L 410.839, 160.164 
	L 378.374, 151.828 
	L 345.119, 147.627 
	L 311.601, 147.627 
	L 278.346, 151.828 
	L 245.881, 160.164 
	L 214.716, 172.502 
	L 185.343, 188.651 
" />
<path d="M 61.452, 414.008 
	L 61.452, 414.009 
	L 63.556, 447.461 
	L 69.836, 480.386 
	L 80.194, 512.264 
	L 94.466, 542.592 
	L 112.426, 570.894 
	L 133.792, 596.720 
	L 158.226, 619.665 
" />
<path d="M 245.881, 667.853 
	L 245.881, 667.853 
	L 278.346, 676.189 
	L 311.601, 680.390 
	L 345.119, 680.390 
" />
<path d="M 378.374, 676.189 
	L 378.374, 676.189 
	L 410.839, 667.853 
	L 442.004, 655.515 
	L 471.376, 639.366 
	L 498.494, 619.665 
	L 522.928, 596.720 
	L 544.293, 570.894 
	L 562.253, 542.592 
	L 576.525, 512.264 
" />
<path d="M 577.420, 424.283 
	L 577.420, 424.284 
	L 575.362, 391.567 
	L 569.219, 359.367 
	L 559.089, 328.190 
	L 545.132, 298.529 
	L 527.566, 270.851 
	L 506.671, 245.592 
	L 482.774, 223.152 
	L 456.253, 203.884 
	L 427.527, 188.092 
" />
<path d="M 427.527, 188.092 
	L 397.048, 176.024 
	L 365.297, 167.871 
	L 332.774, 163.763 
	L 299.993, 163.763 
	L 267.470, 167.871 
	L 235.719, 176.024 
	L 205.240, 188.092 
	L 176.513, 203.884 
	L 149.992, 223.152 
	L 126.096, 245.592 
" />
<path d="M 126.096, 245.592 
" />
<path d="M 73.679, 520.377 
	L 73.678, 520.378 
	L 87.635, 550.040 
" />
<path d="M 87.636, 550.039 
	L 87.635, 550.040 
	L 105.201, 577.717 
	L 126.096, 602.976 
	L 149.992, 625.416 
	L 176.513, 644.684 
	L 205.240, 660.477 
	L 235.719, 672.545 
" />
<path d="M 332.775, 684.804 
	L 332.774, 684.805 
	L 365.297, 680.697 
	L 397.048, 672.545 
	L 427.527, 660.477 
	L 456.253, 644.684 
" />
<path d="M 506.672, 602.975 
	L 506.671, 602.976 
	L 527.566, 577.717 
	L 545.132, 550.040 
	L 559.089, 520.378 
	L 569.219, 489.201 
	L 575.362, 457.001 
	L 577.420, 424.284 
	L 575.362, 391.567 
	L 569.219, 359.367 
	L 559.089, 328.190 
" />
<path d="M 559.089, 328.190 
	L 545.132, 298.529 
	L 527.566, 270.851 
	L 506.671, 245.592 
	L 482.774, 223.152 
	L 456.253, 203.884 
	L 427.527, 188.092 
	L 397.048, 176.024 
	L 365.297, 167.871 
	L 332.774, 163.763 
	L 299.993, 163.763 
" />
<path d="M 299.993, 163.763 
" />
<path d="M 583.513, 424.000 
	L 583.512, 424.001 
	L 581.499, 392.004 
	L 575.491, 360.512 
	L 565.584, 330.021 
	L 551.933, 301.012 
	L 534.755, 273.943 
	L 514.319, 249.241 
	L 490.948, 227.293 
	L 465.011, 208.449 
	L 436.917, 193.004 
" />
<path d="M 436.917, 193.004 
	L 407.108, 181.202 
	L 376.055, 173.229 
	L 344.248, 169.211 
	L 312.188, 169.211 
	L 280.381, 173.229 
	L 249.328, 181.202 
	L 219.519, 193.004 
	L 191.425, 208.449 
	L 165.488, 227.293 
	L 142.117, 249.241 
" />
<path d="M 142.117, 249.241 
	L 121.681, 273.943 
	L 104.503, 301.012 
	L 90.852, 330.021 
	L 80.945, 360.512 
	L 74.937, 392.004 
	L 72.924, 424.001 
	L 74.937, 455.997 
	L 80.945, 487.490 
	L 90.852, 517.981 
	L 104.503, 546.990 
" />
<path d="M 104.503, 546.990 
	L 121.681, 574.058 
	L 142.117, 598.761 
	L 165.488, 620.708 
	L 191.425, 639.552 
	L 219.519, 654.997 
" />
<path d="M 572.793, 417.764 
	L 572.793, 417.764 
	L 570.824, 386.471 
	L 564.949, 355.672 
	L 555.260, 325.853 
" />
<path d="M 541.910, 297.481 
	L 541.909, 297.482 
	L 525.109, 271.008 
	L 505.123, 246.849 
	L 482.266, 225.385 
	L 456.900, 206.955 
	L 429.423, 191.850 
	L 400.270, 180.308 
	L 369.901, 172.509 
	L 338.793, 168.580 
	L 307.439, 168.580 
" />
<path d="M 307.439, 168.580 
	L 276.331, 172.509 
	L 245.961, 180.308 
	L 216.809, 191.850 
	L 189.332, 206.955 
" />
<path d="M 81.283, 355.672 
	L 81.283, 355.672 
	L 75.407, 386.471 
	L 73.439, 417.764 
	L 75.407, 449.058 
	L 81.283, 479.857 
	L 90.972, 509.676 
	L 104.322, 538.047 
	L 121.122, 564.521 
	L 141.109, 588.680 
	L 163.965, 610.144 
" />
<path d="M 163.965, 610.144 
	L 189.332, 628.574 
	L 216.809, 643.679 
	L 245.961, 655.221 
	L 276.331, 663.019 
	L 307.439, 666.949 
	L 338.793, 666.949 
	L 369.901, 663.019 
	L 400.270, 655.221 
	L 429.423, 643.679 
	L 456.900, 628.574 
" />
<path d="M 456.900, 628.574 
	L 482.266, 610.144 
	L 505.123, 588.680 
	L 525.109, 564.521 
" />
<path d="M 559.151, 414.220 
	L 559.150, 414.221 
	L 557.225, 383.617 
	L 551.479, 353.495 
	L 542.003, 324.331 
	L 528.946, 296.585 
	L 512.515, 270.693 
	L 492.968, 247.066 
	L 470.615, 226.074 
	L 445.806, 208.050 
	L 418.934, 193.277 
" />
<path d="M 418.934, 193.277 
	L 390.423, 181.988 
	L 360.721, 174.362 
	L 330.299, 170.519 
	L 299.633, 170.519 
	L 269.211, 174.362 
	L 239.509, 181.988 
	L 210.998, 193.277 
	L 184.126, 208.050 
	L 159.317, 226.074 
	L 136.964, 247.066 
" />
<path d="M 136.964, 247.066 
	L 117.417, 270.693 
	L 100.986, 296.585 
	L 87.929, 324.331 
" />
<path d="M 184.127, 620.392 
	L 184.126, 620.393 
	L 210.998, 635.166 
	L 239.509, 646.455 
	L 269.211, 654.080 
	L 299.633, 657.924 
	L 330.299, 657.924 
	L 360.721, 654.080 
	L 390.423, 646.455 
" />
<path d="M 470.616, 602.368 
	L 470.615, 602.369 
	L 492.968, 581.377 
	L 512.515, 557.749 
	L 528.946, 531.858 
	L 542.003, 504.111 
	L 551.479, 474.947 
	L 557.225, 444.825 
	L 559.150, 414.221 
	L 557.225, 383.617 
	L 551.479, 353.495 
" />
<path d="M 551.479, 353.495 
	L 542.003, 324.331 
	L 528.946, 296.585 
	L 512.515, 270.693 
	L 492.968, 247.066 
	L 470.615, 226.074 
	L 445.806, 208.050 
	L 418.934, 193.277 
	L 390.423, 181.988 
	L 360.721, 174.362 
	L 330.299, 170.519 
" />
<path d="M 330.299, 170.519 
	L 299.633, 170.519 
	L 269.211, 174.362 
	L 239.509, 181.988 
	L 210.998, 193.277 
	L 184.126, 208.050 
	L 159.317, 226.074 
	L 136.964, 247.066 
	L 117.417, 270.693 
	L 100.986, 296.585 
	L 87.929, 324.331 
" />
<path d="M 87.929, 324.331 
	L 78.453, 353.495 
	L 72.707, 383.617 
	L 70.782, 414.221 
	L 72.707, 444.825 
	L 78.453, 474.947 
	L 87.929, 504.111 
	L 100.986, 531.858 
	L 117.417, 557.749 
	L 136.964, 581.377 
	L 159.317, 602.369 
" />
<path d="M 159.317, 602.369 
	L 184.126, 620.393 
	L 210.998, 635.166 
	L 239.509, 646.455 
	L 269.211, 654.080 
	L 299.633, 657.924 
	L 330.299, 657.924 
	L 360.721, 654.080 
	L 390.423, 646.455 
	L 418.934, 635.166 
	L 445.806, 620.393 
" />
<path d="M 445.806, 620.393 
	L 470.615, 602.369 
" />
<path d="M 562.212, 423.717 
	L 562.211, 423.717 
	L 560.328, 393.786 
	L 554.708, 364.327 
	L 545.441, 335.805 
	L 532.672, 308.669 
	L 516.602, 283.347 
	L 497.485, 260.239 
	L 475.624, 239.709 
	L 451.361, 222.082 
" />
<path d="M 338.395, 185.375 
	L 338.394, 185.376 
	L 308.404, 185.376 
	L 278.650, 189.135 
	L 249.602, 196.593 
" />
<path d="M 221.718, 207.633 
	L 221.718, 207.634 
	L 195.437, 222.082 
	L 171.174, 239.709 
	L 149.313, 260.239 
	L 130.196, 283.347 
	L 114.126, 308.669 
	L 101.357, 335.805 
	L 92.090, 364.327 
	L 86.470, 393.786 
	L 84.587, 423.717 
" />
<path d="M 84.587, 423.717 
	L 86.470, 453.648 
	L 92.090, 483.107 
	L 101.357, 511.630 
	L 114.126, 538.766 
	L 130.196, 564.088 
	L 149.313, 587.196 
	L 171.174, 607.725 
	L 195.437, 625.353 
	L 221.718, 639.801 
	L 249.602, 650.841 
" />
<path d="M 249.602, 650.841 
	L 278.650, 658.299 
	L 308.404, 662.059 
	L 338.394, 662.059 
	L 368.148, 658.299 
	L 397.196, 650.841 
	L 425.081, 639.801 
	L 451.361, 625.353 
	L 475.624, 607.725 
	L 497.485, 587.196 
	L 516.602, 564.088 
" />
<path d="M 516.602, 564.088 
	L 532.672, 538.766 
	L 545.441, 511.630 
	L 554.708, 483.107 
	L 560.328, 453.648 
	L 562.211, 423.717 
	L 560.328, 393.786 
	L 554.708, 364.327 
	L 545.441, 335.805 
" />
<path d="M 558.092, 427.047 
	L 558.092, 427.048 
	L 556.250, 397.775 
	L 550.753, 368.965 
	L 541.690, 341.070 
	L 529.202, 314.530 
	L 513.486, 289.766 
	L 494.790, 267.166 
	L 473.409, 247.088 
	L 449.680, 229.848 
	L 423.977, 215.718 
" />
<path d="M 423.977, 215.718 
	L 396.707, 204.921 
	L 368.298, 197.627 
	L 339.198, 193.951 
	L 309.868, 193.951 
	L 280.768, 197.627 
	L 252.359, 204.921 
	L 225.089, 215.718 
	L 199.386, 229.848 
	L 175.657, 247.088 
	L 154.276, 267.166 
" />
<path d="M 154.276, 267.166 
	L 135.580, 289.766 
	L 119.864, 314.530 
	L 107.376, 341.070 
	L 98.313, 368.965 
	L 92.816, 397.775 
	L 90.974, 427.048 
	L 92.816, 456.321 
	L 98.313, 485.131 
	L 107.376, 513.026 
	L 119.864, 539.566 
" />
<path d="M 119.864, 539.566 
	L 135.580, 564.330 
	L 154.276, 586.930 
	L 175.657, 607.008 
	L 199.386, 624.248 
	L 225.089, 638.378 
	L 252.359, 649.175 
	L 280.768, 656.469 
	L 309.868, 660.145 
	L 339.198, 660.145 
	L 368.298, 656.469 
" />
<path d="M 368.298, 656.469 
	L 396.707, 649.175 
" />
<path d="M 547.780, 423.787 
	L 547.780, 423.788 
	L 545.978, 395.160 
	L 540.604, 366.983 
	L 531.739, 339.701 
	L 519.525, 313.746 
	L 504.155, 289.527 
	L 485.871, 267.424 
	L 464.960, 247.788 
	L 441.753, 230.927 
	L 416.616, 217.108 
" />
<path d="M 416.616, 217.108 
	L 389.945, 206.548 
	L 362.161, 199.414 
	L 333.702, 195.819 
	L 305.017, 195.819 
	L 276.558, 199.414 
	L 248.774, 206.548 
	L 222.103, 217.108 
	L 196.966, 230.927 
	L 173.760, 247.788 
	L 152.848, 267.424 
" />
<path d="M 152.848, 267.424 
	L 134.564, 289.527 
	L 119.194, 313.746 
	L 106.980, 339.701 
	L 98.116, 366.983 
	L 92.741, 395.160 
" />
<path d="M 276.559, 648.162 
	L 276.558, 648.162 
	L 305.017, 651.757 
	L 333.702, 651.757 
	L 362.161, 648.162 
	L 389.945, 641.028 
	L 416.616, 630.469 
	L 441.753, 616.650 
	L 464.960, 599.788 
	L 485.871, 580.152 
	L 504.155, 558.050 
" />
<path d="M 504.155, 558.050 
	L 519.525, 533.831 
	L 531.739, 507.875 
	L 540.604, 480.594 
" />
<path d="M 542.684, 421.591 
	L 542.684, 421.591 
	L 540.922, 393.593 
	L 535.665, 366.035 
	L 526.996, 339.354 
	L 515.051, 313.970 
	L 500.019, 290.283 
	L 482.136, 268.667 
	L 461.686, 249.462 
	L 438.990, 232.972 
	L 414.405, 219.458 
" />
<path d="M 414.405, 219.458 
	L 388.322, 209.130 
	L 361.149, 202.154 
" />
<path d="M 224.173, 219.457 
	L 224.172, 219.458 
	L 199.588, 232.972 
	L 176.892, 249.462 
	L 156.441, 268.667 
	L 138.559, 290.283 
	L 123.527, 313.970 
	L 111.582, 339.354 
	L 102.913, 366.035 
	L 97.656, 393.593 
	L 95.894, 421.591 
" />
<path d="M 95.894, 421.591 
	L 97.656, 449.590 
	L 102.913, 477.147 
	L 111.582, 503.829 
	L 123.527, 529.213 
" />
<path d="M 250.257, 634.052 
	L 250.256, 634.052 
	L 277.429, 641.029 
	L 305.262, 644.545 
	L 333.316, 644.545 
	L 361.149, 641.029 
	L 388.322, 634.052 
	L 414.405, 623.725 
	L 438.990, 610.210 
	L 461.686, 593.720 
	L 482.136, 574.515 
" />
<path d="M 482.136, 574.515 
	L 500.019, 552.899 
	L 515.051, 529.213 
	L 526.996, 503.829 
	L 535.665, 477.147 
	L 540.922, 449.590 
	L 542.684, 421.591 
	L 540.922, 393.593 
	L 535.665, 366.035 
	L 526.996, 339.354 
	L 515.051, 313.970 
" />
<path d="M 515.051, 313.970 
	L 500.019, 290.283 
	L 482.136, 268.667 
	L 461.686, 249.462 
	L 438.990, 232.972 
	L 414.405, 219.458 
	L 388.322, 209.130 
	L 361.149, 202.154 
	L 333.316, 198.637 
	L 305.262, 198.637 
	L 277.429, 202.154 
" />
<path d="M 277.429, 202.154 
	L 250.256, 209.130 
	L 224.172, 219.458 
	L 199.588, 232.972 
	L 176.892, 249.462 
	L 156.441, 268.667 
	L 138.559, 290.283 
	L 123.527, 313.970 
" />
<path d="M 546.132, 426.197 
	L 546.131, 426.198 
	L 544.409, 398.815 
	L 539.267, 371.864 
" />
<path d="M 530.790, 345.769 
	L 530.789, 345.769 
	L 519.107, 320.944 
	L 504.405, 297.778 
	L 486.916, 276.637 
	L 466.916, 257.856 
	L 444.718, 241.729 
	L 420.676, 228.511 
	L 395.165, 218.411 
	L 368.590, 211.587 
	L 341.369, 208.149 
" />
<path d="M 341.369, 208.149 
	L 313.933, 208.149 
	L 286.712, 211.587 
	L 260.137, 218.411 
	L 234.626, 228.511 
	L 210.584, 241.729 
	L 188.386, 257.856 
	L 168.386, 276.637 
	L 150.897, 297.778 
	L 136.196, 320.944 
	L 124.513, 345.769 
" />
<path d="M 124.513, 345.769 
	L 116.035, 371.864 
	L 110.893, 398.815 
	L 109.171, 426.198 
	L 110.893, 453.580 
	L 116.035, 480.531 
" />
<path d="M 368.591, 640.807 
	L 368.590, 640.808 
	L 395.165, 633.984 
	L 420.676, 623.884 
	L 444.718, 610.666 
	L 466.916, 594.539 
	L 486.916, 575.758 
	L 504.405, 554.617 
	L 519.107, 531.451 
	L 530.789, 506.626 
	L 539.267, 480.531 
" />
<path d="M 539.267, 480.531 
	L 544.409, 453.580 
	L 546.131, 426.198 
" />
<path d="M 538.987, 424.992 
	L 538.986, 424.993 
	L 537.301, 398.213 
	L 532.273, 371.855 
" />
<path d="M 523.981, 346.334 
	L 523.981, 346.334 
	L 512.556, 322.055 
	L 498.178, 299.399 
	L 481.073, 278.723 
" />
<path d="M 461.514, 260.354 
	L 461.513, 260.354 
	L 439.805, 244.582 
	L 416.290, 231.655 
	L 391.341, 221.777 
	L 365.351, 215.104 
	L 338.729, 211.741 
	L 311.896, 211.741 
	L 285.274, 215.104 
	L 259.284, 221.777 
	L 234.335, 231.655 
" />
<path d="M 234.335, 231.655 
	L 210.820, 244.582 
	L 189.112, 260.354 
	L 169.552, 278.723 
	L 152.447, 299.399 
	L 138.069, 322.055 
	L 126.644, 346.334 
	L 118.352, 371.855 
	L 113.323, 398.213 
" />
<path d="M 189.113, 589.630 
	L 189.112, 589.631 
	L 210.820, 605.403 
	L 234.335, 618.331 
	L 259.284, 628.209 
	L 285.274, 634.881 
	L 311.896, 638.245 
	L 338.729, 638.245 
	L 365.351, 634.881 
	L 391.341, 628.209 
	L 416.290, 618.331 
" />
<path d="M 416.290, 618.331 
	L 439.805, 605.403 
	L 461.513, 589.631 
	L 481.073, 571.263 
	L 498.178, 550.587 
	L 512.556, 527.931 
	L 523.981, 503.651 
" />
<path d="M 535.491, 426.268 
	L 535.490, 426.268 
	L 533.842, 400.077 
	L 528.924, 374.299 
	L 520.815, 349.340 
	L 509.642, 325.595 
	L 495.580, 303.438 
	L 478.852, 283.217 
	L 459.721, 265.252 
	L 438.491, 249.827 
	L 415.493, 237.184 
" />
<path d="M 415.493, 237.184 
	L 391.093, 227.524 
	L 365.675, 220.998 
	L 339.639, 217.708 
	L 313.396, 217.708 
	L 287.359, 220.998 
	L 261.941, 227.524 
	L 237.541, 237.184 
	L 214.544, 249.827 
	L 193.313, 265.252 
	L 174.183, 283.217 
" />
<path d="M 174.183, 283.217 
	L 157.455, 303.438 
	L 143.393, 325.595 
	L 132.219, 349.340 
	L 124.110, 374.299 
	L 119.193, 400.077 
	L 117.544, 426.268 
	L 119.193, 452.460 
	L 124.110, 478.238 
	L 132.219, 503.196 
	L 143.393, 526.942 
" />
<path d="M 143.393, 526.942 
	L 157.455, 549.099 
" />
<path d="M 495.580, 549.099 
	L 495.580, 549.099 
	L 509.642, 526.942 
	L 520.815, 503.196 
	L 528.924, 478.238 
	L 533.842, 452.460 
	L 535.490, 426.268 
	L 533.842, 400.077 
	L 528.924, 374.299 
	L 520.815, 349.340 
	L 509.642, 325.595 
" />
<path d="M 509.642, 325.595 
	L 495.580, 303.438 
	L 478.852, 283.217 
	L 459.721, 265.252 
	L 438.491, 249.827 
	L 415.493, 237.184 
	L 391.093, 227.524 
	L 365.675, 220.998 
	L 339.639, 217.708 
	L 313.396, 217.708 
	L 287.359, 220.998 
" />
<path d="M 287.359, 220.998 
	L 261.941, 227.524 
	L 237.541, 237.184 
	L 214.544, 249.827 
	L 193.313, 265.252 
" />
<path d="M 522.177, 418.472 
	L 522.176, 418.473 
	L 520.564, 392.858 
" />
<path d="M 520.565, 392.857 
	L 520.564, 392.858 
	L 515.755, 367.647 
	L 507.824, 343.237 
	L 496.896, 320.015 
	L 483.143, 298.344 
	L 466.784, 278.568 
	L 448.075, 260.999 
	L 427.310, 245.913 
	L 404.819, 233.549 
	L 380.956, 224.101 
" />
<path d="M 380.956, 224.101 
	L 356.097, 217.718 
	L 330.634, 214.501 
	L 304.968, 214.501 
	L 279.505, 217.718 
	L 254.645, 224.101 
	L 230.782, 233.549 
	L 208.291, 245.913 
	L 187.527, 260.999 
	L 168.817, 278.568 
	L 152.458, 298.344 
" />
<path d="M 152.458, 298.344 
	L 138.705, 320.015 
" />
<path d="M 168.818, 558.377 
	L 168.817, 558.378 
	L 187.527, 575.947 
	L 208.291, 591.033 
	L 230.782, 603.398 
	L 254.645, 612.846 
	L 279.505, 619.228 
	L 304.968, 622.445 
	L 330.634, 622.445 
	L 356.097, 619.228 
	L 380.956, 612.846 
" />
<path d="M 380.956, 612.846 
	L 404.819, 603.398 
	L 427.310, 591.033 
	L 448.075, 575.947 
	L 466.784, 558.378 
	L 483.143, 538.602 
	L 496.896, 516.932 
	L 507.824, 493.709 
	L 515.755, 469.299 
	L 520.564, 444.088 
	L 522.176, 418.473 
" />
<path d="M 522.176, 418.473 
	L 520.564, 392.858 
	L 515.755, 367.647 
	L 507.824, 343.237 
	L 496.896, 320.015 
" />
<path d="M 529.515, 416.417 
	L 529.515, 416.418 
	L 527.938, 391.367 
	L 523.235, 366.710 
	L 515.478, 342.838 
	L 504.791, 320.126 
	L 491.341, 298.932 
	L 475.341, 279.591 
	L 457.043, 262.409 
	L 436.736, 247.655 
	L 414.740, 235.562 
" />
<path d="M 414.740, 235.562 
	L 391.402, 226.322 
	L 367.089, 220.079 
	L 342.186, 216.933 
	L 317.085, 216.933 
	L 292.182, 220.079 
" />
<path d="M 154.480, 320.125 
	L 154.480, 320.126 
	L 143.792, 342.838 
	L 136.036, 366.710 
	L 131.333, 391.367 
	L 129.756, 416.418 
	L 131.333, 441.469 
	L 136.036, 466.126 
	L 143.792, 489.998 
	L 154.480, 512.710 
	L 167.930, 533.904 
" />
<path d="M 167.930, 533.904 
	L 183.930, 553.245 
" />
<path d="M 292.183, 612.756 
	L 292.182, 612.757 
	L 317.085, 615.903 
	L 342.186, 615.903 
	L 367.089, 612.757 
	L 391.402, 606.514 
	L 414.740, 597.274 
	L 436.736, 585.182 
	L 457.043, 570.427 
	L 475.341, 553.245 
	L 491.341, 533.904 
" />
<path d="M 491.341, 533.904 
	L 504.791, 512.710 
	L 515.478, 489.998 
	L 523.235, 466.126 
	L 527.938, 441.469 
	L 529.515, 416.418 
	L 527.938, 391.367 
	L 523.235, 366.710 
	L 515.478, 342.838 
	L 504.791, 320.126 
	L 491.341, 298.932 
" />
<path d="M 491.341, 298.932 
	L 475.341, 279.591 
	L 457.043, 262.409 
	L 436.736, 247.655 
	L 414.740, 235.562 
" />
<path d="M 523.062, 423.362 
	L 523.062, 423.363 
	L 521.520, 398.862 
	L 516.920, 374.749 
	L 509.334, 351.401 
	L 498.882, 329.189 
	L 485.728, 308.462 
	L 470.080, 289.546 
	L 452.185, 272.742 
" />
<path d="M 387.988, 237.448 
	L 387.987, 237.448 
	L 364.209, 231.344 
	L 339.855, 228.267 
	L 315.305, 228.267 
	L 290.951, 231.344 
	L 267.173, 237.448 
	L 244.348, 246.486 
	L 222.836, 258.312 
	L 202.976, 272.742 
	L 185.080, 289.546 
" />
<path d="M 185.080, 289.546 
	L 169.432, 308.462 
	L 156.278, 329.189 
	L 145.826, 351.401 
	L 138.240, 374.749 
	L 133.640, 398.862 
	L 132.099, 423.363 
	L 133.640, 447.863 
	L 138.240, 471.977 
	L 145.826, 495.325 
	L 156.278, 517.537 
" />
<path d="M 156.278, 517.537 
	L 169.432, 538.264 
	L 185.080, 557.179 
" />
<path d="M 410.813, 600.239 
	L 410.813, 600.240 
	L 432.325, 588.414 
	L 452.185, 573.984 
	L 470.080, 557.179 
	L 485.728, 538.264 
	L 498.882, 517.537 
	L 509.334, 495.325 
	L 516.920, 471.977 
	L 521.520, 447.863 
	L 523.062, 423.363 
" />
<path d="M 523.062, 423.363 
	L 521.520, 398.862 
	L 516.920, 374.749 
	L 509.334, 351.401 
	L 498.882, 329.189 
	L 485.728, 308.462 
	L 470.080, 289.546 
	L 452.185, 272.742 
	L 432.325, 258.312 
	L 410.813, 246.486 
	L 387.987, 237.448 
" />
<path d="M 387.987, 237.448 
	L 364.209, 231.344 
	L 339.855, 228.267 
	L 315.305, 228.267 
	L 290.951, 231.344 
	L 267.173, 237.448 
	L 244.348, 246.486 
" />
<path d="M 519.825, 424.638 
	L 519.824, 424.638 
	L 518.316, 400.677 
	L 513.818, 377.094 
	L 506.399, 354.260 
	L 496.176, 332.537 
	L 483.312, 312.265 
	L 468.009, 293.766 
	L 450.507, 277.331 
	L 431.083, 263.219 
	L 410.044, 251.653 
" />
<path d="M 410.044, 251.653 
	L 387.721, 242.814 
	L 364.467, 236.844 
	L 340.647, 233.835 
	L 316.639, 233.835 
	L 292.820, 236.844 
	L 269.565, 242.814 
	L 247.242, 251.653 
	L 226.203, 263.219 
	L 206.780, 277.331 
	L 189.278, 293.766 
" />
<path d="M 189.278, 293.766 
	L 173.974, 312.265 
	L 161.110, 332.537 
	L 150.887, 354.260 
	L 143.469, 377.094 
	L 138.970, 400.677 
	L 137.462, 424.638 
	L 138.970, 448.600 
	L 143.469, 472.183 
	L 150.887, 495.017 
	L 161.110, 516.740 
" />
<path d="M 161.110, 516.740 
	L 173.974, 537.012 
	L 189.278, 555.511 
	L 206.780, 571.946 
	L 226.203, 586.058 
	L 247.242, 597.624 
	L 269.565, 606.463 
	L 292.820, 612.433 
	L 316.639, 615.442 
	L 340.647, 615.442 
	L 364.467, 612.433 
" />
<path d="M 364.467, 612.433 
	L 387.721, 606.463 
	L 410.044, 597.624 
	L 431.083, 586.058 
" />
<path d="M 512.076, 427.685 
	L 512.075, 427.686 
	L 510.601, 404.252 
	L 506.201, 381.187 
	L 498.945, 358.856 
	L 488.947, 337.610 
	L 476.366, 317.784 
	L 461.399, 299.692 
	L 444.283, 283.619 
	L 425.286, 269.817 
	L 404.710, 258.506 
" />
<path d="M 404.710, 258.506 
	L 382.878, 249.862 
	L 360.135, 244.023 
	L 336.840, 241.080 
	L 313.360, 241.080 
	L 290.064, 244.023 
	L 267.321, 249.862 
	L 245.490, 258.506 
	L 224.914, 269.817 
	L 205.917, 283.619 
	L 188.801, 299.692 
" />
<path d="M 188.801, 299.692 
	L 173.834, 317.784 
	L 161.252, 337.610 
	L 151.255, 358.856 
	L 143.999, 381.187 
	L 139.599, 404.252 
	L 138.125, 427.686 
	L 139.599, 451.120 
	L 143.999, 474.185 
	L 151.255, 496.516 
	L 161.252, 517.762 
" />
<path d="M 161.252, 517.762 
" />
<path d="M 444.283, 571.752 
	L 444.283, 571.752 
	L 461.399, 555.679 
	L 476.366, 537.587 
	L 488.947, 517.762 
" />
<path d="M 498.946, 496.515 
	L 498.945, 496.516 
	L 506.201, 474.185 
	L 510.601, 451.120 
	L 512.075, 427.686 
	L 510.601, 404.252 
	L 506.201, 381.187 
	L 498.945, 358.856 
	L 488.947, 337.610 
	L 476.366, 317.784 
	L 461.399, 299.692 
" />
<path d="M 461.399, 299.692 
	L 444.283, 283.619 
	L 425.286, 269.817 
	L 404.710, 258.506 
	L 382.878, 249.862 
	L 360.135, 244.023 
	L 336.840, 241.080 
	L 313.360, 241.080 
	L 290.064, 244.023 
	L 267.321, 249.862 
	L 245.490, 258.506 
" />
<path d="M 245.490, 258.506 
	L 224.914, 269.817 
	L 205.917, 283.619 
	L 188.801, 299.692 
	L 173.834, 317.784 
	L 161.252, 337.610 
	L 151.255, 358.856 
	L 143.999, 381.187 
	L 139.599, 404.252 
	L 138.125, 427.686 
	L 139.599, 451.120 
" />
<path d="M 139.599, 451.120 
	L 143.999, 474.185 
	L 151.255, 496.516 
	L 161.252, 517.762 
	L 173.834, 537.587 
	L 188.801, 555.679 
	L 205.917, 571.752 
	L 224.914, 585.554 
" />
<path d="M 502.860, 418.118 
	L 502.859, 418.119 
	L 501.417, 395.200 
	L 497.114, 372.643 
	L 490.018, 350.803 
	L 480.241, 330.024 
	L 467.936, 310.635 
	L 453.298, 292.942 
	L 436.558, 277.221 
	L 417.980, 263.723 
	L 397.856, 252.661 
" />
<path d="M 397.856, 252.661 
" />
<path d="M 308.516, 235.617 
	L 308.516, 235.618 
	L 285.732, 238.496 
	L 263.490, 244.207 
	L 242.139, 252.661 
	L 222.015, 263.723 
	L 203.437, 277.221 
	L 186.697, 292.942 
	L 172.059, 310.635 
	L 159.754, 330.024 
	L 149.977, 350.803 
" />
<path d="M 149.977, 350.803 
	L 142.881, 372.643 
	L 138.578, 395.200 
	L 137.136, 418.119 
	L 138.578, 441.038 
	L 142.881, 463.594 
	L 149.977, 485.435 
	L 159.754, 506.213 
	L 172.059, 525.602 
	L 186.697, 543.296 
	L 203.437, 559.016 
" />
<path d="M 203.437, 559.016 
	L 222.015, 572.514 
	L 242.139, 583.577 
	L 263.490, 592.031 
	L 285.732, 597.742 
	L 308.516, 600.620 
	L 331.479, 600.620 
	L 354.263, 597.742 
	L 376.505, 592.031 
	L 397.856, 583.577 
	L 417.980, 572.514 
" />
<path d="M 417.980, 572.514 
	L 436.558, 559.016 
	L 453.298, 543.296 
" />
<path d="M 508.829, 415.709 
	L 508.828, 415.709 
	L 507.418, 393.295 
	L 503.210, 371.234 
	L 496.270, 349.875 
	L 486.707, 329.553 
	L 474.674, 310.591 
	L 460.357, 293.286 
	L 443.986, 277.912 
	L 425.816, 264.711 
	L 406.135, 253.891 
" />
<path d="M 406.135, 253.891 
	L 385.254, 245.624 
	L 363.501, 240.039 
	L 341.219, 237.224 
	L 318.760, 237.224 
	L 296.478, 240.039 
	L 274.725, 245.624 
	L 253.844, 253.891 
	L 234.163, 264.711 
	L 215.994, 277.912 
	L 199.622, 293.286 
" />
<path d="M 199.622, 293.286 
	L 185.306, 310.591 
	L 173.272, 329.553 
" />
<path d="M 199.623, 538.132 
	L 199.622, 538.133 
	L 215.994, 553.507 
	L 234.163, 566.708 
	L 253.844, 577.527 
	L 274.725, 585.795 
	L 296.478, 591.380 
	L 318.760, 594.195 
	L 341.219, 594.195 
	L 363.501, 591.380 
	L 385.254, 585.795 
" />
<path d="M 385.254, 585.795 
	L 406.135, 577.527 
	L 425.816, 566.708 
	L 443.986, 553.507 
	L 460.357, 538.133 
	L 474.674, 520.828 
	L 486.707, 501.866 
	L 496.270, 481.544 
" />
<path d="M 498.304, 427.260 
	L 498.303, 427.261 
	L 496.924, 405.340 
" />
<path d="M 496.925, 405.339 
	L 496.924, 405.340 
	L 492.808, 383.764 
	L 486.021, 362.874 
	L 476.669, 343.000 
	L 464.900, 324.454 
	L 450.899, 307.530 
" />
<path d="M 417.118, 279.583 
	L 417.117, 279.584 
	L 397.869, 269.002 
	L 377.447, 260.916 
	L 356.173, 255.454 
	L 334.381, 252.702 
	L 312.417, 252.702 
	L 290.626, 255.454 
	L 269.351, 260.916 
	L 248.929, 269.002 
	L 229.681, 279.584 
" />
<path d="M 229.681, 279.584 
	L 211.911, 292.494 
	L 195.900, 307.530 
	L 181.899, 324.454 
	L 170.129, 343.000 
	L 160.777, 362.874 
	L 153.990, 383.764 
	L 149.874, 405.340 
	L 148.495, 427.261 
" />
<path d="M 229.681, 574.936 
	L 229.681, 574.937 
	L 248.929, 585.519 
	L 269.351, 593.605 
	L 290.626, 599.067 
	L 312.417, 601.819 
	L 334.381, 601.819 
	L 356.173, 599.067 
	L 377.447, 593.605 
	L 397.869, 585.519 
	L 417.117, 574.937 
" />
<path d="M 417.117, 574.937 
	L 434.887, 562.027 
	L 450.899, 546.991 
	L 464.900, 530.067 
	L 476.669, 511.521 
" />
<path d="M 492.897, 428.394 
	L 492.897, 428.394 
	L 491.547, 406.955 
	L 487.522, 385.854 
	L 480.884, 365.424 
	L 471.738, 345.988 
	L 460.227, 327.850 
	L 446.535, 311.298 
	L 430.875, 296.593 
	L 413.497, 283.967 
	L 394.672, 273.618 
" />
<path d="M 394.672, 273.618 
	L 374.699, 265.710 
	L 353.893, 260.368 
	L 332.581, 257.676 
	L 311.100, 257.676 
	L 289.787, 260.368 
	L 268.981, 265.710 
	L 249.008, 273.618 
	L 230.183, 283.967 
	L 212.805, 296.593 
	L 197.145, 311.298 
" />
<path d="M 197.145, 311.298 
	L 183.453, 327.850 
	L 171.943, 345.988 
	L 162.796, 365.424 
	L 156.158, 385.854 
	L 152.133, 406.955 
	L 150.783, 428.394 
	L 152.133, 449.834 
	L 156.158, 470.935 
	L 162.796, 491.365 
	L 171.943, 510.801 
" />
<path d="M 171.943, 510.801 
	L 183.453, 528.939 
	L 197.145, 545.491 
" />
<path d="M 471.738, 510.800 
	L 471.738, 510.801 
	L 480.884, 491.365 
	L 487.522, 470.935 
	L 491.547, 449.834 
	L 492.897, 428.394 
	L 491.547, 406.955 
	L 487.522, 385.854 
	L 480.884, 365.424 
	L 471.738, 345.988 
	L 460.227, 327.850 
" />
<path d="M 460.227, 327.850 
	L 446.535, 311.298 
	L 430.875, 296.593 
	L 413.497, 283.967 
	L 394.672, 273.618 
	L 374.699, 265.710 
	L 353.893, 260.368 
	L 332.581, 257.676 
	L 311.100, 257.676 
	L 289.787, 260.368 
	L 268.981, 265.710 
" />
<path d="M 268.981, 265.710 
	L 249.008, 273.618 
	L 230.183, 283.967 
	L 212.805, 296.593 
	L 197.145, 311.298 
	L 183.453, 327.850 
	L 171.943, 345.988 
	L 162.796, 365.424 
" />
<path d="M 495.866, 422.228 
	L 495.865, 422.229 
	L 494.547, 401.262 
	L 490.610, 380.625 
	L 484.118, 360.644 
	L 475.172, 341.635 
	L 463.915, 323.897 
	L 450.524, 307.709 
	L 435.209, 293.328 
	L 418.212, 280.979 
	L 399.802, 270.858 
" />
<path d="M 399.802, 270.858 
	L 380.268, 263.124 
	L 359.920, 257.899 
	L 339.077, 255.266 
	L 318.068, 255.266 
	L 297.225, 257.899 
	L 276.876, 263.124 
	L 257.343, 270.858 
	L 238.932, 280.979 
	L 221.936, 293.328 
	L 206.621, 307.709 
" />
<path d="M 206.621, 307.709 
	L 193.229, 323.897 
	L 181.972, 341.635 
	L 173.027, 360.644 
	L 166.535, 380.625 
	L 162.598, 401.262 
	L 161.279, 422.229 
" />
<path d="M 318.069, 589.191 
	L 318.068, 589.192 
	L 339.077, 589.192 
" />
<path d="M 339.078, 589.191 
	L 339.077, 589.192 
	L 359.920, 586.559 
	L 380.268, 581.334 
	L 399.802, 573.601 
	L 418.212, 563.479 
	L 435.209, 551.130 
	L 450.524, 536.749 
	L 463.915, 520.562 
	L 475.172, 502.823 
	L 484.118, 483.814 
" />
<path d="M 484.118, 483.814 
" />
<path d="M 483.328, 419.819 
	L 483.327, 419.820 
	L 482.037, 399.314 
	L 478.186, 379.131 
	L 471.837, 359.590 
	L 463.089, 340.999 
	L 452.079, 323.651 
	L 438.982, 307.819 
	L 424.005, 293.754 
	L 407.382, 281.677 
	L 389.377, 271.778 
" />
<path d="M 389.377, 271.778 
	L 370.274, 264.215 
	L 350.372, 259.105 
	L 329.988, 256.530 
	L 309.441, 256.530 
	L 289.056, 259.105 
	L 269.155, 264.215 
	L 250.051, 271.778 
	L 232.046, 281.677 
	L 215.423, 293.754 
	L 200.446, 307.819 
" />
<path d="M 200.446, 307.819 
	L 187.349, 323.651 
	L 176.339, 340.999 
	L 167.591, 359.590 
	L 161.242, 379.131 
	L 157.392, 399.314 
	L 156.101, 419.820 
" />
<path d="M 309.441, 583.109 
	L 309.441, 583.109 
	L 329.988, 583.109 
	L 350.372, 580.534 
	L 370.274, 575.425 
	L 389.377, 567.861 
	L 407.382, 557.963 
	L 424.005, 545.886 
	L 438.982, 531.820 
	L 452.079, 515.988 
	L 463.089, 498.640 
" />
<path d="M 463.089, 498.640 
	L 471.837, 480.049 
	L 478.186, 460.508 
	L 482.037, 440.325 
	L 483.327, 419.820 
	L 482.037, 399.314 
	L 478.186, 379.131 
	L 471.837, 359.590 
	L 463.089, 340.999 
	L 452.079, 323.651 
	L 438.982, 307.819 
" />
<path d="M 438.982, 307.819 
	L 424.005, 293.754 
	L 407.382, 281.677 
	L 389.377, 271.778 
	L 370.274, 264.215 
	L 350.372, 259.105 
	L 329.988, 256.530 
	L 309.441, 256.530 
	L 289.056, 259.105 
	L 269.155, 264.215 
	L 250.051, 271.778 
" />
<path d="M 250.051, 271.778 
	L 232.046, 281.677 
" />
<path d="M 477.318, 418.827 
	L 477.318, 418.827 
	L 476.056, 398.772 
	L 472.291, 379.034 
	L 466.081, 359.923 
	L 457.525, 341.741 
	L 446.758, 324.774 
	L 433.949, 309.291 
	L 419.301, 295.535 
	L 403.044, 283.724 
	L 385.435, 274.043 
" />
<path d="M 385.435, 274.043 
	L 366.751, 266.646 
	L 347.288, 261.648 
	L 327.352, 259.130 
	L 307.257, 259.130 
	L 287.321, 261.648 
	L 267.858, 266.646 
	L 249.175, 274.043 
	L 231.565, 283.724 
	L 215.308, 295.535 
	L 200.660, 309.291 
" />
<path d="M 200.660, 309.291 
" />
<path d="M 168.529, 477.731 
	L 168.528, 477.732 
	L 177.084, 495.914 
	L 187.851, 512.881 
	L 200.660, 528.364 
	L 215.308, 542.120 
	L 231.565, 553.931 
	L 249.175, 563.612 
	L 267.858, 571.009 
	L 287.321, 576.006 
	L 307.257, 578.525 
" />
<path d="M 307.257, 578.525 
	L 327.352, 578.525 
	L 347.288, 576.006 
	L 366.751, 571.009 
	L 385.435, 563.612 
	L 403.044, 553.931 
	L 419.301, 542.120 
	L 433.949, 528.364 
	L 446.758, 512.881 
	L 457.525, 495.914 
	L 466.081, 477.732 
" />
<path d="M 466.081, 477.732 
	L 472.291, 458.621 
	L 476.056, 438.883 
" />
<path d="M 472.523, 419.606 
	L 472.522, 419.607 
	L 471.288, 399.993 
	L 467.605, 380.689 
	L 461.532, 361.998 
	L 453.165, 344.216 
	L 442.634, 327.623 
	L 430.107, 312.480 
	L 415.782, 299.027 
	L 399.882, 287.476 
	L 382.660, 278.008 
" />
<path d="M 382.660, 278.008 
	L 364.388, 270.773 
	L 345.353, 265.886 
	L 325.855, 263.423 
	L 306.203, 263.423 
	L 286.705, 265.886 
	L 267.670, 270.773 
	L 249.398, 278.008 
	L 232.176, 287.476 
	L 216.276, 299.027 
	L 201.951, 312.480 
" />
<path d="M 201.951, 312.480 
	L 189.424, 327.623 
" />
<path d="M 189.425, 511.591 
	L 189.424, 511.591 
	L 201.951, 526.734 
	L 216.276, 540.187 
	L 232.176, 551.738 
	L 249.398, 561.206 
	L 267.670, 568.441 
	L 286.705, 573.328 
	L 306.203, 575.791 
	L 325.855, 575.791 
	L 345.353, 573.328 
" />
<path d="M 345.353, 573.328 
	L 364.388, 568.441 
	L 382.660, 561.206 
	L 399.882, 551.738 
	L 415.782, 540.187 
	L 430.107, 526.734 
	L 442.634, 511.591 
	L 453.165, 494.998 
	L 461.532, 477.216 
	L 467.605, 458.525 
	L 471.288, 439.221 
" />
<path d="M 471.288, 439.221 
	L 472.522, 419.607 
	L 471.288, 399.993 
	L 467.605, 380.689 
" />
<path d="M 480.206, 416.063 
	L 480.205, 416.064 
	L 478.999, 396.882 
	L 475.397, 378.001 
	L 469.457, 359.722 
	L 461.274, 342.331 
	L 450.975, 326.103 
	L 438.724, 311.294 
	L 424.713, 298.137 
	L 409.163, 286.839 
	L 392.321, 277.580 
" />
<path d="M 392.321, 277.580 
	L 374.450, 270.505 
	L 355.834, 265.725 
	L 336.765, 263.316 
	L 317.545, 263.316 
	L 298.476, 265.725 
	L 279.860, 270.505 
	L 261.989, 277.580 
	L 245.147, 286.839 
	L 229.597, 298.137 
	L 215.586, 311.294 
" />
<path d="M 215.586, 311.294 
	L 203.335, 326.103 
	L 193.036, 342.331 
	L 184.853, 359.722 
	L 178.913, 378.001 
" />
<path d="M 261.990, 554.547 
	L 261.989, 554.548 
	L 279.860, 561.623 
	L 298.476, 566.403 
	L 317.545, 568.811 
	L 336.765, 568.811 
	L 355.834, 566.403 
	L 374.450, 561.623 
	L 392.321, 554.548 
	L 409.163, 545.288 
	L 424.713, 533.991 
" />
<path d="M 424.713, 533.991 
	L 438.724, 520.834 
	L 450.975, 506.024 
	L 461.274, 489.796 
	L 469.457, 472.405 
	L 475.397, 454.126 
	L 478.999, 435.246 
	L 480.205, 416.064 
" />
<path d="M 466.705, 420.740 
	L 466.704, 420.741 
	L 465.524, 401.980 
	L 462.001, 383.516 
	L 456.193, 365.639 
	L 448.189, 348.630 
	L 438.117, 332.759 
	L 426.135, 318.275 
	L 412.432, 305.408 
	L 397.225, 294.360 
	L 380.753, 285.304 
" />
<path d="M 380.753, 285.304 
	L 363.276, 278.384 
	L 345.069, 273.709 
	L 326.420, 271.354 
	L 307.622, 271.354 
	L 288.973, 273.709 
	L 270.767, 278.384 
	L 253.289, 285.304 
	L 236.817, 294.360 
	L 221.610, 305.408 
	L 207.907, 318.275 
" />
<path d="M 207.907, 318.275 
	L 195.925, 332.759 
	L 185.853, 348.630 
	L 177.849, 365.639 
	L 172.041, 383.516 
	L 168.518, 401.980 
	L 167.338, 420.741 
	L 168.518, 439.501 
	L 172.041, 457.965 
	L 177.849, 475.843 
	L 185.853, 492.851 
" />
<path d="M 185.853, 492.851 
	L 195.925, 508.723 
" />
<path d="M 438.118, 508.722 
	L 438.117, 508.723 
	L 448.189, 492.851 
	L 456.193, 475.843 
	L 462.001, 457.965 
	L 465.524, 439.501 
	L 466.704, 420.741 
	L 465.524, 401.980 
	L 462.001, 383.516 
	L 456.193, 365.639 
	L 448.189, 348.630 
" />
<path d="M 448.189, 348.630 
	L 438.117, 332.759 
	L 426.135, 318.275 
	L 412.432, 305.408 
	L 397.225, 294.360 
	L 380.753, 285.304 
	L 363.276, 278.384 
	L 345.069, 273.709 
	L 326.420, 271.354 
	L 307.622, 271.354 
	L 288.973, 273.709 
" />
<path d="M 288.973, 273.709 
	L 270.767, 278.384 
	L 253.289, 285.304 
	L 236.817, 294.360 
	L 221.610, 305.408 
	L 207.907, 318.275 
	L 195.925, 332.759 
	L 185.853, 348.630 
	L 177.849, 365.639 
	L 172.041, 383.516 
	L 168.518, 401.980 
" />
<path d="M 168.518, 401.980 
	L 167.338, 420.741 
	L 168.518, 439.501 
	L 172.041, 457.965 
	L 177.849, 475.843 
	L 185.853, 492.851 
	L 195.925, 508.723 
	L 207.907, 523.206 
	L 221.610, 536.073 
	L 236.817, 547.122 
	L 253.289, 556.178 
" />
<path d="M 253.289, 556.178 
	L 270.767, 563.098 
	L 288.973, 567.773 
	L 307.622, 570.128 
	L 326.420, 570.128 
	L 345.069, 567.773 
	L 363.276, 563.098 
	L 380.753, 556.178 
	L 397.225, 547.122 
" />
<path d="M 474.750, 426.126 
	L 474.749, 426.127 
	L 473.596, 407.779 
	L 470.151, 389.721 
	L 464.470, 372.237 
	L 456.642, 355.603 
	L 446.792, 340.081 
	L 435.074, 325.916 
	L 421.672, 313.331 
	L 406.799, 302.525 
	L 390.689, 293.669 
" />
<path d="M 390.689, 293.669 
	L 373.596, 286.902 
	L 355.791, 282.330 
	L 337.552, 280.025 
	L 319.168, 280.025 
	L 300.929, 282.330 
	L 283.123, 286.902 
	L 266.030, 293.669 
	L 249.920, 302.525 
	L 235.047, 313.331 
	L 221.646, 325.916 
" />
<path d="M 221.646, 325.916 
	L 209.928, 340.081 
	L 200.077, 355.603 
	L 192.250, 372.237 
	L 186.569, 389.721 
	L 183.124, 407.779 
" />
<path d="M 300.930, 569.923 
	L 300.929, 569.923 
	L 319.168, 572.228 
	L 337.552, 572.228 
	L 355.791, 569.923 
	L 373.596, 565.352 
	L 390.689, 558.584 
	L 406.799, 549.728 
	L 421.672, 538.922 
	L 435.074, 526.338 
	L 446.792, 512.172 
" />
<path d="M 446.792, 512.172 
	L 456.642, 496.651 
	L 464.470, 480.016 
	L 470.151, 462.532 
	L 473.596, 444.474 
	L 474.749, 426.127 
	L 473.596, 407.779 
	L 470.151, 389.721 
	L 464.470, 372.237 
	L 456.642, 355.603 
	L 446.792, 340.081 
" />
<path d="M 446.792, 340.081 
	L 435.074, 325.916 
	L 421.672, 313.331 
	L 406.799, 302.525 
	L 390.689, 293.669 
	L 373.596, 286.902 
	L 355.791, 282.330 
" />
<path d="M 470.892, 428.323 
	L 470.891, 428.324 
	L 469.763, 410.380 
	L 466.394, 392.719 
	L 460.838, 375.620 
	L 453.182, 359.351 
	L 443.548, 344.171 
	L 432.088, 330.317 
	L 418.981, 318.010 
	L 404.436, 307.441 
	L 388.680, 298.780 
" />
<path d="M 388.680, 298.780 
	L 371.964, 292.161 
	L 354.549, 287.690 
	L 336.711, 285.437 
" />
<path d="M 236.463, 318.009 
	L 236.463, 318.010 
	L 223.356, 330.317 
	L 211.895, 344.171 
	L 202.262, 359.351 
	L 194.606, 375.620 
	L 189.050, 392.719 
	L 185.681, 410.380 
	L 184.552, 428.324 
	L 185.681, 446.268 
	L 189.050, 463.928 
" />
<path d="M 189.050, 463.928 
	L 194.606, 481.027 
	L 202.262, 497.296 
	L 211.895, 512.476 
	L 223.356, 526.330 
	L 236.463, 538.637 
	L 251.008, 549.206 
	L 266.764, 557.867 
	L 283.480, 564.486 
	L 300.895, 568.957 
	L 318.733, 571.210 
" />
<path d="M 318.733, 571.210 
	L 336.711, 571.210 
	L 354.549, 568.957 
	L 371.964, 564.486 
" />
<path d="M 468.876, 413.512 
	L 468.875, 413.513 
	L 467.771, 395.963 
	L 464.477, 378.691 
	L 459.043, 361.968 
	L 451.556, 346.058 
	L 442.134, 331.211 
	L 430.926, 317.663 
	L 418.107, 305.625 
	L 403.882, 295.290 
	L 388.473, 286.819 
" />
<path d="M 388.473, 286.819 
	L 372.125, 280.346 
	L 355.093, 275.973 
	L 337.647, 273.769 
	L 320.064, 273.769 
" />
<path d="M 226.787, 317.662 
	L 226.786, 317.663 
	L 215.578, 331.211 
	L 206.155, 346.058 
	L 198.669, 361.968 
	L 193.235, 378.691 
	L 189.940, 395.963 
	L 188.836, 413.513 
	L 189.940, 431.062 
	L 193.235, 448.334 
	L 198.669, 465.057 
" />
<path d="M 198.669, 465.057 
	L 206.155, 480.967 
	L 215.578, 495.814 
	L 226.786, 509.363 
	L 239.604, 521.400 
	L 253.830, 531.735 
	L 269.238, 540.206 
	L 285.587, 546.679 
	L 302.619, 551.052 
	L 320.064, 553.256 
	L 337.647, 553.256 
" />
<path d="M 337.647, 553.256 
	L 355.093, 551.052 
	L 372.125, 546.679 
	L 388.473, 540.206 
	L 403.882, 531.735 
	L 418.107, 521.400 
" />
<path d="M 458.354, 428.039 
	L 458.354, 428.040 
	L 457.274, 410.877 
	L 454.052, 393.985 
	L 448.738, 377.629 
	L 441.415, 362.069 
	L 432.201, 347.549 
	L 421.239, 334.299 
	L 408.704, 322.527 
	L 394.790, 312.418 
	L 379.721, 304.133 
" />
<path d="M 379.721, 304.133 
	L 363.731, 297.803 
	L 347.075, 293.526 
	L 330.013, 291.371 
	L 312.817, 291.371 
	L 295.755, 293.526 
	L 279.099, 297.803 
	L 263.109, 304.133 
	L 248.039, 312.418 
	L 234.126, 322.527 
	L 221.591, 334.299 
" />
<path d="M 221.591, 334.299 
	L 210.628, 347.549 
	L 201.414, 362.069 
	L 194.092, 377.629 
" />
<path d="M 248.040, 543.661 
	L 248.039, 543.662 
	L 263.109, 551.947 
	L 279.099, 558.277 
	L 295.755, 562.554 
	L 312.817, 564.709 
	L 330.013, 564.709 
	L 347.075, 562.554 
	L 363.731, 558.277 
	L 379.721, 551.947 
	L 394.790, 543.662 
" />
<path d="M 394.790, 543.662 
	L 408.704, 533.553 
	L 421.239, 521.781 
	L 432.201, 508.531 
	L 441.415, 494.011 
	L 448.738, 478.451 
	L 454.052, 462.096 
	L 457.274, 445.203 
	L 458.354, 428.040 
	L 457.274, 410.877 
	L 454.052, 393.985 
" />
<path d="M 454.052, 393.985 
	L 448.738, 377.629 
	L 441.415, 362.069 
	L 432.201, 347.549 
	L 421.239, 334.299 
	L 408.704, 322.527 
	L 394.790, 312.418 
	L 379.721, 304.133 
	L 363.731, 297.803 
	L 347.075, 293.526 
	L 330.013, 291.371 
" />
<path d="M 330.013, 291.371 
	L 312.817, 291.371 
	L 295.755, 293.526 
	L 279.099, 297.803 
	L 263.109, 304.133 
	L 248.039, 312.418 
	L 234.126, 322.527 
	L 221.591, 334.299 
	L 210.628, 347.549 
	L 201.414, 362.069 
	L 194.092, 377.629 
" />
<path d="M 194.092, 377.629 
	L 188.778, 393.985 
	L 185.555, 410.877 
	L 184.476, 428.040 
	L 185.555, 445.203 
" />
<path d="M 463.421, 416.630 
	L 463.420, 416.631 
	L 462.364, 399.845 
	L 459.213, 383.324 
	L 454.015, 367.329 
	L 446.854, 352.111 
	L 437.842, 337.910 
	L 427.122, 324.952 
	L 414.862, 313.438 
	L 401.255, 303.552 
	L 386.517, 295.450 
" />
<path d="M 386.517, 295.450 
	L 370.879, 289.259 
	L 354.589, 285.076 
	L 337.903, 282.969 
	L 321.085, 282.969 
	L 304.398, 285.076 
	L 288.108, 289.259 
	L 272.470, 295.450 
" />
<path d="M 196.624, 399.845 
	L 196.623, 399.845 
	L 195.567, 416.631 
	L 196.623, 433.416 
	L 199.775, 449.937 
	L 204.972, 465.932 
	L 212.133, 481.150 
	L 221.145, 495.351 
	L 231.866, 508.309 
	L 244.125, 519.823 
	L 257.732, 529.709 
" />
<path d="M 257.732, 529.709 
	L 272.470, 537.811 
	L 288.108, 544.003 
	L 304.398, 548.185 
	L 321.085, 550.293 
	L 337.903, 550.293 
	L 354.589, 548.185 
	L 370.879, 544.003 
	L 386.517, 537.811 
	L 401.255, 529.709 
	L 414.862, 519.823 
" />
<path d="M 414.862, 519.823 
	L 427.122, 508.309 
	L 437.842, 495.351 
	L 446.854, 481.150 
	L 454.015, 465.932 
	L 459.213, 449.937 
" />
<path d="M 454.593, 416.559 
	L 454.592, 416.560 
	L 453.559, 400.144 
	L 450.477, 383.986 
	L 445.394, 368.342 
	L 438.391, 353.460 
	L 429.577, 339.571 
	L 419.092, 326.898 
	L 407.102, 315.638 
	L 393.795, 305.970 
	L 379.381, 298.045 
" />
<path d="M 379.381, 298.045 
	L 364.087, 291.991 
	L 348.155, 287.899 
	L 331.836, 285.838 
	L 315.388, 285.838 
	L 299.069, 287.899 
	L 283.137, 291.991 
	L 267.843, 298.045 
	L 253.429, 305.970 
	L 240.121, 315.638 
	L 228.132, 326.898 
" />
<path d="M 228.132, 326.898 
	L 217.646, 339.571 
	L 208.833, 353.460 
	L 201.830, 368.342 
	L 196.746, 383.986 
	L 193.664, 400.144 
	L 192.631, 416.560 
	L 193.664, 432.976 
	L 196.746, 449.133 
	L 201.830, 464.777 
	L 208.833, 479.660 
" />
<path d="M 208.833, 479.660 
	L 217.646, 493.548 
	L 228.132, 506.222 
	L 240.121, 517.482 
	L 253.429, 527.150 
	L 267.843, 535.074 
	L 283.137, 541.129 
	L 299.069, 545.220 
	L 315.388, 547.282 
	L 331.836, 547.282 
	L 348.155, 545.220 
" />
<path d="M 348.155, 545.220 
" />
<path d="M 443.561, 424.213 
	L 443.560, 424.213 
	L 442.551, 408.159 
	L 439.536, 392.356 
	L 434.565, 377.057 
	L 427.715, 362.502 
	L 419.096, 348.919 
	L 408.842, 336.524 
	L 397.116, 325.512 
" />
<path d="M 355.047, 302.384 
	L 355.047, 302.384 
	L 339.465, 298.383 
	L 323.505, 296.367 
	L 307.419, 296.367 
	L 291.459, 298.383 
	L 275.878, 302.384 
	L 260.921, 308.306 
	L 246.823, 316.056 
	L 233.809, 325.512 
	L 222.082, 336.524 
" />
<path d="M 222.082, 336.524 
	L 211.828, 348.919 
	L 203.209, 362.502 
	L 196.359, 377.057 
	L 191.388, 392.356 
	L 188.374, 408.159 
	L 187.364, 424.213 
	L 188.374, 440.268 
	L 191.388, 456.070 
	L 196.359, 471.370 
	L 203.209, 485.925 
" />
<path d="M 203.209, 485.925 
	L 211.828, 499.508 
	L 222.082, 511.903 
	L 233.809, 522.915 
	L 246.823, 532.371 
	L 260.921, 540.121 
	L 275.878, 546.042 
	L 291.459, 550.043 
	L 307.419, 552.059 
	L 323.505, 552.059 
	L 339.465, 550.043 
" />
<path d="M 339.465, 550.043 
	L 355.047, 546.042 
	L 370.004, 540.121 
	L 384.101, 532.371 
	L 397.116, 522.915 
	L 408.842, 511.903 
	L 419.096, 499.508 
	L 427.715, 485.925 
" />
<path d="M 439.893, 415.921 
	L 439.892, 415.922 
	L 438.905, 400.220 
	L 435.957, 384.766 
	L 431.094, 369.803 
" />
<path d="M 424.397, 355.567 
	L 424.396, 355.567 
	L 415.966, 342.284 
	L 405.937, 330.162 
	L 394.469, 319.392 
	L 381.740, 310.144 
" />
<path d="M 353.326, 296.773 
	L 353.325, 296.773 
	L 338.087, 292.861 
	L 322.478, 290.889 
	L 306.746, 290.889 
	L 291.137, 292.861 
	L 275.898, 296.773 
	L 261.270, 302.565 
	L 247.483, 310.144 
	L 234.755, 319.392 
" />
<path d="M 198.130, 369.802 
	L 198.129, 369.803 
	L 193.267, 384.766 
	L 190.319, 400.220 
" />
<path d="M 189.332, 415.921 
	L 189.331, 415.922 
	L 190.319, 431.624 
	L 193.267, 447.078 
	L 198.129, 462.041 
	L 204.827, 476.277 
	L 213.258, 489.560 
	L 223.286, 501.682 
	L 234.755, 512.452 
	L 247.483, 521.700 
	L 261.270, 529.279 
" />
<path d="M 261.270, 529.279 
	L 275.898, 535.071 
	L 291.137, 538.983 
	L 306.746, 540.955 
	L 322.478, 540.955 
	L 338.087, 538.983 
	L 353.325, 535.071 
	L 367.953, 529.279 
	L 381.740, 521.700 
	L 394.469, 512.452 
	L 405.937, 501.682 
" />
<path d="M 405.937, 501.682 
" />
<path d="M 442.947, 413.583 
	L 442.947, 413.583 
	L 441.981, 398.227 
	L 439.098, 383.113 
	L 434.343, 368.479 
	L 427.791, 354.557 
	L 419.547, 341.566 
	L 409.739, 329.710 
	L 398.523, 319.177 
	L 386.075, 310.133 
	L 372.591, 302.720 
" />
<path d="M 372.591, 302.720 
	L 358.285, 297.056 
	L 343.381, 293.229 
	L 328.116, 291.301 
	L 312.729, 291.301 
	L 297.464, 293.229 
	L 282.560, 297.056 
	L 268.255, 302.720 
	L 254.771, 310.133 
	L 242.323, 319.177 
	L 231.107, 329.710 
" />
<path d="M 231.107, 329.710 
	L 221.299, 341.566 
	L 213.054, 354.557 
	L 206.503, 368.479 
" />
<path d="M 254.772, 517.033 
	L 254.771, 517.034 
	L 268.255, 524.446 
	L 282.560, 530.111 
	L 297.464, 533.937 
	L 312.729, 535.866 
	L 328.116, 535.866 
	L 343.381, 533.937 
	L 358.285, 530.111 
	L 372.591, 524.446 
	L 386.075, 517.034 
" />
<path d="M 386.075, 517.034 
	L 398.523, 507.990 
	L 409.739, 497.457 
	L 419.547, 485.601 
	L 427.791, 472.610 
	L 434.343, 458.688 
	L 439.098, 444.054 
	L 441.981, 428.940 
" />
<path d="M 436.780, 419.252 
	L 436.779, 419.253 
	L 435.834, 404.234 
	L 433.014, 389.453 
	L 428.364, 375.141 
	L 421.957, 361.524 
	L 413.894, 348.819 
	L 404.301, 337.224 
" />
<path d="M 367.972, 310.827 
	L 367.971, 310.828 
	L 353.979, 305.289 
	L 339.404, 301.546 
	L 324.474, 299.660 
	L 309.426, 299.660 
	L 294.496, 301.546 
	L 279.921, 305.289 
	L 265.929, 310.828 
	L 252.743, 318.078 
	L 240.569, 326.923 
" />
<path d="M 240.569, 326.923 
	L 229.599, 337.224 
	L 220.007, 348.819 
	L 211.944, 361.524 
	L 205.537, 375.141 
" />
<path d="M 205.537, 463.364 
	L 205.537, 463.365 
	L 211.944, 476.981 
	L 220.007, 489.687 
	L 229.599, 501.281 
	L 240.569, 511.582 
	L 252.743, 520.428 
	L 265.929, 527.677 
	L 279.921, 533.217 
	L 294.496, 536.959 
	L 309.426, 538.845 
" />
<path d="M 309.426, 538.845 
	L 324.474, 538.845 
" />
<path d="M 393.333, 511.581 
	L 393.332, 511.582 
	L 404.301, 501.281 
	L 413.894, 489.687 
	L 421.957, 476.981 
	L 428.364, 463.365 
	L 433.014, 449.053 
	L 435.834, 434.271 
	L 436.779, 419.253 
	L 435.834, 404.234 
	L 433.014, 389.453 
" />
<path d="M 433.014, 389.453 
	L 428.364, 375.141 
	L 421.957, 361.524 
	L 413.894, 348.819 
	L 404.301, 337.224 
	L 393.332, 326.923 
	L 381.158, 318.078 
	L 367.971, 310.828 
	L 353.979, 305.289 
	L 339.404, 301.546 
	L 324.474, 299.660 
" />
<path d="M 324.474, 299.660 
	L 309.426, 299.660 
	L 294.496, 301.546 
	L 279.921, 305.289 
	L 265.929, 310.828 
	L 252.743, 318.078 
	L 240.569, 326.923 
	L 229.599, 337.224 
	L 220.007, 348.819 
	L 211.944, 361.524 
	L 205.537, 375.141 
" />
<path d="M 205.537, 375.141 
	L 200.886, 389.453 
	L 198.067, 404.234 
	L 197.121, 419.253 
	L 198.067, 434.271 
	L 200.886, 449.053 
	L 205.537, 463.365 
	L 211.944, 476.981 
	L 220.007, 489.687 
	L 229.599, 501.281 
	L 240.569, 511.582 
" />
<path d="M 240.569, 511.582 
	L 252.743, 520.428 
	L 265.929, 527.677 
	L 279.921, 533.217 
	L 294.496, 536.959 
	L 309.426, 538.845 
	L 324.474, 538.845 
	L 339.404, 536.959 
" />
<path d="M 439.388, 427.898 
	L 439.387, 427.898 
	L 438.463, 413.210 
	L 435.705, 398.754 
	L 431.157, 384.757 
	L 424.891, 371.441 
	L 417.005, 359.014 
	L 407.624, 347.674 
	L 396.896, 337.600 
	L 384.990, 328.949 
	L 372.093, 321.859 
" />
<path d="M 372.093, 321.859 
	L 358.409, 316.441 
	L 344.154, 312.782 
	L 329.553, 310.937 
	L 314.836, 310.937 
	L 300.234, 312.782 
	L 285.980, 316.441 
	L 272.296, 321.859 
	L 259.399, 328.949 
	L 247.493, 337.600 
	L 236.765, 347.674 
" />
<path d="M 236.765, 347.674 
	L 227.384, 359.014 
	L 219.498, 371.441 
	L 213.231, 384.757 
	L 208.684, 398.754 
	L 205.926, 413.210 
	L 205.002, 427.898 
	L 205.926, 442.587 
	L 208.684, 457.043 
	L 213.231, 471.040 
	L 219.498, 484.356 
" />
<path d="M 219.498, 484.356 
	L 227.384, 496.782 
	L 236.765, 508.122 
	L 247.493, 518.197 
	L 259.399, 526.847 
	L 272.296, 533.937 
	L 285.980, 539.355 
	L 300.234, 543.015 
	L 314.836, 544.859 
	L 329.553, 544.859 
	L 344.154, 543.015 
" />
<path d="M 344.154, 543.015 
	L 358.409, 539.355 
	L 372.093, 533.937 
	L 384.990, 526.847 
	L 396.896, 518.197 
	L 407.624, 508.122 
	L 417.005, 496.782 
" />
<path d="M 429.581, 423.575 
	L 429.580, 423.576 
	L 428.676, 409.210 
	L 425.979, 395.072 
	L 421.532, 381.383 
	L 415.403, 368.359 
	L 407.691, 356.207 
	L 398.517, 345.117 
	L 388.024, 335.264 
	L 376.379, 326.804 
	L 363.767, 319.869 
" />
<path d="M 363.767, 319.869 
	L 350.384, 314.571 
	L 336.443, 310.991 
	L 322.162, 309.188 
	L 307.770, 309.188 
	L 293.489, 310.991 
	L 279.549, 314.571 
	L 266.165, 319.869 
	L 253.553, 326.804 
	L 241.908, 335.264 
	L 231.416, 345.117 
" />
<path d="M 231.416, 345.117 
	L 222.241, 356.207 
	L 214.529, 368.359 
	L 208.400, 381.383 
" />
<path d="M 253.553, 520.347 
	L 253.553, 520.347 
	L 266.165, 527.282 
	L 279.549, 532.580 
	L 293.489, 536.160 
	L 307.770, 537.963 
	L 322.162, 537.963 
	L 336.443, 536.160 
	L 350.384, 532.580 
	L 363.767, 527.282 
	L 376.379, 520.347 
" />
<path d="M 376.379, 520.347 
	L 388.024, 511.887 
	L 398.517, 502.034 
	L 407.691, 490.944 
	L 415.403, 478.792 
	L 421.532, 465.768 
	L 425.979, 452.079 
	L 428.676, 437.941 
	L 429.580, 423.576 
	L 428.676, 409.210 
	L 425.979, 395.072 
" />
<path d="M 425.979, 395.072 
	L 421.532, 381.383 
	L 415.403, 368.359 
	L 407.691, 356.207 
	L 398.517, 345.117 
	L 388.024, 335.264 
	L 376.379, 326.804 
	L 363.767, 319.869 
	L 350.384, 314.571 
	L 336.443, 310.991 
	L 322.162, 309.188 
" />
<path d="M 322.162, 309.188 
	L 307.770, 309.188 
	L 293.489, 310.991 
" />
<path d="M 433.366, 425.488 
	L 433.366, 425.489 
	L 432.482, 411.440 
	L 429.844, 397.612 
	L 425.495, 384.225 
	L 419.501, 371.487 
	L 411.958, 359.603 
	L 402.985, 348.756 
	L 392.724, 339.120 
	L 381.336, 330.846 
	L 369.000, 324.065 
" />
<path d="M 369.000, 324.065 
	L 355.912, 318.882 
	L 342.277, 315.381 
	L 328.312, 313.617 
	L 314.235, 313.617 
	L 300.269, 315.381 
	L 286.634, 318.882 
	L 273.546, 324.065 
	L 261.211, 330.846 
" />
<path d="M 209.181, 425.488 
	L 209.181, 425.489 
	L 210.064, 439.538 
	L 212.702, 453.366 
	L 217.052, 466.753 
	L 223.046, 479.490 
	L 230.588, 491.375 
	L 239.561, 502.221 
	L 249.822, 511.858 
	L 261.211, 520.132 
	L 273.546, 526.913 
" />
<path d="M 273.546, 526.913 
	L 286.634, 532.096 
	L 300.269, 535.596 
	L 314.235, 537.360 
	L 328.312, 537.360 
	L 342.277, 535.596 
	L 355.912, 532.096 
	L 369.000, 526.913 
	L 381.336, 520.132 
	L 392.724, 511.858 
	L 402.985, 502.221 
" />
<path d="M 402.985, 502.221 
	L 411.958, 491.375 
" />
<path d="M 428.562, 416.276 
	L 428.561, 416.276 
	L 427.697, 402.537 
	L 425.117, 389.013 
	L 420.863, 375.920 
	L 415.001, 363.463 
	L 407.624, 351.839 
	L 398.849, 341.232 
	L 388.814, 331.807 
	L 377.675, 323.715 
	L 365.611, 317.083 
" />
<path d="M 365.611, 317.083 
" />
<path d="M 312.052, 306.865 
	L 312.051, 306.866 
	L 298.393, 308.592 
	L 285.058, 312.015 
	L 272.258, 317.083 
	L 260.194, 323.715 
	L 249.056, 331.807 
	L 239.020, 341.232 
	L 230.245, 351.839 
	L 222.868, 363.463 
	L 217.006, 375.920 
" />
<path d="M 217.006, 375.920 
	L 212.752, 389.013 
	L 210.172, 402.537 
	L 209.308, 416.276 
	L 210.172, 430.016 
	L 212.752, 443.539 
	L 217.006, 456.632 
	L 222.868, 469.089 
	L 230.245, 480.713 
	L 239.020, 491.321 
	L 249.056, 500.745 
" />
<path d="M 249.056, 500.745 
	L 260.194, 508.837 
	L 272.258, 515.470 
	L 285.058, 520.537 
	L 298.393, 523.961 
	L 312.051, 525.687 
	L 325.818, 525.687 
	L 339.477, 523.961 
	L 352.811, 520.537 
	L 365.611, 515.470 
	L 377.675, 508.837 
" />
<path d="M 377.675, 508.837 
	L 388.814, 500.745 
	L 398.849, 491.321 
	L 407.624, 480.713 
	L 415.001, 469.089 
	L 420.863, 456.632 
	L 425.117, 443.539 
	L 427.697, 430.016 
	L 428.561, 416.276 
	L 427.697, 402.537 
	L 425.117, 389.013 
" />
<path d="M 425.117, 389.013 
	L 420.863, 375.920 
	L 415.001, 363.463 
	L 407.624, 351.839 
	L 398.849, 341.232 
	L 388.814, 331.807 
	L 377.675, 323.715 
	L 365.611, 317.083 
	L 352.811, 312.015 
	L 339.477, 308.592 
	L 325.818, 306.866 
" />
<path d="M 325.818, 306.866 
" />
<path d="M 1110.935, 761.324 
	L 1111.643, 762.387 
	L 1111.643, 763.450 
	L 1110.935, 764.513 
	L 1109.517, 764.513 
	L 1108.809, 763.450 
	L 1108.809, 762.387 
	L 1109.517, 761.324 
" />
<path d="M 1107.391, 757.072 
	L 1108.100, 757.072 
" />
<path d="M 1108.809, 758.135 
	L 1108.809, 757.072 
	L 1111.643, 757.072 
" />
<path d="M 1111.643, 758.135 
	L 1111.643, 756.009 
" />
<path d="M 1108.809, 752.820 
	L 1111.643, 752.820 
" />
<path d="M 1110.226, 752.820 
	L 1108.809, 750.694 
	L 1108.809, 749.631 
" />
<path d="M 1110.935, 742.190 
	L 1111.643, 743.253 
	L 1111.643, 744.316 
	L 1110.935, 745.379 
	L 1109.517, 745.379 
	L 1108.809, 744.316 
	L 1108.809, 743.253 
	L 1109.517, 742.190 
" />
<path d="M 1111.643, 740.064 
	L 1107.391, 740.064 
" />
<path d="M 1111.643, 736.875 
	L 1110.226, 740.064 
	L 1108.809, 736.875 
" />
<path d="M 1107.391, 732.623 
	L 1107.391, 731.560 
	L 1111.643, 731.560 
" />
<path d="M 1111.643, 732.623 
	L 1111.643, 730.497 
" />
<path d="M 1110.226, 727.308 
	L 1110.226, 724.119 
	L 1109.517, 723.056 
	L 1108.809, 724.119 
	L 1108.809, 726.245 
	L 1109.517, 727.308 
	L 1110.935, 727.308 
	L 1111.643, 726.245 
	L 1111.643, 723.056 
" />
<path d="M 1108.809, 717.741 
	L 1108.809, 719.867 
	L 1109.517, 720.930 
	L 1110.226, 719.867 
	L 1110.226, 718.804 
	L 1110.935, 717.741 
	L 1111.643, 718.804 
	L 1111.643, 720.930 
" />
<path d="M 1111.643, 712.426 
	L 1111.643, 713.489 
	L 1110.935, 713.489 
	L 1110.935, 712.426 
	L 1111.643, 712.426 
" />
<path d="M 1113.061, 708.174 
	L 1108.809, 708.174 
	L 1108.809, 706.048 
	L 1109.517, 704.985 
	L 1110.935, 704.985 
	L 1111.643, 706.048 
	L 1111.643, 708.174 
" />
<path d="M 1113.061, 701.796 
	L 1110.226, 697.544 
	L 1108.809, 697.544 
" />
<path d="M 1108.809, 701.796 
	L 1110.226, 701.796 
	L 1111.643, 699.670 
" />
<path d="M 1108.100, 669.906 
	L 1107.391, 668.843 
	L 1107.391, 666.717 
	L 1108.100, 665.654 
	L 1108.809, 665.654 
	L 1110.935, 669.906 
	L 1111.643, 669.906 
	L 1111.643, 665.654 
" />
<path d="M 1110.935, 663.528 
	L 1111.643, 662.465 
	L 1111.643, 660.339 
	L 1110.935, 659.276 
	L 1108.100, 659.276 
	L 1107.391, 660.339 
	L 1107.391, 662.465 
	L 1108.100, 663.528 
	L 1110.935, 663.528 
" />
<path d="M 1111.643, 656.087 
	L 1111.643, 653.961 
" />
<path d="M 1111.643, 655.024 
	L 1107.391, 655.024 
	L 1108.100, 656.087 
" />
<path d="M 1111.643, 649.709 
	L 1111.643, 648.646 
	L 1110.226, 646.520 
	L 1108.100, 646.520 
	L 1107.391, 647.583 
	L 1107.391, 649.709 
	L 1108.100, 650.772 
	L 1108.809, 650.772 
	L 1109.517, 649.709 
	L 1109.517, 646.520 
" />
<path d="M 1109.517, 644.394 
	L 1109.517, 640.142 
" />
<path d="M 1110.935, 638.016 
	L 1111.643, 636.953 
	L 1111.643, 634.828 
	L 1110.935, 633.765 
	L 1108.100, 633.765 
	L 1107.391, 634.828 
	L 1107.391, 636.953 
	L 1108.100, 638.016 
	L 1110.935, 638.016 
" />
<path d="M 1109.517, 628.450 
	L 1108.809, 627.387 
	L 1108.100, 627.387 
	L 1107.391, 628.450 
	L 1107.391, 630.576 
	L 1108.100, 631.639 
	L 1108.809, 631.639 
	L 1109.517, 630.576 
	L 1109.517, 628.450 
	L 1110.226, 627.387 
	L 1110.935, 627.387 
" />
<path d="M 1110.935, 627.387 
	L 1111.643, 628.450 
	L 1111.643, 630.576 
	L 1110.935, 631.639 
	L 1110.226, 631.639 
	L 1109.517, 630.576 
" />
<path d="M 1109.517, 625.261 
	L 1109.517, 621.009 
" />
<path d="M 1110.935, 618.883 
	L 1111.643, 617.820 
	L 1111.643, 615.694 
	L 1110.935, 614.631 
	L 1108.100, 614.631 
	L 1107.391, 615.694 
	L 1107.391, 617.820 
	L 1108.100, 618.883 
	L 1110.935, 618.883 
" />
<path d="M 1111.643, 611.442 
	L 1111.643, 610.379 
	L 1110.226, 608.253 
	L 1108.100, 608.253 
	L 1107.391, 609.316 
	L 1107.391, 611.442 
	L 1108.100, 612.505 
	L 1108.809, 612.505 
	L 1109.517, 611.442 
	L 1109.517, 608.253 
" />
<path d="M 1108.100, 599.749 
	L 1107.391, 598.686 
	L 1107.391, 596.560 
	L 1108.100, 595.497 
	L 1108.809, 595.497 
	L 1110.935, 599.749 
	L 1111.643, 599.749 
	L 1111.643, 595.497 
" />
<path d="M 1110.935, 593.371 
	L 1111.643, 592.308 
	L 1111.643, 590.182 
	L 1110.935, 589.119 
	L 1108.100, 589.119 
	L 1107.391, 590.182 
	L 1107.391, 592.308 
	L 1108.100, 593.371 
	L 1110.935, 593.371 
" />
<path d="M 1109.517, 585.930 
	L 1108.809, 585.930 
	L 1108.809, 584.867 
	L 1109.517, 584.867 
	L 1109.517, 585.930 
" />
<path d="M 1110.935, 585.930 
	L 1110.935, 584.867 
	L 1111.643, 584.867 
	L 1111.643, 585.930 
	L 1110.935, 585.930 
" />
<path d="M 1108.100, 580.615 
	L 1107.391, 579.552 
	L 1107.391, 577.426 
	L 1108.100, 576.363 
	L 1108.809, 576.363 
	L 1110.935, 580.615 
	L 1111.643, 580.615 
	L 1111.643, 576.363 
" />
<path d="M 1107.391, 571.048 
	L 1109.517, 574.237 
	L 1110.226, 574.237 
	L 1110.226, 569.985 
" />
<path d="M 1109.517, 571.048 
	L 1111.643, 571.048 
" />
<path d="M 205.266, 758.488 
	L 205.265, 758.489 
	L 196.194, 758.489 
	L 196.194, 626.607 
	L 196.194, 527.182 
	L 130.927, 527.182 
	L 114.557, 527.182 
	L 98.683, 533.595 
	L 82.809, 540.009 
	L 69.450, 550.957 
	L 56.092, 561.906 
" />
<path d="M 56.092, 561.906 
	L 46.100, 576.753 
	L 36.108, 591.599 
	L 31.572, 608.961 
	L 31.572, 758.489 
	L 22.501, 758.489 
	L 22.501, 427.402 
	L 31.572, 427.402 
	L 31.572, 582.953 
	L 38.872, 568.355 
	L 49.501, 556.237 
	L 60.131, 544.119 
" />
<path d="M 60.131, 544.119 
	L 73.064, 535.686 
	L 85.997, 527.253 
	L 100.738, 522.682 
	L 115.478, 518.111 
	L 130.431, 518.111 
	L 167.210, 518.111 
	L 186.238, 545.465 
	L 205.265, 572.820 
	L 205.265, 626.678 
	L 205.265, 758.489 
" />
<path d="M 205.265, 758.489 
" />
<path d="M 261.038, 763.024 
	L 261.037, 763.024 
	L 245.163, 763.024 
	L 231.131, 757.284 
	L 217.100, 751.544 
	L 206.895, 741.729 
	L 196.690, 731.914 
	L 190.773, 718.627 
	L 184.856, 705.339 
	L 184.856, 690.174 
	L 184.856, 675.079 
" />
<path d="M 184.856, 675.079 
	L 191.907, 662.713 
	L 198.958, 650.347 
	L 211.856, 641.418 
	L 224.753, 632.489 
	L 242.683, 627.457 
	L 260.612, 622.426 
	L 281.942, 622.426 
	L 302.352, 622.426 
	L 323.222, 626.005 
	L 344.092, 629.583 
" />
<path d="M 344.092, 629.583 
	L 360.816, 636.316 
	L 360.816, 609.387 
	L 360.816, 591.103 
	L 355.395, 575.796 
	L 349.974, 560.489 
	L 339.769, 549.788 
	L 329.564, 539.087 
	L 315.285, 533.135 
	L 301.005, 527.182 
	L 283.714, 527.182 
" />
<path d="M 283.714, 527.182 
	L 266.494, 527.182 
	L 247.005, 534.871 
	L 227.517, 542.560 
	L 207.533, 556.946 
	L 202.076, 549.646 
	L 247.431, 518.111 
	L 283.714, 518.111 
	L 303.273, 518.111 
	L 319.360, 524.489 
	L 335.446, 530.867 
" />
<path d="M 335.446, 530.867 
	L 346.572, 542.737 
	L 357.698, 554.607 
	L 363.793, 571.473 
	L 369.887, 588.339 
	L 369.887, 609.387 
	L 369.887, 740.276 
	L 369.887, 749.418 
	L 377.187, 749.418 
	L 377.187, 758.489 
	L 372.155, 758.489 
" />
<path d="M 372.155, 758.489 
	L 370.809, 757.568 
	L 366.273, 755.725 
	L 363.545, 750.942 
	L 360.816, 746.158 
	L 360.816, 740.276 
	L 360.816, 718.379 
	L 344.517, 739.780 
	L 318.226, 751.402 
	L 291.935, 763.024 
	L 261.037, 763.024 
" />
<path d="M 261.037, 763.024 
	L 261.037, 753.954 
	L 291.438, 753.954 
	L 316.631, 742.544 
	L 341.824, 731.135 
	L 354.013, 712.001 
	L 360.816, 702.434 
	L 360.816, 693.363 
	L 360.816, 646.379 
	L 324.533, 631.497 
	L 281.942, 631.497 
" />
<path d="M 281.942, 631.497 
	L 261.958, 631.497 
	L 245.872, 635.607 
	L 229.785, 639.717 
	L 218.198, 647.548 
	L 206.612, 655.379 
	L 200.269, 666.150 
	L 193.927, 676.922 
	L 193.927, 690.174 
	L 193.927, 703.497 
	L 199.135, 715.190 
" />
<path d="M 199.135, 715.190 
	L 204.344, 726.883 
	L 213.415, 735.599 
	L 222.486, 744.316 
	L 234.746, 749.135 
	L 247.005, 753.954 
	L 261.037, 753.954 
" />
<path d="M 502.833, 763.024 
	L 502.832, 763.024 
	L 486.958, 763.024 
	L 472.891, 758.241 
	L 458.824, 753.457 
	L 446.600, 745.485 
	L 434.375, 737.513 
	L 424.383, 726.776 
	L 414.391, 716.040 
	L 406.667, 704.205 
	L 406.667, 853.733 
" />
<path d="M 406.667, 853.733 
	L 397.596, 853.733 
	L 397.596, 522.646 
	L 406.667, 522.646 
	L 406.667, 571.969 
	L 413.966, 560.135 
	L 424.383, 550.320 
	L 434.801, 540.505 
	L 446.813, 533.170 
	L 458.824, 525.835 
	L 471.970, 521.973 
" />
<path d="M 471.970, 521.973 
	L 485.116, 518.111 
	L 498.722, 518.111 
	L 523.667, 518.111 
	L 544.537, 528.812 
	L 565.407, 539.513 
	L 580.395, 556.875 
	L 595.383, 574.237 
	L 603.746, 596.099 
	L 612.108, 617.961 
	L 612.108, 640.780 
" />
<path d="M 612.108, 640.780 
	L 612.108, 664.946 
	L 604.171, 687.091 
	L 596.234, 709.237 
	L 581.954, 726.103 
	L 567.675, 742.969 
	L 547.513, 752.997 
	L 527.352, 763.024 
	L 502.832, 763.024 
	L 502.832, 753.954 
	L 525.935, 753.954 
" />
<path d="M 525.935, 753.954 
	L 544.324, 744.139 
	L 562.714, 734.324 
	L 575.860, 718.343 
	L 589.005, 702.363 
	L 596.021, 682.060 
	L 603.037, 661.757 
	L 603.037, 640.780 
	L 603.037, 618.457 
	L 594.887, 597.906 
	L 586.738, 577.355 
" />
<path d="M 586.738, 577.355 
	L 572.671, 561.623 
	L 558.604, 545.890 
	L 539.576, 536.536 
	L 520.549, 527.182 
	L 498.722, 527.182 
	L 485.116, 527.182 
	L 469.242, 533.099 
	L 453.368, 539.016 
	L 439.761, 549.079 
	L 426.155, 559.142 
" />
<path d="M 426.155, 559.142 
	L 416.872, 572.394 
	L 407.588, 585.646 
	L 406.667, 599.749 
	L 406.667, 685.142 
	L 413.045, 699.741 
	L 423.001, 712.249 
	L 432.958, 724.757 
	L 445.431, 733.898 
	L 457.903, 743.040 
	L 472.431, 748.497 
" />
<path d="M 472.431, 748.497 
	L 486.958, 753.954 
	L 502.832, 753.954 
" />
<path d="M 717.345, 763.024 
	L 717.344, 763.024 
	L 701.470, 763.024 
	L 687.403, 758.241 
	L 673.336, 753.457 
	L 661.112, 745.485 
	L 648.887, 737.513 
	L 638.895, 726.776 
	L 628.903, 716.040 
	L 621.179, 704.205 
	L 621.179, 853.733 
" />
<path d="M 621.179, 853.733 
	L 612.108, 853.733 
	L 612.108, 522.646 
	L 621.179, 522.646 
	L 621.179, 571.969 
	L 628.478, 560.135 
	L 638.895, 550.320 
	L 649.313, 540.505 
	L 661.324, 533.170 
	L 673.336, 525.835 
	L 686.482, 521.973 
" />
<path d="M 686.482, 521.973 
	L 699.628, 518.111 
	L 713.234, 518.111 
	L 738.179, 518.111 
	L 759.049, 528.812 
	L 779.919, 539.513 
	L 794.907, 556.875 
	L 809.895, 574.237 
	L 818.257, 596.099 
	L 826.620, 617.961 
	L 826.620, 640.780 
" />
<path d="M 826.620, 640.780 
	L 826.620, 664.946 
	L 818.683, 687.091 
	L 810.746, 709.237 
	L 796.466, 726.103 
	L 782.187, 742.969 
	L 762.025, 752.997 
	L 741.864, 763.024 
	L 717.344, 763.024 
	L 717.344, 753.954 
	L 740.446, 753.954 
" />
<path d="M 740.446, 753.954 
	L 758.836, 744.139 
	L 777.226, 734.324 
	L 790.372, 718.343 
	L 803.517, 702.363 
	L 810.533, 682.060 
	L 817.549, 661.757 
	L 817.549, 640.780 
	L 817.549, 618.457 
	L 809.399, 597.906 
	L 801.250, 577.355 
" />
<path d="M 801.250, 577.355 
	L 787.183, 561.623 
	L 773.116, 545.890 
	L 754.088, 536.536 
	L 735.061, 527.182 
	L 713.234, 527.182 
	L 699.628, 527.182 
	L 683.753, 533.099 
	L 667.879, 539.016 
	L 654.273, 549.079 
	L 640.667, 559.142 
" />
<path d="M 640.667, 559.142 
	L 631.383, 572.394 
	L 622.100, 585.646 
	L 621.179, 599.749 
	L 621.179, 685.142 
	L 627.557, 699.741 
	L 637.513, 712.249 
	L 647.470, 724.757 
	L 659.942, 733.898 
	L 672.415, 743.040 
	L 686.942, 748.497 
" />
<path d="M 686.942, 748.497 
	L 701.470, 753.954 
	L 717.344, 753.954 
" />
<path d="M 847.526, 853.732 
	L 847.525, 853.733 
	L 855.179, 853.733 
	L 861.096, 852.564 
	L 867.013, 851.394 
	L 868.785, 849.127 
	L 869.281, 848.205 
	L 871.301, 844.556 
	L 873.320, 840.906 
	L 877.643, 831.339 
	L 881.966, 821.772 
" />
<path d="M 881.966, 821.772 
	L 889.230, 804.906 
	L 896.494, 788.040 
	L 908.257, 761.182 
	L 798.982, 522.646 
	L 808.974, 522.646 
	L 912.793, 749.843 
	L 1011.226, 522.646 
	L 1021.218, 522.646 
	L 881.045, 845.867 
	L 875.588, 858.694 
" />
<path d="M 875.588, 858.694 
	L 866.092, 860.536 
	L 857.021, 862.804 
	L 847.525, 862.804 
	L 847.525, 853.733 
" />
<path d="M 1021.644, 767.559 
	L 1021.643, 767.560 
	L 1021.643, 758.489 
	L 1199.872, 758.489 
	L 1199.872, 767.560 
	L 1021.643, 767.560 
" />
<path d="M 1464.770, 674.583 
	L 1464.769, 674.583 
	L 1464.769, 691.450 
	L 1458.427, 706.509 
	L 1452.084, 721.568 
	L 1441.171, 733.190 
	L 1430.258, 744.812 
	L 1415.517, 751.650 
	L 1400.777, 758.489 
	L 1384.478, 758.489 
	L 1235.234, 758.489 
" />
<path d="M 1235.234, 758.489 
	L 1235.234, 436.473 
	L 1377.675, 436.473 
	L 1394.470, 436.473 
	L 1408.076, 443.701 
	L 1421.683, 450.930 
	L 1431.214, 462.410 
	L 1440.746, 473.890 
	L 1445.954, 488.560 
	L 1451.163, 503.229 
	L 1451.163, 518.111 
" />
<path d="M 1451.163, 518.111 
	L 1451.163, 542.489 
	L 1438.691, 562.757 
	L 1426.218, 583.024 
	L 1404.887, 592.520 
	L 1418.494, 596.631 
	L 1429.620, 604.851 
	L 1440.746, 613.072 
	L 1448.683, 623.985 
	L 1456.620, 634.898 
	L 1460.695, 647.902 
" />
<path d="M 1460.695, 647.902 
	L 1464.769, 660.906 
	L 1464.769, 674.583 
	L 1455.698, 674.583 
	L 1455.698, 659.985 
	L 1450.490, 646.520 
	L 1445.281, 633.056 
	L 1436.210, 622.568 
	L 1427.139, 612.079 
	L 1414.667, 605.914 
	L 1402.195, 599.749 
" />
<path d="M 1402.195, 599.749 
	L 1387.667, 599.749 
	L 1244.305, 599.749 
	L 1244.305, 749.418 
	L 1384.478, 749.418 
	L 1399.431, 749.418 
	L 1412.364, 743.040 
	L 1425.297, 736.662 
	L 1435.041, 726.174 
	L 1444.785, 715.686 
	L 1450.242, 702.221 
" />
<path d="M 1450.242, 702.221 
	L 1455.698, 688.757 
	L 1455.698, 674.583 
	L 1244.305, 445.544 
	L 1244.305, 590.678 
	L 1374.982, 590.678 
	L 1389.935, 590.678 
	L 1402.159, 584.371 
	L 1414.384, 578.064 
	L 1423.242, 567.682 
	L 1432.100, 557.300 
" />
<path d="M 1432.100, 557.300 
	L 1437.096, 544.473 
	L 1442.092, 531.646 
	L 1442.092, 518.111 
	L 1442.092, 503.654 
	L 1437.309, 490.615 
	L 1432.525, 477.576 
	L 1424.163, 467.406 
	L 1415.801, 457.237 
	L 1403.754, 451.390 
	L 1391.706, 445.544 
" />
<path d="M 1391.706, 445.544 
	L 1377.675, 445.544 
	L 1244.305, 445.544 
" />
<path d="M 1553.707, 763.024 
	L 1553.706, 763.024 
	L 1529.187, 763.024 
	L 1508.317, 752.536 
	L 1487.447, 742.048 
	L 1472.281, 724.721 
	L 1457.116, 707.394 
	L 1448.718, 685.497 
	L 1440.321, 663.599 
	L 1440.321, 640.780 
	L 1440.321, 616.190 
" />
<path d="M 1440.321, 616.190 
	L 1448.470, 594.044 
	L 1456.620, 571.898 
	L 1471.360, 555.032 
	L 1486.100, 538.166 
	L 1506.049, 528.139 
	L 1525.998, 518.111 
	L 1549.596, 518.111 
	L 1565.966, 518.111 
	L 1580.246, 522.894 
	L 1594.525, 527.678 
" />
<path d="M 1594.525, 527.678 
	L 1606.750, 535.686 
	L 1618.974, 543.694 
	L 1628.754, 554.430 
	L 1638.533, 565.166 
	L 1645.762, 577.001 
	L 1645.762, 427.402 
	L 1654.832, 427.402 
	L 1654.832, 740.347 
	L 1654.832, 749.418 
	L 1662.061, 749.418 
" />
<path d="M 1662.061, 749.418 
	L 1662.061, 758.489 
	L 1658.021, 758.489 
	L 1656.179, 757.568 
	L 1651.218, 755.300 
	L 1648.490, 750.517 
	L 1645.762, 745.733 
	L 1645.762, 740.276 
	L 1645.762, 709.308 
	L 1638.037, 721.142 
	L 1627.832, 730.922 
" />
<path d="M 1627.832, 730.922 
	L 1617.628, 740.702 
	L 1605.616, 748.001 
	L 1593.604, 755.300 
	L 1580.458, 759.162 
	L 1567.313, 763.024 
	L 1553.706, 763.024 
	L 1553.706, 753.954 
	L 1567.313, 753.954 
	L 1583.187, 748.036 
	L 1599.061, 742.119 
" />
<path d="M 1599.061, 742.119 
	L 1612.667, 732.304 
	L 1626.273, 722.489 
	L 1635.557, 709.272 
	L 1644.840, 696.056 
	L 1645.762, 681.457 
	L 1645.762, 596.205 
	L 1640.801, 582.032 
	L 1630.348, 569.453 
	L 1619.895, 556.875 
	L 1606.750, 547.520 
" />
<path d="M 1606.750, 547.520 
	L 1593.604, 538.166 
	L 1578.651, 532.674 
	L 1563.699, 527.182 
	L 1549.596, 527.182 
	L 1526.494, 527.182 
	L 1508.104, 536.997 
	L 1489.714, 546.812 
	L 1476.569, 562.792 
	L 1463.423, 578.772 
	L 1456.407, 599.288 
" />
<path d="M 1456.407, 599.288 
	L 1449.391, 619.804 
	L 1449.391, 640.780 
	L 1449.391, 663.174 
	L 1457.541, 683.477 
	L 1465.691, 703.780 
	L 1479.758, 719.513 
	L 1493.824, 735.245 
	L 1512.887, 744.599 
	L 1531.950, 753.954 
	L 1553.706, 753.954 
" />
<path d="M 1553.706, 753.954 
" />
<path d="M 1734.132, 763.024 
	L 1734.132, 763.024 
	L 1718.258, 763.024 
	L 1704.226, 757.284 
	L 1690.195, 751.544 
	L 1679.990, 741.729 
	L 1669.785, 731.914 
	L 1663.868, 718.627 
	L 1657.950, 705.339 
	L 1657.950, 690.174 
	L 1657.950, 675.079 
" />
<path d="M 1657.950, 675.079 
	L 1665.002, 662.713 
	L 1672.053, 650.347 
	L 1684.950, 641.418 
	L 1697.848, 632.489 
	L 1715.777, 627.457 
	L 1733.706, 622.426 
	L 1755.037, 622.426 
	L 1775.447, 622.426 
	L 1796.317, 626.005 
	L 1817.187, 629.583 
" />
<path d="M 1817.187, 629.583 
	L 1833.911, 636.316 
	L 1833.911, 609.387 
	L 1833.911, 591.103 
	L 1828.490, 575.796 
	L 1823.069, 560.489 
	L 1812.864, 549.788 
	L 1802.659, 539.087 
	L 1788.380, 533.135 
	L 1774.100, 527.182 
	L 1756.809, 527.182 
" />
<path d="M 1756.809, 527.182 
	L 1739.588, 527.182 
	L 1720.100, 534.871 
	L 1700.612, 542.560 
	L 1680.628, 556.946 
	L 1675.171, 549.646 
	L 1720.525, 518.111 
	L 1756.809, 518.111 
	L 1776.368, 518.111 
	L 1792.454, 524.489 
	L 1808.541, 530.867 
" />
<path d="M 1808.541, 530.867 
	L 1819.667, 542.737 
	L 1830.793, 554.607 
	L 1836.888, 571.473 
	L 1842.982, 588.339 
	L 1842.982, 609.387 
	L 1842.982, 740.276 
	L 1842.982, 749.418 
	L 1850.281, 749.418 
	L 1850.281, 758.489 
	L 1845.250, 758.489 
" />
<path d="M 1845.250, 758.489 
	L 1843.903, 757.568 
	L 1839.368, 755.725 
	L 1836.639, 750.942 
	L 1833.911, 746.158 
	L 1833.911, 740.276 
	L 1833.911, 718.379 
	L 1817.612, 739.780 
	L 1791.321, 751.402 
	L 1765.029, 763.024 
	L 1734.132, 763.024 
" />
<path d="M 1734.132, 763.024 
	L 1734.132, 753.954 
	L 1764.533, 753.954 
	L 1789.726, 742.544 
	L 1814.919, 731.135 
	L 1827.108, 712.001 
	L 1833.911, 702.434 
	L 1833.911, 693.363 
	L 1833.911, 646.379 
	L 1797.628, 631.497 
	L 1755.037, 631.497 
" />
<path d="M 1755.037, 631.497 
	L 1735.053, 631.497 
	L 1718.966, 635.607 
	L 1702.880, 639.717 
	L 1691.293, 647.548 
	L 1679.706, 655.379 
	L 1673.364, 666.150 
	L 1667.021, 676.922 
	L 1667.021, 690.174 
	L 1667.021, 703.497 
	L 1672.230, 715.190 
" />
<path d="M 1672.230, 715.190 
	L 1677.439, 726.883 
	L 1686.510, 735.599 
	L 1695.580, 744.316 
	L 1707.840, 749.135 
	L 1720.100, 753.954 
	L 1734.132, 753.954 
" />
<path d="M 1891.597, 853.732 
	L 1891.596, 853.733 
	L 1899.250, 853.733 
	L 1905.167, 852.564 
	L 1911.084, 851.394 
	L 1912.856, 849.127 
	L 1913.352, 848.205 
	L 1915.372, 844.556 
	L 1917.391, 840.906 
	L 1921.714, 831.339 
	L 1926.037, 821.772 
" />
<path d="M 1926.037, 821.772 
	L 1933.301, 804.906 
	L 1940.565, 788.040 
	L 1952.328, 761.182 
	L 1843.053, 522.646 
	L 1853.045, 522.646 
	L 1956.864, 749.843 
	L 2055.297, 522.646 
	L 2065.289, 522.646 
	L 1925.116, 845.867 
	L 1919.659, 858.694 
" />
<path d="M 1919.659, 858.694 
	L 1910.163, 860.536 
	L 1901.092, 862.804 
	L 1891.596, 862.804 
	L 1891.596, 853.733 
" />
<path d="M 2065.715, 767.559 
	L 2065.714, 767.560 
	L 2065.714, 758.489 
	L 2243.943, 758.489 
	L 2243.943, 767.560 
	L 2065.714, 767.560 
" />
<path d="M 2257.125, 594.787 
	L 2257.124, 594.788 
	L 2257.124, 565.733 
	L 2267.329, 537.174 
	L 2277.533, 508.615 
	L 2296.809, 485.690 
	L 2316.084, 462.764 
	L 2344.431, 448.485 
	L 2372.777, 434.205 
	L 2409.061, 434.205 
	L 2452.147, 434.205 
" />
<path d="M 2452.147, 434.205 
	L 2482.088, 454.615 
	L 2512.029, 475.024 
	L 2526.486, 506.985 
	L 2517.911, 509.749 
	L 2508.344, 491.394 
	L 2495.872, 478.639 
	L 2483.399, 465.883 
	L 2468.659, 458.123 
	L 2453.919, 450.363 
	L 2438.293, 446.820 
" />
<path d="M 2438.293, 446.820 
	L 2422.667, 443.276 
	L 2407.218, 443.276 
	L 2373.699, 443.276 
	L 2347.372, 456.670 
	L 2321.045, 470.064 
	L 2302.903, 491.820 
	L 2284.762, 513.576 
	L 2275.478, 541.001 
	L 2266.195, 568.426 
	L 2266.195, 596.135 
" />
<path d="M 2266.195, 596.135 
	L 2266.195, 626.961 
	L 2277.285, 655.095 
	L 2288.376, 683.229 
	L 2307.651, 704.772 
	L 2326.927, 726.316 
	L 2352.793, 739.001 
	L 2378.659, 751.686 
	L 2408.565, 751.686 
	L 2424.439, 751.686 
	L 2441.234, 747.646 
" />
<path d="M 2441.234, 747.646 
	L 2458.029, 743.607 
	L 2473.691, 735.528 
	L 2489.352, 727.450 
	L 2502.710, 714.658 
	L 2516.069, 701.867 
	L 2525.636, 684.363 
	L 2534.210, 686.631 
	L 2526.061, 704.631 
	L 2511.994, 718.556 
	L 2497.927, 732.481 
" />
<path d="M 2497.927, 732.481 
	L 2480.707, 741.906 
	L 2463.486, 751.331 
	L 2444.210, 756.044 
	L 2424.935, 760.757 
	L 2406.793, 760.757 
	L 2374.124, 760.757 
	L 2346.451, 746.229 
	L 2318.777, 731.702 
	L 2299.041, 708.351 
	L 2279.305, 685.001 
" />
<path d="M 2279.305, 685.001 
	L 2268.214, 655.308 
	L 2257.124, 625.615 
	L 2257.124, 594.788 
" />
<path d="M 2643.983, 763.024 
	L 2643.982, 763.024 
	L 2620.809, 763.024 
	L 2600.399, 753.209 
	L 2579.990, 743.394 
	L 2564.789, 726.741 
	L 2549.588, 710.087 
	L 2540.766, 687.765 
	L 2531.943, 665.442 
	L 2531.943, 640.780 
	L 2531.943, 615.694 
" />
<path d="M 2531.943, 615.694 
	L 2540.766, 593.583 
	L 2549.588, 571.473 
	L 2565.037, 554.607 
	L 2580.486, 537.741 
	L 2600.896, 527.926 
	L 2621.305, 518.111 
	L 2643.982, 518.111 
	L 2666.659, 518.111 
	L 2687.069, 527.926 
	L 2707.478, 537.741 
" />
<path d="M 2707.478, 537.741 
	L 2722.644, 554.607 
	L 2737.809, 571.473 
	L 2746.880, 593.583 
	L 2755.951, 615.694 
	L 2755.951, 640.780 
	L 2755.951, 665.442 
	L 2747.128, 687.765 
	L 2738.305, 710.087 
	L 2723.104, 726.741 
	L 2707.903, 743.394 
" />
<path d="M 2707.903, 743.394 
	L 2687.494, 753.209 
	L 2667.085, 763.024 
	L 2643.982, 763.024 
	L 2541.014, 641.702 
	L 2541.014, 664.520 
	L 2549.163, 685.072 
	L 2557.313, 705.623 
	L 2571.167, 720.894 
	L 2585.021, 736.166 
	L 2603.588, 745.060 
" />
<path d="M 2603.588, 745.060 
	L 2622.155, 753.954 
	L 2643.486, 753.954 
	L 2664.392, 753.954 
	L 2683.207, 744.812 
	L 2702.022, 735.670 
	L 2716.301, 720.186 
	L 2730.581, 704.702 
	L 2738.730, 684.150 
	L 2746.880, 663.599 
	L 2746.880, 640.355 
" />
<path d="M 2746.880, 640.355 
	L 2746.880, 617.536 
	L 2738.730, 596.985 
	L 2730.581, 576.434 
	L 2716.514, 560.950 
	L 2702.447, 545.465 
	L 2683.632, 536.324 
	L 2664.817, 527.182 
	L 2643.982, 527.182 
	L 2623.077, 527.182 
	L 2604.262, 536.324 
" />
<path d="M 2604.262, 536.324 
	L 2585.447, 545.465 
	L 2571.380, 561.198 
	L 2557.313, 576.930 
	L 2549.163, 597.694 
	L 2541.014, 618.457 
	L 2541.014, 641.702 
" />
<path d="M 2872.952, 531.717 
	L 2872.951, 531.717 
	L 2839.360, 531.717 
	L 2815.124, 553.048 
	L 2790.888, 574.379 
	L 2781.321, 611.300 
	L 2781.321, 758.489 
	L 2772.250, 758.489 
	L 2772.250, 522.646 
	L 2781.321, 522.646 
	L 2781.321, 585.717 
" />
<path d="M 2781.321, 585.717 
	L 2793.581, 559.639 
	L 2814.203, 542.808 
	L 2834.825, 525.977 
	L 2857.998, 523.142 
	L 2862.533, 522.646 
	L 2866.396, 522.646 
	L 2870.258, 522.646 
	L 2872.951, 522.646 
	L 2872.951, 531.717 
" />
<path d="M 3055.715, 758.488 
	L 3055.714, 758.489 
	L 3046.644, 758.489 
	L 3046.644, 626.607 
	L 3046.644, 574.662 
	L 3032.364, 550.922 
	L 3018.085, 527.182 
	L 2986.337, 527.182 
	L 2969.116, 527.182 
	L 2952.569, 533.347 
	L 2936.022, 539.513 
" />
<path d="M 2936.022, 539.513 
	L 2921.955, 550.497 
	L 2907.888, 561.481 
	L 2897.470, 576.540 
	L 2887.053, 591.599 
	L 2882.022, 608.961 
	L 2882.022, 758.489 
	L 2872.951, 758.489 
	L 2872.951, 522.646 
	L 2882.022, 522.646 
	L 2882.022, 582.953 
" />
<path d="M 2882.022, 582.953 
	L 2889.321, 568.780 
	L 2900.659, 556.698 
	L 2911.998, 544.615 
	L 2925.604, 536.146 
	L 2939.211, 527.678 
	L 2954.624, 522.894 
	L 2970.037, 518.111 
	L 2985.911, 518.111 
	L 3022.195, 518.111 
	L 3038.955, 544.331 
" />
<path d="M 3038.955, 544.331 
	L 3055.714, 570.552 
	L 3055.714, 626.678 
	L 3055.714, 758.489 
" />
<path d="M 3152.802, 763.024 
	L 3152.801, 763.024 
	L 3129.628, 763.024 
	L 3109.006, 753.209 
	L 3088.384, 743.394 
	L 3072.970, 726.316 
	L 3057.557, 709.237 
	L 3048.486, 686.631 
	L 3039.415, 664.024 
	L 3039.415, 638.513 
	L 3039.415, 613.426 
" />
<path d="M 3039.415, 613.426 
	L 3048.026, 591.528 
	L 3056.636, 569.631 
	L 3071.837, 553.225 
	L 3087.037, 536.820 
	L 3107.199, 527.465 
	L 3127.360, 518.111 
	L 3150.533, 518.111 
	L 3174.132, 518.111 
	L 3194.754, 527.678 
	L 3215.376, 537.245 
" />
<path d="M 3215.376, 537.245 
	L 3230.577, 553.615 
	L 3245.778, 569.985 
	L 3254.848, 592.308 
	L 3263.919, 614.631 
	L 3263.919, 640.072 
	L 3263.919, 645.103 
	L 3048.486, 645.103 
	L 3050.258, 667.993 
	L 3059.116, 687.871 
	L 3067.974, 707.749 
" />
<path d="M 3067.974, 707.749 
	L 3082.041, 722.383 
	L 3096.108, 737.016 
	L 3114.463, 745.485 
	L 3132.817, 753.954 
	L 3153.226, 753.954 
	L 3166.833, 753.954 
	L 3179.766, 750.304 
	L 3192.699, 746.654 
	L 3204.037, 740.028 
	L 3215.376, 733.402 
" />
<path d="M 3215.376, 733.402 
	L 3223.986, 724.296 
	L 3232.596, 715.190 
	L 3237.628, 704.205 
	L 3246.203, 706.473 
	L 3241.242, 718.804 
	L 3231.923, 729.044 
	L 3222.604, 739.284 
	L 3210.132, 746.831 
	L 3197.659, 754.379 
	L 3182.919, 758.702 
" />
<path d="M 3182.919, 758.702 
	L 3168.179, 763.024 
	L 3152.801, 763.024 
	L 3254.352, 636.032 
	L 3253.006, 612.363 
	L 3244.396, 592.308 
	L 3235.785, 572.253 
	L 3221.966, 557.902 
	L 3208.148, 543.552 
	L 3190.006, 535.367 
	L 3171.864, 527.182 
" />
<path d="M 3171.864, 527.182 
	L 3150.959, 527.182 
	L 3130.124, 527.182 
	L 3111.982, 535.367 
	L 3093.840, 543.552 
	L 3079.986, 558.150 
	L 3066.132, 572.749 
	L 3057.982, 592.768 
	L 3049.833, 612.788 
	L 3048.486, 636.032 
	L 3254.352, 636.032 
" />
<path d="M 3254.352, 636.032 
" />
<path d="M 3377.306, 763.024 
	L 3377.305, 763.024 
	L 3354.132, 763.024 
	L 3333.510, 753.209 
	L 3312.888, 743.394 
	L 3297.474, 726.316 
	L 3282.061, 709.237 
	L 3272.990, 686.631 
	L 3263.919, 664.024 
	L 3263.919, 638.513 
	L 3263.919, 613.426 
" />
<path d="M 3263.919, 613.426 
	L 3272.529, 591.528 
	L 3281.140, 569.631 
	L 3296.341, 553.225 
	L 3311.541, 536.820 
	L 3331.703, 527.465 
	L 3351.864, 518.111 
	L 3375.037, 518.111 
	L 3398.636, 518.111 
	L 3419.258, 527.678 
	L 3439.880, 537.245 
" />
<path d="M 3439.880, 537.245 
	L 3455.081, 553.615 
	L 3470.281, 569.985 
	L 3479.352, 592.308 
	L 3488.423, 614.631 
	L 3488.423, 640.072 
	L 3488.423, 645.103 
	L 3272.990, 645.103 
	L 3274.762, 667.993 
	L 3283.620, 687.871 
	L 3292.478, 707.749 
" />
<path d="M 3292.478, 707.749 
	L 3306.545, 722.383 
	L 3320.612, 737.016 
	L 3338.966, 745.485 
	L 3357.321, 753.954 
	L 3377.730, 753.954 
	L 3391.337, 753.954 
	L 3404.270, 750.304 
	L 3417.203, 746.654 
	L 3428.541, 740.028 
	L 3439.880, 733.402 
" />
<path d="M 3439.880, 733.402 
	L 3448.490, 724.296 
	L 3457.100, 715.190 
	L 3462.132, 704.205 
	L 3470.707, 706.473 
	L 3465.746, 718.804 
	L 3456.427, 729.044 
	L 3447.108, 739.284 
	L 3434.636, 746.831 
	L 3422.163, 754.379 
	L 3407.423, 758.702 
" />
<path d="M 3407.423, 758.702 
	L 3392.683, 763.024 
	L 3377.305, 763.024 
	L 3478.856, 636.032 
	L 3477.510, 612.363 
	L 3468.900, 592.308 
	L 3460.289, 572.253 
	L 3446.470, 557.902 
	L 3432.652, 543.552 
	L 3414.510, 535.367 
	L 3396.368, 527.182 
" />
<path d="M 3396.368, 527.182 
	L 3375.463, 527.182 
	L 3354.628, 527.182 
	L 3336.486, 535.367 
	L 3318.344, 543.552 
	L 3304.490, 558.150 
	L 3290.636, 572.749 
	L 3282.486, 592.768 
	L 3274.337, 612.788 
	L 3272.990, 636.032 
	L 3478.856, 636.032 
" />
<path d="M 3478.856, 636.032 
" />
<path d="M 3506.991, 427.402 
	L 3506.990, 427.402 
	L 3516.061, 427.402 
	L 3516.061, 723.127 
	L 3516.061, 736.308 
	L 3524.246, 743.997 
	L 3532.431, 751.686 
	L 3546.037, 751.686 
	L 3550.998, 751.686 
	L 3558.014, 750.587 
	L 3565.030, 749.489 
" />
<path d="M 3565.030, 749.489 
	L 3570.982, 747.717 
	L 3574.100, 755.017 
	L 3567.793, 757.426 
	L 3558.474, 759.091 
	L 3549.156, 760.757 
	L 3542.848, 760.757 
	L 3526.974, 760.757 
	L 3516.982, 750.552 
	L 3506.990, 740.347 
	L 3506.990, 723.552 
" />
<path d="M 3506.990, 723.552 
	L 3506.990, 427.402 
" />
</g>
</svg>
