<?xml version="1.0" encoding="UTF-8" standalone="no" ?>
<svg width="100%" height="100%" viewBox="0 0 1148.599 792.525" xmlns="http://www.w3.org/2000/svg"><g>
</g><g style="stroke:rgb(0,0,0); fill:none; stroke-width:1.000mm" >
</g><g style="stroke:rgb(0,255,0); fill:none; stroke-width:0.100mm" >
<path d="M 3.544, 792.524 
	L 3.543, 792.525 
	L 3.543, 10.162 
	L 1148.599, 10.162 
	L 1148.599, 792.525 
	L 3.543, 792.525 
" />
</g><g style="stroke:rgb(255,0,0); fill:none; stroke-width:0.100mm" >
<path d="M 0.001, 797.839 
	L 0.000, 797.839 
	L 0.000, 787.210 
	L 7.087, 787.210 
	L 7.087, 797.839 
	L 0.000, 797.839 
" />
<path d="M 3.544, 776.650 
	L 3.543, 776.651 
	L 3.543, 765.879 
	L 10.630, 765.879 
	L 10.630, 776.651 
	L 3.543, 776.651 
" />
<path d="M 14.174, 755.461 
	L 14.173, 755.462 
	L 14.173, 744.548 
	L 21.260, 744.548 
	L 21.260, 755.462 
	L 14.173, 755.462 
" />
<path d="M 31.890, 734.272 
	L 31.890, 734.273 
	L 31.890, 723.217 
	L 38.976, 723.217 
	L 38.976, 734.273 
	L 31.890, 734.273 
" />
<path d="M 56.694, 713.083 
	L 56.693, 713.084 
	L 56.693, 701.887 
	L 63.780, 701.887 
	L 63.780, 713.084 
	L 56.693, 713.084 
" />
<path d="M 88.583, 691.894 
	L 88.583, 691.895 
	L 88.583, 680.556 
	L 95.669, 680.556 
	L 95.669, 691.895 
	L 88.583, 691.895 
" />
<path d="M 127.560, 670.705 
	L 127.559, 670.706 
	L 127.559, 659.225 
	L 134.646, 659.225 
	L 134.646, 670.706 
	L 127.559, 670.706 
" />
<path d="M 173.623, 649.516 
	L 173.622, 649.517 
	L 173.622, 637.895 
	L 180.709, 637.895 
	L 180.709, 649.517 
	L 173.622, 649.517 
" />
<path d="M 226.772, 628.327 
	L 226.772, 628.328 
	L 226.772, 616.564 
	L 233.858, 616.564 
	L 233.858, 628.328 
	L 226.772, 628.328 
" />
<path d="M 287.009, 607.138 
	L 287.008, 607.139 
	L 287.008, 595.233 
	L 294.095, 595.233 
	L 294.095, 607.139 
	L 287.008, 607.139 
" />
<path d="M 22.151, 787.787 
	L 22.150, 787.788 
	L 20.650, 798.311 
	L 13.283, 797.261 
	L 14.783, 786.738 
	L 22.150, 787.788 
" />
<path d="M 25.704, 766.103 
	L 25.703, 766.103 
	L 24.183, 776.767 
	L 16.817, 775.717 
	L 18.337, 765.053 
	L 25.703, 766.103 
" />
<path d="M 36.344, 744.418 
	L 36.343, 744.419 
	L 34.803, 755.223 
	L 27.437, 754.173 
	L 28.976, 743.369 
	L 36.343, 744.419 
" />
<path d="M 54.070, 722.734 
	L 54.069, 722.735 
	L 52.510, 733.679 
	L 45.143, 732.629 
	L 46.703, 721.685 
	L 54.069, 722.735 
" />
<path d="M 78.883, 701.050 
	L 78.883, 701.051 
	L 77.303, 712.135 
	L 69.936, 711.085 
	L 71.516, 700.000 
	L 78.883, 701.051 
" />
<path d="M 110.783, 679.365 
	L 110.782, 679.366 
	L 109.183, 690.591 
	L 101.816, 689.541 
	L 103.416, 678.316 
	L 110.782, 679.366 
" />
<path d="M 149.770, 657.681 
	L 149.769, 657.682 
	L 148.149, 669.047 
	L 140.782, 667.997 
	L 142.403, 656.632 
	L 149.769, 657.682 
" />
<path d="M 195.843, 635.997 
	L 195.842, 635.998 
	L 194.202, 647.503 
	L 186.835, 646.453 
	L 188.476, 634.947 
	L 195.842, 635.998 
" />
<path d="M 249.002, 614.312 
	L 249.002, 614.313 
	L 247.341, 625.959 
	L 239.975, 624.909 
	L 241.635, 613.263 
	L 249.002, 614.313 
" />
<path d="M 309.249, 592.628 
	L 309.248, 592.629 
	L 307.568, 604.415 
	L 300.201, 603.365 
	L 301.881, 591.579 
	L 309.248, 592.629 
" />
<path d="M 26.663, 796.538 
	L 26.662, 796.538 
	L 29.633, 786.332 
	L 37.118, 788.511 
	L 34.147, 798.717 
	L 26.662, 796.538 
" />
<path d="M 30.187, 774.638 
	L 30.186, 774.639 
	L 33.196, 764.296 
	L 40.680, 766.473 
	L 37.670, 776.816 
	L 30.186, 774.639 
" />
<path d="M 40.797, 752.737 
	L 40.796, 752.738 
	L 43.846, 742.259 
	L 51.330, 744.437 
	L 48.280, 754.916 
	L 40.796, 752.738 
" />
<path d="M 58.494, 730.837 
	L 58.493, 730.838 
	L 61.582, 720.223 
	L 69.066, 722.400 
	L 65.977, 733.015 
	L 58.493, 730.838 
" />
<path d="M 83.277, 708.937 
	L 83.276, 708.937 
	L 86.404, 698.186 
	L 93.889, 700.364 
	L 90.761, 711.115 
	L 83.276, 708.937 
" />
<path d="M 115.147, 687.036 
	L 115.146, 687.037 
	L 118.314, 676.150 
	L 125.799, 678.327 
	L 122.631, 689.214 
	L 115.146, 687.037 
" />
<path d="M 154.103, 665.136 
	L 154.103, 665.136 
	L 157.310, 654.113 
	L 164.795, 656.291 
	L 161.588, 667.314 
	L 154.103, 665.136 
" />
<path d="M 200.147, 643.235 
	L 200.146, 643.236 
	L 203.393, 632.077 
	L 210.878, 634.254 
	L 207.631, 645.413 
	L 200.146, 643.236 
" />
<path d="M 253.276, 621.335 
	L 253.276, 621.335 
	L 256.562, 610.040 
	L 264.047, 612.218 
	L 260.761, 623.513 
	L 253.276, 621.335 
" />
<path d="M 313.493, 599.434 
	L 313.492, 599.435 
	L 316.818, 588.003 
	L 324.303, 590.181 
	L 320.977, 601.612 
	L 313.492, 599.435 
" />
<path d="M 51.967, 789.360 
	L 51.966, 789.361 
	L 47.585, 799.046 
	L 40.160, 795.688 
	L 44.541, 786.003 
	L 51.966, 789.361 
" />
<path d="M 55.539, 766.973 
	L 55.539, 766.974 
	L 51.099, 776.788 
	L 43.674, 773.430 
	L 48.113, 763.615 
	L 55.539, 766.974 
" />
<path d="M 66.198, 744.586 
	L 66.197, 744.586 
	L 61.700, 754.530 
	L 54.275, 751.171 
	L 58.772, 741.228 
	L 66.197, 744.586 
" />
<path d="M 83.945, 722.198 
	L 83.944, 722.199 
	L 79.387, 732.271 
	L 71.962, 728.913 
	L 76.518, 718.841 
	L 83.944, 722.199 
" />
<path d="M 108.777, 699.811 
	L 108.776, 699.812 
	L 104.161, 710.014 
	L 96.736, 706.655 
	L 101.351, 696.453 
	L 108.776, 699.812 
" />
<path d="M 140.696, 677.424 
	L 140.695, 677.424 
	L 136.022, 687.755 
	L 128.597, 684.396 
	L 133.269, 674.065 
	L 140.695, 677.424 
" />
<path d="M 179.701, 655.036 
	L 179.700, 655.037 
	L 174.969, 665.497 
	L 167.544, 662.138 
	L 172.275, 651.678 
	L 179.700, 655.037 
" />
<path d="M 225.793, 632.648 
	L 225.792, 632.649 
	L 221.003, 643.239 
	L 213.578, 639.880 
	L 218.367, 629.291 
	L 225.792, 632.649 
" />
<path d="M 278.972, 610.261 
	L 278.972, 610.262 
	L 274.123, 620.980 
	L 266.698, 617.622 
	L 271.546, 606.903 
	L 278.972, 610.262 
" />
<path d="M 339.238, 587.874 
	L 339.237, 587.874 
	L 334.330, 598.722 
	L 326.905, 595.364 
	L 331.812, 584.516 
	L 339.237, 587.874 
" />
<path d="M 53.797, 794.727 
	L 53.797, 794.728 
	L 59.500, 785.758 
	L 66.676, 790.321 
	L 60.973, 799.291 
	L 53.797, 794.728 
" />
<path d="M 57.302, 772.110 
	L 57.302, 772.111 
	L 63.082, 763.021 
	L 70.257, 767.584 
	L 64.478, 776.674 
	L 57.302, 772.111 
" />
<path d="M 67.894, 749.492 
	L 67.893, 749.493 
	L 73.749, 740.284 
	L 80.926, 744.847 
	L 75.070, 754.056 
	L 67.893, 749.493 
" />
<path d="M 85.573, 726.876 
	L 85.572, 726.876 
	L 91.504, 717.547 
	L 98.680, 722.110 
	L 92.748, 731.439 
	L 85.572, 726.876 
" />
<path d="M 110.338, 704.258 
	L 110.337, 704.259 
	L 116.345, 694.810 
	L 123.521, 699.373 
	L 117.513, 708.822 
	L 110.337, 704.259 
" />
<path d="M 142.189, 681.640 
	L 142.189, 681.641 
	L 148.273, 672.073 
	L 155.449, 676.636 
	L 149.365, 686.204 
	L 142.189, 681.641 
" />
<path d="M 181.128, 659.023 
	L 181.128, 659.024 
	L 187.287, 649.336 
	L 194.463, 653.899 
	L 188.303, 663.587 
	L 181.128, 659.024 
" />
<path d="M 227.153, 636.406 
	L 227.152, 636.406 
	L 233.388, 626.599 
	L 240.564, 631.162 
	L 234.328, 640.969 
	L 227.152, 636.406 
" />
<path d="M 280.264, 613.789 
	L 280.264, 613.789 
	L 286.576, 603.863 
	L 293.752, 608.425 
	L 287.440, 618.352 
	L 280.264, 613.789 
" />
<path d="M 340.463, 591.171 
	L 340.462, 591.172 
	L 346.850, 581.125 
	L 354.026, 585.688 
	L 347.638, 595.735 
	L 340.462, 591.172 
" />
<path d="M 81.231, 791.367 
	L 81.230, 791.367 
	L 74.318, 799.442 
	L 67.589, 793.682 
	L 74.501, 785.607 
	L 81.230, 791.367 
" />
<path d="M 84.820, 768.281 
	L 84.820, 768.282 
	L 77.815, 776.465 
	L 71.086, 770.704 
	L 78.090, 762.521 
	L 84.820, 768.282 
" />
<path d="M 95.496, 745.196 
	L 95.496, 745.197 
	L 88.399, 753.487 
	L 81.670, 747.726 
	L 88.766, 739.436 
	L 95.496, 745.197 
" />
<path d="M 113.259, 722.110 
	L 113.258, 722.111 
	L 106.070, 730.510 
	L 99.340, 724.749 
	L 106.529, 716.350 
	L 113.258, 722.111 
" />
<path d="M 138.108, 699.025 
	L 138.107, 699.026 
	L 130.827, 707.532 
	L 124.097, 701.771 
	L 131.378, 693.265 
	L 138.107, 699.026 
" />
<path d="M 170.044, 675.940 
	L 170.043, 675.941 
	L 162.670, 684.554 
	L 155.941, 678.794 
	L 163.314, 670.180 
	L 170.043, 675.941 
" />
<path d="M 209.066, 652.854 
	L 209.066, 652.855 
	L 201.601, 661.577 
	L 194.871, 655.816 
	L 202.336, 647.094 
	L 209.066, 652.855 
" />
<path d="M 255.176, 629.769 
	L 255.175, 629.770 
	L 247.618, 638.599 
	L 240.888, 632.838 
	L 248.445, 624.009 
	L 255.175, 629.770 
" />
<path d="M 308.371, 606.684 
	L 308.371, 606.684 
	L 300.721, 615.621 
	L 293.992, 609.861 
	L 301.641, 600.924 
	L 308.371, 606.684 
" />
<path d="M 368.654, 583.598 
	L 368.653, 583.599 
	L 360.911, 592.644 
	L 354.182, 586.883 
	L 361.923, 577.838 
	L 368.653, 583.599 
" />
<path d="M 81.551, 792.574 
	L 81.550, 792.575 
	L 89.532, 785.556 
	L 95.615, 792.474 
	L 87.633, 799.493 
	L 81.550, 792.575 
" />
<path d="M 85.040, 769.235 
	L 85.039, 769.236 
	L 93.129, 762.123 
	L 99.213, 769.042 
	L 91.123, 776.154 
	L 85.039, 769.236 
" />
<path d="M 95.617, 745.896 
	L 95.616, 745.897 
	L 103.813, 738.690 
	L 109.896, 745.609 
	L 101.699, 752.815 
	L 95.616, 745.897 
" />
<path d="M 113.280, 722.557 
	L 113.280, 722.558 
	L 121.582, 715.258 
	L 127.665, 722.176 
	L 119.363, 729.476 
	L 113.280, 722.558 
" />
<path d="M 138.030, 699.218 
	L 138.030, 699.219 
	L 146.439, 691.825 
	L 152.522, 698.744 
	L 144.113, 706.137 
	L 138.030, 699.219 
" />
<path d="M 169.867, 675.879 
	L 169.866, 675.880 
	L 178.381, 668.393 
	L 184.465, 675.311 
	L 175.949, 682.798 
	L 169.866, 675.880 
" />
<path d="M 208.790, 652.540 
	L 208.789, 652.540 
	L 217.411, 644.960 
	L 223.494, 651.879 
	L 214.873, 659.459 
	L 208.789, 652.540 
" />
<path d="M 254.800, 629.201 
	L 254.799, 629.201 
	L 263.527, 621.527 
	L 269.610, 628.446 
	L 260.882, 636.120 
	L 254.799, 629.201 
" />
<path d="M 307.896, 605.862 
	L 307.896, 605.862 
	L 316.730, 598.095 
	L 322.813, 605.013 
	L 313.979, 612.781 
	L 307.896, 605.862 
" />
<path d="M 368.079, 582.523 
	L 368.079, 582.523 
	L 377.019, 574.662 
	L 383.102, 581.581 
	L 374.162, 589.442 
	L 368.079, 582.523 
" />
<path d="M 109.823, 793.614 
	L 109.823, 793.615 
	L 100.929, 799.438 
	L 95.689, 791.434 
	L 104.583, 785.612 
	L 109.823, 793.615 
" />
<path d="M 113.426, 769.836 
	L 113.426, 769.837 
	L 104.413, 775.736 
	L 99.173, 767.732 
	L 108.185, 761.832 
	L 113.426, 769.837 
" />
<path d="M 124.115, 746.057 
	L 124.114, 746.058 
	L 114.984, 752.035 
	L 109.744, 744.031 
	L 118.874, 738.053 
	L 124.114, 746.058 
" />
<path d="M 141.891, 722.278 
	L 141.890, 722.278 
	L 132.641, 728.334 
	L 127.401, 720.330 
	L 136.650, 714.274 
	L 141.890, 722.278 
" />
<path d="M 166.754, 698.499 
	L 166.753, 698.499 
	L 157.385, 704.632 
	L 152.145, 696.628 
	L 161.512, 690.496 
	L 166.753, 698.499 
" />
<path d="M 198.702, 674.720 
	L 198.702, 674.721 
	L 189.215, 680.931 
	L 183.976, 672.927 
	L 193.462, 666.717 
	L 198.702, 674.721 
" />
<path d="M 237.738, 650.941 
	L 237.738, 650.942 
	L 228.132, 657.230 
	L 222.892, 649.225 
	L 232.498, 642.937 
	L 237.738, 650.942 
" />
<path d="M 283.861, 627.162 
	L 283.860, 627.163 
	L 274.137, 633.528 
	L 268.896, 625.524 
	L 278.619, 619.158 
	L 283.860, 627.163 
" />
<path d="M 337.069, 603.383 
	L 337.068, 603.383 
	L 327.227, 609.827 
	L 321.987, 601.823 
	L 331.829, 595.379 
	L 337.068, 603.383 
" />
<path d="M 397.365, 579.604 
	L 397.364, 579.604 
	L 387.403, 586.125 
	L 382.163, 578.122 
	L 392.124, 571.601 
	L 397.364, 579.604 
" />
<path d="M 110.013, 790.286 
	L 110.012, 790.287 
	L 119.638, 785.778 
	L 123.846, 794.762 
	L 114.220, 799.271 
	L 110.012, 790.287 
" />
<path d="M 113.491, 766.222 
	L 113.491, 766.223 
	L 123.245, 761.653 
	L 127.454, 770.638 
	L 117.699, 775.207 
	L 113.491, 766.223 
" />
<path d="M 124.058, 742.157 
	L 124.057, 742.158 
	L 133.940, 737.529 
	L 138.148, 746.513 
	L 128.265, 751.142 
	L 124.057, 742.158 
" />
<path d="M 141.710, 718.093 
	L 141.709, 718.094 
	L 151.720, 713.404 
	L 155.929, 722.388 
	L 145.918, 727.078 
	L 141.709, 718.094 
" />
<path d="M 166.449, 694.028 
	L 166.448, 694.029 
	L 176.588, 689.280 
	L 180.796, 698.264 
	L 170.656, 703.014 
	L 166.448, 694.029 
" />
<path d="M 198.274, 669.964 
	L 198.274, 669.964 
	L 208.541, 665.155 
	L 212.750, 674.140 
	L 202.482, 678.949 
	L 198.274, 669.964 
" />
<path d="M 237.187, 645.900 
	L 237.186, 645.900 
	L 247.582, 641.030 
	L 251.790, 650.015 
	L 241.394, 654.885 
	L 237.186, 645.900 
" />
<path d="M 283.185, 621.835 
	L 283.185, 621.836 
	L 293.709, 616.906 
	L 297.918, 625.891 
	L 287.393, 630.820 
	L 283.185, 621.836 
" />
<path d="M 336.271, 597.771 
	L 336.270, 597.772 
	L 346.923, 592.781 
	L 351.132, 601.766 
	L 340.479, 606.756 
	L 336.270, 597.772 
" />
<path d="M 396.443, 573.706 
	L 396.442, 573.707 
	L 407.224, 568.657 
	L 411.432, 577.641 
	L 400.650, 582.691 
	L 396.442, 573.707 
" />
<path d="M 137.687, 795.885 
	L 137.687, 795.886 
	L 127.520, 798.991 
	L 124.518, 789.163 
	L 134.685, 786.058 
	L 137.687, 795.886 
" />
<path d="M 141.298, 771.415 
	L 141.297, 771.416 
	L 130.996, 774.563 
	L 127.994, 764.736 
	L 138.295, 761.589 
	L 141.297, 771.416 
" />
<path d="M 151.996, 746.946 
	L 151.995, 746.946 
	L 141.558, 750.135 
	L 138.556, 740.308 
	L 148.993, 737.119 
	L 151.995, 746.946 
" />
<path d="M 169.780, 722.476 
	L 169.780, 722.477 
	L 159.206, 725.706 
	L 156.205, 715.879 
	L 166.778, 712.650 
	L 169.780, 722.477 
" />
<path d="M 194.651, 698.007 
	L 194.650, 698.007 
	L 183.942, 701.279 
	L 180.940, 691.451 
	L 191.648, 688.180 
	L 194.650, 698.007 
" />
<path d="M 226.609, 673.537 
	L 226.608, 673.538 
	L 215.764, 676.850 
	L 212.762, 667.023 
	L 223.606, 663.710 
	L 226.608, 673.538 
" />
<path d="M 265.653, 649.067 
	L 265.652, 649.068 
	L 254.672, 652.422 
	L 251.671, 642.595 
	L 262.651, 639.241 
	L 265.652, 649.068 
" />
<path d="M 311.783, 624.598 
	L 311.783, 624.599 
	L 300.668, 627.994 
	L 297.666, 618.167 
	L 308.781, 614.772 
	L 311.783, 624.599 
" />
<path d="M 365.001, 600.129 
	L 365.000, 600.129 
	L 353.750, 603.566 
	L 350.748, 593.739 
	L 361.998, 590.302 
	L 365.000, 600.129 
" />
<path d="M 425.305, 575.659 
	L 425.305, 575.660 
	L 413.918, 579.138 
	L 410.916, 569.310 
	L 422.303, 565.832 
	L 425.305, 575.660 
" />
<path d="M 139.205, 788.093 
	L 139.205, 788.093 
	L 149.707, 786.453 
	L 151.347, 796.956 
	L 140.844, 798.596 
	L 139.205, 788.093 
" />
<path d="M 142.678, 763.300 
	L 142.678, 763.301 
	L 153.320, 761.639 
	L 154.960, 772.142 
	L 144.318, 773.804 
	L 142.678, 763.301 
" />
<path d="M 153.238, 738.507 
	L 153.237, 738.508 
	L 164.020, 736.825 
	L 165.660, 747.328 
	L 154.877, 749.011 
	L 153.237, 738.508 
" />
<path d="M 170.885, 713.716 
	L 170.884, 713.716 
	L 181.807, 712.011 
	L 183.447, 722.514 
	L 172.524, 724.219 
	L 170.884, 713.716 
" />
<path d="M 195.618, 688.923 
	L 195.618, 688.924 
	L 206.680, 687.197 
	L 208.320, 697.700 
	L 197.257, 699.427 
	L 195.618, 688.924 
" />
<path d="M 227.438, 664.131 
	L 227.437, 664.132 
	L 238.640, 662.383 
	L 240.279, 672.885 
	L 229.077, 674.634 
	L 227.437, 664.132 
" />
<path d="M 266.344, 639.339 
	L 266.343, 639.340 
	L 277.686, 637.569 
	L 279.326, 648.072 
	L 267.983, 649.843 
	L 266.343, 639.340 
" />
<path d="M 312.337, 614.547 
	L 312.336, 614.548 
	L 323.819, 612.755 
	L 325.459, 623.257 
	L 313.976, 625.050 
	L 312.336, 614.548 
" />
<path d="M 365.416, 589.754 
	L 365.416, 589.755 
	L 377.039, 587.940 
	L 378.679, 598.443 
	L 367.055, 600.258 
	L 365.416, 589.755 
" />
<path d="M 425.583, 564.962 
	L 425.582, 564.963 
	L 437.346, 563.127 
	L 438.985, 573.630 
	L 427.222, 575.466 
	L 425.582, 564.963 
" />
<path d="M 164.837, 797.945 
	L 164.836, 797.946 
	L 154.208, 798.087 
	L 154.062, 787.103 
	L 164.690, 786.962 
	L 164.836, 797.946 
" />
<path d="M 168.451, 772.786 
	L 168.450, 772.787 
	L 157.680, 772.930 
	L 157.534, 761.947 
	L 168.304, 761.804 
	L 168.450, 772.787 
" />
<path d="M 179.152, 747.628 
	L 179.151, 747.629 
	L 168.239, 747.774 
	L 168.093, 736.790 
	L 179.005, 736.645 
	L 179.151, 747.629 
" />
<path d="M 196.939, 722.470 
	L 196.938, 722.471 
	L 185.885, 722.617 
	L 185.739, 711.634 
	L 196.792, 711.487 
	L 196.938, 722.471 
" />
<path d="M 221.813, 697.311 
	L 221.812, 697.312 
	L 210.617, 697.460 
	L 210.471, 686.478 
	L 221.666, 686.329 
	L 221.812, 697.312 
" />
<path d="M 253.774, 672.153 
	L 253.773, 672.153 
	L 242.436, 672.304 
	L 242.290, 661.321 
	L 253.627, 661.170 
	L 253.773, 672.153 
" />
<path d="M 292.821, 646.995 
	L 292.820, 646.995 
	L 281.341, 647.148 
	L 281.195, 636.164 
	L 292.674, 636.012 
	L 292.820, 646.995 
" />
<path d="M 338.955, 621.836 
	L 338.954, 621.836 
	L 327.334, 621.991 
	L 327.188, 611.008 
	L 338.808, 610.853 
	L 338.954, 621.836 
" />
<path d="M 392.175, 596.677 
	L 392.175, 596.678 
	L 380.412, 596.835 
	L 380.266, 585.851 
	L 392.029, 585.695 
	L 392.175, 596.678 
" />
<path d="M 452.482, 571.519 
	L 452.482, 571.520 
	L 440.578, 571.678 
	L 440.432, 560.694 
	L 452.336, 560.536 
	L 452.482, 571.520 
" />
<path d="M 169.077, 786.221 
	L 169.076, 786.222 
	L 179.619, 787.582 
	L 178.168, 798.827 
	L 167.625, 797.467 
	L 169.076, 786.222 
" />
<path d="M 172.550, 760.700 
	L 172.549, 760.701 
	L 183.232, 762.079 
	L 181.782, 773.325 
	L 171.099, 771.946 
	L 172.549, 760.701 
" />
<path d="M 183.110, 735.179 
	L 183.109, 735.180 
	L 193.932, 736.576 
	L 192.482, 747.822 
	L 181.658, 746.425 
	L 183.109, 735.180 
" />
<path d="M 200.756, 709.659 
	L 200.755, 709.659 
	L 211.720, 711.074 
	L 210.268, 722.319 
	L 199.304, 720.904 
	L 200.755, 709.659 
" />
<path d="M 225.489, 684.138 
	L 225.488, 684.138 
	L 236.593, 685.571 
	L 235.142, 696.816 
	L 224.037, 695.383 
	L 225.488, 684.138 
" />
<path d="M 257.308, 658.617 
	L 257.307, 658.617 
	L 268.553, 660.068 
	L 267.102, 671.314 
	L 255.857, 669.863 
	L 257.307, 658.617 
" />
<path d="M 296.214, 633.096 
	L 296.213, 633.096 
	L 307.599, 634.565 
	L 306.149, 645.811 
	L 294.763, 644.342 
	L 296.213, 633.096 
" />
<path d="M 342.207, 607.575 
	L 342.206, 607.575 
	L 353.733, 609.063 
	L 352.282, 620.308 
	L 340.756, 618.821 
	L 342.206, 607.575 
" />
<path d="M 395.286, 582.054 
	L 395.286, 582.055 
	L 406.952, 583.560 
	L 405.502, 594.805 
	L 393.835, 593.300 
	L 395.286, 582.055 
" />
<path d="M 455.453, 556.533 
	L 455.452, 556.534 
	L 467.260, 558.057 
	L 465.808, 569.303 
	L 454.000, 567.779 
	L 455.452, 556.534 
" />
<path d="M 191.360, 799.576 
	L 191.359, 799.576 
	L 181.114, 796.742 
	L 184.231, 785.473 
	L 194.477, 788.307 
	L 191.359, 799.576 
" />
<path d="M 194.971, 773.729 
	L 194.971, 773.729 
	L 184.589, 770.857 
	L 187.707, 759.587 
	L 198.089, 762.460 
	L 194.971, 773.729 
" />
<path d="M 205.669, 747.881 
	L 205.668, 747.882 
	L 195.151, 744.972 
	L 198.269, 733.703 
	L 208.787, 736.613 
	L 205.668, 747.882 
" />
<path d="M 223.454, 722.034 
	L 223.454, 722.035 
	L 212.799, 719.087 
	L 215.916, 707.817 
	L 226.571, 710.766 
	L 223.454, 722.035 
" />
<path d="M 248.326, 696.187 
	L 248.325, 696.188 
	L 237.533, 693.202 
	L 240.652, 681.932 
	L 251.443, 684.918 
	L 248.325, 696.188 
" />
<path d="M 280.284, 670.339 
	L 280.283, 670.340 
	L 269.355, 667.317 
	L 272.473, 656.048 
	L 283.401, 659.071 
	L 280.283, 670.340 
" />
<path d="M 319.329, 644.492 
	L 319.328, 644.493 
	L 308.263, 641.432 
	L 311.381, 630.162 
	L 322.446, 633.223 
	L 319.328, 644.493 
" />
<path d="M 365.460, 618.645 
	L 365.459, 618.646 
	L 354.258, 615.547 
	L 357.376, 604.277 
	L 368.577, 607.376 
	L 365.459, 618.646 
" />
<path d="M 418.678, 592.797 
	L 418.677, 592.798 
	L 407.339, 589.662 
	L 410.457, 578.393 
	L 421.795, 581.529 
	L 418.677, 592.798 
" />
<path d="M 478.982, 566.950 
	L 478.981, 566.951 
	L 467.507, 563.777 
	L 470.625, 552.507 
	L 482.100, 555.681 
	L 478.981, 566.951 
" />
<path d="M 199.507, 784.877 
	L 199.507, 784.878 
	L 209.249, 789.129 
	L 204.430, 800.171 
	L 194.688, 795.920 
	L 199.507, 784.878 
" />
<path d="M 202.985, 758.629 
	L 202.985, 758.629 
	L 212.857, 762.937 
	L 208.039, 773.979 
	L 198.167, 769.671 
	L 202.985, 758.629 
" />
<path d="M 213.551, 732.380 
	L 213.550, 732.380 
	L 223.552, 736.745 
	L 218.733, 747.787 
	L 208.731, 743.422 
	L 213.550, 732.380 
" />
<path d="M 231.202, 706.131 
	L 231.202, 706.132 
	L 241.334, 710.553 
	L 236.515, 721.595 
	L 226.383, 717.173 
	L 231.202, 706.132 
" />
<path d="M 255.940, 679.882 
	L 255.939, 679.883 
	L 266.202, 684.361 
	L 261.383, 695.402 
	L 251.121, 690.924 
	L 255.939, 679.883 
" />
<path d="M 287.765, 653.633 
	L 287.765, 653.634 
	L 298.157, 658.169 
	L 293.338, 669.210 
	L 282.946, 664.676 
	L 287.765, 653.634 
" />
<path d="M 326.677, 627.384 
	L 326.676, 627.385 
	L 337.198, 631.977 
	L 332.379, 643.018 
	L 321.857, 638.427 
	L 326.676, 627.385 
" />
<path d="M 372.674, 601.136 
	L 372.674, 601.136 
	L 383.326, 605.784 
	L 378.507, 616.826 
	L 367.856, 612.178 
	L 372.674, 601.136 
" />
<path d="M 425.760, 574.887 
	L 425.759, 574.887 
	L 436.540, 579.592 
	L 431.722, 590.634 
	L 420.940, 585.929 
	L 425.759, 574.887 
" />
<path d="M 485.931, 548.638 
	L 485.930, 548.639 
	L 496.842, 553.400 
	L 492.023, 564.442 
	L 481.111, 559.680 
	L 485.930, 548.639 
" />
<path d="M 217.407, 800.592 
	L 217.407, 800.593 
	L 208.362, 795.008 
	L 214.877, 784.456 
	L 223.921, 790.041 
	L 217.407, 800.593 
" />
<path d="M 221.011, 774.055 
	L 221.010, 774.055 
	L 211.845, 768.397 
	L 218.360, 757.844 
	L 227.525, 763.503 
	L 221.010, 774.055 
" />
<path d="M 231.701, 747.517 
	L 231.700, 747.517 
	L 222.414, 741.784 
	L 228.930, 731.232 
	L 238.216, 736.965 
	L 231.700, 747.517 
" />
<path d="M 249.478, 720.979 
	L 249.477, 720.980 
	L 240.070, 715.173 
	L 246.586, 704.620 
	L 255.993, 710.427 
	L 249.477, 720.980 
" />
<path d="M 274.342, 694.441 
	L 274.341, 694.442 
	L 264.813, 688.560 
	L 271.328, 678.008 
	L 280.856, 683.890 
	L 274.341, 694.442 
" />
<path d="M 306.292, 667.904 
	L 306.291, 667.905 
	L 296.643, 661.949 
	L 303.158, 651.396 
	L 312.806, 657.352 
	L 306.291, 667.905 
" />
<path d="M 345.329, 641.367 
	L 345.328, 641.368 
	L 335.559, 635.336 
	L 342.074, 624.784 
	L 351.843, 630.815 
	L 345.328, 641.368 
" />
<path d="M 391.452, 614.829 
	L 391.451, 614.830 
	L 381.562, 608.725 
	L 388.077, 598.172 
	L 397.966, 604.277 
	L 391.451, 614.830 
" />
<path d="M 444.662, 588.292 
	L 444.661, 588.293 
	L 434.651, 582.112 
	L 441.166, 571.560 
	L 451.176, 577.740 
	L 444.661, 588.293 
" />
<path d="M 504.958, 561.754 
	L 504.957, 561.755 
	L 494.827, 555.501 
	L 501.342, 544.948 
	L 511.472, 551.202 
	L 504.957, 561.755 
" />
<path d="M 230.315, 784.222 
	L 230.314, 784.223 
	L 238.481, 791.027 
	L 230.316, 800.827 
	L 222.149, 794.022 
	L 230.314, 784.223 
" />
<path d="M 233.804, 757.247 
	L 233.804, 757.248 
	L 242.079, 764.143 
	L 233.913, 773.943 
	L 225.638, 767.047 
	L 233.804, 757.248 
" />
<path d="M 244.380, 730.273 
	L 244.379, 730.274 
	L 252.763, 737.260 
	L 244.597, 747.059 
	L 236.213, 740.073 
	L 244.379, 730.274 
" />
<path d="M 262.042, 703.298 
	L 262.041, 703.299 
	L 270.534, 710.376 
	L 262.368, 720.175 
	L 253.875, 713.098 
	L 262.041, 703.299 
" />
<path d="M 286.790, 676.324 
	L 286.790, 676.325 
	L 295.392, 683.492 
	L 287.226, 693.291 
	L 278.624, 686.124 
	L 286.790, 676.325 
" />
<path d="M 318.626, 649.349 
	L 318.625, 649.350 
	L 327.336, 656.608 
	L 319.171, 666.408 
	L 310.460, 659.149 
	L 318.625, 649.350 
" />
<path d="M 357.547, 622.375 
	L 357.547, 622.376 
	L 366.367, 629.724 
	L 358.201, 639.524 
	L 349.381, 632.175 
	L 357.547, 622.376 
" />
<path d="M 403.557, 595.400 
	L 403.556, 595.401 
	L 412.484, 602.841 
	L 404.318, 612.640 
	L 395.390, 605.201 
	L 403.556, 595.401 
" />
<path d="M 456.652, 568.426 
	L 456.651, 568.427 
	L 465.688, 575.957 
	L 457.523, 585.756 
	L 448.485, 578.226 
	L 456.651, 568.427 
" />
<path d="M 516.833, 541.451 
	L 516.833, 541.451 
	L 525.979, 549.073 
	L 517.813, 558.873 
	L 508.667, 551.252 
	L 516.833, 541.451 
" />
<path d="M 243.186, 800.862 
	L 243.186, 800.863 
	L 236.061, 792.973 
	L 245.791, 784.186 
	L 252.916, 792.076 
	L 243.186, 800.863 
" />
<path d="M 246.777, 773.631 
	L 246.776, 773.632 
	L 239.557, 765.637 
	L 249.287, 756.850 
	L 256.506, 764.845 
	L 246.776, 773.632 
" />
<path d="M 257.455, 746.400 
	L 257.454, 746.401 
	L 250.139, 738.301 
	L 259.869, 729.515 
	L 267.184, 737.614 
	L 257.454, 746.401 
" />
<path d="M 275.219, 719.169 
	L 275.218, 719.170 
	L 267.808, 710.965 
	L 277.538, 702.179 
	L 284.948, 710.383 
	L 275.218, 719.170 
" />
<path d="M 300.069, 691.939 
	L 300.069, 691.939 
	L 292.564, 683.629 
	L 302.294, 674.842 
	L 309.798, 683.152 
	L 300.069, 691.939 
" />
<path d="M 332.007, 664.708 
	L 332.006, 664.708 
	L 324.406, 656.293 
	L 334.136, 647.506 
	L 341.736, 655.922 
	L 332.006, 664.708 
" />
<path d="M 371.030, 637.476 
	L 371.030, 637.477 
	L 363.335, 628.957 
	L 373.065, 620.170 
	L 380.760, 628.690 
	L 371.030, 637.477 
" />
<path d="M 417.141, 610.245 
	L 417.140, 610.246 
	L 409.351, 601.621 
	L 419.080, 592.834 
	L 426.870, 601.459 
	L 417.140, 610.246 
" />
<path d="M 470.338, 583.014 
	L 470.337, 583.015 
	L 462.453, 574.285 
	L 472.183, 565.498 
	L 480.067, 574.228 
	L 470.337, 583.015 
" />
<path d="M 530.622, 555.784 
	L 530.621, 555.785 
	L 522.641, 546.949 
	L 532.371, 538.162 
	L 540.351, 546.997 
	L 530.621, 555.785 
" />
<path d="M 261.276, 784.354 
	L 261.275, 784.355 
	L 267.214, 793.170 
	L 256.048, 800.694 
	L 250.109, 791.879 
	L 261.275, 784.355 
" />
<path d="M 264.779, 756.658 
	L 264.779, 756.658 
	L 270.797, 765.591 
	L 259.631, 773.115 
	L 253.612, 764.182 
	L 264.779, 756.658 
" />
<path d="M 275.370, 728.961 
	L 275.369, 728.962 
	L 281.467, 738.012 
	L 270.301, 745.536 
	L 264.202, 736.486 
	L 275.369, 728.962 
" />
<path d="M 293.046, 701.264 
	L 293.046, 701.265 
	L 299.223, 710.433 
	L 288.057, 717.957 
	L 281.879, 708.789 
	L 293.046, 701.265 
" />
<path d="M 317.810, 673.568 
	L 317.809, 673.569 
	L 324.066, 682.854 
	L 312.900, 690.378 
	L 306.643, 681.092 
	L 317.809, 673.569 
" />
<path d="M 349.660, 645.871 
	L 349.659, 645.872 
	L 355.995, 655.275 
	L 344.829, 662.799 
	L 338.493, 653.396 
	L 349.659, 645.872 
" />
<path d="M 388.597, 618.175 
	L 388.596, 618.175 
	L 395.011, 627.696 
	L 383.845, 635.220 
	L 377.430, 625.699 
	L 388.596, 618.175 
" />
<path d="M 434.620, 590.478 
	L 434.619, 590.479 
	L 441.114, 600.117 
	L 429.948, 607.641 
	L 423.453, 598.003 
	L 434.619, 590.479 
" />
<path d="M 487.730, 562.781 
	L 487.729, 562.782 
	L 494.303, 572.538 
	L 483.137, 580.062 
	L 476.564, 570.306 
	L 487.729, 562.782 
" />
<path d="M 547.927, 535.085 
	L 547.926, 535.086 
	L 554.579, 544.959 
	L 543.412, 552.483 
	L 536.760, 542.609 
	L 547.926, 535.086 
" />
<path d="M 268.936, 800.320 
	L 268.936, 800.321 
	L 264.299, 790.756 
	L 276.734, 784.728 
	L 281.371, 794.293 
	L 268.936, 800.321 
" />
<path d="M 272.510, 772.392 
	L 272.509, 772.393 
	L 267.811, 762.700 
	L 280.247, 756.672 
	L 284.945, 766.365 
	L 272.509, 772.393 
" />
<path d="M 283.171, 744.464 
	L 283.171, 744.465 
	L 278.410, 734.644 
	L 290.845, 728.616 
	L 295.605, 738.437 
	L 283.171, 744.465 
" />
<path d="M 300.918, 716.535 
	L 300.918, 716.536 
	L 296.096, 706.588 
	L 308.531, 700.560 
	L 313.353, 710.508 
	L 300.918, 716.536 
" />
<path d="M 325.753, 688.607 
	L 325.752, 688.608 
	L 320.868, 678.532 
	L 333.303, 672.504 
	L 338.187, 682.580 
	L 325.752, 688.608 
" />
<path d="M 357.674, 660.679 
	L 357.673, 660.679 
	L 352.727, 650.476 
	L 365.162, 644.448 
	L 370.108, 654.652 
	L 357.673, 660.679 
" />
<path d="M 396.680, 632.750 
	L 396.680, 632.751 
	L 391.672, 622.420 
	L 404.108, 616.392 
	L 409.115, 626.723 
	L 396.680, 632.751 
" />
<path d="M 442.775, 604.822 
	L 442.774, 604.823 
	L 437.705, 594.364 
	L 450.140, 588.336 
	L 455.209, 598.795 
	L 442.774, 604.823 
" />
<path d="M 495.955, 576.894 
	L 495.954, 576.894 
	L 490.823, 566.308 
	L 503.259, 560.281 
	L 508.390, 570.867 
	L 495.954, 576.894 
" />
<path d="M 556.222, 548.965 
	L 556.221, 548.965 
	L 551.029, 538.253 
	L 563.464, 532.225 
	L 568.656, 542.938 
	L 556.221, 548.965 
" />
<path d="M 292.138, 785.302 
	L 292.137, 785.303 
	L 295.377, 795.427 
	L 281.879, 799.747 
	L 278.639, 789.623 
	L 292.137, 785.303 
" />
<path d="M 295.660, 756.888 
	L 295.659, 756.889 
	L 298.942, 767.147 
	L 285.443, 771.467 
	L 282.160, 761.209 
	L 295.659, 756.889 
" />
<path d="M 306.268, 728.474 
	L 306.267, 728.474 
	L 309.594, 738.868 
	L 296.095, 743.189 
	L 292.769, 732.795 
	L 306.267, 728.474 
" />
<path d="M 323.963, 700.060 
	L 323.963, 700.061 
	L 327.332, 710.590 
	L 313.833, 714.910 
	L 310.463, 704.380 
	L 323.963, 700.061 
" />
<path d="M 348.744, 671.646 
	L 348.744, 671.647 
	L 352.157, 682.311 
	L 338.658, 686.631 
	L 335.245, 675.967 
	L 348.744, 671.647 
" />
<path d="M 380.613, 643.232 
	L 380.612, 643.233 
	L 384.068, 654.032 
	L 370.569, 658.352 
	L 367.113, 647.553 
	L 380.612, 643.233 
" />
<path d="M 419.567, 614.818 
	L 419.567, 614.818 
	L 423.066, 625.752 
	L 409.567, 630.073 
	L 406.068, 619.139 
	L 419.567, 614.818 
" />
<path d="M 465.609, 586.404 
	L 465.608, 586.405 
	L 469.151, 597.474 
	L 455.652, 601.794 
	L 452.109, 590.725 
	L 465.608, 586.405 
" />
<path d="M 518.737, 557.990 
	L 518.736, 557.991 
	L 522.322, 569.195 
	L 508.823, 573.515 
	L 505.237, 562.311 
	L 518.736, 557.991 
" />
<path d="M 578.952, 529.576 
	L 578.951, 529.577 
	L 582.580, 540.916 
	L 569.081, 545.236 
	L 565.452, 533.897 
	L 578.951, 529.577 
" />
<path d="M 294.910, 798.980 
	L 294.909, 798.980 
	L 293.130, 788.500 
	L 307.453, 786.069 
	L 309.232, 796.549 
	L 294.909, 798.980 
" />
<path d="M 298.465, 770.348 
	L 298.464, 770.349 
	L 296.662, 759.730 
	L 310.985, 757.298 
	L 312.787, 767.918 
	L 298.464, 770.349 
" />
<path d="M 309.107, 741.718 
	L 309.106, 741.718 
	L 307.280, 730.959 
	L 321.603, 728.527 
	L 323.429, 739.287 
	L 309.106, 741.718 
" />
<path d="M 326.835, 713.086 
	L 326.835, 713.087 
	L 324.984, 702.188 
	L 339.307, 699.757 
	L 341.157, 710.656 
	L 326.835, 713.087 
" />
<path d="M 351.651, 684.456 
	L 351.650, 684.456 
	L 349.776, 673.418 
	L 364.098, 670.986 
	L 365.973, 682.025 
	L 351.650, 684.456 
" />
<path d="M 383.552, 655.825 
	L 383.551, 655.826 
	L 381.654, 644.647 
	L 395.977, 642.215 
	L 397.874, 653.394 
	L 383.551, 655.826 
" />
<path d="M 422.540, 627.194 
	L 422.539, 627.194 
	L 420.618, 615.876 
	L 434.941, 613.445 
	L 436.862, 624.763 
	L 422.539, 627.194 
" />
<path d="M 468.615, 598.563 
	L 468.614, 598.564 
	L 466.669, 587.106 
	L 480.992, 584.674 
	L 482.937, 596.132 
	L 468.614, 598.564 
" />
<path d="M 521.777, 569.932 
	L 521.776, 569.933 
	L 519.807, 558.335 
	L 534.130, 555.904 
	L 536.098, 567.502 
	L 521.776, 569.933 
" />
<path d="M 582.024, 541.301 
	L 582.024, 541.302 
	L 580.032, 529.564 
	L 594.354, 527.133 
	L 596.346, 538.870 
	L 582.024, 541.302 
" />
<path d="M 322.652, 787.013 
	L 322.651, 787.014 
	L 322.934, 797.640 
	L 308.057, 798.035 
	L 307.775, 787.409 
	L 322.651, 787.014 
" />
<path d="M 326.194, 757.887 
	L 326.193, 757.888 
	L 326.479, 768.656 
	L 311.602, 769.051 
	L 311.316, 758.283 
	L 326.193, 757.888 
" />
<path d="M 336.822, 728.761 
	L 336.821, 728.762 
	L 337.111, 739.671 
	L 322.234, 740.067 
	L 321.944, 729.157 
	L 336.821, 728.762 
" />
<path d="M 354.536, 699.635 
	L 354.536, 699.636 
	L 354.829, 710.687 
	L 339.953, 711.082 
	L 339.659, 700.031 
	L 354.536, 699.636 
" />
<path d="M 379.338, 670.509 
	L 379.337, 670.510 
	L 379.634, 681.703 
	L 364.757, 682.098 
	L 364.460, 670.905 
	L 379.337, 670.510 
" />
<path d="M 411.226, 641.383 
	L 411.225, 641.384 
	L 411.526, 652.718 
	L 396.649, 653.114 
	L 396.348, 641.779 
	L 411.225, 641.384 
" />
<path d="M 450.200, 612.257 
	L 450.199, 612.258 
	L 450.504, 623.734 
	L 435.628, 624.130 
	L 435.323, 612.654 
	L 450.199, 612.258 
" />
<path d="M 496.261, 583.131 
	L 496.261, 583.132 
	L 496.569, 594.750 
	L 481.692, 595.145 
	L 481.384, 583.528 
	L 496.261, 583.132 
" />
<path d="M 549.409, 554.005 
	L 549.408, 554.006 
	L 549.721, 565.766 
	L 534.844, 566.161 
	L 534.531, 554.402 
	L 549.408, 554.006 
" />
<path d="M 609.643, 524.879 
	L 609.642, 524.880 
	L 609.958, 536.781 
	L 595.082, 537.177 
	L 594.766, 525.276 
	L 609.642, 524.880 
" />
<path d="M 321.350, 796.929 
	L 321.350, 796.930 
	L 322.570, 786.371 
	L 337.706, 788.119 
	L 336.485, 798.679 
	L 321.350, 796.930 
" />
<path d="M 324.886, 767.590 
	L 324.885, 767.591 
	L 326.121, 756.890 
	L 341.257, 758.639 
	L 340.021, 769.340 
	L 324.885, 767.591 
" />
<path d="M 335.507, 738.251 
	L 335.507, 738.252 
	L 336.759, 727.411 
	L 351.895, 729.160 
	L 350.642, 740.001 
	L 335.507, 738.252 
" />
<path d="M 353.216, 708.912 
	L 353.215, 708.913 
	L 354.484, 697.931 
	L 369.619, 699.679 
	L 368.351, 710.661 
	L 353.215, 708.913 
" />
<path d="M 378.011, 679.573 
	L 378.010, 679.574 
	L 379.295, 668.451 
	L 394.431, 670.200 
	L 393.146, 681.323 
	L 378.010, 679.574 
" />
<path d="M 409.893, 650.234 
	L 409.892, 650.235 
	L 411.193, 638.971 
	L 426.329, 640.720 
	L 425.028, 651.984 
	L 409.892, 650.235 
" />
<path d="M 448.861, 620.895 
	L 448.860, 620.896 
	L 450.178, 609.491 
	L 465.314, 611.240 
	L 463.995, 622.644 
	L 448.860, 620.896 
" />
<path d="M 494.916, 591.556 
	L 494.915, 591.557 
	L 496.249, 580.011 
	L 511.384, 581.760 
	L 510.051, 593.306 
	L 494.915, 591.557 
" />
<path d="M 548.057, 562.217 
	L 548.056, 562.217 
	L 549.407, 550.531 
	L 564.542, 552.280 
	L 563.192, 563.966 
	L 548.056, 562.217 
" />
<path d="M 608.285, 532.878 
	L 608.285, 532.879 
	L 609.651, 521.052 
	L 624.786, 522.800 
	L 623.420, 534.627 
	L 608.285, 532.879 
" />
<path d="M 352.590, 789.362 
	L 352.590, 789.362 
	L 349.892, 799.644 
	L 334.812, 795.687 
	L 337.510, 785.405 
	L 352.590, 789.362 
" />
<path d="M 356.152, 759.529 
	L 356.151, 759.530 
	L 353.417, 769.949 
	L 338.337, 765.992 
	L 341.071, 755.573 
	L 356.151, 759.530 
" />
<path d="M 366.800, 729.697 
	L 366.799, 729.697 
	L 364.029, 740.254 
	L 348.949, 736.296 
	L 351.719, 725.740 
	L 366.799, 729.697 
" />
<path d="M 384.535, 699.865 
	L 384.534, 699.866 
	L 381.728, 710.559 
	L 366.647, 706.601 
	L 369.454, 695.908 
	L 384.534, 699.866 
" />
<path d="M 409.355, 670.032 
	L 409.355, 670.033 
	L 406.513, 680.863 
	L 391.433, 676.906 
	L 394.274, 666.076 
	L 409.355, 670.033 
" />
<path d="M 441.263, 640.200 
	L 441.262, 640.201 
	L 438.384, 651.168 
	L 423.305, 647.211 
	L 426.183, 636.243 
	L 441.262, 640.201 
" />
<path d="M 480.258, 610.367 
	L 480.257, 610.368 
	L 477.343, 621.473 
	L 462.263, 617.516 
	L 465.177, 606.411 
	L 480.257, 610.368 
" />
<path d="M 526.338, 580.536 
	L 526.338, 580.536 
	L 523.388, 591.778 
	L 508.308, 587.820 
	L 511.258, 576.578 
	L 526.338, 580.536 
" />
<path d="M 579.506, 550.703 
	L 579.505, 550.704 
	L 576.520, 562.082 
	L 561.440, 558.125 
	L 564.426, 546.747 
	L 579.505, 550.704 
" />
<path d="M 639.760, 520.870 
	L 639.760, 520.871 
	L 636.738, 532.387 
	L 621.658, 528.430 
	L 624.679, 516.914 
	L 639.760, 520.871 
" />
<path d="M 348.465, 794.332 
	L 348.464, 794.332 
	L 352.587, 784.534 
	L 367.284, 790.717 
	L 363.161, 800.515 
	L 348.464, 794.332 
" />
<path d="M 351.981, 764.279 
	L 351.980, 764.279 
	L 356.157, 754.350 
	L 370.855, 760.533 
	L 366.678, 770.462 
	L 351.980, 764.279 
" />
<path d="M 362.583, 734.226 
	L 362.582, 734.226 
	L 366.815, 724.167 
	L 381.512, 730.350 
	L 377.280, 740.410 
	L 362.582, 734.226 
" />
<path d="M 380.273, 704.173 
	L 380.272, 704.174 
	L 384.559, 693.984 
	L 399.256, 700.167 
	L 394.969, 710.357 
	L 380.272, 704.174 
" />
<path d="M 405.048, 674.120 
	L 405.048, 674.121 
	L 409.390, 663.800 
	L 424.086, 669.984 
	L 419.744, 680.304 
	L 405.048, 674.121 
" />
<path d="M 436.910, 644.067 
	L 436.910, 644.068 
	L 441.307, 633.616 
	L 456.004, 639.800 
	L 451.607, 650.252 
	L 436.910, 644.068 
" />
<path d="M 475.859, 614.015 
	L 475.858, 614.016 
	L 480.310, 603.433 
	L 495.008, 609.616 
	L 490.556, 620.199 
	L 475.858, 614.016 
" />
<path d="M 521.894, 583.962 
	L 521.894, 583.963 
	L 526.401, 573.250 
	L 541.099, 579.433 
	L 536.591, 590.146 
	L 521.894, 583.963 
" />
<path d="M 575.017, 553.909 
	L 575.016, 553.910 
	L 579.578, 543.066 
	L 594.275, 549.250 
	L 589.713, 560.093 
	L 575.016, 553.910 
" />
<path d="M 635.226, 523.856 
	L 635.225, 523.857 
	L 639.842, 512.883 
	L 654.539, 519.066 
	L 649.922, 530.040 
	L 635.225, 523.857 
" />
<path d="M 381.771, 792.153 
	L 381.770, 792.154 
	L 376.306, 801.272 
	L 362.324, 792.895 
	L 367.788, 783.777 
	L 381.770, 792.154 
" />
<path d="M 385.350, 761.620 
	L 385.350, 761.621 
	L 379.813, 770.861 
	L 365.832, 762.484 
	L 371.368, 753.243 
	L 385.350, 761.621 
" />
<path d="M 396.016, 731.087 
	L 396.016, 731.088 
	L 390.407, 740.449 
	L 376.425, 732.071 
	L 382.034, 722.710 
	L 396.016, 731.088 
" />
<path d="M 413.770, 700.554 
	L 413.769, 700.554 
	L 408.087, 710.038 
	L 394.105, 701.660 
	L 399.787, 692.177 
	L 413.769, 700.554 
" />
<path d="M 438.609, 670.020 
	L 438.608, 670.021 
	L 432.853, 679.626 
	L 418.872, 671.248 
	L 424.627, 661.644 
	L 438.608, 670.021 
" />
<path d="M 470.536, 639.487 
	L 470.535, 639.488 
	L 464.707, 649.214 
	L 450.725, 640.837 
	L 456.553, 631.111 
	L 470.535, 639.488 
" />
<path d="M 509.548, 608.954 
	L 509.547, 608.955 
	L 503.647, 618.803 
	L 489.665, 610.425 
	L 495.566, 600.577 
	L 509.547, 608.955 
" />
<path d="M 555.647, 578.421 
	L 555.647, 578.422 
	L 549.673, 588.391 
	L 535.692, 580.013 
	L 541.665, 570.044 
	L 555.647, 578.422 
" />
<path d="M 608.834, 547.887 
	L 608.833, 547.888 
	L 602.787, 557.980 
	L 588.805, 549.602 
	L 594.851, 539.510 
	L 608.833, 547.888 
" />
<path d="M 669.106, 517.354 
	L 669.105, 517.355 
	L 662.986, 527.567 
	L 649.005, 519.190 
	L 655.124, 508.978 
	L 669.105, 517.355 
" />
<path d="M 376.406, 791.407 
	L 376.406, 791.408 
	L 383.101, 783.152 
	L 396.035, 793.641 
	L 389.340, 801.897 
	L 376.406, 791.408 
" />
<path d="M 379.905, 760.635 
	L 379.904, 760.636 
	L 386.689, 752.270 
	L 399.623, 762.759 
	L 392.839, 771.126 
	L 379.904, 760.636 
" />
<path d="M 390.490, 729.863 
	L 390.490, 729.864 
	L 397.364, 721.388 
	L 410.298, 731.878 
	L 403.424, 740.354 
	L 390.490, 729.864 
" />
<path d="M 408.162, 699.092 
	L 408.161, 699.092 
	L 415.125, 690.506 
	L 428.059, 700.996 
	L 421.096, 709.582 
	L 408.161, 699.092 
" />
<path d="M 432.921, 668.320 
	L 432.920, 668.321 
	L 439.973, 659.624 
	L 452.907, 670.114 
	L 445.854, 678.811 
	L 432.920, 668.321 
" />
<path d="M 464.766, 637.548 
	L 464.765, 637.549 
	L 471.907, 628.742 
	L 484.841, 639.233 
	L 477.700, 648.039 
	L 464.765, 637.549 
" />
<path d="M 503.697, 606.777 
	L 503.697, 606.777 
	L 510.928, 597.861 
	L 523.862, 608.350 
	L 516.631, 617.267 
	L 503.697, 606.777 
" />
<path d="M 549.716, 576.005 
	L 549.715, 576.006 
	L 557.036, 566.979 
	L 569.970, 577.468 
	L 562.650, 586.495 
	L 549.715, 576.006 
" />
<path d="M 602.821, 545.233 
	L 602.820, 545.234 
	L 610.230, 536.097 
	L 623.164, 546.587 
	L 615.755, 555.724 
	L 602.820, 545.234 
" />
<path d="M 663.012, 514.461 
	L 663.012, 514.462 
	L 670.511, 505.215 
	L 683.445, 515.705 
	L 675.946, 524.952 
	L 663.012, 514.462 
" />
<path d="M 410.074, 795.144 
	L 410.073, 795.145 
	L 402.280, 802.374 
	L 390.714, 789.904 
	L 398.508, 782.676 
	L 410.073, 795.145 
" />
<path d="M 413.670, 763.915 
	L 413.669, 763.916 
	L 405.771, 771.241 
	L 394.205, 758.771 
	L 402.103, 751.446 
	L 413.669, 763.916 
" />
<path d="M 424.351, 732.686 
	L 424.351, 732.687 
	L 416.349, 740.108 
	L 404.783, 727.638 
	L 412.785, 720.217 
	L 424.351, 732.687 
" />
<path d="M 442.120, 701.457 
	L 442.119, 701.457 
	L 434.013, 708.975 
	L 422.448, 696.505 
	L 430.554, 688.988 
	L 442.119, 701.457 
" />
<path d="M 466.975, 670.227 
	L 466.974, 670.228 
	L 458.765, 677.842 
	L 447.199, 665.372 
	L 455.409, 657.758 
	L 466.974, 670.228 
" />
<path d="M 498.917, 638.998 
	L 498.916, 638.999 
	L 490.603, 646.709 
	L 479.037, 634.239 
	L 487.350, 626.529 
	L 498.916, 638.999 
" />
<path d="M 537.945, 607.769 
	L 537.944, 607.769 
	L 529.527, 615.576 
	L 517.961, 603.106 
	L 526.379, 595.300 
	L 537.944, 607.769 
" />
<path d="M 584.060, 576.539 
	L 584.059, 576.540 
	L 575.538, 584.443 
	L 563.973, 571.973 
	L 572.494, 564.070 
	L 584.059, 576.540 
" />
<path d="M 637.262, 545.310 
	L 637.261, 545.311 
	L 628.636, 553.310 
	L 617.070, 540.841 
	L 625.695, 532.841 
	L 637.261, 545.311 
" />
<path d="M 697.550, 514.081 
	L 697.549, 514.082 
	L 688.820, 522.177 
	L 677.254, 509.708 
	L 685.984, 501.612 
	L 697.549, 514.082 
" />
<path d="M 405.254, 788.418 
	L 405.253, 788.419 
	L 413.989, 782.362 
	L 423.881, 796.631 
	L 415.145, 802.687 
	L 405.253, 788.419 
" />
<path d="M 408.739, 756.923 
	L 408.738, 756.923 
	L 417.590, 750.787 
	L 427.482, 765.055 
	L 418.630, 771.192 
	L 408.738, 756.923 
" />
<path d="M 419.311, 725.428 
	L 419.310, 725.428 
	L 428.279, 719.211 
	L 438.170, 733.479 
	L 429.202, 739.697 
	L 419.310, 725.428 
" />
<path d="M 436.968, 693.933 
	L 436.968, 693.933 
	L 446.054, 687.635 
	L 455.946, 701.903 
	L 446.860, 708.202 
	L 436.968, 693.933 
" />
<path d="M 461.714, 662.438 
	L 461.713, 662.438 
	L 470.915, 656.059 
	L 480.807, 670.327 
	L 471.605, 676.707 
	L 461.713, 662.438 
" />
<path d="M 493.545, 630.943 
	L 493.544, 630.943 
	L 502.863, 624.483 
	L 512.755, 638.751 
	L 503.437, 645.212 
	L 493.544, 630.943 
" />
<path d="M 532.463, 599.448 
	L 532.463, 599.448 
	L 541.897, 592.907 
	L 551.789, 607.175 
	L 542.355, 613.716 
	L 532.463, 599.448 
" />
<path d="M 578.468, 567.953 
	L 578.468, 567.953 
	L 588.018, 561.332 
	L 597.910, 575.600 
	L 588.360, 582.221 
	L 578.468, 567.953 
" />
<path d="M 631.559, 536.458 
	L 631.558, 536.458 
	L 641.227, 529.756 
	L 651.119, 544.024 
	L 641.451, 550.726 
	L 631.558, 536.458 
" />
<path d="M 691.737, 504.962 
	L 691.737, 504.963 
	L 701.521, 498.180 
	L 711.413, 512.448 
	L 701.629, 519.231 
	L 691.737, 504.963 
" />
<path d="M 1134.567, 792.525 
	L 1136.693, 792.525 
	L 1137.402, 791.462 
	L 1136.693, 790.399 
	L 1135.276, 790.399 
" />
<path d="M 1136.693, 790.399 
	L 1137.402, 789.336 
	L 1136.693, 788.273 
	L 1134.567, 788.273 
" />
<path d="M 1135.984, 786.147 
	L 1135.984, 782.958 
	L 1135.276, 781.895 
	L 1134.567, 782.958 
	L 1134.567, 785.084 
	L 1135.276, 786.147 
	L 1136.693, 786.147 
	L 1137.402, 785.084 
	L 1137.402, 781.895 
" />
<path d="M 1137.402, 775.517 
	L 1137.402, 778.706 
	L 1136.693, 779.769 
	L 1135.276, 779.769 
	L 1134.567, 778.706 
	L 1134.567, 776.580 
	L 1137.402, 776.580 
" />
<path d="M 1134.567, 773.391 
	L 1135.984, 773.391 
	L 1137.402, 771.265 
	L 1135.984, 769.139 
	L 1134.567, 769.139 
" />
<path d="M 1135.984, 767.013 
	L 1135.984, 763.824 
	L 1135.276, 762.761 
	L 1134.567, 763.824 
	L 1134.567, 765.950 
	L 1135.276, 767.013 
	L 1136.693, 767.013 
	L 1137.402, 765.950 
	L 1137.402, 762.761 
" />
<path d="M 1134.567, 757.446 
	L 1134.567, 759.572 
	L 1135.276, 760.635 
	L 1135.984, 759.572 
	L 1135.984, 758.509 
	L 1136.693, 757.446 
	L 1137.402, 758.509 
	L 1137.402, 760.635 
" />
<path d="M 1137.402, 752.131 
	L 1137.402, 753.194 
	L 1136.693, 753.194 
	L 1136.693, 752.131 
	L 1137.402, 752.131 
" />
<path d="M 1138.819, 747.879 
	L 1134.567, 747.879 
	L 1134.567, 745.753 
	L 1135.276, 744.690 
	L 1136.693, 744.690 
	L 1137.402, 745.753 
	L 1137.402, 747.879 
" />
<path d="M 1138.819, 741.501 
	L 1135.984, 737.249 
	L 1134.567, 737.249 
" />
<path d="M 1134.567, 741.501 
	L 1135.984, 741.501 
	L 1137.402, 739.375 
" />
<path d="M 1133.858, 709.611 
	L 1133.150, 708.548 
	L 1133.150, 706.422 
	L 1133.858, 705.359 
	L 1134.567, 705.359 
	L 1136.693, 709.611 
	L 1137.402, 709.611 
	L 1137.402, 705.359 
" />
<path d="M 1136.693, 703.233 
	L 1137.402, 702.170 
	L 1137.402, 700.044 
	L 1136.693, 698.981 
	L 1133.858, 698.981 
	L 1133.150, 700.044 
	L 1133.150, 702.170 
	L 1133.858, 703.233 
	L 1136.693, 703.233 
" />
<path d="M 1137.402, 695.792 
	L 1137.402, 693.666 
" />
<path d="M 1137.402, 694.729 
	L 1133.150, 694.729 
	L 1133.858, 695.792 
" />
<path d="M 1137.402, 689.414 
	L 1137.402, 688.351 
	L 1135.984, 686.225 
	L 1133.858, 686.225 
	L 1133.150, 687.288 
	L 1133.150, 689.414 
	L 1133.858, 690.477 
	L 1134.567, 690.477 
	L 1135.276, 689.414 
	L 1135.276, 686.225 
" />
<path d="M 1135.276, 684.099 
	L 1135.276, 679.847 
" />
<path d="M 1136.693, 677.721 
	L 1137.402, 676.658 
	L 1137.402, 674.532 
	L 1136.693, 673.469 
	L 1133.858, 673.469 
	L 1133.150, 674.532 
	L 1133.150, 676.658 
	L 1133.858, 677.721 
	L 1136.693, 677.721 
" />
<path d="M 1133.150, 667.091 
	L 1133.150, 669.217 
	L 1134.567, 671.343 
	L 1136.693, 671.343 
	L 1137.402, 670.280 
	L 1137.402, 668.154 
	L 1136.693, 667.091 
	L 1135.984, 667.091 
	L 1135.276, 668.154 
	L 1135.276, 671.343 
" />
<path d="M 1135.276, 664.965 
	L 1135.276, 660.713 
" />
<path d="M 1136.693, 658.588 
	L 1137.402, 657.525 
	L 1137.402, 655.399 
	L 1136.693, 654.336 
	L 1133.858, 654.336 
	L 1133.150, 655.399 
	L 1133.150, 657.525 
	L 1133.858, 658.588 
	L 1136.693, 658.588 
" />
<path d="M 1137.402, 651.147 
	L 1137.402, 650.084 
	L 1135.984, 647.958 
	L 1133.858, 647.958 
	L 1133.150, 649.021 
	L 1133.150, 651.147 
	L 1133.858, 652.210 
	L 1134.567, 652.210 
	L 1135.276, 651.147 
	L 1135.276, 647.958 
" />
<path d="M 1136.693, 639.454 
	L 1137.402, 638.391 
	L 1137.402, 636.265 
	L 1136.693, 635.202 
	L 1133.858, 635.202 
	L 1133.150, 636.265 
	L 1133.150, 638.391 
	L 1133.858, 639.454 
	L 1136.693, 639.454 
" />
<path d="M 1136.693, 633.076 
	L 1137.402, 632.013 
	L 1137.402, 629.887 
	L 1136.693, 628.824 
	L 1133.858, 628.824 
	L 1133.150, 629.887 
	L 1133.150, 632.013 
	L 1133.858, 633.076 
	L 1136.693, 633.076 
" />
<path d="M 1135.276, 625.635 
	L 1134.567, 625.635 
	L 1134.567, 624.572 
	L 1135.276, 624.572 
	L 1135.276, 625.635 
" />
<path d="M 1136.693, 625.635 
	L 1136.693, 624.572 
	L 1137.402, 624.572 
	L 1137.402, 625.635 
	L 1136.693, 625.635 
" />
<path d="M 1133.858, 620.320 
	L 1133.150, 619.257 
	L 1133.150, 617.131 
	L 1133.858, 616.068 
	L 1134.567, 616.068 
	L 1136.693, 620.320 
	L 1137.402, 620.320 
	L 1137.402, 616.068 
" />
<path d="M 1137.402, 612.879 
	L 1137.402, 610.753 
" />
<path d="M 1137.402, 611.816 
	L 1133.150, 611.816 
	L 1133.858, 612.879 
" />
</g>
</svg>
