<?xml version="1.0" encoding="UTF-8" standalone="no" ?>
<svg width="100%" height="100%" viewBox="0 0 496.063 354.331" xmlns="http://www.w3.org/2000/svg"><g>
</g><g style="stroke:rgb(0,0,0); fill:none; stroke-width:1.000mm" >
</g><g style="stroke:rgb(0,0,0); fill:none; stroke-width:0.100mm" >
<path d="M 0.001, 354.330 
	L 0.000, 354.331 
	L 0.000, 0.000 
	L 496.063, 0.000 
	L 496.063, 354.331 
	L 0.000, 354.331 
" />
</g><g style="stroke:rgb(255,0,0); fill:none; stroke-width:0.100mm" >
<path d="M 362.056, 162.637 
	L 362.055, 162.638 
" />
<path d="M 362.056, 162.637 
	L 362.055, 162.638 
" />
<path d="M 362.056, 162.637 
	L 362.055, 162.638 
	L 358.958, 133.170 
" />
<path d="M 358.959, 133.170 
	L 358.958, 133.170 
	L 349.802, 104.990 
" />
<path d="M 349.802, 104.990 
	L 349.802, 104.990 
	L 334.986, 79.330 
" />
<path d="M 334.987, 79.329 
	L 334.986, 79.330 
" />
<path d="M 334.987, 79.329 
	L 334.986, 79.330 
	L 315.160, 57.310 
" />
<path d="M 315.161, 57.309 
	L 315.160, 57.310 
	L 291.189, 39.894 
" />
<path d="M 291.190, 39.893 
	L 291.189, 39.894 
" />
<path d="M 291.190, 39.893 
	L 291.189, 39.894 
	L 264.120, 27.843 
" />
<path d="M 264.121, 27.842 
	L 264.120, 27.843 
" />
<path d="M 264.121, 27.842 
	L 264.120, 27.843 
	L 235.138, 21.682 
" />
<path d="M 235.139, 21.682 
	L 235.138, 21.682 
	L 205.508, 21.682 
" />
<path d="M 205.508, 21.682 
	L 205.508, 21.682 
	L 176.525, 27.843 
" />
<path d="M 176.526, 27.842 
	L 176.525, 27.843 
" />
<path d="M 176.526, 27.842 
	L 176.525, 27.843 
	L 149.457, 39.894 
" />
<path d="M 149.457, 39.893 
	L 149.457, 39.894 
	L 125.486, 57.310 
" />
<path d="M 125.486, 57.309 
	L 125.486, 57.310 
" />
<path d="M 125.486, 57.309 
	L 125.486, 57.310 
" />
<path d="M 125.486, 57.309 
	L 125.486, 57.310 
	L 105.659, 79.330 
" />
<path d="M 105.660, 79.329 
	L 105.659, 79.330 
	L 90.844, 104.990 
" />
<path d="M 90.845, 104.990 
	L 90.844, 104.990 
" />
<path d="M 90.845, 104.990 
	L 90.844, 104.990 
	L 81.687, 133.170 
" />
<path d="M 81.688, 133.170 
	L 81.687, 133.170 
" />
<path d="M 81.688, 133.170 
	L 81.687, 133.170 
" />
<path d="M 81.688, 133.170 
	L 81.687, 133.170 
" />
<path d="M 81.688, 133.170 
	L 81.687, 133.170 
	L 78.591, 162.638 
" />
<path d="M 78.591, 162.637 
	L 78.591, 162.638 
	L 81.687, 192.105 
" />
<path d="M 81.688, 192.105 
	L 81.687, 192.105 
" />
<path d="M 81.688, 192.105 
	L 81.687, 192.105 
" />
<path d="M 81.688, 192.105 
	L 81.687, 192.105 
" />
<path d="M 81.688, 192.105 
	L 81.687, 192.105 
	L 90.844, 220.285 
" />
<path d="M 90.845, 220.285 
	L 90.844, 220.285 
" />
<path d="M 90.845, 220.285 
	L 90.844, 220.285 
	L 105.659, 245.946 
" />
<path d="M 105.660, 245.945 
	L 105.659, 245.946 
" />
<path d="M 105.660, 245.945 
	L 105.659, 245.946 
" />
<path d="M 105.660, 245.945 
	L 105.659, 245.946 
" />
<path d="M 105.660, 245.945 
	L 105.659, 245.946 
" />
<path d="M 105.660, 245.945 
	L 105.659, 245.946 
	L 125.486, 267.965 
" />
<path d="M 125.486, 267.965 
	L 125.486, 267.965 
" />
<path d="M 125.486, 267.965 
	L 125.486, 267.965 
	L 149.457, 285.382 
" />
<path d="M 149.457, 285.381 
	L 149.457, 285.382 
" />
<path d="M 149.457, 285.381 
	L 149.457, 285.382 
" />
<path d="M 149.457, 285.381 
	L 149.457, 285.382 
	L 176.525, 297.433 
" />
<path d="M 176.526, 297.432 
	L 176.525, 297.433 
" />
<path d="M 176.526, 297.432 
	L 176.525, 297.433 
	L 205.508, 303.593 
" />
<path d="M 205.508, 303.593 
	L 205.508, 303.593 
" />
<path d="M 205.508, 303.593 
	L 205.508, 303.593 
	L 235.138, 303.593 
" />
<path d="M 235.139, 303.593 
	L 235.138, 303.593 
" />
<path d="M 235.139, 303.593 
	L 235.138, 303.593 
" />
<path d="M 235.139, 303.593 
	L 235.138, 303.593 
	L 264.120, 297.433 
" />
<path d="M 264.121, 297.432 
	L 264.120, 297.433 
" />
<path d="M 264.121, 297.432 
	L 264.120, 297.433 
	L 291.189, 285.382 
" />
<path d="M 291.190, 285.381 
	L 291.189, 285.382 
" />
<path d="M 291.190, 285.381 
	L 291.189, 285.382 
" />
<path d="M 291.190, 285.381 
	L 291.189, 285.382 
" />
<path d="M 291.190, 285.381 
	L 291.189, 285.382 
	L 315.160, 267.965 
" />
<path d="M 315.161, 267.965 
	L 315.160, 267.965 
" />
<path d="M 315.161, 267.965 
	L 315.160, 267.965 
	L 334.986, 245.946 
" />
<path d="M 334.987, 245.945 
	L 334.986, 245.946 
" />
<path d="M 334.987, 245.945 
	L 334.986, 245.946 
	L 349.802, 220.285 
" />
<path d="M 349.802, 220.285 
	L 349.802, 220.285 
" />
<path d="M 349.802, 220.285 
	L 349.802, 220.285 
" />
<path d="M 349.802, 220.285 
	L 349.802, 220.285 
" />
<path d="M 349.802, 220.285 
	L 349.802, 220.285 
	L 358.958, 192.105 
" />
<path d="M 358.959, 192.105 
	L 358.958, 192.105 
" />
<path d="M 358.959, 192.105 
	L 358.958, 192.105 
" />
<path d="M 358.959, 192.105 
	L 358.958, 192.105 
" />
<path d="M 358.959, 192.105 
	L 358.958, 192.105 
	L 362.055, 162.638 
" />
<path d="M 357.450, 162.283 
	L 357.449, 162.283 
" />
<path d="M 357.450, 162.283 
	L 357.449, 162.283 
" />
<path d="M 357.450, 162.283 
	L 357.449, 162.283 
	L 354.373, 133.022 
" />
<path d="M 354.374, 133.021 
	L 354.373, 133.022 
	L 345.281, 105.039 
	L 330.570, 79.559 
	L 310.882, 57.693 
" />
<path d="M 287.079, 40.398 
	L 287.079, 40.399 
	L 260.200, 28.432 
	L 231.420, 22.314 
	L 201.998, 22.314 
" />
<path d="M 173.218, 28.431 
	L 173.217, 28.432 
" />
<path d="M 173.218, 28.431 
	L 173.217, 28.432 
	L 146.339, 40.399 
" />
<path d="M 146.339, 40.398 
	L 146.339, 40.399 
	L 122.535, 57.693 
" />
<path d="M 122.536, 57.692 
	L 122.535, 57.693 
	L 102.847, 79.559 
	L 88.136, 105.039 
	L 79.044, 133.022 
" />
<path d="M 75.969, 162.283 
	L 75.969, 162.283 
" />
<path d="M 75.969, 162.283 
	L 75.969, 162.283 
	L 79.044, 191.545 
	L 88.136, 219.528 
" />
<path d="M 102.848, 245.008 
	L 102.847, 245.008 
	L 122.535, 266.874 
	L 146.339, 284.168 
" />
<path d="M 173.218, 296.135 
	L 173.217, 296.135 
	L 201.998, 302.253 
	L 231.420, 302.253 
" />
<path d="M 260.201, 296.135 
	L 260.200, 296.135 
	L 287.079, 284.168 
	L 310.882, 266.874 
	L 330.570, 245.008 
" />
<path d="M 345.282, 219.527 
	L 345.281, 219.528 
" />
<path d="M 345.282, 219.527 
	L 345.281, 219.528 
" />
<path d="M 345.282, 219.527 
	L 345.281, 219.528 
	L 354.373, 191.545 
" />
<path d="M 354.374, 191.544 
	L 354.373, 191.545 
" />
<path d="M 354.374, 191.544 
	L 354.373, 191.545 
	L 357.449, 162.283 
	L 354.373, 133.022 
	L 345.281, 105.039 
" />
<path d="M 361.071, 163.346 
	L 361.070, 163.346 
" />
<path d="M 361.071, 163.346 
	L 361.070, 163.346 
" />
<path d="M 361.071, 163.346 
	L 361.070, 163.346 
" />
<path d="M 361.071, 163.346 
	L 361.070, 163.346 
	L 358.016, 134.290 
" />
<path d="M 358.016, 134.289 
	L 358.016, 134.290 
" />
<path d="M 358.016, 134.289 
	L 358.016, 134.290 
	L 348.987, 106.503 
" />
<path d="M 348.988, 106.503 
	L 348.987, 106.503 
	L 334.379, 81.201 
" />
<path d="M 334.380, 81.200 
	L 334.379, 81.201 
	L 314.829, 59.489 
" />
<path d="M 314.830, 59.488 
	L 314.829, 59.489 
" />
<path d="M 314.830, 59.488 
	L 314.829, 59.489 
	L 291.193, 42.315 
" />
<path d="M 291.193, 42.314 
	L 291.193, 42.315 
	L 264.502, 30.431 
" />
<path d="M 264.502, 30.431 
	L 264.502, 30.431 
	L 235.923, 24.357 
" />
<path d="M 235.924, 24.357 
	L 235.923, 24.357 
" />
<path d="M 235.924, 24.357 
	L 235.923, 24.357 
	L 206.707, 24.357 
" />
<path d="M 206.707, 24.357 
	L 206.707, 24.357 
" />
<path d="M 206.707, 24.357 
	L 206.707, 24.357 
	L 178.128, 30.431 
" />
<path d="M 178.129, 30.431 
	L 178.128, 30.431 
	L 151.437, 42.315 
" />
<path d="M 151.438, 42.314 
	L 151.437, 42.315 
	L 127.801, 59.489 
" />
<path d="M 127.801, 59.488 
	L 127.801, 59.489 
	L 108.251, 81.201 
" />
<path d="M 108.252, 81.200 
	L 108.251, 81.201 
	L 93.643, 106.503 
" />
<path d="M 93.643, 106.503 
	L 93.643, 106.503 
	L 84.614, 134.290 
" />
<path d="M 84.615, 134.289 
	L 84.614, 134.290 
" />
<path d="M 84.615, 134.289 
	L 84.614, 134.290 
" />
<path d="M 84.615, 134.289 
	L 84.614, 134.290 
	L 81.560, 163.346 
" />
<path d="M 81.561, 163.346 
	L 81.560, 163.346 
" />
<path d="M 81.561, 163.346 
	L 81.560, 163.346 
	L 84.614, 192.403 
" />
<path d="M 84.615, 192.402 
	L 84.614, 192.403 
" />
<path d="M 84.615, 192.402 
	L 84.614, 192.403 
	L 93.643, 220.190 
" />
<path d="M 93.643, 220.189 
	L 93.643, 220.190 
	L 108.251, 245.492 
" />
<path d="M 108.252, 245.492 
	L 108.251, 245.492 
	L 127.801, 267.204 
" />
<path d="M 127.801, 267.204 
	L 127.801, 267.204 
" />
<path d="M 127.801, 267.204 
	L 127.801, 267.204 
" />
<path d="M 127.801, 267.204 
	L 127.801, 267.204 
" />
<path d="M 127.801, 267.204 
	L 127.801, 267.204 
" />
<path d="M 127.801, 267.204 
	L 127.801, 267.204 
	L 151.437, 284.378 
" />
<path d="M 151.438, 284.377 
	L 151.437, 284.378 
" />
<path d="M 151.438, 284.377 
	L 151.437, 284.378 
	L 178.128, 296.262 
" />
<path d="M 178.129, 296.261 
	L 178.128, 296.262 
	L 206.707, 302.336 
" />
<path d="M 206.707, 302.335 
	L 206.707, 302.336 
	L 235.923, 302.336 
" />
<path d="M 235.924, 302.335 
	L 235.923, 302.336 
	L 264.502, 296.262 
" />
<path d="M 264.502, 296.261 
	L 264.502, 296.262 
	L 291.193, 284.378 
" />
<path d="M 291.193, 284.377 
	L 291.193, 284.378 
	L 314.829, 267.204 
" />
<path d="M 314.830, 267.204 
	L 314.829, 267.204 
	L 334.379, 245.492 
" />
<path d="M 334.380, 245.492 
	L 334.379, 245.492 
	L 348.987, 220.190 
" />
<path d="M 348.988, 220.189 
	L 348.987, 220.190 
	L 358.016, 192.403 
" />
<path d="M 358.016, 192.402 
	L 358.016, 192.403 
	L 361.070, 163.346 
" />
<path d="M 360.446, 157.960 
	L 360.446, 157.961 
" />
<path d="M 360.446, 157.960 
	L 360.446, 157.961 
	L 357.413, 129.108 
" />
<path d="M 357.414, 129.107 
	L 357.413, 129.108 
	L 348.448, 101.515 
" />
<path d="M 348.449, 101.514 
	L 348.448, 101.515 
" />
<path d="M 348.449, 101.514 
	L 348.448, 101.515 
" />
<path d="M 348.449, 101.514 
	L 348.448, 101.515 
" />
<path d="M 348.449, 101.514 
	L 348.448, 101.515 
	L 333.942, 76.389 
" />
<path d="M 333.943, 76.389 
	L 333.942, 76.389 
" />
<path d="M 333.943, 76.389 
	L 333.942, 76.389 
	L 314.529, 54.829 
" />
<path d="M 314.529, 54.828 
	L 314.529, 54.829 
	L 291.058, 37.777 
" />
<path d="M 291.059, 37.776 
	L 291.058, 37.777 
" />
<path d="M 291.059, 37.776 
	L 291.058, 37.777 
	L 264.554, 25.976 
" />
<path d="M 264.555, 25.975 
	L 264.554, 25.976 
" />
<path d="M 264.555, 25.975 
	L 264.554, 25.976 
" />
<path d="M 264.555, 25.975 
	L 264.554, 25.976 
" />
<path d="M 264.555, 25.975 
	L 264.554, 25.976 
" />
<path d="M 264.555, 25.975 
	L 264.554, 25.976 
	L 236.176, 19.944 
" />
<path d="M 236.176, 19.943 
	L 236.176, 19.944 
	L 207.163, 19.944 
" />
<path d="M 207.164, 19.943 
	L 207.163, 19.944 
	L 178.785, 25.976 
" />
<path d="M 178.785, 25.975 
	L 178.785, 25.976 
" />
<path d="M 178.785, 25.975 
	L 178.785, 25.976 
" />
<path d="M 178.785, 25.975 
	L 178.785, 25.976 
" />
<path d="M 178.785, 25.975 
	L 178.785, 25.976 
	L 152.281, 37.777 
" />
<path d="M 152.281, 37.776 
	L 152.281, 37.777 
" />
<path d="M 152.281, 37.776 
	L 152.281, 37.777 
	L 128.810, 54.829 
" />
<path d="M 128.811, 54.828 
	L 128.810, 54.829 
	L 109.397, 76.389 
" />
<path d="M 109.397, 76.389 
	L 109.397, 76.389 
" />
<path d="M 109.397, 76.389 
	L 109.397, 76.389 
	L 94.890, 101.515 
" />
<path d="M 94.891, 101.514 
	L 94.890, 101.515 
" />
<path d="M 94.891, 101.514 
	L 94.890, 101.515 
	L 85.925, 129.108 
" />
<path d="M 85.926, 129.107 
	L 85.925, 129.108 
" />
<path d="M 85.926, 129.107 
	L 85.925, 129.108 
" />
<path d="M 85.926, 129.107 
	L 85.925, 129.108 
" />
<path d="M 85.926, 129.107 
	L 85.925, 129.108 
	L 82.893, 157.961 
" />
<path d="M 82.894, 157.960 
	L 82.893, 157.961 
" />
<path d="M 82.894, 157.960 
	L 82.893, 157.961 
" />
<path d="M 82.894, 157.960 
	L 82.893, 157.961 
	L 85.925, 186.814 
" />
<path d="M 85.926, 186.813 
	L 85.925, 186.814 
" />
<path d="M 85.926, 186.813 
	L 85.925, 186.814 
	L 94.890, 214.406 
" />
<path d="M 94.891, 214.406 
	L 94.890, 214.406 
" />
<path d="M 94.891, 214.406 
	L 94.890, 214.406 
" />
<path d="M 94.891, 214.406 
	L 94.890, 214.406 
" />
<path d="M 94.891, 214.406 
	L 94.890, 214.406 
	L 109.397, 239.532 
" />
<path d="M 109.397, 239.531 
	L 109.397, 239.532 
	L 128.810, 261.092 
" />
<path d="M 128.811, 261.091 
	L 128.810, 261.092 
	L 152.281, 278.145 
" />
<path d="M 152.281, 278.144 
	L 152.281, 278.145 
	L 178.785, 289.945 
" />
<path d="M 178.785, 289.945 
	L 178.785, 289.945 
	L 207.163, 295.977 
" />
<path d="M 207.164, 295.977 
	L 207.163, 295.977 
" />
<path d="M 207.164, 295.977 
	L 207.163, 295.977 
	L 236.176, 295.977 
" />
<path d="M 236.176, 295.977 
	L 236.176, 295.977 
	L 264.554, 289.945 
" />
<path d="M 264.555, 289.945 
	L 264.554, 289.945 
	L 291.058, 278.145 
" />
<path d="M 291.059, 278.144 
	L 291.058, 278.145 
	L 314.529, 261.092 
" />
<path d="M 314.529, 261.091 
	L 314.529, 261.092 
" />
<path d="M 314.529, 261.091 
	L 314.529, 261.092 
" />
<path d="M 314.529, 261.091 
	L 314.529, 261.092 
" />
<path d="M 314.529, 261.091 
	L 314.529, 261.092 
	L 333.942, 239.532 
" />
<path d="M 333.943, 239.531 
	L 333.942, 239.532 
" />
<path d="M 333.943, 239.531 
	L 333.942, 239.532 
	L 348.448, 214.406 
" />
<path d="M 348.449, 214.406 
	L 348.448, 214.406 
" />
<path d="M 348.449, 214.406 
	L 348.448, 214.406 
	L 357.413, 186.814 
" />
<path d="M 357.414, 186.813 
	L 357.413, 186.814 
" />
<path d="M 357.414, 186.813 
	L 357.413, 186.814 
" />
<path d="M 357.414, 186.813 
	L 357.413, 186.814 
	L 360.446, 157.961 
" />
<path d="M 358.200, 157.889 
	L 358.199, 157.890 
	L 355.188, 129.239 
" />
<path d="M 355.188, 129.238 
	L 355.188, 129.239 
" />
<path d="M 355.188, 129.238 
	L 355.188, 129.239 
" />
<path d="M 355.188, 129.238 
	L 355.188, 129.239 
	L 346.285, 101.840 
" />
<path d="M 346.286, 101.839 
	L 346.285, 101.840 
	L 331.880, 76.890 
" />
<path d="M 331.881, 76.889 
	L 331.880, 76.890 
" />
<path d="M 331.881, 76.889 
	L 331.880, 76.890 
" />
<path d="M 331.881, 76.889 
	L 331.880, 76.890 
	L 312.603, 55.480 
" />
<path d="M 312.604, 55.480 
	L 312.603, 55.480 
	L 289.296, 38.547 
" />
<path d="M 289.297, 38.546 
	L 289.296, 38.547 
" />
<path d="M 289.297, 38.546 
	L 289.296, 38.547 
	L 262.978, 26.829 
" />
<path d="M 262.979, 26.829 
	L 262.978, 26.829 
	L 234.798, 20.840 
" />
<path d="M 234.799, 20.839 
	L 234.798, 20.840 
	L 205.989, 20.840 
" />
<path d="M 205.990, 20.839 
	L 205.989, 20.840 
" />
<path d="M 205.990, 20.839 
	L 205.989, 20.840 
	L 177.810, 26.829 
" />
<path d="M 177.810, 26.829 
	L 177.810, 26.829 
	L 151.491, 38.547 
" />
<path d="M 151.492, 38.546 
	L 151.491, 38.547 
	L 128.184, 55.480 
" />
<path d="M 128.185, 55.480 
	L 128.184, 55.480 
" />
<path d="M 128.185, 55.480 
	L 128.184, 55.480 
	L 108.907, 76.890 
" />
<path d="M 108.908, 76.889 
	L 108.907, 76.890 
	L 94.502, 101.840 
" />
<path d="M 94.503, 101.839 
	L 94.502, 101.840 
" />
<path d="M 94.503, 101.839 
	L 94.502, 101.840 
" />
<path d="M 94.503, 101.839 
	L 94.502, 101.840 
	L 85.600, 129.239 
" />
<path d="M 85.601, 129.238 
	L 85.600, 129.239 
" />
<path d="M 85.601, 129.238 
	L 85.600, 129.239 
	L 82.588, 157.890 
" />
<path d="M 82.589, 157.889 
	L 82.588, 157.890 
" />
<path d="M 82.589, 157.889 
	L 82.588, 157.890 
" />
<path d="M 82.589, 157.889 
	L 82.588, 157.890 
" />
<path d="M 82.589, 157.889 
	L 82.588, 157.890 
" />
<path d="M 82.589, 157.889 
	L 82.588, 157.890 
" />
<path d="M 82.589, 157.889 
	L 82.588, 157.890 
" />
<path d="M 82.589, 157.889 
	L 82.588, 157.890 
" />
<path d="M 82.589, 157.889 
	L 82.588, 157.890 
	L 85.600, 186.541 
" />
<path d="M 85.601, 186.540 
	L 85.600, 186.541 
	L 94.502, 213.940 
" />
<path d="M 94.503, 213.939 
	L 94.502, 213.940 
	L 108.907, 238.890 
" />
<path d="M 108.908, 238.889 
	L 108.907, 238.890 
	L 128.184, 260.299 
" />
<path d="M 128.185, 260.298 
	L 128.184, 260.299 
" />
<path d="M 128.185, 260.298 
	L 128.184, 260.299 
" />
<path d="M 128.185, 260.298 
	L 128.184, 260.299 
" />
<path d="M 128.185, 260.298 
	L 128.184, 260.299 
	L 151.491, 277.233 
" />
<path d="M 151.492, 277.232 
	L 151.491, 277.233 
" />
<path d="M 151.492, 277.232 
	L 151.491, 277.233 
	L 177.810, 288.950 
" />
<path d="M 177.810, 288.950 
	L 177.810, 288.950 
	L 205.989, 294.940 
" />
<path d="M 205.990, 294.939 
	L 205.989, 294.940 
" />
<path d="M 205.990, 294.939 
	L 205.989, 294.940 
	L 234.798, 294.940 
" />
<path d="M 234.799, 294.939 
	L 234.798, 294.940 
" />
<path d="M 234.799, 294.939 
	L 234.798, 294.940 
	L 262.978, 288.950 
" />
<path d="M 262.979, 288.950 
	L 262.978, 288.950 
	L 289.296, 277.233 
" />
<path d="M 289.297, 277.232 
	L 289.296, 277.233 
" />
<path d="M 289.297, 277.232 
	L 289.296, 277.233 
	L 312.603, 260.299 
" />
<path d="M 312.604, 260.298 
	L 312.603, 260.299 
	L 331.880, 238.890 
" />
<path d="M 331.881, 238.889 
	L 331.880, 238.890 
" />
<path d="M 331.881, 238.889 
	L 331.880, 238.890 
	L 346.285, 213.940 
" />
<path d="M 346.286, 213.939 
	L 346.285, 213.940 
" />
<path d="M 346.286, 213.939 
	L 346.285, 213.940 
" />
<path d="M 346.286, 213.939 
	L 346.285, 213.940 
" />
<path d="M 346.286, 213.939 
	L 346.285, 213.940 
" />
<path d="M 346.286, 213.939 
	L 346.285, 213.940 
" />
<path d="M 346.286, 213.939 
	L 346.285, 213.940 
	L 355.188, 186.541 
" />
<path d="M 355.188, 186.540 
	L 355.188, 186.541 
" />
<path d="M 355.188, 186.540 
	L 355.188, 186.541 
	L 358.199, 157.890 
" />
<path d="M 356.384, 160.086 
	L 356.384, 160.087 
" />
<path d="M 356.384, 160.086 
	L 356.384, 160.087 
	L 353.394, 131.636 
" />
<path d="M 353.395, 131.635 
	L 353.394, 131.636 
	L 344.553, 104.428 
" />
<path d="M 344.554, 104.428 
	L 344.553, 104.428 
" />
<path d="M 344.554, 104.428 
	L 344.553, 104.428 
" />
<path d="M 344.554, 104.428 
	L 344.553, 104.428 
" />
<path d="M 344.554, 104.428 
	L 344.553, 104.428 
	L 330.250, 79.654 
" />
<path d="M 330.250, 79.653 
	L 330.250, 79.654 
" />
<path d="M 330.250, 79.653 
	L 330.250, 79.654 
	L 311.107, 58.394 
" />
<path d="M 311.108, 58.394 
	L 311.107, 58.394 
" />
<path d="M 311.108, 58.394 
	L 311.107, 58.394 
" />
<path d="M 311.108, 58.394 
	L 311.107, 58.394 
" />
<path d="M 311.108, 58.394 
	L 311.107, 58.394 
	L 287.964, 41.579 
" />
<path d="M 287.965, 41.579 
	L 287.964, 41.579 
	L 261.829, 29.944 
" />
<path d="M 261.830, 29.943 
	L 261.829, 29.944 
" />
<path d="M 261.830, 29.943 
	L 261.829, 29.944 
" />
<path d="M 261.830, 29.943 
	L 261.829, 29.944 
" />
<path d="M 261.830, 29.943 
	L 261.829, 29.944 
	L 233.847, 23.995 
" />
<path d="M 233.848, 23.995 
	L 233.847, 23.995 
	L 205.240, 23.995 
" />
<path d="M 205.240, 23.995 
	L 205.240, 23.995 
	L 177.258, 29.944 
" />
<path d="M 177.258, 29.943 
	L 177.258, 29.944 
" />
<path d="M 177.258, 29.943 
	L 177.258, 29.944 
	L 151.123, 41.579 
" />
<path d="M 151.123, 41.579 
	L 151.123, 41.579 
	L 127.979, 58.394 
" />
<path d="M 127.980, 58.394 
	L 127.979, 58.394 
	L 108.837, 79.654 
" />
<path d="M 108.838, 79.653 
	L 108.837, 79.654 
" />
<path d="M 108.838, 79.653 
	L 108.837, 79.654 
" />
<path d="M 108.838, 79.653 
	L 108.837, 79.654 
" />
<path d="M 108.838, 79.653 
	L 108.837, 79.654 
	L 94.533, 104.428 
" />
<path d="M 94.534, 104.428 
	L 94.533, 104.428 
" />
<path d="M 94.534, 104.428 
	L 94.533, 104.428 
	L 85.693, 131.636 
" />
<path d="M 85.693, 131.635 
	L 85.693, 131.636 
	L 82.703, 160.087 
" />
<path d="M 82.704, 160.086 
	L 82.703, 160.087 
" />
<path d="M 82.704, 160.086 
	L 82.703, 160.087 
" />
<path d="M 82.704, 160.086 
	L 82.703, 160.087 
	L 85.693, 188.537 
" />
<path d="M 85.693, 188.537 
	L 85.693, 188.537 
	L 94.533, 215.745 
" />
<path d="M 94.534, 215.744 
	L 94.533, 215.745 
" />
<path d="M 94.534, 215.744 
	L 94.533, 215.745 
	L 108.837, 240.520 
" />
<path d="M 108.838, 240.519 
	L 108.837, 240.520 
	L 127.979, 261.779 
" />
<path d="M 127.980, 261.778 
	L 127.979, 261.779 
" />
<path d="M 127.980, 261.778 
	L 127.979, 261.779 
	L 151.123, 278.594 
" />
<path d="M 151.123, 278.593 
	L 151.123, 278.594 
" />
<path d="M 151.123, 278.593 
	L 151.123, 278.594 
	L 177.258, 290.229 
" />
<path d="M 177.258, 290.229 
	L 177.258, 290.229 
	L 205.240, 296.178 
" />
<path d="M 205.240, 296.177 
	L 205.240, 296.178 
	L 233.847, 296.178 
" />
<path d="M 233.848, 296.177 
	L 233.847, 296.178 
" />
<path d="M 233.848, 296.177 
	L 233.847, 296.178 
	L 261.829, 290.229 
" />
<path d="M 261.830, 290.229 
	L 261.829, 290.229 
" />
<path d="M 261.830, 290.229 
	L 261.829, 290.229 
" />
<path d="M 261.830, 290.229 
	L 261.829, 290.229 
" />
<path d="M 261.830, 290.229 
	L 261.829, 290.229 
" />
<path d="M 261.830, 290.229 
	L 261.829, 290.229 
" />
<path d="M 261.830, 290.229 
	L 261.829, 290.229 
	L 287.964, 278.594 
" />
<path d="M 287.965, 278.593 
	L 287.964, 278.594 
	L 311.107, 261.779 
" />
<path d="M 311.108, 261.778 
	L 311.107, 261.779 
	L 330.250, 240.520 
" />
<path d="M 330.250, 240.519 
	L 330.250, 240.520 
	L 344.553, 215.745 
" />
<path d="M 344.554, 215.744 
	L 344.553, 215.745 
	L 353.394, 188.537 
" />
<path d="M 353.395, 188.537 
	L 353.394, 188.537 
" />
<path d="M 353.395, 188.537 
	L 353.394, 188.537 
	L 356.384, 160.087 
" />
<path d="M 354.789, 158.102 
	L 354.789, 158.102 
" />
<path d="M 354.789, 158.102 
	L 354.789, 158.102 
" />
<path d="M 354.789, 158.102 
	L 354.789, 158.102 
	L 351.819, 129.851 
" />
<path d="M 351.820, 129.850 
	L 351.819, 129.851 
	L 343.040, 102.834 
" />
<path d="M 343.041, 102.833 
	L 343.040, 102.834 
" />
<path d="M 343.041, 102.833 
	L 343.040, 102.834 
" />
<path d="M 343.041, 102.833 
	L 343.040, 102.834 
" />
<path d="M 343.041, 102.833 
	L 343.040, 102.834 
" />
<path d="M 343.041, 102.833 
	L 343.040, 102.834 
" />
<path d="M 343.041, 102.833 
	L 343.040, 102.834 
	L 328.837, 78.233 
" />
<path d="M 328.837, 78.232 
	L 328.837, 78.233 
	L 309.829, 57.122 
" />
<path d="M 309.830, 57.121 
	L 309.829, 57.122 
" />
<path d="M 309.830, 57.121 
	L 309.829, 57.122 
	L 286.847, 40.424 
" />
<path d="M 286.848, 40.423 
	L 286.847, 40.424 
" />
<path d="M 286.848, 40.423 
	L 286.847, 40.424 
	L 260.896, 28.870 
" />
<path d="M 260.897, 28.869 
	L 260.896, 28.870 
" />
<path d="M 260.897, 28.869 
	L 260.896, 28.870 
" />
<path d="M 260.897, 28.869 
	L 260.896, 28.870 
	L 233.109, 22.964 
" />
<path d="M 233.110, 22.963 
	L 233.109, 22.964 
" />
<path d="M 233.110, 22.963 
	L 233.109, 22.964 
" />
<path d="M 233.110, 22.963 
	L 233.109, 22.964 
" />
<path d="M 233.110, 22.963 
	L 233.109, 22.964 
	L 204.702, 22.964 
" />
<path d="M 204.703, 22.963 
	L 204.702, 22.964 
" />
<path d="M 204.703, 22.963 
	L 204.702, 22.964 
" />
<path d="M 204.703, 22.963 
	L 204.702, 22.964 
" />
<path d="M 204.703, 22.963 
	L 204.702, 22.964 
" />
<path d="M 204.703, 22.963 
	L 204.702, 22.964 
" />
<path d="M 204.703, 22.963 
	L 204.702, 22.964 
" />
<path d="M 204.703, 22.963 
	L 204.702, 22.964 
" />
<path d="M 204.703, 22.963 
	L 204.702, 22.964 
" />
<path d="M 204.703, 22.963 
	L 204.702, 22.964 
	L 176.915, 28.870 
" />
<path d="M 176.916, 28.869 
	L 176.915, 28.870 
" />
<path d="M 176.916, 28.869 
	L 176.915, 28.870 
	L 150.964, 40.424 
" />
<path d="M 150.965, 40.423 
	L 150.964, 40.424 
" />
<path d="M 150.965, 40.423 
	L 150.964, 40.424 
	L 127.982, 57.122 
" />
<path d="M 127.983, 57.121 
	L 127.982, 57.122 
" />
<path d="M 127.983, 57.121 
	L 127.982, 57.122 
	L 108.974, 78.233 
" />
<path d="M 108.975, 78.232 
	L 108.974, 78.233 
" />
<path d="M 108.975, 78.232 
	L 108.974, 78.233 
" />
<path d="M 108.975, 78.232 
	L 108.974, 78.233 
	L 94.771, 102.834 
" />
<path d="M 94.771, 102.833 
	L 94.771, 102.834 
	L 85.992, 129.851 
" />
<path d="M 85.993, 129.850 
	L 85.992, 129.851 
" />
<path d="M 85.993, 129.850 
	L 85.992, 129.851 
" />
<path d="M 85.993, 129.850 
	L 85.992, 129.851 
	L 83.023, 158.102 
" />
<path d="M 83.023, 158.102 
	L 83.023, 158.102 
	L 85.992, 186.354 
" />
<path d="M 85.993, 186.353 
	L 85.992, 186.354 
	L 94.771, 213.371 
" />
<path d="M 94.771, 213.370 
	L 94.771, 213.371 
" />
<path d="M 94.771, 213.370 
	L 94.771, 213.371 
" />
<path d="M 94.771, 213.370 
	L 94.771, 213.371 
	L 108.974, 237.972 
" />
<path d="M 108.975, 237.971 
	L 108.974, 237.972 
" />
<path d="M 108.975, 237.971 
	L 108.974, 237.972 
	L 127.982, 259.083 
" />
<path d="M 127.983, 259.082 
	L 127.982, 259.083 
" />
<path d="M 127.983, 259.082 
	L 127.982, 259.083 
" />
<path d="M 127.983, 259.082 
	L 127.982, 259.083 
" />
<path d="M 127.983, 259.082 
	L 127.982, 259.083 
	L 150.964, 275.781 
" />
<path d="M 150.965, 275.780 
	L 150.964, 275.781 
	L 176.915, 287.335 
" />
<path d="M 176.916, 287.334 
	L 176.915, 287.335 
" />
<path d="M 176.916, 287.334 
	L 176.915, 287.335 
" />
<path d="M 176.916, 287.334 
	L 176.915, 287.335 
	L 204.702, 293.241 
" />
<path d="M 204.703, 293.240 
	L 204.702, 293.241 
	L 233.109, 293.241 
" />
<path d="M 233.110, 293.240 
	L 233.109, 293.241 
	L 260.896, 287.335 
" />
<path d="M 260.897, 287.334 
	L 260.896, 287.335 
" />
<path d="M 260.897, 287.334 
	L 260.896, 287.335 
" />
<path d="M 260.897, 287.334 
	L 260.896, 287.335 
	L 286.847, 275.781 
" />
<path d="M 286.848, 275.780 
	L 286.847, 275.781 
" />
<path d="M 286.848, 275.780 
	L 286.847, 275.781 
" />
<path d="M 286.848, 275.780 
	L 286.847, 275.781 
" />
<path d="M 286.848, 275.780 
	L 286.847, 275.781 
	L 309.829, 259.083 
" />
<path d="M 309.830, 259.082 
	L 309.829, 259.083 
	L 328.837, 237.972 
" />
<path d="M 328.837, 237.971 
	L 328.837, 237.972 
" />
<path d="M 328.837, 237.971 
	L 328.837, 237.972 
	L 343.040, 213.371 
" />
<path d="M 343.041, 213.370 
	L 343.040, 213.371 
" />
<path d="M 343.041, 213.370 
	L 343.040, 213.371 
" />
<path d="M 343.041, 213.370 
	L 343.040, 213.371 
" />
<path d="M 343.041, 213.370 
	L 343.040, 213.371 
" />
<path d="M 343.041, 213.370 
	L 343.040, 213.371 
	L 351.819, 186.354 
" />
<path d="M 351.820, 186.353 
	L 351.819, 186.354 
	L 354.789, 158.102 
" />
<path d="M 351.499, 158.739 
	L 351.498, 158.740 
	L 348.550, 130.686 
	L 339.833, 103.859 
	L 325.729, 79.430 
	L 306.854, 58.467 
" />
<path d="M 258.264, 30.412 
	L 258.263, 30.413 
	L 230.671, 24.548 
	L 202.462, 24.548 
	L 174.871, 30.413 
	L 149.101, 41.886 
	L 126.280, 58.467 
	L 107.405, 79.430 
	L 93.301, 103.859 
	L 84.584, 130.686 
	L 81.636, 158.740 
	L 84.584, 186.794 
" />
<path d="M 84.584, 186.794 
	L 93.301, 213.622 
	L 107.405, 238.051 
	L 126.280, 259.014 
	L 149.101, 275.594 
	L 174.871, 287.067 
" />
<path d="M 339.834, 213.621 
	L 339.833, 213.622 
" />
<path d="M 339.834, 213.621 
	L 339.833, 213.622 
	L 348.550, 186.794 
	L 351.498, 158.740 
	L 348.550, 130.686 
	L 339.833, 103.859 
	L 325.729, 79.430 
	L 306.854, 58.467 
	L 284.033, 41.886 
	L 258.263, 30.413 
	L 230.671, 24.548 
" />
<path d="M 230.671, 24.548 
	L 202.462, 24.548 
	L 174.871, 30.413 
	L 149.101, 41.886 
" />
<path d="M 357.216, 163.275 
	L 357.216, 163.276 
	L 354.288, 135.418 
" />
<path d="M 354.288, 135.417 
	L 354.288, 135.418 
" />
<path d="M 354.288, 135.417 
	L 354.288, 135.418 
	L 345.632, 108.778 
	L 331.626, 84.520 
	L 312.883, 63.704 
" />
<path d="M 290.222, 47.239 
	L 290.222, 47.239 
	L 264.633, 35.846 
	L 237.234, 30.022 
	L 209.223, 30.022 
	L 181.824, 35.846 
	L 156.235, 47.239 
" />
<path d="M 114.832, 84.519 
	L 114.831, 84.520 
	L 100.825, 108.778 
" />
<path d="M 100.826, 108.777 
	L 100.825, 108.778 
	L 92.169, 135.418 
	L 89.241, 163.276 
	L 92.169, 191.133 
	L 100.825, 217.773 
	L 114.831, 242.031 
" />
<path d="M 156.236, 279.311 
	L 156.235, 279.312 
	L 181.824, 290.705 
	L 209.223, 296.529 
	L 237.234, 296.529 
	L 264.633, 290.705 
" />
<path d="M 312.884, 262.847 
	L 312.883, 262.848 
" />
<path d="M 312.884, 262.847 
	L 312.883, 262.848 
	L 331.626, 242.031 
	L 345.632, 217.773 
	L 354.288, 191.133 
" />
<path d="M 352.593, 162.354 
	L 352.592, 162.354 
	L 349.685, 134.692 
" />
<path d="M 349.685, 134.691 
	L 349.685, 134.692 
" />
<path d="M 349.685, 134.691 
	L 349.685, 134.692 
" />
<path d="M 349.685, 134.691 
	L 349.685, 134.692 
" />
<path d="M 349.685, 134.691 
	L 349.685, 134.692 
" />
<path d="M 349.685, 134.691 
	L 349.685, 134.692 
" />
<path d="M 349.685, 134.691 
	L 349.685, 134.692 
	L 341.090, 108.238 
" />
<path d="M 341.091, 108.237 
	L 341.090, 108.238 
" />
<path d="M 341.091, 108.237 
	L 341.090, 108.238 
" />
<path d="M 341.091, 108.237 
	L 341.090, 108.238 
" />
<path d="M 341.091, 108.237 
	L 341.090, 108.238 
	L 327.183, 84.150 
" />
<path d="M 327.183, 84.149 
	L 327.183, 84.150 
	L 308.570, 63.480 
" />
<path d="M 308.571, 63.479 
	L 308.570, 63.480 
" />
<path d="M 308.571, 63.479 
	L 308.570, 63.480 
	L 286.068, 47.130 
" />
<path d="M 286.069, 47.130 
	L 286.068, 47.130 
	L 260.658, 35.817 
" />
<path d="M 260.658, 35.816 
	L 260.658, 35.817 
" />
<path d="M 260.658, 35.816 
	L 260.658, 35.817 
	L 233.451, 30.034 
" />
<path d="M 233.452, 30.033 
	L 233.451, 30.034 
	L 205.636, 30.034 
" />
<path d="M 205.637, 30.033 
	L 205.636, 30.034 
" />
<path d="M 205.637, 30.033 
	L 205.636, 30.034 
" />
<path d="M 205.637, 30.033 
	L 205.636, 30.034 
	L 178.429, 35.817 
" />
<path d="M 178.430, 35.816 
	L 178.429, 35.817 
	L 153.018, 47.130 
" />
<path d="M 153.019, 47.130 
	L 153.018, 47.130 
	L 130.516, 63.480 
" />
<path d="M 130.517, 63.479 
	L 130.516, 63.480 
" />
<path d="M 130.517, 63.479 
	L 130.516, 63.480 
	L 111.904, 84.150 
" />
<path d="M 111.905, 84.149 
	L 111.904, 84.150 
	L 97.997, 108.238 
" />
<path d="M 97.997, 108.237 
	L 97.997, 108.238 
" />
<path d="M 97.997, 108.237 
	L 97.997, 108.238 
" />
<path d="M 97.997, 108.237 
	L 97.997, 108.238 
" />
<path d="M 97.997, 108.237 
	L 97.997, 108.238 
	L 89.402, 134.692 
" />
<path d="M 89.403, 134.691 
	L 89.402, 134.692 
" />
<path d="M 89.403, 134.691 
	L 89.402, 134.692 
" />
<path d="M 89.403, 134.691 
	L 89.402, 134.692 
" />
<path d="M 89.403, 134.691 
	L 89.402, 134.692 
	L 86.494, 162.354 
" />
<path d="M 86.495, 162.354 
	L 86.494, 162.354 
" />
<path d="M 86.495, 162.354 
	L 86.494, 162.354 
	L 89.402, 190.017 
" />
<path d="M 89.403, 190.016 
	L 89.402, 190.017 
" />
<path d="M 89.403, 190.016 
	L 89.402, 190.017 
" />
<path d="M 89.403, 190.016 
	L 89.402, 190.017 
	L 97.997, 216.471 
" />
<path d="M 97.997, 216.470 
	L 97.997, 216.471 
	L 111.904, 240.559 
" />
<path d="M 111.905, 240.558 
	L 111.904, 240.559 
	L 130.516, 261.229 
" />
<path d="M 130.517, 261.228 
	L 130.516, 261.229 
" />
<path d="M 130.517, 261.228 
	L 130.516, 261.229 
" />
<path d="M 130.517, 261.228 
	L 130.516, 261.229 
" />
<path d="M 130.517, 261.228 
	L 130.516, 261.229 
" />
<path d="M 130.517, 261.228 
	L 130.516, 261.229 
" />
<path d="M 130.517, 261.228 
	L 130.516, 261.229 
" />
<path d="M 130.517, 261.228 
	L 130.516, 261.229 
" />
<path d="M 130.517, 261.228 
	L 130.516, 261.229 
" />
<path d="M 130.517, 261.228 
	L 130.516, 261.229 
	L 153.018, 277.578 
" />
<path d="M 153.019, 277.578 
	L 153.018, 277.578 
" />
<path d="M 153.019, 277.578 
	L 153.018, 277.578 
" />
<path d="M 153.019, 277.578 
	L 153.018, 277.578 
	L 178.429, 288.892 
" />
<path d="M 178.430, 288.891 
	L 178.429, 288.892 
" />
<path d="M 178.430, 288.891 
	L 178.429, 288.892 
	L 205.636, 294.675 
" />
<path d="M 205.637, 294.674 
	L 205.636, 294.675 
	L 233.451, 294.675 
" />
<path d="M 233.452, 294.674 
	L 233.451, 294.675 
	L 260.658, 288.892 
" />
<path d="M 260.658, 288.891 
	L 260.658, 288.892 
" />
<path d="M 260.658, 288.891 
	L 260.658, 288.892 
	L 286.068, 277.578 
" />
<path d="M 286.069, 277.578 
	L 286.068, 277.578 
	L 308.570, 261.229 
" />
<path d="M 308.571, 261.228 
	L 308.570, 261.229 
	L 327.183, 240.559 
" />
<path d="M 327.183, 240.558 
	L 327.183, 240.559 
	L 341.090, 216.471 
" />
<path d="M 341.091, 216.470 
	L 341.090, 216.471 
" />
<path d="M 341.091, 216.470 
	L 341.090, 216.471 
" />
<path d="M 341.091, 216.470 
	L 341.090, 216.471 
" />
<path d="M 341.091, 216.470 
	L 341.090, 216.471 
	L 349.685, 190.017 
" />
<path d="M 349.685, 190.016 
	L 349.685, 190.017 
" />
<path d="M 349.685, 190.016 
	L 349.685, 190.017 
" />
<path d="M 349.685, 190.016 
	L 349.685, 190.017 
	L 352.592, 162.354 
" />
<path d="M 354.355, 162.850 
	L 354.354, 162.850 
	L 351.467, 135.381 
	L 342.932, 109.113 
	L 329.122, 85.194 
	L 310.640, 64.667 
	L 288.295, 48.433 
	L 263.063, 37.199 
	L 236.047, 31.456 
	L 208.426, 31.456 
	L 181.410, 37.199 
" />
<path d="M 181.410, 37.199 
	L 156.178, 48.433 
	L 133.832, 64.667 
	L 115.351, 85.194 
	L 101.541, 109.113 
	L 93.005, 135.381 
	L 90.118, 162.850 
	L 93.005, 190.320 
	L 101.541, 216.588 
	L 115.351, 240.507 
	L 133.832, 261.033 
" />
<path d="M 133.832, 261.033 
" />
<path d="M 342.933, 216.587 
	L 342.932, 216.588 
	L 351.467, 190.320 
	L 354.354, 162.850 
	L 351.467, 135.381 
	L 342.932, 109.113 
	L 329.122, 85.194 
	L 310.640, 64.667 
	L 288.295, 48.433 
	L 263.063, 37.199 
	L 236.047, 31.456 
" />
<path d="M 236.047, 31.456 
	L 208.426, 31.456 
	L 181.410, 37.199 
	L 156.178, 48.433 
	L 133.832, 64.667 
	L 115.351, 85.194 
	L 101.541, 109.113 
	L 93.005, 135.381 
	L 90.118, 162.850 
" />
<path d="M 349.745, 160.157 
	L 349.744, 160.158 
	L 346.877, 132.881 
	L 338.402, 106.797 
	L 324.689, 83.045 
" />
<path d="M 306.337, 62.661 
	L 306.337, 62.662 
	L 284.148, 46.541 
	L 259.092, 35.386 
	L 232.265, 29.683 
	L 204.838, 29.683 
	L 178.010, 35.386 
	L 152.955, 46.541 
	L 130.766, 62.662 
	L 112.414, 83.045 
	L 98.700, 106.797 
	L 90.225, 132.881 
" />
<path d="M 90.225, 132.881 
" />
<path d="M 130.766, 257.652 
	L 130.766, 257.653 
	L 152.955, 273.774 
	L 178.010, 284.929 
	L 204.838, 290.632 
	L 232.265, 290.632 
	L 259.092, 284.929 
	L 284.148, 273.774 
	L 306.337, 257.653 
	L 324.689, 237.271 
	L 338.402, 213.518 
" />
<path d="M 338.402, 213.518 
	L 346.877, 187.434 
" />
<path d="M 351.732, 160.653 
	L 351.731, 160.654 
	L 348.885, 133.568 
" />
<path d="M 348.885, 133.567 
	L 348.885, 133.568 
	L 340.469, 107.666 
" />
<path d="M 340.469, 107.666 
	L 340.469, 107.666 
" />
<path d="M 340.469, 107.666 
	L 340.469, 107.666 
" />
<path d="M 340.469, 107.666 
	L 340.469, 107.666 
" />
<path d="M 340.469, 107.666 
	L 340.469, 107.666 
" />
<path d="M 340.469, 107.666 
	L 340.469, 107.666 
	L 326.851, 84.080 
" />
<path d="M 326.852, 84.079 
	L 326.851, 84.080 
" />
<path d="M 326.852, 84.079 
	L 326.851, 84.080 
" />
<path d="M 326.852, 84.079 
	L 326.851, 84.080 
	L 308.628, 63.840 
" />
<path d="M 308.628, 63.840 
	L 308.628, 63.840 
" />
<path d="M 308.628, 63.840 
	L 308.628, 63.840 
" />
<path d="M 308.628, 63.840 
	L 308.628, 63.840 
	L 286.594, 47.833 
" />
<path d="M 286.595, 47.832 
	L 286.594, 47.833 
	L 261.714, 36.755 
" />
<path d="M 261.714, 36.754 
	L 261.714, 36.755 
" />
<path d="M 261.714, 36.754 
	L 261.714, 36.755 
" />
<path d="M 261.714, 36.754 
	L 261.714, 36.755 
	L 235.074, 31.093 
" />
<path d="M 235.075, 31.092 
	L 235.074, 31.093 
	L 207.839, 31.093 
" />
<path d="M 207.840, 31.092 
	L 207.839, 31.093 
	L 181.200, 36.755 
" />
<path d="M 181.200, 36.754 
	L 181.200, 36.755 
" />
<path d="M 181.200, 36.754 
	L 181.200, 36.755 
	L 156.319, 47.833 
" />
<path d="M 156.320, 47.832 
	L 156.319, 47.833 
" />
<path d="M 156.320, 47.832 
	L 156.319, 47.833 
	L 134.286, 63.840 
" />
<path d="M 134.286, 63.840 
	L 134.286, 63.840 
	L 116.062, 84.080 
" />
<path d="M 116.063, 84.079 
	L 116.062, 84.080 
	L 102.445, 107.666 
" />
<path d="M 102.446, 107.666 
	L 102.445, 107.666 
" />
<path d="M 102.446, 107.666 
	L 102.445, 107.666 
" />
<path d="M 102.446, 107.666 
	L 102.445, 107.666 
" />
<path d="M 102.446, 107.666 
	L 102.445, 107.666 
" />
<path d="M 102.446, 107.666 
	L 102.445, 107.666 
" />
<path d="M 102.446, 107.666 
	L 102.445, 107.666 
	L 94.029, 133.568 
" />
<path d="M 94.029, 133.567 
	L 94.029, 133.568 
	L 91.182, 160.654 
" />
<path d="M 91.183, 160.653 
	L 91.182, 160.654 
	L 94.029, 187.739 
" />
<path d="M 94.029, 187.739 
	L 94.029, 187.739 
" />
<path d="M 94.029, 187.739 
	L 94.029, 187.739 
" />
<path d="M 94.029, 187.739 
	L 94.029, 187.739 
	L 102.445, 213.641 
" />
<path d="M 102.446, 213.640 
	L 102.445, 213.641 
	L 116.062, 237.227 
" />
<path d="M 116.063, 237.227 
	L 116.062, 237.227 
	L 134.286, 257.467 
" />
<path d="M 134.286, 257.466 
	L 134.286, 257.467 
	L 156.319, 273.475 
" />
<path d="M 156.320, 273.474 
	L 156.319, 273.475 
	L 181.200, 284.552 
" />
<path d="M 181.200, 284.552 
	L 181.200, 284.552 
" />
<path d="M 181.200, 284.552 
	L 181.200, 284.552 
" />
<path d="M 181.200, 284.552 
	L 181.200, 284.552 
	L 207.839, 290.215 
" />
<path d="M 207.840, 290.214 
	L 207.839, 290.215 
" />
<path d="M 207.840, 290.214 
	L 207.839, 290.215 
	L 235.074, 290.215 
" />
<path d="M 235.075, 290.214 
	L 235.074, 290.215 
" />
<path d="M 235.075, 290.214 
	L 235.074, 290.215 
	L 261.714, 284.552 
" />
<path d="M 261.714, 284.552 
	L 261.714, 284.552 
" />
<path d="M 261.714, 284.552 
	L 261.714, 284.552 
" />
<path d="M 261.714, 284.552 
	L 261.714, 284.552 
	L 286.594, 273.475 
" />
<path d="M 286.595, 273.474 
	L 286.594, 273.475 
" />
<path d="M 286.595, 273.474 
	L 286.594, 273.475 
	L 308.628, 257.467 
" />
<path d="M 308.628, 257.466 
	L 308.628, 257.467 
" />
<path d="M 308.628, 257.466 
	L 308.628, 257.467 
" />
<path d="M 308.628, 257.466 
	L 308.628, 257.467 
	L 326.851, 237.227 
" />
<path d="M 326.852, 237.227 
	L 326.851, 237.227 
	L 340.469, 213.641 
" />
<path d="M 340.469, 213.640 
	L 340.469, 213.641 
	L 348.885, 187.739 
" />
<path d="M 348.885, 187.739 
	L 348.885, 187.739 
" />
<path d="M 348.885, 187.739 
	L 348.885, 187.739 
	L 351.731, 160.654 
" />
<path d="M 346.497, 158.598 
	L 346.497, 158.598 
" />
<path d="M 346.497, 158.598 
	L 346.497, 158.598 
	L 343.670, 131.703 
" />
<path d="M 343.670, 131.702 
	L 343.670, 131.703 
	L 335.312, 105.982 
	L 321.790, 82.561 
" />
<path d="M 303.695, 62.463 
	L 303.695, 62.464 
" />
<path d="M 303.695, 62.463 
	L 303.695, 62.464 
	L 281.816, 46.567 
	L 257.109, 35.567 
" />
<path d="M 230.657, 29.944 
	L 230.656, 29.944 
	L 203.612, 29.944 
" />
<path d="M 203.613, 29.944 
	L 203.612, 29.944 
	L 177.158, 35.567 
	L 152.452, 46.567 
" />
<path d="M 130.574, 62.463 
	L 130.573, 62.464 
" />
<path d="M 130.574, 62.463 
	L 130.573, 62.464 
	L 112.477, 82.561 
" />
<path d="M 112.478, 82.560 
	L 112.477, 82.561 
" />
<path d="M 112.478, 82.560 
	L 112.477, 82.561 
	L 98.955, 105.982 
" />
<path d="M 98.956, 105.981 
	L 98.955, 105.982 
	L 90.598, 131.703 
	L 87.771, 158.598 
" />
<path d="M 90.599, 185.494 
	L 90.598, 185.494 
	L 98.955, 211.215 
" />
<path d="M 98.956, 211.214 
	L 98.955, 211.215 
	L 112.477, 234.636 
	L 130.573, 254.733 
" />
<path d="M 152.453, 270.629 
	L 152.452, 270.630 
	L 177.158, 281.630 
" />
<path d="M 177.159, 281.629 
	L 177.158, 281.630 
" />
<path d="M 177.159, 281.629 
	L 177.158, 281.630 
" />
<path d="M 177.159, 281.629 
	L 177.158, 281.630 
" />
<path d="M 177.159, 281.629 
	L 177.158, 281.630 
" />
<path d="M 177.159, 281.629 
	L 177.158, 281.630 
	L 203.612, 287.252 
" />
<path d="M 203.613, 287.252 
	L 203.612, 287.252 
	L 230.656, 287.252 
	L 257.109, 281.630 
" />
<path d="M 281.816, 270.629 
	L 281.816, 270.630 
	L 303.695, 254.733 
	L 321.790, 234.636 
" />
<path d="M 335.313, 211.214 
	L 335.312, 211.215 
	L 343.670, 185.494 
	L 346.497, 158.598 
" />
<path d="M 348.497, 161.007 
	L 348.496, 161.008 
	L 345.689, 134.300 
" />
<path d="M 345.690, 134.299 
	L 345.689, 134.300 
	L 337.391, 108.760 
" />
<path d="M 337.392, 108.759 
	L 337.391, 108.760 
" />
<path d="M 337.392, 108.759 
	L 337.391, 108.760 
" />
<path d="M 337.392, 108.759 
	L 337.391, 108.760 
	L 323.963, 85.503 
" />
<path d="M 323.964, 85.502 
	L 323.963, 85.503 
" />
<path d="M 323.964, 85.502 
	L 323.963, 85.503 
	L 305.994, 65.546 
" />
<path d="M 305.995, 65.545 
	L 305.994, 65.546 
" />
<path d="M 305.995, 65.545 
	L 305.994, 65.546 
" />
<path d="M 305.995, 65.545 
	L 305.994, 65.546 
	L 284.268, 49.761 
" />
<path d="M 284.269, 49.760 
	L 284.268, 49.761 
	L 259.735, 38.838 
" />
<path d="M 259.736, 38.837 
	L 259.735, 38.838 
	L 233.467, 33.255 
" />
<path d="M 233.468, 33.254 
	L 233.467, 33.255 
" />
<path d="M 233.468, 33.254 
	L 233.467, 33.255 
" />
<path d="M 233.468, 33.254 
	L 233.467, 33.255 
" />
<path d="M 233.468, 33.254 
	L 233.467, 33.255 
	L 206.612, 33.255 
" />
<path d="M 206.612, 33.254 
	L 206.612, 33.255 
	L 180.344, 38.838 
" />
<path d="M 180.344, 38.837 
	L 180.344, 38.838 
" />
<path d="M 180.344, 38.837 
	L 180.344, 38.838 
	L 155.811, 49.761 
" />
<path d="M 155.811, 49.760 
	L 155.811, 49.761 
	L 134.084, 65.546 
" />
<path d="M 134.085, 65.545 
	L 134.084, 65.546 
" />
<path d="M 134.085, 65.545 
	L 134.084, 65.546 
" />
<path d="M 134.085, 65.545 
	L 134.084, 65.546 
	L 116.116, 85.503 
" />
<path d="M 116.116, 85.502 
	L 116.116, 85.503 
" />
<path d="M 116.116, 85.502 
	L 116.116, 85.503 
" />
<path d="M 116.116, 85.502 
	L 116.116, 85.503 
" />
<path d="M 116.116, 85.502 
	L 116.116, 85.503 
" />
<path d="M 116.116, 85.502 
	L 116.116, 85.503 
" />
<path d="M 116.116, 85.502 
	L 116.116, 85.503 
	L 102.688, 108.760 
" />
<path d="M 102.689, 108.759 
	L 102.688, 108.760 
" />
<path d="M 102.689, 108.759 
	L 102.688, 108.760 
" />
<path d="M 102.689, 108.759 
	L 102.688, 108.760 
	L 94.389, 134.300 
" />
<path d="M 94.390, 134.299 
	L 94.389, 134.300 
	L 91.582, 161.008 
" />
<path d="M 91.583, 161.007 
	L 91.582, 161.008 
" />
<path d="M 91.583, 161.007 
	L 91.582, 161.008 
" />
<path d="M 91.583, 161.007 
	L 91.582, 161.008 
	L 94.389, 187.716 
" />
<path d="M 94.390, 187.715 
	L 94.389, 187.716 
" />
<path d="M 94.390, 187.715 
	L 94.389, 187.716 
" />
<path d="M 94.390, 187.715 
	L 94.389, 187.716 
" />
<path d="M 94.390, 187.715 
	L 94.389, 187.716 
	L 102.688, 213.256 
" />
<path d="M 102.689, 213.255 
	L 102.688, 213.256 
	L 116.116, 236.513 
" />
<path d="M 116.116, 236.512 
	L 116.116, 236.513 
" />
<path d="M 116.116, 236.512 
	L 116.116, 236.513 
	L 134.084, 256.470 
" />
<path d="M 134.085, 256.470 
	L 134.084, 256.470 
" />
<path d="M 134.085, 256.470 
	L 134.084, 256.470 
	L 155.811, 272.255 
" />
<path d="M 155.811, 272.254 
	L 155.811, 272.255 
	L 180.344, 283.178 
" />
<path d="M 180.344, 283.177 
	L 180.344, 283.178 
	L 206.612, 288.761 
" />
<path d="M 206.612, 288.760 
	L 206.612, 288.761 
	L 233.467, 288.761 
" />
<path d="M 233.468, 288.760 
	L 233.467, 288.761 
" />
<path d="M 233.468, 288.760 
	L 233.467, 288.761 
" />
<path d="M 233.468, 288.760 
	L 233.467, 288.761 
" />
<path d="M 233.468, 288.760 
	L 233.467, 288.761 
" />
<path d="M 233.468, 288.760 
	L 233.467, 288.761 
" />
<path d="M 233.468, 288.760 
	L 233.467, 288.761 
" />
<path d="M 233.468, 288.760 
	L 233.467, 288.761 
	L 259.735, 283.178 
" />
<path d="M 259.736, 283.177 
	L 259.735, 283.178 
	L 284.268, 272.255 
" />
<path d="M 284.269, 272.254 
	L 284.268, 272.255 
	L 305.994, 256.470 
" />
<path d="M 305.995, 256.470 
	L 305.994, 256.470 
" />
<path d="M 305.995, 256.470 
	L 305.994, 256.470 
	L 323.963, 236.513 
" />
<path d="M 323.964, 236.512 
	L 323.963, 236.513 
	L 337.391, 213.256 
" />
<path d="M 337.392, 213.255 
	L 337.391, 213.256 
	L 345.689, 187.716 
" />
<path d="M 345.690, 187.715 
	L 345.689, 187.716 
	L 348.496, 161.008 
" />
<path d="M 346.960, 159.236 
	L 346.959, 159.236 
	L 344.172, 132.715 
" />
<path d="M 344.173, 132.715 
	L 344.172, 132.715 
	L 335.932, 107.354 
" />
<path d="M 335.932, 107.353 
	L 335.932, 107.354 
	L 322.598, 84.260 
" />
<path d="M 322.599, 84.259 
	L 322.598, 84.260 
	L 304.754, 64.442 
	L 283.180, 48.768 
	L 258.819, 37.921 
	L 232.735, 32.377 
" />
<path d="M 179.984, 37.920 
	L 179.984, 37.921 
	L 155.623, 48.768 
	L 134.049, 64.442 
	L 116.205, 84.260 
	L 102.871, 107.354 
	L 94.631, 132.715 
" />
<path d="M 94.632, 185.756 
	L 94.631, 185.757 
	L 102.871, 211.119 
" />
<path d="M 102.872, 211.118 
	L 102.871, 211.119 
	L 116.205, 234.213 
	L 134.049, 254.030 
	L 155.623, 269.705 
" />
<path d="M 179.984, 280.551 
	L 179.984, 280.551 
	L 206.068, 286.095 
	L 232.735, 286.095 
	L 258.819, 280.551 
	L 283.180, 269.705 
	L 304.754, 254.030 
	L 322.598, 234.213 
" />
<path d="M 349.894, 160.440 
	L 349.893, 160.441 
" />
<path d="M 349.894, 160.440 
	L 349.893, 160.441 
" />
<path d="M 349.894, 160.440 
	L 349.893, 160.441 
	L 347.126, 134.106 
	L 338.943, 108.922 
" />
<path d="M 325.703, 85.988 
	L 325.702, 85.989 
" />
<path d="M 325.703, 85.988 
	L 325.702, 85.989 
	L 307.984, 66.310 
" />
<path d="M 307.984, 66.309 
	L 307.984, 66.310 
	L 286.561, 50.746 
" />
<path d="M 286.561, 50.745 
	L 286.561, 50.746 
	L 262.370, 39.976 
" />
<path d="M 262.371, 39.975 
	L 262.370, 39.976 
	L 236.468, 34.470 
	L 209.988, 34.470 
" />
<path d="M 184.088, 39.975 
	L 184.087, 39.976 
	L 159.896, 50.746 
	L 138.473, 66.310 
" />
<path d="M 120.755, 85.988 
	L 120.755, 85.989 
" />
<path d="M 120.755, 85.988 
	L 120.755, 85.989 
	L 107.514, 108.922 
" />
<path d="M 107.515, 108.921 
	L 107.514, 108.922 
	L 99.331, 134.106 
	L 96.564, 160.441 
" />
<path d="M 99.332, 186.776 
	L 99.331, 186.776 
	L 107.514, 211.960 
" />
<path d="M 107.515, 211.959 
	L 107.514, 211.960 
	L 120.755, 234.893 
	L 138.473, 254.572 
" />
<path d="M 159.897, 270.135 
	L 159.896, 270.136 
" />
<path d="M 159.897, 270.135 
	L 159.896, 270.136 
" />
<path d="M 159.897, 270.135 
	L 159.896, 270.136 
	L 184.087, 280.906 
" />
<path d="M 184.088, 280.906 
	L 184.087, 280.906 
" />
<path d="M 184.088, 280.906 
	L 184.087, 280.906 
	L 209.988, 286.412 
	L 236.468, 286.412 
" />
<path d="M 262.371, 280.906 
	L 262.370, 280.906 
	L 286.561, 270.136 
	L 307.984, 254.572 
" />
<path d="M 325.703, 234.892 
	L 325.702, 234.893 
" />
<path d="M 325.703, 234.892 
	L 325.702, 234.893 
" />
<path d="M 325.703, 234.892 
	L 325.702, 234.893 
" />
<path d="M 325.703, 234.892 
	L 325.702, 234.893 
	L 338.943, 211.960 
" />
<path d="M 338.944, 211.959 
	L 338.943, 211.960 
	L 347.126, 186.776 
" />
<path d="M 347.126, 186.776 
	L 347.126, 186.776 
	L 349.893, 160.441 
	L 347.126, 134.106 
" />
<path d="M 344.543, 157.535 
	L 344.542, 157.535 
" />
<path d="M 344.543, 157.535 
	L 344.542, 157.535 
	L 341.794, 131.384 
" />
<path d="M 341.795, 131.384 
	L 341.794, 131.384 
" />
<path d="M 341.795, 131.384 
	L 341.794, 131.384 
	L 333.668, 106.376 
" />
<path d="M 333.669, 106.376 
	L 333.668, 106.376 
	L 320.521, 83.605 
" />
<path d="M 320.521, 83.604 
	L 320.521, 83.605 
	L 302.926, 64.064 
" />
<path d="M 302.927, 64.063 
	L 302.926, 64.064 
" />
<path d="M 302.927, 64.063 
	L 302.926, 64.064 
	L 281.653, 48.609 
" />
<path d="M 281.654, 48.608 
	L 281.653, 48.609 
" />
<path d="M 281.654, 48.608 
	L 281.653, 48.609 
	L 257.632, 37.913 
" />
<path d="M 257.632, 37.913 
	L 257.632, 37.913 
	L 231.911, 32.446 
" />
<path d="M 231.912, 32.445 
	L 231.911, 32.446 
" />
<path d="M 231.912, 32.445 
	L 231.911, 32.446 
	L 205.617, 32.446 
" />
<path d="M 205.617, 32.445 
	L 205.617, 32.446 
" />
<path d="M 205.617, 32.445 
	L 205.617, 32.446 
	L 179.896, 37.913 
" />
<path d="M 179.897, 37.913 
	L 179.896, 37.913 
" />
<path d="M 179.897, 37.913 
	L 179.896, 37.913 
" />
<path d="M 179.897, 37.913 
	L 179.896, 37.913 
	L 155.874, 48.609 
" />
<path d="M 155.875, 48.608 
	L 155.874, 48.609 
" />
<path d="M 155.875, 48.608 
	L 155.874, 48.609 
" />
<path d="M 155.875, 48.608 
	L 155.874, 48.609 
	L 134.602, 64.064 
" />
<path d="M 134.602, 64.063 
	L 134.602, 64.064 
	L 117.007, 83.605 
" />
<path d="M 117.008, 83.604 
	L 117.007, 83.605 
" />
<path d="M 117.008, 83.604 
	L 117.007, 83.605 
" />
<path d="M 117.008, 83.604 
	L 117.007, 83.605 
" />
<path d="M 117.008, 83.604 
	L 117.007, 83.605 
" />
<path d="M 117.008, 83.604 
	L 117.007, 83.605 
	L 103.859, 106.376 
" />
<path d="M 103.860, 106.376 
	L 103.859, 106.376 
	L 95.734, 131.384 
" />
<path d="M 95.735, 131.384 
	L 95.734, 131.384 
" />
<path d="M 95.735, 131.384 
	L 95.734, 131.384 
	L 92.986, 157.535 
" />
<path d="M 92.986, 157.535 
	L 92.986, 157.535 
	L 95.734, 183.686 
" />
<path d="M 95.735, 183.686 
	L 95.734, 183.686 
" />
<path d="M 95.735, 183.686 
	L 95.734, 183.686 
" />
<path d="M 95.735, 183.686 
	L 95.734, 183.686 
" />
<path d="M 95.735, 183.686 
	L 95.734, 183.686 
" />
<path d="M 95.735, 183.686 
	L 95.734, 183.686 
	L 103.859, 208.694 
" />
<path d="M 103.860, 208.694 
	L 103.859, 208.694 
	L 117.007, 231.466 
" />
<path d="M 117.008, 231.465 
	L 117.007, 231.466 
	L 134.602, 251.007 
" />
<path d="M 134.602, 251.006 
	L 134.602, 251.007 
	L 155.874, 266.462 
" />
<path d="M 155.875, 266.462 
	L 155.874, 266.462 
	L 179.896, 277.158 
" />
<path d="M 179.897, 277.157 
	L 179.896, 277.158 
	L 205.617, 282.625 
" />
<path d="M 205.617, 282.624 
	L 205.617, 282.625 
" />
<path d="M 205.617, 282.624 
	L 205.617, 282.625 
" />
<path d="M 205.617, 282.624 
	L 205.617, 282.625 
	L 231.911, 282.625 
" />
<path d="M 231.912, 282.624 
	L 231.911, 282.625 
" />
<path d="M 231.912, 282.624 
	L 231.911, 282.625 
	L 257.632, 277.158 
" />
<path d="M 257.632, 277.157 
	L 257.632, 277.158 
" />
<path d="M 257.632, 277.157 
	L 257.632, 277.158 
	L 281.653, 266.462 
" />
<path d="M 281.654, 266.462 
	L 281.653, 266.462 
	L 302.926, 251.007 
" />
<path d="M 302.927, 251.006 
	L 302.926, 251.007 
	L 320.521, 231.466 
" />
<path d="M 320.521, 231.465 
	L 320.521, 231.466 
	L 333.668, 208.694 
" />
<path d="M 333.669, 208.694 
	L 333.668, 208.694 
	L 341.794, 183.686 
" />
<path d="M 341.795, 183.686 
	L 341.794, 183.686 
	L 344.542, 157.535 
" />
<path d="M 348.056, 160.582 
	L 348.056, 160.583 
	L 345.326, 134.615 
" />
<path d="M 345.327, 134.615 
	L 345.326, 134.615 
	L 337.258, 109.782 
	L 324.202, 87.170 
	L 306.731, 67.766 
" />
<path d="M 285.607, 52.417 
	L 285.606, 52.418 
	L 261.753, 41.798 
	L 236.213, 36.369 
	L 210.102, 36.369 
	L 184.562, 41.798 
" />
<path d="M 139.585, 67.765 
	L 139.584, 67.766 
	L 122.113, 87.170 
	L 109.057, 109.782 
" />
<path d="M 100.990, 134.615 
	L 100.989, 134.615 
	L 98.259, 160.583 
	L 100.989, 186.550 
	L 109.057, 211.383 
" />
<path d="M 122.114, 233.995 
	L 122.113, 233.996 
	L 139.584, 253.400 
	L 160.709, 268.748 
	L 184.562, 279.368 
" />
<path d="M 210.103, 284.795 
	L 210.102, 284.796 
	L 236.213, 284.796 
	L 261.753, 279.368 
	L 285.606, 268.748 
	L 306.731, 253.400 
" />
<path d="M 337.258, 211.382 
	L 337.258, 211.383 
	L 345.326, 186.550 
" />
<path d="M 345.327, 186.549 
	L 345.326, 186.550 
	L 348.056, 160.583 
	L 345.326, 134.615 
" />
<path d="M 347.182, 160.369 
	L 347.181, 160.370 
	L 344.471, 134.584 
" />
<path d="M 344.472, 134.583 
	L 344.471, 134.584 
	L 336.459, 109.925 
" />
<path d="M 336.460, 109.925 
	L 336.459, 109.925 
	L 323.495, 87.471 
" />
<path d="M 323.495, 87.470 
	L 323.495, 87.471 
	L 306.145, 68.202 
" />
<path d="M 306.146, 68.202 
	L 306.145, 68.202 
" />
<path d="M 306.146, 68.202 
	L 306.145, 68.202 
	L 285.170, 52.963 
" />
<path d="M 285.170, 52.962 
	L 285.170, 52.963 
" />
<path d="M 285.170, 52.962 
	L 285.170, 52.963 
" />
<path d="M 285.170, 52.962 
	L 285.170, 52.963 
" />
<path d="M 285.170, 52.962 
	L 285.170, 52.963 
" />
<path d="M 285.170, 52.962 
	L 285.170, 52.963 
" />
<path d="M 285.170, 52.962 
	L 285.170, 52.963 
	L 261.483, 42.417 
" />
<path d="M 261.483, 42.416 
	L 261.483, 42.417 
	L 236.122, 37.026 
" />
<path d="M 236.122, 37.025 
	L 236.122, 37.026 
" />
<path d="M 236.122, 37.025 
	L 236.122, 37.026 
	L 210.193, 37.026 
" />
<path d="M 210.194, 37.025 
	L 210.193, 37.026 
	L 184.832, 42.417 
" />
<path d="M 184.833, 42.416 
	L 184.832, 42.417 
" />
<path d="M 184.833, 42.416 
	L 184.832, 42.417 
" />
<path d="M 184.833, 42.416 
	L 184.832, 42.417 
" />
<path d="M 184.833, 42.416 
	L 184.832, 42.417 
" />
<path d="M 184.833, 42.416 
	L 184.832, 42.417 
	L 161.145, 52.963 
" />
<path d="M 161.146, 52.962 
	L 161.145, 52.963 
	L 140.170, 68.202 
" />
<path d="M 140.170, 68.202 
	L 140.170, 68.202 
	L 122.820, 87.471 
" />
<path d="M 122.821, 87.470 
	L 122.820, 87.471 
" />
<path d="M 122.821, 87.470 
	L 122.820, 87.471 
" />
<path d="M 122.821, 87.470 
	L 122.820, 87.471 
	L 109.856, 109.925 
" />
<path d="M 109.857, 109.925 
	L 109.856, 109.925 
" />
<path d="M 109.857, 109.925 
	L 109.856, 109.925 
" />
<path d="M 109.857, 109.925 
	L 109.856, 109.925 
	L 101.844, 134.584 
" />
<path d="M 101.845, 134.583 
	L 101.844, 134.584 
	L 99.134, 160.370 
" />
<path d="M 99.135, 160.369 
	L 99.134, 160.370 
" />
<path d="M 99.135, 160.369 
	L 99.134, 160.370 
	L 101.844, 186.156 
" />
<path d="M 101.845, 186.155 
	L 101.844, 186.156 
" />
<path d="M 101.845, 186.155 
	L 101.844, 186.156 
	L 109.856, 210.815 
" />
<path d="M 109.857, 210.814 
	L 109.856, 210.815 
	L 122.820, 233.269 
" />
<path d="M 122.821, 233.269 
	L 122.820, 233.269 
	L 140.170, 252.538 
" />
<path d="M 140.170, 252.537 
	L 140.170, 252.538 
" />
<path d="M 140.170, 252.537 
	L 140.170, 252.538 
	L 161.145, 267.778 
" />
<path d="M 161.146, 267.777 
	L 161.145, 267.778 
	L 184.832, 278.323 
" />
<path d="M 184.833, 278.323 
	L 184.832, 278.323 
	L 210.193, 283.714 
" />
<path d="M 210.194, 283.713 
	L 210.193, 283.714 
" />
<path d="M 210.194, 283.713 
	L 210.193, 283.714 
" />
<path d="M 210.194, 283.713 
	L 210.193, 283.714 
" />
<path d="M 210.194, 283.713 
	L 210.193, 283.714 
	L 236.122, 283.714 
" />
<path d="M 236.122, 283.713 
	L 236.122, 283.714 
	L 261.483, 278.323 
" />
<path d="M 261.483, 278.323 
	L 261.483, 278.323 
" />
<path d="M 261.483, 278.323 
	L 261.483, 278.323 
	L 285.170, 267.778 
" />
<path d="M 285.170, 267.777 
	L 285.170, 267.778 
" />
<path d="M 285.170, 267.777 
	L 285.170, 267.778 
	L 306.145, 252.538 
" />
<path d="M 306.146, 252.537 
	L 306.145, 252.538 
" />
<path d="M 306.146, 252.537 
	L 306.145, 252.538 
" />
<path d="M 306.146, 252.537 
	L 306.145, 252.538 
" />
<path d="M 306.146, 252.537 
	L 306.145, 252.538 
	L 323.495, 233.269 
" />
<path d="M 323.495, 233.269 
	L 323.495, 233.269 
" />
<path d="M 323.495, 233.269 
	L 323.495, 233.269 
	L 336.459, 210.815 
" />
<path d="M 336.460, 210.814 
	L 336.459, 210.815 
" />
<path d="M 336.460, 210.814 
	L 336.459, 210.815 
	L 344.471, 186.156 
" />
<path d="M 344.472, 186.155 
	L 344.471, 186.156 
" />
<path d="M 344.472, 186.155 
	L 344.471, 186.156 
	L 347.181, 160.370 
" />
<path d="M 480.544, 159.873 
	L 480.543, 159.874 
	L 468.367, 110.475 
" />
<path d="M 468.368, 110.474 
	L 468.367, 110.475 
	L 434.629, 72.391 
" />
<path d="M 434.630, 72.390 
	L 434.629, 72.391 
	L 387.057, 54.350 
" />
<path d="M 387.058, 54.349 
	L 387.057, 54.350 
	L 336.550, 60.483 
" />
<path d="M 336.550, 60.482 
	L 336.550, 60.483 
" />
<path d="M 336.550, 60.482 
	L 336.550, 60.483 
" />
<path d="M 336.550, 60.482 
	L 336.550, 60.483 
" />
<path d="M 336.550, 60.482 
	L 336.550, 60.483 
" />
<path d="M 336.550, 60.482 
	L 336.550, 60.483 
" />
<path d="M 336.550, 60.482 
	L 336.550, 60.483 
	L 294.678, 89.385 
" />
<path d="M 294.678, 89.384 
	L 294.678, 89.385 
" />
<path d="M 294.678, 89.384 
	L 294.678, 89.385 
	L 271.034, 134.435 
" />
<path d="M 271.035, 134.435 
	L 271.034, 134.435 
" />
<path d="M 271.035, 134.435 
	L 271.034, 134.435 
	L 271.034, 185.313 
" />
<path d="M 271.035, 185.312 
	L 271.034, 185.313 
	L 294.678, 230.363 
" />
<path d="M 294.678, 230.362 
	L 294.678, 230.363 
" />
<path d="M 294.678, 230.362 
	L 294.678, 230.363 
	L 336.550, 259.265 
" />
<path d="M 336.550, 259.265 
	L 336.550, 259.265 
	L 387.057, 265.398 
" />
<path d="M 387.058, 265.397 
	L 387.057, 265.398 
	L 434.629, 247.357 
" />
<path d="M 434.630, 247.356 
	L 434.629, 247.357 
	L 468.367, 209.273 
" />
<path d="M 468.368, 209.273 
	L 468.367, 209.273 
	L 480.543, 159.874 
" />
<path d="M 478.099, 162.921 
	L 478.098, 162.921 
	L 466.008, 113.867 
	L 432.505, 76.051 
	L 385.267, 58.136 
" />
<path d="M 335.114, 64.225 
	L 335.113, 64.225 
	L 293.534, 92.925 
	L 270.055, 137.660 
	L 270.055, 188.182 
	L 293.534, 232.917 
	L 335.113, 261.617 
	L 385.267, 267.707 
" />
<path d="M 480.407, 161.078 
	L 480.407, 161.079 
	L 468.400, 112.368 
" />
<path d="M 468.401, 112.367 
	L 468.400, 112.368 
	L 435.133, 74.817 
" />
<path d="M 435.134, 74.816 
	L 435.133, 74.817 
	L 388.225, 57.027 
" />
<path d="M 388.225, 57.026 
	L 388.225, 57.027 
	L 338.422, 63.074 
" />
<path d="M 338.423, 63.073 
	L 338.422, 63.074 
" />
<path d="M 338.423, 63.073 
	L 338.422, 63.074 
	L 297.135, 91.573 
" />
<path d="M 297.135, 91.572 
	L 297.135, 91.573 
" />
<path d="M 297.135, 91.572 
	L 297.135, 91.573 
	L 273.820, 135.994 
" />
<path d="M 273.821, 135.994 
	L 273.820, 135.994 
	L 273.820, 186.163 
" />
<path d="M 273.821, 186.163 
	L 273.820, 186.163 
	L 297.135, 230.585 
" />
<path d="M 297.135, 230.584 
	L 297.135, 230.585 
" />
<path d="M 297.135, 230.584 
	L 297.135, 230.585 
	L 338.422, 259.084 
" />
<path d="M 338.423, 259.083 
	L 338.422, 259.084 
" />
<path d="M 338.423, 259.083 
	L 338.422, 259.084 
	L 388.225, 265.131 
" />
<path d="M 388.225, 265.130 
	L 388.225, 265.131 
" />
<path d="M 388.225, 265.130 
	L 388.225, 265.131 
" />
<path d="M 388.225, 265.130 
	L 388.225, 265.131 
" />
<path d="M 388.225, 265.130 
	L 388.225, 265.131 
	L 435.133, 247.341 
" />
<path d="M 435.134, 247.340 
	L 435.133, 247.341 
	L 468.400, 209.789 
" />
<path d="M 468.401, 209.789 
	L 468.400, 209.789 
" />
<path d="M 468.401, 209.789 
	L 468.400, 209.789 
" />
<path d="M 468.401, 209.789 
	L 468.400, 209.789 
	L 480.407, 161.079 
" />
<path d="M 477.760, 159.944 
	L 477.760, 159.945 
	L 465.838, 111.575 
	L 432.803, 74.287 
" />
<path d="M 386.223, 56.621 
	L 386.223, 56.621 
	L 336.769, 62.626 
	L 295.771, 90.926 
	L 272.619, 135.036 
" />
<path d="M 272.620, 184.853 
	L 272.619, 184.854 
" />
<path d="M 272.620, 184.853 
	L 272.619, 184.854 
" />
<path d="M 272.620, 184.853 
	L 272.619, 184.854 
	L 295.771, 228.964 
" />
<path d="M 295.771, 228.964 
	L 295.771, 228.964 
	L 336.769, 257.264 
	L 386.223, 263.268 
	L 432.803, 245.603 
" />
<path d="M 465.839, 208.314 
	L 465.838, 208.315 
" />
<path d="M 465.839, 208.314 
	L 465.838, 208.315 
	L 477.760, 159.945 
" />
<path d="M 475.402, 161.858 
	L 475.401, 161.858 
	L 463.562, 113.827 
	L 430.759, 76.800 
	L 384.506, 59.258 
" />
<path d="M 335.398, 65.220 
	L 335.397, 65.221 
" />
<path d="M 335.398, 65.220 
	L 335.397, 65.221 
	L 294.686, 93.322 
" />
<path d="M 294.686, 93.322 
	L 294.686, 93.322 
	L 271.697, 137.124 
	L 271.697, 186.593 
" />
<path d="M 294.686, 230.394 
	L 294.686, 230.394 
" />
<path d="M 294.686, 230.394 
	L 294.686, 230.394 
" />
<path d="M 294.686, 230.394 
	L 294.686, 230.394 
	L 335.397, 258.496 
	L 384.506, 264.459 
	L 430.759, 246.917 
" />
<path d="M 463.563, 209.889 
	L 463.562, 209.889 
	L 475.401, 161.858 
	L 463.562, 113.827 
" />
<path d="M 475.812, 160.440 
	L 475.812, 160.441 
" />
<path d="M 475.812, 160.440 
	L 475.812, 160.441 
	L 464.056, 112.746 
" />
<path d="M 464.056, 112.745 
	L 464.056, 112.746 
" />
<path d="M 464.056, 112.745 
	L 464.056, 112.746 
" />
<path d="M 464.056, 112.745 
	L 464.056, 112.746 
" />
<path d="M 464.056, 112.745 
	L 464.056, 112.746 
" />
<path d="M 464.056, 112.745 
	L 464.056, 112.746 
" />
<path d="M 464.056, 112.745 
	L 464.056, 112.746 
	L 431.482, 75.978 
" />
<path d="M 431.483, 75.977 
	L 431.482, 75.978 
	L 385.552, 58.559 
" />
<path d="M 385.552, 58.558 
	L 385.552, 58.559 
	L 336.788, 64.480 
" />
<path d="M 336.789, 64.479 
	L 336.788, 64.480 
" />
<path d="M 336.789, 64.479 
	L 336.788, 64.480 
	L 296.361, 92.385 
" />
<path d="M 296.362, 92.384 
	L 296.361, 92.385 
" />
<path d="M 296.362, 92.384 
	L 296.361, 92.385 
" />
<path d="M 296.362, 92.384 
	L 296.361, 92.385 
" />
<path d="M 296.362, 92.384 
	L 296.361, 92.385 
	L 273.533, 135.880 
" />
<path d="M 273.533, 135.879 
	L 273.533, 135.880 
	L 273.533, 185.002 
" />
<path d="M 273.533, 185.001 
	L 273.533, 185.002 
	L 296.361, 228.497 
" />
<path d="M 296.362, 228.497 
	L 296.361, 228.497 
	L 336.788, 256.402 
" />
<path d="M 336.789, 256.402 
	L 336.788, 256.402 
	L 385.552, 262.323 
" />
<path d="M 385.552, 262.322 
	L 385.552, 262.323 
	L 431.482, 244.904 
" />
<path d="M 431.483, 244.903 
	L 431.482, 244.904 
" />
<path d="M 431.483, 244.903 
	L 431.482, 244.904 
" />
<path d="M 431.483, 244.903 
	L 431.482, 244.904 
	L 464.056, 208.136 
" />
<path d="M 464.056, 208.135 
	L 464.056, 208.136 
" />
<path d="M 464.056, 208.135 
	L 464.056, 208.136 
" />
<path d="M 464.056, 208.135 
	L 464.056, 208.136 
	L 475.812, 160.441 
" />
<path d="M 476.936, 160.440 
	L 476.936, 160.441 
" />
<path d="M 476.936, 160.440 
	L 476.936, 160.441 
	L 465.263, 113.080 
" />
<path d="M 465.263, 113.080 
	L 465.263, 113.080 
	L 432.916, 76.569 
" />
<path d="M 432.917, 76.568 
	L 432.916, 76.569 
" />
<path d="M 432.917, 76.568 
	L 432.916, 76.569 
	L 387.308, 59.272 
" />
<path d="M 387.308, 59.271 
	L 387.308, 59.272 
" />
<path d="M 387.308, 59.271 
	L 387.308, 59.272 
	L 338.885, 65.152 
" />
<path d="M 338.886, 65.151 
	L 338.885, 65.152 
	L 298.741, 92.861 
" />
<path d="M 298.742, 92.860 
	L 298.741, 92.861 
	L 276.073, 136.052 
" />
<path d="M 276.074, 136.051 
	L 276.073, 136.052 
	L 276.073, 184.830 
" />
<path d="M 276.074, 184.830 
	L 276.073, 184.830 
" />
<path d="M 276.074, 184.830 
	L 276.073, 184.830 
" />
<path d="M 276.074, 184.830 
	L 276.073, 184.830 
" />
<path d="M 276.074, 184.830 
	L 276.073, 184.830 
" />
<path d="M 276.074, 184.830 
	L 276.073, 184.830 
" />
<path d="M 276.074, 184.830 
	L 276.073, 184.830 
" />
<path d="M 276.074, 184.830 
	L 276.073, 184.830 
	L 298.741, 228.021 
" />
<path d="M 298.742, 228.020 
	L 298.741, 228.021 
" />
<path d="M 298.742, 228.020 
	L 298.741, 228.021 
" />
<path d="M 298.742, 228.020 
	L 298.741, 228.021 
" />
<path d="M 298.742, 228.020 
	L 298.741, 228.021 
	L 338.885, 255.730 
" />
<path d="M 338.886, 255.730 
	L 338.885, 255.730 
	L 387.308, 261.610 
" />
<path d="M 387.308, 261.609 
	L 387.308, 261.610 
" />
<path d="M 387.308, 261.609 
	L 387.308, 261.610 
" />
<path d="M 387.308, 261.609 
	L 387.308, 261.610 
	L 432.916, 244.313 
" />
<path d="M 432.917, 244.312 
	L 432.916, 244.313 
" />
<path d="M 432.917, 244.312 
	L 432.916, 244.313 
	L 465.263, 207.802 
" />
<path d="M 465.263, 207.801 
	L 465.263, 207.802 
	L 476.936, 160.441 
" />
<path d="M 476.082, 160.724 
	L 476.081, 160.724 
	L 464.489, 113.695 
" />
<path d="M 464.489, 113.694 
	L 464.489, 113.695 
" />
<path d="M 464.489, 113.694 
	L 464.489, 113.695 
	L 432.369, 77.440 
" />
<path d="M 432.370, 77.439 
	L 432.369, 77.440 
" />
<path d="M 432.370, 77.439 
	L 432.369, 77.440 
" />
<path d="M 432.370, 77.439 
	L 432.369, 77.440 
	L 387.080, 60.264 
" />
<path d="M 387.081, 60.263 
	L 387.080, 60.264 
	L 338.997, 66.102 
" />
<path d="M 338.997, 66.101 
	L 338.997, 66.102 
" />
<path d="M 338.997, 66.101 
	L 338.997, 66.102 
	L 299.134, 93.617 
" />
<path d="M 299.135, 93.616 
	L 299.134, 93.617 
	L 276.624, 136.506 
" />
<path d="M 276.625, 136.505 
	L 276.624, 136.506 
" />
<path d="M 276.625, 136.505 
	L 276.624, 136.506 
	L 276.624, 184.943 
" />
<path d="M 276.625, 184.942 
	L 276.624, 184.943 
	L 299.134, 227.832 
" />
<path d="M 299.135, 227.831 
	L 299.134, 227.832 
" />
<path d="M 299.135, 227.831 
	L 299.134, 227.832 
	L 338.997, 255.347 
" />
<path d="M 338.997, 255.346 
	L 338.997, 255.347 
" />
<path d="M 338.997, 255.346 
	L 338.997, 255.347 
" />
<path d="M 338.997, 255.346 
	L 338.997, 255.347 
" />
<path d="M 338.997, 255.346 
	L 338.997, 255.347 
" />
<path d="M 338.997, 255.346 
	L 338.997, 255.347 
" />
<path d="M 338.997, 255.346 
	L 338.997, 255.347 
" />
<path d="M 338.997, 255.346 
	L 338.997, 255.347 
	L 387.080, 261.185 
" />
<path d="M 387.081, 261.184 
	L 387.080, 261.185 
" />
<path d="M 387.081, 261.184 
	L 387.080, 261.185 
	L 432.369, 244.009 
" />
<path d="M 432.370, 244.008 
	L 432.369, 244.009 
" />
<path d="M 432.370, 244.008 
	L 432.369, 244.009 
	L 464.489, 207.754 
" />
<path d="M 464.489, 207.753 
	L 464.489, 207.754 
	L 476.081, 160.724 
" />
<path d="M 474.948, 164.054 
	L 474.947, 164.055 
	L 463.436, 117.355 
" />
<path d="M 463.437, 117.354 
	L 463.436, 117.355 
	L 431.542, 81.353 
" />
<path d="M 431.542, 81.352 
	L 431.542, 81.353 
" />
<path d="M 431.542, 81.352 
	L 431.542, 81.353 
	L 386.569, 64.298 
" />
<path d="M 386.570, 64.297 
	L 386.569, 64.298 
	L 338.822, 70.095 
" />
<path d="M 338.823, 70.094 
	L 338.822, 70.095 
	L 299.239, 97.418 
" />
<path d="M 299.239, 97.417 
	L 299.239, 97.418 
" />
<path d="M 299.239, 97.417 
	L 299.239, 97.418 
	L 276.887, 140.006 
	L 276.887, 188.104 
" />
<path d="M 299.239, 230.692 
	L 299.239, 230.693 
" />
<path d="M 299.239, 230.692 
	L 299.239, 230.693 
	L 338.822, 258.015 
	L 386.569, 263.813 
" />
<path d="M 431.542, 246.757 
	L 431.542, 246.757 
	L 463.436, 210.755 
	L 474.947, 164.055 
" />
<path d="M 472.118, 160.015 
	L 472.117, 160.016 
	L 460.687, 113.642 
	L 429.016, 77.893 
	L 384.359, 60.956 
" />
<path d="M 336.947, 66.713 
	L 336.946, 66.713 
	L 297.639, 93.845 
	L 275.443, 136.135 
	L 275.443, 183.896 
	L 297.639, 226.187 
	L 336.946, 253.318 
" />
<path d="M 429.017, 242.138 
	L 429.016, 242.139 
	L 460.687, 206.389 
	L 472.117, 160.016 
" />
<path d="M 24.733, 325.984 
	L 24.732, 325.984 
	L 24.024, 325.984 
	L 24.024, 316.063 
	L 24.024, 308.551 
	L 18.780, 308.551 
	L 17.433, 308.551 
	L 16.193, 309.047 
	L 14.953, 309.543 
	L 13.854, 310.358 
	L 12.756, 311.173 
	L 11.976, 312.307 
" />
<path d="M 11.976, 312.307 
	L 11.197, 313.441 
	L 10.843, 314.787 
	L 10.843, 325.984 
	L 10.063, 325.984 
	L 10.063, 298.772 
	L 10.843, 298.772 
	L 10.843, 312.945 
	L 11.409, 311.811 
	L 12.260, 310.854 
	L 13.110, 309.898 
	L 14.138, 309.224 
" />
<path d="M 14.138, 309.224 
	L 15.165, 308.551 
	L 16.335, 308.197 
	L 17.504, 307.843 
	L 18.709, 307.843 
	L 21.685, 307.843 
	L 23.209, 309.898 
	L 24.732, 311.953 
	L 24.732, 316.063 
	L 24.732, 325.984 
" />
<path d="M 29.198, 325.984 
	L 29.197, 325.984 
	L 27.992, 325.984 
	L 26.858, 325.524 
	L 25.724, 325.063 
	L 24.909, 324.213 
	L 24.094, 323.362 
	L 23.598, 322.264 
	L 23.102, 321.165 
	L 23.102, 319.961 
	L 23.102, 318.685 
	L 23.669, 317.658 
" />
<path d="M 23.669, 317.658 
	L 24.236, 316.630 
	L 25.299, 315.886 
	L 26.362, 315.142 
	L 27.780, 314.717 
	L 29.197, 314.291 
	L 30.898, 314.291 
	L 32.528, 314.291 
	L 34.193, 314.575 
	L 35.858, 314.858 
	L 37.205, 315.425 
	L 37.205, 313.724 
" />
<path d="M 37.205, 313.724 
	L 37.205, 312.591 
	L 36.780, 311.634 
	L 36.354, 310.677 
	L 35.539, 310.004 
	L 34.724, 309.331 
	L 33.591, 308.941 
	L 32.457, 308.551 
	L 31.039, 308.551 
	L 29.693, 308.551 
	L 28.134, 309.012 
	L 26.575, 309.472 
" />
<path d="M 26.575, 309.472 
	L 24.945, 310.394 
	L 24.520, 309.969 
	L 28.134, 307.843 
	L 31.039, 307.843 
	L 32.598, 307.843 
	L 33.874, 308.339 
	L 35.150, 308.835 
	L 36.071, 309.721 
	L 36.992, 310.606 
	L 37.453, 311.882 
	L 37.913, 313.158 
" />
<path d="M 37.913, 313.158 
	L 37.913, 314.717 
	L 37.913, 324.567 
	L 37.913, 325.276 
	L 38.551, 325.276 
	L 38.551, 325.984 
	L 38.126, 325.984 
	L 37.984, 325.913 
	L 37.630, 325.772 
	L 37.417, 325.347 
	L 37.205, 324.921 
	L 37.205, 324.425 
" />
<path d="M 37.205, 324.425 
	L 37.205, 322.583 
	L 35.929, 324.213 
	L 33.803, 325.098 
	L 31.677, 325.984 
	L 29.197, 325.984 
	L 29.197, 325.276 
	L 31.677, 325.276 
	L 33.697, 324.319 
	L 35.717, 323.362 
	L 36.638, 321.732 
	L 37.205, 320.953 
" />
<path d="M 37.205, 320.953 
	L 37.205, 320.173 
	L 37.205, 316.276 
	L 34.299, 315.000 
	L 30.898, 315.000 
	L 29.268, 315.000 
	L 27.992, 315.354 
	L 26.717, 315.709 
	L 25.795, 316.347 
	L 24.874, 316.984 
	L 24.378, 317.906 
	L 23.882, 318.827 
" />
<path d="M 23.882, 318.827 
	L 23.882, 319.961 
	L 23.882, 321.024 
	L 24.272, 322.016 
	L 24.661, 323.008 
	L 25.406, 323.752 
	L 26.150, 324.496 
	L 27.142, 324.886 
	L 28.134, 325.276 
	L 29.197, 325.276 
" />
<path d="M 48.615, 325.984 
	L 48.614, 325.984 
	L 47.339, 325.984 
	L 46.240, 325.630 
	L 45.142, 325.276 
	L 44.150, 324.709 
	L 43.157, 324.142 
	L 42.343, 323.327 
	L 41.528, 322.512 
	L 40.961, 321.661 
	L 40.961, 335.055 
	L 40.181, 335.055 
" />
<path d="M 40.181, 335.055 
	L 40.181, 307.843 
	L 40.961, 307.843 
	L 40.961, 311.953 
	L 41.528, 311.032 
	L 42.343, 310.287 
	L 43.157, 309.543 
	L 44.150, 308.976 
	L 45.142, 308.409 
	L 46.169, 308.126 
	L 47.197, 307.843 
	L 48.331, 307.843 
" />
<path d="M 48.331, 307.843 
	L 50.315, 307.843 
	L 51.980, 308.622 
	L 53.646, 309.402 
	L 54.850, 310.713 
	L 56.055, 312.024 
	L 56.728, 313.618 
	L 57.402, 315.213 
	L 57.402, 316.913 
	L 57.402, 318.756 
	L 56.764, 320.386 
	L 56.126, 322.016 
" />
<path d="M 56.126, 322.016 
	L 54.957, 323.256 
	L 53.787, 324.496 
	L 52.193, 325.240 
	L 50.598, 325.984 
	L 48.614, 325.984 
	L 48.614, 325.276 
	L 50.457, 325.276 
	L 51.945, 324.567 
	L 53.433, 323.858 
	L 54.496, 322.654 
	L 55.559, 321.449 
" />
<path d="M 55.559, 321.449 
	L 56.091, 319.961 
	L 56.622, 318.472 
	L 56.622, 316.913 
	L 56.622, 315.284 
	L 55.984, 313.760 
	L 55.346, 312.236 
	L 54.213, 311.067 
	L 53.079, 309.898 
	L 51.555, 309.224 
	L 50.032, 308.551 
	L 48.331, 308.551 
" />
<path d="M 48.331, 308.551 
	L 47.197, 308.551 
	L 45.921, 308.976 
	L 44.646, 309.402 
	L 43.583, 310.146 
	L 42.520, 310.890 
	L 41.776, 311.882 
	L 41.032, 312.874 
	L 40.961, 313.937 
	L 40.961, 320.244 
	L 41.457, 321.307 
	L 42.236, 322.228 
" />
<path d="M 42.236, 322.228 
	L 43.016, 323.150 
	L 44.043, 323.823 
	L 45.071, 324.496 
	L 46.205, 324.886 
	L 47.339, 325.276 
	L 48.614, 325.276 
" />
<path d="M 65.835, 325.984 
	L 65.835, 325.984 
	L 64.559, 325.984 
	L 63.461, 325.630 
	L 62.362, 325.276 
	L 61.370, 324.709 
	L 60.378, 324.142 
	L 59.563, 323.327 
	L 58.748, 322.512 
	L 58.181, 321.661 
	L 58.181, 335.055 
	L 57.402, 335.055 
" />
<path d="M 57.402, 335.055 
	L 57.402, 307.843 
	L 58.181, 307.843 
	L 58.181, 311.953 
	L 58.748, 311.032 
	L 59.563, 310.287 
	L 60.378, 309.543 
	L 61.370, 308.976 
	L 62.362, 308.409 
	L 63.390, 308.126 
	L 64.417, 307.843 
	L 65.551, 307.843 
" />
<path d="M 65.551, 307.843 
	L 67.535, 307.843 
	L 69.201, 308.622 
	L 70.866, 309.402 
	L 72.071, 310.713 
	L 73.276, 312.024 
	L 73.949, 313.618 
	L 74.622, 315.213 
	L 74.622, 316.913 
	L 74.622, 318.756 
	L 73.984, 320.386 
	L 73.346, 322.016 
" />
<path d="M 73.346, 322.016 
	L 72.177, 323.256 
	L 71.008, 324.496 
	L 69.413, 325.240 
	L 67.819, 325.984 
	L 65.835, 325.984 
	L 65.835, 325.276 
	L 67.677, 325.276 
	L 69.165, 324.567 
	L 70.654, 323.858 
	L 71.717, 322.654 
	L 72.780, 321.449 
" />
<path d="M 72.780, 321.449 
	L 73.311, 319.961 
	L 73.843, 318.472 
	L 73.843, 316.913 
	L 73.843, 315.284 
	L 73.205, 313.760 
	L 72.567, 312.236 
	L 71.433, 311.067 
	L 70.299, 309.898 
	L 68.776, 309.224 
	L 67.252, 308.551 
	L 65.551, 308.551 
" />
<path d="M 65.551, 308.551 
	L 64.417, 308.551 
	L 63.142, 308.976 
	L 61.866, 309.402 
	L 60.803, 310.146 
	L 59.740, 310.890 
	L 58.996, 311.882 
	L 58.252, 312.874 
	L 58.181, 313.937 
	L 58.181, 320.244 
	L 58.677, 321.307 
	L 59.457, 322.228 
" />
<path d="M 59.457, 322.228 
	L 60.236, 323.150 
	L 61.264, 323.823 
	L 62.291, 324.496 
	L 63.425, 324.886 
	L 64.559, 325.276 
	L 65.835, 325.276 
" />
<path d="M 76.324, 334.346 
	L 76.323, 334.347 
	L 76.961, 334.347 
	L 77.421, 334.240 
	L 77.882, 334.134 
	L 78.024, 333.992 
	L 78.095, 333.921 
	L 78.236, 333.638 
	L 78.378, 333.354 
	L 78.732, 332.575 
	L 79.087, 331.795 
	L 79.654, 330.449 
" />
<path d="M 79.654, 330.449 
	L 80.220, 329.102 
	L 81.213, 326.906 
	L 72.425, 307.843 
	L 73.276, 307.843 
	L 81.567, 325.913 
	L 89.433, 307.843 
	L 90.213, 307.843 
	L 79.016, 333.709 
	L 78.591, 334.701 
	L 77.811, 334.843 
	L 77.102, 335.055 
" />
<path d="M 77.102, 335.055 
	L 76.323, 335.055 
	L 76.323, 334.347 
" />
<path d="M 90.284, 325.984 
	L 90.283, 325.984 
	L 90.283, 325.276 
	L 104.528, 325.276 
	L 104.528, 325.984 
	L 90.283, 325.984 
" />
<path d="M 117.709, 330.519 
	L 117.709, 330.520 
	L 117.709, 324.000 
	L 104.457, 324.000 
	L 104.457, 323.433 
	L 117.921, 306.496 
	L 118.417, 306.496 
	L 118.417, 323.362 
	L 121.606, 323.362 
	L 121.606, 324.000 
	L 118.417, 324.000 
" />
<path d="M 118.417, 324.000 
	L 118.417, 330.520 
	L 117.709, 330.520 
	L 105.449, 323.362 
	L 117.709, 323.362 
	L 117.709, 307.984 
	L 105.449, 323.362 
" />
<path d="M 140.883, 315.566 
	L 140.882, 315.567 
	L 140.882, 317.835 
	L 140.209, 319.748 
	L 139.535, 321.661 
	L 138.366, 323.043 
	L 137.197, 324.425 
	L 135.567, 325.205 
	L 133.937, 325.984 
	L 132.024, 325.984 
	L 130.110, 325.984 
" />
<path d="M 130.110, 325.984 
	L 128.445, 325.205 
	L 126.780, 324.425 
	L 125.610, 323.043 
	L 124.441, 321.661 
	L 123.768, 319.748 
	L 123.095, 317.835 
	L 123.095, 315.567 
	L 123.095, 313.299 
	L 123.768, 311.421 
	L 124.441, 309.543 
" />
<path d="M 124.441, 309.543 
	L 125.610, 308.126 
	L 126.780, 306.709 
	L 128.445, 305.929 
	L 130.110, 305.150 
	L 132.024, 305.150 
	L 133.937, 305.150 
	L 135.567, 305.929 
	L 137.197, 306.709 
	L 138.366, 308.126 
	L 139.535, 309.543 
" />
<path d="M 139.535, 309.543 
	L 140.209, 311.421 
	L 140.882, 313.299 
	L 140.882, 315.567 
	L 140.173, 315.638 
	L 140.173, 313.441 
	L 139.571, 311.669 
	L 138.969, 309.898 
	L 137.906, 308.622 
	L 136.843, 307.347 
	L 135.319, 306.638 
" />
<path d="M 135.319, 306.638 
	L 133.795, 305.929 
	L 132.024, 305.929 
	L 130.181, 305.929 
	L 128.693, 306.638 
	L 127.205, 307.347 
	L 126.106, 308.622 
	L 125.008, 309.898 
	L 124.406, 311.669 
	L 123.803, 313.441 
	L 123.803, 315.638 
" />
<path d="M 123.803, 315.638 
	L 123.803, 317.764 
	L 124.406, 319.535 
	L 125.008, 321.307 
	L 126.106, 322.583 
	L 127.205, 323.858 
	L 128.693, 324.567 
	L 130.181, 325.276 
	L 132.024, 325.276 
	L 133.795, 325.276 
	L 135.319, 324.567 
" />
<path d="M 135.319, 324.567 
	L 136.843, 323.858 
	L 137.906, 322.583 
	L 138.969, 321.307 
	L 139.571, 319.535 
	L 140.173, 317.764 
	L 140.173, 315.638 
" />
<path d="M 149.032, 324.991 
	L 149.032, 324.992 
	L 148.783, 325.169 
	L 148.535, 325.347 
	L 148.075, 325.524 
	L 147.614, 325.701 
	L 147.012, 325.843 
	L 146.409, 325.984 
	L 145.630, 325.984 
	L 144.283, 325.984 
	L 143.327, 325.240 
" />
<path d="M 143.327, 325.240 
	L 142.370, 324.496 
	L 142.370, 323.221 
	L 142.370, 308.622 
	L 139.606, 308.622 
	L 139.606, 307.843 
	L 142.370, 307.843 
	L 142.370, 303.307 
	L 143.079, 303.307 
	L 143.079, 307.843 
	L 147.614, 307.843 
" />
<path d="M 147.614, 307.843 
	L 147.614, 308.622 
	L 143.079, 308.622 
	L 143.079, 323.150 
	L 143.079, 324.142 
	L 143.894, 324.673 
	L 144.709, 325.205 
	L 145.630, 325.205 
	L 146.268, 325.205 
	L 146.799, 325.098 
	L 147.331, 324.992 
" />
<path d="M 147.331, 324.992 
	L 147.756, 324.850 
	L 148.181, 324.709 
	L 148.394, 324.567 
	L 148.606, 324.425 
	L 148.677, 324.425 
	L 149.032, 324.992 
" />
<path d="M 165.686, 325.984 
	L 165.685, 325.984 
	L 164.976, 325.984 
	L 164.976, 316.063 
	L 164.976, 308.551 
	L 159.732, 308.551 
	L 158.386, 308.551 
	L 157.146, 309.047 
	L 155.906, 309.543 
	L 154.807, 310.358 
	L 153.709, 311.173 
" />
<path d="M 153.709, 311.173 
	L 152.929, 312.307 
	L 152.150, 313.441 
	L 151.795, 314.787 
	L 151.795, 325.984 
	L 151.016, 325.984 
	L 151.016, 298.772 
	L 151.795, 298.772 
	L 151.795, 312.945 
	L 152.362, 311.811 
	L 153.213, 310.854 
" />
<path d="M 153.213, 310.854 
	L 154.063, 309.898 
	L 155.091, 309.224 
	L 156.118, 308.551 
	L 157.287, 308.197 
	L 158.457, 307.843 
	L 159.661, 307.843 
	L 162.638, 307.843 
	L 164.161, 309.898 
	L 165.685, 311.953 
	L 165.685, 316.063 
" />
<path d="M 165.685, 316.063 
	L 165.685, 325.984 
" />
<path d="M 163.560, 325.984 
	L 163.559, 325.984 
	L 163.559, 325.276 
	L 177.803, 325.276 
	L 177.803, 325.984 
	L 163.559, 325.984 
" />
<path d="M 180.426, 321.094 
	L 180.425, 321.095 
	L 180.425, 303.307 
	L 181.134, 303.307 
	L 181.134, 321.095 
	L 180.425, 321.095 
	L 180.425, 325.984 
	L 180.425, 323.079 
	L 181.134, 323.079 
	L 181.134, 325.984 
	L 180.425, 325.984 
" />
<path d="M 180.425, 325.984 
" />
<path d="M 178.513, 325.984 
	L 178.512, 325.984 
	L 178.512, 325.276 
	L 192.756, 325.276 
	L 192.756, 325.984 
	L 178.512, 325.984 
" />
<path d="M 213.946, 320.173 
	L 213.945, 320.173 
	L 213.945, 321.307 
	L 213.413, 322.370 
	L 212.882, 323.433 
	L 212.032, 324.248 
	L 211.181, 325.063 
	L 210.012, 325.524 
	L 208.843, 325.984 
	L 207.496, 325.984 
	L 195.591, 325.984 
" />
<path d="M 195.591, 325.984 
	L 195.591, 303.307 
	L 206.929, 303.307 
	L 208.276, 303.307 
	L 209.374, 303.839 
	L 210.472, 304.370 
	L 211.252, 305.185 
	L 212.032, 306.000 
	L 212.421, 307.028 
	L 212.811, 308.055 
	L 212.811, 309.118 
" />
<path d="M 212.811, 309.118 
	L 212.811, 310.890 
	L 211.819, 312.307 
	L 210.827, 313.724 
	L 209.126, 314.433 
	L 210.260, 314.717 
	L 211.146, 315.284 
	L 212.032, 315.850 
	L 212.669, 316.630 
	L 213.307, 317.409 
	L 213.626, 318.295 
" />
<path d="M 213.626, 318.295 
	L 213.945, 319.181 
	L 213.945, 320.173 
	L 213.236, 320.102 
	L 213.236, 319.110 
	L 212.811, 318.189 
	L 212.386, 317.268 
	L 211.642, 316.559 
	L 210.898, 315.850 
	L 209.906, 315.425 
	L 208.913, 315.000 
" />
<path d="M 208.913, 315.000 
	L 207.780, 315.000 
	L 196.299, 315.000 
	L 196.299, 325.276 
	L 207.496, 325.276 
	L 208.701, 325.276 
	L 209.728, 324.850 
	L 210.756, 324.425 
	L 211.535, 323.681 
	L 212.315, 322.937 
	L 212.776, 322.016 
" />
<path d="M 212.776, 322.016 
	L 213.236, 321.095 
	L 213.236, 320.102 
	L 196.299, 304.087 
	L 196.299, 314.291 
	L 206.717, 314.291 
	L 207.921, 314.291 
	L 208.913, 313.831 
	L 209.906, 313.370 
	L 210.614, 312.661 
	L 211.323, 311.953 
" />
<path d="M 211.323, 311.953 
	L 211.713, 311.032 
	L 212.102, 310.110 
	L 212.102, 309.189 
	L 212.102, 308.197 
	L 211.713, 307.276 
	L 211.323, 306.354 
	L 210.650, 305.646 
	L 209.976, 304.937 
	L 209.020, 304.512 
	L 208.063, 304.087 
" />
<path d="M 208.063, 304.087 
	L 206.929, 304.087 
	L 196.299, 304.087 
" />
<path d="M 221.032, 325.984 
	L 221.032, 325.984 
	L 219.047, 325.984 
	L 217.382, 325.205 
	L 215.717, 324.425 
	L 214.512, 323.150 
	L 213.307, 321.874 
	L 212.634, 320.244 
	L 211.961, 318.614 
	L 211.961, 316.913 
	L 211.961, 315.071 
" />
<path d="M 211.961, 315.071 
	L 212.598, 313.441 
	L 213.236, 311.811 
	L 214.441, 310.571 
	L 215.646, 309.331 
	L 217.240, 308.587 
	L 218.835, 307.843 
	L 220.677, 307.843 
	L 222.024, 307.843 
	L 223.158, 308.232 
	L 224.291, 308.622 
" />
<path d="M 224.291, 308.622 
	L 225.283, 309.224 
	L 226.276, 309.827 
	L 227.055, 310.677 
	L 227.835, 311.528 
	L 228.402, 312.449 
	L 228.402, 298.772 
	L 229.110, 298.772 
	L 229.110, 324.496 
	L 229.110, 325.276 
	L 229.677, 325.276 
" />
<path d="M 229.677, 325.276 
	L 229.677, 325.984 
	L 229.394, 325.984 
	L 229.252, 325.913 
	L 228.827, 325.772 
	L 228.614, 325.417 
	L 228.402, 325.063 
	L 228.402, 324.638 
	L 228.402, 322.299 
	L 227.764, 323.079 
	L 226.949, 323.752 
" />
<path d="M 226.949, 323.752 
	L 226.134, 324.425 
	L 225.177, 324.957 
	L 224.221, 325.488 
	L 223.158, 325.736 
	L 222.095, 325.984 
	L 221.032, 325.984 
	L 221.032, 325.276 
	L 222.095, 325.276 
	L 223.370, 324.850 
	L 224.646, 324.425 
" />
<path d="M 224.646, 324.425 
	L 225.744, 323.717 
	L 226.843, 323.008 
	L 227.587, 322.051 
	L 228.331, 321.095 
	L 228.402, 320.032 
	L 228.402, 313.937 
	L 227.976, 312.803 
	L 227.161, 311.847 
	L 226.346, 310.890 
	L 225.283, 310.146 
" />
<path d="M 225.283, 310.146 
	L 224.221, 309.402 
	L 223.016, 308.976 
	L 221.811, 308.551 
	L 220.677, 308.551 
	L 218.835, 308.551 
	L 217.382, 309.260 
	L 215.929, 309.969 
	L 214.866, 311.173 
	L 213.803, 312.378 
	L 213.236, 313.866 
" />
<path d="M 213.236, 313.866 
	L 212.669, 315.354 
	L 212.669, 316.913 
	L 212.669, 318.614 
	L 213.343, 320.102 
	L 214.016, 321.591 
	L 215.114, 322.760 
	L 216.213, 323.929 
	L 217.736, 324.602 
	L 219.260, 325.276 
	L 221.032, 325.276 
" />
<path d="M 221.032, 325.276 
" />
<path d="M 235.418, 325.984 
	L 235.417, 325.984 
	L 234.213, 325.984 
	L 233.079, 325.524 
	L 231.945, 325.063 
	L 231.130, 324.213 
	L 230.315, 323.362 
	L 229.819, 322.264 
	L 229.323, 321.165 
	L 229.323, 319.961 
	L 229.323, 318.685 
" />
<path d="M 229.323, 318.685 
	L 229.890, 317.658 
	L 230.457, 316.630 
	L 231.520, 315.886 
	L 232.583, 315.142 
	L 234.000, 314.717 
	L 235.417, 314.291 
	L 237.118, 314.291 
	L 238.748, 314.291 
	L 240.413, 314.575 
	L 242.079, 314.858 
" />
<path d="M 242.079, 314.858 
	L 243.425, 315.425 
	L 243.425, 313.724 
	L 243.425, 312.591 
	L 243.000, 311.634 
	L 242.575, 310.677 
	L 241.760, 310.004 
	L 240.945, 309.331 
	L 239.811, 308.941 
	L 238.677, 308.551 
	L 237.260, 308.551 
" />
<path d="M 237.260, 308.551 
	L 235.913, 308.551 
	L 234.354, 309.012 
	L 232.795, 309.472 
	L 231.165, 310.394 
	L 230.740, 309.969 
	L 234.354, 307.843 
	L 237.260, 307.843 
	L 238.819, 307.843 
	L 240.095, 308.339 
	L 241.370, 308.835 
" />
<path d="M 241.370, 308.835 
	L 242.291, 309.721 
	L 243.213, 310.606 
	L 243.673, 311.882 
	L 244.134, 313.158 
	L 244.134, 314.717 
	L 244.134, 324.567 
	L 244.134, 325.276 
	L 244.772, 325.276 
	L 244.772, 325.984 
	L 244.346, 325.984 
" />
<path d="M 244.346, 325.984 
	L 244.205, 325.913 
	L 243.850, 325.772 
	L 243.638, 325.347 
	L 243.425, 324.921 
	L 243.425, 324.425 
	L 243.425, 322.583 
	L 242.150, 324.213 
	L 240.024, 325.098 
	L 237.898, 325.984 
	L 235.417, 325.984 
" />
<path d="M 235.417, 325.984 
	L 235.417, 325.276 
	L 237.898, 325.276 
	L 239.917, 324.319 
	L 241.937, 323.362 
	L 242.858, 321.732 
	L 243.425, 320.953 
	L 243.425, 320.173 
	L 243.425, 316.276 
	L 240.520, 315.000 
	L 237.118, 315.000 
" />
<path d="M 237.118, 315.000 
	L 235.488, 315.000 
	L 234.213, 315.354 
	L 232.937, 315.709 
	L 232.016, 316.347 
	L 231.095, 316.984 
	L 230.598, 317.906 
	L 230.102, 318.827 
	L 230.102, 319.961 
	L 230.102, 321.024 
	L 230.492, 322.016 
" />
<path d="M 230.492, 322.016 
	L 230.882, 323.008 
	L 231.626, 323.752 
	L 232.370, 324.496 
	L 233.362, 324.886 
	L 234.354, 325.276 
	L 235.417, 325.276 
" />
<path d="M 248.103, 334.346 
	L 248.102, 334.347 
	L 248.740, 334.347 
	L 249.201, 334.240 
	L 249.661, 334.134 
	L 249.803, 333.992 
	L 249.874, 333.921 
	L 250.016, 333.638 
	L 250.158, 333.354 
	L 250.512, 332.575 
	L 250.866, 331.795 
" />
<path d="M 250.866, 331.795 
	L 251.433, 330.449 
	L 252.000, 329.102 
	L 252.992, 326.906 
	L 244.205, 307.843 
	L 245.055, 307.843 
	L 253.346, 325.913 
	L 261.213, 307.843 
	L 261.992, 307.843 
	L 250.795, 333.709 
	L 250.370, 334.701 
" />
<path d="M 250.370, 334.701 
	L 249.591, 334.843 
	L 248.882, 335.055 
	L 248.102, 335.055 
	L 248.102, 334.347 
" />
<path d="M 262.064, 325.984 
	L 262.063, 325.984 
	L 262.063, 325.276 
	L 276.307, 325.276 
	L 276.307, 325.984 
	L 262.063, 325.984 
" />
<path d="M 277.371, 314.432 
	L 277.370, 314.433 
	L 277.370, 312.449 
	L 278.185, 310.465 
	L 279.000, 308.480 
	L 280.524, 306.886 
	L 282.047, 305.291 
	L 284.315, 304.299 
	L 286.583, 303.307 
	L 289.488, 303.307 
	L 292.961, 303.307 
" />
<path d="M 292.961, 303.307 
	L 295.335, 304.795 
	L 297.709, 306.284 
	L 298.913, 308.551 
	L 298.205, 308.764 
	L 297.425, 307.488 
	L 296.433, 306.567 
	L 295.441, 305.646 
	L 294.272, 305.114 
	L 293.102, 304.583 
	L 291.862, 304.335 
" />
<path d="M 291.862, 304.335 
	L 290.622, 304.087 
	L 289.347, 304.087 
	L 286.654, 304.087 
	L 284.563, 305.008 
	L 282.472, 305.929 
	L 281.020, 307.417 
	L 279.567, 308.906 
	L 278.823, 310.784 
	L 278.079, 312.661 
	L 278.079, 314.575 
" />
<path d="M 278.079, 314.575 
	L 278.079, 316.701 
	L 278.965, 318.650 
	L 279.850, 320.598 
	L 281.374, 322.051 
	L 282.898, 323.504 
	L 284.988, 324.390 
	L 287.079, 325.276 
	L 289.488, 325.276 
	L 290.764, 325.276 
	L 292.075, 324.992 
" />
<path d="M 292.075, 324.992 
	L 293.386, 324.709 
	L 294.661, 324.177 
	L 295.937, 323.646 
	L 297.000, 322.760 
	L 298.063, 321.874 
	L 298.843, 320.669 
	L 299.480, 320.882 
	L 298.843, 322.087 
	L 297.709, 323.079 
	L 296.575, 324.071 
" />
<path d="M 296.575, 324.071 
	L 295.228, 324.709 
	L 293.882, 325.347 
	L 292.323, 325.665 
	L 290.764, 325.984 
	L 289.347, 325.984 
	L 286.724, 325.984 
	L 284.492, 324.992 
	L 282.260, 324.000 
	L 280.701, 322.370 
	L 279.142, 320.740 
" />
<path d="M 279.142, 320.740 
	L 278.256, 318.685 
	L 277.370, 316.630 
	L 277.370, 314.433 
" />
<path d="M 308.268, 325.984 
	L 308.268, 325.984 
	L 306.354, 325.984 
	L 304.724, 325.276 
	L 303.095, 324.567 
	L 301.890, 323.327 
	L 300.685, 322.087 
	L 299.976, 320.421 
	L 299.268, 318.756 
	L 299.268, 316.913 
	L 299.268, 315.071 
" />
<path d="M 299.268, 315.071 
	L 299.976, 313.441 
	L 300.685, 311.811 
	L 301.925, 310.571 
	L 303.165, 309.331 
	L 304.795, 308.587 
	L 306.425, 307.843 
	L 308.268, 307.843 
	L 310.039, 307.843 
	L 311.669, 308.587 
	L 313.299, 309.331 
" />
<path d="M 313.299, 309.331 
	L 314.539, 310.571 
	L 315.780, 311.811 
	L 316.488, 313.441 
	L 317.197, 315.071 
	L 317.197, 316.913 
	L 317.197, 318.756 
	L 316.488, 320.421 
	L 315.780, 322.087 
	L 314.575, 323.327 
	L 313.370, 324.567 
" />
<path d="M 313.370, 324.567 
	L 311.740, 325.276 
	L 310.110, 325.984 
	L 308.268, 325.984 
	L 299.976, 316.984 
	L 299.976, 318.685 
	L 300.650, 320.209 
	L 301.323, 321.732 
	L 302.421, 322.831 
	L 303.520, 323.929 
	L 305.008, 324.602 
" />
<path d="M 305.008, 324.602 
	L 306.496, 325.276 
	L 308.197, 325.276 
	L 309.898, 325.276 
	L 311.386, 324.602 
	L 312.874, 323.929 
	L 314.008, 322.795 
	L 315.142, 321.661 
	L 315.815, 320.138 
	L 316.488, 318.614 
	L 316.488, 316.913 
" />
<path d="M 316.488, 316.913 
	L 316.488, 315.213 
	L 315.815, 313.689 
	L 315.142, 312.165 
	L 314.043, 311.032 
	L 312.945, 309.898 
	L 311.421, 309.224 
	L 309.898, 308.551 
	L 308.268, 308.551 
	L 306.567, 308.551 
	L 305.043, 309.224 
" />
<path d="M 305.043, 309.224 
	L 303.520, 309.898 
	L 302.421, 311.067 
	L 301.323, 312.236 
	L 300.650, 313.760 
	L 299.976, 315.284 
	L 299.976, 316.984 
" />
<path d="M 326.552, 308.692 
	L 326.551, 308.693 
	L 323.858, 308.693 
	L 321.909, 310.287 
	L 319.961, 311.882 
	L 319.252, 314.646 
	L 319.252, 325.984 
	L 318.472, 325.984 
	L 318.472, 307.843 
	L 319.252, 307.843 
	L 319.252, 312.732 
" />
<path d="M 319.252, 312.732 
	L 320.244, 310.677 
	L 321.874, 309.402 
	L 323.504, 308.126 
	L 325.347, 307.843 
	L 325.701, 307.843 
	L 326.020, 307.843 
	L 326.339, 307.843 
	L 326.551, 307.843 
	L 326.551, 308.693 
" />
<path d="M 341.221, 325.984 
	L 341.221, 325.984 
	L 340.512, 325.984 
	L 340.512, 316.063 
	L 340.512, 312.095 
	L 339.343, 310.323 
	L 338.173, 308.551 
	L 335.622, 308.551 
	L 334.276, 308.551 
	L 332.965, 309.012 
	L 331.654, 309.472 
" />
<path d="M 331.654, 309.472 
	L 330.520, 310.323 
	L 329.386, 311.173 
	L 328.535, 312.307 
	L 327.685, 313.441 
	L 327.331, 314.787 
	L 327.331, 325.984 
	L 326.551, 325.984 
	L 326.551, 307.843 
	L 327.331, 307.843 
	L 327.331, 312.945 
" />
<path d="M 327.331, 312.945 
	L 327.898, 311.811 
	L 328.819, 310.854 
	L 329.740, 309.898 
	L 330.803, 309.260 
	L 331.866, 308.622 
	L 333.106, 308.232 
	L 334.347, 307.843 
	L 335.622, 307.843 
	L 338.528, 307.843 
	L 339.874, 309.827 
" />
<path d="M 339.874, 309.827 
	L 341.221, 311.811 
	L 341.221, 316.063 
	L 341.221, 325.984 
" />
<path d="M 349.016, 325.984 
	L 349.016, 325.984 
	L 347.173, 325.984 
	L 345.508, 325.276 
	L 343.843, 324.567 
	L 342.638, 323.291 
	L 341.433, 322.016 
	L 340.689, 320.350 
	L 339.945, 318.685 
	L 339.945, 316.772 
	L 339.945, 314.929 
" />
<path d="M 339.945, 314.929 
	L 340.654, 313.299 
	L 341.362, 311.669 
	L 342.567, 310.465 
	L 343.772, 309.260 
	L 345.366, 308.551 
	L 346.961, 307.843 
	L 348.874, 307.843 
	L 350.717, 307.843 
	L 352.382, 308.374 
	L 354.047, 308.906 
" />
<path d="M 354.047, 308.906 
	L 355.252, 309.827 
	L 356.457, 310.748 
	L 357.201, 311.988 
	L 357.945, 313.228 
	L 357.945, 314.646 
	L 357.945, 314.929 
	L 340.654, 314.929 
	L 340.795, 317.126 
	L 341.504, 319.004 
	L 342.213, 320.882 
" />
<path d="M 342.213, 320.882 
	L 343.347, 322.264 
	L 344.480, 323.646 
	L 345.969, 324.461 
	L 347.457, 325.276 
	L 349.087, 325.276 
	L 350.150, 325.276 
	L 351.177, 324.921 
	L 352.205, 324.567 
	L 353.126, 323.965 
	L 354.047, 323.362 
" />
<path d="M 354.047, 323.362 
	L 354.721, 322.512 
	L 355.394, 321.661 
	L 355.819, 320.598 
	L 356.528, 320.811 
	L 356.102, 321.945 
	L 355.358, 322.866 
	L 354.614, 323.787 
	L 353.622, 324.496 
	L 352.630, 325.205 
	L 351.425, 325.595 
" />
<path d="M 351.425, 325.595 
	L 350.221, 325.984 
	L 349.016, 325.984 
	L 357.165, 314.291 
	L 357.024, 313.016 
	L 356.350, 311.988 
	L 355.677, 310.961 
	L 354.579, 310.181 
	L 353.480, 309.402 
	L 352.028, 308.976 
	L 350.575, 308.551 
" />
<path d="M 350.575, 308.551 
	L 348.874, 308.551 
	L 347.173, 308.551 
	L 345.756, 308.976 
	L 344.339, 309.402 
	L 343.205, 310.181 
	L 342.071, 310.961 
	L 341.433, 312.024 
	L 340.795, 313.087 
	L 340.654, 314.291 
	L 357.165, 314.291 
" />
<path d="M 357.165, 314.291 
" />
<path d="M 367.016, 325.984 
	L 367.016, 325.984 
	L 365.173, 325.984 
	L 363.508, 325.276 
	L 361.843, 324.567 
	L 360.638, 323.291 
	L 359.433, 322.016 
	L 358.689, 320.350 
	L 357.945, 318.685 
	L 357.945, 316.772 
	L 357.945, 314.929 
" />
<path d="M 357.945, 314.929 
	L 358.654, 313.299 
	L 359.362, 311.669 
	L 360.567, 310.465 
	L 361.772, 309.260 
	L 363.366, 308.551 
	L 364.961, 307.843 
	L 366.874, 307.843 
	L 368.717, 307.843 
	L 370.382, 308.374 
	L 372.047, 308.906 
" />
<path d="M 372.047, 308.906 
	L 373.252, 309.827 
	L 374.457, 310.748 
	L 375.201, 311.988 
	L 375.945, 313.228 
	L 375.945, 314.646 
	L 375.945, 314.929 
	L 358.654, 314.929 
	L 358.795, 317.126 
	L 359.504, 319.004 
	L 360.213, 320.882 
" />
<path d="M 360.213, 320.882 
	L 361.347, 322.264 
	L 362.480, 323.646 
	L 363.969, 324.461 
	L 365.457, 325.276 
	L 367.087, 325.276 
	L 368.150, 325.276 
	L 369.177, 324.921 
	L 370.205, 324.567 
	L 371.126, 323.965 
	L 372.047, 323.362 
" />
<path d="M 372.047, 323.362 
	L 372.721, 322.512 
	L 373.394, 321.661 
	L 373.819, 320.598 
	L 374.528, 320.811 
	L 374.102, 321.945 
	L 373.358, 322.866 
	L 372.614, 323.787 
	L 371.622, 324.496 
	L 370.630, 325.205 
	L 369.425, 325.595 
" />
<path d="M 369.425, 325.595 
	L 368.221, 325.984 
	L 367.016, 325.984 
	L 375.165, 314.291 
	L 375.024, 313.016 
	L 374.350, 311.988 
	L 373.677, 310.961 
	L 372.579, 310.181 
	L 371.480, 309.402 
	L 370.028, 308.976 
	L 368.575, 308.551 
" />
<path d="M 368.575, 308.551 
	L 366.874, 308.551 
	L 365.173, 308.551 
	L 363.756, 308.976 
	L 362.339, 309.402 
	L 361.205, 310.181 
	L 360.071, 310.961 
	L 359.433, 312.024 
	L 358.795, 313.087 
	L 358.654, 314.291 
	L 375.165, 314.291 
" />
<path d="M 375.165, 314.291 
" />
<path d="M 377.434, 298.771 
	L 377.433, 298.772 
	L 378.142, 298.772 
	L 378.142, 322.937 
	L 378.142, 324.000 
	L 378.815, 324.638 
	L 379.488, 325.276 
	L 380.551, 325.276 
	L 380.976, 325.276 
	L 381.543, 325.169 
	L 382.110, 325.063 
" />
<path d="M 382.110, 325.063 
	L 382.535, 324.921 
	L 382.819, 325.488 
	L 382.323, 325.701 
	L 381.579, 325.843 
	L 380.835, 325.984 
	L 380.339, 325.984 
	L 379.063, 325.984 
	L 378.248, 325.134 
	L 377.433, 324.284 
	L 377.433, 322.937 
" />
<path d="M 377.433, 322.937 
	L 377.433, 298.772 
" />
</g>
</svg>
