<?xml version="1.0" encoding="UTF-8" standalone="no" ?>
<svg width="100%" height="100%" viewBox="0 0 1120.677 680.607" xmlns="http://www.w3.org/2000/svg"><g>
</g><g style="stroke:rgb(0,0,0); fill:none; stroke-width:1.000mm" >
</g><g style="stroke:rgb(255,0,0); fill:none; stroke-width:0.100mm" >
<path d="M 643.678, 329.323 
	L 643.677, 329.324 
	L 641.163, 289.355 
	L 633.658, 250.017 
	L 621.283, 211.929 
	L 604.232, 175.693 
	L 582.773, 141.880 
	L 557.246, 111.023 
	L 528.053, 83.609 
" />
<path d="M 423.325, 26.033 
	L 423.325, 26.034 
	L 384.535, 16.075 
" />
<path d="M 384.536, 16.074 
	L 384.535, 16.075 
	L 344.804, 11.055 
	L 304.756, 11.055 
	L 265.024, 16.075 
	L 226.235, 26.034 
	L 188.999, 40.776 
	L 153.906, 60.069 
	L 121.506, 83.609 
	L 92.313, 111.023 
	L 66.786, 141.880 
	L 45.327, 175.693 
" />
<path d="M 45.327, 175.693 
	L 28.276, 211.929 
	L 15.901, 250.017 
" />
<path d="M 45.328, 482.953 
	L 45.327, 482.954 
	L 66.786, 516.767 
	L 92.313, 547.624 
	L 121.506, 575.038 
	L 153.906, 598.578 
	L 188.999, 617.871 
	L 226.235, 632.613 
	L 265.024, 642.572 
	L 304.756, 647.592 
	L 344.804, 647.592 
" />
<path d="M 344.804, 647.592 
	L 384.535, 642.572 
	L 423.325, 632.613 
	L 460.560, 617.871 
	L 495.653, 598.578 
	L 528.053, 575.038 
	L 557.246, 547.624 
" />
<path d="M 634.891, 333.079 
	L 634.890, 333.079 
	L 632.431, 293.990 
	L 625.091, 255.518 
	L 612.989, 218.268 
	L 596.312, 182.829 
	L 575.325, 149.760 
	L 550.360, 119.582 
	L 521.809, 92.770 
	L 490.122, 69.749 
	L 455.800, 50.881 
" />
<path d="M 455.800, 50.881 
	L 419.384, 36.462 
	L 381.449, 26.722 
	L 342.591, 21.813 
	L 303.425, 21.813 
	L 264.567, 26.722 
	L 226.631, 36.462 
	L 190.215, 50.881 
	L 155.893, 69.749 
	L 124.207, 92.770 
	L 95.656, 119.582 
	L 70.690, 149.760 
" />
<path d="M 70.690, 149.760 
	L 49.703, 182.829 
	L 33.027, 218.268 
	L 20.925, 255.518 
	L 13.585, 293.990 
	L 11.126, 333.079 
	L 13.585, 372.168 
	L 20.925, 410.641 
	L 33.027, 447.891 
	L 49.703, 483.330 
	L 70.690, 516.399 
" />
<path d="M 575.326, 516.398 
	L 575.325, 516.399 
	L 596.312, 483.330 
	L 612.989, 447.891 
	L 625.091, 410.641 
	L 632.431, 372.168 
	L 634.890, 333.079 
	L 632.431, 293.990 
	L 625.091, 255.518 
	L 612.989, 218.268 
	L 596.312, 182.829 
" />
<path d="M 596.312, 182.829 
	L 575.325, 149.760 
	L 550.360, 119.582 
	L 521.809, 92.770 
	L 490.122, 69.749 
	L 455.800, 50.881 
	L 419.384, 36.462 
	L 381.449, 26.722 
	L 342.591, 21.813 
	L 303.425, 21.813 
	L 264.567, 26.722 
" />
<path d="M 264.567, 26.722 
	L 226.631, 36.462 
	L 190.215, 50.881 
	L 155.893, 69.749 
	L 124.207, 92.770 
	L 95.656, 119.582 
	L 70.690, 149.760 
	L 49.703, 182.829 
	L 33.027, 218.268 
	L 20.925, 255.518 
	L 13.585, 293.990 
	L 11.126, 333.079 
" />
<path d="M 11.126, 333.079 
	L 13.585, 372.168 
	L 20.925, 410.641 
	L 33.027, 447.891 
	L 49.703, 483.330 
	L 70.690, 516.399 
	L 95.656, 546.577 
	L 124.207, 573.389 
	L 155.893, 596.410 
	L 190.215, 615.278 
	L 226.631, 629.697 
" />
<path d="M 226.631, 629.697 
	L 264.567, 639.437 
" />
<path d="M 634.478, 339.457 
	L 634.477, 339.457 
	L 632.072, 301.228 
	L 624.894, 263.602 
	L 613.057, 227.172 
	L 596.748, 192.513 
	L 576.223, 160.171 
	L 551.807, 130.657 
	L 523.884, 104.435 
	L 492.895, 81.920 
	L 459.328, 63.466 
" />
<path d="M 459.328, 63.466 
	L 423.713, 49.365 
	L 386.612, 39.840 
	L 348.609, 35.039 
	L 310.304, 35.039 
	L 272.302, 39.840 
	L 235.201, 49.365 
	L 199.585, 63.466 
	L 166.019, 81.920 
	L 135.029, 104.435 
	L 107.106, 130.657 
	L 82.690, 160.171 
" />
<path d="M 82.690, 160.171 
	L 62.165, 192.513 
" />
<path d="M 107.107, 548.257 
	L 107.106, 548.258 
	L 135.029, 574.480 
	L 166.019, 596.995 
	L 199.585, 615.448 
	L 235.201, 629.549 
	L 272.302, 639.075 
	L 310.304, 643.876 
	L 348.609, 643.876 
	L 386.612, 639.075 
	L 423.713, 629.549 
" />
<path d="M 423.713, 629.549 
	L 459.328, 615.448 
	L 492.895, 596.995 
	L 523.884, 574.480 
	L 551.807, 548.258 
	L 576.223, 518.744 
	L 596.748, 486.402 
	L 613.057, 451.743 
	L 624.894, 415.313 
	L 632.072, 377.687 
	L 634.477, 339.457 
" />
<path d="M 634.477, 339.457 
	L 632.072, 301.228 
" />
<path d="M 634.925, 333.220 
	L 634.925, 333.221 
	L 632.572, 295.833 
	L 625.553, 259.034 
	L 613.976, 223.406 
" />
<path d="M 598.026, 189.508 
	L 598.025, 189.509 
	L 577.952, 157.879 
	L 554.073, 129.014 
	L 526.764, 103.370 
	L 496.457, 81.349 
	L 463.628, 63.302 
	L 428.797, 49.511 
	L 392.512, 40.195 
	L 355.346, 35.500 
	L 317.883, 35.500 
" />
<path d="M 317.883, 35.500 
	L 280.716, 40.195 
	L 244.432, 49.511 
	L 209.600, 63.302 
	L 176.771, 81.349 
	L 146.464, 103.370 
	L 119.156, 129.014 
	L 95.276, 157.879 
	L 75.203, 189.509 
	L 59.253, 223.406 
	L 47.676, 259.034 
	L 40.657, 295.833 
" />
<path d="M 40.657, 295.833 
	L 38.304, 333.221 
" />
<path d="M 244.432, 616.930 
	L 244.432, 616.931 
	L 280.716, 626.247 
" />
<path d="M 280.717, 626.246 
	L 280.716, 626.247 
	L 317.883, 630.943 
	L 355.346, 630.943 
	L 392.512, 626.247 
	L 428.797, 616.931 
	L 463.628, 603.140 
	L 496.457, 585.093 
	L 526.764, 563.073 
	L 554.073, 537.428 
	L 577.952, 508.563 
" />
<path d="M 577.952, 508.563 
	L 598.025, 476.933 
	L 613.976, 443.037 
	L 625.553, 407.408 
	L 632.572, 370.609 
	L 634.925, 333.221 
	L 632.572, 295.833 
	L 625.553, 259.034 
	L 613.976, 223.406 
	L 598.025, 189.509 
	L 577.952, 157.879 
" />
<path d="M 577.952, 157.879 
	L 554.073, 129.014 
	L 526.764, 103.370 
" />
<path d="M 624.465, 328.969 
	L 624.464, 328.969 
	L 622.163, 292.404 
	L 615.298, 256.414 
	L 603.977, 221.570 
	L 588.377, 188.419 
	L 568.745, 157.484 
	L 545.391, 129.254 
	L 518.684, 104.174 
	L 489.042, 82.639 
	L 456.936, 64.989 
" />
<path d="M 456.936, 64.989 
	L 422.872, 51.501 
	L 387.385, 42.389 
	L 351.035, 37.798 
	L 314.398, 37.798 
	L 278.048, 42.389 
	L 242.561, 51.501 
	L 208.497, 64.989 
	L 176.391, 82.639 
	L 146.750, 104.174 
	L 120.042, 129.254 
	L 96.688, 157.484 
" />
<path d="M 96.688, 157.484 
	L 77.056, 188.419 
	L 61.457, 221.570 
	L 50.135, 256.414 
	L 43.270, 292.404 
	L 40.969, 328.969 
	L 43.270, 365.535 
" />
<path d="M 387.386, 615.548 
	L 387.385, 615.549 
	L 422.872, 606.437 
	L 456.936, 592.950 
	L 489.042, 575.299 
	L 518.684, 553.764 
	L 545.391, 528.684 
	L 568.745, 500.454 
	L 588.377, 469.519 
	L 603.977, 436.368 
	L 615.298, 401.524 
" />
<path d="M 615.298, 401.524 
	L 622.163, 365.535 
	L 624.464, 328.969 
	L 622.163, 292.404 
	L 615.298, 256.414 
	L 603.977, 221.570 
	L 588.377, 188.419 
	L 568.745, 157.484 
	L 545.391, 129.254 
	L 518.684, 104.174 
	L 489.042, 82.639 
" />
<path d="M 489.042, 82.639 
	L 456.936, 64.989 
	L 422.872, 51.501 
	L 387.385, 42.389 
	L 351.035, 37.798 
	L 314.398, 37.798 
	L 278.048, 42.389 
	L 242.561, 51.501 
	L 208.497, 64.989 
	L 176.391, 82.639 
	L 146.750, 104.174 
	L 120.042, 129.254 
" />
<path d="M 120.042, 129.254 
	L 96.688, 157.484 
	L 77.056, 188.419 
	L 61.457, 221.570 
	L 50.135, 256.414 
	L 43.270, 292.404 
	L 40.969, 328.969 
	L 43.270, 365.535 
	L 50.135, 401.524 
	L 61.457, 436.368 
	L 77.056, 469.519 
	L 96.688, 500.454 
" />
<path d="M 96.688, 500.454 
	L 120.042, 528.684 
" />
<path d="M 613.440, 339.528 
	L 613.439, 339.528 
	L 611.189, 303.767 
	L 604.475, 268.570 
" />
<path d="M 593.403, 234.491 
	L 593.402, 234.492 
	L 578.146, 202.070 
	L 558.946, 171.816 
	L 536.106, 144.207 
	L 509.985, 119.679 
	L 480.997, 98.617 
	L 449.598, 81.355 
	L 416.282, 68.165 
	L 381.575, 59.253 
" />
<path d="M 239.939, 68.164 
	L 239.939, 68.165 
	L 206.623, 81.355 
	L 175.224, 98.617 
	L 146.235, 119.679 
	L 120.115, 144.207 
	L 97.274, 171.816 
	L 78.075, 202.070 
	L 62.819, 234.492 
	L 51.746, 268.570 
	L 45.031, 303.767 
	L 42.781, 339.528 
" />
<path d="M 42.781, 339.528 
	L 45.031, 375.289 
	L 51.746, 410.487 
	L 62.819, 444.565 
	L 78.075, 476.987 
	L 97.274, 507.240 
	L 120.115, 534.850 
	L 146.235, 559.378 
	L 175.224, 580.439 
	L 206.623, 597.701 
	L 239.939, 610.892 
" />
<path d="M 239.939, 610.892 
	L 274.645, 619.803 
	L 310.195, 624.294 
	L 346.026, 624.294 
	L 381.575, 619.803 
" />
<path d="M 603.478, 340.591 
	L 603.477, 340.591 
	L 601.277, 305.617 
	L 594.710, 271.194 
	L 583.881, 237.866 
	L 568.960, 206.157 
	L 550.183, 176.569 
	L 527.845, 149.567 
	L 502.299, 125.578 
	L 473.949, 104.980 
	L 443.239, 88.098 
" />
<path d="M 443.239, 88.098 
	L 410.657, 75.198 
" />
<path d="M 238.195, 75.197 
	L 238.194, 75.198 
	L 205.611, 88.098 
	L 174.902, 104.980 
	L 146.551, 125.578 
	L 121.005, 149.567 
	L 98.668, 176.569 
" />
<path d="M 64.970, 237.865 
	L 64.969, 237.866 
	L 54.140, 271.194 
	L 47.574, 305.617 
	L 45.373, 340.591 
	L 47.574, 375.566 
	L 54.140, 409.988 
	L 64.969, 443.317 
	L 79.890, 475.025 
	L 98.668, 504.614 
	L 121.005, 531.615 
	L 146.551, 555.604 
" />
<path d="M 146.551, 555.604 
	L 174.902, 576.202 
	L 205.611, 593.085 
	L 238.194, 605.985 
	L 272.136, 614.700 
	L 306.904, 619.092 
	L 341.947, 619.092 
	L 376.715, 614.700 
	L 410.657, 605.985 
	L 443.239, 593.085 
	L 473.949, 576.202 
" />
<path d="M 473.949, 576.202 
	L 502.299, 555.604 
	L 527.845, 531.615 
	L 550.183, 504.614 
	L 568.960, 475.025 
	L 583.881, 443.317 
	L 594.710, 409.988 
	L 601.277, 375.566 
	L 603.477, 340.591 
	L 601.277, 305.617 
	L 594.710, 271.194 
" />
<path d="M 594.710, 271.194 
	L 583.881, 237.866 
	L 568.960, 206.157 
	L 550.183, 176.569 
	L 527.845, 149.567 
	L 502.299, 125.578 
	L 473.949, 104.980 
	L 443.239, 88.098 
	L 410.657, 75.198 
	L 376.715, 66.482 
	L 341.947, 62.090 
" />
<path d="M 341.947, 62.090 
	L 306.904, 62.090 
	L 272.136, 66.482 
	L 238.194, 75.198 
	L 205.611, 88.098 
	L 174.902, 104.980 
	L 146.551, 125.578 
	L 121.005, 149.567 
" />
<path d="M 596.630, 336.976 
	L 596.629, 336.977 
	L 594.477, 302.772 
	L 588.055, 269.106 
	L 577.464, 236.512 
	L 562.871, 205.501 
	L 544.507, 176.563 
	L 522.661, 150.155 
	L 497.677, 126.695 
" />
<path d="M 408.052, 77.421 
	L 408.051, 77.422 
	L 374.855, 68.899 
	L 340.853, 64.603 
	L 306.580, 64.603 
	L 272.578, 68.899 
	L 239.382, 77.422 
	L 207.516, 90.038 
	L 177.483, 106.549 
	L 149.756, 126.695 
	L 124.772, 150.155 
	L 102.926, 176.563 
" />
<path d="M 102.926, 176.563 
	L 84.562, 205.501 
	L 69.969, 236.512 
" />
<path d="M 69.970, 437.442 
	L 69.969, 437.443 
	L 84.562, 468.454 
	L 102.926, 497.391 
	L 124.772, 523.799 
	L 149.756, 547.260 
	L 177.483, 567.405 
	L 207.516, 583.916 
	L 239.382, 596.532 
	L 272.578, 605.055 
	L 306.580, 609.351 
" />
<path d="M 306.580, 609.351 
	L 340.853, 609.351 
	L 374.855, 605.055 
	L 408.051, 596.532 
	L 439.917, 583.916 
	L 469.950, 567.405 
	L 497.677, 547.260 
	L 522.661, 523.799 
	L 544.507, 497.391 
	L 562.871, 468.454 
	L 577.464, 437.443 
" />
<path d="M 577.464, 437.443 
	L 588.055, 404.848 
	L 594.477, 371.182 
	L 596.629, 336.977 
	L 594.477, 302.772 
	L 588.055, 269.106 
	L 577.464, 236.512 
" />
<path d="M 599.838, 333.929 
	L 599.837, 333.930 
	L 597.733, 300.477 
	L 591.452, 267.552 
	L 581.095, 235.675 
	L 566.823, 205.346 
	L 548.863, 177.045 
	L 527.497, 151.218 
	L 503.063, 128.273 
	L 475.946, 108.572 
	L 446.573, 92.424 
" />
<path d="M 446.573, 92.424 
	L 415.408, 80.085 
	L 382.943, 71.749 
	L 349.688, 67.548 
	L 316.170, 67.548 
	L 282.915, 71.749 
	L 250.450, 80.085 
	L 219.285, 92.424 
	L 189.913, 108.572 
	L 162.795, 128.273 
	L 138.361, 151.218 
	L 116.996, 177.045 
" />
<path d="M 116.996, 177.045 
" />
<path d="M 116.996, 490.814 
	L 116.996, 490.815 
	L 138.361, 516.641 
	L 162.795, 539.586 
	L 189.913, 559.288 
	L 219.285, 575.436 
	L 250.450, 587.775 
	L 282.915, 596.111 
	L 316.170, 600.311 
	L 349.688, 600.311 
	L 382.943, 596.111 
" />
<path d="M 382.943, 596.111 
	L 415.408, 587.775 
	L 446.573, 575.436 
	L 475.946, 559.288 
	L 503.063, 539.586 
	L 527.497, 516.641 
	L 548.863, 490.815 
	L 566.823, 462.514 
	L 581.095, 432.185 
	L 591.452, 400.307 
	L 597.733, 367.382 
" />
<path d="M 597.733, 367.382 
	L 599.837, 333.930 
	L 597.733, 300.477 
	L 591.452, 267.552 
	L 581.095, 235.675 
	L 566.823, 205.346 
	L 548.863, 177.045 
	L 527.497, 151.218 
	L 503.063, 128.273 
	L 475.946, 108.572 
	L 446.573, 92.424 
" />
<path d="M 446.573, 92.424 
	L 415.408, 80.085 
	L 382.943, 71.749 
	L 349.688, 67.548 
	L 316.170, 67.548 
	L 282.915, 71.749 
	L 250.450, 80.085 
	L 219.285, 92.424 
	L 189.913, 108.572 
	L 162.795, 128.273 
	L 138.361, 151.218 
	L 116.996, 177.045 
" />
<path d="M 116.996, 177.045 
	L 99.035, 205.346 
	L 84.764, 235.675 
	L 74.406, 267.552 
	L 68.126, 300.477 
	L 66.021, 333.930 
	L 68.126, 367.382 
" />
<path d="M 597.864, 333.220 
	L 597.863, 333.221 
	L 595.805, 300.504 
	L 589.662, 268.304 
	L 579.532, 237.127 
	L 565.575, 207.466 
	L 548.009, 179.788 
	L 527.114, 154.529 
	L 503.218, 132.089 
	L 476.697, 112.821 
	L 447.970, 97.028 
" />
<path d="M 447.970, 97.028 
	L 417.492, 84.961 
	L 385.740, 76.808 
	L 353.217, 72.700 
	L 320.436, 72.700 
	L 287.914, 76.808 
	L 256.162, 84.961 
	L 225.683, 97.028 
	L 196.957, 112.821 
	L 170.436, 132.089 
	L 146.539, 154.529 
	L 125.644, 179.788 
" />
<path d="M 125.644, 179.788 
	L 108.079, 207.466 
	L 94.122, 237.127 
	L 83.991, 268.304 
	L 77.849, 300.504 
	L 75.791, 333.221 
	L 77.849, 365.938 
" />
<path d="M 385.741, 589.633 
	L 385.740, 589.634 
	L 417.492, 581.482 
	L 447.970, 569.414 
	L 476.697, 553.621 
	L 503.218, 534.353 
	L 527.114, 511.913 
	L 548.009, 486.654 
	L 565.575, 458.977 
	L 579.532, 429.315 
	L 589.662, 398.138 
" />
<path d="M 589.662, 398.138 
	L 595.805, 365.938 
	L 597.863, 333.221 
	L 595.805, 300.504 
	L 589.662, 268.304 
	L 579.532, 237.127 
	L 565.575, 207.466 
	L 548.009, 179.788 
	L 527.114, 154.529 
	L 503.218, 132.089 
	L 476.697, 112.821 
" />
<path d="M 476.697, 112.821 
	L 447.970, 97.028 
	L 417.492, 84.961 
	L 385.740, 76.808 
	L 353.217, 72.700 
	L 320.436, 72.700 
	L 287.914, 76.808 
	L 256.162, 84.961 
	L 225.683, 97.028 
	L 196.957, 112.821 
	L 170.436, 132.089 
	L 146.539, 154.529 
" />
<path d="M 146.539, 154.529 
	L 125.644, 179.788 
	L 108.079, 207.466 
	L 94.122, 237.127 
	L 83.991, 268.304 
	L 77.849, 300.504 
" />
<path d="M 584.751, 335.205 
	L 584.751, 335.205 
" />
<path d="M 584.751, 335.205 
	L 584.751, 335.205 
	L 582.737, 303.209 
	L 576.730, 271.716 
	L 566.823, 241.226 
	L 553.172, 212.217 
	L 535.993, 185.148 
	L 515.558, 160.445 
	L 492.187, 138.498 
	L 466.250, 119.654 
	L 438.155, 104.209 
" />
<path d="M 438.155, 104.209 
	L 408.347, 92.407 
	L 377.294, 84.433 
	L 345.487, 80.415 
	L 313.427, 80.415 
" />
<path d="M 143.357, 160.445 
	L 143.356, 160.445 
	L 122.920, 185.148 
	L 105.742, 212.217 
	L 92.091, 241.226 
	L 82.183, 271.716 
	L 76.176, 303.209 
	L 74.163, 335.205 
	L 76.176, 367.202 
	L 82.183, 398.694 
	L 92.091, 429.185 
" />
<path d="M 92.091, 429.185 
	L 105.742, 458.194 
	L 122.920, 485.263 
	L 143.356, 509.966 
	L 166.727, 531.913 
	L 192.664, 550.757 
	L 220.758, 566.202 
	L 250.566, 578.004 
	L 281.619, 585.977 
	L 313.427, 589.995 
	L 345.487, 589.995 
" />
<path d="M 345.487, 589.995 
	L 377.294, 585.977 
	L 408.347, 578.004 
	L 438.155, 566.202 
	L 466.250, 550.757 
	L 492.187, 531.913 
	L 515.558, 509.966 
	L 535.993, 485.263 
	L 553.172, 458.194 
	L 566.823, 429.185 
	L 576.730, 398.694 
" />
<path d="M 576.730, 398.694 
	L 582.737, 367.202 
	L 584.751, 335.205 
	L 582.737, 303.209 
	L 576.730, 271.716 
	L 566.823, 241.226 
	L 553.172, 212.217 
	L 535.993, 185.148 
	L 515.558, 160.445 
	L 492.187, 138.498 
	L 466.250, 119.654 
" />
<path d="M 466.250, 119.654 
	L 438.155, 104.209 
	L 408.347, 92.407 
" />
<path d="M 585.087, 332.157 
	L 585.087, 332.158 
	L 583.118, 300.865 
	L 577.242, 270.066 
	L 567.554, 240.246 
	L 554.203, 211.876 
	L 537.403, 185.401 
	L 517.416, 161.242 
	L 494.560, 139.779 
	L 469.193, 121.349 
	L 441.717, 106.243 
" />
<path d="M 441.717, 106.243 
	L 412.564, 94.701 
	L 382.195, 86.903 
	L 351.087, 82.974 
	L 319.732, 82.974 
	L 288.624, 86.903 
" />
<path d="M 116.617, 211.875 
	L 116.616, 211.876 
	L 103.265, 240.246 
	L 93.577, 270.066 
	L 87.701, 300.865 
	L 85.732, 332.158 
	L 87.701, 363.451 
	L 93.577, 394.250 
	L 103.265, 424.070 
	L 116.616, 452.441 
	L 133.416, 478.915 
" />
<path d="M 133.416, 478.915 
	L 153.403, 503.074 
	L 176.259, 524.538 
	L 201.626, 542.967 
" />
<path d="M 382.195, 577.412 
	L 382.195, 577.413 
	L 412.564, 569.615 
	L 441.717, 558.073 
	L 469.193, 542.967 
	L 494.560, 524.538 
	L 517.416, 503.074 
" />
<path d="M 554.204, 452.440 
	L 554.203, 452.441 
	L 567.554, 424.070 
	L 577.242, 394.250 
	L 583.118, 363.451 
	L 585.087, 332.158 
	L 583.118, 300.865 
	L 577.242, 270.066 
	L 567.554, 240.246 
	L 554.203, 211.876 
	L 537.403, 185.401 
" />
<path d="M 537.403, 185.401 
	L 517.416, 161.242 
	L 494.560, 139.779 
" />
<path d="M 574.067, 335.417 
	L 574.066, 335.418 
" />
<path d="M 574.067, 335.417 
	L 574.066, 335.418 
	L 572.141, 304.814 
	L 566.395, 274.692 
	L 556.919, 245.528 
	L 543.862, 217.782 
	L 527.431, 191.890 
	L 507.884, 168.262 
	L 485.531, 147.270 
	L 460.722, 129.246 
	L 433.850, 114.474 
" />
<path d="M 433.850, 114.474 
	L 405.339, 103.185 
	L 375.637, 95.559 
	L 345.215, 91.716 
	L 314.549, 91.716 
	L 284.126, 95.559 
	L 254.425, 103.185 
	L 225.913, 114.474 
	L 199.042, 129.246 
	L 174.233, 147.270 
	L 151.880, 168.262 
" />
<path d="M 151.880, 168.262 
	L 132.333, 191.890 
	L 115.902, 217.782 
	L 102.845, 245.528 
" />
<path d="M 199.042, 541.589 
	L 199.042, 541.590 
	L 225.913, 556.362 
	L 254.425, 567.651 
	L 284.126, 575.277 
	L 314.549, 579.120 
	L 345.215, 579.120 
	L 375.637, 575.277 
	L 405.339, 567.651 
	L 433.850, 556.362 
	L 460.722, 541.590 
" />
<path d="M 460.722, 541.590 
	L 485.531, 523.566 
	L 507.884, 502.574 
	L 527.431, 478.946 
	L 543.862, 453.054 
	L 556.919, 425.308 
	L 566.395, 396.144 
	L 572.141, 366.022 
	L 574.066, 335.418 
	L 572.141, 304.814 
	L 566.395, 274.692 
" />
<path d="M 566.395, 274.692 
	L 556.919, 245.528 
" />
<path d="M 575.852, 341.512 
	L 575.851, 341.513 
	L 573.968, 311.581 
	L 568.349, 282.122 
	L 559.081, 253.600 
	L 546.312, 226.464 
	L 530.243, 201.142 
	L 511.126, 178.034 
	L 489.264, 157.504 
	L 465.002, 139.877 
	L 438.721, 125.429 
" />
<path d="M 438.721, 125.429 
	L 410.837, 114.389 
	L 381.789, 106.931 
	L 352.035, 103.171 
	L 322.044, 103.171 
	L 292.290, 106.931 
" />
<path d="M 127.767, 226.463 
	L 127.767, 226.464 
	L 114.997, 253.600 
	L 105.730, 282.122 
	L 100.110, 311.581 
	L 98.228, 341.513 
	L 100.110, 371.444 
	L 105.730, 400.903 
	L 114.997, 429.425 
	L 127.767, 456.561 
	L 143.836, 481.883 
" />
<path d="M 143.836, 481.883 
	L 162.953, 504.991 
	L 184.815, 525.521 
	L 209.077, 543.148 
	L 235.358, 557.596 
	L 263.242, 568.636 
	L 292.290, 576.094 
	L 322.044, 579.854 
	L 352.035, 579.854 
	L 381.789, 576.094 
	L 410.837, 568.636 
" />
<path d="M 410.837, 568.636 
	L 438.721, 557.596 
	L 465.002, 543.148 
	L 489.264, 525.521 
	L 511.126, 504.991 
	L 530.243, 481.883 
	L 546.312, 456.561 
	L 559.081, 429.425 
" />
<path d="M 562.378, 335.276 
	L 562.377, 335.276 
	L 560.536, 306.004 
	L 555.039, 277.193 
	L 545.976, 249.298 
	L 533.487, 222.759 
	L 517.772, 197.994 
	L 499.076, 175.394 
	L 477.695, 155.317 
	L 453.966, 138.076 
	L 428.263, 123.946 
" />
<path d="M 428.263, 123.946 
	L 400.993, 113.149 
	L 372.584, 105.855 
	L 343.484, 102.179 
	L 314.154, 102.179 
	L 285.054, 105.855 
	L 256.645, 113.149 
	L 229.375, 123.946 
	L 203.672, 138.076 
	L 179.943, 155.317 
	L 158.562, 175.394 
" />
<path d="M 158.562, 175.394 
	L 139.866, 197.994 
	L 124.150, 222.759 
	L 111.662, 249.298 
	L 102.599, 277.193 
	L 97.102, 306.004 
	L 95.260, 335.276 
	L 97.102, 364.549 
	L 102.599, 393.360 
	L 111.662, 421.255 
	L 124.150, 447.794 
" />
<path d="M 124.150, 447.794 
	L 139.866, 472.558 
	L 158.562, 495.158 
	L 179.943, 515.236 
	L 203.672, 532.476 
	L 229.375, 546.606 
	L 256.645, 557.403 
	L 285.054, 564.698 
	L 314.154, 568.373 
	L 343.484, 568.373 
	L 372.584, 564.698 
" />
<path d="M 372.584, 564.698 
" />
<path d="M 565.106, 332.795 
	L 565.105, 332.796 
	L 563.304, 304.167 
	L 557.929, 275.990 
	L 549.065, 248.709 
	L 536.851, 222.754 
	L 521.481, 198.534 
	L 503.196, 176.432 
	L 482.285, 156.796 
	L 459.079, 139.934 
	L 433.942, 126.116 
" />
<path d="M 433.942, 126.116 
	L 407.271, 115.556 
	L 379.487, 108.422 
" />
<path d="M 239.429, 126.115 
	L 239.428, 126.116 
	L 214.291, 139.934 
	L 191.085, 156.796 
	L 170.174, 176.432 
	L 151.890, 198.534 
	L 136.519, 222.754 
	L 124.306, 248.709 
	L 115.441, 275.990 
	L 110.066, 304.167 
	L 108.265, 332.796 
" />
<path d="M 108.265, 332.796 
	L 110.066, 361.424 
	L 115.441, 389.602 
	L 124.306, 416.883 
	L 136.519, 442.838 
" />
<path d="M 266.100, 550.035 
	L 266.100, 550.036 
	L 293.883, 557.170 
	L 322.342, 560.765 
	L 351.028, 560.765 
	L 379.487, 557.170 
	L 407.271, 550.036 
" />
<path d="M 459.079, 525.657 
	L 459.079, 525.658 
	L 482.285, 508.796 
	L 503.196, 489.160 
	L 521.481, 467.058 
	L 536.851, 442.838 
	L 549.065, 416.883 
	L 557.929, 389.602 
	L 563.304, 361.424 
	L 565.105, 332.796 
	L 563.304, 304.167 
" />
<path d="M 563.304, 304.167 
	L 557.929, 275.990 
	L 549.065, 248.709 
	L 536.851, 222.754 
	L 521.481, 198.534 
	L 503.196, 176.432 
" />
<path d="M 550.372, 339.598 
	L 550.371, 339.599 
	L 548.610, 311.601 
	L 543.353, 284.043 
	L 534.684, 257.362 
	L 522.739, 231.978 
	L 507.706, 208.291 
	L 489.824, 186.675 
	L 469.373, 167.470 
	L 446.677, 150.980 
	L 422.093, 137.465 
" />
<path d="M 422.093, 137.465 
	L 396.009, 127.138 
	L 368.836, 120.161 
	L 341.004, 116.645 
	L 312.949, 116.645 
	L 285.117, 120.161 
	L 257.944, 127.138 
	L 231.860, 137.465 
	L 207.276, 150.980 
	L 184.579, 167.470 
	L 164.129, 186.675 
" />
<path d="M 164.129, 186.675 
	L 146.246, 208.291 
	L 131.214, 231.978 
	L 119.269, 257.362 
" />
<path d="M 207.276, 528.217 
	L 207.276, 528.218 
	L 231.860, 541.733 
	L 257.944, 552.060 
	L 285.117, 559.037 
	L 312.949, 562.553 
	L 341.004, 562.553 
	L 368.836, 559.037 
	L 396.009, 552.060 
	L 422.093, 541.733 
	L 446.677, 528.218 
" />
<path d="M 446.677, 528.218 
	L 469.373, 511.728 
	L 489.824, 492.523 
	L 507.706, 470.907 
	L 522.739, 447.221 
	L 534.684, 421.836 
	L 543.353, 395.155 
	L 548.610, 367.598 
	L 550.371, 339.599 
	L 548.610, 311.601 
	L 543.353, 284.043 
" />
<path d="M 543.353, 284.043 
" />
<path d="M 554.812, 331.803 
	L 554.811, 331.804 
	L 553.088, 304.421 
	L 547.947, 277.470 
	L 539.469, 251.376 
	L 527.786, 226.551 
	L 513.085, 203.384 
	L 495.596, 182.244 
	L 475.596, 163.462 
	L 453.398, 147.335 
	L 429.355, 134.117 
" />
<path d="M 429.355, 134.117 
	L 403.845, 124.017 
	L 377.270, 117.193 
	L 350.049, 113.755 
	L 322.612, 113.755 
	L 295.391, 117.193 
	L 268.817, 124.017 
	L 243.306, 134.117 
	L 219.263, 147.335 
	L 197.066, 163.462 
	L 177.065, 182.244 
" />
<path d="M 177.065, 182.244 
	L 159.576, 203.384 
	L 144.875, 226.551 
	L 133.193, 251.376 
	L 124.715, 277.470 
	L 119.573, 304.421 
	L 117.850, 331.804 
	L 119.573, 359.187 
	L 124.715, 386.138 
	L 133.193, 412.232 
	L 144.875, 437.057 
" />
<path d="M 144.875, 437.057 
	L 159.576, 460.223 
	L 177.065, 481.364 
	L 197.066, 500.146 
	L 219.263, 516.273 
	L 243.306, 529.491 
	L 268.817, 539.590 
	L 295.391, 546.414 
	L 322.612, 549.853 
	L 350.049, 549.853 
	L 377.270, 546.414 
" />
<path d="M 377.270, 546.414 
	L 403.845, 539.590 
	L 429.355, 529.491 
	L 453.398, 516.273 
	L 475.596, 500.146 
	L 495.596, 481.364 
	L 513.085, 460.223 
	L 527.786, 437.057 
" />
<path d="M 548.375, 331.591 
	L 548.374, 331.591 
	L 546.690, 304.811 
	L 541.661, 278.453 
	L 533.369, 252.933 
	L 521.944, 228.653 
	L 507.566, 205.997 
" />
<path d="M 470.902, 166.952 
	L 470.901, 166.953 
	L 449.193, 151.181 
	L 425.679, 138.253 
	L 400.730, 128.375 
	L 374.740, 121.703 
	L 348.117, 118.339 
	L 321.284, 118.339 
	L 294.662, 121.703 
" />
<path d="M 220.209, 151.180 
	L 220.209, 151.181 
	L 198.500, 166.953 
	L 178.940, 185.321 
	L 161.836, 205.997 
	L 147.458, 228.653 
	L 136.033, 252.933 
	L 127.740, 278.453 
	L 122.712, 304.811 
	L 121.027, 331.591 
	L 122.712, 358.372 
" />
<path d="M 122.712, 358.372 
	L 127.740, 384.730 
	L 136.033, 410.250 
	L 147.458, 434.529 
	L 161.836, 457.185 
" />
<path d="M 294.663, 541.479 
	L 294.662, 541.480 
	L 321.284, 544.843 
	L 348.117, 544.843 
	L 374.740, 541.480 
	L 400.730, 534.807 
	L 425.679, 524.929 
	L 449.193, 512.002 
	L 470.901, 496.230 
	L 490.462, 477.861 
	L 507.566, 457.185 
" />
<path d="M 507.566, 457.185 
	L 521.944, 434.529 
	L 533.369, 410.250 
	L 541.661, 384.730 
	L 546.690, 358.372 
	L 548.374, 331.591 
	L 546.690, 304.811 
	L 541.661, 278.453 
	L 533.369, 252.933 
	L 521.944, 228.653 
	L 507.566, 205.997 
" />
<path d="M 507.566, 205.997 
	L 490.462, 185.321 
	L 470.901, 166.953 
	L 449.193, 151.181 
	L 425.679, 138.253 
	L 400.730, 128.375 
	L 374.740, 121.703 
" />
<path d="M 545.163, 337.969 
	L 545.162, 337.969 
	L 543.514, 311.778 
	L 538.596, 285.999 
	L 530.487, 261.041 
	L 519.314, 237.296 
	L 505.252, 215.138 
	L 488.524, 194.917 
	L 469.393, 176.953 
	L 448.162, 161.527 
	L 425.165, 148.885 
" />
<path d="M 425.165, 148.885 
	L 400.765, 139.224 
	L 375.347, 132.698 
	L 349.311, 129.409 
	L 323.067, 129.409 
	L 297.031, 132.698 
	L 271.613, 139.224 
	L 247.213, 148.885 
	L 224.216, 161.527 
	L 202.985, 176.953 
	L 183.854, 194.917 
" />
<path d="M 183.854, 194.917 
	L 167.126, 215.138 
	L 153.065, 237.296 
	L 141.891, 261.041 
" />
<path d="M 224.216, 514.410 
	L 224.216, 514.411 
	L 247.213, 527.054 
	L 271.613, 536.714 
	L 297.031, 543.240 
	L 323.067, 546.530 
	L 349.311, 546.530 
	L 375.347, 543.240 
	L 400.765, 536.714 
	L 425.165, 527.054 
	L 448.162, 514.411 
" />
<path d="M 448.162, 514.411 
	L 469.393, 498.986 
	L 488.524, 481.021 
	L 505.252, 460.800 
	L 519.314, 438.642 
	L 530.487, 414.897 
	L 538.596, 389.939 
	L 543.514, 364.161 
	L 545.162, 337.969 
	L 543.514, 311.778 
	L 538.596, 285.999 
" />
<path d="M 538.596, 285.999 
	L 530.487, 261.041 
	L 519.314, 237.296 
	L 505.252, 215.138 
	L 488.524, 194.917 
	L 469.393, 176.953 
	L 448.162, 161.527 
" />
<path d="M 529.722, 342.433 
	L 529.722, 342.434 
	L 528.110, 316.818 
	L 523.301, 291.608 
	L 515.370, 267.198 
	L 504.442, 243.975 
	L 490.689, 222.305 
	L 474.330, 202.529 
	L 455.620, 184.960 
	L 434.856, 169.874 
	L 412.365, 157.509 
" />
<path d="M 412.365, 157.509 
	L 388.502, 148.061 
	L 363.643, 141.678 
	L 338.180, 138.462 
	L 312.513, 138.462 
	L 287.050, 141.678 
	L 262.191, 148.061 
	L 238.328, 157.509 
	L 215.837, 169.874 
" />
<path d="M 120.972, 342.433 
	L 120.971, 342.434 
	L 122.583, 368.049 
	L 127.392, 393.260 
	L 135.323, 417.670 
	L 146.251, 440.892 
	L 160.004, 462.563 
	L 176.363, 482.338 
	L 195.073, 499.908 
	L 215.837, 514.994 
	L 238.328, 527.358 
" />
<path d="M 238.328, 527.358 
	L 262.191, 536.806 
	L 287.050, 543.189 
	L 312.513, 546.406 
	L 338.180, 546.406 
	L 363.643, 543.189 
	L 388.502, 536.806 
	L 412.365, 527.358 
	L 434.856, 514.994 
	L 455.620, 499.908 
	L 474.330, 482.338 
" />
<path d="M 474.330, 482.338 
	L 490.689, 462.563 
	L 504.442, 440.892 
	L 515.370, 417.670 
" />
<path d="M 523.526, 343.921 
	L 523.525, 343.922 
	L 521.948, 318.871 
	L 517.245, 294.214 
	L 509.489, 270.342 
	L 498.801, 247.630 
	L 485.351, 226.436 
" />
<path d="M 451.054, 189.912 
	L 451.053, 189.913 
	L 430.746, 175.158 
	L 408.750, 163.066 
	L 385.412, 153.826 
	L 361.099, 147.583 
	L 336.196, 144.437 
	L 311.095, 144.437 
	L 286.192, 147.583 
	L 261.879, 153.826 
	L 238.541, 163.066 
" />
<path d="M 238.541, 163.066 
	L 216.545, 175.158 
	L 196.238, 189.913 
	L 177.940, 207.095 
	L 161.940, 226.436 
	L 148.490, 247.630 
	L 137.803, 270.342 
	L 130.046, 294.214 
	L 125.343, 318.871 
	L 123.766, 343.922 
	L 125.343, 368.973 
" />
<path d="M 125.343, 368.973 
	L 130.046, 393.630 
	L 137.803, 417.502 
	L 148.490, 440.214 
	L 161.940, 461.408 
	L 177.940, 480.749 
	L 196.238, 497.931 
	L 216.545, 512.685 
	L 238.541, 524.778 
	L 261.879, 534.018 
	L 286.192, 540.261 
" />
<path d="M 286.192, 540.261 
	L 311.095, 543.407 
	L 336.196, 543.407 
	L 361.099, 540.261 
	L 385.412, 534.018 
	L 408.750, 524.778 
	L 430.746, 512.685 
	L 451.053, 497.931 
	L 469.351, 480.749 
	L 485.351, 461.408 
	L 498.801, 440.214 
" />
<path d="M 498.801, 440.214 
	L 509.489, 417.502 
	L 517.245, 393.630 
" />
<path d="M 533.018, 329.181 
	L 533.017, 329.182 
	L 531.476, 304.681 
	L 526.876, 280.568 
	L 519.289, 257.220 
	L 508.837, 235.008 
	L 495.683, 214.281 
	L 480.035, 195.365 
	L 462.140, 178.561 
	L 442.280, 164.131 
	L 420.768, 152.305 
" />
<path d="M 420.768, 152.305 
	L 397.943, 143.267 
	L 374.165, 137.163 
	L 349.810, 134.086 
	L 325.261, 134.086 
	L 300.906, 137.163 
	L 277.128, 143.267 
	L 254.303, 152.305 
	L 232.791, 164.131 
	L 212.931, 178.561 
	L 195.036, 195.365 
" />
<path d="M 195.036, 195.365 
	L 179.388, 214.281 
	L 166.234, 235.008 
	L 155.782, 257.220 
	L 148.195, 280.568 
" />
<path d="M 254.304, 506.058 
	L 254.303, 506.059 
	L 277.128, 515.096 
	L 300.906, 521.201 
	L 325.261, 524.278 
	L 349.810, 524.278 
	L 374.165, 521.201 
	L 397.943, 515.096 
	L 420.768, 506.059 
" />
<path d="M 480.036, 462.998 
	L 480.035, 462.998 
" />
<path d="M 480.036, 462.998 
	L 480.035, 462.998 
	L 495.683, 444.083 
	L 508.837, 423.356 
	L 519.289, 401.144 
	L 526.876, 377.796 
	L 531.476, 353.682 
	L 533.017, 329.182 
	L 531.476, 304.681 
" />
<path d="M 518.867, 336.126 
	L 518.866, 336.127 
	L 517.358, 312.165 
	L 512.860, 288.582 
	L 505.441, 265.748 
	L 495.218, 244.025 
	L 482.354, 223.754 
	L 467.050, 205.254 
	L 449.549, 188.819 
	L 430.125, 174.707 
	L 409.086, 163.141 
" />
<path d="M 409.086, 163.141 
	L 386.763, 154.303 
	L 363.509, 148.332 
	L 339.689, 145.323 
	L 315.681, 145.323 
" />
<path d="M 188.320, 205.253 
	L 188.320, 205.254 
	L 173.016, 223.754 
	L 160.152, 244.025 
	L 149.929, 265.748 
	L 142.510, 288.582 
	L 138.012, 312.165 
	L 136.504, 336.127 
	L 138.012, 360.088 
	L 142.510, 383.671 
	L 149.929, 406.505 
" />
<path d="M 149.929, 406.505 
	L 160.152, 428.229 
	L 173.016, 448.500 
	L 188.320, 466.999 
	L 205.822, 483.434 
	L 225.245, 497.546 
	L 246.284, 509.112 
	L 268.607, 517.951 
	L 291.862, 523.921 
	L 315.681, 526.930 
	L 339.689, 526.930 
" />
<path d="M 339.689, 526.930 
	L 363.509, 523.921 
	L 386.763, 517.951 
	L 409.086, 509.112 
	L 430.125, 497.546 
	L 449.549, 483.434 
	L 467.050, 466.999 
	L 482.354, 448.500 
	L 495.218, 428.229 
	L 505.441, 406.505 
	L 512.860, 383.671 
" />
<path d="M 512.860, 383.671 
	L 517.358, 360.088 
	L 518.866, 336.127 
	L 517.358, 312.165 
	L 512.860, 288.582 
	L 505.441, 265.748 
	L 495.218, 244.025 
	L 482.354, 223.754 
	L 467.050, 205.254 
	L 449.549, 188.819 
	L 430.125, 174.707 
" />
<path d="M 430.125, 174.707 
	L 409.086, 163.141 
	L 386.763, 154.303 
	L 363.509, 148.332 
	L 339.689, 145.323 
	L 315.681, 145.323 
	L 291.862, 148.332 
	L 268.607, 154.303 
" />
<path d="M 517.779, 340.307 
	L 517.779, 340.308 
	L 516.304, 316.874 
	L 511.904, 293.809 
	L 504.648, 271.478 
	L 494.651, 250.232 
	L 482.069, 230.406 
	L 467.102, 212.314 
	L 449.986, 196.241 
	L 430.990, 182.439 
	L 410.414, 171.128 
" />
<path d="M 410.414, 171.128 
	L 388.582, 162.484 
	L 365.839, 156.645 
	L 342.544, 153.702 
	L 319.063, 153.702 
	L 295.768, 156.645 
	L 273.025, 162.484 
	L 251.193, 171.128 
	L 230.617, 182.439 
	L 211.621, 196.241 
	L 194.504, 212.314 
" />
<path d="M 194.504, 212.314 
	L 179.537, 230.406 
	L 166.956, 250.232 
	L 156.958, 271.478 
	L 149.702, 293.809 
	L 145.303, 316.874 
" />
<path d="M 295.768, 523.970 
	L 295.768, 523.971 
	L 319.063, 526.914 
	L 342.544, 526.914 
	L 365.839, 523.971 
	L 388.582, 518.132 
	L 410.414, 509.488 
	L 430.990, 498.176 
	L 449.986, 484.374 
	L 467.102, 468.301 
	L 482.069, 450.209 
" />
<path d="M 482.069, 450.209 
	L 494.651, 430.384 
	L 504.648, 409.138 
	L 511.904, 386.807 
	L 516.304, 363.742 
	L 517.779, 340.308 
	L 516.304, 316.874 
	L 511.904, 293.809 
	L 504.648, 271.478 
	L 494.651, 250.232 
	L 482.069, 230.406 
" />
<path d="M 482.069, 230.406 
	L 467.102, 212.314 
	L 449.986, 196.241 
	L 430.990, 182.439 
	L 410.414, 171.128 
	L 388.582, 162.484 
" />
<path d="M 510.547, 342.929 
	L 510.547, 342.930 
	L 509.105, 320.011 
	L 504.802, 297.454 
	L 497.706, 275.614 
	L 487.928, 254.835 
	L 475.623, 235.446 
	L 460.986, 217.753 
	L 444.246, 202.032 
	L 425.667, 188.534 
" />
<path d="M 339.168, 160.428 
	L 339.167, 160.429 
	L 316.203, 160.429 
	L 293.420, 163.307 
	L 271.178, 169.018 
	L 249.827, 177.472 
	L 229.703, 188.534 
	L 211.124, 202.032 
	L 194.384, 217.753 
	L 179.747, 235.446 
	L 167.442, 254.835 
" />
<path d="M 167.442, 254.835 
	L 157.664, 275.614 
	L 150.569, 297.454 
	L 146.266, 320.011 
	L 144.823, 342.930 
	L 146.266, 365.849 
	L 150.569, 388.405 
	L 157.664, 410.246 
	L 167.442, 431.024 
	L 179.747, 450.413 
	L 194.384, 468.107 
" />
<path d="M 194.384, 468.107 
	L 211.124, 483.827 
	L 229.703, 497.325 
	L 249.827, 508.388 
	L 271.178, 516.842 
	L 293.420, 522.553 
	L 316.203, 525.431 
	L 339.167, 525.431 
	L 361.950, 522.553 
	L 384.192, 516.842 
	L 405.544, 508.388 
" />
<path d="M 405.544, 508.388 
	L 425.667, 497.325 
	L 444.246, 483.827 
	L 460.986, 468.107 
" />
<path d="M 503.335, 328.969 
	L 503.335, 328.969 
	L 501.924, 306.555 
	L 497.716, 284.494 
	L 490.776, 263.135 
	L 481.214, 242.813 
	L 469.180, 223.851 
	L 454.864, 206.546 
	L 438.492, 191.171 
	L 420.323, 177.970 
	L 400.642, 167.151 
" />
<path d="M 400.642, 167.151 
	L 379.760, 158.883 
	L 358.007, 153.298 
	L 335.726, 150.484 
	L 313.267, 150.484 
	L 290.985, 153.298 
	L 269.232, 158.883 
	L 248.350, 167.151 
	L 228.669, 177.970 
	L 210.500, 191.171 
	L 194.129, 206.546 
" />
<path d="M 194.129, 206.546 
	L 179.812, 223.851 
	L 167.778, 242.813 
	L 158.216, 263.135 
	L 151.276, 284.494 
" />
<path d="M 248.351, 490.786 
	L 248.350, 490.787 
	L 269.232, 499.055 
	L 290.985, 504.640 
	L 313.267, 507.455 
	L 335.726, 507.455 
	L 358.007, 504.640 
	L 379.760, 499.055 
	L 400.642, 490.787 
	L 420.323, 479.968 
	L 438.492, 466.767 
" />
<path d="M 438.492, 466.767 
	L 454.864, 451.393 
	L 469.180, 434.088 
	L 481.214, 415.125 
	L 490.776, 394.804 
" />
<path d="M 502.590, 335.701 
	L 502.589, 335.701 
	L 501.210, 313.780 
	L 497.094, 292.205 
	L 490.307, 271.315 
	L 480.955, 251.441 
	L 469.186, 232.895 
	L 455.185, 215.971 
	L 439.173, 200.935 
	L 421.403, 188.025 
	L 402.155, 177.443 
" />
<path d="M 402.155, 177.443 
	L 381.733, 169.357 
	L 360.459, 163.895 
	L 338.667, 161.143 
	L 316.703, 161.143 
	L 294.912, 163.895 
	L 273.637, 169.357 
	L 253.215, 177.443 
	L 233.967, 188.025 
	L 216.197, 200.935 
	L 200.186, 215.971 
" />
<path d="M 200.186, 215.971 
	L 186.185, 232.895 
	L 174.415, 251.441 
	L 165.063, 271.315 
	L 158.276, 292.205 
	L 154.160, 313.780 
	L 152.781, 335.701 
	L 154.160, 357.623 
	L 158.276, 379.198 
	L 165.063, 400.088 
	L 174.415, 419.962 
" />
<path d="M 174.415, 419.962 
	L 186.185, 438.508 
	L 200.186, 455.432 
	L 216.197, 470.468 
	L 233.967, 483.378 
	L 253.215, 493.960 
	L 273.637, 502.046 
	L 294.912, 507.508 
	L 316.703, 510.260 
	L 338.667, 510.260 
	L 360.459, 507.508 
" />
<path d="M 360.459, 507.508 
	L 381.733, 502.046 
	L 402.155, 493.960 
	L 421.403, 483.378 
	L 439.173, 470.468 
	L 455.185, 455.432 
	L 469.186, 438.508 
	L 480.955, 419.962 
	L 490.307, 400.088 
	L 497.094, 379.198 
	L 501.210, 357.623 
" />
<path d="M 501.210, 357.623 
" />
<path d="M 501.506, 329.323 
	L 501.506, 329.324 
	L 500.156, 307.884 
	L 496.131, 286.783 
" />
<path d="M 489.494, 266.353 
	L 489.493, 266.353 
	L 480.346, 246.917 
	L 468.836, 228.779 
	L 455.144, 212.227 
	L 439.484, 197.522 
	L 422.106, 184.896 
	L 403.281, 174.547 
	L 383.308, 166.639 
	L 362.502, 161.297 
	L 341.189, 158.605 
" />
<path d="M 341.189, 158.605 
	L 319.708, 158.605 
	L 298.396, 161.297 
	L 277.590, 166.639 
" />
<path d="M 180.552, 246.916 
	L 180.551, 246.917 
	L 171.405, 266.353 
	L 164.767, 286.783 
	L 160.741, 307.884 
	L 159.392, 329.324 
	L 160.741, 350.763 
	L 164.767, 371.864 
	L 171.405, 392.294 
" />
<path d="M 205.755, 446.419 
	L 205.754, 446.420 
	L 221.413, 461.125 
	L 238.792, 473.751 
	L 257.617, 484.100 
	L 277.590, 492.008 
	L 298.396, 497.350 
	L 319.708, 500.042 
	L 341.189, 500.042 
	L 362.502, 497.350 
	L 383.308, 492.008 
" />
<path d="M 383.308, 492.008 
	L 403.281, 484.100 
	L 422.106, 473.751 
	L 439.484, 461.125 
	L 455.144, 446.420 
	L 468.836, 429.868 
	L 480.346, 411.730 
	L 489.493, 392.294 
	L 496.131, 371.864 
	L 500.156, 350.763 
	L 501.506, 329.324 
" />
<path d="M 501.506, 329.324 
	L 500.156, 307.884 
	L 496.131, 286.783 
	L 489.493, 266.353 
	L 480.346, 246.917 
	L 468.836, 228.779 
	L 455.144, 212.227 
	L 439.484, 197.522 
	L 422.106, 184.896 
	L 403.281, 174.547 
	L 383.308, 166.639 
" />
<path d="M 383.308, 166.639 
	L 362.502, 161.297 
	L 341.189, 158.605 
	L 319.708, 158.605 
	L 298.396, 161.297 
	L 277.590, 166.639 
	L 257.617, 174.547 
	L 238.792, 184.896 
	L 221.413, 197.522 
	L 205.754, 212.227 
	L 192.061, 228.779 
" />
<path d="M 192.061, 228.779 
	L 180.551, 246.917 
	L 171.405, 266.353 
	L 164.767, 286.783 
" />
<path d="M 501.073, 342.787 
	L 501.073, 342.788 
	L 499.754, 321.821 
	L 495.817, 301.184 
	L 489.325, 281.203 
	L 480.380, 262.194 
	L 469.123, 244.456 
	L 455.731, 228.268 
	L 440.416, 213.887 
	L 423.420, 201.538 
	L 405.009, 191.417 
" />
<path d="M 405.009, 191.417 
	L 385.476, 183.683 
	L 365.127, 178.458 
	L 344.284, 175.825 
	L 323.275, 175.825 
	L 302.432, 178.458 
	L 282.083, 183.683 
	L 262.550, 191.417 
	L 244.140, 201.538 
	L 227.143, 213.887 
	L 211.828, 228.268 
" />
<path d="M 211.828, 228.268 
	L 198.437, 244.456 
	L 187.179, 262.194 
	L 178.234, 281.203 
	L 171.742, 301.184 
	L 167.805, 321.821 
	L 166.487, 342.788 
	L 167.805, 363.755 
	L 171.742, 384.392 
	L 178.234, 404.373 
	L 187.179, 423.382 
" />
<path d="M 187.179, 423.382 
	L 198.437, 441.121 
	L 211.828, 457.308 
	L 227.143, 471.689 
	L 244.140, 484.039 
	L 262.550, 494.160 
	L 282.083, 501.893 
	L 302.432, 507.118 
	L 323.275, 509.751 
	L 344.284, 509.751 
	L 365.127, 507.118 
" />
<path d="M 365.127, 507.118 
	L 385.476, 501.893 
	L 405.009, 494.160 
	L 423.420, 484.039 
" />
<path d="M 491.228, 335.205 
	L 491.227, 335.205 
	L 489.937, 314.700 
	L 486.087, 294.517 
	L 479.738, 274.976 
	L 470.989, 256.385 
	L 459.979, 239.037 
	L 446.883, 223.205 
	L 431.905, 209.139 
	L 415.282, 197.062 
	L 397.277, 187.164 
" />
<path d="M 397.277, 187.164 
	L 378.174, 179.600 
	L 358.272, 174.491 
	L 337.888, 171.916 
	L 317.341, 171.916 
	L 296.956, 174.491 
	L 277.055, 179.600 
	L 257.951, 187.164 
	L 239.946, 197.062 
	L 223.323, 209.139 
	L 208.346, 223.205 
" />
<path d="M 208.346, 223.205 
	L 195.249, 239.037 
	L 184.239, 256.385 
	L 175.491, 274.976 
	L 169.142, 294.517 
	L 165.292, 314.700 
	L 164.001, 335.205 
	L 165.292, 355.711 
	L 169.142, 375.894 
	L 175.491, 395.435 
	L 184.239, 414.026 
" />
<path d="M 184.239, 414.026 
	L 195.249, 431.374 
" />
<path d="M 459.980, 431.374 
	L 459.979, 431.374 
	L 470.989, 414.026 
	L 479.738, 395.435 
	L 486.087, 375.894 
	L 489.937, 355.711 
	L 491.227, 335.205 
	L 489.937, 314.700 
	L 486.087, 294.517 
	L 479.738, 274.976 
	L 470.989, 256.385 
" />
<path d="M 470.989, 256.385 
	L 459.979, 239.037 
	L 446.883, 223.205 
" />
<path d="M 483.092, 329.819 
	L 483.092, 329.820 
	L 481.830, 309.764 
	L 478.065, 290.026 
	L 471.855, 270.915 
	L 463.300, 252.733 
	L 452.532, 235.766 
	L 439.723, 220.283 
	L 425.075, 206.527 
	L 408.818, 194.716 
	L 391.209, 185.035 
" />
<path d="M 391.209, 185.035 
	L 372.526, 177.638 
	L 353.062, 172.641 
	L 333.126, 170.122 
	L 313.031, 170.122 
	L 293.095, 172.641 
	L 273.632, 177.638 
	L 254.949, 185.035 
	L 237.339, 194.716 
	L 221.083, 206.527 
	L 206.435, 220.283 
" />
<path d="M 206.435, 220.283 
	L 193.625, 235.766 
	L 182.858, 252.733 
	L 174.302, 270.915 
	L 168.092, 290.026 
	L 164.327, 309.764 
	L 163.066, 329.820 
	L 164.327, 349.875 
	L 168.092, 369.613 
	L 174.302, 388.724 
	L 182.858, 406.906 
" />
<path d="M 182.858, 406.906 
	L 193.625, 423.873 
	L 206.435, 439.356 
	L 221.083, 453.112 
	L 237.339, 464.923 
	L 254.949, 474.604 
	L 273.632, 482.001 
" />
<path d="M 489.281, 336.480 
	L 489.280, 336.481 
	L 488.047, 316.867 
	L 484.364, 297.563 
" />
<path d="M 478.291, 278.871 
	L 478.291, 278.872 
	L 469.923, 261.090 
	L 459.393, 244.497 
	L 446.866, 229.354 
	L 432.540, 215.901 
	L 416.641, 204.350 
	L 399.419, 194.882 
	L 381.147, 187.647 
	L 362.111, 182.760 
	L 342.614, 180.297 
" />
<path d="M 342.614, 180.297 
	L 322.961, 180.297 
	L 303.464, 182.760 
	L 284.428, 187.647 
	L 266.156, 194.882 
	L 248.934, 204.350 
	L 233.035, 215.901 
	L 218.709, 229.354 
	L 206.182, 244.497 
	L 195.652, 261.090 
	L 187.284, 278.872 
" />
<path d="M 187.284, 278.872 
	L 181.211, 297.563 
	L 177.528, 316.867 
	L 176.294, 336.481 
" />
<path d="M 303.464, 490.201 
	L 303.464, 490.202 
	L 322.961, 492.665 
	L 342.614, 492.665 
	L 362.111, 490.202 
	L 381.147, 485.315 
	L 399.419, 478.080 
	L 416.641, 468.612 
	L 432.540, 457.061 
	L 446.866, 443.608 
	L 459.393, 428.465 
" />
<path d="M 459.393, 428.465 
	L 469.923, 411.872 
	L 478.291, 394.090 
	L 484.364, 375.399 
	L 488.047, 356.095 
" />
<path d="M 489.311, 340.732 
	L 489.310, 340.733 
	L 488.103, 321.551 
" />
<path d="M 488.104, 321.550 
	L 488.103, 321.551 
	L 484.502, 302.671 
	L 478.562, 284.392 
	L 470.379, 267.000 
	L 460.080, 250.773 
	L 447.829, 235.963 
	L 433.818, 222.806 
	L 418.268, 211.509 
	L 401.426, 202.249 
	L 383.555, 195.174 
" />
<path d="M 383.555, 195.174 
	L 364.939, 190.394 
	L 345.870, 187.985 
	L 326.650, 187.985 
	L 307.581, 190.394 
	L 288.965, 195.174 
	L 271.094, 202.249 
	L 254.251, 211.509 
	L 238.702, 222.806 
	L 224.691, 235.963 
	L 212.440, 250.773 
" />
<path d="M 212.440, 250.773 
	L 202.141, 267.000 
" />
<path d="M 224.692, 445.502 
	L 224.691, 445.503 
" />
<path d="M 224.692, 445.502 
	L 224.691, 445.503 
	L 238.702, 458.660 
	L 254.251, 469.957 
	L 271.094, 479.217 
	L 288.965, 486.292 
	L 307.581, 491.072 
	L 326.650, 493.481 
	L 345.870, 493.481 
	L 364.939, 491.072 
	L 383.555, 486.292 
" />
<path d="M 383.555, 486.292 
	L 401.426, 479.217 
	L 418.268, 469.957 
	L 433.818, 458.660 
	L 447.829, 445.503 
	L 460.080, 430.693 
	L 470.379, 414.466 
	L 478.562, 397.074 
" />
<path d="M 486.439, 337.756 
	L 486.439, 337.757 
	L 485.259, 318.996 
	L 481.736, 300.532 
	L 475.928, 282.655 
	L 467.924, 265.646 
	L 457.852, 249.775 
	L 445.870, 235.291 
	L 432.167, 222.424 
	L 416.960, 211.375 
	L 400.488, 202.319 
" />
<path d="M 400.488, 202.319 
	L 383.010, 195.400 
	L 364.804, 190.725 
	L 346.155, 188.369 
	L 327.357, 188.369 
	L 308.708, 190.725 
	L 290.502, 195.400 
	L 273.024, 202.319 
	L 256.552, 211.375 
	L 241.345, 222.424 
	L 227.642, 235.291 
" />
<path d="M 227.642, 235.291 
	L 215.660, 249.775 
	L 205.588, 265.646 
	L 197.584, 282.655 
	L 191.776, 300.532 
	L 188.253, 318.996 
	L 187.073, 337.757 
	L 188.253, 356.517 
	L 191.776, 374.981 
	L 197.584, 392.859 
	L 205.588, 409.867 
" />
<path d="M 205.588, 409.867 
	L 215.660, 425.738 
	L 227.642, 440.222 
	L 241.345, 453.089 
	L 256.552, 464.138 
	L 273.024, 473.194 
	L 290.502, 480.113 
	L 308.708, 484.788 
	L 327.357, 487.144 
	L 346.155, 487.144 
	L 364.804, 484.788 
" />
<path d="M 364.804, 484.788 
	L 383.010, 480.113 
" />
<path d="M 478.469, 335.205 
	L 478.468, 335.205 
	L 477.315, 316.858 
	L 473.870, 298.800 
	L 468.189, 281.316 
	L 460.361, 264.682 
	L 450.511, 249.160 
	L 438.793, 234.994 
	L 425.391, 222.410 
	L 410.518, 211.604 
	L 394.408, 202.748 
" />
<path d="M 394.408, 202.748 
	L 377.315, 195.980 
	L 359.510, 191.409 
	L 341.271, 189.104 
	L 322.887, 189.104 
	L 304.648, 191.409 
	L 286.842, 195.980 
	L 269.749, 202.748 
	L 253.639, 211.604 
	L 238.766, 222.410 
	L 225.365, 234.994 
" />
<path d="M 225.365, 234.994 
	L 213.647, 249.160 
	L 203.796, 264.682 
	L 195.969, 281.316 
	L 190.288, 298.800 
	L 186.843, 316.858 
	L 185.689, 335.205 
	L 186.843, 353.553 
" />
<path d="M 359.510, 479.001 
	L 359.510, 479.002 
	L 377.315, 474.430 
	L 394.408, 467.663 
	L 410.518, 458.807 
	L 425.391, 448.001 
	L 438.793, 435.417 
	L 450.511, 421.251 
	L 460.361, 405.729 
	L 468.189, 389.095 
" />
<path d="M 476.028, 340.732 
	L 476.028, 340.733 
	L 474.899, 322.789 
	L 471.530, 305.128 
	L 465.974, 288.029 
	L 458.318, 271.760 
	L 448.685, 256.580 
	L 437.224, 242.727 
	L 424.118, 230.419 
	L 409.572, 219.851 
	L 393.817, 211.190 
" />
<path d="M 393.817, 211.190 
	L 377.100, 204.571 
	L 359.685, 200.100 
	L 341.848, 197.846 
	L 323.869, 197.846 
" />
<path d="M 228.493, 242.726 
	L 228.492, 242.727 
	L 217.032, 256.580 
	L 207.398, 271.760 
	L 199.743, 288.029 
	L 194.187, 305.128 
	L 190.818, 322.789 
	L 189.689, 340.733 
	L 190.818, 358.677 
" />
<path d="M 207.399, 409.705 
	L 207.398, 409.706 
	L 217.032, 424.886 
	L 228.492, 438.739 
	L 241.599, 451.047 
	L 256.144, 461.615 
	L 271.900, 470.276 
	L 288.617, 476.895 
	L 306.031, 481.366 
	L 323.869, 483.620 
	L 341.848, 483.620 
" />
<path d="M 341.848, 483.620 
	L 359.685, 481.366 
	L 377.100, 476.895 
	L 393.817, 470.276 
	L 409.572, 461.615 
	L 424.118, 451.047 
	L 437.224, 438.739 
	L 448.685, 424.886 
" />
<path d="M 462.461, 343.850 
	L 462.460, 343.851 
	L 461.356, 326.302 
	L 458.062, 309.030 
	L 452.628, 292.307 
	L 445.141, 276.396 
	L 435.719, 261.549 
	L 424.511, 248.001 
	L 411.693, 235.964 
	L 397.467, 225.629 
	L 382.059, 217.157 
" />
<path d="M 382.059, 217.157 
	L 365.710, 210.684 
	L 348.678, 206.311 
	L 331.233, 204.108 
	L 313.649, 204.108 
	L 296.204, 206.311 
	L 279.172, 210.684 
	L 262.823, 217.157 
" />
<path d="M 183.526, 326.301 
	L 183.526, 326.302 
	L 182.422, 343.851 
	L 183.526, 361.400 
	L 186.820, 378.673 
	L 192.254, 395.396 
" />
<path d="M 209.164, 426.152 
	L 209.163, 426.153 
	L 220.371, 439.701 
	L 233.189, 451.738 
	L 247.415, 462.074 
	L 262.823, 470.545 
	L 279.172, 477.018 
	L 296.204, 481.391 
	L 313.649, 483.594 
	L 331.233, 483.594 
	L 348.678, 481.391 
" />
<path d="M 348.678, 481.391 
	L 365.710, 477.018 
	L 382.059, 470.545 
	L 397.467, 462.074 
	L 411.693, 451.738 
	L 424.511, 439.701 
	L 435.719, 426.153 
	L 445.141, 411.306 
	L 452.628, 395.396 
	L 458.062, 378.673 
	L 461.356, 361.400 
" />
<path d="M 461.356, 361.400 
	L 462.460, 343.851 
	L 461.356, 326.302 
	L 458.062, 309.030 
	L 452.628, 292.307 
	L 445.141, 276.396 
	L 435.719, 261.549 
	L 424.511, 248.001 
	L 411.693, 235.964 
	L 397.467, 225.629 
	L 382.059, 217.157 
" />
<path d="M 382.059, 217.157 
	L 365.710, 210.684 
	L 348.678, 206.311 
	L 331.233, 204.108 
	L 313.649, 204.108 
" />
<path d="M 464.979, 342.858 
	L 464.978, 342.859 
	L 463.899, 325.696 
	L 460.677, 308.804 
	L 455.363, 292.448 
	L 448.040, 276.888 
	L 438.826, 262.368 
	L 427.864, 249.118 
	L 415.328, 237.346 
	L 401.415, 227.237 
	L 386.345, 218.952 
" />
<path d="M 386.345, 218.952 
	L 370.356, 212.622 
	L 353.699, 208.345 
	L 336.638, 206.190 
	L 319.441, 206.190 
	L 302.380, 208.345 
	L 285.723, 212.622 
	L 269.734, 218.952 
	L 254.664, 227.237 
	L 240.751, 237.346 
	L 228.215, 249.118 
" />
<path d="M 228.215, 249.118 
	L 217.253, 262.368 
	L 208.039, 276.888 
" />
<path d="M 228.216, 436.599 
	L 228.215, 436.600 
	L 240.751, 448.372 
	L 254.664, 458.481 
	L 269.734, 466.766 
	L 285.723, 473.096 
	L 302.380, 477.373 
	L 319.441, 479.528 
	L 336.638, 479.528 
	L 353.699, 477.373 
	L 370.356, 473.096 
" />
<path d="M 370.356, 473.096 
	L 386.345, 466.766 
" />
<path d="M 448.041, 408.829 
	L 448.040, 408.830 
	L 455.363, 393.270 
	L 460.677, 376.914 
	L 463.899, 360.022 
" />
<path d="M 456.793, 339.528 
	L 456.793, 339.528 
	L 455.737, 322.743 
	L 452.585, 306.222 
	L 447.388, 290.227 
	L 440.227, 275.009 
	L 431.215, 260.808 
	L 420.494, 247.849 
	L 408.234, 236.336 
	L 394.627, 226.450 
	L 379.889, 218.348 
" />
<path d="M 379.889, 218.348 
	L 364.252, 212.156 
	L 347.961, 207.974 
	L 331.275, 205.866 
	L 314.457, 205.866 
	L 297.771, 207.974 
	L 281.480, 212.156 
	L 265.843, 218.348 
	L 251.105, 226.450 
	L 237.498, 236.336 
	L 225.238, 247.849 
" />
<path d="M 225.238, 247.849 
	L 214.518, 260.808 
	L 205.505, 275.009 
	L 198.344, 290.227 
	L 193.147, 306.222 
	L 189.996, 322.743 
	L 188.940, 339.528 
	L 189.996, 356.314 
	L 193.147, 372.835 
	L 198.344, 388.830 
	L 205.505, 404.048 
" />
<path d="M 205.505, 404.048 
	L 214.518, 418.249 
	L 225.238, 431.207 
	L 237.498, 442.721 
	L 251.105, 452.607 
	L 265.843, 460.709 
	L 281.480, 466.900 
	L 297.771, 471.083 
	L 314.457, 473.190 
	L 331.275, 473.190 
	L 347.961, 471.083 
" />
<path d="M 347.961, 471.083 
	L 364.252, 466.900 
	L 379.889, 460.709 
	L 394.627, 452.607 
	L 408.234, 442.721 
	L 420.494, 431.207 
	L 431.215, 418.249 
	L 440.227, 404.048 
	L 447.388, 388.830 
	L 452.585, 372.835 
	L 455.737, 356.314 
" />
<path d="M 455.737, 356.314 
	L 456.793, 339.528 
" />
<path d="M 465.115, 335.417 
	L 465.114, 335.418 
	L 464.081, 319.002 
	L 460.999, 302.844 
	L 455.916, 287.201 
	L 448.913, 272.318 
	L 440.099, 258.430 
	L 429.614, 245.756 
	L 417.624, 234.496 
	L 404.317, 224.828 
	L 389.903, 216.904 
" />
<path d="M 389.903, 216.904 
	L 374.609, 210.849 
	L 358.677, 206.758 
	L 342.358, 204.696 
	L 325.910, 204.696 
	L 309.591, 206.758 
	L 293.659, 210.849 
	L 278.365, 216.904 
	L 263.951, 224.828 
	L 250.644, 234.496 
	L 238.654, 245.756 
" />
<path d="M 238.654, 245.756 
	L 228.168, 258.430 
	L 219.355, 272.318 
	L 212.352, 287.201 
	L 207.269, 302.844 
	L 204.187, 319.002 
	L 203.153, 335.418 
	L 204.187, 351.834 
	L 207.269, 367.992 
	L 212.352, 383.635 
	L 219.355, 398.518 
" />
<path d="M 219.355, 398.518 
	L 228.168, 412.406 
	L 238.654, 425.080 
	L 250.644, 436.340 
	L 263.951, 446.008 
	L 278.365, 453.932 
	L 293.659, 459.987 
	L 309.591, 464.078 
	L 325.910, 466.140 
	L 342.358, 466.140 
	L 358.677, 464.078 
" />
<path d="M 358.677, 464.078 
	L 374.609, 459.987 
	L 389.903, 453.932 
	L 404.317, 446.008 
	L 417.624, 436.340 
	L 429.614, 425.080 
	L 440.099, 412.406 
	L 448.913, 398.518 
	L 455.916, 383.635 
" />
<path d="M 451.178, 330.811 
	L 451.177, 330.812 
	L 450.167, 314.757 
	L 447.153, 298.955 
	L 442.182, 283.655 
	L 435.332, 269.100 
	L 426.713, 255.517 
	L 416.458, 243.122 
	L 404.732, 232.110 
	L 391.718, 222.654 
	L 377.620, 214.904 
" />
<path d="M 377.620, 214.904 
	L 362.663, 208.983 
	L 347.082, 204.982 
	L 331.122, 202.966 
	L 315.035, 202.966 
	L 299.076, 204.982 
	L 283.494, 208.983 
	L 268.537, 214.904 
	L 254.440, 222.654 
	L 241.425, 232.110 
	L 229.699, 243.122 
" />
<path d="M 229.699, 243.122 
	L 219.445, 255.517 
	L 210.825, 269.100 
	L 203.975, 283.655 
	L 199.005, 298.955 
	L 195.990, 314.757 
	L 194.980, 330.812 
	L 195.990, 346.866 
	L 199.005, 362.669 
	L 203.975, 377.968 
	L 210.825, 392.523 
" />
<path d="M 210.825, 392.523 
	L 219.445, 406.106 
	L 229.699, 418.501 
	L 241.425, 429.513 
	L 254.440, 438.969 
	L 268.537, 446.719 
	L 283.494, 452.641 
	L 299.076, 456.642 
	L 315.035, 458.658 
	L 331.122, 458.658 
	L 347.082, 456.642 
" />
<path d="M 347.082, 456.642 
	L 362.663, 452.641 
	L 377.620, 446.719 
	L 391.718, 438.969 
	L 404.732, 429.513 
	L 416.458, 418.501 
	L 426.713, 406.106 
" />
<path d="M 463.100, 339.244 
	L 463.100, 339.245 
	L 462.112, 323.543 
	L 459.164, 308.088 
	L 454.302, 293.126 
	L 447.603, 278.890 
	L 439.173, 265.607 
	L 429.144, 253.485 
	L 417.676, 242.714 
	L 404.948, 233.467 
	L 391.161, 225.888 
" />
<path d="M 391.161, 225.888 
	L 376.532, 220.096 
	L 361.294, 216.184 
	L 345.685, 214.211 
	L 329.953, 214.211 
	L 314.344, 216.184 
	L 299.105, 220.096 
	L 284.477, 225.888 
	L 270.690, 233.467 
	L 257.962, 242.714 
	L 246.494, 253.485 
" />
<path d="M 246.494, 253.485 
	L 236.465, 265.607 
	L 228.035, 278.890 
	L 221.336, 293.126 
	L 216.474, 308.088 
	L 213.526, 323.543 
	L 212.538, 339.245 
	L 213.526, 354.947 
	L 216.474, 370.401 
	L 221.336, 385.364 
" />
<path d="M 404.948, 445.022 
	L 404.948, 445.022 
	L 417.676, 435.775 
	L 429.144, 425.005 
	L 439.173, 412.883 
	L 447.603, 399.599 
	L 454.302, 385.364 
	L 459.164, 370.401 
	L 462.112, 354.947 
	L 463.100, 339.245 
	L 462.112, 323.543 
" />
<path d="M 462.112, 323.543 
	L 459.164, 308.088 
	L 454.302, 293.126 
	L 447.603, 278.890 
	L 439.173, 265.607 
	L 429.144, 253.485 
	L 417.676, 242.714 
	L 404.948, 233.467 
	L 391.161, 225.888 
	L 376.532, 220.096 
	L 361.294, 216.184 
" />
<path d="M 361.294, 216.184 
	L 345.685, 214.211 
	L 329.953, 214.211 
" />
<path d="M 457.084, 338.465 
	L 457.083, 338.465 
	L 456.117, 323.109 
	L 453.234, 307.995 
	L 448.479, 293.361 
	L 441.928, 279.439 
	L 433.683, 266.448 
	L 423.875, 254.592 
	L 412.659, 244.059 
	L 400.211, 235.015 
	L 386.727, 227.602 
" />
<path d="M 386.727, 227.602 
	L 372.421, 221.938 
	L 357.518, 218.111 
	L 342.252, 216.183 
	L 326.866, 216.183 
	L 311.601, 218.111 
	L 296.697, 221.938 
" />
<path d="M 220.640, 293.360 
	L 220.639, 293.361 
	L 215.884, 307.995 
	L 213.001, 323.109 
	L 212.035, 338.465 
	L 213.001, 353.822 
	L 215.884, 368.936 
	L 220.639, 383.569 
	L 227.191, 397.492 
	L 235.435, 410.483 
	L 245.243, 422.339 
" />
<path d="M 245.243, 422.339 
	L 256.459, 432.872 
	L 268.907, 441.916 
	L 282.391, 449.328 
" />
<path d="M 372.422, 454.992 
	L 372.421, 454.993 
	L 386.727, 449.328 
	L 400.211, 441.916 
	L 412.659, 432.872 
	L 423.875, 422.339 
	L 433.683, 410.483 
	L 441.928, 397.492 
	L 448.479, 383.569 
	L 453.234, 368.936 
	L 456.117, 353.822 
" />
<path d="M 456.117, 353.822 
	L 457.083, 338.465 
	L 456.117, 323.109 
	L 453.234, 307.995 
	L 448.479, 293.361 
	L 441.928, 279.439 
	L 433.683, 266.448 
	L 423.875, 254.592 
	L 412.659, 244.059 
	L 400.211, 235.015 
	L 386.727, 227.602 
" />
<path d="M 386.727, 227.602 
	L 372.421, 221.938 
	L 357.518, 218.111 
	L 342.252, 216.183 
" />
<path d="M 448.365, 332.795 
	L 448.364, 332.796 
	L 447.419, 317.777 
	L 444.599, 302.996 
	L 439.949, 288.684 
	L 433.542, 275.068 
	L 425.479, 262.362 
	L 415.887, 250.768 
" />
<path d="M 379.557, 224.371 
	L 379.556, 224.371 
	L 365.564, 218.832 
	L 350.989, 215.089 
	L 336.059, 213.204 
	L 321.012, 213.204 
	L 306.082, 215.089 
	L 291.507, 218.832 
	L 277.515, 224.371 
	L 264.328, 231.621 
	L 252.154, 240.467 
" />
<path d="M 252.154, 240.467 
	L 241.184, 250.768 
	L 231.592, 262.362 
" />
<path d="M 208.707, 332.795 
	L 208.706, 332.796 
	L 209.652, 347.815 
	L 212.472, 362.596 
	L 217.122, 376.908 
	L 223.529, 390.524 
	L 231.592, 403.230 
	L 241.184, 414.824 
	L 252.154, 425.125 
	L 264.328, 433.971 
	L 277.515, 441.220 
" />
<path d="M 277.515, 441.220 
	L 291.507, 446.760 
	L 306.082, 450.502 
	L 321.012, 452.388 
	L 336.059, 452.388 
	L 350.989, 450.502 
	L 365.564, 446.760 
	L 379.556, 441.220 
	L 392.743, 433.971 
	L 404.917, 425.125 
	L 415.887, 414.824 
" />
<path d="M 415.887, 414.824 
	L 425.479, 403.230 
	L 433.542, 390.524 
	L 439.949, 376.908 
	L 444.599, 362.596 
" />
<path d="M 444.383, 333.575 
	L 444.382, 333.575 
	L 443.458, 318.887 
" />
<path d="M 443.458, 318.886 
	L 443.458, 318.887 
" />
<path d="M 443.458, 318.886 
	L 443.458, 318.887 
	L 440.700, 304.431 
	L 436.152, 290.434 
	L 429.885, 277.118 
	L 421.999, 264.691 
	L 412.619, 253.351 
	L 401.890, 243.277 
	L 389.984, 234.627 
	L 377.087, 227.536 
	L 363.404, 222.119 
" />
<path d="M 363.404, 222.119 
	L 349.149, 218.459 
	L 334.548, 216.614 
	L 319.830, 216.614 
	L 305.229, 218.459 
	L 290.974, 222.119 
	L 277.291, 227.536 
" />
<path d="M 213.679, 304.430 
	L 213.678, 304.431 
" />
<path d="M 213.679, 304.430 
	L 213.678, 304.431 
	L 210.920, 318.887 
	L 209.996, 333.575 
	L 210.920, 348.264 
	L 213.678, 362.720 
	L 218.226, 376.717 
	L 224.493, 390.033 
	L 232.379, 402.460 
	L 241.759, 413.800 
" />
<path d="M 290.975, 445.032 
	L 290.974, 445.032 
	L 305.229, 448.692 
	L 319.830, 450.537 
	L 334.548, 450.537 
	L 349.149, 448.692 
	L 363.404, 445.032 
	L 377.087, 439.615 
	L 389.984, 432.525 
	L 401.890, 423.874 
	L 412.619, 413.800 
" />
<path d="M 412.619, 413.800 
	L 421.999, 402.460 
	L 429.885, 390.033 
	L 436.152, 376.717 
	L 440.700, 362.720 
	L 443.458, 348.264 
	L 444.382, 333.575 
	L 443.458, 318.887 
	L 440.700, 304.431 
	L 436.152, 290.434 
	L 429.885, 277.118 
" />
<path d="M 429.885, 277.118 
	L 421.999, 264.691 
	L 412.619, 253.351 
	L 401.890, 243.277 
" />
<path d="M 447.544, 338.535 
	L 447.543, 338.536 
	L 446.640, 324.171 
	L 443.942, 310.033 
	L 439.495, 296.344 
	L 433.366, 283.320 
	L 425.654, 271.167 
	L 416.480, 260.077 
	L 405.987, 250.224 
	L 394.342, 241.764 
	L 381.730, 234.830 
" />
<path d="M 381.730, 234.830 
	L 368.347, 229.531 
	L 354.406, 225.952 
	L 340.126, 224.148 
	L 325.733, 224.148 
	L 311.452, 225.952 
	L 297.512, 229.531 
	L 284.129, 234.830 
	L 271.516, 241.764 
	L 259.871, 250.224 
	L 249.379, 260.077 
" />
<path d="M 249.379, 260.077 
	L 240.204, 271.167 
	L 232.492, 283.320 
	L 226.363, 296.344 
	L 221.916, 310.033 
" />
<path d="M 284.129, 442.242 
	L 284.129, 442.242 
	L 297.512, 447.541 
	L 311.452, 451.120 
	L 325.733, 452.924 
	L 340.126, 452.924 
	L 354.406, 451.120 
	L 368.347, 447.541 
	L 381.730, 442.242 
	L 394.342, 435.308 
	L 405.987, 426.848 
" />
<path d="M 405.987, 426.848 
	L 416.480, 416.995 
	L 425.654, 405.905 
	L 433.366, 393.752 
	L 439.495, 380.728 
	L 443.942, 367.039 
	L 446.640, 352.901 
	L 447.543, 338.536 
	L 446.640, 324.171 
	L 443.942, 310.033 
	L 439.495, 296.344 
" />
<path d="M 439.495, 296.344 
	L 433.366, 283.320 
" />
<path d="M 443.109, 333.717 
	L 443.108, 333.717 
	L 442.225, 319.668 
	L 439.587, 305.841 
	L 435.237, 292.453 
	L 429.243, 279.716 
	L 421.701, 267.831 
	L 412.728, 256.985 
	L 402.467, 247.348 
	L 391.078, 239.074 
	L 378.743, 232.293 
" />
<path d="M 378.743, 232.293 
	L 365.654, 227.110 
	L 352.020, 223.610 
	L 338.054, 221.846 
	L 323.977, 221.846 
	L 310.012, 223.610 
	L 296.377, 227.110 
" />
<path d="M 226.795, 292.453 
	L 226.794, 292.453 
	L 222.445, 305.841 
	L 219.807, 319.668 
" />
<path d="M 218.924, 333.717 
	L 218.923, 333.717 
	L 219.807, 347.766 
	L 222.445, 361.594 
	L 226.794, 374.981 
	L 232.788, 387.719 
	L 240.331, 399.604 
	L 249.304, 410.450 
	L 259.565, 420.086 
	L 270.953, 428.360 
	L 283.289, 435.142 
" />
<path d="M 283.289, 435.142 
	L 296.377, 440.324 
	L 310.012, 443.825 
	L 323.977, 445.589 
	L 338.054, 445.589 
	L 352.020, 443.825 
	L 365.654, 440.324 
	L 378.743, 435.142 
" />
<path d="M 442.225, 347.766 
	L 442.225, 347.766 
	L 443.108, 333.717 
	L 442.225, 319.668 
	L 439.587, 305.841 
	L 435.237, 292.453 
	L 429.243, 279.716 
	L 421.701, 267.831 
	L 412.728, 256.985 
	L 402.467, 247.348 
	L 391.078, 239.074 
" />
<path d="M 391.078, 239.074 
	L 378.743, 232.293 
	L 365.654, 227.110 
	L 352.020, 223.610 
	L 338.054, 221.846 
	L 323.977, 221.846 
	L 310.012, 223.610 
	L 296.377, 227.110 
	L 283.289, 232.293 
	L 270.953, 239.074 
	L 259.565, 247.348 
" />
<path d="M 259.565, 247.348 
	L 249.304, 256.985 
	L 240.331, 267.831 
	L 232.788, 279.716 
" />
<path d="M 445.533, 340.449 
	L 445.532, 340.450 
	L 444.668, 326.710 
	L 442.088, 313.187 
	L 437.834, 300.093 
	L 431.972, 287.637 
	L 424.595, 276.012 
	L 415.820, 265.405 
	L 405.785, 255.981 
	L 394.647, 247.888 
	L 382.582, 241.256 
" />
<path d="M 382.582, 241.256 
	L 369.782, 236.188 
" />
<path d="M 302.029, 236.188 
	L 302.029, 236.188 
	L 289.229, 241.256 
	L 277.165, 247.888 
	L 266.027, 255.981 
	L 255.991, 265.405 
	L 247.216, 276.012 
	L 239.839, 287.637 
	L 233.977, 300.093 
	L 229.723, 313.187 
	L 227.143, 326.710 
" />
<path d="M 227.143, 326.710 
	L 226.279, 340.450 
	L 227.143, 354.189 
	L 229.723, 367.712 
	L 233.977, 380.806 
" />
<path d="M 289.230, 439.642 
	L 289.229, 439.643 
	L 302.029, 444.711 
	L 315.364, 448.134 
	L 329.022, 449.860 
	L 342.789, 449.860 
	L 356.448, 448.134 
	L 369.782, 444.711 
	L 382.582, 439.643 
" />
<path d="M 415.821, 415.493 
	L 415.820, 415.494 
	L 424.595, 404.887 
	L 431.972, 393.263 
	L 437.834, 380.806 
	L 442.088, 367.712 
	L 444.668, 354.189 
	L 445.532, 340.450 
	L 444.668, 326.710 
	L 442.088, 313.187 
	L 437.834, 300.093 
" />
<path d="M 437.834, 300.093 
	L 431.972, 287.637 
	L 424.595, 276.012 
	L 415.820, 265.405 
	L 405.785, 255.981 
	L 394.647, 247.888 
	L 382.582, 241.256 
	L 369.782, 236.188 
	L 356.448, 232.765 
	L 342.789, 231.039 
	L 329.022, 231.039 
" />
<path d="M 329.022, 231.039 
	L 315.364, 232.765 
" />
<path d="M 1118.551, 676.355 
	L 1119.260, 677.418 
	L 1119.260, 678.481 
	L 1118.551, 679.544 
	L 1117.134, 679.544 
	L 1116.425, 678.481 
	L 1116.425, 677.418 
	L 1117.134, 676.355 
" />
<path d="M 1115.008, 672.103 
	L 1115.717, 672.103 
" />
<path d="M 1116.425, 673.166 
	L 1116.425, 672.103 
	L 1119.260, 672.103 
" />
<path d="M 1119.260, 673.166 
	L 1119.260, 671.040 
" />
<path d="M 1116.425, 667.851 
	L 1119.260, 667.851 
" />
<path d="M 1117.843, 667.851 
	L 1116.425, 665.725 
	L 1116.425, 664.662 
" />
<path d="M 1118.551, 657.221 
	L 1119.260, 658.284 
	L 1119.260, 659.347 
	L 1118.551, 660.410 
	L 1117.134, 660.410 
	L 1116.425, 659.347 
	L 1116.425, 658.284 
	L 1117.134, 657.221 
" />
<path d="M 1119.260, 655.095 
	L 1115.008, 655.095 
" />
<path d="M 1119.260, 651.906 
	L 1117.843, 655.095 
	L 1116.425, 651.906 
" />
<path d="M 1115.008, 647.654 
	L 1115.008, 646.591 
	L 1119.260, 646.591 
" />
<path d="M 1119.260, 647.654 
	L 1119.260, 645.528 
" />
<path d="M 1117.843, 642.339 
	L 1117.843, 639.150 
	L 1117.134, 638.087 
	L 1116.425, 639.150 
	L 1116.425, 641.276 
	L 1117.134, 642.339 
	L 1118.551, 642.339 
	L 1119.260, 641.276 
	L 1119.260, 638.087 
" />
<path d="M 1116.425, 632.772 
	L 1116.425, 634.898 
	L 1117.134, 635.961 
	L 1117.843, 634.898 
	L 1117.843, 633.835 
	L 1118.551, 632.772 
	L 1119.260, 633.835 
	L 1119.260, 635.961 
" />
<path d="M 1119.260, 627.457 
	L 1119.260, 628.520 
	L 1118.551, 628.520 
	L 1118.551, 627.457 
	L 1119.260, 627.457 
" />
<path d="M 1120.677, 623.205 
	L 1116.425, 623.205 
	L 1116.425, 621.079 
	L 1117.134, 620.016 
	L 1118.551, 620.016 
	L 1119.260, 621.079 
	L 1119.260, 623.205 
" />
<path d="M 1120.677, 616.828 
	L 1117.843, 612.576 
	L 1116.425, 612.576 
" />
<path d="M 1116.425, 616.828 
	L 1117.843, 616.828 
	L 1119.260, 614.702 
" />
<path d="M 1115.717, 584.938 
	L 1115.008, 583.875 
	L 1115.008, 581.749 
	L 1115.717, 580.686 
	L 1116.425, 580.686 
	L 1118.551, 584.938 
	L 1119.260, 584.938 
	L 1119.260, 580.686 
" />
<path d="M 1118.551, 578.560 
	L 1119.260, 577.497 
	L 1119.260, 575.371 
	L 1118.551, 574.308 
	L 1115.717, 574.308 
	L 1115.008, 575.371 
	L 1115.008, 577.497 
	L 1115.717, 578.560 
	L 1118.551, 578.560 
" />
<path d="M 1119.260, 571.119 
	L 1119.260, 568.993 
" />
<path d="M 1119.260, 570.056 
	L 1115.008, 570.056 
	L 1115.717, 571.119 
" />
<path d="M 1119.260, 564.741 
	L 1119.260, 563.678 
	L 1117.843, 561.552 
	L 1115.717, 561.552 
	L 1115.008, 562.615 
	L 1115.008, 564.741 
	L 1115.717, 565.804 
	L 1116.425, 565.804 
	L 1117.134, 564.741 
	L 1117.134, 561.552 
" />
<path d="M 1117.134, 559.426 
	L 1117.134, 555.174 
" />
<path d="M 1118.551, 553.048 
	L 1119.260, 551.985 
	L 1119.260, 549.859 
	L 1118.551, 548.796 
	L 1115.717, 548.796 
	L 1115.008, 549.859 
	L 1115.008, 551.985 
	L 1115.717, 553.048 
	L 1118.551, 553.048 
" />
<path d="M 1117.134, 543.481 
	L 1116.425, 542.418 
	L 1115.717, 542.418 
	L 1115.008, 543.481 
	L 1115.008, 545.607 
	L 1115.717, 546.670 
	L 1116.425, 546.670 
	L 1117.134, 545.607 
	L 1117.134, 543.481 
	L 1117.843, 542.418 
	L 1118.551, 542.418 
" />
<path d="M 1118.551, 542.418 
	L 1119.260, 543.481 
	L 1119.260, 545.607 
	L 1118.551, 546.670 
	L 1117.843, 546.670 
	L 1117.134, 545.607 
" />
<path d="M 1117.134, 540.292 
	L 1117.134, 536.040 
" />
<path d="M 1118.551, 533.914 
	L 1119.260, 532.851 
	L 1119.260, 530.725 
	L 1118.551, 529.662 
	L 1115.717, 529.662 
	L 1115.008, 530.725 
	L 1115.008, 532.851 
	L 1115.717, 533.914 
	L 1118.551, 533.914 
" />
<path d="M 1119.260, 526.473 
	L 1119.260, 525.410 
	L 1117.843, 523.284 
	L 1115.717, 523.284 
	L 1115.008, 524.347 
	L 1115.008, 526.473 
	L 1115.717, 527.536 
	L 1116.425, 527.536 
	L 1117.134, 526.473 
	L 1117.134, 523.284 
" />
<path d="M 1115.717, 514.780 
	L 1115.008, 513.717 
	L 1115.008, 511.591 
	L 1115.717, 510.528 
	L 1116.425, 510.528 
	L 1118.551, 514.780 
	L 1119.260, 514.780 
	L 1119.260, 510.528 
" />
<path d="M 1118.551, 508.402 
	L 1119.260, 507.339 
	L 1119.260, 505.213 
	L 1118.551, 504.150 
	L 1115.717, 504.150 
	L 1115.008, 505.213 
	L 1115.008, 507.339 
	L 1115.717, 508.402 
	L 1118.551, 508.402 
" />
<path d="M 1117.134, 500.961 
	L 1116.425, 500.961 
	L 1116.425, 499.898 
	L 1117.134, 499.898 
	L 1117.134, 500.961 
" />
<path d="M 1118.551, 500.961 
	L 1118.551, 499.898 
	L 1119.260, 499.898 
	L 1119.260, 500.961 
	L 1118.551, 500.961 
" />
<path d="M 1115.717, 495.646 
	L 1115.008, 494.583 
	L 1115.008, 492.457 
	L 1115.717, 491.394 
	L 1116.425, 491.394 
	L 1118.551, 495.646 
	L 1119.260, 495.646 
	L 1119.260, 491.394 
" />
<path d="M 1115.008, 485.016 
	L 1115.008, 489.268 
	L 1116.425, 489.268 
	L 1116.425, 486.079 
	L 1117.134, 485.016 
	L 1118.551, 485.016 
	L 1119.260, 486.079 
	L 1119.260, 488.205 
	L 1118.551, 489.268 
" />
<path d="M 36.568, 673.520 
	L 36.567, 673.520 
	L 34.724, 673.520 
	L 34.724, 646.166 
	L 34.724, 625.544 
	L 21.685, 625.544 
	L 18.425, 625.544 
	L 15.236, 626.855 
	L 12.047, 628.166 
	L 9.390, 630.434 
	L 6.732, 632.702 
	L 4.748, 635.784 
" />
<path d="M 4.748, 635.784 
	L 2.764, 638.867 
	L 1.843, 642.481 
	L 1.843, 673.520 
	L 0.000, 673.520 
	L 0.000, 605.489 
	L 1.843, 605.489 
	L 1.843, 637.095 
	L 3.260, 634.048 
	L 5.386, 631.532 
	L 7.512, 629.016 
	L 10.098, 627.280 
" />
<path d="M 10.098, 627.280 
	L 12.685, 625.544 
	L 15.661, 624.587 
	L 18.638, 623.631 
	L 21.614, 623.631 
	L 28.984, 623.631 
	L 32.776, 629.300 
	L 36.567, 634.969 
	L 36.567, 646.166 
	L 36.567, 673.520 
" />
<path d="M 47.764, 673.520 
	L 47.764, 673.520 
	L 44.575, 673.520 
	L 41.776, 672.280 
	L 38.976, 671.040 
	L 36.921, 668.914 
	L 34.866, 666.788 
	L 33.697, 663.918 
	L 32.528, 661.048 
	L 32.528, 657.788 
	L 32.528, 654.528 
	L 33.909, 651.835 
" />
<path d="M 33.909, 651.835 
	L 35.291, 649.142 
	L 37.878, 647.229 
	L 40.465, 645.316 
	L 44.043, 644.217 
	L 47.622, 643.119 
	L 51.945, 643.119 
	L 55.984, 643.119 
	L 60.165, 643.863 
	L 64.346, 644.607 
	L 67.677, 646.024 
	L 67.677, 640.993 
" />
<path d="M 67.677, 640.993 
	L 67.677, 637.520 
	L 66.614, 634.650 
	L 65.551, 631.780 
	L 63.496, 629.761 
	L 61.441, 627.741 
	L 58.571, 626.642 
	L 55.701, 625.544 
	L 52.299, 625.544 
	L 48.827, 625.544 
	L 44.929, 626.961 
	L 41.032, 628.379 
" />
<path d="M 41.032, 628.379 
	L 37.063, 631.001 
	L 35.929, 629.654 
	L 45.000, 623.631 
	L 52.299, 623.631 
	L 56.197, 623.631 
	L 59.421, 624.942 
	L 62.646, 626.253 
	L 64.843, 628.733 
	L 67.039, 631.213 
	L 68.280, 634.721 
	L 69.520, 638.229 
" />
<path d="M 69.520, 638.229 
	L 69.520, 642.552 
	L 69.520, 669.694 
	L 69.520, 671.607 
	L 70.937, 671.607 
	L 70.937, 673.520 
	L 69.945, 673.520 
	L 69.661, 673.308 
	L 68.811, 672.883 
	L 68.244, 671.855 
	L 67.677, 670.828 
	L 67.677, 669.481 
" />
<path d="M 67.677, 669.481 
	L 67.677, 664.662 
	L 64.417, 668.914 
	L 59.173, 671.217 
	L 53.929, 673.520 
	L 47.764, 673.520 
	L 47.764, 671.678 
	L 53.787, 671.678 
	L 58.854, 669.198 
	L 63.921, 666.717 
	L 66.331, 662.536 
	L 67.677, 660.481 
" />
<path d="M 67.677, 660.481 
	L 67.677, 658.497 
	L 67.677, 648.292 
	L 60.449, 644.961 
	L 51.945, 644.961 
	L 47.906, 644.961 
	L 44.681, 645.847 
	L 41.457, 646.733 
	L 39.154, 648.434 
	L 36.850, 650.135 
	L 35.575, 652.509 
	L 34.299, 654.883 
" />
<path d="M 34.299, 654.883 
	L 34.299, 657.788 
	L 34.299, 660.694 
	L 35.362, 663.245 
	L 36.425, 665.796 
	L 38.232, 667.674 
	L 40.039, 669.552 
	L 42.484, 670.615 
	L 44.929, 671.678 
	L 47.764, 671.678 
" />
<path d="M 96.024, 673.520 
	L 96.024, 673.520 
	L 92.835, 673.520 
	L 90.035, 672.564 
	L 87.236, 671.607 
	L 84.791, 670.013 
	L 82.346, 668.418 
	L 80.362, 666.257 
	L 78.378, 664.095 
	L 76.819, 661.757 
	L 76.819, 691.662 
	L 74.976, 691.662 
" />
<path d="M 74.976, 691.662 
	L 74.976, 623.631 
	L 76.819, 623.631 
	L 76.819, 635.111 
	L 78.236, 632.560 
	L 80.327, 630.469 
	L 82.417, 628.379 
	L 84.827, 626.820 
	L 87.236, 625.261 
	L 89.858, 624.446 
	L 92.480, 623.631 
	L 95.244, 623.631 
" />
<path d="M 95.244, 623.631 
	L 100.205, 623.631 
	L 104.386, 625.828 
	L 108.567, 628.024 
	L 111.543, 631.532 
	L 114.520, 635.040 
	L 116.220, 639.505 
	L 117.921, 643.969 
	L 117.921, 648.646 
	L 117.921, 653.536 
	L 116.327, 658.036 
" />
<path d="M 116.327, 658.036 
	L 114.732, 662.536 
	L 111.862, 665.973 
	L 108.992, 669.410 
	L 104.953, 671.465 
	L 100.913, 673.520 
	L 96.024, 673.520 
	L 96.024, 671.678 
	L 100.630, 671.678 
	L 104.315, 669.694 
	L 108.000, 667.709 
" />
<path d="M 108.000, 667.709 
	L 110.622, 664.450 
	L 113.244, 661.190 
	L 114.661, 657.044 
	L 116.079, 652.898 
	L 116.079, 648.646 
	L 116.079, 644.111 
	L 114.449, 639.930 
	L 112.819, 635.749 
	L 110.020, 632.560 
	L 107.220, 629.371 
" />
<path d="M 107.220, 629.371 
	L 103.394, 627.457 
	L 99.567, 625.544 
	L 95.244, 625.544 
	L 92.480, 625.544 
	L 89.327, 626.749 
	L 86.173, 627.953 
	L 83.445, 630.009 
	L 80.717, 632.064 
	L 78.839, 634.792 
	L 76.961, 637.520 
	L 76.819, 640.426 
" />
<path d="M 76.819, 640.426 
	L 76.819, 657.859 
	L 78.095, 660.765 
	L 80.079, 663.280 
	L 82.063, 665.796 
	L 84.543, 667.639 
	L 87.024, 669.481 
	L 89.929, 670.579 
	L 92.835, 671.678 
	L 96.024, 671.678 
" />
<path d="M 138.969, 673.520 
	L 138.969, 673.520 
	L 135.780, 673.520 
	L 132.980, 672.564 
	L 130.181, 671.607 
	L 127.736, 670.013 
	L 125.291, 668.418 
	L 123.307, 666.257 
	L 121.323, 664.095 
	L 119.764, 661.757 
	L 119.764, 691.662 
" />
<path d="M 119.764, 691.662 
	L 117.921, 691.662 
	L 117.921, 623.631 
	L 119.764, 623.631 
	L 119.764, 635.111 
	L 121.181, 632.560 
	L 123.272, 630.469 
	L 125.362, 628.379 
	L 127.772, 626.820 
	L 130.181, 625.261 
	L 132.803, 624.446 
" />
<path d="M 132.803, 624.446 
	L 135.425, 623.631 
	L 138.189, 623.631 
	L 143.150, 623.631 
	L 147.331, 625.828 
	L 151.512, 628.024 
	L 154.488, 631.532 
	L 157.465, 635.040 
	L 159.165, 639.505 
	L 160.866, 643.969 
	L 160.866, 648.646 
" />
<path d="M 160.866, 648.646 
	L 160.866, 653.536 
	L 159.272, 658.036 
	L 157.677, 662.536 
	L 154.807, 665.973 
	L 151.937, 669.410 
	L 147.898, 671.465 
	L 143.858, 673.520 
	L 138.969, 673.520 
	L 138.969, 671.678 
	L 143.575, 671.678 
" />
<path d="M 143.575, 671.678 
	L 147.260, 669.694 
	L 150.945, 667.709 
	L 153.567, 664.450 
	L 156.189, 661.190 
	L 157.606, 657.044 
	L 159.024, 652.898 
	L 159.024, 648.646 
	L 159.024, 644.111 
	L 157.394, 639.930 
	L 155.764, 635.749 
" />
<path d="M 155.764, 635.749 
	L 152.965, 632.560 
	L 150.165, 629.371 
	L 146.339, 627.457 
	L 142.512, 625.544 
	L 138.189, 625.544 
	L 135.425, 625.544 
	L 132.272, 626.749 
	L 129.118, 627.953 
	L 126.390, 630.009 
	L 123.661, 632.064 
" />
<path d="M 123.661, 632.064 
	L 121.783, 634.792 
	L 119.906, 637.520 
	L 119.764, 640.426 
	L 119.764, 657.859 
	L 121.039, 660.765 
	L 123.024, 663.280 
	L 125.008, 665.796 
	L 127.488, 667.639 
	L 129.969, 669.481 
	L 132.874, 670.579 
" />
<path d="M 132.874, 670.579 
	L 135.780, 671.678 
	L 138.969, 671.678 
" />
<path d="M 165.048, 689.819 
	L 165.047, 689.820 
	L 166.606, 689.820 
	L 167.776, 689.572 
	L 168.945, 689.324 
	L 169.299, 688.828 
	L 169.441, 688.615 
	L 169.831, 687.906 
	L 170.220, 687.198 
	L 171.071, 685.284 
	L 171.921, 683.371 
" />
<path d="M 171.921, 683.371 
	L 173.374, 679.969 
	L 174.827, 676.568 
	L 177.236, 671.182 
	L 155.339, 623.631 
	L 157.323, 623.631 
	L 178.087, 668.914 
	L 197.787, 623.631 
	L 199.772, 623.631 
	L 171.780, 688.261 
	L 170.646, 690.812 
" />
<path d="M 170.646, 690.812 
	L 168.803, 691.237 
	L 166.961, 691.662 
	L 165.047, 691.662 
	L 165.047, 689.820 
" />
<path d="M 199.843, 673.520 
	L 199.843, 673.520 
	L 199.843, 671.607 
	L 235.488, 671.607 
	L 235.488, 673.520 
	L 199.843, 673.520 
" />
<path d="M 288.497, 656.016 
	L 288.496, 656.016 
	L 288.496, 659.560 
	L 287.221, 662.678 
	L 285.945, 665.796 
	L 283.784, 668.241 
	L 281.622, 670.686 
	L 278.646, 672.103 
	L 275.669, 673.520 
	L 272.409, 673.520 
	L 242.575, 673.520 
" />
<path d="M 242.575, 673.520 
	L 242.575, 605.489 
	L 271.063, 605.489 
	L 274.465, 605.489 
	L 277.158, 607.048 
	L 279.850, 608.607 
	L 281.764, 611.052 
	L 283.677, 613.497 
	L 284.740, 616.615 
	L 285.803, 619.733 
	L 285.803, 622.922 
" />
<path d="M 285.803, 622.922 
	L 285.803, 628.166 
	L 283.287, 632.489 
	L 280.772, 636.812 
	L 276.520, 638.867 
	L 279.213, 639.717 
	L 281.445, 641.418 
	L 283.677, 643.119 
	L 285.272, 645.422 
	L 286.866, 647.725 
	L 287.681, 650.453 
" />
<path d="M 287.681, 650.453 
	L 288.496, 653.182 
	L 288.496, 656.016 
	L 286.654, 656.016 
	L 286.654, 652.969 
	L 285.626, 650.170 
	L 284.598, 647.371 
	L 282.791, 645.174 
	L 280.984, 642.977 
	L 278.469, 641.702 
	L 275.953, 640.426 
" />
<path d="M 275.953, 640.426 
	L 273.047, 640.426 
	L 244.417, 640.426 
	L 244.417, 671.607 
	L 272.409, 671.607 
	L 275.457, 671.607 
	L 278.043, 670.261 
	L 280.630, 668.914 
	L 282.579, 666.753 
	L 284.528, 664.591 
	L 285.591, 661.792 
" />
<path d="M 285.591, 661.792 
	L 286.654, 658.993 
	L 286.654, 656.016 
	L 244.417, 607.473 
	L 244.417, 638.513 
	L 270.567, 638.513 
	L 273.543, 638.513 
	L 275.988, 637.166 
	L 278.433, 635.820 
	L 280.205, 633.587 
	L 281.976, 631.355 
" />
<path d="M 281.976, 631.355 
	L 282.969, 628.627 
	L 283.961, 625.898 
	L 283.961, 622.993 
	L 283.961, 619.875 
	L 283.004, 617.111 
	L 282.047, 614.347 
	L 280.382, 612.150 
	L 278.717, 609.953 
	L 276.307, 608.713 
	L 273.898, 607.473 
" />
<path d="M 273.898, 607.473 
	L 271.063, 607.473 
	L 244.417, 607.473 
" />
<path d="M 306.284, 673.520 
	L 306.284, 673.520 
	L 301.394, 673.520 
	L 297.213, 671.394 
	L 293.032, 669.268 
	L 290.020, 665.725 
	L 287.008, 662.182 
	L 285.307, 657.717 
	L 283.606, 653.253 
	L 283.606, 648.646 
	L 283.606, 643.615 
" />
<path d="M 283.606, 643.615 
	L 285.236, 639.115 
	L 286.866, 634.615 
	L 289.807, 631.178 
	L 292.748, 627.741 
	L 296.752, 625.686 
	L 300.756, 623.631 
	L 305.504, 623.631 
	L 308.764, 623.631 
	L 311.598, 624.623 
	L 314.433, 625.615 
" />
<path d="M 314.433, 625.615 
	L 316.878, 627.316 
	L 319.323, 629.016 
	L 321.307, 631.249 
	L 323.291, 633.481 
	L 324.709, 635.961 
	L 324.709, 605.489 
	L 326.551, 605.489 
	L 326.551, 669.765 
	L 326.551, 671.607 
	L 327.969, 671.607 
" />
<path d="M 327.969, 671.607 
	L 327.969, 673.520 
	L 327.189, 673.520 
	L 326.764, 673.308 
	L 325.772, 672.883 
	L 325.240, 671.891 
	L 324.709, 670.898 
	L 324.709, 669.765 
	L 324.709, 663.387 
	L 323.150, 665.654 
	L 321.130, 667.497 
" />
<path d="M 321.130, 667.497 
	L 319.110, 669.339 
	L 316.701, 670.686 
	L 314.291, 672.032 
	L 311.669, 672.776 
	L 309.047, 673.520 
	L 306.284, 673.520 
	L 306.284, 671.678 
	L 309.047, 671.678 
	L 312.201, 670.473 
	L 315.354, 669.268 
" />
<path d="M 315.354, 669.268 
	L 318.083, 667.284 
	L 320.811, 665.300 
	L 322.654, 662.642 
	L 324.496, 659.985 
	L 324.709, 657.079 
	L 324.709, 639.859 
	L 323.717, 636.953 
	L 321.626, 634.331 
	L 319.535, 631.709 
	L 316.913, 629.761 
" />
<path d="M 316.913, 629.761 
	L 314.291, 627.812 
	L 311.280, 626.678 
	L 308.268, 625.544 
	L 305.504, 625.544 
	L 300.827, 625.544 
	L 297.177, 627.528 
	L 293.528, 629.513 
	L 290.870, 632.772 
	L 288.213, 636.032 
	L 286.831, 640.213 
" />
<path d="M 286.831, 640.213 
	L 285.449, 644.394 
	L 285.449, 648.646 
	L 285.449, 653.182 
	L 287.079, 657.328 
	L 288.709, 661.473 
	L 291.508, 664.662 
	L 294.307, 667.851 
	L 298.134, 669.765 
	L 301.961, 671.678 
	L 306.284, 671.678 
" />
<path d="M 306.284, 671.678 
" />
<path d="M 342.426, 673.520 
	L 342.425, 673.520 
	L 339.236, 673.520 
	L 336.437, 672.280 
	L 333.638, 671.040 
	L 331.583, 668.914 
	L 329.528, 666.788 
	L 328.358, 663.918 
	L 327.189, 661.048 
	L 327.189, 657.788 
	L 327.189, 654.528 
" />
<path d="M 327.189, 654.528 
	L 328.571, 651.835 
	L 329.953, 649.142 
	L 332.539, 647.229 
	L 335.126, 645.316 
	L 338.705, 644.217 
	L 342.284, 643.119 
	L 346.606, 643.119 
	L 350.646, 643.119 
	L 354.827, 643.863 
	L 359.008, 644.607 
" />
<path d="M 359.008, 644.607 
	L 362.339, 646.024 
	L 362.339, 640.993 
	L 362.339, 637.520 
	L 361.276, 634.650 
	L 360.213, 631.780 
	L 358.158, 629.761 
	L 356.102, 627.741 
	L 353.232, 626.642 
	L 350.362, 625.544 
	L 346.961, 625.544 
" />
<path d="M 346.961, 625.544 
	L 343.488, 625.544 
	L 339.591, 626.961 
	L 335.693, 628.379 
	L 331.724, 631.001 
	L 330.591, 629.654 
	L 339.661, 623.631 
	L 346.961, 623.631 
	L 350.858, 623.631 
	L 354.083, 624.942 
	L 357.307, 626.253 
" />
<path d="M 357.307, 626.253 
	L 359.504, 628.733 
	L 361.701, 631.213 
	L 362.941, 634.721 
	L 364.181, 638.229 
	L 364.181, 642.552 
	L 364.181, 669.694 
	L 364.181, 671.607 
	L 365.598, 671.607 
	L 365.598, 673.520 
	L 364.606, 673.520 
" />
<path d="M 364.606, 673.520 
	L 364.323, 673.308 
	L 363.472, 672.883 
	L 362.906, 671.855 
	L 362.339, 670.828 
	L 362.339, 669.481 
	L 362.339, 664.662 
	L 359.079, 668.914 
	L 353.835, 671.217 
	L 348.591, 673.520 
	L 342.425, 673.520 
" />
<path d="M 342.425, 673.520 
	L 342.425, 671.678 
	L 348.449, 671.678 
	L 353.516, 669.198 
	L 358.583, 666.717 
	L 360.992, 662.536 
	L 362.339, 660.481 
	L 362.339, 658.497 
	L 362.339, 648.292 
	L 355.110, 644.961 
	L 346.606, 644.961 
" />
<path d="M 346.606, 644.961 
	L 342.567, 644.961 
	L 339.343, 645.847 
	L 336.118, 646.733 
	L 333.815, 648.434 
	L 331.512, 650.135 
	L 330.236, 652.509 
	L 328.961, 654.883 
	L 328.961, 657.788 
	L 328.961, 660.694 
	L 330.024, 663.245 
" />
<path d="M 330.024, 663.245 
	L 331.087, 665.796 
	L 332.894, 667.674 
	L 334.701, 669.552 
	L 337.146, 670.615 
	L 339.591, 671.678 
	L 342.425, 671.678 
" />
<path d="M 373.820, 689.819 
	L 373.819, 689.820 
	L 375.378, 689.820 
	L 376.547, 689.572 
	L 377.717, 689.324 
	L 378.071, 688.828 
	L 378.213, 688.615 
	L 378.602, 687.906 
	L 378.992, 687.198 
	L 379.843, 685.284 
	L 380.693, 683.371 
" />
<path d="M 380.693, 683.371 
	L 382.146, 679.969 
	L 383.598, 676.568 
	L 386.008, 671.182 
	L 364.110, 623.631 
	L 366.095, 623.631 
	L 386.858, 668.914 
	L 406.559, 623.631 
	L 408.543, 623.631 
	L 380.551, 688.261 
	L 379.417, 690.812 
" />
<path d="M 379.417, 690.812 
	L 377.575, 691.237 
	L 375.732, 691.662 
	L 373.819, 691.662 
	L 373.819, 689.820 
" />
<path d="M 408.615, 673.520 
	L 408.614, 673.520 
	L 408.614, 671.607 
	L 444.260, 671.607 
	L 444.260, 673.520 
	L 408.614, 673.520 
" />
<path d="M 446.954, 638.937 
	L 446.953, 638.938 
	L 446.953, 632.914 
	L 448.973, 626.961 
	L 450.992, 621.009 
	L 454.854, 616.225 
	L 458.717, 611.442 
	L 464.386, 608.465 
	L 470.055, 605.489 
	L 477.284, 605.489 
	L 485.929, 605.489 
" />
<path d="M 485.929, 605.489 
	L 491.917, 609.812 
	L 497.906, 614.135 
	L 500.811, 620.867 
	L 499.110, 621.434 
	L 497.197, 617.536 
	L 494.681, 614.843 
	L 492.165, 612.150 
	L 489.224, 610.520 
	L 486.284, 608.890 
	L 483.165, 608.146 
" />
<path d="M 483.165, 608.146 
	L 480.047, 607.402 
	L 476.929, 607.402 
	L 470.268, 607.402 
	L 464.988, 610.202 
	L 459.709, 613.001 
	L 456.095, 617.536 
	L 452.480, 622.072 
	L 450.602, 627.776 
	L 448.724, 633.481 
	L 448.724, 639.292 
" />
<path d="M 448.724, 639.292 
	L 448.724, 645.670 
	L 450.957, 651.552 
	L 453.189, 657.434 
	L 457.051, 661.898 
	L 460.913, 666.363 
	L 466.087, 669.020 
	L 471.260, 671.678 
	L 477.213, 671.678 
	L 480.402, 671.678 
	L 483.768, 670.828 
" />
<path d="M 483.768, 670.828 
	L 487.134, 669.977 
	L 490.252, 668.312 
	L 493.370, 666.646 
	L 496.028, 663.953 
	L 498.685, 661.261 
	L 500.599, 657.646 
	L 502.370, 658.142 
	L 500.740, 661.898 
	L 497.906, 664.768 
	L 495.071, 667.639 
" />
<path d="M 495.071, 667.639 
	L 491.634, 669.587 
	L 488.197, 671.536 
	L 484.335, 672.528 
	L 480.473, 673.520 
	L 476.858, 673.520 
	L 470.339, 673.520 
	L 464.811, 670.509 
	L 459.284, 667.497 
	L 455.315, 662.607 
	L 451.347, 657.717 
" />
<path d="M 451.347, 657.717 
	L 449.150, 651.552 
	L 446.953, 645.387 
	L 446.953, 638.938 
" />
<path d="M 524.268, 673.520 
	L 524.268, 673.520 
	L 519.661, 673.520 
	L 515.587, 671.536 
	L 511.512, 669.552 
	L 508.465, 666.150 
	L 505.417, 662.749 
	L 503.646, 658.178 
	L 501.874, 653.607 
	L 501.874, 648.646 
	L 501.874, 643.544 
" />
<path d="M 501.874, 643.544 
	L 503.646, 639.009 
	L 505.417, 634.473 
	L 508.500, 631.036 
	L 511.583, 627.599 
	L 515.658, 625.615 
	L 519.732, 623.631 
	L 524.268, 623.631 
	L 528.803, 623.631 
	L 532.913, 625.615 
	L 537.024, 627.599 
" />
<path d="M 537.024, 627.599 
	L 540.036, 631.036 
	L 543.047, 634.473 
	L 544.854, 639.009 
	L 546.662, 643.544 
	L 546.662, 648.646 
	L 546.662, 653.607 
	L 544.925, 658.178 
	L 543.189, 662.749 
	L 540.142, 666.150 
	L 537.095, 669.552 
" />
<path d="M 537.095, 669.552 
	L 533.020, 671.536 
	L 528.945, 673.520 
	L 524.268, 673.520 
	L 503.717, 648.859 
	L 503.717, 653.465 
	L 505.347, 657.646 
	L 506.976, 661.828 
	L 509.740, 664.946 
	L 512.504, 668.064 
	L 516.224, 669.871 
" />
<path d="M 516.224, 669.871 
	L 519.945, 671.678 
	L 524.197, 671.678 
	L 528.378, 671.678 
	L 532.134, 669.835 
	L 535.890, 667.993 
	L 538.760, 664.839 
	L 541.630, 661.686 
	L 543.260, 657.505 
	L 544.890, 653.324 
	L 544.890, 648.576 
" />
<path d="M 544.890, 648.576 
	L 544.890, 643.898 
	L 543.260, 639.717 
	L 541.630, 635.536 
	L 538.795, 632.383 
	L 535.961, 629.229 
	L 532.205, 627.387 
	L 528.449, 625.544 
	L 524.268, 625.544 
	L 520.087, 625.544 
	L 516.331, 627.387 
" />
<path d="M 516.331, 627.387 
	L 512.575, 629.229 
	L 509.776, 632.453 
	L 506.976, 635.678 
	L 505.347, 639.894 
	L 503.717, 644.111 
	L 503.717, 648.859 
" />
<path d="M 570.048, 625.614 
	L 570.047, 625.615 
	L 563.386, 625.615 
	L 558.532, 630.009 
	L 553.677, 634.402 
	L 551.764, 641.985 
	L 551.764, 673.520 
	L 549.921, 673.520 
	L 549.921, 623.631 
	L 551.764, 623.631 
	L 551.764, 636.528 
" />
<path d="M 551.764, 636.528 
	L 554.173, 631.213 
	L 558.319, 627.776 
	L 562.465, 624.339 
	L 567.071, 623.702 
	L 567.992, 623.631 
	L 568.772, 623.631 
	L 569.551, 623.631 
	L 570.047, 623.631 
	L 570.047, 625.615 
" />
<path d="M 606.615, 673.520 
	L 606.614, 673.520 
	L 604.772, 673.520 
	L 604.772, 646.166 
	L 604.772, 635.394 
	L 601.937, 630.469 
	L 599.102, 625.544 
	L 592.725, 625.544 
	L 589.323, 625.544 
	L 585.992, 626.820 
	L 582.662, 628.095 
" />
<path d="M 582.662, 628.095 
	L 579.862, 630.363 
	L 577.063, 632.631 
	L 574.973, 635.749 
	L 572.882, 638.867 
	L 571.890, 642.481 
	L 571.890, 673.520 
	L 570.047, 673.520 
	L 570.047, 623.631 
	L 571.890, 623.631 
	L 571.890, 637.095 
" />
<path d="M 571.890, 637.095 
	L 573.307, 634.190 
	L 575.575, 631.674 
	L 577.843, 629.158 
	L 580.571, 627.387 
	L 583.299, 625.615 
	L 586.382, 624.623 
	L 589.465, 623.631 
	L 592.654, 623.631 
	L 599.882, 623.631 
	L 603.248, 629.087 
" />
<path d="M 603.248, 629.087 
	L 606.614, 634.544 
	L 606.614, 646.166 
	L 606.614, 673.520 
" />
<path d="M 626.032, 673.520 
	L 626.032, 673.520 
	L 621.425, 673.520 
	L 617.280, 671.536 
	L 613.134, 669.552 
	L 610.051, 666.044 
	L 606.969, 662.536 
	L 605.162, 657.965 
	L 603.354, 653.394 
	L 603.354, 648.150 
	L 603.354, 643.048 
" />
<path d="M 603.354, 643.048 
	L 605.091, 638.583 
	L 606.827, 634.119 
	L 609.874, 630.788 
	L 612.921, 627.457 
	L 616.925, 625.544 
	L 620.929, 623.631 
	L 625.606, 623.631 
	L 630.284, 623.631 
	L 634.429, 625.579 
	L 638.575, 627.528 
" />
<path d="M 638.575, 627.528 
	L 641.622, 630.859 
	L 644.669, 634.190 
	L 646.476, 638.725 
	L 648.284, 643.261 
	L 648.284, 648.505 
	L 648.284, 649.497 
	L 605.197, 649.497 
	L 605.551, 654.174 
	L 607.323, 658.213 
	L 609.095, 662.253 
" />
<path d="M 609.095, 662.253 
	L 611.894, 665.229 
	L 614.693, 668.205 
	L 618.378, 669.942 
	L 622.063, 671.678 
	L 626.102, 671.678 
	L 628.866, 671.678 
	L 631.453, 670.934 
	L 634.039, 670.190 
	L 636.307, 668.843 
	L 638.575, 667.497 
" />
<path d="M 638.575, 667.497 
	L 640.276, 665.619 
	L 641.976, 663.741 
	L 643.039, 661.544 
	L 644.740, 661.969 
	L 643.748, 664.450 
	L 641.870, 666.576 
	L 639.992, 668.702 
	L 637.512, 670.225 
	L 635.032, 671.749 
	L 632.091, 672.635 
" />
<path d="M 632.091, 672.635 
	L 629.150, 673.520 
	L 626.032, 673.520 
	L 646.370, 647.583 
	L 646.087, 642.765 
	L 644.350, 638.725 
	L 642.614, 634.686 
	L 639.850, 631.780 
	L 637.087, 628.875 
	L 633.473, 627.209 
	L 629.858, 625.544 
" />
<path d="M 629.858, 625.544 
	L 625.677, 625.544 
	L 621.496, 625.544 
	L 617.882, 627.209 
	L 614.268, 628.875 
	L 611.504, 631.816 
	L 608.740, 634.757 
	L 607.110, 638.831 
	L 605.480, 642.906 
	L 605.197, 647.583 
	L 646.370, 647.583 
" />
<path d="M 646.370, 647.583 
" />
<path d="M 670.961, 673.520 
	L 670.961, 673.520 
	L 666.354, 673.520 
	L 662.209, 671.536 
	L 658.063, 669.552 
	L 654.980, 666.044 
	L 651.898, 662.536 
	L 650.091, 657.965 
	L 648.284, 653.394 
	L 648.284, 648.150 
	L 648.284, 643.048 
" />
<path d="M 648.284, 643.048 
	L 650.020, 638.583 
	L 651.756, 634.119 
	L 654.803, 630.788 
	L 657.850, 627.457 
	L 661.854, 625.544 
	L 665.858, 623.631 
	L 670.536, 623.631 
	L 675.213, 623.631 
	L 679.358, 625.579 
	L 683.504, 627.528 
" />
<path d="M 683.504, 627.528 
	L 686.551, 630.859 
	L 689.599, 634.190 
	L 691.406, 638.725 
	L 693.213, 643.261 
	L 693.213, 648.505 
	L 693.213, 649.497 
	L 650.126, 649.497 
	L 650.480, 654.174 
	L 652.252, 658.213 
	L 654.024, 662.253 
" />
<path d="M 654.024, 662.253 
	L 656.823, 665.229 
	L 659.622, 668.205 
	L 663.307, 669.942 
	L 666.992, 671.678 
	L 671.032, 671.678 
	L 673.795, 671.678 
	L 676.382, 670.934 
	L 678.969, 670.190 
	L 681.236, 668.843 
	L 683.504, 667.497 
" />
<path d="M 683.504, 667.497 
	L 685.205, 665.619 
	L 686.906, 663.741 
	L 687.969, 661.544 
	L 689.669, 661.969 
	L 688.677, 664.450 
	L 686.799, 666.576 
	L 684.921, 668.702 
	L 682.441, 670.225 
	L 679.961, 671.749 
	L 677.020, 672.635 
" />
<path d="M 677.020, 672.635 
	L 674.079, 673.520 
	L 670.961, 673.520 
	L 691.299, 647.583 
	L 691.016, 642.765 
	L 689.280, 638.725 
	L 687.543, 634.686 
	L 684.780, 631.780 
	L 682.016, 628.875 
	L 678.402, 627.209 
	L 674.788, 625.544 
" />
<path d="M 674.788, 625.544 
	L 670.606, 625.544 
	L 666.425, 625.544 
	L 662.811, 627.209 
	L 659.197, 628.875 
	L 656.433, 631.816 
	L 653.669, 634.757 
	L 652.039, 638.831 
	L 650.410, 642.906 
	L 650.126, 647.583 
	L 691.299, 647.583 
" />
<path d="M 691.299, 647.583 
" />
<path d="M 696.969, 605.488 
	L 696.969, 605.489 
	L 698.740, 605.489 
	L 698.740, 666.009 
	L 698.740, 668.702 
	L 700.370, 670.261 
	L 702.000, 671.820 
	L 704.764, 671.820 
	L 705.756, 671.820 
	L 707.138, 671.572 
	L 708.520, 671.324 
" />
<path d="M 708.520, 671.324 
	L 709.725, 670.969 
	L 710.362, 672.457 
	L 709.087, 672.883 
	L 707.244, 673.202 
	L 705.402, 673.520 
	L 704.126, 673.520 
	L 700.937, 673.520 
	L 698.953, 671.430 
	L 696.969, 669.339 
	L 696.969, 665.938 
" />
<path d="M 696.969, 665.938 
	L 696.969, 605.489 
" />
</g>
</svg>
