<?xml version="1.0" encoding="UTF-8" standalone="no" ?>
<svg width="100%" height="100%" viewBox="0 0 2095.260 797.020" xmlns="http://www.w3.org/2000/svg"><g>
</g><g style="stroke:rgb(0,0,0); fill:none; stroke-width:1.000mm" >
</g><g style="stroke:rgb(0,255,0); fill:none; stroke-width:0.100mm" >
<path d="M 7.087, 797.019 
	L 7.087, 797.020 
	L 7.087, 14.657 
	L 1152.142, 14.657 
	L 1152.142, 797.020 
	L 7.087, 797.020 
" />
</g><g style="stroke:rgb(255,0,0); fill:none; stroke-width:0.100mm" >
<path d="M 0.001, 807.649 
	L 0.000, 807.649 
	L 0.000, 786.390 
	L 14.173, 786.390 
	L 14.173, 807.649 
	L 0.000, 807.649 
" />
<path d="M 4.253, 786.460 
	L 4.252, 786.461 
	L 4.252, 765.059 
	L 18.425, 765.059 
	L 18.425, 786.461 
	L 4.252, 786.461 
" />
<path d="M 17.009, 765.271 
	L 17.008, 765.272 
	L 17.008, 743.728 
	L 31.181, 743.728 
	L 31.181, 765.272 
	L 17.008, 765.272 
" />
<path d="M 38.268, 744.082 
	L 38.268, 744.083 
	L 38.268, 722.398 
	L 52.441, 722.398 
	L 52.441, 744.083 
	L 38.268, 744.083 
" />
<path d="M 68.032, 722.893 
	L 68.032, 722.894 
	L 68.032, 701.067 
	L 82.205, 701.067 
	L 82.205, 722.894 
	L 68.032, 722.894 
" />
<path d="M 106.300, 701.704 
	L 106.299, 701.705 
	L 106.299, 679.736 
	L 120.472, 679.736 
	L 120.472, 701.705 
	L 106.299, 701.705 
" />
<path d="M 153.072, 680.515 
	L 153.071, 680.516 
	L 153.071, 658.405 
	L 167.244, 658.405 
	L 167.244, 680.516 
	L 153.071, 680.516 
" />
<path d="M 208.347, 659.326 
	L 208.346, 659.327 
	L 208.346, 637.075 
	L 222.520, 637.075 
	L 222.520, 659.327 
	L 208.346, 659.327 
" />
<path d="M 272.127, 638.137 
	L 272.126, 638.138 
	L 272.126, 615.744 
	L 286.299, 615.744 
	L 286.299, 638.138 
	L 272.126, 638.138 
" />
<path d="M 344.410, 616.948 
	L 344.410, 616.949 
	L 344.410, 594.413 
	L 358.583, 594.413 
	L 358.583, 616.949 
	L 344.410, 616.949 
" />
<path d="M 425.198, 595.759 
	L 425.197, 595.760 
	L 425.197, 573.083 
	L 439.370, 573.083 
	L 439.370, 595.760 
	L 425.197, 595.760 
" />
<path d="M 514.489, 574.570 
	L 514.488, 574.571 
	L 514.488, 551.752 
	L 528.661, 551.752 
	L 528.661, 574.571 
	L 514.488, 574.571 
" />
<path d="M 612.284, 553.381 
	L 612.284, 553.382 
	L 612.284, 530.421 
	L 626.457, 530.421 
	L 626.457, 553.382 
	L 612.284, 553.382 
" />
<path d="M 718.583, 532.192 
	L 718.583, 532.193 
	L 718.583, 509.090 
	L 732.756, 509.090 
	L 732.756, 532.193 
	L 718.583, 532.193 
" />
<path d="M 833.387, 511.003 
	L 833.386, 511.004 
	L 833.386, 487.760 
	L 847.559, 487.760 
	L 847.559, 511.004 
	L 833.386, 511.004 
" />
<path d="M 956.694, 489.814 
	L 956.693, 489.815 
	L 956.693, 466.429 
	L 970.866, 466.429 
	L 970.866, 489.815 
	L 956.693, 489.815 
" />
<path d="M 1088.505, 468.625 
	L 1088.504, 468.626 
	L 1088.504, 445.098 
	L 1102.677, 445.098 
	L 1102.677, 468.626 
	L 1088.504, 468.626 
" />
<path d="M 1228.820, 447.436 
	L 1228.819, 447.437 
	L 1228.819, 423.768 
	L 1242.992, 423.768 
	L 1242.992, 447.437 
	L 1228.819, 447.437 
" />
<path d="M 1377.639, 426.247 
	L 1377.638, 426.248 
	L 1377.638, 402.437 
	L 1391.811, 402.437 
	L 1391.811, 426.248 
	L 1377.638, 426.248 
" />
<path d="M 1534.962, 405.058 
	L 1534.961, 405.059 
	L 1534.961, 381.106 
	L 1549.134, 381.106 
	L 1549.134, 405.059 
	L 1534.961, 405.059 
" />
<path d="M 44.125, 787.521 
	L 44.124, 787.521 
	L 41.124, 808.568 
	L 26.742, 806.518 
	L 29.742, 785.471 
	L 44.124, 787.521 
" />
<path d="M 48.387, 765.482 
	L 48.386, 765.483 
	L 45.366, 786.670 
	L 30.984, 784.619 
	L 34.004, 763.433 
	L 48.386, 765.483 
" />
<path d="M 61.153, 743.443 
	L 61.152, 743.444 
	L 58.112, 764.771 
	L 43.730, 762.721 
	L 46.770, 741.394 
	L 61.152, 743.444 
" />
<path d="M 82.423, 721.405 
	L 82.422, 721.405 
	L 79.362, 742.873 
	L 64.979, 740.823 
	L 68.040, 719.355 
	L 82.422, 721.405 
" />
<path d="M 112.197, 699.366 
	L 112.196, 699.367 
	L 109.115, 720.975 
	L 94.733, 718.924 
	L 97.814, 697.317 
	L 112.196, 699.367 
" />
<path d="M 150.474, 677.327 
	L 150.474, 677.328 
	L 147.373, 699.076 
	L 132.991, 697.026 
	L 136.091, 675.278 
	L 150.474, 677.328 
" />
<path d="M 197.256, 655.289 
	L 197.255, 655.289 
	L 194.135, 677.178 
	L 179.753, 675.128 
	L 182.873, 653.239 
	L 197.255, 655.289 
" />
<path d="M 252.541, 633.250 
	L 252.541, 633.251 
	L 249.401, 655.279 
	L 235.018, 653.229 
	L 238.158, 631.201 
	L 252.541, 633.251 
" />
<path d="M 316.331, 611.211 
	L 316.330, 611.212 
	L 313.170, 633.381 
	L 298.788, 631.331 
	L 301.948, 609.162 
	L 316.330, 611.212 
" />
<path d="M 388.624, 589.173 
	L 388.624, 589.173 
	L 385.444, 611.483 
	L 371.062, 609.433 
	L 374.241, 587.123 
	L 388.624, 589.173 
" />
<path d="M 469.422, 567.134 
	L 469.421, 567.135 
	L 466.221, 589.584 
	L 451.839, 587.534 
	L 455.039, 565.085 
	L 469.421, 567.135 
" />
<path d="M 558.723, 545.095 
	L 558.722, 545.096 
	L 555.502, 567.686 
	L 541.120, 565.636 
	L 544.341, 543.046 
	L 558.722, 545.096 
" />
<path d="M 656.529, 523.057 
	L 656.528, 523.057 
	L 653.287, 545.788 
	L 638.905, 543.738 
	L 642.146, 521.007 
	L 656.528, 523.057 
" />
<path d="M 762.838, 501.018 
	L 762.837, 501.019 
	L 759.577, 523.889 
	L 745.194, 521.839 
	L 748.455, 498.969 
	L 762.837, 501.019 
" />
<path d="M 877.651, 478.979 
	L 877.650, 478.980 
	L 874.370, 501.991 
	L 859.988, 499.941 
	L 863.268, 476.930 
	L 877.650, 478.980 
" />
<path d="M 1000.968, 456.941 
	L 1000.967, 456.941 
	L 997.667, 480.093 
	L 983.285, 478.043 
	L 986.585, 454.891 
	L 1000.967, 456.941 
" />
<path d="M 1132.789, 434.902 
	L 1132.788, 434.903 
	L 1129.468, 458.194 
	L 1115.086, 456.144 
	L 1118.406, 432.853 
	L 1132.788, 434.903 
" />
<path d="M 1273.114, 412.863 
	L 1273.113, 412.864 
	L 1269.773, 436.296 
	L 1255.391, 434.246 
	L 1258.731, 410.814 
	L 1273.113, 412.864 
" />
<path d="M 1421.943, 390.825 
	L 1421.942, 390.825 
	L 1418.582, 414.398 
	L 1404.200, 412.347 
	L 1407.560, 388.775 
	L 1421.942, 390.825 
" />
<path d="M 1579.276, 368.786 
	L 1579.275, 368.787 
	L 1575.895, 392.499 
	L 1561.513, 390.449 
	L 1564.893, 366.737 
	L 1579.275, 368.787 
" />
<path d="M 53.666, 805.146 
	L 53.665, 805.147 
	L 59.605, 784.734 
	L 73.894, 788.892 
	L 67.954, 809.305 
	L 53.665, 805.147 
" />
<path d="M 57.898, 782.537 
	L 57.897, 782.538 
	L 63.877, 761.989 
	L 78.166, 766.147 
	L 72.186, 786.696 
	L 57.897, 782.538 
" />
<path d="M 70.634, 759.928 
	L 70.633, 759.929 
	L 76.652, 739.244 
	L 90.942, 743.402 
	L 84.922, 764.087 
	L 70.633, 759.929 
" />
<path d="M 91.874, 737.319 
	L 91.873, 737.320 
	L 97.932, 716.499 
	L 112.222, 720.656 
	L 106.162, 741.478 
	L 91.873, 737.320 
" />
<path d="M 121.618, 714.710 
	L 121.617, 714.711 
	L 127.716, 693.753 
	L 142.005, 697.911 
	L 135.906, 718.868 
	L 121.617, 714.711 
" />
<path d="M 159.866, 692.101 
	L 159.865, 692.102 
	L 166.003, 671.008 
	L 180.293, 675.166 
	L 174.154, 696.260 
	L 159.865, 692.102 
" />
<path d="M 206.617, 669.492 
	L 206.617, 669.492 
	L 212.795, 648.262 
	L 227.084, 652.421 
	L 220.906, 673.651 
	L 206.617, 669.492 
" />
<path d="M 261.873, 646.883 
	L 261.872, 646.883 
	L 268.090, 625.517 
	L 282.380, 629.676 
	L 276.162, 651.042 
	L 261.872, 646.883 
" />
<path d="M 325.633, 624.273 
	L 325.632, 624.274 
	L 331.890, 602.772 
	L 346.179, 606.930 
	L 339.922, 628.433 
	L 325.632, 624.274 
" />
<path d="M 397.897, 601.664 
	L 397.896, 601.665 
	L 404.193, 580.027 
	L 418.482, 584.185 
	L 412.185, 605.823 
	L 397.896, 601.665 
" />
<path d="M 478.665, 579.055 
	L 478.664, 579.056 
	L 485.000, 557.282 
	L 499.289, 561.440 
	L 492.953, 583.214 
	L 478.664, 579.056 
" />
<path d="M 567.936, 556.446 
	L 567.936, 556.447 
	L 574.311, 534.536 
	L 588.600, 538.695 
	L 582.224, 560.605 
	L 567.936, 556.447 
" />
<path d="M 665.712, 533.837 
	L 665.711, 533.838 
	L 672.126, 511.791 
	L 686.415, 515.950 
	L 680.000, 537.996 
	L 665.711, 533.838 
" />
<path d="M 771.991, 511.228 
	L 771.990, 511.228 
	L 778.446, 489.046 
	L 792.734, 493.204 
	L 786.279, 515.387 
	L 771.990, 511.228 
" />
<path d="M 886.774, 488.619 
	L 886.774, 488.619 
	L 893.269, 466.301 
	L 907.557, 470.459 
	L 901.062, 492.778 
	L 886.774, 488.619 
" />
<path d="M 1010.062, 466.009 
	L 1010.061, 466.010 
	L 1016.596, 443.556 
	L 1030.884, 447.714 
	L 1024.350, 470.169 
	L 1010.061, 466.010 
" />
<path d="M 1141.853, 443.400 
	L 1141.852, 443.401 
	L 1148.426, 420.810 
	L 1162.715, 424.969 
	L 1156.141, 447.559 
	L 1141.852, 443.401 
" />
<path d="M 1282.148, 420.791 
	L 1282.147, 420.792 
	L 1288.761, 398.065 
	L 1303.050, 402.224 
	L 1296.437, 424.950 
	L 1282.147, 420.792 
" />
<path d="M 1430.947, 398.182 
	L 1430.946, 398.183 
	L 1437.599, 375.320 
	L 1451.889, 379.478 
	L 1445.236, 402.341 
	L 1430.946, 398.183 
" />
<path d="M 1588.250, 375.573 
	L 1588.249, 375.574 
	L 1594.942, 352.575 
	L 1609.231, 356.733 
	L 1602.539, 379.732 
	L 1588.249, 375.574 
" />
<path d="M 103.448, 790.473 
	L 103.448, 790.474 
	L 94.686, 809.844 
	L 80.804, 803.565 
	L 89.566, 784.195 
	L 103.448, 790.474 
" />
<path d="M 107.730, 767.023 
	L 107.729, 767.023 
	L 98.909, 786.523 
	L 85.027, 780.244 
	L 93.847, 760.745 
	L 107.729, 767.023 
" />
<path d="M 120.515, 743.572 
	L 120.514, 743.573 
	L 111.635, 763.202 
	L 97.753, 756.923 
	L 106.632, 737.294 
	L 120.514, 743.573 
" />
<path d="M 141.804, 720.122 
	L 141.803, 720.123 
	L 132.866, 739.881 
	L 118.984, 733.601 
	L 127.921, 713.843 
	L 141.803, 720.123 
" />
<path d="M 171.597, 696.672 
	L 171.596, 696.672 
	L 162.601, 716.560 
	L 148.719, 710.280 
	L 157.714, 690.393 
	L 171.596, 696.672 
" />
<path d="M 209.894, 673.221 
	L 209.893, 673.222 
	L 200.840, 693.238 
	L 186.958, 686.959 
	L 196.011, 666.943 
	L 209.893, 673.222 
" />
<path d="M 256.695, 649.771 
	L 256.694, 649.772 
	L 247.582, 669.917 
	L 233.700, 663.637 
	L 242.812, 643.492 
	L 256.694, 649.772 
" />
<path d="M 312.000, 626.321 
	L 311.999, 626.321 
	L 302.828, 646.596 
	L 288.946, 640.316 
	L 298.117, 620.042 
	L 311.999, 626.321 
" />
<path d="M 375.808, 602.870 
	L 375.807, 602.870 
	L 366.579, 623.274 
	L 352.697, 616.995 
	L 361.925, 596.592 
	L 375.807, 602.870 
" />
<path d="M 448.121, 579.419 
	L 448.120, 579.420 
	L 438.833, 599.953 
	L 424.951, 593.674 
	L 434.238, 573.141 
	L 448.120, 579.420 
" />
<path d="M 528.938, 555.969 
	L 528.937, 555.970 
	L 519.591, 576.632 
	L 505.709, 570.353 
	L 515.055, 549.691 
	L 528.937, 555.970 
" />
<path d="M 618.258, 532.519 
	L 618.258, 532.519 
	L 608.854, 553.310 
	L 594.971, 547.031 
	L 604.375, 526.241 
	L 618.258, 532.519 
" />
<path d="M 716.083, 509.068 
	L 716.082, 509.069 
	L 706.619, 529.990 
	L 692.737, 523.710 
	L 702.200, 502.790 
	L 716.082, 509.069 
" />
<path d="M 822.411, 485.618 
	L 822.410, 485.619 
	L 812.889, 506.668 
	L 799.007, 500.389 
	L 808.528, 479.339 
	L 822.410, 485.619 
" />
<path d="M 937.243, 462.168 
	L 937.242, 462.168 
	L 927.663, 483.347 
	L 913.781, 477.067 
	L 923.360, 455.889 
	L 937.242, 462.168 
" />
<path d="M 1060.580, 438.718 
	L 1060.579, 438.718 
	L 1050.942, 460.026 
	L 1037.059, 453.746 
	L 1046.697, 432.439 
	L 1060.579, 438.718 
" />
<path d="M 1192.420, 415.267 
	L 1192.419, 415.268 
	L 1182.723, 436.704 
	L 1168.841, 430.425 
	L 1178.537, 408.988 
	L 1192.419, 415.268 
" />
<path d="M 1332.764, 391.816 
	L 1332.763, 391.817 
	L 1323.009, 413.383 
	L 1309.127, 407.104 
	L 1318.882, 385.538 
	L 1332.763, 391.817 
" />
<path d="M 1481.612, 368.366 
	L 1481.611, 368.367 
	L 1471.799, 390.061 
	L 1457.917, 383.783 
	L 1467.729, 362.088 
	L 1481.611, 368.367 
" />
<path d="M 1638.964, 344.915 
	L 1638.963, 344.916 
	L 1629.092, 366.740 
	L 1615.210, 360.461 
	L 1625.081, 338.637 
	L 1638.963, 344.916 
" />
<path d="M 108.191, 801.807 
	L 108.191, 801.807 
	L 119.598, 783.867 
	L 132.754, 792.232 
	L 121.347, 810.172 
	L 108.191, 801.807 
" />
<path d="M 112.405, 777.772 
	L 112.404, 777.772 
	L 123.888, 759.713 
	L 137.045, 768.078 
	L 125.561, 786.137 
	L 112.404, 777.772 
" />
<path d="M 125.123, 753.737 
	L 125.123, 753.737 
	L 136.682, 735.558 
	L 149.838, 743.924 
	L 138.278, 762.103 
	L 125.123, 753.737 
" />
<path d="M 146.345, 729.702 
	L 146.344, 729.703 
	L 157.980, 711.404 
	L 171.136, 719.769 
	L 159.501, 738.068 
	L 146.344, 729.703 
" />
<path d="M 176.071, 705.667 
	L 176.070, 705.668 
	L 187.782, 687.249 
	L 200.938, 695.615 
	L 189.226, 714.034 
	L 176.070, 705.668 
" />
<path d="M 214.301, 681.632 
	L 214.300, 681.633 
	L 226.087, 663.095 
	L 239.243, 671.461 
	L 227.456, 689.999 
	L 214.300, 681.633 
" />
<path d="M 261.034, 657.598 
	L 261.033, 657.599 
	L 272.897, 638.941 
	L 286.053, 647.306 
	L 274.190, 665.964 
	L 261.033, 657.599 
" />
<path d="M 316.271, 633.563 
	L 316.271, 633.564 
	L 328.211, 614.787 
	L 341.367, 623.152 
	L 329.427, 641.930 
	L 316.271, 633.564 
" />
<path d="M 380.013, 609.529 
	L 380.013, 609.530 
	L 392.028, 590.633 
	L 405.184, 598.998 
	L 393.169, 617.895 
	L 380.013, 609.530 
" />
<path d="M 452.259, 585.494 
	L 452.258, 585.495 
	L 464.350, 566.478 
	L 477.506, 574.844 
	L 465.414, 593.860 
	L 452.258, 585.495 
" />
<path d="M 533.008, 561.459 
	L 533.007, 561.460 
	L 545.175, 542.324 
	L 558.332, 550.690 
	L 546.163, 569.826 
	L 533.007, 561.460 
" />
<path d="M 622.261, 537.425 
	L 622.261, 537.426 
	L 634.504, 518.170 
	L 647.661, 526.535 
	L 635.417, 545.791 
	L 622.261, 537.426 
" />
<path d="M 720.019, 513.390 
	L 720.018, 513.391 
	L 732.338, 494.015 
	L 745.494, 502.381 
	L 733.174, 521.756 
	L 720.018, 513.391 
" />
<path d="M 826.279, 489.356 
	L 826.279, 489.356 
	L 838.675, 469.861 
	L 851.832, 478.226 
	L 839.435, 497.721 
	L 826.279, 489.356 
" />
<path d="M 941.045, 465.321 
	L 941.044, 465.321 
	L 953.516, 445.706 
	L 966.672, 454.072 
	L 954.201, 473.687 
	L 941.044, 465.321 
" />
<path d="M 1064.314, 441.286 
	L 1064.313, 441.286 
	L 1076.862, 421.552 
	L 1090.018, 429.918 
	L 1077.470, 449.652 
	L 1064.313, 441.286 
" />
<path d="M 1196.087, 417.251 
	L 1196.086, 417.252 
	L 1208.711, 397.398 
	L 1221.867, 405.763 
	L 1209.242, 425.617 
	L 1196.086, 417.252 
" />
<path d="M 1336.364, 393.216 
	L 1336.363, 393.217 
	L 1349.063, 373.244 
	L 1362.220, 381.609 
	L 1349.520, 401.583 
	L 1336.363, 393.217 
" />
<path d="M 1485.145, 369.182 
	L 1485.144, 369.182 
	L 1497.921, 349.089 
	L 1511.077, 357.455 
	L 1498.300, 377.548 
	L 1485.144, 369.182 
" />
<path d="M 1642.430, 345.147 
	L 1642.429, 345.148 
	L 1655.282, 324.935 
	L 1668.437, 333.301 
	L 1655.585, 353.513 
	L 1642.429, 345.148 
" />
<path d="M 161.789, 794.128 
	L 161.788, 794.128 
	L 147.963, 810.279 
	L 135.850, 799.911 
	L 149.675, 783.760 
	L 161.788, 794.128 
" />
<path d="M 166.087, 769.270 
	L 166.086, 769.271 
	L 152.169, 785.530 
	L 140.056, 775.162 
	L 153.973, 758.903 
	L 166.086, 769.271 
" />
<path d="M 178.889, 744.413 
	L 178.888, 744.414 
	L 164.879, 760.781 
	L 152.765, 750.412 
	L 166.775, 734.046 
	L 178.888, 744.414 
" />
<path d="M 200.195, 719.557 
	L 200.194, 719.558 
	L 186.092, 736.031 
	L 173.979, 725.662 
	L 188.081, 709.189 
	L 200.194, 719.558 
" />
<path d="M 230.005, 694.700 
	L 230.004, 694.701 
	L 215.810, 711.282 
	L 203.697, 700.913 
	L 217.891, 684.332 
	L 230.004, 694.701 
" />
<path d="M 268.318, 669.843 
	L 268.318, 669.844 
	L 254.032, 686.533 
	L 241.919, 676.164 
	L 256.205, 659.475 
	L 268.318, 669.844 
" />
<path d="M 315.136, 644.986 
	L 315.135, 644.987 
	L 300.757, 661.784 
	L 288.644, 651.414 
	L 303.022, 634.618 
	L 315.135, 644.987 
" />
<path d="M 370.458, 620.129 
	L 370.457, 620.130 
	L 355.987, 637.034 
	L 343.874, 626.665 
	L 358.344, 609.761 
	L 370.457, 620.130 
" />
<path d="M 434.283, 595.272 
	L 434.283, 595.273 
	L 419.720, 612.285 
	L 407.607, 601.916 
	L 422.169, 584.904 
	L 434.283, 595.273 
" />
<path d="M 506.613, 570.415 
	L 506.612, 570.416 
	L 491.958, 587.536 
	L 479.845, 577.167 
	L 494.499, 560.047 
	L 506.612, 570.416 
" />
<path d="M 587.446, 545.558 
	L 587.446, 545.559 
	L 572.699, 562.786 
	L 560.586, 552.417 
	L 575.333, 535.190 
	L 587.446, 545.559 
" />
<path d="M 676.784, 520.701 
	L 676.783, 520.702 
	L 661.944, 538.037 
	L 649.831, 527.668 
	L 664.670, 510.333 
	L 676.783, 520.702 
" />
<path d="M 774.625, 495.844 
	L 774.624, 495.845 
	L 759.694, 513.288 
	L 747.581, 502.919 
	L 762.511, 485.476 
	L 774.624, 495.845 
" />
<path d="M 880.970, 470.987 
	L 880.970, 470.988 
	L 865.947, 488.539 
	L 853.834, 478.169 
	L 868.857, 460.619 
	L 880.970, 470.988 
" />
<path d="M 995.820, 446.130 
	L 995.819, 446.131 
	L 980.704, 463.789 
	L 968.591, 453.420 
	L 983.706, 435.762 
	L 995.819, 446.131 
" />
<path d="M 1119.173, 421.273 
	L 1119.172, 421.274 
	L 1103.965, 439.040 
	L 1091.852, 428.671 
	L 1107.059, 410.905 
	L 1119.172, 421.274 
" />
<path d="M 1251.030, 396.416 
	L 1251.029, 396.417 
	L 1235.730, 414.291 
	L 1223.617, 403.921 
	L 1238.916, 386.048 
	L 1251.029, 396.417 
" />
<path d="M 1391.391, 371.559 
	L 1391.390, 371.560 
	L 1375.999, 389.541 
	L 1363.886, 379.172 
	L 1379.277, 361.191 
	L 1391.390, 371.560 
" />
<path d="M 1540.256, 346.702 
	L 1540.255, 346.703 
	L 1524.772, 364.791 
	L 1512.659, 354.423 
	L 1528.142, 336.334 
	L 1540.255, 346.703 
" />
<path d="M 1697.625, 321.845 
	L 1697.624, 321.846 
	L 1682.049, 340.042 
	L 1669.935, 329.674 
	L 1685.511, 311.477 
	L 1697.624, 321.846 
" />
<path d="M 163.802, 797.917 
	L 163.801, 797.918 
	L 179.767, 783.880 
	L 190.529, 796.121 
	L 174.564, 810.159 
	L 163.801, 797.918 
" />
<path d="M 168.000, 772.452 
	L 168.000, 772.453 
	L 184.072, 758.322 
	L 194.835, 770.562 
	L 178.763, 784.694 
	L 168.000, 772.453 
" />
<path d="M 180.703, 746.987 
	L 180.702, 746.988 
	L 196.881, 732.763 
	L 207.644, 745.004 
	L 191.465, 759.229 
	L 180.702, 746.988 
" />
<path d="M 201.910, 721.522 
	L 201.909, 721.523 
	L 218.194, 707.205 
	L 228.957, 719.445 
	L 212.672, 733.764 
	L 201.909, 721.523 
" />
<path d="M 231.620, 696.058 
	L 231.620, 696.059 
	L 248.012, 681.646 
	L 258.774, 693.886 
	L 242.382, 708.299 
	L 231.620, 696.059 
" />
<path d="M 269.835, 670.593 
	L 269.834, 670.594 
	L 286.333, 656.087 
	L 297.095, 668.327 
	L 280.597, 682.834 
	L 269.834, 670.594 
" />
<path d="M 316.553, 645.128 
	L 316.553, 645.129 
	L 333.157, 630.529 
	L 343.920, 642.769 
	L 327.315, 657.369 
	L 316.553, 645.129 
" />
<path d="M 371.776, 619.663 
	L 371.775, 619.664 
	L 388.486, 604.970 
	L 399.249, 617.210 
	L 382.538, 631.904 
	L 371.775, 619.664 
" />
<path d="M 435.502, 594.198 
	L 435.502, 594.198 
	L 452.319, 579.412 
	L 463.081, 591.652 
	L 446.264, 606.438 
	L 435.502, 594.198 
" />
<path d="M 507.733, 568.733 
	L 507.732, 568.733 
	L 524.655, 553.853 
	L 535.418, 566.093 
	L 518.494, 580.973 
	L 507.732, 568.733 
" />
<path d="M 588.467, 543.268 
	L 588.466, 543.268 
	L 605.496, 528.294 
	L 616.258, 540.534 
	L 599.229, 555.508 
	L 588.466, 543.268 
" />
<path d="M 677.704, 517.803 
	L 677.704, 517.803 
	L 694.840, 502.736 
	L 705.604, 514.976 
	L 688.467, 530.043 
	L 677.704, 517.803 
" />
<path d="M 775.447, 492.338 
	L 775.446, 492.338 
	L 792.689, 477.177 
	L 803.452, 489.417 
	L 786.209, 504.578 
	L 775.446, 492.338 
" />
<path d="M 881.693, 466.873 
	L 881.692, 466.873 
	L 899.041, 451.618 
	L 909.804, 463.859 
	L 892.455, 479.114 
	L 881.692, 466.873 
" />
<path d="M 996.443, 441.408 
	L 996.442, 441.408 
	L 1013.898, 426.059 
	L 1024.661, 438.300 
	L 1007.204, 453.649 
	L 996.442, 441.408 
" />
<path d="M 1119.697, 415.943 
	L 1119.696, 415.943 
	L 1137.259, 400.501 
	L 1148.021, 412.741 
	L 1130.458, 428.184 
	L 1119.696, 415.943 
" />
<path d="M 1251.454, 390.477 
	L 1251.454, 390.478 
	L 1269.123, 374.942 
	L 1279.885, 387.183 
	L 1262.216, 402.719 
	L 1251.454, 390.478 
" />
<path d="M 1391.716, 365.012 
	L 1391.716, 365.013 
	L 1409.491, 349.384 
	L 1420.253, 361.624 
	L 1402.478, 377.254 
	L 1391.716, 365.013 
" />
<path d="M 1540.482, 339.547 
	L 1540.481, 339.548 
	L 1558.363, 323.825 
	L 1569.125, 336.066 
	L 1551.244, 351.789 
	L 1540.481, 339.548 
" />
<path d="M 1697.752, 314.082 
	L 1697.751, 314.083 
	L 1715.739, 298.266 
	L 1726.501, 310.507 
	L 1708.513, 326.324 
	L 1697.751, 314.083 
" />
<path d="M 218.967, 798.163 
	L 218.966, 798.164 
	L 201.179, 809.809 
	L 192.057, 795.875 
	L 209.845, 784.230 
	L 218.966, 798.164 
" />
<path d="M 223.278, 771.904 
	L 223.277, 771.905 
	L 205.372, 783.627 
	L 196.250, 769.694 
	L 214.156, 757.972 
	L 223.277, 771.905 
" />
<path d="M 236.093, 745.644 
	L 236.093, 745.645 
	L 218.069, 757.445 
	L 208.947, 743.512 
	L 226.971, 731.712 
	L 236.093, 745.645 
" />
<path d="M 257.413, 719.385 
	L 257.412, 719.386 
	L 239.269, 731.264 
	L 230.147, 717.331 
	L 248.290, 705.453 
	L 257.412, 719.386 
" />
<path d="M 287.235, 693.126 
	L 287.235, 693.127 
	L 268.973, 705.082 
	L 259.852, 691.148 
	L 278.114, 679.193 
	L 287.235, 693.127 
" />
<path d="M 325.563, 666.867 
	L 325.562, 666.868 
	L 307.182, 678.901 
	L 298.060, 664.967 
	L 316.440, 652.934 
	L 325.562, 666.868 
" />
<path d="M 372.394, 640.607 
	L 372.393, 640.608 
	L 353.894, 652.718 
	L 344.772, 638.785 
	L 363.271, 626.675 
	L 372.393, 640.608 
" />
<path d="M 427.728, 614.348 
	L 427.728, 614.349 
	L 409.110, 626.537 
	L 399.989, 612.604 
	L 418.606, 600.416 
	L 427.728, 614.349 
" />
<path d="M 491.567, 588.089 
	L 491.567, 588.090 
	L 472.831, 600.355 
	L 463.709, 586.422 
	L 482.445, 574.156 
	L 491.567, 588.090 
" />
<path d="M 563.910, 561.830 
	L 563.910, 561.830 
	L 545.055, 574.174 
	L 535.933, 560.240 
	L 554.788, 547.897 
	L 563.910, 561.830 
" />
<path d="M 644.757, 535.570 
	L 644.756, 535.571 
	L 625.783, 547.992 
	L 616.662, 534.059 
	L 635.635, 521.638 
	L 644.756, 535.571 
" />
<path d="M 734.107, 509.311 
	L 734.107, 509.312 
	L 715.015, 521.810 
	L 705.894, 507.877 
	L 724.985, 495.378 
	L 734.107, 509.312 
" />
<path d="M 831.962, 483.051 
	L 831.962, 483.052 
	L 812.751, 495.629 
	L 803.629, 481.696 
	L 822.840, 469.119 
	L 831.962, 483.052 
" />
<path d="M 938.320, 456.793 
	L 938.320, 456.793 
	L 918.991, 469.447 
	L 909.870, 455.513 
	L 929.198, 442.860 
	L 938.320, 456.793 
" />
<path d="M 1053.183, 430.533 
	L 1053.182, 430.534 
	L 1033.735, 443.265 
	L 1024.613, 429.332 
	L 1044.060, 416.601 
	L 1053.182, 430.534 
" />
<path d="M 1176.550, 404.274 
	L 1176.549, 404.274 
	L 1156.983, 417.083 
	L 1147.861, 403.150 
	L 1167.427, 390.341 
	L 1176.549, 404.274 
" />
<path d="M 1308.419, 378.014 
	L 1308.419, 378.015 
	L 1288.734, 390.902 
	L 1279.613, 376.969 
	L 1299.298, 364.082 
	L 1308.419, 378.015 
" />
<path d="M 1448.794, 351.755 
	L 1448.793, 351.756 
	L 1428.991, 364.720 
	L 1419.869, 350.787 
	L 1439.671, 337.823 
	L 1448.793, 351.756 
" />
<path d="M 1597.672, 325.496 
	L 1597.672, 325.497 
	L 1577.750, 338.539 
	L 1568.628, 324.605 
	L 1588.550, 311.563 
	L 1597.672, 325.497 
" />
<path d="M 1755.054, 299.237 
	L 1755.053, 299.237 
	L 1735.013, 312.357 
	L 1725.892, 298.424 
	L 1745.932, 285.304 
	L 1755.053, 299.237 
" />
<path d="M 220.625, 793.827 
	L 220.625, 793.828 
	L 239.878, 784.809 
	L 247.092, 800.211 
	L 227.839, 809.230 
	L 220.625, 793.828 
" />
<path d="M 224.814, 766.928 
	L 224.813, 766.928 
	L 244.193, 757.850 
	L 251.408, 773.252 
	L 232.027, 782.330 
	L 224.813, 766.928 
" />
<path d="M 237.505, 740.029 
	L 237.504, 740.030 
	L 257.014, 730.892 
	L 264.228, 746.293 
	L 244.719, 755.431 
	L 237.504, 740.030 
" />
<path d="M 258.701, 713.130 
	L 258.700, 713.130 
	L 278.337, 703.932 
	L 285.552, 719.334 
	L 265.915, 728.532 
	L 258.700, 713.130 
" />
<path d="M 288.400, 686.230 
	L 288.400, 686.231 
	L 308.166, 676.973 
	L 315.380, 692.375 
	L 295.614, 701.633 
	L 288.400, 686.231 
" />
<path d="M 326.604, 659.332 
	L 326.603, 659.332 
	L 346.497, 650.013 
	L 353.712, 665.415 
	L 333.818, 674.734 
	L 326.603, 659.332 
" />
<path d="M 373.312, 632.432 
	L 373.311, 632.433 
	L 393.333, 623.055 
	L 400.548, 638.457 
	L 380.525, 647.835 
	L 373.311, 632.433 
" />
<path d="M 428.523, 605.534 
	L 428.522, 605.534 
	L 448.673, 596.095 
	L 455.888, 611.497 
	L 435.737, 620.936 
	L 428.522, 605.534 
" />
<path d="M 492.238, 578.634 
	L 492.238, 578.635 
	L 512.517, 569.136 
	L 519.731, 584.538 
	L 499.452, 594.037 
	L 492.238, 578.635 
" />
<path d="M 564.457, 551.736 
	L 564.457, 551.736 
	L 584.865, 542.177 
	L 592.079, 557.578 
	L 571.671, 567.138 
	L 564.457, 551.736 
" />
<path d="M 645.181, 524.836 
	L 645.180, 524.837 
	L 665.716, 515.217 
	L 672.930, 530.620 
	L 652.394, 540.239 
	L 645.180, 524.837 
" />
<path d="M 734.408, 497.937 
	L 734.407, 497.937 
	L 755.072, 488.259 
	L 762.286, 503.661 
	L 741.621, 513.340 
	L 734.407, 497.937 
" />
<path d="M 832.139, 471.038 
	L 832.138, 471.039 
	L 852.931, 461.299 
	L 860.146, 476.701 
	L 839.353, 486.441 
	L 832.138, 471.039 
" />
<path d="M 938.374, 444.139 
	L 938.373, 444.139 
	L 959.295, 434.340 
	L 966.509, 449.742 
	L 945.588, 459.541 
	L 938.373, 444.139 
" />
<path d="M 1053.113, 417.240 
	L 1053.112, 417.241 
	L 1074.162, 407.381 
	L 1081.376, 422.783 
	L 1060.327, 432.642 
	L 1053.112, 417.241 
" />
<path d="M 1176.356, 390.341 
	L 1176.355, 390.341 
	L 1197.533, 380.422 
	L 1204.747, 395.824 
	L 1183.570, 405.743 
	L 1176.355, 390.341 
" />
<path d="M 1308.103, 363.441 
	L 1308.102, 363.442 
	L 1329.408, 353.463 
	L 1336.623, 368.865 
	L 1315.317, 378.844 
	L 1308.102, 363.442 
" />
<path d="M 1448.354, 336.543 
	L 1448.353, 336.543 
	L 1469.787, 326.503 
	L 1477.002, 341.905 
	L 1455.567, 351.945 
	L 1448.353, 336.543 
" />
<path d="M 1597.108, 309.643 
	L 1597.108, 309.644 
	L 1618.671, 299.544 
	L 1625.885, 314.946 
	L 1604.322, 325.046 
	L 1597.108, 309.644 
" />
<path d="M 1754.367, 282.745 
	L 1754.367, 282.745 
	L 1776.057, 272.585 
	L 1783.272, 287.987 
	L 1761.581, 298.147 
	L 1754.367, 282.745 
" />
<path d="M 274.908, 802.216 
	L 274.907, 802.217 
	L 254.575, 808.428 
	L 249.503, 791.822 
	L 269.835, 785.612 
	L 274.907, 802.217 
" />
<path d="M 279.228, 774.557 
	L 279.227, 774.558 
	L 258.759, 780.810 
	L 253.687, 764.206 
	L 274.155, 757.953 
	L 279.227, 774.558 
" />
<path d="M 292.051, 746.899 
	L 292.051, 746.899 
	L 271.447, 753.193 
	L 266.375, 736.588 
	L 286.978, 730.295 
	L 292.051, 746.899 
" />
<path d="M 313.379, 719.240 
	L 313.378, 719.241 
	L 292.639, 725.576 
	L 287.567, 708.971 
	L 308.306, 702.637 
	L 313.378, 719.241 
" />
<path d="M 343.210, 691.582 
	L 343.210, 691.583 
	L 322.335, 697.959 
	L 317.263, 681.354 
	L 338.137, 674.977 
	L 343.210, 691.583 
" />
<path d="M 381.546, 663.923 
	L 381.545, 663.924 
	L 360.535, 670.342 
	L 355.463, 653.737 
	L 376.473, 647.319 
	L 381.545, 663.924 
" />
<path d="M 428.385, 636.265 
	L 428.384, 636.265 
	L 407.239, 642.725 
	L 402.167, 626.120 
	L 423.313, 619.661 
	L 428.384, 636.265 
" />
<path d="M 483.729, 608.606 
	L 483.728, 608.607 
	L 462.447, 615.108 
	L 457.374, 598.503 
	L 478.655, 592.002 
	L 483.728, 608.607 
" />
<path d="M 547.576, 580.948 
	L 547.575, 580.949 
	L 526.159, 587.490 
	L 521.087, 570.886 
	L 542.503, 564.344 
	L 547.575, 580.949 
" />
<path d="M 619.927, 553.290 
	L 619.926, 553.290 
	L 598.374, 559.874 
	L 593.302, 543.268 
	L 614.855, 536.685 
	L 619.926, 553.290 
" />
<path d="M 700.783, 525.631 
	L 700.782, 525.631 
	L 679.094, 532.257 
	L 674.021, 515.652 
	L 695.709, 509.027 
	L 700.782, 525.631 
" />
<path d="M 790.141, 497.972 
	L 790.141, 497.973 
	L 768.317, 504.639 
	L 763.245, 488.035 
	L 785.069, 481.368 
	L 790.141, 497.973 
" />
<path d="M 888.005, 470.314 
	L 888.004, 470.315 
	L 866.045, 477.022 
	L 860.973, 460.417 
	L 882.932, 453.710 
	L 888.004, 470.315 
" />
<path d="M 994.372, 442.656 
	L 994.371, 442.656 
	L 972.277, 449.405 
	L 967.204, 432.800 
	L 989.299, 426.052 
	L 994.371, 442.656 
" />
<path d="M 1109.242, 414.997 
	L 1109.242, 414.998 
	L 1087.012, 421.788 
	L 1081.940, 405.183 
	L 1104.170, 398.393 
	L 1109.242, 414.998 
" />
<path d="M 1232.617, 387.338 
	L 1232.617, 387.339 
	L 1210.251, 394.171 
	L 1205.179, 377.566 
	L 1227.545, 370.734 
	L 1232.617, 387.339 
" />
<path d="M 1364.497, 359.680 
	L 1364.496, 359.680 
	L 1341.994, 366.554 
	L 1336.922, 349.949 
	L 1359.423, 343.076 
	L 1364.496, 359.680 
" />
<path d="M 1504.879, 332.021 
	L 1504.878, 332.022 
	L 1482.241, 338.937 
	L 1477.170, 322.332 
	L 1499.806, 315.417 
	L 1504.878, 332.022 
" />
<path d="M 1653.766, 304.363 
	L 1653.765, 304.364 
	L 1630.993, 311.320 
	L 1625.920, 294.715 
	L 1648.693, 287.758 
	L 1653.765, 304.364 
" />
<path d="M 1811.156, 276.704 
	L 1811.155, 276.705 
	L 1788.248, 283.703 
	L 1783.176, 267.098 
	L 1806.083, 260.100 
	L 1811.155, 276.705 
" />
<path d="M 278.683, 789.906 
	L 278.682, 789.907 
	L 299.687, 786.628 
	L 302.421, 804.132 
	L 281.415, 807.411 
	L 278.682, 789.907 
" />
<path d="M 282.865, 761.571 
	L 282.864, 761.572 
	L 304.009, 758.270 
	L 306.742, 775.775 
	L 285.597, 779.076 
	L 282.864, 761.572 
" />
<path d="M 295.551, 733.235 
	L 295.550, 733.236 
	L 316.835, 729.913 
	L 319.568, 747.417 
	L 298.283, 750.740 
	L 295.550, 733.236 
" />
<path d="M 316.740, 704.900 
	L 316.740, 704.901 
	L 338.165, 701.556 
	L 340.898, 719.060 
	L 319.472, 722.405 
	L 316.740, 704.901 
" />
<path d="M 346.434, 676.564 
	L 346.433, 676.565 
	L 367.999, 673.198 
	L 370.732, 690.703 
	L 349.166, 694.069 
	L 346.433, 676.565 
" />
<path d="M 384.632, 648.229 
	L 384.631, 648.230 
	L 406.337, 644.841 
	L 409.070, 662.345 
	L 387.364, 665.734 
	L 384.631, 648.230 
" />
<path d="M 431.334, 619.893 
	L 431.333, 619.894 
	L 453.178, 616.483 
	L 455.911, 633.988 
	L 434.066, 637.399 
	L 431.333, 619.894 
" />
<path d="M 486.539, 591.557 
	L 486.539, 591.558 
	L 508.524, 588.126 
	L 511.257, 605.631 
	L 489.271, 609.063 
	L 486.539, 591.558 
" />
<path d="M 550.249, 563.222 
	L 550.248, 563.223 
	L 572.374, 559.768 
	L 575.106, 577.273 
	L 552.981, 580.728 
	L 550.248, 563.223 
" />
<path d="M 622.462, 534.886 
	L 622.461, 534.887 
	L 644.728, 531.411 
	L 647.460, 548.916 
	L 625.194, 552.392 
	L 622.461, 534.887 
" />
<path d="M 703.179, 506.551 
	L 703.179, 506.552 
	L 725.584, 503.054 
	L 728.318, 520.558 
	L 705.912, 524.056 
	L 703.179, 506.552 
" />
<path d="M 792.401, 478.215 
	L 792.401, 478.216 
	L 814.946, 474.696 
	L 817.678, 492.201 
	L 795.133, 495.721 
	L 792.401, 478.216 
" />
<path d="M 890.126, 449.880 
	L 890.126, 449.880 
	L 912.811, 446.339 
	L 915.544, 463.844 
	L 892.858, 467.385 
	L 890.126, 449.880 
" />
<path d="M 996.355, 421.545 
	L 996.355, 421.545 
	L 1019.181, 417.981 
	L 1021.913, 435.486 
	L 999.087, 439.050 
	L 996.355, 421.545 
" />
<path d="M 1111.088, 393.209 
	L 1111.088, 393.209 
	L 1134.054, 389.624 
	L 1136.787, 407.129 
	L 1113.820, 410.714 
	L 1111.088, 393.209 
" />
<path d="M 1234.325, 364.874 
	L 1234.325, 364.874 
	L 1257.431, 361.266 
	L 1260.164, 378.771 
	L 1237.058, 382.379 
	L 1234.325, 364.874 
" />
<path d="M 1366.067, 336.538 
	L 1366.066, 336.538 
	L 1389.312, 332.909 
	L 1392.044, 350.414 
	L 1368.799, 354.043 
	L 1366.066, 336.538 
" />
<path d="M 1506.312, 308.203 
	L 1506.311, 308.203 
	L 1529.697, 304.552 
	L 1532.429, 322.056 
	L 1509.044, 325.707 
	L 1506.311, 308.203 
" />
<path d="M 1655.061, 279.867 
	L 1655.060, 279.867 
	L 1678.586, 276.194 
	L 1681.319, 293.699 
	L 1657.792, 297.372 
	L 1655.060, 279.867 
" />
<path d="M 1812.313, 251.531 
	L 1812.313, 251.532 
	L 1835.979, 247.837 
	L 1838.712, 265.342 
	L 1815.045, 269.036 
	L 1812.313, 251.532 
" />
<path d="M 329.647, 805.913 
	L 329.647, 805.913 
	L 308.389, 806.195 
	L 308.149, 788.126 
	L 329.406, 787.844 
	L 329.647, 805.913 
" />
<path d="M 333.970, 776.856 
	L 333.970, 776.857 
	L 312.570, 777.141 
	L 312.330, 759.072 
	L 333.729, 758.788 
	L 333.970, 776.857 
" />
<path d="M 346.797, 747.800 
	L 346.796, 747.801 
	L 325.255, 748.087 
	L 325.015, 730.018 
	L 346.556, 729.731 
	L 346.796, 747.801 
" />
<path d="M 368.128, 718.744 
	L 368.127, 718.745 
	L 346.444, 719.033 
	L 346.204, 700.963 
	L 367.887, 700.676 
	L 368.127, 718.745 
" />
<path d="M 397.962, 689.688 
	L 397.962, 689.688 
	L 376.137, 689.978 
	L 375.897, 671.910 
	L 397.721, 671.620 
	L 397.962, 689.688 
" />
<path d="M 436.301, 660.632 
	L 436.300, 660.633 
	L 414.334, 660.925 
	L 414.094, 642.855 
	L 436.060, 642.563 
	L 436.300, 660.633 
" />
<path d="M 483.143, 631.576 
	L 483.143, 631.577 
	L 461.035, 631.870 
	L 460.794, 613.801 
	L 482.903, 613.507 
	L 483.143, 631.577 
" />
<path d="M 538.490, 602.520 
	L 538.489, 602.520 
	L 516.239, 602.816 
	L 515.999, 584.747 
	L 538.249, 584.452 
	L 538.489, 602.520 
" />
<path d="M 602.340, 573.464 
	L 602.340, 573.464 
	L 579.948, 573.762 
	L 579.708, 555.693 
	L 602.099, 555.395 
	L 602.340, 573.464 
" />
<path d="M 674.695, 544.408 
	L 674.694, 544.409 
	L 652.161, 544.708 
	L 651.920, 526.638 
	L 674.454, 526.339 
	L 674.694, 544.409 
" />
<path d="M 755.553, 515.351 
	L 755.552, 515.352 
	L 732.877, 515.653 
	L 732.637, 497.585 
	L 755.312, 497.283 
	L 755.552, 515.352 
" />
<path d="M 844.915, 486.296 
	L 844.914, 486.296 
	L 822.098, 486.600 
	L 821.857, 468.530 
	L 844.674, 468.227 
	L 844.914, 486.296 
" />
<path d="M 942.781, 457.240 
	L 942.781, 457.240 
	L 919.822, 457.545 
	L 919.582, 439.476 
	L 942.540, 439.171 
	L 942.781, 457.240 
" />
<path d="M 1049.151, 428.183 
	L 1049.151, 428.184 
	L 1026.050, 428.491 
	L 1025.810, 410.422 
	L 1048.910, 410.115 
	L 1049.151, 428.184 
" />
<path d="M 1164.025, 399.127 
	L 1164.025, 399.128 
	L 1140.783, 399.437 
	L 1140.543, 381.368 
	L 1163.785, 381.059 
	L 1164.025, 399.128 
" />
<path d="M 1287.403, 370.072 
	L 1287.403, 370.072 
	L 1264.019, 370.383 
	L 1263.779, 352.313 
	L 1287.162, 352.003 
	L 1287.403, 370.072 
" />
<path d="M 1419.285, 341.015 
	L 1419.285, 341.016 
	L 1395.759, 341.328 
	L 1395.519, 323.260 
	L 1419.044, 322.947 
	L 1419.285, 341.016 
" />
<path d="M 1559.671, 311.959 
	L 1559.670, 311.960 
	L 1536.003, 312.275 
	L 1535.763, 294.205 
	L 1559.430, 293.890 
	L 1559.670, 311.960 
" />
<path d="M 1708.561, 282.903 
	L 1708.560, 282.904 
	L 1684.751, 283.220 
	L 1684.511, 265.151 
	L 1708.320, 264.835 
	L 1708.560, 282.904 
" />
<path d="M 1865.955, 253.847 
	L 1865.954, 253.848 
	L 1842.003, 254.166 
	L 1841.763, 236.097 
	L 1865.714, 235.779 
	L 1865.954, 253.848 
" />
<path d="M 337.881, 786.521 
	L 337.881, 786.522 
	L 358.965, 789.243 
	L 356.608, 807.517 
	L 335.523, 804.796 
	L 337.881, 786.522 
" />
<path d="M 342.063, 756.749 
	L 342.062, 756.750 
	L 363.288, 759.488 
	L 360.930, 777.762 
	L 339.705, 775.023 
	L 342.062, 756.750 
" />
<path d="M 354.748, 726.976 
	L 354.747, 726.977 
	L 376.114, 729.734 
	L 373.757, 748.007 
	L 352.390, 745.250 
	L 354.747, 726.977 
" />
<path d="M 375.938, 697.203 
	L 375.937, 697.204 
	L 397.444, 699.979 
	L 395.087, 718.253 
	L 373.579, 715.477 
	L 375.937, 697.204 
" />
<path d="M 405.631, 667.430 
	L 405.631, 667.431 
	L 427.278, 670.224 
	L 424.921, 688.498 
	L 403.273, 685.704 
	L 405.631, 667.431 
" />
<path d="M 443.829, 637.657 
	L 443.828, 637.658 
	L 465.616, 640.469 
	L 463.258, 658.743 
	L 441.471, 655.932 
	L 443.828, 637.658 
" />
<path d="M 490.531, 607.885 
	L 490.530, 607.886 
	L 512.458, 610.715 
	L 510.100, 628.988 
	L 488.172, 626.159 
	L 490.530, 607.886 
" />
<path d="M 545.736, 578.112 
	L 545.735, 578.113 
	L 567.804, 580.960 
	L 565.446, 599.234 
	L 543.378, 596.386 
	L 545.735, 578.113 
" />
<path d="M 609.445, 548.339 
	L 609.444, 548.340 
	L 631.654, 551.205 
	L 629.296, 569.479 
	L 607.086, 566.613 
	L 609.444, 548.340 
" />
<path d="M 681.658, 518.566 
	L 681.657, 518.567 
	L 704.008, 521.450 
	L 701.650, 539.724 
	L 679.300, 536.841 
	L 681.657, 518.567 
" />
<path d="M 762.375, 488.793 
	L 762.375, 488.794 
	L 784.865, 491.696 
	L 782.508, 509.970 
	L 760.017, 507.068 
	L 762.375, 488.794 
" />
<path d="M 851.596, 459.021 
	L 851.596, 459.021 
	L 874.227, 461.941 
	L 871.869, 480.215 
	L 849.238, 477.295 
	L 851.596, 459.021 
" />
<path d="M 949.322, 429.248 
	L 949.321, 429.248 
	L 972.092, 432.186 
	L 969.735, 450.460 
	L 946.963, 447.522 
	L 949.321, 429.248 
" />
<path d="M 1055.551, 399.475 
	L 1055.550, 399.475 
	L 1078.462, 402.432 
	L 1076.104, 420.705 
	L 1053.192, 417.749 
	L 1055.550, 399.475 
" />
<path d="M 1170.283, 369.702 
	L 1170.282, 369.702 
	L 1193.336, 372.677 
	L 1190.978, 390.951 
	L 1167.925, 387.977 
	L 1170.282, 369.702 
" />
<path d="M 1293.520, 339.929 
	L 1293.519, 339.929 
	L 1316.713, 342.922 
	L 1314.355, 361.196 
	L 1291.162, 358.204 
	L 1293.519, 339.929 
" />
<path d="M 1425.261, 310.156 
	L 1425.260, 310.157 
	L 1448.594, 313.167 
	L 1446.236, 331.441 
	L 1422.902, 328.431 
	L 1425.260, 310.157 
" />
<path d="M 1565.506, 280.383 
	L 1565.505, 280.384 
	L 1588.979, 283.413 
	L 1586.622, 301.686 
	L 1563.147, 298.658 
	L 1565.505, 280.384 
" />
<path d="M 1714.254, 250.610 
	L 1714.254, 250.611 
	L 1737.868, 253.658 
	L 1735.511, 271.932 
	L 1711.896, 268.885 
	L 1714.254, 250.611 
" />
<path d="M 1871.506, 220.837 
	L 1871.506, 220.838 
	L 1895.262, 223.903 
	L 1892.904, 242.177 
	L 1869.148, 239.112 
	L 1871.506, 220.838 
" />
<path d="M 383.333, 808.903 
	L 383.332, 808.904 
	L 362.842, 803.235 
	L 367.849, 785.135 
	L 388.339, 790.804 
	L 383.332, 808.904 
" />
<path d="M 387.653, 778.450 
	L 387.652, 778.450 
	L 367.026, 772.744 
	L 372.033, 754.644 
	L 392.659, 760.351 
	L 387.652, 778.450 
" />
<path d="M 400.477, 747.996 
	L 400.477, 747.997 
	L 379.713, 742.252 
	L 384.720, 724.153 
	L 405.484, 729.897 
	L 400.477, 747.997 
" />
<path d="M 421.805, 717.542 
	L 421.805, 717.543 
	L 400.905, 711.761 
	L 405.912, 693.661 
	L 426.812, 699.443 
	L 421.805, 717.543 
" />
<path d="M 451.637, 687.089 
	L 451.636, 687.090 
	L 430.600, 681.270 
	L 435.608, 663.170 
	L 456.644, 668.990 
	L 451.636, 687.090 
" />
<path d="M 489.974, 656.635 
	L 489.973, 656.636 
	L 468.799, 650.778 
	L 473.807, 632.679 
	L 494.980, 638.537 
	L 489.973, 656.636 
" />
<path d="M 536.813, 626.182 
	L 536.813, 626.183 
	L 515.503, 620.287 
	L 520.510, 602.187 
	L 541.820, 608.083 
	L 536.813, 626.183 
" />
<path d="M 592.158, 595.729 
	L 592.157, 595.729 
	L 570.710, 589.796 
	L 575.717, 571.696 
	L 597.164, 577.629 
	L 592.157, 595.729 
" />
<path d="M 656.005, 565.275 
	L 656.004, 565.275 
	L 634.421, 559.304 
	L 639.429, 541.205 
	L 661.012, 547.176 
	L 656.004, 565.275 
" />
<path d="M 728.357, 534.821 
	L 728.356, 534.822 
	L 706.637, 528.813 
	L 711.644, 510.713 
	L 733.363, 516.722 
	L 728.356, 534.822 
" />
<path d="M 809.213, 504.368 
	L 809.212, 504.369 
	L 787.356, 498.322 
	L 792.363, 480.222 
	L 814.219, 486.269 
	L 809.212, 504.369 
" />
<path d="M 898.572, 473.914 
	L 898.571, 473.915 
	L 876.579, 467.830 
	L 881.586, 449.731 
	L 903.579, 455.815 
	L 898.571, 473.915 
" />
<path d="M 996.435, 443.461 
	L 996.435, 443.461 
	L 974.305, 437.339 
	L 979.314, 419.239 
	L 1001.443, 425.361 
	L 996.435, 443.461 
" />
<path d="M 1102.803, 413.007 
	L 1102.803, 413.008 
	L 1080.537, 406.848 
	L 1085.544, 388.748 
	L 1107.810, 394.908 
	L 1102.803, 413.008 
" />
<path d="M 1217.675, 382.553 
	L 1217.674, 382.554 
	L 1195.272, 376.356 
	L 1200.279, 358.257 
	L 1222.681, 364.455 
	L 1217.674, 382.554 
" />
<path d="M 1341.050, 352.100 
	L 1341.050, 352.101 
	L 1318.510, 345.865 
	L 1323.518, 327.765 
	L 1346.057, 334.001 
	L 1341.050, 352.101 
" />
<path d="M 1472.930, 321.647 
	L 1472.929, 321.647 
	L 1450.253, 315.374 
	L 1455.261, 297.274 
	L 1477.936, 303.547 
	L 1472.929, 321.647 
" />
<path d="M 1613.313, 291.193 
	L 1613.312, 291.193 
	L 1590.500, 284.882 
	L 1595.508, 266.783 
	L 1618.319, 273.094 
	L 1613.312, 291.193 
" />
<path d="M 1762.200, 260.739 
	L 1762.200, 260.740 
	L 1739.250, 254.391 
	L 1744.258, 236.291 
	L 1767.207, 242.640 
	L 1762.200, 260.740 
" />
<path d="M 1919.591, 230.286 
	L 1919.591, 230.287 
	L 1896.505, 223.899 
	L 1901.512, 205.800 
	L 1924.598, 212.187 
	L 1919.591, 230.287 
" />
<path d="M 398.022, 783.999 
	L 398.021, 783.999 
	L 417.507, 792.503 
	L 409.853, 810.040 
	L 390.368, 801.536 
	L 398.021, 783.999 
" />
<path d="M 402.209, 752.789 
	L 402.208, 752.790 
	L 421.823, 761.351 
	L 414.170, 778.887 
	L 394.555, 770.326 
	L 402.208, 752.790 
" />
<path d="M 414.900, 721.580 
	L 414.899, 721.580 
	L 434.644, 730.198 
	L 426.991, 747.734 
	L 407.246, 739.117 
	L 414.899, 721.580 
" />
<path d="M 436.095, 690.370 
	L 436.094, 690.371 
	L 455.969, 699.045 
	L 448.316, 716.582 
	L 428.440, 707.908 
	L 436.094, 690.371 
" />
<path d="M 465.793, 659.161 
	L 465.793, 659.162 
	L 485.797, 667.892 
	L 478.145, 685.429 
	L 458.140, 676.698 
	L 465.793, 659.162 
" />
<path d="M 503.997, 627.951 
	L 503.996, 627.952 
	L 524.130, 636.739 
	L 516.477, 654.276 
	L 496.342, 645.489 
	L 503.996, 627.952 
" />
<path d="M 550.703, 596.742 
	L 550.702, 596.743 
	L 570.967, 605.587 
	L 563.314, 623.123 
	L 543.049, 614.279 
	L 550.702, 596.743 
" />
<path d="M 605.913, 565.532 
	L 605.913, 565.533 
	L 626.307, 574.434 
	L 618.654, 591.971 
	L 598.260, 583.070 
	L 605.913, 565.533 
" />
<path d="M 669.628, 534.323 
	L 669.628, 534.324 
	L 690.152, 543.281 
	L 682.498, 560.818 
	L 661.974, 551.860 
	L 669.628, 534.324 
" />
<path d="M 741.847, 503.114 
	L 741.846, 503.114 
	L 762.500, 512.128 
	L 754.847, 529.665 
	L 734.193, 520.651 
	L 741.846, 503.114 
" />
<path d="M 822.569, 471.904 
	L 822.568, 471.905 
	L 843.353, 480.976 
	L 835.700, 498.512 
	L 814.915, 489.441 
	L 822.568, 471.905 
" />
<path d="M 911.796, 440.695 
	L 911.795, 440.695 
	L 932.709, 449.823 
	L 925.056, 467.359 
	L 904.142, 458.232 
	L 911.795, 440.695 
" />
<path d="M 1009.526, 409.485 
	L 1009.525, 409.486 
	L 1030.569, 418.670 
	L 1022.916, 436.207 
	L 1001.872, 427.022 
	L 1009.525, 409.486 
" />
<path d="M 1115.761, 378.276 
	L 1115.760, 378.276 
	L 1136.933, 387.517 
	L 1129.280, 405.054 
	L 1108.106, 395.813 
	L 1115.760, 378.276 
" />
<path d="M 1230.499, 347.066 
	L 1230.498, 347.067 
	L 1251.802, 356.365 
	L 1244.148, 373.901 
	L 1222.844, 364.604 
	L 1230.498, 347.067 
" />
<path d="M 1353.740, 315.857 
	L 1353.740, 315.858 
	L 1375.173, 325.212 
	L 1367.520, 342.748 
	L 1346.087, 333.394 
	L 1353.740, 315.858 
" />
<path d="M 1485.487, 284.647 
	L 1485.486, 284.648 
	L 1507.050, 294.059 
	L 1499.396, 311.596 
	L 1477.833, 302.185 
	L 1485.486, 284.648 
" />
<path d="M 1625.737, 253.438 
	L 1625.736, 253.439 
	L 1647.430, 262.906 
	L 1639.776, 280.443 
	L 1618.083, 270.975 
	L 1625.736, 253.439 
" />
<path d="M 1774.491, 222.228 
	L 1774.490, 222.229 
	L 1796.313, 231.754 
	L 1788.660, 249.290 
	L 1766.837, 239.766 
	L 1774.490, 222.229 
" />
<path d="M 1931.749, 191.019 
	L 1931.748, 191.020 
	L 1953.701, 200.601 
	L 1946.048, 218.137 
	L 1924.095, 208.556 
	L 1931.748, 191.020 
" />
<path d="M 436.210, 810.894 
	L 436.210, 810.895 
	L 418.120, 799.727 
	L 428.358, 783.144 
	L 446.448, 794.312 
	L 436.210, 810.895 
" />
<path d="M 440.522, 779.042 
	L 440.522, 779.042 
	L 422.311, 767.800 
	L 432.549, 751.217 
	L 450.760, 762.460 
	L 440.522, 779.042 
" />
<path d="M 453.339, 747.189 
	L 453.339, 747.190 
	L 435.007, 735.873 
	L 445.244, 719.290 
	L 463.576, 730.607 
	L 453.339, 747.190 
" />
<path d="M 474.659, 715.336 
	L 474.659, 715.337 
	L 456.207, 703.945 
	L 466.444, 687.363 
	L 484.896, 698.755 
	L 474.659, 715.337 
" />
<path d="M 504.483, 683.484 
	L 504.483, 683.485 
	L 485.910, 672.019 
	L 496.147, 655.436 
	L 514.720, 666.902 
	L 504.483, 683.485 
" />
<path d="M 542.811, 651.631 
	L 542.811, 651.632 
	L 524.118, 640.091 
	L 534.355, 623.509 
	L 553.048, 635.050 
	L 542.811, 651.632 
" />
<path d="M 589.643, 619.779 
	L 589.643, 619.780 
	L 570.829, 608.165 
	L 581.066, 591.582 
	L 599.880, 603.197 
	L 589.643, 619.780 
" />
<path d="M 644.979, 587.926 
	L 644.978, 587.927 
	L 626.044, 576.237 
	L 636.282, 559.656 
	L 655.216, 571.345 
	L 644.978, 587.927 
" />
<path d="M 708.819, 556.074 
	L 708.818, 556.075 
	L 689.764, 544.311 
	L 700.001, 527.728 
	L 719.055, 539.492 
	L 708.818, 556.075 
" />
<path d="M 781.163, 524.222 
	L 781.162, 524.222 
	L 761.986, 512.384 
	L 772.224, 495.801 
	L 791.400, 507.640 
	L 781.162, 524.222 
" />
<path d="M 862.010, 492.369 
	L 862.010, 492.370 
	L 842.713, 480.457 
	L 852.951, 463.874 
	L 872.248, 475.787 
	L 862.010, 492.370 
" />
<path d="M 951.362, 460.517 
	L 951.361, 460.517 
	L 931.944, 448.530 
	L 942.183, 431.947 
	L 961.599, 443.935 
	L 951.361, 460.517 
" />
<path d="M 1049.217, 428.664 
	L 1049.217, 428.664 
	L 1029.680, 416.603 
	L 1039.918, 400.020 
	L 1059.455, 412.082 
	L 1049.217, 428.664 
" />
<path d="M 1155.577, 396.811 
	L 1155.577, 396.812 
	L 1135.919, 384.676 
	L 1146.156, 368.093 
	L 1165.814, 380.229 
	L 1155.577, 396.812 
" />
<path d="M 1270.441, 364.959 
	L 1270.440, 364.959 
	L 1250.662, 352.749 
	L 1260.899, 336.166 
	L 1280.677, 348.377 
	L 1270.440, 364.959 
" />
<path d="M 1393.808, 333.106 
	L 1393.808, 333.107 
	L 1373.908, 320.822 
	L 1384.146, 304.239 
	L 1404.045, 316.524 
	L 1393.808, 333.107 
" />
<path d="M 1525.679, 301.253 
	L 1525.679, 301.254 
	L 1505.659, 288.895 
	L 1515.896, 272.312 
	L 1535.916, 284.671 
	L 1525.679, 301.254 
" />
<path d="M 1666.055, 269.401 
	L 1666.054, 269.402 
	L 1645.914, 256.968 
	L 1656.151, 240.385 
	L 1676.291, 252.819 
	L 1666.054, 269.402 
" />
<path d="M 1814.934, 237.548 
	L 1814.933, 237.549 
	L 1794.673, 225.041 
	L 1804.910, 208.458 
	L 1825.170, 220.966 
	L 1814.933, 237.549 
" />
<path d="M 1972.317, 205.696 
	L 1972.316, 205.697 
	L 1951.935, 193.114 
	L 1962.172, 176.531 
	L 1982.554, 189.114 
	L 1972.316, 205.697 
" />
<path d="M 458.815, 782.592 
	L 458.814, 782.593 
	L 475.148, 796.202 
	L 462.446, 811.447 
	L 446.112, 797.837 
	L 458.814, 782.593 
" />
<path d="M 463.012, 749.948 
	L 463.012, 749.949 
	L 479.454, 763.649 
	L 466.752, 778.893 
	L 450.310, 765.193 
	L 463.012, 749.949 
" />
<path d="M 475.715, 717.304 
	L 475.714, 717.305 
	L 492.264, 731.096 
	L 479.562, 746.340 
	L 463.012, 732.549 
	L 475.714, 717.305 
" />
<path d="M 496.920, 684.661 
	L 496.919, 684.661 
	L 513.578, 698.543 
	L 500.876, 713.787 
	L 484.217, 699.905 
	L 496.919, 684.661 
" />
<path d="M 526.629, 652.017 
	L 526.628, 652.018 
	L 543.397, 665.990 
	L 530.695, 681.234 
	L 513.926, 667.262 
	L 526.628, 652.018 
" />
<path d="M 564.842, 619.373 
	L 564.842, 619.374 
	L 581.719, 633.437 
	L 569.017, 648.681 
	L 552.139, 634.618 
	L 564.842, 619.374 
" />
<path d="M 611.559, 586.729 
	L 611.559, 586.730 
	L 628.545, 600.884 
	L 615.843, 616.128 
	L 598.857, 601.974 
	L 611.559, 586.730 
" />
<path d="M 666.780, 554.085 
	L 666.780, 554.086 
	L 683.875, 568.331 
	L 671.173, 583.575 
	L 654.078, 569.330 
	L 666.780, 554.086 
" />
<path d="M 730.506, 521.442 
	L 730.505, 521.442 
	L 747.709, 535.778 
	L 735.007, 551.022 
	L 717.803, 536.686 
	L 730.505, 521.442 
" />
<path d="M 802.735, 488.798 
	L 802.734, 488.799 
	L 820.047, 503.225 
	L 807.345, 518.469 
	L 790.032, 504.043 
	L 802.734, 488.799 
" />
<path d="M 883.468, 456.154 
	L 883.467, 456.155 
	L 900.889, 470.672 
	L 888.187, 485.916 
	L 870.765, 471.399 
	L 883.467, 456.155 
" />
<path d="M 972.705, 423.510 
	L 972.704, 423.511 
	L 990.235, 438.119 
	L 977.533, 453.363 
	L 960.002, 438.755 
	L 972.704, 423.511 
" />
<path d="M 1070.445, 390.867 
	L 1070.445, 390.867 
	L 1088.085, 405.566 
	L 1075.383, 420.810 
	L 1057.743, 406.111 
	L 1070.445, 390.867 
" />
<path d="M 1176.690, 358.223 
	L 1176.689, 358.223 
	L 1194.438, 373.013 
	L 1181.736, 388.257 
	L 1163.987, 373.467 
	L 1176.689, 358.223 
" />
<path d="M 1291.439, 325.579 
	L 1291.439, 325.580 
	L 1309.295, 340.459 
	L 1296.593, 355.703 
	L 1278.737, 340.824 
	L 1291.439, 325.580 
" />
<path d="M 1414.692, 292.935 
	L 1414.691, 292.936 
	L 1432.657, 307.906 
	L 1419.955, 323.150 
	L 1401.989, 308.180 
	L 1414.691, 292.936 
" />
<path d="M 1546.448, 260.291 
	L 1546.448, 260.292 
	L 1564.523, 275.353 
	L 1551.821, 290.597 
	L 1533.745, 275.536 
	L 1546.448, 260.292 
" />
<path d="M 1686.709, 227.648 
	L 1686.708, 227.648 
	L 1704.892, 242.800 
	L 1692.190, 258.044 
	L 1674.006, 242.892 
	L 1686.708, 227.648 
" />
<path d="M 1835.473, 195.004 
	L 1835.472, 195.005 
	L 1853.766, 210.247 
	L 1841.064, 225.491 
	L 1822.770, 210.249 
	L 1835.472, 195.005 
" />
<path d="M 1992.742, 162.360 
	L 1992.741, 162.361 
	L 2011.143, 177.694 
	L 1998.440, 192.938 
	L 1980.039, 177.605 
	L 1992.741, 162.361 
" />
<path d="M 488.607, 811.676 
	L 488.607, 811.677 
	L 474.357, 795.898 
	L 489.346, 782.362 
	L 503.595, 798.141 
	L 488.607, 811.677 
" />
<path d="M 492.907, 778.421 
	L 492.906, 778.422 
	L 478.562, 762.539 
	L 493.551, 749.003 
	L 507.895, 764.886 
	L 492.906, 778.422 
" />
<path d="M 505.710, 745.167 
	L 505.709, 745.168 
	L 491.270, 729.179 
	L 506.259, 715.643 
	L 520.698, 731.631 
	L 505.709, 745.168 
" />
<path d="M 527.017, 711.913 
	L 527.017, 711.914 
	L 512.483, 695.820 
	L 527.472, 682.283 
	L 542.006, 698.377 
	L 527.017, 711.914 
" />
<path d="M 556.829, 678.658 
	L 556.828, 678.659 
	L 542.199, 662.460 
	L 557.188, 648.923 
	L 571.817, 665.122 
	L 556.828, 678.659 
" />
<path d="M 595.144, 645.404 
	L 595.143, 645.404 
	L 580.419, 629.100 
	L 595.408, 615.564 
	L 610.132, 631.868 
	L 595.143, 645.404 
" />
<path d="M 641.963, 612.149 
	L 641.962, 612.150 
	L 627.144, 595.741 
	L 642.132, 582.204 
	L 656.951, 598.613 
	L 641.962, 612.150 
" />
<path d="M 697.286, 578.895 
	L 697.285, 578.896 
	L 682.372, 562.381 
	L 697.361, 548.844 
	L 712.274, 565.359 
	L 697.285, 578.896 
" />
<path d="M 761.113, 545.640 
	L 761.112, 545.641 
	L 746.104, 529.021 
	L 761.093, 515.485 
	L 776.101, 532.104 
	L 761.112, 545.641 
" />
<path d="M 833.444, 512.386 
	L 833.443, 512.386 
	L 818.340, 495.662 
	L 833.329, 482.125 
	L 848.432, 498.850 
	L 833.443, 512.386 
" />
<path d="M 914.279, 479.131 
	L 914.278, 479.132 
	L 899.080, 462.302 
	L 914.068, 448.766 
	L 929.267, 465.596 
	L 914.278, 479.132 
" />
<path d="M 1003.618, 445.876 
	L 1003.617, 445.877 
	L 988.323, 428.942 
	L 1003.312, 415.406 
	L 1018.606, 432.341 
	L 1003.617, 445.877 
" />
<path d="M 1101.461, 412.622 
	L 1101.460, 412.623 
	L 1086.071, 395.583 
	L 1101.060, 382.046 
	L 1116.449, 399.086 
	L 1101.460, 412.623 
" />
<path d="M 1207.807, 379.368 
	L 1207.807, 379.368 
	L 1192.323, 362.223 
	L 1207.312, 348.686 
	L 1222.795, 365.832 
	L 1207.807, 379.368 
" />
<path d="M 1322.658, 346.113 
	L 1322.657, 346.114 
	L 1307.079, 328.863 
	L 1322.068, 315.327 
	L 1337.646, 332.578 
	L 1322.657, 346.114 
" />
<path d="M 1446.012, 312.858 
	L 1446.012, 312.859 
	L 1430.338, 295.503 
	L 1445.327, 281.967 
	L 1461.001, 299.323 
	L 1446.012, 312.859 
" />
<path d="M 1577.871, 279.605 
	L 1577.870, 279.605 
	L 1562.101, 262.144 
	L 1577.091, 248.607 
	L 1592.860, 266.068 
	L 1577.870, 279.605 
" />
<path d="M 1718.233, 246.350 
	L 1718.233, 246.351 
	L 1702.369, 228.784 
	L 1717.358, 215.247 
	L 1733.222, 232.814 
	L 1718.233, 246.351 
" />
<path d="M 1867.100, 213.095 
	L 1867.099, 213.096 
	L 1851.140, 195.425 
	L 1866.130, 181.888 
	L 1882.089, 199.559 
	L 1867.099, 213.096 
" />
<path d="M 2024.470, 179.841 
	L 2024.470, 179.841 
	L 2008.416, 162.065 
	L 2023.405, 148.528 
	L 2039.459, 166.305 
	L 2024.470, 179.841 
" />
<path d="M 519.905, 782.462 
	L 519.905, 782.462 
	L 531.785, 800.093 
	L 514.741, 811.577 
	L 502.861, 793.946 
	L 519.905, 782.462 
" />
<path d="M 524.118, 748.387 
	L 524.117, 748.388 
	L 536.076, 766.136 
	L 519.033, 777.620 
	L 507.074, 759.872 
	L 524.117, 748.388 
" />
<path d="M 536.834, 714.312 
	L 536.833, 714.313 
	L 548.872, 732.179 
	L 531.829, 743.663 
	L 519.790, 725.797 
	L 536.833, 714.313 
" />
<path d="M 558.055, 680.238 
	L 558.054, 680.239 
	L 570.171, 698.222 
	L 553.127, 709.706 
	L 541.011, 691.722 
	L 558.054, 680.239 
" />
<path d="M 587.779, 646.163 
	L 587.778, 646.164 
	L 599.974, 664.265 
	L 582.931, 675.749 
	L 570.735, 657.648 
	L 587.778, 646.164 
" />
<path d="M 626.007, 612.089 
	L 626.006, 612.089 
	L 638.282, 630.308 
	L 621.238, 641.792 
	L 608.963, 623.573 
	L 626.006, 612.089 
" />
<path d="M 672.739, 578.014 
	L 672.738, 578.015 
	L 685.093, 596.351 
	L 668.050, 607.835 
	L 655.695, 589.499 
	L 672.738, 578.015 
" />
<path d="M 727.975, 543.940 
	L 727.974, 543.940 
	L 740.408, 562.394 
	L 723.365, 573.878 
	L 710.931, 555.424 
	L 727.974, 543.940 
" />
<path d="M 791.715, 509.865 
	L 791.714, 509.866 
	L 804.227, 528.438 
	L 787.184, 539.921 
	L 774.671, 521.350 
	L 791.714, 509.866 
" />
<path d="M 863.958, 475.791 
	L 863.958, 475.792 
	L 876.551, 494.481 
	L 859.507, 505.964 
	L 846.914, 487.275 
	L 863.958, 475.792 
" />
<path d="M 944.706, 441.717 
	L 944.705, 441.717 
	L 957.378, 460.524 
	L 940.334, 472.007 
	L 927.662, 453.200 
	L 944.705, 441.717 
" />
<path d="M 1033.958, 407.642 
	L 1033.957, 407.643 
	L 1046.708, 426.566 
	L 1029.665, 438.050 
	L 1016.914, 419.127 
	L 1033.957, 407.643 
" />
<path d="M 1131.714, 373.567 
	L 1131.713, 373.568 
	L 1144.543, 392.609 
	L 1127.500, 404.093 
	L 1114.670, 385.052 
	L 1131.713, 373.568 
" />
<path d="M 1237.974, 339.493 
	L 1237.973, 339.494 
	L 1250.882, 358.652 
	L 1233.839, 370.136 
	L 1220.930, 350.977 
	L 1237.973, 339.494 
" />
<path d="M 1352.737, 305.418 
	L 1352.736, 305.419 
	L 1365.725, 324.695 
	L 1348.681, 336.179 
	L 1335.693, 316.903 
	L 1352.736, 305.419 
" />
<path d="M 1476.005, 271.344 
	L 1476.004, 271.344 
	L 1489.071, 290.738 
	L 1472.028, 302.222 
	L 1458.961, 282.828 
	L 1476.004, 271.344 
" />
<path d="M 1607.776, 237.269 
	L 1607.775, 237.270 
	L 1620.922, 256.781 
	L 1603.879, 268.265 
	L 1590.732, 248.754 
	L 1607.775, 237.270 
" />
<path d="M 1748.051, 203.195 
	L 1748.050, 203.195 
	L 1761.277, 222.824 
	L 1744.234, 234.308 
	L 1731.007, 214.679 
	L 1748.050, 203.195 
" />
<path d="M 1896.830, 169.120 
	L 1896.830, 169.121 
	L 1910.136, 188.867 
	L 1893.092, 200.351 
	L 1879.786, 180.605 
	L 1896.830, 169.121 
" />
<path d="M 2054.114, 135.045 
	L 2054.113, 135.046 
	L 2067.498, 154.911 
	L 2050.455, 166.394 
	L 2037.070, 146.530 
	L 2054.113, 135.046 
" />
<path d="M 540.900, 811.143 
	L 540.899, 811.144 
	L 531.627, 792.013 
	L 550.439, 782.895 
	L 559.712, 802.026 
	L 540.899, 811.144 
" />
<path d="M 545.183, 776.483 
	L 545.183, 776.483 
	L 535.848, 757.225 
	L 554.660, 748.107 
	L 563.995, 767.366 
	L 545.183, 776.483 
" />
<path d="M 557.970, 741.822 
	L 557.970, 741.823 
	L 548.573, 722.436 
	L 567.385, 713.319 
	L 576.782, 732.705 
	L 557.970, 741.823 
" />
<path d="M 579.261, 707.161 
	L 579.260, 707.162 
	L 569.802, 687.648 
	L 588.614, 678.531 
	L 598.072, 698.044 
	L 579.260, 707.162 
" />
<path d="M 609.056, 672.501 
	L 609.055, 672.501 
	L 599.535, 652.860 
	L 618.347, 643.742 
	L 627.867, 663.384 
	L 609.055, 672.501 
" />
<path d="M 647.354, 637.840 
	L 647.354, 637.841 
	L 637.771, 618.072 
	L 656.583, 608.954 
	L 666.166, 628.723 
	L 647.354, 637.841 
" />
<path d="M 694.157, 603.179 
	L 694.156, 603.180 
	L 684.513, 583.284 
	L 703.325, 574.166 
	L 712.968, 594.062 
	L 694.156, 603.180 
" />
<path d="M 749.463, 568.519 
	L 749.463, 568.519 
	L 739.757, 548.496 
	L 758.569, 539.378 
	L 768.275, 559.401 
	L 749.463, 568.519 
" />
<path d="M 813.273, 533.858 
	L 813.273, 533.859 
	L 803.506, 513.708 
	L 822.318, 504.590 
	L 832.085, 524.740 
	L 813.273, 533.859 
" />
<path d="M 885.588, 499.198 
	L 885.587, 499.198 
	L 875.758, 478.920 
	L 894.570, 469.801 
	L 904.400, 490.080 
	L 885.587, 499.198 
" />
<path d="M 966.407, 464.537 
	L 966.406, 464.538 
	L 956.515, 444.132 
	L 975.327, 435.013 
	L 985.218, 455.419 
	L 966.406, 464.538 
" />
<path d="M 1055.729, 429.876 
	L 1055.728, 429.877 
	L 1045.775, 409.343 
	L 1064.587, 400.225 
	L 1074.540, 420.759 
	L 1055.728, 429.877 
" />
<path d="M 1153.555, 395.216 
	L 1153.554, 395.216 
	L 1143.539, 374.555 
	L 1162.352, 365.437 
	L 1172.366, 386.098 
	L 1153.554, 395.216 
" />
<path d="M 1259.885, 360.555 
	L 1259.884, 360.556 
	L 1249.808, 339.767 
	L 1268.620, 330.649 
	L 1278.697, 351.437 
	L 1259.884, 360.556 
" />
<path d="M 1374.719, 325.894 
	L 1374.718, 325.895 
	L 1364.580, 304.979 
	L 1383.392, 295.861 
	L 1393.530, 316.777 
	L 1374.718, 325.895 
" />
<path d="M 1498.057, 291.234 
	L 1498.057, 291.234 
	L 1487.856, 270.191 
	L 1506.668, 261.072 
	L 1516.869, 282.116 
	L 1498.057, 291.234 
" />
<path d="M 1629.899, 256.573 
	L 1629.898, 256.574 
	L 1619.637, 235.402 
	L 1638.449, 226.284 
	L 1648.710, 247.455 
	L 1629.898, 256.574 
" />
<path d="M 1770.245, 221.912 
	L 1770.244, 221.913 
	L 1759.920, 200.614 
	L 1778.733, 191.496 
	L 1789.056, 212.795 
	L 1770.244, 221.913 
" />
<path d="M 1919.095, 187.252 
	L 1919.094, 187.252 
	L 1908.708, 165.826 
	L 1927.520, 156.708 
	L 1937.907, 178.134 
	L 1919.094, 187.252 
" />
<path d="M 2076.448, 152.591 
	L 2076.448, 152.592 
	L 2066.001, 131.038 
	L 2084.813, 121.920 
	L 2095.260, 143.474 
	L 2076.448, 152.592 
" />
<path d="M 1138.110, 797.020 
	L 1140.236, 797.020 
	L 1140.945, 795.957 
	L 1140.236, 794.894 
	L 1138.819, 794.894 
" />
<path d="M 1140.236, 794.894 
	L 1140.945, 793.831 
	L 1140.236, 792.768 
	L 1138.110, 792.768 
" />
<path d="M 1139.528, 790.642 
	L 1139.528, 787.453 
	L 1138.819, 786.390 
	L 1138.110, 787.453 
	L 1138.110, 789.579 
	L 1138.819, 790.642 
	L 1140.236, 790.642 
	L 1140.945, 789.579 
	L 1140.945, 786.390 
" />
<path d="M 1140.945, 780.012 
	L 1140.945, 783.201 
	L 1140.236, 784.264 
	L 1138.819, 784.264 
	L 1138.110, 783.201 
	L 1138.110, 781.075 
	L 1140.945, 781.075 
" />
<path d="M 1138.110, 777.886 
	L 1139.528, 777.886 
	L 1140.945, 775.760 
	L 1139.528, 773.634 
	L 1138.110, 773.634 
" />
<path d="M 1139.528, 771.508 
	L 1139.528, 768.319 
	L 1138.819, 767.256 
	L 1138.110, 768.319 
	L 1138.110, 770.445 
	L 1138.819, 771.508 
	L 1140.236, 771.508 
	L 1140.945, 770.445 
	L 1140.945, 767.256 
" />
<path d="M 1138.110, 761.941 
	L 1138.110, 764.067 
	L 1138.819, 765.130 
	L 1139.528, 764.067 
	L 1139.528, 763.004 
	L 1140.236, 761.941 
	L 1140.945, 763.004 
	L 1140.945, 765.130 
" />
<path d="M 1140.945, 756.626 
	L 1140.945, 757.689 
	L 1140.236, 757.689 
	L 1140.236, 756.626 
	L 1140.945, 756.626 
" />
<path d="M 1142.362, 752.374 
	L 1138.110, 752.374 
	L 1138.110, 750.248 
	L 1138.819, 749.185 
	L 1140.236, 749.185 
	L 1140.945, 750.248 
	L 1140.945, 752.374 
" />
<path d="M 1142.362, 745.996 
	L 1139.528, 741.744 
	L 1138.110, 741.744 
" />
<path d="M 1138.110, 745.996 
	L 1139.528, 745.996 
	L 1140.945, 743.870 
" />
<path d="M 1137.402, 714.106 
	L 1136.693, 713.043 
	L 1136.693, 710.917 
	L 1137.402, 709.854 
	L 1138.110, 709.854 
	L 1140.236, 714.106 
	L 1140.945, 714.106 
	L 1140.945, 709.854 
" />
<path d="M 1140.236, 707.728 
	L 1140.945, 706.665 
	L 1140.945, 704.539 
	L 1140.236, 703.476 
	L 1137.402, 703.476 
	L 1136.693, 704.539 
	L 1136.693, 706.665 
	L 1137.402, 707.728 
	L 1140.236, 707.728 
" />
<path d="M 1140.945, 700.287 
	L 1140.945, 698.161 
" />
<path d="M 1140.945, 699.224 
	L 1136.693, 699.224 
	L 1137.402, 700.287 
" />
<path d="M 1140.945, 693.909 
	L 1140.945, 692.846 
	L 1139.528, 690.720 
	L 1137.402, 690.720 
	L 1136.693, 691.783 
	L 1136.693, 693.909 
	L 1137.402, 694.972 
	L 1138.110, 694.972 
	L 1138.819, 693.909 
	L 1138.819, 690.720 
" />
<path d="M 1138.819, 688.594 
	L 1138.819, 684.342 
" />
<path d="M 1140.236, 682.216 
	L 1140.945, 681.153 
	L 1140.945, 679.027 
	L 1140.236, 677.964 
	L 1137.402, 677.964 
	L 1136.693, 679.027 
	L 1136.693, 681.153 
	L 1137.402, 682.216 
	L 1140.236, 682.216 
" />
<path d="M 1136.693, 671.586 
	L 1136.693, 673.712 
	L 1138.110, 675.838 
	L 1140.236, 675.838 
	L 1140.945, 674.775 
	L 1140.945, 672.649 
	L 1140.236, 671.586 
	L 1139.528, 671.586 
	L 1138.819, 672.649 
	L 1138.819, 675.838 
" />
<path d="M 1138.819, 669.460 
	L 1138.819, 665.209 
" />
<path d="M 1140.236, 663.083 
	L 1140.945, 662.020 
	L 1140.945, 659.894 
	L 1140.236, 658.831 
	L 1137.402, 658.831 
	L 1136.693, 659.894 
	L 1136.693, 662.020 
	L 1137.402, 663.083 
	L 1140.236, 663.083 
" />
<path d="M 1140.945, 655.642 
	L 1140.945, 654.579 
	L 1139.528, 652.453 
	L 1137.402, 652.453 
	L 1136.693, 653.516 
	L 1136.693, 655.642 
	L 1137.402, 656.705 
	L 1138.110, 656.705 
	L 1138.819, 655.642 
	L 1138.819, 652.453 
" />
<path d="M 1140.236, 643.949 
	L 1140.945, 642.886 
	L 1140.945, 640.760 
	L 1140.236, 639.697 
	L 1137.402, 639.697 
	L 1136.693, 640.760 
	L 1136.693, 642.886 
	L 1137.402, 643.949 
	L 1140.236, 643.949 
" />
<path d="M 1140.236, 637.571 
	L 1140.945, 636.508 
	L 1140.945, 634.382 
	L 1140.236, 633.319 
	L 1137.402, 633.319 
	L 1136.693, 634.382 
	L 1136.693, 636.508 
	L 1137.402, 637.571 
	L 1140.236, 637.571 
" />
<path d="M 1138.819, 630.130 
	L 1138.110, 630.130 
	L 1138.110, 629.067 
	L 1138.819, 629.067 
	L 1138.819, 630.130 
" />
<path d="M 1140.236, 630.130 
	L 1140.236, 629.067 
	L 1140.945, 629.067 
	L 1140.945, 630.130 
	L 1140.236, 630.130 
" />
<path d="M 1140.945, 623.752 
	L 1140.945, 621.626 
" />
<path d="M 1140.945, 622.689 
	L 1136.693, 622.689 
	L 1137.402, 623.752 
" />
<path d="M 1140.945, 617.374 
	L 1140.945, 616.311 
	L 1139.528, 614.185 
	L 1137.402, 614.185 
	L 1136.693, 615.248 
	L 1136.693, 617.374 
	L 1137.402, 618.437 
	L 1138.110, 618.437 
	L 1138.819, 617.374 
	L 1138.819, 614.185 
" />
</g>
</svg>
