<?xml version="1.0" encoding="UTF-8" standalone="no" ?>
<svg width="100%" height="100%" viewBox="0 0 2426.634 270.638" xmlns="http://www.w3.org/2000/svg"><g>
</g><g style="stroke:rgb(0,0,0); fill:none; stroke-width:1.000mm" >
</g><g style="stroke:rgb(255,0,0); fill:none; stroke-width:0.100mm" >
<path d="M 114.804, 281.267 
	L 114.803, 281.268 
	L 114.803, 260.008 
	L 128.976, 260.008 
	L 128.976, 281.268 
	L 114.803, 281.268 
" />
<path d="M 113.387, 260.078 
	L 113.386, 260.079 
	L 113.386, 238.677 
	L 127.559, 238.677 
	L 127.559, 260.079 
	L 113.386, 260.079 
" />
<path d="M 109.135, 238.889 
	L 109.134, 238.890 
	L 109.134, 217.346 
	L 123.307, 217.346 
	L 123.307, 238.890 
	L 109.134, 238.890 
" />
<path d="M 102.048, 217.700 
	L 102.047, 217.701 
	L 102.047, 196.016 
	L 116.220, 196.016 
	L 116.220, 217.701 
	L 102.047, 217.701 
" />
<path d="M 92.127, 196.511 
	L 92.126, 196.512 
	L 92.126, 174.685 
	L 106.299, 174.685 
	L 106.299, 196.512 
	L 92.126, 196.512 
" />
<path d="M 79.371, 175.322 
	L 79.370, 175.323 
	L 79.370, 153.354 
	L 93.543, 153.354 
	L 93.543, 175.323 
	L 79.370, 175.323 
" />
<path d="M 63.780, 154.133 
	L 63.780, 154.134 
	L 63.780, 132.024 
	L 77.953, 132.024 
	L 77.953, 154.134 
	L 63.780, 154.134 
" />
<path d="M 45.355, 132.944 
	L 45.354, 132.945 
	L 45.354, 110.693 
	L 59.528, 110.693 
	L 59.528, 132.945 
	L 45.354, 132.945 
" />
<path d="M 24.095, 111.755 
	L 24.094, 111.756 
	L 24.094, 89.362 
	L 38.268, 89.362 
	L 38.268, 111.756 
	L 24.094, 111.756 
" />
<path d="M 0.001, 90.566 
	L 0.000, 90.567 
	L 0.000, 68.032 
	L 14.173, 68.032 
	L 14.173, 90.567 
	L 0.000, 90.567 
" />
<path d="M 142.973, 281.267 
	L 142.972, 281.268 
	L 142.972, 260.008 
	L 157.500, 260.008 
	L 157.500, 281.268 
	L 142.972, 281.268 
" />
<path d="M 141.556, 259.369 
	L 141.555, 259.370 
	L 141.555, 237.969 
	L 156.083, 237.969 
	L 156.083, 259.370 
	L 141.555, 259.370 
" />
<path d="M 137.304, 237.472 
	L 137.303, 237.472 
	L 137.303, 215.929 
	L 151.831, 215.929 
	L 151.831, 237.472 
	L 137.303, 237.472 
" />
<path d="M 130.217, 215.574 
	L 130.217, 215.575 
	L 130.217, 193.890 
	L 144.744, 193.890 
	L 144.744, 215.575 
	L 130.217, 215.575 
" />
<path d="M 120.296, 193.676 
	L 120.295, 193.677 
	L 120.295, 171.850 
	L 134.823, 171.850 
	L 134.823, 193.677 
	L 120.295, 193.677 
" />
<path d="M 107.540, 171.779 
	L 107.539, 171.780 
	L 107.539, 149.811 
	L 122.067, 149.811 
	L 122.067, 171.780 
	L 107.539, 171.780 
" />
<path d="M 91.950, 149.881 
	L 91.949, 149.882 
	L 91.949, 127.772 
	L 106.476, 127.772 
	L 106.476, 149.882 
	L 91.949, 149.882 
" />
<path d="M 73.524, 127.984 
	L 73.524, 127.984 
	L 73.524, 105.732 
	L 88.051, 105.732 
	L 88.051, 127.984 
	L 73.524, 127.984 
" />
<path d="M 52.264, 106.086 
	L 52.264, 106.087 
	L 52.264, 83.693 
	L 66.791, 83.693 
	L 66.791, 106.087 
	L 52.264, 106.087 
" />
<path d="M 28.170, 84.188 
	L 28.169, 84.189 
	L 28.169, 61.654 
	L 42.697, 61.654 
	L 42.697, 84.189 
	L 28.169, 84.189 
" />
<path d="M 227.835, 281.267 
	L 227.835, 281.268 
	L 227.835, 260.008 
	L 242.717, 260.008 
	L 242.717, 281.268 
	L 227.835, 281.268 
" />
<path d="M 226.418, 258.661 
	L 226.417, 258.661 
	L 226.417, 237.260 
	L 241.299, 237.260 
	L 241.299, 258.661 
	L 226.417, 258.661 
" />
<path d="M 222.166, 236.054 
	L 222.165, 236.055 
	L 222.165, 214.512 
	L 237.047, 214.512 
	L 237.047, 236.055 
	L 222.165, 236.055 
" />
<path d="M 215.079, 213.448 
	L 215.079, 213.449 
	L 215.079, 191.764 
	L 229.961, 191.764 
	L 229.961, 213.449 
	L 215.079, 213.449 
" />
<path d="M 205.158, 190.842 
	L 205.158, 190.843 
	L 205.158, 169.016 
	L 220.039, 169.016 
	L 220.039, 190.843 
	L 205.158, 190.843 
" />
<path d="M 192.402, 168.236 
	L 192.402, 168.236 
	L 192.402, 146.268 
	L 207.283, 146.268 
	L 207.283, 168.236 
	L 192.402, 168.236 
" />
<path d="M 176.812, 145.629 
	L 176.811, 145.630 
	L 176.811, 123.520 
	L 191.693, 123.520 
	L 191.693, 145.630 
	L 176.811, 145.630 
" />
<path d="M 158.387, 123.023 
	L 158.386, 123.024 
	L 158.386, 100.772 
	L 173.268, 100.772 
	L 173.268, 123.024 
	L 158.386, 123.024 
" />
<path d="M 137.127, 100.417 
	L 137.126, 100.417 
	L 137.126, 78.024 
	L 152.008, 78.024 
	L 152.008, 100.417 
	L 137.126, 100.417 
" />
<path d="M 113.032, 77.810 
	L 113.032, 77.811 
	L 113.032, 55.276 
	L 127.913, 55.276 
	L 127.913, 77.811 
	L 113.032, 77.811 
" />
<path d="M 369.391, 281.267 
	L 369.390, 281.268 
	L 369.390, 260.008 
	L 384.626, 260.008 
	L 384.626, 281.268 
	L 369.390, 281.268 
" />
<path d="M 367.973, 257.952 
	L 367.972, 257.953 
	L 367.972, 236.551 
	L 383.209, 236.551 
	L 383.209, 257.953 
	L 367.972, 257.953 
" />
<path d="M 363.721, 234.637 
	L 363.721, 234.638 
	L 363.721, 213.095 
	L 378.957, 213.095 
	L 378.957, 234.638 
	L 363.721, 234.638 
" />
<path d="M 356.635, 211.322 
	L 356.634, 211.323 
	L 356.634, 189.638 
	L 371.870, 189.638 
	L 371.870, 211.323 
	L 356.634, 211.323 
" />
<path d="M 346.713, 188.007 
	L 346.713, 188.008 
	L 346.713, 166.181 
	L 361.949, 166.181 
	L 361.949, 188.008 
	L 346.713, 188.008 
" />
<path d="M 333.957, 164.692 
	L 333.957, 164.693 
	L 333.957, 142.724 
	L 349.193, 142.724 
	L 349.193, 164.693 
	L 333.957, 164.693 
" />
<path d="M 318.367, 141.377 
	L 318.366, 141.378 
	L 318.366, 119.268 
	L 333.602, 119.268 
	L 333.602, 141.378 
	L 318.366, 141.378 
" />
<path d="M 299.942, 118.062 
	L 299.941, 118.063 
	L 299.941, 95.811 
	L 315.177, 95.811 
	L 315.177, 118.063 
	L 299.941, 118.063 
" />
<path d="M 278.682, 94.747 
	L 278.681, 94.748 
	L 278.681, 72.354 
	L 293.917, 72.354 
	L 293.917, 94.748 
	L 278.681, 94.748 
" />
<path d="M 254.587, 71.432 
	L 254.587, 71.433 
	L 254.587, 48.898 
	L 269.823, 48.898 
	L 269.823, 71.433 
	L 254.587, 71.433 
" />
<path d="M 567.639, 281.267 
	L 567.638, 281.268 
	L 567.638, 260.008 
	L 583.228, 260.008 
	L 583.228, 281.268 
	L 567.638, 281.268 
" />
<path d="M 566.221, 257.243 
	L 566.221, 257.244 
	L 566.221, 235.843 
	L 581.811, 235.843 
	L 581.811, 257.244 
	L 566.221, 257.244 
" />
<path d="M 561.969, 233.220 
	L 561.969, 233.221 
	L 561.969, 211.677 
	L 577.559, 211.677 
	L 577.559, 233.221 
	L 561.969, 233.221 
" />
<path d="M 554.883, 209.196 
	L 554.882, 209.197 
	L 554.882, 187.512 
	L 570.473, 187.512 
	L 570.473, 209.197 
	L 554.882, 209.197 
" />
<path d="M 544.961, 185.173 
	L 544.961, 185.173 
	L 544.961, 163.346 
	L 560.551, 163.346 
	L 560.551, 185.173 
	L 544.961, 185.173 
" />
<path d="M 532.205, 161.149 
	L 532.205, 161.150 
	L 532.205, 139.181 
	L 547.795, 139.181 
	L 547.795, 161.150 
	L 532.205, 161.150 
" />
<path d="M 516.615, 137.125 
	L 516.614, 137.126 
	L 516.614, 115.016 
	L 532.205, 115.016 
	L 532.205, 137.126 
	L 516.614, 137.126 
" />
<path d="M 498.190, 113.102 
	L 498.189, 113.102 
	L 498.189, 90.850 
	L 513.780, 90.850 
	L 513.780, 113.102 
	L 498.189, 113.102 
" />
<path d="M 476.930, 89.078 
	L 476.929, 89.079 
	L 476.929, 66.685 
	L 492.520, 66.685 
	L 492.520, 89.079 
	L 476.929, 89.079 
" />
<path d="M 452.835, 65.054 
	L 452.835, 65.055 
	L 452.835, 42.520 
	L 468.425, 42.520 
	L 468.425, 65.055 
	L 452.835, 65.055 
" />
<path d="M 822.580, 281.267 
	L 822.579, 281.268 
	L 822.579, 260.008 
	L 838.524, 260.008 
	L 838.524, 281.268 
	L 822.579, 281.268 
" />
<path d="M 821.162, 256.535 
	L 821.162, 256.535 
	L 821.162, 235.134 
	L 837.106, 235.134 
	L 837.106, 256.535 
	L 821.162, 256.535 
" />
<path d="M 816.910, 231.802 
	L 816.910, 231.803 
	L 816.910, 210.260 
	L 832.854, 210.260 
	L 832.854, 231.803 
	L 816.910, 231.803 
" />
<path d="M 809.824, 207.070 
	L 809.823, 207.071 
	L 809.823, 185.386 
	L 825.768, 185.386 
	L 825.768, 207.071 
	L 809.823, 207.071 
" />
<path d="M 799.902, 182.338 
	L 799.902, 182.339 
	L 799.902, 160.512 
	L 815.847, 160.512 
	L 815.847, 182.339 
	L 799.902, 182.339 
" />
<path d="M 787.146, 157.606 
	L 787.146, 157.606 
	L 787.146, 135.638 
	L 803.091, 135.638 
	L 803.091, 157.606 
	L 787.146, 157.606 
" />
<path d="M 771.556, 132.873 
	L 771.555, 132.874 
	L 771.555, 110.764 
	L 787.500, 110.764 
	L 787.500, 132.874 
	L 771.555, 132.874 
" />
<path d="M 753.131, 108.141 
	L 753.130, 108.142 
	L 753.130, 85.890 
	L 769.075, 85.890 
	L 769.075, 108.142 
	L 753.130, 108.142 
" />
<path d="M 731.871, 83.409 
	L 731.870, 83.409 
	L 731.870, 61.016 
	L 747.815, 61.016 
	L 747.815, 83.409 
	L 731.870, 83.409 
" />
<path d="M 707.776, 58.676 
	L 707.776, 58.677 
	L 707.776, 36.142 
	L 723.721, 36.142 
	L 723.721, 58.677 
	L 707.776, 58.677 
" />
<path d="M 1134.213, 281.267 
	L 1134.213, 281.268 
	L 1134.213, 260.008 
	L 1150.512, 260.008 
	L 1150.512, 281.268 
	L 1134.213, 281.268 
" />
<path d="M 1132.796, 255.826 
	L 1132.795, 255.827 
	L 1132.795, 234.425 
	L 1149.095, 234.425 
	L 1149.095, 255.827 
	L 1132.795, 255.827 
" />
<path d="M 1128.544, 230.385 
	L 1128.543, 230.386 
	L 1128.543, 208.843 
	L 1144.843, 208.843 
	L 1144.843, 230.386 
	L 1128.543, 230.386 
" />
<path d="M 1121.458, 204.944 
	L 1121.457, 204.945 
	L 1121.457, 183.260 
	L 1137.756, 183.260 
	L 1137.756, 204.945 
	L 1121.457, 204.945 
" />
<path d="M 1111.536, 179.503 
	L 1111.536, 179.504 
	L 1111.536, 157.677 
	L 1127.835, 157.677 
	L 1127.835, 179.504 
	L 1111.536, 179.504 
" />
<path d="M 1098.780, 154.062 
	L 1098.780, 154.063 
	L 1098.780, 132.095 
	L 1115.079, 132.095 
	L 1115.079, 154.063 
	L 1098.780, 154.063 
" />
<path d="M 1083.190, 128.621 
	L 1083.189, 128.622 
	L 1083.189, 106.512 
	L 1099.488, 106.512 
	L 1099.488, 128.622 
	L 1083.189, 128.622 
" />
<path d="M 1064.765, 103.180 
	L 1064.764, 103.181 
	L 1064.764, 80.929 
	L 1081.063, 80.929 
	L 1081.063, 103.181 
	L 1064.764, 103.181 
" />
<path d="M 1043.505, 77.739 
	L 1043.504, 77.740 
	L 1043.504, 55.346 
	L 1059.803, 55.346 
	L 1059.803, 77.740 
	L 1043.504, 77.740 
" />
<path d="M 1019.410, 52.299 
	L 1019.410, 52.299 
	L 1019.410, 29.764 
	L 1035.709, 29.764 
	L 1035.709, 52.299 
	L 1019.410, 52.299 
" />
<path d="M 1502.540, 281.267 
	L 1502.540, 281.268 
	L 1502.540, 260.008 
	L 1519.193, 260.008 
	L 1519.193, 281.268 
	L 1502.540, 281.268 
" />
<path d="M 1501.123, 255.117 
	L 1501.122, 255.118 
	L 1501.122, 233.717 
	L 1517.776, 233.717 
	L 1517.776, 255.118 
	L 1501.122, 255.118 
" />
<path d="M 1496.871, 228.968 
	L 1496.870, 228.969 
	L 1496.870, 207.425 
	L 1513.524, 207.425 
	L 1513.524, 228.969 
	L 1496.870, 228.969 
" />
<path d="M 1489.784, 202.818 
	L 1489.784, 202.819 
	L 1489.784, 181.134 
	L 1506.437, 181.134 
	L 1506.437, 202.819 
	L 1489.784, 202.819 
" />
<path d="M 1479.863, 176.669 
	L 1479.862, 176.669 
	L 1479.862, 154.843 
	L 1496.516, 154.843 
	L 1496.516, 176.669 
	L 1479.862, 176.669 
" />
<path d="M 1467.107, 150.519 
	L 1467.107, 150.520 
	L 1467.107, 128.551 
	L 1483.760, 128.551 
	L 1483.760, 150.520 
	L 1467.107, 150.520 
" />
<path d="M 1451.517, 124.369 
	L 1451.516, 124.370 
	L 1451.516, 102.260 
	L 1468.170, 102.260 
	L 1468.170, 124.370 
	L 1451.516, 124.370 
" />
<path d="M 1433.091, 98.220 
	L 1433.091, 98.220 
	L 1433.091, 75.969 
	L 1449.744, 75.969 
	L 1449.744, 98.220 
	L 1433.091, 98.220 
" />
<path d="M 1411.832, 72.070 
	L 1411.831, 72.071 
	L 1411.831, 49.677 
	L 1428.484, 49.677 
	L 1428.484, 72.071 
	L 1411.831, 72.071 
" />
<path d="M 1387.737, 45.921 
	L 1387.736, 45.921 
	L 1387.736, 23.386 
	L 1404.390, 23.386 
	L 1404.390, 45.921 
	L 1387.736, 45.921 
" />
<path d="M 1927.560, 281.267 
	L 1927.559, 281.268 
	L 1927.559, 260.008 
	L 1944.567, 260.008 
	L 1944.567, 281.268 
	L 1927.559, 281.268 
" />
<path d="M 1926.143, 254.409 
	L 1926.142, 254.409 
	L 1926.142, 233.008 
	L 1943.150, 233.008 
	L 1943.150, 254.409 
	L 1926.142, 254.409 
" />
<path d="M 1921.891, 227.551 
	L 1921.890, 227.551 
	L 1921.890, 206.008 
	L 1938.898, 206.008 
	L 1938.898, 227.551 
	L 1921.890, 227.551 
" />
<path d="M 1914.804, 200.692 
	L 1914.803, 200.693 
	L 1914.803, 179.008 
	L 1931.811, 179.008 
	L 1931.811, 200.693 
	L 1914.803, 200.693 
" />
<path d="M 1904.883, 173.834 
	L 1904.882, 173.835 
	L 1904.882, 152.008 
	L 1921.890, 152.008 
	L 1921.890, 173.835 
	L 1904.882, 173.835 
" />
<path d="M 1892.127, 146.976 
	L 1892.126, 146.976 
	L 1892.126, 125.008 
	L 1909.134, 125.008 
	L 1909.134, 146.976 
	L 1892.126, 146.976 
" />
<path d="M 1876.536, 120.117 
	L 1876.536, 120.118 
	L 1876.536, 98.008 
	L 1893.544, 98.008 
	L 1893.544, 120.118 
	L 1876.536, 120.118 
" />
<path d="M 1858.111, 93.259 
	L 1858.111, 93.260 
	L 1858.111, 71.008 
	L 1875.118, 71.008 
	L 1875.118, 93.260 
	L 1858.111, 93.260 
" />
<path d="M 1836.851, 66.401 
	L 1836.851, 66.402 
	L 1836.851, 44.008 
	L 1853.859, 44.008 
	L 1853.859, 66.402 
	L 1836.851, 66.402 
" />
<path d="M 1812.757, 39.543 
	L 1812.756, 39.543 
	L 1812.756, 17.008 
	L 1829.764, 17.008 
	L 1829.764, 39.543 
	L 1812.756, 39.543 
" />
<path d="M 2409.273, 281.267 
	L 2409.272, 281.268 
	L 2409.272, 260.008 
	L 2426.634, 260.008 
	L 2426.634, 281.268 
	L 2409.272, 281.268 
" />
<path d="M 2407.855, 253.700 
	L 2407.855, 253.701 
	L 2407.855, 232.299 
	L 2425.217, 232.299 
	L 2425.217, 253.701 
	L 2407.855, 253.701 
" />
<path d="M 2403.603, 226.133 
	L 2403.603, 226.134 
	L 2403.603, 204.591 
	L 2420.965, 204.591 
	L 2420.965, 226.134 
	L 2403.603, 226.134 
" />
<path d="M 2396.517, 198.566 
	L 2396.516, 198.567 
	L 2396.516, 176.882 
	L 2413.878, 176.882 
	L 2413.878, 198.567 
	L 2396.516, 198.567 
" />
<path d="M 2386.596, 170.999 
	L 2386.595, 171.000 
	L 2386.595, 149.173 
	L 2403.957, 149.173 
	L 2403.957, 171.000 
	L 2386.595, 171.000 
" />
<path d="M 2373.840, 143.432 
	L 2373.839, 143.433 
	L 2373.839, 121.465 
	L 2391.201, 121.465 
	L 2391.201, 143.433 
	L 2373.839, 143.433 
" />
<path d="M 2358.249, 115.865 
	L 2358.248, 115.866 
	L 2358.248, 93.756 
	L 2375.611, 93.756 
	L 2375.611, 115.866 
	L 2358.248, 115.866 
" />
<path d="M 2339.824, 88.299 
	L 2339.823, 88.299 
	L 2339.823, 66.047 
	L 2357.185, 66.047 
	L 2357.185, 88.299 
	L 2339.823, 88.299 
" />
<path d="M 2318.564, 60.732 
	L 2318.563, 60.732 
	L 2318.563, 38.339 
	L 2335.926, 38.339 
	L 2335.926, 60.732 
	L 2318.563, 60.732 
" />
<path d="M 2294.470, 33.165 
	L 2294.469, 33.165 
	L 2294.469, 10.630 
	L 2311.831, 10.630 
	L 2311.831, 33.165 
	L 2294.469, 33.165 
" />
<path d="M 1252.914, 270.638 
	L 1255.040, 270.638 
	L 1255.748, 269.575 
	L 1255.040, 268.512 
	L 1253.622, 268.512 
" />
<path d="M 1255.040, 268.512 
	L 1255.748, 267.449 
	L 1255.040, 266.386 
	L 1252.914, 266.386 
" />
<path d="M 1254.331, 264.260 
	L 1254.331, 261.071 
	L 1253.622, 260.008 
	L 1252.914, 261.071 
	L 1252.914, 263.197 
	L 1253.622, 264.260 
	L 1255.040, 264.260 
	L 1255.748, 263.197 
	L 1255.748, 260.008 
" />
<path d="M 1255.748, 253.630 
	L 1255.748, 256.819 
	L 1255.040, 257.882 
	L 1253.622, 257.882 
	L 1252.914, 256.819 
	L 1252.914, 254.693 
	L 1255.748, 254.693 
" />
<path d="M 1252.914, 251.504 
	L 1254.331, 251.504 
	L 1255.748, 249.378 
	L 1254.331, 247.252 
	L 1252.914, 247.252 
" />
<path d="M 1254.331, 245.126 
	L 1254.331, 241.937 
	L 1253.622, 240.874 
	L 1252.914, 241.937 
	L 1252.914, 244.063 
	L 1253.622, 245.126 
	L 1255.040, 245.126 
	L 1255.748, 244.063 
	L 1255.748, 240.874 
" />
<path d="M 1252.914, 235.559 
	L 1252.914, 237.685 
	L 1253.622, 238.748 
	L 1254.331, 237.685 
	L 1254.331, 236.622 
	L 1255.040, 235.559 
	L 1255.748, 236.622 
	L 1255.748, 238.748 
" />
<path d="M 1255.748, 230.244 
	L 1255.748, 231.307 
	L 1255.040, 231.307 
	L 1255.040, 230.244 
	L 1255.748, 230.244 
" />
<path d="M 1257.166, 225.992 
	L 1252.914, 225.992 
	L 1252.914, 223.866 
	L 1253.622, 222.803 
	L 1255.040, 222.803 
	L 1255.748, 223.866 
	L 1255.748, 225.992 
" />
<path d="M 1257.166, 219.614 
	L 1254.331, 215.362 
	L 1252.914, 215.362 
" />
<path d="M 1252.914, 219.614 
	L 1254.331, 219.614 
	L 1255.748, 217.488 
" />
<path d="M 1252.205, 187.724 
	L 1251.496, 186.661 
	L 1251.496, 184.535 
	L 1252.205, 183.472 
	L 1252.914, 183.472 
	L 1255.040, 187.724 
	L 1255.748, 187.724 
	L 1255.748, 183.472 
" />
<path d="M 1255.040, 181.346 
	L 1255.748, 180.283 
	L 1255.748, 178.158 
	L 1255.040, 177.095 
	L 1252.205, 177.095 
	L 1251.496, 178.158 
	L 1251.496, 180.283 
	L 1252.205, 181.346 
	L 1255.040, 181.346 
" />
<path d="M 1255.748, 173.906 
	L 1255.748, 171.780 
" />
<path d="M 1255.748, 172.843 
	L 1251.496, 172.843 
	L 1252.205, 173.906 
" />
<path d="M 1255.748, 167.528 
	L 1255.748, 166.465 
	L 1254.331, 164.339 
	L 1252.205, 164.339 
	L 1251.496, 165.402 
	L 1251.496, 167.528 
	L 1252.205, 168.591 
	L 1252.914, 168.591 
	L 1253.622, 167.528 
	L 1253.622, 164.339 
" />
<path d="M 1253.622, 162.213 
	L 1253.622, 157.961 
" />
<path d="M 1255.040, 155.835 
	L 1255.748, 154.772 
	L 1255.748, 152.646 
	L 1255.040, 151.583 
	L 1252.205, 151.583 
	L 1251.496, 152.646 
	L 1251.496, 154.772 
	L 1252.205, 155.835 
	L 1255.040, 155.835 
" />
<path d="M 1251.496, 145.205 
	L 1251.496, 147.331 
	L 1252.914, 149.457 
	L 1255.040, 149.457 
	L 1255.748, 148.394 
	L 1255.748, 146.268 
	L 1255.040, 145.205 
	L 1254.331, 145.205 
	L 1253.622, 146.268 
	L 1253.622, 149.457 
" />
<path d="M 1253.622, 143.079 
	L 1253.622, 138.827 
" />
<path d="M 1255.040, 136.701 
	L 1255.748, 135.638 
	L 1255.748, 133.512 
	L 1255.040, 132.449 
	L 1252.205, 132.449 
	L 1251.496, 133.512 
	L 1251.496, 135.638 
	L 1252.205, 136.701 
	L 1255.040, 136.701 
" />
<path d="M 1255.748, 129.260 
	L 1255.748, 128.197 
	L 1254.331, 126.071 
	L 1252.205, 126.071 
	L 1251.496, 127.134 
	L 1251.496, 129.260 
	L 1252.205, 130.323 
	L 1252.914, 130.323 
	L 1253.622, 129.260 
	L 1253.622, 126.071 
" />
<path d="M 1255.040, 117.567 
	L 1255.748, 116.504 
	L 1255.748, 114.378 
	L 1255.040, 113.315 
	L 1252.205, 113.315 
	L 1251.496, 114.378 
	L 1251.496, 116.504 
	L 1252.205, 117.567 
	L 1255.040, 117.567 
" />
<path d="M 1255.040, 111.189 
	L 1255.748, 110.126 
	L 1255.748, 108.000 
	L 1255.040, 106.937 
	L 1252.205, 106.937 
	L 1251.496, 108.000 
	L 1251.496, 110.126 
	L 1252.205, 111.189 
	L 1255.040, 111.189 
" />
<path d="M 1253.622, 103.748 
	L 1252.914, 103.748 
	L 1252.914, 102.685 
	L 1253.622, 102.685 
	L 1253.622, 103.748 
" />
<path d="M 1255.040, 103.748 
	L 1255.040, 102.685 
	L 1255.748, 102.685 
	L 1255.748, 103.748 
	L 1255.040, 103.748 
" />
<path d="M 1255.748, 97.370 
	L 1255.748, 95.244 
" />
<path d="M 1255.748, 96.307 
	L 1251.496, 96.307 
	L 1252.205, 97.370 
" />
<path d="M 1255.040, 92.055 
	L 1255.748, 90.992 
	L 1255.748, 88.866 
	L 1255.040, 87.803 
	L 1254.331, 87.803 
	L 1253.622, 88.866 
	L 1253.622, 89.929 
	L 1251.496, 87.803 
	L 1251.496, 92.055 
" />
</g>
</svg>
