<?xml version="1.0" encoding="UTF-8" standalone="no" ?>
<svg width="100%" height="100%" viewBox="0 0 1148.599 792.525" xmlns="http://www.w3.org/2000/svg"><g>
</g><g style="stroke:rgb(0,0,0); fill:none; stroke-width:1.000mm" >
</g><g style="stroke:rgb(0,255,0); fill:none; stroke-width:0.100mm" >
<path d="M 3.544, 792.524 
	L 3.543, 792.525 
	L 3.543, 10.162 
	L 1148.599, 10.162 
	L 1148.599, 792.525 
	L 3.543, 792.525 
" />
</g><g style="stroke:rgb(255,0,0); fill:none; stroke-width:0.100mm" >
<path d="M 0.001, 797.839 
	L 0.000, 797.839 
	L 0.000, 787.210 
	L 7.087, 787.210 
	L 7.087, 797.839 
	L 0.000, 797.839 
" />
<path d="M 3.544, 787.280 
	L 3.543, 787.280 
	L 3.543, 776.509 
	L 10.630, 776.509 
	L 10.630, 787.280 
	L 3.543, 787.280 
" />
<path d="M 14.174, 776.721 
	L 14.173, 776.721 
	L 14.173, 765.808 
	L 21.260, 765.808 
	L 21.260, 776.721 
	L 14.173, 776.721 
" />
<path d="M 31.890, 766.162 
	L 31.890, 766.162 
	L 31.890, 755.107 
	L 38.976, 755.107 
	L 38.976, 766.162 
	L 31.890, 766.162 
" />
<path d="M 56.694, 755.603 
	L 56.693, 755.603 
	L 56.693, 744.406 
	L 63.780, 744.406 
	L 63.780, 755.603 
	L 56.693, 755.603 
" />
<path d="M 88.583, 745.044 
	L 88.583, 745.044 
	L 88.583, 733.706 
	L 95.669, 733.706 
	L 95.669, 745.044 
	L 88.583, 745.044 
" />
<path d="M 127.560, 734.484 
	L 127.559, 734.485 
	L 127.559, 723.005 
	L 134.646, 723.005 
	L 134.646, 734.485 
	L 127.559, 734.485 
" />
<path d="M 173.623, 723.925 
	L 173.622, 723.926 
	L 173.622, 712.304 
	L 180.709, 712.304 
	L 180.709, 723.926 
	L 173.622, 723.926 
" />
<path d="M 226.772, 713.366 
	L 226.772, 713.367 
	L 226.772, 701.603 
	L 233.858, 701.603 
	L 233.858, 713.367 
	L 226.772, 713.367 
" />
<path d="M 287.009, 702.807 
	L 287.008, 702.808 
	L 287.008, 690.902 
	L 294.095, 690.902 
	L 294.095, 702.808 
	L 287.008, 702.808 
" />
<path d="M 22.151, 787.787 
	L 22.150, 787.788 
	L 20.650, 798.311 
	L 13.283, 797.261 
	L 14.783, 786.738 
	L 22.150, 787.788 
" />
<path d="M 25.704, 776.733 
	L 25.703, 776.733 
	L 24.183, 787.397 
	L 16.817, 786.347 
	L 18.337, 775.683 
	L 25.703, 776.733 
" />
<path d="M 36.344, 765.678 
	L 36.343, 765.679 
	L 34.803, 776.483 
	L 27.437, 775.433 
	L 28.976, 764.629 
	L 36.343, 765.679 
" />
<path d="M 54.070, 754.624 
	L 54.069, 754.625 
	L 52.510, 765.569 
	L 45.143, 764.519 
	L 46.703, 753.574 
	L 54.069, 754.625 
" />
<path d="M 78.883, 743.570 
	L 78.883, 743.570 
	L 77.303, 754.655 
	L 69.936, 753.605 
	L 71.516, 742.520 
	L 78.883, 743.570 
" />
<path d="M 110.783, 732.515 
	L 110.782, 732.516 
	L 109.183, 743.741 
	L 101.816, 742.691 
	L 103.416, 731.466 
	L 110.782, 732.516 
" />
<path d="M 149.770, 721.461 
	L 149.769, 721.461 
	L 148.149, 732.827 
	L 140.782, 731.777 
	L 142.403, 720.411 
	L 149.769, 721.461 
" />
<path d="M 195.843, 710.406 
	L 195.842, 710.407 
	L 194.202, 721.913 
	L 186.835, 720.863 
	L 188.476, 709.357 
	L 195.842, 710.407 
" />
<path d="M 249.002, 699.352 
	L 249.002, 699.353 
	L 247.341, 710.999 
	L 239.975, 709.948 
	L 241.635, 698.302 
	L 249.002, 699.353 
" />
<path d="M 309.249, 688.297 
	L 309.248, 688.298 
	L 307.568, 700.085 
	L 300.201, 699.034 
	L 301.881, 687.248 
	L 309.248, 688.298 
" />
<path d="M 26.663, 796.538 
	L 26.662, 796.538 
	L 29.633, 786.332 
	L 37.118, 788.511 
	L 34.147, 798.717 
	L 26.662, 796.538 
" />
<path d="M 30.187, 785.268 
	L 30.186, 785.269 
	L 33.196, 774.926 
	L 40.680, 777.103 
	L 37.670, 787.446 
	L 30.186, 785.269 
" />
<path d="M 40.797, 773.997 
	L 40.796, 773.998 
	L 43.846, 763.519 
	L 51.330, 765.697 
	L 48.280, 776.176 
	L 40.796, 773.998 
" />
<path d="M 58.494, 762.727 
	L 58.493, 762.727 
	L 61.582, 752.112 
	L 69.066, 754.290 
	L 65.977, 764.905 
	L 58.493, 762.727 
" />
<path d="M 83.277, 751.456 
	L 83.276, 751.457 
	L 86.404, 740.706 
	L 93.889, 742.883 
	L 90.761, 753.635 
	L 83.276, 751.457 
" />
<path d="M 115.147, 740.186 
	L 115.146, 740.186 
	L 118.314, 729.299 
	L 125.799, 731.477 
	L 122.631, 742.364 
	L 115.146, 740.186 
" />
<path d="M 154.103, 728.915 
	L 154.103, 728.916 
	L 157.310, 717.893 
	L 164.795, 720.070 
	L 161.588, 731.093 
	L 154.103, 728.916 
" />
<path d="M 200.147, 717.645 
	L 200.146, 717.645 
	L 203.393, 706.486 
	L 210.878, 708.664 
	L 207.631, 719.823 
	L 200.146, 717.645 
" />
<path d="M 253.276, 706.374 
	L 253.276, 706.375 
	L 256.562, 695.079 
	L 264.047, 697.257 
	L 260.761, 708.552 
	L 253.276, 706.375 
" />
<path d="M 313.493, 695.103 
	L 313.492, 695.104 
	L 316.818, 683.673 
	L 324.303, 685.850 
	L 320.977, 697.282 
	L 313.492, 695.104 
" />
<path d="M 51.967, 789.360 
	L 51.966, 789.361 
	L 47.585, 799.046 
	L 40.160, 795.688 
	L 44.541, 786.003 
	L 51.966, 789.361 
" />
<path d="M 55.539, 777.603 
	L 55.539, 777.604 
	L 51.099, 787.418 
	L 43.674, 784.060 
	L 48.113, 774.245 
	L 55.539, 777.604 
" />
<path d="M 66.198, 765.846 
	L 66.197, 765.846 
	L 61.700, 775.789 
	L 54.275, 772.431 
	L 58.772, 762.488 
	L 66.197, 765.846 
" />
<path d="M 83.945, 754.088 
	L 83.944, 754.089 
	L 79.387, 764.161 
	L 71.962, 760.803 
	L 76.518, 750.731 
	L 83.944, 754.089 
" />
<path d="M 108.777, 742.331 
	L 108.776, 742.331 
	L 104.161, 752.533 
	L 96.736, 749.174 
	L 101.351, 738.972 
	L 108.776, 742.331 
" />
<path d="M 140.696, 730.573 
	L 140.695, 730.574 
	L 136.022, 740.905 
	L 128.597, 737.546 
	L 133.269, 727.215 
	L 140.695, 730.574 
" />
<path d="M 179.701, 718.816 
	L 179.700, 718.817 
	L 174.969, 729.276 
	L 167.544, 725.917 
	L 172.275, 715.458 
	L 179.700, 718.817 
" />
<path d="M 225.793, 707.058 
	L 225.792, 707.059 
	L 221.003, 717.648 
	L 213.578, 714.290 
	L 218.367, 703.700 
	L 225.792, 707.059 
" />
<path d="M 278.972, 695.300 
	L 278.972, 695.301 
	L 274.123, 706.020 
	L 266.698, 702.661 
	L 271.546, 691.943 
	L 278.972, 695.301 
" />
<path d="M 339.238, 683.543 
	L 339.237, 683.544 
	L 334.330, 694.391 
	L 326.905, 691.033 
	L 331.812, 680.185 
	L 339.237, 683.544 
" />
<path d="M 53.797, 794.727 
	L 53.797, 794.728 
	L 59.500, 785.758 
	L 66.676, 790.321 
	L 60.973, 799.291 
	L 53.797, 794.728 
" />
<path d="M 57.302, 782.740 
	L 57.302, 782.741 
	L 63.082, 773.651 
	L 70.257, 778.214 
	L 64.478, 787.304 
	L 57.302, 782.741 
" />
<path d="M 67.894, 770.752 
	L 67.893, 770.753 
	L 73.749, 761.544 
	L 80.926, 766.107 
	L 75.070, 775.316 
	L 67.893, 770.753 
" />
<path d="M 85.573, 758.765 
	L 85.572, 758.766 
	L 91.504, 749.437 
	L 98.680, 754.000 
	L 92.748, 763.328 
	L 85.572, 758.766 
" />
<path d="M 110.338, 746.778 
	L 110.337, 746.778 
	L 116.345, 737.330 
	L 123.521, 741.893 
	L 117.513, 751.341 
	L 110.337, 746.778 
" />
<path d="M 142.189, 734.790 
	L 142.189, 734.791 
	L 148.273, 725.223 
	L 155.449, 729.786 
	L 149.365, 739.354 
	L 142.189, 734.791 
" />
<path d="M 181.128, 722.803 
	L 181.128, 722.804 
	L 187.287, 713.115 
	L 194.463, 717.679 
	L 188.303, 727.367 
	L 181.128, 722.804 
" />
<path d="M 227.153, 710.815 
	L 227.152, 710.816 
	L 233.388, 701.009 
	L 240.564, 705.572 
	L 234.328, 715.379 
	L 227.152, 710.816 
" />
<path d="M 280.264, 698.828 
	L 280.264, 698.829 
	L 286.576, 688.902 
	L 293.752, 693.464 
	L 287.440, 703.391 
	L 280.264, 698.829 
" />
<path d="M 340.463, 686.840 
	L 340.462, 686.841 
	L 346.850, 676.794 
	L 354.026, 681.358 
	L 347.638, 691.404 
	L 340.462, 686.841 
" />
<path d="M 81.231, 791.367 
	L 81.230, 791.367 
	L 74.318, 799.442 
	L 67.589, 793.682 
	L 74.501, 785.607 
	L 81.230, 791.367 
" />
<path d="M 84.820, 778.911 
	L 84.820, 778.912 
	L 77.815, 787.095 
	L 71.086, 781.334 
	L 78.090, 773.151 
	L 84.820, 778.912 
" />
<path d="M 95.496, 766.456 
	L 95.496, 766.456 
	L 88.399, 774.747 
	L 81.670, 768.986 
	L 88.766, 760.696 
	L 95.496, 766.456 
" />
<path d="M 113.259, 754.000 
	L 113.258, 754.001 
	L 106.070, 762.399 
	L 99.340, 756.639 
	L 106.529, 748.240 
	L 113.258, 754.001 
" />
<path d="M 138.108, 741.545 
	L 138.107, 741.546 
	L 130.827, 750.052 
	L 124.097, 744.291 
	L 131.378, 735.785 
	L 138.107, 741.546 
" />
<path d="M 170.044, 729.089 
	L 170.043, 729.090 
	L 162.670, 737.704 
	L 155.941, 731.943 
	L 163.314, 723.329 
	L 170.043, 729.090 
" />
<path d="M 209.066, 716.634 
	L 209.066, 716.635 
	L 201.601, 725.356 
	L 194.871, 719.595 
	L 202.336, 710.874 
	L 209.066, 716.635 
" />
<path d="M 255.176, 704.179 
	L 255.175, 704.179 
	L 247.618, 713.008 
	L 240.888, 707.248 
	L 248.445, 698.419 
	L 255.175, 704.179 
" />
<path d="M 308.371, 691.723 
	L 308.371, 691.724 
	L 300.721, 700.661 
	L 293.992, 694.900 
	L 301.641, 685.963 
	L 308.371, 691.724 
" />
<path d="M 368.654, 679.268 
	L 368.653, 679.268 
	L 360.911, 688.313 
	L 354.182, 682.552 
	L 361.923, 673.508 
	L 368.653, 679.268 
" />
<path d="M 81.551, 792.574 
	L 81.550, 792.575 
	L 89.532, 785.556 
	L 95.615, 792.474 
	L 87.633, 799.493 
	L 81.550, 792.575 
" />
<path d="M 85.040, 779.865 
	L 85.039, 779.866 
	L 93.129, 772.753 
	L 99.213, 779.672 
	L 91.123, 786.784 
	L 85.039, 779.866 
" />
<path d="M 95.617, 767.156 
	L 95.616, 767.157 
	L 103.813, 759.950 
	L 109.896, 766.869 
	L 101.699, 774.075 
	L 95.616, 767.157 
" />
<path d="M 113.280, 754.447 
	L 113.280, 754.447 
	L 121.582, 747.147 
	L 127.665, 754.066 
	L 119.363, 761.366 
	L 113.280, 754.447 
" />
<path d="M 138.030, 741.738 
	L 138.030, 741.738 
	L 146.439, 734.345 
	L 152.522, 741.264 
	L 144.113, 748.657 
	L 138.030, 741.738 
" />
<path d="M 169.867, 729.028 
	L 169.866, 729.029 
	L 178.381, 721.542 
	L 184.465, 728.461 
	L 175.949, 735.948 
	L 169.866, 729.029 
" />
<path d="M 208.790, 716.319 
	L 208.789, 716.320 
	L 217.411, 708.739 
	L 223.494, 715.658 
	L 214.873, 723.239 
	L 208.789, 716.320 
" />
<path d="M 254.800, 703.610 
	L 254.799, 703.611 
	L 263.527, 695.937 
	L 269.610, 702.855 
	L 260.882, 710.530 
	L 254.799, 703.611 
" />
<path d="M 307.896, 690.901 
	L 307.896, 690.902 
	L 316.730, 683.134 
	L 322.813, 690.053 
	L 313.979, 697.820 
	L 307.896, 690.902 
" />
<path d="M 368.079, 678.192 
	L 368.079, 678.193 
	L 377.019, 670.331 
	L 383.102, 677.250 
	L 374.162, 685.111 
	L 368.079, 678.193 
" />
<path d="M 109.823, 793.614 
	L 109.823, 793.615 
	L 100.929, 799.438 
	L 95.689, 791.434 
	L 104.583, 785.612 
	L 109.823, 793.615 
" />
<path d="M 113.426, 780.466 
	L 113.426, 780.467 
	L 104.413, 786.366 
	L 99.173, 778.362 
	L 108.185, 772.462 
	L 113.426, 780.467 
" />
<path d="M 124.115, 767.317 
	L 124.114, 767.317 
	L 114.984, 773.295 
	L 109.744, 765.291 
	L 118.874, 759.313 
	L 124.114, 767.317 
" />
<path d="M 141.891, 754.168 
	L 141.890, 754.168 
	L 132.641, 760.224 
	L 127.401, 752.219 
	L 136.650, 746.164 
	L 141.890, 754.168 
" />
<path d="M 166.754, 741.018 
	L 166.753, 741.019 
	L 157.385, 747.152 
	L 152.145, 739.148 
	L 161.512, 733.015 
	L 166.753, 741.019 
" />
<path d="M 198.702, 727.870 
	L 198.702, 727.871 
	L 189.215, 734.081 
	L 183.976, 726.076 
	L 193.462, 719.866 
	L 198.702, 727.871 
" />
<path d="M 237.738, 714.721 
	L 237.738, 714.721 
	L 228.132, 721.009 
	L 222.892, 713.005 
	L 232.498, 706.717 
	L 237.738, 714.721 
" />
<path d="M 283.861, 701.571 
	L 283.860, 701.572 
	L 274.137, 707.938 
	L 268.896, 699.934 
	L 278.619, 693.568 
	L 283.860, 701.572 
" />
<path d="M 337.069, 688.422 
	L 337.068, 688.423 
	L 327.227, 694.867 
	L 321.987, 686.862 
	L 331.829, 680.419 
	L 337.068, 688.423 
" />
<path d="M 397.365, 675.273 
	L 397.364, 675.274 
	L 387.403, 681.795 
	L 382.163, 673.791 
	L 392.124, 667.270 
	L 397.364, 675.274 
" />
<path d="M 110.013, 790.286 
	L 110.012, 790.287 
	L 119.638, 785.778 
	L 123.846, 794.762 
	L 114.220, 799.271 
	L 110.012, 790.287 
" />
<path d="M 113.491, 776.852 
	L 113.491, 776.852 
	L 123.245, 772.283 
	L 127.454, 781.267 
	L 117.699, 785.837 
	L 113.491, 776.852 
" />
<path d="M 124.058, 763.417 
	L 124.057, 763.418 
	L 133.940, 758.789 
	L 138.148, 767.773 
	L 128.265, 772.402 
	L 124.057, 763.418 
" />
<path d="M 141.710, 749.983 
	L 141.709, 749.984 
	L 151.720, 745.294 
	L 155.929, 754.278 
	L 145.918, 758.968 
	L 141.709, 749.984 
" />
<path d="M 166.449, 736.548 
	L 166.448, 736.549 
	L 176.588, 731.799 
	L 180.796, 740.784 
	L 170.656, 745.533 
	L 166.448, 736.549 
" />
<path d="M 198.274, 723.113 
	L 198.274, 723.114 
	L 208.541, 718.305 
	L 212.750, 727.289 
	L 202.482, 732.098 
	L 198.274, 723.114 
" />
<path d="M 237.187, 709.679 
	L 237.186, 709.680 
	L 247.582, 704.810 
	L 251.790, 713.794 
	L 241.394, 718.664 
	L 237.186, 709.680 
" />
<path d="M 283.185, 696.244 
	L 283.185, 696.245 
	L 293.709, 691.316 
	L 297.918, 700.300 
	L 287.393, 705.229 
	L 283.185, 696.245 
" />
<path d="M 336.271, 682.810 
	L 336.270, 682.811 
	L 346.923, 677.821 
	L 351.132, 686.805 
	L 340.479, 691.795 
	L 336.270, 682.811 
" />
<path d="M 396.443, 669.375 
	L 396.442, 669.376 
	L 407.224, 664.326 
	L 411.432, 673.311 
	L 400.650, 678.361 
	L 396.442, 669.376 
" />
<path d="M 137.687, 795.885 
	L 137.687, 795.886 
	L 127.520, 798.991 
	L 124.518, 789.163 
	L 134.685, 786.058 
	L 137.687, 795.886 
" />
<path d="M 141.298, 782.045 
	L 141.297, 782.046 
	L 130.996, 785.193 
	L 127.994, 775.366 
	L 138.295, 772.219 
	L 141.297, 782.046 
" />
<path d="M 151.996, 768.205 
	L 151.995, 768.206 
	L 141.558, 771.394 
	L 138.556, 761.567 
	L 148.993, 758.379 
	L 151.995, 768.206 
" />
<path d="M 169.780, 754.366 
	L 169.780, 754.367 
	L 159.206, 757.596 
	L 156.205, 747.769 
	L 166.778, 744.540 
	L 169.780, 754.367 
" />
<path d="M 194.651, 740.526 
	L 194.650, 740.527 
	L 183.942, 743.798 
	L 180.940, 733.971 
	L 191.648, 730.699 
	L 194.650, 740.527 
" />
<path d="M 226.609, 726.687 
	L 226.608, 726.688 
	L 215.764, 730.000 
	L 212.762, 720.172 
	L 223.606, 716.860 
	L 226.608, 726.688 
" />
<path d="M 265.653, 712.847 
	L 265.652, 712.848 
	L 254.672, 716.202 
	L 251.671, 706.375 
	L 262.651, 703.021 
	L 265.652, 712.848 
" />
<path d="M 311.783, 699.007 
	L 311.783, 699.008 
	L 300.668, 702.403 
	L 297.666, 692.576 
	L 308.781, 689.181 
	L 311.783, 699.008 
" />
<path d="M 365.001, 685.168 
	L 365.000, 685.169 
	L 353.750, 688.605 
	L 350.748, 678.778 
	L 361.998, 675.342 
	L 365.000, 685.169 
" />
<path d="M 425.305, 671.329 
	L 425.305, 671.329 
	L 413.918, 674.807 
	L 410.916, 664.980 
	L 422.303, 661.502 
	L 425.305, 671.329 
" />
<path d="M 139.205, 788.093 
	L 139.205, 788.093 
	L 149.707, 786.453 
	L 151.347, 796.956 
	L 140.844, 798.596 
	L 139.205, 788.093 
" />
<path d="M 142.678, 773.930 
	L 142.678, 773.931 
	L 153.320, 772.269 
	L 154.960, 782.772 
	L 144.318, 784.434 
	L 142.678, 773.931 
" />
<path d="M 153.238, 759.767 
	L 153.237, 759.768 
	L 164.020, 758.085 
	L 165.660, 768.588 
	L 154.877, 770.271 
	L 153.237, 759.768 
" />
<path d="M 170.885, 745.605 
	L 170.884, 745.606 
	L 181.807, 743.901 
	L 183.447, 754.404 
	L 172.524, 756.109 
	L 170.884, 745.606 
" />
<path d="M 195.618, 731.443 
	L 195.618, 731.444 
	L 206.680, 729.717 
	L 208.320, 740.220 
	L 197.257, 741.947 
	L 195.618, 731.444 
" />
<path d="M 227.438, 717.281 
	L 227.437, 717.282 
	L 238.640, 715.533 
	L 240.279, 726.035 
	L 229.077, 727.784 
	L 227.437, 717.282 
" />
<path d="M 266.344, 703.118 
	L 266.343, 703.119 
	L 277.686, 701.348 
	L 279.326, 711.851 
	L 267.983, 713.622 
	L 266.343, 703.119 
" />
<path d="M 312.337, 688.956 
	L 312.336, 688.957 
	L 323.819, 687.164 
	L 325.459, 697.667 
	L 313.976, 699.460 
	L 312.336, 688.957 
" />
<path d="M 365.416, 674.794 
	L 365.416, 674.795 
	L 377.039, 672.980 
	L 378.679, 683.483 
	L 367.055, 685.298 
	L 365.416, 674.795 
" />
<path d="M 425.583, 660.631 
	L 425.582, 660.632 
	L 437.346, 658.796 
	L 438.985, 669.299 
	L 427.222, 671.135 
	L 425.582, 660.632 
" />
<path d="M 164.837, 797.945 
	L 164.836, 797.946 
	L 154.208, 798.087 
	L 154.062, 787.103 
	L 164.690, 786.962 
	L 164.836, 797.946 
" />
<path d="M 168.451, 783.416 
	L 168.450, 783.417 
	L 157.680, 783.560 
	L 157.534, 772.577 
	L 168.304, 772.434 
	L 168.450, 783.417 
" />
<path d="M 179.152, 768.888 
	L 179.151, 768.889 
	L 168.239, 769.034 
	L 168.093, 758.050 
	L 179.005, 757.905 
	L 179.151, 768.889 
" />
<path d="M 196.939, 754.360 
	L 196.938, 754.360 
	L 185.885, 754.507 
	L 185.739, 743.523 
	L 196.792, 743.377 
	L 196.938, 754.360 
" />
<path d="M 221.813, 739.831 
	L 221.812, 739.831 
	L 210.617, 739.980 
	L 210.471, 728.997 
	L 221.666, 728.848 
	L 221.812, 739.831 
" />
<path d="M 253.774, 725.302 
	L 253.773, 725.303 
	L 242.436, 725.454 
	L 242.290, 714.470 
	L 253.627, 714.319 
	L 253.773, 725.303 
" />
<path d="M 292.821, 710.774 
	L 292.820, 710.775 
	L 281.341, 710.927 
	L 281.195, 699.944 
	L 292.674, 699.791 
	L 292.820, 710.775 
" />
<path d="M 338.955, 696.245 
	L 338.954, 696.246 
	L 327.334, 696.400 
	L 327.188, 685.417 
	L 338.808, 685.263 
	L 338.954, 696.246 
" />
<path d="M 392.175, 681.717 
	L 392.175, 681.717 
	L 380.412, 681.874 
	L 380.266, 670.891 
	L 392.029, 670.734 
	L 392.175, 681.717 
" />
<path d="M 452.482, 667.189 
	L 452.482, 667.189 
	L 440.578, 667.347 
	L 440.432, 656.364 
	L 452.336, 656.206 
	L 452.482, 667.189 
" />
<path d="M 169.077, 786.221 
	L 169.076, 786.222 
	L 179.619, 787.582 
	L 178.168, 798.827 
	L 167.625, 797.467 
	L 169.076, 786.222 
" />
<path d="M 172.550, 771.330 
	L 172.549, 771.331 
	L 183.232, 772.709 
	L 181.782, 783.955 
	L 171.099, 782.576 
	L 172.549, 771.331 
" />
<path d="M 183.110, 756.439 
	L 183.109, 756.439 
	L 193.932, 757.836 
	L 192.482, 769.082 
	L 181.658, 767.685 
	L 183.109, 756.439 
" />
<path d="M 200.756, 741.548 
	L 200.755, 741.549 
	L 211.720, 742.964 
	L 210.268, 754.209 
	L 199.304, 752.794 
	L 200.755, 741.549 
" />
<path d="M 225.489, 726.657 
	L 225.488, 726.658 
	L 236.593, 728.091 
	L 235.142, 739.336 
	L 224.037, 737.903 
	L 225.488, 726.658 
" />
<path d="M 257.308, 711.766 
	L 257.307, 711.767 
	L 268.553, 713.217 
	L 267.102, 724.463 
	L 255.857, 723.013 
	L 257.307, 711.767 
" />
<path d="M 296.214, 696.875 
	L 296.213, 696.876 
	L 307.599, 698.345 
	L 306.149, 709.591 
	L 294.763, 708.122 
	L 296.213, 696.876 
" />
<path d="M 342.207, 681.984 
	L 342.206, 681.985 
	L 353.733, 683.472 
	L 352.282, 694.718 
	L 340.756, 693.230 
	L 342.206, 681.985 
" />
<path d="M 395.286, 667.094 
	L 395.286, 667.094 
	L 406.952, 668.599 
	L 405.502, 679.845 
	L 393.835, 678.339 
	L 395.286, 667.094 
" />
<path d="M 455.453, 652.202 
	L 455.452, 652.203 
	L 467.260, 653.727 
	L 465.808, 664.972 
	L 454.000, 663.448 
	L 455.452, 652.203 
" />
<path d="M 191.360, 799.576 
	L 191.359, 799.576 
	L 181.114, 796.742 
	L 184.231, 785.473 
	L 194.477, 788.307 
	L 191.359, 799.576 
" />
<path d="M 194.971, 784.359 
	L 194.971, 784.359 
	L 184.589, 781.487 
	L 187.707, 770.217 
	L 198.089, 773.089 
	L 194.971, 784.359 
" />
<path d="M 205.669, 769.141 
	L 205.668, 769.142 
	L 195.151, 766.232 
	L 198.269, 754.963 
	L 208.787, 757.872 
	L 205.668, 769.142 
" />
<path d="M 223.454, 753.924 
	L 223.454, 753.924 
	L 212.799, 750.976 
	L 215.916, 739.707 
	L 226.571, 742.655 
	L 223.454, 753.924 
" />
<path d="M 248.326, 738.707 
	L 248.325, 738.707 
	L 237.533, 735.722 
	L 240.652, 724.452 
	L 251.443, 727.437 
	L 248.325, 738.707 
" />
<path d="M 280.284, 723.489 
	L 280.283, 723.490 
	L 269.355, 720.466 
	L 272.473, 709.197 
	L 283.401, 712.220 
	L 280.283, 723.490 
" />
<path d="M 319.329, 708.272 
	L 319.328, 708.272 
	L 308.263, 705.212 
	L 311.381, 693.942 
	L 322.446, 697.003 
	L 319.328, 708.272 
" />
<path d="M 365.460, 693.055 
	L 365.459, 693.055 
	L 354.258, 689.956 
	L 357.376, 678.687 
	L 368.577, 681.786 
	L 365.459, 693.055 
" />
<path d="M 418.678, 677.837 
	L 418.677, 677.838 
	L 407.339, 674.701 
	L 410.457, 663.432 
	L 421.795, 666.568 
	L 418.677, 677.838 
" />
<path d="M 478.982, 662.620 
	L 478.981, 662.621 
	L 467.507, 659.446 
	L 470.625, 648.177 
	L 482.100, 651.351 
	L 478.981, 662.621 
" />
<path d="M 199.507, 784.877 
	L 199.507, 784.878 
	L 209.249, 789.129 
	L 204.430, 800.171 
	L 194.688, 795.920 
	L 199.507, 784.878 
" />
<path d="M 202.985, 769.258 
	L 202.985, 769.259 
	L 212.857, 773.567 
	L 208.039, 784.609 
	L 198.167, 780.301 
	L 202.985, 769.259 
" />
<path d="M 213.551, 753.640 
	L 213.550, 753.640 
	L 223.552, 758.005 
	L 218.733, 769.047 
	L 208.731, 764.682 
	L 213.550, 753.640 
" />
<path d="M 231.202, 738.021 
	L 231.202, 738.021 
	L 241.334, 742.443 
	L 236.515, 753.484 
	L 226.383, 749.063 
	L 231.202, 738.021 
" />
<path d="M 255.940, 722.402 
	L 255.939, 722.402 
	L 266.202, 726.881 
	L 261.383, 737.922 
	L 251.121, 733.444 
	L 255.939, 722.402 
" />
<path d="M 287.765, 706.783 
	L 287.765, 706.784 
	L 298.157, 711.318 
	L 293.338, 722.360 
	L 282.946, 717.825 
	L 287.765, 706.784 
" />
<path d="M 326.677, 691.164 
	L 326.676, 691.165 
	L 337.198, 695.756 
	L 332.379, 706.798 
	L 321.857, 702.206 
	L 326.676, 691.165 
" />
<path d="M 372.674, 675.545 
	L 372.674, 675.546 
	L 383.326, 680.194 
	L 378.507, 691.236 
	L 367.856, 686.587 
	L 372.674, 675.546 
" />
<path d="M 425.760, 659.926 
	L 425.759, 659.927 
	L 436.540, 664.632 
	L 431.722, 675.673 
	L 420.940, 670.969 
	L 425.759, 659.927 
" />
<path d="M 485.931, 644.307 
	L 485.930, 644.308 
	L 496.842, 649.069 
	L 492.023, 660.111 
	L 481.111, 655.350 
	L 485.930, 644.308 
" />
<path d="M 217.407, 800.592 
	L 217.407, 800.593 
	L 208.362, 795.008 
	L 214.877, 784.456 
	L 223.921, 790.041 
	L 217.407, 800.593 
" />
<path d="M 221.011, 784.685 
	L 221.010, 784.685 
	L 211.845, 779.027 
	L 218.360, 768.474 
	L 227.525, 774.133 
	L 221.010, 784.685 
" />
<path d="M 231.701, 768.777 
	L 231.700, 768.777 
	L 222.414, 763.044 
	L 228.930, 752.492 
	L 238.216, 758.225 
	L 231.700, 768.777 
" />
<path d="M 249.478, 752.869 
	L 249.477, 752.870 
	L 240.070, 747.063 
	L 246.586, 736.510 
	L 255.993, 742.317 
	L 249.477, 752.870 
" />
<path d="M 274.342, 736.961 
	L 274.341, 736.962 
	L 264.813, 731.080 
	L 271.328, 720.528 
	L 280.856, 726.410 
	L 274.341, 736.962 
" />
<path d="M 306.292, 721.054 
	L 306.291, 721.055 
	L 296.643, 715.098 
	L 303.158, 704.546 
	L 312.806, 710.502 
	L 306.291, 721.055 
" />
<path d="M 345.329, 705.147 
	L 345.328, 705.147 
	L 335.559, 699.116 
	L 342.074, 688.563 
	L 351.843, 694.595 
	L 345.328, 705.147 
" />
<path d="M 391.452, 689.238 
	L 391.451, 689.239 
	L 381.562, 683.134 
	L 388.077, 672.581 
	L 397.966, 678.687 
	L 391.451, 689.239 
" />
<path d="M 444.662, 673.331 
	L 444.661, 673.332 
	L 434.651, 667.152 
	L 441.166, 656.599 
	L 451.176, 662.779 
	L 444.661, 673.332 
" />
<path d="M 504.958, 657.423 
	L 504.957, 657.424 
	L 494.827, 651.170 
	L 501.342, 640.617 
	L 511.472, 646.871 
	L 504.957, 657.424 
" />
<path d="M 230.315, 784.222 
	L 230.314, 784.223 
	L 238.481, 791.027 
	L 230.316, 800.827 
	L 222.149, 794.022 
	L 230.314, 784.223 
" />
<path d="M 233.804, 767.877 
	L 233.804, 767.878 
	L 242.079, 774.773 
	L 233.913, 784.573 
	L 225.638, 777.677 
	L 233.804, 767.878 
" />
<path d="M 244.380, 751.533 
	L 244.379, 751.533 
	L 252.763, 758.519 
	L 244.597, 768.319 
	L 236.213, 761.333 
	L 244.379, 751.533 
" />
<path d="M 262.042, 735.188 
	L 262.041, 735.189 
	L 270.534, 742.266 
	L 262.368, 752.065 
	L 253.875, 744.988 
	L 262.041, 735.189 
" />
<path d="M 286.790, 718.844 
	L 286.790, 718.844 
	L 295.392, 726.012 
	L 287.226, 735.811 
	L 278.624, 728.644 
	L 286.790, 718.844 
" />
<path d="M 318.626, 702.499 
	L 318.625, 702.500 
	L 327.336, 709.758 
	L 319.171, 719.557 
	L 310.460, 712.299 
	L 318.625, 702.500 
" />
<path d="M 357.547, 686.154 
	L 357.547, 686.155 
	L 366.367, 693.504 
	L 358.201, 703.303 
	L 349.381, 695.955 
	L 357.547, 686.155 
" />
<path d="M 403.557, 669.810 
	L 403.556, 669.811 
	L 412.484, 677.250 
	L 404.318, 687.049 
	L 395.390, 679.610 
	L 403.556, 669.811 
" />
<path d="M 456.652, 653.465 
	L 456.651, 653.466 
	L 465.688, 660.996 
	L 457.523, 670.796 
	L 448.485, 663.265 
	L 456.651, 653.466 
" />
<path d="M 516.833, 637.120 
	L 516.833, 637.121 
	L 525.979, 644.742 
	L 517.813, 654.542 
	L 508.667, 646.921 
	L 516.833, 637.121 
" />
<path d="M 243.186, 800.862 
	L 243.186, 800.863 
	L 236.061, 792.973 
	L 245.791, 784.186 
	L 252.916, 792.076 
	L 243.186, 800.863 
" />
<path d="M 246.777, 784.261 
	L 246.776, 784.262 
	L 239.557, 776.267 
	L 249.287, 767.480 
	L 256.506, 775.475 
	L 246.776, 784.262 
" />
<path d="M 257.455, 767.660 
	L 257.454, 767.660 
	L 250.139, 759.561 
	L 259.869, 750.774 
	L 267.184, 758.874 
	L 257.454, 767.660 
" />
<path d="M 275.219, 751.059 
	L 275.218, 751.059 
	L 267.808, 742.855 
	L 277.538, 734.068 
	L 284.948, 742.273 
	L 275.218, 751.059 
" />
<path d="M 300.069, 734.458 
	L 300.069, 734.459 
	L 292.564, 726.149 
	L 302.294, 717.362 
	L 309.798, 725.672 
	L 300.069, 734.459 
" />
<path d="M 332.007, 717.857 
	L 332.006, 717.858 
	L 324.406, 709.442 
	L 334.136, 700.656 
	L 341.736, 709.071 
	L 332.006, 717.858 
" />
<path d="M 371.030, 701.256 
	L 371.030, 701.257 
	L 363.335, 692.736 
	L 373.065, 683.950 
	L 380.760, 692.470 
	L 371.030, 701.257 
" />
<path d="M 417.141, 684.655 
	L 417.140, 684.656 
	L 409.351, 676.030 
	L 419.080, 667.244 
	L 426.870, 675.869 
	L 417.140, 684.656 
" />
<path d="M 470.338, 668.054 
	L 470.337, 668.055 
	L 462.453, 659.325 
	L 472.183, 650.538 
	L 480.067, 659.268 
	L 470.337, 668.055 
" />
<path d="M 530.622, 651.453 
	L 530.621, 651.454 
	L 522.641, 642.619 
	L 532.371, 633.831 
	L 540.351, 642.667 
	L 530.621, 651.454 
" />
<path d="M 261.276, 784.354 
	L 261.275, 784.355 
	L 267.214, 793.170 
	L 256.048, 800.694 
	L 250.109, 791.879 
	L 261.275, 784.355 
" />
<path d="M 264.779, 767.288 
	L 264.779, 767.288 
	L 270.797, 776.221 
	L 259.631, 783.745 
	L 253.612, 774.812 
	L 264.779, 767.288 
" />
<path d="M 275.370, 750.221 
	L 275.369, 750.222 
	L 281.467, 759.272 
	L 270.301, 766.796 
	L 264.202, 757.746 
	L 275.369, 750.222 
" />
<path d="M 293.046, 733.154 
	L 293.046, 733.155 
	L 299.223, 742.323 
	L 288.057, 749.847 
	L 281.879, 740.679 
	L 293.046, 733.155 
" />
<path d="M 317.810, 716.088 
	L 317.809, 716.088 
	L 324.066, 725.374 
	L 312.900, 732.898 
	L 306.643, 723.612 
	L 317.809, 716.088 
" />
<path d="M 349.660, 699.021 
	L 349.659, 699.022 
	L 355.995, 708.425 
	L 344.829, 715.949 
	L 338.493, 706.545 
	L 349.659, 699.022 
" />
<path d="M 388.597, 681.954 
	L 388.596, 681.955 
	L 395.011, 691.476 
	L 383.845, 699.000 
	L 377.430, 689.479 
	L 388.596, 681.955 
" />
<path d="M 434.620, 664.888 
	L 434.619, 664.888 
	L 441.114, 674.527 
	L 429.948, 682.051 
	L 423.453, 672.412 
	L 434.619, 664.888 
" />
<path d="M 487.730, 647.821 
	L 487.729, 647.822 
	L 494.303, 657.578 
	L 483.137, 665.102 
	L 476.564, 655.345 
	L 487.729, 647.822 
" />
<path d="M 547.927, 630.754 
	L 547.926, 630.755 
	L 554.579, 640.629 
	L 543.412, 648.152 
	L 536.760, 638.279 
	L 547.926, 630.755 
" />
<path d="M 268.936, 800.320 
	L 268.936, 800.321 
	L 264.299, 790.756 
	L 276.734, 784.728 
	L 281.371, 794.293 
	L 268.936, 800.321 
" />
<path d="M 272.510, 783.022 
	L 272.509, 783.023 
	L 267.811, 773.330 
	L 280.247, 767.302 
	L 284.945, 776.995 
	L 272.509, 783.023 
" />
<path d="M 283.171, 765.724 
	L 283.171, 765.724 
	L 278.410, 755.904 
	L 290.845, 749.876 
	L 295.605, 759.696 
	L 283.171, 765.724 
" />
<path d="M 300.918, 748.425 
	L 300.918, 748.426 
	L 296.096, 738.478 
	L 308.531, 732.450 
	L 313.353, 742.398 
	L 300.918, 748.426 
" />
<path d="M 325.753, 731.127 
	L 325.752, 731.128 
	L 320.868, 721.052 
	L 333.303, 715.024 
	L 338.187, 725.100 
	L 325.752, 731.128 
" />
<path d="M 357.674, 713.828 
	L 357.673, 713.829 
	L 352.727, 703.626 
	L 365.162, 697.598 
	L 370.108, 707.801 
	L 357.673, 713.829 
" />
<path d="M 396.680, 696.530 
	L 396.680, 696.531 
	L 391.672, 686.200 
	L 404.108, 680.172 
	L 409.115, 690.503 
	L 396.680, 696.531 
" />
<path d="M 442.775, 679.231 
	L 442.774, 679.232 
	L 437.705, 668.774 
	L 450.140, 662.746 
	L 455.209, 673.204 
	L 442.774, 679.232 
" />
<path d="M 495.955, 661.933 
	L 495.954, 661.934 
	L 490.823, 651.348 
	L 503.259, 645.320 
	L 508.390, 655.906 
	L 495.954, 661.934 
" />
<path d="M 556.222, 644.634 
	L 556.221, 644.635 
	L 551.029, 633.922 
	L 563.464, 627.895 
	L 568.656, 638.608 
	L 556.221, 644.635 
" />
<path d="M 292.138, 785.302 
	L 292.137, 785.303 
	L 295.377, 795.427 
	L 281.879, 799.747 
	L 278.639, 789.623 
	L 292.137, 785.303 
" />
<path d="M 295.660, 767.518 
	L 295.659, 767.519 
	L 298.942, 777.777 
	L 285.443, 782.097 
	L 282.160, 771.839 
	L 295.659, 767.519 
" />
<path d="M 306.268, 749.733 
	L 306.267, 749.734 
	L 309.594, 760.128 
	L 296.095, 764.449 
	L 292.769, 754.055 
	L 306.267, 749.734 
" />
<path d="M 323.963, 731.950 
	L 323.963, 731.950 
	L 327.332, 742.480 
	L 313.833, 746.800 
	L 310.463, 736.270 
	L 323.963, 731.950 
" />
<path d="M 348.744, 714.166 
	L 348.744, 714.166 
	L 352.157, 724.830 
	L 338.658, 729.150 
	L 335.245, 718.486 
	L 348.744, 714.166 
" />
<path d="M 380.613, 696.382 
	L 380.612, 696.383 
	L 384.068, 707.181 
	L 370.569, 711.501 
	L 367.113, 700.703 
	L 380.612, 696.383 
" />
<path d="M 419.567, 678.597 
	L 419.567, 678.598 
	L 423.066, 689.532 
	L 409.567, 693.853 
	L 406.068, 682.919 
	L 419.567, 678.598 
" />
<path d="M 465.609, 660.813 
	L 465.608, 660.814 
	L 469.151, 671.883 
	L 455.652, 676.203 
	L 452.109, 665.134 
	L 465.608, 660.814 
" />
<path d="M 518.737, 643.030 
	L 518.736, 643.030 
	L 522.322, 654.234 
	L 508.823, 658.554 
	L 505.237, 647.350 
	L 518.736, 643.030 
" />
<path d="M 578.952, 625.246 
	L 578.951, 625.246 
	L 582.580, 636.585 
	L 569.081, 640.905 
	L 565.452, 629.566 
	L 578.951, 625.246 
" />
<path d="M 294.910, 798.980 
	L 294.909, 798.980 
	L 293.130, 788.500 
	L 307.453, 786.069 
	L 309.232, 796.549 
	L 294.909, 798.980 
" />
<path d="M 298.465, 780.978 
	L 298.464, 780.979 
	L 296.662, 770.360 
	L 310.985, 767.928 
	L 312.787, 778.548 
	L 298.464, 780.979 
" />
<path d="M 309.107, 762.978 
	L 309.106, 762.978 
	L 307.280, 752.219 
	L 321.603, 749.787 
	L 323.429, 760.547 
	L 309.106, 762.978 
" />
<path d="M 326.835, 744.976 
	L 326.835, 744.977 
	L 324.984, 734.078 
	L 339.307, 731.647 
	L 341.157, 742.546 
	L 326.835, 744.977 
" />
<path d="M 351.651, 726.975 
	L 351.650, 726.976 
	L 349.776, 715.937 
	L 364.098, 713.506 
	L 365.973, 724.545 
	L 351.650, 726.976 
" />
<path d="M 383.552, 708.975 
	L 383.551, 708.975 
	L 381.654, 697.796 
	L 395.977, 695.365 
	L 397.874, 706.544 
	L 383.551, 708.975 
" />
<path d="M 422.540, 690.973 
	L 422.539, 690.974 
	L 420.618, 679.656 
	L 434.941, 677.225 
	L 436.862, 688.543 
	L 422.539, 690.974 
" />
<path d="M 468.615, 672.973 
	L 468.614, 672.973 
	L 466.669, 661.515 
	L 480.992, 659.084 
	L 482.937, 670.542 
	L 468.614, 672.973 
" />
<path d="M 521.777, 654.971 
	L 521.776, 654.972 
	L 519.807, 643.374 
	L 534.130, 640.943 
	L 536.098, 652.541 
	L 521.776, 654.972 
" />
<path d="M 582.024, 636.970 
	L 582.024, 636.971 
	L 580.032, 625.234 
	L 594.354, 622.802 
	L 596.346, 634.540 
	L 582.024, 636.971 
" />
<path d="M 322.652, 787.013 
	L 322.651, 787.014 
	L 322.934, 797.640 
	L 308.057, 798.035 
	L 307.775, 787.409 
	L 322.651, 787.014 
" />
<path d="M 326.194, 768.517 
	L 326.193, 768.518 
	L 326.479, 779.286 
	L 311.602, 779.681 
	L 311.316, 768.913 
	L 326.193, 768.518 
" />
<path d="M 336.822, 750.021 
	L 336.821, 750.022 
	L 337.111, 760.931 
	L 322.234, 761.326 
	L 321.944, 750.417 
	L 336.821, 750.022 
" />
<path d="M 354.536, 731.525 
	L 354.536, 731.526 
	L 354.829, 742.577 
	L 339.953, 742.972 
	L 339.659, 731.921 
	L 354.536, 731.526 
" />
<path d="M 379.338, 713.029 
	L 379.337, 713.030 
	L 379.634, 724.222 
	L 364.757, 724.618 
	L 364.460, 713.425 
	L 379.337, 713.030 
" />
<path d="M 411.226, 694.533 
	L 411.225, 694.534 
	L 411.526, 705.868 
	L 396.649, 706.263 
	L 396.348, 694.929 
	L 411.225, 694.534 
" />
<path d="M 450.200, 676.037 
	L 450.199, 676.038 
	L 450.504, 687.514 
	L 435.628, 687.909 
	L 435.323, 676.433 
	L 450.199, 676.038 
" />
<path d="M 496.261, 657.541 
	L 496.261, 657.542 
	L 496.569, 669.159 
	L 481.692, 669.555 
	L 481.384, 657.937 
	L 496.261, 657.542 
" />
<path d="M 549.409, 639.045 
	L 549.408, 639.045 
	L 549.721, 650.805 
	L 534.844, 651.200 
	L 534.531, 639.441 
	L 549.408, 639.045 
" />
<path d="M 609.643, 620.549 
	L 609.642, 620.549 
	L 609.958, 632.451 
	L 595.082, 632.846 
	L 594.766, 620.945 
	L 609.642, 620.549 
" />
<path d="M 321.350, 796.929 
	L 321.350, 796.930 
	L 322.570, 786.371 
	L 337.706, 788.119 
	L 336.485, 798.679 
	L 321.350, 796.930 
" />
<path d="M 324.886, 778.220 
	L 324.885, 778.221 
	L 326.121, 767.520 
	L 341.257, 769.269 
	L 340.021, 779.970 
	L 324.885, 778.221 
" />
<path d="M 335.507, 759.511 
	L 335.507, 759.512 
	L 336.759, 748.670 
	L 351.895, 750.419 
	L 350.642, 761.261 
	L 335.507, 759.512 
" />
<path d="M 353.216, 740.802 
	L 353.215, 740.803 
	L 354.484, 729.821 
	L 369.619, 731.569 
	L 368.351, 742.551 
	L 353.215, 740.803 
" />
<path d="M 378.011, 722.093 
	L 378.010, 722.093 
	L 379.295, 710.970 
	L 394.431, 712.719 
	L 393.146, 723.842 
	L 378.010, 722.093 
" />
<path d="M 409.893, 703.383 
	L 409.892, 703.384 
	L 411.193, 692.121 
	L 426.329, 693.870 
	L 425.028, 705.133 
	L 409.892, 703.384 
" />
<path d="M 448.861, 684.675 
	L 448.860, 684.675 
	L 450.178, 673.271 
	L 465.314, 675.019 
	L 463.995, 686.424 
	L 448.860, 684.675 
" />
<path d="M 494.916, 665.965 
	L 494.915, 665.966 
	L 496.249, 654.421 
	L 511.384, 656.170 
	L 510.051, 667.715 
	L 494.915, 665.966 
" />
<path d="M 548.057, 647.256 
	L 548.056, 647.257 
	L 549.407, 635.571 
	L 564.542, 637.320 
	L 563.192, 649.006 
	L 548.056, 647.257 
" />
<path d="M 608.285, 628.547 
	L 608.285, 628.548 
	L 609.651, 616.721 
	L 624.786, 618.469 
	L 623.420, 630.296 
	L 608.285, 628.548 
" />
<path d="M 352.590, 789.362 
	L 352.590, 789.362 
	L 349.892, 799.644 
	L 334.812, 795.687 
	L 337.510, 785.405 
	L 352.590, 789.362 
" />
<path d="M 356.152, 770.159 
	L 356.151, 770.160 
	L 353.417, 780.579 
	L 338.337, 776.621 
	L 341.071, 766.203 
	L 356.151, 770.160 
" />
<path d="M 366.800, 750.957 
	L 366.799, 750.957 
	L 364.029, 761.514 
	L 348.949, 757.556 
	L 351.719, 747.000 
	L 366.799, 750.957 
" />
<path d="M 384.535, 731.755 
	L 384.534, 731.755 
	L 381.728, 742.448 
	L 366.647, 738.490 
	L 369.454, 727.798 
	L 384.534, 731.755 
" />
<path d="M 409.355, 712.552 
	L 409.355, 712.553 
	L 406.513, 723.383 
	L 391.433, 719.425 
	L 394.274, 708.596 
	L 409.355, 712.553 
" />
<path d="M 441.263, 693.349 
	L 441.262, 693.350 
	L 438.384, 704.317 
	L 423.305, 700.360 
	L 426.183, 689.393 
	L 441.262, 693.350 
" />
<path d="M 480.258, 674.147 
	L 480.257, 674.148 
	L 477.343, 685.252 
	L 462.263, 681.295 
	L 465.177, 670.190 
	L 480.257, 674.148 
" />
<path d="M 526.338, 654.945 
	L 526.338, 654.946 
	L 523.388, 666.187 
	L 508.308, 662.229 
	L 511.258, 650.988 
	L 526.338, 654.946 
" />
<path d="M 579.506, 635.742 
	L 579.505, 635.743 
	L 576.520, 647.121 
	L 561.440, 643.164 
	L 564.426, 631.786 
	L 579.505, 635.743 
" />
<path d="M 639.760, 616.540 
	L 639.760, 616.540 
	L 636.738, 628.056 
	L 621.658, 624.099 
	L 624.679, 612.583 
	L 639.760, 616.540 
" />
<path d="M 348.465, 794.332 
	L 348.464, 794.332 
	L 352.587, 784.534 
	L 367.284, 790.717 
	L 363.161, 800.515 
	L 348.464, 794.332 
" />
<path d="M 351.981, 774.909 
	L 351.980, 774.909 
	L 356.157, 764.980 
	L 370.855, 771.163 
	L 366.678, 781.092 
	L 351.980, 774.909 
" />
<path d="M 362.583, 755.486 
	L 362.582, 755.486 
	L 366.815, 745.427 
	L 381.512, 751.610 
	L 377.280, 761.669 
	L 362.582, 755.486 
" />
<path d="M 380.273, 736.063 
	L 380.272, 736.063 
	L 384.559, 725.874 
	L 399.256, 732.057 
	L 394.969, 742.246 
	L 380.272, 736.063 
" />
<path d="M 405.048, 716.640 
	L 405.048, 716.640 
	L 409.390, 706.320 
	L 424.086, 712.503 
	L 419.744, 722.823 
	L 405.048, 716.640 
" />
<path d="M 436.910, 697.217 
	L 436.910, 697.217 
	L 441.307, 686.766 
	L 456.004, 692.950 
	L 451.607, 703.401 
	L 436.910, 697.217 
" />
<path d="M 475.859, 677.794 
	L 475.858, 677.795 
	L 480.310, 667.213 
	L 495.008, 673.396 
	L 490.556, 683.978 
	L 475.858, 677.795 
" />
<path d="M 521.894, 658.371 
	L 521.894, 658.372 
	L 526.401, 647.659 
	L 541.099, 653.842 
	L 536.591, 664.555 
	L 521.894, 658.372 
" />
<path d="M 575.017, 638.948 
	L 575.016, 638.949 
	L 579.578, 628.106 
	L 594.275, 634.289 
	L 589.713, 645.132 
	L 575.016, 638.949 
" />
<path d="M 635.226, 619.525 
	L 635.225, 619.526 
	L 639.842, 608.552 
	L 654.539, 614.736 
	L 649.922, 625.709 
	L 635.225, 619.526 
" />
<path d="M 381.771, 792.153 
	L 381.770, 792.154 
	L 376.306, 801.272 
	L 362.324, 792.895 
	L 367.788, 783.777 
	L 381.770, 792.154 
" />
<path d="M 385.350, 772.250 
	L 385.350, 772.250 
	L 379.813, 781.491 
	L 365.832, 773.114 
	L 371.368, 763.873 
	L 385.350, 772.250 
" />
<path d="M 396.016, 752.347 
	L 396.016, 752.348 
	L 390.407, 761.709 
	L 376.425, 753.331 
	L 382.034, 743.970 
	L 396.016, 752.348 
" />
<path d="M 413.770, 732.444 
	L 413.769, 732.444 
	L 408.087, 741.927 
	L 394.105, 733.550 
	L 399.787, 724.066 
	L 413.769, 732.444 
" />
<path d="M 438.609, 712.540 
	L 438.608, 712.541 
	L 432.853, 722.145 
	L 418.872, 713.768 
	L 424.627, 704.164 
	L 438.608, 712.541 
" />
<path d="M 470.536, 692.637 
	L 470.535, 692.637 
	L 464.707, 702.364 
	L 450.725, 693.987 
	L 456.553, 684.260 
	L 470.535, 692.637 
" />
<path d="M 509.548, 672.734 
	L 509.547, 672.735 
	L 503.647, 682.582 
	L 489.665, 674.204 
	L 495.566, 664.357 
	L 509.547, 672.735 
" />
<path d="M 555.647, 652.830 
	L 555.647, 652.831 
	L 549.673, 662.801 
	L 535.692, 654.423 
	L 541.665, 644.453 
	L 555.647, 652.831 
" />
<path d="M 608.834, 632.927 
	L 608.833, 632.928 
	L 602.787, 643.019 
	L 588.805, 634.641 
	L 594.851, 624.550 
	L 608.833, 632.928 
" />
<path d="M 669.106, 613.023 
	L 669.105, 613.024 
	L 662.986, 623.237 
	L 649.005, 614.860 
	L 655.124, 604.647 
	L 669.105, 613.024 
" />
<path d="M 376.406, 791.407 
	L 376.406, 791.408 
	L 383.101, 783.152 
	L 396.035, 793.641 
	L 389.340, 801.897 
	L 376.406, 791.408 
" />
<path d="M 379.905, 771.265 
	L 379.904, 771.266 
	L 386.689, 762.900 
	L 399.623, 773.389 
	L 392.839, 781.756 
	L 379.904, 771.266 
" />
<path d="M 390.490, 751.123 
	L 390.490, 751.124 
	L 397.364, 742.647 
	L 410.298, 753.138 
	L 403.424, 761.614 
	L 390.490, 751.124 
" />
<path d="M 408.162, 730.981 
	L 408.161, 730.982 
	L 415.125, 722.396 
	L 428.059, 732.886 
	L 421.096, 741.472 
	L 408.161, 730.982 
" />
<path d="M 432.921, 710.840 
	L 432.920, 710.841 
	L 439.973, 702.144 
	L 452.907, 712.634 
	L 445.854, 721.330 
	L 432.920, 710.841 
" />
<path d="M 464.766, 690.698 
	L 464.765, 690.698 
	L 471.907, 681.892 
	L 484.841, 692.382 
	L 477.700, 701.189 
	L 464.765, 690.698 
" />
<path d="M 503.697, 670.556 
	L 503.697, 670.557 
	L 510.928, 661.640 
	L 523.862, 672.130 
	L 516.631, 681.046 
	L 503.697, 670.557 
" />
<path d="M 549.716, 650.415 
	L 549.715, 650.415 
	L 557.036, 641.388 
	L 569.970, 651.878 
	L 562.650, 660.905 
	L 549.715, 650.415 
" />
<path d="M 602.821, 630.272 
	L 602.820, 630.273 
	L 610.230, 621.136 
	L 623.164, 631.626 
	L 615.755, 640.763 
	L 602.820, 630.273 
" />
<path d="M 663.012, 610.131 
	L 663.012, 610.131 
	L 670.511, 600.885 
	L 683.445, 611.374 
	L 675.946, 620.621 
	L 663.012, 610.131 
" />
<path d="M 410.074, 795.144 
	L 410.073, 795.145 
	L 402.280, 802.374 
	L 390.714, 789.904 
	L 398.508, 782.676 
	L 410.073, 795.145 
" />
<path d="M 413.670, 774.545 
	L 413.669, 774.546 
	L 405.771, 781.871 
	L 394.205, 769.401 
	L 402.103, 762.076 
	L 413.669, 774.546 
" />
<path d="M 424.351, 753.946 
	L 424.351, 753.946 
	L 416.349, 761.368 
	L 404.783, 748.898 
	L 412.785, 741.477 
	L 424.351, 753.946 
" />
<path d="M 442.120, 733.346 
	L 442.119, 733.347 
	L 434.013, 740.864 
	L 422.448, 728.395 
	L 430.554, 720.877 
	L 442.119, 733.347 
" />
<path d="M 466.975, 712.747 
	L 466.974, 712.748 
	L 458.765, 720.362 
	L 447.199, 707.892 
	L 455.409, 700.278 
	L 466.974, 712.748 
" />
<path d="M 498.917, 692.148 
	L 498.916, 692.148 
	L 490.603, 699.859 
	L 479.037, 687.389 
	L 487.350, 679.679 
	L 498.916, 692.148 
" />
<path d="M 537.945, 671.548 
	L 537.944, 671.549 
	L 529.527, 679.356 
	L 517.961, 666.886 
	L 526.379, 659.079 
	L 537.944, 671.549 
" />
<path d="M 584.060, 650.949 
	L 584.059, 650.950 
	L 575.538, 658.853 
	L 563.973, 646.383 
	L 572.494, 638.480 
	L 584.059, 650.950 
" />
<path d="M 637.262, 630.349 
	L 637.261, 630.350 
	L 628.636, 638.350 
	L 617.070, 625.880 
	L 625.695, 617.881 
	L 637.261, 630.350 
" />
<path d="M 697.550, 609.750 
	L 697.549, 609.751 
	L 688.820, 617.847 
	L 677.254, 605.377 
	L 685.984, 597.281 
	L 697.549, 609.751 
" />
<path d="M 405.254, 788.418 
	L 405.253, 788.419 
	L 413.989, 782.362 
	L 423.881, 796.631 
	L 415.145, 802.687 
	L 405.253, 788.419 
" />
<path d="M 408.739, 767.553 
	L 408.738, 767.553 
	L 417.590, 761.416 
	L 427.482, 775.685 
	L 418.630, 781.822 
	L 408.738, 767.553 
" />
<path d="M 419.311, 746.688 
	L 419.310, 746.688 
	L 428.279, 740.471 
	L 438.170, 754.739 
	L 429.202, 760.956 
	L 419.310, 746.688 
" />
<path d="M 436.968, 725.822 
	L 436.968, 725.823 
	L 446.054, 719.525 
	L 455.946, 733.793 
	L 446.860, 740.091 
	L 436.968, 725.823 
" />
<path d="M 461.714, 704.957 
	L 461.713, 704.958 
	L 470.915, 698.579 
	L 480.807, 712.847 
	L 471.605, 719.226 
	L 461.713, 704.958 
" />
<path d="M 493.545, 684.092 
	L 493.544, 684.093 
	L 502.863, 677.633 
	L 512.755, 691.901 
	L 503.437, 698.361 
	L 493.544, 684.093 
" />
<path d="M 532.463, 663.227 
	L 532.463, 663.228 
	L 541.897, 656.687 
	L 551.789, 670.955 
	L 542.355, 677.496 
	L 532.463, 663.228 
" />
<path d="M 578.468, 642.362 
	L 578.468, 642.363 
	L 588.018, 635.741 
	L 597.910, 650.009 
	L 588.360, 656.631 
	L 578.468, 642.363 
" />
<path d="M 631.559, 621.497 
	L 631.558, 621.498 
	L 641.227, 614.795 
	L 651.119, 629.063 
	L 641.451, 635.766 
	L 631.558, 621.498 
" />
<path d="M 691.737, 600.632 
	L 691.737, 600.632 
	L 701.521, 593.849 
	L 711.413, 608.117 
	L 701.629, 614.901 
	L 691.737, 600.632 
" />
<path d="M 1134.567, 792.525 
	L 1136.693, 792.525 
	L 1137.402, 791.462 
	L 1136.693, 790.399 
	L 1135.276, 790.399 
" />
<path d="M 1136.693, 790.399 
	L 1137.402, 789.336 
	L 1136.693, 788.273 
	L 1134.567, 788.273 
" />
<path d="M 1135.984, 786.147 
	L 1135.984, 782.958 
	L 1135.276, 781.895 
	L 1134.567, 782.958 
	L 1134.567, 785.084 
	L 1135.276, 786.147 
	L 1136.693, 786.147 
	L 1137.402, 785.084 
	L 1137.402, 781.895 
" />
<path d="M 1137.402, 775.517 
	L 1137.402, 778.706 
	L 1136.693, 779.769 
	L 1135.276, 779.769 
	L 1134.567, 778.706 
	L 1134.567, 776.580 
	L 1137.402, 776.580 
" />
<path d="M 1134.567, 773.391 
	L 1135.984, 773.391 
	L 1137.402, 771.265 
	L 1135.984, 769.139 
	L 1134.567, 769.139 
" />
<path d="M 1135.984, 767.013 
	L 1135.984, 763.824 
	L 1135.276, 762.761 
	L 1134.567, 763.824 
	L 1134.567, 765.950 
	L 1135.276, 767.013 
	L 1136.693, 767.013 
	L 1137.402, 765.950 
	L 1137.402, 762.761 
" />
<path d="M 1134.567, 757.446 
	L 1134.567, 759.572 
	L 1135.276, 760.635 
	L 1135.984, 759.572 
	L 1135.984, 758.509 
	L 1136.693, 757.446 
	L 1137.402, 758.509 
	L 1137.402, 760.635 
" />
<path d="M 1137.402, 752.131 
	L 1137.402, 753.194 
	L 1136.693, 753.194 
	L 1136.693, 752.131 
	L 1137.402, 752.131 
" />
<path d="M 1138.819, 747.879 
	L 1134.567, 747.879 
	L 1134.567, 745.753 
	L 1135.276, 744.690 
	L 1136.693, 744.690 
	L 1137.402, 745.753 
	L 1137.402, 747.879 
" />
<path d="M 1138.819, 741.501 
	L 1135.984, 737.249 
	L 1134.567, 737.249 
" />
<path d="M 1134.567, 741.501 
	L 1135.984, 741.501 
	L 1137.402, 739.375 
" />
<path d="M 1133.858, 709.611 
	L 1133.150, 708.548 
	L 1133.150, 706.422 
	L 1133.858, 705.359 
	L 1134.567, 705.359 
	L 1136.693, 709.611 
	L 1137.402, 709.611 
	L 1137.402, 705.359 
" />
<path d="M 1136.693, 703.233 
	L 1137.402, 702.170 
	L 1137.402, 700.044 
	L 1136.693, 698.981 
	L 1133.858, 698.981 
	L 1133.150, 700.044 
	L 1133.150, 702.170 
	L 1133.858, 703.233 
	L 1136.693, 703.233 
" />
<path d="M 1137.402, 695.792 
	L 1137.402, 693.666 
" />
<path d="M 1137.402, 694.729 
	L 1133.150, 694.729 
	L 1133.858, 695.792 
" />
<path d="M 1137.402, 689.414 
	L 1137.402, 688.351 
	L 1135.984, 686.225 
	L 1133.858, 686.225 
	L 1133.150, 687.288 
	L 1133.150, 689.414 
	L 1133.858, 690.477 
	L 1134.567, 690.477 
	L 1135.276, 689.414 
	L 1135.276, 686.225 
" />
<path d="M 1135.276, 684.099 
	L 1135.276, 679.847 
" />
<path d="M 1136.693, 677.721 
	L 1137.402, 676.658 
	L 1137.402, 674.532 
	L 1136.693, 673.469 
	L 1133.858, 673.469 
	L 1133.150, 674.532 
	L 1133.150, 676.658 
	L 1133.858, 677.721 
	L 1136.693, 677.721 
" />
<path d="M 1133.150, 667.091 
	L 1133.150, 669.217 
	L 1134.567, 671.343 
	L 1136.693, 671.343 
	L 1137.402, 670.280 
	L 1137.402, 668.154 
	L 1136.693, 667.091 
	L 1135.984, 667.091 
	L 1135.276, 668.154 
	L 1135.276, 671.343 
" />
<path d="M 1135.276, 664.965 
	L 1135.276, 660.713 
" />
<path d="M 1136.693, 658.588 
	L 1137.402, 657.525 
	L 1137.402, 655.399 
	L 1136.693, 654.336 
	L 1133.858, 654.336 
	L 1133.150, 655.399 
	L 1133.150, 657.525 
	L 1133.858, 658.588 
	L 1136.693, 658.588 
" />
<path d="M 1137.402, 651.147 
	L 1137.402, 650.084 
	L 1135.984, 647.958 
	L 1133.858, 647.958 
	L 1133.150, 649.021 
	L 1133.150, 651.147 
	L 1133.858, 652.210 
	L 1134.567, 652.210 
	L 1135.276, 651.147 
	L 1135.276, 647.958 
" />
<path d="M 1136.693, 639.454 
	L 1137.402, 638.391 
	L 1137.402, 636.265 
	L 1136.693, 635.202 
	L 1133.858, 635.202 
	L 1133.150, 636.265 
	L 1133.150, 638.391 
	L 1133.858, 639.454 
	L 1136.693, 639.454 
" />
<path d="M 1136.693, 633.076 
	L 1137.402, 632.013 
	L 1137.402, 629.887 
	L 1136.693, 628.824 
	L 1133.858, 628.824 
	L 1133.150, 629.887 
	L 1133.150, 632.013 
	L 1133.858, 633.076 
	L 1136.693, 633.076 
" />
<path d="M 1135.276, 625.635 
	L 1134.567, 625.635 
	L 1134.567, 624.572 
	L 1135.276, 624.572 
	L 1135.276, 625.635 
" />
<path d="M 1136.693, 625.635 
	L 1136.693, 624.572 
	L 1137.402, 624.572 
	L 1137.402, 625.635 
	L 1136.693, 625.635 
" />
<path d="M 1133.858, 620.320 
	L 1133.150, 619.257 
	L 1133.150, 617.131 
	L 1133.858, 616.068 
	L 1134.567, 616.068 
	L 1136.693, 620.320 
	L 1137.402, 620.320 
	L 1137.402, 616.068 
" />
<path d="M 1137.402, 612.879 
	L 1137.402, 610.753 
" />
<path d="M 1137.402, 611.816 
	L 1133.150, 611.816 
	L 1133.858, 612.879 
" />
</g>
</svg>
