<?xml version="1.0" encoding="UTF-8" standalone="no" ?>
<svg width="100%" height="100%" viewBox="0 0 1257.166 213.236" xmlns="http://www.w3.org/2000/svg"><g>
</g><g style="stroke:rgb(0,0,0); fill:none; stroke-width:1.000mm" >
</g><g style="stroke:rgb(255,0,0); fill:none; stroke-width:0.100mm" >
<path d="M 114.804, 223.865 
	L 114.803, 223.866 
	L 114.803, 202.606 
	L 128.976, 202.606 
	L 128.976, 223.866 
	L 114.803, 223.866 
" />
<path d="M 113.387, 202.676 
	L 113.386, 202.677 
	L 113.386, 181.276 
	L 127.559, 181.276 
	L 127.559, 202.677 
	L 113.386, 202.677 
" />
<path d="M 109.135, 181.488 
	L 109.134, 181.488 
	L 109.134, 159.945 
	L 123.307, 159.945 
	L 123.307, 181.488 
	L 109.134, 181.488 
" />
<path d="M 102.048, 160.299 
	L 102.047, 160.299 
	L 102.047, 138.614 
	L 116.220, 138.614 
	L 116.220, 160.299 
	L 102.047, 160.299 
" />
<path d="M 92.127, 139.110 
	L 92.126, 139.110 
	L 92.126, 117.283 
	L 106.299, 117.283 
	L 106.299, 139.110 
	L 92.126, 139.110 
" />
<path d="M 79.371, 117.921 
	L 79.370, 117.921 
	L 79.370, 95.953 
	L 93.543, 95.953 
	L 93.543, 117.921 
	L 79.370, 117.921 
" />
<path d="M 63.780, 96.732 
	L 63.780, 96.732 
	L 63.780, 74.622 
	L 77.953, 74.622 
	L 77.953, 96.732 
	L 63.780, 96.732 
" />
<path d="M 45.355, 75.543 
	L 45.354, 75.543 
	L 45.354, 53.291 
	L 59.528, 53.291 
	L 59.528, 75.543 
	L 45.354, 75.543 
" />
<path d="M 24.095, 54.354 
	L 24.094, 54.354 
	L 24.094, 31.961 
	L 38.268, 31.961 
	L 38.268, 54.354 
	L 24.094, 54.354 
" />
<path d="M 0.001, 33.165 
	L 0.000, 33.165 
	L 0.000, 10.630 
	L 14.173, 10.630 
	L 14.173, 33.165 
	L 0.000, 33.165 
" />
<path d="M 142.973, 223.865 
	L 142.972, 223.866 
	L 142.972, 202.606 
	L 157.500, 202.606 
	L 157.500, 223.866 
	L 142.972, 223.866 
" />
<path d="M 141.556, 202.676 
	L 141.555, 202.677 
	L 141.555, 181.276 
	L 156.083, 181.276 
	L 156.083, 202.677 
	L 141.555, 202.677 
" />
<path d="M 137.304, 181.488 
	L 137.303, 181.488 
	L 137.303, 159.945 
	L 151.831, 159.945 
	L 151.831, 181.488 
	L 137.303, 181.488 
" />
<path d="M 130.217, 160.299 
	L 130.217, 160.299 
	L 130.217, 138.614 
	L 144.744, 138.614 
	L 144.744, 160.299 
	L 130.217, 160.299 
" />
<path d="M 120.296, 139.110 
	L 120.295, 139.110 
	L 120.295, 117.283 
	L 134.823, 117.283 
	L 134.823, 139.110 
	L 120.295, 139.110 
" />
<path d="M 107.540, 117.921 
	L 107.539, 117.921 
	L 107.539, 95.953 
	L 122.067, 95.953 
	L 122.067, 117.921 
	L 107.539, 117.921 
" />
<path d="M 91.950, 96.732 
	L 91.949, 96.732 
	L 91.949, 74.622 
	L 106.476, 74.622 
	L 106.476, 96.732 
	L 91.949, 96.732 
" />
<path d="M 73.524, 75.543 
	L 73.524, 75.543 
	L 73.524, 53.291 
	L 88.051, 53.291 
	L 88.051, 75.543 
	L 73.524, 75.543 
" />
<path d="M 52.264, 54.354 
	L 52.264, 54.354 
	L 52.264, 31.961 
	L 66.791, 31.961 
	L 66.791, 54.354 
	L 52.264, 54.354 
" />
<path d="M 28.170, 33.165 
	L 28.169, 33.165 
	L 28.169, 10.630 
	L 42.697, 10.630 
	L 42.697, 33.165 
	L 28.169, 33.165 
" />
<path d="M 171.142, 223.865 
	L 171.142, 223.866 
	L 171.142, 202.606 
	L 186.024, 202.606 
	L 186.024, 223.866 
	L 171.142, 223.866 
" />
<path d="M 169.725, 202.676 
	L 169.724, 202.677 
	L 169.724, 181.276 
	L 184.606, 181.276 
	L 184.606, 202.677 
	L 169.724, 202.677 
" />
<path d="M 165.473, 181.488 
	L 165.472, 181.488 
	L 165.472, 159.945 
	L 180.354, 159.945 
	L 180.354, 181.488 
	L 165.472, 181.488 
" />
<path d="M 158.387, 160.299 
	L 158.386, 160.299 
	L 158.386, 138.614 
	L 173.268, 138.614 
	L 173.268, 160.299 
	L 158.386, 160.299 
" />
<path d="M 148.465, 139.110 
	L 148.465, 139.110 
	L 148.465, 117.283 
	L 163.346, 117.283 
	L 163.346, 139.110 
	L 148.465, 139.110 
" />
<path d="M 135.709, 117.921 
	L 135.709, 117.921 
	L 135.709, 95.953 
	L 150.591, 95.953 
	L 150.591, 117.921 
	L 135.709, 117.921 
" />
<path d="M 120.119, 96.732 
	L 120.118, 96.732 
	L 120.118, 74.622 
	L 135.000, 74.622 
	L 135.000, 96.732 
	L 120.118, 96.732 
" />
<path d="M 101.694, 75.543 
	L 101.693, 75.543 
	L 101.693, 53.291 
	L 116.575, 53.291 
	L 116.575, 75.543 
	L 101.693, 75.543 
" />
<path d="M 80.434, 54.354 
	L 80.433, 54.354 
	L 80.433, 31.961 
	L 95.315, 31.961 
	L 95.315, 54.354 
	L 80.433, 54.354 
" />
<path d="M 56.339, 33.165 
	L 56.339, 33.165 
	L 56.339, 10.630 
	L 71.220, 10.630 
	L 71.220, 33.165 
	L 56.339, 33.165 
" />
<path d="M 199.312, 223.865 
	L 199.311, 223.866 
	L 199.311, 202.606 
	L 214.547, 202.606 
	L 214.547, 223.866 
	L 199.311, 223.866 
" />
<path d="M 197.894, 202.676 
	L 197.894, 202.677 
	L 197.894, 181.276 
	L 213.130, 181.276 
	L 213.130, 202.677 
	L 197.894, 202.677 
" />
<path d="M 193.642, 181.488 
	L 193.642, 181.488 
	L 193.642, 159.945 
	L 208.878, 159.945 
	L 208.878, 181.488 
	L 193.642, 181.488 
" />
<path d="M 186.556, 160.299 
	L 186.555, 160.299 
	L 186.555, 138.614 
	L 201.791, 138.614 
	L 201.791, 160.299 
	L 186.555, 160.299 
" />
<path d="M 176.635, 139.110 
	L 176.634, 139.110 
	L 176.634, 117.283 
	L 191.870, 117.283 
	L 191.870, 139.110 
	L 176.634, 139.110 
" />
<path d="M 163.879, 117.921 
	L 163.878, 117.921 
	L 163.878, 95.953 
	L 179.114, 95.953 
	L 179.114, 117.921 
	L 163.878, 117.921 
" />
<path d="M 148.288, 96.732 
	L 148.287, 96.732 
	L 148.287, 74.622 
	L 163.524, 74.622 
	L 163.524, 96.732 
	L 148.287, 96.732 
" />
<path d="M 129.863, 75.543 
	L 129.862, 75.543 
	L 129.862, 53.291 
	L 145.098, 53.291 
	L 145.098, 75.543 
	L 129.862, 75.543 
" />
<path d="M 108.603, 54.354 
	L 108.602, 54.354 
	L 108.602, 31.961 
	L 123.839, 31.961 
	L 123.839, 54.354 
	L 108.602, 54.354 
" />
<path d="M 84.509, 33.165 
	L 84.508, 33.165 
	L 84.508, 10.630 
	L 99.744, 10.630 
	L 99.744, 33.165 
	L 84.508, 33.165 
" />
<path d="M 227.481, 223.865 
	L 227.480, 223.866 
	L 227.480, 202.606 
	L 243.071, 202.606 
	L 243.071, 223.866 
	L 227.480, 223.866 
" />
<path d="M 226.064, 202.676 
	L 226.063, 202.677 
	L 226.063, 181.276 
	L 241.654, 181.276 
	L 241.654, 202.677 
	L 226.063, 202.677 
" />
<path d="M 221.812, 181.488 
	L 221.811, 181.488 
	L 221.811, 159.945 
	L 237.402, 159.945 
	L 237.402, 181.488 
	L 221.811, 181.488 
" />
<path d="M 214.725, 160.299 
	L 214.724, 160.299 
	L 214.724, 138.614 
	L 230.315, 138.614 
	L 230.315, 160.299 
	L 214.724, 160.299 
" />
<path d="M 204.804, 139.110 
	L 204.803, 139.110 
	L 204.803, 117.283 
	L 220.394, 117.283 
	L 220.394, 139.110 
	L 204.803, 139.110 
" />
<path d="M 192.048, 117.921 
	L 192.047, 117.921 
	L 192.047, 95.953 
	L 207.638, 95.953 
	L 207.638, 117.921 
	L 192.047, 117.921 
" />
<path d="M 176.457, 96.732 
	L 176.457, 96.732 
	L 176.457, 74.622 
	L 192.047, 74.622 
	L 192.047, 96.732 
	L 176.457, 96.732 
" />
<path d="M 158.032, 75.543 
	L 158.032, 75.543 
	L 158.032, 53.291 
	L 173.622, 53.291 
	L 173.622, 75.543 
	L 158.032, 75.543 
" />
<path d="M 136.772, 54.354 
	L 136.772, 54.354 
	L 136.772, 31.961 
	L 152.362, 31.961 
	L 152.362, 54.354 
	L 136.772, 54.354 
" />
<path d="M 112.678, 33.165 
	L 112.677, 33.165 
	L 112.677, 10.630 
	L 128.268, 10.630 
	L 128.268, 33.165 
	L 112.677, 33.165 
" />
<path d="M 255.650, 223.865 
	L 255.650, 223.866 
	L 255.650, 202.606 
	L 271.595, 202.606 
	L 271.595, 223.866 
	L 255.650, 223.866 
" />
<path d="M 254.233, 202.676 
	L 254.232, 202.677 
	L 254.232, 181.276 
	L 270.177, 181.276 
	L 270.177, 202.677 
	L 254.232, 202.677 
" />
<path d="M 249.981, 181.488 
	L 249.980, 181.488 
	L 249.980, 159.945 
	L 265.925, 159.945 
	L 265.925, 181.488 
	L 249.980, 181.488 
" />
<path d="M 242.894, 160.299 
	L 242.894, 160.299 
	L 242.894, 138.614 
	L 258.839, 138.614 
	L 258.839, 160.299 
	L 242.894, 160.299 
" />
<path d="M 232.973, 139.110 
	L 232.972, 139.110 
	L 232.972, 117.283 
	L 248.917, 117.283 
	L 248.917, 139.110 
	L 232.972, 139.110 
" />
<path d="M 220.217, 117.921 
	L 220.217, 117.921 
	L 220.217, 95.953 
	L 236.161, 95.953 
	L 236.161, 117.921 
	L 220.217, 117.921 
" />
<path d="M 204.627, 96.732 
	L 204.626, 96.732 
	L 204.626, 74.622 
	L 220.571, 74.622 
	L 220.571, 96.732 
	L 204.626, 96.732 
" />
<path d="M 186.202, 75.543 
	L 186.201, 75.543 
	L 186.201, 53.291 
	L 202.146, 53.291 
	L 202.146, 75.543 
	L 186.201, 75.543 
" />
<path d="M 164.942, 54.354 
	L 164.941, 54.354 
	L 164.941, 31.961 
	L 180.886, 31.961 
	L 180.886, 54.354 
	L 164.941, 54.354 
" />
<path d="M 140.847, 33.165 
	L 140.846, 33.165 
	L 140.846, 10.630 
	L 156.791, 10.630 
	L 156.791, 33.165 
	L 140.846, 33.165 
" />
<path d="M 283.820, 223.865 
	L 283.819, 223.866 
	L 283.819, 202.606 
	L 300.118, 202.606 
	L 300.118, 223.866 
	L 283.819, 223.866 
" />
<path d="M 282.402, 202.676 
	L 282.402, 202.677 
	L 282.402, 181.276 
	L 298.701, 181.276 
	L 298.701, 202.677 
	L 282.402, 202.677 
" />
<path d="M 278.150, 181.488 
	L 278.150, 181.488 
	L 278.150, 159.945 
	L 294.449, 159.945 
	L 294.449, 181.488 
	L 278.150, 181.488 
" />
<path d="M 271.064, 160.299 
	L 271.063, 160.299 
	L 271.063, 138.614 
	L 287.362, 138.614 
	L 287.362, 160.299 
	L 271.063, 160.299 
" />
<path d="M 261.142, 139.110 
	L 261.142, 139.110 
	L 261.142, 117.283 
	L 277.441, 117.283 
	L 277.441, 139.110 
	L 261.142, 139.110 
" />
<path d="M 248.387, 117.921 
	L 248.386, 117.921 
	L 248.386, 95.953 
	L 264.685, 95.953 
	L 264.685, 117.921 
	L 248.386, 117.921 
" />
<path d="M 232.796, 96.732 
	L 232.795, 96.732 
	L 232.795, 74.622 
	L 249.095, 74.622 
	L 249.095, 96.732 
	L 232.795, 96.732 
" />
<path d="M 214.371, 75.543 
	L 214.370, 75.543 
	L 214.370, 53.291 
	L 230.669, 53.291 
	L 230.669, 75.543 
	L 214.370, 75.543 
" />
<path d="M 193.111, 54.354 
	L 193.110, 54.354 
	L 193.110, 31.961 
	L 209.409, 31.961 
	L 209.409, 54.354 
	L 193.110, 54.354 
" />
<path d="M 169.016, 33.165 
	L 169.016, 33.165 
	L 169.016, 10.630 
	L 185.315, 10.630 
	L 185.315, 33.165 
	L 169.016, 33.165 
" />
<path d="M 311.989, 223.865 
	L 311.988, 223.866 
	L 311.988, 202.606 
	L 328.642, 202.606 
	L 328.642, 223.866 
	L 311.988, 223.866 
" />
<path d="M 310.572, 202.676 
	L 310.571, 202.677 
	L 310.571, 181.276 
	L 327.224, 181.276 
	L 327.224, 202.677 
	L 310.571, 202.677 
" />
<path d="M 306.320, 181.488 
	L 306.319, 181.488 
	L 306.319, 159.945 
	L 322.972, 159.945 
	L 322.972, 181.488 
	L 306.319, 181.488 
" />
<path d="M 299.233, 160.299 
	L 299.232, 160.299 
	L 299.232, 138.614 
	L 315.886, 138.614 
	L 315.886, 160.299 
	L 299.232, 160.299 
" />
<path d="M 289.312, 139.110 
	L 289.311, 139.110 
	L 289.311, 117.283 
	L 305.965, 117.283 
	L 305.965, 139.110 
	L 289.311, 139.110 
" />
<path d="M 276.556, 117.921 
	L 276.555, 117.921 
	L 276.555, 95.953 
	L 293.209, 95.953 
	L 293.209, 117.921 
	L 276.555, 117.921 
" />
<path d="M 260.965, 96.732 
	L 260.965, 96.732 
	L 260.965, 74.622 
	L 277.618, 74.622 
	L 277.618, 96.732 
	L 260.965, 96.732 
" />
<path d="M 242.540, 75.543 
	L 242.539, 75.543 
	L 242.539, 53.291 
	L 259.193, 53.291 
	L 259.193, 75.543 
	L 242.539, 75.543 
" />
<path d="M 221.280, 54.354 
	L 221.280, 54.354 
	L 221.280, 31.961 
	L 237.933, 31.961 
	L 237.933, 54.354 
	L 221.280, 54.354 
" />
<path d="M 197.186, 33.165 
	L 197.185, 33.165 
	L 197.185, 10.630 
	L 213.839, 10.630 
	L 213.839, 33.165 
	L 197.185, 33.165 
" />
<path d="M 340.158, 223.865 
	L 340.158, 223.866 
	L 340.158, 202.606 
	L 357.165, 202.606 
	L 357.165, 223.866 
	L 340.158, 223.866 
" />
<path d="M 338.741, 202.676 
	L 338.740, 202.677 
	L 338.740, 181.276 
	L 355.748, 181.276 
	L 355.748, 202.677 
	L 338.740, 202.677 
" />
<path d="M 334.489, 181.488 
	L 334.488, 181.488 
	L 334.488, 159.945 
	L 351.496, 159.945 
	L 351.496, 181.488 
	L 334.488, 181.488 
" />
<path d="M 327.402, 160.299 
	L 327.402, 160.299 
	L 327.402, 138.614 
	L 344.410, 138.614 
	L 344.410, 160.299 
	L 327.402, 160.299 
" />
<path d="M 317.481, 139.110 
	L 317.480, 139.110 
	L 317.480, 117.283 
	L 334.488, 117.283 
	L 334.488, 139.110 
	L 317.480, 139.110 
" />
<path d="M 304.725, 117.921 
	L 304.724, 117.921 
	L 304.724, 95.953 
	L 321.732, 95.953 
	L 321.732, 117.921 
	L 304.724, 117.921 
" />
<path d="M 289.135, 96.732 
	L 289.134, 96.732 
	L 289.134, 74.622 
	L 306.142, 74.622 
	L 306.142, 96.732 
	L 289.134, 96.732 
" />
<path d="M 270.709, 75.543 
	L 270.709, 75.543 
	L 270.709, 53.291 
	L 287.717, 53.291 
	L 287.717, 75.543 
	L 270.709, 75.543 
" />
<path d="M 249.450, 54.354 
	L 249.449, 54.354 
	L 249.449, 31.961 
	L 266.457, 31.961 
	L 266.457, 54.354 
	L 249.449, 54.354 
" />
<path d="M 225.355, 33.165 
	L 225.354, 33.165 
	L 225.354, 10.630 
	L 242.362, 10.630 
	L 242.362, 33.165 
	L 225.354, 33.165 
" />
<path d="M 368.328, 223.865 
	L 368.327, 223.866 
	L 368.327, 202.606 
	L 385.689, 202.606 
	L 385.689, 223.866 
	L 368.327, 223.866 
" />
<path d="M 366.910, 202.676 
	L 366.910, 202.677 
	L 366.910, 181.276 
	L 384.272, 181.276 
	L 384.272, 202.677 
	L 366.910, 202.677 
" />
<path d="M 362.658, 181.488 
	L 362.658, 181.488 
	L 362.658, 159.945 
	L 380.020, 159.945 
	L 380.020, 181.488 
	L 362.658, 181.488 
" />
<path d="M 355.572, 160.299 
	L 355.571, 160.299 
	L 355.571, 138.614 
	L 372.933, 138.614 
	L 372.933, 160.299 
	L 355.571, 160.299 
" />
<path d="M 345.650, 139.110 
	L 345.650, 139.110 
	L 345.650, 117.283 
	L 363.012, 117.283 
	L 363.012, 139.110 
	L 345.650, 139.110 
" />
<path d="M 332.894, 117.921 
	L 332.894, 117.921 
	L 332.894, 95.953 
	L 350.256, 95.953 
	L 350.256, 117.921 
	L 332.894, 117.921 
" />
<path d="M 317.304, 96.732 
	L 317.303, 96.732 
	L 317.303, 74.622 
	L 334.665, 74.622 
	L 334.665, 96.732 
	L 317.303, 96.732 
" />
<path d="M 298.879, 75.543 
	L 298.878, 75.543 
	L 298.878, 53.291 
	L 316.240, 53.291 
	L 316.240, 75.543 
	L 298.878, 75.543 
" />
<path d="M 277.619, 54.354 
	L 277.618, 54.354 
	L 277.618, 31.961 
	L 294.980, 31.961 
	L 294.980, 54.354 
	L 277.618, 54.354 
" />
<path d="M 253.524, 33.165 
	L 253.524, 33.165 
	L 253.524, 10.630 
	L 270.886, 10.630 
	L 270.886, 33.165 
	L 253.524, 33.165 
" />
<path d="M 1252.914, 213.236 
	L 1255.040, 213.236 
	L 1255.748, 212.173 
	L 1255.040, 211.110 
	L 1253.622, 211.110 
" />
<path d="M 1255.040, 211.110 
	L 1255.748, 210.047 
	L 1255.040, 208.984 
	L 1252.914, 208.984 
" />
<path d="M 1254.331, 206.858 
	L 1254.331, 203.669 
	L 1253.622, 202.606 
	L 1252.914, 203.669 
	L 1252.914, 205.795 
	L 1253.622, 206.858 
	L 1255.040, 206.858 
	L 1255.748, 205.795 
	L 1255.748, 202.606 
" />
<path d="M 1255.748, 196.228 
	L 1255.748, 199.417 
	L 1255.040, 200.480 
	L 1253.622, 200.480 
	L 1252.914, 199.417 
	L 1252.914, 197.291 
	L 1255.748, 197.291 
" />
<path d="M 1252.914, 194.102 
	L 1254.331, 194.102 
	L 1255.748, 191.976 
	L 1254.331, 189.850 
	L 1252.914, 189.850 
" />
<path d="M 1254.331, 187.724 
	L 1254.331, 184.535 
	L 1253.622, 183.472 
	L 1252.914, 184.535 
	L 1252.914, 186.661 
	L 1253.622, 187.724 
	L 1255.040, 187.724 
	L 1255.748, 186.661 
	L 1255.748, 183.472 
" />
<path d="M 1252.914, 178.158 
	L 1252.914, 180.283 
	L 1253.622, 181.346 
	L 1254.331, 180.283 
	L 1254.331, 179.221 
	L 1255.040, 178.158 
	L 1255.748, 179.221 
	L 1255.748, 181.346 
" />
<path d="M 1255.748, 172.843 
	L 1255.748, 173.906 
	L 1255.040, 173.906 
	L 1255.040, 172.843 
	L 1255.748, 172.843 
" />
<path d="M 1257.166, 168.591 
	L 1252.914, 168.591 
	L 1252.914, 166.465 
	L 1253.622, 165.402 
	L 1255.040, 165.402 
	L 1255.748, 166.465 
	L 1255.748, 168.591 
" />
<path d="M 1257.166, 162.213 
	L 1254.331, 157.961 
	L 1252.914, 157.961 
" />
<path d="M 1252.914, 162.213 
	L 1254.331, 162.213 
	L 1255.748, 160.087 
" />
<path d="M 1252.205, 130.323 
	L 1251.496, 129.260 
	L 1251.496, 127.134 
	L 1252.205, 126.071 
	L 1252.914, 126.071 
	L 1255.040, 130.323 
	L 1255.748, 130.323 
	L 1255.748, 126.071 
" />
<path d="M 1255.040, 123.945 
	L 1255.748, 122.882 
	L 1255.748, 120.756 
	L 1255.040, 119.693 
	L 1252.205, 119.693 
	L 1251.496, 120.756 
	L 1251.496, 122.882 
	L 1252.205, 123.945 
	L 1255.040, 123.945 
" />
<path d="M 1255.748, 116.504 
	L 1255.748, 114.378 
" />
<path d="M 1255.748, 115.441 
	L 1251.496, 115.441 
	L 1252.205, 116.504 
" />
<path d="M 1255.748, 110.126 
	L 1255.748, 109.063 
	L 1254.331, 106.937 
	L 1252.205, 106.937 
	L 1251.496, 108.000 
	L 1251.496, 110.126 
	L 1252.205, 111.189 
	L 1252.914, 111.189 
	L 1253.622, 110.126 
	L 1253.622, 106.937 
" />
<path d="M 1253.622, 104.811 
	L 1253.622, 100.559 
" />
<path d="M 1255.040, 98.433 
	L 1255.748, 97.370 
	L 1255.748, 95.244 
	L 1255.040, 94.181 
	L 1252.205, 94.181 
	L 1251.496, 95.244 
	L 1251.496, 97.370 
	L 1252.205, 98.433 
	L 1255.040, 98.433 
" />
<path d="M 1251.496, 87.803 
	L 1251.496, 89.929 
	L 1252.914, 92.055 
	L 1255.040, 92.055 
	L 1255.748, 90.992 
	L 1255.748, 88.866 
	L 1255.040, 87.803 
	L 1254.331, 87.803 
	L 1253.622, 88.866 
	L 1253.622, 92.055 
" />
<path d="M 1253.622, 85.677 
	L 1253.622, 81.425 
" />
<path d="M 1255.040, 79.299 
	L 1255.748, 78.236 
	L 1255.748, 76.110 
	L 1255.040, 75.047 
	L 1252.205, 75.047 
	L 1251.496, 76.110 
	L 1251.496, 78.236 
	L 1252.205, 79.299 
	L 1255.040, 79.299 
" />
<path d="M 1255.748, 71.858 
	L 1255.748, 70.795 
	L 1254.331, 68.669 
	L 1252.205, 68.669 
	L 1251.496, 69.732 
	L 1251.496, 71.858 
	L 1252.205, 72.921 
	L 1252.914, 72.921 
	L 1253.622, 71.858 
	L 1253.622, 68.669 
" />
<path d="M 1255.040, 60.165 
	L 1255.748, 59.102 
	L 1255.748, 56.976 
	L 1255.040, 55.913 
	L 1252.205, 55.913 
	L 1251.496, 56.976 
	L 1251.496, 59.102 
	L 1252.205, 60.165 
	L 1255.040, 60.165 
" />
<path d="M 1255.040, 53.787 
	L 1255.748, 52.724 
	L 1255.748, 50.598 
	L 1255.040, 49.535 
	L 1252.205, 49.535 
	L 1251.496, 50.598 
	L 1251.496, 52.724 
	L 1252.205, 53.787 
	L 1255.040, 53.787 
" />
<path d="M 1253.622, 46.346 
	L 1252.914, 46.346 
	L 1252.914, 45.283 
	L 1253.622, 45.283 
	L 1253.622, 46.346 
" />
<path d="M 1255.040, 46.346 
	L 1255.040, 45.283 
	L 1255.748, 45.283 
	L 1255.748, 46.346 
	L 1255.040, 46.346 
" />
<path d="M 1255.748, 39.968 
	L 1255.748, 37.843 
" />
<path d="M 1255.748, 38.906 
	L 1251.496, 38.906 
	L 1252.205, 39.968 
" />
<path d="M 1255.748, 33.591 
	L 1255.748, 31.465 
" />
<path d="M 1255.748, 32.528 
	L 1251.496, 32.528 
	L 1252.205, 33.591 
" />
</g>
</svg>
