<?xml version="1.0" encoding="UTF-8" standalone="no" ?>
<svg width="100%" height="100%" viewBox="0 0 1486.772 443.169" xmlns="http://www.w3.org/2000/svg"><g>
</g><g style="stroke:rgb(0,0,0); fill:none; stroke-width:1.000mm" >
</g><g style="stroke:rgb(255,0,0); fill:none; stroke-width:0.100mm" >
<path d="M 344.410, 453.799 
	L 344.410, 453.799 
	L 344.410, 432.539 
	L 358.583, 432.539 
	L 358.583, 453.799 
	L 344.410, 453.799 
" />
<path d="M 340.158, 475.129 
	L 340.158, 475.130 
	L 340.158, 453.728 
	L 354.331, 453.728 
	L 354.331, 475.130 
	L 340.158, 475.130 
" />
<path d="M 327.402, 496.460 
	L 327.402, 496.461 
	L 327.402, 474.917 
	L 341.575, 474.917 
	L 341.575, 496.461 
	L 327.402, 496.461 
" />
<path d="M 306.142, 517.791 
	L 306.142, 517.791 
	L 306.142, 496.106 
	L 320.315, 496.106 
	L 320.315, 517.791 
	L 306.142, 517.791 
" />
<path d="M 276.379, 539.121 
	L 276.378, 539.122 
	L 276.378, 517.295 
	L 290.551, 517.295 
	L 290.551, 539.122 
	L 276.378, 539.122 
" />
<path d="M 238.111, 560.452 
	L 238.110, 560.453 
	L 238.110, 538.484 
	L 252.284, 538.484 
	L 252.284, 560.453 
	L 238.110, 560.453 
" />
<path d="M 191.339, 581.783 
	L 191.339, 581.783 
	L 191.339, 559.673 
	L 205.512, 559.673 
	L 205.512, 581.783 
	L 191.339, 581.783 
" />
<path d="M 136.064, 603.114 
	L 136.063, 603.114 
	L 136.063, 580.862 
	L 150.236, 580.862 
	L 150.236, 603.114 
	L 136.063, 603.114 
" />
<path d="M 72.284, 624.444 
	L 72.283, 624.445 
	L 72.283, 602.051 
	L 86.457, 602.051 
	L 86.457, 624.445 
	L 72.283, 624.445 
" />
<path d="M 0.001, 645.775 
	L 0.000, 645.776 
	L 0.000, 623.240 
	L 14.173, 623.240 
	L 14.173, 645.776 
	L 0.000, 645.776 
" />
<path d="M 388.534, 433.670 
	L 388.534, 433.671 
	L 385.534, 454.718 
	L 371.152, 452.667 
	L 374.151, 431.621 
	L 388.534, 433.671 
" />
<path d="M 384.292, 455.569 
	L 384.292, 455.569 
	L 381.272, 476.756 
	L 366.890, 474.706 
	L 369.909, 453.519 
	L 384.292, 455.569 
" />
<path d="M 371.546, 477.467 
	L 371.546, 477.468 
	L 368.505, 498.795 
	L 354.124, 496.745 
	L 357.164, 475.418 
	L 371.546, 477.468 
" />
<path d="M 350.297, 499.365 
	L 350.296, 499.366 
	L 347.236, 520.834 
	L 332.853, 518.783 
	L 335.914, 497.316 
	L 350.296, 499.366 
" />
<path d="M 320.543, 521.264 
	L 320.542, 521.265 
	L 317.462, 542.872 
	L 303.080, 540.822 
	L 306.160, 519.214 
	L 320.542, 521.265 
" />
<path d="M 282.285, 543.162 
	L 282.285, 543.163 
	L 279.184, 564.911 
	L 264.802, 562.861 
	L 267.902, 541.113 
	L 282.285, 543.163 
" />
<path d="M 235.524, 565.061 
	L 235.523, 565.061 
	L 232.403, 586.950 
	L 218.020, 584.899 
	L 221.141, 563.011 
	L 235.523, 565.061 
" />
<path d="M 180.258, 586.959 
	L 180.257, 586.960 
	L 177.117, 608.988 
	L 162.735, 606.938 
	L 165.875, 584.909 
	L 180.257, 586.960 
" />
<path d="M 116.488, 608.857 
	L 116.488, 608.858 
	L 113.328, 631.027 
	L 98.945, 628.977 
	L 102.105, 606.808 
	L 116.488, 608.858 
" />
<path d="M 44.215, 630.756 
	L 44.214, 630.756 
	L 41.034, 653.066 
	L 26.652, 651.015 
	L 29.832, 628.706 
	L 44.214, 630.756 
" />
<path d="M 398.075, 451.296 
	L 398.074, 451.297 
	L 404.014, 430.884 
	L 418.304, 435.042 
	L 412.364, 455.455 
	L 398.074, 451.297 
" />
<path d="M 393.803, 474.041 
	L 393.803, 474.042 
	L 399.782, 453.493 
	L 414.072, 457.651 
	L 408.092, 478.200 
	L 393.803, 474.042 
" />
<path d="M 381.027, 496.787 
	L 381.027, 496.787 
	L 387.046, 476.102 
	L 401.336, 480.260 
	L 395.316, 500.945 
	L 381.027, 496.787 
" />
<path d="M 359.748, 519.532 
	L 359.747, 519.533 
	L 365.806, 498.711 
	L 380.096, 502.869 
	L 374.037, 523.690 
	L 359.747, 519.533 
" />
<path d="M 329.964, 542.277 
	L 329.963, 542.278 
	L 336.062, 521.321 
	L 350.352, 525.478 
	L 344.253, 546.435 
	L 329.963, 542.278 
" />
<path d="M 291.677, 565.022 
	L 291.676, 565.023 
	L 297.814, 543.929 
	L 312.104, 548.087 
	L 305.965, 569.181 
	L 291.676, 565.023 
" />
<path d="M 244.885, 587.767 
	L 244.884, 587.768 
	L 251.062, 566.538 
	L 265.352, 570.696 
	L 259.174, 591.927 
	L 244.884, 587.768 
" />
<path d="M 189.590, 610.513 
	L 189.589, 610.513 
	L 195.807, 589.147 
	L 210.096, 593.306 
	L 203.878, 614.672 
	L 189.589, 610.513 
" />
<path d="M 125.790, 633.258 
	L 125.790, 633.259 
	L 132.047, 611.756 
	L 146.336, 615.915 
	L 140.079, 637.417 
	L 125.790, 633.259 
" />
<path d="M 53.488, 656.003 
	L 53.487, 656.004 
	L 59.783, 634.365 
	L 74.072, 638.524 
	L 67.776, 660.162 
	L 53.487, 656.004 
" />
<path d="M 447.858, 436.623 
	L 447.857, 436.623 
	L 439.096, 455.994 
	L 425.214, 449.715 
	L 433.975, 430.345 
	L 447.857, 436.623 
" />
<path d="M 443.636, 459.944 
	L 443.635, 459.945 
	L 434.815, 479.444 
	L 420.932, 473.166 
	L 429.752, 453.666 
	L 443.635, 459.945 
" />
<path d="M 430.909, 483.265 
	L 430.908, 483.266 
	L 422.029, 502.895 
	L 408.147, 496.616 
	L 417.026, 476.987 
	L 430.908, 483.266 
" />
<path d="M 409.678, 506.587 
	L 409.677, 506.587 
	L 400.740, 526.346 
	L 386.858, 520.066 
	L 395.795, 500.308 
	L 409.677, 506.587 
" />
<path d="M 379.943, 529.908 
	L 379.942, 529.909 
	L 370.947, 549.796 
	L 357.065, 543.516 
	L 366.061, 523.629 
	L 379.942, 529.909 
" />
<path d="M 341.705, 553.229 
	L 341.704, 553.230 
	L 332.651, 573.246 
	L 318.769, 566.967 
	L 327.822, 546.951 
	L 341.704, 553.230 
" />
<path d="M 294.963, 576.551 
	L 294.962, 576.551 
	L 285.850, 596.697 
	L 271.967, 590.417 
	L 281.079, 570.272 
	L 294.962, 576.551 
" />
<path d="M 239.716, 599.872 
	L 239.715, 599.873 
	L 230.545, 620.147 
	L 216.663, 613.867 
	L 225.833, 593.593 
	L 239.715, 599.873 
" />
<path d="M 175.966, 623.193 
	L 175.965, 623.193 
	L 166.736, 643.597 
	L 152.854, 637.318 
	L 162.083, 616.915 
	L 175.965, 623.193 
" />
<path d="M 103.711, 646.514 
	L 103.710, 646.515 
	L 94.423, 667.048 
	L 80.542, 660.769 
	L 89.829, 640.236 
	L 103.710, 646.515 
" />
<path d="M 452.601, 447.956 
	L 452.600, 447.957 
	L 464.007, 430.017 
	L 477.164, 438.382 
	L 465.756, 456.322 
	L 452.600, 447.957 
" />
<path d="M 448.311, 472.110 
	L 448.310, 472.111 
	L 459.794, 454.052 
	L 472.950, 462.417 
	L 461.466, 480.476 
	L 448.310, 472.111 
" />
<path d="M 435.517, 496.264 
	L 435.516, 496.265 
	L 447.076, 478.086 
	L 460.232, 486.452 
	L 448.672, 504.631 
	L 435.516, 496.265 
" />
<path d="M 414.219, 520.419 
	L 414.218, 520.420 
	L 425.854, 502.121 
	L 439.010, 510.486 
	L 427.375, 528.785 
	L 414.218, 520.420 
" />
<path d="M 384.417, 544.573 
	L 384.416, 544.574 
	L 396.128, 526.155 
	L 409.285, 534.521 
	L 397.573, 552.940 
	L 384.416, 544.574 
" />
<path d="M 346.112, 568.727 
	L 346.111, 568.728 
	L 357.898, 550.190 
	L 371.054, 558.556 
	L 359.267, 577.094 
	L 346.111, 568.728 
" />
<path d="M 299.302, 592.882 
	L 299.301, 592.883 
	L 311.165, 574.225 
	L 324.321, 582.590 
	L 312.457, 601.248 
	L 299.301, 592.883 
" />
<path d="M 243.988, 617.036 
	L 243.987, 617.037 
	L 255.927, 598.259 
	L 269.084, 606.625 
	L 257.144, 625.402 
	L 243.987, 617.037 
" />
<path d="M 180.171, 641.191 
	L 180.170, 641.191 
	L 192.185, 622.294 
	L 205.342, 630.659 
	L 193.326, 649.556 
	L 180.170, 641.191 
" />
<path d="M 107.849, 665.345 
	L 107.848, 665.345 
	L 119.940, 646.328 
	L 133.097, 654.694 
	L 121.005, 673.711 
	L 107.848, 665.345 
" />
<path d="M 506.198, 440.277 
	L 506.198, 440.278 
	L 492.372, 456.429 
	L 480.259, 446.061 
	L 494.084, 429.910 
	L 506.198, 440.278 
" />
<path d="M 501.992, 465.027 
	L 501.992, 465.027 
	L 488.074, 481.286 
	L 475.961, 470.918 
	L 489.879, 454.659 
	L 501.992, 465.027 
" />
<path d="M 489.283, 489.776 
	L 489.282, 489.777 
	L 475.272, 506.143 
	L 463.159, 495.775 
	L 477.169, 479.408 
	L 489.282, 489.777 
" />
<path d="M 468.069, 514.526 
	L 468.068, 514.527 
	L 453.966, 531.000 
	L 441.853, 520.631 
	L 455.955, 504.157 
	L 468.068, 514.527 
" />
<path d="M 438.351, 539.275 
	L 438.350, 539.276 
	L 424.157, 555.857 
	L 412.043, 545.488 
	L 426.237, 528.907 
	L 438.350, 539.276 
" />
<path d="M 400.129, 564.024 
	L 400.129, 564.025 
	L 385.843, 580.714 
	L 373.730, 570.345 
	L 388.016, 553.656 
	L 400.129, 564.025 
" />
<path d="M 353.404, 588.774 
	L 353.403, 588.774 
	L 339.025, 605.571 
	L 326.912, 595.202 
	L 341.290, 578.405 
	L 353.403, 588.774 
" />
<path d="M 298.174, 613.523 
	L 298.174, 613.524 
	L 283.703, 630.428 
	L 271.590, 620.059 
	L 286.060, 603.155 
	L 298.174, 613.524 
" />
<path d="M 234.441, 638.272 
	L 234.440, 638.273 
	L 219.878, 655.285 
	L 207.765, 644.916 
	L 222.327, 627.904 
	L 234.440, 638.273 
" />
<path d="M 162.203, 663.022 
	L 162.203, 663.022 
	L 147.548, 680.142 
	L 135.435, 669.773 
	L 150.090, 652.653 
	L 162.203, 663.022 
" />
<path d="M 508.212, 444.067 
	L 508.211, 444.068 
	L 524.176, 430.030 
	L 534.939, 442.271 
	L 518.973, 456.309 
	L 508.211, 444.068 
" />
<path d="M 503.906, 469.626 
	L 503.905, 469.626 
	L 519.978, 455.495 
	L 530.741, 467.736 
	L 514.668, 481.867 
	L 503.905, 469.626 
" />
<path d="M 491.097, 495.184 
	L 491.096, 495.185 
	L 507.275, 480.960 
	L 518.038, 493.201 
	L 501.859, 507.426 
	L 491.096, 495.185 
" />
<path d="M 469.784, 520.743 
	L 469.783, 520.744 
	L 486.068, 506.425 
	L 496.831, 518.666 
	L 480.546, 532.984 
	L 469.783, 520.744 
" />
<path d="M 439.967, 546.302 
	L 439.966, 546.303 
	L 456.358, 531.890 
	L 467.121, 544.130 
	L 450.729, 558.543 
	L 439.966, 546.303 
" />
<path d="M 401.646, 571.861 
	L 401.645, 571.862 
	L 418.144, 557.355 
	L 428.906, 569.595 
	L 412.408, 584.102 
	L 401.645, 571.862 
" />
<path d="M 354.821, 597.419 
	L 354.820, 597.420 
	L 371.425, 582.820 
	L 382.188, 595.060 
	L 365.583, 609.660 
	L 354.820, 597.420 
" />
<path d="M 299.492, 622.978 
	L 299.492, 622.979 
	L 316.203, 608.285 
	L 326.965, 620.525 
	L 310.254, 635.219 
	L 299.492, 622.979 
" />
<path d="M 235.660, 648.537 
	L 235.659, 648.537 
	L 252.476, 633.750 
	L 263.239, 645.990 
	L 246.421, 660.777 
	L 235.659, 648.537 
" />
<path d="M 163.323, 674.095 
	L 163.322, 674.096 
	L 180.246, 659.215 
	L 191.008, 671.455 
	L 174.085, 686.336 
	L 163.322, 674.096 
" />
<path d="M 563.377, 444.313 
	L 563.376, 444.314 
	L 545.589, 455.959 
	L 536.467, 442.025 
	L 554.254, 430.380 
	L 563.376, 444.314 
" />
<path d="M 559.184, 470.495 
	L 559.183, 470.495 
	L 541.277, 482.217 
	L 532.156, 468.284 
	L 550.062, 456.562 
	L 559.183, 470.495 
" />
<path d="M 546.487, 496.676 
	L 546.486, 496.677 
	L 528.462, 508.477 
	L 519.340, 494.544 
	L 537.365, 482.744 
	L 546.486, 496.677 
" />
<path d="M 525.287, 522.858 
	L 525.286, 522.858 
	L 507.143, 534.736 
	L 498.021, 520.803 
	L 516.164, 508.925 
	L 525.286, 522.858 
" />
<path d="M 495.582, 549.040 
	L 495.581, 549.041 
	L 477.320, 560.996 
	L 468.199, 547.062 
	L 486.460, 535.107 
	L 495.581, 549.041 
" />
<path d="M 457.374, 575.221 
	L 457.373, 575.222 
	L 438.993, 587.255 
	L 429.871, 573.321 
	L 448.251, 561.288 
	L 457.373, 575.222 
" />
<path d="M 410.662, 601.403 
	L 410.661, 601.404 
	L 392.162, 613.514 
	L 383.040, 599.581 
	L 401.539, 587.470 
	L 410.661, 601.404 
" />
<path d="M 355.445, 627.584 
	L 355.444, 627.585 
	L 336.827, 639.773 
	L 327.706, 625.840 
	L 346.323, 613.652 
	L 355.444, 627.585 
" />
<path d="M 291.725, 653.767 
	L 291.724, 653.767 
	L 272.988, 666.033 
	L 263.867, 652.099 
	L 282.602, 639.834 
	L 291.724, 653.767 
" />
<path d="M 219.501, 679.948 
	L 219.500, 679.949 
	L 200.645, 692.292 
	L 191.524, 678.358 
	L 210.378, 666.015 
	L 219.500, 679.949 
" />
<path d="M 565.035, 439.977 
	L 565.034, 439.977 
	L 584.287, 430.959 
	L 591.501, 446.361 
	L 572.248, 455.380 
	L 565.034, 439.977 
" />
<path d="M 560.719, 466.936 
	L 560.719, 466.936 
	L 580.099, 457.858 
	L 587.313, 473.260 
	L 567.933, 482.338 
	L 560.719, 466.936 
" />
<path d="M 547.899, 493.895 
	L 547.898, 493.896 
	L 567.408, 484.758 
	L 574.622, 500.159 
	L 555.112, 509.297 
	L 547.898, 493.896 
" />
<path d="M 526.575, 520.854 
	L 526.574, 520.855 
	L 546.211, 511.656 
	L 553.426, 527.059 
	L 533.789, 536.257 
	L 526.574, 520.855 
" />
<path d="M 496.747, 547.813 
	L 496.746, 547.814 
	L 516.512, 538.556 
	L 523.726, 553.958 
	L 503.960, 563.216 
	L 496.746, 547.814 
" />
<path d="M 458.415, 574.773 
	L 458.414, 574.773 
	L 478.308, 565.455 
	L 485.523, 580.857 
	L 465.629, 590.175 
	L 458.414, 574.773 
" />
<path d="M 411.579, 601.732 
	L 411.579, 601.732 
	L 431.601, 592.354 
	L 438.815, 607.756 
	L 418.793, 617.134 
	L 411.579, 601.732 
" />
<path d="M 356.239, 628.691 
	L 356.238, 628.692 
	L 376.389, 619.253 
	L 383.604, 634.655 
	L 363.453, 644.094 
	L 356.238, 628.692 
" />
<path d="M 292.396, 655.650 
	L 292.395, 655.651 
	L 312.674, 646.152 
	L 319.888, 661.554 
	L 299.609, 671.053 
	L 292.395, 655.651 
" />
<path d="M 220.048, 682.610 
	L 220.047, 682.610 
	L 240.455, 673.051 
	L 247.669, 688.453 
	L 227.261, 698.012 
	L 220.047, 682.610 
" />
<path d="M 619.317, 448.366 
	L 619.316, 448.367 
	L 598.984, 454.577 
	L 593.912, 437.972 
	L 614.244, 431.761 
	L 619.316, 448.367 
" />
<path d="M 615.133, 475.982 
	L 615.132, 475.983 
	L 594.664, 482.236 
	L 589.592, 465.631 
	L 610.060, 459.379 
	L 615.132, 475.983 
" />
<path d="M 602.445, 503.600 
	L 602.444, 503.600 
	L 581.841, 509.894 
	L 576.768, 493.289 
	L 597.372, 486.996 
	L 602.444, 503.600 
" />
<path d="M 581.253, 531.217 
	L 581.252, 531.218 
	L 560.513, 537.552 
	L 555.441, 520.948 
	L 576.180, 514.613 
	L 581.252, 531.218 
" />
<path d="M 551.557, 558.834 
	L 551.556, 558.835 
	L 530.682, 565.211 
	L 525.609, 548.606 
	L 546.484, 542.230 
	L 551.556, 558.835 
" />
<path d="M 513.357, 586.451 
	L 513.357, 586.451 
	L 492.346, 592.870 
	L 487.274, 576.265 
	L 508.284, 569.847 
	L 513.357, 586.451 
" />
<path d="M 466.653, 614.068 
	L 466.652, 614.069 
	L 445.506, 620.528 
	L 440.435, 603.923 
	L 461.580, 597.464 
	L 466.652, 614.069 
" />
<path d="M 411.445, 641.685 
	L 411.445, 641.686 
	L 390.164, 648.187 
	L 385.091, 631.582 
	L 406.372, 625.081 
	L 411.445, 641.686 
" />
<path d="M 347.733, 669.302 
	L 347.732, 669.303 
	L 326.316, 675.845 
	L 321.244, 659.240 
	L 342.661, 652.699 
	L 347.732, 669.303 
" />
<path d="M 275.518, 696.920 
	L 275.517, 696.920 
	L 253.964, 703.504 
	L 248.893, 686.899 
	L 270.445, 680.315 
	L 275.517, 696.920 
" />
<path d="M 1482.520, 443.169 
	L 1484.646, 443.169 
	L 1485.355, 442.106 
	L 1484.646, 441.043 
	L 1483.229, 441.043 
" />
<path d="M 1484.646, 441.043 
	L 1485.355, 439.980 
	L 1484.646, 438.917 
	L 1482.520, 438.917 
" />
<path d="M 1483.937, 436.791 
	L 1483.937, 433.602 
	L 1483.229, 432.539 
	L 1482.520, 433.602 
	L 1482.520, 435.728 
	L 1483.229, 436.791 
	L 1484.646, 436.791 
	L 1485.355, 435.728 
	L 1485.355, 432.539 
" />
<path d="M 1485.355, 426.161 
	L 1485.355, 429.350 
	L 1484.646, 430.413 
	L 1483.229, 430.413 
	L 1482.520, 429.350 
	L 1482.520, 427.224 
	L 1485.355, 427.224 
" />
<path d="M 1482.520, 424.035 
	L 1483.937, 424.035 
	L 1485.355, 421.909 
	L 1483.937, 419.783 
	L 1482.520, 419.783 
" />
<path d="M 1483.937, 417.657 
	L 1483.937, 414.469 
	L 1483.229, 413.406 
	L 1482.520, 414.469 
	L 1482.520, 416.594 
	L 1483.229, 417.657 
	L 1484.646, 417.657 
	L 1485.355, 416.594 
	L 1485.355, 413.406 
" />
<path d="M 1482.520, 408.091 
	L 1482.520, 410.217 
	L 1483.229, 411.280 
	L 1483.937, 410.217 
	L 1483.937, 409.154 
	L 1484.646, 408.091 
	L 1485.355, 409.154 
	L 1485.355, 411.280 
" />
<path d="M 1485.355, 402.776 
	L 1485.355, 403.839 
	L 1484.646, 403.839 
	L 1484.646, 402.776 
	L 1485.355, 402.776 
" />
<path d="M 1486.772, 398.524 
	L 1482.520, 398.524 
	L 1482.520, 396.398 
	L 1483.229, 395.335 
	L 1484.646, 395.335 
	L 1485.355, 396.398 
	L 1485.355, 398.524 
" />
<path d="M 1486.772, 392.146 
	L 1483.937, 387.894 
	L 1482.520, 387.894 
" />
<path d="M 1482.520, 392.146 
	L 1483.937, 392.146 
	L 1485.355, 390.020 
" />
<path d="M 1481.811, 360.256 
	L 1481.103, 359.193 
	L 1481.103, 357.067 
	L 1481.811, 356.004 
	L 1482.520, 356.004 
	L 1484.646, 360.256 
	L 1485.355, 360.256 
	L 1485.355, 356.004 
" />
<path d="M 1484.646, 353.878 
	L 1485.355, 352.815 
	L 1485.355, 350.689 
	L 1484.646, 349.626 
	L 1481.811, 349.626 
	L 1481.103, 350.689 
	L 1481.103, 352.815 
	L 1481.811, 353.878 
	L 1484.646, 353.878 
" />
<path d="M 1485.355, 346.437 
	L 1485.355, 344.311 
" />
<path d="M 1485.355, 345.374 
	L 1481.103, 345.374 
	L 1481.811, 346.437 
" />
<path d="M 1485.355, 340.059 
	L 1485.355, 338.996 
	L 1483.937, 336.870 
	L 1481.811, 336.870 
	L 1481.103, 337.933 
	L 1481.103, 340.059 
	L 1481.811, 341.122 
	L 1482.520, 341.122 
	L 1483.229, 340.059 
	L 1483.229, 336.870 
" />
<path d="M 1483.229, 334.744 
	L 1483.229, 330.492 
" />
<path d="M 1484.646, 328.366 
	L 1485.355, 327.303 
	L 1485.355, 325.177 
	L 1484.646, 324.114 
	L 1481.811, 324.114 
	L 1481.103, 325.177 
	L 1481.103, 327.303 
	L 1481.811, 328.366 
	L 1484.646, 328.366 
" />
<path d="M 1481.103, 317.736 
	L 1481.103, 319.862 
	L 1482.520, 321.988 
	L 1484.646, 321.988 
	L 1485.355, 320.925 
	L 1485.355, 318.799 
	L 1484.646, 317.736 
	L 1483.937, 317.736 
	L 1483.229, 318.799 
	L 1483.229, 321.988 
" />
<path d="M 1483.229, 315.610 
	L 1483.229, 311.358 
" />
<path d="M 1484.646, 309.232 
	L 1485.355, 308.169 
	L 1485.355, 306.043 
	L 1484.646, 304.980 
	L 1481.811, 304.980 
	L 1481.103, 306.043 
	L 1481.103, 308.169 
	L 1481.811, 309.232 
	L 1484.646, 309.232 
" />
<path d="M 1485.355, 301.791 
	L 1485.355, 300.728 
	L 1483.937, 298.602 
	L 1481.811, 298.602 
	L 1481.103, 299.665 
	L 1481.103, 301.791 
	L 1481.811, 302.854 
	L 1482.520, 302.854 
	L 1483.229, 301.791 
	L 1483.229, 298.602 
" />
<path d="M 1484.646, 290.098 
	L 1485.355, 289.035 
	L 1485.355, 286.909 
	L 1484.646, 285.846 
	L 1481.811, 285.846 
	L 1481.103, 286.909 
	L 1481.103, 289.035 
	L 1481.811, 290.098 
	L 1484.646, 290.098 
" />
<path d="M 1484.646, 283.720 
	L 1485.355, 282.657 
	L 1485.355, 280.531 
	L 1484.646, 279.468 
	L 1481.811, 279.468 
	L 1481.103, 280.531 
	L 1481.103, 282.657 
	L 1481.811, 283.720 
	L 1484.646, 283.720 
" />
<path d="M 1483.229, 276.279 
	L 1482.520, 276.279 
	L 1482.520, 275.217 
	L 1483.229, 275.217 
	L 1483.229, 276.279 
" />
<path d="M 1484.646, 276.279 
	L 1484.646, 275.217 
	L 1485.355, 275.217 
	L 1485.355, 276.279 
	L 1484.646, 276.279 
" />
<path d="M 1485.355, 269.902 
	L 1485.355, 267.776 
" />
<path d="M 1485.355, 268.839 
	L 1481.103, 268.839 
	L 1481.811, 269.902 
" />
<path d="M 1481.103, 261.398 
	L 1483.229, 264.587 
	L 1483.937, 264.587 
	L 1483.937, 260.335 
" />
<path d="M 1483.229, 261.398 
	L 1485.355, 261.398 
" />
</g>
</svg>
