<?xml version="1.0" encoding="UTF-8" standalone="no" ?>
<svg width="100%" height="100%" viewBox="0 0 1106.433 662.183" xmlns="http://www.w3.org/2000/svg"><g>
</g><g style="stroke:rgb(0,0,0); fill:none; stroke-width:1.000mm" >
</g><g style="stroke:rgb(255,0,0); fill:none; stroke-width:0.100mm" >
<path d="M 639.780, 317.205 
	L 639.780, 317.206 
	L 637.265, 277.238 
	L 629.761, 237.900 
	L 617.385, 199.812 
	L 600.334, 163.576 
	L 578.876, 129.763 
	L 553.348, 98.906 
	L 524.155, 71.491 
	L 491.756, 47.952 
	L 456.662, 28.659 
" />
<path d="M 456.662, 28.659 
" />
<path d="M 300.859, -1.063 
	L 300.858, -1.062 
	L 261.126, 3.957 
	L 222.337, 13.917 
	L 185.102, 28.659 
	L 150.008, 47.952 
	L 117.609, 71.491 
	L 88.415, 98.906 
	L 62.888, 129.763 
	L 41.430, 163.576 
	L 24.379, 199.812 
	L 12.003, 237.900 
" />
<path d="M 12.003, 237.900 
	L 4.499, 277.238 
	L 1.984, 317.206 
	L 4.499, 357.175 
	L 12.003, 396.512 
	L 24.379, 434.600 
	L 41.430, 470.836 
	L 62.888, 504.649 
	L 88.415, 535.506 
	L 117.609, 562.921 
	L 150.008, 586.461 
	L 185.102, 605.753 
" />
<path d="M 185.102, 605.753 
	L 222.337, 620.496 
	L 261.126, 630.455 
	L 300.858, 635.475 
	L 340.906, 635.475 
	L 380.638, 630.455 
	L 419.427, 620.496 
" />
<path d="M 623.765, 315.079 
	L 623.764, 315.080 
	L 621.305, 275.991 
	L 613.965, 237.519 
" />
<path d="M 601.863, 200.268 
	L 601.863, 200.268 
	L 585.186, 164.830 
	L 564.199, 131.761 
	L 539.234, 101.582 
	L 510.683, 74.771 
	L 478.996, 51.749 
	L 444.674, 32.881 
" />
<path d="M 331.466, 3.813 
	L 331.465, 3.813 
	L 292.299, 3.813 
	L 253.441, 8.722 
	L 215.505, 18.463 
	L 179.089, 32.881 
	L 144.768, 51.749 
	L 113.081, 74.771 
	L 84.530, 101.582 
	L 59.564, 131.761 
	L 38.577, 164.830 
	L 21.901, 200.268 
" />
<path d="M 21.901, 200.268 
	L 9.799, 237.519 
	L 2.459, 275.991 
	L 0.000, 315.080 
	L 2.459, 354.169 
	L 9.799, 392.642 
	L 21.901, 429.892 
	L 38.577, 465.331 
	L 59.564, 498.400 
" />
<path d="M 370.324, 621.437 
	L 370.323, 621.438 
	L 408.258, 611.697 
" />
<path d="M 408.259, 611.697 
	L 408.258, 611.697 
	L 444.674, 597.279 
	L 478.996, 578.411 
	L 510.683, 555.389 
	L 539.234, 528.578 
	L 564.199, 498.400 
	L 585.186, 465.331 
	L 601.863, 429.892 
	L 613.965, 392.642 
	L 621.305, 354.169 
" />
<path d="M 621.305, 354.169 
	L 623.764, 315.080 
	L 621.305, 275.991 
	L 613.965, 237.519 
	L 601.863, 200.268 
" />
<path d="M 613.785, 314.371 
	L 613.784, 314.371 
	L 611.379, 276.142 
	L 604.201, 238.516 
	L 592.364, 202.086 
	L 576.055, 167.427 
	L 555.530, 135.085 
	L 531.114, 105.571 
	L 503.191, 79.349 
	L 472.202, 56.834 
	L 438.635, 38.380 
" />
<path d="M 438.635, 38.380 
	L 403.020, 24.279 
" />
<path d="M 214.508, 24.279 
	L 214.508, 24.279 
	L 178.892, 38.380 
	L 145.326, 56.834 
	L 114.336, 79.349 
	L 86.413, 105.571 
	L 61.997, 135.085 
	L 41.472, 167.427 
	L 25.163, 202.086 
	L 13.326, 238.516 
	L 6.148, 276.142 
	L 3.743, 314.371 
" />
<path d="M 3.743, 314.371 
	L 6.148, 352.601 
	L 13.326, 390.227 
	L 25.163, 426.657 
	L 41.472, 461.316 
	L 61.997, 493.658 
	L 86.413, 523.172 
" />
<path d="M 365.919, 613.989 
	L 365.919, 613.989 
	L 403.020, 604.464 
	L 438.635, 590.363 
	L 472.202, 571.909 
	L 503.191, 549.394 
	L 531.114, 523.172 
	L 555.530, 493.658 
	L 576.055, 461.316 
	L 592.364, 426.657 
	L 604.201, 390.227 
" />
<path d="M 604.201, 390.227 
	L 611.379, 352.601 
	L 613.784, 314.371 
	L 611.379, 276.142 
	L 604.201, 238.516 
	L 592.364, 202.086 
	L 576.055, 167.427 
	L 555.530, 135.085 
	L 531.114, 105.571 
	L 503.191, 79.349 
	L 472.202, 56.834 
" />
<path d="M 472.202, 56.834 
" />
<path d="M 613.524, 315.788 
	L 613.523, 315.789 
	L 611.170, 278.401 
	L 604.151, 241.602 
	L 592.574, 205.973 
	L 576.624, 172.076 
	L 556.551, 140.447 
	L 532.671, 111.582 
	L 505.363, 85.937 
	L 475.056, 63.917 
	L 442.227, 45.870 
" />
<path d="M 442.227, 45.870 
	L 407.395, 32.079 
	L 371.110, 22.763 
	L 333.944, 18.067 
	L 296.481, 18.067 
	L 259.315, 22.763 
	L 223.030, 32.079 
	L 188.199, 45.870 
	L 155.370, 63.917 
	L 125.062, 85.937 
	L 97.754, 111.582 
	L 73.874, 140.447 
" />
<path d="M 73.874, 140.447 
	L 53.802, 172.076 
	L 37.851, 205.973 
	L 26.274, 241.602 
	L 19.255, 278.401 
	L 16.902, 315.789 
	L 19.255, 353.177 
	L 26.274, 389.976 
" />
<path d="M 407.396, 599.498 
	L 407.395, 599.499 
	L 442.227, 585.708 
	L 475.056, 567.661 
	L 505.363, 545.640 
	L 532.671, 519.996 
	L 556.551, 491.131 
	L 576.624, 459.501 
	L 592.574, 425.604 
	L 604.151, 389.976 
	L 611.170, 353.177 
" />
<path d="M 611.170, 353.177 
	L 613.523, 315.789 
	L 611.170, 278.401 
	L 604.151, 241.602 
	L 592.574, 205.973 
	L 576.624, 172.076 
	L 556.551, 140.447 
	L 532.671, 111.582 
	L 505.363, 85.937 
	L 475.056, 63.917 
	L 442.227, 45.870 
" />
<path d="M 442.227, 45.870 
	L 407.395, 32.079 
	L 371.110, 22.763 
	L 333.944, 18.067 
	L 296.481, 18.067 
	L 259.315, 22.763 
	L 223.030, 32.079 
	L 188.199, 45.870 
	L 155.370, 63.917 
	L 125.062, 85.937 
	L 97.754, 111.582 
	L 73.874, 140.447 
" />
<path d="M 73.874, 140.447 
	L 53.802, 172.076 
	L 37.851, 205.973 
	L 26.274, 241.602 
	L 19.255, 278.401 
	L 16.902, 315.789 
	L 19.255, 353.177 
	L 26.274, 389.976 
	L 37.851, 425.604 
	L 53.802, 459.501 
	L 73.874, 491.131 
	L 97.754, 519.996 
" />
<path d="M 97.754, 519.996 
" />
<path d="M 604.197, 321.174 
	L 604.196, 321.175 
	L 601.895, 284.609 
	L 595.030, 248.620 
	L 583.709, 213.776 
	L 568.109, 180.624 
	L 548.477, 149.690 
	L 525.123, 121.460 
	L 498.416, 96.379 
	L 468.775, 74.845 
	L 436.669, 57.194 
" />
<path d="M 436.669, 57.194 
	L 402.604, 43.707 
	L 367.117, 34.595 
	L 330.768, 30.003 
	L 294.130, 30.003 
	L 257.781, 34.595 
" />
<path d="M 56.789, 180.624 
	L 56.789, 180.624 
	L 41.189, 213.776 
	L 29.867, 248.620 
	L 23.002, 284.609 
	L 20.701, 321.175 
	L 23.002, 357.740 
	L 29.867, 393.730 
	L 41.189, 428.574 
	L 56.789, 461.725 
	L 76.421, 492.659 
	L 99.775, 520.890 
" />
<path d="M 99.775, 520.890 
	L 126.482, 545.970 
	L 156.123, 567.505 
	L 188.229, 585.155 
	L 222.294, 598.643 
	L 257.781, 607.754 
	L 294.130, 612.346 
	L 330.768, 612.346 
	L 367.117, 607.754 
	L 402.604, 598.643 
	L 436.669, 585.155 
" />
<path d="M 436.669, 585.155 
	L 468.775, 567.505 
	L 498.416, 545.970 
	L 525.123, 520.890 
	L 548.477, 492.659 
	L 568.109, 461.725 
	L 583.709, 428.574 
	L 595.030, 393.730 
	L 601.895, 357.740 
	L 604.196, 321.175 
	L 601.895, 284.609 
" />
<path d="M 601.895, 284.609 
	L 595.030, 248.620 
	L 583.709, 213.776 
	L 568.109, 180.624 
	L 548.477, 149.690 
	L 525.123, 121.460 
	L 498.416, 96.379 
	L 468.775, 74.845 
	L 436.669, 57.194 
	L 402.604, 43.707 
	L 367.117, 34.595 
" />
<path d="M 367.117, 34.595 
	L 330.768, 30.003 
	L 294.130, 30.003 
	L 257.781, 34.595 
	L 222.294, 43.707 
	L 188.229, 57.194 
	L 156.123, 74.845 
	L 126.482, 96.379 
	L 99.775, 121.460 
	L 76.421, 149.690 
" />
<path d="M 606.779, 319.686 
	L 606.778, 319.686 
	L 604.528, 283.925 
	L 597.813, 248.728 
	L 586.741, 214.650 
	L 571.485, 182.228 
	L 552.285, 151.975 
	L 529.445, 124.365 
	L 503.324, 99.837 
	L 474.335, 78.776 
	L 442.936, 61.513 
" />
<path d="M 442.936, 61.513 
	L 409.621, 48.323 
	L 374.914, 39.411 
	L 339.365, 34.921 
	L 303.533, 34.921 
	L 267.984, 39.411 
	L 233.277, 48.323 
	L 199.962, 61.513 
	L 168.562, 78.776 
	L 139.574, 99.837 
	L 113.453, 124.365 
	L 90.613, 151.975 
" />
<path d="M 90.613, 151.975 
	L 71.413, 182.228 
	L 56.157, 214.650 
	L 45.084, 248.728 
	L 38.370, 283.925 
	L 36.120, 319.686 
	L 38.370, 355.448 
	L 45.084, 390.645 
	L 56.157, 424.723 
	L 71.413, 457.145 
	L 90.613, 487.398 
	L 113.453, 515.008 
" />
<path d="M 113.453, 515.008 
	L 139.574, 539.536 
	L 168.562, 560.597 
	L 199.962, 577.860 
	L 233.277, 591.050 
	L 267.984, 599.961 
	L 303.533, 604.452 
	L 339.365, 604.452 
	L 374.914, 599.961 
" />
<path d="M 596.037, 319.119 
	L 596.036, 319.119 
	L 593.836, 284.145 
	L 587.269, 249.722 
	L 576.440, 216.394 
	L 561.519, 184.686 
	L 542.742, 155.097 
	L 520.404, 128.096 
	L 494.858, 104.107 
	L 466.508, 83.509 
	L 435.798, 66.626 
" />
<path d="M 435.798, 66.626 
	L 403.216, 53.726 
	L 369.274, 45.011 
	L 334.506, 40.618 
	L 299.463, 40.618 
	L 264.695, 45.011 
	L 230.753, 53.726 
	L 198.170, 66.626 
	L 167.461, 83.509 
	L 139.110, 104.107 
	L 113.564, 128.096 
	L 91.227, 155.097 
" />
<path d="M 91.227, 155.097 
	L 72.449, 184.686 
	L 57.528, 216.394 
	L 46.699, 249.722 
	L 40.133, 284.145 
	L 37.933, 319.119 
	L 40.133, 354.094 
	L 46.699, 388.517 
" />
<path d="M 403.216, 584.513 
	L 403.216, 584.513 
	L 435.798, 571.613 
	L 466.508, 554.730 
	L 494.858, 534.132 
	L 520.404, 510.143 
	L 542.742, 483.142 
	L 561.519, 453.553 
	L 576.440, 421.845 
	L 587.269, 388.517 
	L 593.836, 354.094 
" />
<path d="M 593.836, 354.094 
	L 596.036, 319.119 
	L 593.836, 284.145 
	L 587.269, 249.722 
	L 576.440, 216.394 
	L 561.519, 184.686 
	L 542.742, 155.097 
	L 520.404, 128.096 
	L 494.858, 104.107 
	L 466.508, 83.509 
	L 435.798, 66.626 
" />
<path d="M 435.798, 66.626 
	L 403.216, 53.726 
	L 369.274, 45.011 
	L 334.506, 40.618 
	L 299.463, 40.618 
	L 264.695, 45.011 
	L 230.753, 53.726 
	L 198.170, 66.626 
	L 167.461, 83.509 
	L 139.110, 104.107 
	L 113.564, 128.096 
	L 91.227, 155.097 
" />
<path d="M 91.227, 155.097 
	L 72.449, 184.686 
	L 57.528, 216.394 
	L 46.699, 249.722 
	L 40.133, 284.145 
	L 37.933, 319.119 
	L 40.133, 354.094 
	L 46.699, 388.517 
	L 57.528, 421.845 
	L 72.449, 453.553 
	L 91.227, 483.142 
" />
<path d="M 591.953, 313.095 
	L 591.952, 313.096 
	L 589.800, 278.891 
	L 583.378, 245.225 
	L 572.787, 212.630 
	L 558.194, 181.619 
	L 539.830, 152.682 
	L 517.984, 126.274 
	L 493.000, 102.813 
	L 465.273, 82.668 
	L 435.240, 66.157 
" />
<path d="M 435.240, 66.157 
	L 403.374, 53.541 
	L 370.178, 45.018 
	L 336.176, 40.722 
	L 301.903, 40.722 
	L 267.901, 45.018 
	L 234.705, 53.541 
	L 202.839, 66.157 
	L 172.806, 82.668 
	L 145.079, 102.813 
	L 120.095, 126.274 
	L 98.249, 152.682 
" />
<path d="M 98.249, 152.682 
	L 79.885, 181.619 
	L 65.292, 212.630 
	L 54.701, 245.225 
	L 48.279, 278.891 
" />
<path d="M 267.902, 581.173 
	L 267.901, 581.174 
	L 301.903, 585.470 
	L 336.176, 585.470 
	L 370.178, 581.174 
" />
<path d="M 403.374, 572.650 
	L 403.374, 572.651 
	L 435.240, 560.035 
	L 465.273, 543.524 
	L 493.000, 523.378 
	L 517.984, 499.917 
	L 539.830, 473.510 
	L 558.194, 444.572 
	L 572.787, 413.561 
	L 583.378, 380.967 
	L 589.800, 347.301 
" />
<path d="M 589.800, 347.301 
	L 591.952, 313.096 
	L 589.800, 278.891 
	L 583.378, 245.225 
	L 572.787, 212.630 
	L 558.194, 181.619 
	L 539.830, 152.682 
	L 517.984, 126.274 
	L 493.000, 102.813 
	L 465.273, 82.668 
	L 435.240, 66.157 
" />
<path d="M 435.240, 66.157 
	L 403.374, 53.541 
" />
<path d="M 574.681, 322.591 
	L 574.680, 322.592 
	L 572.575, 289.140 
	L 566.295, 256.214 
	L 555.937, 224.337 
	L 541.665, 194.008 
	L 523.705, 165.707 
	L 502.340, 139.881 
	L 477.906, 116.936 
	L 450.788, 97.234 
	L 421.416, 81.086 
" />
<path d="M 421.416, 81.086 
	L 390.251, 68.747 
	L 357.785, 60.411 
	L 324.531, 56.210 
	L 291.013, 56.210 
	L 257.758, 60.411 
	L 225.293, 68.747 
	L 194.128, 81.086 
	L 164.755, 97.234 
	L 137.638, 116.936 
	L 113.204, 139.881 
	L 91.838, 165.707 
" />
<path d="M 91.838, 165.707 
	L 73.878, 194.008 
	L 59.606, 224.337 
	L 49.248, 256.214 
	L 42.968, 289.140 
	L 40.864, 322.592 
	L 42.968, 356.044 
	L 49.248, 388.969 
	L 59.606, 420.847 
	L 73.878, 451.176 
	L 91.838, 479.477 
	L 113.204, 505.303 
" />
<path d="M 113.204, 505.303 
	L 137.638, 528.248 
	L 164.755, 547.950 
	L 194.128, 564.098 
	L 225.293, 576.437 
	L 257.758, 584.773 
	L 291.013, 588.974 
	L 324.531, 588.974 
	L 357.785, 584.773 
	L 390.251, 576.437 
	L 421.416, 564.098 
" />
<path d="M 421.416, 564.098 
	L 450.788, 547.950 
" />
<path d="M 581.281, 317.205 
	L 581.280, 317.206 
	L 579.222, 284.489 
	L 573.080, 252.289 
	L 562.949, 221.112 
	L 548.992, 191.451 
	L 531.427, 163.773 
	L 510.532, 138.514 
	L 486.635, 116.074 
	L 460.114, 96.806 
" />
<path d="M 336.635, 56.684 
	L 336.635, 56.685 
	L 303.854, 56.685 
	L 271.331, 60.793 
	L 239.579, 68.946 
	L 209.100, 81.013 
	L 180.374, 96.806 
	L 153.853, 116.074 
	L 129.956, 138.514 
	L 109.062, 163.773 
	L 91.496, 191.451 
" />
<path d="M 91.496, 191.451 
	L 77.539, 221.112 
	L 67.409, 252.289 
	L 61.266, 284.489 
	L 59.208, 317.206 
	L 61.266, 349.923 
	L 67.409, 382.123 
" />
<path d="M 209.101, 553.398 
	L 209.100, 553.399 
	L 239.579, 565.467 
	L 271.331, 573.619 
	L 303.854, 577.727 
	L 336.635, 577.727 
" />
<path d="M 400.910, 565.466 
	L 400.909, 565.467 
	L 431.388, 553.399 
	L 460.114, 537.606 
	L 486.635, 518.338 
	L 510.532, 495.898 
" />
<path d="M 548.993, 442.961 
	L 548.992, 442.962 
	L 562.949, 413.300 
	L 573.080, 382.123 
	L 579.222, 349.923 
	L 581.280, 317.206 
	L 579.222, 284.489 
	L 573.080, 252.289 
	L 562.949, 221.112 
	L 548.992, 191.451 
	L 531.427, 163.773 
" />
<path d="M 531.427, 163.773 
	L 510.532, 138.514 
	L 486.635, 116.074 
	L 460.114, 96.806 
	L 431.388, 81.013 
	L 400.909, 68.946 
	L 369.157, 60.793 
	L 336.635, 56.685 
	L 303.854, 56.685 
	L 271.331, 60.793 
	L 239.579, 68.946 
" />
<path d="M 239.579, 68.946 
	L 209.100, 81.013 
	L 180.374, 96.806 
	L 153.853, 116.074 
	L 129.956, 138.514 
	L 109.062, 163.773 
	L 91.496, 191.451 
" />
<path d="M 570.507, 324.150 
	L 570.507, 324.151 
	L 568.493, 292.154 
" />
<path d="M 568.494, 292.154 
	L 568.493, 292.154 
	L 562.486, 260.662 
" />
<path d="M 562.487, 260.661 
	L 562.486, 260.662 
	L 552.579, 230.171 
	L 538.928, 201.162 
	L 521.749, 174.093 
	L 501.314, 149.391 
	L 477.943, 127.444 
	L 452.006, 108.600 
	L 423.911, 93.154 
	L 394.103, 81.352 
	L 363.050, 73.379 
" />
<path d="M 363.050, 73.379 
	L 331.243, 69.361 
	L 299.183, 69.361 
	L 267.375, 73.379 
	L 236.322, 81.352 
	L 206.514, 93.154 
	L 178.420, 108.600 
	L 152.483, 127.444 
	L 129.112, 149.391 
	L 108.676, 174.093 
	L 91.497, 201.162 
" />
<path d="M 91.497, 201.162 
	L 77.846, 230.171 
" />
<path d="M 152.483, 520.858 
	L 152.483, 520.858 
	L 178.420, 539.702 
	L 206.514, 555.148 
	L 236.322, 566.950 
" />
<path d="M 267.376, 574.922 
	L 267.375, 574.923 
	L 299.183, 578.941 
	L 331.243, 578.941 
	L 363.050, 574.923 
	L 394.103, 566.950 
	L 423.911, 555.148 
	L 452.006, 539.702 
	L 477.943, 520.858 
	L 501.314, 498.911 
	L 521.749, 474.209 
" />
<path d="M 521.749, 474.209 
	L 538.928, 447.140 
	L 552.579, 418.131 
	L 562.486, 387.640 
	L 568.493, 356.148 
	L 570.507, 324.151 
	L 568.493, 292.154 
	L 562.486, 260.662 
	L 552.579, 230.171 
	L 538.928, 201.162 
	L 521.749, 174.093 
" />
<path d="M 521.749, 174.093 
	L 501.314, 149.391 
	L 477.943, 127.444 
	L 452.006, 108.600 
	L 423.911, 93.154 
" />
<path d="M 558.016, 317.135 
	L 558.016, 317.135 
	L 556.047, 285.842 
	L 550.171, 255.043 
	L 540.483, 225.223 
	L 527.132, 196.853 
	L 510.332, 170.379 
	L 490.346, 146.220 
	L 467.489, 124.756 
	L 442.123, 106.326 
	L 414.646, 91.220 
" />
<path d="M 414.646, 91.220 
	L 385.493, 79.678 
	L 355.124, 71.880 
	L 324.016, 67.951 
	L 292.662, 67.951 
" />
<path d="M 126.332, 146.219 
	L 126.332, 146.220 
	L 106.345, 170.379 
	L 89.545, 196.853 
	L 76.195, 225.223 
	L 66.506, 255.043 
	L 60.630, 285.842 
	L 58.662, 317.135 
	L 60.630, 348.428 
	L 66.506, 379.227 
	L 76.195, 409.047 
" />
<path d="M 76.195, 409.047 
	L 89.545, 437.418 
	L 106.345, 463.892 
	L 126.332, 488.051 
	L 149.188, 509.515 
	L 174.555, 527.944 
	L 202.032, 543.050 
	L 231.184, 554.592 
	L 261.554, 562.390 
	L 292.662, 566.320 
	L 324.016, 566.320 
" />
<path d="M 324.016, 566.320 
	L 355.124, 562.390 
	L 385.493, 554.592 
	L 414.646, 543.050 
" />
<path d="M 552.382, 323.867 
	L 552.381, 323.868 
	L 550.456, 293.263 
	L 544.710, 263.142 
	L 535.234, 233.977 
	L 522.177, 206.231 
	L 505.746, 180.339 
	L 486.199, 156.712 
	L 463.846, 135.720 
	L 439.037, 117.696 
	L 412.165, 102.923 
" />
<path d="M 412.165, 102.923 
	L 383.654, 91.634 
	L 353.952, 84.008 
	L 323.529, 80.165 
	L 292.864, 80.165 
	L 262.441, 84.008 
	L 232.740, 91.634 
	L 204.228, 102.923 
	L 177.357, 117.696 
	L 152.548, 135.720 
	L 130.195, 156.712 
" />
<path d="M 130.195, 156.712 
	L 110.648, 180.339 
	L 94.217, 206.231 
	L 81.160, 233.977 
" />
<path d="M 177.357, 530.038 
	L 177.357, 530.039 
	L 204.228, 544.812 
	L 232.740, 556.101 
	L 262.441, 563.727 
	L 292.864, 567.570 
" />
<path d="M 353.953, 563.726 
	L 353.952, 563.727 
	L 383.654, 556.101 
	L 412.165, 544.812 
	L 439.037, 530.039 
	L 463.846, 512.015 
	L 486.199, 491.023 
	L 505.746, 467.396 
	L 522.177, 441.504 
	L 535.234, 413.758 
	L 544.710, 384.593 
" />
<path d="M 544.710, 384.593 
	L 550.456, 354.472 
	L 552.381, 323.868 
	L 550.456, 293.263 
	L 544.710, 263.142 
	L 535.234, 233.977 
	L 522.177, 206.231 
	L 505.746, 180.339 
	L 486.199, 156.712 
	L 463.846, 135.720 
" />
<path d="M 551.828, 315.505 
	L 551.828, 315.505 
	L 549.945, 285.574 
	L 544.325, 256.115 
	L 535.058, 227.593 
	L 522.288, 200.457 
	L 506.219, 175.135 
	L 487.102, 152.027 
	L 465.241, 131.497 
	L 440.978, 113.870 
	L 414.697, 99.422 
" />
<path d="M 414.697, 99.422 
	L 386.813, 88.381 
	L 357.765, 80.923 
	L 328.011, 77.164 
	L 298.021, 77.164 
	L 268.267, 80.923 
	L 239.219, 88.381 
	L 211.334, 99.422 
	L 185.053, 113.870 
	L 160.791, 131.497 
	L 138.930, 152.027 
	L 119.813, 175.135 
" />
<path d="M 119.813, 175.135 
	L 103.743, 200.457 
	L 90.974, 227.593 
	L 81.707, 256.115 
	L 76.087, 285.574 
	L 74.204, 315.505 
	L 76.087, 345.436 
	L 81.707, 374.895 
	L 90.974, 403.418 
	L 103.743, 430.554 
	L 119.813, 455.876 
" />
<path d="M 119.813, 455.876 
	L 138.930, 478.984 
	L 160.791, 499.514 
	L 185.053, 517.141 
	L 211.334, 531.589 
	L 239.219, 542.629 
	L 268.267, 550.087 
	L 298.021, 553.847 
	L 328.011, 553.847 
	L 357.765, 550.087 
	L 386.813, 542.629 
" />
<path d="M 386.813, 542.629 
" />
<path d="M 554.087, 321.245 
	L 554.086, 321.245 
	L 552.244, 291.973 
	L 546.748, 263.162 
	L 537.685, 235.267 
	L 525.196, 208.728 
	L 509.480, 183.964 
	L 490.784, 161.364 
	L 469.403, 141.286 
	L 445.674, 124.046 
	L 419.972, 109.916 
" />
<path d="M 419.972, 109.916 
	L 392.701, 99.118 
	L 364.292, 91.824 
	L 335.193, 88.148 
	L 305.863, 88.148 
	L 276.763, 91.824 
	L 248.354, 99.118 
	L 221.083, 109.916 
	L 195.381, 124.046 
	L 171.652, 141.286 
	L 150.271, 161.364 
" />
<path d="M 150.271, 161.364 
	L 131.575, 183.964 
	L 115.859, 208.728 
	L 103.370, 235.267 
	L 94.307, 263.162 
" />
<path d="M 221.084, 532.575 
	L 221.083, 532.575 
	L 248.354, 543.373 
	L 276.763, 550.667 
	L 305.863, 554.343 
	L 335.193, 554.343 
" />
<path d="M 392.702, 543.372 
	L 392.701, 543.373 
	L 419.972, 532.575 
	L 445.674, 518.445 
	L 469.403, 501.205 
	L 490.784, 481.127 
	L 509.480, 458.527 
	L 525.196, 433.763 
	L 537.685, 407.224 
	L 546.748, 379.329 
	L 552.244, 350.518 
" />
<path d="M 552.244, 350.518 
	L 554.086, 321.245 
	L 552.244, 291.973 
	L 546.748, 263.162 
	L 537.685, 235.267 
	L 525.196, 208.728 
	L 509.480, 183.964 
	L 490.784, 161.364 
	L 469.403, 141.286 
" />
<path d="M 536.263, 311.536 
	L 536.263, 311.537 
" />
<path d="M 536.263, 311.536 
	L 536.263, 311.537 
	L 534.461, 282.908 
	L 529.087, 254.731 
	L 520.222, 227.450 
	L 508.008, 201.494 
	L 492.638, 177.275 
	L 474.354, 155.173 
	L 453.443, 135.536 
	L 430.236, 118.675 
	L 405.099, 104.856 
" />
<path d="M 405.099, 104.856 
	L 378.428, 94.297 
	L 350.644, 87.163 
	L 322.185, 83.567 
	L 293.500, 83.567 
	L 265.041, 87.163 
	L 237.257, 94.297 
	L 210.586, 104.856 
	L 185.449, 118.675 
	L 162.242, 135.536 
	L 141.331, 155.173 
" />
<path d="M 141.331, 155.173 
	L 123.047, 177.275 
	L 107.677, 201.494 
	L 95.463, 227.450 
	L 86.598, 254.731 
	L 81.224, 282.908 
	L 79.423, 311.537 
	L 81.224, 340.165 
	L 86.598, 368.342 
	L 95.463, 395.624 
	L 107.677, 421.579 
" />
<path d="M 107.677, 421.579 
	L 123.047, 445.798 
	L 141.331, 467.901 
	L 162.242, 487.537 
	L 185.449, 504.398 
	L 210.586, 518.217 
	L 237.257, 528.777 
	L 265.041, 535.911 
	L 293.500, 539.506 
	L 322.185, 539.506 
	L 350.644, 535.911 
" />
<path d="M 350.644, 535.911 
	L 378.428, 528.777 
	L 405.099, 518.217 
	L 430.236, 504.398 
	L 453.443, 487.537 
	L 474.354, 467.901 
	L 492.638, 445.798 
	L 508.008, 421.579 
" />
<path d="M 534.852, 313.804 
	L 534.852, 313.805 
	L 533.090, 285.806 
	L 527.833, 258.248 
	L 519.164, 231.567 
	L 507.219, 206.183 
	L 492.187, 182.497 
	L 474.304, 160.880 
	L 453.854, 141.676 
	L 431.157, 125.186 
	L 406.573, 111.671 
" />
<path d="M 406.573, 111.671 
	L 380.490, 101.344 
	L 353.317, 94.367 
	L 325.484, 90.850 
	L 297.429, 90.850 
	L 269.597, 94.367 
	L 242.424, 101.344 
	L 216.340, 111.671 
	L 191.756, 125.186 
	L 169.060, 141.676 
	L 148.609, 160.880 
" />
<path d="M 148.609, 160.880 
	L 130.727, 182.497 
	L 115.695, 206.183 
" />
<path d="M 148.610, 466.728 
	L 148.609, 466.729 
	L 169.060, 485.933 
	L 191.756, 502.423 
	L 216.340, 515.938 
	L 242.424, 526.266 
	L 269.597, 533.242 
	L 297.429, 536.759 
	L 325.484, 536.759 
	L 353.317, 533.242 
	L 380.490, 526.266 
" />
<path d="M 380.490, 526.266 
	L 406.573, 515.938 
	L 431.157, 502.423 
	L 453.854, 485.933 
	L 474.304, 466.729 
	L 492.187, 445.112 
	L 507.219, 421.426 
	L 519.164, 396.042 
	L 527.833, 369.361 
	L 533.090, 341.803 
	L 534.852, 313.805 
" />
<path d="M 534.852, 313.805 
	L 533.090, 285.806 
	L 527.833, 258.248 
	L 519.164, 231.567 
	L 507.219, 206.183 
	L 492.187, 182.497 
	L 474.304, 160.880 
	L 453.854, 141.676 
	L 431.157, 125.186 
	L 406.573, 111.671 
	L 380.490, 101.344 
" />
<path d="M 380.490, 101.344 
	L 353.317, 94.367 
	L 325.484, 90.850 
	L 297.429, 90.850 
	L 269.597, 94.367 
	L 242.424, 101.344 
	L 216.340, 111.671 
	L 191.756, 125.186 
	L 169.060, 141.676 
	L 148.609, 160.880 
" />
<path d="M 540.072, 325.284 
	L 540.071, 325.285 
	L 538.348, 297.902 
	L 533.207, 270.951 
	L 524.728, 244.857 
	L 513.046, 220.032 
	L 498.345, 196.865 
	L 480.856, 175.725 
	L 460.855, 156.943 
	L 438.658, 140.816 
	L 414.615, 127.598 
" />
<path d="M 414.615, 127.598 
	L 389.105, 117.498 
	L 362.530, 110.674 
	L 335.309, 107.236 
	L 307.872, 107.236 
	L 280.651, 110.674 
	L 254.076, 117.498 
	L 228.566, 127.598 
	L 204.523, 140.816 
" />
<path d="M 103.111, 325.284 
	L 103.110, 325.285 
	L 104.833, 352.668 
	L 109.974, 379.619 
	L 118.453, 405.713 
	L 130.135, 430.538 
	L 144.836, 453.704 
	L 162.325, 474.845 
	L 182.326, 493.627 
	L 204.523, 509.754 
	L 228.566, 522.972 
" />
<path d="M 228.566, 522.972 
	L 254.076, 533.071 
	L 280.651, 539.895 
	L 307.872, 543.334 
	L 335.309, 543.334 
" />
<path d="M 480.857, 474.844 
	L 480.856, 474.845 
	L 498.345, 453.704 
	L 513.046, 430.538 
	L 524.728, 405.713 
	L 533.207, 379.619 
	L 538.348, 352.668 
	L 540.071, 325.285 
	L 538.348, 297.902 
	L 533.207, 270.951 
	L 524.728, 244.857 
" />
<path d="M 524.728, 244.857 
	L 513.046, 220.032 
	L 498.345, 196.865 
	L 480.856, 175.725 
" />
<path d="M 524.847, 317.276 
	L 524.847, 317.277 
	L 523.162, 290.497 
	L 518.134, 264.139 
	L 509.842, 238.618 
	L 498.417, 214.339 
	L 484.038, 191.683 
	L 466.934, 171.007 
	L 447.374, 152.639 
	L 425.665, 136.867 
	L 402.151, 123.939 
" />
<path d="M 402.151, 123.939 
	L 377.202, 114.061 
	L 351.212, 107.388 
	L 324.590, 104.025 
	L 297.757, 104.025 
	L 271.135, 107.388 
	L 245.144, 114.061 
	L 220.195, 123.939 
	L 196.681, 136.867 
	L 174.973, 152.639 
	L 155.412, 171.007 
" />
<path d="M 155.412, 171.007 
	L 138.308, 191.683 
	L 123.930, 214.339 
	L 112.505, 238.618 
	L 104.213, 264.139 
	L 99.184, 290.497 
	L 97.500, 317.277 
	L 99.184, 344.057 
" />
<path d="M 351.213, 527.165 
	L 351.212, 527.165 
	L 377.202, 520.493 
	L 402.151, 510.615 
	L 425.665, 497.687 
	L 447.374, 481.915 
	L 466.934, 463.547 
	L 484.038, 442.871 
	L 498.417, 420.215 
	L 509.842, 395.936 
	L 518.134, 370.415 
" />
<path d="M 518.134, 370.415 
	L 523.162, 344.057 
	L 524.847, 317.277 
	L 523.162, 290.497 
	L 518.134, 264.139 
	L 509.842, 238.618 
	L 498.417, 214.339 
	L 484.038, 191.683 
	L 466.934, 171.007 
	L 447.374, 152.639 
	L 425.665, 136.867 
" />
<path d="M 425.665, 136.867 
	L 402.151, 123.939 
	L 377.202, 114.061 
	L 351.212, 107.388 
	L 324.590, 104.025 
	L 297.757, 104.025 
	L 271.135, 107.388 
	L 245.144, 114.061 
	L 220.195, 123.939 
	L 196.681, 136.867 
	L 174.973, 152.639 
" />
<path d="M 174.973, 152.639 
	L 155.412, 171.007 
	L 138.308, 191.683 
	L 123.930, 214.339 
	L 112.505, 238.618 
	L 104.213, 264.139 
	L 99.184, 290.497 
	L 97.500, 317.277 
	L 99.184, 344.057 
	L 104.213, 370.415 
	L 112.505, 395.936 
" />
<path d="M 112.505, 395.936 
	L 123.930, 420.215 
	L 138.308, 442.871 
	L 155.412, 463.547 
	L 174.973, 481.915 
	L 196.681, 497.687 
" />
<path d="M 518.942, 311.607 
	L 518.941, 311.608 
	L 517.293, 285.416 
	L 512.376, 259.638 
	L 504.267, 234.680 
	L 493.093, 210.935 
	L 479.031, 188.777 
	L 462.303, 168.556 
	L 443.173, 150.591 
	L 421.942, 135.166 
" />
<path d="M 323.091, 103.046 
	L 323.090, 103.047 
	L 296.847, 103.047 
	L 270.811, 106.337 
	L 245.392, 112.863 
	L 220.993, 122.523 
	L 197.995, 135.166 
	L 176.764, 150.591 
	L 157.634, 168.556 
	L 140.906, 188.777 
	L 126.844, 210.935 
" />
<path d="M 126.844, 210.935 
	L 115.671, 234.680 
	L 107.561, 259.638 
	L 102.644, 285.416 
	L 100.996, 311.608 
	L 102.644, 337.799 
	L 107.561, 363.577 
	L 115.671, 388.536 
	L 126.844, 412.281 
	L 140.906, 434.439 
	L 157.634, 454.660 
" />
<path d="M 157.634, 454.660 
	L 176.764, 472.624 
	L 197.995, 488.050 
" />
<path d="M 443.174, 472.623 
	L 443.173, 472.624 
	L 462.303, 454.660 
	L 479.031, 434.439 
	L 493.093, 412.281 
	L 504.267, 388.536 
	L 512.376, 363.577 
" />
<path d="M 517.392, 310.048 
	L 517.391, 310.049 
	L 515.779, 284.433 
	L 510.970, 259.223 
	L 503.039, 234.813 
	L 492.112, 211.590 
	L 478.359, 189.920 
	L 461.999, 170.144 
	L 443.290, 152.575 
	L 422.525, 137.489 
	L 400.034, 125.124 
" />
<path d="M 400.034, 125.124 
" />
<path d="M 300.183, 106.076 
	L 300.183, 106.077 
	L 274.720, 109.293 
	L 249.861, 115.676 
	L 225.997, 125.124 
	L 203.506, 137.489 
	L 182.742, 152.575 
	L 164.032, 170.144 
	L 147.673, 189.920 
	L 133.920, 211.590 
	L 122.992, 234.813 
" />
<path d="M 122.992, 234.813 
	L 115.061, 259.223 
	L 110.252, 284.433 
	L 108.641, 310.049 
	L 110.252, 335.664 
	L 115.061, 360.875 
	L 122.992, 385.284 
	L 133.920, 408.507 
	L 147.673, 430.177 
	L 164.032, 449.953 
	L 182.742, 467.522 
" />
<path d="M 182.742, 467.522 
	L 203.506, 482.608 
	L 225.997, 494.973 
	L 249.861, 504.421 
	L 274.720, 510.804 
	L 300.183, 514.021 
" />
<path d="M 515.780, 335.663 
	L 515.779, 335.664 
	L 517.391, 310.049 
	L 515.779, 284.433 
	L 510.970, 259.223 
	L 503.039, 234.813 
	L 492.112, 211.590 
	L 478.359, 189.920 
	L 461.999, 170.144 
	L 443.290, 152.575 
	L 422.525, 137.489 
" />
<path d="M 422.525, 137.489 
	L 400.034, 125.124 
	L 376.171, 115.676 
	L 351.312, 109.293 
	L 325.849, 106.077 
	L 300.183, 106.077 
	L 274.720, 109.293 
	L 249.861, 115.676 
	L 225.997, 125.124 
	L 203.506, 137.489 
	L 182.742, 152.575 
" />
<path d="M 182.742, 152.575 
	L 164.032, 170.144 
	L 147.673, 189.920 
	L 133.920, 211.590 
	L 122.992, 234.813 
	L 115.061, 259.223 
	L 110.252, 284.433 
	L 108.641, 310.049 
	L 110.252, 335.664 
	L 115.061, 360.875 
	L 122.992, 385.284 
" />
<path d="M 122.992, 385.284 
	L 133.920, 408.507 
	L 147.673, 430.177 
	L 164.032, 449.953 
	L 182.742, 467.522 
	L 203.506, 482.608 
	L 225.997, 494.973 
	L 249.861, 504.421 
	L 274.720, 510.804 
	L 300.183, 514.021 
	L 325.849, 514.021 
" />
<path d="M 325.849, 514.021 
	L 351.312, 510.804 
	L 376.171, 504.421 
	L 400.034, 494.973 
	L 422.525, 482.608 
	L 443.290, 467.522 
	L 461.999, 449.953 
	L 478.359, 430.177 
	L 492.112, 408.507 
	L 503.039, 385.284 
" />
<path d="M 516.439, 322.520 
	L 516.439, 322.521 
	L 514.862, 297.470 
	L 510.158, 272.813 
	L 502.402, 248.941 
	L 491.715, 226.229 
	L 478.264, 205.035 
	L 462.265, 185.694 
	L 443.967, 168.512 
	L 423.660, 153.758 
	L 401.664, 141.665 
" />
<path d="M 401.664, 141.665 
	L 378.325, 132.425 
	L 354.013, 126.182 
	L 329.110, 123.036 
	L 304.009, 123.036 
	L 279.106, 126.182 
	L 254.793, 132.425 
	L 231.455, 141.665 
	L 209.458, 153.758 
	L 189.152, 168.512 
	L 170.853, 185.694 
" />
<path d="M 170.853, 185.694 
	L 154.854, 205.035 
	L 141.403, 226.229 
	L 130.716, 248.941 
	L 122.960, 272.813 
	L 118.256, 297.470 
	L 116.680, 322.521 
	L 118.256, 347.572 
	L 122.960, 372.229 
	L 130.716, 396.101 
	L 141.403, 418.813 
" />
<path d="M 141.403, 418.813 
	L 154.854, 440.007 
	L 170.853, 459.348 
	L 189.152, 476.530 
	L 209.458, 491.285 
	L 231.455, 503.377 
	L 254.793, 512.617 
	L 279.106, 518.860 
	L 304.009, 522.006 
" />
<path d="M 510.199, 310.969 
	L 510.198, 310.970 
	L 508.657, 286.469 
	L 504.057, 262.356 
	L 496.471, 239.008 
	L 486.018, 216.796 
	L 472.864, 196.069 
	L 457.216, 177.153 
	L 439.321, 160.349 
	L 419.461, 145.919 
	L 397.949, 134.093 
" />
<path d="M 397.949, 134.093 
	L 375.124, 125.055 
	L 351.346, 118.951 
	L 326.991, 115.874 
	L 302.442, 115.874 
	L 278.087, 118.951 
	L 254.310, 125.055 
	L 231.484, 134.093 
	L 209.972, 145.919 
	L 190.112, 160.349 
	L 172.217, 177.153 
" />
<path d="M 172.217, 177.153 
	L 156.569, 196.069 
	L 143.415, 216.796 
	L 132.963, 239.008 
	L 125.376, 262.356 
	L 120.776, 286.469 
" />
<path d="M 278.088, 502.988 
	L 278.087, 502.989 
	L 302.442, 506.066 
	L 326.991, 506.066 
	L 351.346, 502.989 
	L 375.124, 496.884 
	L 397.949, 487.847 
	L 419.461, 476.021 
	L 439.321, 461.591 
	L 457.216, 444.786 
	L 472.864, 425.871 
" />
<path d="M 472.864, 425.871 
	L 486.018, 405.144 
	L 496.471, 382.932 
	L 504.057, 359.584 
	L 508.657, 335.470 
	L 510.198, 310.970 
	L 508.657, 286.469 
	L 504.057, 262.356 
	L 496.471, 239.008 
	L 486.018, 216.796 
	L 472.864, 196.069 
" />
<path d="M 472.864, 196.069 
	L 457.216, 177.153 
	L 439.321, 160.349 
	L 419.461, 145.919 
	L 397.949, 134.093 
	L 375.124, 125.055 
	L 351.346, 118.951 
	L 326.991, 115.874 
	L 302.442, 115.874 
	L 278.087, 118.951 
	L 254.310, 125.055 
" />
<path d="M 254.310, 125.055 
	L 231.484, 134.093 
	L 209.972, 145.919 
	L 190.112, 160.349 
	L 172.217, 177.153 
	L 156.569, 196.069 
	L 143.415, 216.796 
	L 132.963, 239.008 
" />
<path d="M 499.591, 318.268 
	L 499.591, 318.269 
	L 498.083, 294.308 
	L 493.584, 270.724 
	L 486.165, 247.890 
	L 475.943, 226.167 
	L 463.078, 205.896 
	L 447.775, 187.396 
	L 430.273, 170.962 
	L 410.849, 156.849 
	L 389.811, 145.283 
" />
<path d="M 389.811, 145.283 
	L 367.488, 136.445 
	L 344.233, 130.474 
	L 320.414, 127.466 
	L 296.405, 127.466 
	L 272.586, 130.474 
	L 249.331, 136.445 
	L 227.008, 145.283 
	L 205.970, 156.849 
	L 186.546, 170.962 
	L 169.044, 187.396 
" />
<path d="M 169.044, 187.396 
" />
<path d="M 130.655, 388.647 
	L 130.654, 388.648 
	L 140.876, 410.371 
	L 153.741, 430.642 
	L 169.044, 449.142 
	L 186.546, 465.576 
	L 205.970, 479.689 
	L 227.008, 491.255 
	L 249.331, 500.093 
	L 272.586, 506.064 
" />
<path d="M 367.488, 500.093 
	L 367.488, 500.093 
	L 389.811, 491.255 
	L 410.849, 479.689 
	L 430.273, 465.576 
	L 447.775, 449.142 
	L 463.078, 430.642 
	L 475.943, 410.371 
	L 486.165, 388.648 
	L 493.584, 365.814 
	L 498.083, 342.230 
" />
<path d="M 498.083, 342.230 
	L 499.591, 318.269 
	L 498.083, 294.308 
	L 493.584, 270.724 
	L 486.165, 247.890 
	L 475.943, 226.167 
	L 463.078, 205.896 
	L 447.775, 187.396 
	L 430.273, 170.962 
	L 410.849, 156.849 
	L 389.811, 145.283 
" />
<path d="M 389.811, 145.283 
	L 367.488, 136.445 
	L 344.233, 130.474 
	L 320.414, 127.466 
	L 296.405, 127.466 
	L 272.586, 130.474 
" />
<path d="M 506.653, 322.520 
	L 506.653, 322.521 
	L 505.178, 299.087 
	L 500.779, 276.022 
	L 493.523, 253.691 
	L 483.525, 232.445 
	L 470.943, 212.620 
	L 455.976, 194.528 
	L 438.860, 178.454 
	L 419.864, 164.653 
	L 399.288, 153.341 
" />
<path d="M 399.288, 153.341 
	L 377.456, 144.697 
	L 354.713, 138.858 
	L 331.418, 135.915 
	L 307.937, 135.915 
	L 284.642, 138.858 
	L 261.899, 144.697 
	L 240.067, 153.341 
" />
<path d="M 134.177, 299.086 
	L 134.177, 299.087 
	L 132.702, 322.521 
	L 134.177, 345.955 
	L 138.576, 369.020 
	L 145.832, 391.351 
	L 155.830, 412.597 
	L 168.411, 432.422 
	L 183.378, 450.515 
	L 200.495, 466.588 
	L 219.491, 480.390 
" />
<path d="M 219.491, 480.390 
	L 240.067, 491.701 
	L 261.899, 500.345 
	L 284.642, 506.184 
	L 307.937, 509.127 
	L 331.418, 509.127 
	L 354.713, 506.184 
	L 377.456, 500.345 
	L 399.288, 491.701 
	L 419.864, 480.390 
	L 438.860, 466.588 
" />
<path d="M 438.860, 466.588 
	L 455.976, 450.515 
" />
<path d="M 501.831, 311.324 
	L 501.830, 311.324 
	L 500.388, 288.405 
	L 496.085, 265.849 
	L 488.989, 244.008 
	L 479.212, 223.230 
	L 466.907, 203.841 
	L 452.269, 186.147 
	L 435.529, 170.427 
" />
<path d="M 375.476, 137.412 
	L 375.476, 137.412 
	L 353.234, 131.701 
	L 330.450, 128.823 
	L 307.487, 128.823 
	L 284.703, 131.701 
	L 262.461, 137.412 
	L 241.110, 145.866 
	L 220.986, 156.929 
	L 202.408, 170.427 
	L 185.668, 186.147 
" />
<path d="M 185.668, 186.147 
	L 171.030, 203.841 
	L 158.725, 223.230 
	L 148.948, 244.008 
	L 141.852, 265.849 
	L 137.549, 288.405 
	L 136.107, 311.324 
	L 137.549, 334.243 
	L 141.852, 356.800 
" />
<path d="M 262.462, 485.235 
	L 262.461, 485.236 
	L 284.703, 490.947 
	L 307.487, 493.825 
	L 330.450, 493.825 
	L 353.234, 490.947 
	L 375.476, 485.236 
	L 396.827, 476.782 
	L 416.951, 465.720 
	L 435.529, 452.222 
	L 452.269, 436.501 
" />
<path d="M 452.269, 436.501 
	L 466.907, 418.808 
" />
<path d="M 497.879, 310.615 
	L 497.878, 310.616 
	L 496.468, 288.201 
	L 492.260, 266.140 
	L 485.320, 244.781 
	L 475.757, 224.459 
	L 463.723, 205.497 
	L 449.407, 188.192 
	L 433.035, 172.818 
" />
<path d="M 374.304, 140.529 
	L 374.304, 140.530 
	L 352.551, 134.945 
	L 330.269, 132.130 
	L 307.810, 132.130 
	L 285.528, 134.945 
	L 263.775, 140.530 
	L 242.894, 148.798 
	L 223.213, 159.617 
" />
<path d="M 174.356, 205.496 
	L 174.356, 205.497 
	L 162.322, 224.459 
	L 152.759, 244.781 
	L 145.819, 266.140 
	L 141.611, 288.201 
	L 140.201, 310.616 
" />
<path d="M 145.820, 355.090 
	L 145.819, 355.091 
	L 152.759, 376.450 
	L 162.322, 396.772 
	L 174.356, 415.734 
	L 188.672, 433.039 
	L 205.043, 448.413 
	L 223.213, 461.614 
	L 242.894, 472.433 
	L 263.775, 480.701 
	L 285.528, 486.286 
" />
<path d="M 285.528, 486.286 
	L 307.810, 489.101 
	L 330.269, 489.101 
	L 352.551, 486.286 
	L 374.304, 480.701 
	L 395.185, 472.433 
	L 414.866, 461.614 
	L 433.035, 448.413 
	L 449.407, 433.039 
	L 463.723, 415.734 
	L 475.757, 396.772 
" />
<path d="M 475.757, 396.772 
" />
<path d="M 498.054, 320.890 
	L 498.054, 320.891 
	L 496.675, 298.970 
	L 492.559, 277.394 
	L 485.772, 256.504 
	L 476.420, 236.631 
	L 464.650, 218.085 
	L 450.649, 201.161 
	L 434.638, 186.125 
	L 416.868, 173.215 
	L 397.620, 162.633 
" />
<path d="M 397.620, 162.633 
	L 377.198, 154.547 
	L 355.923, 149.085 
	L 334.132, 146.332 
" />
<path d="M 211.662, 186.124 
	L 211.662, 186.125 
	L 195.650, 201.161 
	L 181.649, 218.085 
	L 169.880, 236.631 
	L 160.527, 256.504 
	L 153.741, 277.394 
	L 149.625, 298.970 
	L 148.246, 320.891 
	L 149.625, 342.812 
	L 153.741, 364.388 
" />
<path d="M 153.741, 364.388 
	L 160.527, 385.278 
	L 169.880, 405.152 
	L 181.649, 423.697 
" />
<path d="M 290.377, 492.697 
	L 290.376, 492.698 
	L 312.168, 495.450 
	L 334.132, 495.450 
	L 355.923, 492.698 
	L 377.198, 487.235 
	L 397.620, 479.149 
	L 416.868, 468.568 
	L 434.638, 455.657 
	L 450.649, 440.622 
	L 464.650, 423.697 
" />
<path d="M 464.650, 423.697 
	L 476.420, 405.152 
	L 485.772, 385.278 
	L 492.559, 364.388 
	L 496.675, 342.812 
	L 498.054, 320.891 
	L 496.675, 298.970 
	L 492.559, 277.394 
	L 485.772, 256.504 
	L 476.420, 236.631 
	L 464.650, 218.085 
" />
<path d="M 464.650, 218.085 
	L 450.649, 201.161 
" />
<path d="M 481.026, 316.284 
	L 481.025, 316.285 
	L 479.676, 294.846 
	L 475.651, 273.745 
	L 469.013, 253.315 
	L 459.866, 233.878 
	L 448.356, 215.741 
	L 434.663, 199.188 
	L 419.004, 184.484 
	L 401.625, 171.858 
	L 382.801, 161.508 
" />
<path d="M 382.801, 161.508 
	L 362.828, 153.600 
	L 342.021, 148.258 
	L 320.709, 145.566 
" />
<path d="M 200.934, 184.483 
	L 200.933, 184.484 
	L 185.274, 199.188 
	L 171.581, 215.741 
	L 160.071, 233.878 
	L 150.924, 253.315 
	L 144.286, 273.745 
	L 140.261, 294.846 
	L 138.912, 316.285 
	L 140.261, 337.724 
	L 144.286, 358.825 
" />
<path d="M 144.286, 358.825 
	L 150.924, 379.255 
	L 160.071, 398.692 
	L 171.581, 416.829 
	L 185.274, 433.381 
	L 200.933, 448.086 
	L 218.312, 460.712 
	L 237.137, 471.062 
	L 257.109, 478.969 
	L 277.916, 484.311 
	L 299.228, 487.004 
" />
<path d="M 299.228, 487.004 
	L 320.709, 487.004 
	L 342.021, 484.311 
	L 362.828, 478.969 
	L 382.801, 471.062 
	L 401.625, 460.712 
	L 419.004, 448.086 
	L 434.663, 433.381 
	L 448.356, 416.829 
	L 459.866, 398.692 
	L 469.013, 379.255 
" />
<path d="M 469.013, 379.255 
	L 475.651, 358.825 
	L 479.676, 337.724 
	L 481.025, 316.285 
	L 479.676, 294.846 
	L 475.651, 273.745 
	L 469.013, 253.315 
	L 459.866, 233.878 
	L 448.356, 215.741 
	L 434.663, 199.188 
	L 419.004, 184.484 
" />
<path d="M 419.004, 184.484 
	L 401.625, 171.858 
	L 382.801, 161.508 
	L 362.828, 153.600 
	L 342.021, 148.258 
	L 320.709, 145.566 
	L 299.228, 145.566 
	L 277.916, 148.258 
	L 257.109, 153.600 
	L 237.137, 161.508 
	L 218.312, 171.858 
" />
<path d="M 218.312, 171.858 
" />
<path d="M 483.428, 311.749 
	L 483.427, 311.749 
	L 482.108, 290.782 
	L 478.171, 270.145 
	L 471.679, 250.165 
	L 462.734, 231.155 
	L 451.477, 213.417 
	L 438.085, 197.230 
	L 422.770, 182.848 
	L 405.774, 170.499 
	L 387.364, 160.378 
" />
<path d="M 387.364, 160.378 
	L 367.830, 152.644 
	L 347.482, 147.419 
	L 326.638, 144.787 
	L 305.629, 144.787 
	L 284.786, 147.419 
	L 264.438, 152.644 
" />
<path d="M 160.589, 250.164 
	L 160.588, 250.165 
	L 154.096, 270.145 
	L 150.160, 290.782 
	L 148.841, 311.749 
	L 150.160, 332.717 
	L 154.096, 353.354 
	L 160.588, 373.334 
	L 169.534, 392.343 
	L 180.791, 410.082 
	L 194.182, 426.269 
" />
<path d="M 194.182, 426.269 
	L 209.497, 440.651 
	L 226.494, 453.000 
	L 244.904, 463.121 
" />
<path d="M 367.831, 470.854 
	L 367.830, 470.855 
	L 387.364, 463.121 
	L 405.774, 453.000 
	L 422.770, 440.651 
	L 438.085, 426.269 
	L 451.477, 410.082 
	L 462.734, 392.343 
	L 471.679, 373.334 
	L 478.171, 353.354 
	L 482.108, 332.717 
" />
<path d="M 482.108, 332.717 
	L 483.427, 311.749 
	L 482.108, 290.782 
	L 478.171, 270.145 
	L 471.679, 250.165 
	L 462.734, 231.155 
	L 451.477, 213.417 
	L 438.085, 197.230 
	L 422.770, 182.848 
	L 405.774, 170.499 
	L 387.364, 160.378 
" />
<path d="M 387.364, 160.378 
	L 367.830, 152.644 
	L 347.482, 147.419 
	L 326.638, 144.787 
	L 305.629, 144.787 
	L 284.786, 147.419 
	L 264.438, 152.644 
" />
<path d="M 479.818, 325.213 
	L 479.818, 325.214 
	L 478.527, 304.708 
	L 474.677, 284.525 
	L 468.328, 264.984 
	L 459.580, 246.393 
	L 448.570, 229.045 
	L 435.473, 213.214 
	L 420.496, 199.148 
	L 403.873, 187.071 
	L 385.868, 177.172 
" />
<path d="M 385.868, 177.172 
	L 366.764, 169.609 
	L 346.863, 164.499 
	L 326.478, 161.924 
	L 305.931, 161.924 
	L 285.547, 164.499 
" />
<path d="M 172.831, 246.392 
	L 172.830, 246.393 
	L 164.081, 264.984 
	L 157.732, 284.525 
	L 153.882, 304.708 
	L 152.592, 325.214 
	L 153.882, 345.720 
	L 157.732, 365.903 
	L 164.081, 385.444 
" />
<path d="M 196.937, 437.214 
	L 196.936, 437.214 
	L 211.914, 451.280 
	L 228.537, 463.357 
	L 246.542, 473.256 
	L 265.645, 480.819 
	L 285.547, 485.929 
	L 305.931, 488.504 
	L 326.478, 488.504 
	L 346.863, 485.929 
	L 366.764, 480.819 
" />
<path d="M 366.764, 480.819 
	L 385.868, 473.256 
	L 403.873, 463.357 
	L 420.496, 451.280 
	L 435.473, 437.214 
	L 448.570, 421.383 
	L 459.580, 404.035 
	L 468.328, 385.444 
	L 474.677, 365.903 
	L 478.527, 345.720 
	L 479.818, 325.214 
" />
<path d="M 479.818, 325.214 
	L 478.527, 304.708 
	L 474.677, 284.525 
	L 468.328, 264.984 
	L 459.580, 246.393 
	L 448.570, 229.045 
	L 435.473, 213.214 
	L 420.496, 199.148 
	L 403.873, 187.071 
	L 385.868, 177.172 
	L 366.764, 169.609 
" />
<path d="M 366.764, 169.609 
	L 346.863, 164.499 
	L 326.478, 161.924 
	L 305.931, 161.924 
	L 285.547, 164.499 
" />
<path d="M 478.274, 318.056 
	L 478.273, 318.056 
	L 477.011, 298.001 
	L 473.246, 278.263 
	L 467.036, 259.152 
	L 458.481, 240.970 
	L 447.713, 224.003 
	L 434.904, 208.520 
	L 420.256, 194.764 
	L 403.999, 182.953 
	L 386.390, 173.272 
" />
<path d="M 386.390, 173.272 
	L 367.707, 165.875 
	L 348.243, 160.877 
	L 328.307, 158.359 
	L 308.213, 158.359 
	L 288.276, 160.877 
	L 268.813, 165.875 
	L 250.130, 173.272 
	L 232.520, 182.953 
	L 216.264, 194.764 
	L 201.616, 208.520 
" />
<path d="M 201.616, 208.520 
	L 188.807, 224.003 
	L 178.039, 240.970 
	L 169.483, 259.152 
	L 163.273, 278.263 
" />
<path d="M 250.131, 462.840 
	L 250.130, 462.841 
	L 268.813, 470.238 
	L 288.276, 475.235 
	L 308.213, 477.754 
	L 328.307, 477.754 
	L 348.243, 475.235 
	L 367.707, 470.238 
	L 386.390, 462.841 
	L 403.999, 453.160 
" />
<path d="M 458.481, 395.143 
	L 458.481, 395.143 
	L 467.036, 376.961 
	L 473.246, 357.850 
	L 477.011, 338.112 
	L 478.273, 318.056 
" />
<path d="M 465.612, 318.835 
	L 465.611, 318.836 
	L 464.377, 299.222 
	L 460.694, 279.918 
	L 454.621, 261.227 
	L 446.254, 243.445 
	L 435.723, 226.852 
	L 423.196, 211.709 
	L 408.871, 198.256 
	L 392.971, 186.705 
	L 375.749, 177.237 
" />
<path d="M 375.749, 177.237 
	L 357.477, 170.002 
	L 338.442, 165.115 
	L 318.944, 162.652 
	L 299.292, 162.652 
	L 279.794, 165.115 
	L 260.759, 170.002 
	L 242.487, 177.237 
	L 225.265, 186.705 
	L 209.366, 198.256 
	L 195.040, 211.709 
" />
<path d="M 195.040, 211.709 
	L 182.513, 226.852 
	L 171.982, 243.445 
	L 163.615, 261.227 
	L 157.542, 279.918 
	L 153.859, 299.222 
	L 152.625, 318.836 
	L 153.859, 338.450 
	L 157.542, 357.754 
	L 163.615, 376.445 
	L 171.982, 394.227 
" />
<path d="M 171.982, 394.227 
" />
<path d="M 408.871, 439.415 
	L 408.871, 439.416 
	L 423.196, 425.963 
	L 435.723, 410.820 
	L 446.254, 394.227 
	L 454.621, 376.445 
	L 460.694, 357.754 
	L 464.377, 338.450 
	L 465.611, 318.836 
	L 464.377, 299.222 
	L 460.694, 279.918 
" />
<path d="M 460.694, 279.918 
" />
<path d="M 471.098, 320.890 
	L 471.098, 320.891 
	L 469.891, 301.709 
	L 466.289, 282.829 
	L 460.349, 264.550 
	L 452.166, 247.158 
	L 441.867, 230.931 
	L 429.616, 216.121 
	L 415.605, 202.964 
	L 400.056, 191.667 
	L 383.213, 182.407 
" />
<path d="M 383.213, 182.407 
	L 365.343, 175.332 
	L 346.726, 170.552 
	L 327.657, 168.143 
	L 308.437, 168.143 
	L 289.368, 170.552 
	L 270.752, 175.332 
	L 252.882, 182.407 
	L 236.039, 191.667 
	L 220.489, 202.964 
	L 206.478, 216.121 
" />
<path d="M 206.478, 216.121 
	L 194.227, 230.931 
	L 183.928, 247.158 
	L 175.745, 264.550 
	L 169.805, 282.829 
	L 166.204, 301.709 
	L 164.997, 320.891 
	L 166.204, 340.073 
	L 169.805, 358.953 
	L 175.745, 377.233 
	L 183.928, 394.624 
" />
<path d="M 183.928, 394.624 
	L 194.227, 410.851 
	L 206.478, 425.661 
	L 220.489, 438.818 
	L 236.039, 450.116 
	L 252.882, 459.375 
	L 270.752, 466.450 
	L 289.368, 471.230 
	L 308.437, 473.639 
	L 327.657, 473.639 
	L 346.726, 471.230 
" />
<path d="M 346.726, 471.230 
	L 365.343, 466.450 
	L 383.213, 459.375 
	L 400.056, 450.116 
	L 415.605, 438.818 
	L 429.616, 425.661 
	L 441.867, 410.851 
	L 452.166, 394.624 
	L 460.349, 377.233 
" />
<path d="M 467.589, 320.040 
	L 467.588, 320.041 
	L 466.408, 301.280 
	L 462.886, 282.816 
	L 457.077, 264.939 
	L 449.074, 247.930 
	L 439.002, 232.059 
	L 427.020, 217.575 
	L 413.317, 204.708 
	L 398.110, 193.659 
	L 381.638, 184.603 
" />
<path d="M 381.638, 184.603 
	L 364.160, 177.684 
	L 345.954, 173.009 
	L 327.305, 170.653 
	L 308.507, 170.653 
	L 289.857, 173.009 
	L 271.651, 177.684 
	L 254.173, 184.603 
	L 237.701, 193.659 
	L 222.494, 204.708 
	L 208.792, 217.575 
" />
<path d="M 208.792, 217.575 
	L 196.809, 232.059 
	L 186.737, 247.930 
	L 178.734, 264.939 
	L 172.925, 282.816 
	L 169.403, 301.280 
	L 168.223, 320.041 
	L 169.403, 338.801 
	L 172.925, 357.265 
	L 178.734, 375.143 
	L 186.737, 392.151 
" />
<path d="M 186.737, 392.151 
	L 196.809, 408.022 
	L 208.792, 422.506 
	L 222.494, 435.373 
	L 237.701, 446.422 
" />
<path d="M 466.409, 338.800 
	L 466.408, 338.801 
	L 467.588, 320.041 
	L 466.408, 301.280 
	L 462.886, 282.816 
	L 457.077, 264.939 
	L 449.074, 247.930 
	L 439.002, 232.059 
	L 427.020, 217.575 
	L 413.317, 204.708 
	L 398.110, 193.659 
" />
<path d="M 398.110, 193.659 
	L 381.638, 184.603 
	L 364.160, 177.684 
	L 345.954, 173.009 
	L 327.305, 170.653 
	L 308.507, 170.653 
	L 289.857, 173.009 
	L 271.651, 177.684 
	L 254.173, 184.603 
	L 237.701, 193.659 
	L 222.494, 204.708 
" />
<path d="M 222.494, 204.708 
" />
<path d="M 468.548, 319.898 
	L 468.547, 319.899 
	L 467.393, 301.552 
	L 463.949, 283.494 
	L 458.267, 266.010 
	L 450.440, 249.375 
	L 440.590, 233.853 
	L 428.871, 219.688 
	L 415.470, 207.103 
	L 400.597, 196.298 
	L 384.487, 187.442 
" />
<path d="M 384.487, 187.442 
	L 367.394, 180.674 
	L 349.588, 176.102 
	L 331.350, 173.798 
	L 312.965, 173.798 
	L 294.727, 176.102 
	L 276.921, 180.674 
	L 259.828, 187.442 
	L 243.718, 196.298 
	L 228.845, 207.103 
	L 215.444, 219.688 
" />
<path d="M 215.444, 219.688 
	L 203.725, 233.853 
	L 193.875, 249.375 
	L 186.048, 266.010 
	L 180.366, 283.494 
	L 176.922, 301.552 
	L 175.768, 319.899 
	L 176.922, 338.246 
	L 180.366, 356.304 
	L 186.048, 373.788 
	L 193.875, 390.423 
" />
<path d="M 193.875, 390.423 
	L 203.725, 405.945 
	L 215.444, 420.110 
	L 228.845, 432.695 
	L 243.718, 443.500 
	L 259.828, 452.356 
	L 276.921, 459.124 
	L 294.727, 463.696 
	L 312.965, 466.000 
" />
<path d="M 465.186, 310.898 
	L 465.185, 310.899 
	L 464.056, 292.955 
	L 460.687, 275.294 
	L 455.131, 258.195 
	L 447.476, 241.926 
	L 437.842, 226.746 
	L 426.382, 212.893 
	L 413.275, 200.585 
	L 398.730, 190.017 
" />
<path d="M 331.006, 168.012 
	L 331.005, 168.012 
	L 313.026, 168.012 
	L 295.189, 170.266 
	L 277.774, 174.737 
	L 261.057, 181.356 
	L 245.302, 190.017 
	L 230.756, 200.585 
	L 217.650, 212.893 
	L 206.189, 226.746 
	L 196.556, 241.926 
" />
<path d="M 196.556, 241.926 
	L 188.900, 258.195 
	L 183.344, 275.294 
	L 179.975, 292.955 
	L 178.846, 310.899 
	L 179.975, 328.843 
	L 183.344, 346.504 
	L 188.900, 363.603 
	L 196.556, 379.872 
	L 206.189, 395.052 
	L 217.650, 408.905 
" />
<path d="M 217.650, 408.905 
	L 230.756, 421.213 
	L 245.302, 431.781 
	L 261.057, 440.442 
	L 277.774, 447.061 
	L 295.189, 451.532 
	L 313.026, 453.786 
	L 331.005, 453.786 
	L 348.843, 451.532 
	L 366.258, 447.061 
	L 382.974, 440.442 
" />
<path d="M 382.974, 440.442 
	L 398.730, 431.781 
	L 413.275, 421.213 
	L 426.382, 408.905 
	L 437.842, 395.052 
	L 447.476, 379.872 
	L 455.131, 363.603 
	L 460.687, 346.504 
	L 464.056, 328.843 
	L 465.185, 310.899 
	L 464.056, 292.955 
" />
<path d="M 464.056, 292.955 
	L 460.687, 275.294 
	L 455.131, 258.195 
" />
<path d="M 455.445, 325.001 
	L 455.445, 325.001 
" />
<path d="M 455.445, 325.001 
	L 455.445, 325.001 
	L 454.341, 307.452 
	L 451.046, 290.180 
	L 445.612, 273.457 
	L 438.126, 257.547 
	L 428.703, 242.700 
	L 417.495, 229.151 
	L 404.677, 217.114 
	L 390.451, 206.779 
	L 375.043, 198.308 
" />
<path d="M 375.043, 198.308 
	L 358.694, 191.835 
	L 341.662, 187.462 
	L 324.217, 185.258 
	L 306.634, 185.258 
	L 289.188, 187.462 
	L 272.157, 191.835 
	L 255.808, 198.308 
" />
<path d="M 176.511, 307.451 
	L 176.510, 307.452 
	L 175.406, 325.001 
	L 176.510, 342.551 
	L 179.804, 359.823 
	L 185.238, 376.546 
	L 192.725, 392.456 
	L 202.147, 407.303 
	L 213.355, 420.851 
	L 226.174, 432.889 
	L 240.399, 443.224 
" />
<path d="M 240.399, 443.224 
	L 255.808, 451.695 
	L 272.157, 458.168 
" />
<path d="M 358.695, 458.167 
	L 358.694, 458.168 
	L 375.043, 451.695 
	L 390.451, 443.224 
	L 404.677, 432.889 
	L 417.495, 420.851 
	L 428.703, 407.303 
	L 438.126, 392.456 
	L 445.612, 376.546 
	L 451.046, 359.823 
	L 454.341, 342.551 
" />
<path d="M 454.341, 342.551 
	L 455.445, 325.001 
	L 454.341, 307.452 
	L 451.046, 290.180 
	L 445.612, 273.457 
	L 438.126, 257.547 
	L 428.703, 242.700 
	L 417.495, 229.151 
	L 404.677, 217.114 
	L 390.451, 206.779 
	L 375.043, 198.308 
" />
<path d="M 375.043, 198.308 
	L 358.694, 191.835 
	L 341.662, 187.462 
	L 324.217, 185.258 
	L 306.634, 185.258 
	L 289.188, 187.462 
	L 272.157, 191.835 
	L 255.808, 198.308 
	L 240.399, 206.779 
	L 226.174, 217.114 
	L 213.355, 229.151 
" />
<path d="M 213.355, 229.151 
	L 202.147, 242.700 
	L 192.725, 257.547 
	L 185.238, 273.457 
	L 179.804, 290.180 
	L 176.510, 307.452 
	L 175.406, 325.001 
	L 176.510, 342.551 
	L 179.804, 359.823 
	L 185.238, 376.546 
	L 192.725, 392.456 
" />
<path d="M 192.725, 392.456 
	L 202.147, 407.303 
" />
<path d="M 449.885, 314.796 
	L 449.884, 314.797 
	L 448.805, 297.634 
	L 445.582, 280.741 
" />
<path d="M 440.269, 264.385 
	L 440.268, 264.386 
	L 432.945, 248.826 
	L 423.731, 234.305 
	L 412.769, 221.056 
	L 400.234, 209.283 
	L 386.320, 199.175 
	L 371.251, 190.890 
	L 355.261, 184.560 
	L 338.605, 180.283 
	L 321.543, 178.128 
" />
<path d="M 321.543, 178.128 
	L 304.347, 178.128 
	L 287.285, 180.283 
	L 270.629, 184.560 
	L 254.639, 190.890 
	L 239.569, 199.175 
	L 225.656, 209.283 
	L 213.121, 221.056 
" />
<path d="M 180.308, 348.851 
	L 180.308, 348.852 
	L 185.622, 365.207 
	L 192.944, 380.767 
	L 202.158, 395.288 
	L 213.121, 408.538 
	L 225.656, 420.310 
	L 239.569, 430.418 
	L 254.639, 438.703 
	L 270.629, 445.034 
	L 287.285, 449.311 
" />
<path d="M 287.285, 449.311 
	L 304.347, 451.466 
	L 321.543, 451.466 
	L 338.605, 449.311 
	L 355.261, 445.034 
	L 371.251, 438.703 
	L 386.320, 430.418 
	L 400.234, 420.310 
	L 412.769, 408.538 
	L 423.731, 395.288 
	L 432.945, 380.767 
" />
<path d="M 432.945, 380.767 
	L 440.268, 365.207 
	L 445.582, 348.852 
" />
<path d="M 454.526, 310.757 
	L 454.525, 310.757 
	L 453.469, 293.972 
	L 450.318, 277.451 
	L 445.120, 261.456 
	L 437.959, 246.238 
	L 428.947, 232.037 
	L 418.227, 219.078 
	L 405.967, 207.565 
	L 392.360, 197.679 
	L 377.622, 189.577 
" />
<path d="M 377.622, 189.577 
	L 361.984, 183.385 
	L 345.694, 179.203 
	L 329.007, 177.095 
	L 312.189, 177.095 
	L 295.503, 179.203 
	L 279.213, 183.385 
	L 263.575, 189.577 
	L 248.837, 197.679 
	L 235.230, 207.565 
	L 222.970, 219.078 
" />
<path d="M 222.970, 219.078 
	L 212.250, 232.037 
	L 203.238, 246.238 
	L 196.077, 261.456 
	L 190.879, 277.451 
	L 187.728, 293.972 
	L 186.672, 310.757 
	L 187.728, 327.543 
	L 190.879, 344.064 
	L 196.077, 360.059 
	L 203.238, 375.277 
" />
<path d="M 203.238, 375.277 
	L 212.250, 389.478 
	L 222.970, 402.436 
	L 235.230, 413.950 
	L 248.837, 423.836 
" />
<path d="M 453.470, 327.542 
	L 453.469, 327.543 
	L 454.525, 310.757 
	L 453.469, 293.972 
	L 450.318, 277.451 
	L 445.120, 261.456 
	L 437.959, 246.238 
	L 428.947, 232.037 
	L 418.227, 219.078 
	L 405.967, 207.565 
	L 392.360, 197.679 
" />
<path d="M 392.360, 197.679 
	L 377.622, 189.577 
	L 361.984, 183.385 
	L 345.694, 179.203 
	L 329.007, 177.095 
	L 312.189, 177.095 
	L 295.503, 179.203 
	L 279.213, 183.385 
	L 263.575, 189.577 
	L 248.837, 197.679 
	L 235.230, 207.565 
" />
<path d="M 235.230, 207.565 
	L 222.970, 219.078 
	L 212.250, 232.037 
	L 203.238, 246.238 
	L 196.077, 261.456 
	L 190.879, 277.451 
	L 187.728, 293.972 
	L 186.672, 310.757 
" />
<path d="M 446.265, 318.127 
	L 446.264, 318.127 
	L 445.231, 301.711 
	L 442.149, 285.554 
	L 437.066, 269.910 
	L 430.063, 255.027 
	L 421.249, 241.139 
	L 410.764, 228.465 
	L 398.774, 217.205 
	L 385.467, 207.537 
	L 371.052, 199.613 
" />
<path d="M 371.052, 199.613 
	L 355.759, 193.558 
	L 339.827, 189.467 
	L 323.508, 187.406 
	L 307.060, 187.406 
" />
<path d="M 219.804, 228.465 
	L 219.803, 228.465 
	L 209.318, 241.139 
	L 200.504, 255.027 
" />
<path d="M 193.502, 269.909 
	L 193.501, 269.910 
	L 188.418, 285.554 
	L 185.336, 301.711 
	L 184.303, 318.127 
	L 185.336, 334.544 
	L 188.418, 350.701 
	L 193.501, 366.345 
	L 200.504, 381.227 
	L 209.318, 395.116 
	L 219.803, 407.789 
" />
<path d="M 219.803, 407.789 
	L 231.793, 419.049 
	L 245.101, 428.718 
	L 259.515, 436.642 
	L 274.808, 442.697 
	L 290.740, 446.788 
	L 307.060, 448.849 
	L 323.508, 448.849 
" />
<path d="M 430.063, 381.227 
	L 430.063, 381.227 
	L 437.066, 366.345 
	L 442.149, 350.701 
" />
<path d="M 445.231, 334.543 
	L 445.231, 334.544 
	L 446.264, 318.127 
	L 445.231, 301.711 
	L 442.149, 285.554 
	L 437.066, 269.910 
	L 430.063, 255.027 
	L 421.249, 241.139 
" />
<path d="M 442.603, 313.024 
	L 442.602, 313.025 
	L 441.592, 296.970 
	L 438.578, 281.168 
	L 433.607, 265.869 
	L 426.757, 251.313 
	L 418.138, 237.730 
	L 407.884, 225.335 
	L 396.157, 214.323 
	L 383.143, 204.868 
	L 369.045, 197.118 
" />
<path d="M 369.045, 197.118 
	L 354.088, 191.196 
	L 338.507, 187.195 
	L 322.547, 185.179 
	L 306.461, 185.179 
	L 290.501, 187.195 
	L 274.920, 191.196 
	L 259.963, 197.118 
	L 245.865, 204.868 
	L 232.851, 214.323 
	L 221.124, 225.335 
" />
<path d="M 221.124, 225.335 
	L 210.870, 237.730 
	L 202.251, 251.313 
	L 195.401, 265.869 
	L 190.430, 281.168 
	L 187.415, 296.970 
	L 186.406, 313.025 
	L 187.415, 329.080 
	L 190.430, 344.882 
	L 195.401, 360.181 
	L 202.251, 374.737 
" />
<path d="M 202.251, 374.737 
	L 210.870, 388.320 
	L 221.124, 400.715 
	L 232.851, 411.727 
	L 245.865, 421.182 
	L 259.963, 428.932 
	L 274.920, 434.854 
	L 290.501, 438.855 
	L 306.461, 440.871 
	L 322.547, 440.871 
	L 338.507, 438.855 
" />
<path d="M 338.507, 438.855 
	L 354.088, 434.854 
	L 369.045, 428.932 
	L 383.143, 421.182 
" />
<path d="M 441.132, 324.079 
	L 441.131, 324.080 
	L 440.143, 308.378 
	L 437.195, 292.924 
	L 432.333, 277.961 
	L 425.635, 263.726 
	L 417.205, 250.442 
" />
<path d="M 395.708, 227.549 
	L 395.707, 227.550 
	L 382.979, 218.302 
	L 369.192, 210.723 
	L 354.564, 204.931 
	L 339.326, 201.019 
	L 323.717, 199.047 
	L 307.984, 199.047 
	L 292.375, 201.019 
	L 277.137, 204.931 
	L 262.509, 210.723 
" />
<path d="M 262.509, 210.723 
	L 248.722, 218.302 
	L 235.993, 227.550 
	L 224.525, 238.320 
	L 214.496, 250.442 
	L 206.066, 263.726 
" />
<path d="M 199.368, 370.198 
	L 199.368, 370.199 
	L 206.066, 384.435 
	L 214.496, 397.718 
	L 224.525, 409.840 
	L 235.993, 420.610 
	L 248.722, 429.858 
	L 262.509, 437.437 
	L 277.137, 443.229 
	L 292.375, 447.141 
	L 307.984, 449.114 
" />
<path d="M 307.984, 449.114 
	L 323.717, 449.114 
	L 339.326, 447.141 
	L 354.564, 443.229 
	L 369.192, 437.437 
	L 382.979, 429.858 
	L 395.707, 420.610 
	L 407.176, 409.840 
	L 417.205, 397.718 
	L 425.635, 384.435 
	L 432.333, 370.199 
" />
<path d="M 432.333, 370.199 
	L 437.195, 355.236 
	L 440.143, 339.782 
	L 441.131, 324.080 
" />
<path d="M 436.320, 316.851 
	L 436.319, 316.852 
	L 435.353, 301.495 
	L 432.471, 286.381 
	L 427.716, 271.748 
	L 421.164, 257.825 
	L 412.919, 244.834 
	L 403.111, 232.978 
	L 391.895, 222.445 
	L 379.447, 213.401 
	L 365.963, 205.989 
" />
<path d="M 365.963, 205.989 
	L 351.658, 200.324 
	L 336.754, 196.498 
	L 321.489, 194.569 
	L 306.102, 194.569 
	L 290.837, 196.498 
	L 275.933, 200.324 
	L 261.627, 205.989 
	L 248.144, 213.401 
	L 235.695, 222.445 
	L 224.479, 232.978 
" />
<path d="M 224.479, 232.978 
" />
<path d="M 199.876, 361.955 
	L 199.875, 361.956 
	L 206.427, 375.878 
	L 214.671, 388.870 
" />
<path d="M 224.480, 400.725 
	L 224.479, 400.725 
	L 235.695, 411.258 
	L 248.144, 420.302 
	L 261.627, 427.715 
	L 275.933, 433.379 
	L 290.837, 437.206 
	L 306.102, 439.134 
	L 321.489, 439.134 
	L 336.754, 437.206 
	L 351.658, 433.379 
" />
<path d="M 351.658, 433.379 
	L 365.963, 427.715 
	L 379.447, 420.302 
	L 391.895, 411.258 
	L 403.111, 400.725 
	L 412.919, 388.870 
" />
<path d="M 438.019, 320.678 
	L 438.018, 320.679 
	L 437.073, 305.660 
	L 434.253, 290.879 
	L 429.603, 276.566 
	L 423.196, 262.950 
	L 415.133, 250.245 
	L 405.540, 238.650 
	L 394.571, 228.349 
	L 382.397, 219.504 
	L 369.210, 212.254 
" />
<path d="M 369.210, 212.254 
	L 355.218, 206.714 
	L 340.643, 202.972 
	L 325.713, 201.086 
	L 310.665, 201.086 
	L 295.735, 202.972 
	L 281.160, 206.714 
	L 267.168, 212.254 
	L 253.981, 219.504 
" />
<path d="M 198.361, 320.678 
	L 198.360, 320.679 
	L 199.305, 335.697 
	L 202.125, 350.478 
	L 206.775, 364.791 
	L 213.182, 378.407 
	L 221.246, 391.112 
	L 230.838, 402.707 
	L 241.807, 413.008 
	L 253.981, 421.853 
	L 267.168, 429.103 
" />
<path d="M 267.168, 429.103 
	L 281.160, 434.643 
	L 295.735, 438.385 
	L 310.665, 440.271 
	L 325.713, 440.271 
	L 340.643, 438.385 
	L 355.218, 434.643 
	L 369.210, 429.103 
	L 382.397, 421.853 
	L 394.571, 413.008 
	L 405.540, 402.707 
" />
<path d="M 405.540, 402.707 
	L 415.133, 391.112 
	L 423.196, 378.407 
	L 429.603, 364.791 
	L 434.253, 350.478 
	L 437.073, 335.697 
	L 438.018, 320.679 
	L 437.073, 305.660 
	L 434.253, 290.879 
	L 429.603, 276.566 
	L 423.196, 262.950 
" />
<path d="M 423.196, 262.950 
	L 415.133, 250.245 
	L 405.540, 238.650 
	L 394.571, 228.349 
	L 382.397, 219.504 
	L 369.210, 212.254 
	L 355.218, 206.714 
	L 340.643, 202.972 
	L 325.713, 201.086 
	L 310.665, 201.086 
	L 295.735, 202.972 
" />
<path d="M 295.735, 202.972 
	L 281.160, 206.714 
	L 267.168, 212.254 
	L 253.981, 219.504 
	L 241.807, 228.349 
	L 230.838, 238.650 
	L 221.246, 250.245 
" />
<path d="M 432.477, 323.512 
	L 432.476, 323.513 
	L 431.552, 308.825 
	L 428.794, 294.369 
	L 424.247, 280.372 
	L 417.980, 267.056 
	L 410.094, 254.629 
	L 400.713, 243.289 
	L 389.985, 233.215 
	L 378.079, 224.564 
	L 365.182, 217.474 
" />
<path d="M 365.182, 217.474 
	L 351.498, 212.056 
	L 337.244, 208.397 
	L 322.642, 206.552 
	L 307.925, 206.552 
	L 293.324, 208.397 
	L 279.069, 212.056 
	L 265.385, 217.474 
	L 252.488, 224.564 
	L 240.582, 233.215 
	L 229.854, 243.289 
" />
<path d="M 229.854, 243.289 
	L 220.473, 254.629 
	L 212.587, 267.056 
" />
<path d="M 229.854, 403.737 
	L 229.854, 403.737 
	L 240.582, 413.812 
	L 252.488, 422.462 
	L 265.385, 429.552 
	L 279.069, 434.970 
	L 293.324, 438.630 
	L 307.925, 440.474 
	L 322.642, 440.474 
	L 337.244, 438.630 
	L 351.498, 434.970 
" />
<path d="M 351.498, 434.970 
	L 365.182, 429.552 
	L 378.079, 422.462 
	L 389.985, 413.812 
	L 400.713, 403.737 
	L 410.094, 392.397 
	L 417.980, 379.971 
	L 424.247, 366.654 
	L 428.794, 352.658 
	L 431.552, 338.202 
	L 432.476, 323.513 
" />
<path d="M 432.476, 323.513 
	L 431.552, 308.825 
" />
<path d="M 429.756, 321.812 
	L 429.756, 321.812 
	L 428.852, 307.447 
	L 426.155, 293.309 
	L 421.707, 279.620 
	L 415.579, 266.596 
	L 407.867, 254.444 
	L 398.692, 243.354 
	L 388.200, 233.500 
	L 376.555, 225.040 
	L 363.942, 218.106 
" />
<path d="M 363.942, 218.106 
	L 350.559, 212.807 
	L 336.618, 209.228 
	L 322.338, 207.425 
	L 307.945, 207.425 
	L 293.665, 209.228 
	L 279.724, 212.807 
	L 266.341, 218.106 
	L 253.728, 225.040 
	L 242.084, 233.500 
	L 231.591, 243.354 
" />
<path d="M 231.591, 243.354 
	L 222.417, 254.444 
	L 214.705, 266.596 
	L 208.576, 279.620 
	L 204.129, 293.309 
" />
<path d="M 266.342, 425.518 
	L 266.341, 425.519 
	L 279.724, 430.817 
	L 293.665, 434.397 
	L 307.945, 436.200 
	L 322.338, 436.200 
	L 336.618, 434.397 
	L 350.559, 430.817 
	L 363.942, 425.519 
	L 376.555, 418.584 
	L 388.200, 410.124 
" />
<path d="M 388.200, 410.124 
	L 398.692, 400.271 
	L 407.867, 389.181 
	L 415.579, 377.028 
	L 421.707, 364.005 
" />
<path d="M 433.329, 313.308 
	L 433.329, 313.308 
	L 432.445, 299.259 
	L 429.807, 285.432 
	L 425.458, 272.045 
	L 419.464, 259.307 
	L 411.922, 247.422 
	L 402.948, 236.576 
	L 392.687, 226.940 
	L 381.299, 218.665 
	L 368.963, 211.884 
" />
<path d="M 368.963, 211.884 
	L 355.875, 206.702 
	L 342.240, 203.201 
	L 328.275, 201.437 
	L 314.198, 201.437 
	L 300.232, 203.201 
	L 286.598, 206.702 
	L 273.509, 211.884 
	L 261.174, 218.665 
	L 249.785, 226.940 
	L 239.524, 236.576 
" />
<path d="M 239.524, 236.576 
	L 230.551, 247.422 
	L 223.009, 259.307 
	L 217.015, 272.045 
	L 212.665, 285.432 
	L 210.027, 299.259 
	L 209.144, 313.308 
	L 210.027, 327.358 
	L 212.665, 341.185 
	L 217.015, 354.572 
	L 223.009, 367.310 
" />
<path d="M 223.009, 367.310 
	L 230.551, 379.195 
	L 239.524, 390.041 
	L 249.785, 399.677 
	L 261.174, 407.952 
	L 273.509, 414.733 
	L 286.598, 419.915 
	L 300.232, 423.416 
	L 314.198, 425.180 
	L 328.275, 425.180 
	L 342.240, 423.416 
" />
<path d="M 342.240, 423.416 
	L 355.875, 419.915 
" />
<path d="M 420.375, 320.536 
	L 420.374, 320.537 
	L 419.511, 306.797 
	L 416.930, 293.274 
	L 412.676, 280.181 
	L 406.815, 267.724 
	L 399.438, 256.100 
	L 390.662, 245.492 
	L 380.627, 236.068 
	L 369.489, 227.976 
	L 357.425, 221.343 
" />
<path d="M 357.425, 221.343 
	L 344.625, 216.276 
	L 331.290, 212.852 
	L 317.631, 211.127 
	L 303.865, 211.127 
	L 290.206, 212.852 
	L 276.871, 216.276 
	L 264.071, 221.343 
	L 252.007, 227.976 
	L 240.869, 236.068 
	L 230.834, 245.492 
" />
<path d="M 230.834, 245.492 
	L 222.058, 256.100 
	L 214.681, 267.724 
	L 208.820, 280.181 
	L 204.566, 293.274 
	L 201.986, 306.797 
	L 201.122, 320.537 
	L 201.986, 334.276 
" />
<path d="M 331.291, 428.221 
	L 331.290, 428.221 
	L 344.625, 424.798 
	L 357.425, 419.730 
	L 369.489, 413.098 
	L 380.627, 405.006 
	L 390.662, 395.581 
	L 399.438, 384.974 
	L 406.815, 373.350 
	L 412.676, 360.893 
	L 416.930, 347.800 
" />
<path d="M 416.930, 347.800 
	L 419.511, 334.276 
	L 420.374, 320.537 
	L 419.511, 306.797 
	L 416.930, 293.274 
	L 412.676, 280.181 
	L 406.815, 267.724 
	L 399.438, 256.100 
	L 390.662, 245.492 
	L 380.627, 236.068 
	L 369.489, 227.976 
" />
<path d="M 369.489, 227.976 
	L 357.425, 221.343 
	L 344.625, 216.276 
	L 331.290, 212.852 
	L 317.631, 211.127 
	L 303.865, 211.127 
	L 290.206, 212.852 
	L 276.871, 216.276 
	L 264.071, 221.343 
	L 252.007, 227.976 
	L 240.869, 236.068 
" />
<path d="M 240.869, 236.068 
	L 230.834, 245.492 
	L 222.058, 256.100 
	L 214.681, 267.724 
	L 208.820, 280.181 
" />
<path d="M 1104.307, 657.931 
	L 1105.016, 658.994 
	L 1105.016, 660.057 
	L 1104.307, 661.120 
	L 1102.890, 661.120 
	L 1102.181, 660.057 
	L 1102.181, 658.994 
	L 1102.890, 657.931 
" />
<path d="M 1100.764, 653.679 
	L 1101.473, 653.679 
" />
<path d="M 1102.181, 654.742 
	L 1102.181, 653.679 
	L 1105.016, 653.679 
" />
<path d="M 1105.016, 654.742 
	L 1105.016, 652.616 
" />
<path d="M 1102.181, 649.427 
	L 1105.016, 649.427 
" />
<path d="M 1103.599, 649.427 
	L 1102.181, 647.301 
	L 1102.181, 646.238 
" />
<path d="M 1104.307, 638.797 
	L 1105.016, 639.860 
	L 1105.016, 640.923 
	L 1104.307, 641.986 
	L 1102.890, 641.986 
	L 1102.181, 640.923 
	L 1102.181, 639.860 
	L 1102.890, 638.797 
" />
<path d="M 1105.016, 636.671 
	L 1100.764, 636.671 
" />
<path d="M 1105.016, 633.482 
	L 1103.599, 636.671 
	L 1102.181, 633.482 
" />
<path d="M 1100.764, 629.230 
	L 1100.764, 628.167 
	L 1105.016, 628.167 
" />
<path d="M 1105.016, 629.230 
	L 1105.016, 627.104 
" />
<path d="M 1103.599, 623.915 
	L 1103.599, 620.726 
	L 1102.890, 619.663 
	L 1102.181, 620.726 
	L 1102.181, 622.852 
	L 1102.890, 623.915 
	L 1104.307, 623.915 
	L 1105.016, 622.852 
	L 1105.016, 619.663 
" />
<path d="M 1102.181, 614.348 
	L 1102.181, 616.474 
	L 1102.890, 617.537 
	L 1103.599, 616.474 
	L 1103.599, 615.411 
	L 1104.307, 614.348 
	L 1105.016, 615.411 
	L 1105.016, 617.537 
" />
<path d="M 1105.016, 609.033 
	L 1105.016, 610.096 
	L 1104.307, 610.096 
	L 1104.307, 609.033 
	L 1105.016, 609.033 
" />
<path d="M 1106.433, 604.781 
	L 1102.181, 604.781 
	L 1102.181, 602.655 
	L 1102.890, 601.592 
	L 1104.307, 601.592 
	L 1105.016, 602.655 
	L 1105.016, 604.781 
" />
<path d="M 1106.433, 598.403 
	L 1103.599, 594.151 
	L 1102.181, 594.151 
" />
<path d="M 1102.181, 598.403 
	L 1103.599, 598.403 
	L 1105.016, 596.277 
" />
<path d="M 1101.473, 566.513 
	L 1100.764, 565.450 
	L 1100.764, 563.324 
	L 1101.473, 562.261 
	L 1102.181, 562.261 
	L 1104.307, 566.513 
	L 1105.016, 566.513 
	L 1105.016, 562.261 
" />
<path d="M 1104.307, 560.135 
	L 1105.016, 559.072 
	L 1105.016, 556.946 
	L 1104.307, 555.883 
	L 1101.473, 555.883 
	L 1100.764, 556.946 
	L 1100.764, 559.072 
	L 1101.473, 560.135 
	L 1104.307, 560.135 
" />
<path d="M 1105.016, 552.694 
	L 1105.016, 550.568 
" />
<path d="M 1105.016, 551.631 
	L 1100.764, 551.631 
	L 1101.473, 552.694 
" />
<path d="M 1105.016, 546.316 
	L 1105.016, 545.253 
	L 1103.599, 543.127 
	L 1101.473, 543.127 
	L 1100.764, 544.190 
	L 1100.764, 546.316 
	L 1101.473, 547.379 
	L 1102.181, 547.379 
	L 1102.890, 546.316 
	L 1102.890, 543.127 
" />
<path d="M 1102.890, 541.001 
	L 1102.890, 536.749 
" />
<path d="M 1104.307, 534.623 
	L 1105.016, 533.560 
	L 1105.016, 531.434 
	L 1104.307, 530.371 
	L 1101.473, 530.371 
	L 1100.764, 531.434 
	L 1100.764, 533.560 
	L 1101.473, 534.623 
	L 1104.307, 534.623 
" />
<path d="M 1100.764, 523.994 
	L 1100.764, 526.120 
	L 1102.181, 528.246 
	L 1104.307, 528.246 
	L 1105.016, 527.183 
	L 1105.016, 525.057 
	L 1104.307, 523.994 
	L 1103.599, 523.994 
	L 1102.890, 525.057 
	L 1102.890, 528.246 
" />
<path d="M 1102.890, 521.868 
	L 1102.890, 517.616 
" />
<path d="M 1104.307, 515.490 
	L 1105.016, 514.427 
	L 1105.016, 512.301 
	L 1104.307, 511.238 
	L 1101.473, 511.238 
	L 1100.764, 512.301 
	L 1100.764, 514.427 
	L 1101.473, 515.490 
	L 1104.307, 515.490 
" />
<path d="M 1102.890, 505.923 
	L 1102.181, 504.860 
	L 1101.473, 504.860 
	L 1100.764, 505.923 
	L 1100.764, 508.049 
	L 1101.473, 509.112 
	L 1102.181, 509.112 
	L 1102.890, 508.049 
	L 1102.890, 505.923 
	L 1103.599, 504.860 
	L 1104.307, 504.860 
" />
<path d="M 1104.307, 504.860 
	L 1105.016, 505.923 
	L 1105.016, 508.049 
	L 1104.307, 509.112 
	L 1103.599, 509.112 
	L 1102.890, 508.049 
" />
<path d="M 1101.473, 496.356 
	L 1100.764, 495.293 
	L 1100.764, 493.167 
	L 1101.473, 492.104 
	L 1102.181, 492.104 
	L 1104.307, 496.356 
	L 1105.016, 496.356 
	L 1105.016, 492.104 
" />
<path d="M 1104.307, 489.978 
	L 1105.016, 488.915 
	L 1105.016, 486.789 
	L 1104.307, 485.726 
	L 1103.599, 485.726 
	L 1102.890, 486.789 
	L 1102.890, 487.852 
	L 1100.764, 485.726 
	L 1100.764, 489.978 
" />
<path d="M 1102.890, 482.537 
	L 1102.181, 482.537 
	L 1102.181, 481.474 
	L 1102.890, 481.474 
	L 1102.890, 482.537 
" />
<path d="M 1104.307, 482.537 
	L 1104.307, 481.474 
	L 1105.016, 481.474 
	L 1105.016, 482.537 
	L 1104.307, 482.537 
" />
<path d="M 1100.764, 472.970 
	L 1100.764, 477.222 
	L 1102.181, 477.222 
	L 1102.181, 474.033 
	L 1102.890, 472.970 
	L 1104.307, 472.970 
	L 1105.016, 474.033 
	L 1105.016, 476.159 
	L 1104.307, 477.222 
" />
<path d="M 1100.764, 466.592 
	L 1100.764, 468.718 
	L 1102.181, 470.844 
	L 1104.307, 470.844 
	L 1105.016, 469.781 
	L 1105.016, 467.655 
	L 1104.307, 466.592 
	L 1103.599, 466.592 
	L 1102.890, 467.655 
	L 1102.890, 470.844 
" />
</g>
</svg>
