<?xml version="1.0" encoding="UTF-8" standalone="no" ?>
<svg width="100%" height="100%" viewBox="0 0 1142.362 222.835" xmlns="http://www.w3.org/2000/svg"><g>
</g><g style="stroke:rgb(0,0,0); fill:none; stroke-width:1.000mm" >
</g><g style="stroke:rgb(255,0,0); fill:none; stroke-width:0.100mm" >
<path d="M 0.001, 237.008 
	L 0.000, 237.008 
	L 0.000, 208.662 
	L 14.173, 208.662 
	L 14.173, 237.008 
	L 0.000, 237.008 
" />
<path d="M 0.001, 215.748 
	L 0.000, 215.748 
	L 0.000, 187.402 
	L 14.173, 187.402 
	L 14.173, 215.748 
	L 0.000, 215.748 
" />
<path d="M 0.001, 194.488 
	L 0.000, 194.489 
	L 0.000, 166.142 
	L 14.173, 166.142 
	L 14.173, 194.489 
	L 0.000, 194.489 
" />
<path d="M 0.001, 173.228 
	L 0.000, 173.229 
	L 0.000, 144.882 
	L 14.173, 144.882 
	L 14.173, 173.229 
	L 0.000, 173.229 
" />
<path d="M 0.001, 151.968 
	L 0.000, 151.969 
	L 0.000, 123.622 
	L 14.173, 123.622 
	L 14.173, 151.969 
	L 0.000, 151.969 
" />
<path d="M 0.001, 130.708 
	L 0.000, 130.709 
	L 0.000, 102.363 
	L 14.173, 102.363 
	L 14.173, 130.709 
	L 0.000, 130.709 
" />
<path d="M 0.001, 109.449 
	L 0.000, 109.449 
	L 0.000, 81.103 
	L 14.173, 81.103 
	L 14.173, 109.449 
	L 0.000, 109.449 
" />
<path d="M 0.001, 88.189 
	L 0.000, 88.189 
	L 0.000, 59.843 
	L 14.173, 59.843 
	L 14.173, 88.189 
	L 0.000, 88.189 
" />
<path d="M 0.001, 66.929 
	L 0.000, 66.930 
	L 0.000, 38.583 
	L 14.173, 38.583 
	L 14.173, 66.930 
	L 0.000, 66.930 
" />
<path d="M 0.001, 45.669 
	L 0.000, 45.670 
	L 0.000, 17.323 
	L 14.173, 17.323 
	L 14.173, 45.670 
	L 0.000, 45.670 
" />
<path d="M 26.583, 207.086 
	L 26.582, 207.087 
	L 42.003, 230.872 
	L 30.111, 238.583 
	L 14.690, 214.798 
	L 26.582, 207.087 
" />
<path d="M 26.583, 185.827 
	L 26.582, 185.827 
	L 42.003, 209.612 
	L 30.111, 217.323 
	L 14.690, 193.538 
	L 26.582, 185.827 
" />
<path d="M 26.583, 164.567 
	L 26.582, 164.568 
	L 42.003, 188.352 
	L 30.111, 196.063 
	L 14.690, 172.278 
	L 26.582, 164.568 
" />
<path d="M 26.583, 143.307 
	L 26.582, 143.308 
	L 42.003, 167.092 
	L 30.111, 174.803 
	L 14.690, 151.019 
	L 26.582, 143.308 
" />
<path d="M 26.583, 122.047 
	L 26.582, 122.048 
	L 42.003, 145.833 
	L 30.111, 153.544 
	L 14.690, 129.759 
	L 26.582, 122.048 
" />
<path d="M 26.583, 100.787 
	L 26.582, 100.788 
	L 42.003, 124.573 
	L 30.111, 132.284 
	L 14.690, 108.499 
	L 26.582, 100.788 
" />
<path d="M 26.583, 79.527 
	L 26.582, 79.528 
	L 42.003, 103.313 
	L 30.111, 111.024 
	L 14.690, 87.239 
	L 26.582, 79.528 
" />
<path d="M 26.583, 58.268 
	L 26.582, 58.268 
	L 42.003, 82.053 
	L 30.111, 89.764 
	L 14.690, 65.979 
	L 26.582, 58.268 
" />
<path d="M 26.583, 37.008 
	L 26.582, 37.008 
	L 42.003, 60.793 
	L 30.111, 68.504 
	L 14.690, 44.719 
	L 26.582, 37.008 
" />
<path d="M 26.583, 15.748 
	L 26.582, 15.749 
	L 42.003, 39.533 
	L 30.111, 47.244 
	L 14.690, 23.460 
	L 26.582, 15.749 
" />
<path d="M 59.654, 235.088 
	L 59.654, 235.089 
	L 33.775, 223.521 
	L 39.559, 210.582 
	L 65.438, 222.149 
	L 59.654, 235.089 
" />
<path d="M 59.654, 213.828 
	L 59.654, 213.829 
	L 33.775, 202.261 
	L 39.559, 189.322 
	L 65.438, 200.889 
	L 59.654, 213.829 
" />
<path d="M 59.654, 192.568 
	L 59.654, 192.569 
	L 33.775, 181.001 
	L 39.559, 168.062 
	L 65.438, 179.629 
	L 59.654, 192.569 
" />
<path d="M 59.654, 171.308 
	L 59.654, 171.309 
	L 33.775, 159.742 
	L 39.559, 146.802 
	L 65.438, 158.370 
	L 59.654, 171.309 
" />
<path d="M 59.654, 150.048 
	L 59.654, 150.049 
	L 33.775, 138.482 
	L 39.559, 125.542 
	L 65.438, 137.110 
	L 59.654, 150.049 
" />
<path d="M 59.654, 128.789 
	L 59.654, 128.789 
	L 33.775, 117.222 
	L 39.559, 104.282 
	L 65.438, 115.850 
	L 59.654, 128.789 
" />
<path d="M 59.654, 107.529 
	L 59.654, 107.529 
	L 33.775, 95.962 
	L 39.559, 83.023 
	L 65.438, 94.590 
	L 59.654, 107.529 
" />
<path d="M 59.654, 86.269 
	L 59.654, 86.270 
	L 33.775, 74.702 
	L 39.559, 61.763 
	L 65.438, 73.330 
	L 59.654, 86.270 
" />
<path d="M 59.654, 65.009 
	L 59.654, 65.010 
	L 33.775, 53.442 
	L 39.559, 40.503 
	L 65.438, 52.070 
	L 59.654, 65.010 
" />
<path d="M 59.654, 43.749 
	L 59.654, 43.750 
	L 33.775, 32.182 
	L 39.559, 19.243 
	L 65.438, 30.810 
	L 59.654, 43.750 
" />
<path d="M 55.770, 218.019 
	L 55.770, 218.020 
	L 83.777, 213.647 
	L 85.963, 227.650 
	L 57.956, 232.023 
	L 55.770, 218.020 
" />
<path d="M 55.770, 196.759 
	L 55.770, 196.760 
	L 83.777, 192.387 
	L 85.963, 206.391 
	L 57.956, 210.763 
	L 55.770, 196.760 
" />
<path d="M 55.770, 175.499 
	L 55.770, 175.500 
	L 83.777, 171.128 
	L 85.963, 185.131 
	L 57.956, 189.503 
	L 55.770, 175.500 
" />
<path d="M 55.770, 154.239 
	L 55.770, 154.240 
	L 83.777, 149.868 
	L 85.963, 163.871 
	L 57.956, 168.243 
	L 55.770, 154.240 
" />
<path d="M 55.770, 132.980 
	L 55.770, 132.980 
	L 83.777, 128.608 
	L 85.963, 142.611 
	L 57.956, 146.983 
	L 55.770, 132.980 
" />
<path d="M 55.770, 111.720 
	L 55.770, 111.720 
	L 83.777, 107.348 
	L 85.963, 121.351 
	L 57.956, 125.724 
	L 55.770, 111.720 
" />
<path d="M 55.770, 90.460 
	L 55.770, 90.461 
	L 83.777, 86.088 
	L 85.963, 100.091 
	L 57.956, 104.464 
	L 55.770, 90.461 
" />
<path d="M 55.770, 69.200 
	L 55.770, 69.201 
	L 83.777, 64.828 
	L 85.963, 78.832 
	L 57.956, 83.204 
	L 55.770, 69.201 
" />
<path d="M 55.770, 47.940 
	L 55.770, 47.941 
	L 83.777, 43.569 
	L 85.963, 57.572 
	L 57.956, 61.944 
	L 55.770, 47.941 
" />
<path d="M 55.770, 26.680 
	L 55.770, 26.681 
	L 83.777, 22.309 
	L 85.963, 36.312 
	L 57.956, 40.684 
	L 55.770, 26.681 
" />
<path d="M 107.414, 218.662 
	L 107.413, 218.662 
	L 86.292, 237.568 
	L 76.839, 227.008 
	L 97.960, 208.102 
	L 107.413, 218.662 
" />
<path d="M 107.414, 197.402 
	L 107.413, 197.403 
	L 86.292, 216.308 
	L 76.839, 205.748 
	L 97.960, 186.842 
	L 107.413, 197.403 
" />
<path d="M 107.414, 176.142 
	L 107.413, 176.143 
	L 86.292, 195.048 
	L 76.839, 184.488 
	L 97.960, 165.582 
	L 107.413, 176.143 
" />
<path d="M 107.414, 154.882 
	L 107.413, 154.883 
	L 86.292, 173.789 
	L 76.839, 163.228 
	L 97.960, 144.322 
	L 107.413, 154.883 
" />
<path d="M 107.414, 133.622 
	L 107.413, 133.623 
	L 86.292, 152.529 
	L 76.839, 141.968 
	L 97.960, 123.063 
	L 107.413, 133.623 
" />
<path d="M 107.414, 112.363 
	L 107.413, 112.363 
	L 86.292, 131.269 
	L 76.839, 120.708 
	L 97.960, 101.803 
	L 107.413, 112.363 
" />
<path d="M 107.414, 91.103 
	L 107.413, 91.103 
	L 86.292, 110.009 
	L 76.839, 99.449 
	L 97.960, 80.543 
	L 107.413, 91.103 
" />
<path d="M 107.414, 69.843 
	L 107.413, 69.844 
	L 86.292, 88.749 
	L 76.839, 78.189 
	L 97.960, 59.283 
	L 107.413, 69.844 
" />
<path d="M 107.414, 48.583 
	L 107.413, 48.584 
	L 86.292, 67.489 
	L 76.839, 56.929 
	L 97.960, 38.023 
	L 107.413, 48.584 
" />
<path d="M 107.414, 27.323 
	L 107.413, 27.324 
	L 86.292, 46.230 
	L 76.839, 35.669 
	L 97.960, 16.763 
	L 107.413, 27.324 
" />
<path d="M 102.830, 234.652 
	L 102.829, 234.653 
	L 110.266, 207.299 
	L 123.943, 211.017 
	L 116.505, 238.371 
	L 102.829, 234.653 
" />
<path d="M 102.830, 213.392 
	L 102.829, 213.393 
	L 110.266, 186.039 
	L 123.943, 189.758 
	L 116.505, 217.111 
	L 102.829, 213.393 
" />
<path d="M 102.830, 192.132 
	L 102.829, 192.133 
	L 110.266, 164.779 
	L 123.943, 168.498 
	L 116.505, 195.851 
	L 102.829, 192.133 
" />
<path d="M 102.830, 170.872 
	L 102.829, 170.873 
	L 110.266, 143.520 
	L 123.943, 147.238 
	L 116.505, 174.592 
	L 102.829, 170.873 
" />
<path d="M 102.830, 149.613 
	L 102.829, 149.613 
	L 110.266, 122.260 
	L 123.943, 125.978 
	L 116.505, 153.332 
	L 102.829, 149.613 
" />
<path d="M 102.830, 128.353 
	L 102.829, 128.353 
	L 110.266, 101.000 
	L 123.943, 104.718 
	L 116.505, 132.072 
	L 102.829, 128.353 
" />
<path d="M 102.830, 107.093 
	L 102.829, 107.094 
	L 110.266, 79.740 
	L 123.943, 83.458 
	L 116.505, 110.812 
	L 102.829, 107.094 
" />
<path d="M 102.830, 85.833 
	L 102.829, 85.834 
	L 110.266, 58.480 
	L 123.943, 62.199 
	L 116.505, 89.552 
	L 102.829, 85.834 
" />
<path d="M 102.830, 64.573 
	L 102.829, 64.574 
	L 110.266, 37.220 
	L 123.943, 40.939 
	L 116.505, 68.292 
	L 102.829, 64.574 
" />
<path d="M 102.830, 43.313 
	L 102.829, 43.314 
	L 110.266, 15.960 
	L 123.943, 19.679 
	L 116.505, 47.032 
	L 102.829, 43.314 
" />
<path d="M 137.076, 207.176 
	L 137.075, 207.176 
	L 145.715, 234.174 
	L 132.216, 238.494 
	L 123.576, 211.496 
	L 137.075, 207.176 
" />
<path d="M 137.076, 185.916 
	L 137.075, 185.917 
	L 145.715, 212.914 
	L 132.216, 217.234 
	L 123.576, 190.237 
	L 137.075, 185.917 
" />
<path d="M 137.076, 164.656 
	L 137.075, 164.657 
	L 145.715, 191.654 
	L 132.216, 195.974 
	L 123.576, 168.977 
	L 137.075, 164.657 
" />
<path d="M 137.076, 143.396 
	L 137.075, 143.397 
	L 145.715, 170.394 
	L 132.216, 174.714 
	L 123.576, 147.717 
	L 137.075, 143.397 
" />
<path d="M 137.076, 122.136 
	L 137.075, 122.137 
	L 145.715, 149.134 
	L 132.216, 153.454 
	L 123.576, 126.457 
	L 137.075, 122.137 
" />
<path d="M 137.076, 100.877 
	L 137.075, 100.877 
	L 145.715, 127.874 
	L 132.216, 132.194 
	L 123.576, 105.197 
	L 137.075, 100.877 
" />
<path d="M 137.076, 79.617 
	L 137.075, 79.617 
	L 145.715, 106.615 
	L 132.216, 110.935 
	L 123.576, 83.937 
	L 137.075, 79.617 
" />
<path d="M 137.076, 58.357 
	L 137.075, 58.358 
	L 145.715, 85.355 
	L 132.216, 89.675 
	L 123.576, 62.678 
	L 137.075, 58.358 
" />
<path d="M 137.076, 37.097 
	L 137.075, 37.098 
	L 145.715, 64.095 
	L 132.216, 68.415 
	L 123.576, 41.418 
	L 137.075, 37.098 
" />
<path d="M 137.076, 15.837 
	L 137.075, 15.838 
	L 145.715, 42.835 
	L 132.216, 47.155 
	L 123.576, 20.158 
	L 137.075, 15.838 
" />
<path d="M 162.387, 237.295 
	L 162.386, 237.295 
	L 140.449, 219.343 
	L 149.425, 208.375 
	L 171.362, 226.327 
	L 162.386, 237.295 
" />
<path d="M 162.387, 216.035 
	L 162.386, 216.035 
	L 140.449, 198.084 
	L 149.425, 187.115 
	L 171.362, 205.067 
	L 162.386, 216.035 
" />
<path d="M 162.387, 194.775 
	L 162.386, 194.776 
	L 140.449, 176.824 
	L 149.425, 165.855 
	L 171.362, 183.807 
	L 162.386, 194.776 
" />
<path d="M 162.387, 173.515 
	L 162.386, 173.516 
	L 140.449, 155.564 
	L 149.425, 144.595 
	L 171.362, 162.547 
	L 162.386, 173.516 
" />
<path d="M 162.387, 152.255 
	L 162.386, 152.256 
	L 140.449, 134.304 
	L 149.425, 123.335 
	L 171.362, 141.287 
	L 162.386, 152.256 
" />
<path d="M 162.387, 130.995 
	L 162.386, 130.996 
	L 140.449, 113.044 
	L 149.425, 102.076 
	L 171.362, 120.027 
	L 162.386, 130.996 
" />
<path d="M 162.387, 109.736 
	L 162.386, 109.736 
	L 140.449, 91.784 
	L 149.425, 80.816 
	L 171.362, 98.768 
	L 162.386, 109.736 
" />
<path d="M 162.387, 88.476 
	L 162.386, 88.476 
	L 140.449, 70.525 
	L 149.425, 59.556 
	L 171.362, 77.508 
	L 162.386, 88.476 
" />
<path d="M 162.387, 67.216 
	L 162.386, 67.217 
	L 140.449, 49.265 
	L 149.425, 38.296 
	L 171.362, 56.248 
	L 162.386, 67.217 
" />
<path d="M 162.387, 45.956 
	L 162.386, 45.957 
	L 140.449, 28.005 
	L 149.425, 17.036 
	L 171.362, 34.988 
	L 162.386, 45.957 
" />
<path d="M 163.862, 214.226 
	L 163.861, 214.227 
	L 192.035, 217.356 
	L 190.470, 231.443 
	L 162.296, 228.314 
	L 163.861, 214.227 
" />
<path d="M 163.862, 192.966 
	L 163.861, 192.967 
	L 192.035, 196.097 
	L 190.470, 210.183 
	L 162.296, 207.054 
	L 163.861, 192.967 
" />
<path d="M 163.862, 171.707 
	L 163.861, 171.707 
	L 192.035, 174.837 
	L 190.470, 188.923 
	L 162.296, 185.794 
	L 163.861, 171.707 
" />
<path d="M 163.862, 150.447 
	L 163.861, 150.447 
	L 192.035, 153.577 
	L 190.470, 167.664 
	L 162.296, 164.534 
	L 163.861, 150.447 
" />
<path d="M 163.862, 129.187 
	L 163.861, 129.188 
	L 192.035, 132.317 
	L 190.470, 146.404 
	L 162.296, 143.274 
	L 163.861, 129.188 
" />
<path d="M 163.862, 107.927 
	L 163.861, 107.928 
	L 192.035, 111.057 
	L 190.470, 125.144 
	L 162.296, 122.015 
	L 163.861, 107.928 
" />
<path d="M 163.862, 86.667 
	L 163.861, 86.668 
	L 192.035, 89.797 
	L 190.470, 103.884 
	L 162.296, 100.755 
	L 163.861, 86.668 
" />
<path d="M 163.862, 65.407 
	L 163.861, 65.408 
	L 192.035, 68.537 
	L 190.470, 82.624 
	L 162.296, 79.495 
	L 163.861, 65.408 
" />
<path d="M 163.862, 44.147 
	L 163.861, 44.148 
	L 192.035, 47.278 
	L 190.470, 61.364 
	L 162.296, 58.235 
	L 163.861, 44.148 
" />
<path d="M 163.862, 22.888 
	L 163.861, 22.888 
	L 192.035, 26.018 
	L 190.470, 40.105 
	L 162.296, 36.975 
	L 163.861, 22.888 
" />
<path d="M 214.272, 222.819 
	L 214.272, 222.819 
	L 188.930, 235.521 
	L 182.579, 222.851 
	L 207.921, 210.149 
	L 214.272, 222.819 
" />
<path d="M 214.272, 201.559 
	L 214.272, 201.560 
	L 188.930, 214.261 
	L 182.579, 201.591 
	L 207.921, 188.889 
	L 214.272, 201.560 
" />
<path d="M 214.272, 180.299 
	L 214.272, 180.300 
	L 188.930, 193.001 
	L 182.579, 180.331 
	L 207.921, 167.630 
	L 214.272, 180.300 
" />
<path d="M 214.272, 159.039 
	L 214.272, 159.040 
	L 188.930, 171.741 
	L 182.579, 159.071 
	L 207.921, 146.370 
	L 214.272, 159.040 
" />
<path d="M 214.272, 137.779 
	L 214.272, 137.780 
	L 188.930, 150.481 
	L 182.579, 137.811 
	L 207.921, 125.110 
	L 214.272, 137.780 
" />
<path d="M 214.272, 116.520 
	L 214.272, 116.520 
	L 188.930, 129.222 
	L 182.579, 116.551 
	L 207.921, 103.850 
	L 214.272, 116.520 
" />
<path d="M 214.272, 95.260 
	L 214.272, 95.260 
	L 188.930, 107.962 
	L 182.579, 95.292 
	L 207.921, 82.590 
	L 214.272, 95.260 
" />
<path d="M 214.272, 74.000 
	L 214.272, 74.001 
	L 188.930, 86.702 
	L 182.579, 74.032 
	L 207.921, 61.330 
	L 214.272, 74.001 
" />
<path d="M 214.272, 52.740 
	L 214.272, 52.741 
	L 188.930, 65.442 
	L 182.579, 52.772 
	L 207.921, 40.071 
	L 214.272, 52.741 
" />
<path d="M 214.272, 31.480 
	L 214.272, 31.481 
	L 188.930, 44.182 
	L 182.579, 31.512 
	L 207.921, 18.811 
	L 214.272, 31.481 
" />
<path d="M 1138.110, 222.835 
	L 1140.236, 222.835 
	L 1140.945, 221.772 
	L 1140.236, 220.709 
	L 1138.819, 220.709 
" />
<path d="M 1140.236, 220.709 
	L 1140.945, 219.646 
	L 1140.236, 218.583 
	L 1138.110, 218.583 
" />
<path d="M 1139.528, 216.457 
	L 1139.528, 213.268 
	L 1138.819, 212.205 
	L 1138.110, 213.268 
	L 1138.110, 215.394 
	L 1138.819, 216.457 
	L 1140.236, 216.457 
	L 1140.945, 215.394 
	L 1140.945, 212.205 
" />
<path d="M 1140.945, 205.827 
	L 1140.945, 209.016 
	L 1140.236, 210.079 
	L 1138.819, 210.079 
	L 1138.110, 209.016 
	L 1138.110, 206.890 
	L 1140.945, 206.890 
" />
<path d="M 1138.110, 203.701 
	L 1139.528, 203.701 
	L 1140.945, 201.575 
	L 1139.528, 199.449 
	L 1138.110, 199.449 
" />
<path d="M 1139.528, 197.323 
	L 1139.528, 194.134 
	L 1138.819, 193.071 
	L 1138.110, 194.134 
	L 1138.110, 196.260 
	L 1138.819, 197.323 
	L 1140.236, 197.323 
	L 1140.945, 196.260 
	L 1140.945, 193.071 
" />
<path d="M 1138.110, 187.756 
	L 1138.110, 189.882 
	L 1138.819, 190.945 
	L 1139.528, 189.882 
	L 1139.528, 188.819 
	L 1140.236, 187.756 
	L 1140.945, 188.819 
	L 1140.945, 190.945 
" />
<path d="M 1140.945, 182.441 
	L 1140.945, 183.504 
	L 1140.236, 183.504 
	L 1140.236, 182.441 
	L 1140.945, 182.441 
" />
<path d="M 1142.362, 178.189 
	L 1138.110, 178.189 
	L 1138.110, 176.063 
	L 1138.819, 175.000 
	L 1140.236, 175.000 
	L 1140.945, 176.063 
	L 1140.945, 178.189 
" />
<path d="M 1142.362, 171.811 
	L 1139.528, 167.559 
	L 1138.110, 167.559 
" />
<path d="M 1138.110, 171.811 
	L 1139.528, 171.811 
	L 1140.945, 169.685 
" />
<path d="M 1137.402, 139.922 
	L 1136.693, 138.859 
	L 1136.693, 136.733 
	L 1137.402, 135.670 
	L 1138.110, 135.670 
	L 1140.236, 139.922 
	L 1140.945, 139.922 
	L 1140.945, 135.670 
" />
<path d="M 1140.236, 133.544 
	L 1140.945, 132.481 
	L 1140.945, 130.355 
	L 1140.236, 129.292 
	L 1137.402, 129.292 
	L 1136.693, 130.355 
	L 1136.693, 132.481 
	L 1137.402, 133.544 
	L 1140.236, 133.544 
" />
<path d="M 1140.945, 126.103 
	L 1140.945, 123.977 
" />
<path d="M 1140.945, 125.040 
	L 1136.693, 125.040 
	L 1137.402, 126.103 
" />
<path d="M 1140.945, 119.725 
	L 1140.945, 118.662 
	L 1139.528, 116.536 
	L 1137.402, 116.536 
	L 1136.693, 117.599 
	L 1136.693, 119.725 
	L 1137.402, 120.788 
	L 1138.110, 120.788 
	L 1138.819, 119.725 
	L 1138.819, 116.536 
" />
<path d="M 1138.819, 114.410 
	L 1138.819, 110.158 
" />
<path d="M 1140.236, 108.032 
	L 1140.945, 106.969 
	L 1140.945, 104.843 
	L 1140.236, 103.780 
	L 1137.402, 103.780 
	L 1136.693, 104.843 
	L 1136.693, 106.969 
	L 1137.402, 108.032 
	L 1140.236, 108.032 
" />
<path d="M 1136.693, 97.402 
	L 1136.693, 99.528 
	L 1138.110, 101.654 
	L 1140.236, 101.654 
	L 1140.945, 100.591 
	L 1140.945, 98.465 
	L 1140.236, 97.402 
	L 1139.528, 97.402 
	L 1138.819, 98.465 
	L 1138.819, 101.654 
" />
<path d="M 1138.819, 95.276 
	L 1138.819, 91.024 
" />
<path d="M 1140.236, 88.898 
	L 1140.945, 87.835 
	L 1140.945, 85.709 
	L 1140.236, 84.646 
	L 1137.402, 84.646 
	L 1136.693, 85.709 
	L 1136.693, 87.835 
	L 1137.402, 88.898 
	L 1140.236, 88.898 
" />
<path d="M 1140.945, 81.457 
	L 1140.945, 80.394 
	L 1139.528, 78.268 
	L 1137.402, 78.268 
	L 1136.693, 79.331 
	L 1136.693, 81.457 
	L 1137.402, 82.520 
	L 1138.110, 82.520 
	L 1138.819, 81.457 
	L 1138.819, 78.268 
" />
<path d="M 1140.236, 69.764 
	L 1140.945, 68.701 
	L 1140.945, 66.575 
	L 1140.236, 65.512 
	L 1137.402, 65.512 
	L 1136.693, 66.575 
	L 1136.693, 68.701 
	L 1137.402, 69.764 
	L 1140.236, 69.764 
" />
<path d="M 1140.236, 63.386 
	L 1140.945, 62.323 
	L 1140.945, 60.197 
	L 1140.236, 59.134 
	L 1137.402, 59.134 
	L 1136.693, 60.197 
	L 1136.693, 62.323 
	L 1137.402, 63.386 
	L 1140.236, 63.386 
" />
<path d="M 1138.819, 55.945 
	L 1138.110, 55.945 
	L 1138.110, 54.882 
	L 1138.819, 54.882 
	L 1138.819, 55.945 
" />
<path d="M 1140.236, 55.945 
	L 1140.236, 54.882 
	L 1140.945, 54.882 
	L 1140.945, 55.945 
	L 1140.236, 55.945 
" />
<path d="M 1140.236, 50.630 
	L 1140.945, 49.567 
	L 1140.945, 47.441 
	L 1140.236, 46.378 
	L 1137.402, 46.378 
	L 1136.693, 47.441 
	L 1136.693, 49.567 
	L 1137.402, 50.630 
	L 1140.236, 50.630 
" />
<path d="M 1140.236, 44.252 
	L 1140.945, 43.189 
	L 1140.945, 41.063 
	L 1140.236, 40.000 
	L 1139.528, 40.000 
	L 1138.819, 41.063 
	L 1138.819, 42.126 
	L 1136.693, 40.000 
	L 1136.693, 44.252 
" />
</g>
</svg>
