<?xml version="1.0" encoding="UTF-8" standalone="no" ?>
<svg width="100%" height="100%" viewBox="0 0 731.339 561.260" xmlns="http://www.w3.org/2000/svg"><g>
</g><g style="stroke:rgb(0,0,0); fill:none; stroke-width:1.000mm" >
</g><g style="stroke:rgb(0,0,0); fill:none; stroke-width:0.100mm" >
<path d="M 0.000, 561.260 
	L 0.000, 0.000 
	L 731.339, 0.000 
	L 731.339, 561.260 
	L 0.000, 561.260 
" />
<path d="M 100.384, 502.500 
	L 100.383, 502.501 
	L 97.411, 505.294 
	L 100.054, 501.708 
	L 100.383, 502.501 
" />
<path d="M 101.833, 500.324 
	L 101.832, 500.325 
	L 100.383, 502.501 
	L 100.054, 501.708 
	L 101.832, 500.325 
" />
<path d="M 100.055, 501.707 
	L 100.054, 501.708 
	L 97.411, 505.294 
	L 97.517, 503.691 
	L 100.054, 501.708 
" />
<path d="M 87.777, 507.334 
	L 87.776, 507.334 
	L 86.671, 508.433 
	L 85.799, 508.325 
	L 87.776, 507.334 
" />
<path d="M 98.274, 508.426 
	L 98.273, 508.427 
	L 95.829, 506.750 
	L 97.411, 505.294 
	L 98.273, 508.427 
" />
<path d="M 97.518, 503.690 
	L 97.517, 503.691 
	L 97.411, 505.294 
	L 95.829, 506.750 
	L 97.517, 503.691 
" />
<path d="M 90.089, 507.871 
	L 90.089, 507.872 
	L 87.776, 507.334 
	L 88.218, 507.022 
	L 90.089, 507.872 
" />
<path d="M 86.671, 508.432 
	L 86.671, 508.433 
	L 89.883, 511.199 
	L 85.799, 508.325 
	L 86.671, 508.433 
" />
<path d="M 85.800, 508.324 
	L 85.799, 508.325 
	L 85.742, 512.780 
	L 85.509, 509.098 
	L 85.799, 508.325 
" />
<path d="M 98.814, 502.366 
	L 98.813, 502.367 
	L 100.054, 501.708 
	L 97.517, 503.691 
	L 98.813, 502.367 
" />
<path d="M 87.777, 507.334 
	L 87.776, 507.334 
	L 85.799, 508.325 
	L 88.218, 507.022 
	L 87.776, 507.334 
" />
<path d="M 98.192, 508.764 
	L 98.191, 508.765 
	L 95.829, 506.750 
	L 98.273, 508.427 
	L 98.191, 508.765 
" />
<path d="M 98.274, 508.426 
	L 98.273, 508.427 
	L 98.012, 511.919 
	L 98.191, 508.765 
	L 98.273, 508.427 
" />
<path d="M 85.800, 508.324 
	L 85.799, 508.325 
	L 85.509, 509.098 
	L 84.246, 508.764 
	L 85.799, 508.325 
" />
<path d="M 95.161, 509.874 
	L 95.160, 509.875 
	L 91.212, 511.211 
	L 91.395, 509.448 
	L 95.160, 509.875 
" />
<path d="M 89.884, 511.199 
	L 89.883, 511.199 
	L 86.684, 514.006 
	L 85.799, 508.325 
	L 89.883, 511.199 
" />
<path d="M 91.213, 511.210 
	L 91.212, 511.211 
	L 89.688, 513.234 
	L 89.883, 511.199 
	L 91.212, 511.211 
" />
<path d="M 85.800, 508.324 
	L 85.799, 508.325 
	L 86.684, 514.006 
	L 85.742, 512.780 
	L 85.799, 508.325 
" />
<path d="M 88.218, 507.021 
	L 88.218, 507.022 
	L 85.799, 508.325 
	L 86.606, 506.467 
	L 88.218, 507.022 
" />
<path d="M 95.161, 509.874 
	L 95.160, 509.875 
	L 94.915, 511.763 
	L 91.212, 511.211 
	L 95.160, 509.875 
" />
<path d="M 88.218, 507.021 
	L 88.218, 507.022 
	L 86.870, 506.098 
	L 88.277, 505.990 
	L 88.218, 507.022 
" />
<path d="M 85.856, 504.379 
	L 85.855, 504.380 
	L 85.814, 506.321 
	L 84.918, 502.569 
	L 85.855, 504.380 
" />
<path d="M 91.622, 508.342 
	L 91.621, 508.343 
	L 91.395, 509.448 
	L 89.094, 507.926 
	L 91.621, 508.343 
" />
<path d="M 85.856, 504.379 
	L 85.855, 504.380 
	L 84.918, 502.569 
	L 85.849, 502.889 
	L 85.855, 504.380 
" />
<path d="M 92.395, 509.114 
	L 92.395, 509.115 
	L 93.888, 509.734 
	L 91.395, 509.448 
	L 92.395, 509.115 
" />
<path d="M 89.095, 507.925 
	L 89.094, 507.926 
	L 88.218, 507.022 
	L 88.950, 506.475 
	L 89.094, 507.926 
" />
<path d="M 89.884, 511.199 
	L 89.883, 511.199 
	L 89.688, 513.234 
	L 86.684, 514.006 
	L 89.883, 511.199 
" />
<path d="M 92.395, 509.114 
	L 92.395, 509.115 
	L 91.395, 509.448 
	L 91.621, 508.343 
	L 92.395, 509.115 
" />
<path d="M 84.919, 502.568 
	L 84.918, 502.569 
	L 85.814, 506.321 
	L 83.182, 503.849 
	L 84.918, 502.569 
" />
<path d="M 84.919, 502.568 
	L 84.918, 502.569 
	L 83.182, 503.849 
	L 84.136, 502.861 
	L 84.918, 502.569 
" />
<path d="M 86.606, 506.466 
	L 86.606, 506.467 
	L 85.799, 508.325 
	L 84.246, 508.764 
	L 86.606, 506.467 
" />
<path d="M 85.743, 512.779 
	L 85.742, 512.780 
	L 86.684, 514.006 
	L 87.322, 516.419 
	L 85.742, 512.780 
" />
<path d="M 84.919, 502.568 
	L 84.918, 502.569 
	L 84.136, 502.861 
	L 85.063, 501.990 
	L 84.918, 502.569 
" />
<path d="M 88.218, 507.021 
	L 88.218, 507.022 
	L 86.606, 506.467 
	L 86.870, 506.098 
	L 88.218, 507.022 
" />
<path d="M 94.916, 511.763 
	L 94.915, 511.763 
	L 92.581, 513.489 
	L 91.212, 511.211 
	L 94.915, 511.763 
" />
<path d="M 91.213, 511.210 
	L 91.212, 511.211 
	L 92.581, 513.489 
	L 89.688, 513.234 
	L 91.212, 511.211 
" />
<path d="M 84.137, 502.860 
	L 84.136, 502.861 
	L 83.182, 503.849 
	L 83.604, 503.150 
	L 84.136, 502.861 
" />
<path d="M 96.430, 511.279 
	L 96.430, 511.279 
	L 94.915, 511.763 
	L 95.160, 509.875 
	L 96.430, 511.279 
" />
<path d="M 85.815, 506.320 
	L 85.814, 506.321 
	L 86.606, 506.467 
	L 84.246, 508.764 
	L 85.814, 506.321 
" />
<path d="M 84.104, 495.484 
	L 84.103, 495.485 
	L 82.835, 497.604 
	L 81.580, 499.317 
	L 84.103, 495.485 
" />
<path d="M 85.815, 506.320 
	L 85.814, 506.321 
	L 82.936, 506.657 
	L 83.182, 503.849 
	L 85.814, 506.321 
" />
<path d="M 96.430, 511.279 
	L 96.430, 511.279 
	L 95.920, 511.781 
	L 94.915, 511.763 
	L 96.430, 511.279 
" />
<path d="M 96.430, 511.279 
	L 96.430, 511.279 
	L 95.160, 509.875 
	L 96.121, 510.450 
	L 96.430, 511.279 
" />
<path d="M 85.815, 506.320 
	L 85.814, 506.321 
	L 84.246, 508.764 
	L 82.936, 506.657 
	L 85.814, 506.321 
" />
<path d="M 95.921, 511.780 
	L 95.920, 511.781 
	L 92.581, 513.489 
	L 94.915, 511.763 
	L 95.920, 511.781 
" />
<path d="M 89.689, 513.233 
	L 89.688, 513.234 
	L 89.492, 515.911 
	L 86.684, 514.006 
	L 89.688, 513.234 
" />
<path d="M 92.582, 513.488 
	L 92.581, 513.489 
	L 89.492, 515.911 
	L 89.688, 513.234 
	L 92.581, 513.489 
" />
<path d="M 98.723, 515.412 
	L 98.722, 515.412 
	L 95.489, 514.812 
	L 96.887, 513.899 
	L 98.722, 515.412 
" />
<path d="M 107.187, 509.265 
	L 107.186, 509.265 
	L 107.111, 510.134 
	L 105.367, 509.087 
	L 107.186, 509.265 
" />
<path d="M 82.937, 506.656 
	L 82.936, 506.657 
	L 84.246, 508.764 
	L 81.753, 508.760 
	L 82.936, 506.657 
" />
<path d="M 112.214, 508.691 
	L 112.214, 508.691 
	L 109.624, 510.305 
	L 110.227, 509.893 
	L 112.214, 508.691 
" />
<path d="M 83.823, 505.083 
	L 83.822, 505.084 
	L 82.936, 506.657 
	L 82.322, 503.658 
	L 83.822, 505.084 
" />
<path d="M 82.937, 506.656 
	L 82.936, 506.657 
	L 81.753, 508.760 
	L 81.014, 506.875 
	L 82.936, 506.657 
" />
<path d="M 82.323, 503.657 
	L 82.322, 503.658 
	L 82.936, 506.657 
	L 81.014, 506.875 
	L 82.322, 503.658 
" />
<path d="M 83.198, 503.644 
	L 83.198, 503.644 
	L 83.822, 505.084 
	L 82.322, 503.658 
	L 83.198, 503.644 
" />
<path d="M 86.685, 514.005 
	L 86.684, 514.006 
	L 89.492, 515.911 
	L 86.482, 517.533 
	L 86.684, 514.006 
" />
<path d="M 81.490, 502.571 
	L 81.490, 502.571 
	L 82.536, 502.385 
	L 82.322, 503.658 
	L 81.490, 502.571 
" />
<path d="M 110.349, 507.818 
	L 110.349, 507.818 
	L 110.227, 509.893 
	L 109.563, 508.220 
	L 110.349, 507.818 
" />
<path d="M 82.323, 503.657 
	L 82.322, 503.658 
	L 79.838, 504.044 
	L 81.490, 502.571 
	L 82.322, 503.658 
" />
<path d="M 109.625, 510.304 
	L 109.624, 510.305 
	L 106.376, 510.646 
	L 110.227, 509.893 
	L 109.624, 510.305 
" />
<path d="M 82.323, 503.657 
	L 82.322, 503.658 
	L 81.014, 506.875 
	L 79.838, 504.044 
	L 82.322, 503.658 
" />
<path d="M 107.889, 508.460 
	L 107.889, 508.461 
	L 107.792, 509.869 
	L 107.186, 509.265 
	L 107.889, 508.461 
" />
<path d="M 107.187, 509.265 
	L 107.186, 509.265 
	L 107.792, 509.869 
	L 105.450, 509.392 
	L 107.186, 509.265 
" />
<path d="M 106.355, 507.873 
	L 106.355, 507.874 
	L 106.731, 507.244 
	L 105.450, 509.392 
	L 106.355, 507.874 
" />
<path d="M 81.754, 508.759 
	L 81.753, 508.760 
	L 81.920, 511.295 
	L 81.573, 509.073 
	L 81.753, 508.760 
" />
<path d="M 110.349, 507.818 
	L 110.349, 507.818 
	L 108.028, 507.011 
	L 109.641, 507.307 
	L 110.349, 507.818 
" />
<path d="M 109.564, 508.219 
	L 109.563, 508.220 
	L 107.792, 509.869 
	L 107.889, 508.461 
	L 109.563, 508.220 
" />
<path d="M 109.564, 508.219 
	L 109.563, 508.220 
	L 110.227, 509.893 
	L 107.792, 509.869 
	L 109.563, 508.220 
" />
<path d="M 109.641, 507.307 
	L 109.641, 507.307 
	L 108.028, 507.011 
	L 108.758, 507.132 
	L 109.641, 507.307 
" />
<path d="M 81.015, 506.874 
	L 81.014, 506.875 
	L 81.753, 508.760 
	L 81.573, 509.073 
	L 81.014, 506.875 
" />
<path d="M 109.633, 507.218 
	L 109.633, 507.219 
	L 110.638, 506.919 
	L 109.641, 507.307 
	L 109.633, 507.219 
" />
<path d="M 110.227, 509.892 
	L 110.227, 509.893 
	L 106.376, 510.646 
	L 107.792, 509.869 
	L 110.227, 509.893 
" />
<path d="M 109.633, 507.218 
	L 109.633, 507.219 
	L 108.758, 507.132 
	L 110.638, 506.919 
	L 109.633, 507.219 
" />
<path d="M 77.789, 503.922 
	L 77.788, 503.923 
	L 78.598, 504.556 
	L 78.988, 506.607 
	L 77.788, 503.923 
" />
<path d="M 101.294, 517.380 
	L 101.293, 517.380 
	L 99.949, 518.400 
	L 98.367, 515.762 
	L 101.293, 517.380 
" />
<path d="M 93.543, 475.483 
	L 93.543, 475.484 
	L 91.374, 476.988 
	L 94.864, 472.403 
	L 93.543, 475.484 
" />
<path d="M 79.567, 498.042 
	L 79.566, 498.043 
	L 78.598, 504.556 
	L 77.788, 503.923 
	L 79.566, 498.043 
" />
<path d="M 114.451, 508.701 
	L 114.450, 508.702 
	L 110.227, 509.893 
	L 113.711, 508.209 
	L 114.450, 508.702 
" />
<path d="M 110.638, 506.918 
	L 110.638, 506.919 
	L 108.758, 507.132 
	L 109.188, 507.010 
	L 110.638, 506.919 
" />
<path d="M 105.140, 515.958 
	L 105.139, 515.959 
	L 99.949, 518.400 
	L 101.293, 517.380 
	L 105.139, 515.959 
" />
<path d="M 109.641, 507.307 
	L 109.641, 507.307 
	L 111.949, 507.366 
	L 110.227, 509.893 
	L 109.641, 507.307 
" />
<path d="M 80.487, 517.505 
	L 80.486, 517.506 
	L 79.659, 515.821 
	L 79.810, 515.987 
	L 80.486, 517.506 
" />
<path d="M 79.839, 504.043 
	L 79.838, 504.044 
	L 81.014, 506.875 
	L 81.375, 507.874 
	L 79.838, 504.044 
" />
<path d="M 79.659, 515.820 
	L 79.659, 515.821 
	L 78.744, 514.572 
	L 79.810, 515.987 
	L 79.659, 515.821 
" />
<path d="M 110.638, 506.918 
	L 110.638, 506.919 
	L 111.949, 507.366 
	L 109.641, 507.307 
	L 110.638, 506.919 
" />
<path d="M 78.745, 514.571 
	L 78.744, 514.572 
	L 79.659, 515.821 
	L 77.007, 515.147 
	L 78.744, 514.572 
" />
<path d="M 111.976, 505.967 
	L 111.975, 505.968 
	L 111.949, 507.366 
	L 110.638, 506.919 
	L 111.975, 505.968 
" />
<path d="M 107.793, 509.869 
	L 107.792, 509.869 
	L 106.376, 510.646 
	L 108.371, 509.438 
	L 107.792, 509.869 
" />
<path d="M 113.712, 508.208 
	L 113.711, 508.209 
	L 110.227, 509.893 
	L 111.949, 507.366 
	L 113.711, 508.209 
" />
<path d="M 78.599, 504.556 
	L 78.598, 504.556 
	L 80.267, 508.216 
	L 78.988, 506.607 
	L 78.598, 504.556 
" />
<path d="M 114.451, 508.701 
	L 114.450, 508.702 
	L 113.711, 508.209 
	L 117.105, 505.325 
	L 114.450, 508.702 
" />
<path d="M 82.963, 510.564 
	L 82.962, 510.564 
	L 82.373, 513.692 
	L 81.573, 509.073 
	L 82.962, 510.564 
" />
<path d="M 85.569, 509.757 
	L 85.568, 509.757 
	L 84.086, 511.967 
	L 82.962, 510.564 
	L 85.568, 509.757 
" />
<path d="M 105.140, 515.958 
	L 105.139, 515.959 
	L 101.293, 517.380 
	L 103.775, 515.889 
	L 105.139, 515.959 
" />
<path d="M 79.659, 515.820 
	L 79.659, 515.821 
	L 79.666, 518.279 
	L 77.007, 515.147 
	L 79.659, 515.821 
" />
<path d="M 90.167, 518.794 
	L 90.166, 518.795 
	L 86.482, 517.533 
	L 88.644, 517.280 
	L 90.166, 518.795 
" />
<path d="M 80.267, 508.215 
	L 80.267, 508.216 
	L 78.699, 509.168 
	L 78.988, 506.607 
	L 80.267, 508.216 
" />
<path d="M 80.912, 513.619 
	L 80.911, 513.620 
	L 82.373, 513.692 
	L 81.831, 514.470 
	L 80.911, 513.620 
" />
<path d="M 117.695, 501.830 
	L 117.695, 501.831 
	L 117.417, 504.512 
	L 117.105, 505.325 
	L 117.695, 501.831 
" />
<path d="M 81.376, 507.873 
	L 81.375, 507.874 
	L 81.573, 509.073 
	L 80.267, 508.216 
	L 81.375, 507.874 
" />
<path d="M 105.140, 515.958 
	L 105.139, 515.959 
	L 103.775, 515.889 
	L 107.305, 512.958 
	L 105.139, 515.959 
" />
<path d="M 93.061, 519.297 
	L 93.060, 519.298 
	L 92.911, 519.888 
	L 90.166, 518.795 
	L 93.060, 519.298 
" />
<path d="M 111.950, 507.366 
	L 111.949, 507.366 
	L 109.795, 506.395 
	L 113.844, 508.079 
	L 111.949, 507.366 
" />
<path d="M 113.712, 508.208 
	L 113.711, 508.209 
	L 111.949, 507.366 
	L 113.844, 508.079 
	L 113.711, 508.209 
" />
<path d="M 87.287, 515.373 
	L 87.287, 515.374 
	L 86.515, 516.757 
	L 85.445, 515.750 
	L 87.287, 515.374 
" />
<path d="M 84.086, 511.966 
	L 84.086, 511.967 
	L 82.373, 513.692 
	L 82.962, 510.564 
	L 84.086, 511.967 
" />
<path d="M 90.167, 518.794 
	L 90.166, 518.795 
	L 88.644, 517.280 
	L 91.169, 516.217 
	L 90.166, 518.795 
" />
<path d="M 93.061, 519.297 
	L 93.060, 519.298 
	L 99.077, 518.847 
	L 92.911, 519.888 
	L 93.060, 519.298 
" />
<path d="M 101.294, 517.380 
	L 101.293, 517.380 
	L 99.077, 518.847 
	L 98.705, 518.442 
	L 101.293, 517.380 
" />
<path d="M 82.374, 513.692 
	L 82.373, 513.692 
	L 80.301, 510.472 
	L 81.573, 509.073 
	L 82.373, 513.692 
" />
<path d="M 91.169, 516.217 
	L 91.169, 516.217 
	L 93.060, 519.298 
	L 90.166, 518.795 
	L 91.169, 516.217 
" />
<path d="M 87.287, 515.373 
	L 87.287, 515.374 
	L 85.445, 515.750 
	L 86.939, 515.237 
	L 87.287, 515.374 
" />
<path d="M 81.574, 509.072 
	L 81.573, 509.073 
	L 80.301, 510.472 
	L 80.267, 508.216 
	L 81.573, 509.073 
" />
<path d="M 117.106, 505.325 
	L 117.105, 505.325 
	L 113.711, 508.209 
	L 113.844, 508.079 
	L 117.105, 505.325 
" />
<path d="M 86.940, 515.237 
	L 86.939, 515.237 
	L 85.445, 515.750 
	L 86.148, 514.969 
	L 86.939, 515.237 
" />
<path d="M 80.481, 519.223 
	L 80.481, 519.224 
	L 79.666, 518.279 
	L 84.633, 519.877 
	L 80.481, 519.224 
" />
<path d="M 84.086, 511.966 
	L 84.086, 511.967 
	L 84.433, 511.980 
	L 82.373, 513.692 
	L 84.086, 511.967 
" />
<path d="M 91.169, 516.217 
	L 91.169, 516.217 
	L 88.644, 517.280 
	L 89.780, 516.420 
	L 91.169, 516.217 
" />
<path d="M 103.776, 515.889 
	L 103.775, 515.889 
	L 101.293, 517.380 
	L 98.705, 518.442 
	L 103.775, 515.889 
" />
<path d="M 82.374, 513.692 
	L 82.373, 513.692 
	L 80.313, 514.207 
	L 80.301, 510.472 
	L 82.373, 513.692 
" />
<path d="M 84.434, 511.979 
	L 84.433, 511.980 
	L 81.831, 514.470 
	L 82.373, 513.692 
	L 84.433, 511.980 
" />
<path d="M 85.445, 515.749 
	L 85.445, 515.750 
	L 83.008, 516.633 
	L 85.863, 514.855 
	L 85.445, 515.750 
" />
<path d="M 99.077, 518.847 
	L 99.077, 518.847 
	L 93.060, 519.298 
	L 98.705, 518.442 
	L 99.077, 518.847 
" />
<path d="M 86.912, 515.733 
	L 86.912, 515.733 
	L 87.136, 515.610 
	L 86.515, 516.757 
	L 86.912, 515.733 
" />
<path d="M 80.267, 508.215 
	L 80.267, 508.216 
	L 80.301, 510.472 
	L 78.699, 509.168 
	L 80.267, 508.216 
" />
<path d="M 84.276, 513.014 
	L 84.275, 513.014 
	L 83.419, 513.201 
	L 84.433, 511.980 
	L 84.275, 513.014 
" />
<path d="M 85.864, 514.854 
	L 85.863, 514.855 
	L 86.148, 514.969 
	L 85.445, 515.750 
	L 85.863, 514.855 
" />
<path d="M 84.434, 511.979 
	L 84.433, 511.980 
	L 83.419, 513.201 
	L 81.831, 514.470 
	L 84.433, 511.980 
" />
<path d="M 91.169, 516.217 
	L 91.169, 516.217 
	L 91.721, 517.261 
	L 89.625, 519.737 
	L 91.169, 516.217 
" />
<path d="M 83.470, 512.768 
	L 83.470, 512.769 
	L 83.400, 513.683 
	L 81.831, 514.470 
	L 83.470, 512.769 
" />
<path d="M 83.393, 514.205 
	L 83.392, 514.205 
	L 81.831, 514.470 
	L 83.400, 513.683 
	L 83.392, 514.205 
" />
<path d="M 80.302, 510.471 
	L 80.301, 510.472 
	L 81.831, 514.470 
	L 81.247, 513.061 
	L 80.301, 510.472 
" />
<path d="M 84.941, 519.557 
	L 84.940, 519.557 
	L 79.666, 518.279 
	L 79.571, 515.616 
	L 84.940, 519.557 
" />
<path d="M 84.941, 519.557 
	L 84.940, 519.557 
	L 84.633, 519.877 
	L 79.666, 518.279 
	L 84.940, 519.557 
" />
<path d="M 89.626, 519.736 
	L 89.625, 519.737 
	L 84.633, 519.877 
	L 84.940, 519.557 
	L 89.625, 519.737 
" />
<path d="M 113.905, 511.523 
	L 113.905, 511.524 
	L 111.084, 512.987 
	L 112.535, 510.861 
	L 113.905, 511.524 
" />
<path d="M 113.905, 511.523 
	L 113.905, 511.524 
	L 112.171, 509.408 
	L 113.696, 508.163 
	L 113.905, 511.524 
" />
<path d="M 112.172, 509.407 
	L 112.171, 509.408 
	L 113.905, 511.524 
	L 112.535, 510.861 
	L 112.171, 509.408 
" />
<path d="M 111.085, 512.987 
	L 111.084, 512.987 
	L 111.153, 517.925 
	L 109.339, 515.115 
	L 111.084, 512.987 
" />
<path d="M 118.197, 496.658 
	L 118.196, 496.659 
	L 118.832, 498.126 
	L 120.607, 503.892 
	L 118.196, 496.659 
" />
<path d="M 111.085, 512.987 
	L 111.084, 512.987 
	L 109.339, 515.115 
	L 112.535, 510.861 
	L 111.084, 512.987 
" />
<path d="M 116.718, 509.849 
	L 116.717, 509.850 
	L 113.905, 511.524 
	L 113.696, 508.163 
	L 116.717, 509.850 
" />
<path d="M 108.534, 517.285 
	L 108.534, 517.285 
	L 106.124, 516.760 
	L 106.488, 516.838 
	L 108.534, 517.285 
" />
<path d="M 119.158, 508.031 
	L 119.157, 508.032 
	L 116.717, 509.850 
	L 120.167, 505.265 
	L 119.157, 508.032 
" />
<path d="M 116.870, 507.429 
	L 116.869, 507.430 
	L 116.717, 509.850 
	L 113.696, 508.163 
	L 116.869, 507.430 
" />
<path d="M 86.280, 472.421 
	L 86.280, 472.422 
	L 84.995, 474.598 
	L 83.481, 475.968 
	L 86.280, 472.422 
" />
<path d="M 116.525, 488.412 
	L 116.524, 488.412 
	L 118.650, 492.666 
	L 116.184, 488.458 
	L 116.524, 488.412 
" />
<path d="M 115.978, 484.091 
	L 115.977, 484.092 
	L 116.524, 488.412 
	L 114.876, 486.384 
	L 115.977, 484.092 
" />
<path d="M 113.248, 477.646 
	L 113.248, 477.647 
	L 114.890, 482.324 
	L 111.508, 478.574 
	L 113.248, 477.647 
" />
<path d="M 75.613, 507.085 
	L 75.612, 507.086 
	L 78.177, 512.153 
	L 77.701, 512.885 
	L 75.612, 507.086 
" />
<path d="M 83.259, 478.457 
	L 83.258, 478.458 
	L 80.855, 479.091 
	L 83.481, 475.968 
	L 83.258, 478.458 
" />
<path d="M 116.184, 488.458 
	L 116.184, 488.458 
	L 114.876, 486.384 
	L 116.524, 488.412 
	L 116.184, 488.458 
" />
<path d="M 116.718, 509.849 
	L 116.717, 509.850 
	L 116.869, 507.430 
	L 120.167, 505.265 
	L 116.717, 509.850 
" />
<path d="M 77.702, 512.884 
	L 77.701, 512.885 
	L 78.177, 512.153 
	L 79.090, 516.265 
	L 77.701, 512.885 
" />
<path d="M 97.741, 521.704 
	L 97.740, 521.705 
	L 88.313, 520.947 
	L 94.625, 520.751 
	L 97.740, 521.705 
" />
<path d="M 93.562, 518.774 
	L 93.561, 518.775 
	L 94.625, 520.751 
	L 92.718, 519.101 
	L 93.561, 518.775 
" />
<path d="M 88.246, 469.712 
	L 88.245, 469.713 
	L 84.995, 474.598 
	L 86.280, 472.422 
	L 88.245, 469.713 
" />
<path d="M 94.626, 520.750 
	L 94.625, 520.751 
	L 92.697, 519.918 
	L 92.718, 519.101 
	L 94.625, 520.751 
" />
<path d="M 111.154, 517.924 
	L 111.153, 517.925 
	L 112.487, 520.435 
	L 109.339, 515.115 
	L 111.153, 517.925 
" />
<path d="M 92.698, 519.917 
	L 92.697, 519.918 
	L 88.313, 520.947 
	L 90.941, 519.708 
	L 92.697, 519.918 
" />
<path d="M 92.698, 519.917 
	L 92.697, 519.918 
	L 94.625, 520.751 
	L 88.313, 520.947 
	L 92.697, 519.918 
" />
<path d="M 84.996, 474.597 
	L 84.995, 474.598 
	L 83.258, 478.458 
	L 83.481, 475.968 
	L 84.995, 474.598 
" />
<path d="M 83.259, 478.457 
	L 83.258, 478.458 
	L 79.260, 485.795 
	L 80.855, 479.091 
	L 83.258, 478.458 
" />
<path d="M 119.024, 498.644 
	L 119.023, 498.645 
	L 120.607, 503.892 
	L 120.167, 505.265 
	L 119.023, 498.645 
" />
<path d="M 114.890, 482.324 
	L 114.890, 482.324 
	L 115.977, 484.092 
	L 112.925, 480.131 
	L 114.890, 482.324 
" />
<path d="M 113.248, 477.646 
	L 113.248, 477.647 
	L 111.508, 478.574 
	L 111.025, 474.479 
	L 113.248, 477.647 
" />
<path d="M 118.651, 492.665 
	L 118.650, 492.666 
	L 118.196, 496.659 
	L 118.525, 493.564 
	L 118.650, 492.666 
" />
<path d="M 93.616, 518.611 
	L 93.616, 518.612 
	L 94.625, 520.751 
	L 93.013, 519.044 
	L 93.616, 518.612 
" />
<path d="M 106.488, 516.837 
	L 106.488, 516.838 
	L 104.421, 520.766 
	L 105.720, 518.063 
	L 106.488, 516.838 
" />
<path d="M 89.814, 520.326 
	L 89.813, 520.326 
	L 88.313, 520.947 
	L 88.950, 520.177 
	L 89.813, 520.326 
" />
<path d="M 117.983, 488.733 
	L 117.982, 488.734 
	L 118.650, 492.666 
	L 118.525, 493.564 
	L 117.982, 488.734 
" />
<path d="M 116.600, 460.130 
	L 116.600, 460.130 
	L 110.845, 462.913 
	L 115.931, 460.008 
	L 116.600, 460.130 
" />
<path d="M 89.814, 520.326 
	L 89.813, 520.326 
	L 88.950, 520.177 
	L 90.647, 519.575 
	L 89.813, 520.326 
" />
<path d="M 112.925, 480.130 
	L 112.925, 480.131 
	L 115.977, 484.092 
	L 114.876, 486.384 
	L 112.925, 480.131 
" />
<path d="M 120.013, 501.623 
	L 120.012, 501.623 
	L 120.167, 505.265 
	L 116.869, 507.430 
	L 120.012, 501.623 
" />
<path d="M 83.259, 478.457 
	L 83.258, 478.458 
	L 80.480, 483.778 
	L 79.260, 485.795 
	L 83.258, 478.458 
" />
<path d="M 78.805, 489.729 
	L 78.805, 489.730 
	L 77.438, 492.862 
	L 76.857, 489.648 
	L 78.805, 489.730 
" />
<path d="M 117.983, 488.733 
	L 117.982, 488.734 
	L 118.525, 493.564 
	L 117.701, 490.353 
	L 117.982, 488.734 
" />
<path d="M 78.805, 489.729 
	L 78.805, 489.730 
	L 76.857, 489.648 
	L 77.012, 486.642 
	L 78.805, 489.730 
" />
<path d="M 90.324, 520.960 
	L 90.323, 520.961 
	L 88.950, 520.177 
	L 92.289, 522.044 
	L 90.323, 520.961 
" />
<path d="M 93.674, 519.571 
	L 93.674, 519.572 
	L 93.730, 520.770 
	L 92.289, 522.044 
	L 93.674, 519.572 
" />
<path d="M 116.870, 507.429 
	L 116.869, 507.430 
	L 114.094, 509.294 
	L 117.867, 506.393 
	L 116.869, 507.430 
" />
<path d="M 78.178, 512.153 
	L 78.177, 512.153 
	L 79.363, 514.995 
	L 79.090, 516.265 
	L 78.177, 512.153 
" />
<path d="M 83.363, 519.654 
	L 83.363, 519.655 
	L 80.640, 517.949 
	L 86.074, 520.395 
	L 83.363, 519.655 
" />
<path d="M 80.641, 517.948 
	L 80.640, 517.949 
	L 79.090, 516.265 
	L 79.363, 514.995 
	L 80.640, 517.949 
" />
<path d="M 102.825, 522.532 
	L 102.824, 522.533 
	L 94.130, 523.367 
	L 88.758, 522.892 
	L 102.824, 522.533 
" />
<path d="M 86.075, 520.394 
	L 86.074, 520.395 
	L 88.758, 522.892 
	L 83.363, 519.655 
	L 86.074, 520.395 
" />
<path d="M 118.064, 487.461 
	L 118.064, 487.462 
	L 117.701, 490.353 
	L 114.678, 488.434 
	L 118.064, 487.462 
" />
<path d="M 80.506, 487.805 
	L 80.505, 487.806 
	L 78.805, 489.730 
	L 77.012, 486.642 
	L 80.505, 487.806 
" />
<path d="M 112.787, 519.791 
	L 112.786, 519.792 
	L 112.487, 520.435 
	L 110.692, 521.635 
	L 112.786, 519.792 
" />
<path d="M 118.777, 484.994 
	L 118.777, 484.995 
	L 117.701, 490.353 
	L 118.064, 487.462 
	L 118.777, 484.995 
" />
<path d="M 77.204, 484.559 
	L 77.204, 484.559 
	L 77.793, 482.448 
	L 77.012, 486.642 
	L 77.204, 484.559 
" />
<path d="M 112.925, 480.130 
	L 112.925, 480.131 
	L 114.876, 486.384 
	L 113.399, 482.674 
	L 112.925, 480.131 
" />
<path d="M 80.506, 487.805 
	L 80.505, 487.806 
	L 76.914, 491.967 
	L 78.805, 489.730 
	L 80.505, 487.806 
" />
<path d="M 112.787, 519.791 
	L 112.786, 519.792 
	L 110.692, 521.635 
	L 108.282, 519.871 
	L 112.786, 519.792 
" />
<path d="M 80.588, 485.965 
	L 80.588, 485.966 
	L 80.505, 487.806 
	L 77.012, 486.642 
	L 80.588, 485.966 
" />
<path d="M 117.702, 490.352 
	L 117.701, 490.353 
	L 118.525, 493.564 
	L 118.025, 495.447 
	L 117.701, 490.353 
" />
<path d="M 115.919, 489.754 
	L 115.918, 489.755 
	L 114.678, 488.434 
	L 117.701, 490.353 
	L 115.918, 489.755 
" />
<path d="M 114.793, 487.223 
	L 114.792, 487.224 
	L 118.064, 487.462 
	L 114.678, 488.434 
	L 114.792, 487.224 
" />
<path d="M 118.777, 484.994 
	L 118.777, 484.995 
	L 118.064, 487.462 
	L 114.792, 487.224 
	L 118.777, 484.995 
" />
<path d="M 118.526, 493.564 
	L 118.525, 493.564 
	L 120.012, 501.623 
	L 118.025, 495.447 
	L 118.525, 493.564 
" />
<path d="M 75.992, 497.413 
	L 75.991, 497.414 
	L 75.576, 503.718 
	L 74.446, 504.554 
	L 75.991, 497.414 
" />
<path d="M 76.915, 491.966 
	L 76.914, 491.967 
	L 77.994, 494.277 
	L 75.991, 497.414 
	L 76.914, 491.967 
" />
<path d="M 74.447, 504.553 
	L 74.446, 504.554 
	L 75.198, 507.807 
	L 74.833, 509.065 
	L 74.446, 504.554 
" />
<path d="M 82.684, 478.327 
	L 82.683, 478.328 
	L 81.832, 481.202 
	L 80.480, 483.778 
	L 82.683, 478.328 
" />
<path d="M 80.588, 485.965 
	L 80.588, 485.966 
	L 77.012, 486.642 
	L 78.734, 484.209 
	L 80.588, 485.966 
" />
<path d="M 82.933, 462.594 
	L 82.933, 462.594 
	L 79.926, 459.607 
	L 82.398, 458.366 
	L 82.933, 462.594 
" />
<path d="M 77.013, 486.641 
	L 77.012, 486.642 
	L 77.793, 482.448 
	L 78.734, 484.209 
	L 77.012, 486.642 
" />
<path d="M 115.919, 489.754 
	L 115.918, 489.755 
	L 117.701, 490.353 
	L 118.025, 495.447 
	L 115.918, 489.755 
" />
<path d="M 79.364, 514.994 
	L 79.363, 514.995 
	L 83.580, 519.494 
	L 80.640, 517.949 
	L 79.363, 514.995 
" />
<path d="M 75.992, 497.413 
	L 75.991, 497.414 
	L 77.994, 494.277 
	L 75.576, 503.718 
	L 75.991, 497.414 
" />
<path d="M 115.442, 514.358 
	L 115.441, 514.359 
	L 114.177, 515.098 
	L 117.208, 512.340 
	L 115.441, 514.359 
" />
<path d="M 74.833, 509.064 
	L 74.833, 509.065 
	L 75.198, 507.807 
	L 77.172, 513.291 
	L 74.833, 509.065 
" />
<path d="M 75.577, 503.717 
	L 75.576, 503.718 
	L 75.198, 507.807 
	L 74.446, 504.554 
	L 75.576, 503.718 
" />
<path d="M 82.399, 458.365 
	L 82.398, 458.366 
	L 83.918, 465.021 
	L 82.933, 462.594 
	L 82.398, 458.366 
" />
<path d="M 90.882, 522.262 
	L 90.882, 522.263 
	L 88.758, 522.892 
	L 86.074, 520.395 
	L 90.882, 522.263 
" />
<path d="M 81.833, 481.201 
	L 81.832, 481.202 
	L 77.793, 482.448 
	L 78.634, 481.866 
	L 81.832, 481.202 
" />
<path d="M 112.787, 519.791 
	L 112.786, 519.792 
	L 108.282, 519.871 
	L 110.607, 519.109 
	L 112.786, 519.792 
" />
<path d="M 118.777, 484.994 
	L 118.777, 484.995 
	L 116.250, 486.487 
	L 117.048, 482.773 
	L 118.777, 484.995 
" />
<path d="M 79.278, 488.578 
	L 79.277, 488.579 
	L 77.994, 494.277 
	L 76.914, 491.967 
	L 79.277, 488.579 
" />
<path d="M 115.932, 460.007 
	L 115.931, 460.008 
	L 113.572, 462.251 
	L 114.542, 457.870 
	L 115.931, 460.008 
" />
<path d="M 120.013, 501.623 
	L 120.012, 501.623 
	L 117.867, 506.393 
	L 117.381, 503.982 
	L 120.012, 501.623 
" />
<path d="M 82.684, 478.327 
	L 82.683, 478.328 
	L 82.756, 478.563 
	L 81.832, 481.202 
	L 82.683, 478.328 
" />
<path d="M 98.488, 519.413 
	L 98.487, 519.413 
	L 98.048, 519.722 
	L 98.048, 519.008 
	L 98.487, 519.413 
" />
<path d="M 103.404, 523.974 
	L 103.404, 523.975 
	L 88.758, 522.892 
	L 100.512, 523.696 
	L 103.404, 523.975 
" />
<path d="M 118.025, 495.447 
	L 118.025, 495.447 
	L 120.012, 501.623 
	L 117.381, 503.982 
	L 118.025, 495.447 
" />
<path d="M 115.919, 489.754 
	L 115.918, 489.755 
	L 118.025, 495.447 
	L 116.391, 493.165 
	L 115.918, 489.755 
" />
<path d="M 108.602, 521.008 
	L 108.601, 521.009 
	L 105.358, 523.120 
	L 105.523, 521.816 
	L 108.601, 521.009 
" />
<path d="M 98.048, 519.007 
	L 98.048, 519.008 
	L 98.048, 519.722 
	L 96.171, 518.925 
	L 98.048, 519.008 
" />
<path d="M 94.158, 522.634 
	L 94.157, 522.634 
	L 88.758, 522.892 
	L 90.882, 522.263 
	L 94.157, 522.634 
" />
<path d="M 98.048, 519.722 
	L 98.048, 519.722 
	L 98.115, 521.106 
	L 96.171, 518.925 
	L 98.048, 519.722 
" />
<path d="M 105.359, 523.120 
	L 105.358, 523.120 
	L 104.550, 524.608 
	L 105.523, 521.816 
	L 105.358, 523.120 
" />
<path d="M 113.557, 471.258 
	L 113.556, 471.258 
	L 112.925, 480.131 
	L 112.920, 473.802 
	L 113.556, 471.258 
" />
<path d="M 82.684, 478.327 
	L 82.683, 478.328 
	L 82.263, 467.229 
	L 82.756, 478.563 
	L 82.683, 478.328 
" />
<path d="M 77.793, 482.448 
	L 77.793, 482.448 
	L 81.339, 481.259 
	L 78.734, 484.209 
	L 77.793, 482.448 
" />
<path d="M 104.550, 524.607 
	L 104.550, 524.608 
	L 105.358, 523.120 
	L 105.215, 526.619 
	L 104.550, 524.608 
" />
<path d="M 96.172, 518.924 
	L 96.171, 518.925 
	L 98.115, 521.106 
	L 95.375, 519.398 
	L 96.171, 518.925 
" />
<path d="M 103.404, 523.974 
	L 103.404, 523.975 
	L 104.550, 524.608 
	L 105.215, 526.619 
	L 103.404, 523.975 
" />
<path d="M 112.787, 519.791 
	L 112.786, 519.792 
	L 110.607, 519.109 
	L 113.738, 517.376 
	L 112.786, 519.792 
" />
<path d="M 117.868, 506.393 
	L 117.867, 506.393 
	L 115.965, 507.993 
	L 117.381, 503.982 
	L 117.867, 506.393 
" />
<path d="M 117.209, 512.340 
	L 117.208, 512.340 
	L 114.177, 515.098 
	L 117.798, 510.721 
	L 117.208, 512.340 
" />
<path d="M 117.049, 482.772 
	L 117.048, 482.773 
	L 116.250, 486.487 
	L 113.973, 481.927 
	L 117.048, 482.773 
" />
<path d="M 78.734, 484.208 
	L 78.734, 484.209 
	L 81.339, 481.259 
	L 79.277, 488.579 
	L 78.734, 484.209 
" />
<path d="M 100.512, 523.695 
	L 100.512, 523.696 
	L 88.758, 522.892 
	L 94.157, 522.634 
	L 100.512, 523.696 
" />
<path d="M 82.399, 458.365 
	L 82.398, 458.366 
	L 82.463, 457.288 
	L 83.918, 465.021 
	L 82.398, 458.366 
" />
<path d="M 90.882, 522.262 
	L 90.882, 522.263 
	L 86.884, 521.503 
	L 92.665, 521.021 
	L 90.882, 522.263 
" />
<path d="M 118.025, 495.447 
	L 118.025, 495.447 
	L 117.181, 501.484 
	L 116.391, 493.165 
	L 118.025, 495.447 
" />
<path d="M 79.278, 488.578 
	L 79.277, 488.579 
	L 81.339, 481.259 
	L 78.523, 491.748 
	L 79.277, 488.579 
" />
<path d="M 94.158, 522.634 
	L 94.157, 522.634 
	L 90.882, 522.263 
	L 92.665, 521.021 
	L 94.157, 522.634 
" />
<path d="M 86.330, 520.569 
	L 86.329, 520.570 
	L 86.884, 521.503 
	L 83.580, 519.494 
	L 86.329, 520.570 
" />
<path d="M 82.264, 467.228 
	L 82.263, 467.229 
	L 83.144, 473.891 
	L 82.756, 478.563 
	L 82.263, 467.229 
" />
<path d="M 117.309, 490.728 
	L 117.308, 490.728 
	L 115.602, 488.204 
	L 116.250, 486.487 
	L 117.308, 490.728 
" />
<path d="M 113.973, 481.926 
	L 113.973, 481.927 
	L 116.250, 486.487 
	L 115.602, 488.204 
	L 113.973, 481.927 
" />
<path d="M 92.666, 521.020 
	L 92.665, 521.021 
	L 86.884, 521.503 
	L 86.329, 520.570 
	L 92.665, 521.021 
" />
<path d="M 118.025, 495.447 
	L 118.025, 495.447 
	L 117.381, 503.982 
	L 117.181, 501.484 
	L 118.025, 495.447 
" />
<path d="M 73.969, 505.460 
	L 73.968, 505.461 
	L 75.167, 510.493 
	L 75.671, 514.845 
	L 73.968, 505.461 
" />
<path d="M 78.524, 491.747 
	L 78.523, 491.748 
	L 77.814, 500.251 
	L 75.774, 502.383 
	L 78.523, 491.748 
" />
<path d="M 75.775, 502.382 
	L 75.774, 502.383 
	L 76.392, 502.955 
	L 73.282, 504.296 
	L 75.774, 502.383 
" />
<path d="M 98.998, 521.343 
	L 98.997, 521.344 
	L 97.139, 521.390 
	L 97.298, 519.486 
	L 98.997, 521.344 
" />
<path d="M 77.815, 500.251 
	L 77.814, 500.251 
	L 76.392, 502.955 
	L 75.774, 502.383 
	L 77.814, 500.251 
" />
<path d="M 116.392, 493.164 
	L 116.391, 493.165 
	L 117.181, 501.484 
	L 115.831, 497.123 
	L 116.391, 493.165 
" />
<path d="M 113.739, 517.375 
	L 113.738, 517.376 
	L 110.607, 519.109 
	L 114.124, 515.025 
	L 113.738, 517.376 
" />
<path d="M 99.954, 519.876 
	L 99.953, 519.877 
	L 99.515, 521.693 
	L 98.997, 521.344 
	L 99.953, 519.877 
" />
<path d="M 114.542, 457.869 
	L 114.542, 457.870 
	L 113.556, 471.258 
	L 112.900, 463.269 
	L 114.542, 457.870 
" />
<path d="M 113.557, 471.258 
	L 113.556, 471.258 
	L 112.920, 473.802 
	L 112.900, 463.269 
	L 113.556, 471.258 
" />
<path d="M 75.168, 510.492 
	L 75.167, 510.493 
	L 76.588, 513.001 
	L 75.671, 514.845 
	L 75.167, 510.493 
" />
<path d="M 82.799, 463.997 
	L 82.799, 463.998 
	L 83.144, 473.891 
	L 82.263, 467.229 
	L 82.799, 463.998 
" />
<path d="M 112.920, 473.801 
	L 112.920, 473.802 
	L 113.973, 481.927 
	L 111.854, 472.615 
	L 112.920, 473.802 
" />
<path d="M 117.382, 503.982 
	L 117.381, 503.982 
	L 117.798, 510.721 
	L 117.289, 504.807 
	L 117.381, 503.982 
" />
<path d="M 99.516, 521.693 
	L 99.515, 521.693 
	L 97.139, 521.390 
	L 98.997, 521.344 
	L 99.515, 521.693 
" />
<path d="M 104.550, 524.607 
	L 104.550, 524.608 
	L 103.115, 524.454 
	L 105.607, 523.323 
	L 104.550, 524.608 
" />
<path d="M 82.464, 457.287 
	L 82.463, 457.288 
	L 82.799, 463.998 
	L 82.263, 467.229 
	L 82.463, 457.288 
" />
<path d="M 101.418, 520.768 
	L 101.417, 520.769 
	L 101.555, 522.354 
	L 99.953, 519.877 
	L 101.417, 520.769 
" />
<path d="M 95.703, 520.941 
	L 95.702, 520.941 
	L 97.298, 519.486 
	L 97.139, 521.390 
	L 95.702, 520.941 
" />
<path d="M 117.309, 490.728 
	L 117.308, 490.728 
	L 115.324, 491.870 
	L 115.602, 488.204 
	L 117.308, 490.728 
" />
<path d="M 103.115, 524.453 
	L 103.115, 524.454 
	L 100.512, 523.696 
	L 102.740, 522.915 
	L 103.115, 524.454 
" />
<path d="M 78.524, 491.747 
	L 78.523, 491.748 
	L 80.125, 494.879 
	L 77.814, 500.251 
	L 78.523, 491.748 
" />
<path d="M 117.309, 490.728 
	L 117.308, 490.728 
	L 115.831, 497.123 
	L 115.324, 491.870 
	L 117.308, 490.728 
" />
<path d="M 117.181, 501.483 
	L 117.181, 501.484 
	L 117.381, 503.982 
	L 117.289, 504.807 
	L 117.181, 501.484 
" />
<path d="M 78.524, 491.747 
	L 78.523, 491.748 
	L 78.433, 488.316 
	L 80.125, 494.879 
	L 78.523, 491.748 
" />
<path d="M 81.929, 517.872 
	L 81.928, 517.873 
	L 77.800, 518.072 
	L 75.671, 514.845 
	L 81.928, 517.873 
" />
<path d="M 81.300, 515.311 
	L 81.299, 515.312 
	L 75.671, 514.845 
	L 76.588, 513.001 
	L 81.299, 515.312 
" />
<path d="M 84.374, 471.353 
	L 84.373, 471.353 
	L 83.144, 473.891 
	L 82.799, 463.998 
	L 84.373, 471.353 
" />
<path d="M 112.920, 473.801 
	L 112.920, 473.802 
	L 111.854, 472.615 
	L 112.900, 463.269 
	L 112.920, 473.802 
" />
<path d="M 101.183, 521.406 
	L 101.183, 521.407 
	L 99.515, 521.693 
	L 99.953, 519.877 
	L 101.183, 521.407 
" />
<path d="M 86.330, 520.569 
	L 86.329, 520.570 
	L 77.800, 518.072 
	L 84.329, 519.286 
	L 86.329, 520.570 
" />
<path d="M 113.739, 517.375 
	L 113.738, 517.376 
	L 114.124, 515.025 
	L 117.590, 512.286 
	L 113.738, 517.376 
" />
<path d="M 117.181, 501.483 
	L 117.181, 501.484 
	L 113.514, 499.158 
	L 115.831, 497.123 
	L 117.181, 501.484 
" />
<path d="M 114.542, 457.869 
	L 114.542, 457.870 
	L 112.900, 463.269 
	L 112.681, 456.764 
	L 114.542, 457.870 
" />
<path d="M 99.516, 521.693 
	L 99.515, 521.693 
	L 98.017, 522.173 
	L 97.139, 521.390 
	L 99.515, 521.693 
" />
<path d="M 80.126, 494.878 
	L 80.125, 494.879 
	L 77.902, 501.039 
	L 77.814, 500.251 
	L 80.125, 494.879 
" />
<path d="M 115.831, 497.122 
	L 115.831, 497.123 
	L 113.514, 499.158 
	L 115.324, 491.870 
	L 115.831, 497.123 
" />
<path d="M 74.153, 507.938 
	L 74.152, 507.939 
	L 76.400, 512.829 
	L 75.167, 510.493 
	L 74.152, 507.939 
" />
<path d="M 97.140, 521.389 
	L 97.139, 521.390 
	L 96.099, 521.763 
	L 95.702, 520.941 
	L 97.139, 521.390 
" />
<path d="M 81.929, 517.872 
	L 81.928, 517.873 
	L 75.671, 514.845 
	L 81.299, 515.312 
	L 81.928, 517.873 
" />
<path d="M 105.608, 523.322 
	L 105.607, 523.323 
	L 103.115, 524.454 
	L 102.740, 522.915 
	L 105.607, 523.323 
" />
<path d="M 101.183, 521.406 
	L 101.183, 521.407 
	L 98.017, 522.173 
	L 99.515, 521.693 
	L 101.183, 521.407 
" />
<path d="M 77.903, 501.039 
	L 77.902, 501.039 
	L 74.619, 500.790 
	L 77.814, 500.251 
	L 77.902, 501.039 
" />
<path d="M 97.140, 521.389 
	L 97.139, 521.390 
	L 98.017, 522.173 
	L 96.099, 521.763 
	L 97.139, 521.390 
" />
<path d="M 87.309, 520.917 
	L 87.309, 520.917 
	L 86.329, 520.570 
	L 84.329, 519.286 
	L 87.309, 520.917 
" />
<path d="M 78.433, 488.315 
	L 78.433, 488.316 
	L 79.832, 490.499 
	L 80.125, 494.879 
	L 78.433, 488.316 
" />
<path d="M 82.464, 457.287 
	L 82.463, 457.288 
	L 85.034, 456.182 
	L 82.799, 463.998 
	L 82.463, 457.288 
" />
<path d="M 81.300, 515.311 
	L 81.299, 515.312 
	L 76.588, 513.001 
	L 76.400, 512.829 
	L 81.299, 515.312 
" />
<path d="M 79.481, 483.793 
	L 79.481, 483.794 
	L 79.832, 490.499 
	L 78.433, 488.316 
	L 79.481, 483.794 
" />
<path d="M 84.330, 519.285 
	L 84.329, 519.286 
	L 77.800, 518.072 
	L 81.928, 517.873 
	L 84.329, 519.286 
" />
<path d="M 117.181, 501.483 
	L 117.181, 501.484 
	L 113.771, 503.544 
	L 113.514, 499.158 
	L 117.181, 501.484 
" />
<path d="M 117.181, 501.483 
	L 117.181, 501.484 
	L 117.289, 504.807 
	L 113.771, 503.544 
	L 117.181, 501.484 
" />
<path d="M 74.246, 506.017 
	L 74.245, 506.018 
	L 74.152, 507.939 
	L 73.282, 504.296 
	L 74.245, 506.018 
" />
<path d="M 109.091, 521.077 
	L 109.090, 521.077 
	L 106.889, 522.005 
	L 108.712, 520.216 
	L 109.090, 521.077 
" />
<path d="M 115.307, 478.775 
	L 115.306, 478.775 
	L 115.934, 484.486 
	L 115.324, 491.870 
	L 115.306, 478.775 
" />
<path d="M 85.034, 456.181 
	L 85.034, 456.182 
	L 84.373, 471.353 
	L 82.799, 463.998 
	L 85.034, 456.182 
" />
<path d="M 74.620, 500.789 
	L 74.619, 500.790 
	L 74.245, 506.018 
	L 73.282, 504.296 
	L 74.619, 500.790 
" />
<path d="M 112.900, 463.268 
	L 112.900, 463.269 
	L 111.854, 472.615 
	L 109.349, 467.500 
	L 112.900, 463.269 
" />
<path d="M 81.044, 505.815 
	L 81.043, 505.816 
	L 78.141, 504.196 
	L 77.902, 501.039 
	L 81.043, 505.816 
" />
<path d="M 80.126, 494.878 
	L 80.125, 494.879 
	L 81.887, 501.130 
	L 77.902, 501.039 
	L 80.125, 494.879 
" />
<path d="M 77.903, 501.039 
	L 77.902, 501.039 
	L 78.141, 504.196 
	L 77.722, 502.756 
	L 77.902, 501.039 
" />
<path d="M 78.142, 504.196 
	L 78.141, 504.196 
	L 80.029, 505.382 
	L 78.154, 505.147 
	L 78.141, 504.196 
" />
<path d="M 77.903, 501.039 
	L 77.902, 501.039 
	L 77.722, 502.756 
	L 74.619, 500.790 
	L 77.902, 501.039 
" />
<path d="M 81.044, 505.815 
	L 81.043, 505.816 
	L 80.029, 505.382 
	L 78.141, 504.196 
	L 81.043, 505.816 
" />
<path d="M 118.928, 507.643 
	L 118.927, 507.643 
	L 113.294, 507.084 
	L 117.289, 504.807 
	L 118.927, 507.643 
" />
<path d="M 81.887, 501.129 
	L 81.887, 501.130 
	L 81.043, 505.816 
	L 77.902, 501.039 
	L 81.887, 501.130 
" />
<path d="M 117.591, 512.286 
	L 117.590, 512.286 
	L 114.124, 515.025 
	L 115.813, 509.063 
	L 117.590, 512.286 
" />
<path d="M 81.044, 505.815 
	L 81.043, 505.816 
	L 79.909, 506.755 
	L 80.029, 505.382 
	L 81.043, 505.816 
" />
<path d="M 77.722, 502.755 
	L 77.722, 502.756 
	L 78.141, 504.196 
	L 77.587, 504.746 
	L 77.722, 502.756 
" />
<path d="M 109.091, 521.077 
	L 109.090, 521.077 
	L 108.712, 520.216 
	L 110.972, 520.810 
	L 109.090, 521.077 
" />
<path d="M 118.928, 507.643 
	L 118.927, 507.643 
	L 117.590, 512.286 
	L 115.813, 509.063 
	L 118.927, 507.643 
" />
<path d="M 112.682, 456.763 
	L 112.681, 456.764 
	L 112.900, 463.269 
	L 107.481, 464.268 
	L 112.681, 456.764 
" />
<path d="M 97.984, 520.976 
	L 97.983, 520.977 
	L 99.646, 520.231 
	L 98.654, 521.321 
	L 97.983, 520.977 
" />
<path d="M 117.290, 504.807 
	L 117.289, 504.807 
	L 113.294, 507.084 
	L 113.771, 503.544 
	L 117.289, 504.807 
" />
<path d="M 111.854, 472.614 
	L 111.854, 472.615 
	L 115.306, 478.775 
	L 112.241, 474.078 
	L 111.854, 472.615 
" />
<path d="M 105.608, 523.322 
	L 105.607, 523.323 
	L 102.740, 522.915 
	L 101.142, 522.352 
	L 105.607, 523.323 
" />
<path d="M 115.325, 491.869 
	L 115.324, 491.870 
	L 113.514, 499.158 
	L 113.372, 496.862 
	L 115.324, 491.870 
" />
<path d="M 83.309, 507.145 
	L 83.308, 507.146 
	L 80.902, 506.665 
	L 81.043, 505.816 
	L 83.308, 507.146 
" />
<path d="M 98.655, 521.320 
	L 98.654, 521.321 
	L 96.173, 522.697 
	L 97.970, 521.145 
	L 98.654, 521.321 
" />
<path d="M 85.034, 456.181 
	L 85.034, 456.182 
	L 88.289, 465.114 
	L 84.373, 471.353 
	L 85.034, 456.182 
" />
<path d="M 96.289, 521.717 
	L 96.289, 521.718 
	L 97.970, 521.145 
	L 96.173, 522.697 
	L 96.289, 521.718 
" />
<path d="M 118.928, 507.643 
	L 118.927, 507.643 
	L 115.813, 509.063 
	L 113.294, 507.084 
	L 118.927, 507.643 
" />
<path d="M 88.290, 465.113 
	L 88.289, 465.114 
	L 86.277, 468.675 
	L 84.373, 471.353 
	L 88.289, 465.114 
" />
<path d="M 112.900, 463.268 
	L 112.900, 463.269 
	L 109.349, 467.500 
	L 107.481, 464.268 
	L 112.900, 463.269 
" />
<path d="M 79.982, 514.370 
	L 79.981, 514.371 
	L 76.400, 512.829 
	L 74.152, 507.939 
	L 79.981, 514.371 
" />
<path d="M 109.349, 467.499 
	L 109.349, 467.500 
	L 111.854, 472.615 
	L 112.241, 474.078 
	L 109.349, 467.500 
" />
<path d="M 80.850, 476.055 
	L 80.850, 476.056 
	L 81.880, 475.525 
	L 79.481, 483.794 
	L 80.850, 476.056 
" />
<path d="M 77.722, 502.755 
	L 77.722, 502.756 
	L 77.029, 503.761 
	L 74.619, 500.790 
	L 77.722, 502.756 
" />
<path d="M 96.997, 520.294 
	L 96.997, 520.295 
	L 97.970, 521.145 
	L 96.289, 521.718 
	L 96.997, 520.295 
" />
<path d="M 81.881, 475.525 
	L 81.880, 475.525 
	L 79.832, 490.499 
	L 79.481, 483.794 
	L 81.880, 475.525 
" />
<path d="M 79.833, 490.498 
	L 79.832, 490.499 
	L 80.833, 489.567 
	L 80.125, 494.879 
	L 79.832, 490.499 
" />
<path d="M 82.599, 495.739 
	L 82.598, 495.740 
	L 81.887, 501.130 
	L 80.125, 494.879 
	L 82.598, 495.740 
" />
<path d="M 99.118, 519.296 
	L 99.118, 519.297 
	L 99.758, 520.133 
	L 98.654, 521.321 
	L 99.118, 519.297 
" />
<path d="M 102.741, 522.914 
	L 102.740, 522.915 
	L 96.637, 525.459 
	L 101.142, 522.352 
	L 102.740, 522.915 
" />
<path d="M 77.029, 503.761 
	L 77.029, 503.761 
	L 74.245, 506.018 
	L 74.619, 500.790 
	L 77.029, 503.761 
" />
<path d="M 79.982, 514.370 
	L 79.981, 514.371 
	L 74.152, 507.939 
	L 74.245, 506.018 
	L 79.981, 514.371 
" />
<path d="M 115.307, 478.775 
	L 115.306, 478.775 
	L 115.324, 491.870 
	L 114.569, 489.019 
	L 115.306, 478.775 
" />
<path d="M 83.309, 507.145 
	L 83.308, 507.146 
	L 83.106, 508.939 
	L 82.941, 509.022 
	L 83.308, 507.146 
" />
<path d="M 115.814, 509.063 
	L 115.813, 509.063 
	L 114.124, 515.025 
	L 114.036, 514.296 
	L 115.813, 509.063 
" />
<path d="M 83.107, 508.939 
	L 83.106, 508.939 
	L 83.520, 509.456 
	L 82.941, 509.022 
	L 83.106, 508.939 
" />
<path d="M 78.513, 514.396 
	L 78.513, 514.397 
	L 76.400, 512.829 
	L 79.981, 514.371 
	L 78.513, 514.397 
" />
<path d="M 112.682, 456.763 
	L 112.681, 456.764 
	L 107.481, 464.268 
	L 106.425, 455.657 
	L 112.681, 456.764 
" />
<path d="M 114.125, 515.025 
	L 114.124, 515.025 
	L 113.732, 515.960 
	L 114.036, 514.296 
	L 114.124, 515.025 
" />
<path d="M 86.278, 468.674 
	L 86.277, 468.675 
	L 81.880, 475.525 
	L 80.850, 476.056 
	L 86.277, 468.675 
" />
<path d="M 81.887, 501.129 
	L 81.887, 501.130 
	L 83.295, 504.224 
	L 81.043, 505.816 
	L 81.887, 501.130 
" />
<path d="M 99.118, 519.296 
	L 99.118, 519.297 
	L 99.045, 518.053 
	L 99.758, 520.133 
	L 99.118, 519.297 
" />
<path d="M 113.515, 499.157 
	L 113.514, 499.158 
	L 113.771, 503.544 
	L 113.122, 502.084 
	L 113.514, 499.158 
" />
<path d="M 91.490, 524.554 
	L 91.489, 524.555 
	L 87.784, 522.227 
	L 96.637, 525.459 
	L 91.489, 524.555 
" />
<path d="M 83.309, 507.145 
	L 83.308, 507.146 
	L 83.855, 508.385 
	L 83.106, 508.939 
	L 83.308, 507.146 
" />
<path d="M 96.997, 520.294 
	L 96.997, 520.295 
	L 97.140, 520.813 
	L 96.175, 520.415 
	L 96.997, 520.295 
" />
<path d="M 89.992, 460.809 
	L 89.992, 460.810 
	L 88.289, 465.114 
	L 85.034, 456.182 
	L 89.992, 460.810 
" />
<path d="M 115.814, 509.063 
	L 115.813, 509.063 
	L 115.620, 509.200 
	L 113.294, 507.084 
	L 115.813, 509.063 
" />
<path d="M 112.241, 474.077 
	L 112.241, 474.078 
	L 115.306, 478.775 
	L 113.418, 478.254 
	L 112.241, 474.078 
" />
<path d="M 99.046, 518.052 
	L 99.045, 518.053 
	L 97.930, 517.978 
	L 99.302, 517.703 
	L 99.045, 518.053 
" />
<path d="M 81.044, 505.815 
	L 81.043, 505.816 
	L 83.295, 504.224 
	L 83.855, 508.385 
	L 81.043, 505.816 
" />
<path d="M 99.303, 517.702 
	L 99.302, 517.703 
	L 99.758, 520.133 
	L 99.045, 518.053 
	L 99.302, 517.703 
" />
<path d="M 79.982, 514.370 
	L 79.981, 514.371 
	L 81.185, 519.238 
	L 78.513, 514.397 
	L 79.981, 514.371 
" />
<path d="M 77.722, 502.755 
	L 77.722, 502.756 
	L 80.023, 505.268 
	L 77.029, 503.761 
	L 77.722, 502.756 
" />
<path d="M 85.494, 511.319 
	L 85.493, 511.320 
	L 83.305, 510.980 
	L 83.106, 508.939 
	L 85.493, 511.320 
" />
<path d="M 113.515, 499.157 
	L 113.514, 499.158 
	L 113.122, 502.084 
	L 113.372, 496.862 
	L 113.514, 499.158 
" />
<path d="M 113.772, 503.543 
	L 113.771, 503.544 
	L 113.294, 507.084 
	L 113.122, 502.084 
	L 113.771, 503.544 
" />
<path d="M 80.833, 489.566 
	L 80.833, 489.567 
	L 82.598, 495.740 
	L 80.125, 494.879 
	L 80.833, 489.567 
" />
<path d="M 96.383, 518.348 
	L 96.382, 518.349 
	L 97.930, 517.978 
	L 97.080, 518.274 
	L 96.382, 518.349 
" />
<path d="M 115.325, 491.869 
	L 115.324, 491.870 
	L 113.372, 496.862 
	L 114.569, 489.019 
	L 115.324, 491.870 
" />
<path d="M 87.532, 513.335 
	L 87.532, 513.335 
	L 85.224, 513.302 
	L 86.829, 512.411 
	L 87.532, 513.335 
" />
<path d="M 83.855, 508.385 
	L 83.855, 508.385 
	L 85.493, 511.320 
	L 83.106, 508.939 
	L 83.855, 508.385 
" />
<path d="M 85.225, 513.301 
	L 85.224, 513.302 
	L 85.419, 512.627 
	L 86.829, 512.411 
	L 85.224, 513.302 
" />
<path d="M 90.449, 515.399 
	L 90.449, 515.400 
	L 93.178, 516.871 
	L 90.379, 516.184 
	L 90.449, 515.400 
" />
<path d="M 114.428, 518.260 
	L 114.427, 518.260 
	L 110.972, 520.810 
	L 108.712, 520.216 
	L 114.427, 518.260 
" />
<path d="M 105.608, 523.322 
	L 105.607, 523.323 
	L 101.142, 522.352 
	L 104.523, 522.396 
	L 105.607, 523.323 
" />
<path d="M 90.449, 515.399 
	L 90.449, 515.400 
	L 89.352, 515.307 
	L 89.300, 514.775 
	L 90.449, 515.400 
" />
<path d="M 94.456, 455.063 
	L 94.455, 455.064 
	L 89.992, 460.810 
	L 85.034, 456.182 
	L 94.455, 455.064 
" />
<path d="M 83.855, 508.385 
	L 83.855, 508.385 
	L 86.829, 512.411 
	L 85.493, 511.320 
	L 83.855, 508.385 
" />
<path d="M 86.830, 512.410 
	L 86.829, 512.411 
	L 85.946, 513.478 
	L 85.206, 513.067 
	L 86.829, 512.411 
" />
<path d="M 115.814, 509.063 
	L 115.813, 509.063 
	L 114.036, 514.296 
	L 115.620, 509.200 
	L 115.813, 509.063 
" />
<path d="M 113.418, 478.253 
	L 113.418, 478.254 
	L 115.306, 478.775 
	L 114.569, 489.019 
	L 113.418, 478.254 
" />
<path d="M 99.303, 517.702 
	L 99.302, 517.703 
	L 103.072, 519.905 
	L 99.758, 520.133 
	L 99.302, 517.703 
" />
<path d="M 95.224, 516.910 
	L 95.224, 516.911 
	L 93.178, 516.871 
	L 90.449, 515.400 
	L 95.224, 516.911 
" />
<path d="M 86.830, 512.410 
	L 86.829, 512.411 
	L 85.206, 513.067 
	L 85.493, 511.320 
	L 86.829, 512.411 
" />
<path d="M 80.023, 505.267 
	L 80.023, 505.268 
	L 80.092, 506.196 
	L 80.138, 507.996 
	L 80.023, 505.268 
" />
<path d="M 77.029, 503.761 
	L 77.029, 503.761 
	L 78.370, 507.940 
	L 74.245, 506.018 
	L 77.029, 503.761 
" />
<path d="M 83.855, 508.385 
	L 83.855, 508.385 
	L 88.267, 512.882 
	L 86.829, 512.411 
	L 83.855, 508.385 
" />
<path d="M 88.267, 512.881 
	L 88.267, 512.882 
	L 89.300, 514.775 
	L 88.380, 514.316 
	L 88.267, 512.882 
" />
<path d="M 99.303, 517.702 
	L 99.302, 517.703 
	L 96.382, 518.349 
	L 97.250, 516.842 
	L 99.302, 517.703 
" />
<path d="M 99.759, 520.132 
	L 99.758, 520.133 
	L 98.957, 521.091 
	L 97.123, 519.438 
	L 99.758, 520.133 
" />
<path d="M 97.250, 516.842 
	L 97.250, 516.842 
	L 96.382, 518.349 
	L 95.905, 516.763 
	L 97.250, 516.842 
" />
<path d="M 85.947, 513.478 
	L 85.946, 513.478 
	L 85.616, 514.108 
	L 85.206, 513.067 
	L 85.946, 513.478 
" />
<path d="M 103.073, 519.904 
	L 103.072, 519.905 
	L 101.684, 521.372 
	L 99.758, 520.133 
	L 103.072, 519.905 
" />
<path d="M 99.759, 520.132 
	L 99.758, 520.133 
	L 101.684, 521.372 
	L 98.957, 521.091 
	L 99.758, 520.133 
" />
<path d="M 81.881, 475.525 
	L 81.880, 475.525 
	L 82.247, 484.713 
	L 79.832, 490.499 
	L 81.880, 475.525 
" />
<path d="M 78.371, 507.939 
	L 78.370, 507.940 
	L 79.981, 514.371 
	L 74.245, 506.018 
	L 78.370, 507.940 
" />
<path d="M 101.684, 521.371 
	L 101.684, 521.372 
	L 101.142, 522.352 
	L 98.957, 521.091 
	L 101.684, 521.372 
" />
<path d="M 101.143, 522.352 
	L 101.142, 522.352 
	L 96.637, 525.459 
	L 94.371, 523.709 
	L 101.142, 522.352 
" />
<path d="M 108.144, 519.609 
	L 108.143, 519.610 
	L 108.712, 520.216 
	L 107.206, 521.819 
	L 108.143, 519.610 
" />
<path d="M 97.026, 516.459 
	L 97.026, 516.460 
	L 97.250, 516.842 
	L 95.905, 516.763 
	L 97.026, 516.460 
" />
<path d="M 81.887, 501.129 
	L 81.887, 501.130 
	L 82.746, 500.793 
	L 83.295, 504.224 
	L 81.887, 501.130 
" />
<path d="M 107.206, 521.819 
	L 107.206, 521.819 
	L 105.607, 523.323 
	L 104.523, 522.396 
	L 107.206, 521.819 
" />
<path d="M 82.599, 495.739 
	L 82.598, 495.740 
	L 82.746, 500.793 
	L 81.887, 501.130 
	L 82.598, 495.740 
" />
<path d="M 97.026, 516.459 
	L 97.026, 516.460 
	L 95.905, 516.763 
	L 95.224, 516.911 
	L 97.026, 516.460 
" />
<path d="M 79.833, 490.498 
	L 79.832, 490.499 
	L 82.247, 484.713 
	L 80.833, 489.567 
	L 79.832, 490.499 
" />
<path d="M 110.115, 517.091 
	L 110.114, 517.092 
	L 108.712, 520.216 
	L 108.143, 519.610 
	L 110.114, 517.092 
" />
<path d="M 107.481, 464.268 
	L 107.481, 464.268 
	L 104.895, 464.445 
	L 106.425, 455.657 
	L 107.481, 464.268 
" />
<path d="M 107.481, 464.268 
	L 107.481, 464.268 
	L 109.349, 467.500 
	L 108.736, 470.799 
	L 107.481, 464.268 
" />
<path d="M 95.224, 516.910 
	L 95.224, 516.911 
	L 93.207, 518.891 
	L 93.178, 516.871 
	L 95.224, 516.911 
" />
<path d="M 84.639, 511.723 
	L 84.638, 511.724 
	L 85.206, 513.067 
	L 85.008, 513.347 
	L 84.638, 511.724 
" />
<path d="M 89.992, 460.809 
	L 89.992, 460.810 
	L 92.383, 463.788 
	L 88.289, 465.114 
	L 89.992, 460.810 
" />
<path d="M 79.982, 514.370 
	L 79.981, 514.371 
	L 82.453, 518.847 
	L 81.185, 519.238 
	L 79.981, 514.371 
" />
<path d="M 85.617, 514.108 
	L 85.616, 514.108 
	L 85.008, 513.347 
	L 85.206, 513.067 
	L 85.616, 514.108 
" />
<path d="M 103.073, 519.904 
	L 103.072, 519.905 
	L 99.302, 517.703 
	L 100.200, 517.778 
	L 103.072, 519.905 
" />
<path d="M 101.143, 522.352 
	L 101.142, 522.352 
	L 94.371, 523.709 
	L 98.957, 521.091 
	L 101.142, 522.352 
" />
<path d="M 99.133, 516.411 
	L 99.133, 516.412 
	L 100.200, 517.778 
	L 99.302, 517.703 
	L 99.133, 516.412 
" />
<path d="M 80.023, 505.267 
	L 80.023, 505.268 
	L 78.370, 507.940 
	L 77.029, 503.761 
	L 80.023, 505.268 
" />
<path d="M 109.349, 467.499 
	L 109.349, 467.500 
	L 112.241, 474.078 
	L 108.736, 470.799 
	L 109.349, 467.500 
" />
<path d="M 88.290, 465.113 
	L 88.289, 465.114 
	L 86.919, 471.443 
	L 86.277, 468.675 
	L 88.289, 465.114 
" />
<path d="M 94.017, 512.415 
	L 94.017, 512.415 
	L 90.449, 515.400 
	L 89.300, 514.775 
	L 94.017, 512.415 
" />
<path d="M 99.133, 516.411 
	L 99.133, 516.412 
	L 97.197, 516.773 
	L 95.224, 516.911 
	L 99.133, 516.412 
" />
<path d="M 95.224, 516.910 
	L 95.224, 516.911 
	L 95.386, 517.469 
	L 93.207, 518.891 
	L 95.224, 516.911 
" />
<path d="M 95.224, 516.910 
	L 95.224, 516.911 
	L 90.449, 515.400 
	L 94.017, 512.415 
	L 95.224, 516.911 
" />
<path d="M 114.428, 518.260 
	L 114.427, 518.260 
	L 108.712, 520.216 
	L 110.114, 517.092 
	L 114.427, 518.260 
" />
<path d="M 104.524, 522.395 
	L 104.523, 522.396 
	L 101.142, 522.352 
	L 101.684, 521.372 
	L 104.523, 522.396 
" />
<path d="M 94.017, 512.415 
	L 94.017, 512.415 
	L 89.300, 514.775 
	L 88.267, 512.882 
	L 94.017, 512.415 
" />
<path d="M 88.267, 512.881 
	L 88.267, 512.882 
	L 83.855, 508.385 
	L 89.018, 507.751 
	L 88.267, 512.882 
" />
<path d="M 95.302, 514.229 
	L 95.302, 514.230 
	L 99.133, 516.412 
	L 95.224, 516.911 
	L 95.302, 514.230 
" />
<path d="M 103.073, 519.904 
	L 103.072, 519.905 
	L 104.034, 519.507 
	L 101.684, 521.372 
	L 103.072, 519.905 
" />
<path d="M 89.019, 507.750 
	L 89.018, 507.751 
	L 83.855, 508.385 
	L 83.295, 504.224 
	L 89.018, 507.751 
" />
<path d="M 86.278, 468.674 
	L 86.277, 468.675 
	L 86.919, 471.443 
	L 81.880, 475.525 
	L 86.277, 468.675 
" />
<path d="M 99.133, 516.411 
	L 99.133, 516.412 
	L 97.573, 516.842 
	L 97.197, 516.773 
	L 99.133, 516.412 
" />
<path d="M 84.639, 511.723 
	L 84.638, 511.724 
	L 85.008, 513.347 
	L 84.583, 514.445 
	L 84.638, 511.724 
" />
<path d="M 99.133, 516.411 
	L 99.133, 516.412 
	L 100.023, 516.035 
	L 100.200, 517.778 
	L 99.133, 516.412 
" />
<path d="M 96.638, 525.458 
	L 96.637, 525.459 
	L 89.923, 523.787 
	L 94.371, 523.709 
	L 96.637, 525.459 
" />
<path d="M 85.409, 521.438 
	L 85.408, 521.439 
	L 81.185, 519.238 
	L 82.453, 518.847 
	L 85.408, 521.439 
" />
<path d="M 99.746, 514.271 
	L 99.746, 514.271 
	L 100.023, 516.035 
	L 99.133, 516.412 
	L 99.746, 514.271 
" />
<path d="M 104.034, 519.506 
	L 104.034, 519.507 
	L 103.072, 519.905 
	L 100.200, 517.778 
	L 104.034, 519.507 
" />
<path d="M 105.856, 513.079 
	L 105.855, 513.080 
	L 104.523, 514.339 
	L 99.746, 514.271 
	L 105.855, 513.080 
" />
<path d="M 98.957, 521.090 
	L 98.957, 521.091 
	L 94.371, 523.709 
	L 98.332, 519.754 
	L 98.957, 521.091 
" />
<path d="M 99.746, 514.271 
	L 99.746, 514.271 
	L 99.133, 516.412 
	L 95.302, 514.230 
	L 99.746, 514.271 
" />
<path d="M 114.570, 489.018 
	L 114.569, 489.019 
	L 113.372, 496.862 
	L 110.346, 494.454 
	L 114.569, 489.019 
" />
<path d="M 80.023, 505.267 
	L 80.023, 505.268 
	L 81.331, 506.697 
	L 78.370, 507.940 
	L 80.023, 505.268 
" />
<path d="M 95.302, 514.229 
	L 95.302, 514.230 
	L 95.224, 516.911 
	L 94.017, 512.415 
	L 95.302, 514.230 
" />
<path d="M 93.207, 518.890 
	L 93.207, 518.891 
	L 92.230, 521.069 
	L 92.164, 520.486 
	L 93.207, 518.891 
" />
<path d="M 94.456, 455.063 
	L 94.455, 455.064 
	L 96.703, 462.329 
	L 89.992, 460.810 
	L 94.455, 455.064 
" />
<path d="M 112.241, 474.077 
	L 112.241, 474.078 
	L 113.418, 478.254 
	L 108.736, 470.799 
	L 112.241, 474.078 
" />
<path d="M 109.057, 499.289 
	L 109.057, 499.290 
	L 113.372, 496.862 
	L 113.122, 502.084 
	L 109.057, 499.290 
" />
<path d="M 104.034, 519.506 
	L 104.034, 519.507 
	L 101.485, 522.715 
	L 101.684, 521.372 
	L 104.034, 519.507 
" />
<path d="M 108.737, 470.799 
	L 108.736, 470.799 
	L 104.895, 464.445 
	L 107.481, 464.268 
	L 108.736, 470.799 
" />
<path d="M 108.335, 511.397 
	L 108.334, 511.398 
	L 104.523, 514.339 
	L 105.855, 513.080 
	L 108.334, 511.398 
" />
<path d="M 83.560, 490.414 
	L 83.560, 490.415 
	L 82.598, 495.740 
	L 80.833, 489.567 
	L 83.560, 490.415 
" />
<path d="M 110.115, 517.091 
	L 110.114, 517.092 
	L 108.143, 519.610 
	L 109.734, 514.972 
	L 110.114, 517.092 
" />
<path d="M 100.200, 517.777 
	L 100.200, 517.778 
	L 100.069, 517.042 
	L 100.584, 517.056 
	L 100.200, 517.778 
" />
<path d="M 99.746, 514.271 
	L 99.746, 514.271 
	L 100.584, 517.056 
	L 100.023, 516.035 
	L 99.746, 514.271 
" />
<path d="M 94.017, 512.415 
	L 94.017, 512.415 
	L 88.267, 512.882 
	L 89.018, 507.751 
	L 94.017, 512.415 
" />
<path d="M 111.939, 516.249 
	L 111.938, 516.250 
	L 114.427, 518.260 
	L 110.114, 517.092 
	L 111.938, 516.250 
" />
<path d="M 113.372, 496.861 
	L 113.372, 496.862 
	L 109.057, 499.290 
	L 110.346, 494.454 
	L 113.372, 496.862 
" />
<path d="M 106.426, 455.656 
	L 106.425, 455.657 
	L 104.895, 464.445 
	L 100.638, 457.297 
	L 106.425, 455.657 
" />
<path d="M 96.703, 462.329 
	L 96.703, 462.329 
	L 92.383, 463.788 
	L 89.992, 460.810 
	L 96.703, 462.329 
" />
<path d="M 105.856, 513.079 
	L 105.855, 513.080 
	L 99.746, 514.271 
	L 104.284, 508.472 
	L 105.855, 513.080 
" />
<path d="M 108.403, 507.813 
	L 108.403, 507.814 
	L 108.334, 511.398 
	L 105.855, 513.080 
	L 108.403, 507.814 
" />
<path d="M 106.426, 455.656 
	L 106.425, 455.657 
	L 100.638, 457.297 
	L 100.704, 454.480 
	L 106.425, 455.657 
" />
<path d="M 92.384, 463.788 
	L 92.383, 463.788 
	L 86.919, 471.443 
	L 88.289, 465.114 
	L 92.383, 463.788 
" />
<path d="M 99.746, 514.271 
	L 99.746, 514.271 
	L 95.302, 514.230 
	L 94.017, 512.415 
	L 99.746, 514.271 
" />
<path d="M 104.034, 519.506 
	L 104.034, 519.507 
	L 100.200, 517.778 
	L 104.093, 517.187 
	L 104.034, 519.507 
" />
<path d="M 108.403, 507.813 
	L 108.403, 507.814 
	L 105.855, 513.080 
	L 104.284, 508.472 
	L 108.403, 507.814 
" />
<path d="M 104.523, 514.339 
	L 104.523, 514.339 
	L 101.538, 515.414 
	L 99.746, 514.271 
	L 104.523, 514.339 
" />
<path d="M 104.094, 517.186 
	L 104.093, 517.187 
	L 100.200, 517.778 
	L 100.584, 517.056 
	L 104.093, 517.187 
" />
<path d="M 86.912, 498.543 
	L 86.912, 498.544 
	L 82.746, 500.793 
	L 82.598, 495.740 
	L 86.912, 498.544 
" />
<path d="M 100.024, 516.034 
	L 100.023, 516.035 
	L 100.584, 517.056 
	L 97.679, 515.417 
	L 100.023, 516.035 
" />
<path d="M 109.242, 513.791 
	L 109.242, 513.792 
	L 111.938, 516.250 
	L 110.114, 517.092 
	L 109.242, 513.792 
" />
<path d="M 88.710, 516.509 
	L 88.710, 516.509 
	L 84.583, 514.445 
	L 88.600, 516.202 
	L 88.710, 516.509 
" />
<path d="M 108.315, 519.440 
	L 108.314, 519.441 
	L 107.206, 521.819 
	L 104.523, 522.396 
	L 108.314, 519.441 
" />
<path d="M 83.560, 490.414 
	L 83.560, 490.415 
	L 80.833, 489.567 
	L 82.247, 484.713 
	L 83.560, 490.415 
" />
<path d="M 93.207, 518.890 
	L 93.207, 518.891 
	L 95.644, 516.273 
	L 92.230, 521.069 
	L 93.207, 518.891 
" />
<path d="M 80.770, 512.349 
	L 80.770, 512.350 
	L 79.899, 515.467 
	L 78.370, 507.940 
	L 80.770, 512.350 
" />
<path d="M 81.881, 475.525 
	L 81.880, 475.525 
	L 86.919, 471.443 
	L 82.247, 484.713 
	L 81.880, 475.525 
" />
<path d="M 101.538, 515.413 
	L 101.538, 515.414 
	L 100.584, 517.056 
	L 99.746, 514.271 
	L 101.538, 515.414 
" />
<path d="M 109.993, 506.125 
	L 109.992, 506.126 
	L 108.403, 507.814 
	L 104.284, 508.472 
	L 109.992, 506.126 
" />
<path d="M 100.705, 454.480 
	L 100.704, 454.480 
	L 100.638, 457.297 
	L 94.455, 455.064 
	L 100.704, 454.480 
" />
<path d="M 80.770, 512.349 
	L 80.770, 512.350 
	L 82.453, 518.847 
	L 79.899, 515.467 
	L 80.770, 512.350 
" />
<path d="M 86.094, 501.672 
	L 86.093, 501.673 
	L 83.295, 504.224 
	L 82.746, 500.793 
	L 86.093, 501.673 
" />
<path d="M 86.106, 493.583 
	L 86.105, 493.584 
	L 86.912, 498.544 
	L 82.598, 495.740 
	L 86.105, 493.584 
" />
<path d="M 86.106, 493.583 
	L 86.105, 493.584 
	L 82.598, 495.740 
	L 83.560, 490.415 
	L 86.105, 493.584 
" />
<path d="M 116.499, 502.976 
	L 116.498, 502.977 
	L 112.396, 503.968 
	L 113.122, 502.084 
	L 116.498, 502.977 
" />
<path d="M 81.332, 506.696 
	L 81.331, 506.697 
	L 80.770, 512.350 
	L 78.370, 507.940 
	L 81.331, 506.697 
" />
<path d="M 93.143, 507.222 
	L 93.142, 507.222 
	L 99.746, 514.271 
	L 94.017, 512.415 
	L 93.142, 507.222 
" />
<path d="M 109.993, 506.125 
	L 109.992, 506.126 
	L 111.460, 507.952 
	L 108.403, 507.814 
	L 109.992, 506.126 
" />
<path d="M 89.019, 507.750 
	L 89.018, 507.751 
	L 83.295, 504.224 
	L 86.093, 501.673 
	L 89.018, 507.751 
" />
<path d="M 84.494, 508.553 
	L 84.494, 508.553 
	L 81.331, 506.697 
	L 81.281, 503.091 
	L 84.494, 508.553 
" />
<path d="M 88.710, 516.509 
	L 88.710, 516.509 
	L 85.050, 515.137 
	L 84.583, 514.445 
	L 88.710, 516.509 
" />
<path d="M 84.494, 508.553 
	L 84.494, 508.553 
	L 81.281, 503.091 
	L 82.869, 504.931 
	L 84.494, 508.553 
" />
<path d="M 104.094, 517.186 
	L 104.093, 517.187 
	L 100.584, 517.056 
	L 101.538, 515.414 
	L 104.093, 517.187 
" />
<path d="M 108.403, 507.813 
	L 108.403, 507.814 
	L 111.460, 507.952 
	L 108.334, 511.398 
	L 108.403, 507.814 
" />
<path d="M 92.231, 521.068 
	L 92.230, 521.069 
	L 91.089, 521.431 
	L 91.098, 520.814 
	L 92.230, 521.069 
" />
<path d="M 114.570, 489.018 
	L 114.569, 489.019 
	L 110.346, 494.454 
	L 111.712, 489.993 
	L 114.569, 489.019 
" />
<path d="M 113.418, 478.253 
	L 113.418, 478.254 
	L 114.569, 489.019 
	L 108.432, 483.804 
	L 113.418, 478.254 
" />
<path d="M 94.456, 455.063 
	L 94.455, 455.064 
	L 100.638, 457.297 
	L 96.703, 462.329 
	L 94.455, 455.064 
" />
<path d="M 104.285, 508.471 
	L 104.284, 508.472 
	L 99.746, 514.271 
	L 93.142, 507.222 
	L 104.284, 508.472 
" />
<path d="M 89.191, 519.159 
	L 89.190, 519.160 
	L 85.050, 515.137 
	L 88.710, 516.509 
	L 89.190, 519.160 
" />
<path d="M 100.585, 517.055 
	L 100.584, 517.056 
	L 99.262, 517.540 
	L 97.679, 515.417 
	L 100.584, 517.056 
" />
<path d="M 100.585, 517.055 
	L 100.584, 517.056 
	L 99.168, 518.989 
	L 99.262, 517.540 
	L 100.584, 517.056 
" />
<path d="M 111.461, 507.952 
	L 111.460, 507.952 
	L 109.992, 506.126 
	L 112.396, 503.968 
	L 111.460, 507.952 
" />
<path d="M 99.169, 518.988 
	L 99.168, 518.989 
	L 99.130, 519.050 
	L 99.262, 517.540 
	L 99.168, 518.989 
" />
<path d="M 113.155, 513.567 
	L 113.154, 513.568 
	L 111.938, 516.250 
	L 109.242, 513.792 
	L 113.154, 513.568 
" />
<path d="M 115.795, 516.862 
	L 115.794, 516.862 
	L 114.427, 518.260 
	L 111.938, 516.250 
	L 115.794, 516.862 
" />
<path d="M 94.017, 512.415 
	L 94.017, 512.415 
	L 89.018, 507.751 
	L 93.142, 507.222 
	L 94.017, 512.415 
" />
<path d="M 99.263, 517.539 
	L 99.262, 517.540 
	L 99.130, 519.050 
	L 98.514, 521.100 
	L 99.262, 517.540 
" />
<path d="M 84.494, 508.553 
	L 84.494, 508.553 
	L 80.770, 512.350 
	L 81.331, 506.697 
	L 84.494, 508.553 
" />
<path d="M 104.896, 464.445 
	L 104.895, 464.445 
	L 102.836, 463.527 
	L 100.638, 457.297 
	L 104.895, 464.445 
" />
<path d="M 116.499, 502.976 
	L 116.498, 502.977 
	L 114.616, 506.973 
	L 112.396, 503.968 
	L 116.498, 502.977 
" />
<path d="M 112.397, 503.967 
	L 112.396, 503.968 
	L 107.854, 503.203 
	L 113.122, 502.084 
	L 112.396, 503.968 
" />
<path d="M 111.151, 511.688 
	L 111.150, 511.688 
	L 108.334, 511.398 
	L 111.460, 507.952 
	L 111.150, 511.688 
" />
<path d="M 85.051, 515.136 
	L 85.050, 515.137 
	L 89.190, 519.160 
	L 88.737, 520.596 
	L 85.050, 515.137 
" />
<path d="M 112.397, 503.967 
	L 112.396, 503.968 
	L 109.992, 506.126 
	L 107.854, 503.203 
	L 112.396, 503.968 
" />
<path d="M 113.122, 502.083 
	L 113.122, 502.084 
	L 107.854, 503.203 
	L 109.057, 499.290 
	L 113.122, 502.084 
" />
<path d="M 117.504, 507.769 
	L 117.503, 507.769 
	L 118.992, 505.710 
	L 119.887, 508.235 
	L 117.503, 507.769 
" />
<path d="M 116.499, 502.976 
	L 116.498, 502.977 
	L 118.992, 505.710 
	L 114.616, 506.973 
	L 116.498, 502.977 
" />
<path d="M 104.034, 519.506 
	L 104.034, 519.507 
	L 99.144, 521.551 
	L 98.514, 521.100 
	L 104.034, 519.507 
" />
<path d="M 109.993, 506.125 
	L 109.992, 506.126 
	L 104.284, 508.472 
	L 107.854, 503.203 
	L 109.992, 506.126 
" />
<path d="M 110.346, 494.454 
	L 110.346, 494.454 
	L 109.057, 499.290 
	L 101.803, 497.149 
	L 110.346, 494.454 
" />
<path d="M 105.432, 516.076 
	L 105.431, 516.076 
	L 104.034, 519.507 
	L 104.093, 517.187 
	L 105.431, 516.076 
" />
<path d="M 118.993, 505.709 
	L 118.992, 505.710 
	L 117.503, 507.769 
	L 114.616, 506.973 
	L 118.992, 505.710 
" />
<path d="M 114.617, 506.972 
	L 114.616, 506.973 
	L 111.460, 507.952 
	L 112.396, 503.968 
	L 114.616, 506.973 
" />
<path d="M 95.738, 520.824 
	L 95.737, 520.824 
	L 92.230, 521.069 
	L 95.644, 516.273 
	L 95.737, 520.824 
" />
<path d="M 95.903, 463.733 
	L 95.902, 463.734 
	L 92.383, 463.788 
	L 96.703, 462.329 
	L 95.902, 463.734 
" />
<path d="M 86.912, 498.543 
	L 86.912, 498.544 
	L 86.093, 501.673 
	L 82.746, 500.793 
	L 86.912, 498.544 
" />
<path d="M 84.494, 508.553 
	L 84.494, 508.553 
	L 85.378, 511.006 
	L 85.004, 514.539 
	L 84.494, 508.553 
" />
<path d="M 109.057, 499.289 
	L 109.057, 499.290 
	L 102.653, 499.081 
	L 101.803, 497.149 
	L 109.057, 499.290 
" />
<path d="M 114.617, 506.972 
	L 114.616, 506.973 
	L 113.933, 509.869 
	L 111.454, 509.847 
	L 114.616, 506.973 
" />
<path d="M 80.770, 512.349 
	L 80.770, 512.350 
	L 82.785, 519.172 
	L 82.453, 518.847 
	L 80.770, 512.350 
" />
<path d="M 108.737, 470.799 
	L 108.736, 470.799 
	L 113.418, 478.254 
	L 107.960, 475.178 
	L 108.736, 470.799 
" />
<path d="M 110.346, 494.454 
	L 110.346, 494.454 
	L 101.803, 497.149 
	L 111.712, 489.993 
	L 110.346, 494.454 
" />
<path d="M 114.617, 506.972 
	L 114.616, 506.973 
	L 111.454, 509.847 
	L 111.460, 507.952 
	L 114.616, 506.973 
" />
<path d="M 100.638, 457.296 
	L 100.638, 457.297 
	L 102.836, 463.527 
	L 96.703, 462.329 
	L 100.638, 457.297 
" />
<path d="M 85.379, 511.005 
	L 85.378, 511.006 
	L 85.050, 515.137 
	L 85.004, 514.539 
	L 85.378, 511.006 
" />
<path d="M 85.675, 483.162 
	L 85.674, 483.163 
	L 83.560, 490.415 
	L 82.247, 484.713 
	L 85.674, 483.163 
" />
<path d="M 117.504, 507.769 
	L 117.503, 507.769 
	L 119.887, 508.235 
	L 115.478, 509.326 
	L 117.503, 507.769 
" />
<path d="M 109.057, 499.289 
	L 109.057, 499.290 
	L 107.854, 503.203 
	L 102.653, 499.081 
	L 109.057, 499.290 
" />
<path d="M 117.504, 507.769 
	L 117.503, 507.769 
	L 115.478, 509.326 
	L 114.616, 506.973 
	L 117.503, 507.769 
" />
<path d="M 102.837, 463.526 
	L 102.836, 463.527 
	L 95.902, 463.734 
	L 96.703, 462.329 
	L 102.836, 463.527 
" />
<path d="M 92.903, 494.977 
	L 92.903, 494.978 
	L 94.178, 498.358 
	L 86.912, 498.544 
	L 92.903, 494.978 
" />
<path d="M 104.094, 517.186 
	L 104.093, 517.187 
	L 103.976, 517.538 
	L 103.323, 516.237 
	L 104.093, 517.187 
" />
<path d="M 86.106, 493.583 
	L 86.105, 493.584 
	L 92.903, 494.978 
	L 86.912, 498.544 
	L 86.105, 493.584 
" />
<path d="M 114.570, 489.018 
	L 114.569, 489.019 
	L 111.712, 489.993 
	L 108.432, 483.804 
	L 114.569, 489.019 
" />
<path d="M 93.143, 507.222 
	L 93.142, 507.222 
	L 89.018, 507.751 
	L 86.093, 501.673 
	L 93.142, 507.222 
" />
<path d="M 115.479, 509.325 
	L 115.478, 509.326 
	L 113.933, 509.869 
	L 114.616, 506.973 
	L 115.478, 509.326 
" />
<path d="M 109.735, 514.972 
	L 109.734, 514.972 
	L 108.314, 519.441 
	L 107.442, 516.769 
	L 109.734, 514.972 
" />
<path d="M 113.155, 513.567 
	L 113.154, 513.568 
	L 115.794, 516.862 
	L 111.938, 516.250 
	L 113.154, 513.568 
" />
<path d="M 119.888, 508.234 
	L 119.887, 508.235 
	L 121.254, 511.463 
	L 117.413, 510.020 
	L 119.887, 508.235 
" />
<path d="M 104.896, 464.445 
	L 104.895, 464.445 
	L 106.973, 469.550 
	L 102.836, 463.527 
	L 104.895, 464.445 
" />
<path d="M 90.081, 521.342 
	L 90.080, 521.342 
	L 88.737, 520.596 
	L 91.089, 521.431 
	L 90.080, 521.342 
" />
<path d="M 108.315, 519.440 
	L 108.314, 519.441 
	L 104.523, 522.396 
	L 102.308, 522.653 
	L 108.314, 519.441 
" />
<path d="M 104.034, 519.506 
	L 104.034, 519.507 
	L 101.309, 520.973 
	L 99.144, 521.551 
	L 104.034, 519.507 
" />
<path d="M 111.461, 507.952 
	L 111.460, 507.952 
	L 111.932, 509.568 
	L 111.150, 511.688 
	L 111.460, 507.952 
" />
<path d="M 104.423, 513.002 
	L 104.422, 513.003 
	L 103.621, 514.950 
	L 101.538, 515.414 
	L 104.422, 513.003 
" />
<path d="M 115.795, 516.862 
	L 115.794, 516.862 
	L 116.235, 519.098 
	L 114.427, 518.260 
	L 115.794, 516.862 
" />
<path d="M 103.622, 514.949 
	L 103.621, 514.950 
	L 104.093, 517.187 
	L 103.323, 516.237 
	L 103.621, 514.950 
" />
<path d="M 85.675, 483.162 
	L 85.674, 483.163 
	L 82.247, 484.713 
	L 86.919, 471.443 
	L 85.674, 483.163 
" />
<path d="M 104.285, 508.471 
	L 104.284, 508.472 
	L 93.142, 507.222 
	L 104.245, 505.021 
	L 104.284, 508.472 
" />
<path d="M 113.934, 509.868 
	L 113.933, 509.869 
	L 111.932, 509.568 
	L 111.460, 507.952 
	L 113.933, 509.869 
" />
<path d="M 119.888, 508.234 
	L 119.887, 508.235 
	L 117.413, 510.020 
	L 115.478, 509.326 
	L 119.887, 508.235 
" />
<path d="M 94.179, 498.357 
	L 94.178, 498.358 
	L 90.865, 501.732 
	L 86.912, 498.544 
	L 94.178, 498.358 
" />
<path d="M 108.737, 470.799 
	L 108.736, 470.799 
	L 106.973, 469.550 
	L 104.895, 464.445 
	L 108.736, 470.799 
" />
<path d="M 84.494, 508.553 
	L 84.494, 508.553 
	L 83.145, 515.750 
	L 80.770, 512.350 
	L 84.494, 508.553 
" />
<path d="M 107.855, 503.202 
	L 107.854, 503.203 
	L 104.284, 508.472 
	L 104.245, 505.021 
	L 107.854, 503.203 
" />
<path d="M 85.051, 515.136 
	L 85.050, 515.137 
	L 88.737, 520.596 
	L 85.857, 517.085 
	L 85.050, 515.137 
" />
<path d="M 101.803, 497.149 
	L 101.803, 497.149 
	L 102.653, 499.081 
	L 99.298, 499.823 
	L 101.803, 497.149 
" />
<path d="M 103.622, 514.949 
	L 103.621, 514.950 
	L 105.431, 516.076 
	L 104.093, 517.187 
	L 103.621, 514.950 
" />
<path d="M 103.622, 514.949 
	L 103.621, 514.950 
	L 103.323, 516.237 
	L 101.538, 515.414 
	L 103.621, 514.950 
" />
<path d="M 113.418, 478.253 
	L 113.418, 478.254 
	L 108.432, 483.804 
	L 107.960, 475.178 
	L 113.418, 478.254 
" />
<path d="M 85.005, 514.538 
	L 85.004, 514.539 
	L 83.145, 515.750 
	L 84.494, 508.553 
	L 85.004, 514.539 
" />
<path d="M 116.617, 513.160 
	L 116.616, 513.161 
	L 117.632, 515.577 
	L 116.675, 515.194 
	L 116.616, 513.161 
" />
<path d="M 96.481, 499.857 
	L 96.480, 499.858 
	L 94.178, 498.358 
	L 92.903, 494.978 
	L 96.480, 499.858 
" />
<path d="M 92.231, 521.068 
	L 92.230, 521.069 
	L 95.737, 520.824 
	L 93.033, 521.143 
	L 92.230, 521.069 
" />
<path d="M 99.263, 517.539 
	L 99.262, 517.540 
	L 97.139, 517.690 
	L 97.679, 515.417 
	L 99.262, 517.540 
" />
<path d="M 103.324, 516.237 
	L 103.323, 516.237 
	L 102.492, 517.866 
	L 101.538, 515.414 
	L 103.323, 516.237 
" />
<path d="M 117.633, 515.577 
	L 117.632, 515.577 
	L 118.712, 518.478 
	L 117.950, 518.677 
	L 117.632, 515.577 
" />
<path d="M 102.654, 499.081 
	L 102.653, 499.081 
	L 107.854, 503.203 
	L 99.298, 499.823 
	L 102.653, 499.081 
" />
<path d="M 86.912, 498.543 
	L 86.912, 498.544 
	L 90.865, 501.732 
	L 86.093, 501.673 
	L 86.912, 498.544 
" />
<path d="M 92.386, 488.434 
	L 92.385, 488.434 
	L 86.105, 493.584 
	L 83.560, 490.415 
	L 92.385, 488.434 
" />
<path d="M 92.231, 521.068 
	L 92.230, 521.069 
	L 93.033, 521.143 
	L 90.080, 521.342 
	L 92.230, 521.069 
" />
<path d="M 95.903, 463.733 
	L 95.902, 463.734 
	L 90.556, 468.529 
	L 92.383, 463.788 
	L 95.902, 463.734 
" />
<path d="M 94.179, 498.357 
	L 94.178, 498.358 
	L 96.480, 499.858 
	L 90.865, 501.732 
	L 94.178, 498.358 
" />
<path d="M 92.384, 463.788 
	L 92.383, 463.788 
	L 90.556, 468.529 
	L 86.919, 471.443 
	L 92.383, 463.788 
" />
<path d="M 98.000, 521.656 
	L 97.999, 521.656 
	L 97.366, 523.378 
	L 94.053, 524.434 
	L 97.999, 521.656 
" />
<path d="M 93.143, 507.222 
	L 93.142, 507.222 
	L 86.093, 501.673 
	L 90.865, 501.732 
	L 93.142, 507.222 
" />
<path d="M 111.713, 489.993 
	L 111.712, 489.993 
	L 101.803, 497.149 
	L 104.217, 488.672 
	L 111.712, 489.993 
" />
<path d="M 97.367, 523.378 
	L 97.366, 523.378 
	L 97.999, 521.656 
	L 98.547, 526.607 
	L 97.366, 523.378 
" />
<path d="M 121.255, 511.462 
	L 121.254, 511.463 
	L 120.011, 514.439 
	L 117.413, 510.020 
	L 121.254, 511.463 
" />
<path d="M 104.246, 505.021 
	L 104.245, 505.021 
	L 93.142, 507.222 
	L 90.865, 501.732 
	L 104.245, 505.021 
" />
<path d="M 83.146, 515.750 
	L 83.145, 515.750 
	L 82.785, 519.172 
	L 80.770, 512.350 
	L 83.145, 515.750 
" />
<path d="M 107.442, 516.768 
	L 107.442, 516.769 
	L 108.314, 519.441 
	L 102.308, 522.653 
	L 107.442, 516.769 
" />
<path d="M 104.423, 513.002 
	L 104.422, 513.003 
	L 105.458, 512.308 
	L 103.621, 514.950 
	L 104.422, 513.003 
" />
<path d="M 99.263, 517.539 
	L 99.262, 517.540 
	L 99.144, 521.551 
	L 97.999, 521.656 
	L 99.262, 517.540 
" />
<path d="M 92.386, 488.434 
	L 92.385, 488.434 
	L 92.903, 494.978 
	L 86.105, 493.584 
	L 92.385, 488.434 
" />
<path d="M 118.713, 518.477 
	L 118.712, 518.478 
	L 117.836, 520.631 
	L 117.950, 518.677 
	L 118.712, 518.478 
" />
<path d="M 97.680, 515.417 
	L 97.679, 515.417 
	L 97.139, 517.690 
	L 95.606, 515.753 
	L 97.679, 515.417 
" />
<path d="M 89.722, 523.540 
	L 89.721, 523.541 
	L 87.080, 523.490 
	L 82.785, 519.172 
	L 89.721, 523.541 
" />
<path d="M 107.855, 503.202 
	L 107.854, 503.203 
	L 104.245, 505.021 
	L 99.298, 499.823 
	L 107.854, 503.203 
" />
<path d="M 116.675, 515.193 
	L 116.675, 515.194 
	L 117.632, 515.577 
	L 115.794, 516.862 
	L 116.675, 515.194 
" />
<path d="M 116.675, 515.193 
	L 116.675, 515.194 
	L 115.794, 516.862 
	L 113.154, 513.568 
	L 116.675, 515.194 
" />
<path d="M 88.569, 483.175 
	L 88.568, 483.175 
	L 83.560, 490.415 
	L 85.674, 483.163 
	L 88.568, 483.175 
" />
<path d="M 105.432, 516.076 
	L 105.431, 516.076 
	L 102.492, 517.866 
	L 103.323, 516.237 
	L 105.431, 516.076 
" />
<path d="M 106.620, 514.227 
	L 106.619, 514.227 
	L 105.431, 516.076 
	L 103.621, 514.950 
	L 106.619, 514.227 
" />
<path d="M 91.915, 525.232 
	L 91.914, 525.232 
	L 87.080, 523.490 
	L 89.721, 523.541 
	L 91.914, 525.232 
" />
<path d="M 85.005, 514.538 
	L 85.004, 514.539 
	L 85.857, 517.085 
	L 83.145, 515.750 
	L 85.004, 514.539 
" />
<path d="M 117.414, 510.019 
	L 117.413, 510.020 
	L 116.955, 510.996 
	L 114.870, 508.708 
	L 117.413, 510.020 
" />
<path d="M 99.298, 499.822 
	L 99.298, 499.823 
	L 104.245, 505.021 
	L 90.865, 501.732 
	L 99.298, 499.823 
" />
<path d="M 86.919, 471.443 
	L 86.919, 471.443 
	L 88.185, 474.569 
	L 85.674, 483.163 
	L 86.919, 471.443 
" />
<path d="M 117.633, 515.577 
	L 117.632, 515.577 
	L 117.950, 518.677 
	L 115.794, 516.862 
	L 117.632, 515.577 
" />
<path d="M 97.561, 499.031 
	L 97.560, 499.032 
	L 96.480, 499.858 
	L 92.903, 494.978 
	L 97.560, 499.032 
" />
<path d="M 106.620, 514.227 
	L 106.619, 514.227 
	L 107.442, 516.769 
	L 105.431, 516.076 
	L 106.619, 514.227 
" />
<path d="M 99.298, 499.822 
	L 99.298, 499.823 
	L 90.865, 501.732 
	L 96.480, 499.858 
	L 99.298, 499.823 
" />
<path d="M 106.620, 514.227 
	L 106.619, 514.227 
	L 103.621, 514.950 
	L 105.458, 512.308 
	L 106.619, 514.227 
" />
<path d="M 109.059, 509.859 
	L 109.059, 509.860 
	L 105.458, 512.308 
	L 104.422, 513.003 
	L 109.059, 509.860 
" />
<path d="M 109.905, 515.460 
	L 109.904, 515.461 
	L 107.442, 516.769 
	L 106.619, 514.227 
	L 109.904, 515.461 
" />
<path d="M 108.432, 483.803 
	L 108.432, 483.804 
	L 111.712, 489.993 
	L 104.217, 488.672 
	L 108.432, 483.804 
" />
<path d="M 108.737, 470.799 
	L 108.736, 470.799 
	L 107.960, 475.178 
	L 106.973, 469.550 
	L 108.736, 470.799 
" />
<path d="M 94.054, 524.434 
	L 94.053, 524.434 
	L 91.914, 525.232 
	L 93.548, 523.571 
	L 94.053, 524.434 
" />
<path d="M 115.795, 516.862 
	L 115.794, 516.862 
	L 117.950, 518.677 
	L 116.235, 519.098 
	L 115.794, 516.862 
" />
<path d="M 117.414, 510.019 
	L 117.413, 510.020 
	L 120.011, 514.439 
	L 116.955, 510.996 
	L 117.413, 510.020 
" />
<path d="M 97.140, 517.689 
	L 97.139, 517.690 
	L 99.262, 517.540 
	L 97.999, 521.656 
	L 97.139, 517.690 
" />
<path d="M 98.000, 521.656 
	L 97.999, 521.656 
	L 94.053, 524.434 
	L 93.548, 523.571 
	L 97.999, 521.656 
" />
<path d="M 85.803, 520.077 
	L 85.802, 520.078 
	L 82.785, 519.172 
	L 83.145, 515.750 
	L 85.802, 520.078 
" />
<path d="M 99.298, 499.822 
	L 99.298, 499.823 
	L 96.480, 499.858 
	L 97.560, 499.032 
	L 99.298, 499.823 
" />
<path d="M 117.950, 518.676 
	L 117.950, 518.677 
	L 117.836, 520.631 
	L 116.235, 519.098 
	L 117.950, 518.677 
" />
<path d="M 88.569, 483.175 
	L 88.568, 483.175 
	L 92.385, 488.434 
	L 83.560, 490.415 
	L 88.568, 483.175 
" />
<path d="M 89.722, 523.540 
	L 89.721, 523.541 
	L 82.785, 519.172 
	L 85.802, 520.078 
	L 89.721, 523.541 
" />
<path d="M 90.081, 521.342 
	L 90.080, 521.342 
	L 89.721, 523.541 
	L 85.802, 520.078 
	L 90.080, 521.342 
" />
<path d="M 102.837, 463.526 
	L 102.836, 463.527 
	L 99.824, 467.524 
	L 95.902, 463.734 
	L 102.836, 463.527 
" />
<path d="M 109.928, 511.504 
	L 109.928, 511.505 
	L 109.904, 515.461 
	L 106.619, 514.227 
	L 109.928, 511.505 
" />
<path d="M 85.858, 517.084 
	L 85.857, 517.085 
	L 90.080, 521.342 
	L 85.802, 520.078 
	L 85.857, 517.085 
" />
<path d="M 99.277, 520.210 
	L 99.276, 520.211 
	L 98.547, 526.607 
	L 97.999, 521.656 
	L 99.276, 520.211 
" />
<path d="M 93.548, 523.570 
	L 93.548, 523.571 
	L 89.721, 523.541 
	L 90.080, 521.342 
	L 93.548, 523.571 
" />
<path d="M 85.858, 517.084 
	L 85.857, 517.085 
	L 85.802, 520.078 
	L 83.145, 515.750 
	L 85.857, 517.085 
" />
<path d="M 103.270, 517.716 
	L 103.269, 517.716 
	L 102.492, 517.866 
	L 105.431, 516.076 
	L 103.269, 517.716 
" />
<path d="M 102.309, 522.652 
	L 102.308, 522.653 
	L 98.547, 526.607 
	L 99.276, 520.211 
	L 102.308, 522.653 
" />
<path d="M 93.548, 523.570 
	L 93.548, 523.571 
	L 91.914, 525.232 
	L 89.721, 523.541 
	L 93.548, 523.571 
" />
<path d="M 93.034, 521.143 
	L 93.033, 521.143 
	L 93.548, 523.571 
	L 90.080, 521.342 
	L 93.033, 521.143 
" />
<path d="M 109.928, 511.504 
	L 109.928, 511.505 
	L 106.619, 514.227 
	L 105.458, 512.308 
	L 109.928, 511.505 
" />
<path d="M 105.432, 516.076 
	L 105.431, 516.076 
	L 107.442, 516.769 
	L 103.269, 517.716 
	L 105.431, 516.076 
" />
<path d="M 88.186, 474.568 
	L 88.185, 474.569 
	L 88.568, 483.175 
	L 85.674, 483.163 
	L 88.185, 474.569 
" />
<path d="M 90.556, 468.529 
	L 90.556, 468.529 
	L 88.185, 474.569 
	L 86.919, 471.443 
	L 90.556, 468.529 
" />
<path d="M 106.974, 469.549 
	L 106.973, 469.550 
	L 103.875, 468.693 
	L 102.836, 463.527 
	L 106.973, 469.550 
" />
<path d="M 116.955, 510.995 
	L 116.955, 510.996 
	L 114.132, 515.157 
	L 114.870, 508.708 
	L 116.955, 510.996 
" />
<path d="M 102.309, 522.652 
	L 102.308, 522.653 
	L 103.269, 517.716 
	L 107.442, 516.769 
	L 102.308, 522.653 
" />
<path d="M 114.870, 508.708 
	L 114.870, 508.708 
	L 114.132, 515.157 
	L 109.059, 509.860 
	L 114.870, 508.708 
" />
<path d="M 120.012, 514.438 
	L 120.011, 514.439 
	L 118.353, 515.900 
	L 114.132, 515.157 
	L 120.011, 514.439 
" />
<path d="M 109.928, 511.504 
	L 109.928, 511.505 
	L 105.458, 512.308 
	L 109.059, 509.860 
	L 109.928, 511.505 
" />
<path d="M 97.140, 517.689 
	L 97.139, 517.690 
	L 97.999, 521.656 
	L 93.548, 523.571 
	L 97.139, 517.690 
" />
<path d="M 120.012, 514.438 
	L 120.011, 514.439 
	L 114.132, 515.157 
	L 116.955, 510.996 
	L 120.011, 514.439 
" />
<path d="M 103.270, 517.716 
	L 103.269, 517.716 
	L 99.276, 520.211 
	L 102.492, 517.866 
	L 103.269, 517.716 
" />
<path d="M 101.116, 493.199 
	L 101.115, 493.200 
	L 101.803, 497.149 
	L 99.298, 499.823 
	L 101.115, 493.200 
" />
<path d="M 95.606, 515.753 
	L 95.606, 515.753 
	L 97.139, 517.690 
	L 93.853, 518.642 
	L 95.606, 515.753 
" />
<path d="M 114.133, 515.157 
	L 114.132, 515.157 
	L 109.904, 515.461 
	L 109.928, 511.505 
	L 114.132, 515.157 
" />
<path d="M 97.561, 499.031 
	L 97.560, 499.032 
	L 92.903, 494.978 
	L 94.744, 492.052 
	L 97.560, 499.032 
" />
<path d="M 93.854, 518.642 
	L 93.853, 518.642 
	L 93.548, 523.571 
	L 93.033, 521.143 
	L 93.853, 518.642 
" />
<path d="M 114.987, 517.036 
	L 114.986, 517.037 
	L 109.904, 515.461 
	L 114.132, 515.157 
	L 114.986, 517.037 
" />
<path d="M 114.133, 515.157 
	L 114.132, 515.157 
	L 118.353, 515.900 
	L 114.986, 517.037 
	L 114.132, 515.157 
" />
<path d="M 92.386, 488.434 
	L 92.385, 488.434 
	L 94.744, 492.052 
	L 92.903, 494.978 
	L 92.385, 488.434 
" />
<path d="M 102.309, 522.652 
	L 102.308, 522.653 
	L 99.276, 520.211 
	L 103.269, 517.716 
	L 102.308, 522.653 
" />
<path d="M 114.133, 515.157 
	L 114.132, 515.157 
	L 109.928, 511.505 
	L 109.059, 509.860 
	L 114.132, 515.157 
" />
<path d="M 104.218, 488.672 
	L 104.217, 488.672 
	L 101.803, 497.149 
	L 101.115, 493.200 
	L 104.217, 488.672 
" />
<path d="M 97.140, 517.689 
	L 97.139, 517.690 
	L 93.548, 523.571 
	L 93.853, 518.642 
	L 97.139, 517.690 
" />
<path d="M 95.903, 463.733 
	L 95.902, 463.734 
	L 94.337, 468.023 
	L 90.556, 468.529 
	L 95.902, 463.734 
" />
<path d="M 106.974, 469.549 
	L 106.973, 469.550 
	L 107.960, 475.178 
	L 103.875, 468.693 
	L 106.973, 469.550 
" />
<path d="M 88.186, 474.568 
	L 88.185, 474.569 
	L 93.642, 481.029 
	L 88.568, 483.175 
	L 88.185, 474.569 
" />
<path d="M 102.837, 463.526 
	L 102.836, 463.527 
	L 103.875, 468.693 
	L 99.824, 467.524 
	L 102.836, 463.527 
" />
<path d="M 101.116, 493.199 
	L 101.115, 493.200 
	L 99.298, 499.823 
	L 97.560, 499.032 
	L 101.115, 493.200 
" />
<path d="M 108.432, 483.803 
	L 108.432, 483.804 
	L 104.217, 488.672 
	L 101.906, 484.598 
	L 108.432, 483.804 
" />
<path d="M 107.961, 475.177 
	L 107.960, 475.178 
	L 108.432, 483.804 
	L 101.042, 479.171 
	L 107.960, 475.178 
" />
<path d="M 96.046, 484.168 
	L 96.046, 484.169 
	L 92.385, 488.434 
	L 88.568, 483.175 
	L 96.046, 484.169 
" />
<path d="M 95.903, 463.733 
	L 95.902, 463.734 
	L 99.824, 467.524 
	L 94.337, 468.023 
	L 95.902, 463.734 
" />
<path d="M 95.011, 471.320 
	L 95.010, 471.321 
	L 88.185, 474.569 
	L 90.556, 468.529 
	L 95.010, 471.321 
" />
<path d="M 107.961, 475.177 
	L 107.960, 475.178 
	L 102.005, 474.819 
	L 103.875, 468.693 
	L 107.960, 475.178 
" />
<path d="M 96.104, 474.439 
	L 96.104, 474.440 
	L 93.642, 481.029 
	L 88.185, 474.569 
	L 96.104, 474.440 
" />
<path d="M 107.961, 475.177 
	L 107.960, 475.178 
	L 101.042, 479.171 
	L 102.005, 474.819 
	L 107.960, 475.178 
" />
<path d="M 93.643, 481.028 
	L 93.642, 481.029 
	L 96.046, 484.169 
	L 88.568, 483.175 
	L 93.642, 481.029 
" />
<path d="M 100.729, 481.600 
	L 100.728, 481.601 
	L 108.432, 483.804 
	L 101.906, 484.598 
	L 100.728, 481.601 
" />
<path d="M 104.218, 488.672 
	L 104.217, 488.672 
	L 99.408, 488.702 
	L 101.906, 484.598 
	L 104.217, 488.672 
" />
<path d="M 96.104, 474.439 
	L 96.104, 474.440 
	L 88.185, 474.569 
	L 95.010, 471.321 
	L 96.104, 474.440 
" />
<path d="M 97.564, 488.708 
	L 97.564, 488.709 
	L 94.744, 492.052 
	L 92.385, 488.434 
	L 97.564, 488.709 
" />
<path d="M 101.042, 479.171 
	L 101.042, 479.171 
	L 108.432, 483.804 
	L 100.728, 481.601 
	L 101.042, 479.171 
" />
<path d="M 104.218, 488.672 
	L 104.217, 488.672 
	L 101.115, 493.200 
	L 99.408, 488.702 
	L 104.217, 488.672 
" />
<path d="M 96.046, 484.168 
	L 96.046, 484.169 
	L 97.564, 488.709 
	L 92.385, 488.434 
	L 96.046, 484.169 
" />
<path d="M 94.338, 468.022 
	L 94.337, 468.023 
	L 95.010, 471.321 
	L 90.556, 468.529 
	L 94.337, 468.023 
" />
<path d="M 98.666, 492.669 
	L 98.665, 492.669 
	L 97.560, 499.032 
	L 94.744, 492.052 
	L 98.665, 492.669 
" />
<path d="M 96.104, 474.439 
	L 96.104, 474.440 
	L 96.002, 478.436 
	L 93.642, 481.029 
	L 96.104, 474.440 
" />
<path d="M 103.876, 468.692 
	L 103.875, 468.693 
	L 102.005, 474.819 
	L 99.824, 467.524 
	L 103.875, 468.693 
" />
<path d="M 100.729, 481.600 
	L 100.728, 481.601 
	L 93.642, 481.029 
	L 96.002, 478.436 
	L 100.728, 481.601 
" />
<path d="M 100.729, 481.600 
	L 100.728, 481.601 
	L 96.046, 484.169 
	L 93.642, 481.029 
	L 100.728, 481.601 
" />
<path d="M 102.005, 474.818 
	L 102.005, 474.819 
	L 96.104, 474.440 
	L 95.010, 471.321 
	L 102.005, 474.819 
" />
<path d="M 102.005, 474.818 
	L 102.005, 474.819 
	L 101.042, 479.171 
	L 96.104, 474.440 
	L 102.005, 474.819 
" />
<path d="M 101.116, 493.199 
	L 101.115, 493.200 
	L 97.560, 499.032 
	L 98.665, 492.669 
	L 101.115, 493.200 
" />
<path d="M 99.825, 467.523 
	L 99.824, 467.524 
	L 102.005, 474.819 
	L 95.010, 471.321 
	L 99.824, 467.524 
" />
<path d="M 94.338, 468.022 
	L 94.337, 468.023 
	L 99.824, 467.524 
	L 95.010, 471.321 
	L 94.337, 468.023 
" />
<path d="M 101.907, 484.597 
	L 101.906, 484.598 
	L 99.408, 488.702 
	L 96.046, 484.169 
	L 101.906, 484.598 
" />
<path d="M 99.409, 488.701 
	L 99.408, 488.702 
	L 97.564, 488.709 
	L 96.046, 484.169 
	L 99.408, 488.702 
" />
<path d="M 101.907, 484.597 
	L 101.906, 484.598 
	L 96.046, 484.169 
	L 100.728, 481.601 
	L 101.906, 484.598 
" />
<path d="M 96.104, 474.439 
	L 96.104, 474.440 
	L 101.042, 479.171 
	L 96.002, 478.436 
	L 96.104, 474.440 
" />
<path d="M 101.042, 479.171 
	L 101.042, 479.171 
	L 100.728, 481.601 
	L 96.002, 478.436 
	L 101.042, 479.171 
" />
<path d="M 97.564, 488.708 
	L 97.564, 488.709 
	L 98.665, 492.669 
	L 94.744, 492.052 
	L 97.564, 488.709 
" />
<path d="M 99.409, 488.701 
	L 99.408, 488.702 
	L 98.665, 492.669 
	L 97.564, 488.709 
	L 99.408, 488.702 
" />
<path d="M 101.116, 493.199 
	L 101.115, 493.200 
	L 98.665, 492.669 
	L 99.408, 488.702 
	L 101.115, 493.200 
" />
</g>
</svg>
