<?xml version="1.0" encoding="UTF-8" standalone="no"?>
<svg
   xmlns:dc="http://purl.org/dc/elements/1.1/"
   xmlns:cc="http://creativecommons.org/ns#"
   xmlns:rdf="http://www.w3.org/1999/02/22-rdf-syntax-ns#"
   xmlns:svg="http://www.w3.org/2000/svg"
   xmlns="http://www.w3.org/2000/svg"
   xmlns:sodipodi="http://sodipodi.sourceforge.net/DTD/sodipodi-0.dtd"
   xmlns:inkscape="http://www.inkscape.org/namespaces/inkscape"
   height="1500"
   version="1.1"
   width="1500"
   id="svg173"
   sodipodi:docname="processed_scattercubes_04_25_2019_12210000.svg"
   inkscape:version="0.92.2 5c3e80d, 2017-08-06">
  <metadata
     id="metadata179">
    <rdf:RDF>
      <cc:Work
         rdf:about="">
        <dc:format>image/svg+xml</dc:format>
        <dc:type
           rdf:resource="http://purl.org/dc/dcmitype/StillImage" />
      </cc:Work>
    </rdf:RDF>
  </metadata>
  <defs
     id="defs177" />
  <sodipodi:namedview
     pagecolor="#ffffff"
     bordercolor="#666666"
     borderopacity="1"
     objecttolerance="10"
     gridtolerance="10"
     guidetolerance="10"
     inkscape:pageopacity="0"
     inkscape:pageshadow="2"
     inkscape:window-width="468"
     inkscape:window-height="449"
     id="namedview175"
     showgrid="false"
     inkscape:zoom="0.15733333"
     inkscape:cx="750"
     inkscape:cy="750"
     inkscape:window-x="0"
     inkscape:window-y="0"
     inkscape:window-maximized="0"
     inkscape:current-layer="svg173" />
  <g
     id="fressstylelayer_LineSet"
     inkscape:groupmode="lineset"
     inkscape:label="fressstylelayer_LineSet">
    <g
       id="strokes"
       inkscape:groupmode="layer"
       inkscape:label="strokes">
      <path
         style="fill:none;stroke:#9d14aa;stroke-width:3;stroke-linecap:butt;stroke-linejoin:round;stroke-opacity:1"
         d="m 495.334,1036.484 c 169.57634,-0.804 339.15267,-1.6086 508.729,-2.413 39.7087,-153.81275 79.4189,-307.62511 119.127,-461.438 -19.4234,-22.78021 -38.8482,-45.55917 -58.272,-68.339"
         id="path2"
         inkscape:connector-curvature="0" />
      <path
         style="fill:none;stroke:#9d14aa;stroke-width:3;stroke-linecap:butt;stroke-linejoin:round;stroke-opacity:1"
         d="m 653.068,362.119 c -48.66972,-3.78098 -97.33929,-7.56389 -146.009,-11.345 -4.08212,75.21301 -8.16593,150.42593 -12.247,225.639"
         id="path4"
         inkscape:connector-curvature="0" />
      <path
         style="fill:none;stroke:#9d14aa;stroke-width:3;stroke-linecap:butt;stroke-linejoin:round;stroke-opacity:1"
         d="M 495.334,1036.484 C 505.93274,870.91796 516.53224,705.35197 527.132,539.786"
         id="path6"
         inkscape:connector-curvature="0" />
      <path
         style="fill:none;stroke:#9d14aa;stroke-width:3;stroke-linecap:butt;stroke-linejoin:round;stroke-opacity:1"
         d="M 1123.19,572.633 C 924.50401,561.68378 725.818,550.73495 527.132,539.786 520.44081,476.78202 513.74938,413.77807 507.059,350.774"
         id="path8"
         inkscape:connector-curvature="0" />
      <path
         style="fill:none;stroke:#9d14aa;stroke-width:3;stroke-linecap:butt;stroke-linejoin:round;stroke-opacity:1"
         d="m 723.206,1121.622 c 1.83169,16.6123 27.49257,3.4871 39.62163,7.2495 71.71911,-1.1742 143.43824,-2.3477 215.15737,-3.5205 7.82445,-30.4226 15.64761,-60.8454 23.472,-91.268"
         id="path10"
         inkscape:connector-curvature="0" />
      <path
         style="fill:none;stroke:#9d14aa;stroke-width:3;stroke-linecap:butt;stroke-linejoin:round;stroke-opacity:1"
         d="m 724.829,1129.493 c 4.93744,-31.3893 9.87493,-62.7786 14.812,-94.168"
         id="path12"
         inkscape:connector-curvature="0" />
      <path
         style="fill:none;stroke:#9d14aa;stroke-width:3;stroke-linecap:butt;stroke-linejoin:round;stroke-opacity:1"
         d="m 494.812,576.413 c -59.12664,-2.98625 -118.25333,-5.97141 -177.38,-8.957 -10.86314,70.38418 -24.25233,140.5826 -33.54436,211.08217 1.88276,123.33195 3.76586,246.66393 5.64936,369.99583 143.55367,-2.549 287.10734,-5.0985 430.661,-7.648 5.49325,-35.1825 10.98876,-70.3647 16.483,-105.547"
         id="path14"
         inkscape:connector-curvature="0" />
      <path
         style="fill:none;stroke:#9d14aa;stroke-width:3;stroke-linecap:butt;stroke-linejoin:round;stroke-opacity:1"
         d="m 1010.688,1008.41 c 47.988,-0.071 95.976,-0.1405 143.964,-0.211 50.8976,-162.83692 101.7947,-325.67399 152.692,-488.511 -69.8342,-60.08606 -139.6671,-120.17362 -209.501,-180.26 -155.63469,-13.24604 -311.26936,-26.49231 -466.904,-39.739 -1.81559,20.09573 -3.6321,40.19138 -5.449,60.287"
         id="path16"
         inkscape:connector-curvature="0" />
      <path
         style="fill:none;stroke:#9d14aa;stroke-width:3;stroke-linecap:butt;stroke-linejoin:round;stroke-opacity:1"
         d="M 1307.344,519.688 C 1103.2759,506.73049 899.20802,493.77099 695.14,480.813 673.73924,420.43848 652.33968,360.06354 630.939,299.689"
         id="path18"
         inkscape:connector-curvature="0" />
      <path
         style="fill:none;stroke:#9d14aa;stroke-width:3;stroke-linecap:butt;stroke-linejoin:round;stroke-opacity:1"
         d="m 485.279,778.483 c -67.15767,-1.75986 -134.31531,-3.52079 -201.473,-5.28"
         id="path20"
         inkscape:connector-curvature="0" />
    </g>
  </g>
  <g
     id="fressstylelayer_hidden lines"
     inkscape:groupmode="lineset"
     inkscape:label="fressstylelayer_hidden lines">
    <g
       id="g170"
       inkscape:groupmode="layer"
       inkscape:label="strokes">
      <path
         style="fill:none;stroke:#007700;stroke-width:3;stroke-linecap:butt;stroke-linejoin:round;stroke-opacity:1"
         d="m 921.817,747.086 c 6.71423,-32.85716 13.43041,-65.71392 20.145,-98.571 -9.21124,-16.16562 -18.42543,-32.32956 -27.637,-48.495 -34.88937,-1.7502 -69.77866,-3.50212 -104.668,-5.253 -4.24504,32.82352 -12.24091,66.03895 -14.19158,98.62248 6.40134,16.76938 12.80434,33.53811 19.20558,50.30752 35.71529,1.13095 71.43069,2.25863 107.146,3.389 z"
         id="path24"
         inkscape:connector-curvature="0" />
      <path
         style="fill:none;stroke:#007700;stroke-width:3;stroke-linecap:butt;stroke-linejoin:round;stroke-opacity:1"
         d="M 921.817,747.086 C 913.25396,729.64686 904.68749,712.20941 896.125,694.77"
         id="path26"
         inkscape:connector-curvature="0" />
      <path
         style="fill:none;stroke:#007700;stroke-width:3;stroke-linecap:butt;stroke-linejoin:round;stroke-opacity:1"
         d="m 794.514,690.897 c 33.87031,1.29158 67.74066,2.58223 101.611,3.873 6.0669,-31.58329 12.13277,-63.16677 18.2,-94.75"
         id="path28"
         inkscape:connector-curvature="0" />
      <path
         style="fill:none;stroke:#007700;stroke-width:3;stroke-linecap:butt;stroke-linejoin:round;stroke-opacity:1"
         d="m 814.671,743.697 c 5.5821,-33.35654 11.16231,-66.71339 16.744,-100.07"
         id="path30"
         inkscape:connector-curvature="0" />
      <path
         style="fill:none;stroke:#007700;stroke-width:3;stroke-linecap:butt;stroke-linejoin:round;stroke-opacity:1"
         d="m 941.962,648.515 c -36.84894,-1.63063 -73.69802,-3.25817 -110.547,-4.888 -7.25315,-16.28645 -14.50443,-32.57374 -21.758,-48.86"
         id="path32"
         inkscape:connector-curvature="0" />
      <path
         style="fill:none;stroke:#007700;stroke-width:3;stroke-linecap:butt;stroke-linejoin:round;stroke-opacity:1"
         d="M 1004.063,1034.071 C 965.6067,947.52299 927.15,860.97515 888.694,774.427"
         id="path34"
         inkscape:connector-curvature="0" />
      <path
         style="fill:none;stroke:#007700;stroke-width:3;stroke-linecap:butt;stroke-linejoin:round;stroke-opacity:1"
         d="m 484.679,763.095 c 134.67165,3.77776 269.34336,7.55363 404.015,11.332 25.20356,-129.37475 50.40813,-258.74931 75.612,-388.124"
         id="path36"
         inkscape:connector-curvature="0" />
      <path
         style="fill:none;stroke:#007700;stroke-width:3;stroke-linecap:butt;stroke-linejoin:round;stroke-opacity:1"
         d="M 1064.918,504.294 C 1031.3803,464.96401 997.84396,425.6328 964.306,386.303 860.56007,378.24075 756.81399,370.18043 653.068,362.119"
         id="path38"
         inkscape:connector-curvature="0" />
      <path
         style="fill:none;stroke:#007700;stroke-width:3;stroke-linecap:butt;stroke-linejoin:round;stroke-opacity:1"
         d="m 494.812,576.413 c -2.59744,69.13779 -9.89869,138.23977 -9.32543,207.40176 3.28256,84.22308 6.56415,168.44619 9.84743,252.66924"
         id="path40"
         inkscape:connector-curvature="0" />
      <path
         style="fill:none;stroke:#007700;stroke-width:3;stroke-linecap:butt;stroke-linejoin:round;stroke-opacity:1"
         d="m 767.501,680.09 c 10.38658,-16.37522 -16.97928,-26.72936 -14.392,-6.358 0.22257,9.41492 8.10379,5.0415 14.392,6.358 z"
         id="path42"
         inkscape:connector-curvature="0" />
      <path
         style="fill:none;stroke:#007700;stroke-width:3;stroke-linecap:butt;stroke-linejoin:round;stroke-opacity:1"
         d="m 767.501,680.09 c -0.69667,-1.955 -1.39333,-3.91 -2.09,-5.865"
         id="path44"
         inkscape:connector-curvature="0" />
      <path
         style="fill:none;stroke:#007700;stroke-width:3;stroke-linecap:butt;stroke-linejoin:round;stroke-opacity:1"
         d="m 753.109,673.732 c 11.11344,1.28503 13.83941,1.68973 13.944,-10.684"
         id="path46"
         inkscape:connector-curvature="0" />
      <path
         style="fill:none;stroke:#007700;stroke-width:3;stroke-linecap:butt;stroke-linejoin:round;stroke-opacity:1"
         d="m 755.122,679.603 c 0.53875,-3.74899 1.07693,-7.49806 1.616,-11.247"
         id="path48"
         inkscape:connector-curvature="0" />
      <path
         style="fill:none;stroke:#007700;stroke-width:3;stroke-linecap:butt;stroke-linejoin:round;stroke-opacity:1"
         d="m 769.161,668.862 c -6.05682,-1.24852 -14.13016,2.81074 -14.454,-6.325"
         id="path50"
         inkscape:connector-curvature="0" />
      <path
         style="fill:none;stroke:#007700;stroke-width:3;stroke-linecap:butt;stroke-linejoin:round;stroke-opacity:1"
         d="m 787.313,770.844 c 6.2926,-39.47973 12.58665,-78.95923 18.879,-118.439 -8.00922,-19.44124 -16.01661,-38.88324 -24.027,-58.324 -42.58337,-2.13265 -85.16664,-4.26716 -127.75,-6.4 -3.1745,40.02692 -10.75776,80.28068 -11.1394,120.16379 4.1905,19.7668 8.38231,39.53332 12.5724,59.30021 43.82167,1.23279 87.64332,2.46665 131.465,3.699 z"
         id="path52"
         inkscape:connector-curvature="0" />
      <path
         style="fill:none;stroke:#007700;stroke-width:3;stroke-linecap:butt;stroke-linejoin:round;stroke-opacity:1"
         d="m 787.313,770.844 c -7.30897,-21.2619 -14.618,-42.52377 -21.926,-63.786"
         id="path54"
         inkscape:connector-curvature="0" />
      <path
         style="fill:none;stroke:#007700;stroke-width:3;stroke-linecap:butt;stroke-linejoin:round;stroke-opacity:1"
         d="m 642.169,702.625 c 41.07266,1.47778 82.14531,2.95607 123.218,4.433 5.59266,-37.659 11.18603,-75.3179 16.778,-112.977"
         id="path56"
         inkscape:connector-curvature="0" />
      <path
         style="fill:none;stroke:#007700;stroke-width:3;stroke-linecap:butt;stroke-linejoin:round;stroke-opacity:1"
         d="m 655.848,767.145 c 4.56965,-40.20396 9.13923,-80.40794 13.708,-120.612"
         id="path58"
         inkscape:connector-curvature="0" />
      <path
         style="fill:none;stroke:#007700;stroke-width:3;stroke-linecap:butt;stroke-linejoin:round;stroke-opacity:1"
         d="m 806.192,652.405 c -45.54536,-1.95682 -91.09066,-3.91485 -136.636,-5.872 -5.04662,-19.61743 -10.09372,-39.23474 -15.141,-58.852"
         id="path60"
         inkscape:connector-curvature="0" />
      <path
         style="fill:none;stroke:#007700;stroke-width:3;stroke-linecap:butt;stroke-linejoin:round;stroke-opacity:1"
         d="m 626.739,726.346 c 2.14481,-11.2801 -9.4804,0.0665 0,0 z"
         id="path62"
         inkscape:connector-curvature="0" />
      <path
         style="fill:none;stroke:#007700;stroke-width:3;stroke-linecap:butt;stroke-linejoin:round;stroke-opacity:1"
         d="m 626.739,726.346 c -0.091,-0.47833 -0.289,-1.51833 -0.297,-1.56"
         id="path64"
         inkscape:connector-curvature="0" />
      <path
         style="fill:none;stroke:#007700;stroke-width:3;stroke-linecap:butt;stroke-linejoin:round;stroke-opacity:1"
         d="m 623.28,724.681 c 1.83502,-0.80693 4.9547,1.99168 3.445,-2.667"
         id="path66"
         inkscape:connector-curvature="0" />
      <path
         style="fill:none;stroke:#007700;stroke-width:3;stroke-linecap:butt;stroke-linejoin:round;stroke-opacity:1"
         d="m 623.572,726.241 c 0.0892,-0.88481 0.27591,-2.73548 0.28,-2.776"
         id="path68"
         inkscape:connector-curvature="0" />
      <path
         style="fill:none;stroke:#007700;stroke-width:3;stroke-linecap:butt;stroke-linejoin:round;stroke-opacity:1"
         d="m 627.023,723.571 c -1.49336,-0.15466 -4.04791,0.91188 -3.463,-1.663"
         id="path70"
         inkscape:connector-curvature="0" />
      <path
         style="fill:none;stroke:#007700;stroke-width:3;stroke-linecap:butt;stroke-linejoin:round;stroke-opacity:1"
         d="m 848.705,859.616 c 13.3552,-71.6313 26.71065,-143.26255 40.065,-214.894 -17.41815,-34.0901 -34.83838,-68.17914 -52.257,-102.269 -75.74795,-4.31147 -151.49598,-8.62174 -227.244,-12.932 -5.77214,68.7795 -13.25044,137.61056 -17.95534,206.35779 6.73756,39.51761 10.8992,81.97962 19.26634,119.63521 79.37499,1.36772 158.75002,2.73378 238.125,4.102 z"
         id="path72"
         inkscape:connector-curvature="0" />
      <path
         style="fill:none;stroke:#007700;stroke-width:3;stroke-linecap:butt;stroke-linejoin:round;stroke-opacity:1"
         d="M 848.705,859.616 C 833.87038,819.76794 819.03344,779.92075 804.198,740.073"
         id="path74"
         inkscape:connector-curvature="0" />
      <path
         style="fill:none;stroke:#007700;stroke-width:3;stroke-linecap:butt;stroke-linejoin:round;stroke-opacity:1"
         d="m 590.914,733.241 c 71.0947,2.27643 142.1893,4.55575 213.284,6.832 10.77274,-65.87316 21.54216,-131.74686 32.315,-197.62"
         id="path76"
         inkscape:connector-curvature="0" />
      <path
         style="fill:none;stroke:#007700;stroke-width:3;stroke-linecap:butt;stroke-linejoin:round;stroke-opacity:1"
         d="m 609.435,855.494 c 7.4557,-74.0599 14.90982,-148.11995 22.364,-222.18"
         id="path78"
         inkscape:connector-curvature="0" />
      <path
         style="fill:none;stroke:#007700;stroke-width:3;stroke-linecap:butt;stroke-linejoin:round;stroke-opacity:1"
         d="m 888.77,644.722 c -85.65699,-3.80295 -171.31402,-7.60477 -256.971,-11.408 -7.50957,-34.59776 -15.02012,-69.19531 -22.53,-103.793"
         id="path80"
         inkscape:connector-curvature="0" />
      <path
         style="fill:none;stroke:#007700;stroke-width:3;stroke-linecap:butt;stroke-linejoin:round;stroke-opacity:1"
         d="M 977.985,1125.351 C 957.11979,1072.5032 936.25178,1019.6566 915.386,966.809"
         id="path82"
         inkscape:connector-curvature="0" />
      <path
         style="fill:none;stroke:#007700;stroke-width:3;stroke-linecap:butt;stroke-linejoin:round;stroke-opacity:1"
         d="m 691.107,965.954 c 74.75967,0.28424 149.51933,0.57049 224.279,0.855 14.20393,-64.94975 28.40904,-129.89925 42.613,-194.849"
         id="path84"
         inkscape:connector-curvature="0" />
      <path
         style="fill:none;stroke:#007700;stroke-width:3;stroke-linecap:butt;stroke-linejoin:round;stroke-opacity:1"
         d="m 1001.457,1034.083 c 10.1656,-39.52835 20.3309,-79.05679 30.497,-118.585 -24.6526,-47.84553 -49.30269,-95.69233 -73.955,-143.538 -79.91365,-2.28683 -159.82735,-4.5722 -239.741,-6.859 -8.56684,67.81158 -19.54475,135.70601 -26.6123,203.46594 10.51975,51.01846 21.04006,102.03676 31.5603,153.05506"
         id="path86"
         inkscape:connector-curvature="0" />
      <path
         style="fill:none;stroke:#007700;stroke-width:3;stroke-linecap:butt;stroke-linejoin:round;stroke-opacity:1"
         d="M 758.939,912.643 C 745.37911,863.46221 731.81867,814.28157 718.258,765.101"
         id="path88"
         inkscape:connector-curvature="0" />
      <path
         style="fill:none;stroke:#007700;stroke-width:3;stroke-linecap:butt;stroke-linejoin:round;stroke-opacity:1"
         d="m 1031.954,915.498 c -91.005,-0.95126 -182.01,-1.90295 -273.015,-2.855 -6.43246,40.89403 -12.86437,81.78815 -19.298,122.682"
         id="path90"
         inkscape:connector-curvature="0" />
      <path
         style="fill:none;stroke:#007700;stroke-width:3;stroke-linecap:butt;stroke-linejoin:round;stroke-opacity:1"
         d="m 567.11,924.569 c 3.10884,-35.30086 8.50522,-70.63538 1.135,-105.783 -6.76257,-9.35892 -28.81287,-1.91499 -41.42776,-4.84109 -11.62231,3.67218 -38.91767,-9.6128 -38.43925,7.15295 -2.42958,34.23518 -4.04395,68.47917 -1.62399,102.76614 26.78533,0.23576 53.57067,0.46946 80.356,0.705 z"
         id="path92"
         inkscape:connector-curvature="0" />
      <path
         style="fill:none;stroke:#007700;stroke-width:3;stroke-linecap:butt;stroke-linejoin:round;stroke-opacity:1"
         d="m 567.11,924.569 c -1.59034,-15.09511 -3.18313,-30.18995 -4.774,-45.285"
         id="path94"
         inkscape:connector-curvature="0" />
      <path
         style="fill:none;stroke:#007700;stroke-width:3;stroke-linecap:butt;stroke-linejoin:round;stroke-opacity:1"
         d="m 485.141,878.184 c 25.73166,0.36685 51.46334,0.73309 77.195,1.1 1.81555,-21.47871 3.63181,-42.95735 5.448,-64.436"
         id="path96"
         inkscape:connector-curvature="0" />
      <path
         style="fill:none;stroke:#007700;stroke-width:3;stroke-linecap:butt;stroke-linejoin:round;stroke-opacity:1"
         d="m 486.754,923.864 c 1.29594,-22.24363 2.59119,-44.4873 3.886,-66.731"
         id="path98"
         inkscape:connector-curvature="0" />
      <path
         style="fill:none;stroke:#007700;stroke-width:3;stroke-linecap:butt;stroke-linejoin:round;stroke-opacity:1"
         d="m 572.903,858.514 c -27.42099,-0.46121 -54.84201,-0.92012 -82.263,-1.381 -0.60117,-14.67541 -1.20794,-29.35059 -1.809,-44.026"
         id="path100"
         inkscape:connector-curvature="0" />
      <path
         style="fill:none;stroke:#007700;stroke-width:3;stroke-linecap:butt;stroke-linejoin:round;stroke-opacity:1"
         d="m 515.325,680.582 c 0.88602,-17.5736 3.35615,-35.16232 0.782,-52.703 -11.68378,2.91475 -36.42804,-8.51658 -39.75399,3.57536 -0.791,15.86596 -1.96369,31.72889 -0.86701,47.61064 13.27964,0.50636 26.55934,1.01122 39.839,1.517 z"
         id="path102"
         inkscape:connector-curvature="0" />
      <path
         style="fill:none;stroke:#007700;stroke-width:3;stroke-linecap:butt;stroke-linejoin:round;stroke-opacity:1"
         d="m 515.325,680.582 c -0.45939,-6.00197 -0.91861,-12.00395 -1.377,-18.006"
         id="path104"
         inkscape:connector-curvature="0" />
      <path
         style="fill:none;stroke:#007700;stroke-width:3;stroke-linecap:butt;stroke-linejoin:round;stroke-opacity:1"
         d="m 474.901,661.005 c 12.03936,-3.4044 39.4926,10.2694 39.54406,-6.41724 0.55403,-8.90292 1.10769,-17.80586 1.66194,-26.70876"
         id="path106"
         inkscape:connector-curvature="0" />
      <path
         style="fill:none;stroke:#007700;stroke-width:3;stroke-linecap:butt;stroke-linejoin:round;stroke-opacity:1"
         d="m 475.486,679.065 c 0.58556,-11.79601 1.1721,-23.59196 1.757,-35.388"
         id="path108"
         inkscape:connector-curvature="0" />
      <path
         style="fill:none;stroke:#007700;stroke-width:3;stroke-linecap:butt;stroke-linejoin:round;stroke-opacity:1"
         d="m 517.546,645.383 c -12.0949,-3.74024 -36.78959,5.03773 -40.4935,-7.03839 -0.14524,-4.07323 -0.29148,-8.14641 -0.4375,-12.21961"
         id="path110"
         inkscape:connector-curvature="0" />
      <path
         style="fill:none;stroke:#007700;stroke-width:3;stroke-linecap:butt;stroke-linejoin:round;stroke-opacity:1"
         d="M 720.198,1140.886 C 704.01455,1060.4075 687.83282,979.92864 671.65,899.45"
         id="path112"
         inkscape:connector-curvature="0" />
      <path
         style="fill:none;stroke:#007700;stroke-width:3;stroke-linecap:butt;stroke-linejoin:round;stroke-opacity:1"
         d="m 318.532,895.226 c 117.70601,1.40716 235.41199,2.81662 353.118,4.224 12.99099,-104.04663 25.98035,-208.09346 38.972,-312.14"
         id="path114"
         inkscape:connector-curvature="0" />
      <path
         style="fill:none;stroke:#007700;stroke-width:3;stroke-linecap:butt;stroke-linejoin:round;stroke-opacity:1"
         d="M 736.681,1035.339 C 749.6556,952.25594 762.63089,869.17298 775.606,786.09 753.94378,719.83029 732.28274,653.57019 710.622,587.31 638.68531,583.67813 566.7487,580.04461 494.812,576.413"
         id="path116"
         inkscape:connector-curvature="0" />
      <path
         style="fill:none;stroke:#007700;stroke-width:3;stroke-linecap:butt;stroke-linejoin:round;stroke-opacity:1"
         d="m 289.537,1148.534 c 9.27832,-87.7901 21.62929,-175.41007 28.962,-263.308 -0.35649,-105.92333 -0.71045,-211.84667 -1.067,-317.77"
         id="path118"
         inkscape:connector-curvature="0" />
      <path
         style="fill:none;stroke:#007700;stroke-width:3;stroke-linecap:butt;stroke-linejoin:round;stroke-opacity:1"
         d="m 775.606,786.09 c -96.77568,-2.53518 -193.55131,-5.07223 -290.327,-7.607"
         id="path120"
         inkscape:connector-curvature="0" />
      <path
         style="fill:none;stroke:#007700;stroke-width:3;stroke-linecap:butt;stroke-linejoin:round;stroke-opacity:1"
         d="m 901.604,994.856 c 12.39662,-57.43727 24.79257,-114.87469 37.189,-172.312 -16.78042,-35.20953 -33.1731,-71.00762 -50.196,-105.849 -64.26664,-2.27113 -128.53335,-4.54011 -192.8,-6.811 -6.43563,56.09897 -15.20454,112.29247 -20.1722,168.33168 8.10523,38.86221 16.21174,77.72416 24.3172,116.58632 67.22067,0.0187 134.44133,0.0362 201.662,0.054 z"
         id="path122"
         inkscape:connector-curvature="0" />
      <path
         style="fill:none;stroke:#007700;stroke-width:3;stroke-linecap:butt;stroke-linejoin:round;stroke-opacity:1"
         d="M 901.604,994.856 C 887.06058,956.01349 872.51885,917.17035 857.975,878.328"
         id="path124"
         inkscape:connector-curvature="0" />
      <path
         style="fill:none;stroke:#007700;stroke-width:3;stroke-linecap:butt;stroke-linejoin:round;stroke-opacity:1"
         d="m 675.08,875.604 c 60.96502,0.90696 121.92999,1.81643 182.895,2.724 10.29292,-53.87455 20.58427,-107.74941 30.877,-161.624"
         id="path126"
         inkscape:connector-curvature="0" />
      <path
         style="fill:none;stroke:#007700;stroke-width:3;stroke-linecap:butt;stroke-linejoin:round;stroke-opacity:1"
         d="m 699.942,994.802 c 8.25792,-58.99801 16.51593,-117.99601 24.774,-176.994"
         id="path128"
         inkscape:connector-curvature="0" />
      <path
         style="fill:none;stroke:#007700;stroke-width:3;stroke-linecap:butt;stroke-linejoin:round;stroke-opacity:1"
         d="m 938.793,822.544 c -71.359,-1.57859 -142.71801,-3.15669 -214.077,-4.736 -9.64026,-35.97451 -19.27876,-71.94949 -28.919,-107.924"
         id="path130"
         inkscape:connector-curvature="0" />
      <path
         style="fill:none;stroke:#007700;stroke-width:3;stroke-linecap:butt;stroke-linejoin:round;stroke-opacity:1"
         d="m 873.867,761.694 c 8.57631,-45.42213 17.15399,-90.844 25.731,-136.266 -11.45604,-21.39918 -22.91536,-42.7966 -34.371,-64.196 -47.96773,-2.6252 -95.93535,-5.25238 -143.903,-7.879 -4.94149,44.69682 -12.80529,89.61515 -15.97473,134.17772 6.62772,23.25501 13.25846,46.50915 19.88573,69.76428 49.54403,1.4653 99.08802,2.93204 148.632,4.399 z"
         id="path132"
         inkscape:connector-curvature="0" />
      <path
         style="fill:none;stroke:#007700;stroke-width:3;stroke-linecap:butt;stroke-linejoin:round;stroke-opacity:1"
         d="M 873.867,761.694 C 863.51148,737.88794 853.15565,714.08201 842.8,690.276"
         id="path134"
         inkscape:connector-curvature="0" />
      <path
         style="fill:none;stroke:#007700;stroke-width:3;stroke-linecap:butt;stroke-linejoin:round;stroke-opacity:1"
         d="m 704.618,684.965 c 46.06063,1.77123 92.12133,3.54064 138.182,5.311 7.47458,-43.01485 14.95132,-86.02934 22.427,-129.044"
         id="path136"
         inkscape:connector-curvature="0" />
      <path
         style="fill:none;stroke:#007700;stroke-width:3;stroke-linecap:butt;stroke-linejoin:round;stroke-opacity:1"
         d="m 725.235,757.295 c 6.36564,-46.38258 12.72966,-92.76538 19.095,-139.148"
         id="path138"
         inkscape:connector-curvature="0" />
      <path
         style="fill:none;stroke:#007700;stroke-width:3;stroke-linecap:butt;stroke-linejoin:round;stroke-opacity:1"
         d="m 899.598,625.428 c -51.75596,-2.42793 -103.51201,-4.8537 -155.268,-7.281 -7.66922,-21.5978 -15.3374,-43.19598 -23.006,-64.794"
         id="path140"
         inkscape:connector-curvature="0" />
      <path
         style="fill:none;stroke:#007700;stroke-width:3;stroke-linecap:butt;stroke-linejoin:round;stroke-opacity:1"
         d="m 926.014,1005.439 c 18.65398,-82.57219 37.30752,-165.14447 55.96,-247.717 -25.00977,-45.70395 -50.01923,-91.40806 -75.029,-137.112 -89.51331,-4.25621 -179.02664,-8.51194 -268.54,-12.767 -7.58575,78.82613 -16.97801,157.70237 -23.43274,236.49707 8.516,53.80163 17.03213,107.60324 25.54774,161.40493 95.16467,-0.1021 190.32933,-0.2039 285.494,-0.306 z"
         id="path142"
         inkscape:connector-curvature="0" />
      <path
         style="fill:none;stroke:#007700;stroke-width:3;stroke-linecap:butt;stroke-linejoin:round;stroke-opacity:1"
         d="M 926.014,1005.439 C 905.28538,952.43239 884.55519,899.42639 863.826,846.42"
         id="path144"
         inkscape:connector-curvature="0" />
      <path
         style="fill:none;stroke:#007700;stroke-width:3;stroke-linecap:butt;stroke-linejoin:round;stroke-opacity:1"
         d="m 614.555,841.705 c 83.09034,1.57135 166.18066,3.14369 249.271,4.715 14.37281,-75.27004 28.7456,-150.54008 43.119,-225.81"
         id="path146"
         inkscape:connector-curvature="0" />
      <path
         style="fill:none;stroke:#007700;stroke-width:3;stroke-linecap:butt;stroke-linejoin:round;stroke-opacity:1"
         d="m 640.52,1005.745 c 10.13884,-85.83757 20.27596,-171.67534 30.414,-257.513"
         id="path148"
         inkscape:connector-curvature="0" />
      <path
         style="fill:none;stroke:#007700;stroke-width:3;stroke-linecap:butt;stroke-linejoin:round;stroke-opacity:1"
         d="m 981.974,757.722 c -103.68,-3.1634 -207.36001,-6.32617 -311.04,-9.49 -10.84306,-46.79632 -21.68522,-93.59285 -32.529,-140.389"
         id="path150"
         inkscape:connector-curvature="0" />
      <path
         style="fill:none;stroke:#007700;stroke-width:3;stroke-linecap:butt;stroke-linejoin:round;stroke-opacity:1"
         d="m 835.706,925.796 c 15.36081,-82.5001 30.72254,-165.00002 46.084,-247.5 -19.80467,-40.906 -39.60874,-81.81229 -59.414,-122.718 -87.90279,-4.5189 -177.02816,-10.42778 -264.17,-14.08 -5.21753,79.48293 -13.10894,158.99345 -16.66,238.459 4.54581,47.77959 9.08913,95.55942 13.635,143.339 93.50833,0.8334 187.01667,1.66667 280.525,2.5 z"
         id="path152"
         inkscape:connector-curvature="0" />
      <path
         style="fill:none;stroke:#007700;stroke-width:3;stroke-linecap:butt;stroke-linejoin:round;stroke-opacity:1"
         d="M 835.706,925.796 C 819.28312,877.4243 802.86164,829.05212 786.44,780.68"
         id="path154"
         inkscape:connector-curvature="0" />
      <path
         style="fill:none;stroke:#007700;stroke-width:3;stroke-linecap:butt;stroke-linejoin:round;stroke-opacity:1"
         d="m 540.987,774.074 c 81.81766,2.20239 163.63535,4.40348 245.453,6.606 11.97829,-75.03406 23.95709,-150.06804 35.936,-225.102"
         id="path156"
         inkscape:connector-curvature="0" />
      <path
         style="fill:none;stroke:#007700;stroke-width:3;stroke-linecap:butt;stroke-linejoin:round;stroke-opacity:1"
         d="m 555.181,923.296 c 7.14033,-85.74875 14.28327,-171.49728 21.424,-257.246"
         id="path158"
         inkscape:connector-curvature="0" />
      <path
         style="fill:none;stroke:#007700;stroke-width:3;stroke-linecap:butt;stroke-linejoin:round;stroke-opacity:1"
         d="M 881.79,678.296 C 780.06167,674.21382 678.33331,670.13254 576.605,666.05 570.48518,624.36854 564.36312,582.68741 558.243,541.006"
         id="path160"
         inkscape:connector-curvature="0" />
      <path
         style="fill:none;stroke:#007700;stroke-width:3;stroke-linecap:butt;stroke-linejoin:round;stroke-opacity:1"
         d="M 1154.652,1008.199 C 1104.2465,920.71541 1053.8397,833.23253 1003.434,745.749"
         id="path162"
         inkscape:connector-curvature="0" />
      <path
         style="fill:none;stroke:#007700;stroke-width:3;stroke-linecap:butt;stroke-linejoin:round;stroke-opacity:1"
         d="m 591.816,732.525 c 137.20597,4.40888 274.41201,8.81559 411.618,13.224 31.4693,-135.44043 62.9401,-270.8805 94.409,-406.321"
         id="path164"
         inkscape:connector-curvature="0" />
      <path
         style="fill:none;stroke:#007700;stroke-width:3;stroke-linecap:butt;stroke-linejoin:round;stroke-opacity:1"
         d="m 625.49,359.976 c -10.77032,125.30282 -23.75726,250.67386 -33.1567,375.93439 13.88503,91.01695 27.77091,182.03378 41.6567,273.05061 125.566,-0.1841 251.132,-0.3681 376.698,-0.551"
         id="path166"
         inkscape:connector-curvature="0" />
      <path
         style="fill:none;stroke:#007700;stroke-width:3;stroke-linecap:butt;stroke-linejoin:round;stroke-opacity:1"
         d="M 633.99,1008.961 C 654.37317,832.91165 674.75624,656.86228 695.14,480.813"
         id="path168"
         inkscape:connector-curvature="0" />
    </g>
  </g>
</svg>
