<?xml version="1.0" encoding="UTF-8" standalone="no"?>
<svg
   xmlns:dc="http://purl.org/dc/elements/1.1/"
   xmlns:cc="http://creativecommons.org/ns#"
   xmlns:rdf="http://www.w3.org/1999/02/22-rdf-syntax-ns#"
   xmlns:svg="http://www.w3.org/2000/svg"
   xmlns="http://www.w3.org/2000/svg"
   xmlns:sodipodi="http://sodipodi.sourceforge.net/DTD/sodipodi-0.dtd"
   xmlns:inkscape="http://www.inkscape.org/namespaces/inkscape"
   height="1500"
   version="1.1"
   width="1500"
   id="svg279"
   sodipodi:docname="processed_ddd_04_26_2019_16420000.svg"
   inkscape:version="0.92.2 5c3e80d, 2017-08-06">
  <metadata
     id="metadata285">
    <rdf:RDF>
      <cc:Work
         rdf:about="">
        <dc:format>image/svg+xml</dc:format>
        <dc:type
           rdf:resource="http://purl.org/dc/dcmitype/StillImage" />
      </cc:Work>
    </rdf:RDF>
  </metadata>
  <defs
     id="defs283" />
  <sodipodi:namedview
     pagecolor="#ffffff"
     bordercolor="#666666"
     borderopacity="1"
     objecttolerance="10"
     gridtolerance="10"
     guidetolerance="10"
     inkscape:pageopacity="0"
     inkscape:pageshadow="2"
     inkscape:window-width="468"
     inkscape:window-height="449"
     id="namedview281"
     showgrid="false"
     inkscape:zoom="0.15733333"
     inkscape:cx="750"
     inkscape:cy="750"
     inkscape:window-x="1680"
     inkscape:window-y="0"
     inkscape:window-maximized="0"
     inkscape:current-layer="svg279" />
  <g
     id="fressstylelayer_LineSet"
     inkscape:groupmode="lineset"
     inkscape:label="fressstylelayer_LineSet">
    <g
       id="strokes"
       inkscape:groupmode="layer"
       inkscape:label="strokes">
      <path
         style="fill:none;stroke:#9d14aa;stroke-width:3;stroke-linecap:butt;stroke-linejoin:round;stroke-opacity:1"
         d="m 253.602,863.919 c -27.02621,47.18654 -54.05198,94.37334 -81.078,141.56 16.40287,37.551 32.80826,75.1009 49.211,112.652 136.55548,58.1142 273.10978,116.2312 409.665,174.346 2.33356,-4.5141 4.66682,-9.0283 7.001,-13.542"
         id="path2"
         inkscape:connector-curvature="0" />
      <path
         style="fill:none;stroke:#9d14aa;stroke-width:3;stroke-linecap:butt;stroke-linejoin:round;stroke-opacity:1"
         d="m 738.782,1285.248 c -7.72457,21.9758 -17.38984,38.5899 -39.89007,19.7336 -114.06177,-49.4363 -228.92431,-97.9249 -342.48293,-147.9566 28.18767,-51.4153 56.375,-102.8308 84.563,-154.246"
         id="path4"
         inkscape:connector-curvature="0" />
      <path
         style="fill:none;stroke:#9d14aa;stroke-width:3;stroke-linecap:butt;stroke-linejoin:round;stroke-opacity:1"
         d="m 430.019,845.405 c 164.97311,89.33002 331.63422,175.5613 497.271,263.673 79.0427,-158.49646 158.0857,-316.99283 237.129,-475.489 C 1027.6796,531.72568 890.94173,429.86025 754.203,327.996 693.43545,349.95273 632.66812,371.91008 571.901,393.868"
         id="path6"
         inkscape:connector-curvature="0" />
      <path
         style="fill:none;stroke:#9d14aa;stroke-width:3;stroke-linecap:butt;stroke-linejoin:round;stroke-opacity:1"
         d="M 754.203,327.996 C 655.71434,505.83945 557.22839,683.6844 458.74,861.528"
         id="path8"
         inkscape:connector-curvature="0" />
      <path
         style="fill:none;stroke:#9d14aa;stroke-width:3;stroke-linecap:butt;stroke-linejoin:round;stroke-opacity:1"
         d="M 332.917,821.456 C 241.04179,773.58777 149.16596,725.72071 57.291,677.852 33.186172,662.37139 54.082872,643.87154 63.899,626.114 129.21928,519.48862 191.92291,410.93896 258.87442,305.51353 282.05046,279.36288 305.22646,253.2122 328.403,227.062 c 86.57123,59.30481 173.14312,118.60867 259.714,177.914 -12.04251,21.28713 -24.08675,42.57328 -36.13,63.86"
         id="path10"
         inkscape:connector-curvature="0" />
      <path
         style="fill:none;stroke:#9d14aa;stroke-width:3;stroke-linecap:butt;stroke-linejoin:round;stroke-opacity:1"
         d="m 530.092,474.077 c 32.68564,-7.82337 65.37083,-15.64865 98.056,-23.474 27.09071,7.47268 5.60722,26.45933 -1.54167,42.04864 C 561.07765,610.23633 495.54796,727.82046 430.019,845.405"
         id="path12"
         inkscape:connector-curvature="0" />
      <path
         style="fill:none;stroke:#9d14aa;stroke-width:3;stroke-linecap:butt;stroke-linejoin:round;stroke-opacity:1"
         d="m 485.496,1142.555 c 23.26601,22.6577 39.78659,54.6496 73.3061,63.1188 115.23034,50.9467 230.46082,101.893 345.6909,152.8402 65.011,-132.7678 130.0246,-265.5344 195.036,-398.302 l -2.8508,-1.74708 -1.9792,-1.21292"
         id="path14"
         inkscape:connector-curvature="0" />
      <path
         style="fill:none;stroke:#9d14aa;stroke-width:3;stroke-linecap:butt;stroke-linejoin:round;stroke-opacity:1"
         d="m 284.535,796.248 c -11.96806,20.86982 -23.93615,41.73963 -35.905,62.609 24.57076,24.46841 48.23972,50.21154 73.384,73.881"
         id="path16"
         inkscape:connector-curvature="0" />
      <path
         style="fill:none;stroke:#9d14aa;stroke-width:3;stroke-linecap:butt;stroke-linejoin:round;stroke-opacity:1"
         d="M 328.403,227.062 C 238.03167,377.32493 147.66239,527.5891 57.291,677.852"
         id="path18"
         inkscape:connector-curvature="0" />
      <path
         style="fill:none;stroke:#9d14aa;stroke-width:3;stroke-linecap:butt;stroke-linejoin:round;stroke-opacity:1"
         d="M 332.917,821.456 C 398.64263,705.66336 464.36716,589.87009 530.092,474.077"
         id="path20"
         inkscape:connector-curvature="0" />
      <path
         style="fill:none;stroke:#9d14aa;stroke-width:3;stroke-linecap:butt;stroke-linejoin:round;stroke-opacity:1"
         d="m 1059.187,989.067 c 22.8493,17.6273 24.8133,-16.60629 34.923,-30.614 58.0229,-118.35371 116.0461,-236.7073 174.069,-355.061 -106.9522,-83.98253 -213.9055,-167.96383 -320.858,-251.946 -39.80877,10.48321 -79.61804,20.96451 -119.427,31.447"
         id="path22"
         inkscape:connector-curvature="0" />
      <path
         style="fill:none;stroke:#9d14aa;stroke-width:3;stroke-linecap:butt;stroke-linejoin:round;stroke-opacity:1"
         d="m 573.259,393.377 c -2.06835,0.29082 -3.49011,-4.62167 -5.781,-2.54"
         id="path24"
         inkscape:connector-curvature="0" />
      <path
         style="fill:none;stroke:#9d14aa;stroke-width:3;stroke-linecap:butt;stroke-linejoin:round;stroke-opacity:1"
         d="m 519.909,1013.148 c 141.06602,70.4484 282.89638,139.6834 424.257,209.664 72.6907,-147.7233 145.3833,-295.44567 218.074,-443.169 -17.5121,-12.11354 -35.0243,-24.22695 -52.536,-36.341"
         id="path26"
         inkscape:connector-curvature="0" />
      <path
         style="fill:none;stroke:#9d14aa;stroke-width:3;stroke-linecap:butt;stroke-linejoin:round;stroke-opacity:1"
         d="m 296.758,802.617 c -12.60013,22.02878 -25.20059,44.05738 -37.801,66.086 31.16675,29.624 58.96943,63.9353 92.30104,90.54275 150.35393,72.95885 300.70681,145.91985 451.06096,218.87825 3.41846,-6.7428 6.83516,-13.4864 10.254,-20.229"
         id="path28"
         inkscape:connector-curvature="0" />
      <path
         style="fill:none;stroke:#9d14aa;stroke-width:3;stroke-linecap:butt;stroke-linejoin:round;stroke-opacity:1"
         d="M 628.148,450.603 C 533.84706,619.17793 439.54337,787.75132 345.242,956.326"
         id="path30"
         inkscape:connector-curvature="0" />
      <path
         style="fill:none;stroke:#9d14aa;stroke-width:3;stroke-linecap:butt;stroke-linejoin:round;stroke-opacity:1"
         d="m 1076.084,995.222 c -5.1364,-3.05915 -10.2719,-6.1199 -15.409,-9.178"
         id="path32"
         inkscape:connector-curvature="0" />
      <path
         style="fill:none;stroke:#9d14aa;stroke-width:3;stroke-linecap:butt;stroke-linejoin:round;stroke-opacity:1"
         d="m 320.745,931.45 -0.295,0.524"
         id="path34"
         inkscape:connector-curvature="0" />
      <path
         style="fill:none;stroke:#9d14aa;stroke-width:3;stroke-linecap:butt;stroke-linejoin:round;stroke-opacity:1"
         d="m 324.552,935.315 c -34.27189,60.93892 -68.54458,121.8774 -102.817,182.816"
         id="path36"
         inkscape:connector-curvature="0" />
      <path
         style="fill:none;stroke:#9d14aa;stroke-width:3;stroke-linecap:butt;stroke-linejoin:round;stroke-opacity:1"
         d="m 441.6,1003.084 c -28.25101,51.5388 -56.50253,103.0774 -84.754,154.616"
         id="path38"
         inkscape:connector-curvature="0" />
      <path
         style="fill:none;stroke:#9d14aa;stroke-width:3;stroke-linecap:butt;stroke-linejoin:round;stroke-opacity:1"
         d="m 535.855,1048.822 c -16.78747,31.2437 -33.57167,62.4892 -50.359,93.733"
         id="path40"
         inkscape:connector-curvature="0" />
      <path
         style="fill:none;stroke:#9d14aa;stroke-width:3;stroke-linecap:butt;stroke-linejoin:round;stroke-opacity:1"
         d="m 568.245,391.363 0.582,-1.024"
         id="path42"
         inkscape:connector-curvature="0" />
      <path
         style="fill:none;stroke:#9d14aa;stroke-width:3;stroke-linecap:butt;stroke-linejoin:round;stroke-opacity:1"
         d="m 570.066,920.345 c -16.71929,30.93418 -33.43843,61.86843 -50.157,92.803"
         id="path44"
         inkscape:connector-curvature="0" />
      <path
         style="fill:none;stroke:#9d14aa;stroke-width:3;stroke-linecap:butt;stroke-linejoin:round;stroke-opacity:1"
         d="m 571.456,921.08 c -16.75951,31.02129 -33.52142,62.04129 -50.282,93.062"
         id="path46"
         inkscape:connector-curvature="0" />
      <path
         style="fill:none;stroke:#9d14aa;stroke-width:3;stroke-linecap:butt;stroke-linejoin:round;stroke-opacity:1"
         d="m 593.795,1076.938 c -20.65879,38.9351 -41.31646,77.8708 -61.975,116.806"
         id="path48"
         inkscape:connector-curvature="0" />
      <path
         style="fill:none;stroke:#9d14aa;stroke-width:3;stroke-linecap:butt;stroke-linejoin:round;stroke-opacity:1"
         d="m 901.341,437.608 c 15.3255,-28.72129 30.65466,-57.44063 45.98,-86.162"
         id="path50"
         inkscape:connector-curvature="0" />
    </g>
  </g>
  <g
     id="fressstylelayer_hidden lines"
     inkscape:groupmode="lineset"
     inkscape:label="fressstylelayer_hidden lines">
    <g
       id="g276"
       inkscape:groupmode="layer"
       inkscape:label="strokes">
      <path
         style="fill:none;stroke:#007700;stroke-width:3;stroke-linecap:butt;stroke-linejoin:round;stroke-opacity:1"
         d="m 927.074,750.437 c 70.40051,11.23388 140.8007,22.46968 211.201,33.705"
         id="path54"
         inkscape:connector-curvature="0" />
      <path
         style="fill:none;stroke:#007700;stroke-width:3;stroke-linecap:butt;stroke-linejoin:round;stroke-opacity:1"
         d="m 1127.55,805.848 c 18.7379,-19.87936 1.9022,-30.45007 -16.7934,-40.53515 -16.9577,-11.60318 -33.9162,-23.20519 -50.8736,-34.80885 -19.6924,20.29835 -2.0011,30.83504 16.8149,41.07525 16.951,11.42256 33.9016,22.84551 50.8521,34.26875 z"
         id="path56"
         inkscape:connector-curvature="0" />
      <path
         style="fill:none;stroke:#007700;stroke-width:3;stroke-linecap:butt;stroke-linejoin:round;stroke-opacity:1"
         d="M 947.77,773.436 C 897.66816,871.19758 847.56684,968.95942 797.465,1066.721"
         id="path58"
         inkscape:connector-curvature="0" />
      <path
         style="fill:none;stroke:#007700;stroke-width:3;stroke-linecap:butt;stroke-linejoin:round;stroke-opacity:1"
         d="m 704.004,1018.123 c 31.15361,16.1994 62.30745,32.3984 93.461,48.598 -8.58258,-4.9786 -17.16454,-9.9582 -25.747,-14.937"
         id="path60"
         inkscape:connector-curvature="0" />
      <path
         style="fill:none;stroke:#007700;stroke-width:3;stroke-linecap:butt;stroke-linejoin:round;stroke-opacity:1"
         d="m 1127.55,805.848 c -59.9266,-10.80451 -119.8533,-21.60845 -179.78,-32.412 l 2.597,1.673"
         id="path62"
         inkscape:connector-curvature="0" />
      <path
         style="fill:none;stroke:#007700;stroke-width:3;stroke-linecap:butt;stroke-linejoin:round;stroke-opacity:1"
         d="m 680.605,1004.363 c 30.37157,15.8059 60.74174,31.6145 91.113,47.421 51.78523,-100.44905 103.571,-200.89783 155.356,-301.347 -31.00871,-20.07729 -62.01909,-40.15201 -93.028,-60.229"
         id="path64"
         inkscape:connector-curvature="0" />
      <path
         style="fill:none;stroke:#007700;stroke-width:3;stroke-linecap:butt;stroke-linejoin:round;stroke-opacity:1"
         d="m 172.524,1005.479 c 110.83653,49.8714 221.67448,99.7396 332.511,149.611"
         id="path66"
         inkscape:connector-curvature="0" />
      <path
         style="fill:none;stroke:#007700;stroke-width:3;stroke-linecap:butt;stroke-linejoin:round;stroke-opacity:1"
         d="m 536.808,1095.686 c -10.59007,19.8018 -21.18174,39.6028 -31.773,59.404 42.12218,45.7952 84.24324,91.5914 126.365,137.387"
         id="path68"
         inkscape:connector-curvature="0" />
      <path
         style="fill:none;stroke:#007700;stroke-width:3;stroke-linecap:butt;stroke-linejoin:round;stroke-opacity:1"
         d="m 322.014,932.738 c 85.93991,41.97962 172.34485,84.2491 257.996,126.049 C 535.8296,1019.2688 478.09614,1001.3373 426.82032,973.13181 393.41175,955.05449 356.58901,941.82583 325.2145,920.85962 308.36313,904.52128 291.5116,888.18311 274.66,871.845 c 12.83262,-22.50074 25.6664,-45.00082 38.5,-67.501 -19.15559,-23.22377 -26.61545,1.12593 -35.86236,18.20184 -7.8985,13.79108 -15.79807,27.58155 -23.69564,41.37316"
         id="path70"
         inkscape:connector-curvature="0" />
      <path
         style="fill:none;stroke:#007700;stroke-width:3;stroke-linecap:butt;stroke-linejoin:round;stroke-opacity:1"
         d="m 638.401,1278.935 c -92.80244,-41.0185 -188.27958,-81.2451 -281.992,-121.91"
         id="path72"
         inkscape:connector-curvature="0" />
      <path
         style="fill:none;stroke:#007700;stroke-width:3;stroke-linecap:butt;stroke-linejoin:round;stroke-opacity:1"
         d="m 330.047,925.545 c -1.83155,3.25673 -3.66329,6.51336 -5.495,9.77"
         id="path74"
         inkscape:connector-curvature="0" />
      <path
         style="fill:none;stroke:#007700;stroke-width:3;stroke-linecap:butt;stroke-linejoin:round;stroke-opacity:1"
         d="m 693.29,456.362 c -9.5732,12.20955 40.32779,-13.08182 35.597,-5.16 -1.88982,-4.64836 -26.90187,4.75714 -35.597,5.16 z"
         id="path76"
         inkscape:connector-curvature="0" />
      <path
         style="fill:none;stroke:#007700;stroke-width:3;stroke-linecap:butt;stroke-linejoin:round;stroke-opacity:1"
         d="m 693.29,456.362 c 87.15386,60.26001 174.30872,120.51859 261.463,180.778"
         id="path78"
         inkscape:connector-curvature="0" />
      <path
         style="fill:none;stroke:#007700;stroke-width:3;stroke-linecap:butt;stroke-linejoin:round;stroke-opacity:1"
         d="m 1167.368,644.961 c -70.8716,-2.60772 -141.7434,-5.21338 -212.615,-7.821 -13.11454,25.29859 -26.23215,50.59558 -39.347,75.894"
         id="path80"
         inkscape:connector-curvature="0" />
      <path
         style="fill:none;stroke:#007700;stroke-width:3;stroke-linecap:butt;stroke-linejoin:round;stroke-opacity:1"
         d="M 1059.883,730.504 C 1010.971,723.58127 960.64684,720.51536 912.61196,711.1975 905.95609,706.823 899.3011,702.44716 892.645,698.073"
         id="path82"
         inkscape:connector-curvature="0" />
      <path
         style="fill:none;stroke:#007700;stroke-width:3;stroke-linecap:butt;stroke-linejoin:round;stroke-opacity:1"
         d="m 901.961,680.205 c -0.92799,-0.61724 -2.95666,-1.96657 -3.043,-2.024"
         id="path84"
         inkscape:connector-curvature="0" />
      <path
         style="fill:none;stroke:#007700;stroke-width:3;stroke-linecap:butt;stroke-linejoin:round;stroke-opacity:1"
         d="m 844.745,673.602 c 18.0008,-2.42957 45.19608,11.86305 57.26637,-1.34963 7.99348,-15.322 15.98747,-30.64373 23.98163,-45.96537"
         id="path86"
         inkscape:connector-curvature="0" />
      <path
         style="fill:none;stroke:#007700;stroke-width:3;stroke-linecap:butt;stroke-linejoin:round;stroke-opacity:1"
         d="m 838.813,692.297 c 17.86937,-2.11424 44.97298,13.01255 56.92352,-0.1536 17.80907,-22.46605 -27.71246,-10.17209 -40.28876,-15.96082 -2.59721,-0.22501 -5.1945,-0.44916 -7.79176,-0.67358"
         id="path88"
         inkscape:connector-curvature="0" />
      <path
         style="fill:none;stroke:#007700;stroke-width:3;stroke-linecap:butt;stroke-linejoin:round;stroke-opacity:1"
         d="m 816.083,623.402 c 36.63667,0.96139 73.27334,1.92302 109.91,2.885 C 847.12666,571.99468 768.26027,517.70243 689.394,463.41"
         id="path90"
         inkscape:connector-curvature="0" />
      <path
         style="fill:none;stroke:#007700;stroke-width:3;stroke-linecap:butt;stroke-linejoin:round;stroke-opacity:1"
         d="m 1025.683,929.532 c 47.2296,-94.85639 94.4555,-189.71457 141.685,-284.571 -16.2964,-13.45489 -19.4086,28.17225 -30.0389,38.39078 -40.0745,80.32233 -80.1498,160.64428 -120.2231,240.96722 2.8593,1.73715 5.718,3.47539 8.577,5.213 z"
         id="path92"
         inkscape:connector-curvature="0" />
      <path
         style="fill:none;stroke:#007700;stroke-width:3;stroke-linecap:butt;stroke-linejoin:round;stroke-opacity:1"
         d="m 1025.683,929.532 c -9.1434,-2.90854 -18.2856,-5.82049 -27.429,-8.729"
         id="path94"
         inkscape:connector-curvature="0" />
      <path
         style="fill:none;stroke:#007700;stroke-width:3;stroke-linecap:butt;stroke-linejoin:round;stroke-opacity:1"
         d="m 1080.182,757.219 c -10.4964,-1.50329 -20.9926,-3.00835 -31.489,-4.512"
         id="path96"
         inkscape:connector-curvature="0" />
      <path
         style="fill:none;stroke:#007700;stroke-width:3;stroke-linecap:butt;stroke-linejoin:round;stroke-opacity:1"
         d="m 1080.182,757.219 c -27.3108,54.52729 -54.6172,109.05673 -81.928,163.584 26.2311,7.50917 22.6839,23.65631 8.965,42.752 -30.52159,61.287 -61.04434,122.5735 -91.567,183.86 22.40121,11.5069 44.80349,23.0117 67.205,34.518 60.1796,-122.7167 120.3604,-245.43282 180.541,-368.149 -27.739,-18.85448 -55.4775,-37.70972 -83.216,-56.565 z"
         id="path98"
         inkscape:connector-curvature="0" />
      <path
         style="fill:none;stroke:#007700;stroke-width:3;stroke-linecap:butt;stroke-linejoin:round;stroke-opacity:1"
         d="m 1164.419,633.589 c -24.906,-0.67451 -49.812,-1.35211 -74.718,-2.027"
         id="path100"
         inkscape:connector-curvature="0" />
      <path
         style="fill:none;stroke:#007700;stroke-width:3;stroke-linecap:butt;stroke-linejoin:round;stroke-opacity:1"
         d="m 567.478,390.837 c -34.46396,12.73367 -68.92908,25.46422 -103.393,38.198 -55.53052,96.32556 -111.06087,192.65122 -166.591,288.977 30.2156,16.44718 60.43034,32.89593 90.646,49.343 20.38295,-36.05755 40.76712,-72.11441 61.15,-108.172 -14.0779,10.94932 -21.29374,35.57523 -32.714,51.823 -46.412,82.05452 -92.82441,164.10881 -139.237,246.163 13.10556,22.8034 25.03272,30.61363 34.05003,1.46473 22.79132,-40.52392 45.58258,-81.04786 68.37397,-121.57173 -8.84831,-13.34397 17.15964,-35.73699 22.37345,-52.73064 C 415.31895,767.86001 379.33135,765.5001 370.43,755.366 351.1254,744.84455 331.8203,734.32401 312.516,723.802 364.93509,632.59767 417.35557,541.39414 469.775,450.19 c 26.50224,-8.48859 53.00432,-16.97765 79.506,-25.468 31.54349,21.17677 63.08642,42.35436 94.63,63.531 20.63149,-1.00173 20.6957,-30.83683 45.641,-26.306 28.25108,-5.7016 56.50188,-11.40458 84.753,-17.106 20.68829,12.35053 39.37174,32.88236 61.325,40.07 20.6358,-0.78862 44.38819,-14.05665 59.902,5.659 64.72251,46.99801 129.4461,93.99457 194.169,140.992 -13.3958,26.47461 -26.7877,52.95116 -40.183,79.426 32.0054,22.03544 64.0097,44.07242 96.015,66.108 -33.0021,66.84043 -66.0068,133.67963 -99.009,200.52 -14.9701,-0.28898 -40.1518,-25.96323 -47.098,-6.303 -36.03227,72.2969 -72.06446,144.5938 -108.096,216.891 -41.42835,-20.5546 -82.8578,-41.1071 -124.286,-61.662 -4.92875,26.6463 -22.7747,14.4931 -39.84929,4.6615 -46.05792,-24.3308 -95.65675,-42.972 -139.35502,-71.094 C 515.95395,1020.8486 440.45023,987.39399 367.203,950.318 c -26.31086,-11.75211 -52.3704,-23.8568 -70.23,-47.43 -10.22561,-14.7955 -41.68507,-26.75005 -21.64296,-45.5975 10.31498,-18.0627 20.63088,-36.12486 30.94596,-54.1875 -6.25504,-0.64143 -19.39442,-20.14647 -21.741,-6.855"
         id="path102"
         inkscape:connector-curvature="0" />
      <path
         style="fill:none;stroke:#007700;stroke-width:3;stroke-linecap:butt;stroke-linejoin:round;stroke-opacity:1"
         d="M 667.267,466.445 C 633.0971,443.11285 598.92767,419.78003 564.757,396.449"
         id="path104"
         inkscape:connector-curvature="0" />
      <path
         style="fill:none;stroke:#007700;stroke-width:3;stroke-linecap:butt;stroke-linejoin:round;stroke-opacity:1"
         d="M 656.382,486.065 C 622.03069,462.89395 587.68104,439.72045 553.33,416.549"
         id="path106"
         inkscape:connector-curvature="0" />
      <path
         style="fill:none;stroke:#007700;stroke-width:3;stroke-linecap:butt;stroke-linejoin:round;stroke-opacity:1"
         d="m 571.901,393.868 c -20.05773,9.25988 -22.44669,33.02809 4.31651,15.06727 3.96638,-1.3201 7.93296,-2.63961 11.89949,-3.95927"
         id="path108"
         inkscape:connector-curvature="0" />
      <path
         style="fill:none;stroke:#007700;stroke-width:3;stroke-linecap:butt;stroke-linejoin:round;stroke-opacity:1"
         d="m 530.092,474.077 c 17.6525,18.04271 42.11162,-0.79494 63.25957,-1.69381 16.89147,-3.6634 33.783,-7.32655 50.67443,-10.99019"
         id="path110"
         inkscape:connector-curvature="0" />
      <path
         style="fill:none;stroke:#007700;stroke-width:3;stroke-linecap:butt;stroke-linejoin:round;stroke-opacity:1"
         d="m 927.29,1109.078 c -16.17854,-8.8117 -32.35609,-17.6252 -48.534,-26.438"
         id="path112"
         inkscape:connector-curvature="0" />
      <path
         style="fill:none;stroke:#007700;stroke-width:3;stroke-linecap:butt;stroke-linejoin:round;stroke-opacity:1"
         d="m 1065.364,712.629 c -5.282,-0.54695 -10.564,-1.09383 -15.846,-1.641"
         id="path114"
         inkscape:connector-curvature="0" />
      <path
         style="fill:none;stroke:#007700;stroke-width:3;stroke-linecap:butt;stroke-linejoin:round;stroke-opacity:1"
         d="m 1109.704,743.302 c -15.0845,-5.49028 -36.3739,-35.35054 -47.3514,-24.7023 C 1001.1548,839.94697 939.95452,961.29306 878.756,1082.64 729.16393,1003.5859 579.5972,924.48473 430.019,845.405"
         id="path116"
         inkscape:connector-curvature="0" />
      <path
         style="fill:none;stroke:#007700;stroke-width:3;stroke-linecap:butt;stroke-linejoin:round;stroke-opacity:1"
         d="m 1094.699,957.252 c -16.2985,-11.22528 -33.5993,-25.93138 -38.3489,2.82022 -19.6017,19.91892 4.5629,33.50439 9.5079,5.62278 58.561,-118.89848 117.1214,-237.79731 175.682,-356.696 -102.8604,-79.75662 -205.721,-159.51286 -308.581,-239.27 -64.00327,15.86392 -128.00769,31.72324 -192.011,47.587 -2.94623,11.19554 -30.91436,40.84355 -8.144,33.08 -11.01525,-10.39638 -32.05026,-22.87277 -46.895,-34.064 -42.99624,11.56767 -85.99272,23.13447 -128.989,34.702 -22.93318,40.49842 -45.86711,80.99641 -68.8,121.495 25.24083,6.66884 29.91064,-19.60085 40.687,-36.09 12.1078,-14.94895 15.86481,-41.3937 33.39273,-48.88005 19.36993,-5.41338 42.48548,-5.69293 59.66727,-14.10495 4.89114,-19.31832 28.58611,-13.35486 43.196,-19.607 18.18874,9.74104 34.17259,29.27376 53.819,32.541 13.13283,-23.93342 26.26634,-47.86648 39.399,-71.8 57.8308,-14.21416 115.66207,-28.42638 173.493,-42.64 99.6113,77.1326 199.222,154.26596 298.833,231.399 -61.5227,124.58249 -123.0454,249.16495 -184.569,373.747 -31.8652,-9.84083 1.694,11.79019 13.149,11.973"
         id="path118"
         inkscape:connector-curvature="0" />
      <path
         style="fill:none;stroke:#007700;stroke-width:3;stroke-linecap:butt;stroke-linejoin:round;stroke-opacity:1"
         d="m 1241.54,608.999 c -77.991,-0.4452 -155.982,-0.89107 -233.973,-1.337"
         id="path120"
         inkscape:connector-curvature="0" />
      <path
         style="fill:none;stroke:#007700;stroke-width:3;stroke-linecap:butt;stroke-linejoin:round;stroke-opacity:1"
         d="m 994.117,633.784 c 18.8794,-20.84403 9.0329,-34.72878 -13.68806,-45.49599 C 900.60209,531.29715 820.77546,474.30599 740.948,417.316"
         id="path122"
         inkscape:connector-curvature="0" />
      <path
         style="fill:none;stroke:#007700;stroke-width:3;stroke-linecap:butt;stroke-linejoin:round;stroke-opacity:1"
         d="m 726.22,456.053 c -1.58655,-1.10769 -3.17271,-2.21593 -4.759,-3.324"
         id="path124"
         inkscape:connector-curvature="0" />
      <path
         style="fill:none;stroke:#007700;stroke-width:3;stroke-linecap:butt;stroke-linejoin:round;stroke-opacity:1"
         d="m 1159.423,639.068 c -55.8112,-3.00944 -113.2393,-1.17422 -168.04272,-7.20488 C 904.35236,570.78797 817.32483,509.71228 730.297,448.637"
         id="path126"
         inkscape:connector-curvature="0" />
      <path
         style="fill:none;stroke:#007700;stroke-width:3;stroke-linecap:butt;stroke-linejoin:round;stroke-opacity:1"
         d="m 1066.326,939.864 c -16.4069,-5.18103 -32.813,-10.36426 -49.22,-15.545"
         id="path128"
         inkscape:connector-curvature="0" />
      <path
         style="fill:none;stroke:#007700;stroke-width:3;stroke-linecap:butt;stroke-linejoin:round;stroke-opacity:1"
         d="m 598.389,1068.28 c -1.53133,2.886 -3.06267,5.772 -4.594,8.658"
         id="path130"
         inkscape:connector-curvature="0" />
      <path
         style="fill:none;stroke:#007700;stroke-width:3;stroke-linecap:butt;stroke-linejoin:round;stroke-opacity:1"
         d="m 1046.574,979.877 c -3.6378,-2.16429 -7.2759,-4.32818 -10.914,-6.492"
         id="path132"
         inkscape:connector-curvature="0" />
      <path
         style="fill:none;stroke:#007700;stroke-width:3;stroke-linecap:butt;stroke-linejoin:round;stroke-opacity:1"
         d="m 1032.677,979.411 c -9.5967,-5.68264 -19.1933,-11.36533 -28.79,-17.048"
         id="path134"
         inkscape:connector-curvature="0" />
      <path
         style="fill:none;stroke:#007700;stroke-width:3;stroke-linecap:butt;stroke-linejoin:round;stroke-opacity:1"
         d="m 581.879,1055.493 c -0.52393,0.9837 -1.71593,3.2217 -1.788,3.357"
         id="path136"
         inkscape:connector-curvature="0" />
      <path
         style="fill:none;stroke:#007700;stroke-width:3;stroke-linecap:butt;stroke-linejoin:round;stroke-opacity:1"
         d="m 545.156,1031.509 c -3.10037,5.771 -6.20149,11.5416 -9.301,17.313"
         id="path138"
         inkscape:connector-curvature="0" />
      <path
         style="fill:none;stroke:#007700;stroke-width:3;stroke-linecap:butt;stroke-linejoin:round;stroke-opacity:1"
         d="m 1021.504,934.872 c 26.0083,8.44671 52.0164,16.89418 78.025,25.34"
         id="path140"
         inkscape:connector-curvature="0" />
      <path
         style="fill:none;stroke:#007700;stroke-width:3;stroke-linecap:butt;stroke-linejoin:round;stroke-opacity:1"
         d="M 904.493,1358.514 C 844.62271,1308.6396 784.7519,1258.7659 724.882,1208.891"
         id="path142"
         inkscape:connector-curvature="0" />
      <path
         style="fill:none;stroke:#007700;stroke-width:3;stroke-linecap:butt;stroke-linejoin:round;stroke-opacity:1"
         d="m 650.112,1174.199 c 24.92279,11.5652 49.84681,23.1277 74.77,34.692 22.88109,-44.6456 45.75891,-89.2929 68.639,-133.939"
         id="path144"
         inkscape:connector-curvature="0" />
      <path
         style="fill:none;stroke:#007700;stroke-width:3;stroke-linecap:butt;stroke-linejoin:round;stroke-opacity:1"
         d="m 752.783,1053.902 c 56.1785,27.7565 108.63226,62.2435 162.869,93.513"
         id="path146"
         inkscape:connector-curvature="0" />
      <path
         style="fill:none;stroke:#007700;stroke-width:3;stroke-linecap:butt;stroke-linejoin:round;stroke-opacity:1"
         d="m 248.63,858.857 c 8.67733,4.328 17.35282,8.65969 26.03,12.988"
         id="path148"
         inkscape:connector-curvature="0" />
      <path
         style="fill:none;stroke:#007700;stroke-width:3;stroke-linecap:butt;stroke-linejoin:round;stroke-opacity:1"
         d="m 322.463,928.399 c -0.54684,0.97114 -1.69218,3.00514 -1.718,3.051"
         id="path150"
         inkscape:connector-curvature="0" />
      <path
         style="fill:none;stroke:#007700;stroke-width:3;stroke-linecap:butt;stroke-linejoin:round;stroke-opacity:1"
         d="m 43.225,660.357 c 110.3656,57.78979 220.73178,115.57848 331.097,173.369"
         id="path152"
         inkscape:connector-curvature="0" />
      <path
         style="fill:none;stroke:#007700;stroke-width:3;stroke-linecap:butt;stroke-linejoin:round;stroke-opacity:1"
         d="m 313.16,804.344 c -8.53107,-4.46086 -17.06185,-8.92228 -25.593,-13.383"
         id="path154"
         inkscape:connector-curvature="0" />
      <path
         style="fill:none;stroke:#007700;stroke-width:3;stroke-linecap:butt;stroke-linejoin:round;stroke-opacity:1"
         d="M 379.763,837.062 C 351.35451,822.19 322.94498,807.31997 294.537,792.447"
         id="path156"
         inkscape:connector-curvature="0" />
      <path
         style="fill:none;stroke:#007700;stroke-width:3;stroke-linecap:butt;stroke-linejoin:round;stroke-opacity:1"
         d="m 306.276,803.103 c -2.51433,-1.313 -5.02867,-2.626 -7.543,-3.939"
         id="path158"
         inkscape:connector-curvature="0" />
      <path
         style="fill:none;stroke:#007700;stroke-width:3;stroke-linecap:butt;stroke-linejoin:round;stroke-opacity:1"
         d="m 332.917,821.456 c -10.95449,-3.80518 -27.73506,-24.58265 -36.159,-18.839"
         id="path160"
         inkscape:connector-curvature="0" />
      <path
         style="fill:none;stroke:#007700;stroke-width:3;stroke-linecap:butt;stroke-linejoin:round;stroke-opacity:1"
         d="M 469.775,450.19 C 397.99647,403.63245 326.21779,357.07514 254.439,310.518"
         id="path162"
         inkscape:connector-curvature="0" />
      <path
         style="fill:none;stroke:#007700;stroke-width:3;stroke-linecap:butt;stroke-linejoin:round;stroke-opacity:1"
         d="M 982.857,1181.933 C 921.15271,1145.6569 859.44862,1109.3805 797.744,1073.105"
         id="path164"
         inkscape:connector-curvature="0" />
      <path
         style="fill:none;stroke:#007700;stroke-width:3;stroke-linecap:butt;stroke-linejoin:round;stroke-opacity:1"
         d="m 701.358,1023.178 c 32.12906,16.6416 64.25735,33.2846 96.386,49.927 50.8746,-99.33186 101.74774,-198.66448 152.623,-297.996 71.0104,12.89131 142.0206,25.78351 213.031,38.675"
         id="path166"
         inkscape:connector-curvature="0" />
      <path
         style="fill:none;stroke:#007700;stroke-width:3;stroke-linecap:butt;stroke-linejoin:round;stroke-opacity:1"
         d="m 827.894,382.893 c -27.72987,8.98362 -59.81073,12.39092 -84.83561,24.84198 -12.68342,23.03754 -25.36728,46.07485 -38.05139,69.11202 48.24852,-8.51028 96.49675,-17.02219 144.745,-25.534 -20.10435,-12.56227 -38.76117,-32.38539 -59.77688,-40.37221 -58.32301,14.50483 -117.86647,27.40006 -175.42212,42.91721 -19.2254,23.24516 17.5974,4.87525 29.77679,4.8015 34.41116,-0.8581 -0.42865,-15.15701 -12.30279,-24.9995 -19.58878,-13.42847 -39.17879,-26.85515 -58.768,-40.283"
         id="path168"
         inkscape:connector-curvature="0" />
      <path
         style="fill:none;stroke:#007700;stroke-width:3;stroke-linecap:butt;stroke-linejoin:round;stroke-opacity:1"
         d="m 705.007,476.847 c 4.62504,3.18027 9.25011,6.36051 13.875,9.541"
         id="path170"
         inkscape:connector-curvature="0" />
      <path
         style="fill:none;stroke:#007700;stroke-width:3;stroke-linecap:butt;stroke-linejoin:round;stroke-opacity:1"
         d="m 628.273,461.989 c -4.41803,-2.98778 -8.83711,-5.97401 -13.255,-8.962"
         id="path172"
         inkscape:connector-curvature="0" />
      <path
         style="fill:none;stroke:#007700;stroke-width:3;stroke-linecap:butt;stroke-linejoin:round;stroke-opacity:1"
         d="m 620.574,475.768 c -4.43377,-2.97384 -8.86929,-5.94507 -13.303,-8.919"
         id="path174"
         inkscape:connector-curvature="0" />
      <path
         style="fill:none;stroke:#007700;stroke-width:3;stroke-linecap:butt;stroke-linejoin:round;stroke-opacity:1"
         d="M 755.424,737.351 C 775.64407,699.36821 795.86307,661.38486 816.083,623.402 729.69521,565.94618 643.30736,508.49046 556.92,451.034"
         id="path176"
         inkscape:connector-curvature="0" />
      <path
         style="fill:none;stroke:#007700;stroke-width:3;stroke-linecap:butt;stroke-linejoin:round;stroke-opacity:1"
         d="M 780.38,741.805 C 742.30591,738.67345 714.56948,708.4544 681.6358,691.85352 617.13116,652.07766 552.62472,612.30473 488.12,572.529"
         id="path178"
         inkscape:connector-curvature="0" />
      <path
         style="fill:none;stroke:#007700;stroke-width:3;stroke-linecap:butt;stroke-linejoin:round;stroke-opacity:1"
         d="m 301.315,885.255 c 16.68092,27.6812 23.93207,-5.39723 34.01203,-20.24389 38.37047,-67.9011 76.74022,-135.8026 115.10997,-203.70411 14.10366,-10.86615 21.28561,-35.58817 32.706,-51.825 2.73393,-12.87735 36.75806,-45.38379 9.41125,-39.38965 -22.98308,-1.90431 -24.75799,30.06639 -37.62325,44.32165 -51.20562,90.28017 -102.41078,180.5606 -153.616,270.841 z"
         id="path180"
         inkscape:connector-curvature="0" />
      <path
         style="fill:none;stroke:#007700;stroke-width:3;stroke-linecap:butt;stroke-linejoin:round;stroke-opacity:1"
         d="m 301.315,885.255 c 99.64254,49.71558 199.28521,99.43091 298.928,149.146"
         id="path182"
         inkscape:connector-curvature="0" />
      <path
         style="fill:none;stroke:#007700;stroke-width:3;stroke-linecap:butt;stroke-linejoin:round;stroke-opacity:1"
         d="m 756.239,741.21 c -51.99936,97.72996 -103.99757,195.46054 -155.996,293.191 39.55825,28.3269 79.11766,56.6522 118.676,84.979"
         id="path184"
         inkscape:connector-curvature="0" />
      <path
         style="fill:none;stroke:#007700;stroke-width:3;stroke-linecap:butt;stroke-linejoin:round;stroke-opacity:1"
         d="m 681.236,1003.164 c 18.48478,9.1546 21.07987,22.8543 40.16132,31.9858 21.03728,9.9761 40.35547,20.4422 19.12606,42.4571 -10.91248,10.2751 -12.6609,48.3378 -30.58038,37.3661 -7.69452,-3.7769 -15.38829,-7.5554 -23.083,-11.332"
         id="path186"
         inkscape:connector-curvature="0" />
      <path
         style="fill:none;stroke:#007700;stroke-width:3;stroke-linecap:butt;stroke-linejoin:round;stroke-opacity:1"
         d="m 644.469,1072.844 c -2.209,-1.0913 -4.418,-2.1827 -6.627,-3.274"
         id="path188"
         inkscape:connector-curvature="0" />
      <path
         style="fill:none;stroke:#007700;stroke-width:3;stroke-linecap:butt;stroke-linejoin:round;stroke-opacity:1"
         d="m 605.69,1130.587 c 10.71694,-20.3392 21.43474,-40.678 32.152,-61.017 -15.26528,-11.1255 -30.52925,-22.2528 -45.794,-33.379"
         id="path190"
         inkscape:connector-curvature="0" />
      <path
         style="fill:none;stroke:#007700;stroke-width:3;stroke-linecap:butt;stroke-linejoin:round;stroke-opacity:1"
         d="m 750.537,1262.095 c -33.47571,-29.2979 -66.9499,-58.5974 -100.425,-87.896 12.24894,-23.5195 24.49957,-47.0382 36.748,-70.558 -14.19469,-8.7118 -30.17443,-25.0816 -43.278,-29.112 -18.8148,35.7591 -37.62985,71.5181 -56.445,107.277"
         id="path192"
         inkscape:connector-curvature="0" />
      <path
         style="fill:none;stroke:#007700;stroke-width:3;stroke-linecap:butt;stroke-linejoin:round;stroke-opacity:1"
         d="m 561.966,1092.658 c 10.02787,-18.822 20.05445,-37.6448 30.082,-56.467 -91.97645,-45.72944 -183.95346,-91.45775 -275.93,-137.187"
         id="path194"
         inkscape:connector-curvature="0" />
      <path
         style="fill:none;stroke:#007700;stroke-width:3;stroke-linecap:butt;stroke-linejoin:round;stroke-opacity:1"
         d="m 479.598,570.922 c 93.45645,56.5817 185.73722,116.22654 279.92977,170.89085 9.87441,1.81006 19.74883,3.62005 29.62323,5.43015"
         id="path196"
         inkscape:connector-curvature="0" />
      <path
         style="fill:none;stroke:#007700;stroke-width:3;stroke-linecap:butt;stroke-linejoin:round;stroke-opacity:1"
         d="m 1268.179,603.392 c -12.524,-0.0148 -25.048,-0.0305 -37.572,-0.045"
         id="path198"
         inkscape:connector-curvature="0" />
      <path
         style="fill:none;stroke:#007700;stroke-width:3;stroke-linecap:butt;stroke-linejoin:round;stroke-opacity:1"
         d="m 758.281,414.588 c -4.53644,-3.26099 -9.07337,-6.52128 -13.61,-9.782"
         id="path200"
         inkscape:connector-curvature="0" />
      <path
         style="fill:none;stroke:#007700;stroke-width:3;stroke-linecap:butt;stroke-linejoin:round;stroke-opacity:1"
         d="m 277.339,957.169 c 95.55417,46.1432 192.42199,90.2784 287.15267,137.68 8.38288,8.7922 45.1844,36.0934 35.14836,32.8892 -19.08673,-8.9873 -38.1733,-17.9749 -57.26003,-26.9622"
         id="path202"
         inkscape:connector-curvature="0" />
      <path
         style="fill:none;stroke:#007700;stroke-width:3;stroke-linecap:butt;stroke-linejoin:round;stroke-opacity:1"
         d="m 516.251,1149.695 c 4.81945,-17.4238 29.708,-38.2943 21.19177,-53.4291 C 457.8254,1058.0625 377.57787,1020.7793 297.724,982.931"
         id="path204"
         inkscape:connector-curvature="0" />
      <path
         style="fill:none;stroke:#007700;stroke-width:3;stroke-linecap:butt;stroke-linejoin:round;stroke-opacity:1"
         d="m 446.116,658.781 c 0.85233,0.49833 3.733,2.18233 4.321,2.526"
         id="path206"
         inkscape:connector-curvature="0" />
      <path
         style="fill:none;stroke:#007700;stroke-width:3;stroke-linecap:butt;stroke-linejoin:round;stroke-opacity:1"
         d="m 738.782,1285.248 c 21.72444,-22.9438 -0.18911,-30.5162 -21.68768,-38.2366 -77.1997,-34.8182 -154.3989,-69.6376 -231.59832,-104.4564"
         id="path208"
         inkscape:connector-curvature="0" />
      <path
         style="fill:none;stroke:#007700;stroke-width:3;stroke-linecap:butt;stroke-linejoin:round;stroke-opacity:1"
         d="m 451.312,985.367 c -3.23751,5.90557 -6.4746,11.81137 -9.712,17.717"
         id="path210"
         inkscape:connector-curvature="0" />
      <path
         style="fill:none;stroke:#007700;stroke-width:3;stroke-linecap:butt;stroke-linejoin:round;stroke-opacity:1"
         d="m 388.14,767.355 c 6.34298,2.67996 12.68763,5.35596 19.031,8.035"
         id="path212"
         inkscape:connector-curvature="0" />
      <path
         style="fill:none;stroke:#007700;stroke-width:3;stroke-linecap:butt;stroke-linejoin:round;stroke-opacity:1"
         d="m 312.516,723.802 c -5.00724,-1.93023 -10.01439,-3.86071 -15.022,-5.79"
         id="path214"
         inkscape:connector-curvature="0" />
      <path
         style="fill:none;stroke:#007700;stroke-width:3;stroke-linecap:butt;stroke-linejoin:round;stroke-opacity:1"
         d="m 555.645,488.883 c -30.52045,-19.94865 -61.03938,-39.89961 -91.56,-59.848"
         id="path216"
         inkscape:connector-curvature="0" />
      <path
         style="fill:none;stroke:#007700;stroke-width:3;stroke-linecap:butt;stroke-linejoin:round;stroke-opacity:1"
         d="m 509.149,571.274 c -0.9471,-0.5875 -3.1331,-1.9435 -3.279,-2.034"
         id="path218"
         inkscape:connector-curvature="0" />
      <path
         style="fill:none;stroke:#007700;stroke-width:3;stroke-linecap:butt;stroke-linejoin:round;stroke-opacity:1"
         d="m 453.638,661.726 c -0.96206,-0.56267 -3.86072,-2.25801 -4.348,-2.543"
         id="path220"
         inkscape:connector-curvature="0" />
      <path
         style="fill:none;stroke:#007700;stroke-width:3;stroke-linecap:butt;stroke-linejoin:round;stroke-opacity:1"
         d="m 571.825,920.398 -0.369,0.682"
         id="path222"
         inkscape:connector-curvature="0" />
      <path
         style="fill:none;stroke:#007700;stroke-width:3;stroke-linecap:butt;stroke-linejoin:round;stroke-opacity:1"
         d="m 570.449,919.637 -0.383,0.708"
         id="path224"
         inkscape:connector-curvature="0" />
      <path
         style="fill:none;stroke:#007700;stroke-width:3;stroke-linecap:butt;stroke-linejoin:round;stroke-opacity:1"
         d="m 1145.533,777.096 c 5.5688,0.85002 11.1379,1.69846 16.707,2.547"
         id="path226"
         inkscape:connector-curvature="0" />
      <path
         style="fill:none;stroke:#007700;stroke-width:3;stroke-linecap:butt;stroke-linejoin:round;stroke-opacity:1"
         d="m 944.166,1222.812 c -17.61256,-11.5351 -35.22354,-23.0727 -52.836,-34.608"
         id="path228"
         inkscape:connector-curvature="0" />
      <path
         style="fill:none;stroke:#007700;stroke-width:3;stroke-linecap:butt;stroke-linejoin:round;stroke-opacity:1"
         d="m 258.957,868.703 c 2.55833,1.27333 5.11667,2.54667 7.675,3.82"
         id="path230"
         inkscape:connector-curvature="0" />
      <path
         style="fill:none;stroke:#007700;stroke-width:3;stroke-linecap:butt;stroke-linejoin:round;stroke-opacity:1"
         d="m 757.155,1145.839 c 15.05402,10.7626 30.10926,21.5234 45.164,32.285"
         id="path232"
         inkscape:connector-curvature="0" />
      <path
         style="fill:none;stroke:#007700;stroke-width:3;stroke-linecap:butt;stroke-linejoin:round;stroke-opacity:1"
         d="M 812.573,1157.895 C 715.86283,1109.3832 617.27957,1061.4245 519.909,1013.148"
         id="path234"
         inkscape:connector-curvature="0" />
      <path
         style="fill:none;stroke:#007700;stroke-width:3;stroke-linecap:butt;stroke-linejoin:round;stroke-opacity:1"
         d="m 796.188,711.965 c -17.63695,19.26778 -7.47177,30.99779 -13.27358,47.07497 C 742.0528,836.33241 701.19106,913.62479 660.329,990.917"
         id="path236"
         inkscape:connector-curvature="0" />
      <path
         style="fill:none;stroke:#007700;stroke-width:3;stroke-linecap:butt;stroke-linejoin:round;stroke-opacity:1"
         d="m 723.404,1315.536 c -46.68114,-44.6812 -91.52404,-92.045 -139.31269,-135.1096 -22.61364,-10.2433 -45.227,-20.4873 -67.84031,-30.7314 40.77922,42.9584 81.56012,85.9152 122.339,128.874"
         id="path238"
         inkscape:connector-curvature="0" />
      <path
         style="fill:none;stroke:#007700;stroke-width:3;stroke-linecap:butt;stroke-linejoin:round;stroke-opacity:1"
         d="m 665.063,453.847 c 6.94876,-12.50495 13.89648,-25.01047 20.846,-37.515"
         id="path240"
         inkscape:connector-curvature="0" />
      <path
         style="fill:none;stroke:#007700;stroke-width:3;stroke-linecap:butt;stroke-linejoin:round;stroke-opacity:1"
         d="m 662.606,454.621 c -6.23152,11.21075 -12.46284,22.42161 -18.695,33.632"
         id="path242"
         inkscape:connector-curvature="0" />
      <path
         style="fill:none;stroke:#007700;stroke-width:3;stroke-linecap:butt;stroke-linejoin:round;stroke-opacity:1"
         d="m 774.305,444.841 c 6.30644,-11.56097 12.61483,-23.12088 18.921,-34.682"
         id="path244"
         inkscape:connector-curvature="0" />
      <path
         style="fill:none;stroke:#007700;stroke-width:3;stroke-linecap:butt;stroke-linejoin:round;stroke-opacity:1"
         d="m 713.693,487.217 c 6.7871,-12.35998 13.57577,-24.71909 20.363,-37.079"
         id="path246"
         inkscape:connector-curvature="0" />
      <path
         style="fill:none;stroke:#007700;stroke-width:3;stroke-linecap:butt;stroke-linejoin:round;stroke-opacity:1"
         d="m 849.752,451.313 c -6.13058,11.39841 -12.26283,22.79591 -18.394,34.194"
         id="path248"
         inkscape:connector-curvature="0" />
      <path
         style="fill:none;stroke:#007700;stroke-width:3;stroke-linecap:butt;stroke-linejoin:round;stroke-opacity:1"
         d="m 879.348,478.819 c 7.33016,-13.73745 14.66282,-27.47356 21.993,-41.211"
         id="path250"
         inkscape:connector-curvature="0" />
      <path
         style="fill:none;stroke:#007700;stroke-width:3;stroke-linecap:butt;stroke-linejoin:round;stroke-opacity:1"
         d="m 874.812,761.71 c -26.20773,-16.5821 -52.41638,-33.16274 -78.624,-49.745 8.20047,1.12766 16.40066,2.25737 24.601,3.386"
         id="path252"
         inkscape:connector-curvature="0" />
      <path
         style="fill:none;stroke:#007700;stroke-width:3;stroke-linecap:butt;stroke-linejoin:round;stroke-opacity:1"
         d="m 835.889,690.403 c -19.25448,15.51217 -13.84378,33.57638 10.207,41.058 18.34671,11.67841 36.69177,23.3594 55.039,35.037"
         id="path254"
         inkscape:connector-curvature="0" />
      <path
         style="fill:none;stroke:#007700;stroke-width:3;stroke-linecap:butt;stroke-linejoin:round;stroke-opacity:1"
         d="m 758.039,1043.174 c 47.69823,-92.22556 95.39745,-184.45061 143.096,-276.676 -24.0713,-12.48374 -34.18446,3.51001 -41.70345,24.79652 C 818.06002,870.86715 776.69111,950.44115 735.32,1030.014"
         id="path256"
         inkscape:connector-curvature="0" />
      <path
         style="fill:none;stroke:#007700;stroke-width:3;stroke-linecap:butt;stroke-linejoin:round;stroke-opacity:1"
         d="m 735.32,1030.014 c -24.99688,-13.0326 -49.9938,-26.065 -74.991,-39.097 31.65698,19.0703 65.15903,34.8035 97.71,52.257 -7.57258,-4.3874 -15.14564,-8.774 -22.719,-13.16 z"
         id="path258"
         inkscape:connector-curvature="0" />
      <path
         style="fill:none;stroke:#007700;stroke-width:3;stroke-linecap:butt;stroke-linejoin:round;stroke-opacity:1"
         d="m 549.281,424.722 c 6.32187,-11.11936 12.64282,-22.23924 18.964,-33.359"
         id="path260"
         inkscape:connector-curvature="0" />
      <path
         style="fill:none;stroke:#007700;stroke-width:3;stroke-linecap:butt;stroke-linejoin:round;stroke-opacity:1"
         d="m 812.71,1157.624 c -15.22258,-10.3598 -30.44435,-20.7208 -45.666,-31.082"
         id="path262"
         inkscape:connector-curvature="0" />
      <path
         style="fill:none;stroke:#007700;stroke-width:3;stroke-linecap:butt;stroke-linejoin:round;stroke-opacity:1"
         d="m 1057.021,983.637 c -3.6611,-2.18084 -7.3219,-4.36225 -10.983,-6.543"
         id="path264"
         inkscape:connector-curvature="0" />
      <path
         style="fill:none;stroke:#007700;stroke-width:3;stroke-linecap:butt;stroke-linejoin:round;stroke-opacity:1"
         d="m 932.959,369.729 -1.185,2.219"
         id="path266"
         inkscape:connector-curvature="0" />
      <path
         style="fill:none;stroke:#007700;stroke-width:3;stroke-linecap:butt;stroke-linejoin:round;stroke-opacity:1"
         d="m 844.745,673.602 c -18.70876,27.98377 2.20521,20.183 0,0 z"
         id="path268"
         inkscape:connector-curvature="0" />
      <path
         style="fill:none;stroke:#007700;stroke-width:3;stroke-linecap:butt;stroke-linejoin:round;stroke-opacity:1"
         d="m 440.972,1002.779 c 3.26578,-5.9566 6.53115,-11.91343 9.797,-17.87"
         id="path270"
         inkscape:connector-curvature="0" />
      <path
         style="fill:none;stroke:#007700;stroke-width:3;stroke-linecap:butt;stroke-linejoin:round;stroke-opacity:1"
         d="m 551.987,468.836 c -2.69089,4.75606 -5.38169,9.51217 -8.073,14.268"
         id="path272"
         inkscape:connector-curvature="0" />
      <path
         style="fill:none;stroke:#007700;stroke-width:3;stroke-linecap:butt;stroke-linejoin:round;stroke-opacity:1"
         d="m 1060.675,986.044 c -4.7169,-2.80955 -9.4334,-5.61971 -14.151,-8.428"
         id="path274"
         inkscape:connector-curvature="0" />
    </g>
  </g>
</svg>
