<?xml version="1.0" encoding="UTF-8" standalone="no"?>
<svg
   xmlns:dc="http://purl.org/dc/elements/1.1/"
   xmlns:cc="http://creativecommons.org/ns#"
   xmlns:rdf="http://www.w3.org/1999/02/22-rdf-syntax-ns#"
   xmlns:svg="http://www.w3.org/2000/svg"
   xmlns="http://www.w3.org/2000/svg"
   xmlns:sodipodi="http://sodipodi.sourceforge.net/DTD/sodipodi-0.dtd"
   xmlns:inkscape="http://www.inkscape.org/namespaces/inkscape"
   height="1500"
   version="1.1"
   width="1500"
   id="svg135"
   sodipodi:docname="processed_scattercubes_04_25_2019_12340000.svg"
   inkscape:version="0.92.2 5c3e80d, 2017-08-06">
  <metadata
     id="metadata141">
    <rdf:RDF>
      <cc:Work
         rdf:about="">
        <dc:format>image/svg+xml</dc:format>
        <dc:type
           rdf:resource="http://purl.org/dc/dcmitype/StillImage" />
      </cc:Work>
    </rdf:RDF>
  </metadata>
  <defs
     id="defs139" />
  <sodipodi:namedview
     pagecolor="#ffffff"
     bordercolor="#666666"
     borderopacity="1"
     objecttolerance="10"
     gridtolerance="10"
     guidetolerance="10"
     inkscape:pageopacity="0"
     inkscape:pageshadow="2"
     inkscape:window-width="468"
     inkscape:window-height="449"
     id="namedview137"
     showgrid="false"
     inkscape:zoom="0.15733333"
     inkscape:cx="750"
     inkscape:cy="750"
     inkscape:window-x="0"
     inkscape:window-y="0"
     inkscape:window-maximized="0"
     inkscape:current-layer="svg135" />
  <g
     id="fressstylelayer_LineSet"
     inkscape:groupmode="lineset"
     inkscape:label="fressstylelayer_LineSet">
    <g
       id="strokes"
       inkscape:groupmode="layer"
       inkscape:label="strokes">
      <path
         style="fill:none;stroke:#9d14aa;stroke-width:3;stroke-linecap:butt;stroke-linejoin:round;stroke-opacity:1"
         d="m 446.931,977.776 c 4.59611,20.40678 26.9363,32.9914 39.07113,50.0748 93.60954,102.9872 187.21586,205.9774 280.82487,308.9652 180.0067,-88.3256 360.0127,-176.6527 540.019,-264.979 C 1246.0137,923.06202 1187.2655,773.08773 1125.1318,625.06194 1050.9321,529.44636 976.73219,433.83097 902.533,338.215 c -20.38052,11.31293 -40.76122,22.62553 -61.142,33.938"
         id="path2"
         inkscape:connector-curvature="0" />
      <path
         style="fill:none;stroke:#9d14aa;stroke-width:3;stroke-linecap:butt;stroke-linejoin:round;stroke-opacity:1"
         d="M 1127.145,627.656 C 900.65148,746.99398 674.15838,866.33275 447.665,985.671"
         id="path4"
         inkscape:connector-curvature="0" />
      <path
         style="fill:none;stroke:#9d14aa;stroke-width:3;stroke-linecap:butt;stroke-linejoin:round;stroke-opacity:1"
         d="m 1221.392,860.614 c 16.1426,-6.67743 32.533,-13.26103 18.257,-31.588 C 1192.0702,706.15859 1144.4913,583.29122 1096.912,460.424 1038.1344,394.35463 979.35595,328.28597 920.579,262.216 862.7178,294.59657 804.85608,326.97621 746.995,359.357"
         id="path6"
         inkscape:connector-curvature="0" />
      <path
         style="fill:none;stroke:#9d14aa;stroke-width:3;stroke-linecap:butt;stroke-linejoin:round;stroke-opacity:1"
         d="M 953.46,554.31 C 926.70251,490.28774 881.79241,436.5351 845.29423,378.02371 c -7.65679,-14.41766 -24.60295,9.35429 -36.24518,11.32049 -11.58251,6.42932 -23.16488,12.85888 -34.74705,19.2888"
         id="path8"
         inkscape:connector-curvature="0" />
      <path
         style="fill:none;stroke:#9d14aa;stroke-width:3;stroke-linecap:butt;stroke-linejoin:round;stroke-opacity:1"
         d="m 677.638,270.558 c -8.90616,-16.66676 -17.81197,-33.3337 -26.719,-50 -161.91248,92.801 -323.825,185.60192 -485.738,278.402 -18.83122,113.07124 -37.66154,226.14263 -56.492,339.214 131.97284,128.89016 263.9454,257.7806 395.918,386.671 36.59421,-18.5803 73.18706,-37.1632 109.781,-55.744"
         id="path10"
         inkscape:connector-curvature="0" />
      <path
         style="fill:none;stroke:#9d14aa;stroke-width:3;stroke-linecap:butt;stroke-linejoin:round;stroke-opacity:1"
         d="M 108.689,838.174 C 332.67471,714.8178 556.66167,591.46389 780.647,468.107"
         id="path12"
         inkscape:connector-curvature="0" />
      <path
         style="fill:none;stroke:#9d14aa;stroke-width:3;stroke-linecap:butt;stroke-linejoin:round;stroke-opacity:1"
         d="M 919.977,728.251 C 829.16119,559.61271 739.35458,390.45784 650.919,220.558"
         id="path14"
         inkscape:connector-curvature="0" />
      <path
         style="fill:none;stroke:#9d14aa;stroke-width:3;stroke-linecap:butt;stroke-linejoin:round;stroke-opacity:1"
         d="M 792.012,488.726 C 753.92351,416.01451 715.54499,343.21619 677.638,270.558 c 16.61062,-17.8508 22.04957,4.05779 29.862,17.529 74.01602,131.15158 144.89516,263.87778 213.926,397.717"
         id="path16"
         inkscape:connector-curvature="0" />
      <path
         style="fill:none;stroke:#9d14aa;stroke-width:3;stroke-linecap:butt;stroke-linejoin:round;stroke-opacity:1"
         d="M 446.931,977.776 C 604.6133,894.60156 762.29521,811.42639 919.977,728.251 914.25669,717.39201 908.53836,706.53197 902.818,695.673"
         id="path18"
         inkscape:connector-curvature="0" />
      <path
         style="fill:none;stroke:#9d14aa;stroke-width:3;stroke-linecap:butt;stroke-linejoin:round;stroke-opacity:1"
         d="m 812.465,477.5 c -22.02125,5.79455 -20.2809,18.6429 -7.91228,34.64765 32.75497,61.17518 65.51102,122.34979 98.26528,183.52535 6.20253,-3.28992 12.40525,-6.57949 18.608,-9.869"
         id="path20"
         inkscape:connector-curvature="0" />
      <path
         style="fill:none;stroke:#9d14aa;stroke-width:3;stroke-linecap:butt;stroke-linejoin:round;stroke-opacity:1"
         d="m 850.58,550.365 c 26.78075,-14.52451 53.56165,-29.04876 80.342,-43.574"
         id="path22"
         inkscape:connector-curvature="0" />
      <path
         style="fill:none;stroke:#9d14aa;stroke-width:3;stroke-linecap:butt;stroke-linejoin:round;stroke-opacity:1"
         d="m 874.792,596.653 c 26.22252,-14.11461 52.44566,-28.22806 78.668,-42.343"
         id="path24"
         inkscape:connector-curvature="0" />
      <path
         style="fill:none;stroke:#9d14aa;stroke-width:3;stroke-linecap:butt;stroke-linejoin:round;stroke-opacity:1"
         d="m 1026.741,498.273 c 23.3909,-12.61536 46.7809,-25.23224 70.171,-37.849"
         id="path26"
         inkscape:connector-curvature="0" />
    </g>
  </g>
  <g
     id="fressstylelayer_hidden lines"
     inkscape:groupmode="lineset"
     inkscape:label="fressstylelayer_hidden lines">
    <g
       id="g132"
       inkscape:groupmode="layer"
       inkscape:label="strokes">
      <path
         style="fill:none;stroke:#007700;stroke-width:3;stroke-linecap:butt;stroke-linejoin:round;stroke-opacity:1"
         d="m 1079.509,730.029 c 75.7783,113.93646 151.5574,227.87241 227.337,341.808"
         id="path30"
         inkscape:connector-curvature="0" />
      <path
         style="fill:none;stroke:#007700;stroke-width:3;stroke-linecap:butt;stroke-linejoin:round;stroke-opacity:1"
         d="M 1047.839,752.326 C 943.87198,806.51566 839.90531,860.70599 735.939,914.897"
         id="path32"
         inkscape:connector-curvature="0" />
      <path
         style="fill:none;stroke:#007700;stroke-width:3;stroke-linecap:butt;stroke-linejoin:round;stroke-opacity:1"
         d="m 1200.281,996.121 c -50.8131,-81.26553 -101.6286,-162.52961 -152.442,-243.795 9.523,20.08849 19.0445,40.17772 28.568,60.266"
         id="path34"
         inkscape:connector-curvature="0" />
      <path
         style="fill:none;stroke:#007700;stroke-width:3;stroke-linecap:butt;stroke-linejoin:round;stroke-opacity:1"
         d="m 666.489,945.47 c 137.67297,-71.81436 275.34682,-143.62704 413.02,-215.441 -4.525,-10.01473 -9.0474,-20.03064 -13.571,-30.046"
         id="path36"
         inkscape:connector-curvature="0" />
      <path
         style="fill:none;stroke:#007700;stroke-width:3;stroke-linecap:butt;stroke-linejoin:round;stroke-opacity:1"
         d="m 635.422,904.399 c 16.20378,21.75476 36.23874,41.66193 38.517,70.131 30.96347,120.7618 61.92545,241.524 92.888,362.286"
         id="path38"
         inkscape:connector-curvature="0" />
      <path
         style="fill:none;stroke:#007700;stroke-width:3;stroke-linecap:butt;stroke-linejoin:round;stroke-opacity:1"
         d="M 618.287,1167.121 C 604.58755,1095.022 590.88366,1022.9239 577.184,950.825"
         id="path40"
         inkscape:connector-curvature="0" />
      <path
         style="fill:none;stroke:#007700;stroke-width:3;stroke-linecap:butt;stroke-linejoin:round;stroke-opacity:1"
         d="m 675.855,1072.289 c -32.89013,-40.4882 -65.7812,-80.97557 -98.671,-121.464 -20.62502,6.1734 10.37159,22.82568 14.54083,34.03365 25.13234,30.63515 50.26431,61.27065 75.39717,91.90535 2.911,-1.4917 5.822,-2.9833 8.733,-4.475 z"
         id="path42"
         inkscape:connector-curvature="0" />
      <path
         style="fill:none;stroke:#007700;stroke-width:3;stroke-linecap:butt;stroke-linejoin:round;stroke-opacity:1"
         d="m 614.388,1169.101 c 4.69897,-8.9409 -18.63351,-23.0605 -25.14439,-34.0726 C 541.80598,1082.611 494.36876,1030.1933 446.931,977.776"
         id="path44"
         inkscape:connector-curvature="0" />
      <path
         style="fill:none;stroke:#007700;stroke-width:3;stroke-linecap:butt;stroke-linejoin:round;stroke-opacity:1"
         d="m 675.855,1072.289 c -13.47672,-55.9636 -26.95632,-111.92643 -40.433,-167.89 32.7959,-17.24049 65.59306,-34.47859 98.389,-51.719"
         id="path46"
         inkscape:connector-curvature="0" />
      <path
         style="fill:none;stroke:#007700;stroke-width:3;stroke-linecap:butt;stroke-linejoin:round;stroke-opacity:1"
         d="m 908.162,350.678 c -1.87633,-4.15433 -3.75276,-8.30862 -5.629,-12.463"
         id="path48"
         inkscape:connector-curvature="0" />
      <path
         style="fill:none;stroke:#007700;stroke-width:3;stroke-linecap:butt;stroke-linejoin:round;stroke-opacity:1"
         d="m 744.518,868.458 c 107.13975,-56.15881 214.28035,-112.31599 321.42,-168.475 39.959,59.56589 79.9186,119.13139 119.878,178.697"
         id="path50"
         inkscape:connector-curvature="0" />
      <path
         style="fill:none;stroke:#007700;stroke-width:3;stroke-linecap:butt;stroke-linejoin:round;stroke-opacity:1"
         d="m 746.995,359.357 c -76.27668,42.68379 -152.5516,85.37072 -228.828,128.055 5.23041,23.54172 10.46177,47.08324 15.692,70.625 124.76775,-69.11952 249.53565,-138.23876 374.303,-207.359 38.80098,52.08874 81.32154,101.99298 117.7642,155.46683 53.2964,124.17847 106.5938,248.35654 159.8898,372.53517 11.858,-6.02325 23.7177,-12.04325 35.576,-18.066"
         id="path52"
         inkscape:connector-curvature="0" />
      <path
         style="fill:none;stroke:#007700;stroke-width:3;stroke-linecap:butt;stroke-linejoin:round;stroke-opacity:1"
         d="m 730.5,842.593 c 4.77291,17.66799 20.19887,34.66217 7.75499,7.02833 C 731.47561,829.23635 724.69783,808.85084 717.918,788.466"
         id="path54"
         inkscape:connector-curvature="0" />
      <path
         style="fill:none;stroke:#007700;stroke-width:3;stroke-linecap:butt;stroke-linejoin:round;stroke-opacity:1"
         d="m 773.773,968.781 c 100.8775,-52.06397 201.75576,-104.12646 302.634,-156.189 50.7563,82.14735 101.512,164.29508 152.269,246.442"
         id="path56"
         inkscape:connector-curvature="0" />
      <path
         style="fill:none;stroke:#007700;stroke-width:3;stroke-linecap:butt;stroke-linejoin:round;stroke-opacity:1"
         d="m 863.059,1239.7 c 121.87262,-60.2214 243.7445,-120.4444 365.617,-180.666 -9.4657,-20.9707 -18.9291,-41.9424 -28.395,-62.913 -126.4146,63.1251 -252.82927,126.2501 -379.244,189.375 14.00692,18.0683 28.01472,36.136 42.022,54.204 z"
         id="path58"
         inkscape:connector-curvature="0" />
      <path
         style="fill:none;stroke:#007700;stroke-width:3;stroke-linecap:butt;stroke-linejoin:round;stroke-opacity:1"
         d="M 863.059,1239.7 C 832.37892,1148.6431 803.99795,1056.4318 771.88612,966.09367 759.90441,949.02764 747.92106,931.96277 735.939,914.897 c 28.36512,90.1999 56.7324,180.3992 85.098,270.599"
         id="path60"
         inkscape:connector-curvature="0" />
      <path
         style="fill:none;stroke:#007700;stroke-width:3;stroke-linecap:butt;stroke-linejoin:round;stroke-opacity:1"
         d="m 1067.016,603.189 c 59.9524,81.49511 119.9035,162.99122 179.855,244.487"
         id="path62"
         inkscape:connector-curvature="0" />
      <path
         style="fill:none;stroke:#007700;stroke-width:3;stroke-linecap:butt;stroke-linejoin:round;stroke-opacity:1"
         d="M 518.167,487.412 C 584.74991,587.76384 651.33512,688.11415 717.918,788.466 834.28402,726.70703 950.64984,664.9477 1067.016,603.189 1018.205,489.53076 969.39009,375.8742 920.579,262.216"
         id="path64"
         inkscape:connector-curvature="0" />
      <path
         style="fill:none;stroke:#007700;stroke-width:3;stroke-linecap:butt;stroke-linejoin:round;stroke-opacity:1"
         d="m 841.391,372.153 c -112.71347,62.56276 -225.42643,125.12642 -338.14,187.689 29.60943,42.66027 59.21877,85.3206 88.828,127.981 16.51253,-0.87313 31.72164,-29.9615 7.606,-15.066 -34.33705,18.6578 -68.67611,37.3119 -103.013,55.97 2.09001,16.77646 25.38512,-9.33399 36.76694,-11.35057 19.38032,-10.51881 38.76212,-21.0349 58.14206,-31.55443 -45.12379,-65.05648 -90.24765,-130.11291 -135.372,-195.169 -91.35127,51.32829 -182.70442,102.65325 -274.056,153.981 -8.26015,64.71136 -16.52154,129.42255 -24.781,194.134 71.24094,71.46073 142.48211,142.92123 213.723,214.382 30.01018,-15.7543 60.02075,-31.5078 90.031,-47.262 -67.62856,-74.15646 -135.25646,-148.31352 -202.885,-222.47 2.68653,-54.38004 5.37567,-108.75995 8.062,-163.14 64.39435,-36.07271 128.78788,-72.14689 193.182,-108.22 15.88202,22.71586 31.76197,45.43316 47.644,68.149 86.43081,-47.83701 172.86227,-95.67285 259.293,-143.51 -29.59409,-55.37998 -59.18868,-110.75968 -88.784,-166.139"
         id="path66"
         inkscape:connector-curvature="0" />
      <path
         style="fill:none;stroke:#007700;stroke-width:3;stroke-linecap:butt;stroke-linejoin:round;stroke-opacity:1"
         d="M 613.901,675.984 C 587.22011,636.66849 560.5404,597.35217 533.859,558.037"
         id="path68"
         inkscape:connector-curvature="0" />
      <path
         style="fill:none;stroke:#007700;stroke-width:3;stroke-linecap:butt;stroke-linejoin:round;stroke-opacity:1"
         d="M 625.246,898.007 C 660.33072,879.53578 695.41521,861.0641 730.5,842.593 690.77018,783.87555 651.04008,725.15828 611.31,666.441"
         id="path70"
         inkscape:connector-curvature="0" />
      <path
         style="fill:none;stroke:#007700;stroke-width:3;stroke-linecap:butt;stroke-linejoin:round;stroke-opacity:1"
         d="m 1023.336,500.11 c 0.9633,-0.51969 3.2333,-1.74436 3.405,-1.837"
         id="path72"
         inkscape:connector-curvature="0" />
      <path
         style="fill:none;stroke:#007700;stroke-width:3;stroke-linecap:butt;stroke-linejoin:round;stroke-opacity:1"
         d="m 540.621,972.529 c 5.78879,36.0082 11.57385,72.0169 17.363,108.025"
         id="path74"
         inkscape:connector-curvature="0" />
      <path
         style="fill:none;stroke:#007700;stroke-width:3;stroke-linecap:butt;stroke-linejoin:round;stroke-opacity:1"
         d="m 473.079,985.506 c 28.30232,31.6821 56.60305,63.3656 84.905,95.048 28.25942,-14.5845 56.51944,-29.1678 84.779,-43.752 -25.83053,-31.69 -51.65879,-63.38178 -77.489,-95.072 -29.23289,15.36588 -58.46622,30.73091 -87.699,46.097 -1.74502,-10.05274 -25.2475,-29.78222 -21.208,-29.035 13.41842,18.35729 20.42696,22.31968 14.05351,-3.77205 -3.27492,-25.09455 -4.99039,-53.15379 -9.21451,-76.44495 3.95812,35.64362 7.91627,71.28723 11.873,106.931 z"
         id="path76"
         inkscape:connector-curvature="0" />
      <path
         style="fill:none;stroke:#007700;stroke-width:3;stroke-linecap:butt;stroke-linejoin:round;stroke-opacity:1"
         d="m 461.206,878.575 c 26.47232,31.31745 52.94325,62.63607 79.415,93.954 26.17632,-13.72473 52.35153,-27.45156 78.528,-41.176"
         id="path78"
         inkscape:connector-curvature="0" />
      <path
         style="fill:none;stroke:#007700;stroke-width:3;stroke-linecap:butt;stroke-linejoin:round;stroke-opacity:1"
         d="m 473.079,985.506 1.651,-0.869"
         id="path80"
         inkscape:connector-curvature="0" />
      <path
         style="fill:none;stroke:#007700;stroke-width:3;stroke-linecap:butt;stroke-linejoin:round;stroke-opacity:1"
         d="m 473.863,976.913 -0.944,0.497"
         id="path82"
         inkscape:connector-curvature="0" />
      <path
         style="fill:none;stroke:#007700;stroke-width:3;stroke-linecap:butt;stroke-linejoin:round;stroke-opacity:1"
         d="m 511.192,936.638 c 26.47686,-13.98186 52.95568,-27.96002 79.433,-41.941"
         id="path84"
         inkscape:connector-curvature="0" />
      <path
         style="fill:none;stroke:#007700;stroke-width:3;stroke-linecap:butt;stroke-linejoin:round;stroke-opacity:1"
         d="m 583.763,861.776 c 2.78624,20.24859 7.57072,39.57225 23.17801,53.88796 21.50678,23.35928 18.69466,58.1907 28.2218,87.20124 2.53396,11.3121 5.06664,22.6246 7.60019,33.9368"
         id="path86"
         inkscape:connector-curvature="0" />
      <path
         style="fill:none;stroke:#007700;stroke-width:3;stroke-linecap:butt;stroke-linejoin:round;stroke-opacity:1"
         d="m 461.854,878.229 c 16.4459,19.46975 32.89259,38.93883 49.338,58.409 -1.61328,-11.26301 -3.22699,-22.52595 -4.84,-33.789"
         id="path88"
         inkscape:connector-curvature="0" />
      <path
         style="fill:none;stroke:#007700;stroke-width:3;stroke-linecap:butt;stroke-linejoin:round;stroke-opacity:1"
         d="m 363.661,849.401 c 2.47725,67.91636 4.95577,135.83268 7.434,203.749"
         id="path90"
         inkscape:connector-curvature="0" />
      <path
         style="fill:none;stroke:#007700;stroke-width:3;stroke-linecap:butt;stroke-linejoin:round;stroke-opacity:1"
         d="m 182.153,644.634 c 60.50297,68.2554 121.0053,136.51136 181.508,204.767 51.9977,-28.0725 103.99661,-56.14278 155.995,-84.214"
         id="path92"
         inkscape:connector-curvature="0" />
      <path
         style="fill:none;stroke:#007700;stroke-width:3;stroke-linecap:butt;stroke-linejoin:round;stroke-opacity:1"
         d="m 157.372,838.768 c 33.62262,-18.45069 67.24549,-36.90092 100.869,-55.35"
         id="path94"
         inkscape:connector-curvature="0" />
      <path
         style="fill:none;stroke:#007700;stroke-width:3;stroke-linecap:butt;stroke-linejoin:round;stroke-opacity:1"
         d="m 459.485,512.058 c -1.09331,-7.1348 -2.18233,-14.27026 -3.276,-21.405"
         id="path96"
         inkscape:connector-curvature="0" />
      <path
         style="fill:none;stroke:#007700;stroke-width:3;stroke-linecap:butt;stroke-linejoin:round;stroke-opacity:1"
         d="m 592.079,687.823 -0.498,-2.001"
         id="path98"
         inkscape:connector-curvature="0" />
      <path
         style="fill:none;stroke:#007700;stroke-width:3;stroke-linecap:butt;stroke-linejoin:round;stroke-opacity:1"
         d="m 507.129,580.207 c -1.29337,-6.7882 -2.58503,-13.57673 -3.878,-20.365"
         id="path100"
         inkscape:connector-curvature="0" />
      <path
         style="fill:none;stroke:#007700;stroke-width:3;stroke-linecap:butt;stroke-linejoin:round;stroke-opacity:1"
         d="m 497.913,736.657 c 9.95945,14.49805 24.93326,26.38201 24.62,45.337"
         id="path102"
         inkscape:connector-curvature="0" />
      <path
         style="fill:none;stroke:#007700;stroke-width:3;stroke-linecap:butt;stroke-linejoin:round;stroke-opacity:1"
         d="m 677.567,270.598 c 31.57718,59.08542 63.15381,118.17112 94.732,177.256 16.63863,-19.08757 17.56938,15.95079 33.95,-2.203 18.59987,-10.25456 37.19981,-20.50901 55.8,-30.763 30.47027,46.47404 60.94023,92.94828 91.411,139.422"
         id="path104"
         inkscape:connector-curvature="0" />
      <path
         style="fill:none;stroke:#007700;stroke-width:3;stroke-linecap:butt;stroke-linejoin:round;stroke-opacity:1"
         d="M 862.049,414.888 C 855.03981,400.4571 848.03014,386.02644 841.02,371.596"
         id="path106"
         inkscape:connector-curvature="0" />
      <path
         style="fill:none;stroke:#007700;stroke-width:3;stroke-linecap:butt;stroke-linejoin:round;stroke-opacity:1"
         d="m 772.299,447.854 c -1.95905,-3.71897 -3.91762,-7.4382 -5.877,-11.157"
         id="path108"
         inkscape:connector-curvature="0" />
      <path
         style="fill:none;stroke:#007700;stroke-width:3;stroke-linecap:butt;stroke-linejoin:round;stroke-opacity:1"
         d="m 567.83,955.732 c -0.85201,-4.66733 -1.70424,-9.33462 -2.556,-14.002"
         id="path110"
         inkscape:connector-curvature="0" />
      <path
         style="fill:none;stroke:#007700;stroke-width:3;stroke-linecap:butt;stroke-linejoin:round;stroke-opacity:1"
         d="m 496.672,728.727 c 42.68976,57.68886 88.69642,113.81744 129.32263,172.47713 13.70888,58.52001 27.41742,117.04007 41.12737,175.55987"
         id="path112"
         inkscape:connector-curvature="0" />
      <path
         style="fill:none;stroke:#007700;stroke-width:3;stroke-linecap:butt;stroke-linejoin:round;stroke-opacity:1"
         d="m 455.233,957.516 c -4.41789,-44.04668 -8.83552,-88.09338 -13.254,-132.14 21.45788,25.82416 42.91548,51.64854 64.373,77.473 25.80333,-13.69164 51.60818,-27.38041 77.411,-41.073 -20.40987,-26.5941 -40.81925,-53.18857 -61.23,-79.782 -26.85175,14.45989 -53.70278,28.92111 -80.554,43.382"
         id="path114"
         inkscape:connector-curvature="0" />
      <path
         style="fill:none;stroke:#007700;stroke-width:3;stroke-linecap:butt;stroke-linejoin:round;stroke-opacity:1"
         d="m 771.317,410.29 c 7.42216,14.11474 14.84411,28.22959 22.265,42.345"
         id="path116"
         inkscape:connector-curvature="0" />
      <path
         style="fill:none;stroke:#007700;stroke-width:3;stroke-linecap:butt;stroke-linejoin:round;stroke-opacity:1"
         d="m 774.302,408.633 c -4.04783,9.68532 12.9321,25.43897 16.63174,37.35946 44.45656,79.42992 86.29579,160.24317 130.49226,239.81154"
         id="path118"
         inkscape:connector-curvature="0" />
      <path
         style="fill:none;stroke:#007700;stroke-width:3;stroke-linecap:butt;stroke-linejoin:round;stroke-opacity:1"
         d="M 786.622,439.941 C 755.40094,380.57619 724.17967,321.21149 692.958,261.847"
         id="path120"
         inkscape:connector-curvature="0" />
      <path
         style="fill:none;stroke:#007700;stroke-width:3;stroke-linecap:butt;stroke-linejoin:round;stroke-opacity:1"
         d="m 848.808,551.326 1.772,-0.961"
         id="path122"
         inkscape:connector-curvature="0" />
      <path
         style="fill:none;stroke:#007700;stroke-width:3;stroke-linecap:butt;stroke-linejoin:round;stroke-opacity:1"
         d="m 873.057,597.587 1.735,-0.934"
         id="path124"
         inkscape:connector-curvature="0" />
      <path
         style="fill:none;stroke:#007700;stroke-width:3;stroke-linecap:butt;stroke-linejoin:round;stroke-opacity:1"
         d="m 456.188,957.011 c 1.64584,16.29235 3.29096,32.58477 4.938,48.877"
         id="path126"
         inkscape:connector-curvature="0" />
      <path
         style="fill:none;stroke:#007700;stroke-width:3;stroke-linecap:butt;stroke-linejoin:round;stroke-opacity:1"
         d="m 165.181,498.96 c 33.70665,40.43991 67.41512,80.87829 101.122,121.318"
         id="path128"
         inkscape:connector-curvature="0" />
      <path
         style="fill:none;stroke:#007700;stroke-width:3;stroke-linecap:butt;stroke-linejoin:round;stroke-opacity:1"
         d="m 477.575,987.827 c 9.01001,79.0061 18.02209,158.0119 27.032,237.018"
         id="path130"
         inkscape:connector-curvature="0" />
    </g>
  </g>
</svg>
