<?xml version="1.0" encoding="UTF-8" standalone="no"?>
<svg
   xmlns:dc="http://purl.org/dc/elements/1.1/"
   xmlns:cc="http://creativecommons.org/ns#"
   xmlns:rdf="http://www.w3.org/1999/02/22-rdf-syntax-ns#"
   xmlns:svg="http://www.w3.org/2000/svg"
   xmlns="http://www.w3.org/2000/svg"
   xmlns:sodipodi="http://sodipodi.sourceforge.net/DTD/sodipodi-0.dtd"
   xmlns:inkscape="http://www.inkscape.org/namespaces/inkscape"
   height="1500"
   version="1.1"
   width="1500"
   id="svg161"
   sodipodi:docname="processed_scattercubes_04_23_2019_11490000.svg"
   inkscape:version="0.92.2 5c3e80d, 2017-08-06">
  <metadata
     id="metadata167">
    <rdf:RDF>
      <cc:Work
         rdf:about="">
        <dc:format>image/svg+xml</dc:format>
        <dc:type
           rdf:resource="http://purl.org/dc/dcmitype/StillImage" />
      </cc:Work>
    </rdf:RDF>
  </metadata>
  <defs
     id="defs165" />
  <sodipodi:namedview
     pagecolor="#ffffff"
     bordercolor="#666666"
     borderopacity="1"
     objecttolerance="10"
     gridtolerance="10"
     guidetolerance="10"
     inkscape:pageopacity="0"
     inkscape:pageshadow="2"
     inkscape:window-width="468"
     inkscape:window-height="449"
     id="namedview163"
     showgrid="false"
     inkscape:zoom="0.15733333"
     inkscape:cx="750"
     inkscape:cy="750"
     inkscape:window-x="1680"
     inkscape:window-y="0"
     inkscape:window-maximized="0"
     inkscape:current-layer="svg161" />
  <g
     id="fressstylelayer_LineSet"
     inkscape:groupmode="lineset"
     inkscape:label="fressstylelayer_LineSet">
    <g
       id="strokes"
       inkscape:groupmode="layer"
       inkscape:label="strokes">
      <path
         style="fill:none;stroke:#9d14aa;stroke-width:3;stroke-linecap:butt;stroke-linejoin:round;stroke-opacity:1"
         d="m 579.434,426.921 c 253.69553,159.34522 507.3915,318.68969 761.087,478.035"
         id="path2"
         inkscape:connector-curvature="0" />
      <path
         style="fill:none;stroke:#9d14aa;stroke-width:3;stroke-linecap:butt;stroke-linejoin:round;stroke-opacity:1"
         d="M 1340.521,904.956 C 1291.2829,821.11823 1242.0465,737.27953 1192.808,653.442 1025.7773,546.3625 858.74559,439.28464 691.715,332.205 653.68428,366.47624 610.41977,396.3783 575.70454,433.41741 448.30571,655.36729 320.9069,877.31716 193.508,1099.267 c 221.58333,123.8561 443.1659,247.7135 664.749,371.57 160.7552,-188.6265 321.5082,-377.255 482.264,-565.881 z"
         id="path4"
         inkscape:connector-curvature="0" />
      <path
         style="fill:none;stroke:#9d14aa;stroke-width:3;stroke-linecap:butt;stroke-linejoin:round;stroke-opacity:1"
         d="m 236.613,1123.361 c -37.19277,63.0107 -74.38445,126.0221 -111.577,189.033 199.04805,107.4973 398.09527,214.9961 597.143,322.494 133.84171,-156.8177 267.68197,-313.6366 401.524,-470.454 l -0.809,-3.657 -0.081,-0.366"
         id="path6"
         inkscape:connector-curvature="0" />
      <path
         style="fill:none;stroke:#9d14aa;stroke-width:3;stroke-linecap:butt;stroke-linejoin:round;stroke-opacity:1"
         d="m 321.939,694.682 c 25.78779,15.35235 51.57528,30.70521 77.364,46.056"
         id="path8"
         inkscape:connector-curvature="0" />
      <path
         style="fill:none;stroke:#9d14aa;stroke-width:3;stroke-linecap:butt;stroke-linejoin:round;stroke-opacity:1"
         d="m 381.105,639.604 c -28.47755,28.22482 -63.70788,51.19719 -78.378,90.162 -88.11678,160.91597 -176.23442,321.8315 -264.352,482.747 36.740642,19.988 73.48145,39.9758 110.222,59.964"
         id="path10"
         inkscape:connector-curvature="0" />
      <path
         style="fill:none;stroke:#9d14aa;stroke-width:3;stroke-linecap:butt;stroke-linejoin:round;stroke-opacity:1"
         d="m 382.153,589.773 c 25.67,15.55954 51.34111,31.11726 77.011,46.677"
         id="path12"
         inkscape:connector-curvature="0" />
      <path
         style="fill:none;stroke:#9d14aa;stroke-width:3;stroke-linecap:butt;stroke-linejoin:round;stroke-opacity:1"
         d="m 443.575,538.382 c -27.3687,25.77123 -64.07061,43.87487 -77.64584,80.98006 -12.82998,23.39951 -25.65854,46.79978 -38.48916,70.19894"
         id="path14"
         inkscape:connector-curvature="0" />
      <path
         style="fill:none;stroke:#9d14aa;stroke-width:3;stroke-linecap:butt;stroke-linejoin:round;stroke-opacity:1"
         d="m 300.528,591.078 c 20.27526,12.2099 40.55007,24.42055 60.825,36.631"
         id="path16"
         inkscape:connector-curvature="0" />
      <path
         style="fill:none;stroke:#9d14aa;stroke-width:3;stroke-linecap:butt;stroke-linejoin:round;stroke-opacity:1"
         d="m 469.247,492.243 c -17.58168,-21.56506 -33.46022,2.87146 -49.881,12.671 -39.77027,30.19435 -82.95468,57.42655 -120.58749,89.4757 C 223.52303,736.85699 148.2664,879.32367 73.011,1021.791 c 17.809796,9.9675 35.61835,19.9372 53.428,29.905"
         id="path18"
         inkscape:connector-curvature="0" />
      <path
         style="fill:none;stroke:#9d14aa;stroke-width:3;stroke-linecap:butt;stroke-linejoin:round;stroke-opacity:1"
         d="m 584.832,342.723 c 17.95734,11.39908 35.91187,22.80258 53.869,34.202"
         id="path20"
         inkscape:connector-curvature="0" />
      <path
         style="fill:none;stroke:#9d14aa;stroke-width:3;stroke-linecap:butt;stroke-linejoin:round;stroke-opacity:1"
         d="m 1049.042,561.278 c -3.2047,-22.60083 -18.7595,-35.3098 -38.1608,-44.94 C 895.93317,442.45948 780.98604,368.57953 666.038,294.701 638.86429,312.29328 607.84095,326.11551 582.99218,345.98538 541.16691,420.1487 499.34022,494.31122 457.514,568.474"
         id="path22"
         inkscape:connector-curvature="0" />
      <path
         style="fill:none;stroke:#9d14aa;stroke-width:3;stroke-linecap:butt;stroke-linejoin:round;stroke-opacity:1"
         d="m 485.791,462.511 c 7.77346,4.82493 15.54593,9.65144 23.319,14.477"
         id="path24"
         inkscape:connector-curvature="0" />
      <path
         style="fill:none;stroke:#9d14aa;stroke-width:3;stroke-linecap:butt;stroke-linejoin:round;stroke-opacity:1"
         d="m 534.286,432.348 c -16.59007,-0.90943 -32.26052,21.89328 -48.495,30.163 -14.07288,25.28984 -28.1436,50.58089 -42.216,75.871"
         id="path26"
         inkscape:connector-curvature="0" />
      <path
         style="fill:none;stroke:#9d14aa;stroke-width:3;stroke-linecap:butt;stroke-linejoin:round;stroke-opacity:1"
         d="m 1120.839,1162.727 2.864,1.707"
         id="path28"
         inkscape:connector-curvature="0" />
    </g>
  </g>
  <g
     id="fressstylelayer_hidden lines"
     inkscape:groupmode="lineset"
     inkscape:label="fressstylelayer_hidden lines">
    <g
       id="g158"
       inkscape:groupmode="layer"
       inkscape:label="strokes">
      <path
         style="fill:none;stroke:#007700;stroke-width:3;stroke-linecap:butt;stroke-linejoin:round;stroke-opacity:1"
         d="M 1192.808,653.442 C 1085.531,794.39188 978.25278,935.34091 870.976,1076.291"
         id="path32"
         inkscape:connector-curvature="0" />
      <path
         style="fill:none;stroke:#007700;stroke-width:3;stroke-linecap:butt;stroke-linejoin:round;stroke-opacity:1"
         d="m 858.257,1470.837 c 4.24069,-131.5153 8.47809,-263.0307 12.719,-394.546 C 718.45934,986.16122 565.94362,896.02984 413.427,805.9"
         id="path34"
         inkscape:connector-curvature="0" />
      <path
         style="fill:none;stroke:#007700;stroke-width:3;stroke-linecap:butt;stroke-linejoin:round;stroke-opacity:1"
         d="M 193.508,1099.267 C 268.71627,997.24852 347.31207,897.4843 420.38911,794.0476 510.83147,640.1003 601.2726,486.15228 691.715,332.205"
         id="path36"
         inkscape:connector-curvature="0" />
      <path
         style="fill:none;stroke:#007700;stroke-width:3;stroke-linecap:butt;stroke-linejoin:round;stroke-opacity:1"
         d="m 789.898,692.16 c 89.8392,55.48101 179.67799,110.96268 269.517,166.444"
         id="path38"
         inkscape:connector-curvature="0" />
      <path
         style="fill:none;stroke:#007700;stroke-width:3;stroke-linecap:butt;stroke-linejoin:round;stroke-opacity:1"
         d="m 1059.415,858.604 c -8.1514,-36.06602 -16.2988,-72.13294 -24.45,-108.199 -75.89984,-47.44392 -151.80033,-94.88681 -227.7,-142.331 -46.44293,71.90937 -95.19639,142.67741 -140.25653,215.27005 -13.10333,37.42959 -26.20643,74.85926 -39.30947,112.28895 85.47377,50.49105 170.94757,100.9821 256.422,151.472 58.43162,-76.1668 116.8618,-152.33469 175.294,-228.501 z"
         id="path40"
         inkscape:connector-curvature="0" />
      <path
         style="fill:none;stroke:#007700;stroke-width:3;stroke-linecap:butt;stroke-linejoin:round;stroke-opacity:1"
         d="m 807.265,608.074 c -10.69169,37.67419 -7.94841,80.95994 -35.64954,111.52906 C 723.64299,791.61283 675.67103,863.62293 627.699,935.633"
         id="path42"
         inkscape:connector-curvature="0" />
      <path
         style="fill:none;stroke:#007700;stroke-width:3;stroke-linecap:butt;stroke-linejoin:round;stroke-opacity:1"
         d="M 1034.965,750.405 C 985.48817,817.31904 936.01012,884.23217 886.533,951.146"
         id="path44"
         inkscape:connector-curvature="0" />
      <path
         style="fill:none;stroke:#007700;stroke-width:3;stroke-linecap:butt;stroke-linejoin:round;stroke-opacity:1"
         d="m 884.121,1087.105 c 0.80356,-45.3197 1.6083,-90.63933 2.412,-135.959 C 813.77115,907.36619 741.00844,863.58782 668.246,819.809"
         id="path46"
         inkscape:connector-curvature="0" />
      <path
         style="fill:none;stroke:#007700;stroke-width:3;stroke-linecap:butt;stroke-linejoin:round;stroke-opacity:1"
         d="m 278.139,786.196 c 130.73531,76.65881 261.46947,153.31957 392.205,229.978"
         id="path48"
         inkscape:connector-curvature="0" />
      <path
         style="fill:none;stroke:#007700;stroke-width:3;stroke-linecap:butt;stroke-linejoin:round;stroke-opacity:1"
         d="M 670.344,1016.174 C 685.92011,957.99218 701.49652,899.81045 717.074,841.629 613.84076,779.6661 510.49258,716.78697 407.331,655.399 363.6274,701.60597 315.46866,744.49066 274.53292,792.7617 215.87117,899.56471 157.21016,1006.3681 98.55,1113.172 c 121.54626,67.3291 243.09239,134.6585 364.639,201.987 69.05115,-99.662 138.10335,-199.3233 207.155,-298.985 z"
         id="path50"
         inkscape:connector-curvature="0" />
      <path
         style="fill:none;stroke:#007700;stroke-width:3;stroke-linecap:butt;stroke-linejoin:round;stroke-opacity:1"
         d="m 717.074,841.629 c -57.02797,84.70234 -114.05412,169.4059 -171.081,254.109"
         id="path52"
         inkscape:connector-curvature="0" />
      <path
         style="fill:none;stroke:#007700;stroke-width:3;stroke-linecap:butt;stroke-linejoin:round;stroke-opacity:1"
         d="m 463.189,1315.159 c 27.60021,-73.1408 55.20313,-146.2805 82.804,-219.421 C 448.6022,1039.783 351.21097,983.82872 253.82,927.874"
         id="path54"
         inkscape:connector-curvature="0" />
      <path
         style="fill:none;stroke:#007700;stroke-width:3;stroke-linecap:butt;stroke-linejoin:round;stroke-opacity:1"
         d="M 98.55,1113.172 C 151.46516,1048.1713 208.33103,985.90483 258.73,919.163 308.32963,831.1755 357.92821,743.18741 407.528,655.2"
         id="path56"
         inkscape:connector-curvature="0" />
      <path
         style="fill:none;stroke:#007700;stroke-width:3;stroke-linecap:butt;stroke-linejoin:round;stroke-opacity:1"
         d="m 587.318,439.181 c 82.53101,51.79119 165.06285,103.58104 247.594,155.372"
         id="path58"
         inkscape:connector-curvature="0" />
      <path
         style="fill:none;stroke:#007700;stroke-width:3;stroke-linecap:butt;stroke-linejoin:round;stroke-opacity:1"
         d="m 834.912,594.553 c 3.09718,-20.65987 6.19123,-41.32022 9.289,-61.98 -70.62012,-44.69615 -141.23972,-89.39311 -211.86,-134.089 -26.20131,22.44598 -52.54515,44.77665 -66.2,77.364 -38.22772,66.18711 -76.45499,132.37448 -114.682,198.562 78.80427,47.50599 157.60907,95.0111 236.414,142.516 49.01383,-74.12379 98.02568,-148.24888 147.039,-222.373 z"
         id="path60"
         inkscape:connector-curvature="0" />
      <path
         style="fill:none;stroke:#007700;stroke-width:3;stroke-linecap:butt;stroke-linejoin:round;stroke-opacity:1"
         d="M 844.201,532.573 C 801.63591,597.70861 759.07027,662.84386 716.506,727.98"
         id="path62"
         inkscape:connector-curvature="0" />
      <path
         style="fill:none;stroke:#007700;stroke-width:3;stroke-linecap:butt;stroke-linejoin:round;stroke-opacity:1"
         d="m 687.873,816.926 c 9.54503,-29.64844 19.08804,-59.29753 28.633,-88.946 C 648.62855,686.49486 580.75156,645.00897 512.874,603.524"
         id="path64"
         inkscape:connector-curvature="0" />
      <path
         style="fill:none;stroke:#007700;stroke-width:3;stroke-linecap:butt;stroke-linejoin:round;stroke-opacity:1"
         d="M 451.459,674.41 C 485.30227,635.86659 520.65811,598.40442 543.07528,551.69077 572.83021,500.62167 602.58644,449.55332 632.341,398.484"
         id="path66"
         inkscape:connector-curvature="0" />
      <path
         style="fill:none;stroke:#007700;stroke-width:3;stroke-linecap:butt;stroke-linejoin:round;stroke-opacity:1"
         d="m 527.628,849.975 c 74.04114,43.88911 148.08187,87.77889 222.123,131.668"
         id="path68"
         inkscape:connector-curvature="0" />
      <path
         style="fill:none;stroke:#007700;stroke-width:3;stroke-linecap:butt;stroke-linejoin:round;stroke-opacity:1"
         d="m 749.751,981.643 c 6.44589,-35.26444 12.88908,-70.52938 19.334,-105.794 -64.31156,-38.7173 -128.62247,-77.43567 -192.934,-116.153 -57.6691,92.38155 -116.4305,184.11991 -167.325,280.491 71.02061,40.678 142.04183,81.355 213.063,122.032 42.62026,-60.1923 85.24254,-120.3831 127.862,-180.576 z"
         id="path70"
         inkscape:connector-curvature="0" />
      <path
         style="fill:none;stroke:#007700;stroke-width:3;stroke-linecap:butt;stroke-linejoin:round;stroke-opacity:1"
         d="M 576.151,759.696 C 527.20635,857.22283 465.79785,947.31823 408.826,1040.187"
         id="path72"
         inkscape:connector-curvature="0" />
      <path
         style="fill:none;stroke:#007700;stroke-width:3;stroke-linecap:butt;stroke-linejoin:round;stroke-opacity:1"
         d="m 769.085,875.849 c -37.677,54.3479 -75.35485,108.6952 -113.032,163.043"
         id="path74"
         inkscape:connector-curvature="0" />
      <path
         style="fill:none;stroke:#007700;stroke-width:3;stroke-linecap:butt;stroke-linejoin:round;stroke-opacity:1"
         d="m 621.889,1162.219 c 10.57499,-41.1191 24.8155,-83.7288 33.132,-123.929 -61.67982,-36.0176 -123.35975,-72.0351 -185.04,-108.052"
         id="path76"
         inkscape:connector-curvature="0" />
      <path
         style="fill:none;stroke:#007700;stroke-width:3;stroke-linecap:butt;stroke-linejoin:round;stroke-opacity:1"
         d="m 550.691,497.884 c 54.50812,33.85913 109.01614,67.71844 163.524,101.578"
         id="path78"
         inkscape:connector-curvature="0" />
      <path
         style="fill:none;stroke:#007700;stroke-width:3;stroke-linecap:butt;stroke-linejoin:round;stroke-opacity:1"
         d="m 714.215,599.462 c 3.45182,-18.28264 31.40349,-44.33046 3.40123,-52.64341 C 673.47904,519.34474 629.2823,491.30181 585.183,464.183 c -27.5072,22.01078 -46.44159,50.67549 -62.23051,81.78333 -20.50797,35.54986 -41.01782,71.09864 -61.52549,106.64867 52.85398,31.97503 105.70826,63.94957 158.562,95.925 31.40856,-49.69273 62.81786,-99.385 94.226,-149.078 z"
         id="path80"
         inkscape:connector-curvature="0" />
      <path
         style="fill:none;stroke:#007700;stroke-width:3;stroke-linecap:butt;stroke-linejoin:round;stroke-opacity:1"
         d="m 732.445,556.094 c -28.64366,45.48122 -57.28836,90.96177 -85.932,136.443"
         id="path82"
         inkscape:connector-curvature="0" />
      <path
         style="fill:none;stroke:#007700;stroke-width:3;stroke-linecap:butt;stroke-linejoin:round;stroke-opacity:1"
         d="m 619.989,748.54 c 8.84129,-18.66769 17.68219,-37.33556 26.524,-56.003 -47.70391,-29.12848 -95.40812,-58.25648 -143.112,-87.385"
         id="path84"
         inkscape:connector-curvature="0" />
      <path
         style="fill:none;stroke:#007700;stroke-width:3;stroke-linecap:butt;stroke-linejoin:round;stroke-opacity:1"
         d="m 461.427,652.615 c 30.77431,-30.84995 55.38666,-66.14573 75.28484,-104.8433 16.1987,-27.90325 32.39739,-55.8065 48.59616,-83.7097"
         id="path86"
         inkscape:connector-curvature="0" />
      <path
         style="fill:none;stroke:#007700;stroke-width:3;stroke-linecap:butt;stroke-linejoin:round;stroke-opacity:1"
         d="m 449.515,762.664 c 223.77479,133.35412 447.54916,266.709 671.324,400.063"
         id="path88"
         inkscape:connector-curvature="0" />
      <path
         style="fill:none;stroke:#007700;stroke-width:3;stroke-linecap:butt;stroke-linejoin:round;stroke-opacity:1"
         d="M 1122.813,1160.411 C 1100.2702,1058.4926 1077.7269,956.57437 1055.184,854.656 901.21021,759.55174 747.23783,664.4452 593.264,569.341 541.35376,641.85651 483.93805,710.71509 435.869,785.782 369.45041,898.30838 303.03143,1010.8345 236.613,1123.361"
         id="path90"
         inkscape:connector-curvature="0" />
      <path
         style="fill:none;stroke:#007700;stroke-width:3;stroke-linecap:butt;stroke-linejoin:round;stroke-opacity:1"
         d="M 1055.184,854.656 C 960.66064,978.18123 866.13632,1101.7057 771.613,1225.231"
         id="path92"
         inkscape:connector-curvature="0" />
      <path
         style="fill:none;stroke:#007700;stroke-width:3;stroke-linecap:butt;stroke-linejoin:round;stroke-opacity:1"
         d="m 722.179,1634.888 c 16.47751,-136.5524 32.95578,-273.1047 49.434,-409.657 C 630.10344,1143.9272 488.59412,1062.6229 347.084,981.32"
         id="path94"
         inkscape:connector-curvature="0" />
      <path
         style="fill:none;stroke:#007700;stroke-width:3;stroke-linecap:butt;stroke-linejoin:round;stroke-opacity:1"
         d="M 125.036,1312.394 C 205.42338,1190.2939 290.09895,1070.9104 367.602,946.983 442.82268,821.10234 518.04413,695.22214 593.264,569.341"
         id="path96"
         inkscape:connector-curvature="0" />
      <path
         style="fill:none;stroke:#007700;stroke-width:3;stroke-linecap:butt;stroke-linejoin:round;stroke-opacity:1"
         d="m 148.597,1272.477 c 149.33679,81.2428 298.67302,162.4866 448.01,243.729 116.88649,-149.7517 233.77439,-299.5024 350.661,-449.254 -4.49744,-87.87568 -8.99503,-175.75135 -13.493,-263.627 -146.16327,-90.00444 -292.32695,-180.0082 -438.49,-270.013 -38.05905,35.43169 -76.12011,70.86122 -114.18,106.292"
         id="path98"
         inkscape:connector-curvature="0" />
      <path
         style="fill:none;stroke:#007700;stroke-width:3;stroke-linecap:butt;stroke-linejoin:round;stroke-opacity:1"
         d="M 933.775,803.325 C 847.98393,921.9551 762.1912,1040.584 676.4,1159.214"
         id="path100"
         inkscape:connector-curvature="0" />
      <path
         style="fill:none;stroke:#007700;stroke-width:3;stroke-linecap:butt;stroke-linejoin:round;stroke-opacity:1"
         d="M 596.607,1516.206 C 623.20422,1397.2086 649.80229,1278.2113 676.4,1159.214 541.55244,1081.6169 406.70345,1004.0223 271.856,926.425"
         id="path102"
         inkscape:connector-curvature="0" />
      <path
         style="fill:none;stroke:#007700;stroke-width:3;stroke-linecap:butt;stroke-linejoin:round;stroke-opacity:1"
         d="M 38.375,1212.513 C 117.09472,1114.7459 198.56074,1018.8602 275.55755,919.91264 348.79974,791.0456 422.04348,662.17943 495.285,533.312"
         id="path104"
         inkscape:connector-curvature="0" />
      <path
         style="fill:none;stroke:#007700;stroke-width:3;stroke-linecap:butt;stroke-linejoin:round;stroke-opacity:1"
         d="m 327.44,689.561 c -31.88967,58.16351 -63.77974,116.32681 -95.67,174.49 96.56042,55.8506 193.1199,111.70284 289.68,167.554 C 577.37859,944.97857 635.6086,859.4761 690.12689,772.16073 701.52014,738.81223 712.91364,705.46381 724.306,672.115 639.72013,620.01467 555.13501,567.91311 470.549,515.813 c -8.99111,7.52326 -17.98261,15.04607 -26.974,22.569"
         id="path106"
         inkscape:connector-curvature="0" />
      <path
         style="fill:none;stroke:#007700;stroke-width:3;stroke-linecap:butt;stroke-linejoin:round;stroke-opacity:1"
         d="M 724.306,672.115 C 676.63301,745.88844 628.95797,819.66055 581.285,893.434"
         id="path108"
         inkscape:connector-curvature="0" />
      <path
         style="fill:none;stroke:#007700;stroke-width:3;stroke-linecap:butt;stroke-linejoin:round;stroke-opacity:1"
         d="M 521.45,1031.605 C 541.39603,985.54845 561.33914,939.49063 581.285,893.434 500.62436,845.69361 419.96336,797.95385 339.303,750.213"
         id="path110"
         inkscape:connector-curvature="0" />
      <path
         style="fill:none;stroke:#007700;stroke-width:3;stroke-linecap:butt;stroke-linejoin:round;stroke-opacity:1"
         d="m 231.77,864.051 c 36.81905,-41.33484 78.9039,-78.80028 112.419,-122.563 42.11956,-75.22525 84.24007,-150.44996 126.36,-225.675"
         id="path112"
         inkscape:connector-curvature="0" />
      <path
         style="fill:none;stroke:#007700;stroke-width:3;stroke-linecap:butt;stroke-linejoin:round;stroke-opacity:1"
         d="m 126.439,1051.696 c 133.79788,74.889 267.5951,149.7791 401.393,224.668 90.38578,-128.3643 180.77105,-256.7289 271.157,-385.093 8.2928,-59.99141 16.58742,-119.98256 24.88,-179.974 C 705.66175,638.27886 587.45437,565.26094 469.247,492.243"
         id="path114"
         inkscape:connector-curvature="0" />
      <path
         style="fill:none;stroke:#007700;stroke-width:3;stroke-linecap:butt;stroke-linejoin:round;stroke-opacity:1"
         d="M 823.869,711.297 C 753.17755,815.54527 682.48408,919.79216 611.792,1024.04"
         id="path116"
         inkscape:connector-curvature="0" />
      <path
         style="fill:none;stroke:#007700;stroke-width:3;stroke-linecap:butt;stroke-linejoin:round;stroke-opacity:1"
         d="m 527.832,1276.364 c 27.98697,-84.1079 55.97309,-168.2161 83.96,-252.324 C 496.01286,956.53009 380.23248,889.02232 264.453,821.513"
         id="path118"
         inkscape:connector-curvature="0" />
      <path
         style="fill:none;stroke:#007700;stroke-width:3;stroke-linecap:butt;stroke-linejoin:round;stroke-opacity:1"
         d="M 73.011,1021.791 C 137.15548,953.73848 203.42198,887.24368 266.25987,818.23225 328.0894,705.96607 389.9203,593.70064 451.749,481.434"
         id="path120"
         inkscape:connector-curvature="0" />
      <path
         style="fill:none;stroke:#007700;stroke-width:3;stroke-linecap:butt;stroke-linejoin:round;stroke-opacity:1"
         d="m 817.157,737.439 c 96.48532,59.37011 192.9723,118.7375 289.458,178.107"
         id="path122"
         inkscape:connector-curvature="0" />
      <path
         style="fill:none;stroke:#007700;stroke-width:3;stroke-linecap:butt;stroke-linejoin:round;stroke-opacity:1"
         d="M 1106.615,915.546 C 1095.3687,874.0688 1084.1207,832.59209 1072.874,791.115 992.283,740.85034 911.69204,690.5856 831.101,640.321 781.43601,715.98445 729.11303,790.38354 681.10477,866.83562 667.84392,909.77764 654.58165,952.71923 641.32,995.661 c 91.47617,53.6628 182.95066,107.3285 274.427,160.991 63.62283,-80.3685 127.2453,-160.73739 190.868,-241.106 z"
         id="path124"
         inkscape:connector-curvature="0" />
      <path
         style="fill:none;stroke:#007700;stroke-width:3;stroke-linecap:butt;stroke-linejoin:round;stroke-opacity:1"
         d="m 831.101,640.321 c -7.06025,34.04593 -5.89408,71.28437 -18.16032,103.30952 C 755.73389,827.64075 698.5268,911.65078 641.32,995.661"
         id="path126"
         inkscape:connector-curvature="0" />
      <path
         style="fill:none;stroke:#007700;stroke-width:3;stroke-linecap:butt;stroke-linejoin:round;stroke-opacity:1"
         d="m 1072.874,791.115 c -53.1559,70.20326 -106.31008,140.40777 -159.466,210.611"
         id="path128"
         inkscape:connector-curvature="0" />
      <path
         style="fill:none;stroke:#007700;stroke-width:3;stroke-linecap:butt;stroke-linejoin:round;stroke-opacity:1"
         d="m 915.747,1156.652 c -0.77945,-51.642 -1.55899,-103.284 -2.339,-154.926 C 836.34183,955.56996 759.27645,909.41258 682.21,863.257"
         id="path130"
         inkscape:connector-curvature="0" />
      <path
         style="fill:none;stroke:#007700;stroke-width:3;stroke-linecap:butt;stroke-linejoin:round;stroke-opacity:1"
         d="m 457.514,568.474 c -45.61902,80.88918 -91.23913,161.77774 -136.858,242.667 152.31233,89.3111 304.6244,178.62265 456.936,267.935 102.59682,-139.51522 205.19321,-279.03076 307.79,-418.546 -12.1134,-33.08399 -24.2262,-66.16818 -36.34,-99.252"
         id="path132"
         inkscape:connector-curvature="0" />
      <path
         style="fill:none;stroke:#007700;stroke-width:3;stroke-linecap:butt;stroke-linejoin:round;stroke-opacity:1"
         d="M 1039.269,534.583 C 961.44874,645.52015 883.62945,756.45798 805.809,867.395"
         id="path134"
         inkscape:connector-curvature="0" />
      <path
         style="fill:none;stroke:#007700;stroke-width:3;stroke-linecap:butt;stroke-linejoin:round;stroke-opacity:1"
         d="m 777.592,1079.076 c 9.40615,-70.5603 18.81147,-141.12065 28.217,-211.681 C 689.64794,797.18077 573.48645,726.96724 457.326,656.752"
         id="path136"
         inkscape:connector-curvature="0" />
      <path
         style="fill:none;stroke:#007700;stroke-width:3;stroke-linecap:butt;stroke-linejoin:round;stroke-opacity:1"
         d="M 320.656,811.141 C 367.34603,756.40795 418.34831,704.77815 462.32,648.089 530.22604,530.29303 598.13157,412.49675 666.038,294.701"
         id="path138"
         inkscape:connector-curvature="0" />
      <path
         style="fill:none;stroke:#007700;stroke-width:3;stroke-linecap:butt;stroke-linejoin:round;stroke-opacity:1"
         d="m 443.575,538.382 c -17.37335,31.22333 -34.74659,62.44671 -52.12,93.67 57.67047,34.79211 115.34043,69.58506 173.011,104.377 41.66251,-69.00682 86.04151,-136.41073 125.173,-206.911 -51.78386,-32.39076 -103.56901,-64.77945 -155.353,-97.17"
         id="path140"
         inkscape:connector-curvature="0" />
      <path
         style="fill:none;stroke:#007700;stroke-width:3;stroke-linecap:butt;stroke-linejoin:round;stroke-opacity:1"
         d="m 689.639,529.518 c -30.32345,49.28339 -60.64525,98.56779 -90.969,147.851"
         id="path142"
         inkscape:connector-curvature="0" />
      <path
         style="fill:none;stroke:#007700;stroke-width:3;stroke-linecap:butt;stroke-linejoin:round;stroke-opacity:1"
         d="m 564.466,736.429 c 11.40097,-19.68688 22.80275,-39.37328 34.204,-59.06 -51.59415,-31.44675 -103.18771,-62.89447 -154.782,-94.341"
         id="path144"
         inkscape:connector-curvature="0" />
      <path
         style="fill:none;stroke:#007700;stroke-width:3;stroke-linecap:butt;stroke-linejoin:round;stroke-opacity:1"
         d="m 391.455,632.052 c 27.5181,-26.04608 58.70717,-49.20901 73.02449,-85.62223 21.88289,-38.89408 43.76577,-77.78816 65.64951,-116.68177"
         id="path146"
         inkscape:connector-curvature="0" />
      <path
         style="fill:none;stroke:#007700;stroke-width:3;stroke-linecap:butt;stroke-linejoin:round;stroke-opacity:1"
         d="m 509.11,476.988 c 51.87652,32.2035 103.75177,64.40904 155.628,96.613"
         id="path148"
         inkscape:connector-curvature="0" />
      <path
         style="fill:none;stroke:#007700;stroke-width:3;stroke-linecap:butt;stroke-linejoin:round;stroke-opacity:1"
         d="m 459.164,636.45 c 76.58406,46.41824 153.16842,92.83598 229.752,139.255"
         id="path150"
         inkscape:connector-curvature="0" />
      <path
         style="fill:none;stroke:#007700;stroke-width:3;stroke-linecap:butt;stroke-linejoin:round;stroke-opacity:1"
         d="m 361.353,627.709 c 145.87856,87.85418 291.75698,175.70859 437.636,263.562"
         id="path152"
         inkscape:connector-curvature="0" />
      <path
         style="fill:none;stroke:#007700;stroke-width:3;stroke-linecap:butt;stroke-linejoin:round;stroke-opacity:1"
         d="m 399.303,740.738 c 182.65452,108.7388 365.30999,217.47602 547.965,326.214"
         id="path154"
         inkscape:connector-curvature="0" />
      <path
         style="fill:none;stroke:#007700;stroke-width:3;stroke-linecap:butt;stroke-linejoin:round;stroke-opacity:1"
         d="m 638.701,376.925 c 148.89348,94.5353 297.78729,189.07007 446.681,283.605"
         id="path156"
         inkscape:connector-curvature="0" />
    </g>
  </g>
</svg>
