<?xml version="1.0" encoding="UTF-8"?>
<svg width="2100" height="1485" version="1.1" xmlns="http://www.w3.org/2000/svg">
 <g id="fressstylelayer_visible">
  <g id="strokes" fill="none" stroke="#9d14aa" stroke-linejoin="round" stroke-width="3">
   <path d="m375.31 967.99-9.484 3.17-0.123 0.041v10 10 10 10 10 10 10 10 10 10 10 10 10 10 10 10 10 10 10 10 10 11.523h10 10 10 10 2.699"/>
   <path d="m365.7 971.2h9.607"/>
   <path d="m587.23 1139.3v-10-10-10-8.766-10-10-9.433-1.055-10-10-10-10-10-10-8.844-10-10-9.955l1.478-0.73 8.965-4.431 8.605-4.252"/>
   <path d="m417.11 1160.9-8.342 5.515-0.364 0.241v10 10 6.025 10 10 10 10 10 10 10 10 10 10 10 10 10 10 10 10 10 5.731h5.225"/>
   <path d="m408.4 1166.7h10 9.859 10 8.514 10 10 10 10 10 10 10 10 10 10 10.508 10 10 10 4.091 10 8.784"/>
   <path d="m610.16 1209.4v-10-10-2.511-10-6.481-3.714l7.198-6.942 2.537-2.446 14.396-13.884 4.326-4.173"/>
   <path d="m638.62 1263.2v-10-10-10-10-10-10-10-6.3-10-10-10-9.895-7.745h-9.08-9.642"/>
   <path d="m428.26 1228.2-7.881 6.156-6.753 5.276v10 10 10 10 10 10 10 10 10 10 10 10 3.726 5.097 10 10 10 10 10 10.001h10 10 10 10 10 10 10 10 10 10 10 10 10 10 10 10 10 10 4.972"/>
   <path d="m413.63 1239.6h10 4.634 10 10 10 10 10 10 10 10 10 10 10 10 9.022 10 10 10 4.091 10 1.076"/>
   <path d="m602.45 1289.9v-10-10-10-10-10.246l20.073-22.296 6.69-7.432 0.45-0.499"/>
   <path d="m629.66 1263.2v-10-10-10-10-10-3.789h-0.128"/>
   <path d="m598.6 1294.6v5.263 10 10 8.106 8.718 10 2.468 10 3.97 5.342 4.591 10 3.702 9.46 10 10 10 2.248 10 10 10 10 1.985h10 10 10 10 10 10 10 10 5.971 7.166 10 10 10 10 10 10 10 10 2.717l3.54-9.352 3.541-9.352 3.54-9.353 3.54-9.352 0.152-0.402 1.356-3.582v-10-10-10-10-9.323-6.679-10-10-3.903-10-6.243-10-2.32-10-10-0.729-10-2.428-10-6.43-7.325-0.474h-10-10-10-9.619-10-10-10.008-10-0.15-5.588-9.047-5.307-1.712-3.788-3.387-10-10-9.224-10-3.677-8.952-0.128-5.267l-6.33 7.741-6.33 7.742-1.45 1.773-6.329 7.742-1.379 1.686-3.851 4.71"/>
   <path d="m598.6 1294.6h10 10 10 1.064 8.952 10 3.677 10 10 10 2.278 10 10 10 10 10 10 5.933 10 10 3.95"/>
   <path d="m774.45 1470.4v-10-10-10-10-10-10-10-10-10.716-6.679-10-10-3.903-10-10-10-10-10-4.555l3.576-7.165 4.466-8.947 3.734-7.483 3.893-7.799"/>
   <path d="m870.74 673.95h-10-10-10-10-10-7.409-10-9.175-3.286-1.058"/>
   <path d="m870.74 673.95v10 10 10 10 10 4.349 10 10 10 10 10 10 10 10 6.257"/>
   <path d="m794.16 665.31v-10-1.68l-3.286-1.141-1.058-0.368-9.446-3.281-7.807-2.712h-9.107-10-10-10-10-10-8.865"/>
   <path d="m772.56 646.13v10 9.182 6.681 1.951 10 10 10.204 10 10 10 10 10 10 10 10 10 10 10.402"/>
   <path d="m684.13 819.36-3.805 0.8v10 10 10 10 10 10.525 3.837 0.636 7.192 1.471"/>
   <path d="m680.33 820.16h10 10 10 10 10 10 10 10 10 10 10.544 3.286 10 8.461 10 10 10 10 10 10 10 2.827 6.099 10 5.745"/>
   <path d="m907.29 946.09v-10-10-0.29-10-10-10-10-10-10-10-10-10-10-5.644l10.303-5.607"/>
   <path d="m917.59 946.09v-6.527-7.711-0.806-5.246-10-5.888-10-10-10-10-10-10-10-10-10-5.363h-5.981-10-10.067-6.099-8.92-5.784"/>
   <path d="m526.34 790.94h-10-10-10-10-4.287l-9.963 0.849-29.892 2.55-0.41 0.035v10 10 10 10 10 10 10 10 10 10 10 10 10 1.668"/>
   <path d="m441.79 794.37h10 10 10 10 10 10 10 10 4.552 10 10 10 10 10 10 10 3.718 10.054 10 10 10 8.261 0.199"/>
   <path d="m648.58 895.83v-2.014-1.471-7.192-10-10-10-10-10-10-10-10-10.786l19.835-2.564 6.741-0.87"/>
   <path d="m634.26 893.82-9.396 3.42-5.46 1.987-9.293 3.383-3.842 1.398v10 10 10 10 1.607 2.844 6.597 6.731 10 10 2.244 10 7.124 10 10 10 10 10 10 1.702 8.197 10 10.135 5.257 3.943h10 3.619 9.642 10 7.994 6.82"/>
   <path d="m606.27 904.01h3.842 10 10 10 7.413 0.848 10 10 6.775 5.176 10 10 10 10 10 10 10 10 2.442 10 10 8.102 10 1.783"/>
   <path d="m802.66 960.13v-9.771-1.901-2.366-10-1.52-8.77-10-10-1.795l8.373-5.467 1.591-1.039 5.639-3.682"/>
   <path d="m818.26 946.09v-10-1.52-2.718-1.228-4.824-6.986-8.902-10-3.682-2.413h-4.925-0.714-10-10-1.747-10-10-8.102-10-7.441-10-10-10-8.312-10-10-2.884-3.805-2.135-3.041-10-10-1.303"/>
   <path d="m588.7 970.47v-10-5.414-10-10-9.017h-10-10-10-10-10-10-10-10-7.775-10-8.872-10-10-10-5.282-4.983-10-10-6.393l-9.606 2.778-9.606 2.779-9.606 2.778-9.607 2.778-1.664 0.482v10 10 10 0.355 3.211 10 10 10 10 10 10 10 10 10 10 10 10 10 10 10.686h10 10 10 8.697 10 4.254 10 8.514 10 10 10 8.108 10 6.046 10 10 10 10 10 6.354 2.28l7.909-6.119 7.91-6.118 7.337-5.676"/>
   <path d="m375.31 937.63h10 10 10 10 10 10 6.482 4.983 10 10 10 10 10 10 10 10 10 10 10 2.788"/>
   <path d="m559.56 1121.9v-10-10-10-2.31-10-8.522-10-10-10-10-10-10-9.899-10-10-10-10-6.099-10-7.422l9.291-3.697 18.583-7.394 1.267-0.504"/>
   <path d="m711.03 297.66h-5.501-10-10-5.427v10 10 10 10 2.847 4.556 0.557"/>
   <path d="m986.6 339.14-3.106-19.758-1.553-9.878-1.552-9.879-0.31-1.97h-10-10-10-10-3.274-9.749-6.077"/>
   <path d="m980.08 297.66v10 10 10 10 10 10 6.34 10 10 10 10 10 10 10 10 5.493 10 10 10 10 1.37 10 10 10 10 10 10 10 10 10 10 6.775h-10-10-10-10-10-10-5.807-10-10-10-10-1.776-10-10-10-10-10-10-2.067-10-10-0.616"/>
   <path d="m787.1 345.62h-6.619-10-10-10.114-10-5.046-10-4.048-6.675-1.344-7.725-10-10-4.908-0.519-1.687-2.044-10-10-8.358"/>
   <path d="m787.1 345.62v10 10 6.763 10 10 10 10 10 10.254 10 10 10 10 10 8.226 10 6.789 0.016 10 10 10 5.138 10 10 10 10 10 10 8.342 10 8.518"/>
   <path d="m704.59 629.67h10 10 10 10 10 10 10 10 2.51l2.715 1.165 20.616 8.848"/>
   <path d="m763.45 639.68h10 10 6.36 10 10 0.616v-10-10-8.531-10-3.51"/>
   <path d="m678.41 345.62v-2.37-2.743-10-10-10-10-2.143l-2.044-2.443-0.509-0.608-6.417-7.67-0.294-0.351-2.647-3.164-6.417-7.67-3.951-4.723-6.417-7.669-1.706-2.039-3.328-3.979h-10-10-10-10-10-9.798-10-3.886-10-10-0.281-10-2.333-10-10-10-10-10-10-10-10-4.615-10-10-7.129-10-10-10-10-6.713v10 10 10 10 10 10 10 10 10 10 10 10 10 10 10 10 10 10 10 10 10 10 10 10 8.866"/>
   <path d="m644.68 258.05v10 10 10 10 10 10 10 10 7.572 10 9.871"/>
   <path d="m442.38 439.24h-6.693-9.049-10-0.559v10 10 10 10 10 10 7.67"/>
   <path d="m704.48 470.25v-6.375l-7.784-6.277-7.784-6.278-4.399-3.547-4.408-3.554-1.687-1.361-2.044-1.648-2.44-1.967"/>
   <path d="m673.93 439.24v10 2.514"/>
   <path d="m673.93 697.09 9.928 1.198 20.618 2.49"/>
   <path d="m594.43 700.78h5.631 10.054 10 10 8.902 7.18 2.179 10 10 10 5.756 10 10 0.343v-0.516-10-10-0.694-1.471-4.153-1.761-0.19-6.681-8.561"/>
   <path d="m673.93 656.75v8.561 6.681 1.951 10 10 3.146h-10-10-5.553-10-10-10-8.261-10.054-5.631"/>
   <path d="m442.38 506.91h-6.693-10-9.608-10-10-10-6.154-10-10-10-10-10-8.972v10 10 10 10 10 10 10 10 10 10 10 10 10 10 10 10 10 10 10 10 10 10 10 6.53h10 10 10 10 10 10 10 10 10 10 10 10 10 10 10 10 10 10 10 10 5.387 10 10 10 1.142l9.622-0.019 27.323-0.052v-10-10-10-9.223-3.37-0.516"/>
   <path d="m684.51 447.77v-10-1.937-10-10-10-1.069-10-3.376l-4.408-4.234-1.687-1.621-2.044-1.963-2.845-2.733-7.211-6.928-7.212-6.927-1.556-1.495h-9.534-3.328-10-10-10-1.721-10-10-10-5.366-6.597-10-10-10-2.614-7.948-10-10-7.385-10-10-10-2.436-10-10-8.233v10 10 10 10 10 10 10 3.753 10 2.582 5.549 7.201 10 10 10 10 2.338 10 5.889 1.783 10 6.5 10 10 10 9.567"/>
   <path d="m657.55 365.49v10 10 10 9.277 10 10 10 4.476 10 2.514"/>
   <path d="m673.93 656.75h10 10 10 0.546 0.113v-3.119-7.502-6.453-10.013-10-10-2.438-9.59-10-10-10-10-10-4.832-10-9.174-10-5.964-10-9.492-10-7.836l-0.113-0.089-7.854-6.189-0.237-0.186-7.855-6.189-4.021-3.169-3.504-2.76h-0.904-1.687-2.044-2.44-10-6.384-9.534-3.328-10-10-10-1.721-10-10-10-5.366-6.597-10-9.408-10-3.206-10-6.884-10-8.449-10-8.924-2.265v5.617 6.501 10 3.613 10 10 9.425 10 5.889 1.783 10 6.5 10 10 10 9.567 10 0.516 10 10 10 10 10 9.73l9.873 1.591 26.438 4.263"/>
   <path d="m681 451.76v10 10 10 10 10 5.91 10 10 10 5.138 10 10 10 10 8.966 6.22 10 10 10 10 1.687 6.453 4.767"/>
   <path d="m481.86 650.9h10 10 10 10 4.48 10 10 10 10 10 10 8.087 10 10 10 10 10 10 10 10 6.574l9.706 2.409 9.705 2.409 4.06 1.008 0.113 0.028"/>
   <path d="m936.81 183.22v-10-10-10-10-2.118l-1.85-9.827-1.849-9.828-3.7-19.654-1.849-9.828-0.501-2.657h-10-10-10-10-10-10-10-10-10-10-10-10-10-10-10-10-1.856"/>
   <path d="m927.06 89.311v10 10 10 10 10 10 10 10 10 3.912"/>
   <path d="m656.01 246.08-7.997-10.076h-10-10-10-10-10-10-10-10-10-10-10-10-10-10-10-10-10-10-10-10-10-11.37v10 10 2.043"/>
   <path d="m648.01 236v7.58 2.496 10 5.946"/>
   <path d="m920.98 297.66-2.785-9.605-0.408-1.406h-10-10-3.154"/>
   <path d="m917.79 286.65v10 1.011 10 10 10 10 10 10 6.34 8.383 10 10 10 10 10 10 10 7.11 10 10 10 10 1.37 0.32"/>
   <path d="m789.81 491.18h10 1.323 9.293 10 10 10 10 10 8.047 4.02 10 10 10 10 1.776 3.514l4.656 8.851 4.008 7.618"/>
   <path d="m553.07-0v10 10 10 10 10 10 10 10 10 10 10 10 10 10 10 10 10 10 10 3.264l20.127 22.245 6.709 7.416 4.045 4.47h10 10 10 10 10 10 10 10 10 1.914 10 10 9.667 5.501"/>
   <path d="m765.2 128.49v-10-10-10-9.176-10-10-10-10-3.169l-3.786-9.256-3.785-9.256-3.786-9.256-3.785-9.255-3.73-9.119"/>
   <path d="m746.33-0v10 10 10 10 10 10 10 10 9.311 10 10 10 9.176"/>
   <path d="m894.63 286.65v-10-10-10-10-10-3.927-10-10-10-10-9.499-10-10.109l-2.59-9.658-2.59-9.659-0.721-2.692-2.591-9.658-0.793-2.96h-10-10-10-10-10-10-10-10-10-10-10-10.147-10-8.872-10-10-10-5.3v10 2.618 10 10 10 10 10 2.159 10 10 10 4.131 10 6.19 2.496 10 10 10 8.047 3.164 10 0.368 5.145l2.224 2.884 6.106 7.92 1.913 2.482 6.105 7.919 2.769 3.592"/>
   <path d="m885.35 128.49v10 10 10 10 10 4.736 10 10 10 10 10 10 10 10 10 10 3.426 10 1.011 5.145"/>
   <path d="m711.03 302.8h2.224 8.019 10 10 10 10 10 10 10 9.865 10 10 10 10 10 10 7.34 10 6.871l7.014 18.73 2.271 6.067"/>
   <path d="m1093.5 1022v-8.083l-0.19-1.191"/>
   <path d="m762.08 960.13-0.819 0.619-6.073 4.591v10 2.943 4.065 10 10 4.069 10 8.71 4.608 10 7.385 10 5.736 10 4.955 0.079 10 3.298 9.2 6.35 1.592 10 0.246 10 8.202 10 0.219 1.406 9.268 10 10 7.015 10 10 10 6.884 1.829 3.508 10 4.19h10 10 10 10 1.007 0.685 10 8.353 2.141 2.869 10 4.066 10 10 1.777 10 6.135 2.4"/>
   <path d="m755.19 965.34h7.579 10 10 10 10 9.849 5.639 10 10 10 10 10 10 10 10 2.153 8.955 8.227 10 10 10 10 10 10 7.842 10 10 10 10 5.513"/>
   <path d="m1030.9 1022v-9.274-10-10-3.864-10-0.91-10-2.638l0.852-9.963 0.793-9.285"/>
   <path d="m1032.6 1022v-8.083-1.191-10-1.726-10-2.138-0.151-10-0.759-10-10-10-1.886h-10-10-10-10-10-10-10-10-10-6.776-2.393-10-5.831-10-0.303"/>
   <path d="m1012.3 1046.2v10 10 10 10 10 10 10 10 10 5.225 10 10 10 2.12"/>
   <path d="m1012.3 1046.2h10 10 0.314 10 10 10 10 9.069 10 1.814 10 10 10 10 10 10 10 10 10 10 10 1.691 10 10 10 10 10 9.386"/>
   <path d="m1109.5 1298.5h10 1.358 7.058 10 10 10 10 10 10 10 10 1.092 10 1.689 10 10 10 10 3.895v-10-3.297-10-10-10-10-10-10-10-10-10-10-10-10-10-10-10-10-10.456-10-10-10-3.732-10-10-10-2.82-1.969l-5.77-8.167-5.77-8.168-5.54-7.842h-10-10-10-10-1.412-0.894-10-10-10-10-10-10-10-10-10-10-10-1.691-4.012-7.802-2.823-10-10-10-10-6.246"/>
   <path d="m883.61 1151.5-3.769 9.263-3.768 9.263-1.451 3.565v10 1.138 10 3.343 10 10 3.541 1.829 3.508 10 1.087 3.103 2.089 10 4.919 5.561 7.325 10 5.498 0.932 10 10 3.116 10 10 2.361 10 10 10 10 6.825 10 10 8.662h10 10 10 1.279 10 0.164 10 10 10 10 10 10 10 10 10 10 10 10 10 10 10 10 10 10 10 3.394v-10-10-10-10-10-10-10-10-10-10-9.908-10-10-10-10-4.261-10-10-10-10-10-10-10-10.668"/>
   <path d="m874.62 1173.5h10 10 1.214 10 3.528 10 10 10 10 5.424 10 10 10 0.645 10 10 6.844 10 10 0.314 10 10 10 10 9.069 10 1.814 10 5.985"/>
   <path d="m914.27 649h-10-10-6.256-5.562-10-10-10-10-10-10-10-10-10-1.583v3.49"/>
   <path d="m1097.1 939.57h10 10 10 10 10 10 10.424v-10-10-10-10-10-10-10-10-10-10-10-10-10-10-10-10-10-10-10-11.433-0.432"/>
   <path d="m1008.5 364v-10-10-10-10-10-10-10-10-10-10-10-10-11.278l-2.433-29.901-0.812-9.967-0.784-9.631h-10-10-10-10-10-10-7.672-9.749-10-10-10-2.424"/>
   <path d="m1004.5 183.22v10 10 10 10 10 10 10 10 10 10 10 10 10 10 10 10 10 10.777 10 10 10 10 10 10 10 10 5.493"/>
   <path d="m1205.2 1022v-1.601h10 10 10 10 10 10 10 10 10 10 10 10 10 10 10 10 10 10 10 10 10 10 10 10 10 10 4.755l8.339 5.519 8.339 5.52 8.339 5.519 16.442 10.882 0.464 0.307v10 10 10 10 10 10 10 10 10 10 10 10 10 10 10 10 10 10 10 6.595 9.76 10 10 10 10 10 10 10 10 4.832h-10-10-10-10-10-10-10-10-10-3.308-10-10-10-3.399-10-10-10-10-10-10-10-10-10-10-10-10-10-10-10-10-4.48v-10-10-10-10-0.882"/>
   <path d="m1538.9 776.3v10 10 10 10 10 10 10 10 10 10 10 10 7.928 10 5.516 10 10 10 10 10 9.745 3.972h-10-10-8.311-7.594-10-10-4.452-10-10-10-8.58-10-10-10-10-10-10-10-10-10-10-10-10-10-10-10-10-10-10-10-2.9v-10-10-10-10-10-10-10-10-10-10-10-10-10-10-10-10-10-10-10-10-10-10-10-10-10-11.513-10-10-10-0.323"/>
   <path d="m1268.4 691.62h-10-10-0.275-1.046l-9.682 2.499-8.246 2.129v10 10 5.695"/>
   <path d="m1248.2 589.08h-10-10-10-10-5.675-10-10-10-10-10-0.538-10-10-1.266v-10-10-10-10-10-10-10-10-10-10-10-10-10-9.587-10-10-10-10-10-10-10-10-5.493-10-10-10-10-10-10-3.137"/>
   <path d="m1418.9 477.86v-10-10-10-10-10-10-10-10-10-3.271-10-10-10-4.803-10-10-10-10-8.921h-10-10-10-10-10-10-10-10-10-10-10-10-10-10-10-8.621-10-8.635-10-10-10-10-10-10-10-10-10-10-10.96l-1.797 9.838-3.594 19.674-1.865 10.205v10 10 3.42"/>
   <path d="m1418.9 384.59h10 10 10 10 10 10 10 10 1.221l7.827-6.224 7.828-6.224 15.654-12.448 7.827-6.223 4.632-3.684v-10-10-10-10-10-10-10-10-10-10-10-10-10-10-10-10-10-10-10-10-10-10-10-10-10-10-10-10-3.611h-10-10-10-10-10-10-10-10-10-10-10-10-10-10-10-10-10-10-10-10-10-10-10-10-10-10-10-10-3.61l-2.969 9.55-8.907 28.647-2.968 9.549-2.969 9.549-0.822 2.642v10 10 10 10 10 10 10 10 10 10 10 10 10 10 10 10 10 4.753"/>
   <path d="m1543.9 349.78h-10-10-10-10-10-10-10-10-10-10-10-10-4.989"/>
   <path d="m654.35 978.28v5.747 10 3.404 10 10 10 10 10 10 5.422 8.197 6.758 0.079 10 3.298 9.2 3.584 4.358 10 10 1.766 6.682 9.525 0.694 1.406 10 10 10 8.489 10 10 10 4.678h10 10 7.167 7.175 1.712 10 10 7.618 2.474 2.29 10 10 7.718 4.688"/>
   <path d="m654.35 978.28h10 10 0.803 5.176 10 6.169 10 10 10 10 10 8.694"/>
   <path d="m710.34 1226.9-5.741 8.188-5.741 8.187-8.46 12.066-1.712 2.441-3.788 5.403"/>
   <path d="m905.9 1485 5.715-29.451 1.906-9.816 1.905-9.817 0.638-3.287v-10-10-4.243"/>
   <path d="m1093.3 1012.8h3.791v-10-10-10-10-10-10-10-3.187-10-5.895-10-10-10-10-10-10-10-10-10-10-10-10-10-10-10-10-10-10-5.538-0.432"/>
   <path d="m872.5 611.15v10 10 10 2.297l8.732 4.873 1.226 0.685"/>
   <path d="m1120.8 1298.5v10 10 10 10 6.834l1.167 9.931 3.501 29.796 1.166 9.931 1.224 10.415h10 10 10 10 10 10 10 10 10 10 10 10 10 10 10 10 10 10 10 10 10 10 10 10 10 10 10 10 10.66v-10-10-10-10-10-10-6.025"/>
   <path d="m1127.9 1405.4v-10-10-10-10-10-10-10-10-10-10-6.907"/>
   <path d="m1177.5 738.13v10 10 10 10 10 10 10 10 10 10 10 10 10 10 10 10 10 10 10 10 10 10 10 10 8.217l4.632 8.862 4.632 8.863 3.344 6.397h10 10 10 10 10 10 10 10 10 10 10 10 10 10 10 10 10 10 10 10 10 10 10 10 10 10 10 10 8.525v-10-10-7.012"/>
   <path d="m1190.1 1010.5v-10-10-10-10-10-10-10-10-10-10-10-10-10-10-10-10-10-10-10-10-10-10-10-10-10-10-12.38-10-6.145h10 2.416 10 10 6.701 10 7.928"/>
   <path d="m1268.4 776.3v-10-10-10-10-10-4.352-10-10-10-0.323-10-10-10-10-10-10-10-10-8.747-10-10-10-10-10-10-10-10-10-10-10-10-5.019h10 10 10 10 10 10 10 10 10 10 10 7.288 10 10 10 3.174 10 2.081 10 10 7.603 10 10 10 10 10 10 10 10 10 10 8.295v6.729 10 10 10 10 10 10 10 10 10 10 10 10 10 10 10 5.334 8.98 10 10 10 10 10 10 10 10 10 10 1.882 0.832 10 10 4.684h-10-10-7.925-10-10-10-10-4.474-8.866-7.017-10-10-10-1.116-7.464-10-10-10-10-10-10-10-10-10-10-10-10-10-10-10-10-11.579"/>
   <path d="m1548.4 1295v-10-10-10-10-10-10-10-10-10-10-10-10-10-10-10-10-10-10-10-10-10-10-10-10-10-10-10-10-11.823"/>
   <path d="m1840.2 1003.2h-10-10-10-10-10-10-10-10-10-10-10-10-10-10-10-10-10-10-10-10-10-10-10-10-10-10-10-10-11.823l-8.86-4.635-26.583-13.905-2.291-1.199"/>
   <path d="m1511.8 1254.5 13.395 14.851 6.698 7.425 6.698 7.426 6.698 7.425 3.036 3.367h10 10 10 10 10 10 10 10 10 10 10 10 10 10 10 10 10 10 10 10 10 10 10 10 10 10 10 10 11.823v-10-10-10-10-10-10-10-10-10-10-10-10-10-10-10-10-10-10-10-10-10-10-10-10-10-10-10-10-11.823l-28.49-9.399-28.489-9.399-9.496-3.133-5.396-1.78h-10-10-10-10-10-10-10-10-10-10-10-10-10-10-10-10-10-10-10-10-10-10-9.375"/>
   <path d="m1538.9 919.74h10 10 10 10 10 10 10 10 10 10 10 10 10 10 10 10 10 10 10 10 10 10 6.482v-10-10-10-10-10-10-10-10-10-10-10-10-10-10-10-10-10-10-10-10-10-10-10-10-10-10-10-9.822h-10-3.922"/>
   <path d="m1566.9 751.62h10 10 10 10 10 10 10 10 10 10 10 10 10 5.928 10 10 10 10 8.707v-10-10-10-10-10-10-10-10-10-10-9.698-1.996-10-10-10-10-10-10-10-10-10-10-10-10-10-10-10-10-10-11.237h-10-10-10-10-10-10-10-10-10-10-10-10-10-10-10-10-10-10-10-10-10-10-10-10-10-10-10-10-10-2.93l-27.603 19.174"/>
   <path d="m526.34 743.44v10 10 10 10 7.493"/>
   <path d="m557.49 656.75v10 10 10 10 4.027 3.37 10 10 10 9.294"/>
   <path d="m481.86 580.65h-10-3.906-10-10-5.574"/>
   <path d="m675.15 893.82v-1.471"/>
   <path d="m675.86 227.4v10 6.19"/>
   <path d="m684.57 1470.4v10 4.56"/>
   <path d="m690.4 1221.6v10 10 10 3.778"/>
   <path d="m713.25 305.69v10 10 10 1.839 2.979 5.113"/>
   <path d="m711.03 193.26h-10-10-10-5.168-10-10-10-10-10-10-10-10-10-10-10-10-2.795"/>
   <path d="m763.45 639.68v6.453"/>
   <path d="m657.7 892.35h10 7.454 3.041 2.135"/>
   <path d="m711.03 246.08h-5.501-10-10-9.667-10-9.852"/>
   <path d="m789.81 652.12v-10-2.446"/>
   <path d="m711.03 243.58h-5.501-10-10-9.667-10-10-1.833"/>
   <path d="m790.12 1263.7h6.076 0.685 10 10 10 7.429 10 10 10 7.912 2.4"/>
   <path d="m905.9 1408.4v10 10 10 10 10 10 10 6.614"/>
   <path d="m914.27 597.64v10 3.51 10 10 10 2.297 5.558 3.103 5.001 8.207 6.871 10 1.492 1.131 10 10 10 10 3.487 1.262 8.144"/>
   <path d="m914.27 665.31h-10-10-10-10-10-10-10-10-10-10.94-10-9.175-3.286-1.058"/>
   <path d="m933.42 738.13v10 10 10 10 10 10 10 10 10 10 10 10 10 10 10 10 10 10 7.67 10 3.763 6.527"/>
   <path d="m810.43 611.15h10 10 10 10 10 10 2.067"/>
   <path d="m1032.6 1001h10 10 10 10 9.069"/>
   <path d="m1032.6 1013.9h10 10 10 10 9.069 10 1.814"/>
   <path d="m914.27 643.44h-10-10-10-10-1.776"/>
   <path d="m1130.7 364h-7.256-10-10-10-10-10-10-10-10-10-10-10-4.914-4.029"/>
   <path d="m1167.5 738.13h9.956"/>
   <path d="m1177.5 737.7h-9.956-10-10-10-10-10-10-10.424-10-10-9.404-10-10-10-10-10-10-10-10-10-10-10-10-3.871-10-10-9.529"/>
   <path d="m1130.7 449.49h-7.256-10-10-10-10-10-10-10-10-10-10-10-4.914-4.029-10-7.877-6.521"/>
   <path d="m1202.5 721.95v-10-10-10-10-10-10-10-10-10-10-10-9.07-10-3.797"/>
   <path d="m1206.1 1022-0.894-1.601"/>
   <path d="m1248.2 602.88v10 10 10 10 10 10 10 10 8.747"/>
   <path d="m1260.3 300.86v-10-10-10-10-10-10-10-10-10-10-10-10-10-10-10-10-10-10-10-10-10-10-10-4.69"/>
   <path d="m1202.5 602.88h10 10 10 10 5.675"/>
   <path d="m1458.6 477.86v-10-9.174"/>
   <path d="m1503 983.46v10 10 10 10 10 8.887"/>
   <path d="m1264.6 1048.2h10 10 10 10 10 10 10 10 10 10 10 10 10 10 10 10 10 10 10 10 10 10 10 8.489 8.803"/>
  </g>
 </g>
 <g id="fressstylelayer_hidden">
  <g id="strokes" fill="none" stroke="#070" stroke-linejoin="round" stroke-width="3">
   <path d="m500.93 1147-8.051 5.931-8.051 5.932-8.052 5.931-16.102 11.862-8.051 5.932-5.847 4.307"/>
   <path d="m446.78 899.23v10 10 6.812 10 1.595 10 7.422 10 6.144 10 10 7.836 2.119 10 10 10 10 10 10 10 10 10 2.055 6.133 4.63 10 7.913 10 9.441 10 9.615 5.756 10 10.195h3.137 10 10 10 4.971 10 10 10 10 10 10 10 2.4 10 10 9.943 4.148 1.844 4.101 10 2.839 10 9.377 9.08 10 3.677 2.057 10 10 7.167 1.472 5.703 1.712 10 10 7.618 2.474 2.29 10 1.656l1.567-2.206 5.789-8.154 5.79-8.153 2.916-4.106 10.478-14.756 0.791-1.114 0.998-1.406v-10-0.219-10-8.202-10-0.246-1.592-6.35-9.2-10-3.298-0.079-10-4.955-10-5.736-10-7.385-4.608-10-8.71-10-10-4.069-4.065-10-2.943-4.591-0.619-0.519-9.252-1.901-10-3.886-2.718-1.228-10-1.81-10-4.809-7.775-2.413-1.471-7.192h-10-10-10-10-10-5.753-10-10-2.884-3.805-2.135-1.666-1.375-10-10-6.576-0.199-2.179-7.18-10-10-8.902-10.054-10-10-10-10-8.585-10-10-5.133-10-10-5.415l-9.679 2.515-9.193 2.388-9.678 2.515-9.679 2.514-15.925 4.138"/>
   <path d="m500.93 885.16v10 10 10 10 0.882 10 10 9.017 10 10 10 10 6.099 10 10 10 10 10 10 9.899 10 10 10 10 10 0.832 10 7.367 7.745h10 10 10 10 10 6.354 10 10 10 4.091 10 10 8.519 10 8.722 10 5.054 0.68 10 10 10 4.342 1.712 10 10 10 10 10 10.1 4.688 7.579"/>
   <path d="m446.78 899.23h10 10 10 10 10 10 10 10 10 10 10 10 10 10 10 3.287 10.054 9.293 10 10 8.12 0.848 10 10 6.775 5.176 10 10 10 10 10 4.113"/>
   <path d="m734.44 1186.9v-10-10-10-10-10.114-10-8.202-10-8.188-10-10-2.498-6.837-8.197-10-5.736-10-10-10-10-0.703-10-10-10-10-5.668-0.619-9.771-1.901-10-3.886-10-10-10-5.346l8.956-4.448 1.932-0.959 2.96-1.471 8.957-4.448 5.524-2.744"/>
   <path d="m718.02 1243.2-5.526 8.334-5.526 8.335-2.212 3.337-5.172 7.799-5.526 8.334-5.368 8.096"/>
   <path d="m688.69 1029.7v10 0.493 6.892 10 5.736 8.197 6.758 0.079 10 3.298 9.2 3.584 2.766 1.592 10 0.246 10 8.202 10 0.219 1.406 10 10 10 6.283 2.206 10 10 10 4.678 10 10 10 6.219 5.403 0.474 10 10 3.755h10 10 1.654 10 0.15 10 10 10.008 10 10 7.526 10 2.093 6.761 10 0.3 8.053 10 9.076 10 10 1.777 10 6.135 2.4 8.988 4.08 8.146 10.065 10 0.164 10 10 10 0.311l0.177-0.932 1.868-9.824 1.079-5.674 1.868-9.824 0.583-3.062 1.868-9.823 0.969-5.096v-2.089-3.103-10-4.595-10-10-5.37-10-10-4.481-10-10-10-2.12-10-10-10-10-10-10-10-10-10-10-10-10-7.485-1.191-6.335h-10-10-10-7.197-8.227-2.076-6.879-2.776-9.561-10-10-10-10-10-10-7.828-1.422-0.566-0.075-5.564-8.718-1.246-6.457-10-5.542-10-7.886-7.579-10-10-0.75-10-1.656-4.764l-11.004 8.749-15.655 12.445-0.959 0.763-1.712 1.361"/>
   <path d="m718.02 1006.4v10 10 10 10 0.703 10 5.736 8.197 6.837 10 10 2.498 10 8.188 10 8.202 10 10 10 10 10.114 10 10 10 4.678 5.337 10 6.279h10 10 10 2.482 10 10 10 10 5.695 0.685 10 10 10 7.429 10 10 10 7.912 2.4 10 10 1.214 10 10 0.229 10 10 10 8.723"/>
   <path d="m688.69 1029.7h1.712 10 10 10 10 10 10 4.788 7.579 10 10 10 3.428 0.685 10 10 1.375 10 10 10 10 10 10 10 10 2.153 8.955 6.069 10 10 10 0.943"/>
   <path d="m946.38 1287.4v-0.932-10-5.498-10-10-9.894-10-10-10-10-10-10-10-10-10-9.669-10-10-10-10-10-10-10-10-10-10-10-1.693l3.393-9.407 2.733-7.576 2.286-6.335"/>
   <path d="m678.19 1106.7-7.143 6.998-7.144 6.998-7.143 6.998-2.414 2.364-6.82 6.682"/>
   <path d="m647.53 896.23v2.994 4.781 10 4.809 10 1.81 3.946 10 3.886 10 10 10 5.572 10 7.124 10 10 10 10 10 10 1.702 8.197 6.758 0.079 10 3.298 9.2 3.584 4.358 10 10 8.448h6.82 9.334 10 7.833 3.295 3.88 1.712 10 10 7.618 2.474 2.29 10 1.656 10 6.062 4.688 7.579 10 7.886 10 5.542 0.685 10 8.353 3.588 1.422 10 4.066 10 10 1.777 10 6.135 10 5.85l3.799-9.251 3.677-8.951 2.085-5.079 2.776-6.759v-10-10-10-10-10-9.618-10-7.385-4.608-10-1.184-1.191-6.335-5.391-10-2.138-0.151-6.389-4.37-3.99-8.648-4.591-0.619-9.771-4.267-10-4.238-6.052-10-5.888-10-10-5.394h-8.866-6.099-8.92-5.784-10-10-10-7.029-10-10-0.38-0.714-10-10-1.747-3.817-10-4.494-10-10-10-10-10-10-5.544-10-10-2.884-3.805-2.135l-1.666 0.636-1.375 0.525-9.342 3.569-8.112 3.098-3.849 1.471-5.273 2.014-0.199 0.075-0.848 0.324"/>
   <path d="m678.19 884.52v0.636 7.192 1.471 10 10 10 10 0.753 10 3.886 1.901 10 3.715 10 10 10 10 10 10 10 10 10 8.782 8.197 6.837 10 10 2.498 6.35h10 0.498 1.712 10 10 10 10 10 10.1 4.688 7.579 10 10 10 3.428 0.685 10 10 10 7.429 10 10 10 7.912 10 10 8.187"/>
   <path d="m647.53 896.23h0.848 10 10 6.775 5.176 10 10 10 10 10 10 10 10 2.442 10 10 8.102 10 10 1.747 5.639 10 10 10 10 10 10 7.188 2.628"/>
   <path d="m888.07 1136.8v-10-8.202-10-10-10-10-10-10-10-1.456-10-10-10-4.368-6.335-10-7.529-10-0.91-10-7.229-0.619-9.771-4.267-10-1.346-8.944-10-10-9.57l3.471-3.295 7.252-6.885 1.614-1.532"/>
   <path d="m681.52 1332.9-5.294 8.483-4.843 7.76-5.295 8.483-5.295 8.484-4.329 6.936-4.168 6.679"/>
   <path d="m652.29 1148.4v10 10 10 8.489 10 10 10 10 10 10 10 6.3 10 10 10 1.394 5.263 10 10 0.729 10 6.095 10 2.468 10 10 3.903 6.679h10 10 10 2.278 10 10 5.775 10 0.15 8.308 10 10 10 10 5.65 10 5.669 10 10 10 10 10 10 10 10 4.502 7.549 1.439l2.526-9.676 2.527-9.676 2.945-11.281 2.527-9.675 1.701-6.517v-10-10-2.361-10-10-3.116-0.932-10-5.498-7.325-5.561-10-4.919-2.089-3.103-10-1.087-3.508-1.829-10-10-3.541-10-3.343-10-1.138-10-10-10-2.12-10-10-2.852h-0.288-7.476-10-5.85-10-6.135-10-10-1.777-10-4.066-1.422-3.588-10-8.353-0.685-10-5.542-10-7.886-7.579-4.688-10-6.062-10-1.656-2.29-2.474-10-10-7.618-1.712-3.88-3.295l-6.998 7.143-6.999 7.143-3.836 3.916-6.999 7.143-2.335 2.382-0.68 0.694-1.377 1.406"/>
   <path d="m681.52 1118.6v10 8.202 10 10 10 10 10.114 10 10 10 4.678 10 10 10 10 1.622 10 10 10 10 10 10 9.706h3.054 10 10 10 10 10 10 5.933 10 10 10 9.619 10 10 10 1.4 10 10 10 10 6.913 6.189 10 10 1.214"/>
   <path d="m652.29 1148.4h2.057 10 10 10 4.342 1.712 10 10 10 10 10 10.1 4.688 6.581 10 10 10 4.426 0.685 10 10 10 7.429 10 10 10 7.912 10 1.388"/>
   <path d="m883.61 1379.7v-10-10-10-10-10-10-9.186-10-10-3.116-0.932-10-5.498-10-10-9.894-10-4.19-5.337-10-10-10-10-10-10-10.113-3.054l7.586-18.506 3.793-9.252 0.847-2.069"/>
   <path d="m414.01 1160.9-8.354 5.496-8.354 5.497-16.708 10.992-8.354 5.497-6.534 4.299"/>
   <path d="m408.4 1192.7h10 9.859 10 10 1.651 10 10 10 4.971 10 10 10 10 10 10 10 2.4 10 10 9.943l4.148-4.036 1.844-1.794 4.101-3.989 7.168-6.974 5.671-5.518 7.168-6.973 2.567-2.497v-3.632-10-0.312-7.745-10-10-10-0.922-4.358-3.584-9.2-1.785-3.822-10-4.528-8.197-10-10-10-10-10-10-1.702-10-7.124-10-10-8.975h-10-3.619-10-7.57-10-10-9.141-10-10-10-10-10-8.634-10-8.872-10-10-10-5.282-4.983-10-10-6.393-1.392l-9.484 3.17-9.485 3.17-9.484 3.169-9.484 3.17-0.76 0.254"/>
   <path d="m414.01 955.06v10 10 10 10 10 10 10 10 10 10 10 10 10 10 10 10 6.83 10 10 10 9.056h3.101 10 1.153 10 8.514 10 10 10 10 10 10 10 10 10 10 10.508 10 10 10 4.091 10 10 8.519"/>
   <path d="m449.91 1328-7.158 6.983-7.157 6.984-7.336 7.157-14.316 13.966-0.318 0.311-5.225 5.097"/>
   <path d="m619.89 1139.3h-10-10-2.574-5.945-4.148-10-10-9.943-10-10-10-10-10-6.354-10-6.046-10-10-10-4.971l-3.137 2.074-16.684 11.03-1.83 1.211-8.342 5.515-2.811 1.859"/>
   <path d="m449.91 1139.3v10 10 10 10 7.64 5.83 10 8.562 10 10 10 10 10 10 10 10 10 10 10 6.671h10 10 10 10 10 10 10 10 10 10 7.371 10 10 10 4.091 7.225 10 10 10 1.064 8.952"/>
   <path d="m413.63 1368.5h10 4.634 10 10 4.059 2.336 10 10 10 10 10 10 10 10 10 10 10 10 10 6.718 3.339 3.886 3.851 7.708l5.75-8.182 5.749-8.182 2.072-2.948 0.539-0.767 5.395-7.678 2.827-4.023 5.749-8.182 0.376-0.536v-7.377-10-10-0.729-5.263-10-10-10-1.394"/>
   <path d="m452.32 1386.7-8.776 9.46-6.802 7.331-20.403 21.993-2.712 2.924"/>
   <path d="m629.54 1209.4h-10-9.377-10-2.839-5.945-10-10-10-4.091-10-10-10-10-10-10-10-2.4-10-10-10-2.563l-2.408 1.881-15.761 12.313-5.89 4.601"/>
   <path d="m452.32 1209.4v10 10 10 10 10 10 10 10 10 10 10 10 10 10 10 9.05 10 8.293h10 10 10 10 10 10 10 10 10 10 10 10 10 10 6.279 10 10 10 1.064"/>
   <path d="m598.6 1428.5h3.851l5.465-8.375 10.928-16.75 4.647-7.123 0.778-1.192 5.395-8.268v-10-3.702-10-10-3.903-8.445-4.023-8.718-7.377-10-10-0.729-5.263-10-10-10-1.394"/>
   <path d="m624.27 1429-5.27 8.498-5.27 8.499-5.27 8.498-5.27 8.499-4.589 7.399"/>
   <path d="m624.27 1263.2v10 10 10 10 10 10 10 10 5.182 0.767 10 10 3.903 10 10 1.97 1.192 10 10 10 2.84h10 10 10 10 10 10.302 10 10 10 10 10 10 10 10 10 10 5.552"/>
   <path d="m684.13 931.86-3.805 1.969-1.446 0.749-3.73 1.93-8.881 4.596-8.881 4.597-5.339 2.763-3.674 1.901"/>
   <path d="m789.81 665.31h-10-7.253-9.107-10-10-10-10-10-8.978-10-10-10-0.546-10-10-5.553v6.681 1.951 4.153 1.471 10 7.522 3.172 0.516 3.37 10 10 10 10 10 10 10 10 6.787 3.434 10 10 10 10 10 10 10 10 6.313 4.473 7.192 1.471 2.089 0.324 2.994 4.781 10 4.809 10 1.81 3.946 10 3.886 1.901h0.199 10 10 6.576 3.041 2.135 10 10 6.689 10 10 7.424 10 10 8.329 10 2.24 5.646 10 10 1.999 9.964 5.639 10 5.455 10 10 10 10 10 4.361 10 2.337 6.879 10 0.303 10 5.831l2.393-4.267 3.661-6.527 4.324-7.711v-6.052-2.132-10-3.756-10-10-10-10-10-10-10-10-10-10-10-10-10-10-10-10-10-1.782-0.432-8.144-1.262-10-10-10-9.874-4.744-10-1.492l-8.338-5.52-2.04-1.351h-6.945-10-2.206"/>
   <path d="m648.38 665.31 19.641 3.774 9.82 1.888 5.303 1.019 0.992 0.19"/>
   <path d="m943.8 672.18h-10-10-9.529-10-10-10-7.278-10-10-10-10-10-10-10-10-2.837-3.286-1.058-10-10-10-10-10-10-10-10-5.338-10-10-0.343v1.761 10 10 6.834 3.37 10 10 10 10 10 10 10 10 10 10 10 5.209 10 10 10 10 10 10 5.162 0.636 7.192 1.471 10 10 10 8.035h10 10 10 10 10 10 10 8.637 10 10 10 10 9.849 5.639 10 10 10 10 10 5.02 10 7.233 9.9 10 1.201 5.981 10 10 6.209"/>
   <path d="m933.42 665.31v10 8.363 10 10 10 10 4.618 9.838"/>
   <path d="m646.2 918.82-9.164 4.002-9.165 4.001-17.753 7.753"/>
   <path d="m789.81 673.95h-10-7.253-9.107-10-10-10-10-10-8.978-10-10-0.343-10-0.203-10-10-5.553-10-10-10-5.86-2.401v10 10 3.146 3.172 0.516 3.37 10 10 10 10 10 10 10 10 6.787 3.434 10 10 10 10 10 10 10 10 6.313 4.473 7.192 6.878 3.383 1.398 10 10 10 0.565h10 10 0.281 3.868 10 3.264 0.848 0.199 10 10 6.576 3.041 0.689 1.446 10 10 6.689 10 10 7.424 10 10 8.329 10 10 10 9.885 9.964 5.639 10 5.455 10 10 10 7.029l2.536-2.718 1.146-1.228 2.102-2.252 2.4-2.572 6.52-6.986v-8.902-10-3.682-10-1.712-10-10-10-10-10-10-4.362-5.607-10-10-10-10-10-10-10-10-4.995-1.262-10-10-10-10-8.725l-3.846-1.471-5.074-1.941-5.784-2.212"/>
   <path d="m610.12 673.95 29.642 4.62 6.44 1.004"/>
   <path d="m885.45 679.57h-10-10-10-10-10-10-10-10-10-1.288-3.286-1.058-10-10-10-10-10-10-10-10-5.338-10-10-10-10-10-6.099-2.179v10 10 1.21 3.37 10 10 10 10 10 10 10 10 6.787 10 10 10 10 10 10 10 10 10 4.22 7.192 1.471 10 10 4.997h1.331 0.848 10 10 6.775 5.176 10 10 10 10 10 10 10 10 2.442 10 10 8.102 10 10 1.747 5.639 10 10 10 10 10 10 7.188"/>
   <path d="m567.11 880.68-15.631 4.473-19.228 5.502-5.905 1.69"/>
   <path d="m704.59 646.13h-0.113-10-10-3.471-7.075-10-10-10-10-10-10-10-9.499-10-10-10-6.945-10-10-10-1.142v4.767 5.854 10 10 10 10.339 3.172 0.516 3.37 10 10 10 9.223 0.071"/>
   <path d="m526.34 646.13 29.505 5.43 9.834 1.81 1.425 0.262"/>
   <path d="m794.16 653.63h-3.286-1.058-10-10-10-10-10-10-10-10-5.225-0.113-10-10-10-10-10-10-10-10-10-10-10.045-10-10-7.323v3.119 10 10 10 10 4.027 3.37 10 10 10 9.275 10 10 10 10 7.512 10 10 10 10 10 10 10 10 9.747h10 10 10 2.954 10.054 10 10 10 8.261 10 10 6.775 5.176 10 10 10 10 10 10 10 10 10 10 10.544 3.286"/>
   <path d="m680.33 892.35h3.805 10 10 2.884 10 10 10 10 1.272 10 4.481 9.791l8.798-4.752 5.696-3.076 3.817-2.062 3.286-1.775v-10-10-10-10-10-10.525-5.607-10-10-10-10-10-10-10-10-10-10-10-10-10-4.982-1.471-4.153-1.761-0.19-6.681"/>
   <path d="m526.34 790.94v3.434 10 10 10 10 10 10 10 10 10.786 7.192h10 10 10 10 10 10 10 3.718 10.054 10 10 8.902 7.18 2.179 0.199 9.122"/>
   <path d="m707.02 1025.1-7.717 6.359-7.717 6.36-1.18 0.971-1.712 1.411-7.717 6.359-0.646 0.533"/>
   <path d="m870.74 814.55h-10-10-10-7.029-10-10-0.38-0.714-10-8.461-3.286-10-8.311-10-10-10-10-10-10-5.544l-19.572 4.112-3.312 0.695"/>
   <path d="m707.02 814.55v10 10 10 10 10 10 9.969 0.636 7.192 1.471 10 10 10 10 0.753 10 3.886 1.901 9.771 10 1.137 10 10 10 10 3.899 9.961h10 10 10 10 8.174 7.579 10 10 10 3.428 0.685 10 10 1.375 10 10 10 10 10 10 10 10 2.153 8.955 8.227"/>
   <path d="m680.33 893.82v2.413 2.994 4.781 10 4.809 10 1.81 3.197 0.749 10 3.886 1.901 10 2.443 10 5.481 10 10 10 10 10 10 8.837h4.483 3.88 1.712 10 10 7.618 4.764 10 1.656 10 10 0.75 7.579 10 7.886 10 5.542 0.685 5.772 10 5.603 0.566 1.422 10 10 10 10 10 10 7.828 9.561 2.776 6.879l2.076-4.432 4.243-9.056 1.826-3.897 2.158-4.608v-10-1.184-1.191-6.335-5.391-10-2.138-0.151-6.389-4.37-10-2.638-4.591-10-0.39-4.267"/>
   <path d="m482.06 984.03-9.202 3.913-9.202 3.914-9.203 3.913-7.675 3.265-4.983 2.119"/>
   <path d="m482.06 790.94v10 10 10 10 10 10 10 10 10 9.123 10 10 10 5.979 10 10 9.017 10 10 8.975h10 10 10 10 10 10 10 10 10 10 6.647 10 7.57 10 3.619 10 10 7.636 6.82 10 10 0.803"/>
   <path d="m675.15 892.35v-6.667-0.525-4.473-10-10-10-10-10-10-10-10-9.747h-10-10-6.775-2.179-7.18-10-10-8.902-10.054-10-10-10-2.954-10-10-10-10-0.764"/>
   <path d="m441.79 926.04v10 1.595 10 7.422 10 6.144 10 10 9.955h4.983 10 10 10 10 10 4.154 10 10 10 10 10 8.634 10 10 7.663 1.478 10 7.57 10 3.619 10 4.372 10 3.264 1.047l14.179-9.137 8.406-5.416 3.991-2.571v-5.747-10-2.397-10-5.527-1.901-10-1.956-1.93-3.946-10-1.81-10-4.809-4.781-2.994-2.413"/>
   <path d="m634.26 1077.8-0.097 0.079-7.784 6.278-14.275 11.513-5.835 4.707"/>
   <path d="m653.85 893.82h-5.273-0.199-2.179-7.18-4.753v10 10 10 10 0.753 10 3.886 10 10 10 10 10 2.696 10 10 10 10 10 10 1.702 8.197 6.758h10 3.264 6.82 10 10 10 4.342 1.712 10 10 10 10 10 10.1 4.688 7.579 10 10 10 3.428 0.685 10 10 1.375"/>
   <path d="m654.35 1100.4h10 10 3.844 6.618 3.88 1.712 10 10 7.618 4.764 0.977 10 0.679 10 6.062 4.688 7.579 10 7.886 10 5.542 0.685 5.772l5.685-8.227 0.673-0.973 5.685-8.226 3.506-5.072 0.054-0.079v-10-4.955-10-5.736-10-7.385-4.608-10-1.184-1.191-6.335-0.085-5.306-10.006-8.672-3.793-0.272-10-2.943-4.591-0.619-9.771-1.901-2.366"/>
   <path d="m415.4 1099.3-8.716 4.902-8.716 4.901-8.717 4.902-8.716 4.901-5.224 2.937"/>
   <path d="m415.4 926.04v10 10 9.017 10 10 10 10 10 10 10 10 10 10 10 10 10 10 4.287h10 10 0.825 10 0.551 10 10 10 10 10 10 10 10 10 10 10.508 10 10 10 1.421"/>
   <path d="m582.72 1104 4.507-3.486 1.478-1.144v-8.154-10-10.135-2.101-10-10-10-10-10-10-7.798-10-7.124-10-3.561"/>
   <path d="m680.1 345.62v10 10 10 5.221 6.317 4.234 10 3.376 10 10 10 1.069 8.383 7.538 10 2.118 6.464 10 7.836 10 9.492 10 5.964 10 9.174 10 10 10 10 7.148 1.818 5.866l0.904 0.354 18.623 7.294 4.848 1.898 0.113 0.044 10.008 3.92h10 10 10 10 8.857 10 10 3.645 2.715 10 10 0.616"/>
   <path d="m680.1 297.66 6.394 7.689 6.393 7.689 19.182 23.067 1.183 1.423 1.344 1.617"/>
   <path d="m872.5 611.15h10 5.52 10 10 6.256 10 2.206 10 10 10 10 10 10.122v-10-10-10-10-10-10-10-10-10-10-10-10.285-10-5.02-9.413-10-6.937-10-10-10-10-10-2.4-10-10-10-3.093-10-10-4.855h-10-10-10-10-9.795-10-0.355-10-10-10-10-10-7.974-10-10-10-10-10-10-7.34-10-10-10-10-10-10-10-9.865-6.675v6.475 10 10 6.763 10 10 10 2.385 10 10 10 10 10 10 10 10 7.419 10 5.481 10 10 10 5.138 10 10 10 10 10 10 8.342"/>
   <path d="m980.08 597.64 6.521 13.51"/>
   <path d="m648.01 345.62h-3.328-10-10-10-1.721-10-10-10-5.366-6.597-10-10-10-2.614-10-10-10-5.333v10 9.871 10 10 5.901 10 3.376 10 10 0.365 10 4.111 10 2.514 5.617 5.226 1.275 10 3.613 10 10 9.425 10 5.889 1.783 10 6.5 10 10 10 9.567 10 1.119 10 10 10 7.894l9.794 2.02 5.328 1.1 3.327 0.686 9.793 2.02 9.794 2.021 9.794 2.02 0.709 0.146h5.894 10 10 10 6.945 10 10 10 10 10 10 10 9.499 7.075 10 10 3.471 0.113 10 10 10 10 10 8.865"/>
   <path d="m503.05 345.62 24.282 17.619 3.103 2.252 7.948 5.767 8.093 5.873 5.113 3.71"/>
   <path d="m810.43 380.84h-9.293-10-10-10-10-10-10-10-9.865-8.019-10-10-10-3.152-1.687-2.044-2.845-10-10-10-10-10-10-10-10-10-10-2.525-10-9.408v10 10 3.927 10 10 10 4.476 10 2.514 10 10 5.731 10 7.252 10 2.173 10 10 10 4.172 10 10 10 10 10 0.686 10 10 10 10 7.907"/>
   <path d="m810.43 597.64v-10-10-10-10-10-4.832-10-9.174-10-5.98-10-6.469-0.32-10-10-4.433-10-10-10-10-10-10-10-10-5.589l-5.522-8.337-0.081-0.121-3.69-5.571-5.522-8.337-5.523-8.337-2.993-4.518"/>
   <path d="m379.93 506.91v10 5.889l14.939 4.899 9.502 3.115 9.503 3.116 2.21 0.724 9.502 3.116 10.106 3.313h6.693 10 10 5.188 0.386 10 3.906 2.265 10 8.924 10 5.122 3.327 10 10 10.09 5.894 10 10 10 6.945 10 4.769 3.763 10 10 10 10 4.583 10 6.384 4.484v-10-7.454-10-5.964-10-9.492-10-7.836-6.464-10-2.118-8.899-7.022-10-10-10-1.069-10-3.376-5.855-4.696-10-10-10-5.221"/>
   <path d="m379.93 258.05 8.103 5.859 32.416 23.436 6.194 4.479 8.104 5.859 0.945 0.683"/>
   <path d="m678.41 298.36h-2.044-0.509-10-10-10-10-10-10-10-10-10-10-4.861-10-10-10-2.614-10-10-10-10-10-10-10-10-10-10-2.695v10 10 10 10 10 10 10 10 10 10 10 10 10 10.88 10 10 2.27 10 10 10 10 5.4 10 10 10 4.172"/>
   <path d="m644.68 522.8 8.791 4.766 8.792 4.765 16.147 8.752"/>
   <path d="m644.68 365.49v10 10 10 9.277 10 10 10 4.476 10 2.514 10 10 5.731 10 10 10.179 10 5.135h-10-10-10-10-10-3.98-10-9.704-10-10-10-10-10-10-7.947-10-10-1.189-10-3.906-10-10-5.574-10-10-6.301-10-10-10-6.154"/>
   <path d="m416.08 506.91v10 5.889 1.783 10.071 10 10 10 10 10 10 10 10 10 10 10 10 10 10 10 10 2.435l9.974 0.714 9.975 0.715 9.974 0.714 9.974 0.715 9.975 0.714 1.617 0.116h7.492 10 10 10 10 6.438 4.842 10 10 10 1.142 9.622 10 10 7.323"/>
   <path d="m416.08 439.24 9.021 4.315 1.538 0.737 9.021 4.315 6.721 3.215 9.021 4.316 9.021 4.315 7.146 3.419"/>
   <path d="m704.48 463.88h-8.091-10-1.876-4.408-1.687-2.044-10-10-10-10-10-10-10-10-10-10-5.37-10-10-10-2.614-10-10-10-5.333-10-10-1.189-10-3.906-0.386v10 2.22 10 10 10 0.818 10 10 10 4.172 10 10 10 10 6.276 10 10 10 10 10 10 10 10 10 10 10 3.418"/>
   <path d="m673.93 439.24h-10-6.384-9.534-3.328-10-10-10-1.721-10-10-10-5.366-6.597-10-9.408-10-3.206-10-6.884-10-8.449-10-8.924-10-3.512-2.659-10-10-5.574"/>
   <path d="m375.64 743.37-50 0.065-4.687 6e-3"/>
   <path d="m320.96 506.91 19.031 6.15 19.031 6.15 9.515 3.075 7.11 2.297"/>
   <path d="m594.43 524.59h-10-10-1.342-10-10-10-10-10-10-10.036-10-10-1.189-10-3.906-10-10-5.574-10-10-6.301-10-10-10-0.717-9.722v10 10 10 10 10 10 10 10 10 10 10 10 10 10 10 10 10 10 10 10 10 8.787h10 10 10 10 10 10 10 10 10 10 10 10 10 10 10.7 10 10 10 10 10 10 8.087"/>
   <path d="m594.43 700.26v-3.172-10-10-10-10.339-3.119-2.735-4.767-6.453-10.013-10-10-10-7.894-10-1.119-10-10-10-9.567-6.748-9.752l-1.995-0.954-1.732-0.829-18.042-8.63-15.176-7.259h-5.894-10-10-10.09-3.327-10-5.122-10-8.924-2.265-10-3.906-0.386-10-10-5.188"/>
   <path d="m557.49 506.91v10 10 10 4.172 10 10 10 10 10 0.686 10 10 10 10 7.907 6.453 10 0.621"/>
   <path d="m442.38 580.65 19.326 5.148 5.862 1.561 0.386 0.103 9.663 2.574 4.243 1.13 2.265 0.603h10 8.924 10 5.122 3.327 10 10 10.09 5.894 10 10 10 6.945 10 10 10 10 10 10 10 9.499 6.171 0.904 3.504v-10-10-10-10-8.966-10-9.174-10-5.964-10-9.492-10-7.836-6.464-9.358-6.744"/>
   <path d="m442.38 365.49 8.498 5.272 8.497 5.272 8.497 5.273 16.253 10.084"/>
   <path d="m684.51 391.39h-4.408-1.687-2.044-10-10-10-10-10-10-10-10-10-10-5.37-10-10-10-2.614-10-10-10-5.333-10-8.924v10 3.376 10 10 10 4.476 10 2.514 10 10 5.731 10 10 9.425 10 10 10 4.172 10 10 10 10 10 0.686"/>
   <path d="m657.55 580.65 9.245 3.812 9.245 3.813 4.065 1.676 4.408 1.818"/>
   <path d="m657.55 451.76v10 10 5.731 10 10 10.179 10 10 10 3.418 1.72 10 10 10 7.847h-10-10-10-10-10-10-3.115-10-10-10-10-10-10-10-10-10-1.378-10-10-1.189"/>
   <path d="m481.86 451.76 8.902 4.555 8.902 4.556 3.385 1.732 8.903 4.556 6.219 3.183"/>
   <path d="m704.59 470.34h-0.113-10-9.967-4.408-1.687-2.044-10-10-10-10-10-10-10-10-10-10-5.37-10-10-10-2.614-10-10-0.211v7.149 10 10 9.425 10 10 10 4.172 10 10 10 10 10 0.686 10 10 10 10 1.014 10 10 3.967h3.327 4.842 10 10 10 1.142 9.622 10 10 7.323 10 10 10 10 10 10 10 9.499"/>
   <path d="m654.03 243.58h-6.016-10-10-10-10-10-10-10-7.012v2.496 10 1.967 10 3.687 5.992 10 10 0.637 10 10 10 10 7.256 10 9.871 10 5.35 10 0.551 10 3.376 10 10 10 1.069 3.407 10 2.514 5.617 6.501 6.464 7.149 10 0.687 10 6.213 8.989 9.425 0.829l2.089 0.954 9.095 4.156 9.096 4.156 12.246 5.596 5.674 2.592 3.763 1.72h10 10 10 10 4.583 10 6.384 6.171 0.904 3.504 10 9.967 0.113 10.008 10 10 10 10 8.857 10 10 3.645 2.715 10 10 0.616 10 10 10 10 10 8.047v-10-10-10-5.154-10-6.469-0.32-10-10-4.433-10-10-10-10-10-10-10-10-10-4.047-10-10-10-1.876-1.362-10-1.543-10-1.081-10-3.716-5.145-10-0.368l-0.257-0.643-3.704-9.288-7.408-18.578-3.704-9.288-2.357-5.91h-10-10-10-10-10-10-10-10-10-10.681-10-10-0.22-8.874-10-0.243"/>
   <path d="m571 243.58 2.397 2.496 6.926 7.214 4.563 4.753 6.926 7.214 6.926 7.213 6.925 7.214 6.926 7.214 0.374 0.389"/>
   <path d="m868.48 287.29h-10-10-10-10-10-10-7.34-10-10-10-10-10-10-10-9.865-8.019-2.224-10-10-10-4.659-0.509-6.711-10-10-10-10-10-6.187v10 10 10 10 10 8.328 10 9.871 10 10 10 9.277 10 10 10 4.476 10 2.514 10 10 5.731 10 10 10.179 10 10 10 3.418 1.72"/>
   <path d="m851.05 243.58v10 10 10 10 3.064 10 1.011 10 10 9.942 10 10 10 10 4.781 10 10 10 10 10 10 10 10 10 10 10 8.48 10 6.789 10 5.98"/>
   <path d="m571 523.63h10 10 1.436 10 10 10 10 10 10 10 10 5.978 1.687 4.408 10 9.967 0.113 10 10 10 10 10 10 10 10 5.225 10 10 0.616 10 10 10 10 0.617l6.727 7.4 6.726 7.399 3.977 4.375"/>
   <path d="m675.86 243.58v2.496 10 10 5.013 0.641 10 2.393 3.164 8.021 3.051 10 10 10 10 2.143l0.509 0.547 2.044 2.196 1.687 1.813 0.519 0.557 13.626 14.64 6.813 7.321 4.469 4.802h7.725 1.344 6.675 10 4.048 10 5.046 10 10 10.114 6.619 10 4.038 3.69 10 10 10 10 6.22 10 7.43 4.02 3.931 10 10 10 10 1.359 8.664 10 0.355v-8.383-10-10-4.855-10-10-10-10-1.485-10-10-10-10-10-10-4.938-10-10-10-10-9.499"/>
   <path d="m765.2 89.311h-10-8.872-10-10-10-10-10-10-10.468v10 10 10 10 10 10 10 10 10 10 3.953 10 10 10 4.131"/>
   <path d="m675.86 89.311 4.97 8.677 4.971 8.677 4.97 8.678 14.756 25.762"/>
   <path d="m936.81 141.1h-10-10-10-10-8.074-10-10-10-10-10-10-10-10-10-10-10-10-3.531-10-10-10-10-10-4.172-5.501v10 10 10 10 10 10 10 10 6.29 10 6.19 2.496 10 10 10 10 10 1.579 10 10 10 10 7.96 10 10 6.763"/>
   <path d="m927.06 340.51 2.925 9.563 2.925 9.562 1.335 4.368 2.564 8.383"/>
   <path d="m927.06 183.22v10 10 10 10 10 10 10 10 10 10 10 4.437 10 10 10 10 2.847h-0.606-10-10-10-10-10-7.974-10-10-10-10-10-10-7.34-10-10-10-10-10-10-10-9.865-8.019-10-10-10-3.152-1.687-2.044-0.509"/>
   <path d="m656.01 246.08h-7.997-10-10-10-10-10-10-10-4.615-2.397-10-10-10-2.614v10 1.967 10 3.687 10 10 6.629 10 10 10 10 7.256 10 9.871 5.767 10 10.134 10 3.376 10 10 10 1.069 3.407 10 2.514 5.617 6.501 6.464 7.149 10 0.687l8.954 4.451 4.252 2.114 8.955 4.451 8.954 4.451 1.499 0.746 6.597 3.279h10 10 10 5.366 10 10 10 1.721 10 2.862 10 6.384 4.484 1.687 0.904 3.504 10 9.967 0.113 10.008 10 10 10 10 8.857 10 10 3.645 2.715 10 1.323v-0.016-10-6.469-0.32-10-10-4.433-10-10-10-10-10-10-10-10-5.589-8.458-5.571-10-10-6.305-1.362-10-1.543-10-1.081-10-3.716-5.145-10-0.368-0.643-2.521l-4.771-8.788-4.772-8.789-4.771-8.788-4.772-8.788-1.571-2.894h-10-10-10.114-10-10-0.22-8.874-10-0.243"/>
   <path d="m538.39 246.08 39.211 38.047"/>
   <path d="m801.14 284.13h-10-10-10-10-10-10-10-9.865-10-0.243-10-10-10-4.659-0.509-9.358-10-10-10-10-10-10-10-10-8.906v10 10 10 10 10 10 1.492 10 9.871 10 10 10 9.277 10 10 10 4.476 10 2.514 10 10 5.731 10 10 10.179"/>
   <path d="m780.48 246.08v10 10 10 10 0.568 10 1.011 10 10 9.942 10 8.018 10 10 6.763 10 10 10 10 10 2.453 10 10 10 10 10 10 3.34"/>
   <path d="m538.39 488.18h10 10 10 2.614 10 10 10 10 10 10 10 10 10 10 7.414 1.687 4.408 10 9.967 0.113 8.664 10 10 10 3.913 10 10 10 3.314l2.849 2.687 6.485 6.12 7.273 6.863 4.034 3.806 0.016 0.016"/>
   <path d="m426.64 258.05v10 10 10 3.774 10 10 10 10 10 10 10 10 10 10 10 10 10 10 7.422 5.052 10 3.079l9.049 4.139 6.693 3.062 9.094 4.159 9.094 4.16 7 3.201 0.386 0.177 2.659 1.216h10 1.247 2.265 10 8.924 10 5.122 3.327 10 6.884 10 3.206 10 9.408 6.597 10 10 10 5.366 10 10 10 1.721 10 2.862 10 6.384 2.44v-7.149-6.464-10-2.118-10-0.547-5.374-10-10-10-1.069-10-3.376-7.818-2.733-10-10-10-5.221-4.566-0.547-10-10-10-10-2.143-2.443-8.629-3.164-10-2.393l-0.509-0.641-6.217-7.833-12.433-15.665-1.202-1.515"/>
   <path d="m426.64 236 15.522 12.612 7.762 6.306 3.845 3.125 15.522 12.612 1.324 1.075"/>
   <path d="m676.37 271.74h-0.509-10-9.726-10-10-10-10-10-10-10-10-5.135-10-10-10-2.614-10-10-10-10-10-10-7.769v10 10 10 10 10 10 10 10 10 3.756 10 10 10 9.277 10 10 10 4.476 10 10 10 8.245"/>
   <path d="m648.01 457.38 16.313 11.571 8.157 5.785 3.888 2.758"/>
   <path d="m648.01 262.03v10 10 10 10 10 10 10 10 3.593 10 9.871 10 10 10 9.277 10 10 10 4.476 10 2.514 5.617h-10-10-10-10-10-10-10-7.012-10-10-10-2.614-10-10-10-5.333-10-10-1.189-10-3.906-10-10-5.574-10-5.742"/>
   <path d="m713.25 345.62v10 10 6.763 8.458 10 10 3.927 10 10 10 1.069 10 10 10 10 10 2.339 3.007l1.344 1.004 8.015 5.981 12.708 9.484h10 10 8.134 10 10 3.645 2.715 10 1.307 0.016 9.293 10 10 10 10 0.617 10 7.43 4.02 10 5.52 10 10 6.256 10 2.178v-10-6.789-10-5.079-9.354-10-6.937-10-10-10-10-10-2.4-10-10-4.71-8.383-10-10-3.493-1.362-10-10-2.624l-2.786-9.604-2.685-9.257"/>
   <path d="m894.63 286.65h-9.285-10-7.128-10-7.173-10-10-10-10-9.91-10-10-0.657-10-10-10.114-10-10-0.22-8.874-8.019v0.643 10 0.368 5.145 2.884"/>
   <path d="m713.25 286.65 5.942 8.044 2.077 2.811 0.115 0.156 5.941 8.043 5.942 8.043 2.05 2.775"/>
   <path d="m926.45 316.52h-10-10-10-1.818-10-10-6.156-10-10-10-10-10-10-7.34-10-10-10-10-10-10-5.817v10 1.081 10 8.018 10 10 6.763 10 10 10 2.385 10 10 10 10 10 10 10 3.46 10 10 9.424"/>
   <path d="m553.07-0 5.562 8.31 5.562 8.311 5.562 8.31 5.562 8.311 5.562 8.31 3.071 4.59"/>
   <path d="m765.2 46.142h-10-10-10-10-10-10-10-10-10-10-10-10-10-10-10-10-10-11.254v10 10 10 10 10 10 10 10 10 10 10 10 10 10 10 10 10 11.253"/>
   <path d="m746.33 193.26 9.678 17.502 4.838 8.752 4.356 7.877"/>
   <path d="m711.03 227.4h10 0.243 8.874 10 7.089 10 7.966v-10-10-10-10-4.172-10-10.109-10-10-2.009-10-2.618"/>
   <path d="m746.33 128.49v10 10 10 10 10 4.736 10.041h-10-10-5.057-10-0.243"/>
   <path d="m711.03 128.49 4.833 8.754 4.833 8.755 4.834 8.754 4.617 8.364"/>
   <path d="m894.63 163.11h-10-10-10-10-10-10-10-10-10-10-10-10-9.432-10-10-10-5.055v10 10.109 10 10 10 10 4.172 10 6.19 2.496 10 10 10 10 0.568 10 1.011 10 10 9.942h5.174 10 5.046 10 10 10.114 10 10 0.657 10 10 10 10 9.91 10 7.43 10 10 6.156v-10-1.081-10-8.861-10-1.011"/>
   <path d="m820.25 1258.1-4.07 9.135-1.671 3.751-4.071 9.134-2.836 6.364-0.415 0.932-4.07 9.134-4.07 9.135-2.16 4.847"/>
   <path d="m1093.3 1012.8-1.582-9.874-1.581-9.874-0.659-4.116h-9.288-1.337-10-10-10-10-6.246-1.645-10-10-10-10-5.513-6.389-10-10-10-10-10-10-1.453-8.227-2.076-6.879-2.776-9.561-10-10-10-10-10-4.494-10-3.334l-1.988 2.132-5.639 6.048-3.691 3.958-5.027 5.391-1.246 1.337-5.772 6.189v10 1.184 4.608 10 7.385 10 5.736 10 4.955 0.079 10 3.298 9.2 6.35 1.592 10 0.246 10 8.202 10 1.625 10 10 10 6.283 10 3.343 10 10 3.541 1.829 3.508 10 4.19 2.089 10 10 0.48 7.325 10 4.032 1.466 0.932 10 2.428 10 0.688h10 8.353 10 4.94 10 10 5.913 10 6.135 2.4 8.988 4.08 8.146 10.065 10 0.164 10 10 10 10 10 10 10 10 10 10 10 10 10 10 10 10 10 7.409v-10-2.06-10-10-10-10-4.261-10-10-10-10-10-10-10-10.668-10-10-10-2.12-10-10-10-10-10-10-10-10-10-5.225-10-10-4.177"/>
   <path d="m820.25 988.89v10 7.529 6.335 10 10 10 4.368 10 5.736 10 5.034 10 10 10 10 0.686 10 8.202 10 10 10 10 10 10 10 10 4.792 5.337 10 4.19 10 7.008h10 4.066 10 10 10 7.912 2.4 10 10 1.214 10 10 0.229 10 10 10 5.886 10 10 8.823 10 10 10 1.503 10 10 10 10 10 10 9.383 7.802"/>
   <path d="m796.88 1013.9h10 10 1.375 10 10 10 10 10 10 10 10 2.153 8.955 8.227 10 10 10 7.197 10 10 10 0.645 10 10 10 10 7.158"/>
   <path d="m1093.5 1310.5-0.763-9.971-0.16-2.089-3.052-39.884-0.037-0.488v-10-10-10-10-10-10-10-10-10-10-10-6.677-10-10-10-10-10-10-10-10-10-10-10-9.402-9.274-10-10-3.864"/>
   <path d="m722.78 1223.4-2.386 3.508-5.626 8.268-5.625 8.267-5.626 8.268-5.625 8.267-2.187 3.215-5.307 7.799"/>
   <path d="m690.4 1255.3v7.844 0.474 7.325h9.182 10 0.76 10 0.15 10 10 10.008 10 10 10 5.726 3.893 6.076 0.685 6.546 10 1.076 0.731 10 9.076 10 10 1.777 10 6.135 2.4 8.988 4.08 8.146 10.065 10 0.164 10 10 10 0.311 3.124 10 10 9.544l1.33-9.911 0.4-2.975 1.33-9.911 0.953-7.097 0.417-3.103 1.331-9.911 0.628-4.684v-10-10-5.37-10-10-4.481-10-10-10-2.12-10-10-10-10-10-10-10-10-10-10-10-10-7.485-1.191-10-1.726-10-2.138-0.151-10-0.759-10-2.638-4.591h-10-10-10-10-10-10-7.842-8.227-0.4-1.676-6.879-10-2.337-10-10-10-10-10-4.361-10-5.455-5.639-9.964-10-10-1.999-10-7.886-1.506-10-10-6.823-10-1.656l-15.768 10.518-8.319 5.548-2.201 1.468-6.094 4.065v10 10 10 10 6.026 1.361 9.082 8.303 10 5.736 8.197 6.758 0.079 10 3.298 9.2 3.584 2.766 1.592 10 0.246 10 8.202 10 0.219 1.406 10 10 10 6.283 2.206 10 10 10 4.678"/>
   <path d="m722.78 960.75v10 10 10 10 5.668 10 10 10 10 0.703 10 5.736 8.197 6.837 10 10 2.498 10 8.188 10 8.202 10 10 10 10 10.114 10 10 10 4.678 1.829h10 10 7.718 4.688 10 10 10 10 1.007 0.685 10 10 10 7.429 10 10 10 7.912 2.4 10 10 1.214 10 10 10 10 10 8.952 10 10 10 0.645"/>
   <path d="m690.4 982.35h10 10 10 10 10 10 4.788 7.579 10 10 10 10 9.849 1.916 3.723 10 10 10 10 10 10 10 10 2.153 8.955 8.227 10 10 10 10 10 10 1.453"/>
   <path d="m979.05 1271v-10-10-9.894-10-10-10-10-10-10-10-10-10-9.669-10-10-10-10-10-10-10-10-10-10-10-10-8.676-10-10-3.864-6.54l1.292-4.37 2.837-9.589 2.26-7.64"/>
   <path d="m780.66 1198-5.09 8.608-5.089 8.608-3.74 6.325-3.156 5.337-5.089 8.608-3.301 5.582"/>
   <path d="m907.29 946.09h-6.879-10-2.337-9.556-1.992-10-10-10-10-2.813-10-5.455-5.639-9.964-10-10-1.999l-3.13 2.366-2.516 1.901-7.977 6.03-4.263 3.222-0.687 0.519"/>
   <path d="m780.66 946.09v2.366 1.901 9.771 0.619 10 10 10 10 5.668 10 10 10 10 0.703 10 5.736 10 5.034 10 10 2.498 10 8.188 10 8.202 10 10 10 10 10 10 1.251h10 5.542 0.685 10 10 10 7.429 10 10 10 7.912 2.4 10 10 1.214 9.284 10 10 10 10 9.668 10 10 10 0.645 10 10 6.844 10 10 0.314"/>
   <path d="m874.62 1241.1h8.988 4.08 8.146 10 6.305 3.924 10 10 10 0.311 8.412 10 10 4.256 4.013 10 10 9.22 3.003 10 5.666l0.118-3.103 0.764-19.986 0.382-9.992 0.381-9.987v-10-10-4.481-10-10-10-2.12-10-10-10-10-10-10-10-10-10-5.225-10-10-4.177"/>
   <path d="m1015.3 1254.2-2.031 29.931-0.158 2.342-0.677 9.977-0.137 2.011"/>
   <path d="m1032.6 1022h-1.645-10-5.666l-1.232 9.923-1.233 9.924-0.538 4.33"/>
   <path d="m1015.3 1022v10 10 10 10 10 10 10 10 10 10 10 9.402 10 10 10 10 10 10 10 10 10 9.669 10 3.119h10 10 10 10 10 10 6.38 10 1.814 10 5.985 10 1.358 10 10 10 10 10 10 10 10 4.348 10 10 10 10 2.306"/>
   <path d="m1264.6 1298.5-3.6-9.33-3.601-9.329-3.6-9.33-3.6-9.329-2.679-6.943v-10-10-10-10-10-10-10-10-10-10-10-10-10-10-10-10-10-3.224-10-10-10-10-10-8.966"/>
   <path d="m1012.3 1173.5v10 10 4.481 10 10 10 9.965 3.103 10 7.008 10 10 8.384 10 1.988h10 10 10 10 10 10 10 10.274 0.923 10 1.554 4.431"/>
   <path d="m887.69 1358.8-2.547 9.67-2.546 9.67-0.426 1.617-5.094 19.34-2.455 9.322"/>
   <path d="m1109.5 1173.5-1.366-9.906-1.367-9.907-1.366-9.906-0.332-2.401h-10-1.554-4.012-7.802-2.823-10-10-10-10-6.246-1.645-10-5.666-3.003-10-10-6.844-6.389-10-10-4.256-8.412-10-10-10-7.012-10-1.731-1.797-8.146l-3.768 9.263-0.312 0.766"/>
   <path d="m887.69 1141.4v10 10 10 10 10 10 10 10.142 5.337 10 4.19 10 10 9.894 10 5.498 0.932 10 10 3.116 10 10 10 10 8.229h1.392 10 10 6.983 10 10 10 10 10 10 10 10 10 10 10 10 10 10 10 10 10 10 8.963"/>
   <path d="m1109.5 1408.4-0.889-9.96-0.89-9.961-1.778-19.92-0.874-9.778v-10-10-10-10-10-10.289-10-10-10-10-10-10-10-10-10-10-10-10-10-10-10-7.049"/>
   <path d="m813.33 909.92-0.714 0.505-16.328 11.55-5.419 3.833"/>
   <path d="m790.87 649 9.407 3.394 9.406 3.394 3.648 1.316"/>
   <path d="m1066.1 657.11h-10-10-10-10-10-10-10-10-10-10-10-10-10-10-10-1.868-10-10-10-10-10-10-10-10-10-10.94v8.207 6.681 1.951 10 10 10 10 10 4.349 10 10 10 10 10 10 10 10 6.257 10 10 10 10 10 10 9.969 9.299 10 6.095h4.925 10 10 10 10 10 10 7.188 6.099 8.866 10 1.201 5.981 10 10 6.209 10 10 10 10 10 10 10 10 10 10 10 10 2.339"/>
   <path d="m790.87 652.49v1.141 10 1.68 6.681 0.19 1.761 4.153 1.471 10 10 10 10 10 10 10 10 10 10 10 10 10 4.982 5.607 10 10 10 10 10 10.525 1.775 2.062 9.299 2.413 7.775 10 4.809 6.986h10 1.783 9.964 5.639 10 5.455 10 10 10 7.029 5.784 2.4 9.148 3.471 8.866 6.879 4.322 5.981 3.684 10 2.147 10 0.378 10 10 10 10 10 10 10 10 10 10 10 10 3.871v-2.132-10-10-10-10-10-10-10-10-10-10-10-10-10-10-10-10-10-10-5.538-0.432-8.144-1.262-10-10-10-9.874-4.744-10-10-10-1.571-3.103h-10-10-10-10-10-10-10-10-10-10-10-10-10-11.194-10-2.206"/>
   <path d="m1067.7 649-0.587 3.103-0.945 5.001v10 10 6.57 10 10 10 10 4.618 9.838 10 10 10 10 10 10 10 10 10 10 10 10 10 10 10 10 10 1.782l0.96 9.954 0.572 5.934"/>
   <path d="m922.77 923.67-1.497 2.132-3.684 5.246-5.747 8.184-0.234 0.333"/>
   <path d="m1167.5 737.7v-10-10-10-10-10-4.024h-10-10-10-10-10-10-10-10-10-9.828-1.532-10-10-10-10-10-10-10-10-10-10-10-10-2.339-10-0.378-6.945-10-2.206-2.661v10 10 10 10 4.618 1.262 10 10 10 10 10 10 10 10 4.995 3.255 10 10 10 10 10 10 10 10 10 2.108 10 5.888 6.052 7.711h5.981 10 5.831 6.054 10 10 10 10 10 10 10 10 10 10 10 10 10 10 10 3.416 4.183"/>
   <path d="m911.61 683.68 11.162 4.744"/>
   <path d="m1158 688.42h-10-10-10-10-10-10-10-10-10.351-10-10-10-10-10-10-10-10-10-10-10-10-3.871-10-10-1.028v10 10 10 9.874 9.707 10 10 10 10 10 10 10 10 10 10 10 10 10 10 10 10 10 10 5.669h10 10 1.028 10 10 10 10 10 10 10 10 10 10 10 10 3.871 10 10 9.404 10 10 10 10 10 10 0.947"/>
   <path d="m1167.5 683.68-8.942 4.477-0.535 0.267v10 10 10 10 9.712 10 10 10 10 10 10 10 10 10 10 10 10 10 10 10 10 10 10 5.538l5.121 8.589 4.356 7.306"/>
   <path d="m914.27 737.7 12.206 0.432h6.945 10 0.378 10 10 10 10 10 10 10 10 10 10 10 10 2.339 1.532 10 10 5.221 4.183 10 10 10 10 10 10 0.947 9.477"/>
   <path d="m980.08 449.49h-10-10-10-10-10-3.629-8.664-3.514v10 6.937 10 10 4.433 0.32 10 6.469 10 10 10 10 10 10 10 10 9.986"/>
   <path d="m914.27 449.49 8.406 18.148 3.772 8.143 0.028 0.059"/>
   <path d="m1188.8 475.84h-10-10-10-6.825-10-10-8.522-10-10-10-10-10-10-10-10-10-10-10-4.914-10-10-1.906-10-10-10-10-10-10.122v10 5.02 10 10 10 10 10 10 10 10 10 10 10 10.285 10 10 10 7.855 3.103 10 3.208 10 8.363 10 10 10 10 4.618 9.838"/>
   <path d="m1202.5 589.08v-10-10-10-10-10-10-10-10-10-10-10-10-10-9.587h-10-10-10-10-10-0.538-8.913-10-2.353"/>
   <path d="m1202.5 449.49-4.617 8.871-4.616 8.871-4.48 8.608v10 10 10 10 10 10 10 10 10 10 10 10 7.034 10 10 10 10 10 10 10 10 10 10 10 9.26 10 5.996"/>
   <path d="m1177.5 738.13h10 1.311l1.297-0.041 9.995-0.315 2.421-0.076v-10-3.904-1.85"/>
   <path d="m1202.5 737.7h-10-10-5.024"/>
   <path d="m894.63 183.22h-9.285-10-10-10-10-10-10-10-10-10-10-10-10.147-10-8.872-10-6.183-8.874v10.041 10 10 10 4.131 10 6.19 2.496 10 10 10 8.047 2.521 0.643 10 0.212 0.156 5.145 10 3.286 10 10 3.054 1.362 5.113 10 10 6.763 8.458 10 10 3.927 10 10 10 1.069 10 10 10 0.593l7.657 6.431 14.049 11.798 4.188 3.517 3.2 2.687h10 3.088 10 9.875 3.77 2.715 10 1.323 9.293 10 10 10 10 0.617 10 7.43 4.02 10 5.52 10 10 6.256 3.514 8.664 0.028 10 10 10 10 10 3.601 6.521 10 10 1.906v-10-5.02-10-10-6.35-10-10-10-10-10-2.4-10-10-10-3.093"/>
   <path d="m721.27 183.22 15.201 25.863 5.068 8.621 5.067 8.621 0.627 1.067 3.131 5.327"/>
   <path d="m1008.5 232.72h-10-10-10-10-10-10-10-1.701-10-10-10-10-2.173-10-10-10-10-10-10-10-10-10-10-10-10-10-10-4.267v10 0.863 2.496 10 10 10 10 0.568 10 1.011 10 10 9.942 10 8.018 10 10 6.763 10 10 10 2.385 10 10 10 10 10 10 10 10 6.095"/>
   <path d="m1004.5 466.43 1.627 9.866 2.402 14.567"/>
   <path d="m1004.5 449.49v10 6.937h-10-7.877-10-10-10-10-10-10.15-10-2.178-10-10-10-10-1.776-4.02-10-10-10-10-10-8.047-9.293-10-1.323-10-10-10-10-10-10-8.542"/>
   <path d="m1205.2 1022v10 10 4.177 10 10 10 4.789 10 10 10 3.732 10 10 10 10 10 10 10 10 10 10 10 10 10 9.492 10 10 10 0.964l2.749 9.615 1.053 3.682 2.749 9.614 5.498 19.23 2.749 9.614 0.693 2.424"/>
   <path d="m1220.7 1048.2-4.875-8.731-4.874-8.732-4.848-8.683"/>
   <path d="m1220.7 1298.5v-10-10-10-10-10-10-10-10-10-10-10-10-10-10-10-10-10-10-10-10-10-7.485-10-10-10-2.82h10 10 10 10 3.895"/>
   <path d="m1511.8 1339.4-18.36-23.727-18.359-23.726-5.204-6.726"/>
   <path d="m1205.2 1285.2h10 10 10 10 10 9.386 10 10 10 10 10 10 10 10 10 10 10 10 10 10 10 3.984 10 10 10 10 10 1.385v-10-10-10-10-10-10-10-10-10-10-10-10-10-10-10-10-10-10-10-10-10-10-10-10-10-10-4.755"/>
   <path d="m1229.2 721.95v1.85 10 10 10 10 10 10 10 10 10 10 10 10 10 10 10 10 10 10 10 10 10 10 10 7.746l12.663 15.481 5.265 6.436"/>
   <path d="m1538.9 776.3v-1.826-10-10-2.858-0.832-10-10-10-10-10-9.159h-10-10.054-10-10-10-3.286-10-10-7.03-10-1.103-10-10-6.187-10-10-10-10-10-10-10-10-10-10-10-10-10-10-10-2.856"/>
   <path d="m1538.9 691.62-29.839 3.105-14.635 1.523"/>
   <path d="m1494.5 961.54v-10-10-10-10-1.8-10-10-10-10-10-10-10-10-10-10-10-10-10-10-3.444-10-10-4.684-10-10-10-10-10-5.363h-10-10-10-10-6.999-10-10-6.187-10-10-10-10-10-10-10-10-10-10-10-10-10-10-10-10-10-3.131-10-8.974"/>
   <path d="m1538.9 983.46-8.061-3.972-8.97-4.421-8.97-4.42-8.97-4.421-8.97-4.42-0.533-0.263h-10-5.883-10-10-10-10-10-10-10-10-10-10-10-10-10-10-10-10-10-10-10-10-10-10-10-10-9.408"/>
   <path d="m1123.4 602.88 4.655-8.851 2.601-4.946"/>
   <path d="m1418.9 300.86-6.411 7.675-6.41 7.675-12.822 15.35-6.41 7.675-1.121 1.342"/>
   <path d="m1385.7 602.88v-10-10-10-10-10-10-10-10-10-10-10-10-5.019-10-10-10-10-10-10-10-10-10-3.271-10-10-10-10-4.007h-10-10-10-10-10-10-10-10-10-10-10-10-10-10-4.082-10-10-10-10-10-10-10-10-10-10-10-8.216"/>
   <path d="m1248.2 602.88h10 10 0.275 10 10 10 10 10 10 10 10 10 10 10 7.288l27.699-11.52 5.475-2.277v-10-10-10-10-10-10-10-10-6.657-10-10-4.565"/>
   <path d="m1418.9 589.08h-10-10-10-10-10-10-10-10-10-10-10-10-10-10-10-10-10.737"/>
   <path d="m1123.4 364v10 10 10 3.093 10 10 10 10 10 2.4 10 10 6.35 10 10 10 10 10 10 10 10 10 10 10 10 7.034h10 9.609 8.913 10 10 10 6.825 10 3.713"/>
   <path d="m1241.6 384.59 4.721-8.816 9.44-17.632 4.474-8.355"/>
   <path d="m1418.9 349.78h-10-10-10-10-10-10-10-10-10-10-10-10-10-10-10-8.621v-10-10-10-10-8.921"/>
   <path d="m1543.9 66.173-11.794 16.152-5.898 8.076-11.794 16.152-5.898 8.076-5.897 8.076-2.487 3.405"/>
   <path d="m1500.1 384.59v-10-10-10-10-10-10-10-10-10-10-10-10-10-10-10-10-10-10-10-10-10-10-10-10-10-8.477h-10-10-10-10-10-10-10-10-10-10-10-10-10-10-10-10-10-10-10-10-10-10-10-10-10-8.477"/>
   <path d="m1241.6 300.86v10 10 10 9.717 10 10 10 10 4.007h10 10 10 10 10 10 10 10 10 10 10 10 10 10 4.082 10 10 10 3.174"/>
   <path d="m484.88 1336.7-20.676 21.738-6.891 7.246-2.66 2.796-6.891 7.246-13.784 14.492-5.72 6.015"/>
   <path d="m428.26 1104v10 7.913 10 10 10 1.682 7.374 5.756 10 10 6.025 10 10 10 5.476 10 1.432 10 10 10 10 10 10 10 10 10 10 9.449 10 9.374 10 10 7.753h10 5.283 10 10 10 10 10 10 10 10 10 10 10 10 10 10 10 5.055 3.851 10 10 1.04 0.778 10 10 10 10 10 10.302 10 10 5.775 10 0.15l4.501-8.93 3.807-7.553 3.366-6.679 4.502-8.929 4.501-8.93 3.046-6.044 4.501-8.93 1.784-3.538v-3.775-10-2.32-10-10-0.729-5.263-7.165-10-6.43-7.325-0.474-10-10.006-10-6.279-3.508-1.829-10-10-10-6.884-10-10-0.413-10-5.87-1.406-10-0.219-10-8.202-10-0.246-1.592-6.35-9.2-10-3.298-0.079-6.758h-10-6.062-10-1.656-4.764-10-10-7.618-1.712-3.88-6.618-10-10-3.844-6.82-10-3.264-10-4.372-10-3.619-8.955-8.615-1.478-1.49-10-10-6.173-10-10-10-10-10-8.634-10-6.046l-8.646 5.026-8.645 5.026-8.645 5.027-8.645 5.026-3.527 2.051-8.645 5.026-1.906 1.107-7.963 4.63"/>
   <path d="m484.88 1071.1v10 10 10 10 10 0.832 10 7.367 10 10 10 10 7.64 5.83 10 6.681 10 10 10 10 10 10 10 10 10 10 10 10 7.27h10 10 10 10 10 10 10 2.4 10 10 10 4.091 7.225 10 10 10 1.064 2.827 10 9.802 10 10 10 2.278 10 10 10 10 10 10 5.933"/>
   <path d="m428.26 1104h10 8.514 10 10 10 10 10 10 10 10 10 10 10.508 10 10 5.436 10 4.118 10 10 3.056 10 10 7.636 6.82 10 10 10 4.342 1.712 10 10 10.092"/>
   <path d="m720.5 1396.2v-10-6.483-6.679-10-10-3.903-10-10-10-10-10-10-1.72-10-6.43-7.799-10-10-10-6.285-5.337-10-10-10-4.678-10-10-10-10-10.114-10-8.202-10-4.604l3.267-3.584 6.737-7.39 6.736-7.391 6.737-7.39 0.299-0.327 6.232-6.837"/>
   <path d="m629.54 1320.6-26.657 36.65-4.279 5.883-3.886 5.342-3.339 4.591"/>
   <path d="m591.37 1108.3v10 10 10 0.922 7.745 10 3.944 5.756 10 10.195 1.794 10 10 0.717 10 10 10.227 10 10 10 10 10 10 7.538 10 10 0.787 8.718 10 2.468 10 9.312 4.591h7.225 3.851 10 10 1.818 5.395 10 10 2.629 4.168 10 10 8.11 10 10 5.775 10 0.15 10 1.674 10 10 10 10 2.284 10 5.669 10 10 10 10 10 10 5.967l2.939-9.558 2.94-9.558 2.939-9.558 2.94-9.559 0.588-1.913 2.939-9.558 0.85-2.762v-10.041-10-10-3.116-0.932-10-5.498-7.325-5.561-10-4.919-2.089-3.103-10-1.087-3.508-1.829-10-10-3.541-10-3.343-10-10-10-6.283-10-1.625-10-8.202-10-1.838-10-10-8.848h-10-10-10-7.912-10-0.122-3.944-1.422-0.62-10-5.549-5.772-0.685-10-5.542-10-7.886-7.579-4.688-6.232-9.83-10-1.656-4.764-10-10-7.618-1.712-3.88-6.618-10-10-3.844-6.82-10-3.361-4.633l-7.817 6.236-1.825 1.455-13.619 10.864-7.818 6.236-1.137 0.907-0.482 0.384-5.463 4.358"/>
   <path d="m629.54 1077.9v10 10 2.498 10 10 10 8.864 10 10 10 10 7.64 10 10 2.511 10 10 10 10 10 3.789 10 10 10 10 10 7.386h0.128 8.952 10 3.677 10 10 10 2.278 10 10 10 10 10 10 5.933 10 10 10 9.619 10 10 10 6.168 10 10 10 10 5.934"/>
   <path d="m591.37 1108.3h10 10 8.519 10 10 7.636 6.82 10 10 10 4.342 1.712 10 10 10 10 10 10.1 4.688 7.579 10 10 10 3.428 0.685 10 10 10 7.429 10 10 1.777"/>
   <path d="m856.09 1373v-10-10-10-10-10-10-2.507-10-10-3.116-0.932-10-5.498-10-10-9.894-10-4.19-5.337-10-10-10-10-10-10-10-10-4.792-10-8.202-10-0.246l4.683-8.836 4.684-8.835 4.683-8.836 2.085-3.933"/>
   <path d="m597.32 1299.8-5.945 7.319-6.304 7.762-6.305 7.762-6.304 7.763-6.305 7.762-6.304 7.762-2.569 3.162"/>
   <path d="m557.28 1091.2v8.154 4.63 10 7.913 10 7.367 7.745 10 3.944 5.756 10 10.195 5.83 10 6.681 10 10 10.227 10 10 10 10 10 10 10 10 8.325 8.718 10 2.468h10 10 10 4.091 7.225 3.851 6.31 1.398 10 3.571 0.539 5.395 10 10 2.629 10 9.087 10 3.191 10 10 5.775 10 0.15 10 10 3.723 10 10 10.235 10 5.669 10 10 5.114l3.609-9.326 2.677-6.917 3.609-9.326 1.159-2.994 3.609-9.326 0.277-0.715 3.609-9.326 0.527-1.362v-10-2.428-0.932-10-5.498-7.325-5.561-10-4.919-2.089-3.103-10-1.087-3.508-1.829-10-10-3.541-10-3.343-10-10-10-6.283-10-1.625-10-8.202-10-0.246-1.592-10-10-8.848-10-5.034h-10-4.066-1.422-0.566-10-5.603-5.772-0.685-10-5.542-10-7.886-7.579-10-10-0.75-10-1.656-4.764-10-10-7.618-1.712-3.88-6.618-10-10-3.844-6.82-10-3.264-10-4.372-10-3.619-8.955l-8.163 5.776-0.452 0.32-1.478 1.046-1.49 1.055-8.163 5.777-8.163 5.776-8.163 5.777-1.684 1.192-2.28 1.613"/>
   <path d="m597.32 1062.9v8.197 10 10 10 2.535 10 10 10 5.664 10 10 10 10 3.651 3.989 10 10 2.511 10 10 10 10 10 10 10 10 10.446h1.28 10 10 10 1.064 8.952 10 3.677 10 10 10 2.278 10 10 10 10 10 10 5.933 10 10 10 9.619 6.761 10 10 10 7.429"/>
   <path d="m557.28 1091.2h10 10 10 1.421 10 7.57 6.59 7.029 10 10 7.636 6.82 10 10 10 4.342 1.712 10 10 10 10 10 10.1 4.688 7.579 10 10 10 3.428 0.685 10 2.13 6.223"/>
   <path d="m815.24 1349.1v-10-10-10-8.604-10-10-3.116-0.932-10-5.498-10-10-9.894-10-4.19-5.337-10-10-10-10-10-10-10-10-4.792-10-8.202-10-10-7.388l5.585-8.295 3.369-5.003 5.585-8.295 4.537-6.739"/>
   <path d="m684.81 1184.7-1.823 2.206-6.367 7.711-6.368 7.71-6.368 7.711-6.368 7.71-3.168 3.836"/>
   <path d="m755.19 1221.6h10 1.546 10 10 9.461 0.685 10 8.353 3.588 1.422 10 4.066 10 10 1.777 10 6.135 2.4 8.988 4.08 8.146 1.797l6.062-19.06 1.425-4.481 3.031-9.53 1.213-3.813v-10-1.138-10-10-10-2.12-10-10-10-10-10-10-10-10-10-8.74-10-2.953-4.608-10-1.184-1.191-6.335-5.391-10-2.138-0.151-6.389-4.37-10-2.638-4.591-0.619h-2.076-6.879-10-2.337-10-10-10-10-10-4.361-10-5.455-5.639-9.964-10-10-1.999-10-7.886-0.687-10-10-7.642-10-10-7.424-10-10-2.206l-4.483 2.672-2.135 1.272-3.041 1.812-8.591 5.12-8.59 5.119-3.622 2.158"/>
   <path d="m684.81 960.13v10 10 10 10 10 10 10 10 6.99 10 5.736 8.197 6.837 10 10 2.498 10 8.188 10 8.202 10 10 10 10 7.908h3.88 1.712 10 10 10 10 5.605 10 4.495 4.688 10 10 10 10 1.007 0.685 10 10 10 7.429 10 10 10 7.912 2.4 10 10 1.214 10 3.528"/>
   <path d="m897.64 978.28 0.198-0.305 2.578-3.99 5.428-8.399 3.127-4.84 0.4-0.619"/>
   <path d="m755.19 978.28h7.579 10 10 10 10 9.849 5.639 0.267 10 10 10 10 10 10 10 9.11v10 0.605 10 7.529 6.335 10 10 10 4.368 10 10 10 10 10 10 6.377 10 10 7.931 10 10 10 10 10 10 10 10.142"/>
   <path d="m710.34 1432.6-4.416 8.972-4.415 8.973-9.778 19.866-4.416 8.973-2.75 5.587"/>
   <path d="m684.9 1263.2-0.333 0.474v10 10 10 0.92 5.263 10 10 0.729 10 2.32 3.775 10 2.468 10 10 3.903 6.679 10 6.483 10 10 10 2.84 10 10 10 10 1.393"/>
   <path d="m916.07 1408.4v-10-10-10-10-9.619-10-10-10-10-8.229-10-10-3.116-0.932-10-5.498-10-2.886-10-4.919-2.089-3.103-10-1.087h-10-10-0.229-8.146-4.08-8.988-2.4-10-6.135-10-10-1.777-10-4.066-1.422-3.588-10-8.353-0.685-10-10-10-2.617-8.39-4.688-10-10-10.008-0.096-2.378-7.676v10 10 10 6.285 7.799 10 6.43 10 10 10 10 10 10 1.72 10 10 3.903 6.679 10 6.483 10 10 10 6.422h10 10 10 10 10 10 10 8.421 10 10 10 10 10 10 10 10 10 10 10 10 7.301"/>
   <path d="m684.57 1263.7h4.121 1.712 10 10 10 10 10 10.1 10 10 10 9.619"/>
   <path d="m905.9 1263.7 5.33-19.276 0.91-3.293 2.665-9.638 1.259-4.552"/>
   <path d="m874.62 1263.7h10 10 1.214 10.065v7.325 10 5.498 0.932 10 10 3.116 10 10 10 10 10 10 10 10 10 7.848"/>
   <path d="m639.02 930.63-17.713 8.108-15.031 6.88-6.212 2.844"/>
   <path d="m600.06 672v10 10 5.097 3.172 0.516 3.37 10 10 10 10 10 10 10 10 6.787 3.434 10 10 10 10 10 10 10 10 6.313 4.473 7.192 6.878 10 10 10 10 9.232h6.212 10 10 7.991 10 3.264 0.848 0.199 3.475 10 10 3.101 3.041 2.135 10 10 6.689 10 10 7.424 10 10 8.329 10 4.756 3.13 10 10 1.999 9.964 5.639 10 5.455 10 10 10 10 2.813l1.992-2.366 6.443-7.649 3.113-3.697 2.437-2.892 1.034-1.228v-4.824-10-5.888-10-6.977-8.417-10-10-10-10-10-10-4.362-5.607-10-10-10-10-10-10-10-10-4.995-1.262-10-10-10-10-10.196l-9.264-3.765-5.286-2.149-0.469-0.19h-10-10-10-10-10-10-3.193-10-9.175-3.286-1.058-10-7.253-9.107-10-10-10-10-10-8.978-10-10-1.335-9.211-10-10-5.553-10-10-10-10-8.315"/>
   <path d="m600.06 672 9.879 1.548 2.576 0.403 9.879 1.549 9.88 1.548 6.742 1.056"/>
   <path d="m891.54 678.1h-9.945-10-10-10-10-10-10-10-10-7.442-3.286-1.058-10-10-10-10-10-10-10-10-5.338-10-10-10-10-10-6.099-9.359v10 10 2.681 3.37 10 10 10 10 10 10 10 10 6.787 10 10 10 10 10 10 10 10 10 4.22 7.192 1.471 10 10 10 6.807h8.511 0.848 10 10 6.775 5.176 10 10 10 10 10 10 10 10 2.442 10 10 10 10 9.849 5.639 10 10 10 10 10 6.166 10 7.121"/>
   <path d="m876.53 672v4.163 10 10 10 10 10 2.137 10 10 10 10 10 10 10 10 6.257 10 10 10 10 10 10 9.969 10 10 10 10 1.282 2.572 10 7.718 2.366"/>
   <path d="m789.81 639.68v-8.848-10-9.683-10-3.51-10-10-10-10-10-4.832-10-9.174-10-5.964-0.016-10-0.669-5.8-0.32-10-10-4.433-10-10-10-0.593l-2.715-3.2-6.469-7.625-0.15-0.176-6.469-7.625-6.47-7.625-4.087-4.818h-10-3.088-10-5.046-10-4.048-6.675-1.344-10-10-8.744-4.408-1.687-2.044-10-8.824-9.534-3.328-10-10-10-1.721-10-10-10-5.366-6.597-10-9.408-10-3.206-10-10-10-5.333-10-8.924-10-3.512-2.659v10 10 10 4.476 10 8.131 6.501 10 2.397 10 10 10 0.641 10 5.889 1.783 10 6.5 10 10 10 9.567 6.812 10 10 10 10 10 10 10 10 10 10 9.627 3.172l17.08 1.24 9.974 0.723 26.49 1.923h4.842 10 10 10 1.142 9.622 10 10 7.323 5.631 10.054 10 10 8.902 7.18 2.179 10 10 10 5.756 10 10 10 10 10 10 10 10 8.428 10 7.253v-10-10-4.58-1.471-4.153-1.761-0.19-6.681-10-1.68-1.509"/>
   <path d="m467.96 404.77 8.649 5.019 8.65 5.019 17.298 10.038 0.498 0.289 8.65 5.018 8.649 5.019 1.15 0.667"/>
   <path d="m789.81 435.84h-10-10-10-10-10-10-8.542-8.019-10-10-8.744-4.408-1.687-2.044-10-10-10-10-10-10-10-10-10-10-5.37-10-10-10-2.614-10-6.884v3.407 10 2.514 10 10 5.731 10 10 9.425 10 10 10 4.172 10 10 10 10 10 0.686 10 10 10 10 1.7 10 10 3.281 10 10 10 10 4.027 3.37"/>
   <path d="m763.45 404.77v10 10 10 10 10 10 10 10 6.095 10 6.789 0.016 10 10 10 5.138 10 10 10 10 10 10 8.342 10 10 8.531"/>
   <path d="m763.45 700.26 9.893 1.459 9.893 1.458 6.574 0.969"/>
   <path d="m763.45 646.13v10 9.182 6.681 1.951 10 10 6.318h-10-10-10-10-10-8.978-10-10-10-10-10-6.099-10-10-10-8.261-10.054-5.631-10-10-10-10-10-10-8.087-10-10-10-10-10-8.386"/>
   <path d="m818.82 1238-1.447 3.103-4.229 9.062-4.228 9.062-4.228 9.063-5.491 11.769-2.318 4.97-0.685 1.466"/>
   <path d="m796.2 1001v5.391 10 8.71 4.608 10 7.385 10 5.736 10 4.955 0.079 10 3.298 9.2 6.35 1.592 10 0.246 10 8.202 10 1.625 10 10 10 6.283 10 3.343 10 10 3.541 1.829 3.508 10 4.19 2.089 10 10 0.48 7.325 10 5.498h0.685 10 0.715 7.638 10 9.076 10 10 1.777 10 6.135 2.4 8.988 4.08 8.146 10.065 10 0.164 10 10 10 0.311 0.177 10 10 10 10 10 10 5.724 0.814 10 10 10 10 10 10 8.569v-10-10-8.384-3.889-10-10-10-10-10-10-10-10.668-10-10-10-2.12-10-10-10-10-10-10-10-10-10-5.225-10-10-4.177-8.083-1.191-10-1.726l-1.215-9.926-0.271-2.212-0.019-0.151-1.215-9.926-0.103-0.833h-10-10-10-10-6.246-1.645-10-10-10-10-5.513-5.097-10-10-10-10-10-10-2.745-8.227-2.076-6.879-2.578-9.759-10-10-10-10-10-4.361-10-4.889l-0.299 0.305-0.267 0.272-3.723 3.793-1.916 1.952-16.421 16.726"/>
   <path d="m818.82 977.98v10 2.435 10 6.004 6.335 10 10 10 4.368 10 5.736 10 5.034 10 10 10 10 0.686 10 8.202 10 10 10 10 10 10 10 10 4.792 5.337 10 1.087h10 5.488 10 10 10 7.912 2.4 10 10 1.214 10 10 0.229 10 10 10 8.723 10 10 8.686 10 10 8.803 10 8.787 10 10 10 10 7.773"/>
   <path d="m796.2 1001h10 2.73 3.691 5.639 10 10 10 10 10 10 10 10 2.153 8.955 8.227 10 10 10 10 10 10 7.842 10 10 10 10 7.158"/>
   <path d="m1081.7 1286.5-2.324-39.932-0.499-8.563v-10-10-10-10-10-10-10-10-10-6.566-10-10-10-10-10-10-10-10-10-10-10-9.402-9.274-10-10-3.864-10-0.91"/>
   <path d="m833.71 988.74-0.133 0.151-6.599 7.513-8.723 9.931-0.075 0.085-5.564 6.335"/>
   <path d="m1097.1 737.7v-9.406h-10-10-9.404-1.532-10-10-10-10-10-10-10-10-10-10-10-10-2.339-10-0.378-6.945-3.705-8.501-2.661-10-10.067-6.099-8.92-5.784-10-10-10-10-10-7.409-0.714v10 10 10 10 10 10 10 10 6.257 5.607 10 10 10 10 10 10 4.362 9.299 2.413 1.269 10 2.918 8.397 6.986 4.824 1.228 2.718 10 1.52 2.366 1.901 9.771 0.619 4.591 10 2.943 4.065 1.952 10 2.768 3.958 5.391 6.335h5.639 0.566 1.422 10 10 10 10 10 10 7.828 9.561 2.776 6.879 2.076 8.227 10 10 10 4.911 2.286 10 10 4.256 6.389 10 10 10 10 5.513 1.645 10 10 10 10 6.246 2.823 7.802 3.822"/>
   <path d="m812.62 728.3 19.964 1.194 1.13 0.068"/>
   <path d="m1092.9 729.56h-10-10-5.221-10-10-10-10-10-10-10-10-10-10-10-10-3.871-10-10-9.529-2.661-10-10.067-6.099-10-10-10-10-10-1.733v10 10 10 10 10 10 10 10 4.995 10 10 10 10 10 10 9.969 10 10 10 10 1.282 8.77 10 1.52 2.366 1.901 9.771 0.619 10 7.229 10 0.759h10 10 10 10 10 10 6.698 8.955 8.227 10 10 10 10 10 10 7.842 10 10 10 10 7.158 10 10 10 10 7.564 10 2.737"/>
   <path d="m1097.1 728.3-4.183 1.262v8.576 10 10 10 10 10 10 10 10 10 10 10 10 10 10 10 10 10 10 10 11.433 10 10 10 10 9.172l1.716 9.852 1.716 9.851 0.751 4.312"/>
   <path d="m1004.5 364h-10-7.877-6.521-10-10-10-10-3.274-2.564-7.791-8.664-10-10-10-10-5.29v8.383 10 10 10 10 10 10 10 10 10 4.047 10 10 4.433 0.32 10 6.469 10 10 10 10 10 10 10 10 9.986 10 3.51"/>
   <path d="m872.5 364 3.931 8.383 8.492 18.108 3.097 6.602"/>
   <path d="m1143 397.09h-10-9.609-10-10-10-10-10-10-10-10-10-10-10-4.914-10-10-1.906-10-10-10-10-10-10.15-10-10-10-8.434v10 10 10 10 10 10 10 10 10 3.77 10 6.789 10 10 10 10 10 10 10 10 10 10 3.496 10 10 10 7.855 3.103"/>
   <path d="m882.46 649 5.562 3.103h10 10 6.256 10 2.206 10 10 10 10 10 10 10 10 10 10 10 10 10 10.607 0.587 10 10 10 10 10 10 10 5.357l7.172-6.969 1.741-1.692v-10-10-10-10-0.568-10-3.797-10-10-10-10-10-10-10-10-10-10-10-3.237-10-10-6.35-10-10-10-10-10-10-10-10-5.493h-10-10-1.266"/>
   <path d="m1151.9 364-5.202 19.312-2.6 9.655-1.111 4.126v10 10 10 10 10 2.4 10 10 10 10 10 10 10 10 10 10 10 10 10 10 10 3.384 10 10 10 10 9.229"/>
   <path d="m1151.9 643.44h-10-10-10-10-10-10-10-10-10-10-10-10-10-10-10-10-10-10-10-10-10-10-10-7.67"/>
   <path d="m1127.9 1114.7-6.144-29.364-0.914-4.368"/>
   <path d="m1418.5 1339.4v-10-10-10-10-10-4.179-10-10-10-10-10-10-10-10-10-10-10-10-10-10-10-10-10.456l-28.144-28.424-5.255-5.308h-10-10-10-10-10-10-10-10-10-10-10-10.585-10-7.08-10-10-6.815-10-5.491-10-10-10-10-10-10-10-10-4.348v10 10 10 10 10 10 10 10 10 10 10 10 10 10 10 10 10 3.224 10 10 10 10 4.261"/>
   <path d="m1127.9 1298.5v-10-10-10-10-10-10-10-10-10-10-10-10-10-10-10-10-10-10-3.753h10 10 10 10 10 10 10 7.29 10 10 10 10 10 9.386 10 10 10 10 10 10 10 10 10 10 10 10 10 10 10 3.984"/>
   <path d="m1418.5 1405.4-4.86-8.74-14.577-26.22-4.859-8.741-4.859-8.74-4.244-7.632"/>
   <path d="m1120.8 1345.3h10 10 10 10 10 10 10 10 10 10 10 10 10 10 10 10 10 10 10 10 10 10 10 10 10 10 4.319v-5.952-10-10-10-10-10-10-10-10-10-10-10-10-10-10-10-10-10-10-10-10-10-10-10-10-10-8.367"/>
   <path d="m1190.1 721.95-1.297 0.19-11.311 1.66v10 3.904 0.432"/>
   <path d="m1478.6 983.46v-10-10-1.917-10-10-10-10-4.655-10-2.661-10-10-10-10-10-10-10-10-10-10-10-10-7.928-3.138-10-10-1.546-0.832-10-10-8.836h-10-10.013-10-1.103-10-10-6.187-10-10-10-10-10-10-10-10-10-10-10-10-10-10-10-2.856-10-10-0.275-1.046"/>
   <path d="m1478.6 721.95-29.965 1.437-1.151 0.055-7.464 0.358"/>
   <path d="m1440 986.35v-2.89-10-10-10-10-10-10-10-10-10-10-10-10-10-10-10-10-10-10-10-10-7.161-10-10-5.098-10-10-7.404h-10-8.723-10-10-10-10-10-10-10-10-10-10-10-10-10-10-10-10-10-3.131-10-8.974-10-10-6.701-10-10-5.024"/>
   <path d="m1478.6 1010.5-8.479-5.301-8.479-5.302-8.479-5.301-8.479-5.302-4.664-2.916h-10-10-10-10-10-10-10-10-10-10-10-10-10-10-10-10-10-10-10-10-10-10-10-10-10-12.553"/>
   <path d="m1248.2 691.62v4.628 10 10 5.695 1.85 10 10 10 10 9.364l9.882 1.529 9.882 1.53 0.511 0.079"/>
   <path d="m1268.4 477.86-6.365 7.712-6.366 7.713-6.366 7.712-1.178 1.428v10 10 10 10 10 10 10 10 6.657 10 3.797"/>
   <path d="m1566.9 477.86-8.901 4.558-8.902 4.557-8.901 4.558-17.802 9.114-3.473 1.778"/>
   <path d="m1518.9 773.16v-10-10-1.546-10-10-10-10-10-9.991-10-10-10-10-10-1.703-10-10-10-10-10-10-10-10-10-10-10-10-10-7.498h-10-10-10-10-10-10-10-10-10-7.606-2.394-10-10-10-10-10-10-10-10-10-10-10-10-10-10-10-10-10.737"/>
   <path d="m1566.9 776.3-9.979-0.653-9.979-0.652-7.967-0.521-20.054-1.312h-10-10-10-10.303-10-10-10-1.116-10-10-10-10-10-10-10-10-10-10-10-10-10-10-10-10-10-10-10-9.318"/>
   <path d="m1503 1042.3v5.826 10 10 10 10 10 10 10 10 10 10 10 10 10 10 10 10 10 10 10 6.595l6.698 7.426 2.105 2.334"/>
   <path d="m1538.9 979.49h-8.061-10-10-7.844v3.972"/>
   <path d="m1840.2 1295-8.195-5.73-24.586-17.191-8.195-5.731-8.196-5.73-8.195-5.73-8.195-5.731-6.309-4.411"/>
   <path d="m1503 1244.8h8.803 10 10 10 10 10 10 10 10 10 10 10 10 10 10 10 10 10 10 10 10 10 10 10 10 10 6.477v-10-10-10-10-10-10-10-10-10-10-10-10-10-10-10-10-10-10-10-10-10-10-10-10-10-10-5.28"/>
   <path d="m1751.5 639.92h-10-10-10-10-10-10-4.024-10-10-10-10-10-10-10-10-10-10-10-10.611-10-10-10-10-7.979-10-10-10-3.286l-9.733 2.292-17.297 4.073-9.734 2.292-1.369 0.323v10 10 10 10 2.723 4.628 10 10 5.695 1.492 10 10 7.344 0.584 10 10 1.794 3.138 10 10 10 10 10 10 10 10 10 10 10 10 7.928l9.263 3.769 9.262 3.769 9.263 3.768 3.328 1.355 7.017 2.855h8.866 10 10 10 10 4.474"/>
   <path d="m1485.6 919.74v-10-10-10-10-10-10-10-10-10-10-10-10-10-10-3.444-10-10-4.684-10-10-10-10-10-9.991-10-10-10-10-10-1.703"/>
   <path d="m1765.4 639.92-9.899 1.419-4.023 0.577-9.898 1.419-9.899 1.42-19.798 2.838-9.112 1.307"/>
   <path d="m1702.8 904.23v-10-10-10-10-10-10-10-10-10-10-10-10-10-10-10-2.612-10-10-10-10-10-10-10-10-10-10-2.714h-10-10-10-10-10-10-10-10-10-10-10-10-10-5.928-10-10-10-10-10-10-10-10-10-10-10-9.398"/>
   <path d="m1765.4 919.74-19.413-4.81-9.706-2.404-19.414-4.81-9.706-2.405-4.39-1.087h-10-10-10-10-10-10-10-10-10-10-10-10-10-10-10-10-3.853-10-10-10-10-10-10.357-10-10-10-1.116"/>
   <path d="m1431 477.86-8.213 5.705-1.474 1.024v10 7.836 10 10 10 10 10 10 10 10 10 10 10 10 10 10 10 10 10 10 9.201 4.628 10 10 5.695 1.85 10 10 6.986l9.998 0.223 8.725 0.195 7.464 0.166 9.998 0.223 1.105 0.025h10 10.013 7.017 8.866 10 10 4.42 10 10.054 10 10 7.925"/>
   <path d="m1458.6 751.62v-10-10-9.668-10-10-10-0.323-10-10-10-10-5.338-10-10-10-10-10-10-10-10-10-10-10-10-10-10-10-10-8.428"/>
   <path d="m1751.5 458.68-9.27 3.75-9.27 3.751-9.27 3.75-9.27 3.751-9.27 3.75-9.27 3.751-8.404 3.4"/>
   <path d="m1687.5 750.78v-10-10-10-10-10-10-10-10-10-10-10.862-10-10-10-10-10-10-10-10-10-10-10-10-10-10-10-5.334h-10-10-10-10-10-10-10-10-10-10-10-10.611-10-10-10-10-10-10-10-10-10-10-10-10-10-10-5.585"/>
   <path d="m1751.5 751.62-59.995-0.78-4.029-0.052h-10-10-10-10-10-10-10-10-10-10-10-10.611-10-10-7.925-10-10-10-10-10-10.357-10-10-10-1.116-10-10-6.187"/>
   <path d="m375.31 971.2h10 10 10 10 10 10 6.482 4.983 10 10 10 10 10 10 10 10 10 10 10 10 10 10.451"/>
   <path d="m587.23 1139.3v10 10 10 10 7.64 5.83"/>
   <path d="m602.45 1289.9v10 10 10 10 10 9.265 10 9.312 4.591 10 10 3.162 10 10 10 2.248"/>
   <path d="m610.16 1209.4v10 10 10 10 10 10 10 1.045 10 10 10 10 10 10 8.693 10 9.312"/>
   <path d="m606.27 961.79 8.965-4.431 4.654-2.3"/>
   <path d="m648.58 895.83v10 10 10 8.739 10 3.886 1.901 10 10 10 10 10 0.795"/>
   <path d="m594.43 697.09h-10-10-10-10-10-10-8.087-10-10-10-10-10-8.386-10-10-10-10-10-1.875"/>
   <path d="m673.93 451.76v10 10 5.731 10 10 10.179 10 10 10 3.418 1.72 10 10 10 10 8.966 10 10 10 10 7.907 6.453 10 0.621"/>
   <path d="m704.48 656.75v-0.028-3.091-7.502-6.453-10.013-10-10-2.482-9.546-10-10-10-10-10-4.832-10-9.174-10-5.964-10-9.492-10-7.836-0.089"/>
   <path d="m772.56 814.55v10 10 10 10 10 10 9.969 7.828"/>
   <path d="m704.59 629.67h-0.113-10-10-10-10-10-10-10-10-10-10-10.045-10-10-10-10-10-10-10-10-10-1.378"/>
   <path d="m802.66 960.13v0.619 10 10 10 3.7 10 1.968 1.337 10 10 10 9.366 10 5.736 10 5.034 10 10 2.498"/>
   <path d="m870.74 814.55v10 10 10 10 10 10 9.969 10 10 10 10 1.282 8.77"/>
   <path d="m907.29 946.09v4.267 9.771 0.619 10 7.229 10 0.91 10 7.529 6.335 10 10 10 4.368"/>
   <path d="m789.81 491.18h-10-10-10-10-10-10-10-6.561"/>
   <path d="m933.42 946.09v4.267"/>
   <path d="m789.81 597.64h-10-10-10-10-10-10-10-10-5.225-0.113-10-10-4.375"/>
   <path d="m920.98 297.66h-3.193-10-10-3.154-9.285-10-6.871-10-7.43-10-10-10-10-9.91-10-10-0.657-10-10-10.114-10-10-0.22-8.759-0.115-8.019-2.224"/>
   <path d="m1030.9 1022v10 10 10 10 10 10 10 10 10 10 10 9.402 10 10 10 10 10 10 10 10 10 9.669"/>
   <path d="m1510.6 983.46-7.594-3.972"/>
  </g>
 </g>
 <g id="fressstylelayer_vlak" xmlns:inkscape="http://www.inkscape.org/namespaces/inkscape"></g>
</svg>
