<?xml version="1.0" encoding="UTF-8" standalone="no"?>
<svg
   xmlns:dc="http://purl.org/dc/elements/1.1/"
   xmlns:cc="http://creativecommons.org/ns#"
   xmlns:rdf="http://www.w3.org/1999/02/22-rdf-syntax-ns#"
   xmlns:svg="http://www.w3.org/2000/svg"
   xmlns="http://www.w3.org/2000/svg"
   xmlns:sodipodi="http://sodipodi.sourceforge.net/DTD/sodipodi-0.dtd"
   xmlns:inkscape="http://www.inkscape.org/namespaces/inkscape"
   height="1500"
   version="1.1"
   width="1500"
   id="svg133"
   sodipodi:docname="processed_scattercubes_04_25_2019_12280000.svg"
   inkscape:version="0.92.2 5c3e80d, 2017-08-06">
  <metadata
     id="metadata139">
    <rdf:RDF>
      <cc:Work
         rdf:about="">
        <dc:format>image/svg+xml</dc:format>
        <dc:type
           rdf:resource="http://purl.org/dc/dcmitype/StillImage" />
      </cc:Work>
    </rdf:RDF>
  </metadata>
  <defs
     id="defs137" />
  <sodipodi:namedview
     pagecolor="#ffffff"
     bordercolor="#666666"
     borderopacity="1"
     objecttolerance="10"
     gridtolerance="10"
     guidetolerance="10"
     inkscape:pageopacity="0"
     inkscape:pageshadow="2"
     inkscape:window-width="640"
     inkscape:window-height="480"
     id="namedview135"
     showgrid="false"
     inkscape:zoom="0.15733333"
     inkscape:cx="750"
     inkscape:cy="750"
     inkscape:window-x="0"
     inkscape:window-y="0"
     inkscape:window-maximized="0"
     inkscape:current-layer="svg133" />
  <g
     id="fressstylelayer_LineSet"
     inkscape:groupmode="lineset"
     inkscape:label="fressstylelayer_LineSet">
    <g
       id="strokes"
       inkscape:groupmode="layer"
       inkscape:label="strokes">
      <path
         style="fill:none;stroke:#9d14aa;stroke-width:3;stroke-linecap:butt;stroke-linejoin:round;stroke-opacity:1"
         d="m 331.048,734.406 c -26.3064,7.40761 -52.61341,14.81308 -78.92,22.22 0.12122,125.97667 0.24243,251.9533 0.365,377.93 25.27376,3.6463 50.54732,7.2941 75.821,10.941"
         id="path2"
         inkscape:connector-curvature="0" />
      <path
         style="fill:none;stroke:#9d14aa;stroke-width:3;stroke-linecap:butt;stroke-linejoin:round;stroke-opacity:1"
         d="m 282.169,476.078 c -15.30903,-3.23297 -25.37564,-1.02392 -20.536,16.6605 0.004,87.06917 0.008,174.13833 0.012,261.2075"
         id="path4"
         inkscape:connector-curvature="0" />
      <path
         style="fill:none;stroke:#9d14aa;stroke-width:3;stroke-linecap:butt;stroke-linejoin:round;stroke-opacity:1"
         d="m 261.632,475.308 c 6.84567,0.33093 13.69133,0.66215 20.537,0.993"
         id="path6"
         inkscape:connector-curvature="0" />
      <path
         style="fill:none;stroke:#9d14aa;stroke-width:3;stroke-linecap:butt;stroke-linejoin:round;stroke-opacity:1"
         d="m 666.567,385.161 c -32.0801,-8.11548 -63.67394,-19.58603 -97.25686,-17.33558 -95.63972,-2.99855 -191.27944,-5.9971 -286.91914,-8.99642 -0.21163,111.74 -0.42206,223.48 -0.633,335.22 16.5106,1.3201 33.02136,2.63838 49.532,3.958"
         id="path8"
         inkscape:connector-curvature="0" />
      <path
         style="fill:none;stroke:#9d14aa;stroke-width:3;stroke-linecap:butt;stroke-linejoin:round;stroke-opacity:1"
         d="m 1018.301,493.096 c 1.0452,-14.66636 2.091,-29.33269 3.137,-43.999 -20.761,-9.05261 -39.36822,-26.26096 -63.315,-23.249 -117.78766,-4.4056 -235.57537,-8.80961 -353.363,-13.216"
         id="path10"
         inkscape:connector-curvature="0" />
      <path
         style="fill:none;stroke:#9d14aa;stroke-width:3;stroke-linecap:butt;stroke-linejoin:round;stroke-opacity:1"
         d="m 978.109,426.595 c -1.44086,21.48603 -2.88391,42.97192 -4.324,64.458"
         id="path12"
         inkscape:connector-curvature="0" />
      <path
         style="fill:none;stroke:#9d14aa;stroke-width:3;stroke-linecap:butt;stroke-linejoin:round;stroke-opacity:1"
         d="m 830.88,421.089 c 0.72171,-13.54466 1.44301,-27.08935 2.165,-40.634 -22.7307,-8.24282 -43.91601,-23.57448 -69.13876,-20.38706 -75.40372,-2.22383 -150.80753,-4.44466 -226.21124,-6.66894 -0.11468,4.47467 -0.22895,8.94934 -0.344,13.424"
         id="path14"
         inkscape:connector-curvature="0" />
      <path
         style="fill:none;stroke:#9d14aa;stroke-width:3;stroke-linecap:butt;stroke-linejoin:round;stroke-opacity:1"
         d="m 1017.409,1255.133 c 19.4223,-253.1343 38.8455,-506.26861 58.267,-759.403"
         id="path16"
         inkscape:connector-curvature="0" />
      <path
         style="fill:none;stroke:#9d14aa;stroke-width:3;stroke-linecap:butt;stroke-linejoin:round;stroke-opacity:1"
         d="M 1075.676,495.73 C 828.07131,484.36416 580.46662,472.99824 332.862,461.631 c -1.53692,231.04433 -3.07345,462.08867 -4.61,693.133 229.71902,33.4562 459.43794,66.9131 689.157,100.369 12.0547,-81.2526 27.0183,-162.1625 37.1679,-243.6395 13.4024,-170.59677 26.8039,-341.19366 40.2061,-511.7905 -6.369,-1.32445 -12.738,-2.6488 -19.107,-3.973 z"
         id="path18"
         inkscape:connector-curvature="0" />
      <path
         style="fill:none;stroke:#9d14aa;stroke-width:3;stroke-linecap:butt;stroke-linejoin:round;stroke-opacity:1"
         d="m 875.145,454.206 c -48.0849,-12.75599 -98.24502,-8.66493 -147.458,-12.263 -97.96933,-3.99329 -195.93866,-7.98675 -293.908,-11.98 -0.19464,12.09133 -0.3895,24.18266 -0.584,36.274"
         id="path20"
         inkscape:connector-curvature="0" />
      <path
         style="fill:none;stroke:#9d14aa;stroke-width:3;stroke-linecap:butt;stroke-linejoin:round;stroke-opacity:1"
         d="m 786.373,360.73 c -0.95335,19.52933 -1.90756,39.05862 -2.86,58.588"
         id="path22"
         inkscape:connector-curvature="0" />
      <path
         style="fill:none;stroke:#9d14aa;stroke-width:3;stroke-linecap:butt;stroke-linejoin:round;stroke-opacity:1"
         d="m 604.73,368.936 c -0.72206,22.63569 -1.44667,45.27129 -2.168,67.907"
         id="path24"
         inkscape:connector-curvature="0" />
      <path
         style="fill:none;stroke:#9d14aa;stroke-width:3;stroke-linecap:butt;stroke-linejoin:round;stroke-opacity:1"
         d="m 330.853,763.66 c -26.24167,-2.34461 -52.48327,-4.69006 -78.725,-7.034"
         id="path26"
         inkscape:connector-curvature="0" />
      <path
         style="fill:none;stroke:#9d14aa;stroke-width:3;stroke-linecap:butt;stroke-linejoin:round;stroke-opacity:1"
         d="m 603.982,436.901 c 0.25834,-8.0897 0.51908,-16.17932 0.778,-24.269"
         id="path28"
         inkscape:connector-curvature="0" />
      <path
         style="fill:none;stroke:#9d14aa;stroke-width:3;stroke-linecap:butt;stroke-linejoin:round;stroke-opacity:1"
         d="m 665.444,414.902 c 0.37336,-9.9137 0.74965,-19.8273 1.123,-29.741"
         id="path30"
         inkscape:connector-curvature="0" />
      <path
         style="fill:none;stroke:#9d14aa;stroke-width:3;stroke-linecap:butt;stroke-linejoin:round;stroke-opacity:1"
         d="m 835.528,484.706 c 0.68871,-12.76103 1.3791,-25.52198 2.068,-38.283"
         id="path32"
         inkscape:connector-curvature="0" />
      <path
         style="fill:none;stroke:#9d14aa;stroke-width:3;stroke-linecap:butt;stroke-linejoin:round;stroke-opacity:1"
         d="m 873.288,486.44 c 0.61915,-10.74466 1.237,-21.48939 1.857,-32.234"
         id="path34"
         inkscape:connector-curvature="0" />
    </g>
  </g>
  <g
     id="fressstylelayer_hidden lines"
     inkscape:groupmode="lineset"
     inkscape:label="fressstylelayer_hidden lines">
    <g
       id="g130"
       inkscape:groupmode="layer"
       inkscape:label="strokes">
      <path
         style="fill:none;stroke:#007700;stroke-width:3;stroke-linecap:butt;stroke-linejoin:round;stroke-opacity:1"
         d="m 618.811,1187.418 c 0.50766,-14.0756 1.01303,-28.1513 1.52,-42.227"
         id="path38"
         inkscape:connector-curvature="0" />
      <path
         style="fill:none;stroke:#007700;stroke-width:3;stroke-linecap:butt;stroke-linejoin:round;stroke-opacity:1"
         d="m 381.45,1112.119 c 1.36756,-114.52368 2.73706,-229.04733 4.105,-343.571 23.5951,-8.2033 47.19192,-16.40163 70.787,-24.605 -0.94895,-11.67544 2.83564,-27.63886 -1.029,-36.672 -26.67565,-1.70519 -55.01756,-5.23597 -80.65,-5.799 -0.1302,11.83265 -0.25505,23.66535 -0.385,35.498 9.73895,-5.61788 31.64514,-2.06238 27.417,-18.209 -1.0678,-11.31898 5.99332,-30.05399 -12.10423,-25.83994 -25.15827,-1.97511 -50.31655,-3.95027 -75.47477,-5.92606 0.34917,-69.69933 0.69612,-139.39867 1.045,-209.098 195.43406,7.11291 390.76883,16.53725 586.101,26.062 -7.85997,130.30671 -15.72173,260.61331 -23.582,390.92 -10.52766,17.40517 -24.46914,33.67049 -32.92993,51.76576 -2.60759,19.65779 0.6288,41.10229 -5.70704,59.62014 -14.21289,23.9288 -28.42859,47.856 -42.64103,71.7851 -36.85767,-4.6483 -73.71545,-9.2957 -110.573,-13.945 -21.8326,27.0287 -43.66524,54.0574 -65.498,81.086 -79.627,-11.024 -159.25391,-22.0487 -238.881,-33.072 z"
         id="path40"
         inkscape:connector-curvature="0" />
      <path
         style="fill:none;stroke:#007700;stroke-width:3;stroke-linecap:butt;stroke-linejoin:round;stroke-opacity:1"
         d="m 385.555,768.548 c -18.23401,-1.6292 -36.46797,-3.25901 -54.702,-4.888"
         id="path42"
         inkscape:connector-curvature="0" />
      <path
         style="fill:none;stroke:#007700;stroke-width:3;stroke-linecap:butt;stroke-linejoin:round;stroke-opacity:1"
         d="m 261.645,753.946 c 0.004,91.19067 0.009,182.38133 0.012,273.572 32.64567,4.1973 65.29141,8.3941 97.937,12.592 1.01517,-104.86634 2.03291,-209.73266 3.048,-314.599 -10.53123,2.96536 -21.0627,5.92988 -31.594,8.895"
         id="path44"
         inkscape:connector-curvature="0" />
      <path
         style="fill:none;stroke:#007700;stroke-width:3;stroke-linecap:butt;stroke-linejoin:round;stroke-opacity:1"
         d="m 359.594,1040.11 c 18.44514,-12.6581 36.89205,-25.3136 55.337,-37.972"
         id="path46"
         inkscape:connector-curvature="0" />
      <path
         style="fill:none;stroke:#007700;stroke-width:3;stroke-linecap:butt;stroke-linejoin:round;stroke-opacity:1"
         d="m 718.569,1039.232 c -101.21253,-12.3657 -202.42543,-24.7286 -303.638,-37.094 -0.087,5.7617 -0.17403,11.5233 -0.261,17.285"
         id="path48"
         inkscape:connector-curvature="0" />
      <path
         style="fill:none;stroke:#007700;stroke-width:3;stroke-linecap:butt;stroke-linejoin:round;stroke-opacity:1"
         d="m 717.754,1057.194 c -101.02805,-12.5899 -202.05596,-25.181 -303.084,-37.771 -54.05909,38.3775 -108.11875,76.7543 -162.177,115.133"
         id="path50"
         inkscape:connector-curvature="0" />
      <path
         style="fill:none;stroke:#007700;stroke-width:3;stroke-linecap:butt;stroke-linejoin:round;stroke-opacity:1"
         d="m 328.314,1145.497 c 96.83233,13.9737 193.66475,27.9468 290.497,41.921 32.98101,-43.408 65.96225,-86.8158 98.943,-130.224 3.47559,-20.4712 -1.8426,-17.2333 -11.524,-2.223 -7.0519,8.9948 -14.10294,17.9903 -21.155,26.985 36.78728,4.73 73.57463,9.4596 110.362,14.189 29.03717,-50.2924 58.07517,-100.58437 87.112,-150.877 8.9857,-147.055 17.97189,-294.10997 26.957,-441.165 -209.09449,-9.79136 -418.11859,-21.13639 -627.337,-28.025"
         id="path52"
         inkscape:connector-curvature="0" />
      <path
         style="fill:none;stroke:#007700;stroke-width:3;stroke-linecap:butt;stroke-linejoin:round;stroke-opacity:1"
         d="m 685.075,1081.956 c 0.25133,-5.9503 0.50266,-11.9007 0.754,-17.851"
         id="path54"
         inkscape:connector-curvature="0" />
      <path
         style="fill:none;stroke:#007700;stroke-width:3;stroke-linecap:butt;stroke-linejoin:round;stroke-opacity:1"
         d="m 795.437,1096.145 c 0.3212,-6.0317 0.64258,-12.0634 0.965,-18.095"
         id="path56"
         inkscape:connector-curvature="0" />
      <path
         style="fill:none;stroke:#007700;stroke-width:3;stroke-linecap:butt;stroke-linejoin:round;stroke-opacity:1"
         d="m 482.168,483.579 c -2.88788,139.31034 -5.77485,278.62069 -8.664,417.931"
         id="path58"
         inkscape:connector-curvature="0" />
      <path
         style="fill:none;stroke:#007700;stroke-width:3;stroke-linecap:butt;stroke-linejoin:round;stroke-opacity:1"
         d="M 882.549,945.268 C 746.20064,930.6822 609.85229,916.09643 473.504,901.51 402.88881,943.51346 332.27287,985.51568 261.657,1027.518"
         id="path60"
         inkscape:connector-curvature="0" />
      <path
         style="fill:none;stroke:#007700;stroke-width:3;stroke-linecap:butt;stroke-linejoin:round;stroke-opacity:1"
         d="m 909.506,504.103 c -2.748,-0.048 -5.496,-0.096 -8.244,-0.144"
         id="path62"
         inkscape:connector-curvature="0" />
      <path
         style="fill:none;stroke:#007700;stroke-width:3;stroke-linecap:butt;stroke-linejoin:round;stroke-opacity:1"
         d="m 314.116,686.995 c -10.78598,2.35141 -21.57193,4.70301 -32.358,7.054"
         id="path64"
         inkscape:connector-curvature="0" />
      <path
         style="fill:none;stroke:#007700;stroke-width:3;stroke-linecap:butt;stroke-linejoin:round;stroke-opacity:1"
         d="m 282.391,358.829 c 47.07022,8.23967 94.14066,16.47801 141.211,24.717"
         id="path66"
         inkscape:connector-curvature="0" />
      <path
         style="fill:none;stroke:#007700;stroke-width:3;stroke-linecap:butt;stroke-linejoin:round;stroke-opacity:1"
         d="m 573.874,388.69 c -50.0907,-1.71383 -100.18134,-3.429 -150.272,-5.144 -0.49303,32.76234 -0.98787,65.52466 -1.481,98.287"
         id="path68"
         inkscape:connector-curvature="0" />
      <path
         style="fill:none;stroke:#007700;stroke-width:3;stroke-linecap:butt;stroke-linejoin:round;stroke-opacity:1"
         d="m 457.027,707.408 -1.726,0.508"
         id="path70"
         inkscape:connector-curvature="0" />
      <path
         style="fill:none;stroke:#007700;stroke-width:3;stroke-linecap:butt;stroke-linejoin:round;stroke-opacity:1"
         d="m 402.03,693.898 c -9.1197,2.31352 -18.24031,4.62344 -27.36,6.937"
         id="path72"
         inkscape:connector-curvature="0" />
      <path
         style="fill:none;stroke:#007700;stroke-width:3;stroke-linecap:butt;stroke-linejoin:round;stroke-opacity:1"
         d="m 536.991,380.844 c 12.29433,2.61536 24.58838,5.23203 36.883,7.846 -0.34311,11.77666 -0.6851,23.55336 -1.029,35.33"
         id="path74"
         inkscape:connector-curvature="0" />
      <path
         style="fill:none;stroke:#007700;stroke-width:3;stroke-linecap:butt;stroke-linejoin:round;stroke-opacity:1"
         d="m 537.351,366.823 c -6.50384,18.80661 12.19043,13.85646 24.57992,14.85195 34.87869,1.16206 69.75737,2.3244 104.63608,3.48605"
         id="path76"
         inkscape:connector-curvature="0" />
      <path
         style="fill:none;stroke:#007700;stroke-width:3;stroke-linecap:butt;stroke-linejoin:round;stroke-opacity:1"
         d="m 433.195,466.237 c 138.1393,7.7077 278.35334,12.35529 417.21726,20.08847 50.5085,4.35321 101.34958,3.6602 151.77174,9.08953 -10.75145,154.06039 -21.50531,308.12062 -32.257,462.181 9.41707,-26.64802 22.48265,-52.51247 21.065,-81.487 9.104,-127.67093 18.2055,-255.34204 27.309,-383.013"
         id="path78"
         inkscape:connector-curvature="0" />
      <path
         style="fill:none;stroke:#007700;stroke-width:3;stroke-linecap:butt;stroke-linejoin:round;stroke-opacity:1"
         d="m 574.78,431.172 c -24.04337,-3.29974 -48.08676,-6.59935 -72.13,-9.9"
         id="path80"
         inkscape:connector-curvature="0" />
      <path
         style="fill:none;stroke:#007700;stroke-width:3;stroke-linecap:butt;stroke-linejoin:round;stroke-opacity:1"
         d="m 501.2,485.643 c 0.48411,-21.45698 0.96698,-42.91399 1.45,-64.371 37.15508,1.51965 74.1854,1.50269 110.812,8.821"
         id="path82"
         inkscape:connector-curvature="0" />
      <path
         style="fill:none;stroke:#007700;stroke-width:3;stroke-linecap:butt;stroke-linejoin:round;stroke-opacity:1"
         d="m 615.325,373.501 c -0.61994,18.86403 -1.24267,37.72798 -1.863,56.592 72.16004,2.86821 144.31996,5.73961 216.48,8.608"
         id="path84"
         inkscape:connector-curvature="0" />
      <path
         style="fill:none;stroke:#007700;stroke-width:3;stroke-linecap:butt;stroke-linejoin:round;stroke-opacity:1"
         d="M 1021.438,449.097 C 872.552,443.12212 723.66603,437.14623 574.78,431.172 c -0.55741,19.00499 -1.11402,38.01 -1.671,57.015"
         id="path86"
         inkscape:connector-curvature="0" />
      <path
         style="fill:none;stroke:#007700;stroke-width:3;stroke-linecap:butt;stroke-linejoin:round;stroke-opacity:1"
         d="M 833.045,380.455 C 759.69852,377.748 686.14397,376.49035 612.92727,372.88002 587.84994,366.386 562.77227,359.89326 537.695,353.399"
         id="path88"
         inkscape:connector-curvature="0" />
      <path
         style="fill:none;stroke:#007700;stroke-width:3;stroke-linecap:butt;stroke-linejoin:round;stroke-opacity:1"
         d="m 381.45,1112.119 c -17.73329,14.2142 -35.4654,28.4299 -53.198,42.645"
         id="path90"
         inkscape:connector-curvature="0" />
      <path
         style="fill:none;stroke:#007700;stroke-width:3;stroke-linecap:butt;stroke-linejoin:round;stroke-opacity:1"
         d="m 332.862,461.631 c 42.29361,2.4493 84.58734,4.89654 126.881,7.345"
         id="path92"
         inkscape:connector-curvature="0" />
      <path
         style="fill:none;stroke:#007700;stroke-width:3;stroke-linecap:butt;stroke-linejoin:round;stroke-opacity:1"
         d="m 331.29,698.007 c 41.1265,2.85063 83.95644,7.58204 124.023,9.264 1.47612,-79.43168 2.9535,-158.86333 4.43,-238.295 18.28682,0.10147 39.44237,3.28037 55.985,1.511 3.28014,-8.89383 -5.55215,-30.72122 5.69638,-31.10792 117.90145,5.01482 235.80772,9.9476 353.72062,14.82692"
         id="path94"
         inkscape:connector-curvature="0" />
      <path
         style="fill:none;stroke:#007700;stroke-width:3;stroke-linecap:butt;stroke-linejoin:round;stroke-opacity:1"
         d="m 841.573,1002.006 c 70.61104,8.1313 141.22198,16.2635 211.833,24.395"
         id="path96"
         inkscape:connector-curvature="0" />
      <path
         style="fill:none;stroke:#007700;stroke-width:3;stroke-linecap:butt;stroke-linejoin:round;stroke-opacity:1"
         d="m 1002.184,495.415 c 30.8663,1.42987 61.7327,2.85879 92.599,4.288"
         id="path98"
         inkscape:connector-curvature="0" />
      <path
         style="fill:none;stroke:#007700;stroke-width:3;stroke-linecap:butt;stroke-linejoin:round;stroke-opacity:1"
         d="m 844.892,944.172 c 41.67846,4.47353 83.35654,8.95051 125.035,13.424"
         id="path100"
         inkscape:connector-curvature="0" />
      <path
         style="fill:none;stroke:#007700;stroke-width:3;stroke-linecap:butt;stroke-linejoin:round;stroke-opacity:1"
         d="m 433.188,466.693 c 27.50466,1.62152 55.00939,3.24177 82.514,4.864"
         id="path102"
         inkscape:connector-curvature="0" />
      <path
         style="fill:none;stroke:#007700;stroke-width:3;stroke-linecap:butt;stroke-linejoin:round;stroke-opacity:1"
         d="m 835.502,485.187 0.026,-0.481"
         id="path104"
         inkscape:connector-curvature="0" />
      <path
         style="fill:none;stroke:#007700;stroke-width:3;stroke-linecap:butt;stroke-linejoin:round;stroke-opacity:1"
         d="m 873.195,488.066 0.093,-1.626"
         id="path106"
         inkscape:connector-curvature="0" />
      <path
         style="fill:none;stroke:#007700;stroke-width:3;stroke-linecap:butt;stroke-linejoin:round;stroke-opacity:1"
         d="m 516.475,439.173 c -27.56555,-3.06809 -55.13063,-6.14037 -82.696,-9.21"
         id="path108"
         inkscape:connector-curvature="0" />
      <path
         style="fill:none;stroke:#007700;stroke-width:3;stroke-linecap:butt;stroke-linejoin:round;stroke-opacity:1"
         d="m 604.76,412.632 c 36.42643,7.46249 73.03208,13.27848 110.323,12.792 35.09834,1.63689 70.59967,0.21713 104.50259,10.92237 16.17656,7.30661 8.99695,-4.58118 11.29441,-15.25737"
         id="path110"
         inkscape:connector-curvature="0" />
      <path
         style="fill:none;stroke:#007700;stroke-width:3;stroke-linecap:butt;stroke-linejoin:round;stroke-opacity:1"
         d="m 665.12,423.496 c 0.108,-2.86467 0.216,-5.72933 0.324,-8.594"
         id="path112"
         inkscape:connector-curvature="0" />
      <path
         style="fill:none;stroke:#007700;stroke-width:3;stroke-linecap:butt;stroke-linejoin:round;stroke-opacity:1"
         d="m 603.789,442.919 c 0.0643,-2.006 0.12867,-4.012 0.193,-6.018"
         id="path114"
         inkscape:connector-curvature="0" />
      <path
         style="fill:none;stroke:#007700;stroke-width:3;stroke-linecap:butt;stroke-linejoin:round;stroke-opacity:1"
         d="M 988.859,906.033 C 951.79924,902.31591 914.73972,898.59647 877.68,894.879"
         id="path116"
         inkscape:connector-curvature="0" />
      <path
         style="fill:none;stroke:#007700;stroke-width:3;stroke-linecap:butt;stroke-linejoin:round;stroke-opacity:1"
         d="m 401.561,728.76 c -12.97297,-1.08341 -25.94602,-2.16575 -38.919,-3.249"
         id="path118"
         inkscape:connector-curvature="0" />
      <path
         style="fill:none;stroke:#007700;stroke-width:3;stroke-linecap:butt;stroke-linejoin:round;stroke-opacity:1"
         d="m 456.342,743.943 c -27.35476,-2.32329 -54.70925,-4.64966 -82.064,-6.973"
         id="path120"
         inkscape:connector-curvature="0" />
      <path
         style="fill:none;stroke:#007700;stroke-width:3;stroke-linecap:butt;stroke-linejoin:round;stroke-opacity:1"
         d="m 282.169,476.301 c 10.99737,0.53133 21.99466,1.06414 32.992,1.596"
         id="path122"
         inkscape:connector-curvature="0" />
      <path
         style="fill:none;stroke:#007700;stroke-width:3;stroke-linecap:butt;stroke-linejoin:round;stroke-opacity:1"
         d="m 602.562,436.843 c -0.063,1.96733 -0.126,3.93467 -0.189,5.902"
         id="path124"
         inkscape:connector-curvature="0" />
      <path
         style="fill:none;stroke:#007700;stroke-width:3;stroke-linecap:butt;stroke-linejoin:round;stroke-opacity:1"
         d="m 783.513,419.318 c -0.14233,2.90967 -0.28467,5.81933 -0.427,8.729"
         id="path126"
         inkscape:connector-curvature="0" />
      <path
         style="fill:none;stroke:#007700;stroke-width:3;stroke-linecap:butt;stroke-linejoin:round;stroke-opacity:1"
         d="m 973.785,491.053 -0.111,1.647"
         id="path128"
         inkscape:connector-curvature="0" />
    </g>
  </g>
</svg>
