<?xml version="1.0" encoding="UTF-8" standalone="no"?>
<svg
   xmlns:dc="http://purl.org/dc/elements/1.1/"
   xmlns:cc="http://creativecommons.org/ns#"
   xmlns:rdf="http://www.w3.org/1999/02/22-rdf-syntax-ns#"
   xmlns:svg="http://www.w3.org/2000/svg"
   xmlns="http://www.w3.org/2000/svg"
   xmlns:sodipodi="http://sodipodi.sourceforge.net/DTD/sodipodi-0.dtd"
   xmlns:inkscape="http://www.inkscape.org/namespaces/inkscape"
   height="1500"
   version="1.1"
   width="1500"
   id="svg243"
   sodipodi:docname="processed_unifiedcubes_04_25_2019_16480000.svg"
   inkscape:version="0.92.2 5c3e80d, 2017-08-06">
  <metadata
     id="metadata249">
    <rdf:RDF>
      <cc:Work
         rdf:about="">
        <dc:format>image/svg+xml</dc:format>
        <dc:type
           rdf:resource="http://purl.org/dc/dcmitype/StillImage" />
      </cc:Work>
    </rdf:RDF>
  </metadata>
  <defs
     id="defs247" />
  <sodipodi:namedview
     pagecolor="#ffffff"
     bordercolor="#666666"
     borderopacity="1"
     objecttolerance="10"
     gridtolerance="10"
     guidetolerance="10"
     inkscape:pageopacity="0"
     inkscape:pageshadow="2"
     inkscape:window-width="468"
     inkscape:window-height="449"
     id="namedview245"
     showgrid="false"
     inkscape:zoom="0.15733333"
     inkscape:cx="750"
     inkscape:cy="750"
     inkscape:window-x="1680"
     inkscape:window-y="0"
     inkscape:window-maximized="0"
     inkscape:current-layer="svg243" />
  <g
     id="fressstylelayer_LineSet"
     inkscape:groupmode="lineset"
     inkscape:label="fressstylelayer_LineSet">
    <g
       id="strokes"
       inkscape:groupmode="layer"
       inkscape:label="strokes">
      <path
         style="fill:none;stroke:#9d14aa;stroke-width:3;stroke-linecap:butt;stroke-linejoin:round;stroke-opacity:1"
         d="m 1167.164,918.627 c 30.3119,-26.57542 60.6238,-53.15076 90.935,-79.727 -72.8955,-107.73775 -145.7922,-215.47475 -218.687,-323.213 -55.29019,7.27472 -110.58074,14.54675 -165.871,21.821"
         id="path2"
         inkscape:connector-curvature="0" />
      <path
         style="fill:none;stroke:#9d14aa;stroke-width:3;stroke-linecap:butt;stroke-linejoin:round;stroke-opacity:1"
         d="M 605.76,1106.865 C 754.80661,1056.6825 903.85327,1006.5002 1052.9,956.318"
         id="path4"
         inkscape:connector-curvature="0" />
      <path
         style="fill:none;stroke:#9d14aa;stroke-width:3;stroke-linecap:butt;stroke-linejoin:round;stroke-opacity:1"
         d="m 1018.111,988.741 c 8.6123,-14.78183 45.2583,-25.56678 27.8573,-44.05782 C 1002.2977,871.38225 958.62729,798.08115 914.957,724.78"
         id="path6"
         inkscape:connector-curvature="0" />
      <path
         style="fill:none;stroke:#9d14aa;stroke-width:3;stroke-linecap:butt;stroke-linejoin:round;stroke-opacity:1"
         d="m 488.505,846.046 c 39.08505,86.93965 78.17069,173.879 117.255,260.819 -49.76099,65.7486 -99.52242,131.4969 -149.284,197.245 -30.4402,-78.4417 -60.88044,-156.8834 -91.321,-235.325"
         id="path8"
         inkscape:connector-curvature="0" />
      <path
         style="fill:none;stroke:#9d14aa;stroke-width:3;stroke-linecap:butt;stroke-linejoin:round;stroke-opacity:1"
         d="m 698.878,1096.206 c 15.59712,32.7453 31.19411,65.4906 46.791,98.236 127.04974,-49.722 254.09996,-99.4428 381.15,-149.164 -27.9313,-46.43017 -55.8606,-92.86151 -83.793,-139.291"
         id="path10"
         inkscape:connector-curvature="0" />
      <path
         style="fill:none;stroke:#9d14aa;stroke-width:3;stroke-linecap:butt;stroke-linejoin:round;stroke-opacity:1"
         d="m 668.83,1293.719 c 169.59755,-70.9915 339.1948,-141.9836 508.792,-212.976"
         id="path12"
         inkscape:connector-curvature="0" />
      <path
         style="fill:none;stroke:#9d14aa;stroke-width:3;stroke-linecap:butt;stroke-linejoin:round;stroke-opacity:1"
         d="m 358.74,1152.176 c 40.56957,107.432 81.13881,214.8642 121.709,322.296 144.29324,-66.3264 289.58866,-130.9524 433.25485,-198.3431 87.97275,-65.1286 175.94555,-130.2571 263.91815,-195.3859 -37.009,-60.7022 -74.0144,-121.40656 -111.023,-182.109"
         id="path14"
         inkscape:connector-curvature="0" />
      <path
         style="fill:none;stroke:#9d14aa;stroke-width:3;stroke-linecap:butt;stroke-linejoin:round;stroke-opacity:1"
         d="m 596.752,1131.433 c 24.02601,54.0953 48.05151,108.1909 72.078,162.286 -62.79332,60.2514 -125.58712,120.5022 -188.381,180.753"
         id="path16"
         inkscape:connector-curvature="0" />
      <path
         style="fill:none;stroke:#9d14aa;stroke-width:3;stroke-linecap:butt;stroke-linejoin:round;stroke-opacity:1"
         d="m 915.396,532.002 c -21.30331,-33.65677 -42.60886,-67.31212 -63.912,-100.969 -13.86458,1.182 -27.72937,2.36163 -41.594,3.543"
         id="path18"
         inkscape:connector-curvature="0" />
      <path
         style="fill:none;stroke:#9d14aa;stroke-width:3;stroke-linecap:butt;stroke-linejoin:round;stroke-opacity:1"
         d="m 866.71,578.511 c 18.62794,-17.23275 15.92252,-34.77648 -0.29128,-52.52171 C 800.48877,419.37256 734.55875,312.75586 668.629,206.139 c -152.39099,-1.44473 -304.782,-2.88701 -457.173,-4.331 -6.86944,42.91426 -13.73811,85.82865 -20.607,128.743"
         id="path20"
         inkscape:connector-curvature="0" />
      <path
         style="fill:none;stroke:#9d14aa;stroke-width:3;stroke-linecap:butt;stroke-linejoin:round;stroke-opacity:1"
         d="m 211.456,201.808 c 17.21777,37.91611 34.43626,75.83188 51.654,113.748"
         id="path22"
         inkscape:connector-curvature="0" />
      <path
         style="fill:none;stroke:#9d14aa;stroke-width:3;stroke-linecap:butt;stroke-linejoin:round;stroke-opacity:1"
         d="m 1139.408,1018.062 c 19.9661,-16.2724 39.9312,-32.54615 59.897,-48.819 -10.7128,-16.87253 -21.4284,-33.74333 -32.141,-50.616"
         id="path24"
         inkscape:connector-curvature="0" />
      <path
         style="fill:none;stroke:#9d14aa;stroke-width:3;stroke-linecap:butt;stroke-linejoin:round;stroke-opacity:1"
         d="m 286.526,912.145 c 25.36934,-5.91864 50.73886,-11.8365 76.108,-17.756"
         id="path26"
         inkscape:connector-curvature="0" />
      <path
         style="fill:none;stroke:#9d14aa;stroke-width:3;stroke-linecap:butt;stroke-linejoin:round;stroke-opacity:1"
         d="m 65.412,334.721 c 73.70529,192.47443 147.40849,384.94966 221.114,577.424 -32.64964,98.3542 -65.29835,196.7088 -97.948,295.063"
         id="path28"
         inkscape:connector-curvature="0" />
      <path
         style="fill:none;stroke:#9d14aa;stroke-width:3;stroke-linecap:butt;stroke-linejoin:round;stroke-opacity:1"
         d="m 201.516,330.196 c -45.36797,1.50929 -90.73604,3.01532 -136.104,4.525 -11.212783,130.99202 -22.426595,261.98395 -33.639,392.976 52.267873,159.83715 104.53744,319.6737 156.805,479.511 56.72049,-18.3446 113.44119,-36.6884 170.162,-55.032"
         id="path30"
         inkscape:connector-curvature="0" />
      <path
         style="fill:none;stroke:#9d14aa;stroke-width:3;stroke-linecap:butt;stroke-linejoin:round;stroke-opacity:1"
         d="M 413.888,802.538 C 588.5023,766.79016 763.11675,731.04308 937.731,695.295"
         id="path32"
         inkscape:connector-curvature="0" />
      <path
         style="fill:none;stroke:#9d14aa;stroke-width:3;stroke-linecap:butt;stroke-linejoin:round;stroke-opacity:1"
         d="m 876.56,774.49 c 20.3905,-26.39821 40.78078,-52.79658 61.171,-79.195 C 858.19295,564.50496 778.65297,433.71609 699.115,302.926 c -165.15,4.78397 -330.30002,9.56724 -495.45,14.352 -13.10796,78.78778 -26.21653,157.57547 -39.326,236.363"
         id="path34"
         inkscape:connector-curvature="0" />
      <path
         style="fill:none;stroke:#9d14aa;stroke-width:3;stroke-linecap:butt;stroke-linejoin:round;stroke-opacity:1"
         d="m 203.665,317.278 c 70.07572,161.75273 140.14797,323.50697 210.223,485.26 -38.86229,95.41675 -77.7226,190.8343 -116.585,286.251 22.6172,-6.6685 45.23452,-13.3365 67.852,-20.004"
         id="path36"
         inkscape:connector-curvature="0" />
      <path
         style="fill:none;stroke:#9d14aa;stroke-width:3;stroke-linecap:butt;stroke-linejoin:round;stroke-opacity:1"
         d="m 853.883,557.419 c 9.814,-1.36335 19.62799,-2.72675 29.442,-4.09"
         id="path38"
         inkscape:connector-curvature="0" />
      <path
         style="fill:none;stroke:#9d14aa;stroke-width:3;stroke-linecap:butt;stroke-linejoin:round;stroke-opacity:1"
         d="m 1126.062,996.17 c 24.4143,-8.97589 48.8286,-17.95147 73.243,-26.927"
         id="path40"
         inkscape:connector-curvature="0" />
      <path
         style="fill:none;stroke:#9d14aa;stroke-width:3;stroke-linecap:butt;stroke-linejoin:round;stroke-opacity:1"
         d="m 1026.066,911.277 c 77.3443,-24.1258 154.689,-48.25022 232.033,-72.377"
         id="path42"
         inkscape:connector-curvature="0" />
    </g>
  </g>
  <g
     id="fressstylelayer_hidden lines"
     inkscape:groupmode="lineset"
     inkscape:label="fressstylelayer_hidden lines">
    <g
       id="g240"
       inkscape:groupmode="layer"
       inkscape:label="strokes">
      <path
         style="fill:none;stroke:#007700;stroke-width:3;stroke-linecap:butt;stroke-linejoin:round;stroke-opacity:1"
         d="M 400.294,747.745 C 538.48148,722.28811 676.66845,696.82848 814.856,671.372"
         id="path46"
         inkscape:connector-curvature="0" />
      <path
         style="fill:none;stroke:#007700;stroke-width:3;stroke-linecap:butt;stroke-linejoin:round;stroke-opacity:1"
         d="M 814.856,671.372 C 754.55489,566.44073 694.25419,461.50922 633.953,356.578 502.00536,363.05263 370.0577,369.52675 238.11,376 c -18.07434,93.44313 -36.14926,186.88614 -54.225,280.329 41.9863,110.0593 83.97109,220.11917 125.956,330.179 119.04283,-31.78274 239.84195,-61.09868 357.811,-94.39 49.06831,-73.58177 98.13465,-147.1649 147.204,-220.746 z"
         id="path48"
         inkscape:connector-curvature="0" />
      <path
         style="fill:none;stroke:#007700;stroke-width:3;stroke-linecap:butt;stroke-linejoin:round;stroke-opacity:1"
         d="m 238.11,376 c 54.0614,123.91497 108.12258,247.83004 162.184,371.745 -30.1505,79.58786 -60.30143,159.17555 -90.453,238.763"
         id="path50"
         inkscape:connector-curvature="0" />
      <path
         style="fill:none;stroke:#007700;stroke-width:3;stroke-linecap:butt;stroke-linejoin:round;stroke-opacity:1"
         d="M 633.953,356.578 C 597.84404,440.45183 561.73476,524.32552 525.625,608.199"
         id="path52"
         inkscape:connector-curvature="0" />
      <path
         style="fill:none;stroke:#007700;stroke-width:3;stroke-linecap:butt;stroke-linejoin:round;stroke-opacity:1"
         d="M 666.792,893.407 C 619.73641,798.33763 572.68028,703.26852 525.625,608.199 c -113.91324,16.04402 -227.82669,32.08647 -341.74,48.13"
         id="path54"
         inkscape:connector-curvature="0" />
      <path
         style="fill:none;stroke:#007700;stroke-width:3;stroke-linecap:butt;stroke-linejoin:round;stroke-opacity:1"
         d="m 689.989,1041.78 c 117.15797,-37.7381 234.31631,-75.47505 351.474,-113.214"
         id="path56"
         inkscape:connector-curvature="0" />
      <path
         style="fill:none;stroke:#007700;stroke-width:3;stroke-linecap:butt;stroke-linejoin:round;stroke-opacity:1"
         d="M 1041.463,928.566 C 977.1731,820.91861 912.88272,713.2715 848.593,605.624 c -114.04676,18.43111 -228.91713,35.80017 -342.441,54.904 -31.75303,73.37013 -63.5074,146.73968 -95.26,220.11 47.14461,111.58258 94.29338,223.1634 141.438,334.746 104.01295,-38.5638 208.02586,-77.1277 312.039,-115.691 59.03144,-57.0422 118.06292,-114.0844 177.094,-171.127 z"
         id="path58"
         inkscape:connector-curvature="0" />
      <path
         style="fill:none;stroke:#007700;stroke-width:3;stroke-linecap:butt;stroke-linejoin:round;stroke-opacity:1"
         d="m 506.362,660.043 c 61.2082,127.24605 122.41793,254.49137 183.627,381.737 -45.88572,57.8685 -91.77265,115.736 -137.659,173.604"
         id="path60"
         inkscape:connector-curvature="0" />
      <path
         style="fill:none;stroke:#007700;stroke-width:3;stroke-linecap:butt;stroke-linejoin:round;stroke-opacity:1"
         d="M 848.593,605.624 C 803.59103,673.84591 758.58807,742.06716 713.586,810.289"
         id="path62"
         inkscape:connector-curvature="0" />
      <path
         style="fill:none;stroke:#007700;stroke-width:3;stroke-linecap:butt;stroke-linejoin:round;stroke-opacity:1"
         d="M 864.369,1099.693 C 814.10919,1003.2244 763.84686,906.75707 713.586,810.289 612.68792,833.73831 511.79005,857.18854 410.892,880.638"
         id="path64"
         inkscape:connector-curvature="0" />
      <path
         style="fill:none;stroke:#007700;stroke-width:3;stroke-linecap:butt;stroke-linejoin:round;stroke-opacity:1"
         d="m 930.641,941.042 c 31.80851,-9.9211 63.61662,-19.84349 95.425,-29.765"
         id="path66"
         inkscape:connector-curvature="0" />
      <path
         style="fill:none;stroke:#007700;stroke-width:3;stroke-linecap:butt;stroke-linejoin:round;stroke-opacity:1"
         d="m 715.004,558.364 c 71.87939,127.55911 143.75698,255.11924 215.637,382.678 -61.99035,65.7153 -123.97945,131.4318 -185.97,197.147"
         id="path68"
         inkscape:connector-curvature="0" />
      <path
         style="fill:none;stroke:#007700;stroke-width:3;stroke-linecap:butt;stroke-linejoin:round;stroke-opacity:1"
         d="M 1039.412,515.687 C 983.88611,589.95708 928.35931,664.22648 872.834,738.497"
         id="path70"
         inkscape:connector-curvature="0" />
      <path
         style="fill:none;stroke:#007700;stroke-width:3;stroke-linecap:butt;stroke-linejoin:round;stroke-opacity:1"
         d="M 1041.413,1028.878 C 985.21994,932.08437 929.02647,835.29098 872.834,738.497 775.91446,759.57838 678.99534,780.66168 582.076,801.744"
         id="path72"
         inkscape:connector-curvature="0" />
      <path
         style="fill:none;stroke:#007700;stroke-width:3;stroke-linecap:butt;stroke-linejoin:round;stroke-opacity:1"
         d="m 873.541,537.508 c -52.84567,6.95196 -105.69145,13.90313 -158.537,20.856 -44.30968,81.12648 -88.61933,162.25297 -132.928,243.38 54.19791,112.14854 108.39671,224.2966 162.595,336.445 99.58341,-37.5832 200.92227,-72.2143 299.4061,-111.647 41.029,-35.97161 82.058,-71.94327 123.0869,-107.915"
         id="path74"
         inkscape:connector-curvature="0" />
      <path
         style="fill:none;stroke:#007700;stroke-width:3;stroke-linecap:butt;stroke-linejoin:round;stroke-opacity:1"
         d="m 740.247,778.34 c 4.80596,-1.06719 9.61219,-2.13314 14.418,-3.201"
         id="path76"
         inkscape:connector-curvature="0" />
      <path
         style="fill:none;stroke:#007700;stroke-width:3;stroke-linecap:butt;stroke-linejoin:round;stroke-opacity:1"
         d="m 754.665,775.139 c 0.13279,-23.13025 -35.89493,-12.37051 -25.05673,4.92588 3.08787,14.38575 21.86968,5.43172 25.05673,-4.92588 z"
         id="path78"
         inkscape:connector-curvature="0" />
      <path
         style="fill:none;stroke:#007700;stroke-width:3;stroke-linecap:butt;stroke-linejoin:round;stroke-opacity:1"
         d="m 732.624,764.064 c 4.99155,9.55592 11.28306,14.77456 1.2,23.947"
         id="path80"
         inkscape:connector-curvature="0" />
      <path
         style="fill:none;stroke:#007700;stroke-width:3;stroke-linecap:butt;stroke-linejoin:round;stroke-opacity:1"
         d="m 747.025,760.96 c -2.13715,3.23645 -4.27549,6.47212 -6.412,9.709"
         id="path82"
         inkscape:connector-curvature="0" />
      <path
         style="fill:none;stroke:#007700;stroke-width:3;stroke-linecap:butt;stroke-linejoin:round;stroke-opacity:1"
         d="m 748.166,784.779 c -6.54134,-13.20693 -5.79774,-17.19249 -21.879,-10.974"
         id="path84"
         inkscape:connector-curvature="0" />
      <path
         style="fill:none;stroke:#007700;stroke-width:3;stroke-linecap:butt;stroke-linejoin:round;stroke-opacity:1"
         d="M 633.305,895.656 C 711.08921,875.56483 788.87329,855.47311 866.657,835.38"
         id="path86"
         inkscape:connector-curvature="0" />
      <path
         style="fill:none;stroke:#007700;stroke-width:3;stroke-linecap:butt;stroke-linejoin:round;stroke-opacity:1"
         d="M 866.657,835.38 C 827.12856,765.06806 787.59968,694.75637 748.072,624.444 c -76.18084,12.20268 -152.36204,24.40311 -228.543,36.605 -22.14336,50.00032 -44.28643,100.00077 -66.43,150.001 32.65932,71.56109 63.4415,147.20568 97.332,216.09 71.16423,-21.3283 142.32836,-42.65703 213.493,-63.984 34.24388,-42.59237 68.48916,-85.18361 102.733,-127.776 z"
         id="path88"
         inkscape:connector-curvature="0" />
      <path
         style="fill:none;stroke:#007700;stroke-width:3;stroke-linecap:butt;stroke-linejoin:round;stroke-opacity:1"
         d="m 519.529,661.049 c 37.92594,78.20204 75.85074,156.40463 113.776,234.607 -28.0493,43.95578 -56.09964,87.9109 -84.15,131.866"
         id="path90"
         inkscape:connector-curvature="0" />
      <path
         style="fill:none;stroke:#007700;stroke-width:3;stroke-linecap:butt;stroke-linejoin:round;stroke-opacity:1"
         d="m 748.072,624.444 c -28.27909,47.44161 -56.55737,94.88371 -84.837,142.325"
         id="path92"
         inkscape:connector-curvature="0" />
      <path
         style="fill:none;stroke:#007700;stroke-width:3;stroke-linecap:butt;stroke-linejoin:round;stroke-opacity:1"
         d="M 763.924,963.156 C 730.36116,897.69358 696.79798,832.23134 663.235,766.769 593.18984,781.53017 523.14439,796.28993 453.099,811.05"
         id="path94"
         inkscape:connector-curvature="0" />
      <path
         style="fill:none;stroke:#007700;stroke-width:3;stroke-linecap:butt;stroke-linejoin:round;stroke-opacity:1"
         d="m 862.59,708.1 c 34.48866,-7.02269 68.97715,-14.04623 103.466,-21.068"
         id="path96"
         inkscape:connector-curvature="0" />
      <path
         style="fill:none;stroke:#007700;stroke-width:3;stroke-linecap:butt;stroke-linejoin:round;stroke-opacity:1"
         d="m 966.056,687.032 c -20.90547,-33.80471 -41.80986,-67.61009 -62.715,-101.415 -34.29759,5.28614 -68.59526,10.57182 -102.893,15.857 -15.65655,27.20165 -36.4163,54.26975 -48.876,81.556 18.66637,33.74698 37.33297,67.49383 55.999,101.241 33.51142,-8.76247 69.3175,-13.90207 101.411,-24.902 19.02458,-24.1124 38.04865,-48.22521 57.074,-72.337 z"
         id="path98"
         inkscape:connector-curvature="0" />
      <path
         style="fill:none;stroke:#007700;stroke-width:3;stroke-linecap:butt;stroke-linejoin:round;stroke-opacity:1"
         d="m 800.448,601.474 c 20.71349,35.5423 41.42727,71.08443 62.142,106.626 -18.34062,25.38964 -36.67962,50.78046 -55.019,76.171"
         id="path100"
         inkscape:connector-curvature="0" />
      <path
         style="fill:none;stroke:#007700;stroke-width:3;stroke-linecap:butt;stroke-linejoin:round;stroke-opacity:1"
         d="m 903.341,585.617 c -17.79556,25.83833 -35.59506,51.67394 -53.391,77.512"
         id="path102"
         inkscape:connector-curvature="0" />
      <path
         style="fill:none;stroke:#007700;stroke-width:3;stroke-linecap:butt;stroke-linejoin:round;stroke-opacity:1"
         d="m 907.526,761.214 c -19.19084,-32.69568 -38.38471,-65.38958 -57.576,-98.085 -33.10227,6.07366 -66.20453,12.14743 -99.307,18.22"
         id="path104"
         inkscape:connector-curvature="0" />
      <path
         style="fill:none;stroke:#007700;stroke-width:3;stroke-linecap:butt;stroke-linejoin:round;stroke-opacity:1"
         d="m 914.957,724.78 c -31.9325,-53.59737 -63.86375,-107.19548 -95.796,-160.793 -143.47956,20.03575 -286.95931,40.07018 -430.439,60.105 -30.37148,90.20729 -60.74591,180.41358 -91.117,270.621 22.51544,58.02448 45.03391,116.0478 67.55,174.072"
         id="path106"
         inkscape:connector-curvature="0" />
      <path
         style="fill:none;stroke:#007700;stroke-width:3;stroke-linecap:butt;stroke-linejoin:round;stroke-opacity:1"
         d="m 388.722,624.092 c 33.26136,73.9845 66.52233,147.96918 99.783,221.954"
         id="path108"
         inkscape:connector-curvature="0" />
      <path
         style="fill:none;stroke:#007700;stroke-width:3;stroke-linecap:butt;stroke-linejoin:round;stroke-opacity:1"
         d="M 819.161,563.987 C 768.16927,646.19291 717.17517,728.39736 666.183,810.603"
         id="path110"
         inkscape:connector-curvature="0" />
      <path
         style="fill:none;stroke:#007700;stroke-width:3;stroke-linecap:butt;stroke-linejoin:round;stroke-opacity:1"
         d="M 840.43,1154.338 C 782.34796,1039.7595 724.26531,925.18134 666.183,810.603 543.32356,838.63918 420.4643,866.67618 297.605,894.713"
         id="path112"
         inkscape:connector-curvature="0" />
      <path
         style="fill:none;stroke:#007700;stroke-width:3;stroke-linecap:butt;stroke-linejoin:round;stroke-opacity:1"
         d="m 456.476,1304.11 c 127.98505,-49.923 255.96932,-99.848 383.954,-149.772 59.22744,-55.1985 118.45388,-110.3981 177.681,-165.597"
         id="path114"
         inkscape:connector-curvature="0" />
      <path
         style="fill:none;stroke:#007700;stroke-width:3;stroke-linecap:butt;stroke-linejoin:round;stroke-opacity:1"
         d="m 638.188,594.188 c 4.60733,-0.65233 9.21466,-1.3047 13.822,-1.957"
         id="path116"
         inkscape:connector-curvature="0" />
      <path
         style="fill:none;stroke:#007700;stroke-width:3;stroke-linecap:butt;stroke-linejoin:round;stroke-opacity:1"
         d="m 652.01,592.231 c -4.08315,-24.92591 -38.28917,-4.9199 -19.20906,11.79337 9.95003,0.21173 16.39381,-0.51009 19.20906,-11.79337 z"
         id="path118"
         inkscape:connector-curvature="0" />
      <path
         style="fill:none;stroke:#007700;stroke-width:3;stroke-linecap:butt;stroke-linejoin:round;stroke-opacity:1"
         d="m 631.573,581.771 c 5.33193,8.2066 8.72902,14.21482 1.439,22.652"
         id="path120"
         inkscape:connector-curvature="0" />
      <path
         style="fill:none;stroke:#007700;stroke-width:3;stroke-linecap:butt;stroke-linejoin:round;stroke-opacity:1"
         d="m 645.376,579.888 c -1.72665,3.41467 -3.4534,6.8293 -5.18,10.244"
         id="path122"
         inkscape:connector-curvature="0" />
      <path
         style="fill:none;stroke:#007700;stroke-width:3;stroke-linecap:butt;stroke-linejoin:round;stroke-opacity:1"
         d="m 646.762,602.426 c -4.92595,-12.76641 -7.03727,-13.90513 -20.298,-10.37"
         id="path124"
         inkscape:connector-curvature="0" />
      <path
         style="fill:none;stroke:#007700;stroke-width:3;stroke-linecap:butt;stroke-linejoin:round;stroke-opacity:1"
         d="M 1043.026,905.987 C 997.4868,830.28439 951.94758,754.58179 906.407,678.88 c -123.93506,24.1437 -247.87005,48.28776 -371.805,72.432 -36.47626,74.9637 -72.95339,149.92698 -109.429,224.891 52.53072,126.5331 105.0619,253.066 157.593,379.599 112.84817,-49.0465 227.01139,-95.8987 339.03956,-146.3129 68.33794,-54.7369 136.67564,-109.4741 205.01344,-164.2111"
         id="path126"
         inkscape:connector-curvature="0" />
      <path
         style="fill:none;stroke:#007700;stroke-width:3;stroke-linecap:butt;stroke-linejoin:round;stroke-opacity:1"
         d="m 534.602,751.312 c 54.75914,114.96444 109.51757,229.92922 164.276,344.894"
         id="path128"
         inkscape:connector-curvature="0" />
      <path
         style="fill:none;stroke:#007700;stroke-width:3;stroke-linecap:butt;stroke-linejoin:round;stroke-opacity:1"
         d="M 906.407,678.88 C 854.65508,748.87506 802.90333,818.87025 751.151,888.865"
         id="path130"
         inkscape:connector-curvature="0" />
      <path
         style="fill:none;stroke:#007700;stroke-width:3;stroke-linecap:butt;stroke-linejoin:round;stroke-opacity:1"
         d="M 919.04,1211.704 C 863.07642,1104.0913 807.11466,996.47766 751.151,888.865 642.49191,917.97859 533.83205,947.08927 425.173,976.203"
         id="path132"
         inkscape:connector-curvature="0" />
      <path
         style="fill:none;stroke:#007700;stroke-width:3;stroke-linecap:butt;stroke-linejoin:round;stroke-opacity:1"
         d="m 745.669,1194.442 c -54.30149,53.7862 -108.60267,107.5727 -162.903,161.36"
         id="path134"
         inkscape:connector-curvature="0" />
      <path
         style="fill:none;stroke:#007700;stroke-width:3;stroke-linecap:butt;stroke-linejoin:round;stroke-opacity:1"
         d="M 1066.599,898.634 C 1009.0984,804.31509 951.59706,709.99663 894.096,615.678 730.70619,642.87778 567.3168,670.08012 403.927,697.28 c -35.64708,97.12055 -71.29446,194.24099 -106.943,291.361 20.58574,54.5115 41.17043,109.0234 61.756,163.535"
         id="path136"
         inkscape:connector-curvature="0" />
      <path
         style="fill:none;stroke:#007700;stroke-width:3;stroke-linecap:butt;stroke-linejoin:round;stroke-opacity:1"
         d="m 403.927,697.28 c 64.2755,144.71745 128.54978,289.43543 192.825,434.153"
         id="path138"
         inkscape:connector-curvature="0" />
      <path
         style="fill:none;stroke:#007700;stroke-width:3;stroke-linecap:butt;stroke-linejoin:round;stroke-opacity:1"
         d="M 894.096,615.678 C 832.36085,704.24443 770.62807,792.81251 708.893,881.379"
         id="path140"
         inkscape:connector-curvature="0" />
      <path
         style="fill:none;stroke:#007700;stroke-width:3;stroke-linecap:butt;stroke-linejoin:round;stroke-opacity:1"
         d="M 910.856,1278.237 C 843.53548,1145.9508 776.2144,1013.6648 708.893,881.379 571.59008,917.1333 434.28711,952.88741 296.984,988.641"
         id="path142"
         inkscape:connector-curvature="0" />
      <path
         style="fill:none;stroke:#007700;stroke-width:3;stroke-linecap:butt;stroke-linejoin:round;stroke-opacity:1"
         d="m 741.985,699.716 c 83.17377,-15.82513 166.34719,-31.65211 249.521,-47.477"
         id="path144"
         inkscape:connector-curvature="0" />
      <path
         style="fill:none;stroke:#007700;stroke-width:3;stroke-linecap:butt;stroke-linejoin:round;stroke-opacity:1"
         d="m 809.89,434.576 c -67.84769,5.77811 -135.69537,11.55624 -203.543,17.335 -28.0227,63.81117 -56.04461,127.62269 -84.067,191.434 37.26307,76.28345 74.52768,152.56616 111.792,228.849 76.40348,-19.0444 152.80634,-38.0913 229.21,-57.135 42.74042,-54.27406 85.48272,-108.54662 128.224,-162.82 -25.36943,-40.07936 -50.73908,-80.15858 -76.11,-120.237"
         id="path146"
         inkscape:connector-curvature="0" />
      <path
         style="fill:none;stroke:#007700;stroke-width:3;stroke-linecap:butt;stroke-linejoin:round;stroke-opacity:1"
         d="m 606.347,451.911 c 45.21265,82.60168 90.42594,165.203 135.638,247.805 -35.96963,57.49352 -71.94343,114.98444 -107.913,172.478"
         id="path148"
         inkscape:connector-curvature="0" />
      <path
         style="fill:none;stroke:#007700;stroke-width:3;stroke-linecap:butt;stroke-linejoin:round;stroke-opacity:1"
         d="M 851.484,431.033 C 816.60484,490.29544 781.72549,549.55776 746.846,608.82"
         id="path150"
         inkscape:connector-curvature="0" />
      <path
         style="fill:none;stroke:#007700;stroke-width:3;stroke-linecap:butt;stroke-linejoin:round;stroke-opacity:1"
         d="M 863.282,815.059 C 824.46981,746.31277 785.65785,677.56642 746.846,608.82 671.99079,620.32914 597.13535,631.8368 522.28,643.345"
         id="path152"
         inkscape:connector-curvature="0" />
      <path
         style="fill:none;stroke:#007700;stroke-width:3;stroke-linecap:butt;stroke-linejoin:round;stroke-opacity:1"
         d="M 401.48,620.26 C 552.28095,599.31261 703.0819,578.36532 853.883,557.419"
         id="path154"
         inkscape:connector-curvature="0" />
      <path
         style="fill:none;stroke:#007700;stroke-width:3;stroke-linecap:butt;stroke-linejoin:round;stroke-opacity:1"
         d="M 668.629,206.139 C 626.21528,308.6237 583.80393,411.10938 541.39,513.594"
         id="path156"
         inkscape:connector-curvature="0" />
      <path
         style="fill:none;stroke:#007700;stroke-width:3;stroke-linecap:butt;stroke-linejoin:round;stroke-opacity:1"
         d="M 702.828,826.887 C 649.01501,722.45617 595.2031,618.02478 541.39,513.594 412.58705,527.27478 283.78408,540.95548 154.981,554.635"
         id="path158"
         inkscape:connector-curvature="0" />
      <path
         style="fill:none;stroke:#007700;stroke-width:3;stroke-linecap:butt;stroke-linejoin:round;stroke-opacity:1"
         d="m 190.849,330.551 c -11.95595,74.69467 -23.9124,149.38927 -35.868,224.084 47.29611,122.96155 94.59374,245.92251 141.89,368.884 135.31892,-32.21101 270.63798,-64.42142 405.957,-96.632 54.62726,-82.79205 109.25392,-165.58449 163.882,-248.376"
         id="path160"
         inkscape:connector-curvature="0" />
      <path
         style="fill:none;stroke:#007700;stroke-width:3;stroke-linecap:butt;stroke-linejoin:round;stroke-opacity:1"
         d="M 263.11,315.556 C 309.23339,417.12398 355.35624,518.69219 401.48,620.26 366.6099,721.34618 331.74017,822.43249 296.871,923.519"
         id="path162"
         inkscape:connector-curvature="0" />
      <path
         style="fill:none;stroke:#007700;stroke-width:3;stroke-linecap:butt;stroke-linejoin:round;stroke-opacity:1"
         d="m 958.707,1057.696 c 55.7851,-20.5083 111.57,-41.0174 167.355,-61.526"
         id="path164"
         inkscape:connector-curvature="0" />
      <path
         style="fill:none;stroke:#007700;stroke-width:3;stroke-linecap:butt;stroke-linejoin:round;stroke-opacity:1"
         d="m 1167.164,918.627 c -43.4474,-68.41753 -86.8934,-136.83597 -130.34,-205.254 -79.71556,17.72781 -159.43147,35.45408 -239.147,53.182 -37.69143,53.5354 -75.38453,107.06963 -113.076,160.605 43.38643,87.6019 86.77432,175.2032 130.161,262.805 75.32317,-30.9453 152.0939,-59.4339 226.5105,-91.9175 32.712,-26.6617 65.4238,-53.3235 98.1355,-79.9855"
         id="path166"
         inkscape:connector-curvature="0" />
      <path
         style="fill:none;stroke:#007700;stroke-width:3;stroke-linecap:butt;stroke-linejoin:round;stroke-opacity:1"
         d="m 797.677,766.555 c 53.67682,97.04691 107.35277,194.09432 161.03,291.141 -47.98155,44.0898 -95.96359,88.1791 -143.945,132.269"
         id="path168"
         inkscape:connector-curvature="0" />
      <path
         style="fill:none;stroke:#007700;stroke-width:3;stroke-linecap:butt;stroke-linejoin:round;stroke-opacity:1"
         d="M 1036.824,713.373 C 993.03619,764.31478 949.24682,815.25522 905.459,866.197"
         id="path170"
         inkscape:connector-curvature="0" />
      <path
         style="fill:none;stroke:#007700;stroke-width:3;stroke-linecap:butt;stroke-linejoin:round;stroke-opacity:1"
         d="M 1038.526,1100.286 C 994.1708,1022.2561 949.81528,944.22632 905.459,866.197 831.83942,886.51712 758.22029,906.83886 684.601,927.16"
         id="path172"
         inkscape:connector-curvature="0" />
      <path
         style="fill:none;stroke:#007700;stroke-width:3;stroke-linecap:butt;stroke-linejoin:round;stroke-opacity:1"
         d="M 629.788,940.721 C 776.67887,900.26506 923.5692,859.80719 1070.46,819.351"
         id="path174"
         inkscape:connector-curvature="0" />
      <path
         style="fill:none;stroke:#007700;stroke-width:3;stroke-linecap:butt;stroke-linejoin:round;stroke-opacity:1"
         d="M 1070.46,819.351 C 992.26364,694.25189 914.06845,569.15205 835.872,444.053 c -141.68695,12.76552 -283.37407,25.52918 -425.061,38.295 -31.66792,98.98669 -63.33528,197.97356 -95.004,296.96 53.40823,131.25497 106.81525,262.5104 160.222,393.766 126.52968,-43.644 253.05941,-87.2878 379.589,-130.932 71.6143,-74.26338 143.22728,-148.52803 214.842,-222.791 z"
         id="path176"
         inkscape:connector-curvature="0" />
      <path
         style="fill:none;stroke:#007700;stroke-width:3;stroke-linecap:butt;stroke-linejoin:round;stroke-opacity:1"
         d="m 410.811,482.348 c 72.99338,152.7905 145.98476,305.58195 218.977,458.373 -51.25237,77.4514 -102.50572,154.9022 -153.759,232.353"
         id="path178"
         inkscape:connector-curvature="0" />
      <path
         style="fill:none;stroke:#007700;stroke-width:3;stroke-linecap:butt;stroke-linejoin:round;stroke-opacity:1"
         d="M 835.872,444.053 C 784.13292,532.72768 732.39252,621.40158 680.653,710.076"
         id="path180"
         inkscape:connector-curvature="0" />
      <path
         style="fill:none;stroke:#007700;stroke-width:3;stroke-linecap:butt;stroke-linejoin:round;stroke-opacity:1"
         d="M 855.618,1042.142 C 797.29687,931.45305 738.97378,820.76513 680.653,710.076 559.03781,733.15407 437.42235,756.23077 315.807,779.308"
         id="path182"
         inkscape:connector-curvature="0" />
      <path
         style="fill:none;stroke:#007700;stroke-width:3;stroke-linecap:butt;stroke-linejoin:round;stroke-opacity:1"
         d="m 797.021,878.156 c 18.95643,-5.08938 37.91174,-10.18296 56.868,-15.273"
         id="path184"
         inkscape:connector-curvature="0" />
      <path
         style="fill:none;stroke:#007700;stroke-width:3;stroke-linecap:butt;stroke-linejoin:round;stroke-opacity:1"
         d="m 853.889,862.883 c -10.70963,-19.33335 -21.41875,-38.66699 -32.129,-58 -19.06816,6.23976 -42.00355,6.77375 -58.69142,16.52548 -5.66406,15.16217 -32.57032,28.8891 -18.12058,45.41052 10.01647,13.70978 14.92868,39.21342 27.9238,46.04103 23.18943,-9.04297 53.76362,-6.8357 66.39078,-31.96755 4.87511,-6.00346 9.75121,-12.00611 14.62642,-18.00948 z"
         id="path186"
         inkscape:connector-curvature="0" />
      <path
         style="fill:none;stroke:#007700;stroke-width:3;stroke-linecap:butt;stroke-linejoin:round;stroke-opacity:1"
         d="m 765.115,818.516 c 10.63442,19.88049 21.27077,39.75994 31.906,59.64 -9.18617,11.88731 -18.37459,23.77287 -27.561,35.66"
         id="path188"
         inkscape:connector-curvature="0" />
      <path
         style="fill:none;stroke:#007700;stroke-width:3;stroke-linecap:butt;stroke-linejoin:round;stroke-opacity:1"
         d="m 821.76,804.883 c -9.07868,12.16415 -18.15867,24.32733 -27.238,36.491"
         id="path190"
         inkscape:connector-curvature="0" />
      <path
         style="fill:none;stroke:#007700;stroke-width:3;stroke-linecap:butt;stroke-linejoin:round;stroke-opacity:1"
         d="m 825.208,898.198 c -10.22819,-18.94159 -20.45777,-37.88243 -30.686,-56.824 -18.50549,4.68401 -37.01137,9.36653 -55.517,14.05"
         id="path192"
         inkscape:connector-curvature="0" />
      <path
         style="fill:none;stroke:#007700;stroke-width:3;stroke-linecap:butt;stroke-linejoin:round;stroke-opacity:1"
         d="m 373.132,892.305 c 68.69647,-16.03684 137.39351,-32.07123 206.09,-48.108"
         id="path194"
         inkscape:connector-curvature="0" />
      <path
         style="fill:none;stroke:#007700;stroke-width:3;stroke-linecap:butt;stroke-linejoin:round;stroke-opacity:1"
         d="m 579.222,844.197 c -27.27467,-57.25049 -54.55033,-114.50051 -81.825,-171.751 -67.00082,10.92407 -134.00125,21.85053 -201.002,32.775 -10.15545,40.55842 -26.31124,81.38415 -32.71251,121.77566 22.12634,57.34892 44.2516,114.69826 66.37751,172.04734 63.5223,-16.96114 127.04468,-33.92197 190.567,-50.883 19.53172,-34.65463 39.06324,-69.30939 58.595,-103.964 z"
         id="path196"
         inkscape:connector-curvature="0" />
      <path
         style="fill:none;stroke:#007700;stroke-width:3;stroke-linecap:butt;stroke-linejoin:round;stroke-opacity:1"
         d="m 296.395,705.221 c 25.57797,62.36176 51.15855,124.72244 76.737,187.084 -14.35729,35.57968 -28.71484,71.15927 -43.072,106.739"
         id="path198"
         inkscape:connector-curvature="0" />
      <path
         style="fill:none;stroke:#007700;stroke-width:3;stroke-linecap:butt;stroke-linejoin:round;stroke-opacity:1"
         d="m 497.397,672.446 c -16.31333,37.92543 -32.62379,75.85209 -48.936,113.778"
         id="path200"
         inkscape:connector-curvature="0" />
      <path
         style="fill:none;stroke:#007700;stroke-width:3;stroke-linecap:butt;stroke-linejoin:round;stroke-opacity:1"
         d="M 520.627,948.161 C 496.57168,894.18199 472.51637,840.20298 448.461,786.224 386.44289,798.71248 324.42503,811.20216 262.407,823.691"
         id="path202"
         inkscape:connector-curvature="0" />
      <path
         style="fill:none;stroke:#007700;stroke-width:3;stroke-linecap:butt;stroke-linejoin:round;stroke-opacity:1"
         d="m 822.675,669.614 c 6.04258,-1.11283 12.0852,-2.22537 18.128,-3.337"
         id="path204"
         inkscape:connector-curvature="0" />
      <path
         style="fill:none;stroke:#007700;stroke-width:3;stroke-linecap:butt;stroke-linejoin:round;stroke-opacity:1"
         d="m 840.803,666.277 c -3.67802,-22.75105 -30.28195,-21.27493 -37.068,-1.57082 1.77324,17.97082 24.60361,25.37617 33.406,6.92682 1.22072,-1.78529 2.44105,-3.57086 3.662,-5.356 z"
         id="path206"
         inkscape:connector-curvature="0" />
      <path
         style="fill:none;stroke:#007700;stroke-width:3;stroke-linecap:butt;stroke-linejoin:round;stroke-opacity:1"
         d="m 812.297,651.64 c 8.25438,12.89318 14.24097,19.07916 1.187,31.654"
         id="path208"
         inkscape:connector-curvature="0" />
      <path
         style="fill:none;stroke:#007700;stroke-width:3;stroke-linecap:butt;stroke-linejoin:round;stroke-opacity:1"
         d="m 830.403,648.457 c -3.04982,4.57223 -6.09973,9.1444 -9.149,13.717"
         id="path210"
         inkscape:connector-curvature="0" />
      <path
         style="fill:none;stroke:#007700;stroke-width:3;stroke-linecap:butt;stroke-linejoin:round;stroke-opacity:1"
         d="m 831.498,679.888 c -7.22616,-16.80819 -10.5617,-20.10876 -28.236,-14.46"
         id="path212"
         inkscape:connector-curvature="0" />
      <path
         style="fill:none;stroke:#007700;stroke-width:3;stroke-linecap:butt;stroke-linejoin:round;stroke-opacity:1"
         d="m 622.191,699.886 c 18.60983,-3.37708 37.21908,-6.75741 55.829,-10.134"
         id="path214"
         inkscape:connector-curvature="0" />
      <path
         style="fill:none;stroke:#007700;stroke-width:3;stroke-linecap:butt;stroke-linejoin:round;stroke-opacity:1"
         d="m 678.02,689.752 c -10.8005,-15.18629 -16.31907,-40.96196 -30.22374,-49.9245 -16.94818,5.49466 -41.06524,1.25934 -53.96792,12.24555 -7.0825,17.56297 -25.55172,35.14401 -8.27334,52.66795 9.18813,13.89019 11.4542,41.81697 33.495,29.633 20.13507,-3.88143 43.53087,-3.21268 49.11572,-27.40992 3.28452,-5.7375 6.56914,-11.47494 9.85428,-17.21208 z"
         id="path216"
         inkscape:connector-curvature="0" />
      <path
         style="fill:none;stroke:#007700;stroke-width:3;stroke-linecap:butt;stroke-linejoin:round;stroke-opacity:1"
         d="m 595.771,648.147 c 7.20831,18.27919 22.9772,36.63593 24.75013,54.86403 -6.17817,11.56107 -12.35516,23.12278 -18.53313,34.68397"
         id="path218"
         inkscape:connector-curvature="0" />
      <path
         style="fill:none;stroke:#007700;stroke-width:3;stroke-linecap:butt;stroke-linejoin:round;stroke-opacity:1"
         d="m 651.295,639.268 c -6.76201,12.71537 -13.52694,25.42919 -20.29,38.144"
         id="path220"
         inkscape:connector-curvature="0" />
      <path
         style="fill:none;stroke:#007700;stroke-width:3;stroke-linecap:butt;stroke-linejoin:round;stroke-opacity:1"
         d="m 656.664,727.053 c -11.77988,-14.33172 -14.81113,-46.27882 -32.64114,-48.42995 -15.79754,2.74047 -31.59529,5.4797 -47.39286,8.21995"
         id="path222"
         inkscape:connector-curvature="0" />
      <path
         style="fill:none;stroke:#007700;stroke-width:3;stroke-linecap:butt;stroke-linejoin:round;stroke-opacity:1"
         d="m 358.74,1152.176 c 110.72658,-35.8103 221.4532,-71.6204 332.18,-107.43 C 764.90936,951.83569 838.89784,858.92467 912.888,766.015 824.59255,615.79507 736.29756,465.57487 648.002,315.355 499.17331,320.30132 350.3447,325.25 201.516,330.196"
         id="path224"
         inkscape:connector-curvature="0" />
      <path
         style="fill:none;stroke:#007700;stroke-width:3;stroke-linecap:butt;stroke-linejoin:round;stroke-opacity:1"
         d="M 648.002,315.355 C 599.66059,428.2123 551.3196,541.06978 502.978,653.927"
         id="path226"
         inkscape:connector-curvature="0" />
      <path
         style="fill:none;stroke:#007700;stroke-width:3;stroke-linecap:butt;stroke-linejoin:round;stroke-opacity:1"
         d="M 690.92,1044.746 C 628.27332,914.47269 565.62483,784.20024 502.978,653.927 345.90984,678.51812 188.84115,703.10582 31.773,727.697"
         id="path228"
         inkscape:connector-curvature="0" />
      <path
         style="fill:none;stroke:#007700;stroke-width:3;stroke-linecap:butt;stroke-linejoin:round;stroke-opacity:1"
         d="M 699.115,302.926 C 652.04701,406.33519 604.9803,509.74495 557.912,613.154"
         id="path230"
         inkscape:connector-curvature="0" />
      <path
         style="fill:none;stroke:#007700;stroke-width:3;stroke-linecap:butt;stroke-linejoin:round;stroke-opacity:1"
         d="M 733.012,960.333 C 674.64536,844.60665 616.2797,728.87981 557.912,613.154 420.10926,633.05481 282.30672,652.95701 144.504,672.858"
         id="path232"
         inkscape:connector-curvature="0" />
      <path
         style="fill:none;stroke:#007700;stroke-width:3;stroke-linecap:butt;stroke-linejoin:round;stroke-opacity:1"
         d="m 164.339,553.641 c -5.62964,40.79378 -16.00021,82.03266 -18.61302,122.54281 C 196.25153,813.71892 246.77851,951.2535 297.303,1088.789"
         id="path234"
         inkscape:connector-curvature="0" />
      <path
         style="fill:none;stroke:#007700;stroke-width:3;stroke-linecap:butt;stroke-linejoin:round;stroke-opacity:1"
         d="M 365.155,1068.785 C 487.77377,1032.6336 610.39293,996.48344 733.012,960.333 780.86116,898.3852 828.71071,836.4377 876.56,774.49"
         id="path236"
         inkscape:connector-curvature="0" />
      <path
         style="fill:none;stroke:#007700;stroke-width:3;stroke-linecap:butt;stroke-linejoin:round;stroke-opacity:1"
         d="M 362.634,894.389 C 546.05193,851.59739 729.46994,808.8061 912.888,766.015"
         id="path238"
         inkscape:connector-curvature="0" />
    </g>
  </g>
</svg>
