<?xml version="1.0" encoding="UTF-8" standalone="no"?>
<svg
   xmlns:dc="http://purl.org/dc/elements/1.1/"
   xmlns:cc="http://creativecommons.org/ns#"
   xmlns:rdf="http://www.w3.org/1999/02/22-rdf-syntax-ns#"
   xmlns:svg="http://www.w3.org/2000/svg"
   xmlns="http://www.w3.org/2000/svg"
   xmlns:sodipodi="http://sodipodi.sourceforge.net/DTD/sodipodi-0.dtd"
   xmlns:inkscape="http://www.inkscape.org/namespaces/inkscape"
   height="1500"
   version="1.1"
   width="1500"
   id="svg123"
   sodipodi:docname="processed_scattercubes_04_23_2019_11380000.svg"
   inkscape:version="0.92.2 5c3e80d, 2017-08-06">
  <metadata
     id="metadata129">
    <rdf:RDF>
      <cc:Work
         rdf:about="">
        <dc:format>image/svg+xml</dc:format>
        <dc:type
           rdf:resource="http://purl.org/dc/dcmitype/StillImage" />
        <dc:title></dc:title>
      </cc:Work>
    </rdf:RDF>
  </metadata>
  <defs
     id="defs127" />
  <sodipodi:namedview
     pagecolor="#ffffff"
     bordercolor="#666666"
     borderopacity="1"
     objecttolerance="10"
     gridtolerance="10"
     guidetolerance="10"
     inkscape:pageopacity="0"
     inkscape:pageshadow="2"
     inkscape:window-width="748"
     inkscape:window-height="480"
     id="namedview125"
     showgrid="false"
     inkscape:zoom="0.15733333"
     inkscape:cx="750"
     inkscape:cy="750"
     inkscape:window-x="1680"
     inkscape:window-y="0"
     inkscape:window-maximized="0"
     inkscape:current-layer="svg123" />
  <g
     id="fressstylelayer_LineSet"
     inkscape:groupmode="lineset"
     inkscape:label="fressstylelayer_LineSet">
    <g
       id="strokes"
       inkscape:groupmode="layer"
       inkscape:label="strokes">
      <path
         style="fill:none;stroke:#9d14aa;stroke-width:3;stroke-linecap:butt;stroke-linejoin:round;stroke-opacity:1"
         d="m 428.876,403.478 c 254.17667,193.69989 508.35246,387.40093 762.529,581.101"
         id="path2"
         inkscape:connector-curvature="0" />
      <path
         style="fill:none;stroke:#9d14aa;stroke-width:3;stroke-linecap:butt;stroke-linejoin:round;stroke-opacity:1"
         d="m 594.982,417.409 c -55.36871,-4.64317 -110.73728,-9.28797 -166.106,-13.931 -118.47665,221.38534 -236.95389,442.77037 -355.43,664.156 197.10689,183.8364 394.21371,367.6729 591.32,551.51 175.54661,-211.5214 351.0934,-423.0427 526.639,-634.565 5.9684,-14.73671 11.9358,-29.47381 17.903,-44.211"
         id="path4"
         inkscape:connector-curvature="0" />
      <path
         style="fill:none;stroke:#9d14aa;stroke-width:3;stroke-linecap:butt;stroke-linejoin:round;stroke-opacity:1"
         d="m 666.798,403.289 c 204.81069,149.96109 409.6225,299.92061 614.433,449.882"
         id="path6"
         inkscape:connector-curvature="0" />
      <path
         style="fill:none;stroke:#9d14aa;stroke-width:3;stroke-linecap:butt;stroke-linejoin:round;stroke-opacity:1"
         d="m 1209.308,940.368 c 23.9096,-31.96904 54.6817,-60.25046 74.1822,-94.58903 10.9523,-35.83265 21.9043,-71.66539 32.8568,-107.49797 -81.4527,-57.93526 -162.905,-115.87112 -244.358,-173.806"
         id="path8"
         inkscape:connector-curvature="0" />
      <path
         style="fill:none;stroke:#9d14aa;stroke-width:3;stroke-linecap:butt;stroke-linejoin:round;stroke-opacity:1"
         d="m 729.593,410.296 c -20.96931,0.0123 -46.91703,-9.95462 -64.76257,-3.68056 -9.2887,15.70631 -18.57927,31.41152 -27.86843,47.11756"
         id="path10"
         inkscape:connector-curvature="0" />
      <path
         style="fill:none;stroke:#9d14aa;stroke-width:3;stroke-linecap:butt;stroke-linejoin:round;stroke-opacity:1"
         d="m 1071.989,564.475 c 8.2689,-16.23705 31.6295,-35.05838 30.7951,-49.73472 C 969.64841,422.33627 837.77044,327.5028 703.84853,236.61711 618.83159,206.08936 533.81513,175.56023 448.798,145.033 c -14.84431,29.18035 -29.69044,58.35978 -44.535,87.54"
         id="path12"
         inkscape:connector-curvature="0" />
      <path
         style="fill:none;stroke:#9d14aa;stroke-width:3;stroke-linecap:butt;stroke-linejoin:round;stroke-opacity:1"
         d="M 448.798,145.033 C 628.34547,273.47034 807.89222,401.90869 987.439,530.347"
         id="path14"
         inkscape:connector-curvature="0" />
      <path
         style="fill:none;stroke:#9d14aa;stroke-width:3;stroke-linecap:butt;stroke-linejoin:round;stroke-opacity:1"
         d="m 956.496,575.315 c 16.15998,-17.03664 22.22395,-50.90238 50.816,-47.214 32.8794,-3.71399 65.7586,-7.43022 98.638,-11.144"
         id="path16"
         inkscape:connector-curvature="0" />
      <path
         style="fill:none;stroke:#9d14aa;stroke-width:3;stroke-linecap:butt;stroke-linejoin:round;stroke-opacity:1"
         d="m 316.147,210.15 c 107.63925,80.00956 215.27935,160.01798 322.919,240.027"
         id="path18"
         inkscape:connector-curvature="0" />
      <path
         style="fill:none;stroke:#9d14aa;stroke-width:3;stroke-linecap:butt;stroke-linejoin:round;stroke-opacity:1"
         d="M 404.263,232.573 C 374.89075,225.09966 345.51892,217.62463 316.147,210.15 238.29575,370.26821 160.44472,530.38653 82.594,690.505 c 43.94306,37.89904 87.88716,75.79687 131.831,113.695"
         id="path20"
         inkscape:connector-curvature="0" />
    </g>
  </g>
  <g
     id="fressstylelayer_hidden lines"
     inkscape:groupmode="lineset"
     inkscape:label="fressstylelayer_hidden lines">
    <g
       id="g120"
       inkscape:groupmode="layer"
       inkscape:label="strokes">
      <path
         style="fill:none;stroke:#007700;stroke-width:3;stroke-linecap:butt;stroke-linejoin:round;stroke-opacity:1"
         d="M 806.451,424.95 C 759.71297,420.21929 712.97495,415.48847 666.237,410.757 600.20902,522.21941 534.18004,633.68122 468.151,745.143 569.31082,827.60007 670.46957,910.05845 771.629,992.516 811.96159,957.49205 857.08269,927.00297 894.335,889.062 958.25781,801.40171 1022.1822,713.74255 1086.106,626.083 992.88721,559.03931 899.66951,491.99409 806.451,424.95 Z"
         id="path24"
         inkscape:connector-curvature="0" />
      <path
         style="fill:none;stroke:#007700;stroke-width:3;stroke-linecap:butt;stroke-linejoin:round;stroke-opacity:1"
         d="m 666.237,410.757 c 114.0863,83.68071 228.17237,167.36173 342.259,251.042"
         id="path26"
         inkscape:connector-curvature="0" />
      <path
         style="fill:none;stroke:#007700;stroke-width:3;stroke-linecap:butt;stroke-linejoin:round;stroke-opacity:1"
         d="m 771.629,992.516 c 78.9558,-110.2389 157.91126,-220.47805 236.867,-330.717 25.8702,-11.9049 51.74,-23.8106 77.61,-35.716"
         id="path28"
         inkscape:connector-curvature="0" />
      <path
         style="fill:none;stroke:#007700;stroke-width:3;stroke-linecap:butt;stroke-linejoin:round;stroke-opacity:1"
         d="m 468.151,745.143 c 55.59394,-15.65688 111.18805,-31.31317 166.782,-46.97"
         id="path30"
         inkscape:connector-curvature="0" />
      <path
         style="fill:none;stroke:#007700;stroke-width:3;stroke-linecap:butt;stroke-linejoin:round;stroke-opacity:1"
         d="m 806.451,424.95 c -57.17216,91.07465 -114.34557,182.14852 -171.518,273.223 84.50334,66.32223 169.00569,132.64573 253.509,198.968"
         id="path32"
         inkscape:connector-curvature="0" />
      <path
         style="fill:none;stroke:#007700;stroke-width:3;stroke-linecap:butt;stroke-linejoin:round;stroke-opacity:1"
         d="m 1209.308,940.368 c 18.9378,-46.7666 37.8755,-93.53327 56.813,-140.3 C 1096.6709,677.0662 927.22092,554.06412 757.771,431.062 703.50795,426.51161 649.24498,421.96024 594.982,417.409"
         id="path34"
         inkscape:connector-curvature="0" />
      <path
         style="fill:none;stroke:#007700;stroke-width:3;stroke-linecap:butt;stroke-linejoin:round;stroke-opacity:1"
         d="m 664.766,1619.144 c 79.12905,-123.1372 158.25593,-246.2758 237.385,-369.413"
         id="path36"
         inkscape:connector-curvature="0" />
      <path
         style="fill:none;stroke:#007700;stroke-width:3;stroke-linecap:butt;stroke-linejoin:round;stroke-opacity:1"
         d="m 474.175,890.646 c 142.65947,119.694 285.31671,239.3907 427.976,359.085 121.323,-149.8879 242.647,-299.77507 363.97,-449.663"
         id="path38"
         inkscape:connector-curvature="0" />
      <path
         style="fill:none;stroke:#007700;stroke-width:3;stroke-linecap:butt;stroke-linejoin:round;stroke-opacity:1"
         d="M 73.446,1067.634 C 207.02192,1008.6371 340.59859,949.64183 474.175,890.646 568.70717,737.45144 663.2399,584.25722 757.771,431.062"
         id="path40"
         inkscape:connector-curvature="0" />
      <path
         style="fill:none;stroke:#007700;stroke-width:3;stroke-linecap:butt;stroke-linejoin:round;stroke-opacity:1"
         d="m 620.509,441.49 c -47.59998,-2.64237 -95.19998,-5.28436 -142.8,-7.926 -48.08635,87.32817 -96.17441,174.65541 -144.26,261.984 77.01583,63.58514 154.03118,127.17085 231.047,190.756 42.44257,-22.03694 88.49539,-39.94304 128.69847,-64.54256 C 741.4876,748.97138 789.78126,676.18166 838.075,603.392 765.553,549.42467 693.0312,495.45706 620.509,441.49 Z"
         id="path42"
         inkscape:connector-curvature="0" />
      <path
         style="fill:none;stroke:#007700;stroke-width:3;stroke-linecap:butt;stroke-linejoin:round;stroke-opacity:1"
         d="m 477.709,433.564 c 84.43983,64.24569 168.87846,128.49294 253.318,192.739"
         id="path44"
         inkscape:connector-curvature="0" />
      <path
         style="fill:none;stroke:#007700;stroke-width:3;stroke-linecap:butt;stroke-linejoin:round;stroke-opacity:1"
         d="m 564.496,886.304 c 55.50992,-86.66727 111.02134,-173.33357 166.531,-260.001 35.68284,-7.6362 71.36506,-15.27528 107.048,-22.911"
         id="path46"
         inkscape:connector-curvature="0" />
      <path
         style="fill:none;stroke:#007700;stroke-width:3;stroke-linecap:butt;stroke-linejoin:round;stroke-opacity:1"
         d="m 333.449,695.548 c 52.15946,-10.38539 104.31924,-20.76912 156.479,-31.153"
         id="path48"
         inkscape:connector-curvature="0" />
      <path
         style="fill:none;stroke:#007700;stroke-width:3;stroke-linecap:butt;stroke-linejoin:round;stroke-opacity:1"
         d="m 620.509,441.49 c -43.52784,74.30117 -87.05383,148.60343 -130.581,222.905 67.04404,53.52812 134.0868,107.05783 201.13,160.587"
         id="path50"
         inkscape:connector-curvature="0" />
      <path
         style="fill:none;stroke:#007700;stroke-width:3;stroke-linecap:butt;stroke-linejoin:round;stroke-opacity:1"
         d="M 1071.989,564.475 C 1007.5255,518.6231 943.06168,472.77164 878.598,426.92 828.92949,421.38028 779.26158,415.83516 729.593,410.296"
         id="path52"
         inkscape:connector-curvature="0" />
      <path
         style="fill:none;stroke:#007700;stroke-width:3;stroke-linecap:butt;stroke-linejoin:round;stroke-opacity:1"
         d="m 636.962,453.733 c -97.62293,165.05037 -195.24507,330.10122 -292.869,495.151 166.69828,144.7163 333.39576,289.4336 500.094,434.15 121.70625,-147.5559 243.4148,-295.11 365.121,-442.666"
         id="path54"
         inkscape:connector-curvature="0" />
      <path
         style="fill:none;stroke:#007700;stroke-width:3;stroke-linecap:butt;stroke-linejoin:round;stroke-opacity:1"
         d="m 844.187,1383.034 c 51.32191,-83.8906 102.64389,-167.7811 153.967,-251.671"
         id="path56"
         inkscape:connector-curvature="0" />
      <path
         style="fill:none;stroke:#007700;stroke-width:3;stroke-linecap:butt;stroke-linejoin:round;stroke-opacity:1"
         d="m 620.797,826.467 c 125.78634,101.63117 251.57132,203.264 377.357,304.896 106.0634,-131.0281 212.129,-262.05443 318.193,-393.082"
         id="path58"
         inkscape:connector-curvature="0" />
      <path
         style="fill:none;stroke:#007700;stroke-width:3;stroke-linecap:butt;stroke-linejoin:round;stroke-opacity:1"
         d="M 344.093,948.884 C 436.32813,908.07939 528.56217,867.27229 620.797,826.467 706.73085,693.28478 792.66518,560.10288 878.598,426.92"
         id="path60"
         inkscape:connector-curvature="0" />
      <path
         style="fill:none;stroke:#007700;stroke-width:3;stroke-linecap:butt;stroke-linejoin:round;stroke-opacity:1"
         d="m 681.31,581.907 c -51.11695,6.99335 -102.23401,13.98596 -153.351,20.979 -56.67872,96.67236 -113.35934,193.34361 -170.038,290.016 89.77737,76.88102 179.55516,153.7615 269.333,230.642 45.50701,-40.1111 95.94415,-75.6394 138.369,-118.616 C 821.16052,927.47065 876.69949,850.01435 932.237,772.557 848.59529,709.00618 764.9521,645.45731 681.31,581.907 Z"
         id="path62"
         inkscape:connector-curvature="0" />
      <path
         style="fill:none;stroke:#007700;stroke-width:3;stroke-linecap:butt;stroke-linejoin:round;stroke-opacity:1"
         d="m 527.959,602.886 c 99.96837,78.26919 199.93645,156.53876 299.904,234.809"
         id="path64"
         inkscape:connector-curvature="0" />
      <path
         style="fill:none;stroke:#007700;stroke-width:3;stroke-linecap:butt;stroke-linejoin:round;stroke-opacity:1"
         d="m 627.254,1123.544 c 66.87097,-95.2821 133.73858,-190.56652 200.609,-285.849 34.79107,-21.71309 69.58274,-43.42522 104.374,-65.138"
         id="path66"
         inkscape:connector-curvature="0" />
      <path
         style="fill:none;stroke:#007700;stroke-width:3;stroke-linecap:butt;stroke-linejoin:round;stroke-opacity:1"
         d="m 357.921,892.902 c 57.47973,-22.66317 114.95943,-45.32642 172.439,-67.99"
         id="path68"
         inkscape:connector-curvature="0" />
      <path
         style="fill:none;stroke:#007700;stroke-width:3;stroke-linecap:butt;stroke-linejoin:round;stroke-opacity:1"
         d="m 681.31,581.907 c -50.31624,81.00193 -100.63295,162.00357 -150.95,243.005 76.47844,62.71461 152.95719,125.42884 229.436,188.143"
         id="path70"
         inkscape:connector-curvature="0" />
      <path
         style="fill:none;stroke:#007700;stroke-width:3;stroke-linecap:butt;stroke-linejoin:round;stroke-opacity:1"
         d="m 451.409,549.956 c -41.08264,2.85699 -82.16529,5.7139 -123.248,8.57 -32.44137,61.12051 -64.88483,122.23991 -97.327,183.36 53.95985,45.80484 107.92023,91.60906 161.88,137.414 37.99748,-15.05366 76.16798,-29.90274 114.056,-45.087 C 540.1352,780.09387 573.49762,725.97302 606.863,671.854 555.04499,631.22135 503.22702,590.58864 451.409,549.956 Z"
         id="path72"
         inkscape:connector-curvature="0" />
      <path
         style="fill:none;stroke:#007700;stroke-width:3;stroke-linecap:butt;stroke-linejoin:round;stroke-opacity:1"
         d="m 328.161,558.526 c 57.5608,46.1915 115.12136,92.3833 172.682,138.575"
         id="path74"
         inkscape:connector-curvature="0" />
      <path
         style="fill:none;stroke:#007700;stroke-width:3;stroke-linecap:butt;stroke-linejoin:round;stroke-opacity:1"
         d="m 392.714,879.3 c 36.04378,-60.73253 72.08634,-121.4658 108.129,-182.199 35.34015,-8.41502 70.67973,-16.83245 106.02,-25.247"
         id="path76"
         inkscape:connector-curvature="0" />
      <path
         style="fill:none;stroke:#007700;stroke-width:3;stroke-linecap:butt;stroke-linejoin:round;stroke-opacity:1"
         d="m 230.834,741.886 c 43.0377,-9.52684 86.07542,-19.05359 129.113,-28.581"
         id="path78"
         inkscape:connector-curvature="0" />
      <path
         style="fill:none;stroke:#007700;stroke-width:3;stroke-linecap:butt;stroke-linejoin:round;stroke-opacity:1"
         d="m 451.409,549.956 c -30.48712,54.44978 -60.97344,108.90002 -91.462,163.349 48.91342,40.34782 97.82563,80.69712 146.739,121.045"
         id="path80"
         inkscape:connector-curvature="0" />
      <path
         style="fill:none;stroke:#007700;stroke-width:3;stroke-linecap:butt;stroke-linejoin:round;stroke-opacity:1"
         d="M 404.263,232.573 C 328.10721,382.26594 251.95242,531.95938 175.796,681.652 324.83425,807.80443 473.87286,933.95644 622.911,1060.109 691.16672,1008.1612 761.69116,958.43484 828.54001,905.10957 909.68931,791.56445 990.83886,678.01951 1071.989,564.475"
         id="path82"
         inkscape:connector-curvature="0" />
      <path
         style="fill:none;stroke:#007700;stroke-width:3;stroke-linecap:butt;stroke-linejoin:round;stroke-opacity:1"
         d="M 175.796,681.652 C 276.93976,665.27627 378.08327,648.89897 479.227,632.523"
         id="path84"
         inkscape:connector-curvature="0" />
      <path
         style="fill:none;stroke:#007700;stroke-width:3;stroke-linecap:butt;stroke-linejoin:round;stroke-opacity:1"
         d="m 707.486,237.923 c -76.08597,131.53354 -152.17265,263.06667 -228.259,394.6 115.68903,91.90988 231.37739,183.82059 347.066,275.731"
         id="path86"
         inkscape:connector-curvature="0" />
      <path
         style="fill:none;stroke:#007700;stroke-width:3;stroke-linecap:butt;stroke-linejoin:round;stroke-opacity:1"
         d="m 734.661,401.951 c -35.48771,-4.43865 -70.97518,-8.87921 -106.463,-13.317 -45.15323,77.80773 -90.30609,155.61567 -135.46,233.423 69.44556,54.9213 138.89052,109.84335 208.335,164.766 31.80644,-15.3291 67.1885,-26.35747 96.69113,-44.45669 C 842.39323,676.42708 887.02263,610.48805 931.652,544.549 865.98839,497.01625 800.32514,449.48302 734.661,401.951 Z"
         id="path88"
         inkscape:connector-curvature="0" />
      <path
         style="fill:none;stroke:#007700;stroke-width:3;stroke-linecap:butt;stroke-linejoin:round;stroke-opacity:1"
         d="m 628.198,388.634 c 75.33576,55.32876 150.6704,110.65903 226.006,165.988"
         id="path90"
         inkscape:connector-curvature="0" />
      <path
         style="fill:none;stroke:#007700;stroke-width:3;stroke-linecap:butt;stroke-linejoin:round;stroke-opacity:1"
         d="m 701.073,786.823 c 51.04337,-77.40053 102.08839,-154.79997 153.131,-232.201 25.81624,-3.35583 51.6318,-6.71684 77.448,-10.073"
         id="path92"
         inkscape:connector-curvature="0" />
      <path
         style="fill:none;stroke:#007700;stroke-width:3;stroke-linecap:butt;stroke-linejoin:round;stroke-opacity:1"
         d="m 492.738,622.057 c 39.76963,-6.07427 79.53934,-12.14797 119.309,-18.222"
         id="path94"
         inkscape:connector-curvature="0" />
      <path
         style="fill:none;stroke:#007700;stroke-width:3;stroke-linecap:butt;stroke-linejoin:round;stroke-opacity:1"
         d="m 734.661,401.951 c -40.87186,67.29435 -81.74216,134.58964 -122.614,201.884 61.18367,47.244 122.36746,94.48783 183.551,141.732"
         id="path96"
         inkscape:connector-curvature="0" />
      <path
         style="fill:none;stroke:#007700;stroke-width:3;stroke-linecap:butt;stroke-linejoin:round;stroke-opacity:1"
         d="M 214.425,804.2 C 302.62994,880.27007 390.83461,956.34045 479.04,1032.41 553.50879,987.80531 627.97847,943.20212 702.447,898.597 784.08292,778.47817 865.71758,658.35849 947.354,538.24 827.72614,451.97614 708.09814,365.71247 588.47,279.449 527.06774,263.82339 465.66516,248.199 404.263,232.573"
         id="path98"
         inkscape:connector-curvature="0" />
      <path
         style="fill:none;stroke:#007700;stroke-width:3;stroke-linecap:butt;stroke-linejoin:round;stroke-opacity:1"
         d="m 784.023,557.924 c 54.44362,-6.56169 108.88727,-13.12321 163.331,-19.684"
         id="path100"
         inkscape:connector-curvature="0" />
      <path
         style="fill:none;stroke:#007700;stroke-width:3;stroke-linecap:butt;stroke-linejoin:round;stroke-opacity:1"
         d="m 639.066,450.177 c 48.31903,35.91563 96.63802,71.83131 144.957,107.747 C 682.36135,716.08558 580.7011,874.24807 479.04,1032.41"
         id="path102"
         inkscape:connector-curvature="0" />
      <path
         style="fill:none;stroke:#007700;stroke-width:3;stroke-linecap:butt;stroke-linejoin:round;stroke-opacity:1"
         d="M 82.594,690.505 C 183.80775,674.59919 285.0213,658.69214 386.235,642.786"
         id="path104"
         inkscape:connector-curvature="0" />
      <path
         style="fill:none;stroke:#007700;stroke-width:3;stroke-linecap:butt;stroke-linejoin:round;stroke-opacity:1"
         d="M 588.47,279.449 C 521.05837,400.56135 453.64647,521.67355 386.235,642.786 491.63896,728.05638 597.04234,813.32749 702.447,898.597"
         id="path106"
         inkscape:connector-curvature="0" />
      <path
         style="fill:none;stroke:#007700;stroke-width:3;stroke-linecap:butt;stroke-linejoin:round;stroke-opacity:1"
         d="m 683.651,758.564 c -28.10335,12.51676 -60.34273,19.99295 -85.8962,35.61819 -32.42044,51.15316 -64.84024,102.30672 -97.2608,153.45981 51.11849,43.19254 102.23696,86.3851 153.356,129.577 37.11101,-31.3535 80.54245,-56.7439 104.53144,-100.47596 C 782.53388,942.70188 806.68565,908.66023 830.838,874.619 781.77504,835.93479 732.71389,797.24829 683.651,758.564 Z"
         id="path108"
         inkscape:connector-curvature="0" />
      <path
         style="fill:none;stroke:#007700;stroke-width:3;stroke-linecap:butt;stroke-linejoin:round;stroke-opacity:1"
         d="m 599.824,790.918 c 54.25199,43.66709 108.50421,87.3339 162.757,131"
         id="path110"
         inkscape:connector-curvature="0" />
      <path
         style="fill:none;stroke:#007700;stroke-width:3;stroke-linecap:butt;stroke-linejoin:round;stroke-opacity:1"
         d="m 653.85,1077.219 c 37.62854,-52.1731 72.67736,-106.93851 111.90752,-157.50242 21.69334,-15.03275 43.3873,-30.06459 65.08048,-45.09758"
         id="path112"
         inkscape:connector-curvature="0" />
      <path
         style="fill:none;stroke:#007700;stroke-width:3;stroke-linecap:butt;stroke-linejoin:round;stroke-opacity:1"
         d="m 500.494,947.642 c 30.28406,-15.70025 60.56716,-31.40234 90.851,-47.103"
         id="path114"
         inkscape:connector-curvature="0" />
      <path
         style="fill:none;stroke:#007700;stroke-width:3;stroke-linecap:butt;stroke-linejoin:round;stroke-opacity:1"
         d="m 683.651,758.564 c -30.76885,47.32488 -61.53727,94.65004 -92.306,141.975 46.50399,38.33302 93.00807,76.66592 139.512,114.999"
         id="path116"
         inkscape:connector-curvature="0" />
      <path
         style="fill:none;stroke:#007700;stroke-width:3;stroke-linecap:butt;stroke-linejoin:round;stroke-opacity:1"
         d="M 956.496,575.315 C 845.30148,736.91333 734.10596,898.51097 622.911,1060.109"
         id="path118"
         inkscape:connector-curvature="0" />
    </g>
  </g>
</svg>
