<?xml version='1.0' encoding='ascii'?>
<svg xmlns="http://www.w3.org/2000/svg" xmlns:inkscape="http://www.inkscape.org/namespaces/inkscape" height="1500" version="1.1" width="1500">
    <g id="fressstylelayer_LineSet" inkscape:groupmode="lineset" inkscape:label="fressstylelayer_LineSet">
        <g id="strokes" inkscape:groupmode="layer" inkscape:label="strokes">
            <path d=" M 891.209, 585.134 894.012, 594.734 896.815, 604.333 899.617, 613.932 901.308, 619.726 909.908, 624.828 918.509, 629.931 927.109, 635.034 935.709, 640.137 944.309, 645.240 952.909, 650.342 961.509, 655.445 970.109, 660.548 978.709, 665.651 987.309, 670.753 995.085, 675.367 991.253, 666.131 987.421, 656.894 983.589, 647.657 979.757, 638.421 979.563, 637.953 970.980, 632.822 962.397, 627.691 953.813, 622.560 945.230, 617.429 936.647, 612.297 928.064, 607.166 919.481, 602.035 910.897, 596.904 902.314, 591.773 893.731, 586.642 891.209, 585.134 885.623, 593.428 883.561, 596.488 " fill="none" stroke="rgb(157, 20, 170)" stroke-linecap="butt" stroke-linejoin="round" stroke-opacity="1.0" stroke-width="3.0" />
            <path d=" M 804.809, 569.009 813.413, 574.106 821.934, 579.153 830.538, 584.249 839.142, 589.346 847.746, 594.442 856.350, 599.538 864.954, 604.635 873.558, 609.731 874.332, 610.190 882.936, 615.286 889.779, 619.339 887.153, 609.690 884.528, 600.041 883.561, 596.488 881.446, 588.715 872.857, 583.593 864.269, 578.471 861.093, 576.578 852.505, 571.456 843.916, 566.334 835.327, 561.212 834.154, 560.512 825.565, 555.390 816.976, 550.268 808.387, 545.147 800.957, 540.716 800.477, 541.460 " fill="none" stroke="rgb(157, 20, 170)" stroke-linecap="butt" stroke-linejoin="round" stroke-opacity="1.0" stroke-width="3.0" />
            <path d=" M 800.957, 540.716 802.306, 550.624 803.655, 560.533 804.809, 569.009 799.362, 577.395 793.914, 585.781 788.466, 594.167 783.018, 602.552 777.570, 610.938 772.123, 619.324 769.213, 623.803 763.765, 632.189 758.317, 640.575 752.869, 648.961 751.536, 651.014 " fill="none" stroke="rgb(157, 20, 170)" stroke-linecap="butt" stroke-linejoin="round" stroke-opacity="1.0" stroke-width="3.0" />
            <path d=" M 750.959, 631.727 751.258, 641.723 751.536, 651.014 760.205, 655.998 768.453, 660.741 777.122, 665.726 785.792, 670.710 794.461, 675.695 803.130, 680.679 811.799, 685.664 820.468, 690.648 829.137, 695.633 835.493, 699.287 " fill="none" stroke="rgb(157, 20, 170)" stroke-linecap="butt" stroke-linejoin="round" stroke-opacity="1.0" stroke-width="3.0" />
            <path d=" M 679.062, 479.659 687.658, 484.769 696.253, 489.880 704.848, 494.991 713.444, 500.101 722.039, 505.212 730.635, 510.323 739.230, 515.433 747.825, 520.544 756.421, 525.655 765.016, 530.765 773.612, 535.876 782.207, 540.987 790.802, 546.097 795.638, 548.972 802.002, 552.757 " fill="none" stroke="rgb(157, 20, 170)" stroke-linecap="butt" stroke-linejoin="round" stroke-opacity="1.0" stroke-width="3.0" />
            <path d=" M 802.002, 552.757 800.665, 542.847 800.477, 541.460 799.139, 531.550 797.802, 521.640 796.928, 515.165 788.352, 510.021 779.777, 504.876 771.202, 499.732 762.626, 494.587 754.051, 489.443 745.476, 484.299 736.901, 479.154 728.325, 474.010 719.750, 468.866 711.175, 463.721 702.599, 458.577 694.024, 453.433 685.449, 448.288 683.153, 446.911 677.998, 455.480 672.843, 464.049 667.688, 472.618 662.533, 481.187 657.379, 489.756 652.224, 498.325 647.069, 506.894 641.914, 515.463 636.760, 524.032 631.605, 532.601 626.570, 540.970 621.415, 549.539 616.514, 557.688 614.292, 567.438 612.071, 577.188 609.850, 586.938 607.629, 596.688 607.271, 598.258 615.957, 603.214 624.643, 608.169 633.329, 613.124 642.015, 618.079 650.701, 623.034 659.387, 627.989 668.073, 632.944 676.759, 637.899 685.446, 642.854 694.132, 647.809 702.818, 652.764 711.504, 657.719 720.190, 662.674 728.056, 667.161 733.484, 658.763 738.913, 650.364 744.341, 641.966 749.769, 633.568 750.959, 631.727 756.387, 623.329 756.875, 622.574 759.665, 618.259 765.093, 609.860 770.521, 601.462 775.950, 593.063 781.378, 584.665 786.807, 576.267 792.235, 567.868 797.663, 559.470 802.002, 552.757 " fill="none" stroke="rgb(157, 20, 170)" stroke-linecap="butt" stroke-linejoin="round" stroke-opacity="1.0" stroke-width="3.0" />
            <path d=" M 683.153, 446.911 681.913, 456.834 680.674, 466.756 679.434, 476.679 679.062, 479.659 673.884, 488.214 668.705, 496.768 663.527, 505.323 658.349, 513.878 653.170, 522.433 647.992, 530.987 642.813, 539.542 637.949, 547.578 632.771, 556.133 627.592, 564.688 622.414, 573.242 617.235, 581.797 612.057, 590.352 607.271, 598.258 " fill="none" stroke="rgb(157, 20, 170)" stroke-linecap="butt" stroke-linejoin="round" stroke-opacity="1.0" stroke-width="3.0" />
            <path d=" M 888.550, 690.962 897.196, 695.986 905.842, 701.010 914.489, 706.034 923.135, 711.058 931.782, 716.081 940.428, 721.105 949.075, 726.129 955.927, 730.111 964.574, 735.135 973.220, 740.159 981.867, 745.183 990.513, 750.206 999.160, 755.230 1007.806, 760.254 1016.452, 765.278 1025.099, 770.302 1033.745, 775.326 1042.392, 780.350 1051.038, 785.374 1059.684, 790.398 1068.331, 795.421 1076.977, 800.445 1085.624, 805.469 1094.270, 810.493 1102.917, 815.517 1111.563, 820.541 1120.209, 825.565 1128.856, 830.589 1137.502, 835.613 1146.149, 840.636 1154.795, 845.660 1163.442, 850.684 1172.088, 855.708 1180.734, 860.732 1189.381, 865.756 1198.027, 870.780 1206.674, 875.804 1215.320, 880.828 1223.966, 885.851 1232.613, 890.875 1241.259, 895.899 1249.906, 900.923 1258.552, 905.947 1267.199, 910.971 1275.845, 915.995 1284.491, 921.019 1293.138, 926.042 1301.784, 931.066 1310.431, 936.090 1319.077, 941.114 1330.734, 947.887 " fill="none" stroke="rgb(157, 20, 170)" stroke-linecap="butt" stroke-linejoin="round" stroke-opacity="1.0" stroke-width="3.0" />
            <path d=" M 870.361, 1228.132 879.320, 1232.573 888.279, 1237.015 897.239, 1241.457 906.198, 1245.898 915.158, 1250.340 924.117, 1254.781 933.077, 1259.223 942.036, 1263.665 950.996, 1268.106 959.955, 1272.548 968.915, 1276.990 977.874, 1281.431 986.833, 1285.873 995.793, 1290.314 1004.752, 1294.756 1013.712, 1299.198 1022.671, 1303.639 1024.275, 1304.435 1030.794, 1296.851 1037.312, 1289.267 1043.830, 1281.684 1050.349, 1274.100 1056.867, 1266.516 1063.385, 1258.933 1069.903, 1251.349 1076.422, 1243.765 1082.940, 1236.182 1089.458, 1228.598 1095.977, 1221.014 1102.495, 1213.431 1109.013, 1205.847 1115.531, 1198.263 1122.050, 1190.680 1128.568, 1183.096 1135.086, 1175.512 1141.605, 1167.929 1148.123, 1160.345 1154.641, 1152.761 1161.159, 1145.178 1167.678, 1137.594 1174.196, 1130.010 1180.714, 1122.427 1187.233, 1114.843 1193.751, 1107.259 1200.269, 1099.676 1206.787, 1092.092 1213.306, 1084.508 1219.824, 1076.925 1226.342, 1069.341 1232.861, 1061.758 1239.379, 1054.174 1245.897, 1046.590 1252.416, 1039.007 1258.934, 1031.423 1265.452, 1023.839 1271.970, 1016.256 1278.489, 1008.672 1285.007, 1001.088 1291.525, 993.505 1298.044, 985.921 1304.562, 978.337 1311.080, 970.754 1317.599, 963.170 1324.117, 955.586 1330.734, 947.887 1325.218, 939.546 1319.702, 931.205 1314.186, 922.864 1308.671, 914.523 1303.155, 906.182 1297.639, 897.841 1292.123, 889.499 1286.607, 881.158 1281.091, 872.817 1275.575, 864.476 1270.059, 856.135 1264.543, 847.794 1259.027, 839.453 1253.511, 831.111 1247.995, 822.770 1242.479, 814.429 1236.963, 806.088 1231.448, 797.747 1225.932, 789.406 1220.416, 781.065 1214.900, 772.724 1209.384, 764.382 1203.868, 756.041 1198.352, 747.700 1194.045, 741.187 1185.477, 736.030 1176.909, 730.873 1168.342, 725.716 1159.774, 720.559 1151.206, 715.402 1142.638, 710.245 1134.071, 705.088 1125.503, 699.931 1116.935, 694.774 1108.368, 689.617 1099.800, 684.460 1091.232, 679.303 1082.664, 674.146 1074.097, 668.989 1065.529, 663.832 1056.961, 658.675 1048.394, 653.518 1039.826, 648.361 1031.258, 643.204 1022.690, 638.047 1014.123, 632.890 1005.555, 627.734 996.987, 622.577 988.420, 617.420 979.852, 612.263 971.284, 607.106 962.716, 601.949 954.149, 596.792 945.581, 591.635 937.013, 586.478 928.446, 581.321 919.878, 576.164 911.310, 571.007 902.742, 565.850 894.175, 560.693 885.607, 555.536 877.039, 550.379 868.472, 545.222 859.904, 540.065 851.050, 534.736 845.568, 543.099 840.086, 551.463 834.603, 559.826 834.154, 560.512 " fill="none" stroke="rgb(157, 20, 170)" stroke-linecap="butt" stroke-linejoin="round" stroke-opacity="1.0" stroke-width="3.0" />
            <path d=" M 851.050, 534.736 853.384, 544.460 855.718, 554.183 858.052, 563.907 860.386, 573.631 861.093, 576.578 " fill="none" stroke="rgb(157, 20, 170)" stroke-linecap="butt" stroke-linejoin="round" stroke-opacity="1.0" stroke-width="3.0" />
            <path d=" M 870.520, 615.849 872.854, 625.573 875.188, 635.296 876.169, 639.383 878.503, 649.107 880.837, 658.830 883.171, 668.554 885.505, 678.278 887.839, 688.002 888.550, 690.962 887.494, 692.489 881.809, 700.716 876.124, 708.943 870.439, 717.170 865.019, 725.012 " fill="none" stroke="rgb(157, 20, 170)" stroke-linecap="butt" stroke-linejoin="round" stroke-opacity="1.0" stroke-width="3.0" />
            <path d=" M 347.706, 643.657 356.495, 648.426 365.285, 653.195 374.074, 657.965 382.864, 662.734 391.653, 667.503 400.443, 672.272 409.232, 677.041 418.022, 681.810 426.811, 686.579 435.601, 691.349 444.390, 696.118 453.180, 700.887 461.969, 705.656 470.759, 710.425 479.548, 715.194 488.338, 719.964 497.127, 724.733 505.917, 729.502 514.706, 734.271 523.495, 739.040 532.285, 743.809 541.074, 748.579 549.864, 753.348 558.653, 758.117 567.443, 762.886 576.232, 767.655 585.022, 772.424 593.811, 777.193 602.601, 781.963 611.390, 786.732 620.180, 791.501 628.969, 796.270 637.759, 801.039 646.548, 805.808 655.338, 810.578 666.326, 816.540 675.116, 821.309 683.905, 826.078 692.695, 830.848 701.484, 835.617 710.274, 840.386 719.063, 845.155 727.853, 849.924 736.642, 854.693 745.432, 859.463 754.221, 864.232 763.011, 869.001 771.800, 873.770 780.590, 878.539 789.379, 883.308 798.169, 888.077 806.958, 892.847 815.748, 897.616 824.537, 902.385 833.327, 907.154 842.116, 911.923 850.906, 916.692 859.695, 921.462 868.485, 926.231 877.274, 931.000 886.064, 935.769 894.853, 940.538 903.643, 945.307 912.432, 950.077 921.222, 954.846 930.011, 959.615 938.801, 964.384 947.590, 969.153 956.380, 973.922 965.169, 978.692 973.959, 983.461 982.748, 988.230 991.538, 992.999 1000.327, 997.768 1009.117, 1002.537 1017.906, 1007.306 1026.696, 1012.076 1037.465, 1017.919 " fill="none" stroke="rgb(157, 20, 170)" stroke-linecap="butt" stroke-linejoin="round" stroke-opacity="1.0" stroke-width="3.0" />
            <path d=" M 626.570, 540.970 617.922, 535.949 609.275, 530.927 600.627, 525.905 591.979, 520.883 583.332, 515.862 574.684, 510.840 566.036, 505.818 557.389, 500.797 548.741, 495.775 540.093, 490.753 531.446, 485.731 522.798, 480.710 514.150, 475.688 505.503, 470.666 496.855, 465.645 488.207, 460.623 479.560, 455.601 471.717, 451.047 466.304, 459.455 460.891, 467.863 455.477, 476.271 450.064, 484.679 444.650, 493.087 439.237, 501.495 433.823, 509.903 428.410, 518.311 422.996, 526.719 417.583, 535.127 412.169, 543.535 406.756, 551.943 401.342, 560.351 395.929, 568.759 390.515, 577.167 385.102, 585.575 379.688, 593.983 374.275, 602.391 368.861, 610.799 363.448, 619.207 358.034, 627.615 352.621, 636.023 347.706, 643.657 342.906, 652.430 338.107, 661.203 333.308, 669.976 328.508, 678.749 323.709, 687.522 318.910, 696.295 314.110, 705.068 309.311, 713.841 304.512, 722.615 299.712, 731.388 294.913, 740.161 290.114, 748.934 285.314, 757.707 280.515, 766.480 275.716, 775.253 270.917, 784.026 266.117, 792.799 261.318, 801.572 256.519, 810.345 251.719, 819.118 246.920, 827.891 242.121, 836.664 237.321, 845.437 232.522, 854.210 227.723, 862.983 222.923, 871.756 218.124, 880.529 213.325, 889.303 208.525, 898.076 203.726, 906.849 198.927, 915.622 194.127, 924.395 189.328, 933.168 184.529, 941.941 179.729, 950.714 174.930, 959.487 170.131, 968.260 165.331, 977.033 160.532, 985.806 155.733, 994.579 150.933, 1003.352 146.134, 1012.125 141.335, 1020.898 136.535, 1029.671 131.736, 1038.445 126.937, 1047.218 122.137, 1055.991 117.338, 1064.764 112.539, 1073.537 107.740, 1082.310 102.940, 1091.083 98.141, 1099.856 93.342, 1108.629 88.542, 1117.402 83.743, 1126.175 78.944, 1134.948 74.144, 1143.721 69.345, 1152.494 64.546, 1161.267 59.746, 1170.040 54.947, 1178.813 50.148, 1187.586 45.348, 1196.359 40.549, 1205.133 35.750, 1213.906 28.892, 1226.441 38.050, 1230.457 47.208, 1234.473 56.366, 1238.489 65.525, 1242.506 74.683, 1246.522 83.841, 1250.538 92.999, 1254.554 102.157, 1258.571 111.315, 1262.587 120.473, 1266.603 129.631, 1270.619 138.789, 1274.636 147.947, 1278.652 157.105, 1282.668 166.263, 1286.684 175.421, 1290.701 184.579, 1294.717 193.737, 1298.733 202.895, 1302.749 212.053, 1306.766 221.211, 1310.782 230.369, 1314.798 239.527, 1318.814 248.685, 1322.831 257.843, 1326.847 267.001, 1330.863 276.159, 1334.879 285.318, 1338.896 294.476, 1342.912 303.634, 1346.928 312.792, 1350.944 321.950, 1354.961 331.108, 1358.977 340.266, 1362.993 349.424, 1367.009 358.582, 1371.026 367.740, 1375.042 376.898, 1379.058 386.056, 1383.074 395.214, 1387.091 404.372, 1391.107 413.530, 1395.123 422.688, 1399.139 431.846, 1403.156 441.004, 1407.172 450.162, 1411.188 459.320, 1415.204 468.478, 1419.221 477.636, 1423.237 486.794, 1427.253 495.953, 1431.269 505.111, 1435.286 514.269, 1439.302 523.427, 1443.318 532.585, 1447.334 541.743, 1451.351 550.901, 1455.367 560.059, 1459.383 569.217, 1463.399 578.375, 1467.416 587.533, 1471.432 596.691, 1475.448 605.849, 1479.464 615.007, 1483.481 624.165, 1487.497 633.323, 1491.513 642.481, 1495.529 653.839, 1500.510 660.061, 1492.682 666.284, 1484.854 672.507, 1477.026 678.730, 1469.198 684.952, 1461.370 691.175, 1453.542 697.398, 1445.714 703.620, 1437.886 709.843, 1430.058 716.066, 1422.230 722.289, 1414.402 728.511, 1406.574 734.734, 1398.746 740.957, 1390.918 747.180, 1383.090 753.402, 1375.262 759.625, 1367.434 765.848, 1359.606 772.070, 1351.778 778.293, 1343.950 784.516, 1336.122 790.739, 1328.294 796.961, 1320.466 803.184, 1312.638 809.407, 1304.810 815.629, 1296.982 821.852, 1289.154 828.075, 1281.326 834.298, 1273.498 840.520, 1265.670 846.743, 1257.842 852.966, 1250.014 859.188, 1242.186 865.411, 1234.358 870.361, 1228.132 876.583, 1220.304 882.806, 1212.476 889.029, 1204.648 895.251, 1196.820 901.474, 1188.992 907.697, 1181.164 913.920, 1173.336 920.142, 1165.508 926.365, 1157.680 932.588, 1149.852 938.810, 1142.024 945.033, 1134.196 951.256, 1126.368 957.479, 1118.540 963.701, 1110.712 969.924, 1102.884 975.981, 1095.264 982.204, 1087.436 988.427, 1079.608 994.649, 1071.780 1000.872, 1063.952 1007.095, 1056.124 1013.318, 1048.296 1019.540, 1040.468 1025.763, 1032.640 1031.986, 1024.812 1037.465, 1017.919 1034.483, 1008.374 1031.501, 998.829 1028.519, 989.284 1025.537, 979.739 1022.556, 970.194 1020.603, 963.944 " fill="none" stroke="rgb(157, 20, 170)" stroke-linecap="butt" stroke-linejoin="round" stroke-opacity="1.0" stroke-width="3.0" />
        </g>
    </g>
    <g id="fressstylelayer_hidden lines" inkscape:groupmode="lineset" inkscape:label="fressstylelayer_hidden lines" xmlns:inkscape="http://www.inkscape.org/namespaces/inkscape">
        <g id="strokes" inkscape:groupmode="layer" inkscape:label="strokes" xmlns:inkscape="http://www.inkscape.org/namespaces/inkscape">
            <path d=" M 979.563, 637.953 973.803, 646.127 968.042, 654.302 962.282, 662.476 956.522, 670.650 950.761, 678.824 945.001, 686.999 939.241, 695.173 933.481, 703.347 927.720, 711.522 925.556, 714.592 920.529, 721.726 " fill="none" stroke="rgb(0, 119, 0)" stroke-linecap="butt" stroke-linejoin="round" stroke-opacity="1.0" stroke-width="3.0" />
            <path d=" M 932.066, 763.471 929.402, 753.832 926.738, 744.193 924.075, 734.555 921.411, 724.916 920.529, 721.726 911.876, 716.715 903.222, 711.703 894.568, 706.692 885.915, 701.680 877.261, 696.669 868.608, 691.657 859.954, 686.646 851.301, 681.634 848.558, 680.046 839.905, 675.034 833.248, 671.180 " fill="none" stroke="rgb(0, 119, 0)" stroke-linecap="butt" stroke-linejoin="round" stroke-opacity="1.0" stroke-width="3.0" />
            <path d=" M 883.561, 596.488 877.974, 604.782 874.332, 610.190 870.520, 615.849 864.933, 624.143 859.346, 632.436 853.759, 640.730 848.173, 649.024 842.586, 657.318 838.183, 663.854 833.248, 671.180 834.822, 681.055 836.396, 690.930 837.303, 696.623 838.876, 706.498 839.493, 710.370 848.168, 715.346 856.842, 720.321 865.019, 725.012 873.694, 729.988 882.368, 734.963 891.042, 739.939 899.716, 744.915 908.391, 749.890 917.065, 754.866 923.753, 758.703 932.066, 763.471 937.883, 755.337 943.701, 747.204 949.519, 739.070 950.099, 738.259 955.927, 730.111 961.745, 721.977 967.563, 713.844 973.381, 705.711 979.199, 697.577 985.016, 689.444 990.834, 681.310 995.085, 675.367 " fill="none" stroke="rgb(0, 119, 0)" stroke-linecap="butt" stroke-linejoin="round" stroke-opacity="1.0" stroke-width="3.0" />
            <path d=" M 901.308, 619.726 895.674, 627.987 890.040, 636.249 884.406, 644.511 878.772, 652.773 873.138, 661.034 867.504, 669.296 861.844, 677.595 856.210, 685.856 850.576, 694.118 844.942, 702.380 839.493, 710.370 " fill="none" stroke="rgb(0, 119, 0)" stroke-linecap="butt" stroke-linejoin="round" stroke-opacity="1.0" stroke-width="3.0" />
            <path d=" M 881.446, 588.715 875.870, 597.016 870.293, 605.316 864.717, 613.617 859.140, 621.918 853.564, 630.219 847.987, 638.520 842.411, 646.820 836.835, 655.121 832.993, 660.840 830.156, 665.062 " fill="none" stroke="rgb(0, 119, 0)" stroke-linecap="butt" stroke-linejoin="round" stroke-opacity="1.0" stroke-width="3.0" />
            <path d=" M 889.779, 619.339 884.161, 627.612 878.544, 635.885 876.169, 639.383 870.551, 647.656 864.934, 655.929 859.316, 664.202 853.509, 672.754 848.558, 680.046 842.941, 688.319 837.303, 696.623 835.493, 699.287 833.953, 689.407 832.412, 679.526 830.871, 669.646 830.156, 665.062 821.505, 660.046 812.854, 655.031 804.203, 650.015 795.552, 644.999 786.901, 639.983 783.393, 637.949 774.742, 632.933 766.091, 627.918 757.440, 622.902 756.875, 622.574 750.576, 618.922 " fill="none" stroke="rgb(0, 119, 0)" stroke-linecap="butt" stroke-linejoin="round" stroke-opacity="1.0" stroke-width="3.0" />
            <path d=" M 800.477, 541.460 795.638, 548.972 790.222, 557.379 784.807, 565.786 779.391, 574.192 773.975, 582.599 768.560, 591.006 763.144, 599.412 757.729, 607.819 753.361, 614.598 750.576, 618.922 750.875, 628.918 750.959, 631.727 " fill="none" stroke="rgb(0, 119, 0)" stroke-linecap="butt" stroke-linejoin="round" stroke-opacity="1.0" stroke-width="3.0" />
            <path d=" M 796.928, 515.165 791.542, 523.591 786.156, 532.016 780.770, 540.442 775.384, 548.868 769.998, 557.293 764.612, 565.719 759.227, 574.145 753.841, 582.570 748.455, 590.996 743.069, 599.422 738.780, 606.131 733.394, 614.557 728.441, 622.306 " fill="none" stroke="rgb(0, 119, 0)" stroke-linecap="butt" stroke-linejoin="round" stroke-opacity="1.0" stroke-width="3.0" />
            <path d=" M 728.056, 667.161 728.142, 657.161 728.228, 647.162 728.313, 637.162 728.399, 627.162 728.441, 622.306 719.781, 617.306 711.120, 612.306 702.460, 607.306 693.800, 602.307 685.139, 597.307 676.479, 592.307 667.819, 587.307 659.158, 582.307 650.498, 577.307 641.838, 572.308 633.177, 567.308 624.517, 562.308 616.514, 557.688 " fill="none" stroke="rgb(0, 119, 0)" stroke-linecap="butt" stroke-linejoin="round" stroke-opacity="1.0" stroke-width="3.0" />
            <path d=" M 1194.045, 741.187 1187.901, 749.077 1181.758, 756.967 1175.614, 764.858 1169.471, 772.748 1163.327, 780.638 1157.184, 788.529 1151.040, 796.419 1144.897, 804.309 1138.753, 812.200 1132.610, 820.090 1126.466, 827.980 1120.323, 835.871 1114.179, 843.761 1108.036, 851.651 1101.892, 859.542 1095.749, 867.432 1089.605, 875.322 1083.462, 883.213 1077.318, 891.103 1071.175, 898.993 1065.031, 906.884 1058.888, 914.774 1052.744, 922.664 1046.601, 930.555 1040.457, 938.445 1034.313, 946.335 1028.170, 954.226 1020.603, 963.944 1014.460, 971.834 1008.316, 979.725 1002.173, 987.615 996.029, 995.505 989.886, 1003.396 983.742, 1011.286 977.599, 1019.176 971.455, 1027.067 965.312, 1034.957 962.802, 1038.181 " fill="none" stroke="rgb(0, 119, 0)" stroke-linecap="butt" stroke-linejoin="round" stroke-opacity="1.0" stroke-width="3.0" />
            <path d=" M 1024.275, 1304.435 1022.026, 1294.691 1019.776, 1284.947 1017.526, 1275.204 1015.277, 1265.460 1013.027, 1255.716 1010.777, 1245.973 1008.528, 1236.229 1006.278, 1226.485 1004.028, 1216.742 1001.779, 1206.998 999.529, 1197.254 997.279, 1187.510 995.030, 1177.767 992.780, 1168.023 990.531, 1158.280 988.281, 1148.536 986.031, 1138.792 983.782, 1129.048 981.532, 1119.305 979.282, 1109.561 977.033, 1099.818 975.981, 1095.264 973.732, 1085.520 971.482, 1075.776 969.232, 1066.033 966.983, 1056.289 964.733, 1046.545 962.802, 1038.181 953.977, 1033.477 945.152, 1028.773 936.327, 1024.070 927.503, 1019.366 918.678, 1014.663 909.853, 1009.959 901.028, 1005.256 892.204, 1000.552 883.379, 995.848 874.554, 991.145 865.729, 986.441 856.905, 981.738 848.080, 977.034 839.255, 972.331 830.430, 967.627 821.606, 962.924 812.781, 958.220 803.956, 953.516 795.131, 948.813 786.307, 944.109 777.482, 939.406 768.657, 934.702 759.832, 929.999 751.007, 925.295 742.183, 920.591 733.358, 915.888 724.533, 911.184 715.708, 906.481 706.884, 901.777 698.059, 897.073 689.234, 892.370 680.409, 887.666 671.585, 882.963 662.760, 878.259 653.935, 873.556 645.110, 868.852 635.421, 863.688 " fill="none" stroke="rgb(0, 119, 0)" stroke-linecap="butt" stroke-linejoin="round" stroke-opacity="1.0" stroke-width="3.0" />
            <path d=" M 834.154, 560.512 828.671, 568.876 823.189, 577.239 821.934, 579.153 816.452, 587.516 810.970, 595.880 805.488, 604.243 800.006, 612.606 794.523, 620.970 789.041, 629.333 786.200, 633.668 783.393, 637.949 777.911, 646.313 772.429, 654.676 768.453, 660.741 762.971, 669.104 757.489, 677.468 752.007, 685.831 746.524, 694.194 741.042, 702.558 735.560, 710.921 730.078, 719.284 724.596, 727.648 719.113, 736.011 713.631, 744.375 708.149, 752.738 702.667, 761.101 697.185, 769.465 691.702, 777.828 686.220, 786.191 680.738, 794.555 675.256, 802.918 669.774, 811.281 666.326, 816.540 660.844, 824.903 655.362, 833.267 649.880, 841.630 644.398, 849.993 638.915, 858.357 635.421, 863.688 634.233, 873.617 633.045, 883.546 631.858, 893.475 630.670, 903.405 629.482, 913.334 628.294, 923.263 627.107, 933.192 625.919, 943.121 624.731, 953.051 623.543, 962.980 622.356, 972.909 621.168, 982.838 619.980, 992.767 618.792, 1002.697 617.604, 1012.626 616.417, 1022.555 615.229, 1032.484 614.041, 1042.414 612.853, 1052.343 611.666, 1062.272 610.478, 1072.201 610.147, 1074.963 608.960, 1084.892 607.772, 1094.821 607.418, 1097.779 616.378, 1102.220 625.337, 1106.662 634.297, 1111.104 643.256, 1115.545 652.215, 1119.987 661.175, 1124.429 670.134, 1128.870 674.043, 1130.808 683.002, 1135.249 691.962, 1139.691 700.921, 1144.133 709.880, 1148.574 718.840, 1153.016 727.799, 1157.457 736.759, 1161.899 745.718, 1166.341 754.678, 1170.782 763.637, 1175.224 772.597, 1179.666 781.556, 1184.107 790.516, 1188.549 799.475, 1192.990 808.435, 1197.432 817.394, 1201.874 826.353, 1206.315 835.313, 1210.757 844.272, 1215.199 853.232, 1219.640 862.191, 1224.082 870.361, 1228.132 " fill="none" stroke="rgb(0, 119, 0)" stroke-linecap="butt" stroke-linejoin="round" stroke-opacity="1.0" stroke-width="3.0" />
            <path d=" M 1020.603, 963.944 1017.621, 954.399 1014.639, 944.854 1011.658, 935.309 1008.676, 925.764 1005.694, 916.219 1002.712, 906.674 999.730, 897.129 996.748, 887.584 993.766, 878.039 990.784, 868.493 987.802, 858.948 984.821, 849.403 981.839, 839.858 978.857, 830.313 975.875, 820.768 972.893, 811.223 969.911, 801.678 966.929, 792.133 963.947, 782.588 960.966, 773.043 957.984, 763.498 955.002, 753.953 952.020, 744.408 950.099, 738.259 947.117, 728.714 946.506, 726.758 937.858, 721.736 929.211, 716.714 925.556, 714.592 916.909, 709.571 908.261, 704.549 899.613, 699.527 890.966, 694.505 887.494, 692.489 878.846, 687.468 870.199, 682.446 861.844, 677.595 853.509, 672.754 844.862, 667.733 838.183, 663.854 832.993, 660.840 824.345, 655.819 815.697, 650.797 807.049, 645.775 798.402, 640.753 789.754, 635.732 786.200, 633.668 777.552, 628.646 769.213, 623.803 760.565, 618.781 759.665, 618.259 753.361, 614.598 744.714, 609.577 738.780, 606.131 730.133, 601.109 721.485, 596.088 712.837, 591.066 704.190, 586.044 695.542, 581.022 686.894, 576.001 678.247, 570.979 669.599, 565.957 660.951, 560.935 652.304, 555.914 643.656, 550.892 637.949, 547.578 629.301, 542.556 626.570, 540.970 " fill="none" stroke="rgb(0, 119, 0)" stroke-linecap="butt" stroke-linejoin="round" stroke-opacity="1.0" stroke-width="3.0" />
            <path d=" M 946.506, 726.758 940.705, 734.903 934.903, 743.048 929.102, 751.193 923.753, 758.703 917.952, 766.848 912.150, 774.993 906.349, 783.138 900.548, 791.283 894.746, 799.428 888.945, 807.573 883.143, 815.719 877.342, 823.864 871.540, 832.009 865.739, 840.154 859.938, 848.299 854.136, 856.444 848.335, 864.589 842.533, 872.735 836.732, 880.880 830.930, 889.025 825.129, 897.170 819.328, 905.315 813.526, 913.460 807.725, 921.605 801.923, 929.751 796.122, 937.896 790.320, 946.041 784.519, 954.186 778.718, 962.331 772.916, 970.476 767.115, 978.621 761.313, 986.767 755.512, 994.912 749.710, 1003.057 743.909, 1011.202 738.107, 1019.347 732.306, 1027.492 726.505, 1035.637 720.703, 1043.783 714.902, 1051.928 709.100, 1060.073 703.299, 1068.218 697.497, 1076.363 691.696, 1084.508 685.895, 1092.653 680.093, 1100.799 675.316, 1107.506 " fill="none" stroke="rgb(0, 119, 0)" stroke-linecap="butt" stroke-linejoin="round" stroke-opacity="1.0" stroke-width="3.0" />
            <path d=" M 653.839, 1500.510 654.384, 1490.525 654.930, 1480.540 655.476, 1470.555 656.021, 1460.570 656.567, 1450.585 657.113, 1440.600 657.658, 1430.614 658.204, 1420.629 658.750, 1410.644 659.295, 1400.659 659.841, 1390.674 660.387, 1380.689 660.932, 1370.704 661.478, 1360.719 662.024, 1350.734 662.570, 1340.749 663.115, 1330.763 663.661, 1320.778 664.207, 1310.793 664.752, 1300.808 665.298, 1290.823 665.844, 1280.838 666.389, 1270.853 666.935, 1260.868 667.481, 1250.883 668.026, 1240.898 668.572, 1230.912 669.118, 1220.927 669.663, 1210.942 670.209, 1200.957 670.755, 1190.972 671.300, 1180.987 671.846, 1171.002 672.392, 1161.017 672.937, 1151.032 673.483, 1141.047 674.043, 1130.808 674.588, 1120.823 675.134, 1110.837 675.316, 1107.506 666.370, 1103.038 657.423, 1098.570 648.476, 1094.103 639.530, 1089.635 630.583, 1085.168 621.637, 1080.700 612.690, 1076.233 610.147, 1074.963 601.201, 1070.495 592.254, 1066.028 583.308, 1061.560 574.361, 1057.092 565.415, 1052.625 556.468, 1048.157 547.522, 1043.690 538.575, 1039.222 529.629, 1034.755 520.682, 1030.287 511.735, 1025.819 502.789, 1021.352 493.842, 1016.884 484.896, 1012.417 475.949, 1007.949 467.003, 1003.481 458.056, 999.014 449.110, 994.546 440.163, 990.079 431.217, 985.611 422.270, 981.143 413.323, 976.676 404.377, 972.208 395.430, 967.741 386.484, 963.273 377.537, 958.806 368.591, 954.338 359.644, 949.870 350.698, 945.403 341.751, 940.935 332.805, 936.468 323.858, 932.000 314.911, 927.533 305.965, 923.065 297.018, 918.597 288.072, 914.130 279.125, 909.662 270.179, 905.195 261.232, 900.727 252.286, 896.259 243.339, 891.792 231.813, 886.036 " fill="none" stroke="rgb(0, 119, 0)" stroke-linecap="butt" stroke-linejoin="round" stroke-opacity="1.0" stroke-width="3.0" />
            <path d=" M 28.892, 1226.441 34.013, 1217.851 39.133, 1209.261 44.254, 1200.672 49.374, 1192.082 54.494, 1183.492 59.615, 1174.903 64.735, 1166.313 69.856, 1157.724 74.976, 1149.134 80.096, 1140.544 85.217, 1131.955 90.337, 1123.365 95.458, 1114.776 100.578, 1106.186 105.699, 1097.596 110.819, 1089.007 115.939, 1080.417 121.060, 1071.828 126.180, 1063.238 131.301, 1054.648 136.421, 1046.059 141.541, 1037.469 146.662, 1028.880 151.782, 1020.290 156.903, 1011.700 162.023, 1003.111 167.143, 994.521 172.264, 985.932 177.384, 977.342 182.505, 968.752 187.625, 960.163 192.746, 951.573 197.866, 942.983 202.986, 934.394 208.107, 925.804 213.227, 917.215 218.348, 908.625 223.468, 900.035 228.588, 891.446 231.813, 886.036 236.643, 877.280 241.472, 868.523 246.301, 859.767 251.131, 851.010 255.960, 842.254 260.789, 833.497 265.619, 824.740 270.448, 815.984 275.278, 807.227 280.107, 798.471 284.936, 789.714 289.766, 780.958 294.595, 772.201 299.425, 763.445 304.254, 754.688 309.083, 745.932 313.913, 737.175 318.742, 728.419 323.572, 719.662 328.401, 710.905 333.230, 702.149 338.060, 693.392 342.889, 684.636 347.719, 675.879 352.548, 667.123 357.377, 658.366 362.207, 649.610 367.036, 640.853 371.865, 632.097 376.695, 623.340 381.524, 614.583 386.354, 605.827 391.183, 597.070 396.012, 588.314 400.842, 579.557 405.671, 570.801 410.501, 562.044 415.330, 553.288 420.159, 544.531 424.989, 535.775 429.818, 527.018 434.648, 518.262 439.477, 509.505 444.306, 500.748 449.136, 491.992 453.965, 483.235 458.794, 474.479 463.624, 465.722 468.453, 456.966 471.717, 451.047 " fill="none" stroke="rgb(0, 119, 0)" stroke-linecap="butt" stroke-linejoin="round" stroke-opacity="1.0" stroke-width="3.0" />
            <path d=" M 861.093, 576.578 863.427, 586.301 865.762, 596.025 868.096, 605.749 870.520, 615.849 " fill="none" stroke="rgb(0, 119, 0)" stroke-linecap="butt" stroke-linejoin="round" stroke-opacity="1.0" stroke-width="3.0" />
            <path d=" M 865.019, 725.012 859.334, 733.239 853.649, 741.466 847.964, 749.692 842.279, 757.919 836.594, 766.146 830.909, 774.373 825.224, 782.599 819.538, 790.826 813.853, 799.053 808.168, 807.280 802.483, 815.506 796.798, 823.733 791.113, 831.960 785.428, 840.187 779.743, 848.413 774.057, 856.640 768.372, 864.867 762.687, 873.094 757.002, 881.320 751.317, 889.547 745.632, 897.774 739.947, 906.001 734.262, 914.227 728.577, 922.454 722.891, 930.681 717.206, 938.908 711.521, 947.134 705.836, 955.361 700.151, 963.588 694.466, 971.815 688.781, 980.041 683.096, 988.268 677.411, 996.495 671.725, 1004.722 666.040, 1012.948 660.355, 1021.175 654.670, 1029.402 648.985, 1037.629 643.300, 1045.855 637.615, 1054.082 631.930, 1062.309 626.245, 1070.536 620.559, 1078.762 614.874, 1086.989 607.418, 1097.779 " fill="none" stroke="rgb(0, 119, 0)" stroke-linecap="butt" stroke-linejoin="round" stroke-opacity="1.0" stroke-width="3.0" />
        </g>
    </g>
</svg>
