<?xml version="1.0" encoding="UTF-8" standalone="no" ?>
<svg width="100%" height="100%" viewBox="0 0 1487.906 655.931" xmlns="http://www.w3.org/2000/svg"><g>
</g><g style="stroke:rgb(0,0,0); fill:none; stroke-width:1.000mm" >
</g><g style="stroke:rgb(0,255,0); fill:none; stroke-width:0.100mm" >
<path d="M 0.001, 601.801 
	L 0.000, 601.802 
	L 58.677, 897.723 
" />
<path d="M 31.678, 870.723 
	L 31.677, 870.723 
	L 64.346, 621.347 
" />
<path d="M 15.024, 623.188 
	L 15.024, 623.189 
	L 31.606, 555.367 
" />
<path d="M 78.024, 549.201 
	L 78.024, 549.201 
	L 77.457, 435.761 
" />
<path d="M 37.347, 457.870 
	L 37.346, 457.871 
	L 31.394, 553.483 
" />
<path d="M 56.410, 558.230 
	L 56.409, 558.231 
	L 81.638, 856.515 
" />
<path d="M 84.261, 899.742 
	L 84.260, 899.743 
	L 99.992, 627.336 
" />
<path d="M 70.158, 574.682 
	L 70.157, 574.683 
	L 75.402, 592.374 
" />
<path d="M 45.355, 555.240 
	L 45.354, 555.241 
	L 105.378, 425.027 
" />
<path d="M 42.733, 403.128 
	L 42.732, 403.129 
	L 110.480, 572.671 
" />
<path d="M 61.938, 535.040 
	L 61.937, 535.041 
	L 54.921, 906.067 
" />
<path d="M 93.119, 900.539 
	L 93.118, 900.539 
	L 58.465, 563.730 
" />
<path d="M 65.127, 591.579 
	L 65.126, 591.580 
	L 88.795, 529.641 
" />
<path d="M 73.631, 536.514 
	L 73.630, 536.515 
	L 86.386, 413.837 
" />
<path d="M 112.111, 412.348 
	L 112.110, 412.349 
	L 117.354, 561.635 
" />
<path d="M 90.851, 578.713 
	L 90.850, 578.714 
	L 72.213, 874.213 
" />
<path d="M 74.977, 849.976 
	L 74.976, 849.976 
	L 135.780, 577.341 
" />
<path d="M 105.095, 612.348 
	L 105.095, 612.349 
	L 117.071, 531.906 
" />
<path d="M 121.536, 580.662 
	L 121.535, 580.662 
	L 141.661, 449.445 
" />
<path d="M 120.969, 430.381 
	L 120.969, 430.382 
	L 116.646, 624.924 
" />
<path d="M 160.654, 593.317 
	L 160.654, 593.318 
	L 122.669, 887.677 
" />
<path d="M 116.859, 822.125 
	L 116.858, 822.126 
	L 154.134, 552.723 
" />
<path d="M 152.363, 611.612 
	L 152.362, 611.612 
	L 172.276, 577.903 
" />
<path d="M 160.867, 557.138 
	L 160.866, 557.139 
	L 103.252, 439.732 
" />
<path d="M 168.237, 411.030 
	L 168.236, 411.031 
	L 118.843, 613.577 
" />
<path d="M 135.001, 621.301 
	L 135.000, 621.301 
	L 151.724, 860.925 
" />
<path d="M 138.686, 868.719 
	L 138.685, 868.720 
	L 149.244, 587.899 
" />
<path d="M 148.536, 562.245 
	L 148.535, 562.246 
	L 173.835, 529.197 
" />
<path d="M 162.426, 567.535 
	L 162.425, 567.536 
	L 185.244, 390.550 
" />
<path d="M 185.741, 433.495 
	L 185.740, 433.495 
	L 150.165, 670.518 
" />
<path d="M 174.402, 632.604 
	L 174.402, 632.604 
	L 189.283, 822.905 
" />
<path d="M 141.662, 820.211 
	L 141.661, 820.212 
	L 156.047, 596.795 
" />
<path d="M 176.245, 604.519 
	L 176.244, 604.519 
	L 222.024, 528.047 
" />
<path d="M 182.410, 559.015 
	L 182.409, 559.016 
	L 168.449, 403.079 
" />
<path d="M 210.544, 386.992 
	L 210.543, 386.992 
	L 191.055, 621.842 
" />
<path d="M 218.198, 684.558 
	L 218.197, 684.559 
	L 217.913, 813.019 
" />
<path d="M 192.686, 845.050 
	L 192.685, 845.051 
	L 220.606, 558.492 
" />
<path d="M 170.788, 563.239 
	L 170.787, 563.240 
	L 222.874, 524.478 
" />
<path d="M 225.639, 538.650 
	L 225.638, 538.651 
	L 190.063, 406.675 
" />
<path d="M 211.324, 386.123 
	L 211.323, 386.124 
	L 208.559, 698.477 
" />
<path d="M 186.733, 655.531 
	L 186.732, 655.532 
	L 185.598, 799.944 
" />
<path d="M 178.583, 830.203 
	L 178.583, 830.204 
	L 194.032, 603.262 
" />
<path d="M 234.639, 572.009 
	L 234.638, 572.010 
	L 220.252, 514.919 
" />
<path d="M 240.591, 517.682 
	L 240.591, 517.683 
	L 227.906, 428.013 
" />
<path d="M 231.591, 396.973 
	L 231.591, 396.974 
	L 203.244, 661.029 
" />
<path d="M 186.733, 694.902 
	L 186.732, 694.903 
	L 242.433, 808.997 
" />
<path d="M 239.032, 841.594 
	L 239.032, 841.595 
	L 217.276, 594.810 
" />
<path d="M 207.072, 564.124 
	L 207.071, 564.125 
	L 233.929, 571.868 
" />
<path d="M 191.694, 548.056 
	L 191.693, 548.057 
	L 234.567, 434.391 
" />
<path d="M 194.457, 413.697 
	L 194.457, 413.698 
	L 240.520, 672.180 
" />
<path d="M 214.938, 668.920 
	L 214.937, 668.920 
	L 190.559, 844.908 
" />
<path d="M 193.111, 810.679 
	L 193.110, 810.680 
	L 194.882, 593.941 
" />
<path d="M 201.402, 614.917 
	L 201.402, 614.918 
	L 188.008, 546.931 
" />
<path d="M 238.465, 517.804 
	L 238.465, 517.805 
	L 190.559, 412.109 
" />
<path d="M 195.450, 418.841 
	L 195.449, 418.842 
	L 230.669, 670.342 
" />
<path d="M 206.505, 655.176 
	L 206.504, 655.177 
	L 254.906, 836.670 
" />
<path d="M 252.497, 783.307 
	L 252.496, 783.308 
	L 251.504, 587.119 
" />
<path d="M 245.906, 572.307 
	L 245.906, 572.308 
	L 221.315, 517.498 
" />
<path d="M 213.520, 570.222 
	L 213.520, 570.222 
	L 265.890, 443.115 
" />
<path d="M 271.418, 399.957 
	L 271.417, 399.957 
	L 214.937, 670.399 
" />
<path d="M 259.158, 717.170 
	L 259.158, 717.171 
	L 272.551, 798.367 
" />
<path d="M 252.922, 819.555 
	L 252.921, 819.556 
	L 261.496, 571.416 
" />
<path d="M 244.985, 601.250 
	L 244.984, 601.251 
	L 267.165, 552.121 
" />
<path d="M 227.127, 549.144 
	L 227.126, 549.145 
	L 269.787, 405.228 
" />
<path d="M 291.331, 413.943 
	L 291.331, 413.944 
	L 229.606, 692.622 
" />
<path d="M 265.820, 691.629 
	L 265.819, 691.630 
	L 280.205, 841.861 
" />
<path d="M 224.576, 796.577 
	L 224.575, 796.577 
	L 225.000, 611.221 
" />
<path d="M 240.804, 594.283 
	L 240.803, 594.284 
	L 265.252, 562.397 
" />
<path d="M 246.048, 585.073 
	L 246.047, 585.074 
	L 239.811, 396.849 
" />
<path d="M 242.363, 401.100 
	L 242.362, 401.101 
	L 269.362, 684.899 
" />
<path d="M 305.434, 718.701 
	L 305.433, 718.702 
	L 274.961, 827.794 
" />
<path d="M 261.497, 826.447 
	L 261.496, 826.447 
	L 265.252, 602.168 
" />
<path d="M 253.135, 593.238 
	L 253.134, 593.239 
	L 315.921, 566.772 
" />
<path d="M 288.426, 530.275 
	L 288.425, 530.276 
	L 312.024, 398.580 
" />
<path d="M 278.859, 399.288 
	L 278.858, 399.288 
	L 310.819, 752.121 
" />
<path d="M 282.544, 706.057 
	L 282.543, 706.058 
	L 301.535, 823.275 
" />
<path d="M 264.757, 814.487 
	L 264.756, 814.488 
	L 322.512, 563.866 
" />
<path d="M 325.418, 604.543 
	L 325.417, 604.544 
	L 288.354, 555.358 
" />
<path d="M 280.205, 522.192 
	L 280.205, 522.193 
	L 312.520, 435.009 
" />
<path d="M 277.016, 432.882 
	L 277.016, 432.883 
	L 314.929, 707.211 
" />
<path d="M 272.410, 718.549 
	L 272.409, 718.549 
	L 285.661, 818.669 
" />
<path d="M 309.828, 777.566 
	L 309.827, 777.567 
	L 306.284, 591.079 
" />
<path d="M 286.087, 624.811 
	L 286.087, 624.811 
	L 289.417, 565.067 
" />
<path d="M 315.426, 545.294 
	L 315.425, 545.295 
	L 326.480, 460.400 
" />
<path d="M 303.024, 421.777 
	L 303.024, 421.778 
	L 313.228, 716.146 
" />
<path d="M 297.709, 740.310 
	L 297.709, 740.311 
	L 322.583, 798.224 
" />
<path d="M 336.119, 773.846 
	L 336.118, 773.846 
	L 323.150, 598.070 
" />
<path d="M 334.064, 601.258 
	L 334.063, 601.259 
	L 313.158, 553.214 
" />
<path d="M 290.339, 577.804 
	L 290.339, 577.804 
	L 352.347, 468.911 
" />
<path d="M 300.828, 401.800 
	L 300.827, 401.801 
	L 347.315, 754.529 
" />
<path d="M 338.599, 746.520 
	L 338.598, 746.521 
	L 315.425, 777.726 
" />
<path d="M 342.568, 776.450 
	L 342.567, 776.451 
	L 366.732, 614.740 
" />
<path d="M 303.520, 608.787 
	L 303.520, 608.788 
	L 307.984, 586.272 
" />
<path d="M 327.261, 550.271 
	L 327.260, 550.272 
	L 324.638, 408.921 
" />
<path d="M 372.544, 462.353 
	L 372.543, 462.354 
	L 347.740, 787.200 
" />
<path d="M 316.914, 770.191 
	L 316.913, 770.192 
	L 309.614, 741.903 
" />
<path d="M 324.568, 773.367 
	L 324.567, 773.368 
	L 338.740, 584.263 
" />
<path d="M 357.946, 571.436 
	L 357.945, 571.436 
	L 356.315, 546.091 
" />
<path d="M 342.993, 559.413 
	L 342.992, 559.414 
	L 322.866, 418.681 
" />
<path d="M 353.623, 478.704 
	L 353.622, 478.705 
	L 349.441, 766.948 
" />
<path d="M 330.875, 750.294 
	L 330.874, 750.295 
	L 330.874, 761.497 
" />
<path d="M 362.198, 788.000 
	L 362.197, 788.001 
	L 332.008, 595.094 
" />
<path d="M 376.371, 594.243 
	L 376.370, 594.244 
	L 385.441, 552.841 
" />
<path d="M 369.851, 557.730 
	L 369.850, 557.731 
	L 400.890, 485.806 
" />
<path d="M 371.623, 460.648 
	L 371.622, 460.648 
	L 392.811, 808.801 
" />
<path d="M 358.796, 805.044 
	L 358.795, 805.045 
	L 365.953, 756.855 
" />
<path d="M 388.772, 752.886 
	L 388.772, 752.887 
	L 377.717, 594.614 
" />
<path d="M 375.379, 577.535 
	L 375.378, 577.536 
	L 399.260, 556.587 
" />
<path d="M 396.497, 556.019 
	L 396.496, 556.020 
	L 393.307, 473.640 
" />
<path d="M 368.221, 473.781 
	L 368.221, 473.782 
	L 364.819, 761.551 
" />
<path d="M 357.733, 763.322 
	L 357.732, 763.323 
	L 362.268, 789.082 
" />
<path d="M 349.016, 726.790 
	L 349.016, 726.791 
	L 389.055, 616.868 
" />
<path d="M 360.284, 578.033 
	L 360.284, 578.033 
	L 367.299, 550.931 
" />
<path d="M 415.631, 553.482 
	L 415.630, 553.482 
	L 386.362, 506.719 
" />
<path d="M 375.450, 460.655 
	L 375.449, 460.656 
	L 388.772, 833.361 
" />
<path d="M 404.717, 764.266 
	L 404.717, 764.267 
	L 363.118, 727.623 
" />
<path d="M 416.410, 731.449 
	L 416.410, 731.450 
	L 384.591, 571.144 
" />
<path d="M 377.363, 591.269 
	L 377.362, 591.270 
	L 390.614, 586.101 
" />
<path d="M 371.977, 602.116 
	L 371.976, 602.116 
	L 423.000, 497.729 
" />
<path d="M 382.607, 471.295 
	L 382.606, 471.296 
	L 384.378, 832.195 
" />
<path d="M 413.221, 775.502 
	L 413.221, 775.502 
	L 419.315, 762.170 
" />
<path d="M 443.056, 740.272 
	L 443.055, 740.273 
	L 430.512, 622.575 
" />
<path d="M 439.725, 605.920 
	L 439.724, 605.921 
	L 388.417, 559.267 
" />
<path d="M 374.245, 603.700 
	L 374.244, 603.700 
	L 442.063, 476.205 
" />
<path d="M 403.017, 486.622 
	L 403.016, 486.622 
	L 392.457, 834.045 
" />
<path d="M 413.646, 821.714 
	L 413.646, 821.714 
	L 389.055, 764.845 
" />
<path d="M 389.977, 758.750 
	L 389.976, 758.750 
	L 455.598, 643.094 
" />
<path d="M 392.174, 612.975 
	L 392.173, 612.976 
	L 455.315, 614.033 
" />
<path d="M 419.316, 565.631 
	L 419.315, 565.632 
	L 449.787, 515.502 
" />
<path d="M 456.946, 522.162 
	L 456.945, 522.163 
	L 436.819, 818.513 
" />
<path d="M 444.615, 824.890 
	L 444.614, 824.891 
	L 417.685, 721.776 
" />
<path d="M 460.135, 740.342 
	L 460.134, 740.343 
	L 441.992, 590.450 
" />
<path d="M 443.410, 604.551 
	L 443.410, 604.552 
	L 421.654, 561.446 
" />
<path d="M 466.583, 608.855 
	L 466.583, 608.856 
	L 464.528, 548.121 
" />
<path d="M 481.749, 492.490 
	L 481.748, 492.491 
	L 439.583, 861.556 
" />
<path d="M 430.371, 828.815 
	L 430.370, 828.816 
	L 474.307, 694.386 
" />
<path d="M 438.308, 713.945 
	L 438.307, 713.945 
	L 489.331, 615.859 
" />
<path d="M 435.261, 593.819 
	L 435.260, 593.819 
	L 425.480, 598.445 
" />
<path d="M 480.048, 618.003 
	L 480.047, 618.004 
	L 427.394, 528.930 
" />
<path d="M 495.426, 499.874 
	L 495.425, 499.875 
	L 480.118, 833.493 
" />
<path d="M 459.426, 831.225 
	L 459.425, 831.225 
	L 473.173, 733.345 
" />
<path d="M 458.080, 686.573 
	L 458.079, 686.573 
	L 491.882, 605.910 
" />
<path d="M 442.135, 626.956 
	L 442.134, 626.957 
	L 464.315, 607.651 
" />
<path d="M 491.245, 628.485 
	L 491.244, 628.486 
	L 467.504, 515.405 
" />
<path d="M 463.961, 508.317 
	L 463.961, 508.318 
	L 486.567, 850.813 
" />
<path d="M 500.245, 805.387 
	L 500.244, 805.388 
	L 489.898, 715.752 
" />
<path d="M 448.867, 745.303 
	L 448.866, 745.304 
	L 509.315, 620.305 
" />
<path d="M 461.552, 625.194 
	L 461.551, 625.195 
	L 482.102, 620.102 
" />
<path d="M 509.245, 585.306 
	L 509.244, 585.307 
	L 479.906, 504.042 
" />
<path d="M 467.646, 507.018 
	L 467.646, 507.018 
	L 468.142, 810.975 
" />
<path d="M 477.922, 868.872 
	L 477.921, 868.873 
	L 509.528, 716.584 
" />
<path d="M 502.017, 724.237 
	L 502.016, 724.238 
	L 505.843, 657.490 
" />
<path d="M 472.749, 623.474 
	L 472.748, 623.475 
	L 528.803, 580.317 
" />
<path d="M 529.725, 613.340 
	L 529.724, 613.341 
	L 492.095, 538.569 
" />
<path d="M 468.355, 537.860 
	L 468.354, 537.861 
	L 498.260, 863.184 
" />
<path d="M 532.702, 825.199 
	L 532.701, 825.200 
	L 532.701, 675.517 
" />
<path d="M 520.938, 715.273 
	L 520.937, 715.273 
	L 479.835, 595.237 
" />
<path d="M 488.552, 652.000 
	L 488.551, 652.000 
	L 502.866, 584.515 
" />
<path d="M 538.513, 598.191 
	L 538.512, 598.192 
	L 553.961, 589.806 
" />
<path d="M 529.300, 552.175 
	L 529.299, 552.176 
	L 554.599, 860.054 
" />
<path d="M 526.891, 856.297 
	L 526.890, 856.298 
	L 518.386, 666.128 
" />
<path d="M 502.229, 676.828 
	L 502.228, 676.828 
	L 535.323, 614.462 
" />
<path d="M 539.576, 637.918 
	L 539.575, 637.919 
	L 487.984, 626.963 
" />
<path d="M 530.646, 644.679 
	L 530.646, 644.680 
	L 536.244, 602.561 
" />
<path d="M 500.174, 584.277 
	L 500.173, 584.278 
	L 554.953, 837.889 
" />
<path d="M 514.347, 868.716 
	L 514.347, 868.716 
	L 510.449, 711.163 
" />
<path d="M 535.465, 687.210 
	L 535.465, 687.210 
	L 547.441, 632.745 
" />
<path d="M 529.583, 611.556 
	L 529.583, 611.556 
	L 524.976, 631.641 
" />
<path d="M 542.268, 639.578 
	L 542.268, 639.578 
	L 543.827, 610.500 
" />
<path d="M 510.733, 571.948 
	L 510.732, 571.949 
	L 533.268, 839.021 
" />
<path d="M 519.875, 839.800 
	L 519.874, 839.801 
	L 579.827, 704.626 
" />
<path d="M 513.497, 668.271 
	L 513.496, 668.271 
	L 548.575, 621.478 
" />
<path d="M 524.268, 664.634 
	L 524.268, 664.635 
	L 587.197, 622.490 
" />
<path d="M 527.103, 630.851 
	L 527.102, 630.852 
	L 522.567, 582.153 
" />
<path d="M 551.765, 582.577 
	L 551.764, 582.578 
	L 551.197, 855.651 
" />
<path d="M 537.875, 835.312 
	L 537.874, 835.313 
	L 550.984, 666.056 
" />
<path d="M 554.670, 656.418 
	L 554.669, 656.418 
	L 534.756, 623.573 
" />
<path d="M 577.914, 671.903 
	L 577.913, 671.904 
	L 556.583, 613.490 
" />
<path d="M 524.410, 632.198 
	L 524.410, 632.198 
	L 529.087, 622.476 
" />
<path d="M 564.875, 564.506 
	L 564.874, 564.507 
	L 582.449, 851.382 
" />
<path d="M 555.662, 874.838 
	L 555.662, 874.839 
	L 547.866, 710.471 
" />
<path d="M 577.489, 681.345 
	L 577.488, 681.345 
	L 567.284, 631.497 
" />
<path d="M 529.229, 647.299 
	L 529.228, 647.300 
	L 538.441, 608.118 
" />
<path d="M 554.954, 648.936 
	L 554.953, 648.937 
	L 580.890, 575.620 
" />
<path d="M 561.686, 638.053 
	L 561.685, 638.053 
	L 598.606, 832.946 
" />
<path d="M 578.835, 839.181 
	L 578.835, 839.182 
	L 603.638, 685.367 
" />
<path d="M 605.056, 708.044 
	L 605.055, 708.044 
	L 570.543, 643.983 
" />
<path d="M 599.316, 632.360 
	L 599.315, 632.361 
	L 567.142, 653.138 
" />
<path d="M 558.143, 612.743 
	L 558.142, 612.744 
	L 599.457, 608.548 
" />
<path d="M 576.355, 646.886 
	L 576.354, 646.887 
	L 600.591, 842.075 
" />
<path d="M 605.127, 847.602 
	L 605.126, 847.602 
	L 619.016, 635.796 
" />
<path d="M 578.906, 687.103 
	L 578.906, 687.103 
	L 556.866, 682.061 
" />
<path d="M 599.670, 627.776 
	L 599.669, 627.777 
	L 609.378, 677.302 
" />
<path d="M 586.418, 667.805 
	L 586.417, 667.806 
	L 569.551, 623.758 
" />
<path d="M 601.938, 649.128 
	L 601.937, 649.128 
	L 581.457, 899.689 
" />
<path d="M 593.221, 872.050 
	L 593.221, 872.051 
	L 562.677, 636.062 
" />
<path d="M 630.284, 668.093 
	L 630.284, 668.093 
	L 616.819, 624.619 
" />
<path d="M 561.828, 620.508 
	L 561.827, 620.508 
	L 602.291, 652.013 
" />
<path d="M 584.221, 654.280 
	L 584.221, 654.281 
	L 613.134, 606.751 
" />
<path d="M 630.001, 614.900 
	L 630.000, 614.901 
	L 629.575, 836.189 
" />
<path d="M 627.520, 861.629 
	L 627.520, 861.630 
	L 624.756, 682.302 
" />
<path d="M 596.906, 652.750 
	L 596.906, 652.751 
	L 628.937, 650.347 
" />
<path d="M 631.418, 683.866 
	L 631.417, 683.867 
	L 646.228, 631.363 
" />
<path d="M 603.284, 634.339 
	L 603.284, 634.339 
	L 598.181, 682.842 
" />
<path d="M 586.489, 674.621 
	L 586.488, 674.622 
	L 593.008, 853.834 
" />
<path d="M 616.607, 860.424 
	L 616.606, 860.424 
	L 621.354, 647.559 
" />
<path d="M 587.268, 650.039 
	L 587.268, 650.040 
	L 604.559, 693.089 
" />
<path d="M 617.954, 676.222 
	L 617.953, 676.223 
	L 651.118, 699.462 
" />
<path d="M 646.796, 679.052 
	L 646.795, 679.053 
	L 671.528, 702.772 
" />
<path d="M 655.087, 709.645 
	L 655.087, 709.646 
	L 617.740, 857.665 
" />
<path d="M 640.489, 892.885 
	L 640.488, 892.886 
	L 654.378, 643.042 
" />
<path d="M 624.898, 675.143 
	L 624.898, 675.144 
	L 631.488, 675.107 
" />
<path d="M 680.812, 663.413 
	L 680.811, 663.414 
	L 690.520, 649.211 
" />
<path d="M 644.812, 648.289 
	L 644.811, 648.290 
	L 677.835, 687.732 
" />
<path d="M 637.513, 719.408 
	L 637.512, 719.409 
	L 690.236, 837.765 
" />
<path d="M 690.166, 881.488 
	L 690.165, 881.489 
	L 665.504, 660.298 
" />
<path d="M 637.867, 609.911 
	L 637.866, 609.912 
	L 699.165, 635.931 
" />
<path d="M 637.583, 678.733 
	L 637.583, 678.734 
	L 678.189, 660.337 
" />
<path d="M 690.804, 690.100 
	L 690.803, 690.101 
	L 653.953, 689.929 
" />
<path d="M 659.481, 709.275 
	L 659.480, 709.275 
	L 695.126, 879.788 
" />
<path d="M 671.954, 857.607 
	L 671.953, 857.607 
	L 661.961, 663.770 
" />
<path d="M 641.906, 670.147 
	L 641.906, 670.148 
	L 689.102, 701.766 
" />
<path d="M 649.985, 695.033 
	L 649.984, 695.034 
	L 664.725, 703.106 
" />
<path d="M 668.765, 648.467 
	L 668.764, 648.468 
	L 644.173, 687.769 
" />
<path d="M 646.300, 732.910 
	L 646.299, 732.911 
	L 642.189, 896.241 
" />
<path d="M 641.339, 849.043 
	L 641.339, 849.044 
	L 653.315, 658.862 
" />
<path d="M 694.772, 608.405 
	L 694.772, 608.406 
	L 647.079, 697.656 
" />
<path d="M 656.930, 644.364 
	L 656.929, 644.365 
	L 651.189, 671.995 
" />
<path d="M 704.481, 669.514 
	L 704.480, 669.515 
	L 669.331, 693.084 
" />
<path d="M 689.954, 725.894 
	L 689.953, 725.895 
	L 643.394, 853.296 
" />
<path d="M 645.520, 872.216 
	L 645.520, 872.217 
	L 638.221, 650.429 
" />
<path d="M 672.450, 622.153 
	L 672.449, 622.154 
	L 686.764, 701.695 
" />
<path d="M 686.694, 696.238 
	L 686.693, 696.239 
	L 644.244, 670.932 
" />
<path d="M 648.143, 684.184 
	L 648.142, 684.184 
	L 647.504, 739.984 
" />
<path d="M 688.607, 701.432 
	L 688.606, 701.433 
	L 698.740, 851.683 
" />
<path d="M 646.158, 840.698 
	L 646.158, 840.699 
	L 714.189, 630.002 
" />
<path d="M 672.591, 638.151 
	L 672.591, 638.152 
	L 685.701, 666.958 
" />
<path d="M 657.851, 657.177 
	L 657.850, 657.178 
	L 672.591, 688.592 
" />
<path d="M 702.922, 702.765 
	L 702.921, 702.765 
	L 657.213, 738.496 
" />
<path d="M 670.040, 738.283 
	L 670.039, 738.284 
	L 684.992, 839.140 
" />
<path d="M 685.985, 885.769 
	L 685.984, 885.770 
	L 722.976, 658.259 
" />
<path d="M 658.418, 651.952 
	L 658.417, 651.952 
	L 704.551, 665.744 
" />
<path d="M 684.072, 689.270 
	L 684.071, 689.271 
	L 733.465, 713.772 
" />
<path d="M 664.796, 712.780 
	L 664.795, 712.780 
	L 739.347, 765.575 
" />
<path d="M 721.276, 766.070 
	L 721.276, 766.071 
	L 740.906, 844.197 
" />
<path d="M 732.119, 837.747 
	L 732.118, 837.748 
	L 728.788, 639.444 
" />
<path d="M 730.843, 646.318 
	L 730.843, 646.318 
	L 747.496, 703.281 
" />
<path d="M 682.371, 678.761 
	L 682.370, 678.762 
	L 750.543, 695.315 
" />
<path d="M 743.316, 699.425 
	L 743.315, 699.426 
	L 744.236, 764.127 
" />
<path d="M 712.560, 719.693 
	L 712.559, 719.694 
	L 695.055, 866.996 
" />
<path d="M 694.914, 861.964 
	L 694.913, 861.965 
	L 695.551, 627.787 
" />
<path d="M 726.308, 584.416 
	L 726.307, 584.417 
	L 745.016, 713.085 
" />
<path d="M 746.646, 683.108 
	L 746.646, 683.109 
	L 759.331, 678.621 
" />
<path d="M 709.087, 712.494 
	L 709.087, 712.495 
	L 710.788, 780.733 
" />
<path d="M 763.725, 772.299 
	L 763.725, 772.300 
	L 729.851, 819.318 
" />
<path d="M 729.851, 874.096 
	L 729.851, 874.097 
	L 752.315, 595.950 
" />
<path d="M 699.875, 612.320 
	L 699.874, 612.320 
	L 716.953, 682.396 
" />
<path d="M 754.158, 664.112 
	L 754.158, 664.113 
	L 738.071, 686.699 
" />
<path d="M 712.418, 728.722 
	L 712.417, 728.723 
	L 731.197, 733.173 
" />
<path d="M 745.442, 736.291 
	L 745.441, 736.292 
	L 724.890, 869.241 
" />
<path d="M 747.568, 841.603 
	L 747.567, 841.604 
	L 751.536, 574.177 
" />
<path d="M 762.875, 569.570 
	L 762.874, 569.570 
	L 763.087, 686.693 
" />
<path d="M 717.804, 670.960 
	L 717.803, 670.961 
	L 736.795, 698.421 
" />
<path d="M 762.379, 726.483 
	L 762.378, 726.484 
	L 727.299, 808.861 
" />
<path d="M 722.977, 758.333 
	L 722.976, 758.334 
	L 761.102, 822.183 
" />
<path d="M 769.678, 833.450 
	L 769.677, 833.451 
	L 743.740, 581.015 
" />
<path d="M 760.182, 615.667 
	L 760.181, 615.668 
	L 773.008, 723.030 
" />
<path d="M 763.725, 699.077 
	L 763.725, 699.078 
	L 794.693, 693.928 
" />
<path d="M 771.591, 688.117 
	L 771.591, 688.117 
	L 764.291, 814.325 
" />
<path d="M 803.410, 781.442 
	L 803.410, 781.443 
	L 777.543, 844.302 
" />
<path d="M 766.772, 799.868 
	L 766.772, 799.869 
	L 763.370, 562.961 
" />
<path d="M 786.544, 594.638 
	L 786.543, 594.639 
	L 752.740, 698.133 
" />
<path d="M 759.898, 707.416 
	L 759.898, 707.416 
	L 821.197, 749.014 
" />
<path d="M 795.402, 719.533 
	L 795.402, 719.534 
	L 795.756, 799.478 
" />
<path d="M 829.631, 813.580 
	L 829.630, 813.580 
	L 810.425, 837.554 
" />
<path d="M 779.032, 832.380 
	L 779.032, 832.381 
	L 801.780, 565.973 
" />
<path d="M 821.977, 599.917 
	L 821.977, 599.918 
	L 778.677, 673.852 
" />
<path d="M 835.513, 714.387 
	L 835.512, 714.388 
	L 778.890, 713.533 
" />
<path d="M 796.678, 745.280 
	L 796.677, 745.281 
	L 841.181, 844.471 
" />
<path d="M 804.757, 817.328 
	L 804.756, 817.329 
	L 824.386, 799.746 
" />
<path d="M 835.371, 805.698 
	L 835.370, 805.699 
	L 840.827, 563.174 
" />
<path d="M 790.442, 540.850 
	L 790.441, 540.851 
	L 824.882, 738.118 
" />
<path d="M 786.048, 681.991 
	L 786.047, 681.992 
	L 821.977, 739.810 
" />
<path d="M 791.505, 702.250 
	L 791.504, 702.251 
	L 801.425, 795.849 
" />
<path d="M 821.198, 819.163 
	L 821.197, 819.164 
	L 849.118, 805.266 
" />
<path d="M 795.402, 795.770 
	L 795.402, 795.770 
	L 798.307, 541.471 
" />
<path d="M 858.828, 582.005 
	L 858.827, 582.006 
	L 794.339, 739.247 
" />
<path d="M 798.946, 739.672 
	L 798.945, 739.673 
	L 855.638, 717.303 
" />
<path d="M 824.103, 761.594 
	L 824.102, 761.594 
	L 844.795, 847.723 
" />
<path d="M 824.316, 821.006 
	L 824.315, 821.006 
	L 802.772, 820.219 
" />
<path d="M 846.993, 830.919 
	L 846.992, 830.920 
	L 815.669, 574.476 
" />
<path d="M 817.229, 565.617 
	L 817.228, 565.618 
	L 808.158, 723.319 
" />
<path d="M 832.820, 709.712 
	L 832.819, 709.712 
	L 867.685, 715.202 
" />
<path d="M 842.741, 763.815 
	L 842.740, 763.816 
	L 864.921, 869.963 
" />
<path d="M 866.127, 860.962 
	L 866.126, 860.963 
	L 817.016, 837.493 
" />
<path d="M 862.300, 809.075 
	L 862.299, 809.076 
	L 845.008, 550.807 
" />
<path d="M 825.095, 575.255 
	L 825.095, 575.256 
	L 866.764, 741.143 
" />
<path d="M 838.914, 685.087 
	L 838.914, 685.088 
	L 845.008, 761.355 
" />
<path d="M 824.954, 710.189 
	L 824.953, 710.190 
	L 857.339, 837.154 
" />
<path d="M 837.639, 867.130 
	L 837.638, 867.130 
	L 825.307, 787.559 
" />
<path d="M 874.772, 782.314 
	L 874.772, 782.315 
	L 865.063, 565.724 
" />
<path d="M 848.127, 575.149 
	L 848.126, 575.150 
	L 816.449, 695.206 
" />
<path d="M 849.828, 737.229 
	L 849.827, 737.230 
	L 843.803, 765.194 
" />
<path d="M 837.639, 722.532 
	L 837.638, 722.533 
	L 840.118, 828.863 
" />
<path d="M 850.111, 845.586 
	L 850.110, 845.587 
	L 864.567, 762.756 
" />
<path d="M 848.694, 816.684 
	L 848.693, 816.685 
	L 818.291, 543.756 
" />
<path d="M 874.843, 566.220 
	L 874.843, 566.221 
	L 822.189, 744.600 
" />
<path d="M 825.591, 742.473 
	L 825.591, 742.474 
	L 876.827, 774.196 
" />
<path d="M 873.922, 731.037 
	L 873.921, 731.038 
	L 864.000, 866.709 
" />
<path d="M 845.292, 844.102 
	L 845.291, 844.103 
	L 885.402, 779.462 
" />
<path d="M 885.615, 769.115 
	L 885.614, 769.116 
	L 887.953, 533.020 
" />
<path d="M 843.733, 571.003 
	L 843.732, 571.004 
	L 907.725, 698.728 
" />
<path d="M 877.961, 721.475 
	L 877.961, 721.476 
	L 852.449, 773.452 
" />
<path d="M 877.395, 773.452 
	L 877.394, 773.452 
	L 858.827, 864.408 
" />
<path d="M 850.536, 857.038 
	L 850.536, 857.038 
	L 904.961, 785.303 
" />
<path d="M 919.702, 783.955 
	L 919.701, 783.956 
	L 869.315, 537.945 
" />
<path d="M 869.174, 556.582 
	L 869.173, 556.583 
	L 917.929, 696.504 
" />
<path d="M 864.072, 716.487 
	L 864.071, 716.488 
	L 867.189, 771.002 
" />
<path d="M 906.733, 717.073 
	L 906.732, 717.073 
	L 888.236, 869.723 
" />
<path d="M 908.434, 829.116 
	L 908.433, 829.117 
	L 887.599, 752.988 
" />
<path d="M 906.733, 764.751 
	L 906.732, 764.751 
	L 893.622, 506.462 
" />
<path d="M 912.119, 552.312 
	L 912.118, 552.312 
	L 902.126, 734.685 
" />
<path d="M 906.804, 693.511 
	L 906.803, 693.512 
	L 886.748, 716.795 
" />
<path d="M 902.623, 745.849 
	L 902.622, 745.850 
	L 888.803, 893.194 
" />
<path d="M 944.150, 899.784 
	L 944.150, 899.785 
	L 900.425, 771.182 
" />
<path d="M 875.977, 743.473 
	L 875.977, 743.474 
	L 936.921, 539.804 
" />
<path d="M 897.237, 552.985 
	L 897.236, 552.986 
	L 922.465, 736.881 
" />
<path d="M 934.158, 724.550 
	L 934.158, 724.550 
	L 899.646, 723.498 
" />
<path d="M 945.355, 715.986 
	L 945.354, 715.986 
	L 876.898, 859.674 
" />
<path d="M 927.851, 850.319 
	L 927.851, 850.320 
	L 896.244, 761.899 
" />
<path d="M 877.820, 741.205 
	L 877.819, 741.206 
	L 904.181, 563.970 
" />
<path d="M 887.670, 551.780 
	L 887.669, 551.781 
	L 898.795, 729.086 
" />
<path d="M 945.072, 709.172 
	L 945.071, 709.172 
	L 895.961, 740.010 
" />
<path d="M 916.229, 724.064 
	L 916.228, 724.065 
	L 900.000, 868.178 
" />
<path d="M 908.647, 873.209 
	L 908.646, 873.210 
	L 896.740, 781.812 
" />
<path d="M 910.914, 751.552 
	L 910.914, 751.553 
	L 942.165, 551.568 
" />
<path d="M 920.481, 548.024 
	L 920.480, 548.025 
	L 919.559, 745.172 
" />
<path d="M 934.584, 737.022 
	L 934.583, 737.023 
	L 918.071, 753.971 
" />
<path d="M 881.717, 744.474 
	L 881.717, 744.474 
	L 908.008, 877.887 
" />
<path d="M 939.332, 846.351 
	L 939.331, 846.352 
	L 893.764, 752.571 
" />
<path d="M 912.828, 752.925 
	L 912.827, 752.925 
	L 948.331, 490.801 
" />
<path d="M 963.143, 497.957 
	L 963.142, 497.958 
	L 960.378, 732.830 
" />
<path d="M 952.938, 705.616 
	L 952.937, 705.617 
	L 925.866, 784.295 
" />
<path d="M 938.056, 739.790 
	L 938.055, 739.791 
	L 928.984, 856.149 
" />
<path d="M 979.158, 873.794 
	L 979.158, 873.795 
	L 973.843, 750.327 
" />
<path d="M 978.946, 689.098 
	L 978.945, 689.098 
	L 983.480, 521.220 
" />
<path d="M 932.103, 497.550 
	L 932.103, 497.551 
	L 948.047, 719.787 
" />
<path d="M 947.977, 722.905 
	L 947.977, 722.906 
	L 972.921, 790.727 
" />
<path d="M 950.883, 763.585 
	L 950.882, 763.586 
	L 939.402, 876.204 
" />
<path d="M 962.292, 856.148 
	L 962.291, 856.149 
	L 987.732, 742.867 
" />
<path d="M 933.521, 727.134 
	L 933.520, 727.135 
	L 964.843, 538.847 
" />
<path d="M 930.402, 485.130 
	L 930.402, 485.131 
	L 982.063, 720.748 
" />
<path d="M 971.363, 717.842 
	L 971.362, 717.843 
	L 935.221, 768.500 
" />
<path d="M 952.513, 724.066 
	L 952.512, 724.067 
	L 968.386, 918.404 
" />
<path d="M 996.308, 886.868 
	L 996.307, 886.869 
	L 954.213, 750.521 
" />
<path d="M 996.024, 699.355 
	L 996.024, 699.355 
	L 994.819, 489.241 
" />
<path d="M 995.954, 483.925 
	L 995.953, 483.926 
	L 931.536, 713.237 
" />
<path d="M 973.418, 712.598 
	L 973.417, 712.599 
	L 992.622, 736.823 
" />
<path d="M 987.662, 789.263 
	L 987.662, 789.264 
	L 944.575, 859.160 
" />
<path d="M 953.647, 882.049 
	L 953.646, 882.050 
	L 935.291, 741.308 
" />
<path d="M 960.946, 715.866 
	L 960.945, 715.867 
	L 942.874, 513.052 
" />
<path d="M 981.143, 531.689 
	L 981.142, 531.690 
	L 995.032, 714.556 
" />
<path d="M 936.426, 706.477 
	L 936.425, 706.477 
	L 976.961, 792.164 
" />
<path d="M 964.276, 772.037 
	L 964.276, 772.038 
	L 945.992, 923.020 
" />
<path d="M 953.009, 914.870 
	L 953.008, 914.871 
	L 974.055, 712.386 
" />
<path d="M 956.269, 732.227 
	L 956.268, 732.228 
	L 980.433, 492.749 
" />
<path d="M 985.536, 509.189 
	L 985.536, 509.190 
	L 1022.528, 702.177 
" />
<path d="M 1015.513, 742.854 
	L 1015.512, 742.854 
	L 962.433, 734.301 
" />
<path d="M 988.017, 745.851 
	L 988.016, 745.852 
	L 1025.150, 872.641 
" />
<path d="M 999.993, 933.018 
	L 999.992, 933.019 
	L 971.575, 659.191 
" />
<path d="M 1030.324, 692.781 
	L 1030.323, 692.782 
	L 1008.709, 493.634 
" />
<path d="M 1023.166, 511.846 
	L 1023.166, 511.847 
	L 1007.433, 760.479 
" />
<path d="M 964.347, 730.006 
	L 964.347, 730.006 
	L 1016.291, 772.472 
" />
<path d="M 1020.048, 790.896 
	L 1020.047, 790.897 
	L 998.291, 909.457 
" />
<path d="M 1020.615, 870.338 
	L 1020.614, 870.339 
	L 993.260, 705.350 
" />
<path d="M 1028.339, 670.129 
	L 1028.339, 670.129 
	L 981.425, 512.963 
" />
<path d="M 1029.473, 488.939 
	L 1029.473, 488.940 
	L 1028.339, 713.050 
" />
<path d="M 983.127, 720.561 
	L 983.126, 720.561 
	L 994.890, 781.897 
" />
<path d="M 1024.300, 737.392 
	L 1024.299, 737.393 
	L 992.906, 893.583 
" />
<path d="M 1036.914, 886.425 
	L 1036.914, 886.426 
	L 996.591, 694.933 
" />
<path d="M 1002.898, 694.578 
	L 1002.898, 694.578 
	L 1003.040, 519.253 
" />
<path d="M 1014.237, 467.449 
	L 1014.236, 467.449 
	L 1020.047, 758.810 
" />
<path d="M 1005.450, 747.187 
	L 1005.449, 747.188 
	L 1014.378, 775.986 
" />
<path d="M 1010.977, 785.198 
	L 1010.977, 785.198 
	L 1022.669, 881.581 
" />
<path d="M 1051.796, 900.076 
	L 1051.795, 900.077 
	L 1037.055, 668.966 
" />
<path d="M 991.135, 672.792 
	L 991.134, 672.793 
	L 1010.977, 506.904 
" />
<path d="M 1017.284, 458.573 
	L 1017.284, 458.573 
	L 1022.315, 758.508 
" />
<path d="M 1053.213, 701.247 
	L 1053.213, 701.248 
	L 996.449, 790.210 
" />
<path d="M 1062.072, 763.989 
	L 1062.071, 763.990 
	L 1030.040, 877.761 
" />
<path d="M 1028.481, 925.878 
	L 1028.480, 925.879 
	L 1050.945, 667.388 
" />
<path d="M 1011.969, 671.427 
	L 1011.969, 671.428 
	L 1067.882, 491.136 
" />
<path d="M 1036.206, 478.096 
	L 1036.205, 478.096 
	L 1017.425, 733.509 
" />
<path d="M 1013.174, 740.312 
	L 1013.173, 740.312 
	L 1016.150, 782.468 
" />
<path d="M 1063.347, 754.192 
	L 1063.347, 754.192 
	L 1019.268, 869.664 
" />
<path d="M 1040.174, 899.002 
	L 1040.173, 899.003 
	L 1065.614, 674.850 
" />
<path d="M 1027.489, 629.991 
	L 1027.488, 629.992 
	L 1063.205, 495.724 
" />
<path d="M 1033.796, 441.511 
	L 1033.795, 441.512 
	L 1070.717, 712.604 
" />
<path d="M 1056.615, 754.202 
	L 1056.614, 754.202 
	L 1067.032, 761.350 
" />
<path d="M 1063.418, 763.971 
	L 1063.417, 763.972 
	L 1076.386, 932.523 
" />
<path d="M 1063.843, 930.396 
	L 1063.843, 930.397 
	L 1079.362, 640.221 
" />
<path d="M 1046.977, 630.795 
	L 1046.977, 630.796 
	L 1040.315, 450.777 
" />
<path d="M 1034.576, 447.092 
	L 1034.575, 447.092 
	L 1071.992, 700.610 
" />
<path d="M 1071.426, 749.011 
	L 1071.425, 749.011 
	L 1060.937, 728.973 
" />
<path d="M 1071.922, 743.784 
	L 1071.921, 743.784 
	L 1041.662, 906.489 
" />
<path d="M 1050.733, 938.378 
	L 1050.732, 938.379 
	L 1052.292, 674.520 
" />
<path d="M 1076.599, 620.165 
	L 1076.599, 620.166 
	L 1072.488, 489.045 
" />
<path d="M 1045.985, 472.674 
	L 1045.984, 472.675 
	L 1022.882, 753.830 
" />
<path d="M 1086.733, 717.829 
	L 1086.732, 717.830 
	L 1062.780, 766.107 
" />
<path d="M 1075.395, 763.909 
	L 1075.394, 763.910 
	L 1047.898, 917.119 
" />
<path d="M 1021.040, 920.520 
	L 1021.040, 920.521 
	L 1033.087, 677.497 
" />
<path d="M 1068.379, 658.716 
	L 1068.378, 658.717 
	L 1041.732, 437.455 
" />
<path d="M 1024.938, 460.769 
	L 1024.937, 460.770 
	L 1077.307, 708.246 
" />
<path d="M 1064.623, 723.269 
	L 1064.622, 723.270 
	L 1034.362, 747.089 
" />
<path d="M 1057.040, 771.538 
	L 1057.040, 771.538 
	L 1062.142, 920.390 
" />
<path d="M 1052.505, 894.665 
	L 1052.504, 894.665 
	L 1047.331, 659.888 
" />
<path d="M 1093.253, 667.824 
	L 1093.252, 667.825 
	L 1086.591, 468.122 
" />
<path d="M 1042.654, 468.405 
	L 1042.654, 468.405 
	L 1098.851, 693.135 
" />
<path d="M 1058.528, 747.631 
	L 1058.528, 747.632 
	L 1052.504, 754.683 
" />
<path d="M 1042.442, 753.902 
	L 1042.441, 753.903 
	L 1070.221, 923.557 
" />
<path d="M 1095.521, 868.068 
	L 1095.520, 868.069 
	L 1070.788, 632.882 
" />
<path d="M 1063.560, 628.559 
	L 1063.559, 628.559 
	L 1079.433, 427.888 
" />
<path d="M 1069.654, 430.651 
	L 1069.654, 430.651 
	L 1060.512, 752.136 
" />
<path d="M 1115.363, 694.238 
	L 1115.362, 694.239 
	L 1112.953, 783.919 
" />
<path d="M 1110.190, 769.604 
	L 1110.189, 769.604 
	L 1127.197, 866.815 
" />
<path d="M 1115.434, 887.649 
	L 1115.433, 887.650 
	L 1087.158, 625.544 
" />
<path d="M 1108.631, 619.945 
	L 1108.630, 619.946 
	L 1125.071, 472.356 
" />
<path d="M 1083.615, 435.434 
	L 1083.614, 435.434 
	L 1102.890, 714.127 
" />
<path d="M 1119.828, 756.504 
	L 1119.827, 756.505 
	L 1092.189, 748.930 
" />
<path d="M 1124.434, 791.024 
	L 1124.433, 791.024 
	L 1114.229, 864.046 
" />
<path d="M 1131.450, 883.675 
	L 1131.449, 883.676 
	L 1109.622, 626.465 
" />
<path d="M 1074.048, 577.780 
	L 1074.047, 577.780 
	L 1134.355, 421.881 
" />
<path d="M 1103.174, 436.975 
	L 1103.173, 436.976 
	L 1099.276, 726.236 
" />
<path d="M 1098.355, 691.936 
	L 1098.354, 691.936 
	L 1147.040, 761.059 
" />
<path d="M 1095.946, 763.751 
	L 1095.945, 763.752 
	L 1119.614, 893.294 
" />
<path d="M 1126.489, 870.758 
	L 1126.488, 870.759 
	L 1153.559, 613.055 
" />
<path d="M 1156.820, 618.440 
	L 1156.819, 618.441 
	L 1142.221, 470.336 
" />
<path d="M 1151.363, 425.123 
	L 1151.362, 425.123 
	L 1113.803, 754.289 
" />
<path d="M 1136.056, 744.155 
	L 1136.055, 744.156 
	L 1138.040, 755.990 
" />
<path d="M 1150.300, 748.761 
	L 1150.299, 748.762 
	L 1167.520, 902.750 
" />
<path d="M 1166.245, 900.481 
	L 1166.244, 900.482 
	L 1159.512, 542.379 
" />
<path d="M 1156.891, 591.489 
	L 1156.890, 591.489 
	L 1153.063, 394.509 
" />
<path d="M 1170.780, 440.359 
	L 1170.780, 440.359 
	L 1173.189, 685.234 
" />
<path d="M 1166.458, 732.501 
	L 1166.457, 732.502 
	L 1153.418, 745.948 
" />
<path d="M 1134.639, 768.271 
	L 1134.638, 768.271 
	L 1177.725, 894.755 
" />
<path d="M 1158.166, 856.983 
	L 1158.166, 856.984 
	L 1154.480, 545.725 
" />
<path d="M 1204.442, 551.960 
	L 1204.441, 551.961 
	L 1180.772, 428.985 
" />
<path d="M 1179.639, 445.638 
	L 1179.638, 445.638 
	L 1142.504, 732.670 
" />
<path d="M 1162.560, 720.977 
	L 1162.559, 720.977 
	L 1205.646, 731.922 
" />
<path d="M 1155.544, 759.701 
	L 1155.543, 759.701 
	L 1201.394, 871.936 
" />
<path d="M 1184.883, 858.684 
	L 1184.882, 858.684 
	L 1217.339, 516.704 
" />
<path d="M 1171.773, 567.372 
	L 1171.772, 567.373 
	L 1188.142, 411.871 
" />
<path d="M 1221.237, 382.956 
	L 1221.236, 382.957 
	L 1225.772, 701.839 
" />
<path d="M 1179.355, 712.894 
	L 1179.355, 712.894 
	L 1190.410, 729.967 
" />
<path d="M 1205.080, 773.903 
	L 1205.079, 773.904 
	L 1228.819, 895.273 
" />
<path d="M 1178.434, 892.437 
	L 1178.433, 892.438 
	L 1231.087, 537.436 
" />
<path d="M 1205.009, 514.829 
	L 1205.008, 514.830 
	L 1231.441, 399.717 
" />
<path d="M 1182.261, 408.787 
	L 1182.260, 408.788 
	L 1182.685, 713.955 
" />
<path d="M 1212.946, 699.498 
	L 1212.945, 699.499 
	L 1224.496, 766.885 
" />
<path d="M 1213.938, 765.680 
	L 1213.937, 765.680 
	L 1227.685, 892.147 
" />
<path d="M 1174.962, 852.107 
	L 1174.961, 852.107 
	L 1190.835, 525.477 
" />
<path d="M 1192.040, 499.540 
	L 1192.040, 499.540 
	L 1189.559, 381.788 
" />
<path d="M 1186.087, 402.693 
	L 1186.087, 402.693 
	L 1189.772, 723.250 
" />
<path d="M 1194.591, 692.068 
	L 1194.591, 692.069 
	L 1231.583, 745.536 
" />
<path d="M 1200.757, 767.575 
	L 1200.756, 767.575 
	L 1248.024, 826.671 
" />
<path d="M 1238.954, 846.371 
	L 1238.953, 846.371 
	L 1191.473, 525.251 
" />
<path d="M 1231.300, 517.313 
	L 1231.299, 517.314 
	L 1200.402, 410.860 
" />
<path d="M 1255.962, 376.844 
	L 1255.961, 376.844 
	L 1260.425, 683.269 
" />
<path d="M 1232.080, 727.772 
	L 1232.079, 727.773 
	L 1242.638, 715.093 
" />
<path d="M 1261.843, 763.352 
	L 1261.843, 763.352 
	L 1255.890, 842.920 
" />
<path d="M 1216.560, 829.029 
	L 1216.559, 829.030 
	L 1258.016, 488.692 
" />
<path d="M 1223.788, 531.423 
	L 1223.788, 531.424 
	L 1226.197, 386.854 
" />
<path d="M 1233.355, 418.318 
	L 1233.355, 418.319 
	L 1248.662, 683.094 
" />
<path d="M 1290.828, 720.369 
	L 1290.827, 720.369 
	L 1239.591, 715.881 
" />
<path d="M 1225.347, 748.549 
	L 1225.347, 748.550 
	L 1248.307, 825.128 
" />
<path d="M 1249.158, 811.946 
	L 1249.158, 811.947 
	L 1249.583, 528.010 
" />
<path d="M 1253.198, 486.127 
	L 1253.197, 486.128 
	L 1261.559, 385.437 
" />
<path d="M 1239.025, 386.357 
	L 1239.024, 386.358 
	L 1278.284, 716.897 
" />
<path d="M 1286.150, 681.817 
	L 1286.150, 681.818 
	L 1269.851, 746.076 
" />
<path d="M 1295.647, 737.997 
	L 1295.646, 737.997 
	L 1294.016, 831.616 
" />
<path d="M 1266.662, 852.946 
	L 1266.662, 852.946 
	L 1292.528, 486.128 
" />
<path d="M 1297.702, 501.434 
	L 1297.701, 501.435 
	L 1295.575, 406.183 
" />
<path d="M 1284.946, 383.221 
	L 1284.945, 383.222 
	L 1265.457, 681.445 
" />
<path d="M 1273.607, 722.121 
	L 1273.606, 722.122 
	L 1291.890, 718.870 
" />
<path d="M 1297.489, 743.176 
	L 1297.488, 743.177 
	L 1311.945, 794.782 
" />
<path d="M 1257.733, 845.592 
	L 1257.732, 845.593 
	L 1243.843, 478.136 
" />
<path d="M 1266.946, 480.120 
	L 1266.945, 480.120 
	L 1257.662, 377.252 
" />
<path d="M 1269.568, 381.078 
	L 1269.567, 381.078 
	L 1303.016, 705.290 
" />
<path d="M 1290.190, 732.148 
	L 1290.189, 732.149 
	L 1256.032, 718.384 
" />
<path d="M 1303.725, 708.107 
	L 1303.725, 708.108 
	L 1283.244, 824.899 
" />
<path d="M 1313.930, 820.505 
	L 1313.929, 820.505 
	L 1275.095, 464.417 
" />
<path d="M 1318.395, 471.999 
	L 1318.394, 472.000 
	L 1276.229, 337.531 
" />
<path d="M 1296.355, 379.625 
	L 1296.355, 379.626 
	L 1307.764, 672.467 
" />
<path d="M 1289.269, 668.143 
	L 1289.268, 668.144 
	L 1272.331, 722.581 
" />
<path d="M 1258.654, 748.092 
	L 1258.654, 748.093 
	L 1279.630, 798.455 
" />
<path d="M 1312.158, 835.234 
	L 1312.158, 835.235 
	L 1273.890, 487.094 
" />
<path d="M 1289.765, 485.322 
	L 1289.764, 485.323 
	L 1259.929, 348.799 
" />
<path d="M 1321.654, 372.964 
	L 1321.654, 372.964 
	L 1266.520, 670.908 
" />
<path d="M 1295.788, 687.348 
	L 1295.788, 687.349 
	L 1318.607, 689.274 
" />
<path d="M 1304.576, 705.785 
	L 1304.575, 705.786 
	L 1331.079, 765.913 
" />
<path d="M 1293.521, 776.613 
	L 1293.520, 776.614 
	L 1277.150, 485.627 
" />
<path d="M 1315.914, 492.005 
	L 1315.914, 492.005 
	L 1290.047, 340.560 
" />
<path d="M 1335.402, 335.882 
	L 1335.402, 335.883 
	L 1294.725, 720.459 
" />
<path d="M 1295.930, 724.993 
	L 1295.929, 724.994 
	L 1294.583, 738.975 
" />
<path d="M 1291.536, 720.053 
	L 1291.536, 720.053 
	L 1338.732, 778.230 
" />
<path d="M 1278.072, 777.733 
	L 1278.071, 777.734 
	L 1344.260, 443.799 
" />
<path d="M 1340.363, 476.326 
	L 1340.362, 476.327 
	L 1325.551, 374.345 
" />
<path d="M 1287.213, 379.518 
	L 1287.213, 379.519 
	L 1338.520, 697.625 
" />
<path d="M 1316.552, 697.341 
	L 1316.551, 697.341 
	L 1314.213, 698.664 
" />
<path d="M 1331.788, 710.073 
	L 1331.788, 710.074 
	L 1341.921, 755.123 
" />
<path d="M 1306.135, 796.863 
	L 1306.134, 796.864 
	L 1331.150, 500.796 
" />
<path d="M 1324.135, 498.103 
	L 1324.134, 498.103 
	L 1333.063, 383.753 
" />
<path d="M 1298.198, 329.540 
	L 1298.197, 329.540 
	L 1295.504, 692.877 
" />
<path d="M 1303.017, 691.104 
	L 1303.016, 691.105 
	L 1315.984, 688.743 
" />
<path d="M 1331.930, 738.774 
	L 1331.929, 738.775 
	L 1331.717, 756.977 
" />
<path d="M 1308.615, 758.536 
	L 1308.614, 758.536 
	L 1359.496, 500.465 
" />
<path d="M 1338.875, 496.850 
	L 1338.874, 496.851 
	L 1317.260, 323.977 
" />
<path d="M 1343.836, 375.709 
	L 1343.835, 375.710 
	L 1363.607, 695.835 
" />
<path d="M 1331.009, 689.740 
	L 1331.008, 689.741 
	L 1363.040, 718.729 
" />
<path d="M 1349.505, 731.413 
	L 1349.504, 731.414 
	L 1348.299, 741.269 
" />
<path d="M 1361.906, 749.914 
	L 1361.906, 749.915 
	L 1349.717, 467.724 
" />
<path d="M 1338.379, 469.565 
	L 1338.378, 469.566 
	L 1335.402, 333.066 
" />
<path d="M 1355.741, 358.010 
	L 1355.740, 358.011 
	L 1360.701, 647.490 
" />
<path d="M 1365.308, 689.867 
	L 1365.307, 689.868 
	L 1371.544, 713.179 
" />
<path d="M 1390.749, 681.784 
	L 1390.748, 681.785 
	L 1327.536, 733.643 
" />
<path d="M 1346.032, 757.311 
	L 1346.032, 757.312 
	L 1367.433, 485.269 
" />
<path d="M 1359.497, 461.599 
	L 1359.496, 461.599 
	L 1381.677, 343.181 
" />
<path d="M 1401.875, 343.252 
	L 1401.874, 343.252 
	L 1367.079, 685.377 
" />
<path d="M 1391.245, 685.872 
	L 1391.244, 685.873 
	L 1406.481, 675.829 
" />
<path d="M 1358.930, 689.292 
	L 1358.929, 689.293 
	L 1392.166, 744.287 
" />
<path d="M 1345.820, 703.680 
	L 1345.819, 703.681 
	L 1406.551, 436.480 
" />
<path d="M 1390.749, 461.991 
	L 1390.748, 461.992 
	L 1400.811, 358.453 
" />
<path d="M 1419.450, 313.452 
	L 1419.449, 313.453 
	L 1381.181, 708.397 
" />
<path d="M 1361.694, 659.074 
	L 1361.693, 659.074 
	L 1429.795, 699.433 
" />
<path d="M 1384.017, 684.055 
	L 1384.016, 684.055 
	L 1367.858, 718.484 
" />
<path d="M 1414.985, 709.058 
	L 1414.984, 709.059 
	L 1386.355, 413.850 
" />
<path d="M 1436.032, 458.991 
	L 1436.032, 458.992 
	L 1410.378, 317.652 
" />
<path d="M 1432.914, 314.037 
	L 1432.914, 314.038 
	L 1432.630, 661.835 
" />
<path d="M 1436.316, 694.361 
	L 1436.315, 694.362 
	L 1455.024, 680.863 
" />
<path d="M 1430.717, 651.382 
	L 1430.717, 651.383 
	L 1403.646, 711.437 
" />
<path d="M 1393.796, 683.515 
	L 1393.795, 683.515 
	L 1428.520, 439.781 
" />
<path d="M 1422.001, 471.741 
	L 1422.000, 471.742 
	L 1425.260, 282.448 
" />
<path d="M 1416.544, 336.235 
	L 1416.544, 336.236 
	L 1458.213, 689.246 
" />
<path d="M 1417.536, 675.072 
	L 1417.536, 675.072 
	L 1430.788, 657.585 
" />
<path d="M 1421.009, 650.498 
	L 1421.008, 650.499 
	L 1427.882, 630.666 
" />
<path d="M 1424.906, 693.028 
	L 1424.906, 693.028 
	L 1487.906, 419.450 
" />
</g>
</svg>
