<?xml version="1.0" encoding="UTF-8" standalone="no" ?>
<svg width="100%" height="100%" viewBox="0 0 1480.607 895.491" xmlns="http://www.w3.org/2000/svg"><g>
</g><g style="stroke:rgb(0,0,0); fill:none; stroke-width:1.000mm" >
</g><g style="stroke:rgb(255,0,0); fill:none; stroke-width:0.100mm" >
<path d="M 17.292, 1004.738 
	L 17.291, 1004.739 
	L 49.465, 1147.422 
" />
<path d="M 20.764, 1167.547 
	L 20.764, 1167.548 
	L 15.024, 975.083 
" />
<path d="M 50.316, 976.713 
	L 50.315, 976.713 
	L 29.409, 817.199 
" />
<path d="M 0.001, 795.868 
	L 0.000, 795.869 
	L 28.772, 899.515 
" />
<path d="M 25.654, 898.167 
	L 25.654, 898.168 
	L 69.661, 984.117 
" />
<path d="M 16.654, 1039.180 
	L 16.654, 1039.180 
	L 28.630, 1272.843 
" />
<path d="M 15.024, 1257.606 
	L 15.024, 1257.607 
	L 61.228, 954.124 
" />
<path d="M 61.654, 920.604 
	L 61.654, 920.604 
	L 41.315, 720.673 
" />
<path d="M 53.221, 762.837 
	L 53.220, 762.838 
	L 97.795, 871.785 
" />
<path d="M 95.741, 848.823 
	L 95.740, 848.824 
	L 96.520, 1023.072 
" />
<path d="M 40.961, 1030.299 
	L 40.961, 1030.300 
	L 72.638, 1276.178 
" />
<path d="M 64.701, 1325.996 
	L 64.701, 1325.997 
	L 57.756, 900.443 
" />
<path d="M 30.898, 930.773 
	L 30.898, 930.774 
	L 81.283, 732.082 
" />
<path d="M 51.946, 776.869 
	L 51.945, 776.869 
	L 77.669, 867.745 
" />
<path d="M 59.103, 898.430 
	L 59.102, 898.430 
	L 102.402, 1059.021 
" />
<path d="M 85.607, 1022.737 
	L 85.606, 1022.737 
	L 77.102, 1326.269 
" />
<path d="M 96.095, 1281.694 
	L 96.095, 1281.694 
	L 74.126, 876.158 
" />
<path d="M 90.001, 890.826 
	L 90.000, 890.827 
	L 79.583, 731.086 
" />
<path d="M 50.953, 712.235 
	L 50.953, 712.236 
	L 45.354, 892.889 
" />
<path d="M 105.733, 864.045 
	L 105.732, 864.046 
	L 94.181, 1057.097 
" />
<path d="M 58.040, 1025.490 
	L 58.039, 1025.490 
	L 117.921, 1290.031 
" />
<path d="M 91.985, 1331.416 
	L 91.984, 1331.417 
	L 117.213, 914.336 
" />
<path d="M 86.316, 915.681 
	L 86.315, 915.682 
	L 68.386, 675.951 
" />
<path d="M 117.497, 730.588 
	L 117.496, 730.589 
	L 65.693, 910.733 
" />
<path d="M 119.694, 844.543 
	L 119.693, 844.544 
	L 120.614, 1018.153 
" />
<path d="M 85.961, 1053.727 
	L 85.961, 1053.728 
	L 87.307, 1284.595 
" />
<path d="M 93.331, 1307.130 
	L 93.331, 1307.130 
	L 96.732, 834.079 
" />
<path d="M 84.473, 812.960 
	L 84.472, 812.961 
	L 112.606, 643.914 
" />
<path d="M 134.717, 669.000 
	L 134.717, 669.000 
	L 127.417, 875.923 
" />
<path d="M 85.890, 889.600 
	L 85.890, 889.600 
	L 119.835, 1008.664 
" />
<path d="M 84.757, 1005.120 
	L 84.756, 1005.121 
	L 124.866, 1244.436 
" />
<path d="M 109.205, 1252.373 
	L 109.205, 1252.373 
	L 103.961, 836.386 
" />
<path d="M 152.150, 808.251 
	L 152.150, 808.252 
	L 115.512, 621.022 
" />
<path d="M 113.387, 678.565 
	L 113.386, 678.565 
	L 153.496, 878.680 
" />
<path d="M 137.268, 856.569 
	L 137.268, 856.570 
	L 139.961, 999.426 
" />
<path d="M 94.678, 1030.748 
	L 94.677, 1030.749 
	L 134.646, 1266.541 
" />
<path d="M 143.363, 1237.981 
	L 143.362, 1237.982 
	L 137.480, 847.928 
" />
<path d="M 140.316, 799.809 
	L 140.315, 799.810 
	L 139.181, 648.091 
" />
<path d="M 114.591, 657.658 
	L 114.591, 657.658 
	L 124.654, 885.122 
" />
<path d="M 105.591, 872.861 
	L 105.591, 872.862 
	L 113.882, 975.630 
" />
<path d="M 106.513, 971.023 
	L 106.512, 971.023 
	L 164.339, 1188.348 
" />
<path d="M 97.087, 1194.442 
	L 97.087, 1194.442 
	L 155.764, 835.598 
" />
<path d="M 101.835, 813.983 
	L 101.835, 813.983 
	L 153.638, 604.225 
" />
<path d="M 115.158, 622.154 
	L 115.157, 622.154 
	L 118.134, 894.759 
" />
<path d="M 110.835, 903.050 
	L 110.835, 903.051 
	L 101.409, 1023.890 
" />
<path d="M 109.347, 987.109 
	L 109.346, 987.110 
	L 128.764, 1190.190 
" />
<path d="M 141.591, 1219.245 
	L 141.591, 1219.246 
	L 95.953, 849.133 
" />
<path d="M 154.702, 833.613 
	L 154.701, 833.613 
	L 117.709, 628.603 
" />
<path d="M 140.174, 646.957 
	L 140.173, 646.958 
	L 132.024, 834.445 
" />
<path d="M 119.198, 903.681 
	L 119.197, 903.682 
	L 125.079, 971.534 
" />
<path d="M 117.426, 964.234 
	L 117.425, 964.235 
	L 150.095, 1156.433 
" />
<path d="M 155.268, 1170.889 
	L 155.268, 1170.890 
	L 152.858, 808.390 
" />
<path d="M 145.347, 803.854 
	L 145.346, 803.855 
	L 121.677, 618.820 
" />
<path d="M 119.835, 572.190 
	L 119.835, 572.190 
	L 180.142, 873.840 
" />
<path d="M 112.465, 901.689 
	L 112.465, 901.690 
	L 120.189, 978.342 
" />
<path d="M 174.261, 998.255 
	L 174.260, 998.255 
	L 126.567, 1125.549 
" />
<path d="M 127.347, 1105.918 
	L 127.346, 1105.919 
	L 127.134, 812.713 
" />
<path d="M 178.300, 827.381 
	L 178.299, 827.382 
	L 135.496, 572.757 
" />
<path d="M 165.686, 628.316 
	L 165.685, 628.316 
	L 158.244, 834.155 
" />
<path d="M 139.111, 854.563 
	L 139.110, 854.564 
	L 155.339, 941.143 
" />
<path d="M 190.347, 968.284 
	L 190.346, 968.284 
	L 179.646, 1066.816 
" />
<path d="M 150.166, 1088.146 
	L 150.165, 1088.147 
	L 125.787, 795.932 
" />
<path d="M 153.072, 814.852 
	L 153.071, 814.853 
	L 139.606, 599.046 
" />
<path d="M 164.694, 606.912 
	L 164.693, 606.913 
	L 136.063, 893.746 
" />
<path d="M 136.276, 857.249 
	L 136.276, 857.250 
	L 169.158, 946.812 
" />
<path d="M 183.686, 958.717 
	L 183.685, 958.718 
	L 154.772, 1070.192 
" />
<path d="M 154.064, 1032.774 
	L 154.063, 1032.775 
	L 148.606, 798.656 
" />
<path d="M 149.599, 802.270 
	L 149.598, 802.271 
	L 181.984, 572.045 
" />
<path d="M 131.457, 578.422 
	L 131.457, 578.423 
	L 131.882, 844.983 
" />
<path d="M 129.898, 889.203 
	L 129.898, 889.204 
	L 195.732, 919.191 
" />
<path d="M 180.993, 924.080 
	L 180.992, 924.081 
	L 200.551, 919.548 
" />
<path d="M 194.883, 905.871 
	L 194.882, 905.871 
	L 172.913, 803.064 
" />
<path d="M 156.757, 788.677 
	L 156.756, 788.678 
	L 224.433, 1234.211 
" />
<path d="M 196.867, 1223.793 
	L 196.866, 1223.794 
	L 171.213, 952.316 
" />
<path d="M 181.205, 907.457 
	L 181.205, 907.458 
	L 186.449, 872.712 
" />
<path d="M 175.465, 840.964 
	L 175.465, 840.964 
	L 207.000, 801.644 
" />
<path d="M 208.418, 805.045 
	L 208.417, 805.046 
	L 217.701, 791.045 
" />
<path d="M 203.670, 794.872 
	L 203.669, 794.872 
	L 224.575, 1217.981 
" />
<path d="M 174.261, 1195.941 
	L 174.260, 1195.941 
	L 230.953, 911.058 
" />
<path d="M 191.694, 900.215 
	L 191.693, 900.215 
	L 188.291, 834.187 
" />
<path d="M 238.749, 812.360 
	L 238.748, 812.361 
	L 182.055, 760.620 
" />
<path d="M 188.505, 742.761 
	L 188.504, 742.761 
	L 236.339, 811.981 
" />
<path d="M 196.513, 810.422 
	L 196.512, 810.422 
	L 196.016, 1208.625 
" />
<path d="M 232.300, 1221.947 
	L 232.299, 1221.948 
	L 242.291, 899.649 
" />
<path d="M 211.678, 942.380 
	L 211.677, 942.381 
	L 224.787, 835.888 
" />
<path d="M 186.733, 825.470 
	L 186.732, 825.471 
	L 230.032, 705.350 
" />
<path d="M 192.261, 647.877 
	L 192.260, 647.877 
	L 250.512, 800.455 
" />
<path d="M 213.237, 786.069 
	L 213.236, 786.069 
	L 219.402, 1200.330 
" />
<path d="M 249.804, 1168.652 
	L 249.803, 1168.653 
	L 206.858, 887.722 
" />
<path d="M 267.662, 941.083 
	L 267.661, 941.084 
	L 242.433, 815.711 
" />
<path d="M 260.717, 787.364 
	L 260.717, 787.365 
	L 249.165, 613.986 
" />
<path d="M 240.591, 568.631 
	L 240.591, 568.631 
	L 224.575, 806.985 
" />
<path d="M 233.292, 836.960 
	L 233.291, 836.961 
	L 230.173, 1162.271 
" />
<path d="M 249.520, 1152.137 
	L 249.520, 1152.137 
	L 269.929, 927.258 
" />
<path d="M 278.576, 903.588 
	L 278.575, 903.589 
	L 248.315, 748.592 
" />
<path d="M 263.694, 769.709 
	L 263.693, 769.710 
	L 282.118, 496.706 
" />
<path d="M 224.576, 560.273 
	L 224.575, 560.273 
	L 290.693, 814.149 
" />
<path d="M 267.591, 830.518 
	L 267.591, 830.519 
	L 227.055, 1167.513 
" />
<path d="M 235.135, 1172.190 
	L 235.134, 1172.190 
	L 254.622, 947.519 
" />
<path d="M 267.946, 946.597 
	L 267.945, 946.597 
	L 234.142, 769.366 
" />
<path d="M 255.402, 755.759 
	L 255.402, 755.760 
	L 273.543, 533.694 
" />
<path d="M 297.001, 477.639 
	L 297.000, 477.639 
	L 233.858, 867.239 
" />
<path d="M 281.198, 848.458 
	L 281.197, 848.459 
	L 270.284, 1093.667 
" />
<path d="M 283.394, 1107.202 
	L 283.394, 1107.203 
	L 305.150, 919.016 
" />
<path d="M 295.229, 904.063 
	L 295.228, 904.063 
	L 261.992, 752.373 
" />
<path d="M 302.741, 754.357 
	L 302.740, 754.357 
	L 299.835, 482.437 
" />
<path d="M 286.513, 451.609 
	L 286.512, 451.610 
	L 285.095, 890.663 
" />
<path d="M 273.898, 905.049 
	L 273.898, 905.049 
	L 262.488, 1075.737 
" />
<path d="M 253.135, 1094.657 
	L 253.134, 1094.658 
	L 257.811, 925.387 
" />
<path d="M 295.087, 880.032 
	L 295.087, 880.033 
	L 262.772, 782.279 
" />
<path d="M 313.938, 745.427 
	L 313.937, 745.428 
	L 318.614, 506.106 
" />
<path d="M 303.520, 503.909 
	L 303.520, 503.909 
	L 267.378, 894.745 
" />
<path d="M 279.284, 875.044 
	L 279.284, 875.045 
	L 310.748, 1080.553 
" />
<path d="M 269.221, 1113.080 
	L 269.221, 1113.081 
	L 287.646, 925.876 
" />
<path d="M 289.772, 902.915 
	L 289.772, 902.915 
	L 286.583, 738.916 
" />
<path d="M 306.568, 731.333 
	L 306.567, 731.334 
	L 305.362, 469.563 
" />
<path d="M 319.324, 485.932 
	L 319.323, 485.933 
	L 278.291, 873.415 
" />
<path d="M 275.741, 921.745 
	L 275.740, 921.745 
	L 298.417, 1085.656 
" />
<path d="M 295.867, 1065.954 
	L 295.866, 1065.955 
	L 325.701, 915.175 
" />
<path d="M 283.749, 898.946 
	L 283.748, 898.947 
	L 318.614, 787.743 
" />
<path d="M 300.190, 730.199 
	L 300.189, 730.200 
	L 272.906, 478.633 
" />
<path d="M 261.922, 464.105 
	L 261.921, 464.106 
	L 257.953, 921.816 
" />
<path d="M 267.095, 882.343 
	L 267.095, 882.344 
	L 326.409, 1097.207 
" />
<path d="M 307.135, 1052.773 
	L 307.134, 1052.774 
	L 331.299, 890.649 
" />
<path d="M 287.717, 944.860 
	L 287.717, 944.861 
	L 308.906, 722.660 
" />
<path d="M 293.387, 779.069 
	L 293.386, 779.070 
	L 337.039, 513.349 
" />
<path d="M 343.702, 529.293 
	L 343.701, 529.294 
	L 349.299, 937.208 
" />
<path d="M 319.536, 950.175 
	L 319.535, 950.176 
	L 314.575, 1042.635 
" />
<path d="M 329.387, 1066.729 
	L 329.386, 1066.730 
	L 350.504, 935.493 
" />
<path d="M 304.229, 935.705 
	L 304.228, 935.705 
	L 333.354, 779.370 
" />
<path d="M 337.678, 756.479 
	L 337.677, 756.480 
	L 317.976, 512.473 
" />
<path d="M 344.127, 514.173 
	L 344.126, 514.174 
	L 310.323, 953.790 
" />
<path d="M 326.623, 970.513 
	L 326.622, 970.514 
	L 341.787, 1038.167 
" />
<path d="M 358.725, 1032.143 
	L 358.724, 1032.143 
	L 324.213, 887.786 
" />
<path d="M 324.851, 912.375 
	L 324.850, 912.376 
	L 340.370, 801.181 
" />
<path d="M 363.898, 793.597 
	L 363.898, 793.598 
	L 333.567, 585.193 
" />
<path d="M 334.843, 604.610 
	L 334.843, 604.611 
	L 328.748, 953.096 
" />
<path d="M 326.410, 941.544 
	L 326.409, 941.545 
	L 360.780, 967.086 
" />
<path d="M 324.922, 1025.621 
	L 324.921, 1025.622 
	L 317.197, 890.046 
" />
<path d="M 374.103, 888.912 
	L 374.102, 888.912 
	L 350.575, 825.129 
" />
<path d="M 328.891, 810.176 
	L 328.890, 810.176 
	L 326.197, 570.878 
" />
<path d="M 338.599, 596.744 
	L 338.598, 596.745 
	L 366.378, 962.521 
" />
<path d="M 371.127, 944.237 
	L 371.126, 944.238 
	L 349.087, 1018.393 
" />
<path d="M 373.678, 984.235 
	L 373.677, 984.236 
	L 310.394, 933.487 
" />
<path d="M 309.686, 878.707 
	L 309.685, 878.708 
	L 364.819, 788.888 
" />
<path d="M 376.796, 805.611 
	L 376.795, 805.612 
	L 364.606, 627.491 
" />
<path d="M 340.796, 658.388 
	L 340.795, 658.389 
	L 347.953, 1012.796 
" />
<path d="M 392.528, 953.267 
	L 392.528, 953.268 
	L 343.347, 981.751 
" />
<path d="M 402.024, 977.143 
	L 402.024, 977.144 
	L 343.276, 892.356 
" />
<path d="M 383.670, 930.552 
	L 383.669, 930.553 
	L 408.331, 826.044 
" />
<path d="M 367.654, 882.878 
	L 367.654, 882.879 
	L 352.063, 806.713 
" />
<path d="M 394.796, 807.846 
	L 394.795, 807.847 
	L 413.646, 977.577 
" />
<path d="M 396.568, 990.970 
	L 396.567, 990.971 
	L 373.748, 918.956 
" />
<path d="M 420.520, 875.798 
	L 420.520, 875.799 
	L 400.252, 894.531 
" />
<path d="M 375.095, 918.058 
	L 375.095, 918.059 
	L 410.244, 875.201 
" />
<path d="M 431.292, 922.752 
	L 431.291, 922.752 
	L 390.827, 957.124 
" />
<path d="M 401.316, 946.706 
	L 401.315, 946.706 
	L 391.465, 1010.225 
" />
<path d="M 421.867, 1000.091 
	L 421.866, 1000.091 
	L 415.276, 841.992 
" />
<path d="M 390.898, 831.149 
	L 390.898, 831.149 
	L 450.709, 914.431 
" />
<path d="M 407.268, 903.375 
	L 407.268, 903.375 
	L 397.276, 958.346 
" />
<path d="M 395.788, 944.809 
	L 395.787, 944.810 
	L 412.583, 1039.196 
" />
<path d="M 420.733, 1019.353 
	L 420.732, 1019.353 
	L 400.323, 957.059 
" />
<path d="M 454.182, 990.294 
	L 454.181, 990.295 
	L 435.969, 830.084 
" />
<path d="M 427.607, 865.517 
	L 427.606, 865.517 
	L 453.189, 885.723 
" />
<path d="M 419.883, 870.911 
	L 419.882, 870.912 
	L 451.701, 932.406 
" />
<path d="M 423.001, 924.751 
	L 423.000, 924.752 
	L 393.236, 1067.961 
" />
<path d="M 453.828, 1053.928 
	L 453.827, 1053.929 
	L 423.425, 959.185 
" />
<path d="M 414.780, 989.940 
	L 414.780, 989.940 
	L 447.165, 793.159 
" />
<path d="M 442.772, 812.293 
	L 442.772, 812.293 
	L 433.559, 883.157 
" />
<path d="M 455.245, 863.598 
	L 455.244, 863.598 
	L 422.504, 959.184 
" />
<path d="M 436.749, 978.034 
	L 436.748, 978.034 
	L 418.748, 1218.253 
" />
<path d="M 425.410, 1198.764 
	L 425.410, 1198.765 
	L 422.291, 1002.039 
" />
<path d="M 479.410, 987.369 
	L 479.410, 987.370 
	L 438.095, 790.890 
" />
<path d="M 418.465, 789.046 
	L 418.465, 789.047 
	L 474.803, 894.276 
" />
<path d="M 481.891, 916.031 
	L 481.890, 916.032 
	L 471.118, 1015.598 
" />
<path d="M 453.048, 1017.439 
	L 453.047, 1017.440 
	L 464.102, 1180.694 
" />
<path d="M 446.174, 1187.284 
	L 446.173, 1187.284 
	L 428.457, 982.976 
" />
<path d="M 475.583, 992.543 
	L 475.583, 992.543 
	L 431.362, 799.677 
" />
<path d="M 437.387, 796.558 
	L 437.386, 796.559 
	L 462.898, 862.167 
" />
<path d="M 427.253, 916.662 
	L 427.252, 916.663 
	L 446.669, 1016.597 
" />
<path d="M 463.394, 1000.155 
	L 463.394, 1000.156 
	L 434.197, 1213.951 
" />
<path d="M 433.843, 1220.683 
	L 433.843, 1220.684 
	L 450.638, 976.866 
" />
<path d="M 460.205, 966.873 
	L 460.205, 966.874 
	L 480.756, 789.327 
" />
<path d="M 459.355, 759.846 
	L 459.354, 759.847 
	L 443.693, 877.538 
" />
<path d="M 447.591, 869.600 
	L 447.591, 869.601 
	L 453.969, 994.383 
" />
<path d="M 474.591, 1052.776 
	L 474.591, 1052.777 
	L 458.291, 1269.789 
" />
<path d="M 503.292, 1312.167 
	L 503.291, 1312.167 
	L 462.756, 889.844 
" />
<path d="M 490.324, 922.442 
	L 490.323, 922.443 
	L 477.213, 761.260 
" />
<path d="M 515.056, 760.622 
	L 515.055, 760.623 
	L 488.410, 882.626 
" />
<path d="M 464.316, 878.161 
	L 464.315, 878.161 
	L 508.748, 1007.780 
" />
<path d="M 506.977, 1003.102 
	L 506.976, 1003.103 
	L 494.079, 1333.164 
" />
<path d="M 482.670, 1315.376 
	L 482.669, 1315.377 
	L 504.071, 938.484 
" />
<path d="M 509.670, 930.121 
	L 509.669, 930.122 
	L 494.717, 700.739 
" />
<path d="M 515.977, 752.754 
	L 515.976, 752.755 
	L 509.669, 872.974 
" />
<path d="M 486.993, 843.918 
	L 486.992, 843.919 
	L 496.913, 1017.522 
" />
<path d="M 514.560, 1026.096 
	L 514.559, 1026.097 
	L 538.937, 1293.687 
" />
<path d="M 513.780, 1297.017 
	L 513.780, 1297.018 
	L 506.693, 911.635 
" />
<path d="M 511.017, 877.618 
	L 511.016, 877.619 
	L 522.425, 702.862 
" />
<path d="M 515.694, 685.853 
	L 515.693, 685.854 
	L 517.465, 840.361 
" />
<path d="M 519.308, 860.132 
	L 519.307, 860.133 
	L 502.228, 1055.891 
" />
<path d="M 543.544, 1001.252 
	L 543.543, 1001.253 
	L 563.528, 1307.706 
" />
<path d="M 516.473, 1266.603 
	L 516.473, 1266.603 
	L 558.425, 866.449 
" />
<path d="M 552.828, 882.606 
	L 552.827, 882.607 
	L 556.228, 651.197 
" />
<path d="M 496.985, 667.708 
	L 496.984, 667.709 
	L 551.835, 854.243 
" />
<path d="M 530.717, 871.676 
	L 530.717, 871.676 
	L 555.945, 1025.088 
" />
<path d="M 552.261, 1030.615 
	L 552.260, 1030.616 
	L 542.055, 1220.536 
" />
<path d="M 519.733, 1207.567 
	L 519.732, 1207.568 
	L 542.410, 829.945 
" />
<path d="M 582.379, 850.496 
	L 582.378, 850.496 
	L 575.150, 630.144 
" />
<path d="M 583.796, 612.923 
	L 583.795, 612.923 
	L 569.268, 866.411 
" />
<path d="M 575.576, 874.843 
	L 575.575, 874.844 
	L 536.032, 965.261 
" />
<path d="M 590.528, 981.489 
	L 590.528, 981.490 
	L 552.614, 1195.367 
" />
<path d="M 562.961, 1137.752 
	L 562.961, 1137.752 
	L 548.008, 800.020 
" />
<path d="M 601.300, 812.563 
	L 601.299, 812.563 
	L 586.630, 623.762 
" />
<path d="M 565.158, 598.392 
	L 565.158, 598.392 
	L 607.890, 891.129 
" />
<path d="M 604.914, 860.089 
	L 604.913, 860.090 
	L 539.008, 1004.302 
" />
<path d="M 595.489, 961.144 
	L 595.488, 961.145 
	L 561.685, 1083.263 
" />
<path d="M 557.859, 1071.853 
	L 557.858, 1071.853 
	L 549.000, 818.542 
" />
<path d="M 602.150, 829.880 
	L 602.150, 829.881 
	L 585.496, 569.548 
" />
<path d="M 587.198, 595.910 
	L 587.197, 595.911 
	L 560.764, 889.209 
" />
<path d="M 546.520, 859.019 
	L 546.520, 859.020 
	L 558.425, 929.192 
" />
<path d="M 555.379, 976.246 
	L 555.378, 976.247 
	L 592.016, 1043.609 
" />
<path d="M 574.725, 1044.955 
	L 574.724, 1044.955 
	L 585.354, 795.509 
" />
<path d="M 575.505, 767.091 
	L 575.504, 767.092 
	L 555.095, 564.373 
" />
<path d="M 592.229, 553.955 
	L 592.228, 553.956 
	L 577.205, 867.722 
" />
<path d="M 602.646, 840.650 
	L 602.646, 840.651 
	L 596.339, 957.117 
" />
<path d="M 583.725, 912.825 
	L 583.724, 912.826 
	L 582.449, 945.567 
" />
<path d="M 636.946, 887.810 
	L 636.945, 887.811 
	L 612.638, 754.466 
" />
<path d="M 632.481, 780.403 
	L 632.480, 780.403 
	L 631.063, 545.306 
" />
<path d="M 596.694, 532.408 
	L 596.693, 532.409 
	L 607.606, 928.157 
" />
<path d="M 590.457, 899.172 
	L 590.457, 899.172 
	L 622.134, 881.232 
" />
<path d="M 614.906, 895.546 
	L 614.906, 895.547 
	L 614.622, 847.399 
" />
<path d="M 631.631, 837.335 
	L 631.630, 837.336 
	L 628.937, 758.789 
" />
<path d="M 580.820, 783.733 
	L 580.819, 783.734 
	L 632.835, 1259.140 
" />
<path d="M 646.158, 1268.777 
	L 646.158, 1268.778 
	L 588.614, 954.370 
" />
<path d="M 622.702, 946.290 
	L 622.701, 946.291 
	L 646.795, 829.653 
" />
<path d="M 654.520, 832.629 
	L 654.520, 832.630 
	L 641.835, 742.696 
" />
<path d="M 604.843, 770.191 
	L 604.843, 770.192 
	L 667.276, 759.155 
" />
<path d="M 650.269, 815.989 
	L 650.268, 815.990 
	L 654.449, 1198.333 
" />
<path d="M 631.560, 1191.742 
	L 631.559, 1191.742 
	L 608.528, 953.583 
" />
<path d="M 648.780, 934.945 
	L 648.780, 934.946 
	L 623.197, 849.708 
" />
<path d="M 661.394, 823.133 
	L 661.394, 823.134 
	L 630.638, 776.570 
" />
<path d="M 627.946, 762.325 
	L 627.945, 762.326 
	L 603.071, 791.541 
" />
<path d="M 622.064, 761.918 
	L 622.063, 761.919 
	L 649.063, 1222.638 
" />
<path d="M 665.930, 1225.472 
	L 665.929, 1225.473 
	L 632.339, 942.309 
" />
<path d="M 623.906, 948.402 
	L 623.906, 948.403 
	L 619.866, 811.553 
" />
<path d="M 621.993, 840.891 
	L 621.992, 840.892 
	L 624.118, 670.183 
" />
<path d="M 639.497, 700.159 
	L 639.496, 700.160 
	L 681.095, 814.264 
" />
<path d="M 679.465, 818.090 
	L 679.465, 818.091 
	L 624.685, 1187.558 
" />
<path d="M 637.300, 1222.848 
	L 637.299, 1222.849 
	L 645.803, 916.428 
" />
<path d="M 660.757, 907.711 
	L 660.756, 907.712 
	L 645.945, 782.375 
" />
<path d="M 659.835, 793.713 
	L 659.835, 793.714 
	L 652.039, 645.363 
" />
<path d="M 667.985, 596.323 
	L 667.984, 596.324 
	L 679.110, 816.373 
" />
<path d="M 673.087, 783.774 
	L 673.087, 783.775 
	L 645.803, 1168.918 
" />
<path d="M 647.150, 1172.035 
	L 647.150, 1172.036 
	L 647.079, 902.035 
" />
<path d="M 676.914, 952.633 
	L 676.913, 952.634 
	L 692.362, 773.773 
" />
<path d="M 704.765, 747.480 
	L 704.764, 747.481 
	L 641.693, 524.099 
" />
<path d="M 701.221, 523.035 
	L 701.221, 523.036 
	L 703.063, 818.536 
" />
<path d="M 675.072, 821.582 
	L 675.071, 821.583 
	L 704.055, 1152.332 
" />
<path d="M 677.056, 1144.040 
	L 677.055, 1144.040 
	L 686.693, 955.603 
" />
<path d="M 677.410, 893.665 
	L 677.410, 893.666 
	L 686.055, 754.639 
" />
<path d="M 683.150, 772.567 
	L 683.150, 772.568 
	L 673.016, 544.471 
" />
<path d="M 668.835, 526.470 
	L 668.835, 526.471 
	L 687.827, 825.489 
" />
<path d="M 677.765, 831.795 
	L 677.764, 831.796 
	L 715.323, 1073.736 
" />
<path d="M 709.938, 1089.964 
	L 709.937, 1089.964 
	L 702.638, 949.912 
" />
<path d="M 702.072, 889.675 
	L 702.071, 889.676 
	L 742.961, 745.680 
" />
<path d="M 725.245, 779.624 
	L 725.244, 779.625 
	L 689.173, 503.260 
" />
<path d="M 701.363, 443.874 
	L 701.362, 443.874 
	L 733.252, 886.550 
" />
<path d="M 687.686, 864.581 
	L 687.685, 864.582 
	L 713.551, 1041.345 
" />
<path d="M 739.347, 1094.210 
	L 739.347, 1094.211 
	L 711.496, 910.205 
" />
<path d="M 697.820, 898.866 
	L 697.819, 898.867 
	L 730.417, 779.340 
" />
<path d="M 742.253, 733.630 
	L 742.252, 733.631 
	L 753.024, 453.636 
" />
<path d="M 751.253, 490.698 
	L 751.252, 490.699 
	L 763.654, 891.545 
" />
<path d="M 700.300, 892.749 
	L 700.299, 892.750 
	L 716.173, 1026.391 
" />
<path d="M 709.158, 1068.201 
	L 709.158, 1068.202 
	L 767.906, 922.246 
" />
<path d="M 721.772, 881.851 
	L 721.772, 881.852 
	L 761.386, 725.941 
" />
<path d="M 753.024, 769.594 
	L 753.024, 769.595 
	L 699.236, 468.764 
" />
<path d="M 716.103, 493.354 
	L 716.102, 493.354 
	L 717.520, 893.175 
" />
<path d="M 744.379, 898.489 
	L 744.378, 898.490 
	L 722.976, 1059.698 
" />
<path d="M 702.284, 1058.492 
	L 702.284, 1058.493 
	L 712.134, 923.018 
" />
<path d="M 724.324, 875.324 
	L 724.323, 875.325 
	L 759.543, 797.890 
" />
<path d="M 708.520, 788.322 
	L 708.520, 788.323 
	L 724.394, 503.476 
" />
<path d="M 730.206, 520.412 
	L 730.205, 520.413 
	L 726.520, 927.472 
" />
<path d="M 716.316, 950.786 
	L 716.315, 950.787 
	L 745.299, 1042.970 
" />
<path d="M 764.434, 1031.985 
	L 764.433, 1031.985 
	L 777.118, 893.743 
" />
<path d="M 744.166, 928.183 
	L 744.165, 928.184 
	L 753.378, 783.701 
" />
<path d="M 739.489, 744.015 
	L 739.488, 744.016 
	L 778.677, 498.184 
" />
<path d="M 783.497, 554.026 
	L 783.496, 554.027 
	L 733.465, 970.559 
" />
<path d="M 775.843, 912.873 
	L 775.843, 912.874 
	L 776.976, 1024.828 
" />
<path d="M 721.985, 997.615 
	L 721.984, 997.615 
	L 780.591, 933.499 
" />
<path d="M 762.308, 882.120 
	L 762.307, 882.121 
	L 779.669, 755.071 
" />
<path d="M 727.725, 776.684 
	L 727.725, 776.685 
	L 744.662, 542.873 
" />
<path d="M 775.276, 536.353 
	L 775.276, 536.353 
	L 734.811, 973.658 
" />
<path d="M 728.788, 929.366 
	L 728.788, 929.367 
	L 785.126, 991.873 
" />
<path d="M 774.284, 997.896 
	L 774.284, 997.897 
	L 761.740, 924.634 
" />
<path d="M 775.772, 914.924 
	L 775.772, 914.925 
	L 768.118, 770.629 
" />
<path d="M 791.221, 794.864 
	L 791.221, 794.865 
	L 739.134, 614.823 
" />
<path d="M 746.434, 608.516 
	L 746.433, 608.516 
	L 774.354, 969.512 
" />
<path d="M 784.914, 938.401 
	L 784.914, 938.402 
	L 741.756, 952.824 
" />
<path d="M 764.788, 982.304 
	L 764.788, 982.305 
	L 751.465, 883.305 
" />
<path d="M 749.694, 905.485 
	L 749.693, 905.486 
	L 796.465, 786.939 
" />
<path d="M 806.670, 786.301 
	L 806.669, 786.302 
	L 772.299, 663.948 
" />
<path d="M 795.190, 639.923 
	L 795.189, 639.924 
	L 786.685, 991.334 
" />
<path d="M 746.009, 981.554 
	L 746.008, 981.555 
	L 784.276, 947.791 
" />
<path d="M 758.339, 981.097 
	L 758.339, 981.098 
	L 796.110, 875.013 
" />
<path d="M 756.284, 874.729 
	L 756.284, 874.730 
	L 774.000, 841.223 
" />
<path d="M 797.812, 782.332 
	L 797.811, 782.333 
	L 755.433, 651.546 
" />
<path d="M 749.481, 617.246 
	L 749.480, 617.247 
	L 788.599, 999.484 
" />
<path d="M 760.749, 966.956 
	L 760.748, 966.956 
	L 756.921, 1008.948 
" />
<path d="M 742.111, 971.318 
	L 742.110, 971.318 
	L 803.339, 881.533 
" />
<path d="M 795.757, 890.107 
	L 795.756, 890.108 
	L 743.386, 773.475 
" />
<path d="M 811.347, 773.545 
	L 811.347, 773.546 
	L 748.630, 648.641 
" />
<path d="M 742.820, 618.734 
	L 742.819, 618.735 
	L 806.102, 1014.248 
" />
<path d="M 752.103, 1009.995 
	L 752.102, 1009.996 
	L 793.276, 971.883 
" />
<path d="M 769.253, 934.323 
	L 769.252, 934.324 
	L 757.772, 880.534 
" />
<path d="M 806.812, 906.328 
	L 806.811, 906.329 
	L 824.669, 832.426 
" />
<path d="M 802.631, 834.835 
	L 802.630, 834.836 
	L 811.772, 737.116 
" />
<path d="M 801.922, 802.454 
	L 801.921, 802.455 
	L 779.244, 1002.034 
" />
<path d="M 812.127, 983.891 
	L 812.126, 983.892 
	L 803.622, 938.784 
" />
<path d="M 811.206, 940.696 
	L 811.205, 940.697 
	L 828.213, 912.041 
" />
<path d="M 833.883, 918.631 
	L 833.882, 918.631 
	L 813.189, 862.631 
" />
<path d="M 823.182, 909.685 
	L 823.181, 909.686 
	L 806.669, 851.550 
" />
<path d="M 803.481, 902.147 
	L 803.480, 902.148 
	L 844.158, 1011.734 
" />
<path d="M 801.922, 1024.277 
	L 801.921, 1024.277 
	L 827.079, 886.127 
" />
<path d="M 827.363, 857.142 
	L 827.362, 857.142 
	L 795.189, 902.963 
" />
<path d="M 833.316, 881.561 
	L 833.315, 881.561 
	L 824.173, 919.919 
" />
<path d="M 831.757, 911.840 
	L 831.756, 911.840 
	L 869.599, 996.174 
" />
<path d="M 827.717, 999.291 
	L 827.717, 999.292 
	L 855.567, 988.788 
" />
<path d="M 855.922, 988.999 
	L 855.921, 989.000 
	L 834.165, 870.746 
" />
<path d="M 869.032, 841.761 
	L 869.032, 841.762 
	L 836.150, 911.743 
" />
<path d="M 811.914, 906.711 
	L 811.914, 906.712 
	L 825.378, 935.713 
" />
<path d="M 827.363, 910.413 
	L 827.362, 910.414 
	L 843.874, 997.875 
" />
<path d="M 833.670, 978.527 
	L 833.669, 978.528 
	L 857.906, 988.646 
" />
<path d="M 832.678, 968.590 
	L 832.677, 968.591 
	L 850.040, 875.495 
" />
<path d="M 803.623, 896.187 
	L 803.622, 896.187 
	L 830.835, 861.917 
" />
<path d="M 826.087, 898.271 
	L 826.087, 898.272 
	L 815.173, 935.457 
" />
<path d="M 828.851, 976.559 
	L 828.851, 976.560 
	L 858.969, 1000.012 
" />
<path d="M 814.111, 999.940 
	L 814.110, 999.941 
	L 830.551, 1019.175 
" />
<path d="M 827.788, 1000.395 
	L 827.788, 1000.395 
	L 856.276, 860.257 
" />
<path d="M 846.851, 842.894 
	L 846.851, 842.895 
	L 810.567, 922.083 
" />
<path d="M 846.851, 917.334 
	L 846.851, 917.335 
	L 832.961, 934.749 
" />
<path d="M 834.166, 954.236 
	L 834.165, 954.237 
	L 845.717, 1031.122 
" />
<path d="M 847.560, 1047.066 
	L 847.559, 1047.067 
	L 853.795, 1006.844 
" />
<path d="M 845.150, 975.095 
	L 845.150, 975.096 
	L 871.583, 871.877 
" />
<path d="M 827.505, 824.537 
	L 827.504, 824.538 
	L 868.961, 882.320 
" />
<path d="M 846.426, 875.516 
	L 846.425, 875.516 
	L 835.583, 930.285 
" />
<path d="M 827.009, 946.300 
	L 827.008, 946.301 
	L 839.055, 1057.204 
" />
<path d="M 821.339, 1064.999 
	L 821.339, 1065.000 
	L 858.969, 990.560 
" />
<path d="M 853.087, 1005.937 
	L 853.087, 1005.938 
	L 873.284, 847.428 
" />
<path d="M 855.568, 843.955 
	L 855.567, 843.956 
	L 850.890, 888.620 
" />
<path d="M 850.040, 862.753 
	L 850.040, 862.753 
	L 834.874, 967.839 
" />
<path d="M 870.450, 939.280 
	L 870.449, 939.280 
	L 835.016, 1204.954 
" />
<path d="M 899.363, 1182.347 
	L 899.362, 1182.348 
	L 835.866, 981.036 
" />
<path d="M 900.639, 957.720 
	L 900.638, 957.721 
	L 843.449, 785.344 
" />
<path d="M 885.757, 799.658 
	L 885.756, 799.659 
	L 868.252, 870.385 
" />
<path d="M 894.686, 852.172 
	L 894.685, 852.172 
	L 869.032, 982.289 
" />
<path d="M 898.867, 984.769 
	L 898.866, 984.769 
	L 888.732, 1256.444 
" />
<path d="M 897.875, 1260.128 
	L 897.874, 1260.129 
	L 876.260, 986.383 
" />
<path d="M 896.387, 937.697 
	L 896.386, 937.698 
	L 905.528, 799.941 
" />
<path d="M 855.709, 789.168 
	L 855.709, 789.169 
	L 861.803, 859.755 
" />
<path d="M 874.347, 855.786 
	L 874.347, 855.787 
	L 891.921, 1011.132 
" />
<path d="M 896.103, 1025.517 
	L 896.103, 1025.517 
	L 871.583, 1239.507 
" />
<path d="M 907.087, 1265.939 
	L 907.087, 1265.940 
	L 880.795, 924.021 
" />
<path d="M 882.709, 944.359 
	L 882.709, 944.359 
	L 910.914, 787.254 
" />
<path d="M 894.969, 748.844 
	L 894.969, 748.845 
	L 870.378, 895.394 
" />
<path d="M 865.276, 855.708 
	L 865.276, 855.709 
	L 888.236, 1028.163 
" />
<path d="M 886.040, 1010.162 
	L 886.040, 1010.163 
	L 933.874, 1264.452 
" />
<path d="M 890.505, 1290.601 
	L 890.504, 1290.601 
	L 937.347, 962.436 
" />
<path d="M 909.709, 967.183 
	L 909.709, 967.184 
	L 910.134, 780.874 
" />
<path d="M 870.095, 743.173 
	L 870.095, 743.173 
	L 878.032, 849.820 
" />
<path d="M 894.828, 887.236 
	L 894.827, 887.237 
	L 884.977, 1011.155 
" />
<path d="M 911.835, 1018.595 
	L 911.835, 1018.596 
	L 907.512, 1282.452 
" />
<path d="M 902.906, 1278.908 
	L 902.906, 1278.909 
	L 878.102, 902.533 
" />
<path d="M 905.812, 917.839 
	L 905.811, 917.840 
	L 880.512, 762.093 
" />
<path d="M 947.623, 714.116 
	L 947.622, 714.117 
	L 878.173, 912.104 
" />
<path d="M 925.513, 876.174 
	L 925.512, 876.175 
	L 912.047, 1009.573 
" />
<path d="M 922.820, 1046.636 
	L 922.819, 1046.636 
	L 887.882, 1301.727 
" />
<path d="M 948.332, 1335.033 
	L 948.331, 1335.034 
	L 910.417, 927.072 
" />
<path d="M 919.843, 910.418 
	L 919.843, 910.419 
	L 904.394, 695.050 
" />
<path d="M 894.898, 680.876 
	L 894.898, 680.877 
	L 909.071, 886.854 
" />
<path d="M 966.969, 849.932 
	L 966.969, 849.933 
	L 940.465, 1005.231 
" />
<path d="M 941.103, 1031.592 
	L 941.103, 1031.593 
	L 944.150, 1306.419 
" />
<path d="M 906.521, 1324.347 
	L 906.520, 1324.348 
	L 948.118, 877.057 
" />
<path d="M 948.828, 886.056 
	L 948.827, 886.057 
	L 931.465, 669.393 
" />
<path d="M 915.946, 687.676 
	L 915.945, 687.677 
	L 949.252, 902.225 
" />
<path d="M 937.347, 869.272 
	L 937.347, 869.272 
	L 935.291, 1053.321 
" />
<path d="M 918.639, 1036.312 
	L 918.638, 1036.313 
	L 982.134, 1280.895 
" />
<path d="M 949.749, 1309.028 
	L 949.748, 1309.029 
	L 928.276, 848.354 
" />
<path d="M 930.119, 859.196 
	L 930.118, 859.197 
	L 970.299, 651.606 
" />
<path d="M 957.757, 667.054 
	L 957.756, 667.054 
	L 971.362, 887.485 
" />
<path d="M 921.898, 852.760 
	L 921.898, 852.761 
	L 968.599, 1064.447 
" />
<path d="M 957.332, 1002.013 
	L 957.331, 1002.014 
	L 926.362, 1307.957 
" />
<path d="M 932.245, 1281.381 
	L 932.244, 1281.382 
	L 967.677, 826.904 
" />
<path d="M 984.190, 810.250 
	L 984.189, 810.251 
	L 943.583, 635.584 
" />
<path d="M 964.985, 633.954 
	L 964.984, 633.954 
	L 939.189, 883.283 
" />
<path d="M 955.418, 902.841 
	L 955.417, 902.842 
	L 1001.268, 1016.169 
" />
<path d="M 993.615, 1027.649 
	L 993.614, 1027.650 
	L 975.118, 1222.943 
" />
<path d="M 962.434, 1232.935 
	L 962.433, 1232.936 
	L 970.654, 858.646 
" />
<path d="M 955.560, 830.015 
	L 955.559, 830.016 
	L 977.103, 622.191 
" />
<path d="M 943.017, 664.426 
	L 943.016, 664.427 
	L 989.362, 841.401 
" />
<path d="M 938.906, 894.266 
	L 938.906, 894.267 
	L 965.764, 1028.004 
" />
<path d="M 981.780, 1031.830 
	L 981.780, 1031.831 
	L 958.323, 1222.563 
" />
<path d="M 1000.418, 1167.357 
	L 1000.417, 1167.358 
	L 972.000, 851.591 
" />
<path d="M 999.568, 844.362 
	L 999.567, 844.363 
	L 1001.480, 596.819 
" />
<path d="M 1011.828, 630.621 
	L 1011.827, 630.622 
	L 963.921, 852.449 
" />
<path d="M 964.772, 863.574 
	L 964.772, 863.575 
	L 986.103, 993.979 
" />
<path d="M 981.213, 1002.482 
	L 981.213, 1002.483 
	L 999.496, 1168.421 
" />
<path d="M 988.442, 1223.554 
	L 988.441, 1223.555 
	L 953.858, 830.473 
" />
<path d="M 957.615, 842.662 
	L 957.614, 842.662 
	L 1015.583, 645.575 
" />
<path d="M 958.253, 611.275 
	L 958.252, 611.276 
	L 988.937, 839.055 
" />
<path d="M 1012.040, 888.377 
	L 1012.040, 888.378 
	L 996.236, 1010.066 
" />
<path d="M 945.851, 998.443 
	L 945.851, 998.444 
	L 976.323, 1198.539 
" />
<path d="M 950.458, 1163.389 
	L 950.457, 1163.390 
	L 948.331, 823.954 
" />
<path d="M 968.528, 794.614 
	L 968.528, 794.615 
	L 1012.677, 608.158 
" />
<path d="M 995.812, 651.952 
	L 995.811, 651.953 
	L 959.032, 869.662 
" />
<path d="M 963.993, 873.984 
	L 963.992, 873.985 
	L 1011.473, 935.155 
" />
<path d="M 1003.182, 945.642 
	L 1003.181, 945.643 
	L 1025.079, 1143.813 
" />
<path d="M 1025.505, 1148.064 
	L 1025.504, 1148.065 
	L 1030.748, 770.762 
" />
<path d="M 976.961, 835.887 
	L 976.961, 835.888 
	L 1024.087, 617.934 
" />
<path d="M 1018.418, 582.854 
	L 1018.417, 582.855 
	L 1014.236, 898.143 
" />
<path d="M 988.229, 897.788 
	L 988.228, 897.789 
	L 983.835, 933.241 
" />
<path d="M 1009.347, 973.422 
	L 1009.347, 973.422 
	L 1013.740, 1084.852 
" />
<path d="M 1026.710, 1118.726 
	L 1026.709, 1118.726 
	L 992.764, 815.550 
" />
<path d="M 988.300, 811.368 
	L 988.299, 811.368 
	L 1026.567, 607.445 
" />
<path d="M 976.395, 629.272 
	L 976.394, 629.272 
	L 1026.709, 868.238 
" />
<path d="M 987.024, 853.072 
	L 987.024, 853.072 
	L 1027.914, 997.942 
" />
<path d="M 977.245, 935.650 
	L 977.244, 935.651 
	L 984.047, 1079.679 
" />
<path d="M 993.969, 1135.946 
	L 993.969, 1135.947 
	L 996.378, 789.471 
" />
<path d="M 990.001, 836.029 
	L 990.000, 836.030 
	L 1001.480, 620.556 
" />
<path d="M 1017.426, 619.138 
	L 1017.425, 619.138 
	L 1036.914, 887.435 
" />
<path d="M 1020.119, 896.931 
	L 1020.118, 896.932 
	L 1030.181, 961.755 
" />
<path d="M 1007.930, 958.494 
	L 1007.929, 958.495 
	L 1040.811, 1039.149 
" />
<path d="M 1010.198, 1096.692 
	L 1010.197, 1096.693 
	L 1028.339, 784.202 
" />
<path d="M 973.418, 803.406 
	L 973.417, 803.407 
	L 977.599, 556.632 
" />
<path d="M 981.284, 549.545 
	L 981.284, 549.546 
	L 974.622, 865.892 
" />
<path d="M 986.103, 872.624 
	L 986.103, 872.624 
	L 1006.370, 957.574 
" />
<path d="M 981.780, 968.132 
	L 981.780, 968.133 
	L 980.858, 1073.165 
" />
<path d="M 1011.898, 1075.857 
	L 1011.898, 1075.858 
	L 990.354, 799.155 
" />
<path d="M 1032.308, 788.099 
	L 1032.307, 788.100 
	L 1019.693, 592.845 
" />
<path d="M 997.796, 588.450 
	L 997.795, 588.451 
	L 1022.103, 865.538 
" />
<path d="M 1000.206, 856.041 
	L 1000.205, 856.042 
	L 985.819, 918.573 
" />
<path d="M 1019.623, 899.863 
	L 1019.622, 899.864 
	L 998.575, 1018.240 
" />
<path d="M 992.269, 1043.184 
	L 992.268, 1043.185 
	L 988.512, 805.927 
" />
<path d="M 1014.591, 792.533 
	L 1014.591, 792.534 
	L 1006.654, 573.001 
" />
<path d="M 1000.135, 586.819 
	L 1000.134, 586.820 
	L 1026.213, 860.641 
" />
<path d="M 1046.906, 879.207 
	L 1046.906, 879.208 
	L 994.181, 970.588 
" />
<path d="M 1019.694, 905.107 
	L 1019.693, 905.108 
	L 1037.906, 1049.988 
" />
<path d="M 995.954, 1018.239 
	L 995.953, 1018.240 
	L 1034.788, 787.148 
" />
<path d="M 1038.473, 765.816 
	L 1038.473, 765.817 
	L 1004.386, 592.631 
" />
<path d="M 1000.914, 560.882 
	L 1000.914, 560.883 
	L 1033.370, 844.051 
" />
<path d="M 1053.780, 874.239 
	L 1053.780, 874.240 
	L 1044.000, 912.104 
" />
<path d="M 1006.300, 946.544 
	L 1006.299, 946.545 
	L 1014.520, 939.022 
" />
<path d="M 1027.702, 990.258 
	L 1027.701, 990.259 
	L 1033.229, 808.017 
" />
<path d="M 1049.387, 820.702 
	L 1049.386, 820.702 
	L 1031.882, 542.101 
" />
<path d="M 1022.954, 524.738 
	L 1022.953, 524.739 
	L 1064.977, 843.265 
" />
<path d="M 1054.985, 883.799 
	L 1054.984, 883.800 
	L 997.725, 889.619 
" />
<path d="M 1000.276, 925.689 
	L 1000.276, 925.690 
	L 1007.291, 860.378 
" />
<path d="M 1026.072, 883.692 
	L 1026.071, 883.693 
	L 1061.929, 803.062 
" />
<path d="M 1058.670, 786.762 
	L 1058.669, 786.762 
	L 1014.803, 1205.616 
" />
<path d="M 1079.363, 1219.718 
	L 1079.362, 1219.718 
	L 1038.685, 958.825 
" />
<path d="M 1051.867, 923.462 
	L 1051.866, 923.463 
	L 1068.095, 820.179 
" />
<path d="M 1058.458, 839.524 
	L 1058.457, 839.525 
	L 1086.024, 780.955 
" />
<path d="M 1040.741, 771.245 
	L 1040.740, 771.246 
	L 1031.811, 774.247 
" />
<path d="M 1062.001, 816.553 
	L 1062.000, 816.554 
	L 1039.819, 1186.691 
" />
<path d="M 1039.961, 1176.982 
	L 1039.961, 1176.982 
	L 1053.213, 893.692 
" />
<path d="M 1049.812, 952.723 
	L 1049.811, 952.724 
	L 1053.142, 811.784 
" />
<path d="M 1093.040, 801.933 
	L 1093.040, 801.933 
	L 1071.780, 721.260 
" />
<path d="M 1087.229, 683.842 
	L 1087.229, 683.843 
	L 1095.520, 813.776 
" />
<path d="M 1067.103, 787.059 
	L 1067.103, 787.059 
	L 1096.725, 1198.240 
" />
<path d="M 1084.324, 1160.964 
	L 1084.323, 1160.965 
	L 1058.457, 955.339 
" />
<path d="M 1097.930, 925.574 
	L 1097.929, 925.575 
	L 1073.693, 819.376 
" />
<path d="M 1060.796, 784.722 
	L 1060.795, 784.723 
	L 1071.921, 632.351 
" />
<path d="M 1109.552, 589.831 
	L 1109.551, 589.832 
	L 1050.874, 819.199 
" />
<path d="M 1105.584, 847.261 
	L 1105.583, 847.262 
	L 1061.929, 1145.373 
" />
<path d="M 1068.946, 1175.490 
	L 1068.945, 1175.491 
	L 1095.024, 937.466 
" />
<path d="M 1099.135, 903.237 
	L 1099.134, 903.238 
	L 1088.362, 790.123 
" />
<path d="M 1087.938, 808.335 
	L 1087.937, 808.336 
	L 1123.016, 596.327 
" />
<path d="M 1064.269, 543.247 
	L 1064.268, 543.248 
	L 1123.866, 817.314 
" />
<path d="M 1058.954, 854.802 
	L 1058.953, 854.802 
	L 1114.583, 1144.237 
" />
<path d="M 1062.497, 1192.071 
	L 1062.496, 1192.071 
	L 1098.425, 911.593 
" />
<path d="M 1089.497, 925.695 
	L 1089.496, 925.695 
	L 1113.945, 751.633 
" />
<path d="M 1112.387, 748.585 
	L 1112.386, 748.585 
	L 1132.866, 548.317 
" />
<path d="M 1085.316, 536.198 
	L 1085.315, 536.199 
	L 1090.417, 872.418 
" />
<path d="M 1099.418, 859.661 
	L 1099.417, 859.662 
	L 1101.756, 1110.783 
" />
<path d="M 1098.922, 1121.766 
	L 1098.921, 1121.767 
	L 1114.441, 918.240 
" />
<path d="M 1137.190, 896.271 
	L 1137.189, 896.272 
	L 1104.095, 728.112 
" />
<path d="M 1087.442, 757.592 
	L 1087.441, 757.592 
	L 1150.087, 499.402 
" />
<path d="M 1120.820, 509.039 
	L 1120.819, 509.040 
	L 1111.536, 862.745 
" />
<path d="M 1152.001, 853.957 
	L 1152.000, 853.958 
	L 1166.032, 1081.015 
" />
<path d="M 1156.111, 1120.983 
	L 1156.110, 1120.983 
	L 1131.732, 912.621 
" />
<path d="M 1158.662, 898.376 
	L 1158.662, 898.376 
	L 1120.961, 791.063 
" />
<path d="M 1147.324, 772.141 
	L 1147.323, 772.142 
	L 1170.496, 468.823 
" />
<path d="M 1169.576, 491.216 
	L 1169.575, 491.216 
	L 1142.858, 935.566 
" />
<path d="M 1158.662, 928.762 
	L 1158.662, 928.763 
	L 1120.252, 1051.035 
" />
<path d="M 1132.867, 1082.286 
	L 1132.866, 1082.287 
	L 1139.244, 925.221 
" />
<path d="M 1159.300, 896.236 
	L 1159.299, 896.236 
	L 1179.638, 730.422 
" />
<path d="M 1149.095, 740.696 
	L 1149.095, 740.697 
	L 1183.890, 536.939 
" />
<path d="M 1200.544, 514.545 
	L 1200.543, 514.546 
	L 1165.536, 906.644 
" />
<path d="M 1202.174, 937.328 
	L 1202.173, 937.329 
	L 1196.575, 981.439 
" />
<path d="M 1209.899, 1038.486 
	L 1209.898, 1038.487 
	L 1151.646, 875.310 
" />
<path d="M 1218.686, 936.821 
	L 1218.685, 936.821 
	L 1228.394, 827.504 
" />
<path d="M 1211.316, 797.314 
	L 1211.315, 797.315 
	L 1187.504, 608.829 
" />
<path d="M 1196.930, 585.372 
	L 1196.929, 585.373 
	L 1185.520, 960.698 
" />
<path d="M 1226.056, 990.035 
	L 1226.055, 990.036 
	L 1219.394, 965.207 
" />
<path d="M 1216.489, 949.687 
	L 1216.488, 949.688 
	L 1196.858, 927.956 
" />
<path d="M 1186.938, 894.294 
	L 1186.937, 894.295 
	L 1177.229, 825.616 
" />
<path d="M 1226.765, 777.710 
	L 1226.764, 777.711 
	L 1196.079, 612.874 
" />
<path d="M 1190.623, 620.173 
	L 1190.622, 620.174 
	L 1182.969, 973.416 
" />
<path d="M 1198.843, 956.124 
	L 1198.843, 956.125 
	L 1232.575, 965.913 
" />
<path d="M 1191.969, 960.243 
	L 1191.969, 960.243 
	L 1240.866, 916.603 
" />
<path d="M 1177.371, 924.326 
	L 1177.370, 924.327 
	L 1245.685, 812.688 
" />
<path d="M 1218.544, 822.467 
	L 1218.543, 822.467 
	L 1208.693, 699.948 
" />
<path d="M 1215.426, 689.601 
	L 1215.425, 689.602 
	L 1196.221, 984.570 
" />
<path d="M 1197.001, 1003.703 
	L 1197.000, 1003.704 
	L 1229.103, 955.141 
" />
<path d="M 1211.954, 967.542 
	L 1211.953, 967.543 
	L 1183.394, 933.256 
" />
<path d="M 1237.182, 866.783 
	L 1237.181, 866.784 
	L 1185.874, 866.860 
" />
<path d="M 1242.213, 863.387 
	L 1242.213, 863.388 
	L 1229.244, 763.890 
" />
<path d="M 1247.458, 732.424 
	L 1247.457, 732.425 
	L 1213.087, 968.389 
" />
<path d="M 1188.284, 1011.617 
	L 1188.284, 1011.618 
	L 1241.362, 961.375 
" />
<path d="M 1211.316, 934.941 
	L 1211.315, 934.942 
	L 1215.071, 904.052 
" />
<path d="M 1201.607, 899.303 
	L 1201.606, 899.304 
	L 1185.520, 875.931 
" />
<path d="M 1191.757, 834.403 
	L 1191.756, 834.403 
	L 1213.016, 791.247 
" />
<path d="M 1209.544, 759.073 
	L 1209.543, 759.073 
	L 1236.543, 971.551 
" />
<path d="M 1228.820, 1012.086 
	L 1228.819, 1012.087 
	L 1212.166, 900.641 
" />
<path d="M 1220.316, 903.192 
	L 1220.315, 903.193 
	L 1192.748, 894.974 
" />
<path d="M 1198.418, 866.060 
	L 1198.418, 866.061 
	L 1195.725, 864.782 
" />
<path d="M 1209.190, 871.230 
	L 1209.189, 871.231 
	L 1239.591, 808.989 
" />
<path d="M 1220.316, 813.241 
	L 1220.315, 813.241 
	L 1239.449, 1006.530 
" />
<path d="M 1209.615, 989.521 
	L 1209.614, 989.522 
	L 1239.520, 902.269 
" />
<path d="M 1207.843, 932.457 
	L 1207.843, 932.458 
	L 1262.339, 920.408 
" />
<path d="M 1225.135, 923.596 
	L 1225.134, 923.597 
	L 1245.543, 861.222 
" />
<path d="M 1243.206, 909.127 
	L 1243.205, 909.128 
	L 1260.284, 931.611 
" />
<path d="M 1272.190, 927.713 
	L 1272.189, 927.714 
	L 1286.433, 973.433 
" />
<path d="M 1286.292, 1016.944 
	L 1286.292, 1016.945 
	L 1268.292, 894.894 
" />
<path d="M 1228.536, 864.350 
	L 1228.536, 864.351 
	L 1270.984, 881.340 
" />
<path d="M 1236.332, 877.512 
	L 1236.331, 877.513 
	L 1263.685, 931.374 
" />
<path d="M 1276.017, 951.570 
	L 1276.016, 951.571 
	L 1262.622, 1064.404 
" />
<path d="M 1273.678, 1124.214 
	L 1273.677, 1124.215 
	L 1247.386, 1022.620 
" />
<path d="M 1254.473, 995.761 
	L 1254.473, 995.761 
	L 1317.189, 815.093 
" />
<path d="M 1287.213, 843.581 
	L 1287.213, 843.581 
	L 1326.756, 903.138 
" />
<path d="M 1311.591, 861.043 
	L 1311.591, 861.043 
	L 1291.323, 1002.392 
" />
<path d="M 1316.410, 985.951 
	L 1316.410, 985.951 
	L 1294.725, 1205.283 
" />
<path d="M 1265.174, 1154.329 
	L 1265.173, 1154.330 
	L 1320.732, 942.206 
" />
<path d="M 1336.182, 957.867 
	L 1336.181, 957.868 
	L 1305.992, 818.704 
" />
<path d="M 1285.017, 765.128 
	L 1285.016, 765.129 
	L 1320.236, 904.194 
" />
<path d="M 1290.332, 911.847 
	L 1290.331, 911.847 
	L 1298.268, 1010.183 
" />
<path d="M 1308.686, 999.553 
	L 1308.685, 999.553 
	L 1310.740, 1242.757 
" />
<path d="M 1292.954, 1250.764 
	L 1292.953, 1250.765 
	L 1289.551, 944.480 
" />
<path d="M 1283.741, 959.644 
	L 1283.740, 959.645 
	L 1312.441, 742.307 
" />
<path d="M 1295.505, 731.180 
	L 1295.504, 731.181 
	L 1342.701, 859.959 
" />
<path d="M 1335.615, 910.061 
	L 1335.614, 910.062 
	L 1310.811, 1007.826 
" />
<path d="M 1327.465, 1010.801 
	L 1327.465, 1010.802 
	L 1363.394, 1283.945 
" />
<path d="M 1360.843, 1294.432 
	L 1360.843, 1294.433 
	L 1309.181, 955.445 
" />
<path d="M 1344.473, 937.303 
	L 1344.473, 937.303 
	L 1323.142, 716.722 
" />
<path d="M 1311.946, 772.919 
	L 1311.945, 772.919 
	L 1322.575, 903.386 
" />
<path d="M 1304.859, 868.094 
	L 1304.858, 868.095 
	L 1356.874, 1054.031 
" />
<path d="M 1343.481, 1010.802 
	L 1343.481, 1010.803 
	L 1316.481, 1339.364 
" />
<path d="M 1309.891, 1309.600 
	L 1309.890, 1309.601 
	L 1341.709, 937.264 
" />
<path d="M 1362.899, 921.390 
	L 1362.898, 921.390 
	L 1323.355, 744.215 
" />
<path d="M 1337.245, 726.498 
	L 1337.244, 726.498 
	L 1318.252, 854.410 
" />
<path d="M 1337.032, 864.544 
	L 1337.032, 864.544 
	L 1363.819, 1067.905 
" />
<path d="M 1361.977, 1071.235 
	L 1361.977, 1071.236 
	L 1379.551, 1295.450 
" />
<path d="M 1331.576, 1327.268 
	L 1331.575, 1327.269 
	L 1370.410, 928.548 
" />
<path d="M 1311.379, 908.279 
	L 1311.378, 908.280 
	L 1370.339, 739.821 
" />
<path d="M 1327.536, 729.262 
	L 1327.536, 729.262 
	L 1358.433, 877.017 
" />
<path d="M 1354.182, 899.906 
	L 1354.181, 899.906 
	L 1358.433, 1071.661 
" />
<path d="M 1374.662, 1015.889 
	L 1374.662, 1015.890 
	L 1353.118, 1339.031 
" />
<path d="M 1344.615, 1298.069 
	L 1344.614, 1298.070 
	L 1374.732, 908.967 
" />
<path d="M 1356.521, 896.423 
	L 1356.520, 896.423 
	L 1393.370, 692.125 
" />
<path d="M 1360.418, 669.518 
	L 1360.418, 669.519 
	L 1395.213, 852.121 
" />
<path d="M 1340.434, 862.042 
	L 1340.433, 862.043 
	L 1360.701, 1051.820 
" />
<path d="M 1376.647, 1029.497 
	L 1376.646, 1029.497 
	L 1354.748, 1265.761 
" />
<path d="M 1405.347, 1300.343 
	L 1405.347, 1300.344 
	L 1355.457, 859.636 
" />
<path d="M 1360.843, 830.793 
	L 1360.843, 830.794 
	L 1412.150, 679.082 
" />
<path d="M 1414.702, 653.144 
	L 1414.701, 653.145 
	L 1410.803, 897.177 
" />
<path d="M 1422.568, 854.374 
	L 1422.567, 854.374 
	L 1372.465, 1023.549 
" />
<path d="M 1387.773, 1017.313 
	L 1387.772, 1017.313 
	L 1370.551, 1269.461 
" />
<path d="M 1402.938, 1237.358 
	L 1402.937, 1237.359 
	L 1360.276, 857.837 
" />
<path d="M 1398.119, 858.404 
	L 1398.118, 858.404 
	L 1410.945, 626.637 
" />
<path d="M 1392.166, 621.676 
	L 1392.166, 621.677 
	L 1373.953, 900.565 
" />
<path d="M 1395.639, 882.564 
	L 1395.638, 882.565 
	L 1411.158, 1010.337 
" />
<path d="M 1437.591, 975.754 
	L 1437.591, 975.754 
	L 1422.638, 1170.524 
" />
<path d="M 1384.725, 1125.310 
	L 1384.725, 1125.311 
	L 1380.047, 834.423 
" />
<path d="M 1443.615, 778.650 
	L 1443.614, 778.651 
	L 1422.496, 628.406 
" />
<path d="M 1379.269, 578.657 
	L 1379.268, 578.657 
	L 1383.732, 898.219 
" />
<path d="M 1393.867, 868.738 
	L 1393.866, 868.739 
	L 1398.898, 958.751 
" />
<path d="M 1424.410, 948.333 
	L 1424.410, 948.334 
	L 1388.055, 1168.894 
" />
<path d="M 1434.119, 1165.350 
	L 1434.118, 1165.351 
	L 1385.717, 786.730 
" />
<path d="M 1440.639, 780.918 
	L 1440.638, 780.919 
	L 1394.292, 605.870 
" />
<path d="M 1432.985, 618.342 
	L 1432.984, 618.343 
	L 1413.071, 864.558 
" />
<path d="M 1414.206, 888.155 
	L 1414.205, 888.156 
	L 1447.158, 953.365 
" />
<path d="M 1416.119, 959.105 
	L 1416.118, 959.105 
	L 1443.614, 1171.162 
" />
<path d="M 1392.804, 1142.673 
	L 1392.803, 1142.673 
	L 1386.355, 815.572 
" />
<path d="M 1436.599, 813.942 
	L 1436.599, 813.942 
	L 1409.882, 571.854 
" />
<path d="M 1392.095, 572.704 
	L 1392.095, 572.705 
	L 1385.079, 840.959 
" />
<path d="M 1397.765, 876.321 
	L 1397.764, 876.322 
	L 1436.315, 1004.885 
" />
<path d="M 1381.962, 1009.136 
	L 1381.961, 1009.137 
	L 1437.733, 1173.146 
" />
<path d="M 1417.536, 1119.641 
	L 1417.536, 1119.642 
	L 1397.977, 776.454 
" />
<path d="M 1421.717, 780.280 
	L 1421.717, 780.281 
	L 1379.977, 575.398 
" />
<path d="M 1382.599, 609.696 
	L 1382.599, 609.697 
	L 1394.079, 847.047 
" />
<path d="M 1397.694, 863.133 
	L 1397.693, 863.133 
	L 1451.693, 965.289 
" />
<path d="M 1395.993, 965.430 
	L 1395.992, 965.431 
	L 1418.103, 1033.347 
" />
<path d="M 1409.103, 1064.315 
	L 1409.103, 1064.316 
	L 1409.528, 784.896 
" />
<path d="M 1460.198, 774.832 
	L 1460.197, 774.833 
	L 1397.977, 599.347 
" />
<path d="M 1461.544, 595.732 
	L 1461.544, 595.733 
	L 1410.378, 884.244 
" />
<path d="M 1462.891, 848.102 
	L 1462.890, 848.103 
	L 1460.268, 981.293 
" />
<path d="M 1429.938, 951.033 
	L 1429.937, 951.034 
	L 1410.236, 1083.733 
" />
<path d="M 1448.292, 1055.811 
	L 1448.292, 1055.812 
	L 1451.268, 773.132 
" />
<path d="M 1419.733, 792.052 
	L 1419.733, 792.053 
	L 1409.386, 551.652 
" />
<path d="M 1422.355, 547.116 
	L 1422.355, 547.116 
	L 1423.772, 873.466 
" />
<path d="M 1415.836, 871.622 
	L 1415.835, 871.623 
	L 1431.851, 942.469 
" />
<path d="M 1451.269, 881.807 
	L 1451.268, 881.808 
	L 1465.725, 913.686 
" />
<path d="M 1445.174, 958.827 
	L 1445.173, 958.828 
	L 1425.756, 797.975 
" />
<path d="M 1479.757, 791.526 
	L 1479.756, 791.527 
	L 1462.181, 531.170 
" />
<path d="M 1477.277, 542.295 
	L 1477.276, 542.296 
	L 1476.567, 896.554 
" />
<path d="M 1480.607, 905.411 
	L 1480.607, 905.412 
	L 1429.229, 873.664 
" />
</g><g style="stroke:rgb(0,255,0); fill:none; stroke-width:0.100mm" >
</g>
</svg>
