<?xml version="1.0" encoding="UTF-8" standalone="no" ?>
<svg width="100%" height="100%" viewBox="0 0 809.043 783.532" xmlns="http://www.w3.org/2000/svg"><g>
</g><g style="stroke:rgb(0,0,0); fill:none; stroke-width:1.000mm" >
<path d="M 0.000, 783.567 
	L 0.000, 585.496 
	L 257.457, 585.496 
	L 257.457, 783.567 
	L 0.000, 783.567 
" />
<path d="M 0.035, 783.532 
	L 0.035, 585.461 
" />
<path d="M 3.791, 783.532 
	L 3.791, 585.461 
" />
<path d="M 7.547, 783.532 
	L 7.547, 585.461 
" />
<path d="M 11.303, 783.532 
	L 11.303, 585.461 
" />
<path d="M 15.059, 783.532 
	L 15.059, 585.461 
" />
<path d="M 18.815, 783.532 
	L 18.815, 585.461 
" />
<path d="M 22.571, 783.532 
	L 22.571, 585.461 
" />
<path d="M 26.327, 783.532 
	L 26.327, 585.461 
" />
<path d="M 30.083, 783.532 
	L 30.083, 585.461 
" />
<path d="M 33.839, 783.532 
	L 33.839, 585.461 
" />
<path d="M 37.594, 783.532 
	L 37.594, 585.461 
" />
<path d="M 41.350, 783.532 
	L 41.350, 585.461 
" />
<path d="M 45.106, 783.532 
	L 45.106, 585.461 
" />
<path d="M 48.862, 783.532 
	L 48.862, 585.461 
" />
<path d="M 52.618, 783.532 
	L 52.618, 585.461 
" />
<path d="M 56.374, 783.532 
	L 56.374, 585.461 
" />
<path d="M 60.130, 783.532 
	L 60.130, 585.461 
" />
<path d="M 63.886, 783.532 
	L 63.886, 585.461 
" />
<path d="M 67.642, 783.532 
	L 67.642, 585.461 
" />
<path d="M 71.398, 783.532 
	L 71.398, 585.461 
" />
<path d="M 75.154, 783.532 
	L 75.154, 585.461 
" />
<path d="M 78.909, 783.532 
	L 78.909, 585.461 
" />
<path d="M 82.665, 783.532 
	L 82.665, 585.461 
" />
<path d="M 86.421, 783.532 
	L 86.421, 585.461 
" />
<path d="M 90.177, 783.532 
	L 90.177, 585.461 
" />
<path d="M 93.933, 783.532 
	L 93.933, 585.461 
" />
<path d="M 97.689, 783.532 
	L 97.689, 585.461 
" />
<path d="M 101.445, 783.532 
	L 101.445, 585.461 
" />
<path d="M 105.201, 783.532 
	L 105.201, 585.461 
" />
<path d="M 108.957, 783.532 
	L 108.957, 585.461 
" />
<path d="M 112.713, 783.532 
	L 112.713, 585.461 
" />
<path d="M 116.469, 783.532 
	L 116.469, 585.461 
" />
<path d="M 120.224, 783.532 
	L 120.224, 585.461 
" />
<path d="M 123.980, 783.532 
	L 123.980, 585.461 
" />
<path d="M 127.736, 783.532 
	L 127.736, 585.461 
" />
<path d="M 131.492, 783.532 
	L 131.492, 585.461 
" />
<path d="M 135.248, 783.532 
	L 135.248, 585.461 
" />
<path d="M 139.004, 783.532 
	L 139.004, 585.461 
" />
<path d="M 142.760, 783.532 
	L 142.760, 585.461 
" />
<path d="M 146.516, 783.532 
	L 146.516, 585.461 
" />
<path d="M 150.272, 783.532 
	L 150.272, 585.461 
" />
<path d="M 154.028, 783.532 
	L 154.028, 585.461 
" />
<path d="M 157.783, 783.532 
	L 157.783, 585.461 
" />
<path d="M 161.539, 783.532 
	L 161.539, 585.461 
" />
<path d="M 165.295, 783.532 
	L 165.295, 585.461 
" />
<path d="M 169.051, 783.532 
	L 169.051, 585.461 
" />
<path d="M 172.807, 783.532 
	L 172.807, 585.461 
" />
<path d="M 176.563, 783.532 
	L 176.563, 585.461 
" />
<path d="M 180.319, 783.532 
	L 180.319, 585.461 
" />
<path d="M 184.075, 783.532 
	L 184.075, 585.461 
" />
<path d="M 187.831, 783.532 
	L 187.831, 585.461 
" />
<path d="M 191.587, 783.532 
	L 191.587, 585.461 
" />
<path d="M 195.343, 783.532 
	L 195.343, 585.461 
" />
<path d="M 199.098, 783.532 
	L 199.098, 585.461 
" />
<path d="M 202.854, 783.532 
	L 202.854, 585.461 
" />
<path d="M 206.610, 783.532 
	L 206.610, 585.461 
" />
<path d="M 210.366, 783.532 
	L 210.366, 585.461 
" />
<path d="M 214.122, 783.532 
	L 214.122, 585.461 
" />
<path d="M 217.878, 783.532 
	L 217.878, 585.461 
" />
<path d="M 221.634, 783.532 
	L 221.634, 585.461 
" />
<path d="M 225.390, 783.532 
	L 225.390, 585.461 
" />
<path d="M 229.146, 783.532 
	L 229.146, 585.461 
" />
<path d="M 232.902, 783.532 
	L 232.902, 585.461 
" />
<path d="M 236.658, 783.532 
	L 236.658, 585.461 
" />
<path d="M 240.413, 783.532 
	L 240.413, 585.461 
" />
<path d="M 244.169, 783.532 
	L 244.169, 585.461 
" />
<path d="M 247.925, 783.532 
	L 247.925, 585.461 
" />
<path d="M 251.681, 783.532 
	L 251.681, 585.461 
" />
<path d="M 0.000, 783.567 
	L 0.000, 571.606 
	L 281.976, 571.606 
	L 281.976, 783.567 
	L 0.000, 783.567 
" />
<path d="M 0.035, 783.532 
	L 0.035, 571.571 
" />
<path d="M 3.154, 783.532 
	L 3.154, 571.571 
" />
<path d="M 6.272, 783.532 
	L 6.272, 571.571 
" />
<path d="M 9.390, 783.532 
	L 9.390, 571.571 
" />
<path d="M 12.508, 783.532 
	L 12.508, 571.571 
" />
<path d="M 15.626, 783.532 
	L 15.626, 571.571 
" />
<path d="M 18.744, 783.532 
	L 18.744, 571.571 
" />
<path d="M 21.862, 783.532 
	L 21.862, 571.571 
" />
<path d="M 24.980, 783.532 
	L 24.980, 571.571 
" />
<path d="M 28.098, 783.532 
	L 28.098, 571.571 
" />
<path d="M 31.217, 783.532 
	L 31.217, 571.571 
" />
<path d="M 34.335, 783.532 
	L 34.335, 571.571 
" />
<path d="M 37.453, 783.532 
	L 37.453, 571.571 
" />
<path d="M 40.571, 783.532 
	L 40.571, 571.571 
" />
<path d="M 43.689, 783.532 
	L 43.689, 571.571 
" />
<path d="M 46.807, 783.532 
	L 46.807, 571.571 
" />
<path d="M 49.925, 783.532 
	L 49.925, 571.571 
" />
<path d="M 53.043, 783.532 
	L 53.043, 571.571 
" />
<path d="M 56.161, 783.532 
	L 56.161, 571.571 
" />
<path d="M 59.280, 783.532 
	L 59.280, 571.571 
" />
<path d="M 62.398, 783.532 
	L 62.398, 571.571 
" />
<path d="M 65.516, 783.532 
	L 65.516, 571.571 
" />
<path d="M 68.634, 783.532 
	L 68.634, 571.571 
" />
<path d="M 71.752, 783.532 
	L 71.752, 571.571 
" />
<path d="M 74.870, 783.532 
	L 74.870, 571.571 
" />
<path d="M 77.988, 783.532 
	L 77.988, 571.571 
" />
<path d="M 81.106, 783.532 
	L 81.106, 571.571 
" />
<path d="M 84.224, 783.532 
	L 84.224, 571.571 
" />
<path d="M 87.343, 783.532 
	L 87.343, 571.571 
" />
<path d="M 90.461, 783.532 
	L 90.461, 571.571 
" />
<path d="M 93.579, 783.532 
	L 93.579, 571.571 
" />
<path d="M 96.697, 783.532 
	L 96.697, 571.571 
" />
<path d="M 99.815, 783.532 
	L 99.815, 571.571 
" />
<path d="M 102.933, 783.532 
	L 102.933, 571.571 
" />
<path d="M 106.051, 783.532 
	L 106.051, 571.571 
" />
<path d="M 109.169, 783.532 
	L 109.169, 571.571 
" />
<path d="M 112.287, 783.532 
	L 112.287, 571.571 
" />
<path d="M 115.406, 783.532 
	L 115.406, 571.571 
" />
<path d="M 118.524, 783.532 
	L 118.524, 571.571 
" />
<path d="M 121.642, 783.532 
	L 121.642, 571.571 
" />
<path d="M 124.760, 783.532 
	L 124.760, 571.571 
" />
<path d="M 127.878, 783.532 
	L 127.878, 571.571 
" />
<path d="M 130.996, 783.532 
	L 130.996, 571.571 
" />
<path d="M 134.114, 783.532 
	L 134.114, 571.571 
" />
<path d="M 137.232, 783.532 
	L 137.232, 571.571 
" />
<path d="M 140.350, 783.532 
	L 140.350, 571.571 
" />
<path d="M 143.469, 783.532 
	L 143.469, 571.571 
" />
<path d="M 146.587, 783.532 
	L 146.587, 571.571 
" />
<path d="M 149.705, 783.532 
	L 149.705, 571.571 
" />
<path d="M 152.823, 783.532 
	L 152.823, 571.571 
" />
<path d="M 155.941, 783.532 
	L 155.941, 571.571 
" />
<path d="M 159.059, 783.532 
	L 159.059, 571.571 
" />
<path d="M 162.177, 783.532 
	L 162.177, 571.571 
" />
<path d="M 165.295, 783.532 
	L 165.295, 571.571 
" />
<path d="M 168.413, 783.532 
	L 168.413, 571.571 
" />
<path d="M 171.532, 783.532 
	L 171.532, 571.571 
" />
<path d="M 174.650, 783.532 
	L 174.650, 571.571 
" />
<path d="M 177.768, 783.532 
	L 177.768, 571.571 
" />
<path d="M 180.886, 783.532 
	L 180.886, 571.571 
" />
<path d="M 184.004, 783.532 
	L 184.004, 571.571 
" />
<path d="M 187.122, 783.532 
	L 187.122, 571.571 
" />
<path d="M 190.240, 783.532 
	L 190.240, 571.571 
" />
<path d="M 193.358, 783.532 
	L 193.358, 571.571 
" />
<path d="M 196.476, 783.532 
	L 196.476, 571.571 
" />
<path d="M 199.595, 783.532 
	L 199.595, 571.571 
" />
<path d="M 202.713, 783.532 
	L 202.713, 571.571 
" />
<path d="M 205.831, 783.532 
	L 205.831, 571.571 
" />
<path d="M 208.949, 783.532 
	L 208.949, 571.571 
" />
<path d="M 212.067, 783.532 
	L 212.067, 571.571 
" />
<path d="M 215.185, 783.532 
	L 215.185, 571.571 
" />
<path d="M 218.303, 783.532 
	L 218.303, 571.571 
" />
<path d="M 221.421, 783.532 
	L 221.421, 571.571 
" />
<path d="M 224.539, 783.532 
	L 224.539, 571.571 
" />
<path d="M 227.658, 783.532 
	L 227.658, 571.571 
" />
<path d="M 230.776, 783.532 
	L 230.776, 571.571 
" />
<path d="M 233.894, 783.532 
	L 233.894, 571.571 
" />
<path d="M 237.012, 783.532 
	L 237.012, 571.571 
" />
<path d="M 240.130, 783.532 
	L 240.130, 571.571 
" />
<path d="M 243.248, 783.532 
	L 243.248, 571.571 
" />
<path d="M 246.366, 783.532 
	L 246.366, 571.571 
" />
<path d="M 249.484, 783.532 
	L 249.484, 571.571 
" />
<path d="M 252.602, 783.532 
	L 252.602, 571.571 
" />
<path d="M 255.721, 783.532 
	L 255.721, 571.571 
" />
<path d="M 258.839, 783.532 
	L 258.839, 571.571 
" />
<path d="M 261.957, 783.532 
	L 261.957, 571.571 
" />
<path d="M 265.075, 783.532 
	L 265.075, 571.571 
" />
<path d="M 268.193, 783.532 
	L 268.193, 571.571 
" />
<path d="M 271.311, 783.532 
	L 271.311, 571.571 
" />
<path d="M 274.429, 783.532 
	L 274.429, 571.571 
" />
<path d="M 277.547, 783.532 
	L 277.547, 571.571 
" />
<path d="M 0.035, 588.650 
	L 0.035, 409.500 
	L 277.547, 409.500 
	L 277.547, 588.650 
	L 0.035, 588.650 
" />
<path d="M 0.035, 588.650 
	L 0.035, 409.500 
" />
<path d="M 3.791, 588.650 
	L 3.791, 409.500 
" />
<path d="M 7.547, 588.650 
	L 7.547, 409.500 
" />
<path d="M 11.303, 588.650 
	L 11.303, 409.500 
" />
<path d="M 15.059, 588.650 
	L 15.059, 409.500 
" />
<path d="M 18.815, 588.650 
	L 18.815, 409.500 
" />
<path d="M 22.571, 588.650 
	L 22.571, 409.500 
" />
<path d="M 26.327, 588.650 
	L 26.327, 409.500 
" />
<path d="M 30.083, 588.650 
	L 30.083, 409.500 
" />
<path d="M 33.839, 588.650 
	L 33.839, 409.500 
" />
<path d="M 37.594, 588.650 
	L 37.594, 409.500 
" />
<path d="M 41.350, 588.650 
	L 41.350, 409.500 
" />
<path d="M 45.106, 588.650 
	L 45.106, 409.500 
" />
<path d="M 48.862, 588.650 
	L 48.862, 409.500 
" />
<path d="M 52.618, 588.650 
	L 52.618, 409.500 
" />
<path d="M 56.374, 588.650 
	L 56.374, 409.500 
" />
<path d="M 60.130, 588.650 
	L 60.130, 409.500 
" />
<path d="M 63.886, 588.650 
	L 63.886, 409.500 
" />
<path d="M 67.642, 588.650 
	L 67.642, 409.500 
" />
<path d="M 71.398, 588.650 
	L 71.398, 409.500 
" />
<path d="M 75.154, 588.650 
	L 75.154, 409.500 
" />
<path d="M 78.909, 588.650 
	L 78.909, 409.500 
" />
<path d="M 82.665, 588.650 
	L 82.665, 409.500 
" />
<path d="M 86.421, 588.650 
	L 86.421, 409.500 
" />
<path d="M 90.177, 588.650 
	L 90.177, 409.500 
" />
<path d="M 93.933, 588.650 
	L 93.933, 409.500 
" />
<path d="M 97.689, 588.650 
	L 97.689, 409.500 
" />
<path d="M 101.445, 588.650 
	L 101.445, 409.500 
" />
<path d="M 105.201, 588.650 
	L 105.201, 409.500 
" />
<path d="M 108.957, 588.650 
	L 108.957, 409.500 
" />
<path d="M 112.713, 588.650 
	L 112.713, 409.500 
" />
<path d="M 116.469, 588.650 
	L 116.469, 409.500 
" />
<path d="M 120.224, 588.650 
	L 120.224, 409.500 
" />
<path d="M 123.980, 588.650 
	L 123.980, 409.500 
" />
<path d="M 127.736, 588.650 
	L 127.736, 409.500 
" />
<path d="M 131.492, 588.650 
	L 131.492, 409.500 
" />
<path d="M 135.248, 588.650 
	L 135.248, 409.500 
" />
<path d="M 139.004, 588.650 
	L 139.004, 409.500 
" />
<path d="M 142.760, 588.650 
	L 142.760, 409.500 
" />
<path d="M 146.516, 588.650 
	L 146.516, 409.500 
" />
<path d="M 150.272, 588.650 
	L 150.272, 409.500 
" />
<path d="M 154.028, 588.650 
	L 154.028, 409.500 
" />
<path d="M 157.783, 588.650 
	L 157.783, 409.500 
" />
<path d="M 161.539, 588.650 
	L 161.539, 409.500 
" />
<path d="M 165.295, 588.650 
	L 165.295, 409.500 
" />
<path d="M 169.051, 588.650 
	L 169.051, 409.500 
" />
<path d="M 172.807, 588.650 
	L 172.807, 409.500 
" />
<path d="M 176.563, 588.650 
	L 176.563, 409.500 
" />
<path d="M 180.319, 588.650 
	L 180.319, 409.500 
" />
<path d="M 184.075, 588.650 
	L 184.075, 409.500 
" />
<path d="M 187.831, 588.650 
	L 187.831, 409.500 
" />
<path d="M 191.587, 588.650 
	L 191.587, 409.500 
" />
<path d="M 195.343, 588.650 
	L 195.343, 409.500 
" />
<path d="M 199.098, 588.650 
	L 199.098, 409.500 
" />
<path d="M 202.854, 588.650 
	L 202.854, 409.500 
" />
<path d="M 206.610, 588.650 
	L 206.610, 409.500 
" />
<path d="M 210.366, 588.650 
	L 210.366, 409.500 
" />
<path d="M 214.122, 588.650 
	L 214.122, 409.500 
" />
<path d="M 217.878, 588.650 
	L 217.878, 409.500 
" />
<path d="M 221.634, 588.650 
	L 221.634, 409.500 
" />
<path d="M 225.390, 588.650 
	L 225.390, 409.500 
" />
<path d="M 229.146, 588.650 
	L 229.146, 409.500 
" />
<path d="M 232.902, 588.650 
	L 232.902, 409.500 
" />
<path d="M 236.658, 588.650 
	L 236.658, 409.500 
" />
<path d="M 240.413, 588.650 
	L 240.413, 409.500 
" />
<path d="M 244.169, 588.650 
	L 244.169, 409.500 
" />
<path d="M 247.925, 588.650 
	L 247.925, 409.500 
" />
<path d="M 251.681, 588.650 
	L 251.681, 409.500 
" />
<path d="M 255.437, 588.650 
	L 255.437, 409.500 
" />
<path d="M 259.193, 588.650 
	L 259.193, 409.500 
" />
<path d="M 262.949, 588.650 
	L 262.949, 409.500 
" />
<path d="M 266.705, 588.650 
	L 266.705, 409.500 
" />
<path d="M 270.461, 588.650 
	L 270.461, 409.500 
" />
<path d="M 0.035, 393.768 
	L 0.035, 193.500 
	L 255.437, 193.500 
	L 255.437, 393.768 
	L 0.035, 393.768 
" />
<path d="M 0.035, 393.768 
	L 0.035, 193.500 
" />
<path d="M 3.862, 393.768 
	L 3.862, 193.500 
" />
<path d="M 7.689, 393.768 
	L 7.689, 193.500 
" />
<path d="M 11.516, 393.768 
	L 11.516, 193.500 
" />
<path d="M 15.343, 393.768 
	L 15.343, 193.500 
" />
<path d="M 19.169, 393.768 
	L 19.169, 193.500 
" />
<path d="M 22.996, 393.768 
	L 22.996, 193.500 
" />
<path d="M 26.823, 393.768 
	L 26.823, 193.500 
" />
<path d="M 30.650, 393.768 
	L 30.650, 193.500 
" />
<path d="M 34.476, 393.768 
	L 34.476, 193.500 
" />
<path d="M 38.303, 393.768 
	L 38.303, 193.500 
" />
<path d="M 42.130, 393.768 
	L 42.130, 193.500 
" />
<path d="M 45.957, 393.768 
	L 45.957, 193.500 
" />
<path d="M 49.783, 393.768 
	L 49.783, 193.500 
" />
<path d="M 53.610, 393.768 
	L 53.610, 193.500 
" />
<path d="M 57.437, 393.768 
	L 57.437, 193.500 
" />
<path d="M 61.264, 393.768 
	L 61.264, 193.500 
" />
<path d="M 65.091, 393.768 
	L 65.091, 193.500 
" />
<path d="M 68.917, 393.768 
	L 68.917, 193.500 
" />
<path d="M 72.744, 393.768 
	L 72.744, 193.500 
" />
<path d="M 76.571, 393.768 
	L 76.571, 193.500 
" />
<path d="M 80.398, 393.768 
	L 80.398, 193.500 
" />
<path d="M 84.224, 393.768 
	L 84.224, 193.500 
" />
<path d="M 88.051, 393.768 
	L 88.051, 193.500 
" />
<path d="M 91.878, 393.768 
	L 91.878, 193.500 
" />
<path d="M 95.705, 393.768 
	L 95.705, 193.500 
" />
<path d="M 99.532, 393.768 
	L 99.532, 193.500 
" />
<path d="M 103.358, 393.768 
	L 103.358, 193.500 
" />
<path d="M 107.185, 393.768 
	L 107.185, 193.500 
" />
<path d="M 111.012, 393.768 
	L 111.012, 193.500 
" />
<path d="M 114.839, 393.768 
	L 114.839, 193.500 
" />
<path d="M 118.665, 393.768 
	L 118.665, 193.500 
" />
<path d="M 122.492, 393.768 
	L 122.492, 193.500 
" />
<path d="M 126.319, 393.768 
	L 126.319, 193.500 
" />
<path d="M 130.146, 393.768 
	L 130.146, 193.500 
" />
<path d="M 133.972, 393.768 
	L 133.972, 193.500 
" />
<path d="M 137.799, 393.768 
	L 137.799, 193.500 
" />
<path d="M 141.626, 393.768 
	L 141.626, 193.500 
" />
<path d="M 145.453, 393.768 
	L 145.453, 193.500 
" />
<path d="M 149.280, 393.768 
	L 149.280, 193.500 
" />
<path d="M 153.106, 393.768 
	L 153.106, 193.500 
" />
<path d="M 156.933, 393.768 
	L 156.933, 193.500 
" />
<path d="M 160.760, 393.768 
	L 160.760, 193.500 
" />
<path d="M 164.587, 393.768 
	L 164.587, 193.500 
" />
<path d="M 168.413, 393.768 
	L 168.413, 193.500 
" />
<path d="M 172.240, 393.768 
	L 172.240, 193.500 
" />
<path d="M 176.067, 393.768 
	L 176.067, 193.500 
" />
<path d="M 179.894, 393.768 
	L 179.894, 193.500 
" />
<path d="M 183.721, 393.768 
	L 183.721, 193.500 
" />
<path d="M 187.547, 393.768 
	L 187.547, 193.500 
" />
<path d="M 191.374, 393.768 
	L 191.374, 193.500 
" />
<path d="M 195.201, 393.768 
	L 195.201, 193.500 
" />
<path d="M 199.028, 393.768 
	L 199.028, 193.500 
" />
<path d="M 202.854, 393.768 
	L 202.854, 193.500 
" />
<path d="M 206.681, 393.768 
	L 206.681, 193.500 
" />
<path d="M 210.508, 393.768 
	L 210.508, 193.500 
" />
<path d="M 214.335, 393.768 
	L 214.335, 193.500 
" />
<path d="M 218.161, 393.768 
	L 218.161, 193.500 
" />
<path d="M 221.988, 393.768 
	L 221.988, 193.500 
" />
<path d="M 225.815, 393.768 
	L 225.815, 193.500 
" />
<path d="M 229.642, 393.768 
	L 229.642, 193.500 
" />
<path d="M 233.469, 393.768 
	L 233.469, 193.500 
" />
<path d="M 237.295, 393.768 
	L 237.295, 193.500 
" />
<path d="M 241.122, 393.768 
	L 241.122, 193.500 
" />
<path d="M 244.949, 393.768 
	L 244.949, 193.500 
" />
<path d="M 248.776, 393.768 
	L 248.776, 193.500 
" />
<path d="M 0.000, 198.886 
	L 0.000, 0.035 
	L 279.992, 0.035 
	L 279.992, 198.886 
	L 0.000, 198.886 
" />
<path d="M 0.035, 198.886 
	L 0.035, 0.035 
" />
<path d="M 2.161, 198.886 
	L 2.161, 0.035 
" />
<path d="M 4.287, 198.886 
	L 4.287, 0.035 
" />
<path d="M 6.413, 198.886 
	L 6.413, 0.035 
" />
<path d="M 8.539, 198.886 
	L 8.539, 0.035 
" />
<path d="M 10.665, 198.886 
	L 10.665, 0.035 
" />
<path d="M 12.791, 198.886 
	L 12.791, 0.035 
" />
<path d="M 14.917, 198.886 
	L 14.917, 0.035 
" />
<path d="M 17.043, 198.886 
	L 17.043, 0.035 
" />
<path d="M 19.169, 198.886 
	L 19.169, 0.035 
" />
<path d="M 21.295, 198.886 
	L 21.295, 0.035 
" />
<path d="M 23.421, 198.886 
	L 23.421, 0.035 
" />
<path d="M 25.547, 198.886 
	L 25.547, 0.035 
" />
<path d="M 27.673, 198.886 
	L 27.673, 0.035 
" />
<path d="M 29.799, 198.886 
	L 29.799, 0.035 
" />
<path d="M 31.925, 198.886 
	L 31.925, 0.035 
" />
<path d="M 34.051, 198.886 
	L 34.051, 0.035 
" />
<path d="M 36.177, 198.886 
	L 36.177, 0.035 
" />
<path d="M 38.303, 198.886 
	L 38.303, 0.035 
" />
<path d="M 40.429, 198.886 
	L 40.429, 0.035 
" />
<path d="M 42.555, 198.886 
	L 42.555, 0.035 
" />
<path d="M 44.681, 198.886 
	L 44.681, 0.035 
" />
<path d="M 46.807, 198.886 
	L 46.807, 0.035 
" />
<path d="M 48.933, 198.886 
	L 48.933, 0.035 
" />
<path d="M 51.059, 198.886 
	L 51.059, 0.035 
" />
<path d="M 53.185, 198.886 
	L 53.185, 0.035 
" />
<path d="M 55.311, 198.886 
	L 55.311, 0.035 
" />
<path d="M 57.437, 198.886 
	L 57.437, 0.035 
" />
<path d="M 59.563, 198.886 
	L 59.563, 0.035 
" />
<path d="M 61.689, 198.886 
	L 61.689, 0.035 
" />
<path d="M 63.815, 198.886 
	L 63.815, 0.035 
" />
<path d="M 65.941, 198.886 
	L 65.941, 0.035 
" />
<path d="M 68.067, 198.886 
	L 68.067, 0.035 
" />
<path d="M 70.193, 198.886 
	L 70.193, 0.035 
" />
<path d="M 72.319, 198.886 
	L 72.319, 0.035 
" />
<path d="M 74.445, 198.886 
	L 74.445, 0.035 
" />
<path d="M 76.571, 198.886 
	L 76.571, 0.035 
" />
<path d="M 78.697, 198.886 
	L 78.697, 0.035 
" />
<path d="M 80.823, 198.886 
	L 80.823, 0.035 
" />
<path d="M 82.949, 198.886 
	L 82.949, 0.035 
" />
<path d="M 85.075, 198.886 
	L 85.075, 0.035 
" />
<path d="M 87.201, 198.886 
	L 87.201, 0.035 
" />
<path d="M 89.327, 198.886 
	L 89.327, 0.035 
" />
<path d="M 91.453, 198.886 
	L 91.453, 0.035 
" />
<path d="M 93.579, 198.886 
	L 93.579, 0.035 
" />
<path d="M 95.705, 198.886 
	L 95.705, 0.035 
" />
<path d="M 97.831, 198.886 
	L 97.831, 0.035 
" />
<path d="M 99.957, 198.886 
	L 99.957, 0.035 
" />
<path d="M 102.083, 198.886 
	L 102.083, 0.035 
" />
<path d="M 104.209, 198.886 
	L 104.209, 0.035 
" />
<path d="M 106.335, 198.886 
	L 106.335, 0.035 
" />
<path d="M 108.461, 198.886 
	L 108.461, 0.035 
" />
<path d="M 110.587, 198.886 
	L 110.587, 0.035 
" />
<path d="M 112.713, 198.886 
	L 112.713, 0.035 
" />
<path d="M 114.839, 198.886 
	L 114.839, 0.035 
" />
<path d="M 116.965, 198.886 
	L 116.965, 0.035 
" />
<path d="M 119.091, 198.886 
	L 119.091, 0.035 
" />
<path d="M 121.217, 198.886 
	L 121.217, 0.035 
" />
<path d="M 123.343, 198.886 
	L 123.343, 0.035 
" />
<path d="M 125.469, 198.886 
	L 125.469, 0.035 
" />
<path d="M 127.595, 198.886 
	L 127.595, 0.035 
" />
<path d="M 129.720, 198.886 
	L 129.720, 0.035 
" />
<path d="M 131.846, 198.886 
	L 131.846, 0.035 
" />
<path d="M 133.972, 198.886 
	L 133.972, 0.035 
" />
<path d="M 136.098, 198.886 
	L 136.098, 0.035 
" />
<path d="M 138.224, 198.886 
	L 138.224, 0.035 
" />
<path d="M 140.350, 198.886 
	L 140.350, 0.035 
" />
<path d="M 142.476, 198.886 
	L 142.476, 0.035 
" />
<path d="M 144.602, 198.886 
	L 144.602, 0.035 
" />
<path d="M 146.728, 198.886 
	L 146.728, 0.035 
" />
<path d="M 148.854, 198.886 
	L 148.854, 0.035 
" />
<path d="M 150.980, 198.886 
	L 150.980, 0.035 
" />
<path d="M 153.106, 198.886 
	L 153.106, 0.035 
" />
<path d="M 155.232, 198.886 
	L 155.232, 0.035 
" />
<path d="M 157.358, 198.886 
	L 157.358, 0.035 
" />
<path d="M 159.484, 198.886 
	L 159.484, 0.035 
" />
<path d="M 161.610, 198.886 
	L 161.610, 0.035 
" />
<path d="M 163.736, 198.886 
	L 163.736, 0.035 
" />
<path d="M 165.862, 198.886 
	L 165.862, 0.035 
" />
<path d="M 167.988, 198.886 
	L 167.988, 0.035 
" />
<path d="M 170.114, 198.886 
	L 170.114, 0.035 
" />
<path d="M 172.240, 198.886 
	L 172.240, 0.035 
" />
<path d="M 174.366, 198.886 
	L 174.366, 0.035 
" />
<path d="M 176.492, 198.886 
	L 176.492, 0.035 
" />
<path d="M 178.618, 198.886 
	L 178.618, 0.035 
" />
<path d="M 180.744, 198.886 
	L 180.744, 0.035 
" />
<path d="M 182.870, 198.886 
	L 182.870, 0.035 
" />
<path d="M 184.996, 198.886 
	L 184.996, 0.035 
" />
<path d="M 187.122, 198.886 
	L 187.122, 0.035 
" />
<path d="M 189.248, 198.886 
	L 189.248, 0.035 
" />
<path d="M 191.374, 198.886 
	L 191.374, 0.035 
" />
<path d="M 193.500, 198.886 
	L 193.500, 0.035 
" />
<path d="M 195.626, 198.886 
	L 195.626, 0.035 
" />
<path d="M 197.752, 198.886 
	L 197.752, 0.035 
" />
<path d="M 199.878, 198.886 
	L 199.878, 0.035 
" />
<path d="M 202.004, 198.886 
	L 202.004, 0.035 
" />
<path d="M 204.130, 198.886 
	L 204.130, 0.035 
" />
<path d="M 206.256, 198.886 
	L 206.256, 0.035 
" />
<path d="M 208.382, 198.886 
	L 208.382, 0.035 
" />
<path d="M 210.508, 198.886 
	L 210.508, 0.035 
" />
<path d="M 212.634, 198.886 
	L 212.634, 0.035 
" />
<path d="M 214.760, 198.886 
	L 214.760, 0.035 
" />
<path d="M 216.886, 198.886 
	L 216.886, 0.035 
" />
<path d="M 219.012, 198.886 
	L 219.012, 0.035 
" />
<path d="M 221.138, 198.886 
	L 221.138, 0.035 
" />
<path d="M 223.264, 198.886 
	L 223.264, 0.035 
" />
<path d="M 225.390, 198.886 
	L 225.390, 0.035 
" />
<path d="M 227.516, 198.886 
	L 227.516, 0.035 
" />
<path d="M 229.642, 198.886 
	L 229.642, 0.035 
" />
<path d="M 231.768, 198.886 
	L 231.768, 0.035 
" />
<path d="M 233.894, 198.886 
	L 233.894, 0.035 
" />
<path d="M 236.020, 198.886 
	L 236.020, 0.035 
" />
<path d="M 238.146, 198.886 
	L 238.146, 0.035 
" />
<path d="M 240.272, 198.886 
	L 240.272, 0.035 
" />
<path d="M 242.398, 198.886 
	L 242.398, 0.035 
" />
<path d="M 244.524, 198.886 
	L 244.524, 0.035 
" />
<path d="M 246.650, 198.886 
	L 246.650, 0.035 
" />
<path d="M 248.776, 198.886 
	L 248.776, 0.035 
" />
<path d="M 250.902, 198.886 
	L 250.902, 0.035 
" />
<path d="M 253.028, 198.886 
	L 253.028, 0.035 
" />
<path d="M 255.154, 198.886 
	L 255.154, 0.035 
" />
<path d="M 257.280, 198.886 
	L 257.280, 0.035 
" />
<path d="M 259.406, 198.886 
	L 259.406, 0.035 
" />
<path d="M 261.532, 198.886 
	L 261.532, 0.035 
" />
<path d="M 263.658, 198.886 
	L 263.658, 0.035 
" />
<path d="M 265.784, 198.886 
	L 265.784, 0.035 
" />
<path d="M 267.909, 198.886 
	L 267.909, 0.035 
" />
<path d="M 270.035, 198.886 
	L 270.035, 0.035 
" />
<path d="M 272.161, 198.886 
	L 272.161, 0.035 
" />
<path d="M 274.287, 198.886 
	L 274.287, 0.035 
" />
<path d="M 276.413, 198.886 
	L 276.413, 0.035 
" />
<path d="M 0.035, 783.567 
	L 0.035, 596.410 
	L 269.752, 596.410 
	L 269.752, 783.567 
	L 0.035, 783.567 
" />
<path d="M 0.035, 783.532 
	L 0.035, 596.374 
" />
<path d="M 3.791, 783.532 
	L 3.791, 596.374 
" />
<path d="M 7.547, 783.532 
	L 7.547, 596.374 
" />
<path d="M 11.303, 783.532 
	L 11.303, 596.374 
" />
<path d="M 15.059, 783.532 
	L 15.059, 596.374 
" />
<path d="M 18.815, 783.532 
	L 18.815, 596.374 
" />
<path d="M 22.571, 783.532 
	L 22.571, 596.374 
" />
<path d="M 26.327, 783.532 
	L 26.327, 596.374 
" />
<path d="M 30.083, 783.532 
	L 30.083, 596.374 
" />
<path d="M 33.839, 783.532 
	L 33.839, 596.374 
" />
<path d="M 37.594, 783.532 
	L 37.594, 596.374 
" />
<path d="M 41.350, 783.532 
	L 41.350, 596.374 
" />
<path d="M 45.106, 783.532 
	L 45.106, 596.374 
" />
<path d="M 48.862, 783.532 
	L 48.862, 596.374 
" />
<path d="M 52.618, 783.532 
	L 52.618, 596.374 
" />
<path d="M 56.374, 783.532 
	L 56.374, 596.374 
" />
<path d="M 60.130, 783.532 
	L 60.130, 596.374 
" />
<path d="M 63.886, 783.532 
	L 63.886, 596.374 
" />
<path d="M 67.642, 783.532 
	L 67.642, 596.374 
" />
<path d="M 71.398, 783.532 
	L 71.398, 596.374 
" />
<path d="M 75.154, 783.532 
	L 75.154, 596.374 
" />
<path d="M 78.909, 783.532 
	L 78.909, 596.374 
" />
<path d="M 82.665, 783.532 
	L 82.665, 596.374 
" />
<path d="M 86.421, 783.532 
	L 86.421, 596.374 
" />
<path d="M 90.177, 783.532 
	L 90.177, 596.374 
" />
<path d="M 93.933, 783.532 
	L 93.933, 596.374 
" />
<path d="M 97.689, 783.532 
	L 97.689, 596.374 
" />
<path d="M 101.445, 783.532 
	L 101.445, 596.374 
" />
<path d="M 105.201, 783.532 
	L 105.201, 596.374 
" />
<path d="M 108.957, 783.532 
	L 108.957, 596.374 
" />
<path d="M 112.713, 783.532 
	L 112.713, 596.374 
" />
<path d="M 116.469, 783.532 
	L 116.469, 596.374 
" />
<path d="M 120.224, 783.532 
	L 120.224, 596.374 
" />
<path d="M 123.980, 783.532 
	L 123.980, 596.374 
" />
<path d="M 127.736, 783.532 
	L 127.736, 596.374 
" />
<path d="M 131.492, 783.532 
	L 131.492, 596.374 
" />
<path d="M 135.248, 783.532 
	L 135.248, 596.374 
" />
<path d="M 139.004, 783.532 
	L 139.004, 596.374 
" />
<path d="M 142.760, 783.532 
	L 142.760, 596.374 
" />
<path d="M 146.516, 783.532 
	L 146.516, 596.374 
" />
<path d="M 150.272, 783.532 
	L 150.272, 596.374 
" />
<path d="M 154.028, 783.532 
	L 154.028, 596.374 
" />
<path d="M 157.783, 783.532 
	L 157.783, 596.374 
" />
<path d="M 161.539, 783.532 
	L 161.539, 596.374 
" />
<path d="M 165.295, 783.532 
	L 165.295, 596.374 
" />
<path d="M 169.051, 783.532 
	L 169.051, 596.374 
" />
<path d="M 172.807, 783.532 
	L 172.807, 596.374 
" />
<path d="M 176.563, 783.532 
	L 176.563, 596.374 
" />
<path d="M 180.319, 783.532 
	L 180.319, 596.374 
" />
<path d="M 184.075, 783.532 
	L 184.075, 596.374 
" />
<path d="M 187.831, 783.532 
	L 187.831, 596.374 
" />
<path d="M 191.587, 783.532 
	L 191.587, 596.374 
" />
<path d="M 195.343, 783.532 
	L 195.343, 596.374 
" />
<path d="M 199.098, 783.532 
	L 199.098, 596.374 
" />
<path d="M 202.854, 783.532 
	L 202.854, 596.374 
" />
<path d="M 206.610, 783.532 
	L 206.610, 596.374 
" />
<path d="M 210.366, 783.532 
	L 210.366, 596.374 
" />
<path d="M 214.122, 783.532 
	L 214.122, 596.374 
" />
<path d="M 217.878, 783.532 
	L 217.878, 596.374 
" />
<path d="M 221.634, 783.532 
	L 221.634, 596.374 
" />
<path d="M 225.390, 783.532 
	L 225.390, 596.374 
" />
<path d="M 229.146, 783.532 
	L 229.146, 596.374 
" />
<path d="M 232.902, 783.532 
	L 232.902, 596.374 
" />
<path d="M 236.658, 783.532 
	L 236.658, 596.374 
" />
<path d="M 240.413, 783.532 
	L 240.413, 596.374 
" />
<path d="M 244.169, 783.532 
	L 244.169, 596.374 
" />
<path d="M 247.925, 783.532 
	L 247.925, 596.374 
" />
<path d="M 251.681, 783.532 
	L 251.681, 596.374 
" />
<path d="M 255.437, 783.532 
	L 255.437, 596.374 
" />
<path d="M 259.193, 783.532 
	L 259.193, 596.374 
" />
<path d="M 262.949, 783.532 
	L 262.949, 596.374 
" />
<path d="M 0.000, 588.685 
	L 0.000, 388.205 
	L 255.898, 388.205 
	L 255.898, 588.685 
	L 0.000, 588.685 
" />
<path d="M 0.035, 588.650 
	L 0.035, 388.169 
" />
<path d="M 1.311, 588.650 
	L 1.311, 388.169 
" />
<path d="M 2.587, 588.650 
	L 2.587, 388.169 
" />
<path d="M 3.862, 588.650 
	L 3.862, 388.169 
" />
<path d="M 5.138, 588.650 
	L 5.138, 388.169 
" />
<path d="M 6.413, 588.650 
	L 6.413, 388.169 
" />
<path d="M 7.689, 588.650 
	L 7.689, 388.169 
" />
<path d="M 8.965, 588.650 
	L 8.965, 388.169 
" />
<path d="M 10.240, 588.650 
	L 10.240, 388.169 
" />
<path d="M 11.516, 588.650 
	L 11.516, 388.169 
" />
<path d="M 12.791, 588.650 
	L 12.791, 388.169 
" />
<path d="M 14.067, 588.650 
	L 14.067, 388.169 
" />
<path d="M 15.343, 588.650 
	L 15.343, 388.169 
" />
<path d="M 16.618, 588.650 
	L 16.618, 388.169 
" />
<path d="M 17.894, 588.650 
	L 17.894, 388.169 
" />
<path d="M 19.169, 588.650 
	L 19.169, 388.169 
" />
<path d="M 20.445, 588.650 
	L 20.445, 388.169 
" />
<path d="M 21.720, 588.650 
	L 21.720, 388.169 
" />
<path d="M 22.996, 588.650 
	L 22.996, 388.169 
" />
<path d="M 24.272, 588.650 
	L 24.272, 388.169 
" />
<path d="M 25.547, 588.650 
	L 25.547, 388.169 
" />
<path d="M 26.823, 588.650 
	L 26.823, 388.169 
" />
<path d="M 28.098, 588.650 
	L 28.098, 388.169 
" />
<path d="M 29.374, 588.650 
	L 29.374, 388.169 
" />
<path d="M 30.650, 588.650 
	L 30.650, 388.169 
" />
<path d="M 31.925, 588.650 
	L 31.925, 388.169 
" />
<path d="M 33.201, 588.650 
	L 33.201, 388.169 
" />
<path d="M 34.476, 588.650 
	L 34.476, 388.169 
" />
<path d="M 35.752, 588.650 
	L 35.752, 388.169 
" />
<path d="M 37.028, 588.650 
	L 37.028, 388.169 
" />
<path d="M 38.303, 588.650 
	L 38.303, 388.169 
" />
<path d="M 39.579, 588.650 
	L 39.579, 388.169 
" />
<path d="M 40.854, 588.650 
	L 40.854, 388.169 
" />
<path d="M 42.130, 588.650 
	L 42.130, 388.169 
" />
<path d="M 43.406, 588.650 
	L 43.406, 388.169 
" />
<path d="M 44.681, 588.650 
	L 44.681, 388.169 
" />
<path d="M 45.957, 588.650 
	L 45.957, 388.169 
" />
<path d="M 47.232, 588.650 
	L 47.232, 388.169 
" />
<path d="M 48.508, 588.650 
	L 48.508, 388.169 
" />
<path d="M 49.783, 588.650 
	L 49.783, 388.169 
" />
<path d="M 51.059, 588.650 
	L 51.059, 388.169 
" />
<path d="M 52.335, 588.650 
	L 52.335, 388.169 
" />
<path d="M 53.610, 588.650 
	L 53.610, 388.169 
" />
<path d="M 54.886, 588.650 
	L 54.886, 388.169 
" />
<path d="M 56.161, 588.650 
	L 56.161, 388.169 
" />
<path d="M 57.437, 588.650 
	L 57.437, 388.169 
" />
<path d="M 58.713, 588.650 
	L 58.713, 388.169 
" />
<path d="M 59.988, 588.650 
	L 59.988, 388.169 
" />
<path d="M 61.264, 588.650 
	L 61.264, 388.169 
" />
<path d="M 62.539, 588.650 
	L 62.539, 388.169 
" />
<path d="M 63.815, 588.650 
	L 63.815, 388.169 
" />
<path d="M 65.091, 588.650 
	L 65.091, 388.169 
" />
<path d="M 66.366, 588.650 
	L 66.366, 388.169 
" />
<path d="M 67.642, 588.650 
	L 67.642, 388.169 
" />
<path d="M 68.917, 588.650 
	L 68.917, 388.169 
" />
<path d="M 70.193, 588.650 
	L 70.193, 388.169 
" />
<path d="M 71.469, 588.650 
	L 71.469, 388.169 
" />
<path d="M 72.744, 588.650 
	L 72.744, 388.169 
" />
<path d="M 74.020, 588.650 
	L 74.020, 388.169 
" />
<path d="M 75.295, 588.650 
	L 75.295, 388.169 
" />
<path d="M 76.571, 588.650 
	L 76.571, 388.169 
" />
<path d="M 77.846, 588.650 
	L 77.846, 388.169 
" />
<path d="M 79.122, 588.650 
	L 79.122, 388.169 
" />
<path d="M 80.398, 588.650 
	L 80.398, 388.169 
" />
<path d="M 81.673, 588.650 
	L 81.673, 388.169 
" />
<path d="M 82.949, 588.650 
	L 82.949, 388.169 
" />
<path d="M 84.224, 588.650 
	L 84.224, 388.169 
" />
<path d="M 85.500, 588.650 
	L 85.500, 388.169 
" />
<path d="M 86.776, 588.650 
	L 86.776, 388.169 
" />
<path d="M 88.051, 588.650 
	L 88.051, 388.169 
" />
<path d="M 89.327, 588.650 
	L 89.327, 388.169 
" />
<path d="M 90.602, 588.650 
	L 90.602, 388.169 
" />
<path d="M 91.878, 588.650 
	L 91.878, 388.169 
" />
<path d="M 93.154, 588.650 
	L 93.154, 388.169 
" />
<path d="M 94.429, 588.650 
	L 94.429, 388.169 
" />
<path d="M 95.705, 588.650 
	L 95.705, 388.169 
" />
<path d="M 96.980, 588.650 
	L 96.980, 388.169 
" />
<path d="M 98.256, 588.650 
	L 98.256, 388.169 
" />
<path d="M 99.532, 588.650 
	L 99.532, 388.169 
" />
<path d="M 100.807, 588.650 
	L 100.807, 388.169 
" />
<path d="M 102.083, 588.650 
	L 102.083, 388.169 
" />
<path d="M 103.358, 588.650 
	L 103.358, 388.169 
" />
<path d="M 104.634, 588.650 
	L 104.634, 388.169 
" />
<path d="M 105.909, 588.650 
	L 105.909, 388.169 
" />
<path d="M 107.185, 588.650 
	L 107.185, 388.169 
" />
<path d="M 108.461, 588.650 
	L 108.461, 388.169 
" />
<path d="M 109.736, 588.650 
	L 109.736, 388.169 
" />
<path d="M 111.012, 588.650 
	L 111.012, 388.169 
" />
<path d="M 112.287, 588.650 
	L 112.287, 388.169 
" />
<path d="M 113.563, 588.650 
	L 113.563, 388.169 
" />
<path d="M 114.839, 588.650 
	L 114.839, 388.169 
" />
<path d="M 116.114, 588.650 
	L 116.114, 388.169 
" />
<path d="M 117.390, 588.650 
	L 117.390, 388.169 
" />
<path d="M 118.665, 588.650 
	L 118.665, 388.169 
" />
<path d="M 119.941, 588.650 
	L 119.941, 388.169 
" />
<path d="M 121.217, 588.650 
	L 121.217, 388.169 
" />
<path d="M 122.492, 588.650 
	L 122.492, 388.169 
" />
<path d="M 123.768, 588.650 
	L 123.768, 388.169 
" />
<path d="M 125.043, 588.650 
	L 125.043, 388.169 
" />
<path d="M 126.319, 588.650 
	L 126.319, 388.169 
" />
<path d="M 127.595, 588.650 
	L 127.595, 388.169 
" />
<path d="M 128.870, 588.650 
	L 128.870, 388.169 
" />
<path d="M 130.146, 588.650 
	L 130.146, 388.169 
" />
<path d="M 131.421, 588.650 
	L 131.421, 388.169 
" />
<path d="M 132.697, 588.650 
	L 132.697, 388.169 
" />
<path d="M 133.972, 588.650 
	L 133.972, 388.169 
" />
<path d="M 135.248, 588.650 
	L 135.248, 388.169 
" />
<path d="M 136.524, 588.650 
	L 136.524, 388.169 
" />
<path d="M 137.799, 588.650 
	L 137.799, 388.169 
" />
<path d="M 139.075, 588.650 
	L 139.075, 388.169 
" />
<path d="M 140.350, 588.650 
	L 140.350, 388.169 
" />
<path d="M 141.626, 588.650 
	L 141.626, 388.169 
" />
<path d="M 142.902, 588.650 
	L 142.902, 388.169 
" />
<path d="M 144.177, 588.650 
	L 144.177, 388.169 
" />
<path d="M 145.453, 588.650 
	L 145.453, 388.169 
" />
<path d="M 146.728, 588.650 
	L 146.728, 388.169 
" />
<path d="M 148.004, 588.650 
	L 148.004, 388.169 
" />
<path d="M 149.280, 588.650 
	L 149.280, 388.169 
" />
<path d="M 150.555, 588.650 
	L 150.555, 388.169 
" />
<path d="M 151.831, 588.650 
	L 151.831, 388.169 
" />
<path d="M 153.106, 588.650 
	L 153.106, 388.169 
" />
<path d="M 154.382, 588.650 
	L 154.382, 388.169 
" />
<path d="M 155.658, 588.650 
	L 155.658, 388.169 
" />
<path d="M 156.933, 588.650 
	L 156.933, 388.169 
" />
<path d="M 158.209, 588.650 
	L 158.209, 388.169 
" />
<path d="M 159.484, 588.650 
	L 159.484, 388.169 
" />
<path d="M 160.760, 588.650 
	L 160.760, 388.169 
" />
<path d="M 162.035, 588.650 
	L 162.035, 388.169 
" />
<path d="M 163.311, 588.650 
	L 163.311, 388.169 
" />
<path d="M 164.587, 588.650 
	L 164.587, 388.169 
" />
<path d="M 165.862, 588.650 
	L 165.862, 388.169 
" />
<path d="M 167.138, 588.650 
	L 167.138, 388.169 
" />
<path d="M 168.413, 588.650 
	L 168.413, 388.169 
" />
<path d="M 169.689, 588.650 
	L 169.689, 388.169 
" />
<path d="M 170.965, 588.650 
	L 170.965, 388.169 
" />
<path d="M 172.240, 588.650 
	L 172.240, 388.169 
" />
<path d="M 173.516, 588.650 
	L 173.516, 388.169 
" />
<path d="M 174.791, 588.650 
	L 174.791, 388.169 
" />
<path d="M 176.067, 588.650 
	L 176.067, 388.169 
" />
<path d="M 177.343, 588.650 
	L 177.343, 388.169 
" />
<path d="M 178.618, 588.650 
	L 178.618, 388.169 
" />
<path d="M 179.894, 588.650 
	L 179.894, 388.169 
" />
<path d="M 181.169, 588.650 
	L 181.169, 388.169 
" />
<path d="M 182.445, 588.650 
	L 182.445, 388.169 
" />
<path d="M 183.721, 588.650 
	L 183.721, 388.169 
" />
<path d="M 184.996, 588.650 
	L 184.996, 388.169 
" />
<path d="M 186.272, 588.650 
	L 186.272, 388.169 
" />
<path d="M 187.547, 588.650 
	L 187.547, 388.169 
" />
<path d="M 188.823, 588.650 
	L 188.823, 388.169 
" />
<path d="M 190.098, 588.650 
	L 190.098, 388.169 
" />
<path d="M 191.374, 588.650 
	L 191.374, 388.169 
" />
<path d="M 192.650, 588.650 
	L 192.650, 388.169 
" />
<path d="M 193.925, 588.650 
	L 193.925, 388.169 
" />
<path d="M 195.201, 588.650 
	L 195.201, 388.169 
" />
<path d="M 196.476, 588.650 
	L 196.476, 388.169 
" />
<path d="M 197.752, 588.650 
	L 197.752, 388.169 
" />
<path d="M 199.028, 588.650 
	L 199.028, 388.169 
" />
<path d="M 200.303, 588.650 
	L 200.303, 388.169 
" />
<path d="M 201.579, 588.650 
	L 201.579, 388.169 
" />
<path d="M 202.854, 588.650 
	L 202.854, 388.169 
" />
<path d="M 204.130, 588.650 
	L 204.130, 388.169 
" />
<path d="M 205.406, 588.650 
	L 205.406, 388.169 
" />
<path d="M 206.681, 588.650 
	L 206.681, 388.169 
" />
<path d="M 207.957, 588.650 
	L 207.957, 388.169 
" />
<path d="M 209.232, 588.650 
	L 209.232, 388.169 
" />
<path d="M 210.508, 588.650 
	L 210.508, 388.169 
" />
<path d="M 211.783, 588.650 
	L 211.783, 388.169 
" />
<path d="M 213.059, 588.650 
	L 213.059, 388.169 
" />
<path d="M 214.335, 588.650 
	L 214.335, 388.169 
" />
<path d="M 215.610, 588.650 
	L 215.610, 388.169 
" />
<path d="M 216.886, 588.650 
	L 216.886, 388.169 
" />
<path d="M 218.161, 588.650 
	L 218.161, 388.169 
" />
<path d="M 219.437, 588.650 
	L 219.437, 388.169 
" />
<path d="M 220.713, 588.650 
	L 220.713, 388.169 
" />
<path d="M 221.988, 588.650 
	L 221.988, 388.169 
" />
<path d="M 223.264, 588.650 
	L 223.264, 388.169 
" />
<path d="M 224.539, 588.650 
	L 224.539, 388.169 
" />
<path d="M 225.815, 588.650 
	L 225.815, 388.169 
" />
<path d="M 227.091, 588.650 
	L 227.091, 388.169 
" />
<path d="M 228.366, 588.650 
	L 228.366, 388.169 
" />
<path d="M 229.642, 588.650 
	L 229.642, 388.169 
" />
<path d="M 230.917, 588.650 
	L 230.917, 388.169 
" />
<path d="M 232.193, 588.650 
	L 232.193, 388.169 
" />
<path d="M 233.469, 588.650 
	L 233.469, 388.169 
" />
<path d="M 234.744, 588.650 
	L 234.744, 388.169 
" />
<path d="M 236.020, 588.650 
	L 236.020, 388.169 
" />
<path d="M 237.295, 588.650 
	L 237.295, 388.169 
" />
<path d="M 238.571, 588.650 
	L 238.571, 388.169 
" />
<path d="M 239.846, 588.650 
	L 239.846, 388.169 
" />
<path d="M 241.122, 588.650 
	L 241.122, 388.169 
" />
<path d="M 242.398, 588.650 
	L 242.398, 388.169 
" />
<path d="M 243.673, 588.650 
	L 243.673, 388.169 
" />
<path d="M 244.949, 588.650 
	L 244.949, 388.169 
" />
<path d="M 246.224, 588.650 
	L 246.224, 388.169 
" />
<path d="M 247.500, 588.650 
	L 247.500, 388.169 
" />
<path d="M 248.776, 588.650 
	L 248.776, 388.169 
" />
<path d="M 250.051, 588.650 
	L 250.051, 388.169 
" />
<path d="M 251.327, 588.650 
	L 251.327, 388.169 
" />
<path d="M 252.602, 588.650 
	L 252.602, 388.169 
" />
<path d="M 253.878, 588.650 
	L 253.878, 388.169 
" />
<path d="M 0.035, 393.803 
	L 0.035, 192.047 
	L 270.744, 192.047 
	L 270.744, 393.803 
	L 0.035, 393.803 
" />
<path d="M 0.035, 393.768 
	L 0.035, 192.012 
" />
<path d="M 3.295, 393.768 
	L 3.295, 192.012 
" />
<path d="M 6.555, 393.768 
	L 6.555, 192.012 
" />
<path d="M 9.815, 393.768 
	L 9.815, 192.012 
" />
<path d="M 13.075, 393.768 
	L 13.075, 192.012 
" />
<path d="M 16.335, 393.768 
	L 16.335, 192.012 
" />
<path d="M 19.594, 393.768 
	L 19.594, 192.012 
" />
<path d="M 22.854, 393.768 
	L 22.854, 192.012 
" />
<path d="M 26.114, 393.768 
	L 26.114, 192.012 
" />
<path d="M 29.374, 393.768 
	L 29.374, 192.012 
" />
<path d="M 32.634, 393.768 
	L 32.634, 192.012 
" />
<path d="M 35.894, 393.768 
	L 35.894, 192.012 
" />
<path d="M 39.154, 393.768 
	L 39.154, 192.012 
" />
<path d="M 42.413, 393.768 
	L 42.413, 192.012 
" />
<path d="M 45.673, 393.768 
	L 45.673, 192.012 
" />
<path d="M 48.933, 393.768 
	L 48.933, 192.012 
" />
<path d="M 52.193, 393.768 
	L 52.193, 192.012 
" />
<path d="M 55.453, 393.768 
	L 55.453, 192.012 
" />
<path d="M 58.713, 393.768 
	L 58.713, 192.012 
" />
<path d="M 61.972, 393.768 
	L 61.972, 192.012 
" />
<path d="M 65.232, 393.768 
	L 65.232, 192.012 
" />
<path d="M 68.492, 393.768 
	L 68.492, 192.012 
" />
<path d="M 71.752, 393.768 
	L 71.752, 192.012 
" />
<path d="M 75.012, 393.768 
	L 75.012, 192.012 
" />
<path d="M 78.272, 393.768 
	L 78.272, 192.012 
" />
<path d="M 81.532, 393.768 
	L 81.532, 192.012 
" />
<path d="M 84.791, 393.768 
	L 84.791, 192.012 
" />
<path d="M 88.051, 393.768 
	L 88.051, 192.012 
" />
<path d="M 91.311, 393.768 
	L 91.311, 192.012 
" />
<path d="M 94.571, 393.768 
	L 94.571, 192.012 
" />
<path d="M 97.831, 393.768 
	L 97.831, 192.012 
" />
<path d="M 101.091, 393.768 
	L 101.091, 192.012 
" />
<path d="M 104.350, 393.768 
	L 104.350, 192.012 
" />
<path d="M 107.610, 393.768 
	L 107.610, 192.012 
" />
<path d="M 110.870, 393.768 
	L 110.870, 192.012 
" />
<path d="M 114.130, 393.768 
	L 114.130, 192.012 
" />
<path d="M 117.390, 393.768 
	L 117.390, 192.012 
" />
<path d="M 120.650, 393.768 
	L 120.650, 192.012 
" />
<path d="M 123.909, 393.768 
	L 123.909, 192.012 
" />
<path d="M 127.169, 393.768 
	L 127.169, 192.012 
" />
<path d="M 130.429, 393.768 
	L 130.429, 192.012 
" />
<path d="M 133.689, 393.768 
	L 133.689, 192.012 
" />
<path d="M 136.949, 393.768 
	L 136.949, 192.012 
" />
<path d="M 140.209, 393.768 
	L 140.209, 192.012 
" />
<path d="M 143.469, 393.768 
	L 143.469, 192.012 
" />
<path d="M 146.728, 393.768 
	L 146.728, 192.012 
" />
<path d="M 149.988, 393.768 
	L 149.988, 192.012 
" />
<path d="M 153.248, 393.768 
	L 153.248, 192.012 
" />
<path d="M 156.508, 393.768 
	L 156.508, 192.012 
" />
<path d="M 159.768, 393.768 
	L 159.768, 192.012 
" />
<path d="M 163.028, 393.768 
	L 163.028, 192.012 
" />
<path d="M 166.287, 393.768 
	L 166.287, 192.012 
" />
<path d="M 169.547, 393.768 
	L 169.547, 192.012 
" />
<path d="M 172.807, 393.768 
	L 172.807, 192.012 
" />
<path d="M 176.067, 393.768 
	L 176.067, 192.012 
" />
<path d="M 179.327, 393.768 
	L 179.327, 192.012 
" />
<path d="M 182.587, 393.768 
	L 182.587, 192.012 
" />
<path d="M 185.846, 393.768 
	L 185.846, 192.012 
" />
<path d="M 189.106, 393.768 
	L 189.106, 192.012 
" />
<path d="M 192.366, 393.768 
	L 192.366, 192.012 
" />
<path d="M 195.626, 393.768 
	L 195.626, 192.012 
" />
<path d="M 198.886, 393.768 
	L 198.886, 192.012 
" />
<path d="M 202.146, 393.768 
	L 202.146, 192.012 
" />
<path d="M 205.406, 393.768 
	L 205.406, 192.012 
" />
<path d="M 208.665, 393.768 
	L 208.665, 192.012 
" />
<path d="M 211.925, 393.768 
	L 211.925, 192.012 
" />
<path d="M 215.185, 393.768 
	L 215.185, 192.012 
" />
<path d="M 218.445, 393.768 
	L 218.445, 192.012 
" />
<path d="M 221.705, 393.768 
	L 221.705, 192.012 
" />
<path d="M 224.965, 393.768 
	L 224.965, 192.012 
" />
<path d="M 228.224, 393.768 
	L 228.224, 192.012 
" />
<path d="M 231.484, 393.768 
	L 231.484, 192.012 
" />
<path d="M 234.744, 393.768 
	L 234.744, 192.012 
" />
<path d="M 238.004, 393.768 
	L 238.004, 192.012 
" />
<path d="M 241.264, 393.768 
	L 241.264, 192.012 
" />
<path d="M 244.524, 393.768 
	L 244.524, 192.012 
" />
<path d="M 247.784, 393.768 
	L 247.784, 192.012 
" />
<path d="M 251.043, 393.768 
	L 251.043, 192.012 
" />
<path d="M 254.303, 393.768 
	L 254.303, 192.012 
" />
<path d="M 257.563, 393.768 
	L 257.563, 192.012 
" />
<path d="M 260.823, 393.768 
	L 260.823, 192.012 
" />
<path d="M 264.083, 393.768 
	L 264.083, 192.012 
" />
<path d="M 267.343, 393.768 
	L 267.343, 192.012 
" />
<path d="M 265.748, 198.886 
	L 265.748, 3.012 
	L 546.307, 3.012 
	L 546.307, 198.886 
	L 265.748, 198.886 
" />
<path d="M 265.784, 198.886 
	L 265.784, 3.012 
" />
<path d="M 269.327, 198.886 
	L 269.327, 3.012 
" />
<path d="M 272.870, 198.886 
	L 272.870, 3.012 
" />
<path d="M 276.413, 198.886 
	L 276.413, 3.012 
" />
<path d="M 279.957, 198.886 
	L 279.957, 3.012 
" />
<path d="M 283.500, 198.886 
	L 283.500, 3.012 
" />
<path d="M 287.043, 198.886 
	L 287.043, 3.012 
" />
<path d="M 290.587, 198.886 
	L 290.587, 3.012 
" />
<path d="M 294.130, 198.886 
	L 294.130, 3.012 
" />
<path d="M 297.673, 198.886 
	L 297.673, 3.012 
" />
<path d="M 301.217, 198.886 
	L 301.217, 3.012 
" />
<path d="M 304.760, 198.886 
	L 304.760, 3.012 
" />
<path d="M 308.303, 198.886 
	L 308.303, 3.012 
" />
<path d="M 311.847, 198.886 
	L 311.847, 3.012 
" />
<path d="M 315.390, 198.886 
	L 315.390, 3.012 
" />
<path d="M 318.933, 198.886 
	L 318.933, 3.012 
" />
<path d="M 322.476, 198.886 
	L 322.476, 3.012 
" />
<path d="M 326.020, 198.886 
	L 326.020, 3.012 
" />
<path d="M 329.563, 198.886 
	L 329.563, 3.012 
" />
<path d="M 333.106, 198.886 
	L 333.106, 3.012 
" />
<path d="M 336.650, 198.886 
	L 336.650, 3.012 
" />
<path d="M 340.193, 198.886 
	L 340.193, 3.012 
" />
<path d="M 343.736, 198.886 
	L 343.736, 3.012 
" />
<path d="M 347.280, 198.886 
	L 347.280, 3.012 
" />
<path d="M 350.823, 198.886 
	L 350.823, 3.012 
" />
<path d="M 354.366, 198.886 
	L 354.366, 3.012 
" />
<path d="M 357.910, 198.886 
	L 357.910, 3.012 
" />
<path d="M 361.453, 198.886 
	L 361.453, 3.012 
" />
<path d="M 364.996, 198.886 
	L 364.996, 3.012 
" />
<path d="M 368.539, 198.886 
	L 368.539, 3.012 
" />
<path d="M 372.083, 198.886 
	L 372.083, 3.012 
" />
<path d="M 375.626, 198.886 
	L 375.626, 3.012 
" />
<path d="M 379.169, 198.886 
	L 379.169, 3.012 
" />
<path d="M 382.713, 198.886 
	L 382.713, 3.012 
" />
<path d="M 386.256, 198.886 
	L 386.256, 3.012 
" />
<path d="M 389.799, 198.886 
	L 389.799, 3.012 
" />
<path d="M 393.343, 198.886 
	L 393.343, 3.012 
" />
<path d="M 396.886, 198.886 
	L 396.886, 3.012 
" />
<path d="M 400.429, 198.886 
	L 400.429, 3.012 
" />
<path d="M 403.973, 198.886 
	L 403.973, 3.012 
" />
<path d="M 407.516, 198.886 
	L 407.516, 3.012 
" />
<path d="M 411.059, 198.886 
	L 411.059, 3.012 
" />
<path d="M 414.602, 198.886 
	L 414.602, 3.012 
" />
<path d="M 418.146, 198.886 
	L 418.146, 3.012 
" />
<path d="M 421.689, 198.886 
	L 421.689, 3.012 
" />
<path d="M 425.232, 198.886 
	L 425.232, 3.012 
" />
<path d="M 428.776, 198.886 
	L 428.776, 3.012 
" />
<path d="M 432.319, 198.886 
	L 432.319, 3.012 
" />
<path d="M 435.862, 198.886 
	L 435.862, 3.012 
" />
<path d="M 439.406, 198.886 
	L 439.406, 3.012 
" />
<path d="M 442.949, 198.886 
	L 442.949, 3.012 
" />
<path d="M 446.492, 198.886 
	L 446.492, 3.012 
" />
<path d="M 450.036, 198.886 
	L 450.036, 3.012 
" />
<path d="M 453.579, 198.886 
	L 453.579, 3.012 
" />
<path d="M 457.122, 198.886 
	L 457.122, 3.012 
" />
<path d="M 460.665, 198.886 
	L 460.665, 3.012 
" />
<path d="M 464.209, 198.886 
	L 464.209, 3.012 
" />
<path d="M 467.752, 198.886 
	L 467.752, 3.012 
" />
<path d="M 471.295, 198.886 
	L 471.295, 3.012 
" />
<path d="M 474.839, 198.886 
	L 474.839, 3.012 
" />
<path d="M 478.382, 198.886 
	L 478.382, 3.012 
" />
<path d="M 481.925, 198.886 
	L 481.925, 3.012 
" />
<path d="M 485.469, 198.886 
	L 485.469, 3.012 
" />
<path d="M 489.012, 198.886 
	L 489.012, 3.012 
" />
<path d="M 492.555, 198.886 
	L 492.555, 3.012 
" />
<path d="M 496.099, 198.886 
	L 496.099, 3.012 
" />
<path d="M 499.642, 198.886 
	L 499.642, 3.012 
" />
<path d="M 503.185, 198.886 
	L 503.185, 3.012 
" />
<path d="M 506.728, 198.886 
	L 506.728, 3.012 
" />
<path d="M 510.272, 198.886 
	L 510.272, 3.012 
" />
<path d="M 513.815, 198.886 
	L 513.815, 3.012 
" />
<path d="M 517.358, 198.886 
	L 517.358, 3.012 
" />
<path d="M 520.902, 198.886 
	L 520.902, 3.012 
" />
<path d="M 524.445, 198.886 
	L 524.445, 3.012 
" />
<path d="M 527.988, 198.886 
	L 527.988, 3.012 
" />
<path d="M 531.532, 198.886 
	L 531.532, 3.012 
" />
<path d="M 535.075, 198.886 
	L 535.075, 3.012 
" />
<path d="M 538.618, 198.886 
	L 538.618, 3.012 
" />
<path d="M 542.162, 198.886 
	L 542.162, 3.012 
" />
<path d="M 265.784, 783.532 
	L 265.784, 587.799 
	L 529.689, 587.799 
	L 529.689, 783.532 
	L 265.784, 783.532 
" />
<path d="M 265.784, 783.532 
	L 265.784, 587.799 
" />
<path d="M 266.634, 783.532 
	L 266.634, 587.799 
" />
<path d="M 267.484, 783.532 
	L 267.484, 587.799 
" />
<path d="M 268.335, 783.532 
	L 268.335, 587.799 
" />
<path d="M 269.185, 783.532 
	L 269.185, 587.799 
" />
<path d="M 270.035, 783.532 
	L 270.035, 587.799 
" />
<path d="M 270.886, 783.532 
	L 270.886, 587.799 
" />
<path d="M 271.736, 783.532 
	L 271.736, 587.799 
" />
<path d="M 272.587, 783.532 
	L 272.587, 587.799 
" />
<path d="M 273.437, 783.532 
	L 273.437, 587.799 
" />
<path d="M 274.287, 783.532 
	L 274.287, 587.799 
" />
<path d="M 275.138, 783.532 
	L 275.138, 587.799 
" />
<path d="M 275.988, 783.532 
	L 275.988, 587.799 
" />
<path d="M 276.839, 783.532 
	L 276.839, 587.799 
" />
<path d="M 277.689, 783.532 
	L 277.689, 587.799 
" />
<path d="M 278.539, 783.532 
	L 278.539, 587.799 
" />
<path d="M 279.390, 783.532 
	L 279.390, 587.799 
" />
<path d="M 280.240, 783.532 
	L 280.240, 587.799 
" />
<path d="M 281.091, 783.532 
	L 281.091, 587.799 
" />
<path d="M 281.941, 783.532 
	L 281.941, 587.799 
" />
<path d="M 282.791, 783.532 
	L 282.791, 587.799 
" />
<path d="M 283.642, 783.532 
	L 283.642, 587.799 
" />
<path d="M 284.492, 783.532 
	L 284.492, 587.799 
" />
<path d="M 285.343, 783.532 
	L 285.343, 587.799 
" />
<path d="M 286.193, 783.532 
	L 286.193, 587.799 
" />
<path d="M 287.043, 783.532 
	L 287.043, 587.799 
" />
<path d="M 287.894, 783.532 
	L 287.894, 587.799 
" />
<path d="M 288.744, 783.532 
	L 288.744, 587.799 
" />
<path d="M 289.595, 783.532 
	L 289.595, 587.799 
" />
<path d="M 290.445, 783.532 
	L 290.445, 587.799 
" />
<path d="M 291.295, 783.532 
	L 291.295, 587.799 
" />
<path d="M 292.146, 783.532 
	L 292.146, 587.799 
" />
<path d="M 292.996, 783.532 
	L 292.996, 587.799 
" />
<path d="M 293.847, 783.532 
	L 293.847, 587.799 
" />
<path d="M 294.697, 783.532 
	L 294.697, 587.799 
" />
<path d="M 295.547, 783.532 
	L 295.547, 587.799 
" />
<path d="M 296.398, 783.532 
	L 296.398, 587.799 
" />
<path d="M 297.248, 783.532 
	L 297.248, 587.799 
" />
<path d="M 298.098, 783.532 
	L 298.098, 587.799 
" />
<path d="M 298.949, 783.532 
	L 298.949, 587.799 
" />
<path d="M 299.799, 783.532 
	L 299.799, 587.799 
" />
<path d="M 300.650, 783.532 
	L 300.650, 587.799 
" />
<path d="M 301.500, 783.532 
	L 301.500, 587.799 
" />
<path d="M 302.350, 783.532 
	L 302.350, 587.799 
" />
<path d="M 303.201, 783.532 
	L 303.201, 587.799 
" />
<path d="M 304.051, 783.532 
	L 304.051, 587.799 
" />
<path d="M 304.902, 783.532 
	L 304.902, 587.799 
" />
<path d="M 305.752, 783.532 
	L 305.752, 587.799 
" />
<path d="M 306.602, 783.532 
	L 306.602, 587.799 
" />
<path d="M 307.453, 783.532 
	L 307.453, 587.799 
" />
<path d="M 308.303, 783.532 
	L 308.303, 587.799 
" />
<path d="M 309.154, 783.532 
	L 309.154, 587.799 
" />
<path d="M 310.004, 783.532 
	L 310.004, 587.799 
" />
<path d="M 310.854, 783.532 
	L 310.854, 587.799 
" />
<path d="M 311.705, 783.532 
	L 311.705, 587.799 
" />
<path d="M 312.555, 783.532 
	L 312.555, 587.799 
" />
<path d="M 313.406, 783.532 
	L 313.406, 587.799 
" />
<path d="M 314.256, 783.532 
	L 314.256, 587.799 
" />
<path d="M 315.106, 783.532 
	L 315.106, 587.799 
" />
<path d="M 315.957, 783.532 
	L 315.957, 587.799 
" />
<path d="M 316.807, 783.532 
	L 316.807, 587.799 
" />
<path d="M 317.658, 783.532 
	L 317.658, 587.799 
" />
<path d="M 318.508, 783.532 
	L 318.508, 587.799 
" />
<path d="M 319.358, 783.532 
	L 319.358, 587.799 
" />
<path d="M 320.209, 783.532 
	L 320.209, 587.799 
" />
<path d="M 321.059, 783.532 
	L 321.059, 587.799 
" />
<path d="M 321.909, 783.532 
	L 321.909, 587.799 
" />
<path d="M 322.760, 783.532 
	L 322.760, 587.799 
" />
<path d="M 323.610, 783.532 
	L 323.610, 587.799 
" />
<path d="M 324.461, 783.532 
	L 324.461, 587.799 
" />
<path d="M 325.311, 783.532 
	L 325.311, 587.799 
" />
<path d="M 326.161, 783.532 
	L 326.161, 587.799 
" />
<path d="M 327.012, 783.532 
	L 327.012, 587.799 
" />
<path d="M 327.862, 783.532 
	L 327.862, 587.799 
" />
<path d="M 328.713, 783.532 
	L 328.713, 587.799 
" />
<path d="M 329.563, 783.532 
	L 329.563, 587.799 
" />
<path d="M 330.413, 783.532 
	L 330.413, 587.799 
" />
<path d="M 331.264, 783.532 
	L 331.264, 587.799 
" />
<path d="M 332.114, 783.532 
	L 332.114, 587.799 
" />
<path d="M 332.965, 783.532 
	L 332.965, 587.799 
" />
<path d="M 333.815, 783.532 
	L 333.815, 587.799 
" />
<path d="M 334.665, 783.532 
	L 334.665, 587.799 
" />
<path d="M 335.516, 783.532 
	L 335.516, 587.799 
" />
<path d="M 336.366, 783.532 
	L 336.366, 587.799 
" />
<path d="M 337.217, 783.532 
	L 337.217, 587.799 
" />
<path d="M 338.067, 783.532 
	L 338.067, 587.799 
" />
<path d="M 338.917, 783.532 
	L 338.917, 587.799 
" />
<path d="M 339.768, 783.532 
	L 339.768, 587.799 
" />
<path d="M 340.618, 783.532 
	L 340.618, 587.799 
" />
<path d="M 341.469, 783.532 
	L 341.469, 587.799 
" />
<path d="M 342.319, 783.532 
	L 342.319, 587.799 
" />
<path d="M 343.169, 783.532 
	L 343.169, 587.799 
" />
<path d="M 344.020, 783.532 
	L 344.020, 587.799 
" />
<path d="M 344.870, 783.532 
	L 344.870, 587.799 
" />
<path d="M 345.721, 783.532 
	L 345.721, 587.799 
" />
<path d="M 346.571, 783.532 
	L 346.571, 587.799 
" />
<path d="M 347.421, 783.532 
	L 347.421, 587.799 
" />
<path d="M 348.272, 783.532 
	L 348.272, 587.799 
" />
<path d="M 349.122, 783.532 
	L 349.122, 587.799 
" />
<path d="M 349.972, 783.532 
	L 349.972, 587.799 
" />
<path d="M 350.823, 783.532 
	L 350.823, 587.799 
" />
<path d="M 351.673, 783.532 
	L 351.673, 587.799 
" />
<path d="M 352.524, 783.532 
	L 352.524, 587.799 
" />
<path d="M 353.374, 783.532 
	L 353.374, 587.799 
" />
<path d="M 354.224, 783.532 
	L 354.224, 587.799 
" />
<path d="M 355.075, 783.532 
	L 355.075, 587.799 
" />
<path d="M 355.925, 783.532 
	L 355.925, 587.799 
" />
<path d="M 356.776, 783.532 
	L 356.776, 587.799 
" />
<path d="M 357.626, 783.532 
	L 357.626, 587.799 
" />
<path d="M 358.476, 783.532 
	L 358.476, 587.799 
" />
<path d="M 359.327, 783.532 
	L 359.327, 587.799 
" />
<path d="M 360.177, 783.532 
	L 360.177, 587.799 
" />
<path d="M 361.028, 783.532 
	L 361.028, 587.799 
" />
<path d="M 361.878, 783.532 
	L 361.878, 587.799 
" />
<path d="M 362.728, 783.532 
	L 362.728, 587.799 
" />
<path d="M 363.579, 783.532 
	L 363.579, 587.799 
" />
<path d="M 364.429, 783.532 
	L 364.429, 587.799 
" />
<path d="M 365.280, 783.532 
	L 365.280, 587.799 
" />
<path d="M 366.130, 783.532 
	L 366.130, 587.799 
" />
<path d="M 366.980, 783.532 
	L 366.980, 587.799 
" />
<path d="M 367.831, 783.532 
	L 367.831, 587.799 
" />
<path d="M 368.681, 783.532 
	L 368.681, 587.799 
" />
<path d="M 369.532, 783.532 
	L 369.532, 587.799 
" />
<path d="M 370.382, 783.532 
	L 370.382, 587.799 
" />
<path d="M 371.232, 783.532 
	L 371.232, 587.799 
" />
<path d="M 372.083, 783.532 
	L 372.083, 587.799 
" />
<path d="M 372.933, 783.532 
	L 372.933, 587.799 
" />
<path d="M 373.784, 783.532 
	L 373.784, 587.799 
" />
<path d="M 374.634, 783.532 
	L 374.634, 587.799 
" />
<path d="M 375.484, 783.532 
	L 375.484, 587.799 
" />
<path d="M 376.335, 783.532 
	L 376.335, 587.799 
" />
<path d="M 377.185, 783.532 
	L 377.185, 587.799 
" />
<path d="M 378.035, 783.532 
	L 378.035, 587.799 
" />
<path d="M 378.886, 783.532 
	L 378.886, 587.799 
" />
<path d="M 379.736, 783.532 
	L 379.736, 587.799 
" />
<path d="M 380.587, 783.532 
	L 380.587, 587.799 
" />
<path d="M 381.437, 783.532 
	L 381.437, 587.799 
" />
<path d="M 382.287, 783.532 
	L 382.287, 587.799 
" />
<path d="M 383.138, 783.532 
	L 383.138, 587.799 
" />
<path d="M 383.988, 783.532 
	L 383.988, 587.799 
" />
<path d="M 384.839, 783.532 
	L 384.839, 587.799 
" />
<path d="M 385.689, 783.532 
	L 385.689, 587.799 
" />
<path d="M 386.539, 783.532 
	L 386.539, 587.799 
" />
<path d="M 387.390, 783.532 
	L 387.390, 587.799 
" />
<path d="M 388.240, 783.532 
	L 388.240, 587.799 
" />
<path d="M 389.091, 783.532 
	L 389.091, 587.799 
" />
<path d="M 389.941, 783.532 
	L 389.941, 587.799 
" />
<path d="M 390.791, 783.532 
	L 390.791, 587.799 
" />
<path d="M 391.642, 783.532 
	L 391.642, 587.799 
" />
<path d="M 392.492, 783.532 
	L 392.492, 587.799 
" />
<path d="M 393.343, 783.532 
	L 393.343, 587.799 
" />
<path d="M 394.193, 783.532 
	L 394.193, 587.799 
" />
<path d="M 395.043, 783.532 
	L 395.043, 587.799 
" />
<path d="M 395.894, 783.532 
	L 395.894, 587.799 
" />
<path d="M 396.744, 783.532 
	L 396.744, 587.799 
" />
<path d="M 397.595, 783.532 
	L 397.595, 587.799 
" />
<path d="M 398.445, 783.532 
	L 398.445, 587.799 
" />
<path d="M 399.295, 783.532 
	L 399.295, 587.799 
" />
<path d="M 400.146, 783.532 
	L 400.146, 587.799 
" />
<path d="M 400.996, 783.532 
	L 400.996, 587.799 
" />
<path d="M 401.847, 783.532 
	L 401.847, 587.799 
" />
<path d="M 402.697, 783.532 
	L 402.697, 587.799 
" />
<path d="M 403.547, 783.532 
	L 403.547, 587.799 
" />
<path d="M 404.398, 783.532 
	L 404.398, 587.799 
" />
<path d="M 405.248, 783.532 
	L 405.248, 587.799 
" />
<path d="M 406.098, 783.532 
	L 406.098, 587.799 
" />
<path d="M 406.949, 783.532 
	L 406.949, 587.799 
" />
<path d="M 407.799, 783.532 
	L 407.799, 587.799 
" />
<path d="M 408.650, 783.532 
	L 408.650, 587.799 
" />
<path d="M 409.500, 783.532 
	L 409.500, 587.799 
" />
<path d="M 410.350, 783.532 
	L 410.350, 587.799 
" />
<path d="M 411.201, 783.532 
	L 411.201, 587.799 
" />
<path d="M 412.051, 783.532 
	L 412.051, 587.799 
" />
<path d="M 412.902, 783.532 
	L 412.902, 587.799 
" />
<path d="M 413.752, 783.532 
	L 413.752, 587.799 
" />
<path d="M 414.602, 783.532 
	L 414.602, 587.799 
" />
<path d="M 415.453, 783.532 
	L 415.453, 587.799 
" />
<path d="M 416.303, 783.532 
	L 416.303, 587.799 
" />
<path d="M 417.154, 783.532 
	L 417.154, 587.799 
" />
<path d="M 418.004, 783.532 
	L 418.004, 587.799 
" />
<path d="M 418.854, 783.532 
	L 418.854, 587.799 
" />
<path d="M 419.705, 783.532 
	L 419.705, 587.799 
" />
<path d="M 420.555, 783.532 
	L 420.555, 587.799 
" />
<path d="M 421.406, 783.532 
	L 421.406, 587.799 
" />
<path d="M 422.256, 783.532 
	L 422.256, 587.799 
" />
<path d="M 423.106, 783.532 
	L 423.106, 587.799 
" />
<path d="M 423.957, 783.532 
	L 423.957, 587.799 
" />
<path d="M 424.807, 783.532 
	L 424.807, 587.799 
" />
<path d="M 425.658, 783.532 
	L 425.658, 587.799 
" />
<path d="M 426.508, 783.532 
	L 426.508, 587.799 
" />
<path d="M 427.358, 783.532 
	L 427.358, 587.799 
" />
<path d="M 428.209, 783.532 
	L 428.209, 587.799 
" />
<path d="M 429.059, 783.532 
	L 429.059, 587.799 
" />
<path d="M 429.910, 783.532 
	L 429.910, 587.799 
" />
<path d="M 430.760, 783.532 
	L 430.760, 587.799 
" />
<path d="M 431.610, 783.532 
	L 431.610, 587.799 
" />
<path d="M 432.461, 783.532 
	L 432.461, 587.799 
" />
<path d="M 433.311, 783.532 
	L 433.311, 587.799 
" />
<path d="M 434.161, 783.532 
	L 434.161, 587.799 
" />
<path d="M 435.012, 783.532 
	L 435.012, 587.799 
" />
<path d="M 435.862, 783.532 
	L 435.862, 587.799 
" />
<path d="M 436.713, 783.532 
	L 436.713, 587.799 
" />
<path d="M 437.563, 783.532 
	L 437.563, 587.799 
" />
<path d="M 438.413, 783.532 
	L 438.413, 587.799 
" />
<path d="M 439.264, 783.532 
	L 439.264, 587.799 
" />
<path d="M 440.114, 783.532 
	L 440.114, 587.799 
" />
<path d="M 440.965, 783.532 
	L 440.965, 587.799 
" />
<path d="M 441.815, 783.532 
	L 441.815, 587.799 
" />
<path d="M 442.665, 783.532 
	L 442.665, 587.799 
" />
<path d="M 443.516, 783.532 
	L 443.516, 587.799 
" />
<path d="M 444.366, 783.532 
	L 444.366, 587.799 
" />
<path d="M 445.217, 783.532 
	L 445.217, 587.799 
" />
<path d="M 446.067, 783.532 
	L 446.067, 587.799 
" />
<path d="M 446.917, 783.532 
	L 446.917, 587.799 
" />
<path d="M 447.768, 783.532 
	L 447.768, 587.799 
" />
<path d="M 448.618, 783.532 
	L 448.618, 587.799 
" />
<path d="M 449.469, 783.532 
	L 449.469, 587.799 
" />
<path d="M 450.319, 783.532 
	L 450.319, 587.799 
" />
<path d="M 451.169, 783.532 
	L 451.169, 587.799 
" />
<path d="M 452.020, 783.532 
	L 452.020, 587.799 
" />
<path d="M 452.870, 783.532 
	L 452.870, 587.799 
" />
<path d="M 453.721, 783.532 
	L 453.721, 587.799 
" />
<path d="M 454.571, 783.532 
	L 454.571, 587.799 
" />
<path d="M 455.421, 783.532 
	L 455.421, 587.799 
" />
<path d="M 456.272, 783.532 
	L 456.272, 587.799 
" />
<path d="M 457.122, 783.532 
	L 457.122, 587.799 
" />
<path d="M 457.973, 783.532 
	L 457.973, 587.799 
" />
<path d="M 458.823, 783.532 
	L 458.823, 587.799 
" />
<path d="M 459.673, 783.532 
	L 459.673, 587.799 
" />
<path d="M 460.524, 783.532 
	L 460.524, 587.799 
" />
<path d="M 461.374, 783.532 
	L 461.374, 587.799 
" />
<path d="M 462.224, 783.532 
	L 462.224, 587.799 
" />
<path d="M 463.075, 783.532 
	L 463.075, 587.799 
" />
<path d="M 463.925, 783.532 
	L 463.925, 587.799 
" />
<path d="M 464.776, 783.532 
	L 464.776, 587.799 
" />
<path d="M 465.626, 783.532 
	L 465.626, 587.799 
" />
<path d="M 466.476, 783.532 
	L 466.476, 587.799 
" />
<path d="M 467.327, 783.532 
	L 467.327, 587.799 
" />
<path d="M 468.177, 783.532 
	L 468.177, 587.799 
" />
<path d="M 469.028, 783.532 
	L 469.028, 587.799 
" />
<path d="M 469.878, 783.532 
	L 469.878, 587.799 
" />
<path d="M 470.728, 783.532 
	L 470.728, 587.799 
" />
<path d="M 471.579, 783.532 
	L 471.579, 587.799 
" />
<path d="M 472.429, 783.532 
	L 472.429, 587.799 
" />
<path d="M 473.280, 783.532 
	L 473.280, 587.799 
" />
<path d="M 474.130, 783.532 
	L 474.130, 587.799 
" />
<path d="M 474.980, 783.532 
	L 474.980, 587.799 
" />
<path d="M 475.831, 783.532 
	L 475.831, 587.799 
" />
<path d="M 476.681, 783.532 
	L 476.681, 587.799 
" />
<path d="M 477.532, 783.532 
	L 477.532, 587.799 
" />
<path d="M 478.382, 783.532 
	L 478.382, 587.799 
" />
<path d="M 479.232, 783.532 
	L 479.232, 587.799 
" />
<path d="M 480.083, 783.532 
	L 480.083, 587.799 
" />
<path d="M 480.933, 783.532 
	L 480.933, 587.799 
" />
<path d="M 481.784, 783.532 
	L 481.784, 587.799 
" />
<path d="M 482.634, 783.532 
	L 482.634, 587.799 
" />
<path d="M 483.484, 783.532 
	L 483.484, 587.799 
" />
<path d="M 484.335, 783.532 
	L 484.335, 587.799 
" />
<path d="M 485.185, 783.532 
	L 485.185, 587.799 
" />
<path d="M 486.036, 783.532 
	L 486.036, 587.799 
" />
<path d="M 486.886, 783.532 
	L 486.886, 587.799 
" />
<path d="M 487.736, 783.532 
	L 487.736, 587.799 
" />
<path d="M 488.587, 783.532 
	L 488.587, 587.799 
" />
<path d="M 489.437, 783.532 
	L 489.437, 587.799 
" />
<path d="M 490.287, 783.532 
	L 490.287, 587.799 
" />
<path d="M 491.138, 783.532 
	L 491.138, 587.799 
" />
<path d="M 491.988, 783.532 
	L 491.988, 587.799 
" />
<path d="M 492.839, 783.532 
	L 492.839, 587.799 
" />
<path d="M 493.689, 783.532 
	L 493.689, 587.799 
" />
<path d="M 494.539, 783.532 
	L 494.539, 587.799 
" />
<path d="M 495.390, 783.532 
	L 495.390, 587.799 
" />
<path d="M 496.240, 783.532 
	L 496.240, 587.799 
" />
<path d="M 497.091, 783.532 
	L 497.091, 587.799 
" />
<path d="M 497.941, 783.532 
	L 497.941, 587.799 
" />
<path d="M 498.791, 783.532 
	L 498.791, 587.799 
" />
<path d="M 499.642, 783.532 
	L 499.642, 587.799 
" />
<path d="M 500.492, 783.532 
	L 500.492, 587.799 
" />
<path d="M 501.343, 783.532 
	L 501.343, 587.799 
" />
<path d="M 502.193, 783.532 
	L 502.193, 587.799 
" />
<path d="M 503.043, 783.532 
	L 503.043, 587.799 
" />
<path d="M 503.894, 783.532 
	L 503.894, 587.799 
" />
<path d="M 504.744, 783.532 
	L 504.744, 587.799 
" />
<path d="M 505.595, 783.532 
	L 505.595, 587.799 
" />
<path d="M 506.445, 783.532 
	L 506.445, 587.799 
" />
<path d="M 507.295, 783.532 
	L 507.295, 587.799 
" />
<path d="M 508.146, 783.532 
	L 508.146, 587.799 
" />
<path d="M 508.996, 783.532 
	L 508.996, 587.799 
" />
<path d="M 509.847, 783.532 
	L 509.847, 587.799 
" />
<path d="M 510.697, 783.532 
	L 510.697, 587.799 
" />
<path d="M 511.547, 783.532 
	L 511.547, 587.799 
" />
<path d="M 512.398, 783.532 
	L 512.398, 587.799 
" />
<path d="M 513.248, 783.532 
	L 513.248, 587.799 
" />
<path d="M 514.099, 783.532 
	L 514.099, 587.799 
" />
<path d="M 514.949, 783.532 
	L 514.949, 587.799 
" />
<path d="M 515.799, 783.532 
	L 515.799, 587.799 
" />
<path d="M 516.650, 783.532 
	L 516.650, 587.799 
" />
<path d="M 517.500, 783.532 
	L 517.500, 587.799 
" />
<path d="M 518.350, 783.532 
	L 518.350, 587.799 
" />
<path d="M 519.201, 783.532 
	L 519.201, 587.799 
" />
<path d="M 520.051, 783.532 
	L 520.051, 587.799 
" />
<path d="M 520.902, 783.532 
	L 520.902, 587.799 
" />
<path d="M 521.752, 783.532 
	L 521.752, 587.799 
" />
<path d="M 522.602, 783.532 
	L 522.602, 587.799 
" />
<path d="M 523.453, 783.532 
	L 523.453, 587.799 
" />
<path d="M 524.303, 783.532 
	L 524.303, 587.799 
" />
<path d="M 525.154, 783.532 
	L 525.154, 587.799 
" />
<path d="M 526.004, 783.532 
	L 526.004, 587.799 
" />
<path d="M 526.854, 783.532 
	L 526.854, 587.799 
" />
<path d="M 527.705, 783.532 
	L 527.705, 587.799 
" />
<path d="M 528.555, 783.532 
	L 528.555, 587.799 
" />
<path d="M 265.748, 588.650 
	L 265.748, 405.532 
	L 528.732, 405.532 
	L 528.732, 588.650 
	L 265.748, 588.650 
" />
<path d="M 265.784, 588.650 
	L 265.784, 405.532 
" />
<path d="M 267.980, 588.650 
	L 267.980, 405.532 
" />
<path d="M 270.177, 588.650 
	L 270.177, 405.532 
" />
<path d="M 272.374, 588.650 
	L 272.374, 405.532 
" />
<path d="M 274.571, 588.650 
	L 274.571, 405.532 
" />
<path d="M 276.768, 588.650 
	L 276.768, 405.532 
" />
<path d="M 278.965, 588.650 
	L 278.965, 405.532 
" />
<path d="M 281.161, 588.650 
	L 281.161, 405.532 
" />
<path d="M 283.358, 588.650 
	L 283.358, 405.532 
" />
<path d="M 285.555, 588.650 
	L 285.555, 405.532 
" />
<path d="M 287.752, 588.650 
	L 287.752, 405.532 
" />
<path d="M 289.949, 588.650 
	L 289.949, 405.532 
" />
<path d="M 292.146, 588.650 
	L 292.146, 405.532 
" />
<path d="M 294.343, 588.650 
	L 294.343, 405.532 
" />
<path d="M 296.539, 588.650 
	L 296.539, 405.532 
" />
<path d="M 298.736, 588.650 
	L 298.736, 405.532 
" />
<path d="M 300.933, 588.650 
	L 300.933, 405.532 
" />
<path d="M 303.130, 588.650 
	L 303.130, 405.532 
" />
<path d="M 305.327, 588.650 
	L 305.327, 405.532 
" />
<path d="M 307.524, 588.650 
	L 307.524, 405.532 
" />
<path d="M 309.721, 588.650 
	L 309.721, 405.532 
" />
<path d="M 311.917, 588.650 
	L 311.917, 405.532 
" />
<path d="M 314.114, 588.650 
	L 314.114, 405.532 
" />
<path d="M 316.311, 588.650 
	L 316.311, 405.532 
" />
<path d="M 318.508, 588.650 
	L 318.508, 405.532 
" />
<path d="M 320.705, 588.650 
	L 320.705, 405.532 
" />
<path d="M 322.902, 588.650 
	L 322.902, 405.532 
" />
<path d="M 325.098, 588.650 
	L 325.098, 405.532 
" />
<path d="M 327.295, 588.650 
	L 327.295, 405.532 
" />
<path d="M 329.492, 588.650 
	L 329.492, 405.532 
" />
<path d="M 331.689, 588.650 
	L 331.689, 405.532 
" />
<path d="M 333.886, 588.650 
	L 333.886, 405.532 
" />
<path d="M 336.083, 588.650 
	L 336.083, 405.532 
" />
<path d="M 338.280, 588.650 
	L 338.280, 405.532 
" />
<path d="M 340.476, 588.650 
	L 340.476, 405.532 
" />
<path d="M 342.673, 588.650 
	L 342.673, 405.532 
" />
<path d="M 344.870, 588.650 
	L 344.870, 405.532 
" />
<path d="M 347.067, 588.650 
	L 347.067, 405.532 
" />
<path d="M 349.264, 588.650 
	L 349.264, 405.532 
" />
<path d="M 351.461, 588.650 
	L 351.461, 405.532 
" />
<path d="M 353.658, 588.650 
	L 353.658, 405.532 
" />
<path d="M 355.854, 588.650 
	L 355.854, 405.532 
" />
<path d="M 358.051, 588.650 
	L 358.051, 405.532 
" />
<path d="M 360.248, 588.650 
	L 360.248, 405.532 
" />
<path d="M 362.445, 588.650 
	L 362.445, 405.532 
" />
<path d="M 364.642, 588.650 
	L 364.642, 405.532 
" />
<path d="M 366.839, 588.650 
	L 366.839, 405.532 
" />
<path d="M 369.035, 588.650 
	L 369.035, 405.532 
" />
<path d="M 371.232, 588.650 
	L 371.232, 405.532 
" />
<path d="M 373.429, 588.650 
	L 373.429, 405.532 
" />
<path d="M 375.626, 588.650 
	L 375.626, 405.532 
" />
<path d="M 377.823, 588.650 
	L 377.823, 405.532 
" />
<path d="M 380.020, 588.650 
	L 380.020, 405.532 
" />
<path d="M 382.217, 588.650 
	L 382.217, 405.532 
" />
<path d="M 384.413, 588.650 
	L 384.413, 405.532 
" />
<path d="M 386.610, 588.650 
	L 386.610, 405.532 
" />
<path d="M 388.807, 588.650 
	L 388.807, 405.532 
" />
<path d="M 391.004, 588.650 
	L 391.004, 405.532 
" />
<path d="M 393.201, 588.650 
	L 393.201, 405.532 
" />
<path d="M 395.398, 588.650 
	L 395.398, 405.532 
" />
<path d="M 397.595, 588.650 
	L 397.595, 405.532 
" />
<path d="M 399.791, 588.650 
	L 399.791, 405.532 
" />
<path d="M 401.988, 588.650 
	L 401.988, 405.532 
" />
<path d="M 404.185, 588.650 
	L 404.185, 405.532 
" />
<path d="M 406.382, 588.650 
	L 406.382, 405.532 
" />
<path d="M 408.579, 588.650 
	L 408.579, 405.532 
" />
<path d="M 410.776, 588.650 
	L 410.776, 405.532 
" />
<path d="M 412.973, 588.650 
	L 412.973, 405.532 
" />
<path d="M 415.169, 588.650 
	L 415.169, 405.532 
" />
<path d="M 417.366, 588.650 
	L 417.366, 405.532 
" />
<path d="M 419.563, 588.650 
	L 419.563, 405.532 
" />
<path d="M 421.760, 588.650 
	L 421.760, 405.532 
" />
<path d="M 423.957, 588.650 
	L 423.957, 405.532 
" />
<path d="M 426.154, 588.650 
	L 426.154, 405.532 
" />
<path d="M 428.350, 588.650 
	L 428.350, 405.532 
" />
<path d="M 430.547, 588.650 
	L 430.547, 405.532 
" />
<path d="M 432.744, 588.650 
	L 432.744, 405.532 
" />
<path d="M 434.941, 588.650 
	L 434.941, 405.532 
" />
<path d="M 437.138, 588.650 
	L 437.138, 405.532 
" />
<path d="M 439.335, 588.650 
	L 439.335, 405.532 
" />
<path d="M 441.532, 588.650 
	L 441.532, 405.532 
" />
<path d="M 443.728, 588.650 
	L 443.728, 405.532 
" />
<path d="M 445.925, 588.650 
	L 445.925, 405.532 
" />
<path d="M 448.122, 588.650 
	L 448.122, 405.532 
" />
<path d="M 450.319, 588.650 
	L 450.319, 405.532 
" />
<path d="M 452.516, 588.650 
	L 452.516, 405.532 
" />
<path d="M 454.713, 588.650 
	L 454.713, 405.532 
" />
<path d="M 456.910, 588.650 
	L 456.910, 405.532 
" />
<path d="M 459.106, 588.650 
	L 459.106, 405.532 
" />
<path d="M 461.303, 588.650 
	L 461.303, 405.532 
" />
<path d="M 463.500, 588.650 
	L 463.500, 405.532 
" />
<path d="M 465.697, 588.650 
	L 465.697, 405.532 
" />
<path d="M 467.894, 588.650 
	L 467.894, 405.532 
" />
<path d="M 470.091, 588.650 
	L 470.091, 405.532 
" />
<path d="M 472.287, 588.650 
	L 472.287, 405.532 
" />
<path d="M 474.484, 588.650 
	L 474.484, 405.532 
" />
<path d="M 476.681, 588.650 
	L 476.681, 405.532 
" />
<path d="M 478.878, 588.650 
	L 478.878, 405.532 
" />
<path d="M 481.075, 588.650 
	L 481.075, 405.532 
" />
<path d="M 483.272, 588.650 
	L 483.272, 405.532 
" />
<path d="M 485.469, 588.650 
	L 485.469, 405.532 
" />
<path d="M 487.665, 588.650 
	L 487.665, 405.532 
" />
<path d="M 489.862, 588.650 
	L 489.862, 405.532 
" />
<path d="M 492.059, 588.650 
	L 492.059, 405.532 
" />
<path d="M 494.256, 588.650 
	L 494.256, 405.532 
" />
<path d="M 496.453, 588.650 
	L 496.453, 405.532 
" />
<path d="M 498.650, 588.650 
	L 498.650, 405.532 
" />
<path d="M 500.847, 588.650 
	L 500.847, 405.532 
" />
<path d="M 503.043, 588.650 
	L 503.043, 405.532 
" />
<path d="M 505.240, 588.650 
	L 505.240, 405.532 
" />
<path d="M 507.437, 588.650 
	L 507.437, 405.532 
" />
<path d="M 509.634, 588.650 
	L 509.634, 405.532 
" />
<path d="M 511.831, 588.650 
	L 511.831, 405.532 
" />
<path d="M 514.028, 588.650 
	L 514.028, 405.532 
" />
<path d="M 516.224, 588.650 
	L 516.224, 405.532 
" />
<path d="M 518.421, 588.650 
	L 518.421, 405.532 
" />
<path d="M 520.618, 588.650 
	L 520.618, 405.532 
" />
<path d="M 522.815, 588.650 
	L 522.815, 405.532 
" />
<path d="M 525.012, 588.650 
	L 525.012, 405.532 
" />
<path d="M 265.748, 393.803 
	L 265.748, 209.197 
	L 544.890, 209.197 
	L 544.890, 393.803 
	L 265.748, 393.803 
" />
<path d="M 265.784, 393.768 
	L 265.784, 209.161 
" />
<path d="M 269.114, 393.768 
	L 269.114, 209.161 
" />
<path d="M 272.445, 393.768 
	L 272.445, 209.161 
" />
<path d="M 275.776, 393.768 
	L 275.776, 209.161 
" />
<path d="M 279.106, 393.768 
	L 279.106, 209.161 
" />
<path d="M 282.437, 393.768 
	L 282.437, 209.161 
" />
<path d="M 285.768, 393.768 
	L 285.768, 209.161 
" />
<path d="M 289.098, 393.768 
	L 289.098, 209.161 
" />
<path d="M 292.429, 393.768 
	L 292.429, 209.161 
" />
<path d="M 295.760, 393.768 
	L 295.760, 209.161 
" />
<path d="M 299.091, 393.768 
	L 299.091, 209.161 
" />
<path d="M 302.421, 393.768 
	L 302.421, 209.161 
" />
<path d="M 305.752, 393.768 
	L 305.752, 209.161 
" />
<path d="M 309.083, 393.768 
	L 309.083, 209.161 
" />
<path d="M 312.413, 393.768 
	L 312.413, 209.161 
" />
<path d="M 315.744, 393.768 
	L 315.744, 209.161 
" />
<path d="M 319.075, 393.768 
	L 319.075, 209.161 
" />
<path d="M 322.406, 393.768 
	L 322.406, 209.161 
" />
<path d="M 325.736, 393.768 
	L 325.736, 209.161 
" />
<path d="M 329.067, 393.768 
	L 329.067, 209.161 
" />
<path d="M 332.398, 393.768 
	L 332.398, 209.161 
" />
<path d="M 335.728, 393.768 
	L 335.728, 209.161 
" />
<path d="M 339.059, 393.768 
	L 339.059, 209.161 
" />
<path d="M 342.390, 393.768 
	L 342.390, 209.161 
" />
<path d="M 345.721, 393.768 
	L 345.721, 209.161 
" />
<path d="M 349.051, 393.768 
	L 349.051, 209.161 
" />
<path d="M 352.382, 393.768 
	L 352.382, 209.161 
" />
<path d="M 355.713, 393.768 
	L 355.713, 209.161 
" />
<path d="M 359.043, 393.768 
	L 359.043, 209.161 
" />
<path d="M 362.374, 393.768 
	L 362.374, 209.161 
" />
<path d="M 365.705, 393.768 
	L 365.705, 209.161 
" />
<path d="M 369.035, 393.768 
	L 369.035, 209.161 
" />
<path d="M 372.366, 393.768 
	L 372.366, 209.161 
" />
<path d="M 375.697, 393.768 
	L 375.697, 209.161 
" />
<path d="M 379.028, 393.768 
	L 379.028, 209.161 
" />
<path d="M 382.358, 393.768 
	L 382.358, 209.161 
" />
<path d="M 385.689, 393.768 
	L 385.689, 209.161 
" />
<path d="M 389.020, 393.768 
	L 389.020, 209.161 
" />
<path d="M 392.350, 393.768 
	L 392.350, 209.161 
" />
<path d="M 395.681, 393.768 
	L 395.681, 209.161 
" />
<path d="M 399.012, 393.768 
	L 399.012, 209.161 
" />
<path d="M 402.343, 393.768 
	L 402.343, 209.161 
" />
<path d="M 405.673, 393.768 
	L 405.673, 209.161 
" />
<path d="M 409.004, 393.768 
	L 409.004, 209.161 
" />
<path d="M 412.335, 393.768 
	L 412.335, 209.161 
" />
<path d="M 415.665, 393.768 
	L 415.665, 209.161 
" />
<path d="M 418.996, 393.768 
	L 418.996, 209.161 
" />
<path d="M 422.327, 393.768 
	L 422.327, 209.161 
" />
<path d="M 425.658, 393.768 
	L 425.658, 209.161 
" />
<path d="M 428.988, 393.768 
	L 428.988, 209.161 
" />
<path d="M 432.319, 393.768 
	L 432.319, 209.161 
" />
<path d="M 435.650, 393.768 
	L 435.650, 209.161 
" />
<path d="M 438.980, 393.768 
	L 438.980, 209.161 
" />
<path d="M 442.311, 393.768 
	L 442.311, 209.161 
" />
<path d="M 445.642, 393.768 
	L 445.642, 209.161 
" />
<path d="M 448.973, 393.768 
	L 448.973, 209.161 
" />
<path d="M 452.303, 393.768 
	L 452.303, 209.161 
" />
<path d="M 455.634, 393.768 
	L 455.634, 209.161 
" />
<path d="M 458.965, 393.768 
	L 458.965, 209.161 
" />
<path d="M 462.295, 393.768 
	L 462.295, 209.161 
" />
<path d="M 465.626, 393.768 
	L 465.626, 209.161 
" />
<path d="M 468.957, 393.768 
	L 468.957, 209.161 
" />
<path d="M 472.287, 393.768 
	L 472.287, 209.161 
" />
<path d="M 475.618, 393.768 
	L 475.618, 209.161 
" />
<path d="M 478.949, 393.768 
	L 478.949, 209.161 
" />
<path d="M 482.280, 393.768 
	L 482.280, 209.161 
" />
<path d="M 485.610, 393.768 
	L 485.610, 209.161 
" />
<path d="M 488.941, 393.768 
	L 488.941, 209.161 
" />
<path d="M 492.272, 393.768 
	L 492.272, 209.161 
" />
<path d="M 495.602, 393.768 
	L 495.602, 209.161 
" />
<path d="M 498.933, 393.768 
	L 498.933, 209.161 
" />
<path d="M 502.264, 393.768 
	L 502.264, 209.161 
" />
<path d="M 505.595, 393.768 
	L 505.595, 209.161 
" />
<path d="M 508.925, 393.768 
	L 508.925, 209.161 
" />
<path d="M 512.256, 393.768 
	L 512.256, 209.161 
" />
<path d="M 515.587, 393.768 
	L 515.587, 209.161 
" />
<path d="M 518.917, 393.768 
	L 518.917, 209.161 
" />
<path d="M 522.248, 393.768 
	L 522.248, 209.161 
" />
<path d="M 525.579, 393.768 
	L 525.579, 209.161 
" />
<path d="M 528.910, 393.768 
	L 528.910, 209.161 
" />
<path d="M 532.240, 393.768 
	L 532.240, 209.161 
" />
<path d="M 535.571, 393.768 
	L 535.571, 209.161 
" />
<path d="M 538.902, 393.768 
	L 538.902, 209.161 
" />
<path d="M 531.496, 198.921 
	L 531.496, 16.583 
	L 785.835, 16.583 
	L 785.835, 198.921 
	L 531.496, 198.921 
" />
<path d="M 531.532, 198.886 
	L 531.532, 16.547 
" />
<path d="M 535.358, 198.886 
	L 535.358, 16.547 
" />
<path d="M 539.185, 198.886 
	L 539.185, 16.547 
" />
<path d="M 543.012, 198.886 
	L 543.012, 16.547 
" />
<path d="M 546.839, 198.886 
	L 546.839, 16.547 
" />
<path d="M 550.665, 198.886 
	L 550.665, 16.547 
" />
<path d="M 554.492, 198.886 
	L 554.492, 16.547 
" />
<path d="M 558.319, 198.886 
	L 558.319, 16.547 
" />
<path d="M 562.146, 198.886 
	L 562.146, 16.547 
" />
<path d="M 565.973, 198.886 
	L 565.973, 16.547 
" />
<path d="M 569.799, 198.886 
	L 569.799, 16.547 
" />
<path d="M 573.626, 198.886 
	L 573.626, 16.547 
" />
<path d="M 577.453, 198.886 
	L 577.453, 16.547 
" />
<path d="M 581.280, 198.886 
	L 581.280, 16.547 
" />
<path d="M 585.106, 198.886 
	L 585.106, 16.547 
" />
<path d="M 588.933, 198.886 
	L 588.933, 16.547 
" />
<path d="M 592.760, 198.886 
	L 592.760, 16.547 
" />
<path d="M 596.587, 198.886 
	L 596.587, 16.547 
" />
<path d="M 600.413, 198.886 
	L 600.413, 16.547 
" />
<path d="M 604.240, 198.886 
	L 604.240, 16.547 
" />
<path d="M 608.067, 198.886 
	L 608.067, 16.547 
" />
<path d="M 611.894, 198.886 
	L 611.894, 16.547 
" />
<path d="M 615.721, 198.886 
	L 615.721, 16.547 
" />
<path d="M 619.547, 198.886 
	L 619.547, 16.547 
" />
<path d="M 623.374, 198.886 
	L 623.374, 16.547 
" />
<path d="M 627.201, 198.886 
	L 627.201, 16.547 
" />
<path d="M 631.028, 198.886 
	L 631.028, 16.547 
" />
<path d="M 634.854, 198.886 
	L 634.854, 16.547 
" />
<path d="M 638.681, 198.886 
	L 638.681, 16.547 
" />
<path d="M 642.508, 198.886 
	L 642.508, 16.547 
" />
<path d="M 646.335, 198.886 
	L 646.335, 16.547 
" />
<path d="M 650.162, 198.886 
	L 650.162, 16.547 
" />
<path d="M 653.988, 198.886 
	L 653.988, 16.547 
" />
<path d="M 657.815, 198.886 
	L 657.815, 16.547 
" />
<path d="M 661.642, 198.886 
	L 661.642, 16.547 
" />
<path d="M 665.469, 198.886 
	L 665.469, 16.547 
" />
<path d="M 669.295, 198.886 
	L 669.295, 16.547 
" />
<path d="M 673.122, 198.886 
	L 673.122, 16.547 
" />
<path d="M 676.949, 198.886 
	L 676.949, 16.547 
" />
<path d="M 680.776, 198.886 
	L 680.776, 16.547 
" />
<path d="M 684.602, 198.886 
	L 684.602, 16.547 
" />
<path d="M 688.429, 198.886 
	L 688.429, 16.547 
" />
<path d="M 692.256, 198.886 
	L 692.256, 16.547 
" />
<path d="M 696.083, 198.886 
	L 696.083, 16.547 
" />
<path d="M 699.910, 198.886 
	L 699.910, 16.547 
" />
<path d="M 703.736, 198.886 
	L 703.736, 16.547 
" />
<path d="M 707.563, 198.886 
	L 707.563, 16.547 
" />
<path d="M 711.390, 198.886 
	L 711.390, 16.547 
" />
<path d="M 715.217, 198.886 
	L 715.217, 16.547 
" />
<path d="M 719.043, 198.886 
	L 719.043, 16.547 
" />
<path d="M 722.870, 198.886 
	L 722.870, 16.547 
" />
<path d="M 726.697, 198.886 
	L 726.697, 16.547 
" />
<path d="M 730.524, 198.886 
	L 730.524, 16.547 
" />
<path d="M 734.351, 198.886 
	L 734.351, 16.547 
" />
<path d="M 738.177, 198.886 
	L 738.177, 16.547 
" />
<path d="M 742.004, 198.886 
	L 742.004, 16.547 
" />
<path d="M 745.831, 198.886 
	L 745.831, 16.547 
" />
<path d="M 749.658, 198.886 
	L 749.658, 16.547 
" />
<path d="M 753.484, 198.886 
	L 753.484, 16.547 
" />
<path d="M 757.311, 198.886 
	L 757.311, 16.547 
" />
<path d="M 761.138, 198.886 
	L 761.138, 16.547 
" />
<path d="M 764.965, 198.886 
	L 764.965, 16.547 
" />
<path d="M 768.791, 198.886 
	L 768.791, 16.547 
" />
<path d="M 772.618, 198.886 
	L 772.618, 16.547 
" />
<path d="M 776.445, 198.886 
	L 776.445, 16.547 
" />
<path d="M 780.272, 198.886 
	L 780.272, 16.547 
" />
<path d="M 531.532, 783.532 
	L 531.532, 602.823 
	L 809.043, 602.823 
	L 809.043, 783.532 
	L 531.532, 783.532 
" />
<path d="M 531.532, 783.532 
	L 531.532, 602.823 
" />
<path d="M 535.925, 783.532 
	L 535.925, 602.823 
" />
<path d="M 540.319, 783.532 
	L 540.319, 602.823 
" />
<path d="M 544.713, 783.532 
	L 544.713, 602.823 
" />
<path d="M 549.106, 783.532 
	L 549.106, 602.823 
" />
<path d="M 553.500, 783.532 
	L 553.500, 602.823 
" />
<path d="M 557.894, 783.532 
	L 557.894, 602.823 
" />
<path d="M 562.287, 783.532 
	L 562.287, 602.823 
" />
<path d="M 566.681, 783.532 
	L 566.681, 602.823 
" />
<path d="M 571.075, 783.532 
	L 571.075, 602.823 
" />
<path d="M 575.469, 783.532 
	L 575.469, 602.823 
" />
<path d="M 579.862, 783.532 
	L 579.862, 602.823 
" />
<path d="M 584.256, 783.532 
	L 584.256, 602.823 
" />
<path d="M 588.650, 783.532 
	L 588.650, 602.823 
" />
<path d="M 593.043, 783.532 
	L 593.043, 602.823 
" />
<path d="M 597.437, 783.532 
	L 597.437, 602.823 
" />
<path d="M 601.831, 783.532 
	L 601.831, 602.823 
" />
<path d="M 606.225, 783.532 
	L 606.225, 602.823 
" />
<path d="M 610.618, 783.532 
	L 610.618, 602.823 
" />
<path d="M 615.012, 783.532 
	L 615.012, 602.823 
" />
<path d="M 619.406, 783.532 
	L 619.406, 602.823 
" />
<path d="M 623.799, 783.532 
	L 623.799, 602.823 
" />
<path d="M 628.193, 783.532 
	L 628.193, 602.823 
" />
<path d="M 632.587, 783.532 
	L 632.587, 602.823 
" />
<path d="M 636.980, 783.532 
	L 636.980, 602.823 
" />
<path d="M 641.374, 783.532 
	L 641.374, 602.823 
" />
<path d="M 645.768, 783.532 
	L 645.768, 602.823 
" />
<path d="M 650.162, 783.532 
	L 650.162, 602.823 
" />
<path d="M 654.555, 783.532 
	L 654.555, 602.823 
" />
<path d="M 658.949, 783.532 
	L 658.949, 602.823 
" />
<path d="M 663.343, 783.532 
	L 663.343, 602.823 
" />
<path d="M 667.736, 783.532 
	L 667.736, 602.823 
" />
<path d="M 672.130, 783.532 
	L 672.130, 602.823 
" />
<path d="M 676.524, 783.532 
	L 676.524, 602.823 
" />
<path d="M 680.917, 783.532 
	L 680.917, 602.823 
" />
<path d="M 685.311, 783.532 
	L 685.311, 602.823 
" />
<path d="M 689.705, 783.532 
	L 689.705, 602.823 
" />
<path d="M 694.099, 783.532 
	L 694.099, 602.823 
" />
<path d="M 698.492, 783.532 
	L 698.492, 602.823 
" />
<path d="M 702.886, 783.532 
	L 702.886, 602.823 
" />
<path d="M 707.280, 783.532 
	L 707.280, 602.823 
" />
<path d="M 711.673, 783.532 
	L 711.673, 602.823 
" />
<path d="M 716.067, 783.532 
	L 716.067, 602.823 
" />
<path d="M 720.461, 783.532 
	L 720.461, 602.823 
" />
<path d="M 724.854, 783.532 
	L 724.854, 602.823 
" />
<path d="M 729.248, 783.532 
	L 729.248, 602.823 
" />
<path d="M 733.642, 783.532 
	L 733.642, 602.823 
" />
<path d="M 738.036, 783.532 
	L 738.036, 602.823 
" />
<path d="M 742.429, 783.532 
	L 742.429, 602.823 
" />
<path d="M 746.823, 783.532 
	L 746.823, 602.823 
" />
<path d="M 751.217, 783.532 
	L 751.217, 602.823 
" />
<path d="M 755.610, 783.532 
	L 755.610, 602.823 
" />
<path d="M 760.004, 783.532 
	L 760.004, 602.823 
" />
<path d="M 764.398, 783.532 
	L 764.398, 602.823 
" />
<path d="M 768.791, 783.532 
	L 768.791, 602.823 
" />
<path d="M 773.185, 783.532 
	L 773.185, 602.823 
" />
<path d="M 777.579, 783.532 
	L 777.579, 602.823 
" />
<path d="M 781.973, 783.532 
	L 781.973, 602.823 
" />
<path d="M 786.366, 783.532 
	L 786.366, 602.823 
" />
<path d="M 790.760, 783.532 
	L 790.760, 602.823 
" />
<path d="M 795.154, 783.532 
	L 795.154, 602.823 
" />
<path d="M 799.547, 783.532 
	L 799.547, 602.823 
" />
<path d="M 803.941, 783.532 
	L 803.941, 602.823 
" />
<path d="M 531.496, 588.650 
	L 531.496, 403.973 
	L 783.000, 403.973 
	L 783.000, 588.650 
	L 531.496, 588.650 
" />
<path d="M 531.532, 588.650 
	L 531.532, 403.973 
" />
<path d="M 534.650, 588.650 
	L 534.650, 403.973 
" />
<path d="M 537.768, 588.650 
	L 537.768, 403.973 
" />
<path d="M 540.886, 588.650 
	L 540.886, 403.973 
" />
<path d="M 544.004, 588.650 
	L 544.004, 403.973 
" />
<path d="M 547.122, 588.650 
	L 547.122, 403.973 
" />
<path d="M 550.240, 588.650 
	L 550.240, 403.973 
" />
<path d="M 553.358, 588.650 
	L 553.358, 403.973 
" />
<path d="M 556.476, 588.650 
	L 556.476, 403.973 
" />
<path d="M 559.595, 588.650 
	L 559.595, 403.973 
" />
<path d="M 562.713, 588.650 
	L 562.713, 403.973 
" />
<path d="M 565.831, 588.650 
	L 565.831, 403.973 
" />
<path d="M 568.949, 588.650 
	L 568.949, 403.973 
" />
<path d="M 572.067, 588.650 
	L 572.067, 403.973 
" />
<path d="M 575.185, 588.650 
	L 575.185, 403.973 
" />
<path d="M 578.303, 588.650 
	L 578.303, 403.973 
" />
<path d="M 581.421, 588.650 
	L 581.421, 403.973 
" />
<path d="M 584.539, 588.650 
	L 584.539, 403.973 
" />
<path d="M 587.658, 588.650 
	L 587.658, 403.973 
" />
<path d="M 590.776, 588.650 
	L 590.776, 403.973 
" />
<path d="M 593.894, 588.650 
	L 593.894, 403.973 
" />
<path d="M 597.012, 588.650 
	L 597.012, 403.973 
" />
<path d="M 600.130, 588.650 
	L 600.130, 403.973 
" />
<path d="M 603.248, 588.650 
	L 603.248, 403.973 
" />
<path d="M 606.366, 588.650 
	L 606.366, 403.973 
" />
<path d="M 609.484, 588.650 
	L 609.484, 403.973 
" />
<path d="M 612.602, 588.650 
	L 612.602, 403.973 
" />
<path d="M 615.721, 588.650 
	L 615.721, 403.973 
" />
<path d="M 618.839, 588.650 
	L 618.839, 403.973 
" />
<path d="M 621.957, 588.650 
	L 621.957, 403.973 
" />
<path d="M 625.075, 588.650 
	L 625.075, 403.973 
" />
<path d="M 628.193, 588.650 
	L 628.193, 403.973 
" />
<path d="M 631.311, 588.650 
	L 631.311, 403.973 
" />
<path d="M 634.429, 588.650 
	L 634.429, 403.973 
" />
<path d="M 637.547, 588.650 
	L 637.547, 403.973 
" />
<path d="M 640.665, 588.650 
	L 640.665, 403.973 
" />
<path d="M 643.784, 588.650 
	L 643.784, 403.973 
" />
<path d="M 646.902, 588.650 
	L 646.902, 403.973 
" />
<path d="M 650.020, 588.650 
	L 650.020, 403.973 
" />
<path d="M 653.138, 588.650 
	L 653.138, 403.973 
" />
<path d="M 656.256, 588.650 
	L 656.256, 403.973 
" />
<path d="M 659.374, 588.650 
	L 659.374, 403.973 
" />
<path d="M 662.492, 588.650 
	L 662.492, 403.973 
" />
<path d="M 665.610, 588.650 
	L 665.610, 403.973 
" />
<path d="M 668.728, 588.650 
	L 668.728, 403.973 
" />
<path d="M 671.847, 588.650 
	L 671.847, 403.973 
" />
<path d="M 674.965, 588.650 
	L 674.965, 403.973 
" />
<path d="M 678.083, 588.650 
	L 678.083, 403.973 
" />
<path d="M 681.201, 588.650 
	L 681.201, 403.973 
" />
<path d="M 684.319, 588.650 
	L 684.319, 403.973 
" />
<path d="M 687.437, 588.650 
	L 687.437, 403.973 
" />
<path d="M 690.555, 588.650 
	L 690.555, 403.973 
" />
<path d="M 693.673, 588.650 
	L 693.673, 403.973 
" />
<path d="M 696.791, 588.650 
	L 696.791, 403.973 
" />
<path d="M 699.910, 588.650 
	L 699.910, 403.973 
" />
<path d="M 703.028, 588.650 
	L 703.028, 403.973 
" />
<path d="M 706.146, 588.650 
	L 706.146, 403.973 
" />
<path d="M 709.264, 588.650 
	L 709.264, 403.973 
" />
<path d="M 712.382, 588.650 
	L 712.382, 403.973 
" />
<path d="M 715.500, 588.650 
	L 715.500, 403.973 
" />
<path d="M 718.618, 588.650 
	L 718.618, 403.973 
" />
<path d="M 721.736, 588.650 
	L 721.736, 403.973 
" />
<path d="M 724.854, 588.650 
	L 724.854, 403.973 
" />
<path d="M 727.973, 588.650 
	L 727.973, 403.973 
" />
<path d="M 731.091, 588.650 
	L 731.091, 403.973 
" />
<path d="M 734.209, 588.650 
	L 734.209, 403.973 
" />
<path d="M 737.327, 588.650 
	L 737.327, 403.973 
" />
<path d="M 740.445, 588.650 
	L 740.445, 403.973 
" />
<path d="M 743.563, 588.650 
	L 743.563, 403.973 
" />
<path d="M 746.681, 588.650 
	L 746.681, 403.973 
" />
<path d="M 749.799, 588.650 
	L 749.799, 403.973 
" />
<path d="M 752.917, 588.650 
	L 752.917, 403.973 
" />
<path d="M 756.036, 588.650 
	L 756.036, 403.973 
" />
<path d="M 759.154, 588.650 
	L 759.154, 403.973 
" />
<path d="M 762.272, 588.650 
	L 762.272, 403.973 
" />
<path d="M 765.390, 588.650 
	L 765.390, 403.973 
" />
<path d="M 768.508, 588.650 
	L 768.508, 403.973 
" />
<path d="M 771.626, 588.650 
	L 771.626, 403.973 
" />
<path d="M 774.744, 588.650 
	L 774.744, 403.973 
" />
<path d="M 777.862, 588.650 
	L 777.862, 403.973 
" />
<path d="M 531.532, 393.803 
	L 531.532, 187.512 
	L 804.083, 187.512 
	L 804.083, 393.803 
	L 531.532, 393.803 
" />
<path d="M 531.532, 393.768 
	L 531.532, 187.476 
" />
<path d="M 535.004, 393.768 
	L 535.004, 187.476 
" />
<path d="M 538.476, 393.768 
	L 538.476, 187.476 
" />
<path d="M 541.949, 393.768 
	L 541.949, 187.476 
" />
<path d="M 545.421, 393.768 
	L 545.421, 187.476 
" />
<path d="M 548.894, 393.768 
	L 548.894, 187.476 
" />
<path d="M 552.366, 393.768 
	L 552.366, 187.476 
" />
<path d="M 555.839, 393.768 
	L 555.839, 187.476 
" />
<path d="M 559.311, 393.768 
	L 559.311, 187.476 
" />
<path d="M 562.784, 393.768 
	L 562.784, 187.476 
" />
<path d="M 566.256, 393.768 
	L 566.256, 187.476 
" />
<path d="M 569.728, 393.768 
	L 569.728, 187.476 
" />
<path d="M 573.201, 393.768 
	L 573.201, 187.476 
" />
<path d="M 576.673, 393.768 
	L 576.673, 187.476 
" />
<path d="M 580.146, 393.768 
	L 580.146, 187.476 
" />
<path d="M 583.618, 393.768 
	L 583.618, 187.476 
" />
<path d="M 587.091, 393.768 
	L 587.091, 187.476 
" />
<path d="M 590.563, 393.768 
	L 590.563, 187.476 
" />
<path d="M 594.036, 393.768 
	L 594.036, 187.476 
" />
<path d="M 597.508, 393.768 
	L 597.508, 187.476 
" />
<path d="M 600.980, 393.768 
	L 600.980, 187.476 
" />
<path d="M 604.453, 393.768 
	L 604.453, 187.476 
" />
<path d="M 607.925, 393.768 
	L 607.925, 187.476 
" />
<path d="M 611.398, 393.768 
	L 611.398, 187.476 
" />
<path d="M 614.870, 393.768 
	L 614.870, 187.476 
" />
<path d="M 618.343, 393.768 
	L 618.343, 187.476 
" />
<path d="M 621.815, 393.768 
	L 621.815, 187.476 
" />
<path d="M 625.287, 393.768 
	L 625.287, 187.476 
" />
<path d="M 628.760, 393.768 
	L 628.760, 187.476 
" />
<path d="M 632.232, 393.768 
	L 632.232, 187.476 
" />
<path d="M 635.705, 393.768 
	L 635.705, 187.476 
" />
<path d="M 639.177, 393.768 
	L 639.177, 187.476 
" />
<path d="M 642.650, 393.768 
	L 642.650, 187.476 
" />
<path d="M 646.122, 393.768 
	L 646.122, 187.476 
" />
<path d="M 649.595, 393.768 
	L 649.595, 187.476 
" />
<path d="M 653.067, 393.768 
	L 653.067, 187.476 
" />
<path d="M 656.539, 393.768 
	L 656.539, 187.476 
" />
<path d="M 660.012, 393.768 
	L 660.012, 187.476 
" />
<path d="M 663.484, 393.768 
	L 663.484, 187.476 
" />
<path d="M 666.957, 393.768 
	L 666.957, 187.476 
" />
<path d="M 670.429, 393.768 
	L 670.429, 187.476 
" />
<path d="M 673.902, 393.768 
	L 673.902, 187.476 
" />
<path d="M 677.374, 393.768 
	L 677.374, 187.476 
" />
<path d="M 680.847, 393.768 
	L 680.847, 187.476 
" />
<path d="M 684.319, 393.768 
	L 684.319, 187.476 
" />
<path d="M 687.791, 393.768 
	L 687.791, 187.476 
" />
<path d="M 691.264, 393.768 
	L 691.264, 187.476 
" />
<path d="M 694.736, 393.768 
	L 694.736, 187.476 
" />
<path d="M 698.209, 393.768 
	L 698.209, 187.476 
" />
<path d="M 701.681, 393.768 
	L 701.681, 187.476 
" />
<path d="M 705.154, 393.768 
	L 705.154, 187.476 
" />
<path d="M 708.626, 393.768 
	L 708.626, 187.476 
" />
<path d="M 712.099, 393.768 
	L 712.099, 187.476 
" />
<path d="M 715.571, 393.768 
	L 715.571, 187.476 
" />
<path d="M 719.043, 393.768 
	L 719.043, 187.476 
" />
<path d="M 722.516, 393.768 
	L 722.516, 187.476 
" />
<path d="M 725.988, 393.768 
	L 725.988, 187.476 
" />
<path d="M 729.461, 393.768 
	L 729.461, 187.476 
" />
<path d="M 732.933, 393.768 
	L 732.933, 187.476 
" />
<path d="M 736.406, 393.768 
	L 736.406, 187.476 
" />
<path d="M 739.878, 393.768 
	L 739.878, 187.476 
" />
<path d="M 743.351, 393.768 
	L 743.351, 187.476 
" />
<path d="M 746.823, 393.768 
	L 746.823, 187.476 
" />
<path d="M 750.295, 393.768 
	L 750.295, 187.476 
" />
<path d="M 753.768, 393.768 
	L 753.768, 187.476 
" />
<path d="M 757.240, 393.768 
	L 757.240, 187.476 
" />
<path d="M 760.713, 393.768 
	L 760.713, 187.476 
" />
<path d="M 764.185, 393.768 
	L 764.185, 187.476 
" />
<path d="M 767.658, 393.768 
	L 767.658, 187.476 
" />
<path d="M 771.130, 393.768 
	L 771.130, 187.476 
" />
<path d="M 774.602, 393.768 
	L 774.602, 187.476 
" />
<path d="M 778.075, 393.768 
	L 778.075, 187.476 
" />
<path d="M 781.547, 393.768 
	L 781.547, 187.476 
" />
<path d="M 785.020, 393.768 
	L 785.020, 187.476 
" />
<path d="M 788.492, 393.768 
	L 788.492, 187.476 
" />
<path d="M 791.965, 393.768 
	L 791.965, 187.476 
" />
<path d="M 795.437, 393.768 
	L 795.437, 187.476 
" />
<path d="M 798.910, 393.768 
	L 798.910, 187.476 
" />
</g>
</svg>
