<?xml version="1.0" encoding="UTF-8" standalone="no" ?>
<svg width="100%" height="100%" viewBox="0 0 1414.063 1199.445" xmlns="http://www.w3.org/2000/svg"><g>
</g><g style="stroke:rgb(0,0,0); fill:none; stroke-width:1.000mm" >
</g><g style="stroke:rgb(0,255,0); fill:none; stroke-width:0.100mm" >
<path d="M 0.001, 1199.444 
	L 0.000, 1199.445 
	L 0.000, 490.784 
	L 708.662, 490.784 
	L 708.662, 1199.445 
	L 0.000, 1199.445 
" />
</g><g style="stroke:rgb(0,0,0); fill:none; stroke-width:0.100mm" >
<path d="M 10.772, 1199.480 
	L 10.772, 1199.480 
	L 10.772, 708.732 
	L 716.173, 708.732 
	L 716.173, 1199.480 
	L 10.772, 1199.480 
" />
<path d="M 10.772, 1199.444 
	L 10.772, 1199.445 
	L 10.772, 708.697 
" />
<path d="M 15.379, 1199.444 
	L 15.378, 1199.445 
	L 15.378, 708.697 
" />
<path d="M 19.985, 1199.444 
	L 19.984, 1199.445 
	L 19.984, 708.697 
" />
<path d="M 24.591, 1199.444 
	L 24.591, 1199.445 
	L 24.591, 708.697 
" />
<path d="M 29.198, 1199.444 
	L 29.197, 1199.445 
	L 29.197, 708.697 
" />
<path d="M 33.804, 1199.444 
	L 33.803, 1199.445 
	L 33.803, 708.697 
" />
<path d="M 38.410, 1199.444 
	L 38.409, 1199.445 
	L 38.409, 708.697 
" />
<path d="M 43.016, 1199.444 
	L 43.016, 1199.445 
	L 43.016, 708.697 
" />
<path d="M 47.623, 1199.444 
	L 47.622, 1199.445 
	L 47.622, 708.697 
" />
<path d="M 52.229, 1199.444 
	L 52.228, 1199.445 
	L 52.228, 708.697 
" />
<path d="M 56.835, 1199.444 
	L 56.835, 1199.445 
	L 56.835, 708.697 
" />
<path d="M 61.442, 1199.444 
	L 61.441, 1199.445 
	L 61.441, 708.697 
" />
<path d="M 66.048, 1199.444 
	L 66.047, 1199.445 
	L 66.047, 708.697 
" />
<path d="M 70.654, 1199.444 
	L 70.654, 1199.445 
	L 70.654, 708.697 
" />
<path d="M 75.261, 1199.444 
	L 75.260, 1199.445 
	L 75.260, 708.697 
" />
<path d="M 79.867, 1199.444 
	L 79.866, 1199.445 
	L 79.866, 708.697 
" />
<path d="M 84.473, 1199.444 
	L 84.472, 1199.445 
	L 84.472, 708.697 
" />
<path d="M 89.079, 1199.444 
	L 89.079, 1199.445 
	L 89.079, 708.697 
" />
<path d="M 93.686, 1199.444 
	L 93.685, 1199.445 
	L 93.685, 708.697 
" />
<path d="M 98.292, 1199.444 
	L 98.291, 1199.445 
	L 98.291, 708.697 
" />
<path d="M 102.898, 1199.444 
	L 102.898, 1199.445 
	L 102.898, 708.697 
" />
<path d="M 107.505, 1199.444 
	L 107.504, 1199.445 
	L 107.504, 708.697 
" />
<path d="M 112.111, 1199.444 
	L 112.110, 1199.445 
	L 112.110, 708.697 
" />
<path d="M 116.717, 1199.444 
	L 116.717, 1199.445 
	L 116.717, 708.697 
" />
<path d="M 121.324, 1199.444 
	L 121.323, 1199.445 
	L 121.323, 708.697 
" />
<path d="M 125.930, 1199.444 
	L 125.929, 1199.445 
	L 125.929, 708.697 
" />
<path d="M 130.536, 1199.444 
	L 130.535, 1199.445 
	L 130.535, 708.697 
" />
<path d="M 135.142, 1199.444 
	L 135.142, 1199.445 
	L 135.142, 708.697 
" />
<path d="M 139.749, 1199.444 
	L 139.748, 1199.445 
	L 139.748, 708.697 
" />
<path d="M 144.355, 1199.444 
	L 144.354, 1199.445 
	L 144.354, 708.697 
" />
<path d="M 148.961, 1199.444 
	L 148.961, 1199.445 
	L 148.961, 708.697 
" />
<path d="M 153.568, 1199.444 
	L 153.567, 1199.445 
	L 153.567, 708.697 
" />
<path d="M 158.174, 1199.444 
	L 158.173, 1199.445 
	L 158.173, 708.697 
" />
<path d="M 162.780, 1199.444 
	L 162.780, 1199.445 
	L 162.780, 708.697 
" />
<path d="M 167.387, 1199.444 
	L 167.386, 1199.445 
	L 167.386, 708.697 
" />
<path d="M 171.993, 1199.444 
	L 171.992, 1199.445 
	L 171.992, 708.697 
" />
<path d="M 176.599, 1199.444 
	L 176.598, 1199.445 
	L 176.598, 708.697 
" />
<path d="M 181.205, 1199.444 
	L 181.205, 1199.445 
	L 181.205, 708.697 
" />
<path d="M 185.812, 1199.444 
	L 185.811, 1199.445 
	L 185.811, 708.697 
" />
<path d="M 190.418, 1199.444 
	L 190.417, 1199.445 
	L 190.417, 708.697 
" />
<path d="M 195.024, 1199.444 
	L 195.024, 1199.445 
	L 195.024, 708.697 
" />
<path d="M 199.631, 1199.444 
	L 199.630, 1199.445 
	L 199.630, 708.697 
" />
<path d="M 204.237, 1199.444 
	L 204.236, 1199.445 
	L 204.236, 708.697 
" />
<path d="M 208.843, 1199.444 
	L 208.843, 1199.445 
	L 208.843, 708.697 
" />
<path d="M 213.450, 1199.444 
	L 213.449, 1199.445 
	L 213.449, 708.697 
" />
<path d="M 218.056, 1199.444 
	L 218.055, 1199.445 
	L 218.055, 708.697 
" />
<path d="M 222.662, 1199.444 
	L 222.661, 1199.445 
	L 222.661, 708.697 
" />
<path d="M 227.268, 1199.444 
	L 227.268, 1199.445 
	L 227.268, 708.697 
" />
<path d="M 231.875, 1199.444 
	L 231.874, 1199.445 
	L 231.874, 708.697 
" />
<path d="M 236.481, 1199.444 
	L 236.480, 1199.445 
	L 236.480, 708.697 
" />
<path d="M 241.087, 1199.444 
	L 241.087, 1199.445 
	L 241.087, 708.697 
" />
<path d="M 245.694, 1199.444 
	L 245.693, 1199.445 
	L 245.693, 708.697 
" />
<path d="M 250.300, 1199.444 
	L 250.299, 1199.445 
	L 250.299, 708.697 
" />
<path d="M 254.906, 1199.444 
	L 254.906, 1199.445 
	L 254.906, 708.697 
" />
<path d="M 259.513, 1199.444 
	L 259.512, 1199.445 
	L 259.512, 708.697 
" />
<path d="M 264.119, 1199.444 
	L 264.118, 1199.445 
	L 264.118, 708.697 
" />
<path d="M 268.725, 1199.444 
	L 268.724, 1199.445 
	L 268.724, 708.697 
" />
<path d="M 273.331, 1199.444 
	L 273.331, 1199.445 
	L 273.331, 708.697 
" />
<path d="M 277.938, 1199.444 
	L 277.937, 1199.445 
	L 277.937, 708.697 
" />
<path d="M 282.544, 1199.444 
	L 282.543, 1199.445 
	L 282.543, 708.697 
" />
<path d="M 287.150, 1199.444 
	L 287.150, 1199.445 
	L 287.150, 708.697 
" />
<path d="M 291.757, 1199.444 
	L 291.756, 1199.445 
	L 291.756, 708.697 
" />
<path d="M 296.363, 1199.444 
	L 296.362, 1199.445 
	L 296.362, 708.697 
" />
<path d="M 300.969, 1199.444 
	L 300.969, 1199.445 
	L 300.969, 708.697 
" />
<path d="M 305.576, 1199.444 
	L 305.575, 1199.445 
	L 305.575, 708.697 
" />
<path d="M 310.182, 1199.444 
	L 310.181, 1199.445 
	L 310.181, 708.697 
" />
<path d="M 314.788, 1199.444 
	L 314.787, 1199.445 
	L 314.787, 708.697 
" />
<path d="M 319.394, 1199.444 
	L 319.394, 1199.445 
	L 319.394, 708.697 
" />
<path d="M 324.001, 1199.444 
	L 324.000, 1199.445 
	L 324.000, 708.697 
" />
<path d="M 328.607, 1199.444 
	L 328.606, 1199.445 
	L 328.606, 708.697 
" />
<path d="M 333.213, 1199.444 
	L 333.213, 1199.445 
	L 333.213, 708.697 
" />
<path d="M 337.820, 1199.444 
	L 337.819, 1199.445 
	L 337.819, 708.697 
" />
<path d="M 342.426, 1199.444 
	L 342.425, 1199.445 
	L 342.425, 708.697 
" />
<path d="M 347.032, 1199.444 
	L 347.032, 1199.445 
	L 347.032, 708.697 
" />
<path d="M 351.639, 1199.444 
	L 351.638, 1199.445 
	L 351.638, 708.697 
" />
<path d="M 356.245, 1199.444 
	L 356.244, 1199.445 
	L 356.244, 708.697 
" />
<path d="M 360.851, 1199.444 
	L 360.850, 1199.445 
	L 360.850, 708.697 
" />
<path d="M 365.457, 1199.444 
	L 365.457, 1199.445 
	L 365.457, 708.697 
" />
<path d="M 370.064, 1199.444 
	L 370.063, 1199.445 
	L 370.063, 708.697 
" />
<path d="M 374.670, 1199.444 
	L 374.669, 1199.445 
	L 374.669, 708.697 
" />
<path d="M 379.276, 1199.444 
	L 379.276, 1199.445 
	L 379.276, 708.697 
" />
<path d="M 383.883, 1199.444 
	L 383.882, 1199.445 
	L 383.882, 708.697 
" />
<path d="M 388.489, 1199.444 
	L 388.488, 1199.445 
	L 388.488, 708.697 
" />
<path d="M 393.095, 1199.444 
	L 393.095, 1199.445 
	L 393.095, 708.697 
" />
<path d="M 397.702, 1199.444 
	L 397.701, 1199.445 
	L 397.701, 708.697 
" />
<path d="M 402.308, 1199.444 
	L 402.307, 1199.445 
	L 402.307, 708.697 
" />
<path d="M 406.914, 1199.444 
	L 406.913, 1199.445 
	L 406.913, 708.697 
" />
<path d="M 411.520, 1199.444 
	L 411.520, 1199.445 
	L 411.520, 708.697 
" />
<path d="M 416.127, 1199.444 
	L 416.126, 1199.445 
	L 416.126, 708.697 
" />
<path d="M 420.733, 1199.444 
	L 420.732, 1199.445 
	L 420.732, 708.697 
" />
<path d="M 425.339, 1199.444 
	L 425.339, 1199.445 
	L 425.339, 708.697 
" />
<path d="M 429.946, 1199.444 
	L 429.945, 1199.445 
	L 429.945, 708.697 
" />
<path d="M 434.552, 1199.444 
	L 434.551, 1199.445 
	L 434.551, 708.697 
" />
<path d="M 439.158, 1199.444 
	L 439.158, 1199.445 
	L 439.158, 708.697 
" />
<path d="M 443.765, 1199.444 
	L 443.764, 1199.445 
	L 443.764, 708.697 
" />
<path d="M 448.371, 1199.444 
	L 448.370, 1199.445 
	L 448.370, 708.697 
" />
<path d="M 452.977, 1199.444 
	L 452.976, 1199.445 
	L 452.976, 708.697 
" />
<path d="M 457.583, 1199.444 
	L 457.583, 1199.445 
	L 457.583, 708.697 
" />
<path d="M 462.190, 1199.444 
	L 462.189, 1199.445 
	L 462.189, 708.697 
" />
<path d="M 466.796, 1199.444 
	L 466.795, 1199.445 
	L 466.795, 708.697 
" />
<path d="M 471.402, 1199.444 
	L 471.402, 1199.445 
	L 471.402, 708.697 
" />
<path d="M 476.009, 1199.444 
	L 476.008, 1199.445 
	L 476.008, 708.697 
" />
<path d="M 480.615, 1199.444 
	L 480.614, 1199.445 
	L 480.614, 708.697 
" />
<path d="M 485.221, 1199.444 
	L 485.221, 1199.445 
	L 485.221, 708.697 
" />
<path d="M 489.828, 1199.444 
	L 489.827, 1199.445 
	L 489.827, 708.697 
" />
<path d="M 494.434, 1199.444 
	L 494.433, 1199.445 
	L 494.433, 708.697 
" />
<path d="M 499.040, 1199.444 
	L 499.039, 1199.445 
	L 499.039, 708.697 
" />
<path d="M 503.646, 1199.444 
	L 503.646, 1199.445 
	L 503.646, 708.697 
" />
<path d="M 508.253, 1199.444 
	L 508.252, 1199.445 
	L 508.252, 708.697 
" />
<path d="M 512.859, 1199.444 
	L 512.858, 1199.445 
	L 512.858, 708.697 
" />
<path d="M 517.465, 1199.444 
	L 517.465, 1199.445 
	L 517.465, 708.697 
" />
<path d="M 522.072, 1199.444 
	L 522.071, 1199.445 
	L 522.071, 708.697 
" />
<path d="M 526.678, 1199.444 
	L 526.677, 1199.445 
	L 526.677, 708.697 
" />
<path d="M 531.284, 1199.444 
	L 531.284, 1199.445 
	L 531.284, 708.697 
" />
<path d="M 535.891, 1199.444 
	L 535.890, 1199.445 
	L 535.890, 708.697 
" />
<path d="M 540.497, 1199.444 
	L 540.496, 1199.445 
	L 540.496, 708.697 
" />
<path d="M 545.103, 1199.444 
	L 545.102, 1199.445 
	L 545.102, 708.697 
" />
<path d="M 549.709, 1199.444 
	L 549.709, 1199.445 
	L 549.709, 708.697 
" />
<path d="M 554.316, 1199.444 
	L 554.315, 1199.445 
	L 554.315, 708.697 
" />
<path d="M 558.922, 1199.444 
	L 558.921, 1199.445 
	L 558.921, 708.697 
" />
<path d="M 563.528, 1199.444 
	L 563.528, 1199.445 
	L 563.528, 708.697 
" />
<path d="M 568.135, 1199.444 
	L 568.134, 1199.445 
	L 568.134, 708.697 
" />
<path d="M 572.741, 1199.444 
	L 572.740, 1199.445 
	L 572.740, 708.697 
" />
<path d="M 577.347, 1199.444 
	L 577.347, 1199.445 
	L 577.347, 708.697 
" />
<path d="M 581.954, 1199.444 
	L 581.953, 1199.445 
	L 581.953, 708.697 
" />
<path d="M 586.560, 1199.444 
	L 586.559, 1199.445 
	L 586.559, 708.697 
" />
<path d="M 591.166, 1199.444 
	L 591.165, 1199.445 
	L 591.165, 708.697 
" />
<path d="M 595.772, 1199.444 
	L 595.772, 1199.445 
	L 595.772, 708.697 
" />
<path d="M 600.379, 1199.444 
	L 600.378, 1199.445 
	L 600.378, 708.697 
" />
<path d="M 604.985, 1199.444 
	L 604.984, 1199.445 
	L 604.984, 708.697 
" />
<path d="M 609.591, 1199.444 
	L 609.591, 1199.445 
	L 609.591, 708.697 
" />
<path d="M 614.198, 1199.444 
	L 614.197, 1199.445 
	L 614.197, 708.697 
" />
<path d="M 618.804, 1199.444 
	L 618.803, 1199.445 
	L 618.803, 708.697 
" />
<path d="M 623.410, 1199.444 
	L 623.410, 1199.445 
	L 623.410, 708.697 
" />
<path d="M 628.017, 1199.444 
	L 628.016, 1199.445 
	L 628.016, 708.697 
" />
<path d="M 632.623, 1199.444 
	L 632.622, 1199.445 
	L 632.622, 708.697 
" />
<path d="M 637.229, 1199.444 
	L 637.228, 1199.445 
	L 637.228, 708.697 
" />
<path d="M 641.835, 1199.444 
	L 641.835, 1199.445 
	L 641.835, 708.697 
" />
<path d="M 646.442, 1199.444 
	L 646.441, 1199.445 
	L 646.441, 708.697 
" />
<path d="M 651.048, 1199.444 
	L 651.047, 1199.445 
	L 651.047, 708.697 
" />
<path d="M 655.654, 1199.444 
	L 655.654, 1199.445 
	L 655.654, 708.697 
" />
<path d="M 660.261, 1199.444 
	L 660.260, 1199.445 
	L 660.260, 708.697 
" />
<path d="M 664.867, 1199.444 
	L 664.866, 1199.445 
	L 664.866, 708.697 
" />
<path d="M 669.473, 1199.444 
	L 669.473, 1199.445 
	L 669.473, 708.697 
" />
<path d="M 674.080, 1199.444 
	L 674.079, 1199.445 
	L 674.079, 708.697 
" />
<path d="M 678.686, 1199.444 
	L 678.685, 1199.445 
	L 678.685, 708.697 
" />
<path d="M 683.292, 1199.444 
	L 683.291, 1199.445 
	L 683.291, 708.697 
" />
<path d="M 687.898, 1199.444 
	L 687.898, 1199.445 
	L 687.898, 708.697 
" />
<path d="M 692.505, 1199.444 
	L 692.504, 1199.445 
	L 692.504, 708.697 
" />
<path d="M 697.111, 1199.444 
	L 697.110, 1199.445 
	L 697.110, 708.697 
" />
<path d="M 701.717, 1199.444 
	L 701.717, 1199.445 
	L 701.717, 708.697 
" />
<path d="M 706.324, 1199.444 
	L 706.323, 1199.445 
	L 706.323, 708.697 
" />
<path d="M 710.930, 1199.444 
	L 710.929, 1199.445 
	L 710.929, 708.697 
" />
</g><g style="stroke:rgb(255,0,0); fill:none; stroke-width:0.100mm" >
<path d="M 10.772, 217.984 
	L 10.772, 217.984 
	L 10.772, 0.071 
	L 716.173, 0.071 
	L 716.173, 217.984 
	L 10.772, 217.984 
" />
<path d="M 10.772, 217.948 
	L 10.772, 217.949 
	L 10.772, 0.035 
" />
<path d="M 15.379, 217.948 
	L 15.378, 217.949 
	L 15.378, 0.035 
" />
<path d="M 19.985, 217.948 
	L 19.984, 217.949 
	L 19.984, 0.035 
" />
<path d="M 24.591, 217.948 
	L 24.591, 217.949 
	L 24.591, 0.035 
" />
<path d="M 29.198, 217.948 
	L 29.197, 217.949 
	L 29.197, 0.035 
" />
<path d="M 33.804, 217.948 
	L 33.803, 217.949 
	L 33.803, 0.035 
" />
<path d="M 38.410, 217.948 
	L 38.409, 217.949 
	L 38.409, 0.035 
" />
<path d="M 43.016, 217.948 
	L 43.016, 217.949 
	L 43.016, 0.035 
" />
<path d="M 47.623, 217.948 
	L 47.622, 217.949 
	L 47.622, 0.035 
" />
<path d="M 52.229, 217.948 
	L 52.228, 217.949 
	L 52.228, 0.035 
" />
<path d="M 56.835, 217.948 
	L 56.835, 217.949 
	L 56.835, 0.035 
" />
<path d="M 61.442, 217.948 
	L 61.441, 217.949 
	L 61.441, 0.035 
" />
<path d="M 66.048, 217.948 
	L 66.047, 217.949 
	L 66.047, 0.035 
" />
<path d="M 70.654, 217.948 
	L 70.654, 217.949 
	L 70.654, 0.035 
" />
<path d="M 75.261, 217.948 
	L 75.260, 217.949 
	L 75.260, 0.035 
" />
<path d="M 79.867, 217.948 
	L 79.866, 217.949 
	L 79.866, 0.035 
" />
<path d="M 84.473, 217.948 
	L 84.472, 217.949 
	L 84.472, 0.035 
" />
<path d="M 89.079, 217.948 
	L 89.079, 217.949 
	L 89.079, 0.035 
" />
<path d="M 93.686, 217.948 
	L 93.685, 217.949 
	L 93.685, 0.035 
" />
<path d="M 98.292, 217.948 
	L 98.291, 217.949 
	L 98.291, 0.035 
" />
<path d="M 102.898, 217.948 
	L 102.898, 217.949 
	L 102.898, 0.035 
" />
<path d="M 107.505, 217.948 
	L 107.504, 217.949 
	L 107.504, 0.035 
" />
<path d="M 112.111, 217.948 
	L 112.110, 217.949 
	L 112.110, 0.035 
" />
<path d="M 116.717, 217.948 
	L 116.717, 217.949 
	L 116.717, 0.035 
" />
<path d="M 121.324, 217.948 
	L 121.323, 217.949 
	L 121.323, 0.035 
" />
<path d="M 125.930, 217.948 
	L 125.929, 217.949 
	L 125.929, 0.035 
" />
<path d="M 130.536, 217.948 
	L 130.535, 217.949 
	L 130.535, 0.035 
" />
<path d="M 135.142, 217.948 
	L 135.142, 217.949 
	L 135.142, 0.035 
" />
<path d="M 139.749, 217.948 
	L 139.748, 217.949 
	L 139.748, 0.035 
" />
<path d="M 144.355, 217.948 
	L 144.354, 217.949 
	L 144.354, 0.035 
" />
<path d="M 148.961, 217.948 
	L 148.961, 217.949 
	L 148.961, 0.035 
" />
<path d="M 153.568, 217.948 
	L 153.567, 217.949 
	L 153.567, 0.035 
" />
<path d="M 158.174, 217.948 
	L 158.173, 217.949 
	L 158.173, 0.035 
" />
<path d="M 162.780, 217.948 
	L 162.780, 217.949 
	L 162.780, 0.035 
" />
<path d="M 167.387, 217.948 
	L 167.386, 217.949 
	L 167.386, 0.035 
" />
<path d="M 171.993, 217.948 
	L 171.992, 217.949 
	L 171.992, 0.035 
" />
<path d="M 176.599, 217.948 
	L 176.598, 217.949 
	L 176.598, 0.035 
" />
<path d="M 181.205, 217.948 
	L 181.205, 217.949 
	L 181.205, 0.035 
" />
<path d="M 185.812, 217.948 
	L 185.811, 217.949 
	L 185.811, 0.035 
" />
<path d="M 190.418, 217.948 
	L 190.417, 217.949 
	L 190.417, 0.035 
" />
<path d="M 195.024, 217.948 
	L 195.024, 217.949 
	L 195.024, 0.035 
" />
<path d="M 199.631, 217.948 
	L 199.630, 217.949 
	L 199.630, 0.035 
" />
<path d="M 204.237, 217.948 
	L 204.236, 217.949 
	L 204.236, 0.035 
" />
<path d="M 208.843, 217.948 
	L 208.843, 217.949 
	L 208.843, 0.035 
" />
<path d="M 213.450, 217.948 
	L 213.449, 217.949 
	L 213.449, 0.035 
" />
<path d="M 218.056, 217.948 
	L 218.055, 217.949 
	L 218.055, 0.035 
" />
<path d="M 222.662, 217.948 
	L 222.661, 217.949 
	L 222.661, 0.035 
" />
<path d="M 227.268, 217.948 
	L 227.268, 217.949 
	L 227.268, 0.035 
" />
<path d="M 231.875, 217.948 
	L 231.874, 217.949 
	L 231.874, 0.035 
" />
<path d="M 236.481, 217.948 
	L 236.480, 217.949 
	L 236.480, 0.035 
" />
<path d="M 241.087, 217.948 
	L 241.087, 217.949 
	L 241.087, 0.035 
" />
<path d="M 245.694, 217.948 
	L 245.693, 217.949 
	L 245.693, 0.035 
" />
<path d="M 250.300, 217.948 
	L 250.299, 217.949 
	L 250.299, 0.035 
" />
<path d="M 254.906, 217.948 
	L 254.906, 217.949 
	L 254.906, 0.035 
" />
<path d="M 259.513, 217.948 
	L 259.512, 217.949 
	L 259.512, 0.035 
" />
<path d="M 264.119, 217.948 
	L 264.118, 217.949 
	L 264.118, 0.035 
" />
<path d="M 268.725, 217.948 
	L 268.724, 217.949 
	L 268.724, 0.035 
" />
<path d="M 273.331, 217.948 
	L 273.331, 217.949 
	L 273.331, 0.035 
" />
<path d="M 277.938, 217.948 
	L 277.937, 217.949 
	L 277.937, 0.035 
" />
<path d="M 282.544, 217.948 
	L 282.543, 217.949 
	L 282.543, 0.035 
" />
<path d="M 287.150, 217.948 
	L 287.150, 217.949 
	L 287.150, 0.035 
" />
<path d="M 291.757, 217.948 
	L 291.756, 217.949 
	L 291.756, 0.035 
" />
<path d="M 296.363, 217.948 
	L 296.362, 217.949 
	L 296.362, 0.035 
" />
<path d="M 300.969, 217.948 
	L 300.969, 217.949 
	L 300.969, 0.035 
" />
<path d="M 305.576, 217.948 
	L 305.575, 217.949 
	L 305.575, 0.035 
" />
<path d="M 310.182, 217.948 
	L 310.181, 217.949 
	L 310.181, 0.035 
" />
<path d="M 314.788, 217.948 
	L 314.787, 217.949 
	L 314.787, 0.035 
" />
<path d="M 319.394, 217.948 
	L 319.394, 217.949 
	L 319.394, 0.035 
" />
<path d="M 324.001, 217.948 
	L 324.000, 217.949 
	L 324.000, 0.035 
" />
<path d="M 328.607, 217.948 
	L 328.606, 217.949 
	L 328.606, 0.035 
" />
<path d="M 333.213, 217.948 
	L 333.213, 217.949 
	L 333.213, 0.035 
" />
<path d="M 337.820, 217.948 
	L 337.819, 217.949 
	L 337.819, 0.035 
" />
<path d="M 342.426, 217.948 
	L 342.425, 217.949 
	L 342.425, 0.035 
" />
<path d="M 347.032, 217.948 
	L 347.032, 217.949 
	L 347.032, 0.035 
" />
<path d="M 351.639, 217.948 
	L 351.638, 217.949 
	L 351.638, 0.035 
" />
<path d="M 356.245, 217.948 
	L 356.244, 217.949 
	L 356.244, 0.035 
" />
<path d="M 360.851, 217.948 
	L 360.850, 217.949 
	L 360.850, 0.035 
" />
<path d="M 365.457, 217.948 
	L 365.457, 217.949 
	L 365.457, 0.035 
" />
<path d="M 370.064, 217.948 
	L 370.063, 217.949 
	L 370.063, 0.035 
" />
<path d="M 374.670, 217.948 
	L 374.669, 217.949 
	L 374.669, 0.035 
" />
<path d="M 379.276, 217.948 
	L 379.276, 217.949 
	L 379.276, 0.035 
" />
<path d="M 383.883, 217.948 
	L 383.882, 217.949 
	L 383.882, 0.035 
" />
<path d="M 388.489, 217.948 
	L 388.488, 217.949 
	L 388.488, 0.035 
" />
<path d="M 393.095, 217.948 
	L 393.095, 217.949 
	L 393.095, 0.035 
" />
<path d="M 397.702, 217.948 
	L 397.701, 217.949 
	L 397.701, 0.035 
" />
<path d="M 402.308, 217.948 
	L 402.307, 217.949 
	L 402.307, 0.035 
" />
<path d="M 406.914, 217.948 
	L 406.913, 217.949 
	L 406.913, 0.035 
" />
<path d="M 411.520, 217.948 
	L 411.520, 217.949 
	L 411.520, 0.035 
" />
<path d="M 416.127, 217.948 
	L 416.126, 217.949 
	L 416.126, 0.035 
" />
<path d="M 420.733, 217.948 
	L 420.732, 217.949 
	L 420.732, 0.035 
" />
<path d="M 425.339, 217.948 
	L 425.339, 217.949 
	L 425.339, 0.035 
" />
<path d="M 429.946, 217.948 
	L 429.945, 217.949 
	L 429.945, 0.035 
" />
<path d="M 434.552, 217.948 
	L 434.551, 217.949 
	L 434.551, 0.035 
" />
<path d="M 439.158, 217.948 
	L 439.158, 217.949 
	L 439.158, 0.035 
" />
<path d="M 443.765, 217.948 
	L 443.764, 217.949 
	L 443.764, 0.035 
" />
<path d="M 448.371, 217.948 
	L 448.370, 217.949 
	L 448.370, 0.035 
" />
<path d="M 452.977, 217.948 
	L 452.976, 217.949 
	L 452.976, 0.035 
" />
<path d="M 457.583, 217.948 
	L 457.583, 217.949 
	L 457.583, 0.035 
" />
<path d="M 462.190, 217.948 
	L 462.189, 217.949 
	L 462.189, 0.035 
" />
<path d="M 466.796, 217.948 
	L 466.795, 217.949 
	L 466.795, 0.035 
" />
<path d="M 471.402, 217.948 
	L 471.402, 217.949 
	L 471.402, 0.035 
" />
<path d="M 476.009, 217.948 
	L 476.008, 217.949 
	L 476.008, 0.035 
" />
<path d="M 480.615, 217.948 
	L 480.614, 217.949 
	L 480.614, 0.035 
" />
<path d="M 485.221, 217.948 
	L 485.221, 217.949 
	L 485.221, 0.035 
" />
<path d="M 489.828, 217.948 
	L 489.827, 217.949 
	L 489.827, 0.035 
" />
<path d="M 494.434, 217.948 
	L 494.433, 217.949 
	L 494.433, 0.035 
" />
<path d="M 499.040, 217.948 
	L 499.039, 217.949 
	L 499.039, 0.035 
" />
<path d="M 503.646, 217.948 
	L 503.646, 217.949 
	L 503.646, 0.035 
" />
<path d="M 508.253, 217.948 
	L 508.252, 217.949 
	L 508.252, 0.035 
" />
<path d="M 512.859, 217.948 
	L 512.858, 217.949 
	L 512.858, 0.035 
" />
<path d="M 517.465, 217.948 
	L 517.465, 217.949 
	L 517.465, 0.035 
" />
<path d="M 522.072, 217.948 
	L 522.071, 217.949 
	L 522.071, 0.035 
" />
<path d="M 526.678, 217.948 
	L 526.677, 217.949 
	L 526.677, 0.035 
" />
<path d="M 531.284, 217.948 
	L 531.284, 217.949 
	L 531.284, 0.035 
" />
<path d="M 535.891, 217.948 
	L 535.890, 217.949 
	L 535.890, 0.035 
" />
<path d="M 540.497, 217.948 
	L 540.496, 217.949 
	L 540.496, 0.035 
" />
<path d="M 545.103, 217.948 
	L 545.102, 217.949 
	L 545.102, 0.035 
" />
<path d="M 549.709, 217.948 
	L 549.709, 217.949 
	L 549.709, 0.035 
" />
<path d="M 554.316, 217.948 
	L 554.315, 217.949 
	L 554.315, 0.035 
" />
<path d="M 558.922, 217.948 
	L 558.921, 217.949 
	L 558.921, 0.035 
" />
<path d="M 563.528, 217.948 
	L 563.528, 217.949 
	L 563.528, 0.035 
" />
<path d="M 568.135, 217.948 
	L 568.134, 217.949 
	L 568.134, 0.035 
" />
<path d="M 572.741, 217.948 
	L 572.740, 217.949 
	L 572.740, 0.035 
" />
<path d="M 577.347, 217.948 
	L 577.347, 217.949 
	L 577.347, 0.035 
" />
<path d="M 581.954, 217.948 
	L 581.953, 217.949 
	L 581.953, 0.035 
" />
<path d="M 586.560, 217.948 
	L 586.559, 217.949 
	L 586.559, 0.035 
" />
<path d="M 591.166, 217.948 
	L 591.165, 217.949 
	L 591.165, 0.035 
" />
<path d="M 595.772, 217.948 
	L 595.772, 217.949 
	L 595.772, 0.035 
" />
<path d="M 600.379, 217.948 
	L 600.378, 217.949 
	L 600.378, 0.035 
" />
<path d="M 604.985, 217.948 
	L 604.984, 217.949 
	L 604.984, 0.035 
" />
<path d="M 609.591, 217.948 
	L 609.591, 217.949 
	L 609.591, 0.035 
" />
<path d="M 614.198, 217.948 
	L 614.197, 217.949 
	L 614.197, 0.035 
" />
<path d="M 618.804, 217.948 
	L 618.803, 217.949 
	L 618.803, 0.035 
" />
<path d="M 623.410, 217.948 
	L 623.410, 217.949 
	L 623.410, 0.035 
" />
<path d="M 628.017, 217.948 
	L 628.016, 217.949 
	L 628.016, 0.035 
" />
<path d="M 632.623, 217.948 
	L 632.622, 217.949 
	L 632.622, 0.035 
" />
<path d="M 637.229, 217.948 
	L 637.228, 217.949 
	L 637.228, 0.035 
" />
<path d="M 641.835, 217.948 
	L 641.835, 217.949 
	L 641.835, 0.035 
" />
<path d="M 646.442, 217.948 
	L 646.441, 217.949 
	L 646.441, 0.035 
" />
<path d="M 651.048, 217.948 
	L 651.047, 217.949 
	L 651.047, 0.035 
" />
<path d="M 655.654, 217.948 
	L 655.654, 217.949 
	L 655.654, 0.035 
" />
<path d="M 660.261, 217.948 
	L 660.260, 217.949 
	L 660.260, 0.035 
" />
<path d="M 664.867, 217.948 
	L 664.866, 217.949 
	L 664.866, 0.035 
" />
<path d="M 669.473, 217.948 
	L 669.473, 217.949 
	L 669.473, 0.035 
" />
<path d="M 674.080, 217.948 
	L 674.079, 217.949 
	L 674.079, 0.035 
" />
<path d="M 678.686, 217.948 
	L 678.685, 217.949 
	L 678.685, 0.035 
" />
<path d="M 683.292, 217.948 
	L 683.291, 217.949 
	L 683.291, 0.035 
" />
<path d="M 687.898, 217.948 
	L 687.898, 217.949 
	L 687.898, 0.035 
" />
<path d="M 692.505, 217.948 
	L 692.504, 217.949 
	L 692.504, 0.035 
" />
<path d="M 697.111, 217.948 
	L 697.110, 217.949 
	L 697.110, 0.035 
" />
<path d="M 701.717, 217.948 
	L 701.717, 217.949 
	L 701.717, 0.035 
" />
<path d="M 706.324, 217.948 
	L 706.323, 217.949 
	L 706.323, 0.035 
" />
<path d="M 710.930, 217.948 
	L 710.929, 217.949 
	L 710.929, 0.035 
" />
</g><g style="stroke:rgb(0,255,0); fill:none; stroke-width:0.100mm" >
<path d="M 1410.804, 217.984 
	L 1410.803, 217.984 
	L 1410.803, 0.071 
	L 1414.063, 0.071 
	L 1414.063, 217.984 
	L 1410.803, 217.984 
" />
</g><g style="stroke:rgb(0,0,255); fill:none; stroke-width:0.100mm" >
<path d="M 1410.804, 1199.480 
	L 1410.803, 1199.480 
	L 1410.803, 708.732 
	L 1414.063, 708.732 
	L 1414.063, 1199.480 
	L 1410.803, 1199.480 
" />
</g>
</svg>
