<?xml version="1.0" encoding="UTF-8" standalone="no" ?>
<svg width="100%" height="100%" viewBox="0 0 708.662 708.662" xmlns="http://www.w3.org/2000/svg"><g>
</g><g style="stroke:rgb(0,0,0); fill:none; stroke-width:1.000mm" >
</g><g style="stroke:rgb(0,255,0); fill:none; stroke-width:0.100mm" >
<path d="M 0.001, 708.662 
	L 0.000, 708.662 
	L 0.000, 0.001 
	L 708.662, 0.001 
	L 708.662, 708.662 
	L 0.000, 708.662 
" />
</g><g style="stroke:rgb(0,0,0); fill:none; stroke-width:0.100mm" >
<path d="M 0.001, 708.662 
	L 0.000, 708.662 
	L 0.000, 0.001 
	L 708.662, 0.001 
	L 708.662, 708.662 
	L 0.000, 708.662 
" />
<path d="M 0.001, 708.662 
	L 0.000, 708.662 
	L 0.000, 0.001 
" />
<path d="M 4.607, 708.662 
	L 4.606, 708.662 
	L 4.606, 0.001 
" />
<path d="M 9.213, 708.662 
	L 9.213, 708.662 
	L 9.213, 0.001 
" />
<path d="M 13.820, 708.662 
	L 13.819, 708.662 
	L 13.819, 0.001 
" />
<path d="M 18.426, 708.662 
	L 18.425, 708.662 
	L 18.425, 0.001 
" />
<path d="M 23.032, 708.662 
	L 23.031, 708.662 
	L 23.031, 0.001 
" />
<path d="M 27.639, 708.662 
	L 27.638, 708.662 
	L 27.638, 0.001 
" />
<path d="M 32.245, 708.662 
	L 32.244, 708.662 
	L 32.244, 0.001 
" />
<path d="M 36.851, 708.662 
	L 36.850, 708.662 
	L 36.850, 0.001 
" />
<path d="M 41.457, 708.662 
	L 41.457, 708.662 
	L 41.457, 0.001 
" />
<path d="M 46.064, 708.662 
	L 46.063, 708.662 
	L 46.063, 0.001 
" />
<path d="M 50.670, 708.662 
	L 50.669, 708.662 
	L 50.669, 0.001 
" />
<path d="M 55.276, 708.662 
	L 55.276, 708.662 
	L 55.276, 0.001 
" />
<path d="M 59.883, 708.662 
	L 59.882, 708.662 
	L 59.882, 0.001 
" />
<path d="M 64.489, 708.662 
	L 64.488, 708.662 
	L 64.488, 0.001 
" />
<path d="M 69.095, 708.662 
	L 69.094, 708.662 
	L 69.094, 0.001 
" />
<path d="M 73.702, 708.662 
	L 73.701, 708.662 
	L 73.701, 0.001 
" />
<path d="M 78.308, 708.662 
	L 78.307, 708.662 
	L 78.307, 0.001 
" />
<path d="M 82.914, 708.662 
	L 82.913, 708.662 
	L 82.913, 0.001 
" />
<path d="M 87.520, 708.662 
	L 87.520, 708.662 
	L 87.520, 0.001 
" />
<path d="M 92.127, 708.662 
	L 92.126, 708.662 
	L 92.126, 0.001 
" />
<path d="M 96.733, 708.662 
	L 96.732, 708.662 
	L 96.732, 0.001 
" />
<path d="M 101.339, 708.662 
	L 101.339, 708.662 
	L 101.339, 0.001 
" />
<path d="M 105.946, 708.662 
	L 105.945, 708.662 
	L 105.945, 0.001 
" />
<path d="M 110.552, 708.662 
	L 110.551, 708.662 
	L 110.551, 0.001 
" />
<path d="M 115.158, 708.662 
	L 115.157, 708.662 
	L 115.157, 0.001 
" />
<path d="M 119.765, 708.662 
	L 119.764, 708.662 
	L 119.764, 0.001 
" />
<path d="M 124.371, 708.662 
	L 124.370, 708.662 
	L 124.370, 0.001 
" />
<path d="M 128.977, 708.662 
	L 128.976, 708.662 
	L 128.976, 0.001 
" />
<path d="M 133.583, 708.662 
	L 133.583, 708.662 
	L 133.583, 0.001 
" />
<path d="M 138.190, 708.662 
	L 138.189, 708.662 
	L 138.189, 0.001 
" />
<path d="M 142.796, 708.662 
	L 142.795, 708.662 
	L 142.795, 0.001 
" />
<path d="M 147.402, 708.662 
	L 147.402, 708.662 
	L 147.402, 0.001 
" />
<path d="M 152.009, 708.662 
	L 152.008, 708.662 
	L 152.008, 0.001 
" />
<path d="M 156.615, 708.662 
	L 156.614, 708.662 
	L 156.614, 0.001 
" />
<path d="M 161.221, 708.662 
	L 161.220, 708.662 
	L 161.220, 0.001 
" />
<path d="M 165.828, 708.662 
	L 165.827, 708.662 
	L 165.827, 0.001 
" />
<path d="M 170.434, 708.662 
	L 170.433, 708.662 
	L 170.433, 0.001 
" />
<path d="M 175.040, 708.662 
	L 175.039, 708.662 
	L 175.039, 0.001 
" />
<path d="M 179.646, 708.662 
	L 179.646, 708.662 
	L 179.646, 0.001 
" />
<path d="M 184.253, 708.662 
	L 184.252, 708.662 
	L 184.252, 0.001 
" />
<path d="M 188.859, 708.662 
	L 188.858, 708.662 
	L 188.858, 0.001 
" />
<path d="M 193.465, 708.662 
	L 193.465, 708.662 
	L 193.465, 0.001 
" />
<path d="M 198.072, 708.662 
	L 198.071, 708.662 
	L 198.071, 0.001 
" />
<path d="M 202.678, 708.662 
	L 202.677, 708.662 
	L 202.677, 0.001 
" />
<path d="M 207.284, 708.662 
	L 207.283, 708.662 
	L 207.283, 0.001 
" />
<path d="M 211.891, 708.662 
	L 211.890, 708.662 
	L 211.890, 0.001 
" />
<path d="M 216.497, 708.662 
	L 216.496, 708.662 
	L 216.496, 0.001 
" />
<path d="M 221.103, 708.662 
	L 221.102, 708.662 
	L 221.102, 0.001 
" />
<path d="M 225.709, 708.662 
	L 225.709, 708.662 
	L 225.709, 0.001 
" />
<path d="M 230.316, 708.662 
	L 230.315, 708.662 
	L 230.315, 0.001 
" />
<path d="M 234.922, 708.662 
	L 234.921, 708.662 
	L 234.921, 0.001 
" />
<path d="M 239.528, 708.662 
	L 239.528, 708.662 
	L 239.528, 0.001 
" />
<path d="M 244.135, 708.662 
	L 244.134, 708.662 
	L 244.134, 0.001 
" />
<path d="M 248.741, 708.662 
	L 248.740, 708.662 
	L 248.740, 0.001 
" />
<path d="M 253.347, 708.662 
	L 253.346, 708.662 
	L 253.346, 0.001 
" />
<path d="M 257.954, 708.662 
	L 257.953, 708.662 
	L 257.953, 0.001 
" />
<path d="M 262.560, 708.662 
	L 262.559, 708.662 
	L 262.559, 0.001 
" />
<path d="M 267.166, 708.662 
	L 267.165, 708.662 
	L 267.165, 0.001 
" />
<path d="M 271.772, 708.662 
	L 271.772, 708.662 
	L 271.772, 0.001 
" />
<path d="M 276.379, 708.662 
	L 276.378, 708.662 
	L 276.378, 0.001 
" />
<path d="M 280.985, 708.662 
	L 280.984, 708.662 
	L 280.984, 0.001 
" />
<path d="M 285.591, 708.662 
	L 285.591, 708.662 
	L 285.591, 0.001 
" />
<path d="M 290.198, 708.662 
	L 290.197, 708.662 
	L 290.197, 0.001 
" />
<path d="M 294.804, 708.662 
	L 294.803, 708.662 
	L 294.803, 0.001 
" />
<path d="M 299.410, 708.662 
	L 299.409, 708.662 
	L 299.409, 0.001 
" />
<path d="M 304.016, 708.662 
	L 304.016, 708.662 
	L 304.016, 0.001 
" />
<path d="M 308.623, 708.662 
	L 308.622, 708.662 
	L 308.622, 0.001 
" />
<path d="M 313.229, 708.662 
	L 313.228, 708.662 
	L 313.228, 0.001 
" />
<path d="M 317.835, 708.662 
	L 317.835, 708.662 
	L 317.835, 0.001 
" />
<path d="M 322.442, 708.662 
	L 322.441, 708.662 
	L 322.441, 0.001 
" />
<path d="M 327.048, 708.662 
	L 327.047, 708.662 
	L 327.047, 0.001 
" />
<path d="M 331.654, 708.662 
	L 331.654, 708.662 
	L 331.654, 0.001 
" />
<path d="M 336.261, 708.662 
	L 336.260, 708.662 
	L 336.260, 0.001 
" />
<path d="M 340.867, 708.662 
	L 340.866, 708.662 
	L 340.866, 0.001 
" />
<path d="M 345.473, 708.662 
	L 345.472, 708.662 
	L 345.472, 0.001 
" />
<path d="M 350.079, 708.662 
	L 350.079, 708.662 
	L 350.079, 0.001 
" />
<path d="M 354.686, 708.662 
	L 354.685, 708.662 
	L 354.685, 0.001 
" />
<path d="M 359.292, 708.662 
	L 359.291, 708.662 
	L 359.291, 0.001 
" />
<path d="M 363.898, 708.662 
	L 363.898, 708.662 
	L 363.898, 0.001 
" />
<path d="M 368.505, 708.662 
	L 368.504, 708.662 
	L 368.504, 0.001 
" />
<path d="M 373.111, 708.662 
	L 373.110, 708.662 
	L 373.110, 0.001 
" />
<path d="M 377.717, 708.662 
	L 377.717, 708.662 
	L 377.717, 0.001 
" />
<path d="M 382.324, 708.662 
	L 382.323, 708.662 
	L 382.323, 0.001 
" />
<path d="M 386.930, 708.662 
	L 386.929, 708.662 
	L 386.929, 0.001 
" />
<path d="M 391.536, 708.662 
	L 391.535, 708.662 
	L 391.535, 0.001 
" />
<path d="M 396.142, 708.662 
	L 396.142, 708.662 
	L 396.142, 0.001 
" />
<path d="M 400.749, 708.662 
	L 400.748, 708.662 
	L 400.748, 0.001 
" />
<path d="M 405.355, 708.662 
	L 405.354, 708.662 
	L 405.354, 0.001 
" />
<path d="M 409.961, 708.662 
	L 409.961, 708.662 
	L 409.961, 0.001 
" />
<path d="M 414.568, 708.662 
	L 414.567, 708.662 
	L 414.567, 0.001 
" />
<path d="M 419.174, 708.662 
	L 419.173, 708.662 
	L 419.173, 0.001 
" />
<path d="M 423.780, 708.662 
	L 423.780, 708.662 
	L 423.780, 0.001 
" />
<path d="M 428.387, 708.662 
	L 428.386, 708.662 
	L 428.386, 0.001 
" />
<path d="M 432.993, 708.662 
	L 432.992, 708.662 
	L 432.992, 0.001 
" />
<path d="M 437.599, 708.662 
	L 437.598, 708.662 
	L 437.598, 0.001 
" />
<path d="M 442.205, 708.662 
	L 442.205, 708.662 
	L 442.205, 0.001 
" />
<path d="M 446.812, 708.662 
	L 446.811, 708.662 
	L 446.811, 0.001 
" />
<path d="M 451.418, 708.662 
	L 451.417, 708.662 
	L 451.417, 0.001 
" />
<path d="M 456.024, 708.662 
	L 456.024, 708.662 
	L 456.024, 0.001 
" />
<path d="M 460.631, 708.662 
	L 460.630, 708.662 
	L 460.630, 0.001 
" />
<path d="M 465.237, 708.662 
	L 465.236, 708.662 
	L 465.236, 0.001 
" />
<path d="M 469.843, 708.662 
	L 469.843, 708.662 
	L 469.843, 0.001 
" />
<path d="M 474.450, 708.662 
	L 474.449, 708.662 
	L 474.449, 0.001 
" />
<path d="M 479.056, 708.662 
	L 479.055, 708.662 
	L 479.055, 0.001 
" />
<path d="M 483.662, 708.662 
	L 483.661, 708.662 
	L 483.661, 0.001 
" />
<path d="M 488.268, 708.662 
	L 488.268, 708.662 
	L 488.268, 0.001 
" />
<path d="M 492.875, 708.662 
	L 492.874, 708.662 
	L 492.874, 0.001 
" />
<path d="M 497.481, 708.662 
	L 497.480, 708.662 
	L 497.480, 0.001 
" />
<path d="M 502.087, 708.662 
	L 502.087, 708.662 
	L 502.087, 0.001 
" />
<path d="M 506.694, 708.662 
	L 506.693, 708.662 
	L 506.693, 0.001 
" />
<path d="M 511.300, 708.662 
	L 511.299, 708.662 
	L 511.299, 0.001 
" />
<path d="M 515.906, 708.662 
	L 515.906, 708.662 
	L 515.906, 0.001 
" />
<path d="M 520.513, 708.662 
	L 520.512, 708.662 
	L 520.512, 0.001 
" />
<path d="M 525.119, 708.662 
	L 525.118, 708.662 
	L 525.118, 0.001 
" />
<path d="M 529.725, 708.662 
	L 529.724, 708.662 
	L 529.724, 0.001 
" />
<path d="M 534.331, 708.662 
	L 534.331, 708.662 
	L 534.331, 0.001 
" />
<path d="M 538.938, 708.662 
	L 538.937, 708.662 
	L 538.937, 0.001 
" />
<path d="M 543.544, 708.662 
	L 543.543, 708.662 
	L 543.543, 0.001 
" />
<path d="M 548.150, 708.662 
	L 548.150, 708.662 
	L 548.150, 0.001 
" />
<path d="M 552.757, 708.662 
	L 552.756, 708.662 
	L 552.756, 0.001 
" />
<path d="M 557.363, 708.662 
	L 557.362, 708.662 
	L 557.362, 0.001 
" />
<path d="M 561.969, 708.662 
	L 561.969, 708.662 
	L 561.969, 0.001 
" />
<path d="M 566.576, 708.662 
	L 566.575, 708.662 
	L 566.575, 0.001 
" />
<path d="M 571.182, 708.662 
	L 571.181, 708.662 
	L 571.181, 0.001 
" />
<path d="M 575.788, 708.662 
	L 575.787, 708.662 
	L 575.787, 0.001 
" />
<path d="M 580.394, 708.662 
	L 580.394, 708.662 
	L 580.394, 0.001 
" />
<path d="M 585.001, 708.662 
	L 585.000, 708.662 
	L 585.000, 0.001 
" />
<path d="M 589.607, 708.662 
	L 589.606, 708.662 
	L 589.606, 0.001 
" />
<path d="M 594.213, 708.662 
	L 594.213, 708.662 
	L 594.213, 0.001 
" />
<path d="M 598.820, 708.662 
	L 598.819, 708.662 
	L 598.819, 0.001 
" />
<path d="M 603.426, 708.662 
	L 603.425, 708.662 
	L 603.425, 0.001 
" />
<path d="M 608.032, 708.662 
	L 608.032, 708.662 
	L 608.032, 0.001 
" />
<path d="M 612.639, 708.662 
	L 612.638, 708.662 
	L 612.638, 0.001 
" />
<path d="M 617.245, 708.662 
	L 617.244, 708.662 
	L 617.244, 0.001 
" />
<path d="M 621.851, 708.662 
	L 621.850, 708.662 
	L 621.850, 0.001 
" />
<path d="M 626.457, 708.662 
	L 626.457, 708.662 
	L 626.457, 0.001 
" />
<path d="M 631.064, 708.662 
	L 631.063, 708.662 
	L 631.063, 0.001 
" />
<path d="M 635.670, 708.662 
	L 635.669, 708.662 
	L 635.669, 0.001 
" />
<path d="M 640.276, 708.662 
	L 640.276, 708.662 
	L 640.276, 0.001 
" />
<path d="M 644.883, 708.662 
	L 644.882, 708.662 
	L 644.882, 0.001 
" />
<path d="M 649.489, 708.662 
	L 649.488, 708.662 
	L 649.488, 0.001 
" />
<path d="M 654.095, 708.662 
	L 654.095, 708.662 
	L 654.095, 0.001 
" />
<path d="M 658.702, 708.662 
	L 658.701, 708.662 
	L 658.701, 0.001 
" />
<path d="M 663.308, 708.662 
	L 663.307, 708.662 
	L 663.307, 0.001 
" />
<path d="M 667.914, 708.662 
	L 667.913, 708.662 
	L 667.913, 0.001 
" />
<path d="M 672.520, 708.662 
	L 672.520, 708.662 
	L 672.520, 0.001 
" />
<path d="M 677.127, 708.662 
	L 677.126, 708.662 
	L 677.126, 0.001 
" />
<path d="M 681.733, 708.662 
	L 681.732, 708.662 
	L 681.732, 0.001 
" />
<path d="M 686.339, 708.662 
	L 686.339, 708.662 
	L 686.339, 0.001 
" />
<path d="M 690.946, 708.662 
	L 690.945, 708.662 
	L 690.945, 0.001 
" />
<path d="M 695.552, 708.662 
	L 695.551, 708.662 
	L 695.551, 0.001 
" />
<path d="M 700.158, 708.662 
	L 700.158, 708.662 
	L 700.158, 0.001 
" />
</g><g style="stroke:rgb(255,0,0); fill:none; stroke-width:0.100mm" >
<path d="M 0.001, 0.000 
	L 0.000, 0.001 
	L 708.662, 0.001 
	L 0.000, 0.001 
" />
<path d="M 0.001, 0.000 
	L 0.000, 0.001 
" />
<path d="M 4.607, 0.000 
	L 4.606, 0.001 
" />
<path d="M 9.213, 0.000 
	L 9.213, 0.001 
" />
<path d="M 13.820, 0.000 
	L 13.819, 0.001 
" />
<path d="M 18.426, 0.000 
	L 18.425, 0.001 
" />
<path d="M 23.032, 0.000 
	L 23.031, 0.001 
" />
<path d="M 27.639, 0.000 
	L 27.638, 0.001 
" />
<path d="M 32.245, 0.000 
	L 32.244, 0.001 
" />
<path d="M 36.851, 0.000 
	L 36.850, 0.001 
" />
<path d="M 41.457, 0.000 
	L 41.457, 0.001 
" />
<path d="M 46.064, 0.000 
	L 46.063, 0.001 
" />
<path d="M 50.670, 0.000 
	L 50.669, 0.001 
" />
<path d="M 55.276, 0.000 
	L 55.276, 0.001 
" />
<path d="M 59.883, 0.000 
	L 59.882, 0.001 
" />
<path d="M 64.489, 0.000 
	L 64.488, 0.001 
" />
<path d="M 69.095, 0.000 
	L 69.094, 0.001 
" />
<path d="M 73.702, 0.000 
	L 73.701, 0.001 
" />
<path d="M 78.308, 0.000 
	L 78.307, 0.001 
" />
<path d="M 82.914, 0.000 
	L 82.913, 0.001 
" />
<path d="M 87.520, 0.000 
	L 87.520, 0.001 
" />
<path d="M 92.127, 0.000 
	L 92.126, 0.001 
" />
<path d="M 96.733, 0.000 
	L 96.732, 0.001 
" />
<path d="M 101.339, 0.000 
	L 101.339, 0.001 
" />
<path d="M 105.946, 0.000 
	L 105.945, 0.001 
" />
<path d="M 110.552, 0.000 
	L 110.551, 0.001 
" />
<path d="M 115.158, 0.000 
	L 115.157, 0.001 
" />
<path d="M 119.765, 0.000 
	L 119.764, 0.001 
" />
<path d="M 124.371, 0.000 
	L 124.370, 0.001 
" />
<path d="M 128.977, 0.000 
	L 128.976, 0.001 
" />
<path d="M 133.583, 0.000 
	L 133.583, 0.001 
" />
<path d="M 138.190, 0.000 
	L 138.189, 0.001 
" />
<path d="M 142.796, 0.000 
	L 142.795, 0.001 
" />
<path d="M 147.402, 0.000 
	L 147.402, 0.001 
" />
<path d="M 152.009, 0.000 
	L 152.008, 0.001 
" />
<path d="M 156.615, 0.000 
	L 156.614, 0.001 
" />
<path d="M 161.221, 0.000 
	L 161.220, 0.001 
" />
<path d="M 165.828, 0.000 
	L 165.827, 0.001 
" />
<path d="M 170.434, 0.000 
	L 170.433, 0.001 
" />
<path d="M 175.040, 0.000 
	L 175.039, 0.001 
" />
<path d="M 179.646, 0.000 
	L 179.646, 0.001 
" />
<path d="M 184.253, 0.000 
	L 184.252, 0.001 
" />
<path d="M 188.859, 0.000 
	L 188.858, 0.001 
" />
<path d="M 193.465, 0.000 
	L 193.465, 0.001 
" />
<path d="M 198.072, 0.000 
	L 198.071, 0.001 
" />
<path d="M 202.678, 0.000 
	L 202.677, 0.001 
" />
<path d="M 207.284, 0.000 
	L 207.283, 0.001 
" />
<path d="M 211.891, 0.000 
	L 211.890, 0.001 
" />
<path d="M 216.497, 0.000 
	L 216.496, 0.001 
" />
<path d="M 221.103, 0.000 
	L 221.102, 0.001 
" />
<path d="M 225.709, 0.000 
	L 225.709, 0.001 
" />
<path d="M 230.316, 0.000 
	L 230.315, 0.001 
" />
<path d="M 234.922, 0.000 
	L 234.921, 0.001 
" />
<path d="M 239.528, 0.000 
	L 239.528, 0.001 
" />
<path d="M 244.135, 0.000 
	L 244.134, 0.001 
" />
<path d="M 248.741, 0.000 
	L 248.740, 0.001 
" />
<path d="M 253.347, 0.000 
	L 253.346, 0.001 
" />
<path d="M 257.954, 0.000 
	L 257.953, 0.001 
" />
<path d="M 262.560, 0.000 
	L 262.559, 0.001 
" />
<path d="M 267.166, 0.000 
	L 267.165, 0.001 
" />
<path d="M 271.772, 0.000 
	L 271.772, 0.001 
" />
<path d="M 276.379, 0.000 
	L 276.378, 0.001 
" />
<path d="M 280.985, 0.000 
	L 280.984, 0.001 
" />
<path d="M 285.591, 0.000 
	L 285.591, 0.001 
" />
<path d="M 290.198, 0.000 
	L 290.197, 0.001 
" />
<path d="M 294.804, 0.000 
	L 294.803, 0.001 
" />
<path d="M 299.410, 0.000 
	L 299.409, 0.001 
" />
<path d="M 304.016, 0.000 
	L 304.016, 0.001 
" />
<path d="M 308.623, 0.000 
	L 308.622, 0.001 
" />
<path d="M 313.229, 0.000 
	L 313.228, 0.001 
" />
<path d="M 317.835, 0.000 
	L 317.835, 0.001 
" />
<path d="M 322.442, 0.000 
	L 322.441, 0.001 
" />
<path d="M 327.048, 0.000 
	L 327.047, 0.001 
" />
<path d="M 331.654, 0.000 
	L 331.654, 0.001 
" />
<path d="M 336.261, 0.000 
	L 336.260, 0.001 
" />
<path d="M 340.867, 0.000 
	L 340.866, 0.001 
" />
<path d="M 345.473, 0.000 
	L 345.472, 0.001 
" />
<path d="M 350.079, 0.000 
	L 350.079, 0.001 
" />
<path d="M 354.686, 0.000 
	L 354.685, 0.001 
" />
<path d="M 359.292, 0.000 
	L 359.291, 0.001 
" />
<path d="M 363.898, 0.000 
	L 363.898, 0.001 
" />
<path d="M 368.505, 0.000 
	L 368.504, 0.001 
" />
<path d="M 373.111, 0.000 
	L 373.110, 0.001 
" />
<path d="M 377.717, 0.000 
	L 377.717, 0.001 
" />
<path d="M 382.324, 0.000 
	L 382.323, 0.001 
" />
<path d="M 386.930, 0.000 
	L 386.929, 0.001 
" />
<path d="M 391.536, 0.000 
	L 391.535, 0.001 
" />
<path d="M 396.142, 0.000 
	L 396.142, 0.001 
" />
<path d="M 400.749, 0.000 
	L 400.748, 0.001 
" />
<path d="M 405.355, 0.000 
	L 405.354, 0.001 
" />
<path d="M 409.961, 0.000 
	L 409.961, 0.001 
" />
<path d="M 414.568, 0.000 
	L 414.567, 0.001 
" />
<path d="M 419.174, 0.000 
	L 419.173, 0.001 
" />
<path d="M 423.780, 0.000 
	L 423.780, 0.001 
" />
<path d="M 428.387, 0.000 
	L 428.386, 0.001 
" />
<path d="M 432.993, 0.000 
	L 432.992, 0.001 
" />
<path d="M 437.599, 0.000 
	L 437.598, 0.001 
" />
<path d="M 442.205, 0.000 
	L 442.205, 0.001 
" />
<path d="M 446.812, 0.000 
	L 446.811, 0.001 
" />
<path d="M 451.418, 0.000 
	L 451.417, 0.001 
" />
<path d="M 456.024, 0.000 
	L 456.024, 0.001 
" />
<path d="M 460.631, 0.000 
	L 460.630, 0.001 
" />
<path d="M 465.237, 0.000 
	L 465.236, 0.001 
" />
<path d="M 469.843, 0.000 
	L 469.843, 0.001 
" />
<path d="M 474.450, 0.000 
	L 474.449, 0.001 
" />
<path d="M 479.056, 0.000 
	L 479.055, 0.001 
" />
<path d="M 483.662, 0.000 
	L 483.661, 0.001 
" />
<path d="M 488.268, 0.000 
	L 488.268, 0.001 
" />
<path d="M 492.875, 0.000 
	L 492.874, 0.001 
" />
<path d="M 497.481, 0.000 
	L 497.480, 0.001 
" />
<path d="M 502.087, 0.000 
	L 502.087, 0.001 
" />
<path d="M 506.694, 0.000 
	L 506.693, 0.001 
" />
<path d="M 511.300, 0.000 
	L 511.299, 0.001 
" />
<path d="M 515.906, 0.000 
	L 515.906, 0.001 
" />
<path d="M 520.513, 0.000 
	L 520.512, 0.001 
" />
<path d="M 525.119, 0.000 
	L 525.118, 0.001 
" />
<path d="M 529.725, 0.000 
	L 529.724, 0.001 
" />
<path d="M 534.331, 0.000 
	L 534.331, 0.001 
" />
<path d="M 538.938, 0.000 
	L 538.937, 0.001 
" />
<path d="M 543.544, 0.000 
	L 543.543, 0.001 
" />
<path d="M 548.150, 0.000 
	L 548.150, 0.001 
" />
<path d="M 552.757, 0.000 
	L 552.756, 0.001 
" />
<path d="M 557.363, 0.000 
	L 557.362, 0.001 
" />
<path d="M 561.969, 0.000 
	L 561.969, 0.001 
" />
<path d="M 566.576, 0.000 
	L 566.575, 0.001 
" />
<path d="M 571.182, 0.000 
	L 571.181, 0.001 
" />
<path d="M 575.788, 0.000 
	L 575.787, 0.001 
" />
<path d="M 580.394, 0.000 
	L 580.394, 0.001 
" />
<path d="M 585.001, 0.000 
	L 585.000, 0.001 
" />
<path d="M 589.607, 0.000 
	L 589.606, 0.001 
" />
<path d="M 594.213, 0.000 
	L 594.213, 0.001 
" />
<path d="M 598.820, 0.000 
	L 598.819, 0.001 
" />
<path d="M 603.426, 0.000 
	L 603.425, 0.001 
" />
<path d="M 608.032, 0.000 
	L 608.032, 0.001 
" />
<path d="M 612.639, 0.000 
	L 612.638, 0.001 
" />
<path d="M 617.245, 0.000 
	L 617.244, 0.001 
" />
<path d="M 621.851, 0.000 
	L 621.850, 0.001 
" />
<path d="M 626.457, 0.000 
	L 626.457, 0.001 
" />
<path d="M 631.064, 0.000 
	L 631.063, 0.001 
" />
<path d="M 635.670, 0.000 
	L 635.669, 0.001 
" />
<path d="M 640.276, 0.000 
	L 640.276, 0.001 
" />
<path d="M 644.883, 0.000 
	L 644.882, 0.001 
" />
<path d="M 649.489, 0.000 
	L 649.488, 0.001 
" />
<path d="M 654.095, 0.000 
	L 654.095, 0.001 
" />
<path d="M 658.702, 0.000 
	L 658.701, 0.001 
" />
<path d="M 663.308, 0.000 
	L 663.307, 0.001 
" />
<path d="M 667.914, 0.000 
	L 667.913, 0.001 
" />
<path d="M 672.520, 0.000 
	L 672.520, 0.001 
" />
<path d="M 677.127, 0.000 
	L 677.126, 0.001 
" />
<path d="M 681.733, 0.000 
	L 681.732, 0.001 
" />
<path d="M 686.339, 0.000 
	L 686.339, 0.001 
" />
<path d="M 690.946, 0.000 
	L 690.945, 0.001 
" />
<path d="M 695.552, 0.000 
	L 695.551, 0.001 
" />
<path d="M 700.158, 0.000 
	L 700.158, 0.001 
" />
</g><g style="stroke:rgb(0,255,0); fill:none; stroke-width:0.100mm" >
<path d="M 708.662, 0.000 
	L 708.662, 0.001 
" />
</g><g style="stroke:rgb(0,0,255); fill:none; stroke-width:0.100mm" >
<path d="M 708.662, 708.662 
	L 708.662, 708.662 
	L 708.662, 0.001 
	L 708.662, 708.662 
" />
</g><g style="stroke:rgb(0,255,255); fill:none; stroke-width:0.100mm" >
<path d="M 0.001, 0.035 
	L 0.000, 0.036 
	L 0.000, 595.808 
	L 708.662, 595.808 
	L 708.662, 0.036 
	L 0.000, 0.036 
" />
<path d="M 0.001, 0.000 
	L 0.000, 0.001 
	L 0.000, 595.772 
" />
<path d="M 4.536, 0.000 
	L 4.535, 0.001 
	L 4.535, 595.772 
" />
<path d="M 9.072, 0.000 
	L 9.071, 0.001 
	L 9.071, 595.772 
" />
<path d="M 13.607, 0.000 
	L 13.606, 0.001 
	L 13.606, 595.772 
" />
<path d="M 18.142, 0.000 
	L 18.142, 0.001 
	L 18.142, 595.772 
" />
<path d="M 22.678, 0.000 
	L 22.677, 0.001 
	L 22.677, 595.772 
" />
<path d="M 27.213, 0.000 
	L 27.213, 0.001 
	L 27.213, 595.772 
" />
<path d="M 31.749, 0.000 
	L 31.748, 0.001 
	L 31.748, 595.772 
" />
<path d="M 36.284, 0.000 
	L 36.283, 0.001 
	L 36.283, 595.772 
" />
<path d="M 40.820, 0.000 
	L 40.819, 0.001 
	L 40.819, 595.772 
" />
<path d="M 45.355, 0.000 
	L 45.354, 0.001 
	L 45.354, 595.772 
" />
<path d="M 49.890, 0.000 
	L 49.890, 0.001 
	L 49.890, 595.772 
" />
<path d="M 54.426, 0.000 
	L 54.425, 0.001 
	L 54.425, 595.772 
" />
<path d="M 58.961, 0.000 
	L 58.961, 0.001 
	L 58.961, 595.772 
" />
<path d="M 63.497, 0.000 
	L 63.496, 0.001 
	L 63.496, 595.772 
" />
<path d="M 68.032, 0.000 
	L 68.032, 0.001 
	L 68.032, 595.772 
" />
<path d="M 72.568, 0.000 
	L 72.567, 0.001 
	L 72.567, 595.772 
" />
<path d="M 77.103, 0.000 
	L 77.102, 0.001 
	L 77.102, 595.772 
" />
<path d="M 81.639, 0.000 
	L 81.638, 0.001 
	L 81.638, 595.772 
" />
<path d="M 86.174, 0.000 
	L 86.173, 0.001 
	L 86.173, 595.772 
" />
<path d="M 90.709, 0.000 
	L 90.709, 0.001 
	L 90.709, 595.772 
" />
<path d="M 95.245, 0.000 
	L 95.244, 0.001 
	L 95.244, 595.772 
" />
<path d="M 99.780, 0.000 
	L 99.780, 0.001 
	L 99.780, 595.772 
" />
<path d="M 104.316, 0.000 
	L 104.315, 0.001 
	L 104.315, 595.772 
" />
<path d="M 108.851, 0.000 
	L 108.850, 0.001 
	L 108.850, 595.772 
" />
<path d="M 113.387, 0.000 
	L 113.386, 0.001 
	L 113.386, 595.772 
" />
<path d="M 117.922, 0.000 
	L 117.921, 0.001 
	L 117.921, 595.772 
" />
<path d="M 122.457, 0.000 
	L 122.457, 0.001 
	L 122.457, 595.772 
" />
<path d="M 126.993, 0.000 
	L 126.992, 0.001 
	L 126.992, 595.772 
" />
<path d="M 131.528, 0.000 
	L 131.528, 0.001 
	L 131.528, 595.772 
" />
<path d="M 136.064, 0.000 
	L 136.063, 0.001 
	L 136.063, 595.772 
" />
<path d="M 140.599, 0.000 
	L 140.598, 0.001 
	L 140.598, 595.772 
" />
<path d="M 145.135, 0.000 
	L 145.134, 0.001 
	L 145.134, 595.772 
" />
<path d="M 149.670, 0.000 
	L 149.669, 0.001 
	L 149.669, 595.772 
" />
<path d="M 154.205, 0.000 
	L 154.205, 0.001 
	L 154.205, 595.772 
" />
<path d="M 158.741, 0.000 
	L 158.740, 0.001 
	L 158.740, 595.772 
" />
<path d="M 163.276, 0.000 
	L 163.276, 0.001 
	L 163.276, 595.772 
" />
<path d="M 167.812, 0.000 
	L 167.811, 0.001 
	L 167.811, 595.772 
" />
<path d="M 172.347, 0.000 
	L 172.346, 0.001 
	L 172.346, 595.772 
" />
<path d="M 176.883, 0.000 
	L 176.882, 0.001 
	L 176.882, 595.772 
" />
<path d="M 181.418, 0.000 
	L 181.417, 0.001 
	L 181.417, 595.772 
" />
<path d="M 185.953, 0.000 
	L 185.953, 0.001 
	L 185.953, 595.772 
" />
<path d="M 190.489, 0.000 
	L 190.488, 0.001 
	L 190.488, 595.772 
" />
<path d="M 195.024, 0.000 
	L 195.024, 0.001 
	L 195.024, 595.772 
" />
<path d="M 199.560, 0.000 
	L 199.559, 0.001 
	L 199.559, 595.772 
" />
<path d="M 204.095, 0.000 
	L 204.095, 0.001 
	L 204.095, 595.772 
" />
<path d="M 208.631, 0.000 
	L 208.630, 0.001 
	L 208.630, 595.772 
" />
<path d="M 213.166, 0.000 
	L 213.165, 0.001 
	L 213.165, 595.772 
" />
<path d="M 217.702, 0.000 
	L 217.701, 0.001 
	L 217.701, 595.772 
" />
<path d="M 222.237, 0.000 
	L 222.236, 0.001 
	L 222.236, 595.772 
" />
<path d="M 226.772, 0.000 
	L 226.772, 0.001 
	L 226.772, 595.772 
" />
<path d="M 231.308, 0.000 
	L 231.307, 0.001 
	L 231.307, 595.772 
" />
<path d="M 235.843, 0.000 
	L 235.843, 0.001 
	L 235.843, 595.772 
" />
<path d="M 240.379, 0.000 
	L 240.378, 0.001 
	L 240.378, 595.772 
" />
<path d="M 244.914, 0.000 
	L 244.913, 0.001 
	L 244.913, 595.772 
" />
<path d="M 249.450, 0.000 
	L 249.449, 0.001 
	L 249.449, 595.772 
" />
<path d="M 253.985, 0.000 
	L 253.984, 0.001 
	L 253.984, 595.772 
" />
<path d="M 258.520, 0.000 
	L 258.520, 0.001 
	L 258.520, 595.772 
" />
<path d="M 263.056, 0.000 
	L 263.055, 0.001 
	L 263.055, 595.772 
" />
<path d="M 267.591, 0.000 
	L 267.591, 0.001 
	L 267.591, 595.772 
" />
<path d="M 272.127, 0.000 
	L 272.126, 0.001 
	L 272.126, 595.772 
" />
<path d="M 276.662, 0.000 
	L 276.661, 0.001 
	L 276.661, 595.772 
" />
<path d="M 281.198, 0.000 
	L 281.197, 0.001 
	L 281.197, 595.772 
" />
<path d="M 285.733, 0.000 
	L 285.732, 0.001 
	L 285.732, 595.772 
" />
<path d="M 290.268, 0.000 
	L 290.268, 0.001 
	L 290.268, 595.772 
" />
<path d="M 294.804, 0.000 
	L 294.803, 0.001 
	L 294.803, 595.772 
" />
<path d="M 299.339, 0.000 
	L 299.339, 0.001 
	L 299.339, 595.772 
" />
<path d="M 303.875, 0.000 
	L 303.874, 0.001 
	L 303.874, 595.772 
" />
<path d="M 308.410, 0.000 
	L 308.409, 0.001 
	L 308.409, 595.772 
" />
<path d="M 312.946, 0.000 
	L 312.945, 0.001 
	L 312.945, 595.772 
" />
<path d="M 317.481, 0.000 
	L 317.480, 0.001 
	L 317.480, 595.772 
" />
<path d="M 322.016, 0.000 
	L 322.016, 0.001 
	L 322.016, 595.772 
" />
<path d="M 326.552, 0.000 
	L 326.551, 0.001 
	L 326.551, 595.772 
" />
<path d="M 331.087, 0.000 
	L 331.087, 0.001 
	L 331.087, 595.772 
" />
<path d="M 335.623, 0.000 
	L 335.622, 0.001 
	L 335.622, 595.772 
" />
<path d="M 340.158, 0.000 
	L 340.158, 0.001 
	L 340.158, 595.772 
" />
<path d="M 344.694, 0.000 
	L 344.693, 0.001 
	L 344.693, 595.772 
" />
<path d="M 349.229, 0.000 
	L 349.228, 0.001 
	L 349.228, 595.772 
" />
<path d="M 353.765, 0.000 
	L 353.764, 0.001 
	L 353.764, 595.772 
" />
<path d="M 358.300, 0.000 
	L 358.299, 0.001 
	L 358.299, 595.772 
" />
<path d="M 362.835, 0.000 
	L 362.835, 0.001 
	L 362.835, 595.772 
" />
<path d="M 367.371, 0.000 
	L 367.370, 0.001 
	L 367.370, 595.772 
" />
<path d="M 371.906, 0.000 
	L 371.906, 0.001 
	L 371.906, 595.772 
" />
<path d="M 376.442, 0.000 
	L 376.441, 0.001 
	L 376.441, 595.772 
" />
<path d="M 380.977, 0.000 
	L 380.976, 0.001 
	L 380.976, 595.772 
" />
<path d="M 385.513, 0.000 
	L 385.512, 0.001 
	L 385.512, 595.772 
" />
<path d="M 390.048, 0.000 
	L 390.047, 0.001 
	L 390.047, 595.772 
" />
<path d="M 394.583, 0.000 
	L 394.583, 0.001 
	L 394.583, 595.772 
" />
<path d="M 399.119, 0.000 
	L 399.118, 0.001 
	L 399.118, 595.772 
" />
<path d="M 403.654, 0.000 
	L 403.654, 0.001 
	L 403.654, 595.772 
" />
<path d="M 408.190, 0.000 
	L 408.189, 0.001 
	L 408.189, 595.772 
" />
<path d="M 412.725, 0.000 
	L 412.724, 0.001 
	L 412.724, 595.772 
" />
<path d="M 417.261, 0.000 
	L 417.260, 0.001 
	L 417.260, 595.772 
" />
<path d="M 421.796, 0.000 
	L 421.795, 0.001 
	L 421.795, 595.772 
" />
<path d="M 426.331, 0.000 
	L 426.331, 0.001 
	L 426.331, 595.772 
" />
<path d="M 430.867, 0.000 
	L 430.866, 0.001 
	L 430.866, 595.772 
" />
<path d="M 435.402, 0.000 
	L 435.402, 0.001 
	L 435.402, 595.772 
" />
<path d="M 439.938, 0.000 
	L 439.937, 0.001 
	L 439.937, 595.772 
" />
<path d="M 444.473, 0.000 
	L 444.473, 0.001 
	L 444.473, 595.772 
" />
<path d="M 449.009, 0.000 
	L 449.008, 0.001 
	L 449.008, 595.772 
" />
<path d="M 453.544, 0.000 
	L 453.543, 0.001 
	L 453.543, 595.772 
" />
<path d="M 458.080, 0.000 
	L 458.079, 0.001 
	L 458.079, 595.772 
" />
<path d="M 462.615, 0.000 
	L 462.614, 0.001 
	L 462.614, 595.772 
" />
<path d="M 467.150, 0.000 
	L 467.150, 0.001 
	L 467.150, 595.772 
" />
<path d="M 471.686, 0.000 
	L 471.685, 0.001 
	L 471.685, 595.772 
" />
<path d="M 476.221, 0.000 
	L 476.221, 0.001 
	L 476.221, 595.772 
" />
<path d="M 480.757, 0.000 
	L 480.756, 0.001 
	L 480.756, 595.772 
" />
<path d="M 485.292, 0.000 
	L 485.291, 0.001 
	L 485.291, 595.772 
" />
<path d="M 489.828, 0.000 
	L 489.827, 0.001 
	L 489.827, 595.772 
" />
<path d="M 494.363, 0.000 
	L 494.362, 0.001 
	L 494.362, 595.772 
" />
<path d="M 498.898, 0.000 
	L 498.898, 0.001 
	L 498.898, 595.772 
" />
<path d="M 503.434, 0.000 
	L 503.433, 0.001 
	L 503.433, 595.772 
" />
<path d="M 507.969, 0.000 
	L 507.969, 0.001 
	L 507.969, 595.772 
" />
<path d="M 512.505, 0.000 
	L 512.504, 0.001 
	L 512.504, 595.772 
" />
<path d="M 517.040, 0.000 
	L 517.039, 0.001 
	L 517.039, 595.772 
" />
<path d="M 521.576, 0.000 
	L 521.575, 0.001 
	L 521.575, 595.772 
" />
<path d="M 526.111, 0.000 
	L 526.110, 0.001 
	L 526.110, 595.772 
" />
<path d="M 530.646, 0.000 
	L 530.646, 0.001 
	L 530.646, 595.772 
" />
<path d="M 535.182, 0.000 
	L 535.181, 0.001 
	L 535.181, 595.772 
" />
<path d="M 539.717, 0.000 
	L 539.717, 0.001 
	L 539.717, 595.772 
" />
<path d="M 544.253, 0.000 
	L 544.252, 0.001 
	L 544.252, 595.772 
" />
<path d="M 548.788, 0.000 
	L 548.787, 0.001 
	L 548.787, 595.772 
" />
<path d="M 553.324, 0.000 
	L 553.323, 0.001 
	L 553.323, 595.772 
" />
<path d="M 557.859, 0.000 
	L 557.858, 0.001 
	L 557.858, 595.772 
" />
<path d="M 562.394, 0.000 
	L 562.394, 0.001 
	L 562.394, 595.772 
" />
<path d="M 566.930, 0.000 
	L 566.929, 0.001 
	L 566.929, 595.772 
" />
<path d="M 571.465, 0.000 
	L 571.465, 0.001 
	L 571.465, 595.772 
" />
<path d="M 576.001, 0.000 
	L 576.000, 0.001 
	L 576.000, 595.772 
" />
<path d="M 580.536, 0.000 
	L 580.536, 0.001 
	L 580.536, 595.772 
" />
<path d="M 585.072, 0.000 
	L 585.071, 0.001 
	L 585.071, 595.772 
" />
<path d="M 589.607, 0.000 
	L 589.606, 0.001 
	L 589.606, 595.772 
" />
<path d="M 594.143, 0.000 
	L 594.142, 0.001 
	L 594.142, 595.772 
" />
<path d="M 598.678, 0.000 
	L 598.677, 0.001 
	L 598.677, 595.772 
" />
<path d="M 603.213, 0.000 
	L 603.213, 0.001 
	L 603.213, 595.772 
" />
<path d="M 607.749, 0.000 
	L 607.748, 0.001 
	L 607.748, 595.772 
" />
<path d="M 612.284, 0.000 
	L 612.284, 0.001 
	L 612.284, 595.772 
" />
<path d="M 616.820, 0.000 
	L 616.819, 0.001 
	L 616.819, 595.772 
" />
<path d="M 621.355, 0.000 
	L 621.354, 0.001 
	L 621.354, 595.772 
" />
<path d="M 625.891, 0.000 
	L 625.890, 0.001 
	L 625.890, 595.772 
" />
<path d="M 630.426, 0.000 
	L 630.425, 0.001 
	L 630.425, 595.772 
" />
<path d="M 634.961, 0.000 
	L 634.961, 0.001 
	L 634.961, 595.772 
" />
<path d="M 639.497, 0.000 
	L 639.496, 0.001 
	L 639.496, 595.772 
" />
<path d="M 644.032, 0.000 
	L 644.032, 0.001 
	L 644.032, 595.772 
" />
<path d="M 648.568, 0.000 
	L 648.567, 0.001 
	L 648.567, 595.772 
" />
<path d="M 653.103, 0.000 
	L 653.102, 0.001 
	L 653.102, 595.772 
" />
<path d="M 657.639, 0.000 
	L 657.638, 0.001 
	L 657.638, 595.772 
" />
<path d="M 662.174, 0.000 
	L 662.173, 0.001 
	L 662.173, 595.772 
" />
<path d="M 666.709, 0.000 
	L 666.709, 0.001 
	L 666.709, 595.772 
" />
<path d="M 671.245, 0.000 
	L 671.244, 0.001 
	L 671.244, 595.772 
" />
<path d="M 675.780, 0.000 
	L 675.780, 0.001 
	L 675.780, 595.772 
" />
<path d="M 680.316, 0.000 
	L 680.315, 0.001 
	L 680.315, 595.772 
" />
<path d="M 684.851, 0.000 
	L 684.850, 0.001 
	L 684.850, 595.772 
" />
<path d="M 689.387, 0.000 
	L 689.386, 0.001 
	L 689.386, 595.772 
" />
<path d="M 693.922, 0.000 
	L 693.921, 0.001 
	L 693.921, 595.772 
" />
<path d="M 698.457, 0.000 
	L 698.457, 0.001 
	L 698.457, 595.772 
" />
<path d="M 702.993, 0.000 
	L 702.992, 0.001 
	L 702.992, 595.772 
" />
</g><g style="stroke:rgb(255,0,255); fill:none; stroke-width:0.100mm" >
<path d="M 0.001, 595.807 
	L 0.000, 595.808 
	L 0.000, 0.036 
	L 708.662, 0.036 
	L 708.662, 595.808 
	L 0.000, 595.808 
" />
<path d="M 0.001, 595.772 
	L 0.000, 595.772 
	L 0.000, 0.001 
" />
<path d="M 4.536, 595.772 
	L 4.535, 595.772 
	L 4.535, 0.001 
" />
<path d="M 9.072, 595.772 
	L 9.071, 595.772 
	L 9.071, 0.001 
" />
<path d="M 13.607, 595.772 
	L 13.606, 595.772 
	L 13.606, 0.001 
" />
<path d="M 18.142, 595.772 
	L 18.142, 595.772 
	L 18.142, 0.001 
" />
<path d="M 22.678, 595.772 
	L 22.677, 595.772 
	L 22.677, 0.001 
" />
<path d="M 27.213, 595.772 
	L 27.213, 595.772 
	L 27.213, 0.001 
" />
<path d="M 31.749, 595.772 
	L 31.748, 595.772 
	L 31.748, 0.001 
" />
<path d="M 36.284, 595.772 
	L 36.283, 595.772 
	L 36.283, 0.001 
" />
<path d="M 40.820, 595.772 
	L 40.819, 595.772 
	L 40.819, 0.001 
" />
<path d="M 45.355, 595.772 
	L 45.354, 595.772 
	L 45.354, 0.001 
" />
<path d="M 49.890, 595.772 
	L 49.890, 595.772 
	L 49.890, 0.001 
" />
<path d="M 54.426, 595.772 
	L 54.425, 595.772 
	L 54.425, 0.001 
" />
<path d="M 58.961, 595.772 
	L 58.961, 595.772 
	L 58.961, 0.001 
" />
<path d="M 63.497, 595.772 
	L 63.496, 595.772 
	L 63.496, 0.001 
" />
<path d="M 68.032, 595.772 
	L 68.032, 595.772 
	L 68.032, 0.001 
" />
<path d="M 72.568, 595.772 
	L 72.567, 595.772 
	L 72.567, 0.001 
" />
<path d="M 77.103, 595.772 
	L 77.102, 595.772 
	L 77.102, 0.001 
" />
<path d="M 81.639, 595.772 
	L 81.638, 595.772 
	L 81.638, 0.001 
" />
<path d="M 86.174, 595.772 
	L 86.173, 595.772 
	L 86.173, 0.001 
" />
<path d="M 90.709, 595.772 
	L 90.709, 595.772 
	L 90.709, 0.001 
" />
<path d="M 95.245, 595.772 
	L 95.244, 595.772 
	L 95.244, 0.001 
" />
<path d="M 99.780, 595.772 
	L 99.780, 595.772 
	L 99.780, 0.001 
" />
<path d="M 104.316, 595.772 
	L 104.315, 595.772 
	L 104.315, 0.001 
" />
<path d="M 108.851, 595.772 
	L 108.850, 595.772 
	L 108.850, 0.001 
" />
<path d="M 113.387, 595.772 
	L 113.386, 595.772 
	L 113.386, 0.001 
" />
<path d="M 117.922, 595.772 
	L 117.921, 595.772 
	L 117.921, 0.001 
" />
<path d="M 122.457, 595.772 
	L 122.457, 595.772 
	L 122.457, 0.001 
" />
<path d="M 126.993, 595.772 
	L 126.992, 595.772 
	L 126.992, 0.001 
" />
<path d="M 131.528, 595.772 
	L 131.528, 595.772 
	L 131.528, 0.001 
" />
<path d="M 136.064, 595.772 
	L 136.063, 595.772 
	L 136.063, 0.001 
" />
<path d="M 140.599, 595.772 
	L 140.598, 595.772 
	L 140.598, 0.001 
" />
<path d="M 145.135, 595.772 
	L 145.134, 595.772 
	L 145.134, 0.001 
" />
<path d="M 149.670, 595.772 
	L 149.669, 595.772 
	L 149.669, 0.001 
" />
<path d="M 154.205, 595.772 
	L 154.205, 595.772 
	L 154.205, 0.001 
" />
<path d="M 158.741, 595.772 
	L 158.740, 595.772 
	L 158.740, 0.001 
" />
<path d="M 163.276, 595.772 
	L 163.276, 595.772 
	L 163.276, 0.001 
" />
<path d="M 167.812, 595.772 
	L 167.811, 595.772 
	L 167.811, 0.001 
" />
<path d="M 172.347, 595.772 
	L 172.346, 595.772 
	L 172.346, 0.001 
" />
<path d="M 176.883, 595.772 
	L 176.882, 595.772 
	L 176.882, 0.001 
" />
<path d="M 181.418, 595.772 
	L 181.417, 595.772 
	L 181.417, 0.001 
" />
<path d="M 185.953, 595.772 
	L 185.953, 595.772 
	L 185.953, 0.001 
" />
<path d="M 190.489, 595.772 
	L 190.488, 595.772 
	L 190.488, 0.001 
" />
<path d="M 195.024, 595.772 
	L 195.024, 595.772 
	L 195.024, 0.001 
" />
<path d="M 199.560, 595.772 
	L 199.559, 595.772 
	L 199.559, 0.001 
" />
<path d="M 204.095, 595.772 
	L 204.095, 595.772 
	L 204.095, 0.001 
" />
<path d="M 208.631, 595.772 
	L 208.630, 595.772 
	L 208.630, 0.001 
" />
<path d="M 213.166, 595.772 
	L 213.165, 595.772 
	L 213.165, 0.001 
" />
<path d="M 217.702, 595.772 
	L 217.701, 595.772 
	L 217.701, 0.001 
" />
<path d="M 222.237, 595.772 
	L 222.236, 595.772 
	L 222.236, 0.001 
" />
<path d="M 226.772, 595.772 
	L 226.772, 595.772 
	L 226.772, 0.001 
" />
<path d="M 231.308, 595.772 
	L 231.307, 595.772 
	L 231.307, 0.001 
" />
<path d="M 235.843, 595.772 
	L 235.843, 595.772 
	L 235.843, 0.001 
" />
<path d="M 240.379, 595.772 
	L 240.378, 595.772 
	L 240.378, 0.001 
" />
<path d="M 244.914, 595.772 
	L 244.913, 595.772 
	L 244.913, 0.001 
" />
<path d="M 249.450, 595.772 
	L 249.449, 595.772 
	L 249.449, 0.001 
" />
<path d="M 253.985, 595.772 
	L 253.984, 595.772 
	L 253.984, 0.001 
" />
<path d="M 258.520, 595.772 
	L 258.520, 595.772 
	L 258.520, 0.001 
" />
<path d="M 263.056, 595.772 
	L 263.055, 595.772 
	L 263.055, 0.001 
" />
<path d="M 267.591, 595.772 
	L 267.591, 595.772 
	L 267.591, 0.001 
" />
<path d="M 272.127, 595.772 
	L 272.126, 595.772 
	L 272.126, 0.001 
" />
<path d="M 276.662, 595.772 
	L 276.661, 595.772 
	L 276.661, 0.001 
" />
<path d="M 281.198, 595.772 
	L 281.197, 595.772 
	L 281.197, 0.001 
" />
<path d="M 285.733, 595.772 
	L 285.732, 595.772 
	L 285.732, 0.001 
" />
<path d="M 290.268, 595.772 
	L 290.268, 595.772 
	L 290.268, 0.001 
" />
<path d="M 294.804, 595.772 
	L 294.803, 595.772 
	L 294.803, 0.001 
" />
<path d="M 299.339, 595.772 
	L 299.339, 595.772 
	L 299.339, 0.001 
" />
<path d="M 303.875, 595.772 
	L 303.874, 595.772 
	L 303.874, 0.001 
" />
<path d="M 308.410, 595.772 
	L 308.409, 595.772 
	L 308.409, 0.001 
" />
<path d="M 312.946, 595.772 
	L 312.945, 595.772 
	L 312.945, 0.001 
" />
<path d="M 317.481, 595.772 
	L 317.480, 595.772 
	L 317.480, 0.001 
" />
<path d="M 322.016, 595.772 
	L 322.016, 595.772 
	L 322.016, 0.001 
" />
<path d="M 326.552, 595.772 
	L 326.551, 595.772 
	L 326.551, 0.001 
" />
<path d="M 331.087, 595.772 
	L 331.087, 595.772 
	L 331.087, 0.001 
" />
<path d="M 335.623, 595.772 
	L 335.622, 595.772 
	L 335.622, 0.001 
" />
<path d="M 340.158, 595.772 
	L 340.158, 595.772 
	L 340.158, 0.001 
" />
<path d="M 344.694, 595.772 
	L 344.693, 595.772 
	L 344.693, 0.001 
" />
<path d="M 349.229, 595.772 
	L 349.228, 595.772 
	L 349.228, 0.001 
" />
<path d="M 353.765, 595.772 
	L 353.764, 595.772 
	L 353.764, 0.001 
" />
<path d="M 358.300, 595.772 
	L 358.299, 595.772 
	L 358.299, 0.001 
" />
<path d="M 362.835, 595.772 
	L 362.835, 595.772 
	L 362.835, 0.001 
" />
<path d="M 367.371, 595.772 
	L 367.370, 595.772 
	L 367.370, 0.001 
" />
<path d="M 371.906, 595.772 
	L 371.906, 595.772 
	L 371.906, 0.001 
" />
<path d="M 376.442, 595.772 
	L 376.441, 595.772 
	L 376.441, 0.001 
" />
<path d="M 380.977, 595.772 
	L 380.976, 595.772 
	L 380.976, 0.001 
" />
<path d="M 385.513, 595.772 
	L 385.512, 595.772 
	L 385.512, 0.001 
" />
<path d="M 390.048, 595.772 
	L 390.047, 595.772 
	L 390.047, 0.001 
" />
<path d="M 394.583, 595.772 
	L 394.583, 595.772 
	L 394.583, 0.001 
" />
<path d="M 399.119, 595.772 
	L 399.118, 595.772 
	L 399.118, 0.001 
" />
<path d="M 403.654, 595.772 
	L 403.654, 595.772 
	L 403.654, 0.001 
" />
<path d="M 408.190, 595.772 
	L 408.189, 595.772 
	L 408.189, 0.001 
" />
<path d="M 412.725, 595.772 
	L 412.724, 595.772 
	L 412.724, 0.001 
" />
<path d="M 417.261, 595.772 
	L 417.260, 595.772 
	L 417.260, 0.001 
" />
<path d="M 421.796, 595.772 
	L 421.795, 595.772 
	L 421.795, 0.001 
" />
<path d="M 426.331, 595.772 
	L 426.331, 595.772 
	L 426.331, 0.001 
" />
<path d="M 430.867, 595.772 
	L 430.866, 595.772 
	L 430.866, 0.001 
" />
<path d="M 435.402, 595.772 
	L 435.402, 595.772 
	L 435.402, 0.001 
" />
<path d="M 439.938, 595.772 
	L 439.937, 595.772 
	L 439.937, 0.001 
" />
<path d="M 444.473, 595.772 
	L 444.473, 595.772 
	L 444.473, 0.001 
" />
<path d="M 449.009, 595.772 
	L 449.008, 595.772 
	L 449.008, 0.001 
" />
<path d="M 453.544, 595.772 
	L 453.543, 595.772 
	L 453.543, 0.001 
" />
<path d="M 458.080, 595.772 
	L 458.079, 595.772 
	L 458.079, 0.001 
" />
<path d="M 462.615, 595.772 
	L 462.614, 595.772 
	L 462.614, 0.001 
" />
<path d="M 467.150, 595.772 
	L 467.150, 595.772 
	L 467.150, 0.001 
" />
<path d="M 471.686, 595.772 
	L 471.685, 595.772 
	L 471.685, 0.001 
" />
<path d="M 476.221, 595.772 
	L 476.221, 595.772 
	L 476.221, 0.001 
" />
<path d="M 480.757, 595.772 
	L 480.756, 595.772 
	L 480.756, 0.001 
" />
<path d="M 485.292, 595.772 
	L 485.291, 595.772 
	L 485.291, 0.001 
" />
<path d="M 489.828, 595.772 
	L 489.827, 595.772 
	L 489.827, 0.001 
" />
<path d="M 494.363, 595.772 
	L 494.362, 595.772 
	L 494.362, 0.001 
" />
<path d="M 498.898, 595.772 
	L 498.898, 595.772 
	L 498.898, 0.001 
" />
<path d="M 503.434, 595.772 
	L 503.433, 595.772 
	L 503.433, 0.001 
" />
<path d="M 507.969, 595.772 
	L 507.969, 595.772 
	L 507.969, 0.001 
" />
<path d="M 512.505, 595.772 
	L 512.504, 595.772 
	L 512.504, 0.001 
" />
<path d="M 517.040, 595.772 
	L 517.039, 595.772 
	L 517.039, 0.001 
" />
<path d="M 521.576, 595.772 
	L 521.575, 595.772 
	L 521.575, 0.001 
" />
<path d="M 526.111, 595.772 
	L 526.110, 595.772 
	L 526.110, 0.001 
" />
<path d="M 530.646, 595.772 
	L 530.646, 595.772 
	L 530.646, 0.001 
" />
<path d="M 535.182, 595.772 
	L 535.181, 595.772 
	L 535.181, 0.001 
" />
<path d="M 539.717, 595.772 
	L 539.717, 595.772 
	L 539.717, 0.001 
" />
<path d="M 544.253, 595.772 
	L 544.252, 595.772 
	L 544.252, 0.001 
" />
<path d="M 548.788, 595.772 
	L 548.787, 595.772 
	L 548.787, 0.001 
" />
<path d="M 553.324, 595.772 
	L 553.323, 595.772 
	L 553.323, 0.001 
" />
<path d="M 557.859, 595.772 
	L 557.858, 595.772 
	L 557.858, 0.001 
" />
<path d="M 562.394, 595.772 
	L 562.394, 595.772 
	L 562.394, 0.001 
" />
<path d="M 566.930, 595.772 
	L 566.929, 595.772 
	L 566.929, 0.001 
" />
<path d="M 571.465, 595.772 
	L 571.465, 595.772 
	L 571.465, 0.001 
" />
<path d="M 576.001, 595.772 
	L 576.000, 595.772 
	L 576.000, 0.001 
" />
<path d="M 580.536, 595.772 
	L 580.536, 595.772 
	L 580.536, 0.001 
" />
<path d="M 585.072, 595.772 
	L 585.071, 595.772 
	L 585.071, 0.001 
" />
<path d="M 589.607, 595.772 
	L 589.606, 595.772 
	L 589.606, 0.001 
" />
<path d="M 594.143, 595.772 
	L 594.142, 595.772 
	L 594.142, 0.001 
" />
<path d="M 598.678, 595.772 
	L 598.677, 595.772 
	L 598.677, 0.001 
" />
<path d="M 603.213, 595.772 
	L 603.213, 595.772 
	L 603.213, 0.001 
" />
<path d="M 607.749, 595.772 
	L 607.748, 595.772 
	L 607.748, 0.001 
" />
<path d="M 612.284, 595.772 
	L 612.284, 595.772 
	L 612.284, 0.001 
" />
<path d="M 616.820, 595.772 
	L 616.819, 595.772 
	L 616.819, 0.001 
" />
<path d="M 621.355, 595.772 
	L 621.354, 595.772 
	L 621.354, 0.001 
" />
<path d="M 625.891, 595.772 
	L 625.890, 595.772 
	L 625.890, 0.001 
" />
<path d="M 630.426, 595.772 
	L 630.425, 595.772 
	L 630.425, 0.001 
" />
<path d="M 634.961, 595.772 
	L 634.961, 595.772 
	L 634.961, 0.001 
" />
<path d="M 639.497, 595.772 
	L 639.496, 595.772 
	L 639.496, 0.001 
" />
<path d="M 644.032, 595.772 
	L 644.032, 595.772 
	L 644.032, 0.001 
" />
<path d="M 648.568, 595.772 
	L 648.567, 595.772 
	L 648.567, 0.001 
" />
<path d="M 653.103, 595.772 
	L 653.102, 595.772 
	L 653.102, 0.001 
" />
<path d="M 657.639, 595.772 
	L 657.638, 595.772 
	L 657.638, 0.001 
" />
<path d="M 662.174, 595.772 
	L 662.173, 595.772 
	L 662.173, 0.001 
" />
<path d="M 666.709, 595.772 
	L 666.709, 595.772 
	L 666.709, 0.001 
" />
<path d="M 671.245, 595.772 
	L 671.244, 595.772 
	L 671.244, 0.001 
" />
<path d="M 675.780, 595.772 
	L 675.780, 595.772 
	L 675.780, 0.001 
" />
<path d="M 680.316, 595.772 
	L 680.315, 595.772 
	L 680.315, 0.001 
" />
<path d="M 684.851, 595.772 
	L 684.850, 595.772 
	L 684.850, 0.001 
" />
<path d="M 689.387, 595.772 
	L 689.386, 595.772 
	L 689.386, 0.001 
" />
<path d="M 693.922, 595.772 
	L 693.921, 595.772 
	L 693.921, 0.001 
" />
<path d="M 698.457, 595.772 
	L 698.457, 595.772 
	L 698.457, 0.001 
" />
<path d="M 702.993, 595.772 
	L 702.992, 595.772 
	L 702.992, 0.001 
" />
</g><g style="stroke:rgb(255,255,0); fill:none; stroke-width:0.100mm" >
<path d="M 708.662, 595.807 
	L 708.662, 595.808 
	L 708.662, 0.036 
	L 708.662, 595.808 
" />
</g><g style="stroke:rgb(0,0,0); fill:none; stroke-width:0.100mm" >
<path d="M 708.662, 0.035 
	L 708.662, 0.036 
	L 708.662, 595.808 
	L 708.662, 0.036 
" />
</g><g style="stroke:rgb(0,0,0); fill:none; stroke-width:0.100mm" >
<path d="M 708.627, 0.000 
	L 708.626, 0.001 
	L 708.626, 85.324 
	L 148.854, 85.324 
	L 148.854, 0.001 
	L 708.626, 0.001 
" />
</g><g style="stroke:rgb(255,0,0); fill:none; stroke-width:0.100mm" >
<path d="M 708.627, 85.323 
	L 708.626, 85.324 
	L 708.626, 0.001 
	L 148.854, 0.001 
	L 148.854, 85.324 
	L 708.626, 85.324 
" />
</g><g style="stroke:rgb(0,255,0); fill:none; stroke-width:0.100mm" >
<path d="M 148.855, 85.323 
	L 148.854, 85.324 
	L 148.854, 0.001 
	L 708.626, 0.001 
	L 708.626, 85.324 
	L 148.854, 85.324 
" />
<path d="M 148.890, 85.323 
	L 148.890, 85.324 
	L 148.890, 0.001 
" />
<path d="M 153.426, 85.323 
	L 153.425, 85.324 
	L 153.425, 0.001 
" />
<path d="M 157.961, 85.323 
	L 157.961, 85.324 
	L 157.961, 0.001 
" />
<path d="M 162.497, 85.323 
	L 162.496, 85.324 
	L 162.496, 0.001 
" />
<path d="M 167.032, 85.323 
	L 167.032, 85.324 
	L 167.032, 0.001 
" />
<path d="M 171.568, 85.323 
	L 171.567, 85.324 
	L 171.567, 0.001 
" />
<path d="M 176.103, 85.323 
	L 176.102, 85.324 
	L 176.102, 0.001 
" />
<path d="M 180.639, 85.323 
	L 180.638, 85.324 
	L 180.638, 0.001 
" />
<path d="M 185.174, 85.323 
	L 185.173, 85.324 
	L 185.173, 0.001 
" />
<path d="M 189.709, 85.323 
	L 189.709, 85.324 
	L 189.709, 0.001 
" />
<path d="M 194.245, 85.323 
	L 194.244, 85.324 
	L 194.244, 0.001 
" />
<path d="M 198.780, 85.323 
	L 198.780, 85.324 
	L 198.780, 0.001 
" />
<path d="M 203.316, 85.323 
	L 203.315, 85.324 
	L 203.315, 0.001 
" />
<path d="M 207.851, 85.323 
	L 207.850, 85.324 
	L 207.850, 0.001 
" />
<path d="M 212.387, 85.323 
	L 212.386, 85.324 
	L 212.386, 0.001 
" />
<path d="M 216.922, 85.323 
	L 216.921, 85.324 
	L 216.921, 0.001 
" />
<path d="M 221.457, 85.323 
	L 221.457, 85.324 
	L 221.457, 0.001 
" />
<path d="M 225.993, 85.323 
	L 225.992, 85.324 
	L 225.992, 0.001 
" />
<path d="M 230.528, 85.323 
	L 230.528, 85.324 
	L 230.528, 0.001 
" />
<path d="M 235.064, 85.323 
	L 235.063, 85.324 
	L 235.063, 0.001 
" />
<path d="M 239.599, 85.323 
	L 239.598, 85.324 
	L 239.598, 0.001 
" />
<path d="M 244.135, 85.323 
	L 244.134, 85.324 
	L 244.134, 0.001 
" />
<path d="M 248.670, 85.323 
	L 248.669, 85.324 
	L 248.669, 0.001 
" />
<path d="M 253.205, 85.323 
	L 253.205, 85.324 
	L 253.205, 0.001 
" />
<path d="M 257.741, 85.323 
	L 257.740, 85.324 
	L 257.740, 0.001 
" />
<path d="M 262.276, 85.323 
	L 262.276, 85.324 
	L 262.276, 0.001 
" />
<path d="M 266.812, 85.323 
	L 266.811, 85.324 
	L 266.811, 0.001 
" />
<path d="M 271.347, 85.323 
	L 271.346, 85.324 
	L 271.346, 0.001 
" />
<path d="M 275.883, 85.323 
	L 275.882, 85.324 
	L 275.882, 0.001 
" />
<path d="M 280.418, 85.323 
	L 280.417, 85.324 
	L 280.417, 0.001 
" />
<path d="M 284.954, 85.323 
	L 284.953, 85.324 
	L 284.953, 0.001 
" />
<path d="M 289.489, 85.323 
	L 289.488, 85.324 
	L 289.488, 0.001 
" />
<path d="M 294.024, 85.323 
	L 294.024, 85.324 
	L 294.024, 0.001 
" />
<path d="M 298.560, 85.323 
	L 298.559, 85.324 
	L 298.559, 0.001 
" />
<path d="M 303.095, 85.323 
	L 303.095, 85.324 
	L 303.095, 0.001 
" />
<path d="M 307.631, 85.323 
	L 307.630, 85.324 
	L 307.630, 0.001 
" />
<path d="M 312.166, 85.323 
	L 312.165, 85.324 
	L 312.165, 0.001 
" />
<path d="M 316.702, 85.323 
	L 316.701, 85.324 
	L 316.701, 0.001 
" />
<path d="M 321.237, 85.323 
	L 321.236, 85.324 
	L 321.236, 0.001 
" />
<path d="M 325.772, 85.323 
	L 325.772, 85.324 
	L 325.772, 0.001 
" />
<path d="M 330.308, 85.323 
	L 330.307, 85.324 
	L 330.307, 0.001 
" />
<path d="M 334.843, 85.323 
	L 334.843, 85.324 
	L 334.843, 0.001 
" />
<path d="M 339.379, 85.323 
	L 339.378, 85.324 
	L 339.378, 0.001 
" />
<path d="M 343.914, 85.323 
	L 343.913, 85.324 
	L 343.913, 0.001 
" />
<path d="M 348.450, 85.323 
	L 348.449, 85.324 
	L 348.449, 0.001 
" />
<path d="M 352.985, 85.323 
	L 352.984, 85.324 
	L 352.984, 0.001 
" />
<path d="M 357.520, 85.323 
	L 357.520, 85.324 
	L 357.520, 0.001 
" />
<path d="M 362.056, 85.323 
	L 362.055, 85.324 
	L 362.055, 0.001 
" />
<path d="M 366.591, 85.323 
	L 366.591, 85.324 
	L 366.591, 0.001 
" />
<path d="M 371.127, 85.323 
	L 371.126, 85.324 
	L 371.126, 0.001 
" />
<path d="M 375.662, 85.323 
	L 375.661, 85.324 
	L 375.661, 0.001 
" />
<path d="M 380.198, 85.323 
	L 380.197, 85.324 
	L 380.197, 0.001 
" />
<path d="M 384.733, 85.323 
	L 384.732, 85.324 
	L 384.732, 0.001 
" />
<path d="M 389.268, 85.323 
	L 389.268, 85.324 
	L 389.268, 0.001 
" />
<path d="M 393.804, 85.323 
	L 393.803, 85.324 
	L 393.803, 0.001 
" />
<path d="M 398.339, 85.323 
	L 398.339, 85.324 
	L 398.339, 0.001 
" />
<path d="M 402.875, 85.323 
	L 402.874, 85.324 
	L 402.874, 0.001 
" />
<path d="M 407.410, 85.323 
	L 407.410, 85.324 
	L 407.410, 0.001 
" />
<path d="M 411.946, 85.323 
	L 411.945, 85.324 
	L 411.945, 0.001 
" />
<path d="M 416.481, 85.323 
	L 416.480, 85.324 
	L 416.480, 0.001 
" />
<path d="M 421.017, 85.323 
	L 421.016, 85.324 
	L 421.016, 0.001 
" />
<path d="M 425.552, 85.323 
	L 425.551, 85.324 
	L 425.551, 0.001 
" />
<path d="M 430.087, 85.323 
	L 430.087, 85.324 
	L 430.087, 0.001 
" />
<path d="M 434.623, 85.323 
	L 434.622, 85.324 
	L 434.622, 0.001 
" />
<path d="M 439.158, 85.323 
	L 439.158, 85.324 
	L 439.158, 0.001 
" />
<path d="M 443.694, 85.323 
	L 443.693, 85.324 
	L 443.693, 0.001 
" />
<path d="M 448.229, 85.323 
	L 448.228, 85.324 
	L 448.228, 0.001 
" />
<path d="M 452.765, 85.323 
	L 452.764, 85.324 
	L 452.764, 0.001 
" />
<path d="M 457.300, 85.323 
	L 457.299, 85.324 
	L 457.299, 0.001 
" />
<path d="M 461.835, 85.323 
	L 461.835, 85.324 
	L 461.835, 0.001 
" />
<path d="M 466.371, 85.323 
	L 466.370, 85.324 
	L 466.370, 0.001 
" />
<path d="M 470.906, 85.323 
	L 470.906, 85.324 
	L 470.906, 0.001 
" />
<path d="M 475.442, 85.323 
	L 475.441, 85.324 
	L 475.441, 0.001 
" />
<path d="M 479.977, 85.323 
	L 479.976, 85.324 
	L 479.976, 0.001 
" />
<path d="M 484.513, 85.323 
	L 484.512, 85.324 
	L 484.512, 0.001 
" />
<path d="M 489.048, 85.323 
	L 489.047, 85.324 
	L 489.047, 0.001 
" />
<path d="M 493.583, 85.323 
	L 493.583, 85.324 
	L 493.583, 0.001 
" />
<path d="M 498.119, 85.323 
	L 498.118, 85.324 
	L 498.118, 0.001 
" />
<path d="M 502.654, 85.323 
	L 502.654, 85.324 
	L 502.654, 0.001 
" />
<path d="M 507.190, 85.323 
	L 507.189, 85.324 
	L 507.189, 0.001 
" />
<path d="M 511.725, 85.323 
	L 511.724, 85.324 
	L 511.724, 0.001 
" />
<path d="M 516.261, 85.323 
	L 516.260, 85.324 
	L 516.260, 0.001 
" />
<path d="M 520.796, 85.323 
	L 520.795, 85.324 
	L 520.795, 0.001 
" />
<path d="M 525.331, 85.323 
	L 525.331, 85.324 
	L 525.331, 0.001 
" />
<path d="M 529.867, 85.323 
	L 529.866, 85.324 
	L 529.866, 0.001 
" />
<path d="M 534.402, 85.323 
	L 534.402, 85.324 
	L 534.402, 0.001 
" />
<path d="M 538.938, 85.323 
	L 538.937, 85.324 
	L 538.937, 0.001 
" />
<path d="M 543.473, 85.323 
	L 543.473, 85.324 
	L 543.473, 0.001 
" />
<path d="M 548.009, 85.323 
	L 548.008, 85.324 
	L 548.008, 0.001 
" />
<path d="M 552.544, 85.323 
	L 552.543, 85.324 
	L 552.543, 0.001 
" />
<path d="M 557.080, 85.323 
	L 557.079, 85.324 
	L 557.079, 0.001 
" />
<path d="M 561.615, 85.323 
	L 561.614, 85.324 
	L 561.614, 0.001 
" />
<path d="M 566.150, 85.323 
	L 566.150, 85.324 
	L 566.150, 0.001 
" />
<path d="M 570.686, 85.323 
	L 570.685, 85.324 
	L 570.685, 0.001 
" />
<path d="M 575.221, 85.323 
	L 575.221, 85.324 
	L 575.221, 0.001 
" />
<path d="M 579.757, 85.323 
	L 579.756, 85.324 
	L 579.756, 0.001 
" />
<path d="M 584.292, 85.323 
	L 584.291, 85.324 
	L 584.291, 0.001 
" />
<path d="M 588.828, 85.323 
	L 588.827, 85.324 
	L 588.827, 0.001 
" />
<path d="M 593.363, 85.323 
	L 593.362, 85.324 
	L 593.362, 0.001 
" />
<path d="M 597.898, 85.323 
	L 597.898, 85.324 
	L 597.898, 0.001 
" />
<path d="M 602.434, 85.323 
	L 602.433, 85.324 
	L 602.433, 0.001 
" />
<path d="M 606.969, 85.323 
	L 606.969, 85.324 
	L 606.969, 0.001 
" />
<path d="M 611.505, 85.323 
	L 611.504, 85.324 
	L 611.504, 0.001 
" />
<path d="M 616.040, 85.323 
	L 616.039, 85.324 
	L 616.039, 0.001 
" />
<path d="M 620.576, 85.323 
	L 620.575, 85.324 
	L 620.575, 0.001 
" />
<path d="M 625.111, 85.323 
	L 625.110, 85.324 
	L 625.110, 0.001 
" />
<path d="M 629.646, 85.323 
	L 629.646, 85.324 
	L 629.646, 0.001 
" />
<path d="M 634.182, 85.323 
	L 634.181, 85.324 
	L 634.181, 0.001 
" />
<path d="M 638.717, 85.323 
	L 638.717, 85.324 
	L 638.717, 0.001 
" />
<path d="M 643.253, 85.323 
	L 643.252, 85.324 
	L 643.252, 0.001 
" />
<path d="M 647.788, 85.323 
	L 647.788, 85.324 
	L 647.788, 0.001 
" />
<path d="M 652.324, 85.323 
	L 652.323, 85.324 
	L 652.323, 0.001 
" />
<path d="M 656.859, 85.323 
	L 656.858, 85.324 
	L 656.858, 0.001 
" />
<path d="M 661.394, 85.323 
	L 661.394, 85.324 
	L 661.394, 0.001 
" />
<path d="M 665.930, 85.323 
	L 665.929, 85.324 
	L 665.929, 0.001 
" />
<path d="M 670.465, 85.323 
	L 670.465, 85.324 
	L 670.465, 0.001 
" />
<path d="M 675.001, 85.323 
	L 675.000, 85.324 
	L 675.000, 0.001 
" />
<path d="M 679.536, 85.323 
	L 679.536, 85.324 
	L 679.536, 0.001 
" />
<path d="M 684.072, 85.323 
	L 684.071, 85.324 
	L 684.071, 0.001 
" />
<path d="M 688.607, 85.323 
	L 688.606, 85.324 
	L 688.606, 0.001 
" />
<path d="M 693.143, 85.323 
	L 693.142, 85.324 
	L 693.142, 0.001 
" />
<path d="M 697.678, 85.323 
	L 697.677, 85.324 
	L 697.677, 0.001 
" />
<path d="M 702.213, 85.323 
	L 702.213, 85.324 
	L 702.213, 0.001 
" />
</g><g style="stroke:rgb(0,0,255); fill:none; stroke-width:0.100mm" >
<path d="M 148.855, 0.000 
	L 148.854, 0.001 
	L 148.854, 85.324 
	L 708.626, 85.324 
	L 708.626, 0.001 
	L 148.854, 0.001 
" />
<path d="M 148.890, 0.000 
	L 148.890, 0.001 
	L 148.890, 85.324 
" />
<path d="M 153.426, 0.000 
	L 153.425, 0.001 
	L 153.425, 85.324 
" />
<path d="M 157.961, 0.000 
	L 157.961, 0.001 
	L 157.961, 85.324 
" />
<path d="M 162.497, 0.000 
	L 162.496, 0.001 
	L 162.496, 85.324 
" />
<path d="M 167.032, 0.000 
	L 167.032, 0.001 
	L 167.032, 85.324 
" />
<path d="M 171.568, 0.000 
	L 171.567, 0.001 
	L 171.567, 85.324 
" />
<path d="M 176.103, 0.000 
	L 176.102, 0.001 
	L 176.102, 85.324 
" />
<path d="M 180.639, 0.000 
	L 180.638, 0.001 
	L 180.638, 85.324 
" />
<path d="M 185.174, 0.000 
	L 185.173, 0.001 
	L 185.173, 85.324 
" />
<path d="M 189.709, 0.000 
	L 189.709, 0.001 
	L 189.709, 85.324 
" />
<path d="M 194.245, 0.000 
	L 194.244, 0.001 
	L 194.244, 85.324 
" />
<path d="M 198.780, 0.000 
	L 198.780, 0.001 
	L 198.780, 85.324 
" />
<path d="M 203.316, 0.000 
	L 203.315, 0.001 
	L 203.315, 85.324 
" />
<path d="M 207.851, 0.000 
	L 207.850, 0.001 
	L 207.850, 85.324 
" />
<path d="M 212.387, 0.000 
	L 212.386, 0.001 
	L 212.386, 85.324 
" />
<path d="M 216.922, 0.000 
	L 216.921, 0.001 
	L 216.921, 85.324 
" />
<path d="M 221.457, 0.000 
	L 221.457, 0.001 
	L 221.457, 85.324 
" />
<path d="M 225.993, 0.000 
	L 225.992, 0.001 
	L 225.992, 85.324 
" />
<path d="M 230.528, 0.000 
	L 230.528, 0.001 
	L 230.528, 85.324 
" />
<path d="M 235.064, 0.000 
	L 235.063, 0.001 
	L 235.063, 85.324 
" />
<path d="M 239.599, 0.000 
	L 239.598, 0.001 
	L 239.598, 85.324 
" />
<path d="M 244.135, 0.000 
	L 244.134, 0.001 
	L 244.134, 85.324 
" />
<path d="M 248.670, 0.000 
	L 248.669, 0.001 
	L 248.669, 85.324 
" />
<path d="M 253.205, 0.000 
	L 253.205, 0.001 
	L 253.205, 85.324 
" />
<path d="M 257.741, 0.000 
	L 257.740, 0.001 
	L 257.740, 85.324 
" />
<path d="M 262.276, 0.000 
	L 262.276, 0.001 
	L 262.276, 85.324 
" />
<path d="M 266.812, 0.000 
	L 266.811, 0.001 
	L 266.811, 85.324 
" />
<path d="M 271.347, 0.000 
	L 271.346, 0.001 
	L 271.346, 85.324 
" />
<path d="M 275.883, 0.000 
	L 275.882, 0.001 
	L 275.882, 85.324 
" />
<path d="M 280.418, 0.000 
	L 280.417, 0.001 
	L 280.417, 85.324 
" />
<path d="M 284.954, 0.000 
	L 284.953, 0.001 
	L 284.953, 85.324 
" />
<path d="M 289.489, 0.000 
	L 289.488, 0.001 
	L 289.488, 85.324 
" />
<path d="M 294.024, 0.000 
	L 294.024, 0.001 
	L 294.024, 85.324 
" />
<path d="M 298.560, 0.000 
	L 298.559, 0.001 
	L 298.559, 85.324 
" />
<path d="M 303.095, 0.000 
	L 303.095, 0.001 
	L 303.095, 85.324 
" />
<path d="M 307.631, 0.000 
	L 307.630, 0.001 
	L 307.630, 85.324 
" />
<path d="M 312.166, 0.000 
	L 312.165, 0.001 
	L 312.165, 85.324 
" />
<path d="M 316.702, 0.000 
	L 316.701, 0.001 
	L 316.701, 85.324 
" />
<path d="M 321.237, 0.000 
	L 321.236, 0.001 
	L 321.236, 85.324 
" />
<path d="M 325.772, 0.000 
	L 325.772, 0.001 
	L 325.772, 85.324 
" />
<path d="M 330.308, 0.000 
	L 330.307, 0.001 
	L 330.307, 85.324 
" />
<path d="M 334.843, 0.000 
	L 334.843, 0.001 
	L 334.843, 85.324 
" />
<path d="M 339.379, 0.000 
	L 339.378, 0.001 
	L 339.378, 85.324 
" />
<path d="M 343.914, 0.000 
	L 343.913, 0.001 
	L 343.913, 85.324 
" />
<path d="M 348.450, 0.000 
	L 348.449, 0.001 
	L 348.449, 85.324 
" />
<path d="M 352.985, 0.000 
	L 352.984, 0.001 
	L 352.984, 85.324 
" />
<path d="M 357.520, 0.000 
	L 357.520, 0.001 
	L 357.520, 85.324 
" />
<path d="M 362.056, 0.000 
	L 362.055, 0.001 
	L 362.055, 85.324 
" />
<path d="M 366.591, 0.000 
	L 366.591, 0.001 
	L 366.591, 85.324 
" />
<path d="M 371.127, 0.000 
	L 371.126, 0.001 
	L 371.126, 85.324 
" />
<path d="M 375.662, 0.000 
	L 375.661, 0.001 
	L 375.661, 85.324 
" />
<path d="M 380.198, 0.000 
	L 380.197, 0.001 
	L 380.197, 85.324 
" />
<path d="M 384.733, 0.000 
	L 384.732, 0.001 
	L 384.732, 85.324 
" />
<path d="M 389.268, 0.000 
	L 389.268, 0.001 
	L 389.268, 85.324 
" />
<path d="M 393.804, 0.000 
	L 393.803, 0.001 
	L 393.803, 85.324 
" />
<path d="M 398.339, 0.000 
	L 398.339, 0.001 
	L 398.339, 85.324 
" />
<path d="M 402.875, 0.000 
	L 402.874, 0.001 
	L 402.874, 85.324 
" />
<path d="M 407.410, 0.000 
	L 407.410, 0.001 
	L 407.410, 85.324 
" />
<path d="M 411.946, 0.000 
	L 411.945, 0.001 
	L 411.945, 85.324 
" />
<path d="M 416.481, 0.000 
	L 416.480, 0.001 
	L 416.480, 85.324 
" />
<path d="M 421.017, 0.000 
	L 421.016, 0.001 
	L 421.016, 85.324 
" />
<path d="M 425.552, 0.000 
	L 425.551, 0.001 
	L 425.551, 85.324 
" />
<path d="M 430.087, 0.000 
	L 430.087, 0.001 
	L 430.087, 85.324 
" />
<path d="M 434.623, 0.000 
	L 434.622, 0.001 
	L 434.622, 85.324 
" />
<path d="M 439.158, 0.000 
	L 439.158, 0.001 
	L 439.158, 85.324 
" />
<path d="M 443.694, 0.000 
	L 443.693, 0.001 
	L 443.693, 85.324 
" />
<path d="M 448.229, 0.000 
	L 448.228, 0.001 
	L 448.228, 85.324 
" />
<path d="M 452.765, 0.000 
	L 452.764, 0.001 
	L 452.764, 85.324 
" />
<path d="M 457.300, 0.000 
	L 457.299, 0.001 
	L 457.299, 85.324 
" />
<path d="M 461.835, 0.000 
	L 461.835, 0.001 
	L 461.835, 85.324 
" />
<path d="M 466.371, 0.000 
	L 466.370, 0.001 
	L 466.370, 85.324 
" />
<path d="M 470.906, 0.000 
	L 470.906, 0.001 
	L 470.906, 85.324 
" />
<path d="M 475.442, 0.000 
	L 475.441, 0.001 
	L 475.441, 85.324 
" />
<path d="M 479.977, 0.000 
	L 479.976, 0.001 
	L 479.976, 85.324 
" />
<path d="M 484.513, 0.000 
	L 484.512, 0.001 
	L 484.512, 85.324 
" />
<path d="M 489.048, 0.000 
	L 489.047, 0.001 
	L 489.047, 85.324 
" />
<path d="M 493.583, 0.000 
	L 493.583, 0.001 
	L 493.583, 85.324 
" />
<path d="M 498.119, 0.000 
	L 498.118, 0.001 
	L 498.118, 85.324 
" />
<path d="M 502.654, 0.000 
	L 502.654, 0.001 
	L 502.654, 85.324 
" />
<path d="M 507.190, 0.000 
	L 507.189, 0.001 
	L 507.189, 85.324 
" />
<path d="M 511.725, 0.000 
	L 511.724, 0.001 
	L 511.724, 85.324 
" />
<path d="M 516.261, 0.000 
	L 516.260, 0.001 
	L 516.260, 85.324 
" />
<path d="M 520.796, 0.000 
	L 520.795, 0.001 
	L 520.795, 85.324 
" />
<path d="M 525.331, 0.000 
	L 525.331, 0.001 
	L 525.331, 85.324 
" />
<path d="M 529.867, 0.000 
	L 529.866, 0.001 
	L 529.866, 85.324 
" />
<path d="M 534.402, 0.000 
	L 534.402, 0.001 
	L 534.402, 85.324 
" />
<path d="M 538.938, 0.000 
	L 538.937, 0.001 
	L 538.937, 85.324 
" />
<path d="M 543.473, 0.000 
	L 543.473, 0.001 
	L 543.473, 85.324 
" />
<path d="M 548.009, 0.000 
	L 548.008, 0.001 
	L 548.008, 85.324 
" />
<path d="M 552.544, 0.000 
	L 552.543, 0.001 
	L 552.543, 85.324 
" />
<path d="M 557.080, 0.000 
	L 557.079, 0.001 
	L 557.079, 85.324 
" />
<path d="M 561.615, 0.000 
	L 561.614, 0.001 
	L 561.614, 85.324 
" />
<path d="M 566.150, 0.000 
	L 566.150, 0.001 
	L 566.150, 85.324 
" />
<path d="M 570.686, 0.000 
	L 570.685, 0.001 
	L 570.685, 85.324 
" />
<path d="M 575.221, 0.000 
	L 575.221, 0.001 
	L 575.221, 85.324 
" />
<path d="M 579.757, 0.000 
	L 579.756, 0.001 
	L 579.756, 85.324 
" />
<path d="M 584.292, 0.000 
	L 584.291, 0.001 
	L 584.291, 85.324 
" />
<path d="M 588.828, 0.000 
	L 588.827, 0.001 
	L 588.827, 85.324 
" />
<path d="M 593.363, 0.000 
	L 593.362, 0.001 
	L 593.362, 85.324 
" />
<path d="M 597.898, 0.000 
	L 597.898, 0.001 
	L 597.898, 85.324 
" />
<path d="M 602.434, 0.000 
	L 602.433, 0.001 
	L 602.433, 85.324 
" />
<path d="M 606.969, 0.000 
	L 606.969, 0.001 
	L 606.969, 85.324 
" />
<path d="M 611.505, 0.000 
	L 611.504, 0.001 
	L 611.504, 85.324 
" />
<path d="M 616.040, 0.000 
	L 616.039, 0.001 
	L 616.039, 85.324 
" />
<path d="M 620.576, 0.000 
	L 620.575, 0.001 
	L 620.575, 85.324 
" />
<path d="M 625.111, 0.000 
	L 625.110, 0.001 
	L 625.110, 85.324 
" />
<path d="M 629.646, 0.000 
	L 629.646, 0.001 
	L 629.646, 85.324 
" />
<path d="M 634.182, 0.000 
	L 634.181, 0.001 
	L 634.181, 85.324 
" />
<path d="M 638.717, 0.000 
	L 638.717, 0.001 
	L 638.717, 85.324 
" />
<path d="M 643.253, 0.000 
	L 643.252, 0.001 
	L 643.252, 85.324 
" />
<path d="M 647.788, 0.000 
	L 647.788, 0.001 
	L 647.788, 85.324 
" />
<path d="M 652.324, 0.000 
	L 652.323, 0.001 
	L 652.323, 85.324 
" />
<path d="M 656.859, 0.000 
	L 656.858, 0.001 
	L 656.858, 85.324 
" />
<path d="M 661.394, 0.000 
	L 661.394, 0.001 
	L 661.394, 85.324 
" />
<path d="M 665.930, 0.000 
	L 665.929, 0.001 
	L 665.929, 85.324 
" />
<path d="M 670.465, 0.000 
	L 670.465, 0.001 
	L 670.465, 85.324 
" />
<path d="M 675.001, 0.000 
	L 675.000, 0.001 
	L 675.000, 85.324 
" />
<path d="M 679.536, 0.000 
	L 679.536, 0.001 
	L 679.536, 85.324 
" />
<path d="M 684.072, 0.000 
	L 684.071, 0.001 
	L 684.071, 85.324 
" />
<path d="M 688.607, 0.000 
	L 688.606, 0.001 
	L 688.606, 85.324 
" />
<path d="M 693.143, 0.000 
	L 693.142, 0.001 
	L 693.142, 85.324 
" />
<path d="M 697.678, 0.000 
	L 697.677, 0.001 
	L 697.677, 85.324 
" />
<path d="M 702.213, 0.000 
	L 702.213, 0.001 
	L 702.213, 85.324 
" />
</g><g style="stroke:rgb(0,255,255); fill:none; stroke-width:0.100mm" >
<path d="M 708.627, 708.662 
	L 708.626, 708.662 
	L 708.626, 0.001 
	L 237.579, 0.001 
	L 237.579, 708.662 
	L 708.626, 708.662 
" />
</g><g style="stroke:rgb(255,0,255); fill:none; stroke-width:0.100mm" >
<path d="M 708.627, 0.000 
	L 708.626, 0.001 
	L 237.579, 0.001 
	L 708.626, 0.001 
" />
</g><g style="stroke:rgb(255,255,0); fill:none; stroke-width:0.100mm" >
<path d="M 237.579, 0.000 
	L 237.579, 0.001 
	L 708.626, 0.001 
	L 237.579, 0.001 
" />
<path d="M 237.615, 0.000 
	L 237.614, 0.001 
" />
<path d="M 242.150, 0.000 
	L 242.150, 0.001 
" />
<path d="M 246.686, 0.000 
	L 246.685, 0.001 
" />
<path d="M 251.221, 0.000 
	L 251.221, 0.001 
" />
<path d="M 255.757, 0.000 
	L 255.756, 0.001 
" />
<path d="M 260.292, 0.000 
	L 260.291, 0.001 
" />
<path d="M 264.828, 0.000 
	L 264.827, 0.001 
" />
<path d="M 269.363, 0.000 
	L 269.362, 0.001 
" />
<path d="M 273.898, 0.000 
	L 273.898, 0.001 
" />
<path d="M 278.434, 0.000 
	L 278.433, 0.001 
" />
<path d="M 282.969, 0.000 
	L 282.969, 0.001 
" />
<path d="M 287.505, 0.000 
	L 287.504, 0.001 
" />
<path d="M 292.040, 0.000 
	L 292.039, 0.001 
" />
<path d="M 296.576, 0.000 
	L 296.575, 0.001 
" />
<path d="M 301.111, 0.000 
	L 301.110, 0.001 
" />
<path d="M 305.646, 0.000 
	L 305.646, 0.001 
" />
<path d="M 310.182, 0.000 
	L 310.181, 0.001 
" />
<path d="M 314.717, 0.000 
	L 314.717, 0.001 
" />
<path d="M 319.253, 0.000 
	L 319.252, 0.001 
" />
<path d="M 323.788, 0.000 
	L 323.787, 0.001 
" />
<path d="M 328.324, 0.000 
	L 328.323, 0.001 
" />
<path d="M 332.859, 0.000 
	L 332.858, 0.001 
" />
<path d="M 337.394, 0.000 
	L 337.394, 0.001 
" />
<path d="M 341.930, 0.000 
	L 341.929, 0.001 
" />
<path d="M 346.465, 0.000 
	L 346.465, 0.001 
" />
<path d="M 351.001, 0.000 
	L 351.000, 0.001 
" />
<path d="M 355.536, 0.000 
	L 355.535, 0.001 
" />
<path d="M 360.072, 0.000 
	L 360.071, 0.001 
" />
<path d="M 364.607, 0.000 
	L 364.606, 0.001 
" />
<path d="M 369.142, 0.000 
	L 369.142, 0.001 
" />
<path d="M 373.678, 0.000 
	L 373.677, 0.001 
" />
<path d="M 378.213, 0.000 
	L 378.213, 0.001 
" />
<path d="M 382.749, 0.000 
	L 382.748, 0.001 
" />
<path d="M 387.284, 0.000 
	L 387.284, 0.001 
" />
<path d="M 391.820, 0.000 
	L 391.819, 0.001 
" />
<path d="M 396.355, 0.000 
	L 396.354, 0.001 
" />
<path d="M 400.891, 0.000 
	L 400.890, 0.001 
" />
<path d="M 405.426, 0.000 
	L 405.425, 0.001 
" />
<path d="M 409.961, 0.000 
	L 409.961, 0.001 
" />
<path d="M 414.497, 0.000 
	L 414.496, 0.001 
" />
<path d="M 419.032, 0.000 
	L 419.032, 0.001 
" />
<path d="M 423.568, 0.000 
	L 423.567, 0.001 
" />
<path d="M 428.103, 0.000 
	L 428.102, 0.001 
" />
<path d="M 432.639, 0.000 
	L 432.638, 0.001 
" />
<path d="M 437.174, 0.000 
	L 437.173, 0.001 
" />
<path d="M 441.709, 0.000 
	L 441.709, 0.001 
" />
<path d="M 446.245, 0.000 
	L 446.244, 0.001 
" />
<path d="M 450.780, 0.000 
	L 450.780, 0.001 
" />
<path d="M 455.316, 0.000 
	L 455.315, 0.001 
" />
<path d="M 459.851, 0.000 
	L 459.850, 0.001 
" />
<path d="M 464.387, 0.000 
	L 464.386, 0.001 
" />
<path d="M 468.922, 0.000 
	L 468.921, 0.001 
" />
<path d="M 473.457, 0.000 
	L 473.457, 0.001 
" />
<path d="M 477.993, 0.000 
	L 477.992, 0.001 
" />
<path d="M 482.528, 0.000 
	L 482.528, 0.001 
" />
<path d="M 487.064, 0.000 
	L 487.063, 0.001 
" />
<path d="M 491.599, 0.000 
	L 491.599, 0.001 
" />
<path d="M 496.135, 0.000 
	L 496.134, 0.001 
" />
<path d="M 500.670, 0.000 
	L 500.669, 0.001 
" />
<path d="M 505.205, 0.000 
	L 505.205, 0.001 
" />
<path d="M 509.741, 0.000 
	L 509.740, 0.001 
" />
<path d="M 514.276, 0.000 
	L 514.276, 0.001 
" />
<path d="M 518.812, 0.000 
	L 518.811, 0.001 
" />
<path d="M 523.347, 0.000 
	L 523.347, 0.001 
" />
<path d="M 527.883, 0.000 
	L 527.882, 0.001 
" />
<path d="M 532.418, 0.000 
	L 532.417, 0.001 
" />
<path d="M 536.954, 0.000 
	L 536.953, 0.001 
" />
<path d="M 541.489, 0.000 
	L 541.488, 0.001 
" />
<path d="M 546.024, 0.000 
	L 546.024, 0.001 
" />
<path d="M 550.560, 0.000 
	L 550.559, 0.001 
" />
<path d="M 555.095, 0.000 
	L 555.095, 0.001 
" />
<path d="M 559.631, 0.000 
	L 559.630, 0.001 
" />
<path d="M 564.166, 0.000 
	L 564.165, 0.001 
" />
<path d="M 568.702, 0.000 
	L 568.701, 0.001 
" />
<path d="M 573.237, 0.000 
	L 573.236, 0.001 
" />
<path d="M 577.772, 0.000 
	L 577.772, 0.001 
" />
<path d="M 582.308, 0.000 
	L 582.307, 0.001 
" />
<path d="M 586.843, 0.000 
	L 586.843, 0.001 
" />
<path d="M 591.379, 0.000 
	L 591.378, 0.001 
" />
<path d="M 595.914, 0.000 
	L 595.913, 0.001 
" />
<path d="M 600.450, 0.000 
	L 600.449, 0.001 
" />
<path d="M 604.985, 0.000 
	L 604.984, 0.001 
" />
<path d="M 609.520, 0.000 
	L 609.520, 0.001 
" />
<path d="M 614.056, 0.000 
	L 614.055, 0.001 
" />
<path d="M 618.591, 0.000 
	L 618.591, 0.001 
" />
<path d="M 623.127, 0.000 
	L 623.126, 0.001 
" />
<path d="M 627.662, 0.000 
	L 627.662, 0.001 
" />
<path d="M 632.198, 0.000 
	L 632.197, 0.001 
" />
<path d="M 636.733, 0.000 
	L 636.732, 0.001 
" />
<path d="M 641.269, 0.000 
	L 641.268, 0.001 
" />
<path d="M 645.804, 0.000 
	L 645.803, 0.001 
" />
<path d="M 650.339, 0.000 
	L 650.339, 0.001 
" />
<path d="M 654.875, 0.000 
	L 654.874, 0.001 
" />
<path d="M 659.410, 0.000 
	L 659.410, 0.001 
" />
<path d="M 663.946, 0.000 
	L 663.945, 0.001 
" />
<path d="M 668.481, 0.000 
	L 668.480, 0.001 
" />
<path d="M 673.017, 0.000 
	L 673.016, 0.001 
" />
<path d="M 677.552, 0.000 
	L 677.551, 0.001 
" />
<path d="M 682.087, 0.000 
	L 682.087, 0.001 
" />
<path d="M 686.623, 0.000 
	L 686.622, 0.001 
" />
<path d="M 691.158, 0.000 
	L 691.158, 0.001 
" />
<path d="M 695.694, 0.000 
	L 695.693, 0.001 
" />
<path d="M 700.229, 0.000 
	L 700.228, 0.001 
" />
</g>
</svg>
