<?xml version="1.0" encoding="UTF-8" standalone="no" ?>
<svg width="100%" height="100%" viewBox="0 0 710.433 708.697" xmlns="http://www.w3.org/2000/svg"><g>
</g><g style="stroke:rgb(0,0,0); fill:none; stroke-width:1.000mm" >
</g><g style="stroke:rgb(0,255,0); fill:none; stroke-width:0.100mm" >
<path d="M 0.036, 708.696 
	L 0.035, 708.697 
	L 0.035, 0.035 
	L 708.697, 0.035 
	L 708.697, 708.697 
	L 0.035, 708.697 
" />
</g><g style="stroke:rgb(0,0,0); fill:none; stroke-width:0.100mm" >
<path d="M 10.631, 708.732 
	L 10.630, 708.732 
	L 10.630, 256.394 
	L 710.433, 256.394 
	L 710.433, 708.732 
	L 10.630, 708.732 
" />
<path d="M 10.666, 708.696 
	L 10.665, 708.697 
	L 10.665, 256.358 
" />
<path d="M 15.272, 708.696 
	L 15.272, 708.697 
	L 15.272, 256.358 
" />
<path d="M 19.879, 708.696 
	L 19.878, 708.697 
	L 19.878, 256.358 
" />
<path d="M 24.485, 708.696 
	L 24.484, 708.697 
	L 24.484, 256.358 
" />
<path d="M 29.091, 708.696 
	L 29.091, 708.697 
	L 29.091, 256.358 
" />
<path d="M 33.698, 708.696 
	L 33.697, 708.697 
	L 33.697, 256.358 
" />
<path d="M 38.304, 708.696 
	L 38.303, 708.697 
	L 38.303, 256.358 
" />
<path d="M 42.910, 708.696 
	L 42.909, 708.697 
	L 42.909, 256.358 
" />
<path d="M 47.516, 708.696 
	L 47.516, 708.697 
	L 47.516, 256.358 
" />
<path d="M 52.123, 708.696 
	L 52.122, 708.697 
	L 52.122, 256.358 
" />
<path d="M 56.729, 708.696 
	L 56.728, 708.697 
	L 56.728, 256.358 
" />
<path d="M 61.335, 708.696 
	L 61.335, 708.697 
	L 61.335, 256.358 
" />
<path d="M 65.942, 708.696 
	L 65.941, 708.697 
	L 65.941, 256.358 
" />
<path d="M 70.548, 708.696 
	L 70.547, 708.697 
	L 70.547, 256.358 
" />
<path d="M 75.154, 708.696 
	L 75.154, 708.697 
	L 75.154, 256.358 
" />
<path d="M 79.761, 708.696 
	L 79.760, 708.697 
	L 79.760, 256.358 
" />
<path d="M 84.367, 708.696 
	L 84.366, 708.697 
	L 84.366, 256.358 
" />
<path d="M 88.973, 708.696 
	L 88.972, 708.697 
	L 88.972, 256.358 
" />
<path d="M 93.579, 708.696 
	L 93.579, 708.697 
	L 93.579, 256.358 
" />
<path d="M 98.186, 708.696 
	L 98.185, 708.697 
	L 98.185, 256.358 
" />
<path d="M 102.792, 708.696 
	L 102.791, 708.697 
	L 102.791, 256.358 
" />
<path d="M 107.398, 708.696 
	L 107.398, 708.697 
	L 107.398, 256.358 
" />
<path d="M 112.005, 708.696 
	L 112.004, 708.697 
	L 112.004, 256.358 
" />
<path d="M 116.611, 708.696 
	L 116.610, 708.697 
	L 116.610, 256.358 
" />
<path d="M 121.217, 708.696 
	L 121.217, 708.697 
	L 121.217, 256.358 
" />
<path d="M 125.824, 708.696 
	L 125.823, 708.697 
	L 125.823, 256.358 
" />
<path d="M 130.430, 708.696 
	L 130.429, 708.697 
	L 130.429, 256.358 
" />
<path d="M 135.036, 708.696 
	L 135.035, 708.697 
	L 135.035, 256.358 
" />
<path d="M 139.642, 708.696 
	L 139.642, 708.697 
	L 139.642, 256.358 
" />
<path d="M 144.249, 708.696 
	L 144.248, 708.697 
	L 144.248, 256.358 
" />
<path d="M 148.855, 708.696 
	L 148.854, 708.697 
	L 148.854, 256.358 
" />
<path d="M 153.461, 708.696 
	L 153.461, 708.697 
	L 153.461, 256.358 
" />
<path d="M 158.068, 708.696 
	L 158.067, 708.697 
	L 158.067, 256.358 
" />
<path d="M 162.674, 708.696 
	L 162.673, 708.697 
	L 162.673, 256.358 
" />
<path d="M 167.280, 708.696 
	L 167.280, 708.697 
	L 167.280, 256.358 
" />
<path d="M 171.887, 708.696 
	L 171.886, 708.697 
	L 171.886, 256.358 
" />
<path d="M 176.493, 708.696 
	L 176.492, 708.697 
	L 176.492, 256.358 
" />
<path d="M 181.099, 708.696 
	L 181.098, 708.697 
	L 181.098, 256.358 
" />
<path d="M 185.705, 708.696 
	L 185.705, 708.697 
	L 185.705, 256.358 
" />
<path d="M 190.312, 708.696 
	L 190.311, 708.697 
	L 190.311, 256.358 
" />
<path d="M 194.918, 708.696 
	L 194.917, 708.697 
	L 194.917, 256.358 
" />
<path d="M 199.524, 708.696 
	L 199.524, 708.697 
	L 199.524, 256.358 
" />
<path d="M 204.131, 708.696 
	L 204.130, 708.697 
	L 204.130, 256.358 
" />
<path d="M 208.737, 708.696 
	L 208.736, 708.697 
	L 208.736, 256.358 
" />
<path d="M 213.343, 708.696 
	L 213.343, 708.697 
	L 213.343, 256.358 
" />
<path d="M 217.950, 708.696 
	L 217.949, 708.697 
	L 217.949, 256.358 
" />
<path d="M 222.556, 708.696 
	L 222.555, 708.697 
	L 222.555, 256.358 
" />
<path d="M 227.162, 708.696 
	L 227.161, 708.697 
	L 227.161, 256.358 
" />
<path d="M 231.768, 708.696 
	L 231.768, 708.697 
	L 231.768, 256.358 
" />
<path d="M 236.375, 708.696 
	L 236.374, 708.697 
	L 236.374, 256.358 
" />
<path d="M 240.981, 708.696 
	L 240.980, 708.697 
	L 240.980, 256.358 
" />
<path d="M 245.587, 708.696 
	L 245.587, 708.697 
	L 245.587, 256.358 
" />
<path d="M 250.194, 708.696 
	L 250.193, 708.697 
	L 250.193, 256.358 
" />
<path d="M 254.800, 708.696 
	L 254.799, 708.697 
	L 254.799, 256.358 
" />
<path d="M 259.406, 708.696 
	L 259.406, 708.697 
	L 259.406, 256.358 
" />
<path d="M 264.013, 708.696 
	L 264.012, 708.697 
	L 264.012, 256.358 
" />
<path d="M 268.619, 708.696 
	L 268.618, 708.697 
	L 268.618, 256.358 
" />
<path d="M 273.225, 708.696 
	L 273.224, 708.697 
	L 273.224, 256.358 
" />
<path d="M 277.831, 708.696 
	L 277.831, 708.697 
	L 277.831, 256.358 
" />
<path d="M 282.438, 708.696 
	L 282.437, 708.697 
	L 282.437, 256.358 
" />
<path d="M 287.044, 708.696 
	L 287.043, 708.697 
	L 287.043, 256.358 
" />
<path d="M 291.650, 708.696 
	L 291.650, 708.697 
	L 291.650, 256.358 
" />
<path d="M 296.257, 708.696 
	L 296.256, 708.697 
	L 296.256, 256.358 
" />
<path d="M 300.863, 708.696 
	L 300.862, 708.697 
	L 300.862, 256.358 
" />
<path d="M 305.469, 708.696 
	L 305.469, 708.697 
	L 305.469, 256.358 
" />
<path d="M 310.076, 708.696 
	L 310.075, 708.697 
	L 310.075, 256.358 
" />
<path d="M 314.682, 708.696 
	L 314.681, 708.697 
	L 314.681, 256.358 
" />
<path d="M 319.288, 708.696 
	L 319.287, 708.697 
	L 319.287, 256.358 
" />
<path d="M 323.894, 708.696 
	L 323.894, 708.697 
	L 323.894, 256.358 
" />
<path d="M 328.501, 708.696 
	L 328.500, 708.697 
	L 328.500, 256.358 
" />
<path d="M 333.107, 708.696 
	L 333.106, 708.697 
	L 333.106, 256.358 
" />
<path d="M 337.713, 708.696 
	L 337.713, 708.697 
	L 337.713, 256.358 
" />
<path d="M 342.320, 708.696 
	L 342.319, 708.697 
	L 342.319, 256.358 
" />
<path d="M 346.926, 708.696 
	L 346.925, 708.697 
	L 346.925, 256.358 
" />
<path d="M 351.532, 708.696 
	L 351.532, 708.697 
	L 351.532, 256.358 
" />
<path d="M 356.139, 708.696 
	L 356.138, 708.697 
	L 356.138, 256.358 
" />
<path d="M 360.745, 708.696 
	L 360.744, 708.697 
	L 360.744, 256.358 
" />
<path d="M 365.351, 708.696 
	L 365.350, 708.697 
	L 365.350, 256.358 
" />
<path d="M 369.957, 708.696 
	L 369.957, 708.697 
	L 369.957, 256.358 
" />
<path d="M 374.564, 708.696 
	L 374.563, 708.697 
	L 374.563, 256.358 
" />
<path d="M 379.170, 708.696 
	L 379.169, 708.697 
	L 379.169, 256.358 
" />
<path d="M 383.776, 708.696 
	L 383.776, 708.697 
	L 383.776, 256.358 
" />
<path d="M 388.383, 708.696 
	L 388.382, 708.697 
	L 388.382, 256.358 
" />
<path d="M 392.989, 708.696 
	L 392.988, 708.697 
	L 392.988, 256.358 
" />
<path d="M 397.595, 708.696 
	L 397.595, 708.697 
	L 397.595, 256.358 
" />
<path d="M 402.202, 708.696 
	L 402.201, 708.697 
	L 402.201, 256.358 
" />
<path d="M 406.808, 708.696 
	L 406.807, 708.697 
	L 406.807, 256.358 
" />
<path d="M 411.414, 708.696 
	L 411.413, 708.697 
	L 411.413, 256.358 
" />
<path d="M 416.020, 708.696 
	L 416.020, 708.697 
	L 416.020, 256.358 
" />
<path d="M 420.627, 708.696 
	L 420.626, 708.697 
	L 420.626, 256.358 
" />
<path d="M 425.233, 708.696 
	L 425.232, 708.697 
	L 425.232, 256.358 
" />
<path d="M 429.839, 708.696 
	L 429.839, 708.697 
	L 429.839, 256.358 
" />
<path d="M 434.446, 708.696 
	L 434.445, 708.697 
	L 434.445, 256.358 
" />
<path d="M 439.052, 708.696 
	L 439.051, 708.697 
	L 439.051, 256.358 
" />
<path d="M 443.658, 708.696 
	L 443.658, 708.697 
	L 443.658, 256.358 
" />
<path d="M 448.265, 708.696 
	L 448.264, 708.697 
	L 448.264, 256.358 
" />
<path d="M 452.871, 708.696 
	L 452.870, 708.697 
	L 452.870, 256.358 
" />
<path d="M 457.477, 708.696 
	L 457.476, 708.697 
	L 457.476, 256.358 
" />
<path d="M 462.083, 708.696 
	L 462.083, 708.697 
	L 462.083, 256.358 
" />
<path d="M 466.690, 708.696 
	L 466.689, 708.697 
	L 466.689, 256.358 
" />
<path d="M 471.296, 708.696 
	L 471.295, 708.697 
	L 471.295, 256.358 
" />
<path d="M 475.902, 708.696 
	L 475.902, 708.697 
	L 475.902, 256.358 
" />
<path d="M 480.509, 708.696 
	L 480.508, 708.697 
	L 480.508, 256.358 
" />
<path d="M 485.115, 708.696 
	L 485.114, 708.697 
	L 485.114, 256.358 
" />
<path d="M 489.721, 708.696 
	L 489.721, 708.697 
	L 489.721, 256.358 
" />
<path d="M 494.328, 708.696 
	L 494.327, 708.697 
	L 494.327, 256.358 
" />
<path d="M 498.934, 708.696 
	L 498.933, 708.697 
	L 498.933, 256.358 
" />
<path d="M 503.540, 708.696 
	L 503.539, 708.697 
	L 503.539, 256.358 
" />
<path d="M 508.146, 708.696 
	L 508.146, 708.697 
	L 508.146, 256.358 
" />
<path d="M 512.753, 708.696 
	L 512.752, 708.697 
	L 512.752, 256.358 
" />
<path d="M 517.359, 708.696 
	L 517.358, 708.697 
	L 517.358, 256.358 
" />
<path d="M 521.965, 708.696 
	L 521.965, 708.697 
	L 521.965, 256.358 
" />
<path d="M 526.572, 708.696 
	L 526.571, 708.697 
	L 526.571, 256.358 
" />
<path d="M 531.178, 708.696 
	L 531.177, 708.697 
	L 531.177, 256.358 
" />
<path d="M 535.784, 708.696 
	L 535.784, 708.697 
	L 535.784, 256.358 
" />
<path d="M 540.391, 708.696 
	L 540.390, 708.697 
	L 540.390, 256.358 
" />
<path d="M 544.997, 708.696 
	L 544.996, 708.697 
	L 544.996, 256.358 
" />
<path d="M 549.603, 708.696 
	L 549.602, 708.697 
	L 549.602, 256.358 
" />
<path d="M 554.209, 708.696 
	L 554.209, 708.697 
	L 554.209, 256.358 
" />
<path d="M 558.816, 708.696 
	L 558.815, 708.697 
	L 558.815, 256.358 
" />
<path d="M 563.422, 708.696 
	L 563.421, 708.697 
	L 563.421, 256.358 
" />
<path d="M 568.028, 708.696 
	L 568.028, 708.697 
	L 568.028, 256.358 
" />
<path d="M 572.635, 708.696 
	L 572.634, 708.697 
	L 572.634, 256.358 
" />
<path d="M 577.241, 708.696 
	L 577.240, 708.697 
	L 577.240, 256.358 
" />
<path d="M 581.847, 708.696 
	L 581.847, 708.697 
	L 581.847, 256.358 
" />
<path d="M 586.454, 708.696 
	L 586.453, 708.697 
	L 586.453, 256.358 
" />
<path d="M 591.060, 708.696 
	L 591.059, 708.697 
	L 591.059, 256.358 
" />
<path d="M 595.666, 708.696 
	L 595.665, 708.697 
	L 595.665, 256.358 
" />
<path d="M 600.272, 708.696 
	L 600.272, 708.697 
	L 600.272, 256.358 
" />
<path d="M 604.879, 708.696 
	L 604.878, 708.697 
	L 604.878, 256.358 
" />
<path d="M 609.485, 708.696 
	L 609.484, 708.697 
	L 609.484, 256.358 
" />
<path d="M 614.091, 708.696 
	L 614.091, 708.697 
	L 614.091, 256.358 
" />
<path d="M 618.698, 708.696 
	L 618.697, 708.697 
	L 618.697, 256.358 
" />
<path d="M 623.304, 708.696 
	L 623.303, 708.697 
	L 623.303, 256.358 
" />
<path d="M 627.910, 708.696 
	L 627.910, 708.697 
	L 627.910, 256.358 
" />
<path d="M 632.517, 708.696 
	L 632.516, 708.697 
	L 632.516, 256.358 
" />
<path d="M 637.123, 708.696 
	L 637.122, 708.697 
	L 637.122, 256.358 
" />
<path d="M 641.729, 708.696 
	L 641.728, 708.697 
	L 641.728, 256.358 
" />
<path d="M 646.335, 708.696 
	L 646.335, 708.697 
	L 646.335, 256.358 
" />
<path d="M 650.942, 708.696 
	L 650.941, 708.697 
	L 650.941, 256.358 
" />
<path d="M 655.548, 708.696 
	L 655.547, 708.697 
	L 655.547, 256.358 
" />
<path d="M 660.154, 708.696 
	L 660.154, 708.697 
	L 660.154, 256.358 
" />
<path d="M 664.761, 708.696 
	L 664.760, 708.697 
	L 664.760, 256.358 
" />
<path d="M 669.367, 708.696 
	L 669.366, 708.697 
	L 669.366, 256.358 
" />
<path d="M 673.973, 708.696 
	L 673.973, 708.697 
	L 673.973, 256.358 
" />
<path d="M 678.580, 708.696 
	L 678.579, 708.697 
	L 678.579, 256.358 
" />
<path d="M 683.186, 708.696 
	L 683.185, 708.697 
	L 683.185, 256.358 
" />
<path d="M 687.792, 708.696 
	L 687.791, 708.697 
	L 687.791, 256.358 
" />
<path d="M 692.398, 708.696 
	L 692.398, 708.697 
	L 692.398, 256.358 
" />
<path d="M 697.005, 708.696 
	L 697.004, 708.697 
	L 697.004, 256.358 
" />
<path d="M 701.611, 708.696 
	L 701.610, 708.697 
	L 701.610, 256.358 
" />
</g><g style="stroke:rgb(255,0,0); fill:none; stroke-width:0.100mm" >
<path d="M 10.631, 256.393 
	L 10.630, 256.394 
	L 10.630, 0.071 
	L 710.433, 0.071 
	L 710.433, 256.394 
	L 10.630, 256.394 
" />
<path d="M 10.666, 256.358 
	L 10.665, 256.358 
	L 10.665, 0.035 
" />
<path d="M 15.272, 256.358 
	L 15.272, 256.358 
	L 15.272, 0.035 
" />
<path d="M 19.879, 256.358 
	L 19.878, 256.358 
	L 19.878, 0.035 
" />
<path d="M 24.485, 256.358 
	L 24.484, 256.358 
	L 24.484, 0.035 
" />
<path d="M 29.091, 256.358 
	L 29.091, 256.358 
	L 29.091, 0.035 
" />
<path d="M 33.698, 256.358 
	L 33.697, 256.358 
	L 33.697, 0.035 
" />
<path d="M 38.304, 256.358 
	L 38.303, 256.358 
	L 38.303, 0.035 
" />
<path d="M 42.910, 256.358 
	L 42.909, 256.358 
	L 42.909, 0.035 
" />
<path d="M 47.516, 256.358 
	L 47.516, 256.358 
	L 47.516, 0.035 
" />
<path d="M 52.123, 256.358 
	L 52.122, 256.358 
	L 52.122, 0.035 
" />
<path d="M 56.729, 256.358 
	L 56.728, 256.358 
	L 56.728, 0.035 
" />
<path d="M 61.335, 256.358 
	L 61.335, 256.358 
	L 61.335, 0.035 
" />
<path d="M 65.942, 256.358 
	L 65.941, 256.358 
	L 65.941, 0.035 
" />
<path d="M 70.548, 256.358 
	L 70.547, 256.358 
	L 70.547, 0.035 
" />
<path d="M 75.154, 256.358 
	L 75.154, 256.358 
	L 75.154, 0.035 
" />
<path d="M 79.761, 256.358 
	L 79.760, 256.358 
	L 79.760, 0.035 
" />
<path d="M 84.367, 256.358 
	L 84.366, 256.358 
	L 84.366, 0.035 
" />
<path d="M 88.973, 256.358 
	L 88.972, 256.358 
	L 88.972, 0.035 
" />
<path d="M 93.579, 256.358 
	L 93.579, 256.358 
	L 93.579, 0.035 
" />
<path d="M 98.186, 256.358 
	L 98.185, 256.358 
	L 98.185, 0.035 
" />
<path d="M 102.792, 256.358 
	L 102.791, 256.358 
	L 102.791, 0.035 
" />
<path d="M 107.398, 256.358 
	L 107.398, 256.358 
	L 107.398, 0.035 
" />
<path d="M 112.005, 256.358 
	L 112.004, 256.358 
	L 112.004, 0.035 
" />
<path d="M 116.611, 256.358 
	L 116.610, 256.358 
	L 116.610, 0.035 
" />
<path d="M 121.217, 256.358 
	L 121.217, 256.358 
	L 121.217, 0.035 
" />
<path d="M 125.824, 256.358 
	L 125.823, 256.358 
	L 125.823, 0.035 
" />
<path d="M 130.430, 256.358 
	L 130.429, 256.358 
	L 130.429, 0.035 
" />
<path d="M 135.036, 256.358 
	L 135.035, 256.358 
	L 135.035, 0.035 
" />
<path d="M 139.642, 256.358 
	L 139.642, 256.358 
	L 139.642, 0.035 
" />
<path d="M 144.249, 256.358 
	L 144.248, 256.358 
	L 144.248, 0.035 
" />
<path d="M 148.855, 256.358 
	L 148.854, 256.358 
	L 148.854, 0.035 
" />
<path d="M 153.461, 256.358 
	L 153.461, 256.358 
	L 153.461, 0.035 
" />
<path d="M 158.068, 256.358 
	L 158.067, 256.358 
	L 158.067, 0.035 
" />
<path d="M 162.674, 256.358 
	L 162.673, 256.358 
	L 162.673, 0.035 
" />
<path d="M 167.280, 256.358 
	L 167.280, 256.358 
	L 167.280, 0.035 
" />
<path d="M 171.887, 256.358 
	L 171.886, 256.358 
	L 171.886, 0.035 
" />
<path d="M 176.493, 256.358 
	L 176.492, 256.358 
	L 176.492, 0.035 
" />
<path d="M 181.099, 256.358 
	L 181.098, 256.358 
	L 181.098, 0.035 
" />
<path d="M 185.705, 256.358 
	L 185.705, 256.358 
	L 185.705, 0.035 
" />
<path d="M 190.312, 256.358 
	L 190.311, 256.358 
	L 190.311, 0.035 
" />
<path d="M 194.918, 256.358 
	L 194.917, 256.358 
	L 194.917, 0.035 
" />
<path d="M 199.524, 256.358 
	L 199.524, 256.358 
	L 199.524, 0.035 
" />
<path d="M 204.131, 256.358 
	L 204.130, 256.358 
	L 204.130, 0.035 
" />
<path d="M 208.737, 256.358 
	L 208.736, 256.358 
	L 208.736, 0.035 
" />
<path d="M 213.343, 256.358 
	L 213.343, 256.358 
	L 213.343, 0.035 
" />
<path d="M 217.950, 256.358 
	L 217.949, 256.358 
	L 217.949, 0.035 
" />
<path d="M 222.556, 256.358 
	L 222.555, 256.358 
	L 222.555, 0.035 
" />
<path d="M 227.162, 256.358 
	L 227.161, 256.358 
	L 227.161, 0.035 
" />
<path d="M 231.768, 256.358 
	L 231.768, 256.358 
	L 231.768, 0.035 
" />
<path d="M 236.375, 256.358 
	L 236.374, 256.358 
	L 236.374, 0.035 
" />
<path d="M 240.981, 256.358 
	L 240.980, 256.358 
	L 240.980, 0.035 
" />
<path d="M 245.587, 256.358 
	L 245.587, 256.358 
	L 245.587, 0.035 
" />
<path d="M 250.194, 256.358 
	L 250.193, 256.358 
	L 250.193, 0.035 
" />
<path d="M 254.800, 256.358 
	L 254.799, 256.358 
	L 254.799, 0.035 
" />
<path d="M 259.406, 256.358 
	L 259.406, 256.358 
	L 259.406, 0.035 
" />
<path d="M 264.013, 256.358 
	L 264.012, 256.358 
	L 264.012, 0.035 
" />
<path d="M 268.619, 256.358 
	L 268.618, 256.358 
	L 268.618, 0.035 
" />
<path d="M 273.225, 256.358 
	L 273.224, 256.358 
	L 273.224, 0.035 
" />
<path d="M 277.831, 256.358 
	L 277.831, 256.358 
	L 277.831, 0.035 
" />
<path d="M 282.438, 256.358 
	L 282.437, 256.358 
	L 282.437, 0.035 
" />
<path d="M 287.044, 256.358 
	L 287.043, 256.358 
	L 287.043, 0.035 
" />
<path d="M 291.650, 256.358 
	L 291.650, 256.358 
	L 291.650, 0.035 
" />
<path d="M 296.257, 256.358 
	L 296.256, 256.358 
	L 296.256, 0.035 
" />
<path d="M 300.863, 256.358 
	L 300.862, 256.358 
	L 300.862, 0.035 
" />
<path d="M 305.469, 256.358 
	L 305.469, 256.358 
	L 305.469, 0.035 
" />
<path d="M 310.076, 256.358 
	L 310.075, 256.358 
	L 310.075, 0.035 
" />
<path d="M 314.682, 256.358 
	L 314.681, 256.358 
	L 314.681, 0.035 
" />
<path d="M 319.288, 256.358 
	L 319.287, 256.358 
	L 319.287, 0.035 
" />
<path d="M 323.894, 256.358 
	L 323.894, 256.358 
	L 323.894, 0.035 
" />
<path d="M 328.501, 256.358 
	L 328.500, 256.358 
	L 328.500, 0.035 
" />
<path d="M 333.107, 256.358 
	L 333.106, 256.358 
	L 333.106, 0.035 
" />
<path d="M 337.713, 256.358 
	L 337.713, 256.358 
	L 337.713, 0.035 
" />
<path d="M 342.320, 256.358 
	L 342.319, 256.358 
	L 342.319, 0.035 
" />
<path d="M 346.926, 256.358 
	L 346.925, 256.358 
	L 346.925, 0.035 
" />
<path d="M 351.532, 256.358 
	L 351.532, 256.358 
	L 351.532, 0.035 
" />
<path d="M 356.139, 256.358 
	L 356.138, 256.358 
	L 356.138, 0.035 
" />
<path d="M 360.745, 256.358 
	L 360.744, 256.358 
	L 360.744, 0.035 
" />
<path d="M 365.351, 256.358 
	L 365.350, 256.358 
	L 365.350, 0.035 
" />
<path d="M 369.957, 256.358 
	L 369.957, 256.358 
	L 369.957, 0.035 
" />
<path d="M 374.564, 256.358 
	L 374.563, 256.358 
	L 374.563, 0.035 
" />
<path d="M 379.170, 256.358 
	L 379.169, 256.358 
	L 379.169, 0.035 
" />
<path d="M 383.776, 256.358 
	L 383.776, 256.358 
	L 383.776, 0.035 
" />
<path d="M 388.383, 256.358 
	L 388.382, 256.358 
	L 388.382, 0.035 
" />
<path d="M 392.989, 256.358 
	L 392.988, 256.358 
	L 392.988, 0.035 
" />
<path d="M 397.595, 256.358 
	L 397.595, 256.358 
	L 397.595, 0.035 
" />
<path d="M 402.202, 256.358 
	L 402.201, 256.358 
	L 402.201, 0.035 
" />
<path d="M 406.808, 256.358 
	L 406.807, 256.358 
	L 406.807, 0.035 
" />
<path d="M 411.414, 256.358 
	L 411.413, 256.358 
	L 411.413, 0.035 
" />
<path d="M 416.020, 256.358 
	L 416.020, 256.358 
	L 416.020, 0.035 
" />
<path d="M 420.627, 256.358 
	L 420.626, 256.358 
	L 420.626, 0.035 
" />
<path d="M 425.233, 256.358 
	L 425.232, 256.358 
	L 425.232, 0.035 
" />
<path d="M 429.839, 256.358 
	L 429.839, 256.358 
	L 429.839, 0.035 
" />
<path d="M 434.446, 256.358 
	L 434.445, 256.358 
	L 434.445, 0.035 
" />
<path d="M 439.052, 256.358 
	L 439.051, 256.358 
	L 439.051, 0.035 
" />
<path d="M 443.658, 256.358 
	L 443.658, 256.358 
	L 443.658, 0.035 
" />
<path d="M 448.265, 256.358 
	L 448.264, 256.358 
	L 448.264, 0.035 
" />
<path d="M 452.871, 256.358 
	L 452.870, 256.358 
	L 452.870, 0.035 
" />
<path d="M 457.477, 256.358 
	L 457.476, 256.358 
	L 457.476, 0.035 
" />
<path d="M 462.083, 256.358 
	L 462.083, 256.358 
	L 462.083, 0.035 
" />
<path d="M 466.690, 256.358 
	L 466.689, 256.358 
	L 466.689, 0.035 
" />
<path d="M 471.296, 256.358 
	L 471.295, 256.358 
	L 471.295, 0.035 
" />
<path d="M 475.902, 256.358 
	L 475.902, 256.358 
	L 475.902, 0.035 
" />
<path d="M 480.509, 256.358 
	L 480.508, 256.358 
	L 480.508, 0.035 
" />
<path d="M 485.115, 256.358 
	L 485.114, 256.358 
	L 485.114, 0.035 
" />
<path d="M 489.721, 256.358 
	L 489.721, 256.358 
	L 489.721, 0.035 
" />
<path d="M 494.328, 256.358 
	L 494.327, 256.358 
	L 494.327, 0.035 
" />
<path d="M 498.934, 256.358 
	L 498.933, 256.358 
	L 498.933, 0.035 
" />
<path d="M 503.540, 256.358 
	L 503.539, 256.358 
	L 503.539, 0.035 
" />
<path d="M 508.146, 256.358 
	L 508.146, 256.358 
	L 508.146, 0.035 
" />
<path d="M 512.753, 256.358 
	L 512.752, 256.358 
	L 512.752, 0.035 
" />
<path d="M 517.359, 256.358 
	L 517.358, 256.358 
	L 517.358, 0.035 
" />
<path d="M 521.965, 256.358 
	L 521.965, 256.358 
	L 521.965, 0.035 
" />
<path d="M 526.572, 256.358 
	L 526.571, 256.358 
	L 526.571, 0.035 
" />
<path d="M 531.178, 256.358 
	L 531.177, 256.358 
	L 531.177, 0.035 
" />
<path d="M 535.784, 256.358 
	L 535.784, 256.358 
	L 535.784, 0.035 
" />
<path d="M 540.391, 256.358 
	L 540.390, 256.358 
	L 540.390, 0.035 
" />
<path d="M 544.997, 256.358 
	L 544.996, 256.358 
	L 544.996, 0.035 
" />
<path d="M 549.603, 256.358 
	L 549.602, 256.358 
	L 549.602, 0.035 
" />
<path d="M 554.209, 256.358 
	L 554.209, 256.358 
	L 554.209, 0.035 
" />
<path d="M 558.816, 256.358 
	L 558.815, 256.358 
	L 558.815, 0.035 
" />
<path d="M 563.422, 256.358 
	L 563.421, 256.358 
	L 563.421, 0.035 
" />
<path d="M 568.028, 256.358 
	L 568.028, 256.358 
	L 568.028, 0.035 
" />
<path d="M 572.635, 256.358 
	L 572.634, 256.358 
	L 572.634, 0.035 
" />
<path d="M 577.241, 256.358 
	L 577.240, 256.358 
	L 577.240, 0.035 
" />
<path d="M 581.847, 256.358 
	L 581.847, 256.358 
	L 581.847, 0.035 
" />
<path d="M 586.454, 256.358 
	L 586.453, 256.358 
	L 586.453, 0.035 
" />
<path d="M 591.060, 256.358 
	L 591.059, 256.358 
	L 591.059, 0.035 
" />
<path d="M 595.666, 256.358 
	L 595.665, 256.358 
	L 595.665, 0.035 
" />
<path d="M 600.272, 256.358 
	L 600.272, 256.358 
	L 600.272, 0.035 
" />
<path d="M 604.879, 256.358 
	L 604.878, 256.358 
	L 604.878, 0.035 
" />
<path d="M 609.485, 256.358 
	L 609.484, 256.358 
	L 609.484, 0.035 
" />
<path d="M 614.091, 256.358 
	L 614.091, 256.358 
	L 614.091, 0.035 
" />
<path d="M 618.698, 256.358 
	L 618.697, 256.358 
	L 618.697, 0.035 
" />
<path d="M 623.304, 256.358 
	L 623.303, 256.358 
	L 623.303, 0.035 
" />
<path d="M 627.910, 256.358 
	L 627.910, 256.358 
	L 627.910, 0.035 
" />
<path d="M 632.517, 256.358 
	L 632.516, 256.358 
	L 632.516, 0.035 
" />
<path d="M 637.123, 256.358 
	L 637.122, 256.358 
	L 637.122, 0.035 
" />
<path d="M 641.729, 256.358 
	L 641.728, 256.358 
	L 641.728, 0.035 
" />
<path d="M 646.335, 256.358 
	L 646.335, 256.358 
	L 646.335, 0.035 
" />
<path d="M 650.942, 256.358 
	L 650.941, 256.358 
	L 650.941, 0.035 
" />
<path d="M 655.548, 256.358 
	L 655.547, 256.358 
	L 655.547, 0.035 
" />
<path d="M 660.154, 256.358 
	L 660.154, 256.358 
	L 660.154, 0.035 
" />
<path d="M 664.761, 256.358 
	L 664.760, 256.358 
	L 664.760, 0.035 
" />
<path d="M 669.367, 256.358 
	L 669.366, 256.358 
	L 669.366, 0.035 
" />
<path d="M 673.973, 256.358 
	L 673.973, 256.358 
	L 673.973, 0.035 
" />
<path d="M 678.580, 256.358 
	L 678.579, 256.358 
	L 678.579, 0.035 
" />
<path d="M 683.186, 256.358 
	L 683.185, 256.358 
	L 683.185, 0.035 
" />
<path d="M 687.792, 256.358 
	L 687.791, 256.358 
	L 687.791, 0.035 
" />
<path d="M 692.398, 256.358 
	L 692.398, 256.358 
	L 692.398, 0.035 
" />
<path d="M 697.005, 256.358 
	L 697.004, 256.358 
	L 697.004, 0.035 
" />
<path d="M 701.611, 256.358 
	L 701.610, 256.358 
	L 701.610, 0.035 
" />
</g><g style="stroke:rgb(0,255,0); fill:none; stroke-width:0.100mm" >
<path d="M 0.001, 256.393 
	L 0.000, 256.394 
	L 0.000, 0.071 
	L 8.858, 0.071 
	L 8.858, 256.394 
	L 0.000, 256.394 
" />
<path d="M 0.036, 256.358 
	L 0.035, 256.358 
	L 0.035, 0.035 
" />
</g><g style="stroke:rgb(0,0,255); fill:none; stroke-width:0.100mm" >
<path d="M 0.001, 708.732 
	L 0.000, 708.732 
	L 0.000, 256.394 
	L 8.858, 256.394 
	L 8.858, 708.732 
	L 0.000, 708.732 
" />
<path d="M 0.036, 708.696 
	L 0.035, 708.697 
	L 0.035, 256.358 
" />
</g>
</svg>
