<?xml version="1.0" encoding="UTF-8" standalone="no" ?>
<svg width="100%" height="100%" viewBox="0 0 708.697 708.697" xmlns="http://www.w3.org/2000/svg"><g>
</g><g style="stroke:rgb(0,0,0); fill:none; stroke-width:1.000mm" >
</g><g style="stroke:rgb(0,255,0); fill:none; stroke-width:0.100mm" >
<path d="M 0.036, 708.696 
	L 0.035, 708.697 
	L 0.035, 0.035 
	L 708.697, 0.035 
	L 708.697, 708.697 
	L 0.035, 708.697 
" />
</g><g style="stroke:rgb(0,0,0); fill:none; stroke-width:0.100mm" >
<path d="M 0.001, 708.732 
	L 0.000, 708.732 
	L 0.000, 309.827 
	L 362.764, 309.827 
	L 362.764, 708.732 
	L 0.000, 708.732 
" />
<path d="M 0.036, 708.696 
	L 0.035, 708.697 
	L 0.035, 309.791 
" />
<path d="M 4.642, 708.696 
	L 4.642, 708.697 
	L 4.642, 309.791 
" />
<path d="M 9.249, 708.696 
	L 9.248, 708.697 
	L 9.248, 309.791 
" />
<path d="M 13.855, 708.696 
	L 13.854, 708.697 
	L 13.854, 309.791 
" />
<path d="M 18.461, 708.696 
	L 18.461, 708.697 
	L 18.461, 309.791 
" />
<path d="M 23.068, 708.696 
	L 23.067, 708.697 
	L 23.067, 309.791 
" />
<path d="M 27.674, 708.696 
	L 27.673, 708.697 
	L 27.673, 309.791 
" />
<path d="M 32.280, 708.696 
	L 32.280, 708.697 
	L 32.280, 309.791 
" />
<path d="M 36.887, 708.696 
	L 36.886, 708.697 
	L 36.886, 309.791 
" />
<path d="M 41.493, 708.696 
	L 41.492, 708.697 
	L 41.492, 309.791 
" />
<path d="M 46.099, 708.696 
	L 46.098, 708.697 
	L 46.098, 309.791 
" />
<path d="M 50.705, 708.696 
	L 50.705, 708.697 
	L 50.705, 309.791 
" />
<path d="M 55.312, 708.696 
	L 55.311, 708.697 
	L 55.311, 309.791 
" />
<path d="M 59.918, 708.696 
	L 59.917, 708.697 
	L 59.917, 309.791 
" />
<path d="M 64.524, 708.696 
	L 64.524, 708.697 
	L 64.524, 309.791 
" />
<path d="M 69.131, 708.696 
	L 69.130, 708.697 
	L 69.130, 309.791 
" />
<path d="M 73.737, 708.696 
	L 73.736, 708.697 
	L 73.736, 309.791 
" />
<path d="M 78.343, 708.696 
	L 78.343, 708.697 
	L 78.343, 309.791 
" />
<path d="M 82.950, 708.696 
	L 82.949, 708.697 
	L 82.949, 309.791 
" />
<path d="M 87.556, 708.696 
	L 87.555, 708.697 
	L 87.555, 309.791 
" />
<path d="M 92.162, 708.696 
	L 92.161, 708.697 
	L 92.161, 309.791 
" />
<path d="M 96.768, 708.696 
	L 96.768, 708.697 
	L 96.768, 309.791 
" />
<path d="M 101.375, 708.696 
	L 101.374, 708.697 
	L 101.374, 309.791 
" />
<path d="M 105.981, 708.696 
	L 105.980, 708.697 
	L 105.980, 309.791 
" />
<path d="M 110.587, 708.696 
	L 110.587, 708.697 
	L 110.587, 309.791 
" />
<path d="M 115.194, 708.696 
	L 115.193, 708.697 
	L 115.193, 309.791 
" />
<path d="M 119.800, 708.696 
	L 119.799, 708.697 
	L 119.799, 309.791 
" />
<path d="M 124.406, 708.696 
	L 124.406, 708.697 
	L 124.406, 309.791 
" />
<path d="M 129.013, 708.696 
	L 129.012, 708.697 
	L 129.012, 309.791 
" />
<path d="M 133.619, 708.696 
	L 133.618, 708.697 
	L 133.618, 309.791 
" />
<path d="M 138.225, 708.696 
	L 138.224, 708.697 
	L 138.224, 309.791 
" />
<path d="M 142.831, 708.696 
	L 142.831, 708.697 
	L 142.831, 309.791 
" />
<path d="M 147.438, 708.696 
	L 147.437, 708.697 
	L 147.437, 309.791 
" />
<path d="M 152.044, 708.696 
	L 152.043, 708.697 
	L 152.043, 309.791 
" />
<path d="M 156.650, 708.696 
	L 156.650, 708.697 
	L 156.650, 309.791 
" />
<path d="M 161.257, 708.696 
	L 161.256, 708.697 
	L 161.256, 309.791 
" />
<path d="M 165.863, 708.696 
	L 165.862, 708.697 
	L 165.862, 309.791 
" />
<path d="M 170.469, 708.696 
	L 170.469, 708.697 
	L 170.469, 309.791 
" />
<path d="M 175.076, 708.696 
	L 175.075, 708.697 
	L 175.075, 309.791 
" />
<path d="M 179.682, 708.696 
	L 179.681, 708.697 
	L 179.681, 309.791 
" />
<path d="M 184.288, 708.696 
	L 184.287, 708.697 
	L 184.287, 309.791 
" />
<path d="M 188.894, 708.696 
	L 188.894, 708.697 
	L 188.894, 309.791 
" />
<path d="M 193.501, 708.696 
	L 193.500, 708.697 
	L 193.500, 309.791 
" />
<path d="M 198.107, 708.696 
	L 198.106, 708.697 
	L 198.106, 309.791 
" />
<path d="M 202.713, 708.696 
	L 202.713, 708.697 
	L 202.713, 309.791 
" />
<path d="M 207.320, 708.696 
	L 207.319, 708.697 
	L 207.319, 309.791 
" />
<path d="M 211.926, 708.696 
	L 211.925, 708.697 
	L 211.925, 309.791 
" />
<path d="M 216.532, 708.696 
	L 216.532, 708.697 
	L 216.532, 309.791 
" />
<path d="M 221.139, 708.696 
	L 221.138, 708.697 
	L 221.138, 309.791 
" />
<path d="M 225.745, 708.696 
	L 225.744, 708.697 
	L 225.744, 309.791 
" />
<path d="M 230.351, 708.696 
	L 230.350, 708.697 
	L 230.350, 309.791 
" />
<path d="M 234.957, 708.696 
	L 234.957, 708.697 
	L 234.957, 309.791 
" />
<path d="M 239.564, 708.696 
	L 239.563, 708.697 
	L 239.563, 309.791 
" />
<path d="M 244.170, 708.696 
	L 244.169, 708.697 
	L 244.169, 309.791 
" />
<path d="M 248.776, 708.696 
	L 248.776, 708.697 
	L 248.776, 309.791 
" />
<path d="M 253.383, 708.696 
	L 253.382, 708.697 
	L 253.382, 309.791 
" />
<path d="M 257.989, 708.696 
	L 257.988, 708.697 
	L 257.988, 309.791 
" />
<path d="M 262.595, 708.696 
	L 262.595, 708.697 
	L 262.595, 309.791 
" />
<path d="M 267.202, 708.696 
	L 267.201, 708.697 
	L 267.201, 309.791 
" />
<path d="M 271.808, 708.696 
	L 271.807, 708.697 
	L 271.807, 309.791 
" />
<path d="M 276.414, 708.696 
	L 276.413, 708.697 
	L 276.413, 309.791 
" />
<path d="M 281.020, 708.696 
	L 281.020, 708.697 
	L 281.020, 309.791 
" />
<path d="M 285.627, 708.696 
	L 285.626, 708.697 
	L 285.626, 309.791 
" />
<path d="M 290.233, 708.696 
	L 290.232, 708.697 
	L 290.232, 309.791 
" />
<path d="M 294.839, 708.696 
	L 294.839, 708.697 
	L 294.839, 309.791 
" />
<path d="M 299.446, 708.696 
	L 299.445, 708.697 
	L 299.445, 309.791 
" />
<path d="M 304.052, 708.696 
	L 304.051, 708.697 
	L 304.051, 309.791 
" />
<path d="M 308.658, 708.696 
	L 308.658, 708.697 
	L 308.658, 309.791 
" />
<path d="M 313.265, 708.696 
	L 313.264, 708.697 
	L 313.264, 309.791 
" />
<path d="M 317.871, 708.696 
	L 317.870, 708.697 
	L 317.870, 309.791 
" />
<path d="M 322.477, 708.696 
	L 322.476, 708.697 
	L 322.476, 309.791 
" />
<path d="M 327.083, 708.696 
	L 327.083, 708.697 
	L 327.083, 309.791 
" />
<path d="M 331.690, 708.696 
	L 331.689, 708.697 
	L 331.689, 309.791 
" />
<path d="M 336.296, 708.696 
	L 336.295, 708.697 
	L 336.295, 309.791 
" />
<path d="M 340.902, 708.696 
	L 340.902, 708.697 
	L 340.902, 309.791 
" />
<path d="M 345.509, 708.696 
	L 345.508, 708.697 
	L 345.508, 309.791 
" />
<path d="M 350.115, 708.696 
	L 350.114, 708.697 
	L 350.114, 309.791 
" />
<path d="M 354.721, 708.696 
	L 354.721, 708.697 
	L 354.721, 309.791 
" />
<path d="M 0.001, 309.826 
	L 0.000, 309.827 
	L 0.000, 0.071 
	L 362.764, 0.071 
	L 362.764, 309.827 
	L 0.000, 309.827 
" />
<path d="M 0.036, 309.791 
	L 0.035, 309.791 
	L 0.035, 0.035 
" />
<path d="M 4.642, 309.791 
	L 4.642, 309.791 
	L 4.642, 0.035 
" />
<path d="M 9.249, 309.791 
	L 9.248, 309.791 
	L 9.248, 0.035 
" />
<path d="M 13.855, 309.791 
	L 13.854, 309.791 
	L 13.854, 0.035 
" />
<path d="M 18.461, 309.791 
	L 18.461, 309.791 
	L 18.461, 0.035 
" />
<path d="M 23.068, 309.791 
	L 23.067, 309.791 
	L 23.067, 0.035 
" />
<path d="M 27.674, 309.791 
	L 27.673, 309.791 
	L 27.673, 0.035 
" />
<path d="M 32.280, 309.791 
	L 32.280, 309.791 
	L 32.280, 0.035 
" />
<path d="M 36.887, 309.791 
	L 36.886, 309.791 
	L 36.886, 0.035 
" />
<path d="M 41.493, 309.791 
	L 41.492, 309.791 
	L 41.492, 0.035 
" />
<path d="M 46.099, 309.791 
	L 46.098, 309.791 
	L 46.098, 0.035 
" />
<path d="M 50.705, 309.791 
	L 50.705, 309.791 
	L 50.705, 0.035 
" />
<path d="M 55.312, 309.791 
	L 55.311, 309.791 
	L 55.311, 0.035 
" />
<path d="M 59.918, 309.791 
	L 59.917, 309.791 
	L 59.917, 0.035 
" />
<path d="M 64.524, 309.791 
	L 64.524, 309.791 
	L 64.524, 0.035 
" />
<path d="M 69.131, 309.791 
	L 69.130, 309.791 
	L 69.130, 0.035 
" />
<path d="M 73.737, 309.791 
	L 73.736, 309.791 
	L 73.736, 0.035 
" />
<path d="M 78.343, 309.791 
	L 78.343, 309.791 
	L 78.343, 0.035 
" />
<path d="M 82.950, 309.791 
	L 82.949, 309.791 
	L 82.949, 0.035 
" />
<path d="M 87.556, 309.791 
	L 87.555, 309.791 
	L 87.555, 0.035 
" />
<path d="M 92.162, 309.791 
	L 92.161, 309.791 
	L 92.161, 0.035 
" />
<path d="M 96.768, 309.791 
	L 96.768, 309.791 
	L 96.768, 0.035 
" />
<path d="M 101.375, 309.791 
	L 101.374, 309.791 
	L 101.374, 0.035 
" />
<path d="M 105.981, 309.791 
	L 105.980, 309.791 
	L 105.980, 0.035 
" />
<path d="M 110.587, 309.791 
	L 110.587, 309.791 
	L 110.587, 0.035 
" />
<path d="M 115.194, 309.791 
	L 115.193, 309.791 
	L 115.193, 0.035 
" />
<path d="M 119.800, 309.791 
	L 119.799, 309.791 
	L 119.799, 0.035 
" />
<path d="M 124.406, 309.791 
	L 124.406, 309.791 
	L 124.406, 0.035 
" />
<path d="M 129.013, 309.791 
	L 129.012, 309.791 
	L 129.012, 0.035 
" />
<path d="M 133.619, 309.791 
	L 133.618, 309.791 
	L 133.618, 0.035 
" />
<path d="M 138.225, 309.791 
	L 138.224, 309.791 
	L 138.224, 0.035 
" />
<path d="M 142.831, 309.791 
	L 142.831, 309.791 
	L 142.831, 0.035 
" />
<path d="M 147.438, 309.791 
	L 147.437, 309.791 
	L 147.437, 0.035 
" />
<path d="M 152.044, 309.791 
	L 152.043, 309.791 
	L 152.043, 0.035 
" />
<path d="M 156.650, 309.791 
	L 156.650, 309.791 
	L 156.650, 0.035 
" />
<path d="M 161.257, 309.791 
	L 161.256, 309.791 
	L 161.256, 0.035 
" />
<path d="M 165.863, 309.791 
	L 165.862, 309.791 
	L 165.862, 0.035 
" />
<path d="M 170.469, 309.791 
	L 170.469, 309.791 
	L 170.469, 0.035 
" />
<path d="M 175.076, 309.791 
	L 175.075, 309.791 
	L 175.075, 0.035 
" />
<path d="M 179.682, 309.791 
	L 179.681, 309.791 
	L 179.681, 0.035 
" />
<path d="M 184.288, 309.791 
	L 184.287, 309.791 
	L 184.287, 0.035 
" />
<path d="M 188.894, 309.791 
	L 188.894, 309.791 
	L 188.894, 0.035 
" />
<path d="M 193.501, 309.791 
	L 193.500, 309.791 
	L 193.500, 0.035 
" />
<path d="M 198.107, 309.791 
	L 198.106, 309.791 
	L 198.106, 0.035 
" />
<path d="M 202.713, 309.791 
	L 202.713, 309.791 
	L 202.713, 0.035 
" />
<path d="M 207.320, 309.791 
	L 207.319, 309.791 
	L 207.319, 0.035 
" />
<path d="M 211.926, 309.791 
	L 211.925, 309.791 
	L 211.925, 0.035 
" />
<path d="M 216.532, 309.791 
	L 216.532, 309.791 
	L 216.532, 0.035 
" />
<path d="M 221.139, 309.791 
	L 221.138, 309.791 
	L 221.138, 0.035 
" />
<path d="M 225.745, 309.791 
	L 225.744, 309.791 
	L 225.744, 0.035 
" />
<path d="M 230.351, 309.791 
	L 230.350, 309.791 
	L 230.350, 0.035 
" />
<path d="M 234.957, 309.791 
	L 234.957, 309.791 
	L 234.957, 0.035 
" />
<path d="M 239.564, 309.791 
	L 239.563, 309.791 
	L 239.563, 0.035 
" />
<path d="M 244.170, 309.791 
	L 244.169, 309.791 
	L 244.169, 0.035 
" />
<path d="M 248.776, 309.791 
	L 248.776, 309.791 
	L 248.776, 0.035 
" />
<path d="M 253.383, 309.791 
	L 253.382, 309.791 
	L 253.382, 0.035 
" />
<path d="M 257.989, 309.791 
	L 257.988, 309.791 
	L 257.988, 0.035 
" />
<path d="M 262.595, 309.791 
	L 262.595, 309.791 
	L 262.595, 0.035 
" />
<path d="M 267.202, 309.791 
	L 267.201, 309.791 
	L 267.201, 0.035 
" />
<path d="M 271.808, 309.791 
	L 271.807, 309.791 
	L 271.807, 0.035 
" />
<path d="M 276.414, 309.791 
	L 276.413, 309.791 
	L 276.413, 0.035 
" />
<path d="M 281.020, 309.791 
	L 281.020, 309.791 
	L 281.020, 0.035 
" />
<path d="M 285.627, 309.791 
	L 285.626, 309.791 
	L 285.626, 0.035 
" />
<path d="M 290.233, 309.791 
	L 290.232, 309.791 
	L 290.232, 0.035 
" />
<path d="M 294.839, 309.791 
	L 294.839, 309.791 
	L 294.839, 0.035 
" />
<path d="M 299.446, 309.791 
	L 299.445, 309.791 
	L 299.445, 0.035 
" />
<path d="M 304.052, 309.791 
	L 304.051, 309.791 
	L 304.051, 0.035 
" />
<path d="M 308.658, 309.791 
	L 308.658, 309.791 
	L 308.658, 0.035 
" />
<path d="M 313.265, 309.791 
	L 313.264, 309.791 
	L 313.264, 0.035 
" />
<path d="M 317.871, 309.791 
	L 317.870, 309.791 
	L 317.870, 0.035 
" />
<path d="M 322.477, 309.791 
	L 322.476, 309.791 
	L 322.476, 0.035 
" />
<path d="M 327.083, 309.791 
	L 327.083, 309.791 
	L 327.083, 0.035 
" />
<path d="M 331.690, 309.791 
	L 331.689, 309.791 
	L 331.689, 0.035 
" />
<path d="M 336.296, 309.791 
	L 336.295, 309.791 
	L 336.295, 0.035 
" />
<path d="M 340.902, 309.791 
	L 340.902, 309.791 
	L 340.902, 0.035 
" />
<path d="M 345.509, 309.791 
	L 345.508, 309.791 
	L 345.508, 0.035 
" />
<path d="M 350.115, 309.791 
	L 350.114, 309.791 
	L 350.114, 0.035 
" />
<path d="M 354.721, 309.791 
	L 354.721, 309.791 
	L 354.721, 0.035 
" />
<path d="M 362.765, 309.826 
	L 362.764, 309.827 
	L 362.764, 0.071 
	L 708.662, 0.071 
	L 708.662, 309.827 
	L 362.764, 309.827 
" />
<path d="M 362.800, 309.791 
	L 362.799, 309.791 
	L 362.799, 0.035 
" />
<path d="M 367.335, 309.791 
	L 367.335, 309.791 
	L 367.335, 0.035 
" />
<path d="M 371.871, 309.791 
	L 371.870, 309.791 
	L 371.870, 0.035 
" />
<path d="M 376.406, 309.791 
	L 376.406, 309.791 
	L 376.406, 0.035 
" />
<path d="M 380.942, 309.791 
	L 380.941, 309.791 
	L 380.941, 0.035 
" />
<path d="M 385.477, 309.791 
	L 385.476, 309.791 
	L 385.476, 0.035 
" />
<path d="M 390.013, 309.791 
	L 390.012, 309.791 
	L 390.012, 0.035 
" />
<path d="M 394.548, 309.791 
	L 394.547, 309.791 
	L 394.547, 0.035 
" />
<path d="M 399.083, 309.791 
	L 399.083, 309.791 
	L 399.083, 0.035 
" />
<path d="M 403.619, 309.791 
	L 403.618, 309.791 
	L 403.618, 0.035 
" />
<path d="M 408.154, 309.791 
	L 408.154, 309.791 
	L 408.154, 0.035 
" />
<path d="M 412.690, 309.791 
	L 412.689, 309.791 
	L 412.689, 0.035 
" />
<path d="M 417.225, 309.791 
	L 417.224, 309.791 
	L 417.224, 0.035 
" />
<path d="M 421.761, 309.791 
	L 421.760, 309.791 
	L 421.760, 0.035 
" />
<path d="M 426.296, 309.791 
	L 426.295, 309.791 
	L 426.295, 0.035 
" />
<path d="M 430.831, 309.791 
	L 430.831, 309.791 
	L 430.831, 0.035 
" />
<path d="M 435.367, 309.791 
	L 435.366, 309.791 
	L 435.366, 0.035 
" />
<path d="M 439.902, 309.791 
	L 439.902, 309.791 
	L 439.902, 0.035 
" />
<path d="M 444.438, 309.791 
	L 444.437, 309.791 
	L 444.437, 0.035 
" />
<path d="M 448.973, 309.791 
	L 448.973, 309.791 
	L 448.973, 0.035 
" />
<path d="M 453.509, 309.791 
	L 453.508, 309.791 
	L 453.508, 0.035 
" />
<path d="M 458.044, 309.791 
	L 458.043, 309.791 
	L 458.043, 0.035 
" />
<path d="M 462.580, 309.791 
	L 462.579, 309.791 
	L 462.579, 0.035 
" />
<path d="M 467.115, 309.791 
	L 467.114, 309.791 
	L 467.114, 0.035 
" />
<path d="M 471.650, 309.791 
	L 471.650, 309.791 
	L 471.650, 0.035 
" />
<path d="M 476.186, 309.791 
	L 476.185, 309.791 
	L 476.185, 0.035 
" />
<path d="M 480.721, 309.791 
	L 480.721, 309.791 
	L 480.721, 0.035 
" />
<path d="M 485.257, 309.791 
	L 485.256, 309.791 
	L 485.256, 0.035 
" />
<path d="M 489.792, 309.791 
	L 489.791, 309.791 
	L 489.791, 0.035 
" />
<path d="M 494.328, 309.791 
	L 494.327, 309.791 
	L 494.327, 0.035 
" />
<path d="M 498.863, 309.791 
	L 498.862, 309.791 
	L 498.862, 0.035 
" />
<path d="M 503.398, 309.791 
	L 503.398, 309.791 
	L 503.398, 0.035 
" />
<path d="M 507.934, 309.791 
	L 507.933, 309.791 
	L 507.933, 0.035 
" />
<path d="M 512.469, 309.791 
	L 512.469, 309.791 
	L 512.469, 0.035 
" />
<path d="M 517.005, 309.791 
	L 517.004, 309.791 
	L 517.004, 0.035 
" />
<path d="M 521.540, 309.791 
	L 521.539, 309.791 
	L 521.539, 0.035 
" />
<path d="M 526.076, 309.791 
	L 526.075, 309.791 
	L 526.075, 0.035 
" />
<path d="M 530.611, 309.791 
	L 530.610, 309.791 
	L 530.610, 0.035 
" />
<path d="M 535.146, 309.791 
	L 535.146, 309.791 
	L 535.146, 0.035 
" />
<path d="M 539.682, 309.791 
	L 539.681, 309.791 
	L 539.681, 0.035 
" />
<path d="M 544.217, 309.791 
	L 544.217, 309.791 
	L 544.217, 0.035 
" />
<path d="M 548.753, 309.791 
	L 548.752, 309.791 
	L 548.752, 0.035 
" />
<path d="M 553.288, 309.791 
	L 553.287, 309.791 
	L 553.287, 0.035 
" />
<path d="M 557.824, 309.791 
	L 557.823, 309.791 
	L 557.823, 0.035 
" />
<path d="M 562.359, 309.791 
	L 562.358, 309.791 
	L 562.358, 0.035 
" />
<path d="M 566.894, 309.791 
	L 566.894, 309.791 
	L 566.894, 0.035 
" />
<path d="M 571.430, 309.791 
	L 571.429, 309.791 
	L 571.429, 0.035 
" />
<path d="M 575.965, 309.791 
	L 575.965, 309.791 
	L 575.965, 0.035 
" />
<path d="M 580.501, 309.791 
	L 580.500, 309.791 
	L 580.500, 0.035 
" />
<path d="M 585.036, 309.791 
	L 585.036, 309.791 
	L 585.036, 0.035 
" />
<path d="M 589.572, 309.791 
	L 589.571, 309.791 
	L 589.571, 0.035 
" />
<path d="M 594.107, 309.791 
	L 594.106, 309.791 
	L 594.106, 0.035 
" />
<path d="M 598.643, 309.791 
	L 598.642, 309.791 
	L 598.642, 0.035 
" />
<path d="M 603.178, 309.791 
	L 603.177, 309.791 
	L 603.177, 0.035 
" />
<path d="M 607.713, 309.791 
	L 607.713, 309.791 
	L 607.713, 0.035 
" />
<path d="M 612.249, 309.791 
	L 612.248, 309.791 
	L 612.248, 0.035 
" />
<path d="M 616.784, 309.791 
	L 616.784, 309.791 
	L 616.784, 0.035 
" />
<path d="M 621.320, 309.791 
	L 621.319, 309.791 
	L 621.319, 0.035 
" />
<path d="M 625.855, 309.791 
	L 625.854, 309.791 
	L 625.854, 0.035 
" />
<path d="M 630.391, 309.791 
	L 630.390, 309.791 
	L 630.390, 0.035 
" />
<path d="M 634.926, 309.791 
	L 634.925, 309.791 
	L 634.925, 0.035 
" />
<path d="M 639.461, 309.791 
	L 639.461, 309.791 
	L 639.461, 0.035 
" />
<path d="M 643.997, 309.791 
	L 643.996, 309.791 
	L 643.996, 0.035 
" />
<path d="M 648.532, 309.791 
	L 648.532, 309.791 
	L 648.532, 0.035 
" />
<path d="M 653.068, 309.791 
	L 653.067, 309.791 
	L 653.067, 0.035 
" />
<path d="M 657.603, 309.791 
	L 657.602, 309.791 
	L 657.602, 0.035 
" />
<path d="M 662.139, 309.791 
	L 662.138, 309.791 
	L 662.138, 0.035 
" />
<path d="M 666.674, 309.791 
	L 666.673, 309.791 
	L 666.673, 0.035 
" />
<path d="M 671.209, 309.791 
	L 671.209, 309.791 
	L 671.209, 0.035 
" />
<path d="M 675.745, 309.791 
	L 675.744, 309.791 
	L 675.744, 0.035 
" />
<path d="M 680.280, 309.791 
	L 680.280, 309.791 
	L 680.280, 0.035 
" />
<path d="M 684.816, 309.791 
	L 684.815, 309.791 
	L 684.815, 0.035 
" />
<path d="M 689.351, 309.791 
	L 689.350, 309.791 
	L 689.350, 0.035 
" />
<path d="M 693.887, 309.791 
	L 693.886, 309.791 
	L 693.886, 0.035 
" />
<path d="M 698.422, 309.791 
	L 698.421, 309.791 
	L 698.421, 0.035 
" />
<path d="M 702.957, 309.791 
	L 702.957, 309.791 
	L 702.957, 0.035 
" />
<path d="M 362.765, 708.732 
	L 362.764, 708.732 
	L 362.764, 309.827 
	L 708.662, 309.827 
	L 708.662, 708.732 
	L 362.764, 708.732 
" />
<path d="M 362.800, 708.696 
	L 362.799, 708.697 
	L 362.799, 309.791 
" />
<path d="M 367.335, 708.696 
	L 367.335, 708.697 
	L 367.335, 309.791 
" />
<path d="M 371.871, 708.696 
	L 371.870, 708.697 
	L 371.870, 309.791 
" />
<path d="M 376.406, 708.696 
	L 376.406, 708.697 
	L 376.406, 309.791 
" />
<path d="M 380.942, 708.696 
	L 380.941, 708.697 
	L 380.941, 309.791 
" />
<path d="M 385.477, 708.696 
	L 385.476, 708.697 
	L 385.476, 309.791 
" />
<path d="M 390.013, 708.696 
	L 390.012, 708.697 
	L 390.012, 309.791 
" />
<path d="M 394.548, 708.696 
	L 394.547, 708.697 
	L 394.547, 309.791 
" />
<path d="M 399.083, 708.696 
	L 399.083, 708.697 
	L 399.083, 309.791 
" />
<path d="M 403.619, 708.696 
	L 403.618, 708.697 
	L 403.618, 309.791 
" />
<path d="M 408.154, 708.696 
	L 408.154, 708.697 
	L 408.154, 309.791 
" />
<path d="M 412.690, 708.696 
	L 412.689, 708.697 
	L 412.689, 309.791 
" />
<path d="M 417.225, 708.696 
	L 417.224, 708.697 
	L 417.224, 309.791 
" />
<path d="M 421.761, 708.696 
	L 421.760, 708.697 
	L 421.760, 309.791 
" />
<path d="M 426.296, 708.696 
	L 426.295, 708.697 
	L 426.295, 309.791 
" />
<path d="M 430.831, 708.696 
	L 430.831, 708.697 
	L 430.831, 309.791 
" />
<path d="M 435.367, 708.696 
	L 435.366, 708.697 
	L 435.366, 309.791 
" />
<path d="M 439.902, 708.696 
	L 439.902, 708.697 
	L 439.902, 309.791 
" />
<path d="M 444.438, 708.696 
	L 444.437, 708.697 
	L 444.437, 309.791 
" />
<path d="M 448.973, 708.696 
	L 448.973, 708.697 
	L 448.973, 309.791 
" />
<path d="M 453.509, 708.696 
	L 453.508, 708.697 
	L 453.508, 309.791 
" />
<path d="M 458.044, 708.696 
	L 458.043, 708.697 
	L 458.043, 309.791 
" />
<path d="M 462.580, 708.696 
	L 462.579, 708.697 
	L 462.579, 309.791 
" />
<path d="M 467.115, 708.696 
	L 467.114, 708.697 
	L 467.114, 309.791 
" />
<path d="M 471.650, 708.696 
	L 471.650, 708.697 
	L 471.650, 309.791 
" />
<path d="M 476.186, 708.696 
	L 476.185, 708.697 
	L 476.185, 309.791 
" />
<path d="M 480.721, 708.696 
	L 480.721, 708.697 
	L 480.721, 309.791 
" />
<path d="M 485.257, 708.696 
	L 485.256, 708.697 
	L 485.256, 309.791 
" />
<path d="M 489.792, 708.696 
	L 489.791, 708.697 
	L 489.791, 309.791 
" />
<path d="M 494.328, 708.696 
	L 494.327, 708.697 
	L 494.327, 309.791 
" />
<path d="M 498.863, 708.696 
	L 498.862, 708.697 
	L 498.862, 309.791 
" />
<path d="M 503.398, 708.696 
	L 503.398, 708.697 
	L 503.398, 309.791 
" />
<path d="M 507.934, 708.696 
	L 507.933, 708.697 
	L 507.933, 309.791 
" />
<path d="M 512.469, 708.696 
	L 512.469, 708.697 
	L 512.469, 309.791 
" />
<path d="M 517.005, 708.696 
	L 517.004, 708.697 
	L 517.004, 309.791 
" />
<path d="M 521.540, 708.696 
	L 521.539, 708.697 
	L 521.539, 309.791 
" />
<path d="M 526.076, 708.696 
	L 526.075, 708.697 
	L 526.075, 309.791 
" />
<path d="M 530.611, 708.696 
	L 530.610, 708.697 
	L 530.610, 309.791 
" />
<path d="M 535.146, 708.696 
	L 535.146, 708.697 
	L 535.146, 309.791 
" />
<path d="M 539.682, 708.696 
	L 539.681, 708.697 
	L 539.681, 309.791 
" />
<path d="M 544.217, 708.696 
	L 544.217, 708.697 
	L 544.217, 309.791 
" />
<path d="M 548.753, 708.696 
	L 548.752, 708.697 
	L 548.752, 309.791 
" />
<path d="M 553.288, 708.696 
	L 553.287, 708.697 
	L 553.287, 309.791 
" />
<path d="M 557.824, 708.696 
	L 557.823, 708.697 
	L 557.823, 309.791 
" />
<path d="M 562.359, 708.696 
	L 562.358, 708.697 
	L 562.358, 309.791 
" />
<path d="M 566.894, 708.696 
	L 566.894, 708.697 
	L 566.894, 309.791 
" />
<path d="M 571.430, 708.696 
	L 571.429, 708.697 
	L 571.429, 309.791 
" />
<path d="M 575.965, 708.696 
	L 575.965, 708.697 
	L 575.965, 309.791 
" />
<path d="M 580.501, 708.696 
	L 580.500, 708.697 
	L 580.500, 309.791 
" />
<path d="M 585.036, 708.696 
	L 585.036, 708.697 
	L 585.036, 309.791 
" />
<path d="M 589.572, 708.696 
	L 589.571, 708.697 
	L 589.571, 309.791 
" />
<path d="M 594.107, 708.696 
	L 594.106, 708.697 
	L 594.106, 309.791 
" />
<path d="M 598.643, 708.696 
	L 598.642, 708.697 
	L 598.642, 309.791 
" />
<path d="M 603.178, 708.696 
	L 603.177, 708.697 
	L 603.177, 309.791 
" />
<path d="M 607.713, 708.696 
	L 607.713, 708.697 
	L 607.713, 309.791 
" />
<path d="M 612.249, 708.696 
	L 612.248, 708.697 
	L 612.248, 309.791 
" />
<path d="M 616.784, 708.696 
	L 616.784, 708.697 
	L 616.784, 309.791 
" />
<path d="M 621.320, 708.696 
	L 621.319, 708.697 
	L 621.319, 309.791 
" />
<path d="M 625.855, 708.696 
	L 625.854, 708.697 
	L 625.854, 309.791 
" />
<path d="M 630.391, 708.696 
	L 630.390, 708.697 
	L 630.390, 309.791 
" />
<path d="M 634.926, 708.696 
	L 634.925, 708.697 
	L 634.925, 309.791 
" />
<path d="M 639.461, 708.696 
	L 639.461, 708.697 
	L 639.461, 309.791 
" />
<path d="M 643.997, 708.696 
	L 643.996, 708.697 
	L 643.996, 309.791 
" />
<path d="M 648.532, 708.696 
	L 648.532, 708.697 
	L 648.532, 309.791 
" />
<path d="M 653.068, 708.696 
	L 653.067, 708.697 
	L 653.067, 309.791 
" />
<path d="M 657.603, 708.696 
	L 657.602, 708.697 
	L 657.602, 309.791 
" />
<path d="M 662.139, 708.696 
	L 662.138, 708.697 
	L 662.138, 309.791 
" />
<path d="M 666.674, 708.696 
	L 666.673, 708.697 
	L 666.673, 309.791 
" />
<path d="M 671.209, 708.696 
	L 671.209, 708.697 
	L 671.209, 309.791 
" />
<path d="M 675.745, 708.696 
	L 675.744, 708.697 
	L 675.744, 309.791 
" />
<path d="M 680.280, 708.696 
	L 680.280, 708.697 
	L 680.280, 309.791 
" />
<path d="M 684.816, 708.696 
	L 684.815, 708.697 
	L 684.815, 309.791 
" />
<path d="M 689.351, 708.696 
	L 689.350, 708.697 
	L 689.350, 309.791 
" />
<path d="M 693.887, 708.696 
	L 693.886, 708.697 
	L 693.886, 309.791 
" />
<path d="M 698.422, 708.696 
	L 698.421, 708.697 
	L 698.421, 309.791 
" />
<path d="M 702.957, 708.696 
	L 702.957, 708.697 
	L 702.957, 309.791 
" />
</g>
</svg>
