<?xml version="1.0" encoding="UTF-8" standalone="no" ?>
<svg width="100%" height="100%" viewBox="0 0 708.697 708.662" xmlns="http://www.w3.org/2000/svg"><g>
</g><g style="stroke:rgb(0,0,0); fill:none; stroke-width:1.000mm" >
</g><g style="stroke:rgb(0,255,0); fill:none; stroke-width:0.100mm" >
<path d="M 0.036, 708.661 
	L 0.035, 708.662 
	L 0.035, 0.000 
	L 708.697, 0.000 
	L 708.697, 708.662 
	L 0.035, 708.662 
" />
</g><g style="stroke:rgb(0,0,0); fill:none; stroke-width:0.100mm" >
<path d="M 0.001, 708.661 
	L 0.000, 708.662 
	L 0.000, 681.449 
	L 64.984, 681.449 
	L 64.984, 708.662 
	L 0.000, 708.662 
" />
<path d="M 0.036, 708.661 
	L 0.035, 708.662 
	L 0.035, 681.449 
" />
<path d="M 4.642, 708.661 
	L 4.642, 708.662 
	L 4.642, 681.449 
" />
<path d="M 9.249, 708.661 
	L 9.248, 708.662 
	L 9.248, 681.449 
" />
<path d="M 13.855, 708.661 
	L 13.854, 708.662 
	L 13.854, 681.449 
" />
<path d="M 18.461, 708.661 
	L 18.461, 708.662 
	L 18.461, 681.449 
" />
<path d="M 23.068, 708.661 
	L 23.067, 708.662 
	L 23.067, 681.449 
" />
<path d="M 27.674, 708.661 
	L 27.673, 708.662 
	L 27.673, 681.449 
" />
<path d="M 32.280, 708.661 
	L 32.280, 708.662 
	L 32.280, 681.449 
" />
<path d="M 36.887, 708.661 
	L 36.886, 708.662 
	L 36.886, 681.449 
" />
<path d="M 41.493, 708.661 
	L 41.492, 708.662 
	L 41.492, 681.449 
" />
<path d="M 46.099, 708.661 
	L 46.098, 708.662 
	L 46.098, 681.449 
" />
<path d="M 50.705, 708.661 
	L 50.705, 708.662 
	L 50.705, 681.449 
" />
<path d="M 55.312, 708.661 
	L 55.311, 708.662 
	L 55.311, 681.449 
" />
<path d="M 59.918, 708.661 
	L 59.917, 708.662 
	L 59.917, 681.449 
" />
</g><g style="stroke:rgb(255,0,0); fill:none; stroke-width:0.100mm" >
<path d="M 0.001, 681.484 
	L 0.000, 681.484 
	L 0.000, 409.287 
	L 64.984, 409.287 
	L 64.984, 681.484 
	L 0.000, 681.484 
" />
<path d="M 0.036, 681.448 
	L 0.035, 681.449 
	L 0.035, 409.252 
" />
<path d="M 4.642, 681.448 
	L 4.642, 681.449 
	L 4.642, 409.252 
" />
<path d="M 9.249, 681.448 
	L 9.248, 681.449 
	L 9.248, 409.252 
" />
<path d="M 13.855, 681.448 
	L 13.854, 681.449 
	L 13.854, 409.252 
" />
<path d="M 18.461, 681.448 
	L 18.461, 681.449 
	L 18.461, 409.252 
" />
<path d="M 23.068, 681.448 
	L 23.067, 681.449 
	L 23.067, 409.252 
" />
<path d="M 27.674, 681.448 
	L 27.673, 681.449 
	L 27.673, 409.252 
" />
<path d="M 32.280, 681.448 
	L 32.280, 681.449 
	L 32.280, 409.252 
" />
<path d="M 36.887, 681.448 
	L 36.886, 681.449 
	L 36.886, 409.252 
" />
<path d="M 41.493, 681.448 
	L 41.492, 681.449 
	L 41.492, 409.252 
" />
<path d="M 46.099, 681.448 
	L 46.098, 681.449 
	L 46.098, 409.252 
" />
<path d="M 50.705, 681.448 
	L 50.705, 681.449 
	L 50.705, 409.252 
" />
<path d="M 55.312, 681.448 
	L 55.311, 681.449 
	L 55.311, 409.252 
" />
<path d="M 59.918, 681.448 
	L 59.917, 681.449 
	L 59.917, 409.252 
" />
</g><g style="stroke:rgb(0,255,0); fill:none; stroke-width:0.100mm" >
<path d="M 64.985, 681.484 
	L 64.984, 681.484 
	L 64.984, 409.287 
	L 652.677, 409.287 
	L 652.677, 681.484 
	L 64.984, 681.484 
" />
<path d="M 65.020, 681.448 
	L 65.020, 681.449 
	L 65.020, 409.252 
" />
<path d="M 69.556, 681.448 
	L 69.555, 681.449 
	L 69.555, 409.252 
" />
<path d="M 74.091, 681.448 
	L 74.091, 681.449 
	L 74.091, 409.252 
" />
<path d="M 78.627, 681.448 
	L 78.626, 681.449 
	L 78.626, 409.252 
" />
<path d="M 83.162, 681.448 
	L 83.161, 681.449 
	L 83.161, 409.252 
" />
<path d="M 87.698, 681.448 
	L 87.697, 681.449 
	L 87.697, 409.252 
" />
<path d="M 92.233, 681.448 
	L 92.232, 681.449 
	L 92.232, 409.252 
" />
<path d="M 96.768, 681.448 
	L 96.768, 681.449 
	L 96.768, 409.252 
" />
<path d="M 101.304, 681.448 
	L 101.303, 681.449 
	L 101.303, 409.252 
" />
<path d="M 105.839, 681.448 
	L 105.839, 681.449 
	L 105.839, 409.252 
" />
<path d="M 110.375, 681.448 
	L 110.374, 681.449 
	L 110.374, 409.252 
" />
<path d="M 114.910, 681.448 
	L 114.909, 681.449 
	L 114.909, 409.252 
" />
<path d="M 119.446, 681.448 
	L 119.445, 681.449 
	L 119.445, 409.252 
" />
<path d="M 123.981, 681.448 
	L 123.980, 681.449 
	L 123.980, 409.252 
" />
<path d="M 128.516, 681.448 
	L 128.516, 681.449 
	L 128.516, 409.252 
" />
<path d="M 133.052, 681.448 
	L 133.051, 681.449 
	L 133.051, 409.252 
" />
<path d="M 137.587, 681.448 
	L 137.587, 681.449 
	L 137.587, 409.252 
" />
<path d="M 142.123, 681.448 
	L 142.122, 681.449 
	L 142.122, 409.252 
" />
<path d="M 146.658, 681.448 
	L 146.658, 681.449 
	L 146.658, 409.252 
" />
<path d="M 151.194, 681.448 
	L 151.193, 681.449 
	L 151.193, 409.252 
" />
<path d="M 155.729, 681.448 
	L 155.728, 681.449 
	L 155.728, 409.252 
" />
<path d="M 160.265, 681.448 
	L 160.264, 681.449 
	L 160.264, 409.252 
" />
<path d="M 164.800, 681.448 
	L 164.799, 681.449 
	L 164.799, 409.252 
" />
<path d="M 169.335, 681.448 
	L 169.335, 681.449 
	L 169.335, 409.252 
" />
<path d="M 173.871, 681.448 
	L 173.870, 681.449 
	L 173.870, 409.252 
" />
<path d="M 178.406, 681.448 
	L 178.406, 681.449 
	L 178.406, 409.252 
" />
<path d="M 182.942, 681.448 
	L 182.941, 681.449 
	L 182.941, 409.252 
" />
<path d="M 187.477, 681.448 
	L 187.476, 681.449 
	L 187.476, 409.252 
" />
<path d="M 192.013, 681.448 
	L 192.012, 681.449 
	L 192.012, 409.252 
" />
<path d="M 196.548, 681.448 
	L 196.547, 681.449 
	L 196.547, 409.252 
" />
<path d="M 201.083, 681.448 
	L 201.083, 681.449 
	L 201.083, 409.252 
" />
<path d="M 205.619, 681.448 
	L 205.618, 681.449 
	L 205.618, 409.252 
" />
<path d="M 210.154, 681.448 
	L 210.154, 681.449 
	L 210.154, 409.252 
" />
<path d="M 214.690, 681.448 
	L 214.689, 681.449 
	L 214.689, 409.252 
" />
<path d="M 219.225, 681.448 
	L 219.224, 681.449 
	L 219.224, 409.252 
" />
<path d="M 223.761, 681.448 
	L 223.760, 681.449 
	L 223.760, 409.252 
" />
<path d="M 228.296, 681.448 
	L 228.295, 681.449 
	L 228.295, 409.252 
" />
<path d="M 232.831, 681.448 
	L 232.831, 681.449 
	L 232.831, 409.252 
" />
<path d="M 237.367, 681.448 
	L 237.366, 681.449 
	L 237.366, 409.252 
" />
<path d="M 241.902, 681.448 
	L 241.902, 681.449 
	L 241.902, 409.252 
" />
<path d="M 246.438, 681.448 
	L 246.437, 681.449 
	L 246.437, 409.252 
" />
<path d="M 250.973, 681.448 
	L 250.972, 681.449 
	L 250.972, 409.252 
" />
<path d="M 255.509, 681.448 
	L 255.508, 681.449 
	L 255.508, 409.252 
" />
<path d="M 260.044, 681.448 
	L 260.043, 681.449 
	L 260.043, 409.252 
" />
<path d="M 264.579, 681.448 
	L 264.579, 681.449 
	L 264.579, 409.252 
" />
<path d="M 269.115, 681.448 
	L 269.114, 681.449 
	L 269.114, 409.252 
" />
<path d="M 273.650, 681.448 
	L 273.650, 681.449 
	L 273.650, 409.252 
" />
<path d="M 278.186, 681.448 
	L 278.185, 681.449 
	L 278.185, 409.252 
" />
<path d="M 282.721, 681.448 
	L 282.721, 681.449 
	L 282.721, 409.252 
" />
<path d="M 287.257, 681.448 
	L 287.256, 681.449 
	L 287.256, 409.252 
" />
<path d="M 291.792, 681.448 
	L 291.791, 681.449 
	L 291.791, 409.252 
" />
<path d="M 296.328, 681.448 
	L 296.327, 681.449 
	L 296.327, 409.252 
" />
<path d="M 300.863, 681.448 
	L 300.862, 681.449 
	L 300.862, 409.252 
" />
<path d="M 305.398, 681.448 
	L 305.398, 681.449 
	L 305.398, 409.252 
" />
<path d="M 309.934, 681.448 
	L 309.933, 681.449 
	L 309.933, 409.252 
" />
<path d="M 314.469, 681.448 
	L 314.469, 681.449 
	L 314.469, 409.252 
" />
<path d="M 319.005, 681.448 
	L 319.004, 681.449 
	L 319.004, 409.252 
" />
<path d="M 323.540, 681.448 
	L 323.539, 681.449 
	L 323.539, 409.252 
" />
<path d="M 328.076, 681.448 
	L 328.075, 681.449 
	L 328.075, 409.252 
" />
<path d="M 332.611, 681.448 
	L 332.610, 681.449 
	L 332.610, 409.252 
" />
<path d="M 337.146, 681.448 
	L 337.146, 681.449 
	L 337.146, 409.252 
" />
<path d="M 341.682, 681.448 
	L 341.681, 681.449 
	L 341.681, 409.252 
" />
<path d="M 346.217, 681.448 
	L 346.217, 681.449 
	L 346.217, 409.252 
" />
<path d="M 350.753, 681.448 
	L 350.752, 681.449 
	L 350.752, 409.252 
" />
<path d="M 355.288, 681.448 
	L 355.287, 681.449 
	L 355.287, 409.252 
" />
<path d="M 359.824, 681.448 
	L 359.823, 681.449 
	L 359.823, 409.252 
" />
<path d="M 364.359, 681.448 
	L 364.358, 681.449 
	L 364.358, 409.252 
" />
<path d="M 368.894, 681.448 
	L 368.894, 681.449 
	L 368.894, 409.252 
" />
<path d="M 373.430, 681.448 
	L 373.429, 681.449 
	L 373.429, 409.252 
" />
<path d="M 377.965, 681.448 
	L 377.965, 681.449 
	L 377.965, 409.252 
" />
<path d="M 382.501, 681.448 
	L 382.500, 681.449 
	L 382.500, 409.252 
" />
<path d="M 387.036, 681.448 
	L 387.035, 681.449 
	L 387.035, 409.252 
" />
<path d="M 391.572, 681.448 
	L 391.571, 681.449 
	L 391.571, 409.252 
" />
<path d="M 396.107, 681.448 
	L 396.106, 681.449 
	L 396.106, 409.252 
" />
<path d="M 400.642, 681.448 
	L 400.642, 681.449 
	L 400.642, 409.252 
" />
<path d="M 405.178, 681.448 
	L 405.177, 681.449 
	L 405.177, 409.252 
" />
<path d="M 409.713, 681.448 
	L 409.713, 681.449 
	L 409.713, 409.252 
" />
<path d="M 414.249, 681.448 
	L 414.248, 681.449 
	L 414.248, 409.252 
" />
<path d="M 418.784, 681.448 
	L 418.784, 681.449 
	L 418.784, 409.252 
" />
<path d="M 423.320, 681.448 
	L 423.319, 681.449 
	L 423.319, 409.252 
" />
<path d="M 427.855, 681.448 
	L 427.854, 681.449 
	L 427.854, 409.252 
" />
<path d="M 432.391, 681.448 
	L 432.390, 681.449 
	L 432.390, 409.252 
" />
<path d="M 436.926, 681.448 
	L 436.925, 681.449 
	L 436.925, 409.252 
" />
<path d="M 441.461, 681.448 
	L 441.461, 681.449 
	L 441.461, 409.252 
" />
<path d="M 445.997, 681.448 
	L 445.996, 681.449 
	L 445.996, 409.252 
" />
<path d="M 450.532, 681.448 
	L 450.532, 681.449 
	L 450.532, 409.252 
" />
<path d="M 455.068, 681.448 
	L 455.067, 681.449 
	L 455.067, 409.252 
" />
<path d="M 459.603, 681.448 
	L 459.602, 681.449 
	L 459.602, 409.252 
" />
<path d="M 464.139, 681.448 
	L 464.138, 681.449 
	L 464.138, 409.252 
" />
<path d="M 468.674, 681.448 
	L 468.673, 681.449 
	L 468.673, 409.252 
" />
<path d="M 473.209, 681.448 
	L 473.209, 681.449 
	L 473.209, 409.252 
" />
<path d="M 477.745, 681.448 
	L 477.744, 681.449 
	L 477.744, 409.252 
" />
<path d="M 482.280, 681.448 
	L 482.280, 681.449 
	L 482.280, 409.252 
" />
<path d="M 486.816, 681.448 
	L 486.815, 681.449 
	L 486.815, 409.252 
" />
<path d="M 491.351, 681.448 
	L 491.350, 681.449 
	L 491.350, 409.252 
" />
<path d="M 495.887, 681.448 
	L 495.886, 681.449 
	L 495.886, 409.252 
" />
<path d="M 500.422, 681.448 
	L 500.421, 681.449 
	L 500.421, 409.252 
" />
<path d="M 504.957, 681.448 
	L 504.957, 681.449 
	L 504.957, 409.252 
" />
<path d="M 509.493, 681.448 
	L 509.492, 681.449 
	L 509.492, 409.252 
" />
<path d="M 514.028, 681.448 
	L 514.028, 681.449 
	L 514.028, 409.252 
" />
<path d="M 518.564, 681.448 
	L 518.563, 681.449 
	L 518.563, 409.252 
" />
<path d="M 523.099, 681.448 
	L 523.099, 681.449 
	L 523.099, 409.252 
" />
<path d="M 527.635, 681.448 
	L 527.634, 681.449 
	L 527.634, 409.252 
" />
<path d="M 532.170, 681.448 
	L 532.169, 681.449 
	L 532.169, 409.252 
" />
<path d="M 536.705, 681.448 
	L 536.705, 681.449 
	L 536.705, 409.252 
" />
<path d="M 541.241, 681.448 
	L 541.240, 681.449 
	L 541.240, 409.252 
" />
<path d="M 545.776, 681.448 
	L 545.776, 681.449 
	L 545.776, 409.252 
" />
<path d="M 550.312, 681.448 
	L 550.311, 681.449 
	L 550.311, 409.252 
" />
<path d="M 554.847, 681.448 
	L 554.847, 681.449 
	L 554.847, 409.252 
" />
<path d="M 559.383, 681.448 
	L 559.382, 681.449 
	L 559.382, 409.252 
" />
<path d="M 563.918, 681.448 
	L 563.917, 681.449 
	L 563.917, 409.252 
" />
<path d="M 568.454, 681.448 
	L 568.453, 681.449 
	L 568.453, 409.252 
" />
<path d="M 572.989, 681.448 
	L 572.988, 681.449 
	L 572.988, 409.252 
" />
<path d="M 577.524, 681.448 
	L 577.524, 681.449 
	L 577.524, 409.252 
" />
<path d="M 582.060, 681.448 
	L 582.059, 681.449 
	L 582.059, 409.252 
" />
<path d="M 586.595, 681.448 
	L 586.595, 681.449 
	L 586.595, 409.252 
" />
<path d="M 591.131, 681.448 
	L 591.130, 681.449 
	L 591.130, 409.252 
" />
<path d="M 595.666, 681.448 
	L 595.665, 681.449 
	L 595.665, 409.252 
" />
<path d="M 600.202, 681.448 
	L 600.201, 681.449 
	L 600.201, 409.252 
" />
<path d="M 604.737, 681.448 
	L 604.736, 681.449 
	L 604.736, 409.252 
" />
<path d="M 609.272, 681.448 
	L 609.272, 681.449 
	L 609.272, 409.252 
" />
<path d="M 613.808, 681.448 
	L 613.807, 681.449 
	L 613.807, 409.252 
" />
<path d="M 618.343, 681.448 
	L 618.343, 681.449 
	L 618.343, 409.252 
" />
<path d="M 622.879, 681.448 
	L 622.878, 681.449 
	L 622.878, 409.252 
" />
<path d="M 627.414, 681.448 
	L 627.413, 681.449 
	L 627.413, 409.252 
" />
<path d="M 631.950, 681.448 
	L 631.949, 681.449 
	L 631.949, 409.252 
" />
<path d="M 636.485, 681.448 
	L 636.484, 681.449 
	L 636.484, 409.252 
" />
<path d="M 641.020, 681.448 
	L 641.020, 681.449 
	L 641.020, 409.252 
" />
<path d="M 645.556, 681.448 
	L 645.555, 681.449 
	L 645.555, 409.252 
" />
</g><g style="stroke:rgb(0,0,255); fill:none; stroke-width:0.100mm" >
<path d="M 64.985, 708.661 
	L 64.984, 708.662 
	L 64.984, 681.449 
	L 652.677, 681.449 
	L 652.677, 708.662 
	L 64.984, 708.662 
" />
<path d="M 65.020, 708.661 
	L 65.020, 708.662 
	L 65.020, 681.449 
" />
<path d="M 69.556, 708.661 
	L 69.555, 708.662 
	L 69.555, 681.449 
" />
<path d="M 74.091, 708.661 
	L 74.091, 708.662 
	L 74.091, 681.449 
" />
<path d="M 78.627, 708.661 
	L 78.626, 708.662 
	L 78.626, 681.449 
" />
<path d="M 83.162, 708.661 
	L 83.161, 708.662 
	L 83.161, 681.449 
" />
<path d="M 87.698, 708.661 
	L 87.697, 708.662 
	L 87.697, 681.449 
" />
<path d="M 92.233, 708.661 
	L 92.232, 708.662 
	L 92.232, 681.449 
" />
<path d="M 96.768, 708.661 
	L 96.768, 708.662 
	L 96.768, 681.449 
" />
<path d="M 101.304, 708.661 
	L 101.303, 708.662 
	L 101.303, 681.449 
" />
<path d="M 105.839, 708.661 
	L 105.839, 708.662 
	L 105.839, 681.449 
" />
<path d="M 110.375, 708.661 
	L 110.374, 708.662 
	L 110.374, 681.449 
" />
<path d="M 114.910, 708.661 
	L 114.909, 708.662 
	L 114.909, 681.449 
" />
<path d="M 119.446, 708.661 
	L 119.445, 708.662 
	L 119.445, 681.449 
" />
<path d="M 123.981, 708.661 
	L 123.980, 708.662 
	L 123.980, 681.449 
" />
<path d="M 128.516, 708.661 
	L 128.516, 708.662 
	L 128.516, 681.449 
" />
<path d="M 133.052, 708.661 
	L 133.051, 708.662 
	L 133.051, 681.449 
" />
<path d="M 137.587, 708.661 
	L 137.587, 708.662 
	L 137.587, 681.449 
" />
<path d="M 142.123, 708.661 
	L 142.122, 708.662 
	L 142.122, 681.449 
" />
<path d="M 146.658, 708.661 
	L 146.658, 708.662 
	L 146.658, 681.449 
" />
<path d="M 151.194, 708.661 
	L 151.193, 708.662 
	L 151.193, 681.449 
" />
<path d="M 155.729, 708.661 
	L 155.728, 708.662 
	L 155.728, 681.449 
" />
<path d="M 160.265, 708.661 
	L 160.264, 708.662 
	L 160.264, 681.449 
" />
<path d="M 164.800, 708.661 
	L 164.799, 708.662 
	L 164.799, 681.449 
" />
<path d="M 169.335, 708.661 
	L 169.335, 708.662 
	L 169.335, 681.449 
" />
<path d="M 173.871, 708.661 
	L 173.870, 708.662 
	L 173.870, 681.449 
" />
<path d="M 178.406, 708.661 
	L 178.406, 708.662 
	L 178.406, 681.449 
" />
<path d="M 182.942, 708.661 
	L 182.941, 708.662 
	L 182.941, 681.449 
" />
<path d="M 187.477, 708.661 
	L 187.476, 708.662 
	L 187.476, 681.449 
" />
<path d="M 192.013, 708.661 
	L 192.012, 708.662 
	L 192.012, 681.449 
" />
<path d="M 196.548, 708.661 
	L 196.547, 708.662 
	L 196.547, 681.449 
" />
<path d="M 201.083, 708.661 
	L 201.083, 708.662 
	L 201.083, 681.449 
" />
<path d="M 205.619, 708.661 
	L 205.618, 708.662 
	L 205.618, 681.449 
" />
<path d="M 210.154, 708.661 
	L 210.154, 708.662 
	L 210.154, 681.449 
" />
<path d="M 214.690, 708.661 
	L 214.689, 708.662 
	L 214.689, 681.449 
" />
<path d="M 219.225, 708.661 
	L 219.224, 708.662 
	L 219.224, 681.449 
" />
<path d="M 223.761, 708.661 
	L 223.760, 708.662 
	L 223.760, 681.449 
" />
<path d="M 228.296, 708.661 
	L 228.295, 708.662 
	L 228.295, 681.449 
" />
<path d="M 232.831, 708.661 
	L 232.831, 708.662 
	L 232.831, 681.449 
" />
<path d="M 237.367, 708.661 
	L 237.366, 708.662 
	L 237.366, 681.449 
" />
<path d="M 241.902, 708.661 
	L 241.902, 708.662 
	L 241.902, 681.449 
" />
<path d="M 246.438, 708.661 
	L 246.437, 708.662 
	L 246.437, 681.449 
" />
<path d="M 250.973, 708.661 
	L 250.972, 708.662 
	L 250.972, 681.449 
" />
<path d="M 255.509, 708.661 
	L 255.508, 708.662 
	L 255.508, 681.449 
" />
<path d="M 260.044, 708.661 
	L 260.043, 708.662 
	L 260.043, 681.449 
" />
<path d="M 264.579, 708.661 
	L 264.579, 708.662 
	L 264.579, 681.449 
" />
<path d="M 269.115, 708.661 
	L 269.114, 708.662 
	L 269.114, 681.449 
" />
<path d="M 273.650, 708.661 
	L 273.650, 708.662 
	L 273.650, 681.449 
" />
<path d="M 278.186, 708.661 
	L 278.185, 708.662 
	L 278.185, 681.449 
" />
<path d="M 282.721, 708.661 
	L 282.721, 708.662 
	L 282.721, 681.449 
" />
<path d="M 287.257, 708.661 
	L 287.256, 708.662 
	L 287.256, 681.449 
" />
<path d="M 291.792, 708.661 
	L 291.791, 708.662 
	L 291.791, 681.449 
" />
<path d="M 296.328, 708.661 
	L 296.327, 708.662 
	L 296.327, 681.449 
" />
<path d="M 300.863, 708.661 
	L 300.862, 708.662 
	L 300.862, 681.449 
" />
<path d="M 305.398, 708.661 
	L 305.398, 708.662 
	L 305.398, 681.449 
" />
<path d="M 309.934, 708.661 
	L 309.933, 708.662 
	L 309.933, 681.449 
" />
<path d="M 314.469, 708.661 
	L 314.469, 708.662 
	L 314.469, 681.449 
" />
<path d="M 319.005, 708.661 
	L 319.004, 708.662 
	L 319.004, 681.449 
" />
<path d="M 323.540, 708.661 
	L 323.539, 708.662 
	L 323.539, 681.449 
" />
<path d="M 328.076, 708.661 
	L 328.075, 708.662 
	L 328.075, 681.449 
" />
<path d="M 332.611, 708.661 
	L 332.610, 708.662 
	L 332.610, 681.449 
" />
<path d="M 337.146, 708.661 
	L 337.146, 708.662 
	L 337.146, 681.449 
" />
<path d="M 341.682, 708.661 
	L 341.681, 708.662 
	L 341.681, 681.449 
" />
<path d="M 346.217, 708.661 
	L 346.217, 708.662 
	L 346.217, 681.449 
" />
<path d="M 350.753, 708.661 
	L 350.752, 708.662 
	L 350.752, 681.449 
" />
<path d="M 355.288, 708.661 
	L 355.287, 708.662 
	L 355.287, 681.449 
" />
<path d="M 359.824, 708.661 
	L 359.823, 708.662 
	L 359.823, 681.449 
" />
<path d="M 364.359, 708.661 
	L 364.358, 708.662 
	L 364.358, 681.449 
" />
<path d="M 368.894, 708.661 
	L 368.894, 708.662 
	L 368.894, 681.449 
" />
<path d="M 373.430, 708.661 
	L 373.429, 708.662 
	L 373.429, 681.449 
" />
<path d="M 377.965, 708.661 
	L 377.965, 708.662 
	L 377.965, 681.449 
" />
<path d="M 382.501, 708.661 
	L 382.500, 708.662 
	L 382.500, 681.449 
" />
<path d="M 387.036, 708.661 
	L 387.035, 708.662 
	L 387.035, 681.449 
" />
<path d="M 391.572, 708.661 
	L 391.571, 708.662 
	L 391.571, 681.449 
" />
<path d="M 396.107, 708.661 
	L 396.106, 708.662 
	L 396.106, 681.449 
" />
<path d="M 400.642, 708.661 
	L 400.642, 708.662 
	L 400.642, 681.449 
" />
<path d="M 405.178, 708.661 
	L 405.177, 708.662 
	L 405.177, 681.449 
" />
<path d="M 409.713, 708.661 
	L 409.713, 708.662 
	L 409.713, 681.449 
" />
<path d="M 414.249, 708.661 
	L 414.248, 708.662 
	L 414.248, 681.449 
" />
<path d="M 418.784, 708.661 
	L 418.784, 708.662 
	L 418.784, 681.449 
" />
<path d="M 423.320, 708.661 
	L 423.319, 708.662 
	L 423.319, 681.449 
" />
<path d="M 427.855, 708.661 
	L 427.854, 708.662 
	L 427.854, 681.449 
" />
<path d="M 432.391, 708.661 
	L 432.390, 708.662 
	L 432.390, 681.449 
" />
<path d="M 436.926, 708.661 
	L 436.925, 708.662 
	L 436.925, 681.449 
" />
<path d="M 441.461, 708.661 
	L 441.461, 708.662 
	L 441.461, 681.449 
" />
<path d="M 445.997, 708.661 
	L 445.996, 708.662 
	L 445.996, 681.449 
" />
<path d="M 450.532, 708.661 
	L 450.532, 708.662 
	L 450.532, 681.449 
" />
<path d="M 455.068, 708.661 
	L 455.067, 708.662 
	L 455.067, 681.449 
" />
<path d="M 459.603, 708.661 
	L 459.602, 708.662 
	L 459.602, 681.449 
" />
<path d="M 464.139, 708.661 
	L 464.138, 708.662 
	L 464.138, 681.449 
" />
<path d="M 468.674, 708.661 
	L 468.673, 708.662 
	L 468.673, 681.449 
" />
<path d="M 473.209, 708.661 
	L 473.209, 708.662 
	L 473.209, 681.449 
" />
<path d="M 477.745, 708.661 
	L 477.744, 708.662 
	L 477.744, 681.449 
" />
<path d="M 482.280, 708.661 
	L 482.280, 708.662 
	L 482.280, 681.449 
" />
<path d="M 486.816, 708.661 
	L 486.815, 708.662 
	L 486.815, 681.449 
" />
<path d="M 491.351, 708.661 
	L 491.350, 708.662 
	L 491.350, 681.449 
" />
<path d="M 495.887, 708.661 
	L 495.886, 708.662 
	L 495.886, 681.449 
" />
<path d="M 500.422, 708.661 
	L 500.421, 708.662 
	L 500.421, 681.449 
" />
<path d="M 504.957, 708.661 
	L 504.957, 708.662 
	L 504.957, 681.449 
" />
<path d="M 509.493, 708.661 
	L 509.492, 708.662 
	L 509.492, 681.449 
" />
<path d="M 514.028, 708.661 
	L 514.028, 708.662 
	L 514.028, 681.449 
" />
<path d="M 518.564, 708.661 
	L 518.563, 708.662 
	L 518.563, 681.449 
" />
<path d="M 523.099, 708.661 
	L 523.099, 708.662 
	L 523.099, 681.449 
" />
<path d="M 527.635, 708.661 
	L 527.634, 708.662 
	L 527.634, 681.449 
" />
<path d="M 532.170, 708.661 
	L 532.169, 708.662 
	L 532.169, 681.449 
" />
<path d="M 536.705, 708.661 
	L 536.705, 708.662 
	L 536.705, 681.449 
" />
<path d="M 541.241, 708.661 
	L 541.240, 708.662 
	L 541.240, 681.449 
" />
<path d="M 545.776, 708.661 
	L 545.776, 708.662 
	L 545.776, 681.449 
" />
<path d="M 550.312, 708.661 
	L 550.311, 708.662 
	L 550.311, 681.449 
" />
<path d="M 554.847, 708.661 
	L 554.847, 708.662 
	L 554.847, 681.449 
" />
<path d="M 559.383, 708.661 
	L 559.382, 708.662 
	L 559.382, 681.449 
" />
<path d="M 563.918, 708.661 
	L 563.917, 708.662 
	L 563.917, 681.449 
" />
<path d="M 568.454, 708.661 
	L 568.453, 708.662 
	L 568.453, 681.449 
" />
<path d="M 572.989, 708.661 
	L 572.988, 708.662 
	L 572.988, 681.449 
" />
<path d="M 577.524, 708.661 
	L 577.524, 708.662 
	L 577.524, 681.449 
" />
<path d="M 582.060, 708.661 
	L 582.059, 708.662 
	L 582.059, 681.449 
" />
<path d="M 586.595, 708.661 
	L 586.595, 708.662 
	L 586.595, 681.449 
" />
<path d="M 591.131, 708.661 
	L 591.130, 708.662 
	L 591.130, 681.449 
" />
<path d="M 595.666, 708.661 
	L 595.665, 708.662 
	L 595.665, 681.449 
" />
<path d="M 600.202, 708.661 
	L 600.201, 708.662 
	L 600.201, 681.449 
" />
<path d="M 604.737, 708.661 
	L 604.736, 708.662 
	L 604.736, 681.449 
" />
<path d="M 609.272, 708.661 
	L 609.272, 708.662 
	L 609.272, 681.449 
" />
<path d="M 613.808, 708.661 
	L 613.807, 708.662 
	L 613.807, 681.449 
" />
<path d="M 618.343, 708.661 
	L 618.343, 708.662 
	L 618.343, 681.449 
" />
<path d="M 622.879, 708.661 
	L 622.878, 708.662 
	L 622.878, 681.449 
" />
<path d="M 627.414, 708.661 
	L 627.413, 708.662 
	L 627.413, 681.449 
" />
<path d="M 631.950, 708.661 
	L 631.949, 708.662 
	L 631.949, 681.449 
" />
<path d="M 636.485, 708.661 
	L 636.484, 708.662 
	L 636.484, 681.449 
" />
<path d="M 641.020, 708.661 
	L 641.020, 708.662 
	L 641.020, 681.449 
" />
<path d="M 645.556, 708.661 
	L 645.555, 708.662 
	L 645.555, 681.449 
" />
</g><g style="stroke:rgb(0,255,255); fill:none; stroke-width:0.100mm" >
<path d="M 0.001, 409.251 
	L 0.000, 409.252 
	L 0.000, 379.205 
	L 469.913, 379.205 
	L 469.913, 409.252 
	L 0.000, 409.252 
" />
<path d="M 0.036, 409.251 
	L 0.035, 409.252 
	L 0.035, 379.205 
" />
<path d="M 4.572, 409.251 
	L 4.571, 409.252 
	L 4.571, 379.205 
" />
<path d="M 9.107, 409.251 
	L 9.106, 409.252 
	L 9.106, 379.205 
" />
<path d="M 13.642, 409.251 
	L 13.642, 409.252 
	L 13.642, 379.205 
" />
<path d="M 18.178, 409.251 
	L 18.177, 409.252 
	L 18.177, 379.205 
" />
<path d="M 22.713, 409.251 
	L 22.713, 409.252 
	L 22.713, 379.205 
" />
<path d="M 27.249, 409.251 
	L 27.248, 409.252 
	L 27.248, 379.205 
" />
<path d="M 31.784, 409.251 
	L 31.783, 409.252 
	L 31.783, 379.205 
" />
<path d="M 36.320, 409.251 
	L 36.319, 409.252 
	L 36.319, 379.205 
" />
<path d="M 40.855, 409.251 
	L 40.854, 409.252 
	L 40.854, 379.205 
" />
<path d="M 45.390, 409.251 
	L 45.390, 409.252 
	L 45.390, 379.205 
" />
<path d="M 49.926, 409.251 
	L 49.925, 409.252 
	L 49.925, 379.205 
" />
<path d="M 54.461, 409.251 
	L 54.461, 409.252 
	L 54.461, 379.205 
" />
<path d="M 58.997, 409.251 
	L 58.996, 409.252 
	L 58.996, 379.205 
" />
<path d="M 63.532, 409.251 
	L 63.532, 409.252 
	L 63.532, 379.205 
" />
<path d="M 68.068, 409.251 
	L 68.067, 409.252 
	L 68.067, 379.205 
" />
<path d="M 72.603, 409.251 
	L 72.602, 409.252 
	L 72.602, 379.205 
" />
<path d="M 77.139, 409.251 
	L 77.138, 409.252 
	L 77.138, 379.205 
" />
<path d="M 81.674, 409.251 
	L 81.673, 409.252 
	L 81.673, 379.205 
" />
<path d="M 86.209, 409.251 
	L 86.209, 409.252 
	L 86.209, 379.205 
" />
<path d="M 90.745, 409.251 
	L 90.744, 409.252 
	L 90.744, 379.205 
" />
<path d="M 95.280, 409.251 
	L 95.280, 409.252 
	L 95.280, 379.205 
" />
<path d="M 99.816, 409.251 
	L 99.815, 409.252 
	L 99.815, 379.205 
" />
<path d="M 104.351, 409.251 
	L 104.350, 409.252 
	L 104.350, 379.205 
" />
<path d="M 108.887, 409.251 
	L 108.886, 409.252 
	L 108.886, 379.205 
" />
<path d="M 113.422, 409.251 
	L 113.421, 409.252 
	L 113.421, 379.205 
" />
<path d="M 117.957, 409.251 
	L 117.957, 409.252 
	L 117.957, 379.205 
" />
<path d="M 122.493, 409.251 
	L 122.492, 409.252 
	L 122.492, 379.205 
" />
<path d="M 127.028, 409.251 
	L 127.028, 409.252 
	L 127.028, 379.205 
" />
<path d="M 131.564, 409.251 
	L 131.563, 409.252 
	L 131.563, 379.205 
" />
<path d="M 136.099, 409.251 
	L 136.098, 409.252 
	L 136.098, 379.205 
" />
<path d="M 140.635, 409.251 
	L 140.634, 409.252 
	L 140.634, 379.205 
" />
<path d="M 145.170, 409.251 
	L 145.169, 409.252 
	L 145.169, 379.205 
" />
<path d="M 149.705, 409.251 
	L 149.705, 409.252 
	L 149.705, 379.205 
" />
<path d="M 154.241, 409.251 
	L 154.240, 409.252 
	L 154.240, 379.205 
" />
<path d="M 158.776, 409.251 
	L 158.776, 409.252 
	L 158.776, 379.205 
" />
<path d="M 163.312, 409.251 
	L 163.311, 409.252 
	L 163.311, 379.205 
" />
<path d="M 167.847, 409.251 
	L 167.846, 409.252 
	L 167.846, 379.205 
" />
<path d="M 172.383, 409.251 
	L 172.382, 409.252 
	L 172.382, 379.205 
" />
<path d="M 176.918, 409.251 
	L 176.917, 409.252 
	L 176.917, 379.205 
" />
<path d="M 181.453, 409.251 
	L 181.453, 409.252 
	L 181.453, 379.205 
" />
<path d="M 185.989, 409.251 
	L 185.988, 409.252 
	L 185.988, 379.205 
" />
<path d="M 190.524, 409.251 
	L 190.524, 409.252 
	L 190.524, 379.205 
" />
<path d="M 195.060, 409.251 
	L 195.059, 409.252 
	L 195.059, 379.205 
" />
<path d="M 199.595, 409.251 
	L 199.595, 409.252 
	L 199.595, 379.205 
" />
<path d="M 204.131, 409.251 
	L 204.130, 409.252 
	L 204.130, 379.205 
" />
<path d="M 208.666, 409.251 
	L 208.665, 409.252 
	L 208.665, 379.205 
" />
<path d="M 213.202, 409.251 
	L 213.201, 409.252 
	L 213.201, 379.205 
" />
<path d="M 217.737, 409.251 
	L 217.736, 409.252 
	L 217.736, 379.205 
" />
<path d="M 222.272, 409.251 
	L 222.272, 409.252 
	L 222.272, 379.205 
" />
<path d="M 226.808, 409.251 
	L 226.807, 409.252 
	L 226.807, 379.205 
" />
<path d="M 231.343, 409.251 
	L 231.343, 409.252 
	L 231.343, 379.205 
" />
<path d="M 235.879, 409.251 
	L 235.878, 409.252 
	L 235.878, 379.205 
" />
<path d="M 240.414, 409.251 
	L 240.413, 409.252 
	L 240.413, 379.205 
" />
<path d="M 244.950, 409.251 
	L 244.949, 409.252 
	L 244.949, 379.205 
" />
<path d="M 249.485, 409.251 
	L 249.484, 409.252 
	L 249.484, 379.205 
" />
<path d="M 254.020, 409.251 
	L 254.020, 409.252 
	L 254.020, 379.205 
" />
<path d="M 258.556, 409.251 
	L 258.555, 409.252 
	L 258.555, 379.205 
" />
<path d="M 263.091, 409.251 
	L 263.091, 409.252 
	L 263.091, 379.205 
" />
<path d="M 267.627, 409.251 
	L 267.626, 409.252 
	L 267.626, 379.205 
" />
<path d="M 272.162, 409.251 
	L 272.161, 409.252 
	L 272.161, 379.205 
" />
<path d="M 276.698, 409.251 
	L 276.697, 409.252 
	L 276.697, 379.205 
" />
<path d="M 281.233, 409.251 
	L 281.232, 409.252 
	L 281.232, 379.205 
" />
<path d="M 285.768, 409.251 
	L 285.768, 409.252 
	L 285.768, 379.205 
" />
<path d="M 290.304, 409.251 
	L 290.303, 409.252 
	L 290.303, 379.205 
" />
<path d="M 294.839, 409.251 
	L 294.839, 409.252 
	L 294.839, 379.205 
" />
<path d="M 299.375, 409.251 
	L 299.374, 409.252 
	L 299.374, 379.205 
" />
<path d="M 303.910, 409.251 
	L 303.909, 409.252 
	L 303.909, 379.205 
" />
<path d="M 308.446, 409.251 
	L 308.445, 409.252 
	L 308.445, 379.205 
" />
<path d="M 312.981, 409.251 
	L 312.980, 409.252 
	L 312.980, 379.205 
" />
<path d="M 317.516, 409.251 
	L 317.516, 409.252 
	L 317.516, 379.205 
" />
<path d="M 322.052, 409.251 
	L 322.051, 409.252 
	L 322.051, 379.205 
" />
<path d="M 326.587, 409.251 
	L 326.587, 409.252 
	L 326.587, 379.205 
" />
<path d="M 331.123, 409.251 
	L 331.122, 409.252 
	L 331.122, 379.205 
" />
<path d="M 335.658, 409.251 
	L 335.658, 409.252 
	L 335.658, 379.205 
" />
<path d="M 340.194, 409.251 
	L 340.193, 409.252 
	L 340.193, 379.205 
" />
<path d="M 344.729, 409.251 
	L 344.728, 409.252 
	L 344.728, 379.205 
" />
<path d="M 349.265, 409.251 
	L 349.264, 409.252 
	L 349.264, 379.205 
" />
<path d="M 353.800, 409.251 
	L 353.799, 409.252 
	L 353.799, 379.205 
" />
<path d="M 358.335, 409.251 
	L 358.335, 409.252 
	L 358.335, 379.205 
" />
<path d="M 362.871, 409.251 
	L 362.870, 409.252 
	L 362.870, 379.205 
" />
<path d="M 367.406, 409.251 
	L 367.406, 409.252 
	L 367.406, 379.205 
" />
<path d="M 371.942, 409.251 
	L 371.941, 409.252 
	L 371.941, 379.205 
" />
<path d="M 376.477, 409.251 
	L 376.476, 409.252 
	L 376.476, 379.205 
" />
<path d="M 381.013, 409.251 
	L 381.012, 409.252 
	L 381.012, 379.205 
" />
<path d="M 385.548, 409.251 
	L 385.547, 409.252 
	L 385.547, 379.205 
" />
<path d="M 390.083, 409.251 
	L 390.083, 409.252 
	L 390.083, 379.205 
" />
<path d="M 394.619, 409.251 
	L 394.618, 409.252 
	L 394.618, 379.205 
" />
<path d="M 399.154, 409.251 
	L 399.154, 409.252 
	L 399.154, 379.205 
" />
<path d="M 403.690, 409.251 
	L 403.689, 409.252 
	L 403.689, 379.205 
" />
<path d="M 408.225, 409.251 
	L 408.224, 409.252 
	L 408.224, 379.205 
" />
<path d="M 412.761, 409.251 
	L 412.760, 409.252 
	L 412.760, 379.205 
" />
<path d="M 417.296, 409.251 
	L 417.295, 409.252 
	L 417.295, 379.205 
" />
<path d="M 421.831, 409.251 
	L 421.831, 409.252 
	L 421.831, 379.205 
" />
<path d="M 426.367, 409.251 
	L 426.366, 409.252 
	L 426.366, 379.205 
" />
<path d="M 430.902, 409.251 
	L 430.902, 409.252 
	L 430.902, 379.205 
" />
<path d="M 435.438, 409.251 
	L 435.437, 409.252 
	L 435.437, 379.205 
" />
<path d="M 439.973, 409.251 
	L 439.973, 409.252 
	L 439.973, 379.205 
" />
<path d="M 444.509, 409.251 
	L 444.508, 409.252 
	L 444.508, 379.205 
" />
<path d="M 449.044, 409.251 
	L 449.043, 409.252 
	L 449.043, 379.205 
" />
<path d="M 453.580, 409.251 
	L 453.579, 409.252 
	L 453.579, 379.205 
" />
<path d="M 458.115, 409.251 
	L 458.114, 409.252 
	L 458.114, 379.205 
" />
<path d="M 462.650, 409.251 
	L 462.650, 409.252 
	L 462.650, 379.205 
" />
</g><g style="stroke:rgb(255,0,255); fill:none; stroke-width:0.100mm" >
<path d="M 0.001, 379.240 
	L 0.000, 379.240 
	L 0.000, 0.035 
	L 469.913, 0.035 
	L 469.913, 379.240 
	L 0.000, 379.240 
" />
<path d="M 0.036, 379.204 
	L 0.035, 379.205 
	L 0.035, 0.000 
" />
<path d="M 4.572, 379.204 
	L 4.571, 379.205 
	L 4.571, 0.000 
" />
<path d="M 9.107, 379.204 
	L 9.106, 379.205 
	L 9.106, 0.000 
" />
<path d="M 13.642, 379.204 
	L 13.642, 379.205 
	L 13.642, 0.000 
" />
<path d="M 18.178, 379.204 
	L 18.177, 379.205 
	L 18.177, 0.000 
" />
<path d="M 22.713, 379.204 
	L 22.713, 379.205 
	L 22.713, 0.000 
" />
<path d="M 27.249, 379.204 
	L 27.248, 379.205 
	L 27.248, 0.000 
" />
<path d="M 31.784, 379.204 
	L 31.783, 379.205 
	L 31.783, 0.000 
" />
<path d="M 36.320, 379.204 
	L 36.319, 379.205 
	L 36.319, 0.000 
" />
<path d="M 40.855, 379.204 
	L 40.854, 379.205 
	L 40.854, 0.000 
" />
<path d="M 45.390, 379.204 
	L 45.390, 379.205 
	L 45.390, 0.000 
" />
<path d="M 49.926, 379.204 
	L 49.925, 379.205 
	L 49.925, 0.000 
" />
<path d="M 54.461, 379.204 
	L 54.461, 379.205 
	L 54.461, 0.000 
" />
<path d="M 58.997, 379.204 
	L 58.996, 379.205 
	L 58.996, 0.000 
" />
<path d="M 63.532, 379.204 
	L 63.532, 379.205 
	L 63.532, 0.000 
" />
<path d="M 68.068, 379.204 
	L 68.067, 379.205 
	L 68.067, 0.000 
" />
<path d="M 72.603, 379.204 
	L 72.602, 379.205 
	L 72.602, 0.000 
" />
<path d="M 77.139, 379.204 
	L 77.138, 379.205 
	L 77.138, 0.000 
" />
<path d="M 81.674, 379.204 
	L 81.673, 379.205 
	L 81.673, 0.000 
" />
<path d="M 86.209, 379.204 
	L 86.209, 379.205 
	L 86.209, 0.000 
" />
<path d="M 90.745, 379.204 
	L 90.744, 379.205 
	L 90.744, 0.000 
" />
<path d="M 95.280, 379.204 
	L 95.280, 379.205 
	L 95.280, 0.000 
" />
<path d="M 99.816, 379.204 
	L 99.815, 379.205 
	L 99.815, 0.000 
" />
<path d="M 104.351, 379.204 
	L 104.350, 379.205 
	L 104.350, 0.000 
" />
<path d="M 108.887, 379.204 
	L 108.886, 379.205 
	L 108.886, 0.000 
" />
<path d="M 113.422, 379.204 
	L 113.421, 379.205 
	L 113.421, 0.000 
" />
<path d="M 117.957, 379.204 
	L 117.957, 379.205 
	L 117.957, 0.000 
" />
<path d="M 122.493, 379.204 
	L 122.492, 379.205 
	L 122.492, 0.000 
" />
<path d="M 127.028, 379.204 
	L 127.028, 379.205 
	L 127.028, 0.000 
" />
<path d="M 131.564, 379.204 
	L 131.563, 379.205 
	L 131.563, 0.000 
" />
<path d="M 136.099, 379.204 
	L 136.098, 379.205 
	L 136.098, 0.000 
" />
<path d="M 140.635, 379.204 
	L 140.634, 379.205 
	L 140.634, 0.000 
" />
<path d="M 145.170, 379.204 
	L 145.169, 379.205 
	L 145.169, 0.000 
" />
<path d="M 149.705, 379.204 
	L 149.705, 379.205 
	L 149.705, 0.000 
" />
<path d="M 154.241, 379.204 
	L 154.240, 379.205 
	L 154.240, 0.000 
" />
<path d="M 158.776, 379.204 
	L 158.776, 379.205 
	L 158.776, 0.000 
" />
<path d="M 163.312, 379.204 
	L 163.311, 379.205 
	L 163.311, 0.000 
" />
<path d="M 167.847, 379.204 
	L 167.846, 379.205 
	L 167.846, 0.000 
" />
<path d="M 172.383, 379.204 
	L 172.382, 379.205 
	L 172.382, 0.000 
" />
<path d="M 176.918, 379.204 
	L 176.917, 379.205 
	L 176.917, 0.000 
" />
<path d="M 181.453, 379.204 
	L 181.453, 379.205 
	L 181.453, 0.000 
" />
<path d="M 185.989, 379.204 
	L 185.988, 379.205 
	L 185.988, 0.000 
" />
<path d="M 190.524, 379.204 
	L 190.524, 379.205 
	L 190.524, 0.000 
" />
<path d="M 195.060, 379.204 
	L 195.059, 379.205 
	L 195.059, 0.000 
" />
<path d="M 199.595, 379.204 
	L 199.595, 379.205 
	L 199.595, 0.000 
" />
<path d="M 204.131, 379.204 
	L 204.130, 379.205 
	L 204.130, 0.000 
" />
<path d="M 208.666, 379.204 
	L 208.665, 379.205 
	L 208.665, 0.000 
" />
<path d="M 213.202, 379.204 
	L 213.201, 379.205 
	L 213.201, 0.000 
" />
<path d="M 217.737, 379.204 
	L 217.736, 379.205 
	L 217.736, 0.000 
" />
<path d="M 222.272, 379.204 
	L 222.272, 379.205 
	L 222.272, 0.000 
" />
<path d="M 226.808, 379.204 
	L 226.807, 379.205 
	L 226.807, 0.000 
" />
<path d="M 231.343, 379.204 
	L 231.343, 379.205 
	L 231.343, 0.000 
" />
<path d="M 235.879, 379.204 
	L 235.878, 379.205 
	L 235.878, 0.000 
" />
<path d="M 240.414, 379.204 
	L 240.413, 379.205 
	L 240.413, 0.000 
" />
<path d="M 244.950, 379.204 
	L 244.949, 379.205 
	L 244.949, 0.000 
" />
<path d="M 249.485, 379.204 
	L 249.484, 379.205 
	L 249.484, 0.000 
" />
<path d="M 254.020, 379.204 
	L 254.020, 379.205 
	L 254.020, 0.000 
" />
<path d="M 258.556, 379.204 
	L 258.555, 379.205 
	L 258.555, 0.000 
" />
<path d="M 263.091, 379.204 
	L 263.091, 379.205 
	L 263.091, 0.000 
" />
<path d="M 267.627, 379.204 
	L 267.626, 379.205 
	L 267.626, 0.000 
" />
<path d="M 272.162, 379.204 
	L 272.161, 379.205 
	L 272.161, 0.000 
" />
<path d="M 276.698, 379.204 
	L 276.697, 379.205 
	L 276.697, 0.000 
" />
<path d="M 281.233, 379.204 
	L 281.232, 379.205 
	L 281.232, 0.000 
" />
<path d="M 285.768, 379.204 
	L 285.768, 379.205 
	L 285.768, 0.000 
" />
<path d="M 290.304, 379.204 
	L 290.303, 379.205 
	L 290.303, 0.000 
" />
<path d="M 294.839, 379.204 
	L 294.839, 379.205 
	L 294.839, 0.000 
" />
<path d="M 299.375, 379.204 
	L 299.374, 379.205 
	L 299.374, 0.000 
" />
<path d="M 303.910, 379.204 
	L 303.909, 379.205 
	L 303.909, 0.000 
" />
<path d="M 308.446, 379.204 
	L 308.445, 379.205 
	L 308.445, 0.000 
" />
<path d="M 312.981, 379.204 
	L 312.980, 379.205 
	L 312.980, 0.000 
" />
<path d="M 317.516, 379.204 
	L 317.516, 379.205 
	L 317.516, 0.000 
" />
<path d="M 322.052, 379.204 
	L 322.051, 379.205 
	L 322.051, 0.000 
" />
<path d="M 326.587, 379.204 
	L 326.587, 379.205 
	L 326.587, 0.000 
" />
<path d="M 331.123, 379.204 
	L 331.122, 379.205 
	L 331.122, 0.000 
" />
<path d="M 335.658, 379.204 
	L 335.658, 379.205 
	L 335.658, 0.000 
" />
<path d="M 340.194, 379.204 
	L 340.193, 379.205 
	L 340.193, 0.000 
" />
<path d="M 344.729, 379.204 
	L 344.728, 379.205 
	L 344.728, 0.000 
" />
<path d="M 349.265, 379.204 
	L 349.264, 379.205 
	L 349.264, 0.000 
" />
<path d="M 353.800, 379.204 
	L 353.799, 379.205 
	L 353.799, 0.000 
" />
<path d="M 358.335, 379.204 
	L 358.335, 379.205 
	L 358.335, 0.000 
" />
<path d="M 362.871, 379.204 
	L 362.870, 379.205 
	L 362.870, 0.000 
" />
<path d="M 367.406, 379.204 
	L 367.406, 379.205 
	L 367.406, 0.000 
" />
<path d="M 371.942, 379.204 
	L 371.941, 379.205 
	L 371.941, 0.000 
" />
<path d="M 376.477, 379.204 
	L 376.476, 379.205 
	L 376.476, 0.000 
" />
<path d="M 381.013, 379.204 
	L 381.012, 379.205 
	L 381.012, 0.000 
" />
<path d="M 385.548, 379.204 
	L 385.547, 379.205 
	L 385.547, 0.000 
" />
<path d="M 390.083, 379.204 
	L 390.083, 379.205 
	L 390.083, 0.000 
" />
<path d="M 394.619, 379.204 
	L 394.618, 379.205 
	L 394.618, 0.000 
" />
<path d="M 399.154, 379.204 
	L 399.154, 379.205 
	L 399.154, 0.000 
" />
<path d="M 403.690, 379.204 
	L 403.689, 379.205 
	L 403.689, 0.000 
" />
<path d="M 408.225, 379.204 
	L 408.224, 379.205 
	L 408.224, 0.000 
" />
<path d="M 412.761, 379.204 
	L 412.760, 379.205 
	L 412.760, 0.000 
" />
<path d="M 417.296, 379.204 
	L 417.295, 379.205 
	L 417.295, 0.000 
" />
<path d="M 421.831, 379.204 
	L 421.831, 379.205 
	L 421.831, 0.000 
" />
<path d="M 426.367, 379.204 
	L 426.366, 379.205 
	L 426.366, 0.000 
" />
<path d="M 430.902, 379.204 
	L 430.902, 379.205 
	L 430.902, 0.000 
" />
<path d="M 435.438, 379.204 
	L 435.437, 379.205 
	L 435.437, 0.000 
" />
<path d="M 439.973, 379.204 
	L 439.973, 379.205 
	L 439.973, 0.000 
" />
<path d="M 444.509, 379.204 
	L 444.508, 379.205 
	L 444.508, 0.000 
" />
<path d="M 449.044, 379.204 
	L 449.043, 379.205 
	L 449.043, 0.000 
" />
<path d="M 453.580, 379.204 
	L 453.579, 379.205 
	L 453.579, 0.000 
" />
<path d="M 458.115, 379.204 
	L 458.114, 379.205 
	L 458.114, 0.000 
" />
<path d="M 462.650, 379.204 
	L 462.650, 379.205 
	L 462.650, 0.000 
" />
</g><g style="stroke:rgb(255,255,0); fill:none; stroke-width:0.100mm" >
<path d="M 469.914, 379.240 
	L 469.913, 379.240 
	L 469.913, 0.035 
	L 652.677, 0.035 
	L 652.677, 379.240 
	L 469.913, 379.240 
" />
<path d="M 469.950, 379.204 
	L 469.949, 379.205 
	L 469.949, 0.000 
" />
<path d="M 474.485, 379.204 
	L 474.484, 379.205 
	L 474.484, 0.000 
" />
<path d="M 479.020, 379.204 
	L 479.020, 379.205 
	L 479.020, 0.000 
" />
<path d="M 483.556, 379.204 
	L 483.555, 379.205 
	L 483.555, 0.000 
" />
<path d="M 488.091, 379.204 
	L 488.091, 379.205 
	L 488.091, 0.000 
" />
<path d="M 492.627, 379.204 
	L 492.626, 379.205 
	L 492.626, 0.000 
" />
<path d="M 497.162, 379.204 
	L 497.161, 379.205 
	L 497.161, 0.000 
" />
<path d="M 501.698, 379.204 
	L 501.697, 379.205 
	L 501.697, 0.000 
" />
<path d="M 506.233, 379.204 
	L 506.232, 379.205 
	L 506.232, 0.000 
" />
<path d="M 510.768, 379.204 
	L 510.768, 379.205 
	L 510.768, 0.000 
" />
<path d="M 515.304, 379.204 
	L 515.303, 379.205 
	L 515.303, 0.000 
" />
<path d="M 519.839, 379.204 
	L 519.839, 379.205 
	L 519.839, 0.000 
" />
<path d="M 524.375, 379.204 
	L 524.374, 379.205 
	L 524.374, 0.000 
" />
<path d="M 528.910, 379.204 
	L 528.910, 379.205 
	L 528.910, 0.000 
" />
<path d="M 533.446, 379.204 
	L 533.445, 379.205 
	L 533.445, 0.000 
" />
<path d="M 537.981, 379.204 
	L 537.980, 379.205 
	L 537.980, 0.000 
" />
<path d="M 542.517, 379.204 
	L 542.516, 379.205 
	L 542.516, 0.000 
" />
<path d="M 547.052, 379.204 
	L 547.051, 379.205 
	L 547.051, 0.000 
" />
<path d="M 551.587, 379.204 
	L 551.587, 379.205 
	L 551.587, 0.000 
" />
<path d="M 556.123, 379.204 
	L 556.122, 379.205 
	L 556.122, 0.000 
" />
<path d="M 560.658, 379.204 
	L 560.658, 379.205 
	L 560.658, 0.000 
" />
<path d="M 565.194, 379.204 
	L 565.193, 379.205 
	L 565.193, 0.000 
" />
<path d="M 569.729, 379.204 
	L 569.728, 379.205 
	L 569.728, 0.000 
" />
<path d="M 574.265, 379.204 
	L 574.264, 379.205 
	L 574.264, 0.000 
" />
<path d="M 578.800, 379.204 
	L 578.799, 379.205 
	L 578.799, 0.000 
" />
<path d="M 583.335, 379.204 
	L 583.335, 379.205 
	L 583.335, 0.000 
" />
<path d="M 587.871, 379.204 
	L 587.870, 379.205 
	L 587.870, 0.000 
" />
<path d="M 592.406, 379.204 
	L 592.406, 379.205 
	L 592.406, 0.000 
" />
<path d="M 596.942, 379.204 
	L 596.941, 379.205 
	L 596.941, 0.000 
" />
<path d="M 601.477, 379.204 
	L 601.476, 379.205 
	L 601.476, 0.000 
" />
<path d="M 606.013, 379.204 
	L 606.012, 379.205 
	L 606.012, 0.000 
" />
<path d="M 610.548, 379.204 
	L 610.547, 379.205 
	L 610.547, 0.000 
" />
<path d="M 615.083, 379.204 
	L 615.083, 379.205 
	L 615.083, 0.000 
" />
<path d="M 619.619, 379.204 
	L 619.618, 379.205 
	L 619.618, 0.000 
" />
<path d="M 624.154, 379.204 
	L 624.154, 379.205 
	L 624.154, 0.000 
" />
<path d="M 628.690, 379.204 
	L 628.689, 379.205 
	L 628.689, 0.000 
" />
<path d="M 633.225, 379.204 
	L 633.225, 379.205 
	L 633.225, 0.000 
" />
<path d="M 637.761, 379.204 
	L 637.760, 379.205 
	L 637.760, 0.000 
" />
<path d="M 642.296, 379.204 
	L 642.295, 379.205 
	L 642.295, 0.000 
" />
<path d="M 646.832, 379.204 
	L 646.831, 379.205 
	L 646.831, 0.000 
" />
</g><g style="stroke:rgb(0,0,0); fill:none; stroke-width:0.100mm" >
<path d="M 469.914, 409.251 
	L 469.913, 409.252 
	L 469.913, 379.205 
	L 652.677, 379.205 
	L 652.677, 409.252 
	L 469.913, 409.252 
" />
<path d="M 469.950, 409.251 
	L 469.949, 409.252 
	L 469.949, 379.205 
" />
<path d="M 474.485, 409.251 
	L 474.484, 409.252 
	L 474.484, 379.205 
" />
<path d="M 479.020, 409.251 
	L 479.020, 409.252 
	L 479.020, 379.205 
" />
<path d="M 483.556, 409.251 
	L 483.555, 409.252 
	L 483.555, 379.205 
" />
<path d="M 488.091, 409.251 
	L 488.091, 409.252 
	L 488.091, 379.205 
" />
<path d="M 492.627, 409.251 
	L 492.626, 409.252 
	L 492.626, 379.205 
" />
<path d="M 497.162, 409.251 
	L 497.161, 409.252 
	L 497.161, 379.205 
" />
<path d="M 501.698, 409.251 
	L 501.697, 409.252 
	L 501.697, 379.205 
" />
<path d="M 506.233, 409.251 
	L 506.232, 409.252 
	L 506.232, 379.205 
" />
<path d="M 510.768, 409.251 
	L 510.768, 409.252 
	L 510.768, 379.205 
" />
<path d="M 515.304, 409.251 
	L 515.303, 409.252 
	L 515.303, 379.205 
" />
<path d="M 519.839, 409.251 
	L 519.839, 409.252 
	L 519.839, 379.205 
" />
<path d="M 524.375, 409.251 
	L 524.374, 409.252 
	L 524.374, 379.205 
" />
<path d="M 528.910, 409.251 
	L 528.910, 409.252 
	L 528.910, 379.205 
" />
<path d="M 533.446, 409.251 
	L 533.445, 409.252 
	L 533.445, 379.205 
" />
<path d="M 537.981, 409.251 
	L 537.980, 409.252 
	L 537.980, 379.205 
" />
<path d="M 542.517, 409.251 
	L 542.516, 409.252 
	L 542.516, 379.205 
" />
<path d="M 547.052, 409.251 
	L 547.051, 409.252 
	L 547.051, 379.205 
" />
<path d="M 551.587, 409.251 
	L 551.587, 409.252 
	L 551.587, 379.205 
" />
<path d="M 556.123, 409.251 
	L 556.122, 409.252 
	L 556.122, 379.205 
" />
<path d="M 560.658, 409.251 
	L 560.658, 409.252 
	L 560.658, 379.205 
" />
<path d="M 565.194, 409.251 
	L 565.193, 409.252 
	L 565.193, 379.205 
" />
<path d="M 569.729, 409.251 
	L 569.728, 409.252 
	L 569.728, 379.205 
" />
<path d="M 574.265, 409.251 
	L 574.264, 409.252 
	L 574.264, 379.205 
" />
<path d="M 578.800, 409.251 
	L 578.799, 409.252 
	L 578.799, 379.205 
" />
<path d="M 583.335, 409.251 
	L 583.335, 409.252 
	L 583.335, 379.205 
" />
<path d="M 587.871, 409.251 
	L 587.870, 409.252 
	L 587.870, 379.205 
" />
<path d="M 592.406, 409.251 
	L 592.406, 409.252 
	L 592.406, 379.205 
" />
<path d="M 596.942, 409.251 
	L 596.941, 409.252 
	L 596.941, 379.205 
" />
<path d="M 601.477, 409.251 
	L 601.476, 409.252 
	L 601.476, 379.205 
" />
<path d="M 606.013, 409.251 
	L 606.012, 409.252 
	L 606.012, 379.205 
" />
<path d="M 610.548, 409.251 
	L 610.547, 409.252 
	L 610.547, 379.205 
" />
<path d="M 615.083, 409.251 
	L 615.083, 409.252 
	L 615.083, 379.205 
" />
<path d="M 619.619, 409.251 
	L 619.618, 409.252 
	L 619.618, 379.205 
" />
<path d="M 624.154, 409.251 
	L 624.154, 409.252 
	L 624.154, 379.205 
" />
<path d="M 628.690, 409.251 
	L 628.689, 409.252 
	L 628.689, 379.205 
" />
<path d="M 633.225, 409.251 
	L 633.225, 409.252 
	L 633.225, 379.205 
" />
<path d="M 637.761, 409.251 
	L 637.760, 409.252 
	L 637.760, 379.205 
" />
<path d="M 642.296, 409.251 
	L 642.295, 409.252 
	L 642.295, 379.205 
" />
<path d="M 646.832, 409.251 
	L 646.831, 409.252 
	L 646.831, 379.205 
" />
</g><g style="stroke:rgb(0,0,0); fill:none; stroke-width:0.100mm" >
<path d="M 652.678, 409.287 
	L 652.677, 409.287 
	L 652.677, 380.587 
	L 699.095, 380.587 
	L 699.095, 409.287 
	L 652.677, 409.287 
" />
<path d="M 652.713, 409.251 
	L 652.713, 409.252 
	L 652.713, 380.551 
" />
<path d="M 657.249, 409.251 
	L 657.248, 409.252 
	L 657.248, 380.551 
" />
<path d="M 661.784, 409.251 
	L 661.784, 409.252 
	L 661.784, 380.551 
" />
<path d="M 666.320, 409.251 
	L 666.319, 409.252 
	L 666.319, 380.551 
" />
<path d="M 670.855, 409.251 
	L 670.854, 409.252 
	L 670.854, 380.551 
" />
<path d="M 675.391, 409.251 
	L 675.390, 409.252 
	L 675.390, 380.551 
" />
<path d="M 679.926, 409.251 
	L 679.925, 409.252 
	L 679.925, 380.551 
" />
<path d="M 684.461, 409.251 
	L 684.461, 409.252 
	L 684.461, 380.551 
" />
<path d="M 688.997, 409.251 
	L 688.996, 409.252 
	L 688.996, 380.551 
" />
<path d="M 693.532, 409.251 
	L 693.532, 409.252 
	L 693.532, 380.551 
" />
</g><g style="stroke:rgb(255,0,0); fill:none; stroke-width:0.100mm" >
<path d="M 652.678, 380.551 
	L 652.677, 380.551 
	L 652.677, 0.000 
	L 699.095, 0.000 
	L 699.095, 380.551 
	L 652.677, 380.551 
" />
<path d="M 652.713, 380.551 
	L 652.713, 380.551 
	L 652.713, 0.000 
" />
<path d="M 657.249, 380.551 
	L 657.248, 380.551 
	L 657.248, 0.000 
" />
<path d="M 661.784, 380.551 
	L 661.784, 380.551 
	L 661.784, 0.000 
" />
<path d="M 666.320, 380.551 
	L 666.319, 380.551 
	L 666.319, 0.000 
" />
<path d="M 670.855, 380.551 
	L 670.854, 380.551 
	L 670.854, 0.000 
" />
<path d="M 675.391, 380.551 
	L 675.390, 380.551 
	L 675.390, 0.000 
" />
<path d="M 679.926, 380.551 
	L 679.925, 380.551 
	L 679.925, 0.000 
" />
<path d="M 684.461, 380.551 
	L 684.461, 380.551 
	L 684.461, 0.000 
" />
<path d="M 688.997, 380.551 
	L 688.996, 380.551 
	L 688.996, 0.000 
" />
<path d="M 693.532, 380.551 
	L 693.532, 380.551 
	L 693.532, 0.000 
" />
</g><g style="stroke:rgb(0,255,0); fill:none; stroke-width:0.100mm" >
<path d="M 699.095, 380.551 
	L 699.095, 380.551 
	L 699.095, 0.000 
	L 708.662, 0.000 
	L 708.662, 380.551 
	L 699.095, 380.551 
" />
<path d="M 699.131, 380.551 
	L 699.130, 380.551 
	L 699.130, 0.000 
" />
<path d="M 703.666, 380.551 
	L 703.665, 380.551 
	L 703.665, 0.000 
" />
</g><g style="stroke:rgb(0,0,255); fill:none; stroke-width:0.100mm" >
<path d="M 699.095, 409.287 
	L 699.095, 409.287 
	L 699.095, 380.587 
	L 708.662, 380.587 
	L 708.662, 409.287 
	L 699.095, 409.287 
" />
<path d="M 699.131, 409.251 
	L 699.130, 409.252 
	L 699.130, 380.551 
" />
<path d="M 703.666, 409.251 
	L 703.665, 409.252 
	L 703.665, 380.551 
" />
</g><g style="stroke:rgb(0,255,255); fill:none; stroke-width:0.100mm" >
<path d="M 652.678, 708.661 
	L 652.677, 708.662 
	L 652.677, 643.039 
	L 688.606, 643.039 
	L 688.606, 708.662 
	L 652.677, 708.662 
" />
<path d="M 652.713, 708.661 
	L 652.713, 708.662 
	L 652.713, 643.039 
" />
<path d="M 657.249, 708.661 
	L 657.248, 708.662 
	L 657.248, 643.039 
" />
<path d="M 661.784, 708.661 
	L 661.784, 708.662 
	L 661.784, 643.039 
" />
<path d="M 666.320, 708.661 
	L 666.319, 708.662 
	L 666.319, 643.039 
" />
<path d="M 670.855, 708.661 
	L 670.854, 708.662 
	L 670.854, 643.039 
" />
<path d="M 675.391, 708.661 
	L 675.390, 708.662 
	L 675.390, 643.039 
" />
<path d="M 679.926, 708.661 
	L 679.925, 708.662 
	L 679.925, 643.039 
" />
</g><g style="stroke:rgb(255,0,255); fill:none; stroke-width:0.100mm" >
<path d="M 652.678, 643.074 
	L 652.677, 643.075 
	L 652.677, 409.287 
	L 688.606, 409.287 
	L 688.606, 643.075 
	L 652.677, 643.075 
" />
<path d="M 652.713, 643.039 
	L 652.713, 643.039 
	L 652.713, 409.252 
" />
<path d="M 657.249, 643.039 
	L 657.248, 643.039 
	L 657.248, 409.252 
" />
<path d="M 661.784, 643.039 
	L 661.784, 643.039 
	L 661.784, 409.252 
" />
<path d="M 666.320, 643.039 
	L 666.319, 643.039 
	L 666.319, 409.252 
" />
<path d="M 670.855, 643.039 
	L 670.854, 643.039 
	L 670.854, 409.252 
" />
<path d="M 675.391, 643.039 
	L 675.390, 643.039 
	L 675.390, 409.252 
" />
<path d="M 679.926, 643.039 
	L 679.925, 643.039 
	L 679.925, 409.252 
" />
</g><g style="stroke:rgb(255,255,0); fill:none; stroke-width:0.100mm" >
<path d="M 688.607, 643.074 
	L 688.606, 643.075 
	L 688.606, 409.287 
	L 708.662, 409.287 
	L 708.662, 643.075 
	L 688.606, 643.075 
" />
<path d="M 688.643, 643.039 
	L 688.642, 643.039 
	L 688.642, 409.252 
" />
<path d="M 693.178, 643.039 
	L 693.177, 643.039 
	L 693.177, 409.252 
" />
<path d="M 697.713, 643.039 
	L 697.713, 643.039 
	L 697.713, 409.252 
" />
<path d="M 702.249, 643.039 
	L 702.248, 643.039 
	L 702.248, 409.252 
" />
</g>
</svg>
