<?xml version="1.0" encoding="UTF-8" standalone="no" ?>
<svg width="100%" height="100%" viewBox="0 0 708.697 708.697" xmlns="http://www.w3.org/2000/svg"><g>
</g><g style="stroke:rgb(0,0,0); fill:none; stroke-width:1.000mm" >
</g><g style="stroke:rgb(0,255,0); fill:none; stroke-width:0.100mm" >
<path d="M 0.036, 708.696 
	L 0.035, 708.697 
	L 0.035, 0.035 
	L 708.697, 0.035 
	L 708.697, 708.697 
	L 0.035, 708.697 
" />
</g><g style="stroke:rgb(0,0,0); fill:none; stroke-width:0.100mm" >
<path d="M 0.036, 708.696 
	L 0.035, 708.697 
	L 0.035, 0.035 
	L 708.697, 0.035 
	L 708.697, 708.697 
	L 0.035, 708.697 
" />
<path d="M 0.036, 708.696 
	L 0.035, 708.697 
	L 0.035, 0.035 
" />
<path d="M 4.642, 708.696 
	L 4.642, 708.697 
	L 4.642, 0.035 
" />
<path d="M 9.249, 708.696 
	L 9.248, 708.697 
	L 9.248, 0.035 
" />
<path d="M 13.855, 708.696 
	L 13.854, 708.697 
	L 13.854, 0.035 
" />
<path d="M 18.461, 708.696 
	L 18.461, 708.697 
	L 18.461, 0.035 
" />
<path d="M 23.068, 708.696 
	L 23.067, 708.697 
	L 23.067, 0.035 
" />
<path d="M 27.674, 708.696 
	L 27.673, 708.697 
	L 27.673, 0.035 
" />
<path d="M 32.280, 708.696 
	L 32.280, 708.697 
	L 32.280, 0.035 
" />
<path d="M 36.887, 708.696 
	L 36.886, 708.697 
	L 36.886, 0.035 
" />
<path d="M 41.493, 708.696 
	L 41.492, 708.697 
	L 41.492, 0.035 
" />
<path d="M 46.099, 708.696 
	L 46.098, 708.697 
	L 46.098, 0.035 
" />
<path d="M 50.705, 708.696 
	L 50.705, 708.697 
	L 50.705, 0.035 
" />
<path d="M 55.312, 708.696 
	L 55.311, 708.697 
	L 55.311, 0.035 
" />
<path d="M 59.918, 708.696 
	L 59.917, 708.697 
	L 59.917, 0.035 
" />
<path d="M 64.524, 708.696 
	L 64.524, 708.697 
	L 64.524, 0.035 
" />
<path d="M 69.131, 708.696 
	L 69.130, 708.697 
	L 69.130, 0.035 
" />
<path d="M 73.737, 708.696 
	L 73.736, 708.697 
	L 73.736, 0.035 
" />
<path d="M 78.343, 708.696 
	L 78.343, 708.697 
	L 78.343, 0.035 
" />
<path d="M 82.950, 708.696 
	L 82.949, 708.697 
	L 82.949, 0.035 
" />
<path d="M 87.556, 708.696 
	L 87.555, 708.697 
	L 87.555, 0.035 
" />
<path d="M 92.162, 708.696 
	L 92.161, 708.697 
	L 92.161, 0.035 
" />
<path d="M 96.768, 708.696 
	L 96.768, 708.697 
	L 96.768, 0.035 
" />
<path d="M 101.375, 708.696 
	L 101.374, 708.697 
	L 101.374, 0.035 
" />
<path d="M 105.981, 708.696 
	L 105.980, 708.697 
	L 105.980, 0.035 
" />
<path d="M 110.587, 708.696 
	L 110.587, 708.697 
	L 110.587, 0.035 
" />
<path d="M 115.194, 708.696 
	L 115.193, 708.697 
	L 115.193, 0.035 
" />
<path d="M 119.800, 708.696 
	L 119.799, 708.697 
	L 119.799, 0.035 
" />
<path d="M 124.406, 708.696 
	L 124.406, 708.697 
	L 124.406, 0.035 
" />
<path d="M 129.013, 708.696 
	L 129.012, 708.697 
	L 129.012, 0.035 
" />
<path d="M 133.619, 708.696 
	L 133.618, 708.697 
	L 133.618, 0.035 
" />
<path d="M 138.225, 708.696 
	L 138.224, 708.697 
	L 138.224, 0.035 
" />
<path d="M 142.831, 708.696 
	L 142.831, 708.697 
	L 142.831, 0.035 
" />
<path d="M 147.438, 708.696 
	L 147.437, 708.697 
	L 147.437, 0.035 
" />
<path d="M 152.044, 708.696 
	L 152.043, 708.697 
	L 152.043, 0.035 
" />
<path d="M 156.650, 708.696 
	L 156.650, 708.697 
	L 156.650, 0.035 
" />
<path d="M 161.257, 708.696 
	L 161.256, 708.697 
	L 161.256, 0.035 
" />
<path d="M 165.863, 708.696 
	L 165.862, 708.697 
	L 165.862, 0.035 
" />
<path d="M 170.469, 708.696 
	L 170.469, 708.697 
	L 170.469, 0.035 
" />
<path d="M 175.076, 708.696 
	L 175.075, 708.697 
	L 175.075, 0.035 
" />
<path d="M 179.682, 708.696 
	L 179.681, 708.697 
	L 179.681, 0.035 
" />
<path d="M 184.288, 708.696 
	L 184.287, 708.697 
	L 184.287, 0.035 
" />
<path d="M 188.894, 708.696 
	L 188.894, 708.697 
	L 188.894, 0.035 
" />
<path d="M 193.501, 708.696 
	L 193.500, 708.697 
	L 193.500, 0.035 
" />
<path d="M 198.107, 708.696 
	L 198.106, 708.697 
	L 198.106, 0.035 
" />
<path d="M 202.713, 708.696 
	L 202.713, 708.697 
	L 202.713, 0.035 
" />
<path d="M 207.320, 708.696 
	L 207.319, 708.697 
	L 207.319, 0.035 
" />
<path d="M 211.926, 708.696 
	L 211.925, 708.697 
	L 211.925, 0.035 
" />
<path d="M 216.532, 708.696 
	L 216.532, 708.697 
	L 216.532, 0.035 
" />
<path d="M 221.139, 708.696 
	L 221.138, 708.697 
	L 221.138, 0.035 
" />
<path d="M 225.745, 708.696 
	L 225.744, 708.697 
	L 225.744, 0.035 
" />
<path d="M 230.351, 708.696 
	L 230.350, 708.697 
	L 230.350, 0.035 
" />
<path d="M 234.957, 708.696 
	L 234.957, 708.697 
	L 234.957, 0.035 
" />
<path d="M 239.564, 708.696 
	L 239.563, 708.697 
	L 239.563, 0.035 
" />
<path d="M 244.170, 708.696 
	L 244.169, 708.697 
	L 244.169, 0.035 
" />
<path d="M 248.776, 708.696 
	L 248.776, 708.697 
	L 248.776, 0.035 
" />
<path d="M 253.383, 708.696 
	L 253.382, 708.697 
	L 253.382, 0.035 
" />
<path d="M 257.989, 708.696 
	L 257.988, 708.697 
	L 257.988, 0.035 
" />
<path d="M 262.595, 708.696 
	L 262.595, 708.697 
	L 262.595, 0.035 
" />
<path d="M 267.202, 708.696 
	L 267.201, 708.697 
	L 267.201, 0.035 
" />
<path d="M 271.808, 708.696 
	L 271.807, 708.697 
	L 271.807, 0.035 
" />
<path d="M 276.414, 708.696 
	L 276.413, 708.697 
	L 276.413, 0.035 
" />
<path d="M 281.020, 708.696 
	L 281.020, 708.697 
	L 281.020, 0.035 
" />
<path d="M 285.627, 708.696 
	L 285.626, 708.697 
	L 285.626, 0.035 
" />
<path d="M 290.233, 708.696 
	L 290.232, 708.697 
	L 290.232, 0.035 
" />
<path d="M 294.839, 708.696 
	L 294.839, 708.697 
	L 294.839, 0.035 
" />
<path d="M 299.446, 708.696 
	L 299.445, 708.697 
	L 299.445, 0.035 
" />
<path d="M 304.052, 708.696 
	L 304.051, 708.697 
	L 304.051, 0.035 
" />
<path d="M 308.658, 708.696 
	L 308.658, 708.697 
	L 308.658, 0.035 
" />
<path d="M 313.265, 708.696 
	L 313.264, 708.697 
	L 313.264, 0.035 
" />
<path d="M 317.871, 708.696 
	L 317.870, 708.697 
	L 317.870, 0.035 
" />
<path d="M 322.477, 708.696 
	L 322.476, 708.697 
	L 322.476, 0.035 
" />
<path d="M 327.083, 708.696 
	L 327.083, 708.697 
	L 327.083, 0.035 
" />
<path d="M 331.690, 708.696 
	L 331.689, 708.697 
	L 331.689, 0.035 
" />
<path d="M 336.296, 708.696 
	L 336.295, 708.697 
	L 336.295, 0.035 
" />
<path d="M 340.902, 708.696 
	L 340.902, 708.697 
	L 340.902, 0.035 
" />
<path d="M 345.509, 708.696 
	L 345.508, 708.697 
	L 345.508, 0.035 
" />
<path d="M 350.115, 708.696 
	L 350.114, 708.697 
	L 350.114, 0.035 
" />
<path d="M 354.721, 708.696 
	L 354.721, 708.697 
	L 354.721, 0.035 
" />
<path d="M 359.328, 708.696 
	L 359.327, 708.697 
	L 359.327, 0.035 
" />
<path d="M 363.934, 708.696 
	L 363.933, 708.697 
	L 363.933, 0.035 
" />
<path d="M 368.540, 708.696 
	L 368.539, 708.697 
	L 368.539, 0.035 
" />
<path d="M 373.146, 708.696 
	L 373.146, 708.697 
	L 373.146, 0.035 
" />
<path d="M 377.753, 708.696 
	L 377.752, 708.697 
	L 377.752, 0.035 
" />
<path d="M 382.359, 708.696 
	L 382.358, 708.697 
	L 382.358, 0.035 
" />
<path d="M 386.965, 708.696 
	L 386.965, 708.697 
	L 386.965, 0.035 
" />
<path d="M 391.572, 708.696 
	L 391.571, 708.697 
	L 391.571, 0.035 
" />
<path d="M 396.178, 708.696 
	L 396.177, 708.697 
	L 396.177, 0.035 
" />
<path d="M 400.784, 708.696 
	L 400.784, 708.697 
	L 400.784, 0.035 
" />
<path d="M 405.391, 708.696 
	L 405.390, 708.697 
	L 405.390, 0.035 
" />
<path d="M 409.997, 708.696 
	L 409.996, 708.697 
	L 409.996, 0.035 
" />
<path d="M 414.603, 708.696 
	L 414.602, 708.697 
	L 414.602, 0.035 
" />
<path d="M 419.209, 708.696 
	L 419.209, 708.697 
	L 419.209, 0.035 
" />
<path d="M 423.816, 708.696 
	L 423.815, 708.697 
	L 423.815, 0.035 
" />
<path d="M 428.422, 708.696 
	L 428.421, 708.697 
	L 428.421, 0.035 
" />
<path d="M 433.028, 708.696 
	L 433.028, 708.697 
	L 433.028, 0.035 
" />
<path d="M 437.635, 708.696 
	L 437.634, 708.697 
	L 437.634, 0.035 
" />
<path d="M 442.241, 708.696 
	L 442.240, 708.697 
	L 442.240, 0.035 
" />
<path d="M 446.847, 708.696 
	L 446.847, 708.697 
	L 446.847, 0.035 
" />
<path d="M 451.454, 708.696 
	L 451.453, 708.697 
	L 451.453, 0.035 
" />
<path d="M 456.060, 708.696 
	L 456.059, 708.697 
	L 456.059, 0.035 
" />
<path d="M 460.666, 708.696 
	L 460.665, 708.697 
	L 460.665, 0.035 
" />
<path d="M 465.272, 708.696 
	L 465.272, 708.697 
	L 465.272, 0.035 
" />
<path d="M 469.879, 708.696 
	L 469.878, 708.697 
	L 469.878, 0.035 
" />
<path d="M 474.485, 708.696 
	L 474.484, 708.697 
	L 474.484, 0.035 
" />
<path d="M 479.091, 708.696 
	L 479.091, 708.697 
	L 479.091, 0.035 
" />
<path d="M 483.698, 708.696 
	L 483.697, 708.697 
	L 483.697, 0.035 
" />
<path d="M 488.304, 708.696 
	L 488.303, 708.697 
	L 488.303, 0.035 
" />
<path d="M 492.910, 708.696 
	L 492.910, 708.697 
	L 492.910, 0.035 
" />
<path d="M 497.517, 708.696 
	L 497.516, 708.697 
	L 497.516, 0.035 
" />
<path d="M 502.123, 708.696 
	L 502.122, 708.697 
	L 502.122, 0.035 
" />
<path d="M 506.729, 708.696 
	L 506.728, 708.697 
	L 506.728, 0.035 
" />
<path d="M 511.335, 708.696 
	L 511.335, 708.697 
	L 511.335, 0.035 
" />
<path d="M 515.942, 708.696 
	L 515.941, 708.697 
	L 515.941, 0.035 
" />
<path d="M 520.548, 708.696 
	L 520.547, 708.697 
	L 520.547, 0.035 
" />
<path d="M 525.154, 708.696 
	L 525.154, 708.697 
	L 525.154, 0.035 
" />
<path d="M 529.761, 708.696 
	L 529.760, 708.697 
	L 529.760, 0.035 
" />
<path d="M 534.367, 708.696 
	L 534.366, 708.697 
	L 534.366, 0.035 
" />
<path d="M 538.973, 708.696 
	L 538.973, 708.697 
	L 538.973, 0.035 
" />
<path d="M 543.580, 708.696 
	L 543.579, 708.697 
	L 543.579, 0.035 
" />
<path d="M 548.186, 708.696 
	L 548.185, 708.697 
	L 548.185, 0.035 
" />
<path d="M 552.792, 708.696 
	L 552.791, 708.697 
	L 552.791, 0.035 
" />
<path d="M 557.398, 708.696 
	L 557.398, 708.697 
	L 557.398, 0.035 
" />
<path d="M 562.005, 708.696 
	L 562.004, 708.697 
	L 562.004, 0.035 
" />
<path d="M 566.611, 708.696 
	L 566.610, 708.697 
	L 566.610, 0.035 
" />
<path d="M 571.217, 708.696 
	L 571.217, 708.697 
	L 571.217, 0.035 
" />
<path d="M 575.824, 708.696 
	L 575.823, 708.697 
	L 575.823, 0.035 
" />
<path d="M 580.430, 708.696 
	L 580.429, 708.697 
	L 580.429, 0.035 
" />
<path d="M 585.036, 708.696 
	L 585.036, 708.697 
	L 585.036, 0.035 
" />
<path d="M 589.643, 708.696 
	L 589.642, 708.697 
	L 589.642, 0.035 
" />
<path d="M 594.249, 708.696 
	L 594.248, 708.697 
	L 594.248, 0.035 
" />
<path d="M 598.855, 708.696 
	L 598.854, 708.697 
	L 598.854, 0.035 
" />
<path d="M 603.461, 708.696 
	L 603.461, 708.697 
	L 603.461, 0.035 
" />
<path d="M 608.068, 708.696 
	L 608.067, 708.697 
	L 608.067, 0.035 
" />
<path d="M 612.674, 708.696 
	L 612.673, 708.697 
	L 612.673, 0.035 
" />
<path d="M 617.280, 708.696 
	L 617.280, 708.697 
	L 617.280, 0.035 
" />
<path d="M 621.887, 708.696 
	L 621.886, 708.697 
	L 621.886, 0.035 
" />
<path d="M 626.493, 708.696 
	L 626.492, 708.697 
	L 626.492, 0.035 
" />
<path d="M 631.099, 708.696 
	L 631.099, 708.697 
	L 631.099, 0.035 
" />
<path d="M 635.706, 708.696 
	L 635.705, 708.697 
	L 635.705, 0.035 
" />
<path d="M 640.312, 708.696 
	L 640.311, 708.697 
	L 640.311, 0.035 
" />
<path d="M 644.918, 708.696 
	L 644.917, 708.697 
	L 644.917, 0.035 
" />
<path d="M 649.524, 708.696 
	L 649.524, 708.697 
	L 649.524, 0.035 
" />
<path d="M 654.131, 708.696 
	L 654.130, 708.697 
	L 654.130, 0.035 
" />
<path d="M 658.737, 708.696 
	L 658.736, 708.697 
	L 658.736, 0.035 
" />
<path d="M 663.343, 708.696 
	L 663.343, 708.697 
	L 663.343, 0.035 
" />
<path d="M 667.950, 708.696 
	L 667.949, 708.697 
	L 667.949, 0.035 
" />
<path d="M 672.556, 708.696 
	L 672.555, 708.697 
	L 672.555, 0.035 
" />
<path d="M 677.162, 708.696 
	L 677.162, 708.697 
	L 677.162, 0.035 
" />
<path d="M 681.769, 708.696 
	L 681.768, 708.697 
	L 681.768, 0.035 
" />
<path d="M 686.375, 708.696 
	L 686.374, 708.697 
	L 686.374, 0.035 
" />
<path d="M 690.981, 708.696 
	L 690.980, 708.697 
	L 690.980, 0.035 
" />
<path d="M 695.587, 708.696 
	L 695.587, 708.697 
	L 695.587, 0.035 
" />
<path d="M 700.194, 708.696 
	L 700.193, 708.697 
	L 700.193, 0.035 
" />
<path d="M 0.001, 708.732 
	L 0.000, 708.732 
	L 0.000, 591.165 
	L 527.315, 591.165 
	L 527.315, 708.732 
	L 0.000, 708.732 
" />
<path d="M 0.036, 708.696 
	L 0.035, 708.697 
	L 0.035, 591.130 
" />
<path d="M 4.642, 708.696 
	L 4.642, 708.697 
	L 4.642, 591.130 
" />
<path d="M 9.249, 708.696 
	L 9.248, 708.697 
	L 9.248, 591.130 
" />
<path d="M 13.855, 708.696 
	L 13.854, 708.697 
	L 13.854, 591.130 
" />
<path d="M 18.461, 708.696 
	L 18.461, 708.697 
	L 18.461, 591.130 
" />
<path d="M 23.068, 708.696 
	L 23.067, 708.697 
	L 23.067, 591.130 
" />
<path d="M 27.674, 708.696 
	L 27.673, 708.697 
	L 27.673, 591.130 
" />
<path d="M 32.280, 708.696 
	L 32.280, 708.697 
	L 32.280, 591.130 
" />
<path d="M 36.887, 708.696 
	L 36.886, 708.697 
	L 36.886, 591.130 
" />
<path d="M 41.493, 708.696 
	L 41.492, 708.697 
	L 41.492, 591.130 
" />
<path d="M 46.099, 708.696 
	L 46.098, 708.697 
	L 46.098, 591.130 
" />
<path d="M 50.705, 708.696 
	L 50.705, 708.697 
	L 50.705, 591.130 
" />
<path d="M 55.312, 708.696 
	L 55.311, 708.697 
	L 55.311, 591.130 
" />
<path d="M 59.918, 708.696 
	L 59.917, 708.697 
	L 59.917, 591.130 
" />
<path d="M 64.524, 708.696 
	L 64.524, 708.697 
	L 64.524, 591.130 
" />
<path d="M 69.131, 708.696 
	L 69.130, 708.697 
	L 69.130, 591.130 
" />
<path d="M 73.737, 708.696 
	L 73.736, 708.697 
	L 73.736, 591.130 
" />
<path d="M 78.343, 708.696 
	L 78.343, 708.697 
	L 78.343, 591.130 
" />
<path d="M 82.950, 708.696 
	L 82.949, 708.697 
	L 82.949, 591.130 
" />
<path d="M 87.556, 708.696 
	L 87.555, 708.697 
	L 87.555, 591.130 
" />
<path d="M 92.162, 708.696 
	L 92.161, 708.697 
	L 92.161, 591.130 
" />
<path d="M 96.768, 708.696 
	L 96.768, 708.697 
	L 96.768, 591.130 
" />
<path d="M 101.375, 708.696 
	L 101.374, 708.697 
	L 101.374, 591.130 
" />
<path d="M 105.981, 708.696 
	L 105.980, 708.697 
	L 105.980, 591.130 
" />
<path d="M 110.587, 708.696 
	L 110.587, 708.697 
	L 110.587, 591.130 
" />
<path d="M 115.194, 708.696 
	L 115.193, 708.697 
	L 115.193, 591.130 
" />
<path d="M 119.800, 708.696 
	L 119.799, 708.697 
	L 119.799, 591.130 
" />
<path d="M 124.406, 708.696 
	L 124.406, 708.697 
	L 124.406, 591.130 
" />
<path d="M 129.013, 708.696 
	L 129.012, 708.697 
	L 129.012, 591.130 
" />
<path d="M 133.619, 708.696 
	L 133.618, 708.697 
	L 133.618, 591.130 
" />
<path d="M 138.225, 708.696 
	L 138.224, 708.697 
	L 138.224, 591.130 
" />
<path d="M 142.831, 708.696 
	L 142.831, 708.697 
	L 142.831, 591.130 
" />
<path d="M 147.438, 708.696 
	L 147.437, 708.697 
	L 147.437, 591.130 
" />
<path d="M 152.044, 708.696 
	L 152.043, 708.697 
	L 152.043, 591.130 
" />
<path d="M 156.650, 708.696 
	L 156.650, 708.697 
	L 156.650, 591.130 
" />
<path d="M 161.257, 708.696 
	L 161.256, 708.697 
	L 161.256, 591.130 
" />
<path d="M 165.863, 708.696 
	L 165.862, 708.697 
	L 165.862, 591.130 
" />
<path d="M 170.469, 708.696 
	L 170.469, 708.697 
	L 170.469, 591.130 
" />
<path d="M 175.076, 708.696 
	L 175.075, 708.697 
	L 175.075, 591.130 
" />
<path d="M 179.682, 708.696 
	L 179.681, 708.697 
	L 179.681, 591.130 
" />
<path d="M 184.288, 708.696 
	L 184.287, 708.697 
	L 184.287, 591.130 
" />
<path d="M 188.894, 708.696 
	L 188.894, 708.697 
	L 188.894, 591.130 
" />
<path d="M 193.501, 708.696 
	L 193.500, 708.697 
	L 193.500, 591.130 
" />
<path d="M 198.107, 708.696 
	L 198.106, 708.697 
	L 198.106, 591.130 
" />
<path d="M 202.713, 708.696 
	L 202.713, 708.697 
	L 202.713, 591.130 
" />
<path d="M 207.320, 708.696 
	L 207.319, 708.697 
	L 207.319, 591.130 
" />
<path d="M 211.926, 708.696 
	L 211.925, 708.697 
	L 211.925, 591.130 
" />
<path d="M 216.532, 708.696 
	L 216.532, 708.697 
	L 216.532, 591.130 
" />
<path d="M 221.139, 708.696 
	L 221.138, 708.697 
	L 221.138, 591.130 
" />
<path d="M 225.745, 708.696 
	L 225.744, 708.697 
	L 225.744, 591.130 
" />
<path d="M 230.351, 708.696 
	L 230.350, 708.697 
	L 230.350, 591.130 
" />
<path d="M 234.957, 708.696 
	L 234.957, 708.697 
	L 234.957, 591.130 
" />
<path d="M 239.564, 708.696 
	L 239.563, 708.697 
	L 239.563, 591.130 
" />
<path d="M 244.170, 708.696 
	L 244.169, 708.697 
	L 244.169, 591.130 
" />
<path d="M 248.776, 708.696 
	L 248.776, 708.697 
	L 248.776, 591.130 
" />
<path d="M 253.383, 708.696 
	L 253.382, 708.697 
	L 253.382, 591.130 
" />
<path d="M 257.989, 708.696 
	L 257.988, 708.697 
	L 257.988, 591.130 
" />
<path d="M 262.595, 708.696 
	L 262.595, 708.697 
	L 262.595, 591.130 
" />
<path d="M 267.202, 708.696 
	L 267.201, 708.697 
	L 267.201, 591.130 
" />
<path d="M 271.808, 708.696 
	L 271.807, 708.697 
	L 271.807, 591.130 
" />
<path d="M 276.414, 708.696 
	L 276.413, 708.697 
	L 276.413, 591.130 
" />
<path d="M 281.020, 708.696 
	L 281.020, 708.697 
	L 281.020, 591.130 
" />
<path d="M 285.627, 708.696 
	L 285.626, 708.697 
	L 285.626, 591.130 
" />
<path d="M 290.233, 708.696 
	L 290.232, 708.697 
	L 290.232, 591.130 
" />
<path d="M 294.839, 708.696 
	L 294.839, 708.697 
	L 294.839, 591.130 
" />
<path d="M 299.446, 708.696 
	L 299.445, 708.697 
	L 299.445, 591.130 
" />
<path d="M 304.052, 708.696 
	L 304.051, 708.697 
	L 304.051, 591.130 
" />
<path d="M 308.658, 708.696 
	L 308.658, 708.697 
	L 308.658, 591.130 
" />
<path d="M 313.265, 708.696 
	L 313.264, 708.697 
	L 313.264, 591.130 
" />
<path d="M 317.871, 708.696 
	L 317.870, 708.697 
	L 317.870, 591.130 
" />
<path d="M 322.477, 708.696 
	L 322.476, 708.697 
	L 322.476, 591.130 
" />
<path d="M 327.083, 708.696 
	L 327.083, 708.697 
	L 327.083, 591.130 
" />
<path d="M 331.690, 708.696 
	L 331.689, 708.697 
	L 331.689, 591.130 
" />
<path d="M 336.296, 708.696 
	L 336.295, 708.697 
	L 336.295, 591.130 
" />
<path d="M 340.902, 708.696 
	L 340.902, 708.697 
	L 340.902, 591.130 
" />
<path d="M 345.509, 708.696 
	L 345.508, 708.697 
	L 345.508, 591.130 
" />
<path d="M 350.115, 708.696 
	L 350.114, 708.697 
	L 350.114, 591.130 
" />
<path d="M 354.721, 708.696 
	L 354.721, 708.697 
	L 354.721, 591.130 
" />
<path d="M 359.328, 708.696 
	L 359.327, 708.697 
	L 359.327, 591.130 
" />
<path d="M 363.934, 708.696 
	L 363.933, 708.697 
	L 363.933, 591.130 
" />
<path d="M 368.540, 708.696 
	L 368.539, 708.697 
	L 368.539, 591.130 
" />
<path d="M 373.146, 708.696 
	L 373.146, 708.697 
	L 373.146, 591.130 
" />
<path d="M 377.753, 708.696 
	L 377.752, 708.697 
	L 377.752, 591.130 
" />
<path d="M 382.359, 708.696 
	L 382.358, 708.697 
	L 382.358, 591.130 
" />
<path d="M 386.965, 708.696 
	L 386.965, 708.697 
	L 386.965, 591.130 
" />
<path d="M 391.572, 708.696 
	L 391.571, 708.697 
	L 391.571, 591.130 
" />
<path d="M 396.178, 708.696 
	L 396.177, 708.697 
	L 396.177, 591.130 
" />
<path d="M 400.784, 708.696 
	L 400.784, 708.697 
	L 400.784, 591.130 
" />
<path d="M 405.391, 708.696 
	L 405.390, 708.697 
	L 405.390, 591.130 
" />
<path d="M 409.997, 708.696 
	L 409.996, 708.697 
	L 409.996, 591.130 
" />
<path d="M 414.603, 708.696 
	L 414.602, 708.697 
	L 414.602, 591.130 
" />
<path d="M 419.209, 708.696 
	L 419.209, 708.697 
	L 419.209, 591.130 
" />
<path d="M 423.816, 708.696 
	L 423.815, 708.697 
	L 423.815, 591.130 
" />
<path d="M 428.422, 708.696 
	L 428.421, 708.697 
	L 428.421, 591.130 
" />
<path d="M 433.028, 708.696 
	L 433.028, 708.697 
	L 433.028, 591.130 
" />
<path d="M 437.635, 708.696 
	L 437.634, 708.697 
	L 437.634, 591.130 
" />
<path d="M 442.241, 708.696 
	L 442.240, 708.697 
	L 442.240, 591.130 
" />
<path d="M 446.847, 708.696 
	L 446.847, 708.697 
	L 446.847, 591.130 
" />
<path d="M 451.454, 708.696 
	L 451.453, 708.697 
	L 451.453, 591.130 
" />
<path d="M 456.060, 708.696 
	L 456.059, 708.697 
	L 456.059, 591.130 
" />
<path d="M 460.666, 708.696 
	L 460.665, 708.697 
	L 460.665, 591.130 
" />
<path d="M 465.272, 708.696 
	L 465.272, 708.697 
	L 465.272, 591.130 
" />
<path d="M 469.879, 708.696 
	L 469.878, 708.697 
	L 469.878, 591.130 
" />
<path d="M 474.485, 708.696 
	L 474.484, 708.697 
	L 474.484, 591.130 
" />
<path d="M 479.091, 708.696 
	L 479.091, 708.697 
	L 479.091, 591.130 
" />
<path d="M 483.698, 708.696 
	L 483.697, 708.697 
	L 483.697, 591.130 
" />
<path d="M 488.304, 708.696 
	L 488.303, 708.697 
	L 488.303, 591.130 
" />
<path d="M 492.910, 708.696 
	L 492.910, 708.697 
	L 492.910, 591.130 
" />
<path d="M 497.517, 708.696 
	L 497.516, 708.697 
	L 497.516, 591.130 
" />
<path d="M 502.123, 708.696 
	L 502.122, 708.697 
	L 502.122, 591.130 
" />
<path d="M 506.729, 708.696 
	L 506.728, 708.697 
	L 506.728, 591.130 
" />
<path d="M 511.335, 708.696 
	L 511.335, 708.697 
	L 511.335, 591.130 
" />
<path d="M 515.942, 708.696 
	L 515.941, 708.697 
	L 515.941, 591.130 
" />
<path d="M 520.548, 708.696 
	L 520.547, 708.697 
	L 520.547, 591.130 
" />
<path d="M 0.001, 591.165 
	L 0.000, 591.165 
	L 0.000, 0.071 
	L 527.315, 0.071 
	L 527.315, 591.165 
	L 0.000, 591.165 
" />
<path d="M 0.036, 591.129 
	L 0.035, 591.130 
	L 0.035, 0.035 
" />
<path d="M 4.642, 591.129 
	L 4.642, 591.130 
	L 4.642, 0.035 
" />
<path d="M 9.249, 591.129 
	L 9.248, 591.130 
	L 9.248, 0.035 
" />
<path d="M 13.855, 591.129 
	L 13.854, 591.130 
	L 13.854, 0.035 
" />
<path d="M 18.461, 591.129 
	L 18.461, 591.130 
	L 18.461, 0.035 
" />
<path d="M 23.068, 591.129 
	L 23.067, 591.130 
	L 23.067, 0.035 
" />
<path d="M 27.674, 591.129 
	L 27.673, 591.130 
	L 27.673, 0.035 
" />
<path d="M 32.280, 591.129 
	L 32.280, 591.130 
	L 32.280, 0.035 
" />
<path d="M 36.887, 591.129 
	L 36.886, 591.130 
	L 36.886, 0.035 
" />
<path d="M 41.493, 591.129 
	L 41.492, 591.130 
	L 41.492, 0.035 
" />
<path d="M 46.099, 591.129 
	L 46.098, 591.130 
	L 46.098, 0.035 
" />
<path d="M 50.705, 591.129 
	L 50.705, 591.130 
	L 50.705, 0.035 
" />
<path d="M 55.312, 591.129 
	L 55.311, 591.130 
	L 55.311, 0.035 
" />
<path d="M 59.918, 591.129 
	L 59.917, 591.130 
	L 59.917, 0.035 
" />
<path d="M 64.524, 591.129 
	L 64.524, 591.130 
	L 64.524, 0.035 
" />
<path d="M 69.131, 591.129 
	L 69.130, 591.130 
	L 69.130, 0.035 
" />
<path d="M 73.737, 591.129 
	L 73.736, 591.130 
	L 73.736, 0.035 
" />
<path d="M 78.343, 591.129 
	L 78.343, 591.130 
	L 78.343, 0.035 
" />
<path d="M 82.950, 591.129 
	L 82.949, 591.130 
	L 82.949, 0.035 
" />
<path d="M 87.556, 591.129 
	L 87.555, 591.130 
	L 87.555, 0.035 
" />
<path d="M 92.162, 591.129 
	L 92.161, 591.130 
	L 92.161, 0.035 
" />
<path d="M 96.768, 591.129 
	L 96.768, 591.130 
	L 96.768, 0.035 
" />
<path d="M 101.375, 591.129 
	L 101.374, 591.130 
	L 101.374, 0.035 
" />
<path d="M 105.981, 591.129 
	L 105.980, 591.130 
	L 105.980, 0.035 
" />
<path d="M 110.587, 591.129 
	L 110.587, 591.130 
	L 110.587, 0.035 
" />
<path d="M 115.194, 591.129 
	L 115.193, 591.130 
	L 115.193, 0.035 
" />
<path d="M 119.800, 591.129 
	L 119.799, 591.130 
	L 119.799, 0.035 
" />
<path d="M 124.406, 591.129 
	L 124.406, 591.130 
	L 124.406, 0.035 
" />
<path d="M 129.013, 591.129 
	L 129.012, 591.130 
	L 129.012, 0.035 
" />
<path d="M 133.619, 591.129 
	L 133.618, 591.130 
	L 133.618, 0.035 
" />
<path d="M 138.225, 591.129 
	L 138.224, 591.130 
	L 138.224, 0.035 
" />
<path d="M 142.831, 591.129 
	L 142.831, 591.130 
	L 142.831, 0.035 
" />
<path d="M 147.438, 591.129 
	L 147.437, 591.130 
	L 147.437, 0.035 
" />
<path d="M 152.044, 591.129 
	L 152.043, 591.130 
	L 152.043, 0.035 
" />
<path d="M 156.650, 591.129 
	L 156.650, 591.130 
	L 156.650, 0.035 
" />
<path d="M 161.257, 591.129 
	L 161.256, 591.130 
	L 161.256, 0.035 
" />
<path d="M 165.863, 591.129 
	L 165.862, 591.130 
	L 165.862, 0.035 
" />
<path d="M 170.469, 591.129 
	L 170.469, 591.130 
	L 170.469, 0.035 
" />
<path d="M 175.076, 591.129 
	L 175.075, 591.130 
	L 175.075, 0.035 
" />
<path d="M 179.682, 591.129 
	L 179.681, 591.130 
	L 179.681, 0.035 
" />
<path d="M 184.288, 591.129 
	L 184.287, 591.130 
	L 184.287, 0.035 
" />
<path d="M 188.894, 591.129 
	L 188.894, 591.130 
	L 188.894, 0.035 
" />
<path d="M 193.501, 591.129 
	L 193.500, 591.130 
	L 193.500, 0.035 
" />
<path d="M 198.107, 591.129 
	L 198.106, 591.130 
	L 198.106, 0.035 
" />
<path d="M 202.713, 591.129 
	L 202.713, 591.130 
	L 202.713, 0.035 
" />
<path d="M 207.320, 591.129 
	L 207.319, 591.130 
	L 207.319, 0.035 
" />
<path d="M 211.926, 591.129 
	L 211.925, 591.130 
	L 211.925, 0.035 
" />
<path d="M 216.532, 591.129 
	L 216.532, 591.130 
	L 216.532, 0.035 
" />
<path d="M 221.139, 591.129 
	L 221.138, 591.130 
	L 221.138, 0.035 
" />
<path d="M 225.745, 591.129 
	L 225.744, 591.130 
	L 225.744, 0.035 
" />
<path d="M 230.351, 591.129 
	L 230.350, 591.130 
	L 230.350, 0.035 
" />
<path d="M 234.957, 591.129 
	L 234.957, 591.130 
	L 234.957, 0.035 
" />
<path d="M 239.564, 591.129 
	L 239.563, 591.130 
	L 239.563, 0.035 
" />
<path d="M 244.170, 591.129 
	L 244.169, 591.130 
	L 244.169, 0.035 
" />
<path d="M 248.776, 591.129 
	L 248.776, 591.130 
	L 248.776, 0.035 
" />
<path d="M 253.383, 591.129 
	L 253.382, 591.130 
	L 253.382, 0.035 
" />
<path d="M 257.989, 591.129 
	L 257.988, 591.130 
	L 257.988, 0.035 
" />
<path d="M 262.595, 591.129 
	L 262.595, 591.130 
	L 262.595, 0.035 
" />
<path d="M 267.202, 591.129 
	L 267.201, 591.130 
	L 267.201, 0.035 
" />
<path d="M 271.808, 591.129 
	L 271.807, 591.130 
	L 271.807, 0.035 
" />
<path d="M 276.414, 591.129 
	L 276.413, 591.130 
	L 276.413, 0.035 
" />
<path d="M 281.020, 591.129 
	L 281.020, 591.130 
	L 281.020, 0.035 
" />
<path d="M 285.627, 591.129 
	L 285.626, 591.130 
	L 285.626, 0.035 
" />
<path d="M 290.233, 591.129 
	L 290.232, 591.130 
	L 290.232, 0.035 
" />
<path d="M 294.839, 591.129 
	L 294.839, 591.130 
	L 294.839, 0.035 
" />
<path d="M 299.446, 591.129 
	L 299.445, 591.130 
	L 299.445, 0.035 
" />
<path d="M 304.052, 591.129 
	L 304.051, 591.130 
	L 304.051, 0.035 
" />
<path d="M 308.658, 591.129 
	L 308.658, 591.130 
	L 308.658, 0.035 
" />
<path d="M 313.265, 591.129 
	L 313.264, 591.130 
	L 313.264, 0.035 
" />
<path d="M 317.871, 591.129 
	L 317.870, 591.130 
	L 317.870, 0.035 
" />
<path d="M 322.477, 591.129 
	L 322.476, 591.130 
	L 322.476, 0.035 
" />
<path d="M 327.083, 591.129 
	L 327.083, 591.130 
	L 327.083, 0.035 
" />
<path d="M 331.690, 591.129 
	L 331.689, 591.130 
	L 331.689, 0.035 
" />
<path d="M 336.296, 591.129 
	L 336.295, 591.130 
	L 336.295, 0.035 
" />
<path d="M 340.902, 591.129 
	L 340.902, 591.130 
	L 340.902, 0.035 
" />
<path d="M 345.509, 591.129 
	L 345.508, 591.130 
	L 345.508, 0.035 
" />
<path d="M 350.115, 591.129 
	L 350.114, 591.130 
	L 350.114, 0.035 
" />
<path d="M 354.721, 591.129 
	L 354.721, 591.130 
	L 354.721, 0.035 
" />
<path d="M 359.328, 591.129 
	L 359.327, 591.130 
	L 359.327, 0.035 
" />
<path d="M 363.934, 591.129 
	L 363.933, 591.130 
	L 363.933, 0.035 
" />
<path d="M 368.540, 591.129 
	L 368.539, 591.130 
	L 368.539, 0.035 
" />
<path d="M 373.146, 591.129 
	L 373.146, 591.130 
	L 373.146, 0.035 
" />
<path d="M 377.753, 591.129 
	L 377.752, 591.130 
	L 377.752, 0.035 
" />
<path d="M 382.359, 591.129 
	L 382.358, 591.130 
	L 382.358, 0.035 
" />
<path d="M 386.965, 591.129 
	L 386.965, 591.130 
	L 386.965, 0.035 
" />
<path d="M 391.572, 591.129 
	L 391.571, 591.130 
	L 391.571, 0.035 
" />
<path d="M 396.178, 591.129 
	L 396.177, 591.130 
	L 396.177, 0.035 
" />
<path d="M 400.784, 591.129 
	L 400.784, 591.130 
	L 400.784, 0.035 
" />
<path d="M 405.391, 591.129 
	L 405.390, 591.130 
	L 405.390, 0.035 
" />
<path d="M 409.997, 591.129 
	L 409.996, 591.130 
	L 409.996, 0.035 
" />
<path d="M 414.603, 591.129 
	L 414.602, 591.130 
	L 414.602, 0.035 
" />
<path d="M 419.209, 591.129 
	L 419.209, 591.130 
	L 419.209, 0.035 
" />
<path d="M 423.816, 591.129 
	L 423.815, 591.130 
	L 423.815, 0.035 
" />
<path d="M 428.422, 591.129 
	L 428.421, 591.130 
	L 428.421, 0.035 
" />
<path d="M 433.028, 591.129 
	L 433.028, 591.130 
	L 433.028, 0.035 
" />
<path d="M 437.635, 591.129 
	L 437.634, 591.130 
	L 437.634, 0.035 
" />
<path d="M 442.241, 591.129 
	L 442.240, 591.130 
	L 442.240, 0.035 
" />
<path d="M 446.847, 591.129 
	L 446.847, 591.130 
	L 446.847, 0.035 
" />
<path d="M 451.454, 591.129 
	L 451.453, 591.130 
	L 451.453, 0.035 
" />
<path d="M 456.060, 591.129 
	L 456.059, 591.130 
	L 456.059, 0.035 
" />
<path d="M 460.666, 591.129 
	L 460.665, 591.130 
	L 460.665, 0.035 
" />
<path d="M 465.272, 591.129 
	L 465.272, 591.130 
	L 465.272, 0.035 
" />
<path d="M 469.879, 591.129 
	L 469.878, 591.130 
	L 469.878, 0.035 
" />
<path d="M 474.485, 591.129 
	L 474.484, 591.130 
	L 474.484, 0.035 
" />
<path d="M 479.091, 591.129 
	L 479.091, 591.130 
	L 479.091, 0.035 
" />
<path d="M 483.698, 591.129 
	L 483.697, 591.130 
	L 483.697, 0.035 
" />
<path d="M 488.304, 591.129 
	L 488.303, 591.130 
	L 488.303, 0.035 
" />
<path d="M 492.910, 591.129 
	L 492.910, 591.130 
	L 492.910, 0.035 
" />
<path d="M 497.517, 591.129 
	L 497.516, 591.130 
	L 497.516, 0.035 
" />
<path d="M 502.123, 591.129 
	L 502.122, 591.130 
	L 502.122, 0.035 
" />
<path d="M 506.729, 591.129 
	L 506.728, 591.130 
	L 506.728, 0.035 
" />
<path d="M 511.335, 591.129 
	L 511.335, 591.130 
	L 511.335, 0.035 
" />
<path d="M 515.942, 591.129 
	L 515.941, 591.130 
	L 515.941, 0.035 
" />
<path d="M 520.548, 591.129 
	L 520.547, 591.130 
	L 520.547, 0.035 
" />
<path d="M 527.316, 591.165 
	L 527.315, 591.165 
	L 527.315, 0.071 
	L 708.662, 0.071 
	L 708.662, 591.165 
	L 527.315, 591.165 
" />
<path d="M 527.351, 591.129 
	L 527.350, 591.130 
	L 527.350, 0.035 
" />
<path d="M 531.957, 591.129 
	L 531.957, 591.130 
	L 531.957, 0.035 
" />
<path d="M 536.564, 591.129 
	L 536.563, 591.130 
	L 536.563, 0.035 
" />
<path d="M 541.170, 591.129 
	L 541.169, 591.130 
	L 541.169, 0.035 
" />
<path d="M 545.776, 591.129 
	L 545.776, 591.130 
	L 545.776, 0.035 
" />
<path d="M 550.383, 591.129 
	L 550.382, 591.130 
	L 550.382, 0.035 
" />
<path d="M 554.989, 591.129 
	L 554.988, 591.130 
	L 554.988, 0.035 
" />
<path d="M 559.595, 591.129 
	L 559.595, 591.130 
	L 559.595, 0.035 
" />
<path d="M 564.202, 591.129 
	L 564.201, 591.130 
	L 564.201, 0.035 
" />
<path d="M 568.808, 591.129 
	L 568.807, 591.130 
	L 568.807, 0.035 
" />
<path d="M 573.414, 591.129 
	L 573.413, 591.130 
	L 573.413, 0.035 
" />
<path d="M 578.020, 591.129 
	L 578.020, 591.130 
	L 578.020, 0.035 
" />
<path d="M 582.627, 591.129 
	L 582.626, 591.130 
	L 582.626, 0.035 
" />
<path d="M 587.233, 591.129 
	L 587.232, 591.130 
	L 587.232, 0.035 
" />
<path d="M 591.839, 591.129 
	L 591.839, 591.130 
	L 591.839, 0.035 
" />
<path d="M 596.446, 591.129 
	L 596.445, 591.130 
	L 596.445, 0.035 
" />
<path d="M 601.052, 591.129 
	L 601.051, 591.130 
	L 601.051, 0.035 
" />
<path d="M 605.658, 591.129 
	L 605.658, 591.130 
	L 605.658, 0.035 
" />
<path d="M 610.265, 591.129 
	L 610.264, 591.130 
	L 610.264, 0.035 
" />
<path d="M 614.871, 591.129 
	L 614.870, 591.130 
	L 614.870, 0.035 
" />
<path d="M 619.477, 591.129 
	L 619.476, 591.130 
	L 619.476, 0.035 
" />
<path d="M 624.083, 591.129 
	L 624.083, 591.130 
	L 624.083, 0.035 
" />
<path d="M 628.690, 591.129 
	L 628.689, 591.130 
	L 628.689, 0.035 
" />
<path d="M 633.296, 591.129 
	L 633.295, 591.130 
	L 633.295, 0.035 
" />
<path d="M 637.902, 591.129 
	L 637.902, 591.130 
	L 637.902, 0.035 
" />
<path d="M 642.509, 591.129 
	L 642.508, 591.130 
	L 642.508, 0.035 
" />
<path d="M 647.115, 591.129 
	L 647.114, 591.130 
	L 647.114, 0.035 
" />
<path d="M 651.721, 591.129 
	L 651.721, 591.130 
	L 651.721, 0.035 
" />
<path d="M 656.328, 591.129 
	L 656.327, 591.130 
	L 656.327, 0.035 
" />
<path d="M 660.934, 591.129 
	L 660.933, 591.130 
	L 660.933, 0.035 
" />
<path d="M 665.540, 591.129 
	L 665.539, 591.130 
	L 665.539, 0.035 
" />
<path d="M 670.146, 591.129 
	L 670.146, 591.130 
	L 670.146, 0.035 
" />
<path d="M 674.753, 591.129 
	L 674.752, 591.130 
	L 674.752, 0.035 
" />
<path d="M 679.359, 591.129 
	L 679.358, 591.130 
	L 679.358, 0.035 
" />
<path d="M 683.965, 591.129 
	L 683.965, 591.130 
	L 683.965, 0.035 
" />
<path d="M 688.572, 591.129 
	L 688.571, 591.130 
	L 688.571, 0.035 
" />
<path d="M 693.178, 591.129 
	L 693.177, 591.130 
	L 693.177, 0.035 
" />
<path d="M 697.784, 591.129 
	L 697.784, 591.130 
	L 697.784, 0.035 
" />
<path d="M 702.391, 591.129 
	L 702.390, 591.130 
	L 702.390, 0.035 
" />
<path d="M 527.316, 708.732 
	L 527.315, 708.732 
	L 527.315, 591.165 
	L 708.662, 591.165 
	L 708.662, 708.732 
	L 527.315, 708.732 
" />
<path d="M 527.351, 708.696 
	L 527.350, 708.697 
	L 527.350, 591.130 
" />
<path d="M 531.957, 708.696 
	L 531.957, 708.697 
	L 531.957, 591.130 
" />
<path d="M 536.564, 708.696 
	L 536.563, 708.697 
	L 536.563, 591.130 
" />
<path d="M 541.170, 708.696 
	L 541.169, 708.697 
	L 541.169, 591.130 
" />
<path d="M 545.776, 708.696 
	L 545.776, 708.697 
	L 545.776, 591.130 
" />
<path d="M 550.383, 708.696 
	L 550.382, 708.697 
	L 550.382, 591.130 
" />
<path d="M 554.989, 708.696 
	L 554.988, 708.697 
	L 554.988, 591.130 
" />
<path d="M 559.595, 708.696 
	L 559.595, 708.697 
	L 559.595, 591.130 
" />
<path d="M 564.202, 708.696 
	L 564.201, 708.697 
	L 564.201, 591.130 
" />
<path d="M 568.808, 708.696 
	L 568.807, 708.697 
	L 568.807, 591.130 
" />
<path d="M 573.414, 708.696 
	L 573.413, 708.697 
	L 573.413, 591.130 
" />
<path d="M 578.020, 708.696 
	L 578.020, 708.697 
	L 578.020, 591.130 
" />
<path d="M 582.627, 708.696 
	L 582.626, 708.697 
	L 582.626, 591.130 
" />
<path d="M 587.233, 708.696 
	L 587.232, 708.697 
	L 587.232, 591.130 
" />
<path d="M 591.839, 708.696 
	L 591.839, 708.697 
	L 591.839, 591.130 
" />
<path d="M 596.446, 708.696 
	L 596.445, 708.697 
	L 596.445, 591.130 
" />
<path d="M 601.052, 708.696 
	L 601.051, 708.697 
	L 601.051, 591.130 
" />
<path d="M 605.658, 708.696 
	L 605.658, 708.697 
	L 605.658, 591.130 
" />
<path d="M 610.265, 708.696 
	L 610.264, 708.697 
	L 610.264, 591.130 
" />
<path d="M 614.871, 708.696 
	L 614.870, 708.697 
	L 614.870, 591.130 
" />
<path d="M 619.477, 708.696 
	L 619.476, 708.697 
	L 619.476, 591.130 
" />
<path d="M 624.083, 708.696 
	L 624.083, 708.697 
	L 624.083, 591.130 
" />
<path d="M 628.690, 708.696 
	L 628.689, 708.697 
	L 628.689, 591.130 
" />
<path d="M 633.296, 708.696 
	L 633.295, 708.697 
	L 633.295, 591.130 
" />
<path d="M 637.902, 708.696 
	L 637.902, 708.697 
	L 637.902, 591.130 
" />
<path d="M 642.509, 708.696 
	L 642.508, 708.697 
	L 642.508, 591.130 
" />
<path d="M 647.115, 708.696 
	L 647.114, 708.697 
	L 647.114, 591.130 
" />
<path d="M 651.721, 708.696 
	L 651.721, 708.697 
	L 651.721, 591.130 
" />
<path d="M 656.328, 708.696 
	L 656.327, 708.697 
	L 656.327, 591.130 
" />
<path d="M 660.934, 708.696 
	L 660.933, 708.697 
	L 660.933, 591.130 
" />
<path d="M 665.540, 708.696 
	L 665.539, 708.697 
	L 665.539, 591.130 
" />
<path d="M 670.146, 708.696 
	L 670.146, 708.697 
	L 670.146, 591.130 
" />
<path d="M 674.753, 708.696 
	L 674.752, 708.697 
	L 674.752, 591.130 
" />
<path d="M 679.359, 708.696 
	L 679.358, 708.697 
	L 679.358, 591.130 
" />
<path d="M 683.965, 708.696 
	L 683.965, 708.697 
	L 683.965, 591.130 
" />
<path d="M 688.572, 708.696 
	L 688.571, 708.697 
	L 688.571, 591.130 
" />
<path d="M 693.178, 708.696 
	L 693.177, 708.697 
	L 693.177, 591.130 
" />
<path d="M 697.784, 708.696 
	L 697.784, 708.697 
	L 697.784, 591.130 
" />
<path d="M 702.391, 708.696 
	L 702.390, 708.697 
	L 702.390, 591.130 
" />
<path d="M 0.001, 708.732 
	L 0.000, 708.732 
	L 0.000, 684.992 
	L 476.858, 684.992 
	L 476.858, 708.732 
	L 0.000, 708.732 
" />
<path d="M 0.036, 708.696 
	L 0.035, 708.697 
	L 0.035, 684.957 
" />
<path d="M 4.572, 708.696 
	L 4.571, 708.697 
	L 4.571, 684.957 
" />
<path d="M 9.107, 708.696 
	L 9.106, 708.697 
	L 9.106, 684.957 
" />
<path d="M 13.642, 708.696 
	L 13.642, 708.697 
	L 13.642, 684.957 
" />
<path d="M 18.178, 708.696 
	L 18.177, 708.697 
	L 18.177, 684.957 
" />
<path d="M 22.713, 708.696 
	L 22.713, 708.697 
	L 22.713, 684.957 
" />
<path d="M 27.249, 708.696 
	L 27.248, 708.697 
	L 27.248, 684.957 
" />
<path d="M 31.784, 708.696 
	L 31.783, 708.697 
	L 31.783, 684.957 
" />
<path d="M 36.320, 708.696 
	L 36.319, 708.697 
	L 36.319, 684.957 
" />
<path d="M 40.855, 708.696 
	L 40.854, 708.697 
	L 40.854, 684.957 
" />
<path d="M 45.390, 708.696 
	L 45.390, 708.697 
	L 45.390, 684.957 
" />
<path d="M 49.926, 708.696 
	L 49.925, 708.697 
	L 49.925, 684.957 
" />
<path d="M 54.461, 708.696 
	L 54.461, 708.697 
	L 54.461, 684.957 
" />
<path d="M 58.997, 708.696 
	L 58.996, 708.697 
	L 58.996, 684.957 
" />
<path d="M 63.532, 708.696 
	L 63.532, 708.697 
	L 63.532, 684.957 
" />
<path d="M 68.068, 708.696 
	L 68.067, 708.697 
	L 68.067, 684.957 
" />
<path d="M 72.603, 708.696 
	L 72.602, 708.697 
	L 72.602, 684.957 
" />
<path d="M 77.139, 708.696 
	L 77.138, 708.697 
	L 77.138, 684.957 
" />
<path d="M 81.674, 708.696 
	L 81.673, 708.697 
	L 81.673, 684.957 
" />
<path d="M 86.209, 708.696 
	L 86.209, 708.697 
	L 86.209, 684.957 
" />
<path d="M 90.745, 708.696 
	L 90.744, 708.697 
	L 90.744, 684.957 
" />
<path d="M 95.280, 708.696 
	L 95.280, 708.697 
	L 95.280, 684.957 
" />
<path d="M 99.816, 708.696 
	L 99.815, 708.697 
	L 99.815, 684.957 
" />
<path d="M 104.351, 708.696 
	L 104.350, 708.697 
	L 104.350, 684.957 
" />
<path d="M 108.887, 708.696 
	L 108.886, 708.697 
	L 108.886, 684.957 
" />
<path d="M 113.422, 708.696 
	L 113.421, 708.697 
	L 113.421, 684.957 
" />
<path d="M 117.957, 708.696 
	L 117.957, 708.697 
	L 117.957, 684.957 
" />
<path d="M 122.493, 708.696 
	L 122.492, 708.697 
	L 122.492, 684.957 
" />
<path d="M 127.028, 708.696 
	L 127.028, 708.697 
	L 127.028, 684.957 
" />
<path d="M 131.564, 708.696 
	L 131.563, 708.697 
	L 131.563, 684.957 
" />
<path d="M 136.099, 708.696 
	L 136.098, 708.697 
	L 136.098, 684.957 
" />
<path d="M 140.635, 708.696 
	L 140.634, 708.697 
	L 140.634, 684.957 
" />
<path d="M 145.170, 708.696 
	L 145.169, 708.697 
	L 145.169, 684.957 
" />
<path d="M 149.705, 708.696 
	L 149.705, 708.697 
	L 149.705, 684.957 
" />
<path d="M 154.241, 708.696 
	L 154.240, 708.697 
	L 154.240, 684.957 
" />
<path d="M 158.776, 708.696 
	L 158.776, 708.697 
	L 158.776, 684.957 
" />
<path d="M 163.312, 708.696 
	L 163.311, 708.697 
	L 163.311, 684.957 
" />
<path d="M 167.847, 708.696 
	L 167.846, 708.697 
	L 167.846, 684.957 
" />
<path d="M 172.383, 708.696 
	L 172.382, 708.697 
	L 172.382, 684.957 
" />
<path d="M 176.918, 708.696 
	L 176.917, 708.697 
	L 176.917, 684.957 
" />
<path d="M 181.453, 708.696 
	L 181.453, 708.697 
	L 181.453, 684.957 
" />
<path d="M 185.989, 708.696 
	L 185.988, 708.697 
	L 185.988, 684.957 
" />
<path d="M 190.524, 708.696 
	L 190.524, 708.697 
	L 190.524, 684.957 
" />
<path d="M 195.060, 708.696 
	L 195.059, 708.697 
	L 195.059, 684.957 
" />
<path d="M 199.595, 708.696 
	L 199.595, 708.697 
	L 199.595, 684.957 
" />
<path d="M 204.131, 708.696 
	L 204.130, 708.697 
	L 204.130, 684.957 
" />
<path d="M 208.666, 708.696 
	L 208.665, 708.697 
	L 208.665, 684.957 
" />
<path d="M 213.202, 708.696 
	L 213.201, 708.697 
	L 213.201, 684.957 
" />
<path d="M 217.737, 708.696 
	L 217.736, 708.697 
	L 217.736, 684.957 
" />
<path d="M 222.272, 708.696 
	L 222.272, 708.697 
	L 222.272, 684.957 
" />
<path d="M 226.808, 708.696 
	L 226.807, 708.697 
	L 226.807, 684.957 
" />
<path d="M 231.343, 708.696 
	L 231.343, 708.697 
	L 231.343, 684.957 
" />
<path d="M 235.879, 708.696 
	L 235.878, 708.697 
	L 235.878, 684.957 
" />
<path d="M 240.414, 708.696 
	L 240.413, 708.697 
	L 240.413, 684.957 
" />
<path d="M 244.950, 708.696 
	L 244.949, 708.697 
	L 244.949, 684.957 
" />
<path d="M 249.485, 708.696 
	L 249.484, 708.697 
	L 249.484, 684.957 
" />
<path d="M 254.020, 708.696 
	L 254.020, 708.697 
	L 254.020, 684.957 
" />
<path d="M 258.556, 708.696 
	L 258.555, 708.697 
	L 258.555, 684.957 
" />
<path d="M 263.091, 708.696 
	L 263.091, 708.697 
	L 263.091, 684.957 
" />
<path d="M 267.627, 708.696 
	L 267.626, 708.697 
	L 267.626, 684.957 
" />
<path d="M 272.162, 708.696 
	L 272.161, 708.697 
	L 272.161, 684.957 
" />
<path d="M 276.698, 708.696 
	L 276.697, 708.697 
	L 276.697, 684.957 
" />
<path d="M 281.233, 708.696 
	L 281.232, 708.697 
	L 281.232, 684.957 
" />
<path d="M 285.768, 708.696 
	L 285.768, 708.697 
	L 285.768, 684.957 
" />
<path d="M 290.304, 708.696 
	L 290.303, 708.697 
	L 290.303, 684.957 
" />
<path d="M 294.839, 708.696 
	L 294.839, 708.697 
	L 294.839, 684.957 
" />
<path d="M 299.375, 708.696 
	L 299.374, 708.697 
	L 299.374, 684.957 
" />
<path d="M 303.910, 708.696 
	L 303.909, 708.697 
	L 303.909, 684.957 
" />
<path d="M 308.446, 708.696 
	L 308.445, 708.697 
	L 308.445, 684.957 
" />
<path d="M 312.981, 708.696 
	L 312.980, 708.697 
	L 312.980, 684.957 
" />
<path d="M 317.516, 708.696 
	L 317.516, 708.697 
	L 317.516, 684.957 
" />
<path d="M 322.052, 708.696 
	L 322.051, 708.697 
	L 322.051, 684.957 
" />
<path d="M 326.587, 708.696 
	L 326.587, 708.697 
	L 326.587, 684.957 
" />
<path d="M 331.123, 708.696 
	L 331.122, 708.697 
	L 331.122, 684.957 
" />
<path d="M 335.658, 708.696 
	L 335.658, 708.697 
	L 335.658, 684.957 
" />
<path d="M 340.194, 708.696 
	L 340.193, 708.697 
	L 340.193, 684.957 
" />
<path d="M 344.729, 708.696 
	L 344.728, 708.697 
	L 344.728, 684.957 
" />
<path d="M 349.265, 708.696 
	L 349.264, 708.697 
	L 349.264, 684.957 
" />
<path d="M 353.800, 708.696 
	L 353.799, 708.697 
	L 353.799, 684.957 
" />
<path d="M 358.335, 708.696 
	L 358.335, 708.697 
	L 358.335, 684.957 
" />
<path d="M 362.871, 708.696 
	L 362.870, 708.697 
	L 362.870, 684.957 
" />
<path d="M 367.406, 708.696 
	L 367.406, 708.697 
	L 367.406, 684.957 
" />
<path d="M 371.942, 708.696 
	L 371.941, 708.697 
	L 371.941, 684.957 
" />
<path d="M 376.477, 708.696 
	L 376.476, 708.697 
	L 376.476, 684.957 
" />
<path d="M 381.013, 708.696 
	L 381.012, 708.697 
	L 381.012, 684.957 
" />
<path d="M 385.548, 708.696 
	L 385.547, 708.697 
	L 385.547, 684.957 
" />
<path d="M 390.083, 708.696 
	L 390.083, 708.697 
	L 390.083, 684.957 
" />
<path d="M 394.619, 708.696 
	L 394.618, 708.697 
	L 394.618, 684.957 
" />
<path d="M 399.154, 708.696 
	L 399.154, 708.697 
	L 399.154, 684.957 
" />
<path d="M 403.690, 708.696 
	L 403.689, 708.697 
	L 403.689, 684.957 
" />
<path d="M 408.225, 708.696 
	L 408.224, 708.697 
	L 408.224, 684.957 
" />
<path d="M 412.761, 708.696 
	L 412.760, 708.697 
	L 412.760, 684.957 
" />
<path d="M 417.296, 708.696 
	L 417.295, 708.697 
	L 417.295, 684.957 
" />
<path d="M 421.831, 708.696 
	L 421.831, 708.697 
	L 421.831, 684.957 
" />
<path d="M 426.367, 708.696 
	L 426.366, 708.697 
	L 426.366, 684.957 
" />
<path d="M 430.902, 708.696 
	L 430.902, 708.697 
	L 430.902, 684.957 
" />
<path d="M 435.438, 708.696 
	L 435.437, 708.697 
	L 435.437, 684.957 
" />
<path d="M 439.973, 708.696 
	L 439.973, 708.697 
	L 439.973, 684.957 
" />
<path d="M 444.509, 708.696 
	L 444.508, 708.697 
	L 444.508, 684.957 
" />
<path d="M 449.044, 708.696 
	L 449.043, 708.697 
	L 449.043, 684.957 
" />
<path d="M 453.580, 708.696 
	L 453.579, 708.697 
	L 453.579, 684.957 
" />
<path d="M 458.115, 708.696 
	L 458.114, 708.697 
	L 458.114, 684.957 
" />
<path d="M 462.650, 708.696 
	L 462.650, 708.697 
	L 462.650, 684.957 
" />
<path d="M 467.186, 708.696 
	L 467.185, 708.697 
	L 467.185, 684.957 
" />
<path d="M 471.721, 708.696 
	L 471.721, 708.697 
	L 471.721, 684.957 
" />
<path d="M 0.001, 684.956 
	L 0.000, 684.957 
	L 0.000, 591.130 
	L 476.858, 591.130 
	L 476.858, 684.957 
	L 0.000, 684.957 
" />
<path d="M 0.036, 684.956 
	L 0.035, 684.957 
	L 0.035, 591.130 
" />
<path d="M 4.572, 684.956 
	L 4.571, 684.957 
	L 4.571, 591.130 
" />
<path d="M 9.107, 684.956 
	L 9.106, 684.957 
	L 9.106, 591.130 
" />
<path d="M 13.642, 684.956 
	L 13.642, 684.957 
	L 13.642, 591.130 
" />
<path d="M 18.178, 684.956 
	L 18.177, 684.957 
	L 18.177, 591.130 
" />
<path d="M 22.713, 684.956 
	L 22.713, 684.957 
	L 22.713, 591.130 
" />
<path d="M 27.249, 684.956 
	L 27.248, 684.957 
	L 27.248, 591.130 
" />
<path d="M 31.784, 684.956 
	L 31.783, 684.957 
	L 31.783, 591.130 
" />
<path d="M 36.320, 684.956 
	L 36.319, 684.957 
	L 36.319, 591.130 
" />
<path d="M 40.855, 684.956 
	L 40.854, 684.957 
	L 40.854, 591.130 
" />
<path d="M 45.390, 684.956 
	L 45.390, 684.957 
	L 45.390, 591.130 
" />
<path d="M 49.926, 684.956 
	L 49.925, 684.957 
	L 49.925, 591.130 
" />
<path d="M 54.461, 684.956 
	L 54.461, 684.957 
	L 54.461, 591.130 
" />
<path d="M 58.997, 684.956 
	L 58.996, 684.957 
	L 58.996, 591.130 
" />
<path d="M 63.532, 684.956 
	L 63.532, 684.957 
	L 63.532, 591.130 
" />
<path d="M 68.068, 684.956 
	L 68.067, 684.957 
	L 68.067, 591.130 
" />
<path d="M 72.603, 684.956 
	L 72.602, 684.957 
	L 72.602, 591.130 
" />
<path d="M 77.139, 684.956 
	L 77.138, 684.957 
	L 77.138, 591.130 
" />
<path d="M 81.674, 684.956 
	L 81.673, 684.957 
	L 81.673, 591.130 
" />
<path d="M 86.209, 684.956 
	L 86.209, 684.957 
	L 86.209, 591.130 
" />
<path d="M 90.745, 684.956 
	L 90.744, 684.957 
	L 90.744, 591.130 
" />
<path d="M 95.280, 684.956 
	L 95.280, 684.957 
	L 95.280, 591.130 
" />
<path d="M 99.816, 684.956 
	L 99.815, 684.957 
	L 99.815, 591.130 
" />
<path d="M 104.351, 684.956 
	L 104.350, 684.957 
	L 104.350, 591.130 
" />
<path d="M 108.887, 684.956 
	L 108.886, 684.957 
	L 108.886, 591.130 
" />
<path d="M 113.422, 684.956 
	L 113.421, 684.957 
	L 113.421, 591.130 
" />
<path d="M 117.957, 684.956 
	L 117.957, 684.957 
	L 117.957, 591.130 
" />
<path d="M 122.493, 684.956 
	L 122.492, 684.957 
	L 122.492, 591.130 
" />
<path d="M 127.028, 684.956 
	L 127.028, 684.957 
	L 127.028, 591.130 
" />
<path d="M 131.564, 684.956 
	L 131.563, 684.957 
	L 131.563, 591.130 
" />
<path d="M 136.099, 684.956 
	L 136.098, 684.957 
	L 136.098, 591.130 
" />
<path d="M 140.635, 684.956 
	L 140.634, 684.957 
	L 140.634, 591.130 
" />
<path d="M 145.170, 684.956 
	L 145.169, 684.957 
	L 145.169, 591.130 
" />
<path d="M 149.705, 684.956 
	L 149.705, 684.957 
	L 149.705, 591.130 
" />
<path d="M 154.241, 684.956 
	L 154.240, 684.957 
	L 154.240, 591.130 
" />
<path d="M 158.776, 684.956 
	L 158.776, 684.957 
	L 158.776, 591.130 
" />
<path d="M 163.312, 684.956 
	L 163.311, 684.957 
	L 163.311, 591.130 
" />
<path d="M 167.847, 684.956 
	L 167.846, 684.957 
	L 167.846, 591.130 
" />
<path d="M 172.383, 684.956 
	L 172.382, 684.957 
	L 172.382, 591.130 
" />
<path d="M 176.918, 684.956 
	L 176.917, 684.957 
	L 176.917, 591.130 
" />
<path d="M 181.453, 684.956 
	L 181.453, 684.957 
	L 181.453, 591.130 
" />
<path d="M 185.989, 684.956 
	L 185.988, 684.957 
	L 185.988, 591.130 
" />
<path d="M 190.524, 684.956 
	L 190.524, 684.957 
	L 190.524, 591.130 
" />
<path d="M 195.060, 684.956 
	L 195.059, 684.957 
	L 195.059, 591.130 
" />
<path d="M 199.595, 684.956 
	L 199.595, 684.957 
	L 199.595, 591.130 
" />
<path d="M 204.131, 684.956 
	L 204.130, 684.957 
	L 204.130, 591.130 
" />
<path d="M 208.666, 684.956 
	L 208.665, 684.957 
	L 208.665, 591.130 
" />
<path d="M 213.202, 684.956 
	L 213.201, 684.957 
	L 213.201, 591.130 
" />
<path d="M 217.737, 684.956 
	L 217.736, 684.957 
	L 217.736, 591.130 
" />
<path d="M 222.272, 684.956 
	L 222.272, 684.957 
	L 222.272, 591.130 
" />
<path d="M 226.808, 684.956 
	L 226.807, 684.957 
	L 226.807, 591.130 
" />
<path d="M 231.343, 684.956 
	L 231.343, 684.957 
	L 231.343, 591.130 
" />
<path d="M 235.879, 684.956 
	L 235.878, 684.957 
	L 235.878, 591.130 
" />
<path d="M 240.414, 684.956 
	L 240.413, 684.957 
	L 240.413, 591.130 
" />
<path d="M 244.950, 684.956 
	L 244.949, 684.957 
	L 244.949, 591.130 
" />
<path d="M 249.485, 684.956 
	L 249.484, 684.957 
	L 249.484, 591.130 
" />
<path d="M 254.020, 684.956 
	L 254.020, 684.957 
	L 254.020, 591.130 
" />
<path d="M 258.556, 684.956 
	L 258.555, 684.957 
	L 258.555, 591.130 
" />
<path d="M 263.091, 684.956 
	L 263.091, 684.957 
	L 263.091, 591.130 
" />
<path d="M 267.627, 684.956 
	L 267.626, 684.957 
	L 267.626, 591.130 
" />
<path d="M 272.162, 684.956 
	L 272.161, 684.957 
	L 272.161, 591.130 
" />
<path d="M 276.698, 684.956 
	L 276.697, 684.957 
	L 276.697, 591.130 
" />
<path d="M 281.233, 684.956 
	L 281.232, 684.957 
	L 281.232, 591.130 
" />
<path d="M 285.768, 684.956 
	L 285.768, 684.957 
	L 285.768, 591.130 
" />
<path d="M 290.304, 684.956 
	L 290.303, 684.957 
	L 290.303, 591.130 
" />
<path d="M 294.839, 684.956 
	L 294.839, 684.957 
	L 294.839, 591.130 
" />
<path d="M 299.375, 684.956 
	L 299.374, 684.957 
	L 299.374, 591.130 
" />
<path d="M 303.910, 684.956 
	L 303.909, 684.957 
	L 303.909, 591.130 
" />
<path d="M 308.446, 684.956 
	L 308.445, 684.957 
	L 308.445, 591.130 
" />
<path d="M 312.981, 684.956 
	L 312.980, 684.957 
	L 312.980, 591.130 
" />
<path d="M 317.516, 684.956 
	L 317.516, 684.957 
	L 317.516, 591.130 
" />
<path d="M 322.052, 684.956 
	L 322.051, 684.957 
	L 322.051, 591.130 
" />
<path d="M 326.587, 684.956 
	L 326.587, 684.957 
	L 326.587, 591.130 
" />
<path d="M 331.123, 684.956 
	L 331.122, 684.957 
	L 331.122, 591.130 
" />
<path d="M 335.658, 684.956 
	L 335.658, 684.957 
	L 335.658, 591.130 
" />
<path d="M 340.194, 684.956 
	L 340.193, 684.957 
	L 340.193, 591.130 
" />
<path d="M 344.729, 684.956 
	L 344.728, 684.957 
	L 344.728, 591.130 
" />
<path d="M 349.265, 684.956 
	L 349.264, 684.957 
	L 349.264, 591.130 
" />
<path d="M 353.800, 684.956 
	L 353.799, 684.957 
	L 353.799, 591.130 
" />
<path d="M 358.335, 684.956 
	L 358.335, 684.957 
	L 358.335, 591.130 
" />
<path d="M 362.871, 684.956 
	L 362.870, 684.957 
	L 362.870, 591.130 
" />
<path d="M 367.406, 684.956 
	L 367.406, 684.957 
	L 367.406, 591.130 
" />
<path d="M 371.942, 684.956 
	L 371.941, 684.957 
	L 371.941, 591.130 
" />
<path d="M 376.477, 684.956 
	L 376.476, 684.957 
	L 376.476, 591.130 
" />
<path d="M 381.013, 684.956 
	L 381.012, 684.957 
	L 381.012, 591.130 
" />
<path d="M 385.548, 684.956 
	L 385.547, 684.957 
	L 385.547, 591.130 
" />
<path d="M 390.083, 684.956 
	L 390.083, 684.957 
	L 390.083, 591.130 
" />
<path d="M 394.619, 684.956 
	L 394.618, 684.957 
	L 394.618, 591.130 
" />
<path d="M 399.154, 684.956 
	L 399.154, 684.957 
	L 399.154, 591.130 
" />
<path d="M 403.690, 684.956 
	L 403.689, 684.957 
	L 403.689, 591.130 
" />
<path d="M 408.225, 684.956 
	L 408.224, 684.957 
	L 408.224, 591.130 
" />
<path d="M 412.761, 684.956 
	L 412.760, 684.957 
	L 412.760, 591.130 
" />
<path d="M 417.296, 684.956 
	L 417.295, 684.957 
	L 417.295, 591.130 
" />
<path d="M 421.831, 684.956 
	L 421.831, 684.957 
	L 421.831, 591.130 
" />
<path d="M 426.367, 684.956 
	L 426.366, 684.957 
	L 426.366, 591.130 
" />
<path d="M 430.902, 684.956 
	L 430.902, 684.957 
	L 430.902, 591.130 
" />
<path d="M 435.438, 684.956 
	L 435.437, 684.957 
	L 435.437, 591.130 
" />
<path d="M 439.973, 684.956 
	L 439.973, 684.957 
	L 439.973, 591.130 
" />
<path d="M 444.509, 684.956 
	L 444.508, 684.957 
	L 444.508, 591.130 
" />
<path d="M 449.044, 684.956 
	L 449.043, 684.957 
	L 449.043, 591.130 
" />
<path d="M 453.580, 684.956 
	L 453.579, 684.957 
	L 453.579, 591.130 
" />
<path d="M 458.115, 684.956 
	L 458.114, 684.957 
	L 458.114, 591.130 
" />
<path d="M 462.650, 684.956 
	L 462.650, 684.957 
	L 462.650, 591.130 
" />
<path d="M 467.186, 684.956 
	L 467.185, 684.957 
	L 467.185, 591.130 
" />
<path d="M 471.721, 684.956 
	L 471.721, 684.957 
	L 471.721, 591.130 
" />
<path d="M 476.894, 684.956 
	L 476.894, 684.957 
	L 476.894, 591.130 
	L 527.350, 591.130 
	L 527.350, 684.957 
	L 476.894, 684.957 
" />
<path d="M 476.894, 684.956 
	L 476.894, 684.957 
	L 476.894, 591.130 
" />
<path d="M 481.430, 684.956 
	L 481.429, 684.957 
	L 481.429, 591.130 
" />
<path d="M 485.965, 684.956 
	L 485.965, 684.957 
	L 485.965, 591.130 
" />
<path d="M 490.501, 684.956 
	L 490.500, 684.957 
	L 490.500, 591.130 
" />
<path d="M 495.036, 684.956 
	L 495.036, 684.957 
	L 495.036, 591.130 
" />
<path d="M 499.572, 684.956 
	L 499.571, 684.957 
	L 499.571, 591.130 
" />
<path d="M 504.107, 684.956 
	L 504.106, 684.957 
	L 504.106, 591.130 
" />
<path d="M 508.643, 684.956 
	L 508.642, 684.957 
	L 508.642, 591.130 
" />
<path d="M 513.178, 684.956 
	L 513.177, 684.957 
	L 513.177, 591.130 
" />
<path d="M 517.713, 684.956 
	L 517.713, 684.957 
	L 517.713, 591.130 
" />
<path d="M 522.249, 684.956 
	L 522.248, 684.957 
	L 522.248, 591.130 
" />
<path d="M 476.894, 708.732 
	L 476.894, 708.732 
	L 476.894, 684.992 
	L 527.350, 684.992 
	L 527.350, 708.732 
	L 476.894, 708.732 
" />
<path d="M 476.894, 708.696 
	L 476.894, 708.697 
	L 476.894, 684.957 
" />
<path d="M 481.430, 708.696 
	L 481.429, 708.697 
	L 481.429, 684.957 
" />
<path d="M 485.965, 708.696 
	L 485.965, 708.697 
	L 485.965, 684.957 
" />
<path d="M 490.501, 708.696 
	L 490.500, 708.697 
	L 490.500, 684.957 
" />
<path d="M 495.036, 708.696 
	L 495.036, 708.697 
	L 495.036, 684.957 
" />
<path d="M 499.572, 708.696 
	L 499.571, 708.697 
	L 499.571, 684.957 
" />
<path d="M 504.107, 708.696 
	L 504.106, 708.697 
	L 504.106, 684.957 
" />
<path d="M 508.643, 708.696 
	L 508.642, 708.697 
	L 508.642, 684.957 
" />
<path d="M 513.178, 708.696 
	L 513.177, 708.697 
	L 513.177, 684.957 
" />
<path d="M 517.713, 708.696 
	L 517.713, 708.697 
	L 517.713, 684.957 
" />
<path d="M 522.249, 708.696 
	L 522.248, 708.697 
	L 522.248, 684.957 
" />
<path d="M 0.001, 591.129 
	L 0.000, 591.130 
	L 0.000, 522.248 
	L 104.528, 522.248 
	L 104.528, 591.130 
	L 0.000, 591.130 
" />
<path d="M 0.036, 591.129 
	L 0.035, 591.130 
	L 0.035, 522.248 
" />
<path d="M 4.572, 591.129 
	L 4.571, 591.130 
	L 4.571, 522.248 
" />
<path d="M 9.107, 591.129 
	L 9.106, 591.130 
	L 9.106, 522.248 
" />
<path d="M 13.642, 591.129 
	L 13.642, 591.130 
	L 13.642, 522.248 
" />
<path d="M 18.178, 591.129 
	L 18.177, 591.130 
	L 18.177, 522.248 
" />
<path d="M 22.713, 591.129 
	L 22.713, 591.130 
	L 22.713, 522.248 
" />
<path d="M 27.249, 591.129 
	L 27.248, 591.130 
	L 27.248, 522.248 
" />
<path d="M 31.784, 591.129 
	L 31.783, 591.130 
	L 31.783, 522.248 
" />
<path d="M 36.320, 591.129 
	L 36.319, 591.130 
	L 36.319, 522.248 
" />
<path d="M 40.855, 591.129 
	L 40.854, 591.130 
	L 40.854, 522.248 
" />
<path d="M 45.390, 591.129 
	L 45.390, 591.130 
	L 45.390, 522.248 
" />
<path d="M 49.926, 591.129 
	L 49.925, 591.130 
	L 49.925, 522.248 
" />
<path d="M 54.461, 591.129 
	L 54.461, 591.130 
	L 54.461, 522.248 
" />
<path d="M 58.997, 591.129 
	L 58.996, 591.130 
	L 58.996, 522.248 
" />
<path d="M 63.532, 591.129 
	L 63.532, 591.130 
	L 63.532, 522.248 
" />
<path d="M 68.068, 591.129 
	L 68.067, 591.130 
	L 68.067, 522.248 
" />
<path d="M 72.603, 591.129 
	L 72.602, 591.130 
	L 72.602, 522.248 
" />
<path d="M 77.139, 591.129 
	L 77.138, 591.130 
	L 77.138, 522.248 
" />
<path d="M 81.674, 591.129 
	L 81.673, 591.130 
	L 81.673, 522.248 
" />
<path d="M 86.209, 591.129 
	L 86.209, 591.130 
	L 86.209, 522.248 
" />
<path d="M 90.745, 591.129 
	L 90.744, 591.130 
	L 90.744, 522.248 
" />
<path d="M 95.280, 591.129 
	L 95.280, 591.130 
	L 95.280, 522.248 
" />
<path d="M 99.816, 591.129 
	L 99.815, 591.130 
	L 99.815, 522.248 
" />
<path d="M 0.001, 522.283 
	L 0.000, 522.284 
	L 0.000, 0.071 
	L 104.528, 0.071 
	L 104.528, 522.284 
	L 0.000, 522.284 
" />
<path d="M 0.036, 522.247 
	L 0.035, 522.248 
	L 0.035, 0.035 
" />
<path d="M 4.572, 522.247 
	L 4.571, 522.248 
	L 4.571, 0.035 
" />
<path d="M 9.107, 522.247 
	L 9.106, 522.248 
	L 9.106, 0.035 
" />
<path d="M 13.642, 522.247 
	L 13.642, 522.248 
	L 13.642, 0.035 
" />
<path d="M 18.178, 522.247 
	L 18.177, 522.248 
	L 18.177, 0.035 
" />
<path d="M 22.713, 522.247 
	L 22.713, 522.248 
	L 22.713, 0.035 
" />
<path d="M 27.249, 522.247 
	L 27.248, 522.248 
	L 27.248, 0.035 
" />
<path d="M 31.784, 522.247 
	L 31.783, 522.248 
	L 31.783, 0.035 
" />
<path d="M 36.320, 522.247 
	L 36.319, 522.248 
	L 36.319, 0.035 
" />
<path d="M 40.855, 522.247 
	L 40.854, 522.248 
	L 40.854, 0.035 
" />
<path d="M 45.390, 522.247 
	L 45.390, 522.248 
	L 45.390, 0.035 
" />
<path d="M 49.926, 522.247 
	L 49.925, 522.248 
	L 49.925, 0.035 
" />
<path d="M 54.461, 522.247 
	L 54.461, 522.248 
	L 54.461, 0.035 
" />
<path d="M 58.997, 522.247 
	L 58.996, 522.248 
	L 58.996, 0.035 
" />
<path d="M 63.532, 522.247 
	L 63.532, 522.248 
	L 63.532, 0.035 
" />
<path d="M 68.068, 522.247 
	L 68.067, 522.248 
	L 68.067, 0.035 
" />
<path d="M 72.603, 522.247 
	L 72.602, 522.248 
	L 72.602, 0.035 
" />
<path d="M 77.139, 522.247 
	L 77.138, 522.248 
	L 77.138, 0.035 
" />
<path d="M 81.674, 522.247 
	L 81.673, 522.248 
	L 81.673, 0.035 
" />
<path d="M 86.209, 522.247 
	L 86.209, 522.248 
	L 86.209, 0.035 
" />
<path d="M 90.745, 522.247 
	L 90.744, 522.248 
	L 90.744, 0.035 
" />
<path d="M 95.280, 522.247 
	L 95.280, 522.248 
	L 95.280, 0.035 
" />
<path d="M 99.816, 522.247 
	L 99.815, 522.248 
	L 99.815, 0.035 
" />
<path d="M 104.564, 522.283 
	L 104.563, 522.284 
	L 104.563, 0.071 
	L 527.350, 0.071 
	L 527.350, 522.284 
	L 104.563, 522.284 
" />
<path d="M 104.564, 522.247 
	L 104.563, 522.248 
	L 104.563, 0.035 
" />
<path d="M 109.099, 522.247 
	L 109.098, 522.248 
	L 109.098, 0.035 
" />
<path d="M 113.635, 522.247 
	L 113.634, 522.248 
	L 113.634, 0.035 
" />
<path d="M 118.170, 522.247 
	L 118.169, 522.248 
	L 118.169, 0.035 
" />
<path d="M 122.705, 522.247 
	L 122.705, 522.248 
	L 122.705, 0.035 
" />
<path d="M 127.241, 522.247 
	L 127.240, 522.248 
	L 127.240, 0.035 
" />
<path d="M 131.776, 522.247 
	L 131.776, 522.248 
	L 131.776, 0.035 
" />
<path d="M 136.312, 522.247 
	L 136.311, 522.248 
	L 136.311, 0.035 
" />
<path d="M 140.847, 522.247 
	L 140.846, 522.248 
	L 140.846, 0.035 
" />
<path d="M 145.383, 522.247 
	L 145.382, 522.248 
	L 145.382, 0.035 
" />
<path d="M 149.918, 522.247 
	L 149.917, 522.248 
	L 149.917, 0.035 
" />
<path d="M 154.453, 522.247 
	L 154.453, 522.248 
	L 154.453, 0.035 
" />
<path d="M 158.989, 522.247 
	L 158.988, 522.248 
	L 158.988, 0.035 
" />
<path d="M 163.524, 522.247 
	L 163.524, 522.248 
	L 163.524, 0.035 
" />
<path d="M 168.060, 522.247 
	L 168.059, 522.248 
	L 168.059, 0.035 
" />
<path d="M 172.595, 522.247 
	L 172.595, 522.248 
	L 172.595, 0.035 
" />
<path d="M 177.131, 522.247 
	L 177.130, 522.248 
	L 177.130, 0.035 
" />
<path d="M 181.666, 522.247 
	L 181.665, 522.248 
	L 181.665, 0.035 
" />
<path d="M 186.202, 522.247 
	L 186.201, 522.248 
	L 186.201, 0.035 
" />
<path d="M 190.737, 522.247 
	L 190.736, 522.248 
	L 190.736, 0.035 
" />
<path d="M 195.272, 522.247 
	L 195.272, 522.248 
	L 195.272, 0.035 
" />
<path d="M 199.808, 522.247 
	L 199.807, 522.248 
	L 199.807, 0.035 
" />
<path d="M 204.343, 522.247 
	L 204.343, 522.248 
	L 204.343, 0.035 
" />
<path d="M 208.879, 522.247 
	L 208.878, 522.248 
	L 208.878, 0.035 
" />
<path d="M 213.414, 522.247 
	L 213.413, 522.248 
	L 213.413, 0.035 
" />
<path d="M 217.950, 522.247 
	L 217.949, 522.248 
	L 217.949, 0.035 
" />
<path d="M 222.485, 522.247 
	L 222.484, 522.248 
	L 222.484, 0.035 
" />
<path d="M 227.020, 522.247 
	L 227.020, 522.248 
	L 227.020, 0.035 
" />
<path d="M 231.556, 522.247 
	L 231.555, 522.248 
	L 231.555, 0.035 
" />
<path d="M 236.091, 522.247 
	L 236.091, 522.248 
	L 236.091, 0.035 
" />
<path d="M 240.627, 522.247 
	L 240.626, 522.248 
	L 240.626, 0.035 
" />
<path d="M 245.162, 522.247 
	L 245.161, 522.248 
	L 245.161, 0.035 
" />
<path d="M 249.698, 522.247 
	L 249.697, 522.248 
	L 249.697, 0.035 
" />
<path d="M 254.233, 522.247 
	L 254.232, 522.248 
	L 254.232, 0.035 
" />
<path d="M 258.768, 522.247 
	L 258.768, 522.248 
	L 258.768, 0.035 
" />
<path d="M 263.304, 522.247 
	L 263.303, 522.248 
	L 263.303, 0.035 
" />
<path d="M 267.839, 522.247 
	L 267.839, 522.248 
	L 267.839, 0.035 
" />
<path d="M 272.375, 522.247 
	L 272.374, 522.248 
	L 272.374, 0.035 
" />
<path d="M 276.910, 522.247 
	L 276.909, 522.248 
	L 276.909, 0.035 
" />
<path d="M 281.446, 522.247 
	L 281.445, 522.248 
	L 281.445, 0.035 
" />
<path d="M 285.981, 522.247 
	L 285.980, 522.248 
	L 285.980, 0.035 
" />
<path d="M 290.516, 522.247 
	L 290.516, 522.248 
	L 290.516, 0.035 
" />
<path d="M 295.052, 522.247 
	L 295.051, 522.248 
	L 295.051, 0.035 
" />
<path d="M 299.587, 522.247 
	L 299.587, 522.248 
	L 299.587, 0.035 
" />
<path d="M 304.123, 522.247 
	L 304.122, 522.248 
	L 304.122, 0.035 
" />
<path d="M 308.658, 522.247 
	L 308.658, 522.248 
	L 308.658, 0.035 
" />
<path d="M 313.194, 522.247 
	L 313.193, 522.248 
	L 313.193, 0.035 
" />
<path d="M 317.729, 522.247 
	L 317.728, 522.248 
	L 317.728, 0.035 
" />
<path d="M 322.265, 522.247 
	L 322.264, 522.248 
	L 322.264, 0.035 
" />
<path d="M 326.800, 522.247 
	L 326.799, 522.248 
	L 326.799, 0.035 
" />
<path d="M 331.335, 522.247 
	L 331.335, 522.248 
	L 331.335, 0.035 
" />
<path d="M 335.871, 522.247 
	L 335.870, 522.248 
	L 335.870, 0.035 
" />
<path d="M 340.406, 522.247 
	L 340.406, 522.248 
	L 340.406, 0.035 
" />
<path d="M 344.942, 522.247 
	L 344.941, 522.248 
	L 344.941, 0.035 
" />
<path d="M 349.477, 522.247 
	L 349.476, 522.248 
	L 349.476, 0.035 
" />
<path d="M 354.013, 522.247 
	L 354.012, 522.248 
	L 354.012, 0.035 
" />
<path d="M 358.548, 522.247 
	L 358.547, 522.248 
	L 358.547, 0.035 
" />
<path d="M 363.083, 522.247 
	L 363.083, 522.248 
	L 363.083, 0.035 
" />
<path d="M 367.619, 522.247 
	L 367.618, 522.248 
	L 367.618, 0.035 
" />
<path d="M 372.154, 522.247 
	L 372.154, 522.248 
	L 372.154, 0.035 
" />
<path d="M 376.690, 522.247 
	L 376.689, 522.248 
	L 376.689, 0.035 
" />
<path d="M 381.225, 522.247 
	L 381.224, 522.248 
	L 381.224, 0.035 
" />
<path d="M 385.761, 522.247 
	L 385.760, 522.248 
	L 385.760, 0.035 
" />
<path d="M 390.296, 522.247 
	L 390.295, 522.248 
	L 390.295, 0.035 
" />
<path d="M 394.831, 522.247 
	L 394.831, 522.248 
	L 394.831, 0.035 
" />
<path d="M 399.367, 522.247 
	L 399.366, 522.248 
	L 399.366, 0.035 
" />
<path d="M 403.902, 522.247 
	L 403.902, 522.248 
	L 403.902, 0.035 
" />
<path d="M 408.438, 522.247 
	L 408.437, 522.248 
	L 408.437, 0.035 
" />
<path d="M 412.973, 522.247 
	L 412.973, 522.248 
	L 412.973, 0.035 
" />
<path d="M 417.509, 522.247 
	L 417.508, 522.248 
	L 417.508, 0.035 
" />
<path d="M 422.044, 522.247 
	L 422.043, 522.248 
	L 422.043, 0.035 
" />
<path d="M 426.579, 522.247 
	L 426.579, 522.248 
	L 426.579, 0.035 
" />
<path d="M 431.115, 522.247 
	L 431.114, 522.248 
	L 431.114, 0.035 
" />
<path d="M 435.650, 522.247 
	L 435.650, 522.248 
	L 435.650, 0.035 
" />
<path d="M 440.186, 522.247 
	L 440.185, 522.248 
	L 440.185, 0.035 
" />
<path d="M 444.721, 522.247 
	L 444.721, 522.248 
	L 444.721, 0.035 
" />
<path d="M 449.257, 522.247 
	L 449.256, 522.248 
	L 449.256, 0.035 
" />
<path d="M 453.792, 522.247 
	L 453.791, 522.248 
	L 453.791, 0.035 
" />
<path d="M 458.328, 522.247 
	L 458.327, 522.248 
	L 458.327, 0.035 
" />
<path d="M 462.863, 522.247 
	L 462.862, 522.248 
	L 462.862, 0.035 
" />
<path d="M 467.398, 522.247 
	L 467.398, 522.248 
	L 467.398, 0.035 
" />
<path d="M 471.934, 522.247 
	L 471.933, 522.248 
	L 471.933, 0.035 
" />
<path d="M 476.469, 522.247 
	L 476.469, 522.248 
	L 476.469, 0.035 
" />
<path d="M 481.005, 522.247 
	L 481.004, 522.248 
	L 481.004, 0.035 
" />
<path d="M 485.540, 522.247 
	L 485.539, 522.248 
	L 485.539, 0.035 
" />
<path d="M 490.076, 522.247 
	L 490.075, 522.248 
	L 490.075, 0.035 
" />
<path d="M 494.611, 522.247 
	L 494.610, 522.248 
	L 494.610, 0.035 
" />
<path d="M 499.146, 522.247 
	L 499.146, 522.248 
	L 499.146, 0.035 
" />
<path d="M 503.682, 522.247 
	L 503.681, 522.248 
	L 503.681, 0.035 
" />
<path d="M 508.217, 522.247 
	L 508.217, 522.248 
	L 508.217, 0.035 
" />
<path d="M 512.753, 522.247 
	L 512.752, 522.248 
	L 512.752, 0.035 
" />
<path d="M 517.288, 522.247 
	L 517.287, 522.248 
	L 517.287, 0.035 
" />
<path d="M 521.824, 522.247 
	L 521.823, 522.248 
	L 521.823, 0.035 
" />
<path d="M 104.564, 591.129 
	L 104.563, 591.130 
	L 104.563, 522.248 
	L 527.350, 522.248 
	L 527.350, 591.130 
	L 104.563, 591.130 
" />
<path d="M 104.564, 591.129 
	L 104.563, 591.130 
	L 104.563, 522.248 
" />
<path d="M 109.099, 591.129 
	L 109.098, 591.130 
	L 109.098, 522.248 
" />
<path d="M 113.635, 591.129 
	L 113.634, 591.130 
	L 113.634, 522.248 
" />
<path d="M 118.170, 591.129 
	L 118.169, 591.130 
	L 118.169, 522.248 
" />
<path d="M 122.705, 591.129 
	L 122.705, 591.130 
	L 122.705, 522.248 
" />
<path d="M 127.241, 591.129 
	L 127.240, 591.130 
	L 127.240, 522.248 
" />
<path d="M 131.776, 591.129 
	L 131.776, 591.130 
	L 131.776, 522.248 
" />
<path d="M 136.312, 591.129 
	L 136.311, 591.130 
	L 136.311, 522.248 
" />
<path d="M 140.847, 591.129 
	L 140.846, 591.130 
	L 140.846, 522.248 
" />
<path d="M 145.383, 591.129 
	L 145.382, 591.130 
	L 145.382, 522.248 
" />
<path d="M 149.918, 591.129 
	L 149.917, 591.130 
	L 149.917, 522.248 
" />
<path d="M 154.453, 591.129 
	L 154.453, 591.130 
	L 154.453, 522.248 
" />
<path d="M 158.989, 591.129 
	L 158.988, 591.130 
	L 158.988, 522.248 
" />
<path d="M 163.524, 591.129 
	L 163.524, 591.130 
	L 163.524, 522.248 
" />
<path d="M 168.060, 591.129 
	L 168.059, 591.130 
	L 168.059, 522.248 
" />
<path d="M 172.595, 591.129 
	L 172.595, 591.130 
	L 172.595, 522.248 
" />
<path d="M 177.131, 591.129 
	L 177.130, 591.130 
	L 177.130, 522.248 
" />
<path d="M 181.666, 591.129 
	L 181.665, 591.130 
	L 181.665, 522.248 
" />
<path d="M 186.202, 591.129 
	L 186.201, 591.130 
	L 186.201, 522.248 
" />
<path d="M 190.737, 591.129 
	L 190.736, 591.130 
	L 190.736, 522.248 
" />
<path d="M 195.272, 591.129 
	L 195.272, 591.130 
	L 195.272, 522.248 
" />
<path d="M 199.808, 591.129 
	L 199.807, 591.130 
	L 199.807, 522.248 
" />
<path d="M 204.343, 591.129 
	L 204.343, 591.130 
	L 204.343, 522.248 
" />
<path d="M 208.879, 591.129 
	L 208.878, 591.130 
	L 208.878, 522.248 
" />
<path d="M 213.414, 591.129 
	L 213.413, 591.130 
	L 213.413, 522.248 
" />
<path d="M 217.950, 591.129 
	L 217.949, 591.130 
	L 217.949, 522.248 
" />
<path d="M 222.485, 591.129 
	L 222.484, 591.130 
	L 222.484, 522.248 
" />
<path d="M 227.020, 591.129 
	L 227.020, 591.130 
	L 227.020, 522.248 
" />
<path d="M 231.556, 591.129 
	L 231.555, 591.130 
	L 231.555, 522.248 
" />
<path d="M 236.091, 591.129 
	L 236.091, 591.130 
	L 236.091, 522.248 
" />
<path d="M 240.627, 591.129 
	L 240.626, 591.130 
	L 240.626, 522.248 
" />
<path d="M 245.162, 591.129 
	L 245.161, 591.130 
	L 245.161, 522.248 
" />
<path d="M 249.698, 591.129 
	L 249.697, 591.130 
	L 249.697, 522.248 
" />
<path d="M 254.233, 591.129 
	L 254.232, 591.130 
	L 254.232, 522.248 
" />
<path d="M 258.768, 591.129 
	L 258.768, 591.130 
	L 258.768, 522.248 
" />
<path d="M 263.304, 591.129 
	L 263.303, 591.130 
	L 263.303, 522.248 
" />
<path d="M 267.839, 591.129 
	L 267.839, 591.130 
	L 267.839, 522.248 
" />
<path d="M 272.375, 591.129 
	L 272.374, 591.130 
	L 272.374, 522.248 
" />
<path d="M 276.910, 591.129 
	L 276.909, 591.130 
	L 276.909, 522.248 
" />
<path d="M 281.446, 591.129 
	L 281.445, 591.130 
	L 281.445, 522.248 
" />
<path d="M 285.981, 591.129 
	L 285.980, 591.130 
	L 285.980, 522.248 
" />
<path d="M 290.516, 591.129 
	L 290.516, 591.130 
	L 290.516, 522.248 
" />
<path d="M 295.052, 591.129 
	L 295.051, 591.130 
	L 295.051, 522.248 
" />
<path d="M 299.587, 591.129 
	L 299.587, 591.130 
	L 299.587, 522.248 
" />
<path d="M 304.123, 591.129 
	L 304.122, 591.130 
	L 304.122, 522.248 
" />
<path d="M 308.658, 591.129 
	L 308.658, 591.130 
	L 308.658, 522.248 
" />
<path d="M 313.194, 591.129 
	L 313.193, 591.130 
	L 313.193, 522.248 
" />
<path d="M 317.729, 591.129 
	L 317.728, 591.130 
	L 317.728, 522.248 
" />
<path d="M 322.265, 591.129 
	L 322.264, 591.130 
	L 322.264, 522.248 
" />
<path d="M 326.800, 591.129 
	L 326.799, 591.130 
	L 326.799, 522.248 
" />
<path d="M 331.335, 591.129 
	L 331.335, 591.130 
	L 331.335, 522.248 
" />
<path d="M 335.871, 591.129 
	L 335.870, 591.130 
	L 335.870, 522.248 
" />
<path d="M 340.406, 591.129 
	L 340.406, 591.130 
	L 340.406, 522.248 
" />
<path d="M 344.942, 591.129 
	L 344.941, 591.130 
	L 344.941, 522.248 
" />
<path d="M 349.477, 591.129 
	L 349.476, 591.130 
	L 349.476, 522.248 
" />
<path d="M 354.013, 591.129 
	L 354.012, 591.130 
	L 354.012, 522.248 
" />
<path d="M 358.548, 591.129 
	L 358.547, 591.130 
	L 358.547, 522.248 
" />
<path d="M 363.083, 591.129 
	L 363.083, 591.130 
	L 363.083, 522.248 
" />
<path d="M 367.619, 591.129 
	L 367.618, 591.130 
	L 367.618, 522.248 
" />
<path d="M 372.154, 591.129 
	L 372.154, 591.130 
	L 372.154, 522.248 
" />
<path d="M 376.690, 591.129 
	L 376.689, 591.130 
	L 376.689, 522.248 
" />
<path d="M 381.225, 591.129 
	L 381.224, 591.130 
	L 381.224, 522.248 
" />
<path d="M 385.761, 591.129 
	L 385.760, 591.130 
	L 385.760, 522.248 
" />
<path d="M 390.296, 591.129 
	L 390.295, 591.130 
	L 390.295, 522.248 
" />
<path d="M 394.831, 591.129 
	L 394.831, 591.130 
	L 394.831, 522.248 
" />
<path d="M 399.367, 591.129 
	L 399.366, 591.130 
	L 399.366, 522.248 
" />
<path d="M 403.902, 591.129 
	L 403.902, 591.130 
	L 403.902, 522.248 
" />
<path d="M 408.438, 591.129 
	L 408.437, 591.130 
	L 408.437, 522.248 
" />
<path d="M 412.973, 591.129 
	L 412.973, 591.130 
	L 412.973, 522.248 
" />
<path d="M 417.509, 591.129 
	L 417.508, 591.130 
	L 417.508, 522.248 
" />
<path d="M 422.044, 591.129 
	L 422.043, 591.130 
	L 422.043, 522.248 
" />
<path d="M 426.579, 591.129 
	L 426.579, 591.130 
	L 426.579, 522.248 
" />
<path d="M 431.115, 591.129 
	L 431.114, 591.130 
	L 431.114, 522.248 
" />
<path d="M 435.650, 591.129 
	L 435.650, 591.130 
	L 435.650, 522.248 
" />
<path d="M 440.186, 591.129 
	L 440.185, 591.130 
	L 440.185, 522.248 
" />
<path d="M 444.721, 591.129 
	L 444.721, 591.130 
	L 444.721, 522.248 
" />
<path d="M 449.257, 591.129 
	L 449.256, 591.130 
	L 449.256, 522.248 
" />
<path d="M 453.792, 591.129 
	L 453.791, 591.130 
	L 453.791, 522.248 
" />
<path d="M 458.328, 591.129 
	L 458.327, 591.130 
	L 458.327, 522.248 
" />
<path d="M 462.863, 591.129 
	L 462.862, 591.130 
	L 462.862, 522.248 
" />
<path d="M 467.398, 591.129 
	L 467.398, 591.130 
	L 467.398, 522.248 
" />
<path d="M 471.934, 591.129 
	L 471.933, 591.130 
	L 471.933, 522.248 
" />
<path d="M 476.469, 591.129 
	L 476.469, 591.130 
	L 476.469, 522.248 
" />
<path d="M 481.005, 591.129 
	L 481.004, 591.130 
	L 481.004, 522.248 
" />
<path d="M 485.540, 591.129 
	L 485.539, 591.130 
	L 485.539, 522.248 
" />
<path d="M 490.076, 591.129 
	L 490.075, 591.130 
	L 490.075, 522.248 
" />
<path d="M 494.611, 591.129 
	L 494.610, 591.130 
	L 494.610, 522.248 
" />
<path d="M 499.146, 591.129 
	L 499.146, 591.130 
	L 499.146, 522.248 
" />
<path d="M 503.682, 591.129 
	L 503.681, 591.130 
	L 503.681, 522.248 
" />
<path d="M 508.217, 591.129 
	L 508.217, 591.130 
	L 508.217, 522.248 
" />
<path d="M 512.753, 591.129 
	L 512.752, 591.130 
	L 512.752, 522.248 
" />
<path d="M 517.288, 591.129 
	L 517.287, 591.130 
	L 517.287, 522.248 
" />
<path d="M 521.824, 591.129 
	L 521.823, 591.130 
	L 521.823, 522.248 
" />
<path d="M 527.351, 591.129 
	L 527.350, 591.130 
	L 527.350, 338.421 
	L 566.327, 338.421 
	L 566.327, 591.130 
	L 527.350, 591.130 
" />
<path d="M 527.351, 591.129 
	L 527.350, 591.130 
	L 527.350, 338.421 
" />
<path d="M 531.887, 591.129 
	L 531.886, 591.130 
	L 531.886, 338.421 
" />
<path d="M 536.422, 591.129 
	L 536.421, 591.130 
	L 536.421, 338.421 
" />
<path d="M 540.957, 591.129 
	L 540.957, 591.130 
	L 540.957, 338.421 
" />
<path d="M 545.493, 591.129 
	L 545.492, 591.130 
	L 545.492, 338.421 
" />
<path d="M 550.028, 591.129 
	L 550.028, 591.130 
	L 550.028, 338.421 
" />
<path d="M 554.564, 591.129 
	L 554.563, 591.130 
	L 554.563, 338.421 
" />
<path d="M 559.099, 591.129 
	L 559.099, 591.130 
	L 559.099, 338.421 
" />
<path d="M 527.351, 338.456 
	L 527.350, 338.457 
	L 527.350, 0.071 
	L 566.327, 0.071 
	L 566.327, 338.457 
	L 527.350, 338.457 
" />
<path d="M 527.351, 338.421 
	L 527.350, 338.421 
	L 527.350, 0.035 
" />
<path d="M 531.887, 338.421 
	L 531.886, 338.421 
	L 531.886, 0.035 
" />
<path d="M 536.422, 338.421 
	L 536.421, 338.421 
	L 536.421, 0.035 
" />
<path d="M 540.957, 338.421 
	L 540.957, 338.421 
	L 540.957, 0.035 
" />
<path d="M 545.493, 338.421 
	L 545.492, 338.421 
	L 545.492, 0.035 
" />
<path d="M 550.028, 338.421 
	L 550.028, 338.421 
	L 550.028, 0.035 
" />
<path d="M 554.564, 338.421 
	L 554.563, 338.421 
	L 554.563, 0.035 
" />
<path d="M 559.099, 338.421 
	L 559.099, 338.421 
	L 559.099, 0.035 
" />
<path d="M 566.292, 338.456 
	L 566.291, 338.457 
	L 566.291, 0.071 
	L 708.662, 0.071 
	L 708.662, 338.457 
	L 566.291, 338.457 
" />
<path d="M 566.328, 338.421 
	L 566.327, 338.421 
	L 566.327, 0.035 
" />
<path d="M 570.863, 338.421 
	L 570.862, 338.421 
	L 570.862, 0.035 
" />
<path d="M 575.398, 338.421 
	L 575.398, 338.421 
	L 575.398, 0.035 
" />
<path d="M 579.934, 338.421 
	L 579.933, 338.421 
	L 579.933, 0.035 
" />
<path d="M 584.469, 338.421 
	L 584.469, 338.421 
	L 584.469, 0.035 
" />
<path d="M 589.005, 338.421 
	L 589.004, 338.421 
	L 589.004, 0.035 
" />
<path d="M 593.540, 338.421 
	L 593.539, 338.421 
	L 593.539, 0.035 
" />
<path d="M 598.076, 338.421 
	L 598.075, 338.421 
	L 598.075, 0.035 
" />
<path d="M 602.611, 338.421 
	L 602.610, 338.421 
	L 602.610, 0.035 
" />
<path d="M 607.146, 338.421 
	L 607.146, 338.421 
	L 607.146, 0.035 
" />
<path d="M 611.682, 338.421 
	L 611.681, 338.421 
	L 611.681, 0.035 
" />
<path d="M 616.217, 338.421 
	L 616.217, 338.421 
	L 616.217, 0.035 
" />
<path d="M 620.753, 338.421 
	L 620.752, 338.421 
	L 620.752, 0.035 
" />
<path d="M 625.288, 338.421 
	L 625.287, 338.421 
	L 625.287, 0.035 
" />
<path d="M 629.824, 338.421 
	L 629.823, 338.421 
	L 629.823, 0.035 
" />
<path d="M 634.359, 338.421 
	L 634.358, 338.421 
	L 634.358, 0.035 
" />
<path d="M 638.894, 338.421 
	L 638.894, 338.421 
	L 638.894, 0.035 
" />
<path d="M 643.430, 338.421 
	L 643.429, 338.421 
	L 643.429, 0.035 
" />
<path d="M 647.965, 338.421 
	L 647.965, 338.421 
	L 647.965, 0.035 
" />
<path d="M 652.501, 338.421 
	L 652.500, 338.421 
	L 652.500, 0.035 
" />
<path d="M 657.036, 338.421 
	L 657.036, 338.421 
	L 657.036, 0.035 
" />
<path d="M 661.572, 338.421 
	L 661.571, 338.421 
	L 661.571, 0.035 
" />
<path d="M 666.107, 338.421 
	L 666.106, 338.421 
	L 666.106, 0.035 
" />
<path d="M 670.643, 338.421 
	L 670.642, 338.421 
	L 670.642, 0.035 
" />
<path d="M 675.178, 338.421 
	L 675.177, 338.421 
	L 675.177, 0.035 
" />
<path d="M 679.713, 338.421 
	L 679.713, 338.421 
	L 679.713, 0.035 
" />
<path d="M 684.249, 338.421 
	L 684.248, 338.421 
	L 684.248, 0.035 
" />
<path d="M 688.784, 338.421 
	L 688.784, 338.421 
	L 688.784, 0.035 
" />
<path d="M 693.320, 338.421 
	L 693.319, 338.421 
	L 693.319, 0.035 
" />
<path d="M 697.855, 338.421 
	L 697.854, 338.421 
	L 697.854, 0.035 
" />
<path d="M 702.391, 338.421 
	L 702.390, 338.421 
	L 702.390, 0.035 
" />
<path d="M 566.292, 591.129 
	L 566.291, 591.130 
	L 566.291, 338.421 
	L 708.662, 338.421 
	L 708.662, 591.130 
	L 566.291, 591.130 
" />
<path d="M 566.328, 591.129 
	L 566.327, 591.130 
	L 566.327, 338.421 
" />
<path d="M 570.863, 591.129 
	L 570.862, 591.130 
	L 570.862, 338.421 
" />
<path d="M 575.398, 591.129 
	L 575.398, 591.130 
	L 575.398, 338.421 
" />
<path d="M 579.934, 591.129 
	L 579.933, 591.130 
	L 579.933, 338.421 
" />
<path d="M 584.469, 591.129 
	L 584.469, 591.130 
	L 584.469, 338.421 
" />
<path d="M 589.005, 591.129 
	L 589.004, 591.130 
	L 589.004, 338.421 
" />
<path d="M 593.540, 591.129 
	L 593.539, 591.130 
	L 593.539, 338.421 
" />
<path d="M 598.076, 591.129 
	L 598.075, 591.130 
	L 598.075, 338.421 
" />
<path d="M 602.611, 591.129 
	L 602.610, 591.130 
	L 602.610, 338.421 
" />
<path d="M 607.146, 591.129 
	L 607.146, 591.130 
	L 607.146, 338.421 
" />
<path d="M 611.682, 591.129 
	L 611.681, 591.130 
	L 611.681, 338.421 
" />
<path d="M 616.217, 591.129 
	L 616.217, 591.130 
	L 616.217, 338.421 
" />
<path d="M 620.753, 591.129 
	L 620.752, 591.130 
	L 620.752, 338.421 
" />
<path d="M 625.288, 591.129 
	L 625.287, 591.130 
	L 625.287, 338.421 
" />
<path d="M 629.824, 591.129 
	L 629.823, 591.130 
	L 629.823, 338.421 
" />
<path d="M 634.359, 591.129 
	L 634.358, 591.130 
	L 634.358, 338.421 
" />
<path d="M 638.894, 591.129 
	L 638.894, 591.130 
	L 638.894, 338.421 
" />
<path d="M 643.430, 591.129 
	L 643.429, 591.130 
	L 643.429, 338.421 
" />
<path d="M 647.965, 591.129 
	L 647.965, 591.130 
	L 647.965, 338.421 
" />
<path d="M 652.501, 591.129 
	L 652.500, 591.130 
	L 652.500, 338.421 
" />
<path d="M 657.036, 591.129 
	L 657.036, 591.130 
	L 657.036, 338.421 
" />
<path d="M 661.572, 591.129 
	L 661.571, 591.130 
	L 661.571, 338.421 
" />
<path d="M 666.107, 591.129 
	L 666.106, 591.130 
	L 666.106, 338.421 
" />
<path d="M 670.643, 591.129 
	L 670.642, 591.130 
	L 670.642, 338.421 
" />
<path d="M 675.178, 591.129 
	L 675.177, 591.130 
	L 675.177, 338.421 
" />
<path d="M 679.713, 591.129 
	L 679.713, 591.130 
	L 679.713, 338.421 
" />
<path d="M 684.249, 591.129 
	L 684.248, 591.130 
	L 684.248, 338.421 
" />
<path d="M 688.784, 591.129 
	L 688.784, 591.130 
	L 688.784, 338.421 
" />
<path d="M 693.320, 591.129 
	L 693.319, 591.130 
	L 693.319, 338.421 
" />
<path d="M 697.855, 591.129 
	L 697.854, 591.130 
	L 697.854, 338.421 
" />
<path d="M 702.391, 591.129 
	L 702.390, 591.130 
	L 702.390, 338.421 
" />
<path d="M 527.351, 708.696 
	L 527.350, 708.697 
	L 527.350, 678.650 
	L 535.004, 678.650 
	L 535.004, 708.697 
	L 527.350, 708.697 
" />
<path d="M 527.351, 708.696 
	L 527.350, 708.697 
	L 527.350, 678.650 
" />
<path d="M 527.351, 678.684 
	L 527.350, 678.685 
	L 527.350, 591.165 
	L 535.004, 591.165 
	L 535.004, 678.685 
	L 527.350, 678.685 
" />
<path d="M 527.351, 678.649 
	L 527.350, 678.650 
	L 527.350, 591.130 
" />
<path d="M 534.969, 678.684 
	L 534.969, 678.685 
	L 534.969, 591.165 
	L 708.662, 591.165 
	L 708.662, 678.685 
	L 534.969, 678.685 
" />
<path d="M 535.005, 678.649 
	L 535.004, 678.650 
	L 535.004, 591.130 
" />
<path d="M 539.540, 678.649 
	L 539.539, 678.650 
	L 539.539, 591.130 
" />
<path d="M 544.076, 678.649 
	L 544.075, 678.650 
	L 544.075, 591.130 
" />
<path d="M 548.611, 678.649 
	L 548.610, 678.650 
	L 548.610, 591.130 
" />
<path d="M 553.146, 678.649 
	L 553.146, 678.650 
	L 553.146, 591.130 
" />
<path d="M 557.682, 678.649 
	L 557.681, 678.650 
	L 557.681, 591.130 
" />
<path d="M 562.217, 678.649 
	L 562.217, 678.650 
	L 562.217, 591.130 
" />
<path d="M 566.753, 678.649 
	L 566.752, 678.650 
	L 566.752, 591.130 
" />
<path d="M 571.288, 678.649 
	L 571.287, 678.650 
	L 571.287, 591.130 
" />
<path d="M 575.824, 678.649 
	L 575.823, 678.650 
	L 575.823, 591.130 
" />
<path d="M 580.359, 678.649 
	L 580.358, 678.650 
	L 580.358, 591.130 
" />
<path d="M 584.894, 678.649 
	L 584.894, 678.650 
	L 584.894, 591.130 
" />
<path d="M 589.430, 678.649 
	L 589.429, 678.650 
	L 589.429, 591.130 
" />
<path d="M 593.965, 678.649 
	L 593.965, 678.650 
	L 593.965, 591.130 
" />
<path d="M 598.501, 678.649 
	L 598.500, 678.650 
	L 598.500, 591.130 
" />
<path d="M 603.036, 678.649 
	L 603.036, 678.650 
	L 603.036, 591.130 
" />
<path d="M 607.572, 678.649 
	L 607.571, 678.650 
	L 607.571, 591.130 
" />
<path d="M 612.107, 678.649 
	L 612.106, 678.650 
	L 612.106, 591.130 
" />
<path d="M 616.643, 678.649 
	L 616.642, 678.650 
	L 616.642, 591.130 
" />
<path d="M 621.178, 678.649 
	L 621.177, 678.650 
	L 621.177, 591.130 
" />
<path d="M 625.713, 678.649 
	L 625.713, 678.650 
	L 625.713, 591.130 
" />
<path d="M 630.249, 678.649 
	L 630.248, 678.650 
	L 630.248, 591.130 
" />
<path d="M 634.784, 678.649 
	L 634.784, 678.650 
	L 634.784, 591.130 
" />
<path d="M 639.320, 678.649 
	L 639.319, 678.650 
	L 639.319, 591.130 
" />
<path d="M 643.855, 678.649 
	L 643.854, 678.650 
	L 643.854, 591.130 
" />
<path d="M 648.391, 678.649 
	L 648.390, 678.650 
	L 648.390, 591.130 
" />
<path d="M 652.926, 678.649 
	L 652.925, 678.650 
	L 652.925, 591.130 
" />
<path d="M 657.461, 678.649 
	L 657.461, 678.650 
	L 657.461, 591.130 
" />
<path d="M 661.997, 678.649 
	L 661.996, 678.650 
	L 661.996, 591.130 
" />
<path d="M 666.532, 678.649 
	L 666.532, 678.650 
	L 666.532, 591.130 
" />
<path d="M 671.068, 678.649 
	L 671.067, 678.650 
	L 671.067, 591.130 
" />
<path d="M 675.603, 678.649 
	L 675.602, 678.650 
	L 675.602, 591.130 
" />
<path d="M 680.139, 678.649 
	L 680.138, 678.650 
	L 680.138, 591.130 
" />
<path d="M 684.674, 678.649 
	L 684.673, 678.650 
	L 684.673, 591.130 
" />
<path d="M 689.209, 678.649 
	L 689.209, 678.650 
	L 689.209, 591.130 
" />
<path d="M 693.745, 678.649 
	L 693.744, 678.650 
	L 693.744, 591.130 
" />
<path d="M 698.280, 678.649 
	L 698.280, 678.650 
	L 698.280, 591.130 
" />
<path d="M 702.816, 678.649 
	L 702.815, 678.650 
	L 702.815, 591.130 
" />
<path d="M 534.969, 708.696 
	L 534.969, 708.697 
	L 534.969, 678.650 
	L 708.662, 678.650 
	L 708.662, 708.697 
	L 534.969, 708.697 
" />
<path d="M 535.005, 708.696 
	L 535.004, 708.697 
	L 535.004, 678.650 
" />
<path d="M 539.540, 708.696 
	L 539.539, 708.697 
	L 539.539, 678.650 
" />
<path d="M 544.076, 708.696 
	L 544.075, 708.697 
	L 544.075, 678.650 
" />
<path d="M 548.611, 708.696 
	L 548.610, 708.697 
	L 548.610, 678.650 
" />
<path d="M 553.146, 708.696 
	L 553.146, 708.697 
	L 553.146, 678.650 
" />
<path d="M 557.682, 708.696 
	L 557.681, 708.697 
	L 557.681, 678.650 
" />
<path d="M 562.217, 708.696 
	L 562.217, 708.697 
	L 562.217, 678.650 
" />
<path d="M 566.753, 708.696 
	L 566.752, 708.697 
	L 566.752, 678.650 
" />
<path d="M 571.288, 708.696 
	L 571.287, 708.697 
	L 571.287, 678.650 
" />
<path d="M 575.824, 708.696 
	L 575.823, 708.697 
	L 575.823, 678.650 
" />
<path d="M 580.359, 708.696 
	L 580.358, 708.697 
	L 580.358, 678.650 
" />
<path d="M 584.894, 708.696 
	L 584.894, 708.697 
	L 584.894, 678.650 
" />
<path d="M 589.430, 708.696 
	L 589.429, 708.697 
	L 589.429, 678.650 
" />
<path d="M 593.965, 708.696 
	L 593.965, 708.697 
	L 593.965, 678.650 
" />
<path d="M 598.501, 708.696 
	L 598.500, 708.697 
	L 598.500, 678.650 
" />
<path d="M 603.036, 708.696 
	L 603.036, 708.697 
	L 603.036, 678.650 
" />
<path d="M 607.572, 708.696 
	L 607.571, 708.697 
	L 607.571, 678.650 
" />
<path d="M 612.107, 708.696 
	L 612.106, 708.697 
	L 612.106, 678.650 
" />
<path d="M 616.643, 708.696 
	L 616.642, 708.697 
	L 616.642, 678.650 
" />
<path d="M 621.178, 708.696 
	L 621.177, 708.697 
	L 621.177, 678.650 
" />
<path d="M 625.713, 708.696 
	L 625.713, 708.697 
	L 625.713, 678.650 
" />
<path d="M 630.249, 708.696 
	L 630.248, 708.697 
	L 630.248, 678.650 
" />
<path d="M 634.784, 708.696 
	L 634.784, 708.697 
	L 634.784, 678.650 
" />
<path d="M 639.320, 708.696 
	L 639.319, 708.697 
	L 639.319, 678.650 
" />
<path d="M 643.855, 708.696 
	L 643.854, 708.697 
	L 643.854, 678.650 
" />
<path d="M 648.391, 708.696 
	L 648.390, 708.697 
	L 648.390, 678.650 
" />
<path d="M 652.926, 708.696 
	L 652.925, 708.697 
	L 652.925, 678.650 
" />
<path d="M 657.461, 708.696 
	L 657.461, 708.697 
	L 657.461, 678.650 
" />
<path d="M 661.997, 708.696 
	L 661.996, 708.697 
	L 661.996, 678.650 
" />
<path d="M 666.532, 708.696 
	L 666.532, 708.697 
	L 666.532, 678.650 
" />
<path d="M 671.068, 708.696 
	L 671.067, 708.697 
	L 671.067, 678.650 
" />
<path d="M 675.603, 708.696 
	L 675.602, 708.697 
	L 675.602, 678.650 
" />
<path d="M 680.139, 708.696 
	L 680.138, 708.697 
	L 680.138, 678.650 
" />
<path d="M 684.674, 708.696 
	L 684.673, 708.697 
	L 684.673, 678.650 
" />
<path d="M 689.209, 708.696 
	L 689.209, 708.697 
	L 689.209, 678.650 
" />
<path d="M 693.745, 708.696 
	L 693.744, 708.697 
	L 693.744, 678.650 
" />
<path d="M 698.280, 708.696 
	L 698.280, 708.697 
	L 698.280, 678.650 
" />
<path d="M 702.816, 708.696 
	L 702.815, 708.697 
	L 702.815, 678.650 
" />
</g>
</svg>
