<?xml version="1.0" encoding="UTF-8" standalone="no" ?>
<svg width="100%" height="100%" viewBox="0 0 1067.102 312.095" xmlns="http://www.w3.org/2000/svg"><g>
</g><g style="stroke:rgb(0,0,0); fill:none; stroke-width:1.000mm" >
<path d="M 0.000, 312.095 
	L 0.000, 6.874 
" />
<path d="M 1.772, 312.095 
	L 1.772, 6.874 
" />
<path d="M 3.543, 312.095 
	L 3.543, 6.874 
" />
<path d="M 5.315, 312.095 
	L 5.315, 6.874 
" />
<path d="M 7.087, 312.095 
	L 7.087, 6.874 
" />
<path d="M 8.858, 312.095 
	L 8.858, 6.874 
" />
<path d="M 10.630, 312.095 
	L 10.630, 6.874 
" />
<path d="M 12.402, 312.095 
	L 12.402, 6.874 
" />
<path d="M 14.173, 312.095 
	L 14.173, 6.874 
" />
<path d="M 15.945, 312.095 
	L 15.945, 6.874 
" />
<path d="M 17.717, 312.095 
	L 17.717, 6.874 
" />
<path d="M 19.488, 312.095 
	L 19.488, 6.874 
" />
<path d="M 21.260, 312.095 
	L 21.260, 6.874 
" />
<path d="M 23.031, 312.095 
	L 23.031, 6.874 
" />
<path d="M 24.803, 312.095 
	L 24.803, 6.874 
" />
<path d="M 26.575, 312.095 
	L 26.575, 6.874 
" />
<path d="M 28.346, 312.095 
	L 28.346, 6.874 
" />
<path d="M 30.118, 312.095 
	L 30.118, 6.874 
" />
<path d="M 31.890, 312.095 
	L 31.890, 6.874 
" />
<path d="M 33.661, 312.095 
	L 33.661, 6.874 
" />
<path d="M 35.433, 312.095 
	L 35.433, 6.874 
" />
<path d="M 37.205, 312.095 
	L 37.205, 6.874 
" />
<path d="M 38.976, 312.095 
	L 38.976, 6.874 
" />
<path d="M 40.748, 312.095 
	L 40.748, 6.874 
" />
<path d="M 42.520, 312.095 
	L 42.520, 6.874 
" />
<path d="M 44.291, 312.095 
	L 44.291, 6.874 
" />
<path d="M 46.063, 312.095 
	L 46.063, 6.874 
" />
<path d="M 47.835, 312.095 
	L 47.835, 6.874 
" />
<path d="M 49.606, 312.095 
	L 49.606, 6.874 
" />
<path d="M 51.378, 312.095 
	L 51.378, 6.874 
" />
<path d="M 53.150, 312.095 
	L 53.150, 6.874 
" />
<path d="M 54.921, 312.095 
	L 54.921, 6.874 
" />
<path d="M 56.693, 312.095 
	L 56.693, 6.874 
" />
<path d="M 58.465, 312.095 
	L 58.465, 6.874 
" />
<path d="M 60.236, 312.095 
	L 60.236, 6.874 
" />
<path d="M 62.008, 312.095 
	L 62.008, 6.874 
" />
<path d="M 63.780, 312.095 
	L 63.780, 6.874 
" />
<path d="M 65.551, 312.095 
	L 65.551, 6.874 
" />
<path d="M 67.323, 312.095 
	L 67.323, 6.874 
" />
<path d="M 69.094, 312.095 
	L 69.094, 6.874 
" />
<path d="M 70.866, 312.095 
	L 70.866, 6.874 
" />
<path d="M 72.638, 312.095 
	L 72.638, 6.874 
" />
<path d="M 74.409, 312.095 
	L 74.409, 6.874 
" />
<path d="M 76.181, 312.095 
	L 76.181, 6.874 
" />
<path d="M 77.953, 312.095 
	L 77.953, 6.874 
" />
<path d="M 79.724, 312.095 
	L 79.724, 6.874 
" />
<path d="M 81.496, 312.095 
	L 81.496, 6.874 
" />
<path d="M 83.268, 312.095 
	L 83.268, 6.874 
" />
<path d="M 86.528, 312.095 
	L 86.528, 63.567 
" />
<path d="M 88.087, 312.095 
	L 88.087, 63.567 
" />
<path d="M 89.646, 312.095 
	L 89.646, 63.567 
" />
<path d="M 91.205, 312.095 
	L 91.205, 63.567 
" />
<path d="M 92.764, 312.095 
	L 92.764, 63.567 
" />
<path d="M 94.323, 312.095 
	L 94.323, 63.567 
" />
<path d="M 95.882, 312.095 
	L 95.882, 63.567 
" />
<path d="M 97.441, 312.095 
	L 97.441, 63.567 
" />
<path d="M 99.000, 312.095 
	L 99.000, 63.567 
" />
<path d="M 100.559, 312.095 
	L 100.559, 63.567 
" />
<path d="M 102.118, 312.095 
	L 102.118, 63.567 
" />
<path d="M 103.677, 312.095 
	L 103.677, 63.567 
" />
<path d="M 105.236, 312.095 
	L 105.236, 63.567 
" />
<path d="M 106.795, 312.095 
	L 106.795, 63.567 
" />
<path d="M 108.354, 312.095 
	L 108.354, 63.567 
" />
<path d="M 109.913, 312.095 
	L 109.913, 63.567 
" />
<path d="M 111.472, 312.095 
	L 111.472, 63.567 
" />
<path d="M 113.032, 312.095 
	L 113.032, 63.567 
" />
<path d="M 114.591, 312.095 
	L 114.591, 63.567 
" />
<path d="M 116.150, 312.095 
	L 116.150, 63.567 
" />
<path d="M 117.709, 312.095 
	L 117.709, 63.567 
" />
<path d="M 119.268, 312.095 
	L 119.268, 63.567 
" />
<path d="M 120.827, 312.095 
	L 120.827, 63.567 
" />
<path d="M 122.386, 312.095 
	L 122.386, 63.567 
" />
<path d="M 123.945, 312.095 
	L 123.945, 63.567 
" />
<path d="M 125.504, 312.095 
	L 125.504, 63.567 
" />
<path d="M 127.063, 312.095 
	L 127.063, 63.567 
" />
<path d="M 128.622, 312.095 
	L 128.622, 63.567 
" />
<path d="M 130.181, 312.095 
	L 130.181, 63.567 
" />
<path d="M 131.740, 312.095 
	L 131.740, 63.567 
" />
<path d="M 133.299, 312.095 
	L 133.299, 63.567 
" />
<path d="M 134.858, 312.095 
	L 134.858, 63.567 
" />
<path d="M 136.417, 312.095 
	L 136.417, 63.567 
" />
<path d="M 137.976, 312.095 
	L 137.976, 63.567 
" />
<path d="M 139.535, 312.095 
	L 139.535, 63.567 
" />
<path d="M 141.095, 312.095 
	L 141.095, 63.567 
" />
<path d="M 142.654, 312.095 
	L 142.654, 63.567 
" />
<path d="M 144.213, 312.095 
	L 144.213, 63.567 
" />
<path d="M 145.772, 312.095 
	L 145.772, 63.567 
" />
<path d="M 147.331, 312.095 
	L 147.331, 63.567 
" />
<path d="M 148.890, 312.095 
	L 148.890, 63.567 
" />
<path d="M 150.449, 312.095 
	L 150.449, 63.567 
" />
<path d="M 152.008, 312.095 
	L 152.008, 63.567 
" />
<path d="M 153.567, 312.095 
	L 153.567, 63.567 
" />
<path d="M 155.126, 312.095 
	L 155.126, 63.567 
" />
<path d="M 156.685, 312.095 
	L 156.685, 63.567 
" />
<path d="M 158.244, 312.095 
	L 158.244, 63.567 
" />
<path d="M 159.803, 312.095 
	L 159.803, 63.567 
" />
<path d="M 161.362, 312.095 
	L 161.362, 63.567 
" />
<path d="M 162.921, 312.095 
	L 162.921, 63.567 
" />
<path d="M 164.480, 312.095 
	L 164.480, 63.567 
" />
<path d="M 166.039, 312.095 
	L 166.039, 63.567 
" />
<path d="M 167.598, 312.095 
	L 167.598, 63.567 
" />
<path d="M 169.158, 312.095 
	L 169.158, 63.567 
" />
<path d="M 170.717, 312.095 
	L 170.717, 63.567 
" />
<path d="M 172.276, 312.095 
	L 172.276, 63.567 
" />
<path d="M 173.835, 312.095 
	L 173.835, 63.567 
" />
<path d="M 175.394, 312.095 
	L 175.394, 63.567 
" />
<path d="M 176.953, 312.095 
	L 176.953, 63.567 
" />
<path d="M 178.512, 312.095 
	L 178.512, 63.567 
" />
<path d="M 180.071, 312.095 
	L 180.071, 63.567 
" />
<path d="M 181.630, 312.095 
	L 181.630, 63.567 
" />
<path d="M 183.189, 312.095 
	L 183.189, 63.567 
" />
<path d="M 184.748, 312.095 
	L 184.748, 63.567 
" />
<path d="M 186.307, 312.095 
	L 186.307, 63.567 
" />
<path d="M 187.866, 312.095 
	L 187.866, 63.567 
" />
<path d="M 189.425, 312.095 
	L 189.425, 63.567 
" />
<path d="M 190.984, 312.095 
	L 190.984, 63.567 
" />
<path d="M 192.543, 312.095 
	L 192.543, 63.567 
" />
<path d="M 194.102, 312.095 
	L 194.102, 63.567 
" />
<path d="M 195.661, 312.095 
	L 195.661, 63.567 
" />
<path d="M 197.221, 312.095 
	L 197.221, 63.567 
" />
<path d="M 198.780, 312.095 
	L 198.780, 63.567 
" />
<path d="M 200.339, 312.095 
	L 200.339, 63.567 
" />
<path d="M 201.898, 312.095 
	L 201.898, 63.567 
" />
<path d="M 203.457, 312.095 
	L 203.457, 63.567 
" />
<path d="M 205.016, 312.095 
	L 205.016, 63.567 
" />
<path d="M 206.575, 312.095 
	L 206.575, 63.567 
" />
<path d="M 208.134, 312.095 
	L 208.134, 63.567 
" />
<path d="M 209.693, 312.095 
	L 209.693, 63.567 
" />
<path d="M 211.252, 312.095 
	L 211.252, 63.567 
" />
<path d="M 212.811, 312.095 
	L 212.811, 63.567 
" />
<path d="M 214.370, 312.095 
	L 214.370, 63.567 
" />
<path d="M 215.929, 312.095 
	L 215.929, 63.567 
" />
<path d="M 217.488, 312.095 
	L 217.488, 63.567 
" />
<path d="M 219.047, 312.095 
	L 219.047, 63.567 
" />
<path d="M 220.606, 312.095 
	L 220.606, 63.567 
" />
<path d="M 222.165, 312.095 
	L 222.165, 63.567 
" />
<path d="M 223.724, 312.095 
	L 223.724, 63.567 
" />
<path d="M 225.283, 312.095 
	L 225.283, 63.567 
" />
<path d="M 226.843, 312.095 
	L 226.843, 63.567 
" />
<path d="M 228.402, 312.095 
	L 228.402, 63.567 
" />
<path d="M 229.961, 312.095 
	L 229.961, 63.567 
" />
<path d="M 231.520, 312.095 
	L 231.520, 63.567 
" />
<path d="M 233.079, 312.095 
	L 233.079, 63.567 
" />
<path d="M 234.638, 312.095 
	L 234.638, 63.567 
" />
<path d="M 236.197, 312.095 
	L 236.197, 63.567 
" />
<path d="M 237.756, 312.095 
	L 237.756, 63.567 
" />
<path d="M 239.315, 312.095 
	L 239.315, 63.567 
" />
<path d="M 240.874, 312.095 
	L 240.874, 63.567 
" />
<path d="M 242.433, 312.095 
	L 242.433, 63.567 
" />
<path d="M 243.992, 312.095 
	L 243.992, 63.567 
" />
<path d="M 245.551, 312.095 
	L 245.551, 63.567 
" />
<path d="M 247.110, 312.095 
	L 247.110, 63.567 
" />
<path d="M 248.669, 312.095 
	L 248.669, 63.567 
" />
<path d="M 250.228, 312.095 
	L 250.228, 63.567 
" />
<path d="M 251.787, 312.095 
	L 251.787, 63.567 
" />
<path d="M 253.346, 312.095 
	L 253.346, 63.567 
" />
<path d="M 254.906, 312.095 
	L 254.906, 63.567 
" />
<path d="M 256.465, 312.095 
	L 256.465, 63.567 
" />
<path d="M 258.024, 312.095 
	L 258.024, 63.567 
" />
<path d="M 259.583, 312.095 
	L 259.583, 63.567 
" />
<path d="M 261.142, 312.095 
	L 261.142, 63.567 
" />
<path d="M 262.701, 312.095 
	L 262.701, 63.567 
" />
<path d="M 264.260, 312.095 
	L 264.260, 63.567 
" />
<path d="M 265.819, 312.095 
	L 265.819, 63.567 
" />
<path d="M 267.378, 312.095 
	L 267.378, 63.567 
" />
<path d="M 268.937, 312.095 
	L 268.937, 63.567 
" />
<path d="M 270.496, 312.095 
	L 270.496, 63.567 
" />
<path d="M 273.331, 312.095 
	L 273.331, 101.055 
" />
<path d="M 275.386, 312.095 
	L 275.386, 101.055 
" />
<path d="M 277.441, 312.095 
	L 277.441, 101.055 
" />
<path d="M 279.496, 312.095 
	L 279.496, 101.055 
" />
<path d="M 281.551, 312.095 
	L 281.551, 101.055 
" />
<path d="M 283.606, 312.095 
	L 283.606, 101.055 
" />
<path d="M 285.661, 312.095 
	L 285.661, 101.055 
" />
<path d="M 287.717, 312.095 
	L 287.717, 101.055 
" />
<path d="M 289.772, 312.095 
	L 289.772, 101.055 
" />
<path d="M 291.827, 312.095 
	L 291.827, 101.055 
" />
<path d="M 293.882, 312.095 
	L 293.882, 101.055 
" />
<path d="M 295.937, 312.095 
	L 295.937, 101.055 
" />
<path d="M 297.992, 312.095 
	L 297.992, 101.055 
" />
<path d="M 300.047, 312.095 
	L 300.047, 101.055 
" />
<path d="M 302.102, 312.095 
	L 302.102, 101.055 
" />
<path d="M 304.158, 312.095 
	L 304.158, 101.055 
" />
<path d="M 306.213, 312.095 
	L 306.213, 101.055 
" />
<path d="M 308.268, 312.095 
	L 308.268, 101.055 
" />
<path d="M 310.323, 312.095 
	L 310.323, 101.055 
" />
<path d="M 312.378, 312.095 
	L 312.378, 101.055 
" />
<path d="M 314.433, 312.095 
	L 314.433, 101.055 
" />
<path d="M 316.488, 312.095 
	L 316.488, 101.055 
" />
<path d="M 318.543, 312.095 
	L 318.543, 101.055 
" />
<path d="M 320.598, 312.095 
	L 320.598, 101.055 
" />
<path d="M 322.654, 312.095 
	L 322.654, 101.055 
" />
<path d="M 324.709, 312.095 
	L 324.709, 101.055 
" />
<path d="M 326.764, 312.095 
	L 326.764, 101.055 
" />
<path d="M 328.819, 312.095 
	L 328.819, 101.055 
" />
<path d="M 330.874, 312.095 
	L 330.874, 101.055 
" />
<path d="M 332.929, 312.095 
	L 332.929, 101.055 
" />
<path d="M 334.984, 312.095 
	L 334.984, 101.055 
" />
<path d="M 337.039, 312.095 
	L 337.039, 101.055 
" />
<path d="M 339.095, 312.095 
	L 339.095, 101.055 
" />
<path d="M 341.150, 312.095 
	L 341.150, 101.055 
" />
<path d="M 343.205, 312.095 
	L 343.205, 101.055 
" />
<path d="M 345.260, 312.095 
	L 345.260, 101.055 
" />
<path d="M 347.315, 312.095 
	L 347.315, 101.055 
" />
<path d="M 349.370, 312.095 
	L 349.370, 101.055 
" />
<path d="M 351.425, 312.095 
	L 351.425, 101.055 
" />
<path d="M 353.480, 312.095 
	L 353.480, 101.055 
" />
<path d="M 355.535, 312.095 
	L 355.535, 101.055 
" />
<path d="M 357.591, 312.095 
	L 357.591, 101.055 
" />
<path d="M 359.646, 312.095 
	L 359.646, 101.055 
" />
<path d="M 361.701, 312.095 
	L 361.701, 101.055 
" />
<path d="M 363.756, 312.095 
	L 363.756, 101.055 
" />
<path d="M 365.811, 312.095 
	L 365.811, 101.055 
" />
<path d="M 367.866, 312.095 
	L 367.866, 101.055 
" />
<path d="M 369.921, 312.095 
	L 369.921, 101.055 
" />
<path d="M 371.976, 312.095 
	L 371.976, 101.055 
" />
<path d="M 374.032, 312.095 
	L 374.032, 101.055 
" />
<path d="M 376.087, 312.095 
	L 376.087, 101.055 
" />
<path d="M 378.142, 312.095 
	L 378.142, 101.055 
" />
<path d="M 380.197, 312.095 
	L 380.197, 101.055 
" />
<path d="M 382.252, 312.095 
	L 382.252, 101.055 
" />
<path d="M 384.307, 312.095 
	L 384.307, 101.055 
" />
<path d="M 386.362, 312.095 
	L 386.362, 101.055 
" />
<path d="M 388.417, 312.095 
	L 388.417, 101.055 
" />
<path d="M 390.473, 312.095 
	L 390.473, 101.055 
" />
<path d="M 392.528, 312.095 
	L 392.528, 101.055 
" />
<path d="M 394.583, 312.095 
	L 394.583, 101.055 
" />
<path d="M 396.638, 312.095 
	L 396.638, 101.055 
" />
<path d="M 398.693, 312.095 
	L 398.693, 101.055 
" />
<path d="M 400.748, 312.095 
	L 400.748, 101.055 
" />
<path d="M 402.803, 312.095 
	L 402.803, 101.055 
" />
<path d="M 404.858, 312.095 
	L 404.858, 101.055 
" />
<path d="M 406.913, 312.095 
	L 406.913, 101.055 
" />
<path d="M 408.969, 312.095 
	L 408.969, 101.055 
" />
<path d="M 411.024, 312.095 
	L 411.024, 101.055 
" />
<path d="M 413.079, 312.095 
	L 413.079, 101.055 
" />
<path d="M 415.134, 312.095 
	L 415.134, 101.055 
" />
<path d="M 417.189, 312.095 
	L 417.189, 101.055 
" />
<path d="M 419.244, 312.095 
	L 419.244, 101.055 
" />
<path d="M 421.299, 312.095 
	L 421.299, 101.055 
" />
<path d="M 423.354, 312.095 
	L 423.354, 101.055 
" />
<path d="M 425.410, 312.095 
	L 425.410, 101.055 
" />
<path d="M 427.465, 312.095 
	L 427.465, 101.055 
" />
<path d="M 429.520, 312.095 
	L 429.520, 101.055 
" />
<path d="M 431.575, 312.095 
	L 431.575, 101.055 
" />
<path d="M 433.630, 312.095 
	L 433.630, 101.055 
" />
<path d="M 435.685, 312.095 
	L 435.685, 101.055 
" />
<path d="M 437.740, 312.095 
	L 437.740, 101.055 
" />
<path d="M 439.795, 312.095 
	L 439.795, 101.055 
" />
<path d="M 441.850, 312.095 
	L 441.850, 101.055 
" />
<path d="M 443.906, 312.095 
	L 443.906, 101.055 
" />
<path d="M 445.961, 312.095 
	L 445.961, 101.055 
" />
<path d="M 448.016, 312.095 
	L 448.016, 101.055 
" />
<path d="M 450.071, 312.095 
	L 450.071, 101.055 
" />
<path d="M 452.126, 312.095 
	L 452.126, 101.055 
" />
<path d="M 454.181, 312.095 
	L 454.181, 101.055 
" />
<path d="M 456.236, 312.095 
	L 456.236, 101.055 
" />
<path d="M 458.291, 312.095 
	L 458.291, 101.055 
" />
<path d="M 460.347, 312.095 
	L 460.347, 101.055 
" />
<path d="M 462.402, 312.095 
	L 462.402, 101.055 
" />
<path d="M 464.457, 312.095 
	L 464.457, 101.055 
" />
<path d="M 466.512, 312.095 
	L 466.512, 101.055 
" />
<path d="M 468.567, 312.095 
	L 468.567, 101.055 
" />
<path d="M 470.622, 312.095 
	L 470.622, 101.055 
" />
<path d="M 472.677, 312.095 
	L 472.677, 101.055 
" />
<path d="M 474.732, 312.095 
	L 474.732, 101.055 
" />
<path d="M 476.787, 312.095 
	L 476.787, 101.055 
" />
<path d="M 478.843, 312.095 
	L 478.843, 101.055 
" />
<path d="M 480.898, 312.095 
	L 480.898, 101.055 
" />
<path d="M 482.953, 312.095 
	L 482.953, 101.055 
" />
<path d="M 485.362, 312.095 
	L 485.362, 119.693 
" />
<path d="M 487.701, 312.095 
	L 487.701, 119.693 
" />
<path d="M 490.039, 312.095 
	L 490.039, 119.693 
" />
<path d="M 492.378, 312.095 
	L 492.378, 119.693 
" />
<path d="M 494.717, 312.095 
	L 494.717, 119.693 
" />
<path d="M 497.055, 312.095 
	L 497.055, 119.693 
" />
<path d="M 499.394, 312.095 
	L 499.394, 119.693 
" />
<path d="M 501.732, 312.095 
	L 501.732, 119.693 
" />
<path d="M 504.071, 312.095 
	L 504.071, 119.693 
" />
<path d="M 506.410, 312.095 
	L 506.410, 119.693 
" />
<path d="M 508.748, 312.095 
	L 508.748, 119.693 
" />
<path d="M 511.087, 312.095 
	L 511.087, 119.693 
" />
<path d="M 513.425, 312.095 
	L 513.425, 119.693 
" />
<path d="M 515.764, 312.095 
	L 515.764, 119.693 
" />
<path d="M 518.102, 312.095 
	L 518.102, 119.693 
" />
<path d="M 520.441, 312.095 
	L 520.441, 119.693 
" />
<path d="M 522.780, 312.095 
	L 522.780, 119.693 
" />
<path d="M 525.118, 312.095 
	L 525.118, 119.693 
" />
<path d="M 527.457, 312.095 
	L 527.457, 119.693 
" />
<path d="M 529.795, 312.095 
	L 529.795, 119.693 
" />
<path d="M 532.134, 312.095 
	L 532.134, 119.693 
" />
<path d="M 534.473, 312.095 
	L 534.473, 119.693 
" />
<path d="M 536.811, 312.095 
	L 536.811, 119.693 
" />
<path d="M 539.150, 312.095 
	L 539.150, 119.693 
" />
<path d="M 541.488, 312.095 
	L 541.488, 119.693 
" />
<path d="M 543.827, 312.095 
	L 543.827, 119.693 
" />
<path d="M 546.165, 312.095 
	L 546.165, 119.693 
" />
<path d="M 548.504, 312.095 
	L 548.504, 119.693 
" />
<path d="M 550.843, 312.095 
	L 550.843, 119.693 
" />
<path d="M 553.181, 312.095 
	L 553.181, 119.693 
" />
<path d="M 555.520, 312.095 
	L 555.520, 119.693 
" />
<path d="M 557.858, 312.095 
	L 557.858, 119.693 
" />
<path d="M 560.197, 312.095 
	L 560.197, 119.693 
" />
<path d="M 564.662, 312.095 
	L 564.662, 16.299 
" />
<path d="M 566.858, 312.095 
	L 566.858, 16.299 
" />
<path d="M 569.055, 312.095 
	L 569.055, 16.299 
" />
<path d="M 571.252, 312.095 
	L 571.252, 16.299 
" />
<path d="M 573.449, 312.095 
	L 573.449, 16.299 
" />
<path d="M 575.646, 312.095 
	L 575.646, 16.299 
" />
<path d="M 577.843, 312.095 
	L 577.843, 16.299 
" />
<path d="M 580.039, 312.095 
	L 580.039, 16.299 
" />
<path d="M 582.236, 312.095 
	L 582.236, 16.299 
" />
<path d="M 584.433, 312.095 
	L 584.433, 16.299 
" />
<path d="M 586.630, 312.095 
	L 586.630, 16.299 
" />
<path d="M 588.827, 312.095 
	L 588.827, 16.299 
" />
<path d="M 591.024, 312.095 
	L 591.024, 16.299 
" />
<path d="M 593.221, 312.095 
	L 593.221, 16.299 
" />
<path d="M 595.417, 312.095 
	L 595.417, 16.299 
" />
<path d="M 597.614, 312.095 
	L 597.614, 16.299 
" />
<path d="M 599.811, 312.095 
	L 599.811, 16.299 
" />
<path d="M 602.008, 312.095 
	L 602.008, 16.299 
" />
<path d="M 604.205, 312.095 
	L 604.205, 16.299 
" />
<path d="M 606.402, 312.095 
	L 606.402, 16.299 
" />
<path d="M 608.599, 312.095 
	L 608.599, 16.299 
" />
<path d="M 610.795, 312.095 
	L 610.795, 16.299 
" />
<path d="M 612.992, 312.095 
	L 612.992, 16.299 
" />
<path d="M 615.189, 312.095 
	L 615.189, 16.299 
" />
<path d="M 617.386, 312.095 
	L 617.386, 16.299 
" />
<path d="M 619.583, 312.095 
	L 619.583, 16.299 
" />
<path d="M 621.780, 312.095 
	L 621.780, 16.299 
" />
<path d="M 623.976, 312.095 
	L 623.976, 16.299 
" />
<path d="M 626.173, 312.095 
	L 626.173, 16.299 
" />
<path d="M 628.370, 312.095 
	L 628.370, 16.299 
" />
<path d="M 630.567, 312.095 
	L 630.567, 16.299 
" />
<path d="M 632.764, 312.095 
	L 632.764, 16.299 
" />
<path d="M 634.961, 312.095 
	L 634.961, 16.299 
" />
<path d="M 637.158, 312.095 
	L 637.158, 16.299 
" />
<path d="M 639.354, 312.095 
	L 639.354, 16.299 
" />
<path d="M 641.551, 312.095 
	L 641.551, 16.299 
" />
<path d="M 643.748, 312.095 
	L 643.748, 16.299 
" />
<path d="M 645.945, 312.095 
	L 645.945, 16.299 
" />
<path d="M 648.142, 312.095 
	L 648.142, 16.299 
" />
<path d="M 651.331, 312.095 
	L 651.331, 69.661 
" />
<path d="M 653.032, 312.095 
	L 653.032, 69.661 
" />
<path d="M 654.732, 312.095 
	L 654.732, 69.661 
" />
<path d="M 656.433, 312.095 
	L 656.433, 69.661 
" />
<path d="M 658.134, 312.095 
	L 658.134, 69.661 
" />
<path d="M 659.835, 312.095 
	L 659.835, 69.661 
" />
<path d="M 661.536, 312.095 
	L 661.536, 69.661 
" />
<path d="M 663.236, 312.095 
	L 663.236, 69.661 
" />
<path d="M 664.937, 312.095 
	L 664.937, 69.661 
" />
<path d="M 666.638, 312.095 
	L 666.638, 69.661 
" />
<path d="M 668.339, 312.095 
	L 668.339, 69.661 
" />
<path d="M 670.039, 312.095 
	L 670.039, 69.661 
" />
<path d="M 671.740, 312.095 
	L 671.740, 69.661 
" />
<path d="M 673.441, 312.095 
	L 673.441, 69.661 
" />
<path d="M 675.142, 312.095 
	L 675.142, 69.661 
" />
<path d="M 676.843, 312.095 
	L 676.843, 69.661 
" />
<path d="M 678.543, 312.095 
	L 678.543, 69.661 
" />
<path d="M 680.244, 312.095 
	L 680.244, 69.661 
" />
<path d="M 681.945, 312.095 
	L 681.945, 69.661 
" />
<path d="M 683.646, 312.095 
	L 683.646, 69.661 
" />
<path d="M 685.347, 312.095 
	L 685.347, 69.661 
" />
<path d="M 687.047, 312.095 
	L 687.047, 69.661 
" />
<path d="M 688.748, 312.095 
	L 688.748, 69.661 
" />
<path d="M 690.449, 312.095 
	L 690.449, 69.661 
" />
<path d="M 692.150, 312.095 
	L 692.150, 69.661 
" />
<path d="M 693.851, 312.095 
	L 693.851, 69.661 
" />
<path d="M 695.551, 312.095 
	L 695.551, 69.661 
" />
<path d="M 697.252, 312.095 
	L 697.252, 69.661 
" />
<path d="M 698.953, 312.095 
	L 698.953, 69.661 
" />
<path d="M 700.654, 312.095 
	L 700.654, 69.661 
" />
<path d="M 702.354, 312.095 
	L 702.354, 69.661 
" />
<path d="M 704.055, 312.095 
	L 704.055, 69.661 
" />
<path d="M 705.756, 312.095 
	L 705.756, 69.661 
" />
<path d="M 707.457, 312.095 
	L 707.457, 69.661 
" />
<path d="M 709.158, 312.095 
	L 709.158, 69.661 
" />
<path d="M 710.858, 312.095 
	L 710.858, 69.661 
" />
<path d="M 712.559, 312.095 
	L 712.559, 69.661 
" />
<path d="M 714.260, 312.095 
	L 714.260, 69.661 
" />
<path d="M 715.961, 312.095 
	L 715.961, 69.661 
" />
<path d="M 717.662, 312.095 
	L 717.662, 69.661 
" />
<path d="M 719.362, 312.095 
	L 719.362, 69.661 
" />
<path d="M 721.063, 312.095 
	L 721.063, 69.661 
" />
<path d="M 722.764, 312.095 
	L 722.764, 69.661 
" />
<path d="M 724.465, 312.095 
	L 724.465, 69.661 
" />
<path d="M 726.165, 312.095 
	L 726.165, 69.661 
" />
<path d="M 727.866, 312.095 
	L 727.866, 69.661 
" />
<path d="M 729.567, 312.095 
	L 729.567, 69.661 
" />
<path d="M 731.268, 312.095 
	L 731.268, 69.661 
" />
<path d="M 732.969, 312.095 
	L 732.969, 69.661 
" />
<path d="M 734.669, 312.095 
	L 734.669, 69.661 
" />
<path d="M 737.221, 312.095 
	L 737.221, 118.488 
" />
<path d="M 738.992, 312.095 
	L 738.992, 118.488 
" />
<path d="M 740.764, 312.095 
	L 740.764, 118.488 
" />
<path d="M 742.536, 312.095 
	L 742.536, 118.488 
" />
<path d="M 744.307, 312.095 
	L 744.307, 118.488 
" />
<path d="M 746.079, 312.095 
	L 746.079, 118.488 
" />
<path d="M 747.851, 312.095 
	L 747.851, 118.488 
" />
<path d="M 749.622, 312.095 
	L 749.622, 118.488 
" />
<path d="M 751.394, 312.095 
	L 751.394, 118.488 
" />
<path d="M 753.165, 312.095 
	L 753.165, 118.488 
" />
<path d="M 754.937, 312.095 
	L 754.937, 118.488 
" />
<path d="M 756.709, 312.095 
	L 756.709, 118.488 
" />
<path d="M 758.480, 312.095 
	L 758.480, 118.488 
" />
<path d="M 760.252, 312.095 
	L 760.252, 118.488 
" />
<path d="M 762.024, 312.095 
	L 762.024, 118.488 
" />
<path d="M 763.795, 312.095 
	L 763.795, 118.488 
" />
<path d="M 765.567, 312.095 
	L 765.567, 118.488 
" />
<path d="M 767.339, 312.095 
	L 767.339, 118.488 
" />
<path d="M 769.110, 312.095 
	L 769.110, 118.488 
" />
<path d="M 770.882, 312.095 
	L 770.882, 118.488 
" />
<path d="M 772.654, 312.095 
	L 772.654, 118.488 
" />
<path d="M 774.425, 312.095 
	L 774.425, 118.488 
" />
<path d="M 776.197, 312.095 
	L 776.197, 118.488 
" />
<path d="M 777.969, 312.095 
	L 777.969, 118.488 
" />
<path d="M 779.740, 312.095 
	L 779.740, 118.488 
" />
<path d="M 781.512, 312.095 
	L 781.512, 118.488 
" />
<path d="M 783.284, 312.095 
	L 783.284, 118.488 
" />
<path d="M 785.055, 312.095 
	L 785.055, 118.488 
" />
<path d="M 786.827, 312.095 
	L 786.827, 118.488 
" />
<path d="M 788.599, 312.095 
	L 788.599, 118.488 
" />
<path d="M 790.370, 312.095 
	L 790.370, 118.488 
" />
<path d="M 792.142, 312.095 
	L 792.142, 118.488 
" />
<path d="M 793.914, 312.095 
	L 793.914, 118.488 
" />
<path d="M 795.685, 312.095 
	L 795.685, 118.488 
" />
<path d="M 797.457, 312.095 
	L 797.457, 118.488 
" />
<path d="M 799.228, 312.095 
	L 799.228, 118.488 
" />
<path d="M 801.000, 312.095 
	L 801.000, 118.488 
" />
<path d="M 802.772, 312.095 
	L 802.772, 118.488 
" />
<path d="M 804.543, 312.095 
	L 804.543, 118.488 
" />
<path d="M 806.315, 312.095 
	L 806.315, 118.488 
" />
<path d="M 808.087, 312.095 
	L 808.087, 118.488 
" />
<path d="M 809.858, 312.095 
	L 809.858, 118.488 
" />
<path d="M 811.630, 312.095 
	L 811.630, 118.488 
" />
<path d="M 813.402, 312.095 
	L 813.402, 118.488 
" />
<path d="M 815.173, 312.095 
	L 815.173, 118.488 
" />
<path d="M 816.945, 312.095 
	L 816.945, 118.488 
" />
<path d="M 818.717, 312.095 
	L 818.717, 118.488 
" />
<path d="M 820.488, 312.095 
	L 820.488, 118.488 
" />
<path d="M 822.260, 312.095 
	L 822.260, 118.488 
" />
<path d="M 824.032, 312.095 
	L 824.032, 118.488 
" />
<path d="M 825.803, 312.095 
	L 825.803, 118.488 
" />
<path d="M 827.575, 312.095 
	L 827.575, 118.488 
" />
<path d="M 829.347, 312.095 
	L 829.347, 118.488 
" />
<path d="M 831.118, 312.095 
	L 831.118, 118.488 
" />
<path d="M 832.890, 312.095 
	L 832.890, 118.488 
" />
<path d="M 834.662, 312.095 
	L 834.662, 118.488 
" />
<path d="M 836.433, 312.095 
	L 836.433, 118.488 
" />
<path d="M 838.205, 312.095 
	L 838.205, 118.488 
" />
<path d="M 839.977, 312.095 
	L 839.977, 118.488 
" />
<path d="M 841.748, 312.095 
	L 841.748, 118.488 
" />
<path d="M 843.520, 312.095 
	L 843.520, 118.488 
" />
<path d="M 845.291, 312.095 
	L 845.291, 118.488 
" />
<path d="M 847.063, 312.095 
	L 847.063, 118.488 
" />
<path d="M 848.835, 312.095 
	L 848.835, 118.488 
" />
<path d="M 850.606, 312.095 
	L 850.606, 118.488 
" />
<path d="M 852.378, 312.095 
	L 852.378, 118.488 
" />
<path d="M 854.150, 312.095 
	L 854.150, 118.488 
" />
<path d="M 855.921, 312.095 
	L 855.921, 118.488 
" />
<path d="M 857.693, 312.095 
	L 857.693, 118.488 
" />
<path d="M 859.465, 312.095 
	L 859.465, 118.488 
" />
<path d="M 861.236, 312.095 
	L 861.236, 118.488 
" />
<path d="M 863.008, 312.095 
	L 863.008, 118.488 
" />
<path d="M 864.780, 312.095 
	L 864.780, 118.488 
" />
<path d="M 866.551, 312.095 
	L 866.551, 118.488 
" />
<path d="M 868.323, 312.095 
	L 868.323, 118.488 
" />
<path d="M 870.095, 312.095 
	L 870.095, 118.488 
" />
<path d="M 871.866, 312.095 
	L 871.866, 118.488 
" />
<path d="M 873.638, 312.095 
	L 873.638, 118.488 
" />
<path d="M 876.756, 312.095 
	L 876.756, 0.000 
" />
<path d="M 879.165, 312.095 
	L 879.165, 0.000 
" />
<path d="M 881.575, 312.095 
	L 881.575, 0.000 
" />
<path d="M 883.984, 312.095 
	L 883.984, 0.000 
" />
<path d="M 886.394, 312.095 
	L 886.394, 0.000 
" />
<path d="M 888.803, 312.095 
	L 888.803, 0.000 
" />
<path d="M 891.213, 312.095 
	L 891.213, 0.000 
" />
<path d="M 893.622, 312.095 
	L 893.622, 0.000 
" />
<path d="M 896.032, 312.095 
	L 896.032, 0.000 
" />
<path d="M 898.441, 312.095 
	L 898.441, 0.000 
" />
<path d="M 900.851, 312.095 
	L 900.851, 0.000 
" />
<path d="M 903.260, 312.095 
	L 903.260, 0.000 
" />
<path d="M 905.669, 312.095 
	L 905.669, 0.000 
" />
<path d="M 908.079, 312.095 
	L 908.079, 0.000 
" />
<path d="M 910.488, 312.095 
	L 910.488, 0.000 
" />
<path d="M 912.898, 312.095 
	L 912.898, 0.000 
" />
<path d="M 915.307, 312.095 
	L 915.307, 0.000 
" />
<path d="M 917.717, 312.095 
	L 917.717, 0.000 
" />
<path d="M 920.126, 312.095 
	L 920.126, 0.000 
" />
<path d="M 922.536, 312.095 
	L 922.536, 0.000 
" />
<path d="M 924.945, 312.095 
	L 924.945, 0.000 
" />
<path d="M 927.354, 312.095 
	L 927.354, 0.000 
" />
<path d="M 929.764, 312.095 
	L 929.764, 0.000 
" />
<path d="M 932.173, 312.095 
	L 932.173, 0.000 
" />
<path d="M 934.583, 312.095 
	L 934.583, 0.000 
" />
<path d="M 936.992, 312.095 
	L 936.992, 0.000 
" />
<path d="M 939.402, 312.095 
	L 939.402, 0.000 
" />
<path d="M 941.811, 312.095 
	L 941.811, 0.000 
" />
<path d="M 944.221, 312.095 
	L 944.221, 0.000 
" />
<path d="M 946.630, 312.095 
	L 946.630, 0.000 
" />
<path d="M 949.040, 312.095 
	L 949.040, 0.000 
" />
<path d="M 951.449, 312.095 
	L 951.449, 0.000 
" />
<path d="M 953.858, 312.095 
	L 953.858, 0.000 
" />
<path d="M 956.268, 312.095 
	L 956.268, 0.000 
" />
<path d="M 958.677, 312.095 
	L 958.677, 0.000 
" />
<path d="M 961.087, 312.095 
	L 961.087, 0.000 
" />
<path d="M 963.496, 312.095 
	L 963.496, 0.000 
" />
<path d="M 965.906, 312.095 
	L 965.906, 0.000 
" />
<path d="M 968.315, 312.095 
	L 968.315, 0.000 
" />
<path d="M 970.725, 312.095 
	L 970.725, 0.000 
" />
<path d="M 973.134, 312.095 
	L 973.134, 0.000 
" />
<path d="M 975.543, 312.095 
	L 975.543, 0.000 
" />
<path d="M 977.953, 312.095 
	L 977.953, 0.000 
" />
<path d="M 980.362, 312.095 
	L 980.362, 0.000 
" />
<path d="M 982.772, 312.095 
	L 982.772, 0.000 
" />
<path d="M 985.181, 312.095 
	L 985.181, 0.000 
" />
<path d="M 987.591, 312.095 
	L 987.591, 0.000 
" />
<path d="M 990.000, 312.095 
	L 990.000, 0.000 
" />
<path d="M 992.410, 312.095 
	L 992.410, 0.000 
" />
<path d="M 994.819, 312.095 
	L 994.819, 0.000 
" />
<path d="M 997.229, 312.095 
	L 997.229, 0.000 
" />
<path d="M 999.638, 312.095 
	L 999.638, 0.000 
" />
<path d="M 1002.047, 312.095 
	L 1002.047, 0.000 
" />
<path d="M 1004.457, 312.095 
	L 1004.457, 0.000 
" />
<path d="M 1006.866, 312.095 
	L 1006.866, 0.000 
" />
<path d="M 1009.276, 312.095 
	L 1009.276, 0.000 
" />
<path d="M 1011.685, 312.095 
	L 1011.685, 0.000 
" />
<path d="M 1014.095, 312.095 
	L 1014.095, 0.000 
" />
<path d="M 1016.504, 312.095 
	L 1016.504, 0.000 
" />
<path d="M 1018.914, 312.095 
	L 1018.914, 0.000 
" />
<path d="M 1021.323, 312.095 
	L 1021.323, 0.000 
" />
<path d="M 1023.732, 312.095 
	L 1023.732, 0.000 
" />
<path d="M 1026.142, 312.095 
	L 1026.142, 0.000 
" />
<path d="M 1028.551, 312.095 
	L 1028.551, 0.000 
" />
<path d="M 1030.961, 312.095 
	L 1030.961, 0.000 
" />
<path d="M 1033.370, 312.095 
	L 1033.370, 0.000 
" />
<path d="M 1035.780, 312.095 
	L 1035.780, 0.000 
" />
<path d="M 1038.189, 312.095 
	L 1038.189, 0.000 
" />
<path d="M 1040.599, 312.095 
	L 1040.599, 0.000 
" />
<path d="M 1043.008, 312.095 
	L 1043.008, 0.000 
" />
<path d="M 1045.417, 312.095 
	L 1045.417, 0.000 
" />
<path d="M 1047.827, 312.095 
	L 1047.827, 0.000 
" />
<path d="M 1050.236, 312.095 
	L 1050.236, 0.000 
" />
<path d="M 1052.646, 312.095 
	L 1052.646, 0.000 
" />
<path d="M 1055.055, 312.095 
	L 1055.055, 0.000 
" />
<path d="M 1057.465, 312.095 
	L 1057.465, 0.000 
" />
<path d="M 1059.874, 312.095 
	L 1059.874, 0.000 
" />
<path d="M 1062.284, 312.095 
	L 1062.284, 0.000 
" />
<path d="M 1064.693, 312.095 
	L 1064.693, 0.000 
" />
<path d="M 1067.103, 312.095 
	L 1067.103, 0.000 
" />
</g>
</svg>
