<?xml version="1.0" encoding="UTF-8" standalone="no" ?>
<svg width="100%" height="100%" viewBox="0 0 708.662 708.697" xmlns="http://www.w3.org/2000/svg"><g>
</g><g style="stroke:rgb(0,0,0); fill:none; stroke-width:1.000mm" >
</g><g style="stroke:rgb(0,255,0); fill:none; stroke-width:0.100mm" >
<path d="M 0.001, 708.696 
	L 0.000, 708.697 
	L 0.000, 0.035 
	L 708.662, 0.035 
	L 708.662, 708.697 
	L 0.000, 708.697 
" />
</g><g style="stroke:rgb(0,0,0); fill:none; stroke-width:0.100mm" >
<path d="M 0.001, 708.696 
	L 0.000, 708.697 
	L 0.000, 552.650 
	L 107.291, 552.650 
	L 107.291, 708.697 
	L 0.000, 708.697 
" />
<path d="M 0.001, 708.696 
	L 0.000, 708.697 
	L 0.000, 552.650 
" />
<path d="M 4.607, 708.696 
	L 4.606, 708.697 
	L 4.606, 552.650 
" />
<path d="M 9.213, 708.696 
	L 9.213, 708.697 
	L 9.213, 552.650 
" />
<path d="M 13.820, 708.696 
	L 13.819, 708.697 
	L 13.819, 552.650 
" />
<path d="M 18.426, 708.696 
	L 18.425, 708.697 
	L 18.425, 552.650 
" />
<path d="M 23.032, 708.696 
	L 23.031, 708.697 
	L 23.031, 552.650 
" />
<path d="M 27.639, 708.696 
	L 27.638, 708.697 
	L 27.638, 552.650 
" />
<path d="M 32.245, 708.696 
	L 32.244, 708.697 
	L 32.244, 552.650 
" />
<path d="M 36.851, 708.696 
	L 36.850, 708.697 
	L 36.850, 552.650 
" />
<path d="M 41.457, 708.696 
	L 41.457, 708.697 
	L 41.457, 552.650 
" />
<path d="M 46.064, 708.696 
	L 46.063, 708.697 
	L 46.063, 552.650 
" />
<path d="M 50.670, 708.696 
	L 50.669, 708.697 
	L 50.669, 552.650 
" />
<path d="M 55.276, 708.696 
	L 55.276, 708.697 
	L 55.276, 552.650 
" />
<path d="M 59.883, 708.696 
	L 59.882, 708.697 
	L 59.882, 552.650 
" />
<path d="M 64.489, 708.696 
	L 64.488, 708.697 
	L 64.488, 552.650 
" />
<path d="M 69.095, 708.696 
	L 69.094, 708.697 
	L 69.094, 552.650 
" />
<path d="M 73.702, 708.696 
	L 73.701, 708.697 
	L 73.701, 552.650 
" />
<path d="M 78.308, 708.696 
	L 78.307, 708.697 
	L 78.307, 552.650 
" />
<path d="M 82.914, 708.696 
	L 82.913, 708.697 
	L 82.913, 552.650 
" />
<path d="M 87.520, 708.696 
	L 87.520, 708.697 
	L 87.520, 552.650 
" />
<path d="M 92.127, 708.696 
	L 92.126, 708.697 
	L 92.126, 552.650 
" />
<path d="M 96.733, 708.696 
	L 96.732, 708.697 
	L 96.732, 552.650 
" />
<path d="M 101.339, 708.696 
	L 101.339, 708.697 
	L 101.339, 552.650 
" />
</g><g style="stroke:rgb(255,0,0); fill:none; stroke-width:0.100mm" >
<path d="M 0.001, 552.684 
	L 0.000, 552.685 
	L 0.000, 367.795 
	L 107.291, 367.795 
	L 107.291, 552.685 
	L 0.000, 552.685 
" />
<path d="M 0.001, 552.649 
	L 0.000, 552.650 
	L 0.000, 367.760 
" />
<path d="M 4.607, 552.649 
	L 4.606, 552.650 
	L 4.606, 367.760 
" />
<path d="M 9.213, 552.649 
	L 9.213, 552.650 
	L 9.213, 367.760 
" />
<path d="M 13.820, 552.649 
	L 13.819, 552.650 
	L 13.819, 367.760 
" />
<path d="M 18.426, 552.649 
	L 18.425, 552.650 
	L 18.425, 367.760 
" />
<path d="M 23.032, 552.649 
	L 23.031, 552.650 
	L 23.031, 367.760 
" />
<path d="M 27.639, 552.649 
	L 27.638, 552.650 
	L 27.638, 367.760 
" />
<path d="M 32.245, 552.649 
	L 32.244, 552.650 
	L 32.244, 367.760 
" />
<path d="M 36.851, 552.649 
	L 36.850, 552.650 
	L 36.850, 367.760 
" />
<path d="M 41.457, 552.649 
	L 41.457, 552.650 
	L 41.457, 367.760 
" />
<path d="M 46.064, 552.649 
	L 46.063, 552.650 
	L 46.063, 367.760 
" />
<path d="M 50.670, 552.649 
	L 50.669, 552.650 
	L 50.669, 367.760 
" />
<path d="M 55.276, 552.649 
	L 55.276, 552.650 
	L 55.276, 367.760 
" />
<path d="M 59.883, 552.649 
	L 59.882, 552.650 
	L 59.882, 367.760 
" />
<path d="M 64.489, 552.649 
	L 64.488, 552.650 
	L 64.488, 367.760 
" />
<path d="M 69.095, 552.649 
	L 69.094, 552.650 
	L 69.094, 367.760 
" />
<path d="M 73.702, 552.649 
	L 73.701, 552.650 
	L 73.701, 367.760 
" />
<path d="M 78.308, 552.649 
	L 78.307, 552.650 
	L 78.307, 367.760 
" />
<path d="M 82.914, 552.649 
	L 82.913, 552.650 
	L 82.913, 367.760 
" />
<path d="M 87.520, 552.649 
	L 87.520, 552.650 
	L 87.520, 367.760 
" />
<path d="M 92.127, 552.649 
	L 92.126, 552.650 
	L 92.126, 367.760 
" />
<path d="M 96.733, 552.649 
	L 96.732, 552.650 
	L 96.732, 367.760 
" />
<path d="M 101.339, 552.649 
	L 101.339, 552.650 
	L 101.339, 367.760 
" />
</g><g style="stroke:rgb(0,255,0); fill:none; stroke-width:0.100mm" >
<path d="M 107.257, 552.684 
	L 107.256, 552.685 
	L 107.256, 367.795 
	L 344.870, 367.795 
	L 344.870, 552.685 
	L 107.256, 552.685 
" />
<path d="M 107.292, 552.649 
	L 107.291, 552.650 
	L 107.291, 367.760 
" />
<path d="M 111.827, 552.649 
	L 111.827, 552.650 
	L 111.827, 367.760 
" />
<path d="M 116.363, 552.649 
	L 116.362, 552.650 
	L 116.362, 367.760 
" />
<path d="M 120.898, 552.649 
	L 120.898, 552.650 
	L 120.898, 367.760 
" />
<path d="M 125.434, 552.649 
	L 125.433, 552.650 
	L 125.433, 367.760 
" />
<path d="M 129.969, 552.649 
	L 129.969, 552.650 
	L 129.969, 367.760 
" />
<path d="M 134.505, 552.649 
	L 134.504, 552.650 
	L 134.504, 367.760 
" />
<path d="M 139.040, 552.649 
	L 139.039, 552.650 
	L 139.039, 367.760 
" />
<path d="M 143.576, 552.649 
	L 143.575, 552.650 
	L 143.575, 367.760 
" />
<path d="M 148.111, 552.649 
	L 148.110, 552.650 
	L 148.110, 367.760 
" />
<path d="M 152.646, 552.649 
	L 152.646, 552.650 
	L 152.646, 367.760 
" />
<path d="M 157.182, 552.649 
	L 157.181, 552.650 
	L 157.181, 367.760 
" />
<path d="M 161.717, 552.649 
	L 161.717, 552.650 
	L 161.717, 367.760 
" />
<path d="M 166.253, 552.649 
	L 166.252, 552.650 
	L 166.252, 367.760 
" />
<path d="M 170.788, 552.649 
	L 170.787, 552.650 
	L 170.787, 367.760 
" />
<path d="M 175.324, 552.649 
	L 175.323, 552.650 
	L 175.323, 367.760 
" />
<path d="M 179.859, 552.649 
	L 179.858, 552.650 
	L 179.858, 367.760 
" />
<path d="M 184.394, 552.649 
	L 184.394, 552.650 
	L 184.394, 367.760 
" />
<path d="M 188.930, 552.649 
	L 188.929, 552.650 
	L 188.929, 367.760 
" />
<path d="M 193.465, 552.649 
	L 193.465, 552.650 
	L 193.465, 367.760 
" />
<path d="M 198.001, 552.649 
	L 198.000, 552.650 
	L 198.000, 367.760 
" />
<path d="M 202.536, 552.649 
	L 202.535, 552.650 
	L 202.535, 367.760 
" />
<path d="M 207.072, 552.649 
	L 207.071, 552.650 
	L 207.071, 367.760 
" />
<path d="M 211.607, 552.649 
	L 211.606, 552.650 
	L 211.606, 367.760 
" />
<path d="M 216.142, 552.649 
	L 216.142, 552.650 
	L 216.142, 367.760 
" />
<path d="M 220.678, 552.649 
	L 220.677, 552.650 
	L 220.677, 367.760 
" />
<path d="M 225.213, 552.649 
	L 225.213, 552.650 
	L 225.213, 367.760 
" />
<path d="M 229.749, 552.649 
	L 229.748, 552.650 
	L 229.748, 367.760 
" />
<path d="M 234.284, 552.649 
	L 234.284, 552.650 
	L 234.284, 367.760 
" />
<path d="M 238.820, 552.649 
	L 238.819, 552.650 
	L 238.819, 367.760 
" />
<path d="M 243.355, 552.649 
	L 243.354, 552.650 
	L 243.354, 367.760 
" />
<path d="M 247.891, 552.649 
	L 247.890, 552.650 
	L 247.890, 367.760 
" />
<path d="M 252.426, 552.649 
	L 252.425, 552.650 
	L 252.425, 367.760 
" />
<path d="M 256.961, 552.649 
	L 256.961, 552.650 
	L 256.961, 367.760 
" />
<path d="M 261.497, 552.649 
	L 261.496, 552.650 
	L 261.496, 367.760 
" />
<path d="M 266.032, 552.649 
	L 266.032, 552.650 
	L 266.032, 367.760 
" />
<path d="M 270.568, 552.649 
	L 270.567, 552.650 
	L 270.567, 367.760 
" />
<path d="M 275.103, 552.649 
	L 275.102, 552.650 
	L 275.102, 367.760 
" />
<path d="M 279.639, 552.649 
	L 279.638, 552.650 
	L 279.638, 367.760 
" />
<path d="M 284.174, 552.649 
	L 284.173, 552.650 
	L 284.173, 367.760 
" />
<path d="M 288.709, 552.649 
	L 288.709, 552.650 
	L 288.709, 367.760 
" />
<path d="M 293.245, 552.649 
	L 293.244, 552.650 
	L 293.244, 367.760 
" />
<path d="M 297.780, 552.649 
	L 297.780, 552.650 
	L 297.780, 367.760 
" />
<path d="M 302.316, 552.649 
	L 302.315, 552.650 
	L 302.315, 367.760 
" />
<path d="M 306.851, 552.649 
	L 306.850, 552.650 
	L 306.850, 367.760 
" />
<path d="M 311.387, 552.649 
	L 311.386, 552.650 
	L 311.386, 367.760 
" />
<path d="M 315.922, 552.649 
	L 315.921, 552.650 
	L 315.921, 367.760 
" />
<path d="M 320.457, 552.649 
	L 320.457, 552.650 
	L 320.457, 367.760 
" />
<path d="M 324.993, 552.649 
	L 324.992, 552.650 
	L 324.992, 367.760 
" />
<path d="M 329.528, 552.649 
	L 329.528, 552.650 
	L 329.528, 367.760 
" />
<path d="M 334.064, 552.649 
	L 334.063, 552.650 
	L 334.063, 367.760 
" />
<path d="M 338.599, 552.649 
	L 338.598, 552.650 
	L 338.598, 367.760 
" />
</g><g style="stroke:rgb(0,0,255); fill:none; stroke-width:0.100mm" >
<path d="M 107.257, 708.696 
	L 107.256, 708.697 
	L 107.256, 552.650 
	L 344.870, 552.650 
	L 344.870, 708.697 
	L 107.256, 708.697 
" />
<path d="M 107.292, 708.696 
	L 107.291, 708.697 
	L 107.291, 552.650 
" />
<path d="M 111.827, 708.696 
	L 111.827, 708.697 
	L 111.827, 552.650 
" />
<path d="M 116.363, 708.696 
	L 116.362, 708.697 
	L 116.362, 552.650 
" />
<path d="M 120.898, 708.696 
	L 120.898, 708.697 
	L 120.898, 552.650 
" />
<path d="M 125.434, 708.696 
	L 125.433, 708.697 
	L 125.433, 552.650 
" />
<path d="M 129.969, 708.696 
	L 129.969, 708.697 
	L 129.969, 552.650 
" />
<path d="M 134.505, 708.696 
	L 134.504, 708.697 
	L 134.504, 552.650 
" />
<path d="M 139.040, 708.696 
	L 139.039, 708.697 
	L 139.039, 552.650 
" />
<path d="M 143.576, 708.696 
	L 143.575, 708.697 
	L 143.575, 552.650 
" />
<path d="M 148.111, 708.696 
	L 148.110, 708.697 
	L 148.110, 552.650 
" />
<path d="M 152.646, 708.696 
	L 152.646, 708.697 
	L 152.646, 552.650 
" />
<path d="M 157.182, 708.696 
	L 157.181, 708.697 
	L 157.181, 552.650 
" />
<path d="M 161.717, 708.696 
	L 161.717, 708.697 
	L 161.717, 552.650 
" />
<path d="M 166.253, 708.696 
	L 166.252, 708.697 
	L 166.252, 552.650 
" />
<path d="M 170.788, 708.696 
	L 170.787, 708.697 
	L 170.787, 552.650 
" />
<path d="M 175.324, 708.696 
	L 175.323, 708.697 
	L 175.323, 552.650 
" />
<path d="M 179.859, 708.696 
	L 179.858, 708.697 
	L 179.858, 552.650 
" />
<path d="M 184.394, 708.696 
	L 184.394, 708.697 
	L 184.394, 552.650 
" />
<path d="M 188.930, 708.696 
	L 188.929, 708.697 
	L 188.929, 552.650 
" />
<path d="M 193.465, 708.696 
	L 193.465, 708.697 
	L 193.465, 552.650 
" />
<path d="M 198.001, 708.696 
	L 198.000, 708.697 
	L 198.000, 552.650 
" />
<path d="M 202.536, 708.696 
	L 202.535, 708.697 
	L 202.535, 552.650 
" />
<path d="M 207.072, 708.696 
	L 207.071, 708.697 
	L 207.071, 552.650 
" />
<path d="M 211.607, 708.696 
	L 211.606, 708.697 
	L 211.606, 552.650 
" />
<path d="M 216.142, 708.696 
	L 216.142, 708.697 
	L 216.142, 552.650 
" />
<path d="M 220.678, 708.696 
	L 220.677, 708.697 
	L 220.677, 552.650 
" />
<path d="M 225.213, 708.696 
	L 225.213, 708.697 
	L 225.213, 552.650 
" />
<path d="M 229.749, 708.696 
	L 229.748, 708.697 
	L 229.748, 552.650 
" />
<path d="M 234.284, 708.696 
	L 234.284, 708.697 
	L 234.284, 552.650 
" />
<path d="M 238.820, 708.696 
	L 238.819, 708.697 
	L 238.819, 552.650 
" />
<path d="M 243.355, 708.696 
	L 243.354, 708.697 
	L 243.354, 552.650 
" />
<path d="M 247.891, 708.696 
	L 247.890, 708.697 
	L 247.890, 552.650 
" />
<path d="M 252.426, 708.696 
	L 252.425, 708.697 
	L 252.425, 552.650 
" />
<path d="M 256.961, 708.696 
	L 256.961, 708.697 
	L 256.961, 552.650 
" />
<path d="M 261.497, 708.696 
	L 261.496, 708.697 
	L 261.496, 552.650 
" />
<path d="M 266.032, 708.696 
	L 266.032, 708.697 
	L 266.032, 552.650 
" />
<path d="M 270.568, 708.696 
	L 270.567, 708.697 
	L 270.567, 552.650 
" />
<path d="M 275.103, 708.696 
	L 275.102, 708.697 
	L 275.102, 552.650 
" />
<path d="M 279.639, 708.696 
	L 279.638, 708.697 
	L 279.638, 552.650 
" />
<path d="M 284.174, 708.696 
	L 284.173, 708.697 
	L 284.173, 552.650 
" />
<path d="M 288.709, 708.696 
	L 288.709, 708.697 
	L 288.709, 552.650 
" />
<path d="M 293.245, 708.696 
	L 293.244, 708.697 
	L 293.244, 552.650 
" />
<path d="M 297.780, 708.696 
	L 297.780, 708.697 
	L 297.780, 552.650 
" />
<path d="M 302.316, 708.696 
	L 302.315, 708.697 
	L 302.315, 552.650 
" />
<path d="M 306.851, 708.696 
	L 306.850, 708.697 
	L 306.850, 552.650 
" />
<path d="M 311.387, 708.696 
	L 311.386, 708.697 
	L 311.386, 552.650 
" />
<path d="M 315.922, 708.696 
	L 315.921, 708.697 
	L 315.921, 552.650 
" />
<path d="M 320.457, 708.696 
	L 320.457, 708.697 
	L 320.457, 552.650 
" />
<path d="M 324.993, 708.696 
	L 324.992, 708.697 
	L 324.992, 552.650 
" />
<path d="M 329.528, 708.696 
	L 329.528, 708.697 
	L 329.528, 552.650 
" />
<path d="M 334.064, 708.696 
	L 334.063, 708.697 
	L 334.063, 552.650 
" />
<path d="M 338.599, 708.696 
	L 338.598, 708.697 
	L 338.598, 552.650 
" />
</g><g style="stroke:rgb(0,255,255); fill:none; stroke-width:0.100mm" >
<path d="M 0.001, 367.795 
	L 0.000, 367.795 
	L 0.000, 545.315 
	L 141.024, 545.315 
	L 141.024, 367.795 
	L 0.000, 367.795 
" />
<path d="M 0.001, 367.759 
	L 0.000, 367.760 
	L 0.000, 545.280 
" />
<path d="M 4.536, 367.759 
	L 4.535, 367.760 
	L 4.535, 545.280 
" />
<path d="M 9.072, 367.759 
	L 9.071, 367.760 
	L 9.071, 545.280 
" />
<path d="M 13.607, 367.759 
	L 13.606, 367.760 
	L 13.606, 545.280 
" />
<path d="M 18.142, 367.759 
	L 18.142, 367.760 
	L 18.142, 545.280 
" />
<path d="M 22.678, 367.759 
	L 22.677, 367.760 
	L 22.677, 545.280 
" />
<path d="M 27.213, 367.759 
	L 27.213, 367.760 
	L 27.213, 545.280 
" />
<path d="M 31.749, 367.759 
	L 31.748, 367.760 
	L 31.748, 545.280 
" />
<path d="M 36.284, 367.759 
	L 36.283, 367.760 
	L 36.283, 545.280 
" />
<path d="M 40.820, 367.759 
	L 40.819, 367.760 
	L 40.819, 545.280 
" />
<path d="M 45.355, 367.759 
	L 45.354, 367.760 
	L 45.354, 545.280 
" />
<path d="M 49.890, 367.759 
	L 49.890, 367.760 
	L 49.890, 545.280 
" />
<path d="M 54.426, 367.759 
	L 54.425, 367.760 
	L 54.425, 545.280 
" />
<path d="M 58.961, 367.759 
	L 58.961, 367.760 
	L 58.961, 545.280 
" />
<path d="M 63.497, 367.759 
	L 63.496, 367.760 
	L 63.496, 545.280 
" />
<path d="M 68.032, 367.759 
	L 68.032, 367.760 
	L 68.032, 545.280 
" />
<path d="M 72.568, 367.759 
	L 72.567, 367.760 
	L 72.567, 545.280 
" />
<path d="M 77.103, 367.759 
	L 77.102, 367.760 
	L 77.102, 545.280 
" />
<path d="M 81.639, 367.759 
	L 81.638, 367.760 
	L 81.638, 545.280 
" />
<path d="M 86.174, 367.759 
	L 86.173, 367.760 
	L 86.173, 545.280 
" />
<path d="M 90.709, 367.759 
	L 90.709, 367.760 
	L 90.709, 545.280 
" />
<path d="M 95.245, 367.759 
	L 95.244, 367.760 
	L 95.244, 545.280 
" />
<path d="M 99.780, 367.759 
	L 99.780, 367.760 
	L 99.780, 545.280 
" />
<path d="M 104.316, 367.759 
	L 104.315, 367.760 
	L 104.315, 545.280 
" />
<path d="M 108.851, 367.759 
	L 108.850, 367.760 
	L 108.850, 545.280 
" />
<path d="M 113.387, 367.759 
	L 113.386, 367.760 
	L 113.386, 545.280 
" />
<path d="M 117.922, 367.759 
	L 117.921, 367.760 
	L 117.921, 545.280 
" />
<path d="M 122.457, 367.759 
	L 122.457, 367.760 
	L 122.457, 545.280 
" />
<path d="M 126.993, 367.759 
	L 126.992, 367.760 
	L 126.992, 545.280 
" />
<path d="M 131.528, 367.759 
	L 131.528, 367.760 
	L 131.528, 545.280 
" />
<path d="M 136.064, 367.759 
	L 136.063, 367.760 
	L 136.063, 545.280 
" />
</g><g style="stroke:rgb(255,0,255); fill:none; stroke-width:0.100mm" >
<path d="M 0.001, 545.279 
	L 0.000, 545.280 
	L 0.000, 0.035 
	L 141.024, 0.035 
	L 141.024, 545.280 
	L 0.000, 545.280 
" />
<path d="M 0.001, 545.279 
	L 0.000, 545.280 
	L 0.000, 0.035 
" />
<path d="M 4.536, 545.279 
	L 4.535, 545.280 
	L 4.535, 0.035 
" />
<path d="M 9.072, 545.279 
	L 9.071, 545.280 
	L 9.071, 0.035 
" />
<path d="M 13.607, 545.279 
	L 13.606, 545.280 
	L 13.606, 0.035 
" />
<path d="M 18.142, 545.279 
	L 18.142, 545.280 
	L 18.142, 0.035 
" />
<path d="M 22.678, 545.279 
	L 22.677, 545.280 
	L 22.677, 0.035 
" />
<path d="M 27.213, 545.279 
	L 27.213, 545.280 
	L 27.213, 0.035 
" />
<path d="M 31.749, 545.279 
	L 31.748, 545.280 
	L 31.748, 0.035 
" />
<path d="M 36.284, 545.279 
	L 36.283, 545.280 
	L 36.283, 0.035 
" />
<path d="M 40.820, 545.279 
	L 40.819, 545.280 
	L 40.819, 0.035 
" />
<path d="M 45.355, 545.279 
	L 45.354, 545.280 
	L 45.354, 0.035 
" />
<path d="M 49.890, 545.279 
	L 49.890, 545.280 
	L 49.890, 0.035 
" />
<path d="M 54.426, 545.279 
	L 54.425, 545.280 
	L 54.425, 0.035 
" />
<path d="M 58.961, 545.279 
	L 58.961, 545.280 
	L 58.961, 0.035 
" />
<path d="M 63.497, 545.279 
	L 63.496, 545.280 
	L 63.496, 0.035 
" />
<path d="M 68.032, 545.279 
	L 68.032, 545.280 
	L 68.032, 0.035 
" />
<path d="M 72.568, 545.279 
	L 72.567, 545.280 
	L 72.567, 0.035 
" />
<path d="M 77.103, 545.279 
	L 77.102, 545.280 
	L 77.102, 0.035 
" />
<path d="M 81.639, 545.279 
	L 81.638, 545.280 
	L 81.638, 0.035 
" />
<path d="M 86.174, 545.279 
	L 86.173, 545.280 
	L 86.173, 0.035 
" />
<path d="M 90.709, 545.279 
	L 90.709, 545.280 
	L 90.709, 0.035 
" />
<path d="M 95.245, 545.279 
	L 95.244, 545.280 
	L 95.244, 0.035 
" />
<path d="M 99.780, 545.279 
	L 99.780, 545.280 
	L 99.780, 0.035 
" />
<path d="M 104.316, 545.279 
	L 104.315, 545.280 
	L 104.315, 0.035 
" />
<path d="M 108.851, 545.279 
	L 108.850, 545.280 
	L 108.850, 0.035 
" />
<path d="M 113.387, 545.279 
	L 113.386, 545.280 
	L 113.386, 0.035 
" />
<path d="M 117.922, 545.279 
	L 117.921, 545.280 
	L 117.921, 0.035 
" />
<path d="M 122.457, 545.279 
	L 122.457, 545.280 
	L 122.457, 0.035 
" />
<path d="M 126.993, 545.279 
	L 126.992, 545.280 
	L 126.992, 0.035 
" />
<path d="M 131.528, 545.279 
	L 131.528, 545.280 
	L 131.528, 0.035 
" />
<path d="M 136.064, 545.279 
	L 136.063, 545.280 
	L 136.063, 0.035 
" />
</g><g style="stroke:rgb(255,255,0); fill:none; stroke-width:0.100mm" >
<path d="M 140.989, 545.279 
	L 140.988, 545.280 
	L 140.988, 0.035 
	L 344.870, 0.035 
	L 344.870, 545.280 
	L 140.988, 545.280 
" />
<path d="M 141.024, 545.279 
	L 141.024, 545.280 
	L 141.024, 0.035 
" />
<path d="M 145.560, 545.279 
	L 145.559, 545.280 
	L 145.559, 0.035 
" />
<path d="M 150.095, 545.279 
	L 150.095, 545.280 
	L 150.095, 0.035 
" />
<path d="M 154.631, 545.279 
	L 154.630, 545.280 
	L 154.630, 0.035 
" />
<path d="M 159.166, 545.279 
	L 159.165, 545.280 
	L 159.165, 0.035 
" />
<path d="M 163.702, 545.279 
	L 163.701, 545.280 
	L 163.701, 0.035 
" />
<path d="M 168.237, 545.279 
	L 168.236, 545.280 
	L 168.236, 0.035 
" />
<path d="M 172.772, 545.279 
	L 172.772, 545.280 
	L 172.772, 0.035 
" />
<path d="M 177.308, 545.279 
	L 177.307, 545.280 
	L 177.307, 0.035 
" />
<path d="M 181.843, 545.279 
	L 181.843, 545.280 
	L 181.843, 0.035 
" />
<path d="M 186.379, 545.279 
	L 186.378, 545.280 
	L 186.378, 0.035 
" />
<path d="M 190.914, 545.279 
	L 190.913, 545.280 
	L 190.913, 0.035 
" />
<path d="M 195.450, 545.279 
	L 195.449, 545.280 
	L 195.449, 0.035 
" />
<path d="M 199.985, 545.279 
	L 199.984, 545.280 
	L 199.984, 0.035 
" />
<path d="M 204.520, 545.279 
	L 204.520, 545.280 
	L 204.520, 0.035 
" />
<path d="M 209.056, 545.279 
	L 209.055, 545.280 
	L 209.055, 0.035 
" />
<path d="M 213.591, 545.279 
	L 213.591, 545.280 
	L 213.591, 0.035 
" />
<path d="M 218.127, 545.279 
	L 218.126, 545.280 
	L 218.126, 0.035 
" />
<path d="M 222.662, 545.279 
	L 222.661, 545.280 
	L 222.661, 0.035 
" />
<path d="M 227.198, 545.279 
	L 227.197, 545.280 
	L 227.197, 0.035 
" />
<path d="M 231.733, 545.279 
	L 231.732, 545.280 
	L 231.732, 0.035 
" />
<path d="M 236.268, 545.279 
	L 236.268, 545.280 
	L 236.268, 0.035 
" />
<path d="M 240.804, 545.279 
	L 240.803, 545.280 
	L 240.803, 0.035 
" />
<path d="M 245.339, 545.279 
	L 245.339, 545.280 
	L 245.339, 0.035 
" />
<path d="M 249.875, 545.279 
	L 249.874, 545.280 
	L 249.874, 0.035 
" />
<path d="M 254.410, 545.279 
	L 254.409, 545.280 
	L 254.409, 0.035 
" />
<path d="M 258.946, 545.279 
	L 258.945, 545.280 
	L 258.945, 0.035 
" />
<path d="M 263.481, 545.279 
	L 263.480, 545.280 
	L 263.480, 0.035 
" />
<path d="M 268.016, 545.279 
	L 268.016, 545.280 
	L 268.016, 0.035 
" />
<path d="M 272.552, 545.279 
	L 272.551, 545.280 
	L 272.551, 0.035 
" />
<path d="M 277.087, 545.279 
	L 277.087, 545.280 
	L 277.087, 0.035 
" />
<path d="M 281.623, 545.279 
	L 281.622, 545.280 
	L 281.622, 0.035 
" />
<path d="M 286.158, 545.279 
	L 286.158, 545.280 
	L 286.158, 0.035 
" />
<path d="M 290.694, 545.279 
	L 290.693, 545.280 
	L 290.693, 0.035 
" />
<path d="M 295.229, 545.279 
	L 295.228, 545.280 
	L 295.228, 0.035 
" />
<path d="M 299.765, 545.279 
	L 299.764, 545.280 
	L 299.764, 0.035 
" />
<path d="M 304.300, 545.279 
	L 304.299, 545.280 
	L 304.299, 0.035 
" />
<path d="M 308.835, 545.279 
	L 308.835, 545.280 
	L 308.835, 0.035 
" />
<path d="M 313.371, 545.279 
	L 313.370, 545.280 
	L 313.370, 0.035 
" />
<path d="M 317.906, 545.279 
	L 317.906, 545.280 
	L 317.906, 0.035 
" />
<path d="M 322.442, 545.279 
	L 322.441, 545.280 
	L 322.441, 0.035 
" />
<path d="M 326.977, 545.279 
	L 326.976, 545.280 
	L 326.976, 0.035 
" />
<path d="M 331.513, 545.279 
	L 331.512, 545.280 
	L 331.512, 0.035 
" />
<path d="M 336.048, 545.279 
	L 336.047, 545.280 
	L 336.047, 0.035 
" />
</g><g style="stroke:rgb(0,0,0); fill:none; stroke-width:0.100mm" >
<path d="M 140.989, 367.795 
	L 140.988, 367.795 
	L 140.988, 545.315 
	L 344.870, 545.315 
	L 344.870, 367.795 
	L 140.988, 367.795 
" />
<path d="M 141.024, 367.759 
	L 141.024, 367.760 
	L 141.024, 545.280 
" />
<path d="M 145.560, 367.759 
	L 145.559, 367.760 
	L 145.559, 545.280 
" />
<path d="M 150.095, 367.759 
	L 150.095, 367.760 
	L 150.095, 545.280 
" />
<path d="M 154.631, 367.759 
	L 154.630, 367.760 
	L 154.630, 545.280 
" />
<path d="M 159.166, 367.759 
	L 159.165, 367.760 
	L 159.165, 545.280 
" />
<path d="M 163.702, 367.759 
	L 163.701, 367.760 
	L 163.701, 545.280 
" />
<path d="M 168.237, 367.759 
	L 168.236, 367.760 
	L 168.236, 545.280 
" />
<path d="M 172.772, 367.759 
	L 172.772, 367.760 
	L 172.772, 545.280 
" />
<path d="M 177.308, 367.759 
	L 177.307, 367.760 
	L 177.307, 545.280 
" />
<path d="M 181.843, 367.759 
	L 181.843, 367.760 
	L 181.843, 545.280 
" />
<path d="M 186.379, 367.759 
	L 186.378, 367.760 
	L 186.378, 545.280 
" />
<path d="M 190.914, 367.759 
	L 190.913, 367.760 
	L 190.913, 545.280 
" />
<path d="M 195.450, 367.759 
	L 195.449, 367.760 
	L 195.449, 545.280 
" />
<path d="M 199.985, 367.759 
	L 199.984, 367.760 
	L 199.984, 545.280 
" />
<path d="M 204.520, 367.759 
	L 204.520, 367.760 
	L 204.520, 545.280 
" />
<path d="M 209.056, 367.759 
	L 209.055, 367.760 
	L 209.055, 545.280 
" />
<path d="M 213.591, 367.759 
	L 213.591, 367.760 
	L 213.591, 545.280 
" />
<path d="M 218.127, 367.759 
	L 218.126, 367.760 
	L 218.126, 545.280 
" />
<path d="M 222.662, 367.759 
	L 222.661, 367.760 
	L 222.661, 545.280 
" />
<path d="M 227.198, 367.759 
	L 227.197, 367.760 
	L 227.197, 545.280 
" />
<path d="M 231.733, 367.759 
	L 231.732, 367.760 
	L 231.732, 545.280 
" />
<path d="M 236.268, 367.759 
	L 236.268, 367.760 
	L 236.268, 545.280 
" />
<path d="M 240.804, 367.759 
	L 240.803, 367.760 
	L 240.803, 545.280 
" />
<path d="M 245.339, 367.759 
	L 245.339, 367.760 
	L 245.339, 545.280 
" />
<path d="M 249.875, 367.759 
	L 249.874, 367.760 
	L 249.874, 545.280 
" />
<path d="M 254.410, 367.759 
	L 254.409, 367.760 
	L 254.409, 545.280 
" />
<path d="M 258.946, 367.759 
	L 258.945, 367.760 
	L 258.945, 545.280 
" />
<path d="M 263.481, 367.759 
	L 263.480, 367.760 
	L 263.480, 545.280 
" />
<path d="M 268.016, 367.759 
	L 268.016, 367.760 
	L 268.016, 545.280 
" />
<path d="M 272.552, 367.759 
	L 272.551, 367.760 
	L 272.551, 545.280 
" />
<path d="M 277.087, 367.759 
	L 277.087, 367.760 
	L 277.087, 545.280 
" />
<path d="M 281.623, 367.759 
	L 281.622, 367.760 
	L 281.622, 545.280 
" />
<path d="M 286.158, 367.759 
	L 286.158, 367.760 
	L 286.158, 545.280 
" />
<path d="M 290.694, 367.759 
	L 290.693, 367.760 
	L 290.693, 545.280 
" />
<path d="M 295.229, 367.759 
	L 295.228, 367.760 
	L 295.228, 545.280 
" />
<path d="M 299.765, 367.759 
	L 299.764, 367.760 
	L 299.764, 545.280 
" />
<path d="M 304.300, 367.759 
	L 304.299, 367.760 
	L 304.299, 545.280 
" />
<path d="M 308.835, 367.759 
	L 308.835, 367.760 
	L 308.835, 545.280 
" />
<path d="M 313.371, 367.759 
	L 313.370, 367.760 
	L 313.370, 545.280 
" />
<path d="M 317.906, 367.759 
	L 317.906, 367.760 
	L 317.906, 545.280 
" />
<path d="M 322.442, 367.759 
	L 322.441, 367.760 
	L 322.441, 545.280 
" />
<path d="M 326.977, 367.759 
	L 326.976, 367.760 
	L 326.976, 545.280 
" />
<path d="M 331.513, 367.759 
	L 331.512, 367.760 
	L 331.512, 545.280 
" />
<path d="M 336.048, 367.759 
	L 336.047, 367.760 
	L 336.047, 545.280 
" />
</g><g style="stroke:rgb(0,0,0); fill:none; stroke-width:0.100mm" >
<path d="M 344.871, 367.759 
	L 344.870, 367.760 
	L 344.870, 526.075 
	L 186.768, 526.075 
	L 186.768, 367.760 
	L 344.870, 367.760 
" />
</g><g style="stroke:rgb(255,0,0); fill:none; stroke-width:0.100mm" >
<path d="M 344.871, 526.110 
	L 344.870, 526.110 
	L 344.870, 0.071 
	L 186.768, 0.071 
	L 186.768, 526.110 
	L 344.870, 526.110 
" />
</g><g style="stroke:rgb(0,255,0); fill:none; stroke-width:0.100mm" >
<path d="M 186.804, 526.110 
	L 186.803, 526.110 
	L 186.803, 0.071 
	L 708.662, 0.071 
	L 708.662, 526.110 
	L 186.803, 526.110 
" />
<path d="M 186.804, 526.074 
	L 186.803, 526.075 
	L 186.803, 0.035 
" />
<path d="M 191.339, 526.074 
	L 191.339, 526.075 
	L 191.339, 0.035 
" />
<path d="M 195.875, 526.074 
	L 195.874, 526.075 
	L 195.874, 0.035 
" />
<path d="M 200.410, 526.074 
	L 200.409, 526.075 
	L 200.409, 0.035 
" />
<path d="M 204.946, 526.074 
	L 204.945, 526.075 
	L 204.945, 0.035 
" />
<path d="M 209.481, 526.074 
	L 209.480, 526.075 
	L 209.480, 0.035 
" />
<path d="M 214.016, 526.074 
	L 214.016, 526.075 
	L 214.016, 0.035 
" />
<path d="M 218.552, 526.074 
	L 218.551, 526.075 
	L 218.551, 0.035 
" />
<path d="M 223.087, 526.074 
	L 223.087, 526.075 
	L 223.087, 0.035 
" />
<path d="M 227.623, 526.074 
	L 227.622, 526.075 
	L 227.622, 0.035 
" />
<path d="M 232.158, 526.074 
	L 232.158, 526.075 
	L 232.158, 0.035 
" />
<path d="M 236.694, 526.074 
	L 236.693, 526.075 
	L 236.693, 0.035 
" />
<path d="M 241.229, 526.074 
	L 241.228, 526.075 
	L 241.228, 0.035 
" />
<path d="M 245.765, 526.074 
	L 245.764, 526.075 
	L 245.764, 0.035 
" />
<path d="M 250.300, 526.074 
	L 250.299, 526.075 
	L 250.299, 0.035 
" />
<path d="M 254.835, 526.074 
	L 254.835, 526.075 
	L 254.835, 0.035 
" />
<path d="M 259.371, 526.074 
	L 259.370, 526.075 
	L 259.370, 0.035 
" />
<path d="M 263.906, 526.074 
	L 263.906, 526.075 
	L 263.906, 0.035 
" />
<path d="M 268.442, 526.074 
	L 268.441, 526.075 
	L 268.441, 0.035 
" />
<path d="M 272.977, 526.074 
	L 272.976, 526.075 
	L 272.976, 0.035 
" />
<path d="M 277.513, 526.074 
	L 277.512, 526.075 
	L 277.512, 0.035 
" />
<path d="M 282.048, 526.074 
	L 282.047, 526.075 
	L 282.047, 0.035 
" />
<path d="M 286.583, 526.074 
	L 286.583, 526.075 
	L 286.583, 0.035 
" />
<path d="M 291.119, 526.074 
	L 291.118, 526.075 
	L 291.118, 0.035 
" />
<path d="M 295.654, 526.074 
	L 295.654, 526.075 
	L 295.654, 0.035 
" />
<path d="M 300.190, 526.074 
	L 300.189, 526.075 
	L 300.189, 0.035 
" />
<path d="M 304.725, 526.074 
	L 304.724, 526.075 
	L 304.724, 0.035 
" />
<path d="M 309.261, 526.074 
	L 309.260, 526.075 
	L 309.260, 0.035 
" />
<path d="M 313.796, 526.074 
	L 313.795, 526.075 
	L 313.795, 0.035 
" />
<path d="M 318.331, 526.074 
	L 318.331, 526.075 
	L 318.331, 0.035 
" />
<path d="M 322.867, 526.074 
	L 322.866, 526.075 
	L 322.866, 0.035 
" />
<path d="M 327.402, 526.074 
	L 327.402, 526.075 
	L 327.402, 0.035 
" />
<path d="M 331.938, 526.074 
	L 331.937, 526.075 
	L 331.937, 0.035 
" />
<path d="M 336.473, 526.074 
	L 336.472, 526.075 
	L 336.472, 0.035 
" />
<path d="M 341.009, 526.074 
	L 341.008, 526.075 
	L 341.008, 0.035 
" />
<path d="M 345.544, 526.074 
	L 345.543, 526.075 
	L 345.543, 0.035 
" />
<path d="M 350.079, 526.074 
	L 350.079, 526.075 
	L 350.079, 0.035 
" />
<path d="M 354.615, 526.074 
	L 354.614, 526.075 
	L 354.614, 0.035 
" />
<path d="M 359.150, 526.074 
	L 359.150, 526.075 
	L 359.150, 0.035 
" />
<path d="M 363.686, 526.074 
	L 363.685, 526.075 
	L 363.685, 0.035 
" />
<path d="M 368.221, 526.074 
	L 368.221, 526.075 
	L 368.221, 0.035 
" />
<path d="M 372.757, 526.074 
	L 372.756, 526.075 
	L 372.756, 0.035 
" />
<path d="M 377.292, 526.074 
	L 377.291, 526.075 
	L 377.291, 0.035 
" />
<path d="M 381.828, 526.074 
	L 381.827, 526.075 
	L 381.827, 0.035 
" />
<path d="M 386.363, 526.074 
	L 386.362, 526.075 
	L 386.362, 0.035 
" />
<path d="M 390.898, 526.074 
	L 390.898, 526.075 
	L 390.898, 0.035 
" />
<path d="M 395.434, 526.074 
	L 395.433, 526.075 
	L 395.433, 0.035 
" />
<path d="M 399.969, 526.074 
	L 399.969, 526.075 
	L 399.969, 0.035 
" />
<path d="M 404.505, 526.074 
	L 404.504, 526.075 
	L 404.504, 0.035 
" />
<path d="M 409.040, 526.074 
	L 409.039, 526.075 
	L 409.039, 0.035 
" />
<path d="M 413.576, 526.074 
	L 413.575, 526.075 
	L 413.575, 0.035 
" />
<path d="M 418.111, 526.074 
	L 418.110, 526.075 
	L 418.110, 0.035 
" />
<path d="M 422.646, 526.074 
	L 422.646, 526.075 
	L 422.646, 0.035 
" />
<path d="M 427.182, 526.074 
	L 427.181, 526.075 
	L 427.181, 0.035 
" />
<path d="M 431.717, 526.074 
	L 431.717, 526.075 
	L 431.717, 0.035 
" />
<path d="M 436.253, 526.074 
	L 436.252, 526.075 
	L 436.252, 0.035 
" />
<path d="M 440.788, 526.074 
	L 440.787, 526.075 
	L 440.787, 0.035 
" />
<path d="M 445.324, 526.074 
	L 445.323, 526.075 
	L 445.323, 0.035 
" />
<path d="M 449.859, 526.074 
	L 449.858, 526.075 
	L 449.858, 0.035 
" />
<path d="M 454.394, 526.074 
	L 454.394, 526.075 
	L 454.394, 0.035 
" />
<path d="M 458.930, 526.074 
	L 458.929, 526.075 
	L 458.929, 0.035 
" />
<path d="M 463.465, 526.074 
	L 463.465, 526.075 
	L 463.465, 0.035 
" />
<path d="M 468.001, 526.074 
	L 468.000, 526.075 
	L 468.000, 0.035 
" />
<path d="M 472.536, 526.074 
	L 472.536, 526.075 
	L 472.536, 0.035 
" />
<path d="M 477.072, 526.074 
	L 477.071, 526.075 
	L 477.071, 0.035 
" />
<path d="M 481.607, 526.074 
	L 481.606, 526.075 
	L 481.606, 0.035 
" />
<path d="M 486.142, 526.074 
	L 486.142, 526.075 
	L 486.142, 0.035 
" />
<path d="M 490.678, 526.074 
	L 490.677, 526.075 
	L 490.677, 0.035 
" />
<path d="M 495.213, 526.074 
	L 495.213, 526.075 
	L 495.213, 0.035 
" />
<path d="M 499.749, 526.074 
	L 499.748, 526.075 
	L 499.748, 0.035 
" />
<path d="M 504.284, 526.074 
	L 504.284, 526.075 
	L 504.284, 0.035 
" />
<path d="M 508.820, 526.074 
	L 508.819, 526.075 
	L 508.819, 0.035 
" />
<path d="M 513.355, 526.074 
	L 513.354, 526.075 
	L 513.354, 0.035 
" />
<path d="M 517.891, 526.074 
	L 517.890, 526.075 
	L 517.890, 0.035 
" />
<path d="M 522.426, 526.074 
	L 522.425, 526.075 
	L 522.425, 0.035 
" />
<path d="M 526.961, 526.074 
	L 526.961, 526.075 
	L 526.961, 0.035 
" />
<path d="M 531.497, 526.074 
	L 531.496, 526.075 
	L 531.496, 0.035 
" />
<path d="M 536.032, 526.074 
	L 536.032, 526.075 
	L 536.032, 0.035 
" />
<path d="M 540.568, 526.074 
	L 540.567, 526.075 
	L 540.567, 0.035 
" />
<path d="M 545.103, 526.074 
	L 545.102, 526.075 
	L 545.102, 0.035 
" />
<path d="M 549.639, 526.074 
	L 549.638, 526.075 
	L 549.638, 0.035 
" />
<path d="M 554.174, 526.074 
	L 554.173, 526.075 
	L 554.173, 0.035 
" />
<path d="M 558.709, 526.074 
	L 558.709, 526.075 
	L 558.709, 0.035 
" />
<path d="M 563.245, 526.074 
	L 563.244, 526.075 
	L 563.244, 0.035 
" />
<path d="M 567.780, 526.074 
	L 567.780, 526.075 
	L 567.780, 0.035 
" />
<path d="M 572.316, 526.074 
	L 572.315, 526.075 
	L 572.315, 0.035 
" />
<path d="M 576.851, 526.074 
	L 576.850, 526.075 
	L 576.850, 0.035 
" />
<path d="M 581.387, 526.074 
	L 581.386, 526.075 
	L 581.386, 0.035 
" />
<path d="M 585.922, 526.074 
	L 585.921, 526.075 
	L 585.921, 0.035 
" />
<path d="M 590.457, 526.074 
	L 590.457, 526.075 
	L 590.457, 0.035 
" />
<path d="M 594.993, 526.074 
	L 594.992, 526.075 
	L 594.992, 0.035 
" />
<path d="M 599.528, 526.074 
	L 599.528, 526.075 
	L 599.528, 0.035 
" />
<path d="M 604.064, 526.074 
	L 604.063, 526.075 
	L 604.063, 0.035 
" />
<path d="M 608.599, 526.074 
	L 608.599, 526.075 
	L 608.599, 0.035 
" />
<path d="M 613.135, 526.074 
	L 613.134, 526.075 
	L 613.134, 0.035 
" />
<path d="M 617.670, 526.074 
	L 617.669, 526.075 
	L 617.669, 0.035 
" />
<path d="M 622.206, 526.074 
	L 622.205, 526.075 
	L 622.205, 0.035 
" />
<path d="M 626.741, 526.074 
	L 626.740, 526.075 
	L 626.740, 0.035 
" />
<path d="M 631.276, 526.074 
	L 631.276, 526.075 
	L 631.276, 0.035 
" />
<path d="M 635.812, 526.074 
	L 635.811, 526.075 
	L 635.811, 0.035 
" />
<path d="M 640.347, 526.074 
	L 640.347, 526.075 
	L 640.347, 0.035 
" />
<path d="M 644.883, 526.074 
	L 644.882, 526.075 
	L 644.882, 0.035 
" />
<path d="M 649.418, 526.074 
	L 649.417, 526.075 
	L 649.417, 0.035 
" />
<path d="M 653.954, 526.074 
	L 653.953, 526.075 
	L 653.953, 0.035 
" />
<path d="M 658.489, 526.074 
	L 658.488, 526.075 
	L 658.488, 0.035 
" />
<path d="M 663.024, 526.074 
	L 663.024, 526.075 
	L 663.024, 0.035 
" />
<path d="M 667.560, 526.074 
	L 667.559, 526.075 
	L 667.559, 0.035 
" />
<path d="M 672.095, 526.074 
	L 672.095, 526.075 
	L 672.095, 0.035 
" />
<path d="M 676.631, 526.074 
	L 676.630, 526.075 
	L 676.630, 0.035 
" />
<path d="M 681.166, 526.074 
	L 681.165, 526.075 
	L 681.165, 0.035 
" />
<path d="M 685.702, 526.074 
	L 685.701, 526.075 
	L 685.701, 0.035 
" />
<path d="M 690.237, 526.074 
	L 690.236, 526.075 
	L 690.236, 0.035 
" />
<path d="M 694.772, 526.074 
	L 694.772, 526.075 
	L 694.772, 0.035 
" />
<path d="M 699.308, 526.074 
	L 699.307, 526.075 
	L 699.307, 0.035 
" />
<path d="M 703.843, 526.074 
	L 703.843, 526.075 
	L 703.843, 0.035 
" />
</g><g style="stroke:rgb(0,0,255); fill:none; stroke-width:0.100mm" >
<path d="M 186.804, 367.759 
	L 186.803, 367.760 
	L 186.803, 526.075 
	L 708.662, 526.075 
	L 708.662, 367.760 
	L 186.803, 367.760 
" />
<path d="M 186.804, 367.759 
	L 186.803, 367.760 
	L 186.803, 526.075 
" />
<path d="M 191.339, 367.759 
	L 191.339, 367.760 
	L 191.339, 526.075 
" />
<path d="M 195.875, 367.759 
	L 195.874, 367.760 
	L 195.874, 526.075 
" />
<path d="M 200.410, 367.759 
	L 200.409, 367.760 
	L 200.409, 526.075 
" />
<path d="M 204.946, 367.759 
	L 204.945, 367.760 
	L 204.945, 526.075 
" />
<path d="M 209.481, 367.759 
	L 209.480, 367.760 
	L 209.480, 526.075 
" />
<path d="M 214.016, 367.759 
	L 214.016, 367.760 
	L 214.016, 526.075 
" />
<path d="M 218.552, 367.759 
	L 218.551, 367.760 
	L 218.551, 526.075 
" />
<path d="M 223.087, 367.759 
	L 223.087, 367.760 
	L 223.087, 526.075 
" />
<path d="M 227.623, 367.759 
	L 227.622, 367.760 
	L 227.622, 526.075 
" />
<path d="M 232.158, 367.759 
	L 232.158, 367.760 
	L 232.158, 526.075 
" />
<path d="M 236.694, 367.759 
	L 236.693, 367.760 
	L 236.693, 526.075 
" />
<path d="M 241.229, 367.759 
	L 241.228, 367.760 
	L 241.228, 526.075 
" />
<path d="M 245.765, 367.759 
	L 245.764, 367.760 
	L 245.764, 526.075 
" />
<path d="M 250.300, 367.759 
	L 250.299, 367.760 
	L 250.299, 526.075 
" />
<path d="M 254.835, 367.759 
	L 254.835, 367.760 
	L 254.835, 526.075 
" />
<path d="M 259.371, 367.759 
	L 259.370, 367.760 
	L 259.370, 526.075 
" />
<path d="M 263.906, 367.759 
	L 263.906, 367.760 
	L 263.906, 526.075 
" />
<path d="M 268.442, 367.759 
	L 268.441, 367.760 
	L 268.441, 526.075 
" />
<path d="M 272.977, 367.759 
	L 272.976, 367.760 
	L 272.976, 526.075 
" />
<path d="M 277.513, 367.759 
	L 277.512, 367.760 
	L 277.512, 526.075 
" />
<path d="M 282.048, 367.759 
	L 282.047, 367.760 
	L 282.047, 526.075 
" />
<path d="M 286.583, 367.759 
	L 286.583, 367.760 
	L 286.583, 526.075 
" />
<path d="M 291.119, 367.759 
	L 291.118, 367.760 
	L 291.118, 526.075 
" />
<path d="M 295.654, 367.759 
	L 295.654, 367.760 
	L 295.654, 526.075 
" />
<path d="M 300.190, 367.759 
	L 300.189, 367.760 
	L 300.189, 526.075 
" />
<path d="M 304.725, 367.759 
	L 304.724, 367.760 
	L 304.724, 526.075 
" />
<path d="M 309.261, 367.759 
	L 309.260, 367.760 
	L 309.260, 526.075 
" />
<path d="M 313.796, 367.759 
	L 313.795, 367.760 
	L 313.795, 526.075 
" />
<path d="M 318.331, 367.759 
	L 318.331, 367.760 
	L 318.331, 526.075 
" />
<path d="M 322.867, 367.759 
	L 322.866, 367.760 
	L 322.866, 526.075 
" />
<path d="M 327.402, 367.759 
	L 327.402, 367.760 
	L 327.402, 526.075 
" />
<path d="M 331.938, 367.759 
	L 331.937, 367.760 
	L 331.937, 526.075 
" />
<path d="M 336.473, 367.759 
	L 336.472, 367.760 
	L 336.472, 526.075 
" />
<path d="M 341.009, 367.759 
	L 341.008, 367.760 
	L 341.008, 526.075 
" />
<path d="M 345.544, 367.759 
	L 345.543, 367.760 
	L 345.543, 526.075 
" />
<path d="M 350.079, 367.759 
	L 350.079, 367.760 
	L 350.079, 526.075 
" />
<path d="M 354.615, 367.759 
	L 354.614, 367.760 
	L 354.614, 526.075 
" />
<path d="M 359.150, 367.759 
	L 359.150, 367.760 
	L 359.150, 526.075 
" />
<path d="M 363.686, 367.759 
	L 363.685, 367.760 
	L 363.685, 526.075 
" />
<path d="M 368.221, 367.759 
	L 368.221, 367.760 
	L 368.221, 526.075 
" />
<path d="M 372.757, 367.759 
	L 372.756, 367.760 
	L 372.756, 526.075 
" />
<path d="M 377.292, 367.759 
	L 377.291, 367.760 
	L 377.291, 526.075 
" />
<path d="M 381.828, 367.759 
	L 381.827, 367.760 
	L 381.827, 526.075 
" />
<path d="M 386.363, 367.759 
	L 386.362, 367.760 
	L 386.362, 526.075 
" />
<path d="M 390.898, 367.759 
	L 390.898, 367.760 
	L 390.898, 526.075 
" />
<path d="M 395.434, 367.759 
	L 395.433, 367.760 
	L 395.433, 526.075 
" />
<path d="M 399.969, 367.759 
	L 399.969, 367.760 
	L 399.969, 526.075 
" />
<path d="M 404.505, 367.759 
	L 404.504, 367.760 
	L 404.504, 526.075 
" />
<path d="M 409.040, 367.759 
	L 409.039, 367.760 
	L 409.039, 526.075 
" />
<path d="M 413.576, 367.759 
	L 413.575, 367.760 
	L 413.575, 526.075 
" />
<path d="M 418.111, 367.759 
	L 418.110, 367.760 
	L 418.110, 526.075 
" />
<path d="M 422.646, 367.759 
	L 422.646, 367.760 
	L 422.646, 526.075 
" />
<path d="M 427.182, 367.759 
	L 427.181, 367.760 
	L 427.181, 526.075 
" />
<path d="M 431.717, 367.759 
	L 431.717, 367.760 
	L 431.717, 526.075 
" />
<path d="M 436.253, 367.759 
	L 436.252, 367.760 
	L 436.252, 526.075 
" />
<path d="M 440.788, 367.759 
	L 440.787, 367.760 
	L 440.787, 526.075 
" />
<path d="M 445.324, 367.759 
	L 445.323, 367.760 
	L 445.323, 526.075 
" />
<path d="M 449.859, 367.759 
	L 449.858, 367.760 
	L 449.858, 526.075 
" />
<path d="M 454.394, 367.759 
	L 454.394, 367.760 
	L 454.394, 526.075 
" />
<path d="M 458.930, 367.759 
	L 458.929, 367.760 
	L 458.929, 526.075 
" />
<path d="M 463.465, 367.759 
	L 463.465, 367.760 
	L 463.465, 526.075 
" />
<path d="M 468.001, 367.759 
	L 468.000, 367.760 
	L 468.000, 526.075 
" />
<path d="M 472.536, 367.759 
	L 472.536, 367.760 
	L 472.536, 526.075 
" />
<path d="M 477.072, 367.759 
	L 477.071, 367.760 
	L 477.071, 526.075 
" />
<path d="M 481.607, 367.759 
	L 481.606, 367.760 
	L 481.606, 526.075 
" />
<path d="M 486.142, 367.759 
	L 486.142, 367.760 
	L 486.142, 526.075 
" />
<path d="M 490.678, 367.759 
	L 490.677, 367.760 
	L 490.677, 526.075 
" />
<path d="M 495.213, 367.759 
	L 495.213, 367.760 
	L 495.213, 526.075 
" />
<path d="M 499.749, 367.759 
	L 499.748, 367.760 
	L 499.748, 526.075 
" />
<path d="M 504.284, 367.759 
	L 504.284, 367.760 
	L 504.284, 526.075 
" />
<path d="M 508.820, 367.759 
	L 508.819, 367.760 
	L 508.819, 526.075 
" />
<path d="M 513.355, 367.759 
	L 513.354, 367.760 
	L 513.354, 526.075 
" />
<path d="M 517.891, 367.759 
	L 517.890, 367.760 
	L 517.890, 526.075 
" />
<path d="M 522.426, 367.759 
	L 522.425, 367.760 
	L 522.425, 526.075 
" />
<path d="M 526.961, 367.759 
	L 526.961, 367.760 
	L 526.961, 526.075 
" />
<path d="M 531.497, 367.759 
	L 531.496, 367.760 
	L 531.496, 526.075 
" />
<path d="M 536.032, 367.759 
	L 536.032, 367.760 
	L 536.032, 526.075 
" />
<path d="M 540.568, 367.759 
	L 540.567, 367.760 
	L 540.567, 526.075 
" />
<path d="M 545.103, 367.759 
	L 545.102, 367.760 
	L 545.102, 526.075 
" />
<path d="M 549.639, 367.759 
	L 549.638, 367.760 
	L 549.638, 526.075 
" />
<path d="M 554.174, 367.759 
	L 554.173, 367.760 
	L 554.173, 526.075 
" />
<path d="M 558.709, 367.759 
	L 558.709, 367.760 
	L 558.709, 526.075 
" />
<path d="M 563.245, 367.759 
	L 563.244, 367.760 
	L 563.244, 526.075 
" />
<path d="M 567.780, 367.759 
	L 567.780, 367.760 
	L 567.780, 526.075 
" />
<path d="M 572.316, 367.759 
	L 572.315, 367.760 
	L 572.315, 526.075 
" />
<path d="M 576.851, 367.759 
	L 576.850, 367.760 
	L 576.850, 526.075 
" />
<path d="M 581.387, 367.759 
	L 581.386, 367.760 
	L 581.386, 526.075 
" />
<path d="M 585.922, 367.759 
	L 585.921, 367.760 
	L 585.921, 526.075 
" />
<path d="M 590.457, 367.759 
	L 590.457, 367.760 
	L 590.457, 526.075 
" />
<path d="M 594.993, 367.759 
	L 594.992, 367.760 
	L 594.992, 526.075 
" />
<path d="M 599.528, 367.759 
	L 599.528, 367.760 
	L 599.528, 526.075 
" />
<path d="M 604.064, 367.759 
	L 604.063, 367.760 
	L 604.063, 526.075 
" />
<path d="M 608.599, 367.759 
	L 608.599, 367.760 
	L 608.599, 526.075 
" />
<path d="M 613.135, 367.759 
	L 613.134, 367.760 
	L 613.134, 526.075 
" />
<path d="M 617.670, 367.759 
	L 617.669, 367.760 
	L 617.669, 526.075 
" />
<path d="M 622.206, 367.759 
	L 622.205, 367.760 
	L 622.205, 526.075 
" />
<path d="M 626.741, 367.759 
	L 626.740, 367.760 
	L 626.740, 526.075 
" />
<path d="M 631.276, 367.759 
	L 631.276, 367.760 
	L 631.276, 526.075 
" />
<path d="M 635.812, 367.759 
	L 635.811, 367.760 
	L 635.811, 526.075 
" />
<path d="M 640.347, 367.759 
	L 640.347, 367.760 
	L 640.347, 526.075 
" />
<path d="M 644.883, 367.759 
	L 644.882, 367.760 
	L 644.882, 526.075 
" />
<path d="M 649.418, 367.759 
	L 649.417, 367.760 
	L 649.417, 526.075 
" />
<path d="M 653.954, 367.759 
	L 653.953, 367.760 
	L 653.953, 526.075 
" />
<path d="M 658.489, 367.759 
	L 658.488, 367.760 
	L 658.488, 526.075 
" />
<path d="M 663.024, 367.759 
	L 663.024, 367.760 
	L 663.024, 526.075 
" />
<path d="M 667.560, 367.759 
	L 667.559, 367.760 
	L 667.559, 526.075 
" />
<path d="M 672.095, 367.759 
	L 672.095, 367.760 
	L 672.095, 526.075 
" />
<path d="M 676.631, 367.759 
	L 676.630, 367.760 
	L 676.630, 526.075 
" />
<path d="M 681.166, 367.759 
	L 681.165, 367.760 
	L 681.165, 526.075 
" />
<path d="M 685.702, 367.759 
	L 685.701, 367.760 
	L 685.701, 526.075 
" />
<path d="M 690.237, 367.759 
	L 690.236, 367.760 
	L 690.236, 526.075 
" />
<path d="M 694.772, 367.759 
	L 694.772, 367.760 
	L 694.772, 526.075 
" />
<path d="M 699.308, 367.759 
	L 699.307, 367.760 
	L 699.307, 526.075 
" />
<path d="M 703.843, 367.759 
	L 703.843, 367.760 
	L 703.843, 526.075 
" />
</g><g style="stroke:rgb(0,255,255); fill:none; stroke-width:0.100mm" >
<path d="M 344.906, 708.732 
	L 344.906, 708.732 
	L 344.906, 606.189 
	L 125.646, 606.189 
	L 125.646, 708.732 
	L 344.906, 708.732 
" />
</g><g style="stroke:rgb(255,0,255); fill:none; stroke-width:0.100mm" >
<path d="M 344.906, 606.153 
	L 344.906, 606.154 
	L 344.906, 367.760 
	L 125.646, 367.760 
	L 125.646, 606.154 
	L 344.906, 606.154 
" />
</g><g style="stroke:rgb(255,255,0); fill:none; stroke-width:0.100mm" >
<path d="M 125.611, 606.153 
	L 125.610, 606.154 
	L 125.610, 367.760 
	L 708.626, 367.760 
	L 708.626, 606.154 
	L 125.610, 606.154 
" />
<path d="M 125.646, 606.153 
	L 125.646, 606.154 
	L 125.646, 367.760 
" />
<path d="M 130.182, 606.153 
	L 130.181, 606.154 
	L 130.181, 367.760 
" />
<path d="M 134.717, 606.153 
	L 134.717, 606.154 
	L 134.717, 367.760 
" />
<path d="M 139.253, 606.153 
	L 139.252, 606.154 
	L 139.252, 367.760 
" />
<path d="M 143.788, 606.153 
	L 143.787, 606.154 
	L 143.787, 367.760 
" />
<path d="M 148.324, 606.153 
	L 148.323, 606.154 
	L 148.323, 367.760 
" />
<path d="M 152.859, 606.153 
	L 152.858, 606.154 
	L 152.858, 367.760 
" />
<path d="M 157.394, 606.153 
	L 157.394, 606.154 
	L 157.394, 367.760 
" />
<path d="M 161.930, 606.153 
	L 161.929, 606.154 
	L 161.929, 367.760 
" />
<path d="M 166.465, 606.153 
	L 166.465, 606.154 
	L 166.465, 367.760 
" />
<path d="M 171.001, 606.153 
	L 171.000, 606.154 
	L 171.000, 367.760 
" />
<path d="M 175.536, 606.153 
	L 175.535, 606.154 
	L 175.535, 367.760 
" />
<path d="M 180.072, 606.153 
	L 180.071, 606.154 
	L 180.071, 367.760 
" />
<path d="M 184.607, 606.153 
	L 184.606, 606.154 
	L 184.606, 367.760 
" />
<path d="M 189.142, 606.153 
	L 189.142, 606.154 
	L 189.142, 367.760 
" />
<path d="M 193.678, 606.153 
	L 193.677, 606.154 
	L 193.677, 367.760 
" />
<path d="M 198.213, 606.153 
	L 198.213, 606.154 
	L 198.213, 367.760 
" />
<path d="M 202.749, 606.153 
	L 202.748, 606.154 
	L 202.748, 367.760 
" />
<path d="M 207.284, 606.153 
	L 207.283, 606.154 
	L 207.283, 367.760 
" />
<path d="M 211.820, 606.153 
	L 211.819, 606.154 
	L 211.819, 367.760 
" />
<path d="M 216.355, 606.153 
	L 216.354, 606.154 
	L 216.354, 367.760 
" />
<path d="M 220.891, 606.153 
	L 220.890, 606.154 
	L 220.890, 367.760 
" />
<path d="M 225.426, 606.153 
	L 225.425, 606.154 
	L 225.425, 367.760 
" />
<path d="M 229.961, 606.153 
	L 229.961, 606.154 
	L 229.961, 367.760 
" />
<path d="M 234.497, 606.153 
	L 234.496, 606.154 
	L 234.496, 367.760 
" />
<path d="M 239.032, 606.153 
	L 239.032, 606.154 
	L 239.032, 367.760 
" />
<path d="M 243.568, 606.153 
	L 243.567, 606.154 
	L 243.567, 367.760 
" />
<path d="M 248.103, 606.153 
	L 248.102, 606.154 
	L 248.102, 367.760 
" />
<path d="M 252.639, 606.153 
	L 252.638, 606.154 
	L 252.638, 367.760 
" />
<path d="M 257.174, 606.153 
	L 257.173, 606.154 
	L 257.173, 367.760 
" />
<path d="M 261.709, 606.153 
	L 261.709, 606.154 
	L 261.709, 367.760 
" />
<path d="M 266.245, 606.153 
	L 266.244, 606.154 
	L 266.244, 367.760 
" />
<path d="M 270.780, 606.153 
	L 270.780, 606.154 
	L 270.780, 367.760 
" />
<path d="M 275.316, 606.153 
	L 275.315, 606.154 
	L 275.315, 367.760 
" />
<path d="M 279.851, 606.153 
	L 279.850, 606.154 
	L 279.850, 367.760 
" />
<path d="M 284.387, 606.153 
	L 284.386, 606.154 
	L 284.386, 367.760 
" />
<path d="M 288.922, 606.153 
	L 288.921, 606.154 
	L 288.921, 367.760 
" />
<path d="M 293.457, 606.153 
	L 293.457, 606.154 
	L 293.457, 367.760 
" />
<path d="M 297.993, 606.153 
	L 297.992, 606.154 
	L 297.992, 367.760 
" />
<path d="M 302.528, 606.153 
	L 302.528, 606.154 
	L 302.528, 367.760 
" />
<path d="M 307.064, 606.153 
	L 307.063, 606.154 
	L 307.063, 367.760 
" />
<path d="M 311.599, 606.153 
	L 311.598, 606.154 
	L 311.598, 367.760 
" />
<path d="M 316.135, 606.153 
	L 316.134, 606.154 
	L 316.134, 367.760 
" />
<path d="M 320.670, 606.153 
	L 320.669, 606.154 
	L 320.669, 367.760 
" />
<path d="M 325.205, 606.153 
	L 325.205, 606.154 
	L 325.205, 367.760 
" />
<path d="M 329.741, 606.153 
	L 329.740, 606.154 
	L 329.740, 367.760 
" />
<path d="M 334.276, 606.153 
	L 334.276, 606.154 
	L 334.276, 367.760 
" />
<path d="M 338.812, 606.153 
	L 338.811, 606.154 
	L 338.811, 367.760 
" />
<path d="M 343.347, 606.153 
	L 343.347, 606.154 
	L 343.347, 367.760 
" />
<path d="M 347.883, 606.153 
	L 347.882, 606.154 
	L 347.882, 367.760 
" />
<path d="M 352.418, 606.153 
	L 352.417, 606.154 
	L 352.417, 367.760 
" />
<path d="M 356.954, 606.153 
	L 356.953, 606.154 
	L 356.953, 367.760 
" />
<path d="M 361.489, 606.153 
	L 361.488, 606.154 
	L 361.488, 367.760 
" />
<path d="M 366.024, 606.153 
	L 366.024, 606.154 
	L 366.024, 367.760 
" />
<path d="M 370.560, 606.153 
	L 370.559, 606.154 
	L 370.559, 367.760 
" />
<path d="M 375.095, 606.153 
	L 375.095, 606.154 
	L 375.095, 367.760 
" />
<path d="M 379.631, 606.153 
	L 379.630, 606.154 
	L 379.630, 367.760 
" />
<path d="M 384.166, 606.153 
	L 384.165, 606.154 
	L 384.165, 367.760 
" />
<path d="M 388.702, 606.153 
	L 388.701, 606.154 
	L 388.701, 367.760 
" />
<path d="M 393.237, 606.153 
	L 393.236, 606.154 
	L 393.236, 367.760 
" />
<path d="M 397.772, 606.153 
	L 397.772, 606.154 
	L 397.772, 367.760 
" />
<path d="M 402.308, 606.153 
	L 402.307, 606.154 
	L 402.307, 367.760 
" />
<path d="M 406.843, 606.153 
	L 406.843, 606.154 
	L 406.843, 367.760 
" />
<path d="M 411.379, 606.153 
	L 411.378, 606.154 
	L 411.378, 367.760 
" />
<path d="M 415.914, 606.153 
	L 415.913, 606.154 
	L 415.913, 367.760 
" />
<path d="M 420.450, 606.153 
	L 420.449, 606.154 
	L 420.449, 367.760 
" />
<path d="M 424.985, 606.153 
	L 424.984, 606.154 
	L 424.984, 367.760 
" />
<path d="M 429.520, 606.153 
	L 429.520, 606.154 
	L 429.520, 367.760 
" />
<path d="M 434.056, 606.153 
	L 434.055, 606.154 
	L 434.055, 367.760 
" />
<path d="M 438.591, 606.153 
	L 438.591, 606.154 
	L 438.591, 367.760 
" />
<path d="M 443.127, 606.153 
	L 443.126, 606.154 
	L 443.126, 367.760 
" />
<path d="M 447.662, 606.153 
	L 447.661, 606.154 
	L 447.661, 367.760 
" />
<path d="M 452.198, 606.153 
	L 452.197, 606.154 
	L 452.197, 367.760 
" />
<path d="M 456.733, 606.153 
	L 456.732, 606.154 
	L 456.732, 367.760 
" />
<path d="M 461.268, 606.153 
	L 461.268, 606.154 
	L 461.268, 367.760 
" />
<path d="M 465.804, 606.153 
	L 465.803, 606.154 
	L 465.803, 367.760 
" />
<path d="M 470.339, 606.153 
	L 470.339, 606.154 
	L 470.339, 367.760 
" />
<path d="M 474.875, 606.153 
	L 474.874, 606.154 
	L 474.874, 367.760 
" />
<path d="M 479.410, 606.153 
	L 479.410, 606.154 
	L 479.410, 367.760 
" />
<path d="M 483.946, 606.153 
	L 483.945, 606.154 
	L 483.945, 367.760 
" />
<path d="M 488.481, 606.153 
	L 488.480, 606.154 
	L 488.480, 367.760 
" />
<path d="M 493.017, 606.153 
	L 493.016, 606.154 
	L 493.016, 367.760 
" />
<path d="M 497.552, 606.153 
	L 497.551, 606.154 
	L 497.551, 367.760 
" />
<path d="M 502.087, 606.153 
	L 502.087, 606.154 
	L 502.087, 367.760 
" />
<path d="M 506.623, 606.153 
	L 506.622, 606.154 
	L 506.622, 367.760 
" />
<path d="M 511.158, 606.153 
	L 511.158, 606.154 
	L 511.158, 367.760 
" />
<path d="M 515.694, 606.153 
	L 515.693, 606.154 
	L 515.693, 367.760 
" />
<path d="M 520.229, 606.153 
	L 520.228, 606.154 
	L 520.228, 367.760 
" />
<path d="M 524.765, 606.153 
	L 524.764, 606.154 
	L 524.764, 367.760 
" />
<path d="M 529.300, 606.153 
	L 529.299, 606.154 
	L 529.299, 367.760 
" />
<path d="M 533.835, 606.153 
	L 533.835, 606.154 
	L 533.835, 367.760 
" />
<path d="M 538.371, 606.153 
	L 538.370, 606.154 
	L 538.370, 367.760 
" />
<path d="M 542.906, 606.153 
	L 542.906, 606.154 
	L 542.906, 367.760 
" />
<path d="M 547.442, 606.153 
	L 547.441, 606.154 
	L 547.441, 367.760 
" />
<path d="M 551.977, 606.153 
	L 551.976, 606.154 
	L 551.976, 367.760 
" />
<path d="M 556.513, 606.153 
	L 556.512, 606.154 
	L 556.512, 367.760 
" />
<path d="M 561.048, 606.153 
	L 561.047, 606.154 
	L 561.047, 367.760 
" />
<path d="M 565.583, 606.153 
	L 565.583, 606.154 
	L 565.583, 367.760 
" />
<path d="M 570.119, 606.153 
	L 570.118, 606.154 
	L 570.118, 367.760 
" />
<path d="M 574.654, 606.153 
	L 574.654, 606.154 
	L 574.654, 367.760 
" />
<path d="M 579.190, 606.153 
	L 579.189, 606.154 
	L 579.189, 367.760 
" />
<path d="M 583.725, 606.153 
	L 583.724, 606.154 
	L 583.724, 367.760 
" />
<path d="M 588.261, 606.153 
	L 588.260, 606.154 
	L 588.260, 367.760 
" />
<path d="M 592.796, 606.153 
	L 592.795, 606.154 
	L 592.795, 367.760 
" />
<path d="M 597.331, 606.153 
	L 597.331, 606.154 
	L 597.331, 367.760 
" />
<path d="M 601.867, 606.153 
	L 601.866, 606.154 
	L 601.866, 367.760 
" />
<path d="M 606.402, 606.153 
	L 606.402, 606.154 
	L 606.402, 367.760 
" />
<path d="M 610.938, 606.153 
	L 610.937, 606.154 
	L 610.937, 367.760 
" />
<path d="M 615.473, 606.153 
	L 615.473, 606.154 
	L 615.473, 367.760 
" />
<path d="M 620.009, 606.153 
	L 620.008, 606.154 
	L 620.008, 367.760 
" />
<path d="M 624.544, 606.153 
	L 624.543, 606.154 
	L 624.543, 367.760 
" />
<path d="M 629.080, 606.153 
	L 629.079, 606.154 
	L 629.079, 367.760 
" />
<path d="M 633.615, 606.153 
	L 633.614, 606.154 
	L 633.614, 367.760 
" />
<path d="M 638.150, 606.153 
	L 638.150, 606.154 
	L 638.150, 367.760 
" />
<path d="M 642.686, 606.153 
	L 642.685, 606.154 
	L 642.685, 367.760 
" />
<path d="M 647.221, 606.153 
	L 647.221, 606.154 
	L 647.221, 367.760 
" />
<path d="M 651.757, 606.153 
	L 651.756, 606.154 
	L 651.756, 367.760 
" />
<path d="M 656.292, 606.153 
	L 656.291, 606.154 
	L 656.291, 367.760 
" />
<path d="M 660.828, 606.153 
	L 660.827, 606.154 
	L 660.827, 367.760 
" />
<path d="M 665.363, 606.153 
	L 665.362, 606.154 
	L 665.362, 367.760 
" />
<path d="M 669.898, 606.153 
	L 669.898, 606.154 
	L 669.898, 367.760 
" />
<path d="M 674.434, 606.153 
	L 674.433, 606.154 
	L 674.433, 367.760 
" />
<path d="M 678.969, 606.153 
	L 678.969, 606.154 
	L 678.969, 367.760 
" />
<path d="M 683.505, 606.153 
	L 683.504, 606.154 
	L 683.504, 367.760 
" />
<path d="M 688.040, 606.153 
	L 688.039, 606.154 
	L 688.039, 367.760 
" />
<path d="M 692.576, 606.153 
	L 692.575, 606.154 
	L 692.575, 367.760 
" />
<path d="M 697.111, 606.153 
	L 697.110, 606.154 
	L 697.110, 367.760 
" />
<path d="M 701.646, 606.153 
	L 701.646, 606.154 
	L 701.646, 367.760 
" />
</g>
</svg>
