<?xml version="1.0" encoding="UTF-8" standalone="no" ?>
<svg width="100%" height="100%" viewBox="0 0 708.697 708.697" xmlns="http://www.w3.org/2000/svg"><g>
</g><g style="stroke:rgb(0,0,0); fill:none; stroke-width:1.000mm" >
</g><g style="stroke:rgb(0,255,0); fill:none; stroke-width:0.100mm" >
<path d="M 0.036, 708.696 
	L 0.035, 708.697 
	L 0.035, 0.035 
	L 708.697, 0.035 
	L 708.697, 708.697 
	L 0.035, 708.697 
" />
</g><g style="stroke:rgb(0,0,0); fill:none; stroke-width:0.100mm" >
<path d="M 0.001, 357.165 
	L 0.000, 357.165 
	L 0.000, 0.071 
	L 310.606, 0.071 
	L 310.606, 357.165 
	L 0.000, 357.165 
" />
<path d="M 0.036, 357.129 
	L 0.035, 357.130 
	L 0.035, 0.035 
" />
<path d="M 4.642, 357.129 
	L 4.642, 357.130 
	L 4.642, 0.035 
" />
<path d="M 9.249, 357.129 
	L 9.248, 357.130 
	L 9.248, 0.035 
" />
<path d="M 13.855, 357.129 
	L 13.854, 357.130 
	L 13.854, 0.035 
" />
<path d="M 18.461, 357.129 
	L 18.461, 357.130 
	L 18.461, 0.035 
" />
<path d="M 23.068, 357.129 
	L 23.067, 357.130 
	L 23.067, 0.035 
" />
<path d="M 27.674, 357.129 
	L 27.673, 357.130 
	L 27.673, 0.035 
" />
<path d="M 32.280, 357.129 
	L 32.280, 357.130 
	L 32.280, 0.035 
" />
<path d="M 36.887, 357.129 
	L 36.886, 357.130 
	L 36.886, 0.035 
" />
<path d="M 41.493, 357.129 
	L 41.492, 357.130 
	L 41.492, 0.035 
" />
<path d="M 46.099, 357.129 
	L 46.098, 357.130 
	L 46.098, 0.035 
" />
<path d="M 50.705, 357.129 
	L 50.705, 357.130 
	L 50.705, 0.035 
" />
<path d="M 55.312, 357.129 
	L 55.311, 357.130 
	L 55.311, 0.035 
" />
<path d="M 59.918, 357.129 
	L 59.917, 357.130 
	L 59.917, 0.035 
" />
<path d="M 64.524, 357.129 
	L 64.524, 357.130 
	L 64.524, 0.035 
" />
<path d="M 69.131, 357.129 
	L 69.130, 357.130 
	L 69.130, 0.035 
" />
<path d="M 73.737, 357.129 
	L 73.736, 357.130 
	L 73.736, 0.035 
" />
<path d="M 78.343, 357.129 
	L 78.343, 357.130 
	L 78.343, 0.035 
" />
<path d="M 82.950, 357.129 
	L 82.949, 357.130 
	L 82.949, 0.035 
" />
<path d="M 87.556, 357.129 
	L 87.555, 357.130 
	L 87.555, 0.035 
" />
<path d="M 92.162, 357.129 
	L 92.161, 357.130 
	L 92.161, 0.035 
" />
<path d="M 96.768, 357.129 
	L 96.768, 357.130 
	L 96.768, 0.035 
" />
<path d="M 101.375, 357.129 
	L 101.374, 357.130 
	L 101.374, 0.035 
" />
<path d="M 105.981, 357.129 
	L 105.980, 357.130 
	L 105.980, 0.035 
" />
<path d="M 110.587, 357.129 
	L 110.587, 357.130 
	L 110.587, 0.035 
" />
<path d="M 115.194, 357.129 
	L 115.193, 357.130 
	L 115.193, 0.035 
" />
<path d="M 119.800, 357.129 
	L 119.799, 357.130 
	L 119.799, 0.035 
" />
<path d="M 124.406, 357.129 
	L 124.406, 357.130 
	L 124.406, 0.035 
" />
<path d="M 129.013, 357.129 
	L 129.012, 357.130 
	L 129.012, 0.035 
" />
<path d="M 133.619, 357.129 
	L 133.618, 357.130 
	L 133.618, 0.035 
" />
<path d="M 138.225, 357.129 
	L 138.224, 357.130 
	L 138.224, 0.035 
" />
<path d="M 142.831, 357.129 
	L 142.831, 357.130 
	L 142.831, 0.035 
" />
<path d="M 147.438, 357.129 
	L 147.437, 357.130 
	L 147.437, 0.035 
" />
<path d="M 152.044, 357.129 
	L 152.043, 357.130 
	L 152.043, 0.035 
" />
<path d="M 156.650, 357.129 
	L 156.650, 357.130 
	L 156.650, 0.035 
" />
<path d="M 161.257, 357.129 
	L 161.256, 357.130 
	L 161.256, 0.035 
" />
<path d="M 165.863, 357.129 
	L 165.862, 357.130 
	L 165.862, 0.035 
" />
<path d="M 170.469, 357.129 
	L 170.469, 357.130 
	L 170.469, 0.035 
" />
<path d="M 175.076, 357.129 
	L 175.075, 357.130 
	L 175.075, 0.035 
" />
<path d="M 179.682, 357.129 
	L 179.681, 357.130 
	L 179.681, 0.035 
" />
<path d="M 184.288, 357.129 
	L 184.287, 357.130 
	L 184.287, 0.035 
" />
<path d="M 188.894, 357.129 
	L 188.894, 357.130 
	L 188.894, 0.035 
" />
<path d="M 193.501, 357.129 
	L 193.500, 357.130 
	L 193.500, 0.035 
" />
<path d="M 198.107, 357.129 
	L 198.106, 357.130 
	L 198.106, 0.035 
" />
<path d="M 202.713, 357.129 
	L 202.713, 357.130 
	L 202.713, 0.035 
" />
<path d="M 207.320, 357.129 
	L 207.319, 357.130 
	L 207.319, 0.035 
" />
<path d="M 211.926, 357.129 
	L 211.925, 357.130 
	L 211.925, 0.035 
" />
<path d="M 216.532, 357.129 
	L 216.532, 357.130 
	L 216.532, 0.035 
" />
<path d="M 221.139, 357.129 
	L 221.138, 357.130 
	L 221.138, 0.035 
" />
<path d="M 225.745, 357.129 
	L 225.744, 357.130 
	L 225.744, 0.035 
" />
<path d="M 230.351, 357.129 
	L 230.350, 357.130 
	L 230.350, 0.035 
" />
<path d="M 234.957, 357.129 
	L 234.957, 357.130 
	L 234.957, 0.035 
" />
<path d="M 239.564, 357.129 
	L 239.563, 357.130 
	L 239.563, 0.035 
" />
<path d="M 244.170, 357.129 
	L 244.169, 357.130 
	L 244.169, 0.035 
" />
<path d="M 248.776, 357.129 
	L 248.776, 357.130 
	L 248.776, 0.035 
" />
<path d="M 253.383, 357.129 
	L 253.382, 357.130 
	L 253.382, 0.035 
" />
<path d="M 257.989, 357.129 
	L 257.988, 357.130 
	L 257.988, 0.035 
" />
<path d="M 262.595, 357.129 
	L 262.595, 357.130 
	L 262.595, 0.035 
" />
<path d="M 267.202, 357.129 
	L 267.201, 357.130 
	L 267.201, 0.035 
" />
<path d="M 271.808, 357.129 
	L 271.807, 357.130 
	L 271.807, 0.035 
" />
<path d="M 276.414, 357.129 
	L 276.413, 357.130 
	L 276.413, 0.035 
" />
<path d="M 281.020, 357.129 
	L 281.020, 357.130 
	L 281.020, 0.035 
" />
<path d="M 285.627, 357.129 
	L 285.626, 357.130 
	L 285.626, 0.035 
" />
<path d="M 290.233, 357.129 
	L 290.232, 357.130 
	L 290.232, 0.035 
" />
<path d="M 294.839, 357.129 
	L 294.839, 357.130 
	L 294.839, 0.035 
" />
<path d="M 299.446, 357.129 
	L 299.445, 357.130 
	L 299.445, 0.035 
" />
<path d="M 304.052, 357.129 
	L 304.051, 357.130 
	L 304.051, 0.035 
" />
</g><g style="stroke:rgb(255,0,0); fill:none; stroke-width:0.100mm" >
<path d="M 310.607, 357.165 
	L 310.606, 357.165 
	L 310.606, 0.071 
	L 708.662, 0.071 
	L 708.662, 357.165 
	L 310.606, 357.165 
" />
<path d="M 310.642, 357.129 
	L 310.642, 357.130 
	L 310.642, 0.035 
" />
<path d="M 315.178, 357.129 
	L 315.177, 357.130 
	L 315.177, 0.035 
" />
<path d="M 319.713, 357.129 
	L 319.713, 357.130 
	L 319.713, 0.035 
" />
<path d="M 324.249, 357.129 
	L 324.248, 357.130 
	L 324.248, 0.035 
" />
<path d="M 328.784, 357.129 
	L 328.784, 357.130 
	L 328.784, 0.035 
" />
<path d="M 333.320, 357.129 
	L 333.319, 357.130 
	L 333.319, 0.035 
" />
<path d="M 337.855, 357.129 
	L 337.854, 357.130 
	L 337.854, 0.035 
" />
<path d="M 342.391, 357.129 
	L 342.390, 357.130 
	L 342.390, 0.035 
" />
<path d="M 346.926, 357.129 
	L 346.925, 357.130 
	L 346.925, 0.035 
" />
<path d="M 351.461, 357.129 
	L 351.461, 357.130 
	L 351.461, 0.035 
" />
<path d="M 355.997, 357.129 
	L 355.996, 357.130 
	L 355.996, 0.035 
" />
<path d="M 360.532, 357.129 
	L 360.532, 357.130 
	L 360.532, 0.035 
" />
<path d="M 365.068, 357.129 
	L 365.067, 357.130 
	L 365.067, 0.035 
" />
<path d="M 369.603, 357.129 
	L 369.602, 357.130 
	L 369.602, 0.035 
" />
<path d="M 374.139, 357.129 
	L 374.138, 357.130 
	L 374.138, 0.035 
" />
<path d="M 378.674, 357.129 
	L 378.673, 357.130 
	L 378.673, 0.035 
" />
<path d="M 383.209, 357.129 
	L 383.209, 357.130 
	L 383.209, 0.035 
" />
<path d="M 387.745, 357.129 
	L 387.744, 357.130 
	L 387.744, 0.035 
" />
<path d="M 392.280, 357.129 
	L 392.280, 357.130 
	L 392.280, 0.035 
" />
<path d="M 396.816, 357.129 
	L 396.815, 357.130 
	L 396.815, 0.035 
" />
<path d="M 401.351, 357.129 
	L 401.350, 357.130 
	L 401.350, 0.035 
" />
<path d="M 405.887, 357.129 
	L 405.886, 357.130 
	L 405.886, 0.035 
" />
<path d="M 410.422, 357.129 
	L 410.421, 357.130 
	L 410.421, 0.035 
" />
<path d="M 414.957, 357.129 
	L 414.957, 357.130 
	L 414.957, 0.035 
" />
<path d="M 419.493, 357.129 
	L 419.492, 357.130 
	L 419.492, 0.035 
" />
<path d="M 424.028, 357.129 
	L 424.028, 357.130 
	L 424.028, 0.035 
" />
<path d="M 428.564, 357.129 
	L 428.563, 357.130 
	L 428.563, 0.035 
" />
<path d="M 433.099, 357.129 
	L 433.098, 357.130 
	L 433.098, 0.035 
" />
<path d="M 437.635, 357.129 
	L 437.634, 357.130 
	L 437.634, 0.035 
" />
<path d="M 442.170, 357.129 
	L 442.169, 357.130 
	L 442.169, 0.035 
" />
<path d="M 446.705, 357.129 
	L 446.705, 357.130 
	L 446.705, 0.035 
" />
<path d="M 451.241, 357.129 
	L 451.240, 357.130 
	L 451.240, 0.035 
" />
<path d="M 455.776, 357.129 
	L 455.776, 357.130 
	L 455.776, 0.035 
" />
<path d="M 460.312, 357.129 
	L 460.311, 357.130 
	L 460.311, 0.035 
" />
<path d="M 464.847, 357.129 
	L 464.847, 357.130 
	L 464.847, 0.035 
" />
<path d="M 469.383, 357.129 
	L 469.382, 357.130 
	L 469.382, 0.035 
" />
<path d="M 473.918, 357.129 
	L 473.917, 357.130 
	L 473.917, 0.035 
" />
<path d="M 478.454, 357.129 
	L 478.453, 357.130 
	L 478.453, 0.035 
" />
<path d="M 482.989, 357.129 
	L 482.988, 357.130 
	L 482.988, 0.035 
" />
<path d="M 487.524, 357.129 
	L 487.524, 357.130 
	L 487.524, 0.035 
" />
<path d="M 492.060, 357.129 
	L 492.059, 357.130 
	L 492.059, 0.035 
" />
<path d="M 496.595, 357.129 
	L 496.595, 357.130 
	L 496.595, 0.035 
" />
<path d="M 501.131, 357.129 
	L 501.130, 357.130 
	L 501.130, 0.035 
" />
<path d="M 505.666, 357.129 
	L 505.665, 357.130 
	L 505.665, 0.035 
" />
<path d="M 510.202, 357.129 
	L 510.201, 357.130 
	L 510.201, 0.035 
" />
<path d="M 514.737, 357.129 
	L 514.736, 357.130 
	L 514.736, 0.035 
" />
<path d="M 519.272, 357.129 
	L 519.272, 357.130 
	L 519.272, 0.035 
" />
<path d="M 523.808, 357.129 
	L 523.807, 357.130 
	L 523.807, 0.035 
" />
<path d="M 528.343, 357.129 
	L 528.343, 357.130 
	L 528.343, 0.035 
" />
<path d="M 532.879, 357.129 
	L 532.878, 357.130 
	L 532.878, 0.035 
" />
<path d="M 537.414, 357.129 
	L 537.413, 357.130 
	L 537.413, 0.035 
" />
<path d="M 541.950, 357.129 
	L 541.949, 357.130 
	L 541.949, 0.035 
" />
<path d="M 546.485, 357.129 
	L 546.484, 357.130 
	L 546.484, 0.035 
" />
<path d="M 551.020, 357.129 
	L 551.020, 357.130 
	L 551.020, 0.035 
" />
<path d="M 555.556, 357.129 
	L 555.555, 357.130 
	L 555.555, 0.035 
" />
<path d="M 560.091, 357.129 
	L 560.091, 357.130 
	L 560.091, 0.035 
" />
<path d="M 564.627, 357.129 
	L 564.626, 357.130 
	L 564.626, 0.035 
" />
<path d="M 569.162, 357.129 
	L 569.162, 357.130 
	L 569.162, 0.035 
" />
<path d="M 573.698, 357.129 
	L 573.697, 357.130 
	L 573.697, 0.035 
" />
<path d="M 578.233, 357.129 
	L 578.232, 357.130 
	L 578.232, 0.035 
" />
<path d="M 582.768, 357.129 
	L 582.768, 357.130 
	L 582.768, 0.035 
" />
<path d="M 587.304, 357.129 
	L 587.303, 357.130 
	L 587.303, 0.035 
" />
<path d="M 591.839, 357.129 
	L 591.839, 357.130 
	L 591.839, 0.035 
" />
<path d="M 596.375, 357.129 
	L 596.374, 357.130 
	L 596.374, 0.035 
" />
<path d="M 600.910, 357.129 
	L 600.910, 357.130 
	L 600.910, 0.035 
" />
<path d="M 605.446, 357.129 
	L 605.445, 357.130 
	L 605.445, 0.035 
" />
<path d="M 609.981, 357.129 
	L 609.980, 357.130 
	L 609.980, 0.035 
" />
<path d="M 614.517, 357.129 
	L 614.516, 357.130 
	L 614.516, 0.035 
" />
<path d="M 619.052, 357.129 
	L 619.051, 357.130 
	L 619.051, 0.035 
" />
<path d="M 623.587, 357.129 
	L 623.587, 357.130 
	L 623.587, 0.035 
" />
<path d="M 628.123, 357.129 
	L 628.122, 357.130 
	L 628.122, 0.035 
" />
<path d="M 632.658, 357.129 
	L 632.658, 357.130 
	L 632.658, 0.035 
" />
<path d="M 637.194, 357.129 
	L 637.193, 357.130 
	L 637.193, 0.035 
" />
<path d="M 641.729, 357.129 
	L 641.728, 357.130 
	L 641.728, 0.035 
" />
<path d="M 646.265, 357.129 
	L 646.264, 357.130 
	L 646.264, 0.035 
" />
<path d="M 650.800, 357.129 
	L 650.799, 357.130 
	L 650.799, 0.035 
" />
<path d="M 655.335, 357.129 
	L 655.335, 357.130 
	L 655.335, 0.035 
" />
<path d="M 659.871, 357.129 
	L 659.870, 357.130 
	L 659.870, 0.035 
" />
<path d="M 664.406, 357.129 
	L 664.406, 357.130 
	L 664.406, 0.035 
" />
<path d="M 668.942, 357.129 
	L 668.941, 357.130 
	L 668.941, 0.035 
" />
<path d="M 673.477, 357.129 
	L 673.476, 357.130 
	L 673.476, 0.035 
" />
<path d="M 678.013, 357.129 
	L 678.012, 357.130 
	L 678.012, 0.035 
" />
<path d="M 682.548, 357.129 
	L 682.547, 357.130 
	L 682.547, 0.035 
" />
<path d="M 687.083, 357.129 
	L 687.083, 357.130 
	L 687.083, 0.035 
" />
<path d="M 691.619, 357.129 
	L 691.618, 357.130 
	L 691.618, 0.035 
" />
<path d="M 696.154, 357.129 
	L 696.154, 357.130 
	L 696.154, 0.035 
" />
<path d="M 700.690, 357.129 
	L 700.689, 357.130 
	L 700.689, 0.035 
" />
</g><g style="stroke:rgb(0,255,0); fill:none; stroke-width:0.100mm" >
<path d="M 310.607, 708.732 
	L 310.606, 708.732 
	L 310.606, 357.165 
	L 708.662, 357.165 
	L 708.662, 708.732 
	L 310.606, 708.732 
" />
<path d="M 310.642, 708.696 
	L 310.642, 708.697 
	L 310.642, 357.130 
" />
<path d="M 315.178, 708.696 
	L 315.177, 708.697 
	L 315.177, 357.130 
" />
<path d="M 319.713, 708.696 
	L 319.713, 708.697 
	L 319.713, 357.130 
" />
<path d="M 324.249, 708.696 
	L 324.248, 708.697 
	L 324.248, 357.130 
" />
<path d="M 328.784, 708.696 
	L 328.784, 708.697 
	L 328.784, 357.130 
" />
<path d="M 333.320, 708.696 
	L 333.319, 708.697 
	L 333.319, 357.130 
" />
<path d="M 337.855, 708.696 
	L 337.854, 708.697 
	L 337.854, 357.130 
" />
<path d="M 342.391, 708.696 
	L 342.390, 708.697 
	L 342.390, 357.130 
" />
<path d="M 346.926, 708.696 
	L 346.925, 708.697 
	L 346.925, 357.130 
" />
<path d="M 351.461, 708.696 
	L 351.461, 708.697 
	L 351.461, 357.130 
" />
<path d="M 355.997, 708.696 
	L 355.996, 708.697 
	L 355.996, 357.130 
" />
<path d="M 360.532, 708.696 
	L 360.532, 708.697 
	L 360.532, 357.130 
" />
<path d="M 365.068, 708.696 
	L 365.067, 708.697 
	L 365.067, 357.130 
" />
<path d="M 369.603, 708.696 
	L 369.602, 708.697 
	L 369.602, 357.130 
" />
<path d="M 374.139, 708.696 
	L 374.138, 708.697 
	L 374.138, 357.130 
" />
<path d="M 378.674, 708.696 
	L 378.673, 708.697 
	L 378.673, 357.130 
" />
<path d="M 383.209, 708.696 
	L 383.209, 708.697 
	L 383.209, 357.130 
" />
<path d="M 387.745, 708.696 
	L 387.744, 708.697 
	L 387.744, 357.130 
" />
<path d="M 392.280, 708.696 
	L 392.280, 708.697 
	L 392.280, 357.130 
" />
<path d="M 396.816, 708.696 
	L 396.815, 708.697 
	L 396.815, 357.130 
" />
<path d="M 401.351, 708.696 
	L 401.350, 708.697 
	L 401.350, 357.130 
" />
<path d="M 405.887, 708.696 
	L 405.886, 708.697 
	L 405.886, 357.130 
" />
<path d="M 410.422, 708.696 
	L 410.421, 708.697 
	L 410.421, 357.130 
" />
<path d="M 414.957, 708.696 
	L 414.957, 708.697 
	L 414.957, 357.130 
" />
<path d="M 419.493, 708.696 
	L 419.492, 708.697 
	L 419.492, 357.130 
" />
<path d="M 424.028, 708.696 
	L 424.028, 708.697 
	L 424.028, 357.130 
" />
<path d="M 428.564, 708.696 
	L 428.563, 708.697 
	L 428.563, 357.130 
" />
<path d="M 433.099, 708.696 
	L 433.098, 708.697 
	L 433.098, 357.130 
" />
<path d="M 437.635, 708.696 
	L 437.634, 708.697 
	L 437.634, 357.130 
" />
<path d="M 442.170, 708.696 
	L 442.169, 708.697 
	L 442.169, 357.130 
" />
<path d="M 446.705, 708.696 
	L 446.705, 708.697 
	L 446.705, 357.130 
" />
<path d="M 451.241, 708.696 
	L 451.240, 708.697 
	L 451.240, 357.130 
" />
<path d="M 455.776, 708.696 
	L 455.776, 708.697 
	L 455.776, 357.130 
" />
<path d="M 460.312, 708.696 
	L 460.311, 708.697 
	L 460.311, 357.130 
" />
<path d="M 464.847, 708.696 
	L 464.847, 708.697 
	L 464.847, 357.130 
" />
<path d="M 469.383, 708.696 
	L 469.382, 708.697 
	L 469.382, 357.130 
" />
<path d="M 473.918, 708.696 
	L 473.917, 708.697 
	L 473.917, 357.130 
" />
<path d="M 478.454, 708.696 
	L 478.453, 708.697 
	L 478.453, 357.130 
" />
<path d="M 482.989, 708.696 
	L 482.988, 708.697 
	L 482.988, 357.130 
" />
<path d="M 487.524, 708.696 
	L 487.524, 708.697 
	L 487.524, 357.130 
" />
<path d="M 492.060, 708.696 
	L 492.059, 708.697 
	L 492.059, 357.130 
" />
<path d="M 496.595, 708.696 
	L 496.595, 708.697 
	L 496.595, 357.130 
" />
<path d="M 501.131, 708.696 
	L 501.130, 708.697 
	L 501.130, 357.130 
" />
<path d="M 505.666, 708.696 
	L 505.665, 708.697 
	L 505.665, 357.130 
" />
<path d="M 510.202, 708.696 
	L 510.201, 708.697 
	L 510.201, 357.130 
" />
<path d="M 514.737, 708.696 
	L 514.736, 708.697 
	L 514.736, 357.130 
" />
<path d="M 519.272, 708.696 
	L 519.272, 708.697 
	L 519.272, 357.130 
" />
<path d="M 523.808, 708.696 
	L 523.807, 708.697 
	L 523.807, 357.130 
" />
<path d="M 528.343, 708.696 
	L 528.343, 708.697 
	L 528.343, 357.130 
" />
<path d="M 532.879, 708.696 
	L 532.878, 708.697 
	L 532.878, 357.130 
" />
<path d="M 537.414, 708.696 
	L 537.413, 708.697 
	L 537.413, 357.130 
" />
<path d="M 541.950, 708.696 
	L 541.949, 708.697 
	L 541.949, 357.130 
" />
<path d="M 546.485, 708.696 
	L 546.484, 708.697 
	L 546.484, 357.130 
" />
<path d="M 551.020, 708.696 
	L 551.020, 708.697 
	L 551.020, 357.130 
" />
<path d="M 555.556, 708.696 
	L 555.555, 708.697 
	L 555.555, 357.130 
" />
<path d="M 560.091, 708.696 
	L 560.091, 708.697 
	L 560.091, 357.130 
" />
<path d="M 564.627, 708.696 
	L 564.626, 708.697 
	L 564.626, 357.130 
" />
<path d="M 569.162, 708.696 
	L 569.162, 708.697 
	L 569.162, 357.130 
" />
<path d="M 573.698, 708.696 
	L 573.697, 708.697 
	L 573.697, 357.130 
" />
<path d="M 578.233, 708.696 
	L 578.232, 708.697 
	L 578.232, 357.130 
" />
<path d="M 582.768, 708.696 
	L 582.768, 708.697 
	L 582.768, 357.130 
" />
<path d="M 587.304, 708.696 
	L 587.303, 708.697 
	L 587.303, 357.130 
" />
<path d="M 591.839, 708.696 
	L 591.839, 708.697 
	L 591.839, 357.130 
" />
<path d="M 596.375, 708.696 
	L 596.374, 708.697 
	L 596.374, 357.130 
" />
<path d="M 600.910, 708.696 
	L 600.910, 708.697 
	L 600.910, 357.130 
" />
<path d="M 605.446, 708.696 
	L 605.445, 708.697 
	L 605.445, 357.130 
" />
<path d="M 609.981, 708.696 
	L 609.980, 708.697 
	L 609.980, 357.130 
" />
<path d="M 614.517, 708.696 
	L 614.516, 708.697 
	L 614.516, 357.130 
" />
<path d="M 619.052, 708.696 
	L 619.051, 708.697 
	L 619.051, 357.130 
" />
<path d="M 623.587, 708.696 
	L 623.587, 708.697 
	L 623.587, 357.130 
" />
<path d="M 628.123, 708.696 
	L 628.122, 708.697 
	L 628.122, 357.130 
" />
<path d="M 632.658, 708.696 
	L 632.658, 708.697 
	L 632.658, 357.130 
" />
<path d="M 637.194, 708.696 
	L 637.193, 708.697 
	L 637.193, 357.130 
" />
<path d="M 641.729, 708.696 
	L 641.728, 708.697 
	L 641.728, 357.130 
" />
<path d="M 646.265, 708.696 
	L 646.264, 708.697 
	L 646.264, 357.130 
" />
<path d="M 650.800, 708.696 
	L 650.799, 708.697 
	L 650.799, 357.130 
" />
<path d="M 655.335, 708.696 
	L 655.335, 708.697 
	L 655.335, 357.130 
" />
<path d="M 659.871, 708.696 
	L 659.870, 708.697 
	L 659.870, 357.130 
" />
<path d="M 664.406, 708.696 
	L 664.406, 708.697 
	L 664.406, 357.130 
" />
<path d="M 668.942, 708.696 
	L 668.941, 708.697 
	L 668.941, 357.130 
" />
<path d="M 673.477, 708.696 
	L 673.476, 708.697 
	L 673.476, 357.130 
" />
<path d="M 678.013, 708.696 
	L 678.012, 708.697 
	L 678.012, 357.130 
" />
<path d="M 682.548, 708.696 
	L 682.547, 708.697 
	L 682.547, 357.130 
" />
<path d="M 687.083, 708.696 
	L 687.083, 708.697 
	L 687.083, 357.130 
" />
<path d="M 691.619, 708.696 
	L 691.618, 708.697 
	L 691.618, 357.130 
" />
<path d="M 696.154, 708.696 
	L 696.154, 708.697 
	L 696.154, 357.130 
" />
<path d="M 700.690, 708.696 
	L 700.689, 708.697 
	L 700.689, 357.130 
" />
</g>
</svg>
