<?xml version="1.0" encoding="UTF-8" standalone="no" ?>
<svg width="100%" height="100%" viewBox="0 0 708.697 708.662" xmlns="http://www.w3.org/2000/svg"><g>
</g><g style="stroke:rgb(0,0,0); fill:none; stroke-width:1.000mm" >
</g><g style="stroke:rgb(0,255,0); fill:none; stroke-width:0.100mm" >
<path d="M 0.036, 708.661 
	L 0.035, 708.662 
	L 0.035, 0.000 
	L 708.697, 0.000 
	L 708.697, 708.662 
	L 0.035, 708.662 
" />
</g><g style="stroke:rgb(0,0,0); fill:none; stroke-width:0.100mm" >
<path d="M 0.036, 708.661 
	L 0.035, 708.662 
	L 0.035, 392.315 
	L 233.752, 392.315 
	L 233.752, 708.662 
	L 0.035, 708.662 
" />
</g><g style="stroke:rgb(255,0,0); fill:none; stroke-width:0.100mm" >
<path d="M 0.036, 392.314 
	L 0.035, 392.315 
	L 0.035, 153.780 
	L 233.752, 153.780 
	L 233.752, 392.315 
	L 0.035, 392.315 
" />
</g><g style="stroke:rgb(0,255,0); fill:none; stroke-width:0.100mm" >
<path d="M 233.753, 392.314 
	L 233.752, 392.315 
	L 233.752, 153.780 
	L 494.823, 153.780 
	L 494.823, 392.315 
	L 233.752, 392.315 
" />
</g><g style="stroke:rgb(0,0,255); fill:none; stroke-width:0.100mm" >
<path d="M 233.753, 708.661 
	L 233.752, 708.662 
	L 233.752, 392.315 
	L 494.823, 392.315 
	L 494.823, 708.662 
	L 233.752, 708.662 
" />
</g><g style="stroke:rgb(0,255,255); fill:none; stroke-width:0.100mm" >
<path d="M 0.001, 153.814 
	L 0.000, 153.815 
	L 0.000, 31.571 
	L 415.205, 31.571 
	L 415.205, 153.815 
	L 0.000, 153.815 
" />
</g><g style="stroke:rgb(255,0,255); fill:none; stroke-width:0.100mm" >
<path d="M 0.001, 31.570 
	L 0.000, 31.571 
	L 0.000, 0.035 
	L 415.205, 0.035 
	L 415.205, 31.571 
	L 0.000, 31.571 
" />
</g><g style="stroke:rgb(255,255,0); fill:none; stroke-width:0.100mm" >
<path d="M 415.205, 31.570 
	L 415.205, 31.571 
	L 415.205, 0.035 
	L 494.787, 0.035 
	L 494.787, 31.571 
	L 415.205, 31.571 
" />
</g><g style="stroke:rgb(0,0,0); fill:none; stroke-width:0.100mm" >
<path d="M 415.205, 153.814 
	L 415.205, 153.815 
	L 415.205, 31.571 
	L 494.787, 31.571 
	L 494.787, 153.815 
	L 415.205, 153.815 
" />
</g><g style="stroke:rgb(0,0,0); fill:none; stroke-width:0.100mm" >
<path d="M 494.824, 153.814 
	L 494.823, 153.815 
	L 494.823, 57.366 
	L 526.287, 57.366 
	L 526.287, 153.815 
	L 494.823, 153.815 
" />
</g><g style="stroke:rgb(255,0,0); fill:none; stroke-width:0.100mm" >
<path d="M 494.824, 57.365 
	L 494.823, 57.366 
	L 494.823, 0.035 
	L 526.287, 0.035 
	L 526.287, 57.366 
	L 494.823, 57.366 
" />
</g><g style="stroke:rgb(0,255,0); fill:none; stroke-width:0.100mm" >
<path d="M 526.288, 57.365 
	L 526.287, 57.366 
	L 526.287, 0.035 
	L 708.697, 0.035 
	L 708.697, 57.366 
	L 526.287, 57.366 
" />
</g><g style="stroke:rgb(0,0,255); fill:none; stroke-width:0.100mm" >
<path d="M 526.288, 153.814 
	L 526.287, 153.815 
	L 526.287, 57.366 
	L 708.697, 57.366 
	L 708.697, 153.815 
	L 526.287, 153.815 
" />
</g><g style="stroke:rgb(0,255,255); fill:none; stroke-width:0.100mm" >
<path d="M 494.788, 708.661 
	L 494.787, 708.662 
	L 494.787, 624.898 
	L 617.032, 624.898 
	L 617.032, 708.662 
	L 494.787, 708.662 
" />
</g><g style="stroke:rgb(255,0,255); fill:none; stroke-width:0.100mm" >
<path d="M 494.788, 624.897 
	L 494.787, 624.898 
	L 494.787, 153.780 
	L 617.032, 153.780 
	L 617.032, 624.898 
	L 494.787, 624.898 
" />
</g><g style="stroke:rgb(255,255,0); fill:none; stroke-width:0.100mm" >
<path d="M 617.032, 624.897 
	L 617.032, 624.898 
	L 617.032, 153.780 
	L 708.662, 153.780 
	L 708.662, 624.898 
	L 617.032, 624.898 
" />
</g>
</svg>
