<?xml version="1.0" encoding="UTF-8" standalone="no" ?>
<svg width="100%" height="100%" viewBox="0 0 708.697 708.697" xmlns="http://www.w3.org/2000/svg"><g>
</g><g style="stroke:rgb(0,0,0); fill:none; stroke-width:1.000mm" >
</g><g style="stroke:rgb(0,255,0); fill:none; stroke-width:0.100mm" >
<path d="M 0.036, 708.696 
	L 0.035, 708.697 
	L 0.035, 0.035 
	L 708.697, 0.035 
	L 708.697, 708.697 
	L 0.035, 708.697 
" />
</g><g style="stroke:rgb(0,0,0); fill:none; stroke-width:0.100mm" >
<path d="M 0.001, 708.732 
	L 0.000, 708.732 
	L 0.000, 545.669 
	L 225.709, 545.669 
	L 225.709, 708.732 
	L 0.000, 708.732 
" />
<path d="M 0.036, 708.696 
	L 0.035, 708.697 
	L 0.035, 545.634 
" />
<path d="M 4.642, 708.696 
	L 4.642, 708.697 
	L 4.642, 545.634 
" />
<path d="M 9.249, 708.696 
	L 9.248, 708.697 
	L 9.248, 545.634 
" />
<path d="M 13.855, 708.696 
	L 13.854, 708.697 
	L 13.854, 545.634 
" />
<path d="M 18.461, 708.696 
	L 18.461, 708.697 
	L 18.461, 545.634 
" />
<path d="M 23.068, 708.696 
	L 23.067, 708.697 
	L 23.067, 545.634 
" />
<path d="M 27.674, 708.696 
	L 27.673, 708.697 
	L 27.673, 545.634 
" />
<path d="M 32.280, 708.696 
	L 32.280, 708.697 
	L 32.280, 545.634 
" />
<path d="M 36.887, 708.696 
	L 36.886, 708.697 
	L 36.886, 545.634 
" />
<path d="M 41.493, 708.696 
	L 41.492, 708.697 
	L 41.492, 545.634 
" />
<path d="M 46.099, 708.696 
	L 46.098, 708.697 
	L 46.098, 545.634 
" />
<path d="M 50.705, 708.696 
	L 50.705, 708.697 
	L 50.705, 545.634 
" />
<path d="M 55.312, 708.696 
	L 55.311, 708.697 
	L 55.311, 545.634 
" />
<path d="M 59.918, 708.696 
	L 59.917, 708.697 
	L 59.917, 545.634 
" />
<path d="M 64.524, 708.696 
	L 64.524, 708.697 
	L 64.524, 545.634 
" />
<path d="M 69.131, 708.696 
	L 69.130, 708.697 
	L 69.130, 545.634 
" />
<path d="M 73.737, 708.696 
	L 73.736, 708.697 
	L 73.736, 545.634 
" />
<path d="M 78.343, 708.696 
	L 78.343, 708.697 
	L 78.343, 545.634 
" />
<path d="M 82.950, 708.696 
	L 82.949, 708.697 
	L 82.949, 545.634 
" />
<path d="M 87.556, 708.696 
	L 87.555, 708.697 
	L 87.555, 545.634 
" />
<path d="M 92.162, 708.696 
	L 92.161, 708.697 
	L 92.161, 545.634 
" />
<path d="M 96.768, 708.696 
	L 96.768, 708.697 
	L 96.768, 545.634 
" />
<path d="M 101.375, 708.696 
	L 101.374, 708.697 
	L 101.374, 545.634 
" />
<path d="M 105.981, 708.696 
	L 105.980, 708.697 
	L 105.980, 545.634 
" />
<path d="M 110.587, 708.696 
	L 110.587, 708.697 
	L 110.587, 545.634 
" />
<path d="M 115.194, 708.696 
	L 115.193, 708.697 
	L 115.193, 545.634 
" />
<path d="M 119.800, 708.696 
	L 119.799, 708.697 
	L 119.799, 545.634 
" />
<path d="M 124.406, 708.696 
	L 124.406, 708.697 
	L 124.406, 545.634 
" />
<path d="M 129.013, 708.696 
	L 129.012, 708.697 
	L 129.012, 545.634 
" />
<path d="M 133.619, 708.696 
	L 133.618, 708.697 
	L 133.618, 545.634 
" />
<path d="M 138.225, 708.696 
	L 138.224, 708.697 
	L 138.224, 545.634 
" />
<path d="M 142.831, 708.696 
	L 142.831, 708.697 
	L 142.831, 545.634 
" />
<path d="M 147.438, 708.696 
	L 147.437, 708.697 
	L 147.437, 545.634 
" />
<path d="M 152.044, 708.696 
	L 152.043, 708.697 
	L 152.043, 545.634 
" />
<path d="M 156.650, 708.696 
	L 156.650, 708.697 
	L 156.650, 545.634 
" />
<path d="M 161.257, 708.696 
	L 161.256, 708.697 
	L 161.256, 545.634 
" />
<path d="M 165.863, 708.696 
	L 165.862, 708.697 
	L 165.862, 545.634 
" />
<path d="M 170.469, 708.696 
	L 170.469, 708.697 
	L 170.469, 545.634 
" />
<path d="M 175.076, 708.696 
	L 175.075, 708.697 
	L 175.075, 545.634 
" />
<path d="M 179.682, 708.696 
	L 179.681, 708.697 
	L 179.681, 545.634 
" />
<path d="M 184.288, 708.696 
	L 184.287, 708.697 
	L 184.287, 545.634 
" />
<path d="M 188.894, 708.696 
	L 188.894, 708.697 
	L 188.894, 545.634 
" />
<path d="M 193.501, 708.696 
	L 193.500, 708.697 
	L 193.500, 545.634 
" />
<path d="M 198.107, 708.696 
	L 198.106, 708.697 
	L 198.106, 545.634 
" />
<path d="M 202.713, 708.696 
	L 202.713, 708.697 
	L 202.713, 545.634 
" />
<path d="M 207.320, 708.696 
	L 207.319, 708.697 
	L 207.319, 545.634 
" />
<path d="M 211.926, 708.696 
	L 211.925, 708.697 
	L 211.925, 545.634 
" />
<path d="M 216.532, 708.696 
	L 216.532, 708.697 
	L 216.532, 545.634 
" />
<path d="M 221.139, 708.696 
	L 221.138, 708.697 
	L 221.138, 545.634 
" />
<path d="M 0.001, 545.669 
	L 0.000, 545.669 
	L 0.000, 408.969 
	L 225.709, 408.969 
	L 225.709, 545.669 
	L 0.000, 545.669 
" />
<path d="M 0.036, 545.633 
	L 0.035, 545.634 
	L 0.035, 408.933 
" />
<path d="M 4.642, 545.633 
	L 4.642, 545.634 
	L 4.642, 408.933 
" />
<path d="M 9.249, 545.633 
	L 9.248, 545.634 
	L 9.248, 408.933 
" />
<path d="M 13.855, 545.633 
	L 13.854, 545.634 
	L 13.854, 408.933 
" />
<path d="M 18.461, 545.633 
	L 18.461, 545.634 
	L 18.461, 408.933 
" />
<path d="M 23.068, 545.633 
	L 23.067, 545.634 
	L 23.067, 408.933 
" />
<path d="M 27.674, 545.633 
	L 27.673, 545.634 
	L 27.673, 408.933 
" />
<path d="M 32.280, 545.633 
	L 32.280, 545.634 
	L 32.280, 408.933 
" />
<path d="M 36.887, 545.633 
	L 36.886, 545.634 
	L 36.886, 408.933 
" />
<path d="M 41.493, 545.633 
	L 41.492, 545.634 
	L 41.492, 408.933 
" />
<path d="M 46.099, 545.633 
	L 46.098, 545.634 
	L 46.098, 408.933 
" />
<path d="M 50.705, 545.633 
	L 50.705, 545.634 
	L 50.705, 408.933 
" />
<path d="M 55.312, 545.633 
	L 55.311, 545.634 
	L 55.311, 408.933 
" />
<path d="M 59.918, 545.633 
	L 59.917, 545.634 
	L 59.917, 408.933 
" />
<path d="M 64.524, 545.633 
	L 64.524, 545.634 
	L 64.524, 408.933 
" />
<path d="M 69.131, 545.633 
	L 69.130, 545.634 
	L 69.130, 408.933 
" />
<path d="M 73.737, 545.633 
	L 73.736, 545.634 
	L 73.736, 408.933 
" />
<path d="M 78.343, 545.633 
	L 78.343, 545.634 
	L 78.343, 408.933 
" />
<path d="M 82.950, 545.633 
	L 82.949, 545.634 
	L 82.949, 408.933 
" />
<path d="M 87.556, 545.633 
	L 87.555, 545.634 
	L 87.555, 408.933 
" />
<path d="M 92.162, 545.633 
	L 92.161, 545.634 
	L 92.161, 408.933 
" />
<path d="M 96.768, 545.633 
	L 96.768, 545.634 
	L 96.768, 408.933 
" />
<path d="M 101.375, 545.633 
	L 101.374, 545.634 
	L 101.374, 408.933 
" />
<path d="M 105.981, 545.633 
	L 105.980, 545.634 
	L 105.980, 408.933 
" />
<path d="M 110.587, 545.633 
	L 110.587, 545.634 
	L 110.587, 408.933 
" />
<path d="M 115.194, 545.633 
	L 115.193, 545.634 
	L 115.193, 408.933 
" />
<path d="M 119.800, 545.633 
	L 119.799, 545.634 
	L 119.799, 408.933 
" />
<path d="M 124.406, 545.633 
	L 124.406, 545.634 
	L 124.406, 408.933 
" />
<path d="M 129.013, 545.633 
	L 129.012, 545.634 
	L 129.012, 408.933 
" />
<path d="M 133.619, 545.633 
	L 133.618, 545.634 
	L 133.618, 408.933 
" />
<path d="M 138.225, 545.633 
	L 138.224, 545.634 
	L 138.224, 408.933 
" />
<path d="M 142.831, 545.633 
	L 142.831, 545.634 
	L 142.831, 408.933 
" />
<path d="M 147.438, 545.633 
	L 147.437, 545.634 
	L 147.437, 408.933 
" />
<path d="M 152.044, 545.633 
	L 152.043, 545.634 
	L 152.043, 408.933 
" />
<path d="M 156.650, 545.633 
	L 156.650, 545.634 
	L 156.650, 408.933 
" />
<path d="M 161.257, 545.633 
	L 161.256, 545.634 
	L 161.256, 408.933 
" />
<path d="M 165.863, 545.633 
	L 165.862, 545.634 
	L 165.862, 408.933 
" />
<path d="M 170.469, 545.633 
	L 170.469, 545.634 
	L 170.469, 408.933 
" />
<path d="M 175.076, 545.633 
	L 175.075, 545.634 
	L 175.075, 408.933 
" />
<path d="M 179.682, 545.633 
	L 179.681, 545.634 
	L 179.681, 408.933 
" />
<path d="M 184.288, 545.633 
	L 184.287, 545.634 
	L 184.287, 408.933 
" />
<path d="M 188.894, 545.633 
	L 188.894, 545.634 
	L 188.894, 408.933 
" />
<path d="M 193.501, 545.633 
	L 193.500, 545.634 
	L 193.500, 408.933 
" />
<path d="M 198.107, 545.633 
	L 198.106, 545.634 
	L 198.106, 408.933 
" />
<path d="M 202.713, 545.633 
	L 202.713, 545.634 
	L 202.713, 408.933 
" />
<path d="M 207.320, 545.633 
	L 207.319, 545.634 
	L 207.319, 408.933 
" />
<path d="M 211.926, 545.633 
	L 211.925, 545.634 
	L 211.925, 408.933 
" />
<path d="M 216.532, 545.633 
	L 216.532, 545.634 
	L 216.532, 408.933 
" />
<path d="M 221.139, 545.633 
	L 221.138, 545.634 
	L 221.138, 408.933 
" />
<path d="M 225.709, 545.669 
	L 225.709, 545.669 
	L 225.709, 408.969 
	L 341.717, 408.969 
	L 341.717, 545.669 
	L 225.709, 545.669 
" />
<path d="M 225.745, 545.633 
	L 225.744, 545.634 
	L 225.744, 408.933 
" />
<path d="M 230.280, 545.633 
	L 230.280, 545.634 
	L 230.280, 408.933 
" />
<path d="M 234.816, 545.633 
	L 234.815, 545.634 
	L 234.815, 408.933 
" />
<path d="M 239.351, 545.633 
	L 239.350, 545.634 
	L 239.350, 408.933 
" />
<path d="M 243.887, 545.633 
	L 243.886, 545.634 
	L 243.886, 408.933 
" />
<path d="M 248.422, 545.633 
	L 248.421, 545.634 
	L 248.421, 408.933 
" />
<path d="M 252.957, 545.633 
	L 252.957, 545.634 
	L 252.957, 408.933 
" />
<path d="M 257.493, 545.633 
	L 257.492, 545.634 
	L 257.492, 408.933 
" />
<path d="M 262.028, 545.633 
	L 262.028, 545.634 
	L 262.028, 408.933 
" />
<path d="M 266.564, 545.633 
	L 266.563, 545.634 
	L 266.563, 408.933 
" />
<path d="M 271.099, 545.633 
	L 271.098, 545.634 
	L 271.098, 408.933 
" />
<path d="M 275.635, 545.633 
	L 275.634, 545.634 
	L 275.634, 408.933 
" />
<path d="M 280.170, 545.633 
	L 280.169, 545.634 
	L 280.169, 408.933 
" />
<path d="M 284.705, 545.633 
	L 284.705, 545.634 
	L 284.705, 408.933 
" />
<path d="M 289.241, 545.633 
	L 289.240, 545.634 
	L 289.240, 408.933 
" />
<path d="M 293.776, 545.633 
	L 293.776, 545.634 
	L 293.776, 408.933 
" />
<path d="M 298.312, 545.633 
	L 298.311, 545.634 
	L 298.311, 408.933 
" />
<path d="M 302.847, 545.633 
	L 302.847, 545.634 
	L 302.847, 408.933 
" />
<path d="M 307.383, 545.633 
	L 307.382, 545.634 
	L 307.382, 408.933 
" />
<path d="M 311.918, 545.633 
	L 311.917, 545.634 
	L 311.917, 408.933 
" />
<path d="M 316.453, 545.633 
	L 316.453, 545.634 
	L 316.453, 408.933 
" />
<path d="M 320.989, 545.633 
	L 320.988, 545.634 
	L 320.988, 408.933 
" />
<path d="M 325.524, 545.633 
	L 325.524, 545.634 
	L 325.524, 408.933 
" />
<path d="M 330.060, 545.633 
	L 330.059, 545.634 
	L 330.059, 408.933 
" />
<path d="M 334.595, 545.633 
	L 334.595, 545.634 
	L 334.595, 408.933 
" />
<path d="M 225.709, 708.732 
	L 225.709, 708.732 
	L 225.709, 545.669 
	L 341.717, 545.669 
	L 341.717, 708.732 
	L 225.709, 708.732 
" />
<path d="M 225.745, 708.696 
	L 225.744, 708.697 
	L 225.744, 545.634 
" />
<path d="M 230.280, 708.696 
	L 230.280, 708.697 
	L 230.280, 545.634 
" />
<path d="M 234.816, 708.696 
	L 234.815, 708.697 
	L 234.815, 545.634 
" />
<path d="M 239.351, 708.696 
	L 239.350, 708.697 
	L 239.350, 545.634 
" />
<path d="M 243.887, 708.696 
	L 243.886, 708.697 
	L 243.886, 545.634 
" />
<path d="M 248.422, 708.696 
	L 248.421, 708.697 
	L 248.421, 545.634 
" />
<path d="M 252.957, 708.696 
	L 252.957, 708.697 
	L 252.957, 545.634 
" />
<path d="M 257.493, 708.696 
	L 257.492, 708.697 
	L 257.492, 545.634 
" />
<path d="M 262.028, 708.696 
	L 262.028, 708.697 
	L 262.028, 545.634 
" />
<path d="M 266.564, 708.696 
	L 266.563, 708.697 
	L 266.563, 545.634 
" />
<path d="M 271.099, 708.696 
	L 271.098, 708.697 
	L 271.098, 545.634 
" />
<path d="M 275.635, 708.696 
	L 275.634, 708.697 
	L 275.634, 545.634 
" />
<path d="M 280.170, 708.696 
	L 280.169, 708.697 
	L 280.169, 545.634 
" />
<path d="M 284.705, 708.696 
	L 284.705, 708.697 
	L 284.705, 545.634 
" />
<path d="M 289.241, 708.696 
	L 289.240, 708.697 
	L 289.240, 545.634 
" />
<path d="M 293.776, 708.696 
	L 293.776, 708.697 
	L 293.776, 545.634 
" />
<path d="M 298.312, 708.696 
	L 298.311, 708.697 
	L 298.311, 545.634 
" />
<path d="M 302.847, 708.696 
	L 302.847, 708.697 
	L 302.847, 545.634 
" />
<path d="M 307.383, 708.696 
	L 307.382, 708.697 
	L 307.382, 545.634 
" />
<path d="M 311.918, 708.696 
	L 311.917, 708.697 
	L 311.917, 545.634 
" />
<path d="M 316.453, 708.696 
	L 316.453, 708.697 
	L 316.453, 545.634 
" />
<path d="M 320.989, 708.696 
	L 320.988, 708.697 
	L 320.988, 545.634 
" />
<path d="M 325.524, 708.696 
	L 325.524, 708.697 
	L 325.524, 545.634 
" />
<path d="M 330.060, 708.696 
	L 330.059, 708.697 
	L 330.059, 545.634 
" />
<path d="M 334.595, 708.696 
	L 334.595, 708.697 
	L 334.595, 545.634 
" />
<path d="M 0.036, 408.932 
	L 0.035, 408.933 
	L 0.035, 466.051 
	L 241.264, 466.051 
	L 241.264, 408.933 
	L 0.035, 408.933 
" />
<path d="M 0.036, 408.932 
	L 0.035, 408.933 
	L 0.035, 466.051 
" />
<path d="M 4.572, 408.932 
	L 4.571, 408.933 
	L 4.571, 466.051 
" />
<path d="M 9.107, 408.932 
	L 9.106, 408.933 
	L 9.106, 466.051 
" />
<path d="M 13.642, 408.932 
	L 13.642, 408.933 
	L 13.642, 466.051 
" />
<path d="M 18.178, 408.932 
	L 18.177, 408.933 
	L 18.177, 466.051 
" />
<path d="M 22.713, 408.932 
	L 22.713, 408.933 
	L 22.713, 466.051 
" />
<path d="M 27.249, 408.932 
	L 27.248, 408.933 
	L 27.248, 466.051 
" />
<path d="M 31.784, 408.932 
	L 31.783, 408.933 
	L 31.783, 466.051 
" />
<path d="M 36.320, 408.932 
	L 36.319, 408.933 
	L 36.319, 466.051 
" />
<path d="M 40.855, 408.932 
	L 40.854, 408.933 
	L 40.854, 466.051 
" />
<path d="M 45.390, 408.932 
	L 45.390, 408.933 
	L 45.390, 466.051 
" />
<path d="M 49.926, 408.932 
	L 49.925, 408.933 
	L 49.925, 466.051 
" />
<path d="M 54.461, 408.932 
	L 54.461, 408.933 
	L 54.461, 466.051 
" />
<path d="M 58.997, 408.932 
	L 58.996, 408.933 
	L 58.996, 466.051 
" />
<path d="M 63.532, 408.932 
	L 63.532, 408.933 
	L 63.532, 466.051 
" />
<path d="M 68.068, 408.932 
	L 68.067, 408.933 
	L 68.067, 466.051 
" />
<path d="M 72.603, 408.932 
	L 72.602, 408.933 
	L 72.602, 466.051 
" />
<path d="M 77.139, 408.932 
	L 77.138, 408.933 
	L 77.138, 466.051 
" />
<path d="M 81.674, 408.932 
	L 81.673, 408.933 
	L 81.673, 466.051 
" />
<path d="M 86.209, 408.932 
	L 86.209, 408.933 
	L 86.209, 466.051 
" />
<path d="M 90.745, 408.932 
	L 90.744, 408.933 
	L 90.744, 466.051 
" />
<path d="M 95.280, 408.932 
	L 95.280, 408.933 
	L 95.280, 466.051 
" />
<path d="M 99.816, 408.932 
	L 99.815, 408.933 
	L 99.815, 466.051 
" />
<path d="M 104.351, 408.932 
	L 104.350, 408.933 
	L 104.350, 466.051 
" />
<path d="M 108.887, 408.932 
	L 108.886, 408.933 
	L 108.886, 466.051 
" />
<path d="M 113.422, 408.932 
	L 113.421, 408.933 
	L 113.421, 466.051 
" />
<path d="M 117.957, 408.932 
	L 117.957, 408.933 
	L 117.957, 466.051 
" />
<path d="M 122.493, 408.932 
	L 122.492, 408.933 
	L 122.492, 466.051 
" />
<path d="M 127.028, 408.932 
	L 127.028, 408.933 
	L 127.028, 466.051 
" />
<path d="M 131.564, 408.932 
	L 131.563, 408.933 
	L 131.563, 466.051 
" />
<path d="M 136.099, 408.932 
	L 136.098, 408.933 
	L 136.098, 466.051 
" />
<path d="M 140.635, 408.932 
	L 140.634, 408.933 
	L 140.634, 466.051 
" />
<path d="M 145.170, 408.932 
	L 145.169, 408.933 
	L 145.169, 466.051 
" />
<path d="M 149.705, 408.932 
	L 149.705, 408.933 
	L 149.705, 466.051 
" />
<path d="M 154.241, 408.932 
	L 154.240, 408.933 
	L 154.240, 466.051 
" />
<path d="M 158.776, 408.932 
	L 158.776, 408.933 
	L 158.776, 466.051 
" />
<path d="M 163.312, 408.932 
	L 163.311, 408.933 
	L 163.311, 466.051 
" />
<path d="M 167.847, 408.932 
	L 167.846, 408.933 
	L 167.846, 466.051 
" />
<path d="M 172.383, 408.932 
	L 172.382, 408.933 
	L 172.382, 466.051 
" />
<path d="M 176.918, 408.932 
	L 176.917, 408.933 
	L 176.917, 466.051 
" />
<path d="M 181.453, 408.932 
	L 181.453, 408.933 
	L 181.453, 466.051 
" />
<path d="M 185.989, 408.932 
	L 185.988, 408.933 
	L 185.988, 466.051 
" />
<path d="M 190.524, 408.932 
	L 190.524, 408.933 
	L 190.524, 466.051 
" />
<path d="M 195.060, 408.932 
	L 195.059, 408.933 
	L 195.059, 466.051 
" />
<path d="M 199.595, 408.932 
	L 199.595, 408.933 
	L 199.595, 466.051 
" />
<path d="M 204.131, 408.932 
	L 204.130, 408.933 
	L 204.130, 466.051 
" />
<path d="M 208.666, 408.932 
	L 208.665, 408.933 
	L 208.665, 466.051 
" />
<path d="M 213.202, 408.932 
	L 213.201, 408.933 
	L 213.201, 466.051 
" />
<path d="M 217.737, 408.932 
	L 217.736, 408.933 
	L 217.736, 466.051 
" />
<path d="M 222.272, 408.932 
	L 222.272, 408.933 
	L 222.272, 466.051 
" />
<path d="M 226.808, 408.932 
	L 226.807, 408.933 
	L 226.807, 466.051 
" />
<path d="M 231.343, 408.932 
	L 231.343, 408.933 
	L 231.343, 466.051 
" />
<path d="M 235.879, 408.932 
	L 235.878, 408.933 
	L 235.878, 466.051 
" />
<path d="M 0.036, 466.051 
	L 0.035, 466.051 
	L 0.035, 0.035 
	L 241.264, 0.035 
	L 241.264, 466.051 
	L 0.035, 466.051 
" />
<path d="M 0.036, 466.051 
	L 0.035, 466.051 
	L 0.035, 0.035 
" />
<path d="M 4.572, 466.051 
	L 4.571, 466.051 
	L 4.571, 0.035 
" />
<path d="M 9.107, 466.051 
	L 9.106, 466.051 
	L 9.106, 0.035 
" />
<path d="M 13.642, 466.051 
	L 13.642, 466.051 
	L 13.642, 0.035 
" />
<path d="M 18.178, 466.051 
	L 18.177, 466.051 
	L 18.177, 0.035 
" />
<path d="M 22.713, 466.051 
	L 22.713, 466.051 
	L 22.713, 0.035 
" />
<path d="M 27.249, 466.051 
	L 27.248, 466.051 
	L 27.248, 0.035 
" />
<path d="M 31.784, 466.051 
	L 31.783, 466.051 
	L 31.783, 0.035 
" />
<path d="M 36.320, 466.051 
	L 36.319, 466.051 
	L 36.319, 0.035 
" />
<path d="M 40.855, 466.051 
	L 40.854, 466.051 
	L 40.854, 0.035 
" />
<path d="M 45.390, 466.051 
	L 45.390, 466.051 
	L 45.390, 0.035 
" />
<path d="M 49.926, 466.051 
	L 49.925, 466.051 
	L 49.925, 0.035 
" />
<path d="M 54.461, 466.051 
	L 54.461, 466.051 
	L 54.461, 0.035 
" />
<path d="M 58.997, 466.051 
	L 58.996, 466.051 
	L 58.996, 0.035 
" />
<path d="M 63.532, 466.051 
	L 63.532, 466.051 
	L 63.532, 0.035 
" />
<path d="M 68.068, 466.051 
	L 68.067, 466.051 
	L 68.067, 0.035 
" />
<path d="M 72.603, 466.051 
	L 72.602, 466.051 
	L 72.602, 0.035 
" />
<path d="M 77.139, 466.051 
	L 77.138, 466.051 
	L 77.138, 0.035 
" />
<path d="M 81.674, 466.051 
	L 81.673, 466.051 
	L 81.673, 0.035 
" />
<path d="M 86.209, 466.051 
	L 86.209, 466.051 
	L 86.209, 0.035 
" />
<path d="M 90.745, 466.051 
	L 90.744, 466.051 
	L 90.744, 0.035 
" />
<path d="M 95.280, 466.051 
	L 95.280, 466.051 
	L 95.280, 0.035 
" />
<path d="M 99.816, 466.051 
	L 99.815, 466.051 
	L 99.815, 0.035 
" />
<path d="M 104.351, 466.051 
	L 104.350, 466.051 
	L 104.350, 0.035 
" />
<path d="M 108.887, 466.051 
	L 108.886, 466.051 
	L 108.886, 0.035 
" />
<path d="M 113.422, 466.051 
	L 113.421, 466.051 
	L 113.421, 0.035 
" />
<path d="M 117.957, 466.051 
	L 117.957, 466.051 
	L 117.957, 0.035 
" />
<path d="M 122.493, 466.051 
	L 122.492, 466.051 
	L 122.492, 0.035 
" />
<path d="M 127.028, 466.051 
	L 127.028, 466.051 
	L 127.028, 0.035 
" />
<path d="M 131.564, 466.051 
	L 131.563, 466.051 
	L 131.563, 0.035 
" />
<path d="M 136.099, 466.051 
	L 136.098, 466.051 
	L 136.098, 0.035 
" />
<path d="M 140.635, 466.051 
	L 140.634, 466.051 
	L 140.634, 0.035 
" />
<path d="M 145.170, 466.051 
	L 145.169, 466.051 
	L 145.169, 0.035 
" />
<path d="M 149.705, 466.051 
	L 149.705, 466.051 
	L 149.705, 0.035 
" />
<path d="M 154.241, 466.051 
	L 154.240, 466.051 
	L 154.240, 0.035 
" />
<path d="M 158.776, 466.051 
	L 158.776, 466.051 
	L 158.776, 0.035 
" />
<path d="M 163.312, 466.051 
	L 163.311, 466.051 
	L 163.311, 0.035 
" />
<path d="M 167.847, 466.051 
	L 167.846, 466.051 
	L 167.846, 0.035 
" />
<path d="M 172.383, 466.051 
	L 172.382, 466.051 
	L 172.382, 0.035 
" />
<path d="M 176.918, 466.051 
	L 176.917, 466.051 
	L 176.917, 0.035 
" />
<path d="M 181.453, 466.051 
	L 181.453, 466.051 
	L 181.453, 0.035 
" />
<path d="M 185.989, 466.051 
	L 185.988, 466.051 
	L 185.988, 0.035 
" />
<path d="M 190.524, 466.051 
	L 190.524, 466.051 
	L 190.524, 0.035 
" />
<path d="M 195.060, 466.051 
	L 195.059, 466.051 
	L 195.059, 0.035 
" />
<path d="M 199.595, 466.051 
	L 199.595, 466.051 
	L 199.595, 0.035 
" />
<path d="M 204.131, 466.051 
	L 204.130, 466.051 
	L 204.130, 0.035 
" />
<path d="M 208.666, 466.051 
	L 208.665, 466.051 
	L 208.665, 0.035 
" />
<path d="M 213.202, 466.051 
	L 213.201, 466.051 
	L 213.201, 0.035 
" />
<path d="M 217.737, 466.051 
	L 217.736, 466.051 
	L 217.736, 0.035 
" />
<path d="M 222.272, 466.051 
	L 222.272, 466.051 
	L 222.272, 0.035 
" />
<path d="M 226.808, 466.051 
	L 226.807, 466.051 
	L 226.807, 0.035 
" />
<path d="M 231.343, 466.051 
	L 231.343, 466.051 
	L 231.343, 0.035 
" />
<path d="M 235.879, 466.051 
	L 235.878, 466.051 
	L 235.878, 0.035 
" />
<path d="M 241.265, 466.051 
	L 241.264, 466.051 
	L 241.264, 0.035 
	L 341.752, 0.035 
	L 341.752, 466.051 
	L 241.264, 466.051 
" />
<path d="M 241.265, 466.051 
	L 241.264, 466.051 
	L 241.264, 0.035 
" />
<path d="M 245.800, 466.051 
	L 245.799, 466.051 
	L 245.799, 0.035 
" />
<path d="M 250.335, 466.051 
	L 250.335, 466.051 
	L 250.335, 0.035 
" />
<path d="M 254.871, 466.051 
	L 254.870, 466.051 
	L 254.870, 0.035 
" />
<path d="M 259.406, 466.051 
	L 259.406, 466.051 
	L 259.406, 0.035 
" />
<path d="M 263.942, 466.051 
	L 263.941, 466.051 
	L 263.941, 0.035 
" />
<path d="M 268.477, 466.051 
	L 268.476, 466.051 
	L 268.476, 0.035 
" />
<path d="M 273.013, 466.051 
	L 273.012, 466.051 
	L 273.012, 0.035 
" />
<path d="M 277.548, 466.051 
	L 277.547, 466.051 
	L 277.547, 0.035 
" />
<path d="M 282.083, 466.051 
	L 282.083, 466.051 
	L 282.083, 0.035 
" />
<path d="M 286.619, 466.051 
	L 286.618, 466.051 
	L 286.618, 0.035 
" />
<path d="M 291.154, 466.051 
	L 291.154, 466.051 
	L 291.154, 0.035 
" />
<path d="M 295.690, 466.051 
	L 295.689, 466.051 
	L 295.689, 0.035 
" />
<path d="M 300.225, 466.051 
	L 300.224, 466.051 
	L 300.224, 0.035 
" />
<path d="M 304.761, 466.051 
	L 304.760, 466.051 
	L 304.760, 0.035 
" />
<path d="M 309.296, 466.051 
	L 309.295, 466.051 
	L 309.295, 0.035 
" />
<path d="M 313.831, 466.051 
	L 313.831, 466.051 
	L 313.831, 0.035 
" />
<path d="M 318.367, 466.051 
	L 318.366, 466.051 
	L 318.366, 0.035 
" />
<path d="M 322.902, 466.051 
	L 322.902, 466.051 
	L 322.902, 0.035 
" />
<path d="M 327.438, 466.051 
	L 327.437, 466.051 
	L 327.437, 0.035 
" />
<path d="M 331.973, 466.051 
	L 331.972, 466.051 
	L 331.972, 0.035 
" />
<path d="M 336.509, 466.051 
	L 336.508, 466.051 
	L 336.508, 0.035 
" />
<path d="M 241.265, 408.932 
	L 241.264, 408.933 
	L 241.264, 466.051 
	L 341.752, 466.051 
	L 341.752, 408.933 
	L 241.264, 408.933 
" />
<path d="M 241.265, 408.932 
	L 241.264, 408.933 
	L 241.264, 466.051 
" />
<path d="M 245.800, 408.932 
	L 245.799, 408.933 
	L 245.799, 466.051 
" />
<path d="M 250.335, 408.932 
	L 250.335, 408.933 
	L 250.335, 466.051 
" />
<path d="M 254.871, 408.932 
	L 254.870, 408.933 
	L 254.870, 466.051 
" />
<path d="M 259.406, 408.932 
	L 259.406, 408.933 
	L 259.406, 466.051 
" />
<path d="M 263.942, 408.932 
	L 263.941, 408.933 
	L 263.941, 466.051 
" />
<path d="M 268.477, 408.932 
	L 268.476, 408.933 
	L 268.476, 466.051 
" />
<path d="M 273.013, 408.932 
	L 273.012, 408.933 
	L 273.012, 466.051 
" />
<path d="M 277.548, 408.932 
	L 277.547, 408.933 
	L 277.547, 466.051 
" />
<path d="M 282.083, 408.932 
	L 282.083, 408.933 
	L 282.083, 466.051 
" />
<path d="M 286.619, 408.932 
	L 286.618, 408.933 
	L 286.618, 466.051 
" />
<path d="M 291.154, 408.932 
	L 291.154, 408.933 
	L 291.154, 466.051 
" />
<path d="M 295.690, 408.932 
	L 295.689, 408.933 
	L 295.689, 466.051 
" />
<path d="M 300.225, 408.932 
	L 300.224, 408.933 
	L 300.224, 466.051 
" />
<path d="M 304.761, 408.932 
	L 304.760, 408.933 
	L 304.760, 466.051 
" />
<path d="M 309.296, 408.932 
	L 309.295, 408.933 
	L 309.295, 466.051 
" />
<path d="M 313.831, 408.932 
	L 313.831, 408.933 
	L 313.831, 466.051 
" />
<path d="M 318.367, 408.932 
	L 318.366, 408.933 
	L 318.366, 466.051 
" />
<path d="M 322.902, 408.932 
	L 322.902, 408.933 
	L 322.902, 466.051 
" />
<path d="M 327.438, 408.932 
	L 327.437, 408.933 
	L 327.437, 466.051 
" />
<path d="M 331.973, 408.932 
	L 331.972, 408.933 
	L 331.972, 466.051 
" />
<path d="M 336.509, 408.932 
	L 336.508, 408.933 
	L 336.508, 466.051 
" />
<path d="M 341.753, 408.968 
	L 341.752, 408.969 
	L 341.752, 533.906 
	L 249.768, 533.906 
	L 249.768, 408.969 
	L 341.752, 408.969 
" />
<path d="M 341.753, 533.905 
	L 341.752, 533.906 
	L 341.752, 0.071 
	L 249.768, 0.071 
	L 249.768, 533.906 
	L 341.752, 533.906 
" />
<path d="M 249.768, 533.905 
	L 249.768, 533.906 
	L 249.768, 0.071 
	L 708.697, 0.071 
	L 708.697, 533.906 
	L 249.768, 533.906 
" />
<path d="M 249.768, 533.869 
	L 249.768, 533.870 
	L 249.768, 0.035 
" />
<path d="M 254.304, 533.869 
	L 254.303, 533.870 
	L 254.303, 0.035 
" />
<path d="M 258.839, 533.869 
	L 258.839, 533.870 
	L 258.839, 0.035 
" />
<path d="M 263.375, 533.869 
	L 263.374, 533.870 
	L 263.374, 0.035 
" />
<path d="M 267.910, 533.869 
	L 267.909, 533.870 
	L 267.909, 0.035 
" />
<path d="M 272.446, 533.869 
	L 272.445, 533.870 
	L 272.445, 0.035 
" />
<path d="M 276.981, 533.869 
	L 276.980, 533.870 
	L 276.980, 0.035 
" />
<path d="M 281.517, 533.869 
	L 281.516, 533.870 
	L 281.516, 0.035 
" />
<path d="M 286.052, 533.869 
	L 286.051, 533.870 
	L 286.051, 0.035 
" />
<path d="M 290.587, 533.869 
	L 290.587, 533.870 
	L 290.587, 0.035 
" />
<path d="M 295.123, 533.869 
	L 295.122, 533.870 
	L 295.122, 0.035 
" />
<path d="M 299.658, 533.869 
	L 299.658, 533.870 
	L 299.658, 0.035 
" />
<path d="M 304.194, 533.869 
	L 304.193, 533.870 
	L 304.193, 0.035 
" />
<path d="M 308.729, 533.869 
	L 308.728, 533.870 
	L 308.728, 0.035 
" />
<path d="M 313.265, 533.869 
	L 313.264, 533.870 
	L 313.264, 0.035 
" />
<path d="M 317.800, 533.869 
	L 317.799, 533.870 
	L 317.799, 0.035 
" />
<path d="M 322.335, 533.869 
	L 322.335, 533.870 
	L 322.335, 0.035 
" />
<path d="M 326.871, 533.869 
	L 326.870, 533.870 
	L 326.870, 0.035 
" />
<path d="M 331.406, 533.869 
	L 331.406, 533.870 
	L 331.406, 0.035 
" />
<path d="M 335.942, 533.869 
	L 335.941, 533.870 
	L 335.941, 0.035 
" />
<path d="M 340.477, 533.869 
	L 340.476, 533.870 
	L 340.476, 0.035 
" />
<path d="M 345.013, 533.869 
	L 345.012, 533.870 
	L 345.012, 0.035 
" />
<path d="M 349.548, 533.869 
	L 349.547, 533.870 
	L 349.547, 0.035 
" />
<path d="M 354.083, 533.869 
	L 354.083, 533.870 
	L 354.083, 0.035 
" />
<path d="M 358.619, 533.869 
	L 358.618, 533.870 
	L 358.618, 0.035 
" />
<path d="M 363.154, 533.869 
	L 363.154, 533.870 
	L 363.154, 0.035 
" />
<path d="M 367.690, 533.869 
	L 367.689, 533.870 
	L 367.689, 0.035 
" />
<path d="M 372.225, 533.869 
	L 372.224, 533.870 
	L 372.224, 0.035 
" />
<path d="M 376.761, 533.869 
	L 376.760, 533.870 
	L 376.760, 0.035 
" />
<path d="M 381.296, 533.869 
	L 381.295, 533.870 
	L 381.295, 0.035 
" />
<path d="M 385.831, 533.869 
	L 385.831, 533.870 
	L 385.831, 0.035 
" />
<path d="M 390.367, 533.869 
	L 390.366, 533.870 
	L 390.366, 0.035 
" />
<path d="M 394.902, 533.869 
	L 394.902, 533.870 
	L 394.902, 0.035 
" />
<path d="M 399.438, 533.869 
	L 399.437, 533.870 
	L 399.437, 0.035 
" />
<path d="M 403.973, 533.869 
	L 403.973, 533.870 
	L 403.973, 0.035 
" />
<path d="M 408.509, 533.869 
	L 408.508, 533.870 
	L 408.508, 0.035 
" />
<path d="M 413.044, 533.869 
	L 413.043, 533.870 
	L 413.043, 0.035 
" />
<path d="M 417.579, 533.869 
	L 417.579, 533.870 
	L 417.579, 0.035 
" />
<path d="M 422.115, 533.869 
	L 422.114, 533.870 
	L 422.114, 0.035 
" />
<path d="M 426.650, 533.869 
	L 426.650, 533.870 
	L 426.650, 0.035 
" />
<path d="M 431.186, 533.869 
	L 431.185, 533.870 
	L 431.185, 0.035 
" />
<path d="M 435.721, 533.869 
	L 435.721, 533.870 
	L 435.721, 0.035 
" />
<path d="M 440.257, 533.869 
	L 440.256, 533.870 
	L 440.256, 0.035 
" />
<path d="M 444.792, 533.869 
	L 444.791, 533.870 
	L 444.791, 0.035 
" />
<path d="M 449.328, 533.869 
	L 449.327, 533.870 
	L 449.327, 0.035 
" />
<path d="M 453.863, 533.869 
	L 453.862, 533.870 
	L 453.862, 0.035 
" />
<path d="M 458.398, 533.869 
	L 458.398, 533.870 
	L 458.398, 0.035 
" />
<path d="M 462.934, 533.869 
	L 462.933, 533.870 
	L 462.933, 0.035 
" />
<path d="M 467.469, 533.869 
	L 467.469, 533.870 
	L 467.469, 0.035 
" />
<path d="M 472.005, 533.869 
	L 472.004, 533.870 
	L 472.004, 0.035 
" />
<path d="M 476.540, 533.869 
	L 476.539, 533.870 
	L 476.539, 0.035 
" />
<path d="M 481.076, 533.869 
	L 481.075, 533.870 
	L 481.075, 0.035 
" />
<path d="M 485.611, 533.869 
	L 485.610, 533.870 
	L 485.610, 0.035 
" />
<path d="M 490.146, 533.869 
	L 490.146, 533.870 
	L 490.146, 0.035 
" />
<path d="M 494.682, 533.869 
	L 494.681, 533.870 
	L 494.681, 0.035 
" />
<path d="M 499.217, 533.869 
	L 499.217, 533.870 
	L 499.217, 0.035 
" />
<path d="M 503.753, 533.869 
	L 503.752, 533.870 
	L 503.752, 0.035 
" />
<path d="M 508.288, 533.869 
	L 508.287, 533.870 
	L 508.287, 0.035 
" />
<path d="M 512.824, 533.869 
	L 512.823, 533.870 
	L 512.823, 0.035 
" />
<path d="M 517.359, 533.869 
	L 517.358, 533.870 
	L 517.358, 0.035 
" />
<path d="M 521.894, 533.869 
	L 521.894, 533.870 
	L 521.894, 0.035 
" />
<path d="M 526.430, 533.869 
	L 526.429, 533.870 
	L 526.429, 0.035 
" />
<path d="M 530.965, 533.869 
	L 530.965, 533.870 
	L 530.965, 0.035 
" />
<path d="M 535.501, 533.869 
	L 535.500, 533.870 
	L 535.500, 0.035 
" />
<path d="M 540.036, 533.869 
	L 540.036, 533.870 
	L 540.036, 0.035 
" />
<path d="M 544.572, 533.869 
	L 544.571, 533.870 
	L 544.571, 0.035 
" />
<path d="M 549.107, 533.869 
	L 549.106, 533.870 
	L 549.106, 0.035 
" />
<path d="M 553.643, 533.869 
	L 553.642, 533.870 
	L 553.642, 0.035 
" />
<path d="M 558.178, 533.869 
	L 558.177, 533.870 
	L 558.177, 0.035 
" />
<path d="M 562.713, 533.869 
	L 562.713, 533.870 
	L 562.713, 0.035 
" />
<path d="M 567.249, 533.869 
	L 567.248, 533.870 
	L 567.248, 0.035 
" />
<path d="M 571.784, 533.869 
	L 571.784, 533.870 
	L 571.784, 0.035 
" />
<path d="M 576.320, 533.869 
	L 576.319, 533.870 
	L 576.319, 0.035 
" />
<path d="M 580.855, 533.869 
	L 580.854, 533.870 
	L 580.854, 0.035 
" />
<path d="M 585.391, 533.869 
	L 585.390, 533.870 
	L 585.390, 0.035 
" />
<path d="M 589.926, 533.869 
	L 589.925, 533.870 
	L 589.925, 0.035 
" />
<path d="M 594.461, 533.869 
	L 594.461, 533.870 
	L 594.461, 0.035 
" />
<path d="M 598.997, 533.869 
	L 598.996, 533.870 
	L 598.996, 0.035 
" />
<path d="M 603.532, 533.869 
	L 603.532, 533.870 
	L 603.532, 0.035 
" />
<path d="M 608.068, 533.869 
	L 608.067, 533.870 
	L 608.067, 0.035 
" />
<path d="M 612.603, 533.869 
	L 612.602, 533.870 
	L 612.602, 0.035 
" />
<path d="M 617.139, 533.869 
	L 617.138, 533.870 
	L 617.138, 0.035 
" />
<path d="M 621.674, 533.869 
	L 621.673, 533.870 
	L 621.673, 0.035 
" />
<path d="M 626.209, 533.869 
	L 626.209, 533.870 
	L 626.209, 0.035 
" />
<path d="M 630.745, 533.869 
	L 630.744, 533.870 
	L 630.744, 0.035 
" />
<path d="M 635.280, 533.869 
	L 635.280, 533.870 
	L 635.280, 0.035 
" />
<path d="M 639.816, 533.869 
	L 639.815, 533.870 
	L 639.815, 0.035 
" />
<path d="M 644.351, 533.869 
	L 644.350, 533.870 
	L 644.350, 0.035 
" />
<path d="M 648.887, 533.869 
	L 648.886, 533.870 
	L 648.886, 0.035 
" />
<path d="M 653.422, 533.869 
	L 653.421, 533.870 
	L 653.421, 0.035 
" />
<path d="M 657.957, 533.869 
	L 657.957, 533.870 
	L 657.957, 0.035 
" />
<path d="M 662.493, 533.869 
	L 662.492, 533.870 
	L 662.492, 0.035 
" />
<path d="M 667.028, 533.869 
	L 667.028, 533.870 
	L 667.028, 0.035 
" />
<path d="M 671.564, 533.869 
	L 671.563, 533.870 
	L 671.563, 0.035 
" />
<path d="M 676.099, 533.869 
	L 676.099, 533.870 
	L 676.099, 0.035 
" />
<path d="M 680.635, 533.869 
	L 680.634, 533.870 
	L 680.634, 0.035 
" />
<path d="M 685.170, 533.869 
	L 685.169, 533.870 
	L 685.169, 0.035 
" />
<path d="M 689.706, 533.869 
	L 689.705, 533.870 
	L 689.705, 0.035 
" />
<path d="M 694.241, 533.869 
	L 694.240, 533.870 
	L 694.240, 0.035 
" />
<path d="M 698.776, 533.869 
	L 698.776, 533.870 
	L 698.776, 0.035 
" />
<path d="M 703.312, 533.869 
	L 703.311, 533.870 
	L 703.311, 0.035 
" />
<path d="M 249.768, 408.968 
	L 249.768, 408.969 
	L 249.768, 533.906 
	L 708.697, 533.906 
	L 708.697, 408.969 
	L 249.768, 408.969 
" />
<path d="M 249.768, 408.932 
	L 249.768, 408.933 
	L 249.768, 533.870 
" />
<path d="M 254.304, 408.932 
	L 254.303, 408.933 
	L 254.303, 533.870 
" />
<path d="M 258.839, 408.932 
	L 258.839, 408.933 
	L 258.839, 533.870 
" />
<path d="M 263.375, 408.932 
	L 263.374, 408.933 
	L 263.374, 533.870 
" />
<path d="M 267.910, 408.932 
	L 267.909, 408.933 
	L 267.909, 533.870 
" />
<path d="M 272.446, 408.932 
	L 272.445, 408.933 
	L 272.445, 533.870 
" />
<path d="M 276.981, 408.932 
	L 276.980, 408.933 
	L 276.980, 533.870 
" />
<path d="M 281.517, 408.932 
	L 281.516, 408.933 
	L 281.516, 533.870 
" />
<path d="M 286.052, 408.932 
	L 286.051, 408.933 
	L 286.051, 533.870 
" />
<path d="M 290.587, 408.932 
	L 290.587, 408.933 
	L 290.587, 533.870 
" />
<path d="M 295.123, 408.932 
	L 295.122, 408.933 
	L 295.122, 533.870 
" />
<path d="M 299.658, 408.932 
	L 299.658, 408.933 
	L 299.658, 533.870 
" />
<path d="M 304.194, 408.932 
	L 304.193, 408.933 
	L 304.193, 533.870 
" />
<path d="M 308.729, 408.932 
	L 308.728, 408.933 
	L 308.728, 533.870 
" />
<path d="M 313.265, 408.932 
	L 313.264, 408.933 
	L 313.264, 533.870 
" />
<path d="M 317.800, 408.932 
	L 317.799, 408.933 
	L 317.799, 533.870 
" />
<path d="M 322.335, 408.932 
	L 322.335, 408.933 
	L 322.335, 533.870 
" />
<path d="M 326.871, 408.932 
	L 326.870, 408.933 
	L 326.870, 533.870 
" />
<path d="M 331.406, 408.932 
	L 331.406, 408.933 
	L 331.406, 533.870 
" />
<path d="M 335.942, 408.932 
	L 335.941, 408.933 
	L 335.941, 533.870 
" />
<path d="M 340.477, 408.932 
	L 340.476, 408.933 
	L 340.476, 533.870 
" />
<path d="M 345.013, 408.932 
	L 345.012, 408.933 
	L 345.012, 533.870 
" />
<path d="M 349.548, 408.932 
	L 349.547, 408.933 
	L 349.547, 533.870 
" />
<path d="M 354.083, 408.932 
	L 354.083, 408.933 
	L 354.083, 533.870 
" />
<path d="M 358.619, 408.932 
	L 358.618, 408.933 
	L 358.618, 533.870 
" />
<path d="M 363.154, 408.932 
	L 363.154, 408.933 
	L 363.154, 533.870 
" />
<path d="M 367.690, 408.932 
	L 367.689, 408.933 
	L 367.689, 533.870 
" />
<path d="M 372.225, 408.932 
	L 372.224, 408.933 
	L 372.224, 533.870 
" />
<path d="M 376.761, 408.932 
	L 376.760, 408.933 
	L 376.760, 533.870 
" />
<path d="M 381.296, 408.932 
	L 381.295, 408.933 
	L 381.295, 533.870 
" />
<path d="M 385.831, 408.932 
	L 385.831, 408.933 
	L 385.831, 533.870 
" />
<path d="M 390.367, 408.932 
	L 390.366, 408.933 
	L 390.366, 533.870 
" />
<path d="M 394.902, 408.932 
	L 394.902, 408.933 
	L 394.902, 533.870 
" />
<path d="M 399.438, 408.932 
	L 399.437, 408.933 
	L 399.437, 533.870 
" />
<path d="M 403.973, 408.932 
	L 403.973, 408.933 
	L 403.973, 533.870 
" />
<path d="M 408.509, 408.932 
	L 408.508, 408.933 
	L 408.508, 533.870 
" />
<path d="M 413.044, 408.932 
	L 413.043, 408.933 
	L 413.043, 533.870 
" />
<path d="M 417.579, 408.932 
	L 417.579, 408.933 
	L 417.579, 533.870 
" />
<path d="M 422.115, 408.932 
	L 422.114, 408.933 
	L 422.114, 533.870 
" />
<path d="M 426.650, 408.932 
	L 426.650, 408.933 
	L 426.650, 533.870 
" />
<path d="M 431.186, 408.932 
	L 431.185, 408.933 
	L 431.185, 533.870 
" />
<path d="M 435.721, 408.932 
	L 435.721, 408.933 
	L 435.721, 533.870 
" />
<path d="M 440.257, 408.932 
	L 440.256, 408.933 
	L 440.256, 533.870 
" />
<path d="M 444.792, 408.932 
	L 444.791, 408.933 
	L 444.791, 533.870 
" />
<path d="M 449.328, 408.932 
	L 449.327, 408.933 
	L 449.327, 533.870 
" />
<path d="M 453.863, 408.932 
	L 453.862, 408.933 
	L 453.862, 533.870 
" />
<path d="M 458.398, 408.932 
	L 458.398, 408.933 
	L 458.398, 533.870 
" />
<path d="M 462.934, 408.932 
	L 462.933, 408.933 
	L 462.933, 533.870 
" />
<path d="M 467.469, 408.932 
	L 467.469, 408.933 
	L 467.469, 533.870 
" />
<path d="M 472.005, 408.932 
	L 472.004, 408.933 
	L 472.004, 533.870 
" />
<path d="M 476.540, 408.932 
	L 476.539, 408.933 
	L 476.539, 533.870 
" />
<path d="M 481.076, 408.932 
	L 481.075, 408.933 
	L 481.075, 533.870 
" />
<path d="M 485.611, 408.932 
	L 485.610, 408.933 
	L 485.610, 533.870 
" />
<path d="M 490.146, 408.932 
	L 490.146, 408.933 
	L 490.146, 533.870 
" />
<path d="M 494.682, 408.932 
	L 494.681, 408.933 
	L 494.681, 533.870 
" />
<path d="M 499.217, 408.932 
	L 499.217, 408.933 
	L 499.217, 533.870 
" />
<path d="M 503.753, 408.932 
	L 503.752, 408.933 
	L 503.752, 533.870 
" />
<path d="M 508.288, 408.932 
	L 508.287, 408.933 
	L 508.287, 533.870 
" />
<path d="M 512.824, 408.932 
	L 512.823, 408.933 
	L 512.823, 533.870 
" />
<path d="M 517.359, 408.932 
	L 517.358, 408.933 
	L 517.358, 533.870 
" />
<path d="M 521.894, 408.932 
	L 521.894, 408.933 
	L 521.894, 533.870 
" />
<path d="M 526.430, 408.932 
	L 526.429, 408.933 
	L 526.429, 533.870 
" />
<path d="M 530.965, 408.932 
	L 530.965, 408.933 
	L 530.965, 533.870 
" />
<path d="M 535.501, 408.932 
	L 535.500, 408.933 
	L 535.500, 533.870 
" />
<path d="M 540.036, 408.932 
	L 540.036, 408.933 
	L 540.036, 533.870 
" />
<path d="M 544.572, 408.932 
	L 544.571, 408.933 
	L 544.571, 533.870 
" />
<path d="M 549.107, 408.932 
	L 549.106, 408.933 
	L 549.106, 533.870 
" />
<path d="M 553.643, 408.932 
	L 553.642, 408.933 
	L 553.642, 533.870 
" />
<path d="M 558.178, 408.932 
	L 558.177, 408.933 
	L 558.177, 533.870 
" />
<path d="M 562.713, 408.932 
	L 562.713, 408.933 
	L 562.713, 533.870 
" />
<path d="M 567.249, 408.932 
	L 567.248, 408.933 
	L 567.248, 533.870 
" />
<path d="M 571.784, 408.932 
	L 571.784, 408.933 
	L 571.784, 533.870 
" />
<path d="M 576.320, 408.932 
	L 576.319, 408.933 
	L 576.319, 533.870 
" />
<path d="M 580.855, 408.932 
	L 580.854, 408.933 
	L 580.854, 533.870 
" />
<path d="M 585.391, 408.932 
	L 585.390, 408.933 
	L 585.390, 533.870 
" />
<path d="M 589.926, 408.932 
	L 589.925, 408.933 
	L 589.925, 533.870 
" />
<path d="M 594.461, 408.932 
	L 594.461, 408.933 
	L 594.461, 533.870 
" />
<path d="M 598.997, 408.932 
	L 598.996, 408.933 
	L 598.996, 533.870 
" />
<path d="M 603.532, 408.932 
	L 603.532, 408.933 
	L 603.532, 533.870 
" />
<path d="M 608.068, 408.932 
	L 608.067, 408.933 
	L 608.067, 533.870 
" />
<path d="M 612.603, 408.932 
	L 612.602, 408.933 
	L 612.602, 533.870 
" />
<path d="M 617.139, 408.932 
	L 617.138, 408.933 
	L 617.138, 533.870 
" />
<path d="M 621.674, 408.932 
	L 621.673, 408.933 
	L 621.673, 533.870 
" />
<path d="M 626.209, 408.932 
	L 626.209, 408.933 
	L 626.209, 533.870 
" />
<path d="M 630.745, 408.932 
	L 630.744, 408.933 
	L 630.744, 533.870 
" />
<path d="M 635.280, 408.932 
	L 635.280, 408.933 
	L 635.280, 533.870 
" />
<path d="M 639.816, 408.932 
	L 639.815, 408.933 
	L 639.815, 533.870 
" />
<path d="M 644.351, 408.932 
	L 644.350, 408.933 
	L 644.350, 533.870 
" />
<path d="M 648.887, 408.932 
	L 648.886, 408.933 
	L 648.886, 533.870 
" />
<path d="M 653.422, 408.932 
	L 653.421, 408.933 
	L 653.421, 533.870 
" />
<path d="M 657.957, 408.932 
	L 657.957, 408.933 
	L 657.957, 533.870 
" />
<path d="M 662.493, 408.932 
	L 662.492, 408.933 
	L 662.492, 533.870 
" />
<path d="M 667.028, 408.932 
	L 667.028, 408.933 
	L 667.028, 533.870 
" />
<path d="M 671.564, 408.932 
	L 671.563, 408.933 
	L 671.563, 533.870 
" />
<path d="M 676.099, 408.932 
	L 676.099, 408.933 
	L 676.099, 533.870 
" />
<path d="M 680.635, 408.932 
	L 680.634, 408.933 
	L 680.634, 533.870 
" />
<path d="M 685.170, 408.932 
	L 685.169, 408.933 
	L 685.169, 533.870 
" />
<path d="M 689.706, 408.932 
	L 689.705, 408.933 
	L 689.705, 533.870 
" />
<path d="M 694.241, 408.932 
	L 694.240, 408.933 
	L 694.240, 533.870 
" />
<path d="M 698.776, 408.932 
	L 698.776, 408.933 
	L 698.776, 533.870 
" />
<path d="M 703.312, 408.932 
	L 703.311, 408.933 
	L 703.311, 533.870 
" />
<path d="M 341.717, 708.696 
	L 341.717, 708.697 
	L 341.717, 577.169 
	L 243.284, 577.169 
	L 243.284, 708.697 
	L 341.717, 708.697 
" />
<path d="M 341.717, 577.169 
	L 341.717, 577.169 
	L 341.717, 408.933 
	L 243.284, 408.933 
	L 243.284, 577.169 
	L 341.717, 577.169 
" />
<path d="M 243.284, 577.169 
	L 243.284, 577.169 
	L 243.284, 408.933 
	L 708.662, 408.933 
	L 708.662, 577.169 
	L 243.284, 577.169 
" />
<path d="M 243.320, 577.169 
	L 243.319, 577.169 
	L 243.319, 408.933 
" />
<path d="M 247.855, 577.169 
	L 247.854, 577.169 
	L 247.854, 408.933 
" />
<path d="M 252.391, 577.169 
	L 252.390, 577.169 
	L 252.390, 408.933 
" />
<path d="M 256.926, 577.169 
	L 256.925, 577.169 
	L 256.925, 408.933 
" />
<path d="M 261.461, 577.169 
	L 261.461, 577.169 
	L 261.461, 408.933 
" />
<path d="M 265.997, 577.169 
	L 265.996, 577.169 
	L 265.996, 408.933 
" />
<path d="M 270.532, 577.169 
	L 270.532, 577.169 
	L 270.532, 408.933 
" />
<path d="M 275.068, 577.169 
	L 275.067, 577.169 
	L 275.067, 408.933 
" />
<path d="M 279.603, 577.169 
	L 279.602, 577.169 
	L 279.602, 408.933 
" />
<path d="M 284.139, 577.169 
	L 284.138, 577.169 
	L 284.138, 408.933 
" />
<path d="M 288.674, 577.169 
	L 288.673, 577.169 
	L 288.673, 408.933 
" />
<path d="M 293.209, 577.169 
	L 293.209, 577.169 
	L 293.209, 408.933 
" />
<path d="M 297.745, 577.169 
	L 297.744, 577.169 
	L 297.744, 408.933 
" />
<path d="M 302.280, 577.169 
	L 302.280, 577.169 
	L 302.280, 408.933 
" />
<path d="M 306.816, 577.169 
	L 306.815, 577.169 
	L 306.815, 408.933 
" />
<path d="M 311.351, 577.169 
	L 311.350, 577.169 
	L 311.350, 408.933 
" />
<path d="M 315.887, 577.169 
	L 315.886, 577.169 
	L 315.886, 408.933 
" />
<path d="M 320.422, 577.169 
	L 320.421, 577.169 
	L 320.421, 408.933 
" />
<path d="M 324.957, 577.169 
	L 324.957, 577.169 
	L 324.957, 408.933 
" />
<path d="M 329.493, 577.169 
	L 329.492, 577.169 
	L 329.492, 408.933 
" />
<path d="M 334.028, 577.169 
	L 334.028, 577.169 
	L 334.028, 408.933 
" />
<path d="M 338.564, 577.169 
	L 338.563, 577.169 
	L 338.563, 408.933 
" />
<path d="M 343.099, 577.169 
	L 343.098, 577.169 
	L 343.098, 408.933 
" />
<path d="M 347.635, 577.169 
	L 347.634, 577.169 
	L 347.634, 408.933 
" />
<path d="M 352.170, 577.169 
	L 352.169, 577.169 
	L 352.169, 408.933 
" />
<path d="M 356.705, 577.169 
	L 356.705, 577.169 
	L 356.705, 408.933 
" />
<path d="M 361.241, 577.169 
	L 361.240, 577.169 
	L 361.240, 408.933 
" />
<path d="M 365.776, 577.169 
	L 365.776, 577.169 
	L 365.776, 408.933 
" />
<path d="M 370.312, 577.169 
	L 370.311, 577.169 
	L 370.311, 408.933 
" />
<path d="M 374.847, 577.169 
	L 374.847, 577.169 
	L 374.847, 408.933 
" />
<path d="M 379.383, 577.169 
	L 379.382, 577.169 
	L 379.382, 408.933 
" />
<path d="M 383.918, 577.169 
	L 383.917, 577.169 
	L 383.917, 408.933 
" />
<path d="M 388.454, 577.169 
	L 388.453, 577.169 
	L 388.453, 408.933 
" />
<path d="M 392.989, 577.169 
	L 392.988, 577.169 
	L 392.988, 408.933 
" />
<path d="M 397.524, 577.169 
	L 397.524, 577.169 
	L 397.524, 408.933 
" />
<path d="M 402.060, 577.169 
	L 402.059, 577.169 
	L 402.059, 408.933 
" />
<path d="M 406.595, 577.169 
	L 406.595, 577.169 
	L 406.595, 408.933 
" />
<path d="M 411.131, 577.169 
	L 411.130, 577.169 
	L 411.130, 408.933 
" />
<path d="M 415.666, 577.169 
	L 415.665, 577.169 
	L 415.665, 408.933 
" />
<path d="M 420.202, 577.169 
	L 420.201, 577.169 
	L 420.201, 408.933 
" />
<path d="M 424.737, 577.169 
	L 424.736, 577.169 
	L 424.736, 408.933 
" />
<path d="M 429.272, 577.169 
	L 429.272, 577.169 
	L 429.272, 408.933 
" />
<path d="M 433.808, 577.169 
	L 433.807, 577.169 
	L 433.807, 408.933 
" />
<path d="M 438.343, 577.169 
	L 438.343, 577.169 
	L 438.343, 408.933 
" />
<path d="M 442.879, 577.169 
	L 442.878, 577.169 
	L 442.878, 408.933 
" />
<path d="M 447.414, 577.169 
	L 447.413, 577.169 
	L 447.413, 408.933 
" />
<path d="M 451.950, 577.169 
	L 451.949, 577.169 
	L 451.949, 408.933 
" />
<path d="M 456.485, 577.169 
	L 456.484, 577.169 
	L 456.484, 408.933 
" />
<path d="M 461.020, 577.169 
	L 461.020, 577.169 
	L 461.020, 408.933 
" />
<path d="M 465.556, 577.169 
	L 465.555, 577.169 
	L 465.555, 408.933 
" />
<path d="M 470.091, 577.169 
	L 470.091, 577.169 
	L 470.091, 408.933 
" />
<path d="M 474.627, 577.169 
	L 474.626, 577.169 
	L 474.626, 408.933 
" />
<path d="M 479.162, 577.169 
	L 479.161, 577.169 
	L 479.161, 408.933 
" />
<path d="M 483.698, 577.169 
	L 483.697, 577.169 
	L 483.697, 408.933 
" />
<path d="M 488.233, 577.169 
	L 488.232, 577.169 
	L 488.232, 408.933 
" />
<path d="M 492.768, 577.169 
	L 492.768, 577.169 
	L 492.768, 408.933 
" />
<path d="M 497.304, 577.169 
	L 497.303, 577.169 
	L 497.303, 408.933 
" />
<path d="M 501.839, 577.169 
	L 501.839, 577.169 
	L 501.839, 408.933 
" />
<path d="M 506.375, 577.169 
	L 506.374, 577.169 
	L 506.374, 408.933 
" />
<path d="M 510.910, 577.169 
	L 510.910, 577.169 
	L 510.910, 408.933 
" />
<path d="M 515.446, 577.169 
	L 515.445, 577.169 
	L 515.445, 408.933 
" />
<path d="M 519.981, 577.169 
	L 519.980, 577.169 
	L 519.980, 408.933 
" />
<path d="M 524.517, 577.169 
	L 524.516, 577.169 
	L 524.516, 408.933 
" />
<path d="M 529.052, 577.169 
	L 529.051, 577.169 
	L 529.051, 408.933 
" />
<path d="M 533.587, 577.169 
	L 533.587, 577.169 
	L 533.587, 408.933 
" />
<path d="M 538.123, 577.169 
	L 538.122, 577.169 
	L 538.122, 408.933 
" />
<path d="M 542.658, 577.169 
	L 542.658, 577.169 
	L 542.658, 408.933 
" />
<path d="M 547.194, 577.169 
	L 547.193, 577.169 
	L 547.193, 408.933 
" />
<path d="M 551.729, 577.169 
	L 551.728, 577.169 
	L 551.728, 408.933 
" />
<path d="M 556.265, 577.169 
	L 556.264, 577.169 
	L 556.264, 408.933 
" />
<path d="M 560.800, 577.169 
	L 560.799, 577.169 
	L 560.799, 408.933 
" />
<path d="M 565.335, 577.169 
	L 565.335, 577.169 
	L 565.335, 408.933 
" />
<path d="M 569.871, 577.169 
	L 569.870, 577.169 
	L 569.870, 408.933 
" />
<path d="M 574.406, 577.169 
	L 574.406, 577.169 
	L 574.406, 408.933 
" />
<path d="M 578.942, 577.169 
	L 578.941, 577.169 
	L 578.941, 408.933 
" />
<path d="M 583.477, 577.169 
	L 583.476, 577.169 
	L 583.476, 408.933 
" />
<path d="M 588.013, 577.169 
	L 588.012, 577.169 
	L 588.012, 408.933 
" />
<path d="M 592.548, 577.169 
	L 592.547, 577.169 
	L 592.547, 408.933 
" />
<path d="M 597.083, 577.169 
	L 597.083, 577.169 
	L 597.083, 408.933 
" />
<path d="M 601.619, 577.169 
	L 601.618, 577.169 
	L 601.618, 408.933 
" />
<path d="M 606.154, 577.169 
	L 606.154, 577.169 
	L 606.154, 408.933 
" />
<path d="M 610.690, 577.169 
	L 610.689, 577.169 
	L 610.689, 408.933 
" />
<path d="M 615.225, 577.169 
	L 615.225, 577.169 
	L 615.225, 408.933 
" />
<path d="M 619.761, 577.169 
	L 619.760, 577.169 
	L 619.760, 408.933 
" />
<path d="M 624.296, 577.169 
	L 624.295, 577.169 
	L 624.295, 408.933 
" />
<path d="M 628.831, 577.169 
	L 628.831, 577.169 
	L 628.831, 408.933 
" />
<path d="M 633.367, 577.169 
	L 633.366, 577.169 
	L 633.366, 408.933 
" />
<path d="M 637.902, 577.169 
	L 637.902, 577.169 
	L 637.902, 408.933 
" />
<path d="M 642.438, 577.169 
	L 642.437, 577.169 
	L 642.437, 408.933 
" />
<path d="M 646.973, 577.169 
	L 646.973, 577.169 
	L 646.973, 408.933 
" />
<path d="M 651.509, 577.169 
	L 651.508, 577.169 
	L 651.508, 408.933 
" />
<path d="M 656.044, 577.169 
	L 656.043, 577.169 
	L 656.043, 408.933 
" />
<path d="M 660.580, 577.169 
	L 660.579, 577.169 
	L 660.579, 408.933 
" />
<path d="M 665.115, 577.169 
	L 665.114, 577.169 
	L 665.114, 408.933 
" />
<path d="M 669.650, 577.169 
	L 669.650, 577.169 
	L 669.650, 408.933 
" />
<path d="M 674.186, 577.169 
	L 674.185, 577.169 
	L 674.185, 408.933 
" />
<path d="M 678.721, 577.169 
	L 678.721, 577.169 
	L 678.721, 408.933 
" />
<path d="M 683.257, 577.169 
	L 683.256, 577.169 
	L 683.256, 408.933 
" />
<path d="M 687.792, 577.169 
	L 687.791, 577.169 
	L 687.791, 408.933 
" />
<path d="M 692.328, 577.169 
	L 692.327, 577.169 
	L 692.327, 408.933 
" />
<path d="M 696.863, 577.169 
	L 696.862, 577.169 
	L 696.862, 408.933 
" />
<path d="M 701.398, 577.169 
	L 701.398, 577.169 
	L 701.398, 408.933 
" />
<path d="M 243.284, 708.696 
	L 243.284, 708.697 
	L 243.284, 577.169 
	L 708.662, 577.169 
	L 708.662, 708.697 
	L 243.284, 708.697 
" />
<path d="M 243.320, 708.696 
	L 243.319, 708.697 
	L 243.319, 577.169 
" />
<path d="M 247.855, 708.696 
	L 247.854, 708.697 
	L 247.854, 577.169 
" />
<path d="M 252.391, 708.696 
	L 252.390, 708.697 
	L 252.390, 577.169 
" />
<path d="M 256.926, 708.696 
	L 256.925, 708.697 
	L 256.925, 577.169 
" />
<path d="M 261.461, 708.696 
	L 261.461, 708.697 
	L 261.461, 577.169 
" />
<path d="M 265.997, 708.696 
	L 265.996, 708.697 
	L 265.996, 577.169 
" />
<path d="M 270.532, 708.696 
	L 270.532, 708.697 
	L 270.532, 577.169 
" />
<path d="M 275.068, 708.696 
	L 275.067, 708.697 
	L 275.067, 577.169 
" />
<path d="M 279.603, 708.696 
	L 279.602, 708.697 
	L 279.602, 577.169 
" />
<path d="M 284.139, 708.696 
	L 284.138, 708.697 
	L 284.138, 577.169 
" />
<path d="M 288.674, 708.696 
	L 288.673, 708.697 
	L 288.673, 577.169 
" />
<path d="M 293.209, 708.696 
	L 293.209, 708.697 
	L 293.209, 577.169 
" />
<path d="M 297.745, 708.696 
	L 297.744, 708.697 
	L 297.744, 577.169 
" />
<path d="M 302.280, 708.696 
	L 302.280, 708.697 
	L 302.280, 577.169 
" />
<path d="M 306.816, 708.696 
	L 306.815, 708.697 
	L 306.815, 577.169 
" />
<path d="M 311.351, 708.696 
	L 311.350, 708.697 
	L 311.350, 577.169 
" />
<path d="M 315.887, 708.696 
	L 315.886, 708.697 
	L 315.886, 577.169 
" />
<path d="M 320.422, 708.696 
	L 320.421, 708.697 
	L 320.421, 577.169 
" />
<path d="M 324.957, 708.696 
	L 324.957, 708.697 
	L 324.957, 577.169 
" />
<path d="M 329.493, 708.696 
	L 329.492, 708.697 
	L 329.492, 577.169 
" />
<path d="M 334.028, 708.696 
	L 334.028, 708.697 
	L 334.028, 577.169 
" />
<path d="M 338.564, 708.696 
	L 338.563, 708.697 
	L 338.563, 577.169 
" />
<path d="M 343.099, 708.696 
	L 343.098, 708.697 
	L 343.098, 577.169 
" />
<path d="M 347.635, 708.696 
	L 347.634, 708.697 
	L 347.634, 577.169 
" />
<path d="M 352.170, 708.696 
	L 352.169, 708.697 
	L 352.169, 577.169 
" />
<path d="M 356.705, 708.696 
	L 356.705, 708.697 
	L 356.705, 577.169 
" />
<path d="M 361.241, 708.696 
	L 361.240, 708.697 
	L 361.240, 577.169 
" />
<path d="M 365.776, 708.696 
	L 365.776, 708.697 
	L 365.776, 577.169 
" />
<path d="M 370.312, 708.696 
	L 370.311, 708.697 
	L 370.311, 577.169 
" />
<path d="M 374.847, 708.696 
	L 374.847, 708.697 
	L 374.847, 577.169 
" />
<path d="M 379.383, 708.696 
	L 379.382, 708.697 
	L 379.382, 577.169 
" />
<path d="M 383.918, 708.696 
	L 383.917, 708.697 
	L 383.917, 577.169 
" />
<path d="M 388.454, 708.696 
	L 388.453, 708.697 
	L 388.453, 577.169 
" />
<path d="M 392.989, 708.696 
	L 392.988, 708.697 
	L 392.988, 577.169 
" />
<path d="M 397.524, 708.696 
	L 397.524, 708.697 
	L 397.524, 577.169 
" />
<path d="M 402.060, 708.696 
	L 402.059, 708.697 
	L 402.059, 577.169 
" />
<path d="M 406.595, 708.696 
	L 406.595, 708.697 
	L 406.595, 577.169 
" />
<path d="M 411.131, 708.696 
	L 411.130, 708.697 
	L 411.130, 577.169 
" />
<path d="M 415.666, 708.696 
	L 415.665, 708.697 
	L 415.665, 577.169 
" />
<path d="M 420.202, 708.696 
	L 420.201, 708.697 
	L 420.201, 577.169 
" />
<path d="M 424.737, 708.696 
	L 424.736, 708.697 
	L 424.736, 577.169 
" />
<path d="M 429.272, 708.696 
	L 429.272, 708.697 
	L 429.272, 577.169 
" />
<path d="M 433.808, 708.696 
	L 433.807, 708.697 
	L 433.807, 577.169 
" />
<path d="M 438.343, 708.696 
	L 438.343, 708.697 
	L 438.343, 577.169 
" />
<path d="M 442.879, 708.696 
	L 442.878, 708.697 
	L 442.878, 577.169 
" />
<path d="M 447.414, 708.696 
	L 447.413, 708.697 
	L 447.413, 577.169 
" />
<path d="M 451.950, 708.696 
	L 451.949, 708.697 
	L 451.949, 577.169 
" />
<path d="M 456.485, 708.696 
	L 456.484, 708.697 
	L 456.484, 577.169 
" />
<path d="M 461.020, 708.696 
	L 461.020, 708.697 
	L 461.020, 577.169 
" />
<path d="M 465.556, 708.696 
	L 465.555, 708.697 
	L 465.555, 577.169 
" />
<path d="M 470.091, 708.696 
	L 470.091, 708.697 
	L 470.091, 577.169 
" />
<path d="M 474.627, 708.696 
	L 474.626, 708.697 
	L 474.626, 577.169 
" />
<path d="M 479.162, 708.696 
	L 479.161, 708.697 
	L 479.161, 577.169 
" />
<path d="M 483.698, 708.696 
	L 483.697, 708.697 
	L 483.697, 577.169 
" />
<path d="M 488.233, 708.696 
	L 488.232, 708.697 
	L 488.232, 577.169 
" />
<path d="M 492.768, 708.696 
	L 492.768, 708.697 
	L 492.768, 577.169 
" />
<path d="M 497.304, 708.696 
	L 497.303, 708.697 
	L 497.303, 577.169 
" />
<path d="M 501.839, 708.696 
	L 501.839, 708.697 
	L 501.839, 577.169 
" />
<path d="M 506.375, 708.696 
	L 506.374, 708.697 
	L 506.374, 577.169 
" />
<path d="M 510.910, 708.696 
	L 510.910, 708.697 
	L 510.910, 577.169 
" />
<path d="M 515.446, 708.696 
	L 515.445, 708.697 
	L 515.445, 577.169 
" />
<path d="M 519.981, 708.696 
	L 519.980, 708.697 
	L 519.980, 577.169 
" />
<path d="M 524.517, 708.696 
	L 524.516, 708.697 
	L 524.516, 577.169 
" />
<path d="M 529.052, 708.696 
	L 529.051, 708.697 
	L 529.051, 577.169 
" />
<path d="M 533.587, 708.696 
	L 533.587, 708.697 
	L 533.587, 577.169 
" />
<path d="M 538.123, 708.696 
	L 538.122, 708.697 
	L 538.122, 577.169 
" />
<path d="M 542.658, 708.696 
	L 542.658, 708.697 
	L 542.658, 577.169 
" />
<path d="M 547.194, 708.696 
	L 547.193, 708.697 
	L 547.193, 577.169 
" />
<path d="M 551.729, 708.696 
	L 551.728, 708.697 
	L 551.728, 577.169 
" />
<path d="M 556.265, 708.696 
	L 556.264, 708.697 
	L 556.264, 577.169 
" />
<path d="M 560.800, 708.696 
	L 560.799, 708.697 
	L 560.799, 577.169 
" />
<path d="M 565.335, 708.696 
	L 565.335, 708.697 
	L 565.335, 577.169 
" />
<path d="M 569.871, 708.696 
	L 569.870, 708.697 
	L 569.870, 577.169 
" />
<path d="M 574.406, 708.696 
	L 574.406, 708.697 
	L 574.406, 577.169 
" />
<path d="M 578.942, 708.696 
	L 578.941, 708.697 
	L 578.941, 577.169 
" />
<path d="M 583.477, 708.696 
	L 583.476, 708.697 
	L 583.476, 577.169 
" />
<path d="M 588.013, 708.696 
	L 588.012, 708.697 
	L 588.012, 577.169 
" />
<path d="M 592.548, 708.696 
	L 592.547, 708.697 
	L 592.547, 577.169 
" />
<path d="M 597.083, 708.696 
	L 597.083, 708.697 
	L 597.083, 577.169 
" />
<path d="M 601.619, 708.696 
	L 601.618, 708.697 
	L 601.618, 577.169 
" />
<path d="M 606.154, 708.696 
	L 606.154, 708.697 
	L 606.154, 577.169 
" />
<path d="M 610.690, 708.696 
	L 610.689, 708.697 
	L 610.689, 577.169 
" />
<path d="M 615.225, 708.696 
	L 615.225, 708.697 
	L 615.225, 577.169 
" />
<path d="M 619.761, 708.696 
	L 619.760, 708.697 
	L 619.760, 577.169 
" />
<path d="M 624.296, 708.696 
	L 624.295, 708.697 
	L 624.295, 577.169 
" />
<path d="M 628.831, 708.696 
	L 628.831, 708.697 
	L 628.831, 577.169 
" />
<path d="M 633.367, 708.696 
	L 633.366, 708.697 
	L 633.366, 577.169 
" />
<path d="M 637.902, 708.696 
	L 637.902, 708.697 
	L 637.902, 577.169 
" />
<path d="M 642.438, 708.696 
	L 642.437, 708.697 
	L 642.437, 577.169 
" />
<path d="M 646.973, 708.696 
	L 646.973, 708.697 
	L 646.973, 577.169 
" />
<path d="M 651.509, 708.696 
	L 651.508, 708.697 
	L 651.508, 577.169 
" />
<path d="M 656.044, 708.696 
	L 656.043, 708.697 
	L 656.043, 577.169 
" />
<path d="M 660.580, 708.696 
	L 660.579, 708.697 
	L 660.579, 577.169 
" />
<path d="M 665.115, 708.696 
	L 665.114, 708.697 
	L 665.114, 577.169 
" />
<path d="M 669.650, 708.696 
	L 669.650, 708.697 
	L 669.650, 577.169 
" />
<path d="M 674.186, 708.696 
	L 674.185, 708.697 
	L 674.185, 577.169 
" />
<path d="M 678.721, 708.696 
	L 678.721, 708.697 
	L 678.721, 577.169 
" />
<path d="M 683.257, 708.696 
	L 683.256, 708.697 
	L 683.256, 577.169 
" />
<path d="M 687.792, 708.696 
	L 687.791, 708.697 
	L 687.791, 577.169 
" />
<path d="M 692.328, 708.696 
	L 692.327, 708.697 
	L 692.327, 577.169 
" />
<path d="M 696.863, 708.696 
	L 696.862, 708.697 
	L 696.862, 577.169 
" />
<path d="M 701.398, 708.696 
	L 701.398, 708.697 
	L 701.398, 577.169 
" />
</g>
</svg>
