<?xml version="1.0" encoding="UTF-8" standalone="no" ?>
<svg width="100%" height="100%" viewBox="0 0 708.662 708.662" xmlns="http://www.w3.org/2000/svg"><g>
</g><g style="stroke:rgb(0,0,0); fill:none; stroke-width:1.000mm" >
</g><g style="stroke:rgb(0,255,0); fill:none; stroke-width:0.100mm" >
<path d="M 0.001, 708.662 
	L 0.000, 708.662 
	L 0.000, 0.001 
	L 708.662, 0.001 
	L 708.662, 708.662 
	L 0.000, 708.662 
" />
</g><g style="stroke:rgb(0,0,0); fill:none; stroke-width:0.100mm" >
<path d="M 0.001, 708.662 
	L 0.000, 708.662 
	L 0.000, 0.001 
	L 708.662, 0.001 
	L 708.662, 708.662 
	L 0.000, 708.662 
" />
<path d="M 0.001, 708.662 
	L 0.000, 708.662 
	L 0.000, 0.001 
" />
<path d="M 4.607, 708.662 
	L 4.606, 708.662 
	L 4.606, 0.001 
" />
<path d="M 9.213, 708.662 
	L 9.213, 708.662 
	L 9.213, 0.001 
" />
<path d="M 13.820, 708.662 
	L 13.819, 708.662 
	L 13.819, 0.001 
" />
<path d="M 18.426, 708.662 
	L 18.425, 708.662 
	L 18.425, 0.001 
" />
<path d="M 23.032, 708.662 
	L 23.031, 708.662 
	L 23.031, 0.001 
" />
<path d="M 27.639, 708.662 
	L 27.638, 708.662 
	L 27.638, 0.001 
" />
<path d="M 32.245, 708.662 
	L 32.244, 708.662 
	L 32.244, 0.001 
" />
<path d="M 36.851, 708.662 
	L 36.850, 708.662 
	L 36.850, 0.001 
" />
<path d="M 41.457, 708.662 
	L 41.457, 708.662 
	L 41.457, 0.001 
" />
<path d="M 46.064, 708.662 
	L 46.063, 708.662 
	L 46.063, 0.001 
" />
<path d="M 50.670, 708.662 
	L 50.669, 708.662 
	L 50.669, 0.001 
" />
<path d="M 55.276, 708.662 
	L 55.276, 708.662 
	L 55.276, 0.001 
" />
<path d="M 59.883, 708.662 
	L 59.882, 708.662 
	L 59.882, 0.001 
" />
<path d="M 64.489, 708.662 
	L 64.488, 708.662 
	L 64.488, 0.001 
" />
<path d="M 69.095, 708.662 
	L 69.094, 708.662 
	L 69.094, 0.001 
" />
<path d="M 73.702, 708.662 
	L 73.701, 708.662 
	L 73.701, 0.001 
" />
<path d="M 78.308, 708.662 
	L 78.307, 708.662 
	L 78.307, 0.001 
" />
<path d="M 82.914, 708.662 
	L 82.913, 708.662 
	L 82.913, 0.001 
" />
<path d="M 87.520, 708.662 
	L 87.520, 708.662 
	L 87.520, 0.001 
" />
<path d="M 92.127, 708.662 
	L 92.126, 708.662 
	L 92.126, 0.001 
" />
<path d="M 96.733, 708.662 
	L 96.732, 708.662 
	L 96.732, 0.001 
" />
<path d="M 101.339, 708.662 
	L 101.339, 708.662 
	L 101.339, 0.001 
" />
<path d="M 105.946, 708.662 
	L 105.945, 708.662 
	L 105.945, 0.001 
" />
<path d="M 110.552, 708.662 
	L 110.551, 708.662 
	L 110.551, 0.001 
" />
<path d="M 115.158, 708.662 
	L 115.157, 708.662 
	L 115.157, 0.001 
" />
<path d="M 119.765, 708.662 
	L 119.764, 708.662 
	L 119.764, 0.001 
" />
<path d="M 124.371, 708.662 
	L 124.370, 708.662 
	L 124.370, 0.001 
" />
<path d="M 128.977, 708.662 
	L 128.976, 708.662 
	L 128.976, 0.001 
" />
<path d="M 133.583, 708.662 
	L 133.583, 708.662 
	L 133.583, 0.001 
" />
<path d="M 138.190, 708.662 
	L 138.189, 708.662 
	L 138.189, 0.001 
" />
<path d="M 142.796, 708.662 
	L 142.795, 708.662 
	L 142.795, 0.001 
" />
<path d="M 147.402, 708.662 
	L 147.402, 708.662 
	L 147.402, 0.001 
" />
<path d="M 152.009, 708.662 
	L 152.008, 708.662 
	L 152.008, 0.001 
" />
<path d="M 156.615, 708.662 
	L 156.614, 708.662 
	L 156.614, 0.001 
" />
<path d="M 161.221, 708.662 
	L 161.220, 708.662 
	L 161.220, 0.001 
" />
<path d="M 165.828, 708.662 
	L 165.827, 708.662 
	L 165.827, 0.001 
" />
<path d="M 170.434, 708.662 
	L 170.433, 708.662 
	L 170.433, 0.001 
" />
<path d="M 175.040, 708.662 
	L 175.039, 708.662 
	L 175.039, 0.001 
" />
<path d="M 179.646, 708.662 
	L 179.646, 708.662 
	L 179.646, 0.001 
" />
<path d="M 184.253, 708.662 
	L 184.252, 708.662 
	L 184.252, 0.001 
" />
<path d="M 188.859, 708.662 
	L 188.858, 708.662 
	L 188.858, 0.001 
" />
<path d="M 193.465, 708.662 
	L 193.465, 708.662 
	L 193.465, 0.001 
" />
<path d="M 198.072, 708.662 
	L 198.071, 708.662 
	L 198.071, 0.001 
" />
<path d="M 202.678, 708.662 
	L 202.677, 708.662 
	L 202.677, 0.001 
" />
<path d="M 207.284, 708.662 
	L 207.283, 708.662 
	L 207.283, 0.001 
" />
<path d="M 211.891, 708.662 
	L 211.890, 708.662 
	L 211.890, 0.001 
" />
<path d="M 216.497, 708.662 
	L 216.496, 708.662 
	L 216.496, 0.001 
" />
<path d="M 221.103, 708.662 
	L 221.102, 708.662 
	L 221.102, 0.001 
" />
<path d="M 225.709, 708.662 
	L 225.709, 708.662 
	L 225.709, 0.001 
" />
<path d="M 230.316, 708.662 
	L 230.315, 708.662 
	L 230.315, 0.001 
" />
<path d="M 234.922, 708.662 
	L 234.921, 708.662 
	L 234.921, 0.001 
" />
<path d="M 239.528, 708.662 
	L 239.528, 708.662 
	L 239.528, 0.001 
" />
<path d="M 244.135, 708.662 
	L 244.134, 708.662 
	L 244.134, 0.001 
" />
<path d="M 248.741, 708.662 
	L 248.740, 708.662 
	L 248.740, 0.001 
" />
<path d="M 253.347, 708.662 
	L 253.346, 708.662 
	L 253.346, 0.001 
" />
<path d="M 257.954, 708.662 
	L 257.953, 708.662 
	L 257.953, 0.001 
" />
<path d="M 262.560, 708.662 
	L 262.559, 708.662 
	L 262.559, 0.001 
" />
<path d="M 267.166, 708.662 
	L 267.165, 708.662 
	L 267.165, 0.001 
" />
<path d="M 271.772, 708.662 
	L 271.772, 708.662 
	L 271.772, 0.001 
" />
<path d="M 276.379, 708.662 
	L 276.378, 708.662 
	L 276.378, 0.001 
" />
<path d="M 280.985, 708.662 
	L 280.984, 708.662 
	L 280.984, 0.001 
" />
<path d="M 285.591, 708.662 
	L 285.591, 708.662 
	L 285.591, 0.001 
" />
<path d="M 290.198, 708.662 
	L 290.197, 708.662 
	L 290.197, 0.001 
" />
<path d="M 294.804, 708.662 
	L 294.803, 708.662 
	L 294.803, 0.001 
" />
<path d="M 299.410, 708.662 
	L 299.409, 708.662 
	L 299.409, 0.001 
" />
<path d="M 304.016, 708.662 
	L 304.016, 708.662 
	L 304.016, 0.001 
" />
<path d="M 308.623, 708.662 
	L 308.622, 708.662 
	L 308.622, 0.001 
" />
<path d="M 313.229, 708.662 
	L 313.228, 708.662 
	L 313.228, 0.001 
" />
<path d="M 317.835, 708.662 
	L 317.835, 708.662 
	L 317.835, 0.001 
" />
<path d="M 322.442, 708.662 
	L 322.441, 708.662 
	L 322.441, 0.001 
" />
<path d="M 327.048, 708.662 
	L 327.047, 708.662 
	L 327.047, 0.001 
" />
<path d="M 331.654, 708.662 
	L 331.654, 708.662 
	L 331.654, 0.001 
" />
<path d="M 336.261, 708.662 
	L 336.260, 708.662 
	L 336.260, 0.001 
" />
<path d="M 340.867, 708.662 
	L 340.866, 708.662 
	L 340.866, 0.001 
" />
<path d="M 345.473, 708.662 
	L 345.472, 708.662 
	L 345.472, 0.001 
" />
<path d="M 350.079, 708.662 
	L 350.079, 708.662 
	L 350.079, 0.001 
" />
<path d="M 354.686, 708.662 
	L 354.685, 708.662 
	L 354.685, 0.001 
" />
<path d="M 359.292, 708.662 
	L 359.291, 708.662 
	L 359.291, 0.001 
" />
<path d="M 363.898, 708.662 
	L 363.898, 708.662 
	L 363.898, 0.001 
" />
<path d="M 368.505, 708.662 
	L 368.504, 708.662 
	L 368.504, 0.001 
" />
<path d="M 373.111, 708.662 
	L 373.110, 708.662 
	L 373.110, 0.001 
" />
<path d="M 377.717, 708.662 
	L 377.717, 708.662 
	L 377.717, 0.001 
" />
<path d="M 382.324, 708.662 
	L 382.323, 708.662 
	L 382.323, 0.001 
" />
<path d="M 386.930, 708.662 
	L 386.929, 708.662 
	L 386.929, 0.001 
" />
<path d="M 391.536, 708.662 
	L 391.535, 708.662 
	L 391.535, 0.001 
" />
<path d="M 396.142, 708.662 
	L 396.142, 708.662 
	L 396.142, 0.001 
" />
<path d="M 400.749, 708.662 
	L 400.748, 708.662 
	L 400.748, 0.001 
" />
<path d="M 405.355, 708.662 
	L 405.354, 708.662 
	L 405.354, 0.001 
" />
<path d="M 409.961, 708.662 
	L 409.961, 708.662 
	L 409.961, 0.001 
" />
<path d="M 414.568, 708.662 
	L 414.567, 708.662 
	L 414.567, 0.001 
" />
<path d="M 419.174, 708.662 
	L 419.173, 708.662 
	L 419.173, 0.001 
" />
<path d="M 423.780, 708.662 
	L 423.780, 708.662 
	L 423.780, 0.001 
" />
<path d="M 428.387, 708.662 
	L 428.386, 708.662 
	L 428.386, 0.001 
" />
<path d="M 432.993, 708.662 
	L 432.992, 708.662 
	L 432.992, 0.001 
" />
<path d="M 437.599, 708.662 
	L 437.598, 708.662 
	L 437.598, 0.001 
" />
<path d="M 442.205, 708.662 
	L 442.205, 708.662 
	L 442.205, 0.001 
" />
<path d="M 446.812, 708.662 
	L 446.811, 708.662 
	L 446.811, 0.001 
" />
<path d="M 451.418, 708.662 
	L 451.417, 708.662 
	L 451.417, 0.001 
" />
<path d="M 456.024, 708.662 
	L 456.024, 708.662 
	L 456.024, 0.001 
" />
<path d="M 460.631, 708.662 
	L 460.630, 708.662 
	L 460.630, 0.001 
" />
<path d="M 465.237, 708.662 
	L 465.236, 708.662 
	L 465.236, 0.001 
" />
<path d="M 469.843, 708.662 
	L 469.843, 708.662 
	L 469.843, 0.001 
" />
<path d="M 474.450, 708.662 
	L 474.449, 708.662 
	L 474.449, 0.001 
" />
<path d="M 479.056, 708.662 
	L 479.055, 708.662 
	L 479.055, 0.001 
" />
<path d="M 483.662, 708.662 
	L 483.661, 708.662 
	L 483.661, 0.001 
" />
<path d="M 488.268, 708.662 
	L 488.268, 708.662 
	L 488.268, 0.001 
" />
<path d="M 492.875, 708.662 
	L 492.874, 708.662 
	L 492.874, 0.001 
" />
<path d="M 497.481, 708.662 
	L 497.480, 708.662 
	L 497.480, 0.001 
" />
<path d="M 502.087, 708.662 
	L 502.087, 708.662 
	L 502.087, 0.001 
" />
<path d="M 506.694, 708.662 
	L 506.693, 708.662 
	L 506.693, 0.001 
" />
<path d="M 511.300, 708.662 
	L 511.299, 708.662 
	L 511.299, 0.001 
" />
<path d="M 515.906, 708.662 
	L 515.906, 708.662 
	L 515.906, 0.001 
" />
<path d="M 520.513, 708.662 
	L 520.512, 708.662 
	L 520.512, 0.001 
" />
<path d="M 525.119, 708.662 
	L 525.118, 708.662 
	L 525.118, 0.001 
" />
<path d="M 529.725, 708.662 
	L 529.724, 708.662 
	L 529.724, 0.001 
" />
<path d="M 534.331, 708.662 
	L 534.331, 708.662 
	L 534.331, 0.001 
" />
<path d="M 538.938, 708.662 
	L 538.937, 708.662 
	L 538.937, 0.001 
" />
<path d="M 543.544, 708.662 
	L 543.543, 708.662 
	L 543.543, 0.001 
" />
<path d="M 548.150, 708.662 
	L 548.150, 708.662 
	L 548.150, 0.001 
" />
<path d="M 552.757, 708.662 
	L 552.756, 708.662 
	L 552.756, 0.001 
" />
<path d="M 557.363, 708.662 
	L 557.362, 708.662 
	L 557.362, 0.001 
" />
<path d="M 561.969, 708.662 
	L 561.969, 708.662 
	L 561.969, 0.001 
" />
<path d="M 566.576, 708.662 
	L 566.575, 708.662 
	L 566.575, 0.001 
" />
<path d="M 571.182, 708.662 
	L 571.181, 708.662 
	L 571.181, 0.001 
" />
<path d="M 575.788, 708.662 
	L 575.787, 708.662 
	L 575.787, 0.001 
" />
<path d="M 580.394, 708.662 
	L 580.394, 708.662 
	L 580.394, 0.001 
" />
<path d="M 585.001, 708.662 
	L 585.000, 708.662 
	L 585.000, 0.001 
" />
<path d="M 589.607, 708.662 
	L 589.606, 708.662 
	L 589.606, 0.001 
" />
<path d="M 594.213, 708.662 
	L 594.213, 708.662 
	L 594.213, 0.001 
" />
<path d="M 598.820, 708.662 
	L 598.819, 708.662 
	L 598.819, 0.001 
" />
<path d="M 603.426, 708.662 
	L 603.425, 708.662 
	L 603.425, 0.001 
" />
<path d="M 608.032, 708.662 
	L 608.032, 708.662 
	L 608.032, 0.001 
" />
<path d="M 612.639, 708.662 
	L 612.638, 708.662 
	L 612.638, 0.001 
" />
<path d="M 617.245, 708.662 
	L 617.244, 708.662 
	L 617.244, 0.001 
" />
<path d="M 621.851, 708.662 
	L 621.850, 708.662 
	L 621.850, 0.001 
" />
<path d="M 626.457, 708.662 
	L 626.457, 708.662 
	L 626.457, 0.001 
" />
<path d="M 631.064, 708.662 
	L 631.063, 708.662 
	L 631.063, 0.001 
" />
<path d="M 635.670, 708.662 
	L 635.669, 708.662 
	L 635.669, 0.001 
" />
<path d="M 640.276, 708.662 
	L 640.276, 708.662 
	L 640.276, 0.001 
" />
<path d="M 644.883, 708.662 
	L 644.882, 708.662 
	L 644.882, 0.001 
" />
<path d="M 649.489, 708.662 
	L 649.488, 708.662 
	L 649.488, 0.001 
" />
<path d="M 654.095, 708.662 
	L 654.095, 708.662 
	L 654.095, 0.001 
" />
<path d="M 658.702, 708.662 
	L 658.701, 708.662 
	L 658.701, 0.001 
" />
<path d="M 663.308, 708.662 
	L 663.307, 708.662 
	L 663.307, 0.001 
" />
<path d="M 667.914, 708.662 
	L 667.913, 708.662 
	L 667.913, 0.001 
" />
<path d="M 672.520, 708.662 
	L 672.520, 708.662 
	L 672.520, 0.001 
" />
<path d="M 677.127, 708.662 
	L 677.126, 708.662 
	L 677.126, 0.001 
" />
<path d="M 681.733, 708.662 
	L 681.732, 708.662 
	L 681.732, 0.001 
" />
<path d="M 686.339, 708.662 
	L 686.339, 708.662 
	L 686.339, 0.001 
" />
<path d="M 690.946, 708.662 
	L 690.945, 708.662 
	L 690.945, 0.001 
" />
<path d="M 695.552, 708.662 
	L 695.551, 708.662 
	L 695.551, 0.001 
" />
<path d="M 700.158, 708.662 
	L 700.158, 708.662 
	L 700.158, 0.001 
" />
</g><g style="stroke:rgb(255,0,0); fill:none; stroke-width:0.100mm" >
<path d="M 0.001, 0.000 
	L 0.000, 0.001 
	L 708.662, 0.001 
	L 0.000, 0.001 
" />
<path d="M 0.001, 0.000 
	L 0.000, 0.001 
" />
<path d="M 4.607, 0.000 
	L 4.606, 0.001 
" />
<path d="M 9.213, 0.000 
	L 9.213, 0.001 
" />
<path d="M 13.820, 0.000 
	L 13.819, 0.001 
" />
<path d="M 18.426, 0.000 
	L 18.425, 0.001 
" />
<path d="M 23.032, 0.000 
	L 23.031, 0.001 
" />
<path d="M 27.639, 0.000 
	L 27.638, 0.001 
" />
<path d="M 32.245, 0.000 
	L 32.244, 0.001 
" />
<path d="M 36.851, 0.000 
	L 36.850, 0.001 
" />
<path d="M 41.457, 0.000 
	L 41.457, 0.001 
" />
<path d="M 46.064, 0.000 
	L 46.063, 0.001 
" />
<path d="M 50.670, 0.000 
	L 50.669, 0.001 
" />
<path d="M 55.276, 0.000 
	L 55.276, 0.001 
" />
<path d="M 59.883, 0.000 
	L 59.882, 0.001 
" />
<path d="M 64.489, 0.000 
	L 64.488, 0.001 
" />
<path d="M 69.095, 0.000 
	L 69.094, 0.001 
" />
<path d="M 73.702, 0.000 
	L 73.701, 0.001 
" />
<path d="M 78.308, 0.000 
	L 78.307, 0.001 
" />
<path d="M 82.914, 0.000 
	L 82.913, 0.001 
" />
<path d="M 87.520, 0.000 
	L 87.520, 0.001 
" />
<path d="M 92.127, 0.000 
	L 92.126, 0.001 
" />
<path d="M 96.733, 0.000 
	L 96.732, 0.001 
" />
<path d="M 101.339, 0.000 
	L 101.339, 0.001 
" />
<path d="M 105.946, 0.000 
	L 105.945, 0.001 
" />
<path d="M 110.552, 0.000 
	L 110.551, 0.001 
" />
<path d="M 115.158, 0.000 
	L 115.157, 0.001 
" />
<path d="M 119.765, 0.000 
	L 119.764, 0.001 
" />
<path d="M 124.371, 0.000 
	L 124.370, 0.001 
" />
<path d="M 128.977, 0.000 
	L 128.976, 0.001 
" />
<path d="M 133.583, 0.000 
	L 133.583, 0.001 
" />
<path d="M 138.190, 0.000 
	L 138.189, 0.001 
" />
<path d="M 142.796, 0.000 
	L 142.795, 0.001 
" />
<path d="M 147.402, 0.000 
	L 147.402, 0.001 
" />
<path d="M 152.009, 0.000 
	L 152.008, 0.001 
" />
<path d="M 156.615, 0.000 
	L 156.614, 0.001 
" />
<path d="M 161.221, 0.000 
	L 161.220, 0.001 
" />
<path d="M 165.828, 0.000 
	L 165.827, 0.001 
" />
<path d="M 170.434, 0.000 
	L 170.433, 0.001 
" />
<path d="M 175.040, 0.000 
	L 175.039, 0.001 
" />
<path d="M 179.646, 0.000 
	L 179.646, 0.001 
" />
<path d="M 184.253, 0.000 
	L 184.252, 0.001 
" />
<path d="M 188.859, 0.000 
	L 188.858, 0.001 
" />
<path d="M 193.465, 0.000 
	L 193.465, 0.001 
" />
<path d="M 198.072, 0.000 
	L 198.071, 0.001 
" />
<path d="M 202.678, 0.000 
	L 202.677, 0.001 
" />
<path d="M 207.284, 0.000 
	L 207.283, 0.001 
" />
<path d="M 211.891, 0.000 
	L 211.890, 0.001 
" />
<path d="M 216.497, 0.000 
	L 216.496, 0.001 
" />
<path d="M 221.103, 0.000 
	L 221.102, 0.001 
" />
<path d="M 225.709, 0.000 
	L 225.709, 0.001 
" />
<path d="M 230.316, 0.000 
	L 230.315, 0.001 
" />
<path d="M 234.922, 0.000 
	L 234.921, 0.001 
" />
<path d="M 239.528, 0.000 
	L 239.528, 0.001 
" />
<path d="M 244.135, 0.000 
	L 244.134, 0.001 
" />
<path d="M 248.741, 0.000 
	L 248.740, 0.001 
" />
<path d="M 253.347, 0.000 
	L 253.346, 0.001 
" />
<path d="M 257.954, 0.000 
	L 257.953, 0.001 
" />
<path d="M 262.560, 0.000 
	L 262.559, 0.001 
" />
<path d="M 267.166, 0.000 
	L 267.165, 0.001 
" />
<path d="M 271.772, 0.000 
	L 271.772, 0.001 
" />
<path d="M 276.379, 0.000 
	L 276.378, 0.001 
" />
<path d="M 280.985, 0.000 
	L 280.984, 0.001 
" />
<path d="M 285.591, 0.000 
	L 285.591, 0.001 
" />
<path d="M 290.198, 0.000 
	L 290.197, 0.001 
" />
<path d="M 294.804, 0.000 
	L 294.803, 0.001 
" />
<path d="M 299.410, 0.000 
	L 299.409, 0.001 
" />
<path d="M 304.016, 0.000 
	L 304.016, 0.001 
" />
<path d="M 308.623, 0.000 
	L 308.622, 0.001 
" />
<path d="M 313.229, 0.000 
	L 313.228, 0.001 
" />
<path d="M 317.835, 0.000 
	L 317.835, 0.001 
" />
<path d="M 322.442, 0.000 
	L 322.441, 0.001 
" />
<path d="M 327.048, 0.000 
	L 327.047, 0.001 
" />
<path d="M 331.654, 0.000 
	L 331.654, 0.001 
" />
<path d="M 336.261, 0.000 
	L 336.260, 0.001 
" />
<path d="M 340.867, 0.000 
	L 340.866, 0.001 
" />
<path d="M 345.473, 0.000 
	L 345.472, 0.001 
" />
<path d="M 350.079, 0.000 
	L 350.079, 0.001 
" />
<path d="M 354.686, 0.000 
	L 354.685, 0.001 
" />
<path d="M 359.292, 0.000 
	L 359.291, 0.001 
" />
<path d="M 363.898, 0.000 
	L 363.898, 0.001 
" />
<path d="M 368.505, 0.000 
	L 368.504, 0.001 
" />
<path d="M 373.111, 0.000 
	L 373.110, 0.001 
" />
<path d="M 377.717, 0.000 
	L 377.717, 0.001 
" />
<path d="M 382.324, 0.000 
	L 382.323, 0.001 
" />
<path d="M 386.930, 0.000 
	L 386.929, 0.001 
" />
<path d="M 391.536, 0.000 
	L 391.535, 0.001 
" />
<path d="M 396.142, 0.000 
	L 396.142, 0.001 
" />
<path d="M 400.749, 0.000 
	L 400.748, 0.001 
" />
<path d="M 405.355, 0.000 
	L 405.354, 0.001 
" />
<path d="M 409.961, 0.000 
	L 409.961, 0.001 
" />
<path d="M 414.568, 0.000 
	L 414.567, 0.001 
" />
<path d="M 419.174, 0.000 
	L 419.173, 0.001 
" />
<path d="M 423.780, 0.000 
	L 423.780, 0.001 
" />
<path d="M 428.387, 0.000 
	L 428.386, 0.001 
" />
<path d="M 432.993, 0.000 
	L 432.992, 0.001 
" />
<path d="M 437.599, 0.000 
	L 437.598, 0.001 
" />
<path d="M 442.205, 0.000 
	L 442.205, 0.001 
" />
<path d="M 446.812, 0.000 
	L 446.811, 0.001 
" />
<path d="M 451.418, 0.000 
	L 451.417, 0.001 
" />
<path d="M 456.024, 0.000 
	L 456.024, 0.001 
" />
<path d="M 460.631, 0.000 
	L 460.630, 0.001 
" />
<path d="M 465.237, 0.000 
	L 465.236, 0.001 
" />
<path d="M 469.843, 0.000 
	L 469.843, 0.001 
" />
<path d="M 474.450, 0.000 
	L 474.449, 0.001 
" />
<path d="M 479.056, 0.000 
	L 479.055, 0.001 
" />
<path d="M 483.662, 0.000 
	L 483.661, 0.001 
" />
<path d="M 488.268, 0.000 
	L 488.268, 0.001 
" />
<path d="M 492.875, 0.000 
	L 492.874, 0.001 
" />
<path d="M 497.481, 0.000 
	L 497.480, 0.001 
" />
<path d="M 502.087, 0.000 
	L 502.087, 0.001 
" />
<path d="M 506.694, 0.000 
	L 506.693, 0.001 
" />
<path d="M 511.300, 0.000 
	L 511.299, 0.001 
" />
<path d="M 515.906, 0.000 
	L 515.906, 0.001 
" />
<path d="M 520.513, 0.000 
	L 520.512, 0.001 
" />
<path d="M 525.119, 0.000 
	L 525.118, 0.001 
" />
<path d="M 529.725, 0.000 
	L 529.724, 0.001 
" />
<path d="M 534.331, 0.000 
	L 534.331, 0.001 
" />
<path d="M 538.938, 0.000 
	L 538.937, 0.001 
" />
<path d="M 543.544, 0.000 
	L 543.543, 0.001 
" />
<path d="M 548.150, 0.000 
	L 548.150, 0.001 
" />
<path d="M 552.757, 0.000 
	L 552.756, 0.001 
" />
<path d="M 557.363, 0.000 
	L 557.362, 0.001 
" />
<path d="M 561.969, 0.000 
	L 561.969, 0.001 
" />
<path d="M 566.576, 0.000 
	L 566.575, 0.001 
" />
<path d="M 571.182, 0.000 
	L 571.181, 0.001 
" />
<path d="M 575.788, 0.000 
	L 575.787, 0.001 
" />
<path d="M 580.394, 0.000 
	L 580.394, 0.001 
" />
<path d="M 585.001, 0.000 
	L 585.000, 0.001 
" />
<path d="M 589.607, 0.000 
	L 589.606, 0.001 
" />
<path d="M 594.213, 0.000 
	L 594.213, 0.001 
" />
<path d="M 598.820, 0.000 
	L 598.819, 0.001 
" />
<path d="M 603.426, 0.000 
	L 603.425, 0.001 
" />
<path d="M 608.032, 0.000 
	L 608.032, 0.001 
" />
<path d="M 612.639, 0.000 
	L 612.638, 0.001 
" />
<path d="M 617.245, 0.000 
	L 617.244, 0.001 
" />
<path d="M 621.851, 0.000 
	L 621.850, 0.001 
" />
<path d="M 626.457, 0.000 
	L 626.457, 0.001 
" />
<path d="M 631.064, 0.000 
	L 631.063, 0.001 
" />
<path d="M 635.670, 0.000 
	L 635.669, 0.001 
" />
<path d="M 640.276, 0.000 
	L 640.276, 0.001 
" />
<path d="M 644.883, 0.000 
	L 644.882, 0.001 
" />
<path d="M 649.489, 0.000 
	L 649.488, 0.001 
" />
<path d="M 654.095, 0.000 
	L 654.095, 0.001 
" />
<path d="M 658.702, 0.000 
	L 658.701, 0.001 
" />
<path d="M 663.308, 0.000 
	L 663.307, 0.001 
" />
<path d="M 667.914, 0.000 
	L 667.913, 0.001 
" />
<path d="M 672.520, 0.000 
	L 672.520, 0.001 
" />
<path d="M 677.127, 0.000 
	L 677.126, 0.001 
" />
<path d="M 681.733, 0.000 
	L 681.732, 0.001 
" />
<path d="M 686.339, 0.000 
	L 686.339, 0.001 
" />
<path d="M 690.946, 0.000 
	L 690.945, 0.001 
" />
<path d="M 695.552, 0.000 
	L 695.551, 0.001 
" />
<path d="M 700.158, 0.000 
	L 700.158, 0.001 
" />
</g><g style="stroke:rgb(0,255,0); fill:none; stroke-width:0.100mm" >
<path d="M 708.662, 0.000 
	L 708.662, 0.001 
" />
</g><g style="stroke:rgb(0,0,255); fill:none; stroke-width:0.100mm" >
<path d="M 708.662, 708.662 
	L 708.662, 708.662 
	L 708.662, 0.001 
	L 708.662, 708.662 
" />
</g>
</svg>
