<?xml version="1.0" encoding="UTF-8" standalone="no" ?>
<svg width="100%" height="100%" viewBox="0 0 1107.815 708.697" xmlns="http://www.w3.org/2000/svg"><g>
</g><g style="stroke:rgb(0,0,0); fill:none; stroke-width:1.000mm" >
<path d="M 0.035, 708.697 
	L 0.035, 379.098 
" />
<path d="M 1.807, 708.697 
	L 1.807, 379.098 
" />
<path d="M 3.579, 708.697 
	L 3.579, 379.098 
" />
<path d="M 5.350, 708.697 
	L 5.350, 379.098 
" />
<path d="M 7.122, 708.697 
	L 7.122, 379.098 
" />
<path d="M 8.894, 708.697 
	L 8.894, 379.098 
" />
<path d="M 10.665, 708.697 
	L 10.665, 379.098 
" />
<path d="M 12.437, 708.697 
	L 12.437, 379.098 
" />
<path d="M 14.209, 708.697 
	L 14.209, 379.098 
" />
<path d="M 15.980, 708.697 
	L 15.980, 379.098 
" />
<path d="M 17.752, 708.697 
	L 17.752, 379.098 
" />
<path d="M 19.524, 708.697 
	L 19.524, 379.098 
" />
<path d="M 21.295, 708.697 
	L 21.295, 379.098 
" />
<path d="M 23.067, 708.697 
	L 23.067, 379.098 
" />
<path d="M 24.839, 708.697 
	L 24.839, 379.098 
" />
<path d="M 26.610, 708.697 
	L 26.610, 379.098 
" />
<path d="M 28.382, 708.697 
	L 28.382, 379.098 
" />
<path d="M 30.154, 708.697 
	L 30.154, 379.098 
" />
<path d="M 31.925, 708.697 
	L 31.925, 379.098 
" />
<path d="M 33.697, 708.697 
	L 33.697, 379.098 
" />
<path d="M 35.469, 708.697 
	L 35.469, 379.098 
" />
<path d="M 37.240, 708.697 
	L 37.240, 379.098 
" />
<path d="M 39.012, 708.697 
	L 39.012, 379.098 
" />
<path d="M 40.783, 708.697 
	L 40.783, 379.098 
" />
<path d="M 42.555, 708.697 
	L 42.555, 379.098 
" />
<path d="M 44.327, 708.697 
	L 44.327, 379.098 
" />
<path d="M 46.098, 708.697 
	L 46.098, 379.098 
" />
<path d="M 47.870, 708.697 
	L 47.870, 379.098 
" />
<path d="M 49.642, 708.697 
	L 49.642, 379.098 
" />
<path d="M 51.413, 708.697 
	L 51.413, 379.098 
" />
<path d="M 53.185, 708.697 
	L 53.185, 379.098 
" />
<path d="M 54.957, 708.697 
	L 54.957, 379.098 
" />
<path d="M 56.728, 708.697 
	L 56.728, 379.098 
" />
<path d="M 58.500, 708.697 
	L 58.500, 379.098 
" />
<path d="M 60.272, 708.697 
	L 60.272, 379.098 
" />
<path d="M 62.043, 708.697 
	L 62.043, 379.098 
" />
<path d="M 63.815, 708.697 
	L 63.815, 379.098 
" />
<path d="M 65.587, 708.697 
	L 65.587, 379.098 
" />
<path d="M 67.358, 708.697 
	L 67.358, 379.098 
" />
<path d="M 69.130, 708.697 
	L 69.130, 379.098 
" />
<path d="M 70.902, 708.697 
	L 70.902, 379.098 
" />
<path d="M 72.673, 708.697 
	L 72.673, 379.098 
" />
<path d="M 74.445, 708.697 
	L 74.445, 379.098 
" />
<path d="M 76.217, 708.697 
	L 76.217, 379.098 
" />
<path d="M 77.988, 708.697 
	L 77.988, 379.098 
" />
<path d="M 79.760, 708.697 
	L 79.760, 379.098 
" />
<path d="M 81.532, 708.697 
	L 81.532, 379.098 
" />
<path d="M 83.303, 708.697 
	L 83.303, 379.098 
" />
<path d="M 85.075, 708.697 
	L 85.075, 379.098 
" />
<path d="M 86.846, 708.697 
	L 86.846, 379.098 
" />
<path d="M 88.618, 708.697 
	L 88.618, 379.098 
" />
<path d="M 90.390, 708.697 
	L 90.390, 379.098 
" />
<path d="M 92.161, 708.697 
	L 92.161, 379.098 
" />
<path d="M 93.933, 708.697 
	L 93.933, 379.098 
" />
<path d="M 95.705, 708.697 
	L 95.705, 379.098 
" />
<path d="M 97.476, 708.697 
	L 97.476, 379.098 
" />
<path d="M 99.248, 708.697 
	L 99.248, 379.098 
" />
<path d="M 101.020, 708.697 
	L 101.020, 379.098 
" />
<path d="M 102.791, 708.697 
	L 102.791, 379.098 
" />
<path d="M 104.563, 708.697 
	L 104.563, 379.098 
" />
<path d="M 106.335, 708.697 
	L 106.335, 379.098 
" />
<path d="M 108.390, 708.697 
	L 108.390, 479.091 
" />
<path d="M 110.516, 708.697 
	L 110.516, 479.091 
" />
<path d="M 112.642, 708.697 
	L 112.642, 479.091 
" />
<path d="M 114.768, 708.697 
	L 114.768, 479.091 
" />
<path d="M 116.894, 708.697 
	L 116.894, 479.091 
" />
<path d="M 119.020, 708.697 
	L 119.020, 479.091 
" />
<path d="M 121.146, 708.697 
	L 121.146, 479.091 
" />
<path d="M 123.272, 708.697 
	L 123.272, 479.091 
" />
<path d="M 125.398, 708.697 
	L 125.398, 479.091 
" />
<path d="M 127.524, 708.697 
	L 127.524, 479.091 
" />
<path d="M 129.650, 708.697 
	L 129.650, 479.091 
" />
<path d="M 131.776, 708.697 
	L 131.776, 479.091 
" />
<path d="M 133.902, 708.697 
	L 133.902, 479.091 
" />
<path d="M 136.028, 708.697 
	L 136.028, 479.091 
" />
<path d="M 138.154, 708.697 
	L 138.154, 479.091 
" />
<path d="M 140.280, 708.697 
	L 140.280, 479.091 
" />
<path d="M 142.406, 708.697 
	L 142.406, 479.091 
" />
<path d="M 144.532, 708.697 
	L 144.532, 479.091 
" />
<path d="M 146.658, 708.697 
	L 146.658, 479.091 
" />
<path d="M 148.783, 708.697 
	L 148.783, 479.091 
" />
<path d="M 150.909, 708.697 
	L 150.909, 479.091 
" />
<path d="M 153.035, 708.697 
	L 153.035, 479.091 
" />
<path d="M 155.161, 708.697 
	L 155.161, 479.091 
" />
<path d="M 157.287, 708.697 
	L 157.287, 479.091 
" />
<path d="M 159.413, 708.697 
	L 159.413, 479.091 
" />
<path d="M 161.539, 708.697 
	L 161.539, 479.091 
" />
<path d="M 163.665, 708.697 
	L 163.665, 479.091 
" />
<path d="M 165.791, 708.697 
	L 165.791, 479.091 
" />
<path d="M 167.917, 708.697 
	L 167.917, 479.091 
" />
<path d="M 170.043, 708.697 
	L 170.043, 479.091 
" />
<path d="M 172.169, 708.697 
	L 172.169, 479.091 
" />
<path d="M 174.295, 708.697 
	L 174.295, 479.091 
" />
<path d="M 176.421, 708.697 
	L 176.421, 479.091 
" />
<path d="M 178.547, 708.697 
	L 178.547, 479.091 
" />
<path d="M 180.673, 708.697 
	L 180.673, 479.091 
" />
<path d="M 182.799, 708.697 
	L 182.799, 479.091 
" />
<path d="M 184.925, 708.697 
	L 184.925, 479.091 
" />
<path d="M 187.051, 708.697 
	L 187.051, 479.091 
" />
<path d="M 189.177, 708.697 
	L 189.177, 479.091 
" />
<path d="M 191.303, 708.697 
	L 191.303, 479.091 
" />
<path d="M 193.429, 708.697 
	L 193.429, 479.091 
" />
<path d="M 195.555, 708.697 
	L 195.555, 479.091 
" />
<path d="M 197.681, 708.697 
	L 197.681, 479.091 
" />
<path d="M 199.807, 708.697 
	L 199.807, 479.091 
" />
<path d="M 201.933, 708.697 
	L 201.933, 479.091 
" />
<path d="M 204.059, 708.697 
	L 204.059, 479.091 
" />
<path d="M 206.185, 708.697 
	L 206.185, 479.091 
" />
<path d="M 208.311, 708.697 
	L 208.311, 479.091 
" />
<path d="M 210.437, 708.697 
	L 210.437, 479.091 
" />
<path d="M 212.563, 708.697 
	L 212.563, 479.091 
" />
<path d="M 214.689, 708.697 
	L 214.689, 479.091 
" />
<path d="M 217.949, 708.697 
	L 217.949, 471.154 
" />
<path d="M 219.721, 708.697 
	L 219.721, 471.154 
" />
<path d="M 221.492, 708.697 
	L 221.492, 471.154 
" />
<path d="M 223.264, 708.697 
	L 223.264, 471.154 
" />
<path d="M 225.035, 708.697 
	L 225.035, 471.154 
" />
<path d="M 226.807, 708.697 
	L 226.807, 471.154 
" />
<path d="M 228.579, 708.697 
	L 228.579, 471.154 
" />
<path d="M 230.350, 708.697 
	L 230.350, 471.154 
" />
<path d="M 232.122, 708.697 
	L 232.122, 471.154 
" />
<path d="M 233.894, 708.697 
	L 233.894, 471.154 
" />
<path d="M 235.665, 708.697 
	L 235.665, 471.154 
" />
<path d="M 237.437, 708.697 
	L 237.437, 471.154 
" />
<path d="M 239.209, 708.697 
	L 239.209, 471.154 
" />
<path d="M 240.980, 708.697 
	L 240.980, 471.154 
" />
<path d="M 242.752, 708.697 
	L 242.752, 471.154 
" />
<path d="M 244.524, 708.697 
	L 244.524, 471.154 
" />
<path d="M 246.295, 708.697 
	L 246.295, 471.154 
" />
<path d="M 248.067, 708.697 
	L 248.067, 471.154 
" />
<path d="M 249.839, 708.697 
	L 249.839, 471.154 
" />
<path d="M 251.610, 708.697 
	L 251.610, 471.154 
" />
<path d="M 253.382, 708.697 
	L 253.382, 471.154 
" />
<path d="M 255.154, 708.697 
	L 255.154, 471.154 
" />
<path d="M 256.925, 708.697 
	L 256.925, 471.154 
" />
<path d="M 258.697, 708.697 
	L 258.697, 471.154 
" />
<path d="M 260.469, 708.697 
	L 260.469, 471.154 
" />
<path d="M 262.240, 708.697 
	L 262.240, 471.154 
" />
<path d="M 264.012, 708.697 
	L 264.012, 471.154 
" />
<path d="M 265.784, 708.697 
	L 265.784, 471.154 
" />
<path d="M 267.555, 708.697 
	L 267.555, 471.154 
" />
<path d="M 269.327, 708.697 
	L 269.327, 471.154 
" />
<path d="M 271.098, 708.697 
	L 271.098, 471.154 
" />
<path d="M 272.870, 708.697 
	L 272.870, 471.154 
" />
<path d="M 274.642, 708.697 
	L 274.642, 471.154 
" />
<path d="M 276.413, 708.697 
	L 276.413, 471.154 
" />
<path d="M 278.185, 708.697 
	L 278.185, 471.154 
" />
<path d="M 279.957, 708.697 
	L 279.957, 471.154 
" />
<path d="M 281.728, 708.697 
	L 281.728, 471.154 
" />
<path d="M 283.500, 708.697 
	L 283.500, 471.154 
" />
<path d="M 285.272, 708.697 
	L 285.272, 471.154 
" />
<path d="M 287.043, 708.697 
	L 287.043, 471.154 
" />
<path d="M 288.815, 708.697 
	L 288.815, 471.154 
" />
<path d="M 290.587, 708.697 
	L 290.587, 471.154 
" />
<path d="M 292.358, 708.697 
	L 292.358, 471.154 
" />
<path d="M 294.130, 708.697 
	L 294.130, 471.154 
" />
<path d="M 295.902, 708.697 
	L 295.902, 471.154 
" />
<path d="M 297.673, 708.697 
	L 297.673, 471.154 
" />
<path d="M 299.445, 708.697 
	L 299.445, 471.154 
" />
<path d="M 301.217, 708.697 
	L 301.217, 471.154 
" />
<path d="M 302.988, 708.697 
	L 302.988, 471.154 
" />
<path d="M 304.760, 708.697 
	L 304.760, 471.154 
" />
<path d="M 306.532, 708.697 
	L 306.532, 471.154 
" />
<path d="M 308.303, 708.697 
	L 308.303, 471.154 
" />
<path d="M 310.075, 708.697 
	L 310.075, 471.154 
" />
<path d="M 311.847, 708.697 
	L 311.847, 471.154 
" />
<path d="M 313.618, 708.697 
	L 313.618, 471.154 
" />
<path d="M 315.390, 708.697 
	L 315.390, 471.154 
" />
<path d="M 317.161, 708.697 
	L 317.161, 471.154 
" />
<path d="M 318.933, 708.697 
	L 318.933, 471.154 
" />
<path d="M 320.705, 708.697 
	L 320.705, 471.154 
" />
<path d="M 322.476, 708.697 
	L 322.476, 471.154 
" />
<path d="M 324.248, 708.697 
	L 324.248, 471.154 
" />
<path d="M 326.020, 708.697 
	L 326.020, 471.154 
" />
<path d="M 327.791, 708.697 
	L 327.791, 471.154 
" />
<path d="M 329.563, 708.697 
	L 329.563, 471.154 
" />
<path d="M 331.335, 708.697 
	L 331.335, 471.154 
" />
<path d="M 333.106, 708.697 
	L 333.106, 471.154 
" />
<path d="M 334.878, 708.697 
	L 334.878, 471.154 
" />
<path d="M 336.650, 708.697 
	L 336.650, 471.154 
" />
<path d="M 338.421, 708.697 
	L 338.421, 471.154 
" />
<path d="M 340.193, 708.697 
	L 340.193, 471.154 
" />
<path d="M 341.965, 708.697 
	L 341.965, 471.154 
" />
<path d="M 343.736, 708.697 
	L 343.736, 471.154 
" />
<path d="M 345.508, 708.697 
	L 345.508, 471.154 
" />
<path d="M 347.280, 708.697 
	L 347.280, 471.154 
" />
<path d="M 349.051, 708.697 
	L 349.051, 471.154 
" />
<path d="M 350.823, 708.697 
	L 350.823, 471.154 
" />
<path d="M 352.595, 708.697 
	L 352.595, 471.154 
" />
<path d="M 354.366, 708.697 
	L 354.366, 471.154 
" />
<path d="M 356.138, 708.697 
	L 356.138, 471.154 
" />
<path d="M 357.910, 708.697 
	L 357.910, 471.154 
" />
<path d="M 359.681, 708.697 
	L 359.681, 471.154 
" />
<path d="M 361.453, 708.697 
	L 361.453, 471.154 
" />
<path d="M 363.224, 708.697 
	L 363.224, 471.154 
" />
<path d="M 364.996, 708.697 
	L 364.996, 471.154 
" />
<path d="M 366.768, 708.697 
	L 366.768, 471.154 
" />
<path d="M 368.539, 708.697 
	L 368.539, 471.154 
" />
<path d="M 370.311, 708.697 
	L 370.311, 471.154 
" />
<path d="M 372.083, 708.697 
	L 372.083, 471.154 
" />
<path d="M 373.854, 708.697 
	L 373.854, 471.154 
" />
<path d="M 375.626, 708.697 
	L 375.626, 471.154 
" />
<path d="M 377.398, 708.697 
	L 377.398, 471.154 
" />
<path d="M 379.169, 708.697 
	L 379.169, 471.154 
" />
<path d="M 380.941, 708.697 
	L 380.941, 471.154 
" />
<path d="M 382.713, 708.697 
	L 382.713, 471.154 
" />
<path d="M 384.484, 708.697 
	L 384.484, 471.154 
" />
<path d="M 386.256, 708.697 
	L 386.256, 471.154 
" />
<path d="M 388.028, 708.697 
	L 388.028, 471.154 
" />
<path d="M 389.799, 708.697 
	L 389.799, 471.154 
" />
<path d="M 391.571, 708.697 
	L 391.571, 471.154 
" />
<path d="M 393.343, 708.697 
	L 393.343, 471.154 
" />
<path d="M 395.114, 708.697 
	L 395.114, 471.154 
" />
<path d="M 396.886, 708.697 
	L 396.886, 471.154 
" />
<path d="M 398.658, 708.697 
	L 398.658, 471.154 
" />
<path d="M 400.429, 708.697 
	L 400.429, 471.154 
" />
<path d="M 402.201, 708.697 
	L 402.201, 471.154 
" />
<path d="M 403.973, 708.697 
	L 403.973, 471.154 
" />
<path d="M 405.744, 708.697 
	L 405.744, 471.154 
" />
<path d="M 407.516, 708.697 
	L 407.516, 471.154 
" />
<path d="M 409.500, 708.697 
	L 409.500, 411.980 
" />
<path d="M 411.130, 708.697 
	L 411.130, 411.980 
" />
<path d="M 412.760, 708.697 
	L 412.760, 411.980 
" />
<path d="M 414.390, 708.697 
	L 414.390, 411.980 
" />
<path d="M 416.020, 708.697 
	L 416.020, 411.980 
" />
<path d="M 417.650, 708.697 
	L 417.650, 411.980 
" />
<path d="M 419.280, 708.697 
	L 419.280, 411.980 
" />
<path d="M 420.910, 708.697 
	L 420.910, 411.980 
" />
<path d="M 422.539, 708.697 
	L 422.539, 411.980 
" />
<path d="M 424.169, 708.697 
	L 424.169, 411.980 
" />
<path d="M 425.799, 708.697 
	L 425.799, 411.980 
" />
<path d="M 427.429, 708.697 
	L 427.429, 411.980 
" />
<path d="M 429.059, 708.697 
	L 429.059, 411.980 
" />
<path d="M 430.689, 708.697 
	L 430.689, 411.980 
" />
<path d="M 432.319, 708.697 
	L 432.319, 411.980 
" />
<path d="M 433.949, 708.697 
	L 433.949, 411.980 
" />
<path d="M 435.579, 708.697 
	L 435.579, 411.980 
" />
<path d="M 437.209, 708.697 
	L 437.209, 411.980 
" />
<path d="M 438.839, 708.697 
	L 438.839, 411.980 
" />
<path d="M 440.469, 708.697 
	L 440.469, 411.980 
" />
<path d="M 442.098, 708.697 
	L 442.098, 411.980 
" />
<path d="M 443.728, 708.697 
	L 443.728, 411.980 
" />
<path d="M 445.358, 708.697 
	L 445.358, 411.980 
" />
<path d="M 446.988, 708.697 
	L 446.988, 411.980 
" />
<path d="M 448.618, 708.697 
	L 448.618, 411.980 
" />
<path d="M 450.248, 708.697 
	L 450.248, 411.980 
" />
<path d="M 451.878, 708.697 
	L 451.878, 411.980 
" />
<path d="M 453.508, 708.697 
	L 453.508, 411.980 
" />
<path d="M 455.138, 708.697 
	L 455.138, 411.980 
" />
<path d="M 456.768, 708.697 
	L 456.768, 411.980 
" />
<path d="M 458.398, 708.697 
	L 458.398, 411.980 
" />
<path d="M 460.028, 708.697 
	L 460.028, 411.980 
" />
<path d="M 461.658, 708.697 
	L 461.658, 411.980 
" />
<path d="M 463.287, 708.697 
	L 463.287, 411.980 
" />
<path d="M 464.917, 708.697 
	L 464.917, 411.980 
" />
<path d="M 466.547, 708.697 
	L 466.547, 411.980 
" />
<path d="M 468.177, 708.697 
	L 468.177, 411.980 
" />
<path d="M 469.807, 708.697 
	L 469.807, 411.980 
" />
<path d="M 471.437, 708.697 
	L 471.437, 411.980 
" />
<path d="M 473.067, 708.697 
	L 473.067, 411.980 
" />
<path d="M 474.697, 708.697 
	L 474.697, 411.980 
" />
<path d="M 476.327, 708.697 
	L 476.327, 411.980 
" />
<path d="M 477.957, 708.697 
	L 477.957, 411.980 
" />
<path d="M 479.587, 708.697 
	L 479.587, 411.980 
" />
<path d="M 481.217, 708.697 
	L 481.217, 411.980 
" />
<path d="M 482.847, 708.697 
	L 482.847, 411.980 
" />
<path d="M 484.476, 708.697 
	L 484.476, 411.980 
" />
<path d="M 486.106, 708.697 
	L 486.106, 411.980 
" />
<path d="M 487.736, 708.697 
	L 487.736, 411.980 
" />
<path d="M 489.366, 708.697 
	L 489.366, 411.980 
" />
<path d="M 490.996, 708.697 
	L 490.996, 411.980 
" />
<path d="M 492.626, 708.697 
	L 492.626, 411.980 
" />
<path d="M 494.256, 708.697 
	L 494.256, 411.980 
" />
<path d="M 495.886, 708.697 
	L 495.886, 411.980 
" />
<path d="M 497.516, 708.697 
	L 497.516, 411.980 
" />
<path d="M 499.146, 708.697 
	L 499.146, 411.980 
" />
<path d="M 500.776, 708.697 
	L 500.776, 411.980 
" />
<path d="M 502.406, 708.697 
	L 502.406, 411.980 
" />
<path d="M 504.036, 708.697 
	L 504.036, 411.980 
" />
<path d="M 505.665, 708.697 
	L 505.665, 411.980 
" />
<path d="M 507.295, 708.697 
	L 507.295, 411.980 
" />
<path d="M 508.925, 708.697 
	L 508.925, 411.980 
" />
<path d="M 510.555, 708.697 
	L 510.555, 411.980 
" />
<path d="M 512.185, 708.697 
	L 512.185, 411.980 
" />
<path d="M 513.815, 708.697 
	L 513.815, 411.980 
" />
<path d="M 515.445, 708.697 
	L 515.445, 411.980 
" />
<path d="M 517.075, 708.697 
	L 517.075, 411.980 
" />
<path d="M 518.705, 708.697 
	L 518.705, 411.980 
" />
<path d="M 520.335, 708.697 
	L 520.335, 411.980 
" />
<path d="M 521.965, 708.697 
	L 521.965, 411.980 
" />
<path d="M 523.595, 708.697 
	L 523.595, 411.980 
" />
<path d="M 525.224, 708.697 
	L 525.224, 411.980 
" />
<path d="M 526.854, 708.697 
	L 526.854, 411.980 
" />
<path d="M 528.484, 708.697 
	L 528.484, 411.980 
" />
<path d="M 530.114, 708.697 
	L 530.114, 411.980 
" />
<path d="M 531.744, 708.697 
	L 531.744, 411.980 
" />
<path d="M 533.374, 708.697 
	L 533.374, 411.980 
" />
<path d="M 535.004, 708.697 
	L 535.004, 411.980 
" />
<path d="M 536.634, 708.697 
	L 536.634, 411.980 
" />
<path d="M 538.264, 708.697 
	L 538.264, 411.980 
" />
<path d="M 541.311, 708.697 
	L 541.311, 356.280 
" />
<path d="M 543.579, 708.697 
	L 543.579, 356.280 
" />
<path d="M 545.847, 708.697 
	L 545.847, 356.280 
" />
<path d="M 548.114, 708.697 
	L 548.114, 356.280 
" />
<path d="M 550.382, 708.697 
	L 550.382, 356.280 
" />
<path d="M 552.650, 708.697 
	L 552.650, 356.280 
" />
<path d="M 554.917, 708.697 
	L 554.917, 356.280 
" />
<path d="M 557.185, 708.697 
	L 557.185, 356.280 
" />
<path d="M 559.453, 708.697 
	L 559.453, 356.280 
" />
<path d="M 561.721, 708.697 
	L 561.721, 356.280 
" />
<path d="M 563.988, 708.697 
	L 563.988, 356.280 
" />
<path d="M 566.256, 708.697 
	L 566.256, 356.280 
" />
<path d="M 568.524, 708.697 
	L 568.524, 356.280 
" />
<path d="M 570.791, 708.697 
	L 570.791, 356.280 
" />
<path d="M 573.059, 708.697 
	L 573.059, 356.280 
" />
<path d="M 575.327, 708.697 
	L 575.327, 356.280 
" />
<path d="M 577.595, 708.697 
	L 577.595, 356.280 
" />
<path d="M 579.862, 708.697 
	L 579.862, 356.280 
" />
<path d="M 582.130, 708.697 
	L 582.130, 356.280 
" />
<path d="M 584.398, 708.697 
	L 584.398, 356.280 
" />
<path d="M 586.665, 708.697 
	L 586.665, 356.280 
" />
<path d="M 588.933, 708.697 
	L 588.933, 356.280 
" />
<path d="M 591.201, 708.697 
	L 591.201, 356.280 
" />
<path d="M 593.469, 708.697 
	L 593.469, 356.280 
" />
<path d="M 595.736, 708.697 
	L 595.736, 356.280 
" />
<path d="M 598.004, 708.697 
	L 598.004, 356.280 
" />
<path d="M 600.272, 708.697 
	L 600.272, 356.280 
" />
<path d="M 602.539, 708.697 
	L 602.539, 356.280 
" />
<path d="M 604.807, 708.697 
	L 604.807, 356.280 
" />
<path d="M 607.075, 708.697 
	L 607.075, 356.280 
" />
<path d="M 609.343, 708.697 
	L 609.343, 356.280 
" />
<path d="M 611.610, 708.697 
	L 611.610, 356.280 
" />
<path d="M 613.878, 708.697 
	L 613.878, 356.280 
" />
<path d="M 616.146, 708.697 
	L 616.146, 356.280 
" />
<path d="M 618.413, 708.697 
	L 618.413, 356.280 
" />
<path d="M 620.681, 708.697 
	L 620.681, 356.280 
" />
<path d="M 622.949, 708.697 
	L 622.949, 356.280 
" />
<path d="M 625.217, 708.697 
	L 625.217, 356.280 
" />
<path d="M 627.484, 708.697 
	L 627.484, 356.280 
" />
<path d="M 629.752, 708.697 
	L 629.752, 356.280 
" />
<path d="M 632.020, 708.697 
	L 632.020, 356.280 
" />
<path d="M 634.287, 708.697 
	L 634.287, 356.280 
" />
<path d="M 636.555, 708.697 
	L 636.555, 356.280 
" />
<path d="M 638.823, 708.697 
	L 638.823, 356.280 
" />
<path d="M 641.091, 708.697 
	L 641.091, 356.280 
" />
<path d="M 643.358, 708.697 
	L 643.358, 356.280 
" />
<path d="M 645.626, 708.697 
	L 645.626, 356.280 
" />
<path d="M 647.894, 708.697 
	L 647.894, 356.280 
" />
<path d="M 650.162, 708.697 
	L 650.162, 356.280 
" />
<path d="M 652.429, 708.697 
	L 652.429, 356.280 
" />
<path d="M 654.697, 708.697 
	L 654.697, 356.280 
" />
<path d="M 656.965, 708.697 
	L 656.965, 356.280 
" />
<path d="M 659.232, 708.697 
	L 659.232, 356.280 
" />
<path d="M 661.500, 708.697 
	L 661.500, 356.280 
" />
<path d="M 663.768, 708.697 
	L 663.768, 356.280 
" />
<path d="M 666.036, 708.697 
	L 666.036, 356.280 
" />
<path d="M 668.303, 708.697 
	L 668.303, 356.280 
" />
<path d="M 670.571, 708.697 
	L 670.571, 356.280 
" />
<path d="M 672.839, 708.697 
	L 672.839, 356.280 
" />
<path d="M 675.106, 708.697 
	L 675.106, 356.280 
" />
<path d="M 677.374, 708.697 
	L 677.374, 356.280 
" />
<path d="M 681.201, 708.697 
	L 681.201, 388.524 
" />
<path d="M 683.610, 708.697 
	L 683.610, 388.524 
" />
<path d="M 686.020, 708.697 
	L 686.020, 388.524 
" />
<path d="M 688.429, 708.697 
	L 688.429, 388.524 
" />
<path d="M 690.839, 708.697 
	L 690.839, 388.524 
" />
<path d="M 693.248, 708.697 
	L 693.248, 388.524 
" />
<path d="M 695.658, 708.697 
	L 695.658, 388.524 
" />
<path d="M 698.067, 708.697 
	L 698.067, 388.524 
" />
<path d="M 700.476, 708.697 
	L 700.476, 388.524 
" />
<path d="M 702.886, 708.697 
	L 702.886, 388.524 
" />
<path d="M 705.295, 708.697 
	L 705.295, 388.524 
" />
<path d="M 707.705, 708.697 
	L 707.705, 388.524 
" />
<path d="M 710.114, 708.697 
	L 710.114, 388.524 
" />
<path d="M 712.524, 708.697 
	L 712.524, 388.524 
" />
<path d="M 714.933, 708.697 
	L 714.933, 388.524 
" />
<path d="M 717.343, 708.697 
	L 717.343, 388.524 
" />
<path d="M 719.752, 708.697 
	L 719.752, 388.524 
" />
<path d="M 722.162, 708.697 
	L 722.162, 388.524 
" />
<path d="M 724.571, 708.697 
	L 724.571, 388.524 
" />
<path d="M 726.980, 708.697 
	L 726.980, 388.524 
" />
<path d="M 729.390, 708.697 
	L 729.390, 388.524 
" />
<path d="M 731.799, 708.697 
	L 731.799, 388.524 
" />
<path d="M 734.209, 708.697 
	L 734.209, 388.524 
" />
<path d="M 736.618, 708.697 
	L 736.618, 388.524 
" />
<path d="M 739.028, 708.697 
	L 739.028, 388.524 
" />
<path d="M 741.437, 708.697 
	L 741.437, 388.524 
" />
<path d="M 743.847, 708.697 
	L 743.847, 388.524 
" />
<path d="M 746.256, 708.697 
	L 746.256, 388.524 
" />
<path d="M 748.665, 708.697 
	L 748.665, 388.524 
" />
<path d="M 751.075, 708.697 
	L 751.075, 388.524 
" />
<path d="M 753.484, 708.697 
	L 753.484, 388.524 
" />
<path d="M 755.894, 708.697 
	L 755.894, 388.524 
" />
<path d="M 758.303, 708.697 
	L 758.303, 388.524 
" />
<path d="M 760.713, 708.697 
	L 760.713, 388.524 
" />
<path d="M 763.122, 708.697 
	L 763.122, 388.524 
" />
<path d="M 765.532, 708.697 
	L 765.532, 388.524 
" />
<path d="M 767.941, 708.697 
	L 767.941, 388.524 
" />
<path d="M 770.351, 708.697 
	L 770.351, 388.524 
" />
<path d="M 772.760, 708.697 
	L 772.760, 388.524 
" />
<path d="M 775.169, 708.697 
	L 775.169, 388.524 
" />
<path d="M 777.579, 708.697 
	L 777.579, 388.524 
" />
<path d="M 779.988, 708.697 
	L 779.988, 388.524 
" />
<path d="M 782.398, 708.697 
	L 782.398, 388.524 
" />
<path d="M 784.807, 708.697 
	L 784.807, 388.524 
" />
<path d="M 787.217, 708.697 
	L 787.217, 388.524 
" />
<path d="M 789.626, 708.697 
	L 789.626, 388.524 
" />
<path d="M 792.036, 708.697 
	L 792.036, 388.524 
" />
<path d="M 794.445, 708.697 
	L 794.445, 388.524 
" />
<path d="M 796.854, 708.697 
	L 796.854, 388.524 
" />
<path d="M 799.264, 708.697 
	L 799.264, 388.524 
" />
<path d="M 801.673, 708.697 
	L 801.673, 388.524 
" />
<path d="M 804.083, 708.697 
	L 804.083, 388.524 
" />
<path d="M 806.492, 708.697 
	L 806.492, 388.524 
" />
<path d="M 808.902, 708.697 
	L 808.902, 388.524 
" />
<path d="M 811.311, 708.697 
	L 811.311, 388.524 
" />
<path d="M 813.721, 708.697 
	L 813.721, 388.524 
" />
<path d="M 816.130, 708.697 
	L 816.130, 388.524 
" />
<path d="M 820.807, 708.697 
	L 820.807, 480.721 
" />
<path d="M 822.791, 708.697 
	L 822.791, 480.721 
" />
<path d="M 824.776, 708.697 
	L 824.776, 480.721 
" />
<path d="M 826.760, 708.697 
	L 826.760, 480.721 
" />
<path d="M 828.744, 708.697 
	L 828.744, 480.721 
" />
<path d="M 830.728, 708.697 
	L 830.728, 480.721 
" />
<path d="M 832.713, 708.697 
	L 832.713, 480.721 
" />
<path d="M 834.697, 708.697 
	L 834.697, 480.721 
" />
<path d="M 836.681, 708.697 
	L 836.681, 480.721 
" />
<path d="M 838.665, 708.697 
	L 838.665, 480.721 
" />
<path d="M 840.650, 708.697 
	L 840.650, 480.721 
" />
<path d="M 842.634, 708.697 
	L 842.634, 480.721 
" />
<path d="M 844.618, 708.697 
	L 844.618, 480.721 
" />
<path d="M 846.602, 708.697 
	L 846.602, 480.721 
" />
<path d="M 848.587, 708.697 
	L 848.587, 480.721 
" />
<path d="M 850.571, 708.697 
	L 850.571, 480.721 
" />
<path d="M 852.555, 708.697 
	L 852.555, 480.721 
" />
<path d="M 854.540, 708.697 
	L 854.540, 480.721 
" />
<path d="M 856.524, 708.697 
	L 856.524, 480.721 
" />
<path d="M 858.508, 708.697 
	L 858.508, 480.721 
" />
<path d="M 860.492, 708.697 
	L 860.492, 480.721 
" />
<path d="M 862.477, 708.697 
	L 862.477, 480.721 
" />
<path d="M 864.461, 708.697 
	L 864.461, 480.721 
" />
<path d="M 866.445, 708.697 
	L 866.445, 480.721 
" />
<path d="M 868.429, 708.697 
	L 868.429, 480.721 
" />
<path d="M 870.414, 708.697 
	L 870.414, 480.721 
" />
<path d="M 872.398, 708.697 
	L 872.398, 480.721 
" />
<path d="M 874.382, 708.697 
	L 874.382, 480.721 
" />
<path d="M 876.366, 708.697 
	L 876.366, 480.721 
" />
<path d="M 878.351, 708.697 
	L 878.351, 480.721 
" />
<path d="M 880.335, 708.697 
	L 880.335, 480.721 
" />
<path d="M 882.319, 708.697 
	L 882.319, 480.721 
" />
<path d="M 884.303, 708.697 
	L 884.303, 480.721 
" />
<path d="M 886.288, 708.697 
	L 886.288, 480.721 
" />
<path d="M 888.272, 708.697 
	L 888.272, 480.721 
" />
<path d="M 890.256, 708.697 
	L 890.256, 480.721 
" />
<path d="M 892.240, 708.697 
	L 892.240, 480.721 
" />
<path d="M 894.225, 708.697 
	L 894.225, 480.721 
" />
<path d="M 896.209, 708.697 
	L 896.209, 480.721 
" />
<path d="M 898.193, 708.697 
	L 898.193, 480.721 
" />
<path d="M 900.177, 708.697 
	L 900.177, 480.721 
" />
<path d="M 902.162, 708.697 
	L 902.162, 480.721 
" />
<path d="M 904.146, 708.697 
	L 904.146, 480.721 
" />
<path d="M 906.130, 708.697 
	L 906.130, 480.721 
" />
<path d="M 908.114, 708.697 
	L 908.114, 480.721 
" />
<path d="M 910.099, 708.697 
	L 910.099, 480.721 
" />
<path d="M 912.083, 708.697 
	L 912.083, 480.721 
" />
<path d="M 914.067, 708.697 
	L 914.067, 480.721 
" />
<path d="M 916.051, 708.697 
	L 916.051, 480.721 
" />
<path d="M 918.036, 708.697 
	L 918.036, 480.721 
" />
<path d="M 920.020, 708.697 
	L 920.020, 480.721 
" />
<path d="M 922.004, 708.697 
	L 922.004, 480.721 
" />
<path d="M 923.988, 708.697 
	L 923.988, 480.721 
" />
<path d="M 925.973, 708.697 
	L 925.973, 480.721 
" />
<path d="M 927.957, 708.697 
	L 927.957, 480.721 
" />
<path d="M 929.941, 708.697 
	L 929.941, 480.721 
" />
<path d="M 931.925, 708.697 
	L 931.925, 480.721 
" />
<path d="M 933.910, 708.697 
	L 933.910, 480.721 
" />
<path d="M 935.894, 708.697 
	L 935.894, 480.721 
" />
<path d="M 937.878, 708.697 
	L 937.878, 480.721 
" />
<path d="M 939.862, 708.697 
	L 939.862, 480.721 
" />
<path d="M 941.847, 708.697 
	L 941.847, 480.721 
" />
<path d="M 943.831, 708.697 
	L 943.831, 480.721 
" />
<path d="M 945.815, 708.697 
	L 945.815, 480.721 
" />
<path d="M 947.799, 708.697 
	L 947.799, 480.721 
" />
<path d="M 949.784, 708.697 
	L 949.784, 480.721 
" />
<path d="M 951.768, 708.697 
	L 951.768, 480.721 
" />
<path d="M 953.752, 708.697 
	L 953.752, 480.721 
" />
<path d="M 955.736, 708.697 
	L 955.736, 480.721 
" />
<path d="M 957.721, 708.697 
	L 957.721, 480.721 
" />
<path d="M 959.705, 708.697 
	L 959.705, 480.721 
" />
<path d="M 961.689, 708.697 
	L 961.689, 480.721 
" />
<path d="M 963.673, 708.697 
	L 963.673, 480.721 
" />
<path d="M 965.658, 708.697 
	L 965.658, 480.721 
" />
<path d="M 967.642, 708.697 
	L 967.642, 480.721 
" />
<path d="M 969.626, 708.697 
	L 969.626, 480.721 
" />
<path d="M 971.610, 708.697 
	L 971.610, 480.721 
" />
<path d="M 973.595, 708.697 
	L 973.595, 480.721 
" />
<path d="M 975.579, 708.697 
	L 975.579, 480.721 
" />
<path d="M 977.563, 708.697 
	L 977.563, 480.721 
" />
<path d="M 979.547, 708.697 
	L 979.547, 480.721 
" />
<path d="M 981.532, 708.697 
	L 981.532, 480.721 
" />
<path d="M 983.516, 708.697 
	L 983.516, 480.721 
" />
<path d="M 985.500, 708.697 
	L 985.500, 480.721 
" />
<path d="M 987.484, 708.697 
	L 987.484, 480.721 
" />
<path d="M 989.469, 708.697 
	L 989.469, 480.721 
" />
<path d="M 991.453, 708.697 
	L 991.453, 480.721 
" />
<path d="M 993.437, 708.697 
	L 993.437, 480.721 
" />
<path d="M 995.421, 708.697 
	L 995.421, 480.721 
" />
<path d="M 997.406, 708.697 
	L 997.406, 480.721 
" />
<path d="M 999.390, 708.697 
	L 999.390, 480.721 
" />
<path d="M 1001.374, 708.697 
	L 1001.374, 480.721 
" />
<path d="M 1003.358, 708.697 
	L 1003.358, 480.721 
" />
<path d="M 1005.343, 708.697 
	L 1005.343, 480.721 
" />
<path d="M 1007.327, 708.697 
	L 1007.327, 480.721 
" />
<path d="M 1009.311, 708.697 
	L 1009.311, 480.721 
" />
<path d="M 1011.295, 708.697 
	L 1011.295, 480.721 
" />
<path d="M 1013.280, 708.697 
	L 1013.280, 480.721 
" />
<path d="M 1015.264, 708.697 
	L 1015.264, 480.721 
" />
<path d="M 1017.248, 708.697 
	L 1017.248, 480.721 
" />
<path d="M 1020.650, 708.697 
	L 1020.650, 555.555 
" />
<path d="M 1022.776, 708.697 
	L 1022.776, 555.555 
" />
<path d="M 1024.902, 708.697 
	L 1024.902, 555.555 
" />
<path d="M 1027.028, 708.697 
	L 1027.028, 555.555 
" />
<path d="M 1029.154, 708.697 
	L 1029.154, 555.555 
" />
<path d="M 1031.280, 708.697 
	L 1031.280, 555.555 
" />
<path d="M 1033.406, 708.697 
	L 1033.406, 555.555 
" />
<path d="M 1035.532, 708.697 
	L 1035.532, 555.555 
" />
<path d="M 1037.658, 708.697 
	L 1037.658, 555.555 
" />
<path d="M 1039.784, 708.697 
	L 1039.784, 555.555 
" />
<path d="M 1041.910, 708.697 
	L 1041.910, 555.555 
" />
<path d="M 1044.036, 708.697 
	L 1044.036, 555.555 
" />
<path d="M 1046.162, 708.697 
	L 1046.162, 555.555 
" />
<path d="M 1048.288, 708.697 
	L 1048.288, 555.555 
" />
<path d="M 1050.414, 708.697 
	L 1050.414, 555.555 
" />
<path d="M 1052.540, 708.697 
	L 1052.540, 555.555 
" />
<path d="M 1054.666, 708.697 
	L 1054.666, 555.555 
" />
<path d="M 1056.792, 708.697 
	L 1056.792, 555.555 
" />
<path d="M 1058.917, 708.697 
	L 1058.917, 555.555 
" />
<path d="M 1061.043, 708.697 
	L 1061.043, 555.555 
" />
<path d="M 1063.169, 708.697 
	L 1063.169, 555.555 
" />
<path d="M 1065.295, 708.697 
	L 1065.295, 555.555 
" />
<path d="M 1067.421, 708.697 
	L 1067.421, 555.555 
" />
<path d="M 1069.547, 708.697 
	L 1069.547, 555.555 
" />
<path d="M 1071.673, 708.697 
	L 1071.673, 555.555 
" />
<path d="M 1073.799, 708.697 
	L 1073.799, 555.555 
" />
<path d="M 1075.925, 708.697 
	L 1075.925, 555.555 
" />
<path d="M 1078.051, 708.697 
	L 1078.051, 555.555 
" />
<path d="M 1080.177, 708.697 
	L 1080.177, 555.555 
" />
<path d="M 1082.303, 708.697 
	L 1082.303, 555.555 
" />
<path d="M 1084.429, 708.697 
	L 1084.429, 555.555 
" />
<path d="M 1086.555, 708.697 
	L 1086.555, 555.555 
" />
<path d="M 1088.681, 708.697 
	L 1088.681, 555.555 
" />
<path d="M 1090.807, 708.697 
	L 1090.807, 555.555 
" />
<path d="M 1092.933, 708.697 
	L 1092.933, 555.555 
" />
<path d="M 1095.059, 708.697 
	L 1095.059, 555.555 
" />
<path d="M 1097.185, 708.697 
	L 1097.185, 555.555 
" />
<path d="M 1099.311, 708.697 
	L 1099.311, 555.555 
" />
<path d="M 1101.437, 708.697 
	L 1101.437, 555.555 
" />
<path d="M 1103.563, 708.697 
	L 1103.563, 555.555 
" />
<path d="M 1105.689, 708.697 
	L 1105.689, 555.555 
" />
<path d="M 1107.815, 708.697 
	L 1107.815, 555.555 
" />
<path d="M 0.035, 708.697 
	L 0.035, 0.035 
	L 708.697, 0.035 
	L 708.697, 708.697 
	L 0.035, 708.697 
" />
<path d="M 0.035, 708.697 
	L 0.035, 0.035 
" />
<path d="M 0.000, 708.697 
	L 0.000, 525.295 
	L 538.654, 525.295 
	L 538.654, 708.697 
	L 0.000, 708.697 
" />
<path d="M 0.000, 525.295 
	L 0.000, 0.035 
	L 538.654, 0.035 
	L 538.654, 525.295 
	L 0.000, 525.295 
" />
<path d="M 538.654, 525.295 
	L 538.654, 0.035 
	L 708.662, 0.035 
	L 708.662, 525.295 
	L 538.654, 525.295 
" />
<path d="M 538.654, 708.697 
	L 538.654, 525.295 
	L 708.662, 525.295 
	L 708.662, 708.697 
	L 538.654, 708.697 
" />
<path d="M 0.000, 708.697 
	L 0.000, 592.193 
	L 306.213, 592.193 
	L 306.213, 708.697 
	L 0.000, 708.697 
" />
<path d="M 0.000, 592.193 
	L 0.000, 525.295 
	L 306.213, 525.295 
	L 306.213, 592.193 
	L 0.000, 592.193 
" />
<path d="M 306.248, 592.193 
	L 306.248, 525.295 
	L 538.689, 525.295 
	L 538.689, 592.193 
	L 306.248, 592.193 
" />
<path d="M 306.248, 708.697 
	L 306.248, 592.193 
	L 538.689, 592.193 
	L 538.689, 708.697 
	L 306.248, 708.697 
" />
<path d="M 0.000, 525.331 
	L 0.000, 486.992 
	L 67.961, 486.992 
	L 67.961, 525.331 
	L 0.000, 525.331 
" />
<path d="M 0.000, 486.992 
	L 0.000, 0.071 
	L 67.961, 0.071 
	L 67.961, 486.992 
	L 0.000, 486.992 
" />
<path d="M 67.996, 486.992 
	L 67.996, 0.071 
	L 538.689, 0.071 
	L 538.689, 486.992 
	L 67.996, 486.992 
" />
<path d="M 67.996, 525.331 
	L 67.996, 486.992 
	L 538.689, 486.992 
	L 538.689, 525.331 
	L 67.996, 525.331 
" />
<path d="M 538.689, 525.331 
	L 538.689, 146.126 
	L 613.382, 146.126 
	L 613.382, 525.331 
	L 538.689, 525.331 
" />
<path d="M 538.689, 146.126 
	L 538.689, 0.071 
	L 613.382, 0.071 
	L 613.382, 146.126 
	L 538.689, 146.126 
" />
<path d="M 613.347, 146.126 
	L 613.347, 0.071 
	L 708.662, 0.071 
	L 708.662, 146.126 
	L 613.347, 146.126 
" />
<path d="M 613.347, 525.331 
	L 613.347, 146.126 
	L 708.662, 146.126 
	L 708.662, 525.331 
	L 613.347, 525.331 
" />
<path d="M 538.654, 708.732 
	L 538.654, 661.181 
	L 594.992, 661.181 
	L 594.992, 708.732 
	L 538.654, 708.732 
" />
<path d="M 538.654, 661.181 
	L 538.654, 525.331 
	L 594.992, 525.331 
	L 594.992, 661.181 
	L 538.654, 661.181 
" />
<path d="M 595.028, 661.181 
	L 595.028, 525.331 
	L 708.697, 525.331 
	L 708.697, 661.181 
	L 595.028, 661.181 
" />
<path d="M 595.028, 708.732 
	L 595.028, 661.181 
	L 708.697, 661.181 
	L 708.697, 708.732 
	L 595.028, 708.732 
" />
<path d="M 0.000, 708.697 
	L 0.000, 609.768 
	L 128.339, 609.768 
	L 128.339, 708.697 
	L 0.000, 708.697 
" />
<path d="M 0.000, 609.768 
	L 0.000, 592.193 
	L 128.339, 592.193 
	L 128.339, 609.768 
	L 0.000, 609.768 
" />
<path d="M 128.374, 609.768 
	L 128.374, 592.193 
	L 306.248, 592.193 
	L 306.248, 609.768 
	L 128.374, 609.768 
" />
<path d="M 128.374, 708.697 
	L 128.374, 609.768 
	L 306.248, 609.768 
	L 306.248, 708.697 
	L 128.374, 708.697 
" />
<path d="M 0.035, 592.193 
	L 0.035, 540.036 
	L 201.012, 540.036 
	L 201.012, 592.193 
	L 0.035, 592.193 
" />
<path d="M 0.035, 540.036 
	L 0.035, 525.295 
	L 201.012, 525.295 
	L 201.012, 540.036 
	L 0.035, 540.036 
" />
<path d="M 200.976, 540.036 
	L 200.976, 525.295 
	L 306.213, 525.295 
	L 306.213, 540.036 
	L 200.976, 540.036 
" />
<path d="M 200.976, 592.193 
	L 200.976, 540.036 
	L 306.213, 540.036 
	L 306.213, 592.193 
	L 200.976, 592.193 
" />
<path d="M 306.213, 592.193 
	L 306.213, 554.634 
	L 521.717, 554.634 
	L 521.717, 592.193 
	L 306.213, 592.193 
" />
<path d="M 306.213, 554.634 
	L 306.213, 525.295 
	L 521.717, 525.295 
	L 521.717, 554.634 
	L 306.213, 554.634 
" />
<path d="M 521.717, 554.634 
	L 521.717, 525.295 
	L 538.654, 525.295 
	L 538.654, 554.634 
	L 521.717, 554.634 
" />
<path d="M 521.717, 592.193 
	L 521.717, 554.634 
	L 538.654, 554.634 
	L 538.654, 592.193 
	L 521.717, 592.193 
" />
<path d="M 306.213, 708.732 
	L 306.213, 640.205 
	L 435.685, 640.205 
	L 435.685, 708.732 
	L 306.213, 708.732 
" />
<path d="M 306.213, 640.205 
	L 306.213, 592.228 
	L 435.685, 592.228 
	L 435.685, 640.205 
	L 306.213, 640.205 
" />
<path d="M 435.685, 640.205 
	L 435.685, 592.228 
	L 538.654, 592.228 
	L 538.654, 640.205 
	L 435.685, 640.205 
" />
<path d="M 435.685, 708.732 
	L 435.685, 640.205 
	L 538.654, 640.205 
	L 538.654, 708.732 
	L 435.685, 708.732 
" />
<path d="M 0.000, 525.331 
	L 0.000, 505.559 
	L 8.858, 505.559 
	L 8.858, 525.331 
	L 0.000, 525.331 
" />
<path d="M 0.000, 505.524 
	L 0.000, 486.957 
	L 8.858, 486.957 
	L 8.858, 505.524 
	L 0.000, 505.524 
" />
<path d="M 8.894, 505.524 
	L 8.894, 486.957 
	L 67.996, 486.957 
	L 67.996, 505.524 
	L 8.894, 505.524 
" />
<path d="M 8.894, 525.331 
	L 8.894, 505.559 
	L 67.996, 505.559 
	L 67.996, 525.331 
	L 8.894, 525.331 
" />
<path d="M 0.035, 486.992 
	L 0.035, 87.661 
	L 40.146, 87.661 
	L 40.146, 486.992 
	L 0.035, 486.992 
" />
<path d="M 0.035, 87.626 
	L 0.035, 0.035 
	L 40.146, 0.035 
	L 40.146, 87.626 
	L 0.035, 87.626 
" />
<path d="M 40.110, 87.626 
	L 40.110, 0.035 
	L 67.961, 0.035 
	L 67.961, 87.626 
	L 40.110, 87.626 
" />
<path d="M 40.110, 486.992 
	L 40.110, 87.661 
	L 67.961, 87.661 
	L 67.961, 486.992 
	L 40.110, 486.992 
" />
<path d="M 67.961, 486.992 
	L 67.961, 207.283 
	L 441.496, 207.283 
	L 441.496, 486.992 
	L 67.961, 486.992 
" />
<path d="M 67.961, 207.248 
	L 67.961, 0.035 
	L 441.496, 0.035 
	L 441.496, 207.248 
	L 67.961, 207.248 
" />
<path d="M 441.496, 207.248 
	L 441.496, 0.035 
	L 538.654, 0.035 
	L 538.654, 207.248 
	L 441.496, 207.248 
" />
<path d="M 441.496, 486.992 
	L 441.496, 207.283 
	L 538.654, 207.283 
	L 538.654, 486.992 
	L 441.496, 486.992 
" />
<path d="M 67.996, 525.331 
	L 67.996, 523.276 
	L 142.689, 523.276 
	L 142.689, 525.331 
	L 67.996, 525.331 
" />
<path d="M 67.996, 523.240 
	L 67.996, 486.957 
	L 142.689, 486.957 
	L 142.689, 523.240 
	L 67.996, 523.240 
" />
<path d="M 142.689, 523.240 
	L 142.689, 486.957 
	L 538.689, 486.957 
	L 538.689, 523.240 
	L 142.689, 523.240 
" />
<path d="M 142.689, 525.331 
	L 142.689, 523.276 
	L 538.689, 523.276 
	L 538.689, 525.331 
	L 142.689, 525.331 
" />
<path d="M 538.654, 525.295 
	L 538.654, 183.154 
	L 588.614, 183.154 
	L 588.614, 525.295 
	L 538.654, 525.295 
" />
<path d="M 538.654, 183.189 
	L 538.654, 146.126 
	L 588.614, 146.126 
	L 588.614, 183.189 
	L 538.654, 183.189 
" />
<path d="M 588.614, 183.189 
	L 588.614, 146.126 
	L 613.347, 146.126 
	L 613.347, 183.189 
	L 588.614, 183.189 
" />
<path d="M 588.614, 525.295 
	L 588.614, 183.154 
	L 613.347, 183.154 
	L 613.347, 525.295 
	L 588.614, 525.295 
" />
<path d="M 538.654, 146.126 
	L 538.654, 90.071 
	L 578.835, 90.071 
	L 578.835, 146.126 
	L 538.654, 146.126 
" />
<path d="M 538.654, 90.035 
	L 538.654, 0.035 
	L 578.835, 0.035 
	L 578.835, 90.035 
	L 538.654, 90.035 
" />
<path d="M 578.835, 90.035 
	L 578.835, 0.035 
	L 613.347, 0.035 
	L 613.347, 90.035 
	L 578.835, 90.035 
" />
<path d="M 578.835, 146.126 
	L 578.835, 90.071 
	L 613.347, 90.071 
	L 613.347, 146.126 
	L 578.835, 146.126 
" />
<path d="M 613.382, 146.091 
	L 613.382, 47.728 
	L 638.327, 47.728 
	L 638.327, 146.091 
	L 613.382, 146.091 
" />
<path d="M 613.382, 47.764 
	L 613.382, 0.071 
	L 638.327, 0.071 
	L 638.327, 47.764 
	L 613.382, 47.764 
" />
<path d="M 638.291, 47.764 
	L 638.291, 0.071 
	L 708.662, 0.071 
	L 708.662, 47.764 
	L 638.291, 47.764 
" />
<path d="M 638.291, 146.091 
	L 638.291, 47.728 
	L 708.662, 47.728 
	L 708.662, 146.091 
	L 638.291, 146.091 
" />
<path d="M 613.382, 525.331 
	L 613.382, 243.496 
	L 666.815, 243.496 
	L 666.815, 525.331 
	L 613.382, 525.331 
" />
<path d="M 613.382, 243.461 
	L 613.382, 146.091 
	L 666.815, 146.091 
	L 666.815, 243.461 
	L 613.382, 243.461 
" />
<path d="M 666.780, 243.461 
	L 666.780, 146.091 
	L 708.662, 146.091 
	L 708.662, 243.461 
	L 666.780, 243.461 
" />
<path d="M 666.780, 525.331 
	L 666.780, 243.496 
	L 708.662, 243.496 
	L 708.662, 525.331 
	L 666.780, 525.331 
" />
<path d="M 538.689, 708.697 
	L 538.689, 687.437 
	L 552.295, 687.437 
	L 552.295, 708.697 
	L 538.689, 708.697 
" />
<path d="M 538.689, 687.473 
	L 538.689, 661.181 
	L 552.295, 661.181 
	L 552.295, 687.473 
	L 538.689, 687.473 
" />
<path d="M 552.260, 687.473 
	L 552.260, 661.181 
	L 594.992, 661.181 
	L 594.992, 687.473 
	L 552.260, 687.473 
" />
<path d="M 552.260, 708.697 
	L 552.260, 687.437 
	L 594.992, 687.437 
	L 594.992, 708.697 
	L 552.260, 708.697 
" />
<path d="M 538.654, 661.146 
	L 538.654, 588.579 
	L 542.693, 588.579 
	L 542.693, 661.146 
	L 538.654, 661.146 
" />
<path d="M 538.654, 588.614 
	L 538.654, 525.331 
	L 542.693, 525.331 
	L 542.693, 588.614 
	L 538.654, 588.614 
" />
<path d="M 542.728, 588.614 
	L 542.728, 525.331 
	L 595.028, 525.331 
	L 595.028, 588.614 
	L 542.728, 588.614 
" />
<path d="M 542.728, 661.146 
	L 542.728, 588.579 
	L 595.028, 588.579 
	L 595.028, 661.146 
	L 542.728, 661.146 
" />
<path d="M 595.028, 661.146 
	L 595.028, 558.532 
	L 614.870, 558.532 
	L 614.870, 661.146 
	L 595.028, 661.146 
" />
<path d="M 595.028, 558.567 
	L 595.028, 525.331 
	L 614.870, 525.331 
	L 614.870, 558.567 
	L 595.028, 558.567 
" />
<path d="M 614.870, 558.567 
	L 614.870, 525.331 
	L 708.697, 525.331 
	L 708.697, 558.567 
	L 614.870, 558.567 
" />
<path d="M 614.870, 661.146 
	L 614.870, 558.532 
	L 708.697, 558.532 
	L 708.697, 661.146 
	L 614.870, 661.146 
" />
<path d="M 594.992, 708.697 
	L 594.992, 680.209 
	L 651.189, 680.209 
	L 651.189, 708.697 
	L 594.992, 708.697 
" />
<path d="M 594.992, 680.244 
	L 594.992, 661.181 
	L 651.189, 661.181 
	L 651.189, 680.244 
	L 594.992, 680.244 
" />
<path d="M 651.189, 680.244 
	L 651.189, 661.181 
	L 708.662, 661.181 
	L 708.662, 680.244 
	L 651.189, 680.244 
" />
<path d="M 651.189, 708.697 
	L 651.189, 680.209 
	L 708.662, 680.209 
	L 708.662, 708.697 
	L 651.189, 708.697 
" />
</g>
</svg>
