<?xml version="1.0" encoding="UTF-8" standalone="no" ?>
<svg width="100%" height="100%" viewBox="0 0 708.662 708.697" xmlns="http://www.w3.org/2000/svg"><g>
</g><g style="stroke:rgb(0,0,0); fill:none; stroke-width:1.000mm" >
</g><g style="stroke:rgb(0,255,0); fill:none; stroke-width:0.100mm" >
<path d="M 0.001, 708.696 
	L 0.000, 708.697 
	L 0.000, 0.035 
	L 708.662, 0.035 
	L 708.662, 708.697 
	L 0.000, 708.697 
" />
</g><g style="stroke:rgb(0,0,0); fill:none; stroke-width:0.100mm" >
<path d="M 0.001, 708.732 
	L 0.000, 708.732 
	L 0.000, 256.961 
	L 376.866, 256.961 
	L 376.866, 708.732 
	L 0.000, 708.732 
" />
</g><g style="stroke:rgb(255,0,0); fill:none; stroke-width:0.100mm" >
<path d="M 0.001, 256.960 
	L 0.000, 256.961 
	L 0.000, 0.071 
	L 376.866, 0.071 
	L 376.866, 256.961 
	L 0.000, 256.961 
" />
</g><g style="stroke:rgb(0,255,0); fill:none; stroke-width:0.100mm" >
<path d="M 376.867, 256.960 
	L 376.866, 256.961 
	L 376.866, 0.071 
	L 708.662, 0.071 
	L 708.662, 256.961 
	L 376.866, 256.961 
" />
</g><g style="stroke:rgb(0,0,255); fill:none; stroke-width:0.100mm" >
<path d="M 376.867, 708.732 
	L 376.866, 708.732 
	L 376.866, 256.961 
	L 708.662, 256.961 
	L 708.662, 708.732 
	L 376.866, 708.732 
" />
</g>
</svg>
