<?xml version="1.0" encoding="UTF-8" standalone="no" ?>
<svg width="100%" height="100%" viewBox="0 0 2222.717 1407.614" xmlns="http://www.w3.org/2000/svg"><g>
</g><g style="stroke:rgb(0,0,0); fill:none; stroke-width:1.000mm" >
</g><g style="stroke:rgb(0,0,0); fill:none; stroke-width:0.100mm" >
<path d="M 1132.795, 1407.614 
	L 1128.543, 1402.299 
" />
<path d="M 1128.543, 1401.236 
	L 1132.087, 1401.236 
	L 1132.795, 1400.173 
	L 1132.795, 1398.047 
	L 1132.087, 1396.984 
	L 1128.543, 1396.984 
" />
<path d="M 1129.961, 1391.670 
	L 1129.961, 1393.795 
	L 1130.669, 1394.858 
	L 1131.378, 1393.795 
	L 1131.378, 1392.732 
	L 1132.087, 1391.670 
	L 1132.795, 1392.732 
	L 1132.795, 1394.858 
" />
<path d="M 1131.378, 1388.481 
	L 1131.378, 1385.292 
	L 1130.669, 1384.229 
	L 1129.961, 1385.292 
	L 1129.961, 1387.418 
	L 1130.669, 1388.481 
	L 1132.087, 1388.481 
	L 1132.795, 1387.418 
	L 1132.795, 1384.229 
" />
<path d="M 1129.961, 1382.103 
	L 1132.795, 1382.103 
" />
<path d="M 1131.378, 1382.103 
	L 1129.961, 1379.977 
	L 1129.961, 1378.914 
" />
<path d="M 1129.961, 1372.536 
	L 1129.961, 1374.662 
	L 1130.669, 1375.725 
	L 1131.378, 1374.662 
	L 1131.378, 1373.599 
	L 1132.087, 1372.536 
	L 1132.795, 1373.599 
	L 1132.795, 1375.725 
" />
<path d="M 1132.795, 1369.347 
	L 1128.543, 1364.032 
" />
<path d="M 1132.795, 1362.969 
	L 1128.543, 1362.969 
" />
<path d="M 1132.795, 1359.780 
	L 1131.378, 1362.969 
	L 1129.961, 1359.780 
" />
<path d="M 1132.795, 1352.339 
	L 1132.795, 1355.528 
	L 1132.087, 1356.591 
	L 1130.669, 1356.591 
	L 1129.961, 1355.528 
	L 1129.961, 1353.402 
	L 1132.795, 1353.402 
" />
<path d="M 1132.795, 1349.150 
	L 1132.087, 1350.213 
	L 1130.669, 1350.213 
	L 1129.961, 1349.150 
	L 1129.961, 1348.087 
	L 1130.669, 1347.024 
	L 1132.087, 1347.024 
	L 1132.795, 1348.087 
	L 1132.795, 1349.150 
" />
<path d="M 1129.961, 1340.646 
	L 1129.961, 1342.772 
	L 1130.669, 1343.835 
	L 1131.378, 1342.772 
	L 1131.378, 1341.709 
	L 1132.087, 1340.646 
	L 1132.795, 1341.709 
	L 1132.795, 1343.835 
" />
<path d="M 1132.795, 1337.457 
	L 1128.543, 1332.142 
" />
<path d="M 1132.795, 1331.079 
	L 1128.543, 1331.079 
	L 1128.543, 1327.890 
	L 1129.252, 1326.827 
	L 1132.087, 1326.827 
	L 1132.795, 1327.890 
	L 1132.795, 1331.079 
" />
<path d="M 1132.795, 1323.638 
	L 1132.087, 1324.701 
	L 1130.669, 1324.701 
	L 1129.961, 1323.638 
	L 1129.961, 1322.575 
	L 1130.669, 1321.512 
	L 1132.087, 1321.512 
	L 1132.795, 1322.575 
	L 1132.795, 1323.638 
" />
<path d="M 1132.087, 1314.071 
	L 1132.795, 1315.134 
	L 1132.795, 1316.197 
	L 1132.087, 1317.260 
	L 1130.669, 1317.260 
	L 1129.961, 1316.197 
	L 1129.961, 1315.134 
	L 1130.669, 1314.071 
" />
<path d="M 1129.961, 1311.945 
	L 1132.087, 1311.945 
	L 1132.795, 1310.882 
	L 1132.795, 1308.756 
	L 1129.961, 1308.756 
" />
<path d="M 1132.795, 1305.567 
	L 1129.961, 1305.567 
" />
<path d="M 1130.669, 1305.567 
	L 1129.961, 1304.504 
	L 1130.669, 1303.441 
	L 1132.795, 1303.441 
" />
<path d="M 1130.669, 1303.441 
	L 1129.961, 1302.378 
	L 1130.669, 1301.315 
	L 1132.795, 1301.315 
" />
<path d="M 1131.378, 1299.189 
	L 1131.378, 1296.000 
	L 1130.669, 1294.937 
	L 1129.961, 1296.000 
	L 1129.961, 1298.126 
	L 1130.669, 1299.189 
	L 1132.087, 1299.189 
	L 1132.795, 1298.126 
	L 1132.795, 1294.937 
" />
<path d="M 1132.795, 1292.811 
	L 1129.961, 1292.811 
" />
<path d="M 1130.669, 1292.811 
	L 1129.961, 1291.748 
	L 1129.961, 1290.685 
	L 1130.669, 1289.622 
	L 1132.795, 1289.622 
" />
<path d="M 1128.543, 1285.370 
	L 1132.795, 1285.370 
	L 1132.795, 1283.244 
" />
<path d="M 1129.961, 1286.433 
	L 1129.961, 1283.244 
" />
<path d="M 1129.961, 1276.866 
	L 1129.961, 1278.992 
	L 1130.669, 1280.055 
	L 1131.378, 1278.992 
	L 1131.378, 1277.929 
	L 1132.087, 1276.866 
	L 1132.795, 1277.929 
	L 1132.795, 1280.055 
" />
<path d="M 1132.795, 1273.677 
	L 1128.543, 1268.362 
" />
<path d="M 1132.087, 1267.299 
	L 1132.795, 1266.236 
	L 1132.795, 1264.110 
	L 1132.087, 1263.047 
	L 1129.252, 1263.047 
	L 1128.543, 1264.110 
	L 1128.543, 1266.236 
	L 1129.252, 1267.299 
	L 1132.087, 1267.299 
" />
<path d="M 1132.087, 1260.921 
	L 1132.795, 1259.858 
	L 1132.795, 1257.732 
	L 1132.087, 1256.669 
	L 1129.252, 1256.669 
	L 1128.543, 1257.732 
	L 1128.543, 1259.858 
	L 1129.252, 1260.921 
	L 1132.087, 1260.921 
" />
<path d="M 1128.543, 1250.292 
	L 1128.543, 1254.544 
	L 1129.961, 1254.544 
	L 1129.961, 1251.355 
	L 1130.669, 1250.292 
	L 1132.087, 1250.292 
	L 1132.795, 1251.355 
	L 1132.795, 1253.481 
	L 1132.087, 1254.544 
" />
<path d="M 1133.504, 1248.166 
	L 1133.504, 1243.914 
" />
<path d="M 1134.213, 1241.788 
	L 1129.961, 1241.788 
	L 1129.961, 1239.662 
	L 1130.669, 1238.599 
	L 1132.087, 1238.599 
	L 1132.795, 1239.662 
	L 1132.795, 1241.788 
" />
<path d="M 1128.543, 1234.347 
	L 1128.543, 1233.284 
	L 1132.795, 1233.284 
" />
<path d="M 1132.795, 1234.347 
	L 1132.795, 1232.221 
" />
<path d="M 1132.795, 1227.969 
	L 1132.087, 1229.032 
	L 1130.669, 1229.032 
	L 1129.961, 1227.969 
	L 1129.961, 1226.906 
	L 1130.669, 1225.843 
	L 1132.087, 1225.843 
	L 1132.795, 1226.906 
	L 1132.795, 1227.969 
" />
<path d="M 1128.543, 1221.591 
	L 1132.795, 1221.591 
	L 1132.795, 1219.465 
" />
<path d="M 1129.961, 1222.654 
	L 1129.961, 1219.465 
" />
<path d="M 1128.543, 1215.213 
	L 1132.795, 1215.213 
	L 1132.795, 1213.087 
" />
<path d="M 1129.961, 1216.276 
	L 1129.961, 1213.087 
" />
<path d="M 1131.378, 1209.898 
	L 1131.378, 1206.709 
	L 1130.669, 1205.646 
	L 1129.961, 1206.709 
	L 1129.961, 1208.835 
	L 1130.669, 1209.898 
	L 1132.087, 1209.898 
	L 1132.795, 1208.835 
	L 1132.795, 1205.646 
" />
<path d="M 1129.961, 1203.520 
	L 1132.795, 1203.520 
" />
<path d="M 1131.378, 1203.520 
	L 1129.961, 1201.394 
	L 1129.961, 1200.331 
" />
<path d="M 1132.795, 1197.142 
	L 1128.543, 1191.827 
" />
<path d="M 1132.795, 1189.701 
	L 1132.087, 1190.764 
	L 1130.669, 1190.764 
	L 1129.961, 1189.701 
	L 1129.961, 1188.638 
	L 1130.669, 1187.575 
	L 1132.087, 1187.575 
	L 1132.795, 1188.638 
	L 1132.795, 1189.701 
" />
<path d="M 1129.961, 1184.386 
	L 1132.087, 1184.386 
	L 1132.795, 1183.323 
	L 1132.795, 1181.197 
	L 1129.961, 1181.197 
" />
<path d="M 1128.543, 1176.945 
	L 1132.795, 1176.945 
	L 1132.795, 1174.819 
" />
<path d="M 1129.961, 1178.008 
	L 1129.961, 1174.819 
" />
<path d="M 1134.213, 1171.630 
	L 1129.961, 1171.630 
	L 1129.961, 1169.504 
	L 1130.669, 1168.441 
	L 1132.087, 1168.441 
	L 1132.795, 1169.504 
	L 1132.795, 1171.630 
" />
<path d="M 1129.961, 1165.252 
	L 1132.087, 1165.252 
	L 1132.795, 1164.189 
	L 1132.795, 1162.063 
	L 1129.961, 1162.063 
" />
<path d="M 1128.543, 1157.811 
	L 1132.795, 1157.811 
	L 1132.795, 1155.685 
" />
<path d="M 1129.961, 1158.874 
	L 1129.961, 1155.685 
" />
<path d="M 1132.795, 1152.496 
	L 1128.543, 1147.181 
" />
<path d="M 1128.543, 1145.055 
	L 1132.795, 1145.055 
	L 1132.795, 1142.929 
" />
<path d="M 1129.961, 1146.118 
	L 1129.961, 1142.929 
" />
<path d="M 1128.543, 1137.614 
	L 1129.252, 1137.614 
" />
<path d="M 1129.961, 1138.677 
	L 1129.961, 1137.614 
	L 1132.795, 1137.614 
" />
<path d="M 1132.795, 1138.677 
	L 1132.795, 1136.551 
" />
<path d="M 1128.543, 1132.299 
	L 1128.543, 1131.236 
	L 1132.795, 1131.236 
" />
<path d="M 1132.795, 1132.299 
	L 1132.795, 1130.173 
" />
<path d="M 1128.543, 1125.921 
	L 1132.795, 1125.921 
	L 1132.795, 1123.795 
" />
<path d="M 1129.961, 1126.984 
	L 1129.961, 1123.795 
" />
<path d="M 1131.378, 1120.606 
	L 1131.378, 1117.417 
	L 1130.669, 1116.355 
	L 1129.961, 1117.417 
	L 1129.961, 1119.543 
	L 1130.669, 1120.606 
	L 1132.087, 1120.606 
	L 1132.795, 1119.543 
	L 1132.795, 1116.355 
" />
<path d="M 1128.543, 1111.040 
	L 1132.795, 1111.040 
	L 1132.795, 1113.166 
	L 1132.087, 1114.229 
	L 1130.669, 1114.229 
	L 1129.961, 1113.166 
	L 1129.961, 1111.040 
" />
<path d="M 1132.795, 1111.040 
	L 1132.795, 1109.977 
" />
<path d="M 1129.961, 1104.662 
	L 1129.961, 1106.788 
	L 1130.669, 1107.851 
	L 1131.378, 1106.788 
	L 1131.378, 1105.725 
	L 1132.087, 1104.662 
	L 1132.795, 1105.725 
	L 1132.795, 1107.851 
" />
<path d="M 1132.795, 1098.284 
	L 1132.795, 1100.410 
	L 1132.087, 1101.473 
	L 1130.669, 1101.473 
	L 1129.961, 1100.410 
	L 1129.961, 1098.284 
	L 1134.213, 1098.284 
" />
<path d="M 1129.961, 1095.095 
	L 1132.087, 1095.095 
	L 1132.795, 1094.032 
	L 1132.795, 1091.906 
	L 1129.961, 1091.906 
" />
<path d="M 1132.795, 1084.465 
	L 1132.795, 1087.654 
	L 1132.087, 1088.717 
	L 1130.669, 1088.717 
	L 1129.961, 1087.654 
	L 1129.961, 1085.528 
	L 1132.795, 1085.528 
" />
<path d="M 1129.961, 1082.339 
	L 1132.795, 1082.339 
" />
<path d="M 1131.378, 1082.339 
	L 1129.961, 1080.213 
	L 1129.961, 1079.150 
" />
<path d="M 1131.378, 1075.961 
	L 1131.378, 1072.772 
	L 1130.669, 1071.709 
	L 1129.961, 1072.772 
	L 1129.961, 1074.898 
	L 1130.669, 1075.961 
	L 1132.087, 1075.961 
	L 1132.795, 1074.898 
	L 1132.795, 1071.709 
" />
<path d="M 1129.961, 1066.394 
	L 1129.961, 1068.520 
	L 1130.669, 1069.583 
	L 1131.378, 1068.520 
	L 1131.378, 1067.457 
	L 1132.087, 1066.394 
	L 1132.795, 1067.457 
	L 1132.795, 1069.583 
" />
<path d="M 1133.504, 1063.205 
	L 1133.504, 1058.953 
" />
<path d="M 1132.087, 1056.827 
	L 1132.795, 1055.764 
	L 1132.795, 1053.638 
	L 1132.087, 1052.575 
	L 1129.252, 1052.575 
	L 1128.543, 1053.638 
	L 1128.543, 1055.764 
	L 1129.252, 1056.827 
	L 1132.087, 1056.827 
" />
<path d="M 1128.543, 1046.197 
	L 1128.543, 1050.449 
	L 1129.961, 1050.449 
	L 1129.961, 1047.260 
	L 1130.669, 1046.197 
	L 1132.087, 1046.197 
	L 1132.795, 1047.260 
	L 1132.795, 1049.386 
	L 1132.087, 1050.449 
" />
<path d="M 1133.504, 1044.071 
	L 1133.504, 1039.819 
" />
<path d="M 1132.795, 1036.630 
	L 1132.795, 1034.504 
" />
<path d="M 1132.795, 1035.567 
	L 1128.543, 1035.567 
	L 1129.252, 1036.630 
" />
<path d="M 1128.543, 1031.315 
	L 1128.543, 1027.063 
	L 1129.252, 1027.063 
	L 1131.378, 1031.315 
	L 1132.795, 1031.315 
" />
<path d="M 1133.504, 1024.937 
	L 1133.504, 1020.685 
" />
<path d="M 1129.252, 1018.559 
	L 1128.543, 1017.496 
	L 1128.543, 1015.370 
	L 1129.252, 1014.307 
	L 1129.961, 1014.307 
	L 1132.087, 1018.559 
	L 1132.795, 1018.559 
	L 1132.795, 1014.307 
" />
<path d="M 1132.087, 1012.181 
	L 1132.795, 1011.118 
	L 1132.795, 1008.992 
	L 1132.087, 1007.929 
	L 1129.252, 1007.929 
	L 1128.543, 1008.992 
	L 1128.543, 1011.118 
	L 1129.252, 1012.181 
	L 1132.087, 1012.181 
" />
<path d="M 1132.795, 1004.740 
	L 1132.795, 1002.614 
" />
<path d="M 1132.795, 1003.677 
	L 1128.543, 1003.677 
	L 1129.252, 1004.740 
" />
<path d="M 1132.795, 998.362 
	L 1132.795, 997.299 
	L 1131.378, 995.173 
	L 1129.252, 995.173 
	L 1128.543, 996.236 
	L 1128.543, 998.362 
	L 1129.252, 999.425 
	L 1129.961, 999.425 
	L 1130.669, 998.362 
	L 1130.669, 995.173 
" />
<path d="M 1133.504, 993.047 
	L 1133.504, 988.795 
" />
<path d="M 1132.795, 985.606 
	L 1132.795, 983.480 
" />
<path d="M 1132.795, 984.543 
	L 1128.543, 984.543 
	L 1129.252, 985.606 
" />
<path d="M 1128.543, 980.291 
	L 1128.543, 976.040 
	L 1129.252, 976.040 
	L 1131.378, 980.291 
	L 1132.795, 980.291 
" />
<path d="M 1128.543, 969.662 
	L 1128.543, 973.914 
	L 1129.961, 973.914 
	L 1129.961, 970.725 
	L 1130.669, 969.662 
	L 1132.087, 969.662 
	L 1132.795, 970.725 
	L 1132.795, 972.851 
	L 1132.087, 973.914 
" />
<path d="M 1128.543, 963.284 
	L 1128.543, 967.536 
	L 1129.961, 967.536 
	L 1129.961, 964.347 
	L 1130.669, 963.284 
	L 1132.087, 963.284 
	L 1132.795, 964.347 
	L 1132.795, 966.473 
	L 1132.087, 967.536 
" />
<path d="M 1129.252, 935.646 
	L 1128.543, 934.583 
	L 1128.543, 932.457 
	L 1129.252, 931.394 
	L 1129.961, 931.394 
	L 1132.087, 935.646 
	L 1132.795, 935.646 
	L 1132.795, 931.394 
" />
<path d="M 1132.087, 929.268 
	L 1132.795, 928.205 
	L 1132.795, 926.079 
	L 1132.087, 925.016 
	L 1129.252, 925.016 
	L 1128.543, 926.079 
	L 1128.543, 928.205 
	L 1129.252, 929.268 
	L 1132.087, 929.268 
" />
<path d="M 1132.795, 921.827 
	L 1132.795, 919.701 
" />
<path d="M 1132.795, 920.764 
	L 1128.543, 920.764 
	L 1129.252, 921.827 
" />
<path d="M 1132.795, 915.449 
	L 1132.795, 914.386 
	L 1131.378, 912.260 
	L 1129.252, 912.260 
	L 1128.543, 913.323 
	L 1128.543, 915.449 
	L 1129.252, 916.512 
	L 1129.961, 916.512 
	L 1130.669, 915.449 
	L 1130.669, 912.260 
" />
<path d="M 1130.669, 910.134 
	L 1130.669, 905.882 
" />
<path d="M 1132.087, 903.756 
	L 1132.795, 902.693 
	L 1132.795, 900.567 
	L 1132.087, 899.504 
	L 1129.252, 899.504 
	L 1128.543, 900.567 
	L 1128.543, 902.693 
	L 1129.252, 903.756 
	L 1132.087, 903.756 
" />
<path d="M 1128.543, 893.126 
	L 1128.543, 897.378 
	L 1129.961, 897.378 
	L 1129.961, 894.189 
	L 1130.669, 893.126 
	L 1132.087, 893.126 
	L 1132.795, 894.189 
	L 1132.795, 896.315 
	L 1132.087, 897.378 
" />
<path d="M 1130.669, 891.000 
	L 1130.669, 886.748 
" />
<path d="M 1132.795, 883.559 
	L 1132.795, 881.433 
" />
<path d="M 1132.795, 882.496 
	L 1128.543, 882.496 
	L 1129.252, 883.559 
" />
<path d="M 1128.543, 878.244 
	L 1128.543, 873.992 
	L 1129.252, 873.992 
	L 1131.378, 878.244 
	L 1132.795, 878.244 
" />
<path d="M 1132.795, 864.425 
	L 1132.795, 862.299 
" />
<path d="M 1132.795, 863.362 
	L 1128.543, 863.362 
	L 1129.252, 864.425 
" />
<path d="M 1128.543, 859.110 
	L 1128.543, 854.858 
	L 1129.252, 854.858 
	L 1131.378, 859.110 
	L 1132.795, 859.110 
" />
<path d="M 1130.669, 851.669 
	L 1129.961, 851.669 
	L 1129.961, 850.606 
	L 1130.669, 850.606 
	L 1130.669, 851.669 
" />
<path d="M 1132.087, 851.669 
	L 1132.087, 850.606 
	L 1132.795, 850.606 
	L 1132.795, 851.669 
	L 1132.087, 851.669 
" />
<path d="M 1128.543, 842.102 
	L 1128.543, 846.354 
	L 1129.961, 846.354 
	L 1129.961, 843.165 
	L 1130.669, 842.102 
	L 1132.087, 842.102 
	L 1132.795, 843.165 
	L 1132.795, 845.291 
	L 1132.087, 846.354 
" />
<path d="M 1128.543, 835.725 
	L 1128.543, 839.977 
	L 1129.961, 839.977 
	L 1129.961, 836.788 
	L 1130.669, 835.725 
	L 1132.087, 835.725 
	L 1132.795, 836.788 
	L 1132.795, 838.914 
	L 1132.087, 839.977 
" />
<path d="M 3.544, 1405.275 
	L 3.543, 1405.276 
	L 3.543, 1403.079 
" />
<path d="M 3.544, 1406.126 
	L 3.543, 1406.126 
	L 3.543, 1405.276 
" />
<path d="M 5.174, 1407.614 
	L 5.173, 1407.614 
	L 5.173, 1406.126 
" />
<path d="M 5.174, 1407.614 
	L 5.173, 1407.614 
" />
<path d="M 5.457, 1396.133 
	L 5.457, 1396.134 
	L 5.457, 1389.614 
" />
<path d="M 5.457, 1401.803 
	L 5.457, 1401.803 
	L 5.457, 1396.134 
" />
<path d="M 4.465, 1402.582 
	L 4.465, 1402.583 
	L 4.465, 1401.803 
" />
<path d="M 4.465, 1403.078 
	L 4.465, 1403.079 
	L 4.465, 1402.583 
" />
<path d="M 17.363, 1397.055 
	L 17.362, 1397.055 
	L 17.362, 1389.614 
" />
<path d="M 17.363, 1399.464 
	L 17.362, 1399.465 
	L 17.362, 1397.055 
" />
<path d="M 15.450, 1403.078 
	L 15.449, 1403.079 
	L 15.449, 1399.465 
" />
<path d="M 15.450, 1403.078 
	L 15.449, 1403.079 
" />
<path d="M 2.268, 1090.062 
	L 2.268, 1090.063 
	L 2.268, 1087.795 
" />
<path d="M 0.639, 1083.897 
	L 0.638, 1083.898 
	L 0.638, 1072.134 
" />
<path d="M 0.639, 1087.795 
	L 0.638, 1087.795 
	L 0.638, 1083.898 
" />
<path d="M 9.284, 1081.984 
	L 9.283, 1081.984 
	L 9.283, 1072.134 
" />
<path d="M 14.599, 1081.984 
	L 14.598, 1081.984 
	L 14.598, 1072.134 
" />
<path d="M 9.284, 1087.795 
	L 9.283, 1087.795 
	L 9.283, 1081.984 
" />
<path d="M 13.890, 1087.795 
	L 13.890, 1087.795 
	L 13.890, 1081.984 
" />
<path d="M 18.497, 1087.795 
	L 18.496, 1087.795 
	L 18.496, 1081.984 
" />
<path d="M 7.016, 1091.480 
	L 7.016, 1091.480 
" />
<path d="M 7.016, 1091.480 
	L 7.016, 1091.480 
	L 7.016, 1087.795 
" />
<path d="M 12.686, 1091.480 
	L 12.685, 1091.480 
	L 12.685, 1087.795 
" />
<path d="M 16.938, 1091.480 
	L 16.937, 1091.480 
	L 16.937, 1087.795 
" />
<path d="M 12.686, 1091.480 
	L 12.685, 1091.480 
" />
<path d="M 18.355, 1091.480 
	L 18.354, 1091.480 
" />
<path d="M 1.135, 1102.039 
	L 1.134, 1102.040 
	L 1.134, 1101.189 
" />
<path d="M 1.135, 1101.188 
	L 1.134, 1101.189 
	L 1.134, 1091.480 
" />
<path d="M 8.717, 1101.188 
	L 8.717, 1101.189 
	L 8.717, 1091.480 
" />
<path d="M 14.032, 1101.188 
	L 14.031, 1101.189 
	L 14.031, 1091.480 
" />
<path d="M 8.717, 1102.039 
	L 8.717, 1102.040 
	L 8.717, 1101.189 
" />
<path d="M 13.324, 1102.039 
	L 13.323, 1102.040 
	L 13.323, 1101.189 
" />
<path d="M 17.930, 1102.039 
	L 17.929, 1102.040 
	L 17.929, 1101.189 
" />
<path d="M 4.536, 1103.173 
	L 4.535, 1103.173 
	L 4.535, 1102.040 
" />
<path d="M 10.205, 1103.173 
	L 10.205, 1103.173 
	L 10.205, 1102.040 
" />
<path d="M 15.875, 1103.173 
	L 15.874, 1103.173 
	L 15.874, 1102.040 
" />
<path d="M 4.536, 1103.527 
	L 4.535, 1103.528 
	L 4.535, 1103.173 
" />
<path d="M 9.851, 1103.527 
	L 9.850, 1103.528 
	L 9.850, 1103.173 
" />
<path d="M 15.166, 1103.527 
	L 15.165, 1103.528 
	L 15.165, 1103.173 
" />
<path d="M 0.497, 819.566 
	L 0.496, 819.567 
	L 0.496, 814.819 
" />
<path d="M 8.788, 802.913 
	L 8.787, 802.914 
	L 8.787, 791.008 
" />
<path d="M 8.788, 814.818 
	L 8.787, 814.819 
	L 8.787, 802.914 
" />
<path d="M 9.284, 819.495 
	L 9.283, 819.496 
	L 9.283, 814.819 
" />
<path d="M 9.284, 819.779 
	L 9.283, 819.780 
	L 9.283, 819.496 
" />
<path d="M 0.851, 823.818 
	L 0.850, 823.819 
	L 0.850, 823.323 
" />
<path d="M 8.292, 821.409 
	L 8.291, 821.410 
	L 8.291, 819.780 
" />
<path d="M 8.292, 821.905 
	L 8.291, 821.906 
	L 8.291, 821.410 
" />
<path d="M 8.221, 823.818 
	L 8.220, 823.819 
	L 8.220, 821.906 
" />
<path d="M 8.221, 823.818 
	L 8.220, 823.819 
" />
<path d="M 5.953, 360.779 
	L 5.953, 360.780 
	L 5.953, 360.425 
" />
<path d="M 2.410, 357.236 
	L 2.409, 357.236 
	L 2.409, 352.772 
" />
<path d="M 2.410, 357.236 
	L 2.409, 357.236 
" />
<path d="M 3.261, 357.306 
	L 3.260, 357.307 
	L 3.260, 357.236 
" />
<path d="M 3.261, 357.377 
	L 3.260, 357.378 
	L 3.260, 357.307 
" />
<path d="M 13.324, 357.377 
	L 13.323, 357.378 
	L 13.323, 356.740 
" />
<path d="M 12.827, 356.031 
	L 12.827, 356.032 
	L 12.827, 355.535 
" />
<path d="M 18.072, 356.031 
	L 18.071, 356.032 
	L 18.071, 355.323 
" />
<path d="M 18.072, 355.322 
	L 18.071, 355.323 
	L 18.071, 352.772 
" />
<path d="M 23.953, 355.322 
	L 23.953, 355.323 
	L 23.953, 352.772 
" />
<path d="M 23.953, 356.031 
	L 23.953, 356.032 
	L 23.953, 355.323 
" />
<path d="M 22.182, 356.881 
	L 22.181, 356.882 
	L 22.181, 356.032 
" />
<path d="M 26.788, 356.881 
	L 26.787, 356.882 
	L 26.787, 356.032 
" />
<path d="M 22.182, 357.377 
	L 22.181, 357.378 
	L 22.181, 356.882 
" />
<path d="M 26.434, 357.377 
	L 26.433, 357.378 
	L 26.433, 356.882 
" />
<path d="M 11.268, 360.708 
	L 11.268, 360.709 
	L 11.268, 359.646 
" />
<path d="M 11.268, 360.779 
	L 11.268, 360.780 
	L 11.268, 360.709 
" />
<path d="M 11.481, 358.582 
	L 11.480, 358.583 
	L 11.480, 357.378 
" />
<path d="M 11.481, 359.645 
	L 11.480, 359.646 
	L 11.480, 358.583 
" />
<path d="M 21.190, 359.645 
	L 21.189, 359.646 
	L 21.189, 357.378 
" />
<path d="M 25.725, 359.645 
	L 25.724, 359.646 
	L 25.724, 357.378 
" />
<path d="M 21.190, 359.645 
	L 21.189, 359.646 
" />
<path d="M 26.859, 359.645 
	L 26.858, 359.646 
" />
<path d="M 21.048, 360.566 
	L 21.047, 360.567 
	L 21.047, 359.646 
" />
<path d="M 25.300, 360.566 
	L 25.299, 360.567 
	L 25.299, 359.646 
" />
<path d="M 29.552, 360.566 
	L 29.551, 360.567 
	L 29.551, 359.646 
" />
<path d="M 21.048, 360.779 
	L 21.047, 360.780 
	L 21.047, 360.567 
" />
<path d="M 26.363, 360.779 
	L 26.362, 360.780 
	L 26.362, 360.567 
" />
<path d="M 0.001, 348.306 
	L 0.000, 348.307 
	L 0.000, 337.323 
" />
<path d="M 0.001, 350.432 
	L 0.000, 350.433 
	L 0.000, 348.307 
" />
<path d="M 8.363, 355.535 
	L 8.362, 355.535 
	L 8.362, 353.055 
" />
<path d="M 13.324, 346.747 
	L 13.323, 346.748 
	L 13.323, 337.323 
" />
<path d="M 13.324, 355.535 
	L 13.323, 355.535 
	L 13.323, 346.748 
" />
<path d="M 17.292, 360.921 
	L 17.291, 360.921 
	L 17.291, 355.535 
" />
<path d="M 12.827, 362.338 
	L 12.827, 362.339 
	L 12.827, 360.921 
" />
<path d="M 17.363, 362.338 
	L 17.362, 362.339 
	L 17.362, 360.921 
" />
<path d="M 12.827, 362.621 
	L 12.827, 362.622 
	L 12.827, 362.339 
" />
<path d="M 12.261, 363.614 
	L 12.260, 363.614 
	L 12.260, 362.622 
" />
<path d="M 12.261, 363.614 
	L 12.260, 363.614 
" />
<path d="M 231.166, 1148.811 
	L 231.165, 1148.811 
	L 231.165, 1148.669 
" />
<path d="M 231.166, 1148.881 
	L 231.165, 1148.882 
	L 231.165, 1148.811 
" />
<path d="M 230.174, 1148.881 
	L 230.173, 1148.882 
" />
<path d="M 230.174, 1148.881 
	L 230.173, 1148.882 
" />
<path d="M 229.749, 1148.598 
	L 229.748, 1148.599 
	L 229.748, 1148.528 
" />
<path d="M 229.749, 1148.669 
	L 229.748, 1148.669 
	L 229.748, 1148.599 
" />
<path d="M 238.465, 1148.598 
	L 238.465, 1148.599 
	L 238.465, 1148.528 
" />
<path d="M 243.426, 1148.385 
	L 243.425, 1148.386 
	L 243.425, 1148.244 
" />
<path d="M 248.245, 1148.385 
	L 248.244, 1148.386 
	L 248.244, 1148.244 
" />
<path d="M 252.851, 1148.385 
	L 252.850, 1148.386 
	L 252.850, 1148.244 
" />
<path d="M 248.245, 1148.527 
	L 248.244, 1148.528 
	L 248.244, 1148.386 
" />
<path d="M 252.851, 1148.527 
	L 252.850, 1148.528 
	L 252.850, 1148.386 
" />
<path d="M 247.040, 1148.598 
	L 247.039, 1148.599 
	L 247.039, 1148.528 
" />
<path d="M 251.576, 1148.598 
	L 251.575, 1148.599 
	L 251.575, 1148.528 
" />
<path d="M 247.040, 1148.669 
	L 247.039, 1148.669 
	L 247.039, 1148.599 
" />
<path d="M 252.709, 1148.669 
	L 252.709, 1148.669 
	L 252.709, 1148.599 
" />
<path d="M 238.749, 1148.881 
	L 238.748, 1148.882 
" />
<path d="M 238.749, 1148.881 
	L 238.748, 1148.882 
" />
<path d="M 238.678, 1148.881 
	L 238.677, 1148.882 
	L 238.677, 1148.669 
" />
<path d="M 238.678, 1148.881 
	L 238.677, 1148.882 
" />
<path d="M 247.678, 1148.881 
	L 247.677, 1148.882 
	L 247.677, 1148.669 
" />
<path d="M 252.213, 1148.881 
	L 252.213, 1148.882 
	L 252.213, 1148.669 
" />
<path d="M 247.678, 1148.881 
	L 247.677, 1148.882 
" />
<path d="M 252.213, 1148.881 
	L 252.213, 1148.882 
" />
<path d="M 247.820, 1148.881 
	L 247.819, 1148.882 
" />
<path d="M 252.426, 1148.881 
	L 252.425, 1148.882 
" />
<path d="M 247.820, 1148.881 
	L 247.819, 1148.882 
" />
<path d="M 252.426, 1148.881 
	L 252.425, 1148.882 
" />
<path d="M 204.946, 454.535 
	L 204.945, 454.536 
	L 204.945, 452.764 
" />
<path d="M 204.946, 454.747 
	L 204.945, 454.748 
	L 204.945, 454.536 
" />
<path d="M 206.930, 454.960 
	L 206.929, 454.961 
	L 206.929, 454.890 
" />
<path d="M 205.725, 454.960 
	L 205.724, 454.961 
" />
<path d="M 205.725, 454.960 
	L 205.724, 454.961 
" />
<path d="M 358.654, 551.621 
	L 358.654, 551.622 
	L 358.654, 549.921 
" />
<path d="M 358.654, 551.692 
	L 358.654, 551.693 
	L 358.654, 551.622 
" />
<path d="M 358.513, 559.062 
	L 358.512, 559.063 
	L 358.512, 556.937 
" />
<path d="M 358.513, 559.204 
	L 358.512, 559.205 
	L 358.512, 559.063 
" />
<path d="M 573.733, 1397.196 
	L 573.732, 1397.197 
	L 573.732, 1390.040 
" />
<path d="M 573.733, 1399.960 
	L 573.732, 1399.961 
	L 573.732, 1397.197 
" />
<path d="M 572.954, 1401.165 
	L 572.953, 1401.166 
	L 572.953, 1399.961 
" />
<path d="M 572.954, 1401.732 
	L 572.953, 1401.732 
	L 572.953, 1401.166 
" />
<path d="M 570.048, 1406.692 
	L 570.047, 1406.693 
	L 570.047, 1401.732 
" />
<path d="M 574.583, 1406.692 
	L 574.583, 1406.693 
	L 574.583, 1401.732 
" />
<path d="M 570.048, 1406.976 
	L 570.047, 1406.977 
	L 570.047, 1406.693 
" />
<path d="M 568.560, 1407.614 
	L 568.559, 1407.614 
	L 568.559, 1406.977 
" />
<path d="M 573.804, 1407.614 
	L 573.803, 1407.614 
	L 573.803, 1406.977 
" />
<path d="M 573.804, 1407.614 
	L 573.803, 1407.614 
" />
<path d="M 374.174, 728.929 
	L 374.173, 728.929 
	L 374.173, 728.079 
" />
<path d="M 374.174, 728.999 
	L 374.173, 729.000 
	L 374.173, 728.929 
" />
<path d="M 382.182, 728.858 
	L 382.181, 728.858 
	L 382.181, 728.079 
" />
<path d="M 382.182, 729.354 
	L 382.181, 729.354 
	L 382.181, 728.858 
" />
<path d="M 386.434, 729.354 
	L 386.433, 729.354 
	L 386.433, 728.858 
" />
<path d="M 385.087, 729.425 
	L 385.087, 729.425 
	L 385.087, 729.354 
" />
<path d="M 385.087, 729.425 
	L 385.087, 729.425 
" />
<path d="M 386.292, 730.417 
	L 386.291, 730.417 
	L 386.291, 729.992 
" />
<path d="M 386.292, 730.417 
	L 386.291, 730.417 
" />
<path d="M 614.198, 780.448 
	L 614.197, 780.449 
	L 614.197, 775.205 
" />
<path d="M 614.198, 781.582 
	L 614.197, 781.583 
	L 614.197, 780.449 
" />
<path d="M 612.143, 785.621 
	L 612.142, 785.622 
	L 612.142, 781.583 
" />
<path d="M 612.143, 786.826 
	L 612.142, 786.827 
	L 612.142, 785.622 
" />
<path d="M 613.560, 773.362 
	L 613.559, 773.362 
	L 613.559, 755.221 
" />
<path d="M 613.560, 775.133 
	L 613.559, 775.134 
	L 613.559, 773.362 
" />
<path d="M 613.347, 775.204 
	L 613.347, 775.205 
	L 613.347, 775.134 
" />
<path d="M 613.347, 775.204 
	L 613.347, 775.205 
" />
<path d="M 627.237, 773.007 
	L 627.236, 773.008 
	L 627.236, 755.221 
" />
<path d="M 627.237, 774.212 
	L 627.236, 774.213 
	L 627.236, 773.008 
" />
<path d="M 623.835, 774.992 
	L 623.835, 774.992 
	L 623.835, 774.213 
" />
<path d="M 628.371, 774.992 
	L 628.370, 774.992 
	L 628.370, 774.213 
" />
<path d="M 623.835, 775.204 
	L 623.835, 775.205 
	L 623.835, 774.992 
" />
<path d="M 628.442, 775.204 
	L 628.441, 775.205 
	L 628.441, 774.992 
" />
<path d="M 620.009, 786.472 
	L 620.008, 786.473 
	L 620.008, 785.764 
" />
<path d="M 620.009, 786.826 
	L 620.008, 786.827 
	L 620.008, 786.473 
" />
<path d="M 628.229, 782.929 
	L 628.228, 782.929 
	L 628.228, 775.205 
" />
<path d="M 628.229, 785.763 
	L 628.228, 785.764 
	L 628.228, 782.929 
" />
<path d="M 693.709, 5.810 
	L 693.709, 5.811 
	L 693.709, 0.000 
" />
<path d="M 693.709, 10.842 
	L 693.709, 10.843 
	L 693.709, 5.811 
" />
<path d="M 694.064, 15.377 
	L 694.063, 15.378 
	L 694.063, 12.260 
" />
<path d="M 694.064, 16.157 
	L 694.063, 16.157 
	L 694.063, 15.378 
" />
<path d="M 694.914, 18.779 
	L 694.913, 18.780 
	L 694.913, 16.157 
" />
<path d="M 865.489, 1388.834 
	L 865.488, 1388.835 
	L 865.488, 1378.347 
" />
<path d="M 681.237, 1067.314 
	L 681.236, 1067.315 
" />
<path d="M 681.237, 1067.314 
	L 681.236, 1067.315 
" />
<path d="M 678.261, 1067.314 
	L 678.260, 1067.315 
	L 678.260, 1066.748 
" />
<path d="M 682.513, 1067.314 
	L 682.512, 1067.315 
	L 682.512, 1066.748 
" />
<path d="M 678.261, 1067.314 
	L 678.260, 1067.315 
" />
<path d="M 688.607, 1067.314 
	L 688.606, 1067.315 
	L 688.606, 1067.103 
" />
<path d="M 688.607, 1067.102 
	L 688.606, 1067.103 
	L 688.606, 1066.748 
" />
<path d="M 696.190, 1067.102 
	L 696.189, 1067.103 
	L 696.189, 1066.748 
" />
<path d="M 696.190, 1067.314 
	L 696.189, 1067.315 
	L 696.189, 1067.103 
" />
<path d="M 700.796, 1067.314 
	L 700.795, 1067.315 
	L 700.795, 1067.103 
" />
<path d="M 688.961, 1067.314 
	L 688.961, 1067.315 
" />
<path d="M 694.276, 1067.314 
	L 694.276, 1067.315 
" />
<path d="M 699.591, 1067.314 
	L 699.591, 1067.315 
" />
<path d="M 688.961, 1067.314 
	L 688.961, 1067.315 
" />
<path d="M 693.568, 1067.314 
	L 693.567, 1067.315 
" />
<path d="M 698.174, 1067.314 
	L 698.173, 1067.315 
" />
<path d="M 681.450, 1067.598 
	L 681.449, 1067.599 
" />
<path d="M 681.450, 1067.598 
	L 681.449, 1067.599 
" />
<path d="M 677.339, 1067.598 
	L 677.339, 1067.599 
	L 677.339, 1067.457 
" />
<path d="M 677.339, 1067.456 
	L 677.339, 1067.457 
	L 677.339, 1067.315 
" />
<path d="M 682.229, 1067.456 
	L 682.228, 1067.457 
	L 682.228, 1067.315 
" />
<path d="M 682.229, 1067.598 
	L 682.228, 1067.599 
	L 682.228, 1067.457 
" />
<path d="M 690.166, 1067.598 
	L 690.165, 1067.599 
	L 690.165, 1067.457 
" />
<path d="M 690.166, 1067.456 
	L 690.165, 1067.457 
	L 690.165, 1067.315 
" />
<path d="M 694.772, 1067.456 
	L 694.772, 1067.457 
	L 694.772, 1067.315 
" />
<path d="M 694.772, 1067.598 
	L 694.772, 1067.599 
	L 694.772, 1067.457 
" />
<path d="M 700.087, 1067.598 
	L 700.087, 1067.599 
	L 700.087, 1067.457 
" />
<path d="M 690.166, 1067.598 
	L 690.165, 1067.599 
" />
<path d="M 690.166, 1067.598 
	L 690.165, 1067.599 
" />
<path d="M 695.552, 1067.598 
	L 695.551, 1067.599 
" />
<path d="M 695.552, 1067.598 
	L 695.551, 1067.599 
" />
<path d="M 699.804, 1067.598 
	L 699.803, 1067.599 
" />
<path d="M 950.174, 732.755 
	L 950.173, 732.756 
	L 950.173, 732.402 
" />
<path d="M 960.875, 719.220 
	L 960.874, 719.221 
	L 960.874, 714.614 
" />
<path d="M 960.875, 723.684 
	L 960.874, 723.685 
	L 960.874, 719.221 
" />
<path d="M 965.127, 723.684 
	L 965.126, 723.685 
	L 965.126, 719.221 
" />
<path d="M 956.977, 732.259 
	L 956.977, 732.260 
	L 956.977, 723.685 
" />
<path d="M 961.513, 732.259 
	L 961.512, 732.260 
	L 961.512, 723.685 
" />
<path d="M 956.977, 732.401 
	L 956.977, 732.402 
	L 956.977, 732.260 
" />
<path d="M 961.229, 732.401 
	L 961.228, 732.402 
	L 961.228, 732.260 
" />
<path d="M 965.481, 732.401 
	L 965.480, 732.402 
	L 965.480, 732.260 
" />
<path d="M 954.568, 732.968 
	L 954.567, 732.969 
	L 954.567, 732.402 
" />
<path d="M 954.568, 733.251 
	L 954.567, 733.252 
	L 954.567, 732.969 
" />
<path d="M 963.922, 733.181 
	L 963.921, 733.181 
	L 963.921, 732.402 
" />
<path d="M 963.922, 733.251 
	L 963.921, 733.252 
	L 963.921, 733.181 
" />
<path d="M 964.276, 733.251 
	L 964.276, 733.252 
" />
<path d="M 964.276, 733.251 
	L 964.276, 733.252 
" />
<path d="M 596.198, 402.165 
	L 596.197, 402.165 
	L 596.197, 400.181 
" />
<path d="M 596.198, 402.661 
	L 596.197, 402.661 
	L 596.197, 402.165 
" />
<path d="M 595.631, 404.716 
	L 595.630, 404.717 
	L 595.630, 402.661 
" />
<path d="M 595.631, 404.858 
	L 595.630, 404.858 
	L 595.630, 404.717 
" />
<path d="M 594.001, 406.771 
	L 594.000, 406.772 
	L 594.000, 404.858 
" />
<path d="M 598.253, 406.771 
	L 598.252, 406.772 
	L 598.252, 404.858 
" />
<path d="M 594.001, 406.913 
	L 594.000, 406.913 
	L 594.000, 406.772 
" />
<path d="M 590.954, 407.480 
	L 590.953, 407.480 
	L 590.953, 406.913 
" />
<path d="M 596.269, 407.480 
	L 596.268, 407.480 
	L 596.268, 406.913 
" />
<path d="M 590.954, 407.551 
	L 590.953, 407.551 
	L 590.953, 407.480 
" />
<path d="M 595.489, 407.551 
	L 595.488, 407.551 
	L 595.488, 407.480 
" />
<path d="M 600.024, 407.551 
	L 600.024, 407.551 
	L 600.024, 407.480 
" />
<path d="M 945.639, 86.385 
	L 945.638, 86.386 
	L 945.638, 86.102 
" />
<path d="M 945.639, 85.322 
	L 945.638, 85.323 
	L 945.638, 84.402 
" />
<path d="M 950.670, 86.314 
	L 950.669, 86.315 
	L 950.669, 85.606 
" />
<path d="M 950.670, 86.385 
	L 950.669, 86.386 
	L 950.669, 86.315 
" />
<path d="M 949.961, 81.283 
	L 949.961, 81.283 
	L 949.961, 52.866 
" />
<path d="M 949.961, 81.283 
	L 949.961, 81.283 
" />
<path d="M 950.316, 84.401 
	L 950.315, 84.402 
	L 950.315, 81.283 
" />
<path d="M 950.316, 84.401 
	L 950.315, 84.402 
" />
<path d="M 963.284, 72.425 
	L 963.284, 72.425 
	L 963.284, 52.866 
" />
<path d="M 963.284, 73.629 
	L 963.284, 73.630 
	L 963.284, 72.425 
" />
<path d="M 962.363, 82.417 
	L 962.362, 82.417 
	L 962.362, 73.630 
" />
<path d="M 962.363, 84.401 
	L 962.362, 84.402 
	L 962.362, 82.417 
" />
<path d="M 960.095, 85.818 
	L 960.095, 85.819 
	L 960.095, 84.402 
" />
<path d="M 960.095, 86.314 
	L 960.095, 86.315 
	L 960.095, 85.819 
" />
<path d="M 961.371, 86.385 
	L 961.370, 86.386 
	L 961.370, 86.315 
" />
<path d="M 961.371, 86.385 
	L 961.370, 86.386 
" />
<path d="M 719.434, 1393.440 
	L 719.433, 1393.441 
	L 719.433, 1384.158 
" />
<path d="M 719.434, 1396.842 
	L 719.433, 1396.843 
	L 719.433, 1393.441 
" />
<path d="M 716.103, 1400.173 
	L 716.102, 1400.173 
	L 716.102, 1396.843 
" />
<path d="M 721.418, 1400.173 
	L 721.417, 1400.173 
	L 721.417, 1396.843 
" />
<path d="M 716.103, 1401.732 
	L 716.102, 1401.732 
	L 716.102, 1400.173 
" />
<path d="M 720.639, 1401.732 
	L 720.638, 1401.732 
	L 720.638, 1400.173 
" />
<path d="M 718.300, 1405.559 
	L 718.299, 1405.559 
	L 718.299, 1401.732 
" />
<path d="M 718.300, 1405.984 
	L 718.299, 1405.984 
	L 718.299, 1405.559 
" />
<path d="M 717.379, 1407.330 
	L 717.378, 1407.331 
	L 717.378, 1405.984 
" />
<path d="M 721.914, 1407.330 
	L 721.913, 1407.331 
	L 721.913, 1405.984 
" />
<path d="M 717.379, 1407.614 
	L 717.378, 1407.614 
	L 717.378, 1407.331 
" />
<path d="M 923.103, 1133.716 
	L 923.103, 1133.717 
	L 923.103, 1116.851 
" />
<path d="M 928.772, 1133.716 
	L 928.772, 1133.717 
	L 928.772, 1116.851 
" />
<path d="M 934.442, 1133.716 
	L 934.441, 1133.717 
	L 934.441, 1116.851 
" />
<path d="M 923.103, 1140.944 
	L 923.103, 1140.945 
	L 923.103, 1133.717 
" />
<path d="M 928.418, 1140.944 
	L 928.417, 1140.945 
	L 928.417, 1133.717 
" />
<path d="M 933.733, 1140.944 
	L 933.732, 1140.945 
	L 933.732, 1133.717 
" />
<path d="M 922.678, 1143.779 
	L 922.677, 1143.780 
	L 922.677, 1140.945 
" />
<path d="M 927.213, 1143.779 
	L 927.213, 1143.780 
	L 927.213, 1140.945 
" />
<path d="M 931.749, 1143.779 
	L 931.748, 1143.780 
	L 931.748, 1140.945 
" />
<path d="M 936.284, 1143.779 
	L 936.284, 1143.780 
	L 936.284, 1140.945 
" />
<path d="M 922.678, 1145.763 
	L 922.677, 1145.764 
	L 922.677, 1143.780 
" />
<path d="M 926.930, 1145.763 
	L 926.929, 1145.764 
	L 926.929, 1143.780 
" />
<path d="M 931.182, 1145.763 
	L 931.181, 1145.764 
	L 931.181, 1143.780 
" />
<path d="M 935.434, 1145.763 
	L 935.433, 1145.764 
	L 935.433, 1143.780 
" />
<path d="M 919.489, 1147.818 
	L 919.488, 1147.819 
	L 919.488, 1147.323 
" />
<path d="M 919.489, 1148.031 
	L 919.488, 1148.032 
	L 919.488, 1147.819 
" />
<path d="M 920.127, 1147.322 
	L 920.126, 1147.323 
	L 920.126, 1146.827 
" />
<path d="M 927.213, 1146.685 
	L 927.213, 1146.685 
	L 927.213, 1145.764 
" />
<path d="M 932.883, 1146.685 
	L 932.882, 1146.685 
	L 932.882, 1145.764 
" />
<path d="M 927.213, 1147.322 
	L 927.213, 1147.323 
	L 927.213, 1146.685 
" />
<path d="M 932.883, 1147.322 
	L 932.882, 1147.323 
	L 932.882, 1146.685 
" />
<path d="M 925.087, 1148.031 
	L 925.087, 1148.032 
" />
<path d="M 925.087, 1148.031 
	L 925.087, 1148.032 
	L 925.087, 1147.323 
" />
<path d="M 932.528, 1148.031 
	L 932.528, 1148.032 
	L 932.528, 1147.323 
" />
<path d="M 932.528, 1148.031 
	L 932.528, 1148.032 
" />
<path d="M 1062.639, 957.047 
	L 1062.638, 957.047 
	L 1062.638, 952.583 
" />
<path d="M 1060.229, 948.968 
	L 1060.229, 948.969 
	L 1060.229, 941.103 
" />
<path d="M 1060.229, 952.582 
	L 1060.229, 952.583 
	L 1060.229, 948.969 
" />
<path d="M 1071.568, 952.228 
	L 1071.567, 952.228 
	L 1071.567, 941.103 
" />
<path d="M 1071.568, 952.582 
	L 1071.567, 952.583 
	L 1071.567, 952.228 
" />
<path d="M 1067.387, 960.165 
	L 1067.386, 960.166 
	L 1067.386, 958.819 
" />
<path d="M 1067.387, 958.818 
	L 1067.386, 958.819 
	L 1067.386, 952.583 
" />
<path d="M 1072.489, 958.818 
	L 1072.488, 958.819 
	L 1072.488, 952.583 
" />
<path d="M 1072.489, 960.165 
	L 1072.488, 960.166 
	L 1072.488, 958.819 
" />
<path d="M 1062.143, 964.275 
	L 1062.142, 964.276 
	L 1062.142, 960.166 
" />
<path d="M 1066.749, 964.275 
	L 1066.748, 964.276 
	L 1066.748, 960.166 
" />
<path d="M 1071.355, 964.275 
	L 1071.354, 964.276 
	L 1071.354, 960.166 
" />
<path d="M 1062.143, 965.834 
	L 1062.142, 965.835 
	L 1062.142, 964.276 
" />
<path d="M 1067.812, 965.834 
	L 1067.811, 965.835 
	L 1067.811, 964.276 
" />
<path d="M 1060.867, 966.330 
	L 1060.866, 966.331 
	L 1060.866, 965.835 
" />
<path d="M 1065.969, 966.330 
	L 1065.969, 966.331 
	L 1065.969, 965.835 
" />
<path d="M 1071.284, 966.330 
	L 1071.284, 966.331 
	L 1071.284, 965.835 
" />
<path d="M 1065.969, 966.401 
	L 1065.969, 966.402 
	L 1065.969, 966.331 
" />
<path d="M 1070.221, 966.401 
	L 1070.221, 966.402 
	L 1070.221, 966.331 
" />
<path d="M 1148.954, 476.929 
	L 1148.953, 476.929 
	L 1148.953, 473.669 
" />
<path d="M 1153.489, 476.929 
	L 1153.488, 476.929 
	L 1153.488, 473.669 
" />
<path d="M 1148.954, 473.669 
	L 1148.953, 473.669 
	L 1148.953, 465.378 
" />
<path d="M 1159.017, 473.669 
	L 1159.016, 473.669 
	L 1159.016, 465.378 
" />
<path d="M 1159.017, 476.929 
	L 1159.016, 476.929 
	L 1159.016, 473.669 
" />
<path d="M 1148.954, 476.929 
	L 1148.953, 476.929 
" />
<path d="M 1148.954, 476.929 
	L 1148.953, 476.929 
" />
<path d="M 1153.560, 476.929 
	L 1153.559, 476.929 
" />
<path d="M 1158.450, 476.929 
	L 1158.449, 476.929 
" />
<path d="M 1158.450, 476.929 
	L 1158.449, 476.929 
" />
<path d="M 1146.969, 483.661 
	L 1146.969, 483.661 
	L 1146.969, 482.811 
" />
<path d="M 1155.828, 480.259 
	L 1155.827, 480.260 
	L 1155.827, 476.929 
" />
<path d="M 1161.497, 480.259 
	L 1161.496, 480.260 
	L 1161.496, 476.929 
" />
<path d="M 1155.828, 480.401 
	L 1155.827, 480.402 
	L 1155.827, 480.260 
" />
<path d="M 1160.434, 480.401 
	L 1160.433, 480.402 
	L 1160.433, 480.260 
" />
<path d="M 1151.788, 483.661 
	L 1151.788, 483.661 
" />
<path d="M 1151.788, 483.661 
	L 1151.788, 483.661 
	L 1151.788, 480.402 
" />
<path d="M 1160.576, 483.661 
	L 1160.575, 483.661 
	L 1160.575, 480.402 
" />
<path d="M 1160.576, 483.661 
	L 1160.575, 483.661 
" />
<path d="M 734.528, 501.165 
	L 734.528, 501.165 
	L 734.528, 482.244 
" />
<path d="M 734.528, 511.440 
	L 734.528, 511.441 
	L 734.528, 501.165 
" />
<path d="M 734.954, 512.929 
	L 734.953, 512.929 
	L 734.953, 511.441 
" />
<path d="M 1447.158, 1143.921 
	L 1447.158, 1143.921 
	L 1447.158, 1134.284 
" />
<path d="M 1447.158, 1146.188 
	L 1447.158, 1146.189 
	L 1447.158, 1143.921 
" />
<path d="M 1446.450, 1153.771 
	L 1446.449, 1153.772 
	L 1446.449, 1146.189 
" />
<path d="M 1446.450, 1153.771 
	L 1446.449, 1153.772 
" />
<path d="M 1447.158, 1159.157 
	L 1447.158, 1159.158 
	L 1447.158, 1159.087 
" />
<path d="M 1428.025, 1034.574 
	L 1428.024, 1034.575 
" />
<path d="M 1428.025, 1034.574 
	L 1428.024, 1034.575 
" />
<path d="M 1762.088, 823.747 
	L 1762.087, 823.748 
	L 1762.087, 820.134 
" />
<path d="M 1766.623, 823.747 
	L 1766.622, 823.748 
	L 1766.622, 820.134 
" />
<path d="M 1762.088, 824.314 
	L 1762.087, 824.315 
	L 1762.087, 823.748 
" />
<path d="M 1767.757, 824.314 
	L 1767.756, 824.315 
	L 1767.756, 823.748 
" />
<path d="M 1757.694, 824.810 
	L 1757.693, 824.811 
	L 1757.693, 824.599 
" />
<path d="M 1757.694, 824.598 
	L 1757.693, 824.599 
	L 1757.693, 824.315 
" />
<path d="M 1763.151, 824.598 
	L 1763.150, 824.599 
	L 1763.150, 824.315 
" />
<path d="M 1763.151, 824.810 
	L 1763.150, 824.811 
	L 1763.150, 824.599 
" />
<path d="M 1767.686, 824.810 
	L 1767.685, 824.811 
	L 1767.685, 824.599 
" />
<path d="M 1757.765, 826.866 
	L 1757.764, 826.866 
	L 1757.764, 826.299 
" />
<path d="M 1757.765, 827.007 
	L 1757.764, 827.008 
	L 1757.764, 826.866 
" />
<path d="M 1758.261, 825.944 
	L 1758.260, 825.945 
	L 1758.260, 824.811 
" />
<path d="M 1758.261, 826.299 
	L 1758.260, 826.299 
	L 1758.260, 825.945 
" />
<path d="M 1767.190, 825.944 
	L 1767.189, 825.945 
	L 1767.189, 824.811 
" />
<path d="M 1767.190, 826.299 
	L 1767.189, 826.299 
	L 1767.189, 825.945 
" />
<path d="M 1763.859, 826.724 
	L 1763.859, 826.725 
	L 1763.859, 826.299 
" />
<path d="M 1768.395, 826.724 
	L 1768.394, 826.725 
	L 1768.394, 826.299 
" />
<path d="M 1763.859, 827.007 
	L 1763.859, 827.008 
	L 1763.859, 826.725 
" />
<path d="M 1768.466, 827.007 
	L 1768.465, 827.008 
	L 1768.465, 826.725 
" />
<path d="M 2126.340, 1121.811 
	L 2126.339, 1121.811 
	L 2126.339, 1121.740 
" />
<path d="M 2126.340, 1121.811 
	L 2126.339, 1121.811 
" />
<path d="M 2126.907, 1121.385 
	L 2126.906, 1121.386 
	L 2126.906, 1120.890 
" />
<path d="M 2126.907, 1121.669 
	L 2126.906, 1121.669 
	L 2126.906, 1121.386 
" />
<path d="M 2136.899, 1121.740 
	L 2136.898, 1121.740 
	L 2136.898, 1121.669 
" />
<path d="M 2136.899, 1121.740 
	L 2136.898, 1121.740 
" />
<path d="M 2132.859, 1121.811 
	L 2132.859, 1121.811 
" />
<path d="M 2132.859, 1121.811 
	L 2132.859, 1121.811 
	L 2132.859, 1121.740 
" />
<path d="M 2137.820, 1121.811 
	L 2137.819, 1121.811 
" />
<path d="M 1641.544, 376.936 
	L 1641.544, 376.937 
	L 1641.544, 373.961 
" />
<path d="M 1641.544, 379.558 
	L 1641.544, 379.559 
	L 1641.544, 376.937 
" />
<path d="M 1641.473, 380.409 
	L 1641.473, 380.410 
	L 1641.473, 379.559 
" />
<path d="M 1641.473, 380.551 
	L 1641.473, 380.551 
	L 1641.473, 380.410 
" />
<path d="M 1641.473, 373.889 
	L 1641.473, 373.890 
	L 1641.473, 373.252 
" />
<path d="M 1641.473, 373.960 
	L 1641.473, 373.961 
	L 1641.473, 373.890 
" />
<path d="M 1653.804, 371.976 
	L 1653.803, 371.976 
	L 1653.803, 363.685 
" />
<path d="M 1658.410, 371.976 
	L 1658.410, 371.976 
	L 1658.410, 363.685 
" />
<path d="M 1663.017, 371.976 
	L 1663.016, 371.976 
	L 1663.016, 363.685 
" />
<path d="M 1653.804, 373.960 
	L 1653.803, 373.961 
	L 1653.803, 371.976 
" />
<path d="M 1658.410, 373.960 
	L 1658.410, 373.961 
	L 1658.410, 371.976 
" />
<path d="M 1663.017, 373.960 
	L 1663.016, 373.961 
	L 1663.016, 371.976 
" />
<path d="M 1652.741, 373.960 
	L 1652.740, 373.961 
" />
<path d="M 1658.056, 373.960 
	L 1658.055, 373.961 
" />
<path d="M 1663.371, 373.960 
	L 1663.370, 373.961 
" />
<path d="M 1652.741, 373.960 
	L 1652.740, 373.961 
" />
<path d="M 1657.347, 373.960 
	L 1657.347, 373.961 
" />
<path d="M 1661.954, 373.960 
	L 1661.953, 373.961 
" />
<path d="M 1650.757, 377.787 
	L 1650.756, 377.787 
	L 1650.756, 373.961 
" />
<path d="M 1655.009, 377.787 
	L 1655.008, 377.787 
	L 1655.008, 373.961 
" />
<path d="M 1659.261, 377.787 
	L 1659.260, 377.787 
	L 1659.260, 373.961 
" />
<path d="M 1663.513, 377.787 
	L 1663.512, 377.787 
	L 1663.512, 373.961 
" />
<path d="M 1650.757, 378.850 
	L 1650.756, 378.850 
	L 1650.756, 377.787 
" />
<path d="M 1656.426, 378.850 
	L 1656.425, 378.850 
	L 1656.425, 377.787 
" />
<path d="M 1662.095, 378.850 
	L 1662.095, 378.850 
	L 1662.095, 377.787 
" />
<path d="M 1648.914, 380.551 
	L 1648.914, 380.551 
	L 1648.914, 379.772 
" />
<path d="M 1648.914, 379.771 
	L 1648.914, 379.772 
	L 1648.914, 378.850 
" />
<path d="M 1657.560, 379.771 
	L 1657.559, 379.772 
	L 1657.559, 378.850 
" />
<path d="M 1662.095, 379.771 
	L 1662.095, 379.772 
	L 1662.095, 378.850 
" />
<path d="M 1657.560, 380.551 
	L 1657.559, 380.551 
	L 1657.559, 379.772 
" />
<path d="M 1662.095, 380.551 
	L 1662.095, 380.551 
	L 1662.095, 379.772 
" />
<path d="M 1442.481, 448.511 
	L 1442.481, 448.512 
	L 1442.481, 447.449 
" />
<path d="M 1442.481, 449.291 
	L 1442.481, 449.291 
	L 1442.481, 448.512 
" />
<path d="M 1949.529, 1401.803 
	L 1949.528, 1401.803 
	L 1949.528, 1398.189 
" />
<path d="M 1949.529, 1404.354 
	L 1949.528, 1404.355 
	L 1949.528, 1401.803 
" />
<path d="M 1950.804, 1407.047 
	L 1950.803, 1407.047 
	L 1950.803, 1404.355 
" />
<path d="M 1958.032, 1387.488 
	L 1958.032, 1387.488 
	L 1958.032, 1381.323 
" />
<path d="M 1958.032, 1390.535 
	L 1958.032, 1390.536 
	L 1958.032, 1387.488 
" />
<path d="M 1960.938, 1396.488 
	L 1960.937, 1396.488 
	L 1960.937, 1390.536 
" />
<path d="M 1960.938, 1398.188 
	L 1960.937, 1398.189 
	L 1960.937, 1396.488 
" />
<path d="M 1962.284, 1403.503 
	L 1962.284, 1403.504 
	L 1962.284, 1403.362 
" />
<path d="M 1962.639, 1407.118 
	L 1962.638, 1407.118 
	L 1962.638, 1403.504 
" />
<path d="M 1962.639, 1407.614 
	L 1962.638, 1407.614 
	L 1962.638, 1407.118 
" />
<path d="M 2210.103, 222.448 
	L 2210.103, 222.449 
	L 2210.103, 218.835 
" />
<path d="M 2215.418, 222.448 
	L 2215.418, 222.449 
	L 2215.418, 218.835 
" />
<path d="M 2220.733, 222.448 
	L 2220.733, 222.449 
	L 2220.733, 218.835 
" />
<path d="M 2210.103, 225.991 
	L 2210.103, 225.992 
	L 2210.103, 222.449 
" />
<path d="M 2215.418, 225.991 
	L 2215.418, 225.992 
	L 2215.418, 222.449 
" />
<path d="M 2220.733, 225.991 
	L 2220.733, 225.992 
	L 2220.733, 222.449 
" />
<path d="M 2204.505, 229.889 
	L 2204.504, 229.890 
	L 2204.504, 228.189 
" />
<path d="M 2204.505, 228.188 
	L 2204.504, 228.189 
	L 2204.504, 225.992 
" />
<path d="M 2212.159, 228.188 
	L 2212.158, 228.189 
	L 2212.158, 225.992 
" />
<path d="M 2216.694, 228.188 
	L 2216.693, 228.189 
	L 2216.693, 225.992 
" />
<path d="M 2221.229, 228.188 
	L 2221.229, 228.189 
	L 2221.229, 225.992 
" />
<path d="M 2212.159, 229.889 
	L 2212.158, 229.890 
	L 2212.158, 228.189 
" />
<path d="M 2217.473, 229.889 
	L 2217.473, 229.890 
	L 2217.473, 228.189 
" />
<path d="M 2204.080, 235.488 
	L 2204.079, 235.488 
	L 2204.079, 233.717 
" />
<path d="M 2204.080, 233.716 
	L 2204.079, 233.717 
	L 2204.079, 229.890 
" />
<path d="M 2208.615, 233.716 
	L 2208.615, 233.717 
	L 2208.615, 229.890 
" />
<path d="M 2214.214, 233.716 
	L 2214.213, 233.717 
	L 2214.213, 229.890 
" />
<path d="M 2218.466, 233.716 
	L 2218.465, 233.717 
	L 2218.465, 229.890 
" />
<path d="M 2222.718, 233.716 
	L 2222.717, 233.717 
	L 2222.717, 229.890 
" />
<path d="M 2214.214, 235.488 
	L 2214.213, 235.488 
	L 2214.213, 233.717 
" />
<path d="M 2218.820, 235.488 
	L 2218.819, 235.488 
	L 2218.819, 233.717 
" />
<path d="M 2206.560, 238.889 
	L 2206.559, 238.890 
	L 2206.559, 235.488 
" />
<path d="M 2212.229, 238.889 
	L 2212.229, 238.890 
	L 2212.229, 235.488 
" />
<path d="M 2217.899, 238.889 
	L 2217.898, 238.890 
	L 2217.898, 235.488 
" />
<path d="M 2206.560, 240.023 
	L 2206.559, 240.024 
	L 2206.559, 238.890 
" />
<path d="M 2211.875, 240.023 
	L 2211.874, 240.024 
	L 2211.874, 238.890 
" />
<path d="M 2217.190, 240.023 
	L 2217.189, 240.024 
	L 2217.189, 238.890 
" />
<path d="M 2222.505, 240.023 
	L 2222.504, 240.024 
	L 2222.504, 238.890 
" />
</g>
</svg>
