<?xml version="1.0" encoding="UTF-8" standalone="no" ?>
<svg width="100%" height="100%" viewBox="0 0 708.662 708.662" xmlns="http://www.w3.org/2000/svg"><g>
</g><g style="stroke:rgb(0,0,0); fill:none; stroke-width:1.000mm" >
</g><g style="stroke:rgb(0,255,0); fill:none; stroke-width:0.100mm" >
<path d="M 0.001, 708.661 
	L 0.000, 708.662 
	L 0.000, 0.000 
	L 708.662, 0.000 
	L 708.662, 708.662 
	L 0.000, 708.662 
" />
<path d="M 0.001, 708.661 
	L 0.000, 708.662 
	L 0.000, 647.788 
" />
<path d="M 4.607, 708.661 
	L 4.606, 708.662 
	L 4.606, 647.788 
" />
<path d="M 9.213, 708.661 
	L 9.213, 708.662 
	L 9.213, 647.788 
" />
<path d="M 13.820, 708.661 
	L 13.819, 708.662 
	L 13.819, 647.788 
" />
<path d="M 18.426, 708.661 
	L 18.425, 708.662 
	L 18.425, 647.788 
" />
<path d="M 23.032, 708.661 
	L 23.031, 708.662 
	L 23.031, 647.788 
" />
<path d="M 27.639, 708.661 
	L 27.638, 708.662 
	L 27.638, 647.788 
" />
<path d="M 32.245, 708.661 
	L 32.244, 708.662 
	L 32.244, 647.788 
" />
<path d="M 36.851, 708.661 
	L 36.850, 708.662 
	L 36.850, 647.788 
" />
<path d="M 41.457, 708.661 
	L 41.457, 708.662 
	L 41.457, 647.788 
" />
<path d="M 46.064, 708.661 
	L 46.063, 708.662 
	L 46.063, 647.788 
" />
<path d="M 50.670, 708.661 
	L 50.669, 708.662 
	L 50.669, 647.788 
" />
<path d="M 55.276, 708.661 
	L 55.276, 708.662 
	L 55.276, 647.788 
" />
<path d="M 59.883, 708.661 
	L 59.882, 708.662 
	L 59.882, 647.788 
" />
<path d="M 64.489, 708.661 
	L 64.488, 708.662 
	L 64.488, 647.788 
" />
<path d="M 69.095, 708.661 
	L 69.094, 708.662 
	L 69.094, 647.788 
" />
<path d="M 73.702, 708.661 
	L 73.701, 708.662 
	L 73.701, 647.788 
" />
<path d="M 78.308, 708.661 
	L 78.307, 708.662 
	L 78.307, 647.788 
" />
<path d="M 82.914, 708.661 
	L 82.913, 708.662 
	L 82.913, 647.788 
" />
<path d="M 87.520, 708.661 
	L 87.520, 708.662 
	L 87.520, 647.788 
" />
<path d="M 92.127, 708.661 
	L 92.126, 708.662 
	L 92.126, 647.788 
" />
<path d="M 96.733, 708.661 
	L 96.732, 708.662 
	L 96.732, 647.788 
" />
<path d="M 101.339, 708.661 
	L 101.339, 708.662 
	L 101.339, 647.788 
" />
<path d="M 105.946, 708.661 
	L 105.945, 708.662 
	L 105.945, 647.788 
" />
<path d="M 110.552, 708.661 
	L 110.551, 708.662 
	L 110.551, 647.788 
" />
<path d="M 115.158, 708.661 
	L 115.157, 708.662 
	L 115.157, 647.788 
" />
<path d="M 119.765, 708.661 
	L 119.764, 708.662 
	L 119.764, 647.788 
" />
<path d="M 124.371, 708.661 
	L 124.370, 708.662 
	L 124.370, 647.788 
" />
<path d="M 128.977, 708.661 
	L 128.976, 708.662 
	L 128.976, 647.788 
" />
<path d="M 133.583, 708.661 
	L 133.583, 708.662 
	L 133.583, 647.788 
" />
<path d="M 138.190, 708.661 
	L 138.189, 708.662 
	L 138.189, 647.788 
" />
<path d="M 142.796, 708.661 
	L 142.795, 708.662 
	L 142.795, 647.788 
" />
<path d="M 147.402, 708.661 
	L 147.402, 708.662 
	L 147.402, 647.788 
" />
<path d="M 152.009, 708.661 
	L 152.008, 708.662 
	L 152.008, 647.788 
" />
<path d="M 156.615, 708.661 
	L 156.614, 708.662 
	L 156.614, 647.788 
" />
<path d="M 161.221, 708.661 
	L 161.220, 708.662 
	L 161.220, 647.788 
" />
<path d="M 165.828, 708.661 
	L 165.827, 708.662 
	L 165.827, 647.788 
" />
<path d="M 170.434, 708.661 
	L 170.433, 708.662 
	L 170.433, 647.788 
" />
<path d="M 0.001, 647.787 
	L 0.000, 647.788 
	L 0.000, 452.835 
" />
<path d="M 4.607, 647.787 
	L 4.606, 647.788 
	L 4.606, 452.835 
" />
<path d="M 9.213, 647.787 
	L 9.213, 647.788 
	L 9.213, 452.835 
" />
<path d="M 13.820, 647.787 
	L 13.819, 647.788 
	L 13.819, 452.835 
" />
<path d="M 18.426, 647.787 
	L 18.425, 647.788 
	L 18.425, 452.835 
" />
<path d="M 23.032, 647.787 
	L 23.031, 647.788 
	L 23.031, 452.835 
" />
<path d="M 27.639, 647.787 
	L 27.638, 647.788 
	L 27.638, 452.835 
" />
<path d="M 32.245, 647.787 
	L 32.244, 647.788 
	L 32.244, 452.835 
" />
<path d="M 36.851, 647.787 
	L 36.850, 647.788 
	L 36.850, 452.835 
" />
<path d="M 41.457, 647.787 
	L 41.457, 647.788 
	L 41.457, 452.835 
" />
<path d="M 46.064, 647.787 
	L 46.063, 647.788 
	L 46.063, 452.835 
" />
<path d="M 50.670, 647.787 
	L 50.669, 647.788 
	L 50.669, 452.835 
" />
<path d="M 55.276, 647.787 
	L 55.276, 647.788 
	L 55.276, 452.835 
" />
<path d="M 59.883, 647.787 
	L 59.882, 647.788 
	L 59.882, 452.835 
" />
<path d="M 64.489, 647.787 
	L 64.488, 647.788 
	L 64.488, 452.835 
" />
<path d="M 69.095, 647.787 
	L 69.094, 647.788 
	L 69.094, 452.835 
" />
<path d="M 73.702, 647.787 
	L 73.701, 647.788 
	L 73.701, 452.835 
" />
<path d="M 78.308, 647.787 
	L 78.307, 647.788 
	L 78.307, 452.835 
" />
<path d="M 82.914, 647.787 
	L 82.913, 647.788 
	L 82.913, 452.835 
" />
<path d="M 87.520, 647.787 
	L 87.520, 647.788 
	L 87.520, 452.835 
" />
<path d="M 92.127, 647.787 
	L 92.126, 647.788 
	L 92.126, 452.835 
" />
<path d="M 96.733, 647.787 
	L 96.732, 647.788 
	L 96.732, 452.835 
" />
<path d="M 101.339, 647.787 
	L 101.339, 647.788 
	L 101.339, 452.835 
" />
<path d="M 105.946, 647.787 
	L 105.945, 647.788 
	L 105.945, 452.835 
" />
<path d="M 110.552, 647.787 
	L 110.551, 647.788 
	L 110.551, 452.835 
" />
<path d="M 115.158, 647.787 
	L 115.157, 647.788 
	L 115.157, 452.835 
" />
<path d="M 119.765, 647.787 
	L 119.764, 647.788 
	L 119.764, 452.835 
" />
<path d="M 124.371, 647.787 
	L 124.370, 647.788 
	L 124.370, 452.835 
" />
<path d="M 128.977, 647.787 
	L 128.976, 647.788 
	L 128.976, 452.835 
" />
<path d="M 133.583, 647.787 
	L 133.583, 647.788 
	L 133.583, 452.835 
" />
<path d="M 138.190, 647.787 
	L 138.189, 647.788 
	L 138.189, 452.835 
" />
<path d="M 142.796, 647.787 
	L 142.795, 647.788 
	L 142.795, 452.835 
" />
<path d="M 147.402, 647.787 
	L 147.402, 647.788 
	L 147.402, 452.835 
" />
<path d="M 152.009, 647.787 
	L 152.008, 647.788 
	L 152.008, 452.835 
" />
<path d="M 156.615, 647.787 
	L 156.614, 647.788 
	L 156.614, 452.835 
" />
<path d="M 161.221, 647.787 
	L 161.220, 647.788 
	L 161.220, 452.835 
" />
<path d="M 165.828, 647.787 
	L 165.827, 647.788 
	L 165.827, 452.835 
" />
<path d="M 170.434, 647.787 
	L 170.433, 647.788 
	L 170.433, 452.835 
" />
<path d="M 177.308, 647.787 
	L 177.307, 647.788 
	L 177.307, 452.835 
" />
<path d="M 181.560, 647.787 
	L 181.559, 647.788 
	L 181.559, 452.835 
" />
<path d="M 185.812, 647.787 
	L 185.811, 647.788 
	L 185.811, 452.835 
" />
<path d="M 190.064, 647.787 
	L 190.063, 647.788 
	L 190.063, 452.835 
" />
<path d="M 194.316, 647.787 
	L 194.315, 647.788 
	L 194.315, 452.835 
" />
<path d="M 177.308, 708.661 
	L 177.307, 708.662 
	L 177.307, 647.788 
" />
<path d="M 182.623, 708.661 
	L 182.622, 708.662 
	L 182.622, 647.788 
" />
<path d="M 187.938, 708.661 
	L 187.937, 708.662 
	L 187.937, 647.788 
" />
<path d="M 193.253, 708.661 
	L 193.252, 708.662 
	L 193.252, 647.788 
" />
<path d="M 0.001, 452.834 
	L 0.000, 452.835 
	L 0.000, 13.323 
" />
<path d="M 4.607, 452.834 
	L 4.606, 452.835 
	L 4.606, 13.323 
" />
<path d="M 9.213, 452.834 
	L 9.213, 452.835 
	L 9.213, 13.323 
" />
<path d="M 13.820, 452.834 
	L 13.819, 452.835 
	L 13.819, 13.323 
" />
<path d="M 18.426, 452.834 
	L 18.425, 452.835 
	L 18.425, 13.323 
" />
<path d="M 23.032, 452.834 
	L 23.031, 452.835 
	L 23.031, 13.323 
" />
<path d="M 27.639, 452.834 
	L 27.638, 452.835 
	L 27.638, 13.323 
" />
<path d="M 32.245, 452.834 
	L 32.244, 452.835 
	L 32.244, 13.323 
" />
<path d="M 36.851, 452.834 
	L 36.850, 452.835 
	L 36.850, 13.323 
" />
<path d="M 41.457, 452.834 
	L 41.457, 452.835 
	L 41.457, 13.323 
" />
<path d="M 46.064, 452.834 
	L 46.063, 452.835 
	L 46.063, 13.323 
" />
<path d="M 50.670, 452.834 
	L 50.669, 452.835 
	L 50.669, 13.323 
" />
<path d="M 55.276, 452.834 
	L 55.276, 452.835 
	L 55.276, 13.323 
" />
<path d="M 59.883, 452.834 
	L 59.882, 452.835 
	L 59.882, 13.323 
" />
<path d="M 64.489, 452.834 
	L 64.488, 452.835 
	L 64.488, 13.323 
" />
<path d="M 69.095, 452.834 
	L 69.094, 452.835 
	L 69.094, 13.323 
" />
<path d="M 73.702, 452.834 
	L 73.701, 452.835 
	L 73.701, 13.323 
" />
<path d="M 78.308, 452.834 
	L 78.307, 452.835 
	L 78.307, 13.323 
" />
<path d="M 82.914, 452.834 
	L 82.913, 452.835 
	L 82.913, 13.323 
" />
<path d="M 87.520, 452.834 
	L 87.520, 452.835 
	L 87.520, 13.323 
" />
<path d="M 92.127, 452.834 
	L 92.126, 452.835 
	L 92.126, 13.323 
" />
<path d="M 96.733, 452.834 
	L 96.732, 452.835 
	L 96.732, 13.323 
" />
<path d="M 101.339, 452.834 
	L 101.339, 452.835 
	L 101.339, 13.323 
" />
<path d="M 105.946, 452.834 
	L 105.945, 452.835 
	L 105.945, 13.323 
" />
<path d="M 110.552, 452.834 
	L 110.551, 452.835 
	L 110.551, 13.323 
" />
<path d="M 115.158, 452.834 
	L 115.157, 452.835 
	L 115.157, 13.323 
" />
<path d="M 119.765, 452.834 
	L 119.764, 452.835 
	L 119.764, 13.323 
" />
<path d="M 124.371, 452.834 
	L 124.370, 452.835 
	L 124.370, 13.323 
" />
<path d="M 128.977, 452.834 
	L 128.976, 452.835 
	L 128.976, 13.323 
" />
<path d="M 133.583, 452.834 
	L 133.583, 452.835 
	L 133.583, 13.323 
" />
<path d="M 138.190, 452.834 
	L 138.189, 452.835 
	L 138.189, 13.323 
" />
<path d="M 142.796, 452.834 
	L 142.795, 452.835 
	L 142.795, 13.323 
" />
<path d="M 147.402, 452.834 
	L 147.402, 452.835 
	L 147.402, 13.323 
" />
<path d="M 152.009, 452.834 
	L 152.008, 452.835 
	L 152.008, 13.323 
" />
<path d="M 156.615, 452.834 
	L 156.614, 452.835 
	L 156.614, 13.323 
" />
<path d="M 161.221, 452.834 
	L 161.220, 452.835 
	L 161.220, 13.323 
" />
<path d="M 165.828, 452.834 
	L 165.827, 452.835 
	L 165.827, 13.323 
" />
<path d="M 170.434, 452.834 
	L 170.433, 452.835 
	L 170.433, 13.323 
" />
<path d="M 175.040, 452.834 
	L 175.039, 452.835 
	L 175.039, 13.323 
" />
<path d="M 0.001, 13.322 
	L 0.000, 13.323 
	L 0.000, 0.000 
" />
<path d="M 4.253, 13.322 
	L 4.252, 13.323 
	L 4.252, 0.000 
" />
<path d="M 8.505, 13.322 
	L 8.504, 13.323 
	L 8.504, 0.000 
" />
<path d="M 12.757, 13.322 
	L 12.756, 13.323 
	L 12.756, 0.000 
" />
<path d="M 17.009, 13.322 
	L 17.008, 13.323 
	L 17.008, 0.000 
" />
<path d="M 21.261, 13.322 
	L 21.260, 13.323 
	L 21.260, 0.000 
" />
<path d="M 25.513, 13.322 
	L 25.512, 13.323 
	L 25.512, 0.000 
" />
<path d="M 29.764, 13.322 
	L 29.764, 13.323 
	L 29.764, 0.000 
" />
<path d="M 34.016, 13.322 
	L 34.016, 13.323 
	L 34.016, 0.000 
" />
<path d="M 38.268, 13.322 
	L 38.268, 13.323 
	L 38.268, 0.000 
" />
<path d="M 42.520, 13.322 
	L 42.520, 13.323 
	L 42.520, 0.000 
" />
<path d="M 46.772, 13.322 
	L 46.772, 13.323 
	L 46.772, 0.000 
" />
<path d="M 51.024, 13.322 
	L 51.024, 13.323 
	L 51.024, 0.000 
" />
<path d="M 55.276, 13.322 
	L 55.276, 13.323 
	L 55.276, 0.000 
" />
<path d="M 59.528, 13.322 
	L 59.528, 13.323 
	L 59.528, 0.000 
" />
<path d="M 63.780, 13.322 
	L 63.780, 13.323 
	L 63.780, 0.000 
" />
<path d="M 68.032, 13.322 
	L 68.032, 13.323 
	L 68.032, 0.000 
" />
<path d="M 72.284, 13.322 
	L 72.283, 13.323 
	L 72.283, 0.000 
" />
<path d="M 76.536, 13.322 
	L 76.535, 13.323 
	L 76.535, 0.000 
" />
<path d="M 80.788, 13.322 
	L 80.787, 13.323 
	L 80.787, 0.000 
" />
<path d="M 85.040, 13.322 
	L 85.039, 13.323 
	L 85.039, 0.000 
" />
<path d="M 89.292, 13.322 
	L 89.291, 13.323 
	L 89.291, 0.000 
" />
<path d="M 93.544, 13.322 
	L 93.543, 13.323 
	L 93.543, 0.000 
" />
<path d="M 97.796, 13.322 
	L 97.795, 13.323 
	L 97.795, 0.000 
" />
<path d="M 102.048, 13.322 
	L 102.047, 13.323 
	L 102.047, 0.000 
" />
<path d="M 106.300, 13.322 
	L 106.299, 13.323 
	L 106.299, 0.000 
" />
<path d="M 110.552, 13.322 
	L 110.551, 13.323 
	L 110.551, 0.000 
" />
<path d="M 114.804, 13.322 
	L 114.803, 13.323 
	L 114.803, 0.000 
" />
<path d="M 119.056, 13.322 
	L 119.055, 13.323 
	L 119.055, 0.000 
" />
<path d="M 123.308, 13.322 
	L 123.307, 13.323 
	L 123.307, 0.000 
" />
<path d="M 127.560, 13.322 
	L 127.559, 13.323 
	L 127.559, 0.000 
" />
<path d="M 131.812, 13.322 
	L 131.811, 13.323 
	L 131.811, 0.000 
" />
<path d="M 136.064, 13.322 
	L 136.063, 13.323 
	L 136.063, 0.000 
" />
<path d="M 140.316, 13.322 
	L 140.315, 13.323 
	L 140.315, 0.000 
" />
<path d="M 144.568, 13.322 
	L 144.567, 13.323 
	L 144.567, 0.000 
" />
<path d="M 148.820, 13.322 
	L 148.819, 13.323 
	L 148.819, 0.000 
" />
<path d="M 153.072, 13.322 
	L 153.071, 13.323 
	L 153.071, 0.000 
" />
<path d="M 157.324, 13.322 
	L 157.323, 13.323 
	L 157.323, 0.000 
" />
<path d="M 161.576, 13.322 
	L 161.575, 13.323 
	L 161.575, 0.000 
" />
<path d="M 165.828, 13.322 
	L 165.827, 13.323 
	L 165.827, 0.000 
" />
<path d="M 170.079, 13.322 
	L 170.079, 13.323 
	L 170.079, 0.000 
" />
<path d="M 174.331, 13.322 
	L 174.331, 13.323 
	L 174.331, 0.000 
" />
<path d="M 182.765, 13.322 
	L 182.764, 13.323 
	L 182.764, 0.000 
" />
<path d="M 187.016, 13.322 
	L 187.016, 13.323 
	L 187.016, 0.000 
" />
<path d="M 191.268, 13.322 
	L 191.268, 13.323 
	L 191.268, 0.000 
" />
<path d="M 195.520, 13.322 
	L 195.520, 13.323 
	L 195.520, 0.000 
" />
<path d="M 182.765, 452.834 
	L 182.764, 452.835 
	L 182.764, 13.323 
" />
<path d="M 187.371, 452.834 
	L 187.370, 452.835 
	L 187.370, 13.323 
" />
<path d="M 191.977, 452.834 
	L 191.976, 452.835 
	L 191.976, 13.323 
" />
<path d="M 201.048, 452.834 
	L 201.047, 452.835 
	L 201.047, 441.425 
" />
<path d="M 205.654, 452.834 
	L 205.654, 452.835 
	L 205.654, 441.425 
" />
<path d="M 210.261, 452.834 
	L 210.260, 452.835 
	L 210.260, 441.425 
" />
<path d="M 214.867, 452.834 
	L 214.866, 452.835 
	L 214.866, 441.425 
" />
<path d="M 219.473, 452.834 
	L 219.472, 452.835 
	L 219.472, 441.425 
" />
<path d="M 224.079, 452.834 
	L 224.079, 452.835 
	L 224.079, 441.425 
" />
<path d="M 228.686, 452.834 
	L 228.685, 452.835 
	L 228.685, 441.425 
" />
<path d="M 233.292, 452.834 
	L 233.291, 452.835 
	L 233.291, 441.425 
" />
<path d="M 237.898, 452.834 
	L 237.898, 452.835 
	L 237.898, 441.425 
" />
<path d="M 242.505, 452.834 
	L 242.504, 452.835 
	L 242.504, 441.425 
" />
<path d="M 247.111, 452.834 
	L 247.110, 452.835 
	L 247.110, 441.425 
" />
<path d="M 251.717, 452.834 
	L 251.717, 452.835 
	L 251.717, 441.425 
" />
<path d="M 256.324, 452.834 
	L 256.323, 452.835 
	L 256.323, 441.425 
" />
<path d="M 260.930, 452.834 
	L 260.929, 452.835 
	L 260.929, 441.425 
" />
<path d="M 265.536, 452.834 
	L 265.535, 452.835 
	L 265.535, 441.425 
" />
<path d="M 270.142, 452.834 
	L 270.142, 452.835 
	L 270.142, 441.425 
" />
<path d="M 274.749, 452.834 
	L 274.748, 452.835 
	L 274.748, 441.425 
" />
<path d="M 279.355, 452.834 
	L 279.354, 452.835 
	L 279.354, 441.425 
" />
<path d="M 283.961, 452.834 
	L 283.961, 452.835 
	L 283.961, 441.425 
" />
<path d="M 288.568, 452.834 
	L 288.567, 452.835 
	L 288.567, 441.425 
" />
<path d="M 293.174, 452.834 
	L 293.173, 452.835 
	L 293.173, 441.425 
" />
<path d="M 297.780, 452.834 
	L 297.780, 452.835 
	L 297.780, 441.425 
" />
<path d="M 302.387, 452.834 
	L 302.386, 452.835 
	L 302.386, 441.425 
" />
<path d="M 306.993, 452.834 
	L 306.992, 452.835 
	L 306.992, 441.425 
" />
<path d="M 311.599, 452.834 
	L 311.598, 452.835 
	L 311.598, 441.425 
" />
<path d="M 316.205, 452.834 
	L 316.205, 452.835 
	L 316.205, 441.425 
" />
<path d="M 320.812, 452.834 
	L 320.811, 452.835 
	L 320.811, 441.425 
" />
<path d="M 325.418, 452.834 
	L 325.417, 452.835 
	L 325.417, 441.425 
" />
<path d="M 330.024, 452.834 
	L 330.024, 452.835 
	L 330.024, 441.425 
" />
<path d="M 334.631, 452.834 
	L 334.630, 452.835 
	L 334.630, 441.425 
" />
<path d="M 339.237, 452.834 
	L 339.236, 452.835 
	L 339.236, 441.425 
" />
<path d="M 343.843, 452.834 
	L 343.843, 452.835 
	L 343.843, 441.425 
" />
<path d="M 348.450, 452.834 
	L 348.449, 452.835 
	L 348.449, 441.425 
" />
<path d="M 353.056, 452.834 
	L 353.055, 452.835 
	L 353.055, 441.425 
" />
<path d="M 357.662, 452.834 
	L 357.661, 452.835 
	L 357.661, 441.425 
" />
<path d="M 362.268, 452.834 
	L 362.268, 452.835 
	L 362.268, 441.425 
" />
<path d="M 366.875, 452.834 
	L 366.874, 452.835 
	L 366.874, 441.425 
" />
<path d="M 371.481, 452.834 
	L 371.480, 452.835 
	L 371.480, 441.425 
" />
<path d="M 376.087, 452.834 
	L 376.087, 452.835 
	L 376.087, 441.425 
" />
<path d="M 380.694, 452.834 
	L 380.693, 452.835 
	L 380.693, 441.425 
" />
<path d="M 385.300, 452.834 
	L 385.299, 452.835 
	L 385.299, 441.425 
" />
<path d="M 389.906, 452.834 
	L 389.906, 452.835 
	L 389.906, 441.425 
" />
<path d="M 394.513, 452.834 
	L 394.512, 452.835 
	L 394.512, 441.425 
" />
<path d="M 399.119, 452.834 
	L 399.118, 452.835 
	L 399.118, 441.425 
" />
<path d="M 403.725, 452.834 
	L 403.724, 452.835 
	L 403.724, 441.425 
" />
<path d="M 408.331, 452.834 
	L 408.331, 452.835 
	L 408.331, 441.425 
" />
<path d="M 412.938, 452.834 
	L 412.937, 452.835 
	L 412.937, 441.425 
" />
<path d="M 417.544, 452.834 
	L 417.543, 452.835 
	L 417.543, 441.425 
" />
<path d="M 422.150, 452.834 
	L 422.150, 452.835 
	L 422.150, 441.425 
" />
<path d="M 426.757, 452.834 
	L 426.756, 452.835 
	L 426.756, 441.425 
" />
<path d="M 431.363, 452.834 
	L 431.362, 452.835 
	L 431.362, 441.425 
" />
<path d="M 435.969, 452.834 
	L 435.969, 452.835 
	L 435.969, 441.425 
" />
<path d="M 440.576, 452.834 
	L 440.575, 452.835 
	L 440.575, 441.425 
" />
<path d="M 445.182, 452.834 
	L 445.181, 452.835 
	L 445.181, 441.425 
" />
<path d="M 449.788, 452.834 
	L 449.787, 452.835 
	L 449.787, 441.425 
" />
<path d="M 454.394, 452.834 
	L 454.394, 452.835 
	L 454.394, 441.425 
" />
<path d="M 459.001, 452.834 
	L 459.000, 452.835 
	L 459.000, 441.425 
" />
<path d="M 463.607, 452.834 
	L 463.606, 452.835 
	L 463.606, 441.425 
" />
<path d="M 468.213, 452.834 
	L 468.213, 452.835 
	L 468.213, 441.425 
" />
<path d="M 472.820, 452.834 
	L 472.819, 452.835 
	L 472.819, 441.425 
" />
<path d="M 477.426, 452.834 
	L 477.425, 452.835 
	L 477.425, 441.425 
" />
<path d="M 482.032, 452.834 
	L 482.032, 452.835 
	L 482.032, 441.425 
" />
<path d="M 486.639, 452.834 
	L 486.638, 452.835 
	L 486.638, 441.425 
" />
<path d="M 491.245, 452.834 
	L 491.244, 452.835 
	L 491.244, 441.425 
" />
<path d="M 495.851, 452.834 
	L 495.850, 452.835 
	L 495.850, 441.425 
" />
<path d="M 500.457, 452.834 
	L 500.457, 452.835 
	L 500.457, 441.425 
" />
<path d="M 505.064, 452.834 
	L 505.063, 452.835 
	L 505.063, 441.425 
" />
<path d="M 509.670, 452.834 
	L 509.669, 452.835 
	L 509.669, 441.425 
" />
<path d="M 514.276, 452.834 
	L 514.276, 452.835 
	L 514.276, 441.425 
" />
<path d="M 518.883, 452.834 
	L 518.882, 452.835 
	L 518.882, 441.425 
" />
<path d="M 523.489, 452.834 
	L 523.488, 452.835 
	L 523.488, 441.425 
" />
<path d="M 528.095, 452.834 
	L 528.095, 452.835 
	L 528.095, 441.425 
" />
<path d="M 532.702, 452.834 
	L 532.701, 452.835 
	L 532.701, 441.425 
" />
<path d="M 537.308, 452.834 
	L 537.307, 452.835 
	L 537.307, 441.425 
" />
<path d="M 541.914, 452.834 
	L 541.913, 452.835 
	L 541.913, 441.425 
" />
<path d="M 546.520, 452.834 
	L 546.520, 452.835 
	L 546.520, 441.425 
" />
<path d="M 551.127, 452.834 
	L 551.126, 452.835 
	L 551.126, 441.425 
" />
<path d="M 555.733, 452.834 
	L 555.732, 452.835 
	L 555.732, 441.425 
" />
<path d="M 560.339, 452.834 
	L 560.339, 452.835 
	L 560.339, 441.425 
" />
<path d="M 564.946, 452.834 
	L 564.945, 452.835 
	L 564.945, 441.425 
" />
<path d="M 569.552, 452.834 
	L 569.551, 452.835 
	L 569.551, 441.425 
" />
<path d="M 574.158, 452.834 
	L 574.158, 452.835 
	L 574.158, 441.425 
" />
<path d="M 578.765, 452.834 
	L 578.764, 452.835 
	L 578.764, 441.425 
" />
<path d="M 583.371, 452.834 
	L 583.370, 452.835 
	L 583.370, 441.425 
" />
<path d="M 587.977, 452.834 
	L 587.976, 452.835 
	L 587.976, 441.425 
" />
<path d="M 201.048, 441.425 
	L 201.047, 441.425 
	L 201.047, 0.000 
" />
<path d="M 205.583, 441.425 
	L 205.583, 441.425 
	L 205.583, 0.000 
" />
<path d="M 210.119, 441.425 
	L 210.118, 441.425 
	L 210.118, 0.000 
" />
<path d="M 214.654, 441.425 
	L 214.654, 441.425 
	L 214.654, 0.000 
" />
<path d="M 219.190, 441.425 
	L 219.189, 441.425 
	L 219.189, 0.000 
" />
<path d="M 223.725, 441.425 
	L 223.724, 441.425 
	L 223.724, 0.000 
" />
<path d="M 228.261, 441.425 
	L 228.260, 441.425 
	L 228.260, 0.000 
" />
<path d="M 232.796, 441.425 
	L 232.795, 441.425 
	L 232.795, 0.000 
" />
<path d="M 237.331, 441.425 
	L 237.331, 441.425 
	L 237.331, 0.000 
" />
<path d="M 241.867, 441.425 
	L 241.866, 441.425 
	L 241.866, 0.000 
" />
<path d="M 246.402, 441.425 
	L 246.402, 441.425 
	L 246.402, 0.000 
" />
<path d="M 250.938, 441.425 
	L 250.937, 441.425 
	L 250.937, 0.000 
" />
<path d="M 255.473, 441.425 
	L 255.472, 441.425 
	L 255.472, 0.000 
" />
<path d="M 260.009, 441.425 
	L 260.008, 441.425 
	L 260.008, 0.000 
" />
<path d="M 264.544, 441.425 
	L 264.543, 441.425 
	L 264.543, 0.000 
" />
<path d="M 269.079, 441.425 
	L 269.079, 441.425 
	L 269.079, 0.000 
" />
<path d="M 273.615, 441.425 
	L 273.614, 441.425 
	L 273.614, 0.000 
" />
<path d="M 278.150, 441.425 
	L 278.150, 441.425 
	L 278.150, 0.000 
" />
<path d="M 282.686, 441.425 
	L 282.685, 441.425 
	L 282.685, 0.000 
" />
<path d="M 287.221, 441.425 
	L 287.221, 441.425 
	L 287.221, 0.000 
" />
<path d="M 291.757, 441.425 
	L 291.756, 441.425 
	L 291.756, 0.000 
" />
<path d="M 296.292, 441.425 
	L 296.291, 441.425 
	L 296.291, 0.000 
" />
<path d="M 300.828, 441.425 
	L 300.827, 441.425 
	L 300.827, 0.000 
" />
<path d="M 305.363, 441.425 
	L 305.362, 441.425 
	L 305.362, 0.000 
" />
<path d="M 309.898, 441.425 
	L 309.898, 441.425 
	L 309.898, 0.000 
" />
<path d="M 314.434, 441.425 
	L 314.433, 441.425 
	L 314.433, 0.000 
" />
<path d="M 318.969, 441.425 
	L 318.969, 441.425 
	L 318.969, 0.000 
" />
<path d="M 323.505, 441.425 
	L 323.504, 441.425 
	L 323.504, 0.000 
" />
<path d="M 328.040, 441.425 
	L 328.039, 441.425 
	L 328.039, 0.000 
" />
<path d="M 332.576, 441.425 
	L 332.575, 441.425 
	L 332.575, 0.000 
" />
<path d="M 337.111, 441.425 
	L 337.110, 441.425 
	L 337.110, 0.000 
" />
<path d="M 341.646, 441.425 
	L 341.646, 441.425 
	L 341.646, 0.000 
" />
<path d="M 346.182, 441.425 
	L 346.181, 441.425 
	L 346.181, 0.000 
" />
<path d="M 350.717, 441.425 
	L 350.717, 441.425 
	L 350.717, 0.000 
" />
<path d="M 355.253, 441.425 
	L 355.252, 441.425 
	L 355.252, 0.000 
" />
<path d="M 359.788, 441.425 
	L 359.787, 441.425 
	L 359.787, 0.000 
" />
<path d="M 364.324, 441.425 
	L 364.323, 441.425 
	L 364.323, 0.000 
" />
<path d="M 368.859, 441.425 
	L 368.858, 441.425 
	L 368.858, 0.000 
" />
<path d="M 373.394, 441.425 
	L 373.394, 441.425 
	L 373.394, 0.000 
" />
<path d="M 377.930, 441.425 
	L 377.929, 441.425 
	L 377.929, 0.000 
" />
<path d="M 382.465, 441.425 
	L 382.465, 441.425 
	L 382.465, 0.000 
" />
<path d="M 387.001, 441.425 
	L 387.000, 441.425 
	L 387.000, 0.000 
" />
<path d="M 391.536, 441.425 
	L 391.535, 441.425 
	L 391.535, 0.000 
" />
<path d="M 396.072, 441.425 
	L 396.071, 441.425 
	L 396.071, 0.000 
" />
<path d="M 400.607, 441.425 
	L 400.606, 441.425 
	L 400.606, 0.000 
" />
<path d="M 405.142, 441.425 
	L 405.142, 441.425 
	L 405.142, 0.000 
" />
<path d="M 409.678, 441.425 
	L 409.677, 441.425 
	L 409.677, 0.000 
" />
<path d="M 414.213, 441.425 
	L 414.213, 441.425 
	L 414.213, 0.000 
" />
<path d="M 418.749, 441.425 
	L 418.748, 441.425 
	L 418.748, 0.000 
" />
<path d="M 423.284, 441.425 
	L 423.284, 441.425 
	L 423.284, 0.000 
" />
<path d="M 427.820, 441.425 
	L 427.819, 441.425 
	L 427.819, 0.000 
" />
<path d="M 432.355, 441.425 
	L 432.354, 441.425 
	L 432.354, 0.000 
" />
<path d="M 436.891, 441.425 
	L 436.890, 441.425 
	L 436.890, 0.000 
" />
<path d="M 441.426, 441.425 
	L 441.425, 441.425 
	L 441.425, 0.000 
" />
<path d="M 445.961, 441.425 
	L 445.961, 441.425 
	L 445.961, 0.000 
" />
<path d="M 450.497, 441.425 
	L 450.496, 441.425 
	L 450.496, 0.000 
" />
<path d="M 455.032, 441.425 
	L 455.032, 441.425 
	L 455.032, 0.000 
" />
<path d="M 459.568, 441.425 
	L 459.567, 441.425 
	L 459.567, 0.000 
" />
<path d="M 464.103, 441.425 
	L 464.102, 441.425 
	L 464.102, 0.000 
" />
<path d="M 468.639, 441.425 
	L 468.638, 441.425 
	L 468.638, 0.000 
" />
<path d="M 473.174, 441.425 
	L 473.173, 441.425 
	L 473.173, 0.000 
" />
<path d="M 477.709, 441.425 
	L 477.709, 441.425 
	L 477.709, 0.000 
" />
<path d="M 482.245, 441.425 
	L 482.244, 441.425 
	L 482.244, 0.000 
" />
<path d="M 486.780, 441.425 
	L 486.780, 441.425 
	L 486.780, 0.000 
" />
<path d="M 491.316, 441.425 
	L 491.315, 441.425 
	L 491.315, 0.000 
" />
<path d="M 495.851, 441.425 
	L 495.850, 441.425 
	L 495.850, 0.000 
" />
<path d="M 500.387, 441.425 
	L 500.386, 441.425 
	L 500.386, 0.000 
" />
<path d="M 504.922, 441.425 
	L 504.921, 441.425 
	L 504.921, 0.000 
" />
<path d="M 509.457, 441.425 
	L 509.457, 441.425 
	L 509.457, 0.000 
" />
<path d="M 513.993, 441.425 
	L 513.992, 441.425 
	L 513.992, 0.000 
" />
<path d="M 518.528, 441.425 
	L 518.528, 441.425 
	L 518.528, 0.000 
" />
<path d="M 523.064, 441.425 
	L 523.063, 441.425 
	L 523.063, 0.000 
" />
<path d="M 527.599, 441.425 
	L 527.599, 441.425 
	L 527.599, 0.000 
" />
<path d="M 532.135, 441.425 
	L 532.134, 441.425 
	L 532.134, 0.000 
" />
<path d="M 536.670, 441.425 
	L 536.669, 441.425 
	L 536.669, 0.000 
" />
<path d="M 541.205, 441.425 
	L 541.205, 441.425 
	L 541.205, 0.000 
" />
<path d="M 545.741, 441.425 
	L 545.740, 441.425 
	L 545.740, 0.000 
" />
<path d="M 550.276, 441.425 
	L 550.276, 441.425 
	L 550.276, 0.000 
" />
<path d="M 554.812, 441.425 
	L 554.811, 441.425 
	L 554.811, 0.000 
" />
<path d="M 559.347, 441.425 
	L 559.347, 441.425 
	L 559.347, 0.000 
" />
<path d="M 563.883, 441.425 
	L 563.882, 441.425 
	L 563.882, 0.000 
" />
<path d="M 568.418, 441.425 
	L 568.417, 441.425 
	L 568.417, 0.000 
" />
<path d="M 572.954, 441.425 
	L 572.953, 441.425 
	L 572.953, 0.000 
" />
<path d="M 577.489, 441.425 
	L 577.488, 441.425 
	L 577.488, 0.000 
" />
<path d="M 582.024, 441.425 
	L 582.024, 441.425 
	L 582.024, 0.000 
" />
<path d="M 586.560, 441.425 
	L 586.559, 441.425 
	L 586.559, 0.000 
" />
<path d="M 594.284, 441.425 
	L 594.284, 441.425 
	L 594.284, 0.000 
" />
<path d="M 599.954, 441.425 
	L 599.953, 441.425 
	L 599.953, 0.000 
" />
<path d="M 605.623, 441.425 
	L 605.622, 441.425 
	L 605.622, 0.000 
" />
<path d="M 611.292, 441.425 
	L 611.291, 441.425 
	L 611.291, 0.000 
" />
<path d="M 616.961, 441.425 
	L 616.961, 441.425 
	L 616.961, 0.000 
" />
<path d="M 622.631, 441.425 
	L 622.630, 441.425 
	L 622.630, 0.000 
" />
<path d="M 628.300, 441.425 
	L 628.299, 441.425 
	L 628.299, 0.000 
" />
<path d="M 633.969, 441.425 
	L 633.969, 441.425 
	L 633.969, 0.000 
" />
<path d="M 639.639, 441.425 
	L 639.638, 441.425 
	L 639.638, 0.000 
" />
<path d="M 645.308, 441.425 
	L 645.307, 441.425 
	L 645.307, 0.000 
" />
<path d="M 650.977, 441.425 
	L 650.976, 441.425 
	L 650.976, 0.000 
" />
<path d="M 656.646, 441.425 
	L 656.646, 441.425 
	L 656.646, 0.000 
" />
<path d="M 662.316, 441.425 
	L 662.315, 441.425 
	L 662.315, 0.000 
" />
<path d="M 667.985, 441.425 
	L 667.984, 441.425 
	L 667.984, 0.000 
" />
<path d="M 673.654, 441.425 
	L 673.654, 441.425 
	L 673.654, 0.000 
" />
<path d="M 679.324, 441.425 
	L 679.323, 441.425 
	L 679.323, 0.000 
" />
<path d="M 684.993, 441.425 
	L 684.992, 441.425 
	L 684.992, 0.000 
" />
<path d="M 690.662, 441.425 
	L 690.662, 441.425 
	L 690.662, 0.000 
" />
<path d="M 696.332, 441.425 
	L 696.331, 441.425 
	L 696.331, 0.000 
" />
<path d="M 702.001, 441.425 
	L 702.000, 441.425 
	L 702.000, 0.000 
" />
<path d="M 594.284, 452.834 
	L 594.284, 452.835 
	L 594.284, 441.425 
" />
<path d="M 598.536, 452.834 
	L 598.536, 452.835 
	L 598.536, 441.425 
" />
<path d="M 602.788, 452.834 
	L 602.787, 452.835 
	L 602.787, 441.425 
" />
<path d="M 607.040, 452.834 
	L 607.039, 452.835 
	L 607.039, 441.425 
" />
<path d="M 611.292, 452.834 
	L 611.291, 452.835 
	L 611.291, 441.425 
" />
<path d="M 615.544, 452.834 
	L 615.543, 452.835 
	L 615.543, 441.425 
" />
<path d="M 619.796, 452.834 
	L 619.795, 452.835 
	L 619.795, 441.425 
" />
<path d="M 624.048, 452.834 
	L 624.047, 452.835 
	L 624.047, 441.425 
" />
<path d="M 628.300, 452.834 
	L 628.299, 452.835 
	L 628.299, 441.425 
" />
<path d="M 632.552, 452.834 
	L 632.551, 452.835 
	L 632.551, 441.425 
" />
<path d="M 636.804, 452.834 
	L 636.803, 452.835 
	L 636.803, 441.425 
" />
<path d="M 641.056, 452.834 
	L 641.055, 452.835 
	L 641.055, 441.425 
" />
<path d="M 645.308, 452.834 
	L 645.307, 452.835 
	L 645.307, 441.425 
" />
<path d="M 649.560, 452.834 
	L 649.559, 452.835 
	L 649.559, 441.425 
" />
<path d="M 653.812, 452.834 
	L 653.811, 452.835 
	L 653.811, 441.425 
" />
<path d="M 658.064, 452.834 
	L 658.063, 452.835 
	L 658.063, 441.425 
" />
<path d="M 662.316, 452.834 
	L 662.315, 452.835 
	L 662.315, 441.425 
" />
<path d="M 666.568, 452.834 
	L 666.567, 452.835 
	L 666.567, 441.425 
" />
<path d="M 670.820, 452.834 
	L 670.819, 452.835 
	L 670.819, 441.425 
" />
<path d="M 675.072, 452.834 
	L 675.071, 452.835 
	L 675.071, 441.425 
" />
<path d="M 679.324, 452.834 
	L 679.323, 452.835 
	L 679.323, 441.425 
" />
<path d="M 683.576, 452.834 
	L 683.575, 452.835 
	L 683.575, 441.425 
" />
<path d="M 687.828, 452.834 
	L 687.827, 452.835 
	L 687.827, 441.425 
" />
<path d="M 692.080, 452.834 
	L 692.079, 452.835 
	L 692.079, 441.425 
" />
<path d="M 696.332, 452.834 
	L 696.331, 452.835 
	L 696.331, 441.425 
" />
<path d="M 700.583, 452.834 
	L 700.583, 452.835 
	L 700.583, 441.425 
" />
<path d="M 201.048, 708.661 
	L 201.047, 708.662 
	L 201.047, 546.945 
" />
<path d="M 205.654, 708.661 
	L 205.654, 708.662 
	L 205.654, 546.945 
" />
<path d="M 210.261, 708.661 
	L 210.260, 708.662 
	L 210.260, 546.945 
" />
<path d="M 214.867, 708.661 
	L 214.866, 708.662 
	L 214.866, 546.945 
" />
<path d="M 219.473, 708.661 
	L 219.472, 708.662 
	L 219.472, 546.945 
" />
<path d="M 224.079, 708.661 
	L 224.079, 708.662 
	L 224.079, 546.945 
" />
<path d="M 228.686, 708.661 
	L 228.685, 708.662 
	L 228.685, 546.945 
" />
<path d="M 233.292, 708.661 
	L 233.291, 708.662 
	L 233.291, 546.945 
" />
<path d="M 237.898, 708.661 
	L 237.898, 708.662 
	L 237.898, 546.945 
" />
<path d="M 242.505, 708.661 
	L 242.504, 708.662 
	L 242.504, 546.945 
" />
<path d="M 247.111, 708.661 
	L 247.110, 708.662 
	L 247.110, 546.945 
" />
<path d="M 251.717, 708.661 
	L 251.717, 708.662 
	L 251.717, 546.945 
" />
<path d="M 256.324, 708.661 
	L 256.323, 708.662 
	L 256.323, 546.945 
" />
<path d="M 260.930, 708.661 
	L 260.929, 708.662 
	L 260.929, 546.945 
" />
<path d="M 265.536, 708.661 
	L 265.535, 708.662 
	L 265.535, 546.945 
" />
<path d="M 270.142, 708.661 
	L 270.142, 708.662 
	L 270.142, 546.945 
" />
<path d="M 274.749, 708.661 
	L 274.748, 708.662 
	L 274.748, 546.945 
" />
<path d="M 279.355, 708.661 
	L 279.354, 708.662 
	L 279.354, 546.945 
" />
<path d="M 283.961, 708.661 
	L 283.961, 708.662 
	L 283.961, 546.945 
" />
<path d="M 288.568, 708.661 
	L 288.567, 708.662 
	L 288.567, 546.945 
" />
<path d="M 293.174, 708.661 
	L 293.173, 708.662 
	L 293.173, 546.945 
" />
<path d="M 297.780, 708.661 
	L 297.780, 708.662 
	L 297.780, 546.945 
" />
<path d="M 302.387, 708.661 
	L 302.386, 708.662 
	L 302.386, 546.945 
" />
<path d="M 306.993, 708.661 
	L 306.992, 708.662 
	L 306.992, 546.945 
" />
<path d="M 311.599, 708.661 
	L 311.598, 708.662 
	L 311.598, 546.945 
" />
<path d="M 316.205, 708.661 
	L 316.205, 708.662 
	L 316.205, 546.945 
" />
<path d="M 320.812, 708.661 
	L 320.811, 708.662 
	L 320.811, 546.945 
" />
<path d="M 325.418, 708.661 
	L 325.417, 708.662 
	L 325.417, 546.945 
" />
<path d="M 330.024, 708.661 
	L 330.024, 708.662 
	L 330.024, 546.945 
" />
<path d="M 334.631, 708.661 
	L 334.630, 708.662 
	L 334.630, 546.945 
" />
<path d="M 339.237, 708.661 
	L 339.236, 708.662 
	L 339.236, 546.945 
" />
<path d="M 343.843, 708.661 
	L 343.843, 708.662 
	L 343.843, 546.945 
" />
<path d="M 348.450, 708.661 
	L 348.449, 708.662 
	L 348.449, 546.945 
" />
<path d="M 353.056, 708.661 
	L 353.055, 708.662 
	L 353.055, 546.945 
" />
<path d="M 357.662, 708.661 
	L 357.661, 708.662 
	L 357.661, 546.945 
" />
<path d="M 362.268, 708.661 
	L 362.268, 708.662 
	L 362.268, 546.945 
" />
<path d="M 366.875, 708.661 
	L 366.874, 708.662 
	L 366.874, 546.945 
" />
<path d="M 371.481, 708.661 
	L 371.480, 708.662 
	L 371.480, 546.945 
" />
<path d="M 376.087, 708.661 
	L 376.087, 708.662 
	L 376.087, 546.945 
" />
<path d="M 380.694, 708.661 
	L 380.693, 708.662 
	L 380.693, 546.945 
" />
<path d="M 385.300, 708.661 
	L 385.299, 708.662 
	L 385.299, 546.945 
" />
<path d="M 389.906, 708.661 
	L 389.906, 708.662 
	L 389.906, 546.945 
" />
<path d="M 394.513, 708.661 
	L 394.512, 708.662 
	L 394.512, 546.945 
" />
<path d="M 399.119, 708.661 
	L 399.118, 708.662 
	L 399.118, 546.945 
" />
<path d="M 403.725, 708.661 
	L 403.724, 708.662 
	L 403.724, 546.945 
" />
<path d="M 408.331, 708.661 
	L 408.331, 708.662 
	L 408.331, 546.945 
" />
<path d="M 412.938, 708.661 
	L 412.937, 708.662 
	L 412.937, 546.945 
" />
<path d="M 417.544, 708.661 
	L 417.543, 708.662 
	L 417.543, 546.945 
" />
<path d="M 422.150, 708.661 
	L 422.150, 708.662 
	L 422.150, 546.945 
" />
<path d="M 426.757, 708.661 
	L 426.756, 708.662 
	L 426.756, 546.945 
" />
<path d="M 431.363, 708.661 
	L 431.362, 708.662 
	L 431.362, 546.945 
" />
<path d="M 435.969, 708.661 
	L 435.969, 708.662 
	L 435.969, 546.945 
" />
<path d="M 440.576, 708.661 
	L 440.575, 708.662 
	L 440.575, 546.945 
" />
<path d="M 445.182, 708.661 
	L 445.181, 708.662 
	L 445.181, 546.945 
" />
<path d="M 449.788, 708.661 
	L 449.787, 708.662 
	L 449.787, 546.945 
" />
<path d="M 454.394, 708.661 
	L 454.394, 708.662 
	L 454.394, 546.945 
" />
<path d="M 459.001, 708.661 
	L 459.000, 708.662 
	L 459.000, 546.945 
" />
<path d="M 463.607, 708.661 
	L 463.606, 708.662 
	L 463.606, 546.945 
" />
<path d="M 468.213, 708.661 
	L 468.213, 708.662 
	L 468.213, 546.945 
" />
<path d="M 472.820, 708.661 
	L 472.819, 708.662 
	L 472.819, 546.945 
" />
<path d="M 477.426, 708.661 
	L 477.425, 708.662 
	L 477.425, 546.945 
" />
<path d="M 482.032, 708.661 
	L 482.032, 708.662 
	L 482.032, 546.945 
" />
<path d="M 486.639, 708.661 
	L 486.638, 708.662 
	L 486.638, 546.945 
" />
<path d="M 491.245, 708.661 
	L 491.244, 708.662 
	L 491.244, 546.945 
" />
<path d="M 495.851, 708.661 
	L 495.850, 708.662 
	L 495.850, 546.945 
" />
<path d="M 500.457, 708.661 
	L 500.457, 708.662 
	L 500.457, 546.945 
" />
<path d="M 505.064, 708.661 
	L 505.063, 708.662 
	L 505.063, 546.945 
" />
<path d="M 509.670, 708.661 
	L 509.669, 708.662 
	L 509.669, 546.945 
" />
<path d="M 514.276, 708.661 
	L 514.276, 708.662 
	L 514.276, 546.945 
" />
<path d="M 518.883, 708.661 
	L 518.882, 708.662 
	L 518.882, 546.945 
" />
<path d="M 523.489, 708.661 
	L 523.488, 708.662 
	L 523.488, 546.945 
" />
<path d="M 528.095, 708.661 
	L 528.095, 708.662 
	L 528.095, 546.945 
" />
<path d="M 532.702, 708.661 
	L 532.701, 708.662 
	L 532.701, 546.945 
" />
<path d="M 537.308, 708.661 
	L 537.307, 708.662 
	L 537.307, 546.945 
" />
<path d="M 201.048, 546.944 
	L 201.047, 546.945 
	L 201.047, 452.835 
" />
<path d="M 206.363, 546.944 
	L 206.362, 546.945 
	L 206.362, 452.835 
" />
<path d="M 211.678, 546.944 
	L 211.677, 546.945 
	L 211.677, 452.835 
" />
<path d="M 216.993, 546.944 
	L 216.992, 546.945 
	L 216.992, 452.835 
" />
<path d="M 222.308, 546.944 
	L 222.307, 546.945 
	L 222.307, 452.835 
" />
<path d="M 227.623, 546.944 
	L 227.622, 546.945 
	L 227.622, 452.835 
" />
<path d="M 232.938, 546.944 
	L 232.937, 546.945 
	L 232.937, 452.835 
" />
<path d="M 238.253, 546.944 
	L 238.252, 546.945 
	L 238.252, 452.835 
" />
<path d="M 243.568, 546.944 
	L 243.567, 546.945 
	L 243.567, 452.835 
" />
<path d="M 248.883, 546.944 
	L 248.882, 546.945 
	L 248.882, 452.835 
" />
<path d="M 254.198, 546.944 
	L 254.197, 546.945 
	L 254.197, 452.835 
" />
<path d="M 259.513, 546.944 
	L 259.512, 546.945 
	L 259.512, 452.835 
" />
<path d="M 264.828, 546.944 
	L 264.827, 546.945 
	L 264.827, 452.835 
" />
<path d="M 270.142, 546.944 
	L 270.142, 546.945 
	L 270.142, 452.835 
" />
<path d="M 275.457, 546.944 
	L 275.457, 546.945 
	L 275.457, 452.835 
" />
<path d="M 280.772, 546.944 
	L 280.772, 546.945 
	L 280.772, 452.835 
" />
<path d="M 286.087, 546.944 
	L 286.087, 546.945 
	L 286.087, 452.835 
" />
<path d="M 291.402, 546.944 
	L 291.402, 546.945 
	L 291.402, 452.835 
" />
<path d="M 296.717, 546.944 
	L 296.717, 546.945 
	L 296.717, 452.835 
" />
<path d="M 302.032, 546.944 
	L 302.032, 546.945 
	L 302.032, 452.835 
" />
<path d="M 307.347, 546.944 
	L 307.347, 546.945 
	L 307.347, 452.835 
" />
<path d="M 312.662, 546.944 
	L 312.661, 546.945 
	L 312.661, 452.835 
" />
<path d="M 317.977, 546.944 
	L 317.976, 546.945 
	L 317.976, 452.835 
" />
<path d="M 323.292, 546.944 
	L 323.291, 546.945 
	L 323.291, 452.835 
" />
<path d="M 328.607, 546.944 
	L 328.606, 546.945 
	L 328.606, 452.835 
" />
<path d="M 333.922, 546.944 
	L 333.921, 546.945 
	L 333.921, 452.835 
" />
<path d="M 339.237, 546.944 
	L 339.236, 546.945 
	L 339.236, 452.835 
" />
<path d="M 344.552, 546.944 
	L 344.551, 546.945 
	L 344.551, 452.835 
" />
<path d="M 349.867, 546.944 
	L 349.866, 546.945 
	L 349.866, 452.835 
" />
<path d="M 355.182, 546.944 
	L 355.181, 546.945 
	L 355.181, 452.835 
" />
<path d="M 360.497, 546.944 
	L 360.496, 546.945 
	L 360.496, 452.835 
" />
<path d="M 365.812, 546.944 
	L 365.811, 546.945 
	L 365.811, 452.835 
" />
<path d="M 371.127, 546.944 
	L 371.126, 546.945 
	L 371.126, 452.835 
" />
<path d="M 376.442, 546.944 
	L 376.441, 546.945 
	L 376.441, 452.835 
" />
<path d="M 381.757, 546.944 
	L 381.756, 546.945 
	L 381.756, 452.835 
" />
<path d="M 387.072, 546.944 
	L 387.071, 546.945 
	L 387.071, 452.835 
" />
<path d="M 392.387, 546.944 
	L 392.386, 546.945 
	L 392.386, 452.835 
" />
<path d="M 397.702, 546.944 
	L 397.701, 546.945 
	L 397.701, 452.835 
" />
<path d="M 403.017, 546.944 
	L 403.016, 546.945 
	L 403.016, 452.835 
" />
<path d="M 408.331, 546.944 
	L 408.331, 546.945 
	L 408.331, 452.835 
" />
<path d="M 413.646, 546.944 
	L 413.646, 546.945 
	L 413.646, 452.835 
" />
<path d="M 418.961, 546.944 
	L 418.961, 546.945 
	L 418.961, 452.835 
" />
<path d="M 424.276, 546.944 
	L 424.276, 546.945 
	L 424.276, 452.835 
" />
<path d="M 429.591, 546.944 
	L 429.591, 546.945 
	L 429.591, 452.835 
" />
<path d="M 434.906, 546.944 
	L 434.906, 546.945 
	L 434.906, 452.835 
" />
<path d="M 440.221, 546.944 
	L 440.221, 546.945 
	L 440.221, 452.835 
" />
<path d="M 445.536, 546.944 
	L 445.536, 546.945 
	L 445.536, 452.835 
" />
<path d="M 450.851, 546.944 
	L 450.850, 546.945 
	L 450.850, 452.835 
" />
<path d="M 456.166, 546.944 
	L 456.165, 546.945 
	L 456.165, 452.835 
" />
<path d="M 461.481, 546.944 
	L 461.480, 546.945 
	L 461.480, 452.835 
" />
<path d="M 466.796, 546.944 
	L 466.795, 546.945 
	L 466.795, 452.835 
" />
<path d="M 472.111, 546.944 
	L 472.110, 546.945 
	L 472.110, 452.835 
" />
<path d="M 477.426, 546.944 
	L 477.425, 546.945 
	L 477.425, 452.835 
" />
<path d="M 482.741, 546.944 
	L 482.740, 546.945 
	L 482.740, 452.835 
" />
<path d="M 488.056, 546.944 
	L 488.055, 546.945 
	L 488.055, 452.835 
" />
<path d="M 493.371, 546.944 
	L 493.370, 546.945 
	L 493.370, 452.835 
" />
<path d="M 498.686, 546.944 
	L 498.685, 546.945 
	L 498.685, 452.835 
" />
<path d="M 504.001, 546.944 
	L 504.000, 546.945 
	L 504.000, 452.835 
" />
<path d="M 509.316, 546.944 
	L 509.315, 546.945 
	L 509.315, 452.835 
" />
<path d="M 514.631, 546.944 
	L 514.630, 546.945 
	L 514.630, 452.835 
" />
<path d="M 519.946, 546.944 
	L 519.945, 546.945 
	L 519.945, 452.835 
" />
<path d="M 525.261, 546.944 
	L 525.260, 546.945 
	L 525.260, 452.835 
" />
<path d="M 530.576, 546.944 
	L 530.575, 546.945 
	L 530.575, 452.835 
" />
<path d="M 535.891, 546.944 
	L 535.890, 546.945 
	L 535.890, 452.835 
" />
<path d="M 542.765, 546.944 
	L 542.764, 546.945 
	L 542.764, 452.835 
" />
<path d="M 548.080, 546.944 
	L 548.079, 546.945 
	L 548.079, 452.835 
" />
<path d="M 553.394, 546.944 
	L 553.394, 546.945 
	L 553.394, 452.835 
" />
<path d="M 558.709, 546.944 
	L 558.709, 546.945 
	L 558.709, 452.835 
" />
<path d="M 564.024, 546.944 
	L 564.024, 546.945 
	L 564.024, 452.835 
" />
<path d="M 569.339, 546.944 
	L 569.339, 546.945 
	L 569.339, 452.835 
" />
<path d="M 574.654, 546.944 
	L 574.654, 546.945 
	L 574.654, 452.835 
" />
<path d="M 579.969, 546.944 
	L 579.969, 546.945 
	L 579.969, 452.835 
" />
<path d="M 585.284, 546.944 
	L 585.284, 546.945 
	L 585.284, 452.835 
" />
<path d="M 590.599, 546.944 
	L 590.599, 546.945 
	L 590.599, 452.835 
" />
<path d="M 595.914, 546.944 
	L 595.913, 546.945 
	L 595.913, 452.835 
" />
<path d="M 601.229, 546.944 
	L 601.228, 546.945 
	L 601.228, 452.835 
" />
<path d="M 606.544, 546.944 
	L 606.543, 546.945 
	L 606.543, 452.835 
" />
<path d="M 611.859, 546.944 
	L 611.858, 546.945 
	L 611.858, 452.835 
" />
<path d="M 617.174, 546.944 
	L 617.173, 546.945 
	L 617.173, 452.835 
" />
<path d="M 622.489, 546.944 
	L 622.488, 546.945 
	L 622.488, 452.835 
" />
<path d="M 627.804, 546.944 
	L 627.803, 546.945 
	L 627.803, 452.835 
" />
<path d="M 633.119, 546.944 
	L 633.118, 546.945 
	L 633.118, 452.835 
" />
<path d="M 638.434, 546.944 
	L 638.433, 546.945 
	L 638.433, 452.835 
" />
<path d="M 643.749, 546.944 
	L 643.748, 546.945 
	L 643.748, 452.835 
" />
<path d="M 649.064, 546.944 
	L 649.063, 546.945 
	L 649.063, 452.835 
" />
<path d="M 654.379, 546.944 
	L 654.378, 546.945 
	L 654.378, 452.835 
" />
<path d="M 659.694, 546.944 
	L 659.693, 546.945 
	L 659.693, 452.835 
" />
<path d="M 665.009, 546.944 
	L 665.008, 546.945 
	L 665.008, 452.835 
" />
<path d="M 670.324, 546.944 
	L 670.323, 546.945 
	L 670.323, 452.835 
" />
<path d="M 675.639, 546.944 
	L 675.638, 546.945 
	L 675.638, 452.835 
" />
<path d="M 680.954, 546.944 
	L 680.953, 546.945 
	L 680.953, 452.835 
" />
<path d="M 686.269, 546.944 
	L 686.268, 546.945 
	L 686.268, 452.835 
" />
<path d="M 691.583, 546.944 
	L 691.583, 546.945 
	L 691.583, 452.835 
" />
<path d="M 696.898, 546.944 
	L 696.898, 546.945 
	L 696.898, 452.835 
" />
<path d="M 702.213, 546.944 
	L 702.213, 546.945 
	L 702.213, 452.835 
" />
<path d="M 542.765, 708.661 
	L 542.764, 708.662 
	L 542.764, 546.945 
" />
<path d="M 548.080, 708.661 
	L 548.079, 708.662 
	L 548.079, 546.945 
" />
<path d="M 553.394, 708.661 
	L 553.394, 708.662 
	L 553.394, 546.945 
" />
<path d="M 558.709, 708.661 
	L 558.709, 708.662 
	L 558.709, 546.945 
" />
<path d="M 564.024, 708.661 
	L 564.024, 708.662 
	L 564.024, 546.945 
" />
<path d="M 569.339, 708.661 
	L 569.339, 708.662 
	L 569.339, 546.945 
" />
<path d="M 574.654, 708.661 
	L 574.654, 708.662 
	L 574.654, 546.945 
" />
<path d="M 579.969, 708.661 
	L 579.969, 708.662 
	L 579.969, 546.945 
" />
<path d="M 585.284, 708.661 
	L 585.284, 708.662 
	L 585.284, 546.945 
" />
<path d="M 590.599, 708.661 
	L 590.599, 708.662 
	L 590.599, 546.945 
" />
<path d="M 595.914, 708.661 
	L 595.913, 708.662 
	L 595.913, 546.945 
" />
<path d="M 601.229, 708.661 
	L 601.228, 708.662 
	L 601.228, 546.945 
" />
<path d="M 606.544, 708.661 
	L 606.543, 708.662 
	L 606.543, 546.945 
" />
<path d="M 611.859, 708.661 
	L 611.858, 708.662 
	L 611.858, 546.945 
" />
<path d="M 617.174, 708.661 
	L 617.173, 708.662 
	L 617.173, 546.945 
" />
<path d="M 622.489, 708.661 
	L 622.488, 708.662 
	L 622.488, 546.945 
" />
<path d="M 627.804, 708.661 
	L 627.803, 708.662 
	L 627.803, 546.945 
" />
<path d="M 633.119, 708.661 
	L 633.118, 708.662 
	L 633.118, 546.945 
" />
<path d="M 638.434, 708.661 
	L 638.433, 708.662 
	L 638.433, 546.945 
" />
<path d="M 643.749, 708.661 
	L 643.748, 708.662 
	L 643.748, 546.945 
" />
<path d="M 649.064, 708.661 
	L 649.063, 708.662 
	L 649.063, 546.945 
" />
<path d="M 654.379, 708.661 
	L 654.378, 708.662 
	L 654.378, 546.945 
" />
<path d="M 659.694, 708.661 
	L 659.693, 708.662 
	L 659.693, 546.945 
" />
<path d="M 665.009, 708.661 
	L 665.008, 708.662 
	L 665.008, 546.945 
" />
<path d="M 670.324, 708.661 
	L 670.323, 708.662 
	L 670.323, 546.945 
" />
<path d="M 675.639, 708.661 
	L 675.638, 708.662 
	L 675.638, 546.945 
" />
<path d="M 680.954, 708.661 
	L 680.953, 708.662 
	L 680.953, 546.945 
" />
<path d="M 686.269, 708.661 
	L 686.268, 708.662 
	L 686.268, 546.945 
" />
<path d="M 691.583, 708.661 
	L 691.583, 708.662 
	L 691.583, 546.945 
" />
<path d="M 696.898, 708.661 
	L 696.898, 708.662 
	L 696.898, 546.945 
" />
<path d="M 702.213, 708.661 
	L 702.213, 708.662 
	L 702.213, 546.945 
" />
</g>
</svg>
