<?xml version="1.0" encoding="UTF-8" standalone="no" ?>
<svg width="100%" height="100%" viewBox="0 0 708.697 708.662" xmlns="http://www.w3.org/2000/svg"><g>
</g><g style="stroke:rgb(0,0,0); fill:none; stroke-width:1.000mm" >
</g><g style="stroke:rgb(0,255,0); fill:none; stroke-width:0.100mm" >
<path d="M 0.036, 708.661 
	L 0.035, 708.662 
	L 0.035, 0.000 
	L 708.697, 0.000 
	L 708.697, 708.662 
	L 0.035, 708.662 
" />
</g><g style="stroke:rgb(0,0,0); fill:none; stroke-width:0.100mm" >
<path d="M 0.036, 708.661 
	L 0.035, 708.662 
	L 0.035, 0.000 
	L 708.697, 0.000 
	L 708.697, 708.662 
	L 0.035, 708.662 
" />
<path d="M 0.036, 708.661 
	L 0.035, 708.662 
	L 0.035, 0.000 
" />
<path d="M 4.642, 708.661 
	L 4.642, 708.662 
	L 4.642, 0.000 
" />
<path d="M 9.249, 708.661 
	L 9.248, 708.662 
	L 9.248, 0.000 
" />
<path d="M 13.855, 708.661 
	L 13.854, 708.662 
	L 13.854, 0.000 
" />
<path d="M 18.461, 708.661 
	L 18.461, 708.662 
	L 18.461, 0.000 
" />
<path d="M 23.068, 708.661 
	L 23.067, 708.662 
	L 23.067, 0.000 
" />
<path d="M 27.674, 708.661 
	L 27.673, 708.662 
	L 27.673, 0.000 
" />
<path d="M 32.280, 708.661 
	L 32.280, 708.662 
	L 32.280, 0.000 
" />
<path d="M 36.887, 708.661 
	L 36.886, 708.662 
	L 36.886, 0.000 
" />
<path d="M 41.493, 708.661 
	L 41.492, 708.662 
	L 41.492, 0.000 
" />
<path d="M 46.099, 708.661 
	L 46.098, 708.662 
	L 46.098, 0.000 
" />
<path d="M 50.705, 708.661 
	L 50.705, 708.662 
	L 50.705, 0.000 
" />
<path d="M 55.312, 708.661 
	L 55.311, 708.662 
	L 55.311, 0.000 
" />
<path d="M 59.918, 708.661 
	L 59.917, 708.662 
	L 59.917, 0.000 
" />
<path d="M 64.524, 708.661 
	L 64.524, 708.662 
	L 64.524, 0.000 
" />
<path d="M 69.131, 708.661 
	L 69.130, 708.662 
	L 69.130, 0.000 
" />
<path d="M 73.737, 708.661 
	L 73.736, 708.662 
	L 73.736, 0.000 
" />
<path d="M 78.343, 708.661 
	L 78.343, 708.662 
	L 78.343, 0.000 
" />
<path d="M 82.950, 708.661 
	L 82.949, 708.662 
	L 82.949, 0.000 
" />
<path d="M 87.556, 708.661 
	L 87.555, 708.662 
	L 87.555, 0.000 
" />
<path d="M 92.162, 708.661 
	L 92.161, 708.662 
	L 92.161, 0.000 
" />
<path d="M 96.768, 708.661 
	L 96.768, 708.662 
	L 96.768, 0.000 
" />
<path d="M 101.375, 708.661 
	L 101.374, 708.662 
	L 101.374, 0.000 
" />
<path d="M 105.981, 708.661 
	L 105.980, 708.662 
	L 105.980, 0.000 
" />
<path d="M 110.587, 708.661 
	L 110.587, 708.662 
	L 110.587, 0.000 
" />
<path d="M 115.194, 708.661 
	L 115.193, 708.662 
	L 115.193, 0.000 
" />
<path d="M 119.800, 708.661 
	L 119.799, 708.662 
	L 119.799, 0.000 
" />
<path d="M 124.406, 708.661 
	L 124.406, 708.662 
	L 124.406, 0.000 
" />
<path d="M 129.013, 708.661 
	L 129.012, 708.662 
	L 129.012, 0.000 
" />
<path d="M 133.619, 708.661 
	L 133.618, 708.662 
	L 133.618, 0.000 
" />
<path d="M 138.225, 708.661 
	L 138.224, 708.662 
	L 138.224, 0.000 
" />
<path d="M 142.831, 708.661 
	L 142.831, 708.662 
	L 142.831, 0.000 
" />
<path d="M 147.438, 708.661 
	L 147.437, 708.662 
	L 147.437, 0.000 
" />
<path d="M 152.044, 708.661 
	L 152.043, 708.662 
	L 152.043, 0.000 
" />
<path d="M 156.650, 708.661 
	L 156.650, 708.662 
	L 156.650, 0.000 
" />
<path d="M 161.257, 708.661 
	L 161.256, 708.662 
	L 161.256, 0.000 
" />
<path d="M 165.863, 708.661 
	L 165.862, 708.662 
	L 165.862, 0.000 
" />
<path d="M 170.469, 708.661 
	L 170.469, 708.662 
	L 170.469, 0.000 
" />
<path d="M 175.076, 708.661 
	L 175.075, 708.662 
	L 175.075, 0.000 
" />
<path d="M 179.682, 708.661 
	L 179.681, 708.662 
	L 179.681, 0.000 
" />
<path d="M 184.288, 708.661 
	L 184.287, 708.662 
	L 184.287, 0.000 
" />
<path d="M 188.894, 708.661 
	L 188.894, 708.662 
	L 188.894, 0.000 
" />
<path d="M 193.501, 708.661 
	L 193.500, 708.662 
	L 193.500, 0.000 
" />
<path d="M 198.107, 708.661 
	L 198.106, 708.662 
	L 198.106, 0.000 
" />
<path d="M 202.713, 708.661 
	L 202.713, 708.662 
	L 202.713, 0.000 
" />
<path d="M 207.320, 708.661 
	L 207.319, 708.662 
	L 207.319, 0.000 
" />
<path d="M 211.926, 708.661 
	L 211.925, 708.662 
	L 211.925, 0.000 
" />
<path d="M 216.532, 708.661 
	L 216.532, 708.662 
	L 216.532, 0.000 
" />
<path d="M 221.139, 708.661 
	L 221.138, 708.662 
	L 221.138, 0.000 
" />
<path d="M 225.745, 708.661 
	L 225.744, 708.662 
	L 225.744, 0.000 
" />
<path d="M 230.351, 708.661 
	L 230.350, 708.662 
	L 230.350, 0.000 
" />
<path d="M 234.957, 708.661 
	L 234.957, 708.662 
	L 234.957, 0.000 
" />
<path d="M 239.564, 708.661 
	L 239.563, 708.662 
	L 239.563, 0.000 
" />
<path d="M 244.170, 708.661 
	L 244.169, 708.662 
	L 244.169, 0.000 
" />
<path d="M 248.776, 708.661 
	L 248.776, 708.662 
	L 248.776, 0.000 
" />
<path d="M 253.383, 708.661 
	L 253.382, 708.662 
	L 253.382, 0.000 
" />
<path d="M 257.989, 708.661 
	L 257.988, 708.662 
	L 257.988, 0.000 
" />
<path d="M 262.595, 708.661 
	L 262.595, 708.662 
	L 262.595, 0.000 
" />
<path d="M 267.202, 708.661 
	L 267.201, 708.662 
	L 267.201, 0.000 
" />
<path d="M 271.808, 708.661 
	L 271.807, 708.662 
	L 271.807, 0.000 
" />
<path d="M 276.414, 708.661 
	L 276.413, 708.662 
	L 276.413, 0.000 
" />
<path d="M 281.020, 708.661 
	L 281.020, 708.662 
	L 281.020, 0.000 
" />
<path d="M 285.627, 708.661 
	L 285.626, 708.662 
	L 285.626, 0.000 
" />
<path d="M 290.233, 708.661 
	L 290.232, 708.662 
	L 290.232, 0.000 
" />
<path d="M 294.839, 708.661 
	L 294.839, 708.662 
	L 294.839, 0.000 
" />
<path d="M 299.446, 708.661 
	L 299.445, 708.662 
	L 299.445, 0.000 
" />
<path d="M 304.052, 708.661 
	L 304.051, 708.662 
	L 304.051, 0.000 
" />
<path d="M 308.658, 708.661 
	L 308.658, 708.662 
	L 308.658, 0.000 
" />
<path d="M 313.265, 708.661 
	L 313.264, 708.662 
	L 313.264, 0.000 
" />
<path d="M 317.871, 708.661 
	L 317.870, 708.662 
	L 317.870, 0.000 
" />
<path d="M 322.477, 708.661 
	L 322.476, 708.662 
	L 322.476, 0.000 
" />
<path d="M 327.083, 708.661 
	L 327.083, 708.662 
	L 327.083, 0.000 
" />
<path d="M 331.690, 708.661 
	L 331.689, 708.662 
	L 331.689, 0.000 
" />
<path d="M 336.296, 708.661 
	L 336.295, 708.662 
	L 336.295, 0.000 
" />
<path d="M 340.902, 708.661 
	L 340.902, 708.662 
	L 340.902, 0.000 
" />
<path d="M 345.509, 708.661 
	L 345.508, 708.662 
	L 345.508, 0.000 
" />
<path d="M 350.115, 708.661 
	L 350.114, 708.662 
	L 350.114, 0.000 
" />
<path d="M 354.721, 708.661 
	L 354.721, 708.662 
	L 354.721, 0.000 
" />
<path d="M 359.328, 708.661 
	L 359.327, 708.662 
	L 359.327, 0.000 
" />
<path d="M 363.934, 708.661 
	L 363.933, 708.662 
	L 363.933, 0.000 
" />
<path d="M 368.540, 708.661 
	L 368.539, 708.662 
	L 368.539, 0.000 
" />
<path d="M 373.146, 708.661 
	L 373.146, 708.662 
	L 373.146, 0.000 
" />
<path d="M 377.753, 708.661 
	L 377.752, 708.662 
	L 377.752, 0.000 
" />
<path d="M 382.359, 708.661 
	L 382.358, 708.662 
	L 382.358, 0.000 
" />
<path d="M 386.965, 708.661 
	L 386.965, 708.662 
	L 386.965, 0.000 
" />
<path d="M 391.572, 708.661 
	L 391.571, 708.662 
	L 391.571, 0.000 
" />
<path d="M 396.178, 708.661 
	L 396.177, 708.662 
	L 396.177, 0.000 
" />
<path d="M 400.784, 708.661 
	L 400.784, 708.662 
	L 400.784, 0.000 
" />
<path d="M 405.391, 708.661 
	L 405.390, 708.662 
	L 405.390, 0.000 
" />
<path d="M 409.997, 708.661 
	L 409.996, 708.662 
	L 409.996, 0.000 
" />
<path d="M 414.603, 708.661 
	L 414.602, 708.662 
	L 414.602, 0.000 
" />
<path d="M 419.209, 708.661 
	L 419.209, 708.662 
	L 419.209, 0.000 
" />
<path d="M 423.816, 708.661 
	L 423.815, 708.662 
	L 423.815, 0.000 
" />
<path d="M 428.422, 708.661 
	L 428.421, 708.662 
	L 428.421, 0.000 
" />
<path d="M 433.028, 708.661 
	L 433.028, 708.662 
	L 433.028, 0.000 
" />
<path d="M 437.635, 708.661 
	L 437.634, 708.662 
	L 437.634, 0.000 
" />
<path d="M 442.241, 708.661 
	L 442.240, 708.662 
	L 442.240, 0.000 
" />
<path d="M 446.847, 708.661 
	L 446.847, 708.662 
	L 446.847, 0.000 
" />
<path d="M 451.454, 708.661 
	L 451.453, 708.662 
	L 451.453, 0.000 
" />
<path d="M 456.060, 708.661 
	L 456.059, 708.662 
	L 456.059, 0.000 
" />
<path d="M 460.666, 708.661 
	L 460.665, 708.662 
	L 460.665, 0.000 
" />
<path d="M 465.272, 708.661 
	L 465.272, 708.662 
	L 465.272, 0.000 
" />
<path d="M 469.879, 708.661 
	L 469.878, 708.662 
	L 469.878, 0.000 
" />
<path d="M 474.485, 708.661 
	L 474.484, 708.662 
	L 474.484, 0.000 
" />
<path d="M 479.091, 708.661 
	L 479.091, 708.662 
	L 479.091, 0.000 
" />
<path d="M 483.698, 708.661 
	L 483.697, 708.662 
	L 483.697, 0.000 
" />
<path d="M 488.304, 708.661 
	L 488.303, 708.662 
	L 488.303, 0.000 
" />
<path d="M 492.910, 708.661 
	L 492.910, 708.662 
	L 492.910, 0.000 
" />
<path d="M 497.517, 708.661 
	L 497.516, 708.662 
	L 497.516, 0.000 
" />
<path d="M 502.123, 708.661 
	L 502.122, 708.662 
	L 502.122, 0.000 
" />
<path d="M 506.729, 708.661 
	L 506.728, 708.662 
	L 506.728, 0.000 
" />
<path d="M 511.335, 708.661 
	L 511.335, 708.662 
	L 511.335, 0.000 
" />
<path d="M 515.942, 708.661 
	L 515.941, 708.662 
	L 515.941, 0.000 
" />
<path d="M 520.548, 708.661 
	L 520.547, 708.662 
	L 520.547, 0.000 
" />
<path d="M 525.154, 708.661 
	L 525.154, 708.662 
	L 525.154, 0.000 
" />
<path d="M 529.761, 708.661 
	L 529.760, 708.662 
	L 529.760, 0.000 
" />
<path d="M 534.367, 708.661 
	L 534.366, 708.662 
	L 534.366, 0.000 
" />
<path d="M 538.973, 708.661 
	L 538.973, 708.662 
	L 538.973, 0.000 
" />
<path d="M 543.580, 708.661 
	L 543.579, 708.662 
	L 543.579, 0.000 
" />
<path d="M 548.186, 708.661 
	L 548.185, 708.662 
	L 548.185, 0.000 
" />
<path d="M 552.792, 708.661 
	L 552.791, 708.662 
	L 552.791, 0.000 
" />
<path d="M 557.398, 708.661 
	L 557.398, 708.662 
	L 557.398, 0.000 
" />
<path d="M 562.005, 708.661 
	L 562.004, 708.662 
	L 562.004, 0.000 
" />
<path d="M 566.611, 708.661 
	L 566.610, 708.662 
	L 566.610, 0.000 
" />
<path d="M 571.217, 708.661 
	L 571.217, 708.662 
	L 571.217, 0.000 
" />
<path d="M 575.824, 708.661 
	L 575.823, 708.662 
	L 575.823, 0.000 
" />
<path d="M 580.430, 708.661 
	L 580.429, 708.662 
	L 580.429, 0.000 
" />
<path d="M 585.036, 708.661 
	L 585.036, 708.662 
	L 585.036, 0.000 
" />
<path d="M 589.643, 708.661 
	L 589.642, 708.662 
	L 589.642, 0.000 
" />
<path d="M 594.249, 708.661 
	L 594.248, 708.662 
	L 594.248, 0.000 
" />
<path d="M 598.855, 708.661 
	L 598.854, 708.662 
	L 598.854, 0.000 
" />
<path d="M 603.461, 708.661 
	L 603.461, 708.662 
	L 603.461, 0.000 
" />
<path d="M 608.068, 708.661 
	L 608.067, 708.662 
	L 608.067, 0.000 
" />
<path d="M 612.674, 708.661 
	L 612.673, 708.662 
	L 612.673, 0.000 
" />
<path d="M 617.280, 708.661 
	L 617.280, 708.662 
	L 617.280, 0.000 
" />
<path d="M 621.887, 708.661 
	L 621.886, 708.662 
	L 621.886, 0.000 
" />
<path d="M 626.493, 708.661 
	L 626.492, 708.662 
	L 626.492, 0.000 
" />
<path d="M 631.099, 708.661 
	L 631.099, 708.662 
	L 631.099, 0.000 
" />
<path d="M 635.706, 708.661 
	L 635.705, 708.662 
	L 635.705, 0.000 
" />
<path d="M 640.312, 708.661 
	L 640.311, 708.662 
	L 640.311, 0.000 
" />
<path d="M 644.918, 708.661 
	L 644.917, 708.662 
	L 644.917, 0.000 
" />
<path d="M 649.524, 708.661 
	L 649.524, 708.662 
	L 649.524, 0.000 
" />
<path d="M 654.131, 708.661 
	L 654.130, 708.662 
	L 654.130, 0.000 
" />
<path d="M 658.737, 708.661 
	L 658.736, 708.662 
	L 658.736, 0.000 
" />
<path d="M 663.343, 708.661 
	L 663.343, 708.662 
	L 663.343, 0.000 
" />
<path d="M 667.950, 708.661 
	L 667.949, 708.662 
	L 667.949, 0.000 
" />
<path d="M 672.556, 708.661 
	L 672.555, 708.662 
	L 672.555, 0.000 
" />
<path d="M 677.162, 708.661 
	L 677.162, 708.662 
	L 677.162, 0.000 
" />
<path d="M 681.769, 708.661 
	L 681.768, 708.662 
	L 681.768, 0.000 
" />
<path d="M 686.375, 708.661 
	L 686.374, 708.662 
	L 686.374, 0.000 
" />
<path d="M 690.981, 708.661 
	L 690.980, 708.662 
	L 690.980, 0.000 
" />
<path d="M 695.587, 708.661 
	L 695.587, 708.662 
	L 695.587, 0.000 
" />
<path d="M 700.194, 708.661 
	L 700.193, 708.662 
	L 700.193, 0.000 
" />
<path d="M 0.001, 708.661 
	L 0.000, 708.662 
	L 0.000, 678.756 
	L 304.512, 678.756 
	L 304.512, 708.662 
	L 0.000, 708.662 
" />
<path d="M 0.036, 708.661 
	L 0.035, 708.662 
	L 0.035, 678.756 
" />
<path d="M 4.642, 708.661 
	L 4.642, 708.662 
	L 4.642, 678.756 
" />
<path d="M 9.249, 708.661 
	L 9.248, 708.662 
	L 9.248, 678.756 
" />
<path d="M 13.855, 708.661 
	L 13.854, 708.662 
	L 13.854, 678.756 
" />
<path d="M 18.461, 708.661 
	L 18.461, 708.662 
	L 18.461, 678.756 
" />
<path d="M 23.068, 708.661 
	L 23.067, 708.662 
	L 23.067, 678.756 
" />
<path d="M 27.674, 708.661 
	L 27.673, 708.662 
	L 27.673, 678.756 
" />
<path d="M 32.280, 708.661 
	L 32.280, 708.662 
	L 32.280, 678.756 
" />
<path d="M 36.887, 708.661 
	L 36.886, 708.662 
	L 36.886, 678.756 
" />
<path d="M 41.493, 708.661 
	L 41.492, 708.662 
	L 41.492, 678.756 
" />
<path d="M 46.099, 708.661 
	L 46.098, 708.662 
	L 46.098, 678.756 
" />
<path d="M 50.705, 708.661 
	L 50.705, 708.662 
	L 50.705, 678.756 
" />
<path d="M 55.312, 708.661 
	L 55.311, 708.662 
	L 55.311, 678.756 
" />
<path d="M 59.918, 708.661 
	L 59.917, 708.662 
	L 59.917, 678.756 
" />
<path d="M 64.524, 708.661 
	L 64.524, 708.662 
	L 64.524, 678.756 
" />
<path d="M 69.131, 708.661 
	L 69.130, 708.662 
	L 69.130, 678.756 
" />
<path d="M 73.737, 708.661 
	L 73.736, 708.662 
	L 73.736, 678.756 
" />
<path d="M 78.343, 708.661 
	L 78.343, 708.662 
	L 78.343, 678.756 
" />
<path d="M 82.950, 708.661 
	L 82.949, 708.662 
	L 82.949, 678.756 
" />
<path d="M 87.556, 708.661 
	L 87.555, 708.662 
	L 87.555, 678.756 
" />
<path d="M 92.162, 708.661 
	L 92.161, 708.662 
	L 92.161, 678.756 
" />
<path d="M 96.768, 708.661 
	L 96.768, 708.662 
	L 96.768, 678.756 
" />
<path d="M 101.375, 708.661 
	L 101.374, 708.662 
	L 101.374, 678.756 
" />
<path d="M 105.981, 708.661 
	L 105.980, 708.662 
	L 105.980, 678.756 
" />
<path d="M 110.587, 708.661 
	L 110.587, 708.662 
	L 110.587, 678.756 
" />
<path d="M 115.194, 708.661 
	L 115.193, 708.662 
	L 115.193, 678.756 
" />
<path d="M 119.800, 708.661 
	L 119.799, 708.662 
	L 119.799, 678.756 
" />
<path d="M 124.406, 708.661 
	L 124.406, 708.662 
	L 124.406, 678.756 
" />
<path d="M 129.013, 708.661 
	L 129.012, 708.662 
	L 129.012, 678.756 
" />
<path d="M 133.619, 708.661 
	L 133.618, 708.662 
	L 133.618, 678.756 
" />
<path d="M 138.225, 708.661 
	L 138.224, 708.662 
	L 138.224, 678.756 
" />
<path d="M 142.831, 708.661 
	L 142.831, 708.662 
	L 142.831, 678.756 
" />
<path d="M 147.438, 708.661 
	L 147.437, 708.662 
	L 147.437, 678.756 
" />
<path d="M 152.044, 708.661 
	L 152.043, 708.662 
	L 152.043, 678.756 
" />
<path d="M 156.650, 708.661 
	L 156.650, 708.662 
	L 156.650, 678.756 
" />
<path d="M 161.257, 708.661 
	L 161.256, 708.662 
	L 161.256, 678.756 
" />
<path d="M 165.863, 708.661 
	L 165.862, 708.662 
	L 165.862, 678.756 
" />
<path d="M 170.469, 708.661 
	L 170.469, 708.662 
	L 170.469, 678.756 
" />
<path d="M 175.076, 708.661 
	L 175.075, 708.662 
	L 175.075, 678.756 
" />
<path d="M 179.682, 708.661 
	L 179.681, 708.662 
	L 179.681, 678.756 
" />
<path d="M 184.288, 708.661 
	L 184.287, 708.662 
	L 184.287, 678.756 
" />
<path d="M 188.894, 708.661 
	L 188.894, 708.662 
	L 188.894, 678.756 
" />
<path d="M 193.501, 708.661 
	L 193.500, 708.662 
	L 193.500, 678.756 
" />
<path d="M 198.107, 708.661 
	L 198.106, 708.662 
	L 198.106, 678.756 
" />
<path d="M 202.713, 708.661 
	L 202.713, 708.662 
	L 202.713, 678.756 
" />
<path d="M 207.320, 708.661 
	L 207.319, 708.662 
	L 207.319, 678.756 
" />
<path d="M 211.926, 708.661 
	L 211.925, 708.662 
	L 211.925, 678.756 
" />
<path d="M 216.532, 708.661 
	L 216.532, 708.662 
	L 216.532, 678.756 
" />
<path d="M 221.139, 708.661 
	L 221.138, 708.662 
	L 221.138, 678.756 
" />
<path d="M 225.745, 708.661 
	L 225.744, 708.662 
	L 225.744, 678.756 
" />
<path d="M 230.351, 708.661 
	L 230.350, 708.662 
	L 230.350, 678.756 
" />
<path d="M 234.957, 708.661 
	L 234.957, 708.662 
	L 234.957, 678.756 
" />
<path d="M 239.564, 708.661 
	L 239.563, 708.662 
	L 239.563, 678.756 
" />
<path d="M 244.170, 708.661 
	L 244.169, 708.662 
	L 244.169, 678.756 
" />
<path d="M 248.776, 708.661 
	L 248.776, 708.662 
	L 248.776, 678.756 
" />
<path d="M 253.383, 708.661 
	L 253.382, 708.662 
	L 253.382, 678.756 
" />
<path d="M 257.989, 708.661 
	L 257.988, 708.662 
	L 257.988, 678.756 
" />
<path d="M 262.595, 708.661 
	L 262.595, 708.662 
	L 262.595, 678.756 
" />
<path d="M 267.202, 708.661 
	L 267.201, 708.662 
	L 267.201, 678.756 
" />
<path d="M 271.808, 708.661 
	L 271.807, 708.662 
	L 271.807, 678.756 
" />
<path d="M 276.414, 708.661 
	L 276.413, 708.662 
	L 276.413, 678.756 
" />
<path d="M 281.020, 708.661 
	L 281.020, 708.662 
	L 281.020, 678.756 
" />
<path d="M 285.627, 708.661 
	L 285.626, 708.662 
	L 285.626, 678.756 
" />
<path d="M 290.233, 708.661 
	L 290.232, 708.662 
	L 290.232, 678.756 
" />
<path d="M 294.839, 708.661 
	L 294.839, 708.662 
	L 294.839, 678.756 
" />
<path d="M 299.446, 708.661 
	L 299.445, 708.662 
	L 299.445, 678.756 
" />
<path d="M 0.001, 678.755 
	L 0.000, 678.756 
	L 0.000, 0.000 
	L 304.512, 0.000 
	L 304.512, 678.756 
	L 0.000, 678.756 
" />
<path d="M 0.036, 678.755 
	L 0.035, 678.756 
	L 0.035, 0.000 
" />
<path d="M 4.642, 678.755 
	L 4.642, 678.756 
	L 4.642, 0.000 
" />
<path d="M 9.249, 678.755 
	L 9.248, 678.756 
	L 9.248, 0.000 
" />
<path d="M 13.855, 678.755 
	L 13.854, 678.756 
	L 13.854, 0.000 
" />
<path d="M 18.461, 678.755 
	L 18.461, 678.756 
	L 18.461, 0.000 
" />
<path d="M 23.068, 678.755 
	L 23.067, 678.756 
	L 23.067, 0.000 
" />
<path d="M 27.674, 678.755 
	L 27.673, 678.756 
	L 27.673, 0.000 
" />
<path d="M 32.280, 678.755 
	L 32.280, 678.756 
	L 32.280, 0.000 
" />
<path d="M 36.887, 678.755 
	L 36.886, 678.756 
	L 36.886, 0.000 
" />
<path d="M 41.493, 678.755 
	L 41.492, 678.756 
	L 41.492, 0.000 
" />
<path d="M 46.099, 678.755 
	L 46.098, 678.756 
	L 46.098, 0.000 
" />
<path d="M 50.705, 678.755 
	L 50.705, 678.756 
	L 50.705, 0.000 
" />
<path d="M 55.312, 678.755 
	L 55.311, 678.756 
	L 55.311, 0.000 
" />
<path d="M 59.918, 678.755 
	L 59.917, 678.756 
	L 59.917, 0.000 
" />
<path d="M 64.524, 678.755 
	L 64.524, 678.756 
	L 64.524, 0.000 
" />
<path d="M 69.131, 678.755 
	L 69.130, 678.756 
	L 69.130, 0.000 
" />
<path d="M 73.737, 678.755 
	L 73.736, 678.756 
	L 73.736, 0.000 
" />
<path d="M 78.343, 678.755 
	L 78.343, 678.756 
	L 78.343, 0.000 
" />
<path d="M 82.950, 678.755 
	L 82.949, 678.756 
	L 82.949, 0.000 
" />
<path d="M 87.556, 678.755 
	L 87.555, 678.756 
	L 87.555, 0.000 
" />
<path d="M 92.162, 678.755 
	L 92.161, 678.756 
	L 92.161, 0.000 
" />
<path d="M 96.768, 678.755 
	L 96.768, 678.756 
	L 96.768, 0.000 
" />
<path d="M 101.375, 678.755 
	L 101.374, 678.756 
	L 101.374, 0.000 
" />
<path d="M 105.981, 678.755 
	L 105.980, 678.756 
	L 105.980, 0.000 
" />
<path d="M 110.587, 678.755 
	L 110.587, 678.756 
	L 110.587, 0.000 
" />
<path d="M 115.194, 678.755 
	L 115.193, 678.756 
	L 115.193, 0.000 
" />
<path d="M 119.800, 678.755 
	L 119.799, 678.756 
	L 119.799, 0.000 
" />
<path d="M 124.406, 678.755 
	L 124.406, 678.756 
	L 124.406, 0.000 
" />
<path d="M 129.013, 678.755 
	L 129.012, 678.756 
	L 129.012, 0.000 
" />
<path d="M 133.619, 678.755 
	L 133.618, 678.756 
	L 133.618, 0.000 
" />
<path d="M 138.225, 678.755 
	L 138.224, 678.756 
	L 138.224, 0.000 
" />
<path d="M 142.831, 678.755 
	L 142.831, 678.756 
	L 142.831, 0.000 
" />
<path d="M 147.438, 678.755 
	L 147.437, 678.756 
	L 147.437, 0.000 
" />
<path d="M 152.044, 678.755 
	L 152.043, 678.756 
	L 152.043, 0.000 
" />
<path d="M 156.650, 678.755 
	L 156.650, 678.756 
	L 156.650, 0.000 
" />
<path d="M 161.257, 678.755 
	L 161.256, 678.756 
	L 161.256, 0.000 
" />
<path d="M 165.863, 678.755 
	L 165.862, 678.756 
	L 165.862, 0.000 
" />
<path d="M 170.469, 678.755 
	L 170.469, 678.756 
	L 170.469, 0.000 
" />
<path d="M 175.076, 678.755 
	L 175.075, 678.756 
	L 175.075, 0.000 
" />
<path d="M 179.682, 678.755 
	L 179.681, 678.756 
	L 179.681, 0.000 
" />
<path d="M 184.288, 678.755 
	L 184.287, 678.756 
	L 184.287, 0.000 
" />
<path d="M 188.894, 678.755 
	L 188.894, 678.756 
	L 188.894, 0.000 
" />
<path d="M 193.501, 678.755 
	L 193.500, 678.756 
	L 193.500, 0.000 
" />
<path d="M 198.107, 678.755 
	L 198.106, 678.756 
	L 198.106, 0.000 
" />
<path d="M 202.713, 678.755 
	L 202.713, 678.756 
	L 202.713, 0.000 
" />
<path d="M 207.320, 678.755 
	L 207.319, 678.756 
	L 207.319, 0.000 
" />
<path d="M 211.926, 678.755 
	L 211.925, 678.756 
	L 211.925, 0.000 
" />
<path d="M 216.532, 678.755 
	L 216.532, 678.756 
	L 216.532, 0.000 
" />
<path d="M 221.139, 678.755 
	L 221.138, 678.756 
	L 221.138, 0.000 
" />
<path d="M 225.745, 678.755 
	L 225.744, 678.756 
	L 225.744, 0.000 
" />
<path d="M 230.351, 678.755 
	L 230.350, 678.756 
	L 230.350, 0.000 
" />
<path d="M 234.957, 678.755 
	L 234.957, 678.756 
	L 234.957, 0.000 
" />
<path d="M 239.564, 678.755 
	L 239.563, 678.756 
	L 239.563, 0.000 
" />
<path d="M 244.170, 678.755 
	L 244.169, 678.756 
	L 244.169, 0.000 
" />
<path d="M 248.776, 678.755 
	L 248.776, 678.756 
	L 248.776, 0.000 
" />
<path d="M 253.383, 678.755 
	L 253.382, 678.756 
	L 253.382, 0.000 
" />
<path d="M 257.989, 678.755 
	L 257.988, 678.756 
	L 257.988, 0.000 
" />
<path d="M 262.595, 678.755 
	L 262.595, 678.756 
	L 262.595, 0.000 
" />
<path d="M 267.202, 678.755 
	L 267.201, 678.756 
	L 267.201, 0.000 
" />
<path d="M 271.808, 678.755 
	L 271.807, 678.756 
	L 271.807, 0.000 
" />
<path d="M 276.414, 678.755 
	L 276.413, 678.756 
	L 276.413, 0.000 
" />
<path d="M 281.020, 678.755 
	L 281.020, 678.756 
	L 281.020, 0.000 
" />
<path d="M 285.627, 678.755 
	L 285.626, 678.756 
	L 285.626, 0.000 
" />
<path d="M 290.233, 678.755 
	L 290.232, 678.756 
	L 290.232, 0.000 
" />
<path d="M 294.839, 678.755 
	L 294.839, 678.756 
	L 294.839, 0.000 
" />
<path d="M 299.446, 678.755 
	L 299.445, 678.756 
	L 299.445, 0.000 
" />
<path d="M 304.513, 678.755 
	L 304.512, 678.756 
	L 304.512, 0.000 
	L 708.662, 0.000 
	L 708.662, 678.756 
	L 304.512, 678.756 
" />
<path d="M 304.548, 678.755 
	L 304.547, 678.756 
	L 304.547, 0.000 
" />
<path d="M 309.154, 678.755 
	L 309.154, 678.756 
	L 309.154, 0.000 
" />
<path d="M 313.761, 678.755 
	L 313.760, 678.756 
	L 313.760, 0.000 
" />
<path d="M 318.367, 678.755 
	L 318.366, 678.756 
	L 318.366, 0.000 
" />
<path d="M 322.973, 678.755 
	L 322.972, 678.756 
	L 322.972, 0.000 
" />
<path d="M 327.579, 678.755 
	L 327.579, 678.756 
	L 327.579, 0.000 
" />
<path d="M 332.186, 678.755 
	L 332.185, 678.756 
	L 332.185, 0.000 
" />
<path d="M 336.792, 678.755 
	L 336.791, 678.756 
	L 336.791, 0.000 
" />
<path d="M 341.398, 678.755 
	L 341.398, 678.756 
	L 341.398, 0.000 
" />
<path d="M 346.005, 678.755 
	L 346.004, 678.756 
	L 346.004, 0.000 
" />
<path d="M 350.611, 678.755 
	L 350.610, 678.756 
	L 350.610, 0.000 
" />
<path d="M 355.217, 678.755 
	L 355.217, 678.756 
	L 355.217, 0.000 
" />
<path d="M 359.824, 678.755 
	L 359.823, 678.756 
	L 359.823, 0.000 
" />
<path d="M 364.430, 678.755 
	L 364.429, 678.756 
	L 364.429, 0.000 
" />
<path d="M 369.036, 678.755 
	L 369.035, 678.756 
	L 369.035, 0.000 
" />
<path d="M 373.642, 678.755 
	L 373.642, 678.756 
	L 373.642, 0.000 
" />
<path d="M 378.249, 678.755 
	L 378.248, 678.756 
	L 378.248, 0.000 
" />
<path d="M 382.855, 678.755 
	L 382.854, 678.756 
	L 382.854, 0.000 
" />
<path d="M 387.461, 678.755 
	L 387.461, 678.756 
	L 387.461, 0.000 
" />
<path d="M 392.068, 678.755 
	L 392.067, 678.756 
	L 392.067, 0.000 
" />
<path d="M 396.674, 678.755 
	L 396.673, 678.756 
	L 396.673, 0.000 
" />
<path d="M 401.280, 678.755 
	L 401.280, 678.756 
	L 401.280, 0.000 
" />
<path d="M 405.887, 678.755 
	L 405.886, 678.756 
	L 405.886, 0.000 
" />
<path d="M 410.493, 678.755 
	L 410.492, 678.756 
	L 410.492, 0.000 
" />
<path d="M 415.099, 678.755 
	L 415.098, 678.756 
	L 415.098, 0.000 
" />
<path d="M 419.705, 678.755 
	L 419.705, 678.756 
	L 419.705, 0.000 
" />
<path d="M 424.312, 678.755 
	L 424.311, 678.756 
	L 424.311, 0.000 
" />
<path d="M 428.918, 678.755 
	L 428.917, 678.756 
	L 428.917, 0.000 
" />
<path d="M 433.524, 678.755 
	L 433.524, 678.756 
	L 433.524, 0.000 
" />
<path d="M 438.131, 678.755 
	L 438.130, 678.756 
	L 438.130, 0.000 
" />
<path d="M 442.737, 678.755 
	L 442.736, 678.756 
	L 442.736, 0.000 
" />
<path d="M 447.343, 678.755 
	L 447.343, 678.756 
	L 447.343, 0.000 
" />
<path d="M 451.950, 678.755 
	L 451.949, 678.756 
	L 451.949, 0.000 
" />
<path d="M 456.556, 678.755 
	L 456.555, 678.756 
	L 456.555, 0.000 
" />
<path d="M 461.162, 678.755 
	L 461.161, 678.756 
	L 461.161, 0.000 
" />
<path d="M 465.768, 678.755 
	L 465.768, 678.756 
	L 465.768, 0.000 
" />
<path d="M 470.375, 678.755 
	L 470.374, 678.756 
	L 470.374, 0.000 
" />
<path d="M 474.981, 678.755 
	L 474.980, 678.756 
	L 474.980, 0.000 
" />
<path d="M 479.587, 678.755 
	L 479.587, 678.756 
	L 479.587, 0.000 
" />
<path d="M 484.194, 678.755 
	L 484.193, 678.756 
	L 484.193, 0.000 
" />
<path d="M 488.800, 678.755 
	L 488.799, 678.756 
	L 488.799, 0.000 
" />
<path d="M 493.406, 678.755 
	L 493.406, 678.756 
	L 493.406, 0.000 
" />
<path d="M 498.013, 678.755 
	L 498.012, 678.756 
	L 498.012, 0.000 
" />
<path d="M 502.619, 678.755 
	L 502.618, 678.756 
	L 502.618, 0.000 
" />
<path d="M 507.225, 678.755 
	L 507.224, 678.756 
	L 507.224, 0.000 
" />
<path d="M 511.831, 678.755 
	L 511.831, 678.756 
	L 511.831, 0.000 
" />
<path d="M 516.438, 678.755 
	L 516.437, 678.756 
	L 516.437, 0.000 
" />
<path d="M 521.044, 678.755 
	L 521.043, 678.756 
	L 521.043, 0.000 
" />
<path d="M 525.650, 678.755 
	L 525.650, 678.756 
	L 525.650, 0.000 
" />
<path d="M 530.257, 678.755 
	L 530.256, 678.756 
	L 530.256, 0.000 
" />
<path d="M 534.863, 678.755 
	L 534.862, 678.756 
	L 534.862, 0.000 
" />
<path d="M 539.469, 678.755 
	L 539.469, 678.756 
	L 539.469, 0.000 
" />
<path d="M 544.076, 678.755 
	L 544.075, 678.756 
	L 544.075, 0.000 
" />
<path d="M 548.682, 678.755 
	L 548.681, 678.756 
	L 548.681, 0.000 
" />
<path d="M 553.288, 678.755 
	L 553.287, 678.756 
	L 553.287, 0.000 
" />
<path d="M 557.894, 678.755 
	L 557.894, 678.756 
	L 557.894, 0.000 
" />
<path d="M 562.501, 678.755 
	L 562.500, 678.756 
	L 562.500, 0.000 
" />
<path d="M 567.107, 678.755 
	L 567.106, 678.756 
	L 567.106, 0.000 
" />
<path d="M 571.713, 678.755 
	L 571.713, 678.756 
	L 571.713, 0.000 
" />
<path d="M 576.320, 678.755 
	L 576.319, 678.756 
	L 576.319, 0.000 
" />
<path d="M 580.926, 678.755 
	L 580.925, 678.756 
	L 580.925, 0.000 
" />
<path d="M 585.532, 678.755 
	L 585.532, 678.756 
	L 585.532, 0.000 
" />
<path d="M 590.139, 678.755 
	L 590.138, 678.756 
	L 590.138, 0.000 
" />
<path d="M 594.745, 678.755 
	L 594.744, 678.756 
	L 594.744, 0.000 
" />
<path d="M 599.351, 678.755 
	L 599.350, 678.756 
	L 599.350, 0.000 
" />
<path d="M 603.957, 678.755 
	L 603.957, 678.756 
	L 603.957, 0.000 
" />
<path d="M 608.564, 678.755 
	L 608.563, 678.756 
	L 608.563, 0.000 
" />
<path d="M 613.170, 678.755 
	L 613.169, 678.756 
	L 613.169, 0.000 
" />
<path d="M 617.776, 678.755 
	L 617.776, 678.756 
	L 617.776, 0.000 
" />
<path d="M 622.383, 678.755 
	L 622.382, 678.756 
	L 622.382, 0.000 
" />
<path d="M 626.989, 678.755 
	L 626.988, 678.756 
	L 626.988, 0.000 
" />
<path d="M 631.595, 678.755 
	L 631.595, 678.756 
	L 631.595, 0.000 
" />
<path d="M 636.202, 678.755 
	L 636.201, 678.756 
	L 636.201, 0.000 
" />
<path d="M 640.808, 678.755 
	L 640.807, 678.756 
	L 640.807, 0.000 
" />
<path d="M 645.414, 678.755 
	L 645.413, 678.756 
	L 645.413, 0.000 
" />
<path d="M 650.020, 678.755 
	L 650.020, 678.756 
	L 650.020, 0.000 
" />
<path d="M 654.627, 678.755 
	L 654.626, 678.756 
	L 654.626, 0.000 
" />
<path d="M 659.233, 678.755 
	L 659.232, 678.756 
	L 659.232, 0.000 
" />
<path d="M 663.839, 678.755 
	L 663.839, 678.756 
	L 663.839, 0.000 
" />
<path d="M 668.446, 678.755 
	L 668.445, 678.756 
	L 668.445, 0.000 
" />
<path d="M 673.052, 678.755 
	L 673.051, 678.756 
	L 673.051, 0.000 
" />
<path d="M 677.658, 678.755 
	L 677.658, 678.756 
	L 677.658, 0.000 
" />
<path d="M 682.265, 678.755 
	L 682.264, 678.756 
	L 682.264, 0.000 
" />
<path d="M 686.871, 678.755 
	L 686.870, 678.756 
	L 686.870, 0.000 
" />
<path d="M 691.477, 678.755 
	L 691.476, 678.756 
	L 691.476, 0.000 
" />
<path d="M 696.083, 678.755 
	L 696.083, 678.756 
	L 696.083, 0.000 
" />
<path d="M 700.690, 678.755 
	L 700.689, 678.756 
	L 700.689, 0.000 
" />
<path d="M 304.513, 708.661 
	L 304.512, 708.662 
	L 304.512, 678.756 
	L 708.662, 678.756 
	L 708.662, 708.662 
	L 304.512, 708.662 
" />
<path d="M 304.548, 708.661 
	L 304.547, 708.662 
	L 304.547, 678.756 
" />
<path d="M 309.154, 708.661 
	L 309.154, 708.662 
	L 309.154, 678.756 
" />
<path d="M 313.761, 708.661 
	L 313.760, 708.662 
	L 313.760, 678.756 
" />
<path d="M 318.367, 708.661 
	L 318.366, 708.662 
	L 318.366, 678.756 
" />
<path d="M 322.973, 708.661 
	L 322.972, 708.662 
	L 322.972, 678.756 
" />
<path d="M 327.579, 708.661 
	L 327.579, 708.662 
	L 327.579, 678.756 
" />
<path d="M 332.186, 708.661 
	L 332.185, 708.662 
	L 332.185, 678.756 
" />
<path d="M 336.792, 708.661 
	L 336.791, 708.662 
	L 336.791, 678.756 
" />
<path d="M 341.398, 708.661 
	L 341.398, 708.662 
	L 341.398, 678.756 
" />
<path d="M 346.005, 708.661 
	L 346.004, 708.662 
	L 346.004, 678.756 
" />
<path d="M 350.611, 708.661 
	L 350.610, 708.662 
	L 350.610, 678.756 
" />
<path d="M 355.217, 708.661 
	L 355.217, 708.662 
	L 355.217, 678.756 
" />
<path d="M 359.824, 708.661 
	L 359.823, 708.662 
	L 359.823, 678.756 
" />
<path d="M 364.430, 708.661 
	L 364.429, 708.662 
	L 364.429, 678.756 
" />
<path d="M 369.036, 708.661 
	L 369.035, 708.662 
	L 369.035, 678.756 
" />
<path d="M 373.642, 708.661 
	L 373.642, 708.662 
	L 373.642, 678.756 
" />
<path d="M 378.249, 708.661 
	L 378.248, 708.662 
	L 378.248, 678.756 
" />
<path d="M 382.855, 708.661 
	L 382.854, 708.662 
	L 382.854, 678.756 
" />
<path d="M 387.461, 708.661 
	L 387.461, 708.662 
	L 387.461, 678.756 
" />
<path d="M 392.068, 708.661 
	L 392.067, 708.662 
	L 392.067, 678.756 
" />
<path d="M 396.674, 708.661 
	L 396.673, 708.662 
	L 396.673, 678.756 
" />
<path d="M 401.280, 708.661 
	L 401.280, 708.662 
	L 401.280, 678.756 
" />
<path d="M 405.887, 708.661 
	L 405.886, 708.662 
	L 405.886, 678.756 
" />
<path d="M 410.493, 708.661 
	L 410.492, 708.662 
	L 410.492, 678.756 
" />
<path d="M 415.099, 708.661 
	L 415.098, 708.662 
	L 415.098, 678.756 
" />
<path d="M 419.705, 708.661 
	L 419.705, 708.662 
	L 419.705, 678.756 
" />
<path d="M 424.312, 708.661 
	L 424.311, 708.662 
	L 424.311, 678.756 
" />
<path d="M 428.918, 708.661 
	L 428.917, 708.662 
	L 428.917, 678.756 
" />
<path d="M 433.524, 708.661 
	L 433.524, 708.662 
	L 433.524, 678.756 
" />
<path d="M 438.131, 708.661 
	L 438.130, 708.662 
	L 438.130, 678.756 
" />
<path d="M 442.737, 708.661 
	L 442.736, 708.662 
	L 442.736, 678.756 
" />
<path d="M 447.343, 708.661 
	L 447.343, 708.662 
	L 447.343, 678.756 
" />
<path d="M 451.950, 708.661 
	L 451.949, 708.662 
	L 451.949, 678.756 
" />
<path d="M 456.556, 708.661 
	L 456.555, 708.662 
	L 456.555, 678.756 
" />
<path d="M 461.162, 708.661 
	L 461.161, 708.662 
	L 461.161, 678.756 
" />
<path d="M 465.768, 708.661 
	L 465.768, 708.662 
	L 465.768, 678.756 
" />
<path d="M 470.375, 708.661 
	L 470.374, 708.662 
	L 470.374, 678.756 
" />
<path d="M 474.981, 708.661 
	L 474.980, 708.662 
	L 474.980, 678.756 
" />
<path d="M 479.587, 708.661 
	L 479.587, 708.662 
	L 479.587, 678.756 
" />
<path d="M 484.194, 708.661 
	L 484.193, 708.662 
	L 484.193, 678.756 
" />
<path d="M 488.800, 708.661 
	L 488.799, 708.662 
	L 488.799, 678.756 
" />
<path d="M 493.406, 708.661 
	L 493.406, 708.662 
	L 493.406, 678.756 
" />
<path d="M 498.013, 708.661 
	L 498.012, 708.662 
	L 498.012, 678.756 
" />
<path d="M 502.619, 708.661 
	L 502.618, 708.662 
	L 502.618, 678.756 
" />
<path d="M 507.225, 708.661 
	L 507.224, 708.662 
	L 507.224, 678.756 
" />
<path d="M 511.831, 708.661 
	L 511.831, 708.662 
	L 511.831, 678.756 
" />
<path d="M 516.438, 708.661 
	L 516.437, 708.662 
	L 516.437, 678.756 
" />
<path d="M 521.044, 708.661 
	L 521.043, 708.662 
	L 521.043, 678.756 
" />
<path d="M 525.650, 708.661 
	L 525.650, 708.662 
	L 525.650, 678.756 
" />
<path d="M 530.257, 708.661 
	L 530.256, 708.662 
	L 530.256, 678.756 
" />
<path d="M 534.863, 708.661 
	L 534.862, 708.662 
	L 534.862, 678.756 
" />
<path d="M 539.469, 708.661 
	L 539.469, 708.662 
	L 539.469, 678.756 
" />
<path d="M 544.076, 708.661 
	L 544.075, 708.662 
	L 544.075, 678.756 
" />
<path d="M 548.682, 708.661 
	L 548.681, 708.662 
	L 548.681, 678.756 
" />
<path d="M 553.288, 708.661 
	L 553.287, 708.662 
	L 553.287, 678.756 
" />
<path d="M 557.894, 708.661 
	L 557.894, 708.662 
	L 557.894, 678.756 
" />
<path d="M 562.501, 708.661 
	L 562.500, 708.662 
	L 562.500, 678.756 
" />
<path d="M 567.107, 708.661 
	L 567.106, 708.662 
	L 567.106, 678.756 
" />
<path d="M 571.713, 708.661 
	L 571.713, 708.662 
	L 571.713, 678.756 
" />
<path d="M 576.320, 708.661 
	L 576.319, 708.662 
	L 576.319, 678.756 
" />
<path d="M 580.926, 708.661 
	L 580.925, 708.662 
	L 580.925, 678.756 
" />
<path d="M 585.532, 708.661 
	L 585.532, 708.662 
	L 585.532, 678.756 
" />
<path d="M 590.139, 708.661 
	L 590.138, 708.662 
	L 590.138, 678.756 
" />
<path d="M 594.745, 708.661 
	L 594.744, 708.662 
	L 594.744, 678.756 
" />
<path d="M 599.351, 708.661 
	L 599.350, 708.662 
	L 599.350, 678.756 
" />
<path d="M 603.957, 708.661 
	L 603.957, 708.662 
	L 603.957, 678.756 
" />
<path d="M 608.564, 708.661 
	L 608.563, 708.662 
	L 608.563, 678.756 
" />
<path d="M 613.170, 708.661 
	L 613.169, 708.662 
	L 613.169, 678.756 
" />
<path d="M 617.776, 708.661 
	L 617.776, 708.662 
	L 617.776, 678.756 
" />
<path d="M 622.383, 708.661 
	L 622.382, 708.662 
	L 622.382, 678.756 
" />
<path d="M 626.989, 708.661 
	L 626.988, 708.662 
	L 626.988, 678.756 
" />
<path d="M 631.595, 708.661 
	L 631.595, 708.662 
	L 631.595, 678.756 
" />
<path d="M 636.202, 708.661 
	L 636.201, 708.662 
	L 636.201, 678.756 
" />
<path d="M 640.808, 708.661 
	L 640.807, 708.662 
	L 640.807, 678.756 
" />
<path d="M 645.414, 708.661 
	L 645.413, 708.662 
	L 645.413, 678.756 
" />
<path d="M 650.020, 708.661 
	L 650.020, 708.662 
	L 650.020, 678.756 
" />
<path d="M 654.627, 708.661 
	L 654.626, 708.662 
	L 654.626, 678.756 
" />
<path d="M 659.233, 708.661 
	L 659.232, 708.662 
	L 659.232, 678.756 
" />
<path d="M 663.839, 708.661 
	L 663.839, 708.662 
	L 663.839, 678.756 
" />
<path d="M 668.446, 708.661 
	L 668.445, 708.662 
	L 668.445, 678.756 
" />
<path d="M 673.052, 708.661 
	L 673.051, 708.662 
	L 673.051, 678.756 
" />
<path d="M 677.658, 708.661 
	L 677.658, 708.662 
	L 677.658, 678.756 
" />
<path d="M 682.265, 708.661 
	L 682.264, 708.662 
	L 682.264, 678.756 
" />
<path d="M 686.871, 708.661 
	L 686.870, 708.662 
	L 686.870, 678.756 
" />
<path d="M 691.477, 708.661 
	L 691.476, 708.662 
	L 691.476, 678.756 
" />
<path d="M 696.083, 708.661 
	L 696.083, 708.662 
	L 696.083, 678.756 
" />
<path d="M 700.690, 708.661 
	L 700.689, 708.662 
	L 700.689, 678.756 
" />
</g>
</svg>
