<?xml version="1.0" encoding="UTF-8" standalone="no" ?>
<svg width="100%" height="100%" viewBox="0 0 708.697 708.697" xmlns="http://www.w3.org/2000/svg"><g>
</g><g style="stroke:rgb(0,0,0); fill:none; stroke-width:1.000mm" >
<path d="M 0.035, 708.697 
	L 0.035, 0.035 
	L 708.697, 0.035 
	L 708.697, 708.697 
	L 0.035, 708.697 
" />
<path d="M 0.035, 708.697 
	L 0.035, 0.035 
" />
<path d="M 7.122, 708.697 
	L 7.122, 0.035 
" />
<path d="M 14.209, 708.697 
	L 14.209, 0.035 
" />
<path d="M 21.295, 708.697 
	L 21.295, 0.035 
" />
<path d="M 28.382, 708.697 
	L 28.382, 0.035 
" />
<path d="M 35.469, 708.697 
	L 35.469, 0.035 
" />
<path d="M 42.555, 708.697 
	L 42.555, 0.035 
" />
<path d="M 49.642, 708.697 
	L 49.642, 0.035 
" />
<path d="M 56.728, 708.697 
	L 56.728, 0.035 
" />
<path d="M 63.815, 708.697 
	L 63.815, 0.035 
" />
<path d="M 70.902, 708.697 
	L 70.902, 0.035 
" />
<path d="M 77.988, 708.697 
	L 77.988, 0.035 
" />
<path d="M 85.075, 708.697 
	L 85.075, 0.035 
" />
<path d="M 92.161, 708.697 
	L 92.161, 0.035 
" />
<path d="M 99.248, 708.697 
	L 99.248, 0.035 
" />
<path d="M 106.335, 708.697 
	L 106.335, 0.035 
" />
<path d="M 113.421, 708.697 
	L 113.421, 0.035 
" />
<path d="M 120.508, 708.697 
	L 120.508, 0.035 
" />
<path d="M 127.595, 708.697 
	L 127.595, 0.035 
" />
<path d="M 134.681, 708.697 
	L 134.681, 0.035 
" />
<path d="M 141.768, 708.697 
	L 141.768, 0.035 
" />
<path d="M 148.854, 708.697 
	L 148.854, 0.035 
" />
<path d="M 155.941, 708.697 
	L 155.941, 0.035 
" />
<path d="M 163.028, 708.697 
	L 163.028, 0.035 
" />
<path d="M 170.114, 708.697 
	L 170.114, 0.035 
" />
<path d="M 177.201, 708.697 
	L 177.201, 0.035 
" />
<path d="M 184.287, 708.697 
	L 184.287, 0.035 
" />
<path d="M 191.374, 708.697 
	L 191.374, 0.035 
" />
<path d="M 198.461, 708.697 
	L 198.461, 0.035 
" />
<path d="M 205.547, 708.697 
	L 205.547, 0.035 
" />
<path d="M 212.634, 708.697 
	L 212.634, 0.035 
" />
<path d="M 219.721, 708.697 
	L 219.721, 0.035 
" />
<path d="M 226.807, 708.697 
	L 226.807, 0.035 
" />
<path d="M 233.894, 708.697 
	L 233.894, 0.035 
" />
<path d="M 240.980, 708.697 
	L 240.980, 0.035 
" />
<path d="M 248.067, 708.697 
	L 248.067, 0.035 
" />
<path d="M 255.154, 708.697 
	L 255.154, 0.035 
" />
<path d="M 262.240, 708.697 
	L 262.240, 0.035 
" />
<path d="M 269.327, 708.697 
	L 269.327, 0.035 
" />
<path d="M 276.413, 708.697 
	L 276.413, 0.035 
" />
<path d="M 283.500, 708.697 
	L 283.500, 0.035 
" />
<path d="M 290.587, 708.697 
	L 290.587, 0.035 
" />
<path d="M 297.673, 708.697 
	L 297.673, 0.035 
" />
<path d="M 304.760, 708.697 
	L 304.760, 0.035 
" />
<path d="M 311.847, 708.697 
	L 311.847, 0.035 
" />
<path d="M 318.933, 708.697 
	L 318.933, 0.035 
" />
<path d="M 326.020, 708.697 
	L 326.020, 0.035 
" />
<path d="M 333.106, 708.697 
	L 333.106, 0.035 
" />
<path d="M 340.193, 708.697 
	L 340.193, 0.035 
" />
<path d="M 347.280, 708.697 
	L 347.280, 0.035 
" />
<path d="M 354.366, 708.697 
	L 354.366, 0.035 
" />
<path d="M 361.453, 708.697 
	L 361.453, 0.035 
" />
<path d="M 368.539, 708.697 
	L 368.539, 0.035 
" />
<path d="M 375.626, 708.697 
	L 375.626, 0.035 
" />
<path d="M 382.713, 708.697 
	L 382.713, 0.035 
" />
<path d="M 389.799, 708.697 
	L 389.799, 0.035 
" />
<path d="M 396.886, 708.697 
	L 396.886, 0.035 
" />
<path d="M 403.973, 708.697 
	L 403.973, 0.035 
" />
<path d="M 411.059, 708.697 
	L 411.059, 0.035 
" />
<path d="M 418.146, 708.697 
	L 418.146, 0.035 
" />
<path d="M 425.232, 708.697 
	L 425.232, 0.035 
" />
<path d="M 432.319, 708.697 
	L 432.319, 0.035 
" />
<path d="M 439.406, 708.697 
	L 439.406, 0.035 
" />
<path d="M 446.492, 708.697 
	L 446.492, 0.035 
" />
<path d="M 453.579, 708.697 
	L 453.579, 0.035 
" />
<path d="M 460.665, 708.697 
	L 460.665, 0.035 
" />
<path d="M 467.752, 708.697 
	L 467.752, 0.035 
" />
<path d="M 474.839, 708.697 
	L 474.839, 0.035 
" />
<path d="M 481.925, 708.697 
	L 481.925, 0.035 
" />
<path d="M 489.012, 708.697 
	L 489.012, 0.035 
" />
<path d="M 496.099, 708.697 
	L 496.099, 0.035 
" />
<path d="M 503.185, 708.697 
	L 503.185, 0.035 
" />
<path d="M 510.272, 708.697 
	L 510.272, 0.035 
" />
<path d="M 517.358, 708.697 
	L 517.358, 0.035 
" />
<path d="M 524.445, 708.697 
	L 524.445, 0.035 
" />
<path d="M 531.532, 708.697 
	L 531.532, 0.035 
" />
<path d="M 538.618, 708.697 
	L 538.618, 0.035 
" />
<path d="M 545.705, 708.697 
	L 545.705, 0.035 
" />
<path d="M 552.791, 708.697 
	L 552.791, 0.035 
" />
<path d="M 559.878, 708.697 
	L 559.878, 0.035 
" />
<path d="M 566.965, 708.697 
	L 566.965, 0.035 
" />
<path d="M 574.051, 708.697 
	L 574.051, 0.035 
" />
<path d="M 581.138, 708.697 
	L 581.138, 0.035 
" />
<path d="M 588.225, 708.697 
	L 588.225, 0.035 
" />
<path d="M 595.311, 708.697 
	L 595.311, 0.035 
" />
<path d="M 602.398, 708.697 
	L 602.398, 0.035 
" />
<path d="M 609.484, 708.697 
	L 609.484, 0.035 
" />
<path d="M 616.571, 708.697 
	L 616.571, 0.035 
" />
<path d="M 623.658, 708.697 
	L 623.658, 0.035 
" />
<path d="M 630.744, 708.697 
	L 630.744, 0.035 
" />
<path d="M 637.831, 708.697 
	L 637.831, 0.035 
" />
<path d="M 644.917, 708.697 
	L 644.917, 0.035 
" />
<path d="M 652.004, 708.697 
	L 652.004, 0.035 
" />
<path d="M 659.091, 708.697 
	L 659.091, 0.035 
" />
<path d="M 666.177, 708.697 
	L 666.177, 0.035 
" />
<path d="M 673.264, 708.697 
	L 673.264, 0.035 
" />
<path d="M 680.350, 708.697 
	L 680.350, 0.035 
" />
<path d="M 687.437, 708.697 
	L 687.437, 0.035 
" />
<path d="M 694.524, 708.697 
	L 694.524, 0.035 
" />
<path d="M 701.610, 708.697 
	L 701.610, 0.035 
" />
<path d="M 0.035, 708.697 
	L 0.035, 238.996 
	L 240.130, 238.996 
	L 240.130, 708.697 
	L 0.035, 708.697 
" />
<path d="M 0.035, 708.697 
	L 0.035, 238.996 
" />
<path d="M 7.122, 708.697 
	L 7.122, 238.996 
" />
<path d="M 14.209, 708.697 
	L 14.209, 238.996 
" />
<path d="M 21.295, 708.697 
	L 21.295, 238.996 
" />
<path d="M 28.382, 708.697 
	L 28.382, 238.996 
" />
<path d="M 35.469, 708.697 
	L 35.469, 238.996 
" />
<path d="M 42.555, 708.697 
	L 42.555, 238.996 
" />
<path d="M 49.642, 708.697 
	L 49.642, 238.996 
" />
<path d="M 56.728, 708.697 
	L 56.728, 238.996 
" />
<path d="M 63.815, 708.697 
	L 63.815, 238.996 
" />
<path d="M 70.902, 708.697 
	L 70.902, 238.996 
" />
<path d="M 77.988, 708.697 
	L 77.988, 238.996 
" />
<path d="M 85.075, 708.697 
	L 85.075, 238.996 
" />
<path d="M 92.161, 708.697 
	L 92.161, 238.996 
" />
<path d="M 99.248, 708.697 
	L 99.248, 238.996 
" />
<path d="M 106.335, 708.697 
	L 106.335, 238.996 
" />
<path d="M 113.421, 708.697 
	L 113.421, 238.996 
" />
<path d="M 120.508, 708.697 
	L 120.508, 238.996 
" />
<path d="M 127.595, 708.697 
	L 127.595, 238.996 
" />
<path d="M 134.681, 708.697 
	L 134.681, 238.996 
" />
<path d="M 141.768, 708.697 
	L 141.768, 238.996 
" />
<path d="M 148.854, 708.697 
	L 148.854, 238.996 
" />
<path d="M 155.941, 708.697 
	L 155.941, 238.996 
" />
<path d="M 163.028, 708.697 
	L 163.028, 238.996 
" />
<path d="M 170.114, 708.697 
	L 170.114, 238.996 
" />
<path d="M 177.201, 708.697 
	L 177.201, 238.996 
" />
<path d="M 184.287, 708.697 
	L 184.287, 238.996 
" />
<path d="M 191.374, 708.697 
	L 191.374, 238.996 
" />
<path d="M 198.461, 708.697 
	L 198.461, 238.996 
" />
<path d="M 205.547, 708.697 
	L 205.547, 238.996 
" />
<path d="M 212.634, 708.697 
	L 212.634, 238.996 
" />
<path d="M 219.721, 708.697 
	L 219.721, 238.996 
" />
<path d="M 226.807, 708.697 
	L 226.807, 238.996 
" />
<path d="M 0.035, 238.996 
	L 0.035, 0.035 
	L 240.130, 0.035 
	L 240.130, 238.996 
	L 0.035, 238.996 
" />
<path d="M 0.035, 238.996 
	L 0.035, 0.035 
" />
<path d="M 7.122, 238.996 
	L 7.122, 0.035 
" />
<path d="M 14.209, 238.996 
	L 14.209, 0.035 
" />
<path d="M 21.295, 238.996 
	L 21.295, 0.035 
" />
<path d="M 28.382, 238.996 
	L 28.382, 0.035 
" />
<path d="M 35.469, 238.996 
	L 35.469, 0.035 
" />
<path d="M 42.555, 238.996 
	L 42.555, 0.035 
" />
<path d="M 49.642, 238.996 
	L 49.642, 0.035 
" />
<path d="M 56.728, 238.996 
	L 56.728, 0.035 
" />
<path d="M 63.815, 238.996 
	L 63.815, 0.035 
" />
<path d="M 70.902, 238.996 
	L 70.902, 0.035 
" />
<path d="M 77.988, 238.996 
	L 77.988, 0.035 
" />
<path d="M 85.075, 238.996 
	L 85.075, 0.035 
" />
<path d="M 92.161, 238.996 
	L 92.161, 0.035 
" />
<path d="M 99.248, 238.996 
	L 99.248, 0.035 
" />
<path d="M 106.335, 238.996 
	L 106.335, 0.035 
" />
<path d="M 113.421, 238.996 
	L 113.421, 0.035 
" />
<path d="M 120.508, 238.996 
	L 120.508, 0.035 
" />
<path d="M 127.595, 238.996 
	L 127.595, 0.035 
" />
<path d="M 134.681, 238.996 
	L 134.681, 0.035 
" />
<path d="M 141.768, 238.996 
	L 141.768, 0.035 
" />
<path d="M 148.854, 238.996 
	L 148.854, 0.035 
" />
<path d="M 155.941, 238.996 
	L 155.941, 0.035 
" />
<path d="M 163.028, 238.996 
	L 163.028, 0.035 
" />
<path d="M 170.114, 238.996 
	L 170.114, 0.035 
" />
<path d="M 177.201, 238.996 
	L 177.201, 0.035 
" />
<path d="M 184.287, 238.996 
	L 184.287, 0.035 
" />
<path d="M 191.374, 238.996 
	L 191.374, 0.035 
" />
<path d="M 198.461, 238.996 
	L 198.461, 0.035 
" />
<path d="M 205.547, 238.996 
	L 205.547, 0.035 
" />
<path d="M 212.634, 238.996 
	L 212.634, 0.035 
" />
<path d="M 219.721, 238.996 
	L 219.721, 0.035 
" />
<path d="M 226.807, 238.996 
	L 226.807, 0.035 
" />
<path d="M 240.130, 238.996 
	L 240.130, 0.035 
	L 708.697, 0.035 
	L 708.697, 238.996 
	L 240.130, 238.996 
" />
<path d="M 240.130, 238.996 
	L 240.130, 0.035 
" />
<path d="M 247.217, 238.996 
	L 247.217, 0.035 
" />
<path d="M 254.303, 238.996 
	L 254.303, 0.035 
" />
<path d="M 261.390, 238.996 
	L 261.390, 0.035 
" />
<path d="M 268.476, 238.996 
	L 268.476, 0.035 
" />
<path d="M 275.563, 238.996 
	L 275.563, 0.035 
" />
<path d="M 282.650, 238.996 
	L 282.650, 0.035 
" />
<path d="M 289.736, 238.996 
	L 289.736, 0.035 
" />
<path d="M 296.823, 238.996 
	L 296.823, 0.035 
" />
<path d="M 303.909, 238.996 
	L 303.909, 0.035 
" />
<path d="M 310.996, 238.996 
	L 310.996, 0.035 
" />
<path d="M 318.083, 238.996 
	L 318.083, 0.035 
" />
<path d="M 325.169, 238.996 
	L 325.169, 0.035 
" />
<path d="M 332.256, 238.996 
	L 332.256, 0.035 
" />
<path d="M 339.343, 238.996 
	L 339.343, 0.035 
" />
<path d="M 346.429, 238.996 
	L 346.429, 0.035 
" />
<path d="M 353.516, 238.996 
	L 353.516, 0.035 
" />
<path d="M 360.602, 238.996 
	L 360.602, 0.035 
" />
<path d="M 367.689, 238.996 
	L 367.689, 0.035 
" />
<path d="M 374.776, 238.996 
	L 374.776, 0.035 
" />
<path d="M 381.862, 238.996 
	L 381.862, 0.035 
" />
<path d="M 388.949, 238.996 
	L 388.949, 0.035 
" />
<path d="M 396.035, 238.996 
	L 396.035, 0.035 
" />
<path d="M 403.122, 238.996 
	L 403.122, 0.035 
" />
<path d="M 410.209, 238.996 
	L 410.209, 0.035 
" />
<path d="M 417.295, 238.996 
	L 417.295, 0.035 
" />
<path d="M 424.382, 238.996 
	L 424.382, 0.035 
" />
<path d="M 431.469, 238.996 
	L 431.469, 0.035 
" />
<path d="M 438.555, 238.996 
	L 438.555, 0.035 
" />
<path d="M 445.642, 238.996 
	L 445.642, 0.035 
" />
<path d="M 452.728, 238.996 
	L 452.728, 0.035 
" />
<path d="M 459.815, 238.996 
	L 459.815, 0.035 
" />
<path d="M 466.902, 238.996 
	L 466.902, 0.035 
" />
<path d="M 473.988, 238.996 
	L 473.988, 0.035 
" />
<path d="M 481.075, 238.996 
	L 481.075, 0.035 
" />
<path d="M 488.161, 238.996 
	L 488.161, 0.035 
" />
<path d="M 495.248, 238.996 
	L 495.248, 0.035 
" />
<path d="M 502.335, 238.996 
	L 502.335, 0.035 
" />
<path d="M 509.421, 238.996 
	L 509.421, 0.035 
" />
<path d="M 516.508, 238.996 
	L 516.508, 0.035 
" />
<path d="M 523.595, 238.996 
	L 523.595, 0.035 
" />
<path d="M 530.681, 238.996 
	L 530.681, 0.035 
" />
<path d="M 537.768, 238.996 
	L 537.768, 0.035 
" />
<path d="M 544.854, 238.996 
	L 544.854, 0.035 
" />
<path d="M 551.941, 238.996 
	L 551.941, 0.035 
" />
<path d="M 559.028, 238.996 
	L 559.028, 0.035 
" />
<path d="M 566.114, 238.996 
	L 566.114, 0.035 
" />
<path d="M 573.201, 238.996 
	L 573.201, 0.035 
" />
<path d="M 580.287, 238.996 
	L 580.287, 0.035 
" />
<path d="M 587.374, 238.996 
	L 587.374, 0.035 
" />
<path d="M 594.461, 238.996 
	L 594.461, 0.035 
" />
<path d="M 601.547, 238.996 
	L 601.547, 0.035 
" />
<path d="M 608.634, 238.996 
	L 608.634, 0.035 
" />
<path d="M 615.721, 238.996 
	L 615.721, 0.035 
" />
<path d="M 622.807, 238.996 
	L 622.807, 0.035 
" />
<path d="M 629.894, 238.996 
	L 629.894, 0.035 
" />
<path d="M 636.980, 238.996 
	L 636.980, 0.035 
" />
<path d="M 644.067, 238.996 
	L 644.067, 0.035 
" />
<path d="M 651.154, 238.996 
	L 651.154, 0.035 
" />
<path d="M 658.240, 238.996 
	L 658.240, 0.035 
" />
<path d="M 665.327, 238.996 
	L 665.327, 0.035 
" />
<path d="M 672.413, 238.996 
	L 672.413, 0.035 
" />
<path d="M 679.500, 238.996 
	L 679.500, 0.035 
" />
<path d="M 686.587, 238.996 
	L 686.587, 0.035 
" />
<path d="M 693.673, 238.996 
	L 693.673, 0.035 
" />
<path d="M 700.760, 238.996 
	L 700.760, 0.035 
" />
<path d="M 240.130, 708.697 
	L 240.130, 238.996 
	L 708.697, 238.996 
	L 708.697, 708.697 
	L 240.130, 708.697 
" />
<path d="M 240.130, 708.697 
	L 240.130, 238.996 
" />
<path d="M 247.217, 708.697 
	L 247.217, 238.996 
" />
<path d="M 254.303, 708.697 
	L 254.303, 238.996 
" />
<path d="M 261.390, 708.697 
	L 261.390, 238.996 
" />
<path d="M 268.476, 708.697 
	L 268.476, 238.996 
" />
<path d="M 275.563, 708.697 
	L 275.563, 238.996 
" />
<path d="M 282.650, 708.697 
	L 282.650, 238.996 
" />
<path d="M 289.736, 708.697 
	L 289.736, 238.996 
" />
<path d="M 296.823, 708.697 
	L 296.823, 238.996 
" />
<path d="M 303.909, 708.697 
	L 303.909, 238.996 
" />
<path d="M 310.996, 708.697 
	L 310.996, 238.996 
" />
<path d="M 318.083, 708.697 
	L 318.083, 238.996 
" />
<path d="M 325.169, 708.697 
	L 325.169, 238.996 
" />
<path d="M 332.256, 708.697 
	L 332.256, 238.996 
" />
<path d="M 339.343, 708.697 
	L 339.343, 238.996 
" />
<path d="M 346.429, 708.697 
	L 346.429, 238.996 
" />
<path d="M 353.516, 708.697 
	L 353.516, 238.996 
" />
<path d="M 360.602, 708.697 
	L 360.602, 238.996 
" />
<path d="M 367.689, 708.697 
	L 367.689, 238.996 
" />
<path d="M 374.776, 708.697 
	L 374.776, 238.996 
" />
<path d="M 381.862, 708.697 
	L 381.862, 238.996 
" />
<path d="M 388.949, 708.697 
	L 388.949, 238.996 
" />
<path d="M 396.035, 708.697 
	L 396.035, 238.996 
" />
<path d="M 403.122, 708.697 
	L 403.122, 238.996 
" />
<path d="M 410.209, 708.697 
	L 410.209, 238.996 
" />
<path d="M 417.295, 708.697 
	L 417.295, 238.996 
" />
<path d="M 424.382, 708.697 
	L 424.382, 238.996 
" />
<path d="M 431.469, 708.697 
	L 431.469, 238.996 
" />
<path d="M 438.555, 708.697 
	L 438.555, 238.996 
" />
<path d="M 445.642, 708.697 
	L 445.642, 238.996 
" />
<path d="M 452.728, 708.697 
	L 452.728, 238.996 
" />
<path d="M 459.815, 708.697 
	L 459.815, 238.996 
" />
<path d="M 466.902, 708.697 
	L 466.902, 238.996 
" />
<path d="M 473.988, 708.697 
	L 473.988, 238.996 
" />
<path d="M 481.075, 708.697 
	L 481.075, 238.996 
" />
<path d="M 488.161, 708.697 
	L 488.161, 238.996 
" />
<path d="M 495.248, 708.697 
	L 495.248, 238.996 
" />
<path d="M 502.335, 708.697 
	L 502.335, 238.996 
" />
<path d="M 509.421, 708.697 
	L 509.421, 238.996 
" />
<path d="M 516.508, 708.697 
	L 516.508, 238.996 
" />
<path d="M 523.595, 708.697 
	L 523.595, 238.996 
" />
<path d="M 530.681, 708.697 
	L 530.681, 238.996 
" />
<path d="M 537.768, 708.697 
	L 537.768, 238.996 
" />
<path d="M 544.854, 708.697 
	L 544.854, 238.996 
" />
<path d="M 551.941, 708.697 
	L 551.941, 238.996 
" />
<path d="M 559.028, 708.697 
	L 559.028, 238.996 
" />
<path d="M 566.114, 708.697 
	L 566.114, 238.996 
" />
<path d="M 573.201, 708.697 
	L 573.201, 238.996 
" />
<path d="M 580.287, 708.697 
	L 580.287, 238.996 
" />
<path d="M 587.374, 708.697 
	L 587.374, 238.996 
" />
<path d="M 594.461, 708.697 
	L 594.461, 238.996 
" />
<path d="M 601.547, 708.697 
	L 601.547, 238.996 
" />
<path d="M 608.634, 708.697 
	L 608.634, 238.996 
" />
<path d="M 615.721, 708.697 
	L 615.721, 238.996 
" />
<path d="M 622.807, 708.697 
	L 622.807, 238.996 
" />
<path d="M 629.894, 708.697 
	L 629.894, 238.996 
" />
<path d="M 636.980, 708.697 
	L 636.980, 238.996 
" />
<path d="M 644.067, 708.697 
	L 644.067, 238.996 
" />
<path d="M 651.154, 708.697 
	L 651.154, 238.996 
" />
<path d="M 658.240, 708.697 
	L 658.240, 238.996 
" />
<path d="M 665.327, 708.697 
	L 665.327, 238.996 
" />
<path d="M 672.413, 708.697 
	L 672.413, 238.996 
" />
<path d="M 679.500, 708.697 
	L 679.500, 238.996 
" />
<path d="M 686.587, 708.697 
	L 686.587, 238.996 
" />
<path d="M 693.673, 708.697 
	L 693.673, 238.996 
" />
<path d="M 700.760, 708.697 
	L 700.760, 238.996 
" />
<path d="M 0.000, 708.697 
	L 0.000, 690.697 
	L 43.016, 690.697 
	L 43.016, 708.697 
	L 0.000, 708.697 
" />
<path d="M 0.035, 708.697 
	L 0.035, 690.697 
" />
<path d="M 7.122, 708.697 
	L 7.122, 690.697 
" />
<path d="M 14.209, 708.697 
	L 14.209, 690.697 
" />
<path d="M 21.295, 708.697 
	L 21.295, 690.697 
" />
<path d="M 28.382, 708.697 
	L 28.382, 690.697 
" />
<path d="M 35.469, 708.697 
	L 35.469, 690.697 
" />
<path d="M 0.000, 690.697 
	L 0.000, 238.996 
	L 43.016, 238.996 
	L 43.016, 690.697 
	L 0.000, 690.697 
" />
<path d="M 0.035, 690.697 
	L 0.035, 238.996 
" />
<path d="M 7.122, 690.697 
	L 7.122, 238.996 
" />
<path d="M 14.209, 690.697 
	L 14.209, 238.996 
" />
<path d="M 21.295, 690.697 
	L 21.295, 238.996 
" />
<path d="M 28.382, 690.697 
	L 28.382, 238.996 
" />
<path d="M 35.469, 690.697 
	L 35.469, 238.996 
" />
<path d="M 43.016, 690.697 
	L 43.016, 238.996 
	L 240.095, 238.996 
	L 240.095, 690.697 
	L 43.016, 690.697 
" />
<path d="M 43.051, 690.697 
	L 43.051, 238.996 
" />
<path d="M 50.138, 690.697 
	L 50.138, 238.996 
" />
<path d="M 57.224, 690.697 
	L 57.224, 238.996 
" />
<path d="M 64.311, 690.697 
	L 64.311, 238.996 
" />
<path d="M 71.398, 690.697 
	L 71.398, 238.996 
" />
<path d="M 78.484, 690.697 
	L 78.484, 238.996 
" />
<path d="M 85.571, 690.697 
	L 85.571, 238.996 
" />
<path d="M 92.657, 690.697 
	L 92.657, 238.996 
" />
<path d="M 99.744, 690.697 
	L 99.744, 238.996 
" />
<path d="M 106.831, 690.697 
	L 106.831, 238.996 
" />
<path d="M 113.917, 690.697 
	L 113.917, 238.996 
" />
<path d="M 121.004, 690.697 
	L 121.004, 238.996 
" />
<path d="M 128.091, 690.697 
	L 128.091, 238.996 
" />
<path d="M 135.177, 690.697 
	L 135.177, 238.996 
" />
<path d="M 142.264, 690.697 
	L 142.264, 238.996 
" />
<path d="M 149.350, 690.697 
	L 149.350, 238.996 
" />
<path d="M 156.437, 690.697 
	L 156.437, 238.996 
" />
<path d="M 163.524, 690.697 
	L 163.524, 238.996 
" />
<path d="M 170.610, 690.697 
	L 170.610, 238.996 
" />
<path d="M 177.697, 690.697 
	L 177.697, 238.996 
" />
<path d="M 184.783, 690.697 
	L 184.783, 238.996 
" />
<path d="M 191.870, 690.697 
	L 191.870, 238.996 
" />
<path d="M 198.957, 690.697 
	L 198.957, 238.996 
" />
<path d="M 206.043, 690.697 
	L 206.043, 238.996 
" />
<path d="M 213.130, 690.697 
	L 213.130, 238.996 
" />
<path d="M 220.217, 690.697 
	L 220.217, 238.996 
" />
<path d="M 227.303, 690.697 
	L 227.303, 238.996 
" />
<path d="M 43.016, 708.697 
	L 43.016, 690.697 
	L 240.095, 690.697 
	L 240.095, 708.697 
	L 43.016, 708.697 
" />
<path d="M 43.051, 708.697 
	L 43.051, 690.697 
" />
<path d="M 50.138, 708.697 
	L 50.138, 690.697 
" />
<path d="M 57.224, 708.697 
	L 57.224, 690.697 
" />
<path d="M 64.311, 708.697 
	L 64.311, 690.697 
" />
<path d="M 71.398, 708.697 
	L 71.398, 690.697 
" />
<path d="M 78.484, 708.697 
	L 78.484, 690.697 
" />
<path d="M 85.571, 708.697 
	L 85.571, 690.697 
" />
<path d="M 92.657, 708.697 
	L 92.657, 690.697 
" />
<path d="M 99.744, 708.697 
	L 99.744, 690.697 
" />
<path d="M 106.831, 708.697 
	L 106.831, 690.697 
" />
<path d="M 113.917, 708.697 
	L 113.917, 690.697 
" />
<path d="M 121.004, 708.697 
	L 121.004, 690.697 
" />
<path d="M 128.091, 708.697 
	L 128.091, 690.697 
" />
<path d="M 135.177, 708.697 
	L 135.177, 690.697 
" />
<path d="M 142.264, 708.697 
	L 142.264, 690.697 
" />
<path d="M 149.350, 708.697 
	L 149.350, 690.697 
" />
<path d="M 156.437, 708.697 
	L 156.437, 690.697 
" />
<path d="M 163.524, 708.697 
	L 163.524, 690.697 
" />
<path d="M 170.610, 708.697 
	L 170.610, 690.697 
" />
<path d="M 177.697, 708.697 
	L 177.697, 690.697 
" />
<path d="M 184.783, 708.697 
	L 184.783, 690.697 
" />
<path d="M 191.870, 708.697 
	L 191.870, 690.697 
" />
<path d="M 198.957, 708.697 
	L 198.957, 690.697 
" />
<path d="M 206.043, 708.697 
	L 206.043, 690.697 
" />
<path d="M 213.130, 708.697 
	L 213.130, 690.697 
" />
<path d="M 220.217, 708.697 
	L 220.217, 690.697 
" />
<path d="M 227.303, 708.697 
	L 227.303, 690.697 
" />
<path d="M 0.035, 238.996 
	L 0.035, 112.571 
	L 174.083, 112.571 
	L 174.083, 238.996 
	L 0.035, 238.996 
" />
<path d="M 0.035, 238.996 
	L 0.035, 112.571 
" />
<path d="M 7.122, 238.996 
	L 7.122, 112.571 
" />
<path d="M 14.209, 238.996 
	L 14.209, 112.571 
" />
<path d="M 21.295, 238.996 
	L 21.295, 112.571 
" />
<path d="M 28.382, 238.996 
	L 28.382, 112.571 
" />
<path d="M 35.469, 238.996 
	L 35.469, 112.571 
" />
<path d="M 42.555, 238.996 
	L 42.555, 112.571 
" />
<path d="M 49.642, 238.996 
	L 49.642, 112.571 
" />
<path d="M 56.728, 238.996 
	L 56.728, 112.571 
" />
<path d="M 63.815, 238.996 
	L 63.815, 112.571 
" />
<path d="M 70.902, 238.996 
	L 70.902, 112.571 
" />
<path d="M 77.988, 238.996 
	L 77.988, 112.571 
" />
<path d="M 85.075, 238.996 
	L 85.075, 112.571 
" />
<path d="M 92.161, 238.996 
	L 92.161, 112.571 
" />
<path d="M 99.248, 238.996 
	L 99.248, 112.571 
" />
<path d="M 106.335, 238.996 
	L 106.335, 112.571 
" />
<path d="M 113.421, 238.996 
	L 113.421, 112.571 
" />
<path d="M 120.508, 238.996 
	L 120.508, 112.571 
" />
<path d="M 127.595, 238.996 
	L 127.595, 112.571 
" />
<path d="M 134.681, 238.996 
	L 134.681, 112.571 
" />
<path d="M 141.768, 238.996 
	L 141.768, 112.571 
" />
<path d="M 148.854, 238.996 
	L 148.854, 112.571 
" />
<path d="M 155.941, 238.996 
	L 155.941, 112.571 
" />
<path d="M 163.028, 238.996 
	L 163.028, 112.571 
" />
<path d="M 0.035, 112.571 
	L 0.035, 0.035 
	L 174.083, 0.035 
	L 174.083, 112.571 
	L 0.035, 112.571 
" />
<path d="M 0.035, 112.571 
	L 0.035, 0.035 
" />
<path d="M 7.122, 112.571 
	L 7.122, 0.035 
" />
<path d="M 14.209, 112.571 
	L 14.209, 0.035 
" />
<path d="M 21.295, 112.571 
	L 21.295, 0.035 
" />
<path d="M 28.382, 112.571 
	L 28.382, 0.035 
" />
<path d="M 35.469, 112.571 
	L 35.469, 0.035 
" />
<path d="M 42.555, 112.571 
	L 42.555, 0.035 
" />
<path d="M 49.642, 112.571 
	L 49.642, 0.035 
" />
<path d="M 56.728, 112.571 
	L 56.728, 0.035 
" />
<path d="M 63.815, 112.571 
	L 63.815, 0.035 
" />
<path d="M 70.902, 112.571 
	L 70.902, 0.035 
" />
<path d="M 77.988, 112.571 
	L 77.988, 0.035 
" />
<path d="M 85.075, 112.571 
	L 85.075, 0.035 
" />
<path d="M 92.161, 112.571 
	L 92.161, 0.035 
" />
<path d="M 99.248, 112.571 
	L 99.248, 0.035 
" />
<path d="M 106.335, 112.571 
	L 106.335, 0.035 
" />
<path d="M 113.421, 112.571 
	L 113.421, 0.035 
" />
<path d="M 120.508, 112.571 
	L 120.508, 0.035 
" />
<path d="M 127.595, 112.571 
	L 127.595, 0.035 
" />
<path d="M 134.681, 112.571 
	L 134.681, 0.035 
" />
<path d="M 141.768, 112.571 
	L 141.768, 0.035 
" />
<path d="M 148.854, 112.571 
	L 148.854, 0.035 
" />
<path d="M 155.941, 112.571 
	L 155.941, 0.035 
" />
<path d="M 163.028, 112.571 
	L 163.028, 0.035 
" />
<path d="M 174.083, 112.571 
	L 174.083, 0.035 
	L 240.130, 0.035 
	L 240.130, 112.571 
	L 174.083, 112.571 
" />
<path d="M 174.083, 112.571 
	L 174.083, 0.035 
" />
<path d="M 181.169, 112.571 
	L 181.169, 0.035 
" />
<path d="M 188.256, 112.571 
	L 188.256, 0.035 
" />
<path d="M 195.343, 112.571 
	L 195.343, 0.035 
" />
<path d="M 202.429, 112.571 
	L 202.429, 0.035 
" />
<path d="M 209.516, 112.571 
	L 209.516, 0.035 
" />
<path d="M 216.602, 112.571 
	L 216.602, 0.035 
" />
<path d="M 223.689, 112.571 
	L 223.689, 0.035 
" />
<path d="M 230.776, 112.571 
	L 230.776, 0.035 
" />
<path d="M 174.083, 238.996 
	L 174.083, 112.571 
	L 240.130, 112.571 
	L 240.130, 238.996 
	L 174.083, 238.996 
" />
<path d="M 174.083, 238.996 
	L 174.083, 112.571 
" />
<path d="M 181.169, 238.996 
	L 181.169, 112.571 
" />
<path d="M 188.256, 238.996 
	L 188.256, 112.571 
" />
<path d="M 195.343, 238.996 
	L 195.343, 112.571 
" />
<path d="M 202.429, 238.996 
	L 202.429, 112.571 
" />
<path d="M 209.516, 238.996 
	L 209.516, 112.571 
" />
<path d="M 216.602, 238.996 
	L 216.602, 112.571 
" />
<path d="M 223.689, 238.996 
	L 223.689, 112.571 
" />
<path d="M 230.776, 238.996 
	L 230.776, 112.571 
" />
<path d="M 240.130, 239.032 
	L 240.130, 200.126 
	L 328.571, 200.126 
	L 328.571, 239.032 
	L 240.130, 239.032 
" />
<path d="M 240.130, 238.996 
	L 240.130, 200.091 
" />
<path d="M 247.217, 238.996 
	L 247.217, 200.091 
" />
<path d="M 254.303, 238.996 
	L 254.303, 200.091 
" />
<path d="M 261.390, 238.996 
	L 261.390, 200.091 
" />
<path d="M 268.476, 238.996 
	L 268.476, 200.091 
" />
<path d="M 275.563, 238.996 
	L 275.563, 200.091 
" />
<path d="M 282.650, 238.996 
	L 282.650, 200.091 
" />
<path d="M 289.736, 238.996 
	L 289.736, 200.091 
" />
<path d="M 296.823, 238.996 
	L 296.823, 200.091 
" />
<path d="M 303.909, 238.996 
	L 303.909, 200.091 
" />
<path d="M 310.996, 238.996 
	L 310.996, 200.091 
" />
<path d="M 318.083, 238.996 
	L 318.083, 200.091 
" />
<path d="M 240.130, 200.126 
	L 240.130, 0.071 
	L 328.571, 0.071 
	L 328.571, 200.126 
	L 240.130, 200.126 
" />
<path d="M 240.130, 200.091 
	L 240.130, 0.035 
" />
<path d="M 247.217, 200.091 
	L 247.217, 0.035 
" />
<path d="M 254.303, 200.091 
	L 254.303, 0.035 
" />
<path d="M 261.390, 200.091 
	L 261.390, 0.035 
" />
<path d="M 268.476, 200.091 
	L 268.476, 0.035 
" />
<path d="M 275.563, 200.091 
	L 275.563, 0.035 
" />
<path d="M 282.650, 200.091 
	L 282.650, 0.035 
" />
<path d="M 289.736, 200.091 
	L 289.736, 0.035 
" />
<path d="M 296.823, 200.091 
	L 296.823, 0.035 
" />
<path d="M 303.909, 200.091 
	L 303.909, 0.035 
" />
<path d="M 310.996, 200.091 
	L 310.996, 0.035 
" />
<path d="M 318.083, 200.091 
	L 318.083, 0.035 
" />
<path d="M 328.571, 200.126 
	L 328.571, 0.071 
	L 708.697, 0.071 
	L 708.697, 200.126 
	L 328.571, 200.126 
" />
<path d="M 328.571, 200.091 
	L 328.571, 0.035 
" />
<path d="M 335.658, 200.091 
	L 335.658, 0.035 
" />
<path d="M 342.744, 200.091 
	L 342.744, 0.035 
" />
<path d="M 349.831, 200.091 
	L 349.831, 0.035 
" />
<path d="M 356.917, 200.091 
	L 356.917, 0.035 
" />
<path d="M 364.004, 200.091 
	L 364.004, 0.035 
" />
<path d="M 371.091, 200.091 
	L 371.091, 0.035 
" />
<path d="M 378.177, 200.091 
	L 378.177, 0.035 
" />
<path d="M 385.264, 200.091 
	L 385.264, 0.035 
" />
<path d="M 392.350, 200.091 
	L 392.350, 0.035 
" />
<path d="M 399.437, 200.091 
	L 399.437, 0.035 
" />
<path d="M 406.524, 200.091 
	L 406.524, 0.035 
" />
<path d="M 413.610, 200.091 
	L 413.610, 0.035 
" />
<path d="M 420.697, 200.091 
	L 420.697, 0.035 
" />
<path d="M 427.784, 200.091 
	L 427.784, 0.035 
" />
<path d="M 434.870, 200.091 
	L 434.870, 0.035 
" />
<path d="M 441.957, 200.091 
	L 441.957, 0.035 
" />
<path d="M 449.043, 200.091 
	L 449.043, 0.035 
" />
<path d="M 456.130, 200.091 
	L 456.130, 0.035 
" />
<path d="M 463.217, 200.091 
	L 463.217, 0.035 
" />
<path d="M 470.303, 200.091 
	L 470.303, 0.035 
" />
<path d="M 477.390, 200.091 
	L 477.390, 0.035 
" />
<path d="M 484.476, 200.091 
	L 484.476, 0.035 
" />
<path d="M 491.563, 200.091 
	L 491.563, 0.035 
" />
<path d="M 498.650, 200.091 
	L 498.650, 0.035 
" />
<path d="M 505.736, 200.091 
	L 505.736, 0.035 
" />
<path d="M 512.823, 200.091 
	L 512.823, 0.035 
" />
<path d="M 519.910, 200.091 
	L 519.910, 0.035 
" />
<path d="M 526.996, 200.091 
	L 526.996, 0.035 
" />
<path d="M 534.083, 200.091 
	L 534.083, 0.035 
" />
<path d="M 541.169, 200.091 
	L 541.169, 0.035 
" />
<path d="M 548.256, 200.091 
	L 548.256, 0.035 
" />
<path d="M 555.343, 200.091 
	L 555.343, 0.035 
" />
<path d="M 562.429, 200.091 
	L 562.429, 0.035 
" />
<path d="M 569.516, 200.091 
	L 569.516, 0.035 
" />
<path d="M 576.602, 200.091 
	L 576.602, 0.035 
" />
<path d="M 583.689, 200.091 
	L 583.689, 0.035 
" />
<path d="M 590.776, 200.091 
	L 590.776, 0.035 
" />
<path d="M 597.862, 200.091 
	L 597.862, 0.035 
" />
<path d="M 604.949, 200.091 
	L 604.949, 0.035 
" />
<path d="M 612.036, 200.091 
	L 612.036, 0.035 
" />
<path d="M 619.122, 200.091 
	L 619.122, 0.035 
" />
<path d="M 626.209, 200.091 
	L 626.209, 0.035 
" />
<path d="M 633.295, 200.091 
	L 633.295, 0.035 
" />
<path d="M 640.382, 200.091 
	L 640.382, 0.035 
" />
<path d="M 647.469, 200.091 
	L 647.469, 0.035 
" />
<path d="M 654.555, 200.091 
	L 654.555, 0.035 
" />
<path d="M 661.642, 200.091 
	L 661.642, 0.035 
" />
<path d="M 668.728, 200.091 
	L 668.728, 0.035 
" />
<path d="M 675.815, 200.091 
	L 675.815, 0.035 
" />
<path d="M 682.902, 200.091 
	L 682.902, 0.035 
" />
<path d="M 689.988, 200.091 
	L 689.988, 0.035 
" />
<path d="M 697.075, 200.091 
	L 697.075, 0.035 
" />
<path d="M 328.571, 239.032 
	L 328.571, 200.126 
	L 708.697, 200.126 
	L 708.697, 239.032 
	L 328.571, 239.032 
" />
<path d="M 328.571, 238.996 
	L 328.571, 200.091 
" />
<path d="M 335.658, 238.996 
	L 335.658, 200.091 
" />
<path d="M 342.744, 238.996 
	L 342.744, 200.091 
" />
<path d="M 349.831, 238.996 
	L 349.831, 200.091 
" />
<path d="M 356.917, 238.996 
	L 356.917, 200.091 
" />
<path d="M 364.004, 238.996 
	L 364.004, 200.091 
" />
<path d="M 371.091, 238.996 
	L 371.091, 200.091 
" />
<path d="M 378.177, 238.996 
	L 378.177, 200.091 
" />
<path d="M 385.264, 238.996 
	L 385.264, 200.091 
" />
<path d="M 392.350, 238.996 
	L 392.350, 200.091 
" />
<path d="M 399.437, 238.996 
	L 399.437, 200.091 
" />
<path d="M 406.524, 238.996 
	L 406.524, 200.091 
" />
<path d="M 413.610, 238.996 
	L 413.610, 200.091 
" />
<path d="M 420.697, 238.996 
	L 420.697, 200.091 
" />
<path d="M 427.784, 238.996 
	L 427.784, 200.091 
" />
<path d="M 434.870, 238.996 
	L 434.870, 200.091 
" />
<path d="M 441.957, 238.996 
	L 441.957, 200.091 
" />
<path d="M 449.043, 238.996 
	L 449.043, 200.091 
" />
<path d="M 456.130, 238.996 
	L 456.130, 200.091 
" />
<path d="M 463.217, 238.996 
	L 463.217, 200.091 
" />
<path d="M 470.303, 238.996 
	L 470.303, 200.091 
" />
<path d="M 477.390, 238.996 
	L 477.390, 200.091 
" />
<path d="M 484.476, 238.996 
	L 484.476, 200.091 
" />
<path d="M 491.563, 238.996 
	L 491.563, 200.091 
" />
<path d="M 498.650, 238.996 
	L 498.650, 200.091 
" />
<path d="M 505.736, 238.996 
	L 505.736, 200.091 
" />
<path d="M 512.823, 238.996 
	L 512.823, 200.091 
" />
<path d="M 519.910, 238.996 
	L 519.910, 200.091 
" />
<path d="M 526.996, 238.996 
	L 526.996, 200.091 
" />
<path d="M 534.083, 238.996 
	L 534.083, 200.091 
" />
<path d="M 541.169, 238.996 
	L 541.169, 200.091 
" />
<path d="M 548.256, 238.996 
	L 548.256, 200.091 
" />
<path d="M 555.343, 238.996 
	L 555.343, 200.091 
" />
<path d="M 562.429, 238.996 
	L 562.429, 200.091 
" />
<path d="M 569.516, 238.996 
	L 569.516, 200.091 
" />
<path d="M 576.602, 238.996 
	L 576.602, 200.091 
" />
<path d="M 583.689, 238.996 
	L 583.689, 200.091 
" />
<path d="M 590.776, 238.996 
	L 590.776, 200.091 
" />
<path d="M 597.862, 238.996 
	L 597.862, 200.091 
" />
<path d="M 604.949, 238.996 
	L 604.949, 200.091 
" />
<path d="M 612.036, 238.996 
	L 612.036, 200.091 
" />
<path d="M 619.122, 238.996 
	L 619.122, 200.091 
" />
<path d="M 626.209, 238.996 
	L 626.209, 200.091 
" />
<path d="M 633.295, 238.996 
	L 633.295, 200.091 
" />
<path d="M 640.382, 238.996 
	L 640.382, 200.091 
" />
<path d="M 647.469, 238.996 
	L 647.469, 200.091 
" />
<path d="M 654.555, 238.996 
	L 654.555, 200.091 
" />
<path d="M 661.642, 238.996 
	L 661.642, 200.091 
" />
<path d="M 668.728, 238.996 
	L 668.728, 200.091 
" />
<path d="M 675.815, 238.996 
	L 675.815, 200.091 
" />
<path d="M 682.902, 238.996 
	L 682.902, 200.091 
" />
<path d="M 689.988, 238.996 
	L 689.988, 200.091 
" />
<path d="M 697.075, 238.996 
	L 697.075, 200.091 
" />
<path d="M 240.095, 708.697 
	L 240.095, 534.224 
	L 699.236, 534.224 
	L 699.236, 708.697 
	L 240.095, 708.697 
" />
<path d="M 240.130, 708.697 
	L 240.130, 534.224 
" />
<path d="M 247.217, 708.697 
	L 247.217, 534.224 
" />
<path d="M 254.303, 708.697 
	L 254.303, 534.224 
" />
<path d="M 261.390, 708.697 
	L 261.390, 534.224 
" />
<path d="M 268.476, 708.697 
	L 268.476, 534.224 
" />
<path d="M 275.563, 708.697 
	L 275.563, 534.224 
" />
<path d="M 282.650, 708.697 
	L 282.650, 534.224 
" />
<path d="M 289.736, 708.697 
	L 289.736, 534.224 
" />
<path d="M 296.823, 708.697 
	L 296.823, 534.224 
" />
<path d="M 303.909, 708.697 
	L 303.909, 534.224 
" />
<path d="M 310.996, 708.697 
	L 310.996, 534.224 
" />
<path d="M 318.083, 708.697 
	L 318.083, 534.224 
" />
<path d="M 325.169, 708.697 
	L 325.169, 534.224 
" />
<path d="M 332.256, 708.697 
	L 332.256, 534.224 
" />
<path d="M 339.343, 708.697 
	L 339.343, 534.224 
" />
<path d="M 346.429, 708.697 
	L 346.429, 534.224 
" />
<path d="M 353.516, 708.697 
	L 353.516, 534.224 
" />
<path d="M 360.602, 708.697 
	L 360.602, 534.224 
" />
<path d="M 367.689, 708.697 
	L 367.689, 534.224 
" />
<path d="M 374.776, 708.697 
	L 374.776, 534.224 
" />
<path d="M 381.862, 708.697 
	L 381.862, 534.224 
" />
<path d="M 388.949, 708.697 
	L 388.949, 534.224 
" />
<path d="M 396.035, 708.697 
	L 396.035, 534.224 
" />
<path d="M 403.122, 708.697 
	L 403.122, 534.224 
" />
<path d="M 410.209, 708.697 
	L 410.209, 534.224 
" />
<path d="M 417.295, 708.697 
	L 417.295, 534.224 
" />
<path d="M 424.382, 708.697 
	L 424.382, 534.224 
" />
<path d="M 431.469, 708.697 
	L 431.469, 534.224 
" />
<path d="M 438.555, 708.697 
	L 438.555, 534.224 
" />
<path d="M 445.642, 708.697 
	L 445.642, 534.224 
" />
<path d="M 452.728, 708.697 
	L 452.728, 534.224 
" />
<path d="M 459.815, 708.697 
	L 459.815, 534.224 
" />
<path d="M 466.902, 708.697 
	L 466.902, 534.224 
" />
<path d="M 473.988, 708.697 
	L 473.988, 534.224 
" />
<path d="M 481.075, 708.697 
	L 481.075, 534.224 
" />
<path d="M 488.161, 708.697 
	L 488.161, 534.224 
" />
<path d="M 495.248, 708.697 
	L 495.248, 534.224 
" />
<path d="M 502.335, 708.697 
	L 502.335, 534.224 
" />
<path d="M 509.421, 708.697 
	L 509.421, 534.224 
" />
<path d="M 516.508, 708.697 
	L 516.508, 534.224 
" />
<path d="M 523.595, 708.697 
	L 523.595, 534.224 
" />
<path d="M 530.681, 708.697 
	L 530.681, 534.224 
" />
<path d="M 537.768, 708.697 
	L 537.768, 534.224 
" />
<path d="M 544.854, 708.697 
	L 544.854, 534.224 
" />
<path d="M 551.941, 708.697 
	L 551.941, 534.224 
" />
<path d="M 559.028, 708.697 
	L 559.028, 534.224 
" />
<path d="M 566.114, 708.697 
	L 566.114, 534.224 
" />
<path d="M 573.201, 708.697 
	L 573.201, 534.224 
" />
<path d="M 580.287, 708.697 
	L 580.287, 534.224 
" />
<path d="M 587.374, 708.697 
	L 587.374, 534.224 
" />
<path d="M 594.461, 708.697 
	L 594.461, 534.224 
" />
<path d="M 601.547, 708.697 
	L 601.547, 534.224 
" />
<path d="M 608.634, 708.697 
	L 608.634, 534.224 
" />
<path d="M 615.721, 708.697 
	L 615.721, 534.224 
" />
<path d="M 622.807, 708.697 
	L 622.807, 534.224 
" />
<path d="M 629.894, 708.697 
	L 629.894, 534.224 
" />
<path d="M 636.980, 708.697 
	L 636.980, 534.224 
" />
<path d="M 644.067, 708.697 
	L 644.067, 534.224 
" />
<path d="M 651.154, 708.697 
	L 651.154, 534.224 
" />
<path d="M 658.240, 708.697 
	L 658.240, 534.224 
" />
<path d="M 665.327, 708.697 
	L 665.327, 534.224 
" />
<path d="M 672.413, 708.697 
	L 672.413, 534.224 
" />
<path d="M 679.500, 708.697 
	L 679.500, 534.224 
" />
<path d="M 686.587, 708.697 
	L 686.587, 534.224 
" />
<path d="M 240.095, 534.224 
	L 240.095, 238.996 
	L 699.236, 238.996 
	L 699.236, 534.224 
	L 240.095, 534.224 
" />
<path d="M 240.130, 534.224 
	L 240.130, 238.996 
" />
<path d="M 247.217, 534.224 
	L 247.217, 238.996 
" />
<path d="M 254.303, 534.224 
	L 254.303, 238.996 
" />
<path d="M 261.390, 534.224 
	L 261.390, 238.996 
" />
<path d="M 268.476, 534.224 
	L 268.476, 238.996 
" />
<path d="M 275.563, 534.224 
	L 275.563, 238.996 
" />
<path d="M 282.650, 534.224 
	L 282.650, 238.996 
" />
<path d="M 289.736, 534.224 
	L 289.736, 238.996 
" />
<path d="M 296.823, 534.224 
	L 296.823, 238.996 
" />
<path d="M 303.909, 534.224 
	L 303.909, 238.996 
" />
<path d="M 310.996, 534.224 
	L 310.996, 238.996 
" />
<path d="M 318.083, 534.224 
	L 318.083, 238.996 
" />
<path d="M 325.169, 534.224 
	L 325.169, 238.996 
" />
<path d="M 332.256, 534.224 
	L 332.256, 238.996 
" />
<path d="M 339.343, 534.224 
	L 339.343, 238.996 
" />
<path d="M 346.429, 534.224 
	L 346.429, 238.996 
" />
<path d="M 353.516, 534.224 
	L 353.516, 238.996 
" />
<path d="M 360.602, 534.224 
	L 360.602, 238.996 
" />
<path d="M 367.689, 534.224 
	L 367.689, 238.996 
" />
<path d="M 374.776, 534.224 
	L 374.776, 238.996 
" />
<path d="M 381.862, 534.224 
	L 381.862, 238.996 
" />
<path d="M 388.949, 534.224 
	L 388.949, 238.996 
" />
<path d="M 396.035, 534.224 
	L 396.035, 238.996 
" />
<path d="M 403.122, 534.224 
	L 403.122, 238.996 
" />
<path d="M 410.209, 534.224 
	L 410.209, 238.996 
" />
<path d="M 417.295, 534.224 
	L 417.295, 238.996 
" />
<path d="M 424.382, 534.224 
	L 424.382, 238.996 
" />
<path d="M 431.469, 534.224 
	L 431.469, 238.996 
" />
<path d="M 438.555, 534.224 
	L 438.555, 238.996 
" />
<path d="M 445.642, 534.224 
	L 445.642, 238.996 
" />
<path d="M 452.728, 534.224 
	L 452.728, 238.996 
" />
<path d="M 459.815, 534.224 
	L 459.815, 238.996 
" />
<path d="M 466.902, 534.224 
	L 466.902, 238.996 
" />
<path d="M 473.988, 534.224 
	L 473.988, 238.996 
" />
<path d="M 481.075, 534.224 
	L 481.075, 238.996 
" />
<path d="M 488.161, 534.224 
	L 488.161, 238.996 
" />
<path d="M 495.248, 534.224 
	L 495.248, 238.996 
" />
<path d="M 502.335, 534.224 
	L 502.335, 238.996 
" />
<path d="M 509.421, 534.224 
	L 509.421, 238.996 
" />
<path d="M 516.508, 534.224 
	L 516.508, 238.996 
" />
<path d="M 523.595, 534.224 
	L 523.595, 238.996 
" />
<path d="M 530.681, 534.224 
	L 530.681, 238.996 
" />
<path d="M 537.768, 534.224 
	L 537.768, 238.996 
" />
<path d="M 544.854, 534.224 
	L 544.854, 238.996 
" />
<path d="M 551.941, 534.224 
	L 551.941, 238.996 
" />
<path d="M 559.028, 534.224 
	L 559.028, 238.996 
" />
<path d="M 566.114, 534.224 
	L 566.114, 238.996 
" />
<path d="M 573.201, 534.224 
	L 573.201, 238.996 
" />
<path d="M 580.287, 534.224 
	L 580.287, 238.996 
" />
<path d="M 587.374, 534.224 
	L 587.374, 238.996 
" />
<path d="M 594.461, 534.224 
	L 594.461, 238.996 
" />
<path d="M 601.547, 534.224 
	L 601.547, 238.996 
" />
<path d="M 608.634, 534.224 
	L 608.634, 238.996 
" />
<path d="M 615.721, 534.224 
	L 615.721, 238.996 
" />
<path d="M 622.807, 534.224 
	L 622.807, 238.996 
" />
<path d="M 629.894, 534.224 
	L 629.894, 238.996 
" />
<path d="M 636.980, 534.224 
	L 636.980, 238.996 
" />
<path d="M 644.067, 534.224 
	L 644.067, 238.996 
" />
<path d="M 651.154, 534.224 
	L 651.154, 238.996 
" />
<path d="M 658.240, 534.224 
	L 658.240, 238.996 
" />
<path d="M 665.327, 534.224 
	L 665.327, 238.996 
" />
<path d="M 672.413, 534.224 
	L 672.413, 238.996 
" />
<path d="M 679.500, 534.224 
	L 679.500, 238.996 
" />
<path d="M 686.587, 534.224 
	L 686.587, 238.996 
" />
<path d="M 699.236, 534.224 
	L 699.236, 238.996 
	L 708.662, 238.996 
	L 708.662, 534.224 
	L 699.236, 534.224 
" />
<path d="M 699.272, 534.224 
	L 699.272, 238.996 
" />
<path d="M 699.236, 708.697 
	L 699.236, 534.224 
	L 708.662, 534.224 
	L 708.662, 708.697 
	L 699.236, 708.697 
" />
<path d="M 699.272, 708.697 
	L 699.272, 534.224 
" />
<path d="M 0.000, 708.697 
	L 0.000, 704.587 
	L 16.370, 704.587 
	L 16.370, 708.697 
	L 0.000, 708.697 
" />
<path d="M 0.035, 708.697 
	L 0.035, 704.587 
" />
<path d="M 7.122, 708.697 
	L 7.122, 704.587 
" />
<path d="M 0.000, 704.587 
	L 0.000, 690.697 
	L 16.370, 690.697 
	L 16.370, 704.587 
	L 0.000, 704.587 
" />
<path d="M 0.035, 704.587 
	L 0.035, 690.697 
" />
<path d="M 7.122, 704.587 
	L 7.122, 690.697 
" />
<path d="M 16.406, 704.587 
	L 16.406, 690.697 
	L 43.051, 690.697 
	L 43.051, 704.587 
	L 16.406, 704.587 
" />
<path d="M 16.406, 704.587 
	L 16.406, 690.697 
" />
<path d="M 23.492, 704.587 
	L 23.492, 690.697 
" />
<path d="M 30.579, 704.587 
	L 30.579, 690.697 
" />
<path d="M 16.406, 708.697 
	L 16.406, 704.587 
	L 43.051, 704.587 
	L 43.051, 708.697 
	L 16.406, 708.697 
" />
<path d="M 16.406, 708.697 
	L 16.406, 704.587 
" />
<path d="M 23.492, 708.697 
	L 23.492, 704.587 
" />
<path d="M 30.579, 708.697 
	L 30.579, 704.587 
" />
<path d="M 0.000, 690.697 
	L 0.000, 289.311 
	L 5.740, 289.311 
	L 5.740, 690.697 
	L 0.000, 690.697 
" />
<path d="M 0.000, 289.311 
	L 0.000, 238.996 
	L 5.740, 238.996 
	L 5.740, 289.311 
	L 0.000, 289.311 
" />
<path d="M 5.776, 289.311 
	L 5.776, 238.996 
	L 43.051, 238.996 
	L 43.051, 289.311 
	L 5.776, 289.311 
" />
<path d="M 5.776, 289.311 
	L 5.776, 238.996 
" />
<path d="M 12.862, 289.311 
	L 12.862, 238.996 
" />
<path d="M 19.949, 289.311 
	L 19.949, 238.996 
" />
<path d="M 27.035, 289.311 
	L 27.035, 238.996 
" />
<path d="M 34.122, 289.311 
	L 34.122, 238.996 
" />
<path d="M 5.776, 690.697 
	L 5.776, 289.311 
	L 43.051, 289.311 
	L 43.051, 690.697 
	L 5.776, 690.697 
" />
<path d="M 5.776, 690.697 
	L 5.776, 289.311 
" />
<path d="M 12.862, 690.697 
	L 12.862, 289.311 
" />
<path d="M 19.949, 690.697 
	L 19.949, 289.311 
" />
<path d="M 27.035, 690.697 
	L 27.035, 289.311 
" />
<path d="M 34.122, 690.697 
	L 34.122, 289.311 
" />
<path d="M 43.016, 690.697 
	L 43.016, 632.728 
	L 236.976, 632.728 
	L 236.976, 690.697 
	L 43.016, 690.697 
" />
<path d="M 43.051, 690.697 
	L 43.051, 632.728 
" />
<path d="M 50.138, 690.697 
	L 50.138, 632.728 
" />
<path d="M 57.224, 690.697 
	L 57.224, 632.728 
" />
<path d="M 64.311, 690.697 
	L 64.311, 632.728 
" />
<path d="M 71.398, 690.697 
	L 71.398, 632.728 
" />
<path d="M 78.484, 690.697 
	L 78.484, 632.728 
" />
<path d="M 85.571, 690.697 
	L 85.571, 632.728 
" />
<path d="M 92.657, 690.697 
	L 92.657, 632.728 
" />
<path d="M 99.744, 690.697 
	L 99.744, 632.728 
" />
<path d="M 106.831, 690.697 
	L 106.831, 632.728 
" />
<path d="M 113.917, 690.697 
	L 113.917, 632.728 
" />
<path d="M 121.004, 690.697 
	L 121.004, 632.728 
" />
<path d="M 128.091, 690.697 
	L 128.091, 632.728 
" />
<path d="M 135.177, 690.697 
	L 135.177, 632.728 
" />
<path d="M 142.264, 690.697 
	L 142.264, 632.728 
" />
<path d="M 149.350, 690.697 
	L 149.350, 632.728 
" />
<path d="M 156.437, 690.697 
	L 156.437, 632.728 
" />
<path d="M 163.524, 690.697 
	L 163.524, 632.728 
" />
<path d="M 170.610, 690.697 
	L 170.610, 632.728 
" />
<path d="M 177.697, 690.697 
	L 177.697, 632.728 
" />
<path d="M 184.783, 690.697 
	L 184.783, 632.728 
" />
<path d="M 191.870, 690.697 
	L 191.870, 632.728 
" />
<path d="M 198.957, 690.697 
	L 198.957, 632.728 
" />
<path d="M 206.043, 690.697 
	L 206.043, 632.728 
" />
<path d="M 213.130, 690.697 
	L 213.130, 632.728 
" />
<path d="M 220.217, 690.697 
	L 220.217, 632.728 
" />
<path d="M 227.303, 690.697 
	L 227.303, 632.728 
" />
<path d="M 43.016, 632.728 
	L 43.016, 238.996 
	L 236.976, 238.996 
	L 236.976, 632.728 
	L 43.016, 632.728 
" />
<path d="M 43.051, 632.728 
	L 43.051, 238.996 
" />
<path d="M 50.138, 632.728 
	L 50.138, 238.996 
" />
<path d="M 57.224, 632.728 
	L 57.224, 238.996 
" />
<path d="M 64.311, 632.728 
	L 64.311, 238.996 
" />
<path d="M 71.398, 632.728 
	L 71.398, 238.996 
" />
<path d="M 78.484, 632.728 
	L 78.484, 238.996 
" />
<path d="M 85.571, 632.728 
	L 85.571, 238.996 
" />
<path d="M 92.657, 632.728 
	L 92.657, 238.996 
" />
<path d="M 99.744, 632.728 
	L 99.744, 238.996 
" />
<path d="M 106.831, 632.728 
	L 106.831, 238.996 
" />
<path d="M 113.917, 632.728 
	L 113.917, 238.996 
" />
<path d="M 121.004, 632.728 
	L 121.004, 238.996 
" />
<path d="M 128.091, 632.728 
	L 128.091, 238.996 
" />
<path d="M 135.177, 632.728 
	L 135.177, 238.996 
" />
<path d="M 142.264, 632.728 
	L 142.264, 238.996 
" />
<path d="M 149.350, 632.728 
	L 149.350, 238.996 
" />
<path d="M 156.437, 632.728 
	L 156.437, 238.996 
" />
<path d="M 163.524, 632.728 
	L 163.524, 238.996 
" />
<path d="M 170.610, 632.728 
	L 170.610, 238.996 
" />
<path d="M 177.697, 632.728 
	L 177.697, 238.996 
" />
<path d="M 184.783, 632.728 
	L 184.783, 238.996 
" />
<path d="M 191.870, 632.728 
	L 191.870, 238.996 
" />
<path d="M 198.957, 632.728 
	L 198.957, 238.996 
" />
<path d="M 206.043, 632.728 
	L 206.043, 238.996 
" />
<path d="M 213.130, 632.728 
	L 213.130, 238.996 
" />
<path d="M 220.217, 632.728 
	L 220.217, 238.996 
" />
<path d="M 227.303, 632.728 
	L 227.303, 238.996 
" />
<path d="M 237.012, 632.728 
	L 237.012, 238.996 
	L 240.130, 238.996 
	L 240.130, 632.728 
	L 237.012, 632.728 
" />
<path d="M 237.012, 690.697 
	L 237.012, 632.728 
	L 240.130, 632.728 
	L 240.130, 690.697 
	L 237.012, 690.697 
" />
<path d="M 43.016, 708.697 
	L 43.016, 703.453 
	L 202.394, 703.453 
	L 202.394, 708.697 
	L 43.016, 708.697 
" />
<path d="M 43.051, 708.697 
	L 43.051, 703.453 
" />
<path d="M 50.138, 708.697 
	L 50.138, 703.453 
" />
<path d="M 57.224, 708.697 
	L 57.224, 703.453 
" />
<path d="M 64.311, 708.697 
	L 64.311, 703.453 
" />
<path d="M 71.398, 708.697 
	L 71.398, 703.453 
" />
<path d="M 78.484, 708.697 
	L 78.484, 703.453 
" />
<path d="M 85.571, 708.697 
	L 85.571, 703.453 
" />
<path d="M 92.657, 708.697 
	L 92.657, 703.453 
" />
<path d="M 99.744, 708.697 
	L 99.744, 703.453 
" />
<path d="M 106.831, 708.697 
	L 106.831, 703.453 
" />
<path d="M 113.917, 708.697 
	L 113.917, 703.453 
" />
<path d="M 121.004, 708.697 
	L 121.004, 703.453 
" />
<path d="M 128.091, 708.697 
	L 128.091, 703.453 
" />
<path d="M 135.177, 708.697 
	L 135.177, 703.453 
" />
<path d="M 142.264, 708.697 
	L 142.264, 703.453 
" />
<path d="M 149.350, 708.697 
	L 149.350, 703.453 
" />
<path d="M 156.437, 708.697 
	L 156.437, 703.453 
" />
<path d="M 163.524, 708.697 
	L 163.524, 703.453 
" />
<path d="M 170.610, 708.697 
	L 170.610, 703.453 
" />
<path d="M 177.697, 708.697 
	L 177.697, 703.453 
" />
<path d="M 184.783, 708.697 
	L 184.783, 703.453 
" />
<path d="M 191.870, 708.697 
	L 191.870, 703.453 
" />
<path d="M 43.016, 703.453 
	L 43.016, 690.697 
	L 202.394, 690.697 
	L 202.394, 703.453 
	L 43.016, 703.453 
" />
<path d="M 43.051, 703.453 
	L 43.051, 690.697 
" />
<path d="M 50.138, 703.453 
	L 50.138, 690.697 
" />
<path d="M 57.224, 703.453 
	L 57.224, 690.697 
" />
<path d="M 64.311, 703.453 
	L 64.311, 690.697 
" />
<path d="M 71.398, 703.453 
	L 71.398, 690.697 
" />
<path d="M 78.484, 703.453 
	L 78.484, 690.697 
" />
<path d="M 85.571, 703.453 
	L 85.571, 690.697 
" />
<path d="M 92.657, 703.453 
	L 92.657, 690.697 
" />
<path d="M 99.744, 703.453 
	L 99.744, 690.697 
" />
<path d="M 106.831, 703.453 
	L 106.831, 690.697 
" />
<path d="M 113.917, 703.453 
	L 113.917, 690.697 
" />
<path d="M 121.004, 703.453 
	L 121.004, 690.697 
" />
<path d="M 128.091, 703.453 
	L 128.091, 690.697 
" />
<path d="M 135.177, 703.453 
	L 135.177, 690.697 
" />
<path d="M 142.264, 703.453 
	L 142.264, 690.697 
" />
<path d="M 149.350, 703.453 
	L 149.350, 690.697 
" />
<path d="M 156.437, 703.453 
	L 156.437, 690.697 
" />
<path d="M 163.524, 703.453 
	L 163.524, 690.697 
" />
<path d="M 170.610, 703.453 
	L 170.610, 690.697 
" />
<path d="M 177.697, 703.453 
	L 177.697, 690.697 
" />
<path d="M 184.783, 703.453 
	L 184.783, 690.697 
" />
<path d="M 191.870, 703.453 
	L 191.870, 690.697 
" />
<path d="M 202.429, 703.453 
	L 202.429, 690.697 
	L 240.130, 690.697 
	L 240.130, 703.453 
	L 202.429, 703.453 
" />
<path d="M 202.429, 703.453 
	L 202.429, 690.697 
" />
<path d="M 209.516, 703.453 
	L 209.516, 690.697 
" />
<path d="M 216.602, 703.453 
	L 216.602, 690.697 
" />
<path d="M 223.689, 703.453 
	L 223.689, 690.697 
" />
<path d="M 230.776, 703.453 
	L 230.776, 690.697 
" />
<path d="M 202.429, 708.697 
	L 202.429, 703.453 
	L 240.130, 703.453 
	L 240.130, 708.697 
	L 202.429, 708.697 
" />
<path d="M 202.429, 708.697 
	L 202.429, 703.453 
" />
<path d="M 209.516, 708.697 
	L 209.516, 703.453 
" />
<path d="M 216.602, 708.697 
	L 216.602, 703.453 
" />
<path d="M 223.689, 708.697 
	L 223.689, 703.453 
" />
<path d="M 230.776, 708.697 
	L 230.776, 703.453 
" />
<path d="M 0.000, 239.032 
	L 0.000, 141.307 
	L 60.449, 141.307 
	L 60.449, 239.032 
	L 0.000, 239.032 
" />
<path d="M 0.035, 238.996 
	L 0.035, 141.272 
" />
<path d="M 7.122, 238.996 
	L 7.122, 141.272 
" />
<path d="M 14.209, 238.996 
	L 14.209, 141.272 
" />
<path d="M 21.295, 238.996 
	L 21.295, 141.272 
" />
<path d="M 28.382, 238.996 
	L 28.382, 141.272 
" />
<path d="M 35.469, 238.996 
	L 35.469, 141.272 
" />
<path d="M 42.555, 238.996 
	L 42.555, 141.272 
" />
<path d="M 49.642, 238.996 
	L 49.642, 141.272 
" />
<path d="M 0.000, 141.307 
	L 0.000, 112.606 
	L 60.449, 112.606 
	L 60.449, 141.307 
	L 0.000, 141.307 
" />
<path d="M 0.035, 141.272 
	L 0.035, 112.571 
" />
<path d="M 7.122, 141.272 
	L 7.122, 112.571 
" />
<path d="M 14.209, 141.272 
	L 14.209, 112.571 
" />
<path d="M 21.295, 141.272 
	L 21.295, 112.571 
" />
<path d="M 28.382, 141.272 
	L 28.382, 112.571 
" />
<path d="M 35.469, 141.272 
	L 35.469, 112.571 
" />
<path d="M 42.555, 141.272 
	L 42.555, 112.571 
" />
<path d="M 49.642, 141.272 
	L 49.642, 112.571 
" />
<path d="M 60.449, 141.307 
	L 60.449, 112.606 
	L 174.047, 112.606 
	L 174.047, 141.307 
	L 60.449, 141.307 
" />
<path d="M 60.484, 141.272 
	L 60.484, 112.571 
" />
<path d="M 67.571, 141.272 
	L 67.571, 112.571 
" />
<path d="M 74.657, 141.272 
	L 74.657, 112.571 
" />
<path d="M 81.744, 141.272 
	L 81.744, 112.571 
" />
<path d="M 88.831, 141.272 
	L 88.831, 112.571 
" />
<path d="M 95.917, 141.272 
	L 95.917, 112.571 
" />
<path d="M 103.004, 141.272 
	L 103.004, 112.571 
" />
<path d="M 110.091, 141.272 
	L 110.091, 112.571 
" />
<path d="M 117.177, 141.272 
	L 117.177, 112.571 
" />
<path d="M 124.264, 141.272 
	L 124.264, 112.571 
" />
<path d="M 131.350, 141.272 
	L 131.350, 112.571 
" />
<path d="M 138.437, 141.272 
	L 138.437, 112.571 
" />
<path d="M 145.524, 141.272 
	L 145.524, 112.571 
" />
<path d="M 152.610, 141.272 
	L 152.610, 112.571 
" />
<path d="M 159.697, 141.272 
	L 159.697, 112.571 
" />
<path d="M 166.783, 141.272 
	L 166.783, 112.571 
" />
<path d="M 60.449, 239.032 
	L 60.449, 141.307 
	L 174.047, 141.307 
	L 174.047, 239.032 
	L 60.449, 239.032 
" />
<path d="M 60.484, 238.996 
	L 60.484, 141.272 
" />
<path d="M 67.571, 238.996 
	L 67.571, 141.272 
" />
<path d="M 74.657, 238.996 
	L 74.657, 141.272 
" />
<path d="M 81.744, 238.996 
	L 81.744, 141.272 
" />
<path d="M 88.831, 238.996 
	L 88.831, 141.272 
" />
<path d="M 95.917, 238.996 
	L 95.917, 141.272 
" />
<path d="M 103.004, 238.996 
	L 103.004, 141.272 
" />
<path d="M 110.091, 238.996 
	L 110.091, 141.272 
" />
<path d="M 117.177, 238.996 
	L 117.177, 141.272 
" />
<path d="M 124.264, 238.996 
	L 124.264, 141.272 
" />
<path d="M 131.350, 238.996 
	L 131.350, 141.272 
" />
<path d="M 138.437, 238.996 
	L 138.437, 141.272 
" />
<path d="M 145.524, 238.996 
	L 145.524, 141.272 
" />
<path d="M 152.610, 238.996 
	L 152.610, 141.272 
" />
<path d="M 159.697, 238.996 
	L 159.697, 141.272 
" />
<path d="M 166.783, 238.996 
	L 166.783, 141.272 
" />
<path d="M 0.035, 112.606 
	L 0.035, 84.189 
	L 95.705, 84.189 
	L 95.705, 112.606 
	L 0.035, 112.606 
" />
<path d="M 0.035, 112.571 
	L 0.035, 84.154 
" />
<path d="M 7.122, 112.571 
	L 7.122, 84.154 
" />
<path d="M 14.209, 112.571 
	L 14.209, 84.154 
" />
<path d="M 21.295, 112.571 
	L 21.295, 84.154 
" />
<path d="M 28.382, 112.571 
	L 28.382, 84.154 
" />
<path d="M 35.469, 112.571 
	L 35.469, 84.154 
" />
<path d="M 42.555, 112.571 
	L 42.555, 84.154 
" />
<path d="M 49.642, 112.571 
	L 49.642, 84.154 
" />
<path d="M 56.728, 112.571 
	L 56.728, 84.154 
" />
<path d="M 63.815, 112.571 
	L 63.815, 84.154 
" />
<path d="M 70.902, 112.571 
	L 70.902, 84.154 
" />
<path d="M 77.988, 112.571 
	L 77.988, 84.154 
" />
<path d="M 85.075, 112.571 
	L 85.075, 84.154 
" />
<path d="M 0.035, 84.189 
	L 0.035, 0.071 
	L 95.705, 0.071 
	L 95.705, 84.189 
	L 0.035, 84.189 
" />
<path d="M 0.035, 84.154 
	L 0.035, 0.035 
" />
<path d="M 7.122, 84.154 
	L 7.122, 0.035 
" />
<path d="M 14.209, 84.154 
	L 14.209, 0.035 
" />
<path d="M 21.295, 84.154 
	L 21.295, 0.035 
" />
<path d="M 28.382, 84.154 
	L 28.382, 0.035 
" />
<path d="M 35.469, 84.154 
	L 35.469, 0.035 
" />
<path d="M 42.555, 84.154 
	L 42.555, 0.035 
" />
<path d="M 49.642, 84.154 
	L 49.642, 0.035 
" />
<path d="M 56.728, 84.154 
	L 56.728, 0.035 
" />
<path d="M 63.815, 84.154 
	L 63.815, 0.035 
" />
<path d="M 70.902, 84.154 
	L 70.902, 0.035 
" />
<path d="M 77.988, 84.154 
	L 77.988, 0.035 
" />
<path d="M 85.075, 84.154 
	L 85.075, 0.035 
" />
<path d="M 95.705, 84.189 
	L 95.705, 0.071 
	L 174.083, 0.071 
	L 174.083, 84.189 
	L 95.705, 84.189 
" />
<path d="M 95.705, 84.154 
	L 95.705, 0.035 
" />
<path d="M 102.791, 84.154 
	L 102.791, 0.035 
" />
<path d="M 109.878, 84.154 
	L 109.878, 0.035 
" />
<path d="M 116.965, 84.154 
	L 116.965, 0.035 
" />
<path d="M 124.051, 84.154 
	L 124.051, 0.035 
" />
<path d="M 131.138, 84.154 
	L 131.138, 0.035 
" />
<path d="M 138.224, 84.154 
	L 138.224, 0.035 
" />
<path d="M 145.311, 84.154 
	L 145.311, 0.035 
" />
<path d="M 152.398, 84.154 
	L 152.398, 0.035 
" />
<path d="M 159.484, 84.154 
	L 159.484, 0.035 
" />
<path d="M 166.571, 84.154 
	L 166.571, 0.035 
" />
<path d="M 95.705, 112.606 
	L 95.705, 84.189 
	L 174.083, 84.189 
	L 174.083, 112.606 
	L 95.705, 112.606 
" />
<path d="M 95.705, 112.571 
	L 95.705, 84.154 
" />
<path d="M 102.791, 112.571 
	L 102.791, 84.154 
" />
<path d="M 109.878, 112.571 
	L 109.878, 84.154 
" />
<path d="M 116.965, 112.571 
	L 116.965, 84.154 
" />
<path d="M 124.051, 112.571 
	L 124.051, 84.154 
" />
<path d="M 131.138, 112.571 
	L 131.138, 84.154 
" />
<path d="M 138.224, 112.571 
	L 138.224, 84.154 
" />
<path d="M 145.311, 112.571 
	L 145.311, 84.154 
" />
<path d="M 152.398, 112.571 
	L 152.398, 84.154 
" />
<path d="M 159.484, 112.571 
	L 159.484, 84.154 
" />
<path d="M 166.571, 112.571 
	L 166.571, 84.154 
" />
<path d="M 174.047, 112.606 
	L 174.047, 92.693 
	L 226.843, 92.693 
	L 226.843, 112.606 
	L 174.047, 112.606 
" />
<path d="M 174.083, 112.571 
	L 174.083, 92.657 
" />
<path d="M 181.169, 112.571 
	L 181.169, 92.657 
" />
<path d="M 188.256, 112.571 
	L 188.256, 92.657 
" />
<path d="M 195.343, 112.571 
	L 195.343, 92.657 
" />
<path d="M 202.429, 112.571 
	L 202.429, 92.657 
" />
<path d="M 209.516, 112.571 
	L 209.516, 92.657 
" />
<path d="M 216.602, 112.571 
	L 216.602, 92.657 
" />
<path d="M 174.047, 92.693 
	L 174.047, 0.071 
	L 226.843, 0.071 
	L 226.843, 92.693 
	L 174.047, 92.693 
" />
<path d="M 174.083, 92.657 
	L 174.083, 0.035 
" />
<path d="M 181.169, 92.657 
	L 181.169, 0.035 
" />
<path d="M 188.256, 92.657 
	L 188.256, 0.035 
" />
<path d="M 195.343, 92.657 
	L 195.343, 0.035 
" />
<path d="M 202.429, 92.657 
	L 202.429, 0.035 
" />
<path d="M 209.516, 92.657 
	L 209.516, 0.035 
" />
<path d="M 216.602, 92.657 
	L 216.602, 0.035 
" />
<path d="M 226.843, 92.693 
	L 226.843, 0.071 
	L 240.095, 0.071 
	L 240.095, 92.693 
	L 226.843, 92.693 
" />
<path d="M 226.878, 92.657 
	L 226.878, 0.035 
" />
<path d="M 226.843, 112.606 
	L 226.843, 92.693 
	L 240.095, 92.693 
	L 240.095, 112.606 
	L 226.843, 112.606 
" />
<path d="M 226.878, 112.571 
	L 226.878, 92.657 
" />
<path d="M 174.083, 238.996 
	L 174.083, 188.398 
	L 223.264, 188.398 
	L 223.264, 238.996 
	L 174.083, 238.996 
" />
<path d="M 174.083, 238.996 
	L 174.083, 188.398 
" />
<path d="M 181.169, 238.996 
	L 181.169, 188.398 
" />
<path d="M 188.256, 238.996 
	L 188.256, 188.398 
" />
<path d="M 195.343, 238.996 
	L 195.343, 188.398 
" />
<path d="M 202.429, 238.996 
	L 202.429, 188.398 
" />
<path d="M 209.516, 238.996 
	L 209.516, 188.398 
" />
<path d="M 174.083, 188.398 
	L 174.083, 112.571 
	L 223.264, 112.571 
	L 223.264, 188.398 
	L 174.083, 188.398 
" />
<path d="M 174.083, 188.398 
	L 174.083, 112.571 
" />
<path d="M 181.169, 188.398 
	L 181.169, 112.571 
" />
<path d="M 188.256, 188.398 
	L 188.256, 112.571 
" />
<path d="M 195.343, 188.398 
	L 195.343, 112.571 
" />
<path d="M 202.429, 188.398 
	L 202.429, 112.571 
" />
<path d="M 209.516, 188.398 
	L 209.516, 112.571 
" />
<path d="M 223.264, 188.398 
	L 223.264, 112.571 
	L 240.130, 112.571 
	L 240.130, 188.398 
	L 223.264, 188.398 
" />
<path d="M 223.264, 188.398 
	L 223.264, 112.571 
" />
<path d="M 230.350, 188.398 
	L 230.350, 112.571 
" />
<path d="M 223.264, 238.996 
	L 223.264, 188.398 
	L 240.130, 188.398 
	L 240.130, 238.996 
	L 223.264, 238.996 
" />
<path d="M 223.264, 238.996 
	L 223.264, 188.398 
" />
<path d="M 230.350, 238.996 
	L 230.350, 188.398 
" />
<path d="M 240.095, 239.032 
	L 240.095, 217.701 
	L 306.780, 217.701 
	L 306.780, 239.032 
	L 240.095, 239.032 
" />
<path d="M 240.130, 238.996 
	L 240.130, 217.665 
" />
<path d="M 247.217, 238.996 
	L 247.217, 217.665 
" />
<path d="M 254.303, 238.996 
	L 254.303, 217.665 
" />
<path d="M 261.390, 238.996 
	L 261.390, 217.665 
" />
<path d="M 268.476, 238.996 
	L 268.476, 217.665 
" />
<path d="M 275.563, 238.996 
	L 275.563, 217.665 
" />
<path d="M 282.650, 238.996 
	L 282.650, 217.665 
" />
<path d="M 289.736, 238.996 
	L 289.736, 217.665 
" />
<path d="M 296.823, 238.996 
	L 296.823, 217.665 
" />
<path d="M 240.095, 217.665 
	L 240.095, 200.091 
	L 306.780, 200.091 
	L 306.780, 217.665 
	L 240.095, 217.665 
" />
<path d="M 240.130, 217.665 
	L 240.130, 200.091 
" />
<path d="M 247.217, 217.665 
	L 247.217, 200.091 
" />
<path d="M 254.303, 217.665 
	L 254.303, 200.091 
" />
<path d="M 261.390, 217.665 
	L 261.390, 200.091 
" />
<path d="M 268.476, 217.665 
	L 268.476, 200.091 
" />
<path d="M 275.563, 217.665 
	L 275.563, 200.091 
" />
<path d="M 282.650, 217.665 
	L 282.650, 200.091 
" />
<path d="M 289.736, 217.665 
	L 289.736, 200.091 
" />
<path d="M 296.823, 217.665 
	L 296.823, 200.091 
" />
<path d="M 306.780, 217.665 
	L 306.780, 200.091 
	L 328.535, 200.091 
	L 328.535, 217.665 
	L 306.780, 217.665 
" />
<path d="M 306.815, 217.665 
	L 306.815, 200.091 
" />
<path d="M 313.902, 217.665 
	L 313.902, 200.091 
" />
<path d="M 320.988, 217.665 
	L 320.988, 200.091 
" />
<path d="M 306.780, 239.032 
	L 306.780, 217.701 
	L 328.535, 217.701 
	L 328.535, 239.032 
	L 306.780, 239.032 
" />
<path d="M 306.815, 238.996 
	L 306.815, 217.665 
" />
<path d="M 313.902, 238.996 
	L 313.902, 217.665 
" />
<path d="M 320.988, 238.996 
	L 320.988, 217.665 
" />
<path d="M 240.095, 200.091 
	L 240.095, 98.327 
	L 310.606, 98.327 
	L 310.606, 200.091 
	L 240.095, 200.091 
" />
<path d="M 240.130, 200.091 
	L 240.130, 98.327 
" />
<path d="M 247.217, 200.091 
	L 247.217, 98.327 
" />
<path d="M 254.303, 200.091 
	L 254.303, 98.327 
" />
<path d="M 261.390, 200.091 
	L 261.390, 98.327 
" />
<path d="M 268.476, 200.091 
	L 268.476, 98.327 
" />
<path d="M 275.563, 200.091 
	L 275.563, 98.327 
" />
<path d="M 282.650, 200.091 
	L 282.650, 98.327 
" />
<path d="M 289.736, 200.091 
	L 289.736, 98.327 
" />
<path d="M 296.823, 200.091 
	L 296.823, 98.327 
" />
<path d="M 240.095, 98.362 
	L 240.095, 0.071 
	L 310.606, 0.071 
	L 310.606, 98.362 
	L 240.095, 98.362 
" />
<path d="M 240.130, 98.327 
	L 240.130, 0.035 
" />
<path d="M 247.217, 98.327 
	L 247.217, 0.035 
" />
<path d="M 254.303, 98.327 
	L 254.303, 0.035 
" />
<path d="M 261.390, 98.327 
	L 261.390, 0.035 
" />
<path d="M 268.476, 98.327 
	L 268.476, 0.035 
" />
<path d="M 275.563, 98.327 
	L 275.563, 0.035 
" />
<path d="M 282.650, 98.327 
	L 282.650, 0.035 
" />
<path d="M 289.736, 98.327 
	L 289.736, 0.035 
" />
<path d="M 296.823, 98.327 
	L 296.823, 0.035 
" />
<path d="M 310.606, 98.362 
	L 310.606, 0.071 
	L 328.535, 0.071 
	L 328.535, 98.362 
	L 310.606, 98.362 
" />
<path d="M 310.642, 98.327 
	L 310.642, 0.035 
" />
<path d="M 317.728, 98.327 
	L 317.728, 0.035 
" />
<path d="M 310.606, 200.091 
	L 310.606, 98.327 
	L 328.535, 98.327 
	L 328.535, 200.091 
	L 310.606, 200.091 
" />
<path d="M 310.642, 200.091 
	L 310.642, 98.327 
" />
<path d="M 317.728, 200.091 
	L 317.728, 98.327 
" />
<path d="M 328.535, 200.091 
	L 328.535, 80.043 
	L 656.008, 80.043 
	L 656.008, 200.091 
	L 328.535, 200.091 
" />
<path d="M 328.571, 200.091 
	L 328.571, 80.043 
" />
<path d="M 335.658, 200.091 
	L 335.658, 80.043 
" />
<path d="M 342.744, 200.091 
	L 342.744, 80.043 
" />
<path d="M 349.831, 200.091 
	L 349.831, 80.043 
" />
<path d="M 356.917, 200.091 
	L 356.917, 80.043 
" />
<path d="M 364.004, 200.091 
	L 364.004, 80.043 
" />
<path d="M 371.091, 200.091 
	L 371.091, 80.043 
" />
<path d="M 378.177, 200.091 
	L 378.177, 80.043 
" />
<path d="M 385.264, 200.091 
	L 385.264, 80.043 
" />
<path d="M 392.350, 200.091 
	L 392.350, 80.043 
" />
<path d="M 399.437, 200.091 
	L 399.437, 80.043 
" />
<path d="M 406.524, 200.091 
	L 406.524, 80.043 
" />
<path d="M 413.610, 200.091 
	L 413.610, 80.043 
" />
<path d="M 420.697, 200.091 
	L 420.697, 80.043 
" />
<path d="M 427.784, 200.091 
	L 427.784, 80.043 
" />
<path d="M 434.870, 200.091 
	L 434.870, 80.043 
" />
<path d="M 441.957, 200.091 
	L 441.957, 80.043 
" />
<path d="M 449.043, 200.091 
	L 449.043, 80.043 
" />
<path d="M 456.130, 200.091 
	L 456.130, 80.043 
" />
<path d="M 463.217, 200.091 
	L 463.217, 80.043 
" />
<path d="M 470.303, 200.091 
	L 470.303, 80.043 
" />
<path d="M 477.390, 200.091 
	L 477.390, 80.043 
" />
<path d="M 484.476, 200.091 
	L 484.476, 80.043 
" />
<path d="M 491.563, 200.091 
	L 491.563, 80.043 
" />
<path d="M 498.650, 200.091 
	L 498.650, 80.043 
" />
<path d="M 505.736, 200.091 
	L 505.736, 80.043 
" />
<path d="M 512.823, 200.091 
	L 512.823, 80.043 
" />
<path d="M 519.910, 200.091 
	L 519.910, 80.043 
" />
<path d="M 526.996, 200.091 
	L 526.996, 80.043 
" />
<path d="M 534.083, 200.091 
	L 534.083, 80.043 
" />
<path d="M 541.169, 200.091 
	L 541.169, 80.043 
" />
<path d="M 548.256, 200.091 
	L 548.256, 80.043 
" />
<path d="M 555.343, 200.091 
	L 555.343, 80.043 
" />
<path d="M 562.429, 200.091 
	L 562.429, 80.043 
" />
<path d="M 569.516, 200.091 
	L 569.516, 80.043 
" />
<path d="M 576.602, 200.091 
	L 576.602, 80.043 
" />
<path d="M 583.689, 200.091 
	L 583.689, 80.043 
" />
<path d="M 590.776, 200.091 
	L 590.776, 80.043 
" />
<path d="M 597.862, 200.091 
	L 597.862, 80.043 
" />
<path d="M 604.949, 200.091 
	L 604.949, 80.043 
" />
<path d="M 612.036, 200.091 
	L 612.036, 80.043 
" />
<path d="M 619.122, 200.091 
	L 619.122, 80.043 
" />
<path d="M 626.209, 200.091 
	L 626.209, 80.043 
" />
<path d="M 633.295, 200.091 
	L 633.295, 80.043 
" />
<path d="M 640.382, 200.091 
	L 640.382, 80.043 
" />
<path d="M 647.469, 200.091 
	L 647.469, 80.043 
" />
<path d="M 328.535, 80.079 
	L 328.535, 0.071 
	L 656.008, 0.071 
	L 656.008, 80.079 
	L 328.535, 80.079 
" />
<path d="M 328.571, 80.043 
	L 328.571, 0.035 
" />
<path d="M 335.658, 80.043 
	L 335.658, 0.035 
" />
<path d="M 342.744, 80.043 
	L 342.744, 0.035 
" />
<path d="M 349.831, 80.043 
	L 349.831, 0.035 
" />
<path d="M 356.917, 80.043 
	L 356.917, 0.035 
" />
<path d="M 364.004, 80.043 
	L 364.004, 0.035 
" />
<path d="M 371.091, 80.043 
	L 371.091, 0.035 
" />
<path d="M 378.177, 80.043 
	L 378.177, 0.035 
" />
<path d="M 385.264, 80.043 
	L 385.264, 0.035 
" />
<path d="M 392.350, 80.043 
	L 392.350, 0.035 
" />
<path d="M 399.437, 80.043 
	L 399.437, 0.035 
" />
<path d="M 406.524, 80.043 
	L 406.524, 0.035 
" />
<path d="M 413.610, 80.043 
	L 413.610, 0.035 
" />
<path d="M 420.697, 80.043 
	L 420.697, 0.035 
" />
<path d="M 427.784, 80.043 
	L 427.784, 0.035 
" />
<path d="M 434.870, 80.043 
	L 434.870, 0.035 
" />
<path d="M 441.957, 80.043 
	L 441.957, 0.035 
" />
<path d="M 449.043, 80.043 
	L 449.043, 0.035 
" />
<path d="M 456.130, 80.043 
	L 456.130, 0.035 
" />
<path d="M 463.217, 80.043 
	L 463.217, 0.035 
" />
<path d="M 470.303, 80.043 
	L 470.303, 0.035 
" />
<path d="M 477.390, 80.043 
	L 477.390, 0.035 
" />
<path d="M 484.476, 80.043 
	L 484.476, 0.035 
" />
<path d="M 491.563, 80.043 
	L 491.563, 0.035 
" />
<path d="M 498.650, 80.043 
	L 498.650, 0.035 
" />
<path d="M 505.736, 80.043 
	L 505.736, 0.035 
" />
<path d="M 512.823, 80.043 
	L 512.823, 0.035 
" />
<path d="M 519.910, 80.043 
	L 519.910, 0.035 
" />
<path d="M 526.996, 80.043 
	L 526.996, 0.035 
" />
<path d="M 534.083, 80.043 
	L 534.083, 0.035 
" />
<path d="M 541.169, 80.043 
	L 541.169, 0.035 
" />
<path d="M 548.256, 80.043 
	L 548.256, 0.035 
" />
<path d="M 555.343, 80.043 
	L 555.343, 0.035 
" />
<path d="M 562.429, 80.043 
	L 562.429, 0.035 
" />
<path d="M 569.516, 80.043 
	L 569.516, 0.035 
" />
<path d="M 576.602, 80.043 
	L 576.602, 0.035 
" />
<path d="M 583.689, 80.043 
	L 583.689, 0.035 
" />
<path d="M 590.776, 80.043 
	L 590.776, 0.035 
" />
<path d="M 597.862, 80.043 
	L 597.862, 0.035 
" />
<path d="M 604.949, 80.043 
	L 604.949, 0.035 
" />
<path d="M 612.036, 80.043 
	L 612.036, 0.035 
" />
<path d="M 619.122, 80.043 
	L 619.122, 0.035 
" />
<path d="M 626.209, 80.043 
	L 626.209, 0.035 
" />
<path d="M 633.295, 80.043 
	L 633.295, 0.035 
" />
<path d="M 640.382, 80.043 
	L 640.382, 0.035 
" />
<path d="M 647.469, 80.043 
	L 647.469, 0.035 
" />
<path d="M 656.008, 80.079 
	L 656.008, 0.071 
	L 708.662, 0.071 
	L 708.662, 80.079 
	L 656.008, 80.079 
" />
<path d="M 656.043, 80.043 
	L 656.043, 0.035 
" />
<path d="M 663.130, 80.043 
	L 663.130, 0.035 
" />
<path d="M 670.217, 80.043 
	L 670.217, 0.035 
" />
<path d="M 677.303, 80.043 
	L 677.303, 0.035 
" />
<path d="M 684.390, 80.043 
	L 684.390, 0.035 
" />
<path d="M 691.476, 80.043 
	L 691.476, 0.035 
" />
<path d="M 698.563, 80.043 
	L 698.563, 0.035 
" />
<path d="M 656.008, 200.091 
	L 656.008, 80.043 
	L 708.662, 80.043 
	L 708.662, 200.091 
	L 656.008, 200.091 
" />
<path d="M 656.043, 200.091 
	L 656.043, 80.043 
" />
<path d="M 663.130, 200.091 
	L 663.130, 80.043 
" />
<path d="M 670.217, 200.091 
	L 670.217, 80.043 
" />
<path d="M 677.303, 200.091 
	L 677.303, 80.043 
" />
<path d="M 684.390, 200.091 
	L 684.390, 80.043 
" />
<path d="M 691.476, 200.091 
	L 691.476, 80.043 
" />
<path d="M 698.563, 200.091 
	L 698.563, 80.043 
" />
<path d="M 328.535, 238.996 
	L 328.535, 206.681 
	L 346.606, 206.681 
	L 346.606, 238.996 
	L 328.535, 238.996 
" />
<path d="M 328.571, 238.996 
	L 328.571, 206.681 
" />
<path d="M 335.658, 238.996 
	L 335.658, 206.681 
" />
<path d="M 328.535, 206.717 
	L 328.535, 200.126 
	L 346.606, 200.126 
	L 346.606, 206.717 
	L 328.535, 206.717 
" />
<path d="M 328.571, 206.681 
	L 328.571, 200.091 
" />
<path d="M 335.658, 206.681 
	L 335.658, 200.091 
" />
<path d="M 346.606, 206.717 
	L 346.606, 200.126 
	L 708.662, 200.126 
	L 708.662, 206.717 
	L 346.606, 206.717 
" />
<path d="M 346.642, 206.681 
	L 346.642, 200.091 
" />
<path d="M 353.728, 206.681 
	L 353.728, 200.091 
" />
<path d="M 360.815, 206.681 
	L 360.815, 200.091 
" />
<path d="M 367.902, 206.681 
	L 367.902, 200.091 
" />
<path d="M 374.988, 206.681 
	L 374.988, 200.091 
" />
<path d="M 382.075, 206.681 
	L 382.075, 200.091 
" />
<path d="M 389.161, 206.681 
	L 389.161, 200.091 
" />
<path d="M 396.248, 206.681 
	L 396.248, 200.091 
" />
<path d="M 403.335, 206.681 
	L 403.335, 200.091 
" />
<path d="M 410.421, 206.681 
	L 410.421, 200.091 
" />
<path d="M 417.508, 206.681 
	L 417.508, 200.091 
" />
<path d="M 424.595, 206.681 
	L 424.595, 200.091 
" />
<path d="M 431.681, 206.681 
	L 431.681, 200.091 
" />
<path d="M 438.768, 206.681 
	L 438.768, 200.091 
" />
<path d="M 445.854, 206.681 
	L 445.854, 200.091 
" />
<path d="M 452.941, 206.681 
	L 452.941, 200.091 
" />
<path d="M 460.028, 206.681 
	L 460.028, 200.091 
" />
<path d="M 467.114, 206.681 
	L 467.114, 200.091 
" />
<path d="M 474.201, 206.681 
	L 474.201, 200.091 
" />
<path d="M 481.287, 206.681 
	L 481.287, 200.091 
" />
<path d="M 488.374, 206.681 
	L 488.374, 200.091 
" />
<path d="M 495.461, 206.681 
	L 495.461, 200.091 
" />
<path d="M 502.547, 206.681 
	L 502.547, 200.091 
" />
<path d="M 509.634, 206.681 
	L 509.634, 200.091 
" />
<path d="M 516.721, 206.681 
	L 516.721, 200.091 
" />
<path d="M 523.807, 206.681 
	L 523.807, 200.091 
" />
<path d="M 530.894, 206.681 
	L 530.894, 200.091 
" />
<path d="M 537.980, 206.681 
	L 537.980, 200.091 
" />
<path d="M 545.067, 206.681 
	L 545.067, 200.091 
" />
<path d="M 552.154, 206.681 
	L 552.154, 200.091 
" />
<path d="M 559.240, 206.681 
	L 559.240, 200.091 
" />
<path d="M 566.327, 206.681 
	L 566.327, 200.091 
" />
<path d="M 573.413, 206.681 
	L 573.413, 200.091 
" />
<path d="M 580.500, 206.681 
	L 580.500, 200.091 
" />
<path d="M 587.587, 206.681 
	L 587.587, 200.091 
" />
<path d="M 594.673, 206.681 
	L 594.673, 200.091 
" />
<path d="M 601.760, 206.681 
	L 601.760, 200.091 
" />
<path d="M 608.847, 206.681 
	L 608.847, 200.091 
" />
<path d="M 615.933, 206.681 
	L 615.933, 200.091 
" />
<path d="M 623.020, 206.681 
	L 623.020, 200.091 
" />
<path d="M 630.106, 206.681 
	L 630.106, 200.091 
" />
<path d="M 637.193, 206.681 
	L 637.193, 200.091 
" />
<path d="M 644.280, 206.681 
	L 644.280, 200.091 
" />
<path d="M 651.366, 206.681 
	L 651.366, 200.091 
" />
<path d="M 658.453, 206.681 
	L 658.453, 200.091 
" />
<path d="M 665.539, 206.681 
	L 665.539, 200.091 
" />
<path d="M 672.626, 206.681 
	L 672.626, 200.091 
" />
<path d="M 679.713, 206.681 
	L 679.713, 200.091 
" />
<path d="M 686.799, 206.681 
	L 686.799, 200.091 
" />
<path d="M 693.886, 206.681 
	L 693.886, 200.091 
" />
<path d="M 700.973, 206.681 
	L 700.973, 200.091 
" />
<path d="M 346.606, 238.996 
	L 346.606, 206.681 
	L 708.662, 206.681 
	L 708.662, 238.996 
	L 346.606, 238.996 
" />
<path d="M 346.642, 238.996 
	L 346.642, 206.681 
" />
<path d="M 353.728, 238.996 
	L 353.728, 206.681 
" />
<path d="M 360.815, 238.996 
	L 360.815, 206.681 
" />
<path d="M 367.902, 238.996 
	L 367.902, 206.681 
" />
<path d="M 374.988, 238.996 
	L 374.988, 206.681 
" />
<path d="M 382.075, 238.996 
	L 382.075, 206.681 
" />
<path d="M 389.161, 238.996 
	L 389.161, 206.681 
" />
<path d="M 396.248, 238.996 
	L 396.248, 206.681 
" />
<path d="M 403.335, 238.996 
	L 403.335, 206.681 
" />
<path d="M 410.421, 238.996 
	L 410.421, 206.681 
" />
<path d="M 417.508, 238.996 
	L 417.508, 206.681 
" />
<path d="M 424.595, 238.996 
	L 424.595, 206.681 
" />
<path d="M 431.681, 238.996 
	L 431.681, 206.681 
" />
<path d="M 438.768, 238.996 
	L 438.768, 206.681 
" />
<path d="M 445.854, 238.996 
	L 445.854, 206.681 
" />
<path d="M 452.941, 238.996 
	L 452.941, 206.681 
" />
<path d="M 460.028, 238.996 
	L 460.028, 206.681 
" />
<path d="M 467.114, 238.996 
	L 467.114, 206.681 
" />
<path d="M 474.201, 238.996 
	L 474.201, 206.681 
" />
<path d="M 481.287, 238.996 
	L 481.287, 206.681 
" />
<path d="M 488.374, 238.996 
	L 488.374, 206.681 
" />
<path d="M 495.461, 238.996 
	L 495.461, 206.681 
" />
<path d="M 502.547, 238.996 
	L 502.547, 206.681 
" />
<path d="M 509.634, 238.996 
	L 509.634, 206.681 
" />
<path d="M 516.721, 238.996 
	L 516.721, 206.681 
" />
<path d="M 523.807, 238.996 
	L 523.807, 206.681 
" />
<path d="M 530.894, 238.996 
	L 530.894, 206.681 
" />
<path d="M 537.980, 238.996 
	L 537.980, 206.681 
" />
<path d="M 545.067, 238.996 
	L 545.067, 206.681 
" />
<path d="M 552.154, 238.996 
	L 552.154, 206.681 
" />
<path d="M 559.240, 238.996 
	L 559.240, 206.681 
" />
<path d="M 566.327, 238.996 
	L 566.327, 206.681 
" />
<path d="M 573.413, 238.996 
	L 573.413, 206.681 
" />
<path d="M 580.500, 238.996 
	L 580.500, 206.681 
" />
<path d="M 587.587, 238.996 
	L 587.587, 206.681 
" />
<path d="M 594.673, 238.996 
	L 594.673, 206.681 
" />
<path d="M 601.760, 238.996 
	L 601.760, 206.681 
" />
<path d="M 608.847, 238.996 
	L 608.847, 206.681 
" />
<path d="M 615.933, 238.996 
	L 615.933, 206.681 
" />
<path d="M 623.020, 238.996 
	L 623.020, 206.681 
" />
<path d="M 630.106, 238.996 
	L 630.106, 206.681 
" />
<path d="M 637.193, 238.996 
	L 637.193, 206.681 
" />
<path d="M 644.280, 238.996 
	L 644.280, 206.681 
" />
<path d="M 651.366, 238.996 
	L 651.366, 206.681 
" />
<path d="M 658.453, 238.996 
	L 658.453, 206.681 
" />
<path d="M 665.539, 238.996 
	L 665.539, 206.681 
" />
<path d="M 672.626, 238.996 
	L 672.626, 206.681 
" />
<path d="M 679.713, 238.996 
	L 679.713, 206.681 
" />
<path d="M 686.799, 238.996 
	L 686.799, 206.681 
" />
<path d="M 693.886, 238.996 
	L 693.886, 206.681 
" />
<path d="M 700.973, 238.996 
	L 700.973, 206.681 
" />
<path d="M 240.095, 708.697 
	L 240.095, 663.059 
	L 609.378, 663.059 
	L 609.378, 708.697 
	L 240.095, 708.697 
" />
<path d="M 240.130, 708.697 
	L 240.130, 663.059 
" />
<path d="M 247.217, 708.697 
	L 247.217, 663.059 
" />
<path d="M 254.303, 708.697 
	L 254.303, 663.059 
" />
<path d="M 261.390, 708.697 
	L 261.390, 663.059 
" />
<path d="M 268.476, 708.697 
	L 268.476, 663.059 
" />
<path d="M 275.563, 708.697 
	L 275.563, 663.059 
" />
<path d="M 282.650, 708.697 
	L 282.650, 663.059 
" />
<path d="M 289.736, 708.697 
	L 289.736, 663.059 
" />
<path d="M 296.823, 708.697 
	L 296.823, 663.059 
" />
<path d="M 303.909, 708.697 
	L 303.909, 663.059 
" />
<path d="M 310.996, 708.697 
	L 310.996, 663.059 
" />
<path d="M 318.083, 708.697 
	L 318.083, 663.059 
" />
<path d="M 325.169, 708.697 
	L 325.169, 663.059 
" />
<path d="M 332.256, 708.697 
	L 332.256, 663.059 
" />
<path d="M 339.343, 708.697 
	L 339.343, 663.059 
" />
<path d="M 346.429, 708.697 
	L 346.429, 663.059 
" />
<path d="M 353.516, 708.697 
	L 353.516, 663.059 
" />
<path d="M 360.602, 708.697 
	L 360.602, 663.059 
" />
<path d="M 367.689, 708.697 
	L 367.689, 663.059 
" />
<path d="M 374.776, 708.697 
	L 374.776, 663.059 
" />
<path d="M 381.862, 708.697 
	L 381.862, 663.059 
" />
<path d="M 388.949, 708.697 
	L 388.949, 663.059 
" />
<path d="M 396.035, 708.697 
	L 396.035, 663.059 
" />
<path d="M 403.122, 708.697 
	L 403.122, 663.059 
" />
<path d="M 410.209, 708.697 
	L 410.209, 663.059 
" />
<path d="M 417.295, 708.697 
	L 417.295, 663.059 
" />
<path d="M 424.382, 708.697 
	L 424.382, 663.059 
" />
<path d="M 431.469, 708.697 
	L 431.469, 663.059 
" />
<path d="M 438.555, 708.697 
	L 438.555, 663.059 
" />
<path d="M 445.642, 708.697 
	L 445.642, 663.059 
" />
<path d="M 452.728, 708.697 
	L 452.728, 663.059 
" />
<path d="M 459.815, 708.697 
	L 459.815, 663.059 
" />
<path d="M 466.902, 708.697 
	L 466.902, 663.059 
" />
<path d="M 473.988, 708.697 
	L 473.988, 663.059 
" />
<path d="M 481.075, 708.697 
	L 481.075, 663.059 
" />
<path d="M 488.161, 708.697 
	L 488.161, 663.059 
" />
<path d="M 495.248, 708.697 
	L 495.248, 663.059 
" />
<path d="M 502.335, 708.697 
	L 502.335, 663.059 
" />
<path d="M 509.421, 708.697 
	L 509.421, 663.059 
" />
<path d="M 516.508, 708.697 
	L 516.508, 663.059 
" />
<path d="M 523.595, 708.697 
	L 523.595, 663.059 
" />
<path d="M 530.681, 708.697 
	L 530.681, 663.059 
" />
<path d="M 537.768, 708.697 
	L 537.768, 663.059 
" />
<path d="M 544.854, 708.697 
	L 544.854, 663.059 
" />
<path d="M 551.941, 708.697 
	L 551.941, 663.059 
" />
<path d="M 559.028, 708.697 
	L 559.028, 663.059 
" />
<path d="M 566.114, 708.697 
	L 566.114, 663.059 
" />
<path d="M 573.201, 708.697 
	L 573.201, 663.059 
" />
<path d="M 580.287, 708.697 
	L 580.287, 663.059 
" />
<path d="M 587.374, 708.697 
	L 587.374, 663.059 
" />
<path d="M 594.461, 708.697 
	L 594.461, 663.059 
" />
<path d="M 601.547, 708.697 
	L 601.547, 663.059 
" />
<path d="M 240.095, 663.059 
	L 240.095, 534.224 
	L 609.378, 534.224 
	L 609.378, 663.059 
	L 240.095, 663.059 
" />
<path d="M 240.130, 663.059 
	L 240.130, 534.224 
" />
<path d="M 247.217, 663.059 
	L 247.217, 534.224 
" />
<path d="M 254.303, 663.059 
	L 254.303, 534.224 
" />
<path d="M 261.390, 663.059 
	L 261.390, 534.224 
" />
<path d="M 268.476, 663.059 
	L 268.476, 534.224 
" />
<path d="M 275.563, 663.059 
	L 275.563, 534.224 
" />
<path d="M 282.650, 663.059 
	L 282.650, 534.224 
" />
<path d="M 289.736, 663.059 
	L 289.736, 534.224 
" />
<path d="M 296.823, 663.059 
	L 296.823, 534.224 
" />
<path d="M 303.909, 663.059 
	L 303.909, 534.224 
" />
<path d="M 310.996, 663.059 
	L 310.996, 534.224 
" />
<path d="M 318.083, 663.059 
	L 318.083, 534.224 
" />
<path d="M 325.169, 663.059 
	L 325.169, 534.224 
" />
<path d="M 332.256, 663.059 
	L 332.256, 534.224 
" />
<path d="M 339.343, 663.059 
	L 339.343, 534.224 
" />
<path d="M 346.429, 663.059 
	L 346.429, 534.224 
" />
<path d="M 353.516, 663.059 
	L 353.516, 534.224 
" />
<path d="M 360.602, 663.059 
	L 360.602, 534.224 
" />
<path d="M 367.689, 663.059 
	L 367.689, 534.224 
" />
<path d="M 374.776, 663.059 
	L 374.776, 534.224 
" />
<path d="M 381.862, 663.059 
	L 381.862, 534.224 
" />
<path d="M 388.949, 663.059 
	L 388.949, 534.224 
" />
<path d="M 396.035, 663.059 
	L 396.035, 534.224 
" />
<path d="M 403.122, 663.059 
	L 403.122, 534.224 
" />
<path d="M 410.209, 663.059 
	L 410.209, 534.224 
" />
<path d="M 417.295, 663.059 
	L 417.295, 534.224 
" />
<path d="M 424.382, 663.059 
	L 424.382, 534.224 
" />
<path d="M 431.469, 663.059 
	L 431.469, 534.224 
" />
<path d="M 438.555, 663.059 
	L 438.555, 534.224 
" />
<path d="M 445.642, 663.059 
	L 445.642, 534.224 
" />
<path d="M 452.728, 663.059 
	L 452.728, 534.224 
" />
<path d="M 459.815, 663.059 
	L 459.815, 534.224 
" />
<path d="M 466.902, 663.059 
	L 466.902, 534.224 
" />
<path d="M 473.988, 663.059 
	L 473.988, 534.224 
" />
<path d="M 481.075, 663.059 
	L 481.075, 534.224 
" />
<path d="M 488.161, 663.059 
	L 488.161, 534.224 
" />
<path d="M 495.248, 663.059 
	L 495.248, 534.224 
" />
<path d="M 502.335, 663.059 
	L 502.335, 534.224 
" />
<path d="M 509.421, 663.059 
	L 509.421, 534.224 
" />
<path d="M 516.508, 663.059 
	L 516.508, 534.224 
" />
<path d="M 523.595, 663.059 
	L 523.595, 534.224 
" />
<path d="M 530.681, 663.059 
	L 530.681, 534.224 
" />
<path d="M 537.768, 663.059 
	L 537.768, 534.224 
" />
<path d="M 544.854, 663.059 
	L 544.854, 534.224 
" />
<path d="M 551.941, 663.059 
	L 551.941, 534.224 
" />
<path d="M 559.028, 663.059 
	L 559.028, 534.224 
" />
<path d="M 566.114, 663.059 
	L 566.114, 534.224 
" />
<path d="M 573.201, 663.059 
	L 573.201, 534.224 
" />
<path d="M 580.287, 663.059 
	L 580.287, 534.224 
" />
<path d="M 587.374, 663.059 
	L 587.374, 534.224 
" />
<path d="M 594.461, 663.059 
	L 594.461, 534.224 
" />
<path d="M 601.547, 663.059 
	L 601.547, 534.224 
" />
<path d="M 609.413, 663.059 
	L 609.413, 534.224 
	L 699.272, 534.224 
	L 699.272, 663.059 
	L 609.413, 663.059 
" />
<path d="M 609.413, 663.059 
	L 609.413, 534.224 
" />
<path d="M 616.500, 663.059 
	L 616.500, 534.224 
" />
<path d="M 623.587, 663.059 
	L 623.587, 534.224 
" />
<path d="M 630.673, 663.059 
	L 630.673, 534.224 
" />
<path d="M 637.760, 663.059 
	L 637.760, 534.224 
" />
<path d="M 644.847, 663.059 
	L 644.847, 534.224 
" />
<path d="M 651.933, 663.059 
	L 651.933, 534.224 
" />
<path d="M 659.020, 663.059 
	L 659.020, 534.224 
" />
<path d="M 666.106, 663.059 
	L 666.106, 534.224 
" />
<path d="M 673.193, 663.059 
	L 673.193, 534.224 
" />
<path d="M 680.280, 663.059 
	L 680.280, 534.224 
" />
<path d="M 687.366, 663.059 
	L 687.366, 534.224 
" />
<path d="M 609.413, 708.697 
	L 609.413, 663.059 
	L 699.272, 663.059 
	L 699.272, 708.697 
	L 609.413, 708.697 
" />
<path d="M 609.413, 708.697 
	L 609.413, 663.059 
" />
<path d="M 616.500, 708.697 
	L 616.500, 663.059 
" />
<path d="M 623.587, 708.697 
	L 623.587, 663.059 
" />
<path d="M 630.673, 708.697 
	L 630.673, 663.059 
" />
<path d="M 637.760, 708.697 
	L 637.760, 663.059 
" />
<path d="M 644.847, 708.697 
	L 644.847, 663.059 
" />
<path d="M 651.933, 708.697 
	L 651.933, 663.059 
" />
<path d="M 659.020, 708.697 
	L 659.020, 663.059 
" />
<path d="M 666.106, 708.697 
	L 666.106, 663.059 
" />
<path d="M 673.193, 708.697 
	L 673.193, 663.059 
" />
<path d="M 680.280, 708.697 
	L 680.280, 663.059 
" />
<path d="M 687.366, 708.697 
	L 687.366, 663.059 
" />
<path d="M 240.095, 534.260 
	L 240.095, 416.126 
	L 360.496, 416.126 
	L 360.496, 534.260 
	L 240.095, 534.260 
" />
<path d="M 240.130, 534.224 
	L 240.130, 416.091 
" />
<path d="M 247.217, 534.224 
	L 247.217, 416.091 
" />
<path d="M 254.303, 534.224 
	L 254.303, 416.091 
" />
<path d="M 261.390, 534.224 
	L 261.390, 416.091 
" />
<path d="M 268.476, 534.224 
	L 268.476, 416.091 
" />
<path d="M 275.563, 534.224 
	L 275.563, 416.091 
" />
<path d="M 282.650, 534.224 
	L 282.650, 416.091 
" />
<path d="M 289.736, 534.224 
	L 289.736, 416.091 
" />
<path d="M 296.823, 534.224 
	L 296.823, 416.091 
" />
<path d="M 303.909, 534.224 
	L 303.909, 416.091 
" />
<path d="M 310.996, 534.224 
	L 310.996, 416.091 
" />
<path d="M 318.083, 534.224 
	L 318.083, 416.091 
" />
<path d="M 325.169, 534.224 
	L 325.169, 416.091 
" />
<path d="M 332.256, 534.224 
	L 332.256, 416.091 
" />
<path d="M 339.343, 534.224 
	L 339.343, 416.091 
" />
<path d="M 346.429, 534.224 
	L 346.429, 416.091 
" />
<path d="M 240.095, 416.126 
	L 240.095, 239.032 
	L 360.496, 239.032 
	L 360.496, 416.126 
	L 240.095, 416.126 
" />
<path d="M 240.130, 416.091 
	L 240.130, 238.996 
" />
<path d="M 247.217, 416.091 
	L 247.217, 238.996 
" />
<path d="M 254.303, 416.091 
	L 254.303, 238.996 
" />
<path d="M 261.390, 416.091 
	L 261.390, 238.996 
" />
<path d="M 268.476, 416.091 
	L 268.476, 238.996 
" />
<path d="M 275.563, 416.091 
	L 275.563, 238.996 
" />
<path d="M 282.650, 416.091 
	L 282.650, 238.996 
" />
<path d="M 289.736, 416.091 
	L 289.736, 238.996 
" />
<path d="M 296.823, 416.091 
	L 296.823, 238.996 
" />
<path d="M 303.909, 416.091 
	L 303.909, 238.996 
" />
<path d="M 310.996, 416.091 
	L 310.996, 238.996 
" />
<path d="M 318.083, 416.091 
	L 318.083, 238.996 
" />
<path d="M 325.169, 416.091 
	L 325.169, 238.996 
" />
<path d="M 332.256, 416.091 
	L 332.256, 238.996 
" />
<path d="M 339.343, 416.091 
	L 339.343, 238.996 
" />
<path d="M 346.429, 416.091 
	L 346.429, 238.996 
" />
<path d="M 360.532, 416.126 
	L 360.532, 239.032 
	L 699.272, 239.032 
	L 699.272, 416.126 
	L 360.532, 416.126 
" />
<path d="M 360.532, 416.091 
	L 360.532, 238.996 
" />
<path d="M 367.618, 416.091 
	L 367.618, 238.996 
" />
<path d="M 374.705, 416.091 
	L 374.705, 238.996 
" />
<path d="M 381.791, 416.091 
	L 381.791, 238.996 
" />
<path d="M 388.878, 416.091 
	L 388.878, 238.996 
" />
<path d="M 395.965, 416.091 
	L 395.965, 238.996 
" />
<path d="M 403.051, 416.091 
	L 403.051, 238.996 
" />
<path d="M 410.138, 416.091 
	L 410.138, 238.996 
" />
<path d="M 417.224, 416.091 
	L 417.224, 238.996 
" />
<path d="M 424.311, 416.091 
	L 424.311, 238.996 
" />
<path d="M 431.398, 416.091 
	L 431.398, 238.996 
" />
<path d="M 438.484, 416.091 
	L 438.484, 238.996 
" />
<path d="M 445.571, 416.091 
	L 445.571, 238.996 
" />
<path d="M 452.658, 416.091 
	L 452.658, 238.996 
" />
<path d="M 459.744, 416.091 
	L 459.744, 238.996 
" />
<path d="M 466.831, 416.091 
	L 466.831, 238.996 
" />
<path d="M 473.917, 416.091 
	L 473.917, 238.996 
" />
<path d="M 481.004, 416.091 
	L 481.004, 238.996 
" />
<path d="M 488.091, 416.091 
	L 488.091, 238.996 
" />
<path d="M 495.177, 416.091 
	L 495.177, 238.996 
" />
<path d="M 502.264, 416.091 
	L 502.264, 238.996 
" />
<path d="M 509.350, 416.091 
	L 509.350, 238.996 
" />
<path d="M 516.437, 416.091 
	L 516.437, 238.996 
" />
<path d="M 523.524, 416.091 
	L 523.524, 238.996 
" />
<path d="M 530.610, 416.091 
	L 530.610, 238.996 
" />
<path d="M 537.697, 416.091 
	L 537.697, 238.996 
" />
<path d="M 544.784, 416.091 
	L 544.784, 238.996 
" />
<path d="M 551.870, 416.091 
	L 551.870, 238.996 
" />
<path d="M 558.957, 416.091 
	L 558.957, 238.996 
" />
<path d="M 566.043, 416.091 
	L 566.043, 238.996 
" />
<path d="M 573.130, 416.091 
	L 573.130, 238.996 
" />
<path d="M 580.217, 416.091 
	L 580.217, 238.996 
" />
<path d="M 587.303, 416.091 
	L 587.303, 238.996 
" />
<path d="M 594.390, 416.091 
	L 594.390, 238.996 
" />
<path d="M 601.476, 416.091 
	L 601.476, 238.996 
" />
<path d="M 608.563, 416.091 
	L 608.563, 238.996 
" />
<path d="M 615.650, 416.091 
	L 615.650, 238.996 
" />
<path d="M 622.736, 416.091 
	L 622.736, 238.996 
" />
<path d="M 629.823, 416.091 
	L 629.823, 238.996 
" />
<path d="M 636.910, 416.091 
	L 636.910, 238.996 
" />
<path d="M 643.996, 416.091 
	L 643.996, 238.996 
" />
<path d="M 651.083, 416.091 
	L 651.083, 238.996 
" />
<path d="M 658.169, 416.091 
	L 658.169, 238.996 
" />
<path d="M 665.256, 416.091 
	L 665.256, 238.996 
" />
<path d="M 672.343, 416.091 
	L 672.343, 238.996 
" />
<path d="M 679.429, 416.091 
	L 679.429, 238.996 
" />
<path d="M 686.516, 416.091 
	L 686.516, 238.996 
" />
<path d="M 360.532, 534.260 
	L 360.532, 416.126 
	L 699.272, 416.126 
	L 699.272, 534.260 
	L 360.532, 534.260 
" />
<path d="M 360.532, 534.224 
	L 360.532, 416.091 
" />
<path d="M 367.618, 534.224 
	L 367.618, 416.091 
" />
<path d="M 374.705, 534.224 
	L 374.705, 416.091 
" />
<path d="M 381.791, 534.224 
	L 381.791, 416.091 
" />
<path d="M 388.878, 534.224 
	L 388.878, 416.091 
" />
<path d="M 395.965, 534.224 
	L 395.965, 416.091 
" />
<path d="M 403.051, 534.224 
	L 403.051, 416.091 
" />
<path d="M 410.138, 534.224 
	L 410.138, 416.091 
" />
<path d="M 417.224, 534.224 
	L 417.224, 416.091 
" />
<path d="M 424.311, 534.224 
	L 424.311, 416.091 
" />
<path d="M 431.398, 534.224 
	L 431.398, 416.091 
" />
<path d="M 438.484, 534.224 
	L 438.484, 416.091 
" />
<path d="M 445.571, 534.224 
	L 445.571, 416.091 
" />
<path d="M 452.658, 534.224 
	L 452.658, 416.091 
" />
<path d="M 459.744, 534.224 
	L 459.744, 416.091 
" />
<path d="M 466.831, 534.224 
	L 466.831, 416.091 
" />
<path d="M 473.917, 534.224 
	L 473.917, 416.091 
" />
<path d="M 481.004, 534.224 
	L 481.004, 416.091 
" />
<path d="M 488.091, 534.224 
	L 488.091, 416.091 
" />
<path d="M 495.177, 534.224 
	L 495.177, 416.091 
" />
<path d="M 502.264, 534.224 
	L 502.264, 416.091 
" />
<path d="M 509.350, 534.224 
	L 509.350, 416.091 
" />
<path d="M 516.437, 534.224 
	L 516.437, 416.091 
" />
<path d="M 523.524, 534.224 
	L 523.524, 416.091 
" />
<path d="M 530.610, 534.224 
	L 530.610, 416.091 
" />
<path d="M 537.697, 534.224 
	L 537.697, 416.091 
" />
<path d="M 544.784, 534.224 
	L 544.784, 416.091 
" />
<path d="M 551.870, 534.224 
	L 551.870, 416.091 
" />
<path d="M 558.957, 534.224 
	L 558.957, 416.091 
" />
<path d="M 566.043, 534.224 
	L 566.043, 416.091 
" />
<path d="M 573.130, 534.224 
	L 573.130, 416.091 
" />
<path d="M 580.217, 534.224 
	L 580.217, 416.091 
" />
<path d="M 587.303, 534.224 
	L 587.303, 416.091 
" />
<path d="M 594.390, 534.224 
	L 594.390, 416.091 
" />
<path d="M 601.476, 534.224 
	L 601.476, 416.091 
" />
<path d="M 608.563, 534.224 
	L 608.563, 416.091 
" />
<path d="M 615.650, 534.224 
	L 615.650, 416.091 
" />
<path d="M 622.736, 534.224 
	L 622.736, 416.091 
" />
<path d="M 629.823, 534.224 
	L 629.823, 416.091 
" />
<path d="M 636.910, 534.224 
	L 636.910, 416.091 
" />
<path d="M 643.996, 534.224 
	L 643.996, 416.091 
" />
<path d="M 651.083, 534.224 
	L 651.083, 416.091 
" />
<path d="M 658.169, 534.224 
	L 658.169, 416.091 
" />
<path d="M 665.256, 534.224 
	L 665.256, 416.091 
" />
<path d="M 672.343, 534.224 
	L 672.343, 416.091 
" />
<path d="M 679.429, 534.224 
	L 679.429, 416.091 
" />
<path d="M 686.516, 534.224 
	L 686.516, 416.091 
" />
<path d="M 699.236, 534.224 
	L 699.236, 530.539 
	L 702.709, 530.539 
	L 702.709, 534.224 
	L 699.236, 534.224 
" />
<path d="M 699.236, 530.539 
	L 699.236, 238.996 
	L 702.709, 238.996 
	L 702.709, 530.539 
	L 699.236, 530.539 
" />
<path d="M 702.744, 530.539 
	L 702.744, 238.996 
	L 708.697, 238.996 
	L 708.697, 530.539 
	L 702.744, 530.539 
" />
<path d="M 702.744, 534.224 
	L 702.744, 530.539 
	L 708.697, 530.539 
	L 708.697, 534.224 
	L 702.744, 534.224 
" />
<path d="M 699.272, 708.732 
	L 699.272, 596.410 
	L 707.492, 596.410 
	L 707.492, 708.732 
	L 699.272, 708.732 
" />
<path d="M 699.272, 708.697 
	L 699.272, 596.374 
" />
<path d="M 699.272, 596.410 
	L 699.272, 534.260 
	L 707.492, 534.260 
	L 707.492, 596.410 
	L 699.272, 596.410 
" />
<path d="M 699.272, 596.374 
	L 699.272, 534.224 
" />
<path d="M 707.457, 596.410 
	L 707.457, 534.260 
	L 708.662, 534.260 
	L 708.662, 596.410 
	L 707.457, 596.410 
" />
<path d="M 707.457, 708.732 
	L 707.457, 596.410 
	L 708.662, 596.410 
	L 708.662, 708.732 
	L 707.457, 708.732 
" />
</g>
</svg>
