<?xml version="1.0" encoding="UTF-8" standalone="no" ?>
<svg width="100%" height="100%" viewBox="0 0 1135.276 708.662" xmlns="http://www.w3.org/2000/svg"><g>
</g><g style="stroke:rgb(0,0,0); fill:none; stroke-width:1.000mm" >
</g><g style="stroke:rgb(0,0,0); fill:none; stroke-width:0.100mm" >
<path d="M 1133.858, 708.662 
	L 1129.606, 703.347 
" />
<path d="M 1129.606, 702.284 
	L 1133.150, 702.284 
	L 1133.858, 701.221 
	L 1133.858, 699.095 
	L 1133.150, 698.032 
	L 1129.606, 698.032 
" />
<path d="M 1131.024, 692.717 
	L 1131.024, 694.843 
	L 1131.732, 695.906 
	L 1132.441, 694.843 
	L 1132.441, 693.780 
	L 1133.150, 692.717 
	L 1133.858, 693.780 
	L 1133.858, 695.906 
" />
<path d="M 1132.441, 689.528 
	L 1132.441, 686.339 
	L 1131.732, 685.276 
	L 1131.024, 686.339 
	L 1131.024, 688.465 
	L 1131.732, 689.528 
	L 1133.150, 689.528 
	L 1133.858, 688.465 
	L 1133.858, 685.276 
" />
<path d="M 1131.024, 683.150 
	L 1133.858, 683.150 
" />
<path d="M 1132.441, 683.150 
	L 1131.024, 681.024 
	L 1131.024, 679.961 
" />
<path d="M 1131.024, 673.583 
	L 1131.024, 675.709 
	L 1131.732, 676.772 
	L 1132.441, 675.709 
	L 1132.441, 674.646 
	L 1133.150, 673.583 
	L 1133.858, 674.646 
	L 1133.858, 676.772 
" />
<path d="M 1133.858, 670.394 
	L 1129.606, 665.079 
" />
<path d="M 1133.858, 664.016 
	L 1129.606, 664.016 
" />
<path d="M 1133.858, 660.827 
	L 1132.441, 664.016 
	L 1131.024, 660.827 
" />
<path d="M 1133.858, 653.386 
	L 1133.858, 656.575 
	L 1133.150, 657.638 
	L 1131.732, 657.638 
	L 1131.024, 656.575 
	L 1131.024, 654.449 
	L 1133.858, 654.449 
" />
<path d="M 1133.858, 650.197 
	L 1133.150, 651.260 
	L 1131.732, 651.260 
	L 1131.024, 650.197 
	L 1131.024, 649.134 
	L 1131.732, 648.071 
	L 1133.150, 648.071 
	L 1133.858, 649.134 
	L 1133.858, 650.197 
" />
<path d="M 1131.024, 641.693 
	L 1131.024, 643.819 
	L 1131.732, 644.882 
	L 1132.441, 643.819 
	L 1132.441, 642.756 
	L 1133.150, 641.693 
	L 1133.858, 642.756 
	L 1133.858, 644.882 
" />
<path d="M 1133.858, 638.504 
	L 1129.606, 633.189 
" />
<path d="M 1133.858, 632.126 
	L 1129.606, 632.126 
	L 1129.606, 628.937 
	L 1130.315, 627.874 
	L 1133.150, 627.874 
	L 1133.858, 628.937 
	L 1133.858, 632.126 
" />
<path d="M 1133.858, 624.685 
	L 1133.150, 625.748 
	L 1131.732, 625.748 
	L 1131.024, 624.685 
	L 1131.024, 623.622 
	L 1131.732, 622.559 
	L 1133.150, 622.559 
	L 1133.858, 623.622 
	L 1133.858, 624.685 
" />
<path d="M 1133.150, 615.118 
	L 1133.858, 616.181 
	L 1133.858, 617.244 
	L 1133.150, 618.307 
	L 1131.732, 618.307 
	L 1131.024, 617.244 
	L 1131.024, 616.181 
	L 1131.732, 615.118 
" />
<path d="M 1131.024, 612.992 
	L 1133.150, 612.992 
	L 1133.858, 611.929 
	L 1133.858, 609.803 
	L 1131.024, 609.803 
" />
<path d="M 1133.858, 606.614 
	L 1131.024, 606.614 
" />
<path d="M 1131.732, 606.614 
	L 1131.024, 605.551 
	L 1131.732, 604.488 
	L 1133.858, 604.488 
" />
<path d="M 1131.732, 604.488 
	L 1131.024, 603.425 
	L 1131.732, 602.362 
	L 1133.858, 602.362 
" />
<path d="M 1132.441, 600.236 
	L 1132.441, 597.047 
	L 1131.732, 595.984 
	L 1131.024, 597.047 
	L 1131.024, 599.173 
	L 1131.732, 600.236 
	L 1133.150, 600.236 
	L 1133.858, 599.173 
	L 1133.858, 595.984 
" />
<path d="M 1133.858, 593.858 
	L 1131.024, 593.858 
" />
<path d="M 1131.732, 593.858 
	L 1131.024, 592.795 
	L 1131.024, 591.732 
	L 1131.732, 590.669 
	L 1133.858, 590.669 
" />
<path d="M 1129.606, 586.417 
	L 1133.858, 586.417 
	L 1133.858, 584.291 
" />
<path d="M 1131.024, 587.480 
	L 1131.024, 584.291 
" />
<path d="M 1131.024, 577.913 
	L 1131.024, 580.039 
	L 1131.732, 581.102 
	L 1132.441, 580.039 
	L 1132.441, 578.976 
	L 1133.150, 577.913 
	L 1133.858, 578.976 
	L 1133.858, 581.102 
" />
<path d="M 1133.858, 574.724 
	L 1129.606, 569.410 
" />
<path d="M 1133.150, 568.347 
	L 1133.858, 567.284 
	L 1133.858, 565.158 
	L 1133.150, 564.095 
	L 1130.315, 564.095 
	L 1129.606, 565.158 
	L 1129.606, 567.284 
	L 1130.315, 568.347 
	L 1133.150, 568.347 
" />
<path d="M 1133.150, 561.969 
	L 1133.858, 560.906 
	L 1133.858, 558.780 
	L 1133.150, 557.717 
	L 1130.315, 557.717 
	L 1129.606, 558.780 
	L 1129.606, 560.906 
	L 1130.315, 561.969 
	L 1133.150, 561.969 
" />
<path d="M 1129.606, 551.339 
	L 1129.606, 555.591 
	L 1131.024, 555.591 
	L 1131.024, 552.402 
	L 1131.732, 551.339 
	L 1133.150, 551.339 
	L 1133.858, 552.402 
	L 1133.858, 554.528 
	L 1133.150, 555.591 
" />
<path d="M 1134.567, 549.213 
	L 1134.567, 544.961 
" />
<path d="M 1135.276, 542.835 
	L 1131.024, 542.835 
	L 1131.024, 540.709 
	L 1131.732, 539.646 
	L 1133.150, 539.646 
	L 1133.858, 540.709 
	L 1133.858, 542.835 
" />
<path d="M 1129.606, 535.394 
	L 1129.606, 534.331 
	L 1133.858, 534.331 
" />
<path d="M 1133.858, 535.394 
	L 1133.858, 533.268 
" />
<path d="M 1133.858, 529.016 
	L 1133.150, 530.079 
	L 1131.732, 530.079 
	L 1131.024, 529.016 
	L 1131.024, 527.953 
	L 1131.732, 526.890 
	L 1133.150, 526.890 
	L 1133.858, 527.953 
	L 1133.858, 529.016 
" />
<path d="M 1129.606, 522.638 
	L 1133.858, 522.638 
	L 1133.858, 520.512 
" />
<path d="M 1131.024, 523.701 
	L 1131.024, 520.512 
" />
<path d="M 1129.606, 516.260 
	L 1133.858, 516.260 
	L 1133.858, 514.134 
" />
<path d="M 1131.024, 517.323 
	L 1131.024, 514.134 
" />
<path d="M 1132.441, 510.945 
	L 1132.441, 507.756 
	L 1131.732, 506.693 
	L 1131.024, 507.756 
	L 1131.024, 509.882 
	L 1131.732, 510.945 
	L 1133.150, 510.945 
	L 1133.858, 509.882 
	L 1133.858, 506.693 
" />
<path d="M 1131.024, 504.567 
	L 1133.858, 504.567 
" />
<path d="M 1132.441, 504.567 
	L 1131.024, 502.441 
	L 1131.024, 501.378 
" />
<path d="M 1133.858, 498.189 
	L 1129.606, 492.874 
" />
<path d="M 1133.858, 490.748 
	L 1133.150, 491.811 
	L 1131.732, 491.811 
	L 1131.024, 490.748 
	L 1131.024, 489.685 
	L 1131.732, 488.622 
	L 1133.150, 488.622 
	L 1133.858, 489.685 
	L 1133.858, 490.748 
" />
<path d="M 1131.024, 485.433 
	L 1133.150, 485.433 
	L 1133.858, 484.370 
	L 1133.858, 482.244 
	L 1131.024, 482.244 
" />
<path d="M 1129.606, 477.992 
	L 1133.858, 477.992 
	L 1133.858, 475.866 
" />
<path d="M 1131.024, 479.055 
	L 1131.024, 475.866 
" />
<path d="M 1135.276, 472.677 
	L 1131.024, 472.677 
	L 1131.024, 470.551 
	L 1131.732, 469.488 
	L 1133.150, 469.488 
	L 1133.858, 470.551 
	L 1133.858, 472.677 
" />
<path d="M 1131.024, 466.299 
	L 1133.150, 466.299 
	L 1133.858, 465.236 
	L 1133.858, 463.110 
	L 1131.024, 463.110 
" />
<path d="M 1129.606, 458.858 
	L 1133.858, 458.858 
	L 1133.858, 456.732 
" />
<path d="M 1131.024, 459.921 
	L 1131.024, 456.732 
" />
<path d="M 1133.858, 453.543 
	L 1129.606, 448.228 
" />
<path d="M 1129.606, 446.102 
	L 1133.858, 446.102 
	L 1133.858, 443.976 
" />
<path d="M 1131.024, 447.165 
	L 1131.024, 443.976 
" />
<path d="M 1129.606, 438.661 
	L 1130.315, 438.661 
" />
<path d="M 1131.024, 439.724 
	L 1131.024, 438.661 
	L 1133.858, 438.661 
" />
<path d="M 1133.858, 439.724 
	L 1133.858, 437.598 
" />
<path d="M 1129.606, 433.347 
	L 1129.606, 432.284 
	L 1133.858, 432.284 
" />
<path d="M 1133.858, 433.347 
	L 1133.858, 431.221 
" />
<path d="M 1129.606, 426.969 
	L 1133.858, 426.969 
	L 1133.858, 424.843 
" />
<path d="M 1131.024, 428.032 
	L 1131.024, 424.843 
" />
<path d="M 1132.441, 421.654 
	L 1132.441, 418.465 
	L 1131.732, 417.402 
	L 1131.024, 418.465 
	L 1131.024, 420.591 
	L 1131.732, 421.654 
	L 1133.150, 421.654 
	L 1133.858, 420.591 
	L 1133.858, 417.402 
" />
<path d="M 1129.606, 412.087 
	L 1133.858, 412.087 
	L 1133.858, 414.213 
	L 1133.150, 415.276 
	L 1131.732, 415.276 
	L 1131.024, 414.213 
	L 1131.024, 412.087 
" />
<path d="M 1133.858, 412.087 
	L 1133.858, 411.024 
" />
<path d="M 1131.024, 405.709 
	L 1131.024, 407.835 
	L 1131.732, 408.898 
	L 1132.441, 407.835 
	L 1132.441, 406.772 
	L 1133.150, 405.709 
	L 1133.858, 406.772 
	L 1133.858, 408.898 
" />
<path d="M 1133.858, 399.331 
	L 1133.858, 401.457 
	L 1133.150, 402.520 
	L 1131.732, 402.520 
	L 1131.024, 401.457 
	L 1131.024, 399.331 
	L 1135.276, 399.331 
" />
<path d="M 1131.024, 396.142 
	L 1133.150, 396.142 
	L 1133.858, 395.079 
	L 1133.858, 392.953 
	L 1131.024, 392.953 
" />
<path d="M 1133.858, 385.512 
	L 1133.858, 388.701 
	L 1133.150, 389.764 
	L 1131.732, 389.764 
	L 1131.024, 388.701 
	L 1131.024, 386.575 
	L 1133.858, 386.575 
" />
<path d="M 1131.024, 383.386 
	L 1133.858, 383.386 
" />
<path d="M 1132.441, 383.386 
	L 1131.024, 381.260 
	L 1131.024, 380.197 
" />
<path d="M 1132.441, 377.008 
	L 1132.441, 373.819 
	L 1131.732, 372.756 
	L 1131.024, 373.819 
	L 1131.024, 375.945 
	L 1131.732, 377.008 
	L 1133.150, 377.008 
	L 1133.858, 375.945 
	L 1133.858, 372.756 
" />
<path d="M 1131.024, 367.441 
	L 1131.024, 369.567 
	L 1131.732, 370.630 
	L 1132.441, 369.567 
	L 1132.441, 368.504 
	L 1133.150, 367.441 
	L 1133.858, 368.504 
	L 1133.858, 370.630 
" />
<path d="M 1134.567, 364.252 
	L 1134.567, 360.000 
" />
<path d="M 1133.150, 357.874 
	L 1133.858, 356.811 
	L 1133.858, 354.685 
	L 1133.150, 353.622 
	L 1130.315, 353.622 
	L 1129.606, 354.685 
	L 1129.606, 356.811 
	L 1130.315, 357.874 
	L 1133.150, 357.874 
" />
<path d="M 1129.606, 347.244 
	L 1129.606, 351.496 
	L 1131.024, 351.496 
	L 1131.024, 348.307 
	L 1131.732, 347.244 
	L 1133.150, 347.244 
	L 1133.858, 348.307 
	L 1133.858, 350.433 
	L 1133.150, 351.496 
" />
<path d="M 1134.567, 345.118 
	L 1134.567, 340.866 
" />
<path d="M 1133.150, 338.740 
	L 1133.858, 337.677 
	L 1133.858, 335.551 
	L 1133.150, 334.488 
	L 1130.315, 334.488 
	L 1129.606, 335.551 
	L 1129.606, 337.677 
	L 1130.315, 338.740 
	L 1133.150, 338.740 
" />
<path d="M 1130.315, 332.362 
	L 1129.606, 331.299 
	L 1129.606, 329.173 
	L 1130.315, 328.110 
	L 1131.024, 328.110 
	L 1133.150, 332.362 
	L 1133.858, 332.362 
	L 1133.858, 328.110 
" />
<path d="M 1134.567, 325.984 
	L 1134.567, 321.732 
" />
<path d="M 1130.315, 319.606 
	L 1129.606, 318.543 
	L 1129.606, 316.417 
	L 1130.315, 315.354 
	L 1131.024, 315.354 
	L 1133.150, 319.606 
	L 1133.858, 319.606 
	L 1133.858, 315.354 
" />
<path d="M 1133.150, 313.228 
	L 1133.858, 312.165 
	L 1133.858, 310.039 
	L 1133.150, 308.976 
	L 1130.315, 308.976 
	L 1129.606, 310.039 
	L 1129.606, 312.165 
	L 1130.315, 313.228 
	L 1133.150, 313.228 
" />
<path d="M 1133.858, 305.787 
	L 1133.858, 303.661 
" />
<path d="M 1133.858, 304.724 
	L 1129.606, 304.724 
	L 1130.315, 305.787 
" />
<path d="M 1133.858, 299.409 
	L 1133.858, 298.346 
	L 1132.441, 296.220 
	L 1130.315, 296.220 
	L 1129.606, 297.283 
	L 1129.606, 299.409 
	L 1130.315, 300.472 
	L 1131.024, 300.472 
	L 1131.732, 299.409 
	L 1131.732, 296.220 
" />
<path d="M 1134.567, 294.094 
	L 1134.567, 289.843 
" />
<path d="M 1133.858, 286.654 
	L 1133.858, 284.528 
" />
<path d="M 1133.858, 285.591 
	L 1129.606, 285.591 
	L 1130.315, 286.654 
" />
<path d="M 1129.606, 277.087 
	L 1129.606, 281.339 
	L 1131.024, 281.339 
	L 1131.024, 278.150 
	L 1131.732, 277.087 
	L 1133.150, 277.087 
	L 1133.858, 278.150 
	L 1133.858, 280.276 
	L 1133.150, 281.339 
" />
<path d="M 1129.606, 271.772 
	L 1131.732, 274.961 
	L 1132.441, 274.961 
	L 1132.441, 270.709 
" />
<path d="M 1131.732, 271.772 
	L 1133.858, 271.772 
" />
<path d="M 1129.606, 264.331 
	L 1129.606, 268.583 
	L 1131.024, 268.583 
	L 1131.024, 265.394 
	L 1131.732, 264.331 
	L 1133.150, 264.331 
	L 1133.858, 265.394 
	L 1133.858, 267.520 
	L 1133.150, 268.583 
" />
<path d="M 1130.315, 236.693 
	L 1129.606, 235.630 
	L 1129.606, 233.504 
	L 1130.315, 232.441 
	L 1131.024, 232.441 
	L 1133.150, 236.693 
	L 1133.858, 236.693 
	L 1133.858, 232.441 
" />
<path d="M 1133.150, 230.315 
	L 1133.858, 229.252 
	L 1133.858, 227.126 
	L 1133.150, 226.063 
	L 1130.315, 226.063 
	L 1129.606, 227.126 
	L 1129.606, 229.252 
	L 1130.315, 230.315 
	L 1133.150, 230.315 
" />
<path d="M 1133.858, 222.874 
	L 1133.858, 220.748 
" />
<path d="M 1133.858, 221.811 
	L 1129.606, 221.811 
	L 1130.315, 222.874 
" />
<path d="M 1133.858, 216.496 
	L 1133.858, 215.433 
	L 1132.441, 213.307 
	L 1130.315, 213.307 
	L 1129.606, 214.370 
	L 1129.606, 216.496 
	L 1130.315, 217.559 
	L 1131.024, 217.559 
	L 1131.732, 216.496 
	L 1131.732, 213.307 
" />
<path d="M 1131.732, 211.181 
	L 1131.732, 206.929 
" />
<path d="M 1133.150, 204.803 
	L 1133.858, 203.740 
	L 1133.858, 201.614 
	L 1133.150, 200.551 
	L 1130.315, 200.551 
	L 1129.606, 201.614 
	L 1129.606, 203.740 
	L 1130.315, 204.803 
	L 1133.150, 204.803 
" />
<path d="M 1129.606, 194.173 
	L 1129.606, 198.425 
	L 1131.024, 198.425 
	L 1131.024, 195.236 
	L 1131.732, 194.173 
	L 1133.150, 194.173 
	L 1133.858, 195.236 
	L 1133.858, 197.362 
	L 1133.150, 198.425 
" />
<path d="M 1131.732, 192.047 
	L 1131.732, 187.795 
" />
<path d="M 1133.150, 185.669 
	L 1133.858, 184.606 
	L 1133.858, 182.480 
	L 1133.150, 181.417 
	L 1130.315, 181.417 
	L 1129.606, 182.480 
	L 1129.606, 184.606 
	L 1130.315, 185.669 
	L 1133.150, 185.669 
" />
<path d="M 1130.315, 179.291 
	L 1129.606, 178.228 
	L 1129.606, 176.102 
	L 1130.315, 175.039 
	L 1131.024, 175.039 
	L 1133.150, 179.291 
	L 1133.858, 179.291 
	L 1133.858, 175.039 
" />
<path d="M 1133.858, 165.472 
	L 1133.858, 163.346 
" />
<path d="M 1133.858, 164.409 
	L 1129.606, 164.409 
	L 1130.315, 165.472 
" />
<path d="M 1129.606, 155.906 
	L 1129.606, 160.157 
	L 1131.024, 160.157 
	L 1131.024, 156.968 
	L 1131.732, 155.906 
	L 1133.150, 155.906 
	L 1133.858, 156.968 
	L 1133.858, 159.094 
	L 1133.150, 160.157 
" />
<path d="M 1131.732, 152.717 
	L 1131.024, 152.717 
	L 1131.024, 151.654 
	L 1131.732, 151.654 
	L 1131.732, 152.717 
" />
<path d="M 1133.150, 152.717 
	L 1133.150, 151.654 
	L 1133.858, 151.654 
	L 1133.858, 152.717 
	L 1133.150, 152.717 
" />
<path d="M 1129.606, 144.213 
	L 1131.732, 147.402 
	L 1132.441, 147.402 
	L 1132.441, 143.150 
" />
<path d="M 1131.732, 144.213 
	L 1133.858, 144.213 
" />
<path d="M 1129.606, 136.772 
	L 1129.606, 141.024 
	L 1131.024, 141.024 
	L 1131.024, 137.835 
	L 1131.732, 136.772 
	L 1133.150, 136.772 
	L 1133.858, 137.835 
	L 1133.858, 139.961 
	L 1133.150, 141.024 
" />
<path d="M 0.001, 708.661 
	L 0.000, 708.662 
	L 0.000, 704.197 
" />
<path d="M 4.607, 708.661 
	L 4.606, 708.662 
	L 4.606, 704.197 
" />
<path d="M 9.213, 708.661 
	L 9.213, 708.662 
	L 9.213, 704.197 
" />
<path d="M 13.820, 708.661 
	L 13.819, 708.662 
	L 13.819, 704.197 
" />
<path d="M 18.426, 708.661 
	L 18.425, 708.662 
	L 18.425, 704.197 
" />
<path d="M 0.001, 704.196 
	L 0.000, 704.197 
	L 0.000, 672.449 
" />
<path d="M 4.607, 704.196 
	L 4.606, 704.197 
	L 4.606, 672.449 
" />
<path d="M 9.213, 704.196 
	L 9.213, 704.197 
	L 9.213, 672.449 
" />
<path d="M 13.820, 704.196 
	L 13.819, 704.197 
	L 13.819, 672.449 
" />
<path d="M 18.426, 704.196 
	L 18.425, 704.197 
	L 18.425, 672.449 
" />
<path d="M 25.300, 704.196 
	L 25.299, 704.197 
	L 25.299, 672.449 
" />
<path d="M 30.615, 704.196 
	L 30.614, 704.197 
	L 30.614, 672.449 
" />
<path d="M 35.930, 704.196 
	L 35.929, 704.197 
	L 35.929, 672.449 
" />
<path d="M 41.245, 704.196 
	L 41.244, 704.197 
	L 41.244, 672.449 
" />
<path d="M 46.560, 704.196 
	L 46.559, 704.197 
	L 46.559, 672.449 
" />
<path d="M 51.875, 704.196 
	L 51.874, 704.197 
	L 51.874, 672.449 
" />
<path d="M 57.190, 704.196 
	L 57.189, 704.197 
	L 57.189, 672.449 
" />
<path d="M 62.505, 704.196 
	L 62.504, 704.197 
	L 62.504, 672.449 
" />
<path d="M 67.820, 704.196 
	L 67.819, 704.197 
	L 67.819, 672.449 
" />
<path d="M 73.135, 704.196 
	L 73.134, 704.197 
	L 73.134, 672.449 
" />
<path d="M 78.450, 704.196 
	L 78.449, 704.197 
	L 78.449, 672.449 
" />
<path d="M 83.765, 704.196 
	L 83.764, 704.197 
	L 83.764, 672.449 
" />
<path d="M 89.079, 704.196 
	L 89.079, 704.197 
	L 89.079, 672.449 
" />
<path d="M 94.394, 704.196 
	L 94.394, 704.197 
	L 94.394, 672.449 
" />
<path d="M 25.300, 708.661 
	L 25.299, 708.662 
	L 25.299, 704.197 
" />
<path d="M 30.969, 708.661 
	L 30.969, 708.662 
	L 30.969, 704.197 
" />
<path d="M 36.639, 708.661 
	L 36.638, 708.662 
	L 36.638, 704.197 
" />
<path d="M 42.308, 708.661 
	L 42.307, 708.662 
	L 42.307, 704.197 
" />
<path d="M 47.977, 708.661 
	L 47.976, 708.662 
	L 47.976, 704.197 
" />
<path d="M 53.646, 708.661 
	L 53.646, 708.662 
	L 53.646, 704.197 
" />
<path d="M 59.316, 708.661 
	L 59.315, 708.662 
	L 59.315, 704.197 
" />
<path d="M 64.985, 708.661 
	L 64.984, 708.662 
	L 64.984, 704.197 
" />
<path d="M 70.654, 708.661 
	L 70.654, 708.662 
	L 70.654, 704.197 
" />
<path d="M 76.324, 708.661 
	L 76.323, 708.662 
	L 76.323, 704.197 
" />
<path d="M 81.993, 708.661 
	L 81.992, 708.662 
	L 81.992, 704.197 
" />
<path d="M 87.662, 708.661 
	L 87.661, 708.662 
	L 87.661, 704.197 
" />
<path d="M 93.331, 708.661 
	L 93.331, 708.662 
	L 93.331, 704.197 
" />
<path d="M 0.001, 672.448 
	L 0.000, 672.449 
	L 0.000, 454.748 
" />
<path d="M 5.316, 672.448 
	L 5.315, 672.449 
	L 5.315, 454.748 
" />
<path d="M 10.631, 672.448 
	L 10.630, 672.449 
	L 10.630, 454.748 
" />
<path d="M 0.001, 454.747 
	L 0.000, 454.748 
	L 0.000, 0.000 
" />
<path d="M 5.670, 454.747 
	L 5.669, 454.748 
	L 5.669, 0.000 
" />
<path d="M 11.339, 454.747 
	L 11.339, 454.748 
	L 11.339, 0.000 
" />
<path d="M 20.198, 454.747 
	L 20.197, 454.748 
	L 20.197, 0.000 
" />
<path d="M 24.733, 454.747 
	L 24.732, 454.748 
	L 24.732, 0.000 
" />
<path d="M 29.268, 454.747 
	L 29.268, 454.748 
	L 29.268, 0.000 
" />
<path d="M 33.804, 454.747 
	L 33.803, 454.748 
	L 33.803, 0.000 
" />
<path d="M 38.339, 454.747 
	L 38.339, 454.748 
	L 38.339, 0.000 
" />
<path d="M 42.875, 454.747 
	L 42.874, 454.748 
	L 42.874, 0.000 
" />
<path d="M 47.410, 454.747 
	L 47.409, 454.748 
	L 47.409, 0.000 
" />
<path d="M 51.946, 454.747 
	L 51.945, 454.748 
	L 51.945, 0.000 
" />
<path d="M 56.481, 454.747 
	L 56.480, 454.748 
	L 56.480, 0.000 
" />
<path d="M 61.016, 454.747 
	L 61.016, 454.748 
	L 61.016, 0.000 
" />
<path d="M 65.552, 454.747 
	L 65.551, 454.748 
	L 65.551, 0.000 
" />
<path d="M 70.087, 454.747 
	L 70.087, 454.748 
	L 70.087, 0.000 
" />
<path d="M 74.623, 454.747 
	L 74.622, 454.748 
	L 74.622, 0.000 
" />
<path d="M 79.158, 454.747 
	L 79.157, 454.748 
	L 79.157, 0.000 
" />
<path d="M 83.694, 454.747 
	L 83.693, 454.748 
	L 83.693, 0.000 
" />
<path d="M 88.229, 454.747 
	L 88.228, 454.748 
	L 88.228, 0.000 
" />
<path d="M 92.765, 454.747 
	L 92.764, 454.748 
	L 92.764, 0.000 
" />
<path d="M 20.198, 672.448 
	L 20.197, 672.449 
	L 20.197, 454.748 
" />
<path d="M 24.450, 672.448 
	L 24.449, 672.449 
	L 24.449, 454.748 
" />
<path d="M 28.702, 672.448 
	L 28.701, 672.449 
	L 28.701, 454.748 
" />
<path d="M 32.953, 672.448 
	L 32.953, 672.449 
	L 32.953, 454.748 
" />
<path d="M 37.205, 672.448 
	L 37.205, 672.449 
	L 37.205, 454.748 
" />
<path d="M 41.457, 672.448 
	L 41.457, 672.449 
	L 41.457, 454.748 
" />
<path d="M 45.709, 672.448 
	L 45.709, 672.449 
	L 45.709, 454.748 
" />
<path d="M 49.961, 672.448 
	L 49.961, 672.449 
	L 49.961, 454.748 
" />
<path d="M 54.213, 672.448 
	L 54.213, 672.449 
	L 54.213, 454.748 
" />
<path d="M 58.465, 672.448 
	L 58.465, 672.449 
	L 58.465, 454.748 
" />
<path d="M 62.717, 672.448 
	L 62.717, 672.449 
	L 62.717, 454.748 
" />
<path d="M 66.969, 672.448 
	L 66.969, 672.449 
	L 66.969, 454.748 
" />
<path d="M 71.221, 672.448 
	L 71.220, 672.449 
	L 71.220, 454.748 
" />
<path d="M 75.473, 672.448 
	L 75.472, 672.449 
	L 75.472, 454.748 
" />
<path d="M 79.725, 672.448 
	L 79.724, 672.449 
	L 79.724, 454.748 
" />
<path d="M 83.977, 672.448 
	L 83.976, 672.449 
	L 83.976, 454.748 
" />
<path d="M 88.229, 672.448 
	L 88.228, 672.449 
	L 88.228, 454.748 
" />
<path d="M 92.481, 672.448 
	L 92.480, 672.449 
	L 92.480, 454.748 
" />
<path d="M 100.914, 672.448 
	L 100.913, 672.449 
	L 100.913, 665.362 
" />
<path d="M 105.450, 672.448 
	L 105.449, 672.449 
	L 105.449, 665.362 
" />
<path d="M 109.985, 672.448 
	L 109.984, 672.449 
	L 109.984, 665.362 
" />
<path d="M 114.520, 672.448 
	L 114.520, 672.449 
	L 114.520, 665.362 
" />
<path d="M 119.056, 672.448 
	L 119.055, 672.449 
	L 119.055, 665.362 
" />
<path d="M 123.591, 672.448 
	L 123.591, 672.449 
	L 123.591, 665.362 
" />
<path d="M 128.127, 672.448 
	L 128.126, 672.449 
	L 128.126, 665.362 
" />
<path d="M 132.662, 672.448 
	L 132.661, 672.449 
	L 132.661, 665.362 
" />
<path d="M 137.198, 672.448 
	L 137.197, 672.449 
	L 137.197, 665.362 
" />
<path d="M 141.733, 672.448 
	L 141.732, 672.449 
	L 141.732, 665.362 
" />
<path d="M 146.268, 672.448 
	L 146.268, 672.449 
	L 146.268, 665.362 
" />
<path d="M 150.804, 672.448 
	L 150.803, 672.449 
	L 150.803, 665.362 
" />
<path d="M 155.339, 672.448 
	L 155.339, 672.449 
	L 155.339, 665.362 
" />
<path d="M 159.875, 672.448 
	L 159.874, 672.449 
	L 159.874, 665.362 
" />
<path d="M 164.410, 672.448 
	L 164.409, 672.449 
	L 164.409, 665.362 
" />
<path d="M 168.946, 672.448 
	L 168.945, 672.449 
	L 168.945, 665.362 
" />
<path d="M 173.481, 672.448 
	L 173.480, 672.449 
	L 173.480, 665.362 
" />
<path d="M 100.914, 665.362 
	L 100.913, 665.362 
	L 100.913, 0.000 
" />
<path d="M 105.520, 665.362 
	L 105.520, 665.362 
	L 105.520, 0.000 
" />
<path d="M 110.127, 665.362 
	L 110.126, 665.362 
	L 110.126, 0.000 
" />
<path d="M 114.733, 665.362 
	L 114.732, 665.362 
	L 114.732, 0.000 
" />
<path d="M 119.339, 665.362 
	L 119.339, 665.362 
	L 119.339, 0.000 
" />
<path d="M 123.946, 665.362 
	L 123.945, 665.362 
	L 123.945, 0.000 
" />
<path d="M 128.552, 665.362 
	L 128.551, 665.362 
	L 128.551, 0.000 
" />
<path d="M 133.158, 665.362 
	L 133.158, 665.362 
	L 133.158, 0.000 
" />
<path d="M 137.765, 665.362 
	L 137.764, 665.362 
	L 137.764, 0.000 
" />
<path d="M 142.371, 665.362 
	L 142.370, 665.362 
	L 142.370, 0.000 
" />
<path d="M 146.977, 665.362 
	L 146.976, 665.362 
	L 146.976, 0.000 
" />
<path d="M 151.583, 665.362 
	L 151.583, 665.362 
	L 151.583, 0.000 
" />
<path d="M 156.190, 665.362 
	L 156.189, 665.362 
	L 156.189, 0.000 
" />
<path d="M 160.796, 665.362 
	L 160.795, 665.362 
	L 160.795, 0.000 
" />
<path d="M 165.402, 665.362 
	L 165.402, 665.362 
	L 165.402, 0.000 
" />
<path d="M 170.009, 665.362 
	L 170.008, 665.362 
	L 170.008, 0.000 
" />
<path d="M 174.615, 665.362 
	L 174.614, 665.362 
	L 174.614, 0.000 
" />
<path d="M 181.276, 665.362 
	L 181.276, 665.362 
	L 181.276, 0.000 
" />
<path d="M 185.883, 665.362 
	L 185.882, 665.362 
	L 185.882, 0.000 
" />
<path d="M 190.489, 665.362 
	L 190.488, 665.362 
	L 190.488, 0.000 
" />
<path d="M 195.095, 665.362 
	L 195.095, 665.362 
	L 195.095, 0.000 
" />
<path d="M 199.702, 665.362 
	L 199.701, 665.362 
	L 199.701, 0.000 
" />
<path d="M 204.308, 665.362 
	L 204.307, 665.362 
	L 204.307, 0.000 
" />
<path d="M 208.914, 665.362 
	L 208.913, 665.362 
	L 208.913, 0.000 
" />
<path d="M 213.520, 665.362 
	L 213.520, 665.362 
	L 213.520, 0.000 
" />
<path d="M 218.127, 665.362 
	L 218.126, 665.362 
	L 218.126, 0.000 
" />
<path d="M 222.733, 665.362 
	L 222.732, 665.362 
	L 222.732, 0.000 
" />
<path d="M 227.339, 665.362 
	L 227.339, 665.362 
	L 227.339, 0.000 
" />
<path d="M 231.946, 665.362 
	L 231.945, 665.362 
	L 231.945, 0.000 
" />
<path d="M 236.552, 665.362 
	L 236.551, 665.362 
	L 236.551, 0.000 
" />
<path d="M 241.158, 665.362 
	L 241.158, 665.362 
	L 241.158, 0.000 
" />
<path d="M 245.765, 665.362 
	L 245.764, 665.362 
	L 245.764, 0.000 
" />
<path d="M 250.371, 665.362 
	L 250.370, 665.362 
	L 250.370, 0.000 
" />
<path d="M 254.977, 665.362 
	L 254.976, 665.362 
	L 254.976, 0.000 
" />
<path d="M 259.583, 665.362 
	L 259.583, 665.362 
	L 259.583, 0.000 
" />
<path d="M 264.190, 665.362 
	L 264.189, 665.362 
	L 264.189, 0.000 
" />
<path d="M 268.796, 665.362 
	L 268.795, 665.362 
	L 268.795, 0.000 
" />
<path d="M 273.402, 665.362 
	L 273.402, 665.362 
	L 273.402, 0.000 
" />
<path d="M 278.009, 665.362 
	L 278.008, 665.362 
	L 278.008, 0.000 
" />
<path d="M 282.615, 665.362 
	L 282.614, 665.362 
	L 282.614, 0.000 
" />
<path d="M 287.221, 665.362 
	L 287.221, 665.362 
	L 287.221, 0.000 
" />
<path d="M 291.828, 665.362 
	L 291.827, 665.362 
	L 291.827, 0.000 
" />
<path d="M 296.434, 665.362 
	L 296.433, 665.362 
	L 296.433, 0.000 
" />
<path d="M 301.040, 665.362 
	L 301.039, 665.362 
	L 301.039, 0.000 
" />
<path d="M 305.646, 665.362 
	L 305.646, 665.362 
	L 305.646, 0.000 
" />
<path d="M 310.253, 665.362 
	L 310.252, 665.362 
	L 310.252, 0.000 
" />
<path d="M 314.859, 665.362 
	L 314.858, 665.362 
	L 314.858, 0.000 
" />
<path d="M 319.465, 665.362 
	L 319.465, 665.362 
	L 319.465, 0.000 
" />
<path d="M 324.072, 665.362 
	L 324.071, 665.362 
	L 324.071, 0.000 
" />
<path d="M 328.678, 665.362 
	L 328.677, 665.362 
	L 328.677, 0.000 
" />
<path d="M 333.284, 665.362 
	L 333.284, 665.362 
	L 333.284, 0.000 
" />
<path d="M 337.891, 665.362 
	L 337.890, 665.362 
	L 337.890, 0.000 
" />
<path d="M 342.497, 665.362 
	L 342.496, 665.362 
	L 342.496, 0.000 
" />
<path d="M 347.103, 665.362 
	L 347.102, 665.362 
	L 347.102, 0.000 
" />
<path d="M 351.709, 665.362 
	L 351.709, 665.362 
	L 351.709, 0.000 
" />
<path d="M 356.316, 665.362 
	L 356.315, 665.362 
	L 356.315, 0.000 
" />
<path d="M 360.922, 665.362 
	L 360.921, 665.362 
	L 360.921, 0.000 
" />
<path d="M 365.528, 665.362 
	L 365.528, 665.362 
	L 365.528, 0.000 
" />
<path d="M 370.135, 665.362 
	L 370.134, 665.362 
	L 370.134, 0.000 
" />
<path d="M 374.741, 665.362 
	L 374.740, 665.362 
	L 374.740, 0.000 
" />
<path d="M 379.347, 665.362 
	L 379.347, 665.362 
	L 379.347, 0.000 
" />
<path d="M 383.954, 665.362 
	L 383.953, 665.362 
	L 383.953, 0.000 
" />
<path d="M 388.560, 665.362 
	L 388.559, 665.362 
	L 388.559, 0.000 
" />
<path d="M 393.166, 665.362 
	L 393.165, 665.362 
	L 393.165, 0.000 
" />
<path d="M 397.772, 665.362 
	L 397.772, 665.362 
	L 397.772, 0.000 
" />
<path d="M 402.379, 665.362 
	L 402.378, 665.362 
	L 402.378, 0.000 
" />
<path d="M 406.985, 665.362 
	L 406.984, 665.362 
	L 406.984, 0.000 
" />
<path d="M 411.591, 665.362 
	L 411.591, 665.362 
	L 411.591, 0.000 
" />
<path d="M 416.198, 665.362 
	L 416.197, 665.362 
	L 416.197, 0.000 
" />
<path d="M 420.804, 665.362 
	L 420.803, 665.362 
	L 420.803, 0.000 
" />
<path d="M 425.410, 665.362 
	L 425.410, 665.362 
	L 425.410, 0.000 
" />
<path d="M 430.017, 665.362 
	L 430.016, 665.362 
	L 430.016, 0.000 
" />
<path d="M 434.623, 665.362 
	L 434.622, 665.362 
	L 434.622, 0.000 
" />
<path d="M 439.229, 665.362 
	L 439.228, 665.362 
	L 439.228, 0.000 
" />
<path d="M 443.835, 665.362 
	L 443.835, 665.362 
	L 443.835, 0.000 
" />
<path d="M 448.442, 665.362 
	L 448.441, 665.362 
	L 448.441, 0.000 
" />
<path d="M 453.048, 665.362 
	L 453.047, 665.362 
	L 453.047, 0.000 
" />
<path d="M 457.654, 665.362 
	L 457.654, 665.362 
	L 457.654, 0.000 
" />
<path d="M 462.261, 665.362 
	L 462.260, 665.362 
	L 462.260, 0.000 
" />
<path d="M 466.867, 665.362 
	L 466.866, 665.362 
	L 466.866, 0.000 
" />
<path d="M 471.473, 665.362 
	L 471.473, 665.362 
	L 471.473, 0.000 
" />
<path d="M 476.080, 665.362 
	L 476.079, 665.362 
	L 476.079, 0.000 
" />
<path d="M 480.686, 665.362 
	L 480.685, 665.362 
	L 480.685, 0.000 
" />
<path d="M 485.292, 665.362 
	L 485.291, 665.362 
	L 485.291, 0.000 
" />
<path d="M 489.898, 665.362 
	L 489.898, 665.362 
	L 489.898, 0.000 
" />
<path d="M 494.505, 665.362 
	L 494.504, 665.362 
	L 494.504, 0.000 
" />
<path d="M 499.111, 665.362 
	L 499.110, 665.362 
	L 499.110, 0.000 
" />
<path d="M 503.717, 665.362 
	L 503.717, 665.362 
	L 503.717, 0.000 
" />
<path d="M 508.324, 665.362 
	L 508.323, 665.362 
	L 508.323, 0.000 
" />
<path d="M 512.930, 665.362 
	L 512.929, 665.362 
	L 512.929, 0.000 
" />
<path d="M 517.536, 665.362 
	L 517.536, 665.362 
	L 517.536, 0.000 
" />
<path d="M 522.143, 665.362 
	L 522.142, 665.362 
	L 522.142, 0.000 
" />
<path d="M 526.749, 665.362 
	L 526.748, 665.362 
	L 526.748, 0.000 
" />
<path d="M 531.355, 665.362 
	L 531.354, 665.362 
	L 531.354, 0.000 
" />
<path d="M 535.961, 665.362 
	L 535.961, 665.362 
	L 535.961, 0.000 
" />
<path d="M 540.568, 665.362 
	L 540.567, 665.362 
	L 540.567, 0.000 
" />
<path d="M 545.174, 665.362 
	L 545.173, 665.362 
	L 545.173, 0.000 
" />
<path d="M 549.780, 665.362 
	L 549.780, 665.362 
	L 549.780, 0.000 
" />
<path d="M 554.387, 665.362 
	L 554.386, 665.362 
	L 554.386, 0.000 
" />
<path d="M 558.993, 665.362 
	L 558.992, 665.362 
	L 558.992, 0.000 
" />
<path d="M 563.599, 665.362 
	L 563.599, 665.362 
	L 563.599, 0.000 
" />
<path d="M 568.206, 665.362 
	L 568.205, 665.362 
	L 568.205, 0.000 
" />
<path d="M 572.812, 665.362 
	L 572.811, 665.362 
	L 572.811, 0.000 
" />
<path d="M 577.418, 665.362 
	L 577.417, 665.362 
	L 577.417, 0.000 
" />
<path d="M 582.024, 665.362 
	L 582.024, 665.362 
	L 582.024, 0.000 
" />
<path d="M 586.631, 665.362 
	L 586.630, 665.362 
	L 586.630, 0.000 
" />
<path d="M 591.237, 665.362 
	L 591.236, 665.362 
	L 591.236, 0.000 
" />
<path d="M 595.843, 665.362 
	L 595.843, 665.362 
	L 595.843, 0.000 
" />
<path d="M 600.450, 665.362 
	L 600.449, 665.362 
	L 600.449, 0.000 
" />
<path d="M 605.056, 665.362 
	L 605.055, 665.362 
	L 605.055, 0.000 
" />
<path d="M 609.662, 665.362 
	L 609.662, 665.362 
	L 609.662, 0.000 
" />
<path d="M 614.269, 665.362 
	L 614.268, 665.362 
	L 614.268, 0.000 
" />
<path d="M 618.875, 665.362 
	L 618.874, 665.362 
	L 618.874, 0.000 
" />
<path d="M 623.481, 665.362 
	L 623.480, 665.362 
	L 623.480, 0.000 
" />
<path d="M 628.087, 665.362 
	L 628.087, 665.362 
	L 628.087, 0.000 
" />
<path d="M 632.694, 665.362 
	L 632.693, 665.362 
	L 632.693, 0.000 
" />
<path d="M 637.300, 665.362 
	L 637.299, 665.362 
	L 637.299, 0.000 
" />
<path d="M 641.906, 665.362 
	L 641.906, 665.362 
	L 641.906, 0.000 
" />
<path d="M 646.513, 665.362 
	L 646.512, 665.362 
	L 646.512, 0.000 
" />
<path d="M 651.119, 665.362 
	L 651.118, 665.362 
	L 651.118, 0.000 
" />
<path d="M 655.725, 665.362 
	L 655.725, 665.362 
	L 655.725, 0.000 
" />
<path d="M 660.332, 665.362 
	L 660.331, 665.362 
	L 660.331, 0.000 
" />
<path d="M 664.938, 665.362 
	L 664.937, 665.362 
	L 664.937, 0.000 
" />
<path d="M 669.544, 665.362 
	L 669.543, 665.362 
	L 669.543, 0.000 
" />
<path d="M 674.150, 665.362 
	L 674.150, 665.362 
	L 674.150, 0.000 
" />
<path d="M 678.757, 665.362 
	L 678.756, 665.362 
	L 678.756, 0.000 
" />
<path d="M 683.363, 665.362 
	L 683.362, 665.362 
	L 683.362, 0.000 
" />
<path d="M 687.969, 665.362 
	L 687.969, 665.362 
	L 687.969, 0.000 
" />
<path d="M 692.576, 665.362 
	L 692.575, 665.362 
	L 692.575, 0.000 
" />
<path d="M 697.182, 665.362 
	L 697.181, 665.362 
	L 697.181, 0.000 
" />
<path d="M 701.788, 665.362 
	L 701.788, 665.362 
	L 701.788, 0.000 
" />
<path d="M 181.276, 672.448 
	L 181.276, 672.449 
	L 181.276, 665.362 
" />
<path d="M 186.946, 672.448 
	L 186.945, 672.449 
	L 186.945, 665.362 
" />
<path d="M 192.615, 672.448 
	L 192.614, 672.449 
	L 192.614, 665.362 
" />
<path d="M 198.284, 672.448 
	L 198.283, 672.449 
	L 198.283, 665.362 
" />
<path d="M 203.953, 672.448 
	L 203.953, 672.449 
	L 203.953, 665.362 
" />
<path d="M 209.623, 672.448 
	L 209.622, 672.449 
	L 209.622, 665.362 
" />
<path d="M 215.292, 672.448 
	L 215.291, 672.449 
	L 215.291, 665.362 
" />
<path d="M 220.961, 672.448 
	L 220.961, 672.449 
	L 220.961, 665.362 
" />
<path d="M 226.631, 672.448 
	L 226.630, 672.449 
	L 226.630, 665.362 
" />
<path d="M 232.300, 672.448 
	L 232.299, 672.449 
	L 232.299, 665.362 
" />
<path d="M 237.969, 672.448 
	L 237.969, 672.449 
	L 237.969, 665.362 
" />
<path d="M 243.639, 672.448 
	L 243.638, 672.449 
	L 243.638, 665.362 
" />
<path d="M 249.308, 672.448 
	L 249.307, 672.449 
	L 249.307, 665.362 
" />
<path d="M 254.977, 672.448 
	L 254.976, 672.449 
	L 254.976, 665.362 
" />
<path d="M 260.646, 672.448 
	L 260.646, 672.449 
	L 260.646, 665.362 
" />
<path d="M 266.316, 672.448 
	L 266.315, 672.449 
	L 266.315, 665.362 
" />
<path d="M 271.985, 672.448 
	L 271.984, 672.449 
	L 271.984, 665.362 
" />
<path d="M 277.654, 672.448 
	L 277.654, 672.449 
	L 277.654, 665.362 
" />
<path d="M 283.324, 672.448 
	L 283.323, 672.449 
	L 283.323, 665.362 
" />
<path d="M 288.993, 672.448 
	L 288.992, 672.449 
	L 288.992, 665.362 
" />
<path d="M 294.662, 672.448 
	L 294.661, 672.449 
	L 294.661, 665.362 
" />
<path d="M 300.331, 672.448 
	L 300.331, 672.449 
	L 300.331, 665.362 
" />
<path d="M 306.001, 672.448 
	L 306.000, 672.449 
	L 306.000, 665.362 
" />
<path d="M 311.670, 672.448 
	L 311.669, 672.449 
	L 311.669, 665.362 
" />
<path d="M 317.339, 672.448 
	L 317.339, 672.449 
	L 317.339, 665.362 
" />
<path d="M 323.009, 672.448 
	L 323.008, 672.449 
	L 323.008, 665.362 
" />
<path d="M 328.678, 672.448 
	L 328.677, 672.449 
	L 328.677, 665.362 
" />
<path d="M 334.347, 672.448 
	L 334.347, 672.449 
	L 334.347, 665.362 
" />
<path d="M 340.016, 672.448 
	L 340.016, 672.449 
	L 340.016, 665.362 
" />
<path d="M 345.686, 672.448 
	L 345.685, 672.449 
	L 345.685, 665.362 
" />
<path d="M 351.355, 672.448 
	L 351.354, 672.449 
	L 351.354, 665.362 
" />
<path d="M 357.024, 672.448 
	L 357.024, 672.449 
	L 357.024, 665.362 
" />
<path d="M 362.694, 672.448 
	L 362.693, 672.449 
	L 362.693, 665.362 
" />
<path d="M 368.363, 672.448 
	L 368.362, 672.449 
	L 368.362, 665.362 
" />
<path d="M 374.032, 672.448 
	L 374.032, 672.449 
	L 374.032, 665.362 
" />
<path d="M 379.702, 672.448 
	L 379.701, 672.449 
	L 379.701, 665.362 
" />
<path d="M 385.371, 672.448 
	L 385.370, 672.449 
	L 385.370, 665.362 
" />
<path d="M 391.040, 672.448 
	L 391.039, 672.449 
	L 391.039, 665.362 
" />
<path d="M 396.709, 672.448 
	L 396.709, 672.449 
	L 396.709, 665.362 
" />
<path d="M 402.379, 672.448 
	L 402.378, 672.449 
	L 402.378, 665.362 
" />
<path d="M 408.048, 672.448 
	L 408.047, 672.449 
	L 408.047, 665.362 
" />
<path d="M 413.717, 672.448 
	L 413.717, 672.449 
	L 413.717, 665.362 
" />
<path d="M 419.387, 672.448 
	L 419.386, 672.449 
	L 419.386, 665.362 
" />
<path d="M 425.056, 672.448 
	L 425.055, 672.449 
	L 425.055, 665.362 
" />
<path d="M 430.725, 672.448 
	L 430.724, 672.449 
	L 430.724, 665.362 
" />
<path d="M 436.394, 672.448 
	L 436.394, 672.449 
	L 436.394, 665.362 
" />
<path d="M 442.064, 672.448 
	L 442.063, 672.449 
	L 442.063, 665.362 
" />
<path d="M 447.733, 672.448 
	L 447.732, 672.449 
	L 447.732, 665.362 
" />
<path d="M 453.402, 672.448 
	L 453.402, 672.449 
	L 453.402, 665.362 
" />
<path d="M 459.072, 672.448 
	L 459.071, 672.449 
	L 459.071, 665.362 
" />
<path d="M 464.741, 672.448 
	L 464.740, 672.449 
	L 464.740, 665.362 
" />
<path d="M 470.410, 672.448 
	L 470.410, 672.449 
	L 470.410, 665.362 
" />
<path d="M 476.080, 672.448 
	L 476.079, 672.449 
	L 476.079, 665.362 
" />
<path d="M 481.749, 672.448 
	L 481.748, 672.449 
	L 481.748, 665.362 
" />
<path d="M 487.418, 672.448 
	L 487.417, 672.449 
	L 487.417, 665.362 
" />
<path d="M 493.087, 672.448 
	L 493.087, 672.449 
	L 493.087, 665.362 
" />
<path d="M 498.757, 672.448 
	L 498.756, 672.449 
	L 498.756, 665.362 
" />
<path d="M 504.426, 672.448 
	L 504.425, 672.449 
	L 504.425, 665.362 
" />
<path d="M 510.095, 672.448 
	L 510.095, 672.449 
	L 510.095, 665.362 
" />
<path d="M 515.765, 672.448 
	L 515.764, 672.449 
	L 515.764, 665.362 
" />
<path d="M 521.434, 672.448 
	L 521.433, 672.449 
	L 521.433, 665.362 
" />
<path d="M 527.103, 672.448 
	L 527.102, 672.449 
	L 527.102, 665.362 
" />
<path d="M 532.772, 672.448 
	L 532.772, 672.449 
	L 532.772, 665.362 
" />
<path d="M 538.442, 672.448 
	L 538.441, 672.449 
	L 538.441, 665.362 
" />
<path d="M 544.111, 672.448 
	L 544.110, 672.449 
	L 544.110, 665.362 
" />
<path d="M 549.780, 672.448 
	L 549.780, 672.449 
	L 549.780, 665.362 
" />
<path d="M 555.450, 672.448 
	L 555.449, 672.449 
	L 555.449, 665.362 
" />
<path d="M 561.119, 672.448 
	L 561.118, 672.449 
	L 561.118, 665.362 
" />
<path d="M 566.788, 672.448 
	L 566.787, 672.449 
	L 566.787, 665.362 
" />
<path d="M 572.457, 672.448 
	L 572.457, 672.449 
	L 572.457, 665.362 
" />
<path d="M 578.127, 672.448 
	L 578.126, 672.449 
	L 578.126, 665.362 
" />
<path d="M 583.796, 672.448 
	L 583.795, 672.449 
	L 583.795, 665.362 
" />
<path d="M 589.465, 672.448 
	L 589.465, 672.449 
	L 589.465, 665.362 
" />
<path d="M 595.135, 672.448 
	L 595.134, 672.449 
	L 595.134, 665.362 
" />
<path d="M 600.804, 672.448 
	L 600.803, 672.449 
	L 600.803, 665.362 
" />
<path d="M 606.473, 672.448 
	L 606.473, 672.449 
	L 606.473, 665.362 
" />
<path d="M 612.143, 672.448 
	L 612.142, 672.449 
	L 612.142, 665.362 
" />
<path d="M 617.812, 672.448 
	L 617.811, 672.449 
	L 617.811, 665.362 
" />
<path d="M 623.481, 672.448 
	L 623.480, 672.449 
	L 623.480, 665.362 
" />
<path d="M 629.150, 672.448 
	L 629.150, 672.449 
	L 629.150, 665.362 
" />
<path d="M 634.820, 672.448 
	L 634.819, 672.449 
	L 634.819, 665.362 
" />
<path d="M 640.489, 672.448 
	L 640.488, 672.449 
	L 640.488, 665.362 
" />
<path d="M 646.158, 672.448 
	L 646.158, 672.449 
	L 646.158, 665.362 
" />
<path d="M 651.828, 672.448 
	L 651.827, 672.449 
	L 651.827, 665.362 
" />
<path d="M 657.497, 672.448 
	L 657.496, 672.449 
	L 657.496, 665.362 
" />
<path d="M 663.166, 672.448 
	L 663.165, 672.449 
	L 663.165, 665.362 
" />
<path d="M 668.835, 672.448 
	L 668.835, 672.449 
	L 668.835, 665.362 
" />
<path d="M 674.505, 672.448 
	L 674.504, 672.449 
	L 674.504, 665.362 
" />
<path d="M 680.174, 672.448 
	L 680.173, 672.449 
	L 680.173, 665.362 
" />
<path d="M 685.843, 672.448 
	L 685.843, 672.449 
	L 685.843, 665.362 
" />
<path d="M 691.513, 672.448 
	L 691.512, 672.449 
	L 691.512, 665.362 
" />
<path d="M 697.182, 672.448 
	L 697.181, 672.449 
	L 697.181, 665.362 
" />
<path d="M 702.851, 672.448 
	L 702.851, 672.449 
	L 702.851, 665.362 
" />
<path d="M 100.914, 708.661 
	L 100.913, 708.662 
	L 100.913, 697.819 
" />
<path d="M 100.914, 697.818 
	L 100.913, 697.819 
	L 100.913, 672.449 
" />
<path d="M 109.560, 697.818 
	L 109.559, 697.819 
	L 109.559, 672.449 
" />
<path d="M 114.166, 697.818 
	L 114.165, 697.819 
	L 114.165, 672.449 
" />
<path d="M 118.772, 697.818 
	L 118.772, 697.819 
	L 118.772, 672.449 
" />
<path d="M 123.379, 697.818 
	L 123.378, 697.819 
	L 123.378, 672.449 
" />
<path d="M 127.985, 697.818 
	L 127.984, 697.819 
	L 127.984, 672.449 
" />
<path d="M 132.591, 697.818 
	L 132.591, 697.819 
	L 132.591, 672.449 
" />
<path d="M 137.198, 697.818 
	L 137.197, 697.819 
	L 137.197, 672.449 
" />
<path d="M 141.804, 697.818 
	L 141.803, 697.819 
	L 141.803, 672.449 
" />
<path d="M 146.410, 697.818 
	L 146.409, 697.819 
	L 146.409, 672.449 
" />
<path d="M 151.016, 697.818 
	L 151.016, 697.819 
	L 151.016, 672.449 
" />
<path d="M 155.623, 697.818 
	L 155.622, 697.819 
	L 155.622, 672.449 
" />
<path d="M 160.229, 697.818 
	L 160.228, 697.819 
	L 160.228, 672.449 
" />
<path d="M 164.835, 697.818 
	L 164.835, 697.819 
	L 164.835, 672.449 
" />
<path d="M 169.442, 697.818 
	L 169.441, 697.819 
	L 169.441, 672.449 
" />
<path d="M 174.048, 697.818 
	L 174.047, 697.819 
	L 174.047, 672.449 
" />
<path d="M 178.654, 697.818 
	L 178.654, 697.819 
	L 178.654, 672.449 
" />
<path d="M 183.261, 697.818 
	L 183.260, 697.819 
	L 183.260, 672.449 
" />
<path d="M 187.867, 697.818 
	L 187.866, 697.819 
	L 187.866, 672.449 
" />
<path d="M 192.473, 697.818 
	L 192.472, 697.819 
	L 192.472, 672.449 
" />
<path d="M 197.079, 697.818 
	L 197.079, 697.819 
	L 197.079, 672.449 
" />
<path d="M 201.686, 697.818 
	L 201.685, 697.819 
	L 201.685, 672.449 
" />
<path d="M 206.292, 697.818 
	L 206.291, 697.819 
	L 206.291, 672.449 
" />
<path d="M 210.898, 697.818 
	L 210.898, 697.819 
	L 210.898, 672.449 
" />
<path d="M 215.505, 697.818 
	L 215.504, 697.819 
	L 215.504, 672.449 
" />
<path d="M 220.111, 697.818 
	L 220.110, 697.819 
	L 220.110, 672.449 
" />
<path d="M 224.717, 697.818 
	L 224.717, 697.819 
	L 224.717, 672.449 
" />
<path d="M 229.324, 697.818 
	L 229.323, 697.819 
	L 229.323, 672.449 
" />
<path d="M 233.930, 697.818 
	L 233.929, 697.819 
	L 233.929, 672.449 
" />
<path d="M 238.536, 697.818 
	L 238.535, 697.819 
	L 238.535, 672.449 
" />
<path d="M 243.142, 697.818 
	L 243.142, 697.819 
	L 243.142, 672.449 
" />
<path d="M 247.749, 697.818 
	L 247.748, 697.819 
	L 247.748, 672.449 
" />
<path d="M 252.355, 697.818 
	L 252.354, 697.819 
	L 252.354, 672.449 
" />
<path d="M 256.961, 697.818 
	L 256.961, 697.819 
	L 256.961, 672.449 
" />
<path d="M 261.568, 697.818 
	L 261.567, 697.819 
	L 261.567, 672.449 
" />
<path d="M 266.174, 697.818 
	L 266.173, 697.819 
	L 266.173, 672.449 
" />
<path d="M 270.780, 697.818 
	L 270.780, 697.819 
	L 270.780, 672.449 
" />
<path d="M 275.387, 697.818 
	L 275.386, 697.819 
	L 275.386, 672.449 
" />
<path d="M 279.993, 697.818 
	L 279.992, 697.819 
	L 279.992, 672.449 
" />
<path d="M 284.599, 697.818 
	L 284.598, 697.819 
	L 284.598, 672.449 
" />
<path d="M 289.205, 697.818 
	L 289.205, 697.819 
	L 289.205, 672.449 
" />
<path d="M 293.812, 697.818 
	L 293.811, 697.819 
	L 293.811, 672.449 
" />
<path d="M 298.418, 697.818 
	L 298.417, 697.819 
	L 298.417, 672.449 
" />
<path d="M 303.024, 697.818 
	L 303.024, 697.819 
	L 303.024, 672.449 
" />
<path d="M 307.631, 697.818 
	L 307.630, 697.819 
	L 307.630, 672.449 
" />
<path d="M 312.237, 697.818 
	L 312.236, 697.819 
	L 312.236, 672.449 
" />
<path d="M 316.843, 697.818 
	L 316.843, 697.819 
	L 316.843, 672.449 
" />
<path d="M 321.450, 697.818 
	L 321.449, 697.819 
	L 321.449, 672.449 
" />
<path d="M 326.056, 697.818 
	L 326.055, 697.819 
	L 326.055, 672.449 
" />
<path d="M 330.662, 697.818 
	L 330.661, 697.819 
	L 330.661, 672.449 
" />
<path d="M 335.268, 697.818 
	L 335.268, 697.819 
	L 335.268, 672.449 
" />
<path d="M 339.875, 697.818 
	L 339.874, 697.819 
	L 339.874, 672.449 
" />
<path d="M 344.481, 697.818 
	L 344.480, 697.819 
	L 344.480, 672.449 
" />
<path d="M 349.087, 697.818 
	L 349.087, 697.819 
	L 349.087, 672.449 
" />
<path d="M 353.694, 697.818 
	L 353.693, 697.819 
	L 353.693, 672.449 
" />
<path d="M 358.300, 697.818 
	L 358.299, 697.819 
	L 358.299, 672.449 
" />
<path d="M 362.906, 697.818 
	L 362.906, 697.819 
	L 362.906, 672.449 
" />
<path d="M 367.513, 697.818 
	L 367.512, 697.819 
	L 367.512, 672.449 
" />
<path d="M 372.119, 697.818 
	L 372.118, 697.819 
	L 372.118, 672.449 
" />
<path d="M 376.725, 697.818 
	L 376.724, 697.819 
	L 376.724, 672.449 
" />
<path d="M 381.331, 697.818 
	L 381.331, 697.819 
	L 381.331, 672.449 
" />
<path d="M 385.938, 697.818 
	L 385.937, 697.819 
	L 385.937, 672.449 
" />
<path d="M 390.544, 697.818 
	L 390.543, 697.819 
	L 390.543, 672.449 
" />
<path d="M 395.150, 697.818 
	L 395.150, 697.819 
	L 395.150, 672.449 
" />
<path d="M 399.757, 697.818 
	L 399.756, 697.819 
	L 399.756, 672.449 
" />
<path d="M 404.363, 697.818 
	L 404.362, 697.819 
	L 404.362, 672.449 
" />
<path d="M 408.969, 697.818 
	L 408.969, 697.819 
	L 408.969, 672.449 
" />
<path d="M 413.576, 697.818 
	L 413.575, 697.819 
	L 413.575, 672.449 
" />
<path d="M 418.182, 697.818 
	L 418.181, 697.819 
	L 418.181, 672.449 
" />
<path d="M 422.788, 697.818 
	L 422.787, 697.819 
	L 422.787, 672.449 
" />
<path d="M 427.394, 697.818 
	L 427.394, 697.819 
	L 427.394, 672.449 
" />
<path d="M 432.001, 697.818 
	L 432.000, 697.819 
	L 432.000, 672.449 
" />
<path d="M 436.607, 697.818 
	L 436.606, 697.819 
	L 436.606, 672.449 
" />
<path d="M 441.213, 697.818 
	L 441.213, 697.819 
	L 441.213, 672.449 
" />
<path d="M 445.820, 697.818 
	L 445.819, 697.819 
	L 445.819, 672.449 
" />
<path d="M 450.426, 697.818 
	L 450.425, 697.819 
	L 450.425, 672.449 
" />
<path d="M 455.032, 697.818 
	L 455.032, 697.819 
	L 455.032, 672.449 
" />
<path d="M 459.639, 697.818 
	L 459.638, 697.819 
	L 459.638, 672.449 
" />
<path d="M 464.245, 697.818 
	L 464.244, 697.819 
	L 464.244, 672.449 
" />
<path d="M 468.851, 697.818 
	L 468.850, 697.819 
	L 468.850, 672.449 
" />
<path d="M 473.457, 697.818 
	L 473.457, 697.819 
	L 473.457, 672.449 
" />
<path d="M 478.064, 697.818 
	L 478.063, 697.819 
	L 478.063, 672.449 
" />
<path d="M 482.670, 697.818 
	L 482.669, 697.819 
	L 482.669, 672.449 
" />
<path d="M 487.276, 697.818 
	L 487.276, 697.819 
	L 487.276, 672.449 
" />
<path d="M 491.883, 697.818 
	L 491.882, 697.819 
	L 491.882, 672.449 
" />
<path d="M 496.489, 697.818 
	L 496.488, 697.819 
	L 496.488, 672.449 
" />
<path d="M 501.095, 697.818 
	L 501.095, 697.819 
	L 501.095, 672.449 
" />
<path d="M 505.702, 697.818 
	L 505.701, 697.819 
	L 505.701, 672.449 
" />
<path d="M 510.308, 697.818 
	L 510.307, 697.819 
	L 510.307, 672.449 
" />
<path d="M 514.914, 697.818 
	L 514.913, 697.819 
	L 514.913, 672.449 
" />
<path d="M 519.520, 697.818 
	L 519.520, 697.819 
	L 519.520, 672.449 
" />
<path d="M 524.127, 697.818 
	L 524.126, 697.819 
	L 524.126, 672.449 
" />
<path d="M 528.733, 697.818 
	L 528.732, 697.819 
	L 528.732, 672.449 
" />
<path d="M 533.339, 697.818 
	L 533.339, 697.819 
	L 533.339, 672.449 
" />
<path d="M 537.946, 697.818 
	L 537.945, 697.819 
	L 537.945, 672.449 
" />
<path d="M 542.552, 697.818 
	L 542.551, 697.819 
	L 542.551, 672.449 
" />
<path d="M 547.158, 697.818 
	L 547.158, 697.819 
	L 547.158, 672.449 
" />
<path d="M 551.765, 697.818 
	L 551.764, 697.819 
	L 551.764, 672.449 
" />
<path d="M 556.371, 697.818 
	L 556.370, 697.819 
	L 556.370, 672.449 
" />
<path d="M 560.977, 697.818 
	L 560.976, 697.819 
	L 560.976, 672.449 
" />
<path d="M 565.583, 697.818 
	L 565.583, 697.819 
	L 565.583, 672.449 
" />
<path d="M 570.190, 697.818 
	L 570.189, 697.819 
	L 570.189, 672.449 
" />
<path d="M 574.796, 697.818 
	L 574.795, 697.819 
	L 574.795, 672.449 
" />
<path d="M 579.402, 697.818 
	L 579.402, 697.819 
	L 579.402, 672.449 
" />
<path d="M 584.009, 697.818 
	L 584.008, 697.819 
	L 584.008, 672.449 
" />
<path d="M 588.615, 697.818 
	L 588.614, 697.819 
	L 588.614, 672.449 
" />
<path d="M 593.221, 697.818 
	L 593.221, 697.819 
	L 593.221, 672.449 
" />
<path d="M 597.828, 697.818 
	L 597.827, 697.819 
	L 597.827, 672.449 
" />
<path d="M 602.434, 697.818 
	L 602.433, 697.819 
	L 602.433, 672.449 
" />
<path d="M 607.040, 697.818 
	L 607.039, 697.819 
	L 607.039, 672.449 
" />
<path d="M 611.646, 697.818 
	L 611.646, 697.819 
	L 611.646, 672.449 
" />
<path d="M 616.253, 697.818 
	L 616.252, 697.819 
	L 616.252, 672.449 
" />
<path d="M 620.859, 697.818 
	L 620.858, 697.819 
	L 620.858, 672.449 
" />
<path d="M 625.465, 697.818 
	L 625.465, 697.819 
	L 625.465, 672.449 
" />
<path d="M 630.072, 697.818 
	L 630.071, 697.819 
	L 630.071, 672.449 
" />
<path d="M 634.678, 697.818 
	L 634.677, 697.819 
	L 634.677, 672.449 
" />
<path d="M 639.284, 697.818 
	L 639.284, 697.819 
	L 639.284, 672.449 
" />
<path d="M 643.891, 697.818 
	L 643.890, 697.819 
	L 643.890, 672.449 
" />
<path d="M 648.497, 697.818 
	L 648.496, 697.819 
	L 648.496, 672.449 
" />
<path d="M 653.103, 697.818 
	L 653.102, 697.819 
	L 653.102, 672.449 
" />
<path d="M 657.709, 697.818 
	L 657.709, 697.819 
	L 657.709, 672.449 
" />
<path d="M 662.316, 697.818 
	L 662.315, 697.819 
	L 662.315, 672.449 
" />
<path d="M 666.922, 697.818 
	L 666.921, 697.819 
	L 666.921, 672.449 
" />
<path d="M 671.528, 697.818 
	L 671.528, 697.819 
	L 671.528, 672.449 
" />
<path d="M 676.135, 697.818 
	L 676.134, 697.819 
	L 676.134, 672.449 
" />
<path d="M 680.741, 697.818 
	L 680.740, 697.819 
	L 680.740, 672.449 
" />
<path d="M 685.347, 697.818 
	L 685.347, 697.819 
	L 685.347, 672.449 
" />
<path d="M 689.954, 697.818 
	L 689.953, 697.819 
	L 689.953, 672.449 
" />
<path d="M 694.560, 697.818 
	L 694.559, 697.819 
	L 694.559, 672.449 
" />
<path d="M 699.166, 697.818 
	L 699.165, 697.819 
	L 699.165, 672.449 
" />
<path d="M 703.772, 697.818 
	L 703.772, 697.819 
	L 703.772, 672.449 
" />
<path d="M 109.560, 708.661 
	L 109.559, 708.662 
	L 109.559, 697.819 
" />
<path d="M 114.166, 708.661 
	L 114.165, 708.662 
	L 114.165, 697.819 
" />
<path d="M 118.772, 708.661 
	L 118.772, 708.662 
	L 118.772, 697.819 
" />
<path d="M 123.379, 708.661 
	L 123.378, 708.662 
	L 123.378, 697.819 
" />
<path d="M 127.985, 708.661 
	L 127.984, 708.662 
	L 127.984, 697.819 
" />
<path d="M 132.591, 708.661 
	L 132.591, 708.662 
	L 132.591, 697.819 
" />
<path d="M 137.198, 708.661 
	L 137.197, 708.662 
	L 137.197, 697.819 
" />
<path d="M 141.804, 708.661 
	L 141.803, 708.662 
	L 141.803, 697.819 
" />
<path d="M 146.410, 708.661 
	L 146.409, 708.662 
	L 146.409, 697.819 
" />
<path d="M 151.016, 708.661 
	L 151.016, 708.662 
	L 151.016, 697.819 
" />
<path d="M 155.623, 708.661 
	L 155.622, 708.662 
	L 155.622, 697.819 
" />
<path d="M 160.229, 708.661 
	L 160.228, 708.662 
	L 160.228, 697.819 
" />
<path d="M 164.835, 708.661 
	L 164.835, 708.662 
	L 164.835, 697.819 
" />
<path d="M 169.442, 708.661 
	L 169.441, 708.662 
	L 169.441, 697.819 
" />
<path d="M 174.048, 708.661 
	L 174.047, 708.662 
	L 174.047, 697.819 
" />
<path d="M 178.654, 708.661 
	L 178.654, 708.662 
	L 178.654, 697.819 
" />
<path d="M 183.261, 708.661 
	L 183.260, 708.662 
	L 183.260, 697.819 
" />
<path d="M 187.867, 708.661 
	L 187.866, 708.662 
	L 187.866, 697.819 
" />
<path d="M 192.473, 708.661 
	L 192.472, 708.662 
	L 192.472, 697.819 
" />
<path d="M 197.079, 708.661 
	L 197.079, 708.662 
	L 197.079, 697.819 
" />
<path d="M 201.686, 708.661 
	L 201.685, 708.662 
	L 201.685, 697.819 
" />
<path d="M 206.292, 708.661 
	L 206.291, 708.662 
	L 206.291, 697.819 
" />
<path d="M 210.898, 708.661 
	L 210.898, 708.662 
	L 210.898, 697.819 
" />
<path d="M 215.505, 708.661 
	L 215.504, 708.662 
	L 215.504, 697.819 
" />
<path d="M 220.111, 708.661 
	L 220.110, 708.662 
	L 220.110, 697.819 
" />
<path d="M 224.717, 708.661 
	L 224.717, 708.662 
	L 224.717, 697.819 
" />
<path d="M 229.324, 708.661 
	L 229.323, 708.662 
	L 229.323, 697.819 
" />
<path d="M 233.930, 708.661 
	L 233.929, 708.662 
	L 233.929, 697.819 
" />
<path d="M 238.536, 708.661 
	L 238.535, 708.662 
	L 238.535, 697.819 
" />
<path d="M 243.142, 708.661 
	L 243.142, 708.662 
	L 243.142, 697.819 
" />
<path d="M 247.749, 708.661 
	L 247.748, 708.662 
	L 247.748, 697.819 
" />
<path d="M 252.355, 708.661 
	L 252.354, 708.662 
	L 252.354, 697.819 
" />
<path d="M 256.961, 708.661 
	L 256.961, 708.662 
	L 256.961, 697.819 
" />
<path d="M 261.568, 708.661 
	L 261.567, 708.662 
	L 261.567, 697.819 
" />
<path d="M 266.174, 708.661 
	L 266.173, 708.662 
	L 266.173, 697.819 
" />
<path d="M 270.780, 708.661 
	L 270.780, 708.662 
	L 270.780, 697.819 
" />
<path d="M 275.387, 708.661 
	L 275.386, 708.662 
	L 275.386, 697.819 
" />
<path d="M 279.993, 708.661 
	L 279.992, 708.662 
	L 279.992, 697.819 
" />
<path d="M 284.599, 708.661 
	L 284.598, 708.662 
	L 284.598, 697.819 
" />
<path d="M 289.205, 708.661 
	L 289.205, 708.662 
	L 289.205, 697.819 
" />
<path d="M 293.812, 708.661 
	L 293.811, 708.662 
	L 293.811, 697.819 
" />
<path d="M 298.418, 708.661 
	L 298.417, 708.662 
	L 298.417, 697.819 
" />
<path d="M 303.024, 708.661 
	L 303.024, 708.662 
	L 303.024, 697.819 
" />
<path d="M 307.631, 708.661 
	L 307.630, 708.662 
	L 307.630, 697.819 
" />
<path d="M 312.237, 708.661 
	L 312.236, 708.662 
	L 312.236, 697.819 
" />
<path d="M 316.843, 708.661 
	L 316.843, 708.662 
	L 316.843, 697.819 
" />
<path d="M 321.450, 708.661 
	L 321.449, 708.662 
	L 321.449, 697.819 
" />
<path d="M 326.056, 708.661 
	L 326.055, 708.662 
	L 326.055, 697.819 
" />
<path d="M 330.662, 708.661 
	L 330.661, 708.662 
	L 330.661, 697.819 
" />
<path d="M 335.268, 708.661 
	L 335.268, 708.662 
	L 335.268, 697.819 
" />
<path d="M 339.875, 708.661 
	L 339.874, 708.662 
	L 339.874, 697.819 
" />
<path d="M 344.481, 708.661 
	L 344.480, 708.662 
	L 344.480, 697.819 
" />
<path d="M 349.087, 708.661 
	L 349.087, 708.662 
	L 349.087, 697.819 
" />
<path d="M 353.694, 708.661 
	L 353.693, 708.662 
	L 353.693, 697.819 
" />
<path d="M 358.300, 708.661 
	L 358.299, 708.662 
	L 358.299, 697.819 
" />
<path d="M 362.906, 708.661 
	L 362.906, 708.662 
	L 362.906, 697.819 
" />
<path d="M 367.513, 708.661 
	L 367.512, 708.662 
	L 367.512, 697.819 
" />
<path d="M 372.119, 708.661 
	L 372.118, 708.662 
	L 372.118, 697.819 
" />
<path d="M 376.725, 708.661 
	L 376.724, 708.662 
	L 376.724, 697.819 
" />
<path d="M 381.331, 708.661 
	L 381.331, 708.662 
	L 381.331, 697.819 
" />
<path d="M 385.938, 708.661 
	L 385.937, 708.662 
	L 385.937, 697.819 
" />
<path d="M 390.544, 708.661 
	L 390.543, 708.662 
	L 390.543, 697.819 
" />
<path d="M 395.150, 708.661 
	L 395.150, 708.662 
	L 395.150, 697.819 
" />
<path d="M 399.757, 708.661 
	L 399.756, 708.662 
	L 399.756, 697.819 
" />
<path d="M 404.363, 708.661 
	L 404.362, 708.662 
	L 404.362, 697.819 
" />
<path d="M 408.969, 708.661 
	L 408.969, 708.662 
	L 408.969, 697.819 
" />
<path d="M 413.576, 708.661 
	L 413.575, 708.662 
	L 413.575, 697.819 
" />
<path d="M 418.182, 708.661 
	L 418.181, 708.662 
	L 418.181, 697.819 
" />
<path d="M 422.788, 708.661 
	L 422.787, 708.662 
	L 422.787, 697.819 
" />
<path d="M 427.394, 708.661 
	L 427.394, 708.662 
	L 427.394, 697.819 
" />
<path d="M 432.001, 708.661 
	L 432.000, 708.662 
	L 432.000, 697.819 
" />
<path d="M 436.607, 708.661 
	L 436.606, 708.662 
	L 436.606, 697.819 
" />
<path d="M 441.213, 708.661 
	L 441.213, 708.662 
	L 441.213, 697.819 
" />
<path d="M 445.820, 708.661 
	L 445.819, 708.662 
	L 445.819, 697.819 
" />
<path d="M 450.426, 708.661 
	L 450.425, 708.662 
	L 450.425, 697.819 
" />
<path d="M 455.032, 708.661 
	L 455.032, 708.662 
	L 455.032, 697.819 
" />
<path d="M 459.639, 708.661 
	L 459.638, 708.662 
	L 459.638, 697.819 
" />
<path d="M 464.245, 708.661 
	L 464.244, 708.662 
	L 464.244, 697.819 
" />
<path d="M 468.851, 708.661 
	L 468.850, 708.662 
	L 468.850, 697.819 
" />
<path d="M 473.457, 708.661 
	L 473.457, 708.662 
	L 473.457, 697.819 
" />
<path d="M 478.064, 708.661 
	L 478.063, 708.662 
	L 478.063, 697.819 
" />
<path d="M 482.670, 708.661 
	L 482.669, 708.662 
	L 482.669, 697.819 
" />
<path d="M 487.276, 708.661 
	L 487.276, 708.662 
	L 487.276, 697.819 
" />
<path d="M 491.883, 708.661 
	L 491.882, 708.662 
	L 491.882, 697.819 
" />
<path d="M 496.489, 708.661 
	L 496.488, 708.662 
	L 496.488, 697.819 
" />
<path d="M 501.095, 708.661 
	L 501.095, 708.662 
	L 501.095, 697.819 
" />
<path d="M 505.702, 708.661 
	L 505.701, 708.662 
	L 505.701, 697.819 
" />
<path d="M 510.308, 708.661 
	L 510.307, 708.662 
	L 510.307, 697.819 
" />
<path d="M 514.914, 708.661 
	L 514.913, 708.662 
	L 514.913, 697.819 
" />
<path d="M 519.520, 708.661 
	L 519.520, 708.662 
	L 519.520, 697.819 
" />
<path d="M 524.127, 708.661 
	L 524.126, 708.662 
	L 524.126, 697.819 
" />
<path d="M 528.733, 708.661 
	L 528.732, 708.662 
	L 528.732, 697.819 
" />
<path d="M 533.339, 708.661 
	L 533.339, 708.662 
	L 533.339, 697.819 
" />
<path d="M 537.946, 708.661 
	L 537.945, 708.662 
	L 537.945, 697.819 
" />
<path d="M 542.552, 708.661 
	L 542.551, 708.662 
	L 542.551, 697.819 
" />
<path d="M 547.158, 708.661 
	L 547.158, 708.662 
	L 547.158, 697.819 
" />
<path d="M 551.765, 708.661 
	L 551.764, 708.662 
	L 551.764, 697.819 
" />
<path d="M 556.371, 708.661 
	L 556.370, 708.662 
	L 556.370, 697.819 
" />
<path d="M 560.977, 708.661 
	L 560.976, 708.662 
	L 560.976, 697.819 
" />
<path d="M 565.583, 708.661 
	L 565.583, 708.662 
	L 565.583, 697.819 
" />
<path d="M 570.190, 708.661 
	L 570.189, 708.662 
	L 570.189, 697.819 
" />
<path d="M 574.796, 708.661 
	L 574.795, 708.662 
	L 574.795, 697.819 
" />
<path d="M 579.402, 708.661 
	L 579.402, 708.662 
	L 579.402, 697.819 
" />
<path d="M 584.009, 708.661 
	L 584.008, 708.662 
	L 584.008, 697.819 
" />
<path d="M 588.615, 708.661 
	L 588.614, 708.662 
	L 588.614, 697.819 
" />
<path d="M 593.221, 708.661 
	L 593.221, 708.662 
	L 593.221, 697.819 
" />
<path d="M 597.828, 708.661 
	L 597.827, 708.662 
	L 597.827, 697.819 
" />
<path d="M 602.434, 708.661 
	L 602.433, 708.662 
	L 602.433, 697.819 
" />
<path d="M 607.040, 708.661 
	L 607.039, 708.662 
	L 607.039, 697.819 
" />
<path d="M 611.646, 708.661 
	L 611.646, 708.662 
	L 611.646, 697.819 
" />
<path d="M 616.253, 708.661 
	L 616.252, 708.662 
	L 616.252, 697.819 
" />
<path d="M 620.859, 708.661 
	L 620.858, 708.662 
	L 620.858, 697.819 
" />
<path d="M 625.465, 708.661 
	L 625.465, 708.662 
	L 625.465, 697.819 
" />
<path d="M 630.072, 708.661 
	L 630.071, 708.662 
	L 630.071, 697.819 
" />
<path d="M 634.678, 708.661 
	L 634.677, 708.662 
	L 634.677, 697.819 
" />
<path d="M 639.284, 708.661 
	L 639.284, 708.662 
	L 639.284, 697.819 
" />
<path d="M 643.891, 708.661 
	L 643.890, 708.662 
	L 643.890, 697.819 
" />
<path d="M 648.497, 708.661 
	L 648.496, 708.662 
	L 648.496, 697.819 
" />
<path d="M 653.103, 708.661 
	L 653.102, 708.662 
	L 653.102, 697.819 
" />
<path d="M 657.709, 708.661 
	L 657.709, 708.662 
	L 657.709, 697.819 
" />
<path d="M 662.316, 708.661 
	L 662.315, 708.662 
	L 662.315, 697.819 
" />
<path d="M 666.922, 708.661 
	L 666.921, 708.662 
	L 666.921, 697.819 
" />
<path d="M 671.528, 708.661 
	L 671.528, 708.662 
	L 671.528, 697.819 
" />
<path d="M 676.135, 708.661 
	L 676.134, 708.662 
	L 676.134, 697.819 
" />
<path d="M 680.741, 708.661 
	L 680.740, 708.662 
	L 680.740, 697.819 
" />
<path d="M 685.347, 708.661 
	L 685.347, 708.662 
	L 685.347, 697.819 
" />
<path d="M 689.954, 708.661 
	L 689.953, 708.662 
	L 689.953, 697.819 
" />
<path d="M 694.560, 708.661 
	L 694.559, 708.662 
	L 694.559, 697.819 
" />
<path d="M 699.166, 708.661 
	L 699.165, 708.662 
	L 699.165, 697.819 
" />
<path d="M 703.772, 708.661 
	L 703.772, 708.662 
	L 703.772, 697.819 
" />
</g>
</svg>
