<?xml version="1.0" encoding="UTF-8" standalone="no" ?>
<svg width="100%" height="100%" viewBox="0 0 708.697 708.662" xmlns="http://www.w3.org/2000/svg"><g>
</g><g style="stroke:rgb(0,0,0); fill:none; stroke-width:1.000mm" >
</g><g style="stroke:rgb(0,255,0); fill:none; stroke-width:0.100mm" >
<path d="M 0.036, 708.661 
	L 0.035, 708.662 
	L 0.035, 0.000 
	L 708.697, 0.000 
	L 708.697, 708.662 
	L 0.035, 708.662 
" />
</g><g style="stroke:rgb(0,0,0); fill:none; stroke-width:0.100mm" >
<path d="M 0.036, 708.661 
	L 0.035, 708.662 
	L 0.035, 0.000 
	L 708.697, 0.000 
	L 708.697, 708.662 
	L 0.035, 708.662 
" />
<path d="M 0.036, 708.661 
	L 0.035, 708.662 
	L 0.035, 0.000 
" />
<path d="M 4.642, 708.661 
	L 4.642, 708.662 
	L 4.642, 0.000 
" />
<path d="M 9.249, 708.661 
	L 9.248, 708.662 
	L 9.248, 0.000 
" />
<path d="M 13.855, 708.661 
	L 13.854, 708.662 
	L 13.854, 0.000 
" />
<path d="M 18.461, 708.661 
	L 18.461, 708.662 
	L 18.461, 0.000 
" />
<path d="M 23.068, 708.661 
	L 23.067, 708.662 
	L 23.067, 0.000 
" />
<path d="M 27.674, 708.661 
	L 27.673, 708.662 
	L 27.673, 0.000 
" />
<path d="M 32.280, 708.661 
	L 32.280, 708.662 
	L 32.280, 0.000 
" />
<path d="M 36.887, 708.661 
	L 36.886, 708.662 
	L 36.886, 0.000 
" />
<path d="M 41.493, 708.661 
	L 41.492, 708.662 
	L 41.492, 0.000 
" />
<path d="M 46.099, 708.661 
	L 46.098, 708.662 
	L 46.098, 0.000 
" />
<path d="M 50.705, 708.661 
	L 50.705, 708.662 
	L 50.705, 0.000 
" />
<path d="M 55.312, 708.661 
	L 55.311, 708.662 
	L 55.311, 0.000 
" />
<path d="M 59.918, 708.661 
	L 59.917, 708.662 
	L 59.917, 0.000 
" />
<path d="M 64.524, 708.661 
	L 64.524, 708.662 
	L 64.524, 0.000 
" />
<path d="M 69.131, 708.661 
	L 69.130, 708.662 
	L 69.130, 0.000 
" />
<path d="M 73.737, 708.661 
	L 73.736, 708.662 
	L 73.736, 0.000 
" />
<path d="M 78.343, 708.661 
	L 78.343, 708.662 
	L 78.343, 0.000 
" />
<path d="M 82.950, 708.661 
	L 82.949, 708.662 
	L 82.949, 0.000 
" />
<path d="M 87.556, 708.661 
	L 87.555, 708.662 
	L 87.555, 0.000 
" />
<path d="M 92.162, 708.661 
	L 92.161, 708.662 
	L 92.161, 0.000 
" />
<path d="M 96.768, 708.661 
	L 96.768, 708.662 
	L 96.768, 0.000 
" />
<path d="M 101.375, 708.661 
	L 101.374, 708.662 
	L 101.374, 0.000 
" />
<path d="M 105.981, 708.661 
	L 105.980, 708.662 
	L 105.980, 0.000 
" />
<path d="M 110.587, 708.661 
	L 110.587, 708.662 
	L 110.587, 0.000 
" />
<path d="M 115.194, 708.661 
	L 115.193, 708.662 
	L 115.193, 0.000 
" />
<path d="M 119.800, 708.661 
	L 119.799, 708.662 
	L 119.799, 0.000 
" />
<path d="M 124.406, 708.661 
	L 124.406, 708.662 
	L 124.406, 0.000 
" />
<path d="M 129.013, 708.661 
	L 129.012, 708.662 
	L 129.012, 0.000 
" />
<path d="M 133.619, 708.661 
	L 133.618, 708.662 
	L 133.618, 0.000 
" />
<path d="M 138.225, 708.661 
	L 138.224, 708.662 
	L 138.224, 0.000 
" />
<path d="M 142.831, 708.661 
	L 142.831, 708.662 
	L 142.831, 0.000 
" />
<path d="M 147.438, 708.661 
	L 147.437, 708.662 
	L 147.437, 0.000 
" />
<path d="M 152.044, 708.661 
	L 152.043, 708.662 
	L 152.043, 0.000 
" />
<path d="M 156.650, 708.661 
	L 156.650, 708.662 
	L 156.650, 0.000 
" />
<path d="M 161.257, 708.661 
	L 161.256, 708.662 
	L 161.256, 0.000 
" />
<path d="M 165.863, 708.661 
	L 165.862, 708.662 
	L 165.862, 0.000 
" />
<path d="M 170.469, 708.661 
	L 170.469, 708.662 
	L 170.469, 0.000 
" />
<path d="M 175.076, 708.661 
	L 175.075, 708.662 
	L 175.075, 0.000 
" />
<path d="M 179.682, 708.661 
	L 179.681, 708.662 
	L 179.681, 0.000 
" />
<path d="M 184.288, 708.661 
	L 184.287, 708.662 
	L 184.287, 0.000 
" />
<path d="M 188.894, 708.661 
	L 188.894, 708.662 
	L 188.894, 0.000 
" />
<path d="M 193.501, 708.661 
	L 193.500, 708.662 
	L 193.500, 0.000 
" />
<path d="M 198.107, 708.661 
	L 198.106, 708.662 
	L 198.106, 0.000 
" />
<path d="M 202.713, 708.661 
	L 202.713, 708.662 
	L 202.713, 0.000 
" />
<path d="M 207.320, 708.661 
	L 207.319, 708.662 
	L 207.319, 0.000 
" />
<path d="M 211.926, 708.661 
	L 211.925, 708.662 
	L 211.925, 0.000 
" />
<path d="M 216.532, 708.661 
	L 216.532, 708.662 
	L 216.532, 0.000 
" />
<path d="M 221.139, 708.661 
	L 221.138, 708.662 
	L 221.138, 0.000 
" />
<path d="M 225.745, 708.661 
	L 225.744, 708.662 
	L 225.744, 0.000 
" />
<path d="M 230.351, 708.661 
	L 230.350, 708.662 
	L 230.350, 0.000 
" />
<path d="M 234.957, 708.661 
	L 234.957, 708.662 
	L 234.957, 0.000 
" />
<path d="M 239.564, 708.661 
	L 239.563, 708.662 
	L 239.563, 0.000 
" />
<path d="M 244.170, 708.661 
	L 244.169, 708.662 
	L 244.169, 0.000 
" />
<path d="M 248.776, 708.661 
	L 248.776, 708.662 
	L 248.776, 0.000 
" />
<path d="M 253.383, 708.661 
	L 253.382, 708.662 
	L 253.382, 0.000 
" />
<path d="M 257.989, 708.661 
	L 257.988, 708.662 
	L 257.988, 0.000 
" />
<path d="M 262.595, 708.661 
	L 262.595, 708.662 
	L 262.595, 0.000 
" />
<path d="M 267.202, 708.661 
	L 267.201, 708.662 
	L 267.201, 0.000 
" />
<path d="M 271.808, 708.661 
	L 271.807, 708.662 
	L 271.807, 0.000 
" />
<path d="M 276.414, 708.661 
	L 276.413, 708.662 
	L 276.413, 0.000 
" />
<path d="M 281.020, 708.661 
	L 281.020, 708.662 
	L 281.020, 0.000 
" />
<path d="M 285.627, 708.661 
	L 285.626, 708.662 
	L 285.626, 0.000 
" />
<path d="M 290.233, 708.661 
	L 290.232, 708.662 
	L 290.232, 0.000 
" />
<path d="M 294.839, 708.661 
	L 294.839, 708.662 
	L 294.839, 0.000 
" />
<path d="M 299.446, 708.661 
	L 299.445, 708.662 
	L 299.445, 0.000 
" />
<path d="M 304.052, 708.661 
	L 304.051, 708.662 
	L 304.051, 0.000 
" />
<path d="M 308.658, 708.661 
	L 308.658, 708.662 
	L 308.658, 0.000 
" />
<path d="M 313.265, 708.661 
	L 313.264, 708.662 
	L 313.264, 0.000 
" />
<path d="M 317.871, 708.661 
	L 317.870, 708.662 
	L 317.870, 0.000 
" />
<path d="M 322.477, 708.661 
	L 322.476, 708.662 
	L 322.476, 0.000 
" />
<path d="M 327.083, 708.661 
	L 327.083, 708.662 
	L 327.083, 0.000 
" />
<path d="M 331.690, 708.661 
	L 331.689, 708.662 
	L 331.689, 0.000 
" />
<path d="M 336.296, 708.661 
	L 336.295, 708.662 
	L 336.295, 0.000 
" />
<path d="M 340.902, 708.661 
	L 340.902, 708.662 
	L 340.902, 0.000 
" />
<path d="M 345.509, 708.661 
	L 345.508, 708.662 
	L 345.508, 0.000 
" />
<path d="M 350.115, 708.661 
	L 350.114, 708.662 
	L 350.114, 0.000 
" />
<path d="M 354.721, 708.661 
	L 354.721, 708.662 
	L 354.721, 0.000 
" />
<path d="M 359.328, 708.661 
	L 359.327, 708.662 
	L 359.327, 0.000 
" />
<path d="M 363.934, 708.661 
	L 363.933, 708.662 
	L 363.933, 0.000 
" />
<path d="M 368.540, 708.661 
	L 368.539, 708.662 
	L 368.539, 0.000 
" />
<path d="M 373.146, 708.661 
	L 373.146, 708.662 
	L 373.146, 0.000 
" />
<path d="M 377.753, 708.661 
	L 377.752, 708.662 
	L 377.752, 0.000 
" />
<path d="M 382.359, 708.661 
	L 382.358, 708.662 
	L 382.358, 0.000 
" />
<path d="M 386.965, 708.661 
	L 386.965, 708.662 
	L 386.965, 0.000 
" />
<path d="M 391.572, 708.661 
	L 391.571, 708.662 
	L 391.571, 0.000 
" />
<path d="M 396.178, 708.661 
	L 396.177, 708.662 
	L 396.177, 0.000 
" />
<path d="M 400.784, 708.661 
	L 400.784, 708.662 
	L 400.784, 0.000 
" />
<path d="M 405.391, 708.661 
	L 405.390, 708.662 
	L 405.390, 0.000 
" />
<path d="M 409.997, 708.661 
	L 409.996, 708.662 
	L 409.996, 0.000 
" />
<path d="M 414.603, 708.661 
	L 414.602, 708.662 
	L 414.602, 0.000 
" />
<path d="M 419.209, 708.661 
	L 419.209, 708.662 
	L 419.209, 0.000 
" />
<path d="M 423.816, 708.661 
	L 423.815, 708.662 
	L 423.815, 0.000 
" />
<path d="M 428.422, 708.661 
	L 428.421, 708.662 
	L 428.421, 0.000 
" />
<path d="M 433.028, 708.661 
	L 433.028, 708.662 
	L 433.028, 0.000 
" />
<path d="M 437.635, 708.661 
	L 437.634, 708.662 
	L 437.634, 0.000 
" />
<path d="M 442.241, 708.661 
	L 442.240, 708.662 
	L 442.240, 0.000 
" />
<path d="M 446.847, 708.661 
	L 446.847, 708.662 
	L 446.847, 0.000 
" />
<path d="M 451.454, 708.661 
	L 451.453, 708.662 
	L 451.453, 0.000 
" />
<path d="M 456.060, 708.661 
	L 456.059, 708.662 
	L 456.059, 0.000 
" />
<path d="M 460.666, 708.661 
	L 460.665, 708.662 
	L 460.665, 0.000 
" />
<path d="M 465.272, 708.661 
	L 465.272, 708.662 
	L 465.272, 0.000 
" />
<path d="M 469.879, 708.661 
	L 469.878, 708.662 
	L 469.878, 0.000 
" />
<path d="M 474.485, 708.661 
	L 474.484, 708.662 
	L 474.484, 0.000 
" />
<path d="M 479.091, 708.661 
	L 479.091, 708.662 
	L 479.091, 0.000 
" />
<path d="M 483.698, 708.661 
	L 483.697, 708.662 
	L 483.697, 0.000 
" />
<path d="M 488.304, 708.661 
	L 488.303, 708.662 
	L 488.303, 0.000 
" />
<path d="M 492.910, 708.661 
	L 492.910, 708.662 
	L 492.910, 0.000 
" />
<path d="M 497.517, 708.661 
	L 497.516, 708.662 
	L 497.516, 0.000 
" />
<path d="M 502.123, 708.661 
	L 502.122, 708.662 
	L 502.122, 0.000 
" />
<path d="M 506.729, 708.661 
	L 506.728, 708.662 
	L 506.728, 0.000 
" />
<path d="M 511.335, 708.661 
	L 511.335, 708.662 
	L 511.335, 0.000 
" />
<path d="M 515.942, 708.661 
	L 515.941, 708.662 
	L 515.941, 0.000 
" />
<path d="M 520.548, 708.661 
	L 520.547, 708.662 
	L 520.547, 0.000 
" />
<path d="M 525.154, 708.661 
	L 525.154, 708.662 
	L 525.154, 0.000 
" />
<path d="M 529.761, 708.661 
	L 529.760, 708.662 
	L 529.760, 0.000 
" />
<path d="M 534.367, 708.661 
	L 534.366, 708.662 
	L 534.366, 0.000 
" />
<path d="M 538.973, 708.661 
	L 538.973, 708.662 
	L 538.973, 0.000 
" />
<path d="M 543.580, 708.661 
	L 543.579, 708.662 
	L 543.579, 0.000 
" />
<path d="M 548.186, 708.661 
	L 548.185, 708.662 
	L 548.185, 0.000 
" />
<path d="M 552.792, 708.661 
	L 552.791, 708.662 
	L 552.791, 0.000 
" />
<path d="M 557.398, 708.661 
	L 557.398, 708.662 
	L 557.398, 0.000 
" />
<path d="M 562.005, 708.661 
	L 562.004, 708.662 
	L 562.004, 0.000 
" />
<path d="M 566.611, 708.661 
	L 566.610, 708.662 
	L 566.610, 0.000 
" />
<path d="M 571.217, 708.661 
	L 571.217, 708.662 
	L 571.217, 0.000 
" />
<path d="M 575.824, 708.661 
	L 575.823, 708.662 
	L 575.823, 0.000 
" />
<path d="M 580.430, 708.661 
	L 580.429, 708.662 
	L 580.429, 0.000 
" />
<path d="M 585.036, 708.661 
	L 585.036, 708.662 
	L 585.036, 0.000 
" />
<path d="M 589.643, 708.661 
	L 589.642, 708.662 
	L 589.642, 0.000 
" />
<path d="M 594.249, 708.661 
	L 594.248, 708.662 
	L 594.248, 0.000 
" />
<path d="M 598.855, 708.661 
	L 598.854, 708.662 
	L 598.854, 0.000 
" />
<path d="M 603.461, 708.661 
	L 603.461, 708.662 
	L 603.461, 0.000 
" />
<path d="M 608.068, 708.661 
	L 608.067, 708.662 
	L 608.067, 0.000 
" />
<path d="M 612.674, 708.661 
	L 612.673, 708.662 
	L 612.673, 0.000 
" />
<path d="M 617.280, 708.661 
	L 617.280, 708.662 
	L 617.280, 0.000 
" />
<path d="M 621.887, 708.661 
	L 621.886, 708.662 
	L 621.886, 0.000 
" />
<path d="M 626.493, 708.661 
	L 626.492, 708.662 
	L 626.492, 0.000 
" />
<path d="M 631.099, 708.661 
	L 631.099, 708.662 
	L 631.099, 0.000 
" />
<path d="M 635.706, 708.661 
	L 635.705, 708.662 
	L 635.705, 0.000 
" />
<path d="M 640.312, 708.661 
	L 640.311, 708.662 
	L 640.311, 0.000 
" />
<path d="M 644.918, 708.661 
	L 644.917, 708.662 
	L 644.917, 0.000 
" />
<path d="M 649.524, 708.661 
	L 649.524, 708.662 
	L 649.524, 0.000 
" />
<path d="M 654.131, 708.661 
	L 654.130, 708.662 
	L 654.130, 0.000 
" />
<path d="M 658.737, 708.661 
	L 658.736, 708.662 
	L 658.736, 0.000 
" />
<path d="M 663.343, 708.661 
	L 663.343, 708.662 
	L 663.343, 0.000 
" />
<path d="M 667.950, 708.661 
	L 667.949, 708.662 
	L 667.949, 0.000 
" />
<path d="M 672.556, 708.661 
	L 672.555, 708.662 
	L 672.555, 0.000 
" />
<path d="M 677.162, 708.661 
	L 677.162, 708.662 
	L 677.162, 0.000 
" />
<path d="M 681.769, 708.661 
	L 681.768, 708.662 
	L 681.768, 0.000 
" />
<path d="M 686.375, 708.661 
	L 686.374, 708.662 
	L 686.374, 0.000 
" />
<path d="M 690.981, 708.661 
	L 690.980, 708.662 
	L 690.980, 0.000 
" />
<path d="M 695.587, 708.661 
	L 695.587, 708.662 
	L 695.587, 0.000 
" />
<path d="M 700.194, 708.661 
	L 700.193, 708.662 
	L 700.193, 0.000 
" />
<path d="M 0.001, 708.661 
	L 0.000, 708.662 
	L 0.000, 4.677 
	L 107.787, 4.677 
	L 107.787, 708.662 
	L 0.000, 708.662 
" />
<path d="M 0.036, 708.661 
	L 0.035, 708.662 
	L 0.035, 4.677 
" />
<path d="M 4.642, 708.661 
	L 4.642, 708.662 
	L 4.642, 4.677 
" />
<path d="M 9.249, 708.661 
	L 9.248, 708.662 
	L 9.248, 4.677 
" />
<path d="M 13.855, 708.661 
	L 13.854, 708.662 
	L 13.854, 4.677 
" />
<path d="M 18.461, 708.661 
	L 18.461, 708.662 
	L 18.461, 4.677 
" />
<path d="M 23.068, 708.661 
	L 23.067, 708.662 
	L 23.067, 4.677 
" />
<path d="M 27.674, 708.661 
	L 27.673, 708.662 
	L 27.673, 4.677 
" />
<path d="M 32.280, 708.661 
	L 32.280, 708.662 
	L 32.280, 4.677 
" />
<path d="M 36.887, 708.661 
	L 36.886, 708.662 
	L 36.886, 4.677 
" />
<path d="M 41.493, 708.661 
	L 41.492, 708.662 
	L 41.492, 4.677 
" />
<path d="M 46.099, 708.661 
	L 46.098, 708.662 
	L 46.098, 4.677 
" />
<path d="M 50.705, 708.661 
	L 50.705, 708.662 
	L 50.705, 4.677 
" />
<path d="M 55.312, 708.661 
	L 55.311, 708.662 
	L 55.311, 4.677 
" />
<path d="M 59.918, 708.661 
	L 59.917, 708.662 
	L 59.917, 4.677 
" />
<path d="M 64.524, 708.661 
	L 64.524, 708.662 
	L 64.524, 4.677 
" />
<path d="M 69.131, 708.661 
	L 69.130, 708.662 
	L 69.130, 4.677 
" />
<path d="M 73.737, 708.661 
	L 73.736, 708.662 
	L 73.736, 4.677 
" />
<path d="M 78.343, 708.661 
	L 78.343, 708.662 
	L 78.343, 4.677 
" />
<path d="M 82.950, 708.661 
	L 82.949, 708.662 
	L 82.949, 4.677 
" />
<path d="M 87.556, 708.661 
	L 87.555, 708.662 
	L 87.555, 4.677 
" />
<path d="M 92.162, 708.661 
	L 92.161, 708.662 
	L 92.161, 4.677 
" />
<path d="M 96.768, 708.661 
	L 96.768, 708.662 
	L 96.768, 4.677 
" />
<path d="M 101.375, 708.661 
	L 101.374, 708.662 
	L 101.374, 4.677 
" />
<path d="M 0.001, 4.676 
	L 0.000, 4.677 
	L 0.000, 0.000 
	L 107.787, 0.000 
	L 107.787, 4.677 
	L 0.000, 4.677 
" />
<path d="M 0.036, 4.676 
	L 0.035, 4.677 
	L 0.035, 0.000 
" />
<path d="M 4.642, 4.676 
	L 4.642, 4.677 
	L 4.642, 0.000 
" />
<path d="M 9.249, 4.676 
	L 9.248, 4.677 
	L 9.248, 0.000 
" />
<path d="M 13.855, 4.676 
	L 13.854, 4.677 
	L 13.854, 0.000 
" />
<path d="M 18.461, 4.676 
	L 18.461, 4.677 
	L 18.461, 0.000 
" />
<path d="M 23.068, 4.676 
	L 23.067, 4.677 
	L 23.067, 0.000 
" />
<path d="M 27.674, 4.676 
	L 27.673, 4.677 
	L 27.673, 0.000 
" />
<path d="M 32.280, 4.676 
	L 32.280, 4.677 
	L 32.280, 0.000 
" />
<path d="M 36.887, 4.676 
	L 36.886, 4.677 
	L 36.886, 0.000 
" />
<path d="M 41.493, 4.676 
	L 41.492, 4.677 
	L 41.492, 0.000 
" />
<path d="M 46.099, 4.676 
	L 46.098, 4.677 
	L 46.098, 0.000 
" />
<path d="M 50.705, 4.676 
	L 50.705, 4.677 
	L 50.705, 0.000 
" />
<path d="M 55.312, 4.676 
	L 55.311, 4.677 
	L 55.311, 0.000 
" />
<path d="M 59.918, 4.676 
	L 59.917, 4.677 
	L 59.917, 0.000 
" />
<path d="M 64.524, 4.676 
	L 64.524, 4.677 
	L 64.524, 0.000 
" />
<path d="M 69.131, 4.676 
	L 69.130, 4.677 
	L 69.130, 0.000 
" />
<path d="M 73.737, 4.676 
	L 73.736, 4.677 
	L 73.736, 0.000 
" />
<path d="M 78.343, 4.676 
	L 78.343, 4.677 
	L 78.343, 0.000 
" />
<path d="M 82.950, 4.676 
	L 82.949, 4.677 
	L 82.949, 0.000 
" />
<path d="M 87.556, 4.676 
	L 87.555, 4.677 
	L 87.555, 0.000 
" />
<path d="M 92.162, 4.676 
	L 92.161, 4.677 
	L 92.161, 0.000 
" />
<path d="M 96.768, 4.676 
	L 96.768, 4.677 
	L 96.768, 0.000 
" />
<path d="M 101.375, 4.676 
	L 101.374, 4.677 
	L 101.374, 0.000 
" />
<path d="M 107.788, 4.676 
	L 107.787, 4.677 
	L 107.787, 0.000 
	L 708.662, 0.000 
	L 708.662, 4.677 
	L 107.787, 4.677 
" />
<path d="M 107.824, 4.676 
	L 107.823, 4.677 
	L 107.823, 0.000 
" />
<path d="M 112.430, 4.676 
	L 112.429, 4.677 
	L 112.429, 0.000 
" />
<path d="M 117.036, 4.676 
	L 117.035, 4.677 
	L 117.035, 0.000 
" />
<path d="M 121.642, 4.676 
	L 121.642, 4.677 
	L 121.642, 0.000 
" />
<path d="M 126.249, 4.676 
	L 126.248, 4.677 
	L 126.248, 0.000 
" />
<path d="M 130.855, 4.676 
	L 130.854, 4.677 
	L 130.854, 0.000 
" />
<path d="M 135.461, 4.676 
	L 135.461, 4.677 
	L 135.461, 0.000 
" />
<path d="M 140.068, 4.676 
	L 140.067, 4.677 
	L 140.067, 0.000 
" />
<path d="M 144.674, 4.676 
	L 144.673, 4.677 
	L 144.673, 0.000 
" />
<path d="M 149.280, 4.676 
	L 149.280, 4.677 
	L 149.280, 0.000 
" />
<path d="M 153.887, 4.676 
	L 153.886, 4.677 
	L 153.886, 0.000 
" />
<path d="M 158.493, 4.676 
	L 158.492, 4.677 
	L 158.492, 0.000 
" />
<path d="M 163.099, 4.676 
	L 163.098, 4.677 
	L 163.098, 0.000 
" />
<path d="M 167.705, 4.676 
	L 167.705, 4.677 
	L 167.705, 0.000 
" />
<path d="M 172.312, 4.676 
	L 172.311, 4.677 
	L 172.311, 0.000 
" />
<path d="M 176.918, 4.676 
	L 176.917, 4.677 
	L 176.917, 0.000 
" />
<path d="M 181.524, 4.676 
	L 181.524, 4.677 
	L 181.524, 0.000 
" />
<path d="M 186.131, 4.676 
	L 186.130, 4.677 
	L 186.130, 0.000 
" />
<path d="M 190.737, 4.676 
	L 190.736, 4.677 
	L 190.736, 0.000 
" />
<path d="M 195.343, 4.676 
	L 195.343, 4.677 
	L 195.343, 0.000 
" />
<path d="M 199.950, 4.676 
	L 199.949, 4.677 
	L 199.949, 0.000 
" />
<path d="M 204.556, 4.676 
	L 204.555, 4.677 
	L 204.555, 0.000 
" />
<path d="M 209.162, 4.676 
	L 209.161, 4.677 
	L 209.161, 0.000 
" />
<path d="M 213.768, 4.676 
	L 213.768, 4.677 
	L 213.768, 0.000 
" />
<path d="M 218.375, 4.676 
	L 218.374, 4.677 
	L 218.374, 0.000 
" />
<path d="M 222.981, 4.676 
	L 222.980, 4.677 
	L 222.980, 0.000 
" />
<path d="M 227.587, 4.676 
	L 227.587, 4.677 
	L 227.587, 0.000 
" />
<path d="M 232.194, 4.676 
	L 232.193, 4.677 
	L 232.193, 0.000 
" />
<path d="M 236.800, 4.676 
	L 236.799, 4.677 
	L 236.799, 0.000 
" />
<path d="M 241.406, 4.676 
	L 241.406, 4.677 
	L 241.406, 0.000 
" />
<path d="M 246.013, 4.676 
	L 246.012, 4.677 
	L 246.012, 0.000 
" />
<path d="M 250.619, 4.676 
	L 250.618, 4.677 
	L 250.618, 0.000 
" />
<path d="M 255.225, 4.676 
	L 255.224, 4.677 
	L 255.224, 0.000 
" />
<path d="M 259.831, 4.676 
	L 259.831, 4.677 
	L 259.831, 0.000 
" />
<path d="M 264.438, 4.676 
	L 264.437, 4.677 
	L 264.437, 0.000 
" />
<path d="M 269.044, 4.676 
	L 269.043, 4.677 
	L 269.043, 0.000 
" />
<path d="M 273.650, 4.676 
	L 273.650, 4.677 
	L 273.650, 0.000 
" />
<path d="M 278.257, 4.676 
	L 278.256, 4.677 
	L 278.256, 0.000 
" />
<path d="M 282.863, 4.676 
	L 282.862, 4.677 
	L 282.862, 0.000 
" />
<path d="M 287.469, 4.676 
	L 287.469, 4.677 
	L 287.469, 0.000 
" />
<path d="M 292.076, 4.676 
	L 292.075, 4.677 
	L 292.075, 0.000 
" />
<path d="M 296.682, 4.676 
	L 296.681, 4.677 
	L 296.681, 0.000 
" />
<path d="M 301.288, 4.676 
	L 301.287, 4.677 
	L 301.287, 0.000 
" />
<path d="M 305.894, 4.676 
	L 305.894, 4.677 
	L 305.894, 0.000 
" />
<path d="M 310.501, 4.676 
	L 310.500, 4.677 
	L 310.500, 0.000 
" />
<path d="M 315.107, 4.676 
	L 315.106, 4.677 
	L 315.106, 0.000 
" />
<path d="M 319.713, 4.676 
	L 319.713, 4.677 
	L 319.713, 0.000 
" />
<path d="M 324.320, 4.676 
	L 324.319, 4.677 
	L 324.319, 0.000 
" />
<path d="M 328.926, 4.676 
	L 328.925, 4.677 
	L 328.925, 0.000 
" />
<path d="M 333.532, 4.676 
	L 333.532, 4.677 
	L 333.532, 0.000 
" />
<path d="M 338.139, 4.676 
	L 338.138, 4.677 
	L 338.138, 0.000 
" />
<path d="M 342.745, 4.676 
	L 342.744, 4.677 
	L 342.744, 0.000 
" />
<path d="M 347.351, 4.676 
	L 347.350, 4.677 
	L 347.350, 0.000 
" />
<path d="M 351.957, 4.676 
	L 351.957, 4.677 
	L 351.957, 0.000 
" />
<path d="M 356.564, 4.676 
	L 356.563, 4.677 
	L 356.563, 0.000 
" />
<path d="M 361.170, 4.676 
	L 361.169, 4.677 
	L 361.169, 0.000 
" />
<path d="M 365.776, 4.676 
	L 365.776, 4.677 
	L 365.776, 0.000 
" />
<path d="M 370.383, 4.676 
	L 370.382, 4.677 
	L 370.382, 0.000 
" />
<path d="M 374.989, 4.676 
	L 374.988, 4.677 
	L 374.988, 0.000 
" />
<path d="M 379.595, 4.676 
	L 379.595, 4.677 
	L 379.595, 0.000 
" />
<path d="M 384.202, 4.676 
	L 384.201, 4.677 
	L 384.201, 0.000 
" />
<path d="M 388.808, 4.676 
	L 388.807, 4.677 
	L 388.807, 0.000 
" />
<path d="M 393.414, 4.676 
	L 393.413, 4.677 
	L 393.413, 0.000 
" />
<path d="M 398.020, 4.676 
	L 398.020, 4.677 
	L 398.020, 0.000 
" />
<path d="M 402.627, 4.676 
	L 402.626, 4.677 
	L 402.626, 0.000 
" />
<path d="M 407.233, 4.676 
	L 407.232, 4.677 
	L 407.232, 0.000 
" />
<path d="M 411.839, 4.676 
	L 411.839, 4.677 
	L 411.839, 0.000 
" />
<path d="M 416.446, 4.676 
	L 416.445, 4.677 
	L 416.445, 0.000 
" />
<path d="M 421.052, 4.676 
	L 421.051, 4.677 
	L 421.051, 0.000 
" />
<path d="M 425.658, 4.676 
	L 425.658, 4.677 
	L 425.658, 0.000 
" />
<path d="M 430.265, 4.676 
	L 430.264, 4.677 
	L 430.264, 0.000 
" />
<path d="M 434.871, 4.676 
	L 434.870, 4.677 
	L 434.870, 0.000 
" />
<path d="M 439.477, 4.676 
	L 439.476, 4.677 
	L 439.476, 0.000 
" />
<path d="M 444.083, 4.676 
	L 444.083, 4.677 
	L 444.083, 0.000 
" />
<path d="M 448.690, 4.676 
	L 448.689, 4.677 
	L 448.689, 0.000 
" />
<path d="M 453.296, 4.676 
	L 453.295, 4.677 
	L 453.295, 0.000 
" />
<path d="M 457.902, 4.676 
	L 457.902, 4.677 
	L 457.902, 0.000 
" />
<path d="M 462.509, 4.676 
	L 462.508, 4.677 
	L 462.508, 0.000 
" />
<path d="M 467.115, 4.676 
	L 467.114, 4.677 
	L 467.114, 0.000 
" />
<path d="M 471.721, 4.676 
	L 471.721, 4.677 
	L 471.721, 0.000 
" />
<path d="M 476.328, 4.676 
	L 476.327, 4.677 
	L 476.327, 0.000 
" />
<path d="M 480.934, 4.676 
	L 480.933, 4.677 
	L 480.933, 0.000 
" />
<path d="M 485.540, 4.676 
	L 485.539, 4.677 
	L 485.539, 0.000 
" />
<path d="M 490.146, 4.676 
	L 490.146, 4.677 
	L 490.146, 0.000 
" />
<path d="M 494.753, 4.676 
	L 494.752, 4.677 
	L 494.752, 0.000 
" />
<path d="M 499.359, 4.676 
	L 499.358, 4.677 
	L 499.358, 0.000 
" />
<path d="M 503.965, 4.676 
	L 503.965, 4.677 
	L 503.965, 0.000 
" />
<path d="M 508.572, 4.676 
	L 508.571, 4.677 
	L 508.571, 0.000 
" />
<path d="M 513.178, 4.676 
	L 513.177, 4.677 
	L 513.177, 0.000 
" />
<path d="M 517.784, 4.676 
	L 517.784, 4.677 
	L 517.784, 0.000 
" />
<path d="M 522.391, 4.676 
	L 522.390, 4.677 
	L 522.390, 0.000 
" />
<path d="M 526.997, 4.676 
	L 526.996, 4.677 
	L 526.996, 0.000 
" />
<path d="M 531.603, 4.676 
	L 531.602, 4.677 
	L 531.602, 0.000 
" />
<path d="M 536.209, 4.676 
	L 536.209, 4.677 
	L 536.209, 0.000 
" />
<path d="M 540.816, 4.676 
	L 540.815, 4.677 
	L 540.815, 0.000 
" />
<path d="M 545.422, 4.676 
	L 545.421, 4.677 
	L 545.421, 0.000 
" />
<path d="M 550.028, 4.676 
	L 550.028, 4.677 
	L 550.028, 0.000 
" />
<path d="M 554.635, 4.676 
	L 554.634, 4.677 
	L 554.634, 0.000 
" />
<path d="M 559.241, 4.676 
	L 559.240, 4.677 
	L 559.240, 0.000 
" />
<path d="M 563.847, 4.676 
	L 563.847, 4.677 
	L 563.847, 0.000 
" />
<path d="M 568.454, 4.676 
	L 568.453, 4.677 
	L 568.453, 0.000 
" />
<path d="M 573.060, 4.676 
	L 573.059, 4.677 
	L 573.059, 0.000 
" />
<path d="M 577.666, 4.676 
	L 577.665, 4.677 
	L 577.665, 0.000 
" />
<path d="M 582.272, 4.676 
	L 582.272, 4.677 
	L 582.272, 0.000 
" />
<path d="M 586.879, 4.676 
	L 586.878, 4.677 
	L 586.878, 0.000 
" />
<path d="M 591.485, 4.676 
	L 591.484, 4.677 
	L 591.484, 0.000 
" />
<path d="M 596.091, 4.676 
	L 596.091, 4.677 
	L 596.091, 0.000 
" />
<path d="M 600.698, 4.676 
	L 600.697, 4.677 
	L 600.697, 0.000 
" />
<path d="M 605.304, 4.676 
	L 605.303, 4.677 
	L 605.303, 0.000 
" />
<path d="M 609.910, 4.676 
	L 609.910, 4.677 
	L 609.910, 0.000 
" />
<path d="M 614.517, 4.676 
	L 614.516, 4.677 
	L 614.516, 0.000 
" />
<path d="M 619.123, 4.676 
	L 619.122, 4.677 
	L 619.122, 0.000 
" />
<path d="M 623.729, 4.676 
	L 623.728, 4.677 
	L 623.728, 0.000 
" />
<path d="M 628.335, 4.676 
	L 628.335, 4.677 
	L 628.335, 0.000 
" />
<path d="M 632.942, 4.676 
	L 632.941, 4.677 
	L 632.941, 0.000 
" />
<path d="M 637.548, 4.676 
	L 637.547, 4.677 
	L 637.547, 0.000 
" />
<path d="M 642.154, 4.676 
	L 642.154, 4.677 
	L 642.154, 0.000 
" />
<path d="M 646.761, 4.676 
	L 646.760, 4.677 
	L 646.760, 0.000 
" />
<path d="M 651.367, 4.676 
	L 651.366, 4.677 
	L 651.366, 0.000 
" />
<path d="M 655.973, 4.676 
	L 655.973, 4.677 
	L 655.973, 0.000 
" />
<path d="M 660.580, 4.676 
	L 660.579, 4.677 
	L 660.579, 0.000 
" />
<path d="M 665.186, 4.676 
	L 665.185, 4.677 
	L 665.185, 0.000 
" />
<path d="M 669.792, 4.676 
	L 669.791, 4.677 
	L 669.791, 0.000 
" />
<path d="M 674.398, 4.676 
	L 674.398, 4.677 
	L 674.398, 0.000 
" />
<path d="M 679.005, 4.676 
	L 679.004, 4.677 
	L 679.004, 0.000 
" />
<path d="M 683.611, 4.676 
	L 683.610, 4.677 
	L 683.610, 0.000 
" />
<path d="M 688.217, 4.676 
	L 688.217, 4.677 
	L 688.217, 0.000 
" />
<path d="M 692.824, 4.676 
	L 692.823, 4.677 
	L 692.823, 0.000 
" />
<path d="M 697.430, 4.676 
	L 697.429, 4.677 
	L 697.429, 0.000 
" />
<path d="M 702.036, 4.676 
	L 702.036, 4.677 
	L 702.036, 0.000 
" />
<path d="M 107.788, 708.661 
	L 107.787, 708.662 
	L 107.787, 4.677 
	L 708.662, 4.677 
	L 708.662, 708.662 
	L 107.787, 708.662 
" />
<path d="M 107.824, 708.661 
	L 107.823, 708.662 
	L 107.823, 4.677 
" />
<path d="M 112.430, 708.661 
	L 112.429, 708.662 
	L 112.429, 4.677 
" />
<path d="M 117.036, 708.661 
	L 117.035, 708.662 
	L 117.035, 4.677 
" />
<path d="M 121.642, 708.661 
	L 121.642, 708.662 
	L 121.642, 4.677 
" />
<path d="M 126.249, 708.661 
	L 126.248, 708.662 
	L 126.248, 4.677 
" />
<path d="M 130.855, 708.661 
	L 130.854, 708.662 
	L 130.854, 4.677 
" />
<path d="M 135.461, 708.661 
	L 135.461, 708.662 
	L 135.461, 4.677 
" />
<path d="M 140.068, 708.661 
	L 140.067, 708.662 
	L 140.067, 4.677 
" />
<path d="M 144.674, 708.661 
	L 144.673, 708.662 
	L 144.673, 4.677 
" />
<path d="M 149.280, 708.661 
	L 149.280, 708.662 
	L 149.280, 4.677 
" />
<path d="M 153.887, 708.661 
	L 153.886, 708.662 
	L 153.886, 4.677 
" />
<path d="M 158.493, 708.661 
	L 158.492, 708.662 
	L 158.492, 4.677 
" />
<path d="M 163.099, 708.661 
	L 163.098, 708.662 
	L 163.098, 4.677 
" />
<path d="M 167.705, 708.661 
	L 167.705, 708.662 
	L 167.705, 4.677 
" />
<path d="M 172.312, 708.661 
	L 172.311, 708.662 
	L 172.311, 4.677 
" />
<path d="M 176.918, 708.661 
	L 176.917, 708.662 
	L 176.917, 4.677 
" />
<path d="M 181.524, 708.661 
	L 181.524, 708.662 
	L 181.524, 4.677 
" />
<path d="M 186.131, 708.661 
	L 186.130, 708.662 
	L 186.130, 4.677 
" />
<path d="M 190.737, 708.661 
	L 190.736, 708.662 
	L 190.736, 4.677 
" />
<path d="M 195.343, 708.661 
	L 195.343, 708.662 
	L 195.343, 4.677 
" />
<path d="M 199.950, 708.661 
	L 199.949, 708.662 
	L 199.949, 4.677 
" />
<path d="M 204.556, 708.661 
	L 204.555, 708.662 
	L 204.555, 4.677 
" />
<path d="M 209.162, 708.661 
	L 209.161, 708.662 
	L 209.161, 4.677 
" />
<path d="M 213.768, 708.661 
	L 213.768, 708.662 
	L 213.768, 4.677 
" />
<path d="M 218.375, 708.661 
	L 218.374, 708.662 
	L 218.374, 4.677 
" />
<path d="M 222.981, 708.661 
	L 222.980, 708.662 
	L 222.980, 4.677 
" />
<path d="M 227.587, 708.661 
	L 227.587, 708.662 
	L 227.587, 4.677 
" />
<path d="M 232.194, 708.661 
	L 232.193, 708.662 
	L 232.193, 4.677 
" />
<path d="M 236.800, 708.661 
	L 236.799, 708.662 
	L 236.799, 4.677 
" />
<path d="M 241.406, 708.661 
	L 241.406, 708.662 
	L 241.406, 4.677 
" />
<path d="M 246.013, 708.661 
	L 246.012, 708.662 
	L 246.012, 4.677 
" />
<path d="M 250.619, 708.661 
	L 250.618, 708.662 
	L 250.618, 4.677 
" />
<path d="M 255.225, 708.661 
	L 255.224, 708.662 
	L 255.224, 4.677 
" />
<path d="M 259.831, 708.661 
	L 259.831, 708.662 
	L 259.831, 4.677 
" />
<path d="M 264.438, 708.661 
	L 264.437, 708.662 
	L 264.437, 4.677 
" />
<path d="M 269.044, 708.661 
	L 269.043, 708.662 
	L 269.043, 4.677 
" />
<path d="M 273.650, 708.661 
	L 273.650, 708.662 
	L 273.650, 4.677 
" />
<path d="M 278.257, 708.661 
	L 278.256, 708.662 
	L 278.256, 4.677 
" />
<path d="M 282.863, 708.661 
	L 282.862, 708.662 
	L 282.862, 4.677 
" />
<path d="M 287.469, 708.661 
	L 287.469, 708.662 
	L 287.469, 4.677 
" />
<path d="M 292.076, 708.661 
	L 292.075, 708.662 
	L 292.075, 4.677 
" />
<path d="M 296.682, 708.661 
	L 296.681, 708.662 
	L 296.681, 4.677 
" />
<path d="M 301.288, 708.661 
	L 301.287, 708.662 
	L 301.287, 4.677 
" />
<path d="M 305.894, 708.661 
	L 305.894, 708.662 
	L 305.894, 4.677 
" />
<path d="M 310.501, 708.661 
	L 310.500, 708.662 
	L 310.500, 4.677 
" />
<path d="M 315.107, 708.661 
	L 315.106, 708.662 
	L 315.106, 4.677 
" />
<path d="M 319.713, 708.661 
	L 319.713, 708.662 
	L 319.713, 4.677 
" />
<path d="M 324.320, 708.661 
	L 324.319, 708.662 
	L 324.319, 4.677 
" />
<path d="M 328.926, 708.661 
	L 328.925, 708.662 
	L 328.925, 4.677 
" />
<path d="M 333.532, 708.661 
	L 333.532, 708.662 
	L 333.532, 4.677 
" />
<path d="M 338.139, 708.661 
	L 338.138, 708.662 
	L 338.138, 4.677 
" />
<path d="M 342.745, 708.661 
	L 342.744, 708.662 
	L 342.744, 4.677 
" />
<path d="M 347.351, 708.661 
	L 347.350, 708.662 
	L 347.350, 4.677 
" />
<path d="M 351.957, 708.661 
	L 351.957, 708.662 
	L 351.957, 4.677 
" />
<path d="M 356.564, 708.661 
	L 356.563, 708.662 
	L 356.563, 4.677 
" />
<path d="M 361.170, 708.661 
	L 361.169, 708.662 
	L 361.169, 4.677 
" />
<path d="M 365.776, 708.661 
	L 365.776, 708.662 
	L 365.776, 4.677 
" />
<path d="M 370.383, 708.661 
	L 370.382, 708.662 
	L 370.382, 4.677 
" />
<path d="M 374.989, 708.661 
	L 374.988, 708.662 
	L 374.988, 4.677 
" />
<path d="M 379.595, 708.661 
	L 379.595, 708.662 
	L 379.595, 4.677 
" />
<path d="M 384.202, 708.661 
	L 384.201, 708.662 
	L 384.201, 4.677 
" />
<path d="M 388.808, 708.661 
	L 388.807, 708.662 
	L 388.807, 4.677 
" />
<path d="M 393.414, 708.661 
	L 393.413, 708.662 
	L 393.413, 4.677 
" />
<path d="M 398.020, 708.661 
	L 398.020, 708.662 
	L 398.020, 4.677 
" />
<path d="M 402.627, 708.661 
	L 402.626, 708.662 
	L 402.626, 4.677 
" />
<path d="M 407.233, 708.661 
	L 407.232, 708.662 
	L 407.232, 4.677 
" />
<path d="M 411.839, 708.661 
	L 411.839, 708.662 
	L 411.839, 4.677 
" />
<path d="M 416.446, 708.661 
	L 416.445, 708.662 
	L 416.445, 4.677 
" />
<path d="M 421.052, 708.661 
	L 421.051, 708.662 
	L 421.051, 4.677 
" />
<path d="M 425.658, 708.661 
	L 425.658, 708.662 
	L 425.658, 4.677 
" />
<path d="M 430.265, 708.661 
	L 430.264, 708.662 
	L 430.264, 4.677 
" />
<path d="M 434.871, 708.661 
	L 434.870, 708.662 
	L 434.870, 4.677 
" />
<path d="M 439.477, 708.661 
	L 439.476, 708.662 
	L 439.476, 4.677 
" />
<path d="M 444.083, 708.661 
	L 444.083, 708.662 
	L 444.083, 4.677 
" />
<path d="M 448.690, 708.661 
	L 448.689, 708.662 
	L 448.689, 4.677 
" />
<path d="M 453.296, 708.661 
	L 453.295, 708.662 
	L 453.295, 4.677 
" />
<path d="M 457.902, 708.661 
	L 457.902, 708.662 
	L 457.902, 4.677 
" />
<path d="M 462.509, 708.661 
	L 462.508, 708.662 
	L 462.508, 4.677 
" />
<path d="M 467.115, 708.661 
	L 467.114, 708.662 
	L 467.114, 4.677 
" />
<path d="M 471.721, 708.661 
	L 471.721, 708.662 
	L 471.721, 4.677 
" />
<path d="M 476.328, 708.661 
	L 476.327, 708.662 
	L 476.327, 4.677 
" />
<path d="M 480.934, 708.661 
	L 480.933, 708.662 
	L 480.933, 4.677 
" />
<path d="M 485.540, 708.661 
	L 485.539, 708.662 
	L 485.539, 4.677 
" />
<path d="M 490.146, 708.661 
	L 490.146, 708.662 
	L 490.146, 4.677 
" />
<path d="M 494.753, 708.661 
	L 494.752, 708.662 
	L 494.752, 4.677 
" />
<path d="M 499.359, 708.661 
	L 499.358, 708.662 
	L 499.358, 4.677 
" />
<path d="M 503.965, 708.661 
	L 503.965, 708.662 
	L 503.965, 4.677 
" />
<path d="M 508.572, 708.661 
	L 508.571, 708.662 
	L 508.571, 4.677 
" />
<path d="M 513.178, 708.661 
	L 513.177, 708.662 
	L 513.177, 4.677 
" />
<path d="M 517.784, 708.661 
	L 517.784, 708.662 
	L 517.784, 4.677 
" />
<path d="M 522.391, 708.661 
	L 522.390, 708.662 
	L 522.390, 4.677 
" />
<path d="M 526.997, 708.661 
	L 526.996, 708.662 
	L 526.996, 4.677 
" />
<path d="M 531.603, 708.661 
	L 531.602, 708.662 
	L 531.602, 4.677 
" />
<path d="M 536.209, 708.661 
	L 536.209, 708.662 
	L 536.209, 4.677 
" />
<path d="M 540.816, 708.661 
	L 540.815, 708.662 
	L 540.815, 4.677 
" />
<path d="M 545.422, 708.661 
	L 545.421, 708.662 
	L 545.421, 4.677 
" />
<path d="M 550.028, 708.661 
	L 550.028, 708.662 
	L 550.028, 4.677 
" />
<path d="M 554.635, 708.661 
	L 554.634, 708.662 
	L 554.634, 4.677 
" />
<path d="M 559.241, 708.661 
	L 559.240, 708.662 
	L 559.240, 4.677 
" />
<path d="M 563.847, 708.661 
	L 563.847, 708.662 
	L 563.847, 4.677 
" />
<path d="M 568.454, 708.661 
	L 568.453, 708.662 
	L 568.453, 4.677 
" />
<path d="M 573.060, 708.661 
	L 573.059, 708.662 
	L 573.059, 4.677 
" />
<path d="M 577.666, 708.661 
	L 577.665, 708.662 
	L 577.665, 4.677 
" />
<path d="M 582.272, 708.661 
	L 582.272, 708.662 
	L 582.272, 4.677 
" />
<path d="M 586.879, 708.661 
	L 586.878, 708.662 
	L 586.878, 4.677 
" />
<path d="M 591.485, 708.661 
	L 591.484, 708.662 
	L 591.484, 4.677 
" />
<path d="M 596.091, 708.661 
	L 596.091, 708.662 
	L 596.091, 4.677 
" />
<path d="M 600.698, 708.661 
	L 600.697, 708.662 
	L 600.697, 4.677 
" />
<path d="M 605.304, 708.661 
	L 605.303, 708.662 
	L 605.303, 4.677 
" />
<path d="M 609.910, 708.661 
	L 609.910, 708.662 
	L 609.910, 4.677 
" />
<path d="M 614.517, 708.661 
	L 614.516, 708.662 
	L 614.516, 4.677 
" />
<path d="M 619.123, 708.661 
	L 619.122, 708.662 
	L 619.122, 4.677 
" />
<path d="M 623.729, 708.661 
	L 623.728, 708.662 
	L 623.728, 4.677 
" />
<path d="M 628.335, 708.661 
	L 628.335, 708.662 
	L 628.335, 4.677 
" />
<path d="M 632.942, 708.661 
	L 632.941, 708.662 
	L 632.941, 4.677 
" />
<path d="M 637.548, 708.661 
	L 637.547, 708.662 
	L 637.547, 4.677 
" />
<path d="M 642.154, 708.661 
	L 642.154, 708.662 
	L 642.154, 4.677 
" />
<path d="M 646.761, 708.661 
	L 646.760, 708.662 
	L 646.760, 4.677 
" />
<path d="M 651.367, 708.661 
	L 651.366, 708.662 
	L 651.366, 4.677 
" />
<path d="M 655.973, 708.661 
	L 655.973, 708.662 
	L 655.973, 4.677 
" />
<path d="M 660.580, 708.661 
	L 660.579, 708.662 
	L 660.579, 4.677 
" />
<path d="M 665.186, 708.661 
	L 665.185, 708.662 
	L 665.185, 4.677 
" />
<path d="M 669.792, 708.661 
	L 669.791, 708.662 
	L 669.791, 4.677 
" />
<path d="M 674.398, 708.661 
	L 674.398, 708.662 
	L 674.398, 4.677 
" />
<path d="M 679.005, 708.661 
	L 679.004, 708.662 
	L 679.004, 4.677 
" />
<path d="M 683.611, 708.661 
	L 683.610, 708.662 
	L 683.610, 4.677 
" />
<path d="M 688.217, 708.661 
	L 688.217, 708.662 
	L 688.217, 4.677 
" />
<path d="M 692.824, 708.661 
	L 692.823, 708.662 
	L 692.823, 4.677 
" />
<path d="M 697.430, 708.661 
	L 697.429, 708.662 
	L 697.429, 4.677 
" />
<path d="M 702.036, 708.661 
	L 702.036, 708.662 
	L 702.036, 4.677 
" />
</g>
</svg>
