<?xml version="1.0" encoding="UTF-8" standalone="no" ?>
<svg width="100%" height="100%" viewBox="0 0 711.000 1270.595" xmlns="http://www.w3.org/2000/svg"><g>
</g><g style="stroke:rgb(0,0,0); fill:none; stroke-width:1.000mm" >
</g><g style="stroke:rgb(0,255,0); fill:none; stroke-width:0.100mm" >
<path d="M 0.036, 1270.594 
	L 0.035, 1270.595 
	L 0.035, 561.933 
	L 708.697, 561.933 
	L 708.697, 1270.595 
	L 0.035, 1270.595 
" />
</g><g style="stroke:rgb(0,0,0); fill:none; stroke-width:0.100mm" >
<path d="M 7.158, 1270.594 
	L 7.157, 1270.595 
	L 7.157, 1254.295 
	L 478.063, 1254.295 
	L 478.063, 1270.595 
	L 7.157, 1270.595 
" />
<path d="M 7.194, 1270.594 
	L 7.193, 1270.595 
	L 7.193, 1254.295 
" />
<path d="M 11.800, 1270.594 
	L 11.799, 1270.595 
	L 11.799, 1254.295 
" />
<path d="M 16.406, 1270.594 
	L 16.406, 1270.595 
	L 16.406, 1254.295 
" />
<path d="M 21.013, 1270.594 
	L 21.012, 1270.595 
	L 21.012, 1254.295 
" />
<path d="M 25.619, 1270.594 
	L 25.618, 1270.595 
	L 25.618, 1254.295 
" />
<path d="M 30.225, 1270.594 
	L 30.224, 1270.595 
	L 30.224, 1254.295 
" />
<path d="M 34.831, 1270.594 
	L 34.831, 1270.595 
	L 34.831, 1254.295 
" />
<path d="M 39.438, 1270.594 
	L 39.437, 1270.595 
	L 39.437, 1254.295 
" />
<path d="M 44.044, 1270.594 
	L 44.043, 1270.595 
	L 44.043, 1254.295 
" />
<path d="M 48.650, 1270.594 
	L 48.650, 1270.595 
	L 48.650, 1254.295 
" />
<path d="M 53.257, 1270.594 
	L 53.256, 1270.595 
	L 53.256, 1254.295 
" />
<path d="M 57.863, 1270.594 
	L 57.862, 1270.595 
	L 57.862, 1254.295 
" />
<path d="M 62.469, 1270.594 
	L 62.469, 1270.595 
	L 62.469, 1254.295 
" />
<path d="M 67.076, 1270.594 
	L 67.075, 1270.595 
	L 67.075, 1254.295 
" />
<path d="M 71.682, 1270.594 
	L 71.681, 1270.595 
	L 71.681, 1254.295 
" />
<path d="M 76.288, 1270.594 
	L 76.287, 1270.595 
	L 76.287, 1254.295 
" />
<path d="M 80.894, 1270.594 
	L 80.894, 1270.595 
	L 80.894, 1254.295 
" />
<path d="M 85.501, 1270.594 
	L 85.500, 1270.595 
	L 85.500, 1254.295 
" />
<path d="M 90.107, 1270.594 
	L 90.106, 1270.595 
	L 90.106, 1254.295 
" />
<path d="M 94.713, 1270.594 
	L 94.713, 1270.595 
	L 94.713, 1254.295 
" />
<path d="M 99.320, 1270.594 
	L 99.319, 1270.595 
	L 99.319, 1254.295 
" />
<path d="M 103.926, 1270.594 
	L 103.925, 1270.595 
	L 103.925, 1254.295 
" />
<path d="M 108.532, 1270.594 
	L 108.532, 1270.595 
	L 108.532, 1254.295 
" />
<path d="M 113.139, 1270.594 
	L 113.138, 1270.595 
	L 113.138, 1254.295 
" />
<path d="M 117.745, 1270.594 
	L 117.744, 1270.595 
	L 117.744, 1254.295 
" />
<path d="M 122.351, 1270.594 
	L 122.350, 1270.595 
	L 122.350, 1254.295 
" />
<path d="M 126.957, 1270.594 
	L 126.957, 1270.595 
	L 126.957, 1254.295 
" />
<path d="M 131.564, 1270.594 
	L 131.563, 1270.595 
	L 131.563, 1254.295 
" />
<path d="M 136.170, 1270.594 
	L 136.169, 1270.595 
	L 136.169, 1254.295 
" />
<path d="M 140.776, 1270.594 
	L 140.776, 1270.595 
	L 140.776, 1254.295 
" />
<path d="M 145.383, 1270.594 
	L 145.382, 1270.595 
	L 145.382, 1254.295 
" />
<path d="M 149.989, 1270.594 
	L 149.988, 1270.595 
	L 149.988, 1254.295 
" />
<path d="M 154.595, 1270.594 
	L 154.595, 1270.595 
	L 154.595, 1254.295 
" />
<path d="M 159.202, 1270.594 
	L 159.201, 1270.595 
	L 159.201, 1254.295 
" />
<path d="M 163.808, 1270.594 
	L 163.807, 1270.595 
	L 163.807, 1254.295 
" />
<path d="M 168.414, 1270.594 
	L 168.413, 1270.595 
	L 168.413, 1254.295 
" />
<path d="M 173.020, 1270.594 
	L 173.020, 1270.595 
	L 173.020, 1254.295 
" />
<path d="M 177.627, 1270.594 
	L 177.626, 1270.595 
	L 177.626, 1254.295 
" />
<path d="M 182.233, 1270.594 
	L 182.232, 1270.595 
	L 182.232, 1254.295 
" />
<path d="M 186.839, 1270.594 
	L 186.839, 1270.595 
	L 186.839, 1254.295 
" />
<path d="M 191.446, 1270.594 
	L 191.445, 1270.595 
	L 191.445, 1254.295 
" />
<path d="M 196.052, 1270.594 
	L 196.051, 1270.595 
	L 196.051, 1254.295 
" />
<path d="M 200.658, 1270.594 
	L 200.658, 1270.595 
	L 200.658, 1254.295 
" />
<path d="M 205.265, 1270.594 
	L 205.264, 1270.595 
	L 205.264, 1254.295 
" />
<path d="M 209.871, 1270.594 
	L 209.870, 1270.595 
	L 209.870, 1254.295 
" />
<path d="M 214.477, 1270.594 
	L 214.476, 1270.595 
	L 214.476, 1254.295 
" />
<path d="M 219.083, 1270.594 
	L 219.083, 1270.595 
	L 219.083, 1254.295 
" />
<path d="M 223.690, 1270.594 
	L 223.689, 1270.595 
	L 223.689, 1254.295 
" />
<path d="M 228.296, 1270.594 
	L 228.295, 1270.595 
	L 228.295, 1254.295 
" />
<path d="M 232.902, 1270.594 
	L 232.902, 1270.595 
	L 232.902, 1254.295 
" />
<path d="M 237.509, 1270.594 
	L 237.508, 1270.595 
	L 237.508, 1254.295 
" />
<path d="M 242.115, 1270.594 
	L 242.114, 1270.595 
	L 242.114, 1254.295 
" />
<path d="M 246.721, 1270.594 
	L 246.721, 1270.595 
	L 246.721, 1254.295 
" />
<path d="M 251.328, 1270.594 
	L 251.327, 1270.595 
	L 251.327, 1254.295 
" />
<path d="M 255.934, 1270.594 
	L 255.933, 1270.595 
	L 255.933, 1254.295 
" />
<path d="M 260.540, 1270.594 
	L 260.539, 1270.595 
	L 260.539, 1254.295 
" />
<path d="M 265.146, 1270.594 
	L 265.146, 1270.595 
	L 265.146, 1254.295 
" />
<path d="M 269.753, 1270.594 
	L 269.752, 1270.595 
	L 269.752, 1254.295 
" />
<path d="M 274.359, 1270.594 
	L 274.358, 1270.595 
	L 274.358, 1254.295 
" />
<path d="M 278.965, 1270.594 
	L 278.965, 1270.595 
	L 278.965, 1254.295 
" />
<path d="M 283.572, 1270.594 
	L 283.571, 1270.595 
	L 283.571, 1254.295 
" />
<path d="M 288.178, 1270.594 
	L 288.177, 1270.595 
	L 288.177, 1254.295 
" />
<path d="M 292.784, 1270.594 
	L 292.784, 1270.595 
	L 292.784, 1254.295 
" />
<path d="M 297.391, 1270.594 
	L 297.390, 1270.595 
	L 297.390, 1254.295 
" />
<path d="M 301.997, 1270.594 
	L 301.996, 1270.595 
	L 301.996, 1254.295 
" />
<path d="M 306.603, 1270.594 
	L 306.602, 1270.595 
	L 306.602, 1254.295 
" />
<path d="M 311.209, 1270.594 
	L 311.209, 1270.595 
	L 311.209, 1254.295 
" />
<path d="M 315.816, 1270.594 
	L 315.815, 1270.595 
	L 315.815, 1254.295 
" />
<path d="M 320.422, 1270.594 
	L 320.421, 1270.595 
	L 320.421, 1254.295 
" />
<path d="M 325.028, 1270.594 
	L 325.028, 1270.595 
	L 325.028, 1254.295 
" />
<path d="M 329.635, 1270.594 
	L 329.634, 1270.595 
	L 329.634, 1254.295 
" />
<path d="M 334.241, 1270.594 
	L 334.240, 1270.595 
	L 334.240, 1254.295 
" />
<path d="M 338.847, 1270.594 
	L 338.847, 1270.595 
	L 338.847, 1254.295 
" />
<path d="M 343.454, 1270.594 
	L 343.453, 1270.595 
	L 343.453, 1254.295 
" />
<path d="M 348.060, 1270.594 
	L 348.059, 1270.595 
	L 348.059, 1254.295 
" />
<path d="M 352.666, 1270.594 
	L 352.665, 1270.595 
	L 352.665, 1254.295 
" />
<path d="M 357.272, 1270.594 
	L 357.272, 1270.595 
	L 357.272, 1254.295 
" />
<path d="M 361.879, 1270.594 
	L 361.878, 1270.595 
	L 361.878, 1254.295 
" />
<path d="M 366.485, 1270.594 
	L 366.484, 1270.595 
	L 366.484, 1254.295 
" />
<path d="M 371.091, 1270.594 
	L 371.091, 1270.595 
	L 371.091, 1254.295 
" />
<path d="M 375.698, 1270.594 
	L 375.697, 1270.595 
	L 375.697, 1254.295 
" />
<path d="M 380.304, 1270.594 
	L 380.303, 1270.595 
	L 380.303, 1254.295 
" />
<path d="M 384.910, 1270.594 
	L 384.910, 1270.595 
	L 384.910, 1254.295 
" />
<path d="M 389.517, 1270.594 
	L 389.516, 1270.595 
	L 389.516, 1254.295 
" />
<path d="M 394.123, 1270.594 
	L 394.122, 1270.595 
	L 394.122, 1254.295 
" />
<path d="M 398.729, 1270.594 
	L 398.728, 1270.595 
	L 398.728, 1254.295 
" />
<path d="M 403.335, 1270.594 
	L 403.335, 1270.595 
	L 403.335, 1254.295 
" />
<path d="M 407.942, 1270.594 
	L 407.941, 1270.595 
	L 407.941, 1254.295 
" />
<path d="M 412.548, 1270.594 
	L 412.547, 1270.595 
	L 412.547, 1254.295 
" />
<path d="M 417.154, 1270.594 
	L 417.154, 1270.595 
	L 417.154, 1254.295 
" />
<path d="M 421.761, 1270.594 
	L 421.760, 1270.595 
	L 421.760, 1254.295 
" />
<path d="M 426.367, 1270.594 
	L 426.366, 1270.595 
	L 426.366, 1254.295 
" />
<path d="M 430.973, 1270.594 
	L 430.973, 1270.595 
	L 430.973, 1254.295 
" />
<path d="M 435.579, 1270.594 
	L 435.579, 1270.595 
	L 435.579, 1254.295 
" />
<path d="M 440.186, 1270.594 
	L 440.185, 1270.595 
	L 440.185, 1254.295 
" />
<path d="M 444.792, 1270.594 
	L 444.791, 1270.595 
	L 444.791, 1254.295 
" />
<path d="M 449.398, 1270.594 
	L 449.398, 1270.595 
	L 449.398, 1254.295 
" />
<path d="M 454.005, 1270.594 
	L 454.004, 1270.595 
	L 454.004, 1254.295 
" />
<path d="M 458.611, 1270.594 
	L 458.610, 1270.595 
	L 458.610, 1254.295 
" />
<path d="M 463.217, 1270.594 
	L 463.217, 1270.595 
	L 463.217, 1254.295 
" />
<path d="M 467.824, 1270.594 
	L 467.823, 1270.595 
	L 467.823, 1254.295 
" />
<path d="M 472.430, 1270.594 
	L 472.429, 1270.595 
	L 472.429, 1254.295 
" />
</g><g style="stroke:rgb(255,0,0); fill:none; stroke-width:0.100mm" >
<path d="M 7.158, 1237.996 
	L 7.157, 1237.996 
	L 7.157, 917.540 
	L 478.063, 917.540 
	L 478.063, 1237.996 
	L 7.157, 1237.996 
" />
<path d="M 7.194, 1237.996 
	L 7.193, 1237.996 
	L 7.193, 917.540 
" />
<path d="M 11.800, 1237.996 
	L 11.799, 1237.996 
	L 11.799, 917.540 
" />
<path d="M 16.406, 1237.996 
	L 16.406, 1237.996 
	L 16.406, 917.540 
" />
<path d="M 21.013, 1237.996 
	L 21.012, 1237.996 
	L 21.012, 917.540 
" />
<path d="M 25.619, 1237.996 
	L 25.618, 1237.996 
	L 25.618, 917.540 
" />
<path d="M 30.225, 1237.996 
	L 30.224, 1237.996 
	L 30.224, 917.540 
" />
<path d="M 34.831, 1237.996 
	L 34.831, 1237.996 
	L 34.831, 917.540 
" />
<path d="M 39.438, 1237.996 
	L 39.437, 1237.996 
	L 39.437, 917.540 
" />
<path d="M 44.044, 1237.996 
	L 44.043, 1237.996 
	L 44.043, 917.540 
" />
<path d="M 48.650, 1237.996 
	L 48.650, 1237.996 
	L 48.650, 917.540 
" />
<path d="M 53.257, 1237.996 
	L 53.256, 1237.996 
	L 53.256, 917.540 
" />
<path d="M 57.863, 1237.996 
	L 57.862, 1237.996 
	L 57.862, 917.540 
" />
<path d="M 62.469, 1237.996 
	L 62.469, 1237.996 
	L 62.469, 917.540 
" />
<path d="M 67.076, 1237.996 
	L 67.075, 1237.996 
	L 67.075, 917.540 
" />
<path d="M 71.682, 1237.996 
	L 71.681, 1237.996 
	L 71.681, 917.540 
" />
<path d="M 76.288, 1237.996 
	L 76.287, 1237.996 
	L 76.287, 917.540 
" />
<path d="M 80.894, 1237.996 
	L 80.894, 1237.996 
	L 80.894, 917.540 
" />
<path d="M 85.501, 1237.996 
	L 85.500, 1237.996 
	L 85.500, 917.540 
" />
<path d="M 90.107, 1237.996 
	L 90.106, 1237.996 
	L 90.106, 917.540 
" />
<path d="M 94.713, 1237.996 
	L 94.713, 1237.996 
	L 94.713, 917.540 
" />
<path d="M 99.320, 1237.996 
	L 99.319, 1237.996 
	L 99.319, 917.540 
" />
<path d="M 103.926, 1237.996 
	L 103.925, 1237.996 
	L 103.925, 917.540 
" />
<path d="M 108.532, 1237.996 
	L 108.532, 1237.996 
	L 108.532, 917.540 
" />
<path d="M 113.139, 1237.996 
	L 113.138, 1237.996 
	L 113.138, 917.540 
" />
<path d="M 117.745, 1237.996 
	L 117.744, 1237.996 
	L 117.744, 917.540 
" />
<path d="M 122.351, 1237.996 
	L 122.350, 1237.996 
	L 122.350, 917.540 
" />
<path d="M 126.957, 1237.996 
	L 126.957, 1237.996 
	L 126.957, 917.540 
" />
<path d="M 131.564, 1237.996 
	L 131.563, 1237.996 
	L 131.563, 917.540 
" />
<path d="M 136.170, 1237.996 
	L 136.169, 1237.996 
	L 136.169, 917.540 
" />
<path d="M 140.776, 1237.996 
	L 140.776, 1237.996 
	L 140.776, 917.540 
" />
<path d="M 145.383, 1237.996 
	L 145.382, 1237.996 
	L 145.382, 917.540 
" />
<path d="M 149.989, 1237.996 
	L 149.988, 1237.996 
	L 149.988, 917.540 
" />
<path d="M 154.595, 1237.996 
	L 154.595, 1237.996 
	L 154.595, 917.540 
" />
<path d="M 159.202, 1237.996 
	L 159.201, 1237.996 
	L 159.201, 917.540 
" />
<path d="M 163.808, 1237.996 
	L 163.807, 1237.996 
	L 163.807, 917.540 
" />
<path d="M 168.414, 1237.996 
	L 168.413, 1237.996 
	L 168.413, 917.540 
" />
<path d="M 173.020, 1237.996 
	L 173.020, 1237.996 
	L 173.020, 917.540 
" />
<path d="M 177.627, 1237.996 
	L 177.626, 1237.996 
	L 177.626, 917.540 
" />
<path d="M 182.233, 1237.996 
	L 182.232, 1237.996 
	L 182.232, 917.540 
" />
<path d="M 186.839, 1237.996 
	L 186.839, 1237.996 
	L 186.839, 917.540 
" />
<path d="M 191.446, 1237.996 
	L 191.445, 1237.996 
	L 191.445, 917.540 
" />
<path d="M 196.052, 1237.996 
	L 196.051, 1237.996 
	L 196.051, 917.540 
" />
<path d="M 200.658, 1237.996 
	L 200.658, 1237.996 
	L 200.658, 917.540 
" />
<path d="M 205.265, 1237.996 
	L 205.264, 1237.996 
	L 205.264, 917.540 
" />
<path d="M 209.871, 1237.996 
	L 209.870, 1237.996 
	L 209.870, 917.540 
" />
<path d="M 214.477, 1237.996 
	L 214.476, 1237.996 
	L 214.476, 917.540 
" />
<path d="M 219.083, 1237.996 
	L 219.083, 1237.996 
	L 219.083, 917.540 
" />
<path d="M 223.690, 1237.996 
	L 223.689, 1237.996 
	L 223.689, 917.540 
" />
<path d="M 228.296, 1237.996 
	L 228.295, 1237.996 
	L 228.295, 917.540 
" />
<path d="M 232.902, 1237.996 
	L 232.902, 1237.996 
	L 232.902, 917.540 
" />
<path d="M 237.509, 1237.996 
	L 237.508, 1237.996 
	L 237.508, 917.540 
" />
<path d="M 242.115, 1237.996 
	L 242.114, 1237.996 
	L 242.114, 917.540 
" />
<path d="M 246.721, 1237.996 
	L 246.721, 1237.996 
	L 246.721, 917.540 
" />
<path d="M 251.328, 1237.996 
	L 251.327, 1237.996 
	L 251.327, 917.540 
" />
<path d="M 255.934, 1237.996 
	L 255.933, 1237.996 
	L 255.933, 917.540 
" />
<path d="M 260.540, 1237.996 
	L 260.539, 1237.996 
	L 260.539, 917.540 
" />
<path d="M 265.146, 1237.996 
	L 265.146, 1237.996 
	L 265.146, 917.540 
" />
<path d="M 269.753, 1237.996 
	L 269.752, 1237.996 
	L 269.752, 917.540 
" />
<path d="M 274.359, 1237.996 
	L 274.358, 1237.996 
	L 274.358, 917.540 
" />
<path d="M 278.965, 1237.996 
	L 278.965, 1237.996 
	L 278.965, 917.540 
" />
<path d="M 283.572, 1237.996 
	L 283.571, 1237.996 
	L 283.571, 917.540 
" />
<path d="M 288.178, 1237.996 
	L 288.177, 1237.996 
	L 288.177, 917.540 
" />
<path d="M 292.784, 1237.996 
	L 292.784, 1237.996 
	L 292.784, 917.540 
" />
<path d="M 297.391, 1237.996 
	L 297.390, 1237.996 
	L 297.390, 917.540 
" />
<path d="M 301.997, 1237.996 
	L 301.996, 1237.996 
	L 301.996, 917.540 
" />
<path d="M 306.603, 1237.996 
	L 306.602, 1237.996 
	L 306.602, 917.540 
" />
<path d="M 311.209, 1237.996 
	L 311.209, 1237.996 
	L 311.209, 917.540 
" />
<path d="M 315.816, 1237.996 
	L 315.815, 1237.996 
	L 315.815, 917.540 
" />
<path d="M 320.422, 1237.996 
	L 320.421, 1237.996 
	L 320.421, 917.540 
" />
<path d="M 325.028, 1237.996 
	L 325.028, 1237.996 
	L 325.028, 917.540 
" />
<path d="M 329.635, 1237.996 
	L 329.634, 1237.996 
	L 329.634, 917.540 
" />
<path d="M 334.241, 1237.996 
	L 334.240, 1237.996 
	L 334.240, 917.540 
" />
<path d="M 338.847, 1237.996 
	L 338.847, 1237.996 
	L 338.847, 917.540 
" />
<path d="M 343.454, 1237.996 
	L 343.453, 1237.996 
	L 343.453, 917.540 
" />
<path d="M 348.060, 1237.996 
	L 348.059, 1237.996 
	L 348.059, 917.540 
" />
<path d="M 352.666, 1237.996 
	L 352.665, 1237.996 
	L 352.665, 917.540 
" />
<path d="M 357.272, 1237.996 
	L 357.272, 1237.996 
	L 357.272, 917.540 
" />
<path d="M 361.879, 1237.996 
	L 361.878, 1237.996 
	L 361.878, 917.540 
" />
<path d="M 366.485, 1237.996 
	L 366.484, 1237.996 
	L 366.484, 917.540 
" />
<path d="M 371.091, 1237.996 
	L 371.091, 1237.996 
	L 371.091, 917.540 
" />
<path d="M 375.698, 1237.996 
	L 375.697, 1237.996 
	L 375.697, 917.540 
" />
<path d="M 380.304, 1237.996 
	L 380.303, 1237.996 
	L 380.303, 917.540 
" />
<path d="M 384.910, 1237.996 
	L 384.910, 1237.996 
	L 384.910, 917.540 
" />
<path d="M 389.517, 1237.996 
	L 389.516, 1237.996 
	L 389.516, 917.540 
" />
<path d="M 394.123, 1237.996 
	L 394.122, 1237.996 
	L 394.122, 917.540 
" />
<path d="M 398.729, 1237.996 
	L 398.728, 1237.996 
	L 398.728, 917.540 
" />
<path d="M 403.335, 1237.996 
	L 403.335, 1237.996 
	L 403.335, 917.540 
" />
<path d="M 407.942, 1237.996 
	L 407.941, 1237.996 
	L 407.941, 917.540 
" />
<path d="M 412.548, 1237.996 
	L 412.547, 1237.996 
	L 412.547, 917.540 
" />
<path d="M 417.154, 1237.996 
	L 417.154, 1237.996 
	L 417.154, 917.540 
" />
<path d="M 421.761, 1237.996 
	L 421.760, 1237.996 
	L 421.760, 917.540 
" />
<path d="M 426.367, 1237.996 
	L 426.366, 1237.996 
	L 426.366, 917.540 
" />
<path d="M 430.973, 1237.996 
	L 430.973, 1237.996 
	L 430.973, 917.540 
" />
<path d="M 435.579, 1237.996 
	L 435.579, 1237.996 
	L 435.579, 917.540 
" />
<path d="M 440.186, 1237.996 
	L 440.185, 1237.996 
	L 440.185, 917.540 
" />
<path d="M 444.792, 1237.996 
	L 444.791, 1237.996 
	L 444.791, 917.540 
" />
<path d="M 449.398, 1237.996 
	L 449.398, 1237.996 
	L 449.398, 917.540 
" />
<path d="M 454.005, 1237.996 
	L 454.004, 1237.996 
	L 454.004, 917.540 
" />
<path d="M 458.611, 1237.996 
	L 458.610, 1237.996 
	L 458.610, 917.540 
" />
<path d="M 463.217, 1237.996 
	L 463.217, 1237.996 
	L 463.217, 917.540 
" />
<path d="M 467.824, 1237.996 
	L 467.823, 1237.996 
	L 467.823, 917.540 
" />
<path d="M 472.430, 1237.996 
	L 472.429, 1237.996 
	L 472.429, 917.540 
" />
</g><g style="stroke:rgb(0,255,0); fill:none; stroke-width:0.100mm" >
<path d="M 471.119, 1237.996 
	L 471.118, 1237.996 
	L 471.118, 917.540 
	L 489.756, 917.540 
	L 489.756, 1237.996 
	L 471.118, 1237.996 
" />
<path d="M 471.154, 1237.996 
	L 471.154, 1237.996 
	L 471.154, 917.540 
" />
<path d="M 475.690, 1237.996 
	L 475.689, 1237.996 
	L 475.689, 917.540 
" />
<path d="M 480.225, 1237.996 
	L 480.224, 1237.996 
	L 480.224, 917.540 
" />
<path d="M 484.761, 1237.996 
	L 484.760, 1237.996 
	L 484.760, 917.540 
" />
</g><g style="stroke:rgb(0,0,255); fill:none; stroke-width:0.100mm" >
<path d="M 471.119, 1270.594 
	L 471.118, 1270.595 
	L 471.118, 1254.295 
	L 489.756, 1254.295 
	L 489.756, 1270.595 
	L 471.118, 1270.595 
" />
<path d="M 471.154, 1270.594 
	L 471.154, 1270.595 
	L 471.154, 1254.295 
" />
<path d="M 475.690, 1270.594 
	L 475.689, 1270.595 
	L 475.689, 1254.295 
" />
<path d="M 480.225, 1270.594 
	L 480.224, 1270.595 
	L 480.224, 1254.295 
" />
<path d="M 484.761, 1270.594 
	L 484.760, 1270.595 
	L 484.760, 1254.295 
" />
</g><g style="stroke:rgb(0,255,255); fill:none; stroke-width:0.100mm" >
<path d="M 0.001, 597.118 
	L 0.000, 597.118 
	L 0.000, 371.976 
	L 3.047, 371.976 
	L 3.047, 597.118 
	L 0.000, 597.118 
" />
</g><g style="stroke:rgb(255,0,255); fill:none; stroke-width:0.100mm" >
<path d="M 0.001, 146.834 
	L 0.000, 146.835 
	L 0.000, 0.071 
	L 3.047, 0.071 
	L 3.047, 146.835 
	L 0.000, 146.835 
" />
</g><g style="stroke:rgb(255,255,0); fill:none; stroke-width:0.100mm" >
<path d="M 10.560, 146.834 
	L 10.559, 146.835 
	L 10.559, 0.071 
	L 497.055, 0.071 
	L 497.055, 146.835 
	L 10.559, 146.835 
" />
<path d="M 10.595, 146.799 
	L 10.594, 146.799 
	L 10.594, 0.035 
" />
<path d="M 15.131, 146.799 
	L 15.130, 146.799 
	L 15.130, 0.035 
" />
<path d="M 19.666, 146.799 
	L 19.665, 146.799 
	L 19.665, 0.035 
" />
<path d="M 24.202, 146.799 
	L 24.201, 146.799 
	L 24.201, 0.035 
" />
<path d="M 28.737, 146.799 
	L 28.736, 146.799 
	L 28.736, 0.035 
" />
<path d="M 33.272, 146.799 
	L 33.272, 146.799 
	L 33.272, 0.035 
" />
<path d="M 37.808, 146.799 
	L 37.807, 146.799 
	L 37.807, 0.035 
" />
<path d="M 42.343, 146.799 
	L 42.343, 146.799 
	L 42.343, 0.035 
" />
<path d="M 46.879, 146.799 
	L 46.878, 146.799 
	L 46.878, 0.035 
" />
<path d="M 51.414, 146.799 
	L 51.413, 146.799 
	L 51.413, 0.035 
" />
<path d="M 55.950, 146.799 
	L 55.949, 146.799 
	L 55.949, 0.035 
" />
<path d="M 60.485, 146.799 
	L 60.484, 146.799 
	L 60.484, 0.035 
" />
<path d="M 65.020, 146.799 
	L 65.020, 146.799 
	L 65.020, 0.035 
" />
<path d="M 69.556, 146.799 
	L 69.555, 146.799 
	L 69.555, 0.035 
" />
<path d="M 74.091, 146.799 
	L 74.091, 146.799 
	L 74.091, 0.035 
" />
<path d="M 78.627, 146.799 
	L 78.626, 146.799 
	L 78.626, 0.035 
" />
<path d="M 83.162, 146.799 
	L 83.161, 146.799 
	L 83.161, 0.035 
" />
<path d="M 87.698, 146.799 
	L 87.697, 146.799 
	L 87.697, 0.035 
" />
<path d="M 92.233, 146.799 
	L 92.232, 146.799 
	L 92.232, 0.035 
" />
<path d="M 96.768, 146.799 
	L 96.768, 146.799 
	L 96.768, 0.035 
" />
<path d="M 101.304, 146.799 
	L 101.303, 146.799 
	L 101.303, 0.035 
" />
<path d="M 105.839, 146.799 
	L 105.839, 146.799 
	L 105.839, 0.035 
" />
<path d="M 110.375, 146.799 
	L 110.374, 146.799 
	L 110.374, 0.035 
" />
<path d="M 114.910, 146.799 
	L 114.909, 146.799 
	L 114.909, 0.035 
" />
<path d="M 119.446, 146.799 
	L 119.445, 146.799 
	L 119.445, 0.035 
" />
<path d="M 123.981, 146.799 
	L 123.980, 146.799 
	L 123.980, 0.035 
" />
<path d="M 128.516, 146.799 
	L 128.516, 146.799 
	L 128.516, 0.035 
" />
<path d="M 133.052, 146.799 
	L 133.051, 146.799 
	L 133.051, 0.035 
" />
<path d="M 137.587, 146.799 
	L 137.587, 146.799 
	L 137.587, 0.035 
" />
<path d="M 142.123, 146.799 
	L 142.122, 146.799 
	L 142.122, 0.035 
" />
<path d="M 146.658, 146.799 
	L 146.658, 146.799 
	L 146.658, 0.035 
" />
<path d="M 151.194, 146.799 
	L 151.193, 146.799 
	L 151.193, 0.035 
" />
<path d="M 155.729, 146.799 
	L 155.728, 146.799 
	L 155.728, 0.035 
" />
<path d="M 160.265, 146.799 
	L 160.264, 146.799 
	L 160.264, 0.035 
" />
<path d="M 164.800, 146.799 
	L 164.799, 146.799 
	L 164.799, 0.035 
" />
<path d="M 169.335, 146.799 
	L 169.335, 146.799 
	L 169.335, 0.035 
" />
<path d="M 173.871, 146.799 
	L 173.870, 146.799 
	L 173.870, 0.035 
" />
<path d="M 178.406, 146.799 
	L 178.406, 146.799 
	L 178.406, 0.035 
" />
<path d="M 182.942, 146.799 
	L 182.941, 146.799 
	L 182.941, 0.035 
" />
<path d="M 187.477, 146.799 
	L 187.476, 146.799 
	L 187.476, 0.035 
" />
<path d="M 192.013, 146.799 
	L 192.012, 146.799 
	L 192.012, 0.035 
" />
<path d="M 196.548, 146.799 
	L 196.547, 146.799 
	L 196.547, 0.035 
" />
<path d="M 201.083, 146.799 
	L 201.083, 146.799 
	L 201.083, 0.035 
" />
<path d="M 205.619, 146.799 
	L 205.618, 146.799 
	L 205.618, 0.035 
" />
<path d="M 210.154, 146.799 
	L 210.154, 146.799 
	L 210.154, 0.035 
" />
<path d="M 214.690, 146.799 
	L 214.689, 146.799 
	L 214.689, 0.035 
" />
<path d="M 219.225, 146.799 
	L 219.224, 146.799 
	L 219.224, 0.035 
" />
<path d="M 223.761, 146.799 
	L 223.760, 146.799 
	L 223.760, 0.035 
" />
<path d="M 228.296, 146.799 
	L 228.295, 146.799 
	L 228.295, 0.035 
" />
<path d="M 232.831, 146.799 
	L 232.831, 146.799 
	L 232.831, 0.035 
" />
<path d="M 237.367, 146.799 
	L 237.366, 146.799 
	L 237.366, 0.035 
" />
<path d="M 241.902, 146.799 
	L 241.902, 146.799 
	L 241.902, 0.035 
" />
<path d="M 246.438, 146.799 
	L 246.437, 146.799 
	L 246.437, 0.035 
" />
<path d="M 250.973, 146.799 
	L 250.972, 146.799 
	L 250.972, 0.035 
" />
<path d="M 255.509, 146.799 
	L 255.508, 146.799 
	L 255.508, 0.035 
" />
<path d="M 260.044, 146.799 
	L 260.043, 146.799 
	L 260.043, 0.035 
" />
<path d="M 264.579, 146.799 
	L 264.579, 146.799 
	L 264.579, 0.035 
" />
<path d="M 269.115, 146.799 
	L 269.114, 146.799 
	L 269.114, 0.035 
" />
<path d="M 273.650, 146.799 
	L 273.650, 146.799 
	L 273.650, 0.035 
" />
<path d="M 278.186, 146.799 
	L 278.185, 146.799 
	L 278.185, 0.035 
" />
<path d="M 282.721, 146.799 
	L 282.721, 146.799 
	L 282.721, 0.035 
" />
<path d="M 287.257, 146.799 
	L 287.256, 146.799 
	L 287.256, 0.035 
" />
<path d="M 291.792, 146.799 
	L 291.791, 146.799 
	L 291.791, 0.035 
" />
<path d="M 296.328, 146.799 
	L 296.327, 146.799 
	L 296.327, 0.035 
" />
<path d="M 300.863, 146.799 
	L 300.862, 146.799 
	L 300.862, 0.035 
" />
<path d="M 305.398, 146.799 
	L 305.398, 146.799 
	L 305.398, 0.035 
" />
<path d="M 309.934, 146.799 
	L 309.933, 146.799 
	L 309.933, 0.035 
" />
<path d="M 314.469, 146.799 
	L 314.469, 146.799 
	L 314.469, 0.035 
" />
<path d="M 319.005, 146.799 
	L 319.004, 146.799 
	L 319.004, 0.035 
" />
<path d="M 323.540, 146.799 
	L 323.539, 146.799 
	L 323.539, 0.035 
" />
<path d="M 328.076, 146.799 
	L 328.075, 146.799 
	L 328.075, 0.035 
" />
<path d="M 332.611, 146.799 
	L 332.610, 146.799 
	L 332.610, 0.035 
" />
<path d="M 337.146, 146.799 
	L 337.146, 146.799 
	L 337.146, 0.035 
" />
<path d="M 341.682, 146.799 
	L 341.681, 146.799 
	L 341.681, 0.035 
" />
<path d="M 346.217, 146.799 
	L 346.217, 146.799 
	L 346.217, 0.035 
" />
<path d="M 350.753, 146.799 
	L 350.752, 146.799 
	L 350.752, 0.035 
" />
<path d="M 355.288, 146.799 
	L 355.287, 146.799 
	L 355.287, 0.035 
" />
<path d="M 359.824, 146.799 
	L 359.823, 146.799 
	L 359.823, 0.035 
" />
<path d="M 364.359, 146.799 
	L 364.358, 146.799 
	L 364.358, 0.035 
" />
<path d="M 368.894, 146.799 
	L 368.894, 146.799 
	L 368.894, 0.035 
" />
<path d="M 373.430, 146.799 
	L 373.429, 146.799 
	L 373.429, 0.035 
" />
<path d="M 377.965, 146.799 
	L 377.965, 146.799 
	L 377.965, 0.035 
" />
<path d="M 382.501, 146.799 
	L 382.500, 146.799 
	L 382.500, 0.035 
" />
<path d="M 387.036, 146.799 
	L 387.035, 146.799 
	L 387.035, 0.035 
" />
<path d="M 391.572, 146.799 
	L 391.571, 146.799 
	L 391.571, 0.035 
" />
<path d="M 396.107, 146.799 
	L 396.106, 146.799 
	L 396.106, 0.035 
" />
<path d="M 400.642, 146.799 
	L 400.642, 146.799 
	L 400.642, 0.035 
" />
<path d="M 405.178, 146.799 
	L 405.177, 146.799 
	L 405.177, 0.035 
" />
<path d="M 409.713, 146.799 
	L 409.713, 146.799 
	L 409.713, 0.035 
" />
<path d="M 414.249, 146.799 
	L 414.248, 146.799 
	L 414.248, 0.035 
" />
<path d="M 418.784, 146.799 
	L 418.784, 146.799 
	L 418.784, 0.035 
" />
<path d="M 423.320, 146.799 
	L 423.319, 146.799 
	L 423.319, 0.035 
" />
<path d="M 427.855, 146.799 
	L 427.854, 146.799 
	L 427.854, 0.035 
" />
<path d="M 432.391, 146.799 
	L 432.390, 146.799 
	L 432.390, 0.035 
" />
<path d="M 436.926, 146.799 
	L 436.925, 146.799 
	L 436.925, 0.035 
" />
<path d="M 441.461, 146.799 
	L 441.461, 146.799 
	L 441.461, 0.035 
" />
<path d="M 445.997, 146.799 
	L 445.996, 146.799 
	L 445.996, 0.035 
" />
<path d="M 450.532, 146.799 
	L 450.532, 146.799 
	L 450.532, 0.035 
" />
<path d="M 455.068, 146.799 
	L 455.067, 146.799 
	L 455.067, 0.035 
" />
<path d="M 459.603, 146.799 
	L 459.602, 146.799 
	L 459.602, 0.035 
" />
<path d="M 464.139, 146.799 
	L 464.138, 146.799 
	L 464.138, 0.035 
" />
<path d="M 468.674, 146.799 
	L 468.673, 146.799 
	L 468.673, 0.035 
" />
<path d="M 473.209, 146.799 
	L 473.209, 146.799 
	L 473.209, 0.035 
" />
<path d="M 477.745, 146.799 
	L 477.744, 146.799 
	L 477.744, 0.035 
" />
<path d="M 482.280, 146.799 
	L 482.280, 146.799 
	L 482.280, 0.035 
" />
<path d="M 486.816, 146.799 
	L 486.815, 146.799 
	L 486.815, 0.035 
" />
<path d="M 491.351, 146.799 
	L 491.350, 146.799 
	L 491.350, 0.035 
" />
</g><g style="stroke:rgb(0,0,0); fill:none; stroke-width:0.100mm" >
<path d="M 10.560, 597.118 
	L 10.559, 597.118 
	L 10.559, 371.976 
	L 497.055, 371.976 
	L 497.055, 597.118 
	L 10.559, 597.118 
" />
<path d="M 10.595, 597.082 
	L 10.594, 597.083 
	L 10.594, 371.941 
" />
<path d="M 15.131, 597.082 
	L 15.130, 597.083 
	L 15.130, 371.941 
" />
<path d="M 19.666, 597.082 
	L 19.665, 597.083 
	L 19.665, 371.941 
" />
<path d="M 24.202, 597.082 
	L 24.201, 597.083 
	L 24.201, 371.941 
" />
<path d="M 28.737, 597.082 
	L 28.736, 597.083 
	L 28.736, 371.941 
" />
<path d="M 33.272, 597.082 
	L 33.272, 597.083 
	L 33.272, 371.941 
" />
<path d="M 37.808, 597.082 
	L 37.807, 597.083 
	L 37.807, 371.941 
" />
<path d="M 42.343, 597.082 
	L 42.343, 597.083 
	L 42.343, 371.941 
" />
<path d="M 46.879, 597.082 
	L 46.878, 597.083 
	L 46.878, 371.941 
" />
<path d="M 51.414, 597.082 
	L 51.413, 597.083 
	L 51.413, 371.941 
" />
<path d="M 55.950, 597.082 
	L 55.949, 597.083 
	L 55.949, 371.941 
" />
<path d="M 60.485, 597.082 
	L 60.484, 597.083 
	L 60.484, 371.941 
" />
<path d="M 65.020, 597.082 
	L 65.020, 597.083 
	L 65.020, 371.941 
" />
<path d="M 69.556, 597.082 
	L 69.555, 597.083 
	L 69.555, 371.941 
" />
<path d="M 74.091, 597.082 
	L 74.091, 597.083 
	L 74.091, 371.941 
" />
<path d="M 78.627, 597.082 
	L 78.626, 597.083 
	L 78.626, 371.941 
" />
<path d="M 83.162, 597.082 
	L 83.161, 597.083 
	L 83.161, 371.941 
" />
<path d="M 87.698, 597.082 
	L 87.697, 597.083 
	L 87.697, 371.941 
" />
<path d="M 92.233, 597.082 
	L 92.232, 597.083 
	L 92.232, 371.941 
" />
<path d="M 96.768, 597.082 
	L 96.768, 597.083 
	L 96.768, 371.941 
" />
<path d="M 101.304, 597.082 
	L 101.303, 597.083 
	L 101.303, 371.941 
" />
<path d="M 105.839, 597.082 
	L 105.839, 597.083 
	L 105.839, 371.941 
" />
<path d="M 110.375, 597.082 
	L 110.374, 597.083 
	L 110.374, 371.941 
" />
<path d="M 114.910, 597.082 
	L 114.909, 597.083 
	L 114.909, 371.941 
" />
<path d="M 119.446, 597.082 
	L 119.445, 597.083 
	L 119.445, 371.941 
" />
<path d="M 123.981, 597.082 
	L 123.980, 597.083 
	L 123.980, 371.941 
" />
<path d="M 128.516, 597.082 
	L 128.516, 597.083 
	L 128.516, 371.941 
" />
<path d="M 133.052, 597.082 
	L 133.051, 597.083 
	L 133.051, 371.941 
" />
<path d="M 137.587, 597.082 
	L 137.587, 597.083 
	L 137.587, 371.941 
" />
<path d="M 142.123, 597.082 
	L 142.122, 597.083 
	L 142.122, 371.941 
" />
<path d="M 146.658, 597.082 
	L 146.658, 597.083 
	L 146.658, 371.941 
" />
<path d="M 151.194, 597.082 
	L 151.193, 597.083 
	L 151.193, 371.941 
" />
<path d="M 155.729, 597.082 
	L 155.728, 597.083 
	L 155.728, 371.941 
" />
<path d="M 160.265, 597.082 
	L 160.264, 597.083 
	L 160.264, 371.941 
" />
<path d="M 164.800, 597.082 
	L 164.799, 597.083 
	L 164.799, 371.941 
" />
<path d="M 169.335, 597.082 
	L 169.335, 597.083 
	L 169.335, 371.941 
" />
<path d="M 173.871, 597.082 
	L 173.870, 597.083 
	L 173.870, 371.941 
" />
<path d="M 178.406, 597.082 
	L 178.406, 597.083 
	L 178.406, 371.941 
" />
<path d="M 182.942, 597.082 
	L 182.941, 597.083 
	L 182.941, 371.941 
" />
<path d="M 187.477, 597.082 
	L 187.476, 597.083 
	L 187.476, 371.941 
" />
<path d="M 192.013, 597.082 
	L 192.012, 597.083 
	L 192.012, 371.941 
" />
<path d="M 196.548, 597.082 
	L 196.547, 597.083 
	L 196.547, 371.941 
" />
<path d="M 201.083, 597.082 
	L 201.083, 597.083 
	L 201.083, 371.941 
" />
<path d="M 205.619, 597.082 
	L 205.618, 597.083 
	L 205.618, 371.941 
" />
<path d="M 210.154, 597.082 
	L 210.154, 597.083 
	L 210.154, 371.941 
" />
<path d="M 214.690, 597.082 
	L 214.689, 597.083 
	L 214.689, 371.941 
" />
<path d="M 219.225, 597.082 
	L 219.224, 597.083 
	L 219.224, 371.941 
" />
<path d="M 223.761, 597.082 
	L 223.760, 597.083 
	L 223.760, 371.941 
" />
<path d="M 228.296, 597.082 
	L 228.295, 597.083 
	L 228.295, 371.941 
" />
<path d="M 232.831, 597.082 
	L 232.831, 597.083 
	L 232.831, 371.941 
" />
<path d="M 237.367, 597.082 
	L 237.366, 597.083 
	L 237.366, 371.941 
" />
<path d="M 241.902, 597.082 
	L 241.902, 597.083 
	L 241.902, 371.941 
" />
<path d="M 246.438, 597.082 
	L 246.437, 597.083 
	L 246.437, 371.941 
" />
<path d="M 250.973, 597.082 
	L 250.972, 597.083 
	L 250.972, 371.941 
" />
<path d="M 255.509, 597.082 
	L 255.508, 597.083 
	L 255.508, 371.941 
" />
<path d="M 260.044, 597.082 
	L 260.043, 597.083 
	L 260.043, 371.941 
" />
<path d="M 264.579, 597.082 
	L 264.579, 597.083 
	L 264.579, 371.941 
" />
<path d="M 269.115, 597.082 
	L 269.114, 597.083 
	L 269.114, 371.941 
" />
<path d="M 273.650, 597.082 
	L 273.650, 597.083 
	L 273.650, 371.941 
" />
<path d="M 278.186, 597.082 
	L 278.185, 597.083 
	L 278.185, 371.941 
" />
<path d="M 282.721, 597.082 
	L 282.721, 597.083 
	L 282.721, 371.941 
" />
<path d="M 287.257, 597.082 
	L 287.256, 597.083 
	L 287.256, 371.941 
" />
<path d="M 291.792, 597.082 
	L 291.791, 597.083 
	L 291.791, 371.941 
" />
<path d="M 296.328, 597.082 
	L 296.327, 597.083 
	L 296.327, 371.941 
" />
<path d="M 300.863, 597.082 
	L 300.862, 597.083 
	L 300.862, 371.941 
" />
<path d="M 305.398, 597.082 
	L 305.398, 597.083 
	L 305.398, 371.941 
" />
<path d="M 309.934, 597.082 
	L 309.933, 597.083 
	L 309.933, 371.941 
" />
<path d="M 314.469, 597.082 
	L 314.469, 597.083 
	L 314.469, 371.941 
" />
<path d="M 319.005, 597.082 
	L 319.004, 597.083 
	L 319.004, 371.941 
" />
<path d="M 323.540, 597.082 
	L 323.539, 597.083 
	L 323.539, 371.941 
" />
<path d="M 328.076, 597.082 
	L 328.075, 597.083 
	L 328.075, 371.941 
" />
<path d="M 332.611, 597.082 
	L 332.610, 597.083 
	L 332.610, 371.941 
" />
<path d="M 337.146, 597.082 
	L 337.146, 597.083 
	L 337.146, 371.941 
" />
<path d="M 341.682, 597.082 
	L 341.681, 597.083 
	L 341.681, 371.941 
" />
<path d="M 346.217, 597.082 
	L 346.217, 597.083 
	L 346.217, 371.941 
" />
<path d="M 350.753, 597.082 
	L 350.752, 597.083 
	L 350.752, 371.941 
" />
<path d="M 355.288, 597.082 
	L 355.287, 597.083 
	L 355.287, 371.941 
" />
<path d="M 359.824, 597.082 
	L 359.823, 597.083 
	L 359.823, 371.941 
" />
<path d="M 364.359, 597.082 
	L 364.358, 597.083 
	L 364.358, 371.941 
" />
<path d="M 368.894, 597.082 
	L 368.894, 597.083 
	L 368.894, 371.941 
" />
<path d="M 373.430, 597.082 
	L 373.429, 597.083 
	L 373.429, 371.941 
" />
<path d="M 377.965, 597.082 
	L 377.965, 597.083 
	L 377.965, 371.941 
" />
<path d="M 382.501, 597.082 
	L 382.500, 597.083 
	L 382.500, 371.941 
" />
<path d="M 387.036, 597.082 
	L 387.035, 597.083 
	L 387.035, 371.941 
" />
<path d="M 391.572, 597.082 
	L 391.571, 597.083 
	L 391.571, 371.941 
" />
<path d="M 396.107, 597.082 
	L 396.106, 597.083 
	L 396.106, 371.941 
" />
<path d="M 400.642, 597.082 
	L 400.642, 597.083 
	L 400.642, 371.941 
" />
<path d="M 405.178, 597.082 
	L 405.177, 597.083 
	L 405.177, 371.941 
" />
<path d="M 409.713, 597.082 
	L 409.713, 597.083 
	L 409.713, 371.941 
" />
<path d="M 414.249, 597.082 
	L 414.248, 597.083 
	L 414.248, 371.941 
" />
<path d="M 418.784, 597.082 
	L 418.784, 597.083 
	L 418.784, 371.941 
" />
<path d="M 423.320, 597.082 
	L 423.319, 597.083 
	L 423.319, 371.941 
" />
<path d="M 427.855, 597.082 
	L 427.854, 597.083 
	L 427.854, 371.941 
" />
<path d="M 432.391, 597.082 
	L 432.390, 597.083 
	L 432.390, 371.941 
" />
<path d="M 436.926, 597.082 
	L 436.925, 597.083 
	L 436.925, 371.941 
" />
<path d="M 441.461, 597.082 
	L 441.461, 597.083 
	L 441.461, 371.941 
" />
<path d="M 445.997, 597.082 
	L 445.996, 597.083 
	L 445.996, 371.941 
" />
<path d="M 450.532, 597.082 
	L 450.532, 597.083 
	L 450.532, 371.941 
" />
<path d="M 455.068, 597.082 
	L 455.067, 597.083 
	L 455.067, 371.941 
" />
<path d="M 459.603, 597.082 
	L 459.602, 597.083 
	L 459.602, 371.941 
" />
<path d="M 464.139, 597.082 
	L 464.138, 597.083 
	L 464.138, 371.941 
" />
<path d="M 468.674, 597.082 
	L 468.673, 597.083 
	L 468.673, 371.941 
" />
<path d="M 473.209, 597.082 
	L 473.209, 597.083 
	L 473.209, 371.941 
" />
<path d="M 477.745, 597.082 
	L 477.744, 597.083 
	L 477.744, 371.941 
" />
<path d="M 482.280, 597.082 
	L 482.280, 597.083 
	L 482.280, 371.941 
" />
<path d="M 486.816, 597.082 
	L 486.815, 597.083 
	L 486.815, 371.941 
" />
<path d="M 491.351, 597.082 
	L 491.350, 597.083 
	L 491.350, 371.941 
" />
</g><g style="stroke:rgb(0,0,0); fill:none; stroke-width:0.100mm" >
<path d="M 490.465, 597.082 
	L 490.465, 597.083 
	L 490.465, 453.366 
	L 555.307, 453.366 
	L 555.307, 597.083 
	L 490.465, 597.083 
" />
<path d="M 490.501, 597.082 
	L 490.500, 597.083 
	L 490.500, 453.366 
" />
<path d="M 495.036, 597.082 
	L 495.036, 597.083 
	L 495.036, 453.366 
" />
<path d="M 499.572, 597.082 
	L 499.571, 597.083 
	L 499.571, 453.366 
" />
<path d="M 504.107, 597.082 
	L 504.106, 597.083 
	L 504.106, 453.366 
" />
<path d="M 508.643, 597.082 
	L 508.642, 597.083 
	L 508.642, 453.366 
" />
<path d="M 513.178, 597.082 
	L 513.177, 597.083 
	L 513.177, 453.366 
" />
<path d="M 517.713, 597.082 
	L 517.713, 597.083 
	L 517.713, 453.366 
" />
<path d="M 522.249, 597.082 
	L 522.248, 597.083 
	L 522.248, 453.366 
" />
<path d="M 526.784, 597.082 
	L 526.784, 597.083 
	L 526.784, 453.366 
" />
<path d="M 531.320, 597.082 
	L 531.319, 597.083 
	L 531.319, 453.366 
" />
<path d="M 535.855, 597.082 
	L 535.854, 597.083 
	L 535.854, 453.366 
" />
<path d="M 540.391, 597.082 
	L 540.390, 597.083 
	L 540.390, 453.366 
" />
<path d="M 544.926, 597.082 
	L 544.925, 597.083 
	L 544.925, 453.366 
" />
<path d="M 549.461, 597.082 
	L 549.461, 597.083 
	L 549.461, 453.366 
" />
</g><g style="stroke:rgb(255,0,0); fill:none; stroke-width:0.100mm" >
<path d="M 490.465, 309.649 
	L 490.465, 309.650 
	L 490.465, 81.461 
	L 555.307, 81.461 
	L 555.307, 309.650 
	L 490.465, 309.650 
" />
<path d="M 490.501, 309.649 
	L 490.500, 309.650 
	L 490.500, 81.461 
" />
<path d="M 495.036, 309.649 
	L 495.036, 309.650 
	L 495.036, 81.461 
" />
<path d="M 499.572, 309.649 
	L 499.571, 309.650 
	L 499.571, 81.461 
" />
<path d="M 504.107, 309.649 
	L 504.106, 309.650 
	L 504.106, 81.461 
" />
<path d="M 508.643, 309.649 
	L 508.642, 309.650 
	L 508.642, 81.461 
" />
<path d="M 513.178, 309.649 
	L 513.177, 309.650 
	L 513.177, 81.461 
" />
<path d="M 517.713, 309.649 
	L 517.713, 309.650 
	L 517.713, 81.461 
" />
<path d="M 522.249, 309.649 
	L 522.248, 309.650 
	L 522.248, 81.461 
" />
<path d="M 526.784, 309.649 
	L 526.784, 309.650 
	L 526.784, 81.461 
" />
<path d="M 531.320, 309.649 
	L 531.319, 309.650 
	L 531.319, 81.461 
" />
<path d="M 535.855, 309.649 
	L 535.854, 309.650 
	L 535.854, 81.461 
" />
<path d="M 540.391, 309.649 
	L 540.390, 309.650 
	L 540.390, 81.461 
" />
<path d="M 544.926, 309.649 
	L 544.925, 309.650 
	L 544.925, 81.461 
" />
<path d="M 549.461, 309.649 
	L 549.461, 309.650 
	L 549.461, 81.461 
" />
</g><g style="stroke:rgb(0,255,0); fill:none; stroke-width:0.100mm" >
<path d="M 556.725, 309.649 
	L 556.724, 309.650 
	L 556.724, 81.461 
	L 711.000, 81.461 
	L 711.000, 309.650 
	L 556.724, 309.650 
" />
<path d="M 556.761, 309.649 
	L 556.760, 309.650 
	L 556.760, 81.461 
" />
<path d="M 561.296, 309.649 
	L 561.295, 309.650 
	L 561.295, 81.461 
" />
<path d="M 565.831, 309.649 
	L 565.831, 309.650 
	L 565.831, 81.461 
" />
<path d="M 570.367, 309.649 
	L 570.366, 309.650 
	L 570.366, 81.461 
" />
<path d="M 574.902, 309.649 
	L 574.902, 309.650 
	L 574.902, 81.461 
" />
<path d="M 579.438, 309.649 
	L 579.437, 309.650 
	L 579.437, 81.461 
" />
<path d="M 583.973, 309.649 
	L 583.973, 309.650 
	L 583.973, 81.461 
" />
<path d="M 588.509, 309.649 
	L 588.508, 309.650 
	L 588.508, 81.461 
" />
<path d="M 593.044, 309.649 
	L 593.043, 309.650 
	L 593.043, 81.461 
" />
<path d="M 597.580, 309.649 
	L 597.579, 309.650 
	L 597.579, 81.461 
" />
<path d="M 602.115, 309.649 
	L 602.114, 309.650 
	L 602.114, 81.461 
" />
<path d="M 606.650, 309.649 
	L 606.650, 309.650 
	L 606.650, 81.461 
" />
<path d="M 611.186, 309.649 
	L 611.185, 309.650 
	L 611.185, 81.461 
" />
<path d="M 615.721, 309.649 
	L 615.721, 309.650 
	L 615.721, 81.461 
" />
<path d="M 620.257, 309.649 
	L 620.256, 309.650 
	L 620.256, 81.461 
" />
<path d="M 624.792, 309.649 
	L 624.791, 309.650 
	L 624.791, 81.461 
" />
<path d="M 629.328, 309.649 
	L 629.327, 309.650 
	L 629.327, 81.461 
" />
<path d="M 633.863, 309.649 
	L 633.862, 309.650 
	L 633.862, 81.461 
" />
<path d="M 638.398, 309.649 
	L 638.398, 309.650 
	L 638.398, 81.461 
" />
<path d="M 642.934, 309.649 
	L 642.933, 309.650 
	L 642.933, 81.461 
" />
<path d="M 647.469, 309.649 
	L 647.469, 309.650 
	L 647.469, 81.461 
" />
<path d="M 652.005, 309.649 
	L 652.004, 309.650 
	L 652.004, 81.461 
" />
<path d="M 656.540, 309.649 
	L 656.539, 309.650 
	L 656.539, 81.461 
" />
<path d="M 661.076, 309.649 
	L 661.075, 309.650 
	L 661.075, 81.461 
" />
<path d="M 665.611, 309.649 
	L 665.610, 309.650 
	L 665.610, 81.461 
" />
<path d="M 670.146, 309.649 
	L 670.146, 309.650 
	L 670.146, 81.461 
" />
<path d="M 674.682, 309.649 
	L 674.681, 309.650 
	L 674.681, 81.461 
" />
<path d="M 679.217, 309.649 
	L 679.217, 309.650 
	L 679.217, 81.461 
" />
<path d="M 683.753, 309.649 
	L 683.752, 309.650 
	L 683.752, 81.461 
" />
<path d="M 688.288, 309.649 
	L 688.288, 309.650 
	L 688.288, 81.461 
" />
<path d="M 692.824, 309.649 
	L 692.823, 309.650 
	L 692.823, 81.461 
" />
<path d="M 697.359, 309.649 
	L 697.358, 309.650 
	L 697.358, 81.461 
" />
<path d="M 701.895, 309.649 
	L 701.894, 309.650 
	L 701.894, 81.461 
" />
<path d="M 706.430, 309.649 
	L 706.429, 309.650 
	L 706.429, 81.461 
" />
</g><g style="stroke:rgb(0,0,255); fill:none; stroke-width:0.100mm" >
<path d="M 556.725, 597.082 
	L 556.724, 597.083 
	L 556.724, 453.366 
	L 711.000, 453.366 
	L 711.000, 597.083 
	L 556.724, 597.083 
" />
<path d="M 556.761, 597.082 
	L 556.760, 597.083 
	L 556.760, 453.366 
" />
<path d="M 561.296, 597.082 
	L 561.295, 597.083 
	L 561.295, 453.366 
" />
<path d="M 565.831, 597.082 
	L 565.831, 597.083 
	L 565.831, 453.366 
" />
<path d="M 570.367, 597.082 
	L 570.366, 597.083 
	L 570.366, 453.366 
" />
<path d="M 574.902, 597.082 
	L 574.902, 597.083 
	L 574.902, 453.366 
" />
<path d="M 579.438, 597.082 
	L 579.437, 597.083 
	L 579.437, 453.366 
" />
<path d="M 583.973, 597.082 
	L 583.973, 597.083 
	L 583.973, 453.366 
" />
<path d="M 588.509, 597.082 
	L 588.508, 597.083 
	L 588.508, 453.366 
" />
<path d="M 593.044, 597.082 
	L 593.043, 597.083 
	L 593.043, 453.366 
" />
<path d="M 597.580, 597.082 
	L 597.579, 597.083 
	L 597.579, 453.366 
" />
<path d="M 602.115, 597.082 
	L 602.114, 597.083 
	L 602.114, 453.366 
" />
<path d="M 606.650, 597.082 
	L 606.650, 597.083 
	L 606.650, 453.366 
" />
<path d="M 611.186, 597.082 
	L 611.185, 597.083 
	L 611.185, 453.366 
" />
<path d="M 615.721, 597.082 
	L 615.721, 597.083 
	L 615.721, 453.366 
" />
<path d="M 620.257, 597.082 
	L 620.256, 597.083 
	L 620.256, 453.366 
" />
<path d="M 624.792, 597.082 
	L 624.791, 597.083 
	L 624.791, 453.366 
" />
<path d="M 629.328, 597.082 
	L 629.327, 597.083 
	L 629.327, 453.366 
" />
<path d="M 633.863, 597.082 
	L 633.862, 597.083 
	L 633.862, 453.366 
" />
<path d="M 638.398, 597.082 
	L 638.398, 597.083 
	L 638.398, 453.366 
" />
<path d="M 642.934, 597.082 
	L 642.933, 597.083 
	L 642.933, 453.366 
" />
<path d="M 647.469, 597.082 
	L 647.469, 597.083 
	L 647.469, 453.366 
" />
<path d="M 652.005, 597.082 
	L 652.004, 597.083 
	L 652.004, 453.366 
" />
<path d="M 656.540, 597.082 
	L 656.539, 597.083 
	L 656.539, 453.366 
" />
<path d="M 661.076, 597.082 
	L 661.075, 597.083 
	L 661.075, 453.366 
" />
<path d="M 665.611, 597.082 
	L 665.610, 597.083 
	L 665.610, 453.366 
" />
<path d="M 670.146, 597.082 
	L 670.146, 597.083 
	L 670.146, 453.366 
" />
<path d="M 674.682, 597.082 
	L 674.681, 597.083 
	L 674.681, 453.366 
" />
<path d="M 679.217, 597.082 
	L 679.217, 597.083 
	L 679.217, 453.366 
" />
<path d="M 683.753, 597.082 
	L 683.752, 597.083 
	L 683.752, 453.366 
" />
<path d="M 688.288, 597.082 
	L 688.288, 597.083 
	L 688.288, 453.366 
" />
<path d="M 692.824, 597.082 
	L 692.823, 597.083 
	L 692.823, 453.366 
" />
<path d="M 697.359, 597.082 
	L 697.358, 597.083 
	L 697.358, 453.366 
" />
<path d="M 701.895, 597.082 
	L 701.894, 597.083 
	L 701.894, 453.366 
" />
<path d="M 706.430, 597.082 
	L 706.429, 597.083 
	L 706.429, 453.366 
" />
</g><g style="stroke:rgb(0,255,255); fill:none; stroke-width:0.100mm" >
<path d="M 491.528, 1270.629 
	L 491.528, 1270.630 
	L 491.528, 1130.386 
	L 626.953, 1130.386 
	L 626.953, 1270.630 
	L 491.528, 1270.630 
" />
<path d="M 491.564, 1270.594 
	L 491.563, 1270.595 
	L 491.563, 1130.351 
" />
<path d="M 496.099, 1270.594 
	L 496.099, 1270.595 
	L 496.099, 1130.351 
" />
<path d="M 500.635, 1270.594 
	L 500.634, 1270.595 
	L 500.634, 1130.351 
" />
<path d="M 505.170, 1270.594 
	L 505.169, 1270.595 
	L 505.169, 1130.351 
" />
<path d="M 509.705, 1270.594 
	L 509.705, 1270.595 
	L 509.705, 1130.351 
" />
<path d="M 514.241, 1270.594 
	L 514.240, 1270.595 
	L 514.240, 1130.351 
" />
<path d="M 518.776, 1270.594 
	L 518.776, 1270.595 
	L 518.776, 1130.351 
" />
<path d="M 523.312, 1270.594 
	L 523.311, 1270.595 
	L 523.311, 1130.351 
" />
<path d="M 527.847, 1270.594 
	L 527.847, 1270.595 
	L 527.847, 1130.351 
" />
<path d="M 532.383, 1270.594 
	L 532.382, 1270.595 
	L 532.382, 1130.351 
" />
<path d="M 536.918, 1270.594 
	L 536.917, 1270.595 
	L 536.917, 1130.351 
" />
<path d="M 541.454, 1270.594 
	L 541.453, 1270.595 
	L 541.453, 1130.351 
" />
<path d="M 545.989, 1270.594 
	L 545.988, 1270.595 
	L 545.988, 1130.351 
" />
<path d="M 550.524, 1270.594 
	L 550.524, 1270.595 
	L 550.524, 1130.351 
" />
<path d="M 555.060, 1270.594 
	L 555.059, 1270.595 
	L 555.059, 1130.351 
" />
<path d="M 559.595, 1270.594 
	L 559.595, 1270.595 
	L 559.595, 1130.351 
" />
<path d="M 564.131, 1270.594 
	L 564.130, 1270.595 
	L 564.130, 1130.351 
" />
<path d="M 568.666, 1270.594 
	L 568.665, 1270.595 
	L 568.665, 1130.351 
" />
<path d="M 573.202, 1270.594 
	L 573.201, 1270.595 
	L 573.201, 1130.351 
" />
<path d="M 577.737, 1270.594 
	L 577.736, 1270.595 
	L 577.736, 1130.351 
" />
<path d="M 582.272, 1270.594 
	L 582.272, 1270.595 
	L 582.272, 1130.351 
" />
<path d="M 586.808, 1270.594 
	L 586.807, 1270.595 
	L 586.807, 1130.351 
" />
<path d="M 591.343, 1270.594 
	L 591.343, 1270.595 
	L 591.343, 1130.351 
" />
<path d="M 595.879, 1270.594 
	L 595.878, 1270.595 
	L 595.878, 1130.351 
" />
<path d="M 600.414, 1270.594 
	L 600.413, 1270.595 
	L 600.413, 1130.351 
" />
<path d="M 604.950, 1270.594 
	L 604.949, 1270.595 
	L 604.949, 1130.351 
" />
<path d="M 609.485, 1270.594 
	L 609.484, 1270.595 
	L 609.484, 1130.351 
" />
<path d="M 614.020, 1270.594 
	L 614.020, 1270.595 
	L 614.020, 1130.351 
" />
<path d="M 618.556, 1270.594 
	L 618.555, 1270.595 
	L 618.555, 1130.351 
" />
</g><g style="stroke:rgb(255,0,255); fill:none; stroke-width:0.100mm" >
<path d="M 491.528, 990.141 
	L 491.528, 990.142 
	L 491.528, 793.630 
	L 626.953, 793.630 
	L 626.953, 990.142 
	L 491.528, 990.142 
" />
<path d="M 491.564, 990.106 
	L 491.563, 990.106 
	L 491.563, 793.595 
" />
<path d="M 496.099, 990.106 
	L 496.099, 990.106 
	L 496.099, 793.595 
" />
<path d="M 500.635, 990.106 
	L 500.634, 990.106 
	L 500.634, 793.595 
" />
<path d="M 505.170, 990.106 
	L 505.169, 990.106 
	L 505.169, 793.595 
" />
<path d="M 509.705, 990.106 
	L 509.705, 990.106 
	L 509.705, 793.595 
" />
<path d="M 514.241, 990.106 
	L 514.240, 990.106 
	L 514.240, 793.595 
" />
<path d="M 518.776, 990.106 
	L 518.776, 990.106 
	L 518.776, 793.595 
" />
<path d="M 523.312, 990.106 
	L 523.311, 990.106 
	L 523.311, 793.595 
" />
<path d="M 527.847, 990.106 
	L 527.847, 990.106 
	L 527.847, 793.595 
" />
<path d="M 532.383, 990.106 
	L 532.382, 990.106 
	L 532.382, 793.595 
" />
<path d="M 536.918, 990.106 
	L 536.917, 990.106 
	L 536.917, 793.595 
" />
<path d="M 541.454, 990.106 
	L 541.453, 990.106 
	L 541.453, 793.595 
" />
<path d="M 545.989, 990.106 
	L 545.988, 990.106 
	L 545.988, 793.595 
" />
<path d="M 550.524, 990.106 
	L 550.524, 990.106 
	L 550.524, 793.595 
" />
<path d="M 555.060, 990.106 
	L 555.059, 990.106 
	L 555.059, 793.595 
" />
<path d="M 559.595, 990.106 
	L 559.595, 990.106 
	L 559.595, 793.595 
" />
<path d="M 564.131, 990.106 
	L 564.130, 990.106 
	L 564.130, 793.595 
" />
<path d="M 568.666, 990.106 
	L 568.665, 990.106 
	L 568.665, 793.595 
" />
<path d="M 573.202, 990.106 
	L 573.201, 990.106 
	L 573.201, 793.595 
" />
<path d="M 577.737, 990.106 
	L 577.736, 990.106 
	L 577.736, 793.595 
" />
<path d="M 582.272, 990.106 
	L 582.272, 990.106 
	L 582.272, 793.595 
" />
<path d="M 586.808, 990.106 
	L 586.807, 990.106 
	L 586.807, 793.595 
" />
<path d="M 591.343, 990.106 
	L 591.343, 990.106 
	L 591.343, 793.595 
" />
<path d="M 595.879, 990.106 
	L 595.878, 990.106 
	L 595.878, 793.595 
" />
<path d="M 600.414, 990.106 
	L 600.413, 990.106 
	L 600.413, 793.595 
" />
<path d="M 604.950, 990.106 
	L 604.949, 990.106 
	L 604.949, 793.595 
" />
<path d="M 609.485, 990.106 
	L 609.484, 990.106 
	L 609.484, 793.595 
" />
<path d="M 614.020, 990.106 
	L 614.020, 990.106 
	L 614.020, 793.595 
" />
<path d="M 618.556, 990.106 
	L 618.555, 990.106 
	L 618.555, 793.595 
" />
</g><g style="stroke:rgb(255,255,0); fill:none; stroke-width:0.100mm" >
<path d="M 626.174, 990.141 
	L 626.173, 990.142 
	L 626.173, 793.630 
	L 709.866, 793.630 
	L 709.866, 990.142 
	L 626.173, 990.142 
" />
<path d="M 626.209, 990.106 
	L 626.209, 990.106 
	L 626.209, 793.595 
" />
<path d="M 630.745, 990.106 
	L 630.744, 990.106 
	L 630.744, 793.595 
" />
<path d="M 635.280, 990.106 
	L 635.280, 990.106 
	L 635.280, 793.595 
" />
<path d="M 639.816, 990.106 
	L 639.815, 990.106 
	L 639.815, 793.595 
" />
<path d="M 644.351, 990.106 
	L 644.350, 990.106 
	L 644.350, 793.595 
" />
<path d="M 648.887, 990.106 
	L 648.886, 990.106 
	L 648.886, 793.595 
" />
<path d="M 653.422, 990.106 
	L 653.421, 990.106 
	L 653.421, 793.595 
" />
<path d="M 657.957, 990.106 
	L 657.957, 990.106 
	L 657.957, 793.595 
" />
<path d="M 662.493, 990.106 
	L 662.492, 990.106 
	L 662.492, 793.595 
" />
<path d="M 667.028, 990.106 
	L 667.028, 990.106 
	L 667.028, 793.595 
" />
<path d="M 671.564, 990.106 
	L 671.563, 990.106 
	L 671.563, 793.595 
" />
<path d="M 676.099, 990.106 
	L 676.099, 990.106 
	L 676.099, 793.595 
" />
<path d="M 680.635, 990.106 
	L 680.634, 990.106 
	L 680.634, 793.595 
" />
<path d="M 685.170, 990.106 
	L 685.169, 990.106 
	L 685.169, 793.595 
" />
<path d="M 689.706, 990.106 
	L 689.705, 990.106 
	L 689.705, 793.595 
" />
<path d="M 694.241, 990.106 
	L 694.240, 990.106 
	L 694.240, 793.595 
" />
<path d="M 698.776, 990.106 
	L 698.776, 990.106 
	L 698.776, 793.595 
" />
<path d="M 703.312, 990.106 
	L 703.311, 990.106 
	L 703.311, 793.595 
" />
</g>
</svg>
