<?xml version="1.0" encoding="UTF-8" standalone="no" ?>
<svg width="100%" height="100%" viewBox="0 0 708.662 708.697" xmlns="http://www.w3.org/2000/svg"><g>
</g><g style="stroke:rgb(0,0,0); fill:none; stroke-width:1.000mm" >
</g><g style="stroke:rgb(0,255,0); fill:none; stroke-width:0.100mm" >
<path d="M 0.001, 708.696 
	L 0.000, 708.697 
	L 0.000, 0.035 
	L 708.662, 0.035 
	L 708.662, 708.697 
	L 0.000, 708.697 
" />
</g><g style="stroke:rgb(0,0,0); fill:none; stroke-width:0.100mm" >
<path d="M 10.383, 708.732 
	L 10.382, 708.732 
	L 10.382, 441.354 
	L 694.595, 441.354 
	L 694.595, 708.732 
	L 10.382, 708.732 
" />
<path d="M 10.418, 708.696 
	L 10.417, 708.697 
	L 10.417, 441.319 
" />
<path d="M 15.024, 708.696 
	L 15.024, 708.697 
	L 15.024, 441.319 
" />
<path d="M 19.631, 708.696 
	L 19.630, 708.697 
	L 19.630, 441.319 
" />
<path d="M 24.237, 708.696 
	L 24.236, 708.697 
	L 24.236, 441.319 
" />
<path d="M 28.843, 708.696 
	L 28.843, 708.697 
	L 28.843, 441.319 
" />
<path d="M 33.450, 708.696 
	L 33.449, 708.697 
	L 33.449, 441.319 
" />
<path d="M 38.056, 708.696 
	L 38.055, 708.697 
	L 38.055, 441.319 
" />
<path d="M 42.662, 708.696 
	L 42.661, 708.697 
	L 42.661, 441.319 
" />
<path d="M 47.268, 708.696 
	L 47.268, 708.697 
	L 47.268, 441.319 
" />
<path d="M 51.875, 708.696 
	L 51.874, 708.697 
	L 51.874, 441.319 
" />
<path d="M 56.481, 708.696 
	L 56.480, 708.697 
	L 56.480, 441.319 
" />
<path d="M 61.087, 708.696 
	L 61.087, 708.697 
	L 61.087, 441.319 
" />
<path d="M 65.694, 708.696 
	L 65.693, 708.697 
	L 65.693, 441.319 
" />
<path d="M 70.300, 708.696 
	L 70.299, 708.697 
	L 70.299, 441.319 
" />
<path d="M 74.906, 708.696 
	L 74.906, 708.697 
	L 74.906, 441.319 
" />
<path d="M 79.513, 708.696 
	L 79.512, 708.697 
	L 79.512, 441.319 
" />
<path d="M 84.119, 708.696 
	L 84.118, 708.697 
	L 84.118, 441.319 
" />
<path d="M 88.725, 708.696 
	L 88.724, 708.697 
	L 88.724, 441.319 
" />
<path d="M 93.331, 708.696 
	L 93.331, 708.697 
	L 93.331, 441.319 
" />
<path d="M 97.938, 708.696 
	L 97.937, 708.697 
	L 97.937, 441.319 
" />
<path d="M 102.544, 708.696 
	L 102.543, 708.697 
	L 102.543, 441.319 
" />
<path d="M 107.150, 708.696 
	L 107.150, 708.697 
	L 107.150, 441.319 
" />
<path d="M 111.757, 708.696 
	L 111.756, 708.697 
	L 111.756, 441.319 
" />
<path d="M 116.363, 708.696 
	L 116.362, 708.697 
	L 116.362, 441.319 
" />
<path d="M 120.969, 708.696 
	L 120.969, 708.697 
	L 120.969, 441.319 
" />
<path d="M 125.576, 708.696 
	L 125.575, 708.697 
	L 125.575, 441.319 
" />
<path d="M 130.182, 708.696 
	L 130.181, 708.697 
	L 130.181, 441.319 
" />
<path d="M 134.788, 708.696 
	L 134.787, 708.697 
	L 134.787, 441.319 
" />
<path d="M 139.394, 708.696 
	L 139.394, 708.697 
	L 139.394, 441.319 
" />
<path d="M 144.001, 708.696 
	L 144.000, 708.697 
	L 144.000, 441.319 
" />
<path d="M 148.607, 708.696 
	L 148.606, 708.697 
	L 148.606, 441.319 
" />
<path d="M 153.213, 708.696 
	L 153.213, 708.697 
	L 153.213, 441.319 
" />
<path d="M 157.820, 708.696 
	L 157.819, 708.697 
	L 157.819, 441.319 
" />
<path d="M 162.426, 708.696 
	L 162.425, 708.697 
	L 162.425, 441.319 
" />
<path d="M 167.032, 708.696 
	L 167.032, 708.697 
	L 167.032, 441.319 
" />
<path d="M 171.639, 708.696 
	L 171.638, 708.697 
	L 171.638, 441.319 
" />
<path d="M 176.245, 708.696 
	L 176.244, 708.697 
	L 176.244, 441.319 
" />
<path d="M 180.851, 708.696 
	L 180.850, 708.697 
	L 180.850, 441.319 
" />
<path d="M 185.457, 708.696 
	L 185.457, 708.697 
	L 185.457, 441.319 
" />
<path d="M 190.064, 708.696 
	L 190.063, 708.697 
	L 190.063, 441.319 
" />
<path d="M 194.670, 708.696 
	L 194.669, 708.697 
	L 194.669, 441.319 
" />
<path d="M 199.276, 708.696 
	L 199.276, 708.697 
	L 199.276, 441.319 
" />
<path d="M 203.883, 708.696 
	L 203.882, 708.697 
	L 203.882, 441.319 
" />
<path d="M 208.489, 708.696 
	L 208.488, 708.697 
	L 208.488, 441.319 
" />
<path d="M 213.095, 708.696 
	L 213.095, 708.697 
	L 213.095, 441.319 
" />
<path d="M 217.702, 708.696 
	L 217.701, 708.697 
	L 217.701, 441.319 
" />
<path d="M 222.308, 708.696 
	L 222.307, 708.697 
	L 222.307, 441.319 
" />
<path d="M 226.914, 708.696 
	L 226.913, 708.697 
	L 226.913, 441.319 
" />
<path d="M 231.520, 708.696 
	L 231.520, 708.697 
	L 231.520, 441.319 
" />
<path d="M 236.127, 708.696 
	L 236.126, 708.697 
	L 236.126, 441.319 
" />
<path d="M 240.733, 708.696 
	L 240.732, 708.697 
	L 240.732, 441.319 
" />
<path d="M 245.339, 708.696 
	L 245.339, 708.697 
	L 245.339, 441.319 
" />
<path d="M 249.946, 708.696 
	L 249.945, 708.697 
	L 249.945, 441.319 
" />
<path d="M 254.552, 708.696 
	L 254.551, 708.697 
	L 254.551, 441.319 
" />
<path d="M 259.158, 708.696 
	L 259.158, 708.697 
	L 259.158, 441.319 
" />
<path d="M 263.765, 708.696 
	L 263.764, 708.697 
	L 263.764, 441.319 
" />
<path d="M 268.371, 708.696 
	L 268.370, 708.697 
	L 268.370, 441.319 
" />
<path d="M 272.977, 708.696 
	L 272.976, 708.697 
	L 272.976, 441.319 
" />
<path d="M 277.583, 708.696 
	L 277.583, 708.697 
	L 277.583, 441.319 
" />
<path d="M 282.190, 708.696 
	L 282.189, 708.697 
	L 282.189, 441.319 
" />
<path d="M 286.796, 708.696 
	L 286.795, 708.697 
	L 286.795, 441.319 
" />
<path d="M 291.402, 708.696 
	L 291.402, 708.697 
	L 291.402, 441.319 
" />
<path d="M 296.009, 708.696 
	L 296.008, 708.697 
	L 296.008, 441.319 
" />
<path d="M 300.615, 708.696 
	L 300.614, 708.697 
	L 300.614, 441.319 
" />
<path d="M 305.221, 708.696 
	L 305.221, 708.697 
	L 305.221, 441.319 
" />
<path d="M 309.828, 708.696 
	L 309.827, 708.697 
	L 309.827, 441.319 
" />
<path d="M 314.434, 708.696 
	L 314.433, 708.697 
	L 314.433, 441.319 
" />
<path d="M 319.040, 708.696 
	L 319.039, 708.697 
	L 319.039, 441.319 
" />
<path d="M 323.646, 708.696 
	L 323.646, 708.697 
	L 323.646, 441.319 
" />
<path d="M 328.253, 708.696 
	L 328.252, 708.697 
	L 328.252, 441.319 
" />
<path d="M 332.859, 708.696 
	L 332.858, 708.697 
	L 332.858, 441.319 
" />
<path d="M 337.465, 708.696 
	L 337.465, 708.697 
	L 337.465, 441.319 
" />
<path d="M 342.072, 708.696 
	L 342.071, 708.697 
	L 342.071, 441.319 
" />
<path d="M 346.678, 708.696 
	L 346.677, 708.697 
	L 346.677, 441.319 
" />
<path d="M 351.284, 708.696 
	L 351.284, 708.697 
	L 351.284, 441.319 
" />
<path d="M 355.891, 708.696 
	L 355.890, 708.697 
	L 355.890, 441.319 
" />
<path d="M 360.497, 708.696 
	L 360.496, 708.697 
	L 360.496, 441.319 
" />
<path d="M 365.103, 708.696 
	L 365.102, 708.697 
	L 365.102, 441.319 
" />
<path d="M 369.709, 708.696 
	L 369.709, 708.697 
	L 369.709, 441.319 
" />
<path d="M 374.316, 708.696 
	L 374.315, 708.697 
	L 374.315, 441.319 
" />
<path d="M 378.922, 708.696 
	L 378.921, 708.697 
	L 378.921, 441.319 
" />
<path d="M 383.528, 708.696 
	L 383.528, 708.697 
	L 383.528, 441.319 
" />
<path d="M 388.135, 708.696 
	L 388.134, 708.697 
	L 388.134, 441.319 
" />
<path d="M 392.741, 708.696 
	L 392.740, 708.697 
	L 392.740, 441.319 
" />
<path d="M 397.347, 708.696 
	L 397.347, 708.697 
	L 397.347, 441.319 
" />
<path d="M 401.954, 708.696 
	L 401.953, 708.697 
	L 401.953, 441.319 
" />
<path d="M 406.560, 708.696 
	L 406.559, 708.697 
	L 406.559, 441.319 
" />
<path d="M 411.166, 708.696 
	L 411.165, 708.697 
	L 411.165, 441.319 
" />
<path d="M 415.772, 708.696 
	L 415.772, 708.697 
	L 415.772, 441.319 
" />
<path d="M 420.379, 708.696 
	L 420.378, 708.697 
	L 420.378, 441.319 
" />
<path d="M 424.985, 708.696 
	L 424.984, 708.697 
	L 424.984, 441.319 
" />
<path d="M 429.591, 708.696 
	L 429.591, 708.697 
	L 429.591, 441.319 
" />
<path d="M 434.198, 708.696 
	L 434.197, 708.697 
	L 434.197, 441.319 
" />
<path d="M 438.804, 708.696 
	L 438.803, 708.697 
	L 438.803, 441.319 
" />
<path d="M 443.410, 708.696 
	L 443.410, 708.697 
	L 443.410, 441.319 
" />
<path d="M 448.017, 708.696 
	L 448.016, 708.697 
	L 448.016, 441.319 
" />
<path d="M 452.623, 708.696 
	L 452.622, 708.697 
	L 452.622, 441.319 
" />
<path d="M 457.229, 708.696 
	L 457.228, 708.697 
	L 457.228, 441.319 
" />
<path d="M 461.835, 708.696 
	L 461.835, 708.697 
	L 461.835, 441.319 
" />
<path d="M 466.442, 708.696 
	L 466.441, 708.697 
	L 466.441, 441.319 
" />
<path d="M 471.048, 708.696 
	L 471.047, 708.697 
	L 471.047, 441.319 
" />
<path d="M 475.654, 708.696 
	L 475.654, 708.697 
	L 475.654, 441.319 
" />
<path d="M 480.261, 708.696 
	L 480.260, 708.697 
	L 480.260, 441.319 
" />
<path d="M 484.867, 708.696 
	L 484.866, 708.697 
	L 484.866, 441.319 
" />
<path d="M 489.473, 708.696 
	L 489.473, 708.697 
	L 489.473, 441.319 
" />
<path d="M 494.080, 708.696 
	L 494.079, 708.697 
	L 494.079, 441.319 
" />
<path d="M 498.686, 708.696 
	L 498.685, 708.697 
	L 498.685, 441.319 
" />
<path d="M 503.292, 708.696 
	L 503.291, 708.697 
	L 503.291, 441.319 
" />
<path d="M 507.898, 708.696 
	L 507.898, 708.697 
	L 507.898, 441.319 
" />
<path d="M 512.505, 708.696 
	L 512.504, 708.697 
	L 512.504, 441.319 
" />
<path d="M 517.111, 708.696 
	L 517.110, 708.697 
	L 517.110, 441.319 
" />
<path d="M 521.717, 708.696 
	L 521.717, 708.697 
	L 521.717, 441.319 
" />
<path d="M 526.324, 708.696 
	L 526.323, 708.697 
	L 526.323, 441.319 
" />
<path d="M 530.930, 708.696 
	L 530.929, 708.697 
	L 530.929, 441.319 
" />
<path d="M 535.536, 708.696 
	L 535.536, 708.697 
	L 535.536, 441.319 
" />
<path d="M 540.143, 708.696 
	L 540.142, 708.697 
	L 540.142, 441.319 
" />
<path d="M 544.749, 708.696 
	L 544.748, 708.697 
	L 544.748, 441.319 
" />
<path d="M 549.355, 708.696 
	L 549.354, 708.697 
	L 549.354, 441.319 
" />
<path d="M 553.961, 708.696 
	L 553.961, 708.697 
	L 553.961, 441.319 
" />
<path d="M 558.568, 708.696 
	L 558.567, 708.697 
	L 558.567, 441.319 
" />
<path d="M 563.174, 708.696 
	L 563.173, 708.697 
	L 563.173, 441.319 
" />
<path d="M 567.780, 708.696 
	L 567.780, 708.697 
	L 567.780, 441.319 
" />
<path d="M 572.387, 708.696 
	L 572.386, 708.697 
	L 572.386, 441.319 
" />
<path d="M 576.993, 708.696 
	L 576.992, 708.697 
	L 576.992, 441.319 
" />
<path d="M 581.599, 708.696 
	L 581.599, 708.697 
	L 581.599, 441.319 
" />
<path d="M 586.206, 708.696 
	L 586.205, 708.697 
	L 586.205, 441.319 
" />
<path d="M 590.812, 708.696 
	L 590.811, 708.697 
	L 590.811, 441.319 
" />
<path d="M 595.418, 708.696 
	L 595.417, 708.697 
	L 595.417, 441.319 
" />
<path d="M 600.024, 708.696 
	L 600.024, 708.697 
	L 600.024, 441.319 
" />
<path d="M 604.631, 708.696 
	L 604.630, 708.697 
	L 604.630, 441.319 
" />
<path d="M 609.237, 708.696 
	L 609.236, 708.697 
	L 609.236, 441.319 
" />
<path d="M 613.843, 708.696 
	L 613.843, 708.697 
	L 613.843, 441.319 
" />
<path d="M 618.450, 708.696 
	L 618.449, 708.697 
	L 618.449, 441.319 
" />
<path d="M 623.056, 708.696 
	L 623.055, 708.697 
	L 623.055, 441.319 
" />
<path d="M 627.662, 708.696 
	L 627.662, 708.697 
	L 627.662, 441.319 
" />
<path d="M 632.269, 708.696 
	L 632.268, 708.697 
	L 632.268, 441.319 
" />
<path d="M 636.875, 708.696 
	L 636.874, 708.697 
	L 636.874, 441.319 
" />
<path d="M 641.481, 708.696 
	L 641.480, 708.697 
	L 641.480, 441.319 
" />
<path d="M 646.087, 708.696 
	L 646.087, 708.697 
	L 646.087, 441.319 
" />
<path d="M 650.694, 708.696 
	L 650.693, 708.697 
	L 650.693, 441.319 
" />
<path d="M 655.300, 708.696 
	L 655.299, 708.697 
	L 655.299, 441.319 
" />
<path d="M 659.906, 708.696 
	L 659.906, 708.697 
	L 659.906, 441.319 
" />
<path d="M 664.513, 708.696 
	L 664.512, 708.697 
	L 664.512, 441.319 
" />
<path d="M 669.119, 708.696 
	L 669.118, 708.697 
	L 669.118, 441.319 
" />
<path d="M 673.725, 708.696 
	L 673.725, 708.697 
	L 673.725, 441.319 
" />
<path d="M 678.332, 708.696 
	L 678.331, 708.697 
	L 678.331, 441.319 
" />
<path d="M 682.938, 708.696 
	L 682.937, 708.697 
	L 682.937, 441.319 
" />
<path d="M 687.544, 708.696 
	L 687.543, 708.697 
	L 687.543, 441.319 
" />
</g><g style="stroke:rgb(255,0,0); fill:none; stroke-width:0.100mm" >
<path d="M 10.383, 441.354 
	L 10.382, 441.354 
	L 10.382, 0.071 
	L 694.595, 0.071 
	L 694.595, 441.354 
	L 10.382, 441.354 
" />
<path d="M 10.418, 441.318 
	L 10.417, 441.319 
	L 10.417, 0.035 
" />
<path d="M 15.024, 441.318 
	L 15.024, 441.319 
	L 15.024, 0.035 
" />
<path d="M 19.631, 441.318 
	L 19.630, 441.319 
	L 19.630, 0.035 
" />
<path d="M 24.237, 441.318 
	L 24.236, 441.319 
	L 24.236, 0.035 
" />
<path d="M 28.843, 441.318 
	L 28.843, 441.319 
	L 28.843, 0.035 
" />
<path d="M 33.450, 441.318 
	L 33.449, 441.319 
	L 33.449, 0.035 
" />
<path d="M 38.056, 441.318 
	L 38.055, 441.319 
	L 38.055, 0.035 
" />
<path d="M 42.662, 441.318 
	L 42.661, 441.319 
	L 42.661, 0.035 
" />
<path d="M 47.268, 441.318 
	L 47.268, 441.319 
	L 47.268, 0.035 
" />
<path d="M 51.875, 441.318 
	L 51.874, 441.319 
	L 51.874, 0.035 
" />
<path d="M 56.481, 441.318 
	L 56.480, 441.319 
	L 56.480, 0.035 
" />
<path d="M 61.087, 441.318 
	L 61.087, 441.319 
	L 61.087, 0.035 
" />
<path d="M 65.694, 441.318 
	L 65.693, 441.319 
	L 65.693, 0.035 
" />
<path d="M 70.300, 441.318 
	L 70.299, 441.319 
	L 70.299, 0.035 
" />
<path d="M 74.906, 441.318 
	L 74.906, 441.319 
	L 74.906, 0.035 
" />
<path d="M 79.513, 441.318 
	L 79.512, 441.319 
	L 79.512, 0.035 
" />
<path d="M 84.119, 441.318 
	L 84.118, 441.319 
	L 84.118, 0.035 
" />
<path d="M 88.725, 441.318 
	L 88.724, 441.319 
	L 88.724, 0.035 
" />
<path d="M 93.331, 441.318 
	L 93.331, 441.319 
	L 93.331, 0.035 
" />
<path d="M 97.938, 441.318 
	L 97.937, 441.319 
	L 97.937, 0.035 
" />
<path d="M 102.544, 441.318 
	L 102.543, 441.319 
	L 102.543, 0.035 
" />
<path d="M 107.150, 441.318 
	L 107.150, 441.319 
	L 107.150, 0.035 
" />
<path d="M 111.757, 441.318 
	L 111.756, 441.319 
	L 111.756, 0.035 
" />
<path d="M 116.363, 441.318 
	L 116.362, 441.319 
	L 116.362, 0.035 
" />
<path d="M 120.969, 441.318 
	L 120.969, 441.319 
	L 120.969, 0.035 
" />
<path d="M 125.576, 441.318 
	L 125.575, 441.319 
	L 125.575, 0.035 
" />
<path d="M 130.182, 441.318 
	L 130.181, 441.319 
	L 130.181, 0.035 
" />
<path d="M 134.788, 441.318 
	L 134.787, 441.319 
	L 134.787, 0.035 
" />
<path d="M 139.394, 441.318 
	L 139.394, 441.319 
	L 139.394, 0.035 
" />
<path d="M 144.001, 441.318 
	L 144.000, 441.319 
	L 144.000, 0.035 
" />
<path d="M 148.607, 441.318 
	L 148.606, 441.319 
	L 148.606, 0.035 
" />
<path d="M 153.213, 441.318 
	L 153.213, 441.319 
	L 153.213, 0.035 
" />
<path d="M 157.820, 441.318 
	L 157.819, 441.319 
	L 157.819, 0.035 
" />
<path d="M 162.426, 441.318 
	L 162.425, 441.319 
	L 162.425, 0.035 
" />
<path d="M 167.032, 441.318 
	L 167.032, 441.319 
	L 167.032, 0.035 
" />
<path d="M 171.639, 441.318 
	L 171.638, 441.319 
	L 171.638, 0.035 
" />
<path d="M 176.245, 441.318 
	L 176.244, 441.319 
	L 176.244, 0.035 
" />
<path d="M 180.851, 441.318 
	L 180.850, 441.319 
	L 180.850, 0.035 
" />
<path d="M 185.457, 441.318 
	L 185.457, 441.319 
	L 185.457, 0.035 
" />
<path d="M 190.064, 441.318 
	L 190.063, 441.319 
	L 190.063, 0.035 
" />
<path d="M 194.670, 441.318 
	L 194.669, 441.319 
	L 194.669, 0.035 
" />
<path d="M 199.276, 441.318 
	L 199.276, 441.319 
	L 199.276, 0.035 
" />
<path d="M 203.883, 441.318 
	L 203.882, 441.319 
	L 203.882, 0.035 
" />
<path d="M 208.489, 441.318 
	L 208.488, 441.319 
	L 208.488, 0.035 
" />
<path d="M 213.095, 441.318 
	L 213.095, 441.319 
	L 213.095, 0.035 
" />
<path d="M 217.702, 441.318 
	L 217.701, 441.319 
	L 217.701, 0.035 
" />
<path d="M 222.308, 441.318 
	L 222.307, 441.319 
	L 222.307, 0.035 
" />
<path d="M 226.914, 441.318 
	L 226.913, 441.319 
	L 226.913, 0.035 
" />
<path d="M 231.520, 441.318 
	L 231.520, 441.319 
	L 231.520, 0.035 
" />
<path d="M 236.127, 441.318 
	L 236.126, 441.319 
	L 236.126, 0.035 
" />
<path d="M 240.733, 441.318 
	L 240.732, 441.319 
	L 240.732, 0.035 
" />
<path d="M 245.339, 441.318 
	L 245.339, 441.319 
	L 245.339, 0.035 
" />
<path d="M 249.946, 441.318 
	L 249.945, 441.319 
	L 249.945, 0.035 
" />
<path d="M 254.552, 441.318 
	L 254.551, 441.319 
	L 254.551, 0.035 
" />
<path d="M 259.158, 441.318 
	L 259.158, 441.319 
	L 259.158, 0.035 
" />
<path d="M 263.765, 441.318 
	L 263.764, 441.319 
	L 263.764, 0.035 
" />
<path d="M 268.371, 441.318 
	L 268.370, 441.319 
	L 268.370, 0.035 
" />
<path d="M 272.977, 441.318 
	L 272.976, 441.319 
	L 272.976, 0.035 
" />
<path d="M 277.583, 441.318 
	L 277.583, 441.319 
	L 277.583, 0.035 
" />
<path d="M 282.190, 441.318 
	L 282.189, 441.319 
	L 282.189, 0.035 
" />
<path d="M 286.796, 441.318 
	L 286.795, 441.319 
	L 286.795, 0.035 
" />
<path d="M 291.402, 441.318 
	L 291.402, 441.319 
	L 291.402, 0.035 
" />
<path d="M 296.009, 441.318 
	L 296.008, 441.319 
	L 296.008, 0.035 
" />
<path d="M 300.615, 441.318 
	L 300.614, 441.319 
	L 300.614, 0.035 
" />
<path d="M 305.221, 441.318 
	L 305.221, 441.319 
	L 305.221, 0.035 
" />
<path d="M 309.828, 441.318 
	L 309.827, 441.319 
	L 309.827, 0.035 
" />
<path d="M 314.434, 441.318 
	L 314.433, 441.319 
	L 314.433, 0.035 
" />
<path d="M 319.040, 441.318 
	L 319.039, 441.319 
	L 319.039, 0.035 
" />
<path d="M 323.646, 441.318 
	L 323.646, 441.319 
	L 323.646, 0.035 
" />
<path d="M 328.253, 441.318 
	L 328.252, 441.319 
	L 328.252, 0.035 
" />
<path d="M 332.859, 441.318 
	L 332.858, 441.319 
	L 332.858, 0.035 
" />
<path d="M 337.465, 441.318 
	L 337.465, 441.319 
	L 337.465, 0.035 
" />
<path d="M 342.072, 441.318 
	L 342.071, 441.319 
	L 342.071, 0.035 
" />
<path d="M 346.678, 441.318 
	L 346.677, 441.319 
	L 346.677, 0.035 
" />
<path d="M 351.284, 441.318 
	L 351.284, 441.319 
	L 351.284, 0.035 
" />
<path d="M 355.891, 441.318 
	L 355.890, 441.319 
	L 355.890, 0.035 
" />
<path d="M 360.497, 441.318 
	L 360.496, 441.319 
	L 360.496, 0.035 
" />
<path d="M 365.103, 441.318 
	L 365.102, 441.319 
	L 365.102, 0.035 
" />
<path d="M 369.709, 441.318 
	L 369.709, 441.319 
	L 369.709, 0.035 
" />
<path d="M 374.316, 441.318 
	L 374.315, 441.319 
	L 374.315, 0.035 
" />
<path d="M 378.922, 441.318 
	L 378.921, 441.319 
	L 378.921, 0.035 
" />
<path d="M 383.528, 441.318 
	L 383.528, 441.319 
	L 383.528, 0.035 
" />
<path d="M 388.135, 441.318 
	L 388.134, 441.319 
	L 388.134, 0.035 
" />
<path d="M 392.741, 441.318 
	L 392.740, 441.319 
	L 392.740, 0.035 
" />
<path d="M 397.347, 441.318 
	L 397.347, 441.319 
	L 397.347, 0.035 
" />
<path d="M 401.954, 441.318 
	L 401.953, 441.319 
	L 401.953, 0.035 
" />
<path d="M 406.560, 441.318 
	L 406.559, 441.319 
	L 406.559, 0.035 
" />
<path d="M 411.166, 441.318 
	L 411.165, 441.319 
	L 411.165, 0.035 
" />
<path d="M 415.772, 441.318 
	L 415.772, 441.319 
	L 415.772, 0.035 
" />
<path d="M 420.379, 441.318 
	L 420.378, 441.319 
	L 420.378, 0.035 
" />
<path d="M 424.985, 441.318 
	L 424.984, 441.319 
	L 424.984, 0.035 
" />
<path d="M 429.591, 441.318 
	L 429.591, 441.319 
	L 429.591, 0.035 
" />
<path d="M 434.198, 441.318 
	L 434.197, 441.319 
	L 434.197, 0.035 
" />
<path d="M 438.804, 441.318 
	L 438.803, 441.319 
	L 438.803, 0.035 
" />
<path d="M 443.410, 441.318 
	L 443.410, 441.319 
	L 443.410, 0.035 
" />
<path d="M 448.017, 441.318 
	L 448.016, 441.319 
	L 448.016, 0.035 
" />
<path d="M 452.623, 441.318 
	L 452.622, 441.319 
	L 452.622, 0.035 
" />
<path d="M 457.229, 441.318 
	L 457.228, 441.319 
	L 457.228, 0.035 
" />
<path d="M 461.835, 441.318 
	L 461.835, 441.319 
	L 461.835, 0.035 
" />
<path d="M 466.442, 441.318 
	L 466.441, 441.319 
	L 466.441, 0.035 
" />
<path d="M 471.048, 441.318 
	L 471.047, 441.319 
	L 471.047, 0.035 
" />
<path d="M 475.654, 441.318 
	L 475.654, 441.319 
	L 475.654, 0.035 
" />
<path d="M 480.261, 441.318 
	L 480.260, 441.319 
	L 480.260, 0.035 
" />
<path d="M 484.867, 441.318 
	L 484.866, 441.319 
	L 484.866, 0.035 
" />
<path d="M 489.473, 441.318 
	L 489.473, 441.319 
	L 489.473, 0.035 
" />
<path d="M 494.080, 441.318 
	L 494.079, 441.319 
	L 494.079, 0.035 
" />
<path d="M 498.686, 441.318 
	L 498.685, 441.319 
	L 498.685, 0.035 
" />
<path d="M 503.292, 441.318 
	L 503.291, 441.319 
	L 503.291, 0.035 
" />
<path d="M 507.898, 441.318 
	L 507.898, 441.319 
	L 507.898, 0.035 
" />
<path d="M 512.505, 441.318 
	L 512.504, 441.319 
	L 512.504, 0.035 
" />
<path d="M 517.111, 441.318 
	L 517.110, 441.319 
	L 517.110, 0.035 
" />
<path d="M 521.717, 441.318 
	L 521.717, 441.319 
	L 521.717, 0.035 
" />
<path d="M 526.324, 441.318 
	L 526.323, 441.319 
	L 526.323, 0.035 
" />
<path d="M 530.930, 441.318 
	L 530.929, 441.319 
	L 530.929, 0.035 
" />
<path d="M 535.536, 441.318 
	L 535.536, 441.319 
	L 535.536, 0.035 
" />
<path d="M 540.143, 441.318 
	L 540.142, 441.319 
	L 540.142, 0.035 
" />
<path d="M 544.749, 441.318 
	L 544.748, 441.319 
	L 544.748, 0.035 
" />
<path d="M 549.355, 441.318 
	L 549.354, 441.319 
	L 549.354, 0.035 
" />
<path d="M 553.961, 441.318 
	L 553.961, 441.319 
	L 553.961, 0.035 
" />
<path d="M 558.568, 441.318 
	L 558.567, 441.319 
	L 558.567, 0.035 
" />
<path d="M 563.174, 441.318 
	L 563.173, 441.319 
	L 563.173, 0.035 
" />
<path d="M 567.780, 441.318 
	L 567.780, 441.319 
	L 567.780, 0.035 
" />
<path d="M 572.387, 441.318 
	L 572.386, 441.319 
	L 572.386, 0.035 
" />
<path d="M 576.993, 441.318 
	L 576.992, 441.319 
	L 576.992, 0.035 
" />
<path d="M 581.599, 441.318 
	L 581.599, 441.319 
	L 581.599, 0.035 
" />
<path d="M 586.206, 441.318 
	L 586.205, 441.319 
	L 586.205, 0.035 
" />
<path d="M 590.812, 441.318 
	L 590.811, 441.319 
	L 590.811, 0.035 
" />
<path d="M 595.418, 441.318 
	L 595.417, 441.319 
	L 595.417, 0.035 
" />
<path d="M 600.024, 441.318 
	L 600.024, 441.319 
	L 600.024, 0.035 
" />
<path d="M 604.631, 441.318 
	L 604.630, 441.319 
	L 604.630, 0.035 
" />
<path d="M 609.237, 441.318 
	L 609.236, 441.319 
	L 609.236, 0.035 
" />
<path d="M 613.843, 441.318 
	L 613.843, 441.319 
	L 613.843, 0.035 
" />
<path d="M 618.450, 441.318 
	L 618.449, 441.319 
	L 618.449, 0.035 
" />
<path d="M 623.056, 441.318 
	L 623.055, 441.319 
	L 623.055, 0.035 
" />
<path d="M 627.662, 441.318 
	L 627.662, 441.319 
	L 627.662, 0.035 
" />
<path d="M 632.269, 441.318 
	L 632.268, 441.319 
	L 632.268, 0.035 
" />
<path d="M 636.875, 441.318 
	L 636.874, 441.319 
	L 636.874, 0.035 
" />
<path d="M 641.481, 441.318 
	L 641.480, 441.319 
	L 641.480, 0.035 
" />
<path d="M 646.087, 441.318 
	L 646.087, 441.319 
	L 646.087, 0.035 
" />
<path d="M 650.694, 441.318 
	L 650.693, 441.319 
	L 650.693, 0.035 
" />
<path d="M 655.300, 441.318 
	L 655.299, 441.319 
	L 655.299, 0.035 
" />
<path d="M 659.906, 441.318 
	L 659.906, 441.319 
	L 659.906, 0.035 
" />
<path d="M 664.513, 441.318 
	L 664.512, 441.319 
	L 664.512, 0.035 
" />
<path d="M 669.119, 441.318 
	L 669.118, 441.319 
	L 669.118, 0.035 
" />
<path d="M 673.725, 441.318 
	L 673.725, 441.319 
	L 673.725, 0.035 
" />
<path d="M 678.332, 441.318 
	L 678.331, 441.319 
	L 678.331, 0.035 
" />
<path d="M 682.938, 441.318 
	L 682.937, 441.319 
	L 682.937, 0.035 
" />
<path d="M 687.544, 441.318 
	L 687.543, 441.319 
	L 687.543, 0.035 
" />
</g><g style="stroke:rgb(0,255,0); fill:none; stroke-width:0.100mm" >
<path d="M 0.249, 441.354 
	L 0.248, 441.354 
	L 0.248, 0.071 
	L 24.697, 0.071 
	L 24.697, 441.354 
	L 0.248, 441.354 
" />
<path d="M 0.284, 441.318 
	L 0.283, 441.319 
	L 0.283, 0.035 
" />
<path d="M 4.820, 441.318 
	L 4.819, 441.319 
	L 4.819, 0.035 
" />
<path d="M 9.355, 441.318 
	L 9.354, 441.319 
	L 9.354, 0.035 
" />
<path d="M 13.890, 441.318 
	L 13.890, 441.319 
	L 13.890, 0.035 
" />
<path d="M 18.426, 441.318 
	L 18.425, 441.319 
	L 18.425, 0.035 
" />
</g><g style="stroke:rgb(0,0,255); fill:none; stroke-width:0.100mm" >
<path d="M 0.249, 708.732 
	L 0.248, 708.732 
	L 0.248, 441.354 
	L 24.697, 441.354 
	L 24.697, 708.732 
	L 0.248, 708.732 
" />
<path d="M 0.284, 708.696 
	L 0.283, 708.697 
	L 0.283, 441.319 
" />
<path d="M 4.820, 708.696 
	L 4.819, 708.697 
	L 4.819, 441.319 
" />
<path d="M 9.355, 708.696 
	L 9.354, 708.697 
	L 9.354, 441.319 
" />
<path d="M 13.890, 708.696 
	L 13.890, 708.697 
	L 13.890, 441.319 
" />
<path d="M 18.426, 708.696 
	L 18.425, 708.697 
	L 18.425, 441.319 
" />
</g>
</svg>
