<?xml version="1.0" encoding="UTF-8" standalone="no" ?>
<svg width="100%" height="100%" viewBox="0 0 708.662 708.662" xmlns="http://www.w3.org/2000/svg"><g>
</g><g style="stroke:rgb(0,0,0); fill:none; stroke-width:1.000mm" >
</g><g style="stroke:rgb(0,255,0); fill:none; stroke-width:0.100mm" >
<path d="M 0.001, 708.661 
	L 0.000, 708.662 
	L 0.000, 0.000 
	L 708.662, 0.000 
	L 708.662, 708.662 
	L 0.000, 708.662 
" />
<path d="M 354.331, 687.401 
	L 354.331, 687.402 
	L 354.331, 616.536 
	L 425.197, 616.536 
	L 425.197, 687.402 
	L 354.331, 687.402 
" />
<path d="M 354.331, 687.401 
	L 354.331, 687.402 
	L 354.331, 616.536 
" />
<path d="M 360.001, 687.401 
	L 360.000, 687.402 
	L 360.000, 616.536 
" />
<path d="M 365.670, 687.401 
	L 365.669, 687.402 
	L 365.669, 616.536 
" />
<path d="M 371.339, 687.401 
	L 371.339, 687.402 
	L 371.339, 616.536 
" />
<path d="M 377.009, 687.401 
	L 377.008, 687.402 
	L 377.008, 616.536 
" />
<path d="M 382.678, 687.401 
	L 382.677, 687.402 
	L 382.677, 616.536 
" />
<path d="M 388.347, 687.401 
	L 388.347, 687.402 
	L 388.347, 616.536 
" />
<path d="M 394.017, 687.401 
	L 394.016, 687.402 
	L 394.016, 616.536 
" />
<path d="M 399.686, 687.401 
	L 399.685, 687.402 
	L 399.685, 616.536 
" />
<path d="M 405.355, 687.401 
	L 405.354, 687.402 
	L 405.354, 616.536 
" />
<path d="M 411.024, 687.401 
	L 411.024, 687.402 
	L 411.024, 616.536 
" />
<path d="M 416.694, 687.401 
	L 416.693, 687.402 
	L 416.693, 616.536 
" />
</g>
</svg>
