<?xml version="1.0" encoding="UTF-8" standalone="no" ?>
<svg width="100%" height="100%" viewBox="0 0 708.662 708.697" xmlns="http://www.w3.org/2000/svg"><g>
</g><g style="stroke:rgb(0,0,0); fill:none; stroke-width:1.000mm" >
</g><g style="stroke:rgb(0,255,0); fill:none; stroke-width:0.100mm" >
<path d="M 0.001, 708.696 
	L 0.000, 708.697 
	L 0.000, 0.035 
	L 708.662, 0.035 
	L 708.662, 708.697 
	L 0.000, 708.697 
" />
</g><g style="stroke:rgb(0,0,0); fill:none; stroke-width:0.100mm" >
<path d="M 4.359, 708.732 
	L 4.358, 708.732 
	L 4.358, 415.134 
	L 296.681, 415.134 
	L 296.681, 708.732 
	L 4.358, 708.732 
" />
<path d="M 4.394, 708.696 
	L 4.394, 708.697 
	L 4.394, 415.098 
" />
<path d="M 9.001, 708.696 
	L 9.000, 708.697 
	L 9.000, 415.098 
" />
<path d="M 13.607, 708.696 
	L 13.606, 708.697 
	L 13.606, 415.098 
" />
<path d="M 18.213, 708.696 
	L 18.213, 708.697 
	L 18.213, 415.098 
" />
<path d="M 22.820, 708.696 
	L 22.819, 708.697 
	L 22.819, 415.098 
" />
<path d="M 27.426, 708.696 
	L 27.425, 708.697 
	L 27.425, 415.098 
" />
<path d="M 32.032, 708.696 
	L 32.032, 708.697 
	L 32.032, 415.098 
" />
<path d="M 36.639, 708.696 
	L 36.638, 708.697 
	L 36.638, 415.098 
" />
<path d="M 41.245, 708.696 
	L 41.244, 708.697 
	L 41.244, 415.098 
" />
<path d="M 45.851, 708.696 
	L 45.850, 708.697 
	L 45.850, 415.098 
" />
<path d="M 50.457, 708.696 
	L 50.457, 708.697 
	L 50.457, 415.098 
" />
<path d="M 55.064, 708.696 
	L 55.063, 708.697 
	L 55.063, 415.098 
" />
<path d="M 59.670, 708.696 
	L 59.669, 708.697 
	L 59.669, 415.098 
" />
<path d="M 64.276, 708.696 
	L 64.276, 708.697 
	L 64.276, 415.098 
" />
<path d="M 68.883, 708.696 
	L 68.882, 708.697 
	L 68.882, 415.098 
" />
<path d="M 73.489, 708.696 
	L 73.488, 708.697 
	L 73.488, 415.098 
" />
<path d="M 78.095, 708.696 
	L 78.095, 708.697 
	L 78.095, 415.098 
" />
<path d="M 82.702, 708.696 
	L 82.701, 708.697 
	L 82.701, 415.098 
" />
<path d="M 87.308, 708.696 
	L 87.307, 708.697 
	L 87.307, 415.098 
" />
<path d="M 91.914, 708.696 
	L 91.913, 708.697 
	L 91.913, 415.098 
" />
<path d="M 96.520, 708.696 
	L 96.520, 708.697 
	L 96.520, 415.098 
" />
<path d="M 101.127, 708.696 
	L 101.126, 708.697 
	L 101.126, 415.098 
" />
<path d="M 105.733, 708.696 
	L 105.732, 708.697 
	L 105.732, 415.098 
" />
<path d="M 110.339, 708.696 
	L 110.339, 708.697 
	L 110.339, 415.098 
" />
<path d="M 114.946, 708.696 
	L 114.945, 708.697 
	L 114.945, 415.098 
" />
<path d="M 119.552, 708.696 
	L 119.551, 708.697 
	L 119.551, 415.098 
" />
<path d="M 124.158, 708.696 
	L 124.157, 708.697 
	L 124.157, 415.098 
" />
<path d="M 128.765, 708.696 
	L 128.764, 708.697 
	L 128.764, 415.098 
" />
<path d="M 133.371, 708.696 
	L 133.370, 708.697 
	L 133.370, 415.098 
" />
<path d="M 137.977, 708.696 
	L 137.976, 708.697 
	L 137.976, 415.098 
" />
<path d="M 142.583, 708.696 
	L 142.583, 708.697 
	L 142.583, 415.098 
" />
<path d="M 147.190, 708.696 
	L 147.189, 708.697 
	L 147.189, 415.098 
" />
<path d="M 151.796, 708.696 
	L 151.795, 708.697 
	L 151.795, 415.098 
" />
<path d="M 156.402, 708.696 
	L 156.402, 708.697 
	L 156.402, 415.098 
" />
<path d="M 161.009, 708.696 
	L 161.008, 708.697 
	L 161.008, 415.098 
" />
<path d="M 165.615, 708.696 
	L 165.614, 708.697 
	L 165.614, 415.098 
" />
<path d="M 170.221, 708.696 
	L 170.220, 708.697 
	L 170.220, 415.098 
" />
<path d="M 174.828, 708.696 
	L 174.827, 708.697 
	L 174.827, 415.098 
" />
<path d="M 179.434, 708.696 
	L 179.433, 708.697 
	L 179.433, 415.098 
" />
<path d="M 184.040, 708.696 
	L 184.039, 708.697 
	L 184.039, 415.098 
" />
<path d="M 188.646, 708.696 
	L 188.646, 708.697 
	L 188.646, 415.098 
" />
<path d="M 193.253, 708.696 
	L 193.252, 708.697 
	L 193.252, 415.098 
" />
<path d="M 197.859, 708.696 
	L 197.858, 708.697 
	L 197.858, 415.098 
" />
<path d="M 202.465, 708.696 
	L 202.465, 708.697 
	L 202.465, 415.098 
" />
<path d="M 207.072, 708.696 
	L 207.071, 708.697 
	L 207.071, 415.098 
" />
<path d="M 211.678, 708.696 
	L 211.677, 708.697 
	L 211.677, 415.098 
" />
<path d="M 216.284, 708.696 
	L 216.283, 708.697 
	L 216.283, 415.098 
" />
<path d="M 220.891, 708.696 
	L 220.890, 708.697 
	L 220.890, 415.098 
" />
<path d="M 225.497, 708.696 
	L 225.496, 708.697 
	L 225.496, 415.098 
" />
<path d="M 230.103, 708.696 
	L 230.102, 708.697 
	L 230.102, 415.098 
" />
<path d="M 234.709, 708.696 
	L 234.709, 708.697 
	L 234.709, 415.098 
" />
<path d="M 239.316, 708.696 
	L 239.315, 708.697 
	L 239.315, 415.098 
" />
<path d="M 243.922, 708.696 
	L 243.921, 708.697 
	L 243.921, 415.098 
" />
<path d="M 248.528, 708.696 
	L 248.528, 708.697 
	L 248.528, 415.098 
" />
<path d="M 253.135, 708.696 
	L 253.134, 708.697 
	L 253.134, 415.098 
" />
<path d="M 257.741, 708.696 
	L 257.740, 708.697 
	L 257.740, 415.098 
" />
<path d="M 262.347, 708.696 
	L 262.346, 708.697 
	L 262.346, 415.098 
" />
<path d="M 266.954, 708.696 
	L 266.953, 708.697 
	L 266.953, 415.098 
" />
<path d="M 271.560, 708.696 
	L 271.559, 708.697 
	L 271.559, 415.098 
" />
<path d="M 276.166, 708.696 
	L 276.165, 708.697 
	L 276.165, 415.098 
" />
<path d="M 280.772, 708.696 
	L 280.772, 708.697 
	L 280.772, 415.098 
" />
<path d="M 285.379, 708.696 
	L 285.378, 708.697 
	L 285.378, 415.098 
" />
<path d="M 289.985, 708.696 
	L 289.984, 708.697 
	L 289.984, 415.098 
" />
</g><g style="stroke:rgb(255,0,0); fill:none; stroke-width:0.100mm" >
<path d="M 4.359, 415.133 
	L 4.358, 415.134 
	L 4.358, 0.071 
	L 296.681, 0.071 
	L 296.681, 415.134 
	L 4.358, 415.134 
" />
<path d="M 4.394, 415.098 
	L 4.394, 415.098 
	L 4.394, 0.035 
" />
<path d="M 9.001, 415.098 
	L 9.000, 415.098 
	L 9.000, 0.035 
" />
<path d="M 13.607, 415.098 
	L 13.606, 415.098 
	L 13.606, 0.035 
" />
<path d="M 18.213, 415.098 
	L 18.213, 415.098 
	L 18.213, 0.035 
" />
<path d="M 22.820, 415.098 
	L 22.819, 415.098 
	L 22.819, 0.035 
" />
<path d="M 27.426, 415.098 
	L 27.425, 415.098 
	L 27.425, 0.035 
" />
<path d="M 32.032, 415.098 
	L 32.032, 415.098 
	L 32.032, 0.035 
" />
<path d="M 36.639, 415.098 
	L 36.638, 415.098 
	L 36.638, 0.035 
" />
<path d="M 41.245, 415.098 
	L 41.244, 415.098 
	L 41.244, 0.035 
" />
<path d="M 45.851, 415.098 
	L 45.850, 415.098 
	L 45.850, 0.035 
" />
<path d="M 50.457, 415.098 
	L 50.457, 415.098 
	L 50.457, 0.035 
" />
<path d="M 55.064, 415.098 
	L 55.063, 415.098 
	L 55.063, 0.035 
" />
<path d="M 59.670, 415.098 
	L 59.669, 415.098 
	L 59.669, 0.035 
" />
<path d="M 64.276, 415.098 
	L 64.276, 415.098 
	L 64.276, 0.035 
" />
<path d="M 68.883, 415.098 
	L 68.882, 415.098 
	L 68.882, 0.035 
" />
<path d="M 73.489, 415.098 
	L 73.488, 415.098 
	L 73.488, 0.035 
" />
<path d="M 78.095, 415.098 
	L 78.095, 415.098 
	L 78.095, 0.035 
" />
<path d="M 82.702, 415.098 
	L 82.701, 415.098 
	L 82.701, 0.035 
" />
<path d="M 87.308, 415.098 
	L 87.307, 415.098 
	L 87.307, 0.035 
" />
<path d="M 91.914, 415.098 
	L 91.913, 415.098 
	L 91.913, 0.035 
" />
<path d="M 96.520, 415.098 
	L 96.520, 415.098 
	L 96.520, 0.035 
" />
<path d="M 101.127, 415.098 
	L 101.126, 415.098 
	L 101.126, 0.035 
" />
<path d="M 105.733, 415.098 
	L 105.732, 415.098 
	L 105.732, 0.035 
" />
<path d="M 110.339, 415.098 
	L 110.339, 415.098 
	L 110.339, 0.035 
" />
<path d="M 114.946, 415.098 
	L 114.945, 415.098 
	L 114.945, 0.035 
" />
<path d="M 119.552, 415.098 
	L 119.551, 415.098 
	L 119.551, 0.035 
" />
<path d="M 124.158, 415.098 
	L 124.157, 415.098 
	L 124.157, 0.035 
" />
<path d="M 128.765, 415.098 
	L 128.764, 415.098 
	L 128.764, 0.035 
" />
<path d="M 133.371, 415.098 
	L 133.370, 415.098 
	L 133.370, 0.035 
" />
<path d="M 137.977, 415.098 
	L 137.976, 415.098 
	L 137.976, 0.035 
" />
<path d="M 142.583, 415.098 
	L 142.583, 415.098 
	L 142.583, 0.035 
" />
<path d="M 147.190, 415.098 
	L 147.189, 415.098 
	L 147.189, 0.035 
" />
<path d="M 151.796, 415.098 
	L 151.795, 415.098 
	L 151.795, 0.035 
" />
<path d="M 156.402, 415.098 
	L 156.402, 415.098 
	L 156.402, 0.035 
" />
<path d="M 161.009, 415.098 
	L 161.008, 415.098 
	L 161.008, 0.035 
" />
<path d="M 165.615, 415.098 
	L 165.614, 415.098 
	L 165.614, 0.035 
" />
<path d="M 170.221, 415.098 
	L 170.220, 415.098 
	L 170.220, 0.035 
" />
<path d="M 174.828, 415.098 
	L 174.827, 415.098 
	L 174.827, 0.035 
" />
<path d="M 179.434, 415.098 
	L 179.433, 415.098 
	L 179.433, 0.035 
" />
<path d="M 184.040, 415.098 
	L 184.039, 415.098 
	L 184.039, 0.035 
" />
<path d="M 188.646, 415.098 
	L 188.646, 415.098 
	L 188.646, 0.035 
" />
<path d="M 193.253, 415.098 
	L 193.252, 415.098 
	L 193.252, 0.035 
" />
<path d="M 197.859, 415.098 
	L 197.858, 415.098 
	L 197.858, 0.035 
" />
<path d="M 202.465, 415.098 
	L 202.465, 415.098 
	L 202.465, 0.035 
" />
<path d="M 207.072, 415.098 
	L 207.071, 415.098 
	L 207.071, 0.035 
" />
<path d="M 211.678, 415.098 
	L 211.677, 415.098 
	L 211.677, 0.035 
" />
<path d="M 216.284, 415.098 
	L 216.283, 415.098 
	L 216.283, 0.035 
" />
<path d="M 220.891, 415.098 
	L 220.890, 415.098 
	L 220.890, 0.035 
" />
<path d="M 225.497, 415.098 
	L 225.496, 415.098 
	L 225.496, 0.035 
" />
<path d="M 230.103, 415.098 
	L 230.102, 415.098 
	L 230.102, 0.035 
" />
<path d="M 234.709, 415.098 
	L 234.709, 415.098 
	L 234.709, 0.035 
" />
<path d="M 239.316, 415.098 
	L 239.315, 415.098 
	L 239.315, 0.035 
" />
<path d="M 243.922, 415.098 
	L 243.921, 415.098 
	L 243.921, 0.035 
" />
<path d="M 248.528, 415.098 
	L 248.528, 415.098 
	L 248.528, 0.035 
" />
<path d="M 253.135, 415.098 
	L 253.134, 415.098 
	L 253.134, 0.035 
" />
<path d="M 257.741, 415.098 
	L 257.740, 415.098 
	L 257.740, 0.035 
" />
<path d="M 262.347, 415.098 
	L 262.346, 415.098 
	L 262.346, 0.035 
" />
<path d="M 266.954, 415.098 
	L 266.953, 415.098 
	L 266.953, 0.035 
" />
<path d="M 271.560, 415.098 
	L 271.559, 415.098 
	L 271.559, 0.035 
" />
<path d="M 276.166, 415.098 
	L 276.165, 415.098 
	L 276.165, 0.035 
" />
<path d="M 280.772, 415.098 
	L 280.772, 415.098 
	L 280.772, 0.035 
" />
<path d="M 285.379, 415.098 
	L 285.378, 415.098 
	L 285.378, 0.035 
" />
<path d="M 289.985, 415.098 
	L 289.984, 415.098 
	L 289.984, 0.035 
" />
</g><g style="stroke:rgb(0,255,0); fill:none; stroke-width:0.100mm" >
<path d="M 6.343, 415.133 
	L 6.343, 415.134 
	L 6.343, 0.071 
	L 422.681, 0.071 
	L 422.681, 415.134 
	L 6.343, 415.134 
" />
<path d="M 6.379, 415.098 
	L 6.378, 415.098 
	L 6.378, 0.035 
" />
<path d="M 10.914, 415.098 
	L 10.913, 415.098 
	L 10.913, 0.035 
" />
<path d="M 15.450, 415.098 
	L 15.449, 415.098 
	L 15.449, 0.035 
" />
<path d="M 19.985, 415.098 
	L 19.984, 415.098 
	L 19.984, 0.035 
" />
<path d="M 24.520, 415.098 
	L 24.520, 415.098 
	L 24.520, 0.035 
" />
<path d="M 29.056, 415.098 
	L 29.055, 415.098 
	L 29.055, 0.035 
" />
<path d="M 33.591, 415.098 
	L 33.591, 415.098 
	L 33.591, 0.035 
" />
<path d="M 38.127, 415.098 
	L 38.126, 415.098 
	L 38.126, 0.035 
" />
<path d="M 42.662, 415.098 
	L 42.661, 415.098 
	L 42.661, 0.035 
" />
<path d="M 47.198, 415.098 
	L 47.197, 415.098 
	L 47.197, 0.035 
" />
<path d="M 51.733, 415.098 
	L 51.732, 415.098 
	L 51.732, 0.035 
" />
<path d="M 56.268, 415.098 
	L 56.268, 415.098 
	L 56.268, 0.035 
" />
<path d="M 60.804, 415.098 
	L 60.803, 415.098 
	L 60.803, 0.035 
" />
<path d="M 65.339, 415.098 
	L 65.339, 415.098 
	L 65.339, 0.035 
" />
<path d="M 69.875, 415.098 
	L 69.874, 415.098 
	L 69.874, 0.035 
" />
<path d="M 74.410, 415.098 
	L 74.409, 415.098 
	L 74.409, 0.035 
" />
<path d="M 78.946, 415.098 
	L 78.945, 415.098 
	L 78.945, 0.035 
" />
<path d="M 83.481, 415.098 
	L 83.480, 415.098 
	L 83.480, 0.035 
" />
<path d="M 88.016, 415.098 
	L 88.016, 415.098 
	L 88.016, 0.035 
" />
<path d="M 92.552, 415.098 
	L 92.551, 415.098 
	L 92.551, 0.035 
" />
<path d="M 97.087, 415.098 
	L 97.087, 415.098 
	L 97.087, 0.035 
" />
<path d="M 101.623, 415.098 
	L 101.622, 415.098 
	L 101.622, 0.035 
" />
<path d="M 106.158, 415.098 
	L 106.157, 415.098 
	L 106.157, 0.035 
" />
<path d="M 110.694, 415.098 
	L 110.693, 415.098 
	L 110.693, 0.035 
" />
<path d="M 115.229, 415.098 
	L 115.228, 415.098 
	L 115.228, 0.035 
" />
<path d="M 119.765, 415.098 
	L 119.764, 415.098 
	L 119.764, 0.035 
" />
<path d="M 124.300, 415.098 
	L 124.299, 415.098 
	L 124.299, 0.035 
" />
<path d="M 128.835, 415.098 
	L 128.835, 415.098 
	L 128.835, 0.035 
" />
<path d="M 133.371, 415.098 
	L 133.370, 415.098 
	L 133.370, 0.035 
" />
<path d="M 137.906, 415.098 
	L 137.906, 415.098 
	L 137.906, 0.035 
" />
<path d="M 142.442, 415.098 
	L 142.441, 415.098 
	L 142.441, 0.035 
" />
<path d="M 146.977, 415.098 
	L 146.976, 415.098 
	L 146.976, 0.035 
" />
<path d="M 151.513, 415.098 
	L 151.512, 415.098 
	L 151.512, 0.035 
" />
<path d="M 156.048, 415.098 
	L 156.047, 415.098 
	L 156.047, 0.035 
" />
<path d="M 160.583, 415.098 
	L 160.583, 415.098 
	L 160.583, 0.035 
" />
<path d="M 165.119, 415.098 
	L 165.118, 415.098 
	L 165.118, 0.035 
" />
<path d="M 169.654, 415.098 
	L 169.654, 415.098 
	L 169.654, 0.035 
" />
<path d="M 174.190, 415.098 
	L 174.189, 415.098 
	L 174.189, 0.035 
" />
<path d="M 178.725, 415.098 
	L 178.724, 415.098 
	L 178.724, 0.035 
" />
<path d="M 183.261, 415.098 
	L 183.260, 415.098 
	L 183.260, 0.035 
" />
<path d="M 187.796, 415.098 
	L 187.795, 415.098 
	L 187.795, 0.035 
" />
<path d="M 192.331, 415.098 
	L 192.331, 415.098 
	L 192.331, 0.035 
" />
<path d="M 196.867, 415.098 
	L 196.866, 415.098 
	L 196.866, 0.035 
" />
<path d="M 201.402, 415.098 
	L 201.402, 415.098 
	L 201.402, 0.035 
" />
<path d="M 205.938, 415.098 
	L 205.937, 415.098 
	L 205.937, 0.035 
" />
<path d="M 210.473, 415.098 
	L 210.472, 415.098 
	L 210.472, 0.035 
" />
<path d="M 215.009, 415.098 
	L 215.008, 415.098 
	L 215.008, 0.035 
" />
<path d="M 219.544, 415.098 
	L 219.543, 415.098 
	L 219.543, 0.035 
" />
<path d="M 224.079, 415.098 
	L 224.079, 415.098 
	L 224.079, 0.035 
" />
<path d="M 228.615, 415.098 
	L 228.614, 415.098 
	L 228.614, 0.035 
" />
<path d="M 233.150, 415.098 
	L 233.150, 415.098 
	L 233.150, 0.035 
" />
<path d="M 237.686, 415.098 
	L 237.685, 415.098 
	L 237.685, 0.035 
" />
<path d="M 242.221, 415.098 
	L 242.221, 415.098 
	L 242.221, 0.035 
" />
<path d="M 246.757, 415.098 
	L 246.756, 415.098 
	L 246.756, 0.035 
" />
<path d="M 251.292, 415.098 
	L 251.291, 415.098 
	L 251.291, 0.035 
" />
<path d="M 255.828, 415.098 
	L 255.827, 415.098 
	L 255.827, 0.035 
" />
<path d="M 260.363, 415.098 
	L 260.362, 415.098 
	L 260.362, 0.035 
" />
<path d="M 264.898, 415.098 
	L 264.898, 415.098 
	L 264.898, 0.035 
" />
<path d="M 269.434, 415.098 
	L 269.433, 415.098 
	L 269.433, 0.035 
" />
<path d="M 273.969, 415.098 
	L 273.969, 415.098 
	L 273.969, 0.035 
" />
<path d="M 278.505, 415.098 
	L 278.504, 415.098 
	L 278.504, 0.035 
" />
<path d="M 283.040, 415.098 
	L 283.039, 415.098 
	L 283.039, 0.035 
" />
<path d="M 287.576, 415.098 
	L 287.575, 415.098 
	L 287.575, 0.035 
" />
<path d="M 292.111, 415.098 
	L 292.110, 415.098 
	L 292.110, 0.035 
" />
<path d="M 296.646, 415.098 
	L 296.646, 415.098 
	L 296.646, 0.035 
" />
<path d="M 301.182, 415.098 
	L 301.181, 415.098 
	L 301.181, 0.035 
" />
<path d="M 305.717, 415.098 
	L 305.717, 415.098 
	L 305.717, 0.035 
" />
<path d="M 310.253, 415.098 
	L 310.252, 415.098 
	L 310.252, 0.035 
" />
<path d="M 314.788, 415.098 
	L 314.787, 415.098 
	L 314.787, 0.035 
" />
<path d="M 319.324, 415.098 
	L 319.323, 415.098 
	L 319.323, 0.035 
" />
<path d="M 323.859, 415.098 
	L 323.858, 415.098 
	L 323.858, 0.035 
" />
<path d="M 328.394, 415.098 
	L 328.394, 415.098 
	L 328.394, 0.035 
" />
<path d="M 332.930, 415.098 
	L 332.929, 415.098 
	L 332.929, 0.035 
" />
<path d="M 337.465, 415.098 
	L 337.465, 415.098 
	L 337.465, 0.035 
" />
<path d="M 342.001, 415.098 
	L 342.000, 415.098 
	L 342.000, 0.035 
" />
<path d="M 346.536, 415.098 
	L 346.535, 415.098 
	L 346.535, 0.035 
" />
<path d="M 351.072, 415.098 
	L 351.071, 415.098 
	L 351.071, 0.035 
" />
<path d="M 355.607, 415.098 
	L 355.606, 415.098 
	L 355.606, 0.035 
" />
<path d="M 360.142, 415.098 
	L 360.142, 415.098 
	L 360.142, 0.035 
" />
<path d="M 364.678, 415.098 
	L 364.677, 415.098 
	L 364.677, 0.035 
" />
<path d="M 369.213, 415.098 
	L 369.213, 415.098 
	L 369.213, 0.035 
" />
<path d="M 373.749, 415.098 
	L 373.748, 415.098 
	L 373.748, 0.035 
" />
<path d="M 378.284, 415.098 
	L 378.284, 415.098 
	L 378.284, 0.035 
" />
<path d="M 382.820, 415.098 
	L 382.819, 415.098 
	L 382.819, 0.035 
" />
<path d="M 387.355, 415.098 
	L 387.354, 415.098 
	L 387.354, 0.035 
" />
<path d="M 391.891, 415.098 
	L 391.890, 415.098 
	L 391.890, 0.035 
" />
<path d="M 396.426, 415.098 
	L 396.425, 415.098 
	L 396.425, 0.035 
" />
<path d="M 400.961, 415.098 
	L 400.961, 415.098 
	L 400.961, 0.035 
" />
<path d="M 405.497, 415.098 
	L 405.496, 415.098 
	L 405.496, 0.035 
" />
<path d="M 410.032, 415.098 
	L 410.032, 415.098 
	L 410.032, 0.035 
" />
<path d="M 414.568, 415.098 
	L 414.567, 415.098 
	L 414.567, 0.035 
" />
</g><g style="stroke:rgb(0,0,255); fill:none; stroke-width:0.100mm" >
<path d="M 6.343, 708.732 
	L 6.343, 708.732 
	L 6.343, 415.134 
	L 422.681, 415.134 
	L 422.681, 708.732 
	L 6.343, 708.732 
" />
<path d="M 6.379, 708.696 
	L 6.378, 708.697 
	L 6.378, 415.098 
" />
<path d="M 10.914, 708.696 
	L 10.913, 708.697 
	L 10.913, 415.098 
" />
<path d="M 15.450, 708.696 
	L 15.449, 708.697 
	L 15.449, 415.098 
" />
<path d="M 19.985, 708.696 
	L 19.984, 708.697 
	L 19.984, 415.098 
" />
<path d="M 24.520, 708.696 
	L 24.520, 708.697 
	L 24.520, 415.098 
" />
<path d="M 29.056, 708.696 
	L 29.055, 708.697 
	L 29.055, 415.098 
" />
<path d="M 33.591, 708.696 
	L 33.591, 708.697 
	L 33.591, 415.098 
" />
<path d="M 38.127, 708.696 
	L 38.126, 708.697 
	L 38.126, 415.098 
" />
<path d="M 42.662, 708.696 
	L 42.661, 708.697 
	L 42.661, 415.098 
" />
<path d="M 47.198, 708.696 
	L 47.197, 708.697 
	L 47.197, 415.098 
" />
<path d="M 51.733, 708.696 
	L 51.732, 708.697 
	L 51.732, 415.098 
" />
<path d="M 56.268, 708.696 
	L 56.268, 708.697 
	L 56.268, 415.098 
" />
<path d="M 60.804, 708.696 
	L 60.803, 708.697 
	L 60.803, 415.098 
" />
<path d="M 65.339, 708.696 
	L 65.339, 708.697 
	L 65.339, 415.098 
" />
<path d="M 69.875, 708.696 
	L 69.874, 708.697 
	L 69.874, 415.098 
" />
<path d="M 74.410, 708.696 
	L 74.409, 708.697 
	L 74.409, 415.098 
" />
<path d="M 78.946, 708.696 
	L 78.945, 708.697 
	L 78.945, 415.098 
" />
<path d="M 83.481, 708.696 
	L 83.480, 708.697 
	L 83.480, 415.098 
" />
<path d="M 88.016, 708.696 
	L 88.016, 708.697 
	L 88.016, 415.098 
" />
<path d="M 92.552, 708.696 
	L 92.551, 708.697 
	L 92.551, 415.098 
" />
<path d="M 97.087, 708.696 
	L 97.087, 708.697 
	L 97.087, 415.098 
" />
<path d="M 101.623, 708.696 
	L 101.622, 708.697 
	L 101.622, 415.098 
" />
<path d="M 106.158, 708.696 
	L 106.157, 708.697 
	L 106.157, 415.098 
" />
<path d="M 110.694, 708.696 
	L 110.693, 708.697 
	L 110.693, 415.098 
" />
<path d="M 115.229, 708.696 
	L 115.228, 708.697 
	L 115.228, 415.098 
" />
<path d="M 119.765, 708.696 
	L 119.764, 708.697 
	L 119.764, 415.098 
" />
<path d="M 124.300, 708.696 
	L 124.299, 708.697 
	L 124.299, 415.098 
" />
<path d="M 128.835, 708.696 
	L 128.835, 708.697 
	L 128.835, 415.098 
" />
<path d="M 133.371, 708.696 
	L 133.370, 708.697 
	L 133.370, 415.098 
" />
<path d="M 137.906, 708.696 
	L 137.906, 708.697 
	L 137.906, 415.098 
" />
<path d="M 142.442, 708.696 
	L 142.441, 708.697 
	L 142.441, 415.098 
" />
<path d="M 146.977, 708.696 
	L 146.976, 708.697 
	L 146.976, 415.098 
" />
<path d="M 151.513, 708.696 
	L 151.512, 708.697 
	L 151.512, 415.098 
" />
<path d="M 156.048, 708.696 
	L 156.047, 708.697 
	L 156.047, 415.098 
" />
<path d="M 160.583, 708.696 
	L 160.583, 708.697 
	L 160.583, 415.098 
" />
<path d="M 165.119, 708.696 
	L 165.118, 708.697 
	L 165.118, 415.098 
" />
<path d="M 169.654, 708.696 
	L 169.654, 708.697 
	L 169.654, 415.098 
" />
<path d="M 174.190, 708.696 
	L 174.189, 708.697 
	L 174.189, 415.098 
" />
<path d="M 178.725, 708.696 
	L 178.724, 708.697 
	L 178.724, 415.098 
" />
<path d="M 183.261, 708.696 
	L 183.260, 708.697 
	L 183.260, 415.098 
" />
<path d="M 187.796, 708.696 
	L 187.795, 708.697 
	L 187.795, 415.098 
" />
<path d="M 192.331, 708.696 
	L 192.331, 708.697 
	L 192.331, 415.098 
" />
<path d="M 196.867, 708.696 
	L 196.866, 708.697 
	L 196.866, 415.098 
" />
<path d="M 201.402, 708.696 
	L 201.402, 708.697 
	L 201.402, 415.098 
" />
<path d="M 205.938, 708.696 
	L 205.937, 708.697 
	L 205.937, 415.098 
" />
<path d="M 210.473, 708.696 
	L 210.472, 708.697 
	L 210.472, 415.098 
" />
<path d="M 215.009, 708.696 
	L 215.008, 708.697 
	L 215.008, 415.098 
" />
<path d="M 219.544, 708.696 
	L 219.543, 708.697 
	L 219.543, 415.098 
" />
<path d="M 224.079, 708.696 
	L 224.079, 708.697 
	L 224.079, 415.098 
" />
<path d="M 228.615, 708.696 
	L 228.614, 708.697 
	L 228.614, 415.098 
" />
<path d="M 233.150, 708.696 
	L 233.150, 708.697 
	L 233.150, 415.098 
" />
<path d="M 237.686, 708.696 
	L 237.685, 708.697 
	L 237.685, 415.098 
" />
<path d="M 242.221, 708.696 
	L 242.221, 708.697 
	L 242.221, 415.098 
" />
<path d="M 246.757, 708.696 
	L 246.756, 708.697 
	L 246.756, 415.098 
" />
<path d="M 251.292, 708.696 
	L 251.291, 708.697 
	L 251.291, 415.098 
" />
<path d="M 255.828, 708.696 
	L 255.827, 708.697 
	L 255.827, 415.098 
" />
<path d="M 260.363, 708.696 
	L 260.362, 708.697 
	L 260.362, 415.098 
" />
<path d="M 264.898, 708.696 
	L 264.898, 708.697 
	L 264.898, 415.098 
" />
<path d="M 269.434, 708.696 
	L 269.433, 708.697 
	L 269.433, 415.098 
" />
<path d="M 273.969, 708.696 
	L 273.969, 708.697 
	L 273.969, 415.098 
" />
<path d="M 278.505, 708.696 
	L 278.504, 708.697 
	L 278.504, 415.098 
" />
<path d="M 283.040, 708.696 
	L 283.039, 708.697 
	L 283.039, 415.098 
" />
<path d="M 287.576, 708.696 
	L 287.575, 708.697 
	L 287.575, 415.098 
" />
<path d="M 292.111, 708.696 
	L 292.110, 708.697 
	L 292.110, 415.098 
" />
<path d="M 296.646, 708.696 
	L 296.646, 708.697 
	L 296.646, 415.098 
" />
<path d="M 301.182, 708.696 
	L 301.181, 708.697 
	L 301.181, 415.098 
" />
<path d="M 305.717, 708.696 
	L 305.717, 708.697 
	L 305.717, 415.098 
" />
<path d="M 310.253, 708.696 
	L 310.252, 708.697 
	L 310.252, 415.098 
" />
<path d="M 314.788, 708.696 
	L 314.787, 708.697 
	L 314.787, 415.098 
" />
<path d="M 319.324, 708.696 
	L 319.323, 708.697 
	L 319.323, 415.098 
" />
<path d="M 323.859, 708.696 
	L 323.858, 708.697 
	L 323.858, 415.098 
" />
<path d="M 328.394, 708.696 
	L 328.394, 708.697 
	L 328.394, 415.098 
" />
<path d="M 332.930, 708.696 
	L 332.929, 708.697 
	L 332.929, 415.098 
" />
<path d="M 337.465, 708.696 
	L 337.465, 708.697 
	L 337.465, 415.098 
" />
<path d="M 342.001, 708.696 
	L 342.000, 708.697 
	L 342.000, 415.098 
" />
<path d="M 346.536, 708.696 
	L 346.535, 708.697 
	L 346.535, 415.098 
" />
<path d="M 351.072, 708.696 
	L 351.071, 708.697 
	L 351.071, 415.098 
" />
<path d="M 355.607, 708.696 
	L 355.606, 708.697 
	L 355.606, 415.098 
" />
<path d="M 360.142, 708.696 
	L 360.142, 708.697 
	L 360.142, 415.098 
" />
<path d="M 364.678, 708.696 
	L 364.677, 708.697 
	L 364.677, 415.098 
" />
<path d="M 369.213, 708.696 
	L 369.213, 708.697 
	L 369.213, 415.098 
" />
<path d="M 373.749, 708.696 
	L 373.748, 708.697 
	L 373.748, 415.098 
" />
<path d="M 378.284, 708.696 
	L 378.284, 708.697 
	L 378.284, 415.098 
" />
<path d="M 382.820, 708.696 
	L 382.819, 708.697 
	L 382.819, 415.098 
" />
<path d="M 387.355, 708.696 
	L 387.354, 708.697 
	L 387.354, 415.098 
" />
<path d="M 391.891, 708.696 
	L 391.890, 708.697 
	L 391.890, 415.098 
" />
<path d="M 396.426, 708.696 
	L 396.425, 708.697 
	L 396.425, 415.098 
" />
<path d="M 400.961, 708.696 
	L 400.961, 708.697 
	L 400.961, 415.098 
" />
<path d="M 405.497, 708.696 
	L 405.496, 708.697 
	L 405.496, 415.098 
" />
<path d="M 410.032, 708.696 
	L 410.032, 708.697 
	L 410.032, 415.098 
" />
<path d="M 414.568, 708.696 
	L 414.567, 708.697 
	L 414.567, 415.098 
" />
</g>
</svg>
