<?xml version="1.0" encoding="UTF-8" standalone="no" ?>
<svg width="100%" height="100%" viewBox="0 0 708.662 708.662" xmlns="http://www.w3.org/2000/svg"><g>
</g><g style="stroke:rgb(0,0,0); fill:none; stroke-width:1.000mm" >
</g><g style="stroke:rgb(0,255,0); fill:none; stroke-width:0.100mm" >
<path d="M 0.001, 708.661 
	L 0.000, 708.662 
	L 0.000, 0.000 
	L 708.662, 0.000 
	L 708.662, 708.662 
	L 0.000, 708.662 
" />
<path d="M 0.780, 687.401 
	L 0.780, 687.402 
	L 0.780, 616.536 
	L 71.646, 616.536 
	L 71.646, 687.402 
	L 0.780, 687.402 
" />
<path d="M 0.780, 687.401 
	L 0.780, 687.402 
	L 0.780, 616.536 
" />
<path d="M 6.450, 687.401 
	L 6.449, 687.402 
	L 6.449, 616.536 
" />
<path d="M 12.119, 687.401 
	L 12.118, 687.402 
	L 12.118, 616.536 
" />
<path d="M 17.788, 687.401 
	L 17.787, 687.402 
	L 17.787, 616.536 
" />
<path d="M 23.457, 687.401 
	L 23.457, 687.402 
	L 23.457, 616.536 
" />
<path d="M 29.127, 687.401 
	L 29.126, 687.402 
	L 29.126, 616.536 
" />
<path d="M 34.796, 687.401 
	L 34.795, 687.402 
	L 34.795, 616.536 
" />
<path d="M 40.465, 687.401 
	L 40.465, 687.402 
	L 40.465, 616.536 
" />
<path d="M 46.135, 687.401 
	L 46.134, 687.402 
	L 46.134, 616.536 
" />
<path d="M 51.804, 687.401 
	L 51.803, 687.402 
	L 51.803, 616.536 
" />
<path d="M 57.473, 687.401 
	L 57.472, 687.402 
	L 57.472, 616.536 
" />
<path d="M 63.142, 687.401 
	L 63.142, 687.402 
	L 63.142, 616.536 
" />
</g>
</svg>
