<?xml version="1.0" encoding="UTF-8" standalone="no" ?>
<svg width="100%" height="100%" viewBox="0 0 708.662 708.697" xmlns="http://www.w3.org/2000/svg"><g>
</g><g style="stroke:rgb(0,0,0); fill:none; stroke-width:1.000mm" >
</g><g style="stroke:rgb(0,255,0); fill:none; stroke-width:0.100mm" >
<path d="M 0.001, 708.696 
	L 0.000, 708.697 
	L 0.000, 0.035 
	L 708.662, 0.035 
	L 708.662, 708.697 
	L 0.000, 708.697 
" />
</g><g style="stroke:rgb(0,0,0); fill:none; stroke-width:0.100mm" >
<path d="M 5.635, 708.732 
	L 5.634, 708.732 
	L 5.634, 387.921 
	L 380.728, 387.921 
	L 380.728, 708.732 
	L 5.634, 708.732 
" />
<path d="M 5.670, 708.696 
	L 5.669, 708.697 
	L 5.669, 387.886 
" />
<path d="M 10.276, 708.696 
	L 10.276, 708.697 
	L 10.276, 387.886 
" />
<path d="M 14.883, 708.696 
	L 14.882, 708.697 
	L 14.882, 387.886 
" />
<path d="M 19.489, 708.696 
	L 19.488, 708.697 
	L 19.488, 387.886 
" />
<path d="M 24.095, 708.696 
	L 24.094, 708.697 
	L 24.094, 387.886 
" />
<path d="M 28.702, 708.696 
	L 28.701, 708.697 
	L 28.701, 387.886 
" />
<path d="M 33.308, 708.696 
	L 33.307, 708.697 
	L 33.307, 387.886 
" />
<path d="M 37.914, 708.696 
	L 37.913, 708.697 
	L 37.913, 387.886 
" />
<path d="M 42.520, 708.696 
	L 42.520, 708.697 
	L 42.520, 387.886 
" />
<path d="M 47.127, 708.696 
	L 47.126, 708.697 
	L 47.126, 387.886 
" />
<path d="M 51.733, 708.696 
	L 51.732, 708.697 
	L 51.732, 387.886 
" />
<path d="M 56.339, 708.696 
	L 56.339, 708.697 
	L 56.339, 387.886 
" />
<path d="M 60.946, 708.696 
	L 60.945, 708.697 
	L 60.945, 387.886 
" />
<path d="M 65.552, 708.696 
	L 65.551, 708.697 
	L 65.551, 387.886 
" />
<path d="M 70.158, 708.696 
	L 70.157, 708.697 
	L 70.157, 387.886 
" />
<path d="M 74.765, 708.696 
	L 74.764, 708.697 
	L 74.764, 387.886 
" />
<path d="M 79.371, 708.696 
	L 79.370, 708.697 
	L 79.370, 387.886 
" />
<path d="M 83.977, 708.696 
	L 83.976, 708.697 
	L 83.976, 387.886 
" />
<path d="M 88.583, 708.696 
	L 88.583, 708.697 
	L 88.583, 387.886 
" />
<path d="M 93.190, 708.696 
	L 93.189, 708.697 
	L 93.189, 387.886 
" />
<path d="M 97.796, 708.696 
	L 97.795, 708.697 
	L 97.795, 387.886 
" />
<path d="M 102.402, 708.696 
	L 102.402, 708.697 
	L 102.402, 387.886 
" />
<path d="M 107.009, 708.696 
	L 107.008, 708.697 
	L 107.008, 387.886 
" />
<path d="M 111.615, 708.696 
	L 111.614, 708.697 
	L 111.614, 387.886 
" />
<path d="M 116.221, 708.696 
	L 116.220, 708.697 
	L 116.220, 387.886 
" />
<path d="M 120.827, 708.696 
	L 120.827, 708.697 
	L 120.827, 387.886 
" />
<path d="M 125.434, 708.696 
	L 125.433, 708.697 
	L 125.433, 387.886 
" />
<path d="M 130.040, 708.696 
	L 130.039, 708.697 
	L 130.039, 387.886 
" />
<path d="M 134.646, 708.696 
	L 134.646, 708.697 
	L 134.646, 387.886 
" />
<path d="M 139.253, 708.696 
	L 139.252, 708.697 
	L 139.252, 387.886 
" />
<path d="M 143.859, 708.696 
	L 143.858, 708.697 
	L 143.858, 387.886 
" />
<path d="M 148.465, 708.696 
	L 148.465, 708.697 
	L 148.465, 387.886 
" />
<path d="M 153.072, 708.696 
	L 153.071, 708.697 
	L 153.071, 387.886 
" />
<path d="M 157.678, 708.696 
	L 157.677, 708.697 
	L 157.677, 387.886 
" />
<path d="M 162.284, 708.696 
	L 162.283, 708.697 
	L 162.283, 387.886 
" />
<path d="M 166.890, 708.696 
	L 166.890, 708.697 
	L 166.890, 387.886 
" />
<path d="M 171.497, 708.696 
	L 171.496, 708.697 
	L 171.496, 387.886 
" />
<path d="M 176.103, 708.696 
	L 176.102, 708.697 
	L 176.102, 387.886 
" />
<path d="M 180.709, 708.696 
	L 180.709, 708.697 
	L 180.709, 387.886 
" />
<path d="M 185.316, 708.696 
	L 185.315, 708.697 
	L 185.315, 387.886 
" />
<path d="M 189.922, 708.696 
	L 189.921, 708.697 
	L 189.921, 387.886 
" />
<path d="M 194.528, 708.696 
	L 194.528, 708.697 
	L 194.528, 387.886 
" />
<path d="M 199.135, 708.696 
	L 199.134, 708.697 
	L 199.134, 387.886 
" />
<path d="M 203.741, 708.696 
	L 203.740, 708.697 
	L 203.740, 387.886 
" />
<path d="M 208.347, 708.696 
	L 208.346, 708.697 
	L 208.346, 387.886 
" />
<path d="M 212.953, 708.696 
	L 212.953, 708.697 
	L 212.953, 387.886 
" />
<path d="M 217.560, 708.696 
	L 217.559, 708.697 
	L 217.559, 387.886 
" />
<path d="M 222.166, 708.696 
	L 222.165, 708.697 
	L 222.165, 387.886 
" />
<path d="M 226.772, 708.696 
	L 226.772, 708.697 
	L 226.772, 387.886 
" />
<path d="M 231.379, 708.696 
	L 231.378, 708.697 
	L 231.378, 387.886 
" />
<path d="M 235.985, 708.696 
	L 235.984, 708.697 
	L 235.984, 387.886 
" />
<path d="M 240.591, 708.696 
	L 240.591, 708.697 
	L 240.591, 387.886 
" />
<path d="M 245.198, 708.696 
	L 245.197, 708.697 
	L 245.197, 387.886 
" />
<path d="M 249.804, 708.696 
	L 249.803, 708.697 
	L 249.803, 387.886 
" />
<path d="M 254.410, 708.696 
	L 254.409, 708.697 
	L 254.409, 387.886 
" />
<path d="M 259.016, 708.696 
	L 259.016, 708.697 
	L 259.016, 387.886 
" />
<path d="M 263.623, 708.696 
	L 263.622, 708.697 
	L 263.622, 387.886 
" />
<path d="M 268.229, 708.696 
	L 268.228, 708.697 
	L 268.228, 387.886 
" />
<path d="M 272.835, 708.696 
	L 272.835, 708.697 
	L 272.835, 387.886 
" />
<path d="M 277.442, 708.696 
	L 277.441, 708.697 
	L 277.441, 387.886 
" />
<path d="M 282.048, 708.696 
	L 282.047, 708.697 
	L 282.047, 387.886 
" />
<path d="M 286.654, 708.696 
	L 286.654, 708.697 
	L 286.654, 387.886 
" />
<path d="M 291.261, 708.696 
	L 291.260, 708.697 
	L 291.260, 387.886 
" />
<path d="M 295.867, 708.696 
	L 295.866, 708.697 
	L 295.866, 387.886 
" />
<path d="M 300.473, 708.696 
	L 300.472, 708.697 
	L 300.472, 387.886 
" />
<path d="M 305.079, 708.696 
	L 305.079, 708.697 
	L 305.079, 387.886 
" />
<path d="M 309.686, 708.696 
	L 309.685, 708.697 
	L 309.685, 387.886 
" />
<path d="M 314.292, 708.696 
	L 314.291, 708.697 
	L 314.291, 387.886 
" />
<path d="M 318.898, 708.696 
	L 318.898, 708.697 
	L 318.898, 387.886 
" />
<path d="M 323.505, 708.696 
	L 323.504, 708.697 
	L 323.504, 387.886 
" />
<path d="M 328.111, 708.696 
	L 328.110, 708.697 
	L 328.110, 387.886 
" />
<path d="M 332.717, 708.696 
	L 332.717, 708.697 
	L 332.717, 387.886 
" />
<path d="M 337.324, 708.696 
	L 337.323, 708.697 
	L 337.323, 387.886 
" />
<path d="M 341.930, 708.696 
	L 341.929, 708.697 
	L 341.929, 387.886 
" />
<path d="M 346.536, 708.696 
	L 346.535, 708.697 
	L 346.535, 387.886 
" />
<path d="M 351.142, 708.696 
	L 351.142, 708.697 
	L 351.142, 387.886 
" />
<path d="M 355.749, 708.696 
	L 355.748, 708.697 
	L 355.748, 387.886 
" />
<path d="M 360.355, 708.696 
	L 360.354, 708.697 
	L 360.354, 387.886 
" />
<path d="M 364.961, 708.696 
	L 364.961, 708.697 
	L 364.961, 387.886 
" />
<path d="M 369.568, 708.696 
	L 369.567, 708.697 
	L 369.567, 387.886 
" />
<path d="M 374.174, 708.696 
	L 374.173, 708.697 
	L 374.173, 387.886 
" />
</g><g style="stroke:rgb(255,0,0); fill:none; stroke-width:0.100mm" >
<path d="M 5.635, 387.921 
	L 5.634, 387.921 
	L 5.634, 0.071 
	L 380.728, 0.071 
	L 380.728, 387.921 
	L 5.634, 387.921 
" />
<path d="M 5.670, 387.885 
	L 5.669, 387.886 
	L 5.669, 0.035 
" />
<path d="M 10.276, 387.885 
	L 10.276, 387.886 
	L 10.276, 0.035 
" />
<path d="M 14.883, 387.885 
	L 14.882, 387.886 
	L 14.882, 0.035 
" />
<path d="M 19.489, 387.885 
	L 19.488, 387.886 
	L 19.488, 0.035 
" />
<path d="M 24.095, 387.885 
	L 24.094, 387.886 
	L 24.094, 0.035 
" />
<path d="M 28.702, 387.885 
	L 28.701, 387.886 
	L 28.701, 0.035 
" />
<path d="M 33.308, 387.885 
	L 33.307, 387.886 
	L 33.307, 0.035 
" />
<path d="M 37.914, 387.885 
	L 37.913, 387.886 
	L 37.913, 0.035 
" />
<path d="M 42.520, 387.885 
	L 42.520, 387.886 
	L 42.520, 0.035 
" />
<path d="M 47.127, 387.885 
	L 47.126, 387.886 
	L 47.126, 0.035 
" />
<path d="M 51.733, 387.885 
	L 51.732, 387.886 
	L 51.732, 0.035 
" />
<path d="M 56.339, 387.885 
	L 56.339, 387.886 
	L 56.339, 0.035 
" />
<path d="M 60.946, 387.885 
	L 60.945, 387.886 
	L 60.945, 0.035 
" />
<path d="M 65.552, 387.885 
	L 65.551, 387.886 
	L 65.551, 0.035 
" />
<path d="M 70.158, 387.885 
	L 70.157, 387.886 
	L 70.157, 0.035 
" />
<path d="M 74.765, 387.885 
	L 74.764, 387.886 
	L 74.764, 0.035 
" />
<path d="M 79.371, 387.885 
	L 79.370, 387.886 
	L 79.370, 0.035 
" />
<path d="M 83.977, 387.885 
	L 83.976, 387.886 
	L 83.976, 0.035 
" />
<path d="M 88.583, 387.885 
	L 88.583, 387.886 
	L 88.583, 0.035 
" />
<path d="M 93.190, 387.885 
	L 93.189, 387.886 
	L 93.189, 0.035 
" />
<path d="M 97.796, 387.885 
	L 97.795, 387.886 
	L 97.795, 0.035 
" />
<path d="M 102.402, 387.885 
	L 102.402, 387.886 
	L 102.402, 0.035 
" />
<path d="M 107.009, 387.885 
	L 107.008, 387.886 
	L 107.008, 0.035 
" />
<path d="M 111.615, 387.885 
	L 111.614, 387.886 
	L 111.614, 0.035 
" />
<path d="M 116.221, 387.885 
	L 116.220, 387.886 
	L 116.220, 0.035 
" />
<path d="M 120.827, 387.885 
	L 120.827, 387.886 
	L 120.827, 0.035 
" />
<path d="M 125.434, 387.885 
	L 125.433, 387.886 
	L 125.433, 0.035 
" />
<path d="M 130.040, 387.885 
	L 130.039, 387.886 
	L 130.039, 0.035 
" />
<path d="M 134.646, 387.885 
	L 134.646, 387.886 
	L 134.646, 0.035 
" />
<path d="M 139.253, 387.885 
	L 139.252, 387.886 
	L 139.252, 0.035 
" />
<path d="M 143.859, 387.885 
	L 143.858, 387.886 
	L 143.858, 0.035 
" />
<path d="M 148.465, 387.885 
	L 148.465, 387.886 
	L 148.465, 0.035 
" />
<path d="M 153.072, 387.885 
	L 153.071, 387.886 
	L 153.071, 0.035 
" />
<path d="M 157.678, 387.885 
	L 157.677, 387.886 
	L 157.677, 0.035 
" />
<path d="M 162.284, 387.885 
	L 162.283, 387.886 
	L 162.283, 0.035 
" />
<path d="M 166.890, 387.885 
	L 166.890, 387.886 
	L 166.890, 0.035 
" />
<path d="M 171.497, 387.885 
	L 171.496, 387.886 
	L 171.496, 0.035 
" />
<path d="M 176.103, 387.885 
	L 176.102, 387.886 
	L 176.102, 0.035 
" />
<path d="M 180.709, 387.885 
	L 180.709, 387.886 
	L 180.709, 0.035 
" />
<path d="M 185.316, 387.885 
	L 185.315, 387.886 
	L 185.315, 0.035 
" />
<path d="M 189.922, 387.885 
	L 189.921, 387.886 
	L 189.921, 0.035 
" />
<path d="M 194.528, 387.885 
	L 194.528, 387.886 
	L 194.528, 0.035 
" />
<path d="M 199.135, 387.885 
	L 199.134, 387.886 
	L 199.134, 0.035 
" />
<path d="M 203.741, 387.885 
	L 203.740, 387.886 
	L 203.740, 0.035 
" />
<path d="M 208.347, 387.885 
	L 208.346, 387.886 
	L 208.346, 0.035 
" />
<path d="M 212.953, 387.885 
	L 212.953, 387.886 
	L 212.953, 0.035 
" />
<path d="M 217.560, 387.885 
	L 217.559, 387.886 
	L 217.559, 0.035 
" />
<path d="M 222.166, 387.885 
	L 222.165, 387.886 
	L 222.165, 0.035 
" />
<path d="M 226.772, 387.885 
	L 226.772, 387.886 
	L 226.772, 0.035 
" />
<path d="M 231.379, 387.885 
	L 231.378, 387.886 
	L 231.378, 0.035 
" />
<path d="M 235.985, 387.885 
	L 235.984, 387.886 
	L 235.984, 0.035 
" />
<path d="M 240.591, 387.885 
	L 240.591, 387.886 
	L 240.591, 0.035 
" />
<path d="M 245.198, 387.885 
	L 245.197, 387.886 
	L 245.197, 0.035 
" />
<path d="M 249.804, 387.885 
	L 249.803, 387.886 
	L 249.803, 0.035 
" />
<path d="M 254.410, 387.885 
	L 254.409, 387.886 
	L 254.409, 0.035 
" />
<path d="M 259.016, 387.885 
	L 259.016, 387.886 
	L 259.016, 0.035 
" />
<path d="M 263.623, 387.885 
	L 263.622, 387.886 
	L 263.622, 0.035 
" />
<path d="M 268.229, 387.885 
	L 268.228, 387.886 
	L 268.228, 0.035 
" />
<path d="M 272.835, 387.885 
	L 272.835, 387.886 
	L 272.835, 0.035 
" />
<path d="M 277.442, 387.885 
	L 277.441, 387.886 
	L 277.441, 0.035 
" />
<path d="M 282.048, 387.885 
	L 282.047, 387.886 
	L 282.047, 0.035 
" />
<path d="M 286.654, 387.885 
	L 286.654, 387.886 
	L 286.654, 0.035 
" />
<path d="M 291.261, 387.885 
	L 291.260, 387.886 
	L 291.260, 0.035 
" />
<path d="M 295.867, 387.885 
	L 295.866, 387.886 
	L 295.866, 0.035 
" />
<path d="M 300.473, 387.885 
	L 300.472, 387.886 
	L 300.472, 0.035 
" />
<path d="M 305.079, 387.885 
	L 305.079, 387.886 
	L 305.079, 0.035 
" />
<path d="M 309.686, 387.885 
	L 309.685, 387.886 
	L 309.685, 0.035 
" />
<path d="M 314.292, 387.885 
	L 314.291, 387.886 
	L 314.291, 0.035 
" />
<path d="M 318.898, 387.885 
	L 318.898, 387.886 
	L 318.898, 0.035 
" />
<path d="M 323.505, 387.885 
	L 323.504, 387.886 
	L 323.504, 0.035 
" />
<path d="M 328.111, 387.885 
	L 328.110, 387.886 
	L 328.110, 0.035 
" />
<path d="M 332.717, 387.885 
	L 332.717, 387.886 
	L 332.717, 0.035 
" />
<path d="M 337.324, 387.885 
	L 337.323, 387.886 
	L 337.323, 0.035 
" />
<path d="M 341.930, 387.885 
	L 341.929, 387.886 
	L 341.929, 0.035 
" />
<path d="M 346.536, 387.885 
	L 346.535, 387.886 
	L 346.535, 0.035 
" />
<path d="M 351.142, 387.885 
	L 351.142, 387.886 
	L 351.142, 0.035 
" />
<path d="M 355.749, 387.885 
	L 355.748, 387.886 
	L 355.748, 0.035 
" />
<path d="M 360.355, 387.885 
	L 360.354, 387.886 
	L 360.354, 0.035 
" />
<path d="M 364.961, 387.885 
	L 364.961, 387.886 
	L 364.961, 0.035 
" />
<path d="M 369.568, 387.885 
	L 369.567, 387.886 
	L 369.567, 0.035 
" />
<path d="M 374.174, 387.885 
	L 374.173, 387.886 
	L 374.173, 0.035 
" />
</g><g style="stroke:rgb(0,255,0); fill:none; stroke-width:0.100mm" >
<path d="M 5.068, 387.921 
	L 5.067, 387.921 
	L 5.067, 0.071 
	L 338.634, 0.071 
	L 338.634, 387.921 
	L 5.067, 387.921 
" />
<path d="M 5.103, 387.885 
	L 5.102, 387.886 
	L 5.102, 0.035 
" />
<path d="M 9.639, 387.885 
	L 9.638, 387.886 
	L 9.638, 0.035 
" />
<path d="M 14.174, 387.885 
	L 14.173, 387.886 
	L 14.173, 0.035 
" />
<path d="M 18.709, 387.885 
	L 18.709, 387.886 
	L 18.709, 0.035 
" />
<path d="M 23.245, 387.885 
	L 23.244, 387.886 
	L 23.244, 0.035 
" />
<path d="M 27.780, 387.885 
	L 27.780, 387.886 
	L 27.780, 0.035 
" />
<path d="M 32.316, 387.885 
	L 32.315, 387.886 
	L 32.315, 0.035 
" />
<path d="M 36.851, 387.885 
	L 36.850, 387.886 
	L 36.850, 0.035 
" />
<path d="M 41.387, 387.885 
	L 41.386, 387.886 
	L 41.386, 0.035 
" />
<path d="M 45.922, 387.885 
	L 45.921, 387.886 
	L 45.921, 0.035 
" />
<path d="M 50.457, 387.885 
	L 50.457, 387.886 
	L 50.457, 0.035 
" />
<path d="M 54.993, 387.885 
	L 54.992, 387.886 
	L 54.992, 0.035 
" />
<path d="M 59.528, 387.885 
	L 59.528, 387.886 
	L 59.528, 0.035 
" />
<path d="M 64.064, 387.885 
	L 64.063, 387.886 
	L 64.063, 0.035 
" />
<path d="M 68.599, 387.885 
	L 68.598, 387.886 
	L 68.598, 0.035 
" />
<path d="M 73.135, 387.885 
	L 73.134, 387.886 
	L 73.134, 0.035 
" />
<path d="M 77.670, 387.885 
	L 77.669, 387.886 
	L 77.669, 0.035 
" />
<path d="M 82.205, 387.885 
	L 82.205, 387.886 
	L 82.205, 0.035 
" />
<path d="M 86.741, 387.885 
	L 86.740, 387.886 
	L 86.740, 0.035 
" />
<path d="M 91.276, 387.885 
	L 91.276, 387.886 
	L 91.276, 0.035 
" />
<path d="M 95.812, 387.885 
	L 95.811, 387.886 
	L 95.811, 0.035 
" />
<path d="M 100.347, 387.885 
	L 100.346, 387.886 
	L 100.346, 0.035 
" />
<path d="M 104.883, 387.885 
	L 104.882, 387.886 
	L 104.882, 0.035 
" />
<path d="M 109.418, 387.885 
	L 109.417, 387.886 
	L 109.417, 0.035 
" />
<path d="M 113.953, 387.885 
	L 113.953, 387.886 
	L 113.953, 0.035 
" />
<path d="M 118.489, 387.885 
	L 118.488, 387.886 
	L 118.488, 0.035 
" />
<path d="M 123.024, 387.885 
	L 123.024, 387.886 
	L 123.024, 0.035 
" />
<path d="M 127.560, 387.885 
	L 127.559, 387.886 
	L 127.559, 0.035 
" />
<path d="M 132.095, 387.885 
	L 132.095, 387.886 
	L 132.095, 0.035 
" />
<path d="M 136.631, 387.885 
	L 136.630, 387.886 
	L 136.630, 0.035 
" />
<path d="M 141.166, 387.885 
	L 141.165, 387.886 
	L 141.165, 0.035 
" />
<path d="M 145.702, 387.885 
	L 145.701, 387.886 
	L 145.701, 0.035 
" />
<path d="M 150.237, 387.885 
	L 150.236, 387.886 
	L 150.236, 0.035 
" />
<path d="M 154.772, 387.885 
	L 154.772, 387.886 
	L 154.772, 0.035 
" />
<path d="M 159.308, 387.885 
	L 159.307, 387.886 
	L 159.307, 0.035 
" />
<path d="M 163.843, 387.885 
	L 163.843, 387.886 
	L 163.843, 0.035 
" />
<path d="M 168.379, 387.885 
	L 168.378, 387.886 
	L 168.378, 0.035 
" />
<path d="M 172.914, 387.885 
	L 172.913, 387.886 
	L 172.913, 0.035 
" />
<path d="M 177.450, 387.885 
	L 177.449, 387.886 
	L 177.449, 0.035 
" />
<path d="M 181.985, 387.885 
	L 181.984, 387.886 
	L 181.984, 0.035 
" />
<path d="M 186.520, 387.885 
	L 186.520, 387.886 
	L 186.520, 0.035 
" />
<path d="M 191.056, 387.885 
	L 191.055, 387.886 
	L 191.055, 0.035 
" />
<path d="M 195.591, 387.885 
	L 195.591, 387.886 
	L 195.591, 0.035 
" />
<path d="M 200.127, 387.885 
	L 200.126, 387.886 
	L 200.126, 0.035 
" />
<path d="M 204.662, 387.885 
	L 204.661, 387.886 
	L 204.661, 0.035 
" />
<path d="M 209.198, 387.885 
	L 209.197, 387.886 
	L 209.197, 0.035 
" />
<path d="M 213.733, 387.885 
	L 213.732, 387.886 
	L 213.732, 0.035 
" />
<path d="M 218.268, 387.885 
	L 218.268, 387.886 
	L 218.268, 0.035 
" />
<path d="M 222.804, 387.885 
	L 222.803, 387.886 
	L 222.803, 0.035 
" />
<path d="M 227.339, 387.885 
	L 227.339, 387.886 
	L 227.339, 0.035 
" />
<path d="M 231.875, 387.885 
	L 231.874, 387.886 
	L 231.874, 0.035 
" />
<path d="M 236.410, 387.885 
	L 236.409, 387.886 
	L 236.409, 0.035 
" />
<path d="M 240.946, 387.885 
	L 240.945, 387.886 
	L 240.945, 0.035 
" />
<path d="M 245.481, 387.885 
	L 245.480, 387.886 
	L 245.480, 0.035 
" />
<path d="M 250.016, 387.885 
	L 250.016, 387.886 
	L 250.016, 0.035 
" />
<path d="M 254.552, 387.885 
	L 254.551, 387.886 
	L 254.551, 0.035 
" />
<path d="M 259.087, 387.885 
	L 259.087, 387.886 
	L 259.087, 0.035 
" />
<path d="M 263.623, 387.885 
	L 263.622, 387.886 
	L 263.622, 0.035 
" />
<path d="M 268.158, 387.885 
	L 268.158, 387.886 
	L 268.158, 0.035 
" />
<path d="M 272.694, 387.885 
	L 272.693, 387.886 
	L 272.693, 0.035 
" />
<path d="M 277.229, 387.885 
	L 277.228, 387.886 
	L 277.228, 0.035 
" />
<path d="M 281.765, 387.885 
	L 281.764, 387.886 
	L 281.764, 0.035 
" />
<path d="M 286.300, 387.885 
	L 286.299, 387.886 
	L 286.299, 0.035 
" />
<path d="M 290.835, 387.885 
	L 290.835, 387.886 
	L 290.835, 0.035 
" />
<path d="M 295.371, 387.885 
	L 295.370, 387.886 
	L 295.370, 0.035 
" />
<path d="M 299.906, 387.885 
	L 299.906, 387.886 
	L 299.906, 0.035 
" />
<path d="M 304.442, 387.885 
	L 304.441, 387.886 
	L 304.441, 0.035 
" />
<path d="M 308.977, 387.885 
	L 308.976, 387.886 
	L 308.976, 0.035 
" />
<path d="M 313.513, 387.885 
	L 313.512, 387.886 
	L 313.512, 0.035 
" />
<path d="M 318.048, 387.885 
	L 318.047, 387.886 
	L 318.047, 0.035 
" />
<path d="M 322.583, 387.885 
	L 322.583, 387.886 
	L 322.583, 0.035 
" />
<path d="M 327.119, 387.885 
	L 327.118, 387.886 
	L 327.118, 0.035 
" />
<path d="M 331.654, 387.885 
	L 331.654, 387.886 
	L 331.654, 0.035 
" />
</g><g style="stroke:rgb(0,0,255); fill:none; stroke-width:0.100mm" >
<path d="M 5.068, 708.732 
	L 5.067, 708.732 
	L 5.067, 387.921 
	L 338.634, 387.921 
	L 338.634, 708.732 
	L 5.067, 708.732 
" />
<path d="M 5.103, 708.696 
	L 5.102, 708.697 
	L 5.102, 387.886 
" />
<path d="M 9.639, 708.696 
	L 9.638, 708.697 
	L 9.638, 387.886 
" />
<path d="M 14.174, 708.696 
	L 14.173, 708.697 
	L 14.173, 387.886 
" />
<path d="M 18.709, 708.696 
	L 18.709, 708.697 
	L 18.709, 387.886 
" />
<path d="M 23.245, 708.696 
	L 23.244, 708.697 
	L 23.244, 387.886 
" />
<path d="M 27.780, 708.696 
	L 27.780, 708.697 
	L 27.780, 387.886 
" />
<path d="M 32.316, 708.696 
	L 32.315, 708.697 
	L 32.315, 387.886 
" />
<path d="M 36.851, 708.696 
	L 36.850, 708.697 
	L 36.850, 387.886 
" />
<path d="M 41.387, 708.696 
	L 41.386, 708.697 
	L 41.386, 387.886 
" />
<path d="M 45.922, 708.696 
	L 45.921, 708.697 
	L 45.921, 387.886 
" />
<path d="M 50.457, 708.696 
	L 50.457, 708.697 
	L 50.457, 387.886 
" />
<path d="M 54.993, 708.696 
	L 54.992, 708.697 
	L 54.992, 387.886 
" />
<path d="M 59.528, 708.696 
	L 59.528, 708.697 
	L 59.528, 387.886 
" />
<path d="M 64.064, 708.696 
	L 64.063, 708.697 
	L 64.063, 387.886 
" />
<path d="M 68.599, 708.696 
	L 68.598, 708.697 
	L 68.598, 387.886 
" />
<path d="M 73.135, 708.696 
	L 73.134, 708.697 
	L 73.134, 387.886 
" />
<path d="M 77.670, 708.696 
	L 77.669, 708.697 
	L 77.669, 387.886 
" />
<path d="M 82.205, 708.696 
	L 82.205, 708.697 
	L 82.205, 387.886 
" />
<path d="M 86.741, 708.696 
	L 86.740, 708.697 
	L 86.740, 387.886 
" />
<path d="M 91.276, 708.696 
	L 91.276, 708.697 
	L 91.276, 387.886 
" />
<path d="M 95.812, 708.696 
	L 95.811, 708.697 
	L 95.811, 387.886 
" />
<path d="M 100.347, 708.696 
	L 100.346, 708.697 
	L 100.346, 387.886 
" />
<path d="M 104.883, 708.696 
	L 104.882, 708.697 
	L 104.882, 387.886 
" />
<path d="M 109.418, 708.696 
	L 109.417, 708.697 
	L 109.417, 387.886 
" />
<path d="M 113.953, 708.696 
	L 113.953, 708.697 
	L 113.953, 387.886 
" />
<path d="M 118.489, 708.696 
	L 118.488, 708.697 
	L 118.488, 387.886 
" />
<path d="M 123.024, 708.696 
	L 123.024, 708.697 
	L 123.024, 387.886 
" />
<path d="M 127.560, 708.696 
	L 127.559, 708.697 
	L 127.559, 387.886 
" />
<path d="M 132.095, 708.696 
	L 132.095, 708.697 
	L 132.095, 387.886 
" />
<path d="M 136.631, 708.696 
	L 136.630, 708.697 
	L 136.630, 387.886 
" />
<path d="M 141.166, 708.696 
	L 141.165, 708.697 
	L 141.165, 387.886 
" />
<path d="M 145.702, 708.696 
	L 145.701, 708.697 
	L 145.701, 387.886 
" />
<path d="M 150.237, 708.696 
	L 150.236, 708.697 
	L 150.236, 387.886 
" />
<path d="M 154.772, 708.696 
	L 154.772, 708.697 
	L 154.772, 387.886 
" />
<path d="M 159.308, 708.696 
	L 159.307, 708.697 
	L 159.307, 387.886 
" />
<path d="M 163.843, 708.696 
	L 163.843, 708.697 
	L 163.843, 387.886 
" />
<path d="M 168.379, 708.696 
	L 168.378, 708.697 
	L 168.378, 387.886 
" />
<path d="M 172.914, 708.696 
	L 172.913, 708.697 
	L 172.913, 387.886 
" />
<path d="M 177.450, 708.696 
	L 177.449, 708.697 
	L 177.449, 387.886 
" />
<path d="M 181.985, 708.696 
	L 181.984, 708.697 
	L 181.984, 387.886 
" />
<path d="M 186.520, 708.696 
	L 186.520, 708.697 
	L 186.520, 387.886 
" />
<path d="M 191.056, 708.696 
	L 191.055, 708.697 
	L 191.055, 387.886 
" />
<path d="M 195.591, 708.696 
	L 195.591, 708.697 
	L 195.591, 387.886 
" />
<path d="M 200.127, 708.696 
	L 200.126, 708.697 
	L 200.126, 387.886 
" />
<path d="M 204.662, 708.696 
	L 204.661, 708.697 
	L 204.661, 387.886 
" />
<path d="M 209.198, 708.696 
	L 209.197, 708.697 
	L 209.197, 387.886 
" />
<path d="M 213.733, 708.696 
	L 213.732, 708.697 
	L 213.732, 387.886 
" />
<path d="M 218.268, 708.696 
	L 218.268, 708.697 
	L 218.268, 387.886 
" />
<path d="M 222.804, 708.696 
	L 222.803, 708.697 
	L 222.803, 387.886 
" />
<path d="M 227.339, 708.696 
	L 227.339, 708.697 
	L 227.339, 387.886 
" />
<path d="M 231.875, 708.696 
	L 231.874, 708.697 
	L 231.874, 387.886 
" />
<path d="M 236.410, 708.696 
	L 236.409, 708.697 
	L 236.409, 387.886 
" />
<path d="M 240.946, 708.696 
	L 240.945, 708.697 
	L 240.945, 387.886 
" />
<path d="M 245.481, 708.696 
	L 245.480, 708.697 
	L 245.480, 387.886 
" />
<path d="M 250.016, 708.696 
	L 250.016, 708.697 
	L 250.016, 387.886 
" />
<path d="M 254.552, 708.696 
	L 254.551, 708.697 
	L 254.551, 387.886 
" />
<path d="M 259.087, 708.696 
	L 259.087, 708.697 
	L 259.087, 387.886 
" />
<path d="M 263.623, 708.696 
	L 263.622, 708.697 
	L 263.622, 387.886 
" />
<path d="M 268.158, 708.696 
	L 268.158, 708.697 
	L 268.158, 387.886 
" />
<path d="M 272.694, 708.696 
	L 272.693, 708.697 
	L 272.693, 387.886 
" />
<path d="M 277.229, 708.696 
	L 277.228, 708.697 
	L 277.228, 387.886 
" />
<path d="M 281.765, 708.696 
	L 281.764, 708.697 
	L 281.764, 387.886 
" />
<path d="M 286.300, 708.696 
	L 286.299, 708.697 
	L 286.299, 387.886 
" />
<path d="M 290.835, 708.696 
	L 290.835, 708.697 
	L 290.835, 387.886 
" />
<path d="M 295.371, 708.696 
	L 295.370, 708.697 
	L 295.370, 387.886 
" />
<path d="M 299.906, 708.696 
	L 299.906, 708.697 
	L 299.906, 387.886 
" />
<path d="M 304.442, 708.696 
	L 304.441, 708.697 
	L 304.441, 387.886 
" />
<path d="M 308.977, 708.696 
	L 308.976, 708.697 
	L 308.976, 387.886 
" />
<path d="M 313.513, 708.696 
	L 313.512, 708.697 
	L 313.512, 387.886 
" />
<path d="M 318.048, 708.696 
	L 318.047, 708.697 
	L 318.047, 387.886 
" />
<path d="M 322.583, 708.696 
	L 322.583, 708.697 
	L 322.583, 387.886 
" />
<path d="M 327.119, 708.696 
	L 327.118, 708.697 
	L 327.118, 387.886 
" />
<path d="M 331.654, 708.696 
	L 331.654, 708.697 
	L 331.654, 387.886 
" />
</g>
</svg>
