<?xml version="1.0" encoding="UTF-8" standalone="no" ?>
<svg width="100%" height="100%" viewBox="0 0 708.697 708.697" xmlns="http://www.w3.org/2000/svg"><g>
</g><g style="stroke:rgb(0,0,0); fill:none; stroke-width:1.000mm" >
</g><g style="stroke:rgb(0,255,0); fill:none; stroke-width:0.100mm" >
<path d="M 0.036, 708.696 
	L 0.035, 708.697 
	L 0.035, 0.035 
	L 708.697, 0.035 
	L 708.697, 708.697 
	L 0.035, 708.697 
" />
<path d="M 0.036, 708.696 
	L 0.035, 708.697 
	L 0.035, 0.035 
	L 708.697, 0.035 
	L 708.697, 708.697 
	L 0.035, 708.697 
" />
<path d="M 0.036, 708.696 
	L 0.035, 708.697 
	L 0.035, 0.035 
" />
<path d="M 4.642, 708.696 
	L 4.642, 708.697 
	L 4.642, 0.035 
" />
<path d="M 9.249, 708.696 
	L 9.248, 708.697 
	L 9.248, 0.035 
" />
<path d="M 13.855, 708.696 
	L 13.854, 708.697 
	L 13.854, 0.035 
" />
<path d="M 18.461, 708.696 
	L 18.461, 708.697 
	L 18.461, 0.035 
" />
<path d="M 23.068, 708.696 
	L 23.067, 708.697 
	L 23.067, 0.035 
" />
<path d="M 27.674, 708.696 
	L 27.673, 708.697 
	L 27.673, 0.035 
" />
<path d="M 32.280, 708.696 
	L 32.280, 708.697 
	L 32.280, 0.035 
" />
<path d="M 36.887, 708.696 
	L 36.886, 708.697 
	L 36.886, 0.035 
" />
<path d="M 41.493, 708.696 
	L 41.492, 708.697 
	L 41.492, 0.035 
" />
<path d="M 46.099, 708.696 
	L 46.098, 708.697 
	L 46.098, 0.035 
" />
<path d="M 50.705, 708.696 
	L 50.705, 708.697 
	L 50.705, 0.035 
" />
<path d="M 55.312, 708.696 
	L 55.311, 708.697 
	L 55.311, 0.035 
" />
<path d="M 59.918, 708.696 
	L 59.917, 708.697 
	L 59.917, 0.035 
" />
<path d="M 64.524, 708.696 
	L 64.524, 708.697 
	L 64.524, 0.035 
" />
<path d="M 69.131, 708.696 
	L 69.130, 708.697 
	L 69.130, 0.035 
" />
<path d="M 73.737, 708.696 
	L 73.736, 708.697 
	L 73.736, 0.035 
" />
<path d="M 78.343, 708.696 
	L 78.343, 708.697 
	L 78.343, 0.035 
" />
<path d="M 82.950, 708.696 
	L 82.949, 708.697 
	L 82.949, 0.035 
" />
<path d="M 87.556, 708.696 
	L 87.555, 708.697 
	L 87.555, 0.035 
" />
<path d="M 92.162, 708.696 
	L 92.161, 708.697 
	L 92.161, 0.035 
" />
<path d="M 96.768, 708.696 
	L 96.768, 708.697 
	L 96.768, 0.035 
" />
<path d="M 101.375, 708.696 
	L 101.374, 708.697 
	L 101.374, 0.035 
" />
<path d="M 105.981, 708.696 
	L 105.980, 708.697 
	L 105.980, 0.035 
" />
<path d="M 110.587, 708.696 
	L 110.587, 708.697 
	L 110.587, 0.035 
" />
<path d="M 115.194, 708.696 
	L 115.193, 708.697 
	L 115.193, 0.035 
" />
<path d="M 119.800, 708.696 
	L 119.799, 708.697 
	L 119.799, 0.035 
" />
<path d="M 124.406, 708.696 
	L 124.406, 708.697 
	L 124.406, 0.035 
" />
<path d="M 129.013, 708.696 
	L 129.012, 708.697 
	L 129.012, 0.035 
" />
<path d="M 133.619, 708.696 
	L 133.618, 708.697 
	L 133.618, 0.035 
" />
<path d="M 138.225, 708.696 
	L 138.224, 708.697 
	L 138.224, 0.035 
" />
<path d="M 142.831, 708.696 
	L 142.831, 708.697 
	L 142.831, 0.035 
" />
<path d="M 147.438, 708.696 
	L 147.437, 708.697 
	L 147.437, 0.035 
" />
<path d="M 152.044, 708.696 
	L 152.043, 708.697 
	L 152.043, 0.035 
" />
<path d="M 156.650, 708.696 
	L 156.650, 708.697 
	L 156.650, 0.035 
" />
<path d="M 161.257, 708.696 
	L 161.256, 708.697 
	L 161.256, 0.035 
" />
<path d="M 165.863, 708.696 
	L 165.862, 708.697 
	L 165.862, 0.035 
" />
<path d="M 170.469, 708.696 
	L 170.469, 708.697 
	L 170.469, 0.035 
" />
<path d="M 175.076, 708.696 
	L 175.075, 708.697 
	L 175.075, 0.035 
" />
<path d="M 179.682, 708.696 
	L 179.681, 708.697 
	L 179.681, 0.035 
" />
<path d="M 184.288, 708.696 
	L 184.287, 708.697 
	L 184.287, 0.035 
" />
<path d="M 188.894, 708.696 
	L 188.894, 708.697 
	L 188.894, 0.035 
" />
<path d="M 193.501, 708.696 
	L 193.500, 708.697 
	L 193.500, 0.035 
" />
<path d="M 198.107, 708.696 
	L 198.106, 708.697 
	L 198.106, 0.035 
" />
<path d="M 202.713, 708.696 
	L 202.713, 708.697 
	L 202.713, 0.035 
" />
<path d="M 207.320, 708.696 
	L 207.319, 708.697 
	L 207.319, 0.035 
" />
<path d="M 211.926, 708.696 
	L 211.925, 708.697 
	L 211.925, 0.035 
" />
<path d="M 216.532, 708.696 
	L 216.532, 708.697 
	L 216.532, 0.035 
" />
<path d="M 221.139, 708.696 
	L 221.138, 708.697 
	L 221.138, 0.035 
" />
<path d="M 225.745, 708.696 
	L 225.744, 708.697 
	L 225.744, 0.035 
" />
<path d="M 230.351, 708.696 
	L 230.350, 708.697 
	L 230.350, 0.035 
" />
<path d="M 234.957, 708.696 
	L 234.957, 708.697 
	L 234.957, 0.035 
" />
<path d="M 239.564, 708.696 
	L 239.563, 708.697 
	L 239.563, 0.035 
" />
<path d="M 244.170, 708.696 
	L 244.169, 708.697 
	L 244.169, 0.035 
" />
<path d="M 248.776, 708.696 
	L 248.776, 708.697 
	L 248.776, 0.035 
" />
<path d="M 253.383, 708.696 
	L 253.382, 708.697 
	L 253.382, 0.035 
" />
<path d="M 257.989, 708.696 
	L 257.988, 708.697 
	L 257.988, 0.035 
" />
<path d="M 262.595, 708.696 
	L 262.595, 708.697 
	L 262.595, 0.035 
" />
<path d="M 267.202, 708.696 
	L 267.201, 708.697 
	L 267.201, 0.035 
" />
<path d="M 271.808, 708.696 
	L 271.807, 708.697 
	L 271.807, 0.035 
" />
<path d="M 276.414, 708.696 
	L 276.413, 708.697 
	L 276.413, 0.035 
" />
<path d="M 281.020, 708.696 
	L 281.020, 708.697 
	L 281.020, 0.035 
" />
<path d="M 285.627, 708.696 
	L 285.626, 708.697 
	L 285.626, 0.035 
" />
<path d="M 290.233, 708.696 
	L 290.232, 708.697 
	L 290.232, 0.035 
" />
<path d="M 294.839, 708.696 
	L 294.839, 708.697 
	L 294.839, 0.035 
" />
<path d="M 299.446, 708.696 
	L 299.445, 708.697 
	L 299.445, 0.035 
" />
<path d="M 304.052, 708.696 
	L 304.051, 708.697 
	L 304.051, 0.035 
" />
<path d="M 308.658, 708.696 
	L 308.658, 708.697 
	L 308.658, 0.035 
" />
<path d="M 313.265, 708.696 
	L 313.264, 708.697 
	L 313.264, 0.035 
" />
<path d="M 317.871, 708.696 
	L 317.870, 708.697 
	L 317.870, 0.035 
" />
<path d="M 322.477, 708.696 
	L 322.476, 708.697 
	L 322.476, 0.035 
" />
<path d="M 327.083, 708.696 
	L 327.083, 708.697 
	L 327.083, 0.035 
" />
<path d="M 331.690, 708.696 
	L 331.689, 708.697 
	L 331.689, 0.035 
" />
<path d="M 336.296, 708.696 
	L 336.295, 708.697 
	L 336.295, 0.035 
" />
<path d="M 340.902, 708.696 
	L 340.902, 708.697 
	L 340.902, 0.035 
" />
<path d="M 345.509, 708.696 
	L 345.508, 708.697 
	L 345.508, 0.035 
" />
<path d="M 350.115, 708.696 
	L 350.114, 708.697 
	L 350.114, 0.035 
" />
<path d="M 354.721, 708.696 
	L 354.721, 708.697 
	L 354.721, 0.035 
" />
<path d="M 359.328, 708.696 
	L 359.327, 708.697 
	L 359.327, 0.035 
" />
<path d="M 363.934, 708.696 
	L 363.933, 708.697 
	L 363.933, 0.035 
" />
<path d="M 368.540, 708.696 
	L 368.539, 708.697 
	L 368.539, 0.035 
" />
<path d="M 373.146, 708.696 
	L 373.146, 708.697 
	L 373.146, 0.035 
" />
<path d="M 377.753, 708.696 
	L 377.752, 708.697 
	L 377.752, 0.035 
" />
<path d="M 382.359, 708.696 
	L 382.358, 708.697 
	L 382.358, 0.035 
" />
<path d="M 386.965, 708.696 
	L 386.965, 708.697 
	L 386.965, 0.035 
" />
<path d="M 391.572, 708.696 
	L 391.571, 708.697 
	L 391.571, 0.035 
" />
<path d="M 396.178, 708.696 
	L 396.177, 708.697 
	L 396.177, 0.035 
" />
<path d="M 400.784, 708.696 
	L 400.784, 708.697 
	L 400.784, 0.035 
" />
<path d="M 405.391, 708.696 
	L 405.390, 708.697 
	L 405.390, 0.035 
" />
<path d="M 409.997, 708.696 
	L 409.996, 708.697 
	L 409.996, 0.035 
" />
<path d="M 414.603, 708.696 
	L 414.602, 708.697 
	L 414.602, 0.035 
" />
<path d="M 419.209, 708.696 
	L 419.209, 708.697 
	L 419.209, 0.035 
" />
<path d="M 423.816, 708.696 
	L 423.815, 708.697 
	L 423.815, 0.035 
" />
<path d="M 428.422, 708.696 
	L 428.421, 708.697 
	L 428.421, 0.035 
" />
<path d="M 433.028, 708.696 
	L 433.028, 708.697 
	L 433.028, 0.035 
" />
<path d="M 437.635, 708.696 
	L 437.634, 708.697 
	L 437.634, 0.035 
" />
<path d="M 442.241, 708.696 
	L 442.240, 708.697 
	L 442.240, 0.035 
" />
<path d="M 446.847, 708.696 
	L 446.847, 708.697 
	L 446.847, 0.035 
" />
<path d="M 451.454, 708.696 
	L 451.453, 708.697 
	L 451.453, 0.035 
" />
<path d="M 456.060, 708.696 
	L 456.059, 708.697 
	L 456.059, 0.035 
" />
<path d="M 460.666, 708.696 
	L 460.665, 708.697 
	L 460.665, 0.035 
" />
<path d="M 465.272, 708.696 
	L 465.272, 708.697 
	L 465.272, 0.035 
" />
<path d="M 469.879, 708.696 
	L 469.878, 708.697 
	L 469.878, 0.035 
" />
<path d="M 474.485, 708.696 
	L 474.484, 708.697 
	L 474.484, 0.035 
" />
<path d="M 479.091, 708.696 
	L 479.091, 708.697 
	L 479.091, 0.035 
" />
<path d="M 483.698, 708.696 
	L 483.697, 708.697 
	L 483.697, 0.035 
" />
<path d="M 488.304, 708.696 
	L 488.303, 708.697 
	L 488.303, 0.035 
" />
<path d="M 492.910, 708.696 
	L 492.910, 708.697 
	L 492.910, 0.035 
" />
<path d="M 497.517, 708.696 
	L 497.516, 708.697 
	L 497.516, 0.035 
" />
<path d="M 502.123, 708.696 
	L 502.122, 708.697 
	L 502.122, 0.035 
" />
<path d="M 506.729, 708.696 
	L 506.728, 708.697 
	L 506.728, 0.035 
" />
<path d="M 511.335, 708.696 
	L 511.335, 708.697 
	L 511.335, 0.035 
" />
<path d="M 515.942, 708.696 
	L 515.941, 708.697 
	L 515.941, 0.035 
" />
<path d="M 520.548, 708.696 
	L 520.547, 708.697 
	L 520.547, 0.035 
" />
<path d="M 525.154, 708.696 
	L 525.154, 708.697 
	L 525.154, 0.035 
" />
<path d="M 529.761, 708.696 
	L 529.760, 708.697 
	L 529.760, 0.035 
" />
<path d="M 534.367, 708.696 
	L 534.366, 708.697 
	L 534.366, 0.035 
" />
<path d="M 538.973, 708.696 
	L 538.973, 708.697 
	L 538.973, 0.035 
" />
<path d="M 543.580, 708.696 
	L 543.579, 708.697 
	L 543.579, 0.035 
" />
<path d="M 548.186, 708.696 
	L 548.185, 708.697 
	L 548.185, 0.035 
" />
<path d="M 552.792, 708.696 
	L 552.791, 708.697 
	L 552.791, 0.035 
" />
<path d="M 557.398, 708.696 
	L 557.398, 708.697 
	L 557.398, 0.035 
" />
<path d="M 562.005, 708.696 
	L 562.004, 708.697 
	L 562.004, 0.035 
" />
<path d="M 566.611, 708.696 
	L 566.610, 708.697 
	L 566.610, 0.035 
" />
<path d="M 571.217, 708.696 
	L 571.217, 708.697 
	L 571.217, 0.035 
" />
<path d="M 575.824, 708.696 
	L 575.823, 708.697 
	L 575.823, 0.035 
" />
<path d="M 580.430, 708.696 
	L 580.429, 708.697 
	L 580.429, 0.035 
" />
<path d="M 585.036, 708.696 
	L 585.036, 708.697 
	L 585.036, 0.035 
" />
<path d="M 589.643, 708.696 
	L 589.642, 708.697 
	L 589.642, 0.035 
" />
<path d="M 594.249, 708.696 
	L 594.248, 708.697 
	L 594.248, 0.035 
" />
<path d="M 598.855, 708.696 
	L 598.854, 708.697 
	L 598.854, 0.035 
" />
<path d="M 603.461, 708.696 
	L 603.461, 708.697 
	L 603.461, 0.035 
" />
<path d="M 608.068, 708.696 
	L 608.067, 708.697 
	L 608.067, 0.035 
" />
<path d="M 612.674, 708.696 
	L 612.673, 708.697 
	L 612.673, 0.035 
" />
<path d="M 617.280, 708.696 
	L 617.280, 708.697 
	L 617.280, 0.035 
" />
<path d="M 621.887, 708.696 
	L 621.886, 708.697 
	L 621.886, 0.035 
" />
<path d="M 626.493, 708.696 
	L 626.492, 708.697 
	L 626.492, 0.035 
" />
<path d="M 631.099, 708.696 
	L 631.099, 708.697 
	L 631.099, 0.035 
" />
<path d="M 635.706, 708.696 
	L 635.705, 708.697 
	L 635.705, 0.035 
" />
<path d="M 640.312, 708.696 
	L 640.311, 708.697 
	L 640.311, 0.035 
" />
<path d="M 644.918, 708.696 
	L 644.917, 708.697 
	L 644.917, 0.035 
" />
<path d="M 649.524, 708.696 
	L 649.524, 708.697 
	L 649.524, 0.035 
" />
<path d="M 654.131, 708.696 
	L 654.130, 708.697 
	L 654.130, 0.035 
" />
<path d="M 658.737, 708.696 
	L 658.736, 708.697 
	L 658.736, 0.035 
" />
<path d="M 663.343, 708.696 
	L 663.343, 708.697 
	L 663.343, 0.035 
" />
<path d="M 667.950, 708.696 
	L 667.949, 708.697 
	L 667.949, 0.035 
" />
<path d="M 672.556, 708.696 
	L 672.555, 708.697 
	L 672.555, 0.035 
" />
<path d="M 677.162, 708.696 
	L 677.162, 708.697 
	L 677.162, 0.035 
" />
<path d="M 681.769, 708.696 
	L 681.768, 708.697 
	L 681.768, 0.035 
" />
<path d="M 686.375, 708.696 
	L 686.374, 708.697 
	L 686.374, 0.035 
" />
<path d="M 690.981, 708.696 
	L 690.980, 708.697 
	L 690.980, 0.035 
" />
<path d="M 695.587, 708.696 
	L 695.587, 708.697 
	L 695.587, 0.035 
" />
<path d="M 700.194, 708.696 
	L 700.193, 708.697 
	L 700.193, 0.035 
" />
<path d="M 0.001, 708.732 
	L 0.000, 708.732 
	L 0.000, 687.402 
	L 549.567, 687.402 
	L 549.567, 708.732 
	L 0.000, 708.732 
" />
<path d="M 0.036, 708.696 
	L 0.035, 708.697 
	L 0.035, 687.366 
" />
<path d="M 4.642, 708.696 
	L 4.642, 708.697 
	L 4.642, 687.366 
" />
<path d="M 9.249, 708.696 
	L 9.248, 708.697 
	L 9.248, 687.366 
" />
<path d="M 13.855, 708.696 
	L 13.854, 708.697 
	L 13.854, 687.366 
" />
<path d="M 18.461, 708.696 
	L 18.461, 708.697 
	L 18.461, 687.366 
" />
<path d="M 23.068, 708.696 
	L 23.067, 708.697 
	L 23.067, 687.366 
" />
<path d="M 27.674, 708.696 
	L 27.673, 708.697 
	L 27.673, 687.366 
" />
<path d="M 32.280, 708.696 
	L 32.280, 708.697 
	L 32.280, 687.366 
" />
<path d="M 36.887, 708.696 
	L 36.886, 708.697 
	L 36.886, 687.366 
" />
<path d="M 41.493, 708.696 
	L 41.492, 708.697 
	L 41.492, 687.366 
" />
<path d="M 46.099, 708.696 
	L 46.098, 708.697 
	L 46.098, 687.366 
" />
<path d="M 50.705, 708.696 
	L 50.705, 708.697 
	L 50.705, 687.366 
" />
<path d="M 55.312, 708.696 
	L 55.311, 708.697 
	L 55.311, 687.366 
" />
<path d="M 59.918, 708.696 
	L 59.917, 708.697 
	L 59.917, 687.366 
" />
<path d="M 64.524, 708.696 
	L 64.524, 708.697 
	L 64.524, 687.366 
" />
<path d="M 69.131, 708.696 
	L 69.130, 708.697 
	L 69.130, 687.366 
" />
<path d="M 73.737, 708.696 
	L 73.736, 708.697 
	L 73.736, 687.366 
" />
<path d="M 78.343, 708.696 
	L 78.343, 708.697 
	L 78.343, 687.366 
" />
<path d="M 82.950, 708.696 
	L 82.949, 708.697 
	L 82.949, 687.366 
" />
<path d="M 87.556, 708.696 
	L 87.555, 708.697 
	L 87.555, 687.366 
" />
<path d="M 92.162, 708.696 
	L 92.161, 708.697 
	L 92.161, 687.366 
" />
<path d="M 96.768, 708.696 
	L 96.768, 708.697 
	L 96.768, 687.366 
" />
<path d="M 101.375, 708.696 
	L 101.374, 708.697 
	L 101.374, 687.366 
" />
<path d="M 105.981, 708.696 
	L 105.980, 708.697 
	L 105.980, 687.366 
" />
<path d="M 110.587, 708.696 
	L 110.587, 708.697 
	L 110.587, 687.366 
" />
<path d="M 115.194, 708.696 
	L 115.193, 708.697 
	L 115.193, 687.366 
" />
<path d="M 119.800, 708.696 
	L 119.799, 708.697 
	L 119.799, 687.366 
" />
<path d="M 124.406, 708.696 
	L 124.406, 708.697 
	L 124.406, 687.366 
" />
<path d="M 129.013, 708.696 
	L 129.012, 708.697 
	L 129.012, 687.366 
" />
<path d="M 133.619, 708.696 
	L 133.618, 708.697 
	L 133.618, 687.366 
" />
<path d="M 138.225, 708.696 
	L 138.224, 708.697 
	L 138.224, 687.366 
" />
<path d="M 142.831, 708.696 
	L 142.831, 708.697 
	L 142.831, 687.366 
" />
<path d="M 147.438, 708.696 
	L 147.437, 708.697 
	L 147.437, 687.366 
" />
<path d="M 152.044, 708.696 
	L 152.043, 708.697 
	L 152.043, 687.366 
" />
<path d="M 156.650, 708.696 
	L 156.650, 708.697 
	L 156.650, 687.366 
" />
<path d="M 161.257, 708.696 
	L 161.256, 708.697 
	L 161.256, 687.366 
" />
<path d="M 165.863, 708.696 
	L 165.862, 708.697 
	L 165.862, 687.366 
" />
<path d="M 170.469, 708.696 
	L 170.469, 708.697 
	L 170.469, 687.366 
" />
<path d="M 175.076, 708.696 
	L 175.075, 708.697 
	L 175.075, 687.366 
" />
<path d="M 179.682, 708.696 
	L 179.681, 708.697 
	L 179.681, 687.366 
" />
<path d="M 184.288, 708.696 
	L 184.287, 708.697 
	L 184.287, 687.366 
" />
<path d="M 188.894, 708.696 
	L 188.894, 708.697 
	L 188.894, 687.366 
" />
<path d="M 193.501, 708.696 
	L 193.500, 708.697 
	L 193.500, 687.366 
" />
<path d="M 198.107, 708.696 
	L 198.106, 708.697 
	L 198.106, 687.366 
" />
<path d="M 202.713, 708.696 
	L 202.713, 708.697 
	L 202.713, 687.366 
" />
<path d="M 207.320, 708.696 
	L 207.319, 708.697 
	L 207.319, 687.366 
" />
<path d="M 211.926, 708.696 
	L 211.925, 708.697 
	L 211.925, 687.366 
" />
<path d="M 216.532, 708.696 
	L 216.532, 708.697 
	L 216.532, 687.366 
" />
<path d="M 221.139, 708.696 
	L 221.138, 708.697 
	L 221.138, 687.366 
" />
<path d="M 225.745, 708.696 
	L 225.744, 708.697 
	L 225.744, 687.366 
" />
<path d="M 230.351, 708.696 
	L 230.350, 708.697 
	L 230.350, 687.366 
" />
<path d="M 234.957, 708.696 
	L 234.957, 708.697 
	L 234.957, 687.366 
" />
<path d="M 239.564, 708.696 
	L 239.563, 708.697 
	L 239.563, 687.366 
" />
<path d="M 244.170, 708.696 
	L 244.169, 708.697 
	L 244.169, 687.366 
" />
<path d="M 248.776, 708.696 
	L 248.776, 708.697 
	L 248.776, 687.366 
" />
<path d="M 253.383, 708.696 
	L 253.382, 708.697 
	L 253.382, 687.366 
" />
<path d="M 257.989, 708.696 
	L 257.988, 708.697 
	L 257.988, 687.366 
" />
<path d="M 262.595, 708.696 
	L 262.595, 708.697 
	L 262.595, 687.366 
" />
<path d="M 267.202, 708.696 
	L 267.201, 708.697 
	L 267.201, 687.366 
" />
<path d="M 271.808, 708.696 
	L 271.807, 708.697 
	L 271.807, 687.366 
" />
<path d="M 276.414, 708.696 
	L 276.413, 708.697 
	L 276.413, 687.366 
" />
<path d="M 281.020, 708.696 
	L 281.020, 708.697 
	L 281.020, 687.366 
" />
<path d="M 285.627, 708.696 
	L 285.626, 708.697 
	L 285.626, 687.366 
" />
<path d="M 290.233, 708.696 
	L 290.232, 708.697 
	L 290.232, 687.366 
" />
<path d="M 294.839, 708.696 
	L 294.839, 708.697 
	L 294.839, 687.366 
" />
<path d="M 299.446, 708.696 
	L 299.445, 708.697 
	L 299.445, 687.366 
" />
<path d="M 304.052, 708.696 
	L 304.051, 708.697 
	L 304.051, 687.366 
" />
<path d="M 308.658, 708.696 
	L 308.658, 708.697 
	L 308.658, 687.366 
" />
<path d="M 313.265, 708.696 
	L 313.264, 708.697 
	L 313.264, 687.366 
" />
<path d="M 317.871, 708.696 
	L 317.870, 708.697 
	L 317.870, 687.366 
" />
<path d="M 322.477, 708.696 
	L 322.476, 708.697 
	L 322.476, 687.366 
" />
<path d="M 327.083, 708.696 
	L 327.083, 708.697 
	L 327.083, 687.366 
" />
<path d="M 331.690, 708.696 
	L 331.689, 708.697 
	L 331.689, 687.366 
" />
<path d="M 336.296, 708.696 
	L 336.295, 708.697 
	L 336.295, 687.366 
" />
<path d="M 340.902, 708.696 
	L 340.902, 708.697 
	L 340.902, 687.366 
" />
<path d="M 345.509, 708.696 
	L 345.508, 708.697 
	L 345.508, 687.366 
" />
<path d="M 350.115, 708.696 
	L 350.114, 708.697 
	L 350.114, 687.366 
" />
<path d="M 354.721, 708.696 
	L 354.721, 708.697 
	L 354.721, 687.366 
" />
<path d="M 359.328, 708.696 
	L 359.327, 708.697 
	L 359.327, 687.366 
" />
<path d="M 363.934, 708.696 
	L 363.933, 708.697 
	L 363.933, 687.366 
" />
<path d="M 368.540, 708.696 
	L 368.539, 708.697 
	L 368.539, 687.366 
" />
<path d="M 373.146, 708.696 
	L 373.146, 708.697 
	L 373.146, 687.366 
" />
<path d="M 377.753, 708.696 
	L 377.752, 708.697 
	L 377.752, 687.366 
" />
<path d="M 382.359, 708.696 
	L 382.358, 708.697 
	L 382.358, 687.366 
" />
<path d="M 386.965, 708.696 
	L 386.965, 708.697 
	L 386.965, 687.366 
" />
<path d="M 391.572, 708.696 
	L 391.571, 708.697 
	L 391.571, 687.366 
" />
<path d="M 396.178, 708.696 
	L 396.177, 708.697 
	L 396.177, 687.366 
" />
<path d="M 400.784, 708.696 
	L 400.784, 708.697 
	L 400.784, 687.366 
" />
<path d="M 405.391, 708.696 
	L 405.390, 708.697 
	L 405.390, 687.366 
" />
<path d="M 409.997, 708.696 
	L 409.996, 708.697 
	L 409.996, 687.366 
" />
<path d="M 414.603, 708.696 
	L 414.602, 708.697 
	L 414.602, 687.366 
" />
<path d="M 419.209, 708.696 
	L 419.209, 708.697 
	L 419.209, 687.366 
" />
<path d="M 423.816, 708.696 
	L 423.815, 708.697 
	L 423.815, 687.366 
" />
<path d="M 428.422, 708.696 
	L 428.421, 708.697 
	L 428.421, 687.366 
" />
<path d="M 433.028, 708.696 
	L 433.028, 708.697 
	L 433.028, 687.366 
" />
<path d="M 437.635, 708.696 
	L 437.634, 708.697 
	L 437.634, 687.366 
" />
<path d="M 442.241, 708.696 
	L 442.240, 708.697 
	L 442.240, 687.366 
" />
<path d="M 446.847, 708.696 
	L 446.847, 708.697 
	L 446.847, 687.366 
" />
<path d="M 451.454, 708.696 
	L 451.453, 708.697 
	L 451.453, 687.366 
" />
<path d="M 456.060, 708.696 
	L 456.059, 708.697 
	L 456.059, 687.366 
" />
<path d="M 460.666, 708.696 
	L 460.665, 708.697 
	L 460.665, 687.366 
" />
<path d="M 465.272, 708.696 
	L 465.272, 708.697 
	L 465.272, 687.366 
" />
<path d="M 469.879, 708.696 
	L 469.878, 708.697 
	L 469.878, 687.366 
" />
<path d="M 474.485, 708.696 
	L 474.484, 708.697 
	L 474.484, 687.366 
" />
<path d="M 479.091, 708.696 
	L 479.091, 708.697 
	L 479.091, 687.366 
" />
<path d="M 483.698, 708.696 
	L 483.697, 708.697 
	L 483.697, 687.366 
" />
<path d="M 488.304, 708.696 
	L 488.303, 708.697 
	L 488.303, 687.366 
" />
<path d="M 492.910, 708.696 
	L 492.910, 708.697 
	L 492.910, 687.366 
" />
<path d="M 497.517, 708.696 
	L 497.516, 708.697 
	L 497.516, 687.366 
" />
<path d="M 502.123, 708.696 
	L 502.122, 708.697 
	L 502.122, 687.366 
" />
<path d="M 506.729, 708.696 
	L 506.728, 708.697 
	L 506.728, 687.366 
" />
<path d="M 511.335, 708.696 
	L 511.335, 708.697 
	L 511.335, 687.366 
" />
<path d="M 515.942, 708.696 
	L 515.941, 708.697 
	L 515.941, 687.366 
" />
<path d="M 520.548, 708.696 
	L 520.547, 708.697 
	L 520.547, 687.366 
" />
<path d="M 525.154, 708.696 
	L 525.154, 708.697 
	L 525.154, 687.366 
" />
<path d="M 529.761, 708.696 
	L 529.760, 708.697 
	L 529.760, 687.366 
" />
<path d="M 534.367, 708.696 
	L 534.366, 708.697 
	L 534.366, 687.366 
" />
<path d="M 538.973, 708.696 
	L 538.973, 708.697 
	L 538.973, 687.366 
" />
<path d="M 543.580, 708.696 
	L 543.579, 708.697 
	L 543.579, 687.366 
" />
<path d="M 0.001, 687.401 
	L 0.000, 687.402 
	L 0.000, 0.071 
	L 549.567, 0.071 
	L 549.567, 687.402 
	L 0.000, 687.402 
" />
<path d="M 0.036, 687.366 
	L 0.035, 687.366 
	L 0.035, 0.035 
" />
<path d="M 4.642, 687.366 
	L 4.642, 687.366 
	L 4.642, 0.035 
" />
<path d="M 9.249, 687.366 
	L 9.248, 687.366 
	L 9.248, 0.035 
" />
<path d="M 13.855, 687.366 
	L 13.854, 687.366 
	L 13.854, 0.035 
" />
<path d="M 18.461, 687.366 
	L 18.461, 687.366 
	L 18.461, 0.035 
" />
<path d="M 23.068, 687.366 
	L 23.067, 687.366 
	L 23.067, 0.035 
" />
<path d="M 27.674, 687.366 
	L 27.673, 687.366 
	L 27.673, 0.035 
" />
<path d="M 32.280, 687.366 
	L 32.280, 687.366 
	L 32.280, 0.035 
" />
<path d="M 36.887, 687.366 
	L 36.886, 687.366 
	L 36.886, 0.035 
" />
<path d="M 41.493, 687.366 
	L 41.492, 687.366 
	L 41.492, 0.035 
" />
<path d="M 46.099, 687.366 
	L 46.098, 687.366 
	L 46.098, 0.035 
" />
<path d="M 50.705, 687.366 
	L 50.705, 687.366 
	L 50.705, 0.035 
" />
<path d="M 55.312, 687.366 
	L 55.311, 687.366 
	L 55.311, 0.035 
" />
<path d="M 59.918, 687.366 
	L 59.917, 687.366 
	L 59.917, 0.035 
" />
<path d="M 64.524, 687.366 
	L 64.524, 687.366 
	L 64.524, 0.035 
" />
<path d="M 69.131, 687.366 
	L 69.130, 687.366 
	L 69.130, 0.035 
" />
<path d="M 73.737, 687.366 
	L 73.736, 687.366 
	L 73.736, 0.035 
" />
<path d="M 78.343, 687.366 
	L 78.343, 687.366 
	L 78.343, 0.035 
" />
<path d="M 82.950, 687.366 
	L 82.949, 687.366 
	L 82.949, 0.035 
" />
<path d="M 87.556, 687.366 
	L 87.555, 687.366 
	L 87.555, 0.035 
" />
<path d="M 92.162, 687.366 
	L 92.161, 687.366 
	L 92.161, 0.035 
" />
<path d="M 96.768, 687.366 
	L 96.768, 687.366 
	L 96.768, 0.035 
" />
<path d="M 101.375, 687.366 
	L 101.374, 687.366 
	L 101.374, 0.035 
" />
<path d="M 105.981, 687.366 
	L 105.980, 687.366 
	L 105.980, 0.035 
" />
<path d="M 110.587, 687.366 
	L 110.587, 687.366 
	L 110.587, 0.035 
" />
<path d="M 115.194, 687.366 
	L 115.193, 687.366 
	L 115.193, 0.035 
" />
<path d="M 119.800, 687.366 
	L 119.799, 687.366 
	L 119.799, 0.035 
" />
<path d="M 124.406, 687.366 
	L 124.406, 687.366 
	L 124.406, 0.035 
" />
<path d="M 129.013, 687.366 
	L 129.012, 687.366 
	L 129.012, 0.035 
" />
<path d="M 133.619, 687.366 
	L 133.618, 687.366 
	L 133.618, 0.035 
" />
<path d="M 138.225, 687.366 
	L 138.224, 687.366 
	L 138.224, 0.035 
" />
<path d="M 142.831, 687.366 
	L 142.831, 687.366 
	L 142.831, 0.035 
" />
<path d="M 147.438, 687.366 
	L 147.437, 687.366 
	L 147.437, 0.035 
" />
<path d="M 152.044, 687.366 
	L 152.043, 687.366 
	L 152.043, 0.035 
" />
<path d="M 156.650, 687.366 
	L 156.650, 687.366 
	L 156.650, 0.035 
" />
<path d="M 161.257, 687.366 
	L 161.256, 687.366 
	L 161.256, 0.035 
" />
<path d="M 165.863, 687.366 
	L 165.862, 687.366 
	L 165.862, 0.035 
" />
<path d="M 170.469, 687.366 
	L 170.469, 687.366 
	L 170.469, 0.035 
" />
<path d="M 175.076, 687.366 
	L 175.075, 687.366 
	L 175.075, 0.035 
" />
<path d="M 179.682, 687.366 
	L 179.681, 687.366 
	L 179.681, 0.035 
" />
<path d="M 184.288, 687.366 
	L 184.287, 687.366 
	L 184.287, 0.035 
" />
<path d="M 188.894, 687.366 
	L 188.894, 687.366 
	L 188.894, 0.035 
" />
<path d="M 193.501, 687.366 
	L 193.500, 687.366 
	L 193.500, 0.035 
" />
<path d="M 198.107, 687.366 
	L 198.106, 687.366 
	L 198.106, 0.035 
" />
<path d="M 202.713, 687.366 
	L 202.713, 687.366 
	L 202.713, 0.035 
" />
<path d="M 207.320, 687.366 
	L 207.319, 687.366 
	L 207.319, 0.035 
" />
<path d="M 211.926, 687.366 
	L 211.925, 687.366 
	L 211.925, 0.035 
" />
<path d="M 216.532, 687.366 
	L 216.532, 687.366 
	L 216.532, 0.035 
" />
<path d="M 221.139, 687.366 
	L 221.138, 687.366 
	L 221.138, 0.035 
" />
<path d="M 225.745, 687.366 
	L 225.744, 687.366 
	L 225.744, 0.035 
" />
<path d="M 230.351, 687.366 
	L 230.350, 687.366 
	L 230.350, 0.035 
" />
<path d="M 234.957, 687.366 
	L 234.957, 687.366 
	L 234.957, 0.035 
" />
<path d="M 239.564, 687.366 
	L 239.563, 687.366 
	L 239.563, 0.035 
" />
<path d="M 244.170, 687.366 
	L 244.169, 687.366 
	L 244.169, 0.035 
" />
<path d="M 248.776, 687.366 
	L 248.776, 687.366 
	L 248.776, 0.035 
" />
<path d="M 253.383, 687.366 
	L 253.382, 687.366 
	L 253.382, 0.035 
" />
<path d="M 257.989, 687.366 
	L 257.988, 687.366 
	L 257.988, 0.035 
" />
<path d="M 262.595, 687.366 
	L 262.595, 687.366 
	L 262.595, 0.035 
" />
<path d="M 267.202, 687.366 
	L 267.201, 687.366 
	L 267.201, 0.035 
" />
<path d="M 271.808, 687.366 
	L 271.807, 687.366 
	L 271.807, 0.035 
" />
<path d="M 276.414, 687.366 
	L 276.413, 687.366 
	L 276.413, 0.035 
" />
<path d="M 281.020, 687.366 
	L 281.020, 687.366 
	L 281.020, 0.035 
" />
<path d="M 285.627, 687.366 
	L 285.626, 687.366 
	L 285.626, 0.035 
" />
<path d="M 290.233, 687.366 
	L 290.232, 687.366 
	L 290.232, 0.035 
" />
<path d="M 294.839, 687.366 
	L 294.839, 687.366 
	L 294.839, 0.035 
" />
<path d="M 299.446, 687.366 
	L 299.445, 687.366 
	L 299.445, 0.035 
" />
<path d="M 304.052, 687.366 
	L 304.051, 687.366 
	L 304.051, 0.035 
" />
<path d="M 308.658, 687.366 
	L 308.658, 687.366 
	L 308.658, 0.035 
" />
<path d="M 313.265, 687.366 
	L 313.264, 687.366 
	L 313.264, 0.035 
" />
<path d="M 317.871, 687.366 
	L 317.870, 687.366 
	L 317.870, 0.035 
" />
<path d="M 322.477, 687.366 
	L 322.476, 687.366 
	L 322.476, 0.035 
" />
<path d="M 327.083, 687.366 
	L 327.083, 687.366 
	L 327.083, 0.035 
" />
<path d="M 331.690, 687.366 
	L 331.689, 687.366 
	L 331.689, 0.035 
" />
<path d="M 336.296, 687.366 
	L 336.295, 687.366 
	L 336.295, 0.035 
" />
<path d="M 340.902, 687.366 
	L 340.902, 687.366 
	L 340.902, 0.035 
" />
<path d="M 345.509, 687.366 
	L 345.508, 687.366 
	L 345.508, 0.035 
" />
<path d="M 350.115, 687.366 
	L 350.114, 687.366 
	L 350.114, 0.035 
" />
<path d="M 354.721, 687.366 
	L 354.721, 687.366 
	L 354.721, 0.035 
" />
<path d="M 359.328, 687.366 
	L 359.327, 687.366 
	L 359.327, 0.035 
" />
<path d="M 363.934, 687.366 
	L 363.933, 687.366 
	L 363.933, 0.035 
" />
<path d="M 368.540, 687.366 
	L 368.539, 687.366 
	L 368.539, 0.035 
" />
<path d="M 373.146, 687.366 
	L 373.146, 687.366 
	L 373.146, 0.035 
" />
<path d="M 377.753, 687.366 
	L 377.752, 687.366 
	L 377.752, 0.035 
" />
<path d="M 382.359, 687.366 
	L 382.358, 687.366 
	L 382.358, 0.035 
" />
<path d="M 386.965, 687.366 
	L 386.965, 687.366 
	L 386.965, 0.035 
" />
<path d="M 391.572, 687.366 
	L 391.571, 687.366 
	L 391.571, 0.035 
" />
<path d="M 396.178, 687.366 
	L 396.177, 687.366 
	L 396.177, 0.035 
" />
<path d="M 400.784, 687.366 
	L 400.784, 687.366 
	L 400.784, 0.035 
" />
<path d="M 405.391, 687.366 
	L 405.390, 687.366 
	L 405.390, 0.035 
" />
<path d="M 409.997, 687.366 
	L 409.996, 687.366 
	L 409.996, 0.035 
" />
<path d="M 414.603, 687.366 
	L 414.602, 687.366 
	L 414.602, 0.035 
" />
<path d="M 419.209, 687.366 
	L 419.209, 687.366 
	L 419.209, 0.035 
" />
<path d="M 423.816, 687.366 
	L 423.815, 687.366 
	L 423.815, 0.035 
" />
<path d="M 428.422, 687.366 
	L 428.421, 687.366 
	L 428.421, 0.035 
" />
<path d="M 433.028, 687.366 
	L 433.028, 687.366 
	L 433.028, 0.035 
" />
<path d="M 437.635, 687.366 
	L 437.634, 687.366 
	L 437.634, 0.035 
" />
<path d="M 442.241, 687.366 
	L 442.240, 687.366 
	L 442.240, 0.035 
" />
<path d="M 446.847, 687.366 
	L 446.847, 687.366 
	L 446.847, 0.035 
" />
<path d="M 451.454, 687.366 
	L 451.453, 687.366 
	L 451.453, 0.035 
" />
<path d="M 456.060, 687.366 
	L 456.059, 687.366 
	L 456.059, 0.035 
" />
<path d="M 460.666, 687.366 
	L 460.665, 687.366 
	L 460.665, 0.035 
" />
<path d="M 465.272, 687.366 
	L 465.272, 687.366 
	L 465.272, 0.035 
" />
<path d="M 469.879, 687.366 
	L 469.878, 687.366 
	L 469.878, 0.035 
" />
<path d="M 474.485, 687.366 
	L 474.484, 687.366 
	L 474.484, 0.035 
" />
<path d="M 479.091, 687.366 
	L 479.091, 687.366 
	L 479.091, 0.035 
" />
<path d="M 483.698, 687.366 
	L 483.697, 687.366 
	L 483.697, 0.035 
" />
<path d="M 488.304, 687.366 
	L 488.303, 687.366 
	L 488.303, 0.035 
" />
<path d="M 492.910, 687.366 
	L 492.910, 687.366 
	L 492.910, 0.035 
" />
<path d="M 497.517, 687.366 
	L 497.516, 687.366 
	L 497.516, 0.035 
" />
<path d="M 502.123, 687.366 
	L 502.122, 687.366 
	L 502.122, 0.035 
" />
<path d="M 506.729, 687.366 
	L 506.728, 687.366 
	L 506.728, 0.035 
" />
<path d="M 511.335, 687.366 
	L 511.335, 687.366 
	L 511.335, 0.035 
" />
<path d="M 515.942, 687.366 
	L 515.941, 687.366 
	L 515.941, 0.035 
" />
<path d="M 520.548, 687.366 
	L 520.547, 687.366 
	L 520.547, 0.035 
" />
<path d="M 525.154, 687.366 
	L 525.154, 687.366 
	L 525.154, 0.035 
" />
<path d="M 529.761, 687.366 
	L 529.760, 687.366 
	L 529.760, 0.035 
" />
<path d="M 534.367, 687.366 
	L 534.366, 687.366 
	L 534.366, 0.035 
" />
<path d="M 538.973, 687.366 
	L 538.973, 687.366 
	L 538.973, 0.035 
" />
<path d="M 543.580, 687.366 
	L 543.579, 687.366 
	L 543.579, 0.035 
" />
<path d="M 549.568, 687.401 
	L 549.567, 687.402 
	L 549.567, 0.071 
	L 708.662, 0.071 
	L 708.662, 687.402 
	L 549.567, 687.402 
" />
<path d="M 549.603, 687.366 
	L 549.602, 687.366 
	L 549.602, 0.035 
" />
<path d="M 554.209, 687.366 
	L 554.209, 687.366 
	L 554.209, 0.035 
" />
<path d="M 558.816, 687.366 
	L 558.815, 687.366 
	L 558.815, 0.035 
" />
<path d="M 563.422, 687.366 
	L 563.421, 687.366 
	L 563.421, 0.035 
" />
<path d="M 568.028, 687.366 
	L 568.028, 687.366 
	L 568.028, 0.035 
" />
<path d="M 572.635, 687.366 
	L 572.634, 687.366 
	L 572.634, 0.035 
" />
<path d="M 577.241, 687.366 
	L 577.240, 687.366 
	L 577.240, 0.035 
" />
<path d="M 581.847, 687.366 
	L 581.847, 687.366 
	L 581.847, 0.035 
" />
<path d="M 586.454, 687.366 
	L 586.453, 687.366 
	L 586.453, 0.035 
" />
<path d="M 591.060, 687.366 
	L 591.059, 687.366 
	L 591.059, 0.035 
" />
<path d="M 595.666, 687.366 
	L 595.665, 687.366 
	L 595.665, 0.035 
" />
<path d="M 600.272, 687.366 
	L 600.272, 687.366 
	L 600.272, 0.035 
" />
<path d="M 604.879, 687.366 
	L 604.878, 687.366 
	L 604.878, 0.035 
" />
<path d="M 609.485, 687.366 
	L 609.484, 687.366 
	L 609.484, 0.035 
" />
<path d="M 614.091, 687.366 
	L 614.091, 687.366 
	L 614.091, 0.035 
" />
<path d="M 618.698, 687.366 
	L 618.697, 687.366 
	L 618.697, 0.035 
" />
<path d="M 623.304, 687.366 
	L 623.303, 687.366 
	L 623.303, 0.035 
" />
<path d="M 627.910, 687.366 
	L 627.910, 687.366 
	L 627.910, 0.035 
" />
<path d="M 632.517, 687.366 
	L 632.516, 687.366 
	L 632.516, 0.035 
" />
<path d="M 637.123, 687.366 
	L 637.122, 687.366 
	L 637.122, 0.035 
" />
<path d="M 641.729, 687.366 
	L 641.728, 687.366 
	L 641.728, 0.035 
" />
<path d="M 646.335, 687.366 
	L 646.335, 687.366 
	L 646.335, 0.035 
" />
<path d="M 650.942, 687.366 
	L 650.941, 687.366 
	L 650.941, 0.035 
" />
<path d="M 655.548, 687.366 
	L 655.547, 687.366 
	L 655.547, 0.035 
" />
<path d="M 660.154, 687.366 
	L 660.154, 687.366 
	L 660.154, 0.035 
" />
<path d="M 664.761, 687.366 
	L 664.760, 687.366 
	L 664.760, 0.035 
" />
<path d="M 669.367, 687.366 
	L 669.366, 687.366 
	L 669.366, 0.035 
" />
<path d="M 673.973, 687.366 
	L 673.973, 687.366 
	L 673.973, 0.035 
" />
<path d="M 678.580, 687.366 
	L 678.579, 687.366 
	L 678.579, 0.035 
" />
<path d="M 683.186, 687.366 
	L 683.185, 687.366 
	L 683.185, 0.035 
" />
<path d="M 687.792, 687.366 
	L 687.791, 687.366 
	L 687.791, 0.035 
" />
<path d="M 692.398, 687.366 
	L 692.398, 687.366 
	L 692.398, 0.035 
" />
<path d="M 697.005, 687.366 
	L 697.004, 687.366 
	L 697.004, 0.035 
" />
<path d="M 701.611, 687.366 
	L 701.610, 687.366 
	L 701.610, 0.035 
" />
<path d="M 549.568, 708.732 
	L 549.567, 708.732 
	L 549.567, 687.402 
	L 708.662, 687.402 
	L 708.662, 708.732 
	L 549.567, 708.732 
" />
<path d="M 549.603, 708.696 
	L 549.602, 708.697 
	L 549.602, 687.366 
" />
<path d="M 554.209, 708.696 
	L 554.209, 708.697 
	L 554.209, 687.366 
" />
<path d="M 558.816, 708.696 
	L 558.815, 708.697 
	L 558.815, 687.366 
" />
<path d="M 563.422, 708.696 
	L 563.421, 708.697 
	L 563.421, 687.366 
" />
<path d="M 568.028, 708.696 
	L 568.028, 708.697 
	L 568.028, 687.366 
" />
<path d="M 572.635, 708.696 
	L 572.634, 708.697 
	L 572.634, 687.366 
" />
<path d="M 577.241, 708.696 
	L 577.240, 708.697 
	L 577.240, 687.366 
" />
<path d="M 581.847, 708.696 
	L 581.847, 708.697 
	L 581.847, 687.366 
" />
<path d="M 586.454, 708.696 
	L 586.453, 708.697 
	L 586.453, 687.366 
" />
<path d="M 591.060, 708.696 
	L 591.059, 708.697 
	L 591.059, 687.366 
" />
<path d="M 595.666, 708.696 
	L 595.665, 708.697 
	L 595.665, 687.366 
" />
<path d="M 600.272, 708.696 
	L 600.272, 708.697 
	L 600.272, 687.366 
" />
<path d="M 604.879, 708.696 
	L 604.878, 708.697 
	L 604.878, 687.366 
" />
<path d="M 609.485, 708.696 
	L 609.484, 708.697 
	L 609.484, 687.366 
" />
<path d="M 614.091, 708.696 
	L 614.091, 708.697 
	L 614.091, 687.366 
" />
<path d="M 618.698, 708.696 
	L 618.697, 708.697 
	L 618.697, 687.366 
" />
<path d="M 623.304, 708.696 
	L 623.303, 708.697 
	L 623.303, 687.366 
" />
<path d="M 627.910, 708.696 
	L 627.910, 708.697 
	L 627.910, 687.366 
" />
<path d="M 632.517, 708.696 
	L 632.516, 708.697 
	L 632.516, 687.366 
" />
<path d="M 637.123, 708.696 
	L 637.122, 708.697 
	L 637.122, 687.366 
" />
<path d="M 641.729, 708.696 
	L 641.728, 708.697 
	L 641.728, 687.366 
" />
<path d="M 646.335, 708.696 
	L 646.335, 708.697 
	L 646.335, 687.366 
" />
<path d="M 650.942, 708.696 
	L 650.941, 708.697 
	L 650.941, 687.366 
" />
<path d="M 655.548, 708.696 
	L 655.547, 708.697 
	L 655.547, 687.366 
" />
<path d="M 660.154, 708.696 
	L 660.154, 708.697 
	L 660.154, 687.366 
" />
<path d="M 664.761, 708.696 
	L 664.760, 708.697 
	L 664.760, 687.366 
" />
<path d="M 669.367, 708.696 
	L 669.366, 708.697 
	L 669.366, 687.366 
" />
<path d="M 673.973, 708.696 
	L 673.973, 708.697 
	L 673.973, 687.366 
" />
<path d="M 678.580, 708.696 
	L 678.579, 708.697 
	L 678.579, 687.366 
" />
<path d="M 683.186, 708.696 
	L 683.185, 708.697 
	L 683.185, 687.366 
" />
<path d="M 687.792, 708.696 
	L 687.791, 708.697 
	L 687.791, 687.366 
" />
<path d="M 692.398, 708.696 
	L 692.398, 708.697 
	L 692.398, 687.366 
" />
<path d="M 697.005, 708.696 
	L 697.004, 708.697 
	L 697.004, 687.366 
" />
<path d="M 701.611, 708.696 
	L 701.610, 708.697 
	L 701.610, 687.366 
" />
<path d="M 0.036, 708.732 
	L 0.035, 708.732 
	L 0.035, 701.858 
	L 1.169, 701.858 
	L 1.169, 708.732 
	L 0.035, 708.732 
" />
<path d="M 0.036, 701.822 
	L 0.035, 701.823 
	L 0.035, 687.366 
	L 1.169, 687.366 
	L 1.169, 701.823 
	L 0.035, 701.823 
" />
<path d="M 1.135, 701.822 
	L 1.134, 701.823 
	L 1.134, 687.366 
	L 549.567, 687.366 
	L 549.567, 701.823 
	L 1.134, 701.823 
" />
<path d="M 1.170, 701.822 
	L 1.169, 701.823 
	L 1.169, 687.366 
" />
<path d="M 5.705, 701.822 
	L 5.705, 701.823 
	L 5.705, 687.366 
" />
<path d="M 10.241, 701.822 
	L 10.240, 701.823 
	L 10.240, 687.366 
" />
<path d="M 14.776, 701.822 
	L 14.776, 701.823 
	L 14.776, 687.366 
" />
<path d="M 19.312, 701.822 
	L 19.311, 701.823 
	L 19.311, 687.366 
" />
<path d="M 23.847, 701.822 
	L 23.846, 701.823 
	L 23.846, 687.366 
" />
<path d="M 28.383, 701.822 
	L 28.382, 701.823 
	L 28.382, 687.366 
" />
<path d="M 32.918, 701.822 
	L 32.917, 701.823 
	L 32.917, 687.366 
" />
<path d="M 37.453, 701.822 
	L 37.453, 701.823 
	L 37.453, 687.366 
" />
<path d="M 41.989, 701.822 
	L 41.988, 701.823 
	L 41.988, 687.366 
" />
<path d="M 46.524, 701.822 
	L 46.524, 701.823 
	L 46.524, 687.366 
" />
<path d="M 51.060, 701.822 
	L 51.059, 701.823 
	L 51.059, 687.366 
" />
<path d="M 55.595, 701.822 
	L 55.594, 701.823 
	L 55.594, 687.366 
" />
<path d="M 60.131, 701.822 
	L 60.130, 701.823 
	L 60.130, 687.366 
" />
<path d="M 64.666, 701.822 
	L 64.665, 701.823 
	L 64.665, 687.366 
" />
<path d="M 69.202, 701.822 
	L 69.201, 701.823 
	L 69.201, 687.366 
" />
<path d="M 73.737, 701.822 
	L 73.736, 701.823 
	L 73.736, 687.366 
" />
<path d="M 78.272, 701.822 
	L 78.272, 701.823 
	L 78.272, 687.366 
" />
<path d="M 82.808, 701.822 
	L 82.807, 701.823 
	L 82.807, 687.366 
" />
<path d="M 87.343, 701.822 
	L 87.343, 701.823 
	L 87.343, 687.366 
" />
<path d="M 91.879, 701.822 
	L 91.878, 701.823 
	L 91.878, 687.366 
" />
<path d="M 96.414, 701.822 
	L 96.413, 701.823 
	L 96.413, 687.366 
" />
<path d="M 100.950, 701.822 
	L 100.949, 701.823 
	L 100.949, 687.366 
" />
<path d="M 105.485, 701.822 
	L 105.484, 701.823 
	L 105.484, 687.366 
" />
<path d="M 110.020, 701.822 
	L 110.020, 701.823 
	L 110.020, 687.366 
" />
<path d="M 114.556, 701.822 
	L 114.555, 701.823 
	L 114.555, 687.366 
" />
<path d="M 119.091, 701.822 
	L 119.091, 701.823 
	L 119.091, 687.366 
" />
<path d="M 123.627, 701.822 
	L 123.626, 701.823 
	L 123.626, 687.366 
" />
<path d="M 128.162, 701.822 
	L 128.161, 701.823 
	L 128.161, 687.366 
" />
<path d="M 132.698, 701.822 
	L 132.697, 701.823 
	L 132.697, 687.366 
" />
<path d="M 137.233, 701.822 
	L 137.232, 701.823 
	L 137.232, 687.366 
" />
<path d="M 141.768, 701.822 
	L 141.768, 701.823 
	L 141.768, 687.366 
" />
<path d="M 146.304, 701.822 
	L 146.303, 701.823 
	L 146.303, 687.366 
" />
<path d="M 150.839, 701.822 
	L 150.839, 701.823 
	L 150.839, 687.366 
" />
<path d="M 155.375, 701.822 
	L 155.374, 701.823 
	L 155.374, 687.366 
" />
<path d="M 159.910, 701.822 
	L 159.909, 701.823 
	L 159.909, 687.366 
" />
<path d="M 164.446, 701.822 
	L 164.445, 701.823 
	L 164.445, 687.366 
" />
<path d="M 168.981, 701.822 
	L 168.980, 701.823 
	L 168.980, 687.366 
" />
<path d="M 173.516, 701.822 
	L 173.516, 701.823 
	L 173.516, 687.366 
" />
<path d="M 178.052, 701.822 
	L 178.051, 701.823 
	L 178.051, 687.366 
" />
<path d="M 182.587, 701.822 
	L 182.587, 701.823 
	L 182.587, 687.366 
" />
<path d="M 187.123, 701.822 
	L 187.122, 701.823 
	L 187.122, 687.366 
" />
<path d="M 191.658, 701.822 
	L 191.658, 701.823 
	L 191.658, 687.366 
" />
<path d="M 196.194, 701.822 
	L 196.193, 701.823 
	L 196.193, 687.366 
" />
<path d="M 200.729, 701.822 
	L 200.728, 701.823 
	L 200.728, 687.366 
" />
<path d="M 205.265, 701.822 
	L 205.264, 701.823 
	L 205.264, 687.366 
" />
<path d="M 209.800, 701.822 
	L 209.799, 701.823 
	L 209.799, 687.366 
" />
<path d="M 214.335, 701.822 
	L 214.335, 701.823 
	L 214.335, 687.366 
" />
<path d="M 218.871, 701.822 
	L 218.870, 701.823 
	L 218.870, 687.366 
" />
<path d="M 223.406, 701.822 
	L 223.406, 701.823 
	L 223.406, 687.366 
" />
<path d="M 227.942, 701.822 
	L 227.941, 701.823 
	L 227.941, 687.366 
" />
<path d="M 232.477, 701.822 
	L 232.476, 701.823 
	L 232.476, 687.366 
" />
<path d="M 237.013, 701.822 
	L 237.012, 701.823 
	L 237.012, 687.366 
" />
<path d="M 241.548, 701.822 
	L 241.547, 701.823 
	L 241.547, 687.366 
" />
<path d="M 246.083, 701.822 
	L 246.083, 701.823 
	L 246.083, 687.366 
" />
<path d="M 250.619, 701.822 
	L 250.618, 701.823 
	L 250.618, 687.366 
" />
<path d="M 255.154, 701.822 
	L 255.154, 701.823 
	L 255.154, 687.366 
" />
<path d="M 259.690, 701.822 
	L 259.689, 701.823 
	L 259.689, 687.366 
" />
<path d="M 264.225, 701.822 
	L 264.224, 701.823 
	L 264.224, 687.366 
" />
<path d="M 268.761, 701.822 
	L 268.760, 701.823 
	L 268.760, 687.366 
" />
<path d="M 273.296, 701.822 
	L 273.295, 701.823 
	L 273.295, 687.366 
" />
<path d="M 277.831, 701.822 
	L 277.831, 701.823 
	L 277.831, 687.366 
" />
<path d="M 282.367, 701.822 
	L 282.366, 701.823 
	L 282.366, 687.366 
" />
<path d="M 286.902, 701.822 
	L 286.902, 701.823 
	L 286.902, 687.366 
" />
<path d="M 291.438, 701.822 
	L 291.437, 701.823 
	L 291.437, 687.366 
" />
<path d="M 295.973, 701.822 
	L 295.972, 701.823 
	L 295.972, 687.366 
" />
<path d="M 300.509, 701.822 
	L 300.508, 701.823 
	L 300.508, 687.366 
" />
<path d="M 305.044, 701.822 
	L 305.043, 701.823 
	L 305.043, 687.366 
" />
<path d="M 309.579, 701.822 
	L 309.579, 701.823 
	L 309.579, 687.366 
" />
<path d="M 314.115, 701.822 
	L 314.114, 701.823 
	L 314.114, 687.366 
" />
<path d="M 318.650, 701.822 
	L 318.650, 701.823 
	L 318.650, 687.366 
" />
<path d="M 323.186, 701.822 
	L 323.185, 701.823 
	L 323.185, 687.366 
" />
<path d="M 327.721, 701.822 
	L 327.721, 701.823 
	L 327.721, 687.366 
" />
<path d="M 332.257, 701.822 
	L 332.256, 701.823 
	L 332.256, 687.366 
" />
<path d="M 336.792, 701.822 
	L 336.791, 701.823 
	L 336.791, 687.366 
" />
<path d="M 341.328, 701.822 
	L 341.327, 701.823 
	L 341.327, 687.366 
" />
<path d="M 345.863, 701.822 
	L 345.862, 701.823 
	L 345.862, 687.366 
" />
<path d="M 350.398, 701.822 
	L 350.398, 701.823 
	L 350.398, 687.366 
" />
<path d="M 354.934, 701.822 
	L 354.933, 701.823 
	L 354.933, 687.366 
" />
<path d="M 359.469, 701.822 
	L 359.469, 701.823 
	L 359.469, 687.366 
" />
<path d="M 364.005, 701.822 
	L 364.004, 701.823 
	L 364.004, 687.366 
" />
<path d="M 368.540, 701.822 
	L 368.539, 701.823 
	L 368.539, 687.366 
" />
<path d="M 373.076, 701.822 
	L 373.075, 701.823 
	L 373.075, 687.366 
" />
<path d="M 377.611, 701.822 
	L 377.610, 701.823 
	L 377.610, 687.366 
" />
<path d="M 382.146, 701.822 
	L 382.146, 701.823 
	L 382.146, 687.366 
" />
<path d="M 386.682, 701.822 
	L 386.681, 701.823 
	L 386.681, 687.366 
" />
<path d="M 391.217, 701.822 
	L 391.217, 701.823 
	L 391.217, 687.366 
" />
<path d="M 395.753, 701.822 
	L 395.752, 701.823 
	L 395.752, 687.366 
" />
<path d="M 400.288, 701.822 
	L 400.287, 701.823 
	L 400.287, 687.366 
" />
<path d="M 404.824, 701.822 
	L 404.823, 701.823 
	L 404.823, 687.366 
" />
<path d="M 409.359, 701.822 
	L 409.358, 701.823 
	L 409.358, 687.366 
" />
<path d="M 413.894, 701.822 
	L 413.894, 701.823 
	L 413.894, 687.366 
" />
<path d="M 418.430, 701.822 
	L 418.429, 701.823 
	L 418.429, 687.366 
" />
<path d="M 422.965, 701.822 
	L 422.965, 701.823 
	L 422.965, 687.366 
" />
<path d="M 427.501, 701.822 
	L 427.500, 701.823 
	L 427.500, 687.366 
" />
<path d="M 432.036, 701.822 
	L 432.035, 701.823 
	L 432.035, 687.366 
" />
<path d="M 436.572, 701.822 
	L 436.571, 701.823 
	L 436.571, 687.366 
" />
<path d="M 441.107, 701.822 
	L 441.106, 701.823 
	L 441.106, 687.366 
" />
<path d="M 445.642, 701.822 
	L 445.642, 701.823 
	L 445.642, 687.366 
" />
<path d="M 450.178, 701.822 
	L 450.177, 701.823 
	L 450.177, 687.366 
" />
<path d="M 454.713, 701.822 
	L 454.713, 701.823 
	L 454.713, 687.366 
" />
<path d="M 459.249, 701.822 
	L 459.248, 701.823 
	L 459.248, 687.366 
" />
<path d="M 463.784, 701.822 
	L 463.784, 701.823 
	L 463.784, 687.366 
" />
<path d="M 468.320, 701.822 
	L 468.319, 701.823 
	L 468.319, 687.366 
" />
<path d="M 472.855, 701.822 
	L 472.854, 701.823 
	L 472.854, 687.366 
" />
<path d="M 477.391, 701.822 
	L 477.390, 701.823 
	L 477.390, 687.366 
" />
<path d="M 481.926, 701.822 
	L 481.925, 701.823 
	L 481.925, 687.366 
" />
<path d="M 486.461, 701.822 
	L 486.461, 701.823 
	L 486.461, 687.366 
" />
<path d="M 490.997, 701.822 
	L 490.996, 701.823 
	L 490.996, 687.366 
" />
<path d="M 495.532, 701.822 
	L 495.532, 701.823 
	L 495.532, 687.366 
" />
<path d="M 500.068, 701.822 
	L 500.067, 701.823 
	L 500.067, 687.366 
" />
<path d="M 504.603, 701.822 
	L 504.602, 701.823 
	L 504.602, 687.366 
" />
<path d="M 509.139, 701.822 
	L 509.138, 701.823 
	L 509.138, 687.366 
" />
<path d="M 513.674, 701.822 
	L 513.673, 701.823 
	L 513.673, 687.366 
" />
<path d="M 518.209, 701.822 
	L 518.209, 701.823 
	L 518.209, 687.366 
" />
<path d="M 522.745, 701.822 
	L 522.744, 701.823 
	L 522.744, 687.366 
" />
<path d="M 527.280, 701.822 
	L 527.280, 701.823 
	L 527.280, 687.366 
" />
<path d="M 531.816, 701.822 
	L 531.815, 701.823 
	L 531.815, 687.366 
" />
<path d="M 536.351, 701.822 
	L 536.350, 701.823 
	L 536.350, 687.366 
" />
<path d="M 540.887, 701.822 
	L 540.886, 701.823 
	L 540.886, 687.366 
" />
<path d="M 1.135, 708.732 
	L 1.134, 708.732 
	L 1.134, 701.858 
	L 549.567, 701.858 
	L 549.567, 708.732 
	L 1.134, 708.732 
" />
<path d="M 1.170, 708.696 
	L 1.169, 708.697 
	L 1.169, 701.823 
" />
<path d="M 5.705, 708.696 
	L 5.705, 708.697 
	L 5.705, 701.823 
" />
<path d="M 10.241, 708.696 
	L 10.240, 708.697 
	L 10.240, 701.823 
" />
<path d="M 14.776, 708.696 
	L 14.776, 708.697 
	L 14.776, 701.823 
" />
<path d="M 19.312, 708.696 
	L 19.311, 708.697 
	L 19.311, 701.823 
" />
<path d="M 23.847, 708.696 
	L 23.846, 708.697 
	L 23.846, 701.823 
" />
<path d="M 28.383, 708.696 
	L 28.382, 708.697 
	L 28.382, 701.823 
" />
<path d="M 32.918, 708.696 
	L 32.917, 708.697 
	L 32.917, 701.823 
" />
<path d="M 37.453, 708.696 
	L 37.453, 708.697 
	L 37.453, 701.823 
" />
<path d="M 41.989, 708.696 
	L 41.988, 708.697 
	L 41.988, 701.823 
" />
<path d="M 46.524, 708.696 
	L 46.524, 708.697 
	L 46.524, 701.823 
" />
<path d="M 51.060, 708.696 
	L 51.059, 708.697 
	L 51.059, 701.823 
" />
<path d="M 55.595, 708.696 
	L 55.594, 708.697 
	L 55.594, 701.823 
" />
<path d="M 60.131, 708.696 
	L 60.130, 708.697 
	L 60.130, 701.823 
" />
<path d="M 64.666, 708.696 
	L 64.665, 708.697 
	L 64.665, 701.823 
" />
<path d="M 69.202, 708.696 
	L 69.201, 708.697 
	L 69.201, 701.823 
" />
<path d="M 73.737, 708.696 
	L 73.736, 708.697 
	L 73.736, 701.823 
" />
<path d="M 78.272, 708.696 
	L 78.272, 708.697 
	L 78.272, 701.823 
" />
<path d="M 82.808, 708.696 
	L 82.807, 708.697 
	L 82.807, 701.823 
" />
<path d="M 87.343, 708.696 
	L 87.343, 708.697 
	L 87.343, 701.823 
" />
<path d="M 91.879, 708.696 
	L 91.878, 708.697 
	L 91.878, 701.823 
" />
<path d="M 96.414, 708.696 
	L 96.413, 708.697 
	L 96.413, 701.823 
" />
<path d="M 100.950, 708.696 
	L 100.949, 708.697 
	L 100.949, 701.823 
" />
<path d="M 105.485, 708.696 
	L 105.484, 708.697 
	L 105.484, 701.823 
" />
<path d="M 110.020, 708.696 
	L 110.020, 708.697 
	L 110.020, 701.823 
" />
<path d="M 114.556, 708.696 
	L 114.555, 708.697 
	L 114.555, 701.823 
" />
<path d="M 119.091, 708.696 
	L 119.091, 708.697 
	L 119.091, 701.823 
" />
<path d="M 123.627, 708.696 
	L 123.626, 708.697 
	L 123.626, 701.823 
" />
<path d="M 128.162, 708.696 
	L 128.161, 708.697 
	L 128.161, 701.823 
" />
<path d="M 132.698, 708.696 
	L 132.697, 708.697 
	L 132.697, 701.823 
" />
<path d="M 137.233, 708.696 
	L 137.232, 708.697 
	L 137.232, 701.823 
" />
<path d="M 141.768, 708.696 
	L 141.768, 708.697 
	L 141.768, 701.823 
" />
<path d="M 146.304, 708.696 
	L 146.303, 708.697 
	L 146.303, 701.823 
" />
<path d="M 150.839, 708.696 
	L 150.839, 708.697 
	L 150.839, 701.823 
" />
<path d="M 155.375, 708.696 
	L 155.374, 708.697 
	L 155.374, 701.823 
" />
<path d="M 159.910, 708.696 
	L 159.909, 708.697 
	L 159.909, 701.823 
" />
<path d="M 164.446, 708.696 
	L 164.445, 708.697 
	L 164.445, 701.823 
" />
<path d="M 168.981, 708.696 
	L 168.980, 708.697 
	L 168.980, 701.823 
" />
<path d="M 173.516, 708.696 
	L 173.516, 708.697 
	L 173.516, 701.823 
" />
<path d="M 178.052, 708.696 
	L 178.051, 708.697 
	L 178.051, 701.823 
" />
<path d="M 182.587, 708.696 
	L 182.587, 708.697 
	L 182.587, 701.823 
" />
<path d="M 187.123, 708.696 
	L 187.122, 708.697 
	L 187.122, 701.823 
" />
<path d="M 191.658, 708.696 
	L 191.658, 708.697 
	L 191.658, 701.823 
" />
<path d="M 196.194, 708.696 
	L 196.193, 708.697 
	L 196.193, 701.823 
" />
<path d="M 200.729, 708.696 
	L 200.728, 708.697 
	L 200.728, 701.823 
" />
<path d="M 205.265, 708.696 
	L 205.264, 708.697 
	L 205.264, 701.823 
" />
<path d="M 209.800, 708.696 
	L 209.799, 708.697 
	L 209.799, 701.823 
" />
<path d="M 214.335, 708.696 
	L 214.335, 708.697 
	L 214.335, 701.823 
" />
<path d="M 218.871, 708.696 
	L 218.870, 708.697 
	L 218.870, 701.823 
" />
<path d="M 223.406, 708.696 
	L 223.406, 708.697 
	L 223.406, 701.823 
" />
<path d="M 227.942, 708.696 
	L 227.941, 708.697 
	L 227.941, 701.823 
" />
<path d="M 232.477, 708.696 
	L 232.476, 708.697 
	L 232.476, 701.823 
" />
<path d="M 237.013, 708.696 
	L 237.012, 708.697 
	L 237.012, 701.823 
" />
<path d="M 241.548, 708.696 
	L 241.547, 708.697 
	L 241.547, 701.823 
" />
<path d="M 246.083, 708.696 
	L 246.083, 708.697 
	L 246.083, 701.823 
" />
<path d="M 250.619, 708.696 
	L 250.618, 708.697 
	L 250.618, 701.823 
" />
<path d="M 255.154, 708.696 
	L 255.154, 708.697 
	L 255.154, 701.823 
" />
<path d="M 259.690, 708.696 
	L 259.689, 708.697 
	L 259.689, 701.823 
" />
<path d="M 264.225, 708.696 
	L 264.224, 708.697 
	L 264.224, 701.823 
" />
<path d="M 268.761, 708.696 
	L 268.760, 708.697 
	L 268.760, 701.823 
" />
<path d="M 273.296, 708.696 
	L 273.295, 708.697 
	L 273.295, 701.823 
" />
<path d="M 277.831, 708.696 
	L 277.831, 708.697 
	L 277.831, 701.823 
" />
<path d="M 282.367, 708.696 
	L 282.366, 708.697 
	L 282.366, 701.823 
" />
<path d="M 286.902, 708.696 
	L 286.902, 708.697 
	L 286.902, 701.823 
" />
<path d="M 291.438, 708.696 
	L 291.437, 708.697 
	L 291.437, 701.823 
" />
<path d="M 295.973, 708.696 
	L 295.972, 708.697 
	L 295.972, 701.823 
" />
<path d="M 300.509, 708.696 
	L 300.508, 708.697 
	L 300.508, 701.823 
" />
<path d="M 305.044, 708.696 
	L 305.043, 708.697 
	L 305.043, 701.823 
" />
<path d="M 309.579, 708.696 
	L 309.579, 708.697 
	L 309.579, 701.823 
" />
<path d="M 314.115, 708.696 
	L 314.114, 708.697 
	L 314.114, 701.823 
" />
<path d="M 318.650, 708.696 
	L 318.650, 708.697 
	L 318.650, 701.823 
" />
<path d="M 323.186, 708.696 
	L 323.185, 708.697 
	L 323.185, 701.823 
" />
<path d="M 327.721, 708.696 
	L 327.721, 708.697 
	L 327.721, 701.823 
" />
<path d="M 332.257, 708.696 
	L 332.256, 708.697 
	L 332.256, 701.823 
" />
<path d="M 336.792, 708.696 
	L 336.791, 708.697 
	L 336.791, 701.823 
" />
<path d="M 341.328, 708.696 
	L 341.327, 708.697 
	L 341.327, 701.823 
" />
<path d="M 345.863, 708.696 
	L 345.862, 708.697 
	L 345.862, 701.823 
" />
<path d="M 350.398, 708.696 
	L 350.398, 708.697 
	L 350.398, 701.823 
" />
<path d="M 354.934, 708.696 
	L 354.933, 708.697 
	L 354.933, 701.823 
" />
<path d="M 359.469, 708.696 
	L 359.469, 708.697 
	L 359.469, 701.823 
" />
<path d="M 364.005, 708.696 
	L 364.004, 708.697 
	L 364.004, 701.823 
" />
<path d="M 368.540, 708.696 
	L 368.539, 708.697 
	L 368.539, 701.823 
" />
<path d="M 373.076, 708.696 
	L 373.075, 708.697 
	L 373.075, 701.823 
" />
<path d="M 377.611, 708.696 
	L 377.610, 708.697 
	L 377.610, 701.823 
" />
<path d="M 382.146, 708.696 
	L 382.146, 708.697 
	L 382.146, 701.823 
" />
<path d="M 386.682, 708.696 
	L 386.681, 708.697 
	L 386.681, 701.823 
" />
<path d="M 391.217, 708.696 
	L 391.217, 708.697 
	L 391.217, 701.823 
" />
<path d="M 395.753, 708.696 
	L 395.752, 708.697 
	L 395.752, 701.823 
" />
<path d="M 400.288, 708.696 
	L 400.287, 708.697 
	L 400.287, 701.823 
" />
<path d="M 404.824, 708.696 
	L 404.823, 708.697 
	L 404.823, 701.823 
" />
<path d="M 409.359, 708.696 
	L 409.358, 708.697 
	L 409.358, 701.823 
" />
<path d="M 413.894, 708.696 
	L 413.894, 708.697 
	L 413.894, 701.823 
" />
<path d="M 418.430, 708.696 
	L 418.429, 708.697 
	L 418.429, 701.823 
" />
<path d="M 422.965, 708.696 
	L 422.965, 708.697 
	L 422.965, 701.823 
" />
<path d="M 427.501, 708.696 
	L 427.500, 708.697 
	L 427.500, 701.823 
" />
<path d="M 432.036, 708.696 
	L 432.035, 708.697 
	L 432.035, 701.823 
" />
<path d="M 436.572, 708.696 
	L 436.571, 708.697 
	L 436.571, 701.823 
" />
<path d="M 441.107, 708.696 
	L 441.106, 708.697 
	L 441.106, 701.823 
" />
<path d="M 445.642, 708.696 
	L 445.642, 708.697 
	L 445.642, 701.823 
" />
<path d="M 450.178, 708.696 
	L 450.177, 708.697 
	L 450.177, 701.823 
" />
<path d="M 454.713, 708.696 
	L 454.713, 708.697 
	L 454.713, 701.823 
" />
<path d="M 459.249, 708.696 
	L 459.248, 708.697 
	L 459.248, 701.823 
" />
<path d="M 463.784, 708.696 
	L 463.784, 708.697 
	L 463.784, 701.823 
" />
<path d="M 468.320, 708.696 
	L 468.319, 708.697 
	L 468.319, 701.823 
" />
<path d="M 472.855, 708.696 
	L 472.854, 708.697 
	L 472.854, 701.823 
" />
<path d="M 477.391, 708.696 
	L 477.390, 708.697 
	L 477.390, 701.823 
" />
<path d="M 481.926, 708.696 
	L 481.925, 708.697 
	L 481.925, 701.823 
" />
<path d="M 486.461, 708.696 
	L 486.461, 708.697 
	L 486.461, 701.823 
" />
<path d="M 490.997, 708.696 
	L 490.996, 708.697 
	L 490.996, 701.823 
" />
<path d="M 495.532, 708.696 
	L 495.532, 708.697 
	L 495.532, 701.823 
" />
<path d="M 500.068, 708.696 
	L 500.067, 708.697 
	L 500.067, 701.823 
" />
<path d="M 504.603, 708.696 
	L 504.602, 708.697 
	L 504.602, 701.823 
" />
<path d="M 509.139, 708.696 
	L 509.138, 708.697 
	L 509.138, 701.823 
" />
<path d="M 513.674, 708.696 
	L 513.673, 708.697 
	L 513.673, 701.823 
" />
<path d="M 518.209, 708.696 
	L 518.209, 708.697 
	L 518.209, 701.823 
" />
<path d="M 522.745, 708.696 
	L 522.744, 708.697 
	L 522.744, 701.823 
" />
<path d="M 527.280, 708.696 
	L 527.280, 708.697 
	L 527.280, 701.823 
" />
<path d="M 531.816, 708.696 
	L 531.815, 708.697 
	L 531.815, 701.823 
" />
<path d="M 536.351, 708.696 
	L 536.350, 708.697 
	L 536.350, 701.823 
" />
<path d="M 540.887, 708.696 
	L 540.886, 708.697 
	L 540.886, 701.823 
" />
<path d="M 0.036, 687.401 
	L 0.035, 687.402 
	L 0.035, 475.724 
	L 364.429, 475.724 
	L 364.429, 687.402 
	L 0.035, 687.402 
" />
<path d="M 0.036, 687.366 
	L 0.035, 687.366 
	L 0.035, 475.689 
" />
<path d="M 4.572, 687.366 
	L 4.571, 687.366 
	L 4.571, 475.689 
" />
<path d="M 9.107, 687.366 
	L 9.106, 687.366 
	L 9.106, 475.689 
" />
<path d="M 13.642, 687.366 
	L 13.642, 687.366 
	L 13.642, 475.689 
" />
<path d="M 18.178, 687.366 
	L 18.177, 687.366 
	L 18.177, 475.689 
" />
<path d="M 22.713, 687.366 
	L 22.713, 687.366 
	L 22.713, 475.689 
" />
<path d="M 27.249, 687.366 
	L 27.248, 687.366 
	L 27.248, 475.689 
" />
<path d="M 31.784, 687.366 
	L 31.783, 687.366 
	L 31.783, 475.689 
" />
<path d="M 36.320, 687.366 
	L 36.319, 687.366 
	L 36.319, 475.689 
" />
<path d="M 40.855, 687.366 
	L 40.854, 687.366 
	L 40.854, 475.689 
" />
<path d="M 45.390, 687.366 
	L 45.390, 687.366 
	L 45.390, 475.689 
" />
<path d="M 49.926, 687.366 
	L 49.925, 687.366 
	L 49.925, 475.689 
" />
<path d="M 54.461, 687.366 
	L 54.461, 687.366 
	L 54.461, 475.689 
" />
<path d="M 58.997, 687.366 
	L 58.996, 687.366 
	L 58.996, 475.689 
" />
<path d="M 63.532, 687.366 
	L 63.532, 687.366 
	L 63.532, 475.689 
" />
<path d="M 68.068, 687.366 
	L 68.067, 687.366 
	L 68.067, 475.689 
" />
<path d="M 72.603, 687.366 
	L 72.602, 687.366 
	L 72.602, 475.689 
" />
<path d="M 77.139, 687.366 
	L 77.138, 687.366 
	L 77.138, 475.689 
" />
<path d="M 81.674, 687.366 
	L 81.673, 687.366 
	L 81.673, 475.689 
" />
<path d="M 86.209, 687.366 
	L 86.209, 687.366 
	L 86.209, 475.689 
" />
<path d="M 90.745, 687.366 
	L 90.744, 687.366 
	L 90.744, 475.689 
" />
<path d="M 95.280, 687.366 
	L 95.280, 687.366 
	L 95.280, 475.689 
" />
<path d="M 99.816, 687.366 
	L 99.815, 687.366 
	L 99.815, 475.689 
" />
<path d="M 104.351, 687.366 
	L 104.350, 687.366 
	L 104.350, 475.689 
" />
<path d="M 108.887, 687.366 
	L 108.886, 687.366 
	L 108.886, 475.689 
" />
<path d="M 113.422, 687.366 
	L 113.421, 687.366 
	L 113.421, 475.689 
" />
<path d="M 117.957, 687.366 
	L 117.957, 687.366 
	L 117.957, 475.689 
" />
<path d="M 122.493, 687.366 
	L 122.492, 687.366 
	L 122.492, 475.689 
" />
<path d="M 127.028, 687.366 
	L 127.028, 687.366 
	L 127.028, 475.689 
" />
<path d="M 131.564, 687.366 
	L 131.563, 687.366 
	L 131.563, 475.689 
" />
<path d="M 136.099, 687.366 
	L 136.098, 687.366 
	L 136.098, 475.689 
" />
<path d="M 140.635, 687.366 
	L 140.634, 687.366 
	L 140.634, 475.689 
" />
<path d="M 145.170, 687.366 
	L 145.169, 687.366 
	L 145.169, 475.689 
" />
<path d="M 149.705, 687.366 
	L 149.705, 687.366 
	L 149.705, 475.689 
" />
<path d="M 154.241, 687.366 
	L 154.240, 687.366 
	L 154.240, 475.689 
" />
<path d="M 158.776, 687.366 
	L 158.776, 687.366 
	L 158.776, 475.689 
" />
<path d="M 163.312, 687.366 
	L 163.311, 687.366 
	L 163.311, 475.689 
" />
<path d="M 167.847, 687.366 
	L 167.846, 687.366 
	L 167.846, 475.689 
" />
<path d="M 172.383, 687.366 
	L 172.382, 687.366 
	L 172.382, 475.689 
" />
<path d="M 176.918, 687.366 
	L 176.917, 687.366 
	L 176.917, 475.689 
" />
<path d="M 181.453, 687.366 
	L 181.453, 687.366 
	L 181.453, 475.689 
" />
<path d="M 185.989, 687.366 
	L 185.988, 687.366 
	L 185.988, 475.689 
" />
<path d="M 190.524, 687.366 
	L 190.524, 687.366 
	L 190.524, 475.689 
" />
<path d="M 195.060, 687.366 
	L 195.059, 687.366 
	L 195.059, 475.689 
" />
<path d="M 199.595, 687.366 
	L 199.595, 687.366 
	L 199.595, 475.689 
" />
<path d="M 204.131, 687.366 
	L 204.130, 687.366 
	L 204.130, 475.689 
" />
<path d="M 208.666, 687.366 
	L 208.665, 687.366 
	L 208.665, 475.689 
" />
<path d="M 213.202, 687.366 
	L 213.201, 687.366 
	L 213.201, 475.689 
" />
<path d="M 217.737, 687.366 
	L 217.736, 687.366 
	L 217.736, 475.689 
" />
<path d="M 222.272, 687.366 
	L 222.272, 687.366 
	L 222.272, 475.689 
" />
<path d="M 226.808, 687.366 
	L 226.807, 687.366 
	L 226.807, 475.689 
" />
<path d="M 231.343, 687.366 
	L 231.343, 687.366 
	L 231.343, 475.689 
" />
<path d="M 235.879, 687.366 
	L 235.878, 687.366 
	L 235.878, 475.689 
" />
<path d="M 240.414, 687.366 
	L 240.413, 687.366 
	L 240.413, 475.689 
" />
<path d="M 244.950, 687.366 
	L 244.949, 687.366 
	L 244.949, 475.689 
" />
<path d="M 249.485, 687.366 
	L 249.484, 687.366 
	L 249.484, 475.689 
" />
<path d="M 254.020, 687.366 
	L 254.020, 687.366 
	L 254.020, 475.689 
" />
<path d="M 258.556, 687.366 
	L 258.555, 687.366 
	L 258.555, 475.689 
" />
<path d="M 263.091, 687.366 
	L 263.091, 687.366 
	L 263.091, 475.689 
" />
<path d="M 267.627, 687.366 
	L 267.626, 687.366 
	L 267.626, 475.689 
" />
<path d="M 272.162, 687.366 
	L 272.161, 687.366 
	L 272.161, 475.689 
" />
<path d="M 276.698, 687.366 
	L 276.697, 687.366 
	L 276.697, 475.689 
" />
<path d="M 281.233, 687.366 
	L 281.232, 687.366 
	L 281.232, 475.689 
" />
<path d="M 285.768, 687.366 
	L 285.768, 687.366 
	L 285.768, 475.689 
" />
<path d="M 290.304, 687.366 
	L 290.303, 687.366 
	L 290.303, 475.689 
" />
<path d="M 294.839, 687.366 
	L 294.839, 687.366 
	L 294.839, 475.689 
" />
<path d="M 299.375, 687.366 
	L 299.374, 687.366 
	L 299.374, 475.689 
" />
<path d="M 303.910, 687.366 
	L 303.909, 687.366 
	L 303.909, 475.689 
" />
<path d="M 308.446, 687.366 
	L 308.445, 687.366 
	L 308.445, 475.689 
" />
<path d="M 312.981, 687.366 
	L 312.980, 687.366 
	L 312.980, 475.689 
" />
<path d="M 317.516, 687.366 
	L 317.516, 687.366 
	L 317.516, 475.689 
" />
<path d="M 322.052, 687.366 
	L 322.051, 687.366 
	L 322.051, 475.689 
" />
<path d="M 326.587, 687.366 
	L 326.587, 687.366 
	L 326.587, 475.689 
" />
<path d="M 331.123, 687.366 
	L 331.122, 687.366 
	L 331.122, 475.689 
" />
<path d="M 335.658, 687.366 
	L 335.658, 687.366 
	L 335.658, 475.689 
" />
<path d="M 340.194, 687.366 
	L 340.193, 687.366 
	L 340.193, 475.689 
" />
<path d="M 344.729, 687.366 
	L 344.728, 687.366 
	L 344.728, 475.689 
" />
<path d="M 349.265, 687.366 
	L 349.264, 687.366 
	L 349.264, 475.689 
" />
<path d="M 353.800, 687.366 
	L 353.799, 687.366 
	L 353.799, 475.689 
" />
<path d="M 358.335, 687.366 
	L 358.335, 687.366 
	L 358.335, 475.689 
" />
<path d="M 0.036, 475.688 
	L 0.035, 475.689 
	L 0.035, 0.035 
	L 364.429, 0.035 
	L 364.429, 475.689 
	L 0.035, 475.689 
" />
<path d="M 0.036, 475.688 
	L 0.035, 475.689 
	L 0.035, 0.035 
" />
<path d="M 4.572, 475.688 
	L 4.571, 475.689 
	L 4.571, 0.035 
" />
<path d="M 9.107, 475.688 
	L 9.106, 475.689 
	L 9.106, 0.035 
" />
<path d="M 13.642, 475.688 
	L 13.642, 475.689 
	L 13.642, 0.035 
" />
<path d="M 18.178, 475.688 
	L 18.177, 475.689 
	L 18.177, 0.035 
" />
<path d="M 22.713, 475.688 
	L 22.713, 475.689 
	L 22.713, 0.035 
" />
<path d="M 27.249, 475.688 
	L 27.248, 475.689 
	L 27.248, 0.035 
" />
<path d="M 31.784, 475.688 
	L 31.783, 475.689 
	L 31.783, 0.035 
" />
<path d="M 36.320, 475.688 
	L 36.319, 475.689 
	L 36.319, 0.035 
" />
<path d="M 40.855, 475.688 
	L 40.854, 475.689 
	L 40.854, 0.035 
" />
<path d="M 45.390, 475.688 
	L 45.390, 475.689 
	L 45.390, 0.035 
" />
<path d="M 49.926, 475.688 
	L 49.925, 475.689 
	L 49.925, 0.035 
" />
<path d="M 54.461, 475.688 
	L 54.461, 475.689 
	L 54.461, 0.035 
" />
<path d="M 58.997, 475.688 
	L 58.996, 475.689 
	L 58.996, 0.035 
" />
<path d="M 63.532, 475.688 
	L 63.532, 475.689 
	L 63.532, 0.035 
" />
<path d="M 68.068, 475.688 
	L 68.067, 475.689 
	L 68.067, 0.035 
" />
<path d="M 72.603, 475.688 
	L 72.602, 475.689 
	L 72.602, 0.035 
" />
<path d="M 77.139, 475.688 
	L 77.138, 475.689 
	L 77.138, 0.035 
" />
<path d="M 81.674, 475.688 
	L 81.673, 475.689 
	L 81.673, 0.035 
" />
<path d="M 86.209, 475.688 
	L 86.209, 475.689 
	L 86.209, 0.035 
" />
<path d="M 90.745, 475.688 
	L 90.744, 475.689 
	L 90.744, 0.035 
" />
<path d="M 95.280, 475.688 
	L 95.280, 475.689 
	L 95.280, 0.035 
" />
<path d="M 99.816, 475.688 
	L 99.815, 475.689 
	L 99.815, 0.035 
" />
<path d="M 104.351, 475.688 
	L 104.350, 475.689 
	L 104.350, 0.035 
" />
<path d="M 108.887, 475.688 
	L 108.886, 475.689 
	L 108.886, 0.035 
" />
<path d="M 113.422, 475.688 
	L 113.421, 475.689 
	L 113.421, 0.035 
" />
<path d="M 117.957, 475.688 
	L 117.957, 475.689 
	L 117.957, 0.035 
" />
<path d="M 122.493, 475.688 
	L 122.492, 475.689 
	L 122.492, 0.035 
" />
<path d="M 127.028, 475.688 
	L 127.028, 475.689 
	L 127.028, 0.035 
" />
<path d="M 131.564, 475.688 
	L 131.563, 475.689 
	L 131.563, 0.035 
" />
<path d="M 136.099, 475.688 
	L 136.098, 475.689 
	L 136.098, 0.035 
" />
<path d="M 140.635, 475.688 
	L 140.634, 475.689 
	L 140.634, 0.035 
" />
<path d="M 145.170, 475.688 
	L 145.169, 475.689 
	L 145.169, 0.035 
" />
<path d="M 149.705, 475.688 
	L 149.705, 475.689 
	L 149.705, 0.035 
" />
<path d="M 154.241, 475.688 
	L 154.240, 475.689 
	L 154.240, 0.035 
" />
<path d="M 158.776, 475.688 
	L 158.776, 475.689 
	L 158.776, 0.035 
" />
<path d="M 163.312, 475.688 
	L 163.311, 475.689 
	L 163.311, 0.035 
" />
<path d="M 167.847, 475.688 
	L 167.846, 475.689 
	L 167.846, 0.035 
" />
<path d="M 172.383, 475.688 
	L 172.382, 475.689 
	L 172.382, 0.035 
" />
<path d="M 176.918, 475.688 
	L 176.917, 475.689 
	L 176.917, 0.035 
" />
<path d="M 181.453, 475.688 
	L 181.453, 475.689 
	L 181.453, 0.035 
" />
<path d="M 185.989, 475.688 
	L 185.988, 475.689 
	L 185.988, 0.035 
" />
<path d="M 190.524, 475.688 
	L 190.524, 475.689 
	L 190.524, 0.035 
" />
<path d="M 195.060, 475.688 
	L 195.059, 475.689 
	L 195.059, 0.035 
" />
<path d="M 199.595, 475.688 
	L 199.595, 475.689 
	L 199.595, 0.035 
" />
<path d="M 204.131, 475.688 
	L 204.130, 475.689 
	L 204.130, 0.035 
" />
<path d="M 208.666, 475.688 
	L 208.665, 475.689 
	L 208.665, 0.035 
" />
<path d="M 213.202, 475.688 
	L 213.201, 475.689 
	L 213.201, 0.035 
" />
<path d="M 217.737, 475.688 
	L 217.736, 475.689 
	L 217.736, 0.035 
" />
<path d="M 222.272, 475.688 
	L 222.272, 475.689 
	L 222.272, 0.035 
" />
<path d="M 226.808, 475.688 
	L 226.807, 475.689 
	L 226.807, 0.035 
" />
<path d="M 231.343, 475.688 
	L 231.343, 475.689 
	L 231.343, 0.035 
" />
<path d="M 235.879, 475.688 
	L 235.878, 475.689 
	L 235.878, 0.035 
" />
<path d="M 240.414, 475.688 
	L 240.413, 475.689 
	L 240.413, 0.035 
" />
<path d="M 244.950, 475.688 
	L 244.949, 475.689 
	L 244.949, 0.035 
" />
<path d="M 249.485, 475.688 
	L 249.484, 475.689 
	L 249.484, 0.035 
" />
<path d="M 254.020, 475.688 
	L 254.020, 475.689 
	L 254.020, 0.035 
" />
<path d="M 258.556, 475.688 
	L 258.555, 475.689 
	L 258.555, 0.035 
" />
<path d="M 263.091, 475.688 
	L 263.091, 475.689 
	L 263.091, 0.035 
" />
<path d="M 267.627, 475.688 
	L 267.626, 475.689 
	L 267.626, 0.035 
" />
<path d="M 272.162, 475.688 
	L 272.161, 475.689 
	L 272.161, 0.035 
" />
<path d="M 276.698, 475.688 
	L 276.697, 475.689 
	L 276.697, 0.035 
" />
<path d="M 281.233, 475.688 
	L 281.232, 475.689 
	L 281.232, 0.035 
" />
<path d="M 285.768, 475.688 
	L 285.768, 475.689 
	L 285.768, 0.035 
" />
<path d="M 290.304, 475.688 
	L 290.303, 475.689 
	L 290.303, 0.035 
" />
<path d="M 294.839, 475.688 
	L 294.839, 475.689 
	L 294.839, 0.035 
" />
<path d="M 299.375, 475.688 
	L 299.374, 475.689 
	L 299.374, 0.035 
" />
<path d="M 303.910, 475.688 
	L 303.909, 475.689 
	L 303.909, 0.035 
" />
<path d="M 308.446, 475.688 
	L 308.445, 475.689 
	L 308.445, 0.035 
" />
<path d="M 312.981, 475.688 
	L 312.980, 475.689 
	L 312.980, 0.035 
" />
<path d="M 317.516, 475.688 
	L 317.516, 475.689 
	L 317.516, 0.035 
" />
<path d="M 322.052, 475.688 
	L 322.051, 475.689 
	L 322.051, 0.035 
" />
<path d="M 326.587, 475.688 
	L 326.587, 475.689 
	L 326.587, 0.035 
" />
<path d="M 331.123, 475.688 
	L 331.122, 475.689 
	L 331.122, 0.035 
" />
<path d="M 335.658, 475.688 
	L 335.658, 475.689 
	L 335.658, 0.035 
" />
<path d="M 340.194, 475.688 
	L 340.193, 475.689 
	L 340.193, 0.035 
" />
<path d="M 344.729, 475.688 
	L 344.728, 475.689 
	L 344.728, 0.035 
" />
<path d="M 349.265, 475.688 
	L 349.264, 475.689 
	L 349.264, 0.035 
" />
<path d="M 353.800, 475.688 
	L 353.799, 475.689 
	L 353.799, 0.035 
" />
<path d="M 358.335, 475.688 
	L 358.335, 475.689 
	L 358.335, 0.035 
" />
<path d="M 364.394, 475.688 
	L 364.394, 475.689 
	L 364.394, 0.035 
	L 549.567, 0.035 
	L 549.567, 475.689 
	L 364.394, 475.689 
" />
<path d="M 364.430, 475.688 
	L 364.429, 475.689 
	L 364.429, 0.035 
" />
<path d="M 368.965, 475.688 
	L 368.965, 475.689 
	L 368.965, 0.035 
" />
<path d="M 373.501, 475.688 
	L 373.500, 475.689 
	L 373.500, 0.035 
" />
<path d="M 378.036, 475.688 
	L 378.035, 475.689 
	L 378.035, 0.035 
" />
<path d="M 382.572, 475.688 
	L 382.571, 475.689 
	L 382.571, 0.035 
" />
<path d="M 387.107, 475.688 
	L 387.106, 475.689 
	L 387.106, 0.035 
" />
<path d="M 391.642, 475.688 
	L 391.642, 475.689 
	L 391.642, 0.035 
" />
<path d="M 396.178, 475.688 
	L 396.177, 475.689 
	L 396.177, 0.035 
" />
<path d="M 400.713, 475.688 
	L 400.713, 475.689 
	L 400.713, 0.035 
" />
<path d="M 405.249, 475.688 
	L 405.248, 475.689 
	L 405.248, 0.035 
" />
<path d="M 409.784, 475.688 
	L 409.784, 475.689 
	L 409.784, 0.035 
" />
<path d="M 414.320, 475.688 
	L 414.319, 475.689 
	L 414.319, 0.035 
" />
<path d="M 418.855, 475.688 
	L 418.854, 475.689 
	L 418.854, 0.035 
" />
<path d="M 423.391, 475.688 
	L 423.390, 475.689 
	L 423.390, 0.035 
" />
<path d="M 427.926, 475.688 
	L 427.925, 475.689 
	L 427.925, 0.035 
" />
<path d="M 432.461, 475.688 
	L 432.461, 475.689 
	L 432.461, 0.035 
" />
<path d="M 436.997, 475.688 
	L 436.996, 475.689 
	L 436.996, 0.035 
" />
<path d="M 441.532, 475.688 
	L 441.532, 475.689 
	L 441.532, 0.035 
" />
<path d="M 446.068, 475.688 
	L 446.067, 475.689 
	L 446.067, 0.035 
" />
<path d="M 450.603, 475.688 
	L 450.602, 475.689 
	L 450.602, 0.035 
" />
<path d="M 455.139, 475.688 
	L 455.138, 475.689 
	L 455.138, 0.035 
" />
<path d="M 459.674, 475.688 
	L 459.673, 475.689 
	L 459.673, 0.035 
" />
<path d="M 464.209, 475.688 
	L 464.209, 475.689 
	L 464.209, 0.035 
" />
<path d="M 468.745, 475.688 
	L 468.744, 475.689 
	L 468.744, 0.035 
" />
<path d="M 473.280, 475.688 
	L 473.280, 475.689 
	L 473.280, 0.035 
" />
<path d="M 477.816, 475.688 
	L 477.815, 475.689 
	L 477.815, 0.035 
" />
<path d="M 482.351, 475.688 
	L 482.350, 475.689 
	L 482.350, 0.035 
" />
<path d="M 486.887, 475.688 
	L 486.886, 475.689 
	L 486.886, 0.035 
" />
<path d="M 491.422, 475.688 
	L 491.421, 475.689 
	L 491.421, 0.035 
" />
<path d="M 495.957, 475.688 
	L 495.957, 475.689 
	L 495.957, 0.035 
" />
<path d="M 500.493, 475.688 
	L 500.492, 475.689 
	L 500.492, 0.035 
" />
<path d="M 505.028, 475.688 
	L 505.028, 475.689 
	L 505.028, 0.035 
" />
<path d="M 509.564, 475.688 
	L 509.563, 475.689 
	L 509.563, 0.035 
" />
<path d="M 514.099, 475.688 
	L 514.099, 475.689 
	L 514.099, 0.035 
" />
<path d="M 518.635, 475.688 
	L 518.634, 475.689 
	L 518.634, 0.035 
" />
<path d="M 523.170, 475.688 
	L 523.169, 475.689 
	L 523.169, 0.035 
" />
<path d="M 527.705, 475.688 
	L 527.705, 475.689 
	L 527.705, 0.035 
" />
<path d="M 532.241, 475.688 
	L 532.240, 475.689 
	L 532.240, 0.035 
" />
<path d="M 536.776, 475.688 
	L 536.776, 475.689 
	L 536.776, 0.035 
" />
<path d="M 541.312, 475.688 
	L 541.311, 475.689 
	L 541.311, 0.035 
" />
<path d="M 364.394, 687.401 
	L 364.394, 687.402 
	L 364.394, 475.724 
	L 549.567, 475.724 
	L 549.567, 687.402 
	L 364.394, 687.402 
" />
<path d="M 364.430, 687.366 
	L 364.429, 687.366 
	L 364.429, 475.689 
" />
<path d="M 368.965, 687.366 
	L 368.965, 687.366 
	L 368.965, 475.689 
" />
<path d="M 373.501, 687.366 
	L 373.500, 687.366 
	L 373.500, 475.689 
" />
<path d="M 378.036, 687.366 
	L 378.035, 687.366 
	L 378.035, 475.689 
" />
<path d="M 382.572, 687.366 
	L 382.571, 687.366 
	L 382.571, 475.689 
" />
<path d="M 387.107, 687.366 
	L 387.106, 687.366 
	L 387.106, 475.689 
" />
<path d="M 391.642, 687.366 
	L 391.642, 687.366 
	L 391.642, 475.689 
" />
<path d="M 396.178, 687.366 
	L 396.177, 687.366 
	L 396.177, 475.689 
" />
<path d="M 400.713, 687.366 
	L 400.713, 687.366 
	L 400.713, 475.689 
" />
<path d="M 405.249, 687.366 
	L 405.248, 687.366 
	L 405.248, 475.689 
" />
<path d="M 409.784, 687.366 
	L 409.784, 687.366 
	L 409.784, 475.689 
" />
<path d="M 414.320, 687.366 
	L 414.319, 687.366 
	L 414.319, 475.689 
" />
<path d="M 418.855, 687.366 
	L 418.854, 687.366 
	L 418.854, 475.689 
" />
<path d="M 423.391, 687.366 
	L 423.390, 687.366 
	L 423.390, 475.689 
" />
<path d="M 427.926, 687.366 
	L 427.925, 687.366 
	L 427.925, 475.689 
" />
<path d="M 432.461, 687.366 
	L 432.461, 687.366 
	L 432.461, 475.689 
" />
<path d="M 436.997, 687.366 
	L 436.996, 687.366 
	L 436.996, 475.689 
" />
<path d="M 441.532, 687.366 
	L 441.532, 687.366 
	L 441.532, 475.689 
" />
<path d="M 446.068, 687.366 
	L 446.067, 687.366 
	L 446.067, 475.689 
" />
<path d="M 450.603, 687.366 
	L 450.602, 687.366 
	L 450.602, 475.689 
" />
<path d="M 455.139, 687.366 
	L 455.138, 687.366 
	L 455.138, 475.689 
" />
<path d="M 459.674, 687.366 
	L 459.673, 687.366 
	L 459.673, 475.689 
" />
<path d="M 464.209, 687.366 
	L 464.209, 687.366 
	L 464.209, 475.689 
" />
<path d="M 468.745, 687.366 
	L 468.744, 687.366 
	L 468.744, 475.689 
" />
<path d="M 473.280, 687.366 
	L 473.280, 687.366 
	L 473.280, 475.689 
" />
<path d="M 477.816, 687.366 
	L 477.815, 687.366 
	L 477.815, 475.689 
" />
<path d="M 482.351, 687.366 
	L 482.350, 687.366 
	L 482.350, 475.689 
" />
<path d="M 486.887, 687.366 
	L 486.886, 687.366 
	L 486.886, 475.689 
" />
<path d="M 491.422, 687.366 
	L 491.421, 687.366 
	L 491.421, 475.689 
" />
<path d="M 495.957, 687.366 
	L 495.957, 687.366 
	L 495.957, 475.689 
" />
<path d="M 500.493, 687.366 
	L 500.492, 687.366 
	L 500.492, 475.689 
" />
<path d="M 505.028, 687.366 
	L 505.028, 687.366 
	L 505.028, 475.689 
" />
<path d="M 509.564, 687.366 
	L 509.563, 687.366 
	L 509.563, 475.689 
" />
<path d="M 514.099, 687.366 
	L 514.099, 687.366 
	L 514.099, 475.689 
" />
<path d="M 518.635, 687.366 
	L 518.634, 687.366 
	L 518.634, 475.689 
" />
<path d="M 523.170, 687.366 
	L 523.169, 687.366 
	L 523.169, 475.689 
" />
<path d="M 527.705, 687.366 
	L 527.705, 687.366 
	L 527.705, 475.689 
" />
<path d="M 532.241, 687.366 
	L 532.240, 687.366 
	L 532.240, 475.689 
" />
<path d="M 536.776, 687.366 
	L 536.776, 687.366 
	L 536.776, 475.689 
" />
<path d="M 541.312, 687.366 
	L 541.311, 687.366 
	L 541.311, 475.689 
" />
<path d="M 549.568, 687.401 
	L 549.567, 687.402 
	L 549.567, 252.354 
	L 665.717, 252.354 
	L 665.717, 687.402 
	L 549.567, 687.402 
" />
<path d="M 549.603, 687.366 
	L 549.602, 687.366 
	L 549.602, 252.319 
" />
<path d="M 554.139, 687.366 
	L 554.138, 687.366 
	L 554.138, 252.319 
" />
<path d="M 558.674, 687.366 
	L 558.673, 687.366 
	L 558.673, 252.319 
" />
<path d="M 563.209, 687.366 
	L 563.209, 687.366 
	L 563.209, 252.319 
" />
<path d="M 567.745, 687.366 
	L 567.744, 687.366 
	L 567.744, 252.319 
" />
<path d="M 572.280, 687.366 
	L 572.280, 687.366 
	L 572.280, 252.319 
" />
<path d="M 576.816, 687.366 
	L 576.815, 687.366 
	L 576.815, 252.319 
" />
<path d="M 581.351, 687.366 
	L 581.350, 687.366 
	L 581.350, 252.319 
" />
<path d="M 585.887, 687.366 
	L 585.886, 687.366 
	L 585.886, 252.319 
" />
<path d="M 590.422, 687.366 
	L 590.421, 687.366 
	L 590.421, 252.319 
" />
<path d="M 594.957, 687.366 
	L 594.957, 687.366 
	L 594.957, 252.319 
" />
<path d="M 599.493, 687.366 
	L 599.492, 687.366 
	L 599.492, 252.319 
" />
<path d="M 604.028, 687.366 
	L 604.028, 687.366 
	L 604.028, 252.319 
" />
<path d="M 608.564, 687.366 
	L 608.563, 687.366 
	L 608.563, 252.319 
" />
<path d="M 613.099, 687.366 
	L 613.099, 687.366 
	L 613.099, 252.319 
" />
<path d="M 617.635, 687.366 
	L 617.634, 687.366 
	L 617.634, 252.319 
" />
<path d="M 622.170, 687.366 
	L 622.169, 687.366 
	L 622.169, 252.319 
" />
<path d="M 626.706, 687.366 
	L 626.705, 687.366 
	L 626.705, 252.319 
" />
<path d="M 631.241, 687.366 
	L 631.240, 687.366 
	L 631.240, 252.319 
" />
<path d="M 635.776, 687.366 
	L 635.776, 687.366 
	L 635.776, 252.319 
" />
<path d="M 640.312, 687.366 
	L 640.311, 687.366 
	L 640.311, 252.319 
" />
<path d="M 644.847, 687.366 
	L 644.847, 687.366 
	L 644.847, 252.319 
" />
<path d="M 649.383, 687.366 
	L 649.382, 687.366 
	L 649.382, 252.319 
" />
<path d="M 653.918, 687.366 
	L 653.917, 687.366 
	L 653.917, 252.319 
" />
<path d="M 658.454, 687.366 
	L 658.453, 687.366 
	L 658.453, 252.319 
" />
<path d="M 549.568, 252.318 
	L 549.567, 252.319 
	L 549.567, 0.035 
	L 665.717, 0.035 
	L 665.717, 252.319 
	L 549.567, 252.319 
" />
<path d="M 549.603, 252.318 
	L 549.602, 252.319 
	L 549.602, 0.035 
" />
<path d="M 554.139, 252.318 
	L 554.138, 252.319 
	L 554.138, 0.035 
" />
<path d="M 558.674, 252.318 
	L 558.673, 252.319 
	L 558.673, 0.035 
" />
<path d="M 563.209, 252.318 
	L 563.209, 252.319 
	L 563.209, 0.035 
" />
<path d="M 567.745, 252.318 
	L 567.744, 252.319 
	L 567.744, 0.035 
" />
<path d="M 572.280, 252.318 
	L 572.280, 252.319 
	L 572.280, 0.035 
" />
<path d="M 576.816, 252.318 
	L 576.815, 252.319 
	L 576.815, 0.035 
" />
<path d="M 581.351, 252.318 
	L 581.350, 252.319 
	L 581.350, 0.035 
" />
<path d="M 585.887, 252.318 
	L 585.886, 252.319 
	L 585.886, 0.035 
" />
<path d="M 590.422, 252.318 
	L 590.421, 252.319 
	L 590.421, 0.035 
" />
<path d="M 594.957, 252.318 
	L 594.957, 252.319 
	L 594.957, 0.035 
" />
<path d="M 599.493, 252.318 
	L 599.492, 252.319 
	L 599.492, 0.035 
" />
<path d="M 604.028, 252.318 
	L 604.028, 252.319 
	L 604.028, 0.035 
" />
<path d="M 608.564, 252.318 
	L 608.563, 252.319 
	L 608.563, 0.035 
" />
<path d="M 613.099, 252.318 
	L 613.099, 252.319 
	L 613.099, 0.035 
" />
<path d="M 617.635, 252.318 
	L 617.634, 252.319 
	L 617.634, 0.035 
" />
<path d="M 622.170, 252.318 
	L 622.169, 252.319 
	L 622.169, 0.035 
" />
<path d="M 626.706, 252.318 
	L 626.705, 252.319 
	L 626.705, 0.035 
" />
<path d="M 631.241, 252.318 
	L 631.240, 252.319 
	L 631.240, 0.035 
" />
<path d="M 635.776, 252.318 
	L 635.776, 252.319 
	L 635.776, 0.035 
" />
<path d="M 640.312, 252.318 
	L 640.311, 252.319 
	L 640.311, 0.035 
" />
<path d="M 644.847, 252.318 
	L 644.847, 252.319 
	L 644.847, 0.035 
" />
<path d="M 649.383, 252.318 
	L 649.382, 252.319 
	L 649.382, 0.035 
" />
<path d="M 653.918, 252.318 
	L 653.917, 252.319 
	L 653.917, 0.035 
" />
<path d="M 658.454, 252.318 
	L 658.453, 252.319 
	L 658.453, 0.035 
" />
<path d="M 665.753, 252.318 
	L 665.752, 252.319 
	L 665.752, 0.035 
	L 708.697, 0.035 
	L 708.697, 252.319 
	L 665.752, 252.319 
" />
<path d="M 665.753, 252.318 
	L 665.752, 252.319 
	L 665.752, 0.035 
" />
<path d="M 670.288, 252.318 
	L 670.288, 252.319 
	L 670.288, 0.035 
" />
<path d="M 674.824, 252.318 
	L 674.823, 252.319 
	L 674.823, 0.035 
" />
<path d="M 679.359, 252.318 
	L 679.358, 252.319 
	L 679.358, 0.035 
" />
<path d="M 683.894, 252.318 
	L 683.894, 252.319 
	L 683.894, 0.035 
" />
<path d="M 688.430, 252.318 
	L 688.429, 252.319 
	L 688.429, 0.035 
" />
<path d="M 692.965, 252.318 
	L 692.965, 252.319 
	L 692.965, 0.035 
" />
<path d="M 697.501, 252.318 
	L 697.500, 252.319 
	L 697.500, 0.035 
" />
<path d="M 702.036, 252.318 
	L 702.036, 252.319 
	L 702.036, 0.035 
" />
<path d="M 665.753, 687.401 
	L 665.752, 687.402 
	L 665.752, 252.354 
	L 708.697, 252.354 
	L 708.697, 687.402 
	L 665.752, 687.402 
" />
<path d="M 665.753, 687.366 
	L 665.752, 687.366 
	L 665.752, 252.319 
" />
<path d="M 670.288, 687.366 
	L 670.288, 687.366 
	L 670.288, 252.319 
" />
<path d="M 674.824, 687.366 
	L 674.823, 687.366 
	L 674.823, 252.319 
" />
<path d="M 679.359, 687.366 
	L 679.358, 687.366 
	L 679.358, 252.319 
" />
<path d="M 683.894, 687.366 
	L 683.894, 687.366 
	L 683.894, 252.319 
" />
<path d="M 688.430, 687.366 
	L 688.429, 687.366 
	L 688.429, 252.319 
" />
<path d="M 692.965, 687.366 
	L 692.965, 687.366 
	L 692.965, 252.319 
" />
<path d="M 697.501, 687.366 
	L 697.500, 687.366 
	L 697.500, 252.319 
" />
<path d="M 702.036, 687.366 
	L 702.036, 687.366 
	L 702.036, 252.319 
" />
<path d="M 549.603, 708.696 
	L 549.602, 708.697 
	L 549.602, 707.988 
	L 707.776, 707.988 
	L 707.776, 708.697 
	L 549.602, 708.697 
" />
<path d="M 549.603, 708.696 
	L 549.602, 708.697 
	L 549.602, 707.988 
" />
<path d="M 554.139, 708.696 
	L 554.138, 708.697 
	L 554.138, 707.988 
" />
<path d="M 558.674, 708.696 
	L 558.673, 708.697 
	L 558.673, 707.988 
" />
<path d="M 563.209, 708.696 
	L 563.209, 708.697 
	L 563.209, 707.988 
" />
<path d="M 567.745, 708.696 
	L 567.744, 708.697 
	L 567.744, 707.988 
" />
<path d="M 572.280, 708.696 
	L 572.280, 708.697 
	L 572.280, 707.988 
" />
<path d="M 576.816, 708.696 
	L 576.815, 708.697 
	L 576.815, 707.988 
" />
<path d="M 581.351, 708.696 
	L 581.350, 708.697 
	L 581.350, 707.988 
" />
<path d="M 585.887, 708.696 
	L 585.886, 708.697 
	L 585.886, 707.988 
" />
<path d="M 590.422, 708.696 
	L 590.421, 708.697 
	L 590.421, 707.988 
" />
<path d="M 594.957, 708.696 
	L 594.957, 708.697 
	L 594.957, 707.988 
" />
<path d="M 599.493, 708.696 
	L 599.492, 708.697 
	L 599.492, 707.988 
" />
<path d="M 604.028, 708.696 
	L 604.028, 708.697 
	L 604.028, 707.988 
" />
<path d="M 608.564, 708.696 
	L 608.563, 708.697 
	L 608.563, 707.988 
" />
<path d="M 613.099, 708.696 
	L 613.099, 708.697 
	L 613.099, 707.988 
" />
<path d="M 617.635, 708.696 
	L 617.634, 708.697 
	L 617.634, 707.988 
" />
<path d="M 622.170, 708.696 
	L 622.169, 708.697 
	L 622.169, 707.988 
" />
<path d="M 626.706, 708.696 
	L 626.705, 708.697 
	L 626.705, 707.988 
" />
<path d="M 631.241, 708.696 
	L 631.240, 708.697 
	L 631.240, 707.988 
" />
<path d="M 635.776, 708.696 
	L 635.776, 708.697 
	L 635.776, 707.988 
" />
<path d="M 640.312, 708.696 
	L 640.311, 708.697 
	L 640.311, 707.988 
" />
<path d="M 644.847, 708.696 
	L 644.847, 708.697 
	L 644.847, 707.988 
" />
<path d="M 649.383, 708.696 
	L 649.382, 708.697 
	L 649.382, 707.988 
" />
<path d="M 653.918, 708.696 
	L 653.917, 708.697 
	L 653.917, 707.988 
" />
<path d="M 658.454, 708.696 
	L 658.453, 708.697 
	L 658.453, 707.988 
" />
<path d="M 662.989, 708.696 
	L 662.988, 708.697 
	L 662.988, 707.988 
" />
<path d="M 667.524, 708.696 
	L 667.524, 708.697 
	L 667.524, 707.988 
" />
<path d="M 672.060, 708.696 
	L 672.059, 708.697 
	L 672.059, 707.988 
" />
<path d="M 676.595, 708.696 
	L 676.595, 708.697 
	L 676.595, 707.988 
" />
<path d="M 681.131, 708.696 
	L 681.130, 708.697 
	L 681.130, 707.988 
" />
<path d="M 685.666, 708.696 
	L 685.665, 708.697 
	L 685.665, 707.988 
" />
<path d="M 690.202, 708.696 
	L 690.201, 708.697 
	L 690.201, 707.988 
" />
<path d="M 694.737, 708.696 
	L 694.736, 708.697 
	L 694.736, 707.988 
" />
<path d="M 699.272, 708.696 
	L 699.272, 708.697 
	L 699.272, 707.988 
" />
<path d="M 549.603, 708.023 
	L 549.602, 708.024 
	L 549.602, 687.402 
	L 707.776, 687.402 
	L 707.776, 708.024 
	L 549.602, 708.024 
" />
<path d="M 549.603, 707.988 
	L 549.602, 707.988 
	L 549.602, 687.366 
" />
<path d="M 554.139, 707.988 
	L 554.138, 707.988 
	L 554.138, 687.366 
" />
<path d="M 558.674, 707.988 
	L 558.673, 707.988 
	L 558.673, 687.366 
" />
<path d="M 563.209, 707.988 
	L 563.209, 707.988 
	L 563.209, 687.366 
" />
<path d="M 567.745, 707.988 
	L 567.744, 707.988 
	L 567.744, 687.366 
" />
<path d="M 572.280, 707.988 
	L 572.280, 707.988 
	L 572.280, 687.366 
" />
<path d="M 576.816, 707.988 
	L 576.815, 707.988 
	L 576.815, 687.366 
" />
<path d="M 581.351, 707.988 
	L 581.350, 707.988 
	L 581.350, 687.366 
" />
<path d="M 585.887, 707.988 
	L 585.886, 707.988 
	L 585.886, 687.366 
" />
<path d="M 590.422, 707.988 
	L 590.421, 707.988 
	L 590.421, 687.366 
" />
<path d="M 594.957, 707.988 
	L 594.957, 707.988 
	L 594.957, 687.366 
" />
<path d="M 599.493, 707.988 
	L 599.492, 707.988 
	L 599.492, 687.366 
" />
<path d="M 604.028, 707.988 
	L 604.028, 707.988 
	L 604.028, 687.366 
" />
<path d="M 608.564, 707.988 
	L 608.563, 707.988 
	L 608.563, 687.366 
" />
<path d="M 613.099, 707.988 
	L 613.099, 707.988 
	L 613.099, 687.366 
" />
<path d="M 617.635, 707.988 
	L 617.634, 707.988 
	L 617.634, 687.366 
" />
<path d="M 622.170, 707.988 
	L 622.169, 707.988 
	L 622.169, 687.366 
" />
<path d="M 626.706, 707.988 
	L 626.705, 707.988 
	L 626.705, 687.366 
" />
<path d="M 631.241, 707.988 
	L 631.240, 707.988 
	L 631.240, 687.366 
" />
<path d="M 635.776, 707.988 
	L 635.776, 707.988 
	L 635.776, 687.366 
" />
<path d="M 640.312, 707.988 
	L 640.311, 707.988 
	L 640.311, 687.366 
" />
<path d="M 644.847, 707.988 
	L 644.847, 707.988 
	L 644.847, 687.366 
" />
<path d="M 649.383, 707.988 
	L 649.382, 707.988 
	L 649.382, 687.366 
" />
<path d="M 653.918, 707.988 
	L 653.917, 707.988 
	L 653.917, 687.366 
" />
<path d="M 658.454, 707.988 
	L 658.453, 707.988 
	L 658.453, 687.366 
" />
<path d="M 662.989, 707.988 
	L 662.988, 707.988 
	L 662.988, 687.366 
" />
<path d="M 667.524, 707.988 
	L 667.524, 707.988 
	L 667.524, 687.366 
" />
<path d="M 672.060, 707.988 
	L 672.059, 707.988 
	L 672.059, 687.366 
" />
<path d="M 676.595, 707.988 
	L 676.595, 707.988 
	L 676.595, 687.366 
" />
<path d="M 681.131, 707.988 
	L 681.130, 707.988 
	L 681.130, 687.366 
" />
<path d="M 685.666, 707.988 
	L 685.665, 707.988 
	L 685.665, 687.366 
" />
<path d="M 690.202, 707.988 
	L 690.201, 707.988 
	L 690.201, 687.366 
" />
<path d="M 694.737, 707.988 
	L 694.736, 707.988 
	L 694.736, 687.366 
" />
<path d="M 699.272, 707.988 
	L 699.272, 707.988 
	L 699.272, 687.366 
" />
<path d="M 707.741, 708.023 
	L 707.740, 708.024 
	L 707.740, 687.402 
	L 708.662, 687.402 
	L 708.662, 708.024 
	L 707.740, 708.024 
" />
<path d="M 707.741, 708.696 
	L 707.740, 708.697 
	L 707.740, 707.988 
	L 708.662, 707.988 
	L 708.662, 708.697 
	L 707.740, 708.697 
" />
</g>
</svg>
