<?xml version="1.0" encoding="UTF-8" standalone="no" ?>
<svg width="100%" height="100%" viewBox="0 0 708.662 708.662" xmlns="http://www.w3.org/2000/svg"><g>
</g><g style="stroke:rgb(0,0,0); fill:none; stroke-width:1.000mm" >
</g><g style="stroke:rgb(0,255,0); fill:none; stroke-width:0.100mm" >
<path d="M 0.001, 708.661 
	L 0.000, 708.662 
	L 0.000, 0.000 
	L 708.662, 0.000 
	L 708.662, 708.662 
	L 0.000, 708.662 
" />
<path d="M 0.780, 708.661 
	L 0.780, 708.662 
	L 0.780, 637.795 
	L 71.646, 637.795 
	L 71.646, 708.662 
	L 0.780, 708.662 
" />
<path d="M 0.780, 708.661 
	L 0.780, 708.662 
	L 0.780, 637.795 
" />
<path d="M 6.450, 708.661 
	L 6.449, 708.662 
	L 6.449, 637.795 
" />
<path d="M 12.119, 708.661 
	L 12.118, 708.662 
	L 12.118, 637.795 
" />
<path d="M 17.788, 708.661 
	L 17.787, 708.662 
	L 17.787, 637.795 
" />
<path d="M 23.457, 708.661 
	L 23.457, 708.662 
	L 23.457, 637.795 
" />
<path d="M 29.127, 708.661 
	L 29.126, 708.662 
	L 29.126, 637.795 
" />
<path d="M 34.796, 708.661 
	L 34.795, 708.662 
	L 34.795, 637.795 
" />
<path d="M 40.465, 708.661 
	L 40.465, 708.662 
	L 40.465, 637.795 
" />
<path d="M 46.135, 708.661 
	L 46.134, 708.662 
	L 46.134, 637.795 
" />
<path d="M 51.804, 708.661 
	L 51.803, 708.662 
	L 51.803, 637.795 
" />
<path d="M 57.473, 708.661 
	L 57.472, 708.662 
	L 57.472, 637.795 
" />
<path d="M 63.142, 708.661 
	L 63.142, 708.662 
	L 63.142, 637.795 
" />
</g>
</svg>
