<?xml version="1.0" encoding="UTF-8" standalone="no" ?>
<svg width="100%" height="100%" viewBox="0 0 1135.276 708.662" xmlns="http://www.w3.org/2000/svg"><g>
</g><g style="stroke:rgb(0,0,0); fill:none; stroke-width:1.000mm" >
</g><g style="stroke:rgb(0,0,0); fill:none; stroke-width:0.100mm" >
<path d="M 1133.858, 708.662 
	L 1129.606, 703.347 
" />
<path d="M 1129.606, 702.284 
	L 1133.150, 702.284 
	L 1133.858, 701.221 
	L 1133.858, 699.095 
	L 1133.150, 698.032 
	L 1129.606, 698.032 
" />
<path d="M 1131.024, 692.717 
	L 1131.024, 694.843 
	L 1131.732, 695.906 
	L 1132.441, 694.843 
	L 1132.441, 693.780 
	L 1133.150, 692.717 
	L 1133.858, 693.780 
	L 1133.858, 695.906 
" />
<path d="M 1132.441, 689.528 
	L 1132.441, 686.339 
	L 1131.732, 685.276 
	L 1131.024, 686.339 
	L 1131.024, 688.465 
	L 1131.732, 689.528 
	L 1133.150, 689.528 
	L 1133.858, 688.465 
	L 1133.858, 685.276 
" />
<path d="M 1131.024, 683.150 
	L 1133.858, 683.150 
" />
<path d="M 1132.441, 683.150 
	L 1131.024, 681.024 
	L 1131.024, 679.961 
" />
<path d="M 1131.024, 673.583 
	L 1131.024, 675.709 
	L 1131.732, 676.772 
	L 1132.441, 675.709 
	L 1132.441, 674.646 
	L 1133.150, 673.583 
	L 1133.858, 674.646 
	L 1133.858, 676.772 
" />
<path d="M 1133.858, 670.394 
	L 1129.606, 665.079 
" />
<path d="M 1133.858, 664.016 
	L 1129.606, 664.016 
" />
<path d="M 1133.858, 660.827 
	L 1132.441, 664.016 
	L 1131.024, 660.827 
" />
<path d="M 1133.858, 653.386 
	L 1133.858, 656.575 
	L 1133.150, 657.638 
	L 1131.732, 657.638 
	L 1131.024, 656.575 
	L 1131.024, 654.449 
	L 1133.858, 654.449 
" />
<path d="M 1133.858, 650.197 
	L 1133.150, 651.260 
	L 1131.732, 651.260 
	L 1131.024, 650.197 
	L 1131.024, 649.134 
	L 1131.732, 648.071 
	L 1133.150, 648.071 
	L 1133.858, 649.134 
	L 1133.858, 650.197 
" />
<path d="M 1131.024, 641.693 
	L 1131.024, 643.819 
	L 1131.732, 644.882 
	L 1132.441, 643.819 
	L 1132.441, 642.756 
	L 1133.150, 641.693 
	L 1133.858, 642.756 
	L 1133.858, 644.882 
" />
<path d="M 1133.858, 638.504 
	L 1129.606, 633.189 
" />
<path d="M 1133.858, 632.126 
	L 1129.606, 632.126 
	L 1129.606, 628.937 
	L 1130.315, 627.874 
	L 1133.150, 627.874 
	L 1133.858, 628.937 
	L 1133.858, 632.126 
" />
<path d="M 1133.858, 624.685 
	L 1133.150, 625.748 
	L 1131.732, 625.748 
	L 1131.024, 624.685 
	L 1131.024, 623.622 
	L 1131.732, 622.559 
	L 1133.150, 622.559 
	L 1133.858, 623.622 
	L 1133.858, 624.685 
" />
<path d="M 1133.150, 615.118 
	L 1133.858, 616.181 
	L 1133.858, 617.244 
	L 1133.150, 618.307 
	L 1131.732, 618.307 
	L 1131.024, 617.244 
	L 1131.024, 616.181 
	L 1131.732, 615.118 
" />
<path d="M 1131.024, 612.992 
	L 1133.150, 612.992 
	L 1133.858, 611.929 
	L 1133.858, 609.803 
	L 1131.024, 609.803 
" />
<path d="M 1133.858, 606.614 
	L 1131.024, 606.614 
" />
<path d="M 1131.732, 606.614 
	L 1131.024, 605.551 
	L 1131.732, 604.488 
	L 1133.858, 604.488 
" />
<path d="M 1131.732, 604.488 
	L 1131.024, 603.425 
	L 1131.732, 602.362 
	L 1133.858, 602.362 
" />
<path d="M 1132.441, 600.236 
	L 1132.441, 597.047 
	L 1131.732, 595.984 
	L 1131.024, 597.047 
	L 1131.024, 599.173 
	L 1131.732, 600.236 
	L 1133.150, 600.236 
	L 1133.858, 599.173 
	L 1133.858, 595.984 
" />
<path d="M 1133.858, 593.858 
	L 1131.024, 593.858 
" />
<path d="M 1131.732, 593.858 
	L 1131.024, 592.795 
	L 1131.024, 591.732 
	L 1131.732, 590.669 
	L 1133.858, 590.669 
" />
<path d="M 1129.606, 586.417 
	L 1133.858, 586.417 
	L 1133.858, 584.291 
" />
<path d="M 1131.024, 587.480 
	L 1131.024, 584.291 
" />
<path d="M 1131.024, 577.913 
	L 1131.024, 580.039 
	L 1131.732, 581.102 
	L 1132.441, 580.039 
	L 1132.441, 578.976 
	L 1133.150, 577.913 
	L 1133.858, 578.976 
	L 1133.858, 581.102 
" />
<path d="M 1133.858, 574.724 
	L 1129.606, 569.410 
" />
<path d="M 1133.150, 568.347 
	L 1133.858, 567.284 
	L 1133.858, 565.158 
	L 1133.150, 564.095 
	L 1130.315, 564.095 
	L 1129.606, 565.158 
	L 1129.606, 567.284 
	L 1130.315, 568.347 
	L 1133.150, 568.347 
" />
<path d="M 1133.150, 561.969 
	L 1133.858, 560.906 
	L 1133.858, 558.780 
	L 1133.150, 557.717 
	L 1130.315, 557.717 
	L 1129.606, 558.780 
	L 1129.606, 560.906 
	L 1130.315, 561.969 
	L 1133.150, 561.969 
" />
<path d="M 1129.606, 551.339 
	L 1129.606, 555.591 
	L 1131.024, 555.591 
	L 1131.024, 552.402 
	L 1131.732, 551.339 
	L 1133.150, 551.339 
	L 1133.858, 552.402 
	L 1133.858, 554.528 
	L 1133.150, 555.591 
" />
<path d="M 1134.567, 549.213 
	L 1134.567, 544.961 
" />
<path d="M 1135.276, 542.835 
	L 1131.024, 542.835 
	L 1131.024, 540.709 
	L 1131.732, 539.646 
	L 1133.150, 539.646 
	L 1133.858, 540.709 
	L 1133.858, 542.835 
" />
<path d="M 1129.606, 535.394 
	L 1129.606, 534.331 
	L 1133.858, 534.331 
" />
<path d="M 1133.858, 535.394 
	L 1133.858, 533.268 
" />
<path d="M 1133.858, 529.016 
	L 1133.150, 530.079 
	L 1131.732, 530.079 
	L 1131.024, 529.016 
	L 1131.024, 527.953 
	L 1131.732, 526.890 
	L 1133.150, 526.890 
	L 1133.858, 527.953 
	L 1133.858, 529.016 
" />
<path d="M 1129.606, 522.638 
	L 1133.858, 522.638 
	L 1133.858, 520.512 
" />
<path d="M 1131.024, 523.701 
	L 1131.024, 520.512 
" />
<path d="M 1129.606, 516.260 
	L 1133.858, 516.260 
	L 1133.858, 514.134 
" />
<path d="M 1131.024, 517.323 
	L 1131.024, 514.134 
" />
<path d="M 1132.441, 510.945 
	L 1132.441, 507.756 
	L 1131.732, 506.693 
	L 1131.024, 507.756 
	L 1131.024, 509.882 
	L 1131.732, 510.945 
	L 1133.150, 510.945 
	L 1133.858, 509.882 
	L 1133.858, 506.693 
" />
<path d="M 1131.024, 504.567 
	L 1133.858, 504.567 
" />
<path d="M 1132.441, 504.567 
	L 1131.024, 502.441 
	L 1131.024, 501.378 
" />
<path d="M 1133.858, 498.189 
	L 1129.606, 492.874 
" />
<path d="M 1133.858, 490.748 
	L 1133.150, 491.811 
	L 1131.732, 491.811 
	L 1131.024, 490.748 
	L 1131.024, 489.685 
	L 1131.732, 488.622 
	L 1133.150, 488.622 
	L 1133.858, 489.685 
	L 1133.858, 490.748 
" />
<path d="M 1131.024, 485.433 
	L 1133.150, 485.433 
	L 1133.858, 484.370 
	L 1133.858, 482.244 
	L 1131.024, 482.244 
" />
<path d="M 1129.606, 477.992 
	L 1133.858, 477.992 
	L 1133.858, 475.866 
" />
<path d="M 1131.024, 479.055 
	L 1131.024, 475.866 
" />
<path d="M 1135.276, 472.677 
	L 1131.024, 472.677 
	L 1131.024, 470.551 
	L 1131.732, 469.488 
	L 1133.150, 469.488 
	L 1133.858, 470.551 
	L 1133.858, 472.677 
" />
<path d="M 1131.024, 466.299 
	L 1133.150, 466.299 
	L 1133.858, 465.236 
	L 1133.858, 463.110 
	L 1131.024, 463.110 
" />
<path d="M 1129.606, 458.858 
	L 1133.858, 458.858 
	L 1133.858, 456.732 
" />
<path d="M 1131.024, 459.921 
	L 1131.024, 456.732 
" />
<path d="M 1133.858, 453.543 
	L 1129.606, 448.228 
" />
<path d="M 1129.606, 446.102 
	L 1133.858, 446.102 
	L 1133.858, 443.976 
" />
<path d="M 1131.024, 447.165 
	L 1131.024, 443.976 
" />
<path d="M 1129.606, 438.661 
	L 1130.315, 438.661 
" />
<path d="M 1131.024, 439.724 
	L 1131.024, 438.661 
	L 1133.858, 438.661 
" />
<path d="M 1133.858, 439.724 
	L 1133.858, 437.598 
" />
<path d="M 1129.606, 433.347 
	L 1129.606, 432.284 
	L 1133.858, 432.284 
" />
<path d="M 1133.858, 433.347 
	L 1133.858, 431.221 
" />
<path d="M 1129.606, 426.969 
	L 1133.858, 426.969 
	L 1133.858, 424.843 
" />
<path d="M 1131.024, 428.032 
	L 1131.024, 424.843 
" />
<path d="M 1132.441, 421.654 
	L 1132.441, 418.465 
	L 1131.732, 417.402 
	L 1131.024, 418.465 
	L 1131.024, 420.591 
	L 1131.732, 421.654 
	L 1133.150, 421.654 
	L 1133.858, 420.591 
	L 1133.858, 417.402 
" />
<path d="M 1129.606, 412.087 
	L 1133.858, 412.087 
	L 1133.858, 414.213 
	L 1133.150, 415.276 
	L 1131.732, 415.276 
	L 1131.024, 414.213 
	L 1131.024, 412.087 
" />
<path d="M 1133.858, 412.087 
	L 1133.858, 411.024 
" />
<path d="M 1131.024, 405.709 
	L 1131.024, 407.835 
	L 1131.732, 408.898 
	L 1132.441, 407.835 
	L 1132.441, 406.772 
	L 1133.150, 405.709 
	L 1133.858, 406.772 
	L 1133.858, 408.898 
" />
<path d="M 1133.858, 399.331 
	L 1133.858, 401.457 
	L 1133.150, 402.520 
	L 1131.732, 402.520 
	L 1131.024, 401.457 
	L 1131.024, 399.331 
	L 1135.276, 399.331 
" />
<path d="M 1131.024, 396.142 
	L 1133.150, 396.142 
	L 1133.858, 395.079 
	L 1133.858, 392.953 
	L 1131.024, 392.953 
" />
<path d="M 1133.858, 385.512 
	L 1133.858, 388.701 
	L 1133.150, 389.764 
	L 1131.732, 389.764 
	L 1131.024, 388.701 
	L 1131.024, 386.575 
	L 1133.858, 386.575 
" />
<path d="M 1131.024, 383.386 
	L 1133.858, 383.386 
" />
<path d="M 1132.441, 383.386 
	L 1131.024, 381.260 
	L 1131.024, 380.197 
" />
<path d="M 1132.441, 377.008 
	L 1132.441, 373.819 
	L 1131.732, 372.756 
	L 1131.024, 373.819 
	L 1131.024, 375.945 
	L 1131.732, 377.008 
	L 1133.150, 377.008 
	L 1133.858, 375.945 
	L 1133.858, 372.756 
" />
<path d="M 1131.024, 367.441 
	L 1131.024, 369.567 
	L 1131.732, 370.630 
	L 1132.441, 369.567 
	L 1132.441, 368.504 
	L 1133.150, 367.441 
	L 1133.858, 368.504 
	L 1133.858, 370.630 
" />
<path d="M 1134.567, 364.252 
	L 1134.567, 360.000 
" />
<path d="M 1133.150, 357.874 
	L 1133.858, 356.811 
	L 1133.858, 354.685 
	L 1133.150, 353.622 
	L 1130.315, 353.622 
	L 1129.606, 354.685 
	L 1129.606, 356.811 
	L 1130.315, 357.874 
	L 1133.150, 357.874 
" />
<path d="M 1129.606, 347.244 
	L 1129.606, 351.496 
	L 1131.024, 351.496 
	L 1131.024, 348.307 
	L 1131.732, 347.244 
	L 1133.150, 347.244 
	L 1133.858, 348.307 
	L 1133.858, 350.433 
	L 1133.150, 351.496 
" />
<path d="M 1134.567, 345.118 
	L 1134.567, 340.866 
" />
<path d="M 1133.150, 338.740 
	L 1133.858, 337.677 
	L 1133.858, 335.551 
	L 1133.150, 334.488 
	L 1130.315, 334.488 
	L 1129.606, 335.551 
	L 1129.606, 337.677 
	L 1130.315, 338.740 
	L 1133.150, 338.740 
" />
<path d="M 1130.315, 332.362 
	L 1129.606, 331.299 
	L 1129.606, 329.173 
	L 1130.315, 328.110 
	L 1131.024, 328.110 
	L 1133.150, 332.362 
	L 1133.858, 332.362 
	L 1133.858, 328.110 
" />
<path d="M 1134.567, 325.984 
	L 1134.567, 321.732 
" />
<path d="M 1130.315, 319.606 
	L 1129.606, 318.543 
	L 1129.606, 316.417 
	L 1130.315, 315.354 
	L 1131.024, 315.354 
	L 1133.150, 319.606 
	L 1133.858, 319.606 
	L 1133.858, 315.354 
" />
<path d="M 1133.150, 313.228 
	L 1133.858, 312.165 
	L 1133.858, 310.039 
	L 1133.150, 308.976 
	L 1130.315, 308.976 
	L 1129.606, 310.039 
	L 1129.606, 312.165 
	L 1130.315, 313.228 
	L 1133.150, 313.228 
" />
<path d="M 1133.858, 305.787 
	L 1133.858, 303.661 
" />
<path d="M 1133.858, 304.724 
	L 1129.606, 304.724 
	L 1130.315, 305.787 
" />
<path d="M 1133.858, 299.409 
	L 1133.858, 298.346 
	L 1132.441, 296.220 
	L 1130.315, 296.220 
	L 1129.606, 297.283 
	L 1129.606, 299.409 
	L 1130.315, 300.472 
	L 1131.024, 300.472 
	L 1131.732, 299.409 
	L 1131.732, 296.220 
" />
<path d="M 1134.567, 294.094 
	L 1134.567, 289.843 
" />
<path d="M 1133.858, 286.654 
	L 1133.858, 284.528 
" />
<path d="M 1133.858, 285.591 
	L 1129.606, 285.591 
	L 1130.315, 286.654 
" />
<path d="M 1129.606, 277.087 
	L 1129.606, 281.339 
	L 1131.024, 281.339 
	L 1131.024, 278.150 
	L 1131.732, 277.087 
	L 1133.150, 277.087 
	L 1133.858, 278.150 
	L 1133.858, 280.276 
	L 1133.150, 281.339 
" />
<path d="M 1129.606, 271.772 
	L 1131.732, 274.961 
	L 1132.441, 274.961 
	L 1132.441, 270.709 
" />
<path d="M 1131.732, 271.772 
	L 1133.858, 271.772 
" />
<path d="M 1133.150, 268.583 
	L 1133.858, 267.520 
	L 1133.858, 265.394 
	L 1133.150, 264.331 
	L 1132.441, 264.331 
	L 1131.732, 265.394 
	L 1131.732, 266.457 
	L 1129.606, 264.331 
	L 1129.606, 268.583 
" />
<path d="M 1130.315, 236.693 
	L 1129.606, 235.630 
	L 1129.606, 233.504 
	L 1130.315, 232.441 
	L 1131.024, 232.441 
	L 1133.150, 236.693 
	L 1133.858, 236.693 
	L 1133.858, 232.441 
" />
<path d="M 1133.150, 230.315 
	L 1133.858, 229.252 
	L 1133.858, 227.126 
	L 1133.150, 226.063 
	L 1130.315, 226.063 
	L 1129.606, 227.126 
	L 1129.606, 229.252 
	L 1130.315, 230.315 
	L 1133.150, 230.315 
" />
<path d="M 1133.858, 222.874 
	L 1133.858, 220.748 
" />
<path d="M 1133.858, 221.811 
	L 1129.606, 221.811 
	L 1130.315, 222.874 
" />
<path d="M 1133.858, 216.496 
	L 1133.858, 215.433 
	L 1132.441, 213.307 
	L 1130.315, 213.307 
	L 1129.606, 214.370 
	L 1129.606, 216.496 
	L 1130.315, 217.559 
	L 1131.024, 217.559 
	L 1131.732, 216.496 
	L 1131.732, 213.307 
" />
<path d="M 1131.732, 211.181 
	L 1131.732, 206.929 
" />
<path d="M 1133.150, 204.803 
	L 1133.858, 203.740 
	L 1133.858, 201.614 
	L 1133.150, 200.551 
	L 1130.315, 200.551 
	L 1129.606, 201.614 
	L 1129.606, 203.740 
	L 1130.315, 204.803 
	L 1133.150, 204.803 
" />
<path d="M 1129.606, 194.173 
	L 1129.606, 198.425 
	L 1131.024, 198.425 
	L 1131.024, 195.236 
	L 1131.732, 194.173 
	L 1133.150, 194.173 
	L 1133.858, 195.236 
	L 1133.858, 197.362 
	L 1133.150, 198.425 
" />
<path d="M 1131.732, 192.047 
	L 1131.732, 187.795 
" />
<path d="M 1133.150, 185.669 
	L 1133.858, 184.606 
	L 1133.858, 182.480 
	L 1133.150, 181.417 
	L 1130.315, 181.417 
	L 1129.606, 182.480 
	L 1129.606, 184.606 
	L 1130.315, 185.669 
	L 1133.150, 185.669 
" />
<path d="M 1130.315, 179.291 
	L 1129.606, 178.228 
	L 1129.606, 176.102 
	L 1130.315, 175.039 
	L 1131.024, 175.039 
	L 1133.150, 179.291 
	L 1133.858, 179.291 
	L 1133.858, 175.039 
" />
<path d="M 1133.858, 165.472 
	L 1133.858, 163.346 
" />
<path d="M 1133.858, 164.409 
	L 1129.606, 164.409 
	L 1130.315, 165.472 
" />
<path d="M 1129.606, 155.906 
	L 1129.606, 160.157 
	L 1131.024, 160.157 
	L 1131.024, 156.968 
	L 1131.732, 155.906 
	L 1133.150, 155.906 
	L 1133.858, 156.968 
	L 1133.858, 159.094 
	L 1133.150, 160.157 
" />
<path d="M 1131.732, 152.717 
	L 1131.024, 152.717 
	L 1131.024, 151.654 
	L 1131.732, 151.654 
	L 1131.732, 152.717 
" />
<path d="M 1133.150, 152.717 
	L 1133.150, 151.654 
	L 1133.858, 151.654 
	L 1133.858, 152.717 
	L 1133.150, 152.717 
" />
<path d="M 1129.606, 144.213 
	L 1131.732, 147.402 
	L 1132.441, 147.402 
	L 1132.441, 143.150 
" />
<path d="M 1131.732, 144.213 
	L 1133.858, 144.213 
" />
<path d="M 1133.150, 141.024 
	L 1133.858, 139.961 
	L 1133.858, 137.835 
	L 1133.150, 136.772 
	L 1132.441, 136.772 
	L 1131.732, 137.835 
	L 1131.732, 138.898 
	L 1129.606, 136.772 
	L 1129.606, 141.024 
" />
<path d="M 4.111, 668.834 
	L 4.110, 668.835 
	L 4.110, 552.189 
" />
<path d="M 9.780, 668.834 
	L 9.780, 668.835 
	L 9.780, 552.189 
" />
<path d="M 15.450, 668.834 
	L 15.449, 668.835 
	L 15.449, 552.189 
" />
<path d="M 21.119, 668.834 
	L 21.118, 668.835 
	L 21.118, 552.189 
" />
<path d="M 26.788, 668.834 
	L 26.787, 668.835 
	L 26.787, 552.189 
" />
<path d="M 32.457, 668.834 
	L 32.457, 668.835 
	L 32.457, 552.189 
" />
<path d="M 38.127, 668.834 
	L 38.126, 668.835 
	L 38.126, 552.189 
" />
<path d="M 43.796, 668.834 
	L 43.795, 668.835 
	L 43.795, 552.189 
" />
<path d="M 49.465, 668.834 
	L 49.465, 668.835 
	L 49.465, 552.189 
" />
<path d="M 55.135, 668.834 
	L 55.134, 668.835 
	L 55.134, 552.189 
" />
<path d="M 60.804, 668.834 
	L 60.803, 668.835 
	L 60.803, 552.189 
" />
<path d="M 66.473, 668.834 
	L 66.472, 668.835 
	L 66.472, 552.189 
" />
<path d="M 72.142, 668.834 
	L 72.142, 668.835 
	L 72.142, 552.189 
" />
<path d="M 77.812, 668.834 
	L 77.811, 668.835 
	L 77.811, 552.189 
" />
<path d="M 83.481, 668.834 
	L 83.480, 668.835 
	L 83.480, 552.189 
" />
<path d="M 89.150, 668.834 
	L 89.150, 668.835 
	L 89.150, 552.189 
" />
<path d="M 94.820, 668.834 
	L 94.819, 668.835 
	L 94.819, 552.189 
" />
<path d="M 100.489, 668.834 
	L 100.488, 668.835 
	L 100.488, 552.189 
" />
<path d="M 106.158, 668.834 
	L 106.157, 668.835 
	L 106.157, 552.189 
" />
<path d="M 111.827, 668.834 
	L 111.827, 668.835 
	L 111.827, 552.189 
" />
<path d="M 117.497, 668.834 
	L 117.496, 668.835 
	L 117.496, 552.189 
" />
<path d="M 123.166, 668.834 
	L 123.165, 668.835 
	L 123.165, 552.189 
" />
<path d="M 128.835, 668.834 
	L 128.835, 668.835 
	L 128.835, 552.189 
" />
<path d="M 134.505, 668.834 
	L 134.504, 668.835 
	L 134.504, 552.189 
" />
<path d="M 140.174, 668.834 
	L 140.173, 668.835 
	L 140.173, 552.189 
" />
<path d="M 145.843, 668.834 
	L 145.843, 668.835 
	L 145.843, 552.189 
" />
<path d="M 151.513, 668.834 
	L 151.512, 668.835 
	L 151.512, 552.189 
" />
<path d="M 157.182, 668.834 
	L 157.181, 668.835 
	L 157.181, 552.189 
" />
<path d="M 162.851, 668.834 
	L 162.850, 668.835 
	L 162.850, 552.189 
" />
<path d="M 168.520, 668.834 
	L 168.520, 668.835 
	L 168.520, 552.189 
" />
<path d="M 4.111, 708.661 
	L 4.110, 708.662 
	L 4.110, 668.835 
" />
<path d="M 9.426, 708.661 
	L 9.425, 708.662 
	L 9.425, 668.835 
" />
<path d="M 14.741, 708.661 
	L 14.740, 708.662 
	L 14.740, 668.835 
" />
<path d="M 20.056, 708.661 
	L 20.055, 708.662 
	L 20.055, 668.835 
" />
<path d="M 25.371, 708.661 
	L 25.370, 708.662 
	L 25.370, 668.835 
" />
<path d="M 30.686, 708.661 
	L 30.685, 708.662 
	L 30.685, 668.835 
" />
<path d="M 36.001, 708.661 
	L 36.000, 708.662 
	L 36.000, 668.835 
" />
<path d="M 41.316, 708.661 
	L 41.315, 708.662 
	L 41.315, 668.835 
" />
<path d="M 46.631, 708.661 
	L 46.630, 708.662 
	L 46.630, 668.835 
" />
<path d="M 51.946, 708.661 
	L 51.945, 708.662 
	L 51.945, 668.835 
" />
<path d="M 57.261, 708.661 
	L 57.260, 708.662 
	L 57.260, 668.835 
" />
<path d="M 62.576, 708.661 
	L 62.575, 708.662 
	L 62.575, 668.835 
" />
<path d="M 67.890, 708.661 
	L 67.890, 708.662 
	L 67.890, 668.835 
" />
<path d="M 73.205, 708.661 
	L 73.205, 708.662 
	L 73.205, 668.835 
" />
<path d="M 78.520, 708.661 
	L 78.520, 708.662 
	L 78.520, 668.835 
" />
<path d="M 83.835, 708.661 
	L 83.835, 708.662 
	L 83.835, 668.835 
" />
<path d="M 89.150, 708.661 
	L 89.150, 708.662 
	L 89.150, 668.835 
" />
<path d="M 94.465, 708.661 
	L 94.465, 708.662 
	L 94.465, 668.835 
" />
<path d="M 99.780, 708.661 
	L 99.780, 708.662 
	L 99.780, 668.835 
" />
<path d="M 105.095, 708.661 
	L 105.095, 708.662 
	L 105.095, 668.835 
" />
<path d="M 110.410, 708.661 
	L 110.409, 708.662 
	L 110.409, 668.835 
" />
<path d="M 115.725, 708.661 
	L 115.724, 708.662 
	L 115.724, 668.835 
" />
<path d="M 121.040, 708.661 
	L 121.039, 708.662 
	L 121.039, 668.835 
" />
<path d="M 126.355, 708.661 
	L 126.354, 708.662 
	L 126.354, 668.835 
" />
<path d="M 131.670, 708.661 
	L 131.669, 708.662 
	L 131.669, 668.835 
" />
<path d="M 136.985, 708.661 
	L 136.984, 708.662 
	L 136.984, 668.835 
" />
<path d="M 142.300, 708.661 
	L 142.299, 708.662 
	L 142.299, 668.835 
" />
<path d="M 147.615, 708.661 
	L 147.614, 708.662 
	L 147.614, 668.835 
" />
<path d="M 152.930, 708.661 
	L 152.929, 708.662 
	L 152.929, 668.835 
" />
<path d="M 158.245, 708.661 
	L 158.244, 708.662 
	L 158.244, 668.835 
" />
<path d="M 163.560, 708.661 
	L 163.559, 708.662 
	L 163.559, 668.835 
" />
<path d="M 168.875, 708.661 
	L 168.874, 708.662 
	L 168.874, 668.835 
" />
<path d="M 0.001, 552.188 
	L 0.000, 552.189 
	L 0.000, 455.032 
" />
<path d="M 5.670, 552.188 
	L 5.669, 552.189 
	L 5.669, 455.032 
" />
<path d="M 11.339, 552.188 
	L 11.339, 552.189 
	L 11.339, 455.032 
" />
<path d="M 17.009, 552.188 
	L 17.008, 552.189 
	L 17.008, 455.032 
" />
<path d="M 22.678, 552.188 
	L 22.677, 552.189 
	L 22.677, 455.032 
" />
<path d="M 28.347, 552.188 
	L 28.346, 552.189 
	L 28.346, 455.032 
" />
<path d="M 34.016, 552.188 
	L 34.016, 552.189 
	L 34.016, 455.032 
" />
<path d="M 39.686, 552.188 
	L 39.685, 552.189 
	L 39.685, 455.032 
" />
<path d="M 0.001, 455.031 
	L 0.000, 455.032 
	L 0.000, 0.000 
" />
<path d="M 5.670, 455.031 
	L 5.669, 455.032 
	L 5.669, 0.000 
" />
<path d="M 11.339, 455.031 
	L 11.339, 455.032 
	L 11.339, 0.000 
" />
<path d="M 17.009, 455.031 
	L 17.008, 455.032 
	L 17.008, 0.000 
" />
<path d="M 22.678, 455.031 
	L 22.677, 455.032 
	L 22.677, 0.000 
" />
<path d="M 28.347, 455.031 
	L 28.346, 455.032 
	L 28.346, 0.000 
" />
<path d="M 34.016, 455.031 
	L 34.016, 455.032 
	L 34.016, 0.000 
" />
<path d="M 39.686, 455.031 
	L 39.685, 455.032 
	L 39.685, 0.000 
" />
<path d="M 48.048, 455.031 
	L 48.047, 455.032 
	L 48.047, 0.000 
" />
<path d="M 52.300, 455.031 
	L 52.299, 455.032 
	L 52.299, 0.000 
" />
<path d="M 56.552, 455.031 
	L 56.551, 455.032 
	L 56.551, 0.000 
" />
<path d="M 60.804, 455.031 
	L 60.803, 455.032 
	L 60.803, 0.000 
" />
<path d="M 65.056, 455.031 
	L 65.055, 455.032 
	L 65.055, 0.000 
" />
<path d="M 69.308, 455.031 
	L 69.307, 455.032 
	L 69.307, 0.000 
" />
<path d="M 73.560, 455.031 
	L 73.559, 455.032 
	L 73.559, 0.000 
" />
<path d="M 77.812, 455.031 
	L 77.811, 455.032 
	L 77.811, 0.000 
" />
<path d="M 82.064, 455.031 
	L 82.063, 455.032 
	L 82.063, 0.000 
" />
<path d="M 86.316, 455.031 
	L 86.315, 455.032 
	L 86.315, 0.000 
" />
<path d="M 90.568, 455.031 
	L 90.567, 455.032 
	L 90.567, 0.000 
" />
<path d="M 94.820, 455.031 
	L 94.819, 455.032 
	L 94.819, 0.000 
" />
<path d="M 99.072, 455.031 
	L 99.071, 455.032 
	L 99.071, 0.000 
" />
<path d="M 103.324, 455.031 
	L 103.323, 455.032 
	L 103.323, 0.000 
" />
<path d="M 107.576, 455.031 
	L 107.575, 455.032 
	L 107.575, 0.000 
" />
<path d="M 111.827, 455.031 
	L 111.827, 455.032 
	L 111.827, 0.000 
" />
<path d="M 116.079, 455.031 
	L 116.079, 455.032 
	L 116.079, 0.000 
" />
<path d="M 120.331, 455.031 
	L 120.331, 455.032 
	L 120.331, 0.000 
" />
<path d="M 124.583, 455.031 
	L 124.583, 455.032 
	L 124.583, 0.000 
" />
<path d="M 128.835, 455.031 
	L 128.835, 455.032 
	L 128.835, 0.000 
" />
<path d="M 133.087, 455.031 
	L 133.087, 455.032 
	L 133.087, 0.000 
" />
<path d="M 137.339, 455.031 
	L 137.339, 455.032 
	L 137.339, 0.000 
" />
<path d="M 141.591, 455.031 
	L 141.591, 455.032 
	L 141.591, 0.000 
" />
<path d="M 145.843, 455.031 
	L 145.843, 455.032 
	L 145.843, 0.000 
" />
<path d="M 150.095, 455.031 
	L 150.095, 455.032 
	L 150.095, 0.000 
" />
<path d="M 154.347, 455.031 
	L 154.346, 455.032 
	L 154.346, 0.000 
" />
<path d="M 158.599, 455.031 
	L 158.598, 455.032 
	L 158.598, 0.000 
" />
<path d="M 162.851, 455.031 
	L 162.850, 455.032 
	L 162.850, 0.000 
" />
<path d="M 167.103, 455.031 
	L 167.102, 455.032 
	L 167.102, 0.000 
" />
<path d="M 171.355, 455.031 
	L 171.354, 455.032 
	L 171.354, 0.000 
" />
<path d="M 48.048, 552.188 
	L 48.047, 552.189 
	L 48.047, 455.032 
" />
<path d="M 53.363, 552.188 
	L 53.362, 552.189 
	L 53.362, 455.032 
" />
<path d="M 58.678, 552.188 
	L 58.677, 552.189 
	L 58.677, 455.032 
" />
<path d="M 63.993, 552.188 
	L 63.992, 552.189 
	L 63.992, 455.032 
" />
<path d="M 69.308, 552.188 
	L 69.307, 552.189 
	L 69.307, 455.032 
" />
<path d="M 74.623, 552.188 
	L 74.622, 552.189 
	L 74.622, 455.032 
" />
<path d="M 79.938, 552.188 
	L 79.937, 552.189 
	L 79.937, 455.032 
" />
<path d="M 85.253, 552.188 
	L 85.252, 552.189 
	L 85.252, 455.032 
" />
<path d="M 90.568, 552.188 
	L 90.567, 552.189 
	L 90.567, 455.032 
" />
<path d="M 95.883, 552.188 
	L 95.882, 552.189 
	L 95.882, 455.032 
" />
<path d="M 101.198, 552.188 
	L 101.197, 552.189 
	L 101.197, 455.032 
" />
<path d="M 106.513, 552.188 
	L 106.512, 552.189 
	L 106.512, 455.032 
" />
<path d="M 111.827, 552.188 
	L 111.827, 552.189 
	L 111.827, 455.032 
" />
<path d="M 117.142, 552.188 
	L 117.142, 552.189 
	L 117.142, 455.032 
" />
<path d="M 122.457, 552.188 
	L 122.457, 552.189 
	L 122.457, 455.032 
" />
<path d="M 127.772, 552.188 
	L 127.772, 552.189 
	L 127.772, 455.032 
" />
<path d="M 133.087, 552.188 
	L 133.087, 552.189 
	L 133.087, 455.032 
" />
<path d="M 138.402, 552.188 
	L 138.402, 552.189 
	L 138.402, 455.032 
" />
<path d="M 143.717, 552.188 
	L 143.717, 552.189 
	L 143.717, 455.032 
" />
<path d="M 149.032, 552.188 
	L 149.032, 552.189 
	L 149.032, 455.032 
" />
<path d="M 154.347, 552.188 
	L 154.346, 552.189 
	L 154.346, 455.032 
" />
<path d="M 159.662, 552.188 
	L 159.661, 552.189 
	L 159.661, 455.032 
" />
<path d="M 164.977, 552.188 
	L 164.976, 552.189 
	L 164.976, 455.032 
" />
<path d="M 170.292, 552.188 
	L 170.291, 552.189 
	L 170.291, 455.032 
" />
<path d="M 178.867, 552.188 
	L 178.866, 552.189 
	L 178.866, 497.055 
" />
<path d="M 183.119, 552.188 
	L 183.118, 552.189 
	L 183.118, 497.055 
" />
<path d="M 187.371, 552.188 
	L 187.370, 552.189 
	L 187.370, 497.055 
" />
<path d="M 191.623, 552.188 
	L 191.622, 552.189 
	L 191.622, 497.055 
" />
<path d="M 195.875, 552.188 
	L 195.874, 552.189 
	L 195.874, 497.055 
" />
<path d="M 200.127, 552.188 
	L 200.126, 552.189 
	L 200.126, 497.055 
" />
<path d="M 204.379, 552.188 
	L 204.378, 552.189 
	L 204.378, 497.055 
" />
<path d="M 208.631, 552.188 
	L 208.630, 552.189 
	L 208.630, 497.055 
" />
<path d="M 212.883, 552.188 
	L 212.882, 552.189 
	L 212.882, 497.055 
" />
<path d="M 217.135, 552.188 
	L 217.134, 552.189 
	L 217.134, 497.055 
" />
<path d="M 221.387, 552.188 
	L 221.386, 552.189 
	L 221.386, 497.055 
" />
<path d="M 225.639, 552.188 
	L 225.638, 552.189 
	L 225.638, 497.055 
" />
<path d="M 178.867, 497.055 
	L 178.866, 497.055 
	L 178.866, 0.000 
" />
<path d="M 183.473, 497.055 
	L 183.472, 497.055 
	L 183.472, 0.000 
" />
<path d="M 188.079, 497.055 
	L 188.079, 497.055 
	L 188.079, 0.000 
" />
<path d="M 192.686, 497.055 
	L 192.685, 497.055 
	L 192.685, 0.000 
" />
<path d="M 197.292, 497.055 
	L 197.291, 497.055 
	L 197.291, 0.000 
" />
<path d="M 201.898, 497.055 
	L 201.898, 497.055 
	L 201.898, 0.000 
" />
<path d="M 206.505, 497.055 
	L 206.504, 497.055 
	L 206.504, 0.000 
" />
<path d="M 211.111, 497.055 
	L 211.110, 497.055 
	L 211.110, 0.000 
" />
<path d="M 215.717, 497.055 
	L 215.717, 497.055 
	L 215.717, 0.000 
" />
<path d="M 220.324, 497.055 
	L 220.323, 497.055 
	L 220.323, 0.000 
" />
<path d="M 224.930, 497.055 
	L 224.929, 497.055 
	L 224.929, 0.000 
" />
<path d="M 231.095, 497.055 
	L 231.095, 497.055 
	L 231.095, 0.000 
" />
<path d="M 236.410, 497.055 
	L 236.409, 497.055 
	L 236.409, 0.000 
" />
<path d="M 241.725, 497.055 
	L 241.724, 497.055 
	L 241.724, 0.000 
" />
<path d="M 247.040, 497.055 
	L 247.039, 497.055 
	L 247.039, 0.000 
" />
<path d="M 252.355, 497.055 
	L 252.354, 497.055 
	L 252.354, 0.000 
" />
<path d="M 257.670, 497.055 
	L 257.669, 497.055 
	L 257.669, 0.000 
" />
<path d="M 262.985, 497.055 
	L 262.984, 497.055 
	L 262.984, 0.000 
" />
<path d="M 268.300, 497.055 
	L 268.299, 497.055 
	L 268.299, 0.000 
" />
<path d="M 273.615, 497.055 
	L 273.614, 497.055 
	L 273.614, 0.000 
" />
<path d="M 278.930, 497.055 
	L 278.929, 497.055 
	L 278.929, 0.000 
" />
<path d="M 284.245, 497.055 
	L 284.244, 497.055 
	L 284.244, 0.000 
" />
<path d="M 289.560, 497.055 
	L 289.559, 497.055 
	L 289.559, 0.000 
" />
<path d="M 294.875, 497.055 
	L 294.874, 497.055 
	L 294.874, 0.000 
" />
<path d="M 300.190, 497.055 
	L 300.189, 497.055 
	L 300.189, 0.000 
" />
<path d="M 305.505, 497.055 
	L 305.504, 497.055 
	L 305.504, 0.000 
" />
<path d="M 310.820, 497.055 
	L 310.819, 497.055 
	L 310.819, 0.000 
" />
<path d="M 316.135, 497.055 
	L 316.134, 497.055 
	L 316.134, 0.000 
" />
<path d="M 321.450, 497.055 
	L 321.449, 497.055 
	L 321.449, 0.000 
" />
<path d="M 326.765, 497.055 
	L 326.764, 497.055 
	L 326.764, 0.000 
" />
<path d="M 332.079, 497.055 
	L 332.079, 497.055 
	L 332.079, 0.000 
" />
<path d="M 337.394, 497.055 
	L 337.394, 497.055 
	L 337.394, 0.000 
" />
<path d="M 342.709, 497.055 
	L 342.709, 497.055 
	L 342.709, 0.000 
" />
<path d="M 348.024, 497.055 
	L 348.024, 497.055 
	L 348.024, 0.000 
" />
<path d="M 353.339, 497.055 
	L 353.339, 497.055 
	L 353.339, 0.000 
" />
<path d="M 358.654, 497.055 
	L 358.654, 497.055 
	L 358.654, 0.000 
" />
<path d="M 363.969, 497.055 
	L 363.969, 497.055 
	L 363.969, 0.000 
" />
<path d="M 369.284, 497.055 
	L 369.284, 497.055 
	L 369.284, 0.000 
" />
<path d="M 374.599, 497.055 
	L 374.598, 497.055 
	L 374.598, 0.000 
" />
<path d="M 379.914, 497.055 
	L 379.913, 497.055 
	L 379.913, 0.000 
" />
<path d="M 385.229, 497.055 
	L 385.228, 497.055 
	L 385.228, 0.000 
" />
<path d="M 390.544, 497.055 
	L 390.543, 497.055 
	L 390.543, 0.000 
" />
<path d="M 395.859, 497.055 
	L 395.858, 497.055 
	L 395.858, 0.000 
" />
<path d="M 401.174, 497.055 
	L 401.173, 497.055 
	L 401.173, 0.000 
" />
<path d="M 406.489, 497.055 
	L 406.488, 497.055 
	L 406.488, 0.000 
" />
<path d="M 411.804, 497.055 
	L 411.803, 497.055 
	L 411.803, 0.000 
" />
<path d="M 417.119, 497.055 
	L 417.118, 497.055 
	L 417.118, 0.000 
" />
<path d="M 422.434, 497.055 
	L 422.433, 497.055 
	L 422.433, 0.000 
" />
<path d="M 427.749, 497.055 
	L 427.748, 497.055 
	L 427.748, 0.000 
" />
<path d="M 433.064, 497.055 
	L 433.063, 497.055 
	L 433.063, 0.000 
" />
<path d="M 438.379, 497.055 
	L 438.378, 497.055 
	L 438.378, 0.000 
" />
<path d="M 443.694, 497.055 
	L 443.693, 497.055 
	L 443.693, 0.000 
" />
<path d="M 449.009, 497.055 
	L 449.008, 497.055 
	L 449.008, 0.000 
" />
<path d="M 454.324, 497.055 
	L 454.323, 497.055 
	L 454.323, 0.000 
" />
<path d="M 459.639, 497.055 
	L 459.638, 497.055 
	L 459.638, 0.000 
" />
<path d="M 464.954, 497.055 
	L 464.953, 497.055 
	L 464.953, 0.000 
" />
<path d="M 470.268, 497.055 
	L 470.268, 497.055 
	L 470.268, 0.000 
" />
<path d="M 475.583, 497.055 
	L 475.583, 497.055 
	L 475.583, 0.000 
" />
<path d="M 480.898, 497.055 
	L 480.898, 497.055 
	L 480.898, 0.000 
" />
<path d="M 486.213, 497.055 
	L 486.213, 497.055 
	L 486.213, 0.000 
" />
<path d="M 491.528, 497.055 
	L 491.528, 497.055 
	L 491.528, 0.000 
" />
<path d="M 496.843, 497.055 
	L 496.843, 497.055 
	L 496.843, 0.000 
" />
<path d="M 502.158, 497.055 
	L 502.158, 497.055 
	L 502.158, 0.000 
" />
<path d="M 507.473, 497.055 
	L 507.473, 497.055 
	L 507.473, 0.000 
" />
<path d="M 512.788, 497.055 
	L 512.787, 497.055 
	L 512.787, 0.000 
" />
<path d="M 518.103, 497.055 
	L 518.102, 497.055 
	L 518.102, 0.000 
" />
<path d="M 523.418, 497.055 
	L 523.417, 497.055 
	L 523.417, 0.000 
" />
<path d="M 528.733, 497.055 
	L 528.732, 497.055 
	L 528.732, 0.000 
" />
<path d="M 534.048, 497.055 
	L 534.047, 497.055 
	L 534.047, 0.000 
" />
<path d="M 539.363, 497.055 
	L 539.362, 497.055 
	L 539.362, 0.000 
" />
<path d="M 544.678, 497.055 
	L 544.677, 497.055 
	L 544.677, 0.000 
" />
<path d="M 549.993, 497.055 
	L 549.992, 497.055 
	L 549.992, 0.000 
" />
<path d="M 555.308, 497.055 
	L 555.307, 497.055 
	L 555.307, 0.000 
" />
<path d="M 560.623, 497.055 
	L 560.622, 497.055 
	L 560.622, 0.000 
" />
<path d="M 565.938, 497.055 
	L 565.937, 497.055 
	L 565.937, 0.000 
" />
<path d="M 571.253, 497.055 
	L 571.252, 497.055 
	L 571.252, 0.000 
" />
<path d="M 576.568, 497.055 
	L 576.567, 497.055 
	L 576.567, 0.000 
" />
<path d="M 581.883, 497.055 
	L 581.882, 497.055 
	L 581.882, 0.000 
" />
<path d="M 587.198, 497.055 
	L 587.197, 497.055 
	L 587.197, 0.000 
" />
<path d="M 592.513, 497.055 
	L 592.512, 497.055 
	L 592.512, 0.000 
" />
<path d="M 597.828, 497.055 
	L 597.827, 497.055 
	L 597.827, 0.000 
" />
<path d="M 603.143, 497.055 
	L 603.142, 497.055 
	L 603.142, 0.000 
" />
<path d="M 608.457, 497.055 
	L 608.457, 497.055 
	L 608.457, 0.000 
" />
<path d="M 613.772, 497.055 
	L 613.772, 497.055 
	L 613.772, 0.000 
" />
<path d="M 619.087, 497.055 
	L 619.087, 497.055 
	L 619.087, 0.000 
" />
<path d="M 624.402, 497.055 
	L 624.402, 497.055 
	L 624.402, 0.000 
" />
<path d="M 629.717, 497.055 
	L 629.717, 497.055 
	L 629.717, 0.000 
" />
<path d="M 635.032, 497.055 
	L 635.032, 497.055 
	L 635.032, 0.000 
" />
<path d="M 640.347, 497.055 
	L 640.347, 497.055 
	L 640.347, 0.000 
" />
<path d="M 645.662, 497.055 
	L 645.662, 497.055 
	L 645.662, 0.000 
" />
<path d="M 650.977, 497.055 
	L 650.976, 497.055 
	L 650.976, 0.000 
" />
<path d="M 656.292, 497.055 
	L 656.291, 497.055 
	L 656.291, 0.000 
" />
<path d="M 661.607, 497.055 
	L 661.606, 497.055 
	L 661.606, 0.000 
" />
<path d="M 666.922, 497.055 
	L 666.921, 497.055 
	L 666.921, 0.000 
" />
<path d="M 672.237, 497.055 
	L 672.236, 497.055 
	L 672.236, 0.000 
" />
<path d="M 677.552, 497.055 
	L 677.551, 497.055 
	L 677.551, 0.000 
" />
<path d="M 682.867, 497.055 
	L 682.866, 497.055 
	L 682.866, 0.000 
" />
<path d="M 688.182, 497.055 
	L 688.181, 497.055 
	L 688.181, 0.000 
" />
<path d="M 693.497, 497.055 
	L 693.496, 497.055 
	L 693.496, 0.000 
" />
<path d="M 698.812, 497.055 
	L 698.811, 497.055 
	L 698.811, 0.000 
" />
<path d="M 231.095, 552.188 
	L 231.095, 552.189 
	L 231.095, 497.055 
" />
<path d="M 235.631, 552.188 
	L 235.630, 552.189 
	L 235.630, 497.055 
" />
<path d="M 240.166, 552.188 
	L 240.165, 552.189 
	L 240.165, 497.055 
" />
<path d="M 244.702, 552.188 
	L 244.701, 552.189 
	L 244.701, 497.055 
" />
<path d="M 249.237, 552.188 
	L 249.236, 552.189 
	L 249.236, 497.055 
" />
<path d="M 253.772, 552.188 
	L 253.772, 552.189 
	L 253.772, 497.055 
" />
<path d="M 258.308, 552.188 
	L 258.307, 552.189 
	L 258.307, 497.055 
" />
<path d="M 262.843, 552.188 
	L 262.843, 552.189 
	L 262.843, 497.055 
" />
<path d="M 267.379, 552.188 
	L 267.378, 552.189 
	L 267.378, 497.055 
" />
<path d="M 271.914, 552.188 
	L 271.913, 552.189 
	L 271.913, 497.055 
" />
<path d="M 276.450, 552.188 
	L 276.449, 552.189 
	L 276.449, 497.055 
" />
<path d="M 280.985, 552.188 
	L 280.984, 552.189 
	L 280.984, 497.055 
" />
<path d="M 285.520, 552.188 
	L 285.520, 552.189 
	L 285.520, 497.055 
" />
<path d="M 290.056, 552.188 
	L 290.055, 552.189 
	L 290.055, 497.055 
" />
<path d="M 294.591, 552.188 
	L 294.591, 552.189 
	L 294.591, 497.055 
" />
<path d="M 299.127, 552.188 
	L 299.126, 552.189 
	L 299.126, 497.055 
" />
<path d="M 303.662, 552.188 
	L 303.661, 552.189 
	L 303.661, 497.055 
" />
<path d="M 308.198, 552.188 
	L 308.197, 552.189 
	L 308.197, 497.055 
" />
<path d="M 312.733, 552.188 
	L 312.732, 552.189 
	L 312.732, 497.055 
" />
<path d="M 317.268, 552.188 
	L 317.268, 552.189 
	L 317.268, 497.055 
" />
<path d="M 321.804, 552.188 
	L 321.803, 552.189 
	L 321.803, 497.055 
" />
<path d="M 326.339, 552.188 
	L 326.339, 552.189 
	L 326.339, 497.055 
" />
<path d="M 330.875, 552.188 
	L 330.874, 552.189 
	L 330.874, 497.055 
" />
<path d="M 335.410, 552.188 
	L 335.410, 552.189 
	L 335.410, 497.055 
" />
<path d="M 339.946, 552.188 
	L 339.945, 552.189 
	L 339.945, 497.055 
" />
<path d="M 344.481, 552.188 
	L 344.480, 552.189 
	L 344.480, 497.055 
" />
<path d="M 349.016, 552.188 
	L 349.016, 552.189 
	L 349.016, 497.055 
" />
<path d="M 353.552, 552.188 
	L 353.551, 552.189 
	L 353.551, 497.055 
" />
<path d="M 358.087, 552.188 
	L 358.087, 552.189 
	L 358.087, 497.055 
" />
<path d="M 362.623, 552.188 
	L 362.622, 552.189 
	L 362.622, 497.055 
" />
<path d="M 367.158, 552.188 
	L 367.158, 552.189 
	L 367.158, 497.055 
" />
<path d="M 371.694, 552.188 
	L 371.693, 552.189 
	L 371.693, 497.055 
" />
<path d="M 376.229, 552.188 
	L 376.228, 552.189 
	L 376.228, 497.055 
" />
<path d="M 380.765, 552.188 
	L 380.764, 552.189 
	L 380.764, 497.055 
" />
<path d="M 385.300, 552.188 
	L 385.299, 552.189 
	L 385.299, 497.055 
" />
<path d="M 389.835, 552.188 
	L 389.835, 552.189 
	L 389.835, 497.055 
" />
<path d="M 394.371, 552.188 
	L 394.370, 552.189 
	L 394.370, 497.055 
" />
<path d="M 398.906, 552.188 
	L 398.906, 552.189 
	L 398.906, 497.055 
" />
<path d="M 403.442, 552.188 
	L 403.441, 552.189 
	L 403.441, 497.055 
" />
<path d="M 407.977, 552.188 
	L 407.976, 552.189 
	L 407.976, 497.055 
" />
<path d="M 412.513, 552.188 
	L 412.512, 552.189 
	L 412.512, 497.055 
" />
<path d="M 417.048, 552.188 
	L 417.047, 552.189 
	L 417.047, 497.055 
" />
<path d="M 421.583, 552.188 
	L 421.583, 552.189 
	L 421.583, 497.055 
" />
<path d="M 426.119, 552.188 
	L 426.118, 552.189 
	L 426.118, 497.055 
" />
<path d="M 430.654, 552.188 
	L 430.654, 552.189 
	L 430.654, 497.055 
" />
<path d="M 435.190, 552.188 
	L 435.189, 552.189 
	L 435.189, 497.055 
" />
<path d="M 439.725, 552.188 
	L 439.724, 552.189 
	L 439.724, 497.055 
" />
<path d="M 444.261, 552.188 
	L 444.260, 552.189 
	L 444.260, 497.055 
" />
<path d="M 448.796, 552.188 
	L 448.795, 552.189 
	L 448.795, 497.055 
" />
<path d="M 453.331, 552.188 
	L 453.331, 552.189 
	L 453.331, 497.055 
" />
<path d="M 457.867, 552.188 
	L 457.866, 552.189 
	L 457.866, 497.055 
" />
<path d="M 462.402, 552.188 
	L 462.402, 552.189 
	L 462.402, 497.055 
" />
<path d="M 466.938, 552.188 
	L 466.937, 552.189 
	L 466.937, 497.055 
" />
<path d="M 471.473, 552.188 
	L 471.473, 552.189 
	L 471.473, 497.055 
" />
<path d="M 476.009, 552.188 
	L 476.008, 552.189 
	L 476.008, 497.055 
" />
<path d="M 480.544, 552.188 
	L 480.543, 552.189 
	L 480.543, 497.055 
" />
<path d="M 485.080, 552.188 
	L 485.079, 552.189 
	L 485.079, 497.055 
" />
<path d="M 489.615, 552.188 
	L 489.614, 552.189 
	L 489.614, 497.055 
" />
<path d="M 494.150, 552.188 
	L 494.150, 552.189 
	L 494.150, 497.055 
" />
<path d="M 498.686, 552.188 
	L 498.685, 552.189 
	L 498.685, 497.055 
" />
<path d="M 503.221, 552.188 
	L 503.221, 552.189 
	L 503.221, 497.055 
" />
<path d="M 507.757, 552.188 
	L 507.756, 552.189 
	L 507.756, 497.055 
" />
<path d="M 512.292, 552.188 
	L 512.291, 552.189 
	L 512.291, 497.055 
" />
<path d="M 516.828, 552.188 
	L 516.827, 552.189 
	L 516.827, 497.055 
" />
<path d="M 521.363, 552.188 
	L 521.362, 552.189 
	L 521.362, 497.055 
" />
<path d="M 525.898, 552.188 
	L 525.898, 552.189 
	L 525.898, 497.055 
" />
<path d="M 530.434, 552.188 
	L 530.433, 552.189 
	L 530.433, 497.055 
" />
<path d="M 534.969, 552.188 
	L 534.969, 552.189 
	L 534.969, 497.055 
" />
<path d="M 539.505, 552.188 
	L 539.504, 552.189 
	L 539.504, 497.055 
" />
<path d="M 544.040, 552.188 
	L 544.039, 552.189 
	L 544.039, 497.055 
" />
<path d="M 548.576, 552.188 
	L 548.575, 552.189 
	L 548.575, 497.055 
" />
<path d="M 553.111, 552.188 
	L 553.110, 552.189 
	L 553.110, 497.055 
" />
<path d="M 557.646, 552.188 
	L 557.646, 552.189 
	L 557.646, 497.055 
" />
<path d="M 562.182, 552.188 
	L 562.181, 552.189 
	L 562.181, 497.055 
" />
<path d="M 566.717, 552.188 
	L 566.717, 552.189 
	L 566.717, 497.055 
" />
<path d="M 571.253, 552.188 
	L 571.252, 552.189 
	L 571.252, 497.055 
" />
<path d="M 575.788, 552.188 
	L 575.787, 552.189 
	L 575.787, 497.055 
" />
<path d="M 580.324, 552.188 
	L 580.323, 552.189 
	L 580.323, 497.055 
" />
<path d="M 584.859, 552.188 
	L 584.858, 552.189 
	L 584.858, 497.055 
" />
<path d="M 589.394, 552.188 
	L 589.394, 552.189 
	L 589.394, 497.055 
" />
<path d="M 593.930, 552.188 
	L 593.929, 552.189 
	L 593.929, 497.055 
" />
<path d="M 598.465, 552.188 
	L 598.465, 552.189 
	L 598.465, 497.055 
" />
<path d="M 603.001, 552.188 
	L 603.000, 552.189 
	L 603.000, 497.055 
" />
<path d="M 607.536, 552.188 
	L 607.536, 552.189 
	L 607.536, 497.055 
" />
<path d="M 612.072, 552.188 
	L 612.071, 552.189 
	L 612.071, 497.055 
" />
<path d="M 616.607, 552.188 
	L 616.606, 552.189 
	L 616.606, 497.055 
" />
<path d="M 621.143, 552.188 
	L 621.142, 552.189 
	L 621.142, 497.055 
" />
<path d="M 625.678, 552.188 
	L 625.677, 552.189 
	L 625.677, 497.055 
" />
<path d="M 630.213, 552.188 
	L 630.213, 552.189 
	L 630.213, 497.055 
" />
<path d="M 634.749, 552.188 
	L 634.748, 552.189 
	L 634.748, 497.055 
" />
<path d="M 639.284, 552.188 
	L 639.284, 552.189 
	L 639.284, 497.055 
" />
<path d="M 643.820, 552.188 
	L 643.819, 552.189 
	L 643.819, 497.055 
" />
<path d="M 648.355, 552.188 
	L 648.354, 552.189 
	L 648.354, 497.055 
" />
<path d="M 652.891, 552.188 
	L 652.890, 552.189 
	L 652.890, 497.055 
" />
<path d="M 657.426, 552.188 
	L 657.425, 552.189 
	L 657.425, 497.055 
" />
<path d="M 661.961, 552.188 
	L 661.961, 552.189 
	L 661.961, 497.055 
" />
<path d="M 666.497, 552.188 
	L 666.496, 552.189 
	L 666.496, 497.055 
" />
<path d="M 671.032, 552.188 
	L 671.032, 552.189 
	L 671.032, 497.055 
" />
<path d="M 675.568, 552.188 
	L 675.567, 552.189 
	L 675.567, 497.055 
" />
<path d="M 680.103, 552.188 
	L 680.102, 552.189 
	L 680.102, 497.055 
" />
<path d="M 684.639, 552.188 
	L 684.638, 552.189 
	L 684.638, 497.055 
" />
<path d="M 689.174, 552.188 
	L 689.173, 552.189 
	L 689.173, 497.055 
" />
<path d="M 693.709, 552.188 
	L 693.709, 552.189 
	L 693.709, 497.055 
" />
<path d="M 698.245, 552.188 
	L 698.244, 552.189 
	L 698.244, 497.055 
" />
<path d="M 702.780, 552.188 
	L 702.780, 552.189 
	L 702.780, 497.055 
" />
<path d="M 178.867, 708.661 
	L 178.866, 708.662 
	L 178.866, 644.244 
" />
<path d="M 184.182, 708.661 
	L 184.181, 708.662 
	L 184.181, 644.244 
" />
<path d="M 189.497, 708.661 
	L 189.496, 708.662 
	L 189.496, 644.244 
" />
<path d="M 194.812, 708.661 
	L 194.811, 708.662 
	L 194.811, 644.244 
" />
<path d="M 200.127, 708.661 
	L 200.126, 708.662 
	L 200.126, 644.244 
" />
<path d="M 205.442, 708.661 
	L 205.441, 708.662 
	L 205.441, 644.244 
" />
<path d="M 210.757, 708.661 
	L 210.756, 708.662 
	L 210.756, 644.244 
" />
<path d="M 216.072, 708.661 
	L 216.071, 708.662 
	L 216.071, 644.244 
" />
<path d="M 221.387, 708.661 
	L 221.386, 708.662 
	L 221.386, 644.244 
" />
<path d="M 178.867, 644.244 
	L 178.866, 644.244 
	L 178.866, 552.189 
" />
<path d="M 183.119, 644.244 
	L 183.118, 644.244 
	L 183.118, 552.189 
" />
<path d="M 187.371, 644.244 
	L 187.370, 644.244 
	L 187.370, 552.189 
" />
<path d="M 191.623, 644.244 
	L 191.622, 644.244 
	L 191.622, 552.189 
" />
<path d="M 195.875, 644.244 
	L 195.874, 644.244 
	L 195.874, 552.189 
" />
<path d="M 200.127, 644.244 
	L 200.126, 644.244 
	L 200.126, 552.189 
" />
<path d="M 204.379, 644.244 
	L 204.378, 644.244 
	L 204.378, 552.189 
" />
<path d="M 208.631, 644.244 
	L 208.630, 644.244 
	L 208.630, 552.189 
" />
<path d="M 212.883, 644.244 
	L 212.882, 644.244 
	L 212.882, 552.189 
" />
<path d="M 217.135, 644.244 
	L 217.134, 644.244 
	L 217.134, 552.189 
" />
<path d="M 221.387, 644.244 
	L 221.386, 644.244 
	L 221.386, 552.189 
" />
<path d="M 228.402, 644.244 
	L 228.402, 644.244 
	L 228.402, 552.189 
" />
<path d="M 232.654, 644.244 
	L 232.654, 644.244 
	L 232.654, 552.189 
" />
<path d="M 236.906, 644.244 
	L 236.906, 644.244 
	L 236.906, 552.189 
" />
<path d="M 241.158, 644.244 
	L 241.158, 644.244 
	L 241.158, 552.189 
" />
<path d="M 245.410, 644.244 
	L 245.409, 644.244 
	L 245.409, 552.189 
" />
<path d="M 249.662, 644.244 
	L 249.661, 644.244 
	L 249.661, 552.189 
" />
<path d="M 253.914, 644.244 
	L 253.913, 644.244 
	L 253.913, 552.189 
" />
<path d="M 258.166, 644.244 
	L 258.165, 644.244 
	L 258.165, 552.189 
" />
<path d="M 262.418, 644.244 
	L 262.417, 644.244 
	L 262.417, 552.189 
" />
<path d="M 266.670, 644.244 
	L 266.669, 644.244 
	L 266.669, 552.189 
" />
<path d="M 270.922, 644.244 
	L 270.921, 644.244 
	L 270.921, 552.189 
" />
<path d="M 275.174, 644.244 
	L 275.173, 644.244 
	L 275.173, 552.189 
" />
<path d="M 279.426, 644.244 
	L 279.425, 644.244 
	L 279.425, 552.189 
" />
<path d="M 283.678, 644.244 
	L 283.677, 644.244 
	L 283.677, 552.189 
" />
<path d="M 287.930, 644.244 
	L 287.929, 644.244 
	L 287.929, 552.189 
" />
<path d="M 292.182, 644.244 
	L 292.181, 644.244 
	L 292.181, 552.189 
" />
<path d="M 296.434, 644.244 
	L 296.433, 644.244 
	L 296.433, 552.189 
" />
<path d="M 300.686, 644.244 
	L 300.685, 644.244 
	L 300.685, 552.189 
" />
<path d="M 304.938, 644.244 
	L 304.937, 644.244 
	L 304.937, 552.189 
" />
<path d="M 309.190, 644.244 
	L 309.189, 644.244 
	L 309.189, 552.189 
" />
<path d="M 313.442, 644.244 
	L 313.441, 644.244 
	L 313.441, 552.189 
" />
<path d="M 317.694, 644.244 
	L 317.693, 644.244 
	L 317.693, 552.189 
" />
<path d="M 321.946, 644.244 
	L 321.945, 644.244 
	L 321.945, 552.189 
" />
<path d="M 326.198, 644.244 
	L 326.197, 644.244 
	L 326.197, 552.189 
" />
<path d="M 330.450, 644.244 
	L 330.449, 644.244 
	L 330.449, 552.189 
" />
<path d="M 334.702, 644.244 
	L 334.701, 644.244 
	L 334.701, 552.189 
" />
<path d="M 338.954, 644.244 
	L 338.953, 644.244 
	L 338.953, 552.189 
" />
<path d="M 343.205, 644.244 
	L 343.205, 644.244 
	L 343.205, 552.189 
" />
<path d="M 347.457, 644.244 
	L 347.457, 644.244 
	L 347.457, 552.189 
" />
<path d="M 351.709, 644.244 
	L 351.709, 644.244 
	L 351.709, 552.189 
" />
<path d="M 355.961, 644.244 
	L 355.961, 644.244 
	L 355.961, 552.189 
" />
<path d="M 360.213, 644.244 
	L 360.213, 644.244 
	L 360.213, 552.189 
" />
<path d="M 364.465, 644.244 
	L 364.465, 644.244 
	L 364.465, 552.189 
" />
<path d="M 368.717, 644.244 
	L 368.717, 644.244 
	L 368.717, 552.189 
" />
<path d="M 372.969, 644.244 
	L 372.969, 644.244 
	L 372.969, 552.189 
" />
<path d="M 377.221, 644.244 
	L 377.221, 644.244 
	L 377.221, 552.189 
" />
<path d="M 381.473, 644.244 
	L 381.472, 644.244 
	L 381.472, 552.189 
" />
<path d="M 385.725, 644.244 
	L 385.724, 644.244 
	L 385.724, 552.189 
" />
<path d="M 389.977, 644.244 
	L 389.976, 644.244 
	L 389.976, 552.189 
" />
<path d="M 394.229, 644.244 
	L 394.228, 644.244 
	L 394.228, 552.189 
" />
<path d="M 398.481, 644.244 
	L 398.480, 644.244 
	L 398.480, 552.189 
" />
<path d="M 402.733, 644.244 
	L 402.732, 644.244 
	L 402.732, 552.189 
" />
<path d="M 406.985, 644.244 
	L 406.984, 644.244 
	L 406.984, 552.189 
" />
<path d="M 411.237, 644.244 
	L 411.236, 644.244 
	L 411.236, 552.189 
" />
<path d="M 415.489, 644.244 
	L 415.488, 644.244 
	L 415.488, 552.189 
" />
<path d="M 419.741, 644.244 
	L 419.740, 644.244 
	L 419.740, 552.189 
" />
<path d="M 423.993, 644.244 
	L 423.992, 644.244 
	L 423.992, 552.189 
" />
<path d="M 428.245, 644.244 
	L 428.244, 644.244 
	L 428.244, 552.189 
" />
<path d="M 432.497, 644.244 
	L 432.496, 644.244 
	L 432.496, 552.189 
" />
<path d="M 436.749, 644.244 
	L 436.748, 644.244 
	L 436.748, 552.189 
" />
<path d="M 441.001, 644.244 
	L 441.000, 644.244 
	L 441.000, 552.189 
" />
<path d="M 445.253, 644.244 
	L 445.252, 644.244 
	L 445.252, 552.189 
" />
<path d="M 449.505, 644.244 
	L 449.504, 644.244 
	L 449.504, 552.189 
" />
<path d="M 453.757, 644.244 
	L 453.756, 644.244 
	L 453.756, 552.189 
" />
<path d="M 458.009, 644.244 
	L 458.008, 644.244 
	L 458.008, 552.189 
" />
<path d="M 462.261, 644.244 
	L 462.260, 644.244 
	L 462.260, 552.189 
" />
<path d="M 466.513, 644.244 
	L 466.512, 644.244 
	L 466.512, 552.189 
" />
<path d="M 470.765, 644.244 
	L 470.764, 644.244 
	L 470.764, 552.189 
" />
<path d="M 475.017, 644.244 
	L 475.016, 644.244 
	L 475.016, 552.189 
" />
<path d="M 479.268, 644.244 
	L 479.268, 644.244 
	L 479.268, 552.189 
" />
<path d="M 483.520, 644.244 
	L 483.520, 644.244 
	L 483.520, 552.189 
" />
<path d="M 487.772, 644.244 
	L 487.772, 644.244 
	L 487.772, 552.189 
" />
<path d="M 492.024, 644.244 
	L 492.024, 644.244 
	L 492.024, 552.189 
" />
<path d="M 496.276, 644.244 
	L 496.276, 644.244 
	L 496.276, 552.189 
" />
<path d="M 500.528, 644.244 
	L 500.528, 644.244 
	L 500.528, 552.189 
" />
<path d="M 504.780, 644.244 
	L 504.780, 644.244 
	L 504.780, 552.189 
" />
<path d="M 509.032, 644.244 
	L 509.032, 644.244 
	L 509.032, 552.189 
" />
<path d="M 513.284, 644.244 
	L 513.284, 644.244 
	L 513.284, 552.189 
" />
<path d="M 517.536, 644.244 
	L 517.536, 644.244 
	L 517.536, 552.189 
" />
<path d="M 521.788, 644.244 
	L 521.787, 644.244 
	L 521.787, 552.189 
" />
<path d="M 526.040, 644.244 
	L 526.039, 644.244 
	L 526.039, 552.189 
" />
<path d="M 530.292, 644.244 
	L 530.291, 644.244 
	L 530.291, 552.189 
" />
<path d="M 534.544, 644.244 
	L 534.543, 644.244 
	L 534.543, 552.189 
" />
<path d="M 538.796, 644.244 
	L 538.795, 644.244 
	L 538.795, 552.189 
" />
<path d="M 543.048, 644.244 
	L 543.047, 644.244 
	L 543.047, 552.189 
" />
<path d="M 547.300, 644.244 
	L 547.299, 644.244 
	L 547.299, 552.189 
" />
<path d="M 551.552, 644.244 
	L 551.551, 644.244 
	L 551.551, 552.189 
" />
<path d="M 555.804, 644.244 
	L 555.803, 644.244 
	L 555.803, 552.189 
" />
<path d="M 560.056, 644.244 
	L 560.055, 644.244 
	L 560.055, 552.189 
" />
<path d="M 564.308, 644.244 
	L 564.307, 644.244 
	L 564.307, 552.189 
" />
<path d="M 568.560, 644.244 
	L 568.559, 644.244 
	L 568.559, 552.189 
" />
<path d="M 572.812, 644.244 
	L 572.811, 644.244 
	L 572.811, 552.189 
" />
<path d="M 577.064, 644.244 
	L 577.063, 644.244 
	L 577.063, 552.189 
" />
<path d="M 581.316, 644.244 
	L 581.315, 644.244 
	L 581.315, 552.189 
" />
<path d="M 585.568, 644.244 
	L 585.567, 644.244 
	L 585.567, 552.189 
" />
<path d="M 589.820, 644.244 
	L 589.819, 644.244 
	L 589.819, 552.189 
" />
<path d="M 594.072, 644.244 
	L 594.071, 644.244 
	L 594.071, 552.189 
" />
<path d="M 598.324, 644.244 
	L 598.323, 644.244 
	L 598.323, 552.189 
" />
<path d="M 602.576, 644.244 
	L 602.575, 644.244 
	L 602.575, 552.189 
" />
<path d="M 606.828, 644.244 
	L 606.827, 644.244 
	L 606.827, 552.189 
" />
<path d="M 611.080, 644.244 
	L 611.079, 644.244 
	L 611.079, 552.189 
" />
<path d="M 615.331, 644.244 
	L 615.331, 644.244 
	L 615.331, 552.189 
" />
<path d="M 619.583, 644.244 
	L 619.583, 644.244 
	L 619.583, 552.189 
" />
<path d="M 623.835, 644.244 
	L 623.835, 644.244 
	L 623.835, 552.189 
" />
<path d="M 628.087, 644.244 
	L 628.087, 644.244 
	L 628.087, 552.189 
" />
<path d="M 632.339, 644.244 
	L 632.339, 644.244 
	L 632.339, 552.189 
" />
<path d="M 636.591, 644.244 
	L 636.591, 644.244 
	L 636.591, 552.189 
" />
<path d="M 640.843, 644.244 
	L 640.843, 644.244 
	L 640.843, 552.189 
" />
<path d="M 645.095, 644.244 
	L 645.095, 644.244 
	L 645.095, 552.189 
" />
<path d="M 649.347, 644.244 
	L 649.347, 644.244 
	L 649.347, 552.189 
" />
<path d="M 653.599, 644.244 
	L 653.599, 644.244 
	L 653.599, 552.189 
" />
<path d="M 657.851, 644.244 
	L 657.850, 644.244 
	L 657.850, 552.189 
" />
<path d="M 662.103, 644.244 
	L 662.102, 644.244 
	L 662.102, 552.189 
" />
<path d="M 666.355, 644.244 
	L 666.354, 644.244 
	L 666.354, 552.189 
" />
<path d="M 670.607, 644.244 
	L 670.606, 644.244 
	L 670.606, 552.189 
" />
<path d="M 674.859, 644.244 
	L 674.858, 644.244 
	L 674.858, 552.189 
" />
<path d="M 679.111, 644.244 
	L 679.110, 644.244 
	L 679.110, 552.189 
" />
<path d="M 683.363, 644.244 
	L 683.362, 644.244 
	L 683.362, 552.189 
" />
<path d="M 687.615, 644.244 
	L 687.614, 644.244 
	L 687.614, 552.189 
" />
<path d="M 691.867, 644.244 
	L 691.866, 644.244 
	L 691.866, 552.189 
" />
<path d="M 696.119, 644.244 
	L 696.118, 644.244 
	L 696.118, 552.189 
" />
<path d="M 700.371, 644.244 
	L 700.370, 644.244 
	L 700.370, 552.189 
" />
<path d="M 228.402, 708.661 
	L 228.402, 708.662 
	L 228.402, 644.244 
" />
<path d="M 233.009, 708.661 
	L 233.008, 708.662 
	L 233.008, 644.244 
" />
<path d="M 237.615, 708.661 
	L 237.614, 708.662 
	L 237.614, 644.244 
" />
<path d="M 242.221, 708.661 
	L 242.221, 708.662 
	L 242.221, 644.244 
" />
<path d="M 246.828, 708.661 
	L 246.827, 708.662 
	L 246.827, 644.244 
" />
<path d="M 251.434, 708.661 
	L 251.433, 708.662 
	L 251.433, 644.244 
" />
<path d="M 256.040, 708.661 
	L 256.039, 708.662 
	L 256.039, 644.244 
" />
<path d="M 260.646, 708.661 
	L 260.646, 708.662 
	L 260.646, 644.244 
" />
<path d="M 265.253, 708.661 
	L 265.252, 708.662 
	L 265.252, 644.244 
" />
<path d="M 269.859, 708.661 
	L 269.858, 708.662 
	L 269.858, 644.244 
" />
<path d="M 274.465, 708.661 
	L 274.465, 708.662 
	L 274.465, 644.244 
" />
<path d="M 279.072, 708.661 
	L 279.071, 708.662 
	L 279.071, 644.244 
" />
<path d="M 283.678, 708.661 
	L 283.677, 708.662 
	L 283.677, 644.244 
" />
<path d="M 288.284, 708.661 
	L 288.284, 708.662 
	L 288.284, 644.244 
" />
<path d="M 292.891, 708.661 
	L 292.890, 708.662 
	L 292.890, 644.244 
" />
<path d="M 297.497, 708.661 
	L 297.496, 708.662 
	L 297.496, 644.244 
" />
<path d="M 302.103, 708.661 
	L 302.102, 708.662 
	L 302.102, 644.244 
" />
<path d="M 306.709, 708.661 
	L 306.709, 708.662 
	L 306.709, 644.244 
" />
<path d="M 311.316, 708.661 
	L 311.315, 708.662 
	L 311.315, 644.244 
" />
<path d="M 315.922, 708.661 
	L 315.921, 708.662 
	L 315.921, 644.244 
" />
<path d="M 320.528, 708.661 
	L 320.528, 708.662 
	L 320.528, 644.244 
" />
<path d="M 325.135, 708.661 
	L 325.134, 708.662 
	L 325.134, 644.244 
" />
<path d="M 329.741, 708.661 
	L 329.740, 708.662 
	L 329.740, 644.244 
" />
<path d="M 334.347, 708.661 
	L 334.347, 708.662 
	L 334.347, 644.244 
" />
<path d="M 338.954, 708.661 
	L 338.953, 708.662 
	L 338.953, 644.244 
" />
<path d="M 343.560, 708.661 
	L 343.559, 708.662 
	L 343.559, 644.244 
" />
<path d="M 348.166, 708.661 
	L 348.165, 708.662 
	L 348.165, 644.244 
" />
<path d="M 352.772, 708.661 
	L 352.772, 708.662 
	L 352.772, 644.244 
" />
<path d="M 357.379, 708.661 
	L 357.378, 708.662 
	L 357.378, 644.244 
" />
<path d="M 361.985, 708.661 
	L 361.984, 708.662 
	L 361.984, 644.244 
" />
<path d="M 366.591, 708.661 
	L 366.591, 708.662 
	L 366.591, 644.244 
" />
<path d="M 371.198, 708.661 
	L 371.197, 708.662 
	L 371.197, 644.244 
" />
<path d="M 375.804, 708.661 
	L 375.803, 708.662 
	L 375.803, 644.244 
" />
<path d="M 380.410, 708.661 
	L 380.410, 708.662 
	L 380.410, 644.244 
" />
<path d="M 385.016, 708.661 
	L 385.016, 708.662 
	L 385.016, 644.244 
" />
<path d="M 389.623, 708.661 
	L 389.622, 708.662 
	L 389.622, 644.244 
" />
<path d="M 394.229, 708.661 
	L 394.228, 708.662 
	L 394.228, 644.244 
" />
<path d="M 398.835, 708.661 
	L 398.835, 708.662 
	L 398.835, 644.244 
" />
<path d="M 403.442, 708.661 
	L 403.441, 708.662 
	L 403.441, 644.244 
" />
<path d="M 408.048, 708.661 
	L 408.047, 708.662 
	L 408.047, 644.244 
" />
<path d="M 412.654, 708.661 
	L 412.654, 708.662 
	L 412.654, 644.244 
" />
<path d="M 417.261, 708.661 
	L 417.260, 708.662 
	L 417.260, 644.244 
" />
<path d="M 421.867, 708.661 
	L 421.866, 708.662 
	L 421.866, 644.244 
" />
<path d="M 426.473, 708.661 
	L 426.473, 708.662 
	L 426.473, 644.244 
" />
<path d="M 431.079, 708.661 
	L 431.079, 708.662 
	L 431.079, 644.244 
" />
<path d="M 435.686, 708.661 
	L 435.685, 708.662 
	L 435.685, 644.244 
" />
<path d="M 440.292, 708.661 
	L 440.291, 708.662 
	L 440.291, 644.244 
" />
<path d="M 444.898, 708.661 
	L 444.898, 708.662 
	L 444.898, 644.244 
" />
<path d="M 449.505, 708.661 
	L 449.504, 708.662 
	L 449.504, 644.244 
" />
<path d="M 454.111, 708.661 
	L 454.110, 708.662 
	L 454.110, 644.244 
" />
<path d="M 458.717, 708.661 
	L 458.717, 708.662 
	L 458.717, 644.244 
" />
<path d="M 463.324, 708.661 
	L 463.323, 708.662 
	L 463.323, 644.244 
" />
<path d="M 467.930, 708.661 
	L 467.929, 708.662 
	L 467.929, 644.244 
" />
<path d="M 472.536, 708.661 
	L 472.536, 708.662 
	L 472.536, 644.244 
" />
<path d="M 477.142, 708.661 
	L 477.142, 708.662 
	L 477.142, 644.244 
" />
<path d="M 481.749, 708.661 
	L 481.748, 708.662 
	L 481.748, 644.244 
" />
<path d="M 486.355, 708.661 
	L 486.354, 708.662 
	L 486.354, 644.244 
" />
<path d="M 490.961, 708.661 
	L 490.961, 708.662 
	L 490.961, 644.244 
" />
<path d="M 495.568, 708.661 
	L 495.567, 708.662 
	L 495.567, 644.244 
" />
<path d="M 500.174, 708.661 
	L 500.173, 708.662 
	L 500.173, 644.244 
" />
<path d="M 504.780, 708.661 
	L 504.780, 708.662 
	L 504.780, 644.244 
" />
<path d="M 509.387, 708.661 
	L 509.386, 708.662 
	L 509.386, 644.244 
" />
<path d="M 513.993, 708.661 
	L 513.992, 708.662 
	L 513.992, 644.244 
" />
<path d="M 518.599, 708.661 
	L 518.599, 708.662 
	L 518.599, 644.244 
" />
<path d="M 523.205, 708.661 
	L 523.205, 708.662 
	L 523.205, 644.244 
" />
<path d="M 527.812, 708.661 
	L 527.811, 708.662 
	L 527.811, 644.244 
" />
<path d="M 532.418, 708.661 
	L 532.417, 708.662 
	L 532.417, 644.244 
" />
<path d="M 537.024, 708.661 
	L 537.024, 708.662 
	L 537.024, 644.244 
" />
<path d="M 541.631, 708.661 
	L 541.630, 708.662 
	L 541.630, 644.244 
" />
<path d="M 546.237, 708.661 
	L 546.236, 708.662 
	L 546.236, 644.244 
" />
<path d="M 550.843, 708.661 
	L 550.843, 708.662 
	L 550.843, 644.244 
" />
<path d="M 555.450, 708.661 
	L 555.449, 708.662 
	L 555.449, 644.244 
" />
<path d="M 560.056, 708.661 
	L 560.055, 708.662 
	L 560.055, 644.244 
" />
<path d="M 564.662, 708.661 
	L 564.662, 708.662 
	L 564.662, 644.244 
" />
<path d="M 569.268, 708.661 
	L 569.268, 708.662 
	L 569.268, 644.244 
" />
<path d="M 573.875, 708.661 
	L 573.874, 708.662 
	L 573.874, 644.244 
" />
<path d="M 578.481, 708.661 
	L 578.480, 708.662 
	L 578.480, 644.244 
" />
<path d="M 583.087, 708.661 
	L 583.087, 708.662 
	L 583.087, 644.244 
" />
<path d="M 587.694, 708.661 
	L 587.693, 708.662 
	L 587.693, 644.244 
" />
<path d="M 592.300, 708.661 
	L 592.299, 708.662 
	L 592.299, 644.244 
" />
<path d="M 596.906, 708.661 
	L 596.906, 708.662 
	L 596.906, 644.244 
" />
<path d="M 601.513, 708.661 
	L 601.512, 708.662 
	L 601.512, 644.244 
" />
<path d="M 606.119, 708.661 
	L 606.118, 708.662 
	L 606.118, 644.244 
" />
<path d="M 610.725, 708.661 
	L 610.725, 708.662 
	L 610.725, 644.244 
" />
<path d="M 615.331, 708.661 
	L 615.331, 708.662 
	L 615.331, 644.244 
" />
<path d="M 619.938, 708.661 
	L 619.937, 708.662 
	L 619.937, 644.244 
" />
<path d="M 624.544, 708.661 
	L 624.543, 708.662 
	L 624.543, 644.244 
" />
<path d="M 629.150, 708.661 
	L 629.150, 708.662 
	L 629.150, 644.244 
" />
<path d="M 633.757, 708.661 
	L 633.756, 708.662 
	L 633.756, 644.244 
" />
<path d="M 638.363, 708.661 
	L 638.362, 708.662 
	L 638.362, 644.244 
" />
<path d="M 642.969, 708.661 
	L 642.969, 708.662 
	L 642.969, 644.244 
" />
<path d="M 647.576, 708.661 
	L 647.575, 708.662 
	L 647.575, 644.244 
" />
<path d="M 652.182, 708.661 
	L 652.181, 708.662 
	L 652.181, 644.244 
" />
<path d="M 656.788, 708.661 
	L 656.788, 708.662 
	L 656.788, 644.244 
" />
<path d="M 661.394, 708.661 
	L 661.394, 708.662 
	L 661.394, 644.244 
" />
<path d="M 666.001, 708.661 
	L 666.000, 708.662 
	L 666.000, 644.244 
" />
<path d="M 670.607, 708.661 
	L 670.606, 708.662 
	L 670.606, 644.244 
" />
<path d="M 675.213, 708.661 
	L 675.213, 708.662 
	L 675.213, 644.244 
" />
<path d="M 679.820, 708.661 
	L 679.819, 708.662 
	L 679.819, 644.244 
" />
<path d="M 684.426, 708.661 
	L 684.425, 708.662 
	L 684.425, 644.244 
" />
<path d="M 689.032, 708.661 
	L 689.032, 708.662 
	L 689.032, 644.244 
" />
<path d="M 693.639, 708.661 
	L 693.638, 708.662 
	L 693.638, 644.244 
" />
<path d="M 698.245, 708.661 
	L 698.244, 708.662 
	L 698.244, 644.244 
" />
<path d="M 702.851, 708.661 
	L 702.851, 708.662 
	L 702.851, 644.244 
" />
</g>
</svg>
