<?xml version="1.0" encoding="UTF-8" standalone="no" ?>
<svg width="100%" height="100%" viewBox="0 0 717.803 740.693" xmlns="http://www.w3.org/2000/svg"><g>
</g><g style="stroke:rgb(0,0,0); fill:none; stroke-width:1.000mm" >
</g><g style="stroke:rgb(0,255,0); fill:none; stroke-width:0.100mm" >
<path d="M 0.001, 740.692 
	L 0.000, 740.693 
	L 0.000, 32.032 
	L 708.662, 32.032 
	L 708.662, 740.693 
	L 0.000, 740.693 
" />
</g><g style="stroke:rgb(0,0,0); fill:none; stroke-width:0.100mm" >
<path d="M 1.701, 740.692 
	L 1.701, 740.693 
	L 1.701, 708.662 
	L 118.346, 708.662 
	L 118.346, 740.693 
	L 1.701, 740.693 
" />
<path d="M 1.701, 740.692 
	L 1.701, 740.693 
	L 1.701, 708.662 
" />
<path d="M 6.308, 740.692 
	L 6.307, 740.693 
	L 6.307, 708.662 
" />
<path d="M 10.914, 740.692 
	L 10.913, 740.693 
	L 10.913, 708.662 
" />
<path d="M 15.520, 740.692 
	L 15.520, 740.693 
	L 15.520, 708.662 
" />
<path d="M 20.127, 740.692 
	L 20.126, 740.693 
	L 20.126, 708.662 
" />
<path d="M 24.733, 740.692 
	L 24.732, 740.693 
	L 24.732, 708.662 
" />
<path d="M 29.339, 740.692 
	L 29.339, 740.693 
	L 29.339, 708.662 
" />
<path d="M 33.946, 740.692 
	L 33.945, 740.693 
	L 33.945, 708.662 
" />
<path d="M 38.552, 740.692 
	L 38.551, 740.693 
	L 38.551, 708.662 
" />
<path d="M 43.158, 740.692 
	L 43.157, 740.693 
	L 43.157, 708.662 
" />
<path d="M 47.764, 740.692 
	L 47.764, 740.693 
	L 47.764, 708.662 
" />
<path d="M 52.371, 740.692 
	L 52.370, 740.693 
	L 52.370, 708.662 
" />
<path d="M 56.977, 740.692 
	L 56.976, 740.693 
	L 56.976, 708.662 
" />
<path d="M 61.583, 740.692 
	L 61.583, 740.693 
	L 61.583, 708.662 
" />
<path d="M 66.190, 740.692 
	L 66.189, 740.693 
	L 66.189, 708.662 
" />
<path d="M 70.796, 740.692 
	L 70.795, 740.693 
	L 70.795, 708.662 
" />
<path d="M 75.402, 740.692 
	L 75.402, 740.693 
	L 75.402, 708.662 
" />
<path d="M 80.009, 740.692 
	L 80.008, 740.693 
	L 80.008, 708.662 
" />
<path d="M 84.615, 740.692 
	L 84.614, 740.693 
	L 84.614, 708.662 
" />
<path d="M 89.221, 740.692 
	L 89.220, 740.693 
	L 89.220, 708.662 
" />
<path d="M 93.827, 740.692 
	L 93.827, 740.693 
	L 93.827, 708.662 
" />
<path d="M 98.434, 740.692 
	L 98.433, 740.693 
	L 98.433, 708.662 
" />
<path d="M 103.040, 740.692 
	L 103.039, 740.693 
	L 103.039, 708.662 
" />
<path d="M 107.646, 740.692 
	L 107.646, 740.693 
	L 107.646, 708.662 
" />
<path d="M 112.253, 740.692 
	L 112.252, 740.693 
	L 112.252, 708.662 
" />
</g><g style="stroke:rgb(255,0,0); fill:none; stroke-width:0.100mm" >
<path d="M 1.701, 676.629 
	L 1.701, 676.630 
	L 1.701, 0.000 
	L 118.346, 0.000 
	L 118.346, 676.630 
	L 1.701, 676.630 
" />
<path d="M 1.701, 676.629 
	L 1.701, 676.630 
	L 1.701, 0.000 
" />
<path d="M 6.308, 676.629 
	L 6.307, 676.630 
	L 6.307, 0.000 
" />
<path d="M 10.914, 676.629 
	L 10.913, 676.630 
	L 10.913, 0.000 
" />
<path d="M 15.520, 676.629 
	L 15.520, 676.630 
	L 15.520, 0.000 
" />
<path d="M 20.127, 676.629 
	L 20.126, 676.630 
	L 20.126, 0.000 
" />
<path d="M 24.733, 676.629 
	L 24.732, 676.630 
	L 24.732, 0.000 
" />
<path d="M 29.339, 676.629 
	L 29.339, 676.630 
	L 29.339, 0.000 
" />
<path d="M 33.946, 676.629 
	L 33.945, 676.630 
	L 33.945, 0.000 
" />
<path d="M 38.552, 676.629 
	L 38.551, 676.630 
	L 38.551, 0.000 
" />
<path d="M 43.158, 676.629 
	L 43.157, 676.630 
	L 43.157, 0.000 
" />
<path d="M 47.764, 676.629 
	L 47.764, 676.630 
	L 47.764, 0.000 
" />
<path d="M 52.371, 676.629 
	L 52.370, 676.630 
	L 52.370, 0.000 
" />
<path d="M 56.977, 676.629 
	L 56.976, 676.630 
	L 56.976, 0.000 
" />
<path d="M 61.583, 676.629 
	L 61.583, 676.630 
	L 61.583, 0.000 
" />
<path d="M 66.190, 676.629 
	L 66.189, 676.630 
	L 66.189, 0.000 
" />
<path d="M 70.796, 676.629 
	L 70.795, 676.630 
	L 70.795, 0.000 
" />
<path d="M 75.402, 676.629 
	L 75.402, 676.630 
	L 75.402, 0.000 
" />
<path d="M 80.009, 676.629 
	L 80.008, 676.630 
	L 80.008, 0.000 
" />
<path d="M 84.615, 676.629 
	L 84.614, 676.630 
	L 84.614, 0.000 
" />
<path d="M 89.221, 676.629 
	L 89.220, 676.630 
	L 89.220, 0.000 
" />
<path d="M 93.827, 676.629 
	L 93.827, 676.630 
	L 93.827, 0.000 
" />
<path d="M 98.434, 676.629 
	L 98.433, 676.630 
	L 98.433, 0.000 
" />
<path d="M 103.040, 676.629 
	L 103.039, 676.630 
	L 103.039, 0.000 
" />
<path d="M 107.646, 676.629 
	L 107.646, 676.630 
	L 107.646, 0.000 
" />
<path d="M 112.253, 676.629 
	L 112.252, 676.630 
	L 112.252, 0.000 
" />
</g><g style="stroke:rgb(0,255,0); fill:none; stroke-width:0.100mm" >
<path d="M 125.788, 676.629 
	L 125.787, 676.630 
	L 125.787, 0.000 
	L 717.803, 0.000 
	L 717.803, 676.630 
	L 125.787, 676.630 
" />
<path d="M 125.788, 676.629 
	L 125.787, 676.630 
	L 125.787, 0.000 
" />
<path d="M 130.324, 676.629 
	L 130.323, 676.630 
	L 130.323, 0.000 
" />
<path d="M 134.859, 676.629 
	L 134.858, 676.630 
	L 134.858, 0.000 
" />
<path d="M 139.394, 676.629 
	L 139.394, 676.630 
	L 139.394, 0.000 
" />
<path d="M 143.930, 676.629 
	L 143.929, 676.630 
	L 143.929, 0.000 
" />
<path d="M 148.465, 676.629 
	L 148.465, 676.630 
	L 148.465, 0.000 
" />
<path d="M 153.001, 676.629 
	L 153.000, 676.630 
	L 153.000, 0.000 
" />
<path d="M 157.536, 676.629 
	L 157.535, 676.630 
	L 157.535, 0.000 
" />
<path d="M 162.072, 676.629 
	L 162.071, 676.630 
	L 162.071, 0.000 
" />
<path d="M 166.607, 676.629 
	L 166.606, 676.630 
	L 166.606, 0.000 
" />
<path d="M 171.142, 676.629 
	L 171.142, 676.630 
	L 171.142, 0.000 
" />
<path d="M 175.678, 676.629 
	L 175.677, 676.630 
	L 175.677, 0.000 
" />
<path d="M 180.213, 676.629 
	L 180.213, 676.630 
	L 180.213, 0.000 
" />
<path d="M 184.749, 676.629 
	L 184.748, 676.630 
	L 184.748, 0.000 
" />
<path d="M 189.284, 676.629 
	L 189.283, 676.630 
	L 189.283, 0.000 
" />
<path d="M 193.820, 676.629 
	L 193.819, 676.630 
	L 193.819, 0.000 
" />
<path d="M 198.355, 676.629 
	L 198.354, 676.630 
	L 198.354, 0.000 
" />
<path d="M 202.891, 676.629 
	L 202.890, 676.630 
	L 202.890, 0.000 
" />
<path d="M 207.426, 676.629 
	L 207.425, 676.630 
	L 207.425, 0.000 
" />
<path d="M 211.961, 676.629 
	L 211.961, 676.630 
	L 211.961, 0.000 
" />
<path d="M 216.497, 676.629 
	L 216.496, 676.630 
	L 216.496, 0.000 
" />
<path d="M 221.032, 676.629 
	L 221.032, 676.630 
	L 221.032, 0.000 
" />
<path d="M 225.568, 676.629 
	L 225.567, 676.630 
	L 225.567, 0.000 
" />
<path d="M 230.103, 676.629 
	L 230.102, 676.630 
	L 230.102, 0.000 
" />
<path d="M 234.639, 676.629 
	L 234.638, 676.630 
	L 234.638, 0.000 
" />
<path d="M 239.174, 676.629 
	L 239.173, 676.630 
	L 239.173, 0.000 
" />
<path d="M 243.709, 676.629 
	L 243.709, 676.630 
	L 243.709, 0.000 
" />
<path d="M 248.245, 676.629 
	L 248.244, 676.630 
	L 248.244, 0.000 
" />
<path d="M 252.780, 676.629 
	L 252.780, 676.630 
	L 252.780, 0.000 
" />
<path d="M 257.316, 676.629 
	L 257.315, 676.630 
	L 257.315, 0.000 
" />
<path d="M 261.851, 676.629 
	L 261.850, 676.630 
	L 261.850, 0.000 
" />
<path d="M 266.387, 676.629 
	L 266.386, 676.630 
	L 266.386, 0.000 
" />
<path d="M 270.922, 676.629 
	L 270.921, 676.630 
	L 270.921, 0.000 
" />
<path d="M 275.457, 676.629 
	L 275.457, 676.630 
	L 275.457, 0.000 
" />
<path d="M 279.993, 676.629 
	L 279.992, 676.630 
	L 279.992, 0.000 
" />
<path d="M 284.528, 676.629 
	L 284.528, 676.630 
	L 284.528, 0.000 
" />
<path d="M 289.064, 676.629 
	L 289.063, 676.630 
	L 289.063, 0.000 
" />
<path d="M 293.599, 676.629 
	L 293.598, 676.630 
	L 293.598, 0.000 
" />
<path d="M 298.135, 676.629 
	L 298.134, 676.630 
	L 298.134, 0.000 
" />
<path d="M 302.670, 676.629 
	L 302.669, 676.630 
	L 302.669, 0.000 
" />
<path d="M 307.205, 676.629 
	L 307.205, 676.630 
	L 307.205, 0.000 
" />
<path d="M 311.741, 676.629 
	L 311.740, 676.630 
	L 311.740, 0.000 
" />
<path d="M 316.276, 676.629 
	L 316.276, 676.630 
	L 316.276, 0.000 
" />
<path d="M 320.812, 676.629 
	L 320.811, 676.630 
	L 320.811, 0.000 
" />
<path d="M 325.347, 676.629 
	L 325.347, 676.630 
	L 325.347, 0.000 
" />
<path d="M 329.883, 676.629 
	L 329.882, 676.630 
	L 329.882, 0.000 
" />
<path d="M 334.418, 676.629 
	L 334.417, 676.630 
	L 334.417, 0.000 
" />
<path d="M 338.954, 676.629 
	L 338.953, 676.630 
	L 338.953, 0.000 
" />
<path d="M 343.489, 676.629 
	L 343.488, 676.630 
	L 343.488, 0.000 
" />
<path d="M 348.024, 676.629 
	L 348.024, 676.630 
	L 348.024, 0.000 
" />
<path d="M 352.560, 676.629 
	L 352.559, 676.630 
	L 352.559, 0.000 
" />
<path d="M 357.095, 676.629 
	L 357.095, 676.630 
	L 357.095, 0.000 
" />
<path d="M 361.631, 676.629 
	L 361.630, 676.630 
	L 361.630, 0.000 
" />
<path d="M 366.166, 676.629 
	L 366.165, 676.630 
	L 366.165, 0.000 
" />
<path d="M 370.702, 676.629 
	L 370.701, 676.630 
	L 370.701, 0.000 
" />
<path d="M 375.237, 676.629 
	L 375.236, 676.630 
	L 375.236, 0.000 
" />
<path d="M 379.772, 676.629 
	L 379.772, 676.630 
	L 379.772, 0.000 
" />
<path d="M 384.308, 676.629 
	L 384.307, 676.630 
	L 384.307, 0.000 
" />
<path d="M 388.843, 676.629 
	L 388.843, 676.630 
	L 388.843, 0.000 
" />
<path d="M 393.379, 676.629 
	L 393.378, 676.630 
	L 393.378, 0.000 
" />
<path d="M 397.914, 676.629 
	L 397.913, 676.630 
	L 397.913, 0.000 
" />
<path d="M 402.450, 676.629 
	L 402.449, 676.630 
	L 402.449, 0.000 
" />
<path d="M 406.985, 676.629 
	L 406.984, 676.630 
	L 406.984, 0.000 
" />
<path d="M 411.520, 676.629 
	L 411.520, 676.630 
	L 411.520, 0.000 
" />
<path d="M 416.056, 676.629 
	L 416.055, 676.630 
	L 416.055, 0.000 
" />
<path d="M 420.591, 676.629 
	L 420.591, 676.630 
	L 420.591, 0.000 
" />
<path d="M 425.127, 676.629 
	L 425.126, 676.630 
	L 425.126, 0.000 
" />
<path d="M 429.662, 676.629 
	L 429.661, 676.630 
	L 429.661, 0.000 
" />
<path d="M 434.198, 676.629 
	L 434.197, 676.630 
	L 434.197, 0.000 
" />
<path d="M 438.733, 676.629 
	L 438.732, 676.630 
	L 438.732, 0.000 
" />
<path d="M 443.268, 676.629 
	L 443.268, 676.630 
	L 443.268, 0.000 
" />
<path d="M 447.804, 676.629 
	L 447.803, 676.630 
	L 447.803, 0.000 
" />
<path d="M 452.339, 676.629 
	L 452.339, 676.630 
	L 452.339, 0.000 
" />
<path d="M 456.875, 676.629 
	L 456.874, 676.630 
	L 456.874, 0.000 
" />
<path d="M 461.410, 676.629 
	L 461.410, 676.630 
	L 461.410, 0.000 
" />
<path d="M 465.946, 676.629 
	L 465.945, 676.630 
	L 465.945, 0.000 
" />
<path d="M 470.481, 676.629 
	L 470.480, 676.630 
	L 470.480, 0.000 
" />
<path d="M 475.017, 676.629 
	L 475.016, 676.630 
	L 475.016, 0.000 
" />
<path d="M 479.552, 676.629 
	L 479.551, 676.630 
	L 479.551, 0.000 
" />
<path d="M 484.087, 676.629 
	L 484.087, 676.630 
	L 484.087, 0.000 
" />
<path d="M 488.623, 676.629 
	L 488.622, 676.630 
	L 488.622, 0.000 
" />
<path d="M 493.158, 676.629 
	L 493.158, 676.630 
	L 493.158, 0.000 
" />
<path d="M 497.694, 676.629 
	L 497.693, 676.630 
	L 497.693, 0.000 
" />
<path d="M 502.229, 676.629 
	L 502.228, 676.630 
	L 502.228, 0.000 
" />
<path d="M 506.765, 676.629 
	L 506.764, 676.630 
	L 506.764, 0.000 
" />
<path d="M 511.300, 676.629 
	L 511.299, 676.630 
	L 511.299, 0.000 
" />
<path d="M 515.835, 676.629 
	L 515.835, 676.630 
	L 515.835, 0.000 
" />
<path d="M 520.371, 676.629 
	L 520.370, 676.630 
	L 520.370, 0.000 
" />
<path d="M 524.906, 676.629 
	L 524.906, 676.630 
	L 524.906, 0.000 
" />
<path d="M 529.442, 676.629 
	L 529.441, 676.630 
	L 529.441, 0.000 
" />
<path d="M 533.977, 676.629 
	L 533.976, 676.630 
	L 533.976, 0.000 
" />
<path d="M 538.513, 676.629 
	L 538.512, 676.630 
	L 538.512, 0.000 
" />
<path d="M 543.048, 676.629 
	L 543.047, 676.630 
	L 543.047, 0.000 
" />
<path d="M 547.583, 676.629 
	L 547.583, 676.630 
	L 547.583, 0.000 
" />
<path d="M 552.119, 676.629 
	L 552.118, 676.630 
	L 552.118, 0.000 
" />
<path d="M 556.654, 676.629 
	L 556.654, 676.630 
	L 556.654, 0.000 
" />
<path d="M 561.190, 676.629 
	L 561.189, 676.630 
	L 561.189, 0.000 
" />
<path d="M 565.725, 676.629 
	L 565.724, 676.630 
	L 565.724, 0.000 
" />
<path d="M 570.261, 676.629 
	L 570.260, 676.630 
	L 570.260, 0.000 
" />
<path d="M 574.796, 676.629 
	L 574.795, 676.630 
	L 574.795, 0.000 
" />
<path d="M 579.331, 676.629 
	L 579.331, 676.630 
	L 579.331, 0.000 
" />
<path d="M 583.867, 676.629 
	L 583.866, 676.630 
	L 583.866, 0.000 
" />
<path d="M 588.402, 676.629 
	L 588.402, 676.630 
	L 588.402, 0.000 
" />
<path d="M 592.938, 676.629 
	L 592.937, 676.630 
	L 592.937, 0.000 
" />
<path d="M 597.473, 676.629 
	L 597.473, 676.630 
	L 597.473, 0.000 
" />
<path d="M 602.009, 676.629 
	L 602.008, 676.630 
	L 602.008, 0.000 
" />
<path d="M 606.544, 676.629 
	L 606.543, 676.630 
	L 606.543, 0.000 
" />
<path d="M 611.080, 676.629 
	L 611.079, 676.630 
	L 611.079, 0.000 
" />
<path d="M 615.615, 676.629 
	L 615.614, 676.630 
	L 615.614, 0.000 
" />
<path d="M 620.150, 676.629 
	L 620.150, 676.630 
	L 620.150, 0.000 
" />
<path d="M 624.686, 676.629 
	L 624.685, 676.630 
	L 624.685, 0.000 
" />
<path d="M 629.221, 676.629 
	L 629.221, 676.630 
	L 629.221, 0.000 
" />
<path d="M 633.757, 676.629 
	L 633.756, 676.630 
	L 633.756, 0.000 
" />
<path d="M 638.292, 676.629 
	L 638.291, 676.630 
	L 638.291, 0.000 
" />
<path d="M 642.828, 676.629 
	L 642.827, 676.630 
	L 642.827, 0.000 
" />
<path d="M 647.363, 676.629 
	L 647.362, 676.630 
	L 647.362, 0.000 
" />
<path d="M 651.898, 676.629 
	L 651.898, 676.630 
	L 651.898, 0.000 
" />
<path d="M 656.434, 676.629 
	L 656.433, 676.630 
	L 656.433, 0.000 
" />
<path d="M 660.969, 676.629 
	L 660.969, 676.630 
	L 660.969, 0.000 
" />
<path d="M 665.505, 676.629 
	L 665.504, 676.630 
	L 665.504, 0.000 
" />
<path d="M 670.040, 676.629 
	L 670.039, 676.630 
	L 670.039, 0.000 
" />
<path d="M 674.576, 676.629 
	L 674.575, 676.630 
	L 674.575, 0.000 
" />
<path d="M 679.111, 676.629 
	L 679.110, 676.630 
	L 679.110, 0.000 
" />
<path d="M 683.646, 676.629 
	L 683.646, 676.630 
	L 683.646, 0.000 
" />
<path d="M 688.182, 676.629 
	L 688.181, 676.630 
	L 688.181, 0.000 
" />
<path d="M 692.717, 676.629 
	L 692.717, 676.630 
	L 692.717, 0.000 
" />
<path d="M 697.253, 676.629 
	L 697.252, 676.630 
	L 697.252, 0.000 
" />
<path d="M 701.788, 676.629 
	L 701.788, 676.630 
	L 701.788, 0.000 
" />
<path d="M 706.324, 676.629 
	L 706.323, 676.630 
	L 706.323, 0.000 
" />
<path d="M 710.859, 676.629 
	L 710.858, 676.630 
	L 710.858, 0.000 
" />
</g><g style="stroke:rgb(0,0,255); fill:none; stroke-width:0.100mm" >
<path d="M 125.788, 740.692 
	L 125.787, 740.693 
	L 125.787, 708.662 
	L 717.803, 708.662 
	L 717.803, 740.693 
	L 125.787, 740.693 
" />
<path d="M 125.788, 740.692 
	L 125.787, 740.693 
	L 125.787, 708.662 
" />
<path d="M 130.324, 740.692 
	L 130.323, 740.693 
	L 130.323, 708.662 
" />
<path d="M 134.859, 740.692 
	L 134.858, 740.693 
	L 134.858, 708.662 
" />
<path d="M 139.394, 740.692 
	L 139.394, 740.693 
	L 139.394, 708.662 
" />
<path d="M 143.930, 740.692 
	L 143.929, 740.693 
	L 143.929, 708.662 
" />
<path d="M 148.465, 740.692 
	L 148.465, 740.693 
	L 148.465, 708.662 
" />
<path d="M 153.001, 740.692 
	L 153.000, 740.693 
	L 153.000, 708.662 
" />
<path d="M 157.536, 740.692 
	L 157.535, 740.693 
	L 157.535, 708.662 
" />
<path d="M 162.072, 740.692 
	L 162.071, 740.693 
	L 162.071, 708.662 
" />
<path d="M 166.607, 740.692 
	L 166.606, 740.693 
	L 166.606, 708.662 
" />
<path d="M 171.142, 740.692 
	L 171.142, 740.693 
	L 171.142, 708.662 
" />
<path d="M 175.678, 740.692 
	L 175.677, 740.693 
	L 175.677, 708.662 
" />
<path d="M 180.213, 740.692 
	L 180.213, 740.693 
	L 180.213, 708.662 
" />
<path d="M 184.749, 740.692 
	L 184.748, 740.693 
	L 184.748, 708.662 
" />
<path d="M 189.284, 740.692 
	L 189.283, 740.693 
	L 189.283, 708.662 
" />
<path d="M 193.820, 740.692 
	L 193.819, 740.693 
	L 193.819, 708.662 
" />
<path d="M 198.355, 740.692 
	L 198.354, 740.693 
	L 198.354, 708.662 
" />
<path d="M 202.891, 740.692 
	L 202.890, 740.693 
	L 202.890, 708.662 
" />
<path d="M 207.426, 740.692 
	L 207.425, 740.693 
	L 207.425, 708.662 
" />
<path d="M 211.961, 740.692 
	L 211.961, 740.693 
	L 211.961, 708.662 
" />
<path d="M 216.497, 740.692 
	L 216.496, 740.693 
	L 216.496, 708.662 
" />
<path d="M 221.032, 740.692 
	L 221.032, 740.693 
	L 221.032, 708.662 
" />
<path d="M 225.568, 740.692 
	L 225.567, 740.693 
	L 225.567, 708.662 
" />
<path d="M 230.103, 740.692 
	L 230.102, 740.693 
	L 230.102, 708.662 
" />
<path d="M 234.639, 740.692 
	L 234.638, 740.693 
	L 234.638, 708.662 
" />
<path d="M 239.174, 740.692 
	L 239.173, 740.693 
	L 239.173, 708.662 
" />
<path d="M 243.709, 740.692 
	L 243.709, 740.693 
	L 243.709, 708.662 
" />
<path d="M 248.245, 740.692 
	L 248.244, 740.693 
	L 248.244, 708.662 
" />
<path d="M 252.780, 740.692 
	L 252.780, 740.693 
	L 252.780, 708.662 
" />
<path d="M 257.316, 740.692 
	L 257.315, 740.693 
	L 257.315, 708.662 
" />
<path d="M 261.851, 740.692 
	L 261.850, 740.693 
	L 261.850, 708.662 
" />
<path d="M 266.387, 740.692 
	L 266.386, 740.693 
	L 266.386, 708.662 
" />
<path d="M 270.922, 740.692 
	L 270.921, 740.693 
	L 270.921, 708.662 
" />
<path d="M 275.457, 740.692 
	L 275.457, 740.693 
	L 275.457, 708.662 
" />
<path d="M 279.993, 740.692 
	L 279.992, 740.693 
	L 279.992, 708.662 
" />
<path d="M 284.528, 740.692 
	L 284.528, 740.693 
	L 284.528, 708.662 
" />
<path d="M 289.064, 740.692 
	L 289.063, 740.693 
	L 289.063, 708.662 
" />
<path d="M 293.599, 740.692 
	L 293.598, 740.693 
	L 293.598, 708.662 
" />
<path d="M 298.135, 740.692 
	L 298.134, 740.693 
	L 298.134, 708.662 
" />
<path d="M 302.670, 740.692 
	L 302.669, 740.693 
	L 302.669, 708.662 
" />
<path d="M 307.205, 740.692 
	L 307.205, 740.693 
	L 307.205, 708.662 
" />
<path d="M 311.741, 740.692 
	L 311.740, 740.693 
	L 311.740, 708.662 
" />
<path d="M 316.276, 740.692 
	L 316.276, 740.693 
	L 316.276, 708.662 
" />
<path d="M 320.812, 740.692 
	L 320.811, 740.693 
	L 320.811, 708.662 
" />
<path d="M 325.347, 740.692 
	L 325.347, 740.693 
	L 325.347, 708.662 
" />
<path d="M 329.883, 740.692 
	L 329.882, 740.693 
	L 329.882, 708.662 
" />
<path d="M 334.418, 740.692 
	L 334.417, 740.693 
	L 334.417, 708.662 
" />
<path d="M 338.954, 740.692 
	L 338.953, 740.693 
	L 338.953, 708.662 
" />
<path d="M 343.489, 740.692 
	L 343.488, 740.693 
	L 343.488, 708.662 
" />
<path d="M 348.024, 740.692 
	L 348.024, 740.693 
	L 348.024, 708.662 
" />
<path d="M 352.560, 740.692 
	L 352.559, 740.693 
	L 352.559, 708.662 
" />
<path d="M 357.095, 740.692 
	L 357.095, 740.693 
	L 357.095, 708.662 
" />
<path d="M 361.631, 740.692 
	L 361.630, 740.693 
	L 361.630, 708.662 
" />
<path d="M 366.166, 740.692 
	L 366.165, 740.693 
	L 366.165, 708.662 
" />
<path d="M 370.702, 740.692 
	L 370.701, 740.693 
	L 370.701, 708.662 
" />
<path d="M 375.237, 740.692 
	L 375.236, 740.693 
	L 375.236, 708.662 
" />
<path d="M 379.772, 740.692 
	L 379.772, 740.693 
	L 379.772, 708.662 
" />
<path d="M 384.308, 740.692 
	L 384.307, 740.693 
	L 384.307, 708.662 
" />
<path d="M 388.843, 740.692 
	L 388.843, 740.693 
	L 388.843, 708.662 
" />
<path d="M 393.379, 740.692 
	L 393.378, 740.693 
	L 393.378, 708.662 
" />
<path d="M 397.914, 740.692 
	L 397.913, 740.693 
	L 397.913, 708.662 
" />
<path d="M 402.450, 740.692 
	L 402.449, 740.693 
	L 402.449, 708.662 
" />
<path d="M 406.985, 740.692 
	L 406.984, 740.693 
	L 406.984, 708.662 
" />
<path d="M 411.520, 740.692 
	L 411.520, 740.693 
	L 411.520, 708.662 
" />
<path d="M 416.056, 740.692 
	L 416.055, 740.693 
	L 416.055, 708.662 
" />
<path d="M 420.591, 740.692 
	L 420.591, 740.693 
	L 420.591, 708.662 
" />
<path d="M 425.127, 740.692 
	L 425.126, 740.693 
	L 425.126, 708.662 
" />
<path d="M 429.662, 740.692 
	L 429.661, 740.693 
	L 429.661, 708.662 
" />
<path d="M 434.198, 740.692 
	L 434.197, 740.693 
	L 434.197, 708.662 
" />
<path d="M 438.733, 740.692 
	L 438.732, 740.693 
	L 438.732, 708.662 
" />
<path d="M 443.268, 740.692 
	L 443.268, 740.693 
	L 443.268, 708.662 
" />
<path d="M 447.804, 740.692 
	L 447.803, 740.693 
	L 447.803, 708.662 
" />
<path d="M 452.339, 740.692 
	L 452.339, 740.693 
	L 452.339, 708.662 
" />
<path d="M 456.875, 740.692 
	L 456.874, 740.693 
	L 456.874, 708.662 
" />
<path d="M 461.410, 740.692 
	L 461.410, 740.693 
	L 461.410, 708.662 
" />
<path d="M 465.946, 740.692 
	L 465.945, 740.693 
	L 465.945, 708.662 
" />
<path d="M 470.481, 740.692 
	L 470.480, 740.693 
	L 470.480, 708.662 
" />
<path d="M 475.017, 740.692 
	L 475.016, 740.693 
	L 475.016, 708.662 
" />
<path d="M 479.552, 740.692 
	L 479.551, 740.693 
	L 479.551, 708.662 
" />
<path d="M 484.087, 740.692 
	L 484.087, 740.693 
	L 484.087, 708.662 
" />
<path d="M 488.623, 740.692 
	L 488.622, 740.693 
	L 488.622, 708.662 
" />
<path d="M 493.158, 740.692 
	L 493.158, 740.693 
	L 493.158, 708.662 
" />
<path d="M 497.694, 740.692 
	L 497.693, 740.693 
	L 497.693, 708.662 
" />
<path d="M 502.229, 740.692 
	L 502.228, 740.693 
	L 502.228, 708.662 
" />
<path d="M 506.765, 740.692 
	L 506.764, 740.693 
	L 506.764, 708.662 
" />
<path d="M 511.300, 740.692 
	L 511.299, 740.693 
	L 511.299, 708.662 
" />
<path d="M 515.835, 740.692 
	L 515.835, 740.693 
	L 515.835, 708.662 
" />
<path d="M 520.371, 740.692 
	L 520.370, 740.693 
	L 520.370, 708.662 
" />
<path d="M 524.906, 740.692 
	L 524.906, 740.693 
	L 524.906, 708.662 
" />
<path d="M 529.442, 740.692 
	L 529.441, 740.693 
	L 529.441, 708.662 
" />
<path d="M 533.977, 740.692 
	L 533.976, 740.693 
	L 533.976, 708.662 
" />
<path d="M 538.513, 740.692 
	L 538.512, 740.693 
	L 538.512, 708.662 
" />
<path d="M 543.048, 740.692 
	L 543.047, 740.693 
	L 543.047, 708.662 
" />
<path d="M 547.583, 740.692 
	L 547.583, 740.693 
	L 547.583, 708.662 
" />
<path d="M 552.119, 740.692 
	L 552.118, 740.693 
	L 552.118, 708.662 
" />
<path d="M 556.654, 740.692 
	L 556.654, 740.693 
	L 556.654, 708.662 
" />
<path d="M 561.190, 740.692 
	L 561.189, 740.693 
	L 561.189, 708.662 
" />
<path d="M 565.725, 740.692 
	L 565.724, 740.693 
	L 565.724, 708.662 
" />
<path d="M 570.261, 740.692 
	L 570.260, 740.693 
	L 570.260, 708.662 
" />
<path d="M 574.796, 740.692 
	L 574.795, 740.693 
	L 574.795, 708.662 
" />
<path d="M 579.331, 740.692 
	L 579.331, 740.693 
	L 579.331, 708.662 
" />
<path d="M 583.867, 740.692 
	L 583.866, 740.693 
	L 583.866, 708.662 
" />
<path d="M 588.402, 740.692 
	L 588.402, 740.693 
	L 588.402, 708.662 
" />
<path d="M 592.938, 740.692 
	L 592.937, 740.693 
	L 592.937, 708.662 
" />
<path d="M 597.473, 740.692 
	L 597.473, 740.693 
	L 597.473, 708.662 
" />
<path d="M 602.009, 740.692 
	L 602.008, 740.693 
	L 602.008, 708.662 
" />
<path d="M 606.544, 740.692 
	L 606.543, 740.693 
	L 606.543, 708.662 
" />
<path d="M 611.080, 740.692 
	L 611.079, 740.693 
	L 611.079, 708.662 
" />
<path d="M 615.615, 740.692 
	L 615.614, 740.693 
	L 615.614, 708.662 
" />
<path d="M 620.150, 740.692 
	L 620.150, 740.693 
	L 620.150, 708.662 
" />
<path d="M 624.686, 740.692 
	L 624.685, 740.693 
	L 624.685, 708.662 
" />
<path d="M 629.221, 740.692 
	L 629.221, 740.693 
	L 629.221, 708.662 
" />
<path d="M 633.757, 740.692 
	L 633.756, 740.693 
	L 633.756, 708.662 
" />
<path d="M 638.292, 740.692 
	L 638.291, 740.693 
	L 638.291, 708.662 
" />
<path d="M 642.828, 740.692 
	L 642.827, 740.693 
	L 642.827, 708.662 
" />
<path d="M 647.363, 740.692 
	L 647.362, 740.693 
	L 647.362, 708.662 
" />
<path d="M 651.898, 740.692 
	L 651.898, 740.693 
	L 651.898, 708.662 
" />
<path d="M 656.434, 740.692 
	L 656.433, 740.693 
	L 656.433, 708.662 
" />
<path d="M 660.969, 740.692 
	L 660.969, 740.693 
	L 660.969, 708.662 
" />
<path d="M 665.505, 740.692 
	L 665.504, 740.693 
	L 665.504, 708.662 
" />
<path d="M 670.040, 740.692 
	L 670.039, 740.693 
	L 670.039, 708.662 
" />
<path d="M 674.576, 740.692 
	L 674.575, 740.693 
	L 674.575, 708.662 
" />
<path d="M 679.111, 740.692 
	L 679.110, 740.693 
	L 679.110, 708.662 
" />
<path d="M 683.646, 740.692 
	L 683.646, 740.693 
	L 683.646, 708.662 
" />
<path d="M 688.182, 740.692 
	L 688.181, 740.693 
	L 688.181, 708.662 
" />
<path d="M 692.717, 740.692 
	L 692.717, 740.693 
	L 692.717, 708.662 
" />
<path d="M 697.253, 740.692 
	L 697.252, 740.693 
	L 697.252, 708.662 
" />
<path d="M 701.788, 740.692 
	L 701.788, 740.693 
	L 701.788, 708.662 
" />
<path d="M 706.324, 740.692 
	L 706.323, 740.693 
	L 706.323, 708.662 
" />
<path d="M 710.859, 740.692 
	L 710.858, 740.693 
	L 710.858, 708.662 
" />
</g>
</svg>
