<?xml version="1.0" encoding="UTF-8" standalone="no" ?>
<svg width="100%" height="100%" viewBox="0 0 708.662 708.662" xmlns="http://www.w3.org/2000/svg"><g>
</g><g style="stroke:rgb(0,0,0); fill:none; stroke-width:1.000mm" >
</g><g style="stroke:rgb(0,255,0); fill:none; stroke-width:0.100mm" >
<path d="M 0.001, 708.661 
	L 0.000, 708.662 
	L 0.000, 0.000 
	L 708.662, 0.000 
	L 708.662, 708.662 
	L 0.000, 708.662 
" />
</g><g style="stroke:rgb(0,0,0); fill:none; stroke-width:0.100mm" >
<path d="M 0.001, 708.661 
	L 0.000, 708.662 
	L 0.000, 421.228 
	L 297.780, 421.228 
	L 297.780, 708.662 
	L 0.000, 708.662 
" />
<path d="M 0.001, 708.661 
	L 0.000, 708.662 
	L 0.000, 421.228 
" />
<path d="M 4.607, 708.661 
	L 4.606, 708.662 
	L 4.606, 421.228 
" />
<path d="M 9.213, 708.661 
	L 9.213, 708.662 
	L 9.213, 421.228 
" />
<path d="M 13.820, 708.661 
	L 13.819, 708.662 
	L 13.819, 421.228 
" />
<path d="M 18.426, 708.661 
	L 18.425, 708.662 
	L 18.425, 421.228 
" />
<path d="M 23.032, 708.661 
	L 23.031, 708.662 
	L 23.031, 421.228 
" />
<path d="M 27.639, 708.661 
	L 27.638, 708.662 
	L 27.638, 421.228 
" />
<path d="M 32.245, 708.661 
	L 32.244, 708.662 
	L 32.244, 421.228 
" />
<path d="M 36.851, 708.661 
	L 36.850, 708.662 
	L 36.850, 421.228 
" />
<path d="M 41.457, 708.661 
	L 41.457, 708.662 
	L 41.457, 421.228 
" />
<path d="M 46.064, 708.661 
	L 46.063, 708.662 
	L 46.063, 421.228 
" />
<path d="M 50.670, 708.661 
	L 50.669, 708.662 
	L 50.669, 421.228 
" />
<path d="M 55.276, 708.661 
	L 55.276, 708.662 
	L 55.276, 421.228 
" />
<path d="M 59.883, 708.661 
	L 59.882, 708.662 
	L 59.882, 421.228 
" />
<path d="M 64.489, 708.661 
	L 64.488, 708.662 
	L 64.488, 421.228 
" />
<path d="M 69.095, 708.661 
	L 69.094, 708.662 
	L 69.094, 421.228 
" />
<path d="M 73.702, 708.661 
	L 73.701, 708.662 
	L 73.701, 421.228 
" />
<path d="M 78.308, 708.661 
	L 78.307, 708.662 
	L 78.307, 421.228 
" />
<path d="M 82.914, 708.661 
	L 82.913, 708.662 
	L 82.913, 421.228 
" />
<path d="M 87.520, 708.661 
	L 87.520, 708.662 
	L 87.520, 421.228 
" />
<path d="M 92.127, 708.661 
	L 92.126, 708.662 
	L 92.126, 421.228 
" />
<path d="M 96.733, 708.661 
	L 96.732, 708.662 
	L 96.732, 421.228 
" />
<path d="M 101.339, 708.661 
	L 101.339, 708.662 
	L 101.339, 421.228 
" />
<path d="M 105.946, 708.661 
	L 105.945, 708.662 
	L 105.945, 421.228 
" />
<path d="M 110.552, 708.661 
	L 110.551, 708.662 
	L 110.551, 421.228 
" />
<path d="M 115.158, 708.661 
	L 115.157, 708.662 
	L 115.157, 421.228 
" />
<path d="M 119.765, 708.661 
	L 119.764, 708.662 
	L 119.764, 421.228 
" />
<path d="M 124.371, 708.661 
	L 124.370, 708.662 
	L 124.370, 421.228 
" />
<path d="M 128.977, 708.661 
	L 128.976, 708.662 
	L 128.976, 421.228 
" />
<path d="M 133.583, 708.661 
	L 133.583, 708.662 
	L 133.583, 421.228 
" />
<path d="M 138.190, 708.661 
	L 138.189, 708.662 
	L 138.189, 421.228 
" />
<path d="M 142.796, 708.661 
	L 142.795, 708.662 
	L 142.795, 421.228 
" />
<path d="M 147.402, 708.661 
	L 147.402, 708.662 
	L 147.402, 421.228 
" />
<path d="M 152.009, 708.661 
	L 152.008, 708.662 
	L 152.008, 421.228 
" />
<path d="M 156.615, 708.661 
	L 156.614, 708.662 
	L 156.614, 421.228 
" />
<path d="M 161.221, 708.661 
	L 161.220, 708.662 
	L 161.220, 421.228 
" />
<path d="M 165.828, 708.661 
	L 165.827, 708.662 
	L 165.827, 421.228 
" />
<path d="M 170.434, 708.661 
	L 170.433, 708.662 
	L 170.433, 421.228 
" />
<path d="M 175.040, 708.661 
	L 175.039, 708.662 
	L 175.039, 421.228 
" />
<path d="M 179.646, 708.661 
	L 179.646, 708.662 
	L 179.646, 421.228 
" />
<path d="M 184.253, 708.661 
	L 184.252, 708.662 
	L 184.252, 421.228 
" />
<path d="M 188.859, 708.661 
	L 188.858, 708.662 
	L 188.858, 421.228 
" />
<path d="M 193.465, 708.661 
	L 193.465, 708.662 
	L 193.465, 421.228 
" />
<path d="M 198.072, 708.661 
	L 198.071, 708.662 
	L 198.071, 421.228 
" />
<path d="M 202.678, 708.661 
	L 202.677, 708.662 
	L 202.677, 421.228 
" />
<path d="M 207.284, 708.661 
	L 207.283, 708.662 
	L 207.283, 421.228 
" />
<path d="M 211.891, 708.661 
	L 211.890, 708.662 
	L 211.890, 421.228 
" />
<path d="M 216.497, 708.661 
	L 216.496, 708.662 
	L 216.496, 421.228 
" />
<path d="M 221.103, 708.661 
	L 221.102, 708.662 
	L 221.102, 421.228 
" />
<path d="M 225.709, 708.661 
	L 225.709, 708.662 
	L 225.709, 421.228 
" />
<path d="M 230.316, 708.661 
	L 230.315, 708.662 
	L 230.315, 421.228 
" />
<path d="M 234.922, 708.661 
	L 234.921, 708.662 
	L 234.921, 421.228 
" />
<path d="M 239.528, 708.661 
	L 239.528, 708.662 
	L 239.528, 421.228 
" />
<path d="M 244.135, 708.661 
	L 244.134, 708.662 
	L 244.134, 421.228 
" />
<path d="M 248.741, 708.661 
	L 248.740, 708.662 
	L 248.740, 421.228 
" />
<path d="M 253.347, 708.661 
	L 253.346, 708.662 
	L 253.346, 421.228 
" />
<path d="M 257.954, 708.661 
	L 257.953, 708.662 
	L 257.953, 421.228 
" />
<path d="M 262.560, 708.661 
	L 262.559, 708.662 
	L 262.559, 421.228 
" />
<path d="M 267.166, 708.661 
	L 267.165, 708.662 
	L 267.165, 421.228 
" />
<path d="M 271.772, 708.661 
	L 271.772, 708.662 
	L 271.772, 421.228 
" />
<path d="M 276.379, 708.661 
	L 276.378, 708.662 
	L 276.378, 421.228 
" />
<path d="M 280.985, 708.661 
	L 280.984, 708.662 
	L 280.984, 421.228 
" />
<path d="M 285.591, 708.661 
	L 285.591, 708.662 
	L 285.591, 421.228 
" />
<path d="M 290.198, 708.661 
	L 290.197, 708.662 
	L 290.197, 421.228 
" />
</g><g style="stroke:rgb(255,0,0); fill:none; stroke-width:0.100mm" >
<path d="M 0.001, 421.228 
	L 0.000, 421.228 
	L 0.000, 0.000 
	L 297.780, 0.000 
	L 297.780, 421.228 
	L 0.000, 421.228 
" />
<path d="M 0.001, 421.228 
	L 0.000, 421.228 
	L 0.000, 0.000 
" />
<path d="M 4.607, 421.228 
	L 4.606, 421.228 
	L 4.606, 0.000 
" />
<path d="M 9.213, 421.228 
	L 9.213, 421.228 
	L 9.213, 0.000 
" />
<path d="M 13.820, 421.228 
	L 13.819, 421.228 
	L 13.819, 0.000 
" />
<path d="M 18.426, 421.228 
	L 18.425, 421.228 
	L 18.425, 0.000 
" />
<path d="M 23.032, 421.228 
	L 23.031, 421.228 
	L 23.031, 0.000 
" />
<path d="M 27.639, 421.228 
	L 27.638, 421.228 
	L 27.638, 0.000 
" />
<path d="M 32.245, 421.228 
	L 32.244, 421.228 
	L 32.244, 0.000 
" />
<path d="M 36.851, 421.228 
	L 36.850, 421.228 
	L 36.850, 0.000 
" />
<path d="M 41.457, 421.228 
	L 41.457, 421.228 
	L 41.457, 0.000 
" />
<path d="M 46.064, 421.228 
	L 46.063, 421.228 
	L 46.063, 0.000 
" />
<path d="M 50.670, 421.228 
	L 50.669, 421.228 
	L 50.669, 0.000 
" />
<path d="M 55.276, 421.228 
	L 55.276, 421.228 
	L 55.276, 0.000 
" />
<path d="M 59.883, 421.228 
	L 59.882, 421.228 
	L 59.882, 0.000 
" />
<path d="M 64.489, 421.228 
	L 64.488, 421.228 
	L 64.488, 0.000 
" />
<path d="M 69.095, 421.228 
	L 69.094, 421.228 
	L 69.094, 0.000 
" />
<path d="M 73.702, 421.228 
	L 73.701, 421.228 
	L 73.701, 0.000 
" />
<path d="M 78.308, 421.228 
	L 78.307, 421.228 
	L 78.307, 0.000 
" />
<path d="M 82.914, 421.228 
	L 82.913, 421.228 
	L 82.913, 0.000 
" />
<path d="M 87.520, 421.228 
	L 87.520, 421.228 
	L 87.520, 0.000 
" />
<path d="M 92.127, 421.228 
	L 92.126, 421.228 
	L 92.126, 0.000 
" />
<path d="M 96.733, 421.228 
	L 96.732, 421.228 
	L 96.732, 0.000 
" />
<path d="M 101.339, 421.228 
	L 101.339, 421.228 
	L 101.339, 0.000 
" />
<path d="M 105.946, 421.228 
	L 105.945, 421.228 
	L 105.945, 0.000 
" />
<path d="M 110.552, 421.228 
	L 110.551, 421.228 
	L 110.551, 0.000 
" />
<path d="M 115.158, 421.228 
	L 115.157, 421.228 
	L 115.157, 0.000 
" />
<path d="M 119.765, 421.228 
	L 119.764, 421.228 
	L 119.764, 0.000 
" />
<path d="M 124.371, 421.228 
	L 124.370, 421.228 
	L 124.370, 0.000 
" />
<path d="M 128.977, 421.228 
	L 128.976, 421.228 
	L 128.976, 0.000 
" />
<path d="M 133.583, 421.228 
	L 133.583, 421.228 
	L 133.583, 0.000 
" />
<path d="M 138.190, 421.228 
	L 138.189, 421.228 
	L 138.189, 0.000 
" />
<path d="M 142.796, 421.228 
	L 142.795, 421.228 
	L 142.795, 0.000 
" />
<path d="M 147.402, 421.228 
	L 147.402, 421.228 
	L 147.402, 0.000 
" />
<path d="M 152.009, 421.228 
	L 152.008, 421.228 
	L 152.008, 0.000 
" />
<path d="M 156.615, 421.228 
	L 156.614, 421.228 
	L 156.614, 0.000 
" />
<path d="M 161.221, 421.228 
	L 161.220, 421.228 
	L 161.220, 0.000 
" />
<path d="M 165.828, 421.228 
	L 165.827, 421.228 
	L 165.827, 0.000 
" />
<path d="M 170.434, 421.228 
	L 170.433, 421.228 
	L 170.433, 0.000 
" />
<path d="M 175.040, 421.228 
	L 175.039, 421.228 
	L 175.039, 0.000 
" />
<path d="M 179.646, 421.228 
	L 179.646, 421.228 
	L 179.646, 0.000 
" />
<path d="M 184.253, 421.228 
	L 184.252, 421.228 
	L 184.252, 0.000 
" />
<path d="M 188.859, 421.228 
	L 188.858, 421.228 
	L 188.858, 0.000 
" />
<path d="M 193.465, 421.228 
	L 193.465, 421.228 
	L 193.465, 0.000 
" />
<path d="M 198.072, 421.228 
	L 198.071, 421.228 
	L 198.071, 0.000 
" />
<path d="M 202.678, 421.228 
	L 202.677, 421.228 
	L 202.677, 0.000 
" />
<path d="M 207.284, 421.228 
	L 207.283, 421.228 
	L 207.283, 0.000 
" />
<path d="M 211.891, 421.228 
	L 211.890, 421.228 
	L 211.890, 0.000 
" />
<path d="M 216.497, 421.228 
	L 216.496, 421.228 
	L 216.496, 0.000 
" />
<path d="M 221.103, 421.228 
	L 221.102, 421.228 
	L 221.102, 0.000 
" />
<path d="M 225.709, 421.228 
	L 225.709, 421.228 
	L 225.709, 0.000 
" />
<path d="M 230.316, 421.228 
	L 230.315, 421.228 
	L 230.315, 0.000 
" />
<path d="M 234.922, 421.228 
	L 234.921, 421.228 
	L 234.921, 0.000 
" />
<path d="M 239.528, 421.228 
	L 239.528, 421.228 
	L 239.528, 0.000 
" />
<path d="M 244.135, 421.228 
	L 244.134, 421.228 
	L 244.134, 0.000 
" />
<path d="M 248.741, 421.228 
	L 248.740, 421.228 
	L 248.740, 0.000 
" />
<path d="M 253.347, 421.228 
	L 253.346, 421.228 
	L 253.346, 0.000 
" />
<path d="M 257.954, 421.228 
	L 257.953, 421.228 
	L 257.953, 0.000 
" />
<path d="M 262.560, 421.228 
	L 262.559, 421.228 
	L 262.559, 0.000 
" />
<path d="M 267.166, 421.228 
	L 267.165, 421.228 
	L 267.165, 0.000 
" />
<path d="M 271.772, 421.228 
	L 271.772, 421.228 
	L 271.772, 0.000 
" />
<path d="M 276.379, 421.228 
	L 276.378, 421.228 
	L 276.378, 0.000 
" />
<path d="M 280.985, 421.228 
	L 280.984, 421.228 
	L 280.984, 0.000 
" />
<path d="M 285.591, 421.228 
	L 285.591, 421.228 
	L 285.591, 0.000 
" />
<path d="M 290.198, 421.228 
	L 290.197, 421.228 
	L 290.197, 0.000 
" />
</g><g style="stroke:rgb(0,255,0); fill:none; stroke-width:0.100mm" >
<path d="M 297.780, 421.228 
	L 297.780, 421.228 
	L 297.780, 0.000 
	L 708.662, 0.000 
	L 708.662, 421.228 
	L 297.780, 421.228 
" />
<path d="M 297.780, 421.228 
	L 297.780, 421.228 
	L 297.780, 0.000 
" />
<path d="M 302.316, 421.228 
	L 302.315, 421.228 
	L 302.315, 0.000 
" />
<path d="M 306.851, 421.228 
	L 306.850, 421.228 
	L 306.850, 0.000 
" />
<path d="M 311.387, 421.228 
	L 311.386, 421.228 
	L 311.386, 0.000 
" />
<path d="M 315.922, 421.228 
	L 315.921, 421.228 
	L 315.921, 0.000 
" />
<path d="M 320.457, 421.228 
	L 320.457, 421.228 
	L 320.457, 0.000 
" />
<path d="M 324.993, 421.228 
	L 324.992, 421.228 
	L 324.992, 0.000 
" />
<path d="M 329.528, 421.228 
	L 329.528, 421.228 
	L 329.528, 0.000 
" />
<path d="M 334.064, 421.228 
	L 334.063, 421.228 
	L 334.063, 0.000 
" />
<path d="M 338.599, 421.228 
	L 338.598, 421.228 
	L 338.598, 0.000 
" />
<path d="M 343.135, 421.228 
	L 343.134, 421.228 
	L 343.134, 0.000 
" />
<path d="M 347.670, 421.228 
	L 347.669, 421.228 
	L 347.669, 0.000 
" />
<path d="M 352.205, 421.228 
	L 352.205, 421.228 
	L 352.205, 0.000 
" />
<path d="M 356.741, 421.228 
	L 356.740, 421.228 
	L 356.740, 0.000 
" />
<path d="M 361.276, 421.228 
	L 361.276, 421.228 
	L 361.276, 0.000 
" />
<path d="M 365.812, 421.228 
	L 365.811, 421.228 
	L 365.811, 0.000 
" />
<path d="M 370.347, 421.228 
	L 370.347, 421.228 
	L 370.347, 0.000 
" />
<path d="M 374.883, 421.228 
	L 374.882, 421.228 
	L 374.882, 0.000 
" />
<path d="M 379.418, 421.228 
	L 379.417, 421.228 
	L 379.417, 0.000 
" />
<path d="M 383.954, 421.228 
	L 383.953, 421.228 
	L 383.953, 0.000 
" />
<path d="M 388.489, 421.228 
	L 388.488, 421.228 
	L 388.488, 0.000 
" />
<path d="M 393.024, 421.228 
	L 393.024, 421.228 
	L 393.024, 0.000 
" />
<path d="M 397.560, 421.228 
	L 397.559, 421.228 
	L 397.559, 0.000 
" />
<path d="M 402.095, 421.228 
	L 402.095, 421.228 
	L 402.095, 0.000 
" />
<path d="M 406.631, 421.228 
	L 406.630, 421.228 
	L 406.630, 0.000 
" />
<path d="M 411.166, 421.228 
	L 411.165, 421.228 
	L 411.165, 0.000 
" />
<path d="M 415.702, 421.228 
	L 415.701, 421.228 
	L 415.701, 0.000 
" />
<path d="M 420.237, 421.228 
	L 420.236, 421.228 
	L 420.236, 0.000 
" />
<path d="M 424.772, 421.228 
	L 424.772, 421.228 
	L 424.772, 0.000 
" />
<path d="M 429.308, 421.228 
	L 429.307, 421.228 
	L 429.307, 0.000 
" />
<path d="M 433.843, 421.228 
	L 433.843, 421.228 
	L 433.843, 0.000 
" />
<path d="M 438.379, 421.228 
	L 438.378, 421.228 
	L 438.378, 0.000 
" />
<path d="M 442.914, 421.228 
	L 442.913, 421.228 
	L 442.913, 0.000 
" />
<path d="M 447.450, 421.228 
	L 447.449, 421.228 
	L 447.449, 0.000 
" />
<path d="M 451.985, 421.228 
	L 451.984, 421.228 
	L 451.984, 0.000 
" />
<path d="M 456.520, 421.228 
	L 456.520, 421.228 
	L 456.520, 0.000 
" />
<path d="M 461.056, 421.228 
	L 461.055, 421.228 
	L 461.055, 0.000 
" />
<path d="M 465.591, 421.228 
	L 465.591, 421.228 
	L 465.591, 0.000 
" />
<path d="M 470.127, 421.228 
	L 470.126, 421.228 
	L 470.126, 0.000 
" />
<path d="M 474.662, 421.228 
	L 474.661, 421.228 
	L 474.661, 0.000 
" />
<path d="M 479.198, 421.228 
	L 479.197, 421.228 
	L 479.197, 0.000 
" />
<path d="M 483.733, 421.228 
	L 483.732, 421.228 
	L 483.732, 0.000 
" />
<path d="M 488.268, 421.228 
	L 488.268, 421.228 
	L 488.268, 0.000 
" />
<path d="M 492.804, 421.228 
	L 492.803, 421.228 
	L 492.803, 0.000 
" />
<path d="M 497.339, 421.228 
	L 497.339, 421.228 
	L 497.339, 0.000 
" />
<path d="M 501.875, 421.228 
	L 501.874, 421.228 
	L 501.874, 0.000 
" />
<path d="M 506.410, 421.228 
	L 506.410, 421.228 
	L 506.410, 0.000 
" />
<path d="M 510.946, 421.228 
	L 510.945, 421.228 
	L 510.945, 0.000 
" />
<path d="M 515.481, 421.228 
	L 515.480, 421.228 
	L 515.480, 0.000 
" />
<path d="M 520.017, 421.228 
	L 520.016, 421.228 
	L 520.016, 0.000 
" />
<path d="M 524.552, 421.228 
	L 524.551, 421.228 
	L 524.551, 0.000 
" />
<path d="M 529.087, 421.228 
	L 529.087, 421.228 
	L 529.087, 0.000 
" />
<path d="M 533.623, 421.228 
	L 533.622, 421.228 
	L 533.622, 0.000 
" />
<path d="M 538.158, 421.228 
	L 538.158, 421.228 
	L 538.158, 0.000 
" />
<path d="M 542.694, 421.228 
	L 542.693, 421.228 
	L 542.693, 0.000 
" />
<path d="M 547.229, 421.228 
	L 547.228, 421.228 
	L 547.228, 0.000 
" />
<path d="M 551.765, 421.228 
	L 551.764, 421.228 
	L 551.764, 0.000 
" />
<path d="M 556.300, 421.228 
	L 556.299, 421.228 
	L 556.299, 0.000 
" />
<path d="M 560.835, 421.228 
	L 560.835, 421.228 
	L 560.835, 0.000 
" />
<path d="M 565.371, 421.228 
	L 565.370, 421.228 
	L 565.370, 0.000 
" />
<path d="M 569.906, 421.228 
	L 569.906, 421.228 
	L 569.906, 0.000 
" />
<path d="M 574.442, 421.228 
	L 574.441, 421.228 
	L 574.441, 0.000 
" />
<path d="M 578.977, 421.228 
	L 578.976, 421.228 
	L 578.976, 0.000 
" />
<path d="M 583.513, 421.228 
	L 583.512, 421.228 
	L 583.512, 0.000 
" />
<path d="M 588.048, 421.228 
	L 588.047, 421.228 
	L 588.047, 0.000 
" />
<path d="M 592.583, 421.228 
	L 592.583, 421.228 
	L 592.583, 0.000 
" />
<path d="M 597.119, 421.228 
	L 597.118, 421.228 
	L 597.118, 0.000 
" />
<path d="M 601.654, 421.228 
	L 601.654, 421.228 
	L 601.654, 0.000 
" />
<path d="M 606.190, 421.228 
	L 606.189, 421.228 
	L 606.189, 0.000 
" />
<path d="M 610.725, 421.228 
	L 610.725, 421.228 
	L 610.725, 0.000 
" />
<path d="M 615.261, 421.228 
	L 615.260, 421.228 
	L 615.260, 0.000 
" />
<path d="M 619.796, 421.228 
	L 619.795, 421.228 
	L 619.795, 0.000 
" />
<path d="M 624.331, 421.228 
	L 624.331, 421.228 
	L 624.331, 0.000 
" />
<path d="M 628.867, 421.228 
	L 628.866, 421.228 
	L 628.866, 0.000 
" />
<path d="M 633.402, 421.228 
	L 633.402, 421.228 
	L 633.402, 0.000 
" />
<path d="M 637.938, 421.228 
	L 637.937, 421.228 
	L 637.937, 0.000 
" />
<path d="M 642.473, 421.228 
	L 642.473, 421.228 
	L 642.473, 0.000 
" />
<path d="M 647.009, 421.228 
	L 647.008, 421.228 
	L 647.008, 0.000 
" />
<path d="M 651.544, 421.228 
	L 651.543, 421.228 
	L 651.543, 0.000 
" />
<path d="M 656.080, 421.228 
	L 656.079, 421.228 
	L 656.079, 0.000 
" />
<path d="M 660.615, 421.228 
	L 660.614, 421.228 
	L 660.614, 0.000 
" />
<path d="M 665.150, 421.228 
	L 665.150, 421.228 
	L 665.150, 0.000 
" />
<path d="M 669.686, 421.228 
	L 669.685, 421.228 
	L 669.685, 0.000 
" />
<path d="M 674.221, 421.228 
	L 674.221, 421.228 
	L 674.221, 0.000 
" />
<path d="M 678.757, 421.228 
	L 678.756, 421.228 
	L 678.756, 0.000 
" />
<path d="M 683.292, 421.228 
	L 683.291, 421.228 
	L 683.291, 0.000 
" />
<path d="M 687.828, 421.228 
	L 687.827, 421.228 
	L 687.827, 0.000 
" />
<path d="M 692.363, 421.228 
	L 692.362, 421.228 
	L 692.362, 0.000 
" />
<path d="M 696.898, 421.228 
	L 696.898, 421.228 
	L 696.898, 0.000 
" />
<path d="M 701.434, 421.228 
	L 701.433, 421.228 
	L 701.433, 0.000 
" />
</g><g style="stroke:rgb(0,0,255); fill:none; stroke-width:0.100mm" >
<path d="M 297.780, 708.661 
	L 297.780, 708.662 
	L 297.780, 421.228 
	L 708.662, 421.228 
	L 708.662, 708.662 
	L 297.780, 708.662 
" />
<path d="M 297.780, 708.661 
	L 297.780, 708.662 
	L 297.780, 421.228 
" />
<path d="M 302.316, 708.661 
	L 302.315, 708.662 
	L 302.315, 421.228 
" />
<path d="M 306.851, 708.661 
	L 306.850, 708.662 
	L 306.850, 421.228 
" />
<path d="M 311.387, 708.661 
	L 311.386, 708.662 
	L 311.386, 421.228 
" />
<path d="M 315.922, 708.661 
	L 315.921, 708.662 
	L 315.921, 421.228 
" />
<path d="M 320.457, 708.661 
	L 320.457, 708.662 
	L 320.457, 421.228 
" />
<path d="M 324.993, 708.661 
	L 324.992, 708.662 
	L 324.992, 421.228 
" />
<path d="M 329.528, 708.661 
	L 329.528, 708.662 
	L 329.528, 421.228 
" />
<path d="M 334.064, 708.661 
	L 334.063, 708.662 
	L 334.063, 421.228 
" />
<path d="M 338.599, 708.661 
	L 338.598, 708.662 
	L 338.598, 421.228 
" />
<path d="M 343.135, 708.661 
	L 343.134, 708.662 
	L 343.134, 421.228 
" />
<path d="M 347.670, 708.661 
	L 347.669, 708.662 
	L 347.669, 421.228 
" />
<path d="M 352.205, 708.661 
	L 352.205, 708.662 
	L 352.205, 421.228 
" />
<path d="M 356.741, 708.661 
	L 356.740, 708.662 
	L 356.740, 421.228 
" />
<path d="M 361.276, 708.661 
	L 361.276, 708.662 
	L 361.276, 421.228 
" />
<path d="M 365.812, 708.661 
	L 365.811, 708.662 
	L 365.811, 421.228 
" />
<path d="M 370.347, 708.661 
	L 370.347, 708.662 
	L 370.347, 421.228 
" />
<path d="M 374.883, 708.661 
	L 374.882, 708.662 
	L 374.882, 421.228 
" />
<path d="M 379.418, 708.661 
	L 379.417, 708.662 
	L 379.417, 421.228 
" />
<path d="M 383.954, 708.661 
	L 383.953, 708.662 
	L 383.953, 421.228 
" />
<path d="M 388.489, 708.661 
	L 388.488, 708.662 
	L 388.488, 421.228 
" />
<path d="M 393.024, 708.661 
	L 393.024, 708.662 
	L 393.024, 421.228 
" />
<path d="M 397.560, 708.661 
	L 397.559, 708.662 
	L 397.559, 421.228 
" />
<path d="M 402.095, 708.661 
	L 402.095, 708.662 
	L 402.095, 421.228 
" />
<path d="M 406.631, 708.661 
	L 406.630, 708.662 
	L 406.630, 421.228 
" />
<path d="M 411.166, 708.661 
	L 411.165, 708.662 
	L 411.165, 421.228 
" />
<path d="M 415.702, 708.661 
	L 415.701, 708.662 
	L 415.701, 421.228 
" />
<path d="M 420.237, 708.661 
	L 420.236, 708.662 
	L 420.236, 421.228 
" />
<path d="M 424.772, 708.661 
	L 424.772, 708.662 
	L 424.772, 421.228 
" />
<path d="M 429.308, 708.661 
	L 429.307, 708.662 
	L 429.307, 421.228 
" />
<path d="M 433.843, 708.661 
	L 433.843, 708.662 
	L 433.843, 421.228 
" />
<path d="M 438.379, 708.661 
	L 438.378, 708.662 
	L 438.378, 421.228 
" />
<path d="M 442.914, 708.661 
	L 442.913, 708.662 
	L 442.913, 421.228 
" />
<path d="M 447.450, 708.661 
	L 447.449, 708.662 
	L 447.449, 421.228 
" />
<path d="M 451.985, 708.661 
	L 451.984, 708.662 
	L 451.984, 421.228 
" />
<path d="M 456.520, 708.661 
	L 456.520, 708.662 
	L 456.520, 421.228 
" />
<path d="M 461.056, 708.661 
	L 461.055, 708.662 
	L 461.055, 421.228 
" />
<path d="M 465.591, 708.661 
	L 465.591, 708.662 
	L 465.591, 421.228 
" />
<path d="M 470.127, 708.661 
	L 470.126, 708.662 
	L 470.126, 421.228 
" />
<path d="M 474.662, 708.661 
	L 474.661, 708.662 
	L 474.661, 421.228 
" />
<path d="M 479.198, 708.661 
	L 479.197, 708.662 
	L 479.197, 421.228 
" />
<path d="M 483.733, 708.661 
	L 483.732, 708.662 
	L 483.732, 421.228 
" />
<path d="M 488.268, 708.661 
	L 488.268, 708.662 
	L 488.268, 421.228 
" />
<path d="M 492.804, 708.661 
	L 492.803, 708.662 
	L 492.803, 421.228 
" />
<path d="M 497.339, 708.661 
	L 497.339, 708.662 
	L 497.339, 421.228 
" />
<path d="M 501.875, 708.661 
	L 501.874, 708.662 
	L 501.874, 421.228 
" />
<path d="M 506.410, 708.661 
	L 506.410, 708.662 
	L 506.410, 421.228 
" />
<path d="M 510.946, 708.661 
	L 510.945, 708.662 
	L 510.945, 421.228 
" />
<path d="M 515.481, 708.661 
	L 515.480, 708.662 
	L 515.480, 421.228 
" />
<path d="M 520.017, 708.661 
	L 520.016, 708.662 
	L 520.016, 421.228 
" />
<path d="M 524.552, 708.661 
	L 524.551, 708.662 
	L 524.551, 421.228 
" />
<path d="M 529.087, 708.661 
	L 529.087, 708.662 
	L 529.087, 421.228 
" />
<path d="M 533.623, 708.661 
	L 533.622, 708.662 
	L 533.622, 421.228 
" />
<path d="M 538.158, 708.661 
	L 538.158, 708.662 
	L 538.158, 421.228 
" />
<path d="M 542.694, 708.661 
	L 542.693, 708.662 
	L 542.693, 421.228 
" />
<path d="M 547.229, 708.661 
	L 547.228, 708.662 
	L 547.228, 421.228 
" />
<path d="M 551.765, 708.661 
	L 551.764, 708.662 
	L 551.764, 421.228 
" />
<path d="M 556.300, 708.661 
	L 556.299, 708.662 
	L 556.299, 421.228 
" />
<path d="M 560.835, 708.661 
	L 560.835, 708.662 
	L 560.835, 421.228 
" />
<path d="M 565.371, 708.661 
	L 565.370, 708.662 
	L 565.370, 421.228 
" />
<path d="M 569.906, 708.661 
	L 569.906, 708.662 
	L 569.906, 421.228 
" />
<path d="M 574.442, 708.661 
	L 574.441, 708.662 
	L 574.441, 421.228 
" />
<path d="M 578.977, 708.661 
	L 578.976, 708.662 
	L 578.976, 421.228 
" />
<path d="M 583.513, 708.661 
	L 583.512, 708.662 
	L 583.512, 421.228 
" />
<path d="M 588.048, 708.661 
	L 588.047, 708.662 
	L 588.047, 421.228 
" />
<path d="M 592.583, 708.661 
	L 592.583, 708.662 
	L 592.583, 421.228 
" />
<path d="M 597.119, 708.661 
	L 597.118, 708.662 
	L 597.118, 421.228 
" />
<path d="M 601.654, 708.661 
	L 601.654, 708.662 
	L 601.654, 421.228 
" />
<path d="M 606.190, 708.661 
	L 606.189, 708.662 
	L 606.189, 421.228 
" />
<path d="M 610.725, 708.661 
	L 610.725, 708.662 
	L 610.725, 421.228 
" />
<path d="M 615.261, 708.661 
	L 615.260, 708.662 
	L 615.260, 421.228 
" />
<path d="M 619.796, 708.661 
	L 619.795, 708.662 
	L 619.795, 421.228 
" />
<path d="M 624.331, 708.661 
	L 624.331, 708.662 
	L 624.331, 421.228 
" />
<path d="M 628.867, 708.661 
	L 628.866, 708.662 
	L 628.866, 421.228 
" />
<path d="M 633.402, 708.661 
	L 633.402, 708.662 
	L 633.402, 421.228 
" />
<path d="M 637.938, 708.661 
	L 637.937, 708.662 
	L 637.937, 421.228 
" />
<path d="M 642.473, 708.661 
	L 642.473, 708.662 
	L 642.473, 421.228 
" />
<path d="M 647.009, 708.661 
	L 647.008, 708.662 
	L 647.008, 421.228 
" />
<path d="M 651.544, 708.661 
	L 651.543, 708.662 
	L 651.543, 421.228 
" />
<path d="M 656.080, 708.661 
	L 656.079, 708.662 
	L 656.079, 421.228 
" />
<path d="M 660.615, 708.661 
	L 660.614, 708.662 
	L 660.614, 421.228 
" />
<path d="M 665.150, 708.661 
	L 665.150, 708.662 
	L 665.150, 421.228 
" />
<path d="M 669.686, 708.661 
	L 669.685, 708.662 
	L 669.685, 421.228 
" />
<path d="M 674.221, 708.661 
	L 674.221, 708.662 
	L 674.221, 421.228 
" />
<path d="M 678.757, 708.661 
	L 678.756, 708.662 
	L 678.756, 421.228 
" />
<path d="M 683.292, 708.661 
	L 683.291, 708.662 
	L 683.291, 421.228 
" />
<path d="M 687.828, 708.661 
	L 687.827, 708.662 
	L 687.827, 421.228 
" />
<path d="M 692.363, 708.661 
	L 692.362, 708.662 
	L 692.362, 421.228 
" />
<path d="M 696.898, 708.661 
	L 696.898, 708.662 
	L 696.898, 421.228 
" />
<path d="M 701.434, 708.661 
	L 701.433, 708.662 
	L 701.433, 421.228 
" />
</g>
</svg>
