<?xml version="1.0" encoding="UTF-8" standalone="no" ?>
<svg width="100%" height="100%" viewBox="0 0 1135.276 708.662" xmlns="http://www.w3.org/2000/svg"><g>
</g><g style="stroke:rgb(0,0,0); fill:none; stroke-width:1.000mm" >
</g><g style="stroke:rgb(0,0,0); fill:none; stroke-width:0.100mm" >
<path d="M 1.347, 704.409 
	L 1.346, 704.410 
	L 1.346, 690.732 
" />
<path d="M 6.662, 704.409 
	L 6.661, 704.410 
	L 6.661, 690.732 
" />
<path d="M 1.347, 708.661 
	L 1.346, 708.662 
	L 1.346, 704.410 
" />
<path d="M 7.016, 708.661 
	L 7.016, 708.662 
	L 7.016, 704.410 
" />
<path d="M 0.001, 690.732 
	L 0.000, 690.732 
	L 0.000, 688.110 
" />
<path d="M 4.749, 688.110 
	L 4.748, 688.110 
	L 4.748, 667.276 
" />
<path d="M 4.749, 690.732 
	L 4.748, 690.732 
	L 4.748, 688.110 
" />
<path d="M 12.757, 690.732 
	L 12.756, 690.732 
	L 12.756, 688.606 
" />
<path d="M 12.757, 688.606 
	L 12.756, 688.606 
	L 12.756, 667.276 
" />
<path d="M 17.363, 688.606 
	L 17.362, 688.606 
	L 17.362, 667.276 
" />
<path d="M 22.607, 688.606 
	L 22.606, 688.606 
	L 22.606, 667.276 
" />
<path d="M 26.859, 688.606 
	L 26.858, 688.606 
	L 26.858, 667.276 
" />
<path d="M 31.111, 688.606 
	L 31.110, 688.606 
	L 31.110, 667.276 
" />
<path d="M 35.363, 688.606 
	L 35.362, 688.606 
	L 35.362, 667.276 
" />
<path d="M 39.615, 688.606 
	L 39.614, 688.606 
	L 39.614, 667.276 
" />
<path d="M 43.867, 688.606 
	L 43.866, 688.606 
	L 43.866, 667.276 
" />
<path d="M 48.119, 688.606 
	L 48.118, 688.606 
	L 48.118, 667.276 
" />
<path d="M 52.371, 688.606 
	L 52.370, 688.606 
	L 52.370, 667.276 
" />
<path d="M 56.623, 688.606 
	L 56.622, 688.606 
	L 56.622, 667.276 
" />
<path d="M 22.607, 690.732 
	L 22.606, 690.732 
	L 22.606, 688.606 
" />
<path d="M 27.213, 690.732 
	L 27.213, 690.732 
	L 27.213, 688.606 
" />
<path d="M 31.820, 690.732 
	L 31.819, 690.732 
	L 31.819, 688.606 
" />
<path d="M 36.426, 690.732 
	L 36.425, 690.732 
	L 36.425, 688.606 
" />
<path d="M 41.032, 690.732 
	L 41.032, 690.732 
	L 41.032, 688.606 
" />
<path d="M 45.639, 690.732 
	L 45.638, 690.732 
	L 45.638, 688.606 
" />
<path d="M 50.245, 690.732 
	L 50.244, 690.732 
	L 50.244, 688.606 
" />
<path d="M 54.851, 690.732 
	L 54.850, 690.732 
	L 54.850, 688.606 
" />
<path d="M 59.457, 690.732 
	L 59.457, 690.732 
	L 59.457, 688.606 
" />
<path d="M 12.757, 708.661 
	L 12.756, 708.662 
	L 12.756, 705.473 
" />
<path d="M 18.426, 708.661 
	L 18.425, 708.662 
	L 18.425, 705.473 
" />
<path d="M 24.095, 708.661 
	L 24.094, 708.662 
	L 24.094, 705.473 
" />
<path d="M 12.757, 705.472 
	L 12.756, 705.473 
	L 12.756, 690.732 
" />
<path d="M 18.426, 705.472 
	L 18.425, 705.473 
	L 18.425, 690.732 
" />
<path d="M 24.095, 705.472 
	L 24.094, 705.473 
	L 24.094, 690.732 
" />
<path d="M 30.827, 705.472 
	L 30.827, 705.473 
	L 30.827, 690.732 
" />
<path d="M 36.142, 705.472 
	L 36.142, 705.473 
	L 36.142, 690.732 
" />
<path d="M 41.457, 705.472 
	L 41.457, 705.473 
	L 41.457, 690.732 
" />
<path d="M 46.772, 705.472 
	L 46.772, 705.473 
	L 46.772, 690.732 
" />
<path d="M 52.087, 705.472 
	L 52.087, 705.473 
	L 52.087, 690.732 
" />
<path d="M 57.402, 705.472 
	L 57.402, 705.473 
	L 57.402, 690.732 
" />
<path d="M 30.827, 708.661 
	L 30.827, 708.662 
	L 30.827, 705.473 
" />
<path d="M 35.079, 708.661 
	L 35.079, 708.662 
	L 35.079, 705.473 
" />
<path d="M 39.331, 708.661 
	L 39.331, 708.662 
	L 39.331, 705.473 
" />
<path d="M 43.583, 708.661 
	L 43.583, 708.662 
	L 43.583, 705.473 
" />
<path d="M 47.835, 708.661 
	L 47.835, 708.662 
	L 47.835, 705.473 
" />
<path d="M 52.087, 708.661 
	L 52.087, 708.662 
	L 52.087, 705.473 
" />
<path d="M 56.339, 708.661 
	L 56.339, 708.662 
	L 56.339, 705.473 
" />
<path d="M 0.001, 667.275 
	L 0.000, 667.276 
	L 0.000, 562.890 
" />
<path d="M 0.001, 562.889 
	L 0.000, 562.890 
	L 0.000, 355.465 
" />
<path d="M 5.670, 562.889 
	L 5.669, 562.890 
	L 5.669, 355.465 
" />
<path d="M 10.205, 562.889 
	L 10.205, 562.890 
	L 10.205, 355.465 
" />
<path d="M 14.741, 562.889 
	L 14.740, 562.890 
	L 14.740, 355.465 
" />
<path d="M 19.276, 562.889 
	L 19.276, 562.890 
	L 19.276, 355.465 
" />
<path d="M 5.670, 667.275 
	L 5.669, 667.276 
	L 5.669, 562.890 
" />
<path d="M 11.339, 667.275 
	L 11.339, 667.276 
	L 11.339, 562.890 
" />
<path d="M 17.009, 667.275 
	L 17.008, 667.276 
	L 17.008, 562.890 
" />
<path d="M 0.001, 355.464 
	L 0.000, 355.465 
	L 0.000, 354.614 
" />
<path d="M 0.001, 354.614 
	L 0.000, 354.614 
	L 0.000, 0.000 
" />
<path d="M 6.450, 354.614 
	L 6.449, 354.614 
	L 6.449, 0.000 
" />
<path d="M 10.701, 354.614 
	L 10.701, 354.614 
	L 10.701, 0.000 
" />
<path d="M 14.953, 354.614 
	L 14.953, 354.614 
	L 14.953, 0.000 
" />
<path d="M 19.205, 354.614 
	L 19.205, 354.614 
	L 19.205, 0.000 
" />
<path d="M 6.450, 355.464 
	L 6.449, 355.465 
	L 6.449, 354.614 
" />
<path d="M 10.985, 355.464 
	L 10.984, 355.465 
	L 10.984, 354.614 
" />
<path d="M 15.520, 355.464 
	L 15.520, 355.465 
	L 15.520, 354.614 
" />
<path d="M 20.056, 355.464 
	L 20.055, 355.465 
	L 20.055, 354.614 
" />
<path d="M 28.135, 354.684 
	L 28.134, 354.685 
	L 28.134, 0.000 
" />
<path d="M 32.670, 354.684 
	L 32.669, 354.685 
	L 32.669, 0.000 
" />
<path d="M 37.205, 354.684 
	L 37.205, 354.685 
	L 37.205, 0.000 
" />
<path d="M 41.741, 354.684 
	L 41.740, 354.685 
	L 41.740, 0.000 
" />
<path d="M 46.276, 354.684 
	L 46.276, 354.685 
	L 46.276, 0.000 
" />
<path d="M 50.812, 354.684 
	L 50.811, 354.685 
	L 50.811, 0.000 
" />
<path d="M 55.347, 354.684 
	L 55.346, 354.685 
	L 55.346, 0.000 
" />
<path d="M 28.135, 355.464 
	L 28.134, 355.465 
	L 28.134, 354.685 
" />
<path d="M 32.741, 355.464 
	L 32.740, 355.465 
	L 32.740, 354.685 
" />
<path d="M 37.347, 355.464 
	L 37.346, 355.465 
	L 37.346, 354.685 
" />
<path d="M 41.953, 355.464 
	L 41.953, 355.465 
	L 41.953, 354.685 
" />
<path d="M 46.560, 355.464 
	L 46.559, 355.465 
	L 46.559, 354.685 
" />
<path d="M 51.166, 355.464 
	L 51.165, 355.465 
	L 51.165, 354.685 
" />
<path d="M 55.772, 355.464 
	L 55.772, 355.465 
	L 55.772, 354.685 
" />
<path d="M 31.324, 642.543 
	L 31.323, 642.543 
	L 31.323, 355.465 
" />
<path d="M 35.576, 642.543 
	L 35.575, 642.543 
	L 35.575, 355.465 
" />
<path d="M 39.827, 642.543 
	L 39.827, 642.543 
	L 39.827, 355.465 
" />
<path d="M 44.079, 642.543 
	L 44.079, 642.543 
	L 44.079, 355.465 
" />
<path d="M 48.331, 642.543 
	L 48.331, 642.543 
	L 48.331, 355.465 
" />
<path d="M 52.583, 642.543 
	L 52.583, 642.543 
	L 52.583, 355.465 
" />
<path d="M 56.835, 642.543 
	L 56.835, 642.543 
	L 56.835, 355.465 
" />
<path d="M 31.324, 667.275 
	L 31.323, 667.276 
	L 31.323, 642.543 
" />
<path d="M 35.930, 667.275 
	L 35.929, 667.276 
	L 35.929, 642.543 
" />
<path d="M 40.536, 667.275 
	L 40.535, 667.276 
	L 40.535, 642.543 
" />
<path d="M 45.142, 667.275 
	L 45.142, 667.276 
	L 45.142, 642.543 
" />
<path d="M 49.749, 667.275 
	L 49.748, 667.276 
	L 49.748, 642.543 
" />
<path d="M 54.355, 667.275 
	L 54.354, 667.276 
	L 54.354, 642.543 
" />
<path d="M 58.961, 667.275 
	L 58.961, 667.276 
	L 58.961, 642.543 
" />
<path d="M 64.843, 614.763 
	L 64.843, 614.764 
	L 64.843, 454.819 
" />
<path d="M 69.450, 614.763 
	L 69.449, 614.764 
	L 69.449, 454.819 
" />
<path d="M 74.056, 614.763 
	L 74.055, 614.764 
	L 74.055, 454.819 
" />
<path d="M 78.662, 614.763 
	L 78.661, 614.764 
	L 78.661, 454.819 
" />
<path d="M 83.268, 614.763 
	L 83.268, 614.764 
	L 83.268, 454.819 
" />
<path d="M 87.875, 614.763 
	L 87.874, 614.764 
	L 87.874, 454.819 
" />
<path d="M 92.481, 614.763 
	L 92.480, 614.764 
	L 92.480, 454.819 
" />
<path d="M 97.087, 614.763 
	L 97.087, 614.764 
	L 97.087, 454.819 
" />
<path d="M 101.694, 614.763 
	L 101.693, 614.764 
	L 101.693, 454.819 
" />
<path d="M 106.300, 614.763 
	L 106.299, 614.764 
	L 106.299, 454.819 
" />
<path d="M 110.906, 614.763 
	L 110.906, 614.764 
	L 110.906, 454.819 
" />
<path d="M 115.513, 614.763 
	L 115.512, 614.764 
	L 115.512, 454.819 
" />
<path d="M 120.119, 614.763 
	L 120.118, 614.764 
	L 120.118, 454.819 
" />
<path d="M 124.725, 614.763 
	L 124.724, 614.764 
	L 124.724, 454.819 
" />
<path d="M 64.843, 667.275 
	L 64.843, 667.276 
	L 64.843, 614.764 
" />
<path d="M 70.158, 667.275 
	L 70.157, 667.276 
	L 70.157, 614.764 
" />
<path d="M 75.473, 667.275 
	L 75.472, 667.276 
	L 75.472, 614.764 
" />
<path d="M 80.788, 667.275 
	L 80.787, 667.276 
	L 80.787, 614.764 
" />
<path d="M 86.103, 667.275 
	L 86.102, 667.276 
	L 86.102, 614.764 
" />
<path d="M 91.418, 667.275 
	L 91.417, 667.276 
	L 91.417, 614.764 
" />
<path d="M 96.733, 667.275 
	L 96.732, 667.276 
	L 96.732, 614.764 
" />
<path d="M 102.048, 667.275 
	L 102.047, 667.276 
	L 102.047, 614.764 
" />
<path d="M 107.363, 667.275 
	L 107.362, 667.276 
	L 107.362, 614.764 
" />
<path d="M 112.678, 667.275 
	L 112.677, 667.276 
	L 112.677, 614.764 
" />
<path d="M 117.993, 667.275 
	L 117.992, 667.276 
	L 117.992, 614.764 
" />
<path d="M 123.308, 667.275 
	L 123.307, 667.276 
	L 123.307, 614.764 
" />
<path d="M 65.127, 376.582 
	L 65.126, 376.583 
	L 65.126, 0.000 
" />
<path d="M 70.796, 376.582 
	L 70.795, 376.583 
	L 70.795, 0.000 
" />
<path d="M 76.465, 376.582 
	L 76.465, 376.583 
	L 76.465, 0.000 
" />
<path d="M 82.135, 376.582 
	L 82.134, 376.583 
	L 82.134, 0.000 
" />
<path d="M 87.804, 376.582 
	L 87.803, 376.583 
	L 87.803, 0.000 
" />
<path d="M 93.473, 376.582 
	L 93.472, 376.583 
	L 93.472, 0.000 
" />
<path d="M 99.142, 376.582 
	L 99.142, 376.583 
	L 99.142, 0.000 
" />
<path d="M 104.812, 376.582 
	L 104.811, 376.583 
	L 104.811, 0.000 
" />
<path d="M 110.481, 376.582 
	L 110.480, 376.583 
	L 110.480, 0.000 
" />
<path d="M 116.150, 376.582 
	L 116.150, 376.583 
	L 116.150, 0.000 
" />
<path d="M 121.820, 376.582 
	L 121.819, 376.583 
	L 121.819, 0.000 
" />
<path d="M 65.127, 454.818 
	L 65.126, 454.819 
	L 65.126, 376.583 
" />
<path d="M 70.442, 454.818 
	L 70.441, 454.819 
	L 70.441, 376.583 
" />
<path d="M 75.757, 454.818 
	L 75.756, 454.819 
	L 75.756, 376.583 
" />
<path d="M 81.072, 454.818 
	L 81.071, 454.819 
	L 81.071, 376.583 
" />
<path d="M 86.387, 454.818 
	L 86.386, 454.819 
	L 86.386, 376.583 
" />
<path d="M 91.702, 454.818 
	L 91.701, 454.819 
	L 91.701, 376.583 
" />
<path d="M 97.016, 454.818 
	L 97.016, 454.819 
	L 97.016, 376.583 
" />
<path d="M 102.331, 454.818 
	L 102.331, 454.819 
	L 102.331, 376.583 
" />
<path d="M 107.646, 454.818 
	L 107.646, 454.819 
	L 107.646, 376.583 
" />
<path d="M 112.961, 454.818 
	L 112.961, 454.819 
	L 112.961, 376.583 
" />
<path d="M 118.276, 454.818 
	L 118.276, 454.819 
	L 118.276, 376.583 
" />
<path d="M 123.591, 454.818 
	L 123.591, 454.819 
	L 123.591, 376.583 
" />
<path d="M 130.890, 454.818 
	L 130.890, 454.819 
	L 130.890, 392.811 
" />
<path d="M 135.142, 454.818 
	L 135.142, 454.819 
	L 135.142, 392.811 
" />
<path d="M 139.394, 454.818 
	L 139.394, 454.819 
	L 139.394, 392.811 
" />
<path d="M 143.646, 454.818 
	L 143.646, 454.819 
	L 143.646, 392.811 
" />
<path d="M 147.898, 454.818 
	L 147.898, 454.819 
	L 147.898, 392.811 
" />
<path d="M 152.150, 454.818 
	L 152.150, 454.819 
	L 152.150, 392.811 
" />
<path d="M 156.402, 454.818 
	L 156.402, 454.819 
	L 156.402, 392.811 
" />
<path d="M 160.654, 454.818 
	L 160.654, 454.819 
	L 160.654, 392.811 
" />
<path d="M 164.906, 454.818 
	L 164.906, 454.819 
	L 164.906, 392.811 
" />
<path d="M 169.158, 454.818 
	L 169.158, 454.819 
	L 169.158, 392.811 
" />
<path d="M 173.410, 454.818 
	L 173.409, 454.819 
	L 173.409, 392.811 
" />
<path d="M 177.662, 454.818 
	L 177.661, 454.819 
	L 177.661, 392.811 
" />
<path d="M 181.914, 454.818 
	L 181.913, 454.819 
	L 181.913, 392.811 
" />
<path d="M 186.166, 454.818 
	L 186.165, 454.819 
	L 186.165, 392.811 
" />
<path d="M 190.418, 454.818 
	L 190.417, 454.819 
	L 190.417, 392.811 
" />
<path d="M 194.670, 454.818 
	L 194.669, 454.819 
	L 194.669, 392.811 
" />
<path d="M 198.922, 454.818 
	L 198.921, 454.819 
	L 198.921, 392.811 
" />
<path d="M 203.174, 454.818 
	L 203.173, 454.819 
	L 203.173, 392.811 
" />
<path d="M 207.426, 454.818 
	L 207.425, 454.819 
	L 207.425, 392.811 
" />
<path d="M 130.890, 392.810 
	L 130.890, 392.811 
	L 130.890, 0.000 
" />
<path d="M 135.426, 392.810 
	L 135.425, 392.811 
	L 135.425, 0.000 
" />
<path d="M 139.961, 392.810 
	L 139.961, 392.811 
	L 139.961, 0.000 
" />
<path d="M 144.497, 392.810 
	L 144.496, 392.811 
	L 144.496, 0.000 
" />
<path d="M 149.032, 392.810 
	L 149.032, 392.811 
	L 149.032, 0.000 
" />
<path d="M 153.568, 392.810 
	L 153.567, 392.811 
	L 153.567, 0.000 
" />
<path d="M 158.103, 392.810 
	L 158.102, 392.811 
	L 158.102, 0.000 
" />
<path d="M 162.639, 392.810 
	L 162.638, 392.811 
	L 162.638, 0.000 
" />
<path d="M 167.174, 392.810 
	L 167.173, 392.811 
	L 167.173, 0.000 
" />
<path d="M 171.709, 392.810 
	L 171.709, 392.811 
	L 171.709, 0.000 
" />
<path d="M 176.245, 392.810 
	L 176.244, 392.811 
	L 176.244, 0.000 
" />
<path d="M 180.780, 392.810 
	L 180.780, 392.811 
	L 180.780, 0.000 
" />
<path d="M 185.316, 392.810 
	L 185.315, 392.811 
	L 185.315, 0.000 
" />
<path d="M 189.851, 392.810 
	L 189.850, 392.811 
	L 189.850, 0.000 
" />
<path d="M 194.387, 392.810 
	L 194.386, 392.811 
	L 194.386, 0.000 
" />
<path d="M 198.922, 392.810 
	L 198.921, 392.811 
	L 198.921, 0.000 
" />
<path d="M 203.457, 392.810 
	L 203.457, 392.811 
	L 203.457, 0.000 
" />
<path d="M 207.993, 392.810 
	L 207.992, 392.811 
	L 207.992, 0.000 
" />
<path d="M 215.221, 392.810 
	L 215.221, 392.811 
	L 215.221, 0.000 
" />
<path d="M 219.473, 392.810 
	L 219.472, 392.811 
	L 219.472, 0.000 
" />
<path d="M 223.725, 392.810 
	L 223.724, 392.811 
	L 223.724, 0.000 
" />
<path d="M 227.977, 392.810 
	L 227.976, 392.811 
	L 227.976, 0.000 
" />
<path d="M 232.229, 392.810 
	L 232.228, 392.811 
	L 232.228, 0.000 
" />
<path d="M 236.481, 392.810 
	L 236.480, 392.811 
	L 236.480, 0.000 
" />
<path d="M 240.733, 392.810 
	L 240.732, 392.811 
	L 240.732, 0.000 
" />
<path d="M 244.985, 392.810 
	L 244.984, 392.811 
	L 244.984, 0.000 
" />
<path d="M 249.237, 392.810 
	L 249.236, 392.811 
	L 249.236, 0.000 
" />
<path d="M 253.489, 392.810 
	L 253.488, 392.811 
	L 253.488, 0.000 
" />
<path d="M 257.741, 392.810 
	L 257.740, 392.811 
	L 257.740, 0.000 
" />
<path d="M 261.993, 392.810 
	L 261.992, 392.811 
	L 261.992, 0.000 
" />
<path d="M 266.245, 392.810 
	L 266.244, 392.811 
	L 266.244, 0.000 
" />
<path d="M 270.497, 392.810 
	L 270.496, 392.811 
	L 270.496, 0.000 
" />
<path d="M 274.749, 392.810 
	L 274.748, 392.811 
	L 274.748, 0.000 
" />
<path d="M 279.001, 392.810 
	L 279.000, 392.811 
	L 279.000, 0.000 
" />
<path d="M 283.253, 392.810 
	L 283.252, 392.811 
	L 283.252, 0.000 
" />
<path d="M 287.505, 392.810 
	L 287.504, 392.811 
	L 287.504, 0.000 
" />
<path d="M 291.757, 392.810 
	L 291.756, 392.811 
	L 291.756, 0.000 
" />
<path d="M 296.009, 392.810 
	L 296.008, 392.811 
	L 296.008, 0.000 
" />
<path d="M 300.261, 392.810 
	L 300.260, 392.811 
	L 300.260, 0.000 
" />
<path d="M 304.513, 392.810 
	L 304.512, 392.811 
	L 304.512, 0.000 
" />
<path d="M 308.765, 392.810 
	L 308.764, 392.811 
	L 308.764, 0.000 
" />
<path d="M 313.016, 392.810 
	L 313.016, 392.811 
	L 313.016, 0.000 
" />
<path d="M 317.268, 392.810 
	L 317.268, 392.811 
	L 317.268, 0.000 
" />
<path d="M 321.520, 392.810 
	L 321.520, 392.811 
	L 321.520, 0.000 
" />
<path d="M 325.772, 392.810 
	L 325.772, 392.811 
	L 325.772, 0.000 
" />
<path d="M 330.024, 392.810 
	L 330.024, 392.811 
	L 330.024, 0.000 
" />
<path d="M 334.276, 392.810 
	L 334.276, 392.811 
	L 334.276, 0.000 
" />
<path d="M 338.528, 392.810 
	L 338.528, 392.811 
	L 338.528, 0.000 
" />
<path d="M 342.780, 392.810 
	L 342.780, 392.811 
	L 342.780, 0.000 
" />
<path d="M 347.032, 392.810 
	L 347.032, 392.811 
	L 347.032, 0.000 
" />
<path d="M 351.284, 392.810 
	L 351.284, 392.811 
	L 351.284, 0.000 
" />
<path d="M 355.536, 392.810 
	L 355.535, 392.811 
	L 355.535, 0.000 
" />
<path d="M 359.788, 392.810 
	L 359.787, 392.811 
	L 359.787, 0.000 
" />
<path d="M 364.040, 392.810 
	L 364.039, 392.811 
	L 364.039, 0.000 
" />
<path d="M 368.292, 392.810 
	L 368.291, 392.811 
	L 368.291, 0.000 
" />
<path d="M 372.544, 392.810 
	L 372.543, 392.811 
	L 372.543, 0.000 
" />
<path d="M 376.796, 392.810 
	L 376.795, 392.811 
	L 376.795, 0.000 
" />
<path d="M 381.048, 392.810 
	L 381.047, 392.811 
	L 381.047, 0.000 
" />
<path d="M 385.300, 392.810 
	L 385.299, 392.811 
	L 385.299, 0.000 
" />
<path d="M 389.552, 392.810 
	L 389.551, 392.811 
	L 389.551, 0.000 
" />
<path d="M 393.804, 392.810 
	L 393.803, 392.811 
	L 393.803, 0.000 
" />
<path d="M 398.056, 392.810 
	L 398.055, 392.811 
	L 398.055, 0.000 
" />
<path d="M 402.308, 392.810 
	L 402.307, 392.811 
	L 402.307, 0.000 
" />
<path d="M 406.560, 392.810 
	L 406.559, 392.811 
	L 406.559, 0.000 
" />
<path d="M 410.812, 392.810 
	L 410.811, 392.811 
	L 410.811, 0.000 
" />
<path d="M 415.064, 392.810 
	L 415.063, 392.811 
	L 415.063, 0.000 
" />
<path d="M 419.316, 392.810 
	L 419.315, 392.811 
	L 419.315, 0.000 
" />
<path d="M 423.568, 392.810 
	L 423.567, 392.811 
	L 423.567, 0.000 
" />
<path d="M 427.820, 392.810 
	L 427.819, 392.811 
	L 427.819, 0.000 
" />
<path d="M 432.072, 392.810 
	L 432.071, 392.811 
	L 432.071, 0.000 
" />
<path d="M 436.324, 392.810 
	L 436.323, 392.811 
	L 436.323, 0.000 
" />
<path d="M 440.576, 392.810 
	L 440.575, 392.811 
	L 440.575, 0.000 
" />
<path d="M 444.828, 392.810 
	L 444.827, 392.811 
	L 444.827, 0.000 
" />
<path d="M 449.080, 392.810 
	L 449.079, 392.811 
	L 449.079, 0.000 
" />
<path d="M 453.331, 392.810 
	L 453.331, 392.811 
	L 453.331, 0.000 
" />
<path d="M 457.583, 392.810 
	L 457.583, 392.811 
	L 457.583, 0.000 
" />
<path d="M 461.835, 392.810 
	L 461.835, 392.811 
	L 461.835, 0.000 
" />
<path d="M 466.087, 392.810 
	L 466.087, 392.811 
	L 466.087, 0.000 
" />
<path d="M 470.339, 392.810 
	L 470.339, 392.811 
	L 470.339, 0.000 
" />
<path d="M 474.591, 392.810 
	L 474.591, 392.811 
	L 474.591, 0.000 
" />
<path d="M 478.843, 392.810 
	L 478.843, 392.811 
	L 478.843, 0.000 
" />
<path d="M 483.095, 392.810 
	L 483.095, 392.811 
	L 483.095, 0.000 
" />
<path d="M 487.347, 392.810 
	L 487.347, 392.811 
	L 487.347, 0.000 
" />
<path d="M 491.599, 392.810 
	L 491.599, 392.811 
	L 491.599, 0.000 
" />
<path d="M 495.851, 392.810 
	L 495.850, 392.811 
	L 495.850, 0.000 
" />
<path d="M 500.103, 392.810 
	L 500.102, 392.811 
	L 500.102, 0.000 
" />
<path d="M 504.355, 392.810 
	L 504.354, 392.811 
	L 504.354, 0.000 
" />
<path d="M 508.607, 392.810 
	L 508.606, 392.811 
	L 508.606, 0.000 
" />
<path d="M 512.859, 392.810 
	L 512.858, 392.811 
	L 512.858, 0.000 
" />
<path d="M 517.111, 392.810 
	L 517.110, 392.811 
	L 517.110, 0.000 
" />
<path d="M 521.363, 392.810 
	L 521.362, 392.811 
	L 521.362, 0.000 
" />
<path d="M 525.615, 392.810 
	L 525.614, 392.811 
	L 525.614, 0.000 
" />
<path d="M 529.867, 392.810 
	L 529.866, 392.811 
	L 529.866, 0.000 
" />
<path d="M 534.119, 392.810 
	L 534.118, 392.811 
	L 534.118, 0.000 
" />
<path d="M 538.371, 392.810 
	L 538.370, 392.811 
	L 538.370, 0.000 
" />
<path d="M 542.623, 392.810 
	L 542.622, 392.811 
	L 542.622, 0.000 
" />
<path d="M 546.875, 392.810 
	L 546.874, 392.811 
	L 546.874, 0.000 
" />
<path d="M 551.127, 392.810 
	L 551.126, 392.811 
	L 551.126, 0.000 
" />
<path d="M 555.379, 392.810 
	L 555.378, 392.811 
	L 555.378, 0.000 
" />
<path d="M 559.631, 392.810 
	L 559.630, 392.811 
	L 559.630, 0.000 
" />
<path d="M 563.883, 392.810 
	L 563.882, 392.811 
	L 563.882, 0.000 
" />
<path d="M 568.135, 392.810 
	L 568.134, 392.811 
	L 568.134, 0.000 
" />
<path d="M 572.387, 392.810 
	L 572.386, 392.811 
	L 572.386, 0.000 
" />
<path d="M 576.639, 392.810 
	L 576.638, 392.811 
	L 576.638, 0.000 
" />
<path d="M 580.891, 392.810 
	L 580.890, 392.811 
	L 580.890, 0.000 
" />
<path d="M 585.143, 392.810 
	L 585.142, 392.811 
	L 585.142, 0.000 
" />
<path d="M 589.394, 392.810 
	L 589.394, 392.811 
	L 589.394, 0.000 
" />
<path d="M 593.646, 392.810 
	L 593.646, 392.811 
	L 593.646, 0.000 
" />
<path d="M 597.898, 392.810 
	L 597.898, 392.811 
	L 597.898, 0.000 
" />
<path d="M 602.150, 392.810 
	L 602.150, 392.811 
	L 602.150, 0.000 
" />
<path d="M 606.402, 392.810 
	L 606.402, 392.811 
	L 606.402, 0.000 
" />
<path d="M 610.654, 392.810 
	L 610.654, 392.811 
	L 610.654, 0.000 
" />
<path d="M 614.906, 392.810 
	L 614.906, 392.811 
	L 614.906, 0.000 
" />
<path d="M 619.158, 392.810 
	L 619.158, 392.811 
	L 619.158, 0.000 
" />
<path d="M 623.410, 392.810 
	L 623.410, 392.811 
	L 623.410, 0.000 
" />
<path d="M 627.662, 392.810 
	L 627.662, 392.811 
	L 627.662, 0.000 
" />
<path d="M 631.914, 392.810 
	L 631.913, 392.811 
	L 631.913, 0.000 
" />
<path d="M 636.166, 392.810 
	L 636.165, 392.811 
	L 636.165, 0.000 
" />
<path d="M 640.418, 392.810 
	L 640.417, 392.811 
	L 640.417, 0.000 
" />
<path d="M 644.670, 392.810 
	L 644.669, 392.811 
	L 644.669, 0.000 
" />
<path d="M 648.922, 392.810 
	L 648.921, 392.811 
	L 648.921, 0.000 
" />
<path d="M 653.174, 392.810 
	L 653.173, 392.811 
	L 653.173, 0.000 
" />
<path d="M 657.426, 392.810 
	L 657.425, 392.811 
	L 657.425, 0.000 
" />
<path d="M 661.678, 392.810 
	L 661.677, 392.811 
	L 661.677, 0.000 
" />
<path d="M 665.930, 392.810 
	L 665.929, 392.811 
	L 665.929, 0.000 
" />
<path d="M 670.182, 392.810 
	L 670.181, 392.811 
	L 670.181, 0.000 
" />
<path d="M 674.434, 392.810 
	L 674.433, 392.811 
	L 674.433, 0.000 
" />
<path d="M 678.686, 392.810 
	L 678.685, 392.811 
	L 678.685, 0.000 
" />
<path d="M 682.938, 392.810 
	L 682.937, 392.811 
	L 682.937, 0.000 
" />
<path d="M 687.190, 392.810 
	L 687.189, 392.811 
	L 687.189, 0.000 
" />
<path d="M 691.442, 392.810 
	L 691.441, 392.811 
	L 691.441, 0.000 
" />
<path d="M 695.694, 392.810 
	L 695.693, 392.811 
	L 695.693, 0.000 
" />
<path d="M 699.946, 392.810 
	L 699.945, 392.811 
	L 699.945, 0.000 
" />
<path d="M 704.198, 392.810 
	L 704.197, 392.811 
	L 704.197, 0.000 
" />
<path d="M 215.221, 454.818 
	L 215.221, 454.819 
	L 215.221, 392.811 
" />
<path d="M 220.536, 454.818 
	L 220.535, 454.819 
	L 220.535, 392.811 
" />
<path d="M 225.851, 454.818 
	L 225.850, 454.819 
	L 225.850, 392.811 
" />
<path d="M 231.166, 454.818 
	L 231.165, 454.819 
	L 231.165, 392.811 
" />
<path d="M 236.481, 454.818 
	L 236.480, 454.819 
	L 236.480, 392.811 
" />
<path d="M 241.796, 454.818 
	L 241.795, 454.819 
	L 241.795, 392.811 
" />
<path d="M 247.111, 454.818 
	L 247.110, 454.819 
	L 247.110, 392.811 
" />
<path d="M 252.426, 454.818 
	L 252.425, 454.819 
	L 252.425, 392.811 
" />
<path d="M 257.741, 454.818 
	L 257.740, 454.819 
	L 257.740, 392.811 
" />
<path d="M 263.056, 454.818 
	L 263.055, 454.819 
	L 263.055, 392.811 
" />
<path d="M 268.371, 454.818 
	L 268.370, 454.819 
	L 268.370, 392.811 
" />
<path d="M 273.686, 454.818 
	L 273.685, 454.819 
	L 273.685, 392.811 
" />
<path d="M 279.001, 454.818 
	L 279.000, 454.819 
	L 279.000, 392.811 
" />
<path d="M 284.316, 454.818 
	L 284.315, 454.819 
	L 284.315, 392.811 
" />
<path d="M 289.631, 454.818 
	L 289.630, 454.819 
	L 289.630, 392.811 
" />
<path d="M 294.946, 454.818 
	L 294.945, 454.819 
	L 294.945, 392.811 
" />
<path d="M 300.261, 454.818 
	L 300.260, 454.819 
	L 300.260, 392.811 
" />
<path d="M 305.576, 454.818 
	L 305.575, 454.819 
	L 305.575, 392.811 
" />
<path d="M 310.891, 454.818 
	L 310.890, 454.819 
	L 310.890, 392.811 
" />
<path d="M 316.205, 454.818 
	L 316.205, 454.819 
	L 316.205, 392.811 
" />
<path d="M 321.520, 454.818 
	L 321.520, 454.819 
	L 321.520, 392.811 
" />
<path d="M 326.835, 454.818 
	L 326.835, 454.819 
	L 326.835, 392.811 
" />
<path d="M 332.150, 454.818 
	L 332.150, 454.819 
	L 332.150, 392.811 
" />
<path d="M 337.465, 454.818 
	L 337.465, 454.819 
	L 337.465, 392.811 
" />
<path d="M 342.780, 454.818 
	L 342.780, 454.819 
	L 342.780, 392.811 
" />
<path d="M 348.095, 454.818 
	L 348.095, 454.819 
	L 348.095, 392.811 
" />
<path d="M 353.410, 454.818 
	L 353.410, 454.819 
	L 353.410, 392.811 
" />
<path d="M 358.725, 454.818 
	L 358.724, 454.819 
	L 358.724, 392.811 
" />
<path d="M 364.040, 454.818 
	L 364.039, 454.819 
	L 364.039, 392.811 
" />
<path d="M 369.355, 454.818 
	L 369.354, 454.819 
	L 369.354, 392.811 
" />
<path d="M 374.670, 454.818 
	L 374.669, 454.819 
	L 374.669, 392.811 
" />
<path d="M 379.985, 454.818 
	L 379.984, 454.819 
	L 379.984, 392.811 
" />
<path d="M 385.300, 454.818 
	L 385.299, 454.819 
	L 385.299, 392.811 
" />
<path d="M 390.615, 454.818 
	L 390.614, 454.819 
	L 390.614, 392.811 
" />
<path d="M 395.930, 454.818 
	L 395.929, 454.819 
	L 395.929, 392.811 
" />
<path d="M 401.245, 454.818 
	L 401.244, 454.819 
	L 401.244, 392.811 
" />
<path d="M 406.560, 454.818 
	L 406.559, 454.819 
	L 406.559, 392.811 
" />
<path d="M 411.875, 454.818 
	L 411.874, 454.819 
	L 411.874, 392.811 
" />
<path d="M 417.190, 454.818 
	L 417.189, 454.819 
	L 417.189, 392.811 
" />
<path d="M 422.505, 454.818 
	L 422.504, 454.819 
	L 422.504, 392.811 
" />
<path d="M 427.820, 454.818 
	L 427.819, 454.819 
	L 427.819, 392.811 
" />
<path d="M 433.135, 454.818 
	L 433.134, 454.819 
	L 433.134, 392.811 
" />
<path d="M 438.450, 454.818 
	L 438.449, 454.819 
	L 438.449, 392.811 
" />
<path d="M 443.765, 454.818 
	L 443.764, 454.819 
	L 443.764, 392.811 
" />
<path d="M 449.080, 454.818 
	L 449.079, 454.819 
	L 449.079, 392.811 
" />
<path d="M 454.394, 454.818 
	L 454.394, 454.819 
	L 454.394, 392.811 
" />
<path d="M 459.709, 454.818 
	L 459.709, 454.819 
	L 459.709, 392.811 
" />
<path d="M 465.024, 454.818 
	L 465.024, 454.819 
	L 465.024, 392.811 
" />
<path d="M 470.339, 454.818 
	L 470.339, 454.819 
	L 470.339, 392.811 
" />
<path d="M 475.654, 454.818 
	L 475.654, 454.819 
	L 475.654, 392.811 
" />
<path d="M 480.969, 454.818 
	L 480.969, 454.819 
	L 480.969, 392.811 
" />
<path d="M 486.284, 454.818 
	L 486.284, 454.819 
	L 486.284, 392.811 
" />
<path d="M 491.599, 454.818 
	L 491.599, 454.819 
	L 491.599, 392.811 
" />
<path d="M 496.914, 454.818 
	L 496.913, 454.819 
	L 496.913, 392.811 
" />
<path d="M 502.229, 454.818 
	L 502.228, 454.819 
	L 502.228, 392.811 
" />
<path d="M 507.544, 454.818 
	L 507.543, 454.819 
	L 507.543, 392.811 
" />
<path d="M 512.859, 454.818 
	L 512.858, 454.819 
	L 512.858, 392.811 
" />
<path d="M 518.174, 454.818 
	L 518.173, 454.819 
	L 518.173, 392.811 
" />
<path d="M 523.489, 454.818 
	L 523.488, 454.819 
	L 523.488, 392.811 
" />
<path d="M 528.804, 454.818 
	L 528.803, 454.819 
	L 528.803, 392.811 
" />
<path d="M 534.119, 454.818 
	L 534.118, 454.819 
	L 534.118, 392.811 
" />
<path d="M 539.434, 454.818 
	L 539.433, 454.819 
	L 539.433, 392.811 
" />
<path d="M 544.749, 454.818 
	L 544.748, 454.819 
	L 544.748, 392.811 
" />
<path d="M 550.064, 454.818 
	L 550.063, 454.819 
	L 550.063, 392.811 
" />
<path d="M 555.379, 454.818 
	L 555.378, 454.819 
	L 555.378, 392.811 
" />
<path d="M 560.694, 454.818 
	L 560.693, 454.819 
	L 560.693, 392.811 
" />
<path d="M 566.009, 454.818 
	L 566.008, 454.819 
	L 566.008, 392.811 
" />
<path d="M 571.324, 454.818 
	L 571.323, 454.819 
	L 571.323, 392.811 
" />
<path d="M 576.639, 454.818 
	L 576.638, 454.819 
	L 576.638, 392.811 
" />
<path d="M 581.954, 454.818 
	L 581.953, 454.819 
	L 581.953, 392.811 
" />
<path d="M 587.268, 454.818 
	L 587.268, 454.819 
	L 587.268, 392.811 
" />
<path d="M 592.583, 454.818 
	L 592.583, 454.819 
	L 592.583, 392.811 
" />
<path d="M 597.898, 454.818 
	L 597.898, 454.819 
	L 597.898, 392.811 
" />
<path d="M 603.213, 454.818 
	L 603.213, 454.819 
	L 603.213, 392.811 
" />
<path d="M 608.528, 454.818 
	L 608.528, 454.819 
	L 608.528, 392.811 
" />
<path d="M 613.843, 454.818 
	L 613.843, 454.819 
	L 613.843, 392.811 
" />
<path d="M 619.158, 454.818 
	L 619.158, 454.819 
	L 619.158, 392.811 
" />
<path d="M 624.473, 454.818 
	L 624.473, 454.819 
	L 624.473, 392.811 
" />
<path d="M 629.788, 454.818 
	L 629.787, 454.819 
	L 629.787, 392.811 
" />
<path d="M 635.103, 454.818 
	L 635.102, 454.819 
	L 635.102, 392.811 
" />
<path d="M 640.418, 454.818 
	L 640.417, 454.819 
	L 640.417, 392.811 
" />
<path d="M 645.733, 454.818 
	L 645.732, 454.819 
	L 645.732, 392.811 
" />
<path d="M 651.048, 454.818 
	L 651.047, 454.819 
	L 651.047, 392.811 
" />
<path d="M 656.363, 454.818 
	L 656.362, 454.819 
	L 656.362, 392.811 
" />
<path d="M 661.678, 454.818 
	L 661.677, 454.819 
	L 661.677, 392.811 
" />
<path d="M 666.993, 454.818 
	L 666.992, 454.819 
	L 666.992, 392.811 
" />
<path d="M 672.308, 454.818 
	L 672.307, 454.819 
	L 672.307, 392.811 
" />
<path d="M 677.623, 454.818 
	L 677.622, 454.819 
	L 677.622, 392.811 
" />
<path d="M 682.938, 454.818 
	L 682.937, 454.819 
	L 682.937, 392.811 
" />
<path d="M 688.253, 454.818 
	L 688.252, 454.819 
	L 688.252, 392.811 
" />
<path d="M 693.568, 454.818 
	L 693.567, 454.819 
	L 693.567, 392.811 
" />
<path d="M 698.883, 454.818 
	L 698.882, 454.819 
	L 698.882, 392.811 
" />
<path d="M 130.890, 667.275 
	L 130.890, 667.276 
	L 130.890, 663.024 
" />
<path d="M 136.560, 667.275 
	L 136.559, 667.276 
	L 136.559, 663.024 
" />
<path d="M 142.229, 667.275 
	L 142.228, 667.276 
	L 142.228, 663.024 
" />
<path d="M 147.898, 667.275 
	L 147.898, 667.276 
	L 147.898, 663.024 
" />
<path d="M 153.568, 667.275 
	L 153.567, 667.276 
	L 153.567, 663.024 
" />
<path d="M 159.237, 667.275 
	L 159.236, 667.276 
	L 159.236, 663.024 
" />
<path d="M 164.906, 667.275 
	L 164.906, 667.276 
	L 164.906, 663.024 
" />
<path d="M 170.576, 667.275 
	L 170.575, 667.276 
	L 170.575, 663.024 
" />
<path d="M 176.245, 667.275 
	L 176.244, 667.276 
	L 176.244, 663.024 
" />
<path d="M 181.914, 667.275 
	L 181.913, 667.276 
	L 181.913, 663.024 
" />
<path d="M 187.583, 667.275 
	L 187.583, 667.276 
	L 187.583, 663.024 
" />
<path d="M 193.253, 667.275 
	L 193.252, 667.276 
	L 193.252, 663.024 
" />
<path d="M 198.922, 667.275 
	L 198.921, 667.276 
	L 198.921, 663.024 
" />
<path d="M 204.591, 667.275 
	L 204.591, 667.276 
	L 204.591, 663.024 
" />
<path d="M 210.261, 667.275 
	L 210.260, 667.276 
	L 210.260, 663.024 
" />
<path d="M 215.930, 667.275 
	L 215.929, 667.276 
	L 215.929, 663.024 
" />
<path d="M 221.599, 667.275 
	L 221.598, 667.276 
	L 221.598, 663.024 
" />
<path d="M 227.268, 667.275 
	L 227.268, 667.276 
	L 227.268, 663.024 
" />
<path d="M 232.938, 667.275 
	L 232.937, 667.276 
	L 232.937, 663.024 
" />
<path d="M 238.607, 667.275 
	L 238.606, 667.276 
	L 238.606, 663.024 
" />
<path d="M 244.276, 667.275 
	L 244.276, 667.276 
	L 244.276, 663.024 
" />
<path d="M 249.946, 667.275 
	L 249.945, 667.276 
	L 249.945, 663.024 
" />
<path d="M 255.615, 667.275 
	L 255.614, 667.276 
	L 255.614, 663.024 
" />
<path d="M 261.284, 667.275 
	L 261.284, 667.276 
	L 261.284, 663.024 
" />
<path d="M 266.954, 667.275 
	L 266.953, 667.276 
	L 266.953, 663.024 
" />
<path d="M 272.623, 667.275 
	L 272.622, 667.276 
	L 272.622, 663.024 
" />
<path d="M 278.292, 667.275 
	L 278.291, 667.276 
	L 278.291, 663.024 
" />
<path d="M 283.961, 667.275 
	L 283.961, 667.276 
	L 283.961, 663.024 
" />
<path d="M 130.890, 663.023 
	L 130.890, 663.024 
	L 130.890, 454.819 
" />
<path d="M 135.142, 663.023 
	L 135.142, 663.024 
	L 135.142, 454.819 
" />
<path d="M 139.394, 663.023 
	L 139.394, 663.024 
	L 139.394, 454.819 
" />
<path d="M 143.646, 663.023 
	L 143.646, 663.024 
	L 143.646, 454.819 
" />
<path d="M 147.898, 663.023 
	L 147.898, 663.024 
	L 147.898, 454.819 
" />
<path d="M 152.150, 663.023 
	L 152.150, 663.024 
	L 152.150, 454.819 
" />
<path d="M 156.402, 663.023 
	L 156.402, 663.024 
	L 156.402, 454.819 
" />
<path d="M 160.654, 663.023 
	L 160.654, 663.024 
	L 160.654, 454.819 
" />
<path d="M 164.906, 663.023 
	L 164.906, 663.024 
	L 164.906, 454.819 
" />
<path d="M 169.158, 663.023 
	L 169.158, 663.024 
	L 169.158, 454.819 
" />
<path d="M 173.410, 663.023 
	L 173.409, 663.024 
	L 173.409, 454.819 
" />
<path d="M 177.662, 663.023 
	L 177.661, 663.024 
	L 177.661, 454.819 
" />
<path d="M 181.914, 663.023 
	L 181.913, 663.024 
	L 181.913, 454.819 
" />
<path d="M 186.166, 663.023 
	L 186.165, 663.024 
	L 186.165, 454.819 
" />
<path d="M 190.418, 663.023 
	L 190.417, 663.024 
	L 190.417, 454.819 
" />
<path d="M 194.670, 663.023 
	L 194.669, 663.024 
	L 194.669, 454.819 
" />
<path d="M 198.922, 663.023 
	L 198.921, 663.024 
	L 198.921, 454.819 
" />
<path d="M 203.174, 663.023 
	L 203.173, 663.024 
	L 203.173, 454.819 
" />
<path d="M 207.426, 663.023 
	L 207.425, 663.024 
	L 207.425, 454.819 
" />
<path d="M 211.678, 663.023 
	L 211.677, 663.024 
	L 211.677, 454.819 
" />
<path d="M 215.930, 663.023 
	L 215.929, 663.024 
	L 215.929, 454.819 
" />
<path d="M 220.182, 663.023 
	L 220.181, 663.024 
	L 220.181, 454.819 
" />
<path d="M 224.434, 663.023 
	L 224.433, 663.024 
	L 224.433, 454.819 
" />
<path d="M 228.686, 663.023 
	L 228.685, 663.024 
	L 228.685, 454.819 
" />
<path d="M 232.938, 663.023 
	L 232.937, 663.024 
	L 232.937, 454.819 
" />
<path d="M 237.190, 663.023 
	L 237.189, 663.024 
	L 237.189, 454.819 
" />
<path d="M 241.442, 663.023 
	L 241.441, 663.024 
	L 241.441, 454.819 
" />
<path d="M 245.694, 663.023 
	L 245.693, 663.024 
	L 245.693, 454.819 
" />
<path d="M 249.946, 663.023 
	L 249.945, 663.024 
	L 249.945, 454.819 
" />
<path d="M 254.198, 663.023 
	L 254.197, 663.024 
	L 254.197, 454.819 
" />
<path d="M 258.450, 663.023 
	L 258.449, 663.024 
	L 258.449, 454.819 
" />
<path d="M 262.702, 663.023 
	L 262.701, 663.024 
	L 262.701, 454.819 
" />
<path d="M 266.954, 663.023 
	L 266.953, 663.024 
	L 266.953, 454.819 
" />
<path d="M 271.205, 663.023 
	L 271.205, 663.024 
	L 271.205, 454.819 
" />
<path d="M 275.457, 663.023 
	L 275.457, 663.024 
	L 275.457, 454.819 
" />
<path d="M 279.709, 663.023 
	L 279.709, 663.024 
	L 279.709, 454.819 
" />
<path d="M 283.961, 663.023 
	L 283.961, 663.024 
	L 283.961, 454.819 
" />
<path d="M 288.213, 663.023 
	L 288.213, 663.024 
	L 288.213, 454.819 
" />
<path d="M 294.946, 663.023 
	L 294.945, 663.024 
	L 294.945, 454.819 
" />
<path d="M 299.481, 663.023 
	L 299.480, 663.024 
	L 299.480, 454.819 
" />
<path d="M 304.016, 663.023 
	L 304.016, 663.024 
	L 304.016, 454.819 
" />
<path d="M 308.552, 663.023 
	L 308.551, 663.024 
	L 308.551, 454.819 
" />
<path d="M 313.087, 663.023 
	L 313.087, 663.024 
	L 313.087, 454.819 
" />
<path d="M 317.623, 663.023 
	L 317.622, 663.024 
	L 317.622, 454.819 
" />
<path d="M 322.158, 663.023 
	L 322.158, 663.024 
	L 322.158, 454.819 
" />
<path d="M 326.694, 663.023 
	L 326.693, 663.024 
	L 326.693, 454.819 
" />
<path d="M 331.229, 663.023 
	L 331.228, 663.024 
	L 331.228, 454.819 
" />
<path d="M 335.765, 663.023 
	L 335.764, 663.024 
	L 335.764, 454.819 
" />
<path d="M 340.300, 663.023 
	L 340.299, 663.024 
	L 340.299, 454.819 
" />
<path d="M 344.835, 663.023 
	L 344.835, 663.024 
	L 344.835, 454.819 
" />
<path d="M 349.371, 663.023 
	L 349.370, 663.024 
	L 349.370, 454.819 
" />
<path d="M 353.906, 663.023 
	L 353.906, 663.024 
	L 353.906, 454.819 
" />
<path d="M 358.442, 663.023 
	L 358.441, 663.024 
	L 358.441, 454.819 
" />
<path d="M 362.977, 663.023 
	L 362.976, 663.024 
	L 362.976, 454.819 
" />
<path d="M 367.513, 663.023 
	L 367.512, 663.024 
	L 367.512, 454.819 
" />
<path d="M 372.048, 663.023 
	L 372.047, 663.024 
	L 372.047, 454.819 
" />
<path d="M 376.583, 663.023 
	L 376.583, 663.024 
	L 376.583, 454.819 
" />
<path d="M 381.119, 663.023 
	L 381.118, 663.024 
	L 381.118, 454.819 
" />
<path d="M 385.654, 663.023 
	L 385.654, 663.024 
	L 385.654, 454.819 
" />
<path d="M 390.190, 663.023 
	L 390.189, 663.024 
	L 390.189, 454.819 
" />
<path d="M 394.725, 663.023 
	L 394.724, 663.024 
	L 394.724, 454.819 
" />
<path d="M 399.261, 663.023 
	L 399.260, 663.024 
	L 399.260, 454.819 
" />
<path d="M 403.796, 663.023 
	L 403.795, 663.024 
	L 403.795, 454.819 
" />
<path d="M 408.331, 663.023 
	L 408.331, 663.024 
	L 408.331, 454.819 
" />
<path d="M 412.867, 663.023 
	L 412.866, 663.024 
	L 412.866, 454.819 
" />
<path d="M 417.402, 663.023 
	L 417.402, 663.024 
	L 417.402, 454.819 
" />
<path d="M 421.938, 663.023 
	L 421.937, 663.024 
	L 421.937, 454.819 
" />
<path d="M 426.473, 663.023 
	L 426.473, 663.024 
	L 426.473, 454.819 
" />
<path d="M 431.009, 663.023 
	L 431.008, 663.024 
	L 431.008, 454.819 
" />
<path d="M 435.544, 663.023 
	L 435.543, 663.024 
	L 435.543, 454.819 
" />
<path d="M 440.079, 663.023 
	L 440.079, 663.024 
	L 440.079, 454.819 
" />
<path d="M 444.615, 663.023 
	L 444.614, 663.024 
	L 444.614, 454.819 
" />
<path d="M 449.150, 663.023 
	L 449.150, 663.024 
	L 449.150, 454.819 
" />
<path d="M 453.686, 663.023 
	L 453.685, 663.024 
	L 453.685, 454.819 
" />
<path d="M 458.221, 663.023 
	L 458.221, 663.024 
	L 458.221, 454.819 
" />
<path d="M 462.757, 663.023 
	L 462.756, 663.024 
	L 462.756, 454.819 
" />
<path d="M 467.292, 663.023 
	L 467.291, 663.024 
	L 467.291, 454.819 
" />
<path d="M 471.828, 663.023 
	L 471.827, 663.024 
	L 471.827, 454.819 
" />
<path d="M 476.363, 663.023 
	L 476.362, 663.024 
	L 476.362, 454.819 
" />
<path d="M 480.898, 663.023 
	L 480.898, 663.024 
	L 480.898, 454.819 
" />
<path d="M 485.434, 663.023 
	L 485.433, 663.024 
	L 485.433, 454.819 
" />
<path d="M 489.969, 663.023 
	L 489.969, 663.024 
	L 489.969, 454.819 
" />
<path d="M 494.505, 663.023 
	L 494.504, 663.024 
	L 494.504, 454.819 
" />
<path d="M 499.040, 663.023 
	L 499.039, 663.024 
	L 499.039, 454.819 
" />
<path d="M 503.576, 663.023 
	L 503.575, 663.024 
	L 503.575, 454.819 
" />
<path d="M 508.111, 663.023 
	L 508.110, 663.024 
	L 508.110, 454.819 
" />
<path d="M 512.646, 663.023 
	L 512.646, 663.024 
	L 512.646, 454.819 
" />
<path d="M 517.182, 663.023 
	L 517.181, 663.024 
	L 517.181, 454.819 
" />
<path d="M 521.717, 663.023 
	L 521.717, 663.024 
	L 521.717, 454.819 
" />
<path d="M 526.253, 663.023 
	L 526.252, 663.024 
	L 526.252, 454.819 
" />
<path d="M 530.788, 663.023 
	L 530.787, 663.024 
	L 530.787, 454.819 
" />
<path d="M 535.324, 663.023 
	L 535.323, 663.024 
	L 535.323, 454.819 
" />
<path d="M 539.859, 663.023 
	L 539.858, 663.024 
	L 539.858, 454.819 
" />
<path d="M 544.394, 663.023 
	L 544.394, 663.024 
	L 544.394, 454.819 
" />
<path d="M 548.930, 663.023 
	L 548.929, 663.024 
	L 548.929, 454.819 
" />
<path d="M 553.465, 663.023 
	L 553.465, 663.024 
	L 553.465, 454.819 
" />
<path d="M 558.001, 663.023 
	L 558.000, 663.024 
	L 558.000, 454.819 
" />
<path d="M 562.536, 663.023 
	L 562.536, 663.024 
	L 562.536, 454.819 
" />
<path d="M 567.072, 663.023 
	L 567.071, 663.024 
	L 567.071, 454.819 
" />
<path d="M 571.607, 663.023 
	L 571.606, 663.024 
	L 571.606, 454.819 
" />
<path d="M 576.143, 663.023 
	L 576.142, 663.024 
	L 576.142, 454.819 
" />
<path d="M 580.678, 663.023 
	L 580.677, 663.024 
	L 580.677, 454.819 
" />
<path d="M 585.213, 663.023 
	L 585.213, 663.024 
	L 585.213, 454.819 
" />
<path d="M 589.749, 663.023 
	L 589.748, 663.024 
	L 589.748, 454.819 
" />
<path d="M 594.284, 663.023 
	L 594.284, 663.024 
	L 594.284, 454.819 
" />
<path d="M 598.820, 663.023 
	L 598.819, 663.024 
	L 598.819, 454.819 
" />
<path d="M 603.355, 663.023 
	L 603.354, 663.024 
	L 603.354, 454.819 
" />
<path d="M 607.891, 663.023 
	L 607.890, 663.024 
	L 607.890, 454.819 
" />
<path d="M 612.426, 663.023 
	L 612.425, 663.024 
	L 612.425, 454.819 
" />
<path d="M 616.961, 663.023 
	L 616.961, 663.024 
	L 616.961, 454.819 
" />
<path d="M 621.497, 663.023 
	L 621.496, 663.024 
	L 621.496, 454.819 
" />
<path d="M 626.032, 663.023 
	L 626.032, 663.024 
	L 626.032, 454.819 
" />
<path d="M 630.568, 663.023 
	L 630.567, 663.024 
	L 630.567, 454.819 
" />
<path d="M 635.103, 663.023 
	L 635.102, 663.024 
	L 635.102, 454.819 
" />
<path d="M 639.639, 663.023 
	L 639.638, 663.024 
	L 639.638, 454.819 
" />
<path d="M 644.174, 663.023 
	L 644.173, 663.024 
	L 644.173, 454.819 
" />
<path d="M 648.709, 663.023 
	L 648.709, 663.024 
	L 648.709, 454.819 
" />
<path d="M 653.245, 663.023 
	L 653.244, 663.024 
	L 653.244, 454.819 
" />
<path d="M 657.780, 663.023 
	L 657.780, 663.024 
	L 657.780, 454.819 
" />
<path d="M 662.316, 663.023 
	L 662.315, 663.024 
	L 662.315, 454.819 
" />
<path d="M 666.851, 663.023 
	L 666.850, 663.024 
	L 666.850, 454.819 
" />
<path d="M 671.387, 663.023 
	L 671.386, 663.024 
	L 671.386, 454.819 
" />
<path d="M 675.922, 663.023 
	L 675.921, 663.024 
	L 675.921, 454.819 
" />
<path d="M 680.457, 663.023 
	L 680.457, 663.024 
	L 680.457, 454.819 
" />
<path d="M 684.993, 663.023 
	L 684.992, 663.024 
	L 684.992, 454.819 
" />
<path d="M 689.528, 663.023 
	L 689.528, 663.024 
	L 689.528, 454.819 
" />
<path d="M 694.064, 663.023 
	L 694.063, 663.024 
	L 694.063, 454.819 
" />
<path d="M 698.599, 663.023 
	L 698.599, 663.024 
	L 698.599, 454.819 
" />
<path d="M 703.135, 663.023 
	L 703.134, 663.024 
	L 703.134, 454.819 
" />
<path d="M 294.946, 667.275 
	L 294.945, 667.276 
	L 294.945, 663.024 
" />
<path d="M 300.261, 667.275 
	L 300.260, 667.276 
	L 300.260, 663.024 
" />
<path d="M 305.576, 667.275 
	L 305.575, 667.276 
	L 305.575, 663.024 
" />
<path d="M 310.891, 667.275 
	L 310.890, 667.276 
	L 310.890, 663.024 
" />
<path d="M 316.205, 667.275 
	L 316.205, 667.276 
	L 316.205, 663.024 
" />
<path d="M 321.520, 667.275 
	L 321.520, 667.276 
	L 321.520, 663.024 
" />
<path d="M 326.835, 667.275 
	L 326.835, 667.276 
	L 326.835, 663.024 
" />
<path d="M 332.150, 667.275 
	L 332.150, 667.276 
	L 332.150, 663.024 
" />
<path d="M 337.465, 667.275 
	L 337.465, 667.276 
	L 337.465, 663.024 
" />
<path d="M 342.780, 667.275 
	L 342.780, 667.276 
	L 342.780, 663.024 
" />
<path d="M 348.095, 667.275 
	L 348.095, 667.276 
	L 348.095, 663.024 
" />
<path d="M 353.410, 667.275 
	L 353.410, 667.276 
	L 353.410, 663.024 
" />
<path d="M 358.725, 667.275 
	L 358.724, 667.276 
	L 358.724, 663.024 
" />
<path d="M 364.040, 667.275 
	L 364.039, 667.276 
	L 364.039, 663.024 
" />
<path d="M 369.355, 667.275 
	L 369.354, 667.276 
	L 369.354, 663.024 
" />
<path d="M 374.670, 667.275 
	L 374.669, 667.276 
	L 374.669, 663.024 
" />
<path d="M 379.985, 667.275 
	L 379.984, 667.276 
	L 379.984, 663.024 
" />
<path d="M 385.300, 667.275 
	L 385.299, 667.276 
	L 385.299, 663.024 
" />
<path d="M 390.615, 667.275 
	L 390.614, 667.276 
	L 390.614, 663.024 
" />
<path d="M 395.930, 667.275 
	L 395.929, 667.276 
	L 395.929, 663.024 
" />
<path d="M 401.245, 667.275 
	L 401.244, 667.276 
	L 401.244, 663.024 
" />
<path d="M 406.560, 667.275 
	L 406.559, 667.276 
	L 406.559, 663.024 
" />
<path d="M 411.875, 667.275 
	L 411.874, 667.276 
	L 411.874, 663.024 
" />
<path d="M 417.190, 667.275 
	L 417.189, 667.276 
	L 417.189, 663.024 
" />
<path d="M 422.505, 667.275 
	L 422.504, 667.276 
	L 422.504, 663.024 
" />
<path d="M 427.820, 667.275 
	L 427.819, 667.276 
	L 427.819, 663.024 
" />
<path d="M 433.135, 667.275 
	L 433.134, 667.276 
	L 433.134, 663.024 
" />
<path d="M 438.450, 667.275 
	L 438.449, 667.276 
	L 438.449, 663.024 
" />
<path d="M 443.765, 667.275 
	L 443.764, 667.276 
	L 443.764, 663.024 
" />
<path d="M 449.080, 667.275 
	L 449.079, 667.276 
	L 449.079, 663.024 
" />
<path d="M 454.394, 667.275 
	L 454.394, 667.276 
	L 454.394, 663.024 
" />
<path d="M 459.709, 667.275 
	L 459.709, 667.276 
	L 459.709, 663.024 
" />
<path d="M 465.024, 667.275 
	L 465.024, 667.276 
	L 465.024, 663.024 
" />
<path d="M 470.339, 667.275 
	L 470.339, 667.276 
	L 470.339, 663.024 
" />
<path d="M 475.654, 667.275 
	L 475.654, 667.276 
	L 475.654, 663.024 
" />
<path d="M 480.969, 667.275 
	L 480.969, 667.276 
	L 480.969, 663.024 
" />
<path d="M 486.284, 667.275 
	L 486.284, 667.276 
	L 486.284, 663.024 
" />
<path d="M 491.599, 667.275 
	L 491.599, 667.276 
	L 491.599, 663.024 
" />
<path d="M 496.914, 667.275 
	L 496.913, 667.276 
	L 496.913, 663.024 
" />
<path d="M 502.229, 667.275 
	L 502.228, 667.276 
	L 502.228, 663.024 
" />
<path d="M 507.544, 667.275 
	L 507.543, 667.276 
	L 507.543, 663.024 
" />
<path d="M 512.859, 667.275 
	L 512.858, 667.276 
	L 512.858, 663.024 
" />
<path d="M 518.174, 667.275 
	L 518.173, 667.276 
	L 518.173, 663.024 
" />
<path d="M 523.489, 667.275 
	L 523.488, 667.276 
	L 523.488, 663.024 
" />
<path d="M 528.804, 667.275 
	L 528.803, 667.276 
	L 528.803, 663.024 
" />
<path d="M 534.119, 667.275 
	L 534.118, 667.276 
	L 534.118, 663.024 
" />
<path d="M 539.434, 667.275 
	L 539.433, 667.276 
	L 539.433, 663.024 
" />
<path d="M 544.749, 667.275 
	L 544.748, 667.276 
	L 544.748, 663.024 
" />
<path d="M 550.064, 667.275 
	L 550.063, 667.276 
	L 550.063, 663.024 
" />
<path d="M 555.379, 667.275 
	L 555.378, 667.276 
	L 555.378, 663.024 
" />
<path d="M 560.694, 667.275 
	L 560.693, 667.276 
	L 560.693, 663.024 
" />
<path d="M 566.009, 667.275 
	L 566.008, 667.276 
	L 566.008, 663.024 
" />
<path d="M 571.324, 667.275 
	L 571.323, 667.276 
	L 571.323, 663.024 
" />
<path d="M 576.639, 667.275 
	L 576.638, 667.276 
	L 576.638, 663.024 
" />
<path d="M 581.954, 667.275 
	L 581.953, 667.276 
	L 581.953, 663.024 
" />
<path d="M 587.268, 667.275 
	L 587.268, 667.276 
	L 587.268, 663.024 
" />
<path d="M 592.583, 667.275 
	L 592.583, 667.276 
	L 592.583, 663.024 
" />
<path d="M 597.898, 667.275 
	L 597.898, 667.276 
	L 597.898, 663.024 
" />
<path d="M 603.213, 667.275 
	L 603.213, 667.276 
	L 603.213, 663.024 
" />
<path d="M 608.528, 667.275 
	L 608.528, 667.276 
	L 608.528, 663.024 
" />
<path d="M 613.843, 667.275 
	L 613.843, 667.276 
	L 613.843, 663.024 
" />
<path d="M 619.158, 667.275 
	L 619.158, 667.276 
	L 619.158, 663.024 
" />
<path d="M 624.473, 667.275 
	L 624.473, 667.276 
	L 624.473, 663.024 
" />
<path d="M 629.788, 667.275 
	L 629.787, 667.276 
	L 629.787, 663.024 
" />
<path d="M 635.103, 667.275 
	L 635.102, 667.276 
	L 635.102, 663.024 
" />
<path d="M 640.418, 667.275 
	L 640.417, 667.276 
	L 640.417, 663.024 
" />
<path d="M 645.733, 667.275 
	L 645.732, 667.276 
	L 645.732, 663.024 
" />
<path d="M 651.048, 667.275 
	L 651.047, 667.276 
	L 651.047, 663.024 
" />
<path d="M 656.363, 667.275 
	L 656.362, 667.276 
	L 656.362, 663.024 
" />
<path d="M 661.678, 667.275 
	L 661.677, 667.276 
	L 661.677, 663.024 
" />
<path d="M 666.993, 667.275 
	L 666.992, 667.276 
	L 666.992, 663.024 
" />
<path d="M 672.308, 667.275 
	L 672.307, 667.276 
	L 672.307, 663.024 
" />
<path d="M 677.623, 667.275 
	L 677.622, 667.276 
	L 677.622, 663.024 
" />
<path d="M 682.938, 667.275 
	L 682.937, 667.276 
	L 682.937, 663.024 
" />
<path d="M 688.253, 667.275 
	L 688.252, 667.276 
	L 688.252, 663.024 
" />
<path d="M 693.568, 667.275 
	L 693.567, 667.276 
	L 693.567, 663.024 
" />
<path d="M 698.883, 667.275 
	L 698.882, 667.276 
	L 698.882, 663.024 
" />
<path d="M 64.205, 708.661 
	L 64.205, 708.662 
	L 64.205, 703.772 
" />
<path d="M 64.205, 703.771 
	L 64.205, 703.772 
	L 64.205, 694.063 
" />
<path d="M 69.946, 703.771 
	L 69.945, 703.772 
	L 69.945, 694.063 
" />
<path d="M 74.552, 703.771 
	L 74.551, 703.772 
	L 74.551, 694.063 
" />
<path d="M 79.158, 703.771 
	L 79.157, 703.772 
	L 79.157, 694.063 
" />
<path d="M 83.765, 703.771 
	L 83.764, 703.772 
	L 83.764, 694.063 
" />
<path d="M 88.371, 703.771 
	L 88.370, 703.772 
	L 88.370, 694.063 
" />
<path d="M 92.977, 703.771 
	L 92.976, 703.772 
	L 92.976, 694.063 
" />
<path d="M 97.583, 703.771 
	L 97.583, 703.772 
	L 97.583, 694.063 
" />
<path d="M 102.190, 703.771 
	L 102.189, 703.772 
	L 102.189, 694.063 
" />
<path d="M 106.796, 703.771 
	L 106.795, 703.772 
	L 106.795, 694.063 
" />
<path d="M 111.402, 703.771 
	L 111.402, 703.772 
	L 111.402, 694.063 
" />
<path d="M 116.009, 703.771 
	L 116.008, 703.772 
	L 116.008, 694.063 
" />
<path d="M 120.615, 703.771 
	L 120.614, 703.772 
	L 120.614, 694.063 
" />
<path d="M 125.221, 703.771 
	L 125.220, 703.772 
	L 125.220, 694.063 
" />
<path d="M 129.828, 703.771 
	L 129.827, 703.772 
	L 129.827, 694.063 
" />
<path d="M 134.434, 703.771 
	L 134.433, 703.772 
	L 134.433, 694.063 
" />
<path d="M 139.040, 703.771 
	L 139.039, 703.772 
	L 139.039, 694.063 
" />
<path d="M 143.646, 703.771 
	L 143.646, 703.772 
	L 143.646, 694.063 
" />
<path d="M 148.253, 703.771 
	L 148.252, 703.772 
	L 148.252, 694.063 
" />
<path d="M 152.859, 703.771 
	L 152.858, 703.772 
	L 152.858, 694.063 
" />
<path d="M 157.465, 703.771 
	L 157.465, 703.772 
	L 157.465, 694.063 
" />
<path d="M 162.072, 703.771 
	L 162.071, 703.772 
	L 162.071, 694.063 
" />
<path d="M 166.678, 703.771 
	L 166.677, 703.772 
	L 166.677, 694.063 
" />
<path d="M 171.284, 703.771 
	L 171.283, 703.772 
	L 171.283, 694.063 
" />
<path d="M 69.946, 708.661 
	L 69.945, 708.662 
	L 69.945, 703.772 
" />
<path d="M 74.481, 708.661 
	L 74.480, 708.662 
	L 74.480, 703.772 
" />
<path d="M 79.016, 708.661 
	L 79.016, 708.662 
	L 79.016, 703.772 
" />
<path d="M 83.552, 708.661 
	L 83.551, 708.662 
	L 83.551, 703.772 
" />
<path d="M 88.087, 708.661 
	L 88.087, 708.662 
	L 88.087, 703.772 
" />
<path d="M 92.623, 708.661 
	L 92.622, 708.662 
	L 92.622, 703.772 
" />
<path d="M 97.158, 708.661 
	L 97.157, 708.662 
	L 97.157, 703.772 
" />
<path d="M 101.694, 708.661 
	L 101.693, 708.662 
	L 101.693, 703.772 
" />
<path d="M 106.229, 708.661 
	L 106.228, 708.662 
	L 106.228, 703.772 
" />
<path d="M 110.765, 708.661 
	L 110.764, 708.662 
	L 110.764, 703.772 
" />
<path d="M 115.300, 708.661 
	L 115.299, 708.662 
	L 115.299, 703.772 
" />
<path d="M 119.835, 708.661 
	L 119.835, 708.662 
	L 119.835, 703.772 
" />
<path d="M 124.371, 708.661 
	L 124.370, 708.662 
	L 124.370, 703.772 
" />
<path d="M 128.906, 708.661 
	L 128.906, 708.662 
	L 128.906, 703.772 
" />
<path d="M 133.442, 708.661 
	L 133.441, 708.662 
	L 133.441, 703.772 
" />
<path d="M 137.977, 708.661 
	L 137.976, 708.662 
	L 137.976, 703.772 
" />
<path d="M 142.513, 708.661 
	L 142.512, 708.662 
	L 142.512, 703.772 
" />
<path d="M 147.048, 708.661 
	L 147.047, 708.662 
	L 147.047, 703.772 
" />
<path d="M 151.583, 708.661 
	L 151.583, 708.662 
	L 151.583, 703.772 
" />
<path d="M 156.119, 708.661 
	L 156.118, 708.662 
	L 156.118, 703.772 
" />
<path d="M 160.654, 708.661 
	L 160.654, 708.662 
	L 160.654, 703.772 
" />
<path d="M 165.190, 708.661 
	L 165.189, 708.662 
	L 165.189, 703.772 
" />
<path d="M 169.725, 708.661 
	L 169.724, 708.662 
	L 169.724, 703.772 
" />
<path d="M 64.205, 694.062 
	L 64.205, 694.063 
	L 64.205, 690.945 
" />
<path d="M 68.457, 694.062 
	L 68.457, 694.063 
	L 68.457, 690.945 
" />
<path d="M 64.205, 690.944 
	L 64.205, 690.945 
	L 64.205, 667.276 
" />
<path d="M 73.702, 690.944 
	L 73.701, 690.945 
	L 73.701, 667.276 
" />
<path d="M 78.308, 690.944 
	L 78.307, 690.945 
	L 78.307, 667.276 
" />
<path d="M 82.914, 690.944 
	L 82.913, 690.945 
	L 82.913, 667.276 
" />
<path d="M 87.520, 690.944 
	L 87.520, 690.945 
	L 87.520, 667.276 
" />
<path d="M 92.127, 690.944 
	L 92.126, 690.945 
	L 92.126, 667.276 
" />
<path d="M 96.733, 690.944 
	L 96.732, 690.945 
	L 96.732, 667.276 
" />
<path d="M 101.339, 690.944 
	L 101.339, 690.945 
	L 101.339, 667.276 
" />
<path d="M 105.946, 690.944 
	L 105.945, 690.945 
	L 105.945, 667.276 
" />
<path d="M 110.552, 690.944 
	L 110.551, 690.945 
	L 110.551, 667.276 
" />
<path d="M 115.158, 690.944 
	L 115.157, 690.945 
	L 115.157, 667.276 
" />
<path d="M 119.765, 690.944 
	L 119.764, 690.945 
	L 119.764, 667.276 
" />
<path d="M 124.371, 690.944 
	L 124.370, 690.945 
	L 124.370, 667.276 
" />
<path d="M 128.977, 690.944 
	L 128.976, 690.945 
	L 128.976, 667.276 
" />
<path d="M 133.583, 690.944 
	L 133.583, 690.945 
	L 133.583, 667.276 
" />
<path d="M 138.190, 690.944 
	L 138.189, 690.945 
	L 138.189, 667.276 
" />
<path d="M 142.796, 690.944 
	L 142.795, 690.945 
	L 142.795, 667.276 
" />
<path d="M 147.402, 690.944 
	L 147.402, 690.945 
	L 147.402, 667.276 
" />
<path d="M 152.009, 690.944 
	L 152.008, 690.945 
	L 152.008, 667.276 
" />
<path d="M 156.615, 690.944 
	L 156.614, 690.945 
	L 156.614, 667.276 
" />
<path d="M 161.221, 690.944 
	L 161.220, 690.945 
	L 161.220, 667.276 
" />
<path d="M 165.828, 690.944 
	L 165.827, 690.945 
	L 165.827, 667.276 
" />
<path d="M 170.434, 690.944 
	L 170.433, 690.945 
	L 170.433, 667.276 
" />
<path d="M 73.702, 694.062 
	L 73.701, 694.063 
	L 73.701, 690.945 
" />
<path d="M 79.016, 694.062 
	L 79.016, 694.063 
	L 79.016, 690.945 
" />
<path d="M 84.331, 694.062 
	L 84.331, 694.063 
	L 84.331, 690.945 
" />
<path d="M 89.646, 694.062 
	L 89.646, 694.063 
	L 89.646, 690.945 
" />
<path d="M 94.961, 694.062 
	L 94.961, 694.063 
	L 94.961, 690.945 
" />
<path d="M 100.276, 694.062 
	L 100.276, 694.063 
	L 100.276, 690.945 
" />
<path d="M 105.591, 694.062 
	L 105.591, 694.063 
	L 105.591, 690.945 
" />
<path d="M 110.906, 694.062 
	L 110.906, 694.063 
	L 110.906, 690.945 
" />
<path d="M 116.221, 694.062 
	L 116.220, 694.063 
	L 116.220, 690.945 
" />
<path d="M 121.536, 694.062 
	L 121.535, 694.063 
	L 121.535, 690.945 
" />
<path d="M 126.851, 694.062 
	L 126.850, 694.063 
	L 126.850, 690.945 
" />
<path d="M 132.166, 694.062 
	L 132.165, 694.063 
	L 132.165, 690.945 
" />
<path d="M 137.481, 694.062 
	L 137.480, 694.063 
	L 137.480, 690.945 
" />
<path d="M 142.796, 694.062 
	L 142.795, 694.063 
	L 142.795, 690.945 
" />
<path d="M 148.111, 694.062 
	L 148.110, 694.063 
	L 148.110, 690.945 
" />
<path d="M 153.426, 694.062 
	L 153.425, 694.063 
	L 153.425, 690.945 
" />
<path d="M 158.741, 694.062 
	L 158.740, 694.063 
	L 158.740, 690.945 
" />
<path d="M 164.056, 694.062 
	L 164.055, 694.063 
	L 164.055, 690.945 
" />
<path d="M 169.371, 694.062 
	L 169.370, 694.063 
	L 169.370, 690.945 
" />
<path d="M 178.158, 694.062 
	L 178.158, 694.063 
	L 178.158, 691.228 
" />
<path d="M 182.410, 694.062 
	L 182.409, 694.063 
	L 182.409, 691.228 
" />
<path d="M 186.662, 694.062 
	L 186.661, 694.063 
	L 186.661, 691.228 
" />
<path d="M 190.914, 694.062 
	L 190.913, 694.063 
	L 190.913, 691.228 
" />
<path d="M 195.166, 694.062 
	L 195.165, 694.063 
	L 195.165, 691.228 
" />
<path d="M 199.418, 694.062 
	L 199.417, 694.063 
	L 199.417, 691.228 
" />
<path d="M 203.670, 694.062 
	L 203.669, 694.063 
	L 203.669, 691.228 
" />
<path d="M 207.922, 694.062 
	L 207.921, 694.063 
	L 207.921, 691.228 
" />
<path d="M 212.174, 694.062 
	L 212.173, 694.063 
	L 212.173, 691.228 
" />
<path d="M 216.426, 694.062 
	L 216.425, 694.063 
	L 216.425, 691.228 
" />
<path d="M 220.678, 694.062 
	L 220.677, 694.063 
	L 220.677, 691.228 
" />
<path d="M 224.930, 694.062 
	L 224.929, 694.063 
	L 224.929, 691.228 
" />
<path d="M 229.182, 694.062 
	L 229.181, 694.063 
	L 229.181, 691.228 
" />
<path d="M 233.434, 694.062 
	L 233.433, 694.063 
	L 233.433, 691.228 
" />
<path d="M 237.686, 694.062 
	L 237.685, 694.063 
	L 237.685, 691.228 
" />
<path d="M 241.938, 694.062 
	L 241.937, 694.063 
	L 241.937, 691.228 
" />
<path d="M 246.190, 694.062 
	L 246.189, 694.063 
	L 246.189, 691.228 
" />
<path d="M 250.442, 694.062 
	L 250.441, 694.063 
	L 250.441, 691.228 
" />
<path d="M 254.694, 694.062 
	L 254.693, 694.063 
	L 254.693, 691.228 
" />
<path d="M 258.946, 694.062 
	L 258.945, 694.063 
	L 258.945, 691.228 
" />
<path d="M 263.198, 694.062 
	L 263.197, 694.063 
	L 263.197, 691.228 
" />
<path d="M 267.450, 694.062 
	L 267.449, 694.063 
	L 267.449, 691.228 
" />
<path d="M 271.702, 694.062 
	L 271.701, 694.063 
	L 271.701, 691.228 
" />
<path d="M 275.954, 694.062 
	L 275.953, 694.063 
	L 275.953, 691.228 
" />
<path d="M 280.205, 694.062 
	L 280.205, 694.063 
	L 280.205, 691.228 
" />
<path d="M 284.457, 694.062 
	L 284.457, 694.063 
	L 284.457, 691.228 
" />
<path d="M 288.709, 694.062 
	L 288.709, 694.063 
	L 288.709, 691.228 
" />
<path d="M 292.961, 694.062 
	L 292.961, 694.063 
	L 292.961, 691.228 
" />
<path d="M 297.213, 694.062 
	L 297.213, 694.063 
	L 297.213, 691.228 
" />
<path d="M 301.465, 694.062 
	L 301.465, 694.063 
	L 301.465, 691.228 
" />
<path d="M 305.717, 694.062 
	L 305.717, 694.063 
	L 305.717, 691.228 
" />
<path d="M 178.158, 691.228 
	L 178.158, 691.228 
	L 178.158, 667.276 
" />
<path d="M 182.410, 691.228 
	L 182.409, 691.228 
	L 182.409, 667.276 
" />
<path d="M 186.662, 691.228 
	L 186.661, 691.228 
	L 186.661, 667.276 
" />
<path d="M 190.914, 691.228 
	L 190.913, 691.228 
	L 190.913, 667.276 
" />
<path d="M 195.166, 691.228 
	L 195.165, 691.228 
	L 195.165, 667.276 
" />
<path d="M 199.418, 691.228 
	L 199.417, 691.228 
	L 199.417, 667.276 
" />
<path d="M 203.670, 691.228 
	L 203.669, 691.228 
	L 203.669, 667.276 
" />
<path d="M 207.922, 691.228 
	L 207.921, 691.228 
	L 207.921, 667.276 
" />
<path d="M 212.174, 691.228 
	L 212.173, 691.228 
	L 212.173, 667.276 
" />
<path d="M 216.426, 691.228 
	L 216.425, 691.228 
	L 216.425, 667.276 
" />
<path d="M 220.678, 691.228 
	L 220.677, 691.228 
	L 220.677, 667.276 
" />
<path d="M 224.930, 691.228 
	L 224.929, 691.228 
	L 224.929, 667.276 
" />
<path d="M 229.182, 691.228 
	L 229.181, 691.228 
	L 229.181, 667.276 
" />
<path d="M 233.434, 691.228 
	L 233.433, 691.228 
	L 233.433, 667.276 
" />
<path d="M 237.686, 691.228 
	L 237.685, 691.228 
	L 237.685, 667.276 
" />
<path d="M 241.938, 691.228 
	L 241.937, 691.228 
	L 241.937, 667.276 
" />
<path d="M 246.190, 691.228 
	L 246.189, 691.228 
	L 246.189, 667.276 
" />
<path d="M 250.442, 691.228 
	L 250.441, 691.228 
	L 250.441, 667.276 
" />
<path d="M 254.694, 691.228 
	L 254.693, 691.228 
	L 254.693, 667.276 
" />
<path d="M 258.946, 691.228 
	L 258.945, 691.228 
	L 258.945, 667.276 
" />
<path d="M 263.198, 691.228 
	L 263.197, 691.228 
	L 263.197, 667.276 
" />
<path d="M 267.450, 691.228 
	L 267.449, 691.228 
	L 267.449, 667.276 
" />
<path d="M 271.702, 691.228 
	L 271.701, 691.228 
	L 271.701, 667.276 
" />
<path d="M 275.954, 691.228 
	L 275.953, 691.228 
	L 275.953, 667.276 
" />
<path d="M 280.205, 691.228 
	L 280.205, 691.228 
	L 280.205, 667.276 
" />
<path d="M 284.457, 691.228 
	L 284.457, 691.228 
	L 284.457, 667.276 
" />
<path d="M 288.709, 691.228 
	L 288.709, 691.228 
	L 288.709, 667.276 
" />
<path d="M 292.961, 691.228 
	L 292.961, 691.228 
	L 292.961, 667.276 
" />
<path d="M 297.213, 691.228 
	L 297.213, 691.228 
	L 297.213, 667.276 
" />
<path d="M 301.465, 691.228 
	L 301.465, 691.228 
	L 301.465, 667.276 
" />
<path d="M 305.717, 691.228 
	L 305.717, 691.228 
	L 305.717, 667.276 
" />
<path d="M 311.741, 691.228 
	L 311.740, 691.228 
	L 311.740, 667.276 
" />
<path d="M 317.410, 691.228 
	L 317.409, 691.228 
	L 317.409, 667.276 
" />
<path d="M 323.079, 691.228 
	L 323.079, 691.228 
	L 323.079, 667.276 
" />
<path d="M 328.749, 691.228 
	L 328.748, 691.228 
	L 328.748, 667.276 
" />
<path d="M 334.418, 691.228 
	L 334.417, 691.228 
	L 334.417, 667.276 
" />
<path d="M 340.087, 691.228 
	L 340.087, 691.228 
	L 340.087, 667.276 
" />
<path d="M 345.757, 691.228 
	L 345.756, 691.228 
	L 345.756, 667.276 
" />
<path d="M 351.426, 691.228 
	L 351.425, 691.228 
	L 351.425, 667.276 
" />
<path d="M 357.095, 691.228 
	L 357.095, 691.228 
	L 357.095, 667.276 
" />
<path d="M 362.765, 691.228 
	L 362.764, 691.228 
	L 362.764, 667.276 
" />
<path d="M 368.434, 691.228 
	L 368.433, 691.228 
	L 368.433, 667.276 
" />
<path d="M 374.103, 691.228 
	L 374.102, 691.228 
	L 374.102, 667.276 
" />
<path d="M 379.772, 691.228 
	L 379.772, 691.228 
	L 379.772, 667.276 
" />
<path d="M 385.442, 691.228 
	L 385.441, 691.228 
	L 385.441, 667.276 
" />
<path d="M 391.111, 691.228 
	L 391.110, 691.228 
	L 391.110, 667.276 
" />
<path d="M 396.780, 691.228 
	L 396.780, 691.228 
	L 396.780, 667.276 
" />
<path d="M 402.450, 691.228 
	L 402.449, 691.228 
	L 402.449, 667.276 
" />
<path d="M 408.119, 691.228 
	L 408.118, 691.228 
	L 408.118, 667.276 
" />
<path d="M 413.788, 691.228 
	L 413.787, 691.228 
	L 413.787, 667.276 
" />
<path d="M 419.457, 691.228 
	L 419.457, 691.228 
	L 419.457, 667.276 
" />
<path d="M 425.127, 691.228 
	L 425.126, 691.228 
	L 425.126, 667.276 
" />
<path d="M 430.796, 691.228 
	L 430.795, 691.228 
	L 430.795, 667.276 
" />
<path d="M 436.465, 691.228 
	L 436.465, 691.228 
	L 436.465, 667.276 
" />
<path d="M 442.135, 691.228 
	L 442.134, 691.228 
	L 442.134, 667.276 
" />
<path d="M 447.804, 691.228 
	L 447.803, 691.228 
	L 447.803, 667.276 
" />
<path d="M 453.473, 691.228 
	L 453.473, 691.228 
	L 453.473, 667.276 
" />
<path d="M 459.142, 691.228 
	L 459.142, 691.228 
	L 459.142, 667.276 
" />
<path d="M 464.812, 691.228 
	L 464.811, 691.228 
	L 464.811, 667.276 
" />
<path d="M 470.481, 691.228 
	L 470.480, 691.228 
	L 470.480, 667.276 
" />
<path d="M 476.150, 691.228 
	L 476.150, 691.228 
	L 476.150, 667.276 
" />
<path d="M 481.820, 691.228 
	L 481.819, 691.228 
	L 481.819, 667.276 
" />
<path d="M 487.489, 691.228 
	L 487.488, 691.228 
	L 487.488, 667.276 
" />
<path d="M 493.158, 691.228 
	L 493.158, 691.228 
	L 493.158, 667.276 
" />
<path d="M 498.828, 691.228 
	L 498.827, 691.228 
	L 498.827, 667.276 
" />
<path d="M 504.497, 691.228 
	L 504.496, 691.228 
	L 504.496, 667.276 
" />
<path d="M 510.166, 691.228 
	L 510.165, 691.228 
	L 510.165, 667.276 
" />
<path d="M 515.835, 691.228 
	L 515.835, 691.228 
	L 515.835, 667.276 
" />
<path d="M 521.505, 691.228 
	L 521.504, 691.228 
	L 521.504, 667.276 
" />
<path d="M 527.174, 691.228 
	L 527.173, 691.228 
	L 527.173, 667.276 
" />
<path d="M 532.843, 691.228 
	L 532.843, 691.228 
	L 532.843, 667.276 
" />
<path d="M 538.513, 691.228 
	L 538.512, 691.228 
	L 538.512, 667.276 
" />
<path d="M 544.182, 691.228 
	L 544.181, 691.228 
	L 544.181, 667.276 
" />
<path d="M 549.851, 691.228 
	L 549.850, 691.228 
	L 549.850, 667.276 
" />
<path d="M 555.520, 691.228 
	L 555.520, 691.228 
	L 555.520, 667.276 
" />
<path d="M 561.190, 691.228 
	L 561.189, 691.228 
	L 561.189, 667.276 
" />
<path d="M 566.859, 691.228 
	L 566.858, 691.228 
	L 566.858, 667.276 
" />
<path d="M 572.528, 691.228 
	L 572.528, 691.228 
	L 572.528, 667.276 
" />
<path d="M 578.198, 691.228 
	L 578.197, 691.228 
	L 578.197, 667.276 
" />
<path d="M 583.867, 691.228 
	L 583.866, 691.228 
	L 583.866, 667.276 
" />
<path d="M 589.536, 691.228 
	L 589.536, 691.228 
	L 589.536, 667.276 
" />
<path d="M 595.206, 691.228 
	L 595.205, 691.228 
	L 595.205, 667.276 
" />
<path d="M 600.875, 691.228 
	L 600.874, 691.228 
	L 600.874, 667.276 
" />
<path d="M 606.544, 691.228 
	L 606.543, 691.228 
	L 606.543, 667.276 
" />
<path d="M 612.213, 691.228 
	L 612.213, 691.228 
	L 612.213, 667.276 
" />
<path d="M 617.883, 691.228 
	L 617.882, 691.228 
	L 617.882, 667.276 
" />
<path d="M 623.552, 691.228 
	L 623.551, 691.228 
	L 623.551, 667.276 
" />
<path d="M 629.221, 691.228 
	L 629.221, 691.228 
	L 629.221, 667.276 
" />
<path d="M 634.891, 691.228 
	L 634.890, 691.228 
	L 634.890, 667.276 
" />
<path d="M 640.560, 691.228 
	L 640.559, 691.228 
	L 640.559, 667.276 
" />
<path d="M 646.229, 691.228 
	L 646.228, 691.228 
	L 646.228, 667.276 
" />
<path d="M 651.898, 691.228 
	L 651.898, 691.228 
	L 651.898, 667.276 
" />
<path d="M 657.568, 691.228 
	L 657.567, 691.228 
	L 657.567, 667.276 
" />
<path d="M 663.237, 691.228 
	L 663.236, 691.228 
	L 663.236, 667.276 
" />
<path d="M 668.906, 691.228 
	L 668.906, 691.228 
	L 668.906, 667.276 
" />
<path d="M 674.576, 691.228 
	L 674.575, 691.228 
	L 674.575, 667.276 
" />
<path d="M 680.245, 691.228 
	L 680.244, 691.228 
	L 680.244, 667.276 
" />
<path d="M 685.914, 691.228 
	L 685.913, 691.228 
	L 685.913, 667.276 
" />
<path d="M 691.583, 691.228 
	L 691.583, 691.228 
	L 691.583, 667.276 
" />
<path d="M 697.253, 691.228 
	L 697.252, 691.228 
	L 697.252, 667.276 
" />
<path d="M 702.922, 691.228 
	L 702.921, 691.228 
	L 702.921, 667.276 
" />
<path d="M 311.741, 694.062 
	L 311.740, 694.063 
	L 311.740, 691.228 
" />
<path d="M 315.993, 694.062 
	L 315.992, 694.063 
	L 315.992, 691.228 
" />
<path d="M 320.245, 694.062 
	L 320.244, 694.063 
	L 320.244, 691.228 
" />
<path d="M 324.497, 694.062 
	L 324.496, 694.063 
	L 324.496, 691.228 
" />
<path d="M 328.749, 694.062 
	L 328.748, 694.063 
	L 328.748, 691.228 
" />
<path d="M 333.001, 694.062 
	L 333.000, 694.063 
	L 333.000, 691.228 
" />
<path d="M 337.253, 694.062 
	L 337.252, 694.063 
	L 337.252, 691.228 
" />
<path d="M 341.505, 694.062 
	L 341.504, 694.063 
	L 341.504, 691.228 
" />
<path d="M 345.757, 694.062 
	L 345.756, 694.063 
	L 345.756, 691.228 
" />
<path d="M 350.009, 694.062 
	L 350.008, 694.063 
	L 350.008, 691.228 
" />
<path d="M 354.261, 694.062 
	L 354.260, 694.063 
	L 354.260, 691.228 
" />
<path d="M 358.513, 694.062 
	L 358.512, 694.063 
	L 358.512, 691.228 
" />
<path d="M 362.765, 694.062 
	L 362.764, 694.063 
	L 362.764, 691.228 
" />
<path d="M 367.016, 694.062 
	L 367.016, 694.063 
	L 367.016, 691.228 
" />
<path d="M 371.268, 694.062 
	L 371.268, 694.063 
	L 371.268, 691.228 
" />
<path d="M 375.520, 694.062 
	L 375.520, 694.063 
	L 375.520, 691.228 
" />
<path d="M 379.772, 694.062 
	L 379.772, 694.063 
	L 379.772, 691.228 
" />
<path d="M 384.024, 694.062 
	L 384.024, 694.063 
	L 384.024, 691.228 
" />
<path d="M 388.276, 694.062 
	L 388.276, 694.063 
	L 388.276, 691.228 
" />
<path d="M 392.528, 694.062 
	L 392.528, 694.063 
	L 392.528, 691.228 
" />
<path d="M 396.780, 694.062 
	L 396.780, 694.063 
	L 396.780, 691.228 
" />
<path d="M 401.032, 694.062 
	L 401.032, 694.063 
	L 401.032, 691.228 
" />
<path d="M 405.284, 694.062 
	L 405.284, 694.063 
	L 405.284, 691.228 
" />
<path d="M 409.536, 694.062 
	L 409.535, 694.063 
	L 409.535, 691.228 
" />
<path d="M 413.788, 694.062 
	L 413.787, 694.063 
	L 413.787, 691.228 
" />
<path d="M 418.040, 694.062 
	L 418.039, 694.063 
	L 418.039, 691.228 
" />
<path d="M 422.292, 694.062 
	L 422.291, 694.063 
	L 422.291, 691.228 
" />
<path d="M 426.544, 694.062 
	L 426.543, 694.063 
	L 426.543, 691.228 
" />
<path d="M 430.796, 694.062 
	L 430.795, 694.063 
	L 430.795, 691.228 
" />
<path d="M 435.048, 694.062 
	L 435.047, 694.063 
	L 435.047, 691.228 
" />
<path d="M 439.300, 694.062 
	L 439.299, 694.063 
	L 439.299, 691.228 
" />
<path d="M 443.552, 694.062 
	L 443.551, 694.063 
	L 443.551, 691.228 
" />
<path d="M 447.804, 694.062 
	L 447.803, 694.063 
	L 447.803, 691.228 
" />
<path d="M 452.056, 694.062 
	L 452.055, 694.063 
	L 452.055, 691.228 
" />
<path d="M 456.308, 694.062 
	L 456.307, 694.063 
	L 456.307, 691.228 
" />
<path d="M 460.560, 694.062 
	L 460.559, 694.063 
	L 460.559, 691.228 
" />
<path d="M 464.812, 694.062 
	L 464.811, 694.063 
	L 464.811, 691.228 
" />
<path d="M 469.064, 694.062 
	L 469.063, 694.063 
	L 469.063, 691.228 
" />
<path d="M 473.316, 694.062 
	L 473.315, 694.063 
	L 473.315, 691.228 
" />
<path d="M 477.568, 694.062 
	L 477.567, 694.063 
	L 477.567, 691.228 
" />
<path d="M 481.820, 694.062 
	L 481.819, 694.063 
	L 481.819, 691.228 
" />
<path d="M 486.072, 694.062 
	L 486.071, 694.063 
	L 486.071, 691.228 
" />
<path d="M 490.324, 694.062 
	L 490.323, 694.063 
	L 490.323, 691.228 
" />
<path d="M 494.576, 694.062 
	L 494.575, 694.063 
	L 494.575, 691.228 
" />
<path d="M 498.828, 694.062 
	L 498.827, 694.063 
	L 498.827, 691.228 
" />
<path d="M 503.080, 694.062 
	L 503.079, 694.063 
	L 503.079, 691.228 
" />
<path d="M 507.331, 694.062 
	L 507.331, 694.063 
	L 507.331, 691.228 
" />
<path d="M 511.583, 694.062 
	L 511.583, 694.063 
	L 511.583, 691.228 
" />
<path d="M 515.835, 694.062 
	L 515.835, 694.063 
	L 515.835, 691.228 
" />
<path d="M 520.087, 694.062 
	L 520.087, 694.063 
	L 520.087, 691.228 
" />
<path d="M 524.339, 694.062 
	L 524.339, 694.063 
	L 524.339, 691.228 
" />
<path d="M 528.591, 694.062 
	L 528.591, 694.063 
	L 528.591, 691.228 
" />
<path d="M 532.843, 694.062 
	L 532.843, 694.063 
	L 532.843, 691.228 
" />
<path d="M 537.095, 694.062 
	L 537.095, 694.063 
	L 537.095, 691.228 
" />
<path d="M 541.347, 694.062 
	L 541.347, 694.063 
	L 541.347, 691.228 
" />
<path d="M 545.599, 694.062 
	L 545.599, 694.063 
	L 545.599, 691.228 
" />
<path d="M 549.851, 694.062 
	L 549.850, 694.063 
	L 549.850, 691.228 
" />
<path d="M 554.103, 694.062 
	L 554.102, 694.063 
	L 554.102, 691.228 
" />
<path d="M 558.355, 694.062 
	L 558.354, 694.063 
	L 558.354, 691.228 
" />
<path d="M 562.607, 694.062 
	L 562.606, 694.063 
	L 562.606, 691.228 
" />
<path d="M 566.859, 694.062 
	L 566.858, 694.063 
	L 566.858, 691.228 
" />
<path d="M 571.111, 694.062 
	L 571.110, 694.063 
	L 571.110, 691.228 
" />
<path d="M 575.363, 694.062 
	L 575.362, 694.063 
	L 575.362, 691.228 
" />
<path d="M 579.615, 694.062 
	L 579.614, 694.063 
	L 579.614, 691.228 
" />
<path d="M 583.867, 694.062 
	L 583.866, 694.063 
	L 583.866, 691.228 
" />
<path d="M 588.119, 694.062 
	L 588.118, 694.063 
	L 588.118, 691.228 
" />
<path d="M 592.371, 694.062 
	L 592.370, 694.063 
	L 592.370, 691.228 
" />
<path d="M 596.623, 694.062 
	L 596.622, 694.063 
	L 596.622, 691.228 
" />
<path d="M 600.875, 694.062 
	L 600.874, 694.063 
	L 600.874, 691.228 
" />
<path d="M 605.127, 694.062 
	L 605.126, 694.063 
	L 605.126, 691.228 
" />
<path d="M 609.379, 694.062 
	L 609.378, 694.063 
	L 609.378, 691.228 
" />
<path d="M 613.631, 694.062 
	L 613.630, 694.063 
	L 613.630, 691.228 
" />
<path d="M 617.883, 694.062 
	L 617.882, 694.063 
	L 617.882, 691.228 
" />
<path d="M 622.135, 694.062 
	L 622.134, 694.063 
	L 622.134, 691.228 
" />
<path d="M 626.387, 694.062 
	L 626.386, 694.063 
	L 626.386, 691.228 
" />
<path d="M 630.639, 694.062 
	L 630.638, 694.063 
	L 630.638, 691.228 
" />
<path d="M 634.891, 694.062 
	L 634.890, 694.063 
	L 634.890, 691.228 
" />
<path d="M 639.143, 694.062 
	L 639.142, 694.063 
	L 639.142, 691.228 
" />
<path d="M 643.394, 694.062 
	L 643.394, 694.063 
	L 643.394, 691.228 
" />
<path d="M 647.646, 694.062 
	L 647.646, 694.063 
	L 647.646, 691.228 
" />
<path d="M 651.898, 694.062 
	L 651.898, 694.063 
	L 651.898, 691.228 
" />
<path d="M 656.150, 694.062 
	L 656.150, 694.063 
	L 656.150, 691.228 
" />
<path d="M 660.402, 694.062 
	L 660.402, 694.063 
	L 660.402, 691.228 
" />
<path d="M 664.654, 694.062 
	L 664.654, 694.063 
	L 664.654, 691.228 
" />
<path d="M 668.906, 694.062 
	L 668.906, 694.063 
	L 668.906, 691.228 
" />
<path d="M 673.158, 694.062 
	L 673.158, 694.063 
	L 673.158, 691.228 
" />
<path d="M 677.410, 694.062 
	L 677.410, 694.063 
	L 677.410, 691.228 
" />
<path d="M 681.662, 694.062 
	L 681.662, 694.063 
	L 681.662, 691.228 
" />
<path d="M 685.914, 694.062 
	L 685.913, 694.063 
	L 685.913, 691.228 
" />
<path d="M 690.166, 694.062 
	L 690.165, 694.063 
	L 690.165, 691.228 
" />
<path d="M 694.418, 694.062 
	L 694.417, 694.063 
	L 694.417, 691.228 
" />
<path d="M 698.670, 694.062 
	L 698.669, 694.063 
	L 698.669, 691.228 
" />
<path d="M 702.922, 694.062 
	L 702.921, 694.063 
	L 702.921, 691.228 
" />
<path d="M 178.158, 708.661 
	L 178.158, 708.662 
	L 178.158, 703.276 
" />
<path d="M 182.765, 708.661 
	L 182.764, 708.662 
	L 182.764, 703.276 
" />
<path d="M 187.371, 708.661 
	L 187.370, 708.662 
	L 187.370, 703.276 
" />
<path d="M 191.977, 708.661 
	L 191.976, 708.662 
	L 191.976, 703.276 
" />
<path d="M 196.583, 708.661 
	L 196.583, 708.662 
	L 196.583, 703.276 
" />
<path d="M 201.190, 708.661 
	L 201.189, 708.662 
	L 201.189, 703.276 
" />
<path d="M 205.796, 708.661 
	L 205.795, 708.662 
	L 205.795, 703.276 
" />
<path d="M 210.402, 708.661 
	L 210.402, 708.662 
	L 210.402, 703.276 
" />
<path d="M 215.009, 708.661 
	L 215.008, 708.662 
	L 215.008, 703.276 
" />
<path d="M 219.615, 708.661 
	L 219.614, 708.662 
	L 219.614, 703.276 
" />
<path d="M 178.158, 703.275 
	L 178.158, 703.276 
	L 178.158, 694.063 
" />
<path d="M 182.765, 703.275 
	L 182.764, 703.276 
	L 182.764, 694.063 
" />
<path d="M 187.371, 703.275 
	L 187.370, 703.276 
	L 187.370, 694.063 
" />
<path d="M 191.977, 703.275 
	L 191.976, 703.276 
	L 191.976, 694.063 
" />
<path d="M 196.583, 703.275 
	L 196.583, 703.276 
	L 196.583, 694.063 
" />
<path d="M 201.190, 703.275 
	L 201.189, 703.276 
	L 201.189, 694.063 
" />
<path d="M 205.796, 703.275 
	L 205.795, 703.276 
	L 205.795, 694.063 
" />
<path d="M 210.402, 703.275 
	L 210.402, 703.276 
	L 210.402, 694.063 
" />
<path d="M 215.009, 703.275 
	L 215.008, 703.276 
	L 215.008, 694.063 
" />
<path d="M 219.615, 703.275 
	L 219.614, 703.276 
	L 219.614, 694.063 
" />
<path d="M 228.402, 703.275 
	L 228.402, 703.276 
	L 228.402, 694.063 
" />
<path d="M 233.717, 703.275 
	L 233.717, 703.276 
	L 233.717, 694.063 
" />
<path d="M 239.032, 703.275 
	L 239.032, 703.276 
	L 239.032, 694.063 
" />
<path d="M 244.347, 703.275 
	L 244.346, 703.276 
	L 244.346, 694.063 
" />
<path d="M 249.662, 703.275 
	L 249.661, 703.276 
	L 249.661, 694.063 
" />
<path d="M 254.977, 703.275 
	L 254.976, 703.276 
	L 254.976, 694.063 
" />
<path d="M 260.292, 703.275 
	L 260.291, 703.276 
	L 260.291, 694.063 
" />
<path d="M 265.607, 703.275 
	L 265.606, 703.276 
	L 265.606, 694.063 
" />
<path d="M 270.922, 703.275 
	L 270.921, 703.276 
	L 270.921, 694.063 
" />
<path d="M 276.237, 703.275 
	L 276.236, 703.276 
	L 276.236, 694.063 
" />
<path d="M 281.552, 703.275 
	L 281.551, 703.276 
	L 281.551, 694.063 
" />
<path d="M 286.867, 703.275 
	L 286.866, 703.276 
	L 286.866, 694.063 
" />
<path d="M 292.182, 703.275 
	L 292.181, 703.276 
	L 292.181, 694.063 
" />
<path d="M 297.497, 703.275 
	L 297.496, 703.276 
	L 297.496, 694.063 
" />
<path d="M 302.812, 703.275 
	L 302.811, 703.276 
	L 302.811, 694.063 
" />
<path d="M 308.127, 703.275 
	L 308.126, 703.276 
	L 308.126, 694.063 
" />
<path d="M 313.442, 703.275 
	L 313.441, 703.276 
	L 313.441, 694.063 
" />
<path d="M 318.757, 703.275 
	L 318.756, 703.276 
	L 318.756, 694.063 
" />
<path d="M 324.072, 703.275 
	L 324.071, 703.276 
	L 324.071, 694.063 
" />
<path d="M 329.387, 703.275 
	L 329.386, 703.276 
	L 329.386, 694.063 
" />
<path d="M 334.702, 703.275 
	L 334.701, 703.276 
	L 334.701, 694.063 
" />
<path d="M 340.016, 703.275 
	L 340.016, 703.276 
	L 340.016, 694.063 
" />
<path d="M 345.331, 703.275 
	L 345.331, 703.276 
	L 345.331, 694.063 
" />
<path d="M 350.646, 703.275 
	L 350.646, 703.276 
	L 350.646, 694.063 
" />
<path d="M 355.961, 703.275 
	L 355.961, 703.276 
	L 355.961, 694.063 
" />
<path d="M 361.276, 703.275 
	L 361.276, 703.276 
	L 361.276, 694.063 
" />
<path d="M 366.591, 703.275 
	L 366.591, 703.276 
	L 366.591, 694.063 
" />
<path d="M 371.906, 703.275 
	L 371.906, 703.276 
	L 371.906, 694.063 
" />
<path d="M 377.221, 703.275 
	L 377.221, 703.276 
	L 377.221, 694.063 
" />
<path d="M 382.536, 703.275 
	L 382.535, 703.276 
	L 382.535, 694.063 
" />
<path d="M 387.851, 703.275 
	L 387.850, 703.276 
	L 387.850, 694.063 
" />
<path d="M 393.166, 703.275 
	L 393.165, 703.276 
	L 393.165, 694.063 
" />
<path d="M 398.481, 703.275 
	L 398.480, 703.276 
	L 398.480, 694.063 
" />
<path d="M 403.796, 703.275 
	L 403.795, 703.276 
	L 403.795, 694.063 
" />
<path d="M 409.111, 703.275 
	L 409.110, 703.276 
	L 409.110, 694.063 
" />
<path d="M 414.426, 703.275 
	L 414.425, 703.276 
	L 414.425, 694.063 
" />
<path d="M 419.741, 703.275 
	L 419.740, 703.276 
	L 419.740, 694.063 
" />
<path d="M 425.056, 703.275 
	L 425.055, 703.276 
	L 425.055, 694.063 
" />
<path d="M 430.371, 703.275 
	L 430.370, 703.276 
	L 430.370, 694.063 
" />
<path d="M 435.686, 703.275 
	L 435.685, 703.276 
	L 435.685, 694.063 
" />
<path d="M 441.001, 703.275 
	L 441.000, 703.276 
	L 441.000, 694.063 
" />
<path d="M 446.316, 703.275 
	L 446.315, 703.276 
	L 446.315, 694.063 
" />
<path d="M 451.631, 703.275 
	L 451.630, 703.276 
	L 451.630, 694.063 
" />
<path d="M 456.946, 703.275 
	L 456.945, 703.276 
	L 456.945, 694.063 
" />
<path d="M 462.261, 703.275 
	L 462.260, 703.276 
	L 462.260, 694.063 
" />
<path d="M 467.576, 703.275 
	L 467.575, 703.276 
	L 467.575, 694.063 
" />
<path d="M 472.891, 703.275 
	L 472.890, 703.276 
	L 472.890, 694.063 
" />
<path d="M 478.205, 703.275 
	L 478.205, 703.276 
	L 478.205, 694.063 
" />
<path d="M 483.520, 703.275 
	L 483.520, 703.276 
	L 483.520, 694.063 
" />
<path d="M 488.835, 703.275 
	L 488.835, 703.276 
	L 488.835, 694.063 
" />
<path d="M 494.150, 703.275 
	L 494.150, 703.276 
	L 494.150, 694.063 
" />
<path d="M 499.465, 703.275 
	L 499.465, 703.276 
	L 499.465, 694.063 
" />
<path d="M 504.780, 703.275 
	L 504.780, 703.276 
	L 504.780, 694.063 
" />
<path d="M 510.095, 703.275 
	L 510.095, 703.276 
	L 510.095, 694.063 
" />
<path d="M 515.410, 703.275 
	L 515.410, 703.276 
	L 515.410, 694.063 
" />
<path d="M 520.725, 703.275 
	L 520.724, 703.276 
	L 520.724, 694.063 
" />
<path d="M 526.040, 703.275 
	L 526.039, 703.276 
	L 526.039, 694.063 
" />
<path d="M 531.355, 703.275 
	L 531.354, 703.276 
	L 531.354, 694.063 
" />
<path d="M 536.670, 703.275 
	L 536.669, 703.276 
	L 536.669, 694.063 
" />
<path d="M 541.985, 703.275 
	L 541.984, 703.276 
	L 541.984, 694.063 
" />
<path d="M 547.300, 703.275 
	L 547.299, 703.276 
	L 547.299, 694.063 
" />
<path d="M 552.615, 703.275 
	L 552.614, 703.276 
	L 552.614, 694.063 
" />
<path d="M 557.930, 703.275 
	L 557.929, 703.276 
	L 557.929, 694.063 
" />
<path d="M 563.245, 703.275 
	L 563.244, 703.276 
	L 563.244, 694.063 
" />
<path d="M 568.560, 703.275 
	L 568.559, 703.276 
	L 568.559, 694.063 
" />
<path d="M 573.875, 703.275 
	L 573.874, 703.276 
	L 573.874, 694.063 
" />
<path d="M 579.190, 703.275 
	L 579.189, 703.276 
	L 579.189, 694.063 
" />
<path d="M 584.505, 703.275 
	L 584.504, 703.276 
	L 584.504, 694.063 
" />
<path d="M 589.820, 703.275 
	L 589.819, 703.276 
	L 589.819, 694.063 
" />
<path d="M 595.135, 703.275 
	L 595.134, 703.276 
	L 595.134, 694.063 
" />
<path d="M 600.450, 703.275 
	L 600.449, 703.276 
	L 600.449, 694.063 
" />
<path d="M 605.765, 703.275 
	L 605.764, 703.276 
	L 605.764, 694.063 
" />
<path d="M 611.080, 703.275 
	L 611.079, 703.276 
	L 611.079, 694.063 
" />
<path d="M 616.394, 703.275 
	L 616.394, 703.276 
	L 616.394, 694.063 
" />
<path d="M 621.709, 703.275 
	L 621.709, 703.276 
	L 621.709, 694.063 
" />
<path d="M 627.024, 703.275 
	L 627.024, 703.276 
	L 627.024, 694.063 
" />
<path d="M 632.339, 703.275 
	L 632.339, 703.276 
	L 632.339, 694.063 
" />
<path d="M 637.654, 703.275 
	L 637.654, 703.276 
	L 637.654, 694.063 
" />
<path d="M 642.969, 703.275 
	L 642.969, 703.276 
	L 642.969, 694.063 
" />
<path d="M 648.284, 703.275 
	L 648.284, 703.276 
	L 648.284, 694.063 
" />
<path d="M 653.599, 703.275 
	L 653.599, 703.276 
	L 653.599, 694.063 
" />
<path d="M 658.914, 703.275 
	L 658.913, 703.276 
	L 658.913, 694.063 
" />
<path d="M 664.229, 703.275 
	L 664.228, 703.276 
	L 664.228, 694.063 
" />
<path d="M 669.544, 703.275 
	L 669.543, 703.276 
	L 669.543, 694.063 
" />
<path d="M 674.859, 703.275 
	L 674.858, 703.276 
	L 674.858, 694.063 
" />
<path d="M 680.174, 703.275 
	L 680.173, 703.276 
	L 680.173, 694.063 
" />
<path d="M 685.489, 703.275 
	L 685.488, 703.276 
	L 685.488, 694.063 
" />
<path d="M 690.804, 703.275 
	L 690.803, 703.276 
	L 690.803, 694.063 
" />
<path d="M 696.119, 703.275 
	L 696.118, 703.276 
	L 696.118, 694.063 
" />
<path d="M 701.434, 703.275 
	L 701.433, 703.276 
	L 701.433, 694.063 
" />
<path d="M 228.402, 708.661 
	L 228.402, 708.662 
	L 228.402, 703.276 
" />
<path d="M 234.072, 708.661 
	L 234.071, 708.662 
	L 234.071, 703.276 
" />
<path d="M 239.741, 708.661 
	L 239.740, 708.662 
	L 239.740, 703.276 
" />
<path d="M 245.410, 708.661 
	L 245.409, 708.662 
	L 245.409, 703.276 
" />
<path d="M 251.079, 708.661 
	L 251.079, 708.662 
	L 251.079, 703.276 
" />
<path d="M 256.749, 708.661 
	L 256.748, 708.662 
	L 256.748, 703.276 
" />
<path d="M 262.418, 708.661 
	L 262.417, 708.662 
	L 262.417, 703.276 
" />
<path d="M 268.087, 708.661 
	L 268.087, 708.662 
	L 268.087, 703.276 
" />
<path d="M 273.757, 708.661 
	L 273.756, 708.662 
	L 273.756, 703.276 
" />
<path d="M 279.426, 708.661 
	L 279.425, 708.662 
	L 279.425, 703.276 
" />
<path d="M 285.095, 708.661 
	L 285.095, 708.662 
	L 285.095, 703.276 
" />
<path d="M 290.765, 708.661 
	L 290.764, 708.662 
	L 290.764, 703.276 
" />
<path d="M 296.434, 708.661 
	L 296.433, 708.662 
	L 296.433, 703.276 
" />
<path d="M 302.103, 708.661 
	L 302.102, 708.662 
	L 302.102, 703.276 
" />
<path d="M 307.772, 708.661 
	L 307.772, 708.662 
	L 307.772, 703.276 
" />
<path d="M 313.442, 708.661 
	L 313.441, 708.662 
	L 313.441, 703.276 
" />
<path d="M 319.111, 708.661 
	L 319.110, 708.662 
	L 319.110, 703.276 
" />
<path d="M 324.780, 708.661 
	L 324.780, 708.662 
	L 324.780, 703.276 
" />
<path d="M 330.450, 708.661 
	L 330.449, 708.662 
	L 330.449, 703.276 
" />
<path d="M 336.119, 708.661 
	L 336.118, 708.662 
	L 336.118, 703.276 
" />
<path d="M 341.788, 708.661 
	L 341.787, 708.662 
	L 341.787, 703.276 
" />
<path d="M 347.457, 708.661 
	L 347.457, 708.662 
	L 347.457, 703.276 
" />
<path d="M 353.127, 708.661 
	L 353.126, 708.662 
	L 353.126, 703.276 
" />
<path d="M 358.796, 708.661 
	L 358.795, 708.662 
	L 358.795, 703.276 
" />
<path d="M 364.465, 708.661 
	L 364.465, 708.662 
	L 364.465, 703.276 
" />
<path d="M 370.135, 708.661 
	L 370.134, 708.662 
	L 370.134, 703.276 
" />
<path d="M 375.804, 708.661 
	L 375.803, 708.662 
	L 375.803, 703.276 
" />
<path d="M 381.473, 708.661 
	L 381.472, 708.662 
	L 381.472, 703.276 
" />
<path d="M 387.142, 708.661 
	L 387.142, 708.662 
	L 387.142, 703.276 
" />
<path d="M 392.812, 708.661 
	L 392.811, 708.662 
	L 392.811, 703.276 
" />
<path d="M 398.481, 708.661 
	L 398.480, 708.662 
	L 398.480, 703.276 
" />
<path d="M 404.150, 708.661 
	L 404.150, 708.662 
	L 404.150, 703.276 
" />
<path d="M 409.820, 708.661 
	L 409.819, 708.662 
	L 409.819, 703.276 
" />
<path d="M 415.489, 708.661 
	L 415.488, 708.662 
	L 415.488, 703.276 
" />
<path d="M 421.158, 708.661 
	L 421.158, 708.662 
	L 421.158, 703.276 
" />
<path d="M 426.828, 708.661 
	L 426.827, 708.662 
	L 426.827, 703.276 
" />
<path d="M 432.497, 708.661 
	L 432.496, 708.662 
	L 432.496, 703.276 
" />
<path d="M 438.166, 708.661 
	L 438.165, 708.662 
	L 438.165, 703.276 
" />
<path d="M 443.835, 708.661 
	L 443.835, 708.662 
	L 443.835, 703.276 
" />
<path d="M 449.505, 708.661 
	L 449.504, 708.662 
	L 449.504, 703.276 
" />
<path d="M 455.174, 708.661 
	L 455.173, 708.662 
	L 455.173, 703.276 
" />
<path d="M 460.843, 708.661 
	L 460.843, 708.662 
	L 460.843, 703.276 
" />
<path d="M 466.513, 708.661 
	L 466.512, 708.662 
	L 466.512, 703.276 
" />
<path d="M 472.182, 708.661 
	L 472.181, 708.662 
	L 472.181, 703.276 
" />
<path d="M 477.851, 708.661 
	L 477.850, 708.662 
	L 477.850, 703.276 
" />
<path d="M 483.520, 708.661 
	L 483.520, 708.662 
	L 483.520, 703.276 
" />
<path d="M 489.190, 708.661 
	L 489.189, 708.662 
	L 489.189, 703.276 
" />
<path d="M 494.859, 708.661 
	L 494.858, 708.662 
	L 494.858, 703.276 
" />
<path d="M 500.528, 708.661 
	L 500.528, 708.662 
	L 500.528, 703.276 
" />
<path d="M 506.198, 708.661 
	L 506.197, 708.662 
	L 506.197, 703.276 
" />
<path d="M 511.867, 708.661 
	L 511.866, 708.662 
	L 511.866, 703.276 
" />
<path d="M 517.536, 708.661 
	L 517.536, 708.662 
	L 517.536, 703.276 
" />
<path d="M 523.205, 708.661 
	L 523.205, 708.662 
	L 523.205, 703.276 
" />
<path d="M 528.875, 708.661 
	L 528.874, 708.662 
	L 528.874, 703.276 
" />
<path d="M 534.544, 708.661 
	L 534.543, 708.662 
	L 534.543, 703.276 
" />
<path d="M 540.213, 708.661 
	L 540.213, 708.662 
	L 540.213, 703.276 
" />
<path d="M 545.883, 708.661 
	L 545.882, 708.662 
	L 545.882, 703.276 
" />
<path d="M 551.552, 708.661 
	L 551.551, 708.662 
	L 551.551, 703.276 
" />
<path d="M 557.221, 708.661 
	L 557.221, 708.662 
	L 557.221, 703.276 
" />
<path d="M 562.891, 708.661 
	L 562.890, 708.662 
	L 562.890, 703.276 
" />
<path d="M 568.560, 708.661 
	L 568.559, 708.662 
	L 568.559, 703.276 
" />
<path d="M 574.229, 708.661 
	L 574.228, 708.662 
	L 574.228, 703.276 
" />
<path d="M 579.898, 708.661 
	L 579.898, 708.662 
	L 579.898, 703.276 
" />
<path d="M 585.568, 708.661 
	L 585.567, 708.662 
	L 585.567, 703.276 
" />
<path d="M 591.237, 708.661 
	L 591.236, 708.662 
	L 591.236, 703.276 
" />
<path d="M 596.906, 708.661 
	L 596.906, 708.662 
	L 596.906, 703.276 
" />
<path d="M 602.576, 708.661 
	L 602.575, 708.662 
	L 602.575, 703.276 
" />
<path d="M 608.245, 708.661 
	L 608.244, 708.662 
	L 608.244, 703.276 
" />
<path d="M 613.914, 708.661 
	L 613.913, 708.662 
	L 613.913, 703.276 
" />
<path d="M 619.583, 708.661 
	L 619.583, 708.662 
	L 619.583, 703.276 
" />
<path d="M 625.253, 708.661 
	L 625.252, 708.662 
	L 625.252, 703.276 
" />
<path d="M 630.922, 708.661 
	L 630.921, 708.662 
	L 630.921, 703.276 
" />
<path d="M 636.591, 708.661 
	L 636.591, 708.662 
	L 636.591, 703.276 
" />
<path d="M 642.261, 708.661 
	L 642.260, 708.662 
	L 642.260, 703.276 
" />
<path d="M 647.930, 708.661 
	L 647.929, 708.662 
	L 647.929, 703.276 
" />
<path d="M 653.599, 708.661 
	L 653.599, 708.662 
	L 653.599, 703.276 
" />
<path d="M 659.269, 708.661 
	L 659.268, 708.662 
	L 659.268, 703.276 
" />
<path d="M 664.938, 708.661 
	L 664.937, 708.662 
	L 664.937, 703.276 
" />
<path d="M 670.607, 708.661 
	L 670.606, 708.662 
	L 670.606, 703.276 
" />
<path d="M 676.276, 708.661 
	L 676.276, 708.662 
	L 676.276, 703.276 
" />
<path d="M 681.946, 708.661 
	L 681.945, 708.662 
	L 681.945, 703.276 
" />
<path d="M 687.615, 708.661 
	L 687.614, 708.662 
	L 687.614, 703.276 
" />
<path d="M 693.284, 708.661 
	L 693.284, 708.662 
	L 693.284, 703.276 
" />
<path d="M 698.954, 708.661 
	L 698.953, 708.662 
	L 698.953, 703.276 
" />
<path d="M 1133.858, 708.662 
	L 1129.606, 703.347 
" />
<path d="M 1129.606, 702.284 
	L 1133.150, 702.284 
	L 1133.858, 701.221 
	L 1133.858, 699.095 
	L 1133.150, 698.032 
	L 1129.606, 698.032 
" />
<path d="M 1131.024, 692.717 
	L 1131.024, 694.843 
	L 1131.732, 695.906 
	L 1132.441, 694.843 
	L 1132.441, 693.780 
	L 1133.150, 692.717 
	L 1133.858, 693.780 
	L 1133.858, 695.906 
" />
<path d="M 1132.441, 689.528 
	L 1132.441, 686.339 
	L 1131.732, 685.276 
	L 1131.024, 686.339 
	L 1131.024, 688.465 
	L 1131.732, 689.528 
	L 1133.150, 689.528 
	L 1133.858, 688.465 
	L 1133.858, 685.276 
" />
<path d="M 1131.024, 683.150 
	L 1133.858, 683.150 
" />
<path d="M 1132.441, 683.150 
	L 1131.024, 681.024 
	L 1131.024, 679.961 
" />
<path d="M 1131.024, 673.583 
	L 1131.024, 675.709 
	L 1131.732, 676.772 
	L 1132.441, 675.709 
	L 1132.441, 674.646 
	L 1133.150, 673.583 
	L 1133.858, 674.646 
	L 1133.858, 676.772 
" />
<path d="M 1133.858, 670.394 
	L 1129.606, 665.079 
" />
<path d="M 1133.858, 664.016 
	L 1129.606, 664.016 
" />
<path d="M 1133.858, 660.827 
	L 1132.441, 664.016 
	L 1131.024, 660.827 
" />
<path d="M 1133.858, 653.386 
	L 1133.858, 656.575 
	L 1133.150, 657.638 
	L 1131.732, 657.638 
	L 1131.024, 656.575 
	L 1131.024, 654.449 
	L 1133.858, 654.449 
" />
<path d="M 1133.858, 650.197 
	L 1133.150, 651.260 
	L 1131.732, 651.260 
	L 1131.024, 650.197 
	L 1131.024, 649.134 
	L 1131.732, 648.071 
	L 1133.150, 648.071 
	L 1133.858, 649.134 
	L 1133.858, 650.197 
" />
<path d="M 1131.024, 641.693 
	L 1131.024, 643.819 
	L 1131.732, 644.882 
	L 1132.441, 643.819 
	L 1132.441, 642.756 
	L 1133.150, 641.693 
	L 1133.858, 642.756 
	L 1133.858, 644.882 
" />
<path d="M 1133.858, 638.504 
	L 1129.606, 633.189 
" />
<path d="M 1133.858, 632.126 
	L 1129.606, 632.126 
	L 1129.606, 628.937 
	L 1130.315, 627.874 
	L 1133.150, 627.874 
	L 1133.858, 628.937 
	L 1133.858, 632.126 
" />
<path d="M 1133.858, 624.685 
	L 1133.150, 625.748 
	L 1131.732, 625.748 
	L 1131.024, 624.685 
	L 1131.024, 623.622 
	L 1131.732, 622.559 
	L 1133.150, 622.559 
	L 1133.858, 623.622 
	L 1133.858, 624.685 
" />
<path d="M 1133.150, 615.118 
	L 1133.858, 616.181 
	L 1133.858, 617.244 
	L 1133.150, 618.307 
	L 1131.732, 618.307 
	L 1131.024, 617.244 
	L 1131.024, 616.181 
	L 1131.732, 615.118 
" />
<path d="M 1131.024, 612.992 
	L 1133.150, 612.992 
	L 1133.858, 611.929 
	L 1133.858, 609.803 
	L 1131.024, 609.803 
" />
<path d="M 1133.858, 606.614 
	L 1131.024, 606.614 
" />
<path d="M 1131.732, 606.614 
	L 1131.024, 605.551 
	L 1131.732, 604.488 
	L 1133.858, 604.488 
" />
<path d="M 1131.732, 604.488 
	L 1131.024, 603.425 
	L 1131.732, 602.362 
	L 1133.858, 602.362 
" />
<path d="M 1132.441, 600.236 
	L 1132.441, 597.047 
	L 1131.732, 595.984 
	L 1131.024, 597.047 
	L 1131.024, 599.173 
	L 1131.732, 600.236 
	L 1133.150, 600.236 
	L 1133.858, 599.173 
	L 1133.858, 595.984 
" />
<path d="M 1133.858, 593.858 
	L 1131.024, 593.858 
" />
<path d="M 1131.732, 593.858 
	L 1131.024, 592.795 
	L 1131.024, 591.732 
	L 1131.732, 590.669 
	L 1133.858, 590.669 
" />
<path d="M 1129.606, 586.417 
	L 1133.858, 586.417 
	L 1133.858, 584.291 
" />
<path d="M 1131.024, 587.480 
	L 1131.024, 584.291 
" />
<path d="M 1131.024, 577.913 
	L 1131.024, 580.039 
	L 1131.732, 581.102 
	L 1132.441, 580.039 
	L 1132.441, 578.976 
	L 1133.150, 577.913 
	L 1133.858, 578.976 
	L 1133.858, 581.102 
" />
<path d="M 1133.858, 574.724 
	L 1129.606, 569.410 
" />
<path d="M 1133.150, 568.347 
	L 1133.858, 567.284 
	L 1133.858, 565.158 
	L 1133.150, 564.095 
	L 1130.315, 564.095 
	L 1129.606, 565.158 
	L 1129.606, 567.284 
	L 1130.315, 568.347 
	L 1133.150, 568.347 
" />
<path d="M 1133.150, 561.969 
	L 1133.858, 560.906 
	L 1133.858, 558.780 
	L 1133.150, 557.717 
	L 1130.315, 557.717 
	L 1129.606, 558.780 
	L 1129.606, 560.906 
	L 1130.315, 561.969 
	L 1133.150, 561.969 
" />
<path d="M 1129.606, 551.339 
	L 1129.606, 555.591 
	L 1131.024, 555.591 
	L 1131.024, 552.402 
	L 1131.732, 551.339 
	L 1133.150, 551.339 
	L 1133.858, 552.402 
	L 1133.858, 554.528 
	L 1133.150, 555.591 
" />
<path d="M 1134.567, 549.213 
	L 1134.567, 544.961 
" />
<path d="M 1135.276, 542.835 
	L 1131.024, 542.835 
	L 1131.024, 540.709 
	L 1131.732, 539.646 
	L 1133.150, 539.646 
	L 1133.858, 540.709 
	L 1133.858, 542.835 
" />
<path d="M 1129.606, 535.394 
	L 1129.606, 534.331 
	L 1133.858, 534.331 
" />
<path d="M 1133.858, 535.394 
	L 1133.858, 533.268 
" />
<path d="M 1133.858, 529.016 
	L 1133.150, 530.079 
	L 1131.732, 530.079 
	L 1131.024, 529.016 
	L 1131.024, 527.953 
	L 1131.732, 526.890 
	L 1133.150, 526.890 
	L 1133.858, 527.953 
	L 1133.858, 529.016 
" />
<path d="M 1129.606, 522.638 
	L 1133.858, 522.638 
	L 1133.858, 520.512 
" />
<path d="M 1131.024, 523.701 
	L 1131.024, 520.512 
" />
<path d="M 1129.606, 516.260 
	L 1133.858, 516.260 
	L 1133.858, 514.134 
" />
<path d="M 1131.024, 517.323 
	L 1131.024, 514.134 
" />
<path d="M 1132.441, 510.945 
	L 1132.441, 507.756 
	L 1131.732, 506.693 
	L 1131.024, 507.756 
	L 1131.024, 509.882 
	L 1131.732, 510.945 
	L 1133.150, 510.945 
	L 1133.858, 509.882 
	L 1133.858, 506.693 
" />
<path d="M 1131.024, 504.567 
	L 1133.858, 504.567 
" />
<path d="M 1132.441, 504.567 
	L 1131.024, 502.441 
	L 1131.024, 501.378 
" />
<path d="M 1133.858, 498.189 
	L 1129.606, 492.874 
" />
<path d="M 1133.858, 490.748 
	L 1133.150, 491.811 
	L 1131.732, 491.811 
	L 1131.024, 490.748 
	L 1131.024, 489.685 
	L 1131.732, 488.622 
	L 1133.150, 488.622 
	L 1133.858, 489.685 
	L 1133.858, 490.748 
" />
<path d="M 1131.024, 485.433 
	L 1133.150, 485.433 
	L 1133.858, 484.370 
	L 1133.858, 482.244 
	L 1131.024, 482.244 
" />
<path d="M 1129.606, 477.992 
	L 1133.858, 477.992 
	L 1133.858, 475.866 
" />
<path d="M 1131.024, 479.055 
	L 1131.024, 475.866 
" />
<path d="M 1135.276, 472.677 
	L 1131.024, 472.677 
	L 1131.024, 470.551 
	L 1131.732, 469.488 
	L 1133.150, 469.488 
	L 1133.858, 470.551 
	L 1133.858, 472.677 
" />
<path d="M 1131.024, 466.299 
	L 1133.150, 466.299 
	L 1133.858, 465.236 
	L 1133.858, 463.110 
	L 1131.024, 463.110 
" />
<path d="M 1129.606, 458.858 
	L 1133.858, 458.858 
	L 1133.858, 456.732 
" />
<path d="M 1131.024, 459.921 
	L 1131.024, 456.732 
" />
<path d="M 1133.858, 453.543 
	L 1129.606, 448.228 
" />
<path d="M 1129.606, 446.102 
	L 1133.858, 446.102 
	L 1133.858, 443.976 
" />
<path d="M 1131.024, 447.165 
	L 1131.024, 443.976 
" />
<path d="M 1129.606, 438.661 
	L 1130.315, 438.661 
" />
<path d="M 1131.024, 439.724 
	L 1131.024, 438.661 
	L 1133.858, 438.661 
" />
<path d="M 1133.858, 439.724 
	L 1133.858, 437.598 
" />
<path d="M 1129.606, 433.347 
	L 1129.606, 432.284 
	L 1133.858, 432.284 
" />
<path d="M 1133.858, 433.347 
	L 1133.858, 431.221 
" />
<path d="M 1129.606, 426.969 
	L 1133.858, 426.969 
	L 1133.858, 424.843 
" />
<path d="M 1131.024, 428.032 
	L 1131.024, 424.843 
" />
<path d="M 1132.441, 421.654 
	L 1132.441, 418.465 
	L 1131.732, 417.402 
	L 1131.024, 418.465 
	L 1131.024, 420.591 
	L 1131.732, 421.654 
	L 1133.150, 421.654 
	L 1133.858, 420.591 
	L 1133.858, 417.402 
" />
<path d="M 1129.606, 412.087 
	L 1133.858, 412.087 
	L 1133.858, 414.213 
	L 1133.150, 415.276 
	L 1131.732, 415.276 
	L 1131.024, 414.213 
	L 1131.024, 412.087 
" />
<path d="M 1133.858, 412.087 
	L 1133.858, 411.024 
" />
<path d="M 1131.024, 405.709 
	L 1131.024, 407.835 
	L 1131.732, 408.898 
	L 1132.441, 407.835 
	L 1132.441, 406.772 
	L 1133.150, 405.709 
	L 1133.858, 406.772 
	L 1133.858, 408.898 
" />
<path d="M 1133.858, 399.331 
	L 1133.858, 401.457 
	L 1133.150, 402.520 
	L 1131.732, 402.520 
	L 1131.024, 401.457 
	L 1131.024, 399.331 
	L 1135.276, 399.331 
" />
<path d="M 1131.024, 396.142 
	L 1133.150, 396.142 
	L 1133.858, 395.079 
	L 1133.858, 392.953 
	L 1131.024, 392.953 
" />
<path d="M 1133.858, 385.512 
	L 1133.858, 388.701 
	L 1133.150, 389.764 
	L 1131.732, 389.764 
	L 1131.024, 388.701 
	L 1131.024, 386.575 
	L 1133.858, 386.575 
" />
<path d="M 1131.024, 383.386 
	L 1133.858, 383.386 
" />
<path d="M 1132.441, 383.386 
	L 1131.024, 381.260 
	L 1131.024, 380.197 
" />
<path d="M 1132.441, 377.008 
	L 1132.441, 373.819 
	L 1131.732, 372.756 
	L 1131.024, 373.819 
	L 1131.024, 375.945 
	L 1131.732, 377.008 
	L 1133.150, 377.008 
	L 1133.858, 375.945 
	L 1133.858, 372.756 
" />
<path d="M 1131.024, 367.441 
	L 1131.024, 369.567 
	L 1131.732, 370.630 
	L 1132.441, 369.567 
	L 1132.441, 368.504 
	L 1133.150, 367.441 
	L 1133.858, 368.504 
	L 1133.858, 370.630 
" />
<path d="M 1134.567, 364.252 
	L 1134.567, 360.000 
" />
<path d="M 1133.150, 357.874 
	L 1133.858, 356.811 
	L 1133.858, 354.685 
	L 1133.150, 353.622 
	L 1130.315, 353.622 
	L 1129.606, 354.685 
	L 1129.606, 356.811 
	L 1130.315, 357.874 
	L 1133.150, 357.874 
" />
<path d="M 1129.606, 347.244 
	L 1129.606, 351.496 
	L 1131.024, 351.496 
	L 1131.024, 348.307 
	L 1131.732, 347.244 
	L 1133.150, 347.244 
	L 1133.858, 348.307 
	L 1133.858, 350.433 
	L 1133.150, 351.496 
" />
<path d="M 1134.567, 345.118 
	L 1134.567, 340.866 
" />
<path d="M 1133.150, 338.740 
	L 1133.858, 337.677 
	L 1133.858, 335.551 
	L 1133.150, 334.488 
	L 1130.315, 334.488 
	L 1129.606, 335.551 
	L 1129.606, 337.677 
	L 1130.315, 338.740 
	L 1133.150, 338.740 
" />
<path d="M 1130.315, 332.362 
	L 1129.606, 331.299 
	L 1129.606, 329.173 
	L 1130.315, 328.110 
	L 1131.024, 328.110 
	L 1133.150, 332.362 
	L 1133.858, 332.362 
	L 1133.858, 328.110 
" />
<path d="M 1134.567, 325.984 
	L 1134.567, 321.732 
" />
<path d="M 1130.315, 319.606 
	L 1129.606, 318.543 
	L 1129.606, 316.417 
	L 1130.315, 315.354 
	L 1131.024, 315.354 
	L 1133.150, 319.606 
	L 1133.858, 319.606 
	L 1133.858, 315.354 
" />
<path d="M 1133.150, 313.228 
	L 1133.858, 312.165 
	L 1133.858, 310.039 
	L 1133.150, 308.976 
	L 1130.315, 308.976 
	L 1129.606, 310.039 
	L 1129.606, 312.165 
	L 1130.315, 313.228 
	L 1133.150, 313.228 
" />
<path d="M 1133.858, 305.787 
	L 1133.858, 303.661 
" />
<path d="M 1133.858, 304.724 
	L 1129.606, 304.724 
	L 1130.315, 305.787 
" />
<path d="M 1133.858, 299.409 
	L 1133.858, 298.346 
	L 1132.441, 296.220 
	L 1130.315, 296.220 
	L 1129.606, 297.283 
	L 1129.606, 299.409 
	L 1130.315, 300.472 
	L 1131.024, 300.472 
	L 1131.732, 299.409 
	L 1131.732, 296.220 
" />
<path d="M 1134.567, 294.094 
	L 1134.567, 289.843 
" />
<path d="M 1133.858, 286.654 
	L 1133.858, 284.528 
" />
<path d="M 1133.858, 285.591 
	L 1129.606, 285.591 
	L 1130.315, 286.654 
" />
<path d="M 1129.606, 277.087 
	L 1129.606, 281.339 
	L 1131.024, 281.339 
	L 1131.024, 278.150 
	L 1131.732, 277.087 
	L 1133.150, 277.087 
	L 1133.858, 278.150 
	L 1133.858, 280.276 
	L 1133.150, 281.339 
" />
<path d="M 1129.606, 271.772 
	L 1131.732, 274.961 
	L 1132.441, 274.961 
	L 1132.441, 270.709 
" />
<path d="M 1131.732, 271.772 
	L 1133.858, 271.772 
" />
<path d="M 1133.150, 268.583 
	L 1133.858, 267.520 
	L 1133.858, 265.394 
	L 1133.150, 264.331 
	L 1130.315, 264.331 
	L 1129.606, 265.394 
	L 1129.606, 267.520 
	L 1130.315, 268.583 
	L 1133.150, 268.583 
" />
<path d="M 1130.315, 236.693 
	L 1129.606, 235.630 
	L 1129.606, 233.504 
	L 1130.315, 232.441 
	L 1131.024, 232.441 
	L 1133.150, 236.693 
	L 1133.858, 236.693 
	L 1133.858, 232.441 
" />
<path d="M 1133.150, 230.315 
	L 1133.858, 229.252 
	L 1133.858, 227.126 
	L 1133.150, 226.063 
	L 1130.315, 226.063 
	L 1129.606, 227.126 
	L 1129.606, 229.252 
	L 1130.315, 230.315 
	L 1133.150, 230.315 
" />
<path d="M 1133.858, 222.874 
	L 1133.858, 220.748 
" />
<path d="M 1133.858, 221.811 
	L 1129.606, 221.811 
	L 1130.315, 222.874 
" />
<path d="M 1133.858, 216.496 
	L 1133.858, 215.433 
	L 1132.441, 213.307 
	L 1130.315, 213.307 
	L 1129.606, 214.370 
	L 1129.606, 216.496 
	L 1130.315, 217.559 
	L 1131.024, 217.559 
	L 1131.732, 216.496 
	L 1131.732, 213.307 
" />
<path d="M 1131.732, 211.181 
	L 1131.732, 206.929 
" />
<path d="M 1133.150, 204.803 
	L 1133.858, 203.740 
	L 1133.858, 201.614 
	L 1133.150, 200.551 
	L 1130.315, 200.551 
	L 1129.606, 201.614 
	L 1129.606, 203.740 
	L 1130.315, 204.803 
	L 1133.150, 204.803 
" />
<path d="M 1129.606, 194.173 
	L 1129.606, 198.425 
	L 1131.024, 198.425 
	L 1131.024, 195.236 
	L 1131.732, 194.173 
	L 1133.150, 194.173 
	L 1133.858, 195.236 
	L 1133.858, 197.362 
	L 1133.150, 198.425 
" />
<path d="M 1131.732, 192.047 
	L 1131.732, 187.795 
" />
<path d="M 1133.150, 185.669 
	L 1133.858, 184.606 
	L 1133.858, 182.480 
	L 1133.150, 181.417 
	L 1130.315, 181.417 
	L 1129.606, 182.480 
	L 1129.606, 184.606 
	L 1130.315, 185.669 
	L 1133.150, 185.669 
" />
<path d="M 1130.315, 179.291 
	L 1129.606, 178.228 
	L 1129.606, 176.102 
	L 1130.315, 175.039 
	L 1131.024, 175.039 
	L 1133.150, 179.291 
	L 1133.858, 179.291 
	L 1133.858, 175.039 
" />
<path d="M 1133.858, 165.472 
	L 1133.858, 163.346 
" />
<path d="M 1133.858, 164.409 
	L 1129.606, 164.409 
	L 1130.315, 165.472 
" />
<path d="M 1129.606, 155.906 
	L 1129.606, 160.157 
	L 1131.024, 160.157 
	L 1131.024, 156.968 
	L 1131.732, 155.906 
	L 1133.150, 155.906 
	L 1133.858, 156.968 
	L 1133.858, 159.094 
	L 1133.150, 160.157 
" />
<path d="M 1131.732, 152.717 
	L 1131.024, 152.717 
	L 1131.024, 151.654 
	L 1131.732, 151.654 
	L 1131.732, 152.717 
" />
<path d="M 1133.150, 152.717 
	L 1133.150, 151.654 
	L 1133.858, 151.654 
	L 1133.858, 152.717 
	L 1133.150, 152.717 
" />
<path d="M 1129.606, 144.213 
	L 1131.732, 147.402 
	L 1132.441, 147.402 
	L 1132.441, 143.150 
" />
<path d="M 1131.732, 144.213 
	L 1133.858, 144.213 
" />
<path d="M 1133.150, 141.024 
	L 1133.858, 139.961 
	L 1133.858, 137.835 
	L 1133.150, 136.772 
	L 1130.315, 136.772 
	L 1129.606, 137.835 
	L 1129.606, 139.961 
	L 1130.315, 141.024 
	L 1133.150, 141.024 
" />
</g>
</svg>
