<?xml version="1.0" encoding="UTF-8" standalone="no" ?>
<svg width="100%" height="100%" viewBox="0 0 1135.276 708.662" xmlns="http://www.w3.org/2000/svg"><g>
</g><g style="stroke:rgb(0,0,0); fill:none; stroke-width:1.000mm" >
</g><g style="stroke:rgb(0,0,0); fill:none; stroke-width:0.100mm" >
<path d="M 0.001, 708.661 
	L 0.000, 708.662 
	L 0.000, 678.827 
" />
<path d="M 4.607, 708.661 
	L 4.606, 708.662 
	L 4.606, 678.827 
" />
<path d="M 9.213, 708.661 
	L 9.213, 708.662 
	L 9.213, 678.827 
" />
<path d="M 13.820, 708.661 
	L 13.819, 708.662 
	L 13.819, 678.827 
" />
<path d="M 18.426, 708.661 
	L 18.425, 708.662 
	L 18.425, 678.827 
" />
<path d="M 23.032, 708.661 
	L 23.031, 708.662 
	L 23.031, 678.827 
" />
<path d="M 27.639, 708.661 
	L 27.638, 708.662 
	L 27.638, 678.827 
" />
<path d="M 32.245, 708.661 
	L 32.244, 708.662 
	L 32.244, 678.827 
" />
<path d="M 36.851, 708.661 
	L 36.850, 708.662 
	L 36.850, 678.827 
" />
<path d="M 41.457, 708.661 
	L 41.457, 708.662 
	L 41.457, 678.827 
" />
<path d="M 46.064, 708.661 
	L 46.063, 708.662 
	L 46.063, 678.827 
" />
<path d="M 50.670, 708.661 
	L 50.669, 708.662 
	L 50.669, 678.827 
" />
<path d="M 55.276, 708.661 
	L 55.276, 708.662 
	L 55.276, 678.827 
" />
<path d="M 59.883, 708.661 
	L 59.882, 708.662 
	L 59.882, 678.827 
" />
<path d="M 64.489, 708.661 
	L 64.488, 708.662 
	L 64.488, 678.827 
" />
<path d="M 69.095, 708.661 
	L 69.094, 708.662 
	L 69.094, 678.827 
" />
<path d="M 73.702, 708.661 
	L 73.701, 708.662 
	L 73.701, 678.827 
" />
<path d="M 78.308, 708.661 
	L 78.307, 708.662 
	L 78.307, 678.827 
" />
<path d="M 82.914, 708.661 
	L 82.913, 708.662 
	L 82.913, 678.827 
" />
<path d="M 87.520, 708.661 
	L 87.520, 708.662 
	L 87.520, 678.827 
" />
<path d="M 92.127, 708.661 
	L 92.126, 708.662 
	L 92.126, 678.827 
" />
<path d="M 96.733, 708.661 
	L 96.732, 708.662 
	L 96.732, 678.827 
" />
<path d="M 101.339, 708.661 
	L 101.339, 708.662 
	L 101.339, 678.827 
" />
<path d="M 0.001, 678.826 
	L 0.000, 678.827 
	L 0.000, 598.536 
" />
<path d="M 4.607, 678.826 
	L 4.606, 678.827 
	L 4.606, 598.536 
" />
<path d="M 9.213, 678.826 
	L 9.213, 678.827 
	L 9.213, 598.536 
" />
<path d="M 13.820, 678.826 
	L 13.819, 678.827 
	L 13.819, 598.536 
" />
<path d="M 18.426, 678.826 
	L 18.425, 678.827 
	L 18.425, 598.536 
" />
<path d="M 23.032, 678.826 
	L 23.031, 678.827 
	L 23.031, 598.536 
" />
<path d="M 27.639, 678.826 
	L 27.638, 678.827 
	L 27.638, 598.536 
" />
<path d="M 32.245, 678.826 
	L 32.244, 678.827 
	L 32.244, 598.536 
" />
<path d="M 36.851, 678.826 
	L 36.850, 678.827 
	L 36.850, 598.536 
" />
<path d="M 41.457, 678.826 
	L 41.457, 678.827 
	L 41.457, 598.536 
" />
<path d="M 46.064, 678.826 
	L 46.063, 678.827 
	L 46.063, 598.536 
" />
<path d="M 50.670, 678.826 
	L 50.669, 678.827 
	L 50.669, 598.536 
" />
<path d="M 55.276, 678.826 
	L 55.276, 678.827 
	L 55.276, 598.536 
" />
<path d="M 59.883, 678.826 
	L 59.882, 678.827 
	L 59.882, 598.536 
" />
<path d="M 64.489, 678.826 
	L 64.488, 678.827 
	L 64.488, 598.536 
" />
<path d="M 69.095, 678.826 
	L 69.094, 678.827 
	L 69.094, 598.536 
" />
<path d="M 73.702, 678.826 
	L 73.701, 678.827 
	L 73.701, 598.536 
" />
<path d="M 78.308, 678.826 
	L 78.307, 678.827 
	L 78.307, 598.536 
" />
<path d="M 82.914, 678.826 
	L 82.913, 678.827 
	L 82.913, 598.536 
" />
<path d="M 87.520, 678.826 
	L 87.520, 678.827 
	L 87.520, 598.536 
" />
<path d="M 92.127, 678.826 
	L 92.126, 678.827 
	L 92.126, 598.536 
" />
<path d="M 96.733, 678.826 
	L 96.732, 678.827 
	L 96.732, 598.536 
" />
<path d="M 101.339, 678.826 
	L 101.339, 678.827 
	L 101.339, 598.536 
" />
<path d="M 107.930, 678.826 
	L 107.929, 678.827 
	L 107.929, 598.536 
" />
<path d="M 113.245, 678.826 
	L 113.244, 678.827 
	L 113.244, 598.536 
" />
<path d="M 118.560, 678.826 
	L 118.559, 678.827 
	L 118.559, 598.536 
" />
<path d="M 123.875, 678.826 
	L 123.874, 678.827 
	L 123.874, 598.536 
" />
<path d="M 129.190, 678.826 
	L 129.189, 678.827 
	L 129.189, 598.536 
" />
<path d="M 134.505, 678.826 
	L 134.504, 678.827 
	L 134.504, 598.536 
" />
<path d="M 139.820, 678.826 
	L 139.819, 678.827 
	L 139.819, 598.536 
" />
<path d="M 145.135, 678.826 
	L 145.134, 678.827 
	L 145.134, 598.536 
" />
<path d="M 150.450, 678.826 
	L 150.449, 678.827 
	L 150.449, 598.536 
" />
<path d="M 155.765, 678.826 
	L 155.764, 678.827 
	L 155.764, 598.536 
" />
<path d="M 161.079, 678.826 
	L 161.079, 678.827 
	L 161.079, 598.536 
" />
<path d="M 166.394, 678.826 
	L 166.394, 678.827 
	L 166.394, 598.536 
" />
<path d="M 171.709, 678.826 
	L 171.709, 678.827 
	L 171.709, 598.536 
" />
<path d="M 177.024, 678.826 
	L 177.024, 678.827 
	L 177.024, 598.536 
" />
<path d="M 182.339, 678.826 
	L 182.339, 678.827 
	L 182.339, 598.536 
" />
<path d="M 187.654, 678.826 
	L 187.654, 678.827 
	L 187.654, 598.536 
" />
<path d="M 192.969, 678.826 
	L 192.969, 678.827 
	L 192.969, 598.536 
" />
<path d="M 198.284, 678.826 
	L 198.283, 678.827 
	L 198.283, 598.536 
" />
<path d="M 203.599, 678.826 
	L 203.598, 678.827 
	L 203.598, 598.536 
" />
<path d="M 208.914, 678.826 
	L 208.913, 678.827 
	L 208.913, 598.536 
" />
<path d="M 214.229, 678.826 
	L 214.228, 678.827 
	L 214.228, 598.536 
" />
<path d="M 219.544, 678.826 
	L 219.543, 678.827 
	L 219.543, 598.536 
" />
<path d="M 224.859, 678.826 
	L 224.858, 678.827 
	L 224.858, 598.536 
" />
<path d="M 230.174, 678.826 
	L 230.173, 678.827 
	L 230.173, 598.536 
" />
<path d="M 235.489, 678.826 
	L 235.488, 678.827 
	L 235.488, 598.536 
" />
<path d="M 240.804, 678.826 
	L 240.803, 678.827 
	L 240.803, 598.536 
" />
<path d="M 246.119, 678.826 
	L 246.118, 678.827 
	L 246.118, 598.536 
" />
<path d="M 251.434, 678.826 
	L 251.433, 678.827 
	L 251.433, 598.536 
" />
<path d="M 256.749, 678.826 
	L 256.748, 678.827 
	L 256.748, 598.536 
" />
<path d="M 262.064, 678.826 
	L 262.063, 678.827 
	L 262.063, 598.536 
" />
<path d="M 267.379, 678.826 
	L 267.378, 678.827 
	L 267.378, 598.536 
" />
<path d="M 272.694, 678.826 
	L 272.693, 678.827 
	L 272.693, 598.536 
" />
<path d="M 278.009, 678.826 
	L 278.008, 678.827 
	L 278.008, 598.536 
" />
<path d="M 283.324, 678.826 
	L 283.323, 678.827 
	L 283.323, 598.536 
" />
<path d="M 288.639, 678.826 
	L 288.638, 678.827 
	L 288.638, 598.536 
" />
<path d="M 293.953, 678.826 
	L 293.953, 678.827 
	L 293.953, 598.536 
" />
<path d="M 299.268, 678.826 
	L 299.268, 678.827 
	L 299.268, 598.536 
" />
<path d="M 304.583, 678.826 
	L 304.583, 678.827 
	L 304.583, 598.536 
" />
<path d="M 309.898, 678.826 
	L 309.898, 678.827 
	L 309.898, 598.536 
" />
<path d="M 315.213, 678.826 
	L 315.213, 678.827 
	L 315.213, 598.536 
" />
<path d="M 320.528, 678.826 
	L 320.528, 678.827 
	L 320.528, 598.536 
" />
<path d="M 325.843, 678.826 
	L 325.843, 678.827 
	L 325.843, 598.536 
" />
<path d="M 331.158, 678.826 
	L 331.158, 678.827 
	L 331.158, 598.536 
" />
<path d="M 336.473, 678.826 
	L 336.472, 678.827 
	L 336.472, 598.536 
" />
<path d="M 341.788, 678.826 
	L 341.787, 678.827 
	L 341.787, 598.536 
" />
<path d="M 347.103, 678.826 
	L 347.102, 678.827 
	L 347.102, 598.536 
" />
<path d="M 352.418, 678.826 
	L 352.417, 678.827 
	L 352.417, 598.536 
" />
<path d="M 357.733, 678.826 
	L 357.732, 678.827 
	L 357.732, 598.536 
" />
<path d="M 363.048, 678.826 
	L 363.047, 678.827 
	L 363.047, 598.536 
" />
<path d="M 368.363, 678.826 
	L 368.362, 678.827 
	L 368.362, 598.536 
" />
<path d="M 373.678, 678.826 
	L 373.677, 678.827 
	L 373.677, 598.536 
" />
<path d="M 378.993, 678.826 
	L 378.992, 678.827 
	L 378.992, 598.536 
" />
<path d="M 384.308, 678.826 
	L 384.307, 678.827 
	L 384.307, 598.536 
" />
<path d="M 389.623, 678.826 
	L 389.622, 678.827 
	L 389.622, 598.536 
" />
<path d="M 394.938, 678.826 
	L 394.937, 678.827 
	L 394.937, 598.536 
" />
<path d="M 400.253, 678.826 
	L 400.252, 678.827 
	L 400.252, 598.536 
" />
<path d="M 405.568, 678.826 
	L 405.567, 678.827 
	L 405.567, 598.536 
" />
<path d="M 410.883, 678.826 
	L 410.882, 678.827 
	L 410.882, 598.536 
" />
<path d="M 416.198, 678.826 
	L 416.197, 678.827 
	L 416.197, 598.536 
" />
<path d="M 421.513, 678.826 
	L 421.512, 678.827 
	L 421.512, 598.536 
" />
<path d="M 426.828, 678.826 
	L 426.827, 678.827 
	L 426.827, 598.536 
" />
<path d="M 432.142, 678.826 
	L 432.142, 678.827 
	L 432.142, 598.536 
" />
<path d="M 437.457, 678.826 
	L 437.457, 678.827 
	L 437.457, 598.536 
" />
<path d="M 442.772, 678.826 
	L 442.772, 678.827 
	L 442.772, 598.536 
" />
<path d="M 448.087, 678.826 
	L 448.087, 678.827 
	L 448.087, 598.536 
" />
<path d="M 453.402, 678.826 
	L 453.402, 678.827 
	L 453.402, 598.536 
" />
<path d="M 458.717, 678.826 
	L 458.717, 678.827 
	L 458.717, 598.536 
" />
<path d="M 464.032, 678.826 
	L 464.032, 678.827 
	L 464.032, 598.536 
" />
<path d="M 469.347, 678.826 
	L 469.347, 678.827 
	L 469.347, 598.536 
" />
<path d="M 474.662, 678.826 
	L 474.661, 678.827 
	L 474.661, 598.536 
" />
<path d="M 479.977, 678.826 
	L 479.976, 678.827 
	L 479.976, 598.536 
" />
<path d="M 485.292, 678.826 
	L 485.291, 678.827 
	L 485.291, 598.536 
" />
<path d="M 490.607, 678.826 
	L 490.606, 678.827 
	L 490.606, 598.536 
" />
<path d="M 495.922, 678.826 
	L 495.921, 678.827 
	L 495.921, 598.536 
" />
<path d="M 501.237, 678.826 
	L 501.236, 678.827 
	L 501.236, 598.536 
" />
<path d="M 506.552, 678.826 
	L 506.551, 678.827 
	L 506.551, 598.536 
" />
<path d="M 511.867, 678.826 
	L 511.866, 678.827 
	L 511.866, 598.536 
" />
<path d="M 517.182, 678.826 
	L 517.181, 678.827 
	L 517.181, 598.536 
" />
<path d="M 522.497, 678.826 
	L 522.496, 678.827 
	L 522.496, 598.536 
" />
<path d="M 527.812, 678.826 
	L 527.811, 678.827 
	L 527.811, 598.536 
" />
<path d="M 533.127, 678.826 
	L 533.126, 678.827 
	L 533.126, 598.536 
" />
<path d="M 538.442, 678.826 
	L 538.441, 678.827 
	L 538.441, 598.536 
" />
<path d="M 543.757, 678.826 
	L 543.756, 678.827 
	L 543.756, 598.536 
" />
<path d="M 549.072, 678.826 
	L 549.071, 678.827 
	L 549.071, 598.536 
" />
<path d="M 107.930, 708.661 
	L 107.929, 708.662 
	L 107.929, 678.827 
" />
<path d="M 112.182, 708.661 
	L 112.181, 708.662 
	L 112.181, 678.827 
" />
<path d="M 116.434, 708.661 
	L 116.433, 708.662 
	L 116.433, 678.827 
" />
<path d="M 120.686, 708.661 
	L 120.685, 708.662 
	L 120.685, 678.827 
" />
<path d="M 124.938, 708.661 
	L 124.937, 708.662 
	L 124.937, 678.827 
" />
<path d="M 129.190, 708.661 
	L 129.189, 708.662 
	L 129.189, 678.827 
" />
<path d="M 133.442, 708.661 
	L 133.441, 708.662 
	L 133.441, 678.827 
" />
<path d="M 137.694, 708.661 
	L 137.693, 708.662 
	L 137.693, 678.827 
" />
<path d="M 141.946, 708.661 
	L 141.945, 708.662 
	L 141.945, 678.827 
" />
<path d="M 146.198, 708.661 
	L 146.197, 708.662 
	L 146.197, 678.827 
" />
<path d="M 150.450, 708.661 
	L 150.449, 708.662 
	L 150.449, 678.827 
" />
<path d="M 154.702, 708.661 
	L 154.701, 708.662 
	L 154.701, 678.827 
" />
<path d="M 158.953, 708.661 
	L 158.953, 708.662 
	L 158.953, 678.827 
" />
<path d="M 163.205, 708.661 
	L 163.205, 708.662 
	L 163.205, 678.827 
" />
<path d="M 167.457, 708.661 
	L 167.457, 708.662 
	L 167.457, 678.827 
" />
<path d="M 171.709, 708.661 
	L 171.709, 708.662 
	L 171.709, 678.827 
" />
<path d="M 175.961, 708.661 
	L 175.961, 708.662 
	L 175.961, 678.827 
" />
<path d="M 180.213, 708.661 
	L 180.213, 708.662 
	L 180.213, 678.827 
" />
<path d="M 184.465, 708.661 
	L 184.465, 708.662 
	L 184.465, 678.827 
" />
<path d="M 188.717, 708.661 
	L 188.717, 708.662 
	L 188.717, 678.827 
" />
<path d="M 192.969, 708.661 
	L 192.969, 708.662 
	L 192.969, 678.827 
" />
<path d="M 197.221, 708.661 
	L 197.221, 708.662 
	L 197.221, 678.827 
" />
<path d="M 201.473, 708.661 
	L 201.472, 708.662 
	L 201.472, 678.827 
" />
<path d="M 205.725, 708.661 
	L 205.724, 708.662 
	L 205.724, 678.827 
" />
<path d="M 209.977, 708.661 
	L 209.976, 708.662 
	L 209.976, 678.827 
" />
<path d="M 214.229, 708.661 
	L 214.228, 708.662 
	L 214.228, 678.827 
" />
<path d="M 218.481, 708.661 
	L 218.480, 708.662 
	L 218.480, 678.827 
" />
<path d="M 222.733, 708.661 
	L 222.732, 708.662 
	L 222.732, 678.827 
" />
<path d="M 226.985, 708.661 
	L 226.984, 708.662 
	L 226.984, 678.827 
" />
<path d="M 231.237, 708.661 
	L 231.236, 708.662 
	L 231.236, 678.827 
" />
<path d="M 235.489, 708.661 
	L 235.488, 708.662 
	L 235.488, 678.827 
" />
<path d="M 239.741, 708.661 
	L 239.740, 708.662 
	L 239.740, 678.827 
" />
<path d="M 243.993, 708.661 
	L 243.992, 708.662 
	L 243.992, 678.827 
" />
<path d="M 248.245, 708.661 
	L 248.244, 708.662 
	L 248.244, 678.827 
" />
<path d="M 252.497, 708.661 
	L 252.496, 708.662 
	L 252.496, 678.827 
" />
<path d="M 256.749, 708.661 
	L 256.748, 708.662 
	L 256.748, 678.827 
" />
<path d="M 261.001, 708.661 
	L 261.000, 708.662 
	L 261.000, 678.827 
" />
<path d="M 265.253, 708.661 
	L 265.252, 708.662 
	L 265.252, 678.827 
" />
<path d="M 269.505, 708.661 
	L 269.504, 708.662 
	L 269.504, 678.827 
" />
<path d="M 273.757, 708.661 
	L 273.756, 708.662 
	L 273.756, 678.827 
" />
<path d="M 278.009, 708.661 
	L 278.008, 708.662 
	L 278.008, 678.827 
" />
<path d="M 282.261, 708.661 
	L 282.260, 708.662 
	L 282.260, 678.827 
" />
<path d="M 286.513, 708.661 
	L 286.512, 708.662 
	L 286.512, 678.827 
" />
<path d="M 290.765, 708.661 
	L 290.764, 708.662 
	L 290.764, 678.827 
" />
<path d="M 295.016, 708.661 
	L 295.016, 708.662 
	L 295.016, 678.827 
" />
<path d="M 299.268, 708.661 
	L 299.268, 708.662 
	L 299.268, 678.827 
" />
<path d="M 303.520, 708.661 
	L 303.520, 708.662 
	L 303.520, 678.827 
" />
<path d="M 307.772, 708.661 
	L 307.772, 708.662 
	L 307.772, 678.827 
" />
<path d="M 312.024, 708.661 
	L 312.024, 708.662 
	L 312.024, 678.827 
" />
<path d="M 316.276, 708.661 
	L 316.276, 708.662 
	L 316.276, 678.827 
" />
<path d="M 320.528, 708.661 
	L 320.528, 708.662 
	L 320.528, 678.827 
" />
<path d="M 324.780, 708.661 
	L 324.780, 708.662 
	L 324.780, 678.827 
" />
<path d="M 329.032, 708.661 
	L 329.032, 708.662 
	L 329.032, 678.827 
" />
<path d="M 333.284, 708.661 
	L 333.284, 708.662 
	L 333.284, 678.827 
" />
<path d="M 337.536, 708.661 
	L 337.535, 708.662 
	L 337.535, 678.827 
" />
<path d="M 341.788, 708.661 
	L 341.787, 708.662 
	L 341.787, 678.827 
" />
<path d="M 346.040, 708.661 
	L 346.039, 708.662 
	L 346.039, 678.827 
" />
<path d="M 350.292, 708.661 
	L 350.291, 708.662 
	L 350.291, 678.827 
" />
<path d="M 354.544, 708.661 
	L 354.543, 708.662 
	L 354.543, 678.827 
" />
<path d="M 358.796, 708.661 
	L 358.795, 708.662 
	L 358.795, 678.827 
" />
<path d="M 363.048, 708.661 
	L 363.047, 708.662 
	L 363.047, 678.827 
" />
<path d="M 367.300, 708.661 
	L 367.299, 708.662 
	L 367.299, 678.827 
" />
<path d="M 371.552, 708.661 
	L 371.551, 708.662 
	L 371.551, 678.827 
" />
<path d="M 375.804, 708.661 
	L 375.803, 708.662 
	L 375.803, 678.827 
" />
<path d="M 380.056, 708.661 
	L 380.055, 708.662 
	L 380.055, 678.827 
" />
<path d="M 384.308, 708.661 
	L 384.307, 708.662 
	L 384.307, 678.827 
" />
<path d="M 388.560, 708.661 
	L 388.559, 708.662 
	L 388.559, 678.827 
" />
<path d="M 392.812, 708.661 
	L 392.811, 708.662 
	L 392.811, 678.827 
" />
<path d="M 397.064, 708.661 
	L 397.063, 708.662 
	L 397.063, 678.827 
" />
<path d="M 401.316, 708.661 
	L 401.315, 708.662 
	L 401.315, 678.827 
" />
<path d="M 405.568, 708.661 
	L 405.567, 708.662 
	L 405.567, 678.827 
" />
<path d="M 409.820, 708.661 
	L 409.819, 708.662 
	L 409.819, 678.827 
" />
<path d="M 414.072, 708.661 
	L 414.071, 708.662 
	L 414.071, 678.827 
" />
<path d="M 418.324, 708.661 
	L 418.323, 708.662 
	L 418.323, 678.827 
" />
<path d="M 422.576, 708.661 
	L 422.575, 708.662 
	L 422.575, 678.827 
" />
<path d="M 426.828, 708.661 
	L 426.827, 708.662 
	L 426.827, 678.827 
" />
<path d="M 431.079, 708.661 
	L 431.079, 708.662 
	L 431.079, 678.827 
" />
<path d="M 435.331, 708.661 
	L 435.331, 708.662 
	L 435.331, 678.827 
" />
<path d="M 439.583, 708.661 
	L 439.583, 708.662 
	L 439.583, 678.827 
" />
<path d="M 443.835, 708.661 
	L 443.835, 708.662 
	L 443.835, 678.827 
" />
<path d="M 448.087, 708.661 
	L 448.087, 708.662 
	L 448.087, 678.827 
" />
<path d="M 452.339, 708.661 
	L 452.339, 708.662 
	L 452.339, 678.827 
" />
<path d="M 456.591, 708.661 
	L 456.591, 708.662 
	L 456.591, 678.827 
" />
<path d="M 460.843, 708.661 
	L 460.843, 708.662 
	L 460.843, 678.827 
" />
<path d="M 465.095, 708.661 
	L 465.095, 708.662 
	L 465.095, 678.827 
" />
<path d="M 469.347, 708.661 
	L 469.347, 708.662 
	L 469.347, 678.827 
" />
<path d="M 473.599, 708.661 
	L 473.598, 708.662 
	L 473.598, 678.827 
" />
<path d="M 477.851, 708.661 
	L 477.850, 708.662 
	L 477.850, 678.827 
" />
<path d="M 482.103, 708.661 
	L 482.102, 708.662 
	L 482.102, 678.827 
" />
<path d="M 486.355, 708.661 
	L 486.354, 708.662 
	L 486.354, 678.827 
" />
<path d="M 490.607, 708.661 
	L 490.606, 708.662 
	L 490.606, 678.827 
" />
<path d="M 494.859, 708.661 
	L 494.858, 708.662 
	L 494.858, 678.827 
" />
<path d="M 499.111, 708.661 
	L 499.110, 708.662 
	L 499.110, 678.827 
" />
<path d="M 503.363, 708.661 
	L 503.362, 708.662 
	L 503.362, 678.827 
" />
<path d="M 507.615, 708.661 
	L 507.614, 708.662 
	L 507.614, 678.827 
" />
<path d="M 511.867, 708.661 
	L 511.866, 708.662 
	L 511.866, 678.827 
" />
<path d="M 516.119, 708.661 
	L 516.118, 708.662 
	L 516.118, 678.827 
" />
<path d="M 520.371, 708.661 
	L 520.370, 708.662 
	L 520.370, 678.827 
" />
<path d="M 524.623, 708.661 
	L 524.622, 708.662 
	L 524.622, 678.827 
" />
<path d="M 528.875, 708.661 
	L 528.874, 708.662 
	L 528.874, 678.827 
" />
<path d="M 533.127, 708.661 
	L 533.126, 708.662 
	L 533.126, 678.827 
" />
<path d="M 537.379, 708.661 
	L 537.378, 708.662 
	L 537.378, 678.827 
" />
<path d="M 541.631, 708.661 
	L 541.630, 708.662 
	L 541.630, 678.827 
" />
<path d="M 545.883, 708.661 
	L 545.882, 708.662 
	L 545.882, 678.827 
" />
<path d="M 550.135, 708.661 
	L 550.134, 708.662 
	L 550.134, 678.827 
" />
<path d="M 0.001, 598.535 
	L 0.000, 598.536 
	L 0.000, 507.756 
" />
<path d="M 5.670, 598.535 
	L 5.669, 598.536 
	L 5.669, 507.756 
" />
<path d="M 11.339, 598.535 
	L 11.339, 598.536 
	L 11.339, 507.756 
" />
<path d="M 17.009, 598.535 
	L 17.008, 598.536 
	L 17.008, 507.756 
" />
<path d="M 22.678, 598.535 
	L 22.677, 598.536 
	L 22.677, 507.756 
" />
<path d="M 28.347, 598.535 
	L 28.346, 598.536 
	L 28.346, 507.756 
" />
<path d="M 34.016, 598.535 
	L 34.016, 598.536 
	L 34.016, 507.756 
" />
<path d="M 39.686, 598.535 
	L 39.685, 598.536 
	L 39.685, 507.756 
" />
<path d="M 45.355, 598.535 
	L 45.354, 598.536 
	L 45.354, 507.756 
" />
<path d="M 51.024, 598.535 
	L 51.024, 598.536 
	L 51.024, 507.756 
" />
<path d="M 56.694, 598.535 
	L 56.693, 598.536 
	L 56.693, 507.756 
" />
<path d="M 62.363, 598.535 
	L 62.362, 598.536 
	L 62.362, 507.756 
" />
<path d="M 68.032, 598.535 
	L 68.032, 598.536 
	L 68.032, 507.756 
" />
<path d="M 73.702, 598.535 
	L 73.701, 598.536 
	L 73.701, 507.756 
" />
<path d="M 79.371, 598.535 
	L 79.370, 598.536 
	L 79.370, 507.756 
" />
<path d="M 85.040, 598.535 
	L 85.039, 598.536 
	L 85.039, 507.756 
" />
<path d="M 90.709, 598.535 
	L 90.709, 598.536 
	L 90.709, 507.756 
" />
<path d="M 96.379, 598.535 
	L 96.378, 598.536 
	L 96.378, 507.756 
" />
<path d="M 102.048, 598.535 
	L 102.047, 598.536 
	L 102.047, 507.756 
" />
<path d="M 107.717, 598.535 
	L 107.717, 598.536 
	L 107.717, 507.756 
" />
<path d="M 113.387, 598.535 
	L 113.386, 598.536 
	L 113.386, 507.756 
" />
<path d="M 119.056, 598.535 
	L 119.055, 598.536 
	L 119.055, 507.756 
" />
<path d="M 124.725, 598.535 
	L 124.724, 598.536 
	L 124.724, 507.756 
" />
<path d="M 130.394, 598.535 
	L 130.394, 598.536 
	L 130.394, 507.756 
" />
<path d="M 136.064, 598.535 
	L 136.063, 598.536 
	L 136.063, 507.756 
" />
<path d="M 141.733, 598.535 
	L 141.732, 598.536 
	L 141.732, 507.756 
" />
<path d="M 147.402, 598.535 
	L 147.402, 598.536 
	L 147.402, 507.756 
" />
<path d="M 153.072, 598.535 
	L 153.071, 598.536 
	L 153.071, 507.756 
" />
<path d="M 158.741, 598.535 
	L 158.740, 598.536 
	L 158.740, 507.756 
" />
<path d="M 164.410, 598.535 
	L 164.409, 598.536 
	L 164.409, 507.756 
" />
<path d="M 170.079, 598.535 
	L 170.079, 598.536 
	L 170.079, 507.756 
" />
<path d="M 175.749, 598.535 
	L 175.748, 598.536 
	L 175.748, 507.756 
" />
<path d="M 181.418, 598.535 
	L 181.417, 598.536 
	L 181.417, 507.756 
" />
<path d="M 187.087, 598.535 
	L 187.087, 598.536 
	L 187.087, 507.756 
" />
<path d="M 192.757, 598.535 
	L 192.756, 598.536 
	L 192.756, 507.756 
" />
<path d="M 198.426, 598.535 
	L 198.425, 598.536 
	L 198.425, 507.756 
" />
<path d="M 204.095, 598.535 
	L 204.095, 598.536 
	L 204.095, 507.756 
" />
<path d="M 209.765, 598.535 
	L 209.764, 598.536 
	L 209.764, 507.756 
" />
<path d="M 215.434, 598.535 
	L 215.433, 598.536 
	L 215.433, 507.756 
" />
<path d="M 221.103, 598.535 
	L 221.102, 598.536 
	L 221.102, 507.756 
" />
<path d="M 226.772, 598.535 
	L 226.772, 598.536 
	L 226.772, 507.756 
" />
<path d="M 232.442, 598.535 
	L 232.441, 598.536 
	L 232.441, 507.756 
" />
<path d="M 238.111, 598.535 
	L 238.110, 598.536 
	L 238.110, 507.756 
" />
<path d="M 243.780, 598.535 
	L 243.780, 598.536 
	L 243.780, 507.756 
" />
<path d="M 249.450, 598.535 
	L 249.449, 598.536 
	L 249.449, 507.756 
" />
<path d="M 255.119, 598.535 
	L 255.118, 598.536 
	L 255.118, 507.756 
" />
<path d="M 260.788, 598.535 
	L 260.787, 598.536 
	L 260.787, 507.756 
" />
<path d="M 266.457, 598.535 
	L 266.457, 598.536 
	L 266.457, 507.756 
" />
<path d="M 272.127, 598.535 
	L 272.126, 598.536 
	L 272.126, 507.756 
" />
<path d="M 0.001, 507.755 
	L 0.000, 507.756 
	L 0.000, 0.000 
" />
<path d="M 5.316, 507.755 
	L 5.315, 507.756 
	L 5.315, 0.000 
" />
<path d="M 10.631, 507.755 
	L 10.630, 507.756 
	L 10.630, 0.000 
" />
<path d="M 15.946, 507.755 
	L 15.945, 507.756 
	L 15.945, 0.000 
" />
<path d="M 21.261, 507.755 
	L 21.260, 507.756 
	L 21.260, 0.000 
" />
<path d="M 26.576, 507.755 
	L 26.575, 507.756 
	L 26.575, 0.000 
" />
<path d="M 31.890, 507.755 
	L 31.890, 507.756 
	L 31.890, 0.000 
" />
<path d="M 37.205, 507.755 
	L 37.205, 507.756 
	L 37.205, 0.000 
" />
<path d="M 42.520, 507.755 
	L 42.520, 507.756 
	L 42.520, 0.000 
" />
<path d="M 47.835, 507.755 
	L 47.835, 507.756 
	L 47.835, 0.000 
" />
<path d="M 53.150, 507.755 
	L 53.150, 507.756 
	L 53.150, 0.000 
" />
<path d="M 58.465, 507.755 
	L 58.465, 507.756 
	L 58.465, 0.000 
" />
<path d="M 63.780, 507.755 
	L 63.780, 507.756 
	L 63.780, 0.000 
" />
<path d="M 69.095, 507.755 
	L 69.094, 507.756 
	L 69.094, 0.000 
" />
<path d="M 74.410, 507.755 
	L 74.409, 507.756 
	L 74.409, 0.000 
" />
<path d="M 79.725, 507.755 
	L 79.724, 507.756 
	L 79.724, 0.000 
" />
<path d="M 85.040, 507.755 
	L 85.039, 507.756 
	L 85.039, 0.000 
" />
<path d="M 90.355, 507.755 
	L 90.354, 507.756 
	L 90.354, 0.000 
" />
<path d="M 95.670, 507.755 
	L 95.669, 507.756 
	L 95.669, 0.000 
" />
<path d="M 100.985, 507.755 
	L 100.984, 507.756 
	L 100.984, 0.000 
" />
<path d="M 106.300, 507.755 
	L 106.299, 507.756 
	L 106.299, 0.000 
" />
<path d="M 111.615, 507.755 
	L 111.614, 507.756 
	L 111.614, 0.000 
" />
<path d="M 116.930, 507.755 
	L 116.929, 507.756 
	L 116.929, 0.000 
" />
<path d="M 122.245, 507.755 
	L 122.244, 507.756 
	L 122.244, 0.000 
" />
<path d="M 127.560, 507.755 
	L 127.559, 507.756 
	L 127.559, 0.000 
" />
<path d="M 132.875, 507.755 
	L 132.874, 507.756 
	L 132.874, 0.000 
" />
<path d="M 138.190, 507.755 
	L 138.189, 507.756 
	L 138.189, 0.000 
" />
<path d="M 143.505, 507.755 
	L 143.504, 507.756 
	L 143.504, 0.000 
" />
<path d="M 148.820, 507.755 
	L 148.819, 507.756 
	L 148.819, 0.000 
" />
<path d="M 154.135, 507.755 
	L 154.134, 507.756 
	L 154.134, 0.000 
" />
<path d="M 159.450, 507.755 
	L 159.449, 507.756 
	L 159.449, 0.000 
" />
<path d="M 164.765, 507.755 
	L 164.764, 507.756 
	L 164.764, 0.000 
" />
<path d="M 170.079, 507.755 
	L 170.079, 507.756 
	L 170.079, 0.000 
" />
<path d="M 175.394, 507.755 
	L 175.394, 507.756 
	L 175.394, 0.000 
" />
<path d="M 180.709, 507.755 
	L 180.709, 507.756 
	L 180.709, 0.000 
" />
<path d="M 186.024, 507.755 
	L 186.024, 507.756 
	L 186.024, 0.000 
" />
<path d="M 191.339, 507.755 
	L 191.339, 507.756 
	L 191.339, 0.000 
" />
<path d="M 196.654, 507.755 
	L 196.654, 507.756 
	L 196.654, 0.000 
" />
<path d="M 201.969, 507.755 
	L 201.969, 507.756 
	L 201.969, 0.000 
" />
<path d="M 207.284, 507.755 
	L 207.283, 507.756 
	L 207.283, 0.000 
" />
<path d="M 212.599, 507.755 
	L 212.598, 507.756 
	L 212.598, 0.000 
" />
<path d="M 217.914, 507.755 
	L 217.913, 507.756 
	L 217.913, 0.000 
" />
<path d="M 223.229, 507.755 
	L 223.228, 507.756 
	L 223.228, 0.000 
" />
<path d="M 228.544, 507.755 
	L 228.543, 507.756 
	L 228.543, 0.000 
" />
<path d="M 233.859, 507.755 
	L 233.858, 507.756 
	L 233.858, 0.000 
" />
<path d="M 239.174, 507.755 
	L 239.173, 507.756 
	L 239.173, 0.000 
" />
<path d="M 244.489, 507.755 
	L 244.488, 507.756 
	L 244.488, 0.000 
" />
<path d="M 249.804, 507.755 
	L 249.803, 507.756 
	L 249.803, 0.000 
" />
<path d="M 255.119, 507.755 
	L 255.118, 507.756 
	L 255.118, 0.000 
" />
<path d="M 260.434, 507.755 
	L 260.433, 507.756 
	L 260.433, 0.000 
" />
<path d="M 265.749, 507.755 
	L 265.748, 507.756 
	L 265.748, 0.000 
" />
<path d="M 271.064, 507.755 
	L 271.063, 507.756 
	L 271.063, 0.000 
" />
<path d="M 278.717, 507.755 
	L 278.717, 507.756 
	L 278.717, 0.000 
" />
<path d="M 283.253, 507.755 
	L 283.252, 507.756 
	L 283.252, 0.000 
" />
<path d="M 287.788, 507.755 
	L 287.787, 507.756 
	L 287.787, 0.000 
" />
<path d="M 292.324, 507.755 
	L 292.323, 507.756 
	L 292.323, 0.000 
" />
<path d="M 296.859, 507.755 
	L 296.858, 507.756 
	L 296.858, 0.000 
" />
<path d="M 301.394, 507.755 
	L 301.394, 507.756 
	L 301.394, 0.000 
" />
<path d="M 305.930, 507.755 
	L 305.929, 507.756 
	L 305.929, 0.000 
" />
<path d="M 310.465, 507.755 
	L 310.465, 507.756 
	L 310.465, 0.000 
" />
<path d="M 315.001, 507.755 
	L 315.000, 507.756 
	L 315.000, 0.000 
" />
<path d="M 319.536, 507.755 
	L 319.535, 507.756 
	L 319.535, 0.000 
" />
<path d="M 324.072, 507.755 
	L 324.071, 507.756 
	L 324.071, 0.000 
" />
<path d="M 328.607, 507.755 
	L 328.606, 507.756 
	L 328.606, 0.000 
" />
<path d="M 333.142, 507.755 
	L 333.142, 507.756 
	L 333.142, 0.000 
" />
<path d="M 337.678, 507.755 
	L 337.677, 507.756 
	L 337.677, 0.000 
" />
<path d="M 342.213, 507.755 
	L 342.213, 507.756 
	L 342.213, 0.000 
" />
<path d="M 346.749, 507.755 
	L 346.748, 507.756 
	L 346.748, 0.000 
" />
<path d="M 351.284, 507.755 
	L 351.284, 507.756 
	L 351.284, 0.000 
" />
<path d="M 355.820, 507.755 
	L 355.819, 507.756 
	L 355.819, 0.000 
" />
<path d="M 360.355, 507.755 
	L 360.354, 507.756 
	L 360.354, 0.000 
" />
<path d="M 364.891, 507.755 
	L 364.890, 507.756 
	L 364.890, 0.000 
" />
<path d="M 369.426, 507.755 
	L 369.425, 507.756 
	L 369.425, 0.000 
" />
<path d="M 373.961, 507.755 
	L 373.961, 507.756 
	L 373.961, 0.000 
" />
<path d="M 378.497, 507.755 
	L 378.496, 507.756 
	L 378.496, 0.000 
" />
<path d="M 383.032, 507.755 
	L 383.032, 507.756 
	L 383.032, 0.000 
" />
<path d="M 387.568, 507.755 
	L 387.567, 507.756 
	L 387.567, 0.000 
" />
<path d="M 392.103, 507.755 
	L 392.102, 507.756 
	L 392.102, 0.000 
" />
<path d="M 396.639, 507.755 
	L 396.638, 507.756 
	L 396.638, 0.000 
" />
<path d="M 401.174, 507.755 
	L 401.173, 507.756 
	L 401.173, 0.000 
" />
<path d="M 405.709, 507.755 
	L 405.709, 507.756 
	L 405.709, 0.000 
" />
<path d="M 410.245, 507.755 
	L 410.244, 507.756 
	L 410.244, 0.000 
" />
<path d="M 414.780, 507.755 
	L 414.780, 507.756 
	L 414.780, 0.000 
" />
<path d="M 419.316, 507.755 
	L 419.315, 507.756 
	L 419.315, 0.000 
" />
<path d="M 423.851, 507.755 
	L 423.850, 507.756 
	L 423.850, 0.000 
" />
<path d="M 428.387, 507.755 
	L 428.386, 507.756 
	L 428.386, 0.000 
" />
<path d="M 432.922, 507.755 
	L 432.921, 507.756 
	L 432.921, 0.000 
" />
<path d="M 437.457, 507.755 
	L 437.457, 507.756 
	L 437.457, 0.000 
" />
<path d="M 441.993, 507.755 
	L 441.992, 507.756 
	L 441.992, 0.000 
" />
<path d="M 446.528, 507.755 
	L 446.528, 507.756 
	L 446.528, 0.000 
" />
<path d="M 451.064, 507.755 
	L 451.063, 507.756 
	L 451.063, 0.000 
" />
<path d="M 455.599, 507.755 
	L 455.598, 507.756 
	L 455.598, 0.000 
" />
<path d="M 460.135, 507.755 
	L 460.134, 507.756 
	L 460.134, 0.000 
" />
<path d="M 464.670, 507.755 
	L 464.669, 507.756 
	L 464.669, 0.000 
" />
<path d="M 469.205, 507.755 
	L 469.205, 507.756 
	L 469.205, 0.000 
" />
<path d="M 473.741, 507.755 
	L 473.740, 507.756 
	L 473.740, 0.000 
" />
<path d="M 478.276, 507.755 
	L 478.276, 507.756 
	L 478.276, 0.000 
" />
<path d="M 482.812, 507.755 
	L 482.811, 507.756 
	L 482.811, 0.000 
" />
<path d="M 487.347, 507.755 
	L 487.347, 507.756 
	L 487.347, 0.000 
" />
<path d="M 491.883, 507.755 
	L 491.882, 507.756 
	L 491.882, 0.000 
" />
<path d="M 496.418, 507.755 
	L 496.417, 507.756 
	L 496.417, 0.000 
" />
<path d="M 500.954, 507.755 
	L 500.953, 507.756 
	L 500.953, 0.000 
" />
<path d="M 505.489, 507.755 
	L 505.488, 507.756 
	L 505.488, 0.000 
" />
<path d="M 510.024, 507.755 
	L 510.024, 507.756 
	L 510.024, 0.000 
" />
<path d="M 514.560, 507.755 
	L 514.559, 507.756 
	L 514.559, 0.000 
" />
<path d="M 519.095, 507.755 
	L 519.095, 507.756 
	L 519.095, 0.000 
" />
<path d="M 523.631, 507.755 
	L 523.630, 507.756 
	L 523.630, 0.000 
" />
<path d="M 528.166, 507.755 
	L 528.165, 507.756 
	L 528.165, 0.000 
" />
<path d="M 532.702, 507.755 
	L 532.701, 507.756 
	L 532.701, 0.000 
" />
<path d="M 537.237, 507.755 
	L 537.236, 507.756 
	L 537.236, 0.000 
" />
<path d="M 541.772, 507.755 
	L 541.772, 507.756 
	L 541.772, 0.000 
" />
<path d="M 546.308, 507.755 
	L 546.307, 507.756 
	L 546.307, 0.000 
" />
<path d="M 278.717, 598.535 
	L 278.717, 598.536 
	L 278.717, 507.756 
" />
<path d="M 282.969, 598.535 
	L 282.969, 598.536 
	L 282.969, 507.756 
" />
<path d="M 287.221, 598.535 
	L 287.221, 598.536 
	L 287.221, 507.756 
" />
<path d="M 291.473, 598.535 
	L 291.472, 598.536 
	L 291.472, 507.756 
" />
<path d="M 295.725, 598.535 
	L 295.724, 598.536 
	L 295.724, 507.756 
" />
<path d="M 299.977, 598.535 
	L 299.976, 598.536 
	L 299.976, 507.756 
" />
<path d="M 304.229, 598.535 
	L 304.228, 598.536 
	L 304.228, 507.756 
" />
<path d="M 308.481, 598.535 
	L 308.480, 598.536 
	L 308.480, 507.756 
" />
<path d="M 312.733, 598.535 
	L 312.732, 598.536 
	L 312.732, 507.756 
" />
<path d="M 316.985, 598.535 
	L 316.984, 598.536 
	L 316.984, 507.756 
" />
<path d="M 321.237, 598.535 
	L 321.236, 598.536 
	L 321.236, 507.756 
" />
<path d="M 325.489, 598.535 
	L 325.488, 598.536 
	L 325.488, 507.756 
" />
<path d="M 329.741, 598.535 
	L 329.740, 598.536 
	L 329.740, 507.756 
" />
<path d="M 333.993, 598.535 
	L 333.992, 598.536 
	L 333.992, 507.756 
" />
<path d="M 338.245, 598.535 
	L 338.244, 598.536 
	L 338.244, 507.756 
" />
<path d="M 342.497, 598.535 
	L 342.496, 598.536 
	L 342.496, 507.756 
" />
<path d="M 346.749, 598.535 
	L 346.748, 598.536 
	L 346.748, 507.756 
" />
<path d="M 351.001, 598.535 
	L 351.000, 598.536 
	L 351.000, 507.756 
" />
<path d="M 355.253, 598.535 
	L 355.252, 598.536 
	L 355.252, 507.756 
" />
<path d="M 359.505, 598.535 
	L 359.504, 598.536 
	L 359.504, 507.756 
" />
<path d="M 363.757, 598.535 
	L 363.756, 598.536 
	L 363.756, 507.756 
" />
<path d="M 368.009, 598.535 
	L 368.008, 598.536 
	L 368.008, 507.756 
" />
<path d="M 372.261, 598.535 
	L 372.260, 598.536 
	L 372.260, 507.756 
" />
<path d="M 376.513, 598.535 
	L 376.512, 598.536 
	L 376.512, 507.756 
" />
<path d="M 380.765, 598.535 
	L 380.764, 598.536 
	L 380.764, 507.756 
" />
<path d="M 385.016, 598.535 
	L 385.016, 598.536 
	L 385.016, 507.756 
" />
<path d="M 389.268, 598.535 
	L 389.268, 598.536 
	L 389.268, 507.756 
" />
<path d="M 393.520, 598.535 
	L 393.520, 598.536 
	L 393.520, 507.756 
" />
<path d="M 397.772, 598.535 
	L 397.772, 598.536 
	L 397.772, 507.756 
" />
<path d="M 402.024, 598.535 
	L 402.024, 598.536 
	L 402.024, 507.756 
" />
<path d="M 406.276, 598.535 
	L 406.276, 598.536 
	L 406.276, 507.756 
" />
<path d="M 410.528, 598.535 
	L 410.528, 598.536 
	L 410.528, 507.756 
" />
<path d="M 414.780, 598.535 
	L 414.780, 598.536 
	L 414.780, 507.756 
" />
<path d="M 419.032, 598.535 
	L 419.032, 598.536 
	L 419.032, 507.756 
" />
<path d="M 423.284, 598.535 
	L 423.284, 598.536 
	L 423.284, 507.756 
" />
<path d="M 427.536, 598.535 
	L 427.535, 598.536 
	L 427.535, 507.756 
" />
<path d="M 431.788, 598.535 
	L 431.787, 598.536 
	L 431.787, 507.756 
" />
<path d="M 436.040, 598.535 
	L 436.039, 598.536 
	L 436.039, 507.756 
" />
<path d="M 440.292, 598.535 
	L 440.291, 598.536 
	L 440.291, 507.756 
" />
<path d="M 444.544, 598.535 
	L 444.543, 598.536 
	L 444.543, 507.756 
" />
<path d="M 448.796, 598.535 
	L 448.795, 598.536 
	L 448.795, 507.756 
" />
<path d="M 453.048, 598.535 
	L 453.047, 598.536 
	L 453.047, 507.756 
" />
<path d="M 457.300, 598.535 
	L 457.299, 598.536 
	L 457.299, 507.756 
" />
<path d="M 461.552, 598.535 
	L 461.551, 598.536 
	L 461.551, 507.756 
" />
<path d="M 465.804, 598.535 
	L 465.803, 598.536 
	L 465.803, 507.756 
" />
<path d="M 470.056, 598.535 
	L 470.055, 598.536 
	L 470.055, 507.756 
" />
<path d="M 474.308, 598.535 
	L 474.307, 598.536 
	L 474.307, 507.756 
" />
<path d="M 478.560, 598.535 
	L 478.559, 598.536 
	L 478.559, 507.756 
" />
<path d="M 482.812, 598.535 
	L 482.811, 598.536 
	L 482.811, 507.756 
" />
<path d="M 487.064, 598.535 
	L 487.063, 598.536 
	L 487.063, 507.756 
" />
<path d="M 491.316, 598.535 
	L 491.315, 598.536 
	L 491.315, 507.756 
" />
<path d="M 495.568, 598.535 
	L 495.567, 598.536 
	L 495.567, 507.756 
" />
<path d="M 499.820, 598.535 
	L 499.819, 598.536 
	L 499.819, 507.756 
" />
<path d="M 504.072, 598.535 
	L 504.071, 598.536 
	L 504.071, 507.756 
" />
<path d="M 508.324, 598.535 
	L 508.323, 598.536 
	L 508.323, 507.756 
" />
<path d="M 512.576, 598.535 
	L 512.575, 598.536 
	L 512.575, 507.756 
" />
<path d="M 516.828, 598.535 
	L 516.827, 598.536 
	L 516.827, 507.756 
" />
<path d="M 521.080, 598.535 
	L 521.079, 598.536 
	L 521.079, 507.756 
" />
<path d="M 525.331, 598.535 
	L 525.331, 598.536 
	L 525.331, 507.756 
" />
<path d="M 529.583, 598.535 
	L 529.583, 598.536 
	L 529.583, 507.756 
" />
<path d="M 533.835, 598.535 
	L 533.835, 598.536 
	L 533.835, 507.756 
" />
<path d="M 538.087, 598.535 
	L 538.087, 598.536 
	L 538.087, 507.756 
" />
<path d="M 542.339, 598.535 
	L 542.339, 598.536 
	L 542.339, 507.756 
" />
<path d="M 546.591, 598.535 
	L 546.591, 598.536 
	L 546.591, 507.756 
" />
<path d="M 554.954, 598.535 
	L 554.953, 598.536 
	L 554.953, 63.567 
" />
<path d="M 559.560, 598.535 
	L 559.559, 598.536 
	L 559.559, 63.567 
" />
<path d="M 564.166, 598.535 
	L 564.165, 598.536 
	L 564.165, 63.567 
" />
<path d="M 568.772, 598.535 
	L 568.772, 598.536 
	L 568.772, 63.567 
" />
<path d="M 573.379, 598.535 
	L 573.378, 598.536 
	L 573.378, 63.567 
" />
<path d="M 554.954, 63.566 
	L 554.953, 63.567 
	L 554.953, 0.000 
" />
<path d="M 560.623, 63.566 
	L 560.622, 63.567 
	L 560.622, 0.000 
" />
<path d="M 566.292, 63.566 
	L 566.291, 63.567 
	L 566.291, 0.000 
" />
<path d="M 571.961, 63.566 
	L 571.961, 63.567 
	L 571.961, 0.000 
" />
<path d="M 578.835, 63.566 
	L 578.835, 63.567 
	L 578.835, 0.000 
" />
<path d="M 584.505, 63.566 
	L 584.504, 63.567 
	L 584.504, 0.000 
" />
<path d="M 590.174, 63.566 
	L 590.173, 63.567 
	L 590.173, 0.000 
" />
<path d="M 595.843, 63.566 
	L 595.843, 63.567 
	L 595.843, 0.000 
" />
<path d="M 601.513, 63.566 
	L 601.512, 63.567 
	L 601.512, 0.000 
" />
<path d="M 607.182, 63.566 
	L 607.181, 63.567 
	L 607.181, 0.000 
" />
<path d="M 612.851, 63.566 
	L 612.850, 63.567 
	L 612.850, 0.000 
" />
<path d="M 618.520, 63.566 
	L 618.520, 63.567 
	L 618.520, 0.000 
" />
<path d="M 624.190, 63.566 
	L 624.189, 63.567 
	L 624.189, 0.000 
" />
<path d="M 629.859, 63.566 
	L 629.858, 63.567 
	L 629.858, 0.000 
" />
<path d="M 635.528, 63.566 
	L 635.528, 63.567 
	L 635.528, 0.000 
" />
<path d="M 641.198, 63.566 
	L 641.197, 63.567 
	L 641.197, 0.000 
" />
<path d="M 646.867, 63.566 
	L 646.866, 63.567 
	L 646.866, 0.000 
" />
<path d="M 652.536, 63.566 
	L 652.536, 63.567 
	L 652.536, 0.000 
" />
<path d="M 658.206, 63.566 
	L 658.205, 63.567 
	L 658.205, 0.000 
" />
<path d="M 663.875, 63.566 
	L 663.874, 63.567 
	L 663.874, 0.000 
" />
<path d="M 669.544, 63.566 
	L 669.543, 63.567 
	L 669.543, 0.000 
" />
<path d="M 675.213, 63.566 
	L 675.213, 63.567 
	L 675.213, 0.000 
" />
<path d="M 680.883, 63.566 
	L 680.882, 63.567 
	L 680.882, 0.000 
" />
<path d="M 686.552, 63.566 
	L 686.551, 63.567 
	L 686.551, 0.000 
" />
<path d="M 692.221, 63.566 
	L 692.221, 63.567 
	L 692.221, 0.000 
" />
<path d="M 697.891, 63.566 
	L 697.890, 63.567 
	L 697.890, 0.000 
" />
<path d="M 578.835, 598.535 
	L 578.835, 598.536 
	L 578.835, 63.567 
" />
<path d="M 583.087, 598.535 
	L 583.087, 598.536 
	L 583.087, 63.567 
" />
<path d="M 587.339, 598.535 
	L 587.339, 598.536 
	L 587.339, 63.567 
" />
<path d="M 591.591, 598.535 
	L 591.591, 598.536 
	L 591.591, 63.567 
" />
<path d="M 595.843, 598.535 
	L 595.843, 598.536 
	L 595.843, 63.567 
" />
<path d="M 600.095, 598.535 
	L 600.095, 598.536 
	L 600.095, 63.567 
" />
<path d="M 604.347, 598.535 
	L 604.347, 598.536 
	L 604.347, 63.567 
" />
<path d="M 608.599, 598.535 
	L 608.599, 598.536 
	L 608.599, 63.567 
" />
<path d="M 612.851, 598.535 
	L 612.850, 598.536 
	L 612.850, 63.567 
" />
<path d="M 617.103, 598.535 
	L 617.102, 598.536 
	L 617.102, 63.567 
" />
<path d="M 621.355, 598.535 
	L 621.354, 598.536 
	L 621.354, 63.567 
" />
<path d="M 625.607, 598.535 
	L 625.606, 598.536 
	L 625.606, 63.567 
" />
<path d="M 629.859, 598.535 
	L 629.858, 598.536 
	L 629.858, 63.567 
" />
<path d="M 634.111, 598.535 
	L 634.110, 598.536 
	L 634.110, 63.567 
" />
<path d="M 638.363, 598.535 
	L 638.362, 598.536 
	L 638.362, 63.567 
" />
<path d="M 642.615, 598.535 
	L 642.614, 598.536 
	L 642.614, 63.567 
" />
<path d="M 646.867, 598.535 
	L 646.866, 598.536 
	L 646.866, 63.567 
" />
<path d="M 651.119, 598.535 
	L 651.118, 598.536 
	L 651.118, 63.567 
" />
<path d="M 655.371, 598.535 
	L 655.370, 598.536 
	L 655.370, 63.567 
" />
<path d="M 659.623, 598.535 
	L 659.622, 598.536 
	L 659.622, 63.567 
" />
<path d="M 663.875, 598.535 
	L 663.874, 598.536 
	L 663.874, 63.567 
" />
<path d="M 668.127, 598.535 
	L 668.126, 598.536 
	L 668.126, 63.567 
" />
<path d="M 672.379, 598.535 
	L 672.378, 598.536 
	L 672.378, 63.567 
" />
<path d="M 676.631, 598.535 
	L 676.630, 598.536 
	L 676.630, 63.567 
" />
<path d="M 680.883, 598.535 
	L 680.882, 598.536 
	L 680.882, 63.567 
" />
<path d="M 685.135, 598.535 
	L 685.134, 598.536 
	L 685.134, 63.567 
" />
<path d="M 689.387, 598.535 
	L 689.386, 598.536 
	L 689.386, 63.567 
" />
<path d="M 693.639, 598.535 
	L 693.638, 598.536 
	L 693.638, 63.567 
" />
<path d="M 697.891, 598.535 
	L 697.890, 598.536 
	L 697.890, 63.567 
" />
<path d="M 702.143, 598.535 
	L 702.142, 598.536 
	L 702.142, 63.567 
" />
<path d="M 554.954, 708.661 
	L 554.953, 708.662 
	L 554.953, 632.197 
" />
<path d="M 560.268, 708.661 
	L 560.268, 708.662 
	L 560.268, 632.197 
" />
<path d="M 565.583, 708.661 
	L 565.583, 708.662 
	L 565.583, 632.197 
" />
<path d="M 570.898, 708.661 
	L 570.898, 708.662 
	L 570.898, 632.197 
" />
<path d="M 576.213, 708.661 
	L 576.213, 708.662 
	L 576.213, 632.197 
" />
<path d="M 581.528, 708.661 
	L 581.528, 708.662 
	L 581.528, 632.197 
" />
<path d="M 586.843, 708.661 
	L 586.843, 708.662 
	L 586.843, 632.197 
" />
<path d="M 592.158, 708.661 
	L 592.158, 708.662 
	L 592.158, 632.197 
" />
<path d="M 597.473, 708.661 
	L 597.473, 708.662 
	L 597.473, 632.197 
" />
<path d="M 554.954, 632.196 
	L 554.953, 632.197 
	L 554.953, 598.536 
" />
<path d="M 559.489, 632.196 
	L 559.488, 632.197 
	L 559.488, 598.536 
" />
<path d="M 564.024, 632.196 
	L 564.024, 632.197 
	L 564.024, 598.536 
" />
<path d="M 568.560, 632.196 
	L 568.559, 632.197 
	L 568.559, 598.536 
" />
<path d="M 573.095, 632.196 
	L 573.095, 632.197 
	L 573.095, 598.536 
" />
<path d="M 577.631, 632.196 
	L 577.630, 632.197 
	L 577.630, 598.536 
" />
<path d="M 582.166, 632.196 
	L 582.165, 632.197 
	L 582.165, 598.536 
" />
<path d="M 586.702, 632.196 
	L 586.701, 632.197 
	L 586.701, 598.536 
" />
<path d="M 591.237, 632.196 
	L 591.236, 632.197 
	L 591.236, 598.536 
" />
<path d="M 595.772, 632.196 
	L 595.772, 632.197 
	L 595.772, 598.536 
" />
<path d="M 602.859, 632.196 
	L 602.858, 632.197 
	L 602.858, 598.536 
" />
<path d="M 607.465, 632.196 
	L 607.465, 632.197 
	L 607.465, 598.536 
" />
<path d="M 612.072, 632.196 
	L 612.071, 632.197 
	L 612.071, 598.536 
" />
<path d="M 616.678, 632.196 
	L 616.677, 632.197 
	L 616.677, 598.536 
" />
<path d="M 621.284, 632.196 
	L 621.284, 632.197 
	L 621.284, 598.536 
" />
<path d="M 625.891, 632.196 
	L 625.890, 632.197 
	L 625.890, 598.536 
" />
<path d="M 630.497, 632.196 
	L 630.496, 632.197 
	L 630.496, 598.536 
" />
<path d="M 635.103, 632.196 
	L 635.102, 632.197 
	L 635.102, 598.536 
" />
<path d="M 639.709, 632.196 
	L 639.709, 632.197 
	L 639.709, 598.536 
" />
<path d="M 644.316, 632.196 
	L 644.315, 632.197 
	L 644.315, 598.536 
" />
<path d="M 648.922, 632.196 
	L 648.921, 632.197 
	L 648.921, 598.536 
" />
<path d="M 653.528, 632.196 
	L 653.528, 632.197 
	L 653.528, 598.536 
" />
<path d="M 658.135, 632.196 
	L 658.134, 632.197 
	L 658.134, 598.536 
" />
<path d="M 662.741, 632.196 
	L 662.740, 632.197 
	L 662.740, 598.536 
" />
<path d="M 667.347, 632.196 
	L 667.347, 632.197 
	L 667.347, 598.536 
" />
<path d="M 671.954, 632.196 
	L 671.953, 632.197 
	L 671.953, 598.536 
" />
<path d="M 676.560, 632.196 
	L 676.559, 632.197 
	L 676.559, 598.536 
" />
<path d="M 681.166, 632.196 
	L 681.165, 632.197 
	L 681.165, 598.536 
" />
<path d="M 685.772, 632.196 
	L 685.772, 632.197 
	L 685.772, 598.536 
" />
<path d="M 690.379, 632.196 
	L 690.378, 632.197 
	L 690.378, 598.536 
" />
<path d="M 694.985, 632.196 
	L 694.984, 632.197 
	L 694.984, 598.536 
" />
<path d="M 699.591, 632.196 
	L 699.591, 632.197 
	L 699.591, 598.536 
" />
<path d="M 602.859, 708.661 
	L 602.858, 708.662 
	L 602.858, 632.197 
" />
<path d="M 608.174, 708.661 
	L 608.173, 708.662 
	L 608.173, 632.197 
" />
<path d="M 613.489, 708.661 
	L 613.488, 708.662 
	L 613.488, 632.197 
" />
<path d="M 618.804, 708.661 
	L 618.803, 708.662 
	L 618.803, 632.197 
" />
<path d="M 624.119, 708.661 
	L 624.118, 708.662 
	L 624.118, 632.197 
" />
<path d="M 629.434, 708.661 
	L 629.433, 708.662 
	L 629.433, 632.197 
" />
<path d="M 634.749, 708.661 
	L 634.748, 708.662 
	L 634.748, 632.197 
" />
<path d="M 640.064, 708.661 
	L 640.063, 708.662 
	L 640.063, 632.197 
" />
<path d="M 645.379, 708.661 
	L 645.378, 708.662 
	L 645.378, 632.197 
" />
<path d="M 650.694, 708.661 
	L 650.693, 708.662 
	L 650.693, 632.197 
" />
<path d="M 656.009, 708.661 
	L 656.008, 708.662 
	L 656.008, 632.197 
" />
<path d="M 661.324, 708.661 
	L 661.323, 708.662 
	L 661.323, 632.197 
" />
<path d="M 666.639, 708.661 
	L 666.638, 708.662 
	L 666.638, 632.197 
" />
<path d="M 671.954, 708.661 
	L 671.953, 708.662 
	L 671.953, 632.197 
" />
<path d="M 677.269, 708.661 
	L 677.268, 708.662 
	L 677.268, 632.197 
" />
<path d="M 682.583, 708.661 
	L 682.583, 708.662 
	L 682.583, 632.197 
" />
<path d="M 687.898, 708.661 
	L 687.898, 708.662 
	L 687.898, 632.197 
" />
<path d="M 693.213, 708.661 
	L 693.213, 708.662 
	L 693.213, 632.197 
" />
<path d="M 698.528, 708.661 
	L 698.528, 708.662 
	L 698.528, 632.197 
" />
<path d="M 1133.858, 708.662 
	L 1129.606, 703.347 
" />
<path d="M 1129.606, 702.284 
	L 1133.150, 702.284 
	L 1133.858, 701.221 
	L 1133.858, 699.095 
	L 1133.150, 698.032 
	L 1129.606, 698.032 
" />
<path d="M 1131.024, 692.717 
	L 1131.024, 694.843 
	L 1131.732, 695.906 
	L 1132.441, 694.843 
	L 1132.441, 693.780 
	L 1133.150, 692.717 
	L 1133.858, 693.780 
	L 1133.858, 695.906 
" />
<path d="M 1132.441, 689.528 
	L 1132.441, 686.339 
	L 1131.732, 685.276 
	L 1131.024, 686.339 
	L 1131.024, 688.465 
	L 1131.732, 689.528 
	L 1133.150, 689.528 
	L 1133.858, 688.465 
	L 1133.858, 685.276 
" />
<path d="M 1131.024, 683.150 
	L 1133.858, 683.150 
" />
<path d="M 1132.441, 683.150 
	L 1131.024, 681.024 
	L 1131.024, 679.961 
" />
<path d="M 1131.024, 673.583 
	L 1131.024, 675.709 
	L 1131.732, 676.772 
	L 1132.441, 675.709 
	L 1132.441, 674.646 
	L 1133.150, 673.583 
	L 1133.858, 674.646 
	L 1133.858, 676.772 
" />
<path d="M 1133.858, 670.394 
	L 1129.606, 665.079 
" />
<path d="M 1133.858, 664.016 
	L 1129.606, 664.016 
" />
<path d="M 1133.858, 660.827 
	L 1132.441, 664.016 
	L 1131.024, 660.827 
" />
<path d="M 1133.858, 653.386 
	L 1133.858, 656.575 
	L 1133.150, 657.638 
	L 1131.732, 657.638 
	L 1131.024, 656.575 
	L 1131.024, 654.449 
	L 1133.858, 654.449 
" />
<path d="M 1133.858, 650.197 
	L 1133.150, 651.260 
	L 1131.732, 651.260 
	L 1131.024, 650.197 
	L 1131.024, 649.134 
	L 1131.732, 648.071 
	L 1133.150, 648.071 
	L 1133.858, 649.134 
	L 1133.858, 650.197 
" />
<path d="M 1131.024, 641.693 
	L 1131.024, 643.819 
	L 1131.732, 644.882 
	L 1132.441, 643.819 
	L 1132.441, 642.756 
	L 1133.150, 641.693 
	L 1133.858, 642.756 
	L 1133.858, 644.882 
" />
<path d="M 1133.858, 638.504 
	L 1129.606, 633.189 
" />
<path d="M 1133.858, 632.126 
	L 1129.606, 632.126 
	L 1129.606, 628.937 
	L 1130.315, 627.874 
	L 1133.150, 627.874 
	L 1133.858, 628.937 
	L 1133.858, 632.126 
" />
<path d="M 1133.858, 624.685 
	L 1133.150, 625.748 
	L 1131.732, 625.748 
	L 1131.024, 624.685 
	L 1131.024, 623.622 
	L 1131.732, 622.559 
	L 1133.150, 622.559 
	L 1133.858, 623.622 
	L 1133.858, 624.685 
" />
<path d="M 1133.150, 615.118 
	L 1133.858, 616.181 
	L 1133.858, 617.244 
	L 1133.150, 618.307 
	L 1131.732, 618.307 
	L 1131.024, 617.244 
	L 1131.024, 616.181 
	L 1131.732, 615.118 
" />
<path d="M 1131.024, 612.992 
	L 1133.150, 612.992 
	L 1133.858, 611.929 
	L 1133.858, 609.803 
	L 1131.024, 609.803 
" />
<path d="M 1133.858, 606.614 
	L 1131.024, 606.614 
" />
<path d="M 1131.732, 606.614 
	L 1131.024, 605.551 
	L 1131.732, 604.488 
	L 1133.858, 604.488 
" />
<path d="M 1131.732, 604.488 
	L 1131.024, 603.425 
	L 1131.732, 602.362 
	L 1133.858, 602.362 
" />
<path d="M 1132.441, 600.236 
	L 1132.441, 597.047 
	L 1131.732, 595.984 
	L 1131.024, 597.047 
	L 1131.024, 599.173 
	L 1131.732, 600.236 
	L 1133.150, 600.236 
	L 1133.858, 599.173 
	L 1133.858, 595.984 
" />
<path d="M 1133.858, 593.858 
	L 1131.024, 593.858 
" />
<path d="M 1131.732, 593.858 
	L 1131.024, 592.795 
	L 1131.024, 591.732 
	L 1131.732, 590.669 
	L 1133.858, 590.669 
" />
<path d="M 1129.606, 586.417 
	L 1133.858, 586.417 
	L 1133.858, 584.291 
" />
<path d="M 1131.024, 587.480 
	L 1131.024, 584.291 
" />
<path d="M 1131.024, 577.913 
	L 1131.024, 580.039 
	L 1131.732, 581.102 
	L 1132.441, 580.039 
	L 1132.441, 578.976 
	L 1133.150, 577.913 
	L 1133.858, 578.976 
	L 1133.858, 581.102 
" />
<path d="M 1133.858, 574.724 
	L 1129.606, 569.410 
" />
<path d="M 1133.150, 568.347 
	L 1133.858, 567.284 
	L 1133.858, 565.158 
	L 1133.150, 564.095 
	L 1130.315, 564.095 
	L 1129.606, 565.158 
	L 1129.606, 567.284 
	L 1130.315, 568.347 
	L 1133.150, 568.347 
" />
<path d="M 1133.150, 561.969 
	L 1133.858, 560.906 
	L 1133.858, 558.780 
	L 1133.150, 557.717 
	L 1130.315, 557.717 
	L 1129.606, 558.780 
	L 1129.606, 560.906 
	L 1130.315, 561.969 
	L 1133.150, 561.969 
" />
<path d="M 1129.606, 551.339 
	L 1129.606, 555.591 
	L 1131.024, 555.591 
	L 1131.024, 552.402 
	L 1131.732, 551.339 
	L 1133.150, 551.339 
	L 1133.858, 552.402 
	L 1133.858, 554.528 
	L 1133.150, 555.591 
" />
<path d="M 1134.567, 549.213 
	L 1134.567, 544.961 
" />
<path d="M 1135.276, 542.835 
	L 1131.024, 542.835 
	L 1131.024, 540.709 
	L 1131.732, 539.646 
	L 1133.150, 539.646 
	L 1133.858, 540.709 
	L 1133.858, 542.835 
" />
<path d="M 1129.606, 535.394 
	L 1129.606, 534.331 
	L 1133.858, 534.331 
" />
<path d="M 1133.858, 535.394 
	L 1133.858, 533.268 
" />
<path d="M 1133.858, 529.016 
	L 1133.150, 530.079 
	L 1131.732, 530.079 
	L 1131.024, 529.016 
	L 1131.024, 527.953 
	L 1131.732, 526.890 
	L 1133.150, 526.890 
	L 1133.858, 527.953 
	L 1133.858, 529.016 
" />
<path d="M 1129.606, 522.638 
	L 1133.858, 522.638 
	L 1133.858, 520.512 
" />
<path d="M 1131.024, 523.701 
	L 1131.024, 520.512 
" />
<path d="M 1129.606, 516.260 
	L 1133.858, 516.260 
	L 1133.858, 514.134 
" />
<path d="M 1131.024, 517.323 
	L 1131.024, 514.134 
" />
<path d="M 1132.441, 510.945 
	L 1132.441, 507.756 
	L 1131.732, 506.693 
	L 1131.024, 507.756 
	L 1131.024, 509.882 
	L 1131.732, 510.945 
	L 1133.150, 510.945 
	L 1133.858, 509.882 
	L 1133.858, 506.693 
" />
<path d="M 1131.024, 504.567 
	L 1133.858, 504.567 
" />
<path d="M 1132.441, 504.567 
	L 1131.024, 502.441 
	L 1131.024, 501.378 
" />
<path d="M 1133.858, 498.189 
	L 1129.606, 492.874 
" />
<path d="M 1133.858, 490.748 
	L 1133.150, 491.811 
	L 1131.732, 491.811 
	L 1131.024, 490.748 
	L 1131.024, 489.685 
	L 1131.732, 488.622 
	L 1133.150, 488.622 
	L 1133.858, 489.685 
	L 1133.858, 490.748 
" />
<path d="M 1131.024, 485.433 
	L 1133.150, 485.433 
	L 1133.858, 484.370 
	L 1133.858, 482.244 
	L 1131.024, 482.244 
" />
<path d="M 1129.606, 477.992 
	L 1133.858, 477.992 
	L 1133.858, 475.866 
" />
<path d="M 1131.024, 479.055 
	L 1131.024, 475.866 
" />
<path d="M 1135.276, 472.677 
	L 1131.024, 472.677 
	L 1131.024, 470.551 
	L 1131.732, 469.488 
	L 1133.150, 469.488 
	L 1133.858, 470.551 
	L 1133.858, 472.677 
" />
<path d="M 1131.024, 466.299 
	L 1133.150, 466.299 
	L 1133.858, 465.236 
	L 1133.858, 463.110 
	L 1131.024, 463.110 
" />
<path d="M 1129.606, 458.858 
	L 1133.858, 458.858 
	L 1133.858, 456.732 
" />
<path d="M 1131.024, 459.921 
	L 1131.024, 456.732 
" />
<path d="M 1133.858, 453.543 
	L 1129.606, 448.228 
" />
<path d="M 1129.606, 446.102 
	L 1133.858, 446.102 
	L 1133.858, 443.976 
" />
<path d="M 1131.024, 447.165 
	L 1131.024, 443.976 
" />
<path d="M 1129.606, 438.661 
	L 1130.315, 438.661 
" />
<path d="M 1131.024, 439.724 
	L 1131.024, 438.661 
	L 1133.858, 438.661 
" />
<path d="M 1133.858, 439.724 
	L 1133.858, 437.598 
" />
<path d="M 1129.606, 433.347 
	L 1129.606, 432.284 
	L 1133.858, 432.284 
" />
<path d="M 1133.858, 433.347 
	L 1133.858, 431.221 
" />
<path d="M 1129.606, 426.969 
	L 1133.858, 426.969 
	L 1133.858, 424.843 
" />
<path d="M 1131.024, 428.032 
	L 1131.024, 424.843 
" />
<path d="M 1132.441, 421.654 
	L 1132.441, 418.465 
	L 1131.732, 417.402 
	L 1131.024, 418.465 
	L 1131.024, 420.591 
	L 1131.732, 421.654 
	L 1133.150, 421.654 
	L 1133.858, 420.591 
	L 1133.858, 417.402 
" />
<path d="M 1129.606, 412.087 
	L 1133.858, 412.087 
	L 1133.858, 414.213 
	L 1133.150, 415.276 
	L 1131.732, 415.276 
	L 1131.024, 414.213 
	L 1131.024, 412.087 
" />
<path d="M 1133.858, 412.087 
	L 1133.858, 411.024 
" />
<path d="M 1131.024, 405.709 
	L 1131.024, 407.835 
	L 1131.732, 408.898 
	L 1132.441, 407.835 
	L 1132.441, 406.772 
	L 1133.150, 405.709 
	L 1133.858, 406.772 
	L 1133.858, 408.898 
" />
<path d="M 1133.858, 399.331 
	L 1133.858, 401.457 
	L 1133.150, 402.520 
	L 1131.732, 402.520 
	L 1131.024, 401.457 
	L 1131.024, 399.331 
	L 1135.276, 399.331 
" />
<path d="M 1131.024, 396.142 
	L 1133.150, 396.142 
	L 1133.858, 395.079 
	L 1133.858, 392.953 
	L 1131.024, 392.953 
" />
<path d="M 1133.858, 385.512 
	L 1133.858, 388.701 
	L 1133.150, 389.764 
	L 1131.732, 389.764 
	L 1131.024, 388.701 
	L 1131.024, 386.575 
	L 1133.858, 386.575 
" />
<path d="M 1131.024, 383.386 
	L 1133.858, 383.386 
" />
<path d="M 1132.441, 383.386 
	L 1131.024, 381.260 
	L 1131.024, 380.197 
" />
<path d="M 1132.441, 377.008 
	L 1132.441, 373.819 
	L 1131.732, 372.756 
	L 1131.024, 373.819 
	L 1131.024, 375.945 
	L 1131.732, 377.008 
	L 1133.150, 377.008 
	L 1133.858, 375.945 
	L 1133.858, 372.756 
" />
<path d="M 1131.024, 367.441 
	L 1131.024, 369.567 
	L 1131.732, 370.630 
	L 1132.441, 369.567 
	L 1132.441, 368.504 
	L 1133.150, 367.441 
	L 1133.858, 368.504 
	L 1133.858, 370.630 
" />
<path d="M 1134.567, 364.252 
	L 1134.567, 360.000 
" />
<path d="M 1133.150, 357.874 
	L 1133.858, 356.811 
	L 1133.858, 354.685 
	L 1133.150, 353.622 
	L 1130.315, 353.622 
	L 1129.606, 354.685 
	L 1129.606, 356.811 
	L 1130.315, 357.874 
	L 1133.150, 357.874 
" />
<path d="M 1129.606, 347.244 
	L 1129.606, 351.496 
	L 1131.024, 351.496 
	L 1131.024, 348.307 
	L 1131.732, 347.244 
	L 1133.150, 347.244 
	L 1133.858, 348.307 
	L 1133.858, 350.433 
	L 1133.150, 351.496 
" />
<path d="M 1134.567, 345.118 
	L 1134.567, 340.866 
" />
<path d="M 1133.150, 338.740 
	L 1133.858, 337.677 
	L 1133.858, 335.551 
	L 1133.150, 334.488 
	L 1130.315, 334.488 
	L 1129.606, 335.551 
	L 1129.606, 337.677 
	L 1130.315, 338.740 
	L 1133.150, 338.740 
" />
<path d="M 1130.315, 332.362 
	L 1129.606, 331.299 
	L 1129.606, 329.173 
	L 1130.315, 328.110 
	L 1131.024, 328.110 
	L 1133.150, 332.362 
	L 1133.858, 332.362 
	L 1133.858, 328.110 
" />
<path d="M 1134.567, 325.984 
	L 1134.567, 321.732 
" />
<path d="M 1130.315, 319.606 
	L 1129.606, 318.543 
	L 1129.606, 316.417 
	L 1130.315, 315.354 
	L 1131.024, 315.354 
	L 1133.150, 319.606 
	L 1133.858, 319.606 
	L 1133.858, 315.354 
" />
<path d="M 1133.150, 313.228 
	L 1133.858, 312.165 
	L 1133.858, 310.039 
	L 1133.150, 308.976 
	L 1130.315, 308.976 
	L 1129.606, 310.039 
	L 1129.606, 312.165 
	L 1130.315, 313.228 
	L 1133.150, 313.228 
" />
<path d="M 1133.858, 305.787 
	L 1133.858, 303.661 
" />
<path d="M 1133.858, 304.724 
	L 1129.606, 304.724 
	L 1130.315, 305.787 
" />
<path d="M 1133.858, 299.409 
	L 1133.858, 298.346 
	L 1132.441, 296.220 
	L 1130.315, 296.220 
	L 1129.606, 297.283 
	L 1129.606, 299.409 
	L 1130.315, 300.472 
	L 1131.024, 300.472 
	L 1131.732, 299.409 
	L 1131.732, 296.220 
" />
<path d="M 1134.567, 294.094 
	L 1134.567, 289.843 
" />
<path d="M 1133.858, 286.654 
	L 1133.858, 284.528 
" />
<path d="M 1133.858, 285.591 
	L 1129.606, 285.591 
	L 1130.315, 286.654 
" />
<path d="M 1129.606, 277.087 
	L 1129.606, 281.339 
	L 1131.024, 281.339 
	L 1131.024, 278.150 
	L 1131.732, 277.087 
	L 1133.150, 277.087 
	L 1133.858, 278.150 
	L 1133.858, 280.276 
	L 1133.150, 281.339 
" />
<path d="M 1130.315, 274.961 
	L 1129.606, 273.898 
	L 1129.606, 271.772 
	L 1130.315, 270.709 
	L 1131.024, 270.709 
	L 1133.150, 274.961 
	L 1133.858, 274.961 
	L 1133.858, 270.709 
" />
<path d="M 1129.606, 265.394 
	L 1131.732, 268.583 
	L 1132.441, 268.583 
	L 1132.441, 264.331 
" />
<path d="M 1131.732, 265.394 
	L 1133.858, 265.394 
" />
<path d="M 1130.315, 236.693 
	L 1129.606, 235.630 
	L 1129.606, 233.504 
	L 1130.315, 232.441 
	L 1131.024, 232.441 
	L 1133.150, 236.693 
	L 1133.858, 236.693 
	L 1133.858, 232.441 
" />
<path d="M 1133.150, 230.315 
	L 1133.858, 229.252 
	L 1133.858, 227.126 
	L 1133.150, 226.063 
	L 1130.315, 226.063 
	L 1129.606, 227.126 
	L 1129.606, 229.252 
	L 1130.315, 230.315 
	L 1133.150, 230.315 
" />
<path d="M 1133.858, 222.874 
	L 1133.858, 220.748 
" />
<path d="M 1133.858, 221.811 
	L 1129.606, 221.811 
	L 1130.315, 222.874 
" />
<path d="M 1133.858, 216.496 
	L 1133.858, 215.433 
	L 1132.441, 213.307 
	L 1130.315, 213.307 
	L 1129.606, 214.370 
	L 1129.606, 216.496 
	L 1130.315, 217.559 
	L 1131.024, 217.559 
	L 1131.732, 216.496 
	L 1131.732, 213.307 
" />
<path d="M 1131.732, 211.181 
	L 1131.732, 206.929 
" />
<path d="M 1133.150, 204.803 
	L 1133.858, 203.740 
	L 1133.858, 201.614 
	L 1133.150, 200.551 
	L 1130.315, 200.551 
	L 1129.606, 201.614 
	L 1129.606, 203.740 
	L 1130.315, 204.803 
	L 1133.150, 204.803 
" />
<path d="M 1129.606, 194.173 
	L 1129.606, 198.425 
	L 1131.024, 198.425 
	L 1131.024, 195.236 
	L 1131.732, 194.173 
	L 1133.150, 194.173 
	L 1133.858, 195.236 
	L 1133.858, 197.362 
	L 1133.150, 198.425 
" />
<path d="M 1131.732, 192.047 
	L 1131.732, 187.795 
" />
<path d="M 1133.150, 185.669 
	L 1133.858, 184.606 
	L 1133.858, 182.480 
	L 1133.150, 181.417 
	L 1130.315, 181.417 
	L 1129.606, 182.480 
	L 1129.606, 184.606 
	L 1130.315, 185.669 
	L 1133.150, 185.669 
" />
<path d="M 1130.315, 179.291 
	L 1129.606, 178.228 
	L 1129.606, 176.102 
	L 1130.315, 175.039 
	L 1131.024, 175.039 
	L 1133.150, 179.291 
	L 1133.858, 179.291 
	L 1133.858, 175.039 
" />
<path d="M 1133.858, 165.472 
	L 1133.858, 163.346 
" />
<path d="M 1133.858, 164.409 
	L 1129.606, 164.409 
	L 1130.315, 165.472 
" />
<path d="M 1129.606, 155.906 
	L 1129.606, 160.157 
	L 1131.024, 160.157 
	L 1131.024, 156.968 
	L 1131.732, 155.906 
	L 1133.150, 155.906 
	L 1133.858, 156.968 
	L 1133.858, 159.094 
	L 1133.150, 160.157 
" />
<path d="M 1131.732, 152.717 
	L 1131.024, 152.717 
	L 1131.024, 151.654 
	L 1131.732, 151.654 
	L 1131.732, 152.717 
" />
<path d="M 1133.150, 152.717 
	L 1133.150, 151.654 
	L 1133.858, 151.654 
	L 1133.858, 152.717 
	L 1133.150, 152.717 
" />
<path d="M 1130.315, 147.402 
	L 1129.606, 146.339 
	L 1129.606, 144.213 
	L 1130.315, 143.150 
	L 1131.024, 143.150 
	L 1133.150, 147.402 
	L 1133.858, 147.402 
	L 1133.858, 143.150 
" />
<path d="M 1129.606, 137.835 
	L 1131.732, 141.024 
	L 1132.441, 141.024 
	L 1132.441, 136.772 
" />
<path d="M 1131.732, 137.835 
	L 1133.858, 137.835 
" />
</g>
</svg>
