<?xml version='1.0' encoding='ascii'?>
<svg xmlns="http://www.w3.org/2000/svg" xmlns:inkscape="http://www.inkscape.org/namespaces/inkscape" height="1485" version="1.1" width="2100">
    <g id="fressstylelayer_LineSet" inkscape:groupmode="lineset" inkscape:label="fressstylelayer_LineSet">
        <g id="strokes" inkscape:groupmode="layer" inkscape:label="strokes">
            <path d=" M 1091.815, 225.224 1091.634, 215.225 1091.453, 205.227 1091.272, 195.229 1091.091, 185.230 1090.910, 175.232 1090.729, 165.234 1090.548, 155.235 1090.367, 145.237 1090.186, 135.239 1090.005, 125.240 1089.825, 115.242 1089.644, 105.243 1089.463, 95.245 1089.282, 85.247 1089.101, 75.248 1088.920, 65.250 1088.739, 55.252 1088.558, 45.253 1088.377, 35.255 1088.196, 25.257 1088.015, 15.258 1087.834, 5.260 1087.739, 0.000 " fill="none" stroke="rgb(157, 20, 170)" stroke-linecap="butt" stroke-linejoin="miter" stroke-opacity="1.0" stroke-width="3.0" />
            <path d=" M 1087.739, 0.000 1086.724, 9.949 1085.708, 19.897 1084.693, 29.845 1083.677, 39.794 1082.661, 49.742 1081.646, 59.690 1080.630, 69.638 1079.615, 79.587 1078.599, 89.535 1077.584, 99.483 1076.568, 109.432 1075.553, 119.380 1074.537, 129.328 1073.882, 135.747 1074.040, 145.746 1074.198, 155.745 1074.356, 165.744 1074.514, 175.742 1074.672, 185.741 1074.830, 195.740 1074.988, 205.739 1075.146, 215.737 1075.304, 225.736 1075.462, 235.735 1075.620, 245.734 1075.778, 255.732 1075.936, 265.731 1076.094, 275.730 1076.251, 285.729 1076.409, 295.727 1076.567, 305.726 1076.725, 315.725 1076.883, 325.724 1077.041, 335.722 1077.155, 342.908 1087.154, 343.012 1097.154, 343.116 1107.153, 343.221 1117.153, 343.325 1127.152, 343.429 1137.151, 343.534 1147.151, 343.638 1157.150, 343.742 1167.150, 343.847 1177.149, 343.951 1187.149, 344.056 1197.148, 344.160 1207.148, 344.264 1217.147, 344.369 1227.147, 344.473 1237.146, 344.577 1247.146, 344.682 1257.145, 344.786 1267.144, 344.891 1277.144, 344.995 1287.143, 345.099 1297.143, 345.204 1307.142, 345.308 1310.340, 345.341 1313.560, 335.874 1316.780, 326.406 1320.000, 316.939 1323.220, 307.472 1326.440, 298.004 1329.661, 288.537 1332.880, 279.070 1336.101, 269.602 1339.321, 260.135 1342.541, 250.667 1345.761, 241.200 1348.981, 231.733 1350.069, 228.534 1349.529, 218.548 1348.990, 208.563 1348.451, 198.578 1347.911, 188.592 1347.372, 178.607 1346.833, 168.621 1346.293, 158.636 1345.754, 148.650 1345.215, 138.665 1344.675, 128.679 1344.136, 118.694 1343.597, 108.708 1343.057, 98.723 1342.518, 88.738 1341.979, 78.752 1341.440, 68.767 1340.900, 58.781 1340.361, 48.796 1339.822, 38.810 1339.282, 28.825 1338.743, 18.839 1338.204, 8.854 1337.960, 4.345 1327.962, 4.172 1317.963, 3.998 1307.965, 3.824 1297.966, 3.651 1287.968, 3.477 1277.969, 3.304 1267.971, 3.130 1257.972, 2.956 1247.974, 2.783 1237.975, 2.609 1227.977, 2.436 1217.978, 2.262 1207.980, 2.088 1197.981, 1.915 1187.983, 1.741 1177.984, 1.567 1167.986, 1.394 1157.987, 1.220 1147.989, 1.047 1137.990, 0.873 1127.992, 0.699 1117.993, 0.526 1107.995, 0.352 1097.996, 0.178 1087.739, 0.000 " fill="none" stroke="rgb(157, 20, 170)" stroke-linecap="butt" stroke-linejoin="miter" stroke-opacity="1.0" stroke-width="3.0" />
            <path d=" M 1077.155, 342.908 1078.391, 332.984 1079.627, 323.061 1080.863, 313.138 1082.099, 303.214 1083.336, 293.291 1084.572, 283.368 1085.808, 273.444 1087.044, 263.521 1088.280, 253.598 1089.516, 243.675 1090.753, 233.751 1091.815, 225.224 1101.814, 225.352 1111.813, 225.480 1121.812, 225.608 1131.812, 225.736 1141.811, 225.865 1151.810, 225.993 1161.809, 226.121 1171.808, 226.249 1181.807, 226.377 1191.807, 226.505 1201.806, 226.634 1211.805, 226.762 1221.804, 226.890 1231.803, 227.018 1241.803, 227.146 1251.802, 227.274 1261.801, 227.402 1271.800, 227.531 1281.799, 227.659 1291.798, 227.787 1301.798, 227.915 1311.797, 228.043 1321.796, 228.171 1331.795, 228.300 1341.794, 228.428 1350.069, 228.534 " fill="none" stroke="rgb(157, 20, 170)" stroke-linecap="butt" stroke-linejoin="miter" stroke-opacity="1.0" stroke-width="3.0" />
            <path d=" M 700.110, 1198.623 699.790, 1208.618 699.469, 1218.613 699.149, 1228.608 698.828, 1238.603 698.508, 1248.598 698.187, 1258.593 697.867, 1268.587 697.546, 1278.582 697.226, 1288.577 696.905, 1298.572 696.585, 1308.567 696.264, 1318.562 695.944, 1328.557 695.623, 1338.552 695.302, 1348.546 694.982, 1358.541 694.661, 1368.536 694.341, 1378.531 694.020, 1388.526 693.700, 1398.521 693.379, 1408.516 693.059, 1418.510 692.738, 1428.505 692.418, 1438.500 692.097, 1448.495 691.777, 1458.490 691.456, 1468.485 691.136, 1478.480 690.927, 1485.000 700.926, 1484.875 710.925, 1484.750 720.924, 1484.624 730.924, 1484.499 740.923, 1484.374 750.922, 1484.249 760.921, 1484.123 770.920, 1483.998 780.920, 1483.873 790.919, 1483.748 800.918, 1483.622 810.917, 1483.497 820.917, 1483.372 830.916, 1483.247 840.915, 1483.121 850.914, 1482.996 860.913, 1482.871 870.913, 1482.746 880.912, 1482.620 890.911, 1482.495 900.910, 1482.370 910.909, 1482.244 920.909, 1482.119 930.908, 1481.994 940.907, 1481.869 950.906, 1481.743 960.906, 1481.618 973.207, 1481.464 973.194, 1471.464 973.180, 1461.464 973.167, 1451.464 973.153, 1441.464 973.140, 1431.464 973.126, 1421.464 973.112, 1411.464 973.099, 1401.464 973.085, 1391.464 973.072, 1381.464 973.058, 1371.464 973.045, 1361.464 973.031, 1351.464 973.018, 1341.464 973.004, 1331.464 972.990, 1321.464 972.977, 1311.464 972.963, 1301.464 972.950, 1291.464 972.936, 1281.464 972.923, 1271.464 972.909, 1261.464 972.896, 1251.464 972.882, 1241.464 972.869, 1231.464 972.855, 1221.464 972.841, 1211.464 972.828, 1201.464 972.822, 1196.772 962.822, 1196.840 952.822, 1196.908 942.822, 1196.975 932.822, 1197.043 922.823, 1197.111 912.823, 1197.179 902.823, 1197.247 892.823, 1197.315 882.824, 1197.383 872.824, 1197.451 862.824, 1197.519 852.824, 1197.587 842.825, 1197.654 832.825, 1197.722 822.825, 1197.790 812.825, 1197.858 802.825, 1197.926 792.826, 1197.994 782.826, 1198.062 772.826, 1198.130 762.826, 1198.198 752.827, 1198.266 742.827, 1198.333 732.827, 1198.401 722.827, 1198.469 712.828, 1198.537 700.110, 1198.623 " fill="none" stroke="rgb(157, 20, 170)" stroke-linecap="butt" stroke-linejoin="miter" stroke-opacity="1.0" stroke-width="3.0" />
        </g>
    </g>
    <g id="fressstylelayer_hidden lines" inkscape:groupmode="lineset" inkscape:label="fressstylelayer_hidden lines" xmlns:inkscape="http://www.inkscape.org/namespaces/inkscape">
        <g id="strokes" inkscape:groupmode="layer" inkscape:label="strokes" xmlns:inkscape="http://www.inkscape.org/namespaces/inkscape">
            <path d=" M 1073.882, 135.747 1083.881, 135.894 1093.880, 136.040 1103.879, 136.186 1113.878, 136.332 1123.877, 136.478 1133.876, 136.624 1143.875, 136.771 1153.873, 136.917 1163.872, 137.063 1173.871, 137.209 1183.870, 137.355 1193.869, 137.501 1203.868, 137.648 1213.867, 137.794 1223.866, 137.940 1233.865, 138.086 1243.864, 138.232 1253.863, 138.379 1263.862, 138.525 1273.861, 138.671 1283.859, 138.817 1293.859, 138.963 1300.499, 139.060 " fill="none" stroke="rgb(0, 119, 0)" stroke-dasharray="2,3,2,3,2,3" stroke-linecap="round" stroke-linejoin="miter" stroke-opacity="1.0" stroke-width="3.0" />
            <path d=" M 1337.960, 4.345 1335.281, 13.980 1332.602, 23.614 1329.923, 33.249 1327.244, 42.883 1324.564, 52.517 1321.885, 62.152 1319.206, 71.786 1316.527, 81.421 1313.848, 91.055 1311.169, 100.690 1308.490, 110.324 1305.811, 119.958 1303.131, 129.593 1300.499, 139.060 1300.975, 149.049 1301.452, 159.038 1301.928, 169.026 1302.405, 179.015 1302.882, 189.003 1303.358, 198.992 1303.835, 208.981 1304.311, 218.969 1304.788, 228.958 1305.264, 238.947 1305.741, 248.935 1306.217, 258.924 1306.694, 268.913 1307.171, 278.901 1307.647, 288.890 1308.124, 298.878 1308.600, 308.867 1309.077, 318.856 1309.553, 328.844 1310.030, 338.833 1310.340, 345.341 " fill="none" stroke="rgb(0, 119, 0)" stroke-dasharray="2,3,2,3,2,3" stroke-linecap="round" stroke-linejoin="miter" stroke-opacity="1.0" stroke-width="3.0" />
            <path d=" M 700.110, 1198.623 707.356, 1205.515 714.603, 1212.406 721.849, 1219.298 724.775, 1222.081 " fill="none" stroke="rgb(0, 119, 0)" stroke-dasharray="2,3,2,3,2,3" stroke-linecap="round" stroke-linejoin="miter" stroke-opacity="1.0" stroke-width="3.0" />
            <path d=" M 969.684, 1220.303 959.684, 1220.375 949.684, 1220.448 939.685, 1220.520 929.685, 1220.593 919.685, 1220.666 909.685, 1220.738 899.686, 1220.811 889.686, 1220.884 879.686, 1220.956 869.686, 1221.029 859.687, 1221.102 849.687, 1221.174 839.687, 1221.247 829.687, 1221.319 819.688, 1221.392 809.688, 1221.465 799.688, 1221.537 789.688, 1221.610 779.689, 1221.683 769.689, 1221.755 759.689, 1221.828 749.690, 1221.901 739.690, 1221.973 729.690, 1222.046 724.775, 1222.081 724.486, 1232.077 724.196, 1242.073 723.907, 1252.069 723.617, 1262.065 723.328, 1272.061 723.038, 1282.056 722.749, 1292.052 722.459, 1302.048 722.170, 1312.044 721.880, 1322.040 721.591, 1332.035 721.301, 1342.031 721.012, 1352.027 720.722, 1362.023 720.433, 1372.019 720.143, 1382.014 719.854, 1392.010 719.565, 1402.006 719.275, 1412.002 718.985, 1421.998 718.696, 1431.993 718.406, 1441.989 718.117, 1451.985 717.828, 1461.981 717.538, 1471.977 717.333, 1479.065 " fill="none" stroke="rgb(0, 119, 0)" stroke-dasharray="2,3,2,3,2,3" stroke-linecap="round" stroke-linejoin="miter" stroke-opacity="1.0" stroke-width="3.0" />
            <path d=" M 969.931, 1475.929 959.932, 1476.053 949.933, 1476.177 939.933, 1476.302 929.934, 1476.426 919.935, 1476.550 909.936, 1476.674 899.937, 1476.798 889.937, 1476.922 879.938, 1477.046 869.939, 1477.171 859.940, 1477.295 849.940, 1477.419 839.941, 1477.543 829.942, 1477.667 819.943, 1477.791 809.943, 1477.915 799.944, 1478.039 789.945, 1478.164 779.946, 1478.288 769.947, 1478.412 759.947, 1478.536 749.948, 1478.660 739.949, 1478.784 729.950, 1478.908 719.950, 1479.033 717.333, 1479.065 707.576, 1481.258 697.820, 1483.451 690.927, 1485.000 " fill="none" stroke="rgb(0, 119, 0)" stroke-dasharray="2,3,2,3,2,3" stroke-linecap="round" stroke-linejoin="miter" stroke-opacity="1.0" stroke-width="3.0" />
            <path d=" M 972.822, 1196.772 971.500, 1206.684 970.178, 1216.596 969.684, 1220.303 969.693, 1230.303 969.703, 1240.303 969.713, 1250.303 969.722, 1260.303 969.732, 1270.303 969.742, 1280.303 969.751, 1290.303 969.761, 1300.303 969.771, 1310.303 969.781, 1320.302 969.790, 1330.302 969.800, 1340.302 969.810, 1350.302 969.819, 1360.302 969.829, 1370.302 969.839, 1380.302 969.848, 1390.302 969.858, 1400.302 969.868, 1410.302 969.877, 1420.302 969.887, 1430.302 969.897, 1440.302 969.906, 1450.302 969.916, 1460.302 969.926, 1470.302 969.931, 1475.929 973.207, 1481.464 " fill="none" stroke="rgb(0, 119, 0)" stroke-dasharray="2,3,2,3,2,3" stroke-linecap="round" stroke-linejoin="miter" stroke-opacity="1.0" stroke-width="3.0" />
        </g>
    </g>
</svg>
