<?xml version='1.0' encoding='ascii'?>
<svg xmlns="http://www.w3.org/2000/svg" xmlns:inkscape="http://www.inkscape.org/namespaces/inkscape" height="1485" version="1.1" width="2100">
    <g id="fressstylelayer_LineSet" inkscape:groupmode="lineset" inkscape:label="fressstylelayer_LineSet">
        <g id="strokes" inkscape:groupmode="layer" inkscape:label="strokes">
            <path d=" M 1775.096, 40.979 1765.179, 39.695 1755.262, 38.412 1745.344, 37.128 1735.427, 35.845 1725.510, 34.561 1715.592, 33.278 1705.675, 31.994 1701.657, 31.474 " fill="none" stroke="rgb(157, 20, 170)" stroke-linecap="butt" stroke-linejoin="round" stroke-opacity="1.0" stroke-width="3.0" />
            <path d=" M 1903.145, 54.971 1904.732, 45.098 1906.319, 35.225 1907.907, 25.351 1909.494, 15.478 1910.957, 6.378 1901.022, 5.239 1891.088, 4.099 1881.153, 2.960 1871.218, 1.821 1861.283, 0.681 1851.348, -0.458 1841.413, -1.598 1831.478, -2.737 1821.543, -3.877 1811.609, -5.016 1801.674, -6.155 1791.739, -7.295 1781.804, -8.434 1771.869, -9.574 1761.934, -10.713 1751.999, -11.853 1742.065, -12.992 1732.130, -14.131 1722.195, -15.271 1712.260, -16.410 1707.577, -16.947 " fill="none" stroke="rgb(157, 20, 170)" stroke-linecap="butt" stroke-linejoin="round" stroke-opacity="1.0" stroke-width="3.0" />
            <path d=" M 1910.957, 6.378 1901.267, 8.846 1891.576, 11.314 1881.885, 13.782 1872.195, 16.250 1862.504, 18.718 1852.813, 21.186 1843.123, 23.654 1833.432, 26.122 1823.741, 28.590 1814.051, 31.058 1804.360, 33.526 1794.669, 35.994 1784.979, 38.462 1775.096, 40.979 1773.746, 50.887 1772.395, 60.796 1771.045, 70.704 1769.695, 80.613 1768.344, 90.521 1767.961, 93.331 " fill="none" stroke="rgb(157, 20, 170)" stroke-linecap="butt" stroke-linejoin="round" stroke-opacity="1.0" stroke-width="3.0" />
            <path d=" M 1503.698, 304.353 1504.591, 294.393 1505.382, 285.577 1506.276, 275.617 1507.169, 265.657 1508.063, 255.697 1508.957, 245.737 1509.850, 235.777 1510.744, 225.817 1511.637, 215.857 1512.531, 205.897 1513.425, 195.937 1514.318, 185.977 1515.212, 176.017 1516.105, 166.057 1516.999, 156.097 1517.892, 146.137 1518.786, 136.177 1519.680, 126.217 1520.573, 116.257 1521.467, 106.297 1522.360, 96.337 1523.254, 86.377 1524.148, 76.417 1525.041, 66.457 1525.935, 56.497 1526.828, 46.537 1527.722, 36.577 1528.616, 26.617 1529.509, 16.657 1530.533, 5.245 1531.427, -4.715 1532.320, -14.675 1533.214, -24.635 1534.107, -34.595 1535.001, -44.555 1535.085, -45.497 " fill="none" stroke="rgb(157, 20, 170)" stroke-linecap="butt" stroke-linejoin="round" stroke-opacity="1.0" stroke-width="3.0" />
            <path d=" M 1408.938, 283.062 1418.695, 285.254 1428.452, 287.446 1438.209, 289.638 1447.965, 291.831 1457.722, 294.023 1467.479, 296.215 1477.236, 298.407 1486.992, 300.600 1496.749, 302.792 1503.698, 304.353 1513.131, 301.035 1522.565, 297.717 1531.998, 294.399 1537.267, 292.546 1546.701, 289.228 1556.134, 285.910 1565.568, 282.592 1575.001, 279.274 1584.435, 275.956 1593.868, 272.639 1603.302, 269.321 1612.735, 266.003 1622.169, 262.685 1631.602, 259.367 1641.036, 256.049 1650.469, 252.731 1659.903, 249.413 1669.336, 246.095 1675.689, 243.861 1675.701, 243.764 1676.915, 233.837 1678.128, 223.911 1679.342, 213.985 1680.556, 204.059 1681.769, 194.133 1682.983, 184.207 1684.196, 174.281 1685.410, 164.355 1686.624, 154.429 1687.837, 144.503 1689.051, 134.577 1690.265, 124.651 1691.478, 114.724 1692.692, 104.798 1693.906, 94.872 1695.119, 84.946 1696.333, 75.020 1697.546, 65.094 1698.760, 55.168 1699.974, 45.242 1701.187, 35.316 1701.657, 31.474 1702.871, 21.548 1704.084, 11.622 1705.298, 1.696 1706.511, -8.230 1707.577, -16.947 " fill="none" stroke="rgb(157, 20, 170)" stroke-linecap="butt" stroke-linejoin="round" stroke-opacity="1.0" stroke-width="3.0" />
            <path d=" M 1174.616, 440.455 1174.870, 430.459 1175.123, 420.462 1175.376, 410.465 1175.629, 400.468 1175.882, 390.471 1176.135, 380.475 1176.388, 370.478 1176.642, 360.481 1176.895, 350.484 1177.148, 340.487 1177.401, 330.491 1177.654, 320.494 1177.907, 310.497 1178.161, 300.500 1178.414, 290.503 1178.667, 280.507 1178.920, 270.510 1179.173, 260.513 1179.426, 250.516 1179.680, 240.520 1179.933, 230.523 1180.186, 220.526 1180.439, 210.529 1180.692, 200.532 1180.945, 190.536 1181.198, 180.539 1181.511, 168.211 1181.764, 158.215 1182.017, 148.218 1182.270, 138.221 1182.523, 128.224 1182.776, 118.227 1183.030, 108.231 1183.283, 98.234 1183.536, 88.237 1183.789, 78.240 1184.042, 68.243 1184.296, 58.247 1184.549, 48.250 1184.722, 41.395 " fill="none" stroke="rgb(157, 20, 170)" stroke-linecap="butt" stroke-linejoin="round" stroke-opacity="1.0" stroke-width="3.0" />
            <path d=" M 909.503, 353.188 909.724, 361.098 919.304, 363.968 928.883, 366.837 938.462, 369.707 948.042, 372.577 957.621, 375.447 967.201, 378.317 976.780, 381.187 986.359, 384.056 995.939, 386.926 1005.518, 389.796 1015.097, 392.666 1024.677, 395.536 1034.256, 398.406 1043.835, 401.275 1053.415, 404.145 1062.994, 407.015 1072.573, 409.885 1082.153, 412.755 1091.732, 415.625 1101.312, 418.494 1110.891, 421.364 1120.470, 424.234 1130.050, 427.104 1139.629, 429.974 1149.208, 432.844 1158.788, 435.713 1168.367, 438.583 1174.616, 440.455 1184.024, 437.064 1193.431, 433.673 1202.839, 430.282 1212.246, 426.892 1221.654, 423.501 1231.061, 420.110 1240.469, 416.719 1249.876, 413.328 1259.284, 409.937 1268.692, 406.546 1278.099, 403.155 1287.507, 399.764 1296.914, 396.373 1306.322, 392.982 1315.729, 389.591 1325.137, 386.200 1334.544, 382.809 1343.952, 379.418 1353.359, 376.027 1362.767, 372.636 1372.174, 369.245 1381.582, 365.854 1390.989, 362.463 1400.397, 359.072 1403.649, 357.900 1404.354, 347.925 1405.059, 337.950 1405.764, 327.975 1406.469, 318.000 1407.174, 308.025 1407.879, 298.050 1408.584, 288.074 1408.938, 283.062 1409.643, 273.087 1410.348, 263.112 1411.053, 253.136 1411.759, 243.161 1412.464, 233.186 1413.169, 223.211 1413.874, 213.236 1414.579, 203.261 1414.974, 197.672 1415.679, 187.697 1416.384, 177.722 1417.089, 167.747 1417.794, 157.772 1418.499, 147.797 1419.204, 137.822 1419.909, 127.847 1420.614, 117.872 1421.319, 107.896 1422.024, 97.921 1422.729, 87.946 1423.435, 77.971 1424.140, 67.996 1424.845, 58.021 1425.550, 48.046 1426.255, 38.071 1426.960, 28.096 1427.665, 18.120 1428.370, 8.145 1429.075, -1.830 1429.306, -5.093 1419.482, -3.226 1409.657, -1.359 1399.833, 0.509 1390.009, 2.376 1380.185, 4.243 1370.361, 6.110 1360.537, 7.978 1350.713, 9.845 1347.108, 10.530 1337.284, 12.397 1327.460, 14.265 1317.636, 16.132 1307.812, 17.999 1297.987, 19.866 1288.163, 21.734 1278.339, 23.601 1268.515, 25.468 1258.691, 27.335 1253.342, 28.352 1243.518, 30.219 1233.694, 32.087 1223.870, 33.954 1214.045, 35.821 1204.221, 37.688 1194.397, 39.556 1184.722, 41.395 1174.843, 39.846 1164.964, 38.298 1155.084, 36.750 1145.205, 35.201 1135.325, 33.653 1125.446, 32.105 1115.566, 30.556 1105.687, 29.008 1095.808, 27.460 1085.928, 25.911 1076.049, 24.363 1066.169, 22.815 1056.290, 21.266 1046.411, 19.718 1039.368, 18.614 " fill="none" stroke="rgb(157, 20, 170)" stroke-linecap="butt" stroke-linejoin="round" stroke-opacity="1.0" stroke-width="3.0" />
            <path d=" M 2470.783, 91.839 2460.854, 90.649 2450.925, 89.459 2440.997, 88.269 2431.068, 87.078 2421.139, 85.888 2411.210, 84.698 2401.281, 83.508 2391.352, 82.318 2381.423, 81.127 2371.494, 79.937 2361.565, 78.747 2351.636, 77.557 2341.707, 76.367 2331.778, 75.176 2321.849, 73.986 2311.921, 72.796 2301.992, 71.606 2292.063, 70.416 2282.134, 69.225 2272.205, 68.035 2262.276, 66.845 2252.347, 65.655 2242.418, 64.464 2232.489, 63.274 2222.560, 62.084 2212.631, 60.894 2202.702, 59.704 2192.773, 58.513 2182.845, 57.323 2172.916, 56.133 2162.987, 54.943 2153.058, 53.753 2143.129, 52.562 2133.200, 51.372 2123.271, 50.182 2113.342, 48.992 2103.413, 47.802 2093.484, 46.611 2083.555, 45.421 2073.626, 44.231 2063.698, 43.041 2053.769, 41.850 2043.840, 40.660 2033.911, 39.470 2023.982, 38.280 2014.053, 37.090 2004.124, 35.899 1994.195, 34.709 1980.384, 33.054 1970.763, 35.783 1961.143, 38.513 1951.523, 41.243 1941.903, 43.973 1932.283, 46.703 1922.662, 49.433 1913.042, 52.162 1903.145, 54.971 1893.525, 57.701 1883.904, 60.431 1874.284, 63.161 1864.664, 65.890 1855.044, 68.620 1845.424, 71.350 1835.803, 74.080 1826.183, 76.810 1816.563, 79.540 1806.943, 82.269 1797.323, 84.999 1787.702, 87.729 1778.082, 90.459 1767.961, 93.331 1762.639, 94.841 1761.298, 104.751 1759.958, 114.660 1758.617, 124.570 1757.276, 134.480 1755.935, 144.389 1754.594, 154.299 1753.253, 164.209 1751.912, 174.118 1750.571, 184.028 1749.230, 193.938 1747.889, 203.847 1746.548, 213.757 1745.207, 223.667 1743.866, 233.577 1742.525, 243.486 1741.184, 253.396 1740.774, 256.431 1739.433, 266.341 1738.092, 276.250 1736.751, 286.160 1735.410, 296.070 1734.069, 305.979 1732.728, 315.889 1731.387, 325.799 1730.181, 334.713 1728.840, 344.623 1727.499, 354.532 1726.158, 364.442 1724.817, 374.352 1723.476, 384.261 1722.135, 394.171 1720.794, 404.081 1719.453, 413.990 1718.439, 421.482 " fill="none" stroke="rgb(157, 20, 170)" stroke-linecap="butt" stroke-linejoin="round" stroke-opacity="1.0" stroke-width="3.0" />
            <path d=" M 705.816, 412.262 705.122, 402.286 704.428, 392.311 703.734, 382.335 703.041, 372.359 702.347, 362.383 701.653, 352.407 700.959, 342.431 700.266, 332.455 699.572, 322.479 698.878, 312.503 698.184, 302.527 697.490, 292.552 696.797, 282.576 696.103, 272.600 695.409, 262.624 694.715, 252.648 694.021, 242.672 693.328, 232.696 692.634, 222.720 691.940, 212.744 691.246, 202.768 690.553, 192.792 689.859, 182.817 689.165, 172.841 688.471, 162.865 687.777, 152.889 687.084, 142.913 686.390, 132.937 685.696, 122.961 685.002, 112.985 684.361, 103.767 683.667, 93.791 682.974, 83.815 682.280, 73.839 681.586, 63.863 680.892, 53.887 680.198, 43.911 679.505, 33.935 678.811, 23.959 678.117, 13.984 677.423, 4.008 676.730, -5.968 676.036, -15.944 675.342, -25.920 674.648, -35.896 673.954, -45.872 673.261, -55.848 672.567, -65.824 671.873, -75.800 671.179, -85.776 670.401, -96.969 " fill="none" stroke="rgb(157, 20, 170)" stroke-linecap="butt" stroke-linejoin="round" stroke-opacity="1.0" stroke-width="3.0" />
            <path d=" M 487.189, 336.258 496.634, 339.541 506.080, 342.825 515.525, 346.109 524.971, 349.392 534.416, 352.676 543.862, 355.960 553.307, 359.244 562.753, 362.527 572.198, 365.811 581.644, 369.094 591.089, 372.378 600.535, 375.662 609.980, 378.946 619.426, 382.229 628.871, 385.513 638.317, 388.797 647.762, 392.080 657.208, 395.364 666.653, 398.648 676.099, 401.931 685.544, 405.215 694.990, 408.499 705.816, 412.262 715.420, 409.477 725.024, 406.692 734.628, 403.906 744.233, 401.121 753.837, 398.335 763.441, 395.550 773.045, 392.764 782.650, 389.979 792.254, 387.193 801.858, 384.408 811.462, 381.622 821.066, 378.837 830.671, 376.051 840.275, 373.266 849.879, 370.480 859.483, 367.695 869.088, 364.910 878.692, 362.124 888.296, 359.339 897.900, 356.553 909.503, 353.188 919.107, 350.403 928.711, 347.617 931.927, 346.685 932.312, 346.573 941.916, 343.787 951.520, 341.002 961.125, 338.217 970.729, 335.431 980.333, 332.646 989.937, 329.860 999.541, 327.075 1009.146, 324.289 1018.750, 321.504 1028.354, 318.718 1037.958, 315.933 1039.958, 315.353 1039.939, 305.353 1039.919, 295.353 1039.899, 285.353 1039.883, 277.442 1039.863, 267.442 1039.843, 257.442 1039.823, 247.442 1039.803, 237.442 1039.784, 227.442 1039.764, 217.442 1039.744, 207.442 1039.724, 197.442 1039.704, 187.442 1039.684, 177.442 1039.664, 167.442 1039.644, 157.442 1039.624, 147.442 1039.609, 139.545 1039.592, 131.395 1039.573, 121.395 1039.553, 111.395 1039.533, 101.395 1039.513, 91.395 1039.493, 81.395 1039.473, 71.395 1039.453, 61.395 1039.442, 55.937 1039.422, 45.937 1039.402, 35.937 1039.392, 30.468 1039.372, 20.468 1039.368, 18.614 1039.348, 8.614 1039.328, -1.386 1039.308, -11.386 1039.288, -21.386 1039.282, -24.569 " fill="none" stroke="rgb(157, 20, 170)" stroke-linecap="butt" stroke-linejoin="round" stroke-opacity="1.0" stroke-width="3.0" />
            <path d=" M 1744.771, 1284.057 1746.451, 1274.199 1748.131, 1264.341 1749.811, 1254.483 1751.490, 1244.626 1753.170, 1234.768 1754.850, 1224.910 1756.530, 1215.052 1758.210, 1205.194 1759.890, 1195.336 1761.569, 1185.478 1763.249, 1175.620 1764.929, 1165.762 1766.609, 1155.904 1768.289, 1146.046 1769.968, 1136.189 1771.648, 1126.331 1773.328, 1116.473 1775.008, 1106.615 1776.688, 1096.757 1778.367, 1086.899 1780.047, 1077.041 1781.727, 1067.183 1783.407, 1057.325 1785.087, 1047.467 1786.767, 1037.610 1788.446, 1027.752 1790.126, 1017.894 1791.806, 1008.036 1793.486, 998.178 1795.166, 988.320 1796.845, 978.462 1798.525, 968.604 1800.205, 958.746 1801.885, 948.888 1803.565, 939.031 1805.245, 929.173 1806.924, 919.315 1808.604, 909.457 1810.284, 899.599 1811.964, 889.741 1813.644, 879.883 1815.323, 870.025 1817.003, 860.167 1818.683, 850.309 1820.363, 840.452 1822.043, 830.594 1823.723, 820.736 1825.402, 810.878 1827.082, 801.020 1828.762, 791.162 1830.442, 781.304 1832.122, 771.446 1833.801, 761.588 1835.481, 751.730 1837.161, 741.872 1838.841, 732.015 1840.521, 722.157 1842.646, 709.685 " fill="none" stroke="rgb(157, 20, 170)" stroke-linecap="butt" stroke-linejoin="round" stroke-opacity="1.0" stroke-width="3.0" />
            <path d=" M 2125.123, 521.225 2116.804, 526.775 2108.486, 532.325 2100.167, 537.875 2091.849, 543.425 2083.530, 548.975 2075.212, 554.525 2066.893, 560.075 2058.574, 565.625 2050.256, 571.174 2041.937, 576.724 2033.619, 582.274 2025.300, 587.824 2016.982, 593.374 2008.663, 598.924 2000.344, 604.474 1992.026, 610.024 1983.707, 615.574 1975.389, 621.123 1967.070, 626.673 1958.752, 632.223 1949.920, 638.115 1949.021, 638.715 1940.702, 644.265 1932.384, 649.815 1924.065, 655.365 1915.746, 660.915 1907.428, 666.465 1899.109, 672.015 1890.791, 677.565 1882.472, 683.114 1874.154, 688.664 1865.835, 694.214 1857.516, 699.764 1849.198, 705.314 1842.646, 709.685 1833.120, 706.642 1823.594, 703.599 1814.069, 700.555 1804.543, 697.512 1795.017, 694.469 1785.492, 691.425 1775.966, 688.382 1766.440, 685.339 1756.915, 682.296 1747.389, 679.252 1737.864, 676.209 1728.338, 673.166 1718.812, 670.122 1709.286, 667.079 1699.761, 664.036 1690.235, 660.992 1680.709, 657.949 1671.184, 654.906 1661.658, 651.863 1652.132, 648.819 1642.607, 645.776 1633.081, 642.733 1623.555, 639.689 1614.030, 636.646 1604.504, 633.603 1594.979, 630.560 1585.453, 627.516 1575.927, 624.473 1566.401, 621.430 1556.876, 618.386 1547.350, 615.343 1537.824, 612.300 1528.299, 609.256 1518.773, 606.213 1509.247, 603.170 1499.722, 600.127 1490.196, 597.083 1480.670, 594.040 1471.145, 590.997 1461.619, 587.953 1452.094, 584.910 1442.568, 581.867 1433.042, 578.823 1423.516, 575.780 1413.991, 572.737 1404.465, 569.694 1394.939, 566.650 1385.414, 563.607 1375.888, 560.564 1366.362, 557.520 1356.837, 554.477 1347.311, 551.434 1337.785, 548.390 1328.260, 545.347 1318.734, 542.304 1309.208, 539.261 1299.683, 536.217 1290.157, 533.174 1280.631, 530.131 1273.855, 527.966 " fill="none" stroke="rgb(157, 20, 170)" stroke-linecap="butt" stroke-linejoin="round" stroke-opacity="1.0" stroke-width="3.0" />
            <path d=" M 2101.580, 515.451 2091.868, 513.069 2082.156, 510.687 2072.443, 508.305 2062.731, 505.923 2053.019, 503.541 2043.307, 501.159 2033.595, 498.777 2023.883, 496.395 2014.170, 494.013 2004.458, 491.631 1994.746, 489.249 1985.034, 486.867 1979.019, 485.392 1969.307, 483.010 1959.594, 480.628 1949.882, 478.246 1940.170, 475.864 1930.458, 473.482 1920.746, 471.100 1911.034, 468.718 1901.322, 466.336 1891.609, 463.954 1890.499, 463.682 1880.787, 461.300 1871.075, 458.918 1861.363, 456.536 1851.651, 454.154 1841.938, 451.772 1832.226, 449.390 1822.514, 447.008 1812.802, 444.625 1803.090, 442.244 1793.378, 439.862 1783.665, 437.479 1773.953, 435.098 1764.241, 432.715 1754.529, 430.333 1744.817, 427.952 1735.105, 425.569 1725.392, 423.188 1718.439, 421.482 1708.727, 419.100 1699.015, 416.718 1689.303, 414.336 1679.591, 411.954 1669.879, 409.572 1660.166, 407.190 1650.454, 404.808 1640.742, 402.426 1631.030, 400.044 1621.318, 397.662 1611.606, 395.280 1601.893, 392.898 1599.932, 392.417 1590.698, 396.256 1581.464, 400.094 1572.230, 403.933 1562.996, 407.771 1553.763, 411.610 1544.529, 415.448 1535.295, 419.287 1526.061, 423.125 1516.827, 426.964 1507.593, 430.802 1498.359, 434.641 1489.125, 438.479 1479.891, 442.318 1470.657, 446.156 1461.423, 449.995 1452.189, 453.833 1442.955, 457.672 1433.721, 461.510 1424.487, 465.349 1415.253, 469.187 1406.019, 473.026 1396.785, 476.864 1387.551, 480.703 1378.318, 484.541 1369.083, 488.380 1359.849, 492.218 1350.616, 496.057 1341.382, 499.895 1332.148, 503.734 1322.914, 507.572 1313.680, 511.411 1304.446, 515.249 1295.212, 519.088 1285.978, 522.926 1273.855, 527.966 1273.769, 529.812 " fill="none" stroke="rgb(157, 20, 170)" stroke-linecap="butt" stroke-linejoin="round" stroke-opacity="1.0" stroke-width="3.0" />
            <path d=" M 1602.850, 1213.245 1611.798, 1217.710 1620.746, 1222.174 1629.694, 1226.639 1638.642, 1231.104 1647.590, 1235.568 1656.538, 1240.033 1665.486, 1244.498 1674.434, 1248.962 1683.382, 1253.427 1692.330, 1257.891 1701.278, 1262.356 1710.226, 1266.821 1719.174, 1271.285 1728.122, 1275.750 1737.070, 1280.215 1744.771, 1284.057 1751.998, 1277.146 1759.226, 1270.234 1766.453, 1263.323 1773.680, 1256.412 1780.907, 1249.500 1788.135, 1242.589 1795.362, 1235.677 1802.589, 1228.766 1809.816, 1221.855 1817.044, 1214.943 1824.271, 1208.032 1831.498, 1201.121 1838.725, 1194.209 1845.953, 1187.298 1853.180, 1180.387 1860.407, 1173.475 1867.634, 1166.564 1874.861, 1159.652 1882.089, 1152.741 1889.316, 1145.830 1896.543, 1138.918 1903.770, 1132.007 1910.998, 1125.096 1918.225, 1118.184 1925.452, 1111.273 1932.679, 1104.361 1939.906, 1097.450 1947.134, 1090.539 1954.361, 1083.627 1961.588, 1076.716 1968.815, 1069.805 1976.043, 1062.893 1983.270, 1055.982 1990.497, 1049.070 1997.724, 1042.159 2004.952, 1035.248 2012.559, 1027.973 2014.728, 1018.211 2016.896, 1008.448 2019.065, 998.686 2021.233, 988.924 2023.401, 979.162 2025.570, 969.400 2027.738, 959.638 2029.907, 949.876 2032.075, 940.114 2034.244, 930.352 2036.412, 920.590 2038.581, 910.828 2040.749, 901.066 2042.917, 891.304 2045.086, 881.542 2047.254, 871.780 2049.423, 862.018 2051.591, 852.255 2053.760, 842.493 2055.928, 832.731 2058.097, 822.969 2060.265, 813.207 2062.434, 803.445 2064.602, 793.683 2066.771, 783.921 2068.939, 774.159 2071.107, 764.397 2073.276, 754.635 2075.444, 744.873 2077.613, 735.111 2079.781, 725.349 2081.857, 716.003 2084.026, 706.241 2086.194, 696.479 2088.363, 686.717 2089.942, 679.605 2092.111, 669.843 2094.279, 660.081 2096.448, 650.319 2098.616, 640.557 2100.784, 630.794 2102.953, 621.032 2105.121, 611.270 2107.290, 601.508 2109.458, 591.746 2111.627, 581.984 2112.046, 580.098 " fill="none" stroke="rgb(157, 20, 170)" stroke-linecap="butt" stroke-linejoin="round" stroke-opacity="1.0" stroke-width="3.0" />
            <path d=" M 5.626, 682.937 3.448, 673.177 1.269, 663.417 -0.910, 653.658 -3.089, 643.898 -5.267, 634.138 -7.446, 624.378 -9.625, 614.619 -11.803, 604.859 -13.982, 595.099 -16.161, 585.339 -18.340, 575.579 -20.518, 565.820 -22.697, 556.060 -24.876, 546.300 -27.055, 536.540 -29.233, 526.781 -31.412, 517.021 -33.591, 507.261 -35.769, 497.501 -37.948, 487.742 -40.127, 477.982 -42.306, 468.222 -44.484, 458.462 -46.663, 448.702 -48.842, 438.943 -51.021, 429.183 -53.199, 419.423 -55.548, 408.901 " fill="none" stroke="rgb(157, 20, 170)" stroke-linecap="butt" stroke-linejoin="round" stroke-opacity="1.0" stroke-width="3.0" />
            <path d=" M -220.743, 533.083 -212.404, 538.603 -204.066, 544.123 -195.727, 549.643 -187.389, 555.163 -179.050, 560.683 -170.712, 566.203 -162.374, 571.723 -154.035, 577.243 -145.697, 582.763 -137.358, 588.283 -129.020, 593.803 -120.681, 599.323 -112.343, 604.843 -104.004, 610.363 -95.666, 615.883 -87.327, 621.402 -78.989, 626.922 -70.651, 632.442 -62.312, 637.962 -53.974, 643.482 -45.635, 649.002 -37.297, 654.522 -28.958, 660.042 -20.620, 665.562 -12.281, 671.082 -3.943, 676.602 5.626, 682.937 15.180, 679.982 24.733, 677.026 34.286, 674.071 43.840, 671.116 53.393, 668.161 62.946, 665.206 72.500, 662.250 82.053, 659.295 91.607, 656.340 101.160, 653.385 110.713, 650.429 120.267, 647.474 129.820, 644.519 139.373, 641.564 148.927, 638.608 158.480, 635.653 168.033, 632.698 177.587, 629.743 187.140, 626.787 196.693, 623.832 206.247, 620.877 215.800, 617.922 225.353, 614.966 234.907, 612.011 244.460, 609.056 254.014, 606.101 263.567, 603.145 273.120, 600.190 282.674, 597.235 292.227, 594.280 301.780, 591.325 311.334, 588.369 320.887, 585.414 330.440, 582.459 339.994, 579.504 349.547, 576.548 359.100, 573.593 368.654, 570.638 378.207, 567.683 387.760, 564.727 397.314, 561.772 406.867, 558.817 416.421, 555.862 425.974, 552.906 435.527, 549.951 445.081, 546.996 454.634, 544.041 464.187, 541.085 473.741, 538.130 483.294, 535.175 492.847, 532.220 502.401, 529.264 508.591, 527.349 507.478, 517.412 506.365, 507.474 505.252, 497.536 504.139, 487.598 503.026, 477.660 501.913, 467.722 500.800, 457.784 499.687, 447.847 498.574, 437.909 497.461, 427.971 496.348, 418.033 495.235, 408.095 494.122, 398.157 493.009, 388.219 491.896, 378.281 490.783, 368.344 489.669, 358.406 488.556, 348.468 487.443, 338.530 487.189, 336.258 486.076, 326.320 484.963, 316.382 484.040, 308.144 482.927, 298.206 481.814, 288.268 480.701, 278.330 479.588, 268.393 478.475, 258.455 477.362, 248.517 476.249, 238.579 475.136, 228.641 474.023, 218.703 472.910, 208.766 471.796, 198.828 470.683, 188.890 469.570, 178.952 468.457, 169.014 467.344, 159.076 466.231, 149.138 465.118, 139.200 464.005, 129.263 462.892, 119.325 461.779, 109.387 460.666, 99.449 459.988, 93.393 458.875, 83.455 457.759, 73.495 456.646, 63.557 455.533, 53.620 454.420, 43.682 453.307, 33.744 452.194, 23.806 451.081, 13.868 449.968, 3.930 449.149, -3.375 " fill="none" stroke="rgb(157, 20, 170)" stroke-linecap="butt" stroke-linejoin="round" stroke-opacity="1.0" stroke-width="3.0" />
            <path d=" M 449.149, -3.375 439.232, -2.089 429.316, -0.803 419.399, 0.483 409.482, 1.769 399.240, 3.097 398.760, 3.160 388.843, 4.446 378.926, 5.732 369.010, 7.018 359.093, 8.304 349.176, 9.590 339.259, 10.876 329.342, 12.162 319.425, 13.448 309.508, 14.734 299.591, 16.020 289.674, 17.306 279.757, 18.592 269.840, 19.878 259.923, 21.164 250.006, 22.450 240.089, 23.736 230.172, 25.022 220.255, 26.308 210.338, 27.594 200.421, 28.880 190.504, 30.166 180.587, 31.452 170.670, 32.738 160.753, 34.024 150.836, 35.310 140.919, 36.596 131.002, 37.882 121.085, 39.168 111.168, 40.454 101.251, 41.740 91.335, 43.026 81.418, 44.312 71.501, 45.598 61.584, 46.884 51.667, 48.170 41.750, 49.456 31.833, 50.742 21.916, 52.028 11.999, 53.314 2.082, 54.600 -7.835, 55.886 -17.752, 57.172 -27.669, 58.458 -37.586, 59.744 -47.503, 61.030 -57.420, 62.316 -67.337, 63.602 -77.254, 64.888 -86.718, 66.115 " fill="none" stroke="rgb(157, 20, 170)" stroke-linecap="butt" stroke-linejoin="round" stroke-opacity="1.0" stroke-width="3.0" />
            <path d=" M 1098.636, 1757.561 1098.771, 1747.562 1098.906, 1737.563 1099.041, 1727.564 1099.176, 1717.565 1099.311, 1707.565 1099.446, 1697.566 1099.581, 1687.567 1099.716, 1677.568 1099.851, 1667.569 1099.986, 1657.570 1100.121, 1647.571 1100.255, 1637.572 1100.391, 1627.573 1100.525, 1617.574 1100.660, 1607.575 1100.795, 1597.575 1100.930, 1587.576 1101.065, 1577.577 1101.200, 1567.578 1101.335, 1557.579 1101.470, 1547.580 1101.605, 1537.581 1101.740, 1527.582 1101.875, 1517.583 1102.010, 1507.584 1102.145, 1497.585 1102.280, 1487.586 1102.415, 1477.586 1102.550, 1467.587 1102.685, 1457.588 1102.820, 1447.589 1102.954, 1437.590 1103.089, 1427.591 1103.224, 1417.592 1103.359, 1407.593 1103.494, 1397.594 1103.629, 1387.595 1103.764, 1377.596 1103.899, 1367.596 1104.034, 1357.597 1104.169, 1347.598 1104.304, 1337.599 1104.439, 1327.600 1104.574, 1317.601 1104.709, 1307.602 1104.844, 1297.603 1104.979, 1287.604 1105.114, 1277.605 1105.249, 1267.606 1105.384, 1257.606 1105.519, 1247.607 1105.653, 1237.608 1105.788, 1227.609 1105.923, 1217.610 1106.058, 1207.611 1106.193, 1197.612 1106.328, 1187.613 1106.463, 1177.614 1106.598, 1167.615 1106.733, 1157.616 1106.868, 1147.616 1107.003, 1137.617 1107.138, 1127.618 1107.273, 1117.619 1107.408, 1107.620 1107.543, 1097.621 1107.678, 1087.622 1107.813, 1077.623 1107.948, 1067.624 1108.083, 1057.625 1108.218, 1047.626 1108.352, 1037.626 1108.487, 1027.627 1108.622, 1017.628 1108.757, 1007.629 1108.892, 997.630 1109.030, 987.424 " fill="none" stroke="rgb(157, 20, 170)" stroke-linecap="butt" stroke-linejoin="round" stroke-opacity="1.0" stroke-width="3.0" />
            <path d=" M 1676.745, 658.816 1668.090, 663.825 1659.435, 668.835 1650.780, 673.844 1642.126, 678.854 1633.471, 683.864 1624.816, 688.873 1616.161, 693.883 1607.507, 698.892 1598.852, 703.902 1590.197, 708.912 1581.543, 713.921 1572.888, 718.931 1564.233, 723.940 1555.578, 728.950 1546.924, 733.959 1538.269, 738.969 1529.614, 743.979 1520.960, 748.988 1512.305, 753.998 1503.650, 759.007 1494.996, 764.017 1486.341, 769.027 1477.686, 774.036 1469.031, 779.046 1460.377, 784.055 1451.722, 789.065 1443.067, 794.074 1434.413, 799.084 1425.758, 804.094 1417.103, 809.103 1408.448, 814.113 1399.794, 819.122 1391.139, 824.132 1382.484, 829.142 1373.830, 834.151 1365.175, 839.161 1356.520, 844.170 1347.865, 849.180 1339.211, 854.189 1330.556, 859.199 1321.901, 864.209 1313.247, 869.218 1304.592, 874.228 1295.937, 879.237 1287.282, 884.247 1278.628, 889.257 1269.973, 894.266 1261.318, 899.276 1256.529, 902.048 1247.875, 907.057 1239.220, 912.067 1230.565, 917.076 1221.910, 922.086 1213.256, 927.096 1204.601, 932.105 1195.946, 937.115 1187.292, 942.124 1178.637, 947.134 1169.982, 952.144 1161.327, 957.153 1152.673, 962.163 1144.018, 967.172 1135.363, 972.182 1126.709, 977.191 1118.054, 982.201 1109.030, 987.424 1100.109, 982.906 1091.188, 978.388 1082.267, 973.870 1073.346, 969.351 1064.425, 964.833 1055.504, 960.315 1046.582, 955.797 1037.661, 951.279 1028.740, 946.760 1019.819, 942.242 1010.898, 937.724 1001.977, 933.206 993.056, 928.687 984.135, 924.169 975.214, 919.651 966.293, 915.133 957.372, 910.614 948.451, 906.096 939.529, 901.578 930.608, 897.060 921.687, 892.542 912.766, 888.023 903.845, 883.505 894.924, 878.987 886.003, 874.469 877.082, 869.950 868.161, 865.432 859.240, 860.914 850.319, 856.396 841.398, 851.878 832.477, 847.359 823.555, 842.841 814.634, 838.323 805.713, 833.805 796.792, 829.286 787.871, 824.768 778.950, 820.250 770.029, 815.732 761.108, 811.213 752.187, 806.695 743.266, 802.177 734.345, 797.659 725.424, 793.141 716.503, 788.622 707.582, 784.104 698.660, 779.586 689.739, 775.068 680.818, 770.549 671.897, 766.031 662.976, 761.513 654.055, 756.995 645.134, 752.476 636.213, 747.958 627.292, 743.440 618.371, 738.922 609.450, 734.404 600.529, 729.885 591.607, 725.367 582.686, 720.849 573.765, 716.331 564.844, 711.812 555.923, 707.294 547.002, 702.776 538.081, 698.258 529.160, 693.740 520.239, 689.221 511.318, 684.703 502.397, 680.185 493.476, 675.667 481.597, 669.651 " fill="none" stroke="rgb(157, 20, 170)" stroke-linecap="butt" stroke-linejoin="round" stroke-opacity="1.0" stroke-width="3.0" />
            <path d=" M 481.597, 669.651 482.800, 679.578 484.003, 689.505 485.206, 699.433 486.408, 709.360 487.611, 719.288 488.814, 729.215 490.017, 739.143 491.219, 749.070 492.422, 758.997 493.625, 768.925 494.827, 778.852 496.030, 788.780 497.233, 798.707 498.436, 808.634 499.638, 818.562 500.841, 828.489 502.044, 838.417 503.247, 848.344 504.449, 858.271 505.652, 868.199 506.855, 878.126 508.057, 888.054 509.260, 897.981 510.463, 907.908 511.666, 917.836 512.868, 927.763 514.071, 937.691 515.274, 947.618 516.477, 957.546 517.679, 967.473 518.882, 977.400 520.085, 987.328 521.287, 997.255 522.490, 1007.183 523.693, 1017.110 524.896, 1027.037 526.098, 1036.965 527.301, 1046.892 528.504, 1056.820 529.707, 1066.747 530.909, 1076.674 532.112, 1086.602 533.315, 1096.529 534.518, 1106.457 535.720, 1116.384 536.923, 1126.311 538.126, 1136.239 539.328, 1146.166 540.531, 1156.094 541.734, 1166.021 542.937, 1175.948 544.139, 1185.876 545.342, 1195.803 546.545, 1205.731 547.748, 1215.658 548.950, 1225.586 550.153, 1235.513 551.356, 1245.440 552.558, 1255.368 553.761, 1265.295 554.964, 1275.223 556.167, 1285.150 557.369, 1295.077 558.572, 1305.005 559.775, 1314.932 560.978, 1324.860 561.996, 1333.262 569.840, 1339.465 577.684, 1345.667 585.529, 1351.869 593.373, 1358.071 601.217, 1364.273 609.061, 1370.475 616.906, 1376.678 624.750, 1382.880 632.594, 1389.082 640.439, 1395.284 648.283, 1401.486 656.127, 1407.688 663.972, 1413.891 671.816, 1420.093 679.660, 1426.295 687.505, 1432.497 695.349, 1438.699 703.193, 1444.901 711.038, 1451.103 718.882, 1457.306 726.726, 1463.508 734.570, 1469.710 742.415, 1475.912 750.259, 1482.114 758.103, 1488.316 765.948, 1494.519 773.792, 1500.721 781.636, 1506.923 789.481, 1513.125 797.325, 1519.327 805.169, 1525.529 813.014, 1531.732 820.858, 1537.934 828.702, 1544.136 836.547, 1550.338 844.391, 1556.540 852.235, 1562.742 860.079, 1568.944 867.924, 1575.147 875.768, 1581.349 883.612, 1587.551 891.457, 1593.753 899.301, 1599.955 907.145, 1606.157 914.990, 1612.360 922.834, 1618.562 930.678, 1624.764 938.523, 1630.966 946.367, 1637.168 954.211, 1643.370 962.056, 1649.573 969.900, 1655.775 977.744, 1661.977 985.588, 1668.179 993.433, 1674.381 1001.277, 1680.583 1009.121, 1686.785 1016.966, 1692.988 1024.810, 1699.190 1032.654, 1705.392 1040.499, 1711.594 1048.343, 1717.796 1056.187, 1723.998 1064.032, 1730.201 1071.876, 1736.403 1079.720, 1742.605 1087.565, 1748.807 1098.636, 1757.561 1106.083, 1750.886 1113.529, 1744.212 1120.976, 1737.538 1128.423, 1730.863 1135.869, 1724.189 1143.316, 1717.514 1150.762, 1710.840 1158.209, 1704.165 1165.656, 1697.491 1173.102, 1690.817 1180.549, 1684.142 1187.995, 1677.468 1195.442, 1670.793 1202.889, 1664.119 1210.335, 1657.445 1217.782, 1650.770 1225.229, 1644.096 1232.675, 1637.421 1240.122, 1630.747 1247.568, 1624.072 1255.015, 1617.398 1262.462, 1610.724 1269.908, 1604.049 1277.355, 1597.375 1284.802, 1590.700 1292.248, 1584.026 1299.695, 1577.351 1307.141, 1570.677 1314.588, 1564.003 1322.035, 1557.328 1329.481, 1550.654 1336.928, 1543.979 1344.374, 1537.305 1351.821, 1530.630 1359.268, 1523.956 1366.714, 1517.282 1374.161, 1510.607 1381.607, 1503.933 1389.054, 1497.258 1396.501, 1490.584 1403.947, 1483.909 1411.394, 1477.235 1418.840, 1470.561 1426.287, 1463.886 1433.734, 1457.212 1441.180, 1450.537 1448.627, 1443.863 1456.073, 1437.188 1463.520, 1430.514 1470.967, 1423.840 1478.413, 1417.165 1485.860, 1410.491 1493.307, 1403.816 1500.753, 1397.142 1508.200, 1390.467 1515.646, 1383.793 1523.093, 1377.119 1530.540, 1370.444 1537.986, 1363.770 1545.433, 1357.095 1552.880, 1350.421 1560.326, 1343.746 1567.773, 1337.072 1575.219, 1330.398 1582.666, 1323.723 1588.866, 1318.166 1590.188, 1308.253 1591.509, 1298.341 1592.830, 1288.429 1594.151, 1278.516 1595.472, 1268.604 1596.793, 1258.692 1598.114, 1248.779 1599.435, 1238.867 1600.756, 1228.955 1602.078, 1219.042 1602.850, 1213.245 1604.171, 1203.333 1605.492, 1193.420 1606.814, 1183.508 1608.135, 1173.596 1609.456, 1163.683 1610.777, 1153.771 1612.098, 1143.859 1613.419, 1133.946 1614.740, 1124.034 1616.061, 1114.121 1617.383, 1104.209 1618.704, 1094.297 1620.025, 1084.384 1621.346, 1074.472 1622.667, 1064.560 1623.988, 1054.647 1625.309, 1044.735 1626.630, 1034.823 1627.951, 1024.910 1629.273, 1014.998 1630.594, 1005.086 1631.915, 995.173 1633.236, 985.261 1634.557, 975.349 1635.878, 965.436 1637.199, 955.524 1638.520, 945.612 1639.842, 935.699 1641.163, 925.787 1642.484, 915.875 1643.805, 905.962 1645.126, 896.050 1646.658, 884.552 1647.979, 874.640 1649.301, 864.728 1650.622, 854.815 1651.943, 844.903 1653.264, 834.991 1654.585, 825.078 1655.906, 815.166 1657.227, 805.254 1658.548, 795.341 1659.870, 785.429 1661.191, 775.516 1662.512, 765.604 1663.833, 755.692 1665.154, 745.779 1666.475, 735.867 1667.796, 725.955 1669.117, 716.042 1670.438, 706.130 1671.760, 696.218 1673.081, 686.305 1674.402, 676.393 1675.723, 666.481 1676.745, 658.816 1667.221, 655.767 1657.697, 652.718 1648.173, 649.669 1638.649, 646.620 1629.125, 643.571 1619.601, 640.522 1610.077, 637.474 1600.553, 634.425 1591.030, 631.376 1581.506, 628.327 1574.086, 625.952 1564.562, 622.903 1555.038, 619.854 1545.514, 616.805 1535.990, 613.756 1526.466, 610.707 1516.943, 607.658 1507.419, 604.609 1497.895, 601.561 1488.371, 598.512 1478.847, 595.463 1469.323, 592.414 1459.799, 589.365 1450.275, 586.316 1440.751, 583.267 1431.228, 580.219 1421.704, 577.170 1412.180, 574.121 1402.656, 571.072 1393.132, 568.023 1383.608, 564.974 1374.084, 561.925 1364.560, 558.876 1355.036, 555.828 1345.513, 552.779 1335.989, 549.730 1326.465, 546.681 1316.941, 543.632 1307.417, 540.583 1297.893, 537.534 1288.369, 534.485 1278.845, 531.437 1273.769, 529.812 1264.245, 526.763 1254.722, 523.714 1245.198, 520.665 1235.674, 517.616 1226.150, 514.567 1216.626, 511.518 1207.102, 508.469 1197.578, 505.421 1188.054, 502.372 1178.531, 499.323 1169.007, 496.274 1159.483, 493.225 1149.959, 490.176 1140.435, 487.127 1130.911, 484.078 1121.387, 481.030 1111.863, 477.981 1102.339, 474.932 1092.816, 471.883 1083.292, 468.834 1073.768, 465.785 1065.533, 463.149 1056.105, 466.483 1046.677, 469.817 1037.249, 473.151 1027.821, 476.485 1018.394, 479.819 1008.966, 483.153 999.538, 486.487 990.110, 489.821 980.682, 493.155 971.254, 496.489 961.827, 499.823 952.399, 503.157 942.971, 506.491 933.543, 509.826 924.115, 513.160 914.687, 516.494 905.260, 519.828 895.832, 523.162 886.404, 526.496 876.976, 529.830 867.548, 533.164 858.120, 536.498 848.693, 539.832 839.265, 543.166 829.837, 546.500 820.409, 549.834 810.981, 553.168 801.553, 556.502 792.125, 559.836 782.698, 563.170 773.270, 566.504 763.842, 569.838 754.414, 573.172 744.986, 576.506 735.558, 579.840 726.131, 583.174 716.703, 586.508 707.275, 589.843 697.847, 593.177 688.419, 596.511 678.991, 599.845 669.564, 603.179 660.136, 606.513 650.708, 609.847 641.280, 613.181 631.852, 616.515 622.424, 619.849 612.997, 623.183 603.569, 626.517 594.141, 629.851 584.713, 633.185 575.285, 636.519 565.857, 639.853 556.429, 643.187 547.002, 646.521 537.574, 649.855 528.146, 653.189 518.718, 656.523 509.290, 659.857 499.862, 663.191 490.435, 666.526 481.597, 669.651 " fill="none" stroke="rgb(157, 20, 170)" stroke-linecap="butt" stroke-linejoin="round" stroke-opacity="1.0" stroke-width="3.0" />
            <path d=" M 1537.267, 292.546 1547.036, 294.682 1556.806, 296.817 1566.575, 298.952 1576.344, 301.088 1586.114, 303.223 1595.883, 305.358 1605.652, 307.494 1615.422, 309.629 1625.191, 311.765 1634.961, 313.900 1644.730, 316.035 1654.499, 318.171 1664.269, 320.306 1674.038, 322.441 1683.807, 324.577 1693.577, 326.712 1703.346, 328.848 1713.115, 330.983 1722.885, 333.118 1730.181, 334.713 " fill="none" stroke="rgb(157, 20, 170)" stroke-linecap="butt" stroke-linejoin="round" stroke-opacity="1.0" stroke-width="3.0" />
            <path d=" M 2089.942, 679.605 2099.546, 682.391 2109.150, 685.178 2118.754, 687.965 2128.358, 690.751 2137.962, 693.538 2147.566, 696.325 2157.169, 699.111 2166.773, 701.898 2171.944, 703.398 " fill="none" stroke="rgb(157, 20, 170)" stroke-linecap="butt" stroke-linejoin="round" stroke-opacity="1.0" stroke-width="3.0" />
            <path d=" M 2235.713, 163.806 2225.818, 162.363 2215.922, 160.921 2206.027, 159.478 2196.132, 158.036 2186.236, 156.593 2176.341, 155.150 2166.445, 153.708 2156.550, 152.265 2146.655, 150.823 2136.759, 149.380 2126.864, 147.938 2116.968, 146.495 2107.073, 145.052 2097.177, 143.610 2087.282, 142.167 2077.387, 140.725 2067.491, 139.282 2057.596, 137.840 2047.700, 136.397 2037.805, 134.955 2027.910, 133.512 2018.014, 132.070 2008.119, 130.627 1998.223, 129.184 1988.328, 127.742 1978.433, 126.299 1968.537, 124.857 1958.642, 123.414 1948.746, 121.972 1938.851, 120.529 1928.956, 119.087 1919.060, 117.644 1909.165, 116.201 1899.269, 114.759 1893.663, 113.942 1883.768, 112.499 1873.873, 111.057 1863.977, 109.614 1854.082, 108.171 1844.186, 106.729 1834.291, 105.286 1824.396, 103.844 1814.500, 102.401 1804.605, 100.959 1794.709, 99.516 1784.814, 98.073 1774.919, 96.631 1765.023, 95.188 1762.639, 94.841 " fill="none" stroke="rgb(157, 20, 170)" stroke-linecap="butt" stroke-linejoin="round" stroke-opacity="1.0" stroke-width="3.0" />
            <path d=" M 2081.857, 716.003 2091.434, 718.882 2101.010, 721.760 2110.587, 724.639 2120.164, 727.518 2129.740, 730.396 2139.317, 733.275 2148.894, 736.154 2158.471, 739.033 2168.047, 741.911 2177.624, 744.790 2187.201, 747.669 2196.777, 750.547 2206.354, 753.426 2215.931, 756.305 2225.508, 759.184 2235.084, 762.062 2244.661, 764.941 2254.238, 767.820 2263.814, 770.698 2273.391, 773.577 2282.968, 776.456 2292.544, 779.335 2302.121, 782.213 2311.698, 785.092 2321.274, 787.971 2330.851, 790.849 2333.603, 791.677 " fill="none" stroke="rgb(157, 20, 170)" stroke-linecap="butt" stroke-linejoin="round" stroke-opacity="1.0" stroke-width="3.0" />
        </g>
    </g>
    <g id="fressstylelayer_hidden lines" inkscape:groupmode="lineset" inkscape:label="fressstylelayer_hidden lines">
        <g id="strokes" inkscape:groupmode="layer" inkscape:label="strokes">
            <path d=" M 1192.801, 170.492 1193.076, 160.496 1193.351, 150.500 1193.626, 140.504 1193.901, 130.507 1194.176, 120.511 1194.451, 110.515 1194.726, 100.519 1195.001, 90.522 1195.276, 80.526 1195.551, 70.530 1195.826, 60.534 1196.101, 50.538 1196.376, 40.541 1196.651, 30.545 1196.926, 20.549 1197.201, 10.553 1197.476, 0.557 1197.751, -9.440 1198.026, -19.436 1198.301, -29.432 1198.451, -34.873 " fill="none" stroke="rgb(0, 119, 0)" stroke-linecap="butt" stroke-linejoin="round" stroke-opacity="1.0" stroke-width="3.0" />
            <path d=" M 1019.173, -21.510 1019.231, -11.510 1019.288, -1.510 1019.345, 8.489 1019.385, 15.482 1019.442, 25.482 1019.453, 27.255 1019.510, 37.255 1019.567, 47.255 1019.624, 57.254 1019.638, 59.596 1019.695, 69.596 1019.752, 79.596 1019.810, 89.595 1019.867, 99.595 1019.924, 109.595 1019.981, 119.595 1020.039, 129.595 1020.073, 135.599 1029.875, 137.579 1039.609, 139.545 1049.411, 141.526 1059.213, 143.506 1069.015, 145.486 1078.817, 147.466 1088.619, 149.446 1098.421, 151.426 1108.223, 153.406 1111.716, 154.112 1121.518, 156.092 1131.320, 158.072 1141.122, 160.052 1145.273, 160.891 1155.075, 162.871 1164.877, 164.851 1174.679, 166.831 1181.511, 168.211 1191.313, 170.192 1192.801, 170.492 1202.510, 168.098 1212.220, 165.704 1221.929, 163.311 1231.638, 160.917 1241.347, 158.523 1248.445, 156.773 1258.155, 154.379 1267.864, 151.985 1277.573, 149.591 1287.282, 147.197 1296.991, 144.804 1306.701, 142.410 1316.410, 140.016 1326.119, 137.622 1335.828, 135.228 1340.245, 134.139 1340.799, 124.155 1341.353, 114.170 1341.908, 104.185 1342.462, 94.201 1343.016, 84.216 1343.571, 74.232 1344.125, 64.247 1344.680, 54.262 1345.234, 44.278 1345.789, 34.293 1346.343, 24.308 1346.897, 14.324 1347.108, 10.530 1347.662, 0.545 1348.217, -9.439 1348.554, -15.510 " fill="none" stroke="rgb(0, 119, 0)" stroke-linecap="butt" stroke-linejoin="round" stroke-opacity="1.0" stroke-width="3.0" />
            <path d=" M 1169.415, 103.434 1159.639, 105.539 1149.863, 107.645 1140.087, 109.750 1130.311, 111.856 1120.536, 113.961 1112.171, 115.763 1102.395, 117.868 1092.619, 119.974 1082.843, 122.079 1073.067, 124.185 1063.292, 126.291 1053.516, 128.396 1043.740, 130.502 1039.592, 131.395 1029.817, 133.500 1020.073, 135.599 " fill="none" stroke="rgb(0, 119, 0)" stroke-linecap="butt" stroke-linejoin="round" stroke-opacity="1.0" stroke-width="3.0" />
            <path d=" M 1340.245, 134.139 1330.402, 132.370 1320.560, 130.601 1310.718, 128.832 1300.875, 127.063 1291.033, 125.294 1281.191, 123.525 1271.349, 121.756 1261.506, 119.987 1251.664, 118.218 1249.927, 117.905 1240.085, 116.136 1230.243, 114.367 1220.401, 112.598 1210.558, 110.829 1200.716, 109.060 1190.874, 107.291 1181.031, 105.522 1171.189, 103.753 1169.415, 103.434 1169.642, 93.436 1169.869, 83.439 1170.096, 73.441 1170.323, 63.444 1170.550, 53.447 1170.777, 43.449 1171.004, 33.452 1171.231, 23.454 1171.458, 13.457 1171.685, 3.459 1171.912, -6.538 1172.139, -16.535 1172.366, -26.533 1172.594, -36.530 1172.631, -38.203 " fill="none" stroke="rgb(0, 119, 0)" stroke-linecap="butt" stroke-linejoin="round" stroke-opacity="1.0" stroke-width="3.0" />
            <path d=" M 1734.922, 335.750 1736.273, 325.841 1737.623, 315.933 1738.974, 306.024 1740.324, 296.116 1741.674, 286.207 1743.025, 276.299 1744.375, 266.391 1745.726, 256.482 1747.076, 246.574 1748.426, 236.665 1749.777, 226.757 1751.127, 216.849 1752.478, 206.940 1753.828, 197.032 1755.178, 187.123 1756.529, 177.215 1757.879, 167.307 1759.229, 157.398 1760.580, 147.490 1761.930, 137.581 1763.281, 127.673 1764.631, 117.765 1765.982, 107.856 1767.332, 97.948 1767.961, 93.331 " fill="none" stroke="rgb(0, 119, 0)" stroke-linecap="butt" stroke-linejoin="round" stroke-opacity="1.0" stroke-width="3.0" />
            <path d=" M 1663.447, -22.009 1653.651, -20.000 1643.854, -17.991 1634.058, -15.983 1624.262, -13.974 1614.466, -11.965 1604.670, -9.957 1594.874, -7.948 1585.077, -5.939 1575.281, -3.931 1565.485, -1.922 1555.689, 0.087 1545.893, 2.095 1536.097, 4.104 1530.533, 5.245 1520.737, 7.253 1518.332, 7.746 1517.461, 17.708 1516.589, 27.670 1515.718, 37.632 1514.846, 47.594 1513.975, 57.556 1513.104, 67.518 1512.232, 77.480 1511.360, 87.442 1510.489, 97.404 1509.618, 107.366 1508.746, 117.328 1507.875, 127.290 1507.003, 137.252 1506.132, 147.214 1505.260, 157.176 1504.389, 167.138 1503.517, 177.100 1502.646, 187.062 1501.774, 197.024 1500.903, 206.986 1500.658, 209.783 1499.786, 219.745 1498.915, 229.706 1498.044, 239.668 1497.172, 249.630 1496.301, 259.592 1495.429, 269.554 1494.558, 279.516 1494.240, 283.141 1504.010, 285.277 1505.382, 285.577 1515.152, 287.712 1524.921, 289.848 1534.690, 291.983 1537.267, 292.546 " fill="none" stroke="rgb(0, 119, 0)" stroke-linecap="butt" stroke-linejoin="round" stroke-opacity="1.0" stroke-width="3.0" />
            <path d=" M 1663.447, -22.009 1662.315, -12.073 1661.182, -2.137 1660.050, 7.798 1658.918, 17.734 1657.786, 27.670 1656.654, 37.606 1655.521, 47.541 1654.389, 57.477 1653.257, 67.413 1652.125, 77.348 1650.993, 87.284 1649.860, 97.220 1648.728, 107.155 1647.596, 117.091 1646.464, 127.027 1645.332, 136.963 1644.199, 146.898 1643.067, 156.834 1641.935, 166.770 1640.803, 176.705 1639.671, 186.641 1638.538, 196.577 1637.406, 206.512 1636.274, 216.448 1635.142, 226.384 1634.084, 235.662 " fill="none" stroke="rgb(0, 119, 0)" stroke-linecap="butt" stroke-linejoin="round" stroke-opacity="1.0" stroke-width="3.0" />
            <path d=" M 1866.809, 280.966 1856.994, 279.055 1847.178, 277.144 1837.362, 275.234 1827.546, 273.323 1817.731, 271.412 1807.915, 269.501 1798.099, 267.590 1788.283, 265.680 1778.468, 263.769 1768.652, 261.858 1758.836, 259.947 1749.020, 258.036 1740.774, 256.431 1730.958, 254.520 1721.142, 252.609 1711.326, 250.699 1701.511, 248.788 1691.695, 246.877 1681.879, 244.966 1675.701, 243.764 1665.885, 241.853 1656.070, 239.942 1646.254, 238.031 1636.438, 236.120 1634.084, 235.662 1624.615, 238.877 1615.146, 242.092 1605.677, 245.307 1596.208, 248.522 1586.739, 251.737 1577.270, 254.952 1567.801, 258.167 1558.331, 261.381 1548.862, 264.596 1539.393, 267.811 1529.924, 271.026 1520.455, 274.241 1510.986, 277.456 1501.517, 280.671 1494.240, 283.141 " fill="none" stroke="rgb(0, 119, 0)" stroke-linecap="butt" stroke-linejoin="round" stroke-opacity="1.0" stroke-width="3.0" />
            <path d=" M 1730.181, 334.713 1734.922, 335.750 1744.157, 331.913 1753.392, 328.077 1762.627, 324.241 1771.862, 320.405 1781.097, 316.569 1790.332, 312.733 1799.567, 308.897 1808.802, 305.061 1818.037, 301.225 1827.272, 297.389 1836.507, 293.553 1845.742, 289.717 1854.977, 285.881 1864.212, 282.045 1866.809, 280.966 1868.397, 271.093 1869.984, 261.220 1871.572, 251.346 1873.159, 241.473 1874.746, 231.600 1876.334, 221.727 1877.921, 211.854 1879.509, 201.980 1881.096, 192.107 1882.683, 182.234 1884.271, 172.361 1885.858, 162.488 1887.446, 152.614 1889.033, 142.741 1890.620, 132.868 1892.208, 122.995 1893.663, 113.942 1895.251, 104.068 1896.838, 94.195 1898.426, 84.322 1900.013, 74.449 1901.600, 64.576 1903.145, 54.971 " fill="none" stroke="rgb(0, 119, 0)" stroke-linecap="butt" stroke-linejoin="round" stroke-opacity="1.0" stroke-width="3.0" />
            <path d=" M 932.317, 346.798 932.312, 346.573 932.077, 336.576 931.843, 326.578 931.608, 316.581 931.373, 306.584 931.139, 296.587 930.904, 286.589 930.670, 276.592 930.435, 266.595 930.200, 256.598 929.966, 246.600 929.731, 236.603 929.496, 226.606 929.262, 216.609 929.027, 206.611 928.793, 196.614 928.558, 186.617 928.323, 176.620 928.089, 166.622 927.854, 156.625 927.619, 146.628 927.385, 136.631 927.150, 126.634 926.916, 116.636 926.681, 106.639 926.446, 96.642 926.212, 86.645 925.983, 76.901 " fill="none" stroke="rgb(0, 119, 0)" stroke-linecap="butt" stroke-linejoin="round" stroke-opacity="1.0" stroke-width="3.0" />
            <path d=" M 1113.041, 42.338 1103.207, 44.155 1093.374, 45.972 1083.540, 47.789 1073.707, 49.606 1063.873, 51.423 1054.040, 53.240 1044.206, 55.057 1039.442, 55.937 1029.609, 57.754 1019.638, 59.596 1009.804, 61.413 999.971, 63.230 990.137, 65.047 980.304, 66.864 970.470, 68.681 960.637, 70.498 950.803, 72.315 940.969, 74.131 931.136, 75.948 925.983, 76.901 916.153, 75.067 906.322, 73.234 901.624, 72.358 891.794, 70.525 881.963, 68.692 872.133, 66.858 862.302, 65.025 852.471, 63.192 842.641, 61.359 832.810, 59.525 822.980, 57.692 819.331, 57.012 809.500, 55.178 799.670, 53.345 789.839, 51.512 780.009, 49.679 770.178, 47.845 760.347, 46.012 750.517, 44.179 748.019, 43.713 " fill="none" stroke="rgb(0, 119, 0)" stroke-linecap="butt" stroke-linejoin="round" stroke-opacity="1.0" stroke-width="3.0" />
            <path d=" M 748.019, 43.713 748.586, 53.697 749.153, 63.681 749.263, 65.609 749.830, 75.593 750.396, 85.576 750.757, 91.917 751.324, 101.901 751.891, 111.885 752.458, 121.869 753.025, 131.853 753.591, 141.837 754.158, 151.821 754.725, 161.805 755.292, 171.788 755.859, 181.772 756.426, 191.756 756.993, 201.740 757.560, 211.724 758.127, 221.708 758.694, 231.692 759.261, 241.676 759.373, 243.640 759.940, 253.624 760.507, 263.608 761.074, 273.592 761.641, 283.575 762.208, 293.559 762.420, 297.297 772.021, 300.094 781.622, 302.891 791.222, 305.688 800.823, 308.486 810.424, 311.283 820.025, 314.080 829.625, 316.878 839.226, 319.675 848.827, 322.472 858.428, 325.270 868.029, 328.067 877.629, 330.864 887.230, 333.662 896.831, 336.459 906.432, 339.256 909.134, 340.044 918.735, 342.841 928.335, 345.638 931.927, 346.685 932.317, 346.798 941.921, 344.012 951.525, 341.226 961.129, 338.440 970.733, 335.653 980.337, 332.867 989.941, 330.081 999.545, 327.295 1009.149, 324.508 1018.753, 321.722 1028.357, 318.936 1037.961, 316.150 1047.565, 313.363 1057.169, 310.577 1066.773, 307.791 1076.377, 305.005 1085.981, 302.218 1095.585, 299.432 1105.189, 296.646 1110.043, 295.238 1110.162, 285.238 1110.281, 275.239 1110.399, 265.240 1110.518, 255.240 1110.636, 245.241 1110.755, 235.242 1110.873, 225.243 1110.992, 215.243 1111.110, 205.244 1111.229, 195.245 1111.347, 185.245 1111.466, 175.246 1111.584, 165.247 1111.716, 154.112 1111.835, 144.113 1111.953, 134.113 1112.072, 124.114 1112.171, 115.763 1112.289, 105.764 1112.408, 95.764 1112.526, 85.765 1112.645, 75.766 1112.763, 65.766 1112.882, 55.767 1113.000, 45.768 1113.041, 42.338 1103.168, 40.747 1093.296, 39.156 1083.423, 37.565 1073.550, 35.974 1063.678, 34.382 1053.805, 32.791 1043.933, 31.200 1039.392, 30.468 1029.519, 28.877 1019.453, 27.255 1009.580, 25.664 999.707, 24.073 989.835, 22.482 979.962, 20.891 970.090, 19.299 960.217, 17.708 950.344, 16.117 940.472, 14.526 935.003, 13.645 925.130, 15.232 915.257, 16.820 905.383, 18.408 900.134, 19.252 890.261, 20.839 880.388, 22.427 870.515, 24.015 860.642, 25.603 850.768, 27.190 840.895, 28.778 831.022, 30.366 821.149, 31.953 818.261, 32.418 808.388, 34.005 798.515, 35.593 788.642, 37.181 778.768, 38.768 768.895, 40.356 759.022, 41.944 755.163, 42.564 748.019, 43.713 " fill="none" stroke="rgb(0, 119, 0)" stroke-linecap="butt" stroke-linejoin="round" stroke-opacity="1.0" stroke-width="3.0" />
            <path d=" M 935.003, 13.645 935.218, 23.642 935.433, 33.640 935.648, 43.638 935.863, 53.635 936.078, 63.633 936.293, 73.631 936.508, 83.628 936.723, 93.626 936.938, 103.624 937.153, 113.622 937.368, 123.619 937.583, 133.617 937.798, 143.615 938.013, 153.612 938.228, 163.610 938.443, 173.608 938.658, 183.605 938.873, 193.603 939.088, 203.601 939.303, 213.598 939.518, 223.596 939.733, 233.594 939.948, 243.591 940.132, 252.141 " fill="none" stroke="rgb(0, 119, 0)" stroke-linecap="butt" stroke-linejoin="round" stroke-opacity="1.0" stroke-width="3.0" />
            <path d=" M 1110.043, 295.238 1100.350, 292.779 1090.657, 290.320 1080.964, 287.862 1071.271, 285.403 1061.578, 282.945 1051.885, 280.486 1042.192, 278.027 1039.883, 277.442 1030.190, 274.983 1020.497, 272.525 1010.804, 270.066 1001.111, 267.608 991.418, 265.149 981.725, 262.690 972.032, 260.232 962.339, 257.773 952.646, 255.315 942.953, 252.856 940.132, 252.141 930.440, 254.603 920.747, 257.066 911.055, 259.529 906.905, 260.583 897.213, 263.046 887.521, 265.509 877.829, 267.972 868.137, 270.434 858.445, 272.897 848.753, 275.360 839.061, 277.822 829.369, 280.285 819.677, 282.748 809.984, 285.211 800.292, 287.673 790.600, 290.136 780.909, 292.599 771.216, 295.061 762.420, 297.297 " fill="none" stroke="rgb(0, 119, 0)" stroke-linecap="butt" stroke-linejoin="round" stroke-opacity="1.0" stroke-width="3.0" />
            <path d=" M 1255.472, -27.517 1255.091, -17.525 1254.710, -7.532 1254.329, 2.461 1253.948, 12.454 1253.567, 22.446 1253.342, 28.352 1252.961, 38.345 1252.580, 48.338 1252.199, 58.330 1251.818, 68.323 1251.437, 78.316 1251.056, 88.309 1250.675, 98.301 1250.294, 108.294 1249.927, 117.905 1249.546, 127.898 1249.165, 137.891 1248.784, 147.884 1248.445, 156.773 1248.064, 166.766 1247.683, 176.758 1247.302, 186.751 1246.921, 196.744 1246.540, 206.737 1246.159, 216.729 1245.778, 226.722 1245.397, 236.715 1245.034, 246.234 1254.791, 248.427 1264.548, 250.619 1274.304, 252.811 1284.061, 255.003 1293.818, 257.196 1303.575, 259.388 1313.331, 261.580 1323.088, 263.772 1332.845, 265.964 1342.602, 268.157 1352.358, 270.349 1362.115, 272.541 1371.872, 274.733 1381.629, 276.926 1391.385, 279.118 1401.142, 281.310 1408.938, 283.062 " fill="none" stroke="rgb(0, 119, 0)" stroke-linecap="butt" stroke-linejoin="round" stroke-opacity="1.0" stroke-width="3.0" />
            <path d=" M 1446.140, -103.718 1445.417, -93.744 1444.694, -83.770 1443.971, -73.796 1443.248, -63.823 1442.525, -53.849 1441.802, -43.875 1441.079, -33.901 1440.356, -23.927 1439.634, -13.953 1438.911, -3.980 1438.188, 5.994 1437.465, 15.968 1436.742, 25.942 1436.019, 35.916 1435.296, 45.890 1434.573, 55.863 1433.850, 65.837 1433.127, 75.811 1432.404, 85.785 1431.681, 95.759 1430.958, 105.733 1430.235, 115.706 1429.512, 125.680 1428.789, 135.654 1428.066, 145.628 1427.343, 155.602 1426.620, 165.576 1425.897, 175.549 1425.174, 185.523 1424.491, 194.953 " fill="none" stroke="rgb(0, 119, 0)" stroke-linecap="butt" stroke-linejoin="round" stroke-opacity="1.0" stroke-width="3.0" />
            <path d=" M 1675.689, 243.861 1665.874, 241.950 1656.058, 240.038 1646.242, 238.127 1636.426, 236.216 1626.611, 234.305 1616.795, 232.394 1606.979, 230.483 1597.164, 228.572 1587.348, 226.661 1577.532, 224.750 1567.717, 222.839 1557.901, 220.928 1548.085, 219.016 1538.270, 217.105 1528.454, 215.194 1518.638, 213.283 1508.823, 211.372 1500.658, 209.783 1490.842, 207.871 1481.027, 205.960 1471.211, 204.049 1461.395, 202.138 1451.580, 200.227 1441.764, 198.316 1431.948, 196.405 1424.491, 194.953 1414.974, 197.672 1405.359, 200.420 1395.744, 203.168 1386.128, 205.915 1376.513, 208.663 1366.898, 211.411 1357.283, 214.158 1347.668, 216.906 1338.053, 219.653 1328.438, 222.401 1318.823, 225.149 1309.207, 227.896 1299.592, 230.644 1289.977, 233.391 1280.362, 236.139 1270.747, 238.887 1261.132, 241.634 1251.517, 244.382 1245.034, 246.234 " fill="none" stroke="rgb(0, 119, 0)" stroke-linecap="butt" stroke-linejoin="round" stroke-opacity="1.0" stroke-width="3.0" />
            <path d=" M 2160.203, 245.307 2151.186, 249.630 2142.169, 253.954 2133.152, 258.277 2124.135, 262.600 2115.117, 266.924 2106.100, 271.247 2097.083, 275.571 2088.066, 279.894 2079.049, 284.218 2070.032, 288.541 2061.015, 292.864 2051.998, 297.188 2042.981, 301.511 2033.964, 305.834 2024.946, 310.158 2015.929, 314.481 2011.146, 316.775 2009.274, 326.598 2007.403, 336.421 2005.531, 346.245 2003.659, 356.068 2001.788, 365.891 1999.916, 375.714 1998.044, 385.538 1996.173, 395.361 1994.301, 405.184 1992.429, 415.008 1990.558, 424.831 1988.686, 434.654 1986.814, 444.477 1984.943, 454.301 1983.071, 464.124 1981.368, 473.065 1979.496, 482.888 1979.019, 485.392 1977.147, 495.215 1975.275, 505.038 1973.404, 514.862 1971.532, 524.685 1969.661, 534.508 1967.789, 544.332 1965.917, 554.155 1964.046, 563.978 1962.174, 573.801 1960.302, 583.625 1958.431, 593.448 1956.559, 603.271 1954.687, 613.095 1952.816, 622.918 1950.944, 632.741 1949.920, 638.115 1949.765, 638.931 1947.893, 648.754 1946.021, 658.578 1944.150, 668.401 1943.031, 674.272 1952.608, 677.151 1962.184, 680.030 1971.761, 682.908 1981.338, 685.787 1990.914, 688.666 2000.491, 691.545 2010.068, 694.423 2019.644, 697.302 2029.221, 700.181 2038.798, 703.059 2048.375, 705.938 2057.951, 708.817 2067.528, 711.696 2077.104, 714.574 2081.857, 716.003 " fill="none" stroke="rgb(0, 119, 0)" stroke-linecap="butt" stroke-linejoin="round" stroke-opacity="1.0" stroke-width="3.0" />
            <path d=" M 2088.868, 574.028 2080.627, 579.693 2072.386, 585.358 2064.145, 591.022 2055.905, 596.687 2047.664, 602.351 2039.423, 608.016 2031.182, 613.680 2022.941, 619.345 2014.700, 625.009 2006.459, 630.674 1998.218, 636.338 1989.977, 642.003 1981.183, 648.048 1972.942, 653.712 1964.701, 659.377 1956.460, 665.041 1948.220, 670.706 1943.031, 674.272 " fill="none" stroke="rgb(0, 119, 0)" stroke-linecap="butt" stroke-linejoin="round" stroke-opacity="1.0" stroke-width="3.0" />
            <path d=" M 581.644, 122.098 580.753, 112.138 579.863, 102.178 578.973, 92.217 578.082, 82.257 577.192, 72.297 576.301, 62.337 575.411, 52.376 574.521, 42.416 573.630, 32.456 572.740, 22.495 571.849, 12.535 570.959, 2.575 570.069, -7.385 569.178, -17.346 568.288, -27.306 567.397, -37.266 566.507, -47.226 565.617, -57.187 564.726, -67.147 563.836, -77.107 562.945, -87.068 562.055, -97.028 561.165, -106.988 560.274, -116.948 559.384, -126.909 558.493, -136.869 557.603, -146.829 557.347, -149.692 " fill="none" stroke="rgb(0, 119, 0)" stroke-linecap="butt" stroke-linejoin="round" stroke-opacity="1.0" stroke-width="3.0" />
            <path d=" M 396.752, -13.364 397.959, -3.437 398.760, 3.160 399.967, 13.087 401.174, 23.014 402.380, 32.940 403.587, 42.867 404.793, 52.794 406.000, 62.721 407.206, 72.648 408.244, 81.183 408.738, 81.300 418.471, 83.596 428.204, 85.893 437.936, 88.189 447.669, 90.486 457.402, 92.782 459.988, 93.393 469.720, 95.689 479.453, 97.986 489.186, 100.282 498.918, 102.579 508.651, 104.875 518.384, 107.172 528.117, 109.468 537.849, 111.765 547.582, 114.061 557.315, 116.358 567.048, 118.654 576.780, 120.951 581.644, 122.098 591.488, 120.341 601.333, 118.584 611.177, 116.828 621.022, 115.071 630.866, 113.314 640.710, 111.557 650.555, 109.800 660.399, 108.043 670.244, 106.286 680.088, 104.529 684.361, 103.767 694.206, 102.010 704.050, 100.253 713.895, 98.496 723.739, 96.739 733.583, 94.982 743.428, 93.225 750.757, 91.917 757.829, 90.655 767.673, 88.898 777.518, 87.141 787.362, 85.384 797.207, 83.627 807.051, 81.870 816.896, 80.114 820.309, 79.504 819.874, 69.514 819.440, 59.523 819.331, 57.012 818.896, 47.021 818.462, 37.031 818.261, 32.418 817.827, 22.427 817.392, 12.437 816.958, 2.446 816.523, -7.545 816.089, -17.535 815.654, -27.526 815.220, -37.516 814.785, -47.507 814.351, -57.497 813.917, -67.488 813.482, -77.478 813.048, -87.469 812.613, -97.459 812.179, -107.450 811.977, -112.087 " fill="none" stroke="rgb(0, 119, 0)" stroke-linecap="butt" stroke-linejoin="round" stroke-opacity="1.0" stroke-width="3.0" />
            <path d=" M 642.740, 44.774 632.859, 46.308 622.977, 47.843 613.095, 49.377 603.214, 50.911 593.332, 52.445 583.451, 53.980 573.569, 55.514 563.687, 57.048 553.806, 58.583 543.924, 60.117 534.043, 61.651 524.161, 63.185 514.279, 64.720 504.398, 66.254 494.516, 67.788 484.635, 69.322 474.753, 70.857 464.871, 72.391 457.759, 73.495 447.877, 75.030 437.996, 76.564 428.114, 78.098 418.233, 79.632 408.715, 81.110 408.244, 81.183 " fill="none" stroke="rgb(0, 119, 0)" stroke-linecap="butt" stroke-linejoin="round" stroke-opacity="1.0" stroke-width="3.0" />
            <path d=" M 820.309, 79.504 810.495, 77.585 800.681, 75.665 790.867, 73.746 781.053, 71.826 771.239, 69.907 761.425, 67.987 751.611, 66.068 749.263, 65.609 739.448, 63.689 729.634, 61.770 719.820, 59.850 710.006, 57.931 700.192, 56.011 690.378, 54.091 680.564, 52.172 670.750, 50.252 660.936, 48.333 651.122, 46.413 642.740, 44.774 641.976, 34.803 641.213, 24.832 640.449, 14.862 639.685, 4.891 638.921, -5.080 638.158, -15.051 637.394, -25.021 636.630, -34.992 635.866, -44.963 635.102, -54.934 634.339, -64.905 633.575, -74.875 632.811, -84.846 632.047, -94.817 631.283, -104.788 630.520, -114.759 629.756, -124.729 628.992, -134.700 628.228, -144.671 627.389, -155.632 " fill="none" stroke="rgb(0, 119, 0)" stroke-linecap="butt" stroke-linejoin="round" stroke-opacity="1.0" stroke-width="3.0" />
            <path d=" M 899.501, -3.306 899.782, 6.690 900.062, 16.686 900.134, 19.252 900.415, 29.248 900.695, 39.244 900.976, 49.240 901.256, 59.236 901.536, 69.232 901.624, 72.358 901.905, 82.354 902.185, 92.350 902.465, 102.346 902.746, 112.342 903.026, 122.338 903.307, 132.334 903.587, 142.330 903.868, 152.327 904.148, 162.323 904.428, 172.319 904.709, 182.315 904.989, 192.311 905.270, 202.307 905.550, 212.303 905.831, 222.299 906.111, 232.295 906.391, 242.291 906.672, 252.287 906.905, 260.583 907.185, 270.579 907.445, 279.861 907.726, 289.857 908.006, 299.853 908.287, 309.849 908.567, 319.845 908.848, 329.841 909.134, 340.044 909.414, 350.040 909.503, 353.188 " fill="none" stroke="rgb(0, 119, 0)" stroke-linecap="butt" stroke-linejoin="round" stroke-opacity="1.0" stroke-width="3.0" />
            <path d=" M 1148.977, -41.255 1148.793, -31.257 1148.610, -21.258 1148.427, -11.260 1148.244, -1.262 1148.061, 8.737 1147.877, 18.735 1147.694, 28.733 1147.511, 38.732 1147.328, 48.730 1147.145, 58.728 1146.962, 68.727 1146.778, 78.725 1146.595, 88.723 1146.412, 98.722 1146.229, 108.720 1146.046, 118.718 1145.863, 128.717 1145.679, 138.715 1145.496, 148.713 1145.313, 158.712 1145.273, 160.891 1145.090, 170.889 1144.907, 180.888 1144.724, 190.886 1144.540, 200.884 1144.357, 210.883 1144.174, 220.881 1143.991, 230.879 1143.808, 240.878 1143.625, 250.876 1143.441, 260.874 1143.258, 270.872 1143.075, 280.871 1142.892, 290.869 1142.857, 292.767 " fill="none" stroke="rgb(0, 119, 0)" stroke-linecap="butt" stroke-linejoin="round" stroke-opacity="1.0" stroke-width="3.0" />
            <path d=" M 1403.649, 357.900 1393.947, 355.477 1384.245, 353.054 1374.543, 350.631 1364.841, 348.208 1355.139, 345.785 1345.437, 343.362 1335.735, 340.939 1326.033, 338.516 1316.331, 336.093 1306.629, 333.669 1296.927, 331.246 1287.225, 328.823 1277.523, 326.400 1267.821, 323.977 1258.119, 321.554 1248.417, 319.131 1238.715, 316.708 1229.013, 314.285 1219.311, 311.862 1209.609, 309.439 1199.907, 307.016 1190.205, 304.592 1180.503, 302.169 1170.801, 299.746 1161.099, 297.323 1151.397, 294.900 1142.857, 292.767 1133.261, 295.580 1123.665, 298.393 1114.068, 301.205 1104.472, 304.018 1094.876, 306.830 1085.279, 309.643 1075.683, 312.456 1066.087, 315.268 1056.490, 318.081 1046.894, 320.894 1037.298, 323.706 1027.701, 326.519 1018.105, 329.332 1008.509, 332.144 998.913, 334.957 989.316, 337.770 979.720, 340.582 970.124, 343.395 960.527, 346.208 950.931, 349.020 941.335, 351.833 931.738, 354.646 922.142, 357.458 912.546, 360.271 909.724, 361.098 " fill="none" stroke="rgb(0, 119, 0)" stroke-linecap="butt" stroke-linejoin="round" stroke-opacity="1.0" stroke-width="3.0" />
            <path d=" M 1718.439, 421.482 1717.098, 431.392 1715.757, 441.302 1714.417, 451.211 1713.075, 461.121 1711.734, 471.031 1710.394, 480.940 1709.053, 490.850 1707.712, 500.760 1706.371, 510.669 1705.030, 520.579 1703.689, 530.489 1702.348, 540.398 1701.007, 550.308 1699.666, 560.218 1698.866, 566.131 1708.470, 568.918 1718.074, 571.704 1727.677, 574.491 1737.281, 577.278 1746.885, 580.064 1756.489, 582.851 1766.093, 585.638 1775.697, 588.424 1785.301, 591.211 1794.905, 593.997 1804.509, 596.784 1814.112, 599.571 1823.716, 602.357 1833.320, 605.144 1842.924, 607.931 1852.528, 610.717 1862.132, 613.504 1871.736, 616.291 1881.340, 619.077 1890.944, 621.864 1900.547, 624.650 1910.151, 627.437 1919.755, 630.224 1929.359, 633.010 1938.963, 635.797 1949.021, 638.715 1949.765, 638.931 1959.368, 641.718 1968.972, 644.504 1978.576, 647.291 1981.183, 648.048 1990.787, 650.834 2000.391, 653.621 2009.995, 656.407 2019.599, 659.194 2029.203, 661.981 2038.807, 664.767 2048.410, 667.554 2058.014, 670.341 2067.618, 673.127 2077.222, 675.914 2086.826, 678.701 2089.942, 679.605 " fill="none" stroke="rgb(0, 119, 0)" stroke-linecap="butt" stroke-linejoin="round" stroke-opacity="1.0" stroke-width="3.0" />
            <path d=" M 1980.384, 33.054 1978.663, 42.905 1976.943, 52.755 1975.223, 62.606 1973.503, 72.457 1971.783, 82.308 1970.063, 92.159 1968.343, 102.010 1966.623, 111.861 1964.903, 121.712 1963.182, 131.563 1961.462, 141.414 1959.742, 151.265 1958.022, 161.116 1956.302, 170.967 1954.582, 180.818 1952.862, 190.669 1951.142, 200.520 1949.422, 210.371 1947.701, 220.222 1945.981, 230.073 1944.261, 239.923 1942.541, 249.774 1940.821, 259.625 1939.101, 269.476 1937.381, 279.327 1935.661, 289.178 1933.941, 299.029 1932.220, 308.880 1930.500, 318.731 1928.780, 328.582 1927.060, 338.433 1925.340, 348.284 1923.620, 358.135 1921.900, 367.986 1920.180, 377.837 1918.460, 387.688 1916.740, 397.539 1915.019, 407.390 1913.299, 417.241 1911.579, 427.092 1909.859, 436.943 1908.139, 446.793 1906.703, 455.019 " fill="none" stroke="rgb(0, 119, 0)" stroke-linecap="butt" stroke-linejoin="round" stroke-opacity="1.0" stroke-width="3.0" />
            <path d=" M 2344.341, 560.791 2334.621, 558.441 2324.901, 556.092 2315.181, 553.743 2305.461, 551.394 2295.741, 549.044 2286.021, 546.695 2276.300, 544.346 2266.580, 541.997 2256.860, 539.648 2247.140, 537.298 2237.420, 534.949 2227.700, 532.600 2217.979, 530.251 2208.259, 527.901 2198.539, 525.552 2188.819, 523.203 2179.099, 520.854 2169.379, 518.504 2159.659, 516.155 2149.938, 513.806 2140.219, 511.457 2130.498, 509.108 2120.778, 506.758 2111.058, 504.409 2101.338, 502.060 2091.618, 499.711 2081.897, 497.361 2072.177, 495.012 2062.457, 492.663 2052.737, 490.314 2043.017, 487.964 2033.297, 485.615 2023.577, 483.266 2013.857, 480.917 2004.136, 478.568 1994.416, 476.218 1981.368, 473.065 1971.647, 470.715 1961.927, 468.366 1952.207, 466.017 1942.487, 463.668 1932.767, 461.318 1923.047, 458.969 1913.327, 456.620 1906.703, 455.019 1897.884, 459.734 1890.499, 463.682 1881.680, 468.396 1872.862, 473.111 1864.043, 477.826 1855.224, 482.540 1846.405, 487.255 1837.586, 491.970 1828.767, 496.684 1819.948, 501.399 1811.130, 506.114 1802.311, 510.828 1793.492, 515.543 1784.673, 520.257 1775.854, 524.972 1767.035, 529.687 1758.217, 534.401 1749.398, 539.116 1740.579, 543.831 1731.760, 548.545 1722.941, 553.260 1714.122, 557.975 1705.303, 562.689 1698.866, 566.131 " fill="none" stroke="rgb(0, 119, 0)" stroke-linecap="butt" stroke-linejoin="round" stroke-opacity="1.0" stroke-width="3.0" />
            <path d=" M 187.934, 517.442 186.181, 507.597 184.429, 497.751 182.677, 487.906 180.925, 478.061 179.173, 468.216 177.421, 458.370 175.668, 448.525 173.916, 438.680 172.164, 428.834 170.412, 418.989 168.660, 409.144 166.907, 399.298 165.155, 389.453 163.403, 379.608 161.651, 369.763 159.899, 359.917 158.147, 350.072 156.394, 340.227 154.642, 330.381 152.890, 320.536 151.138, 310.691 149.386, 300.845 147.633, 291.000 145.881, 281.155 144.129, 271.310 142.377, 261.464 140.625, 251.619 138.872, 241.774 137.120, 231.928 135.368, 222.083 133.616, 212.238 131.864, 202.393 130.112, 192.547 128.359, 182.702 126.733, 173.562 " fill="none" stroke="rgb(0, 119, 0)" stroke-linecap="butt" stroke-linejoin="round" stroke-opacity="1.0" stroke-width="3.0" />
            <path d=" M 442.602, 119.969 432.743, 121.641 422.884, 123.314 414.023, 124.818 404.164, 126.490 394.305, 128.163 384.446, 129.836 374.587, 131.509 364.728, 133.182 354.869, 134.854 345.010, 136.527 335.151, 138.200 325.292, 139.873 315.432, 141.546 305.573, 143.219 295.714, 144.891 285.855, 146.564 275.996, 148.237 266.137, 149.910 256.278, 151.583 246.419, 153.255 236.560, 154.928 226.701, 156.601 216.841, 158.274 206.982, 159.946 197.123, 161.619 187.264, 163.292 177.405, 164.965 167.546, 166.638 157.687, 168.310 147.828, 169.983 137.969, 171.656 126.733, 173.562 117.226, 170.460 107.720, 167.357 98.213, 164.255 88.707, 161.152 79.200, 158.050 69.694, 154.947 60.187, 151.844 50.681, 148.742 41.174, 145.639 31.668, 142.537 22.161, 139.434 12.654, 136.331 3.148, 133.229 -6.359, 130.126 -15.865, 127.024 -25.372, 123.921 -31.089, 122.055 " fill="none" stroke="rgb(0, 119, 0)" stroke-linecap="butt" stroke-linejoin="round" stroke-opacity="1.0" stroke-width="3.0" />
            <path d=" M -31.089, 122.055 -29.069, 131.849 -27.048, 141.642 -25.027, 151.436 -23.006, 161.230 -20.985, 171.023 -18.964, 180.817 -16.943, 190.611 -14.922, 200.404 -12.902, 210.198 -10.881, 219.992 -8.860, 229.785 -6.839, 239.579 -4.818, 249.373 -2.797, 259.167 -0.776, 268.960 1.245, 278.754 3.265, 288.547 5.286, 298.341 7.307, 308.135 9.328, 317.928 11.349, 327.722 13.370, 337.516 15.391, 347.310 17.412, 357.103 19.432, 366.897 21.453, 376.691 23.474, 386.484 25.495, 396.278 27.516, 406.072 29.537, 415.865 31.558, 425.659 33.579, 435.453 34.525, 440.039 43.453, 444.544 52.381, 449.048 61.309, 453.553 70.237, 458.058 73.130, 459.517 82.058, 464.022 90.985, 468.526 99.913, 473.031 108.841, 477.536 117.769, 482.040 126.697, 486.545 135.625, 491.050 144.553, 495.554 153.481, 500.059 162.409, 504.563 171.337, 509.068 180.265, 513.573 187.934, 517.442 197.572, 514.777 207.211, 512.113 216.849, 509.448 226.488, 506.784 236.126, 504.119 245.764, 501.454 255.403, 498.790 265.041, 496.125 274.680, 493.461 284.318, 490.796 293.957, 488.131 303.595, 485.467 313.234, 482.802 322.872, 480.138 332.511, 477.473 342.149, 474.808 351.788, 472.144 361.426, 469.479 369.778, 467.170 379.417, 464.505 389.055, 461.841 398.694, 459.176 408.332, 456.512 417.971, 453.847 427.609, 451.182 437.248, 448.518 446.886, 445.853 456.525, 443.189 466.163, 440.524 475.802, 437.859 479.329, 436.884 478.177, 426.951 477.026, 417.017 475.875, 407.084 474.724, 397.150 473.573, 387.217 472.422, 377.283 471.270, 367.350 470.119, 357.416 468.968, 347.483 467.817, 337.549 466.848, 329.186 465.697, 319.253 464.928, 312.622 463.777, 302.688 462.626, 292.755 461.475, 282.821 460.324, 272.887 459.172, 262.954 458.021, 253.021 456.870, 243.087 455.719, 233.153 454.568, 223.220 453.417, 213.286 452.265, 203.353 451.114, 193.419 449.963, 183.486 448.812, 173.552 447.661, 163.619 446.510, 153.685 445.358, 143.752 444.207, 133.818 443.056, 123.885 442.602, 119.969 432.903, 117.536 423.203, 115.104 413.503, 112.672 412.518, 112.425 402.819, 109.993 393.119, 107.560 383.419, 105.128 373.719, 102.696 364.020, 100.263 354.320, 97.831 344.620, 95.399 334.921, 92.966 325.221, 90.534 315.521, 88.102 305.822, 85.670 296.122, 83.237 286.422, 80.805 276.723, 78.373 272.377, 77.283 262.485, 78.743 252.592, 80.202 242.699, 81.662 232.806, 83.121 222.913, 84.581 213.020, 86.040 203.127, 87.500 197.129, 88.385 187.236, 89.844 177.344, 91.304 167.451, 92.763 157.558, 94.223 147.665, 95.683 137.772, 97.142 127.879, 98.602 117.986, 100.061 108.093, 101.521 98.200, 102.980 88.307, 104.440 78.414, 105.899 68.522, 107.359 58.629, 108.818 48.736, 110.278 38.843, 111.738 28.950, 113.197 19.057, 114.657 9.164, 116.116 -0.729, 117.576 -10.622, 119.035 -20.515, 120.495 -31.089, 122.055 " fill="none" stroke="rgb(0, 119, 0)" stroke-linecap="butt" stroke-linejoin="round" stroke-opacity="1.0" stroke-width="3.0" />
            <path d=" M 272.377, 77.283 273.833, 87.177 275.289, 97.070 276.745, 106.964 278.201, 116.857 279.657, 126.750 281.113, 136.644 282.569, 146.537 284.025, 156.431 285.481, 166.324 286.937, 176.218 288.393, 186.111 289.849, 196.004 291.305, 205.898 292.761, 215.791 294.217, 225.685 295.673, 235.578 297.129, 245.472 298.585, 255.365 300.041, 265.258 301.497, 275.152 302.953, 285.045 304.409, 294.939 305.865, 304.832 307.321, 314.726 308.777, 324.619 310.233, 334.513 311.689, 344.406 313.145, 354.299 314.601, 364.193 315.750, 372.001 " fill="none" stroke="rgb(0, 119, 0)" stroke-linecap="butt" stroke-linejoin="round" stroke-opacity="1.0" stroke-width="3.0" />
            <path d=" M 479.329, 436.884 470.033, 433.197 460.738, 429.510 451.442, 425.823 442.147, 422.136 432.851, 418.449 423.556, 414.762 414.260, 411.075 404.965, 407.388 395.669, 403.701 386.374, 400.014 377.078, 396.327 367.783, 392.640 358.488, 388.953 349.192, 385.266 339.897, 381.579 330.601, 377.891 321.306, 374.204 315.750, 372.001 306.030, 374.352 296.311, 376.704 286.591, 379.055 276.871, 381.407 267.152, 383.758 257.432, 386.110 247.713, 388.461 237.993, 390.813 228.274, 393.164 218.554, 395.516 208.834, 397.867 199.115, 400.219 189.395, 402.570 179.676, 404.922 169.956, 407.273 160.236, 409.625 150.517, 411.977 140.797, 414.328 131.078, 416.680 121.358, 419.031 111.639, 421.383 101.919, 423.734 92.199, 426.086 82.480, 428.437 72.760, 430.789 63.041, 433.140 53.321, 435.492 43.601, 437.843 34.525, 440.039 " fill="none" stroke="rgb(0, 119, 0)" stroke-linecap="butt" stroke-linejoin="round" stroke-opacity="1.0" stroke-width="3.0" />
            <path d=" M 397.253, -13.268 398.458, -3.341 399.240, 3.097 400.446, 13.024 401.652, 22.952 402.857, 32.879 404.063, 42.806 405.269, 52.733 406.474, 62.660 407.680, 72.587 408.715, 81.110 408.738, 81.300 409.944, 91.227 411.149, 101.154 412.355, 111.081 412.518, 112.425 413.724, 122.352 414.023, 124.818 415.229, 134.745 416.435, 144.672 417.640, 154.599 418.846, 164.526 420.052, 174.453 421.257, 184.380 422.463, 194.307 423.669, 204.234 424.874, 214.161 426.080, 224.088 427.286, 234.015 428.491, 243.942 429.697, 253.869 430.903, 263.797 432.108, 273.724 433.314, 283.651 434.520, 293.578 435.725, 303.505 436.931, 313.432 437.610, 319.022 447.055, 322.305 456.501, 325.589 465.946, 328.873 466.848, 329.186 476.293, 332.470 485.739, 335.754 487.189, 336.258 " fill="none" stroke="rgb(0, 119, 0)" stroke-linecap="butt" stroke-linejoin="round" stroke-opacity="1.0" stroke-width="3.0" />
            <path d=" M 743.630, -165.490 744.183, -155.505 744.737, -145.521 745.290, -135.536 745.844, -125.552 746.397, -115.567 746.951, -105.582 747.504, -95.598 748.058, -85.613 748.611, -75.628 749.165, -65.643 749.718, -55.659 750.272, -45.674 750.825, -35.689 751.379, -25.705 751.932, -15.720 752.486, -5.735 753.039, 4.249 753.593, 14.234 754.146, 24.219 754.700, 34.203 755.163, 42.564 755.717, 52.549 756.270, 62.534 756.824, 72.518 757.377, 82.503 757.829, 90.655 758.382, 100.640 758.936, 110.624 759.489, 120.609 760.043, 130.594 760.596, 140.578 761.150, 150.563 761.703, 160.548 762.257, 170.532 762.810, 180.517 763.364, 190.502 763.917, 200.486 764.471, 210.471 765.024, 220.456 765.578, 230.440 766.131, 240.425 766.221, 242.036 " fill="none" stroke="rgb(0, 119, 0)" stroke-linecap="butt" stroke-linejoin="round" stroke-opacity="1.0" stroke-width="3.0" />
            <path d=" M 1039.958, 315.353 1030.299, 312.766 1020.639, 310.178 1010.980, 307.591 1001.320, 305.004 991.661, 302.417 982.001, 299.830 972.342, 297.242 962.682, 294.655 953.023, 292.068 943.363, 289.481 933.704, 286.894 924.044, 284.307 914.385, 281.719 907.445, 279.861 897.786, 277.274 888.126, 274.686 878.467, 272.099 868.807, 269.512 859.148, 266.925 849.488, 264.338 839.829, 261.751 830.169, 259.163 820.510, 256.576 810.850, 253.989 801.191, 251.402 791.531, 248.815 781.872, 246.227 772.212, 243.640 766.221, 242.036 759.373, 243.640 749.636, 245.921 739.900, 248.202 730.164, 250.483 720.427, 252.764 710.691, 255.045 700.955, 257.326 691.218, 259.607 681.482, 261.888 671.745, 264.169 662.009, 266.450 652.273, 268.731 642.536, 271.012 632.800, 273.293 623.064, 275.574 613.327, 277.855 603.591, 280.136 593.854, 282.417 584.118, 284.698 574.382, 286.979 564.645, 289.260 554.909, 291.541 545.173, 293.822 535.436, 296.103 525.700, 298.384 515.963, 300.665 506.227, 302.946 496.491, 305.227 484.040, 308.144 474.304, 310.425 464.928, 312.622 455.192, 314.903 445.455, 317.184 437.610, 319.022 " fill="none" stroke="rgb(0, 119, 0)" stroke-linecap="butt" stroke-linejoin="round" stroke-opacity="1.0" stroke-width="3.0" />
            <path d=" M 1273.769, 529.812 1273.307, 539.801 1272.844, 549.790 1272.381, 559.779 1271.919, 569.769 1271.456, 579.758 1270.993, 589.747 1270.531, 599.737 1270.068, 609.726 1269.605, 619.715 1269.143, 629.704 1268.680, 639.694 1268.218, 649.683 1267.755, 659.672 1267.292, 669.662 1266.830, 679.651 1266.367, 689.640 1265.904, 699.630 1265.442, 709.619 1264.979, 719.608 1264.516, 729.597 1264.054, 739.587 1263.591, 749.576 1263.128, 759.565 1262.666, 769.555 1262.203, 779.544 1261.740, 789.533 1261.278, 799.522 1260.815, 809.512 1260.352, 819.501 1259.890, 829.490 1259.427, 839.480 1258.964, 849.469 1258.502, 859.458 1258.039, 869.447 1257.577, 879.437 1257.114, 889.426 1256.529, 902.048 1256.067, 912.037 1255.604, 922.026 1255.141, 932.016 1254.679, 942.005 1254.216, 951.994 1253.753, 961.983 1253.291, 971.973 1252.828, 981.962 1252.365, 991.951 1251.903, 1001.941 1251.440, 1011.930 1250.977, 1021.919 1250.515, 1031.908 1250.264, 1037.320 1259.212, 1041.785 1268.160, 1046.250 1277.108, 1050.714 1286.056, 1055.179 1295.004, 1059.644 1303.952, 1064.108 1312.900, 1068.573 1321.848, 1073.038 1330.796, 1077.502 1339.744, 1081.967 1348.692, 1086.432 1357.640, 1090.896 1366.588, 1095.361 1375.536, 1099.826 1384.484, 1104.290 1393.432, 1108.755 1402.380, 1113.219 1411.328, 1117.684 1420.276, 1122.149 1429.224, 1126.613 1438.172, 1131.078 1447.120, 1135.543 1456.068, 1140.007 1465.016, 1144.472 1473.964, 1148.937 1482.912, 1153.401 1491.860, 1157.866 1500.808, 1162.331 1509.756, 1166.795 1518.704, 1171.260 1527.652, 1175.725 1536.600, 1180.189 1545.548, 1184.654 1554.496, 1189.119 1563.444, 1193.583 1572.392, 1198.048 1581.340, 1202.513 1590.288, 1206.977 1599.236, 1211.442 1602.850, 1213.245 " fill="none" stroke="rgb(0, 119, 0)" stroke-linecap="butt" stroke-linejoin="round" stroke-opacity="1.0" stroke-width="3.0" />
            <path d=" M 1599.932, 392.417 1598.832, 402.356 1597.732, 412.296 1596.632, 422.235 1595.532, 432.174 1594.432, 442.114 1593.332, 452.053 1592.232, 461.992 1591.132, 471.932 1590.032, 481.871 1588.932, 491.810 1587.832, 501.750 1586.732, 511.689 1585.632, 521.628 1584.532, 531.568 1583.432, 541.507 1582.332, 551.446 1581.232, 561.385 1580.132, 571.325 1579.032, 581.264 1577.932, 591.203 1576.832, 601.143 1575.731, 611.082 1574.631, 621.021 1574.086, 625.952 1572.986, 635.891 1571.886, 645.830 1570.786, 655.770 1569.686, 665.709 1568.586, 675.648 1567.486, 685.588 1566.385, 695.527 1565.286, 705.466 1564.185, 715.405 1563.085, 725.345 1561.985, 735.284 1560.885, 745.223 1559.785, 755.163 1558.685, 765.102 1557.585, 775.041 1556.485, 784.981 1555.385, 794.920 1554.285, 804.859 1553.185, 814.799 1552.085, 824.738 1550.985, 834.677 1549.672, 846.537 " fill="none" stroke="rgb(0, 119, 0)" stroke-linecap="butt" stroke-linejoin="round" stroke-opacity="1.0" stroke-width="3.0" />
            <path d=" M 2012.559, 1027.973 2003.249, 1024.323 1993.939, 1020.674 1984.628, 1017.025 1975.318, 1013.375 1966.008, 1009.726 1956.697, 1006.077 1947.387, 1002.427 1938.077, 998.778 1928.766, 995.129 1919.456, 991.479 1910.146, 987.830 1900.835, 984.181 1891.525, 980.531 1882.214, 976.882 1872.904, 973.233 1863.594, 969.583 1854.283, 965.934 1844.973, 962.285 1835.663, 958.635 1826.352, 954.986 1817.042, 951.337 1807.732, 947.687 1798.421, 944.038 1789.111, 940.389 1779.801, 936.739 1770.490, 933.090 1761.180, 929.441 1751.870, 925.791 1742.559, 922.142 1733.249, 918.493 1723.939, 914.844 1714.628, 911.194 1705.318, 907.545 1696.008, 903.896 1686.697, 900.246 1677.387, 896.597 1668.077, 892.948 1658.766, 889.298 1646.658, 884.552 1637.348, 880.903 1628.038, 877.254 1618.727, 873.604 1609.417, 869.955 1600.107, 866.306 1590.796, 862.656 1581.486, 859.007 1572.176, 855.358 1562.865, 851.708 1553.555, 848.059 1549.672, 846.537 1541.239, 851.911 1532.806, 857.285 1524.372, 862.659 1515.939, 868.032 1507.505, 873.406 1499.072, 878.780 1490.638, 884.154 1482.205, 889.527 1473.772, 894.901 1465.338, 900.275 1456.905, 905.649 1448.471, 911.023 1440.038, 916.396 1431.604, 921.770 1423.171, 927.144 1414.738, 932.518 1406.304, 937.891 1397.871, 943.265 1389.438, 948.639 1381.004, 954.013 1372.571, 959.387 1364.137, 964.760 1355.704, 970.134 1347.270, 975.508 1338.837, 980.882 1330.404, 986.255 1321.970, 991.629 1313.537, 997.003 1305.103, 1002.377 1296.670, 1007.751 1288.236, 1013.124 1279.803, 1018.498 1271.370, 1023.872 1262.936, 1029.246 1254.503, 1034.619 1250.264, 1037.320 " fill="none" stroke="rgb(0, 119, 0)" stroke-linecap="butt" stroke-linejoin="round" stroke-opacity="1.0" stroke-width="3.0" />
            <path d=" M 173.797, -55.868 175.394, -45.997 176.990, -36.125 178.587, -26.253 180.184, -16.381 181.781, -6.510 183.377, 3.362 184.974, 13.234 186.571, 23.105 188.167, 32.977 189.764, 42.849 191.361, 52.720 192.958, 62.592 194.554, 72.464 196.151, 82.336 197.129, 88.385 198.726, 98.257 200.323, 108.128 201.920, 118.000 203.516, 127.872 205.113, 137.743 206.710, 147.615 208.306, 157.487 209.903, 167.358 211.500, 177.230 213.096, 187.102 214.693, 196.974 216.290, 206.845 217.887, 216.717 219.483, 226.589 221.080, 236.460 222.677, 246.332 224.273, 256.204 225.870, 266.075 227.467, 275.947 229.064, 285.819 230.660, 295.691 232.257, 305.562 233.854, 315.434 235.450, 325.306 237.047, 335.177 238.644, 345.049 240.241, 354.921 241.837, 364.792 243.434, 374.664 245.031, 384.536 246.627, 394.408 248.224, 404.279 249.997, 415.242 " fill="none" stroke="rgb(0, 119, 0)" stroke-linecap="butt" stroke-linejoin="round" stroke-opacity="1.0" stroke-width="3.0" />
            <path d=" M 508.591, 527.349 499.417, 523.372 490.242, 519.394 481.067, 515.417 471.892, 511.439 462.717, 507.462 453.542, 503.484 444.367, 499.506 435.192, 495.529 426.017, 491.551 416.842, 487.574 407.668, 483.596 398.493, 479.618 389.318, 475.641 380.143, 471.663 369.778, 467.170 360.604, 463.193 351.429, 459.215 342.254, 455.237 333.079, 451.260 323.904, 447.282 314.729, 443.305 305.554, 439.327 296.379, 435.349 287.204, 431.372 278.029, 427.394 268.855, 423.417 259.680, 419.439 249.997, 415.242 240.296, 417.670 230.596, 420.098 220.895, 422.527 211.195, 424.955 201.494, 427.383 191.793, 429.812 182.092, 432.240 172.392, 434.669 162.691, 437.097 152.991, 439.525 143.290, 441.954 133.589, 444.382 123.889, 446.811 114.188, 449.239 104.487, 451.667 94.786, 454.096 85.086, 456.524 75.385, 458.953 73.130, 459.517 63.429, 461.946 53.728, 464.374 44.028, 466.802 34.327, 469.231 24.626, 471.659 14.926, 474.088 5.225, 476.516 -4.476, 478.944 -14.176, 481.373 -23.877, 483.801 -33.578, 486.229 -43.278, 488.658 -52.979, 491.086 -62.680, 493.515 -72.380, 495.943 -82.081, 498.371 -91.782, 500.800 -101.482, 503.228 -111.183, 505.657 -120.884, 508.085 -130.584, 510.513 -140.285, 512.942 -149.986, 515.370 -159.686, 517.799 -169.387, 520.227 -179.088, 522.655 -188.788, 525.084 -198.489, 527.512 -208.190, 529.940 -220.743, 533.083 " fill="none" stroke="rgb(0, 119, 0)" stroke-linecap="butt" stroke-linejoin="round" stroke-opacity="1.0" stroke-width="3.0" />
            <path d=" M 1065.533, 463.149 1065.501, 473.149 1065.469, 483.149 1065.438, 493.149 1065.406, 503.149 1065.374, 513.149 1065.343, 523.149 1065.311, 533.149 1065.279, 543.149 1065.247, 553.148 1065.216, 563.148 1065.184, 573.148 1065.152, 583.148 1065.121, 593.148 1065.089, 603.148 1065.057, 613.148 1065.025, 623.148 1064.994, 633.148 1064.962, 643.148 1064.930, 653.148 1064.899, 663.148 1064.867, 673.148 1064.835, 683.148 1064.803, 693.148 1064.772, 703.148 1064.740, 713.148 1064.708, 723.148 1064.677, 733.148 1064.645, 743.148 1064.613, 753.147 1064.581, 763.147 1064.550, 773.147 1064.518, 783.147 1064.486, 793.147 1064.455, 803.147 1064.423, 813.147 1064.391, 823.147 1064.359, 833.147 1064.328, 843.147 1064.296, 853.147 1064.264, 863.147 1064.233, 873.147 1064.201, 883.147 1064.169, 893.147 1064.138, 903.147 1064.106, 913.147 1064.074, 923.147 1064.042, 933.147 1064.011, 943.147 1063.979, 953.146 1063.947, 963.146 1063.916, 973.146 1063.884, 983.146 1063.852, 993.146 1063.820, 1003.146 1063.789, 1013.146 1063.757, 1023.146 1063.710, 1037.879 " fill="none" stroke="rgb(0, 119, 0)" stroke-linecap="butt" stroke-linejoin="round" stroke-opacity="1.0" stroke-width="3.0" />
            <path d=" M 1588.866, 1318.166 1580.044, 1313.457 1571.222, 1308.749 1562.400, 1304.040 1553.578, 1299.332 1544.756, 1294.623 1535.934, 1289.914 1527.112, 1285.206 1518.289, 1280.497 1509.467, 1275.789 1500.645, 1271.080 1491.823, 1266.372 1483.001, 1261.663 1474.179, 1256.955 1465.357, 1252.246 1456.535, 1247.538 1447.713, 1242.829 1438.891, 1238.121 1430.068, 1233.412 1421.246, 1228.703 1412.424, 1223.995 1403.602, 1219.286 1394.780, 1214.578 1385.958, 1209.869 1377.136, 1205.161 1368.314, 1200.452 1359.491, 1195.744 1350.669, 1191.035 1341.847, 1186.327 1333.025, 1181.618 1324.203, 1176.910 1315.381, 1172.201 1306.559, 1167.492 1297.737, 1162.784 1288.915, 1158.075 1280.092, 1153.367 1271.270, 1148.658 1262.448, 1143.950 1253.626, 1139.241 1244.804, 1134.533 1235.982, 1129.824 1227.160, 1125.116 1218.338, 1120.407 1209.516, 1115.699 1200.693, 1110.990 1191.871, 1106.281 1183.049, 1101.573 1174.227, 1096.864 1165.405, 1092.156 1156.583, 1087.447 1147.761, 1082.739 1138.939, 1078.030 1130.117, 1073.322 1121.294, 1068.613 1112.472, 1063.905 1103.650, 1059.196 1094.828, 1054.488 1086.006, 1049.779 1077.184, 1045.070 1063.710, 1037.879 1055.093, 1042.953 1046.475, 1048.026 1037.858, 1053.100 1029.241, 1058.173 1020.623, 1063.247 1012.006, 1068.320 1003.388, 1073.394 994.771, 1078.467 986.154, 1083.541 977.536, 1088.614 968.919, 1093.688 960.301, 1098.761 951.684, 1103.835 943.066, 1108.908 934.449, 1113.982 925.832, 1119.055 917.214, 1124.128 908.597, 1129.202 899.979, 1134.275 891.362, 1139.349 882.745, 1144.422 874.127, 1149.496 865.510, 1154.569 856.892, 1159.643 848.275, 1164.716 839.658, 1169.790 831.040, 1174.863 822.423, 1179.937 813.805, 1185.010 805.188, 1190.084 796.570, 1195.157 787.953, 1200.231 779.336, 1205.304 770.718, 1210.378 762.101, 1215.451 753.483, 1220.525 744.866, 1225.598 736.249, 1230.672 727.631, 1235.745 719.014, 1240.819 710.396, 1245.892 701.779, 1250.965 693.161, 1256.039 684.544, 1261.112 675.927, 1266.186 667.309, 1271.259 658.692, 1276.333 650.074, 1281.406 641.457, 1286.480 632.840, 1291.553 624.222, 1296.627 615.605, 1301.700 606.987, 1306.774 598.370, 1311.847 589.753, 1316.921 581.135, 1321.994 572.518, 1327.068 561.996, 1333.262 " fill="none" stroke="rgb(0, 119, 0)" stroke-linecap="butt" stroke-linejoin="round" stroke-opacity="1.0" stroke-width="3.0" />
            <path d=" M 1039.368, 18.614 1029.489, 17.066 1019.609, 15.517 1019.385, 15.482 1009.506, 13.934 999.626, 12.386 989.747, 10.837 979.868, 9.289 969.988, 7.741 960.109, 6.192 950.229, 4.644 940.350, 3.096 930.471, 1.547 920.591, -0.001 910.712, -1.549 900.832, -3.098 899.501, -3.306 " fill="none" stroke="rgb(0, 119, 0)" stroke-linecap="butt" stroke-linejoin="round" stroke-opacity="1.0" stroke-width="3.0" />
            <path d=" M 1701.657, 31.474 1691.740, 30.190 1681.822, 28.907 1671.905, 27.623 1661.988, 26.340 1652.071, 25.056 1642.153, 23.772 1632.236, 22.489 1622.319, 21.205 1612.401, 19.922 1602.484, 18.638 1592.567, 17.355 1582.650, 16.071 1572.732, 14.787 1562.815, 13.504 1552.898, 12.220 1542.980, 10.937 1533.063, 9.653 1523.146, 8.370 1518.332, 7.746 " fill="none" stroke="rgb(0, 119, 0)" stroke-linecap="butt" stroke-linejoin="round" stroke-opacity="1.0" stroke-width="3.0" />
            <path d=" M 2101.580, 515.451 2099.459, 525.224 2097.338, 534.996 2095.218, 544.769 2093.097, 554.541 2090.976, 564.314 2088.868, 574.028 2098.542, 576.562 2108.216, 579.095 2112.046, 580.098 " fill="none" stroke="rgb(0, 119, 0)" stroke-linecap="butt" stroke-linejoin="round" stroke-opacity="1.0" stroke-width="3.0" />
            <path d=" M 2192.667, 352.495 2182.855, 350.564 2173.043, 348.634 2163.231, 346.703 2153.420, 344.772 2143.608, 342.841 2133.796, 340.910 2123.984, 338.980 2114.172, 337.049 2104.361, 335.118 2094.549, 333.187 2084.737, 331.256 2074.925, 329.325 2065.113, 327.395 2055.301, 325.464 2045.490, 323.533 2035.678, 321.602 2025.866, 319.671 2016.054, 317.741 2011.146, 316.775 " fill="none" stroke="rgb(0, 119, 0)" stroke-linecap="butt" stroke-linejoin="round" stroke-opacity="1.0" stroke-width="3.0" />
        </g>
    </g>
    <g id="fressstylelayer_vlak" inkscape:groupmode="lineset" inkscape:label="fressstylelayer_vlak" xmlns:inkscape="http://www.inkscape.org/namespaces/inkscape">
        <g id="strokes" inkscape:groupmode="layer" inkscape:label="strokes" xmlns:inkscape="http://www.inkscape.org/namespaces/inkscape" />
    </g>
</svg>
