<?xml version="1.0" encoding="UTF-8" standalone="no" ?>
<svg width="100%" height="100%" viewBox="0 0 1355.457 566.929" xmlns="http://www.w3.org/2000/svg"><g>
</g><g style="stroke:rgb(0,0,0); fill:none; stroke-width:1.000mm" >
</g><g style="stroke:rgb(0,0,0); fill:none; stroke-width:0.100mm" >
<path d="M 98.717, 385.653 
	L 98.717, 385.654 
	L 183.756, 559.843 
	L 175.819, 559.843 
	L 143.575, 495.000 
	L 52.654, 495.000 
	L 20.906, 559.843 
	L 13.890, 559.843 
	L 98.717, 385.654 
	L 98.008, 401.315 
	L 55.630, 488.410 
" />
<path d="M 55.630, 488.410 
	L 140.882, 488.410 
	L 98.008, 401.315 
" />
<path d="M 105.804, 385.653 
	L 105.803, 385.654 
	L 190.843, 559.843 
	L 182.906, 559.843 
	L 150.661, 495.000 
	L 59.740, 495.000 
	L 27.992, 559.843 
	L 20.976, 559.843 
	L 105.803, 385.654 
	L 105.095, 401.315 
	L 62.717, 488.410 
" />
<path d="M 62.717, 488.410 
	L 147.969, 488.410 
	L 105.095, 401.315 
" />
<path d="M 109.347, 385.653 
	L 109.346, 385.654 
	L 194.386, 559.843 
	L 186.449, 559.843 
	L 154.205, 495.000 
	L 63.283, 495.000 
	L 31.535, 559.843 
	L 24.520, 559.843 
	L 109.346, 385.654 
	L 108.638, 401.315 
	L 66.260, 488.410 
" />
<path d="M 66.260, 488.410 
	L 151.512, 488.410 
	L 108.638, 401.315 
" />
<path d="M 111.119, 385.653 
	L 111.118, 385.654 
	L 196.158, 559.843 
	L 188.221, 559.843 
	L 155.976, 495.000 
	L 65.055, 495.000 
	L 33.307, 559.843 
	L 26.291, 559.843 
	L 111.118, 385.654 
	L 110.409, 401.315 
	L 68.032, 488.410 
" />
<path d="M 68.032, 488.410 
	L 153.283, 488.410 
	L 110.409, 401.315 
" />
<path d="M 112.182, 385.653 
	L 112.181, 385.654 
	L 197.221, 559.843 
	L 189.283, 559.843 
	L 157.039, 495.000 
	L 66.118, 495.000 
	L 34.370, 559.843 
	L 27.354, 559.843 
	L 112.181, 385.654 
	L 111.472, 401.315 
	L 69.094, 488.410 
" />
<path d="M 69.094, 488.410 
	L 154.346, 488.410 
	L 111.472, 401.315 
" />
<path d="M 57.190, 545.669 
	L 57.189, 545.669 
	L 57.189, 551.976 
	L 41.102, 551.976 
	L 29.764, 541.205 
	L 18.425, 530.433 
	L 18.425, 513.638 
	L 18.425, 407.551 
	L 25.654, 407.551 
	L 25.654, 448.795 
	L 56.976, 448.795 
	L 56.976, 455.173 
" />
<path d="M 56.976, 455.173 
	L 25.654, 455.173 
	L 25.654, 513.638 
	L 25.654, 527.528 
	L 34.866, 536.599 
	L 44.079, 545.669 
	L 57.189, 545.669 
" />
<path d="M 153.001, 553.322 
	L 153.000, 553.323 
	L 150.945, 553.323 
	L 129.402, 553.323 
	L 113.421, 537.130 
	L 97.441, 520.937 
	L 97.441, 499.394 
	L 97.441, 477.850 
	L 113.315, 462.083 
	L 129.189, 446.315 
	L 152.539, 446.315 
" />
<path d="M 152.539, 446.315 
	L 175.890, 446.315 
	L 192.685, 464.882 
	L 121.465, 535.181 
	L 136.205, 547.016 
	L 149.811, 547.016 
	L 163.417, 547.016 
	L 174.189, 540.780 
	L 184.961, 534.543 
	L 191.976, 524.126 
	L 191.976, 535.677 
" />
<path d="M 191.976, 535.677 
	L 175.890, 553.323 
	L 153.000, 553.323 
	L 132.591, 452.693 
	L 104.669, 480.543 
	L 104.669, 498.685 
	L 104.669, 516.827 
	L 116.717, 530.433 
	L 182.693, 464.882 
	L 168.661, 452.693 
	L 132.591, 452.693 
" />
<path d="M 132.591, 452.693 
" />
<path d="M 261.993, 452.196 
	L 261.992, 452.197 
	L 256.039, 452.197 
	L 251.504, 456.059 
	L 246.969, 459.921 
	L 246.969, 465.591 
	L 246.969, 471.260 
	L 252.071, 476.008 
	L 257.173, 480.756 
	L 264.331, 484.724 
	L 271.488, 488.693 
" />
<path d="M 271.488, 488.693 
	L 278.752, 493.228 
	L 286.016, 497.764 
	L 291.118, 504.815 
	L 296.221, 511.866 
	L 296.221, 520.937 
	L 296.221, 534.331 
	L 286.122, 543.721 
	L 276.024, 553.110 
	L 261.709, 553.110 
	L 252.638, 553.110 
" />
<path d="M 252.638, 553.110 
	L 244.843, 549.142 
	L 237.047, 545.173 
	L 233.362, 538.583 
	L 233.362, 527.740 
	L 242.008, 546.803 
	L 261.071, 546.803 
	L 272.835, 546.803 
	L 280.878, 539.539 
	L 288.921, 532.276 
	L 288.921, 523.311 
" />
<path d="M 288.921, 523.311 
	L 288.921, 514.347 
	L 283.819, 508.217 
	L 278.717, 502.087 
	L 271.488, 497.799 
	L 264.260, 493.512 
	L 257.102, 489.295 
	L 249.945, 485.079 
	L 244.843, 479.091 
	L 239.740, 473.102 
	L 239.740, 465.024 
" />
<path d="M 239.740, 465.024 
	L 239.740, 456.945 
	L 246.189, 451.417 
	L 252.638, 445.890 
	L 262.843, 445.890 
	L 273.047, 445.890 
	L 280.346, 453.827 
	L 280.346, 463.110 
	L 273.047, 452.197 
	L 261.992, 452.197 
" />
<path d="M 381.615, 545.669 
	L 381.614, 545.669 
	L 381.614, 551.976 
	L 365.528, 551.976 
	L 354.189, 541.205 
	L 342.850, 530.433 
	L 342.850, 513.638 
	L 342.850, 407.551 
	L 350.079, 407.551 
	L 350.079, 448.795 
	L 381.402, 448.795 
" />
<path d="M 381.402, 448.795 
	L 381.402, 455.173 
	L 350.079, 455.173 
	L 350.079, 513.638 
	L 350.079, 527.528 
	L 359.291, 536.599 
	L 368.504, 545.669 
	L 381.614, 545.669 
" />
<path d="M 500.528, 459.212 
	L 500.528, 459.213 
	L 519.803, 446.102 
	L 533.658, 446.102 
	L 547.512, 446.102 
	L 557.929, 456.059 
	L 568.347, 466.016 
	L 568.347, 483.024 
	L 568.347, 550.630 
	L 561.118, 550.630 
	L 561.118, 483.024 
" />
<path d="M 561.118, 483.024 
	L 561.118, 469.913 
	L 552.508, 461.161 
	L 543.898, 452.410 
	L 531.744, 452.410 
	L 519.591, 452.410 
	L 510.201, 461.480 
	L 500.811, 470.551 
	L 500.811, 482.598 
	L 500.811, 550.630 
	L 493.512, 550.630 
" />
<path d="M 493.512, 550.630 
	L 493.512, 482.598 
	L 493.512, 470.339 
	L 484.902, 461.374 
	L 476.291, 452.410 
	L 464.032, 452.410 
	L 451.772, 452.410 
	L 442.701, 461.480 
	L 433.630, 470.551 
	L 433.630, 482.598 
	L 433.630, 550.630 
" />
<path d="M 433.630, 550.630 
	L 426.402, 550.630 
	L 426.402, 448.583 
	L 433.630, 448.583 
	L 433.630, 462.898 
	L 438.165, 456.095 
	L 447.130, 451.098 
	L 456.095, 446.102 
	L 465.732, 446.102 
	L 475.370, 446.102 
	L 484.228, 452.799 
" />
<path d="M 484.228, 452.799 
	L 493.087, 459.496 
	L 497.126, 470.126 
	L 500.528, 459.213 
" />
<path d="M 661.891, 553.322 
	L 661.890, 553.323 
	L 659.835, 553.323 
	L 638.291, 553.323 
	L 622.311, 537.130 
	L 606.331, 520.937 
	L 606.331, 499.394 
	L 606.331, 477.850 
	L 622.205, 462.083 
	L 638.079, 446.315 
	L 661.429, 446.315 
" />
<path d="M 661.429, 446.315 
	L 684.780, 446.315 
	L 701.575, 464.882 
	L 630.354, 535.181 
	L 645.095, 547.016 
	L 658.701, 547.016 
	L 672.307, 547.016 
	L 683.079, 540.780 
	L 693.851, 534.543 
	L 700.866, 524.126 
	L 700.866, 535.677 
" />
<path d="M 700.866, 535.677 
	L 684.780, 553.323 
	L 661.890, 553.323 
	L 641.480, 452.693 
	L 613.559, 480.543 
	L 613.559, 498.685 
	L 613.559, 516.827 
	L 625.606, 530.433 
	L 691.583, 464.882 
	L 677.551, 452.693 
	L 641.480, 452.693 
" />
<path d="M 641.480, 452.693 
" />
<path d="M 877.182, 380.551 
	L 877.181, 380.551 
	L 883.772, 380.551 
	L 883.772, 553.110 
	L 758.622, 399.118 
	L 758.622, 550.630 
	L 752.032, 550.630 
	L 752.032, 378.071 
	L 877.181, 531.780 
	L 877.181, 380.551 
" />
<path d="M 970.938, 553.606 
	L 970.937, 553.606 
	L 919.488, 500.528 
	L 919.488, 465.024 
	L 919.488, 429.520 
	L 945.567, 403.547 
	L 971.646, 377.575 
	L 1008.142, 377.575 
	L 1044.638, 377.575 
	L 1070.504, 403.441 
	L 1096.370, 429.307 
" />
<path d="M 1096.370, 429.307 
	L 1096.370, 465.024 
	L 1096.370, 500.740 
	L 1070.752, 527.173 
	L 1045.134, 553.606 
	L 1009.488, 553.606 
	L 1006.087, 553.606 
	L 970.937, 553.606 
	L 1088.858, 432.000 
	L 1041.520, 384.165 
	L 1008.071, 384.165 
" />
<path d="M 1008.071, 384.165 
	L 974.622, 384.165 
	L 950.811, 408.083 
	L 927.000, 432.000 
	L 927.000, 465.449 
	L 927.000, 498.898 
	L 950.811, 522.957 
	L 974.622, 547.016 
	L 1007.929, 547.016 
	L 1041.236, 547.016 
	L 1065.047, 522.957 
" />
<path d="M 1065.047, 522.957 
	L 1088.858, 498.898 
	L 1088.858, 432.000 
" />
<path d="M 1207.843, 553.606 
	L 1207.843, 553.606 
	L 1133.221, 380.551 
	L 1141.583, 380.551 
	L 1208.977, 536.315 
	L 1240.512, 462.614 
	L 1205.362, 380.551 
	L 1213.512, 380.551 
	L 1245.047, 455.173 
	L 1277.433, 380.551 
	L 1283.811, 380.551 
" />
<path d="M 1283.811, 380.551 
	L 1248.449, 462.402 
	L 1280.622, 537.024 
	L 1349.362, 380.551 
	L 1355.457, 380.551 
	L 1279.914, 553.606 
	L 1243.914, 470.551 
	L 1207.843, 553.606 
" />
<path d="M 0.001, 566.929 
	L 0.000, 566.929 
	L 0.000, 0.000 
	L 566.929, 0.000 
	L 566.929, 566.929 
	L 0.000, 566.929 
" />
<path d="M 573.307, 555.591 
	L 574.016, 556.654 
	L 574.016, 557.717 
	L 573.307, 558.780 
	L 571.890, 558.780 
	L 571.181, 557.717 
	L 571.181, 556.654 
	L 571.890, 555.591 
" />
<path d="M 569.764, 551.339 
	L 570.473, 551.339 
" />
<path d="M 571.181, 552.402 
	L 571.181, 551.339 
	L 574.016, 551.339 
" />
<path d="M 574.016, 552.402 
	L 574.016, 550.276 
" />
<path d="M 571.181, 547.087 
	L 574.016, 547.087 
" />
<path d="M 572.599, 547.087 
	L 571.181, 544.961 
	L 571.181, 543.898 
" />
<path d="M 573.307, 536.457 
	L 574.016, 537.520 
	L 574.016, 538.583 
	L 573.307, 539.646 
	L 571.890, 539.646 
	L 571.181, 538.583 
	L 571.181, 537.520 
	L 571.890, 536.457 
" />
<path d="M 571.181, 534.331 
	L 573.307, 534.331 
	L 574.016, 533.268 
	L 574.016, 531.142 
	L 571.181, 531.142 
" />
<path d="M 569.764, 525.827 
	L 570.473, 525.827 
" />
<path d="M 571.181, 526.890 
	L 571.181, 525.827 
	L 574.016, 525.827 
" />
<path d="M 574.016, 526.890 
	L 574.016, 524.764 
" />
<path d="M 569.764, 520.512 
	L 574.016, 520.512 
	L 574.016, 518.386 
" />
<path d="M 571.181, 521.575 
	L 571.181, 518.386 
" />
<path d="M 571.181, 512.008 
	L 571.181, 514.134 
	L 571.890, 515.197 
	L 572.599, 514.134 
	L 572.599, 513.071 
	L 573.307, 512.008 
	L 574.016, 513.071 
	L 574.016, 515.197 
" />
<path d="M 575.433, 502.441 
	L 571.181, 502.441 
	L 571.181, 500.315 
	L 571.890, 499.252 
	L 573.307, 499.252 
	L 574.016, 500.315 
	L 574.016, 502.441 
" />
<path d="M 571.181, 496.063 
	L 574.016, 496.063 
" />
<path d="M 572.599, 496.063 
	L 571.181, 493.937 
	L 571.181, 492.874 
" />
<path d="M 574.016, 488.622 
	L 573.307, 489.685 
	L 571.890, 489.685 
	L 571.181, 488.622 
	L 571.181, 487.559 
	L 571.890, 486.496 
	L 573.307, 486.496 
	L 574.016, 487.559 
	L 574.016, 488.622 
" />
<path d="M 569.764, 482.244 
	L 574.016, 482.244 
	L 574.016, 480.118 
" />
<path d="M 571.181, 483.307 
	L 571.181, 480.118 
" />
<path d="M 574.016, 475.866 
	L 573.307, 476.929 
	L 571.890, 476.929 
	L 571.181, 475.866 
	L 571.181, 474.803 
	L 571.890, 473.740 
	L 573.307, 473.740 
	L 574.016, 474.803 
	L 574.016, 475.866 
" />
<path d="M 570.473, 445.039 
	L 569.764, 443.976 
	L 569.764, 441.850 
	L 570.473, 440.787 
	L 571.181, 440.787 
	L 573.307, 445.039 
	L 574.016, 445.039 
	L 574.016, 440.787 
" />
<path d="M 573.307, 438.661 
	L 574.016, 437.598 
	L 574.016, 435.473 
	L 573.307, 434.410 
	L 570.473, 434.410 
	L 569.764, 435.473 
	L 569.764, 437.598 
	L 570.473, 438.661 
	L 573.307, 438.661 
" />
<path d="M 570.473, 432.284 
	L 569.764, 431.221 
	L 569.764, 429.095 
	L 570.473, 428.032 
	L 571.181, 428.032 
	L 573.307, 432.284 
	L 574.016, 432.284 
	L 574.016, 428.032 
" />
<path d="M 570.473, 425.906 
	L 569.764, 424.843 
	L 569.764, 422.717 
	L 570.473, 421.654 
	L 571.181, 421.654 
	L 573.307, 425.906 
	L 574.016, 425.906 
	L 574.016, 421.654 
" />
<path d="M 571.890, 419.528 
	L 571.890, 415.276 
" />
<path d="M 573.307, 413.150 
	L 574.016, 412.087 
	L 574.016, 409.961 
	L 573.307, 408.898 
	L 570.473, 408.898 
	L 569.764, 409.961 
	L 569.764, 412.087 
	L 570.473, 413.150 
	L 573.307, 413.150 
" />
<path d="M 571.890, 403.583 
	L 571.181, 402.520 
	L 570.473, 402.520 
	L 569.764, 403.583 
	L 569.764, 405.709 
	L 570.473, 406.772 
	L 571.181, 406.772 
	L 571.890, 405.709 
	L 571.890, 403.583 
	L 572.599, 402.520 
	L 573.307, 402.520 
" />
<path d="M 573.307, 402.520 
	L 574.016, 403.583 
	L 574.016, 405.709 
	L 573.307, 406.772 
	L 572.599, 406.772 
	L 571.890, 405.709 
" />
<path d="M 571.890, 400.394 
	L 571.890, 396.142 
" />
<path d="M 570.473, 394.016 
	L 569.764, 392.953 
	L 569.764, 390.827 
	L 570.473, 389.764 
	L 571.181, 389.764 
	L 573.307, 394.016 
	L 574.016, 394.016 
	L 574.016, 389.764 
" />
<path d="M 574.016, 386.575 
	L 574.016, 384.449 
" />
<path d="M 574.016, 385.512 
	L 569.764, 385.512 
	L 570.473, 386.575 
" />
<path d="M 574.016, 373.819 
	L 574.016, 371.693 
" />
<path d="M 574.016, 372.756 
	L 569.764, 372.756 
	L 570.473, 373.819 
" />
<path d="M 569.764, 365.315 
	L 571.890, 368.504 
	L 572.599, 368.504 
	L 572.599, 364.252 
" />
<path d="M 571.890, 365.315 
	L 574.016, 365.315 
" />
<path d="M 571.890, 361.063 
	L 571.181, 361.063 
	L 571.181, 360.000 
	L 571.890, 360.000 
	L 571.890, 361.063 
" />
<path d="M 573.307, 361.063 
	L 573.307, 360.000 
	L 574.016, 360.000 
	L 574.016, 361.063 
	L 573.307, 361.063 
" />
<path d="M 569.764, 352.559 
	L 571.890, 355.748 
	L 572.599, 355.748 
	L 572.599, 351.496 
" />
<path d="M 571.890, 352.559 
	L 574.016, 352.559 
" />
<path d="M 573.307, 349.370 
	L 574.016, 348.307 
	L 574.016, 346.181 
	L 573.307, 345.118 
	L 572.599, 345.118 
	L 571.890, 346.181 
	L 571.890, 347.244 
	L 569.764, 345.118 
	L 569.764, 349.370 
" />
</g>
</svg>
