<?xml version="1.0" encoding="UTF-8" standalone="no"?>
<!-- Created with Inkscape (http://www.inkscape.org/) -->

<svg
   xmlns:dc="http://purl.org/dc/elements/1.1/"
   xmlns:cc="http://creativecommons.org/ns#"
   xmlns:rdf="http://www.w3.org/1999/02/22-rdf-syntax-ns#"
   xmlns:svg="http://www.w3.org/2000/svg"
   xmlns="http://www.w3.org/2000/svg"
   xmlns:sodipodi="http://sodipodi.sourceforge.net/DTD/sodipodi-0.dtd"
   xmlns:inkscape="http://www.inkscape.org/namespaces/inkscape"
   width="210mm"
   height="297mm"
   viewBox="0 0 744.09448819 1052.3622047"
   id="svg2"
   version="1.1"
   inkscape:version="0.92.2 5c3e80d, 2017-08-06"
   sodipodi:docname="jack playmobil.svg">
  <defs
     id="defs4" />
  <sodipodi:namedview
     id="base"
     pagecolor="#ffffff"
     bordercolor="#666666"
     borderopacity="1.0"
     inkscape:pageopacity="0.0"
     inkscape:pageshadow="2"
     inkscape:zoom="0.7"
     inkscape:cx="379.82257"
     inkscape:cy="664.08665"
     inkscape:document-units="px"
     inkscape:current-layer="layer1"
     showgrid="false"
     inkscape:window-width="1920"
     inkscape:window-height="1155"
     inkscape:window-x="1680"
     inkscape:window-y="1"
     inkscape:window-maximized="1" />
  <metadata
     id="metadata7">
    <rdf:RDF>
      <cc:Work
         rdf:about="">
        <dc:format>image/svg+xml</dc:format>
        <dc:type
           rdf:resource="http://purl.org/dc/dcmitype/StillImage" />
        <dc:title></dc:title>
      </cc:Work>
    </rdf:RDF>
  </metadata>
  <g
     inkscape:label="Layer 1"
     inkscape:groupmode="layer"
     id="layer1">
    <path
       style="fill:#000000"
       d="m 347.42497,789.78726 c -3.17516,-0.78046 -4.5,-2.3165 -4.5,-5.21733 0,-4.03465 2.94431,-13.28352 4.95311,-15.55906 1.50756,-1.70775 2.00872,-6.23762 3.42964,-31 0.91525,-15.95 1.91071,-31.06428 2.21213,-33.5873 0.54779,-4.58517 0.54671,-4.5871 -2.3303,-4.16484 -5.2936,0.77694 -5.58033,-0.56774 -5.06633,-23.75943 0.25581,-11.54181 0.34801,-20.86803 0.2049,-20.72491 -0.14311,0.14311 -1.43509,6.87559 -2.87106,14.96108 -1.81486,10.21886 -2.41076,16.20931 -1.95454,19.6485 0.71513,5.39086 -1.90772,14.51387 -3.9763,13.8307 -0.60569,-0.20004 -1.35041,-2.49658 -1.65495,-5.10342 -0.60334,-5.16464 -2.09377,-6.75863 -5.9463,-6.35943 -2.2753,0.23577 -2.54571,0.77214 -3.00855,5.9676 -0.47692,5.35354 -2.17735,8.93888 -3.57608,7.54015 -1.17399,-1.17399 -2.04272,-12.66281 -1.09334,-14.45927 0.52012,-0.98419 2.00559,-2.934 3.30105,-4.33291 2.13836,-2.30912 2.63328,-4.88905 5.37133,-28 3.9956,-33.72549 3.78248,-32.63282 7.10255,-36.41417 3.27866,-3.73418 5.12309,-4.57857 16.52406,-7.56476 6.33943,-1.66044 8.40388,-2.6556 9.41034,-4.53619 1.19939,-2.24107 0.93983,-2.77861 -3.72156,-7.70735 -6.47946,-6.85107 -9.90294,-16.70921 -6.00763,-17.29936 0.99119,-0.15017 2.86242,-0.96774 4.15829,-1.81683 2.06377,-1.35223 2.50678,-1.36226 3.57028,-0.0808 1.61603,1.9472 3.88685,1.84752 6.23055,-0.2735 1.83712,-1.66257 2.0036,-1.62002 3.91215,1 2.47987,3.40431 4.46792,3.45424 7.86713,0.19759 2.34428,-2.24596 2.79737,-2.36133 3.92717,-1 1.61603,1.9472 5.41408,1.98866 7.0011,0.0764 1.05221,-1.26784 1.58814,-1.18563 4.02737,0.61777 1.54751,1.14412 3.30644,1.77567 3.90872,1.40343 1.95458,-1.20799 1.18449,4.70724 -1.31038,10.06538 -1.31225,2.81827 -4.00784,6.41827 -5.9902,8 -3.69971,2.952 -4.65337,6.26061 -2.35435,8.16809 0.6875,0.57042 5.49952,2.23184 10.69337,3.69204 10.70172,3.00871 14.1435,5.06041 16.34926,9.74605 0.89812,1.90786 2.90034,14.71613 4.80725,30.75205 l 3.26806,27.48237 3.42098,4.48172 c 3.28302,4.30099 3.39381,4.72511 2.74748,10.51763 -0.37042,3.31976 -1.05344,6.42421 -1.51782,6.89879 -1.53193,1.56559 -3.01697,-0.42122 -3.11826,-4.17189 -0.16234,-6.01124 -1.26244,-8.65925 -3.74636,-9.01774 -3.2585,-0.47029 -5.15396,1.55793 -5.15396,5.51495 0,4.49641 -1.84006,8.16137 -3.11128,6.19691 -2.32002,-3.58522 -3.88987,-11.3516 -2.9005,-14.3494 0.78231,-2.37043 0.34439,-6.4777 -1.9768,-18.54034 l -2.98173,-15.49536 0.53951,21.18573 c 0.53328,20.94138 0.51463,21.19904 -1.61708,22.33989 -1.18612,0.6348 -3.01058,0.93085 -4.05435,0.6579 -2.38724,-0.62428 -2.39047,-2.07258 0.0807,36.12007 1.71852,26.56037 2.19812,30.60541 3.88268,32.74698 2.75502,3.50244 5.60717,15.7059 4.25933,18.22436 -1.15819,2.1641 -5.04379,3.22507 -11.81119,3.22507 -6.54101,0 -7.84935,-1.12144 -9.82547,-8.42183 -1.60815,-5.94098 -1.62561,-6.8675 -0.21046,-11.1661 1.50238,-4.56356 1.39528,-5.54369 -4.04844,-37.04982 -3.84074,-22.2285 -5.98286,-32.36225 -6.84091,-32.36225 -1.69627,0 -1.59345,-0.47225 -7.37616,33.87835 -4.12654,24.51255 -4.91067,30.96165 -4.06093,33.39922 0.57919,1.66148 1.05308,4.68221 1.05308,6.71272 0,4.67142 -2.49271,13.07151 -4.20038,14.15471 -1.37604,0.87285 -10.92617,0.9606 -14.29962,0.13139 z m 13.01402,-139.65745 c 1.73516,-2.64818 6.14915,-4.97297 6.95778,-3.66456 0.7169,1.15996 9.35359,1.13716 10.07283,-0.0266 0.30782,-0.49805 1.56204,-0.24877 2.78717,0.55397 1.92714,1.26271 2.59434,1.26921 4.94786,0.0482 1.49619,-0.77623 2.72034,-0.98802 2.72034,-0.47064 0,0.51739 0.45,0.9407 1,0.9407 0.55,0 1,-1.00013 1,-2.22251 l 0,-2.2225 1.5567,2.2225 c 1.71272,2.44525 4.3832,2.88261 6.2433,1.02251 1.90192,-1.90192 1.39458,-2.93847 -0.77504,-1.58351 -1.57001,0.98049 -2.23229,0.97618 -3.22947,-0.021 -1.0059,-1.0059 -0.66413,-1.73676 1.72504,-3.68899 3.16948,-2.58983 2.20214,-3.52033 -1.0794,-1.0383 -3.0536,2.30962 -3.78111,1.77948 -1.51371,-1.10306 2.03365,-2.58537 2.72522,-6.37917 1.40373,-7.70066 -1.33674,-1.33674 -4.22416,2.63922 -5.48265,7.54959 -1.28804,5.02566 -4.65341,8.64257 -6.80452,7.31311 -1.50072,-0.92749 -1.28545,-4.08189 0.37247,-5.45784 1.12502,-0.93369 1.50467,-0.80457 1.84524,0.62756 0.40853,1.71788 0.46663,1.71562 1.22927,-0.0478 0.51606,-1.19329 0.33679,-2.1375 -0.50456,-2.65748 -1.96983,-1.21742 -3.6803,-0.17557 -5.90659,3.5977 -2.62178,4.4436 -4.09253,4.40095 -3.07981,-0.0893 0.43416,-1.925 0.61177,-3.545 0.39469,-3.6 -0.21708,-0.055 -1.51969,-0.1 -2.89469,-0.1 -4.11029,0 -4.22313,0.0656 -6.3675,3.7 -2.26001,3.83044 -5.30145,4.86208 -4.42225,1.5 0.28766,-1.1 0.81127,-2 1.16359,-2 0.35231,0 0.47882,-2.03379 0.28112,-4.51954 -0.45279,-5.69301 -3.04136,-7.59406 -6.13204,-4.50338 -2.86437,2.86437 -2.63633,6.78631 0.47708,8.20487 3.96745,1.8077 3.14542,4.43973 -2.25,7.2042 -1.93381,0.99083 -3.25,2.43102 -3.25,3.5562 0,3.83987 4.66982,3.0174 7.51402,-1.32341 z m -5.51402,1.58106 c 0,-1.05167 2.17195,-3.2 3.23518,-3.2 0.45935,0 0.35352,0.9 -0.23518,2 -1.05696,1.97494 -3,2.75216 -3,1.2 z m 14.46194,-6.43858 c -0.69615,-1.81413 1.08835,-5.76142 2.60463,-5.76142 2.08875,0 2.15683,3.22104 0.11132,5.26655 -1.83626,1.83627 -2.17736,1.89842 -2.71595,0.49487 z m -11.15247,-7.39734 c -0.66747,-1.73939 0.80975,-4.86408 2.29952,-4.86408 0.49005,0 1.03202,1.4625 1.20437,3.25 0.23517,2.43903 -0.0846,3.25 -1.28139,3.25 -0.87711,0 -1.87723,-0.73617 -2.2225,-1.63592 z m 33.27304,-1.36408 c 0.74187,-2.78502 1.21478,-3.53604 1.83566,-2.91516 0.23,0.23 -0.23877,1.5425 -1.04171,2.91667 l -1.45989,2.49849 0.66594,-2.5 z m -12.15394,-35.57143 c 0.86429,-0.86428 1.57143,-1.6637 1.57143,-1.77648 0,-0.11277 -2.02357,-0.19313 -4.49681,-0.17857 -4.76962,0.0281 -5.61518,0.77942 -2.75319,2.44638 2.46862,1.43784 3.87071,1.31653 5.67857,-0.49133 z m -10.61789,-10.74623 c -0.2401,-1.68657 -0.98908,-2.18234 -3.29698,-2.18234 -3.54556,0 -4.74993,3.12288 -1.9843,5.14516 2.43552,1.78089 5.6962,-0.0484 5.28128,-2.96282 z m 21.55095,1.81766 c 0.9446,-2.46159 -0.41434,-4.5 -3,-4.5 -1.33342,0 -2.68342,0.675 -3,1.5 -0.9446,2.46159 0.41434,4.5 3,4.5 1.33341,0 2.68341,-0.675 3,-1.5 z m -39.86163,5.5 c -0.33992,-0.55 -1.49148,-1 -2.55902,-1 -1.79106,0 -1.94098,-0.76736 -1.94098,-9.9349 0,-11.29277 0.99541,-15.0651 3.97525,-15.0651 1.72234,0 2.02475,-0.64896 2.02475,-4.34501 0,-5.16062 1.19018,-6.45462 9.52712,-10.35828 5.16814,-2.4199 7.1991,-2.79671 15.07402,-2.79671 8.42675,0 9.61235,0.25988 16,3.50711 l 6.89886,3.50711 0.30226,5.24289 c 0.24782,4.29856 0.63103,5.24289 2.12755,5.24289 3.45167,0 4.41107,2.76745 4.87663,14.06693 0.43401,10.5338 0.37489,10.93307 -1.61897,10.93307 -1.13819,0 -2.34755,0.45 -2.68747,1 -0.33992,0.55 -1.31526,1 -2.16743,1 -1.20297,0 -1.38393,-0.61486 -0.80939,-2.75 1.37639,-5.11501 2.12813,-9.79607 1.7536,-10.91965 -0.20497,-0.61492 -1.2659,-0.88445 -2.35761,-0.59896 -1.14428,0.29923 -2.84284,-0.25732 -4.01059,-1.31412 -1.64784,-1.49128 -2.34113,-1.6067 -3.71712,-0.61887 -3.32905,2.38998 -4.32603,2.4238 -6.66533,0.22615 l -2.37211,-2.22848 -3.07479,3.35196 -3.07479,3.35197 -2.92666,-3.4953 -2.92666,-3.4953 -2.56508,2.40977 c -2.50906,2.35714 -2.60988,2.36923 -4.61609,0.55363 -1.9775,-1.7896 -2.15961,-1.79198 -5.081,-0.0663 -1.66649,0.98443 -3.89825,1.5628 -4.95947,1.28529 -1.61079,-0.42123 -1.92223,0.0168 -1.88559,2.65181 0.0241,1.73601 0.69237,4.95638 1.48495,7.15638 0.79257,2.2 1.44782,4.1125 1.4561,4.25 0.0448,0.74412 -2.96137,0.0971 -3.48494,-0.75 z"
       id="path4162"
       inkscape:connector-curvature="0" />
    <path
       style="fill:#000000"
       d="m 371.42857,448.3622 c -247.61905,402.66667 -123.80952,201.33333 0,0 z m 137.3761,-40.59083 c 1.11519,-0.42794 1.42459,-1.59967 1.12223,-4.25 -1.01365,-8.88517 -3.80922,-31.88946 -5.54867,-45.65917 -1.04218,-8.25 -2.19032,-17.8125 -2.55143,-21.25 l -0.65656,-6.25 c -1.39453,-8.88042 -10e-4,-3.46471 -1.39453,-8.88042 -2.93649,-11.50804 -9.07871,-20.53712 -18.43588,-27.1008 -6.05701,-4.24875 -16.39731,-8.45446 -18.13936,-7.37781 -0.61868,0.38237 -0.76274,4.43246 -0.38188,10.7365 0.33636,5.56739 0.84647,18.89753 1.13357,29.62253 0.2871,10.725 0.72609,21.525 0.97553,24 0.24943,2.475 0.73001,13.27889 1.06795,24.00865 0.33793,10.72976 1.15391,22.20476 1.81328,25.5 l 1.19885,5.99135 18.96039,0.53347 c 10.42822,0.2934 19.0361,0.6309 19.12861,0.75 0.0925,0.11909 0.86107,-0.0493 1.7079,-0.3743 z m -225.44321,-1.4806 c 2.05577,-3.20846 1.80498,-8.53177 1.94369,-16.62225 0.38945,-22.7161 2.36256,-59.88954 3.23463,-60.94032 0.55743,-0.67166 0.5875,-1.31967 0.0705,-1.51875 -0.52103,-0.20063 -0.64421,-7.99438 -0.29174,-18.45879 0.33553,-9.96135 0.45456,-18.90075 0.26451,-19.86534 -0.84509,-4.28932 -13.67243,1.22351 -22.87297,9.83017 -11.41543,10.67857 -13.69955,16.44886 -16.28758,41.14671 -1.0374,9.9 -3.26042,28.97883 -4.94004,42.3974 -1.67963,13.41856 -3.05387,24.55606 -3.05387,24.75 0,0.19393 8.97344,0.3526 19.94098,0.3526 14.85897,0 25.84581,-1.32168 24.74191,-1.25 z M 462.04387,388.6122 c -0.34938,-10.3125 -0.85463,-22.35 -1.12277,-26.75 -0.50868,-8.34698 -1.22638,-26.05865 -2.33677,-57.66727 -0.36067,-10.26699 -0.96753,-18.97877 -1.34859,-19.35949 -0.38106,-0.38073 -6.68106,-2.19477 -14,-4.03119 -21.58509,-5.41601 -26.83091,-7.09605 -28.32751,-9.07223 -0.77883,-1.0284 -1.43036,-2.20732 -1.44786,-2.61982 -0.0175,-0.4125 -0.65866,-0.75 -1.42481,-0.75 -1.53466,0 -2.60699,-2.10319 -2.60699,-5.11317 0,-2.91084 -2.12014,-3.19291 -7.3024,-0.97153 -15.1184,6.4805 -37.35212,6.55325 -53.48462,0.17501 -6.68546,-2.64321 -7.21298,-2.61923 -7.21298,0.3279 0,3.33605 -0.98089,5.58179 -2.43801,5.58179 -0.67322,0 -1.82183,1.11699 -2.55247,2.48221 -1.08108,2.02001 -3.67282,3.20989 -13.91898,6.39024 -6.9248,2.14942 -15.96554,4.68992 -20.09054,5.64556 -4.125,0.95564 -7.8376,2.04012 -8.25021,2.40997 -0.73337,0.65734 -2.05506,24.54177 -3.24121,58.57202 -0.3259,9.35 -1.00337,27.08829 -1.50548,39.41843 -0.50212,12.33014 -0.68167,22.79264 -0.399,23.25 0.28266,0.45736 39.46875,0.83157 87.08019,0.83157 l 86.56625,0 z m -154.06103,5.55034 c -2.28423,-1.96481 -2.7846,-3.19439 -2.7359,-6.72306 0.0894,-6.47942 5.03481,-10.86873 15.90431,-14.11597 3.92584,-1.17283 4.33004,-1.63084 5.75,-6.51532 2.14804,-7.38901 2.00185,-7.98724 -2.26421,-9.26538 -7.76298,-2.32585 -11.93339,-9.97355 -10.0493,-18.42842 2.15016,-9.64883 10.26198,-15.83022 17.2533,-13.14741 0.86682,0.33264 2.14093,0.82939 1.82821,1.33538 -0.31273,0.506 -0.19764,0.85555 0.25574,0.7768 4.56334,3.55526 6.00081,6.5255 5.22363,16.80158 -0.45895,6.06842 -0.29708,7.48146 0.85706,7.48146 2.49521,0 1.71125,4.91149 -0.97966,6.13755 -2.45232,1.11735 -5.61997,9.17326 -4.17513,10.6181 0.38406,0.38406 2.80865,-0.41634 5.38799,-1.77868 3.96659,-2.09505 5.22935,-3.55629 8.18969,-9.47697 2.29847,-4.59695 4.66647,-7.77241 6.89788,-9.25 3.56573,-2.36114 9.92885,-3.02327 11.73139,-1.22073 0.7057,0.7057 1.94747,0.55045 3.95,-0.49384 1.6064,-0.83771 3.75746,-1.52588 4.78014,-1.52927 2.14259,-0.007 2.06133,1.26996 -0.93573,14.70642 -1.00752,4.51692 -1.50675,8.53768 -1.10941,8.93502 1.23267,1.23267 8.34961,-6.58502 9.52786,-10.46599 2.11754,-6.9749 8.41153,-12.18161 14.72539,-12.18161 4.8009,0 7.43248,2.25837 7.43248,6.3784 0,3.86228 -2.7067,8.6216 -4.90324,8.6216 -2.84763,0 -4.45194,-2.46782 -3.16615,-4.87034 2.86198,-5.34767 -0.89354,-5.67551 -4.34918,-0.37966 -5.61905,8.61132 -3.90371,16.09584 3.37594,14.73018 1.9361,-0.36322 5.55861,-2.15674 8.05003,-3.98561 4.4039,-3.23276 4.5796,-3.5713 6.31868,-12.1748 3.01504,-14.91586 8.41318,-25.95458 14.02896,-28.68796 3.9929,-1.94347 6.27365,-1.02644 7.9595,3.20029 1.8766,4.705 0.50417,9.57205 -5.28319,18.73568 -2.29864,3.63965 -3.95155,6.84535 -3.67313,7.12377 0.27843,0.27843 3.39255,-1.55341 6.92028,-4.07074 l 6.41405,-4.57698 2.24609,2.39086 2.2461,2.39085 -8.08556,5.6657 c -8.69225,6.09082 -8.67206,6.03452 -4.08972,11.40205 l 2.04319,2.3933 3.52295,-1.8933 c 1.93762,-1.04131 4.70996,-3.13079 6.16076,-4.64329 3.53643,-3.68682 4.26364,-3.47536 4.26364,1.23979 0,3.70381 -0.3763,4.23961 -5.25,7.47524 -2.8875,1.91701 -6.79642,3.79464 -8.68648,4.17251 -3.24754,0.64928 -3.72728,0.362 -8.72573,-5.22524 l -5.28926,-5.9123 -0.0243,5.75 -0.0242,5.75 -3.525,0 c -3.10097,0 -3.59576,-0.35379 -4.11322,-2.94108 l -0.58821,-2.94107 -4.07301,2.57118 c -2.8391,1.79225 -5.96891,2.72336 -10.33125,3.07352 -6.01807,0.48308 -6.38309,0.37752 -9.51111,-2.75051 -2.61968,-2.61967 -3.5551,-3.03196 -4.80553,-2.11803 -7.85735,5.74286 -11.90693,6.57985 -14.42707,2.98185 l -1.4878,-2.12414 -3.43694,2.12414 c -4.80759,2.97126 -7.90181,2.6987 -11.53357,-1.01596 l -3.07003,-3.14009 -5.57596,2.64009 c -3.06679,1.45206 -6.2596,2.6401 -7.09515,2.6401 -0.83554,0 -2.28574,1.39472 -3.22266,3.09937 -6.17668,11.23802 -10.5172,15.59045 -16.51911,16.56442 -2.5817,0.41895 -3.9658,-0.002 -6.13011,-1.86345 z m 9.14645,-7.05034 c 3.25835,-3.57737 4.66011,-6.75 2.98235,-6.75 -2.50781,0 -8.17649,4.52312 -8.50262,6.78436 -0.43127,2.99022 2.78365,2.97021 5.52027,-0.0344 z m 45.82041,-20.07113 c 4.20038,-4.20038 5.5139,-9.87769 2.94268,-12.71886 -2.50174,-2.76439 -4.88263,-2.43942 -7.83513,1.06943 -3.06397,3.64132 -4.29602,9.21048 -2.77577,12.54709 1.50506,3.30324 3.72749,3.04307 7.66822,-0.89766 z m -31.18481,-21.52985 c 1.2045,-7.59715 0.20232,-11.97573 -2.92042,-12.75948 -3.2922,-0.82629 -6.16057,1.79999 -7.09669,6.49775 -1.5394,7.72526 1.20084,12.21837 7.17476,11.76428 1.60627,-0.1221 2.15892,-1.19199 2.84235,-5.50255 z m 91.94745,-2.39902 c 2.69492,-4.62987 4.39999,-10.75 2.99495,-10.75 -1.12996,0 -4.79607,7.52602 -5.72389,11.75034 -0.95699,4.35718 -0.23561,4.09274 2.72894,-1.00034 z m -29.71646,-83.81075 c 16.03288,-4.87624 30.94005,-15.96117 40.60578,-30.19435 5.79921,-8.53957 10.94168,-22.66031 11.56082,-31.7449 l 0.51114,-7.5 -5.04478,-0.005 c -4.29659,-0.005 -5.95701,-0.63494 -11.19581,-4.25 -3.383,-2.33495 -6.48381,-4.245 -6.89062,-4.245 -0.40681,0 -2.06135,1.40542 -3.67675,3.12316 -7.03022,7.4756 -14.19764,7.39151 -20.63439,-0.2421 -2.26368,-2.68458 -4.62331,-4.88106 -5.24363,-4.88106 -0.62032,0 -1.86501,1.2375 -2.76599,2.75 -0.90097,1.5125 -3.27436,4.65234 -5.27419,6.97741 -7.77039,9.03411 -16.15141,7.85007 -24.19196,-3.41775 -2.47637,-3.47031 -4.87474,-6.30966 -5.32972,-6.30966 -0.45498,0 -2.55298,1.95313 -4.66222,4.34028 -2.10925,2.38716 -4.88118,4.89602 -6.15985,5.57525 -3.88727,2.06492 -9.39276,0.47003 -13.73783,-3.97973 -2.11376,-2.16469 -4.16891,-3.9358 -4.567,-3.9358 -0.39809,0 -3.42336,1.86285 -6.72282,4.13966 -4.58323,3.16269 -7.22801,4.25775 -11.20655,4.64004 l -5.20753,0.50037 0.56398,6.72716 c 1.13838,13.5786 8.74874,30.15433 19.16259,41.73703 5.58368,6.2104 17.71733,14.65072 25.82584,17.96479 13.6308,5.5711 30.5029,6.42085 44.28157,2.2302 z M 369.429,239.23875 c -5.56651,-2.21971 -10.00043,-8.43307 -10.00043,-14.01398 l 0,-3.23675 2.75,2.5649 c 4.14527,3.86627 6.73032,4.87853 12.63871,4.9491 5.40634,0.0646 11.43735,-2.02038 13.68774,-4.73193 2.81152,-3.38768 3.94919,0.089 1.73271,5.29506 -3.51332,8.25208 -12.82491,12.35714 -20.80865,9.1736 z m -31.53523,-27.82807 c -4.26232,-1.72769 -5.95814,-6.28905 -4.21185,-11.32886 2.1002,-6.06118 11.5744,-7.29654 15.70324,-2.04758 5.83858,7.42255 -2.43119,17.04889 -11.49139,13.37644 z m 65.39078,-0.56488 c -5.64424,-3.06626 -5.52292,-12.05315 0.2027,-15.01398 3.71229,-1.9197 6.47791,-1.85639 10.00841,0.22913 3.79422,2.2413 5.08906,6.0244 3.42034,9.99312 -2.4425,5.80899 -8.09886,7.79732 -13.63145,4.79173 z m -274.35598,39.5164 c 0.33992,-0.55 0.14148,-1 -0.44098,-1 -0.58246,0 -1.05902,0.45 -1.05902,1 0,0.55 0.19845,1 0.44099,1 0.24254,0 0.7191,-0.45 1.05901,-1 z m 177.84909,-24.75582 c 0.25692,-0.41571 -0.67717,-3.45321 -2.07575,-6.75 -1.39859,-3.2968 -3.14379,-8.46918 -3.87823,-11.49418 -1.55406,-6.40084 -3.02959,-25 -1.98333,-25 0.39184,0 2.92698,0.72434 5.63366,1.60965 4.75615,1.55566 5.06435,1.53506 9.18789,-0.61413 2.34667,-1.22308 5.90643,-3.52243 7.91057,-5.10965 2.00415,-1.58723 4.49796,-2.88587 5.5418,-2.88587 1.04383,0 3.88527,2.025 6.3143,4.5 6.24746,6.36569 9.35463,6.24278 15.08087,-0.59659 4.29529,-5.13025 7.33086,-7.05476 9.70346,-6.15184 0.70639,0.26881 3.81146,3.84651 6.90016,7.95043 8.80399,11.69776 11.61043,11.67118 20.24453,-0.19178 7.33089,-10.0724 8.55697,-10.1813 16.69348,-1.48271 3.00212,3.2095 5.4772,4.97249 6.98096,4.97249 1.34392,0 4.4738,-1.9042 7.39654,-4.5 2.78672,-2.475 5.99948,-4.5 7.13948,-4.5 1.13999,0 3.77904,1.35144 5.86456,3.0032 2.08552,1.65176 5.72269,3.86766 8.0826,4.92423 4.19439,1.87788 4.40013,1.87946 9.16162,0.0702 6.07376,-2.30785 6.24246,-2.00257 5.47129,9.90055 -0.63783,9.84498 -2.70715,18.75555 -6.17856,26.60502 -1.29936,2.93807 -2.10263,5.60178 -1.78506,5.91935 0.31757,0.31758 2.22396,0.57741 4.23642,0.57741 2.62721,0 4.33321,-0.71764 6.04984,-2.54491 2.17366,-2.31375 2.87071,-2.48494 7.67431,-1.88477 5.04946,0.63088 5.28987,0.55535 5.42739,-1.7051 0.45775,-7.52463 -0.43708,-52.36843 -1.15009,-57.63586 -1.59313,-11.76937 -5.31255,-16.18507 -13.65784,-16.21462 l -4.16403,-0.0147 -0.10464,-12.49393 c -0.0575,-6.87166 -0.58091,-13.50916 -1.16301,-14.75 -3.45759,-7.37027 -29.03526,-19.918736 -49.57001,-24.319157 -17.45298,-3.740023 -42.60951,-1.838494 -61.31222,4.634462 -10.97583,3.798705 -30.01012,14.966995 -32.71208,19.193675 -0.4342,0.67922 -1.01907,7.30995 -1.29971,14.73495 l -0.51026,13.5 -5,0.51781 c -6.23928,0.64616 -7.04003,1.16024 -9.58863,6.15591 -2.65119,5.19677 -3.85585,20.13667 -3.88769,48.21396 l -0.0237,20.88768 5.49911,-0.64631 c 5.03132,-0.59133 5.68466,-0.43291 7.68033,1.86232 1.60576,1.84678 3.1734,2.50863 5.94188,2.50863 2.06835,0 3.97085,-0.34012 4.22777,-0.75582 z"
       id="path4158"
       inkscape:connector-curvature="0"
       sodipodi:nodetypes="cccsssccssssssscsscccssssssssssccsssssssssssssssscsscscccssssscscssssssssscsssssssssssssssscccsscsssssscccsscssssscsscsssscccsscssssssssssssssccsscccsssssssssssssscssscccscsssscsssssssssscsssccssssssssscssssssssssscsssssccsssssscssscsssc" />
  </g>
</svg>
