<?xml version="1.0" encoding="UTF-8" standalone="no"?>
<!-- Created with Inkscape (http://www.inkscape.org/) -->

<svg
   xmlns:dc="http://purl.org/dc/elements/1.1/"
   xmlns:cc="http://creativecommons.org/ns#"
   xmlns:rdf="http://www.w3.org/1999/02/22-rdf-syntax-ns#"
   xmlns:svg="http://www.w3.org/2000/svg"
   xmlns="http://www.w3.org/2000/svg"
   xmlns:sodipodi="http://sodipodi.sourceforge.net/DTD/sodipodi-0.dtd"
   xmlns:inkscape="http://www.inkscape.org/namespaces/inkscape"
   width="89.507774mm"
   height="88.658821mm"
   viewBox="0 0 317.15353 314.14543"
   id="svg2"
   version="1.1"
   inkscape:version="0.92.2 5c3e80d, 2017-08-06"
   sodipodi:docname="jacklabel_stamp.svg">
  <defs
     id="defs4" />
  <sodipodi:namedview
     id="base"
     pagecolor="#ffffff"
     bordercolor="#666666"
     borderopacity="1.0"
     inkscape:pageopacity="0.0"
     inkscape:pageshadow="2"
     inkscape:zoom="0.7"
     inkscape:cx="56.965427"
     inkscape:cy="-193.05621"
     inkscape:document-units="px"
     inkscape:current-layer="layer1"
     showgrid="false"
     inkscape:window-width="1920"
     inkscape:window-height="1155"
     inkscape:window-x="1680"
     inkscape:window-y="1"
     inkscape:window-maximized="1"
     fit-margin-top="0"
     fit-margin-left="0"
     fit-margin-right="0"
     fit-margin-bottom="0" />
  <metadata
     id="metadata7">
    <rdf:RDF>
      <cc:Work
         rdf:about="">
        <dc:format>image/svg+xml</dc:format>
        <dc:type
           rdf:resource="http://purl.org/dc/dcmitype/StillImage" />
        <dc:title></dc:title>
      </cc:Work>
    </rdf:RDF>
  </metadata>
  <g
     inkscape:label="Layer 1"
     inkscape:groupmode="layer"
     id="layer1"
     transform="translate(-173.56609,-453.32522)">
    <path
       style="fill:none;stroke:#000000;stroke-width:1.30783391"
       d="m 291.09561,765.87035 c -4.15259,-1.02069 -5.88525,-3.0296 -5.88525,-6.82339 0,-5.27666 3.85065,-17.37264 6.47783,-20.34867 1.97164,-2.23345 2.62708,-8.15778 4.48541,-40.54285 1.197,-20.85995 2.49889,-40.62692 2.8931,-43.92662 0.7164,-5.99663 0.715,-5.99917 -3.04766,-5.44691 -6.92314,1.01609 -7.29813,-0.74251 -6.6259,-31.0734 0.33455,-15.09476 0.45512,-27.29191 0.26797,-27.10473 -0.18716,0.18716 -1.87687,8.99212 -3.75487,19.56662 -2.37354,13.36455 -3.15288,21.19906 -2.55621,25.69696 0.93527,7.05034 -2.49498,18.98174 -5.20036,18.08827 -0.79214,-0.26164 -1.7661,-3.26513 -2.16439,-6.67444 -0.78907,-6.75449 -2.73829,-8.83917 -7.77678,-8.31709 -2.97571,0.30837 -3.32935,1.00985 -3.93468,7.80465 -0.62372,7.00155 -2.84761,11.69056 -4.67691,9.86126 -1.53539,-1.53536 -2.67155,-16.56086 -1.42991,-18.91031 0.68022,-1.28717 2.62297,-3.83719 4.31722,-5.66674 2.79663,-3.01993 3.44389,-6.39407 7.02481,-36.61934 5.22558,-44.10733 4.94687,-42.67833 9.28895,-47.6237 4.28794,-4.88368 6.70017,-5.988 21.61073,-9.89345 8.29094,-2.17158 10.99088,-3.47309 12.30716,-5.93257 1.56862,-2.93094 1.22915,-3.63397 -4.86717,-10.07994 -8.47406,-8.96005 -12.95141,-21.85288 -7.85699,-22.62469 1.29631,-0.19639 3.74358,-1.26565 5.43835,-2.37611 2.69907,-1.7685 3.27846,-1.78161 4.66933,-0.10563 2.1135,2.54662 5.08337,2.41624 8.14853,-0.3577 2.40264,-2.17437 2.62038,-2.11872 5.11645,1.30784 3.24323,4.45226 5.8433,4.51756 10.28888,0.25841 3.06595,-2.93735 3.6585,-3.08823 5.1361,-1.30783 2.1135,2.54661 7.08071,2.60083 9.15627,0.0999 1.37613,-1.65814 2.07702,-1.55062 5.26714,0.80792 2.02387,1.49634 4.32427,2.3223 5.11195,1.83548 2.55627,-1.57988 1.54911,6.15627 -1.71375,13.16383 -1.71621,3.68583 -5.24159,8.39404 -7.83419,10.46266 -4.83862,3.86073 -6.08584,8.18786 -3.0791,10.68251 0.89914,0.74602 7.19245,2.91888 13.98514,4.82857 13.99609,3.9349 18.49734,6.61817 21.38213,12.74624 1.17459,2.49514 3.79317,19.24623 6.2871,40.21854 l 4.27406,35.94237 4.47407,5.86134 c 4.29365,5.625 4.43855,6.17966 3.59325,13.75533 -0.48445,4.3417 -1.37772,8.4018 -1.98507,9.02246 -2.00349,2.04755 -3.94568,-0.55088 -4.07814,-5.45613 -0.21232,-7.8617 -1.65108,-11.32486 -4.89963,-11.79371 -4.26158,-0.61505 -6.74052,2.03751 -6.74052,7.21264 0,5.88055 -2.40649,10.67372 -4.06905,8.10453 -3.03419,-4.68886 -5.08729,-14.846 -3.79337,-18.76665 1.02313,-3.10009 0.45041,-8.47173 -2.58532,-24.24766 l -3.8996,-20.26536 0.70559,27.70742 c 0.69744,27.38783 0.67303,27.72481 -2.11489,29.21687 -1.55124,0.83021 -3.93733,1.21739 -5.30241,0.86042 -3.12211,-0.81645 -3.12633,-2.7106 0.10563,47.23904 2.24753,34.73657 2.87476,40.0268 5.07791,42.82762 3.60308,4.58061 7.33322,20.5407 5.57048,23.83443 -1.51473,2.8303 -6.59643,4.21786 -15.44707,4.21786 -8.55457,0 -10.26566,-1.46666 -12.85009,-11.01435 -2.1032,-7.76981 -2.12602,-8.98155 -0.27524,-14.60341 1.96487,-5.96838 1.82479,-7.25021 -5.2947,-48.45502 -5.02305,-29.07118 -7.82458,-42.32443 -8.94677,-42.32443 -2.21842,0 -2.08397,-0.61762 -9.64678,44.30725 -5.39685,32.05833 -6.42234,40.49268 -5.31103,43.68063 0.75748,2.17293 1.37726,6.12356 1.37726,8.77912 0,6.10945 -3.26005,17.09536 -5.4934,18.51202 -1.79964,1.14153 -14.28961,1.25629 -18.70152,0.17184 z m 17.02016,-182.64873 c 2.26932,-3.46339 8.04208,-6.50383 9.09964,-4.79264 0.93759,1.51702 12.23293,1.4872 13.17357,-0.0349 0.40259,-0.65136 2.04289,-0.32535 3.64516,0.72451 2.52038,1.65141 3.39296,1.6599 6.47099,0.0629 1.95676,-1.01517 3.55775,-1.29217 3.55775,-0.61552 0,0.67665 0.58852,1.23029 1.30783,1.23029 0.71931,0 1.30783,-1.308 1.30783,-2.90669 v -2.90666 l 2.03591,2.90666 c 2.23995,3.19799 5.7325,3.76998 8.1652,1.33728 2.48738,-2.48738 1.82387,-3.84303 -1.01362,-2.07097 -2.05331,1.28234 -2.91948,1.27669 -4.22362,-0.0275 -1.31555,-1.31556 -0.86857,-2.27139 2.25606,-4.82459 4.14516,-3.38707 2.88004,-4.604 -1.41167,-1.35792 -3.9936,3.0206 -4.94506,2.32727 -1.97968,-1.44262 2.65967,-3.38122 3.56413,-8.34289 1.83585,-10.07118 -1.74823,-1.74825 -5.5245,3.45165 -7.1704,9.8736 -1.68454,6.57274 -6.08588,11.30305 -8.89919,9.56434 -1.96269,-1.21301 -1.68114,-5.33843 0.48714,-7.13796 1.47133,-1.2211 1.96785,-1.05223 2.41326,0.82075 0.53429,2.24672 0.61027,2.24375 1.60769,-0.0625 0.67492,-1.56062 0.44047,-2.7955 -0.65988,-3.47554 -2.57622,-1.59219 -4.81322,-0.22961 -7.72486,4.7052 -3.42884,5.81149 -5.35233,5.75571 -4.02786,-0.11676 0.5678,-2.51757 0.80009,-4.63627 0.51618,-4.7082 -0.28391,-0.0719 -1.9875,-0.13078 -3.78577,-0.13078 -5.37559,0 -5.52316,0.0859 -8.32763,4.83898 -2.95572,5.00958 -6.93341,6.35879 -5.78356,1.96176 0.3762,-1.43861 1.06099,-2.61566 1.52178,-2.61566 0.46077,0 0.6262,-2.65987 0.36765,-5.91082 -0.59218,-7.44551 -3.97758,-9.93176 -8.01969,-5.88967 -3.74611,3.74612 -3.44787,8.87536 0.62395,10.73061 5.18877,2.36416 4.11368,5.80643 -2.94262,9.42189 -2.52911,1.29584 -4.25047,3.17936 -4.25047,4.65092 0,5.02191 6.10735,3.94626 9.82708,-1.7308 z m -7.21142,2.06775 c 0,-1.37541 2.84055,-4.18506 4.23108,-4.18506 0.60075,0 0.46235,1.17705 -0.30757,2.61566 -1.38233,2.58288 -3.92351,3.59936 -3.92351,1.5694 z m 18.91382,-8.42059 c -0.91045,-2.37258 1.42339,-7.53498 3.40643,-7.53498 2.73173,0 2.82077,4.2126 0.14565,6.88777 -2.40153,2.40154 -2.84763,2.48282 -3.55202,0.64721 z m -14.58558,-9.67449 c -0.87293,-2.27484 1.05901,-6.36143 3.00739,-6.36143 0.64091,0 1.3497,1.91272 1.57512,4.25047 0.30756,3.18986 -0.11063,4.25047 -1.67585,4.25047 -1.14712,0 -2.45511,-0.96278 -2.90666,-2.13951 z m 43.51561,-1.784 c 0.97024,-3.64234 1.58873,-4.62454 2.40074,-3.81254 0.30079,0.30079 -0.31227,2.01733 -1.36237,3.81452 l -1.90931,3.26761 z m -15.89535,-46.52151 c 1.13036,-1.13035 2.05519,-2.17585 2.05519,-2.32335 0,-0.14746 -2.64649,-0.25257 -5.88109,-0.23354 -6.23787,0.0367 -7.34373,1.01936 -3.60071,3.19946 3.22855,1.88046 5.06226,1.72181 7.42661,-0.64257 z m -13.88641,-14.0543 c -0.31402,-2.20573 -1.29356,-2.85412 -4.3119,-2.85412 -4.63701,0 -6.21213,4.0842 -2.59514,6.72901 3.18525,2.3291 7.44968,-0.0632 6.90704,-3.87489 z m 28.18505,2.3772 c 1.23538,-3.21933 -0.54188,-5.88525 -3.92349,-5.88525 -1.74389,0 -3.50947,0.88279 -3.92351,1.96175 -1.23539,3.21935 0.54188,5.88525 3.92351,5.88525 1.74387,0 3.50945,-0.88278 3.92349,-1.96175 z m -52.13239,7.19309 c -0.44456,-0.7193 -1.9506,-1.30782 -3.34677,-1.30782 -2.34241,0 -2.53847,-1.00359 -2.53847,-12.9932 0,-14.76908 1.30181,-19.70265 5.19896,-19.70265 2.25254,0 2.64804,-0.84874 2.64804,-5.68257 0,-6.74921 1.55655,-8.44155 12.45988,-13.5469 6.75907,-3.16482 9.41523,-3.65763 19.71431,-3.65763 11.0208,0 12.57137,0.33987 20.92536,4.58672 l 9.02256,4.58673 0.39531,6.85682 c 0.32409,5.6218 0.82527,6.85683 2.78247,6.85683 4.51421,0 5.76895,3.61936 6.37782,18.3972 0.56763,13.77647 0.4903,14.29865 -2.11735,14.29865 -1.48856,0 -3.0702,0.58852 -3.51475,1.30782 -0.44456,0.71931 -1.72015,1.30784 -2.83465,1.30784 -1.57328,0 -1.80994,-0.80414 -1.05853,-3.59654 1.80007,-6.68959 2.78325,-12.81165 2.2934,-14.2811 -0.26806,-0.80421 -1.65559,-1.15671 -3.08336,-0.78334 -1.49652,0.39135 -3.71796,-0.33652 -5.24518,-1.71863 -2.15511,-1.95037 -3.0618,-2.1013 -4.86137,-0.80939 -4.35384,3.12569 -5.65774,3.16992 -8.71715,0.29576 l -3.10233,-2.91447 -4.02132,4.38381 -4.02131,4.38381 -3.82759,-4.57127 -3.82758,-4.57128 -3.35469,3.15159 c -3.28144,3.08275 -3.41331,3.09855 -6.03708,0.72405 -2.58623,-2.3405 -2.82441,-2.3436 -6.6451,-0.0866 -2.17951,1.28746 -5.09826,2.04387 -6.48617,1.68093 -2.10664,-0.55088 -2.51395,0.0219 -2.46604,3.46813 0.0315,2.27043 0.9055,6.48213 1.94207,9.35938 1.03654,2.87722 1.89351,5.37846 1.90435,5.55828 0.0585,0.97318 -3.87299,0.12703 -4.55774,-0.98087 z"
       id="path4162"
       inkscape:connector-curvature="0" />
    <path
       inkscape:connector-curvature="0"
       id="path3331"
       d="m 175.16641,574.38958 c 1.0207,-4.15258 3.02959,-5.88525 6.82339,-5.88525 5.27665,0 17.37265,3.85066 20.34867,6.47784 2.23345,1.97163 8.15778,2.62707 40.54285,4.48541 20.85995,1.19699 40.62693,2.49888 43.92663,2.89309 5.99662,0.71641 5.99916,0.71501 5.44688,-3.04766 -1.01608,-6.92314 0.74253,-7.29813 31.0734,-6.62591 15.09478,0.33456 27.29193,0.45514 27.10476,0.268 -0.18719,-0.18719 -8.99215,-1.87688 -19.56663,-3.75488 -13.36455,-2.37354 -21.19906,-3.15288 -25.69698,-2.55622 -7.05034,0.93526 -18.9817,-2.49498 -18.08825,-5.20035 0.26163,-0.79215 3.26512,-1.7661 6.67443,-2.16441 6.75448,-0.78906 8.83917,-2.73829 8.31709,-7.77676 -0.30835,-2.97572 -1.00984,-3.32936 -7.80463,-3.93469 -7.00154,-0.62372 -11.69057,-2.84761 -9.86126,-4.67691 1.53537,-1.53537 16.56085,-2.67155 18.91031,-1.4299 1.28715,0.68021 3.83718,2.62298 5.66673,4.31723 3.01994,2.79661 6.39407,3.44389 36.61935,7.0248 44.10734,5.22557 42.6783,4.94686 47.62368,9.28894 4.88369,4.28795 5.988,6.70017 9.89347,21.61073 2.17157,8.29094 3.47307,10.99088 5.93257,12.30716 2.93094,1.56862 3.63396,1.22915 10.07994,-4.86716 8.96004,-8.47406 21.85287,-12.95142 22.62469,-7.857 0.19638,1.29631 1.26563,3.74358 2.37609,5.43835 1.76852,2.69907 1.78162,3.27846 0.10563,4.66935 -2.54662,2.11348 -2.41624,5.08335 0.35768,8.14851 2.17438,2.40265 2.11873,2.62039 -1.30782,5.11645 -4.45226,3.24326 -4.51758,5.8433 -0.25841,10.28889 2.93734,3.06594 3.08824,3.6585 1.30782,5.1361 -2.54661,2.11349 -2.60083,7.0807 -0.0999,9.15627 1.65814,1.37612 1.55061,2.07701 -0.80794,5.26714 -1.49632,2.02387 -2.32229,4.32426 -1.83547,5.11194 1.57987,2.55627 -6.15628,1.54911 -13.16383,-1.71375 -3.68583,-1.7162 -8.39403,-5.24159 -10.46267,-7.83419 -3.86072,-4.83859 -8.18784,-6.08584 -10.6825,-3.07909 -0.74601,0.89913 -2.91889,7.19244 -4.82856,13.98514 -3.93491,13.99608 -6.61819,18.49736 -12.74625,21.38212 -2.49514,1.17459 -19.24624,3.79317 -40.21854,6.2871 l -35.94239,4.27407 -5.86133,4.47406 c -5.62499,4.29365 -6.17967,4.43856 -13.75532,3.59326 -4.3417,-0.48446 -8.40181,-1.37772 -9.02247,-1.98507 -2.04754,-2.00351 0.55087,-3.94568 5.45613,-4.07815 7.8617,-0.21232 11.32486,-1.65108 11.79371,-4.89962 0.61505,-4.26159 -2.03751,-6.74052 -7.21264,-6.74052 -5.88054,0 -10.67373,-2.40649 -8.10453,-4.06905 4.68888,-3.0342 14.846,-5.08729 18.76664,-3.79338 3.10011,1.02314 8.47175,0.45042 24.24769,-2.58532 l 20.26534,-3.8996 -27.7074,0.70559 c -27.38785,0.69744 -27.72483,0.67305 -29.21689,-2.11488 -0.83021,-1.55123 -1.21738,-3.93734 -0.86042,-5.30242 0.81647,-3.1221 2.7106,-3.12633 -47.23904,0.10563 -34.73655,2.24754 -40.02679,2.87479 -42.82762,5.07791 -4.58061,3.60309 -20.54071,7.33324 -23.83442,5.57048 -2.8303,-1.5147 -4.21786,-6.59643 -4.21786,-15.44707 0,-8.55455 1.46665,-10.26563 11.01435,-12.85009 7.76981,-2.10319 8.98155,-2.12601 14.6034,-0.27522 5.96838,1.96485 7.25022,1.82479 48.45501,-5.2947 29.07118,-5.02305 42.32444,-7.8246 42.32444,-8.94679 0,-2.21842 0.61763,-2.08397 -44.30724,-9.64678 -32.05835,-5.39683 -40.4927,-6.42234 -43.68064,-5.31102 -2.17294,0.75747 -6.12354,1.37726 -8.77911,1.37726 -6.10945,0 -17.09536,-3.26006 -18.51201,-5.49341 -1.14154,-1.79963 -1.2563,-14.2896 -0.17185,-18.70151 z m 182.64873,17.02017 c 3.46339,2.26931 6.50383,8.04207 4.79264,9.09963 -1.51702,0.93759 -1.4872,12.23293 0.0349,13.17358 0.65136,0.40259 0.32535,2.04288 -0.72451,3.64515 -1.65141,2.5204 -1.6599,3.39297 -0.063,6.47099 1.01517,1.95676 1.29215,3.55775 0.6155,3.55775 -0.67665,0 -1.23027,0.58853 -1.23027,1.30784 0,0.7193 1.308,1.30782 2.90667,1.30782 h 2.90667 l -2.90667,2.03592 c -3.19797,2.23994 -3.76996,5.7325 -1.33726,8.1652 2.48738,2.48738 3.84301,1.82388 2.07097,-1.01363 -1.28234,-2.05331 -1.27671,-2.91947 0.0275,-4.22361 1.31555,-1.31555 2.27137,-0.86856 4.82457,2.25606 3.38707,4.14517 4.60401,2.88003 1.35793,-1.41167 -3.0206,-3.9936 -2.32728,-4.94507 1.44263,-1.97968 3.38122,2.65966 8.34289,3.56413 10.07117,1.83585 1.74824,-1.74824 -3.45165,-5.5245 -9.87361,-7.1704 -6.57273,-1.68454 -11.30304,-6.08588 -9.56434,-8.89918 1.21302,-1.9627 5.33845,-1.68116 7.13797,0.48713 1.22111,1.47133 1.05223,1.96785 -0.82076,2.41327 -2.2467,0.53427 -2.24374,0.61026 0.0625,1.60768 1.56062,0.67491 2.7955,0.44047 3.47554,-0.65989 1.59219,-2.57622 0.22962,-4.81321 -4.70519,-7.72485 -5.8115,-3.42885 -5.75572,-5.35234 0.11675,-4.02787 2.51758,0.56781 4.63626,0.80009 4.7082,0.51619 0.0719,-0.28392 0.13078,-1.9875 0.13078,-3.78576 0,-5.37559 -0.0859,-5.52317 -4.83898,-8.32764 -5.00957,-2.95573 -6.35878,-6.93342 -1.96175,-5.78356 1.43861,0.3762 2.61566,1.06098 2.61566,1.52178 0,0.46076 2.65985,0.62621 5.9108,0.36765 7.44551,-0.59219 9.93178,-3.97759 5.88969,-8.0197 -3.74612,-3.74611 -8.87537,-3.44787 -10.73061,0.62395 -2.36418,5.18877 -5.80643,4.11368 -9.42191,-2.94262 -1.29583,-2.5291 -3.17936,-4.25047 -4.6509,-4.25047 -5.02193,0 -3.94627,6.10735 1.7308,9.82709 z m -2.06775,-7.2114 c 1.37541,0 4.18506,2.84055 4.18506,4.23105 0,0.60076 -1.17705,0.46235 -2.61565,-0.30756 -2.58289,-1.38234 -3.59938,-3.92349 -1.56941,-3.92349 z m 8.42059,18.9138 c 2.37258,-0.91045 7.53499,1.42338 7.53499,3.40642 0,2.73173 -4.2126,2.82079 -6.88778,0.14566 -2.40154,-2.40153 -2.48282,-2.84764 -0.64721,-3.55201 z m 9.67449,-14.58558 c 2.27484,-0.87294 6.36141,1.05901 6.36141,3.00739 0,0.64091 -1.9127,1.3497 -4.25046,1.57511 -3.18985,0.30757 -4.25045,-0.11063 -4.25045,-1.67584 0,-1.14713 0.96277,-2.4551 2.1395,-2.90666 z m 1.784,43.51561 c 3.64233,0.97023 4.62455,1.58872 3.81252,2.40074 -0.30079,0.30079 -2.01731,-0.31227 -3.8145,-1.36238 l -3.26761,-1.90931 z m 46.52151,-15.89533 c 1.13034,1.13033 2.17584,2.05516 2.32335,2.05516 0.14747,0 0.25258,-2.64649 0.23353,-5.88108 -0.0368,-6.23788 -1.01935,-7.34372 -3.19945,-3.60072 -1.88045,3.22855 -1.72182,5.06226 0.64257,7.42664 z m 14.05428,-13.88644 c 2.20575,-0.31402 2.85415,-1.29356 2.85415,-4.3119 0,-4.63701 -4.0842,-6.21213 -6.72902,-2.59513 -2.32911,3.18524 0.0633,7.44967 3.87487,6.90703 z m -2.3772,28.18505 c 3.21936,1.23539 5.88525,-0.54188 5.88525,-3.92349 0,-1.74389 -0.88278,-3.50947 -1.96174,-3.9235 -3.21934,-1.23539 -5.88525,0.54188 -5.88525,3.9235 0,1.74387 0.88279,3.50946 1.96174,3.92349 z m -7.19308,-52.13238 c 0.71931,-0.44457 1.30783,-1.95061 1.30783,-3.34678 0,-2.3424 1.0036,-2.53847 12.99321,-2.53847 14.76908,0 19.70265,1.30183 19.70265,5.19898 0,2.25252 0.84874,2.64802 5.68254,2.64802 6.74924,0 8.44157,1.55656 13.54691,12.45988 3.16484,6.75907 3.65764,9.41523 3.65764,19.71434 0,11.02078 -0.33988,12.57135 -4.58671,20.92533 l -4.58673,9.02256 -6.85683,0.39531 c -5.62181,0.32411 -6.85682,0.82528 -6.85682,2.78248 0,4.51421 -3.61937,5.76894 -18.3972,6.37783 -13.77648,0.56761 -14.29866,0.49028 -14.29866,-2.11736 0,-1.48856 -0.58852,-3.0702 -1.30783,-3.51476 -0.7193,-0.44456 -1.30783,-1.72013 -1.30783,-2.83465 0,-1.57328 0.80414,-1.80994 3.59654,-1.05853 6.68959,1.80008 12.81164,2.78325 14.28109,2.2934 0.80423,-0.26805 1.15672,-1.65558 0.78335,-3.08336 -0.39136,-1.49652 0.33651,-3.71795 1.71864,-5.24518 1.95035,-2.15509 2.10129,-3.0618 0.80938,-4.86137 -3.12568,-4.35383 -3.16992,-5.65774 -0.29577,-8.71715 l 2.91447,-3.10232 -4.38379,-4.02132 -4.38382,-4.02131 4.57128,-3.82759 4.57126,-3.82758 -3.15159,-3.3547 c -3.08273,-3.28143 -3.09855,-3.4133 -0.72404,-6.03708 2.34049,-2.58623 2.3436,-2.82441 0.0866,-6.6451 -1.28746,-2.1795 -2.04388,-5.09825 -1.68094,-6.48617 0.55089,-2.10663 -0.0218,-2.51395 -3.46813,-2.46603 -2.27042,0.0315 -6.48212,0.90549 -9.35936,1.94206 -2.87725,1.03654 -5.37847,1.89351 -5.55831,1.90435 -0.97317,0.0585 -0.12701,-3.87299 0.98088,-4.55773 z"
       style="fill:none;stroke:#000000;stroke-width:1.30783391" />
    <path
       style="fill:none;stroke:#000000;stroke-width:1.30783391"
       d="m 399.61334,470.57507 c 3.82526,1.91134 5.07225,4.25289 4.2356,7.95329 -1.16363,5.14674 -7.58698,16.09575 -10.80577,18.41915 -2.41565,1.74367 -4.36142,7.3776 -13.31581,38.55556 -5.76772,20.08241 -11.39671,39.07564 -12.50889,42.20718 -2.02119,5.691 -2.02038,5.69379 1.77143,5.98488 6.97677,0.53567 6.95472,2.33368 -0.38976,31.76959 -3.6551,14.64938 -6.46254,26.51964 -6.23872,26.37836 0.22383,-0.14125 3.81367,-8.35685 7.97741,-18.25686 5.26237,-12.51209 7.75024,-19.98187 8.16017,-24.50062 0.64254,-7.08301 6.61955,-17.96419 9.06128,-16.49611 0.71494,0.42986 1.00257,3.57421 0.63923,6.98741 -0.71992,6.76222 0.7216,9.22545 5.75116,9.82733 2.97045,0.35546 3.47008,-0.25076 5.55895,-6.74478 2.1524,-6.69163 5.3556,-10.77478 6.73643,-8.5871 1.15902,1.83615 -1.04634,16.74229 -2.77552,18.76008 -0.94733,1.10547 -3.40461,3.1643 -5.46062,4.57515 -3.39374,2.32887 -4.76916,5.4772 -14.92742,34.16865 -14.82382,41.86907 -14.23682,40.53669 -19.5626,44.40277 -5.25937,3.81783 -7.85572,4.363 -23.26047,4.88413 -8.56571,0.28972 -11.48621,0.96377 -13.31246,3.07243 -2.17635,2.51288 -2.00028,3.27345 2.52444,10.90513 6.2895,10.60823 7.81339,24.17101 2.67419,23.80037 -1.3077,-0.0944 -3.93052,0.40893 -5.82847,1.11831 -3.02261,1.12974 -3.59063,1.01476 -4.57766,-0.9267 -1.49986,-2.95001 -4.42537,-3.47778 -8.02679,-1.4481 -2.823,1.59099 -3.02311,1.48869 -4.70207,-2.40396 -2.18155,-5.05786 -4.7032,-5.69495 -9.9786,-2.52102 -3.63823,2.1889 -4.24948,2.2054 -5.29807,0.14303 -1.49985,-2.94999 -6.33282,-4.09828 -8.90881,-2.11662 -1.70792,1.31384 -2.36785,1.05439 -4.95931,-1.94959 -1.64406,-1.90581 -3.70567,-3.21874 -4.58132,-2.9176 -2.84174,0.97723 -0.15334,-6.34635 4.57456,-12.46182 2.48677,-3.21664 6.96366,-7.03148 9.94862,-8.47745 5.57087,-2.69863 7.74165,-6.64415 5.35907,-9.74046 -0.71248,-0.92595 -6.37168,-4.43317 -12.57601,-7.79382 -12.78375,-6.92453 -16.58246,-10.5344 -18.04481,-17.14777 -0.59543,-2.69274 0.54454,-19.60892 2.73698,-40.61487 l 3.75745,-36.00007 -3.07133,-6.70369 c -2.94748,-6.43338 -2.96651,-7.00635 -0.47137,-14.20909 1.42999,-4.12797 3.19664,-7.89113 3.9259,-8.36258 2.40571,-1.55531 3.72705,1.40745 2.77452,6.22117 -1.52662,7.71496 -0.88702,11.41014 2.17815,12.58384 4.02105,1.53972 7.02391,-0.50088 8.16517,-5.5486 1.29682,-5.73575 4.70109,-9.88024 5.75615,-7.00766 1.92545,5.24256 1.68808,15.60239 -0.43858,19.14116 -1.68161,2.79816 -2.3076,8.16385 -2.82561,24.22087 l -0.66548,20.62638 5.42203,-27.18087 c 5.3595,-26.86736 5.4576,-27.19068 8.50594,-28.03119 1.69613,-0.46768 4.10886,-0.31911 5.36162,0.33009 2.8652,1.48487 2.4516,3.33331 10.31451,-46.09934 5.46815,-34.37702 6.02298,-39.67533 4.49177,-42.89306 -2.50424,-5.26241 -2.62292,-21.65218 -0.17722,-24.47607 2.1016,-2.42659 7.3642,-2.65933 15.99694,-0.70753 8.34394,1.88652 9.68947,3.6944 10.10476,13.57699 0.33797,8.04234 0.093,9.22929 -2.95198,14.30458 -3.23268,5.38815 -3.37874,6.66931 -5.52132,48.42971 -1.51161,29.46319 -1.70177,43.008 -0.6072,43.25546 2.16381,0.48923 1.89646,1.06198 19.18025,-41.08905 12.33372,-30.07894 15.19399,-38.0795 14.81306,-41.43402 -0.25964,-2.28649 0.007,-6.27652 0.59268,-8.86672 1.3473,-5.95903 6.9498,-15.95555 9.44057,-16.84481 2.00707,-0.71656 14.21486,1.92589 18.279,3.95659 z m -56.88022,174.39867 c -2.9772,2.87768 -9.27835,4.5702 -9.9325,2.66793 -0.57996,-1.68645 -11.60382,-4.14831 -12.85695,-2.87119 -0.5363,0.54657 -2.06432,-0.13308 -3.39564,-1.51052 -2.09415,-2.16656 -2.94337,-2.3673 -6.29778,-1.48842 -2.13247,0.55865 -3.75513,0.47576 -3.6059,-0.18423 0.14926,-0.66 -0.30273,-1.32976 -1.00435,-1.48839 -0.70158,-0.15858 -1.56408,0.98738 -1.91662,2.5467 l -0.641,2.83509 -1.34478,-3.28406 c -1.47956,-3.61322 -4.75999,-4.94135 -7.66927,-3.10501 -2.97469,1.8776 -2.62647,3.34619 0.53197,2.24352 2.28554,-0.79796 3.12914,-0.60144 4.11356,0.9582 0.99304,1.5733 0.34627,2.40701 -3.26448,4.20828 -4.79004,2.38957 -3.82442,3.85553 1.07747,1.63582 4.5614,-2.06553 5.33655,-1.17947 1.61282,1.84369 -3.33987,2.71144 -5.31624,7.35148 -4.01164,9.41835 1.31965,2.09075 6.14968,-2.14836 9.17126,-8.04925 3.09254,-6.03942 8.42871,-9.68266 10.7893,-7.36635 1.64688,1.61598 0.46249,5.57777 -2.04925,6.8548 -1.70441,0.86656 -2.15146,0.59236 -2.17287,-1.33274 -0.0256,-2.30922 -0.10038,-2.32308 -1.58187,-0.29362 -1.00245,1.37336 -1.0461,2.62954 -0.12276,3.53549 2.16168,2.12112 4.6441,1.28542 8.57231,-2.8858 4.62602,-4.91228 6.48986,-4.43368 3.90295,1.00209 -1.10902,2.3304 -1.8028,4.34571 -1.54176,4.47848 0.26107,0.13273 1.90973,0.56585 3.66371,0.96241 5.24325,1.18547 5.40614,1.13429 9.18977,-2.88337 3.9877,-4.23444 8.165,-4.67323 6.07378,-0.63803 -0.68418,1.32025 -1.61171,2.31731 -2.06115,2.21568 -0.4494,-0.10162 -1.19734,2.45628 -1.66208,5.68421 -1.06435,7.39279 1.68942,10.56442 6.52342,7.51324 4.48001,-2.82777 5.32025,-7.89651 1.75779,-10.60402 -4.53965,-3.45024 -2.73191,-6.57067 4.94799,-8.54101 2.75259,-0.70619 4.84693,-2.16374 5.17146,-3.59908 1.10748,-4.89827 -5.08673,-5.19594 -9.96683,-0.47893 z m 7.48988,-0.42653 c -0.30331,1.34153 -3.69354,3.45559 -5.04982,3.14895 -0.58598,-0.13241 -0.1914,-1.25003 0.87682,-2.48343 1.9179,-2.21446 4.62066,-2.64552 4.173,-0.66552 z m -20.30514,4.04225 c 0.36481,2.51494 -3.05001,7.03559 -4.98423,6.59828 -2.66448,-0.60242 -1.82235,-4.73094 1.37688,-6.75032 2.87199,-1.81282 3.32505,-1.79373 3.60728,0.15203 z m 12.09301,12.65283 c 0.34976,2.41136 -2.43582,5.97128 -4.33623,5.5416 -0.62512,-0.14141 -0.89465,-2.16327 -0.59899,-4.49317 0.40346,-3.17915 1.0453,-4.12141 2.57193,-3.77624 1.11889,0.25296 2.18234,1.48048 2.36329,2.72781 z m -42.83772,-7.85631 c -1.74959,3.33872 -2.56945,4.16034 -3.18238,3.18926 -0.22707,-0.35972 0.74943,-1.89879 2.17001,-3.42017 l 2.58292,-2.7661 z m 5.24475,48.88155 c -1.3518,0.85324 -2.48441,1.66906 -2.51695,1.81293 -0.0325,0.14386 2.52563,0.82999 5.6848,1.52473 6.09241,1.33975 7.38772,0.62523 4.21762,-2.32663 -2.73437,-2.54614 -4.55792,-2.7958 -7.38547,-1.01103 z m 10.44518,16.77063 c -0.18014,2.22069 0.63229,3.06913 3.57634,3.73477 4.52284,1.02257 6.95986,-2.6137 4.01516,-5.99106 -2.59319,-2.97421 -7.28021,-1.58116 -7.5915,2.25629 z m -26.96692,-8.53425 c -1.91491,2.86766 -0.76932,5.85987 2.52904,6.60559 1.70097,0.38459 3.61774,-0.0871 4.25954,-1.04821 1.91491,-2.86765 0.76931,-5.85986 -2.52906,-6.60558 -1.70094,-0.3846 -3.61772,0.0871 -4.25952,1.0482 z m 52.43519,4.48062 c 0.275,0.79965 1.6142,1.7058 2.97597,2.01368 2.28476,0.51656 2.25466,1.53869 -0.38936,13.23313 -3.257,14.40546 -5.61476,18.9305 -9.41595,18.07107 -2.19709,-0.49675 -2.77002,0.24387 -3.83602,4.9587 -1.48839,6.58305 -3.37984,7.89046 -15.14059,10.46565 -7.29058,1.59633 -9.99003,1.49124 -20.03557,-0.77999 -10.74946,-2.43038 -12.18691,-3.10383 -19.39867,-9.08839 l -7.78895,-6.46354 1.12655,-6.7752 c 0.92364,-5.55485 0.70716,-6.87 -1.20187,-7.30162 -4.40307,-0.99551 -4.82873,-4.80245 -2.16372,-19.35076 2.48447,-13.56247 2.67503,-14.05474 5.21848,-13.4797 1.45192,0.32828 3.12441,0.103 3.71663,-0.50053 0.59226,-0.60355 1.96622,-0.89629 3.05329,-0.65051 1.53453,0.34695 1.58805,1.18348 0.23935,3.74145 -3.23102,6.12792 -5.54005,11.88244 -5.38634,13.42372 0.084,0.84354 1.35974,1.49335 2.8347,1.44402 1.546,-0.0516 3.55223,1.14815 4.73704,2.83305 1.67194,2.37759 2.52304,2.72476 4.56321,1.86151 4.93595,-2.08858 6.21749,-1.84419 8.56775,1.63388 l 2.38324,3.52689 4.88905,-3.38909 4.88907,-3.38907 2.72525,5.30282 2.72527,5.30283 3.96712,-2.3342 c 3.88047,-2.28321 4.01258,-2.26954 6.04812,0.62513 2.00642,2.85319 2.23806,2.90877 6.46241,1.54993 2.40976,-0.77513 5.42347,-0.86925 6.69717,-0.20918 1.93329,1.00191 2.45689,0.53303 3.17014,-2.83894 0.46993,-2.22146 0.54628,-6.5222 0.16974,-9.55722 -0.37652,-3.03498 -0.66079,-5.66359 -0.63171,-5.8414 0.15761,-0.96212 3.80565,0.73022 4.22922,1.96183 z"
       id="path3333"
       inkscape:connector-curvature="0" />
    <path
       inkscape:connector-curvature="0"
       id="path3335"
       d="m 462.43752,694.24989 c -2.46744,3.49248 -4.97055,4.3713 -8.50201,2.98506 -4.91179,-1.92803 -14.76437,-9.93222 -16.57468,-13.46516 -1.35859,-2.6514 -6.63375,-5.42624 -36.10049,-18.98937 -18.98016,-8.73631 -36.90461,-17.17091 -39.83211,-18.74354 -5.3202,-2.85801 -5.32309,-2.85763 -6.18384,0.84663 -1.58385,6.81572 -3.35789,6.52219 -31.34584,-5.18626 -13.92878,-5.82693 -25.23848,-10.39596 -25.13263,-10.15335 0.10575,0.2426 7.68455,5.03276 16.84165,10.64475 11.57315,7.09275 18.58118,10.6809 22.98608,11.76897 6.90457,1.70554 16.75755,9.25826 14.93734,11.45011 -0.53297,0.64175 -3.68467,0.45092 -7.00378,-0.42405 -6.57576,-1.73355 -9.22852,-0.68085 -10.58357,4.20002 -0.80027,2.88262 -0.27652,3.46812 5.82726,6.51436 6.28951,3.13893 9.8417,6.92238 7.47049,7.95675 -1.99024,0.86821 -16.39191,-3.56441 -18.12522,-5.57866 -0.9496,-1.10351 -2.61344,-3.84368 -3.69738,-6.08931 -1.78927,-3.70669 -4.6936,-5.54209 -31.52044,-19.91951 -39.14806,-20.98081 -37.91968,-20.1992 -40.93654,-26.04807 -2.9792,-5.7759 -3.12574,-8.42483 -1.31291,-23.7314 1.00802,-8.51113 0.78307,-11.49996 -1.0254,-13.62389 -2.15513,-2.53109 -2.93356,-2.47199 -11.16138,0.84747 -11.43686,4.61418 -25.07418,4.07096 -23.93115,-0.95321 0.29087,-1.27843 0.18973,-3.94718 -0.22467,-5.93053 -0.66,-3.15862 -0.46049,-3.70275 1.60784,-4.38505 3.14278,-1.03685 4.10657,-3.84898 2.64447,-7.71577 -1.14612,-3.031 -1.01476,-3.21336 3.08691,-4.28479 5.32945,-1.39216 6.3403,-3.78856 4.00003,-9.48302 -1.61396,-3.92722 -1.5379,-4.53395 0.65925,-5.25884 3.14276,-1.03682 5.00822,-5.64076 3.4386,-8.48664 -1.04064,-1.88685 -0.68445,-2.5 2.67665,-4.60773 2.13237,-1.33718 3.74177,-3.17672 3.57641,-4.08779 -0.53657,-2.95679 6.29664,0.80746 11.62741,6.40524 2.80389,2.94431 5.89837,7.94627 6.87667,11.11547 1.82576,5.91472 5.39793,8.6568 8.81873,6.7695 1.02299,-0.56438 5.34513,-5.62857 9.60478,-11.2538 8.77688,-11.5905 12.91938,-14.80006 19.67777,-15.2462 2.75178,-0.18167 19.30143,3.50156 39.73481,8.84323 l 35.01879,9.15461 7.09085,-2.02301 c 6.80493,-1.94143 7.37418,-1.87365 14.11715,1.68131 3.86445,2.03738 7.31741,4.35241 7.67327,5.14455 1.17388,2.61312 -1.95453,3.47157 -6.56902,1.80252 -7.39565,-2.67496 -11.14507,-2.60114 -12.76849,0.25149 -2.12969,3.74219 -0.56631,7.01893 4.25097,8.90987 5.47392,2.14875 9.05633,6.14022 6.05732,6.74906 -5.47333,1.11109 -15.67832,-0.68913 -18.85505,-3.32614 -2.51191,-2.08517 -7.72137,-3.5148 -23.5157,-6.45341 l -20.28895,-3.77486 26.04935,9.4673 c 25.74887,9.35813 26.05365,9.50396 26.42385,12.64431 0.206,1.74733 -0.30547,4.10989 -1.13654,5.25015 -1.90081,2.60792 -3.66552,1.91972 44.01118,17.16256 33.15588,10.60038 38.30951,11.94952 41.72167,10.92216 5.58041,-1.68025 21.7999,0.67926 24.22178,3.52362 2.08112,2.44415 1.51589,7.6815 -1.71806,15.92014 -3.12578,7.96302 -5.11624,9.01991 -14.94808,7.93696 -8.00106,-0.88127 -9.13735,-1.30276 -13.6942,-5.07979 -4.83774,-4.00978 -6.08213,-4.34779 -47.03914,-12.77656 -28.89641,-5.9467 -42.25691,-8.18155 -42.66694,-7.13696 -0.81061,2.06504 -1.33639,1.7142 37.71866,25.16933 27.86964,16.73757 35.34607,20.77405 38.71965,20.90444 2.29944,0.0889 6.20343,0.95495 8.67529,1.92578 5.687,2.23235 14.72208,9.28118 15.22471,11.87772 0.40504,2.09232 -4.05189,13.76058 -6.67344,17.47117 z M 298.63743,611.66792 c -2.39471,-3.37789 -3.11558,-9.86244 -1.13629,-10.22163 1.75473,-0.31844 5.85421,-10.84364 4.78114,-12.27537 -0.45923,-0.61275 0.44351,-2.02053 2.00632,-3.12839 2.45813,-1.74269 2.7849,-2.55183 2.42304,-6.00053 -0.22999,-2.1924 0.0971,-3.7839 0.72703,-3.53666 0.62987,0.24731 1.36025,-0.0983 1.62308,-0.76785 0.26277,-0.66959 -0.73968,-1.69534 -2.2278,-2.2795 l -2.70568,-1.06208 3.44958,-0.83303 c 3.7953,-0.91655 5.60392,-3.9586 4.22832,-7.11196 -1.40652,-3.22428 -2.91087,-3.10199 -2.29816,0.1868 0.44341,2.37989 0.12162,3.18409 -1.56882,3.92152 -1.7053,0.7439 -2.43169,-0.0214 -3.66663,-3.86292 -1.63824,-5.09617 -3.23332,-4.36316 -1.77986,0.81788 1.35251,4.82116 0.35947,5.45351 -2.06625,1.31568 -2.17557,-3.71126 -6.46366,-6.36613 -8.70395,-5.38886 -2.26616,0.98854 1.19437,6.40371 6.57086,10.28233 5.50272,3.9697 8.29771,9.79514 5.65127,11.77858 -1.84628,1.38377 -5.58358,-0.38572 -6.46639,-3.0616 -0.59904,-1.81579 -0.26044,-2.21626 1.6458,-1.94651 2.28658,0.32359 2.31158,0.25184 0.5293,-1.51934 -1.20608,-1.19848 -2.44124,-1.43146 -3.47632,-0.65565 -2.42344,1.81631 -1.97247,4.3965 1.55722,8.90995 4.15677,5.31524 3.40201,7.08535 -1.5804,3.7067 -2.13604,-1.44845 -4.02336,-2.43883 -4.19404,-2.20082 -0.17068,0.23798 -0.84798,1.80227 -1.50505,3.47618 -1.9642,5.00389 -1.93823,5.17263 1.46152,9.51995 3.58319,4.58181 3.38568,8.77746 -0.28717,6.10046 -1.20168,-0.87585 -2.04713,-1.9434 -1.87876,-2.3723 0.16843,-0.42889 -2.24712,-1.55479 -5.36774,-2.502 -7.14705,-2.16932 -10.69842,0.0736 -8.41277,5.31309 2.11828,4.85591 7.00183,6.45247 10.21662,3.34011 4.09662,-3.96614 6.90802,-1.7076 7.69517,6.18185 0.28211,2.82771 1.40643,5.11826 2.77623,5.65597 4.67466,1.83498 5.90497,-4.24309 1.97962,-9.78 z m -0.71022,7.46832 c -1.28031,-0.50257 -2.85776,-4.17334 -2.34967,-5.46769 0.21946,-0.55923 1.26459,-3e-4 2.32241,1.24204 1.8992,2.23051 1.91687,4.96739 0.0273,4.22565 z m -0.92736,-20.68282 c -2.54118,-0.0195 -6.49384,-4.07819 -5.76928,-5.9241 0.99816,-2.54285 4.952,-1.0865 6.46472,2.38116 1.35799,3.11297 1.27067,3.55793 -0.69541,3.54287 z m -14.33498,10.04205 c -2.43652,-0.0187 -5.53461,-3.31023 -4.82269,-5.12386 0.23427,-0.59659 2.27365,-0.55751 4.5321,0.087 3.08167,0.87924 3.91612,1.65611 3.34421,3.11304 -0.41915,1.0678 -1.79328,1.93354 -3.05362,1.92393 z m 14.23968,-41.15851 c -3.03598,-2.23405 -3.72427,-3.16866 -2.67171,-3.62781 0.38989,-0.1701 1.76373,1.02779 3.05295,2.66196 l 2.34401,2.97127 z m -49.11275,-2.20244 c -0.63916,-1.46521 -1.27444,-2.7081 -1.41176,-2.76202 -0.13733,-0.054 -1.20212,2.37122 -2.36628,5.38909 -2.24505,5.82 -1.7345,7.20842 1.66255,4.52081 2.9301,-2.31819 3.45246,-4.08307 2.11549,-7.14788 z m -18.1565,7.79086 c -2.16796,-0.51365 -3.12944,0.16119 -4.23233,2.97088 -1.69432,4.31636 1.53192,7.27492 5.31548,4.87441 3.33194,-2.11394 2.66319,-6.95767 -1.08315,-7.84529 z m 12.51146,-25.36752 c -2.54534,-2.32628 -5.67631,-1.64603 -6.91192,1.50179 -0.63722,1.6233 -0.46057,3.58935 0.39248,4.36899 2.54534,2.32629 5.6763,1.64601 6.91192,-1.50177 0.63721,-1.6233 0.46057,-3.58935 -0.39248,-4.36901 z m -12.35314,51.15588 c -0.832,0.15105 -1.93012,1.33788 -2.44028,2.63749 -0.85589,2.18045 -1.86173,1.99625 -13.02229,-2.38467 -13.74784,-5.39653 -17.86461,-8.41102 -16.44063,-12.0387 0.82308,-2.09678 0.17754,-2.77507 -4.32203,-4.54129 -6.28253,-2.46614 -7.2891,-4.53343 -8.05743,-16.54829 -0.47626,-7.4481 0.0355,-10.10066 3.79879,-19.68761 4.02691,-10.25873 4.90986,-11.57789 11.91554,-17.80246 l 7.56636,-6.72273 6.52714,2.13748 c 5.35148,1.75249 6.68423,1.73723 7.3994,-0.0846 1.64945,-4.20208 5.47702,-4.04754 19.4555,0.7854 13.03127,4.50548 13.48908,4.76825 12.53627,7.19558 -0.54391,1.38564 -0.57396,3.07297 -0.0669,3.74959 0.50713,0.67666 0.58886,2.07909 0.18164,3.11653 -0.57486,1.46447 -1.4099,1.39096 -3.73465,-0.32882 -5.56928,-4.11995 -10.90878,-7.27207 -12.45559,-7.35305 -0.84654,-0.0445 -1.68167,1.11845 -1.85581,2.58393 -0.18258,1.53605 -1.67178,3.33792 -3.51638,4.25451 -2.60295,1.29344 -3.07476,2.0823 -2.52972,4.22948 1.31869,5.19491 0.88345,6.4248 -2.90986,8.22246 l -3.84654,1.82288 2.61134,5.34506 2.61132,5.34507 -5.65377,1.89262 -5.65377,1.8926 1.70789,4.27431 c 1.67056,4.18093 1.63709,4.30947 -1.53194,5.88418 -3.12365,1.5522 -3.21357,1.77278 -2.50871,6.15397 0.40204,2.49922 0.0397,5.49255 -0.80532,6.65187 -1.28254,1.75968 -0.89819,2.34812 2.32726,3.56275 2.12495,0.80022 6.36477,1.52565 9.42181,1.61208 3.05704,0.0865 5.69843,0.20267 5.86979,0.25828 0.92727,0.30119 -1.29693,3.65159 -2.57841,3.88418 z"
       style="fill:none;stroke:#000000;stroke-width:1.30783391" />
    <path
       inkscape:connector-curvature="0"
       id="path3337"
       d="m 283.32883,467.46408 c 4.05639,-1.35336 6.59387,-0.57938 8.61886,2.62878 2.81645,4.46212 6.01659,16.74625 5.38346,20.66516 -0.47516,2.94108 2.13275,8.30075 17.8472,36.6786 10.12202,18.27879 19.57195,35.68935 20.99985,38.69008 2.59495,5.45336 2.5975,5.45477 5.48455,2.97938 5.31211,-4.55455 6.56788,-3.26758 22.1889,22.7401 7.7741,12.94321 14.18251,23.32192 14.24086,23.06374 0.0584,-0.25815 -3.21251,-8.60585 -7.26866,-18.55042 -5.12634,-12.56843 -8.64908,-19.60957 -11.55444,-23.09465 -4.55411,-5.46281 -8.02188,-17.38334 -5.25722,-18.07184 0.80948,-0.20156 3.23627,1.81844 5.39284,4.48887 4.27256,5.29067 7.03363,6.01312 11.01565,2.88227 2.35178,-1.84907 2.2764,-2.63102 -0.8385,-8.70003 -3.20971,-6.25369 -3.83194,-11.40591 -1.30861,-10.83539 2.1179,0.47883 11.09871,12.57846 11.30278,15.22798 0.11175,1.45155 -0.16993,4.64491 -0.62611,7.09635 -0.75299,4.04649 0.50064,7.24527 13.6056,34.71617 19.12388,40.08794 18.59681,38.73071 17.56464,45.23035 -1.01933,6.41854 -2.46972,8.63995 -12.99405,19.90122 -5.85197,6.26175 -7.44047,8.80348 -7.24076,11.58588 0.23795,3.31579 0.90026,3.72908 9.49612,5.92606 11.9485,3.05378 22.61639,11.56657 18.72034,14.93845 -0.99139,0.85798 -2.49014,3.06845 -3.33057,4.91211 -1.33846,2.93616 -1.82142,3.2565 -3.89219,2.58161 -3.14655,-1.02541 -5.58835,0.67005 -6.69975,4.65184 -0.87117,3.12116 -1.085,3.19034 -5.02471,1.62502 -5.11905,-2.03386 -7.35262,-0.70128 -8.83857,5.27329 -1.02484,4.12042 -1.44539,4.5643 -3.64517,3.84745 -3.14652,-1.0254 -7.3759,1.58007 -7.79616,4.80282 -0.27866,2.13668 -0.92875,2.41987 -4.88533,2.12819 -2.51012,-0.1851 -4.8963,0.3443 -5.30254,1.17642 -1.31839,2.70041 -4.59596,-4.37911 -5.57713,-12.04654 -0.51609,-4.03293 -0.0479,-9.89605 1.04029,-13.02919 2.03097,-5.84745 0.77604,-10.17232 -3.09812,-10.677 -1.15856,-0.15089 -7.64018,1.37074 -14.40365,3.38154 -13.93585,4.14309 -19.17453,4.2766 -24.88491,0.63427 -2.3251,-1.48301 -13.48056,-14.25064 -26.78372,-30.65436 l -22.79896,-28.11281 -6.91199,-2.56847 c -6.63326,-2.46492 -7.05188,-2.85658 -10.38065,-9.71404 -1.90778,-3.93006 -3.31951,-7.84024 -3.13721,-8.68926 0.60132,-2.80087 3.63063,-1.64021 6.3609,2.43715 4.37583,6.53477 7.44098,8.69541 10.43831,7.35794 3.93206,-1.75458 4.61248,-5.32085 1.8502,-9.6971 -3.1388,-4.9728 -3.6622,-10.31058 -0.88495,-9.02538 5.06855,2.34552 12.2262,9.83891 13.22472,13.84496 0.7895,3.16768 4.14099,7.40443 15.12872,19.12474 l 14.11451,15.05562 -15.38583,-23.05372 c -15.20836,-22.78785 -15.36761,-23.08584 -13.80644,-25.83567 0.86865,-1.53004 2.67975,-3.13104 4.02465,-3.55782 3.07596,-0.97604 4.09055,0.62347 -25.30369,-39.89061 -20.44167,-28.1748 -23.7958,-32.31359 -27.15383,-33.50613 -5.49185,-1.95033 -17.16507,-13.45573 -17.43251,-17.1819 -0.2298,-3.2019 3.32687,-7.08769 10.81126,-11.81183 7.23403,-4.56608 9.46383,-4.23916 16.74553,2.45523 5.92576,5.44781 6.59185,6.46031 8.02747,12.20224 1.52415,6.09583 2.3268,7.10504 30.34084,38.14913 19.76475,21.90251 29.20791,31.61456 30.15686,31.01557 1.87598,-1.18411 2.09194,-0.59004 -15.49186,-42.61682 -12.54775,-29.99029 -16.18249,-37.67005 -18.82385,-39.7727 -1.80037,-1.43318 -4.43354,-4.44277 -5.85063,-6.68878 -3.261,-5.16637 -6.36803,-16.19654 -5.2356,-18.58658 0.91253,-1.9259 11.41324,-8.68962 15.72294,-10.12749 z m 83.09809,163.53885 c -0.0705,4.14004 -3.32916,9.79242 -5.13682,8.90986 -1.60262,-0.78241 -11.13844,5.27185 -11.12147,7.06101 0.007,0.76569 -1.55379,1.3656 -3.4692,1.33298 -3.01277,-0.0511 -3.75518,0.40735 -5.50568,3.40073 -1.11283,1.90289 -2.31885,2.99168 -2.68001,2.41949 -0.36116,-0.57224 -1.15436,-0.72623 -1.76263,-0.34229 -0.60823,0.38397 -0.40779,1.80416 0.44552,3.15604 l 1.55148,2.45798 -3.27311,-1.37128 c -3.60112,-1.50873 -6.85987,-0.12816 -7.61855,3.22743 -0.77576,3.43108 0.50891,4.2233 1.96257,1.21025 1.05188,-2.18035 1.78735,-2.63791 3.58628,-2.23118 1.81466,0.41028 1.94685,1.45715 0.66735,5.28405 -1.6974,5.07675 0.0221,5.43054 1.91858,0.3948 1.76486,-4.68596 2.93951,-4.60752 2.44412,0.16331 -0.44436,4.27892 1.43915,8.95744 3.82314,9.49644 2.41151,0.54525 2.82936,-5.8676 0.79338,-12.17674 -2.08376,-6.45727 -0.88668,-12.80666 2.42037,-12.83798 2.30721,-0.0218 4.27113,3.61703 3.39806,6.2961 -0.59244,1.81796 -1.10244,1.94018 -2.47884,0.59407 -1.65103,-1.61472 -1.71366,-1.57169 -1.32618,0.91095 0.26228,1.67994 1.11965,2.59905 2.41316,2.58676 3.02838,-0.0286 4.1928,-2.37493 4.02094,-8.10208 -0.20239,-6.7446 1.45395,-7.72413 3.46841,-2.05123 0.86364,2.43203 1.79809,4.34766 2.07657,4.25695 0.27844,-0.0908 1.7505,-0.95027 3.27116,-1.9101 4.54579,-2.8693 4.62479,-3.02066 4.4593,-8.53701 -0.17447,-5.81393 2.46905,-9.078 3.84365,-4.74596 0.44977,1.41735 0.49894,2.77824 0.10938,3.02417 -0.38969,0.24589 0.89018,2.58352 2.84405,5.19462 4.47488,5.98009 8.66478,6.27558 9.92542,0.69993 1.1683,-5.16741 -1.8217,-9.3457 -6.25522,-8.74114 -5.64972,0.77032 -6.57792,-2.71442 -2.54067,-9.53816 1.44702,-2.44575 1.89731,-4.95731 1.11185,-6.20171 -2.6805,-4.24672 -7.27095,-0.0773 -7.38628,6.70894 z m 4.99453,-5.59774 c 0.73414,1.16309 -0.16824,5.05522 -1.34411,5.79742 -0.50797,0.32071 -1.01925,-0.74858 -1.13604,-2.37606 -0.2097,-2.92201 1.39663,-5.13797 2.48015,-3.42136 z m -11.49958,17.21622 c 2.0363,1.52037 2.81821,7.13159 1.1413,8.19006 -2.31005,1.45809 -4.63388,-2.05669 -3.7996,-5.74679 0.74896,-3.31268 1.08282,-3.61953 2.65824,-2.44323 z m 17.49795,0.39584 c 1.9524,1.45775 2.49994,5.94473 0.85232,6.98468 -0.54202,0.34204 -2.16229,-0.89704 -3.60071,-2.75362 -1.96271,-2.53327 -2.17513,-3.6534 -0.85157,-4.48882 0.97005,-0.6123 2.58999,-0.49628 3.59996,0.25776 z m -35.84609,24.7356 c 1.12368,3.59797 1.12492,4.75868 0.005,4.50541 -0.41492,-0.0939 -0.81272,-1.87256 -0.88399,-3.95285 l -0.12947,-3.78232 z m 38.27307,30.85589 c -0.35253,1.5592 -0.57654,2.93694 -0.49782,3.06168 0.0787,0.12476 2.37279,-1.19902 5.09789,-2.94163 5.25534,-3.36063 5.66604,-4.78177 1.33715,-4.62749 -3.73388,0.13308 -5.19986,1.24601 -5.93722,4.50744 z m 19.24448,4.47275 c 1.44288,1.69764 2.6173,1.72311 5.16974,0.112 3.92119,-2.47504 3.07319,-6.76952 -1.39717,-7.07547 -3.93675,-0.26941 -6.26595,4.02986 -3.77257,6.96345 z m -25.10312,13.03388 c 0.67369,3.38179 3.59955,4.68754 6.45916,2.88253 1.4747,-0.9308 2.49652,-2.61972 2.27075,-3.75312 -0.67369,-3.3818 -3.59957,-4.68754 -6.45916,-2.88256 -1.4747,0.9308 -2.49652,2.61973 -2.27075,3.75315 z m 40.24556,-33.90902 c 0.75989,0.37098 2.34757,0.0648 3.52822,-0.68045 1.98084,-1.25029 2.68229,-0.50626 9.0819,9.63258 7.88317,12.48924 9.41567,17.3561 6.1201,19.43626 -1.90482,1.20232 -1.78627,2.13112 0.79387,6.21878 3.60247,5.70738 3.18949,7.96932 -3.3057,18.10635 -4.02643,6.28399 -6.00955,8.11849 -14.71882,13.61577 -9.31954,5.88247 -10.81219,6.42269 -20.14339,7.29045 l -10.07805,0.93722 -3.99418,-5.58738 c -3.27476,-4.58099 -4.35779,-5.35785 -6.01288,-4.31318 -3.81737,2.4095 -6.81028,0.0187 -15.21302,-12.15307 -7.83335,-11.3469 -8.04669,-11.82974 -5.84156,-13.2216 1.25876,-0.79454 2.28211,-2.13648 2.27409,-2.98199 -0.008,-0.84556 0.75656,-2.0241 1.69904,-2.61898 1.3304,-0.83976 1.95976,-0.28608 2.81484,2.47635 2.04842,6.61778 4.48476,12.31955 5.68329,13.30072 0.6559,0.53705 2.01744,0.0945 3.02551,-0.98335 1.05667,-1.12972 3.32369,-1.69994 5.35287,-1.34634 2.86346,0.49899 3.71077,0.14273 4.54296,-1.91036 2.01339,-4.96712 3.09238,-5.70049 7.21365,-4.90301 l 4.17909,0.80869 1.06064,-5.85353 1.06065,-5.85354 5.67672,1.82263 5.67671,1.82261 1.15463,-4.45571 c 1.12946,-4.35838 1.23254,-4.44213 4.71872,-3.83464 3.43628,0.59877 3.63935,0.47427 5.66557,-3.47364 1.15586,-2.25207 3.22033,-4.44962 4.5877,-4.88353 2.07551,-0.6586 2.11421,-1.36038 0.2342,-4.24905 -1.23852,-1.90309 -4.22561,-4.99818 -6.63794,-6.87801 -2.41228,-1.87981 -4.47202,-3.53753 -4.57717,-3.68382 -0.5689,-0.79177 3.20733,-2.17466 4.37772,-1.60327 z"
       style="fill:none;stroke:#000000;stroke-width:1.30783391" />
    <path
       style="fill:none;stroke:#000000;stroke-width:1.30783391"
       d="m 485.91421,581.20264 c 0.72482,4.21431 -0.42373,6.60569 -3.90106,8.1226 -4.83649,2.10983 -17.46314,3.41682 -21.24138,2.19875 -2.83549,-0.91415 -8.5277,0.85386 -38.95443,12.0994 -19.59849,7.24349 -38.23715,13.95383 -41.41922,14.91187 -5.78288,1.74103 -5.78465,1.74332 -3.77399,4.9713 3.69949,5.9394 2.23751,6.98627 -25.83208,18.4976 -13.96941,5.72888 -25.19736,10.49526 -24.95095,10.59195 0.24632,0.0967 8.99249,-1.87509 19.4358,-4.38185 13.19879,-3.16813 20.69141,-5.58637 24.57554,-7.9317 6.08827,-3.67628 18.39594,-5.30282 18.65874,-2.46587 0.077,0.83068 -2.28661,2.92432 -5.25227,4.65259 -5.87556,3.42395 -7.00699,6.04412 -4.51386,10.45357 1.47246,2.60421 2.25681,2.64786 8.72685,0.48588 6.6669,-2.22781 11.85401,-2.0643 10.90871,0.34384 -0.79339,2.02121 -14.11125,9.07038 -16.76118,8.87175 -1.45178,-0.10887 -4.56587,-0.86993 -6.92023,-1.69136 -3.88623,-1.35582 -7.23772,-0.59997 -36.37354,8.20308 -42.51754,12.8462 -41.09625,12.53027 -47.36526,10.52776 -6.1908,-1.97757 -8.16749,-3.74702 -17.70902,-15.85227 -5.30549,-6.73106 -7.57797,-8.68542 -10.35861,-8.90849 -3.31365,-0.26584 -3.8223,0.3264 -7.29303,8.49156 -4.82437,11.34978 -14.85152,20.60873 -17.5959,16.24785 -0.69833,-1.10968 -2.6569,-2.92523 -4.35238,-4.03465 -2.70017,-1.76681 -2.94385,-2.29264 -1.96377,-4.23761 1.48911,-2.95545 0.18212,-5.62543 -3.58598,-7.32579 -2.95365,-1.33282 -2.98974,-1.55467 -0.84701,-5.2126 2.78409,-4.7529 1.80434,-7.16218 -3.87708,-9.53396 -3.9182,-1.63572 -4.29343,-2.11853 -3.25238,-4.18471 1.48911,-2.95542 -0.44728,-7.52997 -3.5695,-8.43241 -2.07007,-0.59838 -2.25175,-1.28379 -1.3655,-5.15084 0.56228,-2.45333 0.39956,-4.8921 -0.3616,-5.41943 -2.47017,-1.71135 5.02336,-3.88142 12.75102,-3.69261 4.06459,0.0992 9.78963,1.44808 12.72236,2.99729 5.47334,2.89132 9.9382,2.30435 11.02254,-1.44903 0.3243,-1.12245 -0.20042,-7.75959 -1.16602,-14.74925 -1.98952,-14.40191 -1.32987,-19.6006 3.13357,-24.69497 1.81738,-2.07428 16.12418,-11.1722 34.34989,-21.84365 l 31.2353,-18.28874 3.5835,-6.44447 c 3.43901,-6.1846 3.88946,-6.53919 11.17118,-8.79348 4.17324,-1.29193 8.25184,-2.09655 9.06357,-1.78805 2.67783,1.01768 1.07272,3.83683 -3.37039,5.91957 -7.12102,3.33803 -9.72004,6.04146 -8.85087,9.20651 1.1402,4.15204 4.5627,5.36358 9.30612,3.29434 5.39002,-2.35125 10.74559,-2.06202 9.05547,0.48912 -3.08456,4.65591 -11.57352,10.59897 -15.68447,10.98061 -3.25063,0.30175 -7.94518,2.97449 -21.19135,12.06486 l -17.01569,11.67721 25.11407,-11.72527 c 24.82441,-11.58999 25.14301,-11.7024 27.62536,-9.7436 1.3812,1.08987 2.69013,3.12214 2.90875,4.51606 0.5,3.18816 -1.23446,3.94937 43.25637,-18.98484 30.94036,-15.94915 35.53851,-18.63931 37.22481,-21.77854 2.75785,-5.13406 15.89518,-14.93452 19.61895,-14.6358 3.19986,0.25671 6.50355,4.35974 10.0424,12.47209 3.42043,7.84097 2.7603,9.99576 -4.95761,16.18217 -6.28074,5.03444 -7.38228,5.53989 -13.27521,6.0913 -6.25616,0.58545 -7.37508,1.22635 -42.29609,24.22732 -24.6378,16.22787 -35.66537,24.09491 -35.21668,25.12347 0.88703,2.0334 0.26717,2.15708 44.46853,-8.87371 31.54206,-7.87155 39.68291,-10.30398 42.16059,-12.59726 1.68883,-1.56307 5.06175,-3.71123 7.4961,-4.77263 5.59984,-2.44279 16.97285,-3.84729 19.16431,-2.36666 1.7659,1.19307 6.86508,12.59531 7.63512,17.07281 z m -174.21842,57.4299 c -4.08184,-0.69522 -9.17685,-4.77075 -8.03126,-6.42431 1.01562,-1.46595 -3.52806,-11.80718 -5.29923,-12.06077 -0.758,-0.10851 -1.11513,-1.74233 -0.79343,-3.63078 0.5059,-2.97044 0.16482,-3.77363 -2.52967,-5.95639 -1.71288,-1.38762 -2.60693,-2.74428 -1.98669,-3.01486 0.62026,-0.27052 0.89237,-1.03132 0.60473,-1.69065 -0.28766,-0.65928 -1.72182,-0.67577 -3.18713,-0.0367 l -2.6642,1.16221 1.85016,-3.02828 c 2.03558,-3.33177 1.16341,-6.76171 -2.03904,-8.01878 -3.27446,-1.28536 -4.25172,-0.1352 -1.49294,1.75712 1.99636,1.3693 2.33748,2.16552 1.6636,3.88227 -0.6798,1.73183 -1.7346,1.70432 -5.3242,-0.13879 -4.76194,-2.44511 -5.37151,-0.79893 -0.68022,1.83688 4.36545,2.45272 4.11039,3.60202 -0.53072,2.39138 -4.16263,-1.08589 -9.07205,0.069 -9.96514,2.34412 -0.90341,2.30143 5.37265,3.68357 11.917,2.62442 6.69803,-1.08401 12.79359,1.05883 12.32477,4.33266 -0.32705,2.284 -4.22094,3.67544 -6.7373,2.40753 -1.70756,-0.86036 -1.75128,-1.38296 -0.21264,-2.54013 1.84568,-1.38804 1.81262,-1.45645 -0.70005,-1.44861 -1.70029,0.005 -2.73843,0.71401 -2.92176,1.99453 -0.4293,2.99794 1.71404,4.50354 7.40141,5.19917 6.69772,0.81913 7.41568,2.60451 1.50352,3.73853 -2.53461,0.4862 -4.56945,1.12044 -4.52185,1.40943 0.0475,0.28896 0.67478,1.87399 1.3938,3.52225 2.14939,4.92719 2.28708,5.02814 7.76509,5.69818 5.77352,0.70612 8.60061,3.81256 4.1106,4.51672 -1.46903,0.23041 -2.82172,0.0734 -3.00596,-0.34899 -0.18418,-0.42236 -2.68835,0.48955 -5.56474,2.0264 -6.58767,3.51979 -7.51289,7.61694 -2.1918,9.70565 4.93148,1.93579 9.51363,-0.38846 9.58604,-4.86245 0.0923,-5.70121 3.67726,-6.09215 9.81256,-1.07006 2.19896,1.8 4.61365,2.62466 5.96245,2.03627 4.60302,-2.00795 1.17514,-7.17577 -5.51569,-8.3153 z m 4.7787,5.78309 c -1.2607,0.54995 -4.97175,-0.93026 -5.52772,-2.20478 -0.24026,-0.55061 0.89399,-0.89441 2.52045,-0.76392 2.92015,0.23427 4.8679,2.15702 3.00728,2.96869 z m -15.28071,-13.96921 c -1.81065,1.78313 -7.47556,1.70813 -8.26846,-0.1095 -1.09227,-2.50387 2.73333,-4.26986 6.25497,-2.88752 3.16144,1.24098 3.41433,1.61736 2.01347,2.99692 z m -3.03556,17.23716 c -1.73606,1.7097 -6.25424,1.57288 -7.03327,-0.21297 -0.2562,-0.58751 1.2135,-2.00191 3.26617,-3.14317 2.80081,-1.55734 3.94016,-1.59807 4.56597,-0.16348 0.45866,1.05143 0.0993,2.63524 -0.7988,3.51964 z m -19.03448,-39.17243 c -3.72646,0.56704 -4.87404,0.39287 -4.45443,-0.67607 0.15547,-0.39598 1.97389,-0.52038 4.04105,-0.27648 l 3.75845,0.44355 z m -36.28533,33.17059 c -1.48801,-0.58411 -2.81609,-1.01375 -2.95131,-0.95477 -0.1352,0.059 0.8267,2.52672 2.13746,5.48389 2.52786,5.70283 3.87063,6.32359 4.3723,2.02108 0.43268,-3.71111 -0.44591,-5.32843 -3.55845,-6.5502 z m -7.32961,18.34757 c -1.89618,1.16975 -2.09886,2.32681 -0.89198,5.09342 1.85407,4.2502 6.22737,4.06093 7.20533,-0.31189 0.86126,-3.8508 -3.03664,-6.80295 -6.31335,-4.78153 z m -9.09061,-26.78451 c -3.44475,0.15498 -5.17768,2.84985 -3.82554,5.9494 0.69727,1.59843 2.21237,2.86372 3.36687,2.81182 3.44477,-0.15482 5.17767,-2.84984 3.82555,-5.94937 -0.69726,-1.59842 -2.21237,-2.86373 -3.36688,-2.81185 z m 27.43768,44.90767 c -0.48148,0.69512 -0.41878,2.31082 0.13945,3.59052 0.9366,2.14702 0.0951,2.72801 -10.89437,7.52194 -13.5371,5.90526 -18.57968,6.6847 -20.13793,3.11261 -0.90063,-2.06463 -1.83672,-2.08779 -6.26731,-0.15498 -6.18624,2.6986 -8.3598,1.94857 -17.39887,-6.00394 -5.60337,-4.92982 -7.11715,-7.16733 -11.23509,-16.60739 -4.40655,-10.10148 -4.715,-11.6586 -4.16268,-21.0138 l 0.59654,-10.1039 6.12681,-3.10396 c 5.02325,-2.54487 5.95488,-3.49807 5.17229,-5.29204 -1.80497,-4.13765 1.01079,-6.73489 14.31248,-13.20176 12.40035,-6.02864 12.90988,-6.16657 13.95252,-3.77644 0.59519,1.3644 1.76706,2.57877 2.60409,2.69865 0.83706,0.11988 1.88652,1.05374 2.33215,2.07528 0.62905,1.44203 -0.0131,1.98049 -2.8733,2.40829 -6.85133,1.02483 -12.8558,2.57153 -14.00681,3.60803 -0.63005,0.56716 -0.39828,1.97999 0.51485,3.13936 0.95705,1.21525 1.17813,3.5424 0.52193,5.49486 -0.92596,2.75516 -0.70177,3.64659 1.2019,4.77946 4.60582,2.74092 5.1677,3.91834 3.75658,7.87176 l -1.43094,4.00887 5.62603,1.93305 5.62602,1.93305 -2.65955,5.3361 -2.65955,5.33607 4.23006,1.81476 c 4.13763,1.77508 4.20485,1.88963 3.07752,5.24398 -1.11119,3.30632 -1.0188,3.52588 2.57757,6.12544 2.0515,1.48291 3.9119,3.85572 4.13413,5.27302 0.33738,2.15118 1.02526,2.29549 4.16486,0.87361 2.06842,-0.93672 5.57937,-3.42176 7.80215,-5.5223 2.22279,-2.1005 4.17271,-3.88608 4.33321,-3.96792 0.86865,-0.44272 1.66499,3.49913 0.9233,4.56973 z"
       id="path3339"
       inkscape:connector-curvature="0" />
  </g>
</svg>
